<?xml version="1.0" encoding="utf-8" standalone="no"?>
<!DOCTYPE svg PUBLIC "-//W3C//DTD SVG 1.1//EN"
  "http://www.w3.org/Graphics/SVG/1.1/DTD/svg11.dtd">
<svg xmlns:xlink="http://www.w3.org/1999/xlink" width="887.053785pt" height="666.302031pt" viewBox="0 0 887.053785 666.302031" xmlns="http://www.w3.org/2000/svg" version="1.1">
 <metadata>
  <rdf:RDF xmlns:dc="http://purl.org/dc/elements/1.1/" xmlns:cc="http://creativecommons.org/ns#" xmlns:rdf="http://www.w3.org/1999/02/22-rdf-syntax-ns#">
   <cc:Work>
    <dc:type rdf:resource="http://purl.org/dc/dcmitype/StillImage"/>
    <dc:date>2025-05-30T19:51:49.008260</dc:date>
    <dc:format>image/svg+xml</dc:format>
    <dc:creator>
     <cc:Agent>
      <dc:title>Matplotlib v3.10.1, https://matplotlib.org/</dc:title>
     </cc:Agent>
    </dc:creator>
   </cc:Work>
  </rdf:RDF>
 </metadata>
 <defs>
  <style type="text/css">*{stroke-linejoin: round; stroke-linecap: butt}</style>
 </defs>
 <g id="figure_1">
  <g id="patch_1">
   <path d="M 0 666.302031 
L 887.053785 666.302031 
L 887.053785 0 
L 0 0 
z
" style="fill: #ffffff"/>
  </g>
  <g id="axes_1">
   <g id="patch_2">
    <path d="M 721.533785 359.7275 
C 721.533785 323.32593 714.363469 287.278318 700.433191 253.647653 
C 686.502914 220.016987 666.083582 189.457298 640.343785 163.7175 
C 614.603987 137.977703 584.044298 117.558372 550.413633 103.628094 
C 516.782967 89.697816 480.735356 82.5275 444.333785 82.5275 
C 407.932215 82.5275 371.884604 89.697816 338.253938 103.628094 
C 304.623272 117.558372 274.063583 137.977703 248.323785 163.7175 
C 222.583988 189.457298 202.164657 220.016987 188.234379 253.647653 
C 174.304101 287.278318 167.133785 323.32593 167.133785 359.7275 
C 167.133785 396.12907 174.304101 432.176682 188.234379 465.807347 
C 202.164657 499.438013 222.583988 529.997702 248.323785 555.7375 
C 274.063583 581.477297 304.623272 601.896628 338.253938 615.826906 
C 371.884604 629.757184 407.932215 636.9275 444.333785 636.9275 
C 480.735356 636.9275 516.782967 629.757184 550.413633 615.826906 
C 584.044298 601.896628 614.603987 581.477297 640.343785 555.7375 
C 666.083582 529.997702 686.502914 499.438013 700.433191 465.807347 
C 714.363469 432.176682 721.533785 396.12907 721.533785 359.7275 
M 444.333785 359.7275 
C 444.333785 359.7275 444.333785 359.7275 444.333785 359.7275 
C 444.333785 359.7275 444.333785 359.7275 444.333785 359.7275 
C 444.333785 359.7275 444.333785 359.7275 444.333785 359.7275 
C 444.333785 359.7275 444.333785 359.7275 444.333785 359.7275 
C 444.333785 359.7275 444.333785 359.7275 444.333785 359.7275 
C 444.333785 359.7275 444.333785 359.7275 444.333785 359.7275 
C 444.333785 359.7275 444.333785 359.7275 444.333785 359.7275 
C 444.333785 359.7275 444.333785 359.7275 444.333785 359.7275 
C 444.333785 359.7275 444.333785 359.7275 444.333785 359.7275 
C 444.333785 359.7275 444.333785 359.7275 444.333785 359.7275 
C 444.333785 359.7275 444.333785 359.7275 444.333785 359.7275 
C 444.333785 359.7275 444.333785 359.7275 444.333785 359.7275 
C 444.333785 359.7275 444.333785 359.7275 444.333785 359.7275 
C 444.333785 359.7275 444.333785 359.7275 444.333785 359.7275 
C 444.333785 359.7275 444.333785 359.7275 444.333785 359.7275 
C 444.333785 359.7275 444.333785 359.7275 444.333785 359.7275 
z
" style="fill: #ffffff"/>
   </g>
   <g id="patch_3">
    <path d="M 444.333785 212.8115 
L 545.159927 301.5155 
L 549.961172 420.7115 
L 444.333785 506.6435 
L 317.100797 433.1855 
L 290.69395 271.0235 
z
" clip-path="url(#pe58cbc4f24)" style="fill: #1f77b4; opacity: 0.15; stroke: #1f77b4; stroke-linejoin: miter"/>
   </g>
   <g id="patch_4">
    <path d="M 444.333785 146.2835 
L 633.982956 250.2335 
L 605.175487 452.5895 
L 444.333785 548.2235 
L 283.492083 452.5895 
L 360.312 311.2175 
z
" clip-path="url(#pe58cbc4f24)" style="fill: #ff7f0e; opacity: 0.15; stroke: #ff7f0e; stroke-linejoin: miter"/>
   </g>
   <g id="patch_5">
    <path d="M 444.333785 104.7035 
L 557.163039 294.5855 
L 650.787313 478.9235 
L 444.333785 520.5035 
L 353.110133 412.3955 
L 357.911378 309.8315 
z
" clip-path="url(#pe58cbc4f24)" style="fill: #2ca02c; opacity: 0.15; stroke: #2ca02c; stroke-linejoin: miter"/>
   </g>
   <g id="matplotlib.axis_1">
    <g id="xtick_1">
     <g id="line2d_1">
      <path d="M 444.333785 359.7275 
L 444.333785 82.5275 
" clip-path="url(#pe58cbc4f24)" style="fill: none; stroke: #b0b0b0; stroke-width: 0.8; stroke-linecap: square"/>
     </g>
     <g id="text_1">
      <!-- Graduation Rate -->
      <g transform="translate(385.102535 72.851719) scale(0.18 -0.18)">
       <defs>
        <path id="TimesNewRomanPSMT-47" d="M 3928 4334 
L 4038 2997 
L 3928 2997 
Q 3763 3497 3500 3750 
Q 3122 4116 2528 4116 
Q 1719 4116 1297 3475 
Q 944 2934 944 2188 
Q 944 1581 1178 1081 
Q 1413 581 1792 348 
Q 2172 116 2572 116 
Q 2806 116 3025 175 
Q 3244 234 3447 350 
L 3447 1575 
Q 3447 1894 3398 1992 
Q 3350 2091 3248 2142 
Q 3147 2194 2891 2194 
L 2891 2313 
L 4531 2313 
L 4531 2194 
L 4453 2194 
Q 4209 2194 4119 2031 
Q 4056 1916 4056 1575 
L 4056 278 
Q 3697 84 3347 -6 
Q 2997 -97 2569 -97 
Q 1341 -97 703 691 
Q 225 1281 225 2053 
Q 225 2613 494 3125 
Q 813 3734 1369 4063 
Q 1834 4334 2469 4334 
Q 2700 4334 2889 4296 
Q 3078 4259 3425 4131 
Q 3600 4066 3659 4066 
Q 3719 4066 3761 4120 
Q 3803 4175 3813 4334 
L 3928 4334 
z
" transform="scale(0.015625)"/>
        <path id="TimesNewRomanPSMT-72" d="M 1038 2947 
L 1038 2303 
Q 1397 2947 1775 2947 
Q 1947 2947 2059 2842 
Q 2172 2738 2172 2600 
Q 2172 2478 2090 2393 
Q 2009 2309 1897 2309 
Q 1788 2309 1652 2417 
Q 1516 2525 1450 2525 
Q 1394 2525 1328 2463 
Q 1188 2334 1038 2041 
L 1038 669 
Q 1038 431 1097 309 
Q 1138 225 1241 169 
Q 1344 113 1538 113 
L 1538 0 
L 72 0 
L 72 113 
Q 291 113 397 181 
Q 475 231 506 341 
Q 522 394 522 644 
L 522 1753 
Q 522 2253 501 2348 
Q 481 2444 426 2487 
Q 372 2531 291 2531 
Q 194 2531 72 2484 
L 41 2597 
L 906 2947 
L 1038 2947 
z
" transform="scale(0.015625)"/>
        <path id="TimesNewRomanPSMT-61" d="M 1822 413 
Q 1381 72 1269 19 
Q 1100 -59 909 -59 
Q 613 -59 420 144 
Q 228 347 228 678 
Q 228 888 322 1041 
Q 450 1253 767 1440 
Q 1084 1628 1822 1897 
L 1822 2009 
Q 1822 2438 1686 2597 
Q 1550 2756 1291 2756 
Q 1094 2756 978 2650 
Q 859 2544 859 2406 
L 866 2225 
Q 866 2081 792 2003 
Q 719 1925 600 1925 
Q 484 1925 411 2006 
Q 338 2088 338 2228 
Q 338 2497 613 2722 
Q 888 2947 1384 2947 
Q 1766 2947 2009 2819 
Q 2194 2722 2281 2516 
Q 2338 2381 2338 1966 
L 2338 994 
Q 2338 584 2353 492 
Q 2369 400 2405 369 
Q 2441 338 2488 338 
Q 2538 338 2575 359 
Q 2641 400 2828 588 
L 2828 413 
Q 2478 -56 2159 -56 
Q 2006 -56 1915 50 
Q 1825 156 1822 413 
z
M 1822 616 
L 1822 1706 
Q 1350 1519 1213 1441 
Q 966 1303 859 1153 
Q 753 1003 753 825 
Q 753 600 887 451 
Q 1022 303 1197 303 
Q 1434 303 1822 616 
z
" transform="scale(0.015625)"/>
        <path id="TimesNewRomanPSMT-64" d="M 2222 322 
Q 2013 103 1813 7 
Q 1613 -88 1381 -88 
Q 913 -88 563 304 
Q 213 697 213 1313 
Q 213 1928 600 2439 
Q 988 2950 1597 2950 
Q 1975 2950 2222 2709 
L 2222 3238 
Q 2222 3728 2198 3840 
Q 2175 3953 2125 3993 
Q 2075 4034 2000 4034 
Q 1919 4034 1784 3984 
L 1744 4094 
L 2597 4444 
L 2738 4444 
L 2738 1134 
Q 2738 631 2761 520 
Q 2784 409 2836 365 
Q 2888 322 2956 322 
Q 3041 322 3181 375 
L 3216 266 
L 2366 -88 
L 2222 -88 
L 2222 322 
z
M 2222 541 
L 2222 2016 
Q 2203 2228 2109 2403 
Q 2016 2578 1861 2667 
Q 1706 2756 1559 2756 
Q 1284 2756 1069 2509 
Q 784 2184 784 1559 
Q 784 928 1059 592 
Q 1334 256 1672 256 
Q 1956 256 2222 541 
z
" transform="scale(0.015625)"/>
        <path id="TimesNewRomanPSMT-75" d="M 2709 2863 
L 2709 1128 
Q 2709 631 2732 520 
Q 2756 409 2807 365 
Q 2859 322 2928 322 
Q 3025 322 3147 375 
L 3191 266 
L 2334 -88 
L 2194 -88 
L 2194 519 
Q 1825 119 1631 15 
Q 1438 -88 1222 -88 
Q 981 -88 804 51 
Q 628 191 559 409 
Q 491 628 491 1028 
L 491 2306 
Q 491 2509 447 2587 
Q 403 2666 317 2708 
Q 231 2750 6 2747 
L 6 2863 
L 1009 2863 
L 1009 947 
Q 1009 547 1148 422 
Q 1288 297 1484 297 
Q 1619 297 1789 381 
Q 1959 466 2194 703 
L 2194 2325 
Q 2194 2569 2105 2655 
Q 2016 2741 1734 2747 
L 1734 2863 
L 2709 2863 
z
" transform="scale(0.015625)"/>
        <path id="TimesNewRomanPSMT-74" d="M 1031 3803 
L 1031 2863 
L 1700 2863 
L 1700 2644 
L 1031 2644 
L 1031 788 
Q 1031 509 1111 412 
Q 1191 316 1316 316 
Q 1419 316 1516 380 
Q 1613 444 1666 569 
L 1788 569 
Q 1678 263 1478 108 
Q 1278 -47 1066 -47 
Q 922 -47 784 33 
Q 647 113 581 261 
Q 516 409 516 719 
L 516 2644 
L 63 2644 
L 63 2747 
Q 234 2816 414 2980 
Q 594 3144 734 3369 
Q 806 3488 934 3803 
L 1031 3803 
z
" transform="scale(0.015625)"/>
        <path id="TimesNewRomanPSMT-69" d="M 928 4444 
Q 1059 4444 1151 4351 
Q 1244 4259 1244 4128 
Q 1244 3997 1151 3903 
Q 1059 3809 928 3809 
Q 797 3809 703 3903 
Q 609 3997 609 4128 
Q 609 4259 701 4351 
Q 794 4444 928 4444 
z
M 1188 2947 
L 1188 647 
Q 1188 378 1227 289 
Q 1266 200 1342 156 
Q 1419 113 1622 113 
L 1622 0 
L 231 0 
L 231 113 
Q 441 113 512 153 
Q 584 194 626 287 
Q 669 381 669 647 
L 669 1750 
Q 669 2216 641 2353 
Q 619 2453 572 2492 
Q 525 2531 444 2531 
Q 356 2531 231 2484 
L 188 2597 
L 1050 2947 
L 1188 2947 
z
" transform="scale(0.015625)"/>
        <path id="TimesNewRomanPSMT-6f" d="M 1600 2947 
Q 2250 2947 2644 2453 
Q 2978 2031 2978 1484 
Q 2978 1100 2793 706 
Q 2609 313 2286 112 
Q 1963 -88 1566 -88 
Q 919 -88 538 428 
Q 216 863 216 1403 
Q 216 1797 411 2186 
Q 606 2575 925 2761 
Q 1244 2947 1600 2947 
z
M 1503 2744 
Q 1338 2744 1170 2645 
Q 1003 2547 900 2300 
Q 797 2053 797 1666 
Q 797 1041 1045 587 
Q 1294 134 1700 134 
Q 2003 134 2200 384 
Q 2397 634 2397 1244 
Q 2397 2006 2069 2444 
Q 1847 2744 1503 2744 
z
" transform="scale(0.015625)"/>
        <path id="TimesNewRomanPSMT-6e" d="M 1034 2341 
Q 1538 2947 1994 2947 
Q 2228 2947 2397 2830 
Q 2566 2713 2666 2444 
Q 2734 2256 2734 1869 
L 2734 647 
Q 2734 375 2778 278 
Q 2813 200 2889 156 
Q 2966 113 3172 113 
L 3172 0 
L 1756 0 
L 1756 113 
L 1816 113 
Q 2016 113 2095 173 
Q 2175 234 2206 353 
Q 2219 400 2219 647 
L 2219 1819 
Q 2219 2209 2117 2386 
Q 2016 2563 1775 2563 
Q 1403 2563 1034 2156 
L 1034 647 
Q 1034 356 1069 288 
Q 1113 197 1189 155 
Q 1266 113 1500 113 
L 1500 0 
L 84 0 
L 84 113 
L 147 113 
Q 366 113 442 223 
Q 519 334 519 647 
L 519 1709 
Q 519 2225 495 2337 
Q 472 2450 423 2490 
Q 375 2531 294 2531 
Q 206 2531 84 2484 
L 38 2597 
L 900 2947 
L 1034 2947 
L 1034 2341 
z
" transform="scale(0.015625)"/>
        <path id="TimesNewRomanPSMT-20" transform="scale(0.015625)"/>
        <path id="TimesNewRomanPSMT-52" d="M 4325 0 
L 3194 0 
L 1759 1981 
Q 1600 1975 1500 1975 
Q 1459 1975 1412 1976 
Q 1366 1978 1316 1981 
L 1316 750 
Q 1316 350 1403 253 
Q 1522 116 1759 116 
L 1925 116 
L 1925 0 
L 109 0 
L 109 116 
L 269 116 
Q 538 116 653 291 
Q 719 388 719 750 
L 719 3488 
Q 719 3888 631 3984 
Q 509 4122 269 4122 
L 109 4122 
L 109 4238 
L 1653 4238 
Q 2328 4238 2648 4139 
Q 2969 4041 3192 3777 
Q 3416 3513 3416 3147 
Q 3416 2756 3161 2468 
Q 2906 2181 2372 2063 
L 3247 847 
Q 3547 428 3762 290 
Q 3978 153 4325 116 
L 4325 0 
z
M 1316 2178 
Q 1375 2178 1419 2176 
Q 1463 2175 1491 2175 
Q 2097 2175 2405 2437 
Q 2713 2700 2713 3106 
Q 2713 3503 2464 3751 
Q 2216 4000 1806 4000 
Q 1625 4000 1316 3941 
L 1316 2178 
z
" transform="scale(0.015625)"/>
        <path id="TimesNewRomanPSMT-65" d="M 681 1784 
Q 678 1147 991 784 
Q 1303 422 1725 422 
Q 2006 422 2214 576 
Q 2422 731 2563 1106 
L 2659 1044 
Q 2594 616 2278 264 
Q 1963 -88 1488 -88 
Q 972 -88 605 314 
Q 238 716 238 1394 
Q 238 2128 614 2539 
Q 991 2950 1559 2950 
Q 2041 2950 2350 2633 
Q 2659 2316 2659 1784 
L 681 1784 
z
M 681 1966 
L 2006 1966 
Q 1991 2241 1941 2353 
Q 1863 2528 1708 2628 
Q 1553 2728 1384 2728 
Q 1125 2728 920 2526 
Q 716 2325 681 1966 
z
" transform="scale(0.015625)"/>
       </defs>
       <use xlink:href="#TimesNewRomanPSMT-47"/>
       <use xlink:href="#TimesNewRomanPSMT-72" transform="translate(72.216797 0)"/>
       <use xlink:href="#TimesNewRomanPSMT-61" transform="translate(105.517578 0)"/>
       <use xlink:href="#TimesNewRomanPSMT-64" transform="translate(149.902344 0)"/>
       <use xlink:href="#TimesNewRomanPSMT-75" transform="translate(199.902344 0)"/>
       <use xlink:href="#TimesNewRomanPSMT-61" transform="translate(249.902344 0)"/>
       <use xlink:href="#TimesNewRomanPSMT-74" transform="translate(294.287109 0)"/>
       <use xlink:href="#TimesNewRomanPSMT-69" transform="translate(322.070312 0)"/>
       <use xlink:href="#TimesNewRomanPSMT-6f" transform="translate(349.853516 0)"/>
       <use xlink:href="#TimesNewRomanPSMT-6e" transform="translate(399.853516 0)"/>
       <use xlink:href="#TimesNewRomanPSMT-20" transform="translate(449.853516 0)"/>
       <use xlink:href="#TimesNewRomanPSMT-52" transform="translate(474.853516 0)"/>
       <use xlink:href="#TimesNewRomanPSMT-61" transform="translate(541.552734 0)"/>
       <use xlink:href="#TimesNewRomanPSMT-74" transform="translate(585.9375 0)"/>
       <use xlink:href="#TimesNewRomanPSMT-65" transform="translate(613.720703 0)"/>
      </g>
     </g>
    </g>
    <g id="xtick_2">
     <g id="line2d_2">
      <path d="M 444.333785 359.7275 
L 684.396027 221.1275 
" clip-path="url(#pe58cbc4f24)" style="fill: none; stroke: #b0b0b0; stroke-width: 0.8; stroke-linecap: square"/>
     </g>
     <g id="text_2">
      <!-- Patent Conversion Rate -->
      <g transform="translate(696.520383 218.451719) scale(0.18 -0.18)">
       <defs>
        <path id="TimesNewRomanPSMT-50" d="M 1313 1984 
L 1313 750 
Q 1313 350 1400 253 
Q 1519 116 1759 116 
L 1922 116 
L 1922 0 
L 106 0 
L 106 116 
L 266 116 
Q 534 116 650 291 
Q 713 388 713 750 
L 713 3488 
Q 713 3888 628 3984 
Q 506 4122 266 4122 
L 106 4122 
L 106 4238 
L 1659 4238 
Q 2228 4238 2556 4120 
Q 2884 4003 3109 3725 
Q 3334 3447 3334 3066 
Q 3334 2547 2992 2222 
Q 2650 1897 2025 1897 
Q 1872 1897 1694 1919 
Q 1516 1941 1313 1984 
z
M 1313 2163 
Q 1478 2131 1606 2115 
Q 1734 2100 1825 2100 
Q 2150 2100 2386 2351 
Q 2622 2603 2622 3003 
Q 2622 3278 2509 3514 
Q 2397 3750 2190 3867 
Q 1984 3984 1722 3984 
Q 1563 3984 1313 3925 
L 1313 2163 
z
" transform="scale(0.015625)"/>
        <path id="TimesNewRomanPSMT-43" d="M 3853 4334 
L 3950 2894 
L 3853 2894 
Q 3659 3541 3300 3825 
Q 2941 4109 2438 4109 
Q 2016 4109 1675 3895 
Q 1334 3681 1139 3212 
Q 944 2744 944 2047 
Q 944 1472 1128 1050 
Q 1313 628 1683 403 
Q 2053 178 2528 178 
Q 2941 178 3256 354 
Q 3572 531 3950 1056 
L 4047 994 
Q 3728 428 3303 165 
Q 2878 -97 2294 -97 
Q 1241 -97 663 684 
Q 231 1266 231 2053 
Q 231 2688 515 3219 
Q 800 3750 1298 4042 
Q 1797 4334 2388 4334 
Q 2847 4334 3294 4109 
Q 3425 4041 3481 4041 
Q 3566 4041 3628 4100 
Q 3709 4184 3744 4334 
L 3853 4334 
z
" transform="scale(0.015625)"/>
        <path id="TimesNewRomanPSMT-76" d="M 53 2863 
L 1400 2863 
L 1400 2747 
L 1313 2747 
Q 1191 2747 1127 2687 
Q 1063 2628 1063 2528 
Q 1063 2419 1128 2269 
L 1794 688 
L 2463 2328 
Q 2534 2503 2534 2594 
Q 2534 2638 2509 2666 
Q 2475 2713 2422 2730 
Q 2369 2747 2206 2747 
L 2206 2863 
L 3141 2863 
L 3141 2747 
Q 2978 2734 2916 2681 
Q 2806 2588 2719 2369 
L 1703 -88 
L 1575 -88 
L 553 2328 
Q 484 2497 421 2570 
Q 359 2644 263 2694 
Q 209 2722 53 2747 
L 53 2863 
z
" transform="scale(0.015625)"/>
        <path id="TimesNewRomanPSMT-73" d="M 2050 2947 
L 2050 1972 
L 1947 1972 
Q 1828 2431 1642 2597 
Q 1456 2763 1169 2763 
Q 950 2763 815 2647 
Q 681 2531 681 2391 
Q 681 2216 781 2091 
Q 878 1963 1175 1819 
L 1631 1597 
Q 2266 1288 2266 781 
Q 2266 391 1970 151 
Q 1675 -88 1309 -88 
Q 1047 -88 709 6 
Q 606 38 541 38 
Q 469 38 428 -44 
L 325 -44 
L 325 978 
L 428 978 
Q 516 541 762 319 
Q 1009 97 1316 97 
Q 1531 97 1667 223 
Q 1803 350 1803 528 
Q 1803 744 1651 891 
Q 1500 1038 1047 1263 
Q 594 1488 453 1669 
Q 313 1847 313 2119 
Q 313 2472 555 2709 
Q 797 2947 1181 2947 
Q 1350 2947 1591 2875 
Q 1750 2828 1803 2828 
Q 1853 2828 1881 2850 
Q 1909 2872 1947 2947 
L 2050 2947 
z
" transform="scale(0.015625)"/>
       </defs>
       <use xlink:href="#TimesNewRomanPSMT-50"/>
       <use xlink:href="#TimesNewRomanPSMT-61" transform="translate(55.615234 0)"/>
       <use xlink:href="#TimesNewRomanPSMT-74" transform="translate(100 0)"/>
       <use xlink:href="#TimesNewRomanPSMT-65" transform="translate(127.783203 0)"/>
       <use xlink:href="#TimesNewRomanPSMT-6e" transform="translate(172.167969 0)"/>
       <use xlink:href="#TimesNewRomanPSMT-74" transform="translate(222.167969 0)"/>
       <use xlink:href="#TimesNewRomanPSMT-20" transform="translate(249.951172 0)"/>
       <use xlink:href="#TimesNewRomanPSMT-43" transform="translate(274.951172 0)"/>
       <use xlink:href="#TimesNewRomanPSMT-6f" transform="translate(341.650391 0)"/>
       <use xlink:href="#TimesNewRomanPSMT-6e" transform="translate(391.650391 0)"/>
       <use xlink:href="#TimesNewRomanPSMT-76" transform="translate(441.650391 0)"/>
       <use xlink:href="#TimesNewRomanPSMT-65" transform="translate(491.650391 0)"/>
       <use xlink:href="#TimesNewRomanPSMT-72" transform="translate(536.035156 0)"/>
       <use xlink:href="#TimesNewRomanPSMT-73" transform="translate(569.335938 0)"/>
       <use xlink:href="#TimesNewRomanPSMT-69" transform="translate(608.251953 0)"/>
       <use xlink:href="#TimesNewRomanPSMT-6f" transform="translate(636.035156 0)"/>
       <use xlink:href="#TimesNewRomanPSMT-6e" transform="translate(686.035156 0)"/>
       <use xlink:href="#TimesNewRomanPSMT-20" transform="translate(736.035156 0)"/>
       <use xlink:href="#TimesNewRomanPSMT-52" transform="translate(761.035156 0)"/>
       <use xlink:href="#TimesNewRomanPSMT-61" transform="translate(827.734375 0)"/>
       <use xlink:href="#TimesNewRomanPSMT-74" transform="translate(872.119141 0)"/>
       <use xlink:href="#TimesNewRomanPSMT-65" transform="translate(899.902344 0)"/>
      </g>
     </g>
    </g>
    <g id="xtick_3">
     <g id="line2d_3">
      <path d="M 444.333785 359.7275 
L 684.396027 498.3275 
" clip-path="url(#pe58cbc4f24)" style="fill: none; stroke: #b0b0b0; stroke-width: 0.8; stroke-linecap: square"/>
     </g>
     <g id="text_3">
      <!-- Citation Rate -->
      <g transform="translate(696.520383 509.651719) scale(0.18 -0.18)">
       <use xlink:href="#TimesNewRomanPSMT-43"/>
       <use xlink:href="#TimesNewRomanPSMT-69" transform="translate(66.699219 0)"/>
       <use xlink:href="#TimesNewRomanPSMT-74" transform="translate(94.482422 0)"/>
       <use xlink:href="#TimesNewRomanPSMT-61" transform="translate(122.265625 0)"/>
       <use xlink:href="#TimesNewRomanPSMT-74" transform="translate(166.650391 0)"/>
       <use xlink:href="#TimesNewRomanPSMT-69" transform="translate(194.433594 0)"/>
       <use xlink:href="#TimesNewRomanPSMT-6f" transform="translate(222.216797 0)"/>
       <use xlink:href="#TimesNewRomanPSMT-6e" transform="translate(272.216797 0)"/>
       <use xlink:href="#TimesNewRomanPSMT-20" transform="translate(322.216797 0)"/>
       <use xlink:href="#TimesNewRomanPSMT-52" transform="translate(347.216797 0)"/>
       <use xlink:href="#TimesNewRomanPSMT-61" transform="translate(413.916016 0)"/>
       <use xlink:href="#TimesNewRomanPSMT-74" transform="translate(458.300781 0)"/>
       <use xlink:href="#TimesNewRomanPSMT-65" transform="translate(486.083984 0)"/>
      </g>
     </g>
    </g>
    <g id="xtick_4">
     <g id="line2d_4">
      <path d="M 444.333785 359.7275 
L 444.333785 636.9275 
" clip-path="url(#pe58cbc4f24)" style="fill: none; stroke: #b0b0b0; stroke-width: 0.8; stroke-linecap: square"/>
     </g>
     <g id="text_4">
      <!-- Research Investment Rate -->
      <g transform="translate(350.365348 655.251719) scale(0.18 -0.18)">
       <defs>
        <path id="TimesNewRomanPSMT-63" d="M 2631 1088 
Q 2516 522 2178 217 
Q 1841 -88 1431 -88 
Q 944 -88 581 321 
Q 219 731 219 1428 
Q 219 2103 620 2525 
Q 1022 2947 1584 2947 
Q 2006 2947 2278 2723 
Q 2550 2500 2550 2259 
Q 2550 2141 2473 2067 
Q 2397 1994 2259 1994 
Q 2075 1994 1981 2113 
Q 1928 2178 1911 2362 
Q 1894 2547 1784 2644 
Q 1675 2738 1481 2738 
Q 1169 2738 978 2506 
Q 725 2200 725 1697 
Q 725 1184 976 792 
Q 1228 400 1656 400 
Q 1963 400 2206 609 
Q 2378 753 2541 1131 
L 2631 1088 
z
" transform="scale(0.015625)"/>
        <path id="TimesNewRomanPSMT-68" d="M 1041 4444 
L 1041 2350 
Q 1388 2731 1591 2839 
Q 1794 2947 1997 2947 
Q 2241 2947 2416 2812 
Q 2591 2678 2675 2391 
Q 2734 2191 2734 1659 
L 2734 647 
Q 2734 375 2778 275 
Q 2809 200 2884 156 
Q 2959 113 3159 113 
L 3159 0 
L 1753 0 
L 1753 113 
L 1819 113 
Q 2019 113 2097 173 
Q 2175 234 2206 353 
Q 2216 403 2216 647 
L 2216 1659 
Q 2216 2128 2167 2275 
Q 2119 2422 2012 2495 
Q 1906 2569 1756 2569 
Q 1603 2569 1437 2487 
Q 1272 2406 1041 2159 
L 1041 647 
Q 1041 353 1073 281 
Q 1106 209 1195 161 
Q 1284 113 1503 113 
L 1503 0 
L 84 0 
L 84 113 
Q 275 113 384 172 
Q 447 203 484 290 
Q 522 378 522 647 
L 522 3238 
Q 522 3728 498 3840 
Q 475 3953 426 3993 
Q 378 4034 297 4034 
Q 231 4034 84 3984 
L 41 4094 
L 897 4444 
L 1041 4444 
z
" transform="scale(0.015625)"/>
        <path id="TimesNewRomanPSMT-49" d="M 1975 116 
L 1975 0 
L 159 0 
L 159 116 
L 309 116 
Q 572 116 691 269 
Q 766 369 766 750 
L 766 3488 
Q 766 3809 725 3913 
Q 694 3991 597 4047 
Q 459 4122 309 4122 
L 159 4122 
L 159 4238 
L 1975 4238 
L 1975 4122 
L 1822 4122 
Q 1563 4122 1444 3969 
Q 1366 3869 1366 3488 
L 1366 750 
Q 1366 428 1406 325 
Q 1438 247 1538 191 
Q 1672 116 1822 116 
L 1975 116 
z
" transform="scale(0.015625)"/>
        <path id="TimesNewRomanPSMT-6d" d="M 1050 2338 
Q 1363 2650 1419 2697 
Q 1559 2816 1721 2881 
Q 1884 2947 2044 2947 
Q 2313 2947 2506 2790 
Q 2700 2634 2766 2338 
Q 3088 2713 3309 2830 
Q 3531 2947 3766 2947 
Q 3994 2947 4170 2830 
Q 4347 2713 4450 2447 
Q 4519 2266 4519 1878 
L 4519 647 
Q 4519 378 4559 278 
Q 4591 209 4675 161 
Q 4759 113 4950 113 
L 4950 0 
L 3538 0 
L 3538 113 
L 3597 113 
Q 3781 113 3884 184 
Q 3956 234 3988 344 
Q 4000 397 4000 647 
L 4000 1878 
Q 4000 2228 3916 2372 
Q 3794 2572 3525 2572 
Q 3359 2572 3192 2489 
Q 3025 2406 2788 2181 
L 2781 2147 
L 2788 2013 
L 2788 647 
Q 2788 353 2820 281 
Q 2853 209 2943 161 
Q 3034 113 3253 113 
L 3253 0 
L 1806 0 
L 1806 113 
Q 2044 113 2133 169 
Q 2222 225 2256 338 
Q 2272 391 2272 647 
L 2272 1878 
Q 2272 2228 2169 2381 
Q 2031 2581 1784 2581 
Q 1616 2581 1450 2491 
Q 1191 2353 1050 2181 
L 1050 647 
Q 1050 366 1089 281 
Q 1128 197 1204 155 
Q 1281 113 1516 113 
L 1516 0 
L 100 0 
L 100 113 
Q 297 113 375 155 
Q 453 197 493 289 
Q 534 381 534 647 
L 534 1741 
Q 534 2213 506 2350 
Q 484 2453 437 2492 
Q 391 2531 309 2531 
Q 222 2531 100 2484 
L 53 2597 
L 916 2947 
L 1050 2947 
L 1050 2338 
z
" transform="scale(0.015625)"/>
       </defs>
       <use xlink:href="#TimesNewRomanPSMT-52"/>
       <use xlink:href="#TimesNewRomanPSMT-65" transform="translate(66.699219 0)"/>
       <use xlink:href="#TimesNewRomanPSMT-73" transform="translate(111.083984 0)"/>
       <use xlink:href="#TimesNewRomanPSMT-65" transform="translate(150 0)"/>
       <use xlink:href="#TimesNewRomanPSMT-61" transform="translate(194.384766 0)"/>
       <use xlink:href="#TimesNewRomanPSMT-72" transform="translate(238.769531 0)"/>
       <use xlink:href="#TimesNewRomanPSMT-63" transform="translate(272.070312 0)"/>
       <use xlink:href="#TimesNewRomanPSMT-68" transform="translate(316.455078 0)"/>
       <use xlink:href="#TimesNewRomanPSMT-20" transform="translate(366.455078 0)"/>
       <use xlink:href="#TimesNewRomanPSMT-49" transform="translate(391.455078 0)"/>
       <use xlink:href="#TimesNewRomanPSMT-6e" transform="translate(424.755859 0)"/>
       <use xlink:href="#TimesNewRomanPSMT-76" transform="translate(474.755859 0)"/>
       <use xlink:href="#TimesNewRomanPSMT-65" transform="translate(524.755859 0)"/>
       <use xlink:href="#TimesNewRomanPSMT-73" transform="translate(569.140625 0)"/>
       <use xlink:href="#TimesNewRomanPSMT-74" transform="translate(608.056641 0)"/>
       <use xlink:href="#TimesNewRomanPSMT-6d" transform="translate(635.839844 0)"/>
       <use xlink:href="#TimesNewRomanPSMT-65" transform="translate(713.623047 0)"/>
       <use xlink:href="#TimesNewRomanPSMT-6e" transform="translate(758.007812 0)"/>
       <use xlink:href="#TimesNewRomanPSMT-74" transform="translate(808.007812 0)"/>
       <use xlink:href="#TimesNewRomanPSMT-20" transform="translate(835.791016 0)"/>
       <use xlink:href="#TimesNewRomanPSMT-52" transform="translate(860.791016 0)"/>
       <use xlink:href="#TimesNewRomanPSMT-61" transform="translate(927.490234 0)"/>
       <use xlink:href="#TimesNewRomanPSMT-74" transform="translate(971.875 0)"/>
       <use xlink:href="#TimesNewRomanPSMT-65" transform="translate(999.658203 0)"/>
      </g>
     </g>
    </g>
    <g id="xtick_5">
     <g id="line2d_5">
      <path d="M 444.333785 359.7275 
L 204.271543 498.3275 
" clip-path="url(#pe58cbc4f24)" style="fill: none; stroke: #b0b0b0; stroke-width: 0.8; stroke-linecap: square"/>
     </g>
     <g id="text_5">
      <!-- Discipline Coverage Rate -->
      <g transform="translate(7.2 509.634844) scale(0.18 -0.18)">
       <defs>
        <path id="TimesNewRomanPSMT-44" d="M 109 0 
L 109 116 
L 269 116 
Q 538 116 650 288 
Q 719 391 719 750 
L 719 3488 
Q 719 3884 631 3984 
Q 509 4122 269 4122 
L 109 4122 
L 109 4238 
L 1834 4238 
Q 2784 4238 3279 4022 
Q 3775 3806 4076 3303 
Q 4378 2800 4378 2141 
Q 4378 1256 3841 663 
Q 3238 0 2003 0 
L 109 0 
z
M 1319 306 
Q 1716 219 1984 219 
Q 2709 219 3187 728 
Q 3666 1238 3666 2109 
Q 3666 2988 3187 3494 
Q 2709 4000 1959 4000 
Q 1678 4000 1319 3909 
L 1319 306 
z
" transform="scale(0.015625)"/>
        <path id="TimesNewRomanPSMT-70" d="M -6 2578 
L 875 2934 
L 994 2934 
L 994 2266 
Q 1216 2644 1439 2795 
Q 1663 2947 1909 2947 
Q 2341 2947 2628 2609 
Q 2981 2197 2981 1534 
Q 2981 794 2556 309 
Q 2206 -88 1675 -88 
Q 1444 -88 1275 -22 
Q 1150 25 994 166 
L 994 -706 
Q 994 -1000 1030 -1079 
Q 1066 -1159 1155 -1206 
Q 1244 -1253 1478 -1253 
L 1478 -1369 
L -22 -1369 
L -22 -1253 
L 56 -1253 
Q 228 -1256 350 -1188 
Q 409 -1153 442 -1076 
Q 475 -1000 475 -688 
L 475 2019 
Q 475 2297 450 2372 
Q 425 2447 370 2484 
Q 316 2522 222 2522 
Q 147 2522 31 2478 
L -6 2578 
z
M 994 2081 
L 994 1013 
Q 994 666 1022 556 
Q 1066 375 1236 237 
Q 1406 100 1666 100 
Q 1978 100 2172 344 
Q 2425 663 2425 1241 
Q 2425 1897 2138 2250 
Q 1938 2494 1663 2494 
Q 1513 2494 1366 2419 
Q 1253 2363 994 2081 
z
" transform="scale(0.015625)"/>
        <path id="TimesNewRomanPSMT-6c" d="M 1184 4444 
L 1184 647 
Q 1184 378 1223 290 
Q 1263 203 1344 158 
Q 1425 113 1647 113 
L 1647 0 
L 244 0 
L 244 113 
Q 441 113 512 153 
Q 584 194 625 287 
Q 666 381 666 647 
L 666 3247 
Q 666 3731 644 3842 
Q 622 3953 573 3993 
Q 525 4034 450 4034 
Q 369 4034 244 3984 
L 191 4094 
L 1044 4444 
L 1184 4444 
z
" transform="scale(0.015625)"/>
        <path id="TimesNewRomanPSMT-67" d="M 966 1044 
Q 703 1172 562 1401 
Q 422 1631 422 1909 
Q 422 2334 742 2640 
Q 1063 2947 1563 2947 
Q 1972 2947 2272 2747 
L 2878 2747 
Q 3013 2747 3034 2739 
Q 3056 2731 3066 2713 
Q 3084 2684 3084 2613 
Q 3084 2531 3069 2500 
Q 3059 2484 3036 2475 
Q 3013 2466 2878 2466 
L 2506 2466 
Q 2681 2241 2681 1891 
Q 2681 1491 2375 1206 
Q 2069 922 1553 922 
Q 1341 922 1119 984 
Q 981 866 932 777 
Q 884 688 884 625 
Q 884 572 936 522 
Q 988 472 1138 450 
Q 1225 438 1575 428 
Q 2219 413 2409 384 
Q 2700 344 2873 169 
Q 3047 -6 3047 -263 
Q 3047 -616 2716 -925 
Q 2228 -1381 1444 -1381 
Q 841 -1381 425 -1109 
Q 191 -953 191 -784 
Q 191 -709 225 -634 
Q 278 -519 444 -313 
Q 466 -284 763 25 
Q 600 122 533 198 
Q 466 275 466 372 
Q 466 481 555 628 
Q 644 775 966 1044 
z
M 1509 2797 
Q 1278 2797 1122 2612 
Q 966 2428 966 2047 
Q 966 1553 1178 1281 
Q 1341 1075 1591 1075 
Q 1828 1075 1981 1253 
Q 2134 1431 2134 1813 
Q 2134 2309 1919 2591 
Q 1759 2797 1509 2797 
z
M 934 0 
Q 788 -159 713 -296 
Q 638 -434 638 -550 
Q 638 -700 819 -813 
Q 1131 -1006 1722 -1006 
Q 2284 -1006 2551 -807 
Q 2819 -609 2819 -384 
Q 2819 -222 2659 -153 
Q 2497 -84 2016 -72 
Q 1313 -53 934 0 
z
" transform="scale(0.015625)"/>
       </defs>
       <use xlink:href="#TimesNewRomanPSMT-44"/>
       <use xlink:href="#TimesNewRomanPSMT-69" transform="translate(72.216797 0)"/>
       <use xlink:href="#TimesNewRomanPSMT-73" transform="translate(100 0)"/>
       <use xlink:href="#TimesNewRomanPSMT-63" transform="translate(138.916016 0)"/>
       <use xlink:href="#TimesNewRomanPSMT-69" transform="translate(183.300781 0)"/>
       <use xlink:href="#TimesNewRomanPSMT-70" transform="translate(211.083984 0)"/>
       <use xlink:href="#TimesNewRomanPSMT-6c" transform="translate(261.083984 0)"/>
       <use xlink:href="#TimesNewRomanPSMT-69" transform="translate(288.867188 0)"/>
       <use xlink:href="#TimesNewRomanPSMT-6e" transform="translate(316.650391 0)"/>
       <use xlink:href="#TimesNewRomanPSMT-65" transform="translate(366.650391 0)"/>
       <use xlink:href="#TimesNewRomanPSMT-20" transform="translate(411.035156 0)"/>
       <use xlink:href="#TimesNewRomanPSMT-43" transform="translate(436.035156 0)"/>
       <use xlink:href="#TimesNewRomanPSMT-6f" transform="translate(502.734375 0)"/>
       <use xlink:href="#TimesNewRomanPSMT-76" transform="translate(552.734375 0)"/>
       <use xlink:href="#TimesNewRomanPSMT-65" transform="translate(602.734375 0)"/>
       <use xlink:href="#TimesNewRomanPSMT-72" transform="translate(647.119141 0)"/>
       <use xlink:href="#TimesNewRomanPSMT-61" transform="translate(680.419922 0)"/>
       <use xlink:href="#TimesNewRomanPSMT-67" transform="translate(724.804688 0)"/>
       <use xlink:href="#TimesNewRomanPSMT-65" transform="translate(774.804688 0)"/>
       <use xlink:href="#TimesNewRomanPSMT-20" transform="translate(819.189453 0)"/>
       <use xlink:href="#TimesNewRomanPSMT-52" transform="translate(844.189453 0)"/>
       <use xlink:href="#TimesNewRomanPSMT-61" transform="translate(910.888672 0)"/>
       <use xlink:href="#TimesNewRomanPSMT-74" transform="translate(955.273438 0)"/>
       <use xlink:href="#TimesNewRomanPSMT-65" transform="translate(983.056641 0)"/>
      </g>
     </g>
    </g>
    <g id="xtick_6">
     <g id="line2d_6">
      <path d="M 444.333785 359.7275 
L 204.271543 221.1275 
" clip-path="url(#pe58cbc4f24)" style="fill: none; stroke: #b0b0b0; stroke-width: 0.8; stroke-linecap: square"/>
     </g>
     <g id="text_6">
      <!-- Further Education Rate -->
      <g transform="translate(24.195937 218.451719) scale(0.18 -0.18)">
       <defs>
        <path id="TimesNewRomanPSMT-46" d="M 1309 4006 
L 1309 2341 
L 2081 2341 
Q 2347 2341 2470 2458 
Q 2594 2575 2634 2922 
L 2750 2922 
L 2750 1488 
L 2634 1488 
Q 2631 1734 2570 1850 
Q 2509 1966 2401 2023 
Q 2294 2081 2081 2081 
L 1309 2081 
L 1309 750 
Q 1309 428 1350 325 
Q 1381 247 1481 191 
Q 1619 116 1769 116 
L 1922 116 
L 1922 0 
L 103 0 
L 103 116 
L 253 116 
Q 516 116 634 269 
Q 709 369 709 750 
L 709 3488 
Q 709 3809 669 3913 
Q 638 3991 541 4047 
Q 406 4122 253 4122 
L 103 4122 
L 103 4238 
L 3256 4238 
L 3297 3306 
L 3188 3306 
Q 3106 3603 2998 3742 
Q 2891 3881 2733 3943 
Q 2575 4006 2244 4006 
L 1309 4006 
z
" transform="scale(0.015625)"/>
        <path id="TimesNewRomanPSMT-45" d="M 1338 4006 
L 1338 2331 
L 2269 2331 
Q 2631 2331 2753 2441 
Q 2916 2584 2934 2947 
L 3050 2947 
L 3050 1472 
L 2934 1472 
Q 2891 1781 2847 1869 
Q 2791 1978 2662 2040 
Q 2534 2103 2269 2103 
L 1338 2103 
L 1338 706 
Q 1338 425 1363 364 
Q 1388 303 1450 267 
Q 1513 231 1688 231 
L 2406 231 
Q 2766 231 2928 281 
Q 3091 331 3241 478 
Q 3434 672 3638 1063 
L 3763 1063 
L 3397 0 
L 131 0 
L 131 116 
L 281 116 
Q 431 116 566 188 
Q 666 238 702 338 
Q 738 438 738 747 
L 738 3500 
Q 738 3903 656 3997 
Q 544 4122 281 4122 
L 131 4122 
L 131 4238 
L 3397 4238 
L 3444 3309 
L 3322 3309 
Q 3256 3644 3176 3769 
Q 3097 3894 2941 3959 
Q 2816 4006 2500 4006 
L 1338 4006 
z
" transform="scale(0.015625)"/>
       </defs>
       <use xlink:href="#TimesNewRomanPSMT-46"/>
       <use xlink:href="#TimesNewRomanPSMT-75" transform="translate(55.615234 0)"/>
       <use xlink:href="#TimesNewRomanPSMT-72" transform="translate(105.615234 0)"/>
       <use xlink:href="#TimesNewRomanPSMT-74" transform="translate(138.916016 0)"/>
       <use xlink:href="#TimesNewRomanPSMT-68" transform="translate(166.699219 0)"/>
       <use xlink:href="#TimesNewRomanPSMT-65" transform="translate(216.699219 0)"/>
       <use xlink:href="#TimesNewRomanPSMT-72" transform="translate(261.083984 0)"/>
       <use xlink:href="#TimesNewRomanPSMT-20" transform="translate(294.384766 0)"/>
       <use xlink:href="#TimesNewRomanPSMT-45" transform="translate(319.384766 0)"/>
       <use xlink:href="#TimesNewRomanPSMT-64" transform="translate(380.46875 0)"/>
       <use xlink:href="#TimesNewRomanPSMT-75" transform="translate(430.46875 0)"/>
       <use xlink:href="#TimesNewRomanPSMT-63" transform="translate(480.46875 0)"/>
       <use xlink:href="#TimesNewRomanPSMT-61" transform="translate(524.853516 0)"/>
       <use xlink:href="#TimesNewRomanPSMT-74" transform="translate(569.238281 0)"/>
       <use xlink:href="#TimesNewRomanPSMT-69" transform="translate(597.021484 0)"/>
       <use xlink:href="#TimesNewRomanPSMT-6f" transform="translate(624.804688 0)"/>
       <use xlink:href="#TimesNewRomanPSMT-6e" transform="translate(674.804688 0)"/>
       <use xlink:href="#TimesNewRomanPSMT-20" transform="translate(724.804688 0)"/>
       <use xlink:href="#TimesNewRomanPSMT-52" transform="translate(749.804688 0)"/>
       <use xlink:href="#TimesNewRomanPSMT-61" transform="translate(816.503906 0)"/>
       <use xlink:href="#TimesNewRomanPSMT-74" transform="translate(860.888672 0)"/>
       <use xlink:href="#TimesNewRomanPSMT-65" transform="translate(888.671875 0)"/>
      </g>
     </g>
    </g>
   </g>
   <g id="matplotlib.axis_2">
    <g id="ytick_1">
     <g id="line2d_7">
      <path d="M 444.333785 304.2875 
C 451.614099 304.2875 458.823621 305.721563 465.549755 308.507619 
C 472.275888 311.293674 478.387826 315.377541 483.535785 320.5255 
C 488.683744 325.67346 492.767611 331.785397 495.553666 338.511531 
C 498.339722 345.237664 499.773785 352.447186 499.773785 359.7275 
C 499.773785 367.007814 498.339722 374.217336 495.553666 380.943469 
C 492.767611 387.669603 488.683744 393.78154 483.535785 398.9295 
C 478.387826 404.077459 472.275888 408.161326 465.549755 410.947381 
C 458.823621 413.733437 451.614099 415.1675 444.333785 415.1675 
C 437.053471 415.1675 429.843949 413.733437 423.117816 410.947381 
C 416.391682 408.161326 410.279745 404.077459 405.131785 398.9295 
C 399.983826 393.78154 395.899959 387.669603 393.113904 380.943469 
C 390.327848 374.217336 388.893785 367.007814 388.893785 359.7275 
C 388.893785 352.447186 390.327848 345.237664 393.113904 338.511531 
C 395.899959 331.785397 399.983826 325.67346 405.131785 320.5255 
C 410.279745 315.377541 416.391682 311.293674 423.117816 308.507619 
C 429.843949 305.721563 437.053471 304.2875 444.333785 304.2875 
" clip-path="url(#pe58cbc4f24)" style="fill: none; stroke: #b0b0b0; stroke-width: 0.8; stroke-linecap: square"/>
     </g>
     <g id="text_7">
      <!-- 20 -->
      <g style="fill: #808080" transform="translate(444.333785 302.148438) scale(0.1 -0.1)">
       <defs>
        <path id="TimesNewRomanPSMT-32" d="M 2934 816 
L 2638 0 
L 138 0 
L 138 116 
Q 1241 1122 1691 1759 
Q 2141 2397 2141 2925 
Q 2141 3328 1894 3587 
Q 1647 3847 1303 3847 
Q 991 3847 742 3664 
Q 494 3481 375 3128 
L 259 3128 
Q 338 3706 661 4015 
Q 984 4325 1469 4325 
Q 1984 4325 2329 3994 
Q 2675 3663 2675 3213 
Q 2675 2891 2525 2569 
Q 2294 2063 1775 1497 
Q 997 647 803 472 
L 1909 472 
Q 2247 472 2383 497 
Q 2519 522 2628 598 
Q 2738 675 2819 816 
L 2934 816 
z
" transform="scale(0.015625)"/>
        <path id="TimesNewRomanPSMT-30" d="M 231 2094 
Q 231 2819 450 3342 
Q 669 3866 1031 4122 
Q 1313 4325 1613 4325 
Q 2100 4325 2488 3828 
Q 2972 3213 2972 2159 
Q 2972 1422 2759 906 
Q 2547 391 2217 158 
Q 1888 -75 1581 -75 
Q 975 -75 572 641 
Q 231 1244 231 2094 
z
M 844 2016 
Q 844 1141 1059 588 
Q 1238 122 1591 122 
Q 1759 122 1940 273 
Q 2122 425 2216 781 
Q 2359 1319 2359 2297 
Q 2359 3022 2209 3506 
Q 2097 3866 1919 4016 
Q 1791 4119 1609 4119 
Q 1397 4119 1231 3928 
Q 1006 3669 925 3112 
Q 844 2556 844 2016 
z
" transform="scale(0.015625)"/>
       </defs>
       <use xlink:href="#TimesNewRomanPSMT-32"/>
       <use xlink:href="#TimesNewRomanPSMT-30" transform="translate(50 0)"/>
      </g>
     </g>
    </g>
    <g id="ytick_2">
     <g id="line2d_8">
      <path d="M 444.333785 248.8475 
C 458.894413 248.8475 473.313458 251.715626 486.765724 257.287737 
C 500.21799 262.859849 512.441866 271.027581 522.737785 281.3235 
C 533.033704 291.619419 541.201436 303.843295 546.773548 317.295561 
C 552.345659 330.747827 555.213785 345.166872 555.213785 359.7275 
C 555.213785 374.288128 552.345659 388.707173 546.773548 402.159439 
C 541.201436 415.611705 533.033704 427.835581 522.737785 438.1315 
C 512.441866 448.427419 500.21799 456.595151 486.765724 462.167263 
C 473.313458 467.739374 458.894413 470.6075 444.333785 470.6075 
C 429.773157 470.6075 415.354112 467.739374 401.901846 462.167263 
C 388.44958 456.595151 376.225704 448.427419 365.929785 438.1315 
C 355.633866 427.835581 347.466134 415.611705 341.894023 402.159439 
C 336.321911 388.707173 333.453785 374.288128 333.453785 359.7275 
C 333.453785 345.166872 336.321911 330.747827 341.894023 317.295561 
C 347.466134 303.843295 355.633866 291.619419 365.929785 281.3235 
C 376.225704 271.027581 388.44958 262.859849 401.901846 257.287737 
C 415.354112 251.715626 429.773157 248.8475 444.333785 248.8475 
" clip-path="url(#pe58cbc4f24)" style="fill: none; stroke: #b0b0b0; stroke-width: 0.8; stroke-linecap: square"/>
     </g>
     <g id="text_8">
      <!-- 40 -->
      <g style="fill: #808080" transform="translate(444.333785 246.708438) scale(0.1 -0.1)">
       <defs>
        <path id="TimesNewRomanPSMT-34" d="M 2978 1563 
L 2978 1119 
L 2409 1119 
L 2409 0 
L 1894 0 
L 1894 1119 
L 100 1119 
L 100 1519 
L 2066 4325 
L 2409 4325 
L 2409 1563 
L 2978 1563 
z
M 1894 1563 
L 1894 3666 
L 406 1563 
L 1894 1563 
z
" transform="scale(0.015625)"/>
       </defs>
       <use xlink:href="#TimesNewRomanPSMT-34"/>
       <use xlink:href="#TimesNewRomanPSMT-30" transform="translate(50 0)"/>
      </g>
     </g>
    </g>
    <g id="ytick_3">
     <g id="line2d_9">
      <path d="M 444.333785 193.4075 
C 466.174727 193.4075 487.803294 197.709689 507.981694 206.067856 
C 528.160093 214.426023 546.495907 226.677622 561.939785 242.1215 
C 577.383663 257.565379 589.635262 275.901192 597.993429 296.079592 
C 606.351596 316.257991 610.653785 337.886558 610.653785 359.7275 
C 610.653785 381.568442 606.351596 403.197009 597.993429 423.375408 
C 589.635262 443.553808 577.383663 461.889621 561.939785 477.3335 
C 546.495907 492.777378 528.160093 505.028977 507.981694 513.387144 
C 487.803294 521.745311 466.174727 526.0475 444.333785 526.0475 
C 422.492843 526.0475 400.864276 521.745311 380.685877 513.387144 
C 360.507477 505.028977 342.171664 492.777378 326.727785 477.3335 
C 311.283907 461.889621 299.032308 443.553808 290.674141 423.375408 
C 282.315974 403.197009 278.013785 381.568442 278.013785 359.7275 
C 278.013785 337.886558 282.315974 316.257991 290.674141 296.079592 
C 299.032308 275.901192 311.283907 257.565379 326.727785 242.1215 
C 342.171664 226.677622 360.507477 214.426023 380.685877 206.067856 
C 400.864276 197.709689 422.492843 193.4075 444.333785 193.4075 
" clip-path="url(#pe58cbc4f24)" style="fill: none; stroke: #b0b0b0; stroke-width: 0.8; stroke-linecap: square"/>
     </g>
     <g id="text_9">
      <!-- 60 -->
      <g style="fill: #808080" transform="translate(444.333785 191.268438) scale(0.1 -0.1)">
       <defs>
        <path id="TimesNewRomanPSMT-36" d="M 2869 4325 
L 2869 4209 
Q 2456 4169 2195 4045 
Q 1934 3922 1679 3669 
Q 1425 3416 1258 3105 
Q 1091 2794 978 2366 
Q 1428 2675 1881 2675 
Q 2316 2675 2634 2325 
Q 2953 1975 2953 1425 
Q 2953 894 2631 456 
Q 2244 -75 1606 -75 
Q 1172 -75 869 213 
Q 275 772 275 1663 
Q 275 2231 503 2743 
Q 731 3256 1154 3653 
Q 1578 4050 1965 4187 
Q 2353 4325 2688 4325 
L 2869 4325 
z
M 925 2138 
Q 869 1716 869 1456 
Q 869 1156 980 804 
Q 1091 453 1309 247 
Q 1469 100 1697 100 
Q 1969 100 2183 356 
Q 2397 613 2397 1088 
Q 2397 1622 2184 2012 
Q 1972 2403 1581 2403 
Q 1463 2403 1327 2353 
Q 1191 2303 925 2138 
z
" transform="scale(0.015625)"/>
       </defs>
       <use xlink:href="#TimesNewRomanPSMT-36"/>
       <use xlink:href="#TimesNewRomanPSMT-30" transform="translate(50 0)"/>
      </g>
     </g>
    </g>
    <g id="ytick_4">
     <g id="line2d_10">
      <path d="M 444.333785 137.9675 
C 473.455041 137.9675 502.29313 143.703753 529.197663 154.847975 
C 556.102196 165.992197 580.549947 182.327662 601.141785 202.9195 
C 621.733623 223.511338 638.069088 247.959089 649.21331 274.863622 
C 660.357533 301.768155 666.093785 330.606244 666.093785 359.7275 
C 666.093785 388.848756 660.357533 417.686845 649.21331 444.591378 
C 638.069088 471.495911 621.733623 495.943662 601.141785 516.5355 
C 580.549947 537.127338 556.102196 553.462803 529.197663 564.607025 
C 502.29313 575.751247 473.455041 581.4875 444.333785 581.4875 
C 415.212529 581.4875 386.37444 575.751247 359.469907 564.607025 
C 332.565374 553.462803 308.117623 537.127338 287.525785 516.5355 
C 266.933947 495.943662 250.598482 471.495911 239.45426 444.591378 
C 228.310038 417.686845 222.573785 388.848756 222.573785 359.7275 
C 222.573785 330.606244 228.310038 301.768155 239.45426 274.863622 
C 250.598482 247.959089 266.933947 223.511338 287.525785 202.9195 
C 308.117623 182.327662 332.565374 165.992197 359.469907 154.847975 
C 386.37444 143.703753 415.212529 137.9675 444.333785 137.9675 
" clip-path="url(#pe58cbc4f24)" style="fill: none; stroke: #b0b0b0; stroke-width: 0.8; stroke-linecap: square"/>
     </g>
     <g id="text_10">
      <!-- 80 -->
      <g style="fill: #808080" transform="translate(444.333785 135.828438) scale(0.1 -0.1)">
       <defs>
        <path id="TimesNewRomanPSMT-38" d="M 1228 2134 
Q 725 2547 579 2797 
Q 434 3047 434 3316 
Q 434 3728 753 4026 
Q 1072 4325 1600 4325 
Q 2113 4325 2425 4047 
Q 2738 3769 2738 3413 
Q 2738 3175 2569 2928 
Q 2400 2681 1866 2347 
Q 2416 1922 2594 1678 
Q 2831 1359 2831 1006 
Q 2831 559 2490 242 
Q 2150 -75 1597 -75 
Q 994 -75 656 303 
Q 388 606 388 966 
Q 388 1247 577 1523 
Q 766 1800 1228 2134 
z
M 1719 2469 
Q 2094 2806 2194 3001 
Q 2294 3197 2294 3444 
Q 2294 3772 2109 3958 
Q 1925 4144 1606 4144 
Q 1288 4144 1088 3959 
Q 888 3775 888 3528 
Q 888 3366 970 3203 
Q 1053 3041 1206 2894 
L 1719 2469 
z
M 1375 2016 
Q 1116 1797 991 1539 
Q 866 1281 866 981 
Q 866 578 1086 336 
Q 1306 94 1647 94 
Q 1984 94 2187 284 
Q 2391 475 2391 747 
Q 2391 972 2272 1150 
Q 2050 1481 1375 2016 
z
" transform="scale(0.015625)"/>
       </defs>
       <use xlink:href="#TimesNewRomanPSMT-38"/>
       <use xlink:href="#TimesNewRomanPSMT-30" transform="translate(50 0)"/>
      </g>
     </g>
    </g>
   </g>
   <g id="line2d_11">
    <path d="M 444.333785 212.8115 
L 545.159927 301.5155 
L 549.961172 420.7115 
L 444.333785 506.6435 
L 317.100797 433.1855 
L 290.69395 271.0235 
L 444.333785 212.8115 
" clip-path="url(#pe58cbc4f24)" style="fill: none; stroke: #1f77b4; stroke-width: 2; stroke-linecap: square"/>
   </g>
   <g id="line2d_12">
    <path d="M 444.333785 146.2835 
L 633.982956 250.2335 
L 605.175487 452.5895 
L 444.333785 548.2235 
L 283.492083 452.5895 
L 360.312 311.2175 
L 444.333785 146.2835 
" clip-path="url(#pe58cbc4f24)" style="fill: none; stroke: #ff7f0e; stroke-width: 2; stroke-linecap: square"/>
   </g>
   <g id="line2d_13">
    <path d="M 444.333785 104.7035 
L 557.163039 294.5855 
L 650.787313 478.9235 
L 444.333785 520.5035 
L 353.110133 412.3955 
L 357.911378 309.8315 
L 444.333785 104.7035 
" clip-path="url(#pe58cbc4f24)" style="fill: none; stroke: #2ca02c; stroke-width: 2; stroke-linecap: square"/>
   </g>
   <g id="patch_6">
    <path d="M 444.333785 82.5275 
C 407.932215 82.5275 371.884604 89.697816 338.253938 103.628094 
C 304.623272 117.558372 274.063583 137.977703 248.323785 163.7175 
C 222.583988 189.457298 202.164657 220.016987 188.234379 253.647653 
C 174.304101 287.278318 167.133785 323.32593 167.133785 359.7275 
C 167.133785 396.12907 174.304101 432.176682 188.234379 465.807347 
C 202.164657 499.438013 222.583988 529.997702 248.323785 555.7375 
C 274.063583 581.477297 304.623272 601.896628 338.253938 615.826906 
C 371.884604 629.757184 407.932215 636.9275 444.333785 636.9275 
C 480.735356 636.9275 516.782967 629.757184 550.413633 615.826906 
C 584.044298 601.896628 614.603987 581.477297 640.343785 555.7375 
C 666.083582 529.997702 686.502914 499.438013 700.433191 465.807347 
C 714.363469 432.176682 721.533785 396.12907 721.533785 359.7275 
C 721.533785 323.32593 714.363469 287.278318 700.433191 253.647653 
C 686.502914 220.016987 666.083582 189.457298 640.343785 163.7175 
C 614.603987 137.977703 584.044298 117.558372 550.413633 103.628094 
C 516.782967 89.697816 480.735356 82.5275 444.333785 82.5275 
" style="fill: none; stroke: #000000; stroke-width: 0.8; stroke-linejoin: miter; stroke-linecap: square"/>
   </g>
   <g id="text_11">
    <!-- Education and Academics ( %) -->
    <g transform="translate(320.48691 21.0875) scale(0.2 -0.2)">
     <defs>
      <path id="TimesNewRomanPSMT-41" d="M 2928 1419 
L 1288 1419 
L 1000 750 
Q 894 503 894 381 
Q 894 284 986 211 
Q 1078 138 1384 116 
L 1384 0 
L 50 0 
L 50 116 
Q 316 163 394 238 
Q 553 388 747 847 
L 2238 4334 
L 2347 4334 
L 3822 809 
Q 4000 384 4145 257 
Q 4291 131 4550 116 
L 4550 0 
L 2878 0 
L 2878 116 
Q 3131 128 3220 200 
Q 3309 272 3309 375 
Q 3309 513 3184 809 
L 2928 1419 
z
M 2841 1650 
L 2122 3363 
L 1384 1650 
L 2841 1650 
z
" transform="scale(0.015625)"/>
      <path id="TimesNewRomanPSMT-28" d="M 1988 -1253 
L 1988 -1369 
Q 1516 -1131 1200 -813 
Q 750 -359 506 256 
Q 263 872 263 1534 
Q 263 2503 741 3301 
Q 1219 4100 1988 4444 
L 1988 4313 
Q 1603 4100 1356 3731 
Q 1109 3363 987 2797 
Q 866 2231 866 1616 
Q 866 947 969 400 
Q 1050 -31 1165 -292 
Q 1281 -553 1476 -793 
Q 1672 -1034 1988 -1253 
z
" transform="scale(0.015625)"/>
      <path id="TimesNewRomanPSMT-25" d="M 4350 4334 
L 1263 -175 
L 984 -175 
L 4072 4334 
L 4350 4334 
z
M 1138 4334 
Q 1559 4334 1792 3984 
Q 2025 3634 2025 3181 
Q 2025 2638 1762 2341 
Q 1500 2044 1131 2044 
Q 884 2044 678 2180 
Q 472 2316 348 2584 
Q 225 2853 225 3181 
Q 225 3509 350 3786 
Q 475 4063 692 4198 
Q 909 4334 1138 4334 
z
M 1128 4159 
Q 969 4159 845 3971 
Q 722 3784 722 3184 
Q 722 2750 791 2522 
Q 844 2350 956 2256 
Q 1022 2200 1119 2200 
Q 1269 2200 1375 2363 
Q 1531 2603 1531 3166 
Q 1531 3759 1378 4000 
Q 1278 4159 1128 4159 
z
M 4206 2103 
Q 4428 2103 4648 1962 
Q 4869 1822 4989 1553 
Q 5109 1284 5109 963 
Q 5109 409 4843 117 
Q 4578 -175 4216 -175 
Q 3988 -175 3773 -34 
Q 3559 106 3436 367 
Q 3313 628 3313 963 
Q 3313 1291 3436 1562 
Q 3559 1834 3773 1968 
Q 3988 2103 4206 2103 
z
M 4209 1938 
Q 4059 1938 3950 1769 
Q 3809 1550 3809 941 
Q 3809 381 3953 159 
Q 4059 0 4209 0 
Q 4353 0 4466 172 
Q 4616 400 4616 956 
Q 4616 1544 4466 1778 
Q 4363 1938 4209 1938 
z
" transform="scale(0.015625)"/>
      <path id="TimesNewRomanPSMT-29" d="M 144 4313 
L 144 4444 
Q 619 4209 934 3891 
Q 1381 3434 1625 2820 
Q 1869 2206 1869 1541 
Q 1869 572 1392 -226 
Q 916 -1025 144 -1369 
L 144 -1253 
Q 528 -1038 776 -670 
Q 1025 -303 1145 264 
Q 1266 831 1266 1447 
Q 1266 2113 1163 2663 
Q 1084 3094 967 3353 
Q 850 3613 656 3853 
Q 463 4094 144 4313 
z
" transform="scale(0.015625)"/>
     </defs>
     <use xlink:href="#TimesNewRomanPSMT-45"/>
     <use xlink:href="#TimesNewRomanPSMT-64" transform="translate(61.083984 0)"/>
     <use xlink:href="#TimesNewRomanPSMT-75" transform="translate(111.083984 0)"/>
     <use xlink:href="#TimesNewRomanPSMT-63" transform="translate(161.083984 0)"/>
     <use xlink:href="#TimesNewRomanPSMT-61" transform="translate(205.46875 0)"/>
     <use xlink:href="#TimesNewRomanPSMT-74" transform="translate(249.853516 0)"/>
     <use xlink:href="#TimesNewRomanPSMT-69" transform="translate(277.636719 0)"/>
     <use xlink:href="#TimesNewRomanPSMT-6f" transform="translate(305.419922 0)"/>
     <use xlink:href="#TimesNewRomanPSMT-6e" transform="translate(355.419922 0)"/>
     <use xlink:href="#TimesNewRomanPSMT-20" transform="translate(405.419922 0)"/>
     <use xlink:href="#TimesNewRomanPSMT-61" transform="translate(430.419922 0)"/>
     <use xlink:href="#TimesNewRomanPSMT-6e" transform="translate(474.804688 0)"/>
     <use xlink:href="#TimesNewRomanPSMT-64" transform="translate(524.804688 0)"/>
     <use xlink:href="#TimesNewRomanPSMT-20" transform="translate(574.804688 0)"/>
     <use xlink:href="#TimesNewRomanPSMT-41" transform="translate(594.304688 0)"/>
     <use xlink:href="#TimesNewRomanPSMT-63" transform="translate(666.521484 0)"/>
     <use xlink:href="#TimesNewRomanPSMT-61" transform="translate(710.90625 0)"/>
     <use xlink:href="#TimesNewRomanPSMT-64" transform="translate(755.291016 0)"/>
     <use xlink:href="#TimesNewRomanPSMT-65" transform="translate(805.291016 0)"/>
     <use xlink:href="#TimesNewRomanPSMT-6d" transform="translate(849.675781 0)"/>
     <use xlink:href="#TimesNewRomanPSMT-69" transform="translate(927.458984 0)"/>
     <use xlink:href="#TimesNewRomanPSMT-63" transform="translate(955.242188 0)"/>
     <use xlink:href="#TimesNewRomanPSMT-73" transform="translate(999.626953 0)"/>
     <use xlink:href="#TimesNewRomanPSMT-20" transform="translate(1038.542969 0)"/>
     <use xlink:href="#TimesNewRomanPSMT-28" transform="translate(1063.542969 0)"/>
     <use xlink:href="#TimesNewRomanPSMT-20" transform="translate(1096.84375 0)"/>
     <use xlink:href="#TimesNewRomanPSMT-25" transform="translate(1121.84375 0)"/>
     <use xlink:href="#TimesNewRomanPSMT-29" transform="translate(1205.144531 0)"/>
    </g>
   </g>
   <g id="legend_1">
    <g id="patch_7">
     <path d="M 661.973785 107.815 
L 876.653785 107.815 
Q 879.853785 107.815 879.853785 104.615 
L 879.853785 38.2875 
Q 879.853785 35.0875 876.653785 35.0875 
L 661.973785 35.0875 
Q 658.773785 35.0875 658.773785 38.2875 
L 658.773785 104.615 
Q 658.773785 107.815 661.973785 107.815 
z
" style="fill: #ffffff; opacity: 0.8; stroke: #cccccc; stroke-linejoin: miter"/>
    </g>
    <g id="line2d_14">
     <path d="M 665.173785 47.0875 
L 681.173785 47.0875 
L 697.173785 47.0875 
" style="fill: none; stroke: #1f77b4; stroke-width: 2; stroke-linecap: square"/>
    </g>
    <g id="text_12">
     <!-- Lake Benjamin Institute -->
     <g transform="translate(709.973785 52.6875) scale(0.16 -0.16)">
      <defs>
       <path id="TimesNewRomanPSMT-4c" d="M 3669 1172 
L 3772 1150 
L 3409 0 
L 128 0 
L 128 116 
L 288 116 
Q 556 116 672 291 
Q 738 391 738 753 
L 738 3488 
Q 738 3884 650 3984 
Q 528 4122 288 4122 
L 128 4122 
L 128 4238 
L 2047 4238 
L 2047 4122 
Q 1709 4125 1573 4059 
Q 1438 3994 1388 3894 
Q 1338 3794 1338 3416 
L 1338 753 
Q 1338 494 1388 397 
Q 1425 331 1503 300 
Q 1581 269 1991 269 
L 2300 269 
Q 2788 269 2984 341 
Q 3181 413 3343 595 
Q 3506 778 3669 1172 
z
" transform="scale(0.015625)"/>
       <path id="TimesNewRomanPSMT-6b" d="M 1047 4444 
L 1047 1597 
L 1775 2259 
Q 2006 2472 2044 2528 
Q 2069 2566 2069 2603 
Q 2069 2666 2017 2711 
Q 1966 2756 1847 2763 
L 1847 2863 
L 3091 2863 
L 3091 2763 
Q 2834 2756 2664 2684 
Q 2494 2613 2291 2428 
L 1556 1750 
L 2291 822 
Q 2597 438 2703 334 
Q 2853 188 2966 144 
Q 3044 113 3238 113 
L 3238 0 
L 1847 0 
L 1847 113 
Q 1966 116 2008 148 
Q 2050 181 2050 241 
Q 2050 313 1925 472 
L 1047 1594 
L 1047 644 
Q 1047 366 1086 278 
Q 1125 191 1197 153 
Q 1269 116 1509 113 
L 1509 0 
L 53 0 
L 53 113 
Q 272 113 381 166 
Q 447 200 481 272 
Q 528 375 528 628 
L 528 3234 
Q 528 3731 506 3842 
Q 484 3953 434 3995 
Q 384 4038 303 4038 
Q 238 4038 106 3984 
L 53 4094 
L 903 4444 
L 1047 4444 
z
" transform="scale(0.015625)"/>
       <path id="TimesNewRomanPSMT-42" d="M 2956 2163 
Q 3397 2069 3616 1863 
Q 3919 1575 3919 1159 
Q 3919 844 3719 555 
Q 3519 266 3170 133 
Q 2822 0 2106 0 
L 106 0 
L 106 116 
L 266 116 
Q 531 116 647 284 
Q 719 394 719 750 
L 719 3488 
Q 719 3881 628 3984 
Q 506 4122 266 4122 
L 106 4122 
L 106 4238 
L 1938 4238 
Q 2450 4238 2759 4163 
Q 3228 4050 3475 3764 
Q 3722 3478 3722 3106 
Q 3722 2788 3528 2536 
Q 3334 2284 2956 2163 
z
M 1319 2331 
Q 1434 2309 1582 2298 
Q 1731 2288 1909 2288 
Q 2366 2288 2595 2386 
Q 2825 2484 2947 2687 
Q 3069 2891 3069 3131 
Q 3069 3503 2766 3765 
Q 2463 4028 1881 4028 
Q 1569 4028 1319 3959 
L 1319 2331 
z
M 1319 306 
Q 1681 222 2034 222 
Q 2600 222 2897 476 
Q 3194 731 3194 1106 
Q 3194 1353 3059 1581 
Q 2925 1809 2622 1940 
Q 2319 2072 1872 2072 
Q 1678 2072 1540 2065 
Q 1403 2059 1319 2044 
L 1319 306 
z
" transform="scale(0.015625)"/>
       <path id="TimesNewRomanPSMT-6a" d="M 925 4447 
Q 1059 4447 1153 4353 
Q 1247 4259 1247 4125 
Q 1247 3994 1153 3900 
Q 1059 3806 925 3806 
Q 794 3806 700 3900 
Q 606 3994 606 4125 
Q 606 4259 700 4353 
Q 794 4447 925 4447 
z
M 1194 2947 
L 1194 66 
Q 1194 -669 881 -1025 
Q 569 -1381 69 -1381 
Q -216 -1381 -353 -1278 
Q -491 -1175 -491 -1066 
Q -491 -956 -414 -878 
Q -338 -800 -234 -800 
Q -153 -800 -69 -841 
Q -16 -863 136 -998 
Q 288 -1134 391 -1134 
Q 466 -1134 537 -1076 
Q 609 -1019 643 -883 
Q 678 -747 678 -294 
L 678 1744 
Q 678 2216 650 2350 
Q 628 2453 581 2492 
Q 534 2531 453 2531 
Q 366 2531 241 2484 
L 197 2597 
L 1059 2947 
L 1194 2947 
z
" transform="scale(0.015625)"/>
      </defs>
      <use xlink:href="#TimesNewRomanPSMT-4c"/>
      <use xlink:href="#TimesNewRomanPSMT-61" transform="translate(61.083984 0)"/>
      <use xlink:href="#TimesNewRomanPSMT-6b" transform="translate(105.46875 0)"/>
      <use xlink:href="#TimesNewRomanPSMT-65" transform="translate(155.46875 0)"/>
      <use xlink:href="#TimesNewRomanPSMT-20" transform="translate(199.853516 0)"/>
      <use xlink:href="#TimesNewRomanPSMT-42" transform="translate(224.853516 0)"/>
      <use xlink:href="#TimesNewRomanPSMT-65" transform="translate(291.552734 0)"/>
      <use xlink:href="#TimesNewRomanPSMT-6e" transform="translate(335.9375 0)"/>
      <use xlink:href="#TimesNewRomanPSMT-6a" transform="translate(385.9375 0)"/>
      <use xlink:href="#TimesNewRomanPSMT-61" transform="translate(413.720703 0)"/>
      <use xlink:href="#TimesNewRomanPSMT-6d" transform="translate(458.105469 0)"/>
      <use xlink:href="#TimesNewRomanPSMT-69" transform="translate(535.888672 0)"/>
      <use xlink:href="#TimesNewRomanPSMT-6e" transform="translate(563.671875 0)"/>
      <use xlink:href="#TimesNewRomanPSMT-20" transform="translate(613.671875 0)"/>
      <use xlink:href="#TimesNewRomanPSMT-49" transform="translate(638.671875 0)"/>
      <use xlink:href="#TimesNewRomanPSMT-6e" transform="translate(671.972656 0)"/>
      <use xlink:href="#TimesNewRomanPSMT-73" transform="translate(721.972656 0)"/>
      <use xlink:href="#TimesNewRomanPSMT-74" transform="translate(760.888672 0)"/>
      <use xlink:href="#TimesNewRomanPSMT-69" transform="translate(788.671875 0)"/>
      <use xlink:href="#TimesNewRomanPSMT-74" transform="translate(816.455078 0)"/>
      <use xlink:href="#TimesNewRomanPSMT-75" transform="translate(844.238281 0)"/>
      <use xlink:href="#TimesNewRomanPSMT-74" transform="translate(894.238281 0)"/>
      <use xlink:href="#TimesNewRomanPSMT-65" transform="translate(922.021484 0)"/>
     </g>
    </g>
    <g id="line2d_15">
     <path d="M 665.173785 69.74 
L 681.173785 69.74 
L 697.173785 69.74 
" style="fill: none; stroke: #ff7f0e; stroke-width: 2; stroke-linecap: square"/>
    </g>
    <g id="text_13">
     <!-- Lake Williamland School -->
     <g transform="translate(709.973785 75.34) scale(0.16 -0.16)">
      <defs>
       <path id="TimesNewRomanPSMT-57" d="M 5991 4238 
L 5991 4122 
Q 5825 4122 5722 4062 
Q 5619 4003 5525 3841 
Q 5463 3731 5328 3319 
L 4147 -97 
L 4022 -97 
L 3056 2613 
L 2097 -97 
L 1984 -97 
L 725 3422 
Q 584 3816 547 3888 
Q 484 4006 376 4064 
Q 269 4122 84 4122 
L 84 4238 
L 1653 4238 
L 1653 4122 
L 1578 4122 
Q 1413 4122 1325 4047 
Q 1238 3972 1238 3866 
Q 1238 3756 1375 3363 
L 2209 984 
L 2913 3006 
L 2788 3363 
L 2688 3647 
Q 2622 3803 2541 3922 
Q 2500 3981 2441 4022 
Q 2363 4078 2284 4103 
Q 2225 4122 2097 4122 
L 2097 4238 
L 3747 4238 
L 3747 4122 
L 3634 4122 
Q 3459 4122 3378 4047 
Q 3297 3972 3297 3844 
Q 3297 3684 3438 3288 
L 4250 984 
L 5056 3319 
Q 5194 3706 5194 3856 
Q 5194 3928 5148 3990 
Q 5103 4053 5034 4078 
Q 4916 4122 4725 4122 
L 4725 4238 
L 5991 4238 
z
" transform="scale(0.015625)"/>
       <path id="TimesNewRomanPSMT-53" d="M 2934 4334 
L 2934 2869 
L 2819 2869 
Q 2763 3291 2617 3541 
Q 2472 3791 2203 3937 
Q 1934 4084 1647 4084 
Q 1322 4084 1109 3886 
Q 897 3688 897 3434 
Q 897 3241 1031 3081 
Q 1225 2847 1953 2456 
Q 2547 2138 2764 1967 
Q 2981 1797 3098 1565 
Q 3216 1334 3216 1081 
Q 3216 600 2842 251 
Q 2469 -97 1881 -97 
Q 1697 -97 1534 -69 
Q 1438 -53 1133 45 
Q 828 144 747 144 
Q 669 144 623 97 
Q 578 50 556 -97 
L 441 -97 
L 441 1356 
L 556 1356 
Q 638 900 775 673 
Q 913 447 1195 297 
Q 1478 147 1816 147 
Q 2206 147 2432 353 
Q 2659 559 2659 841 
Q 2659 997 2573 1156 
Q 2488 1316 2306 1453 
Q 2184 1547 1640 1851 
Q 1097 2156 867 2337 
Q 638 2519 519 2737 
Q 400 2956 400 3219 
Q 400 3675 750 4004 
Q 1100 4334 1641 4334 
Q 1978 4334 2356 4169 
Q 2531 4091 2603 4091 
Q 2684 4091 2736 4139 
Q 2788 4188 2819 4334 
L 2934 4334 
z
" transform="scale(0.015625)"/>
      </defs>
      <use xlink:href="#TimesNewRomanPSMT-4c"/>
      <use xlink:href="#TimesNewRomanPSMT-61" transform="translate(61.083984 0)"/>
      <use xlink:href="#TimesNewRomanPSMT-6b" transform="translate(105.46875 0)"/>
      <use xlink:href="#TimesNewRomanPSMT-65" transform="translate(155.46875 0)"/>
      <use xlink:href="#TimesNewRomanPSMT-20" transform="translate(199.853516 0)"/>
      <use xlink:href="#TimesNewRomanPSMT-57" transform="translate(223.103516 0)"/>
      <use xlink:href="#TimesNewRomanPSMT-69" transform="translate(313.488281 0)"/>
      <use xlink:href="#TimesNewRomanPSMT-6c" transform="translate(341.271484 0)"/>
      <use xlink:href="#TimesNewRomanPSMT-6c" transform="translate(369.054688 0)"/>
      <use xlink:href="#TimesNewRomanPSMT-69" transform="translate(396.837891 0)"/>
      <use xlink:href="#TimesNewRomanPSMT-61" transform="translate(424.621094 0)"/>
      <use xlink:href="#TimesNewRomanPSMT-6d" transform="translate(469.005859 0)"/>
      <use xlink:href="#TimesNewRomanPSMT-6c" transform="translate(546.789062 0)"/>
      <use xlink:href="#TimesNewRomanPSMT-61" transform="translate(574.572266 0)"/>
      <use xlink:href="#TimesNewRomanPSMT-6e" transform="translate(618.957031 0)"/>
      <use xlink:href="#TimesNewRomanPSMT-64" transform="translate(668.957031 0)"/>
      <use xlink:href="#TimesNewRomanPSMT-20" transform="translate(718.957031 0)"/>
      <use xlink:href="#TimesNewRomanPSMT-53" transform="translate(743.957031 0)"/>
      <use xlink:href="#TimesNewRomanPSMT-63" transform="translate(799.572266 0)"/>
      <use xlink:href="#TimesNewRomanPSMT-68" transform="translate(843.957031 0)"/>
      <use xlink:href="#TimesNewRomanPSMT-6f" transform="translate(893.957031 0)"/>
      <use xlink:href="#TimesNewRomanPSMT-6f" transform="translate(943.957031 0)"/>
      <use xlink:href="#TimesNewRomanPSMT-6c" transform="translate(993.957031 0)"/>
     </g>
    </g>
    <g id="line2d_16">
     <path d="M 665.173785 92.3625 
L 681.173785 92.3625 
L 697.173785 92.3625 
" style="fill: none; stroke: #2ca02c; stroke-width: 2; stroke-linecap: square"/>
    </g>
    <g id="text_14">
     <!-- Cardenasview College -->
     <g transform="translate(709.973785 97.9625) scale(0.16 -0.16)">
      <defs>
       <path id="TimesNewRomanPSMT-77" d="M 41 2863 
L 1241 2863 
L 1241 2747 
Q 1075 2734 1023 2687 
Q 972 2641 972 2553 
Q 972 2456 1025 2319 
L 1638 672 
L 2253 2013 
L 2091 2434 
Q 2016 2622 1894 2694 
Q 1825 2738 1638 2747 
L 1638 2863 
L 3000 2863 
L 3000 2747 
Q 2775 2738 2681 2666 
Q 2619 2616 2619 2506 
Q 2619 2444 2644 2378 
L 3294 734 
L 3897 2319 
Q 3959 2488 3959 2588 
Q 3959 2647 3898 2694 
Q 3838 2741 3659 2747 
L 3659 2863 
L 4563 2863 
L 4563 2747 
Q 4291 2706 4163 2378 
L 3206 -88 
L 3078 -88 
L 2363 1741 
L 1528 -88 
L 1413 -88 
L 494 2319 
Q 403 2547 315 2626 
Q 228 2706 41 2747 
L 41 2863 
z
" transform="scale(0.015625)"/>
      </defs>
      <use xlink:href="#TimesNewRomanPSMT-43"/>
      <use xlink:href="#TimesNewRomanPSMT-61" transform="translate(66.699219 0)"/>
      <use xlink:href="#TimesNewRomanPSMT-72" transform="translate(111.083984 0)"/>
      <use xlink:href="#TimesNewRomanPSMT-64" transform="translate(144.384766 0)"/>
      <use xlink:href="#TimesNewRomanPSMT-65" transform="translate(194.384766 0)"/>
      <use xlink:href="#TimesNewRomanPSMT-6e" transform="translate(238.769531 0)"/>
      <use xlink:href="#TimesNewRomanPSMT-61" transform="translate(288.769531 0)"/>
      <use xlink:href="#TimesNewRomanPSMT-73" transform="translate(333.154297 0)"/>
      <use xlink:href="#TimesNewRomanPSMT-76" transform="translate(372.070312 0)"/>
      <use xlink:href="#TimesNewRomanPSMT-69" transform="translate(422.070312 0)"/>
      <use xlink:href="#TimesNewRomanPSMT-65" transform="translate(449.853516 0)"/>
      <use xlink:href="#TimesNewRomanPSMT-77" transform="translate(494.238281 0)"/>
      <use xlink:href="#TimesNewRomanPSMT-20" transform="translate(566.455078 0)"/>
      <use xlink:href="#TimesNewRomanPSMT-43" transform="translate(591.455078 0)"/>
      <use xlink:href="#TimesNewRomanPSMT-6f" transform="translate(658.154297 0)"/>
      <use xlink:href="#TimesNewRomanPSMT-6c" transform="translate(708.154297 0)"/>
      <use xlink:href="#TimesNewRomanPSMT-6c" transform="translate(735.9375 0)"/>
      <use xlink:href="#TimesNewRomanPSMT-65" transform="translate(763.720703 0)"/>
      <use xlink:href="#TimesNewRomanPSMT-67" transform="translate(808.105469 0)"/>
      <use xlink:href="#TimesNewRomanPSMT-65" transform="translate(858.105469 0)"/>
     </g>
    </g>
   </g>
  </g>
 </g>
 <defs>
  <clipPath id="pe58cbc4f24">
   <path d="M 721.533785 359.7275 
C 721.533785 323.32593 714.363469 287.278318 700.433191 253.647653 
C 686.502914 220.016987 666.083582 189.457298 640.343785 163.7175 
C 614.603987 137.977703 584.044298 117.558372 550.413633 103.628094 
C 516.782967 89.697816 480.735356 82.5275 444.333785 82.5275 
C 407.932215 82.5275 371.884604 89.697816 338.253938 103.628094 
C 304.623272 117.558372 274.063583 137.977703 248.323785 163.7175 
C 222.583988 189.457298 202.164657 220.016987 188.234379 253.647653 
C 174.304101 287.278318 167.133785 323.32593 167.133785 359.7275 
C 167.133785 396.12907 174.304101 432.176682 188.234379 465.807347 
C 202.164657 499.438013 222.583988 529.997702 248.323785 555.7375 
C 274.063583 581.477297 304.623272 601.896628 338.253938 615.826906 
C 371.884604 629.757184 407.932215 636.9275 444.333785 636.9275 
C 480.735356 636.9275 516.782967 629.757184 550.413633 615.826906 
C 584.044298 601.896628 614.603987 581.477297 640.343785 555.7375 
C 666.083582 529.997702 686.502914 499.438013 700.433191 465.807347 
C 714.363469 432.176682 721.533785 396.12907 721.533785 359.7275 
M 444.333785 359.7275 
C 444.333785 359.7275 444.333785 359.7275 444.333785 359.7275 
C 444.333785 359.7275 444.333785 359.7275 444.333785 359.7275 
C 444.333785 359.7275 444.333785 359.7275 444.333785 359.7275 
C 444.333785 359.7275 444.333785 359.7275 444.333785 359.7275 
C 444.333785 359.7275 444.333785 359.7275 444.333785 359.7275 
C 444.333785 359.7275 444.333785 359.7275 444.333785 359.7275 
C 444.333785 359.7275 444.333785 359.7275 444.333785 359.7275 
C 444.333785 359.7275 444.333785 359.7275 444.333785 359.7275 
C 444.333785 359.7275 444.333785 359.7275 444.333785 359.7275 
C 444.333785 359.7275 444.333785 359.7275 444.333785 359.7275 
C 444.333785 359.7275 444.333785 359.7275 444.333785 359.7275 
C 444.333785 359.7275 444.333785 359.7275 444.333785 359.7275 
C 444.333785 359.7275 444.333785 359.7275 444.333785 359.7275 
C 444.333785 359.7275 444.333785 359.7275 444.333785 359.7275 
C 444.333785 359.7275 444.333785 359.7275 444.333785 359.7275 
C 444.333785 359.7275 444.333785 359.7275 444.333785 359.7275 
z
"/>
  </clipPath>
 </defs>
</svg>
