<?xml version="1.0" encoding="utf-8" standalone="no"?>
<!DOCTYPE svg PUBLIC "-//W3C//DTD SVG 1.1//EN"
  "http://www.w3.org/Graphics/SVG/1.1/DTD/svg11.dtd">
<svg xmlns:xlink="http://www.w3.org/1999/xlink" width="1134.122883pt" height="666.302031pt" viewBox="0 0 1134.122883 666.302031" xmlns="http://www.w3.org/2000/svg" version="1.1">
 <metadata>
  <rdf:RDF xmlns:dc="http://purl.org/dc/elements/1.1/" xmlns:cc="http://creativecommons.org/ns#" xmlns:rdf="http://www.w3.org/1999/02/22-rdf-syntax-ns#">
   <cc:Work>
    <dc:type rdf:resource="http://purl.org/dc/dcmitype/StillImage"/>
    <dc:date>2025-05-30T21:19:17.997723</dc:date>
    <dc:format>image/svg+xml</dc:format>
    <dc:creator>
     <cc:Agent>
      <dc:title>Matplotlib v3.10.1, https://matplotlib.org/</dc:title>
     </cc:Agent>
    </dc:creator>
   </cc:Work>
  </rdf:RDF>
 </metadata>
 <defs>
  <style type="text/css">*{stroke-linejoin: round; stroke-linecap: butt}</style>
 </defs>
 <g id="figure_1">
  <g id="patch_1">
   <path d="M 0 666.302031 
L 1134.122883 666.302031 
L 1134.122883 0 
L 0 0 
z
" style="fill: #ffffff"/>
  </g>
  <g id="axes_1">
   <g id="patch_2">
    <path d="M 806.02691 359.7275 
C 806.02691 323.32593 798.856594 287.278318 784.926316 253.647653 
C 770.996039 220.016987 750.576707 189.457298 724.83691 163.7175 
C 699.097112 137.977703 668.537423 117.558372 634.906758 103.628094 
C 601.276092 89.697816 565.228481 82.5275 528.82691 82.5275 
C 492.42534 82.5275 456.377729 89.697816 422.747063 103.628094 
C 389.116397 117.558372 358.556708 137.977703 332.81691 163.7175 
C 307.077113 189.457298 286.657782 220.016987 272.727504 253.647653 
C 258.797226 287.278318 251.62691 323.32593 251.62691 359.7275 
C 251.62691 396.12907 258.797226 432.176682 272.727504 465.807347 
C 286.657782 499.438013 307.077113 529.997702 332.81691 555.7375 
C 358.556708 581.477297 389.116397 601.896628 422.747063 615.826906 
C 456.377729 629.757184 492.42534 636.9275 528.82691 636.9275 
C 565.228481 636.9275 601.276092 629.757184 634.906758 615.826906 
C 668.537423 601.896628 699.097112 581.477297 724.83691 555.7375 
C 750.576707 529.997702 770.996039 499.438013 784.926316 465.807347 
C 798.856594 432.176682 806.02691 396.12907 806.02691 359.7275 
M 528.82691 359.7275 
C 528.82691 359.7275 528.82691 359.7275 528.82691 359.7275 
C 528.82691 359.7275 528.82691 359.7275 528.82691 359.7275 
C 528.82691 359.7275 528.82691 359.7275 528.82691 359.7275 
C 528.82691 359.7275 528.82691 359.7275 528.82691 359.7275 
C 528.82691 359.7275 528.82691 359.7275 528.82691 359.7275 
C 528.82691 359.7275 528.82691 359.7275 528.82691 359.7275 
C 528.82691 359.7275 528.82691 359.7275 528.82691 359.7275 
C 528.82691 359.7275 528.82691 359.7275 528.82691 359.7275 
C 528.82691 359.7275 528.82691 359.7275 528.82691 359.7275 
C 528.82691 359.7275 528.82691 359.7275 528.82691 359.7275 
C 528.82691 359.7275 528.82691 359.7275 528.82691 359.7275 
C 528.82691 359.7275 528.82691 359.7275 528.82691 359.7275 
C 528.82691 359.7275 528.82691 359.7275 528.82691 359.7275 
C 528.82691 359.7275 528.82691 359.7275 528.82691 359.7275 
C 528.82691 359.7275 528.82691 359.7275 528.82691 359.7275 
C 528.82691 359.7275 528.82691 359.7275 528.82691 359.7275 
z
" style="fill: #ffffff"/>
   </g>
   <g id="patch_3">
    <path d="M 528.82691 185.0915 
L 675.264878 275.1815 
L 663.261766 437.3435 
L 528.82691 592.5755 
L 387.190187 441.5015 
L 408.795789 290.4275 
z
" clip-path="url(#p01f545f8a0)" style="fill: #1f77b4; opacity: 0.15; stroke: #1f77b4; stroke-linejoin: miter"/>
   </g>
   <g id="patch_4">
    <path d="M 528.82691 176.7755 
L 737.681061 239.1455 
L 641.656164 424.8695 
L 528.82691 514.9595 
L 339.177739 469.2215 
L 370.38583 268.2515 
z
" clip-path="url(#p01f545f8a0)" style="fill: #ff7f0e; opacity: 0.15; stroke: #ff7f0e; stroke-linejoin: miter"/>
   </g>
   <g id="patch_5">
    <path d="M 528.82691 126.8795 
L 644.056786 293.1995 
L 648.858031 429.0275 
L 528.82691 462.2915 
L 394.392055 437.3435 
L 327.174627 243.3035 
z
" clip-path="url(#p01f545f8a0)" style="fill: #2ca02c; opacity: 0.15; stroke: #2ca02c; stroke-linejoin: miter"/>
   </g>
   <g id="matplotlib.axis_1">
    <g id="xtick_1">
     <g id="line2d_1">
      <path d="M 528.82691 359.7275 
L 528.82691 82.5275 
" clip-path="url(#p01f545f8a0)" style="fill: none; stroke: #b0b0b0; stroke-width: 0.8; stroke-linecap: square"/>
     </g>
     <g id="text_1">
      <!-- Vaccination Rate -->
      <g transform="translate(467.603004 72.851719) scale(0.18 -0.18)">
       <defs>
        <path id="TimesNewRomanPSMT-56" d="M 4544 4238 
L 4544 4122 
Q 4319 4081 4203 3978 
Q 4038 3825 3909 3509 
L 2431 -97 
L 2316 -97 
L 728 3556 
Q 606 3838 556 3900 
Q 478 3997 364 4051 
Q 250 4106 56 4122 
L 56 4238 
L 1788 4238 
L 1788 4122 
Q 1494 4094 1406 4022 
Q 1319 3950 1319 3838 
Q 1319 3681 1463 3350 
L 2541 866 
L 3541 3319 
Q 3688 3681 3688 3822 
Q 3688 3913 3597 3995 
Q 3506 4078 3291 4113 
Q 3275 4116 3238 4122 
L 3238 4238 
L 4544 4238 
z
" transform="scale(0.015625)"/>
        <path id="TimesNewRomanPSMT-61" d="M 1822 413 
Q 1381 72 1269 19 
Q 1100 -59 909 -59 
Q 613 -59 420 144 
Q 228 347 228 678 
Q 228 888 322 1041 
Q 450 1253 767 1440 
Q 1084 1628 1822 1897 
L 1822 2009 
Q 1822 2438 1686 2597 
Q 1550 2756 1291 2756 
Q 1094 2756 978 2650 
Q 859 2544 859 2406 
L 866 2225 
Q 866 2081 792 2003 
Q 719 1925 600 1925 
Q 484 1925 411 2006 
Q 338 2088 338 2228 
Q 338 2497 613 2722 
Q 888 2947 1384 2947 
Q 1766 2947 2009 2819 
Q 2194 2722 2281 2516 
Q 2338 2381 2338 1966 
L 2338 994 
Q 2338 584 2353 492 
Q 2369 400 2405 369 
Q 2441 338 2488 338 
Q 2538 338 2575 359 
Q 2641 400 2828 588 
L 2828 413 
Q 2478 -56 2159 -56 
Q 2006 -56 1915 50 
Q 1825 156 1822 413 
z
M 1822 616 
L 1822 1706 
Q 1350 1519 1213 1441 
Q 966 1303 859 1153 
Q 753 1003 753 825 
Q 753 600 887 451 
Q 1022 303 1197 303 
Q 1434 303 1822 616 
z
" transform="scale(0.015625)"/>
        <path id="TimesNewRomanPSMT-63" d="M 2631 1088 
Q 2516 522 2178 217 
Q 1841 -88 1431 -88 
Q 944 -88 581 321 
Q 219 731 219 1428 
Q 219 2103 620 2525 
Q 1022 2947 1584 2947 
Q 2006 2947 2278 2723 
Q 2550 2500 2550 2259 
Q 2550 2141 2473 2067 
Q 2397 1994 2259 1994 
Q 2075 1994 1981 2113 
Q 1928 2178 1911 2362 
Q 1894 2547 1784 2644 
Q 1675 2738 1481 2738 
Q 1169 2738 978 2506 
Q 725 2200 725 1697 
Q 725 1184 976 792 
Q 1228 400 1656 400 
Q 1963 400 2206 609 
Q 2378 753 2541 1131 
L 2631 1088 
z
" transform="scale(0.015625)"/>
        <path id="TimesNewRomanPSMT-69" d="M 928 4444 
Q 1059 4444 1151 4351 
Q 1244 4259 1244 4128 
Q 1244 3997 1151 3903 
Q 1059 3809 928 3809 
Q 797 3809 703 3903 
Q 609 3997 609 4128 
Q 609 4259 701 4351 
Q 794 4444 928 4444 
z
M 1188 2947 
L 1188 647 
Q 1188 378 1227 289 
Q 1266 200 1342 156 
Q 1419 113 1622 113 
L 1622 0 
L 231 0 
L 231 113 
Q 441 113 512 153 
Q 584 194 626 287 
Q 669 381 669 647 
L 669 1750 
Q 669 2216 641 2353 
Q 619 2453 572 2492 
Q 525 2531 444 2531 
Q 356 2531 231 2484 
L 188 2597 
L 1050 2947 
L 1188 2947 
z
" transform="scale(0.015625)"/>
        <path id="TimesNewRomanPSMT-6e" d="M 1034 2341 
Q 1538 2947 1994 2947 
Q 2228 2947 2397 2830 
Q 2566 2713 2666 2444 
Q 2734 2256 2734 1869 
L 2734 647 
Q 2734 375 2778 278 
Q 2813 200 2889 156 
Q 2966 113 3172 113 
L 3172 0 
L 1756 0 
L 1756 113 
L 1816 113 
Q 2016 113 2095 173 
Q 2175 234 2206 353 
Q 2219 400 2219 647 
L 2219 1819 
Q 2219 2209 2117 2386 
Q 2016 2563 1775 2563 
Q 1403 2563 1034 2156 
L 1034 647 
Q 1034 356 1069 288 
Q 1113 197 1189 155 
Q 1266 113 1500 113 
L 1500 0 
L 84 0 
L 84 113 
L 147 113 
Q 366 113 442 223 
Q 519 334 519 647 
L 519 1709 
Q 519 2225 495 2337 
Q 472 2450 423 2490 
Q 375 2531 294 2531 
Q 206 2531 84 2484 
L 38 2597 
L 900 2947 
L 1034 2947 
L 1034 2341 
z
" transform="scale(0.015625)"/>
        <path id="TimesNewRomanPSMT-74" d="M 1031 3803 
L 1031 2863 
L 1700 2863 
L 1700 2644 
L 1031 2644 
L 1031 788 
Q 1031 509 1111 412 
Q 1191 316 1316 316 
Q 1419 316 1516 380 
Q 1613 444 1666 569 
L 1788 569 
Q 1678 263 1478 108 
Q 1278 -47 1066 -47 
Q 922 -47 784 33 
Q 647 113 581 261 
Q 516 409 516 719 
L 516 2644 
L 63 2644 
L 63 2747 
Q 234 2816 414 2980 
Q 594 3144 734 3369 
Q 806 3488 934 3803 
L 1031 3803 
z
" transform="scale(0.015625)"/>
        <path id="TimesNewRomanPSMT-6f" d="M 1600 2947 
Q 2250 2947 2644 2453 
Q 2978 2031 2978 1484 
Q 2978 1100 2793 706 
Q 2609 313 2286 112 
Q 1963 -88 1566 -88 
Q 919 -88 538 428 
Q 216 863 216 1403 
Q 216 1797 411 2186 
Q 606 2575 925 2761 
Q 1244 2947 1600 2947 
z
M 1503 2744 
Q 1338 2744 1170 2645 
Q 1003 2547 900 2300 
Q 797 2053 797 1666 
Q 797 1041 1045 587 
Q 1294 134 1700 134 
Q 2003 134 2200 384 
Q 2397 634 2397 1244 
Q 2397 2006 2069 2444 
Q 1847 2744 1503 2744 
z
" transform="scale(0.015625)"/>
        <path id="TimesNewRomanPSMT-20" transform="scale(0.015625)"/>
        <path id="TimesNewRomanPSMT-52" d="M 4325 0 
L 3194 0 
L 1759 1981 
Q 1600 1975 1500 1975 
Q 1459 1975 1412 1976 
Q 1366 1978 1316 1981 
L 1316 750 
Q 1316 350 1403 253 
Q 1522 116 1759 116 
L 1925 116 
L 1925 0 
L 109 0 
L 109 116 
L 269 116 
Q 538 116 653 291 
Q 719 388 719 750 
L 719 3488 
Q 719 3888 631 3984 
Q 509 4122 269 4122 
L 109 4122 
L 109 4238 
L 1653 4238 
Q 2328 4238 2648 4139 
Q 2969 4041 3192 3777 
Q 3416 3513 3416 3147 
Q 3416 2756 3161 2468 
Q 2906 2181 2372 2063 
L 3247 847 
Q 3547 428 3762 290 
Q 3978 153 4325 116 
L 4325 0 
z
M 1316 2178 
Q 1375 2178 1419 2176 
Q 1463 2175 1491 2175 
Q 2097 2175 2405 2437 
Q 2713 2700 2713 3106 
Q 2713 3503 2464 3751 
Q 2216 4000 1806 4000 
Q 1625 4000 1316 3941 
L 1316 2178 
z
" transform="scale(0.015625)"/>
        <path id="TimesNewRomanPSMT-65" d="M 681 1784 
Q 678 1147 991 784 
Q 1303 422 1725 422 
Q 2006 422 2214 576 
Q 2422 731 2563 1106 
L 2659 1044 
Q 2594 616 2278 264 
Q 1963 -88 1488 -88 
Q 972 -88 605 314 
Q 238 716 238 1394 
Q 238 2128 614 2539 
Q 991 2950 1559 2950 
Q 2041 2950 2350 2633 
Q 2659 2316 2659 1784 
L 681 1784 
z
M 681 1966 
L 2006 1966 
Q 1991 2241 1941 2353 
Q 1863 2528 1708 2628 
Q 1553 2728 1384 2728 
Q 1125 2728 920 2526 
Q 716 2325 681 1966 
z
" transform="scale(0.015625)"/>
       </defs>
       <use xlink:href="#TimesNewRomanPSMT-56"/>
       <use xlink:href="#TimesNewRomanPSMT-61" transform="translate(61.091797 0)"/>
       <use xlink:href="#TimesNewRomanPSMT-63" transform="translate(105.476562 0)"/>
       <use xlink:href="#TimesNewRomanPSMT-63" transform="translate(149.861328 0)"/>
       <use xlink:href="#TimesNewRomanPSMT-69" transform="translate(194.246094 0)"/>
       <use xlink:href="#TimesNewRomanPSMT-6e" transform="translate(222.029297 0)"/>
       <use xlink:href="#TimesNewRomanPSMT-61" transform="translate(272.029297 0)"/>
       <use xlink:href="#TimesNewRomanPSMT-74" transform="translate(316.414062 0)"/>
       <use xlink:href="#TimesNewRomanPSMT-69" transform="translate(344.197266 0)"/>
       <use xlink:href="#TimesNewRomanPSMT-6f" transform="translate(371.980469 0)"/>
       <use xlink:href="#TimesNewRomanPSMT-6e" transform="translate(421.980469 0)"/>
       <use xlink:href="#TimesNewRomanPSMT-20" transform="translate(471.980469 0)"/>
       <use xlink:href="#TimesNewRomanPSMT-52" transform="translate(496.980469 0)"/>
       <use xlink:href="#TimesNewRomanPSMT-61" transform="translate(563.679688 0)"/>
       <use xlink:href="#TimesNewRomanPSMT-74" transform="translate(608.064453 0)"/>
       <use xlink:href="#TimesNewRomanPSMT-65" transform="translate(635.847656 0)"/>
      </g>
     </g>
    </g>
    <g id="xtick_2">
     <g id="line2d_2">
      <path d="M 528.82691 359.7275 
L 768.889152 221.1275 
" clip-path="url(#p01f545f8a0)" style="fill: none; stroke: #b0b0b0; stroke-width: 0.8; stroke-linecap: square"/>
     </g>
     <g id="text_2">
      <!-- Electronic Medical Record Adoption Rate -->
      <g transform="translate(781.013508 218.451719) scale(0.18 -0.18)">
       <defs>
        <path id="TimesNewRomanPSMT-45" d="M 1338 4006 
L 1338 2331 
L 2269 2331 
Q 2631 2331 2753 2441 
Q 2916 2584 2934 2947 
L 3050 2947 
L 3050 1472 
L 2934 1472 
Q 2891 1781 2847 1869 
Q 2791 1978 2662 2040 
Q 2534 2103 2269 2103 
L 1338 2103 
L 1338 706 
Q 1338 425 1363 364 
Q 1388 303 1450 267 
Q 1513 231 1688 231 
L 2406 231 
Q 2766 231 2928 281 
Q 3091 331 3241 478 
Q 3434 672 3638 1063 
L 3763 1063 
L 3397 0 
L 131 0 
L 131 116 
L 281 116 
Q 431 116 566 188 
Q 666 238 702 338 
Q 738 438 738 747 
L 738 3500 
Q 738 3903 656 3997 
Q 544 4122 281 4122 
L 131 4122 
L 131 4238 
L 3397 4238 
L 3444 3309 
L 3322 3309 
Q 3256 3644 3176 3769 
Q 3097 3894 2941 3959 
Q 2816 4006 2500 4006 
L 1338 4006 
z
" transform="scale(0.015625)"/>
        <path id="TimesNewRomanPSMT-6c" d="M 1184 4444 
L 1184 647 
Q 1184 378 1223 290 
Q 1263 203 1344 158 
Q 1425 113 1647 113 
L 1647 0 
L 244 0 
L 244 113 
Q 441 113 512 153 
Q 584 194 625 287 
Q 666 381 666 647 
L 666 3247 
Q 666 3731 644 3842 
Q 622 3953 573 3993 
Q 525 4034 450 4034 
Q 369 4034 244 3984 
L 191 4094 
L 1044 4444 
L 1184 4444 
z
" transform="scale(0.015625)"/>
        <path id="TimesNewRomanPSMT-72" d="M 1038 2947 
L 1038 2303 
Q 1397 2947 1775 2947 
Q 1947 2947 2059 2842 
Q 2172 2738 2172 2600 
Q 2172 2478 2090 2393 
Q 2009 2309 1897 2309 
Q 1788 2309 1652 2417 
Q 1516 2525 1450 2525 
Q 1394 2525 1328 2463 
Q 1188 2334 1038 2041 
L 1038 669 
Q 1038 431 1097 309 
Q 1138 225 1241 169 
Q 1344 113 1538 113 
L 1538 0 
L 72 0 
L 72 113 
Q 291 113 397 181 
Q 475 231 506 341 
Q 522 394 522 644 
L 522 1753 
Q 522 2253 501 2348 
Q 481 2444 426 2487 
Q 372 2531 291 2531 
Q 194 2531 72 2484 
L 41 2597 
L 906 2947 
L 1038 2947 
z
" transform="scale(0.015625)"/>
        <path id="TimesNewRomanPSMT-4d" d="M 2619 0 
L 981 3566 
L 981 734 
Q 981 344 1066 247 
Q 1181 116 1431 116 
L 1581 116 
L 1581 0 
L 106 0 
L 106 116 
L 256 116 
Q 525 116 638 278 
Q 706 378 706 734 
L 706 3503 
Q 706 3784 644 3909 
Q 600 4000 483 4061 
Q 366 4122 106 4122 
L 106 4238 
L 1306 4238 
L 2844 922 
L 4356 4238 
L 5556 4238 
L 5556 4122 
L 5409 4122 
Q 5138 4122 5025 3959 
Q 4956 3859 4956 3503 
L 4956 734 
Q 4956 344 5044 247 
Q 5159 116 5409 116 
L 5556 116 
L 5556 0 
L 3756 0 
L 3756 116 
L 3906 116 
Q 4178 116 4288 278 
Q 4356 378 4356 734 
L 4356 3566 
L 2722 0 
L 2619 0 
z
" transform="scale(0.015625)"/>
        <path id="TimesNewRomanPSMT-64" d="M 2222 322 
Q 2013 103 1813 7 
Q 1613 -88 1381 -88 
Q 913 -88 563 304 
Q 213 697 213 1313 
Q 213 1928 600 2439 
Q 988 2950 1597 2950 
Q 1975 2950 2222 2709 
L 2222 3238 
Q 2222 3728 2198 3840 
Q 2175 3953 2125 3993 
Q 2075 4034 2000 4034 
Q 1919 4034 1784 3984 
L 1744 4094 
L 2597 4444 
L 2738 4444 
L 2738 1134 
Q 2738 631 2761 520 
Q 2784 409 2836 365 
Q 2888 322 2956 322 
Q 3041 322 3181 375 
L 3216 266 
L 2366 -88 
L 2222 -88 
L 2222 322 
z
M 2222 541 
L 2222 2016 
Q 2203 2228 2109 2403 
Q 2016 2578 1861 2667 
Q 1706 2756 1559 2756 
Q 1284 2756 1069 2509 
Q 784 2184 784 1559 
Q 784 928 1059 592 
Q 1334 256 1672 256 
Q 1956 256 2222 541 
z
" transform="scale(0.015625)"/>
        <path id="TimesNewRomanPSMT-41" d="M 2928 1419 
L 1288 1419 
L 1000 750 
Q 894 503 894 381 
Q 894 284 986 211 
Q 1078 138 1384 116 
L 1384 0 
L 50 0 
L 50 116 
Q 316 163 394 238 
Q 553 388 747 847 
L 2238 4334 
L 2347 4334 
L 3822 809 
Q 4000 384 4145 257 
Q 4291 131 4550 116 
L 4550 0 
L 2878 0 
L 2878 116 
Q 3131 128 3220 200 
Q 3309 272 3309 375 
Q 3309 513 3184 809 
L 2928 1419 
z
M 2841 1650 
L 2122 3363 
L 1384 1650 
L 2841 1650 
z
" transform="scale(0.015625)"/>
        <path id="TimesNewRomanPSMT-70" d="M -6 2578 
L 875 2934 
L 994 2934 
L 994 2266 
Q 1216 2644 1439 2795 
Q 1663 2947 1909 2947 
Q 2341 2947 2628 2609 
Q 2981 2197 2981 1534 
Q 2981 794 2556 309 
Q 2206 -88 1675 -88 
Q 1444 -88 1275 -22 
Q 1150 25 994 166 
L 994 -706 
Q 994 -1000 1030 -1079 
Q 1066 -1159 1155 -1206 
Q 1244 -1253 1478 -1253 
L 1478 -1369 
L -22 -1369 
L -22 -1253 
L 56 -1253 
Q 228 -1256 350 -1188 
Q 409 -1153 442 -1076 
Q 475 -1000 475 -688 
L 475 2019 
Q 475 2297 450 2372 
Q 425 2447 370 2484 
Q 316 2522 222 2522 
Q 147 2522 31 2478 
L -6 2578 
z
M 994 2081 
L 994 1013 
Q 994 666 1022 556 
Q 1066 375 1236 237 
Q 1406 100 1666 100 
Q 1978 100 2172 344 
Q 2425 663 2425 1241 
Q 2425 1897 2138 2250 
Q 1938 2494 1663 2494 
Q 1513 2494 1366 2419 
Q 1253 2363 994 2081 
z
" transform="scale(0.015625)"/>
       </defs>
       <use xlink:href="#TimesNewRomanPSMT-45"/>
       <use xlink:href="#TimesNewRomanPSMT-6c" transform="translate(61.083984 0)"/>
       <use xlink:href="#TimesNewRomanPSMT-65" transform="translate(88.867188 0)"/>
       <use xlink:href="#TimesNewRomanPSMT-63" transform="translate(133.251953 0)"/>
       <use xlink:href="#TimesNewRomanPSMT-74" transform="translate(177.636719 0)"/>
       <use xlink:href="#TimesNewRomanPSMT-72" transform="translate(205.419922 0)"/>
       <use xlink:href="#TimesNewRomanPSMT-6f" transform="translate(238.720703 0)"/>
       <use xlink:href="#TimesNewRomanPSMT-6e" transform="translate(288.720703 0)"/>
       <use xlink:href="#TimesNewRomanPSMT-69" transform="translate(338.720703 0)"/>
       <use xlink:href="#TimesNewRomanPSMT-63" transform="translate(366.503906 0)"/>
       <use xlink:href="#TimesNewRomanPSMT-20" transform="translate(410.888672 0)"/>
       <use xlink:href="#TimesNewRomanPSMT-4d" transform="translate(435.888672 0)"/>
       <use xlink:href="#TimesNewRomanPSMT-65" transform="translate(524.804688 0)"/>
       <use xlink:href="#TimesNewRomanPSMT-64" transform="translate(569.189453 0)"/>
       <use xlink:href="#TimesNewRomanPSMT-69" transform="translate(619.189453 0)"/>
       <use xlink:href="#TimesNewRomanPSMT-63" transform="translate(646.972656 0)"/>
       <use xlink:href="#TimesNewRomanPSMT-61" transform="translate(691.357422 0)"/>
       <use xlink:href="#TimesNewRomanPSMT-6c" transform="translate(735.742188 0)"/>
       <use xlink:href="#TimesNewRomanPSMT-20" transform="translate(763.525391 0)"/>
       <use xlink:href="#TimesNewRomanPSMT-52" transform="translate(788.525391 0)"/>
       <use xlink:href="#TimesNewRomanPSMT-65" transform="translate(855.224609 0)"/>
       <use xlink:href="#TimesNewRomanPSMT-63" transform="translate(899.609375 0)"/>
       <use xlink:href="#TimesNewRomanPSMT-6f" transform="translate(943.994141 0)"/>
       <use xlink:href="#TimesNewRomanPSMT-72" transform="translate(993.994141 0)"/>
       <use xlink:href="#TimesNewRomanPSMT-64" transform="translate(1027.294922 0)"/>
       <use xlink:href="#TimesNewRomanPSMT-20" transform="translate(1077.294922 0)"/>
       <use xlink:href="#TimesNewRomanPSMT-41" transform="translate(1096.794922 0)"/>
       <use xlink:href="#TimesNewRomanPSMT-64" transform="translate(1169.011719 0)"/>
       <use xlink:href="#TimesNewRomanPSMT-6f" transform="translate(1219.011719 0)"/>
       <use xlink:href="#TimesNewRomanPSMT-70" transform="translate(1269.011719 0)"/>
       <use xlink:href="#TimesNewRomanPSMT-74" transform="translate(1319.011719 0)"/>
       <use xlink:href="#TimesNewRomanPSMT-69" transform="translate(1346.794922 0)"/>
       <use xlink:href="#TimesNewRomanPSMT-6f" transform="translate(1374.578125 0)"/>
       <use xlink:href="#TimesNewRomanPSMT-6e" transform="translate(1424.578125 0)"/>
       <use xlink:href="#TimesNewRomanPSMT-20" transform="translate(1474.578125 0)"/>
       <use xlink:href="#TimesNewRomanPSMT-52" transform="translate(1499.578125 0)"/>
       <use xlink:href="#TimesNewRomanPSMT-61" transform="translate(1566.277344 0)"/>
       <use xlink:href="#TimesNewRomanPSMT-74" transform="translate(1610.662109 0)"/>
       <use xlink:href="#TimesNewRomanPSMT-65" transform="translate(1638.445312 0)"/>
      </g>
     </g>
    </g>
    <g id="xtick_3">
     <g id="line2d_3">
      <path d="M 528.82691 359.7275 
L 768.889152 498.3275 
" clip-path="url(#p01f545f8a0)" style="fill: none; stroke: #b0b0b0; stroke-width: 0.8; stroke-linecap: square"/>
     </g>
     <g id="text_3">
      <!-- Chronic Disease Management Compliance Rate -->
      <g transform="translate(781.013508 509.634844) scale(0.18 -0.18)">
       <defs>
        <path id="TimesNewRomanPSMT-43" d="M 3853 4334 
L 3950 2894 
L 3853 2894 
Q 3659 3541 3300 3825 
Q 2941 4109 2438 4109 
Q 2016 4109 1675 3895 
Q 1334 3681 1139 3212 
Q 944 2744 944 2047 
Q 944 1472 1128 1050 
Q 1313 628 1683 403 
Q 2053 178 2528 178 
Q 2941 178 3256 354 
Q 3572 531 3950 1056 
L 4047 994 
Q 3728 428 3303 165 
Q 2878 -97 2294 -97 
Q 1241 -97 663 684 
Q 231 1266 231 2053 
Q 231 2688 515 3219 
Q 800 3750 1298 4042 
Q 1797 4334 2388 4334 
Q 2847 4334 3294 4109 
Q 3425 4041 3481 4041 
Q 3566 4041 3628 4100 
Q 3709 4184 3744 4334 
L 3853 4334 
z
" transform="scale(0.015625)"/>
        <path id="TimesNewRomanPSMT-68" d="M 1041 4444 
L 1041 2350 
Q 1388 2731 1591 2839 
Q 1794 2947 1997 2947 
Q 2241 2947 2416 2812 
Q 2591 2678 2675 2391 
Q 2734 2191 2734 1659 
L 2734 647 
Q 2734 375 2778 275 
Q 2809 200 2884 156 
Q 2959 113 3159 113 
L 3159 0 
L 1753 0 
L 1753 113 
L 1819 113 
Q 2019 113 2097 173 
Q 2175 234 2206 353 
Q 2216 403 2216 647 
L 2216 1659 
Q 2216 2128 2167 2275 
Q 2119 2422 2012 2495 
Q 1906 2569 1756 2569 
Q 1603 2569 1437 2487 
Q 1272 2406 1041 2159 
L 1041 647 
Q 1041 353 1073 281 
Q 1106 209 1195 161 
Q 1284 113 1503 113 
L 1503 0 
L 84 0 
L 84 113 
Q 275 113 384 172 
Q 447 203 484 290 
Q 522 378 522 647 
L 522 3238 
Q 522 3728 498 3840 
Q 475 3953 426 3993 
Q 378 4034 297 4034 
Q 231 4034 84 3984 
L 41 4094 
L 897 4444 
L 1041 4444 
z
" transform="scale(0.015625)"/>
        <path id="TimesNewRomanPSMT-44" d="M 109 0 
L 109 116 
L 269 116 
Q 538 116 650 288 
Q 719 391 719 750 
L 719 3488 
Q 719 3884 631 3984 
Q 509 4122 269 4122 
L 109 4122 
L 109 4238 
L 1834 4238 
Q 2784 4238 3279 4022 
Q 3775 3806 4076 3303 
Q 4378 2800 4378 2141 
Q 4378 1256 3841 663 
Q 3238 0 2003 0 
L 109 0 
z
M 1319 306 
Q 1716 219 1984 219 
Q 2709 219 3187 728 
Q 3666 1238 3666 2109 
Q 3666 2988 3187 3494 
Q 2709 4000 1959 4000 
Q 1678 4000 1319 3909 
L 1319 306 
z
" transform="scale(0.015625)"/>
        <path id="TimesNewRomanPSMT-73" d="M 2050 2947 
L 2050 1972 
L 1947 1972 
Q 1828 2431 1642 2597 
Q 1456 2763 1169 2763 
Q 950 2763 815 2647 
Q 681 2531 681 2391 
Q 681 2216 781 2091 
Q 878 1963 1175 1819 
L 1631 1597 
Q 2266 1288 2266 781 
Q 2266 391 1970 151 
Q 1675 -88 1309 -88 
Q 1047 -88 709 6 
Q 606 38 541 38 
Q 469 38 428 -44 
L 325 -44 
L 325 978 
L 428 978 
Q 516 541 762 319 
Q 1009 97 1316 97 
Q 1531 97 1667 223 
Q 1803 350 1803 528 
Q 1803 744 1651 891 
Q 1500 1038 1047 1263 
Q 594 1488 453 1669 
Q 313 1847 313 2119 
Q 313 2472 555 2709 
Q 797 2947 1181 2947 
Q 1350 2947 1591 2875 
Q 1750 2828 1803 2828 
Q 1853 2828 1881 2850 
Q 1909 2872 1947 2947 
L 2050 2947 
z
" transform="scale(0.015625)"/>
        <path id="TimesNewRomanPSMT-67" d="M 966 1044 
Q 703 1172 562 1401 
Q 422 1631 422 1909 
Q 422 2334 742 2640 
Q 1063 2947 1563 2947 
Q 1972 2947 2272 2747 
L 2878 2747 
Q 3013 2747 3034 2739 
Q 3056 2731 3066 2713 
Q 3084 2684 3084 2613 
Q 3084 2531 3069 2500 
Q 3059 2484 3036 2475 
Q 3013 2466 2878 2466 
L 2506 2466 
Q 2681 2241 2681 1891 
Q 2681 1491 2375 1206 
Q 2069 922 1553 922 
Q 1341 922 1119 984 
Q 981 866 932 777 
Q 884 688 884 625 
Q 884 572 936 522 
Q 988 472 1138 450 
Q 1225 438 1575 428 
Q 2219 413 2409 384 
Q 2700 344 2873 169 
Q 3047 -6 3047 -263 
Q 3047 -616 2716 -925 
Q 2228 -1381 1444 -1381 
Q 841 -1381 425 -1109 
Q 191 -953 191 -784 
Q 191 -709 225 -634 
Q 278 -519 444 -313 
Q 466 -284 763 25 
Q 600 122 533 198 
Q 466 275 466 372 
Q 466 481 555 628 
Q 644 775 966 1044 
z
M 1509 2797 
Q 1278 2797 1122 2612 
Q 966 2428 966 2047 
Q 966 1553 1178 1281 
Q 1341 1075 1591 1075 
Q 1828 1075 1981 1253 
Q 2134 1431 2134 1813 
Q 2134 2309 1919 2591 
Q 1759 2797 1509 2797 
z
M 934 0 
Q 788 -159 713 -296 
Q 638 -434 638 -550 
Q 638 -700 819 -813 
Q 1131 -1006 1722 -1006 
Q 2284 -1006 2551 -807 
Q 2819 -609 2819 -384 
Q 2819 -222 2659 -153 
Q 2497 -84 2016 -72 
Q 1313 -53 934 0 
z
" transform="scale(0.015625)"/>
        <path id="TimesNewRomanPSMT-6d" d="M 1050 2338 
Q 1363 2650 1419 2697 
Q 1559 2816 1721 2881 
Q 1884 2947 2044 2947 
Q 2313 2947 2506 2790 
Q 2700 2634 2766 2338 
Q 3088 2713 3309 2830 
Q 3531 2947 3766 2947 
Q 3994 2947 4170 2830 
Q 4347 2713 4450 2447 
Q 4519 2266 4519 1878 
L 4519 647 
Q 4519 378 4559 278 
Q 4591 209 4675 161 
Q 4759 113 4950 113 
L 4950 0 
L 3538 0 
L 3538 113 
L 3597 113 
Q 3781 113 3884 184 
Q 3956 234 3988 344 
Q 4000 397 4000 647 
L 4000 1878 
Q 4000 2228 3916 2372 
Q 3794 2572 3525 2572 
Q 3359 2572 3192 2489 
Q 3025 2406 2788 2181 
L 2781 2147 
L 2788 2013 
L 2788 647 
Q 2788 353 2820 281 
Q 2853 209 2943 161 
Q 3034 113 3253 113 
L 3253 0 
L 1806 0 
L 1806 113 
Q 2044 113 2133 169 
Q 2222 225 2256 338 
Q 2272 391 2272 647 
L 2272 1878 
Q 2272 2228 2169 2381 
Q 2031 2581 1784 2581 
Q 1616 2581 1450 2491 
Q 1191 2353 1050 2181 
L 1050 647 
Q 1050 366 1089 281 
Q 1128 197 1204 155 
Q 1281 113 1516 113 
L 1516 0 
L 100 0 
L 100 113 
Q 297 113 375 155 
Q 453 197 493 289 
Q 534 381 534 647 
L 534 1741 
Q 534 2213 506 2350 
Q 484 2453 437 2492 
Q 391 2531 309 2531 
Q 222 2531 100 2484 
L 53 2597 
L 916 2947 
L 1050 2947 
L 1050 2338 
z
" transform="scale(0.015625)"/>
       </defs>
       <use xlink:href="#TimesNewRomanPSMT-43"/>
       <use xlink:href="#TimesNewRomanPSMT-68" transform="translate(66.699219 0)"/>
       <use xlink:href="#TimesNewRomanPSMT-72" transform="translate(116.699219 0)"/>
       <use xlink:href="#TimesNewRomanPSMT-6f" transform="translate(150 0)"/>
       <use xlink:href="#TimesNewRomanPSMT-6e" transform="translate(200 0)"/>
       <use xlink:href="#TimesNewRomanPSMT-69" transform="translate(250 0)"/>
       <use xlink:href="#TimesNewRomanPSMT-63" transform="translate(277.783203 0)"/>
       <use xlink:href="#TimesNewRomanPSMT-20" transform="translate(322.167969 0)"/>
       <use xlink:href="#TimesNewRomanPSMT-44" transform="translate(347.167969 0)"/>
       <use xlink:href="#TimesNewRomanPSMT-69" transform="translate(419.384766 0)"/>
       <use xlink:href="#TimesNewRomanPSMT-73" transform="translate(447.167969 0)"/>
       <use xlink:href="#TimesNewRomanPSMT-65" transform="translate(486.083984 0)"/>
       <use xlink:href="#TimesNewRomanPSMT-61" transform="translate(530.46875 0)"/>
       <use xlink:href="#TimesNewRomanPSMT-73" transform="translate(574.853516 0)"/>
       <use xlink:href="#TimesNewRomanPSMT-65" transform="translate(613.769531 0)"/>
       <use xlink:href="#TimesNewRomanPSMT-20" transform="translate(658.154297 0)"/>
       <use xlink:href="#TimesNewRomanPSMT-4d" transform="translate(683.154297 0)"/>
       <use xlink:href="#TimesNewRomanPSMT-61" transform="translate(772.070312 0)"/>
       <use xlink:href="#TimesNewRomanPSMT-6e" transform="translate(816.455078 0)"/>
       <use xlink:href="#TimesNewRomanPSMT-61" transform="translate(866.455078 0)"/>
       <use xlink:href="#TimesNewRomanPSMT-67" transform="translate(910.839844 0)"/>
       <use xlink:href="#TimesNewRomanPSMT-65" transform="translate(960.839844 0)"/>
       <use xlink:href="#TimesNewRomanPSMT-6d" transform="translate(1005.224609 0)"/>
       <use xlink:href="#TimesNewRomanPSMT-65" transform="translate(1083.007812 0)"/>
       <use xlink:href="#TimesNewRomanPSMT-6e" transform="translate(1127.392578 0)"/>
       <use xlink:href="#TimesNewRomanPSMT-74" transform="translate(1177.392578 0)"/>
       <use xlink:href="#TimesNewRomanPSMT-20" transform="translate(1205.175781 0)"/>
       <use xlink:href="#TimesNewRomanPSMT-43" transform="translate(1230.175781 0)"/>
       <use xlink:href="#TimesNewRomanPSMT-6f" transform="translate(1296.875 0)"/>
       <use xlink:href="#TimesNewRomanPSMT-6d" transform="translate(1346.875 0)"/>
       <use xlink:href="#TimesNewRomanPSMT-70" transform="translate(1424.658203 0)"/>
       <use xlink:href="#TimesNewRomanPSMT-6c" transform="translate(1474.658203 0)"/>
       <use xlink:href="#TimesNewRomanPSMT-69" transform="translate(1502.441406 0)"/>
       <use xlink:href="#TimesNewRomanPSMT-61" transform="translate(1530.224609 0)"/>
       <use xlink:href="#TimesNewRomanPSMT-6e" transform="translate(1574.609375 0)"/>
       <use xlink:href="#TimesNewRomanPSMT-63" transform="translate(1624.609375 0)"/>
       <use xlink:href="#TimesNewRomanPSMT-65" transform="translate(1668.994141 0)"/>
       <use xlink:href="#TimesNewRomanPSMT-20" transform="translate(1713.378906 0)"/>
       <use xlink:href="#TimesNewRomanPSMT-52" transform="translate(1738.378906 0)"/>
       <use xlink:href="#TimesNewRomanPSMT-61" transform="translate(1805.078125 0)"/>
       <use xlink:href="#TimesNewRomanPSMT-74" transform="translate(1849.462891 0)"/>
       <use xlink:href="#TimesNewRomanPSMT-65" transform="translate(1877.246094 0)"/>
      </g>
     </g>
    </g>
    <g id="xtick_4">
     <g id="line2d_4">
      <path d="M 528.82691 359.7275 
L 528.82691 636.9275 
" clip-path="url(#p01f545f8a0)" style="fill: none; stroke: #b0b0b0; stroke-width: 0.8; stroke-linecap: square"/>
     </g>
     <g id="text_4">
      <!-- Hospital Bed Utilization Rate -->
      <g transform="translate(422.093941 655.251719) scale(0.18 -0.18)">
       <defs>
        <path id="TimesNewRomanPSMT-48" d="M 1316 2272 
L 3284 2272 
L 3284 3484 
Q 3284 3809 3244 3913 
Q 3213 3991 3113 4047 
Q 2978 4122 2828 4122 
L 2678 4122 
L 2678 4238 
L 4491 4238 
L 4491 4122 
L 4341 4122 
Q 4191 4122 4056 4050 
Q 3956 4000 3920 3898 
Q 3884 3797 3884 3484 
L 3884 750 
Q 3884 428 3925 325 
Q 3956 247 4053 191 
Q 4191 116 4341 116 
L 4491 116 
L 4491 0 
L 2678 0 
L 2678 116 
L 2828 116 
Q 3088 116 3206 269 
Q 3284 369 3284 750 
L 3284 2041 
L 1316 2041 
L 1316 750 
Q 1316 428 1356 325 
Q 1388 247 1488 191 
Q 1622 116 1772 116 
L 1925 116 
L 1925 0 
L 109 0 
L 109 116 
L 259 116 
Q 522 116 641 269 
Q 716 369 716 750 
L 716 3484 
Q 716 3809 675 3913 
Q 644 3991 547 4047 
Q 409 4122 259 4122 
L 109 4122 
L 109 4238 
L 1925 4238 
L 1925 4122 
L 1772 4122 
Q 1622 4122 1488 4050 
Q 1391 4000 1353 3898 
Q 1316 3797 1316 3484 
L 1316 2272 
z
" transform="scale(0.015625)"/>
        <path id="TimesNewRomanPSMT-42" d="M 2956 2163 
Q 3397 2069 3616 1863 
Q 3919 1575 3919 1159 
Q 3919 844 3719 555 
Q 3519 266 3170 133 
Q 2822 0 2106 0 
L 106 0 
L 106 116 
L 266 116 
Q 531 116 647 284 
Q 719 394 719 750 
L 719 3488 
Q 719 3881 628 3984 
Q 506 4122 266 4122 
L 106 4122 
L 106 4238 
L 1938 4238 
Q 2450 4238 2759 4163 
Q 3228 4050 3475 3764 
Q 3722 3478 3722 3106 
Q 3722 2788 3528 2536 
Q 3334 2284 2956 2163 
z
M 1319 2331 
Q 1434 2309 1582 2298 
Q 1731 2288 1909 2288 
Q 2366 2288 2595 2386 
Q 2825 2484 2947 2687 
Q 3069 2891 3069 3131 
Q 3069 3503 2766 3765 
Q 2463 4028 1881 4028 
Q 1569 4028 1319 3959 
L 1319 2331 
z
M 1319 306 
Q 1681 222 2034 222 
Q 2600 222 2897 476 
Q 3194 731 3194 1106 
Q 3194 1353 3059 1581 
Q 2925 1809 2622 1940 
Q 2319 2072 1872 2072 
Q 1678 2072 1540 2065 
Q 1403 2059 1319 2044 
L 1319 306 
z
" transform="scale(0.015625)"/>
        <path id="TimesNewRomanPSMT-55" d="M 3053 4122 
L 3053 4238 
L 4553 4238 
L 4553 4122 
L 4394 4122 
Q 4144 4122 4009 3913 
Q 3944 3816 3944 3463 
L 3944 1744 
Q 3944 1106 3817 754 
Q 3691 403 3320 151 
Q 2950 -100 2313 -100 
Q 1619 -100 1259 140 
Q 900 381 750 788 
Q 650 1066 650 1831 
L 650 3488 
Q 650 3878 542 4000 
Q 434 4122 194 4122 
L 34 4122 
L 34 4238 
L 1866 4238 
L 1866 4122 
L 1703 4122 
Q 1441 4122 1328 3956 
Q 1250 3844 1250 3488 
L 1250 1641 
Q 1250 1394 1295 1075 
Q 1341 756 1459 578 
Q 1578 400 1801 284 
Q 2025 169 2350 169 
Q 2766 169 3094 350 
Q 3422 531 3542 814 
Q 3663 1097 3663 1772 
L 3663 3488 
Q 3663 3884 3575 3984 
Q 3453 4122 3213 4122 
L 3053 4122 
z
" transform="scale(0.015625)"/>
        <path id="TimesNewRomanPSMT-7a" d="M 2688 878 
L 2653 0 
L 128 0 
L 128 113 
L 2028 2644 
L 1091 2644 
Q 788 2644 694 2605 
Q 600 2566 541 2456 
Q 456 2300 444 2069 
L 319 2069 
L 338 2863 
L 2738 2863 
L 2738 2747 
L 819 209 
L 1863 209 
Q 2191 209 2308 264 
Q 2425 319 2497 456 
Q 2547 556 2581 878 
L 2688 878 
z
" transform="scale(0.015625)"/>
       </defs>
       <use xlink:href="#TimesNewRomanPSMT-48"/>
       <use xlink:href="#TimesNewRomanPSMT-6f" transform="translate(72.216797 0)"/>
       <use xlink:href="#TimesNewRomanPSMT-73" transform="translate(122.216797 0)"/>
       <use xlink:href="#TimesNewRomanPSMT-70" transform="translate(161.132812 0)"/>
       <use xlink:href="#TimesNewRomanPSMT-69" transform="translate(211.132812 0)"/>
       <use xlink:href="#TimesNewRomanPSMT-74" transform="translate(238.916016 0)"/>
       <use xlink:href="#TimesNewRomanPSMT-61" transform="translate(266.699219 0)"/>
       <use xlink:href="#TimesNewRomanPSMT-6c" transform="translate(311.083984 0)"/>
       <use xlink:href="#TimesNewRomanPSMT-20" transform="translate(338.867188 0)"/>
       <use xlink:href="#TimesNewRomanPSMT-42" transform="translate(363.867188 0)"/>
       <use xlink:href="#TimesNewRomanPSMT-65" transform="translate(430.566406 0)"/>
       <use xlink:href="#TimesNewRomanPSMT-64" transform="translate(474.951172 0)"/>
       <use xlink:href="#TimesNewRomanPSMT-20" transform="translate(524.951172 0)"/>
       <use xlink:href="#TimesNewRomanPSMT-55" transform="translate(549.951172 0)"/>
       <use xlink:href="#TimesNewRomanPSMT-74" transform="translate(622.167969 0)"/>
       <use xlink:href="#TimesNewRomanPSMT-69" transform="translate(649.951172 0)"/>
       <use xlink:href="#TimesNewRomanPSMT-6c" transform="translate(677.734375 0)"/>
       <use xlink:href="#TimesNewRomanPSMT-69" transform="translate(705.517578 0)"/>
       <use xlink:href="#TimesNewRomanPSMT-7a" transform="translate(733.300781 0)"/>
       <use xlink:href="#TimesNewRomanPSMT-61" transform="translate(777.685547 0)"/>
       <use xlink:href="#TimesNewRomanPSMT-74" transform="translate(822.070312 0)"/>
       <use xlink:href="#TimesNewRomanPSMT-69" transform="translate(849.853516 0)"/>
       <use xlink:href="#TimesNewRomanPSMT-6f" transform="translate(877.636719 0)"/>
       <use xlink:href="#TimesNewRomanPSMT-6e" transform="translate(927.636719 0)"/>
       <use xlink:href="#TimesNewRomanPSMT-20" transform="translate(977.636719 0)"/>
       <use xlink:href="#TimesNewRomanPSMT-52" transform="translate(1002.636719 0)"/>
       <use xlink:href="#TimesNewRomanPSMT-61" transform="translate(1069.335938 0)"/>
       <use xlink:href="#TimesNewRomanPSMT-74" transform="translate(1113.720703 0)"/>
       <use xlink:href="#TimesNewRomanPSMT-65" transform="translate(1141.503906 0)"/>
      </g>
     </g>
    </g>
    <g id="xtick_5">
     <g id="line2d_5">
      <path d="M 528.82691 359.7275 
L 288.764668 498.3275 
" clip-path="url(#p01f545f8a0)" style="fill: none; stroke: #b0b0b0; stroke-width: 0.8; stroke-linecap: square"/>
     </g>
     <g id="text_5">
      <!-- Disease Incidence Rate -->
      <g transform="translate(108.714375 509.651719) scale(0.18 -0.18)">
       <defs>
        <path id="TimesNewRomanPSMT-49" d="M 1975 116 
L 1975 0 
L 159 0 
L 159 116 
L 309 116 
Q 572 116 691 269 
Q 766 369 766 750 
L 766 3488 
Q 766 3809 725 3913 
Q 694 3991 597 4047 
Q 459 4122 309 4122 
L 159 4122 
L 159 4238 
L 1975 4238 
L 1975 4122 
L 1822 4122 
Q 1563 4122 1444 3969 
Q 1366 3869 1366 3488 
L 1366 750 
Q 1366 428 1406 325 
Q 1438 247 1538 191 
Q 1672 116 1822 116 
L 1975 116 
z
" transform="scale(0.015625)"/>
       </defs>
       <use xlink:href="#TimesNewRomanPSMT-44"/>
       <use xlink:href="#TimesNewRomanPSMT-69" transform="translate(72.216797 0)"/>
       <use xlink:href="#TimesNewRomanPSMT-73" transform="translate(100 0)"/>
       <use xlink:href="#TimesNewRomanPSMT-65" transform="translate(138.916016 0)"/>
       <use xlink:href="#TimesNewRomanPSMT-61" transform="translate(183.300781 0)"/>
       <use xlink:href="#TimesNewRomanPSMT-73" transform="translate(227.685547 0)"/>
       <use xlink:href="#TimesNewRomanPSMT-65" transform="translate(266.601562 0)"/>
       <use xlink:href="#TimesNewRomanPSMT-20" transform="translate(310.986328 0)"/>
       <use xlink:href="#TimesNewRomanPSMT-49" transform="translate(335.986328 0)"/>
       <use xlink:href="#TimesNewRomanPSMT-6e" transform="translate(369.287109 0)"/>
       <use xlink:href="#TimesNewRomanPSMT-63" transform="translate(419.287109 0)"/>
       <use xlink:href="#TimesNewRomanPSMT-69" transform="translate(463.671875 0)"/>
       <use xlink:href="#TimesNewRomanPSMT-64" transform="translate(491.455078 0)"/>
       <use xlink:href="#TimesNewRomanPSMT-65" transform="translate(541.455078 0)"/>
       <use xlink:href="#TimesNewRomanPSMT-6e" transform="translate(585.839844 0)"/>
       <use xlink:href="#TimesNewRomanPSMT-63" transform="translate(635.839844 0)"/>
       <use xlink:href="#TimesNewRomanPSMT-65" transform="translate(680.224609 0)"/>
       <use xlink:href="#TimesNewRomanPSMT-20" transform="translate(724.609375 0)"/>
       <use xlink:href="#TimesNewRomanPSMT-52" transform="translate(749.609375 0)"/>
       <use xlink:href="#TimesNewRomanPSMT-61" transform="translate(816.308594 0)"/>
       <use xlink:href="#TimesNewRomanPSMT-74" transform="translate(860.693359 0)"/>
       <use xlink:href="#TimesNewRomanPSMT-65" transform="translate(888.476562 0)"/>
      </g>
     </g>
    </g>
    <g id="xtick_6">
     <g id="line2d_6">
      <path d="M 528.82691 359.7275 
L 288.764668 221.1275 
" clip-path="url(#p01f545f8a0)" style="fill: none; stroke: #b0b0b0; stroke-width: 0.8; stroke-linecap: square"/>
     </g>
     <g id="text_6">
      <!-- Primary Healthcare Institutions Ratio -->
      <g transform="translate(7.2 218.434844) scale(0.18 -0.18)">
       <defs>
        <path id="TimesNewRomanPSMT-50" d="M 1313 1984 
L 1313 750 
Q 1313 350 1400 253 
Q 1519 116 1759 116 
L 1922 116 
L 1922 0 
L 106 0 
L 106 116 
L 266 116 
Q 534 116 650 291 
Q 713 388 713 750 
L 713 3488 
Q 713 3888 628 3984 
Q 506 4122 266 4122 
L 106 4122 
L 106 4238 
L 1659 4238 
Q 2228 4238 2556 4120 
Q 2884 4003 3109 3725 
Q 3334 3447 3334 3066 
Q 3334 2547 2992 2222 
Q 2650 1897 2025 1897 
Q 1872 1897 1694 1919 
Q 1516 1941 1313 1984 
z
M 1313 2163 
Q 1478 2131 1606 2115 
Q 1734 2100 1825 2100 
Q 2150 2100 2386 2351 
Q 2622 2603 2622 3003 
Q 2622 3278 2509 3514 
Q 2397 3750 2190 3867 
Q 1984 3984 1722 3984 
Q 1563 3984 1313 3925 
L 1313 2163 
z
" transform="scale(0.015625)"/>
        <path id="TimesNewRomanPSMT-79" d="M 38 2863 
L 1372 2863 
L 1372 2747 
L 1306 2747 
Q 1166 2747 1095 2686 
Q 1025 2625 1025 2534 
Q 1025 2413 1128 2197 
L 1825 753 
L 2466 2334 
Q 2519 2463 2519 2588 
Q 2519 2644 2497 2672 
Q 2472 2706 2419 2726 
Q 2366 2747 2231 2747 
L 2231 2863 
L 3163 2863 
L 3163 2747 
Q 3047 2734 2984 2696 
Q 2922 2659 2847 2556 
Q 2819 2513 2741 2316 
L 1575 -541 
Q 1406 -956 1132 -1168 
Q 859 -1381 606 -1381 
Q 422 -1381 303 -1275 
Q 184 -1169 184 -1031 
Q 184 -900 270 -820 
Q 356 -741 506 -741 
Q 609 -741 788 -809 
Q 913 -856 944 -856 
Q 1038 -856 1148 -759 
Q 1259 -663 1372 -384 
L 1575 113 
L 547 2272 
Q 500 2369 397 2513 
Q 319 2622 269 2659 
Q 197 2709 38 2747 
L 38 2863 
z
" transform="scale(0.015625)"/>
        <path id="TimesNewRomanPSMT-75" d="M 2709 2863 
L 2709 1128 
Q 2709 631 2732 520 
Q 2756 409 2807 365 
Q 2859 322 2928 322 
Q 3025 322 3147 375 
L 3191 266 
L 2334 -88 
L 2194 -88 
L 2194 519 
Q 1825 119 1631 15 
Q 1438 -88 1222 -88 
Q 981 -88 804 51 
Q 628 191 559 409 
Q 491 628 491 1028 
L 491 2306 
Q 491 2509 447 2587 
Q 403 2666 317 2708 
Q 231 2750 6 2747 
L 6 2863 
L 1009 2863 
L 1009 947 
Q 1009 547 1148 422 
Q 1288 297 1484 297 
Q 1619 297 1789 381 
Q 1959 466 2194 703 
L 2194 2325 
Q 2194 2569 2105 2655 
Q 2016 2741 1734 2747 
L 1734 2863 
L 2709 2863 
z
" transform="scale(0.015625)"/>
       </defs>
       <use xlink:href="#TimesNewRomanPSMT-50"/>
       <use xlink:href="#TimesNewRomanPSMT-72" transform="translate(55.615234 0)"/>
       <use xlink:href="#TimesNewRomanPSMT-69" transform="translate(88.916016 0)"/>
       <use xlink:href="#TimesNewRomanPSMT-6d" transform="translate(116.699219 0)"/>
       <use xlink:href="#TimesNewRomanPSMT-61" transform="translate(194.482422 0)"/>
       <use xlink:href="#TimesNewRomanPSMT-72" transform="translate(238.867188 0)"/>
       <use xlink:href="#TimesNewRomanPSMT-79" transform="translate(272.167969 0)"/>
       <use xlink:href="#TimesNewRomanPSMT-20" transform="translate(322.167969 0)"/>
       <use xlink:href="#TimesNewRomanPSMT-48" transform="translate(347.167969 0)"/>
       <use xlink:href="#TimesNewRomanPSMT-65" transform="translate(419.384766 0)"/>
       <use xlink:href="#TimesNewRomanPSMT-61" transform="translate(463.769531 0)"/>
       <use xlink:href="#TimesNewRomanPSMT-6c" transform="translate(508.154297 0)"/>
       <use xlink:href="#TimesNewRomanPSMT-74" transform="translate(535.9375 0)"/>
       <use xlink:href="#TimesNewRomanPSMT-68" transform="translate(563.720703 0)"/>
       <use xlink:href="#TimesNewRomanPSMT-63" transform="translate(613.720703 0)"/>
       <use xlink:href="#TimesNewRomanPSMT-61" transform="translate(658.105469 0)"/>
       <use xlink:href="#TimesNewRomanPSMT-72" transform="translate(702.490234 0)"/>
       <use xlink:href="#TimesNewRomanPSMT-65" transform="translate(735.791016 0)"/>
       <use xlink:href="#TimesNewRomanPSMT-20" transform="translate(780.175781 0)"/>
       <use xlink:href="#TimesNewRomanPSMT-49" transform="translate(805.175781 0)"/>
       <use xlink:href="#TimesNewRomanPSMT-6e" transform="translate(838.476562 0)"/>
       <use xlink:href="#TimesNewRomanPSMT-73" transform="translate(888.476562 0)"/>
       <use xlink:href="#TimesNewRomanPSMT-74" transform="translate(927.392578 0)"/>
       <use xlink:href="#TimesNewRomanPSMT-69" transform="translate(955.175781 0)"/>
       <use xlink:href="#TimesNewRomanPSMT-74" transform="translate(982.958984 0)"/>
       <use xlink:href="#TimesNewRomanPSMT-75" transform="translate(1010.742188 0)"/>
       <use xlink:href="#TimesNewRomanPSMT-74" transform="translate(1060.742188 0)"/>
       <use xlink:href="#TimesNewRomanPSMT-69" transform="translate(1088.525391 0)"/>
       <use xlink:href="#TimesNewRomanPSMT-6f" transform="translate(1116.308594 0)"/>
       <use xlink:href="#TimesNewRomanPSMT-6e" transform="translate(1166.308594 0)"/>
       <use xlink:href="#TimesNewRomanPSMT-73" transform="translate(1216.308594 0)"/>
       <use xlink:href="#TimesNewRomanPSMT-20" transform="translate(1255.224609 0)"/>
       <use xlink:href="#TimesNewRomanPSMT-52" transform="translate(1280.224609 0)"/>
       <use xlink:href="#TimesNewRomanPSMT-61" transform="translate(1346.923828 0)"/>
       <use xlink:href="#TimesNewRomanPSMT-74" transform="translate(1391.308594 0)"/>
       <use xlink:href="#TimesNewRomanPSMT-69" transform="translate(1419.091797 0)"/>
       <use xlink:href="#TimesNewRomanPSMT-6f" transform="translate(1446.875 0)"/>
      </g>
     </g>
    </g>
   </g>
   <g id="matplotlib.axis_2">
    <g id="ytick_1">
     <g id="line2d_7">
      <path d="M 528.82691 304.2875 
C 536.107224 304.2875 543.316746 305.721563 550.04288 308.507619 
C 556.769013 311.293674 562.880951 315.377541 568.02891 320.5255 
C 573.176869 325.67346 577.260736 331.785397 580.046791 338.511531 
C 582.832847 345.237664 584.26691 352.447186 584.26691 359.7275 
C 584.26691 367.007814 582.832847 374.217336 580.046791 380.943469 
C 577.260736 387.669603 573.176869 393.78154 568.02891 398.9295 
C 562.880951 404.077459 556.769013 408.161326 550.04288 410.947381 
C 543.316746 413.733437 536.107224 415.1675 528.82691 415.1675 
C 521.546596 415.1675 514.337074 413.733437 507.610941 410.947381 
C 500.884807 408.161326 494.77287 404.077459 489.62491 398.9295 
C 484.476951 393.78154 480.393084 387.669603 477.607029 380.943469 
C 474.820973 374.217336 473.38691 367.007814 473.38691 359.7275 
C 473.38691 352.447186 474.820973 345.237664 477.607029 338.511531 
C 480.393084 331.785397 484.476951 325.67346 489.62491 320.5255 
C 494.77287 315.377541 500.884807 311.293674 507.610941 308.507619 
C 514.337074 305.721563 521.546596 304.2875 528.82691 304.2875 
" clip-path="url(#p01f545f8a0)" style="fill: none; stroke: #b0b0b0; stroke-width: 0.8; stroke-linecap: square"/>
     </g>
     <g id="text_7">
      <!-- 20 -->
      <g style="fill: #808080" transform="translate(528.82691 302.148438) scale(0.1 -0.1)">
       <defs>
        <path id="TimesNewRomanPSMT-32" d="M 2934 816 
L 2638 0 
L 138 0 
L 138 116 
Q 1241 1122 1691 1759 
Q 2141 2397 2141 2925 
Q 2141 3328 1894 3587 
Q 1647 3847 1303 3847 
Q 991 3847 742 3664 
Q 494 3481 375 3128 
L 259 3128 
Q 338 3706 661 4015 
Q 984 4325 1469 4325 
Q 1984 4325 2329 3994 
Q 2675 3663 2675 3213 
Q 2675 2891 2525 2569 
Q 2294 2063 1775 1497 
Q 997 647 803 472 
L 1909 472 
Q 2247 472 2383 497 
Q 2519 522 2628 598 
Q 2738 675 2819 816 
L 2934 816 
z
" transform="scale(0.015625)"/>
        <path id="TimesNewRomanPSMT-30" d="M 231 2094 
Q 231 2819 450 3342 
Q 669 3866 1031 4122 
Q 1313 4325 1613 4325 
Q 2100 4325 2488 3828 
Q 2972 3213 2972 2159 
Q 2972 1422 2759 906 
Q 2547 391 2217 158 
Q 1888 -75 1581 -75 
Q 975 -75 572 641 
Q 231 1244 231 2094 
z
M 844 2016 
Q 844 1141 1059 588 
Q 1238 122 1591 122 
Q 1759 122 1940 273 
Q 2122 425 2216 781 
Q 2359 1319 2359 2297 
Q 2359 3022 2209 3506 
Q 2097 3866 1919 4016 
Q 1791 4119 1609 4119 
Q 1397 4119 1231 3928 
Q 1006 3669 925 3112 
Q 844 2556 844 2016 
z
" transform="scale(0.015625)"/>
       </defs>
       <use xlink:href="#TimesNewRomanPSMT-32"/>
       <use xlink:href="#TimesNewRomanPSMT-30" transform="translate(50 0)"/>
      </g>
     </g>
    </g>
    <g id="ytick_2">
     <g id="line2d_8">
      <path d="M 528.82691 248.8475 
C 543.387538 248.8475 557.806583 251.715626 571.258849 257.287737 
C 584.711115 262.859849 596.934991 271.027581 607.23091 281.3235 
C 617.526829 291.619419 625.694561 303.843295 631.266673 317.295561 
C 636.838784 330.747827 639.70691 345.166872 639.70691 359.7275 
C 639.70691 374.288128 636.838784 388.707173 631.266673 402.159439 
C 625.694561 415.611705 617.526829 427.835581 607.23091 438.1315 
C 596.934991 448.427419 584.711115 456.595151 571.258849 462.167263 
C 557.806583 467.739374 543.387538 470.6075 528.82691 470.6075 
C 514.266282 470.6075 499.847237 467.739374 486.394971 462.167263 
C 472.942705 456.595151 460.718829 448.427419 450.42291 438.1315 
C 440.126991 427.835581 431.959259 415.611705 426.387148 402.159439 
C 420.815036 388.707173 417.94691 374.288128 417.94691 359.7275 
C 417.94691 345.166872 420.815036 330.747827 426.387148 317.295561 
C 431.959259 303.843295 440.126991 291.619419 450.42291 281.3235 
C 460.718829 271.027581 472.942705 262.859849 486.394971 257.287737 
C 499.847237 251.715626 514.266282 248.8475 528.82691 248.8475 
" clip-path="url(#p01f545f8a0)" style="fill: none; stroke: #b0b0b0; stroke-width: 0.8; stroke-linecap: square"/>
     </g>
     <g id="text_8">
      <!-- 40 -->
      <g style="fill: #808080" transform="translate(528.82691 246.708438) scale(0.1 -0.1)">
       <defs>
        <path id="TimesNewRomanPSMT-34" d="M 2978 1563 
L 2978 1119 
L 2409 1119 
L 2409 0 
L 1894 0 
L 1894 1119 
L 100 1119 
L 100 1519 
L 2066 4325 
L 2409 4325 
L 2409 1563 
L 2978 1563 
z
M 1894 1563 
L 1894 3666 
L 406 1563 
L 1894 1563 
z
" transform="scale(0.015625)"/>
       </defs>
       <use xlink:href="#TimesNewRomanPSMT-34"/>
       <use xlink:href="#TimesNewRomanPSMT-30" transform="translate(50 0)"/>
      </g>
     </g>
    </g>
    <g id="ytick_3">
     <g id="line2d_9">
      <path d="M 528.82691 193.4075 
C 550.667852 193.4075 572.296419 197.709689 592.474819 206.067856 
C 612.653218 214.426023 630.989032 226.677622 646.43291 242.1215 
C 661.876788 257.565379 674.128387 275.901192 682.486554 296.079592 
C 690.844721 316.257991 695.14691 337.886558 695.14691 359.7275 
C 695.14691 381.568442 690.844721 403.197009 682.486554 423.375408 
C 674.128387 443.553808 661.876788 461.889621 646.43291 477.3335 
C 630.989032 492.777378 612.653218 505.028977 592.474819 513.387144 
C 572.296419 521.745311 550.667852 526.0475 528.82691 526.0475 
C 506.985968 526.0475 485.357401 521.745311 465.179002 513.387144 
C 445.000602 505.028977 426.664789 492.777378 411.22091 477.3335 
C 395.777032 461.889621 383.525433 443.553808 375.167266 423.375408 
C 366.809099 403.197009 362.50691 381.568442 362.50691 359.7275 
C 362.50691 337.886558 366.809099 316.257991 375.167266 296.079592 
C 383.525433 275.901192 395.777032 257.565379 411.22091 242.1215 
C 426.664789 226.677622 445.000602 214.426023 465.179002 206.067856 
C 485.357401 197.709689 506.985968 193.4075 528.82691 193.4075 
" clip-path="url(#p01f545f8a0)" style="fill: none; stroke: #b0b0b0; stroke-width: 0.8; stroke-linecap: square"/>
     </g>
     <g id="text_9">
      <!-- 60 -->
      <g style="fill: #808080" transform="translate(528.82691 191.268438) scale(0.1 -0.1)">
       <defs>
        <path id="TimesNewRomanPSMT-36" d="M 2869 4325 
L 2869 4209 
Q 2456 4169 2195 4045 
Q 1934 3922 1679 3669 
Q 1425 3416 1258 3105 
Q 1091 2794 978 2366 
Q 1428 2675 1881 2675 
Q 2316 2675 2634 2325 
Q 2953 1975 2953 1425 
Q 2953 894 2631 456 
Q 2244 -75 1606 -75 
Q 1172 -75 869 213 
Q 275 772 275 1663 
Q 275 2231 503 2743 
Q 731 3256 1154 3653 
Q 1578 4050 1965 4187 
Q 2353 4325 2688 4325 
L 2869 4325 
z
M 925 2138 
Q 869 1716 869 1456 
Q 869 1156 980 804 
Q 1091 453 1309 247 
Q 1469 100 1697 100 
Q 1969 100 2183 356 
Q 2397 613 2397 1088 
Q 2397 1622 2184 2012 
Q 1972 2403 1581 2403 
Q 1463 2403 1327 2353 
Q 1191 2303 925 2138 
z
" transform="scale(0.015625)"/>
       </defs>
       <use xlink:href="#TimesNewRomanPSMT-36"/>
       <use xlink:href="#TimesNewRomanPSMT-30" transform="translate(50 0)"/>
      </g>
     </g>
    </g>
    <g id="ytick_4">
     <g id="line2d_10">
      <path d="M 528.82691 137.9675 
C 557.948166 137.9675 586.786255 143.703753 613.690788 154.847975 
C 640.595321 165.992197 665.043072 182.327662 685.63491 202.9195 
C 706.226748 223.511338 722.562213 247.959089 733.706435 274.863622 
C 744.850658 301.768155 750.58691 330.606244 750.58691 359.7275 
C 750.58691 388.848756 744.850658 417.686845 733.706435 444.591378 
C 722.562213 471.495911 706.226748 495.943662 685.63491 516.5355 
C 665.043072 537.127338 640.595321 553.462803 613.690788 564.607025 
C 586.786255 575.751247 557.948166 581.4875 528.82691 581.4875 
C 499.705654 581.4875 470.867565 575.751247 443.963032 564.607025 
C 417.058499 553.462803 392.610748 537.127338 372.01891 516.5355 
C 351.427072 495.943662 335.091607 471.495911 323.947385 444.591378 
C 312.803163 417.686845 307.06691 388.848756 307.06691 359.7275 
C 307.06691 330.606244 312.803163 301.768155 323.947385 274.863622 
C 335.091607 247.959089 351.427072 223.511338 372.01891 202.9195 
C 392.610748 182.327662 417.058499 165.992197 443.963032 154.847975 
C 470.867565 143.703753 499.705654 137.9675 528.82691 137.9675 
" clip-path="url(#p01f545f8a0)" style="fill: none; stroke: #b0b0b0; stroke-width: 0.8; stroke-linecap: square"/>
     </g>
     <g id="text_10">
      <!-- 80 -->
      <g style="fill: #808080" transform="translate(528.82691 135.828438) scale(0.1 -0.1)">
       <defs>
        <path id="TimesNewRomanPSMT-38" d="M 1228 2134 
Q 725 2547 579 2797 
Q 434 3047 434 3316 
Q 434 3728 753 4026 
Q 1072 4325 1600 4325 
Q 2113 4325 2425 4047 
Q 2738 3769 2738 3413 
Q 2738 3175 2569 2928 
Q 2400 2681 1866 2347 
Q 2416 1922 2594 1678 
Q 2831 1359 2831 1006 
Q 2831 559 2490 242 
Q 2150 -75 1597 -75 
Q 994 -75 656 303 
Q 388 606 388 966 
Q 388 1247 577 1523 
Q 766 1800 1228 2134 
z
M 1719 2469 
Q 2094 2806 2194 3001 
Q 2294 3197 2294 3444 
Q 2294 3772 2109 3958 
Q 1925 4144 1606 4144 
Q 1288 4144 1088 3959 
Q 888 3775 888 3528 
Q 888 3366 970 3203 
Q 1053 3041 1206 2894 
L 1719 2469 
z
M 1375 2016 
Q 1116 1797 991 1539 
Q 866 1281 866 981 
Q 866 578 1086 336 
Q 1306 94 1647 94 
Q 1984 94 2187 284 
Q 2391 475 2391 747 
Q 2391 972 2272 1150 
Q 2050 1481 1375 2016 
z
" transform="scale(0.015625)"/>
       </defs>
       <use xlink:href="#TimesNewRomanPSMT-38"/>
       <use xlink:href="#TimesNewRomanPSMT-30" transform="translate(50 0)"/>
      </g>
     </g>
    </g>
   </g>
   <g id="line2d_11">
    <path d="M 528.82691 185.0915 
L 675.264878 275.1815 
L 663.261766 437.3435 
L 528.82691 592.5755 
L 387.190187 441.5015 
L 408.795789 290.4275 
L 528.82691 185.0915 
" clip-path="url(#p01f545f8a0)" style="fill: none; stroke: #1f77b4; stroke-width: 2; stroke-linecap: square"/>
   </g>
   <g id="line2d_12">
    <path d="M 528.82691 176.7755 
L 737.681061 239.1455 
L 641.656164 424.8695 
L 528.82691 514.9595 
L 339.177739 469.2215 
L 370.38583 268.2515 
L 528.82691 176.7755 
" clip-path="url(#p01f545f8a0)" style="fill: none; stroke: #ff7f0e; stroke-width: 2; stroke-linecap: square"/>
   </g>
   <g id="line2d_13">
    <path d="M 528.82691 126.8795 
L 644.056786 293.1995 
L 648.858031 429.0275 
L 528.82691 462.2915 
L 394.392055 437.3435 
L 327.174627 243.3035 
L 528.82691 126.8795 
" clip-path="url(#p01f545f8a0)" style="fill: none; stroke: #2ca02c; stroke-width: 2; stroke-linecap: square"/>
   </g>
   <g id="patch_6">
    <path d="M 528.82691 82.5275 
C 492.42534 82.5275 456.377729 89.697816 422.747063 103.628094 
C 389.116397 117.558372 358.556708 137.977703 332.81691 163.7175 
C 307.077113 189.457298 286.657782 220.016987 272.727504 253.647653 
C 258.797226 287.278318 251.62691 323.32593 251.62691 359.7275 
C 251.62691 396.12907 258.797226 432.176682 272.727504 465.807347 
C 286.657782 499.438013 307.077113 529.997702 332.81691 555.7375 
C 358.556708 581.477297 389.116397 601.896628 422.747063 615.826906 
C 456.377729 629.757184 492.42534 636.9275 528.82691 636.9275 
C 565.228481 636.9275 601.276092 629.757184 634.906758 615.826906 
C 668.537423 601.896628 699.097112 581.477297 724.83691 555.7375 
C 750.576707 529.997702 770.996039 499.438013 784.926316 465.807347 
C 798.856594 432.176682 806.02691 396.12907 806.02691 359.7275 
C 806.02691 323.32593 798.856594 287.278318 784.926316 253.647653 
C 770.996039 220.016987 750.576707 189.457298 724.83691 163.7175 
C 699.097112 137.977703 668.537423 117.558372 634.906758 103.628094 
C 601.276092 89.697816 565.228481 82.5275 528.82691 82.5275 
" style="fill: none; stroke: #000000; stroke-width: 0.8; stroke-linejoin: miter; stroke-linecap: square"/>
   </g>
   <g id="text_11">
    <!-- Healthcare and Health ( %) -->
    <g transform="translate(419.43941 21.0875) scale(0.2 -0.2)">
     <defs>
      <path id="TimesNewRomanPSMT-28" d="M 1988 -1253 
L 1988 -1369 
Q 1516 -1131 1200 -813 
Q 750 -359 506 256 
Q 263 872 263 1534 
Q 263 2503 741 3301 
Q 1219 4100 1988 4444 
L 1988 4313 
Q 1603 4100 1356 3731 
Q 1109 3363 987 2797 
Q 866 2231 866 1616 
Q 866 947 969 400 
Q 1050 -31 1165 -292 
Q 1281 -553 1476 -793 
Q 1672 -1034 1988 -1253 
z
" transform="scale(0.015625)"/>
      <path id="TimesNewRomanPSMT-25" d="M 4350 4334 
L 1263 -175 
L 984 -175 
L 4072 4334 
L 4350 4334 
z
M 1138 4334 
Q 1559 4334 1792 3984 
Q 2025 3634 2025 3181 
Q 2025 2638 1762 2341 
Q 1500 2044 1131 2044 
Q 884 2044 678 2180 
Q 472 2316 348 2584 
Q 225 2853 225 3181 
Q 225 3509 350 3786 
Q 475 4063 692 4198 
Q 909 4334 1138 4334 
z
M 1128 4159 
Q 969 4159 845 3971 
Q 722 3784 722 3184 
Q 722 2750 791 2522 
Q 844 2350 956 2256 
Q 1022 2200 1119 2200 
Q 1269 2200 1375 2363 
Q 1531 2603 1531 3166 
Q 1531 3759 1378 4000 
Q 1278 4159 1128 4159 
z
M 4206 2103 
Q 4428 2103 4648 1962 
Q 4869 1822 4989 1553 
Q 5109 1284 5109 963 
Q 5109 409 4843 117 
Q 4578 -175 4216 -175 
Q 3988 -175 3773 -34 
Q 3559 106 3436 367 
Q 3313 628 3313 963 
Q 3313 1291 3436 1562 
Q 3559 1834 3773 1968 
Q 3988 2103 4206 2103 
z
M 4209 1938 
Q 4059 1938 3950 1769 
Q 3809 1550 3809 941 
Q 3809 381 3953 159 
Q 4059 0 4209 0 
Q 4353 0 4466 172 
Q 4616 400 4616 956 
Q 4616 1544 4466 1778 
Q 4363 1938 4209 1938 
z
" transform="scale(0.015625)"/>
      <path id="TimesNewRomanPSMT-29" d="M 144 4313 
L 144 4444 
Q 619 4209 934 3891 
Q 1381 3434 1625 2820 
Q 1869 2206 1869 1541 
Q 1869 572 1392 -226 
Q 916 -1025 144 -1369 
L 144 -1253 
Q 528 -1038 776 -670 
Q 1025 -303 1145 264 
Q 1266 831 1266 1447 
Q 1266 2113 1163 2663 
Q 1084 3094 967 3353 
Q 850 3613 656 3853 
Q 463 4094 144 4313 
z
" transform="scale(0.015625)"/>
     </defs>
     <use xlink:href="#TimesNewRomanPSMT-48"/>
     <use xlink:href="#TimesNewRomanPSMT-65" transform="translate(72.216797 0)"/>
     <use xlink:href="#TimesNewRomanPSMT-61" transform="translate(116.601562 0)"/>
     <use xlink:href="#TimesNewRomanPSMT-6c" transform="translate(160.986328 0)"/>
     <use xlink:href="#TimesNewRomanPSMT-74" transform="translate(188.769531 0)"/>
     <use xlink:href="#TimesNewRomanPSMT-68" transform="translate(216.552734 0)"/>
     <use xlink:href="#TimesNewRomanPSMT-63" transform="translate(266.552734 0)"/>
     <use xlink:href="#TimesNewRomanPSMT-61" transform="translate(310.9375 0)"/>
     <use xlink:href="#TimesNewRomanPSMT-72" transform="translate(355.322266 0)"/>
     <use xlink:href="#TimesNewRomanPSMT-65" transform="translate(388.623047 0)"/>
     <use xlink:href="#TimesNewRomanPSMT-20" transform="translate(433.007812 0)"/>
     <use xlink:href="#TimesNewRomanPSMT-61" transform="translate(458.007812 0)"/>
     <use xlink:href="#TimesNewRomanPSMT-6e" transform="translate(502.392578 0)"/>
     <use xlink:href="#TimesNewRomanPSMT-64" transform="translate(552.392578 0)"/>
     <use xlink:href="#TimesNewRomanPSMT-20" transform="translate(602.392578 0)"/>
     <use xlink:href="#TimesNewRomanPSMT-48" transform="translate(627.392578 0)"/>
     <use xlink:href="#TimesNewRomanPSMT-65" transform="translate(699.609375 0)"/>
     <use xlink:href="#TimesNewRomanPSMT-61" transform="translate(743.994141 0)"/>
     <use xlink:href="#TimesNewRomanPSMT-6c" transform="translate(788.378906 0)"/>
     <use xlink:href="#TimesNewRomanPSMT-74" transform="translate(816.162109 0)"/>
     <use xlink:href="#TimesNewRomanPSMT-68" transform="translate(843.945312 0)"/>
     <use xlink:href="#TimesNewRomanPSMT-20" transform="translate(893.945312 0)"/>
     <use xlink:href="#TimesNewRomanPSMT-28" transform="translate(918.945312 0)"/>
     <use xlink:href="#TimesNewRomanPSMT-20" transform="translate(952.246094 0)"/>
     <use xlink:href="#TimesNewRomanPSMT-25" transform="translate(977.246094 0)"/>
     <use xlink:href="#TimesNewRomanPSMT-29" transform="translate(1060.546875 0)"/>
    </g>
   </g>
   <g id="legend_1">
    <g id="patch_7">
     <path d="M 832.63941 107.785 
L 961.14691 107.785 
Q 964.34691 107.785 964.34691 104.585 
L 964.34691 38.2875 
Q 964.34691 35.0875 961.14691 35.0875 
L 832.63941 35.0875 
Q 829.43941 35.0875 829.43941 38.2875 
L 829.43941 104.585 
Q 829.43941 107.785 832.63941 107.785 
z
" style="fill: #ffffff; opacity: 0.8; stroke: #cccccc; stroke-linejoin: miter"/>
    </g>
    <g id="line2d_14">
     <path d="M 835.83941 47.0875 
L 851.83941 47.0875 
L 867.83941 47.0875 
" style="fill: none; stroke: #1f77b4; stroke-width: 2; stroke-linecap: square"/>
    </g>
    <g id="text_12">
     <!-- Togo -->
     <g transform="translate(880.63941 52.6875) scale(0.16 -0.16)">
      <defs>
       <path id="TimesNewRomanPSMT-54" d="M 3703 4238 
L 3750 3244 
L 3631 3244 
Q 3597 3506 3538 3619 
Q 3441 3800 3280 3886 
Q 3119 3972 2856 3972 
L 2259 3972 
L 2259 734 
Q 2259 344 2344 247 
Q 2463 116 2709 116 
L 2856 116 
L 2856 0 
L 1059 0 
L 1059 116 
L 1209 116 
Q 1478 116 1591 278 
Q 1659 378 1659 734 
L 1659 3972 
L 1150 3972 
Q 853 3972 728 3928 
Q 566 3869 450 3700 
Q 334 3531 313 3244 
L 194 3244 
L 244 4238 
L 3703 4238 
z
" transform="scale(0.015625)"/>
      </defs>
      <use xlink:href="#TimesNewRomanPSMT-54"/>
      <use xlink:href="#TimesNewRomanPSMT-6f" transform="translate(54.083984 0)"/>
      <use xlink:href="#TimesNewRomanPSMT-67" transform="translate(104.083984 0)"/>
      <use xlink:href="#TimesNewRomanPSMT-6f" transform="translate(154.083984 0)"/>
     </g>
    </g>
    <g id="line2d_15">
     <path d="M 835.83941 69.74 
L 851.83941 69.74 
L 867.83941 69.74 
" style="fill: none; stroke: #ff7f0e; stroke-width: 2; stroke-linecap: square"/>
    </g>
    <g id="text_13">
     <!-- Guadeloupe -->
     <g transform="translate(880.63941 75.34) scale(0.16 -0.16)">
      <defs>
       <path id="TimesNewRomanPSMT-47" d="M 3928 4334 
L 4038 2997 
L 3928 2997 
Q 3763 3497 3500 3750 
Q 3122 4116 2528 4116 
Q 1719 4116 1297 3475 
Q 944 2934 944 2188 
Q 944 1581 1178 1081 
Q 1413 581 1792 348 
Q 2172 116 2572 116 
Q 2806 116 3025 175 
Q 3244 234 3447 350 
L 3447 1575 
Q 3447 1894 3398 1992 
Q 3350 2091 3248 2142 
Q 3147 2194 2891 2194 
L 2891 2313 
L 4531 2313 
L 4531 2194 
L 4453 2194 
Q 4209 2194 4119 2031 
Q 4056 1916 4056 1575 
L 4056 278 
Q 3697 84 3347 -6 
Q 2997 -97 2569 -97 
Q 1341 -97 703 691 
Q 225 1281 225 2053 
Q 225 2613 494 3125 
Q 813 3734 1369 4063 
Q 1834 4334 2469 4334 
Q 2700 4334 2889 4296 
Q 3078 4259 3425 4131 
Q 3600 4066 3659 4066 
Q 3719 4066 3761 4120 
Q 3803 4175 3813 4334 
L 3928 4334 
z
" transform="scale(0.015625)"/>
      </defs>
      <use xlink:href="#TimesNewRomanPSMT-47"/>
      <use xlink:href="#TimesNewRomanPSMT-75" transform="translate(72.216797 0)"/>
      <use xlink:href="#TimesNewRomanPSMT-61" transform="translate(122.216797 0)"/>
      <use xlink:href="#TimesNewRomanPSMT-64" transform="translate(166.601562 0)"/>
      <use xlink:href="#TimesNewRomanPSMT-65" transform="translate(216.601562 0)"/>
      <use xlink:href="#TimesNewRomanPSMT-6c" transform="translate(260.986328 0)"/>
      <use xlink:href="#TimesNewRomanPSMT-6f" transform="translate(288.769531 0)"/>
      <use xlink:href="#TimesNewRomanPSMT-75" transform="translate(338.769531 0)"/>
      <use xlink:href="#TimesNewRomanPSMT-70" transform="translate(388.769531 0)"/>
      <use xlink:href="#TimesNewRomanPSMT-65" transform="translate(438.769531 0)"/>
     </g>
    </g>
    <g id="line2d_16">
     <path d="M 835.83941 92.3625 
L 851.83941 92.3625 
L 867.83941 92.3625 
" style="fill: none; stroke: #2ca02c; stroke-width: 2; stroke-linecap: square"/>
    </g>
    <g id="text_14">
     <!-- Bolivia -->
     <g transform="translate(880.63941 97.9625) scale(0.16 -0.16)">
      <defs>
       <path id="TimesNewRomanPSMT-76" d="M 53 2863 
L 1400 2863 
L 1400 2747 
L 1313 2747 
Q 1191 2747 1127 2687 
Q 1063 2628 1063 2528 
Q 1063 2419 1128 2269 
L 1794 688 
L 2463 2328 
Q 2534 2503 2534 2594 
Q 2534 2638 2509 2666 
Q 2475 2713 2422 2730 
Q 2369 2747 2206 2747 
L 2206 2863 
L 3141 2863 
L 3141 2747 
Q 2978 2734 2916 2681 
Q 2806 2588 2719 2369 
L 1703 -88 
L 1575 -88 
L 553 2328 
Q 484 2497 421 2570 
Q 359 2644 263 2694 
Q 209 2722 53 2747 
L 53 2863 
z
" transform="scale(0.015625)"/>
      </defs>
      <use xlink:href="#TimesNewRomanPSMT-42"/>
      <use xlink:href="#TimesNewRomanPSMT-6f" transform="translate(66.699219 0)"/>
      <use xlink:href="#TimesNewRomanPSMT-6c" transform="translate(116.699219 0)"/>
      <use xlink:href="#TimesNewRomanPSMT-69" transform="translate(144.482422 0)"/>
      <use xlink:href="#TimesNewRomanPSMT-76" transform="translate(172.265625 0)"/>
      <use xlink:href="#TimesNewRomanPSMT-69" transform="translate(222.265625 0)"/>
      <use xlink:href="#TimesNewRomanPSMT-61" transform="translate(250.048828 0)"/>
     </g>
    </g>
   </g>
  </g>
 </g>
 <defs>
  <clipPath id="p01f545f8a0">
   <path d="M 806.02691 359.7275 
C 806.02691 323.32593 798.856594 287.278318 784.926316 253.647653 
C 770.996039 220.016987 750.576707 189.457298 724.83691 163.7175 
C 699.097112 137.977703 668.537423 117.558372 634.906758 103.628094 
C 601.276092 89.697816 565.228481 82.5275 528.82691 82.5275 
C 492.42534 82.5275 456.377729 89.697816 422.747063 103.628094 
C 389.116397 117.558372 358.556708 137.977703 332.81691 163.7175 
C 307.077113 189.457298 286.657782 220.016987 272.727504 253.647653 
C 258.797226 287.278318 251.62691 323.32593 251.62691 359.7275 
C 251.62691 396.12907 258.797226 432.176682 272.727504 465.807347 
C 286.657782 499.438013 307.077113 529.997702 332.81691 555.7375 
C 358.556708 581.477297 389.116397 601.896628 422.747063 615.826906 
C 456.377729 629.757184 492.42534 636.9275 528.82691 636.9275 
C 565.228481 636.9275 601.276092 629.757184 634.906758 615.826906 
C 668.537423 601.896628 699.097112 581.477297 724.83691 555.7375 
C 750.576707 529.997702 770.996039 499.438013 784.926316 465.807347 
C 798.856594 432.176682 806.02691 396.12907 806.02691 359.7275 
M 528.82691 359.7275 
C 528.82691 359.7275 528.82691 359.7275 528.82691 359.7275 
C 528.82691 359.7275 528.82691 359.7275 528.82691 359.7275 
C 528.82691 359.7275 528.82691 359.7275 528.82691 359.7275 
C 528.82691 359.7275 528.82691 359.7275 528.82691 359.7275 
C 528.82691 359.7275 528.82691 359.7275 528.82691 359.7275 
C 528.82691 359.7275 528.82691 359.7275 528.82691 359.7275 
C 528.82691 359.7275 528.82691 359.7275 528.82691 359.7275 
C 528.82691 359.7275 528.82691 359.7275 528.82691 359.7275 
C 528.82691 359.7275 528.82691 359.7275 528.82691 359.7275 
C 528.82691 359.7275 528.82691 359.7275 528.82691 359.7275 
C 528.82691 359.7275 528.82691 359.7275 528.82691 359.7275 
C 528.82691 359.7275 528.82691 359.7275 528.82691 359.7275 
C 528.82691 359.7275 528.82691 359.7275 528.82691 359.7275 
C 528.82691 359.7275 528.82691 359.7275 528.82691 359.7275 
C 528.82691 359.7275 528.82691 359.7275 528.82691 359.7275 
C 528.82691 359.7275 528.82691 359.7275 528.82691 359.7275 
z
"/>
  </clipPath>
 </defs>
</svg>
