<?xml version="1.0" encoding="utf-8" standalone="no"?>
<!DOCTYPE svg PUBLIC "-//W3C//DTD SVG 1.1//EN"
  "http://www.w3.org/Graphics/SVG/1.1/DTD/svg11.dtd">
<svg xmlns:xlink="http://www.w3.org/1999/xlink" width="720pt" height="540pt" viewBox="0 0 720 540" xmlns="http://www.w3.org/2000/svg" version="1.1">
 <metadata>
  <rdf:RDF xmlns:dc="http://purl.org/dc/elements/1.1/" xmlns:cc="http://creativecommons.org/ns#" xmlns:rdf="http://www.w3.org/1999/02/22-rdf-syntax-ns#">
   <cc:Work>
    <dc:type rdf:resource="http://purl.org/dc/dcmitype/StillImage"/>
    <dc:date>2025-05-25T10:47:19.719300</dc:date>
    <dc:format>image/svg+xml</dc:format>
    <dc:creator>
     <cc:Agent>
      <dc:title>Matplotlib v3.10.0, https://matplotlib.org/</dc:title>
     </cc:Agent>
    </dc:creator>
   </cc:Work>
  </rdf:RDF>
 </metadata>
 <defs>
  <style type="text/css">*{stroke-linejoin: round; stroke-linecap: butt}</style>
 </defs>
 <g id="figure_1">
  <g id="patch_1">
   <path d="M 0 540 
L 720 540 
L 720 0 
L 0 0 
z
" style="fill: #ffffff"/>
  </g>
  <g id="axes_1">
   <g id="patch_2">
    <path d="M 49.82375 493.59625 
L 548.1 493.59625 
L 548.1 41.6 
L 49.82375 41.6 
z
" style="fill: #ffffff"/>
   </g>
   <g id="PathCollection_1">
    <path d="M 490.606587 140.580374 
C 495.307189 140.580374 499.8159 138.712805 503.139728 135.388977 
C 506.463556 132.065149 508.331125 127.556438 508.331125 122.855835 
C 508.331125 118.155233 506.463556 113.646522 503.139728 110.322694 
C 499.8159 106.998866 495.307189 105.131297 490.606587 105.131297 
C 485.905984 105.131297 481.397273 106.998866 478.073445 110.322694 
C 474.749617 113.646522 472.882048 118.155233 472.882048 122.855835 
C 472.882048 127.556438 474.749617 132.065149 478.073445 135.388977 
C 481.397273 138.712805 485.905984 140.580374 490.606587 140.580374 
z
" clip-path="url(#p5a282b2420)" style="fill: #e377c2; fill-opacity: 0.7; stroke: #000000; stroke-opacity: 0.7; stroke-width: 0.5"/>
    <path d="M 176.056698 300.582192 
C 180.757301 300.582192 185.266012 298.714623 188.58984 295.390795 
C 191.913668 292.066967 193.781237 287.558256 193.781237 282.857653 
C 193.781237 278.157051 191.913668 273.64834 188.58984 270.324512 
C 185.266012 267.000684 180.757301 265.133115 176.056698 265.133115 
C 171.356096 265.133115 166.847385 267.000684 163.523557 270.324512 
C 160.199729 273.64834 158.33216 278.157051 158.33216 282.857653 
C 158.33216 287.558256 160.199729 292.066967 163.523557 295.390795 
C 166.847385 298.714623 171.356096 300.582192 176.056698 300.582192 
z
" clip-path="url(#p5a282b2420)" style="fill: #e377c2; fill-opacity: 0.7; stroke: #000000; stroke-opacity: 0.7; stroke-width: 0.5"/>
    <path d="M 424.329126 144.562362 
C 429.029729 144.562362 433.53844 142.694793 436.862268 139.370965 
C 440.186096 136.047137 442.053665 131.538426 442.053665 126.837824 
C 442.053665 122.137221 440.186096 117.62851 436.862268 114.304682 
C 433.53844 110.980855 429.029729 109.113285 424.329126 109.113285 
C 419.628524 109.113285 415.119813 110.980855 411.795985 114.304682 
C 408.472157 117.62851 406.604588 122.137221 406.604588 126.837824 
C 406.604588 131.538426 408.472157 136.047137 411.795985 139.370965 
C 415.119813 142.694793 419.628524 144.562362 424.329126 144.562362 
z
" clip-path="url(#p5a282b2420)" style="fill: #e377c2; fill-opacity: 0.7; stroke: #000000; stroke-opacity: 0.7; stroke-width: 0.5"/>
    <path d="M 406.93576 111.477952 
C 411.636363 111.477952 416.145074 109.610383 419.468902 106.286555 
C 422.79273 102.962727 424.660299 98.454016 424.660299 93.753413 
C 424.660299 89.052811 422.79273 84.5441 419.468902 81.220272 
C 416.145074 77.896444 411.636363 76.028875 406.93576 76.028875 
C 402.235158 76.028875 397.726447 77.896444 394.402619 81.220272 
C 391.078791 84.5441 389.211222 89.052811 389.211222 93.753413 
C 389.211222 98.454016 391.078791 102.962727 394.402619 106.286555 
C 397.726447 109.610383 402.235158 111.477952 406.93576 111.477952 
z
" clip-path="url(#p5a282b2420)" style="fill: #e377c2; fill-opacity: 0.7; stroke: #000000; stroke-opacity: 0.7; stroke-width: 0.5"/>
    <path d="M 173.991733 223.228201 
C 178.692335 223.228201 183.201046 221.360632 186.524874 218.036804 
C 189.848702 214.712976 191.716271 210.204265 191.716271 205.503662 
C 191.716271 200.80306 189.848702 196.294349 186.524874 192.970521 
C 183.201046 189.646693 178.692335 187.779124 173.991733 187.779124 
C 169.29113 187.779124 164.782419 189.646693 161.458591 192.970521 
C 158.134763 196.294349 156.267194 200.80306 156.267194 205.503662 
C 156.267194 210.204265 158.134763 214.712976 161.458591 218.036804 
C 164.782419 221.360632 169.29113 223.228201 173.991733 223.228201 
z
" clip-path="url(#p5a282b2420)" style="fill: #e377c2; fill-opacity: 0.7; stroke: #000000; stroke-opacity: 0.7; stroke-width: 0.5"/>
    <path d="M 353.326071 418.467603 
C 358.026674 418.467603 362.535384 416.600034 365.859212 413.276206 
C 369.18304 409.952378 371.05061 405.443667 371.05061 400.743064 
C 371.05061 396.042462 369.18304 391.533751 365.859212 388.209923 
C 362.535384 384.886095 358.026674 383.018526 353.326071 383.018526 
C 348.625468 383.018526 344.116758 384.886095 340.79293 388.209923 
C 337.469102 391.533751 335.601533 396.042462 335.601533 400.743064 
C 335.601533 405.443667 337.469102 409.952378 340.79293 413.276206 
C 344.116758 416.600034 348.625468 418.467603 353.326071 418.467603 
z
" clip-path="url(#p5a282b2420)" style="fill: #e377c2; fill-opacity: 0.7; stroke: #000000; stroke-opacity: 0.7; stroke-width: 0.5"/>
    <path d="M 206.79292 403.202735 
C 211.493523 403.202735 216.002234 401.335165 219.326062 398.011337 
C 222.64989 394.687509 224.517459 390.178799 224.517459 385.478196 
C 224.517459 380.777593 222.64989 376.268883 219.326062 372.945055 
C 216.002234 369.621227 211.493523 367.753658 206.79292 367.753658 
C 202.092318 367.753658 197.583607 369.621227 194.259779 372.945055 
C 190.935951 376.268883 189.068382 380.777593 189.068382 385.478196 
C 189.068382 390.178799 190.935951 394.687509 194.259779 398.011337 
C 197.583607 401.335165 202.092318 403.202735 206.79292 403.202735 
z
" clip-path="url(#p5a282b2420)" style="fill: #e377c2; fill-opacity: 0.7; stroke: #000000; stroke-opacity: 0.7; stroke-width: 0.5"/>
    <path d="M 402.84554 242.852937 
C 407.546142 242.852937 412.054853 240.985368 415.378681 237.66154 
C 418.702509 234.337712 420.570078 229.829001 420.570078 225.128399 
C 420.570078 220.427796 418.702509 215.919085 415.378681 212.595257 
C 412.054853 209.271429 407.546142 207.40386 402.84554 207.40386 
C 398.144937 207.40386 393.636226 209.271429 390.312398 212.595257 
C 386.98857 215.919085 385.121001 220.427796 385.121001 225.128399 
C 385.121001 229.829001 386.98857 234.337712 390.312398 237.66154 
C 393.636226 240.985368 398.144937 242.852937 402.84554 242.852937 
z
" clip-path="url(#p5a282b2420)" style="fill: #e377c2; fill-opacity: 0.7; stroke: #000000; stroke-opacity: 0.7; stroke-width: 0.5"/>
    <path d="M 400.939417 393.972898 
C 405.64002 393.972898 410.148731 392.105329 413.472559 388.781501 
C 416.796387 385.457673 418.663956 380.948962 418.663956 376.248359 
C 418.663956 371.547757 416.796387 367.039046 413.472559 363.715218 
C 410.148731 360.39139 405.64002 358.523821 400.939417 358.523821 
C 396.238815 358.523821 391.730104 360.39139 388.406276 363.715218 
C 385.082448 367.039046 383.214879 371.547757 383.214879 376.248359 
C 383.214879 380.948962 385.082448 385.457673 388.406276 388.781501 
C 391.730104 392.105329 396.238815 393.972898 400.939417 393.972898 
z
" clip-path="url(#p5a282b2420)" style="fill: #e377c2; fill-opacity: 0.7; stroke: #000000; stroke-opacity: 0.7; stroke-width: 0.5"/>
    <path d="M 361.983043 418.293669 
C 366.683646 418.293669 371.192357 416.4261 374.516184 413.102272 
C 377.840012 409.778444 379.707582 405.269733 379.707582 400.569131 
C 379.707582 395.868528 377.840012 391.359817 374.516184 388.035989 
C 371.192357 384.712161 366.683646 382.844592 361.983043 382.844592 
C 357.282441 382.844592 352.77373 384.712161 349.449902 388.035989 
C 346.126074 391.359817 344.258505 395.868528 344.258505 400.569131 
C 344.258505 405.269733 346.126074 409.778444 349.449902 413.102272 
C 352.77373 416.4261 357.282441 418.293669 361.983043 418.293669 
z
" clip-path="url(#p5a282b2420)" style="fill: #e377c2; fill-opacity: 0.7; stroke: #000000; stroke-opacity: 0.7; stroke-width: 0.5"/>
    <path d="M 107.317163 459.167375 
C 112.017766 459.167375 116.526477 457.299806 119.850305 453.975978 
C 123.174133 450.65215 125.041702 446.143439 125.041702 441.442837 
C 125.041702 436.742234 123.174133 432.233523 119.850305 428.909695 
C 116.526477 425.585867 112.017766 423.718298 107.317163 423.718298 
C 102.616561 423.718298 98.10785 425.585867 94.784022 428.909695 
C 91.460194 432.233523 89.592625 436.742234 89.592625 441.442837 
C 89.592625 446.143439 91.460194 450.65215 94.784022 453.975978 
C 98.10785 457.299806 102.616561 459.167375 107.317163 459.167375 
z
" clip-path="url(#p5a282b2420)" style="fill: #e377c2; fill-opacity: 0.7; stroke: #000000; stroke-opacity: 0.7; stroke-width: 0.5"/>
    <path d="M 438.90302 129.134739 
C 443.603622 129.134739 448.112333 127.26717 451.436161 123.943342 
C 454.759989 120.619514 456.627558 116.110803 456.627558 111.4102 
C 456.627558 106.709598 454.759989 102.200887 451.436161 98.877059 
C 448.112333 95.553231 443.603622 93.685662 438.90302 93.685662 
C 434.202417 93.685662 429.693706 95.553231 426.369878 98.877059 
C 423.04605 102.200887 421.178481 106.709598 421.178481 111.4102 
C 421.178481 116.110803 423.04605 120.619514 426.369878 123.943342 
C 429.693706 127.26717 434.202417 129.134739 438.90302 129.134739 
z
" clip-path="url(#p5a282b2420)" style="fill: #e377c2; fill-opacity: 0.7; stroke: #000000; stroke-opacity: 0.7; stroke-width: 0.5"/>
    <path d="M 346.297245 436.899435 
C 348.647546 436.899435 350.901902 435.96565 352.563816 434.303736 
C 354.22573 432.641822 355.159514 430.387467 355.159514 428.037166 
C 355.159514 425.686864 354.22573 423.432509 352.563816 421.770595 
C 350.901902 420.108681 348.647546 419.174897 346.297245 419.174897 
C 343.946944 419.174897 341.692588 420.108681 340.030674 421.770595 
C 338.36876 423.432509 337.434976 425.686864 337.434976 428.037166 
C 337.434976 430.387467 338.36876 432.641822 340.030674 434.303736 
C 341.692588 435.96565 343.946944 436.899435 346.297245 436.899435 
z
" clip-path="url(#p5a282b2420)" style="fill: #e377c2; fill-opacity: 0.7; stroke: #000000; stroke-opacity: 0.7; stroke-width: 0.5"/>
   </g>
   <g id="PathCollection_2"/>
   <g id="PathCollection_3"/>
   <g id="matplotlib.axis_1">
    <g id="xtick_1">
     <g id="line2d_1">
      <defs>
       <path id="md6bb0e2eea" d="M 0 0 
L 0 3.5 
" style="stroke: #000000"/>
      </defs>
      <g>
       <use xlink:href="#md6bb0e2eea" x="87.461723" y="493.59625" style="stroke: #000000"/>
      </g>
     </g>
     <g id="text_1">
      <!-- 0 -->
      <g transform="translate(84.461723 508.92875) scale(0.12 -0.12)">
       <defs>
        <path id="TimesNewRomanPSMT-30" d="M 231 2094 
Q 231 2819 450 3342 
Q 669 3866 1031 4122 
Q 1313 4325 1613 4325 
Q 2100 4325 2488 3828 
Q 2972 3213 2972 2159 
Q 2972 1422 2759 906 
Q 2547 391 2217 158 
Q 1888 -75 1581 -75 
Q 975 -75 572 641 
Q 231 1244 231 2094 
z
M 844 2016 
Q 844 1141 1059 588 
Q 1238 122 1591 122 
Q 1759 122 1940 273 
Q 2122 425 2216 781 
Q 2359 1319 2359 2297 
Q 2359 3022 2209 3506 
Q 2097 3866 1919 4016 
Q 1791 4119 1609 4119 
Q 1397 4119 1231 3928 
Q 1006 3669 925 3112 
Q 844 2556 844 2016 
z
" transform="scale(0.015625)"/>
       </defs>
       <use xlink:href="#TimesNewRomanPSMT-30"/>
      </g>
     </g>
    </g>
    <g id="xtick_2">
     <g id="line2d_2">
      <g>
       <use xlink:href="#md6bb0e2eea" x="166.883485" y="493.59625" style="stroke: #000000"/>
      </g>
     </g>
     <g id="text_2">
      <!-- 20 -->
      <g transform="translate(160.883485 508.92875) scale(0.12 -0.12)">
       <defs>
        <path id="TimesNewRomanPSMT-32" d="M 2934 816 
L 2638 0 
L 138 0 
L 138 116 
Q 1241 1122 1691 1759 
Q 2141 2397 2141 2925 
Q 2141 3328 1894 3587 
Q 1647 3847 1303 3847 
Q 991 3847 742 3664 
Q 494 3481 375 3128 
L 259 3128 
Q 338 3706 661 4015 
Q 984 4325 1469 4325 
Q 1984 4325 2329 3994 
Q 2675 3663 2675 3213 
Q 2675 2891 2525 2569 
Q 2294 2063 1775 1497 
Q 997 647 803 472 
L 1909 472 
Q 2247 472 2383 497 
Q 2519 522 2628 598 
Q 2738 675 2819 816 
L 2934 816 
z
" transform="scale(0.015625)"/>
       </defs>
       <use xlink:href="#TimesNewRomanPSMT-32"/>
       <use xlink:href="#TimesNewRomanPSMT-30" transform="translate(50 0)"/>
      </g>
     </g>
    </g>
    <g id="xtick_3">
     <g id="line2d_3">
      <g>
       <use xlink:href="#md6bb0e2eea" x="246.305247" y="493.59625" style="stroke: #000000"/>
      </g>
     </g>
     <g id="text_3">
      <!-- 40 -->
      <g transform="translate(240.305247 508.92875) scale(0.12 -0.12)">
       <defs>
        <path id="TimesNewRomanPSMT-34" d="M 2978 1563 
L 2978 1119 
L 2409 1119 
L 2409 0 
L 1894 0 
L 1894 1119 
L 100 1119 
L 100 1519 
L 2066 4325 
L 2409 4325 
L 2409 1563 
L 2978 1563 
z
M 1894 1563 
L 1894 3666 
L 406 1563 
L 1894 1563 
z
" transform="scale(0.015625)"/>
       </defs>
       <use xlink:href="#TimesNewRomanPSMT-34"/>
       <use xlink:href="#TimesNewRomanPSMT-30" transform="translate(50 0)"/>
      </g>
     </g>
    </g>
    <g id="xtick_4">
     <g id="line2d_4">
      <g>
       <use xlink:href="#md6bb0e2eea" x="325.727009" y="493.59625" style="stroke: #000000"/>
      </g>
     </g>
     <g id="text_4">
      <!-- 60 -->
      <g transform="translate(319.727009 508.92875) scale(0.12 -0.12)">
       <defs>
        <path id="TimesNewRomanPSMT-36" d="M 2869 4325 
L 2869 4209 
Q 2456 4169 2195 4045 
Q 1934 3922 1679 3669 
Q 1425 3416 1258 3105 
Q 1091 2794 978 2366 
Q 1428 2675 1881 2675 
Q 2316 2675 2634 2325 
Q 2953 1975 2953 1425 
Q 2953 894 2631 456 
Q 2244 -75 1606 -75 
Q 1172 -75 869 213 
Q 275 772 275 1663 
Q 275 2231 503 2743 
Q 731 3256 1154 3653 
Q 1578 4050 1965 4187 
Q 2353 4325 2688 4325 
L 2869 4325 
z
M 925 2138 
Q 869 1716 869 1456 
Q 869 1156 980 804 
Q 1091 453 1309 247 
Q 1469 100 1697 100 
Q 1969 100 2183 356 
Q 2397 613 2397 1088 
Q 2397 1622 2184 2012 
Q 1972 2403 1581 2403 
Q 1463 2403 1327 2353 
Q 1191 2303 925 2138 
z
" transform="scale(0.015625)"/>
       </defs>
       <use xlink:href="#TimesNewRomanPSMT-36"/>
       <use xlink:href="#TimesNewRomanPSMT-30" transform="translate(50 0)"/>
      </g>
     </g>
    </g>
    <g id="xtick_5">
     <g id="line2d_5">
      <g>
       <use xlink:href="#md6bb0e2eea" x="405.148771" y="493.59625" style="stroke: #000000"/>
      </g>
     </g>
     <g id="text_5">
      <!-- 80 -->
      <g transform="translate(399.148771 508.92875) scale(0.12 -0.12)">
       <defs>
        <path id="TimesNewRomanPSMT-38" d="M 1228 2134 
Q 725 2547 579 2797 
Q 434 3047 434 3316 
Q 434 3728 753 4026 
Q 1072 4325 1600 4325 
Q 2113 4325 2425 4047 
Q 2738 3769 2738 3413 
Q 2738 3175 2569 2928 
Q 2400 2681 1866 2347 
Q 2416 1922 2594 1678 
Q 2831 1359 2831 1006 
Q 2831 559 2490 242 
Q 2150 -75 1597 -75 
Q 994 -75 656 303 
Q 388 606 388 966 
Q 388 1247 577 1523 
Q 766 1800 1228 2134 
z
M 1719 2469 
Q 2094 2806 2194 3001 
Q 2294 3197 2294 3444 
Q 2294 3772 2109 3958 
Q 1925 4144 1606 4144 
Q 1288 4144 1088 3959 
Q 888 3775 888 3528 
Q 888 3366 970 3203 
Q 1053 3041 1206 2894 
L 1719 2469 
z
M 1375 2016 
Q 1116 1797 991 1539 
Q 866 1281 866 981 
Q 866 578 1086 336 
Q 1306 94 1647 94 
Q 1984 94 2187 284 
Q 2391 475 2391 747 
Q 2391 972 2272 1150 
Q 2050 1481 1375 2016 
z
" transform="scale(0.015625)"/>
       </defs>
       <use xlink:href="#TimesNewRomanPSMT-38"/>
       <use xlink:href="#TimesNewRomanPSMT-30" transform="translate(50 0)"/>
      </g>
     </g>
    </g>
    <g id="xtick_6">
     <g id="line2d_6">
      <g>
       <use xlink:href="#md6bb0e2eea" x="484.570533" y="493.59625" style="stroke: #000000"/>
      </g>
     </g>
     <g id="text_6">
      <!-- 100 -->
      <g transform="translate(475.570533 508.92875) scale(0.12 -0.12)">
       <defs>
        <path id="TimesNewRomanPSMT-31" d="M 750 3822 
L 1781 4325 
L 1884 4325 
L 1884 747 
Q 1884 391 1914 303 
Q 1944 216 2037 169 
Q 2131 122 2419 116 
L 2419 0 
L 825 0 
L 825 116 
Q 1125 122 1212 167 
Q 1300 213 1334 289 
Q 1369 366 1369 747 
L 1369 3034 
Q 1369 3497 1338 3628 
Q 1316 3728 1258 3775 
Q 1200 3822 1119 3822 
Q 1003 3822 797 3725 
L 750 3822 
z
" transform="scale(0.015625)"/>
       </defs>
       <use xlink:href="#TimesNewRomanPSMT-31"/>
       <use xlink:href="#TimesNewRomanPSMT-30" transform="translate(50 0)"/>
       <use xlink:href="#TimesNewRomanPSMT-30" transform="translate(100 0)"/>
      </g>
     </g>
    </g>
    <g id="text_7">
     <!-- Artist popularity rank (rank) -->
     <g transform="translate(219.457188 525.216875) scale(0.14 -0.14)">
      <defs>
       <path id="TimesNewRomanPSMT-41" d="M 2928 1419 
L 1288 1419 
L 1000 750 
Q 894 503 894 381 
Q 894 284 986 211 
Q 1078 138 1384 116 
L 1384 0 
L 50 0 
L 50 116 
Q 316 163 394 238 
Q 553 388 747 847 
L 2238 4334 
L 2347 4334 
L 3822 809 
Q 4000 384 4145 257 
Q 4291 131 4550 116 
L 4550 0 
L 2878 0 
L 2878 116 
Q 3131 128 3220 200 
Q 3309 272 3309 375 
Q 3309 513 3184 809 
L 2928 1419 
z
M 2841 1650 
L 2122 3363 
L 1384 1650 
L 2841 1650 
z
" transform="scale(0.015625)"/>
       <path id="TimesNewRomanPSMT-72" d="M 1038 2947 
L 1038 2303 
Q 1397 2947 1775 2947 
Q 1947 2947 2059 2842 
Q 2172 2738 2172 2600 
Q 2172 2478 2090 2393 
Q 2009 2309 1897 2309 
Q 1788 2309 1652 2417 
Q 1516 2525 1450 2525 
Q 1394 2525 1328 2463 
Q 1188 2334 1038 2041 
L 1038 669 
Q 1038 431 1097 309 
Q 1138 225 1241 169 
Q 1344 113 1538 113 
L 1538 0 
L 72 0 
L 72 113 
Q 291 113 397 181 
Q 475 231 506 341 
Q 522 394 522 644 
L 522 1753 
Q 522 2253 501 2348 
Q 481 2444 426 2487 
Q 372 2531 291 2531 
Q 194 2531 72 2484 
L 41 2597 
L 906 2947 
L 1038 2947 
z
" transform="scale(0.015625)"/>
       <path id="TimesNewRomanPSMT-74" d="M 1031 3803 
L 1031 2863 
L 1700 2863 
L 1700 2644 
L 1031 2644 
L 1031 788 
Q 1031 509 1111 412 
Q 1191 316 1316 316 
Q 1419 316 1516 380 
Q 1613 444 1666 569 
L 1788 569 
Q 1678 263 1478 108 
Q 1278 -47 1066 -47 
Q 922 -47 784 33 
Q 647 113 581 261 
Q 516 409 516 719 
L 516 2644 
L 63 2644 
L 63 2747 
Q 234 2816 414 2980 
Q 594 3144 734 3369 
Q 806 3488 934 3803 
L 1031 3803 
z
" transform="scale(0.015625)"/>
       <path id="TimesNewRomanPSMT-69" d="M 928 4444 
Q 1059 4444 1151 4351 
Q 1244 4259 1244 4128 
Q 1244 3997 1151 3903 
Q 1059 3809 928 3809 
Q 797 3809 703 3903 
Q 609 3997 609 4128 
Q 609 4259 701 4351 
Q 794 4444 928 4444 
z
M 1188 2947 
L 1188 647 
Q 1188 378 1227 289 
Q 1266 200 1342 156 
Q 1419 113 1622 113 
L 1622 0 
L 231 0 
L 231 113 
Q 441 113 512 153 
Q 584 194 626 287 
Q 669 381 669 647 
L 669 1750 
Q 669 2216 641 2353 
Q 619 2453 572 2492 
Q 525 2531 444 2531 
Q 356 2531 231 2484 
L 188 2597 
L 1050 2947 
L 1188 2947 
z
" transform="scale(0.015625)"/>
       <path id="TimesNewRomanPSMT-73" d="M 2050 2947 
L 2050 1972 
L 1947 1972 
Q 1828 2431 1642 2597 
Q 1456 2763 1169 2763 
Q 950 2763 815 2647 
Q 681 2531 681 2391 
Q 681 2216 781 2091 
Q 878 1963 1175 1819 
L 1631 1597 
Q 2266 1288 2266 781 
Q 2266 391 1970 151 
Q 1675 -88 1309 -88 
Q 1047 -88 709 6 
Q 606 38 541 38 
Q 469 38 428 -44 
L 325 -44 
L 325 978 
L 428 978 
Q 516 541 762 319 
Q 1009 97 1316 97 
Q 1531 97 1667 223 
Q 1803 350 1803 528 
Q 1803 744 1651 891 
Q 1500 1038 1047 1263 
Q 594 1488 453 1669 
Q 313 1847 313 2119 
Q 313 2472 555 2709 
Q 797 2947 1181 2947 
Q 1350 2947 1591 2875 
Q 1750 2828 1803 2828 
Q 1853 2828 1881 2850 
Q 1909 2872 1947 2947 
L 2050 2947 
z
" transform="scale(0.015625)"/>
       <path id="TimesNewRomanPSMT-20" transform="scale(0.015625)"/>
       <path id="TimesNewRomanPSMT-70" d="M -6 2578 
L 875 2934 
L 994 2934 
L 994 2266 
Q 1216 2644 1439 2795 
Q 1663 2947 1909 2947 
Q 2341 2947 2628 2609 
Q 2981 2197 2981 1534 
Q 2981 794 2556 309 
Q 2206 -88 1675 -88 
Q 1444 -88 1275 -22 
Q 1150 25 994 166 
L 994 -706 
Q 994 -1000 1030 -1079 
Q 1066 -1159 1155 -1206 
Q 1244 -1253 1478 -1253 
L 1478 -1369 
L -22 -1369 
L -22 -1253 
L 56 -1253 
Q 228 -1256 350 -1188 
Q 409 -1153 442 -1076 
Q 475 -1000 475 -688 
L 475 2019 
Q 475 2297 450 2372 
Q 425 2447 370 2484 
Q 316 2522 222 2522 
Q 147 2522 31 2478 
L -6 2578 
z
M 994 2081 
L 994 1013 
Q 994 666 1022 556 
Q 1066 375 1236 237 
Q 1406 100 1666 100 
Q 1978 100 2172 344 
Q 2425 663 2425 1241 
Q 2425 1897 2138 2250 
Q 1938 2494 1663 2494 
Q 1513 2494 1366 2419 
Q 1253 2363 994 2081 
z
" transform="scale(0.015625)"/>
       <path id="TimesNewRomanPSMT-6f" d="M 1600 2947 
Q 2250 2947 2644 2453 
Q 2978 2031 2978 1484 
Q 2978 1100 2793 706 
Q 2609 313 2286 112 
Q 1963 -88 1566 -88 
Q 919 -88 538 428 
Q 216 863 216 1403 
Q 216 1797 411 2186 
Q 606 2575 925 2761 
Q 1244 2947 1600 2947 
z
M 1503 2744 
Q 1338 2744 1170 2645 
Q 1003 2547 900 2300 
Q 797 2053 797 1666 
Q 797 1041 1045 587 
Q 1294 134 1700 134 
Q 2003 134 2200 384 
Q 2397 634 2397 1244 
Q 2397 2006 2069 2444 
Q 1847 2744 1503 2744 
z
" transform="scale(0.015625)"/>
       <path id="TimesNewRomanPSMT-75" d="M 2709 2863 
L 2709 1128 
Q 2709 631 2732 520 
Q 2756 409 2807 365 
Q 2859 322 2928 322 
Q 3025 322 3147 375 
L 3191 266 
L 2334 -88 
L 2194 -88 
L 2194 519 
Q 1825 119 1631 15 
Q 1438 -88 1222 -88 
Q 981 -88 804 51 
Q 628 191 559 409 
Q 491 628 491 1028 
L 491 2306 
Q 491 2509 447 2587 
Q 403 2666 317 2708 
Q 231 2750 6 2747 
L 6 2863 
L 1009 2863 
L 1009 947 
Q 1009 547 1148 422 
Q 1288 297 1484 297 
Q 1619 297 1789 381 
Q 1959 466 2194 703 
L 2194 2325 
Q 2194 2569 2105 2655 
Q 2016 2741 1734 2747 
L 1734 2863 
L 2709 2863 
z
" transform="scale(0.015625)"/>
       <path id="TimesNewRomanPSMT-6c" d="M 1184 4444 
L 1184 647 
Q 1184 378 1223 290 
Q 1263 203 1344 158 
Q 1425 113 1647 113 
L 1647 0 
L 244 0 
L 244 113 
Q 441 113 512 153 
Q 584 194 625 287 
Q 666 381 666 647 
L 666 3247 
Q 666 3731 644 3842 
Q 622 3953 573 3993 
Q 525 4034 450 4034 
Q 369 4034 244 3984 
L 191 4094 
L 1044 4444 
L 1184 4444 
z
" transform="scale(0.015625)"/>
       <path id="TimesNewRomanPSMT-61" d="M 1822 413 
Q 1381 72 1269 19 
Q 1100 -59 909 -59 
Q 613 -59 420 144 
Q 228 347 228 678 
Q 228 888 322 1041 
Q 450 1253 767 1440 
Q 1084 1628 1822 1897 
L 1822 2009 
Q 1822 2438 1686 2597 
Q 1550 2756 1291 2756 
Q 1094 2756 978 2650 
Q 859 2544 859 2406 
L 866 2225 
Q 866 2081 792 2003 
Q 719 1925 600 1925 
Q 484 1925 411 2006 
Q 338 2088 338 2228 
Q 338 2497 613 2722 
Q 888 2947 1384 2947 
Q 1766 2947 2009 2819 
Q 2194 2722 2281 2516 
Q 2338 2381 2338 1966 
L 2338 994 
Q 2338 584 2353 492 
Q 2369 400 2405 369 
Q 2441 338 2488 338 
Q 2538 338 2575 359 
Q 2641 400 2828 588 
L 2828 413 
Q 2478 -56 2159 -56 
Q 2006 -56 1915 50 
Q 1825 156 1822 413 
z
M 1822 616 
L 1822 1706 
Q 1350 1519 1213 1441 
Q 966 1303 859 1153 
Q 753 1003 753 825 
Q 753 600 887 451 
Q 1022 303 1197 303 
Q 1434 303 1822 616 
z
" transform="scale(0.015625)"/>
       <path id="TimesNewRomanPSMT-79" d="M 38 2863 
L 1372 2863 
L 1372 2747 
L 1306 2747 
Q 1166 2747 1095 2686 
Q 1025 2625 1025 2534 
Q 1025 2413 1128 2197 
L 1825 753 
L 2466 2334 
Q 2519 2463 2519 2588 
Q 2519 2644 2497 2672 
Q 2472 2706 2419 2726 
Q 2366 2747 2231 2747 
L 2231 2863 
L 3163 2863 
L 3163 2747 
Q 3047 2734 2984 2696 
Q 2922 2659 2847 2556 
Q 2819 2513 2741 2316 
L 1575 -541 
Q 1406 -956 1132 -1168 
Q 859 -1381 606 -1381 
Q 422 -1381 303 -1275 
Q 184 -1169 184 -1031 
Q 184 -900 270 -820 
Q 356 -741 506 -741 
Q 609 -741 788 -809 
Q 913 -856 944 -856 
Q 1038 -856 1148 -759 
Q 1259 -663 1372 -384 
L 1575 113 
L 547 2272 
Q 500 2369 397 2513 
Q 319 2622 269 2659 
Q 197 2709 38 2747 
L 38 2863 
z
" transform="scale(0.015625)"/>
       <path id="TimesNewRomanPSMT-6e" d="M 1034 2341 
Q 1538 2947 1994 2947 
Q 2228 2947 2397 2830 
Q 2566 2713 2666 2444 
Q 2734 2256 2734 1869 
L 2734 647 
Q 2734 375 2778 278 
Q 2813 200 2889 156 
Q 2966 113 3172 113 
L 3172 0 
L 1756 0 
L 1756 113 
L 1816 113 
Q 2016 113 2095 173 
Q 2175 234 2206 353 
Q 2219 400 2219 647 
L 2219 1819 
Q 2219 2209 2117 2386 
Q 2016 2563 1775 2563 
Q 1403 2563 1034 2156 
L 1034 647 
Q 1034 356 1069 288 
Q 1113 197 1189 155 
Q 1266 113 1500 113 
L 1500 0 
L 84 0 
L 84 113 
L 147 113 
Q 366 113 442 223 
Q 519 334 519 647 
L 519 1709 
Q 519 2225 495 2337 
Q 472 2450 423 2490 
Q 375 2531 294 2531 
Q 206 2531 84 2484 
L 38 2597 
L 900 2947 
L 1034 2947 
L 1034 2341 
z
" transform="scale(0.015625)"/>
       <path id="TimesNewRomanPSMT-6b" d="M 1047 4444 
L 1047 1597 
L 1775 2259 
Q 2006 2472 2044 2528 
Q 2069 2566 2069 2603 
Q 2069 2666 2017 2711 
Q 1966 2756 1847 2763 
L 1847 2863 
L 3091 2863 
L 3091 2763 
Q 2834 2756 2664 2684 
Q 2494 2613 2291 2428 
L 1556 1750 
L 2291 822 
Q 2597 438 2703 334 
Q 2853 188 2966 144 
Q 3044 113 3238 113 
L 3238 0 
L 1847 0 
L 1847 113 
Q 1966 116 2008 148 
Q 2050 181 2050 241 
Q 2050 313 1925 472 
L 1047 1594 
L 1047 644 
Q 1047 366 1086 278 
Q 1125 191 1197 153 
Q 1269 116 1509 113 
L 1509 0 
L 53 0 
L 53 113 
Q 272 113 381 166 
Q 447 200 481 272 
Q 528 375 528 628 
L 528 3234 
Q 528 3731 506 3842 
Q 484 3953 434 3995 
Q 384 4038 303 4038 
Q 238 4038 106 3984 
L 53 4094 
L 903 4444 
L 1047 4444 
z
" transform="scale(0.015625)"/>
       <path id="TimesNewRomanPSMT-28" d="M 1988 -1253 
L 1988 -1369 
Q 1516 -1131 1200 -813 
Q 750 -359 506 256 
Q 263 872 263 1534 
Q 263 2503 741 3301 
Q 1219 4100 1988 4444 
L 1988 4313 
Q 1603 4100 1356 3731 
Q 1109 3363 987 2797 
Q 866 2231 866 1616 
Q 866 947 969 400 
Q 1050 -31 1165 -292 
Q 1281 -553 1476 -793 
Q 1672 -1034 1988 -1253 
z
" transform="scale(0.015625)"/>
       <path id="TimesNewRomanPSMT-29" d="M 144 4313 
L 144 4444 
Q 619 4209 934 3891 
Q 1381 3434 1625 2820 
Q 1869 2206 1869 1541 
Q 1869 572 1392 -226 
Q 916 -1025 144 -1369 
L 144 -1253 
Q 528 -1038 776 -670 
Q 1025 -303 1145 264 
Q 1266 831 1266 1447 
Q 1266 2113 1163 2663 
Q 1084 3094 967 3353 
Q 850 3613 656 3853 
Q 463 4094 144 4313 
z
" transform="scale(0.015625)"/>
      </defs>
      <use xlink:href="#TimesNewRomanPSMT-41"/>
      <use xlink:href="#TimesNewRomanPSMT-72" transform="translate(72.216797 0)"/>
      <use xlink:href="#TimesNewRomanPSMT-74" transform="translate(105.517578 0)"/>
      <use xlink:href="#TimesNewRomanPSMT-69" transform="translate(133.300781 0)"/>
      <use xlink:href="#TimesNewRomanPSMT-73" transform="translate(161.083984 0)"/>
      <use xlink:href="#TimesNewRomanPSMT-74" transform="translate(200 0)"/>
      <use xlink:href="#TimesNewRomanPSMT-20" transform="translate(227.783203 0)"/>
      <use xlink:href="#TimesNewRomanPSMT-70" transform="translate(252.783203 0)"/>
      <use xlink:href="#TimesNewRomanPSMT-6f" transform="translate(302.783203 0)"/>
      <use xlink:href="#TimesNewRomanPSMT-70" transform="translate(352.783203 0)"/>
      <use xlink:href="#TimesNewRomanPSMT-75" transform="translate(402.783203 0)"/>
      <use xlink:href="#TimesNewRomanPSMT-6c" transform="translate(452.783203 0)"/>
      <use xlink:href="#TimesNewRomanPSMT-61" transform="translate(480.566406 0)"/>
      <use xlink:href="#TimesNewRomanPSMT-72" transform="translate(524.951172 0)"/>
      <use xlink:href="#TimesNewRomanPSMT-69" transform="translate(558.251953 0)"/>
      <use xlink:href="#TimesNewRomanPSMT-74" transform="translate(586.035156 0)"/>
      <use xlink:href="#TimesNewRomanPSMT-79" transform="translate(613.818359 0)"/>
      <use xlink:href="#TimesNewRomanPSMT-20" transform="translate(663.818359 0)"/>
      <use xlink:href="#TimesNewRomanPSMT-72" transform="translate(688.818359 0)"/>
      <use xlink:href="#TimesNewRomanPSMT-61" transform="translate(722.119141 0)"/>
      <use xlink:href="#TimesNewRomanPSMT-6e" transform="translate(766.503906 0)"/>
      <use xlink:href="#TimesNewRomanPSMT-6b" transform="translate(816.503906 0)"/>
      <use xlink:href="#TimesNewRomanPSMT-20" transform="translate(866.503906 0)"/>
      <use xlink:href="#TimesNewRomanPSMT-28" transform="translate(891.503906 0)"/>
      <use xlink:href="#TimesNewRomanPSMT-72" transform="translate(924.804688 0)"/>
      <use xlink:href="#TimesNewRomanPSMT-61" transform="translate(958.105469 0)"/>
      <use xlink:href="#TimesNewRomanPSMT-6e" transform="translate(1002.490234 0)"/>
      <use xlink:href="#TimesNewRomanPSMT-6b" transform="translate(1052.490234 0)"/>
      <use xlink:href="#TimesNewRomanPSMT-29" transform="translate(1102.490234 0)"/>
     </g>
    </g>
   </g>
   <g id="matplotlib.axis_2">
    <g id="ytick_1">
     <g id="line2d_7">
      <defs>
       <path id="m0b6b7e7e9b" d="M 0 0 
L -3.5 0 
" style="stroke: #000000"/>
      </defs>
      <g>
       <use xlink:href="#m0b6b7e7e9b" x="49.82375" y="441.446148" style="stroke: #000000"/>
      </g>
     </g>
     <g id="text_8">
      <!-- 0.0 -->
      <g transform="translate(27.82375 445.612398) scale(0.12 -0.12)">
       <defs>
        <path id="TimesNewRomanPSMT-2e" d="M 800 606 
Q 947 606 1047 504 
Q 1147 403 1147 259 
Q 1147 116 1045 14 
Q 944 -88 800 -88 
Q 656 -88 554 14 
Q 453 116 453 259 
Q 453 406 554 506 
Q 656 606 800 606 
z
" transform="scale(0.015625)"/>
       </defs>
       <use xlink:href="#TimesNewRomanPSMT-30"/>
       <use xlink:href="#TimesNewRomanPSMT-2e" transform="translate(50 0)"/>
       <use xlink:href="#TimesNewRomanPSMT-30" transform="translate(75 0)"/>
      </g>
     </g>
    </g>
    <g id="ytick_2">
     <g id="line2d_8">
      <g>
       <use xlink:href="#m0b6b7e7e9b" x="49.82375" y="375.218929" style="stroke: #000000"/>
      </g>
     </g>
     <g id="text_9">
      <!-- 0.2 -->
      <g transform="translate(27.82375 379.385179) scale(0.12 -0.12)">
       <use xlink:href="#TimesNewRomanPSMT-30"/>
       <use xlink:href="#TimesNewRomanPSMT-2e" transform="translate(50 0)"/>
       <use xlink:href="#TimesNewRomanPSMT-32" transform="translate(75 0)"/>
      </g>
     </g>
    </g>
    <g id="ytick_3">
     <g id="line2d_9">
      <g>
       <use xlink:href="#m0b6b7e7e9b" x="49.82375" y="308.99171" style="stroke: #000000"/>
      </g>
     </g>
     <g id="text_10">
      <!-- 0.4 -->
      <g transform="translate(27.82375 313.15796) scale(0.12 -0.12)">
       <use xlink:href="#TimesNewRomanPSMT-30"/>
       <use xlink:href="#TimesNewRomanPSMT-2e" transform="translate(50 0)"/>
       <use xlink:href="#TimesNewRomanPSMT-34" transform="translate(75 0)"/>
      </g>
     </g>
    </g>
    <g id="ytick_4">
     <g id="line2d_10">
      <g>
       <use xlink:href="#m0b6b7e7e9b" x="49.82375" y="242.764491" style="stroke: #000000"/>
      </g>
     </g>
     <g id="text_11">
      <!-- 0.6 -->
      <g transform="translate(27.82375 246.930741) scale(0.12 -0.12)">
       <use xlink:href="#TimesNewRomanPSMT-30"/>
       <use xlink:href="#TimesNewRomanPSMT-2e" transform="translate(50 0)"/>
       <use xlink:href="#TimesNewRomanPSMT-36" transform="translate(75 0)"/>
      </g>
     </g>
    </g>
    <g id="ytick_5">
     <g id="line2d_11">
      <g>
       <use xlink:href="#m0b6b7e7e9b" x="49.82375" y="176.537272" style="stroke: #000000"/>
      </g>
     </g>
     <g id="text_12">
      <!-- 0.8 -->
      <g transform="translate(27.82375 180.703522) scale(0.12 -0.12)">
       <use xlink:href="#TimesNewRomanPSMT-30"/>
       <use xlink:href="#TimesNewRomanPSMT-2e" transform="translate(50 0)"/>
       <use xlink:href="#TimesNewRomanPSMT-38" transform="translate(75 0)"/>
      </g>
     </g>
    </g>
    <g id="ytick_6">
     <g id="line2d_12">
      <g>
       <use xlink:href="#m0b6b7e7e9b" x="49.82375" y="110.310053" style="stroke: #000000"/>
      </g>
     </g>
     <g id="text_13">
      <!-- 1.0 -->
      <g transform="translate(27.82375 114.476303) scale(0.12 -0.12)">
       <use xlink:href="#TimesNewRomanPSMT-31"/>
       <use xlink:href="#TimesNewRomanPSMT-2e" transform="translate(50 0)"/>
       <use xlink:href="#TimesNewRomanPSMT-30" transform="translate(75 0)"/>
      </g>
     </g>
    </g>
    <g id="ytick_7">
     <g id="line2d_13">
      <g>
       <use xlink:href="#m0b6b7e7e9b" x="49.82375" y="44.082834" style="stroke: #000000"/>
      </g>
     </g>
     <g id="text_14">
      <!-- 1.2 -->
      <g transform="translate(27.82375 48.249084) scale(0.12 -0.12)">
       <use xlink:href="#TimesNewRomanPSMT-31"/>
       <use xlink:href="#TimesNewRomanPSMT-2e" transform="translate(50 0)"/>
       <use xlink:href="#TimesNewRomanPSMT-32" transform="translate(75 0)"/>
      </g>
     </g>
    </g>
    <g id="text_15">
     <!-- Commercial impact value ($ 1e9) -->
     <g transform="translate(20.829063 361.675938) rotate(-90) scale(0.14 -0.14)">
      <defs>
       <path id="TimesNewRomanPSMT-43" d="M 3853 4334 
L 3950 2894 
L 3853 2894 
Q 3659 3541 3300 3825 
Q 2941 4109 2438 4109 
Q 2016 4109 1675 3895 
Q 1334 3681 1139 3212 
Q 944 2744 944 2047 
Q 944 1472 1128 1050 
Q 1313 628 1683 403 
Q 2053 178 2528 178 
Q 2941 178 3256 354 
Q 3572 531 3950 1056 
L 4047 994 
Q 3728 428 3303 165 
Q 2878 -97 2294 -97 
Q 1241 -97 663 684 
Q 231 1266 231 2053 
Q 231 2688 515 3219 
Q 800 3750 1298 4042 
Q 1797 4334 2388 4334 
Q 2847 4334 3294 4109 
Q 3425 4041 3481 4041 
Q 3566 4041 3628 4100 
Q 3709 4184 3744 4334 
L 3853 4334 
z
" transform="scale(0.015625)"/>
       <path id="TimesNewRomanPSMT-6d" d="M 1050 2338 
Q 1363 2650 1419 2697 
Q 1559 2816 1721 2881 
Q 1884 2947 2044 2947 
Q 2313 2947 2506 2790 
Q 2700 2634 2766 2338 
Q 3088 2713 3309 2830 
Q 3531 2947 3766 2947 
Q 3994 2947 4170 2830 
Q 4347 2713 4450 2447 
Q 4519 2266 4519 1878 
L 4519 647 
Q 4519 378 4559 278 
Q 4591 209 4675 161 
Q 4759 113 4950 113 
L 4950 0 
L 3538 0 
L 3538 113 
L 3597 113 
Q 3781 113 3884 184 
Q 3956 234 3988 344 
Q 4000 397 4000 647 
L 4000 1878 
Q 4000 2228 3916 2372 
Q 3794 2572 3525 2572 
Q 3359 2572 3192 2489 
Q 3025 2406 2788 2181 
L 2781 2147 
L 2788 2013 
L 2788 647 
Q 2788 353 2820 281 
Q 2853 209 2943 161 
Q 3034 113 3253 113 
L 3253 0 
L 1806 0 
L 1806 113 
Q 2044 113 2133 169 
Q 2222 225 2256 338 
Q 2272 391 2272 647 
L 2272 1878 
Q 2272 2228 2169 2381 
Q 2031 2581 1784 2581 
Q 1616 2581 1450 2491 
Q 1191 2353 1050 2181 
L 1050 647 
Q 1050 366 1089 281 
Q 1128 197 1204 155 
Q 1281 113 1516 113 
L 1516 0 
L 100 0 
L 100 113 
Q 297 113 375 155 
Q 453 197 493 289 
Q 534 381 534 647 
L 534 1741 
Q 534 2213 506 2350 
Q 484 2453 437 2492 
Q 391 2531 309 2531 
Q 222 2531 100 2484 
L 53 2597 
L 916 2947 
L 1050 2947 
L 1050 2338 
z
" transform="scale(0.015625)"/>
       <path id="TimesNewRomanPSMT-65" d="M 681 1784 
Q 678 1147 991 784 
Q 1303 422 1725 422 
Q 2006 422 2214 576 
Q 2422 731 2563 1106 
L 2659 1044 
Q 2594 616 2278 264 
Q 1963 -88 1488 -88 
Q 972 -88 605 314 
Q 238 716 238 1394 
Q 238 2128 614 2539 
Q 991 2950 1559 2950 
Q 2041 2950 2350 2633 
Q 2659 2316 2659 1784 
L 681 1784 
z
M 681 1966 
L 2006 1966 
Q 1991 2241 1941 2353 
Q 1863 2528 1708 2628 
Q 1553 2728 1384 2728 
Q 1125 2728 920 2526 
Q 716 2325 681 1966 
z
" transform="scale(0.015625)"/>
       <path id="TimesNewRomanPSMT-63" d="M 2631 1088 
Q 2516 522 2178 217 
Q 1841 -88 1431 -88 
Q 944 -88 581 321 
Q 219 731 219 1428 
Q 219 2103 620 2525 
Q 1022 2947 1584 2947 
Q 2006 2947 2278 2723 
Q 2550 2500 2550 2259 
Q 2550 2141 2473 2067 
Q 2397 1994 2259 1994 
Q 2075 1994 1981 2113 
Q 1928 2178 1911 2362 
Q 1894 2547 1784 2644 
Q 1675 2738 1481 2738 
Q 1169 2738 978 2506 
Q 725 2200 725 1697 
Q 725 1184 976 792 
Q 1228 400 1656 400 
Q 1963 400 2206 609 
Q 2378 753 2541 1131 
L 2631 1088 
z
" transform="scale(0.015625)"/>
       <path id="TimesNewRomanPSMT-76" d="M 53 2863 
L 1400 2863 
L 1400 2747 
L 1313 2747 
Q 1191 2747 1127 2687 
Q 1063 2628 1063 2528 
Q 1063 2419 1128 2269 
L 1794 688 
L 2463 2328 
Q 2534 2503 2534 2594 
Q 2534 2638 2509 2666 
Q 2475 2713 2422 2730 
Q 2369 2747 2206 2747 
L 2206 2863 
L 3141 2863 
L 3141 2747 
Q 2978 2734 2916 2681 
Q 2806 2588 2719 2369 
L 1703 -88 
L 1575 -88 
L 553 2328 
Q 484 2497 421 2570 
Q 359 2644 263 2694 
Q 209 2722 53 2747 
L 53 2863 
z
" transform="scale(0.015625)"/>
       <path id="TimesNewRomanPSMT-24" d="M 338 1044 
L 475 1044 
Q 509 616 743 387 
Q 978 159 1444 116 
L 1444 1941 
Q 741 2375 506 2709 
Q 341 2947 341 3288 
Q 341 3672 627 3959 
Q 913 4247 1444 4306 
L 1444 4594 
L 1644 4594 
L 1644 4306 
Q 1900 4291 2075 4247 
Q 2166 4225 2675 4031 
L 2675 3097 
L 2553 3097 
Q 2513 3594 2295 3823 
Q 2078 4053 1644 4097 
L 1644 2509 
Q 2431 1959 2654 1698 
Q 2878 1438 2878 1050 
Q 2878 619 2551 290 
Q 2225 -38 1644 -88 
L 1644 -488 
L 1444 -488 
L 1444 -88 
Q 1150 -75 897 -20 
Q 644 34 338 159 
L 338 1044 
z
M 1444 2641 
L 1444 4094 
Q 1131 4056 979 3895 
Q 828 3734 828 3491 
Q 828 3263 965 3064 
Q 1103 2866 1444 2641 
z
M 1644 116 
Q 1878 156 2003 231 
Q 2178 341 2279 517 
Q 2381 694 2381 894 
Q 2381 1100 2257 1284 
Q 2134 1469 1644 1806 
L 1644 116 
z
" transform="scale(0.015625)"/>
       <path id="TimesNewRomanPSMT-39" d="M 338 -88 
L 338 28 
Q 744 34 1094 217 
Q 1444 400 1770 856 
Q 2097 1313 2225 1859 
Q 1734 1544 1338 1544 
Q 891 1544 572 1889 
Q 253 2234 253 2806 
Q 253 3363 572 3797 
Q 956 4325 1575 4325 
Q 2097 4325 2469 3894 
Q 2925 3359 2925 2575 
Q 2925 1869 2578 1258 
Q 2231 647 1613 244 
Q 1109 -88 516 -88 
L 338 -88 
z
M 2275 2091 
Q 2331 2497 2331 2741 
Q 2331 3044 2228 3395 
Q 2125 3747 1936 3934 
Q 1747 4122 1506 4122 
Q 1228 4122 1018 3872 
Q 809 3622 809 3128 
Q 809 2469 1088 2097 
Q 1291 1828 1588 1828 
Q 1731 1828 1928 1897 
Q 2125 1966 2275 2091 
z
" transform="scale(0.015625)"/>
      </defs>
      <use xlink:href="#TimesNewRomanPSMT-43"/>
      <use xlink:href="#TimesNewRomanPSMT-6f" transform="translate(66.699219 0)"/>
      <use xlink:href="#TimesNewRomanPSMT-6d" transform="translate(116.699219 0)"/>
      <use xlink:href="#TimesNewRomanPSMT-6d" transform="translate(194.482422 0)"/>
      <use xlink:href="#TimesNewRomanPSMT-65" transform="translate(272.265625 0)"/>
      <use xlink:href="#TimesNewRomanPSMT-72" transform="translate(316.650391 0)"/>
      <use xlink:href="#TimesNewRomanPSMT-63" transform="translate(349.951172 0)"/>
      <use xlink:href="#TimesNewRomanPSMT-69" transform="translate(394.335938 0)"/>
      <use xlink:href="#TimesNewRomanPSMT-61" transform="translate(422.119141 0)"/>
      <use xlink:href="#TimesNewRomanPSMT-6c" transform="translate(466.503906 0)"/>
      <use xlink:href="#TimesNewRomanPSMT-20" transform="translate(494.287109 0)"/>
      <use xlink:href="#TimesNewRomanPSMT-69" transform="translate(519.287109 0)"/>
      <use xlink:href="#TimesNewRomanPSMT-6d" transform="translate(547.070312 0)"/>
      <use xlink:href="#TimesNewRomanPSMT-70" transform="translate(624.853516 0)"/>
      <use xlink:href="#TimesNewRomanPSMT-61" transform="translate(674.853516 0)"/>
      <use xlink:href="#TimesNewRomanPSMT-63" transform="translate(719.238281 0)"/>
      <use xlink:href="#TimesNewRomanPSMT-74" transform="translate(763.623047 0)"/>
      <use xlink:href="#TimesNewRomanPSMT-20" transform="translate(791.40625 0)"/>
      <use xlink:href="#TimesNewRomanPSMT-76" transform="translate(816.40625 0)"/>
      <use xlink:href="#TimesNewRomanPSMT-61" transform="translate(866.40625 0)"/>
      <use xlink:href="#TimesNewRomanPSMT-6c" transform="translate(910.791016 0)"/>
      <use xlink:href="#TimesNewRomanPSMT-75" transform="translate(938.574219 0)"/>
      <use xlink:href="#TimesNewRomanPSMT-65" transform="translate(988.574219 0)"/>
      <use xlink:href="#TimesNewRomanPSMT-20" transform="translate(1032.958984 0)"/>
      <use xlink:href="#TimesNewRomanPSMT-28" transform="translate(1057.958984 0)"/>
      <use xlink:href="#TimesNewRomanPSMT-24" transform="translate(1091.259766 0)"/>
      <use xlink:href="#TimesNewRomanPSMT-20" transform="translate(1141.259766 0)"/>
      <use xlink:href="#TimesNewRomanPSMT-31" transform="translate(1166.259766 0)"/>
      <use xlink:href="#TimesNewRomanPSMT-65" transform="translate(1216.259766 0)"/>
      <use xlink:href="#TimesNewRomanPSMT-39" transform="translate(1260.644531 0)"/>
      <use xlink:href="#TimesNewRomanPSMT-29" transform="translate(1310.644531 0)"/>
     </g>
    </g>
   </g>
   <g id="patch_3">
    <path d="M 49.82375 493.59625 
L 49.82375 41.6 
" style="fill: none; stroke: #000000; stroke-linejoin: miter; stroke-linecap: square"/>
   </g>
   <g id="patch_4">
    <path d="M 49.82375 493.59625 
L 548.1 493.59625 
" style="fill: none; stroke: #000000; stroke-linejoin: miter; stroke-linecap: square"/>
   </g>
   <g id="text_16">
    <!-- 100.0k -->
    <g transform="translate(481.014283 124.64896) scale(0.08 -0.08)">
     <defs>
      <path id="TimesNewRomanPS-BoldMT-31" d="M 2084 4325 
L 2084 859 
Q 2084 469 2118 361 
Q 2153 253 2262 184 
Q 2372 116 2613 116 
L 2709 116 
L 2709 0 
L 478 0 
L 478 116 
L 591 116 
Q 863 116 978 178 
Q 1094 241 1134 350 
Q 1175 459 1175 859 
L 1175 3056 
Q 1175 3350 1147 3423 
Q 1119 3497 1042 3548 
Q 966 3600 866 3600 
Q 706 3600 478 3500 
L 422 3613 
L 1981 4325 
L 2084 4325 
z
" transform="scale(0.015625)"/>
      <path id="TimesNewRomanPS-BoldMT-30" d="M 2966 2119 
Q 2966 1484 2788 934 
Q 2681 597 2501 381 
Q 2322 166 2094 39 
Q 1866 -88 1597 -88 
Q 1291 -88 1044 68 
Q 797 225 606 516 
Q 469 728 366 1081 
Q 231 1559 231 2069 
Q 231 2759 425 3338 
Q 584 3816 909 4070 
Q 1234 4325 1597 4325 
Q 1966 4325 2286 4073 
Q 2606 3822 2756 3397 
Q 2966 2813 2966 2119 
z
M 2003 2125 
Q 2003 3238 1991 3422 
Q 1959 3856 1841 4009 
Q 1763 4109 1588 4109 
Q 1453 4109 1375 4034 
Q 1259 3925 1218 3648 
Q 1178 3372 1178 1719 
Q 1178 819 1241 513 
Q 1288 291 1375 216 
Q 1463 141 1606 141 
Q 1763 141 1841 241 
Q 1972 416 1991 781 
L 2003 2125 
z
" transform="scale(0.015625)"/>
      <path id="TimesNewRomanPS-BoldMT-2e" d="M 800 963 
Q 1019 963 1170 809 
Q 1322 656 1322 441 
Q 1322 225 1169 73 
Q 1016 -78 800 -78 
Q 584 -78 432 73 
Q 281 225 281 441 
Q 281 656 432 809 
Q 584 963 800 963 
z
" transform="scale(0.015625)"/>
      <path id="TimesNewRomanPS-BoldMT-6b" d="M 1403 4238 
L 1403 1450 
L 2081 2116 
Q 2291 2319 2342 2409 
Q 2394 2500 2394 2584 
Q 2394 2669 2325 2725 
Q 2256 2781 2056 2806 
L 2056 2922 
L 3366 2922 
L 3366 2806 
Q 3178 2797 3037 2717 
Q 2897 2638 2488 2238 
L 2169 1925 
L 2856 919 
Q 3272 306 3350 231 
Q 3456 125 3619 113 
L 3619 0 
L 2109 0 
L 2109 113 
Q 2209 113 2254 150 
Q 2300 188 2300 231 
Q 2300 303 2169 497 
L 1591 1344 
L 1403 1159 
L 1403 634 
Q 1403 300 1465 217 
Q 1528 134 1722 113 
L 1722 0 
L 213 0 
L 213 113 
Q 397 131 475 231 
Q 528 300 528 634 
L 528 3603 
Q 528 3934 467 4015 
Q 406 4097 213 4122 
L 213 4238 
L 1403 4238 
z
" transform="scale(0.015625)"/>
     </defs>
     <use xlink:href="#TimesNewRomanPS-BoldMT-31"/>
     <use xlink:href="#TimesNewRomanPS-BoldMT-30" transform="translate(50 0)"/>
     <use xlink:href="#TimesNewRomanPS-BoldMT-30" transform="translate(100 0)"/>
     <use xlink:href="#TimesNewRomanPS-BoldMT-2e" transform="translate(150 0)"/>
     <use xlink:href="#TimesNewRomanPS-BoldMT-30" transform="translate(175 0)"/>
     <use xlink:href="#TimesNewRomanPS-BoldMT-6b" transform="translate(225 0)"/>
    </g>
   </g>
   <g id="text_17">
    <!-- 100.0k -->
    <g transform="translate(166.464395 284.650778) scale(0.08 -0.08)">
     <use xlink:href="#TimesNewRomanPS-BoldMT-31"/>
     <use xlink:href="#TimesNewRomanPS-BoldMT-30" transform="translate(50 0)"/>
     <use xlink:href="#TimesNewRomanPS-BoldMT-30" transform="translate(100 0)"/>
     <use xlink:href="#TimesNewRomanPS-BoldMT-2e" transform="translate(150 0)"/>
     <use xlink:href="#TimesNewRomanPS-BoldMT-30" transform="translate(175 0)"/>
     <use xlink:href="#TimesNewRomanPS-BoldMT-6b" transform="translate(225 0)"/>
    </g>
   </g>
   <g id="text_18">
    <!-- 100.0k -->
    <g transform="translate(414.736822 128.630949) scale(0.08 -0.08)">
     <use xlink:href="#TimesNewRomanPS-BoldMT-31"/>
     <use xlink:href="#TimesNewRomanPS-BoldMT-30" transform="translate(50 0)"/>
     <use xlink:href="#TimesNewRomanPS-BoldMT-30" transform="translate(100 0)"/>
     <use xlink:href="#TimesNewRomanPS-BoldMT-2e" transform="translate(150 0)"/>
     <use xlink:href="#TimesNewRomanPS-BoldMT-30" transform="translate(175 0)"/>
     <use xlink:href="#TimesNewRomanPS-BoldMT-6b" transform="translate(225 0)"/>
    </g>
   </g>
   <g id="text_19">
    <!-- 100.0k -->
    <g transform="translate(397.343456 95.546538) scale(0.08 -0.08)">
     <use xlink:href="#TimesNewRomanPS-BoldMT-31"/>
     <use xlink:href="#TimesNewRomanPS-BoldMT-30" transform="translate(50 0)"/>
     <use xlink:href="#TimesNewRomanPS-BoldMT-30" transform="translate(100 0)"/>
     <use xlink:href="#TimesNewRomanPS-BoldMT-2e" transform="translate(150 0)"/>
     <use xlink:href="#TimesNewRomanPS-BoldMT-30" transform="translate(175 0)"/>
     <use xlink:href="#TimesNewRomanPS-BoldMT-6b" transform="translate(225 0)"/>
    </g>
   </g>
   <g id="text_20">
    <!-- 100.0k -->
    <g transform="translate(164.399429 207.296787) scale(0.08 -0.08)">
     <use xlink:href="#TimesNewRomanPS-BoldMT-31"/>
     <use xlink:href="#TimesNewRomanPS-BoldMT-30" transform="translate(50 0)"/>
     <use xlink:href="#TimesNewRomanPS-BoldMT-30" transform="translate(100 0)"/>
     <use xlink:href="#TimesNewRomanPS-BoldMT-2e" transform="translate(150 0)"/>
     <use xlink:href="#TimesNewRomanPS-BoldMT-30" transform="translate(175 0)"/>
     <use xlink:href="#TimesNewRomanPS-BoldMT-6b" transform="translate(225 0)"/>
    </g>
   </g>
   <g id="text_21">
    <!-- 100.0k -->
    <g transform="translate(337.205483 404.609953) scale(0.08 -0.08)">
     <use xlink:href="#TimesNewRomanPS-BoldMT-31"/>
     <use xlink:href="#TimesNewRomanPS-BoldMT-30" transform="translate(50 0)"/>
     <use xlink:href="#TimesNewRomanPS-BoldMT-30" transform="translate(100 0)"/>
     <use xlink:href="#TimesNewRomanPS-BoldMT-2e" transform="translate(150 0)"/>
     <use xlink:href="#TimesNewRomanPS-BoldMT-30" transform="translate(175 0)"/>
     <use xlink:href="#TimesNewRomanPS-BoldMT-6b" transform="translate(225 0)"/>
    </g>
   </g>
   <g id="text_22">
    <!-- 100.0k -->
    <g transform="translate(197.200616 387.271321) scale(0.08 -0.08)">
     <use xlink:href="#TimesNewRomanPS-BoldMT-31"/>
     <use xlink:href="#TimesNewRomanPS-BoldMT-30" transform="translate(50 0)"/>
     <use xlink:href="#TimesNewRomanPS-BoldMT-30" transform="translate(100 0)"/>
     <use xlink:href="#TimesNewRomanPS-BoldMT-2e" transform="translate(150 0)"/>
     <use xlink:href="#TimesNewRomanPS-BoldMT-30" transform="translate(175 0)"/>
     <use xlink:href="#TimesNewRomanPS-BoldMT-6b" transform="translate(225 0)"/>
    </g>
   </g>
   <g id="text_23">
    <!-- 100.0k -->
    <g transform="translate(393.253236 226.921524) scale(0.08 -0.08)">
     <use xlink:href="#TimesNewRomanPS-BoldMT-31"/>
     <use xlink:href="#TimesNewRomanPS-BoldMT-30" transform="translate(50 0)"/>
     <use xlink:href="#TimesNewRomanPS-BoldMT-30" transform="translate(100 0)"/>
     <use xlink:href="#TimesNewRomanPS-BoldMT-2e" transform="translate(150 0)"/>
     <use xlink:href="#TimesNewRomanPS-BoldMT-30" transform="translate(175 0)"/>
     <use xlink:href="#TimesNewRomanPS-BoldMT-6b" transform="translate(225 0)"/>
    </g>
   </g>
   <g id="text_24">
    <!-- 100.0k -->
    <g transform="translate(391.347113 378.041484) scale(0.08 -0.08)">
     <use xlink:href="#TimesNewRomanPS-BoldMT-31"/>
     <use xlink:href="#TimesNewRomanPS-BoldMT-30" transform="translate(50 0)"/>
     <use xlink:href="#TimesNewRomanPS-BoldMT-30" transform="translate(100 0)"/>
     <use xlink:href="#TimesNewRomanPS-BoldMT-2e" transform="translate(150 0)"/>
     <use xlink:href="#TimesNewRomanPS-BoldMT-30" transform="translate(175 0)"/>
     <use xlink:href="#TimesNewRomanPS-BoldMT-6b" transform="translate(225 0)"/>
    </g>
   </g>
   <g id="text_25">
    <!-- 100.0k -->
    <g transform="translate(355.654881 400.375459) scale(0.08 -0.08)">
     <use xlink:href="#TimesNewRomanPS-BoldMT-31"/>
     <use xlink:href="#TimesNewRomanPS-BoldMT-30" transform="translate(50 0)"/>
     <use xlink:href="#TimesNewRomanPS-BoldMT-30" transform="translate(100 0)"/>
     <use xlink:href="#TimesNewRomanPS-BoldMT-2e" transform="translate(150 0)"/>
     <use xlink:href="#TimesNewRomanPS-BoldMT-30" transform="translate(175 0)"/>
     <use xlink:href="#TimesNewRomanPS-BoldMT-6b" transform="translate(225 0)"/>
    </g>
   </g>
   <g id="text_26">
    <!-- 100.0k -->
    <g transform="translate(97.72486 443.235962) scale(0.08 -0.08)">
     <use xlink:href="#TimesNewRomanPS-BoldMT-31"/>
     <use xlink:href="#TimesNewRomanPS-BoldMT-30" transform="translate(50 0)"/>
     <use xlink:href="#TimesNewRomanPS-BoldMT-30" transform="translate(100 0)"/>
     <use xlink:href="#TimesNewRomanPS-BoldMT-2e" transform="translate(150 0)"/>
     <use xlink:href="#TimesNewRomanPS-BoldMT-30" transform="translate(175 0)"/>
     <use xlink:href="#TimesNewRomanPS-BoldMT-6b" transform="translate(225 0)"/>
    </g>
   </g>
   <g id="text_27">
    <!-- 100.0k -->
    <g transform="translate(429.310716 113.203325) scale(0.08 -0.08)">
     <use xlink:href="#TimesNewRomanPS-BoldMT-31"/>
     <use xlink:href="#TimesNewRomanPS-BoldMT-30" transform="translate(50 0)"/>
     <use xlink:href="#TimesNewRomanPS-BoldMT-30" transform="translate(100 0)"/>
     <use xlink:href="#TimesNewRomanPS-BoldMT-2e" transform="translate(150 0)"/>
     <use xlink:href="#TimesNewRomanPS-BoldMT-30" transform="translate(175 0)"/>
     <use xlink:href="#TimesNewRomanPS-BoldMT-6b" transform="translate(225 0)"/>
    </g>
   </g>
   <g id="text_28">
    <!-- 100 -->
    <g transform="translate(340.297245 429.830291) scale(0.08 -0.08)">
     <use xlink:href="#TimesNewRomanPS-BoldMT-31"/>
     <use xlink:href="#TimesNewRomanPS-BoldMT-30" transform="translate(50 0)"/>
     <use xlink:href="#TimesNewRomanPS-BoldMT-30" transform="translate(100 0)"/>
    </g>
   </g>
   <g id="text_29">
    <!-- the Correlation of Cultural Trends and Influences -->
    <g transform="translate(141.208125 21.6) scale(0.16 -0.16)">
     <defs>
      <path id="TimesNewRomanPSMT-68" d="M 1041 4444 
L 1041 2350 
Q 1388 2731 1591 2839 
Q 1794 2947 1997 2947 
Q 2241 2947 2416 2812 
Q 2591 2678 2675 2391 
Q 2734 2191 2734 1659 
L 2734 647 
Q 2734 375 2778 275 
Q 2809 200 2884 156 
Q 2959 113 3159 113 
L 3159 0 
L 1753 0 
L 1753 113 
L 1819 113 
Q 2019 113 2097 173 
Q 2175 234 2206 353 
Q 2216 403 2216 647 
L 2216 1659 
Q 2216 2128 2167 2275 
Q 2119 2422 2012 2495 
Q 1906 2569 1756 2569 
Q 1603 2569 1437 2487 
Q 1272 2406 1041 2159 
L 1041 647 
Q 1041 353 1073 281 
Q 1106 209 1195 161 
Q 1284 113 1503 113 
L 1503 0 
L 84 0 
L 84 113 
Q 275 113 384 172 
Q 447 203 484 290 
Q 522 378 522 647 
L 522 3238 
Q 522 3728 498 3840 
Q 475 3953 426 3993 
Q 378 4034 297 4034 
Q 231 4034 84 3984 
L 41 4094 
L 897 4444 
L 1041 4444 
z
" transform="scale(0.015625)"/>
      <path id="TimesNewRomanPSMT-66" d="M 1319 2638 
L 1319 756 
Q 1319 356 1406 250 
Q 1522 113 1716 113 
L 1975 113 
L 1975 0 
L 266 0 
L 266 113 
L 394 113 
Q 519 113 622 175 
Q 725 238 764 344 
Q 803 450 803 756 
L 803 2638 
L 247 2638 
L 247 2863 
L 803 2863 
L 803 3050 
Q 803 3478 940 3775 
Q 1078 4072 1361 4255 
Q 1644 4438 1997 4438 
Q 2325 4438 2600 4225 
Q 2781 4084 2781 3909 
Q 2781 3816 2700 3733 
Q 2619 3650 2525 3650 
Q 2453 3650 2373 3701 
Q 2294 3753 2178 3923 
Q 2063 4094 1966 4153 
Q 1869 4213 1750 4213 
Q 1606 4213 1506 4136 
Q 1406 4059 1362 3898 
Q 1319 3738 1319 3069 
L 1319 2863 
L 2056 2863 
L 2056 2638 
L 1319 2638 
z
" transform="scale(0.015625)"/>
      <path id="TimesNewRomanPSMT-54" d="M 3703 4238 
L 3750 3244 
L 3631 3244 
Q 3597 3506 3538 3619 
Q 3441 3800 3280 3886 
Q 3119 3972 2856 3972 
L 2259 3972 
L 2259 734 
Q 2259 344 2344 247 
Q 2463 116 2709 116 
L 2856 116 
L 2856 0 
L 1059 0 
L 1059 116 
L 1209 116 
Q 1478 116 1591 278 
Q 1659 378 1659 734 
L 1659 3972 
L 1150 3972 
Q 853 3972 728 3928 
Q 566 3869 450 3700 
Q 334 3531 313 3244 
L 194 3244 
L 244 4238 
L 3703 4238 
z
" transform="scale(0.015625)"/>
      <path id="TimesNewRomanPSMT-64" d="M 2222 322 
Q 2013 103 1813 7 
Q 1613 -88 1381 -88 
Q 913 -88 563 304 
Q 213 697 213 1313 
Q 213 1928 600 2439 
Q 988 2950 1597 2950 
Q 1975 2950 2222 2709 
L 2222 3238 
Q 2222 3728 2198 3840 
Q 2175 3953 2125 3993 
Q 2075 4034 2000 4034 
Q 1919 4034 1784 3984 
L 1744 4094 
L 2597 4444 
L 2738 4444 
L 2738 1134 
Q 2738 631 2761 520 
Q 2784 409 2836 365 
Q 2888 322 2956 322 
Q 3041 322 3181 375 
L 3216 266 
L 2366 -88 
L 2222 -88 
L 2222 322 
z
M 2222 541 
L 2222 2016 
Q 2203 2228 2109 2403 
Q 2016 2578 1861 2667 
Q 1706 2756 1559 2756 
Q 1284 2756 1069 2509 
Q 784 2184 784 1559 
Q 784 928 1059 592 
Q 1334 256 1672 256 
Q 1956 256 2222 541 
z
" transform="scale(0.015625)"/>
      <path id="TimesNewRomanPSMT-49" d="M 1975 116 
L 1975 0 
L 159 0 
L 159 116 
L 309 116 
Q 572 116 691 269 
Q 766 369 766 750 
L 766 3488 
Q 766 3809 725 3913 
Q 694 3991 597 4047 
Q 459 4122 309 4122 
L 159 4122 
L 159 4238 
L 1975 4238 
L 1975 4122 
L 1822 4122 
Q 1563 4122 1444 3969 
Q 1366 3869 1366 3488 
L 1366 750 
Q 1366 428 1406 325 
Q 1438 247 1538 191 
Q 1672 116 1822 116 
L 1975 116 
z
" transform="scale(0.015625)"/>
     </defs>
     <use xlink:href="#TimesNewRomanPSMT-74"/>
     <use xlink:href="#TimesNewRomanPSMT-68" transform="translate(27.783203 0)"/>
     <use xlink:href="#TimesNewRomanPSMT-65" transform="translate(77.783203 0)"/>
     <use xlink:href="#TimesNewRomanPSMT-20" transform="translate(122.167969 0)"/>
     <use xlink:href="#TimesNewRomanPSMT-43" transform="translate(147.167969 0)"/>
     <use xlink:href="#TimesNewRomanPSMT-6f" transform="translate(213.867188 0)"/>
     <use xlink:href="#TimesNewRomanPSMT-72" transform="translate(263.867188 0)"/>
     <use xlink:href="#TimesNewRomanPSMT-72" transform="translate(297.167969 0)"/>
     <use xlink:href="#TimesNewRomanPSMT-65" transform="translate(330.46875 0)"/>
     <use xlink:href="#TimesNewRomanPSMT-6c" transform="translate(374.853516 0)"/>
     <use xlink:href="#TimesNewRomanPSMT-61" transform="translate(402.636719 0)"/>
     <use xlink:href="#TimesNewRomanPSMT-74" transform="translate(447.021484 0)"/>
     <use xlink:href="#TimesNewRomanPSMT-69" transform="translate(474.804688 0)"/>
     <use xlink:href="#TimesNewRomanPSMT-6f" transform="translate(502.587891 0)"/>
     <use xlink:href="#TimesNewRomanPSMT-6e" transform="translate(552.587891 0)"/>
     <use xlink:href="#TimesNewRomanPSMT-20" transform="translate(602.587891 0)"/>
     <use xlink:href="#TimesNewRomanPSMT-6f" transform="translate(627.587891 0)"/>
     <use xlink:href="#TimesNewRomanPSMT-66" transform="translate(677.587891 0)"/>
     <use xlink:href="#TimesNewRomanPSMT-20" transform="translate(710.888672 0)"/>
     <use xlink:href="#TimesNewRomanPSMT-43" transform="translate(735.888672 0)"/>
     <use xlink:href="#TimesNewRomanPSMT-75" transform="translate(802.587891 0)"/>
     <use xlink:href="#TimesNewRomanPSMT-6c" transform="translate(852.587891 0)"/>
     <use xlink:href="#TimesNewRomanPSMT-74" transform="translate(880.371094 0)"/>
     <use xlink:href="#TimesNewRomanPSMT-75" transform="translate(908.154297 0)"/>
     <use xlink:href="#TimesNewRomanPSMT-72" transform="translate(958.154297 0)"/>
     <use xlink:href="#TimesNewRomanPSMT-61" transform="translate(991.455078 0)"/>
     <use xlink:href="#TimesNewRomanPSMT-6c" transform="translate(1035.839844 0)"/>
     <use xlink:href="#TimesNewRomanPSMT-20" transform="translate(1063.623047 0)"/>
     <use xlink:href="#TimesNewRomanPSMT-54" transform="translate(1086.873047 0)"/>
     <use xlink:href="#TimesNewRomanPSMT-72" transform="translate(1144.457031 0)"/>
     <use xlink:href="#TimesNewRomanPSMT-65" transform="translate(1177.757812 0)"/>
     <use xlink:href="#TimesNewRomanPSMT-6e" transform="translate(1222.142578 0)"/>
     <use xlink:href="#TimesNewRomanPSMT-64" transform="translate(1272.142578 0)"/>
     <use xlink:href="#TimesNewRomanPSMT-73" transform="translate(1322.142578 0)"/>
     <use xlink:href="#TimesNewRomanPSMT-20" transform="translate(1361.058594 0)"/>
     <use xlink:href="#TimesNewRomanPSMT-61" transform="translate(1386.058594 0)"/>
     <use xlink:href="#TimesNewRomanPSMT-6e" transform="translate(1430.443359 0)"/>
     <use xlink:href="#TimesNewRomanPSMT-64" transform="translate(1480.443359 0)"/>
     <use xlink:href="#TimesNewRomanPSMT-20" transform="translate(1530.443359 0)"/>
     <use xlink:href="#TimesNewRomanPSMT-49" transform="translate(1555.443359 0)"/>
     <use xlink:href="#TimesNewRomanPSMT-6e" transform="translate(1588.744141 0)"/>
     <use xlink:href="#TimesNewRomanPSMT-66" transform="translate(1638.744141 0)"/>
     <use xlink:href="#TimesNewRomanPSMT-6c" transform="translate(1672.044922 0)"/>
     <use xlink:href="#TimesNewRomanPSMT-75" transform="translate(1699.828125 0)"/>
     <use xlink:href="#TimesNewRomanPSMT-65" transform="translate(1749.828125 0)"/>
     <use xlink:href="#TimesNewRomanPSMT-6e" transform="translate(1794.212891 0)"/>
     <use xlink:href="#TimesNewRomanPSMT-63" transform="translate(1844.212891 0)"/>
     <use xlink:href="#TimesNewRomanPSMT-65" transform="translate(1888.597656 0)"/>
     <use xlink:href="#TimesNewRomanPSMT-73" transform="translate(1932.982422 0)"/>
    </g>
   </g>
   <g id="legend_1">
    <g id="patch_5">
     <path d="M 546.694844 167.906656 
L 670.669062 167.906656 
Q 672.669062 167.906656 672.669062 165.906656 
L 672.669062 43.6 
Q 672.669062 41.6 670.669062 41.6 
L 546.694844 41.6 
Q 544.694844 41.6 544.694844 43.6 
L 544.694844 165.906656 
Q 544.694844 167.906656 546.694844 167.906656 
z
" style="fill: #ffffff; opacity: 0.8; stroke: #cccccc; stroke-linejoin: miter"/>
    </g>
    <g id="text_30">
     <!-- Number of people -->
     <g transform="translate(564.694844 69.238125) scale(0.11 -0.11)">
      <defs>
       <path id="TimesNewRomanPSMT-4e" d="M -84 4238 
L 1066 4238 
L 3656 1059 
L 3656 3503 
Q 3656 3894 3569 3991 
Q 3453 4122 3203 4122 
L 3056 4122 
L 3056 4238 
L 4531 4238 
L 4531 4122 
L 4381 4122 
Q 4113 4122 4000 3959 
Q 3931 3859 3931 3503 
L 3931 -69 
L 3819 -69 
L 1025 3344 
L 1025 734 
Q 1025 344 1109 247 
Q 1228 116 1475 116 
L 1625 116 
L 1625 0 
L 150 0 
L 150 116 
L 297 116 
Q 569 116 681 278 
Q 750 378 750 734 
L 750 3681 
Q 566 3897 470 3965 
Q 375 4034 191 4094 
Q 100 4122 -84 4122 
L -84 4238 
z
" transform="scale(0.015625)"/>
       <path id="TimesNewRomanPSMT-62" d="M 984 2369 
Q 1400 2947 1881 2947 
Q 2322 2947 2650 2570 
Q 2978 2194 2978 1541 
Q 2978 778 2472 313 
Q 2038 -88 1503 -88 
Q 1253 -88 995 3 
Q 738 94 469 275 
L 469 3241 
Q 469 3728 445 3840 
Q 422 3953 372 3993 
Q 322 4034 247 4034 
Q 159 4034 28 3984 
L -16 4094 
L 844 4444 
L 984 4444 
L 984 2369 
z
M 984 2169 
L 984 456 
Q 1144 300 1314 220 
Q 1484 141 1663 141 
Q 1947 141 2192 453 
Q 2438 766 2438 1363 
Q 2438 1913 2192 2208 
Q 1947 2503 1634 2503 
Q 1469 2503 1303 2419 
Q 1178 2356 984 2169 
z
" transform="scale(0.015625)"/>
      </defs>
      <use xlink:href="#TimesNewRomanPSMT-4e"/>
      <use xlink:href="#TimesNewRomanPSMT-75" transform="translate(72.216797 0)"/>
      <use xlink:href="#TimesNewRomanPSMT-6d" transform="translate(122.216797 0)"/>
      <use xlink:href="#TimesNewRomanPSMT-62" transform="translate(200 0)"/>
      <use xlink:href="#TimesNewRomanPSMT-65" transform="translate(250 0)"/>
      <use xlink:href="#TimesNewRomanPSMT-72" transform="translate(294.384766 0)"/>
      <use xlink:href="#TimesNewRomanPSMT-20" transform="translate(327.685547 0)"/>
      <use xlink:href="#TimesNewRomanPSMT-6f" transform="translate(352.685547 0)"/>
      <use xlink:href="#TimesNewRomanPSMT-66" transform="translate(402.685547 0)"/>
      <use xlink:href="#TimesNewRomanPSMT-20" transform="translate(435.986328 0)"/>
      <use xlink:href="#TimesNewRomanPSMT-70" transform="translate(460.986328 0)"/>
      <use xlink:href="#TimesNewRomanPSMT-65" transform="translate(510.986328 0)"/>
      <use xlink:href="#TimesNewRomanPSMT-6f" transform="translate(555.371094 0)"/>
      <use xlink:href="#TimesNewRomanPSMT-70" transform="translate(605.371094 0)"/>
      <use xlink:href="#TimesNewRomanPSMT-6c" transform="translate(655.371094 0)"/>
      <use xlink:href="#TimesNewRomanPSMT-65" transform="translate(683.154297 0)"/>
     </g>
     <!-- involved/influenced -->
     <g transform="translate(564.694844 80.756844) scale(0.11 -0.11)">
      <defs>
       <path id="TimesNewRomanPSMT-2f" d="M 1794 4444 
L 259 -88 
L 9 -88 
L 1544 4444 
L 1794 4444 
z
" transform="scale(0.015625)"/>
      </defs>
      <use xlink:href="#TimesNewRomanPSMT-69"/>
      <use xlink:href="#TimesNewRomanPSMT-6e" transform="translate(27.783203 0)"/>
      <use xlink:href="#TimesNewRomanPSMT-76" transform="translate(77.783203 0)"/>
      <use xlink:href="#TimesNewRomanPSMT-6f" transform="translate(127.783203 0)"/>
      <use xlink:href="#TimesNewRomanPSMT-6c" transform="translate(177.783203 0)"/>
      <use xlink:href="#TimesNewRomanPSMT-76" transform="translate(205.566406 0)"/>
      <use xlink:href="#TimesNewRomanPSMT-65" transform="translate(255.566406 0)"/>
      <use xlink:href="#TimesNewRomanPSMT-64" transform="translate(299.951172 0)"/>
      <use xlink:href="#TimesNewRomanPSMT-2f" transform="translate(349.951172 0)"/>
      <use xlink:href="#TimesNewRomanPSMT-69" transform="translate(377.734375 0)"/>
      <use xlink:href="#TimesNewRomanPSMT-6e" transform="translate(405.517578 0)"/>
      <use xlink:href="#TimesNewRomanPSMT-66" transform="translate(455.517578 0)"/>
      <use xlink:href="#TimesNewRomanPSMT-6c" transform="translate(488.818359 0)"/>
      <use xlink:href="#TimesNewRomanPSMT-75" transform="translate(516.601562 0)"/>
      <use xlink:href="#TimesNewRomanPSMT-65" transform="translate(566.601562 0)"/>
      <use xlink:href="#TimesNewRomanPSMT-6e" transform="translate(610.986328 0)"/>
      <use xlink:href="#TimesNewRomanPSMT-63" transform="translate(660.986328 0)"/>
      <use xlink:href="#TimesNewRomanPSMT-65" transform="translate(705.371094 0)"/>
      <use xlink:href="#TimesNewRomanPSMT-64" transform="translate(749.755859 0)"/>
     </g>
     <!-- (count) -->
     <g transform="translate(564.694844 92.275563) scale(0.11 -0.11)">
      <use xlink:href="#TimesNewRomanPSMT-28"/>
      <use xlink:href="#TimesNewRomanPSMT-63" transform="translate(33.300781 0)"/>
      <use xlink:href="#TimesNewRomanPSMT-6f" transform="translate(77.685547 0)"/>
      <use xlink:href="#TimesNewRomanPSMT-75" transform="translate(127.685547 0)"/>
      <use xlink:href="#TimesNewRomanPSMT-6e" transform="translate(177.685547 0)"/>
      <use xlink:href="#TimesNewRomanPSMT-74" transform="translate(227.685547 0)"/>
      <use xlink:href="#TimesNewRomanPSMT-29" transform="translate(255.46875 0)"/>
     </g>
    </g>
    <g id="PathCollection_4">
     <defs>
      <path id="mebf57906cc" d="M 0 7.926655 
C 2.102173 7.926655 4.11853 7.091452 5.604991 5.604991 
C 7.091452 4.11853 7.926655 2.102173 7.926655 0 
C 7.926655 -2.102173 7.091452 -4.11853 5.604991 -5.604991 
C 4.11853 -7.091452 2.102173 -7.926655 0 -7.926655 
C -2.102173 -7.926655 -4.11853 -7.091452 -5.604991 -5.604991 
C -7.091452 -4.11853 -7.926655 -2.102173 -7.926655 0 
C -7.926655 2.102173 -7.091452 4.11853 -5.604991 5.604991 
C -4.11853 7.091452 -2.102173 7.926655 0 7.926655 
z
" style="stroke: #000000; stroke-opacity: 0.7; stroke-width: 0.5"/>
     </defs>
     <g>
      <use xlink:href="#mebf57906cc" x="584.931953" y="116.503531" style="fill: #e377c2; fill-opacity: 0.7; stroke: #000000; stroke-opacity: 0.7; stroke-width: 0.5"/>
     </g>
    </g>
    <g id="text_31">
     <!-- 100 -->
     <g transform="translate(612.431953 119.128531) scale(0.1 -0.1)">
      <use xlink:href="#TimesNewRomanPSMT-31"/>
      <use xlink:href="#TimesNewRomanPSMT-30" transform="translate(50 0)"/>
      <use xlink:href="#TimesNewRomanPSMT-30" transform="translate(100 0)"/>
     </g>
    </g>
    <g id="PathCollection_5">
     <defs>
      <path id="mda47a0d180" d="M 0 15.853309 
C 4.204347 15.853309 8.23706 14.182905 11.209982 11.209982 
C 14.182905 8.23706 15.853309 4.204347 15.853309 0 
C 15.853309 -4.204347 14.182905 -8.23706 11.209982 -11.209982 
C 8.23706 -14.182905 4.204347 -15.853309 0 -15.853309 
C -4.204347 -15.853309 -8.23706 -14.182905 -11.209982 -11.209982 
C -14.182905 -8.23706 -15.853309 -4.204347 -15.853309 0 
C -15.853309 4.204347 -14.182905 8.23706 -11.209982 11.209982 
C -8.23706 14.182905 -4.204347 15.853309 0 15.853309 
z
" style="stroke: #000000; stroke-opacity: 0.7; stroke-width: 0.5"/>
     </defs>
     <g>
      <use xlink:href="#mda47a0d180" x="584.931953" y="143.142594" style="fill: #e377c2; fill-opacity: 0.7; stroke: #000000; stroke-opacity: 0.7; stroke-width: 0.5"/>
     </g>
    </g>
    <g id="text_32">
     <!-- 100.0k -->
     <g transform="translate(612.431953 145.767594) scale(0.1 -0.1)">
      <use xlink:href="#TimesNewRomanPSMT-31"/>
      <use xlink:href="#TimesNewRomanPSMT-30" transform="translate(50 0)"/>
      <use xlink:href="#TimesNewRomanPSMT-30" transform="translate(100 0)"/>
      <use xlink:href="#TimesNewRomanPSMT-2e" transform="translate(150 0)"/>
      <use xlink:href="#TimesNewRomanPSMT-30" transform="translate(175 0)"/>
      <use xlink:href="#TimesNewRomanPSMT-6b" transform="translate(225 0)"/>
     </g>
    </g>
   </g>
  </g>
 </g>
 <defs>
  <clipPath id="p5a282b2420">
   <rect x="49.82375" y="41.6" width="498.27625" height="451.99625"/>
  </clipPath>
 </defs>
</svg>
