<?xml version="1.0" encoding="utf-8" standalone="no"?>
<!DOCTYPE svg PUBLIC "-//W3C//DTD SVG 1.1//EN"
  "http://www.w3.org/Graphics/SVG/1.1/DTD/svg11.dtd">
<svg xmlns:xlink="http://www.w3.org/1999/xlink" width="720pt" height="540pt" viewBox="0 0 720 540" xmlns="http://www.w3.org/2000/svg" version="1.1">
 <metadata>
  <rdf:RDF xmlns:dc="http://purl.org/dc/elements/1.1/" xmlns:cc="http://creativecommons.org/ns#" xmlns:rdf="http://www.w3.org/1999/02/22-rdf-syntax-ns#">
   <cc:Work>
    <dc:type rdf:resource="http://purl.org/dc/dcmitype/StillImage"/>
    <dc:date>2025-05-25T11:54:37.773770</dc:date>
    <dc:format>image/svg+xml</dc:format>
    <dc:creator>
     <cc:Agent>
      <dc:title>Matplotlib v3.10.0, https://matplotlib.org/</dc:title>
     </cc:Agent>
    </dc:creator>
   </cc:Work>
  </rdf:RDF>
 </metadata>
 <defs>
  <style type="text/css">*{stroke-linejoin: round; stroke-linecap: butt}</style>
 </defs>
 <g id="figure_1">
  <g id="patch_1">
   <path d="M 0 540 
L 720 540 
L 720 0 
L 0 0 
z
" style="fill: #ffffff"/>
  </g>
  <g id="axes_1">
   <g id="patch_2">
    <path d="M 49.82375 493.59625 
L 548.1 493.59625 
L 548.1 41.6 
L 49.82375 41.6 
z
" style="fill: #ffffff"/>
   </g>
   <g id="PathCollection_1">
    <path d="M 340.657117 361.568102 
C 345.357719 361.568102 349.86643 359.700532 353.190258 356.376704 
C 356.514086 353.052876 358.381655 348.544166 358.381655 343.843563 
C 358.381655 339.14296 356.514086 334.63425 353.190258 331.310422 
C 349.86643 327.986594 345.357719 326.119025 340.657117 326.119025 
C 335.956514 326.119025 331.447803 327.986594 328.123975 331.310422 
C 324.800148 334.63425 322.932578 339.14296 322.932578 343.843563 
C 322.932578 348.544166 324.800148 353.052876 328.123975 356.376704 
C 331.447803 359.700532 335.956514 361.568102 340.657117 361.568102 
z
" clip-path="url(#p7371f1bf1b)" style="fill: #9467bd; fill-opacity: 0.7; stroke: #000000; stroke-opacity: 0.7; stroke-width: 0.5"/>
    <path d="M 445.907242 130.608029 
C 450.220352 130.608029 454.357389 128.894413 457.407219 125.844583 
C 460.457048 122.794753 462.170665 118.657716 462.170665 114.344606 
C 462.170665 110.031496 460.457048 105.894459 457.407219 102.844629 
C 454.357389 99.7948 450.220352 98.081183 445.907242 98.081183 
C 441.594132 98.081183 437.457094 99.7948 434.407265 102.844629 
C 431.357435 105.894459 429.643819 110.031496 429.643819 114.344606 
C 429.643819 118.657716 431.357435 122.794753 434.407265 125.844583 
C 437.457094 128.894413 441.594132 130.608029 445.907242 130.608029 
z
" clip-path="url(#p7371f1bf1b)" style="fill: #9467bd; fill-opacity: 0.7; stroke: #000000; stroke-opacity: 0.7; stroke-width: 0.5"/>
    <path d="M 128.963748 160.340672 
C 133.160615 160.340672 137.186154 158.673239 140.153787 155.705606 
C 143.121421 152.737973 144.788854 148.712434 144.788854 144.515567 
C 144.788854 140.3187 143.121421 136.29316 140.153787 133.325527 
C 137.186154 130.357894 133.160615 128.690461 128.963748 128.690461 
C 124.766881 128.690461 120.741342 130.357894 117.773708 133.325527 
C 114.806075 136.29316 113.138642 140.3187 113.138642 144.515567 
C 113.138642 148.712434 114.806075 152.737973 117.773708 155.705606 
C 120.741342 158.673239 124.766881 160.340672 128.963748 160.340672 
z
" clip-path="url(#p7371f1bf1b)" style="fill: #9467bd; fill-opacity: 0.7; stroke: #000000; stroke-opacity: 0.7; stroke-width: 0.5"/>
    <path d="M 363.113318 215.250165 
C 366.950977 215.250165 370.631972 213.725447 373.345607 211.011812 
C 376.059242 208.298177 377.58396 204.617182 377.58396 200.779523 
C 377.58396 196.941864 376.059242 193.260869 373.345607 190.547234 
C 370.631972 187.833599 366.950977 186.308881 363.113318 186.308881 
C 359.275658 186.308881 355.594663 187.833599 352.881028 190.547234 
C 350.167394 193.260869 348.642675 196.941864 348.642675 200.779523 
C 348.642675 204.617182 350.167394 208.298177 352.881028 211.011812 
C 355.594663 213.725447 359.275658 215.250165 363.113318 215.250165 
z
" clip-path="url(#p7371f1bf1b)" style="fill: #9467bd; fill-opacity: 0.7; stroke: #000000; stroke-opacity: 0.7; stroke-width: 0.5"/>
    <path d="M 204.726793 362.174164 
C 208.530768 362.174164 212.179454 360.662829 214.86927 357.973012 
C 217.559086 355.283196 219.070422 351.63451 219.070422 347.830536 
C 219.070422 344.026561 217.559086 340.377875 214.86927 337.688059 
C 212.179454 334.998243 208.530768 333.486907 204.726793 333.486907 
C 200.922819 333.486907 197.274133 334.998243 194.584317 337.688059 
C 191.8945 340.377875 190.383165 344.026561 190.383165 347.830536 
C 190.383165 351.63451 191.8945 355.283196 194.584317 357.973012 
C 197.274133 360.662829 200.922819 362.174164 204.726793 362.174164 
z
" clip-path="url(#p7371f1bf1b)" style="fill: #9467bd; fill-opacity: 0.7; stroke: #000000; stroke-opacity: 0.7; stroke-width: 0.5"/>
    <path d="M 213.888242 375.237426 
C 217.336217 375.237426 220.643437 373.867531 223.081524 371.429444 
C 225.519611 368.991357 226.889506 365.684137 226.889506 362.236162 
C 226.889506 358.788186 225.519611 355.480967 223.081524 353.04288 
C 220.643437 350.604793 217.336217 349.234898 213.888242 349.234898 
C 210.440266 349.234898 207.133046 350.604793 204.694959 353.04288 
C 202.256872 355.480967 200.886977 358.788186 200.886977 362.236162 
C 200.886977 365.684137 202.256872 368.991357 204.694959 371.429444 
C 207.133046 373.867531 210.440266 375.237426 213.888242 375.237426 
z
" clip-path="url(#p7371f1bf1b)" style="fill: #9467bd; fill-opacity: 0.7; stroke: #000000; stroke-opacity: 0.7; stroke-width: 0.5"/>
    <path d="M 107.317163 154.236205 
C 110.669903 154.236205 113.885774 152.904147 116.256519 150.533403 
C 118.627263 148.162658 119.959321 144.946787 119.959321 141.594048 
C 119.959321 138.241308 118.627263 135.025437 116.256519 132.654692 
C 113.885774 130.283948 110.669903 128.95189 107.317163 128.95189 
C 103.964424 128.95189 100.748553 130.283948 98.377808 132.654692 
C 96.007064 135.025437 94.675006 138.241308 94.675006 141.594048 
C 94.675006 144.946787 96.007064 148.162658 98.377808 150.533403 
C 100.748553 152.904147 103.964424 154.236205 107.317163 154.236205 
z
" clip-path="url(#p7371f1bf1b)" style="fill: #9467bd; fill-opacity: 0.7; stroke: #000000; stroke-opacity: 0.7; stroke-width: 0.5"/>
    <path d="M 115.967275 384.233171 
C 119.317276 384.233171 122.530521 382.902201 124.899329 380.533393 
C 127.268138 378.164584 128.599107 374.951339 128.599107 371.601338 
C 128.599107 368.251337 127.268138 365.038092 124.899329 362.669284 
C 122.530521 360.300475 119.317276 358.969506 115.967275 358.969506 
C 112.617274 358.969506 109.404029 360.300475 107.035221 362.669284 
C 104.666412 365.038092 103.335443 368.251337 103.335443 371.601338 
C 103.335443 374.951339 104.666412 378.164584 107.035221 380.533393 
C 109.404029 382.902201 112.617274 384.233171 115.967275 384.233171 
z
" clip-path="url(#p7371f1bf1b)" style="fill: #9467bd; fill-opacity: 0.7; stroke: #000000; stroke-opacity: 0.7; stroke-width: 0.5"/>
    <path d="M 490.606587 271.154299 
C 493.745912 271.154299 496.757081 269.907032 498.976919 267.687194 
C 501.196756 265.467356 502.444024 262.456187 502.444024 259.316862 
C 502.444024 256.177537 501.196756 253.166368 498.976919 250.94653 
C 496.757081 248.726692 493.745912 247.479425 490.606587 247.479425 
C 487.467262 247.479425 484.456093 248.726692 482.236255 250.94653 
C 480.016417 253.166368 478.76915 256.177537 478.76915 259.316862 
C 478.76915 262.456187 480.016417 265.467356 482.236255 267.687194 
C 484.456093 269.907032 487.467262 271.154299 490.606587 271.154299 
z
" clip-path="url(#p7371f1bf1b)" style="fill: #9467bd; fill-opacity: 0.7; stroke: #000000; stroke-opacity: 0.7; stroke-width: 0.5"/>
    <path d="M 415.141821 451.6803 
C 417.856828 451.6803 420.461001 450.601616 422.3808 448.681816 
C 424.3006 446.762016 425.379284 444.157844 425.379284 441.442837 
C 425.379284 438.72783 424.3006 436.123657 422.3808 434.203857 
C 420.461001 432.284057 417.856828 431.205373 415.141821 431.205373 
C 412.426814 431.205373 409.822641 432.284057 407.902841 434.203857 
C 405.983041 436.123657 404.904358 438.72783 404.904358 441.442837 
C 404.904358 444.157844 405.983041 446.762016 407.902841 448.681816 
C 409.822641 450.601616 412.426814 451.6803 415.141821 451.6803 
z
" clip-path="url(#p7371f1bf1b)" style="fill: #9467bd; fill-opacity: 0.7; stroke: #000000; stroke-opacity: 0.7; stroke-width: 0.5"/>
    <path d="M 238.389789 161.938176 
C 241.063173 161.938176 243.627422 160.876029 245.517791 158.985661 
C 247.408159 157.095293 248.470306 154.531044 248.470306 151.85766 
C 248.470306 149.184275 247.408159 146.620026 245.517791 144.729658 
C 243.627422 142.83929 241.063173 141.777143 238.389789 141.777143 
C 235.716405 141.777143 233.152155 142.83929 231.261787 144.729658 
C 229.371419 146.620026 228.309272 149.184275 228.309272 151.85766 
C 228.309272 154.531044 229.371419 157.095293 231.261787 158.985661 
C 233.152155 160.876029 235.716405 161.938176 238.389789 161.938176 
z
" clip-path="url(#p7371f1bf1b)" style="fill: #9467bd; fill-opacity: 0.7; stroke: #000000; stroke-opacity: 0.7; stroke-width: 0.5"/>
    <path d="M 372.487823 157.370515 
C 375.134053 157.370515 377.672257 156.319156 379.543424 154.447989 
C 381.414591 152.576822 382.46595 150.038618 382.46595 147.392388 
C 382.46595 144.746158 381.414591 142.207954 379.543424 140.336787 
C 377.672257 138.465619 375.134053 137.414261 372.487823 137.414261 
C 369.841593 137.414261 367.303389 138.465619 365.432222 140.336787 
C 363.561054 142.207954 362.509696 144.746158 362.509696 147.392388 
C 362.509696 150.038618 363.561054 152.576822 365.432222 154.447989 
C 367.303389 156.319156 369.841593 157.370515 372.487823 157.370515 
z
" clip-path="url(#p7371f1bf1b)" style="fill: #9467bd; fill-opacity: 0.7; stroke: #000000; stroke-opacity: 0.7; stroke-width: 0.5"/>
    <path d="M 311.723985 103.129615 
C 314.210583 103.129615 316.595671 102.141679 318.353961 100.383389 
C 320.112251 98.625099 321.100187 96.240011 321.100187 93.753413 
C 321.100187 91.266816 320.112251 88.881728 318.353961 87.123438 
C 316.595671 85.365148 314.210583 84.377212 311.723985 84.377212 
C 309.237388 84.377212 306.8523 85.365148 305.09401 87.123438 
C 303.33572 88.881728 302.347784 91.266816 302.347784 93.753413 
C 302.347784 96.240011 303.33572 98.625099 305.09401 100.383389 
C 306.8523 102.141679 309.237388 103.129615 311.723985 103.129615 
z
" clip-path="url(#p7371f1bf1b)" style="fill: #9467bd; fill-opacity: 0.7; stroke: #000000; stroke-opacity: 0.7; stroke-width: 0.5"/>
    <path d="M 337.972599 286.831289 
C 340.423709 286.831289 342.774756 285.857453 344.507952 284.124257 
C 346.241148 282.391061 347.214984 280.040013 347.214984 277.588904 
C 347.214984 275.137795 346.241148 272.786747 344.507952 271.053551 
C 342.774756 269.320355 340.423709 268.346519 337.972599 268.346519 
C 335.52149 268.346519 333.170442 269.320355 331.437247 271.053551 
C 329.704051 272.786747 328.730215 275.137795 328.730215 277.588904 
C 328.730215 280.040013 329.704051 282.391061 331.437247 284.124257 
C 333.170442 285.857453 335.52149 286.831289 337.972599 286.831289 
z
" clip-path="url(#p7371f1bf1b)" style="fill: #9467bd; fill-opacity: 0.7; stroke: #000000; stroke-opacity: 0.7; stroke-width: 0.5"/>
    <path d="M 302.34948 340.656256 
C 304.699782 340.656256 306.954137 339.722471 308.616051 338.060557 
C 310.277965 336.398643 311.211749 334.144288 311.211749 331.793987 
C 311.211749 329.443685 310.277965 327.18933 308.616051 325.527416 
C 306.954137 323.865502 304.699782 322.931717 302.34948 322.931717 
C 299.999179 322.931717 297.744824 323.865502 296.08291 325.527416 
C 294.420996 327.18933 293.487211 329.443685 293.487211 331.793987 
C 293.487211 334.144288 294.420996 336.398643 296.08291 338.060557 
C 297.744824 339.722471 299.999179 340.656256 302.34948 340.656256 
z
" clip-path="url(#p7371f1bf1b)" style="fill: #9467bd; fill-opacity: 0.7; stroke: #000000; stroke-opacity: 0.7; stroke-width: 0.5"/>
   </g>
   <g id="PathCollection_2"/>
   <g id="PathCollection_3"/>
   <g id="matplotlib.axis_1">
    <g id="xtick_1">
     <g id="line2d_1">
      <defs>
       <path id="m85f4135d81" d="M 0 0 
L 0 3.5 
" style="stroke: #000000"/>
      </defs>
      <g>
       <use xlink:href="#m85f4135d81" x="72.034935" y="493.59625" style="stroke: #000000"/>
      </g>
     </g>
     <g id="text_1">
      <!-- 0 -->
      <g transform="translate(69.034935 508.92875) scale(0.12 -0.12)">
       <defs>
        <path id="TimesNewRomanPSMT-30" d="M 231 2094 
Q 231 2819 450 3342 
Q 669 3866 1031 4122 
Q 1313 4325 1613 4325 
Q 2100 4325 2488 3828 
Q 2972 3213 2972 2159 
Q 2972 1422 2759 906 
Q 2547 391 2217 158 
Q 1888 -75 1581 -75 
Q 975 -75 572 641 
Q 231 1244 231 2094 
z
M 844 2016 
Q 844 1141 1059 588 
Q 1238 122 1591 122 
Q 1759 122 1940 273 
Q 2122 425 2216 781 
Q 2359 1319 2359 2297 
Q 2359 3022 2209 3506 
Q 2097 3866 1919 4016 
Q 1791 4119 1609 4119 
Q 1397 4119 1231 3928 
Q 1006 3669 925 3112 
Q 844 2556 844 2016 
z
" transform="scale(0.015625)"/>
       </defs>
       <use xlink:href="#TimesNewRomanPSMT-30"/>
      </g>
     </g>
    </g>
    <g id="xtick_2">
     <g id="line2d_2">
      <g>
       <use xlink:href="#m85f4135d81" x="157.257709" y="493.59625" style="stroke: #000000"/>
      </g>
     </g>
     <g id="text_2">
      <!-- 20 -->
      <g transform="translate(151.257709 508.92875) scale(0.12 -0.12)">
       <defs>
        <path id="TimesNewRomanPSMT-32" d="M 2934 816 
L 2638 0 
L 138 0 
L 138 116 
Q 1241 1122 1691 1759 
Q 2141 2397 2141 2925 
Q 2141 3328 1894 3587 
Q 1647 3847 1303 3847 
Q 991 3847 742 3664 
Q 494 3481 375 3128 
L 259 3128 
Q 338 3706 661 4015 
Q 984 4325 1469 4325 
Q 1984 4325 2329 3994 
Q 2675 3663 2675 3213 
Q 2675 2891 2525 2569 
Q 2294 2063 1775 1497 
Q 997 647 803 472 
L 1909 472 
Q 2247 472 2383 497 
Q 2519 522 2628 598 
Q 2738 675 2819 816 
L 2934 816 
z
" transform="scale(0.015625)"/>
       </defs>
       <use xlink:href="#TimesNewRomanPSMT-32"/>
       <use xlink:href="#TimesNewRomanPSMT-30" transform="translate(50 0)"/>
      </g>
     </g>
    </g>
    <g id="xtick_3">
     <g id="line2d_3">
      <g>
       <use xlink:href="#m85f4135d81" x="242.480482" y="493.59625" style="stroke: #000000"/>
      </g>
     </g>
     <g id="text_3">
      <!-- 40 -->
      <g transform="translate(236.480482 508.92875) scale(0.12 -0.12)">
       <defs>
        <path id="TimesNewRomanPSMT-34" d="M 2978 1563 
L 2978 1119 
L 2409 1119 
L 2409 0 
L 1894 0 
L 1894 1119 
L 100 1119 
L 100 1519 
L 2066 4325 
L 2409 4325 
L 2409 1563 
L 2978 1563 
z
M 1894 1563 
L 1894 3666 
L 406 1563 
L 1894 1563 
z
" transform="scale(0.015625)"/>
       </defs>
       <use xlink:href="#TimesNewRomanPSMT-34"/>
       <use xlink:href="#TimesNewRomanPSMT-30" transform="translate(50 0)"/>
      </g>
     </g>
    </g>
    <g id="xtick_4">
     <g id="line2d_4">
      <g>
       <use xlink:href="#m85f4135d81" x="327.703255" y="493.59625" style="stroke: #000000"/>
      </g>
     </g>
     <g id="text_4">
      <!-- 60 -->
      <g transform="translate(321.703255 508.92875) scale(0.12 -0.12)">
       <defs>
        <path id="TimesNewRomanPSMT-36" d="M 2869 4325 
L 2869 4209 
Q 2456 4169 2195 4045 
Q 1934 3922 1679 3669 
Q 1425 3416 1258 3105 
Q 1091 2794 978 2366 
Q 1428 2675 1881 2675 
Q 2316 2675 2634 2325 
Q 2953 1975 2953 1425 
Q 2953 894 2631 456 
Q 2244 -75 1606 -75 
Q 1172 -75 869 213 
Q 275 772 275 1663 
Q 275 2231 503 2743 
Q 731 3256 1154 3653 
Q 1578 4050 1965 4187 
Q 2353 4325 2688 4325 
L 2869 4325 
z
M 925 2138 
Q 869 1716 869 1456 
Q 869 1156 980 804 
Q 1091 453 1309 247 
Q 1469 100 1697 100 
Q 1969 100 2183 356 
Q 2397 613 2397 1088 
Q 2397 1622 2184 2012 
Q 1972 2403 1581 2403 
Q 1463 2403 1327 2353 
Q 1191 2303 925 2138 
z
" transform="scale(0.015625)"/>
       </defs>
       <use xlink:href="#TimesNewRomanPSMT-36"/>
       <use xlink:href="#TimesNewRomanPSMT-30" transform="translate(50 0)"/>
      </g>
     </g>
    </g>
    <g id="xtick_5">
     <g id="line2d_5">
      <g>
       <use xlink:href="#m85f4135d81" x="412.926029" y="493.59625" style="stroke: #000000"/>
      </g>
     </g>
     <g id="text_5">
      <!-- 80 -->
      <g transform="translate(406.926029 508.92875) scale(0.12 -0.12)">
       <defs>
        <path id="TimesNewRomanPSMT-38" d="M 1228 2134 
Q 725 2547 579 2797 
Q 434 3047 434 3316 
Q 434 3728 753 4026 
Q 1072 4325 1600 4325 
Q 2113 4325 2425 4047 
Q 2738 3769 2738 3413 
Q 2738 3175 2569 2928 
Q 2400 2681 1866 2347 
Q 2416 1922 2594 1678 
Q 2831 1359 2831 1006 
Q 2831 559 2490 242 
Q 2150 -75 1597 -75 
Q 994 -75 656 303 
Q 388 606 388 966 
Q 388 1247 577 1523 
Q 766 1800 1228 2134 
z
M 1719 2469 
Q 2094 2806 2194 3001 
Q 2294 3197 2294 3444 
Q 2294 3772 2109 3958 
Q 1925 4144 1606 4144 
Q 1288 4144 1088 3959 
Q 888 3775 888 3528 
Q 888 3366 970 3203 
Q 1053 3041 1206 2894 
L 1719 2469 
z
M 1375 2016 
Q 1116 1797 991 1539 
Q 866 1281 866 981 
Q 866 578 1086 336 
Q 1306 94 1647 94 
Q 1984 94 2187 284 
Q 2391 475 2391 747 
Q 2391 972 2272 1150 
Q 2050 1481 1375 2016 
z
" transform="scale(0.015625)"/>
       </defs>
       <use xlink:href="#TimesNewRomanPSMT-38"/>
       <use xlink:href="#TimesNewRomanPSMT-30" transform="translate(50 0)"/>
      </g>
     </g>
    </g>
    <g id="xtick_6">
     <g id="line2d_6">
      <g>
       <use xlink:href="#m85f4135d81" x="498.148802" y="493.59625" style="stroke: #000000"/>
      </g>
     </g>
     <g id="text_6">
      <!-- 100 -->
      <g transform="translate(489.148802 508.92875) scale(0.12 -0.12)">
       <defs>
        <path id="TimesNewRomanPSMT-31" d="M 750 3822 
L 1781 4325 
L 1884 4325 
L 1884 747 
Q 1884 391 1914 303 
Q 1944 216 2037 169 
Q 2131 122 2419 116 
L 2419 0 
L 825 0 
L 825 116 
Q 1125 122 1212 167 
Q 1300 213 1334 289 
Q 1369 366 1369 747 
L 1369 3034 
Q 1369 3497 1338 3628 
Q 1316 3728 1258 3775 
Q 1200 3822 1119 3822 
Q 1003 3822 797 3725 
L 750 3822 
z
" transform="scale(0.015625)"/>
       </defs>
       <use xlink:href="#TimesNewRomanPSMT-31"/>
       <use xlink:href="#TimesNewRomanPSMT-30" transform="translate(50 0)"/>
       <use xlink:href="#TimesNewRomanPSMT-30" transform="translate(100 0)"/>
      </g>
     </g>
    </g>
    <g id="text_7">
     <!-- Artist popularity rank (rank) -->
     <g transform="translate(219.457188 525.216875) scale(0.14 -0.14)">
      <defs>
       <path id="TimesNewRomanPSMT-41" d="M 2928 1419 
L 1288 1419 
L 1000 750 
Q 894 503 894 381 
Q 894 284 986 211 
Q 1078 138 1384 116 
L 1384 0 
L 50 0 
L 50 116 
Q 316 163 394 238 
Q 553 388 747 847 
L 2238 4334 
L 2347 4334 
L 3822 809 
Q 4000 384 4145 257 
Q 4291 131 4550 116 
L 4550 0 
L 2878 0 
L 2878 116 
Q 3131 128 3220 200 
Q 3309 272 3309 375 
Q 3309 513 3184 809 
L 2928 1419 
z
M 2841 1650 
L 2122 3363 
L 1384 1650 
L 2841 1650 
z
" transform="scale(0.015625)"/>
       <path id="TimesNewRomanPSMT-72" d="M 1038 2947 
L 1038 2303 
Q 1397 2947 1775 2947 
Q 1947 2947 2059 2842 
Q 2172 2738 2172 2600 
Q 2172 2478 2090 2393 
Q 2009 2309 1897 2309 
Q 1788 2309 1652 2417 
Q 1516 2525 1450 2525 
Q 1394 2525 1328 2463 
Q 1188 2334 1038 2041 
L 1038 669 
Q 1038 431 1097 309 
Q 1138 225 1241 169 
Q 1344 113 1538 113 
L 1538 0 
L 72 0 
L 72 113 
Q 291 113 397 181 
Q 475 231 506 341 
Q 522 394 522 644 
L 522 1753 
Q 522 2253 501 2348 
Q 481 2444 426 2487 
Q 372 2531 291 2531 
Q 194 2531 72 2484 
L 41 2597 
L 906 2947 
L 1038 2947 
z
" transform="scale(0.015625)"/>
       <path id="TimesNewRomanPSMT-74" d="M 1031 3803 
L 1031 2863 
L 1700 2863 
L 1700 2644 
L 1031 2644 
L 1031 788 
Q 1031 509 1111 412 
Q 1191 316 1316 316 
Q 1419 316 1516 380 
Q 1613 444 1666 569 
L 1788 569 
Q 1678 263 1478 108 
Q 1278 -47 1066 -47 
Q 922 -47 784 33 
Q 647 113 581 261 
Q 516 409 516 719 
L 516 2644 
L 63 2644 
L 63 2747 
Q 234 2816 414 2980 
Q 594 3144 734 3369 
Q 806 3488 934 3803 
L 1031 3803 
z
" transform="scale(0.015625)"/>
       <path id="TimesNewRomanPSMT-69" d="M 928 4444 
Q 1059 4444 1151 4351 
Q 1244 4259 1244 4128 
Q 1244 3997 1151 3903 
Q 1059 3809 928 3809 
Q 797 3809 703 3903 
Q 609 3997 609 4128 
Q 609 4259 701 4351 
Q 794 4444 928 4444 
z
M 1188 2947 
L 1188 647 
Q 1188 378 1227 289 
Q 1266 200 1342 156 
Q 1419 113 1622 113 
L 1622 0 
L 231 0 
L 231 113 
Q 441 113 512 153 
Q 584 194 626 287 
Q 669 381 669 647 
L 669 1750 
Q 669 2216 641 2353 
Q 619 2453 572 2492 
Q 525 2531 444 2531 
Q 356 2531 231 2484 
L 188 2597 
L 1050 2947 
L 1188 2947 
z
" transform="scale(0.015625)"/>
       <path id="TimesNewRomanPSMT-73" d="M 2050 2947 
L 2050 1972 
L 1947 1972 
Q 1828 2431 1642 2597 
Q 1456 2763 1169 2763 
Q 950 2763 815 2647 
Q 681 2531 681 2391 
Q 681 2216 781 2091 
Q 878 1963 1175 1819 
L 1631 1597 
Q 2266 1288 2266 781 
Q 2266 391 1970 151 
Q 1675 -88 1309 -88 
Q 1047 -88 709 6 
Q 606 38 541 38 
Q 469 38 428 -44 
L 325 -44 
L 325 978 
L 428 978 
Q 516 541 762 319 
Q 1009 97 1316 97 
Q 1531 97 1667 223 
Q 1803 350 1803 528 
Q 1803 744 1651 891 
Q 1500 1038 1047 1263 
Q 594 1488 453 1669 
Q 313 1847 313 2119 
Q 313 2472 555 2709 
Q 797 2947 1181 2947 
Q 1350 2947 1591 2875 
Q 1750 2828 1803 2828 
Q 1853 2828 1881 2850 
Q 1909 2872 1947 2947 
L 2050 2947 
z
" transform="scale(0.015625)"/>
       <path id="TimesNewRomanPSMT-20" transform="scale(0.015625)"/>
       <path id="TimesNewRomanPSMT-70" d="M -6 2578 
L 875 2934 
L 994 2934 
L 994 2266 
Q 1216 2644 1439 2795 
Q 1663 2947 1909 2947 
Q 2341 2947 2628 2609 
Q 2981 2197 2981 1534 
Q 2981 794 2556 309 
Q 2206 -88 1675 -88 
Q 1444 -88 1275 -22 
Q 1150 25 994 166 
L 994 -706 
Q 994 -1000 1030 -1079 
Q 1066 -1159 1155 -1206 
Q 1244 -1253 1478 -1253 
L 1478 -1369 
L -22 -1369 
L -22 -1253 
L 56 -1253 
Q 228 -1256 350 -1188 
Q 409 -1153 442 -1076 
Q 475 -1000 475 -688 
L 475 2019 
Q 475 2297 450 2372 
Q 425 2447 370 2484 
Q 316 2522 222 2522 
Q 147 2522 31 2478 
L -6 2578 
z
M 994 2081 
L 994 1013 
Q 994 666 1022 556 
Q 1066 375 1236 237 
Q 1406 100 1666 100 
Q 1978 100 2172 344 
Q 2425 663 2425 1241 
Q 2425 1897 2138 2250 
Q 1938 2494 1663 2494 
Q 1513 2494 1366 2419 
Q 1253 2363 994 2081 
z
" transform="scale(0.015625)"/>
       <path id="TimesNewRomanPSMT-6f" d="M 1600 2947 
Q 2250 2947 2644 2453 
Q 2978 2031 2978 1484 
Q 2978 1100 2793 706 
Q 2609 313 2286 112 
Q 1963 -88 1566 -88 
Q 919 -88 538 428 
Q 216 863 216 1403 
Q 216 1797 411 2186 
Q 606 2575 925 2761 
Q 1244 2947 1600 2947 
z
M 1503 2744 
Q 1338 2744 1170 2645 
Q 1003 2547 900 2300 
Q 797 2053 797 1666 
Q 797 1041 1045 587 
Q 1294 134 1700 134 
Q 2003 134 2200 384 
Q 2397 634 2397 1244 
Q 2397 2006 2069 2444 
Q 1847 2744 1503 2744 
z
" transform="scale(0.015625)"/>
       <path id="TimesNewRomanPSMT-75" d="M 2709 2863 
L 2709 1128 
Q 2709 631 2732 520 
Q 2756 409 2807 365 
Q 2859 322 2928 322 
Q 3025 322 3147 375 
L 3191 266 
L 2334 -88 
L 2194 -88 
L 2194 519 
Q 1825 119 1631 15 
Q 1438 -88 1222 -88 
Q 981 -88 804 51 
Q 628 191 559 409 
Q 491 628 491 1028 
L 491 2306 
Q 491 2509 447 2587 
Q 403 2666 317 2708 
Q 231 2750 6 2747 
L 6 2863 
L 1009 2863 
L 1009 947 
Q 1009 547 1148 422 
Q 1288 297 1484 297 
Q 1619 297 1789 381 
Q 1959 466 2194 703 
L 2194 2325 
Q 2194 2569 2105 2655 
Q 2016 2741 1734 2747 
L 1734 2863 
L 2709 2863 
z
" transform="scale(0.015625)"/>
       <path id="TimesNewRomanPSMT-6c" d="M 1184 4444 
L 1184 647 
Q 1184 378 1223 290 
Q 1263 203 1344 158 
Q 1425 113 1647 113 
L 1647 0 
L 244 0 
L 244 113 
Q 441 113 512 153 
Q 584 194 625 287 
Q 666 381 666 647 
L 666 3247 
Q 666 3731 644 3842 
Q 622 3953 573 3993 
Q 525 4034 450 4034 
Q 369 4034 244 3984 
L 191 4094 
L 1044 4444 
L 1184 4444 
z
" transform="scale(0.015625)"/>
       <path id="TimesNewRomanPSMT-61" d="M 1822 413 
Q 1381 72 1269 19 
Q 1100 -59 909 -59 
Q 613 -59 420 144 
Q 228 347 228 678 
Q 228 888 322 1041 
Q 450 1253 767 1440 
Q 1084 1628 1822 1897 
L 1822 2009 
Q 1822 2438 1686 2597 
Q 1550 2756 1291 2756 
Q 1094 2756 978 2650 
Q 859 2544 859 2406 
L 866 2225 
Q 866 2081 792 2003 
Q 719 1925 600 1925 
Q 484 1925 411 2006 
Q 338 2088 338 2228 
Q 338 2497 613 2722 
Q 888 2947 1384 2947 
Q 1766 2947 2009 2819 
Q 2194 2722 2281 2516 
Q 2338 2381 2338 1966 
L 2338 994 
Q 2338 584 2353 492 
Q 2369 400 2405 369 
Q 2441 338 2488 338 
Q 2538 338 2575 359 
Q 2641 400 2828 588 
L 2828 413 
Q 2478 -56 2159 -56 
Q 2006 -56 1915 50 
Q 1825 156 1822 413 
z
M 1822 616 
L 1822 1706 
Q 1350 1519 1213 1441 
Q 966 1303 859 1153 
Q 753 1003 753 825 
Q 753 600 887 451 
Q 1022 303 1197 303 
Q 1434 303 1822 616 
z
" transform="scale(0.015625)"/>
       <path id="TimesNewRomanPSMT-79" d="M 38 2863 
L 1372 2863 
L 1372 2747 
L 1306 2747 
Q 1166 2747 1095 2686 
Q 1025 2625 1025 2534 
Q 1025 2413 1128 2197 
L 1825 753 
L 2466 2334 
Q 2519 2463 2519 2588 
Q 2519 2644 2497 2672 
Q 2472 2706 2419 2726 
Q 2366 2747 2231 2747 
L 2231 2863 
L 3163 2863 
L 3163 2747 
Q 3047 2734 2984 2696 
Q 2922 2659 2847 2556 
Q 2819 2513 2741 2316 
L 1575 -541 
Q 1406 -956 1132 -1168 
Q 859 -1381 606 -1381 
Q 422 -1381 303 -1275 
Q 184 -1169 184 -1031 
Q 184 -900 270 -820 
Q 356 -741 506 -741 
Q 609 -741 788 -809 
Q 913 -856 944 -856 
Q 1038 -856 1148 -759 
Q 1259 -663 1372 -384 
L 1575 113 
L 547 2272 
Q 500 2369 397 2513 
Q 319 2622 269 2659 
Q 197 2709 38 2747 
L 38 2863 
z
" transform="scale(0.015625)"/>
       <path id="TimesNewRomanPSMT-6e" d="M 1034 2341 
Q 1538 2947 1994 2947 
Q 2228 2947 2397 2830 
Q 2566 2713 2666 2444 
Q 2734 2256 2734 1869 
L 2734 647 
Q 2734 375 2778 278 
Q 2813 200 2889 156 
Q 2966 113 3172 113 
L 3172 0 
L 1756 0 
L 1756 113 
L 1816 113 
Q 2016 113 2095 173 
Q 2175 234 2206 353 
Q 2219 400 2219 647 
L 2219 1819 
Q 2219 2209 2117 2386 
Q 2016 2563 1775 2563 
Q 1403 2563 1034 2156 
L 1034 647 
Q 1034 356 1069 288 
Q 1113 197 1189 155 
Q 1266 113 1500 113 
L 1500 0 
L 84 0 
L 84 113 
L 147 113 
Q 366 113 442 223 
Q 519 334 519 647 
L 519 1709 
Q 519 2225 495 2337 
Q 472 2450 423 2490 
Q 375 2531 294 2531 
Q 206 2531 84 2484 
L 38 2597 
L 900 2947 
L 1034 2947 
L 1034 2341 
z
" transform="scale(0.015625)"/>
       <path id="TimesNewRomanPSMT-6b" d="M 1047 4444 
L 1047 1597 
L 1775 2259 
Q 2006 2472 2044 2528 
Q 2069 2566 2069 2603 
Q 2069 2666 2017 2711 
Q 1966 2756 1847 2763 
L 1847 2863 
L 3091 2863 
L 3091 2763 
Q 2834 2756 2664 2684 
Q 2494 2613 2291 2428 
L 1556 1750 
L 2291 822 
Q 2597 438 2703 334 
Q 2853 188 2966 144 
Q 3044 113 3238 113 
L 3238 0 
L 1847 0 
L 1847 113 
Q 1966 116 2008 148 
Q 2050 181 2050 241 
Q 2050 313 1925 472 
L 1047 1594 
L 1047 644 
Q 1047 366 1086 278 
Q 1125 191 1197 153 
Q 1269 116 1509 113 
L 1509 0 
L 53 0 
L 53 113 
Q 272 113 381 166 
Q 447 200 481 272 
Q 528 375 528 628 
L 528 3234 
Q 528 3731 506 3842 
Q 484 3953 434 3995 
Q 384 4038 303 4038 
Q 238 4038 106 3984 
L 53 4094 
L 903 4444 
L 1047 4444 
z
" transform="scale(0.015625)"/>
       <path id="TimesNewRomanPSMT-28" d="M 1988 -1253 
L 1988 -1369 
Q 1516 -1131 1200 -813 
Q 750 -359 506 256 
Q 263 872 263 1534 
Q 263 2503 741 3301 
Q 1219 4100 1988 4444 
L 1988 4313 
Q 1603 4100 1356 3731 
Q 1109 3363 987 2797 
Q 866 2231 866 1616 
Q 866 947 969 400 
Q 1050 -31 1165 -292 
Q 1281 -553 1476 -793 
Q 1672 -1034 1988 -1253 
z
" transform="scale(0.015625)"/>
       <path id="TimesNewRomanPSMT-29" d="M 144 4313 
L 144 4444 
Q 619 4209 934 3891 
Q 1381 3434 1625 2820 
Q 1869 2206 1869 1541 
Q 1869 572 1392 -226 
Q 916 -1025 144 -1369 
L 144 -1253 
Q 528 -1038 776 -670 
Q 1025 -303 1145 264 
Q 1266 831 1266 1447 
Q 1266 2113 1163 2663 
Q 1084 3094 967 3353 
Q 850 3613 656 3853 
Q 463 4094 144 4313 
z
" transform="scale(0.015625)"/>
      </defs>
      <use xlink:href="#TimesNewRomanPSMT-41"/>
      <use xlink:href="#TimesNewRomanPSMT-72" transform="translate(72.216797 0)"/>
      <use xlink:href="#TimesNewRomanPSMT-74" transform="translate(105.517578 0)"/>
      <use xlink:href="#TimesNewRomanPSMT-69" transform="translate(133.300781 0)"/>
      <use xlink:href="#TimesNewRomanPSMT-73" transform="translate(161.083984 0)"/>
      <use xlink:href="#TimesNewRomanPSMT-74" transform="translate(200 0)"/>
      <use xlink:href="#TimesNewRomanPSMT-20" transform="translate(227.783203 0)"/>
      <use xlink:href="#TimesNewRomanPSMT-70" transform="translate(252.783203 0)"/>
      <use xlink:href="#TimesNewRomanPSMT-6f" transform="translate(302.783203 0)"/>
      <use xlink:href="#TimesNewRomanPSMT-70" transform="translate(352.783203 0)"/>
      <use xlink:href="#TimesNewRomanPSMT-75" transform="translate(402.783203 0)"/>
      <use xlink:href="#TimesNewRomanPSMT-6c" transform="translate(452.783203 0)"/>
      <use xlink:href="#TimesNewRomanPSMT-61" transform="translate(480.566406 0)"/>
      <use xlink:href="#TimesNewRomanPSMT-72" transform="translate(524.951172 0)"/>
      <use xlink:href="#TimesNewRomanPSMT-69" transform="translate(558.251953 0)"/>
      <use xlink:href="#TimesNewRomanPSMT-74" transform="translate(586.035156 0)"/>
      <use xlink:href="#TimesNewRomanPSMT-79" transform="translate(613.818359 0)"/>
      <use xlink:href="#TimesNewRomanPSMT-20" transform="translate(663.818359 0)"/>
      <use xlink:href="#TimesNewRomanPSMT-72" transform="translate(688.818359 0)"/>
      <use xlink:href="#TimesNewRomanPSMT-61" transform="translate(722.119141 0)"/>
      <use xlink:href="#TimesNewRomanPSMT-6e" transform="translate(766.503906 0)"/>
      <use xlink:href="#TimesNewRomanPSMT-6b" transform="translate(816.503906 0)"/>
      <use xlink:href="#TimesNewRomanPSMT-20" transform="translate(866.503906 0)"/>
      <use xlink:href="#TimesNewRomanPSMT-28" transform="translate(891.503906 0)"/>
      <use xlink:href="#TimesNewRomanPSMT-72" transform="translate(924.804688 0)"/>
      <use xlink:href="#TimesNewRomanPSMT-61" transform="translate(958.105469 0)"/>
      <use xlink:href="#TimesNewRomanPSMT-6e" transform="translate(1002.490234 0)"/>
      <use xlink:href="#TimesNewRomanPSMT-6b" transform="translate(1052.490234 0)"/>
      <use xlink:href="#TimesNewRomanPSMT-29" transform="translate(1102.490234 0)"/>
     </g>
    </g>
   </g>
   <g id="matplotlib.axis_2">
    <g id="ytick_1">
     <g id="line2d_7">
      <defs>
       <path id="m73f5a6aaff" d="M 0 0 
L -3.5 0 
" style="stroke: #000000"/>
      </defs>
      <g>
       <use xlink:href="#m73f5a6aaff" x="49.82375" y="479.257174" style="stroke: #000000"/>
      </g>
     </g>
     <g id="text_8">
      <!-- 0.0 -->
      <g transform="translate(27.82375 483.423424) scale(0.12 -0.12)">
       <defs>
        <path id="TimesNewRomanPSMT-2e" d="M 800 606 
Q 947 606 1047 504 
Q 1147 403 1147 259 
Q 1147 116 1045 14 
Q 944 -88 800 -88 
Q 656 -88 554 14 
Q 453 116 453 259 
Q 453 406 554 506 
Q 656 606 800 606 
z
" transform="scale(0.015625)"/>
       </defs>
       <use xlink:href="#TimesNewRomanPSMT-30"/>
       <use xlink:href="#TimesNewRomanPSMT-2e" transform="translate(50 0)"/>
       <use xlink:href="#TimesNewRomanPSMT-30" transform="translate(75 0)"/>
      </g>
     </g>
    </g>
    <g id="ytick_2">
     <g id="line2d_8">
      <g>
       <use xlink:href="#m73f5a6aaff" x="49.82375" y="391.953045" style="stroke: #000000"/>
      </g>
     </g>
     <g id="text_9">
      <!-- 0.2 -->
      <g transform="translate(27.82375 396.119295) scale(0.12 -0.12)">
       <use xlink:href="#TimesNewRomanPSMT-30"/>
       <use xlink:href="#TimesNewRomanPSMT-2e" transform="translate(50 0)"/>
       <use xlink:href="#TimesNewRomanPSMT-32" transform="translate(75 0)"/>
      </g>
     </g>
    </g>
    <g id="ytick_3">
     <g id="line2d_9">
      <g>
       <use xlink:href="#m73f5a6aaff" x="49.82375" y="304.648916" style="stroke: #000000"/>
      </g>
     </g>
     <g id="text_10">
      <!-- 0.4 -->
      <g transform="translate(27.82375 308.815166) scale(0.12 -0.12)">
       <use xlink:href="#TimesNewRomanPSMT-30"/>
       <use xlink:href="#TimesNewRomanPSMT-2e" transform="translate(50 0)"/>
       <use xlink:href="#TimesNewRomanPSMT-34" transform="translate(75 0)"/>
      </g>
     </g>
    </g>
    <g id="ytick_4">
     <g id="line2d_10">
      <g>
       <use xlink:href="#m73f5a6aaff" x="49.82375" y="217.344788" style="stroke: #000000"/>
      </g>
     </g>
     <g id="text_11">
      <!-- 0.6 -->
      <g transform="translate(27.82375 221.511038) scale(0.12 -0.12)">
       <use xlink:href="#TimesNewRomanPSMT-30"/>
       <use xlink:href="#TimesNewRomanPSMT-2e" transform="translate(50 0)"/>
       <use xlink:href="#TimesNewRomanPSMT-36" transform="translate(75 0)"/>
      </g>
     </g>
    </g>
    <g id="ytick_5">
     <g id="line2d_11">
      <g>
       <use xlink:href="#m73f5a6aaff" x="49.82375" y="130.040659" style="stroke: #000000"/>
      </g>
     </g>
     <g id="text_12">
      <!-- 0.8 -->
      <g transform="translate(27.82375 134.206909) scale(0.12 -0.12)">
       <use xlink:href="#TimesNewRomanPSMT-30"/>
       <use xlink:href="#TimesNewRomanPSMT-2e" transform="translate(50 0)"/>
       <use xlink:href="#TimesNewRomanPSMT-38" transform="translate(75 0)"/>
      </g>
     </g>
    </g>
    <g id="ytick_6">
     <g id="line2d_12">
      <g>
       <use xlink:href="#m73f5a6aaff" x="49.82375" y="42.73653" style="stroke: #000000"/>
      </g>
     </g>
     <g id="text_13">
      <!-- 1.0 -->
      <g transform="translate(27.82375 46.90278) scale(0.12 -0.12)">
       <use xlink:href="#TimesNewRomanPSMT-31"/>
       <use xlink:href="#TimesNewRomanPSMT-2e" transform="translate(50 0)"/>
       <use xlink:href="#TimesNewRomanPSMT-30" transform="translate(75 0)"/>
      </g>
     </g>
    </g>
    <g id="text_14">
     <!-- Commercial impact value ($ 1e8) -->
     <g transform="translate(20.829063 361.675938) rotate(-90) scale(0.14 -0.14)">
      <defs>
       <path id="TimesNewRomanPSMT-43" d="M 3853 4334 
L 3950 2894 
L 3853 2894 
Q 3659 3541 3300 3825 
Q 2941 4109 2438 4109 
Q 2016 4109 1675 3895 
Q 1334 3681 1139 3212 
Q 944 2744 944 2047 
Q 944 1472 1128 1050 
Q 1313 628 1683 403 
Q 2053 178 2528 178 
Q 2941 178 3256 354 
Q 3572 531 3950 1056 
L 4047 994 
Q 3728 428 3303 165 
Q 2878 -97 2294 -97 
Q 1241 -97 663 684 
Q 231 1266 231 2053 
Q 231 2688 515 3219 
Q 800 3750 1298 4042 
Q 1797 4334 2388 4334 
Q 2847 4334 3294 4109 
Q 3425 4041 3481 4041 
Q 3566 4041 3628 4100 
Q 3709 4184 3744 4334 
L 3853 4334 
z
" transform="scale(0.015625)"/>
       <path id="TimesNewRomanPSMT-6d" d="M 1050 2338 
Q 1363 2650 1419 2697 
Q 1559 2816 1721 2881 
Q 1884 2947 2044 2947 
Q 2313 2947 2506 2790 
Q 2700 2634 2766 2338 
Q 3088 2713 3309 2830 
Q 3531 2947 3766 2947 
Q 3994 2947 4170 2830 
Q 4347 2713 4450 2447 
Q 4519 2266 4519 1878 
L 4519 647 
Q 4519 378 4559 278 
Q 4591 209 4675 161 
Q 4759 113 4950 113 
L 4950 0 
L 3538 0 
L 3538 113 
L 3597 113 
Q 3781 113 3884 184 
Q 3956 234 3988 344 
Q 4000 397 4000 647 
L 4000 1878 
Q 4000 2228 3916 2372 
Q 3794 2572 3525 2572 
Q 3359 2572 3192 2489 
Q 3025 2406 2788 2181 
L 2781 2147 
L 2788 2013 
L 2788 647 
Q 2788 353 2820 281 
Q 2853 209 2943 161 
Q 3034 113 3253 113 
L 3253 0 
L 1806 0 
L 1806 113 
Q 2044 113 2133 169 
Q 2222 225 2256 338 
Q 2272 391 2272 647 
L 2272 1878 
Q 2272 2228 2169 2381 
Q 2031 2581 1784 2581 
Q 1616 2581 1450 2491 
Q 1191 2353 1050 2181 
L 1050 647 
Q 1050 366 1089 281 
Q 1128 197 1204 155 
Q 1281 113 1516 113 
L 1516 0 
L 100 0 
L 100 113 
Q 297 113 375 155 
Q 453 197 493 289 
Q 534 381 534 647 
L 534 1741 
Q 534 2213 506 2350 
Q 484 2453 437 2492 
Q 391 2531 309 2531 
Q 222 2531 100 2484 
L 53 2597 
L 916 2947 
L 1050 2947 
L 1050 2338 
z
" transform="scale(0.015625)"/>
       <path id="TimesNewRomanPSMT-65" d="M 681 1784 
Q 678 1147 991 784 
Q 1303 422 1725 422 
Q 2006 422 2214 576 
Q 2422 731 2563 1106 
L 2659 1044 
Q 2594 616 2278 264 
Q 1963 -88 1488 -88 
Q 972 -88 605 314 
Q 238 716 238 1394 
Q 238 2128 614 2539 
Q 991 2950 1559 2950 
Q 2041 2950 2350 2633 
Q 2659 2316 2659 1784 
L 681 1784 
z
M 681 1966 
L 2006 1966 
Q 1991 2241 1941 2353 
Q 1863 2528 1708 2628 
Q 1553 2728 1384 2728 
Q 1125 2728 920 2526 
Q 716 2325 681 1966 
z
" transform="scale(0.015625)"/>
       <path id="TimesNewRomanPSMT-63" d="M 2631 1088 
Q 2516 522 2178 217 
Q 1841 -88 1431 -88 
Q 944 -88 581 321 
Q 219 731 219 1428 
Q 219 2103 620 2525 
Q 1022 2947 1584 2947 
Q 2006 2947 2278 2723 
Q 2550 2500 2550 2259 
Q 2550 2141 2473 2067 
Q 2397 1994 2259 1994 
Q 2075 1994 1981 2113 
Q 1928 2178 1911 2362 
Q 1894 2547 1784 2644 
Q 1675 2738 1481 2738 
Q 1169 2738 978 2506 
Q 725 2200 725 1697 
Q 725 1184 976 792 
Q 1228 400 1656 400 
Q 1963 400 2206 609 
Q 2378 753 2541 1131 
L 2631 1088 
z
" transform="scale(0.015625)"/>
       <path id="TimesNewRomanPSMT-76" d="M 53 2863 
L 1400 2863 
L 1400 2747 
L 1313 2747 
Q 1191 2747 1127 2687 
Q 1063 2628 1063 2528 
Q 1063 2419 1128 2269 
L 1794 688 
L 2463 2328 
Q 2534 2503 2534 2594 
Q 2534 2638 2509 2666 
Q 2475 2713 2422 2730 
Q 2369 2747 2206 2747 
L 2206 2863 
L 3141 2863 
L 3141 2747 
Q 2978 2734 2916 2681 
Q 2806 2588 2719 2369 
L 1703 -88 
L 1575 -88 
L 553 2328 
Q 484 2497 421 2570 
Q 359 2644 263 2694 
Q 209 2722 53 2747 
L 53 2863 
z
" transform="scale(0.015625)"/>
       <path id="TimesNewRomanPSMT-24" d="M 338 1044 
L 475 1044 
Q 509 616 743 387 
Q 978 159 1444 116 
L 1444 1941 
Q 741 2375 506 2709 
Q 341 2947 341 3288 
Q 341 3672 627 3959 
Q 913 4247 1444 4306 
L 1444 4594 
L 1644 4594 
L 1644 4306 
Q 1900 4291 2075 4247 
Q 2166 4225 2675 4031 
L 2675 3097 
L 2553 3097 
Q 2513 3594 2295 3823 
Q 2078 4053 1644 4097 
L 1644 2509 
Q 2431 1959 2654 1698 
Q 2878 1438 2878 1050 
Q 2878 619 2551 290 
Q 2225 -38 1644 -88 
L 1644 -488 
L 1444 -488 
L 1444 -88 
Q 1150 -75 897 -20 
Q 644 34 338 159 
L 338 1044 
z
M 1444 2641 
L 1444 4094 
Q 1131 4056 979 3895 
Q 828 3734 828 3491 
Q 828 3263 965 3064 
Q 1103 2866 1444 2641 
z
M 1644 116 
Q 1878 156 2003 231 
Q 2178 341 2279 517 
Q 2381 694 2381 894 
Q 2381 1100 2257 1284 
Q 2134 1469 1644 1806 
L 1644 116 
z
" transform="scale(0.015625)"/>
      </defs>
      <use xlink:href="#TimesNewRomanPSMT-43"/>
      <use xlink:href="#TimesNewRomanPSMT-6f" transform="translate(66.699219 0)"/>
      <use xlink:href="#TimesNewRomanPSMT-6d" transform="translate(116.699219 0)"/>
      <use xlink:href="#TimesNewRomanPSMT-6d" transform="translate(194.482422 0)"/>
      <use xlink:href="#TimesNewRomanPSMT-65" transform="translate(272.265625 0)"/>
      <use xlink:href="#TimesNewRomanPSMT-72" transform="translate(316.650391 0)"/>
      <use xlink:href="#TimesNewRomanPSMT-63" transform="translate(349.951172 0)"/>
      <use xlink:href="#TimesNewRomanPSMT-69" transform="translate(394.335938 0)"/>
      <use xlink:href="#TimesNewRomanPSMT-61" transform="translate(422.119141 0)"/>
      <use xlink:href="#TimesNewRomanPSMT-6c" transform="translate(466.503906 0)"/>
      <use xlink:href="#TimesNewRomanPSMT-20" transform="translate(494.287109 0)"/>
      <use xlink:href="#TimesNewRomanPSMT-69" transform="translate(519.287109 0)"/>
      <use xlink:href="#TimesNewRomanPSMT-6d" transform="translate(547.070312 0)"/>
      <use xlink:href="#TimesNewRomanPSMT-70" transform="translate(624.853516 0)"/>
      <use xlink:href="#TimesNewRomanPSMT-61" transform="translate(674.853516 0)"/>
      <use xlink:href="#TimesNewRomanPSMT-63" transform="translate(719.238281 0)"/>
      <use xlink:href="#TimesNewRomanPSMT-74" transform="translate(763.623047 0)"/>
      <use xlink:href="#TimesNewRomanPSMT-20" transform="translate(791.40625 0)"/>
      <use xlink:href="#TimesNewRomanPSMT-76" transform="translate(816.40625 0)"/>
      <use xlink:href="#TimesNewRomanPSMT-61" transform="translate(866.40625 0)"/>
      <use xlink:href="#TimesNewRomanPSMT-6c" transform="translate(910.791016 0)"/>
      <use xlink:href="#TimesNewRomanPSMT-75" transform="translate(938.574219 0)"/>
      <use xlink:href="#TimesNewRomanPSMT-65" transform="translate(988.574219 0)"/>
      <use xlink:href="#TimesNewRomanPSMT-20" transform="translate(1032.958984 0)"/>
      <use xlink:href="#TimesNewRomanPSMT-28" transform="translate(1057.958984 0)"/>
      <use xlink:href="#TimesNewRomanPSMT-24" transform="translate(1091.259766 0)"/>
      <use xlink:href="#TimesNewRomanPSMT-20" transform="translate(1141.259766 0)"/>
      <use xlink:href="#TimesNewRomanPSMT-31" transform="translate(1166.259766 0)"/>
      <use xlink:href="#TimesNewRomanPSMT-65" transform="translate(1216.259766 0)"/>
      <use xlink:href="#TimesNewRomanPSMT-38" transform="translate(1260.644531 0)"/>
      <use xlink:href="#TimesNewRomanPSMT-29" transform="translate(1310.644531 0)"/>
     </g>
    </g>
   </g>
   <g id="patch_3">
    <path d="M 49.82375 493.59625 
L 49.82375 41.6 
" style="fill: none; stroke: #000000; stroke-linejoin: miter; stroke-linecap: square"/>
   </g>
   <g id="patch_4">
    <path d="M 49.82375 493.59625 
L 548.1 493.59625 
" style="fill: none; stroke: #000000; stroke-linejoin: miter; stroke-linecap: square"/>
   </g>
   <g id="text_15">
    <!-- 100.0k -->
    <g transform="translate(329.976766 345.636688) scale(0.08 -0.08)">
     <defs>
      <path id="TimesNewRomanPS-BoldMT-31" d="M 2084 4325 
L 2084 859 
Q 2084 469 2118 361 
Q 2153 253 2262 184 
Q 2372 116 2613 116 
L 2709 116 
L 2709 0 
L 478 0 
L 478 116 
L 591 116 
Q 863 116 978 178 
Q 1094 241 1134 350 
Q 1175 459 1175 859 
L 1175 3056 
Q 1175 3350 1147 3423 
Q 1119 3497 1042 3548 
Q 966 3600 866 3600 
Q 706 3600 478 3500 
L 422 3613 
L 1981 4325 
L 2084 4325 
z
" transform="scale(0.015625)"/>
      <path id="TimesNewRomanPS-BoldMT-30" d="M 2966 2119 
Q 2966 1484 2788 934 
Q 2681 597 2501 381 
Q 2322 166 2094 39 
Q 1866 -88 1597 -88 
Q 1291 -88 1044 68 
Q 797 225 606 516 
Q 469 728 366 1081 
Q 231 1559 231 2069 
Q 231 2759 425 3338 
Q 584 3816 909 4070 
Q 1234 4325 1597 4325 
Q 1966 4325 2286 4073 
Q 2606 3822 2756 3397 
Q 2966 2813 2966 2119 
z
M 2003 2125 
Q 2003 3238 1991 3422 
Q 1959 3856 1841 4009 
Q 1763 4109 1588 4109 
Q 1453 4109 1375 4034 
Q 1259 3925 1218 3648 
Q 1178 3372 1178 1719 
Q 1178 819 1241 513 
Q 1288 291 1375 216 
Q 1463 141 1606 141 
Q 1763 141 1841 241 
Q 1972 416 1991 781 
L 2003 2125 
z
" transform="scale(0.015625)"/>
      <path id="TimesNewRomanPS-BoldMT-2e" d="M 800 963 
Q 1019 963 1170 809 
Q 1322 656 1322 441 
Q 1322 225 1169 73 
Q 1016 -78 800 -78 
Q 584 -78 432 73 
Q 281 225 281 441 
Q 281 656 432 809 
Q 584 963 800 963 
z
" transform="scale(0.015625)"/>
      <path id="TimesNewRomanPS-BoldMT-6b" d="M 1403 4238 
L 1403 1450 
L 2081 2116 
Q 2291 2319 2342 2409 
Q 2394 2500 2394 2584 
Q 2394 2669 2325 2725 
Q 2256 2781 2056 2806 
L 2056 2922 
L 3366 2922 
L 3366 2806 
Q 3178 2797 3037 2717 
Q 2897 2638 2488 2238 
L 2169 1925 
L 2856 919 
Q 3272 306 3350 231 
Q 3456 125 3619 113 
L 3619 0 
L 2109 0 
L 2109 113 
Q 2209 113 2254 150 
Q 2300 188 2300 231 
Q 2300 303 2169 497 
L 1591 1344 
L 1403 1159 
L 1403 634 
Q 1403 300 1465 217 
Q 1528 134 1722 113 
L 1722 0 
L 213 0 
L 213 113 
Q 397 131 475 231 
Q 528 300 528 634 
L 528 3603 
Q 528 3934 467 4015 
Q 406 4097 213 4122 
L 213 4238 
L 1403 4238 
z
" transform="scale(0.015625)"/>
     </defs>
     <use xlink:href="#TimesNewRomanPS-BoldMT-31"/>
     <use xlink:href="#TimesNewRomanPS-BoldMT-30" transform="translate(50 0)"/>
     <use xlink:href="#TimesNewRomanPS-BoldMT-30" transform="translate(100 0)"/>
     <use xlink:href="#TimesNewRomanPS-BoldMT-2e" transform="translate(150 0)"/>
     <use xlink:href="#TimesNewRomanPS-BoldMT-30" transform="translate(175 0)"/>
     <use xlink:href="#TimesNewRomanPS-BoldMT-6b" transform="translate(225 0)"/>
    </g>
   </g>
   <g id="text_16">
    <!-- 78.9k -->
    <g transform="translate(437.226891 116.137731) scale(0.08 -0.08)">
     <defs>
      <path id="TimesNewRomanPS-BoldMT-37" d="M 1134 -88 
L 2288 3409 
L 1409 3409 
Q 894 3409 634 3275 
Q 453 3181 334 2922 
L 216 2922 
L 522 4238 
L 3047 4238 
L 1625 -88 
L 1134 -88 
z
" transform="scale(0.015625)"/>
      <path id="TimesNewRomanPS-BoldMT-38" d="M 2181 2394 
Q 2628 2066 2801 1783 
Q 2975 1500 2975 1134 
Q 2975 622 2589 267 
Q 2203 -88 1541 -88 
Q 913 -88 569 221 
Q 225 531 225 978 
Q 225 1319 423 1575 
Q 622 1831 1084 2044 
Q 581 2428 439 2672 
Q 297 2916 297 3238 
Q 297 3663 658 3986 
Q 1019 4309 1647 4309 
Q 2253 4309 2579 4023 
Q 2906 3738 2906 3338 
Q 2906 3038 2729 2808 
Q 2553 2578 2181 2394 
z
M 1944 2553 
Q 2059 2709 2115 2903 
Q 2172 3097 2172 3328 
Q 2172 3734 1997 3950 
Q 1866 4116 1634 4116 
Q 1425 4116 1278 3964 
Q 1131 3813 1131 3588 
Q 1131 3359 1295 3114 
Q 1459 2869 1944 2553 
z
M 1319 1894 
Q 1222 1806 1181 1734 
Q 1119 1625 1069 1415 
Q 1019 1206 1019 978 
Q 1019 684 1094 486 
Q 1169 288 1308 200 
Q 1447 113 1594 113 
Q 1822 113 1978 280 
Q 2134 447 2134 738 
Q 2134 1344 1319 1894 
z
" transform="scale(0.015625)"/>
      <path id="TimesNewRomanPS-BoldMT-39" d="M 197 -88 
L 197 0 
Q 716 119 1077 350 
Q 1438 581 1648 922 
Q 1859 1263 1944 1706 
Q 1750 1606 1614 1567 
Q 1478 1528 1328 1528 
Q 847 1528 526 1875 
Q 206 2222 206 2825 
Q 206 3244 379 3592 
Q 553 3941 875 4133 
Q 1197 4325 1544 4325 
Q 1916 4325 2247 4112 
Q 2578 3900 2775 3497 
Q 2972 3094 2972 2578 
Q 2972 1909 2651 1296 
Q 2331 684 1697 314 
Q 1063 -56 197 -88 
z
M 1991 1969 
Q 2022 2319 2022 2584 
Q 2022 3153 1891 3644 
Q 1816 3916 1669 4044 
Q 1591 4113 1466 4113 
Q 1309 4113 1222 3978 
Q 1100 3794 1100 3275 
Q 1100 2409 1306 2081 
Q 1441 1869 1669 1869 
Q 1791 1869 1991 1969 
z
" transform="scale(0.015625)"/>
     </defs>
     <use xlink:href="#TimesNewRomanPS-BoldMT-37"/>
     <use xlink:href="#TimesNewRomanPS-BoldMT-38" transform="translate(50 0)"/>
     <use xlink:href="#TimesNewRomanPS-BoldMT-2e" transform="translate(100 0)"/>
     <use xlink:href="#TimesNewRomanPS-BoldMT-39" transform="translate(125 0)"/>
     <use xlink:href="#TimesNewRomanPS-BoldMT-6b" transform="translate(175 0)"/>
    </g>
   </g>
   <g id="text_17">
    <!-- 73.0k -->
    <g transform="translate(120.283397 146.308692) scale(0.08 -0.08)">
     <defs>
      <path id="TimesNewRomanPS-BoldMT-33" d="M 947 2125 
L 947 2234 
Q 1303 2338 1440 2427 
Q 1578 2516 1678 2698 
Q 1778 2881 1778 3069 
Q 1778 3328 1589 3514 
Q 1400 3700 1119 3700 
Q 681 3700 375 3238 
L 259 3278 
Q 484 3800 836 4062 
Q 1188 4325 1619 4325 
Q 2059 4325 2345 4056 
Q 2631 3788 2631 3428 
Q 2631 3194 2498 2976 
Q 2366 2759 2081 2594 
Q 2447 2416 2639 2155 
Q 2831 1894 2831 1500 
Q 2831 838 2351 373 
Q 1872 -91 1066 -91 
Q 528 -91 281 88 
Q 103 213 103 409 
Q 103 553 206 654 
Q 309 756 444 756 
Q 547 756 638 713 
Q 688 688 992 439 
Q 1297 191 1563 191 
Q 1794 191 1959 373 
Q 2125 556 2125 838 
Q 2125 1266 1825 1627 
Q 1525 1988 947 2125 
z
" transform="scale(0.015625)"/>
     </defs>
     <use xlink:href="#TimesNewRomanPS-BoldMT-37"/>
     <use xlink:href="#TimesNewRomanPS-BoldMT-33" transform="translate(50 0)"/>
     <use xlink:href="#TimesNewRomanPS-BoldMT-2e" transform="translate(100 0)"/>
     <use xlink:href="#TimesNewRomanPS-BoldMT-30" transform="translate(125 0)"/>
     <use xlink:href="#TimesNewRomanPS-BoldMT-6b" transform="translate(175 0)"/>
    </g>
   </g>
   <g id="text_18">
    <!-- 55.6k -->
    <g transform="translate(354.432966 202.572648) scale(0.08 -0.08)">
     <defs>
      <path id="TimesNewRomanPS-BoldMT-35" d="M 975 4238 
L 2959 4238 
L 2644 3431 
L 975 3431 
L 816 3009 
Q 1894 2969 2475 2472 
Q 2953 2063 2953 1453 
Q 2953 1063 2731 689 
Q 2509 316 2106 114 
Q 1703 -88 1222 -88 
Q 703 -88 425 106 
Q 231 244 231 419 
Q 231 553 332 656 
Q 434 759 569 759 
Q 691 759 816 709 
Q 941 659 1244 447 
Q 1434 316 1572 266 
Q 1669 228 1791 228 
Q 2047 228 2226 415 
Q 2406 603 2406 866 
Q 2406 1416 1856 1759 
Q 1306 2103 469 2103 
Q 384 2103 216 2100 
L 975 4238 
z
" transform="scale(0.015625)"/>
      <path id="TimesNewRomanPS-BoldMT-36" d="M 3006 4325 
L 3006 4238 
Q 2441 4094 2098 3867 
Q 1756 3641 1557 3317 
Q 1359 2994 1250 2516 
Q 1388 2609 1478 2638 
Q 1681 2700 1888 2700 
Q 2363 2700 2680 2354 
Q 2997 2009 2997 1413 
Q 2997 994 2825 644 
Q 2653 294 2337 103 
Q 2022 -88 1663 -88 
Q 1272 -88 940 126 
Q 609 341 423 753 
Q 238 1166 238 1650 
Q 238 2363 580 2977 
Q 922 3591 1551 3955 
Q 2181 4319 3006 4325 
z
M 1209 2263 
Q 1184 1831 1184 1631 
Q 1184 1200 1267 797 
Q 1350 394 1494 231 
Q 1597 116 1738 116 
Q 1881 116 1993 283 
Q 2106 450 2106 963 
Q 2106 1825 1897 2153 
Q 1763 2366 1534 2366 
Q 1409 2366 1209 2263 
z
" transform="scale(0.015625)"/>
     </defs>
     <use xlink:href="#TimesNewRomanPS-BoldMT-35"/>
     <use xlink:href="#TimesNewRomanPS-BoldMT-35" transform="translate(50 0)"/>
     <use xlink:href="#TimesNewRomanPS-BoldMT-2e" transform="translate(100 0)"/>
     <use xlink:href="#TimesNewRomanPS-BoldMT-36" transform="translate(125 0)"/>
     <use xlink:href="#TimesNewRomanPS-BoldMT-6b" transform="translate(175 0)"/>
    </g>
   </g>
   <g id="text_19">
    <!-- 54.0k -->
    <g transform="translate(196.046442 349.623661) scale(0.08 -0.08)">
     <defs>
      <path id="TimesNewRomanPS-BoldMT-34" d="M 159 1597 
L 2172 4325 
L 2553 4325 
L 2553 1597 
L 2941 1597 
L 2941 950 
L 2553 950 
L 2553 0 
L 1694 0 
L 1694 950 
L 159 950 
L 159 1597 
z
M 463 1597 
L 1694 1597 
L 1694 3269 
L 463 1597 
z
" transform="scale(0.015625)"/>
     </defs>
     <use xlink:href="#TimesNewRomanPS-BoldMT-35"/>
     <use xlink:href="#TimesNewRomanPS-BoldMT-34" transform="translate(50 0)"/>
     <use xlink:href="#TimesNewRomanPS-BoldMT-2e" transform="translate(100 0)"/>
     <use xlink:href="#TimesNewRomanPS-BoldMT-30" transform="translate(125 0)"/>
     <use xlink:href="#TimesNewRomanPS-BoldMT-6b" transform="translate(175 0)"/>
    </g>
   </g>
   <g id="text_20">
    <!-- 38.5k -->
    <g transform="translate(205.20789 364.029287) scale(0.08 -0.08)">
     <use xlink:href="#TimesNewRomanPS-BoldMT-33"/>
     <use xlink:href="#TimesNewRomanPS-BoldMT-38" transform="translate(50 0)"/>
     <use xlink:href="#TimesNewRomanPS-BoldMT-2e" transform="translate(100 0)"/>
     <use xlink:href="#TimesNewRomanPS-BoldMT-35" transform="translate(125 0)"/>
     <use xlink:href="#TimesNewRomanPS-BoldMT-6b" transform="translate(175 0)"/>
    </g>
   </g>
   <g id="text_21">
    <!-- 34.6k -->
    <g transform="translate(98.636812 143.387173) scale(0.08 -0.08)">
     <use xlink:href="#TimesNewRomanPS-BoldMT-33"/>
     <use xlink:href="#TimesNewRomanPS-BoldMT-34" transform="translate(50 0)"/>
     <use xlink:href="#TimesNewRomanPS-BoldMT-2e" transform="translate(100 0)"/>
     <use xlink:href="#TimesNewRomanPS-BoldMT-36" transform="translate(125 0)"/>
     <use xlink:href="#TimesNewRomanPS-BoldMT-6b" transform="translate(175 0)"/>
    </g>
   </g>
   <g id="text_22">
    <!-- 34.5k -->
    <g transform="translate(107.286924 373.394463) scale(0.08 -0.08)">
     <use xlink:href="#TimesNewRomanPS-BoldMT-33"/>
     <use xlink:href="#TimesNewRomanPS-BoldMT-34" transform="translate(50 0)"/>
     <use xlink:href="#TimesNewRomanPS-BoldMT-2e" transform="translate(100 0)"/>
     <use xlink:href="#TimesNewRomanPS-BoldMT-35" transform="translate(125 0)"/>
     <use xlink:href="#TimesNewRomanPS-BoldMT-6b" transform="translate(175 0)"/>
    </g>
   </g>
   <g id="text_23">
    <!-- 26.2k -->
    <g transform="translate(481.926235 261.109987) scale(0.08 -0.08)">
     <defs>
      <path id="TimesNewRomanPS-BoldMT-32" d="M 2650 0 
L 156 0 
L 156 69 
Q 1303 1434 1548 1906 
Q 1794 2378 1794 2828 
Q 1794 3156 1591 3373 
Q 1388 3591 1094 3591 
Q 613 3591 347 3109 
L 231 3150 
Q 400 3750 744 4037 
Q 1088 4325 1538 4325 
Q 1859 4325 2125 4175 
Q 2391 4025 2541 3764 
Q 2691 3503 2691 3275 
Q 2691 2859 2459 2431 
Q 2144 1853 1081 819 
L 1997 819 
Q 2334 819 2436 847 
Q 2538 875 2603 942 
Q 2669 1009 2775 1225 
L 2888 1225 
L 2650 0 
z
" transform="scale(0.015625)"/>
     </defs>
     <use xlink:href="#TimesNewRomanPS-BoldMT-32"/>
     <use xlink:href="#TimesNewRomanPS-BoldMT-36" transform="translate(50 0)"/>
     <use xlink:href="#TimesNewRomanPS-BoldMT-2e" transform="translate(100 0)"/>
     <use xlink:href="#TimesNewRomanPS-BoldMT-32" transform="translate(125 0)"/>
     <use xlink:href="#TimesNewRomanPS-BoldMT-6b" transform="translate(175 0)"/>
    </g>
   </g>
   <g id="text_24">
    <!-- 11.2k -->
    <g transform="translate(406.681469 443.235962) scale(0.08 -0.08)">
     <use xlink:href="#TimesNewRomanPS-BoldMT-31"/>
     <use xlink:href="#TimesNewRomanPS-BoldMT-31" transform="translate(44.5 0)"/>
     <use xlink:href="#TimesNewRomanPS-BoldMT-2e" transform="translate(94.5 0)"/>
     <use xlink:href="#TimesNewRomanPS-BoldMT-32" transform="translate(119.5 0)"/>
     <use xlink:href="#TimesNewRomanPS-BoldMT-6b" transform="translate(169.5 0)"/>
    </g>
   </g>
   <g id="text_25">
    <!-- 9.9k -->
    <g transform="translate(231.709438 153.650785) scale(0.08 -0.08)">
     <use xlink:href="#TimesNewRomanPS-BoldMT-39"/>
     <use xlink:href="#TimesNewRomanPS-BoldMT-2e" transform="translate(50 0)"/>
     <use xlink:href="#TimesNewRomanPS-BoldMT-39" transform="translate(75 0)"/>
     <use xlink:href="#TimesNewRomanPS-BoldMT-6b" transform="translate(125 0)"/>
    </g>
   </g>
   <g id="text_26">
    <!-- 9.0k -->
    <g transform="translate(365.807471 149.185513) scale(0.08 -0.08)">
     <use xlink:href="#TimesNewRomanPS-BoldMT-39"/>
     <use xlink:href="#TimesNewRomanPS-BoldMT-2e" transform="translate(50 0)"/>
     <use xlink:href="#TimesNewRomanPS-BoldMT-30" transform="translate(75 0)"/>
     <use xlink:href="#TimesNewRomanPS-BoldMT-6b" transform="translate(125 0)"/>
    </g>
   </g>
   <g id="text_27">
    <!-- 4.1k -->
    <g transform="translate(305.043634 95.546538) scale(0.08 -0.08)">
     <use xlink:href="#TimesNewRomanPS-BoldMT-34"/>
     <use xlink:href="#TimesNewRomanPS-BoldMT-2e" transform="translate(50 0)"/>
     <use xlink:href="#TimesNewRomanPS-BoldMT-31" transform="translate(75 0)"/>
     <use xlink:href="#TimesNewRomanPS-BoldMT-6b" transform="translate(125 0)"/>
    </g>
   </g>
   <g id="text_28">
    <!-- 3.0k -->
    <g transform="translate(331.292248 279.382029) scale(0.08 -0.08)">
     <use xlink:href="#TimesNewRomanPS-BoldMT-33"/>
     <use xlink:href="#TimesNewRomanPS-BoldMT-2e" transform="translate(50 0)"/>
     <use xlink:href="#TimesNewRomanPS-BoldMT-30" transform="translate(75 0)"/>
     <use xlink:href="#TimesNewRomanPS-BoldMT-6b" transform="translate(125 0)"/>
    </g>
   </g>
   <g id="text_29">
    <!-- 100 -->
    <g transform="translate(296.34948 333.587112) scale(0.08 -0.08)">
     <use xlink:href="#TimesNewRomanPS-BoldMT-31"/>
     <use xlink:href="#TimesNewRomanPS-BoldMT-30" transform="translate(50 0)"/>
     <use xlink:href="#TimesNewRomanPS-BoldMT-30" transform="translate(100 0)"/>
    </g>
   </g>
   <g id="text_30">
    <!-- the Distribution of Cultural Trends and Influences -->
    <g transform="translate(138.974375 21.6) scale(0.16 -0.16)">
     <defs>
      <path id="TimesNewRomanPSMT-68" d="M 1041 4444 
L 1041 2350 
Q 1388 2731 1591 2839 
Q 1794 2947 1997 2947 
Q 2241 2947 2416 2812 
Q 2591 2678 2675 2391 
Q 2734 2191 2734 1659 
L 2734 647 
Q 2734 375 2778 275 
Q 2809 200 2884 156 
Q 2959 113 3159 113 
L 3159 0 
L 1753 0 
L 1753 113 
L 1819 113 
Q 2019 113 2097 173 
Q 2175 234 2206 353 
Q 2216 403 2216 647 
L 2216 1659 
Q 2216 2128 2167 2275 
Q 2119 2422 2012 2495 
Q 1906 2569 1756 2569 
Q 1603 2569 1437 2487 
Q 1272 2406 1041 2159 
L 1041 647 
Q 1041 353 1073 281 
Q 1106 209 1195 161 
Q 1284 113 1503 113 
L 1503 0 
L 84 0 
L 84 113 
Q 275 113 384 172 
Q 447 203 484 290 
Q 522 378 522 647 
L 522 3238 
Q 522 3728 498 3840 
Q 475 3953 426 3993 
Q 378 4034 297 4034 
Q 231 4034 84 3984 
L 41 4094 
L 897 4444 
L 1041 4444 
z
" transform="scale(0.015625)"/>
      <path id="TimesNewRomanPSMT-44" d="M 109 0 
L 109 116 
L 269 116 
Q 538 116 650 288 
Q 719 391 719 750 
L 719 3488 
Q 719 3884 631 3984 
Q 509 4122 269 4122 
L 109 4122 
L 109 4238 
L 1834 4238 
Q 2784 4238 3279 4022 
Q 3775 3806 4076 3303 
Q 4378 2800 4378 2141 
Q 4378 1256 3841 663 
Q 3238 0 2003 0 
L 109 0 
z
M 1319 306 
Q 1716 219 1984 219 
Q 2709 219 3187 728 
Q 3666 1238 3666 2109 
Q 3666 2988 3187 3494 
Q 2709 4000 1959 4000 
Q 1678 4000 1319 3909 
L 1319 306 
z
" transform="scale(0.015625)"/>
      <path id="TimesNewRomanPSMT-62" d="M 984 2369 
Q 1400 2947 1881 2947 
Q 2322 2947 2650 2570 
Q 2978 2194 2978 1541 
Q 2978 778 2472 313 
Q 2038 -88 1503 -88 
Q 1253 -88 995 3 
Q 738 94 469 275 
L 469 3241 
Q 469 3728 445 3840 
Q 422 3953 372 3993 
Q 322 4034 247 4034 
Q 159 4034 28 3984 
L -16 4094 
L 844 4444 
L 984 4444 
L 984 2369 
z
M 984 2169 
L 984 456 
Q 1144 300 1314 220 
Q 1484 141 1663 141 
Q 1947 141 2192 453 
Q 2438 766 2438 1363 
Q 2438 1913 2192 2208 
Q 1947 2503 1634 2503 
Q 1469 2503 1303 2419 
Q 1178 2356 984 2169 
z
" transform="scale(0.015625)"/>
      <path id="TimesNewRomanPSMT-66" d="M 1319 2638 
L 1319 756 
Q 1319 356 1406 250 
Q 1522 113 1716 113 
L 1975 113 
L 1975 0 
L 266 0 
L 266 113 
L 394 113 
Q 519 113 622 175 
Q 725 238 764 344 
Q 803 450 803 756 
L 803 2638 
L 247 2638 
L 247 2863 
L 803 2863 
L 803 3050 
Q 803 3478 940 3775 
Q 1078 4072 1361 4255 
Q 1644 4438 1997 4438 
Q 2325 4438 2600 4225 
Q 2781 4084 2781 3909 
Q 2781 3816 2700 3733 
Q 2619 3650 2525 3650 
Q 2453 3650 2373 3701 
Q 2294 3753 2178 3923 
Q 2063 4094 1966 4153 
Q 1869 4213 1750 4213 
Q 1606 4213 1506 4136 
Q 1406 4059 1362 3898 
Q 1319 3738 1319 3069 
L 1319 2863 
L 2056 2863 
L 2056 2638 
L 1319 2638 
z
" transform="scale(0.015625)"/>
      <path id="TimesNewRomanPSMT-54" d="M 3703 4238 
L 3750 3244 
L 3631 3244 
Q 3597 3506 3538 3619 
Q 3441 3800 3280 3886 
Q 3119 3972 2856 3972 
L 2259 3972 
L 2259 734 
Q 2259 344 2344 247 
Q 2463 116 2709 116 
L 2856 116 
L 2856 0 
L 1059 0 
L 1059 116 
L 1209 116 
Q 1478 116 1591 278 
Q 1659 378 1659 734 
L 1659 3972 
L 1150 3972 
Q 853 3972 728 3928 
Q 566 3869 450 3700 
Q 334 3531 313 3244 
L 194 3244 
L 244 4238 
L 3703 4238 
z
" transform="scale(0.015625)"/>
      <path id="TimesNewRomanPSMT-64" d="M 2222 322 
Q 2013 103 1813 7 
Q 1613 -88 1381 -88 
Q 913 -88 563 304 
Q 213 697 213 1313 
Q 213 1928 600 2439 
Q 988 2950 1597 2950 
Q 1975 2950 2222 2709 
L 2222 3238 
Q 2222 3728 2198 3840 
Q 2175 3953 2125 3993 
Q 2075 4034 2000 4034 
Q 1919 4034 1784 3984 
L 1744 4094 
L 2597 4444 
L 2738 4444 
L 2738 1134 
Q 2738 631 2761 520 
Q 2784 409 2836 365 
Q 2888 322 2956 322 
Q 3041 322 3181 375 
L 3216 266 
L 2366 -88 
L 2222 -88 
L 2222 322 
z
M 2222 541 
L 2222 2016 
Q 2203 2228 2109 2403 
Q 2016 2578 1861 2667 
Q 1706 2756 1559 2756 
Q 1284 2756 1069 2509 
Q 784 2184 784 1559 
Q 784 928 1059 592 
Q 1334 256 1672 256 
Q 1956 256 2222 541 
z
" transform="scale(0.015625)"/>
      <path id="TimesNewRomanPSMT-49" d="M 1975 116 
L 1975 0 
L 159 0 
L 159 116 
L 309 116 
Q 572 116 691 269 
Q 766 369 766 750 
L 766 3488 
Q 766 3809 725 3913 
Q 694 3991 597 4047 
Q 459 4122 309 4122 
L 159 4122 
L 159 4238 
L 1975 4238 
L 1975 4122 
L 1822 4122 
Q 1563 4122 1444 3969 
Q 1366 3869 1366 3488 
L 1366 750 
Q 1366 428 1406 325 
Q 1438 247 1538 191 
Q 1672 116 1822 116 
L 1975 116 
z
" transform="scale(0.015625)"/>
     </defs>
     <use xlink:href="#TimesNewRomanPSMT-74"/>
     <use xlink:href="#TimesNewRomanPSMT-68" transform="translate(27.783203 0)"/>
     <use xlink:href="#TimesNewRomanPSMT-65" transform="translate(77.783203 0)"/>
     <use xlink:href="#TimesNewRomanPSMT-20" transform="translate(122.167969 0)"/>
     <use xlink:href="#TimesNewRomanPSMT-44" transform="translate(147.167969 0)"/>
     <use xlink:href="#TimesNewRomanPSMT-69" transform="translate(219.384766 0)"/>
     <use xlink:href="#TimesNewRomanPSMT-73" transform="translate(247.167969 0)"/>
     <use xlink:href="#TimesNewRomanPSMT-74" transform="translate(286.083984 0)"/>
     <use xlink:href="#TimesNewRomanPSMT-72" transform="translate(313.867188 0)"/>
     <use xlink:href="#TimesNewRomanPSMT-69" transform="translate(347.167969 0)"/>
     <use xlink:href="#TimesNewRomanPSMT-62" transform="translate(374.951172 0)"/>
     <use xlink:href="#TimesNewRomanPSMT-75" transform="translate(424.951172 0)"/>
     <use xlink:href="#TimesNewRomanPSMT-74" transform="translate(474.951172 0)"/>
     <use xlink:href="#TimesNewRomanPSMT-69" transform="translate(502.734375 0)"/>
     <use xlink:href="#TimesNewRomanPSMT-6f" transform="translate(530.517578 0)"/>
     <use xlink:href="#TimesNewRomanPSMT-6e" transform="translate(580.517578 0)"/>
     <use xlink:href="#TimesNewRomanPSMT-20" transform="translate(630.517578 0)"/>
     <use xlink:href="#TimesNewRomanPSMT-6f" transform="translate(655.517578 0)"/>
     <use xlink:href="#TimesNewRomanPSMT-66" transform="translate(705.517578 0)"/>
     <use xlink:href="#TimesNewRomanPSMT-20" transform="translate(738.818359 0)"/>
     <use xlink:href="#TimesNewRomanPSMT-43" transform="translate(763.818359 0)"/>
     <use xlink:href="#TimesNewRomanPSMT-75" transform="translate(830.517578 0)"/>
     <use xlink:href="#TimesNewRomanPSMT-6c" transform="translate(880.517578 0)"/>
     <use xlink:href="#TimesNewRomanPSMT-74" transform="translate(908.300781 0)"/>
     <use xlink:href="#TimesNewRomanPSMT-75" transform="translate(936.083984 0)"/>
     <use xlink:href="#TimesNewRomanPSMT-72" transform="translate(986.083984 0)"/>
     <use xlink:href="#TimesNewRomanPSMT-61" transform="translate(1019.384766 0)"/>
     <use xlink:href="#TimesNewRomanPSMT-6c" transform="translate(1063.769531 0)"/>
     <use xlink:href="#TimesNewRomanPSMT-20" transform="translate(1091.552734 0)"/>
     <use xlink:href="#TimesNewRomanPSMT-54" transform="translate(1114.802734 0)"/>
     <use xlink:href="#TimesNewRomanPSMT-72" transform="translate(1172.386719 0)"/>
     <use xlink:href="#TimesNewRomanPSMT-65" transform="translate(1205.6875 0)"/>
     <use xlink:href="#TimesNewRomanPSMT-6e" transform="translate(1250.072266 0)"/>
     <use xlink:href="#TimesNewRomanPSMT-64" transform="translate(1300.072266 0)"/>
     <use xlink:href="#TimesNewRomanPSMT-73" transform="translate(1350.072266 0)"/>
     <use xlink:href="#TimesNewRomanPSMT-20" transform="translate(1388.988281 0)"/>
     <use xlink:href="#TimesNewRomanPSMT-61" transform="translate(1413.988281 0)"/>
     <use xlink:href="#TimesNewRomanPSMT-6e" transform="translate(1458.373047 0)"/>
     <use xlink:href="#TimesNewRomanPSMT-64" transform="translate(1508.373047 0)"/>
     <use xlink:href="#TimesNewRomanPSMT-20" transform="translate(1558.373047 0)"/>
     <use xlink:href="#TimesNewRomanPSMT-49" transform="translate(1583.373047 0)"/>
     <use xlink:href="#TimesNewRomanPSMT-6e" transform="translate(1616.673828 0)"/>
     <use xlink:href="#TimesNewRomanPSMT-66" transform="translate(1666.673828 0)"/>
     <use xlink:href="#TimesNewRomanPSMT-6c" transform="translate(1699.974609 0)"/>
     <use xlink:href="#TimesNewRomanPSMT-75" transform="translate(1727.757812 0)"/>
     <use xlink:href="#TimesNewRomanPSMT-65" transform="translate(1777.757812 0)"/>
     <use xlink:href="#TimesNewRomanPSMT-6e" transform="translate(1822.142578 0)"/>
     <use xlink:href="#TimesNewRomanPSMT-63" transform="translate(1872.142578 0)"/>
     <use xlink:href="#TimesNewRomanPSMT-65" transform="translate(1916.527344 0)"/>
     <use xlink:href="#TimesNewRomanPSMT-73" transform="translate(1960.912109 0)"/>
    </g>
   </g>
   <g id="legend_1">
    <g id="patch_5">
     <path d="M 546.694844 167.906656 
L 670.669062 167.906656 
Q 672.669062 167.906656 672.669062 165.906656 
L 672.669062 43.6 
Q 672.669062 41.6 670.669062 41.6 
L 546.694844 41.6 
Q 544.694844 41.6 544.694844 43.6 
L 544.694844 165.906656 
Q 544.694844 167.906656 546.694844 167.906656 
z
" style="fill: #ffffff; opacity: 0.8; stroke: #cccccc; stroke-linejoin: miter"/>
    </g>
    <g id="text_31">
     <!-- Number of people -->
     <g transform="translate(564.694844 69.238125) scale(0.11 -0.11)">
      <defs>
       <path id="TimesNewRomanPSMT-4e" d="M -84 4238 
L 1066 4238 
L 3656 1059 
L 3656 3503 
Q 3656 3894 3569 3991 
Q 3453 4122 3203 4122 
L 3056 4122 
L 3056 4238 
L 4531 4238 
L 4531 4122 
L 4381 4122 
Q 4113 4122 4000 3959 
Q 3931 3859 3931 3503 
L 3931 -69 
L 3819 -69 
L 1025 3344 
L 1025 734 
Q 1025 344 1109 247 
Q 1228 116 1475 116 
L 1625 116 
L 1625 0 
L 150 0 
L 150 116 
L 297 116 
Q 569 116 681 278 
Q 750 378 750 734 
L 750 3681 
Q 566 3897 470 3965 
Q 375 4034 191 4094 
Q 100 4122 -84 4122 
L -84 4238 
z
" transform="scale(0.015625)"/>
      </defs>
      <use xlink:href="#TimesNewRomanPSMT-4e"/>
      <use xlink:href="#TimesNewRomanPSMT-75" transform="translate(72.216797 0)"/>
      <use xlink:href="#TimesNewRomanPSMT-6d" transform="translate(122.216797 0)"/>
      <use xlink:href="#TimesNewRomanPSMT-62" transform="translate(200 0)"/>
      <use xlink:href="#TimesNewRomanPSMT-65" transform="translate(250 0)"/>
      <use xlink:href="#TimesNewRomanPSMT-72" transform="translate(294.384766 0)"/>
      <use xlink:href="#TimesNewRomanPSMT-20" transform="translate(327.685547 0)"/>
      <use xlink:href="#TimesNewRomanPSMT-6f" transform="translate(352.685547 0)"/>
      <use xlink:href="#TimesNewRomanPSMT-66" transform="translate(402.685547 0)"/>
      <use xlink:href="#TimesNewRomanPSMT-20" transform="translate(435.986328 0)"/>
      <use xlink:href="#TimesNewRomanPSMT-70" transform="translate(460.986328 0)"/>
      <use xlink:href="#TimesNewRomanPSMT-65" transform="translate(510.986328 0)"/>
      <use xlink:href="#TimesNewRomanPSMT-6f" transform="translate(555.371094 0)"/>
      <use xlink:href="#TimesNewRomanPSMT-70" transform="translate(605.371094 0)"/>
      <use xlink:href="#TimesNewRomanPSMT-6c" transform="translate(655.371094 0)"/>
      <use xlink:href="#TimesNewRomanPSMT-65" transform="translate(683.154297 0)"/>
     </g>
     <!-- involved/influenced -->
     <g transform="translate(564.694844 80.756844) scale(0.11 -0.11)">
      <defs>
       <path id="TimesNewRomanPSMT-2f" d="M 1794 4444 
L 259 -88 
L 9 -88 
L 1544 4444 
L 1794 4444 
z
" transform="scale(0.015625)"/>
      </defs>
      <use xlink:href="#TimesNewRomanPSMT-69"/>
      <use xlink:href="#TimesNewRomanPSMT-6e" transform="translate(27.783203 0)"/>
      <use xlink:href="#TimesNewRomanPSMT-76" transform="translate(77.783203 0)"/>
      <use xlink:href="#TimesNewRomanPSMT-6f" transform="translate(127.783203 0)"/>
      <use xlink:href="#TimesNewRomanPSMT-6c" transform="translate(177.783203 0)"/>
      <use xlink:href="#TimesNewRomanPSMT-76" transform="translate(205.566406 0)"/>
      <use xlink:href="#TimesNewRomanPSMT-65" transform="translate(255.566406 0)"/>
      <use xlink:href="#TimesNewRomanPSMT-64" transform="translate(299.951172 0)"/>
      <use xlink:href="#TimesNewRomanPSMT-2f" transform="translate(349.951172 0)"/>
      <use xlink:href="#TimesNewRomanPSMT-69" transform="translate(377.734375 0)"/>
      <use xlink:href="#TimesNewRomanPSMT-6e" transform="translate(405.517578 0)"/>
      <use xlink:href="#TimesNewRomanPSMT-66" transform="translate(455.517578 0)"/>
      <use xlink:href="#TimesNewRomanPSMT-6c" transform="translate(488.818359 0)"/>
      <use xlink:href="#TimesNewRomanPSMT-75" transform="translate(516.601562 0)"/>
      <use xlink:href="#TimesNewRomanPSMT-65" transform="translate(566.601562 0)"/>
      <use xlink:href="#TimesNewRomanPSMT-6e" transform="translate(610.986328 0)"/>
      <use xlink:href="#TimesNewRomanPSMT-63" transform="translate(660.986328 0)"/>
      <use xlink:href="#TimesNewRomanPSMT-65" transform="translate(705.371094 0)"/>
      <use xlink:href="#TimesNewRomanPSMT-64" transform="translate(749.755859 0)"/>
     </g>
     <!-- (count) -->
     <g transform="translate(564.694844 92.275563) scale(0.11 -0.11)">
      <use xlink:href="#TimesNewRomanPSMT-28"/>
      <use xlink:href="#TimesNewRomanPSMT-63" transform="translate(33.300781 0)"/>
      <use xlink:href="#TimesNewRomanPSMT-6f" transform="translate(77.685547 0)"/>
      <use xlink:href="#TimesNewRomanPSMT-75" transform="translate(127.685547 0)"/>
      <use xlink:href="#TimesNewRomanPSMT-6e" transform="translate(177.685547 0)"/>
      <use xlink:href="#TimesNewRomanPSMT-74" transform="translate(227.685547 0)"/>
      <use xlink:href="#TimesNewRomanPSMT-29" transform="translate(255.46875 0)"/>
     </g>
    </g>
    <g id="PathCollection_4">
     <defs>
      <path id="m78a394236c" d="M 0 7.926655 
C 2.102173 7.926655 4.11853 7.091452 5.604991 5.604991 
C 7.091452 4.11853 7.926655 2.102173 7.926655 0 
C 7.926655 -2.102173 7.091452 -4.11853 5.604991 -5.604991 
C 4.11853 -7.091452 2.102173 -7.926655 0 -7.926655 
C -2.102173 -7.926655 -4.11853 -7.091452 -5.604991 -5.604991 
C -7.091452 -4.11853 -7.926655 -2.102173 -7.926655 0 
C -7.926655 2.102173 -7.091452 4.11853 -5.604991 5.604991 
C -4.11853 7.091452 -2.102173 7.926655 0 7.926655 
z
" style="stroke: #000000; stroke-opacity: 0.7; stroke-width: 0.5"/>
     </defs>
     <g>
      <use xlink:href="#m78a394236c" x="584.931953" y="116.503531" style="fill: #9467bd; fill-opacity: 0.7; stroke: #000000; stroke-opacity: 0.7; stroke-width: 0.5"/>
     </g>
    </g>
    <g id="text_32">
     <!-- 100 -->
     <g transform="translate(612.431953 119.128531) scale(0.1 -0.1)">
      <use xlink:href="#TimesNewRomanPSMT-31"/>
      <use xlink:href="#TimesNewRomanPSMT-30" transform="translate(50 0)"/>
      <use xlink:href="#TimesNewRomanPSMT-30" transform="translate(100 0)"/>
     </g>
    </g>
    <g id="PathCollection_5">
     <defs>
      <path id="m8198ec6dcd" d="M 0 15.853309 
C 4.204347 15.853309 8.23706 14.182905 11.209982 11.209982 
C 14.182905 8.23706 15.853309 4.204347 15.853309 0 
C 15.853309 -4.204347 14.182905 -8.23706 11.209982 -11.209982 
C 8.23706 -14.182905 4.204347 -15.853309 0 -15.853309 
C -4.204347 -15.853309 -8.23706 -14.182905 -11.209982 -11.209982 
C -14.182905 -8.23706 -15.853309 -4.204347 -15.853309 0 
C -15.853309 4.204347 -14.182905 8.23706 -11.209982 11.209982 
C -8.23706 14.182905 -4.204347 15.853309 0 15.853309 
z
" style="stroke: #000000; stroke-opacity: 0.7; stroke-width: 0.5"/>
     </defs>
     <g>
      <use xlink:href="#m8198ec6dcd" x="584.931953" y="143.142594" style="fill: #9467bd; fill-opacity: 0.7; stroke: #000000; stroke-opacity: 0.7; stroke-width: 0.5"/>
     </g>
    </g>
    <g id="text_33">
     <!-- 100.0k -->
     <g transform="translate(612.431953 145.767594) scale(0.1 -0.1)">
      <use xlink:href="#TimesNewRomanPSMT-31"/>
      <use xlink:href="#TimesNewRomanPSMT-30" transform="translate(50 0)"/>
      <use xlink:href="#TimesNewRomanPSMT-30" transform="translate(100 0)"/>
      <use xlink:href="#TimesNewRomanPSMT-2e" transform="translate(150 0)"/>
      <use xlink:href="#TimesNewRomanPSMT-30" transform="translate(175 0)"/>
      <use xlink:href="#TimesNewRomanPSMT-6b" transform="translate(225 0)"/>
     </g>
    </g>
   </g>
  </g>
 </g>
 <defs>
  <clipPath id="p7371f1bf1b">
   <rect x="49.82375" y="41.6" width="498.27625" height="451.99625"/>
  </clipPath>
 </defs>
</svg>
