<?xml version="1.0" encoding="utf-8" standalone="no"?>
<!DOCTYPE svg PUBLIC "-//W3C//DTD SVG 1.1//EN"
  "http://www.w3.org/Graphics/SVG/1.1/DTD/svg11.dtd">
<svg xmlns:xlink="http://www.w3.org/1999/xlink" width="720pt" height="540pt" viewBox="0 0 720 540" xmlns="http://www.w3.org/2000/svg" version="1.1">
 <metadata>
  <rdf:RDF xmlns:dc="http://purl.org/dc/elements/1.1/" xmlns:cc="http://creativecommons.org/ns#" xmlns:rdf="http://www.w3.org/1999/02/22-rdf-syntax-ns#">
   <cc:Work>
    <dc:type rdf:resource="http://purl.org/dc/dcmitype/StillImage"/>
    <dc:date>2025-05-25T10:33:18.102032</dc:date>
    <dc:format>image/svg+xml</dc:format>
    <dc:creator>
     <cc:Agent>
      <dc:title>Matplotlib v3.10.0, https://matplotlib.org/</dc:title>
     </cc:Agent>
    </dc:creator>
   </cc:Work>
  </rdf:RDF>
 </metadata>
 <defs>
  <style type="text/css">*{stroke-linejoin: round; stroke-linecap: butt}</style>
 </defs>
 <g id="figure_1">
  <g id="patch_1">
   <path d="M 0 540 
L 720 540 
L 720 0 
L 0 0 
z
" style="fill: #ffffff"/>
  </g>
  <g id="axes_1">
   <g id="patch_2">
    <path d="M 46.85375 493.59625 
L 548.1 493.59625 
L 548.1 41.6 
L 46.85375 41.6 
z
" style="fill: #ffffff"/>
   </g>
   <g id="PathCollection_1">
    <path d="M 217.556247 308.48636 
C 222.256849 308.48636 226.76556 306.618791 230.089388 303.294963 
C 233.413216 299.971135 235.280785 295.462424 235.280785 290.761821 
C 235.280785 286.061219 233.413216 281.552508 230.089388 278.22868 
C 226.76556 274.904852 222.256849 273.037283 217.556247 273.037283 
C 212.855644 273.037283 208.346933 274.904852 205.023105 278.22868 
C 201.699278 281.552508 199.831708 286.061219 199.831708 290.761821 
C 199.831708 295.462424 201.699278 299.971135 205.023105 303.294963 
C 208.346933 306.618791 212.855644 308.48636 217.556247 308.48636 
z
" clip-path="url(#p337a79aec7)" style="fill: #8c564b; fill-opacity: 0.7; stroke: #000000; stroke-opacity: 0.7; stroke-width: 0.5"/>
    <path d="M 490.263894 110.105565 
C 494.600535 110.105565 498.760143 108.382599 501.826611 105.316131 
C 504.89308 102.249662 506.616045 98.090055 506.616045 93.753413 
C 506.616045 89.416772 504.89308 85.257165 501.826611 82.190696 
C 498.760143 79.124228 494.600535 77.401262 490.263894 77.401262 
C 485.927253 77.401262 481.767646 79.124228 478.701177 82.190696 
C 475.634709 85.257165 473.911743 89.416772 473.911743 93.753413 
C 473.911743 98.090055 475.634709 102.249662 478.701177 105.316131 
C 481.767646 108.382599 485.927253 110.105565 490.263894 110.105565 
z
" clip-path="url(#p337a79aec7)" style="fill: #8c564b; fill-opacity: 0.7; stroke: #000000; stroke-opacity: 0.7; stroke-width: 0.5"/>
    <path d="M 268.423057 183.966213 
C 272.491337 183.966213 276.39354 182.349868 279.270248 179.473159 
C 282.146957 176.59645 283.763302 172.694248 283.763302 168.625968 
C 283.763302 164.557687 282.146957 160.655485 279.270248 157.778776 
C 276.39354 154.902067 272.491337 153.285722 268.423057 153.285722 
C 264.354776 153.285722 260.452574 154.902067 257.575865 157.778776 
C 254.699156 160.655485 253.082811 164.557687 253.082811 168.625968 
C 253.082811 172.694248 254.699156 176.59645 257.575865 179.473159 
C 260.452574 182.349868 264.354776 183.966213 268.423057 183.966213 
z
" clip-path="url(#p337a79aec7)" style="fill: #8c564b; fill-opacity: 0.7; stroke: #000000; stroke-opacity: 0.7; stroke-width: 0.5"/>
    <path d="M 156.009217 359.840158 
C 159.684887 359.840158 163.210505 358.379799 165.809595 355.780708 
C 168.408686 353.181618 169.869045 349.655999 169.869045 345.98033 
C 169.869045 342.304661 168.408686 338.779043 165.809595 336.179952 
C 163.210505 333.580861 159.684887 332.120502 156.009217 332.120502 
C 152.333548 332.120502 148.80793 333.580861 146.208839 336.179952 
C 143.609748 338.779043 142.149389 342.304661 142.149389 345.98033 
C 142.149389 349.655999 143.609748 353.181618 146.208839 355.780708 
C 148.80793 358.379799 152.333548 359.840158 156.009217 359.840158 
z
" clip-path="url(#p337a79aec7)" style="fill: #8c564b; fill-opacity: 0.7; stroke: #000000; stroke-opacity: 0.7; stroke-width: 0.5"/>
    <path d="M 204.251227 211.854122 
C 207.648792 211.854122 210.907658 210.504255 213.310099 208.101815 
C 215.71254 205.699374 217.062407 202.440507 217.062407 199.042943 
C 217.062407 195.645378 215.71254 192.386512 213.310099 189.984071 
C 210.907658 187.58163 207.648792 186.231763 204.251227 186.231763 
C 200.853663 186.231763 197.594796 187.58163 195.192355 189.984071 
C 192.789914 192.386512 191.440048 195.645378 191.440048 199.042943 
C 191.440048 202.440507 192.789914 205.699374 195.192355 208.101815 
C 197.594796 210.504255 200.853663 211.854122 204.251227 211.854122 
z
" clip-path="url(#p337a79aec7)" style="fill: #8c564b; fill-opacity: 0.7; stroke: #000000; stroke-opacity: 0.7; stroke-width: 0.5"/>
    <path d="M 104.689856 451.557548 
C 107.372309 451.557548 109.945256 450.491798 111.842037 448.595018 
C 113.738818 446.698237 114.804567 444.125289 114.804567 441.442837 
C 114.804567 438.760384 113.738818 436.187436 111.842037 434.290655 
C 109.945256 432.393875 107.372309 431.328125 104.689856 431.328125 
C 102.007403 431.328125 99.434455 432.393875 97.537675 434.290655 
C 95.640894 436.187436 94.575144 438.760384 94.575144 441.442837 
C 94.575144 444.125289 95.640894 446.698237 97.537675 448.595018 
C 99.434455 450.491798 102.007403 451.557548 104.689856 451.557548 
z
" clip-path="url(#p337a79aec7)" style="fill: #8c564b; fill-opacity: 0.7; stroke: #000000; stroke-opacity: 0.7; stroke-width: 0.5"/>
    <path d="M 461.210076 135.139779 
C 463.746884 135.139779 466.180133 134.131894 467.973927 132.3381 
C 469.767721 130.544306 470.775606 128.111057 470.775606 125.574249 
C 470.775606 123.037441 469.767721 120.604192 467.973927 118.810398 
C 466.180133 117.016604 463.746884 116.008719 461.210076 116.008719 
C 458.673268 116.008719 456.240019 117.016604 454.446225 118.810398 
C 452.652431 120.604192 451.644546 123.037441 451.644546 125.574249 
C 451.644546 128.111057 452.652431 130.544306 454.446225 132.3381 
C 456.240019 134.131894 458.673268 135.139779 461.210076 135.139779 
z
" clip-path="url(#p337a79aec7)" style="fill: #8c564b; fill-opacity: 0.7; stroke: #000000; stroke-opacity: 0.7; stroke-width: 0.5"/>
    <path d="M 275.030311 288.972101 
C 277.534137 288.972101 279.935749 287.97732 281.706221 286.206848 
C 283.476693 284.436376 284.471474 282.034764 284.471474 279.530938 
C 284.471474 277.027113 283.476693 274.6255 281.706221 272.855028 
C 279.935749 271.084556 277.534137 270.089776 275.030311 270.089776 
C 272.526486 270.089776 270.124873 271.084556 268.354401 272.855028 
C 266.583929 274.6255 265.589149 277.027113 265.589149 279.530938 
C 265.589149 282.034764 266.583929 284.436376 268.354401 286.206848 
C 270.124873 287.97732 272.526486 288.972101 275.030311 288.972101 
z
" clip-path="url(#p337a79aec7)" style="fill: #8c564b; fill-opacity: 0.7; stroke: #000000; stroke-opacity: 0.7; stroke-width: 0.5"/>
    <path d="M 390.793033 375.233725 
C 393.214708 375.233725 395.537523 374.271583 397.249905 372.559201 
C 398.962288 370.846818 399.924429 368.524003 399.924429 366.102329 
C 399.924429 363.680654 398.962288 361.357839 397.249905 359.645457 
C 395.537523 357.933075 393.214708 356.970933 390.793033 356.970933 
C 388.371359 356.970933 386.048544 357.933075 384.336161 359.645457 
C 382.623779 361.357839 381.661637 363.680654 381.661637 366.102329 
C 381.661637 368.524003 382.623779 370.846818 384.336161 372.559201 
C 386.048544 374.271583 388.371359 375.233725 390.793033 375.233725 
z
" clip-path="url(#p337a79aec7)" style="fill: #8c564b; fill-opacity: 0.7; stroke: #000000; stroke-opacity: 0.7; stroke-width: 0.5"/>
    <path d="M 304.627192 330.509019 
C 306.977493 330.509019 309.231848 329.575235 310.893762 327.913321 
C 312.555676 326.251407 313.489461 323.997051 313.489461 321.64675 
C 313.489461 319.296449 312.555676 317.042093 310.893762 315.380179 
C 309.231848 313.718265 306.977493 312.784481 304.627192 312.784481 
C 302.27689 312.784481 300.022535 313.718265 298.360621 315.380179 
C 296.698707 317.042093 295.764922 319.296449 295.764922 321.64675 
C 295.764922 323.997051 296.698707 326.251407 298.360621 327.913321 
C 300.022535 329.575235 302.27689 330.509019 304.627192 330.509019 
z
" clip-path="url(#p337a79aec7)" style="fill: #8c564b; fill-opacity: 0.7; stroke: #000000; stroke-opacity: 0.7; stroke-width: 0.5"/>
   </g>
   <g id="PathCollection_2"/>
   <g id="PathCollection_3"/>
   <g id="matplotlib.axis_1">
    <g id="xtick_1">
     <g id="line2d_1">
      <defs>
       <path id="mdaac510e8d" d="M 0 0 
L 0 3.5 
" style="stroke: #000000"/>
      </defs>
      <g>
       <use xlink:href="#mdaac510e8d" x="68.666741" y="493.59625" style="stroke: #000000"/>
      </g>
     </g>
     <g id="text_1">
      <!-- 0 -->
      <g transform="translate(65.666741 508.92875) scale(0.12 -0.12)">
       <defs>
        <path id="TimesNewRomanPSMT-30" d="M 231 2094 
Q 231 2819 450 3342 
Q 669 3866 1031 4122 
Q 1313 4325 1613 4325 
Q 2100 4325 2488 3828 
Q 2972 3213 2972 2159 
Q 2972 1422 2759 906 
Q 2547 391 2217 158 
Q 1888 -75 1581 -75 
Q 975 -75 572 641 
Q 231 1244 231 2094 
z
M 844 2016 
Q 844 1141 1059 588 
Q 1238 122 1591 122 
Q 1759 122 1940 273 
Q 2122 425 2216 781 
Q 2359 1319 2359 2297 
Q 2359 3022 2209 3506 
Q 2097 3866 1919 4016 
Q 1791 4119 1609 4119 
Q 1397 4119 1231 3928 
Q 1006 3669 925 3112 
Q 844 2556 844 2016 
z
" transform="scale(0.015625)"/>
       </defs>
       <use xlink:href="#TimesNewRomanPSMT-30"/>
      </g>
     </g>
    </g>
    <g id="xtick_2">
     <g id="line2d_2">
      <g>
       <use xlink:href="#mdaac510e8d" x="159.177079" y="493.59625" style="stroke: #000000"/>
      </g>
     </g>
     <g id="text_2">
      <!-- 10 -->
      <g transform="translate(153.177079 508.92875) scale(0.12 -0.12)">
       <defs>
        <path id="TimesNewRomanPSMT-31" d="M 750 3822 
L 1781 4325 
L 1884 4325 
L 1884 747 
Q 1884 391 1914 303 
Q 1944 216 2037 169 
Q 2131 122 2419 116 
L 2419 0 
L 825 0 
L 825 116 
Q 1125 122 1212 167 
Q 1300 213 1334 289 
Q 1369 366 1369 747 
L 1369 3034 
Q 1369 3497 1338 3628 
Q 1316 3728 1258 3775 
Q 1200 3822 1119 3822 
Q 1003 3822 797 3725 
L 750 3822 
z
" transform="scale(0.015625)"/>
       </defs>
       <use xlink:href="#TimesNewRomanPSMT-31"/>
       <use xlink:href="#TimesNewRomanPSMT-30" transform="translate(50 0)"/>
      </g>
     </g>
    </g>
    <g id="xtick_3">
     <g id="line2d_3">
      <g>
       <use xlink:href="#mdaac510e8d" x="249.687417" y="493.59625" style="stroke: #000000"/>
      </g>
     </g>
     <g id="text_3">
      <!-- 20 -->
      <g transform="translate(243.687417 508.92875) scale(0.12 -0.12)">
       <defs>
        <path id="TimesNewRomanPSMT-32" d="M 2934 816 
L 2638 0 
L 138 0 
L 138 116 
Q 1241 1122 1691 1759 
Q 2141 2397 2141 2925 
Q 2141 3328 1894 3587 
Q 1647 3847 1303 3847 
Q 991 3847 742 3664 
Q 494 3481 375 3128 
L 259 3128 
Q 338 3706 661 4015 
Q 984 4325 1469 4325 
Q 1984 4325 2329 3994 
Q 2675 3663 2675 3213 
Q 2675 2891 2525 2569 
Q 2294 2063 1775 1497 
Q 997 647 803 472 
L 1909 472 
Q 2247 472 2383 497 
Q 2519 522 2628 598 
Q 2738 675 2819 816 
L 2934 816 
z
" transform="scale(0.015625)"/>
       </defs>
       <use xlink:href="#TimesNewRomanPSMT-32"/>
       <use xlink:href="#TimesNewRomanPSMT-30" transform="translate(50 0)"/>
      </g>
     </g>
    </g>
    <g id="xtick_4">
     <g id="line2d_4">
      <g>
       <use xlink:href="#mdaac510e8d" x="340.197754" y="493.59625" style="stroke: #000000"/>
      </g>
     </g>
     <g id="text_4">
      <!-- 30 -->
      <g transform="translate(334.197754 508.92875) scale(0.12 -0.12)">
       <defs>
        <path id="TimesNewRomanPSMT-33" d="M 325 3431 
Q 506 3859 782 4092 
Q 1059 4325 1472 4325 
Q 1981 4325 2253 3994 
Q 2459 3747 2459 3466 
Q 2459 3003 1878 2509 
Q 2269 2356 2469 2072 
Q 2669 1788 2669 1403 
Q 2669 853 2319 450 
Q 1863 -75 997 -75 
Q 569 -75 414 31 
Q 259 138 259 259 
Q 259 350 332 419 
Q 406 488 509 488 
Q 588 488 669 463 
Q 722 447 909 348 
Q 1097 250 1169 231 
Q 1284 197 1416 197 
Q 1734 197 1970 444 
Q 2206 691 2206 1028 
Q 2206 1275 2097 1509 
Q 2016 1684 1919 1775 
Q 1784 1900 1550 2001 
Q 1316 2103 1072 2103 
L 972 2103 
L 972 2197 
Q 1219 2228 1467 2375 
Q 1716 2522 1828 2728 
Q 1941 2934 1941 3181 
Q 1941 3503 1739 3701 
Q 1538 3900 1238 3900 
Q 753 3900 428 3381 
L 325 3431 
z
" transform="scale(0.015625)"/>
       </defs>
       <use xlink:href="#TimesNewRomanPSMT-33"/>
       <use xlink:href="#TimesNewRomanPSMT-30" transform="translate(50 0)"/>
      </g>
     </g>
    </g>
    <g id="xtick_5">
     <g id="line2d_5">
      <g>
       <use xlink:href="#mdaac510e8d" x="430.708092" y="493.59625" style="stroke: #000000"/>
      </g>
     </g>
     <g id="text_5">
      <!-- 40 -->
      <g transform="translate(424.708092 508.92875) scale(0.12 -0.12)">
       <defs>
        <path id="TimesNewRomanPSMT-34" d="M 2978 1563 
L 2978 1119 
L 2409 1119 
L 2409 0 
L 1894 0 
L 1894 1119 
L 100 1119 
L 100 1519 
L 2066 4325 
L 2409 4325 
L 2409 1563 
L 2978 1563 
z
M 1894 1563 
L 1894 3666 
L 406 1563 
L 1894 1563 
z
" transform="scale(0.015625)"/>
       </defs>
       <use xlink:href="#TimesNewRomanPSMT-34"/>
       <use xlink:href="#TimesNewRomanPSMT-30" transform="translate(50 0)"/>
      </g>
     </g>
    </g>
    <g id="xtick_6">
     <g id="line2d_6">
      <g>
       <use xlink:href="#mdaac510e8d" x="521.21843" y="493.59625" style="stroke: #000000"/>
      </g>
     </g>
     <g id="text_6">
      <!-- 50 -->
      <g transform="translate(515.21843 508.92875) scale(0.12 -0.12)">
       <defs>
        <path id="TimesNewRomanPSMT-35" d="M 2778 4238 
L 2534 3706 
L 1259 3706 
L 981 3138 
Q 1809 3016 2294 2522 
Q 2709 2097 2709 1522 
Q 2709 1188 2573 903 
Q 2438 619 2231 419 
Q 2025 219 1772 97 
Q 1413 -75 1034 -75 
Q 653 -75 479 54 
Q 306 184 306 341 
Q 306 428 378 495 
Q 450 563 559 563 
Q 641 563 702 538 
Q 763 513 909 409 
Q 1144 247 1384 247 
Q 1750 247 2026 523 
Q 2303 800 2303 1197 
Q 2303 1581 2056 1914 
Q 1809 2247 1375 2428 
Q 1034 2569 447 2591 
L 1259 4238 
L 2778 4238 
z
" transform="scale(0.015625)"/>
       </defs>
       <use xlink:href="#TimesNewRomanPSMT-35"/>
       <use xlink:href="#TimesNewRomanPSMT-30" transform="translate(50 0)"/>
      </g>
     </g>
    </g>
    <g id="text_7">
     <!-- Infrastructure age (years) -->
     <g transform="translate(226.740781 525.216875) scale(0.14 -0.14)">
      <defs>
       <path id="TimesNewRomanPSMT-49" d="M 1975 116 
L 1975 0 
L 159 0 
L 159 116 
L 309 116 
Q 572 116 691 269 
Q 766 369 766 750 
L 766 3488 
Q 766 3809 725 3913 
Q 694 3991 597 4047 
Q 459 4122 309 4122 
L 159 4122 
L 159 4238 
L 1975 4238 
L 1975 4122 
L 1822 4122 
Q 1563 4122 1444 3969 
Q 1366 3869 1366 3488 
L 1366 750 
Q 1366 428 1406 325 
Q 1438 247 1538 191 
Q 1672 116 1822 116 
L 1975 116 
z
" transform="scale(0.015625)"/>
       <path id="TimesNewRomanPSMT-6e" d="M 1034 2341 
Q 1538 2947 1994 2947 
Q 2228 2947 2397 2830 
Q 2566 2713 2666 2444 
Q 2734 2256 2734 1869 
L 2734 647 
Q 2734 375 2778 278 
Q 2813 200 2889 156 
Q 2966 113 3172 113 
L 3172 0 
L 1756 0 
L 1756 113 
L 1816 113 
Q 2016 113 2095 173 
Q 2175 234 2206 353 
Q 2219 400 2219 647 
L 2219 1819 
Q 2219 2209 2117 2386 
Q 2016 2563 1775 2563 
Q 1403 2563 1034 2156 
L 1034 647 
Q 1034 356 1069 288 
Q 1113 197 1189 155 
Q 1266 113 1500 113 
L 1500 0 
L 84 0 
L 84 113 
L 147 113 
Q 366 113 442 223 
Q 519 334 519 647 
L 519 1709 
Q 519 2225 495 2337 
Q 472 2450 423 2490 
Q 375 2531 294 2531 
Q 206 2531 84 2484 
L 38 2597 
L 900 2947 
L 1034 2947 
L 1034 2341 
z
" transform="scale(0.015625)"/>
       <path id="TimesNewRomanPSMT-66" d="M 1319 2638 
L 1319 756 
Q 1319 356 1406 250 
Q 1522 113 1716 113 
L 1975 113 
L 1975 0 
L 266 0 
L 266 113 
L 394 113 
Q 519 113 622 175 
Q 725 238 764 344 
Q 803 450 803 756 
L 803 2638 
L 247 2638 
L 247 2863 
L 803 2863 
L 803 3050 
Q 803 3478 940 3775 
Q 1078 4072 1361 4255 
Q 1644 4438 1997 4438 
Q 2325 4438 2600 4225 
Q 2781 4084 2781 3909 
Q 2781 3816 2700 3733 
Q 2619 3650 2525 3650 
Q 2453 3650 2373 3701 
Q 2294 3753 2178 3923 
Q 2063 4094 1966 4153 
Q 1869 4213 1750 4213 
Q 1606 4213 1506 4136 
Q 1406 4059 1362 3898 
Q 1319 3738 1319 3069 
L 1319 2863 
L 2056 2863 
L 2056 2638 
L 1319 2638 
z
" transform="scale(0.015625)"/>
       <path id="TimesNewRomanPSMT-72" d="M 1038 2947 
L 1038 2303 
Q 1397 2947 1775 2947 
Q 1947 2947 2059 2842 
Q 2172 2738 2172 2600 
Q 2172 2478 2090 2393 
Q 2009 2309 1897 2309 
Q 1788 2309 1652 2417 
Q 1516 2525 1450 2525 
Q 1394 2525 1328 2463 
Q 1188 2334 1038 2041 
L 1038 669 
Q 1038 431 1097 309 
Q 1138 225 1241 169 
Q 1344 113 1538 113 
L 1538 0 
L 72 0 
L 72 113 
Q 291 113 397 181 
Q 475 231 506 341 
Q 522 394 522 644 
L 522 1753 
Q 522 2253 501 2348 
Q 481 2444 426 2487 
Q 372 2531 291 2531 
Q 194 2531 72 2484 
L 41 2597 
L 906 2947 
L 1038 2947 
z
" transform="scale(0.015625)"/>
       <path id="TimesNewRomanPSMT-61" d="M 1822 413 
Q 1381 72 1269 19 
Q 1100 -59 909 -59 
Q 613 -59 420 144 
Q 228 347 228 678 
Q 228 888 322 1041 
Q 450 1253 767 1440 
Q 1084 1628 1822 1897 
L 1822 2009 
Q 1822 2438 1686 2597 
Q 1550 2756 1291 2756 
Q 1094 2756 978 2650 
Q 859 2544 859 2406 
L 866 2225 
Q 866 2081 792 2003 
Q 719 1925 600 1925 
Q 484 1925 411 2006 
Q 338 2088 338 2228 
Q 338 2497 613 2722 
Q 888 2947 1384 2947 
Q 1766 2947 2009 2819 
Q 2194 2722 2281 2516 
Q 2338 2381 2338 1966 
L 2338 994 
Q 2338 584 2353 492 
Q 2369 400 2405 369 
Q 2441 338 2488 338 
Q 2538 338 2575 359 
Q 2641 400 2828 588 
L 2828 413 
Q 2478 -56 2159 -56 
Q 2006 -56 1915 50 
Q 1825 156 1822 413 
z
M 1822 616 
L 1822 1706 
Q 1350 1519 1213 1441 
Q 966 1303 859 1153 
Q 753 1003 753 825 
Q 753 600 887 451 
Q 1022 303 1197 303 
Q 1434 303 1822 616 
z
" transform="scale(0.015625)"/>
       <path id="TimesNewRomanPSMT-73" d="M 2050 2947 
L 2050 1972 
L 1947 1972 
Q 1828 2431 1642 2597 
Q 1456 2763 1169 2763 
Q 950 2763 815 2647 
Q 681 2531 681 2391 
Q 681 2216 781 2091 
Q 878 1963 1175 1819 
L 1631 1597 
Q 2266 1288 2266 781 
Q 2266 391 1970 151 
Q 1675 -88 1309 -88 
Q 1047 -88 709 6 
Q 606 38 541 38 
Q 469 38 428 -44 
L 325 -44 
L 325 978 
L 428 978 
Q 516 541 762 319 
Q 1009 97 1316 97 
Q 1531 97 1667 223 
Q 1803 350 1803 528 
Q 1803 744 1651 891 
Q 1500 1038 1047 1263 
Q 594 1488 453 1669 
Q 313 1847 313 2119 
Q 313 2472 555 2709 
Q 797 2947 1181 2947 
Q 1350 2947 1591 2875 
Q 1750 2828 1803 2828 
Q 1853 2828 1881 2850 
Q 1909 2872 1947 2947 
L 2050 2947 
z
" transform="scale(0.015625)"/>
       <path id="TimesNewRomanPSMT-74" d="M 1031 3803 
L 1031 2863 
L 1700 2863 
L 1700 2644 
L 1031 2644 
L 1031 788 
Q 1031 509 1111 412 
Q 1191 316 1316 316 
Q 1419 316 1516 380 
Q 1613 444 1666 569 
L 1788 569 
Q 1678 263 1478 108 
Q 1278 -47 1066 -47 
Q 922 -47 784 33 
Q 647 113 581 261 
Q 516 409 516 719 
L 516 2644 
L 63 2644 
L 63 2747 
Q 234 2816 414 2980 
Q 594 3144 734 3369 
Q 806 3488 934 3803 
L 1031 3803 
z
" transform="scale(0.015625)"/>
       <path id="TimesNewRomanPSMT-75" d="M 2709 2863 
L 2709 1128 
Q 2709 631 2732 520 
Q 2756 409 2807 365 
Q 2859 322 2928 322 
Q 3025 322 3147 375 
L 3191 266 
L 2334 -88 
L 2194 -88 
L 2194 519 
Q 1825 119 1631 15 
Q 1438 -88 1222 -88 
Q 981 -88 804 51 
Q 628 191 559 409 
Q 491 628 491 1028 
L 491 2306 
Q 491 2509 447 2587 
Q 403 2666 317 2708 
Q 231 2750 6 2747 
L 6 2863 
L 1009 2863 
L 1009 947 
Q 1009 547 1148 422 
Q 1288 297 1484 297 
Q 1619 297 1789 381 
Q 1959 466 2194 703 
L 2194 2325 
Q 2194 2569 2105 2655 
Q 2016 2741 1734 2747 
L 1734 2863 
L 2709 2863 
z
" transform="scale(0.015625)"/>
       <path id="TimesNewRomanPSMT-63" d="M 2631 1088 
Q 2516 522 2178 217 
Q 1841 -88 1431 -88 
Q 944 -88 581 321 
Q 219 731 219 1428 
Q 219 2103 620 2525 
Q 1022 2947 1584 2947 
Q 2006 2947 2278 2723 
Q 2550 2500 2550 2259 
Q 2550 2141 2473 2067 
Q 2397 1994 2259 1994 
Q 2075 1994 1981 2113 
Q 1928 2178 1911 2362 
Q 1894 2547 1784 2644 
Q 1675 2738 1481 2738 
Q 1169 2738 978 2506 
Q 725 2200 725 1697 
Q 725 1184 976 792 
Q 1228 400 1656 400 
Q 1963 400 2206 609 
Q 2378 753 2541 1131 
L 2631 1088 
z
" transform="scale(0.015625)"/>
       <path id="TimesNewRomanPSMT-65" d="M 681 1784 
Q 678 1147 991 784 
Q 1303 422 1725 422 
Q 2006 422 2214 576 
Q 2422 731 2563 1106 
L 2659 1044 
Q 2594 616 2278 264 
Q 1963 -88 1488 -88 
Q 972 -88 605 314 
Q 238 716 238 1394 
Q 238 2128 614 2539 
Q 991 2950 1559 2950 
Q 2041 2950 2350 2633 
Q 2659 2316 2659 1784 
L 681 1784 
z
M 681 1966 
L 2006 1966 
Q 1991 2241 1941 2353 
Q 1863 2528 1708 2628 
Q 1553 2728 1384 2728 
Q 1125 2728 920 2526 
Q 716 2325 681 1966 
z
" transform="scale(0.015625)"/>
       <path id="TimesNewRomanPSMT-20" transform="scale(0.015625)"/>
       <path id="TimesNewRomanPSMT-67" d="M 966 1044 
Q 703 1172 562 1401 
Q 422 1631 422 1909 
Q 422 2334 742 2640 
Q 1063 2947 1563 2947 
Q 1972 2947 2272 2747 
L 2878 2747 
Q 3013 2747 3034 2739 
Q 3056 2731 3066 2713 
Q 3084 2684 3084 2613 
Q 3084 2531 3069 2500 
Q 3059 2484 3036 2475 
Q 3013 2466 2878 2466 
L 2506 2466 
Q 2681 2241 2681 1891 
Q 2681 1491 2375 1206 
Q 2069 922 1553 922 
Q 1341 922 1119 984 
Q 981 866 932 777 
Q 884 688 884 625 
Q 884 572 936 522 
Q 988 472 1138 450 
Q 1225 438 1575 428 
Q 2219 413 2409 384 
Q 2700 344 2873 169 
Q 3047 -6 3047 -263 
Q 3047 -616 2716 -925 
Q 2228 -1381 1444 -1381 
Q 841 -1381 425 -1109 
Q 191 -953 191 -784 
Q 191 -709 225 -634 
Q 278 -519 444 -313 
Q 466 -284 763 25 
Q 600 122 533 198 
Q 466 275 466 372 
Q 466 481 555 628 
Q 644 775 966 1044 
z
M 1509 2797 
Q 1278 2797 1122 2612 
Q 966 2428 966 2047 
Q 966 1553 1178 1281 
Q 1341 1075 1591 1075 
Q 1828 1075 1981 1253 
Q 2134 1431 2134 1813 
Q 2134 2309 1919 2591 
Q 1759 2797 1509 2797 
z
M 934 0 
Q 788 -159 713 -296 
Q 638 -434 638 -550 
Q 638 -700 819 -813 
Q 1131 -1006 1722 -1006 
Q 2284 -1006 2551 -807 
Q 2819 -609 2819 -384 
Q 2819 -222 2659 -153 
Q 2497 -84 2016 -72 
Q 1313 -53 934 0 
z
" transform="scale(0.015625)"/>
       <path id="TimesNewRomanPSMT-28" d="M 1988 -1253 
L 1988 -1369 
Q 1516 -1131 1200 -813 
Q 750 -359 506 256 
Q 263 872 263 1534 
Q 263 2503 741 3301 
Q 1219 4100 1988 4444 
L 1988 4313 
Q 1603 4100 1356 3731 
Q 1109 3363 987 2797 
Q 866 2231 866 1616 
Q 866 947 969 400 
Q 1050 -31 1165 -292 
Q 1281 -553 1476 -793 
Q 1672 -1034 1988 -1253 
z
" transform="scale(0.015625)"/>
       <path id="TimesNewRomanPSMT-79" d="M 38 2863 
L 1372 2863 
L 1372 2747 
L 1306 2747 
Q 1166 2747 1095 2686 
Q 1025 2625 1025 2534 
Q 1025 2413 1128 2197 
L 1825 753 
L 2466 2334 
Q 2519 2463 2519 2588 
Q 2519 2644 2497 2672 
Q 2472 2706 2419 2726 
Q 2366 2747 2231 2747 
L 2231 2863 
L 3163 2863 
L 3163 2747 
Q 3047 2734 2984 2696 
Q 2922 2659 2847 2556 
Q 2819 2513 2741 2316 
L 1575 -541 
Q 1406 -956 1132 -1168 
Q 859 -1381 606 -1381 
Q 422 -1381 303 -1275 
Q 184 -1169 184 -1031 
Q 184 -900 270 -820 
Q 356 -741 506 -741 
Q 609 -741 788 -809 
Q 913 -856 944 -856 
Q 1038 -856 1148 -759 
Q 1259 -663 1372 -384 
L 1575 113 
L 547 2272 
Q 500 2369 397 2513 
Q 319 2622 269 2659 
Q 197 2709 38 2747 
L 38 2863 
z
" transform="scale(0.015625)"/>
       <path id="TimesNewRomanPSMT-29" d="M 144 4313 
L 144 4444 
Q 619 4209 934 3891 
Q 1381 3434 1625 2820 
Q 1869 2206 1869 1541 
Q 1869 572 1392 -226 
Q 916 -1025 144 -1369 
L 144 -1253 
Q 528 -1038 776 -670 
Q 1025 -303 1145 264 
Q 1266 831 1266 1447 
Q 1266 2113 1163 2663 
Q 1084 3094 967 3353 
Q 850 3613 656 3853 
Q 463 4094 144 4313 
z
" transform="scale(0.015625)"/>
      </defs>
      <use xlink:href="#TimesNewRomanPSMT-49"/>
      <use xlink:href="#TimesNewRomanPSMT-6e" transform="translate(33.300781 0)"/>
      <use xlink:href="#TimesNewRomanPSMT-66" transform="translate(83.300781 0)"/>
      <use xlink:href="#TimesNewRomanPSMT-72" transform="translate(116.601562 0)"/>
      <use xlink:href="#TimesNewRomanPSMT-61" transform="translate(149.902344 0)"/>
      <use xlink:href="#TimesNewRomanPSMT-73" transform="translate(194.287109 0)"/>
      <use xlink:href="#TimesNewRomanPSMT-74" transform="translate(233.203125 0)"/>
      <use xlink:href="#TimesNewRomanPSMT-72" transform="translate(260.986328 0)"/>
      <use xlink:href="#TimesNewRomanPSMT-75" transform="translate(294.287109 0)"/>
      <use xlink:href="#TimesNewRomanPSMT-63" transform="translate(344.287109 0)"/>
      <use xlink:href="#TimesNewRomanPSMT-74" transform="translate(388.671875 0)"/>
      <use xlink:href="#TimesNewRomanPSMT-75" transform="translate(416.455078 0)"/>
      <use xlink:href="#TimesNewRomanPSMT-72" transform="translate(466.455078 0)"/>
      <use xlink:href="#TimesNewRomanPSMT-65" transform="translate(499.755859 0)"/>
      <use xlink:href="#TimesNewRomanPSMT-20" transform="translate(544.140625 0)"/>
      <use xlink:href="#TimesNewRomanPSMT-61" transform="translate(569.140625 0)"/>
      <use xlink:href="#TimesNewRomanPSMT-67" transform="translate(613.525391 0)"/>
      <use xlink:href="#TimesNewRomanPSMT-65" transform="translate(663.525391 0)"/>
      <use xlink:href="#TimesNewRomanPSMT-20" transform="translate(707.910156 0)"/>
      <use xlink:href="#TimesNewRomanPSMT-28" transform="translate(732.910156 0)"/>
      <use xlink:href="#TimesNewRomanPSMT-79" transform="translate(766.210938 0)"/>
      <use xlink:href="#TimesNewRomanPSMT-65" transform="translate(816.210938 0)"/>
      <use xlink:href="#TimesNewRomanPSMT-61" transform="translate(860.595703 0)"/>
      <use xlink:href="#TimesNewRomanPSMT-72" transform="translate(904.980469 0)"/>
      <use xlink:href="#TimesNewRomanPSMT-73" transform="translate(938.28125 0)"/>
      <use xlink:href="#TimesNewRomanPSMT-29" transform="translate(977.197266 0)"/>
     </g>
    </g>
   </g>
   <g id="matplotlib.axis_2">
    <g id="ytick_1">
     <g id="line2d_7">
      <defs>
       <path id="m4b9cce150e" d="M 0 0 
L -3.5 0 
" style="stroke: #000000"/>
      </defs>
      <g>
       <use xlink:href="#m4b9cce150e" x="46.85375" y="462.968696" style="stroke: #000000"/>
      </g>
     </g>
     <g id="text_8">
      <!-- 90 -->
      <g transform="translate(27.85375 467.134946) scale(0.12 -0.12)">
       <defs>
        <path id="TimesNewRomanPSMT-39" d="M 338 -88 
L 338 28 
Q 744 34 1094 217 
Q 1444 400 1770 856 
Q 2097 1313 2225 1859 
Q 1734 1544 1338 1544 
Q 891 1544 572 1889 
Q 253 2234 253 2806 
Q 253 3363 572 3797 
Q 956 4325 1575 4325 
Q 2097 4325 2469 3894 
Q 2925 3359 2925 2575 
Q 2925 1869 2578 1258 
Q 2231 647 1613 244 
Q 1109 -88 516 -88 
L 338 -88 
z
M 2275 2091 
Q 2331 2497 2331 2741 
Q 2331 3044 2228 3395 
Q 2125 3747 1936 3934 
Q 1747 4122 1506 4122 
Q 1228 4122 1018 3872 
Q 809 3622 809 3128 
Q 809 2469 1088 2097 
Q 1291 1828 1588 1828 
Q 1731 1828 1928 1897 
Q 2125 1966 2275 2091 
z
" transform="scale(0.015625)"/>
       </defs>
       <use xlink:href="#TimesNewRomanPSMT-39"/>
       <use xlink:href="#TimesNewRomanPSMT-30" transform="translate(50 0)"/>
      </g>
     </g>
    </g>
    <g id="ytick_2">
     <g id="line2d_8">
      <g>
       <use xlink:href="#m4b9cce150e" x="46.85375" y="369.378003" style="stroke: #000000"/>
      </g>
     </g>
     <g id="text_9">
      <!-- 92 -->
      <g transform="translate(27.85375 373.544253) scale(0.12 -0.12)">
       <use xlink:href="#TimesNewRomanPSMT-39"/>
       <use xlink:href="#TimesNewRomanPSMT-32" transform="translate(50 0)"/>
      </g>
     </g>
    </g>
    <g id="ytick_3">
     <g id="line2d_9">
      <g>
       <use xlink:href="#m4b9cce150e" x="46.85375" y="275.787311" style="stroke: #000000"/>
      </g>
     </g>
     <g id="text_10">
      <!-- 94 -->
      <g transform="translate(27.85375 279.953561) scale(0.12 -0.12)">
       <use xlink:href="#TimesNewRomanPSMT-39"/>
       <use xlink:href="#TimesNewRomanPSMT-34" transform="translate(50 0)"/>
      </g>
     </g>
    </g>
    <g id="ytick_4">
     <g id="line2d_10">
      <g>
       <use xlink:href="#m4b9cce150e" x="46.85375" y="182.196618" style="stroke: #000000"/>
      </g>
     </g>
     <g id="text_11">
      <!-- 96 -->
      <g transform="translate(27.85375 186.362868) scale(0.12 -0.12)">
       <defs>
        <path id="TimesNewRomanPSMT-36" d="M 2869 4325 
L 2869 4209 
Q 2456 4169 2195 4045 
Q 1934 3922 1679 3669 
Q 1425 3416 1258 3105 
Q 1091 2794 978 2366 
Q 1428 2675 1881 2675 
Q 2316 2675 2634 2325 
Q 2953 1975 2953 1425 
Q 2953 894 2631 456 
Q 2244 -75 1606 -75 
Q 1172 -75 869 213 
Q 275 772 275 1663 
Q 275 2231 503 2743 
Q 731 3256 1154 3653 
Q 1578 4050 1965 4187 
Q 2353 4325 2688 4325 
L 2869 4325 
z
M 925 2138 
Q 869 1716 869 1456 
Q 869 1156 980 804 
Q 1091 453 1309 247 
Q 1469 100 1697 100 
Q 1969 100 2183 356 
Q 2397 613 2397 1088 
Q 2397 1622 2184 2012 
Q 1972 2403 1581 2403 
Q 1463 2403 1327 2353 
Q 1191 2303 925 2138 
z
" transform="scale(0.015625)"/>
       </defs>
       <use xlink:href="#TimesNewRomanPSMT-39"/>
       <use xlink:href="#TimesNewRomanPSMT-36" transform="translate(50 0)"/>
      </g>
     </g>
    </g>
    <g id="ytick_5">
     <g id="line2d_11">
      <g>
       <use xlink:href="#m4b9cce150e" x="46.85375" y="88.605925" style="stroke: #000000"/>
      </g>
     </g>
     <g id="text_12">
      <!-- 98 -->
      <g transform="translate(27.85375 92.772175) scale(0.12 -0.12)">
       <defs>
        <path id="TimesNewRomanPSMT-38" d="M 1228 2134 
Q 725 2547 579 2797 
Q 434 3047 434 3316 
Q 434 3728 753 4026 
Q 1072 4325 1600 4325 
Q 2113 4325 2425 4047 
Q 2738 3769 2738 3413 
Q 2738 3175 2569 2928 
Q 2400 2681 1866 2347 
Q 2416 1922 2594 1678 
Q 2831 1359 2831 1006 
Q 2831 559 2490 242 
Q 2150 -75 1597 -75 
Q 994 -75 656 303 
Q 388 606 388 966 
Q 388 1247 577 1523 
Q 766 1800 1228 2134 
z
M 1719 2469 
Q 2094 2806 2194 3001 
Q 2294 3197 2294 3444 
Q 2294 3772 2109 3958 
Q 1925 4144 1606 4144 
Q 1288 4144 1088 3959 
Q 888 3775 888 3528 
Q 888 3366 970 3203 
Q 1053 3041 1206 2894 
L 1719 2469 
z
M 1375 2016 
Q 1116 1797 991 1539 
Q 866 1281 866 981 
Q 866 578 1086 336 
Q 1306 94 1647 94 
Q 1984 94 2187 284 
Q 2391 475 2391 747 
Q 2391 972 2272 1150 
Q 2050 1481 1375 2016 
z
" transform="scale(0.015625)"/>
       </defs>
       <use xlink:href="#TimesNewRomanPSMT-39"/>
       <use xlink:href="#TimesNewRomanPSMT-38" transform="translate(50 0)"/>
      </g>
     </g>
    </g>
    <g id="text_13">
     <!-- Reliability rate (%) -->
     <g transform="translate(20.832813 321.632656) rotate(-90) scale(0.14 -0.14)">
      <defs>
       <path id="TimesNewRomanPSMT-52" d="M 4325 0 
L 3194 0 
L 1759 1981 
Q 1600 1975 1500 1975 
Q 1459 1975 1412 1976 
Q 1366 1978 1316 1981 
L 1316 750 
Q 1316 350 1403 253 
Q 1522 116 1759 116 
L 1925 116 
L 1925 0 
L 109 0 
L 109 116 
L 269 116 
Q 538 116 653 291 
Q 719 388 719 750 
L 719 3488 
Q 719 3888 631 3984 
Q 509 4122 269 4122 
L 109 4122 
L 109 4238 
L 1653 4238 
Q 2328 4238 2648 4139 
Q 2969 4041 3192 3777 
Q 3416 3513 3416 3147 
Q 3416 2756 3161 2468 
Q 2906 2181 2372 2063 
L 3247 847 
Q 3547 428 3762 290 
Q 3978 153 4325 116 
L 4325 0 
z
M 1316 2178 
Q 1375 2178 1419 2176 
Q 1463 2175 1491 2175 
Q 2097 2175 2405 2437 
Q 2713 2700 2713 3106 
Q 2713 3503 2464 3751 
Q 2216 4000 1806 4000 
Q 1625 4000 1316 3941 
L 1316 2178 
z
" transform="scale(0.015625)"/>
       <path id="TimesNewRomanPSMT-6c" d="M 1184 4444 
L 1184 647 
Q 1184 378 1223 290 
Q 1263 203 1344 158 
Q 1425 113 1647 113 
L 1647 0 
L 244 0 
L 244 113 
Q 441 113 512 153 
Q 584 194 625 287 
Q 666 381 666 647 
L 666 3247 
Q 666 3731 644 3842 
Q 622 3953 573 3993 
Q 525 4034 450 4034 
Q 369 4034 244 3984 
L 191 4094 
L 1044 4444 
L 1184 4444 
z
" transform="scale(0.015625)"/>
       <path id="TimesNewRomanPSMT-69" d="M 928 4444 
Q 1059 4444 1151 4351 
Q 1244 4259 1244 4128 
Q 1244 3997 1151 3903 
Q 1059 3809 928 3809 
Q 797 3809 703 3903 
Q 609 3997 609 4128 
Q 609 4259 701 4351 
Q 794 4444 928 4444 
z
M 1188 2947 
L 1188 647 
Q 1188 378 1227 289 
Q 1266 200 1342 156 
Q 1419 113 1622 113 
L 1622 0 
L 231 0 
L 231 113 
Q 441 113 512 153 
Q 584 194 626 287 
Q 669 381 669 647 
L 669 1750 
Q 669 2216 641 2353 
Q 619 2453 572 2492 
Q 525 2531 444 2531 
Q 356 2531 231 2484 
L 188 2597 
L 1050 2947 
L 1188 2947 
z
" transform="scale(0.015625)"/>
       <path id="TimesNewRomanPSMT-62" d="M 984 2369 
Q 1400 2947 1881 2947 
Q 2322 2947 2650 2570 
Q 2978 2194 2978 1541 
Q 2978 778 2472 313 
Q 2038 -88 1503 -88 
Q 1253 -88 995 3 
Q 738 94 469 275 
L 469 3241 
Q 469 3728 445 3840 
Q 422 3953 372 3993 
Q 322 4034 247 4034 
Q 159 4034 28 3984 
L -16 4094 
L 844 4444 
L 984 4444 
L 984 2369 
z
M 984 2169 
L 984 456 
Q 1144 300 1314 220 
Q 1484 141 1663 141 
Q 1947 141 2192 453 
Q 2438 766 2438 1363 
Q 2438 1913 2192 2208 
Q 1947 2503 1634 2503 
Q 1469 2503 1303 2419 
Q 1178 2356 984 2169 
z
" transform="scale(0.015625)"/>
       <path id="TimesNewRomanPSMT-25" d="M 4350 4334 
L 1263 -175 
L 984 -175 
L 4072 4334 
L 4350 4334 
z
M 1138 4334 
Q 1559 4334 1792 3984 
Q 2025 3634 2025 3181 
Q 2025 2638 1762 2341 
Q 1500 2044 1131 2044 
Q 884 2044 678 2180 
Q 472 2316 348 2584 
Q 225 2853 225 3181 
Q 225 3509 350 3786 
Q 475 4063 692 4198 
Q 909 4334 1138 4334 
z
M 1128 4159 
Q 969 4159 845 3971 
Q 722 3784 722 3184 
Q 722 2750 791 2522 
Q 844 2350 956 2256 
Q 1022 2200 1119 2200 
Q 1269 2200 1375 2363 
Q 1531 2603 1531 3166 
Q 1531 3759 1378 4000 
Q 1278 4159 1128 4159 
z
M 4206 2103 
Q 4428 2103 4648 1962 
Q 4869 1822 4989 1553 
Q 5109 1284 5109 963 
Q 5109 409 4843 117 
Q 4578 -175 4216 -175 
Q 3988 -175 3773 -34 
Q 3559 106 3436 367 
Q 3313 628 3313 963 
Q 3313 1291 3436 1562 
Q 3559 1834 3773 1968 
Q 3988 2103 4206 2103 
z
M 4209 1938 
Q 4059 1938 3950 1769 
Q 3809 1550 3809 941 
Q 3809 381 3953 159 
Q 4059 0 4209 0 
Q 4353 0 4466 172 
Q 4616 400 4616 956 
Q 4616 1544 4466 1778 
Q 4363 1938 4209 1938 
z
" transform="scale(0.015625)"/>
      </defs>
      <use xlink:href="#TimesNewRomanPSMT-52"/>
      <use xlink:href="#TimesNewRomanPSMT-65" transform="translate(66.699219 0)"/>
      <use xlink:href="#TimesNewRomanPSMT-6c" transform="translate(111.083984 0)"/>
      <use xlink:href="#TimesNewRomanPSMT-69" transform="translate(138.867188 0)"/>
      <use xlink:href="#TimesNewRomanPSMT-61" transform="translate(166.650391 0)"/>
      <use xlink:href="#TimesNewRomanPSMT-62" transform="translate(211.035156 0)"/>
      <use xlink:href="#TimesNewRomanPSMT-69" transform="translate(261.035156 0)"/>
      <use xlink:href="#TimesNewRomanPSMT-6c" transform="translate(288.818359 0)"/>
      <use xlink:href="#TimesNewRomanPSMT-69" transform="translate(316.601562 0)"/>
      <use xlink:href="#TimesNewRomanPSMT-74" transform="translate(344.384766 0)"/>
      <use xlink:href="#TimesNewRomanPSMT-79" transform="translate(372.167969 0)"/>
      <use xlink:href="#TimesNewRomanPSMT-20" transform="translate(422.167969 0)"/>
      <use xlink:href="#TimesNewRomanPSMT-72" transform="translate(447.167969 0)"/>
      <use xlink:href="#TimesNewRomanPSMT-61" transform="translate(480.46875 0)"/>
      <use xlink:href="#TimesNewRomanPSMT-74" transform="translate(524.853516 0)"/>
      <use xlink:href="#TimesNewRomanPSMT-65" transform="translate(552.636719 0)"/>
      <use xlink:href="#TimesNewRomanPSMT-20" transform="translate(597.021484 0)"/>
      <use xlink:href="#TimesNewRomanPSMT-28" transform="translate(622.021484 0)"/>
      <use xlink:href="#TimesNewRomanPSMT-25" transform="translate(655.322266 0)"/>
      <use xlink:href="#TimesNewRomanPSMT-29" transform="translate(738.623047 0)"/>
     </g>
    </g>
   </g>
   <g id="patch_3">
    <path d="M 46.85375 493.59625 
L 46.85375 41.6 
" style="fill: none; stroke: #000000; stroke-linejoin: miter; stroke-linecap: square"/>
   </g>
   <g id="patch_4">
    <path d="M 46.85375 493.59625 
L 548.1 493.59625 
" style="fill: none; stroke: #000000; stroke-linejoin: miter; stroke-linecap: square"/>
   </g>
   <g id="text_14">
    <!-- 10.0k -->
    <g transform="translate(208.879138 292.554946) scale(0.08 -0.08)">
     <defs>
      <path id="TimesNewRomanPS-BoldMT-31" d="M 2084 4325 
L 2084 859 
Q 2084 469 2118 361 
Q 2153 253 2262 184 
Q 2372 116 2613 116 
L 2709 116 
L 2709 0 
L 478 0 
L 478 116 
L 591 116 
Q 863 116 978 178 
Q 1094 241 1134 350 
Q 1175 459 1175 859 
L 1175 3056 
Q 1175 3350 1147 3423 
Q 1119 3497 1042 3548 
Q 966 3600 866 3600 
Q 706 3600 478 3500 
L 422 3613 
L 1981 4325 
L 2084 4325 
z
" transform="scale(0.015625)"/>
      <path id="TimesNewRomanPS-BoldMT-30" d="M 2966 2119 
Q 2966 1484 2788 934 
Q 2681 597 2501 381 
Q 2322 166 2094 39 
Q 1866 -88 1597 -88 
Q 1291 -88 1044 68 
Q 797 225 606 516 
Q 469 728 366 1081 
Q 231 1559 231 2069 
Q 231 2759 425 3338 
Q 584 3816 909 4070 
Q 1234 4325 1597 4325 
Q 1966 4325 2286 4073 
Q 2606 3822 2756 3397 
Q 2966 2813 2966 2119 
z
M 2003 2125 
Q 2003 3238 1991 3422 
Q 1959 3856 1841 4009 
Q 1763 4109 1588 4109 
Q 1453 4109 1375 4034 
Q 1259 3925 1218 3648 
Q 1178 3372 1178 1719 
Q 1178 819 1241 513 
Q 1288 291 1375 216 
Q 1463 141 1606 141 
Q 1763 141 1841 241 
Q 1972 416 1991 781 
L 2003 2125 
z
" transform="scale(0.015625)"/>
      <path id="TimesNewRomanPS-BoldMT-2e" d="M 800 963 
Q 1019 963 1170 809 
Q 1322 656 1322 441 
Q 1322 225 1169 73 
Q 1016 -78 800 -78 
Q 584 -78 432 73 
Q 281 225 281 441 
Q 281 656 432 809 
Q 584 963 800 963 
z
" transform="scale(0.015625)"/>
      <path id="TimesNewRomanPS-BoldMT-6b" d="M 1403 4238 
L 1403 1450 
L 2081 2116 
Q 2291 2319 2342 2409 
Q 2394 2500 2394 2584 
Q 2394 2669 2325 2725 
Q 2256 2781 2056 2806 
L 2056 2922 
L 3366 2922 
L 3366 2806 
Q 3178 2797 3037 2717 
Q 2897 2638 2488 2238 
L 2169 1925 
L 2856 919 
Q 3272 306 3350 231 
Q 3456 125 3619 113 
L 3619 0 
L 2109 0 
L 2109 113 
Q 2209 113 2254 150 
Q 2300 188 2300 231 
Q 2300 303 2169 497 
L 1591 1344 
L 1403 1159 
L 1403 634 
Q 1403 300 1465 217 
Q 1528 134 1722 113 
L 1722 0 
L 213 0 
L 213 113 
Q 397 131 475 231 
Q 528 300 528 634 
L 528 3603 
Q 528 3934 467 4015 
Q 406 4097 213 4122 
L 213 4238 
L 1403 4238 
z
" transform="scale(0.015625)"/>
     </defs>
     <use xlink:href="#TimesNewRomanPS-BoldMT-31"/>
     <use xlink:href="#TimesNewRomanPS-BoldMT-30" transform="translate(50 0)"/>
     <use xlink:href="#TimesNewRomanPS-BoldMT-2e" transform="translate(100 0)"/>
     <use xlink:href="#TimesNewRomanPS-BoldMT-30" transform="translate(125 0)"/>
     <use xlink:href="#TimesNewRomanPS-BoldMT-6b" transform="translate(175 0)"/>
    </g>
   </g>
   <g id="text_15">
    <!-- 8.0k -->
    <g transform="translate(483.586786 95.546538) scale(0.08 -0.08)">
     <defs>
      <path id="TimesNewRomanPS-BoldMT-38" d="M 2181 2394 
Q 2628 2066 2801 1783 
Q 2975 1500 2975 1134 
Q 2975 622 2589 267 
Q 2203 -88 1541 -88 
Q 913 -88 569 221 
Q 225 531 225 978 
Q 225 1319 423 1575 
Q 622 1831 1084 2044 
Q 581 2428 439 2672 
Q 297 2916 297 3238 
Q 297 3663 658 3986 
Q 1019 4309 1647 4309 
Q 2253 4309 2579 4023 
Q 2906 3738 2906 3338 
Q 2906 3038 2729 2808 
Q 2553 2578 2181 2394 
z
M 1944 2553 
Q 2059 2709 2115 2903 
Q 2172 3097 2172 3328 
Q 2172 3734 1997 3950 
Q 1866 4116 1634 4116 
Q 1425 4116 1278 3964 
Q 1131 3813 1131 3588 
Q 1131 3359 1295 3114 
Q 1459 2869 1944 2553 
z
M 1319 1894 
Q 1222 1806 1181 1734 
Q 1119 1625 1069 1415 
Q 1019 1206 1019 978 
Q 1019 684 1094 486 
Q 1169 288 1308 200 
Q 1447 113 1594 113 
Q 1822 113 1978 280 
Q 2134 447 2134 738 
Q 2134 1344 1319 1894 
z
" transform="scale(0.015625)"/>
     </defs>
     <use xlink:href="#TimesNewRomanPS-BoldMT-38"/>
     <use xlink:href="#TimesNewRomanPS-BoldMT-2e" transform="translate(50 0)"/>
     <use xlink:href="#TimesNewRomanPS-BoldMT-30" transform="translate(75 0)"/>
     <use xlink:href="#TimesNewRomanPS-BoldMT-6b" transform="translate(125 0)"/>
    </g>
   </g>
   <g id="text_16">
    <!-- 6.7k -->
    <g transform="translate(261.745948 170.419093) scale(0.08 -0.08)">
     <defs>
      <path id="TimesNewRomanPS-BoldMT-36" d="M 3006 4325 
L 3006 4238 
Q 2441 4094 2098 3867 
Q 1756 3641 1557 3317 
Q 1359 2994 1250 2516 
Q 1388 2609 1478 2638 
Q 1681 2700 1888 2700 
Q 2363 2700 2680 2354 
Q 2997 2009 2997 1413 
Q 2997 994 2825 644 
Q 2653 294 2337 103 
Q 2022 -88 1663 -88 
Q 1272 -88 940 126 
Q 609 341 423 753 
Q 238 1166 238 1650 
Q 238 2363 580 2977 
Q 922 3591 1551 3955 
Q 2181 4319 3006 4325 
z
M 1209 2263 
Q 1184 1831 1184 1631 
Q 1184 1200 1267 797 
Q 1350 394 1494 231 
Q 1597 116 1738 116 
Q 1881 116 1993 283 
Q 2106 450 2106 963 
Q 2106 1825 1897 2153 
Q 1763 2366 1534 2366 
Q 1409 2366 1209 2263 
z
" transform="scale(0.015625)"/>
      <path id="TimesNewRomanPS-BoldMT-37" d="M 1134 -88 
L 2288 3409 
L 1409 3409 
Q 894 3409 634 3275 
Q 453 3181 334 2922 
L 216 2922 
L 522 4238 
L 3047 4238 
L 1625 -88 
L 1134 -88 
z
" transform="scale(0.015625)"/>
     </defs>
     <use xlink:href="#TimesNewRomanPS-BoldMT-36"/>
     <use xlink:href="#TimesNewRomanPS-BoldMT-2e" transform="translate(50 0)"/>
     <use xlink:href="#TimesNewRomanPS-BoldMT-37" transform="translate(75 0)"/>
     <use xlink:href="#TimesNewRomanPS-BoldMT-6b" transform="translate(125 0)"/>
    </g>
   </g>
   <g id="text_17">
    <!-- 4.9k -->
    <g transform="translate(149.332109 347.773455) scale(0.08 -0.08)">
     <defs>
      <path id="TimesNewRomanPS-BoldMT-34" d="M 159 1597 
L 2172 4325 
L 2553 4325 
L 2553 1597 
L 2941 1597 
L 2941 950 
L 2553 950 
L 2553 0 
L 1694 0 
L 1694 950 
L 159 950 
L 159 1597 
z
M 463 1597 
L 1694 1597 
L 1694 3269 
L 463 1597 
z
" transform="scale(0.015625)"/>
      <path id="TimesNewRomanPS-BoldMT-39" d="M 197 -88 
L 197 0 
Q 716 119 1077 350 
Q 1438 581 1648 922 
Q 1859 1263 1944 1706 
Q 1750 1606 1614 1567 
Q 1478 1528 1328 1528 
Q 847 1528 526 1875 
Q 206 2222 206 2825 
Q 206 3244 379 3592 
Q 553 3941 875 4133 
Q 1197 4325 1544 4325 
Q 1916 4325 2247 4112 
Q 2578 3900 2775 3497 
Q 2972 3094 2972 2578 
Q 2972 1909 2651 1296 
Q 2331 684 1697 314 
Q 1063 -56 197 -88 
z
M 1991 1969 
Q 2022 2319 2022 2584 
Q 2022 3153 1891 3644 
Q 1816 3916 1669 4044 
Q 1591 4113 1466 4113 
Q 1309 4113 1222 3978 
Q 1100 3794 1100 3275 
Q 1100 2409 1306 2081 
Q 1441 1869 1669 1869 
Q 1791 1869 1991 1969 
z
" transform="scale(0.015625)"/>
     </defs>
     <use xlink:href="#TimesNewRomanPS-BoldMT-34"/>
     <use xlink:href="#TimesNewRomanPS-BoldMT-2e" transform="translate(50 0)"/>
     <use xlink:href="#TimesNewRomanPS-BoldMT-39" transform="translate(75 0)"/>
     <use xlink:href="#TimesNewRomanPS-BoldMT-6b" transform="translate(125 0)"/>
    </g>
   </g>
   <g id="text_18">
    <!-- 3.7k -->
    <g transform="translate(197.574119 200.836068) scale(0.08 -0.08)">
     <defs>
      <path id="TimesNewRomanPS-BoldMT-33" d="M 947 2125 
L 947 2234 
Q 1303 2338 1440 2427 
Q 1578 2516 1678 2698 
Q 1778 2881 1778 3069 
Q 1778 3328 1589 3514 
Q 1400 3700 1119 3700 
Q 681 3700 375 3238 
L 259 3278 
Q 484 3800 836 4062 
Q 1188 4325 1619 4325 
Q 2059 4325 2345 4056 
Q 2631 3788 2631 3428 
Q 2631 3194 2498 2976 
Q 2366 2759 2081 2594 
Q 2447 2416 2639 2155 
Q 2831 1894 2831 1500 
Q 2831 838 2351 373 
Q 1872 -91 1066 -91 
Q 528 -91 281 88 
Q 103 213 103 409 
Q 103 553 206 654 
Q 309 756 444 756 
Q 547 756 638 713 
Q 688 688 992 439 
Q 1297 191 1563 191 
Q 1794 191 1959 373 
Q 2125 556 2125 838 
Q 2125 1266 1825 1627 
Q 1525 1988 947 2125 
z
" transform="scale(0.015625)"/>
     </defs>
     <use xlink:href="#TimesNewRomanPS-BoldMT-33"/>
     <use xlink:href="#TimesNewRomanPS-BoldMT-2e" transform="translate(50 0)"/>
     <use xlink:href="#TimesNewRomanPS-BoldMT-37" transform="translate(75 0)"/>
     <use xlink:href="#TimesNewRomanPS-BoldMT-6b" transform="translate(125 0)"/>
    </g>
   </g>
   <g id="text_19">
    <!-- 1.1k -->
    <g transform="translate(98.012747 443.235962) scale(0.08 -0.08)">
     <use xlink:href="#TimesNewRomanPS-BoldMT-31"/>
     <use xlink:href="#TimesNewRomanPS-BoldMT-2e" transform="translate(50 0)"/>
     <use xlink:href="#TimesNewRomanPS-BoldMT-31" transform="translate(75 0)"/>
     <use xlink:href="#TimesNewRomanPS-BoldMT-6b" transform="translate(125 0)"/>
    </g>
   </g>
   <g id="text_20">
    <!-- 644.52 -->
    <g transform="translate(450.757342 127.367374) scale(0.08 -0.08)">
     <defs>
      <path id="TimesNewRomanPS-BoldMT-35" d="M 975 4238 
L 2959 4238 
L 2644 3431 
L 975 3431 
L 816 3009 
Q 1894 2969 2475 2472 
Q 2953 2063 2953 1453 
Q 2953 1063 2731 689 
Q 2509 316 2106 114 
Q 1703 -88 1222 -88 
Q 703 -88 425 106 
Q 231 244 231 419 
Q 231 553 332 656 
Q 434 759 569 759 
Q 691 759 816 709 
Q 941 659 1244 447 
Q 1434 316 1572 266 
Q 1669 228 1791 228 
Q 2047 228 2226 415 
Q 2406 603 2406 866 
Q 2406 1416 1856 1759 
Q 1306 2103 469 2103 
Q 384 2103 216 2100 
L 975 4238 
z
" transform="scale(0.015625)"/>
      <path id="TimesNewRomanPS-BoldMT-32" d="M 2650 0 
L 156 0 
L 156 69 
Q 1303 1434 1548 1906 
Q 1794 2378 1794 2828 
Q 1794 3156 1591 3373 
Q 1388 3591 1094 3591 
Q 613 3591 347 3109 
L 231 3150 
Q 400 3750 744 4037 
Q 1088 4325 1538 4325 
Q 1859 4325 2125 4175 
Q 2391 4025 2541 3764 
Q 2691 3503 2691 3275 
Q 2691 2859 2459 2431 
Q 2144 1853 1081 819 
L 1997 819 
Q 2334 819 2436 847 
Q 2538 875 2603 942 
Q 2669 1009 2775 1225 
L 2888 1225 
L 2650 0 
z
" transform="scale(0.015625)"/>
     </defs>
     <use xlink:href="#TimesNewRomanPS-BoldMT-36"/>
     <use xlink:href="#TimesNewRomanPS-BoldMT-34" transform="translate(50 0)"/>
     <use xlink:href="#TimesNewRomanPS-BoldMT-34" transform="translate(100 0)"/>
     <use xlink:href="#TimesNewRomanPS-BoldMT-2e" transform="translate(150 0)"/>
     <use xlink:href="#TimesNewRomanPS-BoldMT-35" transform="translate(175 0)"/>
     <use xlink:href="#TimesNewRomanPS-BoldMT-32" transform="translate(225 0)"/>
    </g>
   </g>
   <g id="text_21">
    <!-- 545.2 -->
    <g transform="translate(266.577578 281.324063) scale(0.08 -0.08)">
     <use xlink:href="#TimesNewRomanPS-BoldMT-35"/>
     <use xlink:href="#TimesNewRomanPS-BoldMT-34" transform="translate(50 0)"/>
     <use xlink:href="#TimesNewRomanPS-BoldMT-35" transform="translate(100 0)"/>
     <use xlink:href="#TimesNewRomanPS-BoldMT-2e" transform="translate(150 0)"/>
     <use xlink:href="#TimesNewRomanPS-BoldMT-32" transform="translate(175 0)"/>
    </g>
   </g>
   <g id="text_22">
    <!-- 303.47 -->
    <g transform="translate(380.3403 367.895454) scale(0.08 -0.08)">
     <use xlink:href="#TimesNewRomanPS-BoldMT-33"/>
     <use xlink:href="#TimesNewRomanPS-BoldMT-30" transform="translate(50 0)"/>
     <use xlink:href="#TimesNewRomanPS-BoldMT-33" transform="translate(100 0)"/>
     <use xlink:href="#TimesNewRomanPS-BoldMT-2e" transform="translate(150 0)"/>
     <use xlink:href="#TimesNewRomanPS-BoldMT-34" transform="translate(175 0)"/>
     <use xlink:href="#TimesNewRomanPS-BoldMT-37" transform="translate(225 0)"/>
    </g>
   </g>
   <g id="text_23">
    <!-- 100 -->
    <g transform="translate(298.627192 323.439875) scale(0.08 -0.08)">
     <use xlink:href="#TimesNewRomanPS-BoldMT-31"/>
     <use xlink:href="#TimesNewRomanPS-BoldMT-30" transform="translate(50 0)"/>
     <use xlink:href="#TimesNewRomanPS-BoldMT-30" transform="translate(100 0)"/>
    </g>
   </g>
   <g id="text_24">
    <!-- the Overview of Energy and Utilities -->
    <g transform="translate(179.205625 21.6) scale(0.16 -0.16)">
     <defs>
      <path id="TimesNewRomanPSMT-68" d="M 1041 4444 
L 1041 2350 
Q 1388 2731 1591 2839 
Q 1794 2947 1997 2947 
Q 2241 2947 2416 2812 
Q 2591 2678 2675 2391 
Q 2734 2191 2734 1659 
L 2734 647 
Q 2734 375 2778 275 
Q 2809 200 2884 156 
Q 2959 113 3159 113 
L 3159 0 
L 1753 0 
L 1753 113 
L 1819 113 
Q 2019 113 2097 173 
Q 2175 234 2206 353 
Q 2216 403 2216 647 
L 2216 1659 
Q 2216 2128 2167 2275 
Q 2119 2422 2012 2495 
Q 1906 2569 1756 2569 
Q 1603 2569 1437 2487 
Q 1272 2406 1041 2159 
L 1041 647 
Q 1041 353 1073 281 
Q 1106 209 1195 161 
Q 1284 113 1503 113 
L 1503 0 
L 84 0 
L 84 113 
Q 275 113 384 172 
Q 447 203 484 290 
Q 522 378 522 647 
L 522 3238 
Q 522 3728 498 3840 
Q 475 3953 426 3993 
Q 378 4034 297 4034 
Q 231 4034 84 3984 
L 41 4094 
L 897 4444 
L 1041 4444 
z
" transform="scale(0.015625)"/>
      <path id="TimesNewRomanPSMT-4f" d="M 2341 4334 
Q 3166 4334 3770 3707 
Q 4375 3081 4375 2144 
Q 4375 1178 3765 540 
Q 3156 -97 2291 -97 
Q 1416 -97 820 525 
Q 225 1147 225 2134 
Q 225 3144 913 3781 
Q 1509 4334 2341 4334 
z
M 2281 4106 
Q 1713 4106 1369 3684 
Q 941 3159 941 2147 
Q 941 1109 1384 550 
Q 1725 125 2284 125 
Q 2881 125 3270 590 
Q 3659 1056 3659 2059 
Q 3659 3147 3231 3681 
Q 2888 4106 2281 4106 
z
" transform="scale(0.015625)"/>
      <path id="TimesNewRomanPSMT-76" d="M 53 2863 
L 1400 2863 
L 1400 2747 
L 1313 2747 
Q 1191 2747 1127 2687 
Q 1063 2628 1063 2528 
Q 1063 2419 1128 2269 
L 1794 688 
L 2463 2328 
Q 2534 2503 2534 2594 
Q 2534 2638 2509 2666 
Q 2475 2713 2422 2730 
Q 2369 2747 2206 2747 
L 2206 2863 
L 3141 2863 
L 3141 2747 
Q 2978 2734 2916 2681 
Q 2806 2588 2719 2369 
L 1703 -88 
L 1575 -88 
L 553 2328 
Q 484 2497 421 2570 
Q 359 2644 263 2694 
Q 209 2722 53 2747 
L 53 2863 
z
" transform="scale(0.015625)"/>
      <path id="TimesNewRomanPSMT-77" d="M 41 2863 
L 1241 2863 
L 1241 2747 
Q 1075 2734 1023 2687 
Q 972 2641 972 2553 
Q 972 2456 1025 2319 
L 1638 672 
L 2253 2013 
L 2091 2434 
Q 2016 2622 1894 2694 
Q 1825 2738 1638 2747 
L 1638 2863 
L 3000 2863 
L 3000 2747 
Q 2775 2738 2681 2666 
Q 2619 2616 2619 2506 
Q 2619 2444 2644 2378 
L 3294 734 
L 3897 2319 
Q 3959 2488 3959 2588 
Q 3959 2647 3898 2694 
Q 3838 2741 3659 2747 
L 3659 2863 
L 4563 2863 
L 4563 2747 
Q 4291 2706 4163 2378 
L 3206 -88 
L 3078 -88 
L 2363 1741 
L 1528 -88 
L 1413 -88 
L 494 2319 
Q 403 2547 315 2626 
Q 228 2706 41 2747 
L 41 2863 
z
" transform="scale(0.015625)"/>
      <path id="TimesNewRomanPSMT-6f" d="M 1600 2947 
Q 2250 2947 2644 2453 
Q 2978 2031 2978 1484 
Q 2978 1100 2793 706 
Q 2609 313 2286 112 
Q 1963 -88 1566 -88 
Q 919 -88 538 428 
Q 216 863 216 1403 
Q 216 1797 411 2186 
Q 606 2575 925 2761 
Q 1244 2947 1600 2947 
z
M 1503 2744 
Q 1338 2744 1170 2645 
Q 1003 2547 900 2300 
Q 797 2053 797 1666 
Q 797 1041 1045 587 
Q 1294 134 1700 134 
Q 2003 134 2200 384 
Q 2397 634 2397 1244 
Q 2397 2006 2069 2444 
Q 1847 2744 1503 2744 
z
" transform="scale(0.015625)"/>
      <path id="TimesNewRomanPSMT-45" d="M 1338 4006 
L 1338 2331 
L 2269 2331 
Q 2631 2331 2753 2441 
Q 2916 2584 2934 2947 
L 3050 2947 
L 3050 1472 
L 2934 1472 
Q 2891 1781 2847 1869 
Q 2791 1978 2662 2040 
Q 2534 2103 2269 2103 
L 1338 2103 
L 1338 706 
Q 1338 425 1363 364 
Q 1388 303 1450 267 
Q 1513 231 1688 231 
L 2406 231 
Q 2766 231 2928 281 
Q 3091 331 3241 478 
Q 3434 672 3638 1063 
L 3763 1063 
L 3397 0 
L 131 0 
L 131 116 
L 281 116 
Q 431 116 566 188 
Q 666 238 702 338 
Q 738 438 738 747 
L 738 3500 
Q 738 3903 656 3997 
Q 544 4122 281 4122 
L 131 4122 
L 131 4238 
L 3397 4238 
L 3444 3309 
L 3322 3309 
Q 3256 3644 3176 3769 
Q 3097 3894 2941 3959 
Q 2816 4006 2500 4006 
L 1338 4006 
z
" transform="scale(0.015625)"/>
      <path id="TimesNewRomanPSMT-64" d="M 2222 322 
Q 2013 103 1813 7 
Q 1613 -88 1381 -88 
Q 913 -88 563 304 
Q 213 697 213 1313 
Q 213 1928 600 2439 
Q 988 2950 1597 2950 
Q 1975 2950 2222 2709 
L 2222 3238 
Q 2222 3728 2198 3840 
Q 2175 3953 2125 3993 
Q 2075 4034 2000 4034 
Q 1919 4034 1784 3984 
L 1744 4094 
L 2597 4444 
L 2738 4444 
L 2738 1134 
Q 2738 631 2761 520 
Q 2784 409 2836 365 
Q 2888 322 2956 322 
Q 3041 322 3181 375 
L 3216 266 
L 2366 -88 
L 2222 -88 
L 2222 322 
z
M 2222 541 
L 2222 2016 
Q 2203 2228 2109 2403 
Q 2016 2578 1861 2667 
Q 1706 2756 1559 2756 
Q 1284 2756 1069 2509 
Q 784 2184 784 1559 
Q 784 928 1059 592 
Q 1334 256 1672 256 
Q 1956 256 2222 541 
z
" transform="scale(0.015625)"/>
      <path id="TimesNewRomanPSMT-55" d="M 3053 4122 
L 3053 4238 
L 4553 4238 
L 4553 4122 
L 4394 4122 
Q 4144 4122 4009 3913 
Q 3944 3816 3944 3463 
L 3944 1744 
Q 3944 1106 3817 754 
Q 3691 403 3320 151 
Q 2950 -100 2313 -100 
Q 1619 -100 1259 140 
Q 900 381 750 788 
Q 650 1066 650 1831 
L 650 3488 
Q 650 3878 542 4000 
Q 434 4122 194 4122 
L 34 4122 
L 34 4238 
L 1866 4238 
L 1866 4122 
L 1703 4122 
Q 1441 4122 1328 3956 
Q 1250 3844 1250 3488 
L 1250 1641 
Q 1250 1394 1295 1075 
Q 1341 756 1459 578 
Q 1578 400 1801 284 
Q 2025 169 2350 169 
Q 2766 169 3094 350 
Q 3422 531 3542 814 
Q 3663 1097 3663 1772 
L 3663 3488 
Q 3663 3884 3575 3984 
Q 3453 4122 3213 4122 
L 3053 4122 
z
" transform="scale(0.015625)"/>
     </defs>
     <use xlink:href="#TimesNewRomanPSMT-74"/>
     <use xlink:href="#TimesNewRomanPSMT-68" transform="translate(27.783203 0)"/>
     <use xlink:href="#TimesNewRomanPSMT-65" transform="translate(77.783203 0)"/>
     <use xlink:href="#TimesNewRomanPSMT-20" transform="translate(122.167969 0)"/>
     <use xlink:href="#TimesNewRomanPSMT-4f" transform="translate(147.167969 0)"/>
     <use xlink:href="#TimesNewRomanPSMT-76" transform="translate(219.384766 0)"/>
     <use xlink:href="#TimesNewRomanPSMT-65" transform="translate(269.384766 0)"/>
     <use xlink:href="#TimesNewRomanPSMT-72" transform="translate(313.769531 0)"/>
     <use xlink:href="#TimesNewRomanPSMT-76" transform="translate(347.070312 0)"/>
     <use xlink:href="#TimesNewRomanPSMT-69" transform="translate(397.070312 0)"/>
     <use xlink:href="#TimesNewRomanPSMT-65" transform="translate(424.853516 0)"/>
     <use xlink:href="#TimesNewRomanPSMT-77" transform="translate(469.238281 0)"/>
     <use xlink:href="#TimesNewRomanPSMT-20" transform="translate(541.455078 0)"/>
     <use xlink:href="#TimesNewRomanPSMT-6f" transform="translate(566.455078 0)"/>
     <use xlink:href="#TimesNewRomanPSMT-66" transform="translate(616.455078 0)"/>
     <use xlink:href="#TimesNewRomanPSMT-20" transform="translate(649.755859 0)"/>
     <use xlink:href="#TimesNewRomanPSMT-45" transform="translate(674.755859 0)"/>
     <use xlink:href="#TimesNewRomanPSMT-6e" transform="translate(735.839844 0)"/>
     <use xlink:href="#TimesNewRomanPSMT-65" transform="translate(785.839844 0)"/>
     <use xlink:href="#TimesNewRomanPSMT-72" transform="translate(830.224609 0)"/>
     <use xlink:href="#TimesNewRomanPSMT-67" transform="translate(861.775391 0)"/>
     <use xlink:href="#TimesNewRomanPSMT-79" transform="translate(911.775391 0)"/>
     <use xlink:href="#TimesNewRomanPSMT-20" transform="translate(961.775391 0)"/>
     <use xlink:href="#TimesNewRomanPSMT-61" transform="translate(986.775391 0)"/>
     <use xlink:href="#TimesNewRomanPSMT-6e" transform="translate(1031.160156 0)"/>
     <use xlink:href="#TimesNewRomanPSMT-64" transform="translate(1081.160156 0)"/>
     <use xlink:href="#TimesNewRomanPSMT-20" transform="translate(1131.160156 0)"/>
     <use xlink:href="#TimesNewRomanPSMT-55" transform="translate(1156.160156 0)"/>
     <use xlink:href="#TimesNewRomanPSMT-74" transform="translate(1228.376953 0)"/>
     <use xlink:href="#TimesNewRomanPSMT-69" transform="translate(1256.160156 0)"/>
     <use xlink:href="#TimesNewRomanPSMT-6c" transform="translate(1283.943359 0)"/>
     <use xlink:href="#TimesNewRomanPSMT-69" transform="translate(1311.726562 0)"/>
     <use xlink:href="#TimesNewRomanPSMT-74" transform="translate(1339.509766 0)"/>
     <use xlink:href="#TimesNewRomanPSMT-69" transform="translate(1367.292969 0)"/>
     <use xlink:href="#TimesNewRomanPSMT-65" transform="translate(1395.076172 0)"/>
     <use xlink:href="#TimesNewRomanPSMT-73" transform="translate(1439.460938 0)"/>
    </g>
   </g>
   <g id="legend_1">
    <g id="patch_5">
     <path d="M 566.481094 167.906656 
L 671.411563 167.906656 
Q 673.411563 167.906656 673.411563 165.906656 
L 673.411563 43.6 
Q 673.411563 41.6 671.411563 41.6 
L 566.481094 41.6 
Q 564.481094 41.6 564.481094 43.6 
L 564.481094 165.906656 
Q 564.481094 167.906656 566.481094 167.906656 
z
" style="fill: #ffffff; opacity: 0.8; stroke: #cccccc; stroke-linejoin: miter"/>
    </g>
    <g id="text_25">
     <!-- Average energy -->
     <g transform="translate(584.481094 69.2175) scale(0.11 -0.11)">
      <defs>
       <path id="TimesNewRomanPSMT-41" d="M 2928 1419 
L 1288 1419 
L 1000 750 
Q 894 503 894 381 
Q 894 284 986 211 
Q 1078 138 1384 116 
L 1384 0 
L 50 0 
L 50 116 
Q 316 163 394 238 
Q 553 388 747 847 
L 2238 4334 
L 2347 4334 
L 3822 809 
Q 4000 384 4145 257 
Q 4291 131 4550 116 
L 4550 0 
L 2878 0 
L 2878 116 
Q 3131 128 3220 200 
Q 3309 272 3309 375 
Q 3309 513 3184 809 
L 2928 1419 
z
M 2841 1650 
L 2122 3363 
L 1384 1650 
L 2841 1650 
z
" transform="scale(0.015625)"/>
      </defs>
      <use xlink:href="#TimesNewRomanPSMT-41"/>
      <use xlink:href="#TimesNewRomanPSMT-76" transform="translate(64.841797 0)"/>
      <use xlink:href="#TimesNewRomanPSMT-65" transform="translate(114.841797 0)"/>
      <use xlink:href="#TimesNewRomanPSMT-72" transform="translate(159.226562 0)"/>
      <use xlink:href="#TimesNewRomanPSMT-61" transform="translate(192.527344 0)"/>
      <use xlink:href="#TimesNewRomanPSMT-67" transform="translate(236.912109 0)"/>
      <use xlink:href="#TimesNewRomanPSMT-65" transform="translate(286.912109 0)"/>
      <use xlink:href="#TimesNewRomanPSMT-20" transform="translate(331.296875 0)"/>
      <use xlink:href="#TimesNewRomanPSMT-65" transform="translate(356.296875 0)"/>
      <use xlink:href="#TimesNewRomanPSMT-6e" transform="translate(400.681641 0)"/>
      <use xlink:href="#TimesNewRomanPSMT-65" transform="translate(450.681641 0)"/>
      <use xlink:href="#TimesNewRomanPSMT-72" transform="translate(495.066406 0)"/>
      <use xlink:href="#TimesNewRomanPSMT-67" transform="translate(526.617188 0)"/>
      <use xlink:href="#TimesNewRomanPSMT-79" transform="translate(576.617188 0)"/>
     </g>
     <!-- consumption -->
     <g transform="translate(584.481094 80.756844) scale(0.11 -0.11)">
      <defs>
       <path id="TimesNewRomanPSMT-6d" d="M 1050 2338 
Q 1363 2650 1419 2697 
Q 1559 2816 1721 2881 
Q 1884 2947 2044 2947 
Q 2313 2947 2506 2790 
Q 2700 2634 2766 2338 
Q 3088 2713 3309 2830 
Q 3531 2947 3766 2947 
Q 3994 2947 4170 2830 
Q 4347 2713 4450 2447 
Q 4519 2266 4519 1878 
L 4519 647 
Q 4519 378 4559 278 
Q 4591 209 4675 161 
Q 4759 113 4950 113 
L 4950 0 
L 3538 0 
L 3538 113 
L 3597 113 
Q 3781 113 3884 184 
Q 3956 234 3988 344 
Q 4000 397 4000 647 
L 4000 1878 
Q 4000 2228 3916 2372 
Q 3794 2572 3525 2572 
Q 3359 2572 3192 2489 
Q 3025 2406 2788 2181 
L 2781 2147 
L 2788 2013 
L 2788 647 
Q 2788 353 2820 281 
Q 2853 209 2943 161 
Q 3034 113 3253 113 
L 3253 0 
L 1806 0 
L 1806 113 
Q 2044 113 2133 169 
Q 2222 225 2256 338 
Q 2272 391 2272 647 
L 2272 1878 
Q 2272 2228 2169 2381 
Q 2031 2581 1784 2581 
Q 1616 2581 1450 2491 
Q 1191 2353 1050 2181 
L 1050 647 
Q 1050 366 1089 281 
Q 1128 197 1204 155 
Q 1281 113 1516 113 
L 1516 0 
L 100 0 
L 100 113 
Q 297 113 375 155 
Q 453 197 493 289 
Q 534 381 534 647 
L 534 1741 
Q 534 2213 506 2350 
Q 484 2453 437 2492 
Q 391 2531 309 2531 
Q 222 2531 100 2484 
L 53 2597 
L 916 2947 
L 1050 2947 
L 1050 2338 
z
" transform="scale(0.015625)"/>
       <path id="TimesNewRomanPSMT-70" d="M -6 2578 
L 875 2934 
L 994 2934 
L 994 2266 
Q 1216 2644 1439 2795 
Q 1663 2947 1909 2947 
Q 2341 2947 2628 2609 
Q 2981 2197 2981 1534 
Q 2981 794 2556 309 
Q 2206 -88 1675 -88 
Q 1444 -88 1275 -22 
Q 1150 25 994 166 
L 994 -706 
Q 994 -1000 1030 -1079 
Q 1066 -1159 1155 -1206 
Q 1244 -1253 1478 -1253 
L 1478 -1369 
L -22 -1369 
L -22 -1253 
L 56 -1253 
Q 228 -1256 350 -1188 
Q 409 -1153 442 -1076 
Q 475 -1000 475 -688 
L 475 2019 
Q 475 2297 450 2372 
Q 425 2447 370 2484 
Q 316 2522 222 2522 
Q 147 2522 31 2478 
L -6 2578 
z
M 994 2081 
L 994 1013 
Q 994 666 1022 556 
Q 1066 375 1236 237 
Q 1406 100 1666 100 
Q 1978 100 2172 344 
Q 2425 663 2425 1241 
Q 2425 1897 2138 2250 
Q 1938 2494 1663 2494 
Q 1513 2494 1366 2419 
Q 1253 2363 994 2081 
z
" transform="scale(0.015625)"/>
      </defs>
      <use xlink:href="#TimesNewRomanPSMT-63"/>
      <use xlink:href="#TimesNewRomanPSMT-6f" transform="translate(44.384766 0)"/>
      <use xlink:href="#TimesNewRomanPSMT-6e" transform="translate(94.384766 0)"/>
      <use xlink:href="#TimesNewRomanPSMT-73" transform="translate(144.384766 0)"/>
      <use xlink:href="#TimesNewRomanPSMT-75" transform="translate(183.300781 0)"/>
      <use xlink:href="#TimesNewRomanPSMT-6d" transform="translate(233.300781 0)"/>
      <use xlink:href="#TimesNewRomanPSMT-70" transform="translate(311.083984 0)"/>
      <use xlink:href="#TimesNewRomanPSMT-74" transform="translate(361.083984 0)"/>
      <use xlink:href="#TimesNewRomanPSMT-69" transform="translate(388.867188 0)"/>
      <use xlink:href="#TimesNewRomanPSMT-6f" transform="translate(416.650391 0)"/>
      <use xlink:href="#TimesNewRomanPSMT-6e" transform="translate(466.650391 0)"/>
     </g>
     <!-- (kWh/month) -->
     <g transform="translate(584.481094 92.275563) scale(0.11 -0.11)">
      <defs>
       <path id="TimesNewRomanPSMT-6b" d="M 1047 4444 
L 1047 1597 
L 1775 2259 
Q 2006 2472 2044 2528 
Q 2069 2566 2069 2603 
Q 2069 2666 2017 2711 
Q 1966 2756 1847 2763 
L 1847 2863 
L 3091 2863 
L 3091 2763 
Q 2834 2756 2664 2684 
Q 2494 2613 2291 2428 
L 1556 1750 
L 2291 822 
Q 2597 438 2703 334 
Q 2853 188 2966 144 
Q 3044 113 3238 113 
L 3238 0 
L 1847 0 
L 1847 113 
Q 1966 116 2008 148 
Q 2050 181 2050 241 
Q 2050 313 1925 472 
L 1047 1594 
L 1047 644 
Q 1047 366 1086 278 
Q 1125 191 1197 153 
Q 1269 116 1509 113 
L 1509 0 
L 53 0 
L 53 113 
Q 272 113 381 166 
Q 447 200 481 272 
Q 528 375 528 628 
L 528 3234 
Q 528 3731 506 3842 
Q 484 3953 434 3995 
Q 384 4038 303 4038 
Q 238 4038 106 3984 
L 53 4094 
L 903 4444 
L 1047 4444 
z
" transform="scale(0.015625)"/>
       <path id="TimesNewRomanPSMT-57" d="M 5991 4238 
L 5991 4122 
Q 5825 4122 5722 4062 
Q 5619 4003 5525 3841 
Q 5463 3731 5328 3319 
L 4147 -97 
L 4022 -97 
L 3056 2613 
L 2097 -97 
L 1984 -97 
L 725 3422 
Q 584 3816 547 3888 
Q 484 4006 376 4064 
Q 269 4122 84 4122 
L 84 4238 
L 1653 4238 
L 1653 4122 
L 1578 4122 
Q 1413 4122 1325 4047 
Q 1238 3972 1238 3866 
Q 1238 3756 1375 3363 
L 2209 984 
L 2913 3006 
L 2788 3363 
L 2688 3647 
Q 2622 3803 2541 3922 
Q 2500 3981 2441 4022 
Q 2363 4078 2284 4103 
Q 2225 4122 2097 4122 
L 2097 4238 
L 3747 4238 
L 3747 4122 
L 3634 4122 
Q 3459 4122 3378 4047 
Q 3297 3972 3297 3844 
Q 3297 3684 3438 3288 
L 4250 984 
L 5056 3319 
Q 5194 3706 5194 3856 
Q 5194 3928 5148 3990 
Q 5103 4053 5034 4078 
Q 4916 4122 4725 4122 
L 4725 4238 
L 5991 4238 
z
" transform="scale(0.015625)"/>
       <path id="TimesNewRomanPSMT-2f" d="M 1794 4444 
L 259 -88 
L 9 -88 
L 1544 4444 
L 1794 4444 
z
" transform="scale(0.015625)"/>
      </defs>
      <use xlink:href="#TimesNewRomanPSMT-28"/>
      <use xlink:href="#TimesNewRomanPSMT-6b" transform="translate(33.300781 0)"/>
      <use xlink:href="#TimesNewRomanPSMT-57" transform="translate(83.300781 0)"/>
      <use xlink:href="#TimesNewRomanPSMT-68" transform="translate(177.685547 0)"/>
      <use xlink:href="#TimesNewRomanPSMT-2f" transform="translate(227.685547 0)"/>
      <use xlink:href="#TimesNewRomanPSMT-6d" transform="translate(255.46875 0)"/>
      <use xlink:href="#TimesNewRomanPSMT-6f" transform="translate(333.251953 0)"/>
      <use xlink:href="#TimesNewRomanPSMT-6e" transform="translate(383.251953 0)"/>
      <use xlink:href="#TimesNewRomanPSMT-74" transform="translate(433.251953 0)"/>
      <use xlink:href="#TimesNewRomanPSMT-68" transform="translate(461.035156 0)"/>
      <use xlink:href="#TimesNewRomanPSMT-29" transform="translate(511.035156 0)"/>
     </g>
    </g>
    <g id="PathCollection_4">
     <defs>
      <path id="m3314dae23f" d="M 0 7.926655 
C 2.102173 7.926655 4.11853 7.091452 5.604991 5.604991 
C 7.091452 4.11853 7.926655 2.102173 7.926655 0 
C 7.926655 -2.102173 7.091452 -4.11853 5.604991 -5.604991 
C 4.11853 -7.091452 2.102173 -7.926655 0 -7.926655 
C -2.102173 -7.926655 -4.11853 -7.091452 -5.604991 -5.604991 
C -7.091452 -4.11853 -7.926655 -2.102173 -7.926655 0 
C -7.926655 2.102173 -7.091452 4.11853 -5.604991 5.604991 
C -4.11853 7.091452 -2.102173 7.926655 0 7.926655 
z
" style="stroke: #000000; stroke-opacity: 0.7; stroke-width: 0.5"/>
     </defs>
     <g>
      <use xlink:href="#m3314dae23f" x="597.696328" y="116.503531" style="fill: #8c564b; fill-opacity: 0.7; stroke: #000000; stroke-opacity: 0.7; stroke-width: 0.5"/>
     </g>
    </g>
    <g id="text_26">
     <!-- 100 -->
     <g transform="translate(625.196328 119.128531) scale(0.1 -0.1)">
      <use xlink:href="#TimesNewRomanPSMT-31"/>
      <use xlink:href="#TimesNewRomanPSMT-30" transform="translate(50 0)"/>
      <use xlink:href="#TimesNewRomanPSMT-30" transform="translate(100 0)"/>
     </g>
    </g>
    <g id="PathCollection_5">
     <defs>
      <path id="m9348bca301" d="M 0 15.853309 
C 4.204347 15.853309 8.23706 14.182905 11.209982 11.209982 
C 14.182905 8.23706 15.853309 4.204347 15.853309 0 
C 15.853309 -4.204347 14.182905 -8.23706 11.209982 -11.209982 
C 8.23706 -14.182905 4.204347 -15.853309 0 -15.853309 
C -4.204347 -15.853309 -8.23706 -14.182905 -11.209982 -11.209982 
C -14.182905 -8.23706 -15.853309 -4.204347 -15.853309 0 
C -15.853309 4.204347 -14.182905 8.23706 -11.209982 11.209982 
C -8.23706 14.182905 -4.204347 15.853309 0 15.853309 
z
" style="stroke: #000000; stroke-opacity: 0.7; stroke-width: 0.5"/>
     </defs>
     <g>
      <use xlink:href="#m9348bca301" x="597.696328" y="143.142594" style="fill: #8c564b; fill-opacity: 0.7; stroke: #000000; stroke-opacity: 0.7; stroke-width: 0.5"/>
     </g>
    </g>
    <g id="text_27">
     <!-- 10.0k -->
     <g transform="translate(625.196328 145.767594) scale(0.1 -0.1)">
      <defs>
       <path id="TimesNewRomanPSMT-2e" d="M 800 606 
Q 947 606 1047 504 
Q 1147 403 1147 259 
Q 1147 116 1045 14 
Q 944 -88 800 -88 
Q 656 -88 554 14 
Q 453 116 453 259 
Q 453 406 554 506 
Q 656 606 800 606 
z
" transform="scale(0.015625)"/>
      </defs>
      <use xlink:href="#TimesNewRomanPSMT-31"/>
      <use xlink:href="#TimesNewRomanPSMT-30" transform="translate(50 0)"/>
      <use xlink:href="#TimesNewRomanPSMT-2e" transform="translate(100 0)"/>
      <use xlink:href="#TimesNewRomanPSMT-30" transform="translate(125 0)"/>
      <use xlink:href="#TimesNewRomanPSMT-6b" transform="translate(175 0)"/>
     </g>
    </g>
   </g>
  </g>
 </g>
 <defs>
  <clipPath id="p337a79aec7">
   <rect x="46.85375" y="41.6" width="501.24625" height="451.99625"/>
  </clipPath>
 </defs>
</svg>
