<?xml version="1.0" encoding="utf-8" standalone="no"?>
<!DOCTYPE svg PUBLIC "-//W3C//DTD SVG 1.1//EN"
  "http://www.w3.org/Graphics/SVG/1.1/DTD/svg11.dtd">
<svg xmlns:xlink="http://www.w3.org/1999/xlink" width="720pt" height="540pt" viewBox="0 0 720 540" xmlns="http://www.w3.org/2000/svg" version="1.1">
 <metadata>
  <rdf:RDF xmlns:dc="http://purl.org/dc/elements/1.1/" xmlns:cc="http://creativecommons.org/ns#" xmlns:rdf="http://www.w3.org/1999/02/22-rdf-syntax-ns#">
   <cc:Work>
    <dc:type rdf:resource="http://purl.org/dc/dcmitype/StillImage"/>
    <dc:date>2025-05-25T11:14:53.680321</dc:date>
    <dc:format>image/svg+xml</dc:format>
    <dc:creator>
     <cc:Agent>
      <dc:title>Matplotlib v3.10.0, https://matplotlib.org/</dc:title>
     </cc:Agent>
    </dc:creator>
   </cc:Work>
  </rdf:RDF>
 </metadata>
 <defs>
  <style type="text/css">*{stroke-linejoin: round; stroke-linecap: butt}</style>
 </defs>
 <g id="figure_1">
  <g id="patch_1">
   <path d="M 0 540 
L 720 540 
L 720 0 
L 0 0 
z
" style="fill: #ffffff"/>
  </g>
  <g id="axes_1">
   <g id="patch_2">
    <path d="M 46.94375 493.59625 
L 548.1 493.59625 
L 548.1 41.6 
L 46.94375 41.6 
z
" style="fill: #ffffff"/>
   </g>
   <g id="PathCollection_1">
    <path d="M 355.247204 409.792102 
C 359.947807 409.792102 364.456518 407.924533 367.780346 404.600705 
C 371.104174 401.276877 372.971743 396.768166 372.971743 392.067563 
C 372.971743 387.366961 371.104174 382.85825 367.780346 379.534422 
C 364.456518 376.210594 359.947807 374.343025 355.247204 374.343025 
C 350.546602 374.343025 346.037891 376.210594 342.714063 379.534422 
C 339.390235 382.85825 337.522666 387.366961 337.522666 392.067563 
C 337.522666 396.768166 339.390235 401.276877 342.714063 404.600705 
C 346.037891 407.924533 350.546602 409.792102 355.247204 409.792102 
z
" clip-path="url(#p3ad29c9a3c)" style="fill: #e377c2; fill-opacity: 0.7; stroke: #000000; stroke-opacity: 0.7; stroke-width: 0.5"/>
    <path d="M 483.748807 396.484098 
C 488.201992 396.484098 492.473386 394.714829 495.622263 391.565952 
C 498.771141 388.417074 500.54041 384.14568 500.54041 379.692495 
C 500.54041 375.23931 498.771141 370.967916 495.622263 367.819038 
C 492.473386 364.670161 488.201992 362.900892 483.748807 362.900892 
C 479.295622 362.900892 475.024228 364.670161 471.87535 367.819038 
C 468.726473 370.967916 466.957204 375.23931 466.957204 379.692495 
C 466.957204 384.14568 468.726473 388.417074 471.87535 391.565952 
C 475.024228 394.714829 479.295622 396.484098 483.748807 396.484098 
z
" clip-path="url(#p3ad29c9a3c)" style="fill: #e377c2; fill-opacity: 0.7; stroke: #000000; stroke-opacity: 0.7; stroke-width: 0.5"/>
    <path d="M 182.573176 220.512681 
C 186.172285 220.512681 189.624468 219.08274 192.169422 216.537785 
C 194.714376 213.992831 196.144317 210.540648 196.144317 206.94154 
C 196.144317 203.342431 194.714376 199.890248 192.169422 197.345294 
C 189.624468 194.800339 186.172285 193.370398 182.573176 193.370398 
C 178.974067 193.370398 175.521884 194.800339 172.97693 197.345294 
C 170.431976 199.890248 169.002035 203.342431 169.002035 206.94154 
C 169.002035 210.540648 170.431976 213.992831 172.97693 216.537785 
C 175.521884 219.08274 178.974067 220.512681 182.573176 220.512681 
z
" clip-path="url(#p3ad29c9a3c)" style="fill: #e377c2; fill-opacity: 0.7; stroke: #000000; stroke-opacity: 0.7; stroke-width: 0.5"/>
    <path d="M 233.271074 162.955053 
C 236.788683 162.955053 240.162693 161.557492 242.650018 159.070167 
C 245.137343 156.582842 246.534904 153.208832 246.534904 149.691223 
C 246.534904 146.173614 245.137343 142.799604 242.650018 140.312279 
C 240.162693 137.824954 236.788683 136.427393 233.271074 136.427393 
C 229.753465 136.427393 226.379455 137.824954 223.89213 140.312279 
C 221.404804 142.799604 220.007244 146.173614 220.007244 149.691223 
C 220.007244 153.208832 221.404804 156.582842 223.89213 159.070167 
C 226.379455 161.557492 229.753465 162.955053 233.271074 162.955053 
z
" clip-path="url(#p3ad29c9a3c)" style="fill: #e377c2; fill-opacity: 0.7; stroke: #000000; stroke-opacity: 0.7; stroke-width: 0.5"/>
    <path d="M 490.274279 296.022015 
C 493.610548 296.022015 496.810621 294.696502 499.16972 292.337403 
C 501.528818 289.978305 502.854332 286.778232 502.854332 283.441963 
C 502.854332 280.105694 501.528818 276.90562 499.16972 274.546522 
C 496.810621 272.187424 493.610548 270.86191 490.274279 270.86191 
C 486.93801 270.86191 483.737937 272.187424 481.378838 274.546522 
C 479.01974 276.90562 477.694226 280.105694 477.694226 283.441963 
C 477.694226 286.778232 479.01974 289.978305 481.378838 292.337403 
C 483.737937 294.696502 486.93801 296.022015 490.274279 296.022015 
z
" clip-path="url(#p3ad29c9a3c)" style="fill: #e377c2; fill-opacity: 0.7; stroke: #000000; stroke-opacity: 0.7; stroke-width: 0.5"/>
    <path d="M 283.968972 134.952318 
C 287.104665 134.952318 290.11235 133.706494 292.32962 131.489224 
C 294.546889 129.271954 295.792714 126.264269 295.792714 123.128576 
C 295.792714 119.992883 294.546889 116.985198 292.32962 114.767928 
C 290.11235 112.550658 287.104665 111.304834 283.968972 111.304834 
C 280.833279 111.304834 277.825593 112.550658 275.608324 114.767928 
C 273.391054 116.985198 272.14523 119.992883 272.14523 123.128576 
C 272.14523 126.264269 273.391054 129.271954 275.608324 131.489224 
C 277.825593 133.706494 280.833279 134.952318 283.968972 134.952318 
z
" clip-path="url(#p3ad29c9a3c)" style="fill: #e377c2; fill-opacity: 0.7; stroke: #000000; stroke-opacity: 0.7; stroke-width: 0.5"/>
    <path d="M 104.769471 181.905258 
C 107.842889 181.905258 110.790841 180.684176 112.964076 178.510941 
C 115.13731 176.337707 116.358392 173.389755 116.358392 170.316337 
C 116.358392 167.242919 115.13731 164.294967 112.964076 162.121732 
C 110.790841 159.948498 107.842889 158.727416 104.769471 158.727416 
C 101.696053 158.727416 98.748101 159.948498 96.574867 162.121732 
C 94.401632 164.294967 93.18055 167.242919 93.18055 170.316337 
C 93.18055 173.389755 94.401632 176.337707 96.574867 178.510941 
C 98.748101 180.684176 101.696053 181.905258 104.769471 181.905258 
z
" clip-path="url(#p3ad29c9a3c)" style="fill: #e377c2; fill-opacity: 0.7; stroke: #000000; stroke-opacity: 0.7; stroke-width: 0.5"/>
    <path d="M 285.976809 196.991319 
C 288.940426 196.991319 291.78306 195.813861 293.878654 193.718268 
C 295.974248 191.622674 297.151705 188.78004 297.151705 185.816423 
C 297.151705 182.852806 295.974248 180.010171 293.878654 177.914578 
C 291.78306 175.818984 288.940426 174.641526 285.976809 174.641526 
C 283.013192 174.641526 280.170558 175.818984 278.074964 177.914578 
C 275.97937 180.010171 274.801913 182.852806 274.801913 185.816423 
C 274.801913 188.78004 275.97937 191.622674 278.074964 193.718268 
C 280.170558 195.813861 283.013192 196.991319 285.976809 196.991319 
z
" clip-path="url(#p3ad29c9a3c)" style="fill: #e377c2; fill-opacity: 0.7; stroke: #000000; stroke-opacity: 0.7; stroke-width: 0.5"/>
    <path d="M 155.467369 219.457174 
C 158.388747 219.457174 161.190867 218.296498 163.256593 216.230772 
C 165.322319 214.165045 166.482995 211.362926 166.482995 208.441548 
C 166.482995 205.52017 165.322319 202.71805 163.256593 200.652324 
C 161.190867 198.586598 158.388747 197.425922 155.467369 197.425922 
C 152.545991 197.425922 149.743872 198.586598 147.678145 200.652324 
C 145.612419 202.71805 144.451743 205.52017 144.451743 208.441548 
C 144.451743 211.362926 145.612419 214.165045 147.678145 216.230772 
C 149.743872 218.296498 152.545991 219.457174 155.467369 219.457174 
z
" clip-path="url(#p3ad29c9a3c)" style="fill: #e377c2; fill-opacity: 0.7; stroke: #000000; stroke-opacity: 0.7; stroke-width: 0.5"/>
    <path d="M 400.423549 104.534829 
C 403.282814 104.534829 406.025356 103.398831 408.047161 101.377026 
C 410.068967 99.35522 411.204965 96.612678 411.204965 93.753413 
C 411.204965 90.894149 410.068967 88.151607 408.047161 86.129801 
C 406.025356 84.107996 403.282814 82.971998 400.423549 82.971998 
C 397.564284 82.971998 394.821742 84.107996 392.799937 86.129801 
C 390.778131 88.151607 389.642133 90.894149 389.642133 93.753413 
C 389.642133 96.612678 390.778131 99.35522 392.799937 101.377026 
C 394.821742 103.398831 397.564284 104.534829 400.423549 104.534829 
z
" clip-path="url(#p3ad29c9a3c)" style="fill: #e377c2; fill-opacity: 0.7; stroke: #000000; stroke-opacity: 0.7; stroke-width: 0.5"/>
    <path d="M 168.518313 400.143237 
C 171.372744 400.143237 174.110649 399.00916 176.129037 396.990772 
C 178.147424 394.972385 179.281502 392.23448 179.281502 389.380049 
C 179.281502 386.525618 178.147424 383.787712 176.129037 381.769325 
C 174.110649 379.750937 171.372744 378.61686 168.518313 378.61686 
C 165.663882 378.61686 162.925977 379.750937 160.907589 381.769325 
C 158.889202 383.787712 157.755124 386.525618 157.755124 389.380049 
C 157.755124 392.23448 158.889202 394.972385 160.907589 396.990772 
C 162.925977 399.00916 165.663882 400.143237 168.518313 400.143237 
z
" clip-path="url(#p3ad29c9a3c)" style="fill: #e377c2; fill-opacity: 0.7; stroke: #000000; stroke-opacity: 0.7; stroke-width: 0.5"/>
    <path d="M 165.506557 451.928815 
C 168.287471 451.928815 170.95486 450.823946 172.921263 448.857543 
C 174.887666 446.89114 175.992535 444.223751 175.992535 441.442837 
C 175.992535 438.661923 174.887666 435.994533 172.921263 434.02813 
C 170.95486 432.061727 168.287471 430.956858 165.506557 430.956858 
C 162.725643 430.956858 160.058253 432.061727 158.09185 434.02813 
C 156.125447 435.994533 155.020578 438.661923 155.020578 441.442837 
C 155.020578 444.223751 156.125447 446.89114 158.09185 448.857543 
C 160.058253 450.823946 162.725643 451.928815 165.506557 451.928815 
z
" clip-path="url(#p3ad29c9a3c)" style="fill: #e377c2; fill-opacity: 0.7; stroke: #000000; stroke-opacity: 0.7; stroke-width: 0.5"/>
    <path d="M 112.800821 199.462074 
C 115.375447 199.462074 117.84497 198.439164 119.665506 196.618629 
C 121.486041 194.798093 122.508951 192.32857 122.508951 189.753944 
C 122.508951 187.179318 121.486041 184.709796 119.665506 182.88926 
C 117.84497 181.068725 115.375447 180.045815 112.800821 180.045815 
C 110.226195 180.045815 107.756673 181.068725 105.936137 182.88926 
C 104.115602 184.709796 103.092692 187.179318 103.092692 189.753944 
C 103.092692 192.32857 104.115602 194.798093 105.936137 196.618629 
C 107.756673 198.439164 110.226195 199.462074 112.800821 199.462074 
z
" clip-path="url(#p3ad29c9a3c)" style="fill: #e377c2; fill-opacity: 0.7; stroke: #000000; stroke-opacity: 0.7; stroke-width: 0.5"/>
    <path d="M 254.855327 257.716249 
C 257.331523 257.716249 259.706634 256.732446 261.457569 254.981511 
C 263.208504 253.230576 264.192307 250.855465 264.192307 248.379269 
C 264.192307 245.903073 263.208504 243.527962 261.457569 241.777027 
C 259.706634 240.026092 257.331523 239.042289 254.855327 239.042289 
C 252.379131 239.042289 250.00402 240.026092 248.253085 241.777027 
C 246.50215 243.527962 245.518347 245.903073 245.518347 248.379269 
C 245.518347 250.855465 246.50215 253.230576 248.253085 254.981511 
C 250.00402 256.732446 252.379131 257.716249 254.855327 257.716249 
z
" clip-path="url(#p3ad29c9a3c)" style="fill: #e377c2; fill-opacity: 0.7; stroke: #000000; stroke-opacity: 0.7; stroke-width: 0.5"/>
    <path d="M 306.055185 247.866486 
C 308.405486 247.866486 310.659841 246.932702 312.321755 245.270788 
C 313.983669 243.608874 314.917454 241.354518 314.917454 239.004217 
C 314.917454 236.653916 313.983669 234.39956 312.321755 232.737646 
C 310.659841 231.075732 308.405486 230.141948 306.055185 230.141948 
C 303.704883 230.141948 301.450528 231.075732 299.788614 232.737646 
C 298.1267 234.39956 297.192915 236.653916 297.192915 239.004217 
C 297.192915 241.354518 298.1267 243.608874 299.788614 245.270788 
C 301.450528 246.932702 303.704883 247.866486 306.055185 247.866486 
z
" clip-path="url(#p3ad29c9a3c)" style="fill: #e377c2; fill-opacity: 0.7; stroke: #000000; stroke-opacity: 0.7; stroke-width: 0.5"/>
   </g>
   <g id="PathCollection_2"/>
   <g id="PathCollection_3"/>
   <g id="matplotlib.axis_1">
    <g id="xtick_1">
     <g id="line2d_1">
      <defs>
       <path id="m1b0d201120" d="M 0 0 
L 0 3.5 
" style="stroke: #000000"/>
      </defs>
      <g>
       <use xlink:href="#m1b0d201120" x="82.181299" y="493.59625" style="stroke: #000000"/>
      </g>
     </g>
     <g id="text_1">
      <!-- 2 -->
      <g transform="translate(79.181299 508.92875) scale(0.12 -0.12)">
       <defs>
        <path id="TimesNewRomanPSMT-32" d="M 2934 816 
L 2638 0 
L 138 0 
L 138 116 
Q 1241 1122 1691 1759 
Q 2141 2397 2141 2925 
Q 2141 3328 1894 3587 
Q 1647 3847 1303 3847 
Q 991 3847 742 3664 
Q 494 3481 375 3128 
L 259 3128 
Q 338 3706 661 4015 
Q 984 4325 1469 4325 
Q 1984 4325 2329 3994 
Q 2675 3663 2675 3213 
Q 2675 2891 2525 2569 
Q 2294 2063 1775 1497 
Q 997 647 803 472 
L 1909 472 
Q 2247 472 2383 497 
Q 2519 522 2628 598 
Q 2738 675 2819 816 
L 2934 816 
z
" transform="scale(0.015625)"/>
       </defs>
       <use xlink:href="#TimesNewRomanPSMT-32"/>
      </g>
     </g>
    </g>
    <g id="xtick_2">
     <g id="line2d_2">
      <g>
       <use xlink:href="#m1b0d201120" x="182.573176" y="493.59625" style="stroke: #000000"/>
      </g>
     </g>
     <g id="text_2">
      <!-- 4 -->
      <g transform="translate(179.573176 508.92875) scale(0.12 -0.12)">
       <defs>
        <path id="TimesNewRomanPSMT-34" d="M 2978 1563 
L 2978 1119 
L 2409 1119 
L 2409 0 
L 1894 0 
L 1894 1119 
L 100 1119 
L 100 1519 
L 2066 4325 
L 2409 4325 
L 2409 1563 
L 2978 1563 
z
M 1894 1563 
L 1894 3666 
L 406 1563 
L 1894 1563 
z
" transform="scale(0.015625)"/>
       </defs>
       <use xlink:href="#TimesNewRomanPSMT-34"/>
      </g>
     </g>
    </g>
    <g id="xtick_3">
     <g id="line2d_3">
      <g>
       <use xlink:href="#m1b0d201120" x="282.965053" y="493.59625" style="stroke: #000000"/>
      </g>
     </g>
     <g id="text_3">
      <!-- 6 -->
      <g transform="translate(279.965053 508.92875) scale(0.12 -0.12)">
       <defs>
        <path id="TimesNewRomanPSMT-36" d="M 2869 4325 
L 2869 4209 
Q 2456 4169 2195 4045 
Q 1934 3922 1679 3669 
Q 1425 3416 1258 3105 
Q 1091 2794 978 2366 
Q 1428 2675 1881 2675 
Q 2316 2675 2634 2325 
Q 2953 1975 2953 1425 
Q 2953 894 2631 456 
Q 2244 -75 1606 -75 
Q 1172 -75 869 213 
Q 275 772 275 1663 
Q 275 2231 503 2743 
Q 731 3256 1154 3653 
Q 1578 4050 1965 4187 
Q 2353 4325 2688 4325 
L 2869 4325 
z
M 925 2138 
Q 869 1716 869 1456 
Q 869 1156 980 804 
Q 1091 453 1309 247 
Q 1469 100 1697 100 
Q 1969 100 2183 356 
Q 2397 613 2397 1088 
Q 2397 1622 2184 2012 
Q 1972 2403 1581 2403 
Q 1463 2403 1327 2353 
Q 1191 2303 925 2138 
z
" transform="scale(0.015625)"/>
       </defs>
       <use xlink:href="#TimesNewRomanPSMT-36"/>
      </g>
     </g>
    </g>
    <g id="xtick_4">
     <g id="line2d_4">
      <g>
       <use xlink:href="#m1b0d201120" x="383.35693" y="493.59625" style="stroke: #000000"/>
      </g>
     </g>
     <g id="text_4">
      <!-- 8 -->
      <g transform="translate(380.35693 508.92875) scale(0.12 -0.12)">
       <defs>
        <path id="TimesNewRomanPSMT-38" d="M 1228 2134 
Q 725 2547 579 2797 
Q 434 3047 434 3316 
Q 434 3728 753 4026 
Q 1072 4325 1600 4325 
Q 2113 4325 2425 4047 
Q 2738 3769 2738 3413 
Q 2738 3175 2569 2928 
Q 2400 2681 1866 2347 
Q 2416 1922 2594 1678 
Q 2831 1359 2831 1006 
Q 2831 559 2490 242 
Q 2150 -75 1597 -75 
Q 994 -75 656 303 
Q 388 606 388 966 
Q 388 1247 577 1523 
Q 766 1800 1228 2134 
z
M 1719 2469 
Q 2094 2806 2194 3001 
Q 2294 3197 2294 3444 
Q 2294 3772 2109 3958 
Q 1925 4144 1606 4144 
Q 1288 4144 1088 3959 
Q 888 3775 888 3528 
Q 888 3366 970 3203 
Q 1053 3041 1206 2894 
L 1719 2469 
z
M 1375 2016 
Q 1116 1797 991 1539 
Q 866 1281 866 981 
Q 866 578 1086 336 
Q 1306 94 1647 94 
Q 1984 94 2187 284 
Q 2391 475 2391 747 
Q 2391 972 2272 1150 
Q 2050 1481 1375 2016 
z
" transform="scale(0.015625)"/>
       </defs>
       <use xlink:href="#TimesNewRomanPSMT-38"/>
      </g>
     </g>
    </g>
    <g id="xtick_5">
     <g id="line2d_5">
      <g>
       <use xlink:href="#m1b0d201120" x="483.748807" y="493.59625" style="stroke: #000000"/>
      </g>
     </g>
     <g id="text_5">
      <!-- 10 -->
      <g transform="translate(477.748807 508.92875) scale(0.12 -0.12)">
       <defs>
        <path id="TimesNewRomanPSMT-31" d="M 750 3822 
L 1781 4325 
L 1884 4325 
L 1884 747 
Q 1884 391 1914 303 
Q 1944 216 2037 169 
Q 2131 122 2419 116 
L 2419 0 
L 825 0 
L 825 116 
Q 1125 122 1212 167 
Q 1300 213 1334 289 
Q 1369 366 1369 747 
L 1369 3034 
Q 1369 3497 1338 3628 
Q 1316 3728 1258 3775 
Q 1200 3822 1119 3822 
Q 1003 3822 797 3725 
L 750 3822 
z
" transform="scale(0.015625)"/>
        <path id="TimesNewRomanPSMT-30" d="M 231 2094 
Q 231 2819 450 3342 
Q 669 3866 1031 4122 
Q 1313 4325 1613 4325 
Q 2100 4325 2488 3828 
Q 2972 3213 2972 2159 
Q 2972 1422 2759 906 
Q 2547 391 2217 158 
Q 1888 -75 1581 -75 
Q 975 -75 572 641 
Q 231 1244 231 2094 
z
M 844 2016 
Q 844 1141 1059 588 
Q 1238 122 1591 122 
Q 1759 122 1940 273 
Q 2122 425 2216 781 
Q 2359 1319 2359 2297 
Q 2359 3022 2209 3506 
Q 2097 3866 1919 4016 
Q 1791 4119 1609 4119 
Q 1397 4119 1231 3928 
Q 1006 3669 925 3112 
Q 844 2556 844 2016 
z
" transform="scale(0.015625)"/>
       </defs>
       <use xlink:href="#TimesNewRomanPSMT-31"/>
       <use xlink:href="#TimesNewRomanPSMT-30" transform="translate(50 0)"/>
      </g>
     </g>
    </g>
    <g id="text_6">
     <!-- Ingredient cost ($ per unit) -->
     <g transform="translate(222.490625 525.545) scale(0.14 -0.14)">
      <defs>
       <path id="TimesNewRomanPSMT-49" d="M 1975 116 
L 1975 0 
L 159 0 
L 159 116 
L 309 116 
Q 572 116 691 269 
Q 766 369 766 750 
L 766 3488 
Q 766 3809 725 3913 
Q 694 3991 597 4047 
Q 459 4122 309 4122 
L 159 4122 
L 159 4238 
L 1975 4238 
L 1975 4122 
L 1822 4122 
Q 1563 4122 1444 3969 
Q 1366 3869 1366 3488 
L 1366 750 
Q 1366 428 1406 325 
Q 1438 247 1538 191 
Q 1672 116 1822 116 
L 1975 116 
z
" transform="scale(0.015625)"/>
       <path id="TimesNewRomanPSMT-6e" d="M 1034 2341 
Q 1538 2947 1994 2947 
Q 2228 2947 2397 2830 
Q 2566 2713 2666 2444 
Q 2734 2256 2734 1869 
L 2734 647 
Q 2734 375 2778 278 
Q 2813 200 2889 156 
Q 2966 113 3172 113 
L 3172 0 
L 1756 0 
L 1756 113 
L 1816 113 
Q 2016 113 2095 173 
Q 2175 234 2206 353 
Q 2219 400 2219 647 
L 2219 1819 
Q 2219 2209 2117 2386 
Q 2016 2563 1775 2563 
Q 1403 2563 1034 2156 
L 1034 647 
Q 1034 356 1069 288 
Q 1113 197 1189 155 
Q 1266 113 1500 113 
L 1500 0 
L 84 0 
L 84 113 
L 147 113 
Q 366 113 442 223 
Q 519 334 519 647 
L 519 1709 
Q 519 2225 495 2337 
Q 472 2450 423 2490 
Q 375 2531 294 2531 
Q 206 2531 84 2484 
L 38 2597 
L 900 2947 
L 1034 2947 
L 1034 2341 
z
" transform="scale(0.015625)"/>
       <path id="TimesNewRomanPSMT-67" d="M 966 1044 
Q 703 1172 562 1401 
Q 422 1631 422 1909 
Q 422 2334 742 2640 
Q 1063 2947 1563 2947 
Q 1972 2947 2272 2747 
L 2878 2747 
Q 3013 2747 3034 2739 
Q 3056 2731 3066 2713 
Q 3084 2684 3084 2613 
Q 3084 2531 3069 2500 
Q 3059 2484 3036 2475 
Q 3013 2466 2878 2466 
L 2506 2466 
Q 2681 2241 2681 1891 
Q 2681 1491 2375 1206 
Q 2069 922 1553 922 
Q 1341 922 1119 984 
Q 981 866 932 777 
Q 884 688 884 625 
Q 884 572 936 522 
Q 988 472 1138 450 
Q 1225 438 1575 428 
Q 2219 413 2409 384 
Q 2700 344 2873 169 
Q 3047 -6 3047 -263 
Q 3047 -616 2716 -925 
Q 2228 -1381 1444 -1381 
Q 841 -1381 425 -1109 
Q 191 -953 191 -784 
Q 191 -709 225 -634 
Q 278 -519 444 -313 
Q 466 -284 763 25 
Q 600 122 533 198 
Q 466 275 466 372 
Q 466 481 555 628 
Q 644 775 966 1044 
z
M 1509 2797 
Q 1278 2797 1122 2612 
Q 966 2428 966 2047 
Q 966 1553 1178 1281 
Q 1341 1075 1591 1075 
Q 1828 1075 1981 1253 
Q 2134 1431 2134 1813 
Q 2134 2309 1919 2591 
Q 1759 2797 1509 2797 
z
M 934 0 
Q 788 -159 713 -296 
Q 638 -434 638 -550 
Q 638 -700 819 -813 
Q 1131 -1006 1722 -1006 
Q 2284 -1006 2551 -807 
Q 2819 -609 2819 -384 
Q 2819 -222 2659 -153 
Q 2497 -84 2016 -72 
Q 1313 -53 934 0 
z
" transform="scale(0.015625)"/>
       <path id="TimesNewRomanPSMT-72" d="M 1038 2947 
L 1038 2303 
Q 1397 2947 1775 2947 
Q 1947 2947 2059 2842 
Q 2172 2738 2172 2600 
Q 2172 2478 2090 2393 
Q 2009 2309 1897 2309 
Q 1788 2309 1652 2417 
Q 1516 2525 1450 2525 
Q 1394 2525 1328 2463 
Q 1188 2334 1038 2041 
L 1038 669 
Q 1038 431 1097 309 
Q 1138 225 1241 169 
Q 1344 113 1538 113 
L 1538 0 
L 72 0 
L 72 113 
Q 291 113 397 181 
Q 475 231 506 341 
Q 522 394 522 644 
L 522 1753 
Q 522 2253 501 2348 
Q 481 2444 426 2487 
Q 372 2531 291 2531 
Q 194 2531 72 2484 
L 41 2597 
L 906 2947 
L 1038 2947 
z
" transform="scale(0.015625)"/>
       <path id="TimesNewRomanPSMT-65" d="M 681 1784 
Q 678 1147 991 784 
Q 1303 422 1725 422 
Q 2006 422 2214 576 
Q 2422 731 2563 1106 
L 2659 1044 
Q 2594 616 2278 264 
Q 1963 -88 1488 -88 
Q 972 -88 605 314 
Q 238 716 238 1394 
Q 238 2128 614 2539 
Q 991 2950 1559 2950 
Q 2041 2950 2350 2633 
Q 2659 2316 2659 1784 
L 681 1784 
z
M 681 1966 
L 2006 1966 
Q 1991 2241 1941 2353 
Q 1863 2528 1708 2628 
Q 1553 2728 1384 2728 
Q 1125 2728 920 2526 
Q 716 2325 681 1966 
z
" transform="scale(0.015625)"/>
       <path id="TimesNewRomanPSMT-64" d="M 2222 322 
Q 2013 103 1813 7 
Q 1613 -88 1381 -88 
Q 913 -88 563 304 
Q 213 697 213 1313 
Q 213 1928 600 2439 
Q 988 2950 1597 2950 
Q 1975 2950 2222 2709 
L 2222 3238 
Q 2222 3728 2198 3840 
Q 2175 3953 2125 3993 
Q 2075 4034 2000 4034 
Q 1919 4034 1784 3984 
L 1744 4094 
L 2597 4444 
L 2738 4444 
L 2738 1134 
Q 2738 631 2761 520 
Q 2784 409 2836 365 
Q 2888 322 2956 322 
Q 3041 322 3181 375 
L 3216 266 
L 2366 -88 
L 2222 -88 
L 2222 322 
z
M 2222 541 
L 2222 2016 
Q 2203 2228 2109 2403 
Q 2016 2578 1861 2667 
Q 1706 2756 1559 2756 
Q 1284 2756 1069 2509 
Q 784 2184 784 1559 
Q 784 928 1059 592 
Q 1334 256 1672 256 
Q 1956 256 2222 541 
z
" transform="scale(0.015625)"/>
       <path id="TimesNewRomanPSMT-69" d="M 928 4444 
Q 1059 4444 1151 4351 
Q 1244 4259 1244 4128 
Q 1244 3997 1151 3903 
Q 1059 3809 928 3809 
Q 797 3809 703 3903 
Q 609 3997 609 4128 
Q 609 4259 701 4351 
Q 794 4444 928 4444 
z
M 1188 2947 
L 1188 647 
Q 1188 378 1227 289 
Q 1266 200 1342 156 
Q 1419 113 1622 113 
L 1622 0 
L 231 0 
L 231 113 
Q 441 113 512 153 
Q 584 194 626 287 
Q 669 381 669 647 
L 669 1750 
Q 669 2216 641 2353 
Q 619 2453 572 2492 
Q 525 2531 444 2531 
Q 356 2531 231 2484 
L 188 2597 
L 1050 2947 
L 1188 2947 
z
" transform="scale(0.015625)"/>
       <path id="TimesNewRomanPSMT-74" d="M 1031 3803 
L 1031 2863 
L 1700 2863 
L 1700 2644 
L 1031 2644 
L 1031 788 
Q 1031 509 1111 412 
Q 1191 316 1316 316 
Q 1419 316 1516 380 
Q 1613 444 1666 569 
L 1788 569 
Q 1678 263 1478 108 
Q 1278 -47 1066 -47 
Q 922 -47 784 33 
Q 647 113 581 261 
Q 516 409 516 719 
L 516 2644 
L 63 2644 
L 63 2747 
Q 234 2816 414 2980 
Q 594 3144 734 3369 
Q 806 3488 934 3803 
L 1031 3803 
z
" transform="scale(0.015625)"/>
       <path id="TimesNewRomanPSMT-20" transform="scale(0.015625)"/>
       <path id="TimesNewRomanPSMT-63" d="M 2631 1088 
Q 2516 522 2178 217 
Q 1841 -88 1431 -88 
Q 944 -88 581 321 
Q 219 731 219 1428 
Q 219 2103 620 2525 
Q 1022 2947 1584 2947 
Q 2006 2947 2278 2723 
Q 2550 2500 2550 2259 
Q 2550 2141 2473 2067 
Q 2397 1994 2259 1994 
Q 2075 1994 1981 2113 
Q 1928 2178 1911 2362 
Q 1894 2547 1784 2644 
Q 1675 2738 1481 2738 
Q 1169 2738 978 2506 
Q 725 2200 725 1697 
Q 725 1184 976 792 
Q 1228 400 1656 400 
Q 1963 400 2206 609 
Q 2378 753 2541 1131 
L 2631 1088 
z
" transform="scale(0.015625)"/>
       <path id="TimesNewRomanPSMT-6f" d="M 1600 2947 
Q 2250 2947 2644 2453 
Q 2978 2031 2978 1484 
Q 2978 1100 2793 706 
Q 2609 313 2286 112 
Q 1963 -88 1566 -88 
Q 919 -88 538 428 
Q 216 863 216 1403 
Q 216 1797 411 2186 
Q 606 2575 925 2761 
Q 1244 2947 1600 2947 
z
M 1503 2744 
Q 1338 2744 1170 2645 
Q 1003 2547 900 2300 
Q 797 2053 797 1666 
Q 797 1041 1045 587 
Q 1294 134 1700 134 
Q 2003 134 2200 384 
Q 2397 634 2397 1244 
Q 2397 2006 2069 2444 
Q 1847 2744 1503 2744 
z
" transform="scale(0.015625)"/>
       <path id="TimesNewRomanPSMT-73" d="M 2050 2947 
L 2050 1972 
L 1947 1972 
Q 1828 2431 1642 2597 
Q 1456 2763 1169 2763 
Q 950 2763 815 2647 
Q 681 2531 681 2391 
Q 681 2216 781 2091 
Q 878 1963 1175 1819 
L 1631 1597 
Q 2266 1288 2266 781 
Q 2266 391 1970 151 
Q 1675 -88 1309 -88 
Q 1047 -88 709 6 
Q 606 38 541 38 
Q 469 38 428 -44 
L 325 -44 
L 325 978 
L 428 978 
Q 516 541 762 319 
Q 1009 97 1316 97 
Q 1531 97 1667 223 
Q 1803 350 1803 528 
Q 1803 744 1651 891 
Q 1500 1038 1047 1263 
Q 594 1488 453 1669 
Q 313 1847 313 2119 
Q 313 2472 555 2709 
Q 797 2947 1181 2947 
Q 1350 2947 1591 2875 
Q 1750 2828 1803 2828 
Q 1853 2828 1881 2850 
Q 1909 2872 1947 2947 
L 2050 2947 
z
" transform="scale(0.015625)"/>
       <path id="TimesNewRomanPSMT-28" d="M 1988 -1253 
L 1988 -1369 
Q 1516 -1131 1200 -813 
Q 750 -359 506 256 
Q 263 872 263 1534 
Q 263 2503 741 3301 
Q 1219 4100 1988 4444 
L 1988 4313 
Q 1603 4100 1356 3731 
Q 1109 3363 987 2797 
Q 866 2231 866 1616 
Q 866 947 969 400 
Q 1050 -31 1165 -292 
Q 1281 -553 1476 -793 
Q 1672 -1034 1988 -1253 
z
" transform="scale(0.015625)"/>
       <path id="TimesNewRomanPSMT-24" d="M 338 1044 
L 475 1044 
Q 509 616 743 387 
Q 978 159 1444 116 
L 1444 1941 
Q 741 2375 506 2709 
Q 341 2947 341 3288 
Q 341 3672 627 3959 
Q 913 4247 1444 4306 
L 1444 4594 
L 1644 4594 
L 1644 4306 
Q 1900 4291 2075 4247 
Q 2166 4225 2675 4031 
L 2675 3097 
L 2553 3097 
Q 2513 3594 2295 3823 
Q 2078 4053 1644 4097 
L 1644 2509 
Q 2431 1959 2654 1698 
Q 2878 1438 2878 1050 
Q 2878 619 2551 290 
Q 2225 -38 1644 -88 
L 1644 -488 
L 1444 -488 
L 1444 -88 
Q 1150 -75 897 -20 
Q 644 34 338 159 
L 338 1044 
z
M 1444 2641 
L 1444 4094 
Q 1131 4056 979 3895 
Q 828 3734 828 3491 
Q 828 3263 965 3064 
Q 1103 2866 1444 2641 
z
M 1644 116 
Q 1878 156 2003 231 
Q 2178 341 2279 517 
Q 2381 694 2381 894 
Q 2381 1100 2257 1284 
Q 2134 1469 1644 1806 
L 1644 116 
z
" transform="scale(0.015625)"/>
       <path id="TimesNewRomanPSMT-70" d="M -6 2578 
L 875 2934 
L 994 2934 
L 994 2266 
Q 1216 2644 1439 2795 
Q 1663 2947 1909 2947 
Q 2341 2947 2628 2609 
Q 2981 2197 2981 1534 
Q 2981 794 2556 309 
Q 2206 -88 1675 -88 
Q 1444 -88 1275 -22 
Q 1150 25 994 166 
L 994 -706 
Q 994 -1000 1030 -1079 
Q 1066 -1159 1155 -1206 
Q 1244 -1253 1478 -1253 
L 1478 -1369 
L -22 -1369 
L -22 -1253 
L 56 -1253 
Q 228 -1256 350 -1188 
Q 409 -1153 442 -1076 
Q 475 -1000 475 -688 
L 475 2019 
Q 475 2297 450 2372 
Q 425 2447 370 2484 
Q 316 2522 222 2522 
Q 147 2522 31 2478 
L -6 2578 
z
M 994 2081 
L 994 1013 
Q 994 666 1022 556 
Q 1066 375 1236 237 
Q 1406 100 1666 100 
Q 1978 100 2172 344 
Q 2425 663 2425 1241 
Q 2425 1897 2138 2250 
Q 1938 2494 1663 2494 
Q 1513 2494 1366 2419 
Q 1253 2363 994 2081 
z
" transform="scale(0.015625)"/>
       <path id="TimesNewRomanPSMT-75" d="M 2709 2863 
L 2709 1128 
Q 2709 631 2732 520 
Q 2756 409 2807 365 
Q 2859 322 2928 322 
Q 3025 322 3147 375 
L 3191 266 
L 2334 -88 
L 2194 -88 
L 2194 519 
Q 1825 119 1631 15 
Q 1438 -88 1222 -88 
Q 981 -88 804 51 
Q 628 191 559 409 
Q 491 628 491 1028 
L 491 2306 
Q 491 2509 447 2587 
Q 403 2666 317 2708 
Q 231 2750 6 2747 
L 6 2863 
L 1009 2863 
L 1009 947 
Q 1009 547 1148 422 
Q 1288 297 1484 297 
Q 1619 297 1789 381 
Q 1959 466 2194 703 
L 2194 2325 
Q 2194 2569 2105 2655 
Q 2016 2741 1734 2747 
L 1734 2863 
L 2709 2863 
z
" transform="scale(0.015625)"/>
       <path id="TimesNewRomanPSMT-29" d="M 144 4313 
L 144 4444 
Q 619 4209 934 3891 
Q 1381 3434 1625 2820 
Q 1869 2206 1869 1541 
Q 1869 572 1392 -226 
Q 916 -1025 144 -1369 
L 144 -1253 
Q 528 -1038 776 -670 
Q 1025 -303 1145 264 
Q 1266 831 1266 1447 
Q 1266 2113 1163 2663 
Q 1084 3094 967 3353 
Q 850 3613 656 3853 
Q 463 4094 144 4313 
z
" transform="scale(0.015625)"/>
      </defs>
      <use xlink:href="#TimesNewRomanPSMT-49"/>
      <use xlink:href="#TimesNewRomanPSMT-6e" transform="translate(33.300781 0)"/>
      <use xlink:href="#TimesNewRomanPSMT-67" transform="translate(83.300781 0)"/>
      <use xlink:href="#TimesNewRomanPSMT-72" transform="translate(133.300781 0)"/>
      <use xlink:href="#TimesNewRomanPSMT-65" transform="translate(166.601562 0)"/>
      <use xlink:href="#TimesNewRomanPSMT-64" transform="translate(210.986328 0)"/>
      <use xlink:href="#TimesNewRomanPSMT-69" transform="translate(260.986328 0)"/>
      <use xlink:href="#TimesNewRomanPSMT-65" transform="translate(288.769531 0)"/>
      <use xlink:href="#TimesNewRomanPSMT-6e" transform="translate(333.154297 0)"/>
      <use xlink:href="#TimesNewRomanPSMT-74" transform="translate(383.154297 0)"/>
      <use xlink:href="#TimesNewRomanPSMT-20" transform="translate(410.9375 0)"/>
      <use xlink:href="#TimesNewRomanPSMT-63" transform="translate(435.9375 0)"/>
      <use xlink:href="#TimesNewRomanPSMT-6f" transform="translate(480.322266 0)"/>
      <use xlink:href="#TimesNewRomanPSMT-73" transform="translate(530.322266 0)"/>
      <use xlink:href="#TimesNewRomanPSMT-74" transform="translate(569.238281 0)"/>
      <use xlink:href="#TimesNewRomanPSMT-20" transform="translate(597.021484 0)"/>
      <use xlink:href="#TimesNewRomanPSMT-28" transform="translate(622.021484 0)"/>
      <use xlink:href="#TimesNewRomanPSMT-24" transform="translate(655.322266 0)"/>
      <use xlink:href="#TimesNewRomanPSMT-20" transform="translate(705.322266 0)"/>
      <use xlink:href="#TimesNewRomanPSMT-70" transform="translate(730.322266 0)"/>
      <use xlink:href="#TimesNewRomanPSMT-65" transform="translate(780.322266 0)"/>
      <use xlink:href="#TimesNewRomanPSMT-72" transform="translate(824.707031 0)"/>
      <use xlink:href="#TimesNewRomanPSMT-20" transform="translate(858.007812 0)"/>
      <use xlink:href="#TimesNewRomanPSMT-75" transform="translate(883.007812 0)"/>
      <use xlink:href="#TimesNewRomanPSMT-6e" transform="translate(933.007812 0)"/>
      <use xlink:href="#TimesNewRomanPSMT-69" transform="translate(983.007812 0)"/>
      <use xlink:href="#TimesNewRomanPSMT-74" transform="translate(1010.791016 0)"/>
      <use xlink:href="#TimesNewRomanPSMT-29" transform="translate(1038.574219 0)"/>
     </g>
    </g>
   </g>
   <g id="matplotlib.axis_2">
    <g id="ytick_1">
     <g id="line2d_6">
      <defs>
       <path id="m66340ce209" d="M 0 0 
L -3.5 0 
" style="stroke: #000000"/>
      </defs>
      <g>
       <use xlink:href="#m66340ce209" x="46.94375" y="462.317952" style="stroke: #000000"/>
      </g>
     </g>
     <g id="text_7">
      <!-- 0 -->
      <g transform="translate(33.94375 466.484202) scale(0.12 -0.12)">
       <use xlink:href="#TimesNewRomanPSMT-30"/>
      </g>
     </g>
    </g>
    <g id="ytick_2">
     <g id="line2d_7">
      <g>
       <use xlink:href="#m66340ce209" x="46.94375" y="399.817606" style="stroke: #000000"/>
      </g>
     </g>
     <g id="text_8">
      <!-- 10 -->
      <g transform="translate(27.94375 403.983856) scale(0.12 -0.12)">
       <use xlink:href="#TimesNewRomanPSMT-31"/>
       <use xlink:href="#TimesNewRomanPSMT-30" transform="translate(50 0)"/>
      </g>
     </g>
    </g>
    <g id="ytick_3">
     <g id="line2d_8">
      <g>
       <use xlink:href="#m66340ce209" x="46.94375" y="337.317261" style="stroke: #000000"/>
      </g>
     </g>
     <g id="text_9">
      <!-- 20 -->
      <g transform="translate(27.94375 341.483511) scale(0.12 -0.12)">
       <use xlink:href="#TimesNewRomanPSMT-32"/>
       <use xlink:href="#TimesNewRomanPSMT-30" transform="translate(50 0)"/>
      </g>
     </g>
    </g>
    <g id="ytick_4">
     <g id="line2d_9">
      <g>
       <use xlink:href="#m66340ce209" x="46.94375" y="274.816915" style="stroke: #000000"/>
      </g>
     </g>
     <g id="text_10">
      <!-- 30 -->
      <g transform="translate(27.94375 278.983165) scale(0.12 -0.12)">
       <defs>
        <path id="TimesNewRomanPSMT-33" d="M 325 3431 
Q 506 3859 782 4092 
Q 1059 4325 1472 4325 
Q 1981 4325 2253 3994 
Q 2459 3747 2459 3466 
Q 2459 3003 1878 2509 
Q 2269 2356 2469 2072 
Q 2669 1788 2669 1403 
Q 2669 853 2319 450 
Q 1863 -75 997 -75 
Q 569 -75 414 31 
Q 259 138 259 259 
Q 259 350 332 419 
Q 406 488 509 488 
Q 588 488 669 463 
Q 722 447 909 348 
Q 1097 250 1169 231 
Q 1284 197 1416 197 
Q 1734 197 1970 444 
Q 2206 691 2206 1028 
Q 2206 1275 2097 1509 
Q 2016 1684 1919 1775 
Q 1784 1900 1550 2001 
Q 1316 2103 1072 2103 
L 972 2103 
L 972 2197 
Q 1219 2228 1467 2375 
Q 1716 2522 1828 2728 
Q 1941 2934 1941 3181 
Q 1941 3503 1739 3701 
Q 1538 3900 1238 3900 
Q 753 3900 428 3381 
L 325 3431 
z
" transform="scale(0.015625)"/>
       </defs>
       <use xlink:href="#TimesNewRomanPSMT-33"/>
       <use xlink:href="#TimesNewRomanPSMT-30" transform="translate(50 0)"/>
      </g>
     </g>
    </g>
    <g id="ytick_5">
     <g id="line2d_10">
      <g>
       <use xlink:href="#m66340ce209" x="46.94375" y="212.316569" style="stroke: #000000"/>
      </g>
     </g>
     <g id="text_11">
      <!-- 40 -->
      <g transform="translate(27.94375 216.482819) scale(0.12 -0.12)">
       <use xlink:href="#TimesNewRomanPSMT-34"/>
       <use xlink:href="#TimesNewRomanPSMT-30" transform="translate(50 0)"/>
      </g>
     </g>
    </g>
    <g id="ytick_6">
     <g id="line2d_11">
      <g>
       <use xlink:href="#m66340ce209" x="46.94375" y="149.816224" style="stroke: #000000"/>
      </g>
     </g>
     <g id="text_12">
      <!-- 50 -->
      <g transform="translate(27.94375 153.982474) scale(0.12 -0.12)">
       <defs>
        <path id="TimesNewRomanPSMT-35" d="M 2778 4238 
L 2534 3706 
L 1259 3706 
L 981 3138 
Q 1809 3016 2294 2522 
Q 2709 2097 2709 1522 
Q 2709 1188 2573 903 
Q 2438 619 2231 419 
Q 2025 219 1772 97 
Q 1413 -75 1034 -75 
Q 653 -75 479 54 
Q 306 184 306 341 
Q 306 428 378 495 
Q 450 563 559 563 
Q 641 563 702 538 
Q 763 513 909 409 
Q 1144 247 1384 247 
Q 1750 247 2026 523 
Q 2303 800 2303 1197 
Q 2303 1581 2056 1914 
Q 1809 2247 1375 2428 
Q 1034 2569 447 2591 
L 1259 4238 
L 2778 4238 
z
" transform="scale(0.015625)"/>
       </defs>
       <use xlink:href="#TimesNewRomanPSMT-35"/>
       <use xlink:href="#TimesNewRomanPSMT-30" transform="translate(50 0)"/>
      </g>
     </g>
    </g>
    <g id="ytick_7">
     <g id="line2d_12">
      <g>
       <use xlink:href="#m66340ce209" x="46.94375" y="87.315878" style="stroke: #000000"/>
      </g>
     </g>
     <g id="text_13">
      <!-- 60 -->
      <g transform="translate(27.94375 91.482128) scale(0.12 -0.12)">
       <use xlink:href="#TimesNewRomanPSMT-36"/>
       <use xlink:href="#TimesNewRomanPSMT-30" transform="translate(50 0)"/>
      </g>
     </g>
    </g>
    <g id="text_14">
     <!-- Profit margin (%) -->
     <g transform="translate(20.922812 317.239063) rotate(-90) scale(0.14 -0.14)">
      <defs>
       <path id="TimesNewRomanPSMT-50" d="M 1313 1984 
L 1313 750 
Q 1313 350 1400 253 
Q 1519 116 1759 116 
L 1922 116 
L 1922 0 
L 106 0 
L 106 116 
L 266 116 
Q 534 116 650 291 
Q 713 388 713 750 
L 713 3488 
Q 713 3888 628 3984 
Q 506 4122 266 4122 
L 106 4122 
L 106 4238 
L 1659 4238 
Q 2228 4238 2556 4120 
Q 2884 4003 3109 3725 
Q 3334 3447 3334 3066 
Q 3334 2547 2992 2222 
Q 2650 1897 2025 1897 
Q 1872 1897 1694 1919 
Q 1516 1941 1313 1984 
z
M 1313 2163 
Q 1478 2131 1606 2115 
Q 1734 2100 1825 2100 
Q 2150 2100 2386 2351 
Q 2622 2603 2622 3003 
Q 2622 3278 2509 3514 
Q 2397 3750 2190 3867 
Q 1984 3984 1722 3984 
Q 1563 3984 1313 3925 
L 1313 2163 
z
" transform="scale(0.015625)"/>
       <path id="TimesNewRomanPSMT-66" d="M 1319 2638 
L 1319 756 
Q 1319 356 1406 250 
Q 1522 113 1716 113 
L 1975 113 
L 1975 0 
L 266 0 
L 266 113 
L 394 113 
Q 519 113 622 175 
Q 725 238 764 344 
Q 803 450 803 756 
L 803 2638 
L 247 2638 
L 247 2863 
L 803 2863 
L 803 3050 
Q 803 3478 940 3775 
Q 1078 4072 1361 4255 
Q 1644 4438 1997 4438 
Q 2325 4438 2600 4225 
Q 2781 4084 2781 3909 
Q 2781 3816 2700 3733 
Q 2619 3650 2525 3650 
Q 2453 3650 2373 3701 
Q 2294 3753 2178 3923 
Q 2063 4094 1966 4153 
Q 1869 4213 1750 4213 
Q 1606 4213 1506 4136 
Q 1406 4059 1362 3898 
Q 1319 3738 1319 3069 
L 1319 2863 
L 2056 2863 
L 2056 2638 
L 1319 2638 
z
" transform="scale(0.015625)"/>
       <path id="TimesNewRomanPSMT-6d" d="M 1050 2338 
Q 1363 2650 1419 2697 
Q 1559 2816 1721 2881 
Q 1884 2947 2044 2947 
Q 2313 2947 2506 2790 
Q 2700 2634 2766 2338 
Q 3088 2713 3309 2830 
Q 3531 2947 3766 2947 
Q 3994 2947 4170 2830 
Q 4347 2713 4450 2447 
Q 4519 2266 4519 1878 
L 4519 647 
Q 4519 378 4559 278 
Q 4591 209 4675 161 
Q 4759 113 4950 113 
L 4950 0 
L 3538 0 
L 3538 113 
L 3597 113 
Q 3781 113 3884 184 
Q 3956 234 3988 344 
Q 4000 397 4000 647 
L 4000 1878 
Q 4000 2228 3916 2372 
Q 3794 2572 3525 2572 
Q 3359 2572 3192 2489 
Q 3025 2406 2788 2181 
L 2781 2147 
L 2788 2013 
L 2788 647 
Q 2788 353 2820 281 
Q 2853 209 2943 161 
Q 3034 113 3253 113 
L 3253 0 
L 1806 0 
L 1806 113 
Q 2044 113 2133 169 
Q 2222 225 2256 338 
Q 2272 391 2272 647 
L 2272 1878 
Q 2272 2228 2169 2381 
Q 2031 2581 1784 2581 
Q 1616 2581 1450 2491 
Q 1191 2353 1050 2181 
L 1050 647 
Q 1050 366 1089 281 
Q 1128 197 1204 155 
Q 1281 113 1516 113 
L 1516 0 
L 100 0 
L 100 113 
Q 297 113 375 155 
Q 453 197 493 289 
Q 534 381 534 647 
L 534 1741 
Q 534 2213 506 2350 
Q 484 2453 437 2492 
Q 391 2531 309 2531 
Q 222 2531 100 2484 
L 53 2597 
L 916 2947 
L 1050 2947 
L 1050 2338 
z
" transform="scale(0.015625)"/>
       <path id="TimesNewRomanPSMT-61" d="M 1822 413 
Q 1381 72 1269 19 
Q 1100 -59 909 -59 
Q 613 -59 420 144 
Q 228 347 228 678 
Q 228 888 322 1041 
Q 450 1253 767 1440 
Q 1084 1628 1822 1897 
L 1822 2009 
Q 1822 2438 1686 2597 
Q 1550 2756 1291 2756 
Q 1094 2756 978 2650 
Q 859 2544 859 2406 
L 866 2225 
Q 866 2081 792 2003 
Q 719 1925 600 1925 
Q 484 1925 411 2006 
Q 338 2088 338 2228 
Q 338 2497 613 2722 
Q 888 2947 1384 2947 
Q 1766 2947 2009 2819 
Q 2194 2722 2281 2516 
Q 2338 2381 2338 1966 
L 2338 994 
Q 2338 584 2353 492 
Q 2369 400 2405 369 
Q 2441 338 2488 338 
Q 2538 338 2575 359 
Q 2641 400 2828 588 
L 2828 413 
Q 2478 -56 2159 -56 
Q 2006 -56 1915 50 
Q 1825 156 1822 413 
z
M 1822 616 
L 1822 1706 
Q 1350 1519 1213 1441 
Q 966 1303 859 1153 
Q 753 1003 753 825 
Q 753 600 887 451 
Q 1022 303 1197 303 
Q 1434 303 1822 616 
z
" transform="scale(0.015625)"/>
       <path id="TimesNewRomanPSMT-25" d="M 4350 4334 
L 1263 -175 
L 984 -175 
L 4072 4334 
L 4350 4334 
z
M 1138 4334 
Q 1559 4334 1792 3984 
Q 2025 3634 2025 3181 
Q 2025 2638 1762 2341 
Q 1500 2044 1131 2044 
Q 884 2044 678 2180 
Q 472 2316 348 2584 
Q 225 2853 225 3181 
Q 225 3509 350 3786 
Q 475 4063 692 4198 
Q 909 4334 1138 4334 
z
M 1128 4159 
Q 969 4159 845 3971 
Q 722 3784 722 3184 
Q 722 2750 791 2522 
Q 844 2350 956 2256 
Q 1022 2200 1119 2200 
Q 1269 2200 1375 2363 
Q 1531 2603 1531 3166 
Q 1531 3759 1378 4000 
Q 1278 4159 1128 4159 
z
M 4206 2103 
Q 4428 2103 4648 1962 
Q 4869 1822 4989 1553 
Q 5109 1284 5109 963 
Q 5109 409 4843 117 
Q 4578 -175 4216 -175 
Q 3988 -175 3773 -34 
Q 3559 106 3436 367 
Q 3313 628 3313 963 
Q 3313 1291 3436 1562 
Q 3559 1834 3773 1968 
Q 3988 2103 4206 2103 
z
M 4209 1938 
Q 4059 1938 3950 1769 
Q 3809 1550 3809 941 
Q 3809 381 3953 159 
Q 4059 0 4209 0 
Q 4353 0 4466 172 
Q 4616 400 4616 956 
Q 4616 1544 4466 1778 
Q 4363 1938 4209 1938 
z
" transform="scale(0.015625)"/>
      </defs>
      <use xlink:href="#TimesNewRomanPSMT-50"/>
      <use xlink:href="#TimesNewRomanPSMT-72" transform="translate(55.615234 0)"/>
      <use xlink:href="#TimesNewRomanPSMT-6f" transform="translate(88.916016 0)"/>
      <use xlink:href="#TimesNewRomanPSMT-66" transform="translate(138.916016 0)"/>
      <use xlink:href="#TimesNewRomanPSMT-69" transform="translate(172.216797 0)"/>
      <use xlink:href="#TimesNewRomanPSMT-74" transform="translate(200 0)"/>
      <use xlink:href="#TimesNewRomanPSMT-20" transform="translate(227.783203 0)"/>
      <use xlink:href="#TimesNewRomanPSMT-6d" transform="translate(252.783203 0)"/>
      <use xlink:href="#TimesNewRomanPSMT-61" transform="translate(330.566406 0)"/>
      <use xlink:href="#TimesNewRomanPSMT-72" transform="translate(374.951172 0)"/>
      <use xlink:href="#TimesNewRomanPSMT-67" transform="translate(406.501953 0)"/>
      <use xlink:href="#TimesNewRomanPSMT-69" transform="translate(456.501953 0)"/>
      <use xlink:href="#TimesNewRomanPSMT-6e" transform="translate(484.285156 0)"/>
      <use xlink:href="#TimesNewRomanPSMT-20" transform="translate(534.285156 0)"/>
      <use xlink:href="#TimesNewRomanPSMT-28" transform="translate(559.285156 0)"/>
      <use xlink:href="#TimesNewRomanPSMT-25" transform="translate(592.585938 0)"/>
      <use xlink:href="#TimesNewRomanPSMT-29" transform="translate(675.886719 0)"/>
     </g>
    </g>
   </g>
   <g id="patch_3">
    <path d="M 46.94375 493.59625 
L 46.94375 41.6 
" style="fill: none; stroke: #000000; stroke-linejoin: miter; stroke-linecap: square"/>
   </g>
   <g id="patch_4">
    <path d="M 46.94375 493.59625 
L 548.1 493.59625 
" style="fill: none; stroke: #000000; stroke-linejoin: miter; stroke-linecap: square"/>
   </g>
   <g id="text_15">
    <!-- 7 -->
    <g transform="translate(353.247204 393.860688) scale(0.08 -0.08)">
     <defs>
      <path id="TimesNewRomanPS-BoldMT-37" d="M 1134 -88 
L 2288 3409 
L 1409 3409 
Q 894 3409 634 3275 
Q 453 3181 334 2922 
L 216 2922 
L 522 4238 
L 3047 4238 
L 1625 -88 
L 1134 -88 
z
" transform="scale(0.015625)"/>
     </defs>
     <use xlink:href="#TimesNewRomanPS-BoldMT-37"/>
    </g>
   </g>
   <g id="text_16">
    <!-- 6.18 -->
    <g transform="translate(476.748807 381.48562) scale(0.08 -0.08)">
     <defs>
      <path id="TimesNewRomanPS-BoldMT-36" d="M 3006 4325 
L 3006 4238 
Q 2441 4094 2098 3867 
Q 1756 3641 1557 3317 
Q 1359 2994 1250 2516 
Q 1388 2609 1478 2638 
Q 1681 2700 1888 2700 
Q 2363 2700 2680 2354 
Q 2997 2009 2997 1413 
Q 2997 994 2825 644 
Q 2653 294 2337 103 
Q 2022 -88 1663 -88 
Q 1272 -88 940 126 
Q 609 341 423 753 
Q 238 1166 238 1650 
Q 238 2363 580 2977 
Q 922 3591 1551 3955 
Q 2181 4319 3006 4325 
z
M 1209 2263 
Q 1184 1831 1184 1631 
Q 1184 1200 1267 797 
Q 1350 394 1494 231 
Q 1597 116 1738 116 
Q 1881 116 1993 283 
Q 2106 450 2106 963 
Q 2106 1825 1897 2153 
Q 1763 2366 1534 2366 
Q 1409 2366 1209 2263 
z
" transform="scale(0.015625)"/>
      <path id="TimesNewRomanPS-BoldMT-2e" d="M 800 963 
Q 1019 963 1170 809 
Q 1322 656 1322 441 
Q 1322 225 1169 73 
Q 1016 -78 800 -78 
Q 584 -78 432 73 
Q 281 225 281 441 
Q 281 656 432 809 
Q 584 963 800 963 
z
" transform="scale(0.015625)"/>
      <path id="TimesNewRomanPS-BoldMT-31" d="M 2084 4325 
L 2084 859 
Q 2084 469 2118 361 
Q 2153 253 2262 184 
Q 2372 116 2613 116 
L 2709 116 
L 2709 0 
L 478 0 
L 478 116 
L 591 116 
Q 863 116 978 178 
Q 1094 241 1134 350 
Q 1175 459 1175 859 
L 1175 3056 
Q 1175 3350 1147 3423 
Q 1119 3497 1042 3548 
Q 966 3600 866 3600 
Q 706 3600 478 3500 
L 422 3613 
L 1981 4325 
L 2084 4325 
z
" transform="scale(0.015625)"/>
      <path id="TimesNewRomanPS-BoldMT-38" d="M 2181 2394 
Q 2628 2066 2801 1783 
Q 2975 1500 2975 1134 
Q 2975 622 2589 267 
Q 2203 -88 1541 -88 
Q 913 -88 569 221 
Q 225 531 225 978 
Q 225 1319 423 1575 
Q 622 1831 1084 2044 
Q 581 2428 439 2672 
Q 297 2916 297 3238 
Q 297 3663 658 3986 
Q 1019 4309 1647 4309 
Q 2253 4309 2579 4023 
Q 2906 3738 2906 3338 
Q 2906 3038 2729 2808 
Q 2553 2578 2181 2394 
z
M 1944 2553 
Q 2059 2709 2115 2903 
Q 2172 3097 2172 3328 
Q 2172 3734 1997 3950 
Q 1866 4116 1634 4116 
Q 1425 4116 1278 3964 
Q 1131 3813 1131 3588 
Q 1131 3359 1295 3114 
Q 1459 2869 1944 2553 
z
M 1319 1894 
Q 1222 1806 1181 1734 
Q 1119 1625 1069 1415 
Q 1019 1206 1019 978 
Q 1019 684 1094 486 
Q 1169 288 1308 200 
Q 1447 113 1594 113 
Q 1822 113 1978 280 
Q 2134 447 2134 738 
Q 2134 1344 1319 1894 
z
" transform="scale(0.015625)"/>
     </defs>
     <use xlink:href="#TimesNewRomanPS-BoldMT-36"/>
     <use xlink:href="#TimesNewRomanPS-BoldMT-2e" transform="translate(50 0)"/>
     <use xlink:href="#TimesNewRomanPS-BoldMT-31" transform="translate(75 0)"/>
     <use xlink:href="#TimesNewRomanPS-BoldMT-38" transform="translate(125 0)"/>
    </g>
   </g>
   <g id="text_17">
    <!-- 3.69 -->
    <g transform="translate(175.573176 208.734665) scale(0.08 -0.08)">
     <defs>
      <path id="TimesNewRomanPS-BoldMT-33" d="M 947 2125 
L 947 2234 
Q 1303 2338 1440 2427 
Q 1578 2516 1678 2698 
Q 1778 2881 1778 3069 
Q 1778 3328 1589 3514 
Q 1400 3700 1119 3700 
Q 681 3700 375 3238 
L 259 3278 
Q 484 3800 836 4062 
Q 1188 4325 1619 4325 
Q 2059 4325 2345 4056 
Q 2631 3788 2631 3428 
Q 2631 3194 2498 2976 
Q 2366 2759 2081 2594 
Q 2447 2416 2639 2155 
Q 2831 1894 2831 1500 
Q 2831 838 2351 373 
Q 1872 -91 1066 -91 
Q 528 -91 281 88 
Q 103 213 103 409 
Q 103 553 206 654 
Q 309 756 444 756 
Q 547 756 638 713 
Q 688 688 992 439 
Q 1297 191 1563 191 
Q 1794 191 1959 373 
Q 2125 556 2125 838 
Q 2125 1266 1825 1627 
Q 1525 1988 947 2125 
z
" transform="scale(0.015625)"/>
      <path id="TimesNewRomanPS-BoldMT-39" d="M 197 -88 
L 197 0 
Q 716 119 1077 350 
Q 1438 581 1648 922 
Q 1859 1263 1944 1706 
Q 1750 1606 1614 1567 
Q 1478 1528 1328 1528 
Q 847 1528 526 1875 
Q 206 2222 206 2825 
Q 206 3244 379 3592 
Q 553 3941 875 4133 
Q 1197 4325 1544 4325 
Q 1916 4325 2247 4112 
Q 2578 3900 2775 3497 
Q 2972 3094 2972 2578 
Q 2972 1909 2651 1296 
Q 2331 684 1697 314 
Q 1063 -56 197 -88 
z
M 1991 1969 
Q 2022 2319 2022 2584 
Q 2022 3153 1891 3644 
Q 1816 3916 1669 4044 
Q 1591 4113 1466 4113 
Q 1309 4113 1222 3978 
Q 1100 3794 1100 3275 
Q 1100 2409 1306 2081 
Q 1441 1869 1669 1869 
Q 1791 1869 1991 1969 
z
" transform="scale(0.015625)"/>
     </defs>
     <use xlink:href="#TimesNewRomanPS-BoldMT-33"/>
     <use xlink:href="#TimesNewRomanPS-BoldMT-2e" transform="translate(50 0)"/>
     <use xlink:href="#TimesNewRomanPS-BoldMT-36" transform="translate(75 0)"/>
     <use xlink:href="#TimesNewRomanPS-BoldMT-39" transform="translate(125 0)"/>
    </g>
   </g>
   <g id="text_18">
    <!-- 3.48 -->
    <g transform="translate(226.271074 151.484348) scale(0.08 -0.08)">
     <defs>
      <path id="TimesNewRomanPS-BoldMT-34" d="M 159 1597 
L 2172 4325 
L 2553 4325 
L 2553 1597 
L 2941 1597 
L 2941 950 
L 2553 950 
L 2553 0 
L 1694 0 
L 1694 950 
L 159 950 
L 159 1597 
z
M 463 1597 
L 1694 1597 
L 1694 3269 
L 463 1597 
z
" transform="scale(0.015625)"/>
     </defs>
     <use xlink:href="#TimesNewRomanPS-BoldMT-33"/>
     <use xlink:href="#TimesNewRomanPS-BoldMT-2e" transform="translate(50 0)"/>
     <use xlink:href="#TimesNewRomanPS-BoldMT-34" transform="translate(75 0)"/>
     <use xlink:href="#TimesNewRomanPS-BoldMT-38" transform="translate(125 0)"/>
    </g>
   </g>
   <g id="text_19">
    <!-- 3.03 -->
    <g transform="translate(483.274279 285.235088) scale(0.08 -0.08)">
     <defs>
      <path id="TimesNewRomanPS-BoldMT-30" d="M 2966 2119 
Q 2966 1484 2788 934 
Q 2681 597 2501 381 
Q 2322 166 2094 39 
Q 1866 -88 1597 -88 
Q 1291 -88 1044 68 
Q 797 225 606 516 
Q 469 728 366 1081 
Q 231 1559 231 2069 
Q 231 2759 425 3338 
Q 584 3816 909 4070 
Q 1234 4325 1597 4325 
Q 1966 4325 2286 4073 
Q 2606 3822 2756 3397 
Q 2966 2813 2966 2119 
z
M 2003 2125 
Q 2003 3238 1991 3422 
Q 1959 3856 1841 4009 
Q 1763 4109 1588 4109 
Q 1453 4109 1375 4034 
Q 1259 3925 1218 3648 
Q 1178 3372 1178 1719 
Q 1178 819 1241 513 
Q 1288 291 1375 216 
Q 1463 141 1606 141 
Q 1763 141 1841 241 
Q 1972 416 1991 781 
L 2003 2125 
z
" transform="scale(0.015625)"/>
     </defs>
     <use xlink:href="#TimesNewRomanPS-BoldMT-33"/>
     <use xlink:href="#TimesNewRomanPS-BoldMT-2e" transform="translate(50 0)"/>
     <use xlink:href="#TimesNewRomanPS-BoldMT-30" transform="translate(75 0)"/>
     <use xlink:href="#TimesNewRomanPS-BoldMT-33" transform="translate(125 0)"/>
    </g>
   </g>
   <g id="text_20">
    <!-- 2.56 -->
    <g transform="translate(276.968972 124.921701) scale(0.08 -0.08)">
     <defs>
      <path id="TimesNewRomanPS-BoldMT-32" d="M 2650 0 
L 156 0 
L 156 69 
Q 1303 1434 1548 1906 
Q 1794 2378 1794 2828 
Q 1794 3156 1591 3373 
Q 1388 3591 1094 3591 
Q 613 3591 347 3109 
L 231 3150 
Q 400 3750 744 4037 
Q 1088 4325 1538 4325 
Q 1859 4325 2125 4175 
Q 2391 4025 2541 3764 
Q 2691 3503 2691 3275 
Q 2691 2859 2459 2431 
Q 2144 1853 1081 819 
L 1997 819 
Q 2334 819 2436 847 
Q 2538 875 2603 942 
Q 2669 1009 2775 1225 
L 2888 1225 
L 2650 0 
z
" transform="scale(0.015625)"/>
      <path id="TimesNewRomanPS-BoldMT-35" d="M 975 4238 
L 2959 4238 
L 2644 3431 
L 975 3431 
L 816 3009 
Q 1894 2969 2475 2472 
Q 2953 2063 2953 1453 
Q 2953 1063 2731 689 
Q 2509 316 2106 114 
Q 1703 -88 1222 -88 
Q 703 -88 425 106 
Q 231 244 231 419 
Q 231 553 332 656 
Q 434 759 569 759 
Q 691 759 816 709 
Q 941 659 1244 447 
Q 1434 316 1572 266 
Q 1669 228 1791 228 
Q 2047 228 2226 415 
Q 2406 603 2406 866 
Q 2406 1416 1856 1759 
Q 1306 2103 469 2103 
Q 384 2103 216 2100 
L 975 4238 
z
" transform="scale(0.015625)"/>
     </defs>
     <use xlink:href="#TimesNewRomanPS-BoldMT-32"/>
     <use xlink:href="#TimesNewRomanPS-BoldMT-2e" transform="translate(50 0)"/>
     <use xlink:href="#TimesNewRomanPS-BoldMT-35" transform="translate(75 0)"/>
     <use xlink:href="#TimesNewRomanPS-BoldMT-36" transform="translate(125 0)"/>
    </g>
   </g>
   <g id="text_21">
    <!-- 2.42 -->
    <g transform="translate(97.769471 172.109462) scale(0.08 -0.08)">
     <use xlink:href="#TimesNewRomanPS-BoldMT-32"/>
     <use xlink:href="#TimesNewRomanPS-BoldMT-2e" transform="translate(50 0)"/>
     <use xlink:href="#TimesNewRomanPS-BoldMT-34" transform="translate(75 0)"/>
     <use xlink:href="#TimesNewRomanPS-BoldMT-32" transform="translate(125 0)"/>
    </g>
   </g>
   <g id="text_22">
    <!-- 2.18 -->
    <g transform="translate(278.976809 187.609548) scale(0.08 -0.08)">
     <use xlink:href="#TimesNewRomanPS-BoldMT-32"/>
     <use xlink:href="#TimesNewRomanPS-BoldMT-2e" transform="translate(50 0)"/>
     <use xlink:href="#TimesNewRomanPS-BoldMT-31" transform="translate(75 0)"/>
     <use xlink:href="#TimesNewRomanPS-BoldMT-38" transform="translate(125 0)"/>
    </g>
   </g>
   <g id="text_23">
    <!-- 2.09 -->
    <g transform="translate(148.467369 210.234673) scale(0.08 -0.08)">
     <use xlink:href="#TimesNewRomanPS-BoldMT-32"/>
     <use xlink:href="#TimesNewRomanPS-BoldMT-2e" transform="translate(50 0)"/>
     <use xlink:href="#TimesNewRomanPS-BoldMT-30" transform="translate(75 0)"/>
     <use xlink:href="#TimesNewRomanPS-BoldMT-39" transform="translate(125 0)"/>
    </g>
   </g>
   <g id="text_24">
    <!-- 1.96 -->
    <g transform="translate(393.423549 95.546538) scale(0.08 -0.08)">
     <use xlink:href="#TimesNewRomanPS-BoldMT-31"/>
     <use xlink:href="#TimesNewRomanPS-BoldMT-2e" transform="translate(50 0)"/>
     <use xlink:href="#TimesNewRomanPS-BoldMT-39" transform="translate(75 0)"/>
     <use xlink:href="#TimesNewRomanPS-BoldMT-36" transform="translate(125 0)"/>
    </g>
   </g>
   <g id="text_25">
    <!-- 1.95 -->
    <g transform="translate(161.518313 391.173174) scale(0.08 -0.08)">
     <use xlink:href="#TimesNewRomanPS-BoldMT-31"/>
     <use xlink:href="#TimesNewRomanPS-BoldMT-2e" transform="translate(50 0)"/>
     <use xlink:href="#TimesNewRomanPS-BoldMT-39" transform="translate(75 0)"/>
     <use xlink:href="#TimesNewRomanPS-BoldMT-35" transform="translate(125 0)"/>
    </g>
   </g>
   <g id="text_26">
    <!-- 1.8 -->
    <g transform="translate(160.506557 443.235962) scale(0.08 -0.08)">
     <use xlink:href="#TimesNewRomanPS-BoldMT-31"/>
     <use xlink:href="#TimesNewRomanPS-BoldMT-2e" transform="translate(50 0)"/>
     <use xlink:href="#TimesNewRomanPS-BoldMT-38" transform="translate(75 0)"/>
    </g>
   </g>
   <g id="text_27">
    <!-- 1.4 -->
    <g transform="translate(107.800821 191.547069) scale(0.08 -0.08)">
     <use xlink:href="#TimesNewRomanPS-BoldMT-31"/>
     <use xlink:href="#TimesNewRomanPS-BoldMT-2e" transform="translate(50 0)"/>
     <use xlink:href="#TimesNewRomanPS-BoldMT-34" transform="translate(75 0)"/>
    </g>
   </g>
   <g id="text_28">
    <!-- 1.22 -->
    <g transform="translate(247.855327 250.172394) scale(0.08 -0.08)">
     <use xlink:href="#TimesNewRomanPS-BoldMT-31"/>
     <use xlink:href="#TimesNewRomanPS-BoldMT-2e" transform="translate(50 0)"/>
     <use xlink:href="#TimesNewRomanPS-BoldMT-32" transform="translate(75 0)"/>
     <use xlink:href="#TimesNewRomanPS-BoldMT-32" transform="translate(125 0)"/>
    </g>
   </g>
   <g id="text_29">
    <!-- 1 -->
    <g transform="translate(304.055185 240.797342) scale(0.08 -0.08)">
     <use xlink:href="#TimesNewRomanPS-BoldMT-31"/>
    </g>
   </g>
   <g id="text_30">
    <!-- the Analysis of Food and Beverage Industry -->
    <g transform="translate(156.654375 21.6) scale(0.16 -0.16)">
     <defs>
      <path id="TimesNewRomanPSMT-68" d="M 1041 4444 
L 1041 2350 
Q 1388 2731 1591 2839 
Q 1794 2947 1997 2947 
Q 2241 2947 2416 2812 
Q 2591 2678 2675 2391 
Q 2734 2191 2734 1659 
L 2734 647 
Q 2734 375 2778 275 
Q 2809 200 2884 156 
Q 2959 113 3159 113 
L 3159 0 
L 1753 0 
L 1753 113 
L 1819 113 
Q 2019 113 2097 173 
Q 2175 234 2206 353 
Q 2216 403 2216 647 
L 2216 1659 
Q 2216 2128 2167 2275 
Q 2119 2422 2012 2495 
Q 1906 2569 1756 2569 
Q 1603 2569 1437 2487 
Q 1272 2406 1041 2159 
L 1041 647 
Q 1041 353 1073 281 
Q 1106 209 1195 161 
Q 1284 113 1503 113 
L 1503 0 
L 84 0 
L 84 113 
Q 275 113 384 172 
Q 447 203 484 290 
Q 522 378 522 647 
L 522 3238 
Q 522 3728 498 3840 
Q 475 3953 426 3993 
Q 378 4034 297 4034 
Q 231 4034 84 3984 
L 41 4094 
L 897 4444 
L 1041 4444 
z
" transform="scale(0.015625)"/>
      <path id="TimesNewRomanPSMT-41" d="M 2928 1419 
L 1288 1419 
L 1000 750 
Q 894 503 894 381 
Q 894 284 986 211 
Q 1078 138 1384 116 
L 1384 0 
L 50 0 
L 50 116 
Q 316 163 394 238 
Q 553 388 747 847 
L 2238 4334 
L 2347 4334 
L 3822 809 
Q 4000 384 4145 257 
Q 4291 131 4550 116 
L 4550 0 
L 2878 0 
L 2878 116 
Q 3131 128 3220 200 
Q 3309 272 3309 375 
Q 3309 513 3184 809 
L 2928 1419 
z
M 2841 1650 
L 2122 3363 
L 1384 1650 
L 2841 1650 
z
" transform="scale(0.015625)"/>
      <path id="TimesNewRomanPSMT-6c" d="M 1184 4444 
L 1184 647 
Q 1184 378 1223 290 
Q 1263 203 1344 158 
Q 1425 113 1647 113 
L 1647 0 
L 244 0 
L 244 113 
Q 441 113 512 153 
Q 584 194 625 287 
Q 666 381 666 647 
L 666 3247 
Q 666 3731 644 3842 
Q 622 3953 573 3993 
Q 525 4034 450 4034 
Q 369 4034 244 3984 
L 191 4094 
L 1044 4444 
L 1184 4444 
z
" transform="scale(0.015625)"/>
      <path id="TimesNewRomanPSMT-79" d="M 38 2863 
L 1372 2863 
L 1372 2747 
L 1306 2747 
Q 1166 2747 1095 2686 
Q 1025 2625 1025 2534 
Q 1025 2413 1128 2197 
L 1825 753 
L 2466 2334 
Q 2519 2463 2519 2588 
Q 2519 2644 2497 2672 
Q 2472 2706 2419 2726 
Q 2366 2747 2231 2747 
L 2231 2863 
L 3163 2863 
L 3163 2747 
Q 3047 2734 2984 2696 
Q 2922 2659 2847 2556 
Q 2819 2513 2741 2316 
L 1575 -541 
Q 1406 -956 1132 -1168 
Q 859 -1381 606 -1381 
Q 422 -1381 303 -1275 
Q 184 -1169 184 -1031 
Q 184 -900 270 -820 
Q 356 -741 506 -741 
Q 609 -741 788 -809 
Q 913 -856 944 -856 
Q 1038 -856 1148 -759 
Q 1259 -663 1372 -384 
L 1575 113 
L 547 2272 
Q 500 2369 397 2513 
Q 319 2622 269 2659 
Q 197 2709 38 2747 
L 38 2863 
z
" transform="scale(0.015625)"/>
      <path id="TimesNewRomanPSMT-46" d="M 1309 4006 
L 1309 2341 
L 2081 2341 
Q 2347 2341 2470 2458 
Q 2594 2575 2634 2922 
L 2750 2922 
L 2750 1488 
L 2634 1488 
Q 2631 1734 2570 1850 
Q 2509 1966 2401 2023 
Q 2294 2081 2081 2081 
L 1309 2081 
L 1309 750 
Q 1309 428 1350 325 
Q 1381 247 1481 191 
Q 1619 116 1769 116 
L 1922 116 
L 1922 0 
L 103 0 
L 103 116 
L 253 116 
Q 516 116 634 269 
Q 709 369 709 750 
L 709 3488 
Q 709 3809 669 3913 
Q 638 3991 541 4047 
Q 406 4122 253 4122 
L 103 4122 
L 103 4238 
L 3256 4238 
L 3297 3306 
L 3188 3306 
Q 3106 3603 2998 3742 
Q 2891 3881 2733 3943 
Q 2575 4006 2244 4006 
L 1309 4006 
z
" transform="scale(0.015625)"/>
      <path id="TimesNewRomanPSMT-42" d="M 2956 2163 
Q 3397 2069 3616 1863 
Q 3919 1575 3919 1159 
Q 3919 844 3719 555 
Q 3519 266 3170 133 
Q 2822 0 2106 0 
L 106 0 
L 106 116 
L 266 116 
Q 531 116 647 284 
Q 719 394 719 750 
L 719 3488 
Q 719 3881 628 3984 
Q 506 4122 266 4122 
L 106 4122 
L 106 4238 
L 1938 4238 
Q 2450 4238 2759 4163 
Q 3228 4050 3475 3764 
Q 3722 3478 3722 3106 
Q 3722 2788 3528 2536 
Q 3334 2284 2956 2163 
z
M 1319 2331 
Q 1434 2309 1582 2298 
Q 1731 2288 1909 2288 
Q 2366 2288 2595 2386 
Q 2825 2484 2947 2687 
Q 3069 2891 3069 3131 
Q 3069 3503 2766 3765 
Q 2463 4028 1881 4028 
Q 1569 4028 1319 3959 
L 1319 2331 
z
M 1319 306 
Q 1681 222 2034 222 
Q 2600 222 2897 476 
Q 3194 731 3194 1106 
Q 3194 1353 3059 1581 
Q 2925 1809 2622 1940 
Q 2319 2072 1872 2072 
Q 1678 2072 1540 2065 
Q 1403 2059 1319 2044 
L 1319 306 
z
" transform="scale(0.015625)"/>
      <path id="TimesNewRomanPSMT-76" d="M 53 2863 
L 1400 2863 
L 1400 2747 
L 1313 2747 
Q 1191 2747 1127 2687 
Q 1063 2628 1063 2528 
Q 1063 2419 1128 2269 
L 1794 688 
L 2463 2328 
Q 2534 2503 2534 2594 
Q 2534 2638 2509 2666 
Q 2475 2713 2422 2730 
Q 2369 2747 2206 2747 
L 2206 2863 
L 3141 2863 
L 3141 2747 
Q 2978 2734 2916 2681 
Q 2806 2588 2719 2369 
L 1703 -88 
L 1575 -88 
L 553 2328 
Q 484 2497 421 2570 
Q 359 2644 263 2694 
Q 209 2722 53 2747 
L 53 2863 
z
" transform="scale(0.015625)"/>
     </defs>
     <use xlink:href="#TimesNewRomanPSMT-74"/>
     <use xlink:href="#TimesNewRomanPSMT-68" transform="translate(27.783203 0)"/>
     <use xlink:href="#TimesNewRomanPSMT-65" transform="translate(77.783203 0)"/>
     <use xlink:href="#TimesNewRomanPSMT-20" transform="translate(122.167969 0)"/>
     <use xlink:href="#TimesNewRomanPSMT-41" transform="translate(141.667969 0)"/>
     <use xlink:href="#TimesNewRomanPSMT-6e" transform="translate(213.884766 0)"/>
     <use xlink:href="#TimesNewRomanPSMT-61" transform="translate(263.884766 0)"/>
     <use xlink:href="#TimesNewRomanPSMT-6c" transform="translate(308.269531 0)"/>
     <use xlink:href="#TimesNewRomanPSMT-79" transform="translate(336.052734 0)"/>
     <use xlink:href="#TimesNewRomanPSMT-73" transform="translate(386.052734 0)"/>
     <use xlink:href="#TimesNewRomanPSMT-69" transform="translate(424.96875 0)"/>
     <use xlink:href="#TimesNewRomanPSMT-73" transform="translate(452.751953 0)"/>
     <use xlink:href="#TimesNewRomanPSMT-20" transform="translate(491.667969 0)"/>
     <use xlink:href="#TimesNewRomanPSMT-6f" transform="translate(516.667969 0)"/>
     <use xlink:href="#TimesNewRomanPSMT-66" transform="translate(566.667969 0)"/>
     <use xlink:href="#TimesNewRomanPSMT-20" transform="translate(599.96875 0)"/>
     <use xlink:href="#TimesNewRomanPSMT-46" transform="translate(624.96875 0)"/>
     <use xlink:href="#TimesNewRomanPSMT-6f" transform="translate(680.583984 0)"/>
     <use xlink:href="#TimesNewRomanPSMT-6f" transform="translate(730.583984 0)"/>
     <use xlink:href="#TimesNewRomanPSMT-64" transform="translate(780.583984 0)"/>
     <use xlink:href="#TimesNewRomanPSMT-20" transform="translate(830.583984 0)"/>
     <use xlink:href="#TimesNewRomanPSMT-61" transform="translate(855.583984 0)"/>
     <use xlink:href="#TimesNewRomanPSMT-6e" transform="translate(899.96875 0)"/>
     <use xlink:href="#TimesNewRomanPSMT-64" transform="translate(949.96875 0)"/>
     <use xlink:href="#TimesNewRomanPSMT-20" transform="translate(999.96875 0)"/>
     <use xlink:href="#TimesNewRomanPSMT-42" transform="translate(1024.96875 0)"/>
     <use xlink:href="#TimesNewRomanPSMT-65" transform="translate(1091.667969 0)"/>
     <use xlink:href="#TimesNewRomanPSMT-76" transform="translate(1136.052734 0)"/>
     <use xlink:href="#TimesNewRomanPSMT-65" transform="translate(1186.052734 0)"/>
     <use xlink:href="#TimesNewRomanPSMT-72" transform="translate(1230.4375 0)"/>
     <use xlink:href="#TimesNewRomanPSMT-61" transform="translate(1263.738281 0)"/>
     <use xlink:href="#TimesNewRomanPSMT-67" transform="translate(1308.123047 0)"/>
     <use xlink:href="#TimesNewRomanPSMT-65" transform="translate(1358.123047 0)"/>
     <use xlink:href="#TimesNewRomanPSMT-20" transform="translate(1402.507812 0)"/>
     <use xlink:href="#TimesNewRomanPSMT-49" transform="translate(1427.507812 0)"/>
     <use xlink:href="#TimesNewRomanPSMT-6e" transform="translate(1460.808594 0)"/>
     <use xlink:href="#TimesNewRomanPSMT-64" transform="translate(1510.808594 0)"/>
     <use xlink:href="#TimesNewRomanPSMT-75" transform="translate(1560.808594 0)"/>
     <use xlink:href="#TimesNewRomanPSMT-73" transform="translate(1610.808594 0)"/>
     <use xlink:href="#TimesNewRomanPSMT-74" transform="translate(1649.724609 0)"/>
     <use xlink:href="#TimesNewRomanPSMT-72" transform="translate(1677.507812 0)"/>
     <use xlink:href="#TimesNewRomanPSMT-79" transform="translate(1710.808594 0)"/>
    </g>
   </g>
   <g id="legend_1">
    <g id="patch_5">
     <path d="M 529.914531 167.947906 
L 671.389063 167.947906 
Q 673.389063 167.947906 673.389063 165.947906 
L 673.389063 43.6 
Q 673.389063 41.6 671.389063 41.6 
L 529.914531 41.6 
Q 527.914531 41.6 527.914531 43.6 
L 527.914531 165.947906 
Q 527.914531 167.947906 529.914531 167.947906 
z
" style="fill: #ffffff; opacity: 0.8; stroke: #cccccc; stroke-linejoin: miter"/>
    </g>
    <g id="text_31">
     <!-- Average customer order -->
     <g transform="translate(547.914531 69.238125) scale(0.11 -0.11)">
      <use xlink:href="#TimesNewRomanPSMT-41"/>
      <use xlink:href="#TimesNewRomanPSMT-76" transform="translate(64.841797 0)"/>
      <use xlink:href="#TimesNewRomanPSMT-65" transform="translate(114.841797 0)"/>
      <use xlink:href="#TimesNewRomanPSMT-72" transform="translate(159.226562 0)"/>
      <use xlink:href="#TimesNewRomanPSMT-61" transform="translate(192.527344 0)"/>
      <use xlink:href="#TimesNewRomanPSMT-67" transform="translate(236.912109 0)"/>
      <use xlink:href="#TimesNewRomanPSMT-65" transform="translate(286.912109 0)"/>
      <use xlink:href="#TimesNewRomanPSMT-20" transform="translate(331.296875 0)"/>
      <use xlink:href="#TimesNewRomanPSMT-63" transform="translate(356.296875 0)"/>
      <use xlink:href="#TimesNewRomanPSMT-75" transform="translate(400.681641 0)"/>
      <use xlink:href="#TimesNewRomanPSMT-73" transform="translate(450.681641 0)"/>
      <use xlink:href="#TimesNewRomanPSMT-74" transform="translate(489.597656 0)"/>
      <use xlink:href="#TimesNewRomanPSMT-6f" transform="translate(517.380859 0)"/>
      <use xlink:href="#TimesNewRomanPSMT-6d" transform="translate(567.380859 0)"/>
      <use xlink:href="#TimesNewRomanPSMT-65" transform="translate(645.164062 0)"/>
      <use xlink:href="#TimesNewRomanPSMT-72" transform="translate(689.548828 0)"/>
      <use xlink:href="#TimesNewRomanPSMT-20" transform="translate(722.849609 0)"/>
      <use xlink:href="#TimesNewRomanPSMT-6f" transform="translate(747.849609 0)"/>
      <use xlink:href="#TimesNewRomanPSMT-72" transform="translate(797.849609 0)"/>
      <use xlink:href="#TimesNewRomanPSMT-64" transform="translate(831.150391 0)"/>
      <use xlink:href="#TimesNewRomanPSMT-65" transform="translate(881.150391 0)"/>
      <use xlink:href="#TimesNewRomanPSMT-72" transform="translate(925.535156 0)"/>
     </g>
     <!-- frequency -->
     <g transform="translate(547.914531 80.777469) scale(0.11 -0.11)">
      <defs>
       <path id="TimesNewRomanPSMT-71" d="M 2734 2947 
L 2734 -734 
Q 2734 -1009 2771 -1087 
Q 2809 -1166 2889 -1209 
Q 2969 -1253 3200 -1253 
L 3200 -1369 
L 1756 -1369 
L 1756 -1253 
L 1816 -1253 
Q 1991 -1253 2081 -1203 
Q 2144 -1169 2181 -1080 
Q 2219 -991 2219 -734 
L 2219 497 
Q 1934 159 1721 35 
Q 1509 -88 1281 -88 
Q 866 -88 539 290 
Q 213 669 213 1303 
Q 213 2031 644 2489 
Q 1075 2947 1684 2947 
Q 1863 2947 2013 2897 
Q 2163 2847 2281 2747 
Q 2463 2834 2628 2947 
L 2734 2947 
z
M 2219 694 
L 2219 2038 
Q 2219 2272 2158 2406 
Q 2097 2541 1940 2634 
Q 1784 2728 1588 2728 
Q 1238 2728 988 2431 
Q 738 2134 738 1531 
Q 738 953 992 653 
Q 1247 353 1606 353 
Q 1791 353 1934 433 
Q 2078 513 2219 694 
z
" transform="scale(0.015625)"/>
      </defs>
      <use xlink:href="#TimesNewRomanPSMT-66"/>
      <use xlink:href="#TimesNewRomanPSMT-72" transform="translate(33.300781 0)"/>
      <use xlink:href="#TimesNewRomanPSMT-65" transform="translate(66.601562 0)"/>
      <use xlink:href="#TimesNewRomanPSMT-71" transform="translate(110.986328 0)"/>
      <use xlink:href="#TimesNewRomanPSMT-75" transform="translate(160.986328 0)"/>
      <use xlink:href="#TimesNewRomanPSMT-65" transform="translate(210.986328 0)"/>
      <use xlink:href="#TimesNewRomanPSMT-6e" transform="translate(255.371094 0)"/>
      <use xlink:href="#TimesNewRomanPSMT-63" transform="translate(305.371094 0)"/>
      <use xlink:href="#TimesNewRomanPSMT-79" transform="translate(349.755859 0)"/>
     </g>
     <!-- (times/week) -->
     <g transform="translate(547.914531 92.316813) scale(0.11 -0.11)">
      <defs>
       <path id="TimesNewRomanPSMT-2f" d="M 1794 4444 
L 259 -88 
L 9 -88 
L 1544 4444 
L 1794 4444 
z
" transform="scale(0.015625)"/>
       <path id="TimesNewRomanPSMT-77" d="M 41 2863 
L 1241 2863 
L 1241 2747 
Q 1075 2734 1023 2687 
Q 972 2641 972 2553 
Q 972 2456 1025 2319 
L 1638 672 
L 2253 2013 
L 2091 2434 
Q 2016 2622 1894 2694 
Q 1825 2738 1638 2747 
L 1638 2863 
L 3000 2863 
L 3000 2747 
Q 2775 2738 2681 2666 
Q 2619 2616 2619 2506 
Q 2619 2444 2644 2378 
L 3294 734 
L 3897 2319 
Q 3959 2488 3959 2588 
Q 3959 2647 3898 2694 
Q 3838 2741 3659 2747 
L 3659 2863 
L 4563 2863 
L 4563 2747 
Q 4291 2706 4163 2378 
L 3206 -88 
L 3078 -88 
L 2363 1741 
L 1528 -88 
L 1413 -88 
L 494 2319 
Q 403 2547 315 2626 
Q 228 2706 41 2747 
L 41 2863 
z
" transform="scale(0.015625)"/>
       <path id="TimesNewRomanPSMT-6b" d="M 1047 4444 
L 1047 1597 
L 1775 2259 
Q 2006 2472 2044 2528 
Q 2069 2566 2069 2603 
Q 2069 2666 2017 2711 
Q 1966 2756 1847 2763 
L 1847 2863 
L 3091 2863 
L 3091 2763 
Q 2834 2756 2664 2684 
Q 2494 2613 2291 2428 
L 1556 1750 
L 2291 822 
Q 2597 438 2703 334 
Q 2853 188 2966 144 
Q 3044 113 3238 113 
L 3238 0 
L 1847 0 
L 1847 113 
Q 1966 116 2008 148 
Q 2050 181 2050 241 
Q 2050 313 1925 472 
L 1047 1594 
L 1047 644 
Q 1047 366 1086 278 
Q 1125 191 1197 153 
Q 1269 116 1509 113 
L 1509 0 
L 53 0 
L 53 113 
Q 272 113 381 166 
Q 447 200 481 272 
Q 528 375 528 628 
L 528 3234 
Q 528 3731 506 3842 
Q 484 3953 434 3995 
Q 384 4038 303 4038 
Q 238 4038 106 3984 
L 53 4094 
L 903 4444 
L 1047 4444 
z
" transform="scale(0.015625)"/>
      </defs>
      <use xlink:href="#TimesNewRomanPSMT-28"/>
      <use xlink:href="#TimesNewRomanPSMT-74" transform="translate(33.300781 0)"/>
      <use xlink:href="#TimesNewRomanPSMT-69" transform="translate(61.083984 0)"/>
      <use xlink:href="#TimesNewRomanPSMT-6d" transform="translate(88.867188 0)"/>
      <use xlink:href="#TimesNewRomanPSMT-65" transform="translate(166.650391 0)"/>
      <use xlink:href="#TimesNewRomanPSMT-73" transform="translate(211.035156 0)"/>
      <use xlink:href="#TimesNewRomanPSMT-2f" transform="translate(249.951172 0)"/>
      <use xlink:href="#TimesNewRomanPSMT-77" transform="translate(277.734375 0)"/>
      <use xlink:href="#TimesNewRomanPSMT-65" transform="translate(349.951172 0)"/>
      <use xlink:href="#TimesNewRomanPSMT-65" transform="translate(394.335938 0)"/>
      <use xlink:href="#TimesNewRomanPSMT-6b" transform="translate(438.720703 0)"/>
      <use xlink:href="#TimesNewRomanPSMT-29" transform="translate(488.720703 0)"/>
     </g>
    </g>
    <g id="PathCollection_4">
     <defs>
      <path id="m2aba29a7a1" d="M 0 7.926655 
C 2.102173 7.926655 4.11853 7.091452 5.604991 5.604991 
C 7.091452 4.11853 7.926655 2.102173 7.926655 0 
C 7.926655 -2.102173 7.091452 -4.11853 5.604991 -5.604991 
C 4.11853 -7.091452 2.102173 -7.926655 0 -7.926655 
C -2.102173 -7.926655 -4.11853 -7.091452 -5.604991 -5.604991 
C -7.091452 -4.11853 -7.926655 -2.102173 -7.926655 0 
C -7.926655 2.102173 -7.091452 4.11853 -5.604991 5.604991 
C -4.11853 7.091452 -2.102173 7.926655 0 7.926655 
z
" style="stroke: #000000; stroke-opacity: 0.7; stroke-width: 0.5"/>
     </defs>
     <g>
      <use xlink:href="#m2aba29a7a1" x="588.151797" y="116.544781" style="fill: #e377c2; fill-opacity: 0.7; stroke: #000000; stroke-opacity: 0.7; stroke-width: 0.5"/>
     </g>
    </g>
    <g id="text_32">
     <!-- 1 -->
     <g transform="translate(615.651797 119.169781) scale(0.1 -0.1)">
      <use xlink:href="#TimesNewRomanPSMT-31"/>
     </g>
    </g>
    <g id="PathCollection_5">
     <defs>
      <path id="mb947dde37a" d="M 0 15.853309 
C 4.204347 15.853309 8.23706 14.182905 11.209982 11.209982 
C 14.182905 8.23706 15.853309 4.204347 15.853309 0 
C 15.853309 -4.204347 14.182905 -8.23706 11.209982 -11.209982 
C 8.23706 -14.182905 4.204347 -15.853309 0 -15.853309 
C -4.204347 -15.853309 -8.23706 -14.182905 -11.209982 -11.209982 
C -14.182905 -8.23706 -15.853309 -4.204347 -15.853309 0 
C -15.853309 4.204347 -14.182905 8.23706 -11.209982 11.209982 
C -8.23706 14.182905 -4.204347 15.853309 0 15.853309 
z
" style="stroke: #000000; stroke-opacity: 0.7; stroke-width: 0.5"/>
     </defs>
     <g>
      <use xlink:href="#mb947dde37a" x="588.151797" y="143.183844" style="fill: #e377c2; fill-opacity: 0.7; stroke: #000000; stroke-opacity: 0.7; stroke-width: 0.5"/>
     </g>
    </g>
    <g id="text_33">
     <!-- 7 -->
     <g transform="translate(615.651797 145.808844) scale(0.1 -0.1)">
      <defs>
       <path id="TimesNewRomanPSMT-37" d="M 644 4238 
L 2916 4238 
L 2916 4119 
L 1503 -88 
L 1153 -88 
L 2419 3728 
L 1253 3728 
Q 900 3728 750 3644 
Q 488 3500 328 3200 
L 238 3234 
L 644 4238 
z
" transform="scale(0.015625)"/>
      </defs>
      <use xlink:href="#TimesNewRomanPSMT-37"/>
     </g>
    </g>
   </g>
  </g>
 </g>
 <defs>
  <clipPath id="p3ad29c9a3c">
   <rect x="46.94375" y="41.6" width="501.15625" height="451.99625"/>
  </clipPath>
 </defs>
</svg>
