<?xml version="1.0" encoding="utf-8" standalone="no"?>
<!DOCTYPE svg PUBLIC "-//W3C//DTD SVG 1.1//EN"
  "http://www.w3.org/Graphics/SVG/1.1/DTD/svg11.dtd">
<svg xmlns:xlink="http://www.w3.org/1999/xlink" width="452.089687pt" height="319.942911pt" viewBox="0 0 452.089687 319.942911" xmlns="http://www.w3.org/2000/svg" version="1.1">
 <metadata>
  <rdf:RDF xmlns:dc="http://purl.org/dc/elements/1.1/" xmlns:cc="http://creativecommons.org/ns#" xmlns:rdf="http://www.w3.org/1999/02/22-rdf-syntax-ns#">
   <cc:Work>
    <dc:type rdf:resource="http://purl.org/dc/dcmitype/StillImage"/>
    <dc:date>2025-05-26T16:43:10.531342</dc:date>
    <dc:format>image/svg+xml</dc:format>
    <dc:creator>
     <cc:Agent>
      <dc:title>Matplotlib v3.7.2, https://matplotlib.org/</dc:title>
     </cc:Agent>
    </dc:creator>
   </cc:Work>
  </rdf:RDF>
 </metadata>
 <defs>
  <style type="text/css">*{stroke-linejoin: round; stroke-linecap: butt}</style>
 </defs>
 <g id="figure_1">
  <g id="patch_1">
   <path d="M 0 319.942911 
L 452.089687 319.942911 
L 452.089687 0 
L 0 0 
z
" style="fill: #ffffff"/>
  </g>
  <g id="axes_1">
   <g id="patch_2">
    <path d="M 60.915938 258.900181 
L 427.695937 258.900181 
L 427.695937 30.045 
L 60.915938 30.045 
z
" style="fill: #ffffff"/>
   </g>
   <g id="PolyCollection_1">
    <defs>
     <path id="m15a70aa959" d="M 123.844627 -71.445239 
L 120.247248 -71.445239 
L 120.07401 -73.275442 
L 119.894554 -75.105645 
L 119.701592 -76.935848 
L 119.485026 -78.766051 
L 119.232285 -80.596254 
L 118.928974 -82.426457 
L 118.559817 -84.256661 
L 118.109844 -86.086864 
L 117.565737 -87.917067 
L 116.917188 -89.74727 
L 116.158108 -91.577473 
L 115.287527 -93.407676 
L 114.309983 -95.237879 
L 113.235328 -97.068082 
L 112.077859 -98.898285 
L 110.854881 -100.728488 
L 109.584809 -102.558692 
L 108.285107 -104.388895 
L 106.970335 -106.219098 
L 105.650641 -108.049301 
L 104.330953 -109.879504 
L 103.011034 -111.709707 
L 101.686403 -113.53991 
L 100.349979 -115.370113 
L 98.994131 -117.200316 
L 97.612767 -119.030519 
L 96.203034 -120.860722 
L 94.7663 -122.690926 
L 93.308229 -124.521129 
L 91.837942 -126.351332 
L 90.366474 -128.181535 
L 88.904869 -130.011738 
L 87.462366 -131.841941 
L 86.045111 -133.672144 
L 84.655735 -135.502347 
L 83.293972 -137.33255 
L 81.95828 -139.162753 
L 80.648253 -140.992957 
L 79.367405 -142.82316 
L 78.125844 -144.653363 
L 76.942313 -146.483566 
L 75.84514 -148.313769 
L 74.871803 -150.143972 
L 74.066978 -151.974175 
L 73.479226 -153.804378 
L 73.156631 -155.634581 
L 73.141938 -157.464784 
L 73.467802 -159.294987 
L 74.152781 -161.125191 
L 75.198604 -162.955394 
L 76.58906 -164.785597 
L 78.29065 -166.6158 
L 80.25486 -168.446003 
L 82.421743 -170.276206 
L 84.724342 -172.106409 
L 87.093404 -173.936612 
L 89.461908 -175.766815 
L 91.768968 -177.597018 
L 93.962872 -179.427222 
L 96.00314 -181.257425 
L 97.861629 -183.087628 
L 99.522821 -184.917831 
L 100.983445 -186.748034 
L 102.251591 -188.578237 
L 103.345416 -190.40844 
L 104.291459 -192.238643 
L 105.122601 -194.068846 
L 105.875634 -195.899049 
L 106.588508 -197.729252 
L 107.29738 -199.559456 
L 108.03369 -201.389659 
L 108.821558 -203.219862 
L 109.67582 -205.050065 
L 110.600979 -206.880268 
L 111.591226 -208.710471 
L 112.631556 -210.540674 
L 113.699813 -212.370877 
L 114.76938 -214.20108 
L 115.812139 -216.031283 
L 116.801295 -217.861487 
L 117.713732 -219.69169 
L 118.531659 -221.521893 
L 119.243449 -223.352096 
L 119.843695 -225.182299 
L 120.33264 -227.012502 
L 120.71518 -228.842705 
L 120.999678 -230.672908 
L 121.196797 -232.503111 
L 121.318504 -234.333314 
L 121.377319 -236.163517 
L 121.385828 -237.993721 
L 121.356384 -239.823924 
L 121.300933 -241.654127 
L 121.230859 -243.48433 
L 121.156774 -245.314533 
L 121.088227 -247.144736 
L 121.033335 -248.974939 
L 120.998399 -250.805142 
L 120.987563 -252.635345 
L 123.104312 -252.635345 
L 123.104312 -252.635345 
L 123.093476 -250.805142 
L 123.05854 -248.974939 
L 123.003648 -247.144736 
L 122.935101 -245.314533 
L 122.861016 -243.48433 
L 122.790942 -241.654127 
L 122.735491 -239.823924 
L 122.706047 -237.993721 
L 122.714556 -236.163517 
L 122.773371 -234.333314 
L 122.895078 -232.503111 
L 123.092197 -230.672908 
L 123.376695 -228.842705 
L 123.759235 -227.012502 
L 124.24818 -225.182299 
L 124.848426 -223.352096 
L 125.560216 -221.521893 
L 126.378143 -219.69169 
L 127.29058 -217.861487 
L 128.279736 -216.031283 
L 129.322495 -214.20108 
L 130.392062 -212.370877 
L 131.460319 -210.540674 
L 132.500649 -208.710471 
L 133.490896 -206.880268 
L 134.416055 -205.050065 
L 135.270317 -203.219862 
L 136.058185 -201.389659 
L 136.794495 -199.559456 
L 137.503367 -197.729252 
L 138.216241 -195.899049 
L 138.969274 -194.068846 
L 139.800416 -192.238643 
L 140.746459 -190.40844 
L 141.840284 -188.578237 
L 143.10843 -186.748034 
L 144.569054 -184.917831 
L 146.230246 -183.087628 
L 148.088735 -181.257425 
L 150.129003 -179.427222 
L 152.322907 -177.597018 
L 154.629967 -175.766815 
L 156.998471 -173.936612 
L 159.367533 -172.106409 
L 161.670132 -170.276206 
L 163.837015 -168.446003 
L 165.801225 -166.6158 
L 167.502815 -164.785597 
L 168.893271 -162.955394 
L 169.939094 -161.125191 
L 170.624073 -159.294987 
L 170.949938 -157.464784 
L 170.935244 -155.634581 
L 170.612649 -153.804378 
L 170.024897 -151.974175 
L 169.220072 -150.143972 
L 168.246735 -148.313769 
L 167.149562 -146.483566 
L 165.966031 -144.653363 
L 164.72447 -142.82316 
L 163.443622 -140.992957 
L 162.133595 -139.162753 
L 160.797903 -137.33255 
L 159.43614 -135.502347 
L 158.046764 -133.672144 
L 156.629509 -131.841941 
L 155.187006 -130.011738 
L 153.725401 -128.181535 
L 152.253933 -126.351332 
L 150.783646 -124.521129 
L 149.325575 -122.690926 
L 147.888841 -120.860722 
L 146.479108 -119.030519 
L 145.097744 -117.200316 
L 143.741896 -115.370113 
L 142.405472 -113.53991 
L 141.080841 -111.709707 
L 139.760922 -109.879504 
L 138.441234 -108.049301 
L 137.12154 -106.219098 
L 135.806768 -104.388895 
L 134.507066 -102.558692 
L 133.236994 -100.728488 
L 132.014016 -98.898285 
L 130.856547 -97.068082 
L 129.781892 -95.237879 
L 128.804348 -93.407676 
L 127.933767 -91.577473 
L 127.174687 -89.74727 
L 126.526138 -87.917067 
L 125.982031 -86.086864 
L 125.532058 -84.256661 
L 125.162901 -82.426457 
L 124.85959 -80.596254 
L 124.606849 -78.766051 
L 124.390283 -76.935848 
L 124.197321 -75.105645 
L 124.017865 -73.275442 
L 123.844627 -71.445239 
z
" style="stroke: #000000; stroke-opacity: 0.7"/>
    </defs>
    <g clip-path="url(#pfc2850b2bb)">
     <use xlink:href="#m15a70aa959" x="0" y="319.942911" style="fill: #98df8a; fill-opacity: 0.7; stroke: #000000; stroke-opacity: 0.7"/>
    </g>
   </g>
   <g id="PolyCollection_2">
    <defs>
     <path id="m2a022898f6" d="M 248.530241 -91.616392 
L 240.081634 -91.616392 
L 239.721046 -92.959539 
L 239.370154 -94.302685 
L 239.027271 -95.645832 
L 238.687656 -96.988978 
L 238.343328 -98.332125 
L 237.983062 -99.675271 
L 237.592619 -101.018418 
L 237.155191 -102.361564 
L 236.652099 -103.704711 
L 236.063721 -105.047857 
L 235.370634 -106.391004 
L 234.55492 -107.73415 
L 233.601575 -109.077297 
L 232.499911 -110.420443 
L 231.244849 -111.76359 
L 229.837958 -113.106736 
L 228.288115 -114.449883 
L 226.611659 -115.79303 
L 224.831947 -117.136176 
L 222.978279 -118.479323 
L 221.084199 -119.822469 
L 219.185303 -121.165616 
L 217.31671 -122.508762 
L 215.510447 -123.851909 
L 213.793052 -125.195055 
L 212.183666 -126.538202 
L 210.69288 -127.881348 
L 209.322501 -129.224495 
L 208.06629 -130.567641 
L 206.911588 -131.910788 
L 205.841623 -133.253934 
L 204.838181 -134.597081 
L 203.884264 -135.940227 
L 202.966377 -137.283374 
L 202.076131 -138.626521 
L 201.210972 -139.969667 
L 200.373978 -141.312814 
L 199.572835 -142.65596 
L 198.818208 -143.999107 
L 198.121816 -145.342253 
L 197.494578 -146.6854 
L 196.945126 -148.028546 
L 196.478925 -149.371693 
L 196.098127 -150.714839 
L 195.802138 -152.057986 
L 195.588758 -153.401132 
L 195.45566 -154.744279 
L 195.401938 -156.087425 
L 195.429431 -157.430572 
L 195.543602 -158.773718 
L 195.753813 -160.116865 
L 196.072962 -161.460012 
L 196.516517 -162.803158 
L 197.101098 -164.146305 
L 197.84278 -165.489451 
L 198.755319 -166.832598 
L 199.848512 -168.175744 
L 201.126823 -169.518891 
L 202.588417 -170.862037 
L 204.224632 -172.205184 
L 206.019947 -173.54833 
L 207.952399 -174.891477 
L 209.994429 -176.234623 
L 212.114106 -177.57777 
L 214.276632 -178.920916 
L 216.446055 -180.264063 
L 218.587081 -181.607209 
L 220.666841 -182.950356 
L 222.656511 -184.293503 
L 224.53262 -185.636649 
L 226.277967 -186.979796 
L 227.882049 -188.322942 
L 229.340981 -189.666089 
L 230.656934 -191.009235 
L 231.837154 -192.352382 
L 232.892695 -193.695528 
L 233.836993 -195.038675 
L 234.68444 -196.381821 
L 235.449089 -197.724968 
L 236.143593 -199.068114 
L 236.778464 -200.411261 
L 237.361678 -201.754407 
L 237.898614 -203.097554 
L 238.392309 -204.4407 
L 238.843949 -205.783847 
L 239.253532 -207.126994 
L 239.620604 -208.47014 
L 239.944989 -209.813287 
L 240.227421 -211.156433 
L 240.470007 -212.49958 
L 240.676472 -213.842726 
L 240.852161 -215.185873 
L 241.003791 -216.529019 
L 241.139001 -217.872166 
L 241.26575 -219.215312 
L 241.391647 -220.558459 
L 241.523299 -221.901605 
L 241.665759 -223.244752 
L 241.822155 -224.587898 
L 246.78972 -224.587898 
L 246.78972 -224.587898 
L 246.946116 -223.244752 
L 247.088576 -221.901605 
L 247.220228 -220.558459 
L 247.346125 -219.215312 
L 247.472874 -217.872166 
L 247.608084 -216.529019 
L 247.759714 -215.185873 
L 247.935403 -213.842726 
L 248.141868 -212.49958 
L 248.384454 -211.156433 
L 248.666886 -209.813287 
L 248.991271 -208.47014 
L 249.358343 -207.126994 
L 249.767926 -205.783847 
L 250.219566 -204.4407 
L 250.713261 -203.097554 
L 251.250197 -201.754407 
L 251.833411 -200.411261 
L 252.468282 -199.068114 
L 253.162786 -197.724968 
L 253.927435 -196.381821 
L 254.774882 -195.038675 
L 255.71918 -193.695528 
L 256.774721 -192.352382 
L 257.954941 -191.009235 
L 259.270894 -189.666089 
L 260.729826 -188.322942 
L 262.333908 -186.979796 
L 264.079255 -185.636649 
L 265.955364 -184.293503 
L 267.945034 -182.950356 
L 270.024794 -181.607209 
L 272.16582 -180.264063 
L 274.335243 -178.920916 
L 276.497769 -177.57777 
L 278.617446 -176.234623 
L 280.659476 -174.891477 
L 282.591928 -173.54833 
L 284.387243 -172.205184 
L 286.023458 -170.862037 
L 287.485052 -169.518891 
L 288.763363 -168.175744 
L 289.856556 -166.832598 
L 290.769095 -165.489451 
L 291.510777 -164.146305 
L 292.095358 -162.803158 
L 292.538913 -161.460012 
L 292.858062 -160.116865 
L 293.068273 -158.773718 
L 293.182444 -157.430572 
L 293.209937 -156.087425 
L 293.156215 -154.744279 
L 293.023117 -153.401132 
L 292.809737 -152.057986 
L 292.513748 -150.714839 
L 292.13295 -149.371693 
L 291.666749 -148.028546 
L 291.117297 -146.6854 
L 290.490059 -145.342253 
L 289.793667 -143.999107 
L 289.03904 -142.65596 
L 288.237897 -141.312814 
L 287.400903 -139.969667 
L 286.535744 -138.626521 
L 285.645498 -137.283374 
L 284.727611 -135.940227 
L 283.773694 -134.597081 
L 282.770252 -133.253934 
L 281.700287 -131.910788 
L 280.545585 -130.567641 
L 279.289374 -129.224495 
L 277.918995 -127.881348 
L 276.428209 -126.538202 
L 274.818823 -125.195055 
L 273.101428 -123.851909 
L 271.295165 -122.508762 
L 269.426572 -121.165616 
L 267.527676 -119.822469 
L 265.633596 -118.479323 
L 263.779928 -117.136176 
L 262.000216 -115.79303 
L 260.32376 -114.449883 
L 258.773917 -113.106736 
L 257.367026 -111.76359 
L 256.111964 -110.420443 
L 255.0103 -109.077297 
L 254.056955 -107.73415 
L 253.241241 -106.391004 
L 252.548154 -105.047857 
L 251.959776 -103.704711 
L 251.456684 -102.361564 
L 251.019256 -101.018418 
L 250.628813 -99.675271 
L 250.268547 -98.332125 
L 249.924219 -96.988978 
L 249.584604 -95.645832 
L 249.241721 -94.302685 
L 248.890829 -92.959539 
L 248.530241 -91.616392 
z
" style="stroke: #000000; stroke-opacity: 0.7"/>
    </defs>
    <g clip-path="url(#pfc2850b2bb)">
     <use xlink:href="#m2a022898f6" x="0" y="319.942911" style="fill: #d62728; fill-opacity: 0.7; stroke: #000000; stroke-opacity: 0.7"/>
    </g>
   </g>
   <g id="PolyCollection_3">
    <defs>
     <path id="m20e0a06329" d="M 369.529232 -80.144189 
L 363.602643 -80.144189 
L 363.260821 -82.157838 
L 362.908804 -84.171487 
L 362.541569 -86.185135 
L 362.151944 -88.198784 
L 361.73134 -90.212432 
L 361.270658 -92.226081 
L 360.761195 -94.23973 
L 360.195405 -96.253378 
L 359.567346 -98.267027 
L 358.872751 -100.280676 
L 358.108677 -102.294324 
L 357.272778 -104.307973 
L 356.362304 -106.321621 
L 355.372991 -108.33527 
L 354.298059 -110.348919 
L 353.127562 -112.362567 
L 351.848319 -114.376216 
L 350.444627 -116.389865 
L 348.899838 -118.403513 
L 347.198745 -120.417162 
L 345.330568 -122.43081 
L 343.292151 -124.444459 
L 341.090883 -126.458108 
L 338.746809 -128.471756 
L 336.293461 -130.485405 
L 333.777126 -132.499054 
L 331.254506 -134.512702 
L 328.789024 -136.526351 
L 326.446291 -138.539999 
L 324.289406 -140.553648 
L 322.374774 -142.567297 
L 320.749004 -144.580945 
L 319.447183 -146.594594 
L 318.492485 -148.608243 
L 317.896808 -150.621891 
L 317.661937 -152.63554 
L 317.780719 -154.649188 
L 318.237864 -156.662837 
L 319.010267 -158.676486 
L 320.066986 -160.690134 
L 321.36924 -162.703783 
L 322.870871 -164.717432 
L 324.519625 -166.73108 
L 326.259426 -168.744729 
L 328.033567 -170.758377 
L 329.788492 -172.772026 
L 331.477713 -174.785675 
L 333.065343 -176.799323 
L 334.528779 -178.812972 
L 335.860199 -180.826621 
L 337.066654 -182.840269 
L 338.168734 -184.853918 
L 339.197865 -186.867566 
L 340.192504 -188.881215 
L 341.193551 -190.894864 
L 342.239471 -192.908512 
L 343.361654 -194.922161 
L 344.580597 -196.93581 
L 345.903387 -198.949458 
L 347.32284 -200.963107 
L 348.818425 -202.976755 
L 350.358818 -204.990404 
L 351.90573 -207.004053 
L 353.418438 -209.017701 
L 354.858391 -211.03135 
L 356.193277 -213.044999 
L 357.400043 -215.058647 
L 358.466545 -217.072296 
L 359.391726 -219.085944 
L 360.184425 -221.099593 
L 360.861099 -223.113242 
L 361.44287 -225.12689 
L 361.952375 -227.140539 
L 362.410867 -229.154188 
L 362.835928 -231.167836 
L 363.240063 -233.181485 
L 363.630208 -235.195133 
L 364.008114 -237.208782 
L 364.371372 -239.222431 
L 364.714826 -241.236079 
L 365.032056 -243.249728 
L 365.316713 -245.263377 
L 365.56351 -247.277025 
L 365.768807 -249.290674 
L 365.930823 -251.304322 
L 366.04954 -253.317971 
L 366.126457 -255.33162 
L 366.164285 -257.345268 
L 366.166713 -259.358917 
L 366.13826 -261.372566 
L 366.084229 -263.386214 
L 366.010706 -265.399863 
L 365.924522 -267.413511 
L 365.833114 -269.42716 
L 365.744225 -271.440809 
L 365.66545 -273.454457 
L 365.60365 -275.468106 
L 365.564341 -277.481755 
L 365.551144 -279.495403 
L 367.580731 -279.495403 
L 367.580731 -279.495403 
L 367.567534 -277.481755 
L 367.528225 -275.468106 
L 367.466425 -273.454457 
L 367.38765 -271.440809 
L 367.298761 -269.42716 
L 367.207353 -267.413511 
L 367.121169 -265.399863 
L 367.047646 -263.386214 
L 366.993615 -261.372566 
L 366.965162 -259.358917 
L 366.96759 -257.345268 
L 367.005418 -255.33162 
L 367.082335 -253.317971 
L 367.201052 -251.304322 
L 367.363068 -249.290674 
L 367.568365 -247.277025 
L 367.815162 -245.263377 
L 368.099819 -243.249728 
L 368.417049 -241.236079 
L 368.760503 -239.222431 
L 369.123761 -237.208782 
L 369.501667 -235.195133 
L 369.891812 -233.181485 
L 370.295947 -231.167836 
L 370.721008 -229.154188 
L 371.1795 -227.140539 
L 371.689005 -225.12689 
L 372.270776 -223.113242 
L 372.94745 -221.099593 
L 373.740149 -219.085944 
L 374.66533 -217.072296 
L 375.731832 -215.058647 
L 376.938598 -213.044999 
L 378.273484 -211.03135 
L 379.713437 -209.017701 
L 381.226145 -207.004053 
L 382.773057 -204.990404 
L 384.31345 -202.976755 
L 385.809035 -200.963107 
L 387.228488 -198.949458 
L 388.551278 -196.93581 
L 389.770221 -194.922161 
L 390.892404 -192.908512 
L 391.938324 -190.894864 
L 392.939371 -188.881215 
L 393.93401 -186.867566 
L 394.963141 -184.853918 
L 396.065221 -182.840269 
L 397.271676 -180.826621 
L 398.603096 -178.812972 
L 400.066532 -176.799323 
L 401.654162 -174.785675 
L 403.343383 -172.772026 
L 405.098308 -170.758377 
L 406.872449 -168.744729 
L 408.61225 -166.73108 
L 410.261004 -164.717432 
L 411.762635 -162.703783 
L 413.064889 -160.690134 
L 414.121608 -158.676486 
L 414.894011 -156.662837 
L 415.351156 -154.649188 
L 415.469937 -152.63554 
L 415.235067 -150.621891 
L 414.63939 -148.608243 
L 413.684692 -146.594594 
L 412.382871 -144.580945 
L 410.757101 -142.567297 
L 408.842469 -140.553648 
L 406.685584 -138.539999 
L 404.342851 -136.526351 
L 401.877369 -134.512702 
L 399.354749 -132.499054 
L 396.838414 -130.485405 
L 394.385066 -128.471756 
L 392.040992 -126.458108 
L 389.839724 -124.444459 
L 387.801307 -122.43081 
L 385.93313 -120.417162 
L 384.232037 -118.403513 
L 382.687248 -116.389865 
L 381.283556 -114.376216 
L 380.004313 -112.362567 
L 378.833816 -110.348919 
L 377.758884 -108.33527 
L 376.769571 -106.321621 
L 375.859097 -104.307973 
L 375.023198 -102.294324 
L 374.259124 -100.280676 
L 373.564529 -98.267027 
L 372.93647 -96.253378 
L 372.37068 -94.23973 
L 371.861217 -92.226081 
L 371.400535 -90.212432 
L 370.979931 -88.198784 
L 370.590306 -86.185135 
L 370.223071 -84.171487 
L 369.871054 -82.157838 
L 369.529232 -80.144189 
z
" style="stroke: #000000; stroke-opacity: 0.7"/>
    </defs>
    <g clip-path="url(#pfc2850b2bb)">
     <use xlink:href="#m20e0a06329" x="0" y="319.942911" style="fill: #bcbd22; fill-opacity: 0.7; stroke: #000000; stroke-opacity: 0.7"/>
    </g>
   </g>
   <g id="matplotlib.axis_1">
    <g id="xtick_1">
     <g id="line2d_1">
      <defs>
       <path id="m8f035689c0" d="M 0 0 
L 0 3.5 
" style="stroke: #000000; stroke-width: 0.8"/>
      </defs>
      <g>
       <use xlink:href="#m8f035689c0" x="122.045938" y="258.900181" style="stroke: #000000; stroke-width: 0.8"/>
      </g>
     </g>
     <g id="text_1">
      <!-- NovaEdge -->
      <g transform="translate(84.400456 307.606665) rotate(-45) scale(0.12 -0.12)">
       <defs>
        <path id="TimesNewRomanPSMT-4e" d="M -84 4238 
L 1066 4238 
L 3656 1059 
L 3656 3503 
Q 3656 3894 3569 3991 
Q 3453 4122 3203 4122 
L 3056 4122 
L 3056 4238 
L 4531 4238 
L 4531 4122 
L 4381 4122 
Q 4113 4122 4000 3959 
Q 3931 3859 3931 3503 
L 3931 -69 
L 3819 -69 
L 1025 3344 
L 1025 734 
Q 1025 344 1109 247 
Q 1228 116 1475 116 
L 1625 116 
L 1625 0 
L 150 0 
L 150 116 
L 297 116 
Q 569 116 681 278 
Q 750 378 750 734 
L 750 3681 
Q 566 3897 470 3965 
Q 375 4034 191 4094 
Q 100 4122 -84 4122 
L -84 4238 
z
" transform="scale(0.015625)"/>
        <path id="TimesNewRomanPSMT-6f" d="M 1600 2947 
Q 2250 2947 2644 2453 
Q 2978 2031 2978 1484 
Q 2978 1100 2793 706 
Q 2609 313 2286 112 
Q 1963 -88 1566 -88 
Q 919 -88 538 428 
Q 216 863 216 1403 
Q 216 1797 411 2186 
Q 606 2575 925 2761 
Q 1244 2947 1600 2947 
z
M 1503 2744 
Q 1338 2744 1170 2645 
Q 1003 2547 900 2300 
Q 797 2053 797 1666 
Q 797 1041 1045 587 
Q 1294 134 1700 134 
Q 2003 134 2200 384 
Q 2397 634 2397 1244 
Q 2397 2006 2069 2444 
Q 1847 2744 1503 2744 
z
" transform="scale(0.015625)"/>
        <path id="TimesNewRomanPSMT-76" d="M 53 2863 
L 1400 2863 
L 1400 2747 
L 1313 2747 
Q 1191 2747 1127 2687 
Q 1063 2628 1063 2528 
Q 1063 2419 1128 2269 
L 1794 688 
L 2463 2328 
Q 2534 2503 2534 2594 
Q 2534 2638 2509 2666 
Q 2475 2713 2422 2730 
Q 2369 2747 2206 2747 
L 2206 2863 
L 3141 2863 
L 3141 2747 
Q 2978 2734 2916 2681 
Q 2806 2588 2719 2369 
L 1703 -88 
L 1575 -88 
L 553 2328 
Q 484 2497 421 2570 
Q 359 2644 263 2694 
Q 209 2722 53 2747 
L 53 2863 
z
" transform="scale(0.015625)"/>
        <path id="TimesNewRomanPSMT-61" d="M 1822 413 
Q 1381 72 1269 19 
Q 1100 -59 909 -59 
Q 613 -59 420 144 
Q 228 347 228 678 
Q 228 888 322 1041 
Q 450 1253 767 1440 
Q 1084 1628 1822 1897 
L 1822 2009 
Q 1822 2438 1686 2597 
Q 1550 2756 1291 2756 
Q 1094 2756 978 2650 
Q 859 2544 859 2406 
L 866 2225 
Q 866 2081 792 2003 
Q 719 1925 600 1925 
Q 484 1925 411 2006 
Q 338 2088 338 2228 
Q 338 2497 613 2722 
Q 888 2947 1384 2947 
Q 1766 2947 2009 2819 
Q 2194 2722 2281 2516 
Q 2338 2381 2338 1966 
L 2338 994 
Q 2338 584 2353 492 
Q 2369 400 2405 369 
Q 2441 338 2488 338 
Q 2538 338 2575 359 
Q 2641 400 2828 588 
L 2828 413 
Q 2478 -56 2159 -56 
Q 2006 -56 1915 50 
Q 1825 156 1822 413 
z
M 1822 616 
L 1822 1706 
Q 1350 1519 1213 1441 
Q 966 1303 859 1153 
Q 753 1003 753 825 
Q 753 600 887 451 
Q 1022 303 1197 303 
Q 1434 303 1822 616 
z
" transform="scale(0.015625)"/>
        <path id="TimesNewRomanPSMT-45" d="M 1338 4006 
L 1338 2331 
L 2269 2331 
Q 2631 2331 2753 2441 
Q 2916 2584 2934 2947 
L 3050 2947 
L 3050 1472 
L 2934 1472 
Q 2891 1781 2847 1869 
Q 2791 1978 2662 2040 
Q 2534 2103 2269 2103 
L 1338 2103 
L 1338 706 
Q 1338 425 1363 364 
Q 1388 303 1450 267 
Q 1513 231 1688 231 
L 2406 231 
Q 2766 231 2928 281 
Q 3091 331 3241 478 
Q 3434 672 3638 1063 
L 3763 1063 
L 3397 0 
L 131 0 
L 131 116 
L 281 116 
Q 431 116 566 188 
Q 666 238 702 338 
Q 738 438 738 747 
L 738 3500 
Q 738 3903 656 3997 
Q 544 4122 281 4122 
L 131 4122 
L 131 4238 
L 3397 4238 
L 3444 3309 
L 3322 3309 
Q 3256 3644 3176 3769 
Q 3097 3894 2941 3959 
Q 2816 4006 2500 4006 
L 1338 4006 
z
" transform="scale(0.015625)"/>
        <path id="TimesNewRomanPSMT-64" d="M 2222 322 
Q 2013 103 1813 7 
Q 1613 -88 1381 -88 
Q 913 -88 563 304 
Q 213 697 213 1313 
Q 213 1928 600 2439 
Q 988 2950 1597 2950 
Q 1975 2950 2222 2709 
L 2222 3238 
Q 2222 3728 2198 3840 
Q 2175 3953 2125 3993 
Q 2075 4034 2000 4034 
Q 1919 4034 1784 3984 
L 1744 4094 
L 2597 4444 
L 2738 4444 
L 2738 1134 
Q 2738 631 2761 520 
Q 2784 409 2836 365 
Q 2888 322 2956 322 
Q 3041 322 3181 375 
L 3216 266 
L 2366 -88 
L 2222 -88 
L 2222 322 
z
M 2222 541 
L 2222 2016 
Q 2203 2228 2109 2403 
Q 2016 2578 1861 2667 
Q 1706 2756 1559 2756 
Q 1284 2756 1069 2509 
Q 784 2184 784 1559 
Q 784 928 1059 592 
Q 1334 256 1672 256 
Q 1956 256 2222 541 
z
" transform="scale(0.015625)"/>
        <path id="TimesNewRomanPSMT-67" d="M 966 1044 
Q 703 1172 562 1401 
Q 422 1631 422 1909 
Q 422 2334 742 2640 
Q 1063 2947 1563 2947 
Q 1972 2947 2272 2747 
L 2878 2747 
Q 3013 2747 3034 2739 
Q 3056 2731 3066 2713 
Q 3084 2684 3084 2613 
Q 3084 2531 3069 2500 
Q 3059 2484 3036 2475 
Q 3013 2466 2878 2466 
L 2506 2466 
Q 2681 2241 2681 1891 
Q 2681 1491 2375 1206 
Q 2069 922 1553 922 
Q 1341 922 1119 984 
Q 981 866 932 777 
Q 884 688 884 625 
Q 884 572 936 522 
Q 988 472 1138 450 
Q 1225 438 1575 428 
Q 2219 413 2409 384 
Q 2700 344 2873 169 
Q 3047 -6 3047 -263 
Q 3047 -616 2716 -925 
Q 2228 -1381 1444 -1381 
Q 841 -1381 425 -1109 
Q 191 -953 191 -784 
Q 191 -709 225 -634 
Q 278 -519 444 -313 
Q 466 -284 763 25 
Q 600 122 533 198 
Q 466 275 466 372 
Q 466 481 555 628 
Q 644 775 966 1044 
z
M 1509 2797 
Q 1278 2797 1122 2612 
Q 966 2428 966 2047 
Q 966 1553 1178 1281 
Q 1341 1075 1591 1075 
Q 1828 1075 1981 1253 
Q 2134 1431 2134 1813 
Q 2134 2309 1919 2591 
Q 1759 2797 1509 2797 
z
M 934 0 
Q 788 -159 713 -296 
Q 638 -434 638 -550 
Q 638 -700 819 -813 
Q 1131 -1006 1722 -1006 
Q 2284 -1006 2551 -807 
Q 2819 -609 2819 -384 
Q 2819 -222 2659 -153 
Q 2497 -84 2016 -72 
Q 1313 -53 934 0 
z
" transform="scale(0.015625)"/>
        <path id="TimesNewRomanPSMT-65" d="M 681 1784 
Q 678 1147 991 784 
Q 1303 422 1725 422 
Q 2006 422 2214 576 
Q 2422 731 2563 1106 
L 2659 1044 
Q 2594 616 2278 264 
Q 1963 -88 1488 -88 
Q 972 -88 605 314 
Q 238 716 238 1394 
Q 238 2128 614 2539 
Q 991 2950 1559 2950 
Q 2041 2950 2350 2633 
Q 2659 2316 2659 1784 
L 681 1784 
z
M 681 1966 
L 2006 1966 
Q 1991 2241 1941 2353 
Q 1863 2528 1708 2628 
Q 1553 2728 1384 2728 
Q 1125 2728 920 2526 
Q 716 2325 681 1966 
z
" transform="scale(0.015625)"/>
       </defs>
       <use xlink:href="#TimesNewRomanPSMT-4e"/>
       <use xlink:href="#TimesNewRomanPSMT-6f" x="72.216797"/>
       <use xlink:href="#TimesNewRomanPSMT-76" x="122.216797"/>
       <use xlink:href="#TimesNewRomanPSMT-61" x="172.216797"/>
       <use xlink:href="#TimesNewRomanPSMT-45" x="216.601562"/>
       <use xlink:href="#TimesNewRomanPSMT-64" x="277.685547"/>
       <use xlink:href="#TimesNewRomanPSMT-67" x="327.685547"/>
       <use xlink:href="#TimesNewRomanPSMT-65" x="377.685547"/>
      </g>
     </g>
    </g>
    <g id="xtick_2">
     <g id="line2d_2">
      <g>
       <use xlink:href="#m8f035689c0" x="244.305937" y="258.900181" style="stroke: #000000; stroke-width: 0.8"/>
      </g>
     </g>
     <g id="text_2">
      <!-- MarketZen -->
      <g transform="translate(204.79502 309.488011) rotate(-45) scale(0.12 -0.12)">
       <defs>
        <path id="TimesNewRomanPSMT-4d" d="M 2619 0 
L 981 3566 
L 981 734 
Q 981 344 1066 247 
Q 1181 116 1431 116 
L 1581 116 
L 1581 0 
L 106 0 
L 106 116 
L 256 116 
Q 525 116 638 278 
Q 706 378 706 734 
L 706 3503 
Q 706 3784 644 3909 
Q 600 4000 483 4061 
Q 366 4122 106 4122 
L 106 4238 
L 1306 4238 
L 2844 922 
L 4356 4238 
L 5556 4238 
L 5556 4122 
L 5409 4122 
Q 5138 4122 5025 3959 
Q 4956 3859 4956 3503 
L 4956 734 
Q 4956 344 5044 247 
Q 5159 116 5409 116 
L 5556 116 
L 5556 0 
L 3756 0 
L 3756 116 
L 3906 116 
Q 4178 116 4288 278 
Q 4356 378 4356 734 
L 4356 3566 
L 2722 0 
L 2619 0 
z
" transform="scale(0.015625)"/>
        <path id="TimesNewRomanPSMT-72" d="M 1038 2947 
L 1038 2303 
Q 1397 2947 1775 2947 
Q 1947 2947 2059 2842 
Q 2172 2738 2172 2600 
Q 2172 2478 2090 2393 
Q 2009 2309 1897 2309 
Q 1788 2309 1652 2417 
Q 1516 2525 1450 2525 
Q 1394 2525 1328 2463 
Q 1188 2334 1038 2041 
L 1038 669 
Q 1038 431 1097 309 
Q 1138 225 1241 169 
Q 1344 113 1538 113 
L 1538 0 
L 72 0 
L 72 113 
Q 291 113 397 181 
Q 475 231 506 341 
Q 522 394 522 644 
L 522 1753 
Q 522 2253 501 2348 
Q 481 2444 426 2487 
Q 372 2531 291 2531 
Q 194 2531 72 2484 
L 41 2597 
L 906 2947 
L 1038 2947 
z
" transform="scale(0.015625)"/>
        <path id="TimesNewRomanPSMT-6b" d="M 1047 4444 
L 1047 1597 
L 1775 2259 
Q 2006 2472 2044 2528 
Q 2069 2566 2069 2603 
Q 2069 2666 2017 2711 
Q 1966 2756 1847 2763 
L 1847 2863 
L 3091 2863 
L 3091 2763 
Q 2834 2756 2664 2684 
Q 2494 2613 2291 2428 
L 1556 1750 
L 2291 822 
Q 2597 438 2703 334 
Q 2853 188 2966 144 
Q 3044 113 3238 113 
L 3238 0 
L 1847 0 
L 1847 113 
Q 1966 116 2008 148 
Q 2050 181 2050 241 
Q 2050 313 1925 472 
L 1047 1594 
L 1047 644 
Q 1047 366 1086 278 
Q 1125 191 1197 153 
Q 1269 116 1509 113 
L 1509 0 
L 53 0 
L 53 113 
Q 272 113 381 166 
Q 447 200 481 272 
Q 528 375 528 628 
L 528 3234 
Q 528 3731 506 3842 
Q 484 3953 434 3995 
Q 384 4038 303 4038 
Q 238 4038 106 3984 
L 53 4094 
L 903 4444 
L 1047 4444 
z
" transform="scale(0.015625)"/>
        <path id="TimesNewRomanPSMT-74" d="M 1031 3803 
L 1031 2863 
L 1700 2863 
L 1700 2644 
L 1031 2644 
L 1031 788 
Q 1031 509 1111 412 
Q 1191 316 1316 316 
Q 1419 316 1516 380 
Q 1613 444 1666 569 
L 1788 569 
Q 1678 263 1478 108 
Q 1278 -47 1066 -47 
Q 922 -47 784 33 
Q 647 113 581 261 
Q 516 409 516 719 
L 516 2644 
L 63 2644 
L 63 2747 
Q 234 2816 414 2980 
Q 594 3144 734 3369 
Q 806 3488 934 3803 
L 1031 3803 
z
" transform="scale(0.015625)"/>
        <path id="TimesNewRomanPSMT-5a" d="M 3681 4238 
L 897 256 
L 2634 256 
Q 3034 256 3248 431 
Q 3463 606 3628 1141 
L 3731 1122 
L 3531 0 
L 81 0 
L 81 116 
L 2800 3984 
L 1444 3984 
Q 1106 3984 954 3911 
Q 803 3838 723 3698 
Q 644 3559 578 3178 
L 459 3178 
L 547 4238 
L 3681 4238 
z
" transform="scale(0.015625)"/>
        <path id="TimesNewRomanPSMT-6e" d="M 1034 2341 
Q 1538 2947 1994 2947 
Q 2228 2947 2397 2830 
Q 2566 2713 2666 2444 
Q 2734 2256 2734 1869 
L 2734 647 
Q 2734 375 2778 278 
Q 2813 200 2889 156 
Q 2966 113 3172 113 
L 3172 0 
L 1756 0 
L 1756 113 
L 1816 113 
Q 2016 113 2095 173 
Q 2175 234 2206 353 
Q 2219 400 2219 647 
L 2219 1819 
Q 2219 2209 2117 2386 
Q 2016 2563 1775 2563 
Q 1403 2563 1034 2156 
L 1034 647 
Q 1034 356 1069 288 
Q 1113 197 1189 155 
Q 1266 113 1500 113 
L 1500 0 
L 84 0 
L 84 113 
L 147 113 
Q 366 113 442 223 
Q 519 334 519 647 
L 519 1709 
Q 519 2225 495 2337 
Q 472 2450 423 2490 
Q 375 2531 294 2531 
Q 206 2531 84 2484 
L 38 2597 
L 900 2947 
L 1034 2947 
L 1034 2341 
z
" transform="scale(0.015625)"/>
       </defs>
       <use xlink:href="#TimesNewRomanPSMT-4d"/>
       <use xlink:href="#TimesNewRomanPSMT-61" x="88.916016"/>
       <use xlink:href="#TimesNewRomanPSMT-72" x="133.300781"/>
       <use xlink:href="#TimesNewRomanPSMT-6b" x="166.601562"/>
       <use xlink:href="#TimesNewRomanPSMT-65" x="216.601562"/>
       <use xlink:href="#TimesNewRomanPSMT-74" x="260.986328"/>
       <use xlink:href="#TimesNewRomanPSMT-5a" x="288.769531"/>
       <use xlink:href="#TimesNewRomanPSMT-65" x="349.853516"/>
       <use xlink:href="#TimesNewRomanPSMT-6e" x="394.238281"/>
      </g>
     </g>
    </g>
    <g id="xtick_3">
     <g id="line2d_3">
      <g>
       <use xlink:href="#m8f035689c0" x="366.565937" y="258.900181" style="stroke: #000000; stroke-width: 0.8"/>
      </g>
     </g>
     <g id="text_3">
      <!-- BrightEdge -->
      <g transform="translate(325.615174 310.911947) rotate(-45) scale(0.12 -0.12)">
       <defs>
        <path id="TimesNewRomanPSMT-42" d="M 2956 2163 
Q 3397 2069 3616 1863 
Q 3919 1575 3919 1159 
Q 3919 844 3719 555 
Q 3519 266 3170 133 
Q 2822 0 2106 0 
L 106 0 
L 106 116 
L 266 116 
Q 531 116 647 284 
Q 719 394 719 750 
L 719 3488 
Q 719 3881 628 3984 
Q 506 4122 266 4122 
L 106 4122 
L 106 4238 
L 1938 4238 
Q 2450 4238 2759 4163 
Q 3228 4050 3475 3764 
Q 3722 3478 3722 3106 
Q 3722 2788 3528 2536 
Q 3334 2284 2956 2163 
z
M 1319 2331 
Q 1434 2309 1582 2298 
Q 1731 2288 1909 2288 
Q 2366 2288 2595 2386 
Q 2825 2484 2947 2687 
Q 3069 2891 3069 3131 
Q 3069 3503 2766 3765 
Q 2463 4028 1881 4028 
Q 1569 4028 1319 3959 
L 1319 2331 
z
M 1319 306 
Q 1681 222 2034 222 
Q 2600 222 2897 476 
Q 3194 731 3194 1106 
Q 3194 1353 3059 1581 
Q 2925 1809 2622 1940 
Q 2319 2072 1872 2072 
Q 1678 2072 1540 2065 
Q 1403 2059 1319 2044 
L 1319 306 
z
" transform="scale(0.015625)"/>
        <path id="TimesNewRomanPSMT-69" d="M 928 4444 
Q 1059 4444 1151 4351 
Q 1244 4259 1244 4128 
Q 1244 3997 1151 3903 
Q 1059 3809 928 3809 
Q 797 3809 703 3903 
Q 609 3997 609 4128 
Q 609 4259 701 4351 
Q 794 4444 928 4444 
z
M 1188 2947 
L 1188 647 
Q 1188 378 1227 289 
Q 1266 200 1342 156 
Q 1419 113 1622 113 
L 1622 0 
L 231 0 
L 231 113 
Q 441 113 512 153 
Q 584 194 626 287 
Q 669 381 669 647 
L 669 1750 
Q 669 2216 641 2353 
Q 619 2453 572 2492 
Q 525 2531 444 2531 
Q 356 2531 231 2484 
L 188 2597 
L 1050 2947 
L 1188 2947 
z
" transform="scale(0.015625)"/>
        <path id="TimesNewRomanPSMT-68" d="M 1041 4444 
L 1041 2350 
Q 1388 2731 1591 2839 
Q 1794 2947 1997 2947 
Q 2241 2947 2416 2812 
Q 2591 2678 2675 2391 
Q 2734 2191 2734 1659 
L 2734 647 
Q 2734 375 2778 275 
Q 2809 200 2884 156 
Q 2959 113 3159 113 
L 3159 0 
L 1753 0 
L 1753 113 
L 1819 113 
Q 2019 113 2097 173 
Q 2175 234 2206 353 
Q 2216 403 2216 647 
L 2216 1659 
Q 2216 2128 2167 2275 
Q 2119 2422 2012 2495 
Q 1906 2569 1756 2569 
Q 1603 2569 1437 2487 
Q 1272 2406 1041 2159 
L 1041 647 
Q 1041 353 1073 281 
Q 1106 209 1195 161 
Q 1284 113 1503 113 
L 1503 0 
L 84 0 
L 84 113 
Q 275 113 384 172 
Q 447 203 484 290 
Q 522 378 522 647 
L 522 3238 
Q 522 3728 498 3840 
Q 475 3953 426 3993 
Q 378 4034 297 4034 
Q 231 4034 84 3984 
L 41 4094 
L 897 4444 
L 1041 4444 
z
" transform="scale(0.015625)"/>
       </defs>
       <use xlink:href="#TimesNewRomanPSMT-42"/>
       <use xlink:href="#TimesNewRomanPSMT-72" x="66.699219"/>
       <use xlink:href="#TimesNewRomanPSMT-69" x="100"/>
       <use xlink:href="#TimesNewRomanPSMT-67" x="127.783203"/>
       <use xlink:href="#TimesNewRomanPSMT-68" x="177.783203"/>
       <use xlink:href="#TimesNewRomanPSMT-74" x="227.783203"/>
       <use xlink:href="#TimesNewRomanPSMT-45" x="255.566406"/>
       <use xlink:href="#TimesNewRomanPSMT-64" x="316.650391"/>
       <use xlink:href="#TimesNewRomanPSMT-67" x="366.650391"/>
       <use xlink:href="#TimesNewRomanPSMT-65" x="416.650391"/>
      </g>
     </g>
    </g>
   </g>
   <g id="matplotlib.axis_2">
    <g id="ytick_1">
     <g id="line2d_4">
      <defs>
       <path id="mc2c0d72af1" d="M 0 0 
L -3.5 0 
" style="stroke: #000000; stroke-width: 0.8"/>
      </defs>
      <g>
       <use xlink:href="#mc2c0d72af1" x="60.915938" y="249.130733" style="stroke: #000000; stroke-width: 0.8"/>
      </g>
     </g>
     <g id="text_4">
      <!-- 0 -->
      <g transform="translate(48.915938 252.602608) scale(0.1 -0.1)">
       <defs>
        <path id="TimesNewRomanPSMT-30" d="M 231 2094 
Q 231 2819 450 3342 
Q 669 3866 1031 4122 
Q 1313 4325 1613 4325 
Q 2100 4325 2488 3828 
Q 2972 3213 2972 2159 
Q 2972 1422 2759 906 
Q 2547 391 2217 158 
Q 1888 -75 1581 -75 
Q 975 -75 572 641 
Q 231 1244 231 2094 
z
M 844 2016 
Q 844 1141 1059 588 
Q 1238 122 1591 122 
Q 1759 122 1940 273 
Q 2122 425 2216 781 
Q 2359 1319 2359 2297 
Q 2359 3022 2209 3506 
Q 2097 3866 1919 4016 
Q 1791 4119 1609 4119 
Q 1397 4119 1231 3928 
Q 1006 3669 925 3112 
Q 844 2556 844 2016 
z
" transform="scale(0.015625)"/>
       </defs>
       <use xlink:href="#TimesNewRomanPSMT-30"/>
      </g>
     </g>
    </g>
    <g id="ytick_2">
     <g id="line2d_5">
      <g>
       <use xlink:href="#mc2c0d72af1" x="60.915938" y="216.995711" style="stroke: #000000; stroke-width: 0.8"/>
      </g>
     </g>
     <g id="text_5">
      <!-- 20000 -->
      <g transform="translate(28.915938 220.467586) scale(0.1 -0.1)">
       <defs>
        <path id="TimesNewRomanPSMT-32" d="M 2934 816 
L 2638 0 
L 138 0 
L 138 116 
Q 1241 1122 1691 1759 
Q 2141 2397 2141 2925 
Q 2141 3328 1894 3587 
Q 1647 3847 1303 3847 
Q 991 3847 742 3664 
Q 494 3481 375 3128 
L 259 3128 
Q 338 3706 661 4015 
Q 984 4325 1469 4325 
Q 1984 4325 2329 3994 
Q 2675 3663 2675 3213 
Q 2675 2891 2525 2569 
Q 2294 2063 1775 1497 
Q 997 647 803 472 
L 1909 472 
Q 2247 472 2383 497 
Q 2519 522 2628 598 
Q 2738 675 2819 816 
L 2934 816 
z
" transform="scale(0.015625)"/>
       </defs>
       <use xlink:href="#TimesNewRomanPSMT-32"/>
       <use xlink:href="#TimesNewRomanPSMT-30" x="50"/>
       <use xlink:href="#TimesNewRomanPSMT-30" x="100"/>
       <use xlink:href="#TimesNewRomanPSMT-30" x="150"/>
       <use xlink:href="#TimesNewRomanPSMT-30" x="200"/>
      </g>
     </g>
    </g>
    <g id="ytick_3">
     <g id="line2d_6">
      <g>
       <use xlink:href="#mc2c0d72af1" x="60.915938" y="184.860689" style="stroke: #000000; stroke-width: 0.8"/>
      </g>
     </g>
     <g id="text_6">
      <!-- 40000 -->
      <g transform="translate(28.915938 188.332564) scale(0.1 -0.1)">
       <defs>
        <path id="TimesNewRomanPSMT-34" d="M 2978 1563 
L 2978 1119 
L 2409 1119 
L 2409 0 
L 1894 0 
L 1894 1119 
L 100 1119 
L 100 1519 
L 2066 4325 
L 2409 4325 
L 2409 1563 
L 2978 1563 
z
M 1894 1563 
L 1894 3666 
L 406 1563 
L 1894 1563 
z
" transform="scale(0.015625)"/>
       </defs>
       <use xlink:href="#TimesNewRomanPSMT-34"/>
       <use xlink:href="#TimesNewRomanPSMT-30" x="50"/>
       <use xlink:href="#TimesNewRomanPSMT-30" x="100"/>
       <use xlink:href="#TimesNewRomanPSMT-30" x="150"/>
       <use xlink:href="#TimesNewRomanPSMT-30" x="200"/>
      </g>
     </g>
    </g>
    <g id="ytick_4">
     <g id="line2d_7">
      <g>
       <use xlink:href="#mc2c0d72af1" x="60.915938" y="152.725667" style="stroke: #000000; stroke-width: 0.8"/>
      </g>
     </g>
     <g id="text_7">
      <!-- 60000 -->
      <g transform="translate(28.915938 156.197542) scale(0.1 -0.1)">
       <defs>
        <path id="TimesNewRomanPSMT-36" d="M 2869 4325 
L 2869 4209 
Q 2456 4169 2195 4045 
Q 1934 3922 1679 3669 
Q 1425 3416 1258 3105 
Q 1091 2794 978 2366 
Q 1428 2675 1881 2675 
Q 2316 2675 2634 2325 
Q 2953 1975 2953 1425 
Q 2953 894 2631 456 
Q 2244 -75 1606 -75 
Q 1172 -75 869 213 
Q 275 772 275 1663 
Q 275 2231 503 2743 
Q 731 3256 1154 3653 
Q 1578 4050 1965 4187 
Q 2353 4325 2688 4325 
L 2869 4325 
z
M 925 2138 
Q 869 1716 869 1456 
Q 869 1156 980 804 
Q 1091 453 1309 247 
Q 1469 100 1697 100 
Q 1969 100 2183 356 
Q 2397 613 2397 1088 
Q 2397 1622 2184 2012 
Q 1972 2403 1581 2403 
Q 1463 2403 1327 2353 
Q 1191 2303 925 2138 
z
" transform="scale(0.015625)"/>
       </defs>
       <use xlink:href="#TimesNewRomanPSMT-36"/>
       <use xlink:href="#TimesNewRomanPSMT-30" x="50"/>
       <use xlink:href="#TimesNewRomanPSMT-30" x="100"/>
       <use xlink:href="#TimesNewRomanPSMT-30" x="150"/>
       <use xlink:href="#TimesNewRomanPSMT-30" x="200"/>
      </g>
     </g>
    </g>
    <g id="ytick_5">
     <g id="line2d_8">
      <g>
       <use xlink:href="#mc2c0d72af1" x="60.915938" y="120.590646" style="stroke: #000000; stroke-width: 0.8"/>
      </g>
     </g>
     <g id="text_8">
      <!-- 80000 -->
      <g transform="translate(28.915938 124.062521) scale(0.1 -0.1)">
       <defs>
        <path id="TimesNewRomanPSMT-38" d="M 1228 2134 
Q 725 2547 579 2797 
Q 434 3047 434 3316 
Q 434 3728 753 4026 
Q 1072 4325 1600 4325 
Q 2113 4325 2425 4047 
Q 2738 3769 2738 3413 
Q 2738 3175 2569 2928 
Q 2400 2681 1866 2347 
Q 2416 1922 2594 1678 
Q 2831 1359 2831 1006 
Q 2831 559 2490 242 
Q 2150 -75 1597 -75 
Q 994 -75 656 303 
Q 388 606 388 966 
Q 388 1247 577 1523 
Q 766 1800 1228 2134 
z
M 1719 2469 
Q 2094 2806 2194 3001 
Q 2294 3197 2294 3444 
Q 2294 3772 2109 3958 
Q 1925 4144 1606 4144 
Q 1288 4144 1088 3959 
Q 888 3775 888 3528 
Q 888 3366 970 3203 
Q 1053 3041 1206 2894 
L 1719 2469 
z
M 1375 2016 
Q 1116 1797 991 1539 
Q 866 1281 866 981 
Q 866 578 1086 336 
Q 1306 94 1647 94 
Q 1984 94 2187 284 
Q 2391 475 2391 747 
Q 2391 972 2272 1150 
Q 2050 1481 1375 2016 
z
" transform="scale(0.015625)"/>
       </defs>
       <use xlink:href="#TimesNewRomanPSMT-38"/>
       <use xlink:href="#TimesNewRomanPSMT-30" x="50"/>
       <use xlink:href="#TimesNewRomanPSMT-30" x="100"/>
       <use xlink:href="#TimesNewRomanPSMT-30" x="150"/>
       <use xlink:href="#TimesNewRomanPSMT-30" x="200"/>
      </g>
     </g>
    </g>
    <g id="ytick_6">
     <g id="line2d_9">
      <g>
       <use xlink:href="#mc2c0d72af1" x="60.915938" y="88.455624" style="stroke: #000000; stroke-width: 0.8"/>
      </g>
     </g>
     <g id="text_9">
      <!-- 100000 -->
      <g transform="translate(23.915938 91.927499) scale(0.1 -0.1)">
       <defs>
        <path id="TimesNewRomanPSMT-31" d="M 750 3822 
L 1781 4325 
L 1884 4325 
L 1884 747 
Q 1884 391 1914 303 
Q 1944 216 2037 169 
Q 2131 122 2419 116 
L 2419 0 
L 825 0 
L 825 116 
Q 1125 122 1212 167 
Q 1300 213 1334 289 
Q 1369 366 1369 747 
L 1369 3034 
Q 1369 3497 1338 3628 
Q 1316 3728 1258 3775 
Q 1200 3822 1119 3822 
Q 1003 3822 797 3725 
L 750 3822 
z
" transform="scale(0.015625)"/>
       </defs>
       <use xlink:href="#TimesNewRomanPSMT-31"/>
       <use xlink:href="#TimesNewRomanPSMT-30" x="50"/>
       <use xlink:href="#TimesNewRomanPSMT-30" x="100"/>
       <use xlink:href="#TimesNewRomanPSMT-30" x="150"/>
       <use xlink:href="#TimesNewRomanPSMT-30" x="200"/>
       <use xlink:href="#TimesNewRomanPSMT-30" x="250"/>
      </g>
     </g>
    </g>
    <g id="ytick_7">
     <g id="line2d_10">
      <g>
       <use xlink:href="#mc2c0d72af1" x="60.915938" y="56.320602" style="stroke: #000000; stroke-width: 0.8"/>
      </g>
     </g>
     <g id="text_10">
      <!-- 120000 -->
      <g transform="translate(23.915938 59.792477) scale(0.1 -0.1)">
       <use xlink:href="#TimesNewRomanPSMT-31"/>
       <use xlink:href="#TimesNewRomanPSMT-32" x="50"/>
       <use xlink:href="#TimesNewRomanPSMT-30" x="100"/>
       <use xlink:href="#TimesNewRomanPSMT-30" x="150"/>
       <use xlink:href="#TimesNewRomanPSMT-30" x="200"/>
       <use xlink:href="#TimesNewRomanPSMT-30" x="250"/>
      </g>
     </g>
    </g>
    <g id="text_11">
     <!-- USD -->
     <g transform="translate(16.92125 158.475872) rotate(-90) scale(0.14 -0.14)">
      <defs>
       <path id="TimesNewRomanPSMT-55" d="M 3053 4122 
L 3053 4238 
L 4553 4238 
L 4553 4122 
L 4394 4122 
Q 4144 4122 4009 3913 
Q 3944 3816 3944 3463 
L 3944 1744 
Q 3944 1106 3817 754 
Q 3691 403 3320 151 
Q 2950 -100 2313 -100 
Q 1619 -100 1259 140 
Q 900 381 750 788 
Q 650 1066 650 1831 
L 650 3488 
Q 650 3878 542 4000 
Q 434 4122 194 4122 
L 34 4122 
L 34 4238 
L 1866 4238 
L 1866 4122 
L 1703 4122 
Q 1441 4122 1328 3956 
Q 1250 3844 1250 3488 
L 1250 1641 
Q 1250 1394 1295 1075 
Q 1341 756 1459 578 
Q 1578 400 1801 284 
Q 2025 169 2350 169 
Q 2766 169 3094 350 
Q 3422 531 3542 814 
Q 3663 1097 3663 1772 
L 3663 3488 
Q 3663 3884 3575 3984 
Q 3453 4122 3213 4122 
L 3053 4122 
z
" transform="scale(0.015625)"/>
       <path id="TimesNewRomanPSMT-53" d="M 2934 4334 
L 2934 2869 
L 2819 2869 
Q 2763 3291 2617 3541 
Q 2472 3791 2203 3937 
Q 1934 4084 1647 4084 
Q 1322 4084 1109 3886 
Q 897 3688 897 3434 
Q 897 3241 1031 3081 
Q 1225 2847 1953 2456 
Q 2547 2138 2764 1967 
Q 2981 1797 3098 1565 
Q 3216 1334 3216 1081 
Q 3216 600 2842 251 
Q 2469 -97 1881 -97 
Q 1697 -97 1534 -69 
Q 1438 -53 1133 45 
Q 828 144 747 144 
Q 669 144 623 97 
Q 578 50 556 -97 
L 441 -97 
L 441 1356 
L 556 1356 
Q 638 900 775 673 
Q 913 447 1195 297 
Q 1478 147 1816 147 
Q 2206 147 2432 353 
Q 2659 559 2659 841 
Q 2659 997 2573 1156 
Q 2488 1316 2306 1453 
Q 2184 1547 1640 1851 
Q 1097 2156 867 2337 
Q 638 2519 519 2737 
Q 400 2956 400 3219 
Q 400 3675 750 4004 
Q 1100 4334 1641 4334 
Q 1978 4334 2356 4169 
Q 2531 4091 2603 4091 
Q 2684 4091 2736 4139 
Q 2788 4188 2819 4334 
L 2934 4334 
z
" transform="scale(0.015625)"/>
       <path id="TimesNewRomanPSMT-44" d="M 109 0 
L 109 116 
L 269 116 
Q 538 116 650 288 
Q 719 391 719 750 
L 719 3488 
Q 719 3884 631 3984 
Q 509 4122 269 4122 
L 109 4122 
L 109 4238 
L 1834 4238 
Q 2784 4238 3279 4022 
Q 3775 3806 4076 3303 
Q 4378 2800 4378 2141 
Q 4378 1256 3841 663 
Q 3238 0 2003 0 
L 109 0 
z
M 1319 306 
Q 1716 219 1984 219 
Q 2709 219 3187 728 
Q 3666 1238 3666 2109 
Q 3666 2988 3187 3494 
Q 2709 4000 1959 4000 
Q 1678 4000 1319 3909 
L 1319 306 
z
" transform="scale(0.015625)"/>
      </defs>
      <use xlink:href="#TimesNewRomanPSMT-55"/>
      <use xlink:href="#TimesNewRomanPSMT-53" x="72.216797"/>
      <use xlink:href="#TimesNewRomanPSMT-44" x="127.832031"/>
     </g>
    </g>
   </g>
   <g id="patch_3">
    <path d="M 114.710338 187.021769 
L 129.381538 187.021769 
L 129.381538 150.662599 
L 114.710338 150.662599 
L 114.710338 187.021769 
L 114.710338 187.021769 
z
" clip-path="url(#pfc2850b2bb)" style="fill: none; stroke: #000000; stroke-linejoin: miter"/>
   </g>
   <g id="line2d_11">
    <path d="M 122.045938 187.021769 
L 122.045938 235.977868 
" clip-path="url(#pfc2850b2bb)" style="fill: none; stroke: #000000; stroke-linecap: square"/>
   </g>
   <g id="line2d_12">
    <path d="M 122.045938 150.662599 
L 122.045938 108.099763 
" clip-path="url(#pfc2850b2bb)" style="fill: none; stroke: #000000; stroke-linecap: square"/>
   </g>
   <g id="line2d_13">
    <path d="M 118.378138 235.977868 
L 125.713738 235.977868 
" clip-path="url(#pfc2850b2bb)" style="fill: none; stroke: #000000; stroke-linecap: square"/>
   </g>
   <g id="line2d_14">
    <path d="M 118.378138 108.099763 
L 125.713738 108.099763 
" clip-path="url(#pfc2850b2bb)" style="fill: none; stroke: #000000; stroke-linecap: square"/>
   </g>
   <g id="patch_4">
    <path d="M 236.970337 183.874144 
L 251.641537 183.874144 
L 251.641537 150.607969 
L 236.970337 150.607969 
L 236.970337 183.874144 
L 236.970337 183.874144 
z
" clip-path="url(#pfc2850b2bb)" style="fill: none; stroke: #000000; stroke-linejoin: miter"/>
   </g>
   <g id="line2d_15">
    <path d="M 244.305937 183.874144 
L 244.305937 228.326519 
" clip-path="url(#pfc2850b2bb)" style="fill: none; stroke: #000000; stroke-linecap: square"/>
   </g>
   <g id="line2d_16">
    <path d="M 244.305937 150.607969 
L 244.305937 113.56111 
" clip-path="url(#pfc2850b2bb)" style="fill: none; stroke: #000000; stroke-linecap: square"/>
   </g>
   <g id="line2d_17">
    <path d="M 240.638137 228.326519 
L 247.973737 228.326519 
" clip-path="url(#pfc2850b2bb)" style="fill: none; stroke: #000000; stroke-linecap: square"/>
   </g>
   <g id="line2d_18">
    <path d="M 240.638137 113.56111 
L 247.973737 113.56111 
" clip-path="url(#pfc2850b2bb)" style="fill: none; stroke: #000000; stroke-linecap: square"/>
   </g>
   <g id="patch_5">
    <path d="M 359.230337 178.258549 
L 373.901537 178.258549 
L 373.901537 141.91866 
L 359.230337 141.91866 
L 359.230337 178.258549 
L 359.230337 178.258549 
z
" clip-path="url(#pfc2850b2bb)" style="fill: none; stroke: #000000; stroke-linejoin: miter"/>
   </g>
   <g id="line2d_19">
    <path d="M 366.565937 178.258549 
L 366.565937 223.384153 
" clip-path="url(#pfc2850b2bb)" style="fill: none; stroke: #000000; stroke-linecap: square"/>
   </g>
   <g id="line2d_20">
    <path d="M 366.565937 141.91866 
L 366.565937 92.416265 
" clip-path="url(#pfc2850b2bb)" style="fill: none; stroke: #000000; stroke-linecap: square"/>
   </g>
   <g id="line2d_21">
    <path d="M 362.898137 223.384153 
L 370.233737 223.384153 
" clip-path="url(#pfc2850b2bb)" style="fill: none; stroke: #000000; stroke-linecap: square"/>
   </g>
   <g id="line2d_22">
    <path d="M 362.898137 92.416265 
L 370.233737 92.416265 
" clip-path="url(#pfc2850b2bb)" style="fill: none; stroke: #000000; stroke-linecap: square"/>
   </g>
   <g id="line2d_23">
    <path d="M 114.710338 164.981965 
L 129.381538 164.981965 
" clip-path="url(#pfc2850b2bb)" style="fill: none; stroke: #000000; stroke-width: 1.5; stroke-linecap: square"/>
   </g>
   <g id="line2d_24">
    <path d="M 236.970337 167.416193 
L 251.641537 167.416193 
" clip-path="url(#pfc2850b2bb)" style="fill: none; stroke: #000000; stroke-width: 1.5; stroke-linecap: square"/>
   </g>
   <g id="line2d_25">
    <path d="M 359.230337 161.962879 
L 373.901537 161.962879 
" clip-path="url(#pfc2850b2bb)" style="fill: none; stroke: #000000; stroke-width: 1.5; stroke-linecap: square"/>
   </g>
   <g id="patch_6">
    <path d="M 60.915938 258.900181 
L 60.915938 30.045 
" style="fill: none; stroke: #000000; stroke-linejoin: miter; stroke-linecap: square"/>
   </g>
   <g id="patch_7">
    <path d="M 427.695937 258.900181 
L 427.695937 30.045 
" style="fill: none; stroke: #000000; stroke-linejoin: miter; stroke-linecap: square"/>
   </g>
   <g id="patch_8">
    <path d="M 60.915938 258.900181 
L 427.695937 258.900181 
" style="fill: none; stroke: #000000; stroke-linejoin: miter; stroke-linecap: square"/>
   </g>
   <g id="patch_9">
    <path d="M 60.915938 30.045 
L 427.695937 30.045 
" style="fill: none; stroke: #000000; stroke-linejoin: miter; stroke-linecap: square"/>
   </g>
   <g id="text_12">
    <!-- Data on the monthly revenue of different companies (USD) -->
    <g transform="translate(43.722187 18.045) scale(0.16 -0.16)">
     <defs>
      <path id="TimesNewRomanPS-BoldMT-44" d="M 84 0 
L 84 116 
L 225 116 
Q 409 116 507 173 
Q 606 231 653 331 
Q 681 397 681 725 
L 681 3513 
Q 681 3838 647 3919 
Q 613 4000 508 4061 
Q 403 4122 225 4122 
L 84 4122 
L 84 4238 
L 1981 4238 
Q 2741 4238 3203 4031 
Q 3769 3778 4061 3265 
Q 4353 2753 4353 2106 
Q 4353 1659 4209 1282 
Q 4066 906 3837 661 
Q 3609 416 3311 267 
Q 3013 119 2581 38 
Q 2391 0 1981 0 
L 84 0 
z
M 1700 3997 
L 1700 691 
Q 1700 428 1725 368 
Q 1750 309 1809 278 
Q 1894 231 2053 231 
Q 2575 231 2850 588 
Q 3225 1069 3225 2081 
Q 3225 2897 2969 3384 
Q 2766 3766 2447 3903 
Q 2222 4000 1700 3997 
z
" transform="scale(0.015625)"/>
      <path id="TimesNewRomanPS-BoldMT-61" d="M 1828 431 
Q 1294 -41 869 -41 
Q 619 -41 453 123 
Q 288 288 288 534 
Q 288 869 575 1136 
Q 863 1403 1828 1847 
L 1828 2141 
Q 1828 2472 1792 2558 
Q 1756 2644 1656 2708 
Q 1556 2772 1431 2772 
Q 1228 2772 1097 2681 
Q 1016 2625 1016 2550 
Q 1016 2484 1103 2388 
Q 1222 2253 1222 2128 
Q 1222 1975 1108 1867 
Q 994 1759 809 1759 
Q 613 1759 480 1878 
Q 347 1997 347 2156 
Q 347 2381 525 2586 
Q 703 2791 1022 2900 
Q 1341 3009 1684 3009 
Q 2100 3009 2342 2832 
Q 2584 2656 2656 2450 
Q 2700 2319 2700 1847 
L 2700 713 
Q 2700 513 2715 461 
Q 2731 409 2762 384 
Q 2794 359 2834 359 
Q 2916 359 3000 475 
L 3094 400 
Q 2938 169 2770 64 
Q 2603 -41 2391 -41 
Q 2141 -41 2000 76 
Q 1859 194 1828 431 
z
M 1828 659 
L 1828 1638 
Q 1450 1416 1266 1163 
Q 1144 994 1144 822 
Q 1144 678 1247 569 
Q 1325 484 1466 484 
Q 1622 484 1828 659 
z
" transform="scale(0.015625)"/>
      <path id="TimesNewRomanPS-BoldMT-74" d="M 1375 3991 
L 1375 2922 
L 2069 2922 
L 2069 2613 
L 1375 2613 
L 1375 809 
Q 1375 556 1398 482 
Q 1422 409 1481 364 
Q 1541 319 1591 319 
Q 1794 319 1975 628 
L 2069 559 
Q 1816 -41 1247 -41 
Q 969 -41 776 114 
Q 584 269 531 459 
Q 500 566 500 1034 
L 500 2613 
L 119 2613 
L 119 2722 
Q 513 3000 789 3306 
Q 1066 3613 1272 3991 
L 1375 3991 
z
" transform="scale(0.015625)"/>
      <path id="TimesNewRomanPS-BoldMT-20" transform="scale(0.015625)"/>
      <path id="TimesNewRomanPS-BoldMT-6f" d="M 1594 3009 
Q 1975 3009 2303 2812 
Q 2631 2616 2801 2253 
Q 2972 1891 2972 1459 
Q 2972 838 2656 419 
Q 2275 -88 1603 -88 
Q 944 -88 587 375 
Q 231 838 231 1447 
Q 231 2075 595 2542 
Q 959 3009 1594 3009 
z
M 1606 2788 
Q 1447 2788 1333 2667 
Q 1219 2547 1183 2192 
Q 1147 1838 1147 1206 
Q 1147 872 1191 581 
Q 1225 359 1337 243 
Q 1450 128 1594 128 
Q 1734 128 1828 206 
Q 1950 313 1991 503 
Q 2053 800 2053 1703 
Q 2053 2234 1993 2432 
Q 1934 2631 1819 2722 
Q 1738 2788 1606 2788 
z
" transform="scale(0.015625)"/>
      <path id="TimesNewRomanPS-BoldMT-6e" d="M 1409 2922 
L 1409 2544 
Q 1634 2788 1840 2898 
Q 2047 3009 2284 3009 
Q 2569 3009 2756 2851 
Q 2944 2694 3006 2459 
Q 3056 2281 3056 1775 
L 3056 638 
Q 3056 300 3117 217 
Q 3178 134 3372 113 
L 3372 0 
L 1894 0 
L 1894 113 
Q 2059 134 2131 250 
Q 2181 328 2181 638 
L 2181 1938 
Q 2181 2297 2153 2390 
Q 2125 2484 2058 2536 
Q 1991 2588 1909 2588 
Q 1641 2588 1409 2203 
L 1409 638 
Q 1409 309 1470 221 
Q 1531 134 1697 113 
L 1697 0 
L 219 0 
L 219 113 
Q 403 131 481 231 
Q 534 300 534 638 
L 534 2288 
Q 534 2619 473 2700 
Q 413 2781 219 2806 
L 219 2922 
L 1409 2922 
z
" transform="scale(0.015625)"/>
      <path id="TimesNewRomanPS-BoldMT-68" d="M 1409 4238 
L 1409 2547 
Q 1650 2800 1850 2904 
Q 2050 3009 2266 3009 
Q 2541 3009 2736 2853 
Q 2931 2697 2995 2486 
Q 3059 2275 3059 1775 
L 3059 634 
Q 3059 300 3121 217 
Q 3184 134 3375 113 
L 3375 0 
L 1894 0 
L 1894 113 
Q 2050 134 2128 238 
Q 2184 319 2184 634 
L 2184 1938 
Q 2184 2300 2156 2392 
Q 2128 2484 2061 2536 
Q 1994 2588 1909 2588 
Q 1784 2588 1665 2502 
Q 1547 2416 1409 2200 
L 1409 634 
Q 1409 322 1456 244 
Q 1516 138 1700 113 
L 1700 0 
L 219 0 
L 219 113 
Q 403 131 481 231 
Q 534 300 534 634 
L 534 3603 
Q 534 3934 473 4015 
Q 413 4097 219 4122 
L 219 4238 
L 1409 4238 
z
" transform="scale(0.015625)"/>
      <path id="TimesNewRomanPS-BoldMT-65" d="M 2691 1566 
L 1088 1566 
Q 1116 984 1397 647 
Q 1613 388 1916 388 
Q 2103 388 2256 492 
Q 2409 597 2584 869 
L 2691 800 
Q 2453 316 2165 114 
Q 1878 -88 1500 -88 
Q 850 -88 516 413 
Q 247 816 247 1413 
Q 247 2144 642 2576 
Q 1038 3009 1569 3009 
Q 2013 3009 2339 2645 
Q 2666 2281 2691 1566 
z
M 1922 1775 
Q 1922 2278 1867 2465 
Q 1813 2653 1697 2750 
Q 1631 2806 1522 2806 
Q 1359 2806 1256 2647 
Q 1072 2369 1072 1884 
L 1072 1775 
L 1922 1775 
z
" transform="scale(0.015625)"/>
      <path id="TimesNewRomanPS-BoldMT-6d" d="M 1428 2922 
L 1428 2538 
Q 1669 2800 1873 2904 
Q 2078 3009 2322 3009 
Q 2603 3009 2793 2878 
Q 2984 2747 3088 2478 
Q 3338 2759 3567 2884 
Q 3797 3009 4047 3009 
Q 4350 3009 4529 2870 
Q 4709 2731 4779 2517 
Q 4850 2303 4850 1834 
L 4850 638 
Q 4850 300 4911 219 
Q 4972 138 5166 113 
L 5166 0 
L 3656 0 
L 3656 113 
Q 3834 128 3919 250 
Q 3975 334 3975 638 
L 3975 1894 
Q 3975 2284 3944 2390 
Q 3913 2497 3845 2548 
Q 3778 2600 3688 2600 
Q 3553 2600 3415 2501 
Q 3278 2403 3138 2206 
L 3138 638 
Q 3138 322 3191 241 
Q 3263 125 3466 113 
L 3466 0 
L 1953 0 
L 1953 113 
Q 2075 119 2145 173 
Q 2216 228 2239 304 
Q 2263 381 2263 638 
L 2263 1894 
Q 2263 2291 2231 2391 
Q 2200 2491 2126 2547 
Q 2053 2603 1969 2603 
Q 1844 2603 1741 2538 
Q 1594 2441 1428 2206 
L 1428 638 
Q 1428 328 1489 229 
Q 1550 131 1744 113 
L 1744 0 
L 238 0 
L 238 113 
Q 422 131 500 231 
Q 553 300 553 638 
L 553 2288 
Q 553 2619 492 2700 
Q 431 2781 238 2806 
L 238 2922 
L 1428 2922 
z
" transform="scale(0.015625)"/>
      <path id="TimesNewRomanPS-BoldMT-6c" d="M 1359 4238 
L 1359 606 
Q 1359 297 1431 211 
Q 1503 125 1713 113 
L 1713 0 
L 134 0 
L 134 113 
Q 328 119 422 225 
Q 484 297 484 606 
L 484 3631 
Q 484 3938 412 4023 
Q 341 4109 134 4122 
L 134 4238 
L 1359 4238 
z
" transform="scale(0.015625)"/>
      <path id="TimesNewRomanPS-BoldMT-79" d="M 1556 -119 
L 613 2047 
Q 400 2538 298 2650 
Q 197 2763 53 2806 
L 53 2922 
L 1606 2922 
L 1606 2806 
Q 1453 2800 1390 2747 
Q 1328 2694 1328 2619 
Q 1328 2500 1484 2150 
L 1984 1006 
L 2325 1891 
Q 2509 2363 2509 2547 
Q 2509 2663 2432 2731 
Q 2356 2800 2163 2806 
L 2163 2922 
L 3141 2922 
L 3141 2806 
Q 2997 2791 2906 2695 
Q 2816 2600 2603 2047 
L 1769 -119 
Q 1453 -931 1300 -1119 
Q 1084 -1381 759 -1381 
Q 500 -1381 339 -1232 
Q 178 -1084 178 -875 
Q 178 -694 289 -575 
Q 400 -456 563 -456 
Q 719 -456 814 -556 
Q 909 -656 913 -866 
Q 916 -984 941 -1019 
Q 966 -1053 1013 -1053 
Q 1088 -1053 1172 -963 
Q 1297 -831 1466 -363 
L 1556 -119 
z
" transform="scale(0.015625)"/>
      <path id="TimesNewRomanPS-BoldMT-72" d="M 1428 2922 
L 1428 2259 
Q 1719 2713 1937 2861 
Q 2156 3009 2359 3009 
Q 2534 3009 2639 2901 
Q 2744 2794 2744 2597 
Q 2744 2388 2642 2272 
Q 2541 2156 2397 2156 
Q 2231 2156 2109 2262 
Q 1988 2369 1966 2381 
Q 1934 2400 1894 2400 
Q 1803 2400 1722 2331 
Q 1594 2225 1528 2028 
Q 1428 1725 1428 1359 
L 1428 688 
L 1431 513 
Q 1431 334 1453 284 
Q 1491 200 1564 161 
Q 1638 122 1813 113 
L 1813 0 
L 234 0 
L 234 113 
Q 425 128 492 217 
Q 559 306 559 688 
L 559 2303 
Q 559 2553 534 2622 
Q 503 2709 443 2750 
Q 384 2791 234 2806 
L 234 2922 
L 1428 2922 
z
" transform="scale(0.015625)"/>
      <path id="TimesNewRomanPS-BoldMT-76" d="M 1534 -88 
L 550 2178 
Q 372 2588 272 2697 
Q 200 2778 59 2806 
L 59 2922 
L 1613 2922 
L 1613 2806 
Q 1466 2806 1413 2753 
Q 1338 2684 1338 2591 
Q 1338 2475 1475 2156 
L 1956 1059 
L 2341 2006 
Q 2506 2413 2506 2581 
Q 2506 2678 2436 2739 
Q 2366 2800 2188 2806 
L 2188 2922 
L 3144 2922 
L 3144 2806 
Q 3006 2788 2918 2703 
Q 2831 2619 2656 2206 
L 1681 -88 
L 1534 -88 
z
" transform="scale(0.015625)"/>
      <path id="TimesNewRomanPS-BoldMT-75" d="M 3038 2922 
L 3038 634 
Q 3038 300 3100 217 
Q 3163 134 3353 113 
L 3353 0 
L 2163 0 
L 2163 391 
Q 1953 141 1743 26 
Q 1534 -88 1275 -88 
Q 1028 -88 836 64 
Q 644 216 578 419 
Q 513 622 513 1128 
L 513 2288 
Q 513 2619 452 2700 
Q 391 2781 197 2806 
L 197 2922 
L 1388 2922 
L 1388 925 
Q 1388 613 1417 522 
Q 1447 431 1511 384 
Q 1575 338 1659 338 
Q 1772 338 1863 397 
Q 1988 478 2163 725 
L 2163 2288 
Q 2163 2619 2102 2700 
Q 2041 2781 1847 2806 
L 1847 2922 
L 3038 2922 
z
" transform="scale(0.015625)"/>
      <path id="TimesNewRomanPS-BoldMT-66" d="M 1497 2616 
L 1497 588 
Q 1497 294 1559 219 
Q 1659 103 1928 113 
L 1928 0 
L 206 0 
L 206 113 
Q 403 116 486 158 
Q 569 200 600 275 
Q 631 350 631 588 
L 631 2616 
L 206 2616 
L 206 2922 
L 631 2922 
L 631 3138 
L 628 3284 
Q 628 3734 958 4034 
Q 1288 4334 1850 4334 
Q 2234 4334 2420 4190 
Q 2606 4047 2606 3872 
Q 2606 3731 2490 3628 
Q 2375 3525 2184 3525 
Q 2022 3525 1926 3609 
Q 1831 3694 1831 3797 
Q 1831 3825 1850 3913 
Q 1863 3966 1863 4013 
Q 1863 4078 1825 4109 
Q 1775 4156 1703 4156 
Q 1613 4156 1552 4081 
Q 1491 4006 1491 3841 
L 1497 3294 
L 1497 2922 
L 1928 2922 
L 1928 2616 
L 1497 2616 
z
" transform="scale(0.015625)"/>
      <path id="TimesNewRomanPS-BoldMT-64" d="M 3056 4238 
L 3056 875 
Q 3056 534 3075 472 
Q 3100 369 3170 319 
Q 3241 269 3416 256 
L 3416 153 
L 2181 -88 
L 2181 375 
Q 1959 106 1786 9 
Q 1613 -88 1394 -88 
Q 834 -88 509 413 
Q 247 819 247 1409 
Q 247 1881 409 2254 
Q 572 2628 855 2818 
Q 1138 3009 1463 3009 
Q 1672 3009 1834 2928 
Q 1997 2847 2181 2644 
L 2181 3525 
Q 2181 3859 2153 3928 
Q 2116 4019 2041 4062 
Q 1966 4106 1759 4106 
L 1759 4238 
L 3056 4238 
z
M 2181 2256 
Q 1950 2700 1616 2700 
Q 1500 2700 1425 2638 
Q 1309 2541 1236 2297 
Q 1163 2053 1163 1550 
Q 1163 997 1244 731 
Q 1325 466 1466 347 
Q 1538 288 1663 288 
Q 1938 288 2181 719 
L 2181 2256 
z
" transform="scale(0.015625)"/>
      <path id="TimesNewRomanPS-BoldMT-69" d="M 919 4338 
Q 1122 4338 1262 4195 
Q 1403 4053 1403 3853 
Q 1403 3653 1261 3512 
Q 1119 3372 919 3372 
Q 719 3372 578 3512 
Q 438 3653 438 3853 
Q 438 4053 578 4195 
Q 719 4338 919 4338 
z
M 1356 2922 
L 1356 606 
Q 1356 297 1428 211 
Q 1500 125 1709 113 
L 1709 0 
L 131 0 
L 131 113 
Q 325 119 419 225 
Q 481 297 481 606 
L 481 2313 
Q 481 2622 409 2708 
Q 338 2794 131 2806 
L 131 2922 
L 1356 2922 
z
" transform="scale(0.015625)"/>
      <path id="TimesNewRomanPS-BoldMT-63" d="M 2600 753 
L 2697 678 
Q 2491 291 2183 101 
Q 1875 -88 1528 -88 
Q 944 -88 594 353 
Q 244 794 244 1413 
Q 244 2009 563 2463 
Q 947 3009 1622 3009 
Q 2075 3009 2342 2781 
Q 2609 2553 2609 2272 
Q 2609 2094 2501 1987 
Q 2394 1881 2219 1881 
Q 2034 1881 1914 2003 
Q 1794 2125 1766 2438 
Q 1747 2634 1675 2713 
Q 1603 2791 1506 2791 
Q 1356 2791 1250 2631 
Q 1088 2391 1088 1894 
Q 1088 1481 1219 1104 
Q 1350 728 1578 544 
Q 1750 409 1984 409 
Q 2138 409 2275 481 
Q 2413 553 2600 753 
z
" transform="scale(0.015625)"/>
      <path id="TimesNewRomanPS-BoldMT-70" d="M 1347 297 
L 1347 -791 
Q 1347 -1016 1383 -1097 
Q 1419 -1178 1494 -1215 
Q 1569 -1253 1788 -1253 
L 1788 -1369 
L 122 -1369 
L 122 -1253 
Q 316 -1247 409 -1144 
Q 472 -1072 472 -772 
L 472 2313 
Q 472 2622 400 2708 
Q 328 2794 122 2806 
L 122 2922 
L 1347 2922 
L 1347 2538 
Q 1500 2763 1659 2863 
Q 1888 3009 2156 3009 
Q 2478 3009 2742 2806 
Q 3006 2603 3143 2245 
Q 3281 1888 3281 1475 
Q 3281 1031 3139 664 
Q 2997 297 2726 104 
Q 2456 -88 2125 -88 
Q 1884 -88 1675 19 
Q 1519 100 1347 297 
z
M 1347 613 
Q 1616 231 1922 231 
Q 2091 231 2200 409 
Q 2363 672 2363 1409 
Q 2363 2166 2184 2444 
Q 2066 2628 1866 2628 
Q 1550 2628 1347 2172 
L 1347 613 
z
" transform="scale(0.015625)"/>
      <path id="TimesNewRomanPS-BoldMT-73" d="M 2063 3003 
L 2109 2006 
L 2003 2006 
Q 1813 2450 1608 2612 
Q 1403 2775 1200 2775 
Q 1072 2775 981 2689 
Q 891 2603 891 2491 
Q 891 2406 953 2328 
Q 1053 2200 1512 1889 
Q 1972 1578 2117 1361 
Q 2263 1144 2263 875 
Q 2263 631 2141 397 
Q 2019 163 1797 37 
Q 1575 -88 1306 -88 
Q 1097 -88 747 44 
Q 653 78 619 78 
Q 516 78 447 -78 
L 344 -78 
L 294 972 
L 400 972 
Q 541 559 786 353 
Q 1031 147 1250 147 
Q 1400 147 1495 239 
Q 1591 331 1591 463 
Q 1591 613 1497 722 
Q 1403 831 1078 1053 
Q 600 1384 459 1559 
Q 253 1816 253 2125 
Q 253 2463 486 2736 
Q 719 3009 1159 3009 
Q 1397 3009 1619 2894 
Q 1703 2847 1756 2847 
Q 1813 2847 1847 2870 
Q 1881 2894 1956 3003 
L 2063 3003 
z
" transform="scale(0.015625)"/>
      <path id="TimesNewRomanPS-BoldMT-28" d="M 2056 4334 
L 2056 4191 
Q 1731 3978 1578 3775 
Q 1366 3494 1247 3053 
Q 1097 2506 1097 1525 
Q 1097 600 1233 87 
Q 1369 -425 1603 -741 
Q 1766 -959 2056 -1125 
L 2056 -1281 
Q 1303 -1028 779 -248 
Q 256 531 256 1544 
Q 256 2544 778 3314 
Q 1300 4084 2056 4334 
z
" transform="scale(0.015625)"/>
      <path id="TimesNewRomanPS-BoldMT-55" d="M 150 4238 
L 2338 4238 
L 2338 4122 
L 2228 4122 
Q 1981 4122 1889 4070 
Q 1797 4019 1758 3928 
Q 1719 3838 1719 3475 
L 1719 1400 
Q 1719 831 1805 647 
Q 1891 463 2087 341 
Q 2284 219 2584 219 
Q 2928 219 3170 373 
Q 3413 528 3533 800 
Q 3653 1072 3653 1747 
L 3653 3475 
Q 3653 3759 3593 3881 
Q 3534 4003 3444 4050 
Q 3303 4122 3047 4122 
L 3047 4238 
L 4513 4238 
L 4513 4122 
L 4425 4122 
Q 4247 4122 4128 4050 
Q 4009 3978 3956 3834 
Q 3916 3734 3916 3475 
L 3916 1866 
Q 3916 1119 3817 787 
Q 3719 456 3337 178 
Q 2956 -100 2297 -100 
Q 1747 -100 1447 47 
Q 1038 247 869 559 
Q 700 872 700 1400 
L 700 3475 
Q 700 3841 659 3930 
Q 619 4019 519 4072 
Q 419 4125 150 4122 
L 150 4238 
z
" transform="scale(0.015625)"/>
      <path id="TimesNewRomanPS-BoldMT-53" d="M 3006 4334 
L 3041 2922 
L 2913 2922 
Q 2822 3453 2467 3776 
Q 2113 4100 1700 4100 
Q 1381 4100 1195 3929 
Q 1009 3759 1009 3538 
Q 1009 3397 1075 3288 
Q 1166 3141 1366 2997 
Q 1513 2894 2044 2631 
Q 2788 2266 3047 1941 
Q 3303 1616 3303 1197 
Q 3303 666 2889 283 
Q 2475 -100 1838 -100 
Q 1638 -100 1459 -59 
Q 1281 -19 1013 94 
Q 863 156 766 156 
Q 684 156 593 93 
Q 503 31 447 -97 
L 331 -97 
L 331 1503 
L 447 1503 
Q 584 828 976 473 
Q 1369 119 1822 119 
Q 2172 119 2380 309 
Q 2588 500 2588 753 
Q 2588 903 2508 1043 
Q 2428 1184 2265 1311 
Q 2103 1438 1691 1641 
Q 1113 1925 859 2125 
Q 606 2325 470 2572 
Q 334 2819 334 3116 
Q 334 3622 706 3978 
Q 1078 4334 1644 4334 
Q 1850 4334 2044 4284 
Q 2191 4247 2402 4145 
Q 2613 4044 2697 4044 
Q 2778 4044 2825 4094 
Q 2872 4144 2913 4334 
L 3006 4334 
z
" transform="scale(0.015625)"/>
      <path id="TimesNewRomanPS-BoldMT-29" d="M 78 -1281 
L 78 -1138 
Q 403 -922 556 -719 
Q 766 -438 888 0 
Q 1038 550 1038 1531 
Q 1038 2456 902 2967 
Q 766 3478 531 3794 
Q 369 4013 78 4178 
L 78 4334 
Q 831 4081 1354 3301 
Q 1878 2522 1878 1509 
Q 1878 513 1354 -257 
Q 831 -1028 78 -1281 
z
" transform="scale(0.015625)"/>
     </defs>
     <use xlink:href="#TimesNewRomanPS-BoldMT-44"/>
     <use xlink:href="#TimesNewRomanPS-BoldMT-61" x="72.216797"/>
     <use xlink:href="#TimesNewRomanPS-BoldMT-74" x="122.216797"/>
     <use xlink:href="#TimesNewRomanPS-BoldMT-61" x="155.517578"/>
     <use xlink:href="#TimesNewRomanPS-BoldMT-20" x="205.517578"/>
     <use xlink:href="#TimesNewRomanPS-BoldMT-6f" x="230.517578"/>
     <use xlink:href="#TimesNewRomanPS-BoldMT-6e" x="280.517578"/>
     <use xlink:href="#TimesNewRomanPS-BoldMT-20" x="336.132812"/>
     <use xlink:href="#TimesNewRomanPS-BoldMT-74" x="361.132812"/>
     <use xlink:href="#TimesNewRomanPS-BoldMT-68" x="394.433594"/>
     <use xlink:href="#TimesNewRomanPS-BoldMT-65" x="450.048828"/>
     <use xlink:href="#TimesNewRomanPS-BoldMT-20" x="494.433594"/>
     <use xlink:href="#TimesNewRomanPS-BoldMT-6d" x="519.433594"/>
     <use xlink:href="#TimesNewRomanPS-BoldMT-6f" x="602.734375"/>
     <use xlink:href="#TimesNewRomanPS-BoldMT-6e" x="652.734375"/>
     <use xlink:href="#TimesNewRomanPS-BoldMT-74" x="708.349609"/>
     <use xlink:href="#TimesNewRomanPS-BoldMT-68" x="741.650391"/>
     <use xlink:href="#TimesNewRomanPS-BoldMT-6c" x="797.265625"/>
     <use xlink:href="#TimesNewRomanPS-BoldMT-79" x="825.048828"/>
     <use xlink:href="#TimesNewRomanPS-BoldMT-20" x="875.048828"/>
     <use xlink:href="#TimesNewRomanPS-BoldMT-72" x="900.048828"/>
     <use xlink:href="#TimesNewRomanPS-BoldMT-65" x="942.683594"/>
     <use xlink:href="#TimesNewRomanPS-BoldMT-76" x="987.068359"/>
     <use xlink:href="#TimesNewRomanPS-BoldMT-65" x="1037.068359"/>
     <use xlink:href="#TimesNewRomanPS-BoldMT-6e" x="1081.453125"/>
     <use xlink:href="#TimesNewRomanPS-BoldMT-75" x="1137.068359"/>
     <use xlink:href="#TimesNewRomanPS-BoldMT-65" x="1192.683594"/>
     <use xlink:href="#TimesNewRomanPS-BoldMT-20" x="1237.068359"/>
     <use xlink:href="#TimesNewRomanPS-BoldMT-6f" x="1262.068359"/>
     <use xlink:href="#TimesNewRomanPS-BoldMT-66" x="1312.068359"/>
     <use xlink:href="#TimesNewRomanPS-BoldMT-20" x="1345.369141"/>
     <use xlink:href="#TimesNewRomanPS-BoldMT-64" x="1370.369141"/>
     <use xlink:href="#TimesNewRomanPS-BoldMT-69" x="1425.984375"/>
     <use xlink:href="#TimesNewRomanPS-BoldMT-66" x="1453.767578"/>
     <use xlink:href="#TimesNewRomanPS-BoldMT-66" x="1487.068359"/>
     <use xlink:href="#TimesNewRomanPS-BoldMT-65" x="1520.369141"/>
     <use xlink:href="#TimesNewRomanPS-BoldMT-72" x="1564.753906"/>
     <use xlink:href="#TimesNewRomanPS-BoldMT-65" x="1607.388672"/>
     <use xlink:href="#TimesNewRomanPS-BoldMT-6e" x="1651.773438"/>
     <use xlink:href="#TimesNewRomanPS-BoldMT-74" x="1707.388672"/>
     <use xlink:href="#TimesNewRomanPS-BoldMT-20" x="1740.689453"/>
     <use xlink:href="#TimesNewRomanPS-BoldMT-63" x="1765.689453"/>
     <use xlink:href="#TimesNewRomanPS-BoldMT-6f" x="1810.074219"/>
     <use xlink:href="#TimesNewRomanPS-BoldMT-6d" x="1860.074219"/>
     <use xlink:href="#TimesNewRomanPS-BoldMT-70" x="1943.375"/>
     <use xlink:href="#TimesNewRomanPS-BoldMT-61" x="1998.990234"/>
     <use xlink:href="#TimesNewRomanPS-BoldMT-6e" x="2048.990234"/>
     <use xlink:href="#TimesNewRomanPS-BoldMT-69" x="2104.605469"/>
     <use xlink:href="#TimesNewRomanPS-BoldMT-65" x="2132.388672"/>
     <use xlink:href="#TimesNewRomanPS-BoldMT-73" x="2176.773438"/>
     <use xlink:href="#TimesNewRomanPS-BoldMT-20" x="2215.689453"/>
     <use xlink:href="#TimesNewRomanPS-BoldMT-28" x="2240.689453"/>
     <use xlink:href="#TimesNewRomanPS-BoldMT-55" x="2273.990234"/>
     <use xlink:href="#TimesNewRomanPS-BoldMT-53" x="2346.207031"/>
     <use xlink:href="#TimesNewRomanPS-BoldMT-44" x="2401.822266"/>
     <use xlink:href="#TimesNewRomanPS-BoldMT-29" x="2474.039062"/>
    </g>
   </g>
  </g>
 </g>
 <defs>
  <clipPath id="pfc2850b2bb">
   <rect x="60.915938" y="30.045" width="366.78" height="228.855181"/>
  </clipPath>
 </defs>
</svg>
