<?xml version="1.0" encoding="utf-8" standalone="no"?>
<!DOCTYPE svg PUBLIC "-//W3C//DTD SVG 1.1//EN"
  "http://www.w3.org/Graphics/SVG/1.1/DTD/svg11.dtd">
<svg xmlns:xlink="http://www.w3.org/1999/xlink" width="463.355937pt" height="319.968102pt" viewBox="0 0 463.355937 319.968102" xmlns="http://www.w3.org/2000/svg" version="1.1">
 <metadata>
  <rdf:RDF xmlns:dc="http://purl.org/dc/elements/1.1/" xmlns:cc="http://creativecommons.org/ns#" xmlns:rdf="http://www.w3.org/1999/02/22-rdf-syntax-ns#">
   <cc:Work>
    <dc:type rdf:resource="http://purl.org/dc/dcmitype/StillImage"/>
    <dc:date>2025-05-26T17:58:54.644483</dc:date>
    <dc:format>image/svg+xml</dc:format>
    <dc:creator>
     <cc:Agent>
      <dc:title>Matplotlib v3.7.2, https://matplotlib.org/</dc:title>
     </cc:Agent>
    </dc:creator>
   </cc:Work>
  </rdf:RDF>
 </metadata>
 <defs>
  <style type="text/css">*{stroke-linejoin: round; stroke-linecap: butt}</style>
 </defs>
 <g id="figure_1">
  <g id="patch_1">
   <path d="M 0 319.968102 
L 463.355937 319.968102 
L 463.355937 0 
L 0 0 
z
" style="fill: #ffffff"/>
  </g>
  <g id="axes_1">
   <g id="patch_2">
    <path d="M 55.915938 271.882661 
L 427.705938 271.882661 
L 427.705938 30.045 
L 55.915938 30.045 
z
" style="fill: #ffffff"/>
   </g>
   <g id="PolyCollection_1">
    <defs>
     <path id="m443c7a8b97" d="M 151.069466 -71.645263 
L 146.657409 -71.645263 
L 146.515697 -73.739053 
L 146.357649 -75.832843 
L 146.170875 -77.926633 
L 145.940752 -80.020423 
L 145.651025 -82.114213 
L 145.284597 -84.208003 
L 144.824453 -86.301793 
L 144.25466 -88.395584 
L 143.561407 -90.489374 
L 142.734017 -92.583164 
L 141.765876 -94.676954 
L 140.65524 -96.770744 
L 139.405855 -98.864534 
L 138.027329 -100.958324 
L 136.535213 -103.052114 
L 134.950704 -105.145904 
L 133.299951 -107.239694 
L 131.612915 -109.333484 
L 129.921792 -111.427274 
L 128.259063 -113.521065 
L 126.65526 -115.614855 
L 125.136638 -117.708645 
L 123.722932 -119.802435 
L 122.425458 -121.896225 
L 121.24578 -123.990015 
L 120.175146 -126.083805 
L 119.194819 -128.177595 
L 118.277343 -130.271385 
L 117.388675 -132.365175 
L 116.490996 -134.458965 
L 115.545934 -136.552755 
L 114.517871 -138.646546 
L 113.376967 -140.740336 
L 112.101592 -142.834126 
L 110.679906 -144.927916 
L 109.110426 -147.021706 
L 107.401565 -149.115496 
L 105.570237 -151.209286 
L 103.639744 -153.303076 
L 101.637233 -155.396866 
L 99.591086 -157.490656 
L 97.528549 -159.584446 
L 95.473919 -161.678236 
L 93.447464 -163.772027 
L 91.465173 -165.865817 
L 89.539287 -167.959607 
L 87.679448 -170.053397 
L 85.894189 -172.147187 
L 84.192476 -174.240977 
L 82.584935 -176.334767 
L 81.08452 -178.428557 
L 79.706412 -180.522347 
L 78.467116 -182.616137 
L 77.382844 -184.709927 
L 76.467438 -186.803717 
L 75.730177 -188.897508 
L 75.173897 -190.991298 
L 74.793819 -193.085088 
L 74.577409 -195.178878 
L 74.505437 -197.272668 
L 74.554247 -199.366458 
L 74.69898 -201.460248 
L 74.917396 -203.554038 
L 75.193737 -205.647828 
L 75.522064 -207.741618 
L 75.908524 -209.835408 
L 76.372143 -211.929199 
L 76.943906 -214.022989 
L 77.664157 -216.116779 
L 78.578568 -218.210569 
L 79.733125 -220.304359 
L 81.168749 -222.398149 
L 82.91618 -224.491939 
L 84.991758 -226.585729 
L 87.39458 -228.679519 
L 90.105351 -230.773309 
L 93.087019 -232.867099 
L 96.287087 -234.960889 
L 99.641281 -237.05468 
L 103.078155 -239.14847 
L 106.52411 -241.24226 
L 109.908335 -243.33605 
L 113.167201 -245.42984 
L 116.247771 -247.52363 
L 119.110193 -249.61742 
L 121.728884 -251.71121 
L 124.092549 -253.805 
L 126.203143 -255.89879 
L 128.07402 -257.99258 
L 129.72748 -260.08637 
L 131.192006 -262.180161 
L 132.499425 -264.273951 
L 133.682222 -266.367741 
L 134.771182 -268.461531 
L 135.793492 -270.555321 
L 136.771378 -272.649111 
L 137.721314 -274.742901 
L 138.653779 -276.836691 
L 139.573511 -278.930481 
L 158.153364 -278.930481 
L 158.153364 -278.930481 
L 159.073096 -276.836691 
L 160.005561 -274.742901 
L 160.955497 -272.649111 
L 161.933383 -270.555321 
L 162.955693 -268.461531 
L 164.044653 -266.367741 
L 165.22745 -264.273951 
L 166.534869 -262.180161 
L 167.999395 -260.08637 
L 169.652855 -257.99258 
L 171.523732 -255.89879 
L 173.634326 -253.805 
L 175.997991 -251.71121 
L 178.616682 -249.61742 
L 181.479104 -247.52363 
L 184.559674 -245.42984 
L 187.81854 -243.33605 
L 191.202765 -241.24226 
L 194.64872 -239.14847 
L 198.085594 -237.05468 
L 201.439788 -234.960889 
L 204.639856 -232.867099 
L 207.621524 -230.773309 
L 210.332295 -228.679519 
L 212.735117 -226.585729 
L 214.810695 -224.491939 
L 216.558126 -222.398149 
L 217.99375 -220.304359 
L 219.148307 -218.210569 
L 220.062718 -216.116779 
L 220.782969 -214.022989 
L 221.354732 -211.929199 
L 221.818351 -209.835408 
L 222.204811 -207.741618 
L 222.533138 -205.647828 
L 222.809479 -203.554038 
L 223.027895 -201.460248 
L 223.172628 -199.366458 
L 223.221438 -197.272668 
L 223.149466 -195.178878 
L 222.933056 -193.085088 
L 222.552978 -190.991298 
L 221.996698 -188.897508 
L 221.259437 -186.803717 
L 220.344031 -184.709927 
L 219.259759 -182.616137 
L 218.020463 -180.522347 
L 216.642355 -178.428557 
L 215.14194 -176.334767 
L 213.534399 -174.240977 
L 211.832686 -172.147187 
L 210.047427 -170.053397 
L 208.187588 -167.959607 
L 206.261702 -165.865817 
L 204.279411 -163.772027 
L 202.252956 -161.678236 
L 200.198326 -159.584446 
L 198.135789 -157.490656 
L 196.089642 -155.396866 
L 194.087131 -153.303076 
L 192.156638 -151.209286 
L 190.32531 -149.115496 
L 188.616449 -147.021706 
L 187.046969 -144.927916 
L 185.625283 -142.834126 
L 184.349908 -140.740336 
L 183.209004 -138.646546 
L 182.180941 -136.552755 
L 181.235879 -134.458965 
L 180.3382 -132.365175 
L 179.449532 -130.271385 
L 178.532056 -128.177595 
L 177.551729 -126.083805 
L 176.481095 -123.990015 
L 175.301417 -121.896225 
L 174.003943 -119.802435 
L 172.590237 -117.708645 
L 171.071615 -115.614855 
L 169.467812 -113.521065 
L 167.805083 -111.427274 
L 166.11396 -109.333484 
L 164.426924 -107.239694 
L 162.776171 -105.145904 
L 161.191662 -103.052114 
L 159.699546 -100.958324 
L 158.32102 -98.864534 
L 157.071635 -96.770744 
L 155.960999 -94.676954 
L 154.992858 -92.583164 
L 154.165468 -90.489374 
L 153.472215 -88.395584 
L 152.902422 -86.301793 
L 152.442278 -84.208003 
L 152.07585 -82.114213 
L 151.786123 -80.020423 
L 151.556 -77.926633 
L 151.369226 -75.832843 
L 151.211178 -73.739053 
L 151.069466 -71.645263 
z
" style="stroke: #000000; stroke-opacity: 0.7"/>
    </defs>
    <g clip-path="url(#p23c8359528)">
     <use xlink:href="#m443c7a8b97" x="0" y="319.968102" style="fill: #a6d854; fill-opacity: 0.7; stroke: #000000; stroke-opacity: 0.7"/>
    </g>
   </g>
   <g id="PolyCollection_2">
    <defs>
     <path id="m96a824712b" d="M 337.817334 -59.078062 
L 331.699541 -59.078062 
L 331.331327 -60.864628 
L 330.917574 -62.651193 
L 330.452044 -64.437759 
L 329.929574 -66.224325 
L 329.346733 -68.010891 
L 328.702348 -69.797457 
L 327.997812 -71.584023 
L 327.237103 -73.370588 
L 326.426492 -75.157154 
L 325.573934 -76.94372 
L 324.688223 -78.730286 
L 323.777998 -80.516852 
L 322.850736 -82.303417 
L 321.911865 -84.089983 
L 320.964136 -85.876549 
L 320.007319 -87.663115 
L 319.038295 -89.449681 
L 318.051503 -91.236246 
L 317.039696 -93.022812 
L 315.994867 -94.809378 
L 314.909229 -96.595944 
L 313.77609 -98.38251 
L 312.590503 -100.169076 
L 311.349614 -101.955641 
L 310.052658 -103.742207 
L 308.700628 -105.528773 
L 307.295686 -107.315339 
L 305.840408 -109.101905 
L 304.336991 -110.88847 
L 302.78654 -112.675036 
L 301.188548 -114.461602 
L 299.540644 -116.248168 
L 297.838665 -118.034734 
L 296.077039 -119.821299 
L 294.249481 -121.607865 
L 292.349913 -123.394431 
L 290.373551 -125.180997 
L 288.318062 -126.967563 
L 286.184681 -128.754129 
L 283.979212 -130.540694 
L 281.712817 -132.32726 
L 279.402517 -134.113826 
L 277.071367 -135.900392 
L 274.748257 -137.686958 
L 272.46734 -139.473523 
L 270.267091 -141.260089 
L 268.189031 -143.046655 
L 266.276167 -144.833221 
L 264.571224 -146.619787 
L 263.114735 -148.406353 
L 261.943092 -150.192918 
L 261.086651 -151.979484 
L 260.567991 -153.76605 
L 260.400438 -155.552616 
L 260.586927 -157.339182 
L 261.119324 -159.125747 
L 261.978238 -160.912313 
L 263.133414 -162.698879 
L 264.544687 -164.485445 
L 266.163524 -166.272011 
L 267.935076 -168.058576 
L 269.80067 -169.845142 
L 271.700615 -171.631708 
L 273.577175 -173.418274 
L 275.377521 -175.20484 
L 277.056506 -176.991406 
L 278.579052 -178.777971 
L 279.922 -180.564537 
L 281.075276 -182.351103 
L 282.042286 -184.137669 
L 282.839495 -185.924235 
L 283.495193 -187.7108 
L 284.047542 -189.497366 
L 284.542019 -191.283932 
L 285.02844 -193.070498 
L 285.55777 -194.857064 
L 286.178943 -196.643629 
L 286.935911 -198.430195 
L 287.865113 -200.216761 
L 288.993525 -202.003327 
L 290.337393 -203.789893 
L 291.901685 -205.576459 
L 293.680279 -207.363024 
L 295.656795 -209.14959 
L 297.805993 -210.936156 
L 300.095577 -212.722722 
L 302.48828 -214.509288 
L 304.944044 -216.295853 
L 307.422175 -218.082419 
L 309.883312 -219.868985 
L 312.291128 -221.655551 
L 314.613674 -223.442117 
L 316.824319 -225.228683 
L 318.902282 -227.015248 
L 320.832775 -228.801814 
L 322.60679 -230.58838 
L 324.220601 -232.374946 
L 325.675062 -234.161512 
L 326.974767 -235.948077 
L 342.542108 -235.948077 
L 342.542108 -235.948077 
L 343.841813 -234.161512 
L 345.296274 -232.374946 
L 346.910085 -230.58838 
L 348.6841 -228.801814 
L 350.614593 -227.015248 
L 352.692556 -225.228683 
L 354.903201 -223.442117 
L 357.225747 -221.655551 
L 359.633563 -219.868985 
L 362.0947 -218.082419 
L 364.572831 -216.295853 
L 367.028595 -214.509288 
L 369.421298 -212.722722 
L 371.710882 -210.936156 
L 373.86008 -209.14959 
L 375.836596 -207.363024 
L 377.61519 -205.576459 
L 379.179482 -203.789893 
L 380.52335 -202.003327 
L 381.651762 -200.216761 
L 382.580964 -198.430195 
L 383.337932 -196.643629 
L 383.959105 -194.857064 
L 384.488435 -193.070498 
L 384.974856 -191.283932 
L 385.469333 -189.497366 
L 386.021682 -187.7108 
L 386.67738 -185.924235 
L 387.474589 -184.137669 
L 388.441599 -182.351103 
L 389.594875 -180.564537 
L 390.937823 -178.777971 
L 392.460369 -176.991406 
L 394.139354 -175.20484 
L 395.9397 -173.418274 
L 397.81626 -171.631708 
L 399.716205 -169.845142 
L 401.581799 -168.058576 
L 403.353351 -166.272011 
L 404.972188 -164.485445 
L 406.383461 -162.698879 
L 407.538637 -160.912313 
L 408.397551 -159.125747 
L 408.929948 -157.339182 
L 409.116438 -155.552616 
L 408.948884 -153.76605 
L 408.430224 -151.979484 
L 407.573783 -150.192918 
L 406.40214 -148.406353 
L 404.945651 -146.619787 
L 403.240708 -144.833221 
L 401.327844 -143.046655 
L 399.249784 -141.260089 
L 397.049535 -139.473523 
L 394.768618 -137.686958 
L 392.445508 -135.900392 
L 390.114358 -134.113826 
L 387.804058 -132.32726 
L 385.537663 -130.540694 
L 383.332194 -128.754129 
L 381.198813 -126.967563 
L 379.143324 -125.180997 
L 377.166962 -123.394431 
L 375.267394 -121.607865 
L 373.439836 -119.821299 
L 371.67821 -118.034734 
L 369.976231 -116.248168 
L 368.328327 -114.461602 
L 366.730335 -112.675036 
L 365.179884 -110.88847 
L 363.676467 -109.101905 
L 362.221189 -107.315339 
L 360.816247 -105.528773 
L 359.464217 -103.742207 
L 358.167261 -101.955641 
L 356.926372 -100.169076 
L 355.740785 -98.38251 
L 354.607646 -96.595944 
L 353.522008 -94.809378 
L 352.477179 -93.022812 
L 351.465372 -91.236246 
L 350.47858 -89.449681 
L 349.509556 -87.663115 
L 348.552739 -85.876549 
L 347.60501 -84.089983 
L 346.666139 -82.303417 
L 345.738877 -80.516852 
L 344.828652 -78.730286 
L 343.942941 -76.94372 
L 343.090383 -75.157154 
L 342.279772 -73.370588 
L 341.519063 -71.584023 
L 340.814527 -69.797457 
L 340.170142 -68.010891 
L 339.587301 -66.224325 
L 339.064831 -64.437759 
L 338.599301 -62.651193 
L 338.185548 -60.864628 
L 337.817334 -59.078062 
z
" style="stroke: #000000; stroke-opacity: 0.7"/>
    </defs>
    <g clip-path="url(#p23c8359528)">
     <use xlink:href="#m96a824712b" x="0" y="319.968102" style="fill: #9edae5; fill-opacity: 0.7; stroke: #000000; stroke-opacity: 0.7"/>
    </g>
   </g>
   <g id="matplotlib.axis_1">
    <g id="xtick_1">
     <g id="line2d_1">
      <defs>
       <path id="m485fdd95d2" d="M 0 0 
L 0 3.5 
" style="stroke: #000000; stroke-width: 0.8"/>
      </defs>
      <g>
       <use xlink:href="#m485fdd95d2" x="148.863438" y="271.882661" style="stroke: #000000; stroke-width: 0.8"/>
      </g>
     </g>
     <g id="text_1">
      <!-- Glimpr -->
      <g transform="translate(122.537852 309.285159) rotate(-45) scale(0.12 -0.12)">
       <defs>
        <path id="TimesNewRomanPSMT-47" d="M 3928 4334 
L 4038 2997 
L 3928 2997 
Q 3763 3497 3500 3750 
Q 3122 4116 2528 4116 
Q 1719 4116 1297 3475 
Q 944 2934 944 2188 
Q 944 1581 1178 1081 
Q 1413 581 1792 348 
Q 2172 116 2572 116 
Q 2806 116 3025 175 
Q 3244 234 3447 350 
L 3447 1575 
Q 3447 1894 3398 1992 
Q 3350 2091 3248 2142 
Q 3147 2194 2891 2194 
L 2891 2313 
L 4531 2313 
L 4531 2194 
L 4453 2194 
Q 4209 2194 4119 2031 
Q 4056 1916 4056 1575 
L 4056 278 
Q 3697 84 3347 -6 
Q 2997 -97 2569 -97 
Q 1341 -97 703 691 
Q 225 1281 225 2053 
Q 225 2613 494 3125 
Q 813 3734 1369 4063 
Q 1834 4334 2469 4334 
Q 2700 4334 2889 4296 
Q 3078 4259 3425 4131 
Q 3600 4066 3659 4066 
Q 3719 4066 3761 4120 
Q 3803 4175 3813 4334 
L 3928 4334 
z
" transform="scale(0.015625)"/>
        <path id="TimesNewRomanPSMT-6c" d="M 1184 4444 
L 1184 647 
Q 1184 378 1223 290 
Q 1263 203 1344 158 
Q 1425 113 1647 113 
L 1647 0 
L 244 0 
L 244 113 
Q 441 113 512 153 
Q 584 194 625 287 
Q 666 381 666 647 
L 666 3247 
Q 666 3731 644 3842 
Q 622 3953 573 3993 
Q 525 4034 450 4034 
Q 369 4034 244 3984 
L 191 4094 
L 1044 4444 
L 1184 4444 
z
" transform="scale(0.015625)"/>
        <path id="TimesNewRomanPSMT-69" d="M 928 4444 
Q 1059 4444 1151 4351 
Q 1244 4259 1244 4128 
Q 1244 3997 1151 3903 
Q 1059 3809 928 3809 
Q 797 3809 703 3903 
Q 609 3997 609 4128 
Q 609 4259 701 4351 
Q 794 4444 928 4444 
z
M 1188 2947 
L 1188 647 
Q 1188 378 1227 289 
Q 1266 200 1342 156 
Q 1419 113 1622 113 
L 1622 0 
L 231 0 
L 231 113 
Q 441 113 512 153 
Q 584 194 626 287 
Q 669 381 669 647 
L 669 1750 
Q 669 2216 641 2353 
Q 619 2453 572 2492 
Q 525 2531 444 2531 
Q 356 2531 231 2484 
L 188 2597 
L 1050 2947 
L 1188 2947 
z
" transform="scale(0.015625)"/>
        <path id="TimesNewRomanPSMT-6d" d="M 1050 2338 
Q 1363 2650 1419 2697 
Q 1559 2816 1721 2881 
Q 1884 2947 2044 2947 
Q 2313 2947 2506 2790 
Q 2700 2634 2766 2338 
Q 3088 2713 3309 2830 
Q 3531 2947 3766 2947 
Q 3994 2947 4170 2830 
Q 4347 2713 4450 2447 
Q 4519 2266 4519 1878 
L 4519 647 
Q 4519 378 4559 278 
Q 4591 209 4675 161 
Q 4759 113 4950 113 
L 4950 0 
L 3538 0 
L 3538 113 
L 3597 113 
Q 3781 113 3884 184 
Q 3956 234 3988 344 
Q 4000 397 4000 647 
L 4000 1878 
Q 4000 2228 3916 2372 
Q 3794 2572 3525 2572 
Q 3359 2572 3192 2489 
Q 3025 2406 2788 2181 
L 2781 2147 
L 2788 2013 
L 2788 647 
Q 2788 353 2820 281 
Q 2853 209 2943 161 
Q 3034 113 3253 113 
L 3253 0 
L 1806 0 
L 1806 113 
Q 2044 113 2133 169 
Q 2222 225 2256 338 
Q 2272 391 2272 647 
L 2272 1878 
Q 2272 2228 2169 2381 
Q 2031 2581 1784 2581 
Q 1616 2581 1450 2491 
Q 1191 2353 1050 2181 
L 1050 647 
Q 1050 366 1089 281 
Q 1128 197 1204 155 
Q 1281 113 1516 113 
L 1516 0 
L 100 0 
L 100 113 
Q 297 113 375 155 
Q 453 197 493 289 
Q 534 381 534 647 
L 534 1741 
Q 534 2213 506 2350 
Q 484 2453 437 2492 
Q 391 2531 309 2531 
Q 222 2531 100 2484 
L 53 2597 
L 916 2947 
L 1050 2947 
L 1050 2338 
z
" transform="scale(0.015625)"/>
        <path id="TimesNewRomanPSMT-70" d="M -6 2578 
L 875 2934 
L 994 2934 
L 994 2266 
Q 1216 2644 1439 2795 
Q 1663 2947 1909 2947 
Q 2341 2947 2628 2609 
Q 2981 2197 2981 1534 
Q 2981 794 2556 309 
Q 2206 -88 1675 -88 
Q 1444 -88 1275 -22 
Q 1150 25 994 166 
L 994 -706 
Q 994 -1000 1030 -1079 
Q 1066 -1159 1155 -1206 
Q 1244 -1253 1478 -1253 
L 1478 -1369 
L -22 -1369 
L -22 -1253 
L 56 -1253 
Q 228 -1256 350 -1188 
Q 409 -1153 442 -1076 
Q 475 -1000 475 -688 
L 475 2019 
Q 475 2297 450 2372 
Q 425 2447 370 2484 
Q 316 2522 222 2522 
Q 147 2522 31 2478 
L -6 2578 
z
M 994 2081 
L 994 1013 
Q 994 666 1022 556 
Q 1066 375 1236 237 
Q 1406 100 1666 100 
Q 1978 100 2172 344 
Q 2425 663 2425 1241 
Q 2425 1897 2138 2250 
Q 1938 2494 1663 2494 
Q 1513 2494 1366 2419 
Q 1253 2363 994 2081 
z
" transform="scale(0.015625)"/>
        <path id="TimesNewRomanPSMT-72" d="M 1038 2947 
L 1038 2303 
Q 1397 2947 1775 2947 
Q 1947 2947 2059 2842 
Q 2172 2738 2172 2600 
Q 2172 2478 2090 2393 
Q 2009 2309 1897 2309 
Q 1788 2309 1652 2417 
Q 1516 2525 1450 2525 
Q 1394 2525 1328 2463 
Q 1188 2334 1038 2041 
L 1038 669 
Q 1038 431 1097 309 
Q 1138 225 1241 169 
Q 1344 113 1538 113 
L 1538 0 
L 72 0 
L 72 113 
Q 291 113 397 181 
Q 475 231 506 341 
Q 522 394 522 644 
L 522 1753 
Q 522 2253 501 2348 
Q 481 2444 426 2487 
Q 372 2531 291 2531 
Q 194 2531 72 2484 
L 41 2597 
L 906 2947 
L 1038 2947 
z
" transform="scale(0.015625)"/>
       </defs>
       <use xlink:href="#TimesNewRomanPSMT-47"/>
       <use xlink:href="#TimesNewRomanPSMT-6c" x="72.216797"/>
       <use xlink:href="#TimesNewRomanPSMT-69" x="100"/>
       <use xlink:href="#TimesNewRomanPSMT-6d" x="127.783203"/>
       <use xlink:href="#TimesNewRomanPSMT-70" x="205.566406"/>
       <use xlink:href="#TimesNewRomanPSMT-72" x="255.566406"/>
      </g>
     </g>
    </g>
    <g id="xtick_2">
     <g id="line2d_2">
      <g>
       <use xlink:href="#m485fdd95d2" x="334.758438" y="271.882661" style="stroke: #000000; stroke-width: 0.8"/>
      </g>
     </g>
     <g id="text_2">
      <!-- Watchit -->
      <g transform="translate(306.764964 310.953047) rotate(-45) scale(0.12 -0.12)">
       <defs>
        <path id="TimesNewRomanPSMT-57" d="M 5991 4238 
L 5991 4122 
Q 5825 4122 5722 4062 
Q 5619 4003 5525 3841 
Q 5463 3731 5328 3319 
L 4147 -97 
L 4022 -97 
L 3056 2613 
L 2097 -97 
L 1984 -97 
L 725 3422 
Q 584 3816 547 3888 
Q 484 4006 376 4064 
Q 269 4122 84 4122 
L 84 4238 
L 1653 4238 
L 1653 4122 
L 1578 4122 
Q 1413 4122 1325 4047 
Q 1238 3972 1238 3866 
Q 1238 3756 1375 3363 
L 2209 984 
L 2913 3006 
L 2788 3363 
L 2688 3647 
Q 2622 3803 2541 3922 
Q 2500 3981 2441 4022 
Q 2363 4078 2284 4103 
Q 2225 4122 2097 4122 
L 2097 4238 
L 3747 4238 
L 3747 4122 
L 3634 4122 
Q 3459 4122 3378 4047 
Q 3297 3972 3297 3844 
Q 3297 3684 3438 3288 
L 4250 984 
L 5056 3319 
Q 5194 3706 5194 3856 
Q 5194 3928 5148 3990 
Q 5103 4053 5034 4078 
Q 4916 4122 4725 4122 
L 4725 4238 
L 5991 4238 
z
" transform="scale(0.015625)"/>
        <path id="TimesNewRomanPSMT-61" d="M 1822 413 
Q 1381 72 1269 19 
Q 1100 -59 909 -59 
Q 613 -59 420 144 
Q 228 347 228 678 
Q 228 888 322 1041 
Q 450 1253 767 1440 
Q 1084 1628 1822 1897 
L 1822 2009 
Q 1822 2438 1686 2597 
Q 1550 2756 1291 2756 
Q 1094 2756 978 2650 
Q 859 2544 859 2406 
L 866 2225 
Q 866 2081 792 2003 
Q 719 1925 600 1925 
Q 484 1925 411 2006 
Q 338 2088 338 2228 
Q 338 2497 613 2722 
Q 888 2947 1384 2947 
Q 1766 2947 2009 2819 
Q 2194 2722 2281 2516 
Q 2338 2381 2338 1966 
L 2338 994 
Q 2338 584 2353 492 
Q 2369 400 2405 369 
Q 2441 338 2488 338 
Q 2538 338 2575 359 
Q 2641 400 2828 588 
L 2828 413 
Q 2478 -56 2159 -56 
Q 2006 -56 1915 50 
Q 1825 156 1822 413 
z
M 1822 616 
L 1822 1706 
Q 1350 1519 1213 1441 
Q 966 1303 859 1153 
Q 753 1003 753 825 
Q 753 600 887 451 
Q 1022 303 1197 303 
Q 1434 303 1822 616 
z
" transform="scale(0.015625)"/>
        <path id="TimesNewRomanPSMT-74" d="M 1031 3803 
L 1031 2863 
L 1700 2863 
L 1700 2644 
L 1031 2644 
L 1031 788 
Q 1031 509 1111 412 
Q 1191 316 1316 316 
Q 1419 316 1516 380 
Q 1613 444 1666 569 
L 1788 569 
Q 1678 263 1478 108 
Q 1278 -47 1066 -47 
Q 922 -47 784 33 
Q 647 113 581 261 
Q 516 409 516 719 
L 516 2644 
L 63 2644 
L 63 2747 
Q 234 2816 414 2980 
Q 594 3144 734 3369 
Q 806 3488 934 3803 
L 1031 3803 
z
" transform="scale(0.015625)"/>
        <path id="TimesNewRomanPSMT-63" d="M 2631 1088 
Q 2516 522 2178 217 
Q 1841 -88 1431 -88 
Q 944 -88 581 321 
Q 219 731 219 1428 
Q 219 2103 620 2525 
Q 1022 2947 1584 2947 
Q 2006 2947 2278 2723 
Q 2550 2500 2550 2259 
Q 2550 2141 2473 2067 
Q 2397 1994 2259 1994 
Q 2075 1994 1981 2113 
Q 1928 2178 1911 2362 
Q 1894 2547 1784 2644 
Q 1675 2738 1481 2738 
Q 1169 2738 978 2506 
Q 725 2200 725 1697 
Q 725 1184 976 792 
Q 1228 400 1656 400 
Q 1963 400 2206 609 
Q 2378 753 2541 1131 
L 2631 1088 
z
" transform="scale(0.015625)"/>
        <path id="TimesNewRomanPSMT-68" d="M 1041 4444 
L 1041 2350 
Q 1388 2731 1591 2839 
Q 1794 2947 1997 2947 
Q 2241 2947 2416 2812 
Q 2591 2678 2675 2391 
Q 2734 2191 2734 1659 
L 2734 647 
Q 2734 375 2778 275 
Q 2809 200 2884 156 
Q 2959 113 3159 113 
L 3159 0 
L 1753 0 
L 1753 113 
L 1819 113 
Q 2019 113 2097 173 
Q 2175 234 2206 353 
Q 2216 403 2216 647 
L 2216 1659 
Q 2216 2128 2167 2275 
Q 2119 2422 2012 2495 
Q 1906 2569 1756 2569 
Q 1603 2569 1437 2487 
Q 1272 2406 1041 2159 
L 1041 647 
Q 1041 353 1073 281 
Q 1106 209 1195 161 
Q 1284 113 1503 113 
L 1503 0 
L 84 0 
L 84 113 
Q 275 113 384 172 
Q 447 203 484 290 
Q 522 378 522 647 
L 522 3238 
Q 522 3728 498 3840 
Q 475 3953 426 3993 
Q 378 4034 297 4034 
Q 231 4034 84 3984 
L 41 4094 
L 897 4444 
L 1041 4444 
z
" transform="scale(0.015625)"/>
       </defs>
       <use xlink:href="#TimesNewRomanPSMT-57"/>
       <use xlink:href="#TimesNewRomanPSMT-61" x="86.384766"/>
       <use xlink:href="#TimesNewRomanPSMT-74" x="130.769531"/>
       <use xlink:href="#TimesNewRomanPSMT-63" x="158.552734"/>
       <use xlink:href="#TimesNewRomanPSMT-68" x="202.9375"/>
       <use xlink:href="#TimesNewRomanPSMT-69" x="252.9375"/>
       <use xlink:href="#TimesNewRomanPSMT-74" x="280.720703"/>
      </g>
     </g>
    </g>
   </g>
   <g id="matplotlib.axis_2">
    <g id="ytick_1">
     <g id="line2d_3">
      <defs>
       <path id="m5b3795ea91" d="M 0 0 
L -3.5 0 
" style="stroke: #000000; stroke-width: 0.8"/>
      </defs>
      <g>
       <use xlink:href="#m5b3795ea91" x="55.915938" y="232.940438" style="stroke: #000000; stroke-width: 0.8"/>
      </g>
     </g>
     <g id="text_3">
      <!-- 10000 -->
      <g transform="translate(23.915938 236.412313) scale(0.1 -0.1)">
       <defs>
        <path id="TimesNewRomanPSMT-31" d="M 750 3822 
L 1781 4325 
L 1884 4325 
L 1884 747 
Q 1884 391 1914 303 
Q 1944 216 2037 169 
Q 2131 122 2419 116 
L 2419 0 
L 825 0 
L 825 116 
Q 1125 122 1212 167 
Q 1300 213 1334 289 
Q 1369 366 1369 747 
L 1369 3034 
Q 1369 3497 1338 3628 
Q 1316 3728 1258 3775 
Q 1200 3822 1119 3822 
Q 1003 3822 797 3725 
L 750 3822 
z
" transform="scale(0.015625)"/>
        <path id="TimesNewRomanPSMT-30" d="M 231 2094 
Q 231 2819 450 3342 
Q 669 3866 1031 4122 
Q 1313 4325 1613 4325 
Q 2100 4325 2488 3828 
Q 2972 3213 2972 2159 
Q 2972 1422 2759 906 
Q 2547 391 2217 158 
Q 1888 -75 1581 -75 
Q 975 -75 572 641 
Q 231 1244 231 2094 
z
M 844 2016 
Q 844 1141 1059 588 
Q 1238 122 1591 122 
Q 1759 122 1940 273 
Q 2122 425 2216 781 
Q 2359 1319 2359 2297 
Q 2359 3022 2209 3506 
Q 2097 3866 1919 4016 
Q 1791 4119 1609 4119 
Q 1397 4119 1231 3928 
Q 1006 3669 925 3112 
Q 844 2556 844 2016 
z
" transform="scale(0.015625)"/>
       </defs>
       <use xlink:href="#TimesNewRomanPSMT-31"/>
       <use xlink:href="#TimesNewRomanPSMT-30" x="50"/>
       <use xlink:href="#TimesNewRomanPSMT-30" x="100"/>
       <use xlink:href="#TimesNewRomanPSMT-30" x="150"/>
       <use xlink:href="#TimesNewRomanPSMT-30" x="200"/>
      </g>
     </g>
    </g>
    <g id="ytick_2">
     <g id="line2d_4">
      <g>
       <use xlink:href="#m5b3795ea91" x="55.915938" y="186.940434" style="stroke: #000000; stroke-width: 0.8"/>
      </g>
     </g>
     <g id="text_4">
      <!-- 15000 -->
      <g transform="translate(23.915938 190.412309) scale(0.1 -0.1)">
       <defs>
        <path id="TimesNewRomanPSMT-35" d="M 2778 4238 
L 2534 3706 
L 1259 3706 
L 981 3138 
Q 1809 3016 2294 2522 
Q 2709 2097 2709 1522 
Q 2709 1188 2573 903 
Q 2438 619 2231 419 
Q 2025 219 1772 97 
Q 1413 -75 1034 -75 
Q 653 -75 479 54 
Q 306 184 306 341 
Q 306 428 378 495 
Q 450 563 559 563 
Q 641 563 702 538 
Q 763 513 909 409 
Q 1144 247 1384 247 
Q 1750 247 2026 523 
Q 2303 800 2303 1197 
Q 2303 1581 2056 1914 
Q 1809 2247 1375 2428 
Q 1034 2569 447 2591 
L 1259 4238 
L 2778 4238 
z
" transform="scale(0.015625)"/>
       </defs>
       <use xlink:href="#TimesNewRomanPSMT-31"/>
       <use xlink:href="#TimesNewRomanPSMT-35" x="50"/>
       <use xlink:href="#TimesNewRomanPSMT-30" x="100"/>
       <use xlink:href="#TimesNewRomanPSMT-30" x="150"/>
       <use xlink:href="#TimesNewRomanPSMT-30" x="200"/>
      </g>
     </g>
    </g>
    <g id="ytick_3">
     <g id="line2d_5">
      <g>
       <use xlink:href="#m5b3795ea91" x="55.915938" y="140.94043" style="stroke: #000000; stroke-width: 0.8"/>
      </g>
     </g>
     <g id="text_5">
      <!-- 20000 -->
      <g transform="translate(23.915938 144.412305) scale(0.1 -0.1)">
       <defs>
        <path id="TimesNewRomanPSMT-32" d="M 2934 816 
L 2638 0 
L 138 0 
L 138 116 
Q 1241 1122 1691 1759 
Q 2141 2397 2141 2925 
Q 2141 3328 1894 3587 
Q 1647 3847 1303 3847 
Q 991 3847 742 3664 
Q 494 3481 375 3128 
L 259 3128 
Q 338 3706 661 4015 
Q 984 4325 1469 4325 
Q 1984 4325 2329 3994 
Q 2675 3663 2675 3213 
Q 2675 2891 2525 2569 
Q 2294 2063 1775 1497 
Q 997 647 803 472 
L 1909 472 
Q 2247 472 2383 497 
Q 2519 522 2628 598 
Q 2738 675 2819 816 
L 2934 816 
z
" transform="scale(0.015625)"/>
       </defs>
       <use xlink:href="#TimesNewRomanPSMT-32"/>
       <use xlink:href="#TimesNewRomanPSMT-30" x="50"/>
       <use xlink:href="#TimesNewRomanPSMT-30" x="100"/>
       <use xlink:href="#TimesNewRomanPSMT-30" x="150"/>
       <use xlink:href="#TimesNewRomanPSMT-30" x="200"/>
      </g>
     </g>
    </g>
    <g id="ytick_4">
     <g id="line2d_6">
      <g>
       <use xlink:href="#m5b3795ea91" x="55.915938" y="94.940426" style="stroke: #000000; stroke-width: 0.8"/>
      </g>
     </g>
     <g id="text_6">
      <!-- 25000 -->
      <g transform="translate(23.915938 98.412301) scale(0.1 -0.1)">
       <use xlink:href="#TimesNewRomanPSMT-32"/>
       <use xlink:href="#TimesNewRomanPSMT-35" x="50"/>
       <use xlink:href="#TimesNewRomanPSMT-30" x="100"/>
       <use xlink:href="#TimesNewRomanPSMT-30" x="150"/>
       <use xlink:href="#TimesNewRomanPSMT-30" x="200"/>
      </g>
     </g>
    </g>
    <g id="ytick_5">
     <g id="line2d_7">
      <g>
       <use xlink:href="#m5b3795ea91" x="55.915938" y="48.940422" style="stroke: #000000; stroke-width: 0.8"/>
      </g>
     </g>
     <g id="text_7">
      <!-- 30000 -->
      <g transform="translate(23.915938 52.412297) scale(0.1 -0.1)">
       <defs>
        <path id="TimesNewRomanPSMT-33" d="M 325 3431 
Q 506 3859 782 4092 
Q 1059 4325 1472 4325 
Q 1981 4325 2253 3994 
Q 2459 3747 2459 3466 
Q 2459 3003 1878 2509 
Q 2269 2356 2469 2072 
Q 2669 1788 2669 1403 
Q 2669 853 2319 450 
Q 1863 -75 997 -75 
Q 569 -75 414 31 
Q 259 138 259 259 
Q 259 350 332 419 
Q 406 488 509 488 
Q 588 488 669 463 
Q 722 447 909 348 
Q 1097 250 1169 231 
Q 1284 197 1416 197 
Q 1734 197 1970 444 
Q 2206 691 2206 1028 
Q 2206 1275 2097 1509 
Q 2016 1684 1919 1775 
Q 1784 1900 1550 2001 
Q 1316 2103 1072 2103 
L 972 2103 
L 972 2197 
Q 1219 2228 1467 2375 
Q 1716 2522 1828 2728 
Q 1941 2934 1941 3181 
Q 1941 3503 1739 3701 
Q 1538 3900 1238 3900 
Q 753 3900 428 3381 
L 325 3431 
z
" transform="scale(0.015625)"/>
       </defs>
       <use xlink:href="#TimesNewRomanPSMT-33"/>
       <use xlink:href="#TimesNewRomanPSMT-30" x="50"/>
       <use xlink:href="#TimesNewRomanPSMT-30" x="100"/>
       <use xlink:href="#TimesNewRomanPSMT-30" x="150"/>
       <use xlink:href="#TimesNewRomanPSMT-30" x="200"/>
      </g>
     </g>
    </g>
    <g id="text_8">
     <!-- viewers -->
     <g transform="translate(16.92125 172.733831) rotate(-90) scale(0.14 -0.14)">
      <defs>
       <path id="TimesNewRomanPSMT-76" d="M 53 2863 
L 1400 2863 
L 1400 2747 
L 1313 2747 
Q 1191 2747 1127 2687 
Q 1063 2628 1063 2528 
Q 1063 2419 1128 2269 
L 1794 688 
L 2463 2328 
Q 2534 2503 2534 2594 
Q 2534 2638 2509 2666 
Q 2475 2713 2422 2730 
Q 2369 2747 2206 2747 
L 2206 2863 
L 3141 2863 
L 3141 2747 
Q 2978 2734 2916 2681 
Q 2806 2588 2719 2369 
L 1703 -88 
L 1575 -88 
L 553 2328 
Q 484 2497 421 2570 
Q 359 2644 263 2694 
Q 209 2722 53 2747 
L 53 2863 
z
" transform="scale(0.015625)"/>
       <path id="TimesNewRomanPSMT-65" d="M 681 1784 
Q 678 1147 991 784 
Q 1303 422 1725 422 
Q 2006 422 2214 576 
Q 2422 731 2563 1106 
L 2659 1044 
Q 2594 616 2278 264 
Q 1963 -88 1488 -88 
Q 972 -88 605 314 
Q 238 716 238 1394 
Q 238 2128 614 2539 
Q 991 2950 1559 2950 
Q 2041 2950 2350 2633 
Q 2659 2316 2659 1784 
L 681 1784 
z
M 681 1966 
L 2006 1966 
Q 1991 2241 1941 2353 
Q 1863 2528 1708 2628 
Q 1553 2728 1384 2728 
Q 1125 2728 920 2526 
Q 716 2325 681 1966 
z
" transform="scale(0.015625)"/>
       <path id="TimesNewRomanPSMT-77" d="M 41 2863 
L 1241 2863 
L 1241 2747 
Q 1075 2734 1023 2687 
Q 972 2641 972 2553 
Q 972 2456 1025 2319 
L 1638 672 
L 2253 2013 
L 2091 2434 
Q 2016 2622 1894 2694 
Q 1825 2738 1638 2747 
L 1638 2863 
L 3000 2863 
L 3000 2747 
Q 2775 2738 2681 2666 
Q 2619 2616 2619 2506 
Q 2619 2444 2644 2378 
L 3294 734 
L 3897 2319 
Q 3959 2488 3959 2588 
Q 3959 2647 3898 2694 
Q 3838 2741 3659 2747 
L 3659 2863 
L 4563 2863 
L 4563 2747 
Q 4291 2706 4163 2378 
L 3206 -88 
L 3078 -88 
L 2363 1741 
L 1528 -88 
L 1413 -88 
L 494 2319 
Q 403 2547 315 2626 
Q 228 2706 41 2747 
L 41 2863 
z
" transform="scale(0.015625)"/>
       <path id="TimesNewRomanPSMT-73" d="M 2050 2947 
L 2050 1972 
L 1947 1972 
Q 1828 2431 1642 2597 
Q 1456 2763 1169 2763 
Q 950 2763 815 2647 
Q 681 2531 681 2391 
Q 681 2216 781 2091 
Q 878 1963 1175 1819 
L 1631 1597 
Q 2266 1288 2266 781 
Q 2266 391 1970 151 
Q 1675 -88 1309 -88 
Q 1047 -88 709 6 
Q 606 38 541 38 
Q 469 38 428 -44 
L 325 -44 
L 325 978 
L 428 978 
Q 516 541 762 319 
Q 1009 97 1316 97 
Q 1531 97 1667 223 
Q 1803 350 1803 528 
Q 1803 744 1651 891 
Q 1500 1038 1047 1263 
Q 594 1488 453 1669 
Q 313 1847 313 2119 
Q 313 2472 555 2709 
Q 797 2947 1181 2947 
Q 1350 2947 1591 2875 
Q 1750 2828 1803 2828 
Q 1853 2828 1881 2850 
Q 1909 2872 1947 2947 
L 2050 2947 
z
" transform="scale(0.015625)"/>
      </defs>
      <use xlink:href="#TimesNewRomanPSMT-76"/>
      <use xlink:href="#TimesNewRomanPSMT-69" x="50"/>
      <use xlink:href="#TimesNewRomanPSMT-65" x="77.783203"/>
      <use xlink:href="#TimesNewRomanPSMT-77" x="122.167969"/>
      <use xlink:href="#TimesNewRomanPSMT-65" x="194.384766"/>
      <use xlink:href="#TimesNewRomanPSMT-72" x="238.769531"/>
      <use xlink:href="#TimesNewRomanPSMT-73" x="272.070312"/>
     </g>
    </g>
   </g>
   <g id="patch_3">
    <path d="M 137.709738 156.548231 
L 160.017138 156.548231 
L 160.017138 98.459426 
L 137.709738 98.459426 
L 137.709738 156.548231 
L 137.709738 156.548231 
z
" clip-path="url(#p23c8359528)" style="fill: none; stroke: #000000; stroke-linejoin: miter"/>
   </g>
   <g id="line2d_8">
    <path d="M 148.863438 156.548231 
L 148.863438 214.282836 
" clip-path="url(#p23c8359528)" style="fill: none; stroke: #000000; stroke-linecap: square"/>
   </g>
   <g id="line2d_9">
    <path d="M 148.863438 98.459426 
L 148.863438 41.037621 
" clip-path="url(#p23c8359528)" style="fill: none; stroke: #000000; stroke-linecap: square"/>
   </g>
   <g id="line2d_10">
    <path d="M 143.286588 214.282836 
L 154.440288 214.282836 
" clip-path="url(#p23c8359528)" style="fill: none; stroke: #000000; stroke-linecap: square"/>
   </g>
   <g id="line2d_11">
    <path d="M 143.286588 41.037621 
L 154.440288 41.037621 
" clip-path="url(#p23c8359528)" style="fill: none; stroke: #000000; stroke-linecap: square"/>
   </g>
   <g id="patch_4">
    <path d="M 323.604738 184.079234 
L 345.912138 184.079234 
L 345.912138 131.602429 
L 323.604738 131.602429 
L 323.604738 184.079234 
L 323.604738 184.079234 
z
" clip-path="url(#p23c8359528)" style="fill: none; stroke: #000000; stroke-linejoin: miter"/>
   </g>
   <g id="line2d_12">
    <path d="M 334.758438 184.079234 
L 334.758438 260.89004 
" clip-path="url(#p23c8359528)" style="fill: none; stroke: #000000; stroke-linecap: square"/>
   </g>
   <g id="line2d_13">
    <path d="M 334.758438 131.602429 
L 334.758438 84.020025 
" clip-path="url(#p23c8359528)" style="fill: none; stroke: #000000; stroke-linecap: square"/>
   </g>
   <g id="line2d_14">
    <path d="M 329.181588 260.89004 
L 340.335288 260.89004 
" clip-path="url(#p23c8359528)" style="fill: none; stroke: #000000; stroke-linecap: square"/>
   </g>
   <g id="line2d_15">
    <path d="M 329.181588 84.020025 
L 340.335288 84.020025 
" clip-path="url(#p23c8359528)" style="fill: none; stroke: #000000; stroke-linecap: square"/>
   </g>
   <g id="line2d_16">
    <path d="M 137.709738 126.629829 
L 160.017138 126.629829 
" clip-path="url(#p23c8359528)" style="fill: none; stroke: #000000; stroke-width: 1.5; stroke-linecap: square"/>
   </g>
   <g id="line2d_17">
    <path d="M 323.604738 160.982632 
L 345.912138 160.982632 
" clip-path="url(#p23c8359528)" style="fill: none; stroke: #000000; stroke-width: 1.5; stroke-linecap: square"/>
   </g>
   <g id="patch_5">
    <path d="M 55.915938 271.882661 
L 55.915938 30.045 
" style="fill: none; stroke: #000000; stroke-linejoin: miter; stroke-linecap: square"/>
   </g>
   <g id="patch_6">
    <path d="M 427.705938 271.882661 
L 427.705938 30.045 
" style="fill: none; stroke: #000000; stroke-linejoin: miter; stroke-linecap: square"/>
   </g>
   <g id="patch_7">
    <path d="M 55.915938 271.882661 
L 427.705938 271.882661 
" style="fill: none; stroke: #000000; stroke-linejoin: miter; stroke-linecap: square"/>
   </g>
   <g id="patch_8">
    <path d="M 55.915938 30.045 
L 427.705938 30.045 
" style="fill: none; stroke: #000000; stroke-linejoin: miter; stroke-linecap: square"/>
   </g>
   <g id="text_9">
    <!-- Number of daily viewers on different video platforms (viewers) -->
    <g transform="translate(27.465938 18.045) scale(0.16 -0.16)">
     <defs>
      <path id="TimesNewRomanPS-BoldMT-4e" d="M 1594 4238 
L 3684 1609 
L 3684 3431 
Q 3684 3813 3575 3947 
Q 3425 4128 3072 4122 
L 3072 4238 
L 4472 4238 
L 4472 4122 
Q 4203 4088 4111 4033 
Q 4019 3978 3967 3854 
Q 3916 3731 3916 3431 
L 3916 -97 
L 3809 -97 
L 944 3431 
L 944 738 
Q 944 372 1111 244 
Q 1278 116 1494 116 
L 1594 116 
L 1594 0 
L 91 0 
L 91 116 
Q 441 119 578 259 
Q 716 400 716 738 
L 716 3728 
L 625 3841 
Q 491 4009 387 4062 
Q 284 4116 91 4122 
L 91 4238 
L 1594 4238 
z
" transform="scale(0.015625)"/>
      <path id="TimesNewRomanPS-BoldMT-75" d="M 3038 2922 
L 3038 634 
Q 3038 300 3100 217 
Q 3163 134 3353 113 
L 3353 0 
L 2163 0 
L 2163 391 
Q 1953 141 1743 26 
Q 1534 -88 1275 -88 
Q 1028 -88 836 64 
Q 644 216 578 419 
Q 513 622 513 1128 
L 513 2288 
Q 513 2619 452 2700 
Q 391 2781 197 2806 
L 197 2922 
L 1388 2922 
L 1388 925 
Q 1388 613 1417 522 
Q 1447 431 1511 384 
Q 1575 338 1659 338 
Q 1772 338 1863 397 
Q 1988 478 2163 725 
L 2163 2288 
Q 2163 2619 2102 2700 
Q 2041 2781 1847 2806 
L 1847 2922 
L 3038 2922 
z
" transform="scale(0.015625)"/>
      <path id="TimesNewRomanPS-BoldMT-6d" d="M 1428 2922 
L 1428 2538 
Q 1669 2800 1873 2904 
Q 2078 3009 2322 3009 
Q 2603 3009 2793 2878 
Q 2984 2747 3088 2478 
Q 3338 2759 3567 2884 
Q 3797 3009 4047 3009 
Q 4350 3009 4529 2870 
Q 4709 2731 4779 2517 
Q 4850 2303 4850 1834 
L 4850 638 
Q 4850 300 4911 219 
Q 4972 138 5166 113 
L 5166 0 
L 3656 0 
L 3656 113 
Q 3834 128 3919 250 
Q 3975 334 3975 638 
L 3975 1894 
Q 3975 2284 3944 2390 
Q 3913 2497 3845 2548 
Q 3778 2600 3688 2600 
Q 3553 2600 3415 2501 
Q 3278 2403 3138 2206 
L 3138 638 
Q 3138 322 3191 241 
Q 3263 125 3466 113 
L 3466 0 
L 1953 0 
L 1953 113 
Q 2075 119 2145 173 
Q 2216 228 2239 304 
Q 2263 381 2263 638 
L 2263 1894 
Q 2263 2291 2231 2391 
Q 2200 2491 2126 2547 
Q 2053 2603 1969 2603 
Q 1844 2603 1741 2538 
Q 1594 2441 1428 2206 
L 1428 638 
Q 1428 328 1489 229 
Q 1550 131 1744 113 
L 1744 0 
L 238 0 
L 238 113 
Q 422 131 500 231 
Q 553 300 553 638 
L 553 2288 
Q 553 2619 492 2700 
Q 431 2781 238 2806 
L 238 2922 
L 1428 2922 
z
" transform="scale(0.015625)"/>
      <path id="TimesNewRomanPS-BoldMT-62" d="M 1347 4238 
L 1347 2628 
Q 1716 3009 2153 3009 
Q 2453 3009 2718 2832 
Q 2984 2656 3134 2331 
Q 3284 2006 3284 1581 
Q 3284 1103 3093 712 
Q 2903 322 2584 117 
Q 2266 -88 1856 -88 
Q 1619 -88 1434 -12 
Q 1250 63 1072 231 
L 588 -84 
L 481 -84 
L 481 3631 
Q 481 3884 459 3944 
Q 428 4031 361 4073 
Q 294 4116 134 4122 
L 134 4238 
L 1347 4238 
z
M 1347 2350 
L 1347 1050 
Q 1347 653 1366 544 
Q 1397 359 1515 245 
Q 1634 131 1819 131 
Q 1978 131 2092 222 
Q 2206 313 2282 581 
Q 2359 850 2359 1550 
Q 2359 2222 2191 2472 
Q 2069 2653 1863 2653 
Q 1594 2653 1347 2350 
z
" transform="scale(0.015625)"/>
      <path id="TimesNewRomanPS-BoldMT-65" d="M 2691 1566 
L 1088 1566 
Q 1116 984 1397 647 
Q 1613 388 1916 388 
Q 2103 388 2256 492 
Q 2409 597 2584 869 
L 2691 800 
Q 2453 316 2165 114 
Q 1878 -88 1500 -88 
Q 850 -88 516 413 
Q 247 816 247 1413 
Q 247 2144 642 2576 
Q 1038 3009 1569 3009 
Q 2013 3009 2339 2645 
Q 2666 2281 2691 1566 
z
M 1922 1775 
Q 1922 2278 1867 2465 
Q 1813 2653 1697 2750 
Q 1631 2806 1522 2806 
Q 1359 2806 1256 2647 
Q 1072 2369 1072 1884 
L 1072 1775 
L 1922 1775 
z
" transform="scale(0.015625)"/>
      <path id="TimesNewRomanPS-BoldMT-72" d="M 1428 2922 
L 1428 2259 
Q 1719 2713 1937 2861 
Q 2156 3009 2359 3009 
Q 2534 3009 2639 2901 
Q 2744 2794 2744 2597 
Q 2744 2388 2642 2272 
Q 2541 2156 2397 2156 
Q 2231 2156 2109 2262 
Q 1988 2369 1966 2381 
Q 1934 2400 1894 2400 
Q 1803 2400 1722 2331 
Q 1594 2225 1528 2028 
Q 1428 1725 1428 1359 
L 1428 688 
L 1431 513 
Q 1431 334 1453 284 
Q 1491 200 1564 161 
Q 1638 122 1813 113 
L 1813 0 
L 234 0 
L 234 113 
Q 425 128 492 217 
Q 559 306 559 688 
L 559 2303 
Q 559 2553 534 2622 
Q 503 2709 443 2750 
Q 384 2791 234 2806 
L 234 2922 
L 1428 2922 
z
" transform="scale(0.015625)"/>
      <path id="TimesNewRomanPS-BoldMT-20" transform="scale(0.015625)"/>
      <path id="TimesNewRomanPS-BoldMT-6f" d="M 1594 3009 
Q 1975 3009 2303 2812 
Q 2631 2616 2801 2253 
Q 2972 1891 2972 1459 
Q 2972 838 2656 419 
Q 2275 -88 1603 -88 
Q 944 -88 587 375 
Q 231 838 231 1447 
Q 231 2075 595 2542 
Q 959 3009 1594 3009 
z
M 1606 2788 
Q 1447 2788 1333 2667 
Q 1219 2547 1183 2192 
Q 1147 1838 1147 1206 
Q 1147 872 1191 581 
Q 1225 359 1337 243 
Q 1450 128 1594 128 
Q 1734 128 1828 206 
Q 1950 313 1991 503 
Q 2053 800 2053 1703 
Q 2053 2234 1993 2432 
Q 1934 2631 1819 2722 
Q 1738 2788 1606 2788 
z
" transform="scale(0.015625)"/>
      <path id="TimesNewRomanPS-BoldMT-66" d="M 1497 2616 
L 1497 588 
Q 1497 294 1559 219 
Q 1659 103 1928 113 
L 1928 0 
L 206 0 
L 206 113 
Q 403 116 486 158 
Q 569 200 600 275 
Q 631 350 631 588 
L 631 2616 
L 206 2616 
L 206 2922 
L 631 2922 
L 631 3138 
L 628 3284 
Q 628 3734 958 4034 
Q 1288 4334 1850 4334 
Q 2234 4334 2420 4190 
Q 2606 4047 2606 3872 
Q 2606 3731 2490 3628 
Q 2375 3525 2184 3525 
Q 2022 3525 1926 3609 
Q 1831 3694 1831 3797 
Q 1831 3825 1850 3913 
Q 1863 3966 1863 4013 
Q 1863 4078 1825 4109 
Q 1775 4156 1703 4156 
Q 1613 4156 1552 4081 
Q 1491 4006 1491 3841 
L 1497 3294 
L 1497 2922 
L 1928 2922 
L 1928 2616 
L 1497 2616 
z
" transform="scale(0.015625)"/>
      <path id="TimesNewRomanPS-BoldMT-64" d="M 3056 4238 
L 3056 875 
Q 3056 534 3075 472 
Q 3100 369 3170 319 
Q 3241 269 3416 256 
L 3416 153 
L 2181 -88 
L 2181 375 
Q 1959 106 1786 9 
Q 1613 -88 1394 -88 
Q 834 -88 509 413 
Q 247 819 247 1409 
Q 247 1881 409 2254 
Q 572 2628 855 2818 
Q 1138 3009 1463 3009 
Q 1672 3009 1834 2928 
Q 1997 2847 2181 2644 
L 2181 3525 
Q 2181 3859 2153 3928 
Q 2116 4019 2041 4062 
Q 1966 4106 1759 4106 
L 1759 4238 
L 3056 4238 
z
M 2181 2256 
Q 1950 2700 1616 2700 
Q 1500 2700 1425 2638 
Q 1309 2541 1236 2297 
Q 1163 2053 1163 1550 
Q 1163 997 1244 731 
Q 1325 466 1466 347 
Q 1538 288 1663 288 
Q 1938 288 2181 719 
L 2181 2256 
z
" transform="scale(0.015625)"/>
      <path id="TimesNewRomanPS-BoldMT-61" d="M 1828 431 
Q 1294 -41 869 -41 
Q 619 -41 453 123 
Q 288 288 288 534 
Q 288 869 575 1136 
Q 863 1403 1828 1847 
L 1828 2141 
Q 1828 2472 1792 2558 
Q 1756 2644 1656 2708 
Q 1556 2772 1431 2772 
Q 1228 2772 1097 2681 
Q 1016 2625 1016 2550 
Q 1016 2484 1103 2388 
Q 1222 2253 1222 2128 
Q 1222 1975 1108 1867 
Q 994 1759 809 1759 
Q 613 1759 480 1878 
Q 347 1997 347 2156 
Q 347 2381 525 2586 
Q 703 2791 1022 2900 
Q 1341 3009 1684 3009 
Q 2100 3009 2342 2832 
Q 2584 2656 2656 2450 
Q 2700 2319 2700 1847 
L 2700 713 
Q 2700 513 2715 461 
Q 2731 409 2762 384 
Q 2794 359 2834 359 
Q 2916 359 3000 475 
L 3094 400 
Q 2938 169 2770 64 
Q 2603 -41 2391 -41 
Q 2141 -41 2000 76 
Q 1859 194 1828 431 
z
M 1828 659 
L 1828 1638 
Q 1450 1416 1266 1163 
Q 1144 994 1144 822 
Q 1144 678 1247 569 
Q 1325 484 1466 484 
Q 1622 484 1828 659 
z
" transform="scale(0.015625)"/>
      <path id="TimesNewRomanPS-BoldMT-69" d="M 919 4338 
Q 1122 4338 1262 4195 
Q 1403 4053 1403 3853 
Q 1403 3653 1261 3512 
Q 1119 3372 919 3372 
Q 719 3372 578 3512 
Q 438 3653 438 3853 
Q 438 4053 578 4195 
Q 719 4338 919 4338 
z
M 1356 2922 
L 1356 606 
Q 1356 297 1428 211 
Q 1500 125 1709 113 
L 1709 0 
L 131 0 
L 131 113 
Q 325 119 419 225 
Q 481 297 481 606 
L 481 2313 
Q 481 2622 409 2708 
Q 338 2794 131 2806 
L 131 2922 
L 1356 2922 
z
" transform="scale(0.015625)"/>
      <path id="TimesNewRomanPS-BoldMT-6c" d="M 1359 4238 
L 1359 606 
Q 1359 297 1431 211 
Q 1503 125 1713 113 
L 1713 0 
L 134 0 
L 134 113 
Q 328 119 422 225 
Q 484 297 484 606 
L 484 3631 
Q 484 3938 412 4023 
Q 341 4109 134 4122 
L 134 4238 
L 1359 4238 
z
" transform="scale(0.015625)"/>
      <path id="TimesNewRomanPS-BoldMT-79" d="M 1556 -119 
L 613 2047 
Q 400 2538 298 2650 
Q 197 2763 53 2806 
L 53 2922 
L 1606 2922 
L 1606 2806 
Q 1453 2800 1390 2747 
Q 1328 2694 1328 2619 
Q 1328 2500 1484 2150 
L 1984 1006 
L 2325 1891 
Q 2509 2363 2509 2547 
Q 2509 2663 2432 2731 
Q 2356 2800 2163 2806 
L 2163 2922 
L 3141 2922 
L 3141 2806 
Q 2997 2791 2906 2695 
Q 2816 2600 2603 2047 
L 1769 -119 
Q 1453 -931 1300 -1119 
Q 1084 -1381 759 -1381 
Q 500 -1381 339 -1232 
Q 178 -1084 178 -875 
Q 178 -694 289 -575 
Q 400 -456 563 -456 
Q 719 -456 814 -556 
Q 909 -656 913 -866 
Q 916 -984 941 -1019 
Q 966 -1053 1013 -1053 
Q 1088 -1053 1172 -963 
Q 1297 -831 1466 -363 
L 1556 -119 
z
" transform="scale(0.015625)"/>
      <path id="TimesNewRomanPS-BoldMT-76" d="M 1534 -88 
L 550 2178 
Q 372 2588 272 2697 
Q 200 2778 59 2806 
L 59 2922 
L 1613 2922 
L 1613 2806 
Q 1466 2806 1413 2753 
Q 1338 2684 1338 2591 
Q 1338 2475 1475 2156 
L 1956 1059 
L 2341 2006 
Q 2506 2413 2506 2581 
Q 2506 2678 2436 2739 
Q 2366 2800 2188 2806 
L 2188 2922 
L 3144 2922 
L 3144 2806 
Q 3006 2788 2918 2703 
Q 2831 2619 2656 2206 
L 1681 -88 
L 1534 -88 
z
" transform="scale(0.015625)"/>
      <path id="TimesNewRomanPS-BoldMT-77" d="M 3113 -88 
L 2313 2056 
L 1528 -88 
L 1366 -88 
L 588 2031 
Q 413 2516 291 2663 
Q 213 2763 53 2806 
L 53 2922 
L 1528 2922 
L 1528 2806 
Q 1378 2806 1322 2762 
Q 1266 2719 1266 2663 
Q 1266 2609 1366 2344 
L 1794 1203 
L 2206 2344 
L 2175 2419 
Q 2081 2653 2011 2717 
Q 1941 2781 1794 2806 
L 1794 2922 
L 3291 2922 
L 3291 2806 
Q 3116 2797 3069 2758 
Q 3022 2719 3022 2647 
Q 3022 2578 3113 2344 
L 3525 1203 
L 3900 2253 
Q 3981 2478 3981 2559 
Q 3981 2681 3922 2737 
Q 3863 2794 3691 2806 
L 3691 2922 
L 4556 2922 
L 4556 2806 
Q 4413 2788 4328 2705 
Q 4244 2622 4109 2234 
L 3291 -88 
L 3113 -88 
z
" transform="scale(0.015625)"/>
      <path id="TimesNewRomanPS-BoldMT-73" d="M 2063 3003 
L 2109 2006 
L 2003 2006 
Q 1813 2450 1608 2612 
Q 1403 2775 1200 2775 
Q 1072 2775 981 2689 
Q 891 2603 891 2491 
Q 891 2406 953 2328 
Q 1053 2200 1512 1889 
Q 1972 1578 2117 1361 
Q 2263 1144 2263 875 
Q 2263 631 2141 397 
Q 2019 163 1797 37 
Q 1575 -88 1306 -88 
Q 1097 -88 747 44 
Q 653 78 619 78 
Q 516 78 447 -78 
L 344 -78 
L 294 972 
L 400 972 
Q 541 559 786 353 
Q 1031 147 1250 147 
Q 1400 147 1495 239 
Q 1591 331 1591 463 
Q 1591 613 1497 722 
Q 1403 831 1078 1053 
Q 600 1384 459 1559 
Q 253 1816 253 2125 
Q 253 2463 486 2736 
Q 719 3009 1159 3009 
Q 1397 3009 1619 2894 
Q 1703 2847 1756 2847 
Q 1813 2847 1847 2870 
Q 1881 2894 1956 3003 
L 2063 3003 
z
" transform="scale(0.015625)"/>
      <path id="TimesNewRomanPS-BoldMT-6e" d="M 1409 2922 
L 1409 2544 
Q 1634 2788 1840 2898 
Q 2047 3009 2284 3009 
Q 2569 3009 2756 2851 
Q 2944 2694 3006 2459 
Q 3056 2281 3056 1775 
L 3056 638 
Q 3056 300 3117 217 
Q 3178 134 3372 113 
L 3372 0 
L 1894 0 
L 1894 113 
Q 2059 134 2131 250 
Q 2181 328 2181 638 
L 2181 1938 
Q 2181 2297 2153 2390 
Q 2125 2484 2058 2536 
Q 1991 2588 1909 2588 
Q 1641 2588 1409 2203 
L 1409 638 
Q 1409 309 1470 221 
Q 1531 134 1697 113 
L 1697 0 
L 219 0 
L 219 113 
Q 403 131 481 231 
Q 534 300 534 638 
L 534 2288 
Q 534 2619 473 2700 
Q 413 2781 219 2806 
L 219 2922 
L 1409 2922 
z
" transform="scale(0.015625)"/>
      <path id="TimesNewRomanPS-BoldMT-74" d="M 1375 3991 
L 1375 2922 
L 2069 2922 
L 2069 2613 
L 1375 2613 
L 1375 809 
Q 1375 556 1398 482 
Q 1422 409 1481 364 
Q 1541 319 1591 319 
Q 1794 319 1975 628 
L 2069 559 
Q 1816 -41 1247 -41 
Q 969 -41 776 114 
Q 584 269 531 459 
Q 500 566 500 1034 
L 500 2613 
L 119 2613 
L 119 2722 
Q 513 3000 789 3306 
Q 1066 3613 1272 3991 
L 1375 3991 
z
" transform="scale(0.015625)"/>
      <path id="TimesNewRomanPS-BoldMT-70" d="M 1347 297 
L 1347 -791 
Q 1347 -1016 1383 -1097 
Q 1419 -1178 1494 -1215 
Q 1569 -1253 1788 -1253 
L 1788 -1369 
L 122 -1369 
L 122 -1253 
Q 316 -1247 409 -1144 
Q 472 -1072 472 -772 
L 472 2313 
Q 472 2622 400 2708 
Q 328 2794 122 2806 
L 122 2922 
L 1347 2922 
L 1347 2538 
Q 1500 2763 1659 2863 
Q 1888 3009 2156 3009 
Q 2478 3009 2742 2806 
Q 3006 2603 3143 2245 
Q 3281 1888 3281 1475 
Q 3281 1031 3139 664 
Q 2997 297 2726 104 
Q 2456 -88 2125 -88 
Q 1884 -88 1675 19 
Q 1519 100 1347 297 
z
M 1347 613 
Q 1616 231 1922 231 
Q 2091 231 2200 409 
Q 2363 672 2363 1409 
Q 2363 2166 2184 2444 
Q 2066 2628 1866 2628 
Q 1550 2628 1347 2172 
L 1347 613 
z
" transform="scale(0.015625)"/>
      <path id="TimesNewRomanPS-BoldMT-28" d="M 2056 4334 
L 2056 4191 
Q 1731 3978 1578 3775 
Q 1366 3494 1247 3053 
Q 1097 2506 1097 1525 
Q 1097 600 1233 87 
Q 1369 -425 1603 -741 
Q 1766 -959 2056 -1125 
L 2056 -1281 
Q 1303 -1028 779 -248 
Q 256 531 256 1544 
Q 256 2544 778 3314 
Q 1300 4084 2056 4334 
z
" transform="scale(0.015625)"/>
      <path id="TimesNewRomanPS-BoldMT-29" d="M 78 -1281 
L 78 -1138 
Q 403 -922 556 -719 
Q 766 -438 888 0 
Q 1038 550 1038 1531 
Q 1038 2456 902 2967 
Q 766 3478 531 3794 
Q 369 4013 78 4178 
L 78 4334 
Q 831 4081 1354 3301 
Q 1878 2522 1878 1509 
Q 1878 513 1354 -257 
Q 831 -1028 78 -1281 
z
" transform="scale(0.015625)"/>
     </defs>
     <use xlink:href="#TimesNewRomanPS-BoldMT-4e"/>
     <use xlink:href="#TimesNewRomanPS-BoldMT-75" x="72.216797"/>
     <use xlink:href="#TimesNewRomanPS-BoldMT-6d" x="127.832031"/>
     <use xlink:href="#TimesNewRomanPS-BoldMT-62" x="211.132812"/>
     <use xlink:href="#TimesNewRomanPS-BoldMT-65" x="266.748047"/>
     <use xlink:href="#TimesNewRomanPS-BoldMT-72" x="311.132812"/>
     <use xlink:href="#TimesNewRomanPS-BoldMT-20" x="353.767578"/>
     <use xlink:href="#TimesNewRomanPS-BoldMT-6f" x="378.767578"/>
     <use xlink:href="#TimesNewRomanPS-BoldMT-66" x="428.767578"/>
     <use xlink:href="#TimesNewRomanPS-BoldMT-20" x="462.068359"/>
     <use xlink:href="#TimesNewRomanPS-BoldMT-64" x="487.068359"/>
     <use xlink:href="#TimesNewRomanPS-BoldMT-61" x="542.683594"/>
     <use xlink:href="#TimesNewRomanPS-BoldMT-69" x="592.683594"/>
     <use xlink:href="#TimesNewRomanPS-BoldMT-6c" x="620.466797"/>
     <use xlink:href="#TimesNewRomanPS-BoldMT-79" x="648.25"/>
     <use xlink:href="#TimesNewRomanPS-BoldMT-20" x="698.25"/>
     <use xlink:href="#TimesNewRomanPS-BoldMT-76" x="723.25"/>
     <use xlink:href="#TimesNewRomanPS-BoldMT-69" x="773.25"/>
     <use xlink:href="#TimesNewRomanPS-BoldMT-65" x="801.033203"/>
     <use xlink:href="#TimesNewRomanPS-BoldMT-77" x="845.417969"/>
     <use xlink:href="#TimesNewRomanPS-BoldMT-65" x="917.634766"/>
     <use xlink:href="#TimesNewRomanPS-BoldMT-72" x="962.019531"/>
     <use xlink:href="#TimesNewRomanPS-BoldMT-73" x="1006.404297"/>
     <use xlink:href="#TimesNewRomanPS-BoldMT-20" x="1045.320312"/>
     <use xlink:href="#TimesNewRomanPS-BoldMT-6f" x="1070.320312"/>
     <use xlink:href="#TimesNewRomanPS-BoldMT-6e" x="1120.320312"/>
     <use xlink:href="#TimesNewRomanPS-BoldMT-20" x="1175.935547"/>
     <use xlink:href="#TimesNewRomanPS-BoldMT-64" x="1200.935547"/>
     <use xlink:href="#TimesNewRomanPS-BoldMT-69" x="1256.550781"/>
     <use xlink:href="#TimesNewRomanPS-BoldMT-66" x="1284.333984"/>
     <use xlink:href="#TimesNewRomanPS-BoldMT-66" x="1317.634766"/>
     <use xlink:href="#TimesNewRomanPS-BoldMT-65" x="1350.935547"/>
     <use xlink:href="#TimesNewRomanPS-BoldMT-72" x="1395.320312"/>
     <use xlink:href="#TimesNewRomanPS-BoldMT-65" x="1437.955078"/>
     <use xlink:href="#TimesNewRomanPS-BoldMT-6e" x="1482.339844"/>
     <use xlink:href="#TimesNewRomanPS-BoldMT-74" x="1537.955078"/>
     <use xlink:href="#TimesNewRomanPS-BoldMT-20" x="1571.255859"/>
     <use xlink:href="#TimesNewRomanPS-BoldMT-76" x="1596.255859"/>
     <use xlink:href="#TimesNewRomanPS-BoldMT-69" x="1646.255859"/>
     <use xlink:href="#TimesNewRomanPS-BoldMT-64" x="1674.039062"/>
     <use xlink:href="#TimesNewRomanPS-BoldMT-65" x="1729.654297"/>
     <use xlink:href="#TimesNewRomanPS-BoldMT-6f" x="1774.039062"/>
     <use xlink:href="#TimesNewRomanPS-BoldMT-20" x="1824.039062"/>
     <use xlink:href="#TimesNewRomanPS-BoldMT-70" x="1849.039062"/>
     <use xlink:href="#TimesNewRomanPS-BoldMT-6c" x="1904.654297"/>
     <use xlink:href="#TimesNewRomanPS-BoldMT-61" x="1932.4375"/>
     <use xlink:href="#TimesNewRomanPS-BoldMT-74" x="1982.4375"/>
     <use xlink:href="#TimesNewRomanPS-BoldMT-66" x="2015.738281"/>
     <use xlink:href="#TimesNewRomanPS-BoldMT-6f" x="2049.039062"/>
     <use xlink:href="#TimesNewRomanPS-BoldMT-72" x="2099.039062"/>
     <use xlink:href="#TimesNewRomanPS-BoldMT-6d" x="2143.423828"/>
     <use xlink:href="#TimesNewRomanPS-BoldMT-73" x="2226.724609"/>
     <use xlink:href="#TimesNewRomanPS-BoldMT-20" x="2265.640625"/>
     <use xlink:href="#TimesNewRomanPS-BoldMT-28" x="2290.640625"/>
     <use xlink:href="#TimesNewRomanPS-BoldMT-76" x="2323.941406"/>
     <use xlink:href="#TimesNewRomanPS-BoldMT-69" x="2373.941406"/>
     <use xlink:href="#TimesNewRomanPS-BoldMT-65" x="2401.724609"/>
     <use xlink:href="#TimesNewRomanPS-BoldMT-77" x="2446.109375"/>
     <use xlink:href="#TimesNewRomanPS-BoldMT-65" x="2518.326172"/>
     <use xlink:href="#TimesNewRomanPS-BoldMT-72" x="2562.710938"/>
     <use xlink:href="#TimesNewRomanPS-BoldMT-73" x="2607.095703"/>
     <use xlink:href="#TimesNewRomanPS-BoldMT-29" x="2646.011719"/>
    </g>
   </g>
  </g>
 </g>
 <defs>
  <clipPath id="p23c8359528">
   <rect x="55.915938" y="30.045" width="371.79" height="241.837661"/>
  </clipPath>
 </defs>
</svg>
