<?xml version="1.0" encoding="utf-8" standalone="no"?>
<!DOCTYPE svg PUBLIC "-//W3C//DTD SVG 1.1//EN"
  "http://www.w3.org/Graphics/SVG/1.1/DTD/svg11.dtd">
<svg xmlns:xlink="http://www.w3.org/1999/xlink" width="463.355937pt" height="319.990641pt" viewBox="0 0 463.355937 319.990641" xmlns="http://www.w3.org/2000/svg" version="1.1">
 <metadata>
  <rdf:RDF xmlns:dc="http://purl.org/dc/elements/1.1/" xmlns:cc="http://creativecommons.org/ns#" xmlns:rdf="http://www.w3.org/1999/02/22-rdf-syntax-ns#">
   <cc:Work>
    <dc:type rdf:resource="http://purl.org/dc/dcmitype/StillImage"/>
    <dc:date>2025-05-26T18:01:19.728030</dc:date>
    <dc:format>image/svg+xml</dc:format>
    <dc:creator>
     <cc:Agent>
      <dc:title>Matplotlib v3.7.2, https://matplotlib.org/</dc:title>
     </cc:Agent>
    </dc:creator>
   </cc:Work>
  </rdf:RDF>
 </metadata>
 <defs>
  <style type="text/css">*{stroke-linejoin: round; stroke-linecap: butt}</style>
 </defs>
 <g id="figure_1">
  <g id="patch_1">
   <path d="M 0 319.990641 
L 463.355937 319.990641 
L 463.355937 0 
L 0 0 
z
" style="fill: #ffffff"/>
  </g>
  <g id="axes_1">
   <g id="patch_2">
    <path d="M 55.915938 274.513099 
L 427.705937 274.513099 
L 427.705937 30.045 
L 55.915938 30.045 
z
" style="fill: #ffffff"/>
   </g>
   <g id="PolyCollection_1">
    <defs>
     <path id="me8792da0d8" d="M 103.595036 -56.589729 
L 82.594839 -56.589729 
L 81.223985 -58.180208 
L 79.809324 -59.770687 
L 78.36913 -61.361166 
L 76.922108 -62.951645 
L 75.486595 -64.542124 
L 74.079869 -66.132603 
L 72.717617 -67.723082 
L 71.41361 -69.313561 
L 70.179603 -70.90404 
L 69.025446 -72.494519 
L 67.959375 -74.084998 
L 66.988413 -75.675477 
L 66.118811 -77.265956 
L 65.356449 -78.856435 
L 64.707123 -80.446914 
L 64.176668 -82.037393 
L 63.770875 -83.627872 
L 63.495213 -85.218351 
L 63.354382 -86.80883 
L 63.351738 -88.399309 
L 63.48869 -89.989788 
L 63.764134 -91.580267 
L 64.174007 -93.170746 
L 64.711045 -94.761225 
L 65.364765 -96.351704 
L 66.121711 -97.942183 
L 66.965931 -99.532662 
L 67.879649 -101.123141 
L 68.844062 -102.71362 
L 69.840187 -104.304099 
L 70.84968 -105.894578 
L 71.85556 -107.485057 
L 72.842782 -109.075536 
L 73.798643 -110.666015 
L 74.713008 -112.256494 
L 75.578373 -113.846973 
L 76.389796 -115.437452 
L 77.144743 -117.027931 
L 77.842858 -118.61841 
L 78.485722 -120.208889 
L 79.076585 -121.799368 
L 79.620105 -123.389847 
L 80.122076 -124.980326 
L 80.58915 -126.570805 
L 81.028532 -128.161284 
L 81.447659 -129.751763 
L 81.853847 -131.342242 
L 82.253938 -132.932721 
L 82.653948 -134.5232 
L 83.058746 -136.113679 
L 83.471799 -137.704158 
L 83.894997 -139.294637 
L 84.328581 -140.885116 
L 84.771186 -142.475595 
L 85.219989 -144.066074 
L 85.670959 -145.656553 
L 86.119181 -147.247032 
L 86.559226 -148.837511 
L 86.985535 -150.42799 
L 87.392789 -152.018469 
L 87.776236 -153.608948 
L 88.131948 -155.199427 
L 88.457009 -156.789906 
L 88.749614 -158.380385 
L 89.009086 -159.970864 
L 89.235829 -161.561343 
L 89.431212 -163.151822 
L 89.597414 -164.742301 
L 89.737243 -166.33278 
L 89.853942 -167.923259 
L 89.951001 -169.513738 
L 90.031986 -171.104217 
L 90.100391 -172.694696 
L 90.159526 -174.285175 
L 90.21243 -175.875654 
L 90.261821 -177.466133 
L 90.310069 -179.056612 
L 90.35919 -180.647091 
L 90.410849 -182.23757 
L 90.466378 -183.828049 
L 90.526782 -185.418528 
L 90.592754 -187.009007 
L 90.664675 -188.599485 
L 90.742625 -190.189964 
L 90.826387 -191.780443 
L 90.915463 -193.370922 
L 91.009105 -194.961401 
L 91.106361 -196.55188 
L 91.206135 -198.142359 
L 91.307267 -199.732838 
L 91.408614 -201.323317 
L 91.509135 -202.913796 
L 91.607962 -204.504275 
L 91.70445 -206.094754 
L 91.798199 -207.685233 
L 91.889048 -209.275712 
L 91.977032 -210.866191 
L 92.062326 -212.45667 
L 92.145168 -214.047149 
L 94.044707 -214.047149 
L 94.044707 -214.047149 
L 94.127549 -212.45667 
L 94.212843 -210.866191 
L 94.300827 -209.275712 
L 94.391676 -207.685233 
L 94.485425 -206.094754 
L 94.581913 -204.504275 
L 94.68074 -202.913796 
L 94.781261 -201.323317 
L 94.882608 -199.732838 
L 94.98374 -198.142359 
L 95.083514 -196.55188 
L 95.18077 -194.961401 
L 95.274412 -193.370922 
L 95.363488 -191.780443 
L 95.44725 -190.189964 
L 95.5252 -188.599485 
L 95.597121 -187.009007 
L 95.663093 -185.418528 
L 95.723497 -183.828049 
L 95.779026 -182.23757 
L 95.830685 -180.647091 
L 95.879806 -179.056612 
L 95.928054 -177.466133 
L 95.977445 -175.875654 
L 96.030349 -174.285175 
L 96.089484 -172.694696 
L 96.157889 -171.104217 
L 96.238874 -169.513738 
L 96.335933 -167.923259 
L 96.452632 -166.33278 
L 96.592461 -164.742301 
L 96.758663 -163.151822 
L 96.954046 -161.561343 
L 97.180789 -159.970864 
L 97.440261 -158.380385 
L 97.732866 -156.789906 
L 98.057927 -155.199427 
L 98.413639 -153.608948 
L 98.797086 -152.018469 
L 99.20434 -150.42799 
L 99.630649 -148.837511 
L 100.070694 -147.247032 
L 100.518916 -145.656553 
L 100.969886 -144.066074 
L 101.418689 -142.475595 
L 101.861294 -140.885116 
L 102.294878 -139.294637 
L 102.718076 -137.704158 
L 103.131129 -136.113679 
L 103.535927 -134.5232 
L 103.935937 -132.932721 
L 104.336028 -131.342242 
L 104.742216 -129.751763 
L 105.161343 -128.161284 
L 105.600725 -126.570805 
L 106.067799 -124.980326 
L 106.56977 -123.389847 
L 107.11329 -121.799368 
L 107.704153 -120.208889 
L 108.347017 -118.61841 
L 109.045132 -117.027931 
L 109.800079 -115.437452 
L 110.611502 -113.846973 
L 111.476867 -112.256494 
L 112.391232 -110.666015 
L 113.347093 -109.075536 
L 114.334315 -107.485057 
L 115.340195 -105.894578 
L 116.349688 -104.304099 
L 117.345813 -102.71362 
L 118.310226 -101.123141 
L 119.223944 -99.532662 
L 120.068164 -97.942183 
L 120.82511 -96.351704 
L 121.47883 -94.761225 
L 122.015868 -93.170746 
L 122.425741 -91.580267 
L 122.701185 -89.989788 
L 122.838137 -88.399309 
L 122.835493 -86.80883 
L 122.694662 -85.218351 
L 122.419 -83.627872 
L 122.013207 -82.037393 
L 121.482752 -80.446914 
L 120.833426 -78.856435 
L 120.071064 -77.265956 
L 119.201462 -75.675477 
L 118.2305 -74.084998 
L 117.164429 -72.494519 
L 116.010272 -70.90404 
L 114.776265 -69.313561 
L 113.472258 -67.723082 
L 112.110006 -66.132603 
L 110.70328 -64.542124 
L 109.267767 -62.951645 
L 107.820745 -61.361166 
L 106.380551 -59.770687 
L 104.96589 -58.180208 
L 103.595036 -56.589729 
z
" style="stroke: #000000; stroke-opacity: 0.7"/>
    </defs>
    <g clip-path="url(#pb97861bfd1)">
     <use xlink:href="#me8792da0d8" x="0" y="319.990641" style="fill: #ff9896; fill-opacity: 0.7; stroke: #000000; stroke-opacity: 0.7"/>
    </g>
   </g>
   <g id="PolyCollection_2">
    <defs>
     <path id="m122aa4ce40" d="M 175.078323 -93.201477 
L 159.827552 -93.201477 
L 158.726261 -94.830003 
L 157.560035 -96.45853 
L 156.342151 -98.087057 
L 155.088098 -99.715584 
L 153.814877 -101.34411 
L 152.540154 -102.972637 
L 151.2813 -104.601164 
L 150.054424 -106.229691 
L 148.873487 -107.858217 
L 147.749584 -109.486744 
L 146.690477 -111.115271 
L 145.700437 -112.743797 
L 144.780403 -114.372324 
L 143.928459 -116.000851 
L 143.140556 -117.629378 
L 142.411417 -119.257904 
L 141.735502 -120.886431 
L 141.107944 -122.514958 
L 140.525328 -124.143485 
L 139.986261 -125.772011 
L 139.49164 -127.400538 
L 139.044638 -129.029065 
L 138.650392 -130.657591 
L 138.315469 -132.286118 
L 138.04716 -133.914645 
L 137.852714 -135.543172 
L 137.738579 -137.171698 
L 137.709738 -138.800225 
L 137.769209 -140.428752 
L 137.917728 -142.057279 
L 138.153633 -143.685805 
L 138.472935 -145.314332 
L 138.869533 -146.942859 
L 139.335541 -148.571386 
L 139.861679 -150.199912 
L 140.437672 -151.828439 
L 141.05266 -153.456966 
L 141.695575 -155.085492 
L 142.355491 -156.714019 
L 143.02196 -158.342546 
L 143.685322 -159.971073 
L 144.337013 -161.599599 
L 144.969848 -163.228126 
L 145.578284 -164.856653 
L 146.15863 -166.48518 
L 146.709189 -168.113706 
L 147.230305 -169.742233 
L 147.724301 -171.37076 
L 148.195299 -172.999286 
L 148.64893 -174.627813 
L 149.091954 -176.25634 
L 149.531814 -177.884867 
L 149.976163 -179.513393 
L 150.432391 -181.14192 
L 150.907192 -182.770447 
L 151.406186 -184.398974 
L 151.933607 -186.0275 
L 152.492083 -187.656027 
L 153.082488 -189.284554 
L 153.703882 -190.913081 
L 154.353523 -192.541607 
L 155.026971 -194.170134 
L 155.718264 -195.798661 
L 156.420177 -197.427187 
L 157.124557 -199.055714 
L 157.822724 -200.684241 
L 158.505928 -202.312768 
L 159.165819 -203.941294 
L 159.794917 -205.569821 
L 160.387029 -207.198348 
L 160.937585 -208.826875 
L 161.44385 -210.455401 
L 161.904998 -212.083928 
L 162.32203 -213.712455 
L 162.697546 -215.340981 
L 163.035397 -216.969508 
L 163.340234 -218.598035 
L 163.617031 -220.226562 
L 163.870598 -221.855088 
L 164.105164 -223.483615 
L 164.324048 -225.112142 
L 164.529462 -226.740669 
L 164.722459 -228.369195 
L 164.903019 -229.997722 
L 165.070267 -231.626249 
L 165.222783 -233.254776 
L 165.358965 -234.883302 
L 165.477406 -236.511829 
L 165.577241 -238.140356 
L 165.658417 -239.768882 
L 165.721859 -241.397409 
L 165.769527 -243.025936 
L 165.804334 -244.654463 
L 165.82997 -246.282989 
L 165.850623 -247.911516 
L 165.870646 -249.540043 
L 165.89421 -251.16857 
L 165.924972 -252.797096 
L 165.965792 -254.425623 
L 168.940083 -254.425623 
L 168.940083 -254.425623 
L 168.980903 -252.797096 
L 169.011665 -251.16857 
L 169.035229 -249.540043 
L 169.055252 -247.911516 
L 169.075905 -246.282989 
L 169.101541 -244.654463 
L 169.136348 -243.025936 
L 169.184016 -241.397409 
L 169.247458 -239.768882 
L 169.328634 -238.140356 
L 169.428469 -236.511829 
L 169.54691 -234.883302 
L 169.683092 -233.254776 
L 169.835608 -231.626249 
L 170.002856 -229.997722 
L 170.183416 -228.369195 
L 170.376413 -226.740669 
L 170.581827 -225.112142 
L 170.800711 -223.483615 
L 171.035277 -221.855088 
L 171.288844 -220.226562 
L 171.565641 -218.598035 
L 171.870478 -216.969508 
L 172.208329 -215.340981 
L 172.583845 -213.712455 
L 173.000877 -212.083928 
L 173.462025 -210.455401 
L 173.96829 -208.826875 
L 174.518846 -207.198348 
L 175.110958 -205.569821 
L 175.740056 -203.941294 
L 176.399947 -202.312768 
L 177.083151 -200.684241 
L 177.781318 -199.055714 
L 178.485698 -197.427187 
L 179.187611 -195.798661 
L 179.878904 -194.170134 
L 180.552352 -192.541607 
L 181.201993 -190.913081 
L 181.823387 -189.284554 
L 182.413792 -187.656027 
L 182.972268 -186.0275 
L 183.499689 -184.398974 
L 183.998683 -182.770447 
L 184.473484 -181.14192 
L 184.929712 -179.513393 
L 185.374061 -177.884867 
L 185.813921 -176.25634 
L 186.256945 -174.627813 
L 186.710576 -172.999286 
L 187.181574 -171.37076 
L 187.67557 -169.742233 
L 188.196686 -168.113706 
L 188.747245 -166.48518 
L 189.327591 -164.856653 
L 189.936027 -163.228126 
L 190.568862 -161.599599 
L 191.220553 -159.971073 
L 191.883915 -158.342546 
L 192.550384 -156.714019 
L 193.2103 -155.085492 
L 193.853215 -153.456966 
L 194.468203 -151.828439 
L 195.044196 -150.199912 
L 195.570334 -148.571386 
L 196.036342 -146.942859 
L 196.43294 -145.314332 
L 196.752242 -143.685805 
L 196.988147 -142.057279 
L 197.136666 -140.428752 
L 197.196137 -138.800225 
L 197.167296 -137.171698 
L 197.053161 -135.543172 
L 196.858715 -133.914645 
L 196.590406 -132.286118 
L 196.255483 -130.657591 
L 195.861237 -129.029065 
L 195.414235 -127.400538 
L 194.919614 -125.772011 
L 194.380547 -124.143485 
L 193.797931 -122.514958 
L 193.170373 -120.886431 
L 192.494458 -119.257904 
L 191.765319 -117.629378 
L 190.977416 -116.000851 
L 190.125472 -114.372324 
L 189.205438 -112.743797 
L 188.215398 -111.115271 
L 187.156291 -109.486744 
L 186.032388 -107.858217 
L 184.851451 -106.229691 
L 183.624575 -104.601164 
L 182.365721 -102.972637 
L 181.090998 -101.34411 
L 179.817777 -99.715584 
L 178.563724 -98.087057 
L 177.34584 -96.45853 
L 176.179614 -94.830003 
L 175.078323 -93.201477 
z
" style="stroke: #000000; stroke-opacity: 0.7"/>
    </defs>
    <g clip-path="url(#pb97861bfd1)">
     <use xlink:href="#m122aa4ce40" x="0" y="319.990641" style="fill: #c49c94; fill-opacity: 0.7; stroke: #000000; stroke-opacity: 0.7"/>
    </g>
   </g>
   <g id="PolyCollection_3">
    <defs>
     <path id="medfef6872e" d="M 257.257777 -166.556049 
L 226.364098 -166.556049 
L 224.461042 -167.690164 
L 222.569671 -168.824279 
L 220.733628 -169.958394 
L 218.995913 -171.09251 
L 217.396589 -172.226625 
L 215.970687 -173.36074 
L 214.746495 -174.494855 
L 213.74436 -175.62897 
L 212.976081 -176.763086 
L 212.444904 -177.897201 
L 212.146058 -179.031316 
L 212.067737 -180.165431 
L 212.192378 -181.299546 
L 212.498095 -182.433662 
L 212.960123 -183.567777 
L 213.552169 -184.701892 
L 214.247577 -185.836007 
L 215.020297 -186.970123 
L 215.845645 -188.104238 
L 216.700888 -189.238353 
L 217.56571 -190.372468 
L 218.422589 -191.506583 
L 219.257121 -192.640699 
L 220.058302 -193.774814 
L 220.818752 -194.908929 
L 221.534837 -196.043044 
L 222.206652 -197.177159 
L 222.837821 -198.311275 
L 223.435065 -199.44539 
L 224.007544 -200.579505 
L 224.566001 -201.71362 
L 225.121742 -202.847736 
L 225.685564 -203.981851 
L 226.266719 -205.115966 
L 226.872018 -206.250081 
L 227.505191 -207.384196 
L 228.166548 -208.518312 
L 228.853001 -209.652427 
L 229.558424 -210.786542 
L 230.274316 -211.920657 
L 230.990674 -213.054772 
L 231.696984 -214.188888 
L 232.383204 -215.323003 
L 233.040634 -216.457118 
L 233.662583 -217.591233 
L 234.244771 -218.725349 
L 234.785434 -219.859464 
L 235.285158 -220.993579 
L 235.74646 -222.127694 
L 236.173202 -223.261809 
L 236.569917 -224.395925 
L 236.941117 -225.53004 
L 237.290687 -226.664155 
L 237.621399 -227.79827 
L 237.934617 -228.932385 
L 238.2302 -230.066501 
L 238.506596 -231.200616 
L 238.761127 -232.334731 
L 238.990406 -233.468846 
L 239.190854 -234.602962 
L 239.359256 -235.737077 
L 239.493293 -236.871192 
L 239.592005 -238.005307 
L 239.656137 -239.139422 
L 239.688314 -240.273538 
L 239.693037 -241.407653 
L 239.676488 -242.541768 
L 239.646155 -243.675883 
L 239.610302 -244.809998 
L 239.577349 -245.944114 
L 239.555203 -247.078229 
L 239.550632 -248.212344 
L 239.56872 -249.346459 
L 239.612483 -250.480575 
L 239.682675 -251.61469 
L 239.777799 -252.748805 
L 239.894319 -253.88292 
L 240.027047 -255.017035 
L 240.169653 -256.151151 
L 240.315238 -257.285266 
L 240.456929 -258.419381 
L 240.588409 -259.553496 
L 240.704372 -260.687611 
L 240.800849 -261.821727 
L 240.875403 -262.955842 
L 240.927186 -264.089957 
L 240.956882 -265.224072 
L 240.96654 -266.358188 
L 240.959332 -267.492303 
L 240.93926 -268.626418 
L 240.910835 -269.760533 
L 240.878747 -270.894648 
L 240.847558 -272.028764 
L 240.821419 -273.162879 
L 240.803839 -274.296994 
L 240.79751 -275.431109 
L 240.804195 -276.565224 
L 240.824694 -277.69934 
L 240.858861 -278.833455 
L 242.763014 -278.833455 
L 242.763014 -278.833455 
L 242.797181 -277.69934 
L 242.81768 -276.565224 
L 242.824365 -275.431109 
L 242.818036 -274.296994 
L 242.800456 -273.162879 
L 242.774317 -272.028764 
L 242.743128 -270.894648 
L 242.71104 -269.760533 
L 242.682615 -268.626418 
L 242.662543 -267.492303 
L 242.655335 -266.358188 
L 242.664993 -265.224072 
L 242.694689 -264.089957 
L 242.746472 -262.955842 
L 242.821026 -261.821727 
L 242.917503 -260.687611 
L 243.033466 -259.553496 
L 243.164946 -258.419381 
L 243.306637 -257.285266 
L 243.452222 -256.151151 
L 243.594828 -255.017035 
L 243.727556 -253.88292 
L 243.844076 -252.748805 
L 243.9392 -251.61469 
L 244.009392 -250.480575 
L 244.053155 -249.346459 
L 244.071243 -248.212344 
L 244.066672 -247.078229 
L 244.044526 -245.944114 
L 244.011573 -244.809998 
L 243.97572 -243.675883 
L 243.945387 -242.541768 
L 243.928838 -241.407653 
L 243.933561 -240.273538 
L 243.965738 -239.139422 
L 244.02987 -238.005307 
L 244.128582 -236.871192 
L 244.262619 -235.737077 
L 244.431021 -234.602962 
L 244.631469 -233.468846 
L 244.860748 -232.334731 
L 245.115279 -231.200616 
L 245.391675 -230.066501 
L 245.687258 -228.932385 
L 246.000476 -227.79827 
L 246.331188 -226.664155 
L 246.680758 -225.53004 
L 247.051958 -224.395925 
L 247.448673 -223.261809 
L 247.875415 -222.127694 
L 248.336717 -220.993579 
L 248.836441 -219.859464 
L 249.377104 -218.725349 
L 249.959292 -217.591233 
L 250.581241 -216.457118 
L 251.238671 -215.323003 
L 251.924891 -214.188888 
L 252.631201 -213.054772 
L 253.347559 -211.920657 
L 254.063451 -210.786542 
L 254.768874 -209.652427 
L 255.455327 -208.518312 
L 256.116684 -207.384196 
L 256.749857 -206.250081 
L 257.355156 -205.115966 
L 257.936311 -203.981851 
L 258.500133 -202.847736 
L 259.055874 -201.71362 
L 259.614331 -200.579505 
L 260.18681 -199.44539 
L 260.784054 -198.311275 
L 261.415223 -197.177159 
L 262.087038 -196.043044 
L 262.803123 -194.908929 
L 263.563573 -193.774814 
L 264.364754 -192.640699 
L 265.199286 -191.506583 
L 266.056165 -190.372468 
L 266.920987 -189.238353 
L 267.77623 -188.104238 
L 268.601578 -186.970123 
L 269.374298 -185.836007 
L 270.069706 -184.701892 
L 270.661752 -183.567777 
L 271.12378 -182.433662 
L 271.429497 -181.299546 
L 271.554137 -180.165431 
L 271.475817 -179.031316 
L 271.176971 -177.897201 
L 270.645794 -176.763086 
L 269.877515 -175.62897 
L 268.87538 -174.494855 
L 267.651188 -173.36074 
L 266.225286 -172.226625 
L 264.625962 -171.09251 
L 262.888247 -169.958394 
L 261.052204 -168.824279 
L 259.160833 -167.690164 
L 257.257777 -166.556049 
z
" style="stroke: #000000; stroke-opacity: 0.7"/>
    </defs>
    <g clip-path="url(#pb97861bfd1)">
     <use xlink:href="#medfef6872e" x="0" y="319.990641" style="fill: #f7b6d2; fill-opacity: 0.7; stroke: #000000; stroke-opacity: 0.7"/>
    </g>
   </g>
   <g id="PolyCollection_4">
    <defs>
     <path id="m3fef32453b" d="M 332.544177 -136.939649 
L 299.793698 -136.939649 
L 298.435897 -137.180688 
L 297.118116 -137.421726 
L 295.859339 -137.662765 
L 294.676687 -137.903804 
L 293.584674 -138.144842 
L 292.594592 -138.385881 
L 291.714058 -138.62692 
L 290.946761 -138.867958 
L 290.292419 -139.108997 
L 289.746953 -139.350036 
L 289.302862 -139.591075 
L 288.949769 -139.832113 
L 288.675111 -140.073152 
L 288.464914 -140.314191 
L 288.30461 -140.555229 
L 288.179842 -140.796268 
L 288.077203 -141.037307 
L 287.984878 -141.278345 
L 287.893147 -141.519384 
L 287.794729 -141.760423 
L 287.684955 -142.001461 
L 287.561781 -142.2425 
L 287.425633 -142.483539 
L 287.279131 -142.724577 
L 287.126701 -142.965616 
L 286.974114 -143.206655 
L 286.827989 -143.447693 
L 286.695296 -143.688732 
L 286.582882 -143.929771 
L 286.497057 -144.170809 
L 286.443247 -144.411848 
L 286.425737 -144.652887 
L 286.447506 -144.893925 
L 286.510143 -145.134964 
L 286.613854 -145.376003 
L 286.757531 -145.617042 
L 286.938873 -145.85808 
L 287.154551 -146.099119 
L 287.400395 -146.340158 
L 287.671592 -146.581196 
L 287.96289 -146.822235 
L 288.268802 -147.063274 
L 288.583801 -147.304312 
L 288.902516 -147.545351 
L 289.219928 -147.78639 
L 289.531553 -148.027428 
L 289.833633 -148.268467 
L 290.123309 -148.509506 
L 290.398786 -148.750544 
L 290.659463 -148.991583 
L 290.906034 -149.232622 
L 291.14053 -149.47366 
L 291.366302 -149.714699 
L 291.587928 -149.955738 
L 291.811049 -150.196776 
L 292.042128 -150.437815 
L 292.288145 -150.678854 
L 292.556242 -150.919893 
L 292.853345 -151.160931 
L 293.185782 -151.40197 
L 293.558921 -151.643009 
L 293.976867 -151.884047 
L 294.442224 -152.125086 
L 294.955949 -152.366125 
L 295.517305 -152.607163 
L 296.123912 -152.848202 
L 296.771895 -153.089241 
L 297.456099 -153.330279 
L 298.170382 -153.571318 
L 298.907928 -153.812357 
L 299.661583 -154.053395 
L 300.424174 -154.294434 
L 301.1888 -154.535473 
L 301.949069 -154.776511 
L 302.699285 -155.01755 
L 303.434559 -155.258589 
L 304.150863 -155.499627 
L 304.845023 -155.740666 
L 305.514661 -155.981705 
L 306.158106 -156.222743 
L 306.774275 -156.463782 
L 307.362555 -156.704821 
L 307.922686 -156.94586 
L 308.454662 -157.186898 
L 308.958657 -157.427937 
L 309.434977 -157.668976 
L 309.88404 -157.910014 
L 310.306382 -158.151053 
L 310.702675 -158.392092 
L 311.07376 -158.63313 
L 311.420672 -158.874169 
L 311.744664 -159.115208 
L 312.0472 -159.356246 
L 312.329946 -159.597285 
L 312.59472 -159.838324 
L 312.843435 -160.079362 
L 313.078019 -160.320401 
L 313.300328 -160.56144 
L 313.512061 -160.802478 
L 318.825814 -160.802478 
L 318.825814 -160.802478 
L 319.037547 -160.56144 
L 319.259856 -160.320401 
L 319.49444 -160.079362 
L 319.743155 -159.838324 
L 320.007929 -159.597285 
L 320.290675 -159.356246 
L 320.593211 -159.115208 
L 320.917203 -158.874169 
L 321.264115 -158.63313 
L 321.6352 -158.392092 
L 322.031493 -158.151053 
L 322.453835 -157.910014 
L 322.902898 -157.668976 
L 323.379218 -157.427937 
L 323.883213 -157.186898 
L 324.415189 -156.94586 
L 324.97532 -156.704821 
L 325.5636 -156.463782 
L 326.179769 -156.222743 
L 326.823214 -155.981705 
L 327.492852 -155.740666 
L 328.187012 -155.499627 
L 328.903316 -155.258589 
L 329.63859 -155.01755 
L 330.388806 -154.776511 
L 331.149075 -154.535473 
L 331.913701 -154.294434 
L 332.676292 -154.053395 
L 333.429947 -153.812357 
L 334.167493 -153.571318 
L 334.881776 -153.330279 
L 335.56598 -153.089241 
L 336.213963 -152.848202 
L 336.82057 -152.607163 
L 337.381926 -152.366125 
L 337.895651 -152.125086 
L 338.361008 -151.884047 
L 338.778954 -151.643009 
L 339.152093 -151.40197 
L 339.48453 -151.160931 
L 339.781633 -150.919893 
L 340.04973 -150.678854 
L 340.295747 -150.437815 
L 340.526826 -150.196776 
L 340.749947 -149.955738 
L 340.971573 -149.714699 
L 341.197345 -149.47366 
L 341.431841 -149.232622 
L 341.678412 -148.991583 
L 341.939089 -148.750544 
L 342.214566 -148.509506 
L 342.504242 -148.268467 
L 342.806322 -148.027428 
L 343.117947 -147.78639 
L 343.435359 -147.545351 
L 343.754074 -147.304312 
L 344.069073 -147.063274 
L 344.374985 -146.822235 
L 344.666283 -146.581196 
L 344.93748 -146.340158 
L 345.183324 -146.099119 
L 345.399002 -145.85808 
L 345.580344 -145.617042 
L 345.724021 -145.376003 
L 345.827732 -145.134964 
L 345.890369 -144.893925 
L 345.912137 -144.652887 
L 345.894628 -144.411848 
L 345.840818 -144.170809 
L 345.754993 -143.929771 
L 345.642579 -143.688732 
L 345.509886 -143.447693 
L 345.363761 -143.206655 
L 345.211174 -142.965616 
L 345.058744 -142.724577 
L 344.912242 -142.483539 
L 344.776094 -142.2425 
L 344.65292 -142.001461 
L 344.543146 -141.760423 
L 344.444728 -141.519384 
L 344.352997 -141.278345 
L 344.260672 -141.037307 
L 344.158033 -140.796268 
L 344.033265 -140.555229 
L 343.872961 -140.314191 
L 343.662764 -140.073152 
L 343.388106 -139.832113 
L 343.035013 -139.591075 
L 342.590922 -139.350036 
L 342.045456 -139.108997 
L 341.391114 -138.867958 
L 340.623817 -138.62692 
L 339.743283 -138.385881 
L 338.753201 -138.144842 
L 337.661188 -137.903804 
L 336.478536 -137.662765 
L 335.219759 -137.421726 
L 333.901978 -137.180688 
L 332.544177 -136.939649 
z
" style="stroke: #000000; stroke-opacity: 0.7"/>
    </defs>
    <g clip-path="url(#pb97861bfd1)">
     <use xlink:href="#m3fef32453b" x="0" y="319.990641" style="fill: #1f77b4; fill-opacity: 0.7; stroke: #000000; stroke-opacity: 0.7"/>
    </g>
   </g>
   <g id="PolyCollection_5">
    <defs>
     <path id="m37da1bcf2a" d="M 406.150285 -59.21126 
L 374.90359 -59.21126 
L 373.40712 -60.197156 
L 371.921511 -61.183052 
L 370.468097 -62.168949 
L 369.067731 -63.154845 
L 367.740034 -64.140741 
L 366.502686 -65.126637 
L 365.370814 -66.112534 
L 364.356487 -67.09843 
L 363.468363 -68.084326 
L 362.711498 -69.070223 
L 362.087324 -70.056119 
L 361.593794 -71.042015 
L 361.225684 -72.027911 
L 360.975023 -73.013808 
L 360.831632 -73.999704 
L 360.783737 -74.9856 
L 360.818623 -75.971497 
L 360.92328 -76.957393 
L 361.08504 -77.943289 
L 361.292138 -78.929185 
L 361.534201 -79.915082 
L 361.802625 -80.900978 
L 362.09084 -81.886874 
L 362.394443 -82.872771 
L 362.711205 -83.858667 
L 363.040943 -84.844563 
L 363.385283 -85.830459 
L 363.747315 -86.816356 
L 364.131175 -87.802252 
L 364.541572 -88.788148 
L 364.983302 -89.774045 
L 365.460771 -90.759941 
L 365.977577 -91.745837 
L 366.536171 -92.731733 
L 367.137622 -93.71763 
L 367.781503 -94.703526 
L 368.465908 -95.689422 
L 369.187587 -96.675319 
L 369.942171 -97.661215 
L 370.724486 -98.647111 
L 371.528894 -99.633007 
L 372.349643 -100.618904 
L 373.181173 -101.6048 
L 374.018376 -102.590696 
L 374.856752 -103.576593 
L 375.692487 -104.562489 
L 376.52242 -105.548385 
L 377.343941 -106.534281 
L 378.154813 -107.520178 
L 378.952968 -108.506074 
L 379.736285 -109.49197 
L 380.502398 -110.477867 
L 381.248539 -111.463763 
L 381.971451 -112.449659 
L 382.667372 -113.435555 
L 383.332094 -114.421452 
L 383.96109 -115.407348 
L 384.549702 -116.393244 
L 385.093368 -117.379141 
L 385.587869 -118.365037 
L 386.029572 -119.350933 
L 386.415664 -120.336829 
L 386.744334 -121.322726 
L 387.014918 -122.308622 
L 387.227976 -123.294518 
L 387.385312 -124.280415 
L 387.489926 -125.266311 
L 387.545911 -126.252207 
L 387.558302 -127.238103 
L 387.532881 -128.224 
L 387.475965 -129.209896 
L 387.394173 -130.195792 
L 387.294199 -131.181689 
L 387.182602 -132.167585 
L 387.065613 -133.153481 
L 386.948973 -134.139377 
L 386.837813 -135.125274 
L 386.736562 -136.11117 
L 386.648897 -137.097066 
L 386.577723 -138.082963 
L 386.525181 -139.068859 
L 386.492686 -140.054755 
L 386.480971 -141.040651 
L 386.490164 -142.026548 
L 386.519858 -143.012444 
L 386.569203 -143.99834 
L 386.636993 -144.984237 
L 386.721759 -145.970133 
L 386.821861 -146.956029 
L 386.935572 -147.941925 
L 387.061153 -148.927822 
L 387.196916 -149.913718 
L 387.341268 -150.899614 
L 387.49274 -151.885511 
L 387.649992 -152.871407 
L 387.811802 -153.857303 
L 387.97704 -154.843199 
L 388.144634 -155.829096 
L 388.313526 -156.814992 
L 392.740349 -156.814992 
L 392.740349 -156.814992 
L 392.909241 -155.829096 
L 393.076835 -154.843199 
L 393.242073 -153.857303 
L 393.403883 -152.871407 
L 393.561135 -151.885511 
L 393.712607 -150.899614 
L 393.856959 -149.913718 
L 393.992722 -148.927822 
L 394.118303 -147.941925 
L 394.232014 -146.956029 
L 394.332116 -145.970133 
L 394.416882 -144.984237 
L 394.484672 -143.99834 
L 394.534017 -143.012444 
L 394.563711 -142.026548 
L 394.572904 -141.040651 
L 394.561189 -140.054755 
L 394.528694 -139.068859 
L 394.476152 -138.082963 
L 394.404978 -137.097066 
L 394.317313 -136.11117 
L 394.216062 -135.125274 
L 394.104902 -134.139377 
L 393.988262 -133.153481 
L 393.871273 -132.167585 
L 393.759676 -131.181689 
L 393.659702 -130.195792 
L 393.57791 -129.209896 
L 393.520994 -128.224 
L 393.495573 -127.238103 
L 393.507964 -126.252207 
L 393.563949 -125.266311 
L 393.668563 -124.280415 
L 393.825899 -123.294518 
L 394.038957 -122.308622 
L 394.309541 -121.322726 
L 394.638211 -120.336829 
L 395.024303 -119.350933 
L 395.466006 -118.365037 
L 395.960507 -117.379141 
L 396.504173 -116.393244 
L 397.092785 -115.407348 
L 397.721781 -114.421452 
L 398.386503 -113.435555 
L 399.082424 -112.449659 
L 399.805336 -111.463763 
L 400.551477 -110.477867 
L 401.31759 -109.49197 
L 402.100907 -108.506074 
L 402.899062 -107.520178 
L 403.709934 -106.534281 
L 404.531455 -105.548385 
L 405.361388 -104.562489 
L 406.197123 -103.576593 
L 407.035499 -102.590696 
L 407.872702 -101.6048 
L 408.704232 -100.618904 
L 409.524981 -99.633007 
L 410.329389 -98.647111 
L 411.111704 -97.661215 
L 411.866288 -96.675319 
L 412.587967 -95.689422 
L 413.272372 -94.703526 
L 413.916253 -93.71763 
L 414.517704 -92.731733 
L 415.076298 -91.745837 
L 415.593104 -90.759941 
L 416.070573 -89.774045 
L 416.512303 -88.788148 
L 416.9227 -87.802252 
L 417.30656 -86.816356 
L 417.668592 -85.830459 
L 418.012932 -84.844563 
L 418.34267 -83.858667 
L 418.659432 -82.872771 
L 418.963035 -81.886874 
L 419.25125 -80.900978 
L 419.519674 -79.915082 
L 419.761737 -78.929185 
L 419.968835 -77.943289 
L 420.130595 -76.957393 
L 420.235252 -75.971497 
L 420.270137 -74.9856 
L 420.222243 -73.999704 
L 420.078852 -73.013808 
L 419.828191 -72.027911 
L 419.460081 -71.042015 
L 418.966551 -70.056119 
L 418.342377 -69.070223 
L 417.585512 -68.084326 
L 416.697388 -67.09843 
L 415.683061 -66.112534 
L 414.551189 -65.126637 
L 413.313841 -64.140741 
L 411.986144 -63.154845 
L 410.585778 -62.168949 
L 409.132364 -61.183052 
L 407.646755 -60.197156 
L 406.150285 -59.21126 
z
" style="stroke: #000000; stroke-opacity: 0.7"/>
    </defs>
    <g clip-path="url(#pb97861bfd1)">
     <use xlink:href="#m37da1bcf2a" x="0" y="319.990641" style="fill: #7f7f7f; fill-opacity: 0.7; stroke: #000000; stroke-opacity: 0.7"/>
    </g>
   </g>
   <g id="matplotlib.axis_1">
    <g id="xtick_1">
     <g id="line2d_1">
      <defs>
       <path id="m16a36853f8" d="M 0 0 
L 0 3.5 
" style="stroke: #000000; stroke-width: 0.8"/>
      </defs>
      <g>
       <use xlink:href="#m16a36853f8" x="93.094938" y="274.513099" style="stroke: #000000; stroke-width: 0.8"/>
      </g>
     </g>
     <g id="text_1">
      <!-- Castio -->
      <g transform="translate(69.59336 309.091589) rotate(-45) scale(0.12 -0.12)">
       <defs>
        <path id="TimesNewRomanPSMT-43" d="M 3853 4334 
L 3950 2894 
L 3853 2894 
Q 3659 3541 3300 3825 
Q 2941 4109 2438 4109 
Q 2016 4109 1675 3895 
Q 1334 3681 1139 3212 
Q 944 2744 944 2047 
Q 944 1472 1128 1050 
Q 1313 628 1683 403 
Q 2053 178 2528 178 
Q 2941 178 3256 354 
Q 3572 531 3950 1056 
L 4047 994 
Q 3728 428 3303 165 
Q 2878 -97 2294 -97 
Q 1241 -97 663 684 
Q 231 1266 231 2053 
Q 231 2688 515 3219 
Q 800 3750 1298 4042 
Q 1797 4334 2388 4334 
Q 2847 4334 3294 4109 
Q 3425 4041 3481 4041 
Q 3566 4041 3628 4100 
Q 3709 4184 3744 4334 
L 3853 4334 
z
" transform="scale(0.015625)"/>
        <path id="TimesNewRomanPSMT-61" d="M 1822 413 
Q 1381 72 1269 19 
Q 1100 -59 909 -59 
Q 613 -59 420 144 
Q 228 347 228 678 
Q 228 888 322 1041 
Q 450 1253 767 1440 
Q 1084 1628 1822 1897 
L 1822 2009 
Q 1822 2438 1686 2597 
Q 1550 2756 1291 2756 
Q 1094 2756 978 2650 
Q 859 2544 859 2406 
L 866 2225 
Q 866 2081 792 2003 
Q 719 1925 600 1925 
Q 484 1925 411 2006 
Q 338 2088 338 2228 
Q 338 2497 613 2722 
Q 888 2947 1384 2947 
Q 1766 2947 2009 2819 
Q 2194 2722 2281 2516 
Q 2338 2381 2338 1966 
L 2338 994 
Q 2338 584 2353 492 
Q 2369 400 2405 369 
Q 2441 338 2488 338 
Q 2538 338 2575 359 
Q 2641 400 2828 588 
L 2828 413 
Q 2478 -56 2159 -56 
Q 2006 -56 1915 50 
Q 1825 156 1822 413 
z
M 1822 616 
L 1822 1706 
Q 1350 1519 1213 1441 
Q 966 1303 859 1153 
Q 753 1003 753 825 
Q 753 600 887 451 
Q 1022 303 1197 303 
Q 1434 303 1822 616 
z
" transform="scale(0.015625)"/>
        <path id="TimesNewRomanPSMT-73" d="M 2050 2947 
L 2050 1972 
L 1947 1972 
Q 1828 2431 1642 2597 
Q 1456 2763 1169 2763 
Q 950 2763 815 2647 
Q 681 2531 681 2391 
Q 681 2216 781 2091 
Q 878 1963 1175 1819 
L 1631 1597 
Q 2266 1288 2266 781 
Q 2266 391 1970 151 
Q 1675 -88 1309 -88 
Q 1047 -88 709 6 
Q 606 38 541 38 
Q 469 38 428 -44 
L 325 -44 
L 325 978 
L 428 978 
Q 516 541 762 319 
Q 1009 97 1316 97 
Q 1531 97 1667 223 
Q 1803 350 1803 528 
Q 1803 744 1651 891 
Q 1500 1038 1047 1263 
Q 594 1488 453 1669 
Q 313 1847 313 2119 
Q 313 2472 555 2709 
Q 797 2947 1181 2947 
Q 1350 2947 1591 2875 
Q 1750 2828 1803 2828 
Q 1853 2828 1881 2850 
Q 1909 2872 1947 2947 
L 2050 2947 
z
" transform="scale(0.015625)"/>
        <path id="TimesNewRomanPSMT-74" d="M 1031 3803 
L 1031 2863 
L 1700 2863 
L 1700 2644 
L 1031 2644 
L 1031 788 
Q 1031 509 1111 412 
Q 1191 316 1316 316 
Q 1419 316 1516 380 
Q 1613 444 1666 569 
L 1788 569 
Q 1678 263 1478 108 
Q 1278 -47 1066 -47 
Q 922 -47 784 33 
Q 647 113 581 261 
Q 516 409 516 719 
L 516 2644 
L 63 2644 
L 63 2747 
Q 234 2816 414 2980 
Q 594 3144 734 3369 
Q 806 3488 934 3803 
L 1031 3803 
z
" transform="scale(0.015625)"/>
        <path id="TimesNewRomanPSMT-69" d="M 928 4444 
Q 1059 4444 1151 4351 
Q 1244 4259 1244 4128 
Q 1244 3997 1151 3903 
Q 1059 3809 928 3809 
Q 797 3809 703 3903 
Q 609 3997 609 4128 
Q 609 4259 701 4351 
Q 794 4444 928 4444 
z
M 1188 2947 
L 1188 647 
Q 1188 378 1227 289 
Q 1266 200 1342 156 
Q 1419 113 1622 113 
L 1622 0 
L 231 0 
L 231 113 
Q 441 113 512 153 
Q 584 194 626 287 
Q 669 381 669 647 
L 669 1750 
Q 669 2216 641 2353 
Q 619 2453 572 2492 
Q 525 2531 444 2531 
Q 356 2531 231 2484 
L 188 2597 
L 1050 2947 
L 1188 2947 
z
" transform="scale(0.015625)"/>
        <path id="TimesNewRomanPSMT-6f" d="M 1600 2947 
Q 2250 2947 2644 2453 
Q 2978 2031 2978 1484 
Q 2978 1100 2793 706 
Q 2609 313 2286 112 
Q 1963 -88 1566 -88 
Q 919 -88 538 428 
Q 216 863 216 1403 
Q 216 1797 411 2186 
Q 606 2575 925 2761 
Q 1244 2947 1600 2947 
z
M 1503 2744 
Q 1338 2744 1170 2645 
Q 1003 2547 900 2300 
Q 797 2053 797 1666 
Q 797 1041 1045 587 
Q 1294 134 1700 134 
Q 2003 134 2200 384 
Q 2397 634 2397 1244 
Q 2397 2006 2069 2444 
Q 1847 2744 1503 2744 
z
" transform="scale(0.015625)"/>
       </defs>
       <use xlink:href="#TimesNewRomanPSMT-43"/>
       <use xlink:href="#TimesNewRomanPSMT-61" x="66.699219"/>
       <use xlink:href="#TimesNewRomanPSMT-73" x="111.083984"/>
       <use xlink:href="#TimesNewRomanPSMT-74" x="150"/>
       <use xlink:href="#TimesNewRomanPSMT-69" x="177.783203"/>
       <use xlink:href="#TimesNewRomanPSMT-6f" x="205.566406"/>
      </g>
     </g>
    </g>
    <g id="xtick_2">
     <g id="line2d_2">
      <g>
       <use xlink:href="#m16a36853f8" x="167.452937" y="274.513099" style="stroke: #000000; stroke-width: 0.8"/>
      </g>
     </g>
     <g id="text_2">
      <!-- Vizzle -->
      <g transform="translate(144.004393 309.038556) rotate(-45) scale(0.12 -0.12)">
       <defs>
        <path id="TimesNewRomanPSMT-56" d="M 4544 4238 
L 4544 4122 
Q 4319 4081 4203 3978 
Q 4038 3825 3909 3509 
L 2431 -97 
L 2316 -97 
L 728 3556 
Q 606 3838 556 3900 
Q 478 3997 364 4051 
Q 250 4106 56 4122 
L 56 4238 
L 1788 4238 
L 1788 4122 
Q 1494 4094 1406 4022 
Q 1319 3950 1319 3838 
Q 1319 3681 1463 3350 
L 2541 866 
L 3541 3319 
Q 3688 3681 3688 3822 
Q 3688 3913 3597 3995 
Q 3506 4078 3291 4113 
Q 3275 4116 3238 4122 
L 3238 4238 
L 4544 4238 
z
" transform="scale(0.015625)"/>
        <path id="TimesNewRomanPSMT-7a" d="M 2688 878 
L 2653 0 
L 128 0 
L 128 113 
L 2028 2644 
L 1091 2644 
Q 788 2644 694 2605 
Q 600 2566 541 2456 
Q 456 2300 444 2069 
L 319 2069 
L 338 2863 
L 2738 2863 
L 2738 2747 
L 819 209 
L 1863 209 
Q 2191 209 2308 264 
Q 2425 319 2497 456 
Q 2547 556 2581 878 
L 2688 878 
z
" transform="scale(0.015625)"/>
        <path id="TimesNewRomanPSMT-6c" d="M 1184 4444 
L 1184 647 
Q 1184 378 1223 290 
Q 1263 203 1344 158 
Q 1425 113 1647 113 
L 1647 0 
L 244 0 
L 244 113 
Q 441 113 512 153 
Q 584 194 625 287 
Q 666 381 666 647 
L 666 3247 
Q 666 3731 644 3842 
Q 622 3953 573 3993 
Q 525 4034 450 4034 
Q 369 4034 244 3984 
L 191 4094 
L 1044 4444 
L 1184 4444 
z
" transform="scale(0.015625)"/>
        <path id="TimesNewRomanPSMT-65" d="M 681 1784 
Q 678 1147 991 784 
Q 1303 422 1725 422 
Q 2006 422 2214 576 
Q 2422 731 2563 1106 
L 2659 1044 
Q 2594 616 2278 264 
Q 1963 -88 1488 -88 
Q 972 -88 605 314 
Q 238 716 238 1394 
Q 238 2128 614 2539 
Q 991 2950 1559 2950 
Q 2041 2950 2350 2633 
Q 2659 2316 2659 1784 
L 681 1784 
z
M 681 1966 
L 2006 1966 
Q 1991 2241 1941 2353 
Q 1863 2528 1708 2628 
Q 1553 2728 1384 2728 
Q 1125 2728 920 2526 
Q 716 2325 681 1966 
z
" transform="scale(0.015625)"/>
       </defs>
       <use xlink:href="#TimesNewRomanPSMT-56"/>
       <use xlink:href="#TimesNewRomanPSMT-69" x="66.216797"/>
       <use xlink:href="#TimesNewRomanPSMT-7a" x="94"/>
       <use xlink:href="#TimesNewRomanPSMT-7a" x="138.384766"/>
       <use xlink:href="#TimesNewRomanPSMT-6c" x="182.769531"/>
       <use xlink:href="#TimesNewRomanPSMT-65" x="210.552734"/>
      </g>
     </g>
    </g>
    <g id="xtick_3">
     <g id="line2d_3">
      <g>
       <use xlink:href="#m16a36853f8" x="241.810937" y="274.513099" style="stroke: #000000; stroke-width: 0.8"/>
      </g>
     </g>
     <g id="text_3">
      <!-- Videx -->
      <g transform="translate(219.767767 307.633181) rotate(-45) scale(0.12 -0.12)">
       <defs>
        <path id="TimesNewRomanPSMT-64" d="M 2222 322 
Q 2013 103 1813 7 
Q 1613 -88 1381 -88 
Q 913 -88 563 304 
Q 213 697 213 1313 
Q 213 1928 600 2439 
Q 988 2950 1597 2950 
Q 1975 2950 2222 2709 
L 2222 3238 
Q 2222 3728 2198 3840 
Q 2175 3953 2125 3993 
Q 2075 4034 2000 4034 
Q 1919 4034 1784 3984 
L 1744 4094 
L 2597 4444 
L 2738 4444 
L 2738 1134 
Q 2738 631 2761 520 
Q 2784 409 2836 365 
Q 2888 322 2956 322 
Q 3041 322 3181 375 
L 3216 266 
L 2366 -88 
L 2222 -88 
L 2222 322 
z
M 2222 541 
L 2222 2016 
Q 2203 2228 2109 2403 
Q 2016 2578 1861 2667 
Q 1706 2756 1559 2756 
Q 1284 2756 1069 2509 
Q 784 2184 784 1559 
Q 784 928 1059 592 
Q 1334 256 1672 256 
Q 1956 256 2222 541 
z
" transform="scale(0.015625)"/>
        <path id="TimesNewRomanPSMT-78" d="M 84 2863 
L 1431 2863 
L 1431 2747 
Q 1303 2747 1251 2703 
Q 1200 2659 1200 2588 
Q 1200 2513 1309 2356 
Q 1344 2306 1413 2200 
L 1616 1875 
L 1850 2200 
Q 2075 2509 2075 2591 
Q 2075 2656 2022 2701 
Q 1969 2747 1850 2747 
L 1850 2863 
L 2819 2863 
L 2819 2747 
Q 2666 2738 2553 2663 
Q 2400 2556 2134 2200 
L 1744 1678 
L 2456 653 
Q 2719 275 2831 198 
Q 2944 122 3122 113 
L 3122 0 
L 1772 0 
L 1772 113 
Q 1913 113 1991 175 
Q 2050 219 2050 291 
Q 2050 363 1850 653 
L 1431 1266 
L 972 653 
Q 759 369 759 316 
Q 759 241 829 180 
Q 900 119 1041 113 
L 1041 0 
L 106 0 
L 106 113 
Q 219 128 303 191 
Q 422 281 703 653 
L 1303 1450 
L 759 2238 
Q 528 2575 401 2661 
Q 275 2747 84 2747 
L 84 2863 
z
" transform="scale(0.015625)"/>
       </defs>
       <use xlink:href="#TimesNewRomanPSMT-56"/>
       <use xlink:href="#TimesNewRomanPSMT-69" x="66.216797"/>
       <use xlink:href="#TimesNewRomanPSMT-64" x="94"/>
       <use xlink:href="#TimesNewRomanPSMT-65" x="144"/>
       <use xlink:href="#TimesNewRomanPSMT-78" x="188.384766"/>
      </g>
     </g>
    </g>
    <g id="xtick_4">
     <g id="line2d_4">
      <g>
       <use xlink:href="#m16a36853f8" x="316.168937" y="274.513099" style="stroke: #000000; stroke-width: 0.8"/>
      </g>
     </g>
     <g id="text_4">
      <!-- Vido -->
      <g transform="translate(297.892437 303.866512) rotate(-45) scale(0.12 -0.12)">
       <use xlink:href="#TimesNewRomanPSMT-56"/>
       <use xlink:href="#TimesNewRomanPSMT-69" x="66.216797"/>
       <use xlink:href="#TimesNewRomanPSMT-64" x="94"/>
       <use xlink:href="#TimesNewRomanPSMT-6f" x="144"/>
      </g>
     </g>
    </g>
    <g id="xtick_5">
     <g id="line2d_5">
      <g>
       <use xlink:href="#m16a36853f8" x="390.526937" y="274.513099" style="stroke: #000000; stroke-width: 0.8"/>
      </g>
     </g>
     <g id="text_5">
      <!-- PixelX -->
      <g transform="translate(365.141362 310.975586) rotate(-45) scale(0.12 -0.12)">
       <defs>
        <path id="TimesNewRomanPSMT-50" d="M 1313 1984 
L 1313 750 
Q 1313 350 1400 253 
Q 1519 116 1759 116 
L 1922 116 
L 1922 0 
L 106 0 
L 106 116 
L 266 116 
Q 534 116 650 291 
Q 713 388 713 750 
L 713 3488 
Q 713 3888 628 3984 
Q 506 4122 266 4122 
L 106 4122 
L 106 4238 
L 1659 4238 
Q 2228 4238 2556 4120 
Q 2884 4003 3109 3725 
Q 3334 3447 3334 3066 
Q 3334 2547 2992 2222 
Q 2650 1897 2025 1897 
Q 1872 1897 1694 1919 
Q 1516 1941 1313 1984 
z
M 1313 2163 
Q 1478 2131 1606 2115 
Q 1734 2100 1825 2100 
Q 2150 2100 2386 2351 
Q 2622 2603 2622 3003 
Q 2622 3278 2509 3514 
Q 2397 3750 2190 3867 
Q 1984 3984 1722 3984 
Q 1563 3984 1313 3925 
L 1313 2163 
z
" transform="scale(0.015625)"/>
        <path id="TimesNewRomanPSMT-58" d="M 2613 2347 
L 3522 991 
Q 3900 428 4083 279 
Q 4266 131 4547 116 
L 4547 0 
L 2728 0 
L 2728 116 
Q 2909 119 2997 153 
Q 3063 181 3105 239 
Q 3147 297 3147 356 
Q 3147 428 3119 500 
Q 3097 553 2947 775 
L 2228 1863 
L 1341 725 
Q 1200 544 1172 483 
Q 1144 422 1144 356 
Q 1144 256 1228 190 
Q 1313 125 1550 116 
L 1550 0 
L 47 0 
L 47 116 
Q 206 131 322 181 
Q 516 263 691 400 
Q 866 538 1091 822 
L 2091 2084 
L 1256 3306 
Q 916 3803 678 3958 
Q 441 4113 131 4122 
L 131 4238 
L 2091 4238 
L 2091 4122 
Q 1841 4113 1748 4041 
Q 1656 3969 1656 3881 
Q 1656 3766 1806 3544 
L 2456 2572 
L 3209 3525 
Q 3341 3694 3370 3756 
Q 3400 3819 3400 3884 
Q 3400 3950 3363 4000 
Q 3316 4066 3244 4092 
Q 3172 4119 2947 4122 
L 2947 4238 
L 4450 4238 
L 4450 4122 
Q 4272 4113 4159 4066 
Q 3991 3994 3850 3872 
Q 3709 3750 3453 3422 
L 2613 2347 
z
" transform="scale(0.015625)"/>
       </defs>
       <use xlink:href="#TimesNewRomanPSMT-50"/>
       <use xlink:href="#TimesNewRomanPSMT-69" x="55.615234"/>
       <use xlink:href="#TimesNewRomanPSMT-78" x="83.398438"/>
       <use xlink:href="#TimesNewRomanPSMT-65" x="133.398438"/>
       <use xlink:href="#TimesNewRomanPSMT-6c" x="177.783203"/>
       <use xlink:href="#TimesNewRomanPSMT-58" x="205.566406"/>
      </g>
     </g>
    </g>
   </g>
   <g id="matplotlib.axis_2">
    <g id="ytick_1">
     <g id="line2d_6">
      <defs>
       <path id="mfd2b0e951f" d="M 0 0 
L -3.5 0 
" style="stroke: #000000; stroke-width: 0.8"/>
      </defs>
      <g>
       <use xlink:href="#mfd2b0e951f" x="55.915938" y="250.458828" style="stroke: #000000; stroke-width: 0.8"/>
      </g>
     </g>
     <g id="text_6">
      <!-- 5000 -->
      <g transform="translate(28.915938 253.930703) scale(0.1 -0.1)">
       <defs>
        <path id="TimesNewRomanPSMT-35" d="M 2778 4238 
L 2534 3706 
L 1259 3706 
L 981 3138 
Q 1809 3016 2294 2522 
Q 2709 2097 2709 1522 
Q 2709 1188 2573 903 
Q 2438 619 2231 419 
Q 2025 219 1772 97 
Q 1413 -75 1034 -75 
Q 653 -75 479 54 
Q 306 184 306 341 
Q 306 428 378 495 
Q 450 563 559 563 
Q 641 563 702 538 
Q 763 513 909 409 
Q 1144 247 1384 247 
Q 1750 247 2026 523 
Q 2303 800 2303 1197 
Q 2303 1581 2056 1914 
Q 1809 2247 1375 2428 
Q 1034 2569 447 2591 
L 1259 4238 
L 2778 4238 
z
" transform="scale(0.015625)"/>
        <path id="TimesNewRomanPSMT-30" d="M 231 2094 
Q 231 2819 450 3342 
Q 669 3866 1031 4122 
Q 1313 4325 1613 4325 
Q 2100 4325 2488 3828 
Q 2972 3213 2972 2159 
Q 2972 1422 2759 906 
Q 2547 391 2217 158 
Q 1888 -75 1581 -75 
Q 975 -75 572 641 
Q 231 1244 231 2094 
z
M 844 2016 
Q 844 1141 1059 588 
Q 1238 122 1591 122 
Q 1759 122 1940 273 
Q 2122 425 2216 781 
Q 2359 1319 2359 2297 
Q 2359 3022 2209 3506 
Q 2097 3866 1919 4016 
Q 1791 4119 1609 4119 
Q 1397 4119 1231 3928 
Q 1006 3669 925 3112 
Q 844 2556 844 2016 
z
" transform="scale(0.015625)"/>
       </defs>
       <use xlink:href="#TimesNewRomanPSMT-35"/>
       <use xlink:href="#TimesNewRomanPSMT-30" x="50"/>
       <use xlink:href="#TimesNewRomanPSMT-30" x="100"/>
       <use xlink:href="#TimesNewRomanPSMT-30" x="150"/>
      </g>
     </g>
    </g>
    <g id="ytick_2">
     <g id="line2d_7">
      <g>
       <use xlink:href="#mfd2b0e951f" x="55.915938" y="215.965002" style="stroke: #000000; stroke-width: 0.8"/>
      </g>
     </g>
     <g id="text_7">
      <!-- 10000 -->
      <g transform="translate(23.915938 219.436877) scale(0.1 -0.1)">
       <defs>
        <path id="TimesNewRomanPSMT-31" d="M 750 3822 
L 1781 4325 
L 1884 4325 
L 1884 747 
Q 1884 391 1914 303 
Q 1944 216 2037 169 
Q 2131 122 2419 116 
L 2419 0 
L 825 0 
L 825 116 
Q 1125 122 1212 167 
Q 1300 213 1334 289 
Q 1369 366 1369 747 
L 1369 3034 
Q 1369 3497 1338 3628 
Q 1316 3728 1258 3775 
Q 1200 3822 1119 3822 
Q 1003 3822 797 3725 
L 750 3822 
z
" transform="scale(0.015625)"/>
       </defs>
       <use xlink:href="#TimesNewRomanPSMT-31"/>
       <use xlink:href="#TimesNewRomanPSMT-30" x="50"/>
       <use xlink:href="#TimesNewRomanPSMT-30" x="100"/>
       <use xlink:href="#TimesNewRomanPSMT-30" x="150"/>
       <use xlink:href="#TimesNewRomanPSMT-30" x="200"/>
      </g>
     </g>
    </g>
    <g id="ytick_3">
     <g id="line2d_8">
      <g>
       <use xlink:href="#mfd2b0e951f" x="55.915938" y="181.471175" style="stroke: #000000; stroke-width: 0.8"/>
      </g>
     </g>
     <g id="text_8">
      <!-- 15000 -->
      <g transform="translate(23.915938 184.94305) scale(0.1 -0.1)">
       <use xlink:href="#TimesNewRomanPSMT-31"/>
       <use xlink:href="#TimesNewRomanPSMT-35" x="50"/>
       <use xlink:href="#TimesNewRomanPSMT-30" x="100"/>
       <use xlink:href="#TimesNewRomanPSMT-30" x="150"/>
       <use xlink:href="#TimesNewRomanPSMT-30" x="200"/>
      </g>
     </g>
    </g>
    <g id="ytick_4">
     <g id="line2d_9">
      <g>
       <use xlink:href="#mfd2b0e951f" x="55.915938" y="146.977348" style="stroke: #000000; stroke-width: 0.8"/>
      </g>
     </g>
     <g id="text_9">
      <!-- 20000 -->
      <g transform="translate(23.915938 150.449223) scale(0.1 -0.1)">
       <defs>
        <path id="TimesNewRomanPSMT-32" d="M 2934 816 
L 2638 0 
L 138 0 
L 138 116 
Q 1241 1122 1691 1759 
Q 2141 2397 2141 2925 
Q 2141 3328 1894 3587 
Q 1647 3847 1303 3847 
Q 991 3847 742 3664 
Q 494 3481 375 3128 
L 259 3128 
Q 338 3706 661 4015 
Q 984 4325 1469 4325 
Q 1984 4325 2329 3994 
Q 2675 3663 2675 3213 
Q 2675 2891 2525 2569 
Q 2294 2063 1775 1497 
Q 997 647 803 472 
L 1909 472 
Q 2247 472 2383 497 
Q 2519 522 2628 598 
Q 2738 675 2819 816 
L 2934 816 
z
" transform="scale(0.015625)"/>
       </defs>
       <use xlink:href="#TimesNewRomanPSMT-32"/>
       <use xlink:href="#TimesNewRomanPSMT-30" x="50"/>
       <use xlink:href="#TimesNewRomanPSMT-30" x="100"/>
       <use xlink:href="#TimesNewRomanPSMT-30" x="150"/>
       <use xlink:href="#TimesNewRomanPSMT-30" x="200"/>
      </g>
     </g>
    </g>
    <g id="ytick_5">
     <g id="line2d_10">
      <g>
       <use xlink:href="#mfd2b0e951f" x="55.915938" y="112.483521" style="stroke: #000000; stroke-width: 0.8"/>
      </g>
     </g>
     <g id="text_10">
      <!-- 25000 -->
      <g transform="translate(23.915938 115.955396) scale(0.1 -0.1)">
       <use xlink:href="#TimesNewRomanPSMT-32"/>
       <use xlink:href="#TimesNewRomanPSMT-35" x="50"/>
       <use xlink:href="#TimesNewRomanPSMT-30" x="100"/>
       <use xlink:href="#TimesNewRomanPSMT-30" x="150"/>
       <use xlink:href="#TimesNewRomanPSMT-30" x="200"/>
      </g>
     </g>
    </g>
    <g id="ytick_6">
     <g id="line2d_11">
      <g>
       <use xlink:href="#mfd2b0e951f" x="55.915938" y="77.989695" style="stroke: #000000; stroke-width: 0.8"/>
      </g>
     </g>
     <g id="text_11">
      <!-- 30000 -->
      <g transform="translate(23.915938 81.46157) scale(0.1 -0.1)">
       <defs>
        <path id="TimesNewRomanPSMT-33" d="M 325 3431 
Q 506 3859 782 4092 
Q 1059 4325 1472 4325 
Q 1981 4325 2253 3994 
Q 2459 3747 2459 3466 
Q 2459 3003 1878 2509 
Q 2269 2356 2469 2072 
Q 2669 1788 2669 1403 
Q 2669 853 2319 450 
Q 1863 -75 997 -75 
Q 569 -75 414 31 
Q 259 138 259 259 
Q 259 350 332 419 
Q 406 488 509 488 
Q 588 488 669 463 
Q 722 447 909 348 
Q 1097 250 1169 231 
Q 1284 197 1416 197 
Q 1734 197 1970 444 
Q 2206 691 2206 1028 
Q 2206 1275 2097 1509 
Q 2016 1684 1919 1775 
Q 1784 1900 1550 2001 
Q 1316 2103 1072 2103 
L 972 2103 
L 972 2197 
Q 1219 2228 1467 2375 
Q 1716 2522 1828 2728 
Q 1941 2934 1941 3181 
Q 1941 3503 1739 3701 
Q 1538 3900 1238 3900 
Q 753 3900 428 3381 
L 325 3431 
z
" transform="scale(0.015625)"/>
       </defs>
       <use xlink:href="#TimesNewRomanPSMT-33"/>
       <use xlink:href="#TimesNewRomanPSMT-30" x="50"/>
       <use xlink:href="#TimesNewRomanPSMT-30" x="100"/>
       <use xlink:href="#TimesNewRomanPSMT-30" x="150"/>
       <use xlink:href="#TimesNewRomanPSMT-30" x="200"/>
      </g>
     </g>
    </g>
    <g id="ytick_7">
     <g id="line2d_12">
      <g>
       <use xlink:href="#mfd2b0e951f" x="55.915938" y="43.495868" style="stroke: #000000; stroke-width: 0.8"/>
      </g>
     </g>
     <g id="text_12">
      <!-- 35000 -->
      <g transform="translate(23.915938 46.967743) scale(0.1 -0.1)">
       <use xlink:href="#TimesNewRomanPSMT-33"/>
       <use xlink:href="#TimesNewRomanPSMT-35" x="50"/>
       <use xlink:href="#TimesNewRomanPSMT-30" x="100"/>
       <use xlink:href="#TimesNewRomanPSMT-30" x="150"/>
       <use xlink:href="#TimesNewRomanPSMT-30" x="200"/>
      </g>
     </g>
    </g>
    <g id="text_13">
     <!-- viewers -->
     <g transform="translate(16.92125 174.049049) rotate(-90) scale(0.14 -0.14)">
      <defs>
       <path id="TimesNewRomanPSMT-76" d="M 53 2863 
L 1400 2863 
L 1400 2747 
L 1313 2747 
Q 1191 2747 1127 2687 
Q 1063 2628 1063 2528 
Q 1063 2419 1128 2269 
L 1794 688 
L 2463 2328 
Q 2534 2503 2534 2594 
Q 2534 2638 2509 2666 
Q 2475 2713 2422 2730 
Q 2369 2747 2206 2747 
L 2206 2863 
L 3141 2863 
L 3141 2747 
Q 2978 2734 2916 2681 
Q 2806 2588 2719 2369 
L 1703 -88 
L 1575 -88 
L 553 2328 
Q 484 2497 421 2570 
Q 359 2644 263 2694 
Q 209 2722 53 2747 
L 53 2863 
z
" transform="scale(0.015625)"/>
       <path id="TimesNewRomanPSMT-77" d="M 41 2863 
L 1241 2863 
L 1241 2747 
Q 1075 2734 1023 2687 
Q 972 2641 972 2553 
Q 972 2456 1025 2319 
L 1638 672 
L 2253 2013 
L 2091 2434 
Q 2016 2622 1894 2694 
Q 1825 2738 1638 2747 
L 1638 2863 
L 3000 2863 
L 3000 2747 
Q 2775 2738 2681 2666 
Q 2619 2616 2619 2506 
Q 2619 2444 2644 2378 
L 3294 734 
L 3897 2319 
Q 3959 2488 3959 2588 
Q 3959 2647 3898 2694 
Q 3838 2741 3659 2747 
L 3659 2863 
L 4563 2863 
L 4563 2747 
Q 4291 2706 4163 2378 
L 3206 -88 
L 3078 -88 
L 2363 1741 
L 1528 -88 
L 1413 -88 
L 494 2319 
Q 403 2547 315 2626 
Q 228 2706 41 2747 
L 41 2863 
z
" transform="scale(0.015625)"/>
       <path id="TimesNewRomanPSMT-72" d="M 1038 2947 
L 1038 2303 
Q 1397 2947 1775 2947 
Q 1947 2947 2059 2842 
Q 2172 2738 2172 2600 
Q 2172 2478 2090 2393 
Q 2009 2309 1897 2309 
Q 1788 2309 1652 2417 
Q 1516 2525 1450 2525 
Q 1394 2525 1328 2463 
Q 1188 2334 1038 2041 
L 1038 669 
Q 1038 431 1097 309 
Q 1138 225 1241 169 
Q 1344 113 1538 113 
L 1538 0 
L 72 0 
L 72 113 
Q 291 113 397 181 
Q 475 231 506 341 
Q 522 394 522 644 
L 522 1753 
Q 522 2253 501 2348 
Q 481 2444 426 2487 
Q 372 2531 291 2531 
Q 194 2531 72 2484 
L 41 2597 
L 906 2947 
L 1038 2947 
z
" transform="scale(0.015625)"/>
      </defs>
      <use xlink:href="#TimesNewRomanPSMT-76"/>
      <use xlink:href="#TimesNewRomanPSMT-69" x="50"/>
      <use xlink:href="#TimesNewRomanPSMT-65" x="77.783203"/>
      <use xlink:href="#TimesNewRomanPSMT-77" x="122.167969"/>
      <use xlink:href="#TimesNewRomanPSMT-65" x="194.384766"/>
      <use xlink:href="#TimesNewRomanPSMT-72" x="238.769531"/>
      <use xlink:href="#TimesNewRomanPSMT-73" x="272.070312"/>
     </g>
    </g>
   </g>
   <g id="patch_3">
    <path d="M 88.633457 240.835051 
L 97.556418 240.835051 
L 97.556418 202.441697 
L 88.633457 202.441697 
L 88.633457 240.835051 
L 88.633457 240.835051 
z
" clip-path="url(#pb97861bfd1)" style="fill: none; stroke: #000000; stroke-linejoin: miter"/>
   </g>
   <g id="line2d_13">
    <path d="M 93.094938 240.835051 
L 93.094938 263.400912 
" clip-path="url(#pb97861bfd1)" style="fill: none; stroke: #000000; stroke-linecap: square"/>
   </g>
   <g id="line2d_14">
    <path d="M 93.094938 202.441697 
L 93.094938 147.756909 
" clip-path="url(#pb97861bfd1)" style="fill: none; stroke: #000000; stroke-linecap: square"/>
   </g>
   <g id="line2d_15">
    <path d="M 90.864198 263.400912 
L 95.325677 263.400912 
" clip-path="url(#pb97861bfd1)" style="fill: none; stroke: #000000; stroke-linecap: square"/>
   </g>
   <g id="line2d_16">
    <path d="M 90.864198 147.756909 
L 95.325677 147.756909 
" clip-path="url(#pb97861bfd1)" style="fill: none; stroke: #000000; stroke-linecap: square"/>
   </g>
   <g id="patch_4">
    <path d="M 162.991457 194.454651 
L 171.914417 194.454651 
L 171.914417 147.943175 
L 162.991457 147.943175 
L 162.991457 194.454651 
L 162.991457 194.454651 
z
" clip-path="url(#pb97861bfd1)" style="fill: none; stroke: #000000; stroke-linejoin: miter"/>
   </g>
   <g id="line2d_17">
    <path d="M 167.452937 194.454651 
L 167.452937 226.789164 
" clip-path="url(#pb97861bfd1)" style="fill: none; stroke: #000000; stroke-linecap: square"/>
   </g>
   <g id="line2d_18">
    <path d="M 167.452937 147.943175 
L 167.452937 91.773428 
" clip-path="url(#pb97861bfd1)" style="fill: none; stroke: #000000; stroke-linecap: square"/>
   </g>
   <g id="line2d_19">
    <path d="M 165.222197 226.789164 
L 169.683677 226.789164 
" clip-path="url(#pb97861bfd1)" style="fill: none; stroke: #000000; stroke-linecap: square"/>
   </g>
   <g id="line2d_20">
    <path d="M 165.222197 91.773428 
L 169.683677 91.773428 
" clip-path="url(#pb97861bfd1)" style="fill: none; stroke: #000000; stroke-linecap: square"/>
   </g>
   <g id="patch_5">
    <path d="M 237.349457 143.143359 
L 246.272417 143.143359 
L 246.272417 115.800103 
L 237.349457 115.800103 
L 237.349457 143.143359 
L 237.349457 143.143359 
z
" clip-path="url(#pb97861bfd1)" style="fill: none; stroke: #000000; stroke-linejoin: miter"/>
   </g>
   <g id="line2d_21">
    <path d="M 241.810937 143.143359 
L 241.810937 153.434592 
" clip-path="url(#pb97861bfd1)" style="fill: none; stroke: #000000; stroke-linecap: square"/>
   </g>
   <g id="line2d_22">
    <path d="M 241.810937 115.800103 
L 241.810937 87.185749 
" clip-path="url(#pb97861bfd1)" style="fill: none; stroke: #000000; stroke-linecap: square"/>
   </g>
   <g id="line2d_23">
    <path d="M 239.580197 153.434592 
L 244.041677 153.434592 
" clip-path="url(#pb97861bfd1)" style="fill: none; stroke: #000000; stroke-linecap: square"/>
   </g>
   <g id="line2d_24">
    <path d="M 239.580197 87.185749 
L 244.041677 87.185749 
" clip-path="url(#pb97861bfd1)" style="fill: none; stroke: #000000; stroke-linecap: square"/>
   </g>
   <g id="patch_6">
    <path d="M 311.707457 179.141117 
L 320.630417 179.141117 
L 320.630417 169.141356 
L 311.707457 169.141356 
L 311.707457 179.141117 
L 311.707457 179.141117 
z
" clip-path="url(#pb97861bfd1)" style="fill: none; stroke: #000000; stroke-linejoin: miter"/>
   </g>
   <g id="line2d_25">
    <path d="M 316.168937 179.141117 
L 316.168937 183.050992 
" clip-path="url(#pb97861bfd1)" style="fill: none; stroke: #000000; stroke-linecap: square"/>
   </g>
   <g id="line2d_26">
    <path d="M 316.168937 169.141356 
L 316.168937 159.188163 
" clip-path="url(#pb97861bfd1)" style="fill: none; stroke: #000000; stroke-linecap: square"/>
   </g>
   <g id="line2d_27">
    <path d="M 313.938198 183.050992 
L 318.399677 183.050992 
" clip-path="url(#pb97861bfd1)" style="fill: none; stroke: #000000; stroke-linecap: square"/>
   </g>
   <g id="line2d_28">
    <path d="M 313.938198 159.188163 
L 318.399677 159.188163 
" clip-path="url(#pb97861bfd1)" style="fill: none; stroke: #000000; stroke-linecap: square"/>
   </g>
   <g id="patch_7">
    <path d="M 386.065457 249.755154 
L 394.988417 249.755154 
L 394.988417 222.936204 
L 386.065457 222.936204 
L 386.065457 249.755154 
L 386.065457 249.755154 
z
" clip-path="url(#pb97861bfd1)" style="fill: none; stroke: #000000; stroke-linejoin: miter"/>
   </g>
   <g id="line2d_29">
    <path d="M 390.526937 249.755154 
L 390.526937 260.779381 
" clip-path="url(#pb97861bfd1)" style="fill: none; stroke: #000000; stroke-linecap: square"/>
   </g>
   <g id="line2d_30">
    <path d="M 390.526937 222.936204 
L 390.526937 183.28555 
" clip-path="url(#pb97861bfd1)" style="fill: none; stroke: #000000; stroke-linecap: square"/>
   </g>
   <g id="line2d_31">
    <path d="M 388.296197 260.779381 
L 392.757677 260.779381 
" clip-path="url(#pb97861bfd1)" style="fill: none; stroke: #000000; stroke-linecap: square"/>
   </g>
   <g id="line2d_32">
    <path d="M 388.296197 183.28555 
L 392.757677 183.28555 
" clip-path="url(#pb97861bfd1)" style="fill: none; stroke: #000000; stroke-linecap: square"/>
   </g>
   <g id="line2d_33">
    <path d="M 88.633457 225.69571 
L 97.556418 225.69571 
" clip-path="url(#pb97861bfd1)" style="fill: none; stroke: #000000; stroke-width: 1.5; stroke-linecap: square"/>
   </g>
   <g id="line2d_34">
    <path d="M 162.991457 176.045296 
L 171.914417 176.045296 
" clip-path="url(#pb97861bfd1)" style="fill: none; stroke: #000000; stroke-width: 1.5; stroke-linecap: square"/>
   </g>
   <g id="line2d_35">
    <path d="M 237.349457 133.138425 
L 246.272417 133.138425 
" clip-path="url(#pb97861bfd1)" style="fill: none; stroke: #000000; stroke-width: 1.5; stroke-linecap: square"/>
   </g>
   <g id="line2d_36">
    <path d="M 311.707457 174.531017 
L 320.630417 174.531017 
" clip-path="url(#pb97861bfd1)" style="fill: none; stroke: #000000; stroke-width: 1.5; stroke-linecap: square"/>
   </g>
   <g id="line2d_37">
    <path d="M 386.065457 236.602658 
L 394.988417 236.602658 
" clip-path="url(#pb97861bfd1)" style="fill: none; stroke: #000000; stroke-width: 1.5; stroke-linecap: square"/>
   </g>
   <g id="patch_8">
    <path d="M 55.915938 274.513099 
L 55.915938 30.045 
" style="fill: none; stroke: #000000; stroke-linejoin: miter; stroke-linecap: square"/>
   </g>
   <g id="patch_9">
    <path d="M 427.705937 274.513099 
L 427.705937 30.045 
" style="fill: none; stroke: #000000; stroke-linejoin: miter; stroke-linecap: square"/>
   </g>
   <g id="patch_10">
    <path d="M 55.915938 274.513099 
L 427.705937 274.513099 
" style="fill: none; stroke: #000000; stroke-linejoin: miter; stroke-linecap: square"/>
   </g>
   <g id="patch_11">
    <path d="M 55.915938 30.045 
L 427.705937 30.045 
" style="fill: none; stroke: #000000; stroke-linejoin: miter; stroke-linecap: square"/>
   </g>
   <g id="text_14">
    <!-- Number of daily viewers on different video platforms (viewers) -->
    <g transform="translate(27.465937 18.045) scale(0.16 -0.16)">
     <defs>
      <path id="TimesNewRomanPS-BoldMT-4e" d="M 1594 4238 
L 3684 1609 
L 3684 3431 
Q 3684 3813 3575 3947 
Q 3425 4128 3072 4122 
L 3072 4238 
L 4472 4238 
L 4472 4122 
Q 4203 4088 4111 4033 
Q 4019 3978 3967 3854 
Q 3916 3731 3916 3431 
L 3916 -97 
L 3809 -97 
L 944 3431 
L 944 738 
Q 944 372 1111 244 
Q 1278 116 1494 116 
L 1594 116 
L 1594 0 
L 91 0 
L 91 116 
Q 441 119 578 259 
Q 716 400 716 738 
L 716 3728 
L 625 3841 
Q 491 4009 387 4062 
Q 284 4116 91 4122 
L 91 4238 
L 1594 4238 
z
" transform="scale(0.015625)"/>
      <path id="TimesNewRomanPS-BoldMT-75" d="M 3038 2922 
L 3038 634 
Q 3038 300 3100 217 
Q 3163 134 3353 113 
L 3353 0 
L 2163 0 
L 2163 391 
Q 1953 141 1743 26 
Q 1534 -88 1275 -88 
Q 1028 -88 836 64 
Q 644 216 578 419 
Q 513 622 513 1128 
L 513 2288 
Q 513 2619 452 2700 
Q 391 2781 197 2806 
L 197 2922 
L 1388 2922 
L 1388 925 
Q 1388 613 1417 522 
Q 1447 431 1511 384 
Q 1575 338 1659 338 
Q 1772 338 1863 397 
Q 1988 478 2163 725 
L 2163 2288 
Q 2163 2619 2102 2700 
Q 2041 2781 1847 2806 
L 1847 2922 
L 3038 2922 
z
" transform="scale(0.015625)"/>
      <path id="TimesNewRomanPS-BoldMT-6d" d="M 1428 2922 
L 1428 2538 
Q 1669 2800 1873 2904 
Q 2078 3009 2322 3009 
Q 2603 3009 2793 2878 
Q 2984 2747 3088 2478 
Q 3338 2759 3567 2884 
Q 3797 3009 4047 3009 
Q 4350 3009 4529 2870 
Q 4709 2731 4779 2517 
Q 4850 2303 4850 1834 
L 4850 638 
Q 4850 300 4911 219 
Q 4972 138 5166 113 
L 5166 0 
L 3656 0 
L 3656 113 
Q 3834 128 3919 250 
Q 3975 334 3975 638 
L 3975 1894 
Q 3975 2284 3944 2390 
Q 3913 2497 3845 2548 
Q 3778 2600 3688 2600 
Q 3553 2600 3415 2501 
Q 3278 2403 3138 2206 
L 3138 638 
Q 3138 322 3191 241 
Q 3263 125 3466 113 
L 3466 0 
L 1953 0 
L 1953 113 
Q 2075 119 2145 173 
Q 2216 228 2239 304 
Q 2263 381 2263 638 
L 2263 1894 
Q 2263 2291 2231 2391 
Q 2200 2491 2126 2547 
Q 2053 2603 1969 2603 
Q 1844 2603 1741 2538 
Q 1594 2441 1428 2206 
L 1428 638 
Q 1428 328 1489 229 
Q 1550 131 1744 113 
L 1744 0 
L 238 0 
L 238 113 
Q 422 131 500 231 
Q 553 300 553 638 
L 553 2288 
Q 553 2619 492 2700 
Q 431 2781 238 2806 
L 238 2922 
L 1428 2922 
z
" transform="scale(0.015625)"/>
      <path id="TimesNewRomanPS-BoldMT-62" d="M 1347 4238 
L 1347 2628 
Q 1716 3009 2153 3009 
Q 2453 3009 2718 2832 
Q 2984 2656 3134 2331 
Q 3284 2006 3284 1581 
Q 3284 1103 3093 712 
Q 2903 322 2584 117 
Q 2266 -88 1856 -88 
Q 1619 -88 1434 -12 
Q 1250 63 1072 231 
L 588 -84 
L 481 -84 
L 481 3631 
Q 481 3884 459 3944 
Q 428 4031 361 4073 
Q 294 4116 134 4122 
L 134 4238 
L 1347 4238 
z
M 1347 2350 
L 1347 1050 
Q 1347 653 1366 544 
Q 1397 359 1515 245 
Q 1634 131 1819 131 
Q 1978 131 2092 222 
Q 2206 313 2282 581 
Q 2359 850 2359 1550 
Q 2359 2222 2191 2472 
Q 2069 2653 1863 2653 
Q 1594 2653 1347 2350 
z
" transform="scale(0.015625)"/>
      <path id="TimesNewRomanPS-BoldMT-65" d="M 2691 1566 
L 1088 1566 
Q 1116 984 1397 647 
Q 1613 388 1916 388 
Q 2103 388 2256 492 
Q 2409 597 2584 869 
L 2691 800 
Q 2453 316 2165 114 
Q 1878 -88 1500 -88 
Q 850 -88 516 413 
Q 247 816 247 1413 
Q 247 2144 642 2576 
Q 1038 3009 1569 3009 
Q 2013 3009 2339 2645 
Q 2666 2281 2691 1566 
z
M 1922 1775 
Q 1922 2278 1867 2465 
Q 1813 2653 1697 2750 
Q 1631 2806 1522 2806 
Q 1359 2806 1256 2647 
Q 1072 2369 1072 1884 
L 1072 1775 
L 1922 1775 
z
" transform="scale(0.015625)"/>
      <path id="TimesNewRomanPS-BoldMT-72" d="M 1428 2922 
L 1428 2259 
Q 1719 2713 1937 2861 
Q 2156 3009 2359 3009 
Q 2534 3009 2639 2901 
Q 2744 2794 2744 2597 
Q 2744 2388 2642 2272 
Q 2541 2156 2397 2156 
Q 2231 2156 2109 2262 
Q 1988 2369 1966 2381 
Q 1934 2400 1894 2400 
Q 1803 2400 1722 2331 
Q 1594 2225 1528 2028 
Q 1428 1725 1428 1359 
L 1428 688 
L 1431 513 
Q 1431 334 1453 284 
Q 1491 200 1564 161 
Q 1638 122 1813 113 
L 1813 0 
L 234 0 
L 234 113 
Q 425 128 492 217 
Q 559 306 559 688 
L 559 2303 
Q 559 2553 534 2622 
Q 503 2709 443 2750 
Q 384 2791 234 2806 
L 234 2922 
L 1428 2922 
z
" transform="scale(0.015625)"/>
      <path id="TimesNewRomanPS-BoldMT-20" transform="scale(0.015625)"/>
      <path id="TimesNewRomanPS-BoldMT-6f" d="M 1594 3009 
Q 1975 3009 2303 2812 
Q 2631 2616 2801 2253 
Q 2972 1891 2972 1459 
Q 2972 838 2656 419 
Q 2275 -88 1603 -88 
Q 944 -88 587 375 
Q 231 838 231 1447 
Q 231 2075 595 2542 
Q 959 3009 1594 3009 
z
M 1606 2788 
Q 1447 2788 1333 2667 
Q 1219 2547 1183 2192 
Q 1147 1838 1147 1206 
Q 1147 872 1191 581 
Q 1225 359 1337 243 
Q 1450 128 1594 128 
Q 1734 128 1828 206 
Q 1950 313 1991 503 
Q 2053 800 2053 1703 
Q 2053 2234 1993 2432 
Q 1934 2631 1819 2722 
Q 1738 2788 1606 2788 
z
" transform="scale(0.015625)"/>
      <path id="TimesNewRomanPS-BoldMT-66" d="M 1497 2616 
L 1497 588 
Q 1497 294 1559 219 
Q 1659 103 1928 113 
L 1928 0 
L 206 0 
L 206 113 
Q 403 116 486 158 
Q 569 200 600 275 
Q 631 350 631 588 
L 631 2616 
L 206 2616 
L 206 2922 
L 631 2922 
L 631 3138 
L 628 3284 
Q 628 3734 958 4034 
Q 1288 4334 1850 4334 
Q 2234 4334 2420 4190 
Q 2606 4047 2606 3872 
Q 2606 3731 2490 3628 
Q 2375 3525 2184 3525 
Q 2022 3525 1926 3609 
Q 1831 3694 1831 3797 
Q 1831 3825 1850 3913 
Q 1863 3966 1863 4013 
Q 1863 4078 1825 4109 
Q 1775 4156 1703 4156 
Q 1613 4156 1552 4081 
Q 1491 4006 1491 3841 
L 1497 3294 
L 1497 2922 
L 1928 2922 
L 1928 2616 
L 1497 2616 
z
" transform="scale(0.015625)"/>
      <path id="TimesNewRomanPS-BoldMT-64" d="M 3056 4238 
L 3056 875 
Q 3056 534 3075 472 
Q 3100 369 3170 319 
Q 3241 269 3416 256 
L 3416 153 
L 2181 -88 
L 2181 375 
Q 1959 106 1786 9 
Q 1613 -88 1394 -88 
Q 834 -88 509 413 
Q 247 819 247 1409 
Q 247 1881 409 2254 
Q 572 2628 855 2818 
Q 1138 3009 1463 3009 
Q 1672 3009 1834 2928 
Q 1997 2847 2181 2644 
L 2181 3525 
Q 2181 3859 2153 3928 
Q 2116 4019 2041 4062 
Q 1966 4106 1759 4106 
L 1759 4238 
L 3056 4238 
z
M 2181 2256 
Q 1950 2700 1616 2700 
Q 1500 2700 1425 2638 
Q 1309 2541 1236 2297 
Q 1163 2053 1163 1550 
Q 1163 997 1244 731 
Q 1325 466 1466 347 
Q 1538 288 1663 288 
Q 1938 288 2181 719 
L 2181 2256 
z
" transform="scale(0.015625)"/>
      <path id="TimesNewRomanPS-BoldMT-61" d="M 1828 431 
Q 1294 -41 869 -41 
Q 619 -41 453 123 
Q 288 288 288 534 
Q 288 869 575 1136 
Q 863 1403 1828 1847 
L 1828 2141 
Q 1828 2472 1792 2558 
Q 1756 2644 1656 2708 
Q 1556 2772 1431 2772 
Q 1228 2772 1097 2681 
Q 1016 2625 1016 2550 
Q 1016 2484 1103 2388 
Q 1222 2253 1222 2128 
Q 1222 1975 1108 1867 
Q 994 1759 809 1759 
Q 613 1759 480 1878 
Q 347 1997 347 2156 
Q 347 2381 525 2586 
Q 703 2791 1022 2900 
Q 1341 3009 1684 3009 
Q 2100 3009 2342 2832 
Q 2584 2656 2656 2450 
Q 2700 2319 2700 1847 
L 2700 713 
Q 2700 513 2715 461 
Q 2731 409 2762 384 
Q 2794 359 2834 359 
Q 2916 359 3000 475 
L 3094 400 
Q 2938 169 2770 64 
Q 2603 -41 2391 -41 
Q 2141 -41 2000 76 
Q 1859 194 1828 431 
z
M 1828 659 
L 1828 1638 
Q 1450 1416 1266 1163 
Q 1144 994 1144 822 
Q 1144 678 1247 569 
Q 1325 484 1466 484 
Q 1622 484 1828 659 
z
" transform="scale(0.015625)"/>
      <path id="TimesNewRomanPS-BoldMT-69" d="M 919 4338 
Q 1122 4338 1262 4195 
Q 1403 4053 1403 3853 
Q 1403 3653 1261 3512 
Q 1119 3372 919 3372 
Q 719 3372 578 3512 
Q 438 3653 438 3853 
Q 438 4053 578 4195 
Q 719 4338 919 4338 
z
M 1356 2922 
L 1356 606 
Q 1356 297 1428 211 
Q 1500 125 1709 113 
L 1709 0 
L 131 0 
L 131 113 
Q 325 119 419 225 
Q 481 297 481 606 
L 481 2313 
Q 481 2622 409 2708 
Q 338 2794 131 2806 
L 131 2922 
L 1356 2922 
z
" transform="scale(0.015625)"/>
      <path id="TimesNewRomanPS-BoldMT-6c" d="M 1359 4238 
L 1359 606 
Q 1359 297 1431 211 
Q 1503 125 1713 113 
L 1713 0 
L 134 0 
L 134 113 
Q 328 119 422 225 
Q 484 297 484 606 
L 484 3631 
Q 484 3938 412 4023 
Q 341 4109 134 4122 
L 134 4238 
L 1359 4238 
z
" transform="scale(0.015625)"/>
      <path id="TimesNewRomanPS-BoldMT-79" d="M 1556 -119 
L 613 2047 
Q 400 2538 298 2650 
Q 197 2763 53 2806 
L 53 2922 
L 1606 2922 
L 1606 2806 
Q 1453 2800 1390 2747 
Q 1328 2694 1328 2619 
Q 1328 2500 1484 2150 
L 1984 1006 
L 2325 1891 
Q 2509 2363 2509 2547 
Q 2509 2663 2432 2731 
Q 2356 2800 2163 2806 
L 2163 2922 
L 3141 2922 
L 3141 2806 
Q 2997 2791 2906 2695 
Q 2816 2600 2603 2047 
L 1769 -119 
Q 1453 -931 1300 -1119 
Q 1084 -1381 759 -1381 
Q 500 -1381 339 -1232 
Q 178 -1084 178 -875 
Q 178 -694 289 -575 
Q 400 -456 563 -456 
Q 719 -456 814 -556 
Q 909 -656 913 -866 
Q 916 -984 941 -1019 
Q 966 -1053 1013 -1053 
Q 1088 -1053 1172 -963 
Q 1297 -831 1466 -363 
L 1556 -119 
z
" transform="scale(0.015625)"/>
      <path id="TimesNewRomanPS-BoldMT-76" d="M 1534 -88 
L 550 2178 
Q 372 2588 272 2697 
Q 200 2778 59 2806 
L 59 2922 
L 1613 2922 
L 1613 2806 
Q 1466 2806 1413 2753 
Q 1338 2684 1338 2591 
Q 1338 2475 1475 2156 
L 1956 1059 
L 2341 2006 
Q 2506 2413 2506 2581 
Q 2506 2678 2436 2739 
Q 2366 2800 2188 2806 
L 2188 2922 
L 3144 2922 
L 3144 2806 
Q 3006 2788 2918 2703 
Q 2831 2619 2656 2206 
L 1681 -88 
L 1534 -88 
z
" transform="scale(0.015625)"/>
      <path id="TimesNewRomanPS-BoldMT-77" d="M 3113 -88 
L 2313 2056 
L 1528 -88 
L 1366 -88 
L 588 2031 
Q 413 2516 291 2663 
Q 213 2763 53 2806 
L 53 2922 
L 1528 2922 
L 1528 2806 
Q 1378 2806 1322 2762 
Q 1266 2719 1266 2663 
Q 1266 2609 1366 2344 
L 1794 1203 
L 2206 2344 
L 2175 2419 
Q 2081 2653 2011 2717 
Q 1941 2781 1794 2806 
L 1794 2922 
L 3291 2922 
L 3291 2806 
Q 3116 2797 3069 2758 
Q 3022 2719 3022 2647 
Q 3022 2578 3113 2344 
L 3525 1203 
L 3900 2253 
Q 3981 2478 3981 2559 
Q 3981 2681 3922 2737 
Q 3863 2794 3691 2806 
L 3691 2922 
L 4556 2922 
L 4556 2806 
Q 4413 2788 4328 2705 
Q 4244 2622 4109 2234 
L 3291 -88 
L 3113 -88 
z
" transform="scale(0.015625)"/>
      <path id="TimesNewRomanPS-BoldMT-73" d="M 2063 3003 
L 2109 2006 
L 2003 2006 
Q 1813 2450 1608 2612 
Q 1403 2775 1200 2775 
Q 1072 2775 981 2689 
Q 891 2603 891 2491 
Q 891 2406 953 2328 
Q 1053 2200 1512 1889 
Q 1972 1578 2117 1361 
Q 2263 1144 2263 875 
Q 2263 631 2141 397 
Q 2019 163 1797 37 
Q 1575 -88 1306 -88 
Q 1097 -88 747 44 
Q 653 78 619 78 
Q 516 78 447 -78 
L 344 -78 
L 294 972 
L 400 972 
Q 541 559 786 353 
Q 1031 147 1250 147 
Q 1400 147 1495 239 
Q 1591 331 1591 463 
Q 1591 613 1497 722 
Q 1403 831 1078 1053 
Q 600 1384 459 1559 
Q 253 1816 253 2125 
Q 253 2463 486 2736 
Q 719 3009 1159 3009 
Q 1397 3009 1619 2894 
Q 1703 2847 1756 2847 
Q 1813 2847 1847 2870 
Q 1881 2894 1956 3003 
L 2063 3003 
z
" transform="scale(0.015625)"/>
      <path id="TimesNewRomanPS-BoldMT-6e" d="M 1409 2922 
L 1409 2544 
Q 1634 2788 1840 2898 
Q 2047 3009 2284 3009 
Q 2569 3009 2756 2851 
Q 2944 2694 3006 2459 
Q 3056 2281 3056 1775 
L 3056 638 
Q 3056 300 3117 217 
Q 3178 134 3372 113 
L 3372 0 
L 1894 0 
L 1894 113 
Q 2059 134 2131 250 
Q 2181 328 2181 638 
L 2181 1938 
Q 2181 2297 2153 2390 
Q 2125 2484 2058 2536 
Q 1991 2588 1909 2588 
Q 1641 2588 1409 2203 
L 1409 638 
Q 1409 309 1470 221 
Q 1531 134 1697 113 
L 1697 0 
L 219 0 
L 219 113 
Q 403 131 481 231 
Q 534 300 534 638 
L 534 2288 
Q 534 2619 473 2700 
Q 413 2781 219 2806 
L 219 2922 
L 1409 2922 
z
" transform="scale(0.015625)"/>
      <path id="TimesNewRomanPS-BoldMT-74" d="M 1375 3991 
L 1375 2922 
L 2069 2922 
L 2069 2613 
L 1375 2613 
L 1375 809 
Q 1375 556 1398 482 
Q 1422 409 1481 364 
Q 1541 319 1591 319 
Q 1794 319 1975 628 
L 2069 559 
Q 1816 -41 1247 -41 
Q 969 -41 776 114 
Q 584 269 531 459 
Q 500 566 500 1034 
L 500 2613 
L 119 2613 
L 119 2722 
Q 513 3000 789 3306 
Q 1066 3613 1272 3991 
L 1375 3991 
z
" transform="scale(0.015625)"/>
      <path id="TimesNewRomanPS-BoldMT-70" d="M 1347 297 
L 1347 -791 
Q 1347 -1016 1383 -1097 
Q 1419 -1178 1494 -1215 
Q 1569 -1253 1788 -1253 
L 1788 -1369 
L 122 -1369 
L 122 -1253 
Q 316 -1247 409 -1144 
Q 472 -1072 472 -772 
L 472 2313 
Q 472 2622 400 2708 
Q 328 2794 122 2806 
L 122 2922 
L 1347 2922 
L 1347 2538 
Q 1500 2763 1659 2863 
Q 1888 3009 2156 3009 
Q 2478 3009 2742 2806 
Q 3006 2603 3143 2245 
Q 3281 1888 3281 1475 
Q 3281 1031 3139 664 
Q 2997 297 2726 104 
Q 2456 -88 2125 -88 
Q 1884 -88 1675 19 
Q 1519 100 1347 297 
z
M 1347 613 
Q 1616 231 1922 231 
Q 2091 231 2200 409 
Q 2363 672 2363 1409 
Q 2363 2166 2184 2444 
Q 2066 2628 1866 2628 
Q 1550 2628 1347 2172 
L 1347 613 
z
" transform="scale(0.015625)"/>
      <path id="TimesNewRomanPS-BoldMT-28" d="M 2056 4334 
L 2056 4191 
Q 1731 3978 1578 3775 
Q 1366 3494 1247 3053 
Q 1097 2506 1097 1525 
Q 1097 600 1233 87 
Q 1369 -425 1603 -741 
Q 1766 -959 2056 -1125 
L 2056 -1281 
Q 1303 -1028 779 -248 
Q 256 531 256 1544 
Q 256 2544 778 3314 
Q 1300 4084 2056 4334 
z
" transform="scale(0.015625)"/>
      <path id="TimesNewRomanPS-BoldMT-29" d="M 78 -1281 
L 78 -1138 
Q 403 -922 556 -719 
Q 766 -438 888 0 
Q 1038 550 1038 1531 
Q 1038 2456 902 2967 
Q 766 3478 531 3794 
Q 369 4013 78 4178 
L 78 4334 
Q 831 4081 1354 3301 
Q 1878 2522 1878 1509 
Q 1878 513 1354 -257 
Q 831 -1028 78 -1281 
z
" transform="scale(0.015625)"/>
     </defs>
     <use xlink:href="#TimesNewRomanPS-BoldMT-4e"/>
     <use xlink:href="#TimesNewRomanPS-BoldMT-75" x="72.216797"/>
     <use xlink:href="#TimesNewRomanPS-BoldMT-6d" x="127.832031"/>
     <use xlink:href="#TimesNewRomanPS-BoldMT-62" x="211.132812"/>
     <use xlink:href="#TimesNewRomanPS-BoldMT-65" x="266.748047"/>
     <use xlink:href="#TimesNewRomanPS-BoldMT-72" x="311.132812"/>
     <use xlink:href="#TimesNewRomanPS-BoldMT-20" x="353.767578"/>
     <use xlink:href="#TimesNewRomanPS-BoldMT-6f" x="378.767578"/>
     <use xlink:href="#TimesNewRomanPS-BoldMT-66" x="428.767578"/>
     <use xlink:href="#TimesNewRomanPS-BoldMT-20" x="462.068359"/>
     <use xlink:href="#TimesNewRomanPS-BoldMT-64" x="487.068359"/>
     <use xlink:href="#TimesNewRomanPS-BoldMT-61" x="542.683594"/>
     <use xlink:href="#TimesNewRomanPS-BoldMT-69" x="592.683594"/>
     <use xlink:href="#TimesNewRomanPS-BoldMT-6c" x="620.466797"/>
     <use xlink:href="#TimesNewRomanPS-BoldMT-79" x="648.25"/>
     <use xlink:href="#TimesNewRomanPS-BoldMT-20" x="698.25"/>
     <use xlink:href="#TimesNewRomanPS-BoldMT-76" x="723.25"/>
     <use xlink:href="#TimesNewRomanPS-BoldMT-69" x="773.25"/>
     <use xlink:href="#TimesNewRomanPS-BoldMT-65" x="801.033203"/>
     <use xlink:href="#TimesNewRomanPS-BoldMT-77" x="845.417969"/>
     <use xlink:href="#TimesNewRomanPS-BoldMT-65" x="917.634766"/>
     <use xlink:href="#TimesNewRomanPS-BoldMT-72" x="962.019531"/>
     <use xlink:href="#TimesNewRomanPS-BoldMT-73" x="1006.404297"/>
     <use xlink:href="#TimesNewRomanPS-BoldMT-20" x="1045.320312"/>
     <use xlink:href="#TimesNewRomanPS-BoldMT-6f" x="1070.320312"/>
     <use xlink:href="#TimesNewRomanPS-BoldMT-6e" x="1120.320312"/>
     <use xlink:href="#TimesNewRomanPS-BoldMT-20" x="1175.935547"/>
     <use xlink:href="#TimesNewRomanPS-BoldMT-64" x="1200.935547"/>
     <use xlink:href="#TimesNewRomanPS-BoldMT-69" x="1256.550781"/>
     <use xlink:href="#TimesNewRomanPS-BoldMT-66" x="1284.333984"/>
     <use xlink:href="#TimesNewRomanPS-BoldMT-66" x="1317.634766"/>
     <use xlink:href="#TimesNewRomanPS-BoldMT-65" x="1350.935547"/>
     <use xlink:href="#TimesNewRomanPS-BoldMT-72" x="1395.320312"/>
     <use xlink:href="#TimesNewRomanPS-BoldMT-65" x="1437.955078"/>
     <use xlink:href="#TimesNewRomanPS-BoldMT-6e" x="1482.339844"/>
     <use xlink:href="#TimesNewRomanPS-BoldMT-74" x="1537.955078"/>
     <use xlink:href="#TimesNewRomanPS-BoldMT-20" x="1571.255859"/>
     <use xlink:href="#TimesNewRomanPS-BoldMT-76" x="1596.255859"/>
     <use xlink:href="#TimesNewRomanPS-BoldMT-69" x="1646.255859"/>
     <use xlink:href="#TimesNewRomanPS-BoldMT-64" x="1674.039062"/>
     <use xlink:href="#TimesNewRomanPS-BoldMT-65" x="1729.654297"/>
     <use xlink:href="#TimesNewRomanPS-BoldMT-6f" x="1774.039062"/>
     <use xlink:href="#TimesNewRomanPS-BoldMT-20" x="1824.039062"/>
     <use xlink:href="#TimesNewRomanPS-BoldMT-70" x="1849.039062"/>
     <use xlink:href="#TimesNewRomanPS-BoldMT-6c" x="1904.654297"/>
     <use xlink:href="#TimesNewRomanPS-BoldMT-61" x="1932.4375"/>
     <use xlink:href="#TimesNewRomanPS-BoldMT-74" x="1982.4375"/>
     <use xlink:href="#TimesNewRomanPS-BoldMT-66" x="2015.738281"/>
     <use xlink:href="#TimesNewRomanPS-BoldMT-6f" x="2049.039062"/>
     <use xlink:href="#TimesNewRomanPS-BoldMT-72" x="2099.039062"/>
     <use xlink:href="#TimesNewRomanPS-BoldMT-6d" x="2143.423828"/>
     <use xlink:href="#TimesNewRomanPS-BoldMT-73" x="2226.724609"/>
     <use xlink:href="#TimesNewRomanPS-BoldMT-20" x="2265.640625"/>
     <use xlink:href="#TimesNewRomanPS-BoldMT-28" x="2290.640625"/>
     <use xlink:href="#TimesNewRomanPS-BoldMT-76" x="2323.941406"/>
     <use xlink:href="#TimesNewRomanPS-BoldMT-69" x="2373.941406"/>
     <use xlink:href="#TimesNewRomanPS-BoldMT-65" x="2401.724609"/>
     <use xlink:href="#TimesNewRomanPS-BoldMT-77" x="2446.109375"/>
     <use xlink:href="#TimesNewRomanPS-BoldMT-65" x="2518.326172"/>
     <use xlink:href="#TimesNewRomanPS-BoldMT-72" x="2562.710938"/>
     <use xlink:href="#TimesNewRomanPS-BoldMT-73" x="2607.095703"/>
     <use xlink:href="#TimesNewRomanPS-BoldMT-29" x="2646.011719"/>
    </g>
   </g>
  </g>
 </g>
 <defs>
  <clipPath id="pb97861bfd1">
   <rect x="55.915938" y="30.045" width="371.79" height="244.468099"/>
  </clipPath>
 </defs>
</svg>
