<?xml version="1.0" encoding="utf-8" standalone="no"?>
<!DOCTYPE svg PUBLIC "-//W3C//DTD SVG 1.1//EN"
  "http://www.w3.org/Graphics/SVG/1.1/DTD/svg11.dtd">
<svg xmlns:xlink="http://www.w3.org/1999/xlink" width="520.5625pt" height="319.921698pt" viewBox="0 0 520.5625 319.921698" xmlns="http://www.w3.org/2000/svg" version="1.1">
 <metadata>
  <rdf:RDF xmlns:dc="http://purl.org/dc/elements/1.1/" xmlns:cc="http://creativecommons.org/ns#" xmlns:rdf="http://www.w3.org/1999/02/22-rdf-syntax-ns#">
   <cc:Work>
    <dc:type rdf:resource="http://purl.org/dc/dcmitype/StillImage"/>
    <dc:date>2025-05-26T17:17:55.364907</dc:date>
    <dc:format>image/svg+xml</dc:format>
    <dc:creator>
     <cc:Agent>
      <dc:title>Matplotlib v3.7.2, https://matplotlib.org/</dc:title>
     </cc:Agent>
    </dc:creator>
   </cc:Work>
  </rdf:RDF>
 </metadata>
 <defs>
  <style type="text/css">*{stroke-linejoin: round; stroke-linecap: butt}</style>
 </defs>
 <g id="figure_1">
  <g id="patch_1">
   <path d="M 0 319.921698 
L 520.5625 319.921698 
L 520.5625 0 
L 0 0 
z
" style="fill: #ffffff"/>
  </g>
  <g id="axes_1">
   <g id="patch_2">
    <path d="M 69.37625 258.666836 
L 451.18625 258.666836 
L 451.18625 30.045 
L 69.37625 30.045 
z
" style="fill: #ffffff"/>
   </g>
   <g id="PolyCollection_1">
    <defs>
     <path id="m6623a81e66" d="M 135.544443 -71.646764 
L 130.478057 -71.646764 
L 130.226853 -73.074963 
L 129.959918 -74.503162 
L 129.674202 -75.93136 
L 129.365973 -77.359559 
L 129.030965 -78.787758 
L 128.664607 -80.215957 
L 128.262334 -81.644155 
L 127.819961 -83.072354 
L 127.334116 -84.500553 
L 126.802692 -85.928751 
L 126.225293 -87.35695 
L 125.603631 -88.785149 
L 124.941823 -90.213348 
L 124.24655 -91.641546 
L 123.527037 -93.069745 
L 122.794817 -94.497944 
L 122.063274 -95.926142 
L 121.346974 -97.354341 
L 120.660802 -98.78254 
L 120.01896 -100.210739 
L 119.433906 -101.638937 
L 118.915298 -103.067136 
L 118.469055 -104.495335 
L 118.0966 -105.923533 
L 117.794377 -107.351732 
L 117.55369 -108.779931 
L 117.360885 -110.20813 
L 117.197889 -111.636328 
L 117.043052 -113.064527 
L 116.872249 -114.492726 
L 116.660141 -115.920924 
L 116.381522 -117.349123 
L 116.012626 -118.777322 
L 115.532323 -120.205521 
L 114.923118 -121.633719 
L 114.171902 -123.061918 
L 113.270432 -124.490117 
L 112.215531 -125.918315 
L 111.00905 -127.346514 
L 109.657621 -128.774713 
L 108.172261 -130.202912 
L 106.56788 -131.63111 
L 104.862741 -133.059309 
L 103.077898 -134.487508 
L 101.236634 -135.915706 
L 99.363896 -137.343905 
L 97.485705 -138.772104 
L 95.628542 -140.200303 
L 93.818668 -141.628501 
L 92.081404 -143.0567 
L 90.440358 -144.484899 
L 88.916667 -145.913097 
L 87.528268 -147.341296 
L 86.289303 -148.769495 
L 85.209701 -150.197694 
L 84.294989 -151.625892 
L 83.5464 -153.054091 
L 82.961237 -154.48229 
L 82.533506 -155.910488 
L 82.25473 -157.338687 
L 82.114871 -158.766886 
L 82.10325 -160.195084 
L 82.209371 -161.623283 
L 82.423559 -163.051482 
L 82.73735 -164.479681 
L 83.14362 -165.907879 
L 83.636455 -167.336078 
L 84.210825 -168.764277 
L 84.862143 -170.192475 
L 85.585789 -171.620674 
L 86.376717 -173.048873 
L 87.229202 -174.477072 
L 88.136803 -175.90527 
L 89.092534 -177.333469 
L 90.089241 -178.761668 
L 91.120121 -180.189866 
L 92.1793 -181.618065 
L 93.262377 -183.046264 
L 94.366841 -184.474463 
L 95.492289 -185.902661 
L 96.640389 -187.33086 
L 97.81459 -188.759059 
L 99.01959 -190.187257 
L 100.260637 -191.615456 
L 101.542733 -193.043655 
L 102.869837 -194.471854 
L 104.244161 -195.900052 
L 105.665632 -197.328251 
L 107.131564 -198.75645 
L 108.636578 -200.184648 
L 110.172742 -201.612847 
L 111.729912 -203.041046 
L 113.296227 -204.469245 
L 114.85868 -205.897443 
L 116.403731 -207.325642 
L 117.917889 -208.753841 
L 119.388242 -210.182039 
L 120.802892 -211.610238 
L 122.151301 -213.038437 
L 143.871199 -213.038437 
L 143.871199 -213.038437 
L 145.219608 -211.610238 
L 146.634258 -210.182039 
L 148.104611 -208.753841 
L 149.618769 -207.325642 
L 151.16382 -205.897443 
L 152.726273 -204.469245 
L 154.292588 -203.041046 
L 155.849758 -201.612847 
L 157.385922 -200.184648 
L 158.890936 -198.75645 
L 160.356868 -197.328251 
L 161.778339 -195.900052 
L 163.152663 -194.471854 
L 164.479767 -193.043655 
L 165.761863 -191.615456 
L 167.00291 -190.187257 
L 168.20791 -188.759059 
L 169.382111 -187.33086 
L 170.530211 -185.902661 
L 171.655659 -184.474463 
L 172.760123 -183.046264 
L 173.8432 -181.618065 
L 174.902379 -180.189866 
L 175.933259 -178.761668 
L 176.929966 -177.333469 
L 177.885697 -175.90527 
L 178.793298 -174.477072 
L 179.645783 -173.048873 
L 180.436711 -171.620674 
L 181.160357 -170.192475 
L 181.811675 -168.764277 
L 182.386045 -167.336078 
L 182.87888 -165.907879 
L 183.28515 -164.479681 
L 183.598941 -163.051482 
L 183.813129 -161.623283 
L 183.91925 -160.195084 
L 183.907629 -158.766886 
L 183.76777 -157.338687 
L 183.488994 -155.910488 
L 183.061263 -154.48229 
L 182.4761 -153.054091 
L 181.727511 -151.625892 
L 180.812799 -150.197694 
L 179.733197 -148.769495 
L 178.494232 -147.341296 
L 177.105833 -145.913097 
L 175.582142 -144.484899 
L 173.941096 -143.0567 
L 172.203832 -141.628501 
L 170.393958 -140.200303 
L 168.536795 -138.772104 
L 166.658604 -137.343905 
L 164.785866 -135.915706 
L 162.944602 -134.487508 
L 161.159759 -133.059309 
L 159.45462 -131.63111 
L 157.850239 -130.202912 
L 156.364879 -128.774713 
L 155.01345 -127.346514 
L 153.806969 -125.918315 
L 152.752068 -124.490117 
L 151.850598 -123.061918 
L 151.099382 -121.633719 
L 150.490177 -120.205521 
L 150.009874 -118.777322 
L 149.640978 -117.349123 
L 149.362359 -115.920924 
L 149.150251 -114.492726 
L 148.979448 -113.064527 
L 148.824611 -111.636328 
L 148.661615 -110.20813 
L 148.46881 -108.779931 
L 148.228123 -107.351732 
L 147.9259 -105.923533 
L 147.553445 -104.495335 
L 147.107202 -103.067136 
L 146.588594 -101.638937 
L 146.00354 -100.210739 
L 145.361698 -98.78254 
L 144.675526 -97.354341 
L 143.959226 -95.926142 
L 143.227683 -94.497944 
L 142.495463 -93.069745 
L 141.77595 -91.641546 
L 141.080677 -90.213348 
L 140.418869 -88.785149 
L 139.797207 -87.35695 
L 139.219808 -85.928751 
L 138.688384 -84.500553 
L 138.202539 -83.072354 
L 137.760166 -81.644155 
L 137.357893 -80.215957 
L 136.991535 -78.787758 
L 136.656527 -77.359559 
L 136.348298 -75.93136 
L 136.062582 -74.503162 
L 135.795647 -73.074963 
L 135.544443 -71.646764 
z
" style="stroke: #000000; stroke-opacity: 0.7"/>
    </defs>
    <g clip-path="url(#p54c1c84189)">
     <use xlink:href="#m6623a81e66" x="0" y="319.921698" style="fill: #8c564b; fill-opacity: 0.7; stroke: #000000; stroke-opacity: 0.7"/>
    </g>
   </g>
   <g id="PolyCollection_2">
    <defs>
     <path id="m01fbd4ba76" d="M 261.334787 -88.64467 
L 259.227713 -88.64467 
L 259.242508 -90.346022 
L 259.285661 -92.047373 
L 259.353631 -93.748725 
L 259.44105 -95.450076 
L 259.541416 -97.151428 
L 259.647877 -98.852779 
L 259.753963 -100.554131 
L 259.854171 -102.255482 
L 259.94431 -103.956834 
L 260.021588 -105.658185 
L 260.084475 -107.359536 
L 260.132377 -109.060888 
L 260.165206 -110.762239 
L 260.182929 -112.463591 
L 260.185141 -114.164942 
L 260.170749 -115.866294 
L 260.137786 -117.567645 
L 260.083407 -119.268997 
L 260.004079 -120.970348 
L 259.895972 -122.6717 
L 259.755532 -124.373051 
L 259.580179 -126.074403 
L 259.369054 -127.775754 
L 259.12369 -129.477106 
L 258.848476 -131.178457 
L 258.550789 -132.879809 
L 258.240709 -134.58116 
L 257.930304 -136.282512 
L 257.632519 -137.983863 
L 257.359833 -139.685214 
L 257.122851 -141.386566 
L 256.92905 -143.087917 
L 256.781867 -144.789269 
L 256.680243 -146.49062 
L 256.618683 -148.191972 
L 256.587779 -149.893323 
L 256.575111 -151.594675 
L 256.566355 -153.296026 
L 256.54646 -154.997378 
L 256.500734 -156.698729 
L 256.415717 -158.400081 
L 256.279735 -160.101432 
L 256.083094 -161.802784 
L 255.817871 -163.504135 
L 255.477366 -165.205487 
L 255.055291 -166.906838 
L 254.544862 -168.608189 
L 253.937976 -170.309541 
L 253.224692 -172.010892 
L 252.393162 -173.712244 
L 251.430114 -175.413595 
L 250.321871 -177.114947 
L 249.055791 -178.816298 
L 247.621937 -180.51765 
L 246.01474 -182.219001 
L 244.234453 -183.920353 
L 242.288224 -185.621704 
L 240.190679 -187.323056 
L 237.963976 -189.024407 
L 235.637313 -190.725759 
L 233.245877 -192.42711 
L 230.829257 -194.128462 
L 228.429351 -195.829813 
L 226.087859 -197.531165 
L 223.843572 -199.232516 
L 221.729727 -200.933867 
L 219.771833 -202.635219 
L 217.986321 -204.33657 
L 216.380365 -206.037922 
L 214.952986 -207.739273 
L 213.697377 -209.440625 
L 212.604104 -211.141976 
L 211.664673 -212.843328 
L 210.874835 -214.544679 
L 210.237031 -216.246031 
L 209.761511 -217.947382 
L 209.465901 -219.648734 
L 209.37325 -221.350085 
L 209.508856 -223.051437 
L 209.896373 -224.752788 
L 210.553814 -226.45414 
L 211.490094 -228.155491 
L 212.70264 -229.856842 
L 214.176487 -231.558194 
L 215.88497 -233.259545 
L 217.791969 -234.960897 
L 219.855336 -236.662248 
L 222.031014 -238.3636 
L 224.277195 -240.064951 
L 226.55787 -241.766303 
L 228.845223 -243.467654 
L 231.120496 -245.169006 
L 233.373247 -246.870357 
L 235.599205 -248.571709 
L 237.797179 -250.27306 
L 239.965669 -251.974412 
L 242.099866 -253.675763 
L 244.189626 -255.377115 
L 246.218801 -257.078466 
L 274.343699 -257.078466 
L 274.343699 -257.078466 
L 276.372874 -255.377115 
L 278.462634 -253.675763 
L 280.596831 -251.974412 
L 282.765321 -250.27306 
L 284.963295 -248.571709 
L 287.189253 -246.870357 
L 289.442004 -245.169006 
L 291.717277 -243.467654 
L 294.00463 -241.766303 
L 296.285305 -240.064951 
L 298.531486 -238.3636 
L 300.707164 -236.662248 
L 302.770531 -234.960897 
L 304.67753 -233.259545 
L 306.386013 -231.558194 
L 307.85986 -229.856842 
L 309.072406 -228.155491 
L 310.008686 -226.45414 
L 310.666127 -224.752788 
L 311.053644 -223.051437 
L 311.18925 -221.350085 
L 311.096599 -219.648734 
L 310.800989 -217.947382 
L 310.325469 -216.246031 
L 309.687665 -214.544679 
L 308.897827 -212.843328 
L 307.958396 -211.141976 
L 306.865123 -209.440625 
L 305.609514 -207.739273 
L 304.182135 -206.037922 
L 302.576179 -204.33657 
L 300.790667 -202.635219 
L 298.832773 -200.933867 
L 296.718928 -199.232516 
L 294.474641 -197.531165 
L 292.133149 -195.829813 
L 289.733243 -194.128462 
L 287.316623 -192.42711 
L 284.925187 -190.725759 
L 282.598524 -189.024407 
L 280.371821 -187.323056 
L 278.274276 -185.621704 
L 276.328047 -183.920353 
L 274.54776 -182.219001 
L 272.940563 -180.51765 
L 271.506709 -178.816298 
L 270.240629 -177.114947 
L 269.132386 -175.413595 
L 268.169338 -173.712244 
L 267.337808 -172.010892 
L 266.624524 -170.309541 
L 266.017638 -168.608189 
L 265.507209 -166.906838 
L 265.085134 -165.205487 
L 264.744629 -163.504135 
L 264.479406 -161.802784 
L 264.282765 -160.101432 
L 264.146783 -158.400081 
L 264.061766 -156.698729 
L 264.01604 -154.997378 
L 263.996145 -153.296026 
L 263.987389 -151.594675 
L 263.974721 -149.893323 
L 263.943817 -148.191972 
L 263.882257 -146.49062 
L 263.780633 -144.789269 
L 263.63345 -143.087917 
L 263.439649 -141.386566 
L 263.202667 -139.685214 
L 262.929981 -137.983863 
L 262.632196 -136.282512 
L 262.321791 -134.58116 
L 262.011711 -132.879809 
L 261.714024 -131.178457 
L 261.43881 -129.477106 
L 261.193446 -127.775754 
L 260.982321 -126.074403 
L 260.806968 -124.373051 
L 260.666528 -122.6717 
L 260.558421 -120.970348 
L 260.479093 -119.268997 
L 260.424714 -117.567645 
L 260.391751 -115.866294 
L 260.377359 -114.164942 
L 260.379571 -112.463591 
L 260.397294 -110.762239 
L 260.430123 -109.060888 
L 260.478025 -107.359536 
L 260.540912 -105.658185 
L 260.61819 -103.956834 
L 260.708329 -102.255482 
L 260.808537 -100.554131 
L 260.914623 -98.852779 
L 261.021084 -97.151428 
L 261.12145 -95.450076 
L 261.208869 -93.748725 
L 261.276839 -92.047373 
L 261.319992 -90.346022 
L 261.334787 -88.64467 
z
" style="stroke: #000000; stroke-opacity: 0.7"/>
    </defs>
    <g clip-path="url(#p54c1c84189)">
     <use xlink:href="#m01fbd4ba76" x="0" y="319.921698" style="fill: #c49c94; fill-opacity: 0.7; stroke: #000000; stroke-opacity: 0.7"/>
    </g>
   </g>
   <g id="PolyCollection_3">
    <defs>
     <path id="mfd6e67a1d2" d="M 389.302141 -97.916255 
L 385.800359 -97.916255 
L 385.693403 -99.750281 
L 385.605374 -101.584307 
L 385.53536 -103.418332 
L 385.480163 -105.252358 
L 385.434278 -107.086384 
L 385.390063 -108.920409 
L 385.338118 -110.754435 
L 385.267849 -112.588461 
L 385.168156 -114.422486 
L 385.028204 -116.256512 
L 384.838182 -118.090538 
L 384.589976 -119.924563 
L 384.277698 -121.758589 
L 383.898021 -123.592615 
L 383.450322 -125.42664 
L 382.936666 -127.260666 
L 382.36168 -129.094692 
L 381.732381 -130.928717 
L 381.057999 -132.762743 
L 380.349799 -134.596769 
L 379.620878 -136.430794 
L 378.885832 -138.26482 
L 378.160213 -140.098846 
L 377.459673 -141.932871 
L 376.798749 -143.766897 
L 376.189326 -145.600923 
L 375.638892 -147.434948 
L 375.148801 -149.268974 
L 374.712795 -151.103 
L 374.31605 -152.937025 
L 373.93498 -154.771051 
L 373.537908 -156.605077 
L 373.08663 -158.439102 
L 372.538765 -160.273128 
L 371.850661 -162.107154 
L 370.980625 -163.941179 
L 369.89217 -165.775205 
L 368.557056 -167.609231 
L 366.957916 -169.443256 
L 365.090352 -171.277282 
L 362.964386 -173.111308 
L 360.605218 -174.945333 
L 358.053196 -176.779359 
L 355.36291 -178.613385 
L 352.601318 -180.447411 
L 349.844837 -182.281436 
L 347.175415 -184.115462 
L 344.675714 -185.949488 
L 342.423717 -187.783513 
L 340.4872 -189.617539 
L 338.918639 -191.451565 
L 337.751196 -193.28559 
L 336.996298 -195.119616 
L 336.64325 -196.953642 
L 336.660998 -198.787667 
L 337.001908 -200.621693 
L 337.607134 -202.455719 
L 338.412912 -204.289744 
L 339.35701 -206.12377 
L 340.384546 -207.957796 
L 341.452531 -209.791821 
L 342.532655 -211.625847 
L 343.612143 -213.459873 
L 344.692735 -215.293898 
L 345.788082 -217.127924 
L 346.920001 -218.96195 
L 348.114139 -220.795975 
L 349.395591 -222.630001 
L 350.78495 -224.464027 
L 352.295211 -226.298052 
L 353.929767 -228.132078 
L 355.681654 -229.966104 
L 357.534004 -231.800129 
L 359.461584 -233.634155 
L 361.433161 -235.468181 
L 363.414368 -237.302206 
L 365.370714 -239.136232 
L 367.27037 -240.970258 
L 369.086441 -242.804283 
L 370.798489 -244.638309 
L 372.393223 -246.472335 
L 373.864352 -248.30636 
L 375.211742 -250.140386 
L 376.440069 -251.974412 
L 377.557221 -253.808437 
L 378.572701 -255.642463 
L 379.496233 -257.476489 
L 380.336741 -259.310514 
L 381.101754 -261.14454 
L 381.797245 -262.978566 
L 382.427832 -264.812591 
L 382.997219 -266.646617 
L 383.508738 -268.480643 
L 383.965861 -270.314668 
L 384.372568 -272.148694 
L 384.733503 -273.98272 
L 385.053911 -275.816745 
L 385.339378 -277.650771 
L 385.595448 -279.484797 
L 389.507052 -279.484797 
L 389.507052 -279.484797 
L 389.763122 -277.650771 
L 390.048589 -275.816745 
L 390.368997 -273.98272 
L 390.729932 -272.148694 
L 391.136639 -270.314668 
L 391.593762 -268.480643 
L 392.105281 -266.646617 
L 392.674668 -264.812591 
L 393.305255 -262.978566 
L 394.000746 -261.14454 
L 394.765759 -259.310514 
L 395.606267 -257.476489 
L 396.529799 -255.642463 
L 397.545279 -253.808437 
L 398.662431 -251.974412 
L 399.890758 -250.140386 
L 401.238148 -248.30636 
L 402.709277 -246.472335 
L 404.304011 -244.638309 
L 406.016059 -242.804283 
L 407.83213 -240.970258 
L 409.731786 -239.136232 
L 411.688132 -237.302206 
L 413.669339 -235.468181 
L 415.640916 -233.634155 
L 417.568496 -231.800129 
L 419.420846 -229.966104 
L 421.172733 -228.132078 
L 422.807289 -226.298052 
L 424.31755 -224.464027 
L 425.706909 -222.630001 
L 426.988361 -220.795975 
L 428.182499 -218.96195 
L 429.314418 -217.127924 
L 430.409765 -215.293898 
L 431.490357 -213.459873 
L 432.569845 -211.625847 
L 433.649969 -209.791821 
L 434.717954 -207.957796 
L 435.74549 -206.12377 
L 436.689588 -204.289744 
L 437.495366 -202.455719 
L 438.100592 -200.621693 
L 438.441502 -198.787667 
L 438.45925 -196.953642 
L 438.106202 -195.119616 
L 437.351304 -193.28559 
L 436.183861 -191.451565 
L 434.6153 -189.617539 
L 432.678783 -187.783513 
L 430.426786 -185.949488 
L 427.927085 -184.115462 
L 425.257663 -182.281436 
L 422.501182 -180.447411 
L 419.73959 -178.613385 
L 417.049304 -176.779359 
L 414.497282 -174.945333 
L 412.138114 -173.111308 
L 410.012148 -171.277282 
L 408.144584 -169.443256 
L 406.545444 -167.609231 
L 405.21033 -165.775205 
L 404.121875 -163.941179 
L 403.251839 -162.107154 
L 402.563735 -160.273128 
L 402.01587 -158.439102 
L 401.564592 -156.605077 
L 401.16752 -154.771051 
L 400.78645 -152.937025 
L 400.389705 -151.103 
L 399.953699 -149.268974 
L 399.463608 -147.434948 
L 398.913174 -145.600923 
L 398.303751 -143.766897 
L 397.642827 -141.932871 
L 396.942287 -140.098846 
L 396.216668 -138.26482 
L 395.481622 -136.430794 
L 394.752701 -134.596769 
L 394.044501 -132.762743 
L 393.370119 -130.928717 
L 392.74082 -129.094692 
L 392.165834 -127.260666 
L 391.652178 -125.42664 
L 391.204479 -123.592615 
L 390.824802 -121.758589 
L 390.512524 -119.924563 
L 390.264318 -118.090538 
L 390.074296 -116.256512 
L 389.934344 -114.422486 
L 389.834651 -112.588461 
L 389.764382 -110.754435 
L 389.712437 -108.920409 
L 389.668222 -107.086384 
L 389.622337 -105.252358 
L 389.56714 -103.418332 
L 389.497126 -101.584307 
L 389.409097 -99.750281 
L 389.302141 -97.916255 
z
" style="stroke: #000000; stroke-opacity: 0.7"/>
    </defs>
    <g clip-path="url(#p54c1c84189)">
     <use xlink:href="#mfd6e67a1d2" x="0" y="319.921698" style="fill: #2ca02c; fill-opacity: 0.7; stroke: #000000; stroke-opacity: 0.7"/>
    </g>
   </g>
   <g id="matplotlib.axis_1">
    <g id="xtick_1">
     <g id="line2d_1">
      <defs>
       <path id="m63b06e95be" d="M 0 0 
L 0 3.5 
" style="stroke: #000000; stroke-width: 0.8"/>
      </defs>
      <g>
       <use xlink:href="#m63b06e95be" x="133.01125" y="258.666836" style="stroke: #000000; stroke-width: 0.8"/>
      </g>
     </g>
     <g id="text_1">
      <!-- Lost Signal -->
      <g transform="translate(92.288529 310.45056) rotate(-45) scale(0.12 -0.12)">
       <defs>
        <path id="TimesNewRomanPSMT-4c" d="M 3669 1172 
L 3772 1150 
L 3409 0 
L 128 0 
L 128 116 
L 288 116 
Q 556 116 672 291 
Q 738 391 738 753 
L 738 3488 
Q 738 3884 650 3984 
Q 528 4122 288 4122 
L 128 4122 
L 128 4238 
L 2047 4238 
L 2047 4122 
Q 1709 4125 1573 4059 
Q 1438 3994 1388 3894 
Q 1338 3794 1338 3416 
L 1338 753 
Q 1338 494 1388 397 
Q 1425 331 1503 300 
Q 1581 269 1991 269 
L 2300 269 
Q 2788 269 2984 341 
Q 3181 413 3343 595 
Q 3506 778 3669 1172 
z
" transform="scale(0.015625)"/>
        <path id="TimesNewRomanPSMT-6f" d="M 1600 2947 
Q 2250 2947 2644 2453 
Q 2978 2031 2978 1484 
Q 2978 1100 2793 706 
Q 2609 313 2286 112 
Q 1963 -88 1566 -88 
Q 919 -88 538 428 
Q 216 863 216 1403 
Q 216 1797 411 2186 
Q 606 2575 925 2761 
Q 1244 2947 1600 2947 
z
M 1503 2744 
Q 1338 2744 1170 2645 
Q 1003 2547 900 2300 
Q 797 2053 797 1666 
Q 797 1041 1045 587 
Q 1294 134 1700 134 
Q 2003 134 2200 384 
Q 2397 634 2397 1244 
Q 2397 2006 2069 2444 
Q 1847 2744 1503 2744 
z
" transform="scale(0.015625)"/>
        <path id="TimesNewRomanPSMT-73" d="M 2050 2947 
L 2050 1972 
L 1947 1972 
Q 1828 2431 1642 2597 
Q 1456 2763 1169 2763 
Q 950 2763 815 2647 
Q 681 2531 681 2391 
Q 681 2216 781 2091 
Q 878 1963 1175 1819 
L 1631 1597 
Q 2266 1288 2266 781 
Q 2266 391 1970 151 
Q 1675 -88 1309 -88 
Q 1047 -88 709 6 
Q 606 38 541 38 
Q 469 38 428 -44 
L 325 -44 
L 325 978 
L 428 978 
Q 516 541 762 319 
Q 1009 97 1316 97 
Q 1531 97 1667 223 
Q 1803 350 1803 528 
Q 1803 744 1651 891 
Q 1500 1038 1047 1263 
Q 594 1488 453 1669 
Q 313 1847 313 2119 
Q 313 2472 555 2709 
Q 797 2947 1181 2947 
Q 1350 2947 1591 2875 
Q 1750 2828 1803 2828 
Q 1853 2828 1881 2850 
Q 1909 2872 1947 2947 
L 2050 2947 
z
" transform="scale(0.015625)"/>
        <path id="TimesNewRomanPSMT-74" d="M 1031 3803 
L 1031 2863 
L 1700 2863 
L 1700 2644 
L 1031 2644 
L 1031 788 
Q 1031 509 1111 412 
Q 1191 316 1316 316 
Q 1419 316 1516 380 
Q 1613 444 1666 569 
L 1788 569 
Q 1678 263 1478 108 
Q 1278 -47 1066 -47 
Q 922 -47 784 33 
Q 647 113 581 261 
Q 516 409 516 719 
L 516 2644 
L 63 2644 
L 63 2747 
Q 234 2816 414 2980 
Q 594 3144 734 3369 
Q 806 3488 934 3803 
L 1031 3803 
z
" transform="scale(0.015625)"/>
        <path id="TimesNewRomanPSMT-20" transform="scale(0.015625)"/>
        <path id="TimesNewRomanPSMT-53" d="M 2934 4334 
L 2934 2869 
L 2819 2869 
Q 2763 3291 2617 3541 
Q 2472 3791 2203 3937 
Q 1934 4084 1647 4084 
Q 1322 4084 1109 3886 
Q 897 3688 897 3434 
Q 897 3241 1031 3081 
Q 1225 2847 1953 2456 
Q 2547 2138 2764 1967 
Q 2981 1797 3098 1565 
Q 3216 1334 3216 1081 
Q 3216 600 2842 251 
Q 2469 -97 1881 -97 
Q 1697 -97 1534 -69 
Q 1438 -53 1133 45 
Q 828 144 747 144 
Q 669 144 623 97 
Q 578 50 556 -97 
L 441 -97 
L 441 1356 
L 556 1356 
Q 638 900 775 673 
Q 913 447 1195 297 
Q 1478 147 1816 147 
Q 2206 147 2432 353 
Q 2659 559 2659 841 
Q 2659 997 2573 1156 
Q 2488 1316 2306 1453 
Q 2184 1547 1640 1851 
Q 1097 2156 867 2337 
Q 638 2519 519 2737 
Q 400 2956 400 3219 
Q 400 3675 750 4004 
Q 1100 4334 1641 4334 
Q 1978 4334 2356 4169 
Q 2531 4091 2603 4091 
Q 2684 4091 2736 4139 
Q 2788 4188 2819 4334 
L 2934 4334 
z
" transform="scale(0.015625)"/>
        <path id="TimesNewRomanPSMT-69" d="M 928 4444 
Q 1059 4444 1151 4351 
Q 1244 4259 1244 4128 
Q 1244 3997 1151 3903 
Q 1059 3809 928 3809 
Q 797 3809 703 3903 
Q 609 3997 609 4128 
Q 609 4259 701 4351 
Q 794 4444 928 4444 
z
M 1188 2947 
L 1188 647 
Q 1188 378 1227 289 
Q 1266 200 1342 156 
Q 1419 113 1622 113 
L 1622 0 
L 231 0 
L 231 113 
Q 441 113 512 153 
Q 584 194 626 287 
Q 669 381 669 647 
L 669 1750 
Q 669 2216 641 2353 
Q 619 2453 572 2492 
Q 525 2531 444 2531 
Q 356 2531 231 2484 
L 188 2597 
L 1050 2947 
L 1188 2947 
z
" transform="scale(0.015625)"/>
        <path id="TimesNewRomanPSMT-67" d="M 966 1044 
Q 703 1172 562 1401 
Q 422 1631 422 1909 
Q 422 2334 742 2640 
Q 1063 2947 1563 2947 
Q 1972 2947 2272 2747 
L 2878 2747 
Q 3013 2747 3034 2739 
Q 3056 2731 3066 2713 
Q 3084 2684 3084 2613 
Q 3084 2531 3069 2500 
Q 3059 2484 3036 2475 
Q 3013 2466 2878 2466 
L 2506 2466 
Q 2681 2241 2681 1891 
Q 2681 1491 2375 1206 
Q 2069 922 1553 922 
Q 1341 922 1119 984 
Q 981 866 932 777 
Q 884 688 884 625 
Q 884 572 936 522 
Q 988 472 1138 450 
Q 1225 438 1575 428 
Q 2219 413 2409 384 
Q 2700 344 2873 169 
Q 3047 -6 3047 -263 
Q 3047 -616 2716 -925 
Q 2228 -1381 1444 -1381 
Q 841 -1381 425 -1109 
Q 191 -953 191 -784 
Q 191 -709 225 -634 
Q 278 -519 444 -313 
Q 466 -284 763 25 
Q 600 122 533 198 
Q 466 275 466 372 
Q 466 481 555 628 
Q 644 775 966 1044 
z
M 1509 2797 
Q 1278 2797 1122 2612 
Q 966 2428 966 2047 
Q 966 1553 1178 1281 
Q 1341 1075 1591 1075 
Q 1828 1075 1981 1253 
Q 2134 1431 2134 1813 
Q 2134 2309 1919 2591 
Q 1759 2797 1509 2797 
z
M 934 0 
Q 788 -159 713 -296 
Q 638 -434 638 -550 
Q 638 -700 819 -813 
Q 1131 -1006 1722 -1006 
Q 2284 -1006 2551 -807 
Q 2819 -609 2819 -384 
Q 2819 -222 2659 -153 
Q 2497 -84 2016 -72 
Q 1313 -53 934 0 
z
" transform="scale(0.015625)"/>
        <path id="TimesNewRomanPSMT-6e" d="M 1034 2341 
Q 1538 2947 1994 2947 
Q 2228 2947 2397 2830 
Q 2566 2713 2666 2444 
Q 2734 2256 2734 1869 
L 2734 647 
Q 2734 375 2778 278 
Q 2813 200 2889 156 
Q 2966 113 3172 113 
L 3172 0 
L 1756 0 
L 1756 113 
L 1816 113 
Q 2016 113 2095 173 
Q 2175 234 2206 353 
Q 2219 400 2219 647 
L 2219 1819 
Q 2219 2209 2117 2386 
Q 2016 2563 1775 2563 
Q 1403 2563 1034 2156 
L 1034 647 
Q 1034 356 1069 288 
Q 1113 197 1189 155 
Q 1266 113 1500 113 
L 1500 0 
L 84 0 
L 84 113 
L 147 113 
Q 366 113 442 223 
Q 519 334 519 647 
L 519 1709 
Q 519 2225 495 2337 
Q 472 2450 423 2490 
Q 375 2531 294 2531 
Q 206 2531 84 2484 
L 38 2597 
L 900 2947 
L 1034 2947 
L 1034 2341 
z
" transform="scale(0.015625)"/>
        <path id="TimesNewRomanPSMT-61" d="M 1822 413 
Q 1381 72 1269 19 
Q 1100 -59 909 -59 
Q 613 -59 420 144 
Q 228 347 228 678 
Q 228 888 322 1041 
Q 450 1253 767 1440 
Q 1084 1628 1822 1897 
L 1822 2009 
Q 1822 2438 1686 2597 
Q 1550 2756 1291 2756 
Q 1094 2756 978 2650 
Q 859 2544 859 2406 
L 866 2225 
Q 866 2081 792 2003 
Q 719 1925 600 1925 
Q 484 1925 411 2006 
Q 338 2088 338 2228 
Q 338 2497 613 2722 
Q 888 2947 1384 2947 
Q 1766 2947 2009 2819 
Q 2194 2722 2281 2516 
Q 2338 2381 2338 1966 
L 2338 994 
Q 2338 584 2353 492 
Q 2369 400 2405 369 
Q 2441 338 2488 338 
Q 2538 338 2575 359 
Q 2641 400 2828 588 
L 2828 413 
Q 2478 -56 2159 -56 
Q 2006 -56 1915 50 
Q 1825 156 1822 413 
z
M 1822 616 
L 1822 1706 
Q 1350 1519 1213 1441 
Q 966 1303 859 1153 
Q 753 1003 753 825 
Q 753 600 887 451 
Q 1022 303 1197 303 
Q 1434 303 1822 616 
z
" transform="scale(0.015625)"/>
        <path id="TimesNewRomanPSMT-6c" d="M 1184 4444 
L 1184 647 
Q 1184 378 1223 290 
Q 1263 203 1344 158 
Q 1425 113 1647 113 
L 1647 0 
L 244 0 
L 244 113 
Q 441 113 512 153 
Q 584 194 625 287 
Q 666 381 666 647 
L 666 3247 
Q 666 3731 644 3842 
Q 622 3953 573 3993 
Q 525 4034 450 4034 
Q 369 4034 244 3984 
L 191 4094 
L 1044 4444 
L 1184 4444 
z
" transform="scale(0.015625)"/>
       </defs>
       <use xlink:href="#TimesNewRomanPSMT-4c"/>
       <use xlink:href="#TimesNewRomanPSMT-6f" x="61.083984"/>
       <use xlink:href="#TimesNewRomanPSMT-73" x="111.083984"/>
       <use xlink:href="#TimesNewRomanPSMT-74" x="150"/>
       <use xlink:href="#TimesNewRomanPSMT-20" x="177.783203"/>
       <use xlink:href="#TimesNewRomanPSMT-53" x="202.783203"/>
       <use xlink:href="#TimesNewRomanPSMT-69" x="258.398438"/>
       <use xlink:href="#TimesNewRomanPSMT-67" x="286.181641"/>
       <use xlink:href="#TimesNewRomanPSMT-6e" x="336.181641"/>
       <use xlink:href="#TimesNewRomanPSMT-61" x="386.181641"/>
       <use xlink:href="#TimesNewRomanPSMT-6c" x="430.566406"/>
      </g>
     </g>
    </g>
    <g id="xtick_2">
     <g id="line2d_2">
      <g>
       <use xlink:href="#m63b06e95be" x="260.28125" y="258.666836" style="stroke: #000000; stroke-width: 0.8"/>
      </g>
     </g>
     <g id="text_2">
      <!-- Nightfall -->
      <g transform="translate(227.815768 302.19332) rotate(-45) scale(0.12 -0.12)">
       <defs>
        <path id="TimesNewRomanPSMT-4e" d="M -84 4238 
L 1066 4238 
L 3656 1059 
L 3656 3503 
Q 3656 3894 3569 3991 
Q 3453 4122 3203 4122 
L 3056 4122 
L 3056 4238 
L 4531 4238 
L 4531 4122 
L 4381 4122 
Q 4113 4122 4000 3959 
Q 3931 3859 3931 3503 
L 3931 -69 
L 3819 -69 
L 1025 3344 
L 1025 734 
Q 1025 344 1109 247 
Q 1228 116 1475 116 
L 1625 116 
L 1625 0 
L 150 0 
L 150 116 
L 297 116 
Q 569 116 681 278 
Q 750 378 750 734 
L 750 3681 
Q 566 3897 470 3965 
Q 375 4034 191 4094 
Q 100 4122 -84 4122 
L -84 4238 
z
" transform="scale(0.015625)"/>
        <path id="TimesNewRomanPSMT-68" d="M 1041 4444 
L 1041 2350 
Q 1388 2731 1591 2839 
Q 1794 2947 1997 2947 
Q 2241 2947 2416 2812 
Q 2591 2678 2675 2391 
Q 2734 2191 2734 1659 
L 2734 647 
Q 2734 375 2778 275 
Q 2809 200 2884 156 
Q 2959 113 3159 113 
L 3159 0 
L 1753 0 
L 1753 113 
L 1819 113 
Q 2019 113 2097 173 
Q 2175 234 2206 353 
Q 2216 403 2216 647 
L 2216 1659 
Q 2216 2128 2167 2275 
Q 2119 2422 2012 2495 
Q 1906 2569 1756 2569 
Q 1603 2569 1437 2487 
Q 1272 2406 1041 2159 
L 1041 647 
Q 1041 353 1073 281 
Q 1106 209 1195 161 
Q 1284 113 1503 113 
L 1503 0 
L 84 0 
L 84 113 
Q 275 113 384 172 
Q 447 203 484 290 
Q 522 378 522 647 
L 522 3238 
Q 522 3728 498 3840 
Q 475 3953 426 3993 
Q 378 4034 297 4034 
Q 231 4034 84 3984 
L 41 4094 
L 897 4444 
L 1041 4444 
z
" transform="scale(0.015625)"/>
        <path id="TimesNewRomanPSMT-66" d="M 1319 2638 
L 1319 756 
Q 1319 356 1406 250 
Q 1522 113 1716 113 
L 1975 113 
L 1975 0 
L 266 0 
L 266 113 
L 394 113 
Q 519 113 622 175 
Q 725 238 764 344 
Q 803 450 803 756 
L 803 2638 
L 247 2638 
L 247 2863 
L 803 2863 
L 803 3050 
Q 803 3478 940 3775 
Q 1078 4072 1361 4255 
Q 1644 4438 1997 4438 
Q 2325 4438 2600 4225 
Q 2781 4084 2781 3909 
Q 2781 3816 2700 3733 
Q 2619 3650 2525 3650 
Q 2453 3650 2373 3701 
Q 2294 3753 2178 3923 
Q 2063 4094 1966 4153 
Q 1869 4213 1750 4213 
Q 1606 4213 1506 4136 
Q 1406 4059 1362 3898 
Q 1319 3738 1319 3069 
L 1319 2863 
L 2056 2863 
L 2056 2638 
L 1319 2638 
z
" transform="scale(0.015625)"/>
       </defs>
       <use xlink:href="#TimesNewRomanPSMT-4e"/>
       <use xlink:href="#TimesNewRomanPSMT-69" x="72.216797"/>
       <use xlink:href="#TimesNewRomanPSMT-67" x="100"/>
       <use xlink:href="#TimesNewRomanPSMT-68" x="150"/>
       <use xlink:href="#TimesNewRomanPSMT-74" x="200"/>
       <use xlink:href="#TimesNewRomanPSMT-66" x="227.783203"/>
       <use xlink:href="#TimesNewRomanPSMT-61" x="261.083984"/>
       <use xlink:href="#TimesNewRomanPSMT-6c" x="305.46875"/>
       <use xlink:href="#TimesNewRomanPSMT-6c" x="333.251953"/>
      </g>
     </g>
    </g>
    <g id="xtick_3">
     <g id="line2d_3">
      <g>
       <use xlink:href="#m63b06e95be" x="387.55125" y="258.666836" style="stroke: #000000; stroke-width: 0.8"/>
      </g>
     </g>
     <g id="text_3">
      <!-- Last Ember -->
      <g transform="translate(346.388355 310.906644) rotate(-45) scale(0.12 -0.12)">
       <defs>
        <path id="TimesNewRomanPSMT-45" d="M 1338 4006 
L 1338 2331 
L 2269 2331 
Q 2631 2331 2753 2441 
Q 2916 2584 2934 2947 
L 3050 2947 
L 3050 1472 
L 2934 1472 
Q 2891 1781 2847 1869 
Q 2791 1978 2662 2040 
Q 2534 2103 2269 2103 
L 1338 2103 
L 1338 706 
Q 1338 425 1363 364 
Q 1388 303 1450 267 
Q 1513 231 1688 231 
L 2406 231 
Q 2766 231 2928 281 
Q 3091 331 3241 478 
Q 3434 672 3638 1063 
L 3763 1063 
L 3397 0 
L 131 0 
L 131 116 
L 281 116 
Q 431 116 566 188 
Q 666 238 702 338 
Q 738 438 738 747 
L 738 3500 
Q 738 3903 656 3997 
Q 544 4122 281 4122 
L 131 4122 
L 131 4238 
L 3397 4238 
L 3444 3309 
L 3322 3309 
Q 3256 3644 3176 3769 
Q 3097 3894 2941 3959 
Q 2816 4006 2500 4006 
L 1338 4006 
z
" transform="scale(0.015625)"/>
        <path id="TimesNewRomanPSMT-6d" d="M 1050 2338 
Q 1363 2650 1419 2697 
Q 1559 2816 1721 2881 
Q 1884 2947 2044 2947 
Q 2313 2947 2506 2790 
Q 2700 2634 2766 2338 
Q 3088 2713 3309 2830 
Q 3531 2947 3766 2947 
Q 3994 2947 4170 2830 
Q 4347 2713 4450 2447 
Q 4519 2266 4519 1878 
L 4519 647 
Q 4519 378 4559 278 
Q 4591 209 4675 161 
Q 4759 113 4950 113 
L 4950 0 
L 3538 0 
L 3538 113 
L 3597 113 
Q 3781 113 3884 184 
Q 3956 234 3988 344 
Q 4000 397 4000 647 
L 4000 1878 
Q 4000 2228 3916 2372 
Q 3794 2572 3525 2572 
Q 3359 2572 3192 2489 
Q 3025 2406 2788 2181 
L 2781 2147 
L 2788 2013 
L 2788 647 
Q 2788 353 2820 281 
Q 2853 209 2943 161 
Q 3034 113 3253 113 
L 3253 0 
L 1806 0 
L 1806 113 
Q 2044 113 2133 169 
Q 2222 225 2256 338 
Q 2272 391 2272 647 
L 2272 1878 
Q 2272 2228 2169 2381 
Q 2031 2581 1784 2581 
Q 1616 2581 1450 2491 
Q 1191 2353 1050 2181 
L 1050 647 
Q 1050 366 1089 281 
Q 1128 197 1204 155 
Q 1281 113 1516 113 
L 1516 0 
L 100 0 
L 100 113 
Q 297 113 375 155 
Q 453 197 493 289 
Q 534 381 534 647 
L 534 1741 
Q 534 2213 506 2350 
Q 484 2453 437 2492 
Q 391 2531 309 2531 
Q 222 2531 100 2484 
L 53 2597 
L 916 2947 
L 1050 2947 
L 1050 2338 
z
" transform="scale(0.015625)"/>
        <path id="TimesNewRomanPSMT-62" d="M 984 2369 
Q 1400 2947 1881 2947 
Q 2322 2947 2650 2570 
Q 2978 2194 2978 1541 
Q 2978 778 2472 313 
Q 2038 -88 1503 -88 
Q 1253 -88 995 3 
Q 738 94 469 275 
L 469 3241 
Q 469 3728 445 3840 
Q 422 3953 372 3993 
Q 322 4034 247 4034 
Q 159 4034 28 3984 
L -16 4094 
L 844 4444 
L 984 4444 
L 984 2369 
z
M 984 2169 
L 984 456 
Q 1144 300 1314 220 
Q 1484 141 1663 141 
Q 1947 141 2192 453 
Q 2438 766 2438 1363 
Q 2438 1913 2192 2208 
Q 1947 2503 1634 2503 
Q 1469 2503 1303 2419 
Q 1178 2356 984 2169 
z
" transform="scale(0.015625)"/>
        <path id="TimesNewRomanPSMT-65" d="M 681 1784 
Q 678 1147 991 784 
Q 1303 422 1725 422 
Q 2006 422 2214 576 
Q 2422 731 2563 1106 
L 2659 1044 
Q 2594 616 2278 264 
Q 1963 -88 1488 -88 
Q 972 -88 605 314 
Q 238 716 238 1394 
Q 238 2128 614 2539 
Q 991 2950 1559 2950 
Q 2041 2950 2350 2633 
Q 2659 2316 2659 1784 
L 681 1784 
z
M 681 1966 
L 2006 1966 
Q 1991 2241 1941 2353 
Q 1863 2528 1708 2628 
Q 1553 2728 1384 2728 
Q 1125 2728 920 2526 
Q 716 2325 681 1966 
z
" transform="scale(0.015625)"/>
        <path id="TimesNewRomanPSMT-72" d="M 1038 2947 
L 1038 2303 
Q 1397 2947 1775 2947 
Q 1947 2947 2059 2842 
Q 2172 2738 2172 2600 
Q 2172 2478 2090 2393 
Q 2009 2309 1897 2309 
Q 1788 2309 1652 2417 
Q 1516 2525 1450 2525 
Q 1394 2525 1328 2463 
Q 1188 2334 1038 2041 
L 1038 669 
Q 1038 431 1097 309 
Q 1138 225 1241 169 
Q 1344 113 1538 113 
L 1538 0 
L 72 0 
L 72 113 
Q 291 113 397 181 
Q 475 231 506 341 
Q 522 394 522 644 
L 522 1753 
Q 522 2253 501 2348 
Q 481 2444 426 2487 
Q 372 2531 291 2531 
Q 194 2531 72 2484 
L 41 2597 
L 906 2947 
L 1038 2947 
z
" transform="scale(0.015625)"/>
       </defs>
       <use xlink:href="#TimesNewRomanPSMT-4c"/>
       <use xlink:href="#TimesNewRomanPSMT-61" x="61.083984"/>
       <use xlink:href="#TimesNewRomanPSMT-73" x="105.46875"/>
       <use xlink:href="#TimesNewRomanPSMT-74" x="144.384766"/>
       <use xlink:href="#TimesNewRomanPSMT-20" x="172.167969"/>
       <use xlink:href="#TimesNewRomanPSMT-45" x="197.167969"/>
       <use xlink:href="#TimesNewRomanPSMT-6d" x="258.251953"/>
       <use xlink:href="#TimesNewRomanPSMT-62" x="336.035156"/>
       <use xlink:href="#TimesNewRomanPSMT-65" x="386.035156"/>
       <use xlink:href="#TimesNewRomanPSMT-72" x="430.419922"/>
      </g>
     </g>
    </g>
   </g>
   <g id="matplotlib.axis_2">
    <g id="ytick_1">
     <g id="line2d_4">
      <defs>
       <path id="mc7a050fb2f" d="M 0 0 
L -3.5 0 
" style="stroke: #000000; stroke-width: 0.8"/>
      </defs>
      <g>
       <use xlink:href="#mc7a050fb2f" x="69.37625" y="244.154229" style="stroke: #000000; stroke-width: 0.8"/>
      </g>
     </g>
     <g id="text_4">
      <!-- 100 -->
      <g transform="translate(47.37625 247.626104) scale(0.1 -0.1)">
       <defs>
        <path id="TimesNewRomanPSMT-31" d="M 750 3822 
L 1781 4325 
L 1884 4325 
L 1884 747 
Q 1884 391 1914 303 
Q 1944 216 2037 169 
Q 2131 122 2419 116 
L 2419 0 
L 825 0 
L 825 116 
Q 1125 122 1212 167 
Q 1300 213 1334 289 
Q 1369 366 1369 747 
L 1369 3034 
Q 1369 3497 1338 3628 
Q 1316 3728 1258 3775 
Q 1200 3822 1119 3822 
Q 1003 3822 797 3725 
L 750 3822 
z
" transform="scale(0.015625)"/>
        <path id="TimesNewRomanPSMT-30" d="M 231 2094 
Q 231 2819 450 3342 
Q 669 3866 1031 4122 
Q 1313 4325 1613 4325 
Q 2100 4325 2488 3828 
Q 2972 3213 2972 2159 
Q 2972 1422 2759 906 
Q 2547 391 2217 158 
Q 1888 -75 1581 -75 
Q 975 -75 572 641 
Q 231 1244 231 2094 
z
M 844 2016 
Q 844 1141 1059 588 
Q 1238 122 1591 122 
Q 1759 122 1940 273 
Q 2122 425 2216 781 
Q 2359 1319 2359 2297 
Q 2359 3022 2209 3506 
Q 2097 3866 1919 4016 
Q 1791 4119 1609 4119 
Q 1397 4119 1231 3928 
Q 1006 3669 925 3112 
Q 844 2556 844 2016 
z
" transform="scale(0.015625)"/>
       </defs>
       <use xlink:href="#TimesNewRomanPSMT-31"/>
       <use xlink:href="#TimesNewRomanPSMT-30" x="50"/>
       <use xlink:href="#TimesNewRomanPSMT-30" x="100"/>
      </g>
     </g>
    </g>
    <g id="ytick_2">
     <g id="line2d_5">
      <g>
       <use xlink:href="#mc7a050fb2f" x="69.37625" y="218.399826" style="stroke: #000000; stroke-width: 0.8"/>
      </g>
     </g>
     <g id="text_5">
      <!-- 200 -->
      <g transform="translate(47.37625 221.871701) scale(0.1 -0.1)">
       <defs>
        <path id="TimesNewRomanPSMT-32" d="M 2934 816 
L 2638 0 
L 138 0 
L 138 116 
Q 1241 1122 1691 1759 
Q 2141 2397 2141 2925 
Q 2141 3328 1894 3587 
Q 1647 3847 1303 3847 
Q 991 3847 742 3664 
Q 494 3481 375 3128 
L 259 3128 
Q 338 3706 661 4015 
Q 984 4325 1469 4325 
Q 1984 4325 2329 3994 
Q 2675 3663 2675 3213 
Q 2675 2891 2525 2569 
Q 2294 2063 1775 1497 
Q 997 647 803 472 
L 1909 472 
Q 2247 472 2383 497 
Q 2519 522 2628 598 
Q 2738 675 2819 816 
L 2934 816 
z
" transform="scale(0.015625)"/>
       </defs>
       <use xlink:href="#TimesNewRomanPSMT-32"/>
       <use xlink:href="#TimesNewRomanPSMT-30" x="50"/>
       <use xlink:href="#TimesNewRomanPSMT-30" x="100"/>
      </g>
     </g>
    </g>
    <g id="ytick_3">
     <g id="line2d_6">
      <g>
       <use xlink:href="#mc7a050fb2f" x="69.37625" y="192.645423" style="stroke: #000000; stroke-width: 0.8"/>
      </g>
     </g>
     <g id="text_6">
      <!-- 300 -->
      <g transform="translate(47.37625 196.117298) scale(0.1 -0.1)">
       <defs>
        <path id="TimesNewRomanPSMT-33" d="M 325 3431 
Q 506 3859 782 4092 
Q 1059 4325 1472 4325 
Q 1981 4325 2253 3994 
Q 2459 3747 2459 3466 
Q 2459 3003 1878 2509 
Q 2269 2356 2469 2072 
Q 2669 1788 2669 1403 
Q 2669 853 2319 450 
Q 1863 -75 997 -75 
Q 569 -75 414 31 
Q 259 138 259 259 
Q 259 350 332 419 
Q 406 488 509 488 
Q 588 488 669 463 
Q 722 447 909 348 
Q 1097 250 1169 231 
Q 1284 197 1416 197 
Q 1734 197 1970 444 
Q 2206 691 2206 1028 
Q 2206 1275 2097 1509 
Q 2016 1684 1919 1775 
Q 1784 1900 1550 2001 
Q 1316 2103 1072 2103 
L 972 2103 
L 972 2197 
Q 1219 2228 1467 2375 
Q 1716 2522 1828 2728 
Q 1941 2934 1941 3181 
Q 1941 3503 1739 3701 
Q 1538 3900 1238 3900 
Q 753 3900 428 3381 
L 325 3431 
z
" transform="scale(0.015625)"/>
       </defs>
       <use xlink:href="#TimesNewRomanPSMT-33"/>
       <use xlink:href="#TimesNewRomanPSMT-30" x="50"/>
       <use xlink:href="#TimesNewRomanPSMT-30" x="100"/>
      </g>
     </g>
    </g>
    <g id="ytick_4">
     <g id="line2d_7">
      <g>
       <use xlink:href="#mc7a050fb2f" x="69.37625" y="166.89102" style="stroke: #000000; stroke-width: 0.8"/>
      </g>
     </g>
     <g id="text_7">
      <!-- 400 -->
      <g transform="translate(47.37625 170.362895) scale(0.1 -0.1)">
       <defs>
        <path id="TimesNewRomanPSMT-34" d="M 2978 1563 
L 2978 1119 
L 2409 1119 
L 2409 0 
L 1894 0 
L 1894 1119 
L 100 1119 
L 100 1519 
L 2066 4325 
L 2409 4325 
L 2409 1563 
L 2978 1563 
z
M 1894 1563 
L 1894 3666 
L 406 1563 
L 1894 1563 
z
" transform="scale(0.015625)"/>
       </defs>
       <use xlink:href="#TimesNewRomanPSMT-34"/>
       <use xlink:href="#TimesNewRomanPSMT-30" x="50"/>
       <use xlink:href="#TimesNewRomanPSMT-30" x="100"/>
      </g>
     </g>
    </g>
    <g id="ytick_5">
     <g id="line2d_8">
      <g>
       <use xlink:href="#mc7a050fb2f" x="69.37625" y="141.136617" style="stroke: #000000; stroke-width: 0.8"/>
      </g>
     </g>
     <g id="text_8">
      <!-- 500 -->
      <g transform="translate(47.37625 144.608492) scale(0.1 -0.1)">
       <defs>
        <path id="TimesNewRomanPSMT-35" d="M 2778 4238 
L 2534 3706 
L 1259 3706 
L 981 3138 
Q 1809 3016 2294 2522 
Q 2709 2097 2709 1522 
Q 2709 1188 2573 903 
Q 2438 619 2231 419 
Q 2025 219 1772 97 
Q 1413 -75 1034 -75 
Q 653 -75 479 54 
Q 306 184 306 341 
Q 306 428 378 495 
Q 450 563 559 563 
Q 641 563 702 538 
Q 763 513 909 409 
Q 1144 247 1384 247 
Q 1750 247 2026 523 
Q 2303 800 2303 1197 
Q 2303 1581 2056 1914 
Q 1809 2247 1375 2428 
Q 1034 2569 447 2591 
L 1259 4238 
L 2778 4238 
z
" transform="scale(0.015625)"/>
       </defs>
       <use xlink:href="#TimesNewRomanPSMT-35"/>
       <use xlink:href="#TimesNewRomanPSMT-30" x="50"/>
       <use xlink:href="#TimesNewRomanPSMT-30" x="100"/>
      </g>
     </g>
    </g>
    <g id="ytick_6">
     <g id="line2d_9">
      <g>
       <use xlink:href="#mc7a050fb2f" x="69.37625" y="115.382214" style="stroke: #000000; stroke-width: 0.8"/>
      </g>
     </g>
     <g id="text_9">
      <!-- 600 -->
      <g transform="translate(47.37625 118.854089) scale(0.1 -0.1)">
       <defs>
        <path id="TimesNewRomanPSMT-36" d="M 2869 4325 
L 2869 4209 
Q 2456 4169 2195 4045 
Q 1934 3922 1679 3669 
Q 1425 3416 1258 3105 
Q 1091 2794 978 2366 
Q 1428 2675 1881 2675 
Q 2316 2675 2634 2325 
Q 2953 1975 2953 1425 
Q 2953 894 2631 456 
Q 2244 -75 1606 -75 
Q 1172 -75 869 213 
Q 275 772 275 1663 
Q 275 2231 503 2743 
Q 731 3256 1154 3653 
Q 1578 4050 1965 4187 
Q 2353 4325 2688 4325 
L 2869 4325 
z
M 925 2138 
Q 869 1716 869 1456 
Q 869 1156 980 804 
Q 1091 453 1309 247 
Q 1469 100 1697 100 
Q 1969 100 2183 356 
Q 2397 613 2397 1088 
Q 2397 1622 2184 2012 
Q 1972 2403 1581 2403 
Q 1463 2403 1327 2353 
Q 1191 2303 925 2138 
z
" transform="scale(0.015625)"/>
       </defs>
       <use xlink:href="#TimesNewRomanPSMT-36"/>
       <use xlink:href="#TimesNewRomanPSMT-30" x="50"/>
       <use xlink:href="#TimesNewRomanPSMT-30" x="100"/>
      </g>
     </g>
    </g>
    <g id="ytick_7">
     <g id="line2d_10">
      <g>
       <use xlink:href="#mc7a050fb2f" x="69.37625" y="89.627811" style="stroke: #000000; stroke-width: 0.8"/>
      </g>
     </g>
     <g id="text_10">
      <!-- 700 -->
      <g transform="translate(47.37625 93.099686) scale(0.1 -0.1)">
       <defs>
        <path id="TimesNewRomanPSMT-37" d="M 644 4238 
L 2916 4238 
L 2916 4119 
L 1503 -88 
L 1153 -88 
L 2419 3728 
L 1253 3728 
Q 900 3728 750 3644 
Q 488 3500 328 3200 
L 238 3234 
L 644 4238 
z
" transform="scale(0.015625)"/>
       </defs>
       <use xlink:href="#TimesNewRomanPSMT-37"/>
       <use xlink:href="#TimesNewRomanPSMT-30" x="50"/>
       <use xlink:href="#TimesNewRomanPSMT-30" x="100"/>
      </g>
     </g>
    </g>
    <g id="ytick_8">
     <g id="line2d_11">
      <g>
       <use xlink:href="#mc7a050fb2f" x="69.37625" y="63.873408" style="stroke: #000000; stroke-width: 0.8"/>
      </g>
     </g>
     <g id="text_11">
      <!-- 800 -->
      <g transform="translate(47.37625 67.345283) scale(0.1 -0.1)">
       <defs>
        <path id="TimesNewRomanPSMT-38" d="M 1228 2134 
Q 725 2547 579 2797 
Q 434 3047 434 3316 
Q 434 3728 753 4026 
Q 1072 4325 1600 4325 
Q 2113 4325 2425 4047 
Q 2738 3769 2738 3413 
Q 2738 3175 2569 2928 
Q 2400 2681 1866 2347 
Q 2416 1922 2594 1678 
Q 2831 1359 2831 1006 
Q 2831 559 2490 242 
Q 2150 -75 1597 -75 
Q 994 -75 656 303 
Q 388 606 388 966 
Q 388 1247 577 1523 
Q 766 1800 1228 2134 
z
M 1719 2469 
Q 2094 2806 2194 3001 
Q 2294 3197 2294 3444 
Q 2294 3772 2109 3958 
Q 1925 4144 1606 4144 
Q 1288 4144 1088 3959 
Q 888 3775 888 3528 
Q 888 3366 970 3203 
Q 1053 3041 1206 2894 
L 1719 2469 
z
M 1375 2016 
Q 1116 1797 991 1539 
Q 866 1281 866 981 
Q 866 578 1086 336 
Q 1306 94 1647 94 
Q 1984 94 2187 284 
Q 2391 475 2391 747 
Q 2391 972 2272 1150 
Q 2050 1481 1375 2016 
z
" transform="scale(0.015625)"/>
       </defs>
       <use xlink:href="#TimesNewRomanPSMT-38"/>
       <use xlink:href="#TimesNewRomanPSMT-30" x="50"/>
       <use xlink:href="#TimesNewRomanPSMT-30" x="100"/>
      </g>
     </g>
    </g>
    <g id="ytick_9">
     <g id="line2d_12">
      <g>
       <use xlink:href="#mc7a050fb2f" x="69.37625" y="38.119005" style="stroke: #000000; stroke-width: 0.8"/>
      </g>
     </g>
     <g id="text_12">
      <!-- 900 -->
      <g transform="translate(47.37625 41.59088) scale(0.1 -0.1)">
       <defs>
        <path id="TimesNewRomanPSMT-39" d="M 338 -88 
L 338 28 
Q 744 34 1094 217 
Q 1444 400 1770 856 
Q 2097 1313 2225 1859 
Q 1734 1544 1338 1544 
Q 891 1544 572 1889 
Q 253 2234 253 2806 
Q 253 3363 572 3797 
Q 956 4325 1575 4325 
Q 2097 4325 2469 3894 
Q 2925 3359 2925 2575 
Q 2925 1869 2578 1258 
Q 2231 647 1613 244 
Q 1109 -88 516 -88 
L 338 -88 
z
M 2275 2091 
Q 2331 2497 2331 2741 
Q 2331 3044 2228 3395 
Q 2125 3747 1936 3934 
Q 1747 4122 1506 4122 
Q 1228 4122 1018 3872 
Q 809 3622 809 3128 
Q 809 2469 1088 2097 
Q 1291 1828 1588 1828 
Q 1731 1828 1928 1897 
Q 2125 1966 2275 2091 
z
" transform="scale(0.015625)"/>
       </defs>
       <use xlink:href="#TimesNewRomanPSMT-39"/>
       <use xlink:href="#TimesNewRomanPSMT-30" x="50"/>
       <use xlink:href="#TimesNewRomanPSMT-30" x="100"/>
      </g>
     </g>
    </g>
    <g id="text_13">
     <!-- million USD -->
     <g transform="translate(40.381563 180.332637) rotate(-90) scale(0.14 -0.14)">
      <defs>
       <path id="TimesNewRomanPSMT-55" d="M 3053 4122 
L 3053 4238 
L 4553 4238 
L 4553 4122 
L 4394 4122 
Q 4144 4122 4009 3913 
Q 3944 3816 3944 3463 
L 3944 1744 
Q 3944 1106 3817 754 
Q 3691 403 3320 151 
Q 2950 -100 2313 -100 
Q 1619 -100 1259 140 
Q 900 381 750 788 
Q 650 1066 650 1831 
L 650 3488 
Q 650 3878 542 4000 
Q 434 4122 194 4122 
L 34 4122 
L 34 4238 
L 1866 4238 
L 1866 4122 
L 1703 4122 
Q 1441 4122 1328 3956 
Q 1250 3844 1250 3488 
L 1250 1641 
Q 1250 1394 1295 1075 
Q 1341 756 1459 578 
Q 1578 400 1801 284 
Q 2025 169 2350 169 
Q 2766 169 3094 350 
Q 3422 531 3542 814 
Q 3663 1097 3663 1772 
L 3663 3488 
Q 3663 3884 3575 3984 
Q 3453 4122 3213 4122 
L 3053 4122 
z
" transform="scale(0.015625)"/>
       <path id="TimesNewRomanPSMT-44" d="M 109 0 
L 109 116 
L 269 116 
Q 538 116 650 288 
Q 719 391 719 750 
L 719 3488 
Q 719 3884 631 3984 
Q 509 4122 269 4122 
L 109 4122 
L 109 4238 
L 1834 4238 
Q 2784 4238 3279 4022 
Q 3775 3806 4076 3303 
Q 4378 2800 4378 2141 
Q 4378 1256 3841 663 
Q 3238 0 2003 0 
L 109 0 
z
M 1319 306 
Q 1716 219 1984 219 
Q 2709 219 3187 728 
Q 3666 1238 3666 2109 
Q 3666 2988 3187 3494 
Q 2709 4000 1959 4000 
Q 1678 4000 1319 3909 
L 1319 306 
z
" transform="scale(0.015625)"/>
      </defs>
      <use xlink:href="#TimesNewRomanPSMT-6d"/>
      <use xlink:href="#TimesNewRomanPSMT-69" x="77.783203"/>
      <use xlink:href="#TimesNewRomanPSMT-6c" x="105.566406"/>
      <use xlink:href="#TimesNewRomanPSMT-6c" x="133.349609"/>
      <use xlink:href="#TimesNewRomanPSMT-69" x="161.132812"/>
      <use xlink:href="#TimesNewRomanPSMT-6f" x="188.916016"/>
      <use xlink:href="#TimesNewRomanPSMT-6e" x="238.916016"/>
      <use xlink:href="#TimesNewRomanPSMT-20" x="288.916016"/>
      <use xlink:href="#TimesNewRomanPSMT-55" x="313.916016"/>
      <use xlink:href="#TimesNewRomanPSMT-53" x="386.132812"/>
      <use xlink:href="#TimesNewRomanPSMT-44" x="441.748047"/>
     </g>
    </g>
   </g>
   <g id="patch_3">
    <path d="M 125.37505 177.192782 
L 140.64745 177.192782 
L 140.64745 141.136617 
L 125.37505 141.136617 
L 125.37505 177.192782 
L 125.37505 177.192782 
z
" clip-path="url(#p54c1c84189)" style="fill: none; stroke: #000000; stroke-linejoin: miter"/>
   </g>
   <g id="line2d_13">
    <path d="M 133.01125 177.192782 
L 133.01125 230.76194 
" clip-path="url(#p54c1c84189)" style="fill: none; stroke: #000000; stroke-linecap: square"/>
   </g>
   <g id="line2d_14">
    <path d="M 133.01125 141.136617 
L 133.01125 106.883261 
" clip-path="url(#p54c1c84189)" style="fill: none; stroke: #000000; stroke-linecap: square"/>
   </g>
   <g id="line2d_15">
    <path d="M 129.19315 230.76194 
L 136.82935 230.76194 
" clip-path="url(#p54c1c84189)" style="fill: none; stroke: #000000; stroke-linecap: square"/>
   </g>
   <g id="line2d_16">
    <path d="M 129.19315 106.883261 
L 136.82935 106.883261 
" clip-path="url(#p54c1c84189)" style="fill: none; stroke: #000000; stroke-linecap: square"/>
   </g>
   <g id="patch_4">
    <path d="M 252.64505 116.927479 
L 267.91745 116.927479 
L 267.91745 86.537283 
L 252.64505 86.537283 
L 252.64505 116.927479 
L 252.64505 116.927479 
z
" clip-path="url(#p54c1c84189)" style="fill: none; stroke: #000000; stroke-linejoin: miter"/>
   </g>
   <g id="line2d_17">
    <path d="M 260.28125 116.927479 
L 260.28125 161.997684 
" clip-path="url(#p54c1c84189)" style="fill: none; stroke: #000000; stroke-linecap: square"/>
   </g>
   <g id="line2d_18">
    <path d="M 260.28125 86.537283 
L 260.28125 62.843232 
" clip-path="url(#p54c1c84189)" style="fill: none; stroke: #000000; stroke-linecap: square"/>
   </g>
   <g id="line2d_19">
    <path d="M 256.46315 161.997684 
L 264.09935 161.997684 
" clip-path="url(#p54c1c84189)" style="fill: none; stroke: #000000; stroke-linecap: square"/>
   </g>
   <g id="line2d_20">
    <path d="M 256.46315 62.843232 
L 264.09935 62.843232 
" clip-path="url(#p54c1c84189)" style="fill: none; stroke: #000000; stroke-linecap: square"/>
   </g>
   <g id="patch_5">
    <path d="M 379.91505 133.667841 
L 395.18745 133.667841 
L 395.18745 99.15694 
L 379.91505 99.15694 
L 379.91505 133.667841 
L 379.91505 133.667841 
z
" clip-path="url(#p54c1c84189)" style="fill: none; stroke: #000000; stroke-linejoin: miter"/>
   </g>
   <g id="line2d_21">
    <path d="M 387.55125 133.667841 
L 387.55125 180.798398 
" clip-path="url(#p54c1c84189)" style="fill: none; stroke: #000000; stroke-linecap: square"/>
   </g>
   <g id="line2d_22">
    <path d="M 387.55125 99.15694 
L 387.55125 57.692352 
" clip-path="url(#p54c1c84189)" style="fill: none; stroke: #000000; stroke-linecap: square"/>
   </g>
   <g id="line2d_23">
    <path d="M 383.73315 180.798398 
L 391.36935 180.798398 
" clip-path="url(#p54c1c84189)" style="fill: none; stroke: #000000; stroke-linecap: square"/>
   </g>
   <g id="line2d_24">
    <path d="M 383.73315 57.692352 
L 391.36935 57.692352 
" clip-path="url(#p54c1c84189)" style="fill: none; stroke: #000000; stroke-linecap: square"/>
   </g>
   <g id="line2d_25">
    <path d="M 125.37505 161.482596 
L 140.64745 161.482596 
" clip-path="url(#p54c1c84189)" style="fill: none; stroke: #000000; stroke-width: 1.5; stroke-linecap: square"/>
   </g>
   <g id="line2d_26">
    <path d="M 252.64505 101.989925 
L 267.91745 101.989925 
" clip-path="url(#p54c1c84189)" style="fill: none; stroke: #000000; stroke-width: 1.5; stroke-linecap: square"/>
   </g>
   <g id="line2d_27">
    <path d="M 379.91505 121.048183 
L 395.18745 121.048183 
" clip-path="url(#p54c1c84189)" style="fill: none; stroke: #000000; stroke-width: 1.5; stroke-linecap: square"/>
   </g>
   <g id="patch_6">
    <path d="M 69.37625 258.666836 
L 69.37625 30.045 
" style="fill: none; stroke: #000000; stroke-linejoin: miter; stroke-linecap: square"/>
   </g>
   <g id="patch_7">
    <path d="M 451.18625 258.666836 
L 451.18625 30.045 
" style="fill: none; stroke: #000000; stroke-linejoin: miter; stroke-linecap: square"/>
   </g>
   <g id="patch_8">
    <path d="M 69.37625 258.666836 
L 451.18625 258.666836 
" style="fill: none; stroke: #000000; stroke-linejoin: miter; stroke-linecap: square"/>
   </g>
   <g id="patch_9">
    <path d="M 69.37625 30.045 
L 451.18625 30.045 
" style="fill: none; stroke: #000000; stroke-linejoin: miter; stroke-linecap: square"/>
   </g>
   <g id="text_14">
    <!-- Data on the projected box office revenue of different movies (million USD) -->
    <g transform="translate(7.2 18.045) scale(0.16 -0.16)">
     <defs>
      <path id="TimesNewRomanPS-BoldMT-44" d="M 84 0 
L 84 116 
L 225 116 
Q 409 116 507 173 
Q 606 231 653 331 
Q 681 397 681 725 
L 681 3513 
Q 681 3838 647 3919 
Q 613 4000 508 4061 
Q 403 4122 225 4122 
L 84 4122 
L 84 4238 
L 1981 4238 
Q 2741 4238 3203 4031 
Q 3769 3778 4061 3265 
Q 4353 2753 4353 2106 
Q 4353 1659 4209 1282 
Q 4066 906 3837 661 
Q 3609 416 3311 267 
Q 3013 119 2581 38 
Q 2391 0 1981 0 
L 84 0 
z
M 1700 3997 
L 1700 691 
Q 1700 428 1725 368 
Q 1750 309 1809 278 
Q 1894 231 2053 231 
Q 2575 231 2850 588 
Q 3225 1069 3225 2081 
Q 3225 2897 2969 3384 
Q 2766 3766 2447 3903 
Q 2222 4000 1700 3997 
z
" transform="scale(0.015625)"/>
      <path id="TimesNewRomanPS-BoldMT-61" d="M 1828 431 
Q 1294 -41 869 -41 
Q 619 -41 453 123 
Q 288 288 288 534 
Q 288 869 575 1136 
Q 863 1403 1828 1847 
L 1828 2141 
Q 1828 2472 1792 2558 
Q 1756 2644 1656 2708 
Q 1556 2772 1431 2772 
Q 1228 2772 1097 2681 
Q 1016 2625 1016 2550 
Q 1016 2484 1103 2388 
Q 1222 2253 1222 2128 
Q 1222 1975 1108 1867 
Q 994 1759 809 1759 
Q 613 1759 480 1878 
Q 347 1997 347 2156 
Q 347 2381 525 2586 
Q 703 2791 1022 2900 
Q 1341 3009 1684 3009 
Q 2100 3009 2342 2832 
Q 2584 2656 2656 2450 
Q 2700 2319 2700 1847 
L 2700 713 
Q 2700 513 2715 461 
Q 2731 409 2762 384 
Q 2794 359 2834 359 
Q 2916 359 3000 475 
L 3094 400 
Q 2938 169 2770 64 
Q 2603 -41 2391 -41 
Q 2141 -41 2000 76 
Q 1859 194 1828 431 
z
M 1828 659 
L 1828 1638 
Q 1450 1416 1266 1163 
Q 1144 994 1144 822 
Q 1144 678 1247 569 
Q 1325 484 1466 484 
Q 1622 484 1828 659 
z
" transform="scale(0.015625)"/>
      <path id="TimesNewRomanPS-BoldMT-74" d="M 1375 3991 
L 1375 2922 
L 2069 2922 
L 2069 2613 
L 1375 2613 
L 1375 809 
Q 1375 556 1398 482 
Q 1422 409 1481 364 
Q 1541 319 1591 319 
Q 1794 319 1975 628 
L 2069 559 
Q 1816 -41 1247 -41 
Q 969 -41 776 114 
Q 584 269 531 459 
Q 500 566 500 1034 
L 500 2613 
L 119 2613 
L 119 2722 
Q 513 3000 789 3306 
Q 1066 3613 1272 3991 
L 1375 3991 
z
" transform="scale(0.015625)"/>
      <path id="TimesNewRomanPS-BoldMT-20" transform="scale(0.015625)"/>
      <path id="TimesNewRomanPS-BoldMT-6f" d="M 1594 3009 
Q 1975 3009 2303 2812 
Q 2631 2616 2801 2253 
Q 2972 1891 2972 1459 
Q 2972 838 2656 419 
Q 2275 -88 1603 -88 
Q 944 -88 587 375 
Q 231 838 231 1447 
Q 231 2075 595 2542 
Q 959 3009 1594 3009 
z
M 1606 2788 
Q 1447 2788 1333 2667 
Q 1219 2547 1183 2192 
Q 1147 1838 1147 1206 
Q 1147 872 1191 581 
Q 1225 359 1337 243 
Q 1450 128 1594 128 
Q 1734 128 1828 206 
Q 1950 313 1991 503 
Q 2053 800 2053 1703 
Q 2053 2234 1993 2432 
Q 1934 2631 1819 2722 
Q 1738 2788 1606 2788 
z
" transform="scale(0.015625)"/>
      <path id="TimesNewRomanPS-BoldMT-6e" d="M 1409 2922 
L 1409 2544 
Q 1634 2788 1840 2898 
Q 2047 3009 2284 3009 
Q 2569 3009 2756 2851 
Q 2944 2694 3006 2459 
Q 3056 2281 3056 1775 
L 3056 638 
Q 3056 300 3117 217 
Q 3178 134 3372 113 
L 3372 0 
L 1894 0 
L 1894 113 
Q 2059 134 2131 250 
Q 2181 328 2181 638 
L 2181 1938 
Q 2181 2297 2153 2390 
Q 2125 2484 2058 2536 
Q 1991 2588 1909 2588 
Q 1641 2588 1409 2203 
L 1409 638 
Q 1409 309 1470 221 
Q 1531 134 1697 113 
L 1697 0 
L 219 0 
L 219 113 
Q 403 131 481 231 
Q 534 300 534 638 
L 534 2288 
Q 534 2619 473 2700 
Q 413 2781 219 2806 
L 219 2922 
L 1409 2922 
z
" transform="scale(0.015625)"/>
      <path id="TimesNewRomanPS-BoldMT-68" d="M 1409 4238 
L 1409 2547 
Q 1650 2800 1850 2904 
Q 2050 3009 2266 3009 
Q 2541 3009 2736 2853 
Q 2931 2697 2995 2486 
Q 3059 2275 3059 1775 
L 3059 634 
Q 3059 300 3121 217 
Q 3184 134 3375 113 
L 3375 0 
L 1894 0 
L 1894 113 
Q 2050 134 2128 238 
Q 2184 319 2184 634 
L 2184 1938 
Q 2184 2300 2156 2392 
Q 2128 2484 2061 2536 
Q 1994 2588 1909 2588 
Q 1784 2588 1665 2502 
Q 1547 2416 1409 2200 
L 1409 634 
Q 1409 322 1456 244 
Q 1516 138 1700 113 
L 1700 0 
L 219 0 
L 219 113 
Q 403 131 481 231 
Q 534 300 534 634 
L 534 3603 
Q 534 3934 473 4015 
Q 413 4097 219 4122 
L 219 4238 
L 1409 4238 
z
" transform="scale(0.015625)"/>
      <path id="TimesNewRomanPS-BoldMT-65" d="M 2691 1566 
L 1088 1566 
Q 1116 984 1397 647 
Q 1613 388 1916 388 
Q 2103 388 2256 492 
Q 2409 597 2584 869 
L 2691 800 
Q 2453 316 2165 114 
Q 1878 -88 1500 -88 
Q 850 -88 516 413 
Q 247 816 247 1413 
Q 247 2144 642 2576 
Q 1038 3009 1569 3009 
Q 2013 3009 2339 2645 
Q 2666 2281 2691 1566 
z
M 1922 1775 
Q 1922 2278 1867 2465 
Q 1813 2653 1697 2750 
Q 1631 2806 1522 2806 
Q 1359 2806 1256 2647 
Q 1072 2369 1072 1884 
L 1072 1775 
L 1922 1775 
z
" transform="scale(0.015625)"/>
      <path id="TimesNewRomanPS-BoldMT-70" d="M 1347 297 
L 1347 -791 
Q 1347 -1016 1383 -1097 
Q 1419 -1178 1494 -1215 
Q 1569 -1253 1788 -1253 
L 1788 -1369 
L 122 -1369 
L 122 -1253 
Q 316 -1247 409 -1144 
Q 472 -1072 472 -772 
L 472 2313 
Q 472 2622 400 2708 
Q 328 2794 122 2806 
L 122 2922 
L 1347 2922 
L 1347 2538 
Q 1500 2763 1659 2863 
Q 1888 3009 2156 3009 
Q 2478 3009 2742 2806 
Q 3006 2603 3143 2245 
Q 3281 1888 3281 1475 
Q 3281 1031 3139 664 
Q 2997 297 2726 104 
Q 2456 -88 2125 -88 
Q 1884 -88 1675 19 
Q 1519 100 1347 297 
z
M 1347 613 
Q 1616 231 1922 231 
Q 2091 231 2200 409 
Q 2363 672 2363 1409 
Q 2363 2166 2184 2444 
Q 2066 2628 1866 2628 
Q 1550 2628 1347 2172 
L 1347 613 
z
" transform="scale(0.015625)"/>
      <path id="TimesNewRomanPS-BoldMT-72" d="M 1428 2922 
L 1428 2259 
Q 1719 2713 1937 2861 
Q 2156 3009 2359 3009 
Q 2534 3009 2639 2901 
Q 2744 2794 2744 2597 
Q 2744 2388 2642 2272 
Q 2541 2156 2397 2156 
Q 2231 2156 2109 2262 
Q 1988 2369 1966 2381 
Q 1934 2400 1894 2400 
Q 1803 2400 1722 2331 
Q 1594 2225 1528 2028 
Q 1428 1725 1428 1359 
L 1428 688 
L 1431 513 
Q 1431 334 1453 284 
Q 1491 200 1564 161 
Q 1638 122 1813 113 
L 1813 0 
L 234 0 
L 234 113 
Q 425 128 492 217 
Q 559 306 559 688 
L 559 2303 
Q 559 2553 534 2622 
Q 503 2709 443 2750 
Q 384 2791 234 2806 
L 234 2922 
L 1428 2922 
z
" transform="scale(0.015625)"/>
      <path id="TimesNewRomanPS-BoldMT-6a" d="M 1113 4334 
Q 1313 4334 1452 4195 
Q 1591 4056 1591 3859 
Q 1591 3659 1450 3518 
Q 1309 3378 1113 3378 
Q 916 3378 775 3518 
Q 634 3659 634 3859 
Q 634 4056 773 4195 
Q 913 4334 1113 4334 
z
M 1550 2922 
L 1550 -103 
Q 1550 -528 1497 -731 
Q 1419 -1025 1186 -1203 
Q 953 -1381 572 -1381 
Q 188 -1381 5 -1225 
Q -178 -1069 -178 -847 
Q -178 -709 -82 -607 
Q 13 -506 141 -506 
Q 259 -506 328 -576 
Q 397 -647 397 -788 
Q 397 -825 394 -875 
Q 388 -941 388 -966 
Q 388 -1075 438 -1128 
Q 488 -1181 566 -1181 
Q 638 -1181 689 -1118 
Q 741 -1056 741 -941 
Q 741 -878 722 -688 
Q 691 -341 688 -269 
L 678 472 
L 678 2278 
L 681 2441 
Q 681 2638 614 2711 
Q 547 2784 331 2806 
L 331 2922 
L 1550 2922 
z
" transform="scale(0.015625)"/>
      <path id="TimesNewRomanPS-BoldMT-63" d="M 2600 753 
L 2697 678 
Q 2491 291 2183 101 
Q 1875 -88 1528 -88 
Q 944 -88 594 353 
Q 244 794 244 1413 
Q 244 2009 563 2463 
Q 947 3009 1622 3009 
Q 2075 3009 2342 2781 
Q 2609 2553 2609 2272 
Q 2609 2094 2501 1987 
Q 2394 1881 2219 1881 
Q 2034 1881 1914 2003 
Q 1794 2125 1766 2438 
Q 1747 2634 1675 2713 
Q 1603 2791 1506 2791 
Q 1356 2791 1250 2631 
Q 1088 2391 1088 1894 
Q 1088 1481 1219 1104 
Q 1350 728 1578 544 
Q 1750 409 1984 409 
Q 2138 409 2275 481 
Q 2413 553 2600 753 
z
" transform="scale(0.015625)"/>
      <path id="TimesNewRomanPS-BoldMT-64" d="M 3056 4238 
L 3056 875 
Q 3056 534 3075 472 
Q 3100 369 3170 319 
Q 3241 269 3416 256 
L 3416 153 
L 2181 -88 
L 2181 375 
Q 1959 106 1786 9 
Q 1613 -88 1394 -88 
Q 834 -88 509 413 
Q 247 819 247 1409 
Q 247 1881 409 2254 
Q 572 2628 855 2818 
Q 1138 3009 1463 3009 
Q 1672 3009 1834 2928 
Q 1997 2847 2181 2644 
L 2181 3525 
Q 2181 3859 2153 3928 
Q 2116 4019 2041 4062 
Q 1966 4106 1759 4106 
L 1759 4238 
L 3056 4238 
z
M 2181 2256 
Q 1950 2700 1616 2700 
Q 1500 2700 1425 2638 
Q 1309 2541 1236 2297 
Q 1163 2053 1163 1550 
Q 1163 997 1244 731 
Q 1325 466 1466 347 
Q 1538 288 1663 288 
Q 1938 288 2181 719 
L 2181 2256 
z
" transform="scale(0.015625)"/>
      <path id="TimesNewRomanPS-BoldMT-62" d="M 1347 4238 
L 1347 2628 
Q 1716 3009 2153 3009 
Q 2453 3009 2718 2832 
Q 2984 2656 3134 2331 
Q 3284 2006 3284 1581 
Q 3284 1103 3093 712 
Q 2903 322 2584 117 
Q 2266 -88 1856 -88 
Q 1619 -88 1434 -12 
Q 1250 63 1072 231 
L 588 -84 
L 481 -84 
L 481 3631 
Q 481 3884 459 3944 
Q 428 4031 361 4073 
Q 294 4116 134 4122 
L 134 4238 
L 1347 4238 
z
M 1347 2350 
L 1347 1050 
Q 1347 653 1366 544 
Q 1397 359 1515 245 
Q 1634 131 1819 131 
Q 1978 131 2092 222 
Q 2206 313 2282 581 
Q 2359 850 2359 1550 
Q 2359 2222 2191 2472 
Q 2069 2653 1863 2653 
Q 1594 2653 1347 2350 
z
" transform="scale(0.015625)"/>
      <path id="TimesNewRomanPS-BoldMT-78" d="M 1944 1791 
L 2450 828 
Q 2713 325 2866 191 
Q 2950 119 3097 113 
L 3097 0 
L 1469 0 
L 1469 113 
Q 1659 128 1704 162 
Q 1750 197 1750 256 
Q 1750 344 1650 531 
L 1397 1006 
L 1181 691 
Q 1034 475 1016 434 
Q 991 375 991 328 
Q 991 256 1020 207 
Q 1050 159 1101 136 
Q 1153 113 1291 113 
L 1291 0 
L 147 0 
L 147 113 
Q 359 113 536 230 
Q 713 347 1050 844 
L 1291 1200 
L 788 2131 
Q 541 2588 419 2691 
Q 297 2794 147 2806 
L 147 2922 
L 1766 2922 
L 1766 2806 
L 1681 2803 
L 1519 2747 
Q 1494 2725 1494 2675 
Q 1494 2628 1509 2578 
Q 1519 2556 1597 2409 
L 1825 1984 
L 1944 2153 
Q 2194 2497 2194 2634 
Q 2194 2700 2139 2745 
Q 2084 2791 1944 2806 
L 1944 2922 
L 2978 2922 
L 2978 2806 
Q 2788 2800 2622 2689 
Q 2456 2578 2250 2259 
L 1944 1791 
z
" transform="scale(0.015625)"/>
      <path id="TimesNewRomanPS-BoldMT-66" d="M 1497 2616 
L 1497 588 
Q 1497 294 1559 219 
Q 1659 103 1928 113 
L 1928 0 
L 206 0 
L 206 113 
Q 403 116 486 158 
Q 569 200 600 275 
Q 631 350 631 588 
L 631 2616 
L 206 2616 
L 206 2922 
L 631 2922 
L 631 3138 
L 628 3284 
Q 628 3734 958 4034 
Q 1288 4334 1850 4334 
Q 2234 4334 2420 4190 
Q 2606 4047 2606 3872 
Q 2606 3731 2490 3628 
Q 2375 3525 2184 3525 
Q 2022 3525 1926 3609 
Q 1831 3694 1831 3797 
Q 1831 3825 1850 3913 
Q 1863 3966 1863 4013 
Q 1863 4078 1825 4109 
Q 1775 4156 1703 4156 
Q 1613 4156 1552 4081 
Q 1491 4006 1491 3841 
L 1497 3294 
L 1497 2922 
L 1928 2922 
L 1928 2616 
L 1497 2616 
z
" transform="scale(0.015625)"/>
      <path id="TimesNewRomanPS-BoldMT-69" d="M 919 4338 
Q 1122 4338 1262 4195 
Q 1403 4053 1403 3853 
Q 1403 3653 1261 3512 
Q 1119 3372 919 3372 
Q 719 3372 578 3512 
Q 438 3653 438 3853 
Q 438 4053 578 4195 
Q 719 4338 919 4338 
z
M 1356 2922 
L 1356 606 
Q 1356 297 1428 211 
Q 1500 125 1709 113 
L 1709 0 
L 131 0 
L 131 113 
Q 325 119 419 225 
Q 481 297 481 606 
L 481 2313 
Q 481 2622 409 2708 
Q 338 2794 131 2806 
L 131 2922 
L 1356 2922 
z
" transform="scale(0.015625)"/>
      <path id="TimesNewRomanPS-BoldMT-76" d="M 1534 -88 
L 550 2178 
Q 372 2588 272 2697 
Q 200 2778 59 2806 
L 59 2922 
L 1613 2922 
L 1613 2806 
Q 1466 2806 1413 2753 
Q 1338 2684 1338 2591 
Q 1338 2475 1475 2156 
L 1956 1059 
L 2341 2006 
Q 2506 2413 2506 2581 
Q 2506 2678 2436 2739 
Q 2366 2800 2188 2806 
L 2188 2922 
L 3144 2922 
L 3144 2806 
Q 3006 2788 2918 2703 
Q 2831 2619 2656 2206 
L 1681 -88 
L 1534 -88 
z
" transform="scale(0.015625)"/>
      <path id="TimesNewRomanPS-BoldMT-75" d="M 3038 2922 
L 3038 634 
Q 3038 300 3100 217 
Q 3163 134 3353 113 
L 3353 0 
L 2163 0 
L 2163 391 
Q 1953 141 1743 26 
Q 1534 -88 1275 -88 
Q 1028 -88 836 64 
Q 644 216 578 419 
Q 513 622 513 1128 
L 513 2288 
Q 513 2619 452 2700 
Q 391 2781 197 2806 
L 197 2922 
L 1388 2922 
L 1388 925 
Q 1388 613 1417 522 
Q 1447 431 1511 384 
Q 1575 338 1659 338 
Q 1772 338 1863 397 
Q 1988 478 2163 725 
L 2163 2288 
Q 2163 2619 2102 2700 
Q 2041 2781 1847 2806 
L 1847 2922 
L 3038 2922 
z
" transform="scale(0.015625)"/>
      <path id="TimesNewRomanPS-BoldMT-6d" d="M 1428 2922 
L 1428 2538 
Q 1669 2800 1873 2904 
Q 2078 3009 2322 3009 
Q 2603 3009 2793 2878 
Q 2984 2747 3088 2478 
Q 3338 2759 3567 2884 
Q 3797 3009 4047 3009 
Q 4350 3009 4529 2870 
Q 4709 2731 4779 2517 
Q 4850 2303 4850 1834 
L 4850 638 
Q 4850 300 4911 219 
Q 4972 138 5166 113 
L 5166 0 
L 3656 0 
L 3656 113 
Q 3834 128 3919 250 
Q 3975 334 3975 638 
L 3975 1894 
Q 3975 2284 3944 2390 
Q 3913 2497 3845 2548 
Q 3778 2600 3688 2600 
Q 3553 2600 3415 2501 
Q 3278 2403 3138 2206 
L 3138 638 
Q 3138 322 3191 241 
Q 3263 125 3466 113 
L 3466 0 
L 1953 0 
L 1953 113 
Q 2075 119 2145 173 
Q 2216 228 2239 304 
Q 2263 381 2263 638 
L 2263 1894 
Q 2263 2291 2231 2391 
Q 2200 2491 2126 2547 
Q 2053 2603 1969 2603 
Q 1844 2603 1741 2538 
Q 1594 2441 1428 2206 
L 1428 638 
Q 1428 328 1489 229 
Q 1550 131 1744 113 
L 1744 0 
L 238 0 
L 238 113 
Q 422 131 500 231 
Q 553 300 553 638 
L 553 2288 
Q 553 2619 492 2700 
Q 431 2781 238 2806 
L 238 2922 
L 1428 2922 
z
" transform="scale(0.015625)"/>
      <path id="TimesNewRomanPS-BoldMT-73" d="M 2063 3003 
L 2109 2006 
L 2003 2006 
Q 1813 2450 1608 2612 
Q 1403 2775 1200 2775 
Q 1072 2775 981 2689 
Q 891 2603 891 2491 
Q 891 2406 953 2328 
Q 1053 2200 1512 1889 
Q 1972 1578 2117 1361 
Q 2263 1144 2263 875 
Q 2263 631 2141 397 
Q 2019 163 1797 37 
Q 1575 -88 1306 -88 
Q 1097 -88 747 44 
Q 653 78 619 78 
Q 516 78 447 -78 
L 344 -78 
L 294 972 
L 400 972 
Q 541 559 786 353 
Q 1031 147 1250 147 
Q 1400 147 1495 239 
Q 1591 331 1591 463 
Q 1591 613 1497 722 
Q 1403 831 1078 1053 
Q 600 1384 459 1559 
Q 253 1816 253 2125 
Q 253 2463 486 2736 
Q 719 3009 1159 3009 
Q 1397 3009 1619 2894 
Q 1703 2847 1756 2847 
Q 1813 2847 1847 2870 
Q 1881 2894 1956 3003 
L 2063 3003 
z
" transform="scale(0.015625)"/>
      <path id="TimesNewRomanPS-BoldMT-28" d="M 2056 4334 
L 2056 4191 
Q 1731 3978 1578 3775 
Q 1366 3494 1247 3053 
Q 1097 2506 1097 1525 
Q 1097 600 1233 87 
Q 1369 -425 1603 -741 
Q 1766 -959 2056 -1125 
L 2056 -1281 
Q 1303 -1028 779 -248 
Q 256 531 256 1544 
Q 256 2544 778 3314 
Q 1300 4084 2056 4334 
z
" transform="scale(0.015625)"/>
      <path id="TimesNewRomanPS-BoldMT-6c" d="M 1359 4238 
L 1359 606 
Q 1359 297 1431 211 
Q 1503 125 1713 113 
L 1713 0 
L 134 0 
L 134 113 
Q 328 119 422 225 
Q 484 297 484 606 
L 484 3631 
Q 484 3938 412 4023 
Q 341 4109 134 4122 
L 134 4238 
L 1359 4238 
z
" transform="scale(0.015625)"/>
      <path id="TimesNewRomanPS-BoldMT-55" d="M 150 4238 
L 2338 4238 
L 2338 4122 
L 2228 4122 
Q 1981 4122 1889 4070 
Q 1797 4019 1758 3928 
Q 1719 3838 1719 3475 
L 1719 1400 
Q 1719 831 1805 647 
Q 1891 463 2087 341 
Q 2284 219 2584 219 
Q 2928 219 3170 373 
Q 3413 528 3533 800 
Q 3653 1072 3653 1747 
L 3653 3475 
Q 3653 3759 3593 3881 
Q 3534 4003 3444 4050 
Q 3303 4122 3047 4122 
L 3047 4238 
L 4513 4238 
L 4513 4122 
L 4425 4122 
Q 4247 4122 4128 4050 
Q 4009 3978 3956 3834 
Q 3916 3734 3916 3475 
L 3916 1866 
Q 3916 1119 3817 787 
Q 3719 456 3337 178 
Q 2956 -100 2297 -100 
Q 1747 -100 1447 47 
Q 1038 247 869 559 
Q 700 872 700 1400 
L 700 3475 
Q 700 3841 659 3930 
Q 619 4019 519 4072 
Q 419 4125 150 4122 
L 150 4238 
z
" transform="scale(0.015625)"/>
      <path id="TimesNewRomanPS-BoldMT-53" d="M 3006 4334 
L 3041 2922 
L 2913 2922 
Q 2822 3453 2467 3776 
Q 2113 4100 1700 4100 
Q 1381 4100 1195 3929 
Q 1009 3759 1009 3538 
Q 1009 3397 1075 3288 
Q 1166 3141 1366 2997 
Q 1513 2894 2044 2631 
Q 2788 2266 3047 1941 
Q 3303 1616 3303 1197 
Q 3303 666 2889 283 
Q 2475 -100 1838 -100 
Q 1638 -100 1459 -59 
Q 1281 -19 1013 94 
Q 863 156 766 156 
Q 684 156 593 93 
Q 503 31 447 -97 
L 331 -97 
L 331 1503 
L 447 1503 
Q 584 828 976 473 
Q 1369 119 1822 119 
Q 2172 119 2380 309 
Q 2588 500 2588 753 
Q 2588 903 2508 1043 
Q 2428 1184 2265 1311 
Q 2103 1438 1691 1641 
Q 1113 1925 859 2125 
Q 606 2325 470 2572 
Q 334 2819 334 3116 
Q 334 3622 706 3978 
Q 1078 4334 1644 4334 
Q 1850 4334 2044 4284 
Q 2191 4247 2402 4145 
Q 2613 4044 2697 4044 
Q 2778 4044 2825 4094 
Q 2872 4144 2913 4334 
L 3006 4334 
z
" transform="scale(0.015625)"/>
      <path id="TimesNewRomanPS-BoldMT-29" d="M 78 -1281 
L 78 -1138 
Q 403 -922 556 -719 
Q 766 -438 888 0 
Q 1038 550 1038 1531 
Q 1038 2456 902 2967 
Q 766 3478 531 3794 
Q 369 4013 78 4178 
L 78 4334 
Q 831 4081 1354 3301 
Q 1878 2522 1878 1509 
Q 1878 513 1354 -257 
Q 831 -1028 78 -1281 
z
" transform="scale(0.015625)"/>
     </defs>
     <use xlink:href="#TimesNewRomanPS-BoldMT-44"/>
     <use xlink:href="#TimesNewRomanPS-BoldMT-61" x="72.216797"/>
     <use xlink:href="#TimesNewRomanPS-BoldMT-74" x="122.216797"/>
     <use xlink:href="#TimesNewRomanPS-BoldMT-61" x="155.517578"/>
     <use xlink:href="#TimesNewRomanPS-BoldMT-20" x="205.517578"/>
     <use xlink:href="#TimesNewRomanPS-BoldMT-6f" x="230.517578"/>
     <use xlink:href="#TimesNewRomanPS-BoldMT-6e" x="280.517578"/>
     <use xlink:href="#TimesNewRomanPS-BoldMT-20" x="336.132812"/>
     <use xlink:href="#TimesNewRomanPS-BoldMT-74" x="361.132812"/>
     <use xlink:href="#TimesNewRomanPS-BoldMT-68" x="394.433594"/>
     <use xlink:href="#TimesNewRomanPS-BoldMT-65" x="450.048828"/>
     <use xlink:href="#TimesNewRomanPS-BoldMT-20" x="494.433594"/>
     <use xlink:href="#TimesNewRomanPS-BoldMT-70" x="519.433594"/>
     <use xlink:href="#TimesNewRomanPS-BoldMT-72" x="575.048828"/>
     <use xlink:href="#TimesNewRomanPS-BoldMT-6f" x="617.683594"/>
     <use xlink:href="#TimesNewRomanPS-BoldMT-6a" x="667.683594"/>
     <use xlink:href="#TimesNewRomanPS-BoldMT-65" x="700.984375"/>
     <use xlink:href="#TimesNewRomanPS-BoldMT-63" x="745.369141"/>
     <use xlink:href="#TimesNewRomanPS-BoldMT-74" x="789.753906"/>
     <use xlink:href="#TimesNewRomanPS-BoldMT-65" x="823.054688"/>
     <use xlink:href="#TimesNewRomanPS-BoldMT-64" x="867.439453"/>
     <use xlink:href="#TimesNewRomanPS-BoldMT-20" x="923.054688"/>
     <use xlink:href="#TimesNewRomanPS-BoldMT-62" x="948.054688"/>
     <use xlink:href="#TimesNewRomanPS-BoldMT-6f" x="1003.669922"/>
     <use xlink:href="#TimesNewRomanPS-BoldMT-78" x="1053.669922"/>
     <use xlink:href="#TimesNewRomanPS-BoldMT-20" x="1103.669922"/>
     <use xlink:href="#TimesNewRomanPS-BoldMT-6f" x="1128.669922"/>
     <use xlink:href="#TimesNewRomanPS-BoldMT-66" x="1178.669922"/>
     <use xlink:href="#TimesNewRomanPS-BoldMT-66" x="1211.970703"/>
     <use xlink:href="#TimesNewRomanPS-BoldMT-69" x="1245.271484"/>
     <use xlink:href="#TimesNewRomanPS-BoldMT-63" x="1273.054688"/>
     <use xlink:href="#TimesNewRomanPS-BoldMT-65" x="1317.439453"/>
     <use xlink:href="#TimesNewRomanPS-BoldMT-20" x="1361.824219"/>
     <use xlink:href="#TimesNewRomanPS-BoldMT-72" x="1386.824219"/>
     <use xlink:href="#TimesNewRomanPS-BoldMT-65" x="1429.458984"/>
     <use xlink:href="#TimesNewRomanPS-BoldMT-76" x="1473.84375"/>
     <use xlink:href="#TimesNewRomanPS-BoldMT-65" x="1523.84375"/>
     <use xlink:href="#TimesNewRomanPS-BoldMT-6e" x="1568.228516"/>
     <use xlink:href="#TimesNewRomanPS-BoldMT-75" x="1623.84375"/>
     <use xlink:href="#TimesNewRomanPS-BoldMT-65" x="1679.458984"/>
     <use xlink:href="#TimesNewRomanPS-BoldMT-20" x="1723.84375"/>
     <use xlink:href="#TimesNewRomanPS-BoldMT-6f" x="1748.84375"/>
     <use xlink:href="#TimesNewRomanPS-BoldMT-66" x="1798.84375"/>
     <use xlink:href="#TimesNewRomanPS-BoldMT-20" x="1832.144531"/>
     <use xlink:href="#TimesNewRomanPS-BoldMT-64" x="1857.144531"/>
     <use xlink:href="#TimesNewRomanPS-BoldMT-69" x="1912.759766"/>
     <use xlink:href="#TimesNewRomanPS-BoldMT-66" x="1940.542969"/>
     <use xlink:href="#TimesNewRomanPS-BoldMT-66" x="1973.84375"/>
     <use xlink:href="#TimesNewRomanPS-BoldMT-65" x="2007.144531"/>
     <use xlink:href="#TimesNewRomanPS-BoldMT-72" x="2051.529297"/>
     <use xlink:href="#TimesNewRomanPS-BoldMT-65" x="2094.164062"/>
     <use xlink:href="#TimesNewRomanPS-BoldMT-6e" x="2138.548828"/>
     <use xlink:href="#TimesNewRomanPS-BoldMT-74" x="2194.164062"/>
     <use xlink:href="#TimesNewRomanPS-BoldMT-20" x="2227.464844"/>
     <use xlink:href="#TimesNewRomanPS-BoldMT-6d" x="2252.464844"/>
     <use xlink:href="#TimesNewRomanPS-BoldMT-6f" x="2335.765625"/>
     <use xlink:href="#TimesNewRomanPS-BoldMT-76" x="2385.765625"/>
     <use xlink:href="#TimesNewRomanPS-BoldMT-69" x="2435.765625"/>
     <use xlink:href="#TimesNewRomanPS-BoldMT-65" x="2463.548828"/>
     <use xlink:href="#TimesNewRomanPS-BoldMT-73" x="2507.933594"/>
     <use xlink:href="#TimesNewRomanPS-BoldMT-20" x="2546.849609"/>
     <use xlink:href="#TimesNewRomanPS-BoldMT-28" x="2571.849609"/>
     <use xlink:href="#TimesNewRomanPS-BoldMT-6d" x="2605.150391"/>
     <use xlink:href="#TimesNewRomanPS-BoldMT-69" x="2688.451172"/>
     <use xlink:href="#TimesNewRomanPS-BoldMT-6c" x="2716.234375"/>
     <use xlink:href="#TimesNewRomanPS-BoldMT-6c" x="2744.017578"/>
     <use xlink:href="#TimesNewRomanPS-BoldMT-69" x="2771.800781"/>
     <use xlink:href="#TimesNewRomanPS-BoldMT-6f" x="2799.583984"/>
     <use xlink:href="#TimesNewRomanPS-BoldMT-6e" x="2849.583984"/>
     <use xlink:href="#TimesNewRomanPS-BoldMT-20" x="2905.199219"/>
     <use xlink:href="#TimesNewRomanPS-BoldMT-55" x="2930.199219"/>
     <use xlink:href="#TimesNewRomanPS-BoldMT-53" x="3002.416016"/>
     <use xlink:href="#TimesNewRomanPS-BoldMT-44" x="3058.03125"/>
     <use xlink:href="#TimesNewRomanPS-BoldMT-29" x="3130.248047"/>
    </g>
   </g>
  </g>
 </g>
 <defs>
  <clipPath id="p54c1c84189">
   <rect x="69.37625" y="30.045" width="381.81" height="228.621836"/>
  </clipPath>
 </defs>
</svg>
