<?xml version="1.0" encoding="utf-8" standalone="no"?>
<!DOCTYPE svg PUBLIC "-//W3C//DTD SVG 1.1//EN"
  "http://www.w3.org/Graphics/SVG/1.1/DTD/svg11.dtd">
<svg xmlns:xlink="http://www.w3.org/1999/xlink" width="520.5625pt" height="319.953518pt" viewBox="0 0 520.5625 319.953518" xmlns="http://www.w3.org/2000/svg" version="1.1">
 <metadata>
  <rdf:RDF xmlns:dc="http://purl.org/dc/elements/1.1/" xmlns:cc="http://creativecommons.org/ns#" xmlns:rdf="http://www.w3.org/1999/02/22-rdf-syntax-ns#">
   <cc:Work>
    <dc:type rdf:resource="http://purl.org/dc/dcmitype/StillImage"/>
    <dc:date>2025-05-26T17:19:32.847706</dc:date>
    <dc:format>image/svg+xml</dc:format>
    <dc:creator>
     <cc:Agent>
      <dc:title>Matplotlib v3.7.2, https://matplotlib.org/</dc:title>
     </cc:Agent>
    </dc:creator>
   </cc:Work>
  </rdf:RDF>
 </metadata>
 <defs>
  <style type="text/css">*{stroke-linejoin: round; stroke-linecap: butt}</style>
 </defs>
 <g id="figure_1">
  <g id="patch_1">
   <path d="M 0 319.953518 
L 520.5625 319.953518 
L 520.5625 0 
L 0 0 
z
" style="fill: #ffffff"/>
  </g>
  <g id="axes_1">
   <g id="patch_2">
    <path d="M 71.88125 252.069529 
L 448.68125 252.069529 
L 448.68125 30.045 
L 71.88125 30.045 
z
" style="fill: #ffffff"/>
   </g>
   <g id="PolyCollection_1">
    <defs>
     <path id="m1a013fb2d0" d="M 118.286908 -77.976013 
L 100.835592 -77.976013 
L 99.657669 -79.099634 
L 98.4129 -80.223256 
L 97.112237 -81.346878 
L 95.768604 -82.470499 
L 94.396633 -83.594121 
L 93.012304 -84.717743 
L 91.632525 -85.841364 
L 90.274637 -86.964986 
L 88.955872 -88.088608 
L 87.692781 -89.212229 
L 86.500648 -90.335851 
L 85.392917 -91.459473 
L 84.380665 -92.583094 
L 83.472142 -93.706716 
L 82.672422 -94.830338 
L 81.98319 -95.953959 
L 81.402683 -97.077581 
L 80.925824 -98.201203 
L 80.544535 -99.324824 
L 80.248251 -100.448446 
L 80.024586 -101.572067 
L 79.860152 -102.695689 
L 79.741446 -103.819311 
L 79.655781 -104.942932 
L 79.592157 -106.066554 
L 79.542032 -107.190176 
L 79.499899 -108.313797 
L 79.463636 -109.437419 
L 79.434568 -110.561041 
L 79.41725 -111.684662 
L 79.418964 -112.808284 
L 79.448972 -113.931906 
L 79.517604 -115.055527 
L 79.635243 -116.179149 
L 79.811322 -117.302771 
L 80.053419 -118.426392 
L 80.366541 -119.550014 
L 80.752659 -120.673635 
L 81.210554 -121.797257 
L 81.735948 -122.920879 
L 82.321931 -124.0445 
L 82.959599 -125.168122 
L 83.638836 -126.291744 
L 84.349155 -127.415365 
L 85.080487 -128.538987 
L 85.823846 -129.662609 
L 86.571809 -130.78623 
L 87.318761 -131.909852 
L 88.060915 -133.033474 
L 88.796118 -134.157095 
L 89.5235 -135.280717 
L 90.243011 -136.404339 
L 90.954947 -137.52796 
L 91.659497 -138.651582 
L 92.356399 -139.775204 
L 93.044716 -140.898825 
L 93.722761 -142.022447 
L 94.388167 -143.146068 
L 95.038064 -144.26969 
L 95.669335 -145.393312 
L 96.278903 -146.516933 
L 96.863997 -147.640555 
L 97.422372 -148.764177 
L 97.952443 -149.887798 
L 98.453337 -151.01142 
L 98.924857 -152.135042 
L 99.367372 -153.258663 
L 99.781673 -154.382285 
L 100.168816 -155.505907 
L 100.529979 -156.629528 
L 100.866362 -157.75315 
L 101.179143 -158.876772 
L 101.469493 -160.000393 
L 101.73864 -161.124015 
L 101.987968 -162.247636 
L 102.219129 -163.371258 
L 102.434143 -164.49488 
L 102.635461 -165.618501 
L 102.825972 -166.742123 
L 103.008957 -167.865745 
L 103.18797 -168.989366 
L 103.366675 -170.112988 
L 103.548638 -171.23661 
L 103.737114 -172.360231 
L 103.934835 -173.483853 
L 104.143832 -174.607475 
L 104.365313 -175.731096 
L 104.599598 -176.854718 
L 104.846124 -177.97834 
L 105.103514 -179.101961 
L 105.369708 -180.225583 
L 105.642122 -181.349204 
L 105.917843 -182.472826 
L 106.193819 -183.596448 
L 106.467033 -184.720069 
L 106.734665 -185.843691 
L 106.994196 -186.967313 
L 107.243492 -188.090934 
L 107.480835 -189.214556 
L 111.641665 -189.214556 
L 111.641665 -189.214556 
L 111.879008 -188.090934 
L 112.128304 -186.967313 
L 112.387835 -185.843691 
L 112.655467 -184.720069 
L 112.928681 -183.596448 
L 113.204657 -182.472826 
L 113.480378 -181.349204 
L 113.752792 -180.225583 
L 114.018986 -179.101961 
L 114.276376 -177.97834 
L 114.522902 -176.854718 
L 114.757187 -175.731096 
L 114.978668 -174.607475 
L 115.187665 -173.483853 
L 115.385386 -172.360231 
L 115.573862 -171.23661 
L 115.755825 -170.112988 
L 115.93453 -168.989366 
L 116.113543 -167.865745 
L 116.296528 -166.742123 
L 116.487039 -165.618501 
L 116.688357 -164.49488 
L 116.903371 -163.371258 
L 117.134532 -162.247636 
L 117.38386 -161.124015 
L 117.653007 -160.000393 
L 117.943357 -158.876772 
L 118.256138 -157.75315 
L 118.592521 -156.629528 
L 118.953684 -155.505907 
L 119.340827 -154.382285 
L 119.755128 -153.258663 
L 120.197643 -152.135042 
L 120.669163 -151.01142 
L 121.170057 -149.887798 
L 121.700128 -148.764177 
L 122.258503 -147.640555 
L 122.843597 -146.516933 
L 123.453165 -145.393312 
L 124.084436 -144.26969 
L 124.734333 -143.146068 
L 125.399739 -142.022447 
L 126.077784 -140.898825 
L 126.766101 -139.775204 
L 127.463003 -138.651582 
L 128.167553 -137.52796 
L 128.879489 -136.404339 
L 129.599 -135.280717 
L 130.326382 -134.157095 
L 131.061585 -133.033474 
L 131.803739 -131.909852 
L 132.550691 -130.78623 
L 133.298654 -129.662609 
L 134.042013 -128.538987 
L 134.773345 -127.415365 
L 135.483664 -126.291744 
L 136.162901 -125.168122 
L 136.800569 -124.0445 
L 137.386552 -122.920879 
L 137.911946 -121.797257 
L 138.369841 -120.673635 
L 138.755959 -119.550014 
L 139.069081 -118.426392 
L 139.311178 -117.302771 
L 139.487257 -116.179149 
L 139.604896 -115.055527 
L 139.673528 -113.931906 
L 139.703536 -112.808284 
L 139.70525 -111.684662 
L 139.687932 -110.561041 
L 139.658864 -109.437419 
L 139.622601 -108.313797 
L 139.580468 -107.190176 
L 139.530343 -106.066554 
L 139.466719 -104.942932 
L 139.381054 -103.819311 
L 139.262348 -102.695689 
L 139.097914 -101.572067 
L 138.874249 -100.448446 
L 138.577965 -99.324824 
L 138.196676 -98.201203 
L 137.719817 -97.077581 
L 137.13931 -95.953959 
L 136.450078 -94.830338 
L 135.650358 -93.706716 
L 134.741835 -92.583094 
L 133.729583 -91.459473 
L 132.621852 -90.335851 
L 131.429719 -89.212229 
L 130.166628 -88.088608 
L 128.847863 -86.964986 
L 127.489975 -85.841364 
L 126.110196 -84.717743 
L 124.725867 -83.594121 
L 123.353896 -82.470499 
L 122.010263 -81.346878 
L 120.7096 -80.223256 
L 119.464831 -79.099634 
L 118.286908 -77.976013 
z
" style="stroke: #000000; stroke-opacity: 0.7"/>
    </defs>
    <g clip-path="url(#p1bcc32897c)">
     <use xlink:href="#m1a013fb2d0" x="0" y="319.953518" style="fill: #e78ac3; fill-opacity: 0.7; stroke: #000000; stroke-opacity: 0.7"/>
    </g>
   </g>
   <g id="PolyCollection_2">
    <defs>
     <path id="m2415f45a8e" d="M 195.822498 -80.872378 
L 174.020002 -80.872378 
L 172.710709 -82.411073 
L 171.380512 -83.949767 
L 170.048971 -85.488461 
L 168.735343 -87.027155 
L 167.457578 -88.56585 
L 166.231413 -90.104544 
L 165.069625 -91.643238 
L 163.981532 -93.181932 
L 162.972765 -94.720627 
L 162.045341 -96.259321 
L 161.198008 -97.798015 
L 160.426826 -99.336709 
L 159.725907 -100.875404 
L 159.08824 -102.414098 
L 158.506507 -103.952792 
L 157.97383 -105.491486 
L 157.484365 -107.030181 
L 157.033734 -108.568875 
L 156.619257 -110.107569 
L 156.240011 -111.646263 
L 155.896735 -113.184958 
L 155.591622 -114.723652 
L 155.328023 -116.262346 
L 155.110115 -117.801041 
L 154.942547 -119.339735 
L 154.830082 -120.878429 
L 154.77725 -122.417123 
L 154.788005 -123.955818 
L 154.865413 -125.494512 
L 155.011359 -127.033206 
L 155.226305 -128.5719 
L 155.509117 -130.110595 
L 155.856978 -131.649289 
L 156.265421 -133.187983 
L 156.728486 -134.726677 
L 157.239002 -136.265372 
L 157.788984 -137.804066 
L 158.370103 -139.34276 
L 158.974197 -140.881454 
L 159.593746 -142.420149 
L 160.222281 -143.958843 
L 160.854661 -145.497537 
L 161.487201 -147.036231 
L 162.117626 -148.574926 
L 162.744879 -150.11362 
L 163.368806 -151.652314 
L 163.989771 -153.191008 
L 164.608265 -154.729703 
L 165.224555 -156.268397 
L 165.838429 -157.807091 
L 166.449066 -159.345785 
L 167.05504 -160.88448 
L 167.654452 -162.423174 
L 168.245153 -163.961868 
L 168.825023 -165.500562 
L 169.392259 -167.039257 
L 169.94563 -168.577951 
L 170.48465 -170.116645 
L 171.009669 -171.655339 
L 171.52186 -173.194034 
L 172.02311 -174.732728 
L 172.515845 -176.271422 
L 173.002808 -177.810116 
L 173.486813 -179.348811 
L 173.970515 -180.887505 
L 174.456202 -182.426199 
L 174.945627 -183.964893 
L 175.439882 -185.503588 
L 175.939323 -187.042282 
L 176.443524 -188.580976 
L 176.951278 -190.11967 
L 177.460617 -191.658365 
L 177.968873 -193.197059 
L 178.472767 -194.735753 
L 178.968525 -196.274447 
L 179.452034 -197.813142 
L 179.919022 -199.351836 
L 180.365261 -200.89053 
L 180.786783 -202.429224 
L 181.18009 -203.967919 
L 181.542348 -205.506613 
L 181.871534 -207.045307 
L 182.166539 -208.584001 
L 182.427215 -210.122696 
L 182.654347 -211.66139 
L 182.849583 -213.200084 
L 183.015308 -214.738778 
L 183.154488 -216.277473 
L 183.270498 -217.816167 
L 183.36695 -219.354861 
L 183.447525 -220.893555 
L 183.515833 -222.43225 
L 183.575293 -223.970944 
L 183.629031 -225.509638 
L 183.679806 -227.048332 
L 183.729958 -228.587027 
L 183.78136 -230.125721 
L 183.835402 -231.664415 
L 183.892976 -233.203109 
L 185.949524 -233.203109 
L 185.949524 -233.203109 
L 186.007098 -231.664415 
L 186.06114 -230.125721 
L 186.112542 -228.587027 
L 186.162694 -227.048332 
L 186.213469 -225.509638 
L 186.267207 -223.970944 
L 186.326667 -222.43225 
L 186.394975 -220.893555 
L 186.47555 -219.354861 
L 186.572002 -217.816167 
L 186.688012 -216.277473 
L 186.827192 -214.738778 
L 186.992917 -213.200084 
L 187.188153 -211.66139 
L 187.415285 -210.122696 
L 187.675961 -208.584001 
L 187.970966 -207.045307 
L 188.300152 -205.506613 
L 188.66241 -203.967919 
L 189.055717 -202.429224 
L 189.477239 -200.89053 
L 189.923478 -199.351836 
L 190.390466 -197.813142 
L 190.873975 -196.274447 
L 191.369733 -194.735753 
L 191.873627 -193.197059 
L 192.381883 -191.658365 
L 192.891222 -190.11967 
L 193.398976 -188.580976 
L 193.903177 -187.042282 
L 194.402618 -185.503588 
L 194.896873 -183.964893 
L 195.386298 -182.426199 
L 195.871985 -180.887505 
L 196.355687 -179.348811 
L 196.839692 -177.810116 
L 197.326655 -176.271422 
L 197.81939 -174.732728 
L 198.32064 -173.194034 
L 198.832831 -171.655339 
L 199.35785 -170.116645 
L 199.89687 -168.577951 
L 200.450241 -167.039257 
L 201.017477 -165.500562 
L 201.597347 -163.961868 
L 202.188048 -162.423174 
L 202.78746 -160.88448 
L 203.393434 -159.345785 
L 204.004071 -157.807091 
L 204.617945 -156.268397 
L 205.234235 -154.729703 
L 205.852729 -153.191008 
L 206.473694 -151.652314 
L 207.097621 -150.11362 
L 207.724874 -148.574926 
L 208.355299 -147.036231 
L 208.987839 -145.497537 
L 209.620219 -143.958843 
L 210.248754 -142.420149 
L 210.868303 -140.881454 
L 211.472397 -139.34276 
L 212.053516 -137.804066 
L 212.603498 -136.265372 
L 213.114014 -134.726677 
L 213.577079 -133.187983 
L 213.985522 -131.649289 
L 214.333383 -130.110595 
L 214.616195 -128.5719 
L 214.831141 -127.033206 
L 214.977087 -125.494512 
L 215.054495 -123.955818 
L 215.06525 -122.417123 
L 215.012418 -120.878429 
L 214.899953 -119.339735 
L 214.732385 -117.801041 
L 214.514477 -116.262346 
L 214.250878 -114.723652 
L 213.945765 -113.184958 
L 213.602489 -111.646263 
L 213.223243 -110.107569 
L 212.808766 -108.568875 
L 212.358135 -107.030181 
L 211.86867 -105.491486 
L 211.335993 -103.952792 
L 210.75426 -102.414098 
L 210.116593 -100.875404 
L 209.415674 -99.336709 
L 208.644492 -97.798015 
L 207.797159 -96.259321 
L 206.869735 -94.720627 
L 205.860968 -93.181932 
L 204.772875 -91.643238 
L 203.611087 -90.104544 
L 202.384922 -88.56585 
L 201.107157 -87.027155 
L 199.793529 -85.488461 
L 198.461988 -83.949767 
L 197.131791 -82.411073 
L 195.822498 -80.872378 
z
" style="stroke: #000000; stroke-opacity: 0.7"/>
    </defs>
    <g clip-path="url(#p1bcc32897c)">
     <use xlink:href="#m2415f45a8e" x="0" y="319.953518" style="fill: #9467bd; fill-opacity: 0.7; stroke: #000000; stroke-opacity: 0.7"/>
    </g>
   </g>
   <g id="PolyCollection_3">
    <defs>
     <path id="m6f40152723" d="M 273.437733 -83.406698 
L 247.124767 -83.406698 
L 245.921933 -84.455351 
L 244.720648 -85.504004 
L 243.532491 -86.552656 
L 242.368035 -87.601309 
L 241.236542 -88.649961 
L 240.145741 -89.698614 
L 239.101741 -90.747267 
L 238.109046 -91.795919 
L 237.170685 -92.844572 
L 236.288429 -93.893224 
L 235.463079 -94.941877 
L 234.694789 -95.990529 
L 233.983396 -97.039182 
L 233.328727 -98.087835 
L 232.730863 -99.136487 
L 232.190317 -100.18514 
L 231.708147 -101.233792 
L 231.285961 -102.282445 
L 230.925842 -103.331098 
L 230.630182 -104.37975 
L 230.401461 -105.428403 
L 230.241978 -106.477055 
L 230.153553 -107.525708 
L 230.13725 -108.574361 
L 230.19312 -109.623013 
L 230.320002 -110.671666 
L 230.515392 -111.720318 
L 230.7754 -112.768971 
L 231.094791 -113.817623 
L 231.467112 -114.866276 
L 231.884898 -115.914929 
L 232.33994 -116.963581 
L 232.823598 -118.012234 
L 233.327138 -119.060886 
L 233.842069 -120.109539 
L 234.360467 -121.158192 
L 234.875262 -122.206844 
L 235.380477 -123.255497 
L 235.871408 -124.304149 
L 236.344749 -125.352802 
L 236.798651 -126.401455 
L 237.232718 -127.450107 
L 237.647959 -128.49876 
L 238.046675 -129.547412 
L 238.432323 -130.596065 
L 238.809322 -131.644717 
L 239.182839 -132.69337 
L 239.558546 -133.742023 
L 239.942343 -134.790675 
L 240.340076 -135.839328 
L 240.757236 -136.88798 
L 241.198658 -137.936633 
L 241.668235 -138.985286 
L 242.168659 -140.033938 
L 242.701202 -141.082591 
L 243.265563 -142.131243 
L 243.859792 -143.179896 
L 244.480298 -144.228549 
L 245.121962 -145.277201 
L 245.778337 -146.325854 
L 246.441947 -147.374506 
L 247.104646 -148.423159 
L 247.758042 -149.471811 
L 248.393934 -150.520464 
L 249.004743 -151.569117 
L 249.583911 -152.617769 
L 250.126226 -153.666422 
L 250.628059 -154.715074 
L 251.087501 -155.763727 
L 251.504382 -156.81238 
L 251.880179 -157.861032 
L 252.217833 -158.909685 
L 252.52147 -159.958337 
L 252.796079 -161.00699 
L 253.047149 -162.055643 
L 253.280303 -163.104295 
L 253.50096 -164.152948 
L 253.714036 -165.2016 
L 253.923713 -166.250253 
L 254.133276 -167.298905 
L 254.345033 -168.347558 
L 254.560308 -169.396211 
L 254.779506 -170.444863 
L 255.002239 -171.493516 
L 255.227488 -172.542168 
L 255.453795 -173.590821 
L 255.67947 -174.639474 
L 255.90278 -175.688126 
L 256.122125 -176.736779 
L 256.336174 -177.785431 
L 256.543966 -178.834084 
L 256.744962 -179.882737 
L 256.939045 -180.931389 
L 257.126489 -181.980042 
L 257.307879 -183.028694 
L 257.484015 -184.077347 
L 257.655796 -185.125999 
L 257.824101 -186.174652 
L 257.989677 -187.223305 
L 262.572823 -187.223305 
L 262.572823 -187.223305 
L 262.738399 -186.174652 
L 262.906704 -185.125999 
L 263.078485 -184.077347 
L 263.254621 -183.028694 
L 263.436011 -181.980042 
L 263.623455 -180.931389 
L 263.817538 -179.882737 
L 264.018534 -178.834084 
L 264.226326 -177.785431 
L 264.440375 -176.736779 
L 264.65972 -175.688126 
L 264.88303 -174.639474 
L 265.108705 -173.590821 
L 265.335012 -172.542168 
L 265.560261 -171.493516 
L 265.782994 -170.444863 
L 266.002192 -169.396211 
L 266.217467 -168.347558 
L 266.429224 -167.298905 
L 266.638787 -166.250253 
L 266.848464 -165.2016 
L 267.06154 -164.152948 
L 267.282197 -163.104295 
L 267.515351 -162.055643 
L 267.766421 -161.00699 
L 268.04103 -159.958337 
L 268.344667 -158.909685 
L 268.682321 -157.861032 
L 269.058118 -156.81238 
L 269.474999 -155.763727 
L 269.934441 -154.715074 
L 270.436274 -153.666422 
L 270.978589 -152.617769 
L 271.557757 -151.569117 
L 272.168566 -150.520464 
L 272.804458 -149.471811 
L 273.457854 -148.423159 
L 274.120553 -147.374506 
L 274.784163 -146.325854 
L 275.440538 -145.277201 
L 276.082202 -144.228549 
L 276.702708 -143.179896 
L 277.296937 -142.131243 
L 277.861298 -141.082591 
L 278.393841 -140.033938 
L 278.894265 -138.985286 
L 279.363842 -137.936633 
L 279.805264 -136.88798 
L 280.222424 -135.839328 
L 280.620157 -134.790675 
L 281.003954 -133.742023 
L 281.379661 -132.69337 
L 281.753178 -131.644717 
L 282.130177 -130.596065 
L 282.515825 -129.547412 
L 282.914541 -128.49876 
L 283.329782 -127.450107 
L 283.763849 -126.401455 
L 284.217751 -125.352802 
L 284.691092 -124.304149 
L 285.182023 -123.255497 
L 285.687238 -122.206844 
L 286.202033 -121.158192 
L 286.720431 -120.109539 
L 287.235362 -119.060886 
L 287.738902 -118.012234 
L 288.22256 -116.963581 
L 288.677602 -115.914929 
L 289.095388 -114.866276 
L 289.467709 -113.817623 
L 289.7871 -112.768971 
L 290.047108 -111.720318 
L 290.242498 -110.671666 
L 290.36938 -109.623013 
L 290.42525 -108.574361 
L 290.408947 -107.525708 
L 290.320522 -106.477055 
L 290.161039 -105.428403 
L 289.932318 -104.37975 
L 289.636658 -103.331098 
L 289.276539 -102.282445 
L 288.854353 -101.233792 
L 288.372183 -100.18514 
L 287.831637 -99.136487 
L 287.233773 -98.087835 
L 286.579104 -97.039182 
L 285.867711 -95.990529 
L 285.099421 -94.941877 
L 284.274071 -93.893224 
L 283.391815 -92.844572 
L 282.453454 -91.795919 
L 281.460759 -90.747267 
L 280.416759 -89.698614 
L 279.325958 -88.649961 
L 278.194465 -87.601309 
L 277.030009 -86.552656 
L 275.841852 -85.504004 
L 274.640567 -84.455351 
L 273.437733 -83.406698 
z
" style="stroke: #000000; stroke-opacity: 0.7"/>
    </defs>
    <g clip-path="url(#p1bcc32897c)">
     <use xlink:href="#m6f40152723" x="0" y="319.953518" style="fill: #66c2a5; fill-opacity: 0.7; stroke: #000000; stroke-opacity: 0.7"/>
    </g>
   </g>
   <g id="PolyCollection_4">
    <defs>
     <path id="m73da28ab4b" d="M 346.243548 -79.333684 
L 325.038952 -79.333684 
L 323.805403 -80.191257 
L 322.529021 -81.04883 
L 321.22131 -81.906403 
L 319.894388 -82.763976 
L 318.560687 -83.621549 
L 317.232694 -84.479122 
L 315.922746 -85.336695 
L 314.642897 -86.194268 
L 313.404852 -87.05184 
L 312.219952 -87.909413 
L 311.099193 -88.766986 
L 310.05325 -89.624559 
L 309.092484 -90.482132 
L 308.226884 -91.339705 
L 307.465949 -92.197278 
L 306.818482 -93.054851 
L 306.292303 -93.912424 
L 305.893891 -94.769997 
L 305.627996 -95.62757 
L 305.49725 -96.485142 
L 305.501811 -97.342715 
L 305.639105 -98.200288 
L 305.903682 -99.057861 
L 306.287228 -99.915434 
L 306.778732 -100.773007 
L 307.364825 -101.63058 
L 308.030247 -102.488153 
L 308.758437 -103.345726 
L 309.532185 -104.203299 
L 310.334304 -105.060872 
L 311.148284 -105.918444 
L 311.958877 -106.776017 
L 312.752583 -107.63359 
L 313.51802 -108.491163 
L 314.24617 -109.348736 
L 314.9305 -110.206309 
L 315.566974 -111.063882 
L 316.153976 -111.921455 
L 316.692153 -112.779028 
L 317.184213 -113.636601 
L 317.634679 -114.494174 
L 318.049608 -115.351746 
L 318.436287 -116.209319 
L 318.802905 -117.066892 
L 319.158195 -117.924465 
L 319.511047 -118.782038 
L 319.87011 -119.639611 
L 320.243377 -120.497184 
L 320.637778 -121.354757 
L 321.058804 -122.21233 
L 321.510185 -123.069903 
L 321.993654 -123.927476 
L 322.508807 -124.785048 
L 323.053094 -125.642621 
L 323.621943 -126.500194 
L 324.209004 -127.357767 
L 324.806521 -128.21534 
L 325.405784 -129.072913 
L 325.997659 -129.930486 
L 326.573119 -130.788059 
L 327.123777 -131.645632 
L 327.642352 -132.503205 
L 328.123051 -133.360778 
L 328.561839 -134.21835 
L 328.95658 -135.075923 
L 329.307045 -135.933496 
L 329.614792 -136.791069 
L 329.882945 -137.648642 
L 330.115871 -138.506215 
L 330.318807 -139.363788 
L 330.497456 -140.221361 
L 330.657586 -141.078934 
L 330.80465 -141.936507 
L 330.943474 -142.79408 
L 331.078 -143.651652 
L 331.21113 -144.509225 
L 331.344643 -145.366798 
L 331.479212 -146.224371 
L 331.614495 -147.081944 
L 331.749301 -147.939517 
L 331.881806 -148.79709 
L 332.00981 -149.654663 
L 332.131006 -150.512236 
L 332.243251 -151.369809 
L 332.344806 -152.227382 
L 332.434548 -153.084954 
L 332.512112 -153.942527 
L 332.577981 -154.8001 
L 332.633497 -155.657673 
L 332.680798 -156.515246 
L 332.722698 -157.372819 
L 332.762494 -158.230392 
L 332.803747 -159.087965 
L 332.850026 -159.945538 
L 332.904662 -160.803111 
L 332.970503 -161.660684 
L 333.049726 -162.518256 
L 333.143684 -163.375829 
L 333.252824 -164.233402 
L 338.029676 -164.233402 
L 338.029676 -164.233402 
L 338.138816 -163.375829 
L 338.232774 -162.518256 
L 338.311997 -161.660684 
L 338.377838 -160.803111 
L 338.432474 -159.945538 
L 338.478753 -159.087965 
L 338.520006 -158.230392 
L 338.559802 -157.372819 
L 338.601702 -156.515246 
L 338.649003 -155.657673 
L 338.704519 -154.8001 
L 338.770388 -153.942527 
L 338.847952 -153.084954 
L 338.937694 -152.227382 
L 339.039249 -151.369809 
L 339.151494 -150.512236 
L 339.27269 -149.654663 
L 339.400694 -148.79709 
L 339.533199 -147.939517 
L 339.668005 -147.081944 
L 339.803288 -146.224371 
L 339.937857 -145.366798 
L 340.07137 -144.509225 
L 340.2045 -143.651652 
L 340.339026 -142.79408 
L 340.47785 -141.936507 
L 340.624914 -141.078934 
L 340.785044 -140.221361 
L 340.963693 -139.363788 
L 341.166629 -138.506215 
L 341.399555 -137.648642 
L 341.667708 -136.791069 
L 341.975455 -135.933496 
L 342.32592 -135.075923 
L 342.720661 -134.21835 
L 343.159449 -133.360778 
L 343.640148 -132.503205 
L 344.158723 -131.645632 
L 344.709381 -130.788059 
L 345.284841 -129.930486 
L 345.876716 -129.072913 
L 346.475979 -128.21534 
L 347.073496 -127.357767 
L 347.660557 -126.500194 
L 348.229406 -125.642621 
L 348.773693 -124.785048 
L 349.288846 -123.927476 
L 349.772315 -123.069903 
L 350.223696 -122.21233 
L 350.644722 -121.354757 
L 351.039123 -120.497184 
L 351.41239 -119.639611 
L 351.771453 -118.782038 
L 352.124305 -117.924465 
L 352.479595 -117.066892 
L 352.846213 -116.209319 
L 353.232892 -115.351746 
L 353.647821 -114.494174 
L 354.098287 -113.636601 
L 354.590347 -112.779028 
L 355.128524 -111.921455 
L 355.715526 -111.063882 
L 356.352 -110.206309 
L 357.03633 -109.348736 
L 357.76448 -108.491163 
L 358.529917 -107.63359 
L 359.323623 -106.776017 
L 360.134216 -105.918444 
L 360.948196 -105.060872 
L 361.750315 -104.203299 
L 362.524063 -103.345726 
L 363.252253 -102.488153 
L 363.917675 -101.63058 
L 364.503768 -100.773007 
L 364.995272 -99.915434 
L 365.378818 -99.057861 
L 365.643395 -98.200288 
L 365.780689 -97.342715 
L 365.78525 -96.485142 
L 365.654504 -95.62757 
L 365.388609 -94.769997 
L 364.990197 -93.912424 
L 364.464018 -93.054851 
L 363.816551 -92.197278 
L 363.055616 -91.339705 
L 362.190016 -90.482132 
L 361.22925 -89.624559 
L 360.183307 -88.766986 
L 359.062548 -87.909413 
L 357.877648 -87.05184 
L 356.639603 -86.194268 
L 355.359754 -85.336695 
L 354.049806 -84.479122 
L 352.721813 -83.621549 
L 351.388112 -82.763976 
L 350.06119 -81.906403 
L 348.753479 -81.04883 
L 347.477097 -80.191257 
L 346.243548 -79.333684 
z
" style="stroke: #000000; stroke-opacity: 0.7"/>
    </defs>
    <g clip-path="url(#p1bcc32897c)">
     <use xlink:href="#m73da28ab4b" x="0" y="319.953518" style="fill: #c7c7c7; fill-opacity: 0.7; stroke: #000000; stroke-opacity: 0.7"/>
    </g>
   </g>
   <g id="PolyCollection_5">
    <defs>
     <path id="mc0508daa33" d="M 418.56522 -82.23005 
L 403.43728 -82.23005 
L 402.04713 -84.225873 
L 400.546635 -86.221695 
L 398.956027 -88.217518 
L 397.299399 -90.213341 
L 395.603365 -92.209163 
L 393.895609 -94.204986 
L 392.20353 -96.200809 
L 390.553186 -98.196631 
L 388.96866 -100.192454 
L 387.471913 -102.188277 
L 386.083036 -104.184099 
L 384.820767 -106.179922 
L 383.703019 -108.175745 
L 382.747212 -110.171567 
L 381.970209 -112.16739 
L 381.387746 -114.163213 
L 381.013406 -116.159035 
L 380.85725 -118.154858 
L 380.924342 -120.150681 
L 381.213435 -122.146503 
L 381.716057 -124.142326 
L 382.416195 -126.138149 
L 383.290658 -128.133971 
L 384.310109 -130.129794 
L 385.440657 -132.125617 
L 386.645835 -134.121439 
L 387.888764 -136.117262 
L 389.134271 -138.113085 
L 390.350806 -140.108907 
L 391.511979 -142.10473 
L 392.597646 -144.100553 
L 393.594481 -146.096375 
L 394.496045 -148.092198 
L 395.302389 -150.088021 
L 396.019267 -152.083843 
L 396.657058 -154.079666 
L 397.229491 -156.075489 
L 397.752293 -158.071311 
L 398.241846 -160.067134 
L 398.713932 -162.062957 
L 399.182642 -164.058779 
L 399.659483 -166.054602 
L 400.152734 -168.050425 
L 400.667077 -170.046247 
L 401.203507 -172.04207 
L 401.75955 -174.037893 
L 402.329748 -176.033715 
L 402.906385 -178.029538 
L 403.480391 -180.025361 
L 404.042323 -182.021183 
L 404.583323 -184.017006 
L 405.095945 -186.012829 
L 405.574755 -188.008651 
L 406.016646 -190.004474 
L 406.420838 -192.000297 
L 406.788606 -193.996119 
L 407.122786 -195.991942 
L 407.427165 -197.987765 
L 407.705843 -199.983587 
L 407.962678 -201.97941 
L 408.200861 -203.975233 
L 408.422665 -205.971055 
L 408.629362 -207.966878 
L 408.821288 -209.962701 
L 408.998005 -211.958523 
L 409.15853 -213.954346 
L 409.301586 -215.950169 
L 409.425858 -217.945991 
L 409.530245 -219.941814 
L 409.614093 -221.937637 
L 409.677417 -223.933459 
L 409.721082 -225.929282 
L 409.74694 -227.925105 
L 409.75787 -229.920927 
L 409.757717 -231.91675 
L 409.751099 -233.912573 
L 409.743078 -235.908395 
L 409.738735 -237.904218 
L 409.742678 -239.900041 
L 409.758565 -241.895863 
L 409.788696 -243.891686 
L 409.833755 -245.887509 
L 409.892734 -247.883331 
L 409.96306 -249.879154 
L 410.04091 -251.874977 
L 410.121671 -253.870799 
L 410.20048 -255.866622 
L 410.27278 -257.862445 
L 410.334809 -259.858267 
L 410.383978 -261.85409 
L 410.419101 -263.849913 
L 410.440444 -265.845735 
L 410.449626 -267.841558 
L 410.449364 -269.837381 
L 410.443123 -271.833203 
L 410.434711 -273.829026 
L 410.427856 -275.824849 
L 410.425827 -277.820671 
L 410.431132 -279.816494 
L 411.571368 -279.816494 
L 411.571368 -279.816494 
L 411.576673 -277.820671 
L 411.574644 -275.824849 
L 411.567789 -273.829026 
L 411.559377 -271.833203 
L 411.553136 -269.837381 
L 411.552874 -267.841558 
L 411.562056 -265.845735 
L 411.583399 -263.849913 
L 411.618522 -261.85409 
L 411.667691 -259.858267 
L 411.72972 -257.862445 
L 411.80202 -255.866622 
L 411.880829 -253.870799 
L 411.96159 -251.874977 
L 412.03944 -249.879154 
L 412.109766 -247.883331 
L 412.168745 -245.887509 
L 412.213804 -243.891686 
L 412.243935 -241.895863 
L 412.259822 -239.900041 
L 412.263765 -237.904218 
L 412.259422 -235.908395 
L 412.251401 -233.912573 
L 412.244783 -231.91675 
L 412.24463 -229.920927 
L 412.25556 -227.925105 
L 412.281418 -225.929282 
L 412.325083 -223.933459 
L 412.388407 -221.937637 
L 412.472255 -219.941814 
L 412.576642 -217.945991 
L 412.700914 -215.950169 
L 412.84397 -213.954346 
L 413.004495 -211.958523 
L 413.181212 -209.962701 
L 413.373138 -207.966878 
L 413.579835 -205.971055 
L 413.801639 -203.975233 
L 414.039822 -201.97941 
L 414.296657 -199.983587 
L 414.575335 -197.987765 
L 414.879714 -195.991942 
L 415.213894 -193.996119 
L 415.581662 -192.000297 
L 415.985854 -190.004474 
L 416.427745 -188.008651 
L 416.906555 -186.012829 
L 417.419177 -184.017006 
L 417.960177 -182.021183 
L 418.522109 -180.025361 
L 419.096115 -178.029538 
L 419.672752 -176.033715 
L 420.24295 -174.037893 
L 420.798993 -172.04207 
L 421.335423 -170.046247 
L 421.849766 -168.050425 
L 422.343017 -166.054602 
L 422.819858 -164.058779 
L 423.288568 -162.062957 
L 423.760654 -160.067134 
L 424.250207 -158.071311 
L 424.773009 -156.075489 
L 425.345442 -154.079666 
L 425.983233 -152.083843 
L 426.700111 -150.088021 
L 427.506455 -148.092198 
L 428.408019 -146.096375 
L 429.404854 -144.100553 
L 430.490521 -142.10473 
L 431.651694 -140.108907 
L 432.868229 -138.113085 
L 434.113736 -136.117262 
L 435.356665 -134.121439 
L 436.561843 -132.125617 
L 437.692391 -130.129794 
L 438.711842 -128.133971 
L 439.586305 -126.138149 
L 440.286443 -124.142326 
L 440.789065 -122.146503 
L 441.078158 -120.150681 
L 441.14525 -118.154858 
L 440.989094 -116.159035 
L 440.614754 -114.163213 
L 440.032291 -112.16739 
L 439.255288 -110.171567 
L 438.299481 -108.175745 
L 437.181733 -106.179922 
L 435.919464 -104.184099 
L 434.530587 -102.188277 
L 433.03384 -100.192454 
L 431.449314 -98.196631 
L 429.79897 -96.200809 
L 428.106891 -94.204986 
L 426.399135 -92.209163 
L 424.703101 -90.213341 
L 423.046473 -88.217518 
L 421.455865 -86.221695 
L 419.95537 -84.225873 
L 418.56522 -82.23005 
z
" style="stroke: #000000; stroke-opacity: 0.7"/>
    </defs>
    <g clip-path="url(#p1bcc32897c)">
     <use xlink:href="#mc0508daa33" x="0" y="319.953518" style="fill: #c5b0d5; fill-opacity: 0.7; stroke: #000000; stroke-opacity: 0.7"/>
    </g>
   </g>
   <g id="matplotlib.axis_1">
    <g id="xtick_1">
     <g id="line2d_1">
      <defs>
       <path id="m5d28b5e505" d="M 0 0 
L 0 3.5 
" style="stroke: #000000; stroke-width: 0.8"/>
      </defs>
      <g>
       <use xlink:href="#m5d28b5e505" x="109.56125" y="252.069529" style="stroke: #000000; stroke-width: 0.8"/>
      </g>
     </g>
     <g id="text_1">
      <!-- Nightfall -->
      <g transform="translate(77.095768 295.596014) rotate(-45) scale(0.12 -0.12)">
       <defs>
        <path id="TimesNewRomanPSMT-4e" d="M -84 4238 
L 1066 4238 
L 3656 1059 
L 3656 3503 
Q 3656 3894 3569 3991 
Q 3453 4122 3203 4122 
L 3056 4122 
L 3056 4238 
L 4531 4238 
L 4531 4122 
L 4381 4122 
Q 4113 4122 4000 3959 
Q 3931 3859 3931 3503 
L 3931 -69 
L 3819 -69 
L 1025 3344 
L 1025 734 
Q 1025 344 1109 247 
Q 1228 116 1475 116 
L 1625 116 
L 1625 0 
L 150 0 
L 150 116 
L 297 116 
Q 569 116 681 278 
Q 750 378 750 734 
L 750 3681 
Q 566 3897 470 3965 
Q 375 4034 191 4094 
Q 100 4122 -84 4122 
L -84 4238 
z
" transform="scale(0.015625)"/>
        <path id="TimesNewRomanPSMT-69" d="M 928 4444 
Q 1059 4444 1151 4351 
Q 1244 4259 1244 4128 
Q 1244 3997 1151 3903 
Q 1059 3809 928 3809 
Q 797 3809 703 3903 
Q 609 3997 609 4128 
Q 609 4259 701 4351 
Q 794 4444 928 4444 
z
M 1188 2947 
L 1188 647 
Q 1188 378 1227 289 
Q 1266 200 1342 156 
Q 1419 113 1622 113 
L 1622 0 
L 231 0 
L 231 113 
Q 441 113 512 153 
Q 584 194 626 287 
Q 669 381 669 647 
L 669 1750 
Q 669 2216 641 2353 
Q 619 2453 572 2492 
Q 525 2531 444 2531 
Q 356 2531 231 2484 
L 188 2597 
L 1050 2947 
L 1188 2947 
z
" transform="scale(0.015625)"/>
        <path id="TimesNewRomanPSMT-67" d="M 966 1044 
Q 703 1172 562 1401 
Q 422 1631 422 1909 
Q 422 2334 742 2640 
Q 1063 2947 1563 2947 
Q 1972 2947 2272 2747 
L 2878 2747 
Q 3013 2747 3034 2739 
Q 3056 2731 3066 2713 
Q 3084 2684 3084 2613 
Q 3084 2531 3069 2500 
Q 3059 2484 3036 2475 
Q 3013 2466 2878 2466 
L 2506 2466 
Q 2681 2241 2681 1891 
Q 2681 1491 2375 1206 
Q 2069 922 1553 922 
Q 1341 922 1119 984 
Q 981 866 932 777 
Q 884 688 884 625 
Q 884 572 936 522 
Q 988 472 1138 450 
Q 1225 438 1575 428 
Q 2219 413 2409 384 
Q 2700 344 2873 169 
Q 3047 -6 3047 -263 
Q 3047 -616 2716 -925 
Q 2228 -1381 1444 -1381 
Q 841 -1381 425 -1109 
Q 191 -953 191 -784 
Q 191 -709 225 -634 
Q 278 -519 444 -313 
Q 466 -284 763 25 
Q 600 122 533 198 
Q 466 275 466 372 
Q 466 481 555 628 
Q 644 775 966 1044 
z
M 1509 2797 
Q 1278 2797 1122 2612 
Q 966 2428 966 2047 
Q 966 1553 1178 1281 
Q 1341 1075 1591 1075 
Q 1828 1075 1981 1253 
Q 2134 1431 2134 1813 
Q 2134 2309 1919 2591 
Q 1759 2797 1509 2797 
z
M 934 0 
Q 788 -159 713 -296 
Q 638 -434 638 -550 
Q 638 -700 819 -813 
Q 1131 -1006 1722 -1006 
Q 2284 -1006 2551 -807 
Q 2819 -609 2819 -384 
Q 2819 -222 2659 -153 
Q 2497 -84 2016 -72 
Q 1313 -53 934 0 
z
" transform="scale(0.015625)"/>
        <path id="TimesNewRomanPSMT-68" d="M 1041 4444 
L 1041 2350 
Q 1388 2731 1591 2839 
Q 1794 2947 1997 2947 
Q 2241 2947 2416 2812 
Q 2591 2678 2675 2391 
Q 2734 2191 2734 1659 
L 2734 647 
Q 2734 375 2778 275 
Q 2809 200 2884 156 
Q 2959 113 3159 113 
L 3159 0 
L 1753 0 
L 1753 113 
L 1819 113 
Q 2019 113 2097 173 
Q 2175 234 2206 353 
Q 2216 403 2216 647 
L 2216 1659 
Q 2216 2128 2167 2275 
Q 2119 2422 2012 2495 
Q 1906 2569 1756 2569 
Q 1603 2569 1437 2487 
Q 1272 2406 1041 2159 
L 1041 647 
Q 1041 353 1073 281 
Q 1106 209 1195 161 
Q 1284 113 1503 113 
L 1503 0 
L 84 0 
L 84 113 
Q 275 113 384 172 
Q 447 203 484 290 
Q 522 378 522 647 
L 522 3238 
Q 522 3728 498 3840 
Q 475 3953 426 3993 
Q 378 4034 297 4034 
Q 231 4034 84 3984 
L 41 4094 
L 897 4444 
L 1041 4444 
z
" transform="scale(0.015625)"/>
        <path id="TimesNewRomanPSMT-74" d="M 1031 3803 
L 1031 2863 
L 1700 2863 
L 1700 2644 
L 1031 2644 
L 1031 788 
Q 1031 509 1111 412 
Q 1191 316 1316 316 
Q 1419 316 1516 380 
Q 1613 444 1666 569 
L 1788 569 
Q 1678 263 1478 108 
Q 1278 -47 1066 -47 
Q 922 -47 784 33 
Q 647 113 581 261 
Q 516 409 516 719 
L 516 2644 
L 63 2644 
L 63 2747 
Q 234 2816 414 2980 
Q 594 3144 734 3369 
Q 806 3488 934 3803 
L 1031 3803 
z
" transform="scale(0.015625)"/>
        <path id="TimesNewRomanPSMT-66" d="M 1319 2638 
L 1319 756 
Q 1319 356 1406 250 
Q 1522 113 1716 113 
L 1975 113 
L 1975 0 
L 266 0 
L 266 113 
L 394 113 
Q 519 113 622 175 
Q 725 238 764 344 
Q 803 450 803 756 
L 803 2638 
L 247 2638 
L 247 2863 
L 803 2863 
L 803 3050 
Q 803 3478 940 3775 
Q 1078 4072 1361 4255 
Q 1644 4438 1997 4438 
Q 2325 4438 2600 4225 
Q 2781 4084 2781 3909 
Q 2781 3816 2700 3733 
Q 2619 3650 2525 3650 
Q 2453 3650 2373 3701 
Q 2294 3753 2178 3923 
Q 2063 4094 1966 4153 
Q 1869 4213 1750 4213 
Q 1606 4213 1506 4136 
Q 1406 4059 1362 3898 
Q 1319 3738 1319 3069 
L 1319 2863 
L 2056 2863 
L 2056 2638 
L 1319 2638 
z
" transform="scale(0.015625)"/>
        <path id="TimesNewRomanPSMT-61" d="M 1822 413 
Q 1381 72 1269 19 
Q 1100 -59 909 -59 
Q 613 -59 420 144 
Q 228 347 228 678 
Q 228 888 322 1041 
Q 450 1253 767 1440 
Q 1084 1628 1822 1897 
L 1822 2009 
Q 1822 2438 1686 2597 
Q 1550 2756 1291 2756 
Q 1094 2756 978 2650 
Q 859 2544 859 2406 
L 866 2225 
Q 866 2081 792 2003 
Q 719 1925 600 1925 
Q 484 1925 411 2006 
Q 338 2088 338 2228 
Q 338 2497 613 2722 
Q 888 2947 1384 2947 
Q 1766 2947 2009 2819 
Q 2194 2722 2281 2516 
Q 2338 2381 2338 1966 
L 2338 994 
Q 2338 584 2353 492 
Q 2369 400 2405 369 
Q 2441 338 2488 338 
Q 2538 338 2575 359 
Q 2641 400 2828 588 
L 2828 413 
Q 2478 -56 2159 -56 
Q 2006 -56 1915 50 
Q 1825 156 1822 413 
z
M 1822 616 
L 1822 1706 
Q 1350 1519 1213 1441 
Q 966 1303 859 1153 
Q 753 1003 753 825 
Q 753 600 887 451 
Q 1022 303 1197 303 
Q 1434 303 1822 616 
z
" transform="scale(0.015625)"/>
        <path id="TimesNewRomanPSMT-6c" d="M 1184 4444 
L 1184 647 
Q 1184 378 1223 290 
Q 1263 203 1344 158 
Q 1425 113 1647 113 
L 1647 0 
L 244 0 
L 244 113 
Q 441 113 512 153 
Q 584 194 625 287 
Q 666 381 666 647 
L 666 3247 
Q 666 3731 644 3842 
Q 622 3953 573 3993 
Q 525 4034 450 4034 
Q 369 4034 244 3984 
L 191 4094 
L 1044 4444 
L 1184 4444 
z
" transform="scale(0.015625)"/>
       </defs>
       <use xlink:href="#TimesNewRomanPSMT-4e"/>
       <use xlink:href="#TimesNewRomanPSMT-69" x="72.216797"/>
       <use xlink:href="#TimesNewRomanPSMT-67" x="100"/>
       <use xlink:href="#TimesNewRomanPSMT-68" x="150"/>
       <use xlink:href="#TimesNewRomanPSMT-74" x="200"/>
       <use xlink:href="#TimesNewRomanPSMT-66" x="227.783203"/>
       <use xlink:href="#TimesNewRomanPSMT-61" x="261.083984"/>
       <use xlink:href="#TimesNewRomanPSMT-6c" x="305.46875"/>
       <use xlink:href="#TimesNewRomanPSMT-6c" x="333.251953"/>
      </g>
     </g>
    </g>
    <g id="xtick_2">
     <g id="line2d_2">
      <g>
       <use xlink:href="#m5d28b5e505" x="184.92125" y="252.069529" style="stroke: #000000; stroke-width: 0.8"/>
      </g>
     </g>
     <g id="text_2">
      <!-- Last Ember -->
      <g transform="translate(143.758355 304.309337) rotate(-45) scale(0.12 -0.12)">
       <defs>
        <path id="TimesNewRomanPSMT-4c" d="M 3669 1172 
L 3772 1150 
L 3409 0 
L 128 0 
L 128 116 
L 288 116 
Q 556 116 672 291 
Q 738 391 738 753 
L 738 3488 
Q 738 3884 650 3984 
Q 528 4122 288 4122 
L 128 4122 
L 128 4238 
L 2047 4238 
L 2047 4122 
Q 1709 4125 1573 4059 
Q 1438 3994 1388 3894 
Q 1338 3794 1338 3416 
L 1338 753 
Q 1338 494 1388 397 
Q 1425 331 1503 300 
Q 1581 269 1991 269 
L 2300 269 
Q 2788 269 2984 341 
Q 3181 413 3343 595 
Q 3506 778 3669 1172 
z
" transform="scale(0.015625)"/>
        <path id="TimesNewRomanPSMT-73" d="M 2050 2947 
L 2050 1972 
L 1947 1972 
Q 1828 2431 1642 2597 
Q 1456 2763 1169 2763 
Q 950 2763 815 2647 
Q 681 2531 681 2391 
Q 681 2216 781 2091 
Q 878 1963 1175 1819 
L 1631 1597 
Q 2266 1288 2266 781 
Q 2266 391 1970 151 
Q 1675 -88 1309 -88 
Q 1047 -88 709 6 
Q 606 38 541 38 
Q 469 38 428 -44 
L 325 -44 
L 325 978 
L 428 978 
Q 516 541 762 319 
Q 1009 97 1316 97 
Q 1531 97 1667 223 
Q 1803 350 1803 528 
Q 1803 744 1651 891 
Q 1500 1038 1047 1263 
Q 594 1488 453 1669 
Q 313 1847 313 2119 
Q 313 2472 555 2709 
Q 797 2947 1181 2947 
Q 1350 2947 1591 2875 
Q 1750 2828 1803 2828 
Q 1853 2828 1881 2850 
Q 1909 2872 1947 2947 
L 2050 2947 
z
" transform="scale(0.015625)"/>
        <path id="TimesNewRomanPSMT-20" transform="scale(0.015625)"/>
        <path id="TimesNewRomanPSMT-45" d="M 1338 4006 
L 1338 2331 
L 2269 2331 
Q 2631 2331 2753 2441 
Q 2916 2584 2934 2947 
L 3050 2947 
L 3050 1472 
L 2934 1472 
Q 2891 1781 2847 1869 
Q 2791 1978 2662 2040 
Q 2534 2103 2269 2103 
L 1338 2103 
L 1338 706 
Q 1338 425 1363 364 
Q 1388 303 1450 267 
Q 1513 231 1688 231 
L 2406 231 
Q 2766 231 2928 281 
Q 3091 331 3241 478 
Q 3434 672 3638 1063 
L 3763 1063 
L 3397 0 
L 131 0 
L 131 116 
L 281 116 
Q 431 116 566 188 
Q 666 238 702 338 
Q 738 438 738 747 
L 738 3500 
Q 738 3903 656 3997 
Q 544 4122 281 4122 
L 131 4122 
L 131 4238 
L 3397 4238 
L 3444 3309 
L 3322 3309 
Q 3256 3644 3176 3769 
Q 3097 3894 2941 3959 
Q 2816 4006 2500 4006 
L 1338 4006 
z
" transform="scale(0.015625)"/>
        <path id="TimesNewRomanPSMT-6d" d="M 1050 2338 
Q 1363 2650 1419 2697 
Q 1559 2816 1721 2881 
Q 1884 2947 2044 2947 
Q 2313 2947 2506 2790 
Q 2700 2634 2766 2338 
Q 3088 2713 3309 2830 
Q 3531 2947 3766 2947 
Q 3994 2947 4170 2830 
Q 4347 2713 4450 2447 
Q 4519 2266 4519 1878 
L 4519 647 
Q 4519 378 4559 278 
Q 4591 209 4675 161 
Q 4759 113 4950 113 
L 4950 0 
L 3538 0 
L 3538 113 
L 3597 113 
Q 3781 113 3884 184 
Q 3956 234 3988 344 
Q 4000 397 4000 647 
L 4000 1878 
Q 4000 2228 3916 2372 
Q 3794 2572 3525 2572 
Q 3359 2572 3192 2489 
Q 3025 2406 2788 2181 
L 2781 2147 
L 2788 2013 
L 2788 647 
Q 2788 353 2820 281 
Q 2853 209 2943 161 
Q 3034 113 3253 113 
L 3253 0 
L 1806 0 
L 1806 113 
Q 2044 113 2133 169 
Q 2222 225 2256 338 
Q 2272 391 2272 647 
L 2272 1878 
Q 2272 2228 2169 2381 
Q 2031 2581 1784 2581 
Q 1616 2581 1450 2491 
Q 1191 2353 1050 2181 
L 1050 647 
Q 1050 366 1089 281 
Q 1128 197 1204 155 
Q 1281 113 1516 113 
L 1516 0 
L 100 0 
L 100 113 
Q 297 113 375 155 
Q 453 197 493 289 
Q 534 381 534 647 
L 534 1741 
Q 534 2213 506 2350 
Q 484 2453 437 2492 
Q 391 2531 309 2531 
Q 222 2531 100 2484 
L 53 2597 
L 916 2947 
L 1050 2947 
L 1050 2338 
z
" transform="scale(0.015625)"/>
        <path id="TimesNewRomanPSMT-62" d="M 984 2369 
Q 1400 2947 1881 2947 
Q 2322 2947 2650 2570 
Q 2978 2194 2978 1541 
Q 2978 778 2472 313 
Q 2038 -88 1503 -88 
Q 1253 -88 995 3 
Q 738 94 469 275 
L 469 3241 
Q 469 3728 445 3840 
Q 422 3953 372 3993 
Q 322 4034 247 4034 
Q 159 4034 28 3984 
L -16 4094 
L 844 4444 
L 984 4444 
L 984 2369 
z
M 984 2169 
L 984 456 
Q 1144 300 1314 220 
Q 1484 141 1663 141 
Q 1947 141 2192 453 
Q 2438 766 2438 1363 
Q 2438 1913 2192 2208 
Q 1947 2503 1634 2503 
Q 1469 2503 1303 2419 
Q 1178 2356 984 2169 
z
" transform="scale(0.015625)"/>
        <path id="TimesNewRomanPSMT-65" d="M 681 1784 
Q 678 1147 991 784 
Q 1303 422 1725 422 
Q 2006 422 2214 576 
Q 2422 731 2563 1106 
L 2659 1044 
Q 2594 616 2278 264 
Q 1963 -88 1488 -88 
Q 972 -88 605 314 
Q 238 716 238 1394 
Q 238 2128 614 2539 
Q 991 2950 1559 2950 
Q 2041 2950 2350 2633 
Q 2659 2316 2659 1784 
L 681 1784 
z
M 681 1966 
L 2006 1966 
Q 1991 2241 1941 2353 
Q 1863 2528 1708 2628 
Q 1553 2728 1384 2728 
Q 1125 2728 920 2526 
Q 716 2325 681 1966 
z
" transform="scale(0.015625)"/>
        <path id="TimesNewRomanPSMT-72" d="M 1038 2947 
L 1038 2303 
Q 1397 2947 1775 2947 
Q 1947 2947 2059 2842 
Q 2172 2738 2172 2600 
Q 2172 2478 2090 2393 
Q 2009 2309 1897 2309 
Q 1788 2309 1652 2417 
Q 1516 2525 1450 2525 
Q 1394 2525 1328 2463 
Q 1188 2334 1038 2041 
L 1038 669 
Q 1038 431 1097 309 
Q 1138 225 1241 169 
Q 1344 113 1538 113 
L 1538 0 
L 72 0 
L 72 113 
Q 291 113 397 181 
Q 475 231 506 341 
Q 522 394 522 644 
L 522 1753 
Q 522 2253 501 2348 
Q 481 2444 426 2487 
Q 372 2531 291 2531 
Q 194 2531 72 2484 
L 41 2597 
L 906 2947 
L 1038 2947 
z
" transform="scale(0.015625)"/>
       </defs>
       <use xlink:href="#TimesNewRomanPSMT-4c"/>
       <use xlink:href="#TimesNewRomanPSMT-61" x="61.083984"/>
       <use xlink:href="#TimesNewRomanPSMT-73" x="105.46875"/>
       <use xlink:href="#TimesNewRomanPSMT-74" x="144.384766"/>
       <use xlink:href="#TimesNewRomanPSMT-20" x="172.167969"/>
       <use xlink:href="#TimesNewRomanPSMT-45" x="197.167969"/>
       <use xlink:href="#TimesNewRomanPSMT-6d" x="258.251953"/>
       <use xlink:href="#TimesNewRomanPSMT-62" x="336.035156"/>
       <use xlink:href="#TimesNewRomanPSMT-65" x="386.035156"/>
       <use xlink:href="#TimesNewRomanPSMT-72" x="430.419922"/>
      </g>
     </g>
    </g>
    <g id="xtick_3">
     <g id="line2d_3">
      <g>
       <use xlink:href="#m5d28b5e505" x="260.28125" y="252.069529" style="stroke: #000000; stroke-width: 0.8"/>
      </g>
     </g>
     <g id="text_3">
      <!-- Deep Waters -->
      <g transform="translate(215.240316 308.187376) rotate(-45) scale(0.12 -0.12)">
       <defs>
        <path id="TimesNewRomanPSMT-44" d="M 109 0 
L 109 116 
L 269 116 
Q 538 116 650 288 
Q 719 391 719 750 
L 719 3488 
Q 719 3884 631 3984 
Q 509 4122 269 4122 
L 109 4122 
L 109 4238 
L 1834 4238 
Q 2784 4238 3279 4022 
Q 3775 3806 4076 3303 
Q 4378 2800 4378 2141 
Q 4378 1256 3841 663 
Q 3238 0 2003 0 
L 109 0 
z
M 1319 306 
Q 1716 219 1984 219 
Q 2709 219 3187 728 
Q 3666 1238 3666 2109 
Q 3666 2988 3187 3494 
Q 2709 4000 1959 4000 
Q 1678 4000 1319 3909 
L 1319 306 
z
" transform="scale(0.015625)"/>
        <path id="TimesNewRomanPSMT-70" d="M -6 2578 
L 875 2934 
L 994 2934 
L 994 2266 
Q 1216 2644 1439 2795 
Q 1663 2947 1909 2947 
Q 2341 2947 2628 2609 
Q 2981 2197 2981 1534 
Q 2981 794 2556 309 
Q 2206 -88 1675 -88 
Q 1444 -88 1275 -22 
Q 1150 25 994 166 
L 994 -706 
Q 994 -1000 1030 -1079 
Q 1066 -1159 1155 -1206 
Q 1244 -1253 1478 -1253 
L 1478 -1369 
L -22 -1369 
L -22 -1253 
L 56 -1253 
Q 228 -1256 350 -1188 
Q 409 -1153 442 -1076 
Q 475 -1000 475 -688 
L 475 2019 
Q 475 2297 450 2372 
Q 425 2447 370 2484 
Q 316 2522 222 2522 
Q 147 2522 31 2478 
L -6 2578 
z
M 994 2081 
L 994 1013 
Q 994 666 1022 556 
Q 1066 375 1236 237 
Q 1406 100 1666 100 
Q 1978 100 2172 344 
Q 2425 663 2425 1241 
Q 2425 1897 2138 2250 
Q 1938 2494 1663 2494 
Q 1513 2494 1366 2419 
Q 1253 2363 994 2081 
z
" transform="scale(0.015625)"/>
        <path id="TimesNewRomanPSMT-57" d="M 5991 4238 
L 5991 4122 
Q 5825 4122 5722 4062 
Q 5619 4003 5525 3841 
Q 5463 3731 5328 3319 
L 4147 -97 
L 4022 -97 
L 3056 2613 
L 2097 -97 
L 1984 -97 
L 725 3422 
Q 584 3816 547 3888 
Q 484 4006 376 4064 
Q 269 4122 84 4122 
L 84 4238 
L 1653 4238 
L 1653 4122 
L 1578 4122 
Q 1413 4122 1325 4047 
Q 1238 3972 1238 3866 
Q 1238 3756 1375 3363 
L 2209 984 
L 2913 3006 
L 2788 3363 
L 2688 3647 
Q 2622 3803 2541 3922 
Q 2500 3981 2441 4022 
Q 2363 4078 2284 4103 
Q 2225 4122 2097 4122 
L 2097 4238 
L 3747 4238 
L 3747 4122 
L 3634 4122 
Q 3459 4122 3378 4047 
Q 3297 3972 3297 3844 
Q 3297 3684 3438 3288 
L 4250 984 
L 5056 3319 
Q 5194 3706 5194 3856 
Q 5194 3928 5148 3990 
Q 5103 4053 5034 4078 
Q 4916 4122 4725 4122 
L 4725 4238 
L 5991 4238 
z
" transform="scale(0.015625)"/>
       </defs>
       <use xlink:href="#TimesNewRomanPSMT-44"/>
       <use xlink:href="#TimesNewRomanPSMT-65" x="72.216797"/>
       <use xlink:href="#TimesNewRomanPSMT-65" x="116.601562"/>
       <use xlink:href="#TimesNewRomanPSMT-70" x="160.986328"/>
       <use xlink:href="#TimesNewRomanPSMT-20" x="210.986328"/>
       <use xlink:href="#TimesNewRomanPSMT-57" x="234.236328"/>
       <use xlink:href="#TimesNewRomanPSMT-61" x="320.621094"/>
       <use xlink:href="#TimesNewRomanPSMT-74" x="365.005859"/>
       <use xlink:href="#TimesNewRomanPSMT-65" x="392.789062"/>
       <use xlink:href="#TimesNewRomanPSMT-72" x="437.173828"/>
       <use xlink:href="#TimesNewRomanPSMT-73" x="470.474609"/>
      </g>
     </g>
    </g>
    <g id="xtick_4">
     <g id="line2d_4">
      <g>
       <use xlink:href="#m5d28b5e505" x="335.64125" y="252.069529" style="stroke: #000000; stroke-width: 0.8"/>
      </g>
     </g>
     <g id="text_4">
      <!-- Empty Roads -->
      <g transform="translate(287.849228 310.922553) rotate(-45) scale(0.12 -0.12)">
       <defs>
        <path id="TimesNewRomanPSMT-79" d="M 38 2863 
L 1372 2863 
L 1372 2747 
L 1306 2747 
Q 1166 2747 1095 2686 
Q 1025 2625 1025 2534 
Q 1025 2413 1128 2197 
L 1825 753 
L 2466 2334 
Q 2519 2463 2519 2588 
Q 2519 2644 2497 2672 
Q 2472 2706 2419 2726 
Q 2366 2747 2231 2747 
L 2231 2863 
L 3163 2863 
L 3163 2747 
Q 3047 2734 2984 2696 
Q 2922 2659 2847 2556 
Q 2819 2513 2741 2316 
L 1575 -541 
Q 1406 -956 1132 -1168 
Q 859 -1381 606 -1381 
Q 422 -1381 303 -1275 
Q 184 -1169 184 -1031 
Q 184 -900 270 -820 
Q 356 -741 506 -741 
Q 609 -741 788 -809 
Q 913 -856 944 -856 
Q 1038 -856 1148 -759 
Q 1259 -663 1372 -384 
L 1575 113 
L 547 2272 
Q 500 2369 397 2513 
Q 319 2622 269 2659 
Q 197 2709 38 2747 
L 38 2863 
z
" transform="scale(0.015625)"/>
        <path id="TimesNewRomanPSMT-52" d="M 4325 0 
L 3194 0 
L 1759 1981 
Q 1600 1975 1500 1975 
Q 1459 1975 1412 1976 
Q 1366 1978 1316 1981 
L 1316 750 
Q 1316 350 1403 253 
Q 1522 116 1759 116 
L 1925 116 
L 1925 0 
L 109 0 
L 109 116 
L 269 116 
Q 538 116 653 291 
Q 719 388 719 750 
L 719 3488 
Q 719 3888 631 3984 
Q 509 4122 269 4122 
L 109 4122 
L 109 4238 
L 1653 4238 
Q 2328 4238 2648 4139 
Q 2969 4041 3192 3777 
Q 3416 3513 3416 3147 
Q 3416 2756 3161 2468 
Q 2906 2181 2372 2063 
L 3247 847 
Q 3547 428 3762 290 
Q 3978 153 4325 116 
L 4325 0 
z
M 1316 2178 
Q 1375 2178 1419 2176 
Q 1463 2175 1491 2175 
Q 2097 2175 2405 2437 
Q 2713 2700 2713 3106 
Q 2713 3503 2464 3751 
Q 2216 4000 1806 4000 
Q 1625 4000 1316 3941 
L 1316 2178 
z
" transform="scale(0.015625)"/>
        <path id="TimesNewRomanPSMT-6f" d="M 1600 2947 
Q 2250 2947 2644 2453 
Q 2978 2031 2978 1484 
Q 2978 1100 2793 706 
Q 2609 313 2286 112 
Q 1963 -88 1566 -88 
Q 919 -88 538 428 
Q 216 863 216 1403 
Q 216 1797 411 2186 
Q 606 2575 925 2761 
Q 1244 2947 1600 2947 
z
M 1503 2744 
Q 1338 2744 1170 2645 
Q 1003 2547 900 2300 
Q 797 2053 797 1666 
Q 797 1041 1045 587 
Q 1294 134 1700 134 
Q 2003 134 2200 384 
Q 2397 634 2397 1244 
Q 2397 2006 2069 2444 
Q 1847 2744 1503 2744 
z
" transform="scale(0.015625)"/>
        <path id="TimesNewRomanPSMT-64" d="M 2222 322 
Q 2013 103 1813 7 
Q 1613 -88 1381 -88 
Q 913 -88 563 304 
Q 213 697 213 1313 
Q 213 1928 600 2439 
Q 988 2950 1597 2950 
Q 1975 2950 2222 2709 
L 2222 3238 
Q 2222 3728 2198 3840 
Q 2175 3953 2125 3993 
Q 2075 4034 2000 4034 
Q 1919 4034 1784 3984 
L 1744 4094 
L 2597 4444 
L 2738 4444 
L 2738 1134 
Q 2738 631 2761 520 
Q 2784 409 2836 365 
Q 2888 322 2956 322 
Q 3041 322 3181 375 
L 3216 266 
L 2366 -88 
L 2222 -88 
L 2222 322 
z
M 2222 541 
L 2222 2016 
Q 2203 2228 2109 2403 
Q 2016 2578 1861 2667 
Q 1706 2756 1559 2756 
Q 1284 2756 1069 2509 
Q 784 2184 784 1559 
Q 784 928 1059 592 
Q 1334 256 1672 256 
Q 1956 256 2222 541 
z
" transform="scale(0.015625)"/>
       </defs>
       <use xlink:href="#TimesNewRomanPSMT-45"/>
       <use xlink:href="#TimesNewRomanPSMT-6d" x="61.083984"/>
       <use xlink:href="#TimesNewRomanPSMT-70" x="138.867188"/>
       <use xlink:href="#TimesNewRomanPSMT-74" x="188.867188"/>
       <use xlink:href="#TimesNewRomanPSMT-79" x="216.650391"/>
       <use xlink:href="#TimesNewRomanPSMT-20" x="266.650391"/>
       <use xlink:href="#TimesNewRomanPSMT-52" x="291.650391"/>
       <use xlink:href="#TimesNewRomanPSMT-6f" x="358.349609"/>
       <use xlink:href="#TimesNewRomanPSMT-61" x="408.349609"/>
       <use xlink:href="#TimesNewRomanPSMT-64" x="452.734375"/>
       <use xlink:href="#TimesNewRomanPSMT-73" x="502.734375"/>
      </g>
     </g>
    </g>
    <g id="xtick_5">
     <g id="line2d_5">
      <g>
       <use xlink:href="#m5d28b5e505" x="411.00125" y="252.069529" style="stroke: #000000; stroke-width: 0.8"/>
      </g>
     </g>
     <g id="text_5">
      <!-- Starlight -->
      <g transform="translate(379.94512 294.186662) rotate(-45) scale(0.12 -0.12)">
       <defs>
        <path id="TimesNewRomanPSMT-53" d="M 2934 4334 
L 2934 2869 
L 2819 2869 
Q 2763 3291 2617 3541 
Q 2472 3791 2203 3937 
Q 1934 4084 1647 4084 
Q 1322 4084 1109 3886 
Q 897 3688 897 3434 
Q 897 3241 1031 3081 
Q 1225 2847 1953 2456 
Q 2547 2138 2764 1967 
Q 2981 1797 3098 1565 
Q 3216 1334 3216 1081 
Q 3216 600 2842 251 
Q 2469 -97 1881 -97 
Q 1697 -97 1534 -69 
Q 1438 -53 1133 45 
Q 828 144 747 144 
Q 669 144 623 97 
Q 578 50 556 -97 
L 441 -97 
L 441 1356 
L 556 1356 
Q 638 900 775 673 
Q 913 447 1195 297 
Q 1478 147 1816 147 
Q 2206 147 2432 353 
Q 2659 559 2659 841 
Q 2659 997 2573 1156 
Q 2488 1316 2306 1453 
Q 2184 1547 1640 1851 
Q 1097 2156 867 2337 
Q 638 2519 519 2737 
Q 400 2956 400 3219 
Q 400 3675 750 4004 
Q 1100 4334 1641 4334 
Q 1978 4334 2356 4169 
Q 2531 4091 2603 4091 
Q 2684 4091 2736 4139 
Q 2788 4188 2819 4334 
L 2934 4334 
z
" transform="scale(0.015625)"/>
       </defs>
       <use xlink:href="#TimesNewRomanPSMT-53"/>
       <use xlink:href="#TimesNewRomanPSMT-74" x="55.615234"/>
       <use xlink:href="#TimesNewRomanPSMT-61" x="83.398438"/>
       <use xlink:href="#TimesNewRomanPSMT-72" x="127.783203"/>
       <use xlink:href="#TimesNewRomanPSMT-6c" x="161.083984"/>
       <use xlink:href="#TimesNewRomanPSMT-69" x="188.867188"/>
       <use xlink:href="#TimesNewRomanPSMT-67" x="216.650391"/>
       <use xlink:href="#TimesNewRomanPSMT-68" x="266.650391"/>
       <use xlink:href="#TimesNewRomanPSMT-74" x="316.650391"/>
      </g>
     </g>
    </g>
   </g>
   <g id="matplotlib.axis_2">
    <g id="ytick_1">
     <g id="line2d_6">
      <defs>
       <path id="m1c0b65ed27" d="M 0 0 
L -3.5 0 
" style="stroke: #000000; stroke-width: 0.8"/>
      </defs>
      <g>
       <use xlink:href="#m1c0b65ed27" x="71.88125" y="207.854697" style="stroke: #000000; stroke-width: 0.8"/>
      </g>
     </g>
     <g id="text_6">
      <!-- 500 -->
      <g transform="translate(49.88125 211.326572) scale(0.1 -0.1)">
       <defs>
        <path id="TimesNewRomanPSMT-35" d="M 2778 4238 
L 2534 3706 
L 1259 3706 
L 981 3138 
Q 1809 3016 2294 2522 
Q 2709 2097 2709 1522 
Q 2709 1188 2573 903 
Q 2438 619 2231 419 
Q 2025 219 1772 97 
Q 1413 -75 1034 -75 
Q 653 -75 479 54 
Q 306 184 306 341 
Q 306 428 378 495 
Q 450 563 559 563 
Q 641 563 702 538 
Q 763 513 909 409 
Q 1144 247 1384 247 
Q 1750 247 2026 523 
Q 2303 800 2303 1197 
Q 2303 1581 2056 1914 
Q 1809 2247 1375 2428 
Q 1034 2569 447 2591 
L 1259 4238 
L 2778 4238 
z
" transform="scale(0.015625)"/>
        <path id="TimesNewRomanPSMT-30" d="M 231 2094 
Q 231 2819 450 3342 
Q 669 3866 1031 4122 
Q 1313 4325 1613 4325 
Q 2100 4325 2488 3828 
Q 2972 3213 2972 2159 
Q 2972 1422 2759 906 
Q 2547 391 2217 158 
Q 1888 -75 1581 -75 
Q 975 -75 572 641 
Q 231 1244 231 2094 
z
M 844 2016 
Q 844 1141 1059 588 
Q 1238 122 1591 122 
Q 1759 122 1940 273 
Q 2122 425 2216 781 
Q 2359 1319 2359 2297 
Q 2359 3022 2209 3506 
Q 2097 3866 1919 4016 
Q 1791 4119 1609 4119 
Q 1397 4119 1231 3928 
Q 1006 3669 925 3112 
Q 844 2556 844 2016 
z
" transform="scale(0.015625)"/>
       </defs>
       <use xlink:href="#TimesNewRomanPSMT-35"/>
       <use xlink:href="#TimesNewRomanPSMT-30" x="50"/>
       <use xlink:href="#TimesNewRomanPSMT-30" x="100"/>
      </g>
     </g>
    </g>
    <g id="ytick_2">
     <g id="line2d_7">
      <g>
       <use xlink:href="#m1c0b65ed27" x="71.88125" y="162.598984" style="stroke: #000000; stroke-width: 0.8"/>
      </g>
     </g>
     <g id="text_7">
      <!-- 1000 -->
      <g transform="translate(44.88125 166.070859) scale(0.1 -0.1)">
       <defs>
        <path id="TimesNewRomanPSMT-31" d="M 750 3822 
L 1781 4325 
L 1884 4325 
L 1884 747 
Q 1884 391 1914 303 
Q 1944 216 2037 169 
Q 2131 122 2419 116 
L 2419 0 
L 825 0 
L 825 116 
Q 1125 122 1212 167 
Q 1300 213 1334 289 
Q 1369 366 1369 747 
L 1369 3034 
Q 1369 3497 1338 3628 
Q 1316 3728 1258 3775 
Q 1200 3822 1119 3822 
Q 1003 3822 797 3725 
L 750 3822 
z
" transform="scale(0.015625)"/>
       </defs>
       <use xlink:href="#TimesNewRomanPSMT-31"/>
       <use xlink:href="#TimesNewRomanPSMT-30" x="50"/>
       <use xlink:href="#TimesNewRomanPSMT-30" x="100"/>
       <use xlink:href="#TimesNewRomanPSMT-30" x="150"/>
      </g>
     </g>
    </g>
    <g id="ytick_3">
     <g id="line2d_8">
      <g>
       <use xlink:href="#m1c0b65ed27" x="71.88125" y="117.343271" style="stroke: #000000; stroke-width: 0.8"/>
      </g>
     </g>
     <g id="text_8">
      <!-- 1500 -->
      <g transform="translate(44.88125 120.815146) scale(0.1 -0.1)">
       <use xlink:href="#TimesNewRomanPSMT-31"/>
       <use xlink:href="#TimesNewRomanPSMT-35" x="50"/>
       <use xlink:href="#TimesNewRomanPSMT-30" x="100"/>
       <use xlink:href="#TimesNewRomanPSMT-30" x="150"/>
      </g>
     </g>
    </g>
    <g id="ytick_4">
     <g id="line2d_9">
      <g>
       <use xlink:href="#m1c0b65ed27" x="71.88125" y="72.087558" style="stroke: #000000; stroke-width: 0.8"/>
      </g>
     </g>
     <g id="text_9">
      <!-- 2000 -->
      <g transform="translate(44.88125 75.559433) scale(0.1 -0.1)">
       <defs>
        <path id="TimesNewRomanPSMT-32" d="M 2934 816 
L 2638 0 
L 138 0 
L 138 116 
Q 1241 1122 1691 1759 
Q 2141 2397 2141 2925 
Q 2141 3328 1894 3587 
Q 1647 3847 1303 3847 
Q 991 3847 742 3664 
Q 494 3481 375 3128 
L 259 3128 
Q 338 3706 661 4015 
Q 984 4325 1469 4325 
Q 1984 4325 2329 3994 
Q 2675 3663 2675 3213 
Q 2675 2891 2525 2569 
Q 2294 2063 1775 1497 
Q 997 647 803 472 
L 1909 472 
Q 2247 472 2383 497 
Q 2519 522 2628 598 
Q 2738 675 2819 816 
L 2934 816 
z
" transform="scale(0.015625)"/>
       </defs>
       <use xlink:href="#TimesNewRomanPSMT-32"/>
       <use xlink:href="#TimesNewRomanPSMT-30" x="50"/>
       <use xlink:href="#TimesNewRomanPSMT-30" x="100"/>
       <use xlink:href="#TimesNewRomanPSMT-30" x="150"/>
      </g>
     </g>
    </g>
    <g id="text_10">
     <!-- million USD -->
     <g transform="translate(37.886563 177.033983) rotate(-90) scale(0.14 -0.14)">
      <defs>
       <path id="TimesNewRomanPSMT-6e" d="M 1034 2341 
Q 1538 2947 1994 2947 
Q 2228 2947 2397 2830 
Q 2566 2713 2666 2444 
Q 2734 2256 2734 1869 
L 2734 647 
Q 2734 375 2778 278 
Q 2813 200 2889 156 
Q 2966 113 3172 113 
L 3172 0 
L 1756 0 
L 1756 113 
L 1816 113 
Q 2016 113 2095 173 
Q 2175 234 2206 353 
Q 2219 400 2219 647 
L 2219 1819 
Q 2219 2209 2117 2386 
Q 2016 2563 1775 2563 
Q 1403 2563 1034 2156 
L 1034 647 
Q 1034 356 1069 288 
Q 1113 197 1189 155 
Q 1266 113 1500 113 
L 1500 0 
L 84 0 
L 84 113 
L 147 113 
Q 366 113 442 223 
Q 519 334 519 647 
L 519 1709 
Q 519 2225 495 2337 
Q 472 2450 423 2490 
Q 375 2531 294 2531 
Q 206 2531 84 2484 
L 38 2597 
L 900 2947 
L 1034 2947 
L 1034 2341 
z
" transform="scale(0.015625)"/>
       <path id="TimesNewRomanPSMT-55" d="M 3053 4122 
L 3053 4238 
L 4553 4238 
L 4553 4122 
L 4394 4122 
Q 4144 4122 4009 3913 
Q 3944 3816 3944 3463 
L 3944 1744 
Q 3944 1106 3817 754 
Q 3691 403 3320 151 
Q 2950 -100 2313 -100 
Q 1619 -100 1259 140 
Q 900 381 750 788 
Q 650 1066 650 1831 
L 650 3488 
Q 650 3878 542 4000 
Q 434 4122 194 4122 
L 34 4122 
L 34 4238 
L 1866 4238 
L 1866 4122 
L 1703 4122 
Q 1441 4122 1328 3956 
Q 1250 3844 1250 3488 
L 1250 1641 
Q 1250 1394 1295 1075 
Q 1341 756 1459 578 
Q 1578 400 1801 284 
Q 2025 169 2350 169 
Q 2766 169 3094 350 
Q 3422 531 3542 814 
Q 3663 1097 3663 1772 
L 3663 3488 
Q 3663 3884 3575 3984 
Q 3453 4122 3213 4122 
L 3053 4122 
z
" transform="scale(0.015625)"/>
      </defs>
      <use xlink:href="#TimesNewRomanPSMT-6d"/>
      <use xlink:href="#TimesNewRomanPSMT-69" x="77.783203"/>
      <use xlink:href="#TimesNewRomanPSMT-6c" x="105.566406"/>
      <use xlink:href="#TimesNewRomanPSMT-6c" x="133.349609"/>
      <use xlink:href="#TimesNewRomanPSMT-69" x="161.132812"/>
      <use xlink:href="#TimesNewRomanPSMT-6f" x="188.916016"/>
      <use xlink:href="#TimesNewRomanPSMT-6e" x="238.916016"/>
      <use xlink:href="#TimesNewRomanPSMT-20" x="288.916016"/>
      <use xlink:href="#TimesNewRomanPSMT-55" x="313.916016"/>
      <use xlink:href="#TimesNewRomanPSMT-53" x="386.132812"/>
      <use xlink:href="#TimesNewRomanPSMT-44" x="441.748047"/>
     </g>
    </g>
   </g>
   <g id="patch_3">
    <path d="M 105.03965 220.345274 
L 114.08285 220.345274 
L 114.08285 185.136329 
L 105.03965 185.136329 
L 105.03965 220.345274 
L 105.03965 220.345274 
z
" clip-path="url(#p1bcc32897c)" style="fill: none; stroke: #000000; stroke-linejoin: miter"/>
   </g>
   <g id="line2d_10">
    <path d="M 109.56125 220.345274 
L 109.56125 241.977505 
" clip-path="url(#p1bcc32897c)" style="fill: none; stroke: #000000; stroke-linecap: square"/>
   </g>
   <g id="line2d_11">
    <path d="M 109.56125 185.136329 
L 109.56125 140.514196 
" clip-path="url(#p1bcc32897c)" style="fill: none; stroke: #000000; stroke-linecap: square"/>
   </g>
   <g id="line2d_12">
    <path d="M 107.30045 241.977505 
L 111.82205 241.977505 
" clip-path="url(#p1bcc32897c)" style="fill: none; stroke: #000000; stroke-linecap: square"/>
   </g>
   <g id="line2d_13">
    <path d="M 107.30045 140.514196 
L 111.82205 140.514196 
" clip-path="url(#p1bcc32897c)" style="fill: none; stroke: #000000; stroke-linecap: square"/>
   </g>
   <g id="patch_4">
    <path d="M 180.39965 210.637924 
L 189.44285 210.637924 
L 189.44285 166.309953 
L 180.39965 166.309953 
L 180.39965 210.637924 
L 180.39965 210.637924 
z
" clip-path="url(#p1bcc32897c)" style="fill: none; stroke: #000000; stroke-linejoin: miter"/>
   </g>
   <g id="line2d_14">
    <path d="M 184.92125 210.637924 
L 184.92125 239.08114 
" clip-path="url(#p1bcc32897c)" style="fill: none; stroke: #000000; stroke-linecap: square"/>
   </g>
   <g id="line2d_15">
    <path d="M 184.92125 166.309953 
L 184.92125 103.223488 
" clip-path="url(#p1bcc32897c)" style="fill: none; stroke: #000000; stroke-linecap: square"/>
   </g>
   <g id="line2d_16">
    <path d="M 182.66045 239.08114 
L 187.18205 239.08114 
" clip-path="url(#p1bcc32897c)" style="fill: none; stroke: #000000; stroke-linecap: square"/>
   </g>
   <g id="line2d_17">
    <path d="M 182.66045 103.223488 
L 187.18205 103.223488 
" clip-path="url(#p1bcc32897c)" style="fill: none; stroke: #000000; stroke-linecap: square"/>
   </g>
   <g id="patch_5">
    <path d="M 255.75965 218.851836 
L 264.80285 218.851836 
L 264.80285 183.846542 
L 255.75965 183.846542 
L 255.75965 218.851836 
L 255.75965 218.851836 
z
" clip-path="url(#p1bcc32897c)" style="fill: none; stroke: #000000; stroke-linejoin: miter"/>
   </g>
   <g id="line2d_18">
    <path d="M 260.28125 218.851836 
L 260.28125 236.54682 
" clip-path="url(#p1bcc32897c)" style="fill: none; stroke: #000000; stroke-linecap: square"/>
   </g>
   <g id="line2d_19">
    <path d="M 260.28125 183.846542 
L 260.28125 132.730213 
" clip-path="url(#p1bcc32897c)" style="fill: none; stroke: #000000; stroke-linecap: square"/>
   </g>
   <g id="line2d_20">
    <path d="M 258.02045 236.54682 
L 262.54205 236.54682 
" clip-path="url(#p1bcc32897c)" style="fill: none; stroke: #000000; stroke-linecap: square"/>
   </g>
   <g id="line2d_21">
    <path d="M 258.02045 132.730213 
L 262.54205 132.730213 
" clip-path="url(#p1bcc32897c)" style="fill: none; stroke: #000000; stroke-linecap: square"/>
   </g>
   <g id="patch_6">
    <path d="M 331.11965 225.685448 
L 340.16285 225.685448 
L 340.16285 200.86269 
L 331.11965 200.86269 
L 331.11965 225.685448 
L 331.11965 225.685448 
z
" clip-path="url(#p1bcc32897c)" style="fill: none; stroke: #000000; stroke-linejoin: miter"/>
   </g>
   <g id="line2d_22">
    <path d="M 335.64125 225.685448 
L 335.64125 240.619834 
" clip-path="url(#p1bcc32897c)" style="fill: none; stroke: #000000; stroke-linecap: square"/>
   </g>
   <g id="line2d_23">
    <path d="M 335.64125 200.86269 
L 335.64125 169.115807 
" clip-path="url(#p1bcc32897c)" style="fill: none; stroke: #000000; stroke-linecap: square"/>
   </g>
   <g id="line2d_24">
    <path d="M 333.38045 240.619834 
L 337.90205 240.619834 
" clip-path="url(#p1bcc32897c)" style="fill: none; stroke: #000000; stroke-linecap: square"/>
   </g>
   <g id="line2d_25">
    <path d="M 333.38045 169.115807 
L 337.90205 169.115807 
" clip-path="url(#p1bcc32897c)" style="fill: none; stroke: #000000; stroke-linecap: square"/>
   </g>
   <g id="patch_7">
    <path d="M 406.47965 209.167113 
L 415.52285 209.167113 
L 415.52285 170.111433 
L 406.47965 170.111433 
L 406.47965 209.167113 
L 406.47965 209.167113 
z
" clip-path="url(#p1bcc32897c)" style="fill: none; stroke: #000000; stroke-linejoin: miter"/>
   </g>
   <g id="line2d_26">
    <path d="M 411.00125 209.167113 
L 411.00125 237.723468 
" clip-path="url(#p1bcc32897c)" style="fill: none; stroke: #000000; stroke-linecap: square"/>
   </g>
   <g id="line2d_27">
    <path d="M 411.00125 170.111433 
L 411.00125 113.45128 
" clip-path="url(#p1bcc32897c)" style="fill: none; stroke: #000000; stroke-linecap: square"/>
   </g>
   <g id="line2d_28">
    <path d="M 408.74045 237.723468 
L 413.26205 237.723468 
" clip-path="url(#p1bcc32897c)" style="fill: none; stroke: #000000; stroke-linecap: square"/>
   </g>
   <g id="line2d_29">
    <path d="M 408.74045 113.45128 
L 413.26205 113.45128 
" clip-path="url(#p1bcc32897c)" style="fill: none; stroke: #000000; stroke-linecap: square"/>
   </g>
   <g id="line2d_30">
    <path d="M 105.03965 202.876569 
L 114.08285 202.876569 
" clip-path="url(#p1bcc32897c)" style="fill: none; stroke: #000000; stroke-width: 1.5; stroke-linecap: square"/>
   </g>
   <g id="line2d_31">
    <path d="M 180.39965 191.426874 
L 189.44285 191.426874 
" clip-path="url(#p1bcc32897c)" style="fill: none; stroke: #000000; stroke-width: 1.5; stroke-linecap: square"/>
   </g>
   <g id="line2d_32">
    <path d="M 255.75965 204.86782 
L 264.80285 204.86782 
" clip-path="url(#p1bcc32897c)" style="fill: none; stroke: #000000; stroke-width: 1.5; stroke-linecap: square"/>
   </g>
   <g id="line2d_33">
    <path d="M 331.11965 218.127744 
L 340.16285 218.127744 
" clip-path="url(#p1bcc32897c)" style="fill: none; stroke: #000000; stroke-width: 1.5; stroke-linecap: square"/>
   </g>
   <g id="line2d_34">
    <path d="M 406.47965 196.269235 
L 415.52285 196.269235 
" clip-path="url(#p1bcc32897c)" style="fill: none; stroke: #000000; stroke-width: 1.5; stroke-linecap: square"/>
   </g>
   <g id="patch_8">
    <path d="M 71.88125 252.069529 
L 71.88125 30.045 
" style="fill: none; stroke: #000000; stroke-linejoin: miter; stroke-linecap: square"/>
   </g>
   <g id="patch_9">
    <path d="M 448.68125 252.069529 
L 448.68125 30.045 
" style="fill: none; stroke: #000000; stroke-linejoin: miter; stroke-linecap: square"/>
   </g>
   <g id="patch_10">
    <path d="M 71.88125 252.069529 
L 448.68125 252.069529 
" style="fill: none; stroke: #000000; stroke-linejoin: miter; stroke-linecap: square"/>
   </g>
   <g id="patch_11">
    <path d="M 71.88125 30.045 
L 448.68125 30.045 
" style="fill: none; stroke: #000000; stroke-linejoin: miter; stroke-linecap: square"/>
   </g>
   <g id="text_11">
    <!-- Data on the projected box office revenue of different movies (million USD) -->
    <g transform="translate(7.2 18.045) scale(0.16 -0.16)">
     <defs>
      <path id="TimesNewRomanPS-BoldMT-44" d="M 84 0 
L 84 116 
L 225 116 
Q 409 116 507 173 
Q 606 231 653 331 
Q 681 397 681 725 
L 681 3513 
Q 681 3838 647 3919 
Q 613 4000 508 4061 
Q 403 4122 225 4122 
L 84 4122 
L 84 4238 
L 1981 4238 
Q 2741 4238 3203 4031 
Q 3769 3778 4061 3265 
Q 4353 2753 4353 2106 
Q 4353 1659 4209 1282 
Q 4066 906 3837 661 
Q 3609 416 3311 267 
Q 3013 119 2581 38 
Q 2391 0 1981 0 
L 84 0 
z
M 1700 3997 
L 1700 691 
Q 1700 428 1725 368 
Q 1750 309 1809 278 
Q 1894 231 2053 231 
Q 2575 231 2850 588 
Q 3225 1069 3225 2081 
Q 3225 2897 2969 3384 
Q 2766 3766 2447 3903 
Q 2222 4000 1700 3997 
z
" transform="scale(0.015625)"/>
      <path id="TimesNewRomanPS-BoldMT-61" d="M 1828 431 
Q 1294 -41 869 -41 
Q 619 -41 453 123 
Q 288 288 288 534 
Q 288 869 575 1136 
Q 863 1403 1828 1847 
L 1828 2141 
Q 1828 2472 1792 2558 
Q 1756 2644 1656 2708 
Q 1556 2772 1431 2772 
Q 1228 2772 1097 2681 
Q 1016 2625 1016 2550 
Q 1016 2484 1103 2388 
Q 1222 2253 1222 2128 
Q 1222 1975 1108 1867 
Q 994 1759 809 1759 
Q 613 1759 480 1878 
Q 347 1997 347 2156 
Q 347 2381 525 2586 
Q 703 2791 1022 2900 
Q 1341 3009 1684 3009 
Q 2100 3009 2342 2832 
Q 2584 2656 2656 2450 
Q 2700 2319 2700 1847 
L 2700 713 
Q 2700 513 2715 461 
Q 2731 409 2762 384 
Q 2794 359 2834 359 
Q 2916 359 3000 475 
L 3094 400 
Q 2938 169 2770 64 
Q 2603 -41 2391 -41 
Q 2141 -41 2000 76 
Q 1859 194 1828 431 
z
M 1828 659 
L 1828 1638 
Q 1450 1416 1266 1163 
Q 1144 994 1144 822 
Q 1144 678 1247 569 
Q 1325 484 1466 484 
Q 1622 484 1828 659 
z
" transform="scale(0.015625)"/>
      <path id="TimesNewRomanPS-BoldMT-74" d="M 1375 3991 
L 1375 2922 
L 2069 2922 
L 2069 2613 
L 1375 2613 
L 1375 809 
Q 1375 556 1398 482 
Q 1422 409 1481 364 
Q 1541 319 1591 319 
Q 1794 319 1975 628 
L 2069 559 
Q 1816 -41 1247 -41 
Q 969 -41 776 114 
Q 584 269 531 459 
Q 500 566 500 1034 
L 500 2613 
L 119 2613 
L 119 2722 
Q 513 3000 789 3306 
Q 1066 3613 1272 3991 
L 1375 3991 
z
" transform="scale(0.015625)"/>
      <path id="TimesNewRomanPS-BoldMT-20" transform="scale(0.015625)"/>
      <path id="TimesNewRomanPS-BoldMT-6f" d="M 1594 3009 
Q 1975 3009 2303 2812 
Q 2631 2616 2801 2253 
Q 2972 1891 2972 1459 
Q 2972 838 2656 419 
Q 2275 -88 1603 -88 
Q 944 -88 587 375 
Q 231 838 231 1447 
Q 231 2075 595 2542 
Q 959 3009 1594 3009 
z
M 1606 2788 
Q 1447 2788 1333 2667 
Q 1219 2547 1183 2192 
Q 1147 1838 1147 1206 
Q 1147 872 1191 581 
Q 1225 359 1337 243 
Q 1450 128 1594 128 
Q 1734 128 1828 206 
Q 1950 313 1991 503 
Q 2053 800 2053 1703 
Q 2053 2234 1993 2432 
Q 1934 2631 1819 2722 
Q 1738 2788 1606 2788 
z
" transform="scale(0.015625)"/>
      <path id="TimesNewRomanPS-BoldMT-6e" d="M 1409 2922 
L 1409 2544 
Q 1634 2788 1840 2898 
Q 2047 3009 2284 3009 
Q 2569 3009 2756 2851 
Q 2944 2694 3006 2459 
Q 3056 2281 3056 1775 
L 3056 638 
Q 3056 300 3117 217 
Q 3178 134 3372 113 
L 3372 0 
L 1894 0 
L 1894 113 
Q 2059 134 2131 250 
Q 2181 328 2181 638 
L 2181 1938 
Q 2181 2297 2153 2390 
Q 2125 2484 2058 2536 
Q 1991 2588 1909 2588 
Q 1641 2588 1409 2203 
L 1409 638 
Q 1409 309 1470 221 
Q 1531 134 1697 113 
L 1697 0 
L 219 0 
L 219 113 
Q 403 131 481 231 
Q 534 300 534 638 
L 534 2288 
Q 534 2619 473 2700 
Q 413 2781 219 2806 
L 219 2922 
L 1409 2922 
z
" transform="scale(0.015625)"/>
      <path id="TimesNewRomanPS-BoldMT-68" d="M 1409 4238 
L 1409 2547 
Q 1650 2800 1850 2904 
Q 2050 3009 2266 3009 
Q 2541 3009 2736 2853 
Q 2931 2697 2995 2486 
Q 3059 2275 3059 1775 
L 3059 634 
Q 3059 300 3121 217 
Q 3184 134 3375 113 
L 3375 0 
L 1894 0 
L 1894 113 
Q 2050 134 2128 238 
Q 2184 319 2184 634 
L 2184 1938 
Q 2184 2300 2156 2392 
Q 2128 2484 2061 2536 
Q 1994 2588 1909 2588 
Q 1784 2588 1665 2502 
Q 1547 2416 1409 2200 
L 1409 634 
Q 1409 322 1456 244 
Q 1516 138 1700 113 
L 1700 0 
L 219 0 
L 219 113 
Q 403 131 481 231 
Q 534 300 534 634 
L 534 3603 
Q 534 3934 473 4015 
Q 413 4097 219 4122 
L 219 4238 
L 1409 4238 
z
" transform="scale(0.015625)"/>
      <path id="TimesNewRomanPS-BoldMT-65" d="M 2691 1566 
L 1088 1566 
Q 1116 984 1397 647 
Q 1613 388 1916 388 
Q 2103 388 2256 492 
Q 2409 597 2584 869 
L 2691 800 
Q 2453 316 2165 114 
Q 1878 -88 1500 -88 
Q 850 -88 516 413 
Q 247 816 247 1413 
Q 247 2144 642 2576 
Q 1038 3009 1569 3009 
Q 2013 3009 2339 2645 
Q 2666 2281 2691 1566 
z
M 1922 1775 
Q 1922 2278 1867 2465 
Q 1813 2653 1697 2750 
Q 1631 2806 1522 2806 
Q 1359 2806 1256 2647 
Q 1072 2369 1072 1884 
L 1072 1775 
L 1922 1775 
z
" transform="scale(0.015625)"/>
      <path id="TimesNewRomanPS-BoldMT-70" d="M 1347 297 
L 1347 -791 
Q 1347 -1016 1383 -1097 
Q 1419 -1178 1494 -1215 
Q 1569 -1253 1788 -1253 
L 1788 -1369 
L 122 -1369 
L 122 -1253 
Q 316 -1247 409 -1144 
Q 472 -1072 472 -772 
L 472 2313 
Q 472 2622 400 2708 
Q 328 2794 122 2806 
L 122 2922 
L 1347 2922 
L 1347 2538 
Q 1500 2763 1659 2863 
Q 1888 3009 2156 3009 
Q 2478 3009 2742 2806 
Q 3006 2603 3143 2245 
Q 3281 1888 3281 1475 
Q 3281 1031 3139 664 
Q 2997 297 2726 104 
Q 2456 -88 2125 -88 
Q 1884 -88 1675 19 
Q 1519 100 1347 297 
z
M 1347 613 
Q 1616 231 1922 231 
Q 2091 231 2200 409 
Q 2363 672 2363 1409 
Q 2363 2166 2184 2444 
Q 2066 2628 1866 2628 
Q 1550 2628 1347 2172 
L 1347 613 
z
" transform="scale(0.015625)"/>
      <path id="TimesNewRomanPS-BoldMT-72" d="M 1428 2922 
L 1428 2259 
Q 1719 2713 1937 2861 
Q 2156 3009 2359 3009 
Q 2534 3009 2639 2901 
Q 2744 2794 2744 2597 
Q 2744 2388 2642 2272 
Q 2541 2156 2397 2156 
Q 2231 2156 2109 2262 
Q 1988 2369 1966 2381 
Q 1934 2400 1894 2400 
Q 1803 2400 1722 2331 
Q 1594 2225 1528 2028 
Q 1428 1725 1428 1359 
L 1428 688 
L 1431 513 
Q 1431 334 1453 284 
Q 1491 200 1564 161 
Q 1638 122 1813 113 
L 1813 0 
L 234 0 
L 234 113 
Q 425 128 492 217 
Q 559 306 559 688 
L 559 2303 
Q 559 2553 534 2622 
Q 503 2709 443 2750 
Q 384 2791 234 2806 
L 234 2922 
L 1428 2922 
z
" transform="scale(0.015625)"/>
      <path id="TimesNewRomanPS-BoldMT-6a" d="M 1113 4334 
Q 1313 4334 1452 4195 
Q 1591 4056 1591 3859 
Q 1591 3659 1450 3518 
Q 1309 3378 1113 3378 
Q 916 3378 775 3518 
Q 634 3659 634 3859 
Q 634 4056 773 4195 
Q 913 4334 1113 4334 
z
M 1550 2922 
L 1550 -103 
Q 1550 -528 1497 -731 
Q 1419 -1025 1186 -1203 
Q 953 -1381 572 -1381 
Q 188 -1381 5 -1225 
Q -178 -1069 -178 -847 
Q -178 -709 -82 -607 
Q 13 -506 141 -506 
Q 259 -506 328 -576 
Q 397 -647 397 -788 
Q 397 -825 394 -875 
Q 388 -941 388 -966 
Q 388 -1075 438 -1128 
Q 488 -1181 566 -1181 
Q 638 -1181 689 -1118 
Q 741 -1056 741 -941 
Q 741 -878 722 -688 
Q 691 -341 688 -269 
L 678 472 
L 678 2278 
L 681 2441 
Q 681 2638 614 2711 
Q 547 2784 331 2806 
L 331 2922 
L 1550 2922 
z
" transform="scale(0.015625)"/>
      <path id="TimesNewRomanPS-BoldMT-63" d="M 2600 753 
L 2697 678 
Q 2491 291 2183 101 
Q 1875 -88 1528 -88 
Q 944 -88 594 353 
Q 244 794 244 1413 
Q 244 2009 563 2463 
Q 947 3009 1622 3009 
Q 2075 3009 2342 2781 
Q 2609 2553 2609 2272 
Q 2609 2094 2501 1987 
Q 2394 1881 2219 1881 
Q 2034 1881 1914 2003 
Q 1794 2125 1766 2438 
Q 1747 2634 1675 2713 
Q 1603 2791 1506 2791 
Q 1356 2791 1250 2631 
Q 1088 2391 1088 1894 
Q 1088 1481 1219 1104 
Q 1350 728 1578 544 
Q 1750 409 1984 409 
Q 2138 409 2275 481 
Q 2413 553 2600 753 
z
" transform="scale(0.015625)"/>
      <path id="TimesNewRomanPS-BoldMT-64" d="M 3056 4238 
L 3056 875 
Q 3056 534 3075 472 
Q 3100 369 3170 319 
Q 3241 269 3416 256 
L 3416 153 
L 2181 -88 
L 2181 375 
Q 1959 106 1786 9 
Q 1613 -88 1394 -88 
Q 834 -88 509 413 
Q 247 819 247 1409 
Q 247 1881 409 2254 
Q 572 2628 855 2818 
Q 1138 3009 1463 3009 
Q 1672 3009 1834 2928 
Q 1997 2847 2181 2644 
L 2181 3525 
Q 2181 3859 2153 3928 
Q 2116 4019 2041 4062 
Q 1966 4106 1759 4106 
L 1759 4238 
L 3056 4238 
z
M 2181 2256 
Q 1950 2700 1616 2700 
Q 1500 2700 1425 2638 
Q 1309 2541 1236 2297 
Q 1163 2053 1163 1550 
Q 1163 997 1244 731 
Q 1325 466 1466 347 
Q 1538 288 1663 288 
Q 1938 288 2181 719 
L 2181 2256 
z
" transform="scale(0.015625)"/>
      <path id="TimesNewRomanPS-BoldMT-62" d="M 1347 4238 
L 1347 2628 
Q 1716 3009 2153 3009 
Q 2453 3009 2718 2832 
Q 2984 2656 3134 2331 
Q 3284 2006 3284 1581 
Q 3284 1103 3093 712 
Q 2903 322 2584 117 
Q 2266 -88 1856 -88 
Q 1619 -88 1434 -12 
Q 1250 63 1072 231 
L 588 -84 
L 481 -84 
L 481 3631 
Q 481 3884 459 3944 
Q 428 4031 361 4073 
Q 294 4116 134 4122 
L 134 4238 
L 1347 4238 
z
M 1347 2350 
L 1347 1050 
Q 1347 653 1366 544 
Q 1397 359 1515 245 
Q 1634 131 1819 131 
Q 1978 131 2092 222 
Q 2206 313 2282 581 
Q 2359 850 2359 1550 
Q 2359 2222 2191 2472 
Q 2069 2653 1863 2653 
Q 1594 2653 1347 2350 
z
" transform="scale(0.015625)"/>
      <path id="TimesNewRomanPS-BoldMT-78" d="M 1944 1791 
L 2450 828 
Q 2713 325 2866 191 
Q 2950 119 3097 113 
L 3097 0 
L 1469 0 
L 1469 113 
Q 1659 128 1704 162 
Q 1750 197 1750 256 
Q 1750 344 1650 531 
L 1397 1006 
L 1181 691 
Q 1034 475 1016 434 
Q 991 375 991 328 
Q 991 256 1020 207 
Q 1050 159 1101 136 
Q 1153 113 1291 113 
L 1291 0 
L 147 0 
L 147 113 
Q 359 113 536 230 
Q 713 347 1050 844 
L 1291 1200 
L 788 2131 
Q 541 2588 419 2691 
Q 297 2794 147 2806 
L 147 2922 
L 1766 2922 
L 1766 2806 
L 1681 2803 
L 1519 2747 
Q 1494 2725 1494 2675 
Q 1494 2628 1509 2578 
Q 1519 2556 1597 2409 
L 1825 1984 
L 1944 2153 
Q 2194 2497 2194 2634 
Q 2194 2700 2139 2745 
Q 2084 2791 1944 2806 
L 1944 2922 
L 2978 2922 
L 2978 2806 
Q 2788 2800 2622 2689 
Q 2456 2578 2250 2259 
L 1944 1791 
z
" transform="scale(0.015625)"/>
      <path id="TimesNewRomanPS-BoldMT-66" d="M 1497 2616 
L 1497 588 
Q 1497 294 1559 219 
Q 1659 103 1928 113 
L 1928 0 
L 206 0 
L 206 113 
Q 403 116 486 158 
Q 569 200 600 275 
Q 631 350 631 588 
L 631 2616 
L 206 2616 
L 206 2922 
L 631 2922 
L 631 3138 
L 628 3284 
Q 628 3734 958 4034 
Q 1288 4334 1850 4334 
Q 2234 4334 2420 4190 
Q 2606 4047 2606 3872 
Q 2606 3731 2490 3628 
Q 2375 3525 2184 3525 
Q 2022 3525 1926 3609 
Q 1831 3694 1831 3797 
Q 1831 3825 1850 3913 
Q 1863 3966 1863 4013 
Q 1863 4078 1825 4109 
Q 1775 4156 1703 4156 
Q 1613 4156 1552 4081 
Q 1491 4006 1491 3841 
L 1497 3294 
L 1497 2922 
L 1928 2922 
L 1928 2616 
L 1497 2616 
z
" transform="scale(0.015625)"/>
      <path id="TimesNewRomanPS-BoldMT-69" d="M 919 4338 
Q 1122 4338 1262 4195 
Q 1403 4053 1403 3853 
Q 1403 3653 1261 3512 
Q 1119 3372 919 3372 
Q 719 3372 578 3512 
Q 438 3653 438 3853 
Q 438 4053 578 4195 
Q 719 4338 919 4338 
z
M 1356 2922 
L 1356 606 
Q 1356 297 1428 211 
Q 1500 125 1709 113 
L 1709 0 
L 131 0 
L 131 113 
Q 325 119 419 225 
Q 481 297 481 606 
L 481 2313 
Q 481 2622 409 2708 
Q 338 2794 131 2806 
L 131 2922 
L 1356 2922 
z
" transform="scale(0.015625)"/>
      <path id="TimesNewRomanPS-BoldMT-76" d="M 1534 -88 
L 550 2178 
Q 372 2588 272 2697 
Q 200 2778 59 2806 
L 59 2922 
L 1613 2922 
L 1613 2806 
Q 1466 2806 1413 2753 
Q 1338 2684 1338 2591 
Q 1338 2475 1475 2156 
L 1956 1059 
L 2341 2006 
Q 2506 2413 2506 2581 
Q 2506 2678 2436 2739 
Q 2366 2800 2188 2806 
L 2188 2922 
L 3144 2922 
L 3144 2806 
Q 3006 2788 2918 2703 
Q 2831 2619 2656 2206 
L 1681 -88 
L 1534 -88 
z
" transform="scale(0.015625)"/>
      <path id="TimesNewRomanPS-BoldMT-75" d="M 3038 2922 
L 3038 634 
Q 3038 300 3100 217 
Q 3163 134 3353 113 
L 3353 0 
L 2163 0 
L 2163 391 
Q 1953 141 1743 26 
Q 1534 -88 1275 -88 
Q 1028 -88 836 64 
Q 644 216 578 419 
Q 513 622 513 1128 
L 513 2288 
Q 513 2619 452 2700 
Q 391 2781 197 2806 
L 197 2922 
L 1388 2922 
L 1388 925 
Q 1388 613 1417 522 
Q 1447 431 1511 384 
Q 1575 338 1659 338 
Q 1772 338 1863 397 
Q 1988 478 2163 725 
L 2163 2288 
Q 2163 2619 2102 2700 
Q 2041 2781 1847 2806 
L 1847 2922 
L 3038 2922 
z
" transform="scale(0.015625)"/>
      <path id="TimesNewRomanPS-BoldMT-6d" d="M 1428 2922 
L 1428 2538 
Q 1669 2800 1873 2904 
Q 2078 3009 2322 3009 
Q 2603 3009 2793 2878 
Q 2984 2747 3088 2478 
Q 3338 2759 3567 2884 
Q 3797 3009 4047 3009 
Q 4350 3009 4529 2870 
Q 4709 2731 4779 2517 
Q 4850 2303 4850 1834 
L 4850 638 
Q 4850 300 4911 219 
Q 4972 138 5166 113 
L 5166 0 
L 3656 0 
L 3656 113 
Q 3834 128 3919 250 
Q 3975 334 3975 638 
L 3975 1894 
Q 3975 2284 3944 2390 
Q 3913 2497 3845 2548 
Q 3778 2600 3688 2600 
Q 3553 2600 3415 2501 
Q 3278 2403 3138 2206 
L 3138 638 
Q 3138 322 3191 241 
Q 3263 125 3466 113 
L 3466 0 
L 1953 0 
L 1953 113 
Q 2075 119 2145 173 
Q 2216 228 2239 304 
Q 2263 381 2263 638 
L 2263 1894 
Q 2263 2291 2231 2391 
Q 2200 2491 2126 2547 
Q 2053 2603 1969 2603 
Q 1844 2603 1741 2538 
Q 1594 2441 1428 2206 
L 1428 638 
Q 1428 328 1489 229 
Q 1550 131 1744 113 
L 1744 0 
L 238 0 
L 238 113 
Q 422 131 500 231 
Q 553 300 553 638 
L 553 2288 
Q 553 2619 492 2700 
Q 431 2781 238 2806 
L 238 2922 
L 1428 2922 
z
" transform="scale(0.015625)"/>
      <path id="TimesNewRomanPS-BoldMT-73" d="M 2063 3003 
L 2109 2006 
L 2003 2006 
Q 1813 2450 1608 2612 
Q 1403 2775 1200 2775 
Q 1072 2775 981 2689 
Q 891 2603 891 2491 
Q 891 2406 953 2328 
Q 1053 2200 1512 1889 
Q 1972 1578 2117 1361 
Q 2263 1144 2263 875 
Q 2263 631 2141 397 
Q 2019 163 1797 37 
Q 1575 -88 1306 -88 
Q 1097 -88 747 44 
Q 653 78 619 78 
Q 516 78 447 -78 
L 344 -78 
L 294 972 
L 400 972 
Q 541 559 786 353 
Q 1031 147 1250 147 
Q 1400 147 1495 239 
Q 1591 331 1591 463 
Q 1591 613 1497 722 
Q 1403 831 1078 1053 
Q 600 1384 459 1559 
Q 253 1816 253 2125 
Q 253 2463 486 2736 
Q 719 3009 1159 3009 
Q 1397 3009 1619 2894 
Q 1703 2847 1756 2847 
Q 1813 2847 1847 2870 
Q 1881 2894 1956 3003 
L 2063 3003 
z
" transform="scale(0.015625)"/>
      <path id="TimesNewRomanPS-BoldMT-28" d="M 2056 4334 
L 2056 4191 
Q 1731 3978 1578 3775 
Q 1366 3494 1247 3053 
Q 1097 2506 1097 1525 
Q 1097 600 1233 87 
Q 1369 -425 1603 -741 
Q 1766 -959 2056 -1125 
L 2056 -1281 
Q 1303 -1028 779 -248 
Q 256 531 256 1544 
Q 256 2544 778 3314 
Q 1300 4084 2056 4334 
z
" transform="scale(0.015625)"/>
      <path id="TimesNewRomanPS-BoldMT-6c" d="M 1359 4238 
L 1359 606 
Q 1359 297 1431 211 
Q 1503 125 1713 113 
L 1713 0 
L 134 0 
L 134 113 
Q 328 119 422 225 
Q 484 297 484 606 
L 484 3631 
Q 484 3938 412 4023 
Q 341 4109 134 4122 
L 134 4238 
L 1359 4238 
z
" transform="scale(0.015625)"/>
      <path id="TimesNewRomanPS-BoldMT-55" d="M 150 4238 
L 2338 4238 
L 2338 4122 
L 2228 4122 
Q 1981 4122 1889 4070 
Q 1797 4019 1758 3928 
Q 1719 3838 1719 3475 
L 1719 1400 
Q 1719 831 1805 647 
Q 1891 463 2087 341 
Q 2284 219 2584 219 
Q 2928 219 3170 373 
Q 3413 528 3533 800 
Q 3653 1072 3653 1747 
L 3653 3475 
Q 3653 3759 3593 3881 
Q 3534 4003 3444 4050 
Q 3303 4122 3047 4122 
L 3047 4238 
L 4513 4238 
L 4513 4122 
L 4425 4122 
Q 4247 4122 4128 4050 
Q 4009 3978 3956 3834 
Q 3916 3734 3916 3475 
L 3916 1866 
Q 3916 1119 3817 787 
Q 3719 456 3337 178 
Q 2956 -100 2297 -100 
Q 1747 -100 1447 47 
Q 1038 247 869 559 
Q 700 872 700 1400 
L 700 3475 
Q 700 3841 659 3930 
Q 619 4019 519 4072 
Q 419 4125 150 4122 
L 150 4238 
z
" transform="scale(0.015625)"/>
      <path id="TimesNewRomanPS-BoldMT-53" d="M 3006 4334 
L 3041 2922 
L 2913 2922 
Q 2822 3453 2467 3776 
Q 2113 4100 1700 4100 
Q 1381 4100 1195 3929 
Q 1009 3759 1009 3538 
Q 1009 3397 1075 3288 
Q 1166 3141 1366 2997 
Q 1513 2894 2044 2631 
Q 2788 2266 3047 1941 
Q 3303 1616 3303 1197 
Q 3303 666 2889 283 
Q 2475 -100 1838 -100 
Q 1638 -100 1459 -59 
Q 1281 -19 1013 94 
Q 863 156 766 156 
Q 684 156 593 93 
Q 503 31 447 -97 
L 331 -97 
L 331 1503 
L 447 1503 
Q 584 828 976 473 
Q 1369 119 1822 119 
Q 2172 119 2380 309 
Q 2588 500 2588 753 
Q 2588 903 2508 1043 
Q 2428 1184 2265 1311 
Q 2103 1438 1691 1641 
Q 1113 1925 859 2125 
Q 606 2325 470 2572 
Q 334 2819 334 3116 
Q 334 3622 706 3978 
Q 1078 4334 1644 4334 
Q 1850 4334 2044 4284 
Q 2191 4247 2402 4145 
Q 2613 4044 2697 4044 
Q 2778 4044 2825 4094 
Q 2872 4144 2913 4334 
L 3006 4334 
z
" transform="scale(0.015625)"/>
      <path id="TimesNewRomanPS-BoldMT-29" d="M 78 -1281 
L 78 -1138 
Q 403 -922 556 -719 
Q 766 -438 888 0 
Q 1038 550 1038 1531 
Q 1038 2456 902 2967 
Q 766 3478 531 3794 
Q 369 4013 78 4178 
L 78 4334 
Q 831 4081 1354 3301 
Q 1878 2522 1878 1509 
Q 1878 513 1354 -257 
Q 831 -1028 78 -1281 
z
" transform="scale(0.015625)"/>
     </defs>
     <use xlink:href="#TimesNewRomanPS-BoldMT-44"/>
     <use xlink:href="#TimesNewRomanPS-BoldMT-61" x="72.216797"/>
     <use xlink:href="#TimesNewRomanPS-BoldMT-74" x="122.216797"/>
     <use xlink:href="#TimesNewRomanPS-BoldMT-61" x="155.517578"/>
     <use xlink:href="#TimesNewRomanPS-BoldMT-20" x="205.517578"/>
     <use xlink:href="#TimesNewRomanPS-BoldMT-6f" x="230.517578"/>
     <use xlink:href="#TimesNewRomanPS-BoldMT-6e" x="280.517578"/>
     <use xlink:href="#TimesNewRomanPS-BoldMT-20" x="336.132812"/>
     <use xlink:href="#TimesNewRomanPS-BoldMT-74" x="361.132812"/>
     <use xlink:href="#TimesNewRomanPS-BoldMT-68" x="394.433594"/>
     <use xlink:href="#TimesNewRomanPS-BoldMT-65" x="450.048828"/>
     <use xlink:href="#TimesNewRomanPS-BoldMT-20" x="494.433594"/>
     <use xlink:href="#TimesNewRomanPS-BoldMT-70" x="519.433594"/>
     <use xlink:href="#TimesNewRomanPS-BoldMT-72" x="575.048828"/>
     <use xlink:href="#TimesNewRomanPS-BoldMT-6f" x="617.683594"/>
     <use xlink:href="#TimesNewRomanPS-BoldMT-6a" x="667.683594"/>
     <use xlink:href="#TimesNewRomanPS-BoldMT-65" x="700.984375"/>
     <use xlink:href="#TimesNewRomanPS-BoldMT-63" x="745.369141"/>
     <use xlink:href="#TimesNewRomanPS-BoldMT-74" x="789.753906"/>
     <use xlink:href="#TimesNewRomanPS-BoldMT-65" x="823.054688"/>
     <use xlink:href="#TimesNewRomanPS-BoldMT-64" x="867.439453"/>
     <use xlink:href="#TimesNewRomanPS-BoldMT-20" x="923.054688"/>
     <use xlink:href="#TimesNewRomanPS-BoldMT-62" x="948.054688"/>
     <use xlink:href="#TimesNewRomanPS-BoldMT-6f" x="1003.669922"/>
     <use xlink:href="#TimesNewRomanPS-BoldMT-78" x="1053.669922"/>
     <use xlink:href="#TimesNewRomanPS-BoldMT-20" x="1103.669922"/>
     <use xlink:href="#TimesNewRomanPS-BoldMT-6f" x="1128.669922"/>
     <use xlink:href="#TimesNewRomanPS-BoldMT-66" x="1178.669922"/>
     <use xlink:href="#TimesNewRomanPS-BoldMT-66" x="1211.970703"/>
     <use xlink:href="#TimesNewRomanPS-BoldMT-69" x="1245.271484"/>
     <use xlink:href="#TimesNewRomanPS-BoldMT-63" x="1273.054688"/>
     <use xlink:href="#TimesNewRomanPS-BoldMT-65" x="1317.439453"/>
     <use xlink:href="#TimesNewRomanPS-BoldMT-20" x="1361.824219"/>
     <use xlink:href="#TimesNewRomanPS-BoldMT-72" x="1386.824219"/>
     <use xlink:href="#TimesNewRomanPS-BoldMT-65" x="1429.458984"/>
     <use xlink:href="#TimesNewRomanPS-BoldMT-76" x="1473.84375"/>
     <use xlink:href="#TimesNewRomanPS-BoldMT-65" x="1523.84375"/>
     <use xlink:href="#TimesNewRomanPS-BoldMT-6e" x="1568.228516"/>
     <use xlink:href="#TimesNewRomanPS-BoldMT-75" x="1623.84375"/>
     <use xlink:href="#TimesNewRomanPS-BoldMT-65" x="1679.458984"/>
     <use xlink:href="#TimesNewRomanPS-BoldMT-20" x="1723.84375"/>
     <use xlink:href="#TimesNewRomanPS-BoldMT-6f" x="1748.84375"/>
     <use xlink:href="#TimesNewRomanPS-BoldMT-66" x="1798.84375"/>
     <use xlink:href="#TimesNewRomanPS-BoldMT-20" x="1832.144531"/>
     <use xlink:href="#TimesNewRomanPS-BoldMT-64" x="1857.144531"/>
     <use xlink:href="#TimesNewRomanPS-BoldMT-69" x="1912.759766"/>
     <use xlink:href="#TimesNewRomanPS-BoldMT-66" x="1940.542969"/>
     <use xlink:href="#TimesNewRomanPS-BoldMT-66" x="1973.84375"/>
     <use xlink:href="#TimesNewRomanPS-BoldMT-65" x="2007.144531"/>
     <use xlink:href="#TimesNewRomanPS-BoldMT-72" x="2051.529297"/>
     <use xlink:href="#TimesNewRomanPS-BoldMT-65" x="2094.164062"/>
     <use xlink:href="#TimesNewRomanPS-BoldMT-6e" x="2138.548828"/>
     <use xlink:href="#TimesNewRomanPS-BoldMT-74" x="2194.164062"/>
     <use xlink:href="#TimesNewRomanPS-BoldMT-20" x="2227.464844"/>
     <use xlink:href="#TimesNewRomanPS-BoldMT-6d" x="2252.464844"/>
     <use xlink:href="#TimesNewRomanPS-BoldMT-6f" x="2335.765625"/>
     <use xlink:href="#TimesNewRomanPS-BoldMT-76" x="2385.765625"/>
     <use xlink:href="#TimesNewRomanPS-BoldMT-69" x="2435.765625"/>
     <use xlink:href="#TimesNewRomanPS-BoldMT-65" x="2463.548828"/>
     <use xlink:href="#TimesNewRomanPS-BoldMT-73" x="2507.933594"/>
     <use xlink:href="#TimesNewRomanPS-BoldMT-20" x="2546.849609"/>
     <use xlink:href="#TimesNewRomanPS-BoldMT-28" x="2571.849609"/>
     <use xlink:href="#TimesNewRomanPS-BoldMT-6d" x="2605.150391"/>
     <use xlink:href="#TimesNewRomanPS-BoldMT-69" x="2688.451172"/>
     <use xlink:href="#TimesNewRomanPS-BoldMT-6c" x="2716.234375"/>
     <use xlink:href="#TimesNewRomanPS-BoldMT-6c" x="2744.017578"/>
     <use xlink:href="#TimesNewRomanPS-BoldMT-69" x="2771.800781"/>
     <use xlink:href="#TimesNewRomanPS-BoldMT-6f" x="2799.583984"/>
     <use xlink:href="#TimesNewRomanPS-BoldMT-6e" x="2849.583984"/>
     <use xlink:href="#TimesNewRomanPS-BoldMT-20" x="2905.199219"/>
     <use xlink:href="#TimesNewRomanPS-BoldMT-55" x="2930.199219"/>
     <use xlink:href="#TimesNewRomanPS-BoldMT-53" x="3002.416016"/>
     <use xlink:href="#TimesNewRomanPS-BoldMT-44" x="3058.03125"/>
     <use xlink:href="#TimesNewRomanPS-BoldMT-29" x="3130.248047"/>
    </g>
   </g>
  </g>
 </g>
 <defs>
  <clipPath id="p1bcc32897c">
   <rect x="71.88125" y="30.045" width="376.8" height="222.024529"/>
  </clipPath>
 </defs>
</svg>
