<?xml version="1.0" encoding="utf-8" standalone="no"?>
<!DOCTYPE svg PUBLIC "-//W3C//DTD SVG 1.1//EN"
  "http://www.w3.org/Graphics/SVG/1.1/DTD/svg11.dtd">
<svg xmlns:xlink="http://www.w3.org/1999/xlink" width="445.485937pt" height="319.95617pt" viewBox="0 0 445.485937 319.95617" xmlns="http://www.w3.org/2000/svg" version="1.1">
 <metadata>
  <rdf:RDF xmlns:dc="http://purl.org/dc/elements/1.1/" xmlns:cc="http://creativecommons.org/ns#" xmlns:rdf="http://www.w3.org/1999/02/22-rdf-syntax-ns#">
   <cc:Work>
    <dc:type rdf:resource="http://purl.org/dc/dcmitype/StillImage"/>
    <dc:date>2025-05-26T16:25:30.106665</dc:date>
    <dc:format>image/svg+xml</dc:format>
    <dc:creator>
     <cc:Agent>
      <dc:title>Matplotlib v3.7.2, https://matplotlib.org/</dc:title>
     </cc:Agent>
    </dc:creator>
   </cc:Work>
  </rdf:RDF>
 </metadata>
 <defs>
  <style type="text/css">*{stroke-linejoin: round; stroke-linecap: butt}</style>
 </defs>
 <g id="figure_1">
  <g id="patch_1">
   <path d="M 0 319.95617 
L 445.485937 319.95617 
L 445.485937 0 
L 0 0 
z
" style="fill: #ffffff"/>
  </g>
  <g id="axes_1">
   <g id="patch_2">
    <path d="M 60.915938 259.854775 
L 427.695937 259.854775 
L 427.695937 30.045 
L 60.915938 30.045 
z
" style="fill: #ffffff"/>
   </g>
   <g id="PolyCollection_1">
    <defs>
     <path id="m562a5baa30" d="M 117.158737 -76.681919 
L 78.029138 -76.681919 
L 76.493454 -78.266846 
L 75.041775 -79.851774 
L 73.698905 -81.436701 
L 72.485871 -83.021628 
L 71.418937 -84.606556 
L 70.508921 -86.191483 
L 69.760845 -87.776411 
L 69.173959 -89.361338 
L 68.742123 -90.946265 
L 68.454528 -92.531193 
L 68.296675 -94.11612 
L 68.251538 -95.701048 
L 68.300811 -97.285975 
L 68.426144 -98.870902 
L 68.610261 -100.45583 
L 68.837901 -102.040757 
L 69.096508 -103.625684 
L 69.376646 -105.210612 
L 69.67214 -106.795539 
L 69.979948 -108.380467 
L 70.299821 -109.965394 
L 70.633791 -111.550321 
L 70.985552 -113.135249 
L 71.359805 -114.720176 
L 71.761606 -116.305104 
L 72.195776 -117.890031 
L 72.666402 -119.474958 
L 73.176443 -121.059886 
L 73.727459 -122.644813 
L 74.319448 -124.229741 
L 74.950791 -125.814668 
L 75.61828 -127.399595 
L 76.317225 -128.984523 
L 77.041614 -130.56945 
L 77.784323 -132.154378 
L 78.53736 -133.739305 
L 79.292149 -135.324232 
L 80.039829 -136.90916 
L 80.771585 -138.494087 
L 81.478986 -140.079014 
L 82.154336 -141.663942 
L 82.791007 -143.248869 
L 83.383759 -144.833797 
L 83.929004 -146.418724 
L 84.425013 -148.003651 
L 84.872036 -149.588579 
L 85.272319 -151.173506 
L 85.630006 -152.758434 
L 85.950932 -154.343361 
L 86.242296 -155.928288 
L 86.51224 -157.513216 
L 86.769361 -159.098143 
L 87.022177 -160.683071 
L 87.278591 -162.267998 
L 87.545397 -163.852925 
L 87.827856 -165.437853 
L 88.129383 -167.02278 
L 88.451366 -168.607708 
L 88.793136 -170.192635 
L 89.152078 -171.777562 
L 89.523887 -173.36249 
L 89.902933 -174.947417 
L 90.282711 -176.532345 
L 90.656334 -178.117272 
L 91.017033 -179.702199 
L 91.358618 -181.287127 
L 91.675873 -182.872054 
L 91.964855 -184.456981 
L 92.223083 -186.041909 
L 92.449607 -187.626836 
L 92.644964 -189.211764 
L 92.811042 -190.796691 
L 92.95085 -192.381618 
L 93.068251 -193.966546 
L 93.167649 -195.551473 
L 93.253691 -197.136401 
L 93.330976 -198.721328 
L 93.403809 -200.306255 
L 93.47601 -201.891183 
L 93.550773 -203.47611 
L 93.630597 -205.061038 
L 93.717263 -206.645965 
L 93.811866 -208.230892 
L 93.914883 -209.81582 
L 94.026271 -211.400747 
L 94.145578 -212.985675 
L 94.272055 -214.570602 
L 94.404764 -216.155529 
L 94.542678 -217.740457 
L 94.684749 -219.325384 
L 94.829968 -220.910311 
L 94.977397 -222.495239 
L 95.126183 -224.080166 
L 95.27555 -225.665094 
L 95.424795 -227.250021 
L 95.573255 -228.834948 
L 95.720292 -230.419876 
L 95.865268 -232.004803 
L 96.00753 -233.589731 
L 99.180345 -233.589731 
L 99.180345 -233.589731 
L 99.322607 -232.004803 
L 99.467583 -230.419876 
L 99.61462 -228.834948 
L 99.76308 -227.250021 
L 99.912325 -225.665094 
L 100.061692 -224.080166 
L 100.210478 -222.495239 
L 100.357907 -220.910311 
L 100.503126 -219.325384 
L 100.645197 -217.740457 
L 100.783111 -216.155529 
L 100.91582 -214.570602 
L 101.042297 -212.985675 
L 101.161604 -211.400747 
L 101.272992 -209.81582 
L 101.376009 -208.230892 
L 101.470612 -206.645965 
L 101.557278 -205.061038 
L 101.637102 -203.47611 
L 101.711865 -201.891183 
L 101.784066 -200.306255 
L 101.856899 -198.721328 
L 101.934184 -197.136401 
L 102.020226 -195.551473 
L 102.119624 -193.966546 
L 102.237025 -192.381618 
L 102.376833 -190.796691 
L 102.542911 -189.211764 
L 102.738268 -187.626836 
L 102.964792 -186.041909 
L 103.22302 -184.456981 
L 103.512002 -182.872054 
L 103.829257 -181.287127 
L 104.170842 -179.702199 
L 104.531541 -178.117272 
L 104.905164 -176.532345 
L 105.284942 -174.947417 
L 105.663988 -173.36249 
L 106.035797 -171.777562 
L 106.394739 -170.192635 
L 106.736509 -168.607708 
L 107.058492 -167.02278 
L 107.360019 -165.437853 
L 107.642478 -163.852925 
L 107.909284 -162.267998 
L 108.165698 -160.683071 
L 108.418514 -159.098143 
L 108.675635 -157.513216 
L 108.945579 -155.928288 
L 109.236943 -154.343361 
L 109.557869 -152.758434 
L 109.915556 -151.173506 
L 110.315839 -149.588579 
L 110.762862 -148.003651 
L 111.258871 -146.418724 
L 111.804116 -144.833797 
L 112.396868 -143.248869 
L 113.033539 -141.663942 
L 113.708889 -140.079014 
L 114.41629 -138.494087 
L 115.148046 -136.90916 
L 115.895726 -135.324232 
L 116.650515 -133.739305 
L 117.403552 -132.154378 
L 118.146261 -130.56945 
L 118.87065 -128.984523 
L 119.569595 -127.399595 
L 120.237084 -125.814668 
L 120.868427 -124.229741 
L 121.460416 -122.644813 
L 122.011432 -121.059886 
L 122.521473 -119.474958 
L 122.992099 -117.890031 
L 123.426269 -116.305104 
L 123.82807 -114.720176 
L 124.202323 -113.135249 
L 124.554084 -111.550321 
L 124.888054 -109.965394 
L 125.207927 -108.380467 
L 125.515735 -106.795539 
L 125.811229 -105.210612 
L 126.091367 -103.625684 
L 126.349974 -102.040757 
L 126.577614 -100.45583 
L 126.761731 -98.870902 
L 126.887064 -97.285975 
L 126.936338 -95.701048 
L 126.8912 -94.11612 
L 126.733347 -92.531193 
L 126.445752 -90.946265 
L 126.013916 -89.361338 
L 125.42703 -87.776411 
L 124.678954 -86.191483 
L 123.768938 -84.606556 
L 122.702004 -83.021628 
L 121.48897 -81.436701 
L 120.1461 -79.851774 
L 118.694421 -78.266846 
L 117.158737 -76.681919 
z
" style="stroke: #000000; stroke-opacity: 0.7"/>
    </defs>
    <g clip-path="url(#p8f7c627604)">
     <use xlink:href="#m562a5baa30" x="0" y="319.95617" style="fill: #8c564b; fill-opacity: 0.7; stroke: #000000; stroke-opacity: 0.7"/>
    </g>
   </g>
   <g id="PolyCollection_2">
    <defs>
     <path id="m3f490cae66" d="M 179.077596 -71.184294 
L 162.822279 -71.184294 
L 161.735648 -72.713906 
L 160.591644 -74.243518 
L 159.396848 -75.77313 
L 158.158037 -77.302742 
L 156.882167 -78.832354 
L 155.576515 -80.361966 
L 154.248983 -81.891578 
L 152.908522 -83.42119 
L 151.56563 -84.950802 
L 150.232827 -86.480414 
L 148.92503 -88.010026 
L 147.659705 -89.539637 
L 146.456748 -91.069249 
L 145.338015 -92.598861 
L 144.326508 -94.128473 
L 143.445255 -95.658085 
L 142.715966 -97.187697 
L 142.157593 -98.717309 
L 141.784951 -100.246921 
L 141.607538 -101.776533 
L 141.628702 -103.306145 
L 141.845253 -104.835757 
L 142.247549 -106.365369 
L 142.820066 -107.894981 
L 143.542367 -109.424593 
L 144.39037 -110.954205 
L 145.337768 -112.483817 
L 146.357469 -114.013429 
L 147.422905 -115.543041 
L 148.509139 -117.072653 
L 149.593675 -118.602265 
L 150.656983 -120.131877 
L 151.682742 -121.661489 
L 152.657859 -123.191101 
L 153.572329 -124.720713 
L 154.419003 -126.250325 
L 155.193323 -127.779937 
L 155.893069 -129.309549 
L 156.518136 -130.839161 
L 157.070341 -132.368773 
L 157.553253 -133.898385 
L 157.972015 -135.427997 
L 158.333159 -136.957608 
L 158.644372 -138.48722 
L 158.914237 -140.016832 
L 159.151938 -141.546444 
L 159.366946 -143.076056 
L 159.568708 -144.605668 
L 159.766353 -146.13528 
L 159.968423 -147.664892 
L 160.182648 -149.194504 
L 160.415752 -150.724116 
L 160.673298 -152.253728 
L 160.95956 -153.78334 
L 161.277417 -155.312952 
L 161.628277 -156.842564 
L 162.012025 -158.372176 
L 162.427014 -159.901788 
L 162.870104 -161.4314 
L 163.336757 -162.961012 
L 163.821209 -164.490624 
L 164.316708 -166.020236 
L 164.815806 -167.549848 
L 165.310717 -169.07946 
L 165.79369 -170.609072 
L 166.25739 -172.138684 
L 166.695254 -173.668296 
L 167.101793 -175.197908 
L 167.47283 -176.72752 
L 167.805638 -178.257132 
L 168.098993 -179.786744 
L 168.353127 -181.316356 
L 168.569594 -182.845968 
L 168.751063 -184.37558 
L 168.901067 -185.905191 
L 169.023715 -187.434803 
L 169.123403 -188.964415 
L 169.204542 -190.494027 
L 169.271325 -192.023639 
L 169.327534 -193.553251 
L 169.376417 -195.082863 
L 169.420612 -196.612475 
L 169.462134 -198.142087 
L 169.502406 -199.671699 
L 169.542329 -201.201311 
L 169.582379 -202.730923 
L 169.622715 -204.260535 
L 169.663298 -205.790147 
L 169.703995 -207.319759 
L 169.744679 -208.849371 
L 169.785301 -210.378983 
L 169.825944 -211.908595 
L 169.866841 -213.438207 
L 169.908373 -214.967819 
L 169.951032 -216.497431 
L 169.995365 -218.027043 
L 170.041902 -219.556655 
L 170.091072 -221.086267 
L 170.143133 -222.615879 
L 171.756742 -222.615879 
L 171.756742 -222.615879 
L 171.808803 -221.086267 
L 171.857973 -219.556655 
L 171.90451 -218.027043 
L 171.948843 -216.497431 
L 171.991502 -214.967819 
L 172.033034 -213.438207 
L 172.073931 -211.908595 
L 172.114574 -210.378983 
L 172.155196 -208.849371 
L 172.19588 -207.319759 
L 172.236577 -205.790147 
L 172.27716 -204.260535 
L 172.317496 -202.730923 
L 172.357546 -201.201311 
L 172.397469 -199.671699 
L 172.437741 -198.142087 
L 172.479263 -196.612475 
L 172.523458 -195.082863 
L 172.572341 -193.553251 
L 172.62855 -192.023639 
L 172.695333 -190.494027 
L 172.776472 -188.964415 
L 172.87616 -187.434803 
L 172.998808 -185.905191 
L 173.148812 -184.37558 
L 173.330281 -182.845968 
L 173.546748 -181.316356 
L 173.800882 -179.786744 
L 174.094237 -178.257132 
L 174.427045 -176.72752 
L 174.798082 -175.197908 
L 175.204621 -173.668296 
L 175.642485 -172.138684 
L 176.106185 -170.609072 
L 176.589158 -169.07946 
L 177.084069 -167.549848 
L 177.583167 -166.020236 
L 178.078666 -164.490624 
L 178.563118 -162.961012 
L 179.029771 -161.4314 
L 179.472861 -159.901788 
L 179.88785 -158.372176 
L 180.271598 -156.842564 
L 180.622458 -155.312952 
L 180.940315 -153.78334 
L 181.226577 -152.253728 
L 181.484123 -150.724116 
L 181.717227 -149.194504 
L 181.931452 -147.664892 
L 182.133522 -146.13528 
L 182.331167 -144.605668 
L 182.532929 -143.076056 
L 182.747937 -141.546444 
L 182.985638 -140.016832 
L 183.255503 -138.48722 
L 183.566716 -136.957608 
L 183.92786 -135.427997 
L 184.346622 -133.898385 
L 184.829534 -132.368773 
L 185.381739 -130.839161 
L 186.006806 -129.309549 
L 186.706552 -127.779937 
L 187.480872 -126.250325 
L 188.327546 -124.720713 
L 189.242016 -123.191101 
L 190.217133 -121.661489 
L 191.242892 -120.131877 
L 192.3062 -118.602265 
L 193.390736 -117.072653 
L 194.47697 -115.543041 
L 195.542406 -114.013429 
L 196.562107 -112.483817 
L 197.509505 -110.954205 
L 198.357508 -109.424593 
L 199.079809 -107.894981 
L 199.652326 -106.365369 
L 200.054622 -104.835757 
L 200.271173 -103.306145 
L 200.292338 -101.776533 
L 200.114924 -100.246921 
L 199.742282 -98.717309 
L 199.183909 -97.187697 
L 198.45462 -95.658085 
L 197.573367 -94.128473 
L 196.56186 -92.598861 
L 195.443127 -91.069249 
L 194.24017 -89.539637 
L 192.974845 -88.010026 
L 191.667048 -86.480414 
L 190.334245 -84.950802 
L 188.991353 -83.42119 
L 187.650892 -81.891578 
L 186.32336 -80.361966 
L 185.017708 -78.832354 
L 183.741838 -77.302742 
L 182.503027 -75.77313 
L 181.308231 -74.243518 
L 180.164227 -72.713906 
L 179.077596 -71.184294 
z
" style="stroke: #000000; stroke-opacity: 0.7"/>
    </defs>
    <g clip-path="url(#p8f7c627604)">
     <use xlink:href="#m3f490cae66" x="0" y="319.95617" style="fill: #17becf; fill-opacity: 0.7; stroke: #000000; stroke-opacity: 0.7"/>
    </g>
   </g>
   <g id="PolyCollection_3">
    <defs>
     <path id="m90bf55b9c1" d="M 257.427948 -81.940874 
L 231.183927 -81.940874 
L 229.582001 -83.794166 
L 227.959277 -85.647457 
L 226.341354 -87.500748 
L 224.754144 -89.354039 
L 223.223002 -91.20733 
L 221.771957 -93.060621 
L 220.423039 -94.913913 
L 219.195734 -96.767204 
L 218.106555 -98.620495 
L 217.168728 -100.473786 
L 216.391979 -102.327077 
L 215.782413 -104.180368 
L 215.342485 -106.033659 
L 215.071055 -107.886951 
L 214.963538 -109.740242 
L 215.01215 -111.593533 
L 215.206252 -113.446824 
L 215.532778 -115.300115 
L 215.976759 -117.153406 
L 216.521897 -119.006698 
L 217.151187 -120.859989 
L 217.847549 -122.71328 
L 218.594437 -124.566571 
L 219.3764 -126.419862 
L 220.179571 -128.273153 
L 220.992054 -130.126445 
L 221.804193 -131.979736 
L 222.608716 -133.833027 
L 223.400729 -135.686318 
L 224.17757 -137.539609 
L 224.938524 -139.3929 
L 225.68441 -141.246192 
L 226.417068 -143.099483 
L 227.138797 -144.952774 
L 227.851776 -146.806065 
L 228.557555 -148.659356 
L 229.256644 -150.512647 
L 229.948277 -152.365939 
L 230.630366 -154.21923 
L 231.299658 -156.072521 
L 231.952069 -157.925812 
L 232.583145 -159.779103 
L 233.188585 -161.632394 
L 233.764746 -163.485685 
L 234.309054 -165.338977 
L 234.820274 -167.192268 
L 235.298612 -169.045559 
L 235.745637 -170.89885 
L 236.164069 -172.752141 
L 236.557471 -174.605432 
L 236.929891 -176.458724 
L 237.285525 -178.312015 
L 237.628415 -180.165306 
L 237.962221 -182.018597 
L 238.290052 -183.871888 
L 238.614365 -185.725179 
L 238.936899 -187.578471 
L 239.258644 -189.431762 
L 239.579825 -191.285053 
L 239.89991 -193.138344 
L 240.217648 -194.991635 
L 240.531144 -196.844926 
L 240.837973 -198.698218 
L 241.135341 -200.551509 
L 241.42028 -202.4048 
L 241.689854 -204.258091 
L 241.941359 -206.111382 
L 242.172492 -207.964673 
L 242.381467 -209.817965 
L 242.567079 -211.671256 
L 242.728708 -213.524547 
L 242.866279 -215.377838 
L 242.980198 -217.231129 
L 243.071278 -219.08442 
L 243.140686 -220.937711 
L 243.189892 -222.791003 
L 243.220658 -224.644294 
L 243.235028 -226.497585 
L 243.235325 -228.350876 
L 243.224131 -230.204167 
L 243.204241 -232.057458 
L 243.178583 -233.91075 
L 243.150107 -235.764041 
L 243.12165 -237.617332 
L 243.095791 -239.470623 
L 243.074725 -241.323914 
L 243.06016 -243.177205 
L 243.053263 -245.030497 
L 243.054661 -246.883788 
L 243.064493 -248.737079 
L 243.082499 -250.59037 
L 243.108146 -252.443661 
L 243.140746 -254.296952 
L 243.17957 -256.150244 
L 243.223934 -258.003535 
L 243.273232 -259.856826 
L 243.326948 -261.710117 
L 243.384614 -263.563408 
L 243.44576 -265.416699 
L 245.166115 -265.416699 
L 245.166115 -265.416699 
L 245.227261 -263.563408 
L 245.284927 -261.710117 
L 245.338643 -259.856826 
L 245.387941 -258.003535 
L 245.432305 -256.150244 
L 245.471129 -254.296952 
L 245.503729 -252.443661 
L 245.529376 -250.59037 
L 245.547382 -248.737079 
L 245.557214 -246.883788 
L 245.558612 -245.030497 
L 245.551715 -243.177205 
L 245.53715 -241.323914 
L 245.516084 -239.470623 
L 245.490225 -237.617332 
L 245.461768 -235.764041 
L 245.433292 -233.91075 
L 245.407634 -232.057458 
L 245.387744 -230.204167 
L 245.37655 -228.350876 
L 245.376847 -226.497585 
L 245.391217 -224.644294 
L 245.421983 -222.791003 
L 245.471189 -220.937711 
L 245.540597 -219.08442 
L 245.631677 -217.231129 
L 245.745596 -215.377838 
L 245.883167 -213.524547 
L 246.044796 -211.671256 
L 246.230408 -209.817965 
L 246.439383 -207.964673 
L 246.670516 -206.111382 
L 246.922021 -204.258091 
L 247.191595 -202.4048 
L 247.476534 -200.551509 
L 247.773902 -198.698218 
L 248.080731 -196.844926 
L 248.394227 -194.991635 
L 248.711965 -193.138344 
L 249.03205 -191.285053 
L 249.353231 -189.431762 
L 249.674976 -187.578471 
L 249.99751 -185.725179 
L 250.321823 -183.871888 
L 250.649654 -182.018597 
L 250.98346 -180.165306 
L 251.32635 -178.312015 
L 251.681984 -176.458724 
L 252.054404 -174.605432 
L 252.447806 -172.752141 
L 252.866238 -170.89885 
L 253.313263 -169.045559 
L 253.791601 -167.192268 
L 254.302821 -165.338977 
L 254.847129 -163.485685 
L 255.42329 -161.632394 
L 256.02873 -159.779103 
L 256.659806 -157.925812 
L 257.312217 -156.072521 
L 257.981509 -154.21923 
L 258.663598 -152.365939 
L 259.355231 -150.512647 
L 260.05432 -148.659356 
L 260.760099 -146.806065 
L 261.473078 -144.952774 
L 262.194807 -143.099483 
L 262.927465 -141.246192 
L 263.673351 -139.3929 
L 264.434305 -137.539609 
L 265.211146 -135.686318 
L 266.003159 -133.833027 
L 266.807682 -131.979736 
L 267.619821 -130.126445 
L 268.432304 -128.273153 
L 269.235475 -126.419862 
L 270.017438 -124.566571 
L 270.764326 -122.71328 
L 271.460688 -120.859989 
L 272.089978 -119.006698 
L 272.635116 -117.153406 
L 273.079097 -115.300115 
L 273.405623 -113.446824 
L 273.599725 -111.593533 
L 273.648337 -109.740242 
L 273.54082 -107.886951 
L 273.26939 -106.033659 
L 272.829462 -104.180368 
L 272.219896 -102.327077 
L 271.443147 -100.473786 
L 270.50532 -98.620495 
L 269.416141 -96.767204 
L 268.188836 -94.913913 
L 266.839918 -93.060621 
L 265.388873 -91.20733 
L 263.857731 -89.354039 
L 262.270521 -87.500748 
L 260.652598 -85.647457 
L 259.029874 -83.794166 
L 257.427948 -81.940874 
z
" style="stroke: #000000; stroke-opacity: 0.7"/>
    </defs>
    <g clip-path="url(#p8f7c627604)">
     <use xlink:href="#m90bf55b9c1" x="0" y="319.95617" style="fill: #ff9896; fill-opacity: 0.7; stroke: #000000; stroke-opacity: 0.7"/>
    </g>
   </g>
   <g id="PolyCollection_4">
    <defs>
     <path id="m0e6d053de8" d="M 333.406963 -71.951328 
L 301.916912 -71.951328 
L 300.141441 -74.047428 
L 298.428343 -76.143529 
L 296.811619 -78.239629 
L 295.318316 -80.33573 
L 293.967394 -82.43183 
L 292.769577 -84.52793 
L 291.728142 -86.624031 
L 290.840438 -88.720131 
L 290.099848 -90.816232 
L 289.497847 -92.912332 
L 289.025832 -95.008433 
L 288.676465 -97.104533 
L 288.444362 -99.200633 
L 288.326087 -101.296734 
L 288.319537 -103.392834 
L 288.422881 -105.488935 
L 288.633297 -107.585035 
L 288.945796 -109.681136 
L 289.352382 -111.777236 
L 289.841757 -113.873336 
L 290.399676 -115.969437 
L 291.00995 -118.065537 
L 291.655962 -120.161638 
L 292.322449 -122.257738 
L 292.997246 -124.353839 
L 293.672658 -126.449939 
L 294.346191 -128.54604 
L 295.020468 -130.64214 
L 295.70231 -132.73824 
L 296.401104 -134.834341 
L 297.126725 -136.930441 
L 297.887372 -139.026542 
L 298.687659 -141.122642 
L 299.527296 -143.218743 
L 300.400546 -145.314843 
L 301.296526 -147.410943 
L 302.200258 -149.507044 
L 303.094271 -151.603144 
L 303.960476 -153.699245 
L 304.782016 -155.795345 
L 305.544858 -157.891446 
L 306.238916 -159.987546 
L 306.858665 -162.083646 
L 307.403216 -164.179747 
L 307.875957 -166.275847 
L 308.283878 -168.371948 
L 308.636712 -170.468048 
L 308.946021 -172.564149 
L 309.224315 -174.660249 
L 309.484257 -176.75635 
L 309.737982 -178.85245 
L 309.996535 -180.94855 
L 310.269392 -183.044651 
L 310.564089 -185.140751 
L 310.885928 -187.236852 
L 311.237775 -189.332952 
L 311.619989 -191.429053 
L 312.030461 -193.525153 
L 312.464827 -195.621253 
L 312.916807 -197.717354 
L 313.378691 -199.813454 
L 313.841911 -201.909555 
L 314.297664 -204.005655 
L 314.737508 -206.101756 
L 315.153901 -208.197856 
L 315.540614 -210.293956 
L 315.893 -212.390057 
L 316.208114 -214.486157 
L 316.484682 -216.582258 
L 316.722953 -218.678358 
L 316.924467 -220.774459 
L 317.091765 -222.870559 
L 317.228083 -224.96666 
L 317.337061 -227.06276 
L 317.422468 -229.15886 
L 317.487985 -231.254961 
L 317.537021 -233.351061 
L 317.572591 -235.447162 
L 317.59723 -237.543262 
L 317.612951 -239.639363 
L 317.62124 -241.735463 
L 317.623073 -243.831563 
L 317.618976 -245.927664 
L 317.609091 -248.023764 
L 317.593283 -250.119865 
L 317.571258 -252.215965 
L 317.542708 -254.312066 
L 317.507462 -256.408166 
L 317.46564 -258.504266 
L 317.417792 -260.600367 
L 317.365003 -262.696467 
L 317.308933 -264.792568 
L 317.2518 -266.888668 
L 317.196272 -268.984769 
L 317.145282 -271.080869 
L 317.10179 -273.17697 
L 317.068499 -275.27307 
L 317.047581 -277.36917 
L 317.040446 -279.465271 
L 318.283429 -279.465271 
L 318.283429 -279.465271 
L 318.276294 -277.36917 
L 318.255376 -275.27307 
L 318.222085 -273.17697 
L 318.178593 -271.080869 
L 318.127603 -268.984769 
L 318.072075 -266.888668 
L 318.014942 -264.792568 
L 317.958872 -262.696467 
L 317.906083 -260.600367 
L 317.858235 -258.504266 
L 317.816413 -256.408166 
L 317.781167 -254.312066 
L 317.752617 -252.215965 
L 317.730592 -250.119865 
L 317.714784 -248.023764 
L 317.704899 -245.927664 
L 317.700802 -243.831563 
L 317.702635 -241.735463 
L 317.710924 -239.639363 
L 317.726645 -237.543262 
L 317.751284 -235.447162 
L 317.786854 -233.351061 
L 317.83589 -231.254961 
L 317.901407 -229.15886 
L 317.986814 -227.06276 
L 318.095792 -224.96666 
L 318.23211 -222.870559 
L 318.399408 -220.774459 
L 318.600922 -218.678358 
L 318.839193 -216.582258 
L 319.115761 -214.486157 
L 319.430875 -212.390057 
L 319.783261 -210.293956 
L 320.169974 -208.197856 
L 320.586367 -206.101756 
L 321.026211 -204.005655 
L 321.481964 -201.909555 
L 321.945184 -199.813454 
L 322.407068 -197.717354 
L 322.859048 -195.621253 
L 323.293414 -193.525153 
L 323.703886 -191.429053 
L 324.0861 -189.332952 
L 324.437947 -187.236852 
L 324.759786 -185.140751 
L 325.054483 -183.044651 
L 325.32734 -180.94855 
L 325.585893 -178.85245 
L 325.839618 -176.75635 
L 326.09956 -174.660249 
L 326.377854 -172.564149 
L 326.687163 -170.468048 
L 327.039997 -168.371948 
L 327.447918 -166.275847 
L 327.920659 -164.179747 
L 328.46521 -162.083646 
L 329.084959 -159.987546 
L 329.779017 -157.891446 
L 330.541859 -155.795345 
L 331.363399 -153.699245 
L 332.229604 -151.603144 
L 333.123617 -149.507044 
L 334.027349 -147.410943 
L 334.923329 -145.314843 
L 335.796579 -143.218743 
L 336.636216 -141.122642 
L 337.436503 -139.026542 
L 338.19715 -136.930441 
L 338.922771 -134.834341 
L 339.621565 -132.73824 
L 340.303407 -130.64214 
L 340.977684 -128.54604 
L 341.651217 -126.449939 
L 342.326629 -124.353839 
L 343.001426 -122.257738 
L 343.667913 -120.161638 
L 344.313925 -118.065537 
L 344.924199 -115.969437 
L 345.482118 -113.873336 
L 345.971493 -111.777236 
L 346.378079 -109.681136 
L 346.690578 -107.585035 
L 346.900994 -105.488935 
L 347.004337 -103.392834 
L 346.997788 -101.296734 
L 346.879513 -99.200633 
L 346.64741 -97.104533 
L 346.298043 -95.008433 
L 345.826028 -92.912332 
L 345.224027 -90.816232 
L 344.483437 -88.720131 
L 343.595733 -86.624031 
L 342.554298 -84.52793 
L 341.356481 -82.43183 
L 340.005559 -80.33573 
L 338.512256 -78.239629 
L 336.895532 -76.143529 
L 335.182434 -74.047428 
L 333.406963 -71.951328 
z
" style="stroke: #000000; stroke-opacity: 0.7"/>
    </defs>
    <g clip-path="url(#p8f7c627604)">
     <use xlink:href="#m0e6d053de8" x="0" y="319.95617" style="fill: #9edae5; fill-opacity: 0.7; stroke: #000000; stroke-opacity: 0.7"/>
    </g>
   </g>
   <g id="PolyCollection_5">
    <defs>
     <path id="m65bbffb9de" d="M 399.363563 -70.547294 
L 382.672312 -70.547294 
L 381.578533 -72.12434 
L 380.436081 -73.701387 
L 379.255343 -75.278433 
L 378.047159 -76.85548 
L 376.822422 -78.432526 
L 375.591735 -80.009573 
L 374.365154 -81.58662 
L 373.152054 -83.163666 
L 371.9611 -84.740713 
L 370.800337 -86.317759 
L 369.677343 -87.894806 
L 368.59943 -89.471852 
L 367.573829 -91.048899 
L 366.607824 -92.625946 
L 365.708795 -94.202992 
L 364.884155 -95.780039 
L 364.141176 -97.357085 
L 363.486725 -98.934132 
L 362.926944 -100.511178 
L 362.466915 -102.088225 
L 362.110378 -103.665271 
L 361.859523 -105.242318 
L 361.714912 -106.819365 
L 361.675537 -108.396411 
L 361.739014 -109.973458 
L 361.901884 -111.550504 
L 362.15999 -113.127551 
L 362.508867 -114.704597 
L 362.944081 -116.281644 
L 363.461481 -117.858691 
L 364.057298 -119.435737 
L 364.728091 -121.012784 
L 365.470523 -122.58983 
L 366.281007 -124.166877 
L 367.15527 -125.743923 
L 368.087897 -127.32097 
L 369.071932 -128.898017 
L 370.098607 -130.475063 
L 371.15726 -132.05211 
L 372.235455 -133.629156 
L 373.319341 -135.206203 
L 374.394184 -136.783249 
L 375.445062 -138.360296 
L 376.457623 -139.937342 
L 377.418836 -141.514389 
L 378.317673 -143.091436 
L 379.145641 -144.668482 
L 379.897128 -146.245529 
L 380.569543 -147.822575 
L 381.163259 -149.399622 
L 381.681365 -150.976668 
L 382.129292 -152.553715 
L 382.514328 -154.130762 
L 382.8451 -155.707808 
L 383.131039 -157.284855 
L 383.381872 -158.861901 
L 383.607175 -160.438948 
L 383.815972 -162.015994 
L 384.016411 -163.593041 
L 384.215512 -165.170088 
L 384.418971 -166.747134 
L 384.631036 -168.324181 
L 384.854452 -169.901227 
L 385.090467 -171.478274 
L 385.338907 -173.05532 
L 385.598331 -174.632367 
L 385.866225 -176.209413 
L 386.139272 -177.78646 
L 386.413638 -179.363507 
L 386.685277 -180.940553 
L 386.950217 -182.5176 
L 387.204821 -184.094646 
L 387.445976 -185.671693 
L 387.671228 -187.248739 
L 387.878837 -188.825786 
L 388.067768 -190.402833 
L 388.237634 -191.979879 
L 388.388598 -193.556926 
L 388.521272 -195.133972 
L 388.636604 -196.711019 
L 388.735801 -198.288065 
L 388.820263 -199.865112 
L 388.891546 -201.442159 
L 388.951352 -203.019205 
L 389.001519 -204.596252 
L 389.044016 -206.173298 
L 389.080934 -207.750345 
L 389.114448 -209.327391 
L 389.146772 -210.904438 
L 389.180083 -212.481484 
L 389.21644 -214.058531 
L 389.257692 -215.635578 
L 389.305384 -217.212624 
L 389.360685 -218.789671 
L 389.424318 -220.366717 
L 389.496533 -221.943764 
L 389.577091 -223.52081 
L 389.665288 -225.097857 
L 389.759999 -226.674904 
L 392.275876 -226.674904 
L 392.275876 -226.674904 
L 392.370587 -225.097857 
L 392.458784 -223.52081 
L 392.539342 -221.943764 
L 392.611557 -220.366717 
L 392.67519 -218.789671 
L 392.730491 -217.212624 
L 392.778183 -215.635578 
L 392.819435 -214.058531 
L 392.855792 -212.481484 
L 392.889103 -210.904438 
L 392.921427 -209.327391 
L 392.954941 -207.750345 
L 392.991859 -206.173298 
L 393.034356 -204.596252 
L 393.084523 -203.019205 
L 393.144329 -201.442159 
L 393.215612 -199.865112 
L 393.300074 -198.288065 
L 393.399271 -196.711019 
L 393.514603 -195.133972 
L 393.647277 -193.556926 
L 393.798241 -191.979879 
L 393.968107 -190.402833 
L 394.157038 -188.825786 
L 394.364647 -187.248739 
L 394.589899 -185.671693 
L 394.831054 -184.094646 
L 395.085658 -182.5176 
L 395.350598 -180.940553 
L 395.622237 -179.363507 
L 395.896603 -177.78646 
L 396.16965 -176.209413 
L 396.437544 -174.632367 
L 396.696968 -173.05532 
L 396.945408 -171.478274 
L 397.181423 -169.901227 
L 397.404839 -168.324181 
L 397.616904 -166.747134 
L 397.820363 -165.170088 
L 398.019464 -163.593041 
L 398.219903 -162.015994 
L 398.4287 -160.438948 
L 398.654003 -158.861901 
L 398.904836 -157.284855 
L 399.190775 -155.707808 
L 399.521547 -154.130762 
L 399.906583 -152.553715 
L 400.35451 -150.976668 
L 400.872616 -149.399622 
L 401.466332 -147.822575 
L 402.138747 -146.245529 
L 402.890234 -144.668482 
L 403.718202 -143.091436 
L 404.617039 -141.514389 
L 405.578252 -139.937342 
L 406.590813 -138.360296 
L 407.641691 -136.783249 
L 408.716534 -135.206203 
L 409.80042 -133.629156 
L 410.878615 -132.05211 
L 411.937268 -130.475063 
L 412.963943 -128.898017 
L 413.947978 -127.32097 
L 414.880605 -125.743923 
L 415.754868 -124.166877 
L 416.565352 -122.58983 
L 417.307784 -121.012784 
L 417.978577 -119.435737 
L 418.574394 -117.858691 
L 419.091794 -116.281644 
L 419.527008 -114.704597 
L 419.875885 -113.127551 
L 420.133991 -111.550504 
L 420.296861 -109.973458 
L 420.360337 -108.396411 
L 420.320963 -106.819365 
L 420.176352 -105.242318 
L 419.925497 -103.665271 
L 419.56896 -102.088225 
L 419.108931 -100.511178 
L 418.54915 -98.934132 
L 417.894699 -97.357085 
L 417.15172 -95.780039 
L 416.32708 -94.202992 
L 415.428051 -92.625946 
L 414.462046 -91.048899 
L 413.436445 -89.471852 
L 412.358532 -87.894806 
L 411.235538 -86.317759 
L 410.074775 -84.740713 
L 408.883821 -83.163666 
L 407.670721 -81.58662 
L 406.44414 -80.009573 
L 405.213453 -78.432526 
L 403.988716 -76.85548 
L 402.780532 -75.278433 
L 401.599794 -73.701387 
L 400.457342 -72.12434 
L 399.363563 -70.547294 
z
" style="stroke: #000000; stroke-opacity: 0.7"/>
    </defs>
    <g clip-path="url(#p8f7c627604)">
     <use xlink:href="#m65bbffb9de" x="0" y="319.95617" style="fill: #fc8d62; fill-opacity: 0.7; stroke: #000000; stroke-opacity: 0.7"/>
    </g>
   </g>
   <g id="matplotlib.axis_1">
    <g id="xtick_1">
     <g id="line2d_1">
      <defs>
       <path id="mfb7a3a83d4" d="M 0 0 
L 0 3.5 
" style="stroke: #000000; stroke-width: 0.8"/>
      </defs>
      <g>
       <use xlink:href="#mfb7a3a83d4" x="97.593938" y="259.854775" style="stroke: #000000; stroke-width: 0.8"/>
      </g>
     </g>
     <g id="text_1">
      <!-- Dunvale -->
      <g transform="translate(67.03234 301.493285) rotate(-45) scale(0.12 -0.12)">
       <defs>
        <path id="TimesNewRomanPSMT-44" d="M 109 0 
L 109 116 
L 269 116 
Q 538 116 650 288 
Q 719 391 719 750 
L 719 3488 
Q 719 3884 631 3984 
Q 509 4122 269 4122 
L 109 4122 
L 109 4238 
L 1834 4238 
Q 2784 4238 3279 4022 
Q 3775 3806 4076 3303 
Q 4378 2800 4378 2141 
Q 4378 1256 3841 663 
Q 3238 0 2003 0 
L 109 0 
z
M 1319 306 
Q 1716 219 1984 219 
Q 2709 219 3187 728 
Q 3666 1238 3666 2109 
Q 3666 2988 3187 3494 
Q 2709 4000 1959 4000 
Q 1678 4000 1319 3909 
L 1319 306 
z
" transform="scale(0.015625)"/>
        <path id="TimesNewRomanPSMT-75" d="M 2709 2863 
L 2709 1128 
Q 2709 631 2732 520 
Q 2756 409 2807 365 
Q 2859 322 2928 322 
Q 3025 322 3147 375 
L 3191 266 
L 2334 -88 
L 2194 -88 
L 2194 519 
Q 1825 119 1631 15 
Q 1438 -88 1222 -88 
Q 981 -88 804 51 
Q 628 191 559 409 
Q 491 628 491 1028 
L 491 2306 
Q 491 2509 447 2587 
Q 403 2666 317 2708 
Q 231 2750 6 2747 
L 6 2863 
L 1009 2863 
L 1009 947 
Q 1009 547 1148 422 
Q 1288 297 1484 297 
Q 1619 297 1789 381 
Q 1959 466 2194 703 
L 2194 2325 
Q 2194 2569 2105 2655 
Q 2016 2741 1734 2747 
L 1734 2863 
L 2709 2863 
z
" transform="scale(0.015625)"/>
        <path id="TimesNewRomanPSMT-6e" d="M 1034 2341 
Q 1538 2947 1994 2947 
Q 2228 2947 2397 2830 
Q 2566 2713 2666 2444 
Q 2734 2256 2734 1869 
L 2734 647 
Q 2734 375 2778 278 
Q 2813 200 2889 156 
Q 2966 113 3172 113 
L 3172 0 
L 1756 0 
L 1756 113 
L 1816 113 
Q 2016 113 2095 173 
Q 2175 234 2206 353 
Q 2219 400 2219 647 
L 2219 1819 
Q 2219 2209 2117 2386 
Q 2016 2563 1775 2563 
Q 1403 2563 1034 2156 
L 1034 647 
Q 1034 356 1069 288 
Q 1113 197 1189 155 
Q 1266 113 1500 113 
L 1500 0 
L 84 0 
L 84 113 
L 147 113 
Q 366 113 442 223 
Q 519 334 519 647 
L 519 1709 
Q 519 2225 495 2337 
Q 472 2450 423 2490 
Q 375 2531 294 2531 
Q 206 2531 84 2484 
L 38 2597 
L 900 2947 
L 1034 2947 
L 1034 2341 
z
" transform="scale(0.015625)"/>
        <path id="TimesNewRomanPSMT-76" d="M 53 2863 
L 1400 2863 
L 1400 2747 
L 1313 2747 
Q 1191 2747 1127 2687 
Q 1063 2628 1063 2528 
Q 1063 2419 1128 2269 
L 1794 688 
L 2463 2328 
Q 2534 2503 2534 2594 
Q 2534 2638 2509 2666 
Q 2475 2713 2422 2730 
Q 2369 2747 2206 2747 
L 2206 2863 
L 3141 2863 
L 3141 2747 
Q 2978 2734 2916 2681 
Q 2806 2588 2719 2369 
L 1703 -88 
L 1575 -88 
L 553 2328 
Q 484 2497 421 2570 
Q 359 2644 263 2694 
Q 209 2722 53 2747 
L 53 2863 
z
" transform="scale(0.015625)"/>
        <path id="TimesNewRomanPSMT-61" d="M 1822 413 
Q 1381 72 1269 19 
Q 1100 -59 909 -59 
Q 613 -59 420 144 
Q 228 347 228 678 
Q 228 888 322 1041 
Q 450 1253 767 1440 
Q 1084 1628 1822 1897 
L 1822 2009 
Q 1822 2438 1686 2597 
Q 1550 2756 1291 2756 
Q 1094 2756 978 2650 
Q 859 2544 859 2406 
L 866 2225 
Q 866 2081 792 2003 
Q 719 1925 600 1925 
Q 484 1925 411 2006 
Q 338 2088 338 2228 
Q 338 2497 613 2722 
Q 888 2947 1384 2947 
Q 1766 2947 2009 2819 
Q 2194 2722 2281 2516 
Q 2338 2381 2338 1966 
L 2338 994 
Q 2338 584 2353 492 
Q 2369 400 2405 369 
Q 2441 338 2488 338 
Q 2538 338 2575 359 
Q 2641 400 2828 588 
L 2828 413 
Q 2478 -56 2159 -56 
Q 2006 -56 1915 50 
Q 1825 156 1822 413 
z
M 1822 616 
L 1822 1706 
Q 1350 1519 1213 1441 
Q 966 1303 859 1153 
Q 753 1003 753 825 
Q 753 600 887 451 
Q 1022 303 1197 303 
Q 1434 303 1822 616 
z
" transform="scale(0.015625)"/>
        <path id="TimesNewRomanPSMT-6c" d="M 1184 4444 
L 1184 647 
Q 1184 378 1223 290 
Q 1263 203 1344 158 
Q 1425 113 1647 113 
L 1647 0 
L 244 0 
L 244 113 
Q 441 113 512 153 
Q 584 194 625 287 
Q 666 381 666 647 
L 666 3247 
Q 666 3731 644 3842 
Q 622 3953 573 3993 
Q 525 4034 450 4034 
Q 369 4034 244 3984 
L 191 4094 
L 1044 4444 
L 1184 4444 
z
" transform="scale(0.015625)"/>
        <path id="TimesNewRomanPSMT-65" d="M 681 1784 
Q 678 1147 991 784 
Q 1303 422 1725 422 
Q 2006 422 2214 576 
Q 2422 731 2563 1106 
L 2659 1044 
Q 2594 616 2278 264 
Q 1963 -88 1488 -88 
Q 972 -88 605 314 
Q 238 716 238 1394 
Q 238 2128 614 2539 
Q 991 2950 1559 2950 
Q 2041 2950 2350 2633 
Q 2659 2316 2659 1784 
L 681 1784 
z
M 681 1966 
L 2006 1966 
Q 1991 2241 1941 2353 
Q 1863 2528 1708 2628 
Q 1553 2728 1384 2728 
Q 1125 2728 920 2526 
Q 716 2325 681 1966 
z
" transform="scale(0.015625)"/>
       </defs>
       <use xlink:href="#TimesNewRomanPSMT-44"/>
       <use xlink:href="#TimesNewRomanPSMT-75" x="72.216797"/>
       <use xlink:href="#TimesNewRomanPSMT-6e" x="122.216797"/>
       <use xlink:href="#TimesNewRomanPSMT-76" x="172.216797"/>
       <use xlink:href="#TimesNewRomanPSMT-61" x="222.216797"/>
       <use xlink:href="#TimesNewRomanPSMT-6c" x="266.601562"/>
       <use xlink:href="#TimesNewRomanPSMT-65" x="294.384766"/>
      </g>
     </g>
    </g>
    <g id="xtick_2">
     <g id="line2d_2">
      <g>
       <use xlink:href="#mfb7a3a83d4" x="170.949938" y="259.854775" style="stroke: #000000; stroke-width: 0.8"/>
      </g>
     </g>
     <g id="text_2">
      <!-- Elmhurst -->
      <g transform="translate(138.024394 303.857231) rotate(-45) scale(0.12 -0.12)">
       <defs>
        <path id="TimesNewRomanPSMT-45" d="M 1338 4006 
L 1338 2331 
L 2269 2331 
Q 2631 2331 2753 2441 
Q 2916 2584 2934 2947 
L 3050 2947 
L 3050 1472 
L 2934 1472 
Q 2891 1781 2847 1869 
Q 2791 1978 2662 2040 
Q 2534 2103 2269 2103 
L 1338 2103 
L 1338 706 
Q 1338 425 1363 364 
Q 1388 303 1450 267 
Q 1513 231 1688 231 
L 2406 231 
Q 2766 231 2928 281 
Q 3091 331 3241 478 
Q 3434 672 3638 1063 
L 3763 1063 
L 3397 0 
L 131 0 
L 131 116 
L 281 116 
Q 431 116 566 188 
Q 666 238 702 338 
Q 738 438 738 747 
L 738 3500 
Q 738 3903 656 3997 
Q 544 4122 281 4122 
L 131 4122 
L 131 4238 
L 3397 4238 
L 3444 3309 
L 3322 3309 
Q 3256 3644 3176 3769 
Q 3097 3894 2941 3959 
Q 2816 4006 2500 4006 
L 1338 4006 
z
" transform="scale(0.015625)"/>
        <path id="TimesNewRomanPSMT-6d" d="M 1050 2338 
Q 1363 2650 1419 2697 
Q 1559 2816 1721 2881 
Q 1884 2947 2044 2947 
Q 2313 2947 2506 2790 
Q 2700 2634 2766 2338 
Q 3088 2713 3309 2830 
Q 3531 2947 3766 2947 
Q 3994 2947 4170 2830 
Q 4347 2713 4450 2447 
Q 4519 2266 4519 1878 
L 4519 647 
Q 4519 378 4559 278 
Q 4591 209 4675 161 
Q 4759 113 4950 113 
L 4950 0 
L 3538 0 
L 3538 113 
L 3597 113 
Q 3781 113 3884 184 
Q 3956 234 3988 344 
Q 4000 397 4000 647 
L 4000 1878 
Q 4000 2228 3916 2372 
Q 3794 2572 3525 2572 
Q 3359 2572 3192 2489 
Q 3025 2406 2788 2181 
L 2781 2147 
L 2788 2013 
L 2788 647 
Q 2788 353 2820 281 
Q 2853 209 2943 161 
Q 3034 113 3253 113 
L 3253 0 
L 1806 0 
L 1806 113 
Q 2044 113 2133 169 
Q 2222 225 2256 338 
Q 2272 391 2272 647 
L 2272 1878 
Q 2272 2228 2169 2381 
Q 2031 2581 1784 2581 
Q 1616 2581 1450 2491 
Q 1191 2353 1050 2181 
L 1050 647 
Q 1050 366 1089 281 
Q 1128 197 1204 155 
Q 1281 113 1516 113 
L 1516 0 
L 100 0 
L 100 113 
Q 297 113 375 155 
Q 453 197 493 289 
Q 534 381 534 647 
L 534 1741 
Q 534 2213 506 2350 
Q 484 2453 437 2492 
Q 391 2531 309 2531 
Q 222 2531 100 2484 
L 53 2597 
L 916 2947 
L 1050 2947 
L 1050 2338 
z
" transform="scale(0.015625)"/>
        <path id="TimesNewRomanPSMT-68" d="M 1041 4444 
L 1041 2350 
Q 1388 2731 1591 2839 
Q 1794 2947 1997 2947 
Q 2241 2947 2416 2812 
Q 2591 2678 2675 2391 
Q 2734 2191 2734 1659 
L 2734 647 
Q 2734 375 2778 275 
Q 2809 200 2884 156 
Q 2959 113 3159 113 
L 3159 0 
L 1753 0 
L 1753 113 
L 1819 113 
Q 2019 113 2097 173 
Q 2175 234 2206 353 
Q 2216 403 2216 647 
L 2216 1659 
Q 2216 2128 2167 2275 
Q 2119 2422 2012 2495 
Q 1906 2569 1756 2569 
Q 1603 2569 1437 2487 
Q 1272 2406 1041 2159 
L 1041 647 
Q 1041 353 1073 281 
Q 1106 209 1195 161 
Q 1284 113 1503 113 
L 1503 0 
L 84 0 
L 84 113 
Q 275 113 384 172 
Q 447 203 484 290 
Q 522 378 522 647 
L 522 3238 
Q 522 3728 498 3840 
Q 475 3953 426 3993 
Q 378 4034 297 4034 
Q 231 4034 84 3984 
L 41 4094 
L 897 4444 
L 1041 4444 
z
" transform="scale(0.015625)"/>
        <path id="TimesNewRomanPSMT-72" d="M 1038 2947 
L 1038 2303 
Q 1397 2947 1775 2947 
Q 1947 2947 2059 2842 
Q 2172 2738 2172 2600 
Q 2172 2478 2090 2393 
Q 2009 2309 1897 2309 
Q 1788 2309 1652 2417 
Q 1516 2525 1450 2525 
Q 1394 2525 1328 2463 
Q 1188 2334 1038 2041 
L 1038 669 
Q 1038 431 1097 309 
Q 1138 225 1241 169 
Q 1344 113 1538 113 
L 1538 0 
L 72 0 
L 72 113 
Q 291 113 397 181 
Q 475 231 506 341 
Q 522 394 522 644 
L 522 1753 
Q 522 2253 501 2348 
Q 481 2444 426 2487 
Q 372 2531 291 2531 
Q 194 2531 72 2484 
L 41 2597 
L 906 2947 
L 1038 2947 
z
" transform="scale(0.015625)"/>
        <path id="TimesNewRomanPSMT-73" d="M 2050 2947 
L 2050 1972 
L 1947 1972 
Q 1828 2431 1642 2597 
Q 1456 2763 1169 2763 
Q 950 2763 815 2647 
Q 681 2531 681 2391 
Q 681 2216 781 2091 
Q 878 1963 1175 1819 
L 1631 1597 
Q 2266 1288 2266 781 
Q 2266 391 1970 151 
Q 1675 -88 1309 -88 
Q 1047 -88 709 6 
Q 606 38 541 38 
Q 469 38 428 -44 
L 325 -44 
L 325 978 
L 428 978 
Q 516 541 762 319 
Q 1009 97 1316 97 
Q 1531 97 1667 223 
Q 1803 350 1803 528 
Q 1803 744 1651 891 
Q 1500 1038 1047 1263 
Q 594 1488 453 1669 
Q 313 1847 313 2119 
Q 313 2472 555 2709 
Q 797 2947 1181 2947 
Q 1350 2947 1591 2875 
Q 1750 2828 1803 2828 
Q 1853 2828 1881 2850 
Q 1909 2872 1947 2947 
L 2050 2947 
z
" transform="scale(0.015625)"/>
        <path id="TimesNewRomanPSMT-74" d="M 1031 3803 
L 1031 2863 
L 1700 2863 
L 1700 2644 
L 1031 2644 
L 1031 788 
Q 1031 509 1111 412 
Q 1191 316 1316 316 
Q 1419 316 1516 380 
Q 1613 444 1666 569 
L 1788 569 
Q 1678 263 1478 108 
Q 1278 -47 1066 -47 
Q 922 -47 784 33 
Q 647 113 581 261 
Q 516 409 516 719 
L 516 2644 
L 63 2644 
L 63 2747 
Q 234 2816 414 2980 
Q 594 3144 734 3369 
Q 806 3488 934 3803 
L 1031 3803 
z
" transform="scale(0.015625)"/>
       </defs>
       <use xlink:href="#TimesNewRomanPSMT-45"/>
       <use xlink:href="#TimesNewRomanPSMT-6c" x="61.083984"/>
       <use xlink:href="#TimesNewRomanPSMT-6d" x="88.867188"/>
       <use xlink:href="#TimesNewRomanPSMT-68" x="166.650391"/>
       <use xlink:href="#TimesNewRomanPSMT-75" x="216.650391"/>
       <use xlink:href="#TimesNewRomanPSMT-72" x="266.650391"/>
       <use xlink:href="#TimesNewRomanPSMT-73" x="299.951172"/>
       <use xlink:href="#TimesNewRomanPSMT-74" x="338.867188"/>
      </g>
     </g>
    </g>
    <g id="xtick_3">
     <g id="line2d_3">
      <g>
       <use xlink:href="#mfb7a3a83d4" x="244.305937" y="259.854775" style="stroke: #000000; stroke-width: 0.8"/>
      </g>
     </g>
     <g id="text_3">
      <!-- Springfield -->
      <g transform="translate(204.29651 310.925205) rotate(-45) scale(0.12 -0.12)">
       <defs>
        <path id="TimesNewRomanPSMT-53" d="M 2934 4334 
L 2934 2869 
L 2819 2869 
Q 2763 3291 2617 3541 
Q 2472 3791 2203 3937 
Q 1934 4084 1647 4084 
Q 1322 4084 1109 3886 
Q 897 3688 897 3434 
Q 897 3241 1031 3081 
Q 1225 2847 1953 2456 
Q 2547 2138 2764 1967 
Q 2981 1797 3098 1565 
Q 3216 1334 3216 1081 
Q 3216 600 2842 251 
Q 2469 -97 1881 -97 
Q 1697 -97 1534 -69 
Q 1438 -53 1133 45 
Q 828 144 747 144 
Q 669 144 623 97 
Q 578 50 556 -97 
L 441 -97 
L 441 1356 
L 556 1356 
Q 638 900 775 673 
Q 913 447 1195 297 
Q 1478 147 1816 147 
Q 2206 147 2432 353 
Q 2659 559 2659 841 
Q 2659 997 2573 1156 
Q 2488 1316 2306 1453 
Q 2184 1547 1640 1851 
Q 1097 2156 867 2337 
Q 638 2519 519 2737 
Q 400 2956 400 3219 
Q 400 3675 750 4004 
Q 1100 4334 1641 4334 
Q 1978 4334 2356 4169 
Q 2531 4091 2603 4091 
Q 2684 4091 2736 4139 
Q 2788 4188 2819 4334 
L 2934 4334 
z
" transform="scale(0.015625)"/>
        <path id="TimesNewRomanPSMT-70" d="M -6 2578 
L 875 2934 
L 994 2934 
L 994 2266 
Q 1216 2644 1439 2795 
Q 1663 2947 1909 2947 
Q 2341 2947 2628 2609 
Q 2981 2197 2981 1534 
Q 2981 794 2556 309 
Q 2206 -88 1675 -88 
Q 1444 -88 1275 -22 
Q 1150 25 994 166 
L 994 -706 
Q 994 -1000 1030 -1079 
Q 1066 -1159 1155 -1206 
Q 1244 -1253 1478 -1253 
L 1478 -1369 
L -22 -1369 
L -22 -1253 
L 56 -1253 
Q 228 -1256 350 -1188 
Q 409 -1153 442 -1076 
Q 475 -1000 475 -688 
L 475 2019 
Q 475 2297 450 2372 
Q 425 2447 370 2484 
Q 316 2522 222 2522 
Q 147 2522 31 2478 
L -6 2578 
z
M 994 2081 
L 994 1013 
Q 994 666 1022 556 
Q 1066 375 1236 237 
Q 1406 100 1666 100 
Q 1978 100 2172 344 
Q 2425 663 2425 1241 
Q 2425 1897 2138 2250 
Q 1938 2494 1663 2494 
Q 1513 2494 1366 2419 
Q 1253 2363 994 2081 
z
" transform="scale(0.015625)"/>
        <path id="TimesNewRomanPSMT-69" d="M 928 4444 
Q 1059 4444 1151 4351 
Q 1244 4259 1244 4128 
Q 1244 3997 1151 3903 
Q 1059 3809 928 3809 
Q 797 3809 703 3903 
Q 609 3997 609 4128 
Q 609 4259 701 4351 
Q 794 4444 928 4444 
z
M 1188 2947 
L 1188 647 
Q 1188 378 1227 289 
Q 1266 200 1342 156 
Q 1419 113 1622 113 
L 1622 0 
L 231 0 
L 231 113 
Q 441 113 512 153 
Q 584 194 626 287 
Q 669 381 669 647 
L 669 1750 
Q 669 2216 641 2353 
Q 619 2453 572 2492 
Q 525 2531 444 2531 
Q 356 2531 231 2484 
L 188 2597 
L 1050 2947 
L 1188 2947 
z
" transform="scale(0.015625)"/>
        <path id="TimesNewRomanPSMT-67" d="M 966 1044 
Q 703 1172 562 1401 
Q 422 1631 422 1909 
Q 422 2334 742 2640 
Q 1063 2947 1563 2947 
Q 1972 2947 2272 2747 
L 2878 2747 
Q 3013 2747 3034 2739 
Q 3056 2731 3066 2713 
Q 3084 2684 3084 2613 
Q 3084 2531 3069 2500 
Q 3059 2484 3036 2475 
Q 3013 2466 2878 2466 
L 2506 2466 
Q 2681 2241 2681 1891 
Q 2681 1491 2375 1206 
Q 2069 922 1553 922 
Q 1341 922 1119 984 
Q 981 866 932 777 
Q 884 688 884 625 
Q 884 572 936 522 
Q 988 472 1138 450 
Q 1225 438 1575 428 
Q 2219 413 2409 384 
Q 2700 344 2873 169 
Q 3047 -6 3047 -263 
Q 3047 -616 2716 -925 
Q 2228 -1381 1444 -1381 
Q 841 -1381 425 -1109 
Q 191 -953 191 -784 
Q 191 -709 225 -634 
Q 278 -519 444 -313 
Q 466 -284 763 25 
Q 600 122 533 198 
Q 466 275 466 372 
Q 466 481 555 628 
Q 644 775 966 1044 
z
M 1509 2797 
Q 1278 2797 1122 2612 
Q 966 2428 966 2047 
Q 966 1553 1178 1281 
Q 1341 1075 1591 1075 
Q 1828 1075 1981 1253 
Q 2134 1431 2134 1813 
Q 2134 2309 1919 2591 
Q 1759 2797 1509 2797 
z
M 934 0 
Q 788 -159 713 -296 
Q 638 -434 638 -550 
Q 638 -700 819 -813 
Q 1131 -1006 1722 -1006 
Q 2284 -1006 2551 -807 
Q 2819 -609 2819 -384 
Q 2819 -222 2659 -153 
Q 2497 -84 2016 -72 
Q 1313 -53 934 0 
z
" transform="scale(0.015625)"/>
        <path id="TimesNewRomanPSMT-66" d="M 1319 2638 
L 1319 756 
Q 1319 356 1406 250 
Q 1522 113 1716 113 
L 1975 113 
L 1975 0 
L 266 0 
L 266 113 
L 394 113 
Q 519 113 622 175 
Q 725 238 764 344 
Q 803 450 803 756 
L 803 2638 
L 247 2638 
L 247 2863 
L 803 2863 
L 803 3050 
Q 803 3478 940 3775 
Q 1078 4072 1361 4255 
Q 1644 4438 1997 4438 
Q 2325 4438 2600 4225 
Q 2781 4084 2781 3909 
Q 2781 3816 2700 3733 
Q 2619 3650 2525 3650 
Q 2453 3650 2373 3701 
Q 2294 3753 2178 3923 
Q 2063 4094 1966 4153 
Q 1869 4213 1750 4213 
Q 1606 4213 1506 4136 
Q 1406 4059 1362 3898 
Q 1319 3738 1319 3069 
L 1319 2863 
L 2056 2863 
L 2056 2638 
L 1319 2638 
z
" transform="scale(0.015625)"/>
        <path id="TimesNewRomanPSMT-64" d="M 2222 322 
Q 2013 103 1813 7 
Q 1613 -88 1381 -88 
Q 913 -88 563 304 
Q 213 697 213 1313 
Q 213 1928 600 2439 
Q 988 2950 1597 2950 
Q 1975 2950 2222 2709 
L 2222 3238 
Q 2222 3728 2198 3840 
Q 2175 3953 2125 3993 
Q 2075 4034 2000 4034 
Q 1919 4034 1784 3984 
L 1744 4094 
L 2597 4444 
L 2738 4444 
L 2738 1134 
Q 2738 631 2761 520 
Q 2784 409 2836 365 
Q 2888 322 2956 322 
Q 3041 322 3181 375 
L 3216 266 
L 2366 -88 
L 2222 -88 
L 2222 322 
z
M 2222 541 
L 2222 2016 
Q 2203 2228 2109 2403 
Q 2016 2578 1861 2667 
Q 1706 2756 1559 2756 
Q 1284 2756 1069 2509 
Q 784 2184 784 1559 
Q 784 928 1059 592 
Q 1334 256 1672 256 
Q 1956 256 2222 541 
z
" transform="scale(0.015625)"/>
       </defs>
       <use xlink:href="#TimesNewRomanPSMT-53"/>
       <use xlink:href="#TimesNewRomanPSMT-70" x="55.615234"/>
       <use xlink:href="#TimesNewRomanPSMT-72" x="105.615234"/>
       <use xlink:href="#TimesNewRomanPSMT-69" x="138.916016"/>
       <use xlink:href="#TimesNewRomanPSMT-6e" x="166.699219"/>
       <use xlink:href="#TimesNewRomanPSMT-67" x="216.699219"/>
       <use xlink:href="#TimesNewRomanPSMT-66" x="266.699219"/>
       <use xlink:href="#TimesNewRomanPSMT-69" x="300"/>
       <use xlink:href="#TimesNewRomanPSMT-65" x="327.783203"/>
       <use xlink:href="#TimesNewRomanPSMT-6c" x="372.167969"/>
       <use xlink:href="#TimesNewRomanPSMT-64" x="399.951172"/>
      </g>
     </g>
    </g>
    <g id="xtick_4">
     <g id="line2d_4">
      <g>
       <use xlink:href="#mfb7a3a83d4" x="317.661937" y="259.854775" style="stroke: #000000; stroke-width: 0.8"/>
      </g>
     </g>
     <g id="text_4">
      <!-- Ironwood -->
      <g transform="translate(282.855048 305.738577) rotate(-45) scale(0.12 -0.12)">
       <defs>
        <path id="TimesNewRomanPSMT-49" d="M 1975 116 
L 1975 0 
L 159 0 
L 159 116 
L 309 116 
Q 572 116 691 269 
Q 766 369 766 750 
L 766 3488 
Q 766 3809 725 3913 
Q 694 3991 597 4047 
Q 459 4122 309 4122 
L 159 4122 
L 159 4238 
L 1975 4238 
L 1975 4122 
L 1822 4122 
Q 1563 4122 1444 3969 
Q 1366 3869 1366 3488 
L 1366 750 
Q 1366 428 1406 325 
Q 1438 247 1538 191 
Q 1672 116 1822 116 
L 1975 116 
z
" transform="scale(0.015625)"/>
        <path id="TimesNewRomanPSMT-6f" d="M 1600 2947 
Q 2250 2947 2644 2453 
Q 2978 2031 2978 1484 
Q 2978 1100 2793 706 
Q 2609 313 2286 112 
Q 1963 -88 1566 -88 
Q 919 -88 538 428 
Q 216 863 216 1403 
Q 216 1797 411 2186 
Q 606 2575 925 2761 
Q 1244 2947 1600 2947 
z
M 1503 2744 
Q 1338 2744 1170 2645 
Q 1003 2547 900 2300 
Q 797 2053 797 1666 
Q 797 1041 1045 587 
Q 1294 134 1700 134 
Q 2003 134 2200 384 
Q 2397 634 2397 1244 
Q 2397 2006 2069 2444 
Q 1847 2744 1503 2744 
z
" transform="scale(0.015625)"/>
        <path id="TimesNewRomanPSMT-77" d="M 41 2863 
L 1241 2863 
L 1241 2747 
Q 1075 2734 1023 2687 
Q 972 2641 972 2553 
Q 972 2456 1025 2319 
L 1638 672 
L 2253 2013 
L 2091 2434 
Q 2016 2622 1894 2694 
Q 1825 2738 1638 2747 
L 1638 2863 
L 3000 2863 
L 3000 2747 
Q 2775 2738 2681 2666 
Q 2619 2616 2619 2506 
Q 2619 2444 2644 2378 
L 3294 734 
L 3897 2319 
Q 3959 2488 3959 2588 
Q 3959 2647 3898 2694 
Q 3838 2741 3659 2747 
L 3659 2863 
L 4563 2863 
L 4563 2747 
Q 4291 2706 4163 2378 
L 3206 -88 
L 3078 -88 
L 2363 1741 
L 1528 -88 
L 1413 -88 
L 494 2319 
Q 403 2547 315 2626 
Q 228 2706 41 2747 
L 41 2863 
z
" transform="scale(0.015625)"/>
       </defs>
       <use xlink:href="#TimesNewRomanPSMT-49"/>
       <use xlink:href="#TimesNewRomanPSMT-72" x="33.300781"/>
       <use xlink:href="#TimesNewRomanPSMT-6f" x="66.601562"/>
       <use xlink:href="#TimesNewRomanPSMT-6e" x="116.601562"/>
       <use xlink:href="#TimesNewRomanPSMT-77" x="166.601562"/>
       <use xlink:href="#TimesNewRomanPSMT-6f" x="238.818359"/>
       <use xlink:href="#TimesNewRomanPSMT-6f" x="288.818359"/>
       <use xlink:href="#TimesNewRomanPSMT-64" x="338.818359"/>
      </g>
     </g>
    </g>
    <g id="xtick_5">
     <g id="line2d_5">
      <g>
       <use xlink:href="#mfb7a3a83d4" x="391.017937" y="259.854775" style="stroke: #000000; stroke-width: 0.8"/>
      </g>
     </g>
     <g id="text_5">
      <!-- Creston -->
      <g transform="translate(362.805703 299.143922) rotate(-45) scale(0.12 -0.12)">
       <defs>
        <path id="TimesNewRomanPSMT-43" d="M 3853 4334 
L 3950 2894 
L 3853 2894 
Q 3659 3541 3300 3825 
Q 2941 4109 2438 4109 
Q 2016 4109 1675 3895 
Q 1334 3681 1139 3212 
Q 944 2744 944 2047 
Q 944 1472 1128 1050 
Q 1313 628 1683 403 
Q 2053 178 2528 178 
Q 2941 178 3256 354 
Q 3572 531 3950 1056 
L 4047 994 
Q 3728 428 3303 165 
Q 2878 -97 2294 -97 
Q 1241 -97 663 684 
Q 231 1266 231 2053 
Q 231 2688 515 3219 
Q 800 3750 1298 4042 
Q 1797 4334 2388 4334 
Q 2847 4334 3294 4109 
Q 3425 4041 3481 4041 
Q 3566 4041 3628 4100 
Q 3709 4184 3744 4334 
L 3853 4334 
z
" transform="scale(0.015625)"/>
       </defs>
       <use xlink:href="#TimesNewRomanPSMT-43"/>
       <use xlink:href="#TimesNewRomanPSMT-72" x="66.699219"/>
       <use xlink:href="#TimesNewRomanPSMT-65" x="100"/>
       <use xlink:href="#TimesNewRomanPSMT-73" x="144.384766"/>
       <use xlink:href="#TimesNewRomanPSMT-74" x="183.300781"/>
       <use xlink:href="#TimesNewRomanPSMT-6f" x="211.083984"/>
       <use xlink:href="#TimesNewRomanPSMT-6e" x="261.083984"/>
      </g>
     </g>
    </g>
   </g>
   <g id="matplotlib.axis_2">
    <g id="ytick_1">
     <g id="line2d_6">
      <defs>
       <path id="me58b18904a" d="M 0 0 
L -3.5 0 
" style="stroke: #000000; stroke-width: 0.8"/>
      </defs>
      <g>
       <use xlink:href="#me58b18904a" x="60.915938" y="230.471698" style="stroke: #000000; stroke-width: 0.8"/>
      </g>
     </g>
     <g id="text_6">
      <!-- 40000 -->
      <g transform="translate(28.915938 233.943573) scale(0.1 -0.1)">
       <defs>
        <path id="TimesNewRomanPSMT-34" d="M 2978 1563 
L 2978 1119 
L 2409 1119 
L 2409 0 
L 1894 0 
L 1894 1119 
L 100 1119 
L 100 1519 
L 2066 4325 
L 2409 4325 
L 2409 1563 
L 2978 1563 
z
M 1894 1563 
L 1894 3666 
L 406 1563 
L 1894 1563 
z
" transform="scale(0.015625)"/>
        <path id="TimesNewRomanPSMT-30" d="M 231 2094 
Q 231 2819 450 3342 
Q 669 3866 1031 4122 
Q 1313 4325 1613 4325 
Q 2100 4325 2488 3828 
Q 2972 3213 2972 2159 
Q 2972 1422 2759 906 
Q 2547 391 2217 158 
Q 1888 -75 1581 -75 
Q 975 -75 572 641 
Q 231 1244 231 2094 
z
M 844 2016 
Q 844 1141 1059 588 
Q 1238 122 1591 122 
Q 1759 122 1940 273 
Q 2122 425 2216 781 
Q 2359 1319 2359 2297 
Q 2359 3022 2209 3506 
Q 2097 3866 1919 4016 
Q 1791 4119 1609 4119 
Q 1397 4119 1231 3928 
Q 1006 3669 925 3112 
Q 844 2556 844 2016 
z
" transform="scale(0.015625)"/>
       </defs>
       <use xlink:href="#TimesNewRomanPSMT-34"/>
       <use xlink:href="#TimesNewRomanPSMT-30" x="50"/>
       <use xlink:href="#TimesNewRomanPSMT-30" x="100"/>
       <use xlink:href="#TimesNewRomanPSMT-30" x="150"/>
       <use xlink:href="#TimesNewRomanPSMT-30" x="200"/>
      </g>
     </g>
    </g>
    <g id="ytick_2">
     <g id="line2d_7">
      <g>
       <use xlink:href="#me58b18904a" x="60.915938" y="197.551788" style="stroke: #000000; stroke-width: 0.8"/>
      </g>
     </g>
     <g id="text_7">
      <!-- 60000 -->
      <g transform="translate(28.915938 201.023663) scale(0.1 -0.1)">
       <defs>
        <path id="TimesNewRomanPSMT-36" d="M 2869 4325 
L 2869 4209 
Q 2456 4169 2195 4045 
Q 1934 3922 1679 3669 
Q 1425 3416 1258 3105 
Q 1091 2794 978 2366 
Q 1428 2675 1881 2675 
Q 2316 2675 2634 2325 
Q 2953 1975 2953 1425 
Q 2953 894 2631 456 
Q 2244 -75 1606 -75 
Q 1172 -75 869 213 
Q 275 772 275 1663 
Q 275 2231 503 2743 
Q 731 3256 1154 3653 
Q 1578 4050 1965 4187 
Q 2353 4325 2688 4325 
L 2869 4325 
z
M 925 2138 
Q 869 1716 869 1456 
Q 869 1156 980 804 
Q 1091 453 1309 247 
Q 1469 100 1697 100 
Q 1969 100 2183 356 
Q 2397 613 2397 1088 
Q 2397 1622 2184 2012 
Q 1972 2403 1581 2403 
Q 1463 2403 1327 2353 
Q 1191 2303 925 2138 
z
" transform="scale(0.015625)"/>
       </defs>
       <use xlink:href="#TimesNewRomanPSMT-36"/>
       <use xlink:href="#TimesNewRomanPSMT-30" x="50"/>
       <use xlink:href="#TimesNewRomanPSMT-30" x="100"/>
       <use xlink:href="#TimesNewRomanPSMT-30" x="150"/>
       <use xlink:href="#TimesNewRomanPSMT-30" x="200"/>
      </g>
     </g>
    </g>
    <g id="ytick_3">
     <g id="line2d_8">
      <g>
       <use xlink:href="#me58b18904a" x="60.915938" y="164.631879" style="stroke: #000000; stroke-width: 0.8"/>
      </g>
     </g>
     <g id="text_8">
      <!-- 80000 -->
      <g transform="translate(28.915938 168.103754) scale(0.1 -0.1)">
       <defs>
        <path id="TimesNewRomanPSMT-38" d="M 1228 2134 
Q 725 2547 579 2797 
Q 434 3047 434 3316 
Q 434 3728 753 4026 
Q 1072 4325 1600 4325 
Q 2113 4325 2425 4047 
Q 2738 3769 2738 3413 
Q 2738 3175 2569 2928 
Q 2400 2681 1866 2347 
Q 2416 1922 2594 1678 
Q 2831 1359 2831 1006 
Q 2831 559 2490 242 
Q 2150 -75 1597 -75 
Q 994 -75 656 303 
Q 388 606 388 966 
Q 388 1247 577 1523 
Q 766 1800 1228 2134 
z
M 1719 2469 
Q 2094 2806 2194 3001 
Q 2294 3197 2294 3444 
Q 2294 3772 2109 3958 
Q 1925 4144 1606 4144 
Q 1288 4144 1088 3959 
Q 888 3775 888 3528 
Q 888 3366 970 3203 
Q 1053 3041 1206 2894 
L 1719 2469 
z
M 1375 2016 
Q 1116 1797 991 1539 
Q 866 1281 866 981 
Q 866 578 1086 336 
Q 1306 94 1647 94 
Q 1984 94 2187 284 
Q 2391 475 2391 747 
Q 2391 972 2272 1150 
Q 2050 1481 1375 2016 
z
" transform="scale(0.015625)"/>
       </defs>
       <use xlink:href="#TimesNewRomanPSMT-38"/>
       <use xlink:href="#TimesNewRomanPSMT-30" x="50"/>
       <use xlink:href="#TimesNewRomanPSMT-30" x="100"/>
       <use xlink:href="#TimesNewRomanPSMT-30" x="150"/>
       <use xlink:href="#TimesNewRomanPSMT-30" x="200"/>
      </g>
     </g>
    </g>
    <g id="ytick_4">
     <g id="line2d_9">
      <g>
       <use xlink:href="#me58b18904a" x="60.915938" y="131.711969" style="stroke: #000000; stroke-width: 0.8"/>
      </g>
     </g>
     <g id="text_9">
      <!-- 100000 -->
      <g transform="translate(23.915938 135.183844) scale(0.1 -0.1)">
       <defs>
        <path id="TimesNewRomanPSMT-31" d="M 750 3822 
L 1781 4325 
L 1884 4325 
L 1884 747 
Q 1884 391 1914 303 
Q 1944 216 2037 169 
Q 2131 122 2419 116 
L 2419 0 
L 825 0 
L 825 116 
Q 1125 122 1212 167 
Q 1300 213 1334 289 
Q 1369 366 1369 747 
L 1369 3034 
Q 1369 3497 1338 3628 
Q 1316 3728 1258 3775 
Q 1200 3822 1119 3822 
Q 1003 3822 797 3725 
L 750 3822 
z
" transform="scale(0.015625)"/>
       </defs>
       <use xlink:href="#TimesNewRomanPSMT-31"/>
       <use xlink:href="#TimesNewRomanPSMT-30" x="50"/>
       <use xlink:href="#TimesNewRomanPSMT-30" x="100"/>
       <use xlink:href="#TimesNewRomanPSMT-30" x="150"/>
       <use xlink:href="#TimesNewRomanPSMT-30" x="200"/>
       <use xlink:href="#TimesNewRomanPSMT-30" x="250"/>
      </g>
     </g>
    </g>
    <g id="ytick_5">
     <g id="line2d_10">
      <g>
       <use xlink:href="#me58b18904a" x="60.915938" y="98.792059" style="stroke: #000000; stroke-width: 0.8"/>
      </g>
     </g>
     <g id="text_10">
      <!-- 120000 -->
      <g transform="translate(23.915938 102.263934) scale(0.1 -0.1)">
       <defs>
        <path id="TimesNewRomanPSMT-32" d="M 2934 816 
L 2638 0 
L 138 0 
L 138 116 
Q 1241 1122 1691 1759 
Q 2141 2397 2141 2925 
Q 2141 3328 1894 3587 
Q 1647 3847 1303 3847 
Q 991 3847 742 3664 
Q 494 3481 375 3128 
L 259 3128 
Q 338 3706 661 4015 
Q 984 4325 1469 4325 
Q 1984 4325 2329 3994 
Q 2675 3663 2675 3213 
Q 2675 2891 2525 2569 
Q 2294 2063 1775 1497 
Q 997 647 803 472 
L 1909 472 
Q 2247 472 2383 497 
Q 2519 522 2628 598 
Q 2738 675 2819 816 
L 2934 816 
z
" transform="scale(0.015625)"/>
       </defs>
       <use xlink:href="#TimesNewRomanPSMT-31"/>
       <use xlink:href="#TimesNewRomanPSMT-32" x="50"/>
       <use xlink:href="#TimesNewRomanPSMT-30" x="100"/>
       <use xlink:href="#TimesNewRomanPSMT-30" x="150"/>
       <use xlink:href="#TimesNewRomanPSMT-30" x="200"/>
       <use xlink:href="#TimesNewRomanPSMT-30" x="250"/>
      </g>
     </g>
    </g>
    <g id="ytick_6">
     <g id="line2d_11">
      <g>
       <use xlink:href="#me58b18904a" x="60.915938" y="65.872149" style="stroke: #000000; stroke-width: 0.8"/>
      </g>
     </g>
     <g id="text_11">
      <!-- 140000 -->
      <g transform="translate(23.915938 69.344024) scale(0.1 -0.1)">
       <use xlink:href="#TimesNewRomanPSMT-31"/>
       <use xlink:href="#TimesNewRomanPSMT-34" x="50"/>
       <use xlink:href="#TimesNewRomanPSMT-30" x="100"/>
       <use xlink:href="#TimesNewRomanPSMT-30" x="150"/>
       <use xlink:href="#TimesNewRomanPSMT-30" x="200"/>
       <use xlink:href="#TimesNewRomanPSMT-30" x="250"/>
      </g>
     </g>
    </g>
    <g id="ytick_7">
     <g id="line2d_12">
      <g>
       <use xlink:href="#me58b18904a" x="60.915938" y="32.95224" style="stroke: #000000; stroke-width: 0.8"/>
      </g>
     </g>
     <g id="text_12">
      <!-- 160000 -->
      <g transform="translate(23.915938 36.424115) scale(0.1 -0.1)">
       <use xlink:href="#TimesNewRomanPSMT-31"/>
       <use xlink:href="#TimesNewRomanPSMT-36" x="50"/>
       <use xlink:href="#TimesNewRomanPSMT-30" x="100"/>
       <use xlink:href="#TimesNewRomanPSMT-30" x="150"/>
       <use xlink:href="#TimesNewRomanPSMT-30" x="200"/>
       <use xlink:href="#TimesNewRomanPSMT-30" x="250"/>
      </g>
     </g>
    </g>
    <g id="text_13">
     <!-- tons -->
     <g transform="translate(16.92125 156.619106) rotate(-90) scale(0.14 -0.14)">
      <use xlink:href="#TimesNewRomanPSMT-74"/>
      <use xlink:href="#TimesNewRomanPSMT-6f" x="27.783203"/>
      <use xlink:href="#TimesNewRomanPSMT-6e" x="77.783203"/>
      <use xlink:href="#TimesNewRomanPSMT-73" x="127.783203"/>
     </g>
    </g>
   </g>
   <g id="patch_3">
    <path d="M 93.192577 230.215746 
L 101.995297 230.215746 
L 101.995297 180.713254 
L 93.192577 180.713254 
L 93.192577 230.215746 
L 93.192577 230.215746 
z
" clip-path="url(#p8f7c627604)" style="fill: none; stroke: #000000; stroke-linejoin: miter"/>
   </g>
   <g id="line2d_13">
    <path d="M 97.593938 230.215746 
L 97.593938 243.274251 
" clip-path="url(#p8f7c627604)" style="fill: none; stroke: #000000; stroke-linecap: square"/>
   </g>
   <g id="line2d_14">
    <path d="M 97.593938 180.713254 
L 97.593938 112.440654 
" clip-path="url(#p8f7c627604)" style="fill: none; stroke: #000000; stroke-linecap: square"/>
   </g>
   <g id="line2d_15">
    <path d="M 95.393258 243.274251 
L 99.794618 243.274251 
" clip-path="url(#p8f7c627604)" style="fill: none; stroke: #000000; stroke-linecap: square"/>
   </g>
   <g id="line2d_16">
    <path d="M 95.393258 112.440654 
L 99.794618 112.440654 
" clip-path="url(#p8f7c627604)" style="fill: none; stroke: #000000; stroke-linecap: square"/>
   </g>
   <g id="patch_4">
    <path d="M 166.548577 221.941738 
L 175.351298 221.941738 
L 175.351298 187.957692 
L 166.548577 187.957692 
L 166.548577 221.941738 
L 166.548577 221.941738 
z
" clip-path="url(#p8f7c627604)" style="fill: none; stroke: #000000; stroke-linejoin: miter"/>
   </g>
   <g id="line2d_17">
    <path d="M 170.949938 221.941738 
L 170.949938 248.771876 
" clip-path="url(#p8f7c627604)" style="fill: none; stroke: #000000; stroke-linecap: square"/>
   </g>
   <g id="line2d_18">
    <path d="M 170.949938 187.957692 
L 170.949938 143.831434 
" clip-path="url(#p8f7c627604)" style="fill: none; stroke: #000000; stroke-linecap: square"/>
   </g>
   <g id="line2d_19">
    <path d="M 168.749257 248.771876 
L 173.150617 248.771876 
" clip-path="url(#p8f7c627604)" style="fill: none; stroke: #000000; stroke-linecap: square"/>
   </g>
   <g id="line2d_20">
    <path d="M 168.749257 143.831434 
L 173.150617 143.831434 
" clip-path="url(#p8f7c627604)" style="fill: none; stroke: #000000; stroke-linecap: square"/>
   </g>
   <g id="patch_5">
    <path d="M 239.904577 217.136666 
L 248.707298 217.136666 
L 248.707298 175.008646 
L 239.904577 175.008646 
L 239.904577 217.136666 
L 239.904577 217.136666 
z
" clip-path="url(#p8f7c627604)" style="fill: none; stroke: #000000; stroke-linejoin: miter"/>
   </g>
   <g id="line2d_21">
    <path d="M 244.305937 217.136666 
L 244.305937 238.015295 
" clip-path="url(#p8f7c627604)" style="fill: none; stroke: #000000; stroke-linecap: square"/>
   </g>
   <g id="line2d_22">
    <path d="M 244.305937 175.008646 
L 244.305937 121.333967 
" clip-path="url(#p8f7c627604)" style="fill: none; stroke: #000000; stroke-linecap: square"/>
   </g>
   <g id="line2d_23">
    <path d="M 242.105258 238.015295 
L 246.506617 238.015295 
" clip-path="url(#p8f7c627604)" style="fill: none; stroke: #000000; stroke-linecap: square"/>
   </g>
   <g id="line2d_24">
    <path d="M 242.105258 121.333967 
L 246.506617 121.333967 
" clip-path="url(#p8f7c627604)" style="fill: none; stroke: #000000; stroke-linecap: square"/>
   </g>
   <g id="patch_6">
    <path d="M 313.260577 226.556698 
L 322.063297 226.556698 
L 322.063297 181.316923 
L 313.260577 181.316923 
L 313.260577 226.556698 
L 313.260577 226.556698 
z
" clip-path="url(#p8f7c627604)" style="fill: none; stroke: #000000; stroke-linejoin: miter"/>
   </g>
   <g id="line2d_25">
    <path d="M 317.661937 226.556698 
L 317.661937 248.004842 
" clip-path="url(#p8f7c627604)" style="fill: none; stroke: #000000; stroke-linecap: square"/>
   </g>
   <g id="line2d_26">
    <path d="M 317.661937 181.316923 
L 317.661937 114.239727 
" clip-path="url(#p8f7c627604)" style="fill: none; stroke: #000000; stroke-linecap: square"/>
   </g>
   <g id="line2d_27">
    <path d="M 315.461257 248.004842 
L 319.862617 248.004842 
" clip-path="url(#p8f7c627604)" style="fill: none; stroke: #000000; stroke-linecap: square"/>
   </g>
   <g id="line2d_28">
    <path d="M 315.461257 114.239727 
L 319.862617 114.239727 
" clip-path="url(#p8f7c627604)" style="fill: none; stroke: #000000; stroke-linecap: square"/>
   </g>
   <g id="patch_7">
    <path d="M 386.616578 221.740515 
L 395.419297 221.740515 
L 395.419297 189.583113 
L 386.616578 189.583113 
L 386.616578 221.740515 
L 386.616578 221.740515 
z
" clip-path="url(#p8f7c627604)" style="fill: none; stroke: #000000; stroke-linejoin: miter"/>
   </g>
   <g id="line2d_29">
    <path d="M 391.017937 221.740515 
L 391.017937 249.408876 
" clip-path="url(#p8f7c627604)" style="fill: none; stroke: #000000; stroke-linecap: square"/>
   </g>
   <g id="line2d_30">
    <path d="M 391.017937 189.583113 
L 391.017937 145.414881 
" clip-path="url(#p8f7c627604)" style="fill: none; stroke: #000000; stroke-linecap: square"/>
   </g>
   <g id="line2d_31">
    <path d="M 388.817257 249.408876 
L 393.218617 249.408876 
" clip-path="url(#p8f7c627604)" style="fill: none; stroke: #000000; stroke-linecap: square"/>
   </g>
   <g id="line2d_32">
    <path d="M 388.817257 145.414881 
L 393.218617 145.414881 
" clip-path="url(#p8f7c627604)" style="fill: none; stroke: #000000; stroke-linecap: square"/>
   </g>
   <g id="line2d_33">
    <path d="M 93.192577 206.922441 
L 101.995297 206.922441 
" clip-path="url(#p8f7c627604)" style="fill: none; stroke: #000000; stroke-width: 1.5; stroke-linecap: square"/>
   </g>
   <g id="line2d_34">
    <path d="M 166.548577 212.415951 
L 175.351298 212.415951 
" clip-path="url(#p8f7c627604)" style="fill: none; stroke: #000000; stroke-width: 1.5; stroke-linecap: square"/>
   </g>
   <g id="line2d_35">
    <path d="M 239.904577 199.996092 
L 248.707298 199.996092 
" clip-path="url(#p8f7c627604)" style="fill: none; stroke: #000000; stroke-width: 1.5; stroke-linecap: square"/>
   </g>
   <g id="line2d_36">
    <path d="M 313.260577 205.811394 
L 322.063297 205.811394 
" clip-path="url(#p8f7c627604)" style="fill: none; stroke: #000000; stroke-width: 1.5; stroke-linecap: square"/>
   </g>
   <g id="line2d_37">
    <path d="M 386.616578 206.11508 
L 395.419297 206.11508 
" clip-path="url(#p8f7c627604)" style="fill: none; stroke: #000000; stroke-width: 1.5; stroke-linecap: square"/>
   </g>
   <g id="patch_8">
    <path d="M 60.915938 259.854775 
L 60.915938 30.045 
" style="fill: none; stroke: #000000; stroke-linejoin: miter; stroke-linecap: square"/>
   </g>
   <g id="patch_9">
    <path d="M 427.695937 259.854775 
L 427.695937 30.045 
" style="fill: none; stroke: #000000; stroke-linejoin: miter; stroke-linecap: square"/>
   </g>
   <g id="patch_10">
    <path d="M 60.915938 259.854775 
L 427.695937 259.854775 
" style="fill: none; stroke: #000000; stroke-linejoin: miter; stroke-linecap: square"/>
   </g>
   <g id="patch_11">
    <path d="M 60.915938 30.045 
L 427.695937 30.045 
" style="fill: none; stroke: #000000; stroke-linejoin: miter; stroke-linecap: square"/>
   </g>
   <g id="text_14">
    <!-- Data on the volume of fruit transportation in cities (tons) -->
    <g transform="translate(50.325937 18.045) scale(0.16 -0.16)">
     <defs>
      <path id="TimesNewRomanPS-BoldMT-44" d="M 84 0 
L 84 116 
L 225 116 
Q 409 116 507 173 
Q 606 231 653 331 
Q 681 397 681 725 
L 681 3513 
Q 681 3838 647 3919 
Q 613 4000 508 4061 
Q 403 4122 225 4122 
L 84 4122 
L 84 4238 
L 1981 4238 
Q 2741 4238 3203 4031 
Q 3769 3778 4061 3265 
Q 4353 2753 4353 2106 
Q 4353 1659 4209 1282 
Q 4066 906 3837 661 
Q 3609 416 3311 267 
Q 3013 119 2581 38 
Q 2391 0 1981 0 
L 84 0 
z
M 1700 3997 
L 1700 691 
Q 1700 428 1725 368 
Q 1750 309 1809 278 
Q 1894 231 2053 231 
Q 2575 231 2850 588 
Q 3225 1069 3225 2081 
Q 3225 2897 2969 3384 
Q 2766 3766 2447 3903 
Q 2222 4000 1700 3997 
z
" transform="scale(0.015625)"/>
      <path id="TimesNewRomanPS-BoldMT-61" d="M 1828 431 
Q 1294 -41 869 -41 
Q 619 -41 453 123 
Q 288 288 288 534 
Q 288 869 575 1136 
Q 863 1403 1828 1847 
L 1828 2141 
Q 1828 2472 1792 2558 
Q 1756 2644 1656 2708 
Q 1556 2772 1431 2772 
Q 1228 2772 1097 2681 
Q 1016 2625 1016 2550 
Q 1016 2484 1103 2388 
Q 1222 2253 1222 2128 
Q 1222 1975 1108 1867 
Q 994 1759 809 1759 
Q 613 1759 480 1878 
Q 347 1997 347 2156 
Q 347 2381 525 2586 
Q 703 2791 1022 2900 
Q 1341 3009 1684 3009 
Q 2100 3009 2342 2832 
Q 2584 2656 2656 2450 
Q 2700 2319 2700 1847 
L 2700 713 
Q 2700 513 2715 461 
Q 2731 409 2762 384 
Q 2794 359 2834 359 
Q 2916 359 3000 475 
L 3094 400 
Q 2938 169 2770 64 
Q 2603 -41 2391 -41 
Q 2141 -41 2000 76 
Q 1859 194 1828 431 
z
M 1828 659 
L 1828 1638 
Q 1450 1416 1266 1163 
Q 1144 994 1144 822 
Q 1144 678 1247 569 
Q 1325 484 1466 484 
Q 1622 484 1828 659 
z
" transform="scale(0.015625)"/>
      <path id="TimesNewRomanPS-BoldMT-74" d="M 1375 3991 
L 1375 2922 
L 2069 2922 
L 2069 2613 
L 1375 2613 
L 1375 809 
Q 1375 556 1398 482 
Q 1422 409 1481 364 
Q 1541 319 1591 319 
Q 1794 319 1975 628 
L 2069 559 
Q 1816 -41 1247 -41 
Q 969 -41 776 114 
Q 584 269 531 459 
Q 500 566 500 1034 
L 500 2613 
L 119 2613 
L 119 2722 
Q 513 3000 789 3306 
Q 1066 3613 1272 3991 
L 1375 3991 
z
" transform="scale(0.015625)"/>
      <path id="TimesNewRomanPS-BoldMT-20" transform="scale(0.015625)"/>
      <path id="TimesNewRomanPS-BoldMT-6f" d="M 1594 3009 
Q 1975 3009 2303 2812 
Q 2631 2616 2801 2253 
Q 2972 1891 2972 1459 
Q 2972 838 2656 419 
Q 2275 -88 1603 -88 
Q 944 -88 587 375 
Q 231 838 231 1447 
Q 231 2075 595 2542 
Q 959 3009 1594 3009 
z
M 1606 2788 
Q 1447 2788 1333 2667 
Q 1219 2547 1183 2192 
Q 1147 1838 1147 1206 
Q 1147 872 1191 581 
Q 1225 359 1337 243 
Q 1450 128 1594 128 
Q 1734 128 1828 206 
Q 1950 313 1991 503 
Q 2053 800 2053 1703 
Q 2053 2234 1993 2432 
Q 1934 2631 1819 2722 
Q 1738 2788 1606 2788 
z
" transform="scale(0.015625)"/>
      <path id="TimesNewRomanPS-BoldMT-6e" d="M 1409 2922 
L 1409 2544 
Q 1634 2788 1840 2898 
Q 2047 3009 2284 3009 
Q 2569 3009 2756 2851 
Q 2944 2694 3006 2459 
Q 3056 2281 3056 1775 
L 3056 638 
Q 3056 300 3117 217 
Q 3178 134 3372 113 
L 3372 0 
L 1894 0 
L 1894 113 
Q 2059 134 2131 250 
Q 2181 328 2181 638 
L 2181 1938 
Q 2181 2297 2153 2390 
Q 2125 2484 2058 2536 
Q 1991 2588 1909 2588 
Q 1641 2588 1409 2203 
L 1409 638 
Q 1409 309 1470 221 
Q 1531 134 1697 113 
L 1697 0 
L 219 0 
L 219 113 
Q 403 131 481 231 
Q 534 300 534 638 
L 534 2288 
Q 534 2619 473 2700 
Q 413 2781 219 2806 
L 219 2922 
L 1409 2922 
z
" transform="scale(0.015625)"/>
      <path id="TimesNewRomanPS-BoldMT-68" d="M 1409 4238 
L 1409 2547 
Q 1650 2800 1850 2904 
Q 2050 3009 2266 3009 
Q 2541 3009 2736 2853 
Q 2931 2697 2995 2486 
Q 3059 2275 3059 1775 
L 3059 634 
Q 3059 300 3121 217 
Q 3184 134 3375 113 
L 3375 0 
L 1894 0 
L 1894 113 
Q 2050 134 2128 238 
Q 2184 319 2184 634 
L 2184 1938 
Q 2184 2300 2156 2392 
Q 2128 2484 2061 2536 
Q 1994 2588 1909 2588 
Q 1784 2588 1665 2502 
Q 1547 2416 1409 2200 
L 1409 634 
Q 1409 322 1456 244 
Q 1516 138 1700 113 
L 1700 0 
L 219 0 
L 219 113 
Q 403 131 481 231 
Q 534 300 534 634 
L 534 3603 
Q 534 3934 473 4015 
Q 413 4097 219 4122 
L 219 4238 
L 1409 4238 
z
" transform="scale(0.015625)"/>
      <path id="TimesNewRomanPS-BoldMT-65" d="M 2691 1566 
L 1088 1566 
Q 1116 984 1397 647 
Q 1613 388 1916 388 
Q 2103 388 2256 492 
Q 2409 597 2584 869 
L 2691 800 
Q 2453 316 2165 114 
Q 1878 -88 1500 -88 
Q 850 -88 516 413 
Q 247 816 247 1413 
Q 247 2144 642 2576 
Q 1038 3009 1569 3009 
Q 2013 3009 2339 2645 
Q 2666 2281 2691 1566 
z
M 1922 1775 
Q 1922 2278 1867 2465 
Q 1813 2653 1697 2750 
Q 1631 2806 1522 2806 
Q 1359 2806 1256 2647 
Q 1072 2369 1072 1884 
L 1072 1775 
L 1922 1775 
z
" transform="scale(0.015625)"/>
      <path id="TimesNewRomanPS-BoldMT-76" d="M 1534 -88 
L 550 2178 
Q 372 2588 272 2697 
Q 200 2778 59 2806 
L 59 2922 
L 1613 2922 
L 1613 2806 
Q 1466 2806 1413 2753 
Q 1338 2684 1338 2591 
Q 1338 2475 1475 2156 
L 1956 1059 
L 2341 2006 
Q 2506 2413 2506 2581 
Q 2506 2678 2436 2739 
Q 2366 2800 2188 2806 
L 2188 2922 
L 3144 2922 
L 3144 2806 
Q 3006 2788 2918 2703 
Q 2831 2619 2656 2206 
L 1681 -88 
L 1534 -88 
z
" transform="scale(0.015625)"/>
      <path id="TimesNewRomanPS-BoldMT-6c" d="M 1359 4238 
L 1359 606 
Q 1359 297 1431 211 
Q 1503 125 1713 113 
L 1713 0 
L 134 0 
L 134 113 
Q 328 119 422 225 
Q 484 297 484 606 
L 484 3631 
Q 484 3938 412 4023 
Q 341 4109 134 4122 
L 134 4238 
L 1359 4238 
z
" transform="scale(0.015625)"/>
      <path id="TimesNewRomanPS-BoldMT-75" d="M 3038 2922 
L 3038 634 
Q 3038 300 3100 217 
Q 3163 134 3353 113 
L 3353 0 
L 2163 0 
L 2163 391 
Q 1953 141 1743 26 
Q 1534 -88 1275 -88 
Q 1028 -88 836 64 
Q 644 216 578 419 
Q 513 622 513 1128 
L 513 2288 
Q 513 2619 452 2700 
Q 391 2781 197 2806 
L 197 2922 
L 1388 2922 
L 1388 925 
Q 1388 613 1417 522 
Q 1447 431 1511 384 
Q 1575 338 1659 338 
Q 1772 338 1863 397 
Q 1988 478 2163 725 
L 2163 2288 
Q 2163 2619 2102 2700 
Q 2041 2781 1847 2806 
L 1847 2922 
L 3038 2922 
z
" transform="scale(0.015625)"/>
      <path id="TimesNewRomanPS-BoldMT-6d" d="M 1428 2922 
L 1428 2538 
Q 1669 2800 1873 2904 
Q 2078 3009 2322 3009 
Q 2603 3009 2793 2878 
Q 2984 2747 3088 2478 
Q 3338 2759 3567 2884 
Q 3797 3009 4047 3009 
Q 4350 3009 4529 2870 
Q 4709 2731 4779 2517 
Q 4850 2303 4850 1834 
L 4850 638 
Q 4850 300 4911 219 
Q 4972 138 5166 113 
L 5166 0 
L 3656 0 
L 3656 113 
Q 3834 128 3919 250 
Q 3975 334 3975 638 
L 3975 1894 
Q 3975 2284 3944 2390 
Q 3913 2497 3845 2548 
Q 3778 2600 3688 2600 
Q 3553 2600 3415 2501 
Q 3278 2403 3138 2206 
L 3138 638 
Q 3138 322 3191 241 
Q 3263 125 3466 113 
L 3466 0 
L 1953 0 
L 1953 113 
Q 2075 119 2145 173 
Q 2216 228 2239 304 
Q 2263 381 2263 638 
L 2263 1894 
Q 2263 2291 2231 2391 
Q 2200 2491 2126 2547 
Q 2053 2603 1969 2603 
Q 1844 2603 1741 2538 
Q 1594 2441 1428 2206 
L 1428 638 
Q 1428 328 1489 229 
Q 1550 131 1744 113 
L 1744 0 
L 238 0 
L 238 113 
Q 422 131 500 231 
Q 553 300 553 638 
L 553 2288 
Q 553 2619 492 2700 
Q 431 2781 238 2806 
L 238 2922 
L 1428 2922 
z
" transform="scale(0.015625)"/>
      <path id="TimesNewRomanPS-BoldMT-66" d="M 1497 2616 
L 1497 588 
Q 1497 294 1559 219 
Q 1659 103 1928 113 
L 1928 0 
L 206 0 
L 206 113 
Q 403 116 486 158 
Q 569 200 600 275 
Q 631 350 631 588 
L 631 2616 
L 206 2616 
L 206 2922 
L 631 2922 
L 631 3138 
L 628 3284 
Q 628 3734 958 4034 
Q 1288 4334 1850 4334 
Q 2234 4334 2420 4190 
Q 2606 4047 2606 3872 
Q 2606 3731 2490 3628 
Q 2375 3525 2184 3525 
Q 2022 3525 1926 3609 
Q 1831 3694 1831 3797 
Q 1831 3825 1850 3913 
Q 1863 3966 1863 4013 
Q 1863 4078 1825 4109 
Q 1775 4156 1703 4156 
Q 1613 4156 1552 4081 
Q 1491 4006 1491 3841 
L 1497 3294 
L 1497 2922 
L 1928 2922 
L 1928 2616 
L 1497 2616 
z
" transform="scale(0.015625)"/>
      <path id="TimesNewRomanPS-BoldMT-72" d="M 1428 2922 
L 1428 2259 
Q 1719 2713 1937 2861 
Q 2156 3009 2359 3009 
Q 2534 3009 2639 2901 
Q 2744 2794 2744 2597 
Q 2744 2388 2642 2272 
Q 2541 2156 2397 2156 
Q 2231 2156 2109 2262 
Q 1988 2369 1966 2381 
Q 1934 2400 1894 2400 
Q 1803 2400 1722 2331 
Q 1594 2225 1528 2028 
Q 1428 1725 1428 1359 
L 1428 688 
L 1431 513 
Q 1431 334 1453 284 
Q 1491 200 1564 161 
Q 1638 122 1813 113 
L 1813 0 
L 234 0 
L 234 113 
Q 425 128 492 217 
Q 559 306 559 688 
L 559 2303 
Q 559 2553 534 2622 
Q 503 2709 443 2750 
Q 384 2791 234 2806 
L 234 2922 
L 1428 2922 
z
" transform="scale(0.015625)"/>
      <path id="TimesNewRomanPS-BoldMT-69" d="M 919 4338 
Q 1122 4338 1262 4195 
Q 1403 4053 1403 3853 
Q 1403 3653 1261 3512 
Q 1119 3372 919 3372 
Q 719 3372 578 3512 
Q 438 3653 438 3853 
Q 438 4053 578 4195 
Q 719 4338 919 4338 
z
M 1356 2922 
L 1356 606 
Q 1356 297 1428 211 
Q 1500 125 1709 113 
L 1709 0 
L 131 0 
L 131 113 
Q 325 119 419 225 
Q 481 297 481 606 
L 481 2313 
Q 481 2622 409 2708 
Q 338 2794 131 2806 
L 131 2922 
L 1356 2922 
z
" transform="scale(0.015625)"/>
      <path id="TimesNewRomanPS-BoldMT-73" d="M 2063 3003 
L 2109 2006 
L 2003 2006 
Q 1813 2450 1608 2612 
Q 1403 2775 1200 2775 
Q 1072 2775 981 2689 
Q 891 2603 891 2491 
Q 891 2406 953 2328 
Q 1053 2200 1512 1889 
Q 1972 1578 2117 1361 
Q 2263 1144 2263 875 
Q 2263 631 2141 397 
Q 2019 163 1797 37 
Q 1575 -88 1306 -88 
Q 1097 -88 747 44 
Q 653 78 619 78 
Q 516 78 447 -78 
L 344 -78 
L 294 972 
L 400 972 
Q 541 559 786 353 
Q 1031 147 1250 147 
Q 1400 147 1495 239 
Q 1591 331 1591 463 
Q 1591 613 1497 722 
Q 1403 831 1078 1053 
Q 600 1384 459 1559 
Q 253 1816 253 2125 
Q 253 2463 486 2736 
Q 719 3009 1159 3009 
Q 1397 3009 1619 2894 
Q 1703 2847 1756 2847 
Q 1813 2847 1847 2870 
Q 1881 2894 1956 3003 
L 2063 3003 
z
" transform="scale(0.015625)"/>
      <path id="TimesNewRomanPS-BoldMT-70" d="M 1347 297 
L 1347 -791 
Q 1347 -1016 1383 -1097 
Q 1419 -1178 1494 -1215 
Q 1569 -1253 1788 -1253 
L 1788 -1369 
L 122 -1369 
L 122 -1253 
Q 316 -1247 409 -1144 
Q 472 -1072 472 -772 
L 472 2313 
Q 472 2622 400 2708 
Q 328 2794 122 2806 
L 122 2922 
L 1347 2922 
L 1347 2538 
Q 1500 2763 1659 2863 
Q 1888 3009 2156 3009 
Q 2478 3009 2742 2806 
Q 3006 2603 3143 2245 
Q 3281 1888 3281 1475 
Q 3281 1031 3139 664 
Q 2997 297 2726 104 
Q 2456 -88 2125 -88 
Q 1884 -88 1675 19 
Q 1519 100 1347 297 
z
M 1347 613 
Q 1616 231 1922 231 
Q 2091 231 2200 409 
Q 2363 672 2363 1409 
Q 2363 2166 2184 2444 
Q 2066 2628 1866 2628 
Q 1550 2628 1347 2172 
L 1347 613 
z
" transform="scale(0.015625)"/>
      <path id="TimesNewRomanPS-BoldMT-63" d="M 2600 753 
L 2697 678 
Q 2491 291 2183 101 
Q 1875 -88 1528 -88 
Q 944 -88 594 353 
Q 244 794 244 1413 
Q 244 2009 563 2463 
Q 947 3009 1622 3009 
Q 2075 3009 2342 2781 
Q 2609 2553 2609 2272 
Q 2609 2094 2501 1987 
Q 2394 1881 2219 1881 
Q 2034 1881 1914 2003 
Q 1794 2125 1766 2438 
Q 1747 2634 1675 2713 
Q 1603 2791 1506 2791 
Q 1356 2791 1250 2631 
Q 1088 2391 1088 1894 
Q 1088 1481 1219 1104 
Q 1350 728 1578 544 
Q 1750 409 1984 409 
Q 2138 409 2275 481 
Q 2413 553 2600 753 
z
" transform="scale(0.015625)"/>
      <path id="TimesNewRomanPS-BoldMT-28" d="M 2056 4334 
L 2056 4191 
Q 1731 3978 1578 3775 
Q 1366 3494 1247 3053 
Q 1097 2506 1097 1525 
Q 1097 600 1233 87 
Q 1369 -425 1603 -741 
Q 1766 -959 2056 -1125 
L 2056 -1281 
Q 1303 -1028 779 -248 
Q 256 531 256 1544 
Q 256 2544 778 3314 
Q 1300 4084 2056 4334 
z
" transform="scale(0.015625)"/>
      <path id="TimesNewRomanPS-BoldMT-29" d="M 78 -1281 
L 78 -1138 
Q 403 -922 556 -719 
Q 766 -438 888 0 
Q 1038 550 1038 1531 
Q 1038 2456 902 2967 
Q 766 3478 531 3794 
Q 369 4013 78 4178 
L 78 4334 
Q 831 4081 1354 3301 
Q 1878 2522 1878 1509 
Q 1878 513 1354 -257 
Q 831 -1028 78 -1281 
z
" transform="scale(0.015625)"/>
     </defs>
     <use xlink:href="#TimesNewRomanPS-BoldMT-44"/>
     <use xlink:href="#TimesNewRomanPS-BoldMT-61" x="72.216797"/>
     <use xlink:href="#TimesNewRomanPS-BoldMT-74" x="122.216797"/>
     <use xlink:href="#TimesNewRomanPS-BoldMT-61" x="155.517578"/>
     <use xlink:href="#TimesNewRomanPS-BoldMT-20" x="205.517578"/>
     <use xlink:href="#TimesNewRomanPS-BoldMT-6f" x="230.517578"/>
     <use xlink:href="#TimesNewRomanPS-BoldMT-6e" x="280.517578"/>
     <use xlink:href="#TimesNewRomanPS-BoldMT-20" x="336.132812"/>
     <use xlink:href="#TimesNewRomanPS-BoldMT-74" x="361.132812"/>
     <use xlink:href="#TimesNewRomanPS-BoldMT-68" x="394.433594"/>
     <use xlink:href="#TimesNewRomanPS-BoldMT-65" x="450.048828"/>
     <use xlink:href="#TimesNewRomanPS-BoldMT-20" x="494.433594"/>
     <use xlink:href="#TimesNewRomanPS-BoldMT-76" x="519.433594"/>
     <use xlink:href="#TimesNewRomanPS-BoldMT-6f" x="569.433594"/>
     <use xlink:href="#TimesNewRomanPS-BoldMT-6c" x="619.433594"/>
     <use xlink:href="#TimesNewRomanPS-BoldMT-75" x="647.216797"/>
     <use xlink:href="#TimesNewRomanPS-BoldMT-6d" x="702.832031"/>
     <use xlink:href="#TimesNewRomanPS-BoldMT-65" x="786.132812"/>
     <use xlink:href="#TimesNewRomanPS-BoldMT-20" x="830.517578"/>
     <use xlink:href="#TimesNewRomanPS-BoldMT-6f" x="855.517578"/>
     <use xlink:href="#TimesNewRomanPS-BoldMT-66" x="905.517578"/>
     <use xlink:href="#TimesNewRomanPS-BoldMT-20" x="938.818359"/>
     <use xlink:href="#TimesNewRomanPS-BoldMT-66" x="963.818359"/>
     <use xlink:href="#TimesNewRomanPS-BoldMT-72" x="997.119141"/>
     <use xlink:href="#TimesNewRomanPS-BoldMT-75" x="1041.503906"/>
     <use xlink:href="#TimesNewRomanPS-BoldMT-69" x="1097.119141"/>
     <use xlink:href="#TimesNewRomanPS-BoldMT-74" x="1124.902344"/>
     <use xlink:href="#TimesNewRomanPS-BoldMT-20" x="1158.203125"/>
     <use xlink:href="#TimesNewRomanPS-BoldMT-74" x="1183.203125"/>
     <use xlink:href="#TimesNewRomanPS-BoldMT-72" x="1216.503906"/>
     <use xlink:href="#TimesNewRomanPS-BoldMT-61" x="1260.888672"/>
     <use xlink:href="#TimesNewRomanPS-BoldMT-6e" x="1310.888672"/>
     <use xlink:href="#TimesNewRomanPS-BoldMT-73" x="1366.503906"/>
     <use xlink:href="#TimesNewRomanPS-BoldMT-70" x="1405.419922"/>
     <use xlink:href="#TimesNewRomanPS-BoldMT-6f" x="1461.035156"/>
     <use xlink:href="#TimesNewRomanPS-BoldMT-72" x="1511.035156"/>
     <use xlink:href="#TimesNewRomanPS-BoldMT-74" x="1555.419922"/>
     <use xlink:href="#TimesNewRomanPS-BoldMT-61" x="1588.720703"/>
     <use xlink:href="#TimesNewRomanPS-BoldMT-74" x="1638.720703"/>
     <use xlink:href="#TimesNewRomanPS-BoldMT-69" x="1672.021484"/>
     <use xlink:href="#TimesNewRomanPS-BoldMT-6f" x="1699.804688"/>
     <use xlink:href="#TimesNewRomanPS-BoldMT-6e" x="1749.804688"/>
     <use xlink:href="#TimesNewRomanPS-BoldMT-20" x="1805.419922"/>
     <use xlink:href="#TimesNewRomanPS-BoldMT-69" x="1830.419922"/>
     <use xlink:href="#TimesNewRomanPS-BoldMT-6e" x="1858.203125"/>
     <use xlink:href="#TimesNewRomanPS-BoldMT-20" x="1913.818359"/>
     <use xlink:href="#TimesNewRomanPS-BoldMT-63" x="1938.818359"/>
     <use xlink:href="#TimesNewRomanPS-BoldMT-69" x="1983.203125"/>
     <use xlink:href="#TimesNewRomanPS-BoldMT-74" x="2010.986328"/>
     <use xlink:href="#TimesNewRomanPS-BoldMT-69" x="2044.287109"/>
     <use xlink:href="#TimesNewRomanPS-BoldMT-65" x="2072.070312"/>
     <use xlink:href="#TimesNewRomanPS-BoldMT-73" x="2116.455078"/>
     <use xlink:href="#TimesNewRomanPS-BoldMT-20" x="2155.371094"/>
     <use xlink:href="#TimesNewRomanPS-BoldMT-28" x="2180.371094"/>
     <use xlink:href="#TimesNewRomanPS-BoldMT-74" x="2213.671875"/>
     <use xlink:href="#TimesNewRomanPS-BoldMT-6f" x="2246.972656"/>
     <use xlink:href="#TimesNewRomanPS-BoldMT-6e" x="2296.972656"/>
     <use xlink:href="#TimesNewRomanPS-BoldMT-73" x="2352.587891"/>
     <use xlink:href="#TimesNewRomanPS-BoldMT-29" x="2391.503906"/>
    </g>
   </g>
  </g>
 </g>
 <defs>
  <clipPath id="p8f7c627604">
   <rect x="60.915938" y="30.045" width="366.78" height="229.809775"/>
  </clipPath>
 </defs>
</svg>
