<?xml version="1.0" encoding="utf-8" standalone="no"?>
<!DOCTYPE svg PUBLIC "-//W3C//DTD SVG 1.1//EN"
  "http://www.w3.org/Graphics/SVG/1.1/DTD/svg11.dtd">
<svg xmlns:xlink="http://www.w3.org/1999/xlink" width="452.089687pt" height="319.942911pt" viewBox="0 0 452.089687 319.942911" xmlns="http://www.w3.org/2000/svg" version="1.1">
 <metadata>
  <rdf:RDF xmlns:dc="http://purl.org/dc/elements/1.1/" xmlns:cc="http://creativecommons.org/ns#" xmlns:rdf="http://www.w3.org/1999/02/22-rdf-syntax-ns#">
   <cc:Work>
    <dc:type rdf:resource="http://purl.org/dc/dcmitype/StillImage"/>
    <dc:date>2025-05-26T16:46:16.484068</dc:date>
    <dc:format>image/svg+xml</dc:format>
    <dc:creator>
     <cc:Agent>
      <dc:title>Matplotlib v3.7.2, https://matplotlib.org/</dc:title>
     </cc:Agent>
    </dc:creator>
   </cc:Work>
  </rdf:RDF>
 </metadata>
 <defs>
  <style type="text/css">*{stroke-linejoin: round; stroke-linecap: butt}</style>
 </defs>
 <g id="figure_1">
  <g id="patch_1">
   <path d="M 0 319.942911 
L 452.089687 319.942911 
L 452.089687 0 
L 0 0 
z
" style="fill: #ffffff"/>
  </g>
  <g id="axes_1">
   <g id="patch_2">
    <path d="M 60.915938 258.900181 
L 427.695937 258.900181 
L 427.695937 30.045 
L 60.915938 30.045 
z
" style="fill: #ffffff"/>
   </g>
   <g id="PolyCollection_1">
    <defs>
     <path id="mfa6f5cf813" d="M 99.841695 -77.218328 
L 95.34618 -77.218328 
L 95.088886 -78.940709 
L 94.813089 -80.66309 
L 94.515111 -82.385472 
L 94.190683 -84.107853 
L 93.835282 -85.830234 
L 93.444508 -87.552616 
L 93.01447 -89.274997 
L 92.542126 -90.997378 
L 92.025527 -92.71976 
L 91.46393 -94.442141 
L 90.857778 -96.164522 
L 90.208542 -97.886904 
L 89.518459 -99.609285 
L 88.790203 -101.331666 
L 88.026552 -103.054048 
L 87.230092 -104.776429 
L 86.403004 -106.49881 
L 85.54697 -108.221192 
L 84.663194 -109.943573 
L 83.752537 -111.665954 
L 82.815742 -113.388336 
L 81.853708 -115.110717 
L 80.867796 -116.833098 
L 79.860144 -118.55548 
L 78.833956 -120.277861 
L 77.793804 -122.000242 
L 76.745894 -123.722624 
L 75.698328 -125.445005 
L 74.661306 -127.167386 
L 73.647252 -128.889768 
L 72.670784 -130.612149 
L 71.748473 -132.33453 
L 70.898328 -134.056912 
L 70.138988 -135.779293 
L 69.488633 -137.501674 
L 68.963692 -139.224056 
L 68.577479 -140.946437 
L 68.338915 -142.668818 
L 68.251538 -144.3912 
L 68.312931 -146.113581 
L 68.514728 -147.835962 
L 68.8432 -149.558344 
L 69.280411 -151.280725 
L 69.805796 -153.003106 
L 70.397995 -154.725488 
L 71.036691 -156.447869 
L 71.704249 -158.17025 
L 72.386928 -159.892632 
L 73.075548 -161.615013 
L 73.765544 -163.337394 
L 74.456437 -165.059776 
L 75.150831 -166.782157 
L 75.853112 -168.504538 
L 76.568056 -170.22692 
L 77.299556 -171.949301 
L 78.049656 -173.671682 
L 78.818012 -175.394064 
L 79.60183 -177.116445 
L 80.396258 -178.838826 
L 81.195111 -180.561208 
L 81.991792 -182.283589 
L 82.780221 -184.00597 
L 83.555597 -185.728352 
L 84.314875 -187.450733 
L 85.056872 -189.173114 
L 85.782024 -190.895496 
L 86.491827 -192.617877 
L 87.188107 -194.340258 
L 87.872247 -196.06264 
L 88.54452 -197.785021 
L 89.203639 -199.507402 
L 89.846609 -201.229784 
L 90.46889 -202.952165 
L 91.064836 -204.674546 
L 91.628331 -206.396928 
L 92.153515 -208.119309 
L 92.635474 -209.84169 
L 93.070802 -211.564072 
L 93.457946 -213.286453 
L 93.797312 -215.008834 
L 94.091128 -216.731216 
L 94.343113 -218.453597 
L 94.558019 -220.175978 
L 94.741125 -221.89836 
L 94.897769 -223.620741 
L 95.032975 -225.343122 
L 95.151209 -227.065504 
L 95.256281 -228.787885 
L 95.351377 -230.510266 
L 95.439162 -232.232648 
L 95.521945 -233.955029 
L 95.601816 -235.67741 
L 95.680753 -237.399792 
L 95.760645 -239.122173 
L 95.843254 -240.844554 
L 95.930112 -242.566936 
L 96.022386 -244.289317 
L 96.120739 -246.011698 
L 96.225228 -247.73408 
L 98.962647 -247.73408 
L 98.962647 -247.73408 
L 99.067136 -246.011698 
L 99.165489 -244.289317 
L 99.257763 -242.566936 
L 99.344621 -240.844554 
L 99.42723 -239.122173 
L 99.507122 -237.399792 
L 99.586059 -235.67741 
L 99.66593 -233.955029 
L 99.748713 -232.232648 
L 99.836498 -230.510266 
L 99.931594 -228.787885 
L 100.036666 -227.065504 
L 100.1549 -225.343122 
L 100.290106 -223.620741 
L 100.44675 -221.89836 
L 100.629856 -220.175978 
L 100.844762 -218.453597 
L 101.096747 -216.731216 
L 101.390563 -215.008834 
L 101.729929 -213.286453 
L 102.117073 -211.564072 
L 102.552401 -209.84169 
L 103.03436 -208.119309 
L 103.559544 -206.396928 
L 104.123039 -204.674546 
L 104.718985 -202.952165 
L 105.341266 -201.229784 
L 105.984236 -199.507402 
L 106.643355 -197.785021 
L 107.315628 -196.06264 
L 107.999768 -194.340258 
L 108.696048 -192.617877 
L 109.405851 -190.895496 
L 110.131003 -189.173114 
L 110.873 -187.450733 
L 111.632278 -185.728352 
L 112.407654 -184.00597 
L 113.196083 -182.283589 
L 113.992764 -180.561208 
L 114.791617 -178.838826 
L 115.586045 -177.116445 
L 116.369863 -175.394064 
L 117.138219 -173.671682 
L 117.888319 -171.949301 
L 118.619819 -170.22692 
L 119.334763 -168.504538 
L 120.037044 -166.782157 
L 120.731438 -165.059776 
L 121.422331 -163.337394 
L 122.112327 -161.615013 
L 122.800947 -159.892632 
L 123.483626 -158.17025 
L 124.151184 -156.447869 
L 124.78988 -154.725488 
L 125.382079 -153.003106 
L 125.907464 -151.280725 
L 126.344675 -149.558344 
L 126.673147 -147.835962 
L 126.874944 -146.113581 
L 126.936338 -144.3912 
L 126.84896 -142.668818 
L 126.610396 -140.946437 
L 126.224183 -139.224056 
L 125.699242 -137.501674 
L 125.048887 -135.779293 
L 124.289547 -134.056912 
L 123.439402 -132.33453 
L 122.517091 -130.612149 
L 121.540623 -128.889768 
L 120.526569 -127.167386 
L 119.489547 -125.445005 
L 118.441981 -123.722624 
L 117.394071 -122.000242 
L 116.353919 -120.277861 
L 115.327731 -118.55548 
L 114.320079 -116.833098 
L 113.334167 -115.110717 
L 112.372133 -113.388336 
L 111.435338 -111.665954 
L 110.524681 -109.943573 
L 109.640905 -108.221192 
L 108.784871 -106.49881 
L 107.957783 -104.776429 
L 107.161323 -103.054048 
L 106.397672 -101.331666 
L 105.669416 -99.609285 
L 104.979333 -97.886904 
L 104.330097 -96.164522 
L 103.723945 -94.442141 
L 103.162348 -92.71976 
L 102.645749 -90.997378 
L 102.173405 -89.274997 
L 101.743367 -87.552616 
L 101.352593 -85.830234 
L 100.997192 -84.107853 
L 100.672764 -82.385472 
L 100.374786 -80.66309 
L 100.098989 -78.940709 
L 99.841695 -77.218328 
z
" style="stroke: #000000; stroke-opacity: 0.7"/>
    </defs>
    <g clip-path="url(#p0461f982ed)">
     <use xlink:href="#mfa6f5cf813" x="0" y="319.942911" style="fill: #c49c94; fill-opacity: 0.7; stroke: #000000; stroke-opacity: 0.7"/>
    </g>
   </g>
   <g id="PolyCollection_2">
    <defs>
     <path id="m69282367d5" d="M 173.835591 -94.729407 
L 168.064284 -94.729407 
L 167.55809 -96.595731 
L 167.002928 -98.462054 
L 166.398501 -100.328377 
L 165.745238 -102.1947 
L 165.04455 -104.061023 
L 164.29903 -105.927346 
L 163.512579 -107.79367 
L 162.69049 -109.659993 
L 161.839522 -111.526316 
L 160.967983 -113.392639 
L 160.085757 -115.258962 
L 159.204137 -117.125286 
L 158.335281 -118.991609 
L 157.491122 -120.857932 
L 156.681652 -122.724255 
L 155.912739 -124.590578 
L 155.183842 -126.456902 
L 154.486203 -128.323225 
L 153.802171 -130.189548 
L 153.10624 -132.055871 
L 152.36806 -133.922194 
L 151.557257 -135.788518 
L 150.649438 -137.654841 
L 149.632321 -139.521164 
L 148.510782 -141.387487 
L 147.309668 -143.25381 
L 146.073618 -145.120133 
L 144.863682 -146.986457 
L 143.75115 -148.85278 
L 142.809566 -150.719103 
L 142.106201 -152.585426 
L 141.694347 -154.451749 
L 141.607538 -156.318073 
L 141.85643 -158.184396 
L 142.428564 -160.050719 
L 143.290752 -161.917042 
L 144.393532 -163.783365 
L 145.676897 -165.649689 
L 147.076506 -167.516012 
L 148.52968 -169.382335 
L 149.980586 -171.248658 
L 151.384233 -173.114981 
L 152.709002 -174.981305 
L 153.937588 -176.847628 
L 155.066355 -178.713951 
L 156.103248 -180.580274 
L 157.064542 -182.446597 
L 157.970887 -184.31292 
L 158.843205 -186.179244 
L 159.699035 -188.045567 
L 160.549859 -189.91189 
L 161.399771 -191.778213 
L 162.245565 -193.644536 
L 163.078088 -195.51086 
L 163.884434 -197.377183 
L 164.650485 -199.243506 
L 165.363271 -201.109829 
L 166.012784 -202.976152 
L 166.593053 -204.842476 
L 167.102455 -206.708799 
L 167.543422 -208.575122 
L 167.921717 -210.441445 
L 168.245493 -212.307768 
L 168.524263 -214.174092 
L 168.767913 -216.040415 
L 168.985796 -217.906738 
L 169.185964 -219.773061 
L 169.374612 -221.639384 
L 169.555756 -223.505708 
L 169.731196 -225.372031 
L 169.900768 -227.238354 
L 170.062812 -229.104677 
L 170.214808 -230.971 
L 170.354019 -232.837323 
L 170.478075 -234.703647 
L 170.585376 -236.56997 
L 170.6753 -238.436293 
L 170.748198 -240.302616 
L 170.805228 -242.168939 
L 170.848084 -244.035263 
L 170.878689 -245.901586 
L 170.898899 -247.767909 
L 170.910273 -249.634232 
L 170.913919 -251.500555 
L 170.910427 -253.366879 
L 170.899899 -255.233202 
L 170.882056 -257.099525 
L 170.856422 -258.965848 
L 170.822573 -260.832171 
L 170.78041 -262.698495 
L 170.730435 -264.564818 
L 170.673977 -266.431141 
L 170.613307 -268.297464 
L 170.55161 -270.163787 
L 170.492787 -272.03011 
L 170.441084 -273.896434 
L 170.400608 -275.762757 
L 170.374792 -277.62908 
L 170.365919 -279.495403 
L 171.533956 -279.495403 
L 171.533956 -279.495403 
L 171.525083 -277.62908 
L 171.499267 -275.762757 
L 171.458791 -273.896434 
L 171.407088 -272.03011 
L 171.348265 -270.163787 
L 171.286568 -268.297464 
L 171.225898 -266.431141 
L 171.16944 -264.564818 
L 171.119465 -262.698495 
L 171.077302 -260.832171 
L 171.043453 -258.965848 
L 171.017819 -257.099525 
L 170.999976 -255.233202 
L 170.989448 -253.366879 
L 170.985956 -251.500555 
L 170.989602 -249.634232 
L 171.000976 -247.767909 
L 171.021186 -245.901586 
L 171.051791 -244.035263 
L 171.094647 -242.168939 
L 171.151677 -240.302616 
L 171.224575 -238.436293 
L 171.314499 -236.56997 
L 171.4218 -234.703647 
L 171.545856 -232.837323 
L 171.685067 -230.971 
L 171.837063 -229.104677 
L 171.999107 -227.238354 
L 172.168679 -225.372031 
L 172.344119 -223.505708 
L 172.525263 -221.639384 
L 172.713911 -219.773061 
L 172.914079 -217.906738 
L 173.131962 -216.040415 
L 173.375612 -214.174092 
L 173.654382 -212.307768 
L 173.978158 -210.441445 
L 174.356453 -208.575122 
L 174.79742 -206.708799 
L 175.306822 -204.842476 
L 175.887091 -202.976152 
L 176.536604 -201.109829 
L 177.24939 -199.243506 
L 178.015441 -197.377183 
L 178.821787 -195.51086 
L 179.65431 -193.644536 
L 180.500104 -191.778213 
L 181.350016 -189.91189 
L 182.20084 -188.045567 
L 183.05667 -186.179244 
L 183.928988 -184.31292 
L 184.835333 -182.446597 
L 185.796627 -180.580274 
L 186.83352 -178.713951 
L 187.962287 -176.847628 
L 189.190873 -174.981305 
L 190.515642 -173.114981 
L 191.919289 -171.248658 
L 193.370195 -169.382335 
L 194.823369 -167.516012 
L 196.222978 -165.649689 
L 197.506343 -163.783365 
L 198.609123 -161.917042 
L 199.471311 -160.050719 
L 200.043445 -158.184396 
L 200.292338 -156.318073 
L 200.205528 -154.451749 
L 199.793674 -152.585426 
L 199.090309 -150.719103 
L 198.148725 -148.85278 
L 197.036193 -146.986457 
L 195.826257 -145.120133 
L 194.590207 -143.25381 
L 193.389093 -141.387487 
L 192.267554 -139.521164 
L 191.250437 -137.654841 
L 190.342618 -135.788518 
L 189.531815 -133.922194 
L 188.793635 -132.055871 
L 188.097704 -130.189548 
L 187.413672 -128.323225 
L 186.716033 -126.456902 
L 185.987136 -124.590578 
L 185.218223 -122.724255 
L 184.408753 -120.857932 
L 183.564594 -118.991609 
L 182.695738 -117.125286 
L 181.814118 -115.258962 
L 180.931892 -113.392639 
L 180.060353 -111.526316 
L 179.209385 -109.659993 
L 178.387296 -107.79367 
L 177.600845 -105.927346 
L 176.855325 -104.061023 
L 176.154637 -102.1947 
L 175.501374 -100.328377 
L 174.896947 -98.462054 
L 174.341785 -96.595731 
L 173.835591 -94.729407 
z
" style="stroke: #000000; stroke-opacity: 0.7"/>
    </defs>
    <g clip-path="url(#p0461f982ed)">
     <use xlink:href="#m69282367d5" x="0" y="319.942911" style="fill: #9467bd; fill-opacity: 0.7; stroke: #000000; stroke-opacity: 0.7"/>
    </g>
   </g>
   <g id="PolyCollection_3">
    <defs>
     <path id="mdce84c7e72" d="M 245.259397 -76.481626 
L 243.352478 -76.481626 
L 243.219398 -78.42689 
L 243.065527 -80.372154 
L 242.885909 -82.317418 
L 242.675744 -84.262683 
L 242.430944 -86.207947 
L 242.148659 -88.153211 
L 241.827701 -90.098475 
L 241.468803 -92.043739 
L 241.07467 -93.989003 
L 240.649805 -95.934267 
L 240.200129 -97.879531 
L 239.732406 -99.824795 
L 239.253531 -101.770059 
L 238.769728 -103.715323 
L 238.285745 -105.660587 
L 237.804106 -107.605851 
L 237.324524 -109.551115 
L 236.843572 -111.496379 
L 236.354672 -113.441643 
L 235.848465 -115.386907 
L 235.313557 -117.332171 
L 234.73758 -119.277435 
L 234.108449 -121.222699 
L 233.415652 -123.167963 
L 232.651389 -125.113227 
L 231.811401 -127.058491 
L 230.895373 -129.003755 
L 229.906877 -130.949019 
L 228.85291 -132.894283 
L 227.743158 -134.839547 
L 226.589172 -136.784811 
L 225.403638 -138.730075 
L 224.199921 -140.675339 
L 222.991971 -142.620603 
L 221.794609 -144.565867 
L 220.624111 -146.511131 
L 219.498919 -148.456395 
L 218.440255 -150.401659 
L 217.472391 -152.346923 
L 216.622359 -154.292187 
L 215.91896 -156.237451 
L 215.391064 -158.182715 
L 215.065317 -160.12798 
L 214.963538 -162.073244 
L 215.100175 -164.018508 
L 215.480268 -165.963772 
L 216.098272 -167.909036 
L 216.938032 -169.8543 
L 217.973957 -171.799564 
L 219.173257 -173.744828 
L 220.498896 -175.690092 
L 221.912778 -177.635356 
L 223.378677 -179.58062 
L 224.864485 -181.525884 
L 226.343506 -183.471148 
L 227.794758 -185.416412 
L 229.202421 -187.361676 
L 230.554751 -189.30694 
L 231.842795 -191.252204 
L 233.059289 -193.197468 
L 234.197947 -195.142732 
L 235.253253 -197.087996 
L 236.220706 -199.03326 
L 237.097342 -200.978524 
L 237.882324 -202.923788 
L 238.577364 -204.869052 
L 239.18684 -206.814316 
L 239.71753 -208.75958 
L 240.178001 -210.704844 
L 240.577757 -212.650108 
L 240.926308 -214.595372 
L 241.232313 -216.540636 
L 241.502936 -218.4859 
L 241.743487 -220.431164 
L 241.95738 -222.376428 
L 242.146373 -224.321692 
L 242.311015 -226.266956 
L 242.451212 -228.21222 
L 242.566798 -230.157484 
L 242.658029 -232.102748 
L 242.725932 -234.048013 
L 242.772445 -235.993277 
L 242.800377 -237.938541 
L 242.813187 -239.883805 
L 242.814653 -241.829069 
L 242.808504 -243.774333 
L 242.7981 -245.719597 
L 242.786217 -247.664861 
L 242.774988 -249.610125 
L 242.765999 -251.555389 
L 242.760495 -253.500653 
L 242.759645 -255.445917 
L 242.764777 -257.391181 
L 242.777512 -259.336445 
L 242.799741 -261.281709 
L 242.833464 -263.226973 
L 242.880482 -265.172237 
L 242.942045 -267.117501 
L 243.018522 -269.062765 
L 245.593353 -269.062765 
L 245.593353 -269.062765 
L 245.66983 -267.117501 
L 245.731393 -265.172237 
L 245.778411 -263.226973 
L 245.812134 -261.281709 
L 245.834363 -259.336445 
L 245.847098 -257.391181 
L 245.85223 -255.445917 
L 245.85138 -253.500653 
L 245.845876 -251.555389 
L 245.836887 -249.610125 
L 245.825658 -247.664861 
L 245.813775 -245.719597 
L 245.803371 -243.774333 
L 245.797222 -241.829069 
L 245.798688 -239.883805 
L 245.811498 -237.938541 
L 245.83943 -235.993277 
L 245.885943 -234.048013 
L 245.953846 -232.102748 
L 246.045077 -230.157484 
L 246.160663 -228.21222 
L 246.30086 -226.266956 
L 246.465502 -224.321692 
L 246.654495 -222.376428 
L 246.868388 -220.431164 
L 247.108939 -218.4859 
L 247.379562 -216.540636 
L 247.685567 -214.595372 
L 248.034118 -212.650108 
L 248.433874 -210.704844 
L 248.894345 -208.75958 
L 249.425035 -206.814316 
L 250.034511 -204.869052 
L 250.729551 -202.923788 
L 251.514533 -200.978524 
L 252.391169 -199.03326 
L 253.358622 -197.087996 
L 254.413928 -195.142732 
L 255.552586 -193.197468 
L 256.76908 -191.252204 
L 258.057124 -189.30694 
L 259.409454 -187.361676 
L 260.817117 -185.416412 
L 262.268369 -183.471148 
L 263.74739 -181.525884 
L 265.233198 -179.58062 
L 266.699097 -177.635356 
L 268.112979 -175.690092 
L 269.438618 -173.744828 
L 270.637918 -171.799564 
L 271.673843 -169.8543 
L 272.513603 -167.909036 
L 273.131607 -165.963772 
L 273.5117 -164.018508 
L 273.648337 -162.073244 
L 273.546558 -160.12798 
L 273.220811 -158.182715 
L 272.692915 -156.237451 
L 271.989516 -154.292187 
L 271.139484 -152.346923 
L 270.17162 -150.401659 
L 269.112956 -148.456395 
L 267.987764 -146.511131 
L 266.817266 -144.565867 
L 265.619904 -142.620603 
L 264.411954 -140.675339 
L 263.208237 -138.730075 
L 262.022703 -136.784811 
L 260.868717 -134.839547 
L 259.758965 -132.894283 
L 258.704998 -130.949019 
L 257.716502 -129.003755 
L 256.800474 -127.058491 
L 255.960486 -125.113227 
L 255.196223 -123.167963 
L 254.503426 -121.222699 
L 253.874295 -119.277435 
L 253.298318 -117.332171 
L 252.76341 -115.386907 
L 252.257203 -113.441643 
L 251.768303 -111.496379 
L 251.287351 -109.551115 
L 250.807769 -107.605851 
L 250.32613 -105.660587 
L 249.842147 -103.715323 
L 249.358344 -101.770059 
L 248.879469 -99.824795 
L 248.411746 -97.879531 
L 247.96207 -95.934267 
L 247.537205 -93.989003 
L 247.143072 -92.043739 
L 246.784174 -90.098475 
L 246.463216 -88.153211 
L 246.180931 -86.207947 
L 245.936131 -84.262683 
L 245.725966 -82.317418 
L 245.546348 -80.372154 
L 245.392477 -78.42689 
L 245.259397 -76.481626 
z
" style="stroke: #000000; stroke-opacity: 0.7"/>
    </defs>
    <g clip-path="url(#p0461f982ed)">
     <use xlink:href="#mdce84c7e72" x="0" y="319.942911" style="fill: #8da0cb; fill-opacity: 0.7; stroke: #000000; stroke-opacity: 0.7"/>
    </g>
   </g>
   <g id="PolyCollection_4">
    <defs>
     <path id="m3e2d3afc51" d="M 319.994285 -71.445239 
L 315.32959 -71.445239 
L 315.171827 -73.138678 
L 315.045835 -74.832116 
L 314.951777 -76.525555 
L 314.885907 -78.218993 
L 314.840506 -79.912432 
L 314.804252 -81.605871 
L 314.762964 -83.299309 
L 314.700629 -84.992748 
L 314.600605 -86.686187 
L 314.446817 -88.379625 
L 314.224848 -90.073064 
L 313.922786 -91.766503 
L 313.531779 -93.459941 
L 313.046286 -95.15338 
L 312.464036 -96.846819 
L 311.785774 -98.540257 
L 311.014848 -100.233696 
L 310.156725 -101.927135 
L 309.218492 -103.620573 
L 308.208392 -105.314012 
L 307.135426 -107.00745 
L 306.009033 -108.700889 
L 304.838858 -110.394328 
L 303.63461 -112.087766 
L 302.406004 -113.781205 
L 301.162791 -115.474644 
L 299.914863 -117.168082 
L 298.672418 -118.861521 
L 297.446147 -120.55496 
L 296.247414 -122.248398 
L 295.088358 -123.941837 
L 293.981871 -125.635276 
L 292.941394 -127.328714 
L 291.980514 -129.022153 
L 291.112366 -130.715592 
L 290.348895 -132.40903 
L 289.70008 -134.102469 
L 289.173231 -135.795908 
L 288.772497 -137.489346 
L 288.498671 -139.182785 
L 288.349369 -140.876223 
L 288.319537 -142.569662 
L 288.402224 -144.263101 
L 288.589466 -145.956539 
L 288.873121 -147.649978 
L 289.245512 -149.343417 
L 289.699757 -151.036855 
L 290.229787 -152.730294 
L 290.830073 -154.423733 
L 291.495209 -156.117171 
L 292.219471 -157.81061 
L 292.996517 -159.504049 
L 293.819315 -161.197487 
L 294.680324 -162.890926 
L 295.571887 -164.584365 
L 296.486739 -166.277803 
L 297.418475 -167.971242 
L 298.361876 -169.66468 
L 299.313005 -171.358119 
L 300.26904 -173.051558 
L 301.22791 -174.744996 
L 302.187806 -176.438435 
L 303.146671 -178.131874 
L 304.101794 -179.825312 
L 305.049538 -181.518751 
L 305.985258 -183.21219 
L 306.903369 -184.905628 
L 307.797551 -186.599067 
L 308.661025 -188.292506 
L 309.486878 -189.985944 
L 310.268411 -191.679383 
L 310.999502 -193.372822 
L 311.674971 -195.06626 
L 312.290942 -196.759699 
L 312.84516 -198.453137 
L 313.337236 -200.146576 
L 313.768755 -201.840015 
L 314.143222 -203.533453 
L 314.465825 -205.226892 
L 314.743017 -206.920331 
L 314.981976 -208.613769 
L 315.189994 -210.307208 
L 315.373888 -212.000647 
L 315.539505 -213.694085 
L 315.691372 -215.387524 
L 315.832551 -217.080963 
L 315.964683 -218.774401 
L 316.088202 -220.46784 
L 316.202697 -222.161279 
L 316.307332 -223.854717 
L 316.401279 -225.548156 
L 316.484104 -227.241595 
L 316.556036 -228.935033 
L 316.618097 -230.628472 
L 316.672084 -232.32191 
L 316.720398 -234.015349 
L 316.765768 -235.708788 
L 316.810911 -237.402226 
L 316.858191 -239.095665 
L 318.465684 -239.095665 
L 318.465684 -239.095665 
L 318.512964 -237.402226 
L 318.558107 -235.708788 
L 318.603477 -234.015349 
L 318.651791 -232.32191 
L 318.705778 -230.628472 
L 318.767839 -228.935033 
L 318.839771 -227.241595 
L 318.922596 -225.548156 
L 319.016543 -223.854717 
L 319.121178 -222.161279 
L 319.235673 -220.46784 
L 319.359192 -218.774401 
L 319.491324 -217.080963 
L 319.632503 -215.387524 
L 319.78437 -213.694085 
L 319.949987 -212.000647 
L 320.133881 -210.307208 
L 320.341899 -208.613769 
L 320.580858 -206.920331 
L 320.85805 -205.226892 
L 321.180653 -203.533453 
L 321.55512 -201.840015 
L 321.986639 -200.146576 
L 322.478715 -198.453137 
L 323.032933 -196.759699 
L 323.648904 -195.06626 
L 324.324373 -193.372822 
L 325.055464 -191.679383 
L 325.836997 -189.985944 
L 326.66285 -188.292506 
L 327.526324 -186.599067 
L 328.420506 -184.905628 
L 329.338617 -183.21219 
L 330.274337 -181.518751 
L 331.222081 -179.825312 
L 332.177204 -178.131874 
L 333.136069 -176.438435 
L 334.095965 -174.744996 
L 335.054835 -173.051558 
L 336.01087 -171.358119 
L 336.961999 -169.66468 
L 337.9054 -167.971242 
L 338.837136 -166.277803 
L 339.751988 -164.584365 
L 340.643551 -162.890926 
L 341.50456 -161.197487 
L 342.327358 -159.504049 
L 343.104404 -157.81061 
L 343.828666 -156.117171 
L 344.493802 -154.423733 
L 345.094088 -152.730294 
L 345.624118 -151.036855 
L 346.078363 -149.343417 
L 346.450754 -147.649978 
L 346.734409 -145.956539 
L 346.921651 -144.263101 
L 347.004337 -142.569662 
L 346.974506 -140.876223 
L 346.825204 -139.182785 
L 346.551378 -137.489346 
L 346.150644 -135.795908 
L 345.623795 -134.102469 
L 344.97498 -132.40903 
L 344.211509 -130.715592 
L 343.343361 -129.022153 
L 342.382481 -127.328714 
L 341.342004 -125.635276 
L 340.235517 -123.941837 
L 339.076461 -122.248398 
L 337.877728 -120.55496 
L 336.651457 -118.861521 
L 335.409012 -117.168082 
L 334.161084 -115.474644 
L 332.917871 -113.781205 
L 331.689265 -112.087766 
L 330.485017 -110.394328 
L 329.314842 -108.700889 
L 328.188449 -107.00745 
L 327.115483 -105.314012 
L 326.105383 -103.620573 
L 325.16715 -101.927135 
L 324.309027 -100.233696 
L 323.538101 -98.540257 
L 322.859839 -96.846819 
L 322.277589 -95.15338 
L 321.792096 -93.459941 
L 321.401089 -91.766503 
L 321.099027 -90.073064 
L 320.877058 -88.379625 
L 320.72327 -86.686187 
L 320.623246 -84.992748 
L 320.560911 -83.299309 
L 320.519623 -81.605871 
L 320.483369 -79.912432 
L 320.437968 -78.218993 
L 320.372098 -76.525555 
L 320.27804 -74.832116 
L 320.152048 -73.138678 
L 319.994285 -71.445239 
z
" style="stroke: #000000; stroke-opacity: 0.7"/>
    </defs>
    <g clip-path="url(#p0461f982ed)">
     <use xlink:href="#m3e2d3afc51" x="0" y="319.942911" style="fill: #1f77b4; fill-opacity: 0.7; stroke: #000000; stroke-opacity: 0.7"/>
    </g>
   </g>
   <g id="PolyCollection_5">
    <defs>
     <path id="m4233abd7c6" d="M 393.001563 -72.626677 
L 389.034312 -72.626677 
L 388.782298 -74.512649 
L 388.521521 -76.398622 
L 388.255622 -78.284595 
L 387.988668 -80.170567 
L 387.72493 -82.05654 
L 387.468574 -83.942513 
L 387.223281 -85.828485 
L 386.991828 -87.714458 
L 386.775677 -89.600431 
L 386.574619 -91.486403 
L 386.386532 -93.372376 
L 386.207274 -95.258349 
L 386.030746 -97.144321 
L 385.84911 -99.030294 
L 385.653127 -100.916267 
L 385.432583 -102.802239 
L 385.17673 -104.688212 
L 384.874704 -106.574185 
L 384.515885 -108.460157 
L 384.090182 -110.34613 
L 383.588276 -112.232103 
L 383.001836 -114.118075 
L 382.323786 -116.004048 
L 381.548639 -117.890021 
L 380.672941 -119.775993 
L 379.695809 -121.661966 
L 378.619526 -123.547939 
L 377.450114 -125.433911 
L 376.19778 -127.319884 
L 374.877148 -129.205857 
L 373.507158 -131.091829 
L 372.110596 -132.977802 
L 370.713242 -134.863775 
L 369.342661 -136.749747 
L 368.026749 -138.63572 
L 366.79216 -140.521693 
L 365.662771 -142.407665 
L 364.658347 -144.293638 
L 363.793545 -146.179611 
L 363.07736 -148.065583 
L 362.51307 -149.951556 
L 362.098664 -151.837529 
L 361.827707 -153.723501 
L 361.690519 -155.609474 
L 361.675537 -157.495447 
L 361.77069 -159.381419 
L 361.964621 -161.267392 
L 362.247647 -163.153365 
L 362.612319 -165.039337 
L 363.053568 -166.92531 
L 363.568438 -168.811283 
L 364.155457 -170.697255 
L 364.81379 -172.583228 
L 365.542282 -174.469201 
L 366.338558 -176.355173 
L 367.198311 -178.241146 
L 368.114867 -180.127119 
L 369.079083 -182.013091 
L 370.079575 -183.899064 
L 371.103221 -185.785037 
L 372.135862 -187.671009 
L 373.163094 -189.556982 
L 374.171049 -191.442955 
L 375.147086 -193.328927 
L 376.080344 -195.2149 
L 376.962123 -197.100873 
L 377.786102 -198.986845 
L 378.548423 -200.872818 
L 379.247663 -202.758791 
L 379.884731 -204.644763 
L 380.462693 -206.530736 
L 380.986546 -208.416709 
L 381.462923 -210.302681 
L 381.899721 -212.188654 
L 382.305652 -214.074627 
L 382.689724 -215.960599 
L 383.060668 -217.846572 
L 383.426357 -219.732545 
L 383.793264 -221.618517 
L 384.166018 -223.50449 
L 384.54711 -225.390463 
L 384.936776 -227.276435 
L 385.333088 -229.162408 
L 385.732235 -231.048381 
L 386.12897 -232.934353 
L 386.517181 -234.820326 
L 386.890519 -236.706299 
L 387.243018 -238.592271 
L 387.569663 -240.478244 
L 387.86684 -242.364217 
L 388.132625 -244.250189 
L 388.36691 -246.136162 
L 388.571345 -248.022135 
L 388.749106 -249.908107 
L 388.904532 -251.79408 
L 389.042667 -253.680053 
L 389.168753 -255.566026 
L 389.287736 -257.451998 
L 389.403839 -259.337971 
L 392.632036 -259.337971 
L 392.632036 -259.337971 
L 392.748139 -257.451998 
L 392.867122 -255.566026 
L 392.993208 -253.680053 
L 393.131343 -251.79408 
L 393.286769 -249.908107 
L 393.46453 -248.022135 
L 393.668965 -246.136162 
L 393.90325 -244.250189 
L 394.169035 -242.364217 
L 394.466212 -240.478244 
L 394.792857 -238.592271 
L 395.145356 -236.706299 
L 395.518694 -234.820326 
L 395.906905 -232.934353 
L 396.30364 -231.048381 
L 396.702787 -229.162408 
L 397.099099 -227.276435 
L 397.488765 -225.390463 
L 397.869857 -223.50449 
L 398.242611 -221.618517 
L 398.609518 -219.732545 
L 398.975207 -217.846572 
L 399.346151 -215.960599 
L 399.730223 -214.074627 
L 400.136154 -212.188654 
L 400.572952 -210.302681 
L 401.049329 -208.416709 
L 401.573182 -206.530736 
L 402.151144 -204.644763 
L 402.788212 -202.758791 
L 403.487452 -200.872818 
L 404.249773 -198.986845 
L 405.073752 -197.100873 
L 405.955531 -195.2149 
L 406.888789 -193.328927 
L 407.864826 -191.442955 
L 408.872781 -189.556982 
L 409.900013 -187.671009 
L 410.932654 -185.785037 
L 411.9563 -183.899064 
L 412.956792 -182.013091 
L 413.921008 -180.127119 
L 414.837564 -178.241146 
L 415.697317 -176.355173 
L 416.493593 -174.469201 
L 417.222085 -172.583228 
L 417.880418 -170.697255 
L 418.467437 -168.811283 
L 418.982307 -166.92531 
L 419.423556 -165.039337 
L 419.788228 -163.153365 
L 420.071254 -161.267392 
L 420.265185 -159.381419 
L 420.360337 -157.495447 
L 420.345356 -155.609474 
L 420.208168 -153.723501 
L 419.937211 -151.837529 
L 419.522805 -149.951556 
L 418.958515 -148.065583 
L 418.24233 -146.179611 
L 417.377528 -144.293638 
L 416.373104 -142.407665 
L 415.243715 -140.521693 
L 414.009126 -138.63572 
L 412.693214 -136.749747 
L 411.322633 -134.863775 
L 409.925279 -132.977802 
L 408.528717 -131.091829 
L 407.158727 -129.205857 
L 405.838095 -127.319884 
L 404.585761 -125.433911 
L 403.416349 -123.547939 
L 402.340066 -121.661966 
L 401.362934 -119.775993 
L 400.487236 -117.890021 
L 399.712089 -116.004048 
L 399.034039 -114.118075 
L 398.447599 -112.232103 
L 397.945693 -110.34613 
L 397.51999 -108.460157 
L 397.161171 -106.574185 
L 396.859145 -104.688212 
L 396.603292 -102.802239 
L 396.382748 -100.916267 
L 396.186765 -99.030294 
L 396.005129 -97.144321 
L 395.828601 -95.258349 
L 395.649343 -93.372376 
L 395.461256 -91.486403 
L 395.260198 -89.600431 
L 395.044047 -87.714458 
L 394.812594 -85.828485 
L 394.567301 -83.942513 
L 394.310945 -82.05654 
L 394.047207 -80.170567 
L 393.780253 -78.284595 
L 393.514354 -76.398622 
L 393.253577 -74.512649 
L 393.001563 -72.626677 
z
" style="stroke: #000000; stroke-opacity: 0.7"/>
    </defs>
    <g clip-path="url(#p0461f982ed)">
     <use xlink:href="#m4233abd7c6" x="0" y="319.942911" style="fill: #ffbb78; fill-opacity: 0.7; stroke: #000000; stroke-opacity: 0.7"/>
    </g>
   </g>
   <g id="matplotlib.axis_1">
    <g id="xtick_1">
     <g id="line2d_1">
      <defs>
       <path id="mdbc32cd197" d="M 0 0 
L 0 3.5 
" style="stroke: #000000; stroke-width: 0.8"/>
      </defs>
      <g>
       <use xlink:href="#mdbc32cd197" x="97.593938" y="258.900181" style="stroke: #000000; stroke-width: 0.8"/>
      </g>
     </g>
     <g id="text_1">
      <!-- NovaEdge -->
      <g transform="translate(59.948456 307.606665) rotate(-45) scale(0.12 -0.12)">
       <defs>
        <path id="TimesNewRomanPSMT-4e" d="M -84 4238 
L 1066 4238 
L 3656 1059 
L 3656 3503 
Q 3656 3894 3569 3991 
Q 3453 4122 3203 4122 
L 3056 4122 
L 3056 4238 
L 4531 4238 
L 4531 4122 
L 4381 4122 
Q 4113 4122 4000 3959 
Q 3931 3859 3931 3503 
L 3931 -69 
L 3819 -69 
L 1025 3344 
L 1025 734 
Q 1025 344 1109 247 
Q 1228 116 1475 116 
L 1625 116 
L 1625 0 
L 150 0 
L 150 116 
L 297 116 
Q 569 116 681 278 
Q 750 378 750 734 
L 750 3681 
Q 566 3897 470 3965 
Q 375 4034 191 4094 
Q 100 4122 -84 4122 
L -84 4238 
z
" transform="scale(0.015625)"/>
        <path id="TimesNewRomanPSMT-6f" d="M 1600 2947 
Q 2250 2947 2644 2453 
Q 2978 2031 2978 1484 
Q 2978 1100 2793 706 
Q 2609 313 2286 112 
Q 1963 -88 1566 -88 
Q 919 -88 538 428 
Q 216 863 216 1403 
Q 216 1797 411 2186 
Q 606 2575 925 2761 
Q 1244 2947 1600 2947 
z
M 1503 2744 
Q 1338 2744 1170 2645 
Q 1003 2547 900 2300 
Q 797 2053 797 1666 
Q 797 1041 1045 587 
Q 1294 134 1700 134 
Q 2003 134 2200 384 
Q 2397 634 2397 1244 
Q 2397 2006 2069 2444 
Q 1847 2744 1503 2744 
z
" transform="scale(0.015625)"/>
        <path id="TimesNewRomanPSMT-76" d="M 53 2863 
L 1400 2863 
L 1400 2747 
L 1313 2747 
Q 1191 2747 1127 2687 
Q 1063 2628 1063 2528 
Q 1063 2419 1128 2269 
L 1794 688 
L 2463 2328 
Q 2534 2503 2534 2594 
Q 2534 2638 2509 2666 
Q 2475 2713 2422 2730 
Q 2369 2747 2206 2747 
L 2206 2863 
L 3141 2863 
L 3141 2747 
Q 2978 2734 2916 2681 
Q 2806 2588 2719 2369 
L 1703 -88 
L 1575 -88 
L 553 2328 
Q 484 2497 421 2570 
Q 359 2644 263 2694 
Q 209 2722 53 2747 
L 53 2863 
z
" transform="scale(0.015625)"/>
        <path id="TimesNewRomanPSMT-61" d="M 1822 413 
Q 1381 72 1269 19 
Q 1100 -59 909 -59 
Q 613 -59 420 144 
Q 228 347 228 678 
Q 228 888 322 1041 
Q 450 1253 767 1440 
Q 1084 1628 1822 1897 
L 1822 2009 
Q 1822 2438 1686 2597 
Q 1550 2756 1291 2756 
Q 1094 2756 978 2650 
Q 859 2544 859 2406 
L 866 2225 
Q 866 2081 792 2003 
Q 719 1925 600 1925 
Q 484 1925 411 2006 
Q 338 2088 338 2228 
Q 338 2497 613 2722 
Q 888 2947 1384 2947 
Q 1766 2947 2009 2819 
Q 2194 2722 2281 2516 
Q 2338 2381 2338 1966 
L 2338 994 
Q 2338 584 2353 492 
Q 2369 400 2405 369 
Q 2441 338 2488 338 
Q 2538 338 2575 359 
Q 2641 400 2828 588 
L 2828 413 
Q 2478 -56 2159 -56 
Q 2006 -56 1915 50 
Q 1825 156 1822 413 
z
M 1822 616 
L 1822 1706 
Q 1350 1519 1213 1441 
Q 966 1303 859 1153 
Q 753 1003 753 825 
Q 753 600 887 451 
Q 1022 303 1197 303 
Q 1434 303 1822 616 
z
" transform="scale(0.015625)"/>
        <path id="TimesNewRomanPSMT-45" d="M 1338 4006 
L 1338 2331 
L 2269 2331 
Q 2631 2331 2753 2441 
Q 2916 2584 2934 2947 
L 3050 2947 
L 3050 1472 
L 2934 1472 
Q 2891 1781 2847 1869 
Q 2791 1978 2662 2040 
Q 2534 2103 2269 2103 
L 1338 2103 
L 1338 706 
Q 1338 425 1363 364 
Q 1388 303 1450 267 
Q 1513 231 1688 231 
L 2406 231 
Q 2766 231 2928 281 
Q 3091 331 3241 478 
Q 3434 672 3638 1063 
L 3763 1063 
L 3397 0 
L 131 0 
L 131 116 
L 281 116 
Q 431 116 566 188 
Q 666 238 702 338 
Q 738 438 738 747 
L 738 3500 
Q 738 3903 656 3997 
Q 544 4122 281 4122 
L 131 4122 
L 131 4238 
L 3397 4238 
L 3444 3309 
L 3322 3309 
Q 3256 3644 3176 3769 
Q 3097 3894 2941 3959 
Q 2816 4006 2500 4006 
L 1338 4006 
z
" transform="scale(0.015625)"/>
        <path id="TimesNewRomanPSMT-64" d="M 2222 322 
Q 2013 103 1813 7 
Q 1613 -88 1381 -88 
Q 913 -88 563 304 
Q 213 697 213 1313 
Q 213 1928 600 2439 
Q 988 2950 1597 2950 
Q 1975 2950 2222 2709 
L 2222 3238 
Q 2222 3728 2198 3840 
Q 2175 3953 2125 3993 
Q 2075 4034 2000 4034 
Q 1919 4034 1784 3984 
L 1744 4094 
L 2597 4444 
L 2738 4444 
L 2738 1134 
Q 2738 631 2761 520 
Q 2784 409 2836 365 
Q 2888 322 2956 322 
Q 3041 322 3181 375 
L 3216 266 
L 2366 -88 
L 2222 -88 
L 2222 322 
z
M 2222 541 
L 2222 2016 
Q 2203 2228 2109 2403 
Q 2016 2578 1861 2667 
Q 1706 2756 1559 2756 
Q 1284 2756 1069 2509 
Q 784 2184 784 1559 
Q 784 928 1059 592 
Q 1334 256 1672 256 
Q 1956 256 2222 541 
z
" transform="scale(0.015625)"/>
        <path id="TimesNewRomanPSMT-67" d="M 966 1044 
Q 703 1172 562 1401 
Q 422 1631 422 1909 
Q 422 2334 742 2640 
Q 1063 2947 1563 2947 
Q 1972 2947 2272 2747 
L 2878 2747 
Q 3013 2747 3034 2739 
Q 3056 2731 3066 2713 
Q 3084 2684 3084 2613 
Q 3084 2531 3069 2500 
Q 3059 2484 3036 2475 
Q 3013 2466 2878 2466 
L 2506 2466 
Q 2681 2241 2681 1891 
Q 2681 1491 2375 1206 
Q 2069 922 1553 922 
Q 1341 922 1119 984 
Q 981 866 932 777 
Q 884 688 884 625 
Q 884 572 936 522 
Q 988 472 1138 450 
Q 1225 438 1575 428 
Q 2219 413 2409 384 
Q 2700 344 2873 169 
Q 3047 -6 3047 -263 
Q 3047 -616 2716 -925 
Q 2228 -1381 1444 -1381 
Q 841 -1381 425 -1109 
Q 191 -953 191 -784 
Q 191 -709 225 -634 
Q 278 -519 444 -313 
Q 466 -284 763 25 
Q 600 122 533 198 
Q 466 275 466 372 
Q 466 481 555 628 
Q 644 775 966 1044 
z
M 1509 2797 
Q 1278 2797 1122 2612 
Q 966 2428 966 2047 
Q 966 1553 1178 1281 
Q 1341 1075 1591 1075 
Q 1828 1075 1981 1253 
Q 2134 1431 2134 1813 
Q 2134 2309 1919 2591 
Q 1759 2797 1509 2797 
z
M 934 0 
Q 788 -159 713 -296 
Q 638 -434 638 -550 
Q 638 -700 819 -813 
Q 1131 -1006 1722 -1006 
Q 2284 -1006 2551 -807 
Q 2819 -609 2819 -384 
Q 2819 -222 2659 -153 
Q 2497 -84 2016 -72 
Q 1313 -53 934 0 
z
" transform="scale(0.015625)"/>
        <path id="TimesNewRomanPSMT-65" d="M 681 1784 
Q 678 1147 991 784 
Q 1303 422 1725 422 
Q 2006 422 2214 576 
Q 2422 731 2563 1106 
L 2659 1044 
Q 2594 616 2278 264 
Q 1963 -88 1488 -88 
Q 972 -88 605 314 
Q 238 716 238 1394 
Q 238 2128 614 2539 
Q 991 2950 1559 2950 
Q 2041 2950 2350 2633 
Q 2659 2316 2659 1784 
L 681 1784 
z
M 681 1966 
L 2006 1966 
Q 1991 2241 1941 2353 
Q 1863 2528 1708 2628 
Q 1553 2728 1384 2728 
Q 1125 2728 920 2526 
Q 716 2325 681 1966 
z
" transform="scale(0.015625)"/>
       </defs>
       <use xlink:href="#TimesNewRomanPSMT-4e"/>
       <use xlink:href="#TimesNewRomanPSMT-6f" x="72.216797"/>
       <use xlink:href="#TimesNewRomanPSMT-76" x="122.216797"/>
       <use xlink:href="#TimesNewRomanPSMT-61" x="172.216797"/>
       <use xlink:href="#TimesNewRomanPSMT-45" x="216.601562"/>
       <use xlink:href="#TimesNewRomanPSMT-64" x="277.685547"/>
       <use xlink:href="#TimesNewRomanPSMT-67" x="327.685547"/>
       <use xlink:href="#TimesNewRomanPSMT-65" x="377.685547"/>
      </g>
     </g>
    </g>
    <g id="xtick_2">
     <g id="line2d_2">
      <g>
       <use xlink:href="#mdbc32cd197" x="170.949938" y="258.900181" style="stroke: #000000; stroke-width: 0.8"/>
      </g>
     </g>
     <g id="text_2">
      <!-- DataPulse -->
      <g transform="translate(134.728393 306.198638) rotate(-45) scale(0.12 -0.12)">
       <defs>
        <path id="TimesNewRomanPSMT-44" d="M 109 0 
L 109 116 
L 269 116 
Q 538 116 650 288 
Q 719 391 719 750 
L 719 3488 
Q 719 3884 631 3984 
Q 509 4122 269 4122 
L 109 4122 
L 109 4238 
L 1834 4238 
Q 2784 4238 3279 4022 
Q 3775 3806 4076 3303 
Q 4378 2800 4378 2141 
Q 4378 1256 3841 663 
Q 3238 0 2003 0 
L 109 0 
z
M 1319 306 
Q 1716 219 1984 219 
Q 2709 219 3187 728 
Q 3666 1238 3666 2109 
Q 3666 2988 3187 3494 
Q 2709 4000 1959 4000 
Q 1678 4000 1319 3909 
L 1319 306 
z
" transform="scale(0.015625)"/>
        <path id="TimesNewRomanPSMT-74" d="M 1031 3803 
L 1031 2863 
L 1700 2863 
L 1700 2644 
L 1031 2644 
L 1031 788 
Q 1031 509 1111 412 
Q 1191 316 1316 316 
Q 1419 316 1516 380 
Q 1613 444 1666 569 
L 1788 569 
Q 1678 263 1478 108 
Q 1278 -47 1066 -47 
Q 922 -47 784 33 
Q 647 113 581 261 
Q 516 409 516 719 
L 516 2644 
L 63 2644 
L 63 2747 
Q 234 2816 414 2980 
Q 594 3144 734 3369 
Q 806 3488 934 3803 
L 1031 3803 
z
" transform="scale(0.015625)"/>
        <path id="TimesNewRomanPSMT-50" d="M 1313 1984 
L 1313 750 
Q 1313 350 1400 253 
Q 1519 116 1759 116 
L 1922 116 
L 1922 0 
L 106 0 
L 106 116 
L 266 116 
Q 534 116 650 291 
Q 713 388 713 750 
L 713 3488 
Q 713 3888 628 3984 
Q 506 4122 266 4122 
L 106 4122 
L 106 4238 
L 1659 4238 
Q 2228 4238 2556 4120 
Q 2884 4003 3109 3725 
Q 3334 3447 3334 3066 
Q 3334 2547 2992 2222 
Q 2650 1897 2025 1897 
Q 1872 1897 1694 1919 
Q 1516 1941 1313 1984 
z
M 1313 2163 
Q 1478 2131 1606 2115 
Q 1734 2100 1825 2100 
Q 2150 2100 2386 2351 
Q 2622 2603 2622 3003 
Q 2622 3278 2509 3514 
Q 2397 3750 2190 3867 
Q 1984 3984 1722 3984 
Q 1563 3984 1313 3925 
L 1313 2163 
z
" transform="scale(0.015625)"/>
        <path id="TimesNewRomanPSMT-75" d="M 2709 2863 
L 2709 1128 
Q 2709 631 2732 520 
Q 2756 409 2807 365 
Q 2859 322 2928 322 
Q 3025 322 3147 375 
L 3191 266 
L 2334 -88 
L 2194 -88 
L 2194 519 
Q 1825 119 1631 15 
Q 1438 -88 1222 -88 
Q 981 -88 804 51 
Q 628 191 559 409 
Q 491 628 491 1028 
L 491 2306 
Q 491 2509 447 2587 
Q 403 2666 317 2708 
Q 231 2750 6 2747 
L 6 2863 
L 1009 2863 
L 1009 947 
Q 1009 547 1148 422 
Q 1288 297 1484 297 
Q 1619 297 1789 381 
Q 1959 466 2194 703 
L 2194 2325 
Q 2194 2569 2105 2655 
Q 2016 2741 1734 2747 
L 1734 2863 
L 2709 2863 
z
" transform="scale(0.015625)"/>
        <path id="TimesNewRomanPSMT-6c" d="M 1184 4444 
L 1184 647 
Q 1184 378 1223 290 
Q 1263 203 1344 158 
Q 1425 113 1647 113 
L 1647 0 
L 244 0 
L 244 113 
Q 441 113 512 153 
Q 584 194 625 287 
Q 666 381 666 647 
L 666 3247 
Q 666 3731 644 3842 
Q 622 3953 573 3993 
Q 525 4034 450 4034 
Q 369 4034 244 3984 
L 191 4094 
L 1044 4444 
L 1184 4444 
z
" transform="scale(0.015625)"/>
        <path id="TimesNewRomanPSMT-73" d="M 2050 2947 
L 2050 1972 
L 1947 1972 
Q 1828 2431 1642 2597 
Q 1456 2763 1169 2763 
Q 950 2763 815 2647 
Q 681 2531 681 2391 
Q 681 2216 781 2091 
Q 878 1963 1175 1819 
L 1631 1597 
Q 2266 1288 2266 781 
Q 2266 391 1970 151 
Q 1675 -88 1309 -88 
Q 1047 -88 709 6 
Q 606 38 541 38 
Q 469 38 428 -44 
L 325 -44 
L 325 978 
L 428 978 
Q 516 541 762 319 
Q 1009 97 1316 97 
Q 1531 97 1667 223 
Q 1803 350 1803 528 
Q 1803 744 1651 891 
Q 1500 1038 1047 1263 
Q 594 1488 453 1669 
Q 313 1847 313 2119 
Q 313 2472 555 2709 
Q 797 2947 1181 2947 
Q 1350 2947 1591 2875 
Q 1750 2828 1803 2828 
Q 1853 2828 1881 2850 
Q 1909 2872 1947 2947 
L 2050 2947 
z
" transform="scale(0.015625)"/>
       </defs>
       <use xlink:href="#TimesNewRomanPSMT-44"/>
       <use xlink:href="#TimesNewRomanPSMT-61" x="72.216797"/>
       <use xlink:href="#TimesNewRomanPSMT-74" x="116.601562"/>
       <use xlink:href="#TimesNewRomanPSMT-61" x="144.384766"/>
       <use xlink:href="#TimesNewRomanPSMT-50" x="188.769531"/>
       <use xlink:href="#TimesNewRomanPSMT-75" x="244.384766"/>
       <use xlink:href="#TimesNewRomanPSMT-6c" x="294.384766"/>
       <use xlink:href="#TimesNewRomanPSMT-73" x="322.167969"/>
       <use xlink:href="#TimesNewRomanPSMT-65" x="361.083984"/>
      </g>
     </g>
    </g>
    <g id="xtick_3">
     <g id="line2d_3">
      <g>
       <use xlink:href="#mdbc32cd197" x="244.305937" y="258.900181" style="stroke: #000000; stroke-width: 0.8"/>
      </g>
     </g>
     <g id="text_3">
      <!-- SkyBound -->
      <g transform="translate(206.640569 307.626552) rotate(-45) scale(0.12 -0.12)">
       <defs>
        <path id="TimesNewRomanPSMT-53" d="M 2934 4334 
L 2934 2869 
L 2819 2869 
Q 2763 3291 2617 3541 
Q 2472 3791 2203 3937 
Q 1934 4084 1647 4084 
Q 1322 4084 1109 3886 
Q 897 3688 897 3434 
Q 897 3241 1031 3081 
Q 1225 2847 1953 2456 
Q 2547 2138 2764 1967 
Q 2981 1797 3098 1565 
Q 3216 1334 3216 1081 
Q 3216 600 2842 251 
Q 2469 -97 1881 -97 
Q 1697 -97 1534 -69 
Q 1438 -53 1133 45 
Q 828 144 747 144 
Q 669 144 623 97 
Q 578 50 556 -97 
L 441 -97 
L 441 1356 
L 556 1356 
Q 638 900 775 673 
Q 913 447 1195 297 
Q 1478 147 1816 147 
Q 2206 147 2432 353 
Q 2659 559 2659 841 
Q 2659 997 2573 1156 
Q 2488 1316 2306 1453 
Q 2184 1547 1640 1851 
Q 1097 2156 867 2337 
Q 638 2519 519 2737 
Q 400 2956 400 3219 
Q 400 3675 750 4004 
Q 1100 4334 1641 4334 
Q 1978 4334 2356 4169 
Q 2531 4091 2603 4091 
Q 2684 4091 2736 4139 
Q 2788 4188 2819 4334 
L 2934 4334 
z
" transform="scale(0.015625)"/>
        <path id="TimesNewRomanPSMT-6b" d="M 1047 4444 
L 1047 1597 
L 1775 2259 
Q 2006 2472 2044 2528 
Q 2069 2566 2069 2603 
Q 2069 2666 2017 2711 
Q 1966 2756 1847 2763 
L 1847 2863 
L 3091 2863 
L 3091 2763 
Q 2834 2756 2664 2684 
Q 2494 2613 2291 2428 
L 1556 1750 
L 2291 822 
Q 2597 438 2703 334 
Q 2853 188 2966 144 
Q 3044 113 3238 113 
L 3238 0 
L 1847 0 
L 1847 113 
Q 1966 116 2008 148 
Q 2050 181 2050 241 
Q 2050 313 1925 472 
L 1047 1594 
L 1047 644 
Q 1047 366 1086 278 
Q 1125 191 1197 153 
Q 1269 116 1509 113 
L 1509 0 
L 53 0 
L 53 113 
Q 272 113 381 166 
Q 447 200 481 272 
Q 528 375 528 628 
L 528 3234 
Q 528 3731 506 3842 
Q 484 3953 434 3995 
Q 384 4038 303 4038 
Q 238 4038 106 3984 
L 53 4094 
L 903 4444 
L 1047 4444 
z
" transform="scale(0.015625)"/>
        <path id="TimesNewRomanPSMT-79" d="M 38 2863 
L 1372 2863 
L 1372 2747 
L 1306 2747 
Q 1166 2747 1095 2686 
Q 1025 2625 1025 2534 
Q 1025 2413 1128 2197 
L 1825 753 
L 2466 2334 
Q 2519 2463 2519 2588 
Q 2519 2644 2497 2672 
Q 2472 2706 2419 2726 
Q 2366 2747 2231 2747 
L 2231 2863 
L 3163 2863 
L 3163 2747 
Q 3047 2734 2984 2696 
Q 2922 2659 2847 2556 
Q 2819 2513 2741 2316 
L 1575 -541 
Q 1406 -956 1132 -1168 
Q 859 -1381 606 -1381 
Q 422 -1381 303 -1275 
Q 184 -1169 184 -1031 
Q 184 -900 270 -820 
Q 356 -741 506 -741 
Q 609 -741 788 -809 
Q 913 -856 944 -856 
Q 1038 -856 1148 -759 
Q 1259 -663 1372 -384 
L 1575 113 
L 547 2272 
Q 500 2369 397 2513 
Q 319 2622 269 2659 
Q 197 2709 38 2747 
L 38 2863 
z
" transform="scale(0.015625)"/>
        <path id="TimesNewRomanPSMT-42" d="M 2956 2163 
Q 3397 2069 3616 1863 
Q 3919 1575 3919 1159 
Q 3919 844 3719 555 
Q 3519 266 3170 133 
Q 2822 0 2106 0 
L 106 0 
L 106 116 
L 266 116 
Q 531 116 647 284 
Q 719 394 719 750 
L 719 3488 
Q 719 3881 628 3984 
Q 506 4122 266 4122 
L 106 4122 
L 106 4238 
L 1938 4238 
Q 2450 4238 2759 4163 
Q 3228 4050 3475 3764 
Q 3722 3478 3722 3106 
Q 3722 2788 3528 2536 
Q 3334 2284 2956 2163 
z
M 1319 2331 
Q 1434 2309 1582 2298 
Q 1731 2288 1909 2288 
Q 2366 2288 2595 2386 
Q 2825 2484 2947 2687 
Q 3069 2891 3069 3131 
Q 3069 3503 2766 3765 
Q 2463 4028 1881 4028 
Q 1569 4028 1319 3959 
L 1319 2331 
z
M 1319 306 
Q 1681 222 2034 222 
Q 2600 222 2897 476 
Q 3194 731 3194 1106 
Q 3194 1353 3059 1581 
Q 2925 1809 2622 1940 
Q 2319 2072 1872 2072 
Q 1678 2072 1540 2065 
Q 1403 2059 1319 2044 
L 1319 306 
z
" transform="scale(0.015625)"/>
        <path id="TimesNewRomanPSMT-6e" d="M 1034 2341 
Q 1538 2947 1994 2947 
Q 2228 2947 2397 2830 
Q 2566 2713 2666 2444 
Q 2734 2256 2734 1869 
L 2734 647 
Q 2734 375 2778 278 
Q 2813 200 2889 156 
Q 2966 113 3172 113 
L 3172 0 
L 1756 0 
L 1756 113 
L 1816 113 
Q 2016 113 2095 173 
Q 2175 234 2206 353 
Q 2219 400 2219 647 
L 2219 1819 
Q 2219 2209 2117 2386 
Q 2016 2563 1775 2563 
Q 1403 2563 1034 2156 
L 1034 647 
Q 1034 356 1069 288 
Q 1113 197 1189 155 
Q 1266 113 1500 113 
L 1500 0 
L 84 0 
L 84 113 
L 147 113 
Q 366 113 442 223 
Q 519 334 519 647 
L 519 1709 
Q 519 2225 495 2337 
Q 472 2450 423 2490 
Q 375 2531 294 2531 
Q 206 2531 84 2484 
L 38 2597 
L 900 2947 
L 1034 2947 
L 1034 2341 
z
" transform="scale(0.015625)"/>
       </defs>
       <use xlink:href="#TimesNewRomanPSMT-53"/>
       <use xlink:href="#TimesNewRomanPSMT-6b" x="55.615234"/>
       <use xlink:href="#TimesNewRomanPSMT-79" x="105.615234"/>
       <use xlink:href="#TimesNewRomanPSMT-42" x="155.615234"/>
       <use xlink:href="#TimesNewRomanPSMT-6f" x="222.314453"/>
       <use xlink:href="#TimesNewRomanPSMT-75" x="272.314453"/>
       <use xlink:href="#TimesNewRomanPSMT-6e" x="322.314453"/>
       <use xlink:href="#TimesNewRomanPSMT-64" x="372.314453"/>
      </g>
     </g>
    </g>
    <g id="xtick_4">
     <g id="line2d_4">
      <g>
       <use xlink:href="#mdbc32cd197" x="317.661937" y="258.900181" style="stroke: #000000; stroke-width: 0.8"/>
      </g>
     </g>
     <g id="text_4">
      <!-- TrueNorth -->
      <g transform="translate(280.330677 307.308354) rotate(-45) scale(0.12 -0.12)">
       <defs>
        <path id="TimesNewRomanPSMT-54" d="M 3703 4238 
L 3750 3244 
L 3631 3244 
Q 3597 3506 3538 3619 
Q 3441 3800 3280 3886 
Q 3119 3972 2856 3972 
L 2259 3972 
L 2259 734 
Q 2259 344 2344 247 
Q 2463 116 2709 116 
L 2856 116 
L 2856 0 
L 1059 0 
L 1059 116 
L 1209 116 
Q 1478 116 1591 278 
Q 1659 378 1659 734 
L 1659 3972 
L 1150 3972 
Q 853 3972 728 3928 
Q 566 3869 450 3700 
Q 334 3531 313 3244 
L 194 3244 
L 244 4238 
L 3703 4238 
z
" transform="scale(0.015625)"/>
        <path id="TimesNewRomanPSMT-72" d="M 1038 2947 
L 1038 2303 
Q 1397 2947 1775 2947 
Q 1947 2947 2059 2842 
Q 2172 2738 2172 2600 
Q 2172 2478 2090 2393 
Q 2009 2309 1897 2309 
Q 1788 2309 1652 2417 
Q 1516 2525 1450 2525 
Q 1394 2525 1328 2463 
Q 1188 2334 1038 2041 
L 1038 669 
Q 1038 431 1097 309 
Q 1138 225 1241 169 
Q 1344 113 1538 113 
L 1538 0 
L 72 0 
L 72 113 
Q 291 113 397 181 
Q 475 231 506 341 
Q 522 394 522 644 
L 522 1753 
Q 522 2253 501 2348 
Q 481 2444 426 2487 
Q 372 2531 291 2531 
Q 194 2531 72 2484 
L 41 2597 
L 906 2947 
L 1038 2947 
z
" transform="scale(0.015625)"/>
        <path id="TimesNewRomanPSMT-68" d="M 1041 4444 
L 1041 2350 
Q 1388 2731 1591 2839 
Q 1794 2947 1997 2947 
Q 2241 2947 2416 2812 
Q 2591 2678 2675 2391 
Q 2734 2191 2734 1659 
L 2734 647 
Q 2734 375 2778 275 
Q 2809 200 2884 156 
Q 2959 113 3159 113 
L 3159 0 
L 1753 0 
L 1753 113 
L 1819 113 
Q 2019 113 2097 173 
Q 2175 234 2206 353 
Q 2216 403 2216 647 
L 2216 1659 
Q 2216 2128 2167 2275 
Q 2119 2422 2012 2495 
Q 1906 2569 1756 2569 
Q 1603 2569 1437 2487 
Q 1272 2406 1041 2159 
L 1041 647 
Q 1041 353 1073 281 
Q 1106 209 1195 161 
Q 1284 113 1503 113 
L 1503 0 
L 84 0 
L 84 113 
Q 275 113 384 172 
Q 447 203 484 290 
Q 522 378 522 647 
L 522 3238 
Q 522 3728 498 3840 
Q 475 3953 426 3993 
Q 378 4034 297 4034 
Q 231 4034 84 3984 
L 41 4094 
L 897 4444 
L 1041 4444 
z
" transform="scale(0.015625)"/>
       </defs>
       <use xlink:href="#TimesNewRomanPSMT-54"/>
       <use xlink:href="#TimesNewRomanPSMT-72" x="57.583984"/>
       <use xlink:href="#TimesNewRomanPSMT-75" x="90.884766"/>
       <use xlink:href="#TimesNewRomanPSMT-65" x="140.884766"/>
       <use xlink:href="#TimesNewRomanPSMT-4e" x="185.269531"/>
       <use xlink:href="#TimesNewRomanPSMT-6f" x="257.486328"/>
       <use xlink:href="#TimesNewRomanPSMT-72" x="307.486328"/>
       <use xlink:href="#TimesNewRomanPSMT-74" x="340.787109"/>
       <use xlink:href="#TimesNewRomanPSMT-68" x="368.570312"/>
      </g>
     </g>
    </g>
    <g id="xtick_5">
     <g id="line2d_5">
      <g>
       <use xlink:href="#mdbc32cd197" x="391.017937" y="258.900181" style="stroke: #000000; stroke-width: 0.8"/>
      </g>
     </g>
     <g id="text_5">
      <!-- BrightEdge -->
      <g transform="translate(350.067174 310.911947) rotate(-45) scale(0.12 -0.12)">
       <defs>
        <path id="TimesNewRomanPSMT-69" d="M 928 4444 
Q 1059 4444 1151 4351 
Q 1244 4259 1244 4128 
Q 1244 3997 1151 3903 
Q 1059 3809 928 3809 
Q 797 3809 703 3903 
Q 609 3997 609 4128 
Q 609 4259 701 4351 
Q 794 4444 928 4444 
z
M 1188 2947 
L 1188 647 
Q 1188 378 1227 289 
Q 1266 200 1342 156 
Q 1419 113 1622 113 
L 1622 0 
L 231 0 
L 231 113 
Q 441 113 512 153 
Q 584 194 626 287 
Q 669 381 669 647 
L 669 1750 
Q 669 2216 641 2353 
Q 619 2453 572 2492 
Q 525 2531 444 2531 
Q 356 2531 231 2484 
L 188 2597 
L 1050 2947 
L 1188 2947 
z
" transform="scale(0.015625)"/>
       </defs>
       <use xlink:href="#TimesNewRomanPSMT-42"/>
       <use xlink:href="#TimesNewRomanPSMT-72" x="66.699219"/>
       <use xlink:href="#TimesNewRomanPSMT-69" x="100"/>
       <use xlink:href="#TimesNewRomanPSMT-67" x="127.783203"/>
       <use xlink:href="#TimesNewRomanPSMT-68" x="177.783203"/>
       <use xlink:href="#TimesNewRomanPSMT-74" x="227.783203"/>
       <use xlink:href="#TimesNewRomanPSMT-45" x="255.566406"/>
       <use xlink:href="#TimesNewRomanPSMT-64" x="316.650391"/>
       <use xlink:href="#TimesNewRomanPSMT-67" x="366.650391"/>
       <use xlink:href="#TimesNewRomanPSMT-65" x="416.650391"/>
      </g>
     </g>
    </g>
   </g>
   <g id="matplotlib.axis_2">
    <g id="ytick_1">
     <g id="line2d_6">
      <defs>
       <path id="m886f02496f" d="M 0 0 
L -3.5 0 
" style="stroke: #000000; stroke-width: 0.8"/>
      </defs>
      <g>
       <use xlink:href="#m886f02496f" x="60.915938" y="255.660988" style="stroke: #000000; stroke-width: 0.8"/>
      </g>
     </g>
     <g id="text_6">
      <!-- 0 -->
      <g transform="translate(48.915938 259.132863) scale(0.1 -0.1)">
       <defs>
        <path id="TimesNewRomanPSMT-30" d="M 231 2094 
Q 231 2819 450 3342 
Q 669 3866 1031 4122 
Q 1313 4325 1613 4325 
Q 2100 4325 2488 3828 
Q 2972 3213 2972 2159 
Q 2972 1422 2759 906 
Q 2547 391 2217 158 
Q 1888 -75 1581 -75 
Q 975 -75 572 641 
Q 231 1244 231 2094 
z
M 844 2016 
Q 844 1141 1059 588 
Q 1238 122 1591 122 
Q 1759 122 1940 273 
Q 2122 425 2216 781 
Q 2359 1319 2359 2297 
Q 2359 3022 2209 3506 
Q 2097 3866 1919 4016 
Q 1791 4119 1609 4119 
Q 1397 4119 1231 3928 
Q 1006 3669 925 3112 
Q 844 2556 844 2016 
z
" transform="scale(0.015625)"/>
       </defs>
       <use xlink:href="#TimesNewRomanPSMT-30"/>
      </g>
     </g>
    </g>
    <g id="ytick_2">
     <g id="line2d_7">
      <g>
       <use xlink:href="#m886f02496f" x="60.915938" y="221.711628" style="stroke: #000000; stroke-width: 0.8"/>
      </g>
     </g>
     <g id="text_7">
      <!-- 20000 -->
      <g transform="translate(28.915938 225.183503) scale(0.1 -0.1)">
       <defs>
        <path id="TimesNewRomanPSMT-32" d="M 2934 816 
L 2638 0 
L 138 0 
L 138 116 
Q 1241 1122 1691 1759 
Q 2141 2397 2141 2925 
Q 2141 3328 1894 3587 
Q 1647 3847 1303 3847 
Q 991 3847 742 3664 
Q 494 3481 375 3128 
L 259 3128 
Q 338 3706 661 4015 
Q 984 4325 1469 4325 
Q 1984 4325 2329 3994 
Q 2675 3663 2675 3213 
Q 2675 2891 2525 2569 
Q 2294 2063 1775 1497 
Q 997 647 803 472 
L 1909 472 
Q 2247 472 2383 497 
Q 2519 522 2628 598 
Q 2738 675 2819 816 
L 2934 816 
z
" transform="scale(0.015625)"/>
       </defs>
       <use xlink:href="#TimesNewRomanPSMT-32"/>
       <use xlink:href="#TimesNewRomanPSMT-30" x="50"/>
       <use xlink:href="#TimesNewRomanPSMT-30" x="100"/>
       <use xlink:href="#TimesNewRomanPSMT-30" x="150"/>
       <use xlink:href="#TimesNewRomanPSMT-30" x="200"/>
      </g>
     </g>
    </g>
    <g id="ytick_3">
     <g id="line2d_8">
      <g>
       <use xlink:href="#m886f02496f" x="60.915938" y="187.762268" style="stroke: #000000; stroke-width: 0.8"/>
      </g>
     </g>
     <g id="text_8">
      <!-- 40000 -->
      <g transform="translate(28.915938 191.234143) scale(0.1 -0.1)">
       <defs>
        <path id="TimesNewRomanPSMT-34" d="M 2978 1563 
L 2978 1119 
L 2409 1119 
L 2409 0 
L 1894 0 
L 1894 1119 
L 100 1119 
L 100 1519 
L 2066 4325 
L 2409 4325 
L 2409 1563 
L 2978 1563 
z
M 1894 1563 
L 1894 3666 
L 406 1563 
L 1894 1563 
z
" transform="scale(0.015625)"/>
       </defs>
       <use xlink:href="#TimesNewRomanPSMT-34"/>
       <use xlink:href="#TimesNewRomanPSMT-30" x="50"/>
       <use xlink:href="#TimesNewRomanPSMT-30" x="100"/>
       <use xlink:href="#TimesNewRomanPSMT-30" x="150"/>
       <use xlink:href="#TimesNewRomanPSMT-30" x="200"/>
      </g>
     </g>
    </g>
    <g id="ytick_4">
     <g id="line2d_9">
      <g>
       <use xlink:href="#m886f02496f" x="60.915938" y="153.812908" style="stroke: #000000; stroke-width: 0.8"/>
      </g>
     </g>
     <g id="text_9">
      <!-- 60000 -->
      <g transform="translate(28.915938 157.284783) scale(0.1 -0.1)">
       <defs>
        <path id="TimesNewRomanPSMT-36" d="M 2869 4325 
L 2869 4209 
Q 2456 4169 2195 4045 
Q 1934 3922 1679 3669 
Q 1425 3416 1258 3105 
Q 1091 2794 978 2366 
Q 1428 2675 1881 2675 
Q 2316 2675 2634 2325 
Q 2953 1975 2953 1425 
Q 2953 894 2631 456 
Q 2244 -75 1606 -75 
Q 1172 -75 869 213 
Q 275 772 275 1663 
Q 275 2231 503 2743 
Q 731 3256 1154 3653 
Q 1578 4050 1965 4187 
Q 2353 4325 2688 4325 
L 2869 4325 
z
M 925 2138 
Q 869 1716 869 1456 
Q 869 1156 980 804 
Q 1091 453 1309 247 
Q 1469 100 1697 100 
Q 1969 100 2183 356 
Q 2397 613 2397 1088 
Q 2397 1622 2184 2012 
Q 1972 2403 1581 2403 
Q 1463 2403 1327 2353 
Q 1191 2303 925 2138 
z
" transform="scale(0.015625)"/>
       </defs>
       <use xlink:href="#TimesNewRomanPSMT-36"/>
       <use xlink:href="#TimesNewRomanPSMT-30" x="50"/>
       <use xlink:href="#TimesNewRomanPSMT-30" x="100"/>
       <use xlink:href="#TimesNewRomanPSMT-30" x="150"/>
       <use xlink:href="#TimesNewRomanPSMT-30" x="200"/>
      </g>
     </g>
    </g>
    <g id="ytick_5">
     <g id="line2d_10">
      <g>
       <use xlink:href="#m886f02496f" x="60.915938" y="119.863548" style="stroke: #000000; stroke-width: 0.8"/>
      </g>
     </g>
     <g id="text_10">
      <!-- 80000 -->
      <g transform="translate(28.915938 123.335423) scale(0.1 -0.1)">
       <defs>
        <path id="TimesNewRomanPSMT-38" d="M 1228 2134 
Q 725 2547 579 2797 
Q 434 3047 434 3316 
Q 434 3728 753 4026 
Q 1072 4325 1600 4325 
Q 2113 4325 2425 4047 
Q 2738 3769 2738 3413 
Q 2738 3175 2569 2928 
Q 2400 2681 1866 2347 
Q 2416 1922 2594 1678 
Q 2831 1359 2831 1006 
Q 2831 559 2490 242 
Q 2150 -75 1597 -75 
Q 994 -75 656 303 
Q 388 606 388 966 
Q 388 1247 577 1523 
Q 766 1800 1228 2134 
z
M 1719 2469 
Q 2094 2806 2194 3001 
Q 2294 3197 2294 3444 
Q 2294 3772 2109 3958 
Q 1925 4144 1606 4144 
Q 1288 4144 1088 3959 
Q 888 3775 888 3528 
Q 888 3366 970 3203 
Q 1053 3041 1206 2894 
L 1719 2469 
z
M 1375 2016 
Q 1116 1797 991 1539 
Q 866 1281 866 981 
Q 866 578 1086 336 
Q 1306 94 1647 94 
Q 1984 94 2187 284 
Q 2391 475 2391 747 
Q 2391 972 2272 1150 
Q 2050 1481 1375 2016 
z
" transform="scale(0.015625)"/>
       </defs>
       <use xlink:href="#TimesNewRomanPSMT-38"/>
       <use xlink:href="#TimesNewRomanPSMT-30" x="50"/>
       <use xlink:href="#TimesNewRomanPSMT-30" x="100"/>
       <use xlink:href="#TimesNewRomanPSMT-30" x="150"/>
       <use xlink:href="#TimesNewRomanPSMT-30" x="200"/>
      </g>
     </g>
    </g>
    <g id="ytick_6">
     <g id="line2d_11">
      <g>
       <use xlink:href="#m886f02496f" x="60.915938" y="85.914188" style="stroke: #000000; stroke-width: 0.8"/>
      </g>
     </g>
     <g id="text_11">
      <!-- 100000 -->
      <g transform="translate(23.915938 89.386063) scale(0.1 -0.1)">
       <defs>
        <path id="TimesNewRomanPSMT-31" d="M 750 3822 
L 1781 4325 
L 1884 4325 
L 1884 747 
Q 1884 391 1914 303 
Q 1944 216 2037 169 
Q 2131 122 2419 116 
L 2419 0 
L 825 0 
L 825 116 
Q 1125 122 1212 167 
Q 1300 213 1334 289 
Q 1369 366 1369 747 
L 1369 3034 
Q 1369 3497 1338 3628 
Q 1316 3728 1258 3775 
Q 1200 3822 1119 3822 
Q 1003 3822 797 3725 
L 750 3822 
z
" transform="scale(0.015625)"/>
       </defs>
       <use xlink:href="#TimesNewRomanPSMT-31"/>
       <use xlink:href="#TimesNewRomanPSMT-30" x="50"/>
       <use xlink:href="#TimesNewRomanPSMT-30" x="100"/>
       <use xlink:href="#TimesNewRomanPSMT-30" x="150"/>
       <use xlink:href="#TimesNewRomanPSMT-30" x="200"/>
       <use xlink:href="#TimesNewRomanPSMT-30" x="250"/>
      </g>
     </g>
    </g>
    <g id="ytick_7">
     <g id="line2d_12">
      <g>
       <use xlink:href="#m886f02496f" x="60.915938" y="51.964829" style="stroke: #000000; stroke-width: 0.8"/>
      </g>
     </g>
     <g id="text_12">
      <!-- 120000 -->
      <g transform="translate(23.915938 55.436704) scale(0.1 -0.1)">
       <use xlink:href="#TimesNewRomanPSMT-31"/>
       <use xlink:href="#TimesNewRomanPSMT-32" x="50"/>
       <use xlink:href="#TimesNewRomanPSMT-30" x="100"/>
       <use xlink:href="#TimesNewRomanPSMT-30" x="150"/>
       <use xlink:href="#TimesNewRomanPSMT-30" x="200"/>
       <use xlink:href="#TimesNewRomanPSMT-30" x="250"/>
      </g>
     </g>
    </g>
    <g id="text_13">
     <!-- USD -->
     <g transform="translate(16.92125 158.475872) rotate(-90) scale(0.14 -0.14)">
      <defs>
       <path id="TimesNewRomanPSMT-55" d="M 3053 4122 
L 3053 4238 
L 4553 4238 
L 4553 4122 
L 4394 4122 
Q 4144 4122 4009 3913 
Q 3944 3816 3944 3463 
L 3944 1744 
Q 3944 1106 3817 754 
Q 3691 403 3320 151 
Q 2950 -100 2313 -100 
Q 1619 -100 1259 140 
Q 900 381 750 788 
Q 650 1066 650 1831 
L 650 3488 
Q 650 3878 542 4000 
Q 434 4122 194 4122 
L 34 4122 
L 34 4238 
L 1866 4238 
L 1866 4122 
L 1703 4122 
Q 1441 4122 1328 3956 
Q 1250 3844 1250 3488 
L 1250 1641 
Q 1250 1394 1295 1075 
Q 1341 756 1459 578 
Q 1578 400 1801 284 
Q 2025 169 2350 169 
Q 2766 169 3094 350 
Q 3422 531 3542 814 
Q 3663 1097 3663 1772 
L 3663 3488 
Q 3663 3884 3575 3984 
Q 3453 4122 3213 4122 
L 3053 4122 
z
" transform="scale(0.015625)"/>
      </defs>
      <use xlink:href="#TimesNewRomanPSMT-55"/>
      <use xlink:href="#TimesNewRomanPSMT-53" x="72.216797"/>
      <use xlink:href="#TimesNewRomanPSMT-44" x="127.832031"/>
     </g>
    </g>
   </g>
   <g id="patch_3">
    <path d="M 93.192577 189.483925 
L 101.995297 189.483925 
L 101.995297 148.704378 
L 93.192577 148.704378 
L 93.192577 189.483925 
L 93.192577 189.483925 
z
" clip-path="url(#p0461f982ed)" style="fill: none; stroke: #000000; stroke-linejoin: miter"/>
   </g>
   <g id="line2d_13">
    <path d="M 97.593938 189.483925 
L 97.593938 242.724584 
" clip-path="url(#p0461f982ed)" style="fill: none; stroke: #000000; stroke-linecap: square"/>
   </g>
   <g id="line2d_14">
    <path d="M 97.593938 148.704378 
L 97.593938 93.951699 
" clip-path="url(#p0461f982ed)" style="fill: none; stroke: #000000; stroke-linecap: square"/>
   </g>
   <g id="line2d_15">
    <path d="M 95.393258 242.724584 
L 99.794618 242.724584 
" clip-path="url(#p0461f982ed)" style="fill: none; stroke: #000000; stroke-linecap: square"/>
   </g>
   <g id="line2d_16">
    <path d="M 95.393258 93.951699 
L 99.794618 93.951699 
" clip-path="url(#p0461f982ed)" style="fill: none; stroke: #000000; stroke-linecap: square"/>
   </g>
   <g id="patch_4">
    <path d="M 166.548577 185.042075 
L 175.351298 185.042075 
L 175.351298 151.565885 
L 166.548577 151.565885 
L 166.548577 185.042075 
L 166.548577 185.042075 
z
" clip-path="url(#p0461f982ed)" style="fill: none; stroke: #000000; stroke-linejoin: miter"/>
   </g>
   <g id="line2d_17">
    <path d="M 170.949938 185.042075 
L 170.949938 225.213504 
" clip-path="url(#p0461f982ed)" style="fill: none; stroke: #000000; stroke-linecap: square"/>
   </g>
   <g id="line2d_18">
    <path d="M 170.949938 151.565885 
L 170.949938 103.039943 
" clip-path="url(#p0461f982ed)" style="fill: none; stroke: #000000; stroke-linecap: square"/>
   </g>
   <g id="line2d_19">
    <path d="M 168.749257 225.213504 
L 173.150617 225.213504 
" clip-path="url(#p0461f982ed)" style="fill: none; stroke: #000000; stroke-linecap: square"/>
   </g>
   <g id="line2d_20">
    <path d="M 168.749257 103.039943 
L 173.150617 103.039943 
" clip-path="url(#p0461f982ed)" style="fill: none; stroke: #000000; stroke-linecap: square"/>
   </g>
   <g id="patch_5">
    <path d="M 239.904577 178.264086 
L 248.707298 178.264086 
L 248.707298 146.317738 
L 239.904577 146.317738 
L 239.904577 178.264086 
L 239.904577 178.264086 
z
" clip-path="url(#p0461f982ed)" style="fill: none; stroke: #000000; stroke-linejoin: miter"/>
   </g>
   <g id="line2d_21">
    <path d="M 244.305937 178.264086 
L 244.305937 224.436064 
" clip-path="url(#p0461f982ed)" style="fill: none; stroke: #000000; stroke-linecap: square"/>
   </g>
   <g id="line2d_22">
    <path d="M 244.305937 146.317738 
L 244.305937 102.68687 
" clip-path="url(#p0461f982ed)" style="fill: none; stroke: #000000; stroke-linecap: square"/>
   </g>
   <g id="line2d_23">
    <path d="M 242.105258 224.436064 
L 246.506617 224.436064 
" clip-path="url(#p0461f982ed)" style="fill: none; stroke: #000000; stroke-linecap: square"/>
   </g>
   <g id="line2d_24">
    <path d="M 242.105258 102.68687 
L 246.506617 102.68687 
" clip-path="url(#p0461f982ed)" style="fill: none; stroke: #000000; stroke-linecap: square"/>
   </g>
   <g id="patch_6">
    <path d="M 313.260577 192.214302 
L 322.063297 192.214302 
L 322.063297 159.009282 
L 313.260577 159.009282 
L 313.260577 192.214302 
L 313.260577 192.214302 
z
" clip-path="url(#p0461f982ed)" style="fill: none; stroke: #000000; stroke-linejoin: miter"/>
   </g>
   <g id="line2d_25">
    <path d="M 317.661937 192.214302 
L 317.661937 240.079929 
" clip-path="url(#p0461f982ed)" style="fill: none; stroke: #000000; stroke-linecap: square"/>
   </g>
   <g id="line2d_26">
    <path d="M 317.661937 159.009282 
L 317.661937 109.775496 
" clip-path="url(#p0461f982ed)" style="fill: none; stroke: #000000; stroke-linecap: square"/>
   </g>
   <g id="line2d_27">
    <path d="M 315.461257 240.079929 
L 319.862617 240.079929 
" clip-path="url(#p0461f982ed)" style="fill: none; stroke: #000000; stroke-linecap: square"/>
   </g>
   <g id="line2d_28">
    <path d="M 315.461257 109.775496 
L 319.862617 109.775496 
" clip-path="url(#p0461f982ed)" style="fill: none; stroke: #000000; stroke-linecap: square"/>
   </g>
   <g id="patch_7">
    <path d="M 386.616578 177.980184 
L 395.419297 177.980184 
L 395.419297 139.010138 
L 386.616578 139.010138 
L 386.616578 177.980184 
L 386.616578 177.980184 
z
" clip-path="url(#p0461f982ed)" style="fill: none; stroke: #000000; stroke-linejoin: miter"/>
   </g>
   <g id="line2d_29">
    <path d="M 391.017937 177.980184 
L 391.017937 230.737065 
" clip-path="url(#p0461f982ed)" style="fill: none; stroke: #000000; stroke-linecap: square"/>
   </g>
   <g id="line2d_30">
    <path d="M 391.017937 139.010138 
L 391.017937 81.757089 
" clip-path="url(#p0461f982ed)" style="fill: none; stroke: #000000; stroke-linecap: square"/>
   </g>
   <g id="line2d_31">
    <path d="M 388.817257 230.737065 
L 393.218617 230.737065 
" clip-path="url(#p0461f982ed)" style="fill: none; stroke: #000000; stroke-linecap: square"/>
   </g>
   <g id="line2d_32">
    <path d="M 388.817257 81.757089 
L 393.218617 81.757089 
" clip-path="url(#p0461f982ed)" style="fill: none; stroke: #000000; stroke-linecap: square"/>
   </g>
   <g id="line2d_33">
    <path d="M 93.192577 172.535131 
L 101.995297 172.535131 
" clip-path="url(#p0461f982ed)" style="fill: none; stroke: #000000; stroke-width: 1.5; stroke-linecap: square"/>
   </g>
   <g id="line2d_34">
    <path d="M 166.548577 165.575512 
L 175.351298 165.575512 
" clip-path="url(#p0461f982ed)" style="fill: none; stroke: #000000; stroke-width: 1.5; stroke-linecap: square"/>
   </g>
   <g id="line2d_35">
    <path d="M 239.904577 158.831472 
L 248.707298 158.831472 
" clip-path="url(#p0461f982ed)" style="fill: none; stroke: #000000; stroke-width: 1.5; stroke-linecap: square"/>
   </g>
   <g id="line2d_36">
    <path d="M 313.260577 175.557473 
L 322.063297 175.557473 
" clip-path="url(#p0461f982ed)" style="fill: none; stroke: #000000; stroke-width: 1.5; stroke-linecap: square"/>
   </g>
   <g id="line2d_37">
    <path d="M 386.616578 158.159275 
L 395.419297 158.159275 
" clip-path="url(#p0461f982ed)" style="fill: none; stroke: #000000; stroke-width: 1.5; stroke-linecap: square"/>
   </g>
   <g id="patch_8">
    <path d="M 60.915938 258.900181 
L 60.915938 30.045 
" style="fill: none; stroke: #000000; stroke-linejoin: miter; stroke-linecap: square"/>
   </g>
   <g id="patch_9">
    <path d="M 427.695937 258.900181 
L 427.695937 30.045 
" style="fill: none; stroke: #000000; stroke-linejoin: miter; stroke-linecap: square"/>
   </g>
   <g id="patch_10">
    <path d="M 60.915938 258.900181 
L 427.695937 258.900181 
" style="fill: none; stroke: #000000; stroke-linejoin: miter; stroke-linecap: square"/>
   </g>
   <g id="patch_11">
    <path d="M 60.915938 30.045 
L 427.695937 30.045 
" style="fill: none; stroke: #000000; stroke-linejoin: miter; stroke-linecap: square"/>
   </g>
   <g id="text_14">
    <!-- Data on the monthly revenue of different companies (USD) -->
    <g transform="translate(43.722187 18.045) scale(0.16 -0.16)">
     <defs>
      <path id="TimesNewRomanPS-BoldMT-44" d="M 84 0 
L 84 116 
L 225 116 
Q 409 116 507 173 
Q 606 231 653 331 
Q 681 397 681 725 
L 681 3513 
Q 681 3838 647 3919 
Q 613 4000 508 4061 
Q 403 4122 225 4122 
L 84 4122 
L 84 4238 
L 1981 4238 
Q 2741 4238 3203 4031 
Q 3769 3778 4061 3265 
Q 4353 2753 4353 2106 
Q 4353 1659 4209 1282 
Q 4066 906 3837 661 
Q 3609 416 3311 267 
Q 3013 119 2581 38 
Q 2391 0 1981 0 
L 84 0 
z
M 1700 3997 
L 1700 691 
Q 1700 428 1725 368 
Q 1750 309 1809 278 
Q 1894 231 2053 231 
Q 2575 231 2850 588 
Q 3225 1069 3225 2081 
Q 3225 2897 2969 3384 
Q 2766 3766 2447 3903 
Q 2222 4000 1700 3997 
z
" transform="scale(0.015625)"/>
      <path id="TimesNewRomanPS-BoldMT-61" d="M 1828 431 
Q 1294 -41 869 -41 
Q 619 -41 453 123 
Q 288 288 288 534 
Q 288 869 575 1136 
Q 863 1403 1828 1847 
L 1828 2141 
Q 1828 2472 1792 2558 
Q 1756 2644 1656 2708 
Q 1556 2772 1431 2772 
Q 1228 2772 1097 2681 
Q 1016 2625 1016 2550 
Q 1016 2484 1103 2388 
Q 1222 2253 1222 2128 
Q 1222 1975 1108 1867 
Q 994 1759 809 1759 
Q 613 1759 480 1878 
Q 347 1997 347 2156 
Q 347 2381 525 2586 
Q 703 2791 1022 2900 
Q 1341 3009 1684 3009 
Q 2100 3009 2342 2832 
Q 2584 2656 2656 2450 
Q 2700 2319 2700 1847 
L 2700 713 
Q 2700 513 2715 461 
Q 2731 409 2762 384 
Q 2794 359 2834 359 
Q 2916 359 3000 475 
L 3094 400 
Q 2938 169 2770 64 
Q 2603 -41 2391 -41 
Q 2141 -41 2000 76 
Q 1859 194 1828 431 
z
M 1828 659 
L 1828 1638 
Q 1450 1416 1266 1163 
Q 1144 994 1144 822 
Q 1144 678 1247 569 
Q 1325 484 1466 484 
Q 1622 484 1828 659 
z
" transform="scale(0.015625)"/>
      <path id="TimesNewRomanPS-BoldMT-74" d="M 1375 3991 
L 1375 2922 
L 2069 2922 
L 2069 2613 
L 1375 2613 
L 1375 809 
Q 1375 556 1398 482 
Q 1422 409 1481 364 
Q 1541 319 1591 319 
Q 1794 319 1975 628 
L 2069 559 
Q 1816 -41 1247 -41 
Q 969 -41 776 114 
Q 584 269 531 459 
Q 500 566 500 1034 
L 500 2613 
L 119 2613 
L 119 2722 
Q 513 3000 789 3306 
Q 1066 3613 1272 3991 
L 1375 3991 
z
" transform="scale(0.015625)"/>
      <path id="TimesNewRomanPS-BoldMT-20" transform="scale(0.015625)"/>
      <path id="TimesNewRomanPS-BoldMT-6f" d="M 1594 3009 
Q 1975 3009 2303 2812 
Q 2631 2616 2801 2253 
Q 2972 1891 2972 1459 
Q 2972 838 2656 419 
Q 2275 -88 1603 -88 
Q 944 -88 587 375 
Q 231 838 231 1447 
Q 231 2075 595 2542 
Q 959 3009 1594 3009 
z
M 1606 2788 
Q 1447 2788 1333 2667 
Q 1219 2547 1183 2192 
Q 1147 1838 1147 1206 
Q 1147 872 1191 581 
Q 1225 359 1337 243 
Q 1450 128 1594 128 
Q 1734 128 1828 206 
Q 1950 313 1991 503 
Q 2053 800 2053 1703 
Q 2053 2234 1993 2432 
Q 1934 2631 1819 2722 
Q 1738 2788 1606 2788 
z
" transform="scale(0.015625)"/>
      <path id="TimesNewRomanPS-BoldMT-6e" d="M 1409 2922 
L 1409 2544 
Q 1634 2788 1840 2898 
Q 2047 3009 2284 3009 
Q 2569 3009 2756 2851 
Q 2944 2694 3006 2459 
Q 3056 2281 3056 1775 
L 3056 638 
Q 3056 300 3117 217 
Q 3178 134 3372 113 
L 3372 0 
L 1894 0 
L 1894 113 
Q 2059 134 2131 250 
Q 2181 328 2181 638 
L 2181 1938 
Q 2181 2297 2153 2390 
Q 2125 2484 2058 2536 
Q 1991 2588 1909 2588 
Q 1641 2588 1409 2203 
L 1409 638 
Q 1409 309 1470 221 
Q 1531 134 1697 113 
L 1697 0 
L 219 0 
L 219 113 
Q 403 131 481 231 
Q 534 300 534 638 
L 534 2288 
Q 534 2619 473 2700 
Q 413 2781 219 2806 
L 219 2922 
L 1409 2922 
z
" transform="scale(0.015625)"/>
      <path id="TimesNewRomanPS-BoldMT-68" d="M 1409 4238 
L 1409 2547 
Q 1650 2800 1850 2904 
Q 2050 3009 2266 3009 
Q 2541 3009 2736 2853 
Q 2931 2697 2995 2486 
Q 3059 2275 3059 1775 
L 3059 634 
Q 3059 300 3121 217 
Q 3184 134 3375 113 
L 3375 0 
L 1894 0 
L 1894 113 
Q 2050 134 2128 238 
Q 2184 319 2184 634 
L 2184 1938 
Q 2184 2300 2156 2392 
Q 2128 2484 2061 2536 
Q 1994 2588 1909 2588 
Q 1784 2588 1665 2502 
Q 1547 2416 1409 2200 
L 1409 634 
Q 1409 322 1456 244 
Q 1516 138 1700 113 
L 1700 0 
L 219 0 
L 219 113 
Q 403 131 481 231 
Q 534 300 534 634 
L 534 3603 
Q 534 3934 473 4015 
Q 413 4097 219 4122 
L 219 4238 
L 1409 4238 
z
" transform="scale(0.015625)"/>
      <path id="TimesNewRomanPS-BoldMT-65" d="M 2691 1566 
L 1088 1566 
Q 1116 984 1397 647 
Q 1613 388 1916 388 
Q 2103 388 2256 492 
Q 2409 597 2584 869 
L 2691 800 
Q 2453 316 2165 114 
Q 1878 -88 1500 -88 
Q 850 -88 516 413 
Q 247 816 247 1413 
Q 247 2144 642 2576 
Q 1038 3009 1569 3009 
Q 2013 3009 2339 2645 
Q 2666 2281 2691 1566 
z
M 1922 1775 
Q 1922 2278 1867 2465 
Q 1813 2653 1697 2750 
Q 1631 2806 1522 2806 
Q 1359 2806 1256 2647 
Q 1072 2369 1072 1884 
L 1072 1775 
L 1922 1775 
z
" transform="scale(0.015625)"/>
      <path id="TimesNewRomanPS-BoldMT-6d" d="M 1428 2922 
L 1428 2538 
Q 1669 2800 1873 2904 
Q 2078 3009 2322 3009 
Q 2603 3009 2793 2878 
Q 2984 2747 3088 2478 
Q 3338 2759 3567 2884 
Q 3797 3009 4047 3009 
Q 4350 3009 4529 2870 
Q 4709 2731 4779 2517 
Q 4850 2303 4850 1834 
L 4850 638 
Q 4850 300 4911 219 
Q 4972 138 5166 113 
L 5166 0 
L 3656 0 
L 3656 113 
Q 3834 128 3919 250 
Q 3975 334 3975 638 
L 3975 1894 
Q 3975 2284 3944 2390 
Q 3913 2497 3845 2548 
Q 3778 2600 3688 2600 
Q 3553 2600 3415 2501 
Q 3278 2403 3138 2206 
L 3138 638 
Q 3138 322 3191 241 
Q 3263 125 3466 113 
L 3466 0 
L 1953 0 
L 1953 113 
Q 2075 119 2145 173 
Q 2216 228 2239 304 
Q 2263 381 2263 638 
L 2263 1894 
Q 2263 2291 2231 2391 
Q 2200 2491 2126 2547 
Q 2053 2603 1969 2603 
Q 1844 2603 1741 2538 
Q 1594 2441 1428 2206 
L 1428 638 
Q 1428 328 1489 229 
Q 1550 131 1744 113 
L 1744 0 
L 238 0 
L 238 113 
Q 422 131 500 231 
Q 553 300 553 638 
L 553 2288 
Q 553 2619 492 2700 
Q 431 2781 238 2806 
L 238 2922 
L 1428 2922 
z
" transform="scale(0.015625)"/>
      <path id="TimesNewRomanPS-BoldMT-6c" d="M 1359 4238 
L 1359 606 
Q 1359 297 1431 211 
Q 1503 125 1713 113 
L 1713 0 
L 134 0 
L 134 113 
Q 328 119 422 225 
Q 484 297 484 606 
L 484 3631 
Q 484 3938 412 4023 
Q 341 4109 134 4122 
L 134 4238 
L 1359 4238 
z
" transform="scale(0.015625)"/>
      <path id="TimesNewRomanPS-BoldMT-79" d="M 1556 -119 
L 613 2047 
Q 400 2538 298 2650 
Q 197 2763 53 2806 
L 53 2922 
L 1606 2922 
L 1606 2806 
Q 1453 2800 1390 2747 
Q 1328 2694 1328 2619 
Q 1328 2500 1484 2150 
L 1984 1006 
L 2325 1891 
Q 2509 2363 2509 2547 
Q 2509 2663 2432 2731 
Q 2356 2800 2163 2806 
L 2163 2922 
L 3141 2922 
L 3141 2806 
Q 2997 2791 2906 2695 
Q 2816 2600 2603 2047 
L 1769 -119 
Q 1453 -931 1300 -1119 
Q 1084 -1381 759 -1381 
Q 500 -1381 339 -1232 
Q 178 -1084 178 -875 
Q 178 -694 289 -575 
Q 400 -456 563 -456 
Q 719 -456 814 -556 
Q 909 -656 913 -866 
Q 916 -984 941 -1019 
Q 966 -1053 1013 -1053 
Q 1088 -1053 1172 -963 
Q 1297 -831 1466 -363 
L 1556 -119 
z
" transform="scale(0.015625)"/>
      <path id="TimesNewRomanPS-BoldMT-72" d="M 1428 2922 
L 1428 2259 
Q 1719 2713 1937 2861 
Q 2156 3009 2359 3009 
Q 2534 3009 2639 2901 
Q 2744 2794 2744 2597 
Q 2744 2388 2642 2272 
Q 2541 2156 2397 2156 
Q 2231 2156 2109 2262 
Q 1988 2369 1966 2381 
Q 1934 2400 1894 2400 
Q 1803 2400 1722 2331 
Q 1594 2225 1528 2028 
Q 1428 1725 1428 1359 
L 1428 688 
L 1431 513 
Q 1431 334 1453 284 
Q 1491 200 1564 161 
Q 1638 122 1813 113 
L 1813 0 
L 234 0 
L 234 113 
Q 425 128 492 217 
Q 559 306 559 688 
L 559 2303 
Q 559 2553 534 2622 
Q 503 2709 443 2750 
Q 384 2791 234 2806 
L 234 2922 
L 1428 2922 
z
" transform="scale(0.015625)"/>
      <path id="TimesNewRomanPS-BoldMT-76" d="M 1534 -88 
L 550 2178 
Q 372 2588 272 2697 
Q 200 2778 59 2806 
L 59 2922 
L 1613 2922 
L 1613 2806 
Q 1466 2806 1413 2753 
Q 1338 2684 1338 2591 
Q 1338 2475 1475 2156 
L 1956 1059 
L 2341 2006 
Q 2506 2413 2506 2581 
Q 2506 2678 2436 2739 
Q 2366 2800 2188 2806 
L 2188 2922 
L 3144 2922 
L 3144 2806 
Q 3006 2788 2918 2703 
Q 2831 2619 2656 2206 
L 1681 -88 
L 1534 -88 
z
" transform="scale(0.015625)"/>
      <path id="TimesNewRomanPS-BoldMT-75" d="M 3038 2922 
L 3038 634 
Q 3038 300 3100 217 
Q 3163 134 3353 113 
L 3353 0 
L 2163 0 
L 2163 391 
Q 1953 141 1743 26 
Q 1534 -88 1275 -88 
Q 1028 -88 836 64 
Q 644 216 578 419 
Q 513 622 513 1128 
L 513 2288 
Q 513 2619 452 2700 
Q 391 2781 197 2806 
L 197 2922 
L 1388 2922 
L 1388 925 
Q 1388 613 1417 522 
Q 1447 431 1511 384 
Q 1575 338 1659 338 
Q 1772 338 1863 397 
Q 1988 478 2163 725 
L 2163 2288 
Q 2163 2619 2102 2700 
Q 2041 2781 1847 2806 
L 1847 2922 
L 3038 2922 
z
" transform="scale(0.015625)"/>
      <path id="TimesNewRomanPS-BoldMT-66" d="M 1497 2616 
L 1497 588 
Q 1497 294 1559 219 
Q 1659 103 1928 113 
L 1928 0 
L 206 0 
L 206 113 
Q 403 116 486 158 
Q 569 200 600 275 
Q 631 350 631 588 
L 631 2616 
L 206 2616 
L 206 2922 
L 631 2922 
L 631 3138 
L 628 3284 
Q 628 3734 958 4034 
Q 1288 4334 1850 4334 
Q 2234 4334 2420 4190 
Q 2606 4047 2606 3872 
Q 2606 3731 2490 3628 
Q 2375 3525 2184 3525 
Q 2022 3525 1926 3609 
Q 1831 3694 1831 3797 
Q 1831 3825 1850 3913 
Q 1863 3966 1863 4013 
Q 1863 4078 1825 4109 
Q 1775 4156 1703 4156 
Q 1613 4156 1552 4081 
Q 1491 4006 1491 3841 
L 1497 3294 
L 1497 2922 
L 1928 2922 
L 1928 2616 
L 1497 2616 
z
" transform="scale(0.015625)"/>
      <path id="TimesNewRomanPS-BoldMT-64" d="M 3056 4238 
L 3056 875 
Q 3056 534 3075 472 
Q 3100 369 3170 319 
Q 3241 269 3416 256 
L 3416 153 
L 2181 -88 
L 2181 375 
Q 1959 106 1786 9 
Q 1613 -88 1394 -88 
Q 834 -88 509 413 
Q 247 819 247 1409 
Q 247 1881 409 2254 
Q 572 2628 855 2818 
Q 1138 3009 1463 3009 
Q 1672 3009 1834 2928 
Q 1997 2847 2181 2644 
L 2181 3525 
Q 2181 3859 2153 3928 
Q 2116 4019 2041 4062 
Q 1966 4106 1759 4106 
L 1759 4238 
L 3056 4238 
z
M 2181 2256 
Q 1950 2700 1616 2700 
Q 1500 2700 1425 2638 
Q 1309 2541 1236 2297 
Q 1163 2053 1163 1550 
Q 1163 997 1244 731 
Q 1325 466 1466 347 
Q 1538 288 1663 288 
Q 1938 288 2181 719 
L 2181 2256 
z
" transform="scale(0.015625)"/>
      <path id="TimesNewRomanPS-BoldMT-69" d="M 919 4338 
Q 1122 4338 1262 4195 
Q 1403 4053 1403 3853 
Q 1403 3653 1261 3512 
Q 1119 3372 919 3372 
Q 719 3372 578 3512 
Q 438 3653 438 3853 
Q 438 4053 578 4195 
Q 719 4338 919 4338 
z
M 1356 2922 
L 1356 606 
Q 1356 297 1428 211 
Q 1500 125 1709 113 
L 1709 0 
L 131 0 
L 131 113 
Q 325 119 419 225 
Q 481 297 481 606 
L 481 2313 
Q 481 2622 409 2708 
Q 338 2794 131 2806 
L 131 2922 
L 1356 2922 
z
" transform="scale(0.015625)"/>
      <path id="TimesNewRomanPS-BoldMT-63" d="M 2600 753 
L 2697 678 
Q 2491 291 2183 101 
Q 1875 -88 1528 -88 
Q 944 -88 594 353 
Q 244 794 244 1413 
Q 244 2009 563 2463 
Q 947 3009 1622 3009 
Q 2075 3009 2342 2781 
Q 2609 2553 2609 2272 
Q 2609 2094 2501 1987 
Q 2394 1881 2219 1881 
Q 2034 1881 1914 2003 
Q 1794 2125 1766 2438 
Q 1747 2634 1675 2713 
Q 1603 2791 1506 2791 
Q 1356 2791 1250 2631 
Q 1088 2391 1088 1894 
Q 1088 1481 1219 1104 
Q 1350 728 1578 544 
Q 1750 409 1984 409 
Q 2138 409 2275 481 
Q 2413 553 2600 753 
z
" transform="scale(0.015625)"/>
      <path id="TimesNewRomanPS-BoldMT-70" d="M 1347 297 
L 1347 -791 
Q 1347 -1016 1383 -1097 
Q 1419 -1178 1494 -1215 
Q 1569 -1253 1788 -1253 
L 1788 -1369 
L 122 -1369 
L 122 -1253 
Q 316 -1247 409 -1144 
Q 472 -1072 472 -772 
L 472 2313 
Q 472 2622 400 2708 
Q 328 2794 122 2806 
L 122 2922 
L 1347 2922 
L 1347 2538 
Q 1500 2763 1659 2863 
Q 1888 3009 2156 3009 
Q 2478 3009 2742 2806 
Q 3006 2603 3143 2245 
Q 3281 1888 3281 1475 
Q 3281 1031 3139 664 
Q 2997 297 2726 104 
Q 2456 -88 2125 -88 
Q 1884 -88 1675 19 
Q 1519 100 1347 297 
z
M 1347 613 
Q 1616 231 1922 231 
Q 2091 231 2200 409 
Q 2363 672 2363 1409 
Q 2363 2166 2184 2444 
Q 2066 2628 1866 2628 
Q 1550 2628 1347 2172 
L 1347 613 
z
" transform="scale(0.015625)"/>
      <path id="TimesNewRomanPS-BoldMT-73" d="M 2063 3003 
L 2109 2006 
L 2003 2006 
Q 1813 2450 1608 2612 
Q 1403 2775 1200 2775 
Q 1072 2775 981 2689 
Q 891 2603 891 2491 
Q 891 2406 953 2328 
Q 1053 2200 1512 1889 
Q 1972 1578 2117 1361 
Q 2263 1144 2263 875 
Q 2263 631 2141 397 
Q 2019 163 1797 37 
Q 1575 -88 1306 -88 
Q 1097 -88 747 44 
Q 653 78 619 78 
Q 516 78 447 -78 
L 344 -78 
L 294 972 
L 400 972 
Q 541 559 786 353 
Q 1031 147 1250 147 
Q 1400 147 1495 239 
Q 1591 331 1591 463 
Q 1591 613 1497 722 
Q 1403 831 1078 1053 
Q 600 1384 459 1559 
Q 253 1816 253 2125 
Q 253 2463 486 2736 
Q 719 3009 1159 3009 
Q 1397 3009 1619 2894 
Q 1703 2847 1756 2847 
Q 1813 2847 1847 2870 
Q 1881 2894 1956 3003 
L 2063 3003 
z
" transform="scale(0.015625)"/>
      <path id="TimesNewRomanPS-BoldMT-28" d="M 2056 4334 
L 2056 4191 
Q 1731 3978 1578 3775 
Q 1366 3494 1247 3053 
Q 1097 2506 1097 1525 
Q 1097 600 1233 87 
Q 1369 -425 1603 -741 
Q 1766 -959 2056 -1125 
L 2056 -1281 
Q 1303 -1028 779 -248 
Q 256 531 256 1544 
Q 256 2544 778 3314 
Q 1300 4084 2056 4334 
z
" transform="scale(0.015625)"/>
      <path id="TimesNewRomanPS-BoldMT-55" d="M 150 4238 
L 2338 4238 
L 2338 4122 
L 2228 4122 
Q 1981 4122 1889 4070 
Q 1797 4019 1758 3928 
Q 1719 3838 1719 3475 
L 1719 1400 
Q 1719 831 1805 647 
Q 1891 463 2087 341 
Q 2284 219 2584 219 
Q 2928 219 3170 373 
Q 3413 528 3533 800 
Q 3653 1072 3653 1747 
L 3653 3475 
Q 3653 3759 3593 3881 
Q 3534 4003 3444 4050 
Q 3303 4122 3047 4122 
L 3047 4238 
L 4513 4238 
L 4513 4122 
L 4425 4122 
Q 4247 4122 4128 4050 
Q 4009 3978 3956 3834 
Q 3916 3734 3916 3475 
L 3916 1866 
Q 3916 1119 3817 787 
Q 3719 456 3337 178 
Q 2956 -100 2297 -100 
Q 1747 -100 1447 47 
Q 1038 247 869 559 
Q 700 872 700 1400 
L 700 3475 
Q 700 3841 659 3930 
Q 619 4019 519 4072 
Q 419 4125 150 4122 
L 150 4238 
z
" transform="scale(0.015625)"/>
      <path id="TimesNewRomanPS-BoldMT-53" d="M 3006 4334 
L 3041 2922 
L 2913 2922 
Q 2822 3453 2467 3776 
Q 2113 4100 1700 4100 
Q 1381 4100 1195 3929 
Q 1009 3759 1009 3538 
Q 1009 3397 1075 3288 
Q 1166 3141 1366 2997 
Q 1513 2894 2044 2631 
Q 2788 2266 3047 1941 
Q 3303 1616 3303 1197 
Q 3303 666 2889 283 
Q 2475 -100 1838 -100 
Q 1638 -100 1459 -59 
Q 1281 -19 1013 94 
Q 863 156 766 156 
Q 684 156 593 93 
Q 503 31 447 -97 
L 331 -97 
L 331 1503 
L 447 1503 
Q 584 828 976 473 
Q 1369 119 1822 119 
Q 2172 119 2380 309 
Q 2588 500 2588 753 
Q 2588 903 2508 1043 
Q 2428 1184 2265 1311 
Q 2103 1438 1691 1641 
Q 1113 1925 859 2125 
Q 606 2325 470 2572 
Q 334 2819 334 3116 
Q 334 3622 706 3978 
Q 1078 4334 1644 4334 
Q 1850 4334 2044 4284 
Q 2191 4247 2402 4145 
Q 2613 4044 2697 4044 
Q 2778 4044 2825 4094 
Q 2872 4144 2913 4334 
L 3006 4334 
z
" transform="scale(0.015625)"/>
      <path id="TimesNewRomanPS-BoldMT-29" d="M 78 -1281 
L 78 -1138 
Q 403 -922 556 -719 
Q 766 -438 888 0 
Q 1038 550 1038 1531 
Q 1038 2456 902 2967 
Q 766 3478 531 3794 
Q 369 4013 78 4178 
L 78 4334 
Q 831 4081 1354 3301 
Q 1878 2522 1878 1509 
Q 1878 513 1354 -257 
Q 831 -1028 78 -1281 
z
" transform="scale(0.015625)"/>
     </defs>
     <use xlink:href="#TimesNewRomanPS-BoldMT-44"/>
     <use xlink:href="#TimesNewRomanPS-BoldMT-61" x="72.216797"/>
     <use xlink:href="#TimesNewRomanPS-BoldMT-74" x="122.216797"/>
     <use xlink:href="#TimesNewRomanPS-BoldMT-61" x="155.517578"/>
     <use xlink:href="#TimesNewRomanPS-BoldMT-20" x="205.517578"/>
     <use xlink:href="#TimesNewRomanPS-BoldMT-6f" x="230.517578"/>
     <use xlink:href="#TimesNewRomanPS-BoldMT-6e" x="280.517578"/>
     <use xlink:href="#TimesNewRomanPS-BoldMT-20" x="336.132812"/>
     <use xlink:href="#TimesNewRomanPS-BoldMT-74" x="361.132812"/>
     <use xlink:href="#TimesNewRomanPS-BoldMT-68" x="394.433594"/>
     <use xlink:href="#TimesNewRomanPS-BoldMT-65" x="450.048828"/>
     <use xlink:href="#TimesNewRomanPS-BoldMT-20" x="494.433594"/>
     <use xlink:href="#TimesNewRomanPS-BoldMT-6d" x="519.433594"/>
     <use xlink:href="#TimesNewRomanPS-BoldMT-6f" x="602.734375"/>
     <use xlink:href="#TimesNewRomanPS-BoldMT-6e" x="652.734375"/>
     <use xlink:href="#TimesNewRomanPS-BoldMT-74" x="708.349609"/>
     <use xlink:href="#TimesNewRomanPS-BoldMT-68" x="741.650391"/>
     <use xlink:href="#TimesNewRomanPS-BoldMT-6c" x="797.265625"/>
     <use xlink:href="#TimesNewRomanPS-BoldMT-79" x="825.048828"/>
     <use xlink:href="#TimesNewRomanPS-BoldMT-20" x="875.048828"/>
     <use xlink:href="#TimesNewRomanPS-BoldMT-72" x="900.048828"/>
     <use xlink:href="#TimesNewRomanPS-BoldMT-65" x="942.683594"/>
     <use xlink:href="#TimesNewRomanPS-BoldMT-76" x="987.068359"/>
     <use xlink:href="#TimesNewRomanPS-BoldMT-65" x="1037.068359"/>
     <use xlink:href="#TimesNewRomanPS-BoldMT-6e" x="1081.453125"/>
     <use xlink:href="#TimesNewRomanPS-BoldMT-75" x="1137.068359"/>
     <use xlink:href="#TimesNewRomanPS-BoldMT-65" x="1192.683594"/>
     <use xlink:href="#TimesNewRomanPS-BoldMT-20" x="1237.068359"/>
     <use xlink:href="#TimesNewRomanPS-BoldMT-6f" x="1262.068359"/>
     <use xlink:href="#TimesNewRomanPS-BoldMT-66" x="1312.068359"/>
     <use xlink:href="#TimesNewRomanPS-BoldMT-20" x="1345.369141"/>
     <use xlink:href="#TimesNewRomanPS-BoldMT-64" x="1370.369141"/>
     <use xlink:href="#TimesNewRomanPS-BoldMT-69" x="1425.984375"/>
     <use xlink:href="#TimesNewRomanPS-BoldMT-66" x="1453.767578"/>
     <use xlink:href="#TimesNewRomanPS-BoldMT-66" x="1487.068359"/>
     <use xlink:href="#TimesNewRomanPS-BoldMT-65" x="1520.369141"/>
     <use xlink:href="#TimesNewRomanPS-BoldMT-72" x="1564.753906"/>
     <use xlink:href="#TimesNewRomanPS-BoldMT-65" x="1607.388672"/>
     <use xlink:href="#TimesNewRomanPS-BoldMT-6e" x="1651.773438"/>
     <use xlink:href="#TimesNewRomanPS-BoldMT-74" x="1707.388672"/>
     <use xlink:href="#TimesNewRomanPS-BoldMT-20" x="1740.689453"/>
     <use xlink:href="#TimesNewRomanPS-BoldMT-63" x="1765.689453"/>
     <use xlink:href="#TimesNewRomanPS-BoldMT-6f" x="1810.074219"/>
     <use xlink:href="#TimesNewRomanPS-BoldMT-6d" x="1860.074219"/>
     <use xlink:href="#TimesNewRomanPS-BoldMT-70" x="1943.375"/>
     <use xlink:href="#TimesNewRomanPS-BoldMT-61" x="1998.990234"/>
     <use xlink:href="#TimesNewRomanPS-BoldMT-6e" x="2048.990234"/>
     <use xlink:href="#TimesNewRomanPS-BoldMT-69" x="2104.605469"/>
     <use xlink:href="#TimesNewRomanPS-BoldMT-65" x="2132.388672"/>
     <use xlink:href="#TimesNewRomanPS-BoldMT-73" x="2176.773438"/>
     <use xlink:href="#TimesNewRomanPS-BoldMT-20" x="2215.689453"/>
     <use xlink:href="#TimesNewRomanPS-BoldMT-28" x="2240.689453"/>
     <use xlink:href="#TimesNewRomanPS-BoldMT-55" x="2273.990234"/>
     <use xlink:href="#TimesNewRomanPS-BoldMT-53" x="2346.207031"/>
     <use xlink:href="#TimesNewRomanPS-BoldMT-44" x="2401.822266"/>
     <use xlink:href="#TimesNewRomanPS-BoldMT-29" x="2474.039062"/>
    </g>
   </g>
  </g>
 </g>
 <defs>
  <clipPath id="p0461f982ed">
   <rect x="60.915938" y="30.045" width="366.78" height="228.855181"/>
  </clipPath>
 </defs>
</svg>
