<?xml version="1.0" encoding="utf-8" standalone="no"?>
<!DOCTYPE svg PUBLIC "-//W3C//DTD SVG 1.1//EN"
  "http://www.w3.org/Graphics/SVG/1.1/DTD/svg11.dtd">
<svg xmlns:xlink="http://www.w3.org/1999/xlink" width="442.990938pt" height="319.98799pt" viewBox="0 0 442.990938 319.98799" xmlns="http://www.w3.org/2000/svg" version="1.1">
 <metadata>
  <rdf:RDF xmlns:dc="http://purl.org/dc/elements/1.1/" xmlns:cc="http://creativecommons.org/ns#" xmlns:rdf="http://www.w3.org/1999/02/22-rdf-syntax-ns#">
   <cc:Work>
    <dc:type rdf:resource="http://purl.org/dc/dcmitype/StillImage"/>
    <dc:date>2025-05-26T16:30:32.688253</dc:date>
    <dc:format>image/svg+xml</dc:format>
    <dc:creator>
     <cc:Agent>
      <dc:title>Matplotlib v3.7.2, https://matplotlib.org/</dc:title>
     </cc:Agent>
    </dc:creator>
   </cc:Work>
  </rdf:RDF>
 </metadata>
 <defs>
  <style type="text/css">*{stroke-linejoin: round; stroke-linecap: butt}</style>
 </defs>
 <g id="figure_1">
  <g id="patch_1">
   <path d="M 0 319.98799 
L 442.990938 319.98799 
L 442.990938 0 
L 0 0 
z
" style="fill: #ffffff"/>
  </g>
  <g id="axes_1">
   <g id="patch_2">
    <path d="M 55.915938 261.318486 
L 427.705938 261.318486 
L 427.705938 30.045 
L 55.915938 30.045 
z
" style="fill: #ffffff"/>
   </g>
   <g id="PolyCollection_1">
    <defs>
     <path id="md05f1e8c54" d="M 83.06759 -125.027523 
L 81.877142 -125.027523 
L 81.874936 -126.214079 
L 81.887106 -127.400635 
L 81.912393 -128.58719 
L 81.948431 -129.773746 
L 81.991934 -130.960302 
L 82.038957 -132.146857 
L 82.085179 -133.333413 
L 82.126175 -134.519968 
L 82.15763 -135.706524 
L 82.17549 -136.89308 
L 82.176055 -138.079635 
L 82.156022 -139.266191 
L 82.11251 -140.452747 
L 82.043086 -141.639302 
L 81.945812 -142.825858 
L 81.819313 -144.012413 
L 81.662854 -145.198969 
L 81.47641 -146.385525 
L 81.260692 -147.57208 
L 81.017108 -148.758636 
L 80.747644 -149.945191 
L 80.45466 -151.131747 
L 80.140613 -152.318303 
L 79.807737 -153.504858 
L 79.457727 -154.691414 
L 79.091466 -155.87797 
L 78.708835 -157.064525 
L 78.308659 -158.251081 
L 77.888779 -159.437636 
L 77.446279 -160.624192 
L 76.977835 -161.810748 
L 76.480162 -162.997303 
L 75.95051 -164.183859 
L 75.387178 -165.370414 
L 74.78997 -166.55697 
L 74.160584 -167.743526 
L 73.50288 -168.930081 
L 72.823012 -170.116637 
L 72.129428 -171.303193 
L 71.432726 -172.489748 
L 70.745379 -173.676304 
L 70.081342 -174.862859 
L 69.455549 -176.049415 
L 68.883316 -177.235971 
L 68.379651 -178.422526 
L 67.958506 -179.609082 
L 67.631978 -180.795638 
L 67.409532 -181.982193 
L 67.297264 -183.168749 
L 67.297323 -184.355304 
L 67.407534 -185.54186 
L 67.621323 -186.728416 
L 67.927988 -187.914971 
L 68.313347 -189.101527 
L 68.760727 -190.288082 
L 69.25223 -191.474638 
L 69.770143 -192.661194 
L 70.298329 -193.847749 
L 70.823429 -195.034305 
L 71.335729 -196.220861 
L 71.829561 -197.407416 
L 72.303225 -198.593972 
L 72.75844 -199.780527 
L 73.199436 -200.967083 
L 73.631831 -202.153639 
L 74.061452 -203.340194 
L 74.493273 -204.52675 
L 74.930575 -205.713306 
L 75.374418 -206.899861 
L 75.823464 -208.086417 
L 76.274117 -209.272972 
L 76.720965 -210.459528 
L 77.157424 -211.646084 
L 77.576528 -212.832639 
L 77.971746 -214.019195 
L 78.33775 -215.20575 
L 78.671015 -216.392306 
L 78.970194 -217.578862 
L 79.236203 -218.765417 
L 79.472007 -219.951973 
L 79.682124 -221.138529 
L 79.871946 -222.325084 
L 80.046956 -223.51164 
L 80.211992 -224.698195 
L 80.370655 -225.884751 
L 80.524963 -227.071307 
L 80.675308 -228.257862 
L 80.820681 -229.444418 
L 80.959131 -230.630973 
L 81.088357 -231.817529 
L 81.206303 -233.004085 
L 81.311662 -234.19064 
L 81.40419 -235.377196 
L 81.484798 -236.563752 
L 81.555409 -237.750307 
L 81.618645 -238.936863 
L 81.677395 -240.123418 
L 81.734373 -241.309974 
L 81.791735 -242.49653 
L 83.152997 -242.49653 
L 83.152997 -242.49653 
L 83.210359 -241.309974 
L 83.267337 -240.123418 
L 83.326087 -238.936863 
L 83.389323 -237.750307 
L 83.459934 -236.563752 
L 83.540542 -235.377196 
L 83.63307 -234.19064 
L 83.738429 -233.004085 
L 83.856375 -231.817529 
L 83.985601 -230.630973 
L 84.124051 -229.444418 
L 84.269424 -228.257862 
L 84.419769 -227.071307 
L 84.574078 -225.884751 
L 84.73274 -224.698195 
L 84.897776 -223.51164 
L 85.072787 -222.325084 
L 85.262608 -221.138529 
L 85.472725 -219.951973 
L 85.708529 -218.765417 
L 85.974539 -217.578862 
L 86.273718 -216.392306 
L 86.606982 -215.20575 
L 86.972986 -214.019195 
L 87.368204 -212.832639 
L 87.787308 -211.646084 
L 88.223767 -210.459528 
L 88.670615 -209.272972 
L 89.121268 -208.086417 
L 89.570314 -206.899861 
L 90.014157 -205.713306 
L 90.451459 -204.52675 
L 90.88328 -203.340194 
L 91.312902 -202.153639 
L 91.745296 -200.967083 
L 92.186292 -199.780527 
L 92.641507 -198.593972 
L 93.115171 -197.407416 
L 93.609003 -196.220861 
L 94.121303 -195.034305 
L 94.646404 -193.847749 
L 95.174589 -192.661194 
L 95.692502 -191.474638 
L 96.184005 -190.288082 
L 96.631385 -189.101527 
L 97.016744 -187.914971 
L 97.32341 -186.728416 
L 97.537198 -185.54186 
L 97.647409 -184.355304 
L 97.647468 -183.168749 
L 97.5352 -181.982193 
L 97.312754 -180.795638 
L 96.986227 -179.609082 
L 96.565081 -178.422526 
L 96.061416 -177.235971 
L 95.489183 -176.049415 
L 94.86339 -174.862859 
L 94.199353 -173.676304 
L 93.512006 -172.489748 
L 92.815304 -171.303193 
L 92.12172 -170.116637 
L 91.441852 -168.930081 
L 90.784148 -167.743526 
L 90.154762 -166.55697 
L 89.557555 -165.370414 
L 88.994222 -164.183859 
L 88.464571 -162.997303 
L 87.966897 -161.810748 
L 87.498453 -160.624192 
L 87.055953 -159.437636 
L 86.636073 -158.251081 
L 86.235897 -157.064525 
L 85.853267 -155.87797 
L 85.487005 -154.691414 
L 85.136995 -153.504858 
L 84.804119 -152.318303 
L 84.490072 -151.131747 
L 84.197088 -149.945191 
L 83.927624 -148.758636 
L 83.68404 -147.57208 
L 83.468322 -146.385525 
L 83.281878 -145.198969 
L 83.12542 -144.012413 
L 82.99892 -142.825858 
L 82.901646 -141.639302 
L 82.832222 -140.452747 
L 82.78871 -139.266191 
L 82.768677 -138.079635 
L 82.769242 -136.89308 
L 82.787102 -135.706524 
L 82.818557 -134.519968 
L 82.859553 -133.333413 
L 82.905776 -132.146857 
L 82.952798 -130.960302 
L 82.996301 -129.773746 
L 83.032339 -128.58719 
L 83.057627 -127.400635 
L 83.069796 -126.214079 
L 83.06759 -125.027523 
z
" style="stroke: #000000; stroke-opacity: 0.7"/>
    </defs>
    <g clip-path="url(#p7202b86d45)">
     <use xlink:href="#md05f1e8c54" x="0" y="319.98799" style="fill: #9edae5; fill-opacity: 0.7; stroke: #000000; stroke-opacity: 0.7"/>
    </g>
   </g>
   <g id="PolyCollection_2">
    <defs>
     <path id="m07a33028f9" d="M 135.856896 -69.181935 
L 135.313551 -69.181935 
L 135.318081 -71.305658 
L 135.331226 -73.429382 
L 135.351708 -75.553105 
L 135.377629 -77.676829 
L 135.406748 -79.800552 
L 135.436793 -81.924276 
L 135.465727 -84.047999 
L 135.491927 -86.171722 
L 135.514252 -88.295446 
L 135.532007 -90.419169 
L 135.544803 -92.542893 
L 135.552375 -94.666616 
L 135.55437 -96.79034 
L 135.550143 -98.914063 
L 135.538603 -101.037787 
L 135.518108 -103.16151 
L 135.486447 -105.285234 
L 135.440909 -107.408957 
L 135.378437 -109.532681 
L 135.295866 -111.656404 
L 135.190197 -113.780128 
L 135.058894 -115.903851 
L 134.900123 -118.027575 
L 134.712918 -120.151298 
L 134.497226 -122.275021 
L 134.253834 -124.398745 
L 133.98419 -126.522468 
L 133.690155 -128.646192 
L 133.373694 -130.769915 
L 133.03654 -132.893639 
L 132.679814 -135.017362 
L 132.303604 -137.141086 
L 131.906522 -139.264809 
L 131.485296 -141.388533 
L 131.034517 -143.512256 
L 130.546697 -145.63598 
L 130.012783 -147.759703 
L 129.423242 -149.883427 
L 128.769694 -152.00715 
L 128.046943 -154.130874 
L 127.255128 -156.254597 
L 126.401601 -158.37832 
L 125.502114 -160.502044 
L 124.580993 -162.625767 
L 123.670064 -164.749491 
L 122.806353 -166.873214 
L 122.028774 -168.996938 
L 121.374234 -171.120661 
L 120.873713 -173.244385 
L 120.548927 -175.368108 
L 120.410121 -177.491832 
L 120.455313 -179.615555 
L 120.671118 -181.739279 
L 121.034957 -183.863002 
L 121.518243 -185.986726 
L 122.089993 -188.110449 
L 122.720277 -190.234173 
L 123.383017 -192.357896 
L 124.057805 -194.481619 
L 124.730642 -196.605343 
L 125.39365 -198.729066 
L 126.043998 -200.85279 
L 126.682321 -202.976513 
L 127.310961 -205.100237 
L 127.932315 -207.22396 
L 128.54751 -209.347684 
L 129.155565 -211.471407 
L 129.753091 -213.595131 
L 130.334511 -215.718854 
L 130.8927 -217.842578 
L 131.419887 -219.966301 
L 131.908644 -222.090025 
L 132.352803 -224.213748 
L 132.748152 -226.337472 
L 133.092858 -228.461195 
L 133.387566 -230.584919 
L 133.635207 -232.708642 
L 133.840552 -234.832365 
L 134.009572 -236.956089 
L 134.148688 -239.079812 
L 134.263997 -241.203536 
L 134.36059 -243.327259 
L 134.442067 -245.450983 
L 134.510334 -247.574706 
L 134.565753 -249.69843 
L 134.60761 -251.822153 
L 134.634827 -253.945877 
L 134.646768 -256.0696 
L 134.643961 -258.193324 
L 134.628573 -260.317047 
L 134.60452 -262.440771 
L 134.577187 -264.564494 
L 134.552814 -266.688218 
L 134.537674 -268.811941 
L 134.537211 -270.935664 
L 134.555295 -273.059388 
L 134.593745 -275.183111 
L 134.65216 -277.306835 
L 134.728085 -279.430558 
L 136.442361 -279.430558 
L 136.442361 -279.430558 
L 136.518287 -277.306835 
L 136.576702 -275.183111 
L 136.615152 -273.059388 
L 136.633236 -270.935664 
L 136.632772 -268.811941 
L 136.617633 -266.688218 
L 136.59326 -264.564494 
L 136.565927 -262.440771 
L 136.541873 -260.317047 
L 136.526485 -258.193324 
L 136.523679 -256.0696 
L 136.535619 -253.945877 
L 136.562836 -251.822153 
L 136.604693 -249.69843 
L 136.660112 -247.574706 
L 136.72838 -245.450983 
L 136.809856 -243.327259 
L 136.90645 -241.203536 
L 137.021759 -239.079812 
L 137.160874 -236.956089 
L 137.329894 -234.832365 
L 137.53524 -232.708642 
L 137.782881 -230.584919 
L 138.077588 -228.461195 
L 138.422294 -226.337472 
L 138.817643 -224.213748 
L 139.261802 -222.090025 
L 139.75056 -219.966301 
L 140.277746 -217.842578 
L 140.835935 -215.718854 
L 141.417355 -213.595131 
L 142.014881 -211.471407 
L 142.622936 -209.347684 
L 143.238132 -207.22396 
L 143.859485 -205.100237 
L 144.488125 -202.976513 
L 145.126448 -200.85279 
L 145.776796 -198.729066 
L 146.439805 -196.605343 
L 147.112642 -194.481619 
L 147.78743 -192.357896 
L 148.450169 -190.234173 
L 149.080453 -188.110449 
L 149.652203 -185.986726 
L 150.135489 -183.863002 
L 150.499328 -181.739279 
L 150.715133 -179.615555 
L 150.760325 -177.491832 
L 150.621519 -175.368108 
L 150.296734 -173.244385 
L 149.796212 -171.120661 
L 149.141672 -168.996938 
L 148.364094 -166.873214 
L 147.500383 -164.749491 
L 146.589453 -162.625767 
L 145.668332 -160.502044 
L 144.768846 -158.37832 
L 143.915318 -156.254597 
L 143.123504 -154.130874 
L 142.400752 -152.00715 
L 141.747204 -149.883427 
L 141.157664 -147.759703 
L 140.62375 -145.63598 
L 140.135929 -143.512256 
L 139.68515 -141.388533 
L 139.263924 -139.264809 
L 138.866842 -137.141086 
L 138.490633 -135.017362 
L 138.133907 -132.893639 
L 137.796753 -130.769915 
L 137.480292 -128.646192 
L 137.186256 -126.522468 
L 136.916613 -124.398745 
L 136.67322 -122.275021 
L 136.457528 -120.151298 
L 136.270324 -118.027575 
L 136.111553 -115.903851 
L 135.98025 -113.780128 
L 135.874581 -111.656404 
L 135.792009 -109.532681 
L 135.729538 -107.408957 
L 135.684 -105.285234 
L 135.652339 -103.16151 
L 135.631844 -101.037787 
L 135.620303 -98.914063 
L 135.616077 -96.79034 
L 135.618071 -94.666616 
L 135.625644 -92.542893 
L 135.63844 -90.419169 
L 135.656194 -88.295446 
L 135.67852 -86.171722 
L 135.70472 -84.047999 
L 135.733654 -81.924276 
L 135.763699 -79.800552 
L 135.792818 -77.676829 
L 135.818738 -75.553105 
L 135.839221 -73.429382 
L 135.852365 -71.305658 
L 135.856896 -69.181935 
z
" style="stroke: #000000; stroke-opacity: 0.7"/>
    </defs>
    <g clip-path="url(#p7202b86d45)">
     <use xlink:href="#m07a33028f9" x="0" y="319.98799" style="fill: #9467bd; fill-opacity: 0.7; stroke: #000000; stroke-opacity: 0.7"/>
    </g>
   </g>
   <g id="PolyCollection_3">
    <defs>
     <path id="mb3d13ab389" d="M 189.694897 -119.83989 
L 187.701264 -119.83989 
L 187.623823 -120.978343 
L 187.553719 -122.116797 
L 187.491581 -123.255251 
L 187.437402 -124.393704 
L 187.390517 -125.532158 
L 187.34962 -126.670612 
L 187.312801 -127.809066 
L 187.277618 -128.947519 
L 187.241192 -130.085973 
L 187.200326 -131.224427 
L 187.151653 -132.362881 
L 187.09179 -133.501334 
L 187.01751 -134.639788 
L 186.925887 -135.778242 
L 186.81442 -136.916696 
L 186.681087 -138.055149 
L 186.524347 -139.193603 
L 186.343058 -140.332057 
L 186.136353 -141.470511 
L 185.903478 -142.608964 
L 185.643631 -143.747418 
L 185.355856 -144.885872 
L 185.038998 -146.024326 
L 184.691759 -147.162779 
L 184.31284 -148.301233 
L 183.901161 -149.439687 
L 183.456117 -150.578141 
L 182.97784 -151.716594 
L 182.467408 -152.855048 
L 181.926979 -153.993502 
L 181.35983 -155.131955 
L 180.770294 -156.270409 
L 180.163619 -157.408863 
L 179.545777 -158.547317 
L 178.923253 -159.68577 
L 178.302858 -160.824224 
L 177.691572 -161.962678 
L 177.096451 -163.101132 
L 176.524571 -164.239585 
L 175.982997 -165.378039 
L 175.478757 -166.516493 
L 175.01878 -167.654947 
L 174.60979 -168.7934 
L 174.25813 -169.931854 
L 173.969529 -171.070308 
L 173.748822 -172.208762 
L 173.599656 -173.347215 
L 173.524212 -174.485669 
L 173.522978 -175.624123 
L 173.594615 -176.762577 
L 173.735931 -177.90103 
L 173.941988 -179.039484 
L 174.206348 -180.177938 
L 174.521444 -181.316392 
L 174.879065 -182.454845 
L 175.270913 -183.593299 
L 175.689176 -184.731753 
L 176.127075 -185.870206 
L 176.579284 -187.00866 
L 177.042202 -188.147114 
L 177.513994 -189.285568 
L 177.994393 -190.424021 
L 178.484287 -191.562475 
L 178.98512 -192.700929 
L 179.49821 -193.839383 
L 180.02407 -194.977836 
L 180.561851 -196.11629 
L 181.108995 -197.254744 
L 181.661151 -198.393198 
L 182.21238 -199.531651 
L 182.755601 -200.670105 
L 183.283221 -201.808559 
L 183.787844 -202.947013 
L 184.262936 -204.085466 
L 184.703372 -205.22392 
L 185.105776 -206.362374 
L 185.468623 -207.500828 
L 185.792113 -208.639281 
L 186.077869 -209.777735 
L 186.328508 -210.916189 
L 186.547196 -212.054643 
L 186.737229 -213.193096 
L 186.901732 -214.33155 
L 187.043483 -215.470004 
L 187.164874 -216.608457 
L 187.267993 -217.746911 
L 187.35477 -218.885365 
L 187.427149 -220.023819 
L 187.487234 -221.162272 
L 187.537368 -222.300726 
L 187.58014 -223.43918 
L 187.618294 -224.577634 
L 187.654589 -225.716087 
L 187.691607 -226.854541 
L 187.73156 -227.992995 
L 187.776124 -229.131449 
L 187.826317 -230.269902 
L 187.882453 -231.408356 
L 187.944158 -232.54681 
L 189.452003 -232.54681 
L 189.452003 -232.54681 
L 189.513708 -231.408356 
L 189.569844 -230.269902 
L 189.620037 -229.131449 
L 189.6646 -227.992995 
L 189.704554 -226.854541 
L 189.741572 -225.716087 
L 189.777867 -224.577634 
L 189.816021 -223.43918 
L 189.858792 -222.300726 
L 189.908927 -221.162272 
L 189.969012 -220.023819 
L 190.041391 -218.885365 
L 190.128168 -217.746911 
L 190.231287 -216.608457 
L 190.352678 -215.470004 
L 190.494429 -214.33155 
L 190.658932 -213.193096 
L 190.848965 -212.054643 
L 191.067653 -210.916189 
L 191.318292 -209.777735 
L 191.604047 -208.639281 
L 191.927538 -207.500828 
L 192.290384 -206.362374 
L 192.692789 -205.22392 
L 193.133225 -204.085466 
L 193.608317 -202.947013 
L 194.112939 -201.808559 
L 194.64056 -200.670105 
L 195.183781 -199.531651 
L 195.73501 -198.393198 
L 196.287166 -197.254744 
L 196.83431 -196.11629 
L 197.372091 -194.977836 
L 197.89795 -193.839383 
L 198.41104 -192.700929 
L 198.911874 -191.562475 
L 199.401768 -190.424021 
L 199.882167 -189.285568 
L 200.353958 -188.147114 
L 200.816877 -187.00866 
L 201.269086 -185.870206 
L 201.706984 -184.731753 
L 202.125248 -183.593299 
L 202.517096 -182.454845 
L 202.874717 -181.316392 
L 203.189813 -180.177938 
L 203.454172 -179.039484 
L 203.660229 -177.90103 
L 203.801545 -176.762577 
L 203.873182 -175.624123 
L 203.871949 -174.485669 
L 203.796505 -173.347215 
L 203.647339 -172.208762 
L 203.426632 -171.070308 
L 203.138031 -169.931854 
L 202.786371 -168.7934 
L 202.377381 -167.654947 
L 201.917404 -166.516493 
L 201.413163 -165.378039 
L 200.871589 -164.239585 
L 200.299709 -163.101132 
L 199.704589 -161.962678 
L 199.093303 -160.824224 
L 198.472907 -159.68577 
L 197.850384 -158.547317 
L 197.232542 -157.408863 
L 196.625867 -156.270409 
L 196.03633 -155.131955 
L 195.469181 -153.993502 
L 194.928753 -152.855048 
L 194.418321 -151.716594 
L 193.940044 -150.578141 
L 193.495 -149.439687 
L 193.08332 -148.301233 
L 192.704401 -147.162779 
L 192.357163 -146.024326 
L 192.040305 -144.885872 
L 191.75253 -143.747418 
L 191.492683 -142.608964 
L 191.259807 -141.470511 
L 191.053103 -140.332057 
L 190.871814 -139.193603 
L 190.715073 -138.055149 
L 190.581741 -136.916696 
L 190.470274 -135.778242 
L 190.378651 -134.639788 
L 190.304371 -133.501334 
L 190.244508 -132.362881 
L 190.195834 -131.224427 
L 190.154969 -130.085973 
L 190.118543 -128.947519 
L 190.08336 -127.809066 
L 190.046541 -126.670612 
L 190.005644 -125.532158 
L 189.958759 -124.393704 
L 189.90458 -123.255251 
L 189.842441 -122.116797 
L 189.772338 -120.978343 
L 189.694897 -119.83989 
z
" style="stroke: #000000; stroke-opacity: 0.7"/>
    </defs>
    <g clip-path="url(#p7202b86d45)">
     <use xlink:href="#mb3d13ab389" x="0" y="319.98799" style="fill: #98df8a; fill-opacity: 0.7; stroke: #000000; stroke-opacity: 0.7"/>
    </g>
   </g>
   <g id="PolyCollection_4">
    <defs>
     <path id="mb29bcbcb26" d="M 242.119559 -98.486494 
L 241.502316 -98.486494 
L 241.507197 -99.971511 
L 241.521383 -101.456529 
L 241.543569 -102.941546 
L 241.5718 -104.426564 
L 241.603755 -105.911582 
L 241.637055 -107.396599 
L 241.669543 -108.881617 
L 241.699487 -110.366634 
L 241.725682 -111.851652 
L 241.747443 -113.336669 
L 241.764524 -114.821687 
L 241.776963 -116.306704 
L 241.784909 -117.791722 
L 241.788446 -119.276739 
L 241.787433 -120.761757 
L 241.781392 -122.246774 
L 241.769439 -123.731792 
L 241.750271 -125.216809 
L 241.722238 -126.701827 
L 241.683479 -128.186845 
L 241.632147 -129.671862 
L 241.56669 -131.15688 
L 241.486175 -132.641897 
L 241.390599 -134.126915 
L 241.281116 -135.611932 
L 241.160141 -137.09695 
L 241.031246 -138.581967 
L 240.898842 -140.066985 
L 240.767647 -141.552002 
L 240.641996 -143.03702 
L 240.52509 -144.522037 
L 240.418287 -146.007055 
L 240.320579 -147.492072 
L 240.22833 -148.97709 
L 240.135371 -150.462108 
L 240.033446 -151.947125 
L 239.912976 -153.432143 
L 239.764067 -154.91716 
L 239.57764 -156.402178 
L 239.346529 -157.887195 
L 239.066424 -159.372213 
L 238.736509 -160.85723 
L 238.359694 -162.342248 
L 237.942365 -163.827265 
L 237.493655 -165.312283 
L 237.024285 -166.7973 
L 236.545127 -168.282318 
L 236.065696 -169.767335 
L 235.592829 -171.252353 
L 235.129804 -172.737371 
L 234.676069 -174.222388 
L 234.227688 -175.707406 
L 233.778384 -177.192423 
L 233.320997 -178.677441 
L 232.849037 -180.162458 
L 232.35801 -181.647476 
L 231.846293 -183.132493 
L 231.315446 -184.617511 
L 230.770014 -186.102528 
L 230.217014 -187.587546 
L 229.665316 -189.072563 
L 229.125098 -190.557581 
L 228.60748 -192.042598 
L 228.124307 -193.527616 
L 227.687969 -195.012634 
L 227.311147 -196.497651 
L 227.006408 -197.982669 
L 226.785623 -199.467686 
L 226.659287 -200.952704 
L 226.635835 -202.437721 
L 226.72105 -203.922739 
L 226.917616 -205.407756 
L 227.224852 -206.892774 
L 227.638588 -208.377791 
L 228.151189 -209.862809 
L 228.751725 -211.347826 
L 229.426308 -212.832844 
L 230.158658 -214.317861 
L 230.930886 -215.802879 
L 231.724515 -217.287897 
L 232.521636 -218.772914 
L 233.306097 -220.257932 
L 234.064534 -221.742949 
L 234.787108 -223.227967 
L 235.467793 -224.712984 
L 236.104172 -226.198002 
L 236.696763 -227.683019 
L 237.248008 -229.168037 
L 237.761132 -230.653054 
L 238.239094 -232.138072 
L 238.683837 -233.623089 
L 239.09598 -235.108107 
L 239.474951 -236.593124 
L 239.819492 -238.078142 
L 240.128333 -239.563159 
L 240.40086 -241.048177 
L 240.637576 -242.533195 
L 240.840266 -244.018212 
L 241.011855 -245.50323 
L 242.61002 -245.50323 
L 242.61002 -245.50323 
L 242.781609 -244.018212 
L 242.984299 -242.533195 
L 243.221015 -241.048177 
L 243.493542 -239.563159 
L 243.802383 -238.078142 
L 244.146924 -236.593124 
L 244.525895 -235.108107 
L 244.938038 -233.623089 
L 245.382781 -232.138072 
L 245.860743 -230.653054 
L 246.373867 -229.168037 
L 246.925112 -227.683019 
L 247.517703 -226.198002 
L 248.154082 -224.712984 
L 248.834767 -223.227967 
L 249.557341 -221.742949 
L 250.315778 -220.257932 
L 251.100239 -218.772914 
L 251.89736 -217.287897 
L 252.690989 -215.802879 
L 253.463217 -214.317861 
L 254.195567 -212.832844 
L 254.87015 -211.347826 
L 255.470686 -209.862809 
L 255.983287 -208.377791 
L 256.397023 -206.892774 
L 256.704259 -205.407756 
L 256.900825 -203.922739 
L 256.98604 -202.437721 
L 256.962588 -200.952704 
L 256.836252 -199.467686 
L 256.615467 -197.982669 
L 256.310728 -196.497651 
L 255.933906 -195.012634 
L 255.497568 -193.527616 
L 255.014395 -192.042598 
L 254.496777 -190.557581 
L 253.956559 -189.072563 
L 253.404861 -187.587546 
L 252.851861 -186.102528 
L 252.306429 -184.617511 
L 251.775582 -183.132493 
L 251.263865 -181.647476 
L 250.772838 -180.162458 
L 250.300878 -178.677441 
L 249.843491 -177.192423 
L 249.394187 -175.707406 
L 248.945806 -174.222388 
L 248.492071 -172.737371 
L 248.029046 -171.252353 
L 247.556179 -169.767335 
L 247.076748 -168.282318 
L 246.59759 -166.7973 
L 246.12822 -165.312283 
L 245.67951 -163.827265 
L 245.262181 -162.342248 
L 244.885366 -160.85723 
L 244.555451 -159.372213 
L 244.275346 -157.887195 
L 244.044235 -156.402178 
L 243.857808 -154.91716 
L 243.708899 -153.432143 
L 243.588429 -151.947125 
L 243.486504 -150.462108 
L 243.393545 -148.97709 
L 243.301296 -147.492072 
L 243.203588 -146.007055 
L 243.096785 -144.522037 
L 242.979879 -143.03702 
L 242.854228 -141.552002 
L 242.723033 -140.066985 
L 242.590629 -138.581967 
L 242.461734 -137.09695 
L 242.340759 -135.611932 
L 242.231276 -134.126915 
L 242.1357 -132.641897 
L 242.055185 -131.15688 
L 241.989728 -129.671862 
L 241.938396 -128.186845 
L 241.899637 -126.701827 
L 241.871604 -125.216809 
L 241.852436 -123.731792 
L 241.840483 -122.246774 
L 241.834442 -120.761757 
L 241.833429 -119.276739 
L 241.836966 -117.791722 
L 241.844912 -116.306704 
L 241.857351 -114.821687 
L 241.874432 -113.336669 
L 241.896193 -111.851652 
L 241.922388 -110.366634 
L 241.952332 -108.881617 
L 241.98482 -107.396599 
L 242.01812 -105.911582 
L 242.050075 -104.426564 
L 242.078306 -102.941546 
L 242.100492 -101.456529 
L 242.114678 -99.971511 
L 242.119559 -98.486494 
z
" style="stroke: #000000; stroke-opacity: 0.7"/>
    </defs>
    <g clip-path="url(#p7202b86d45)">
     <use xlink:href="#mb29bcbcb26" x="0" y="319.98799" style="fill: #e377c2; fill-opacity: 0.7; stroke: #000000; stroke-opacity: 0.7"/>
    </g>
   </g>
   <g id="PolyCollection_5">
    <defs>
     <path id="m528a76ac58" d="M 295.304068 -110.695671 
L 294.543521 -110.695671 
L 294.527501 -111.957962 
L 294.514118 -113.220252 
L 294.502507 -114.482543 
L 294.491626 -115.744833 
L 294.480382 -117.007124 
L 294.467762 -118.269414 
L 294.452939 -119.531705 
L 294.435339 -120.793995 
L 294.414655 -122.056286 
L 294.390803 -123.318576 
L 294.363846 -124.580867 
L 294.333869 -125.843157 
L 294.300864 -127.105448 
L 294.264606 -128.367738 
L 294.224563 -129.630029 
L 294.179845 -130.892319 
L 294.129191 -132.15461 
L 294.071006 -133.4169 
L 294.003437 -134.679191 
L 293.924475 -135.941481 
L 293.832084 -137.203772 
L 293.724336 -138.466062 
L 293.599541 -139.728353 
L 293.456368 -140.990643 
L 293.293941 -142.252934 
L 293.111914 -143.515224 
L 292.910511 -144.777515 
L 292.690535 -146.039805 
L 292.453342 -147.302096 
L 292.200776 -148.564386 
L 291.935057 -149.826677 
L 291.658624 -151.088967 
L 291.373919 -152.351258 
L 291.083118 -153.613548 
L 290.787819 -154.875839 
L 290.488702 -156.138129 
L 290.185217 -157.40042 
L 289.875328 -158.66271 
L 289.555393 -159.925001 
L 289.220237 -161.187291 
L 288.863457 -162.449582 
L 288.477979 -163.711872 
L 288.056851 -164.974162 
L 287.594193 -166.236453 
L 287.086203 -167.498743 
L 286.532064 -168.761034 
L 285.93462 -170.023324 
L 285.300683 -171.285615 
L 284.640895 -172.547905 
L 283.969133 -173.810196 
L 283.301521 -175.072486 
L 282.655175 -176.334777 
L 282.046868 -177.597067 
L 281.491782 -178.859358 
L 281.002526 -180.121648 
L 280.588507 -181.383939 
L 280.255702 -182.646229 
L 280.006767 -183.90852 
L 279.841417 -185.17081 
L 279.756933 -186.433101 
L 279.748693 -187.695391 
L 279.810647 -188.957682 
L 279.935704 -190.219972 
L 280.116034 -191.482263 
L 280.343355 -192.744553 
L 280.609237 -194.006844 
L 280.905475 -195.269134 
L 281.224535 -196.531425 
L 281.56004 -197.793715 
L 281.907224 -199.056006 
L 282.263267 -200.318296 
L 282.627435 -201.580587 
L 283.000961 -202.842877 
L 283.386645 -204.105168 
L 283.78823 -205.367458 
L 284.209596 -206.629749 
L 284.653915 -207.892039 
L 285.122869 -209.15433 
L 285.616047 -210.41662 
L 286.130624 -211.678911 
L 286.661343 -212.941201 
L 287.200833 -214.203492 
L 287.740191 -215.465782 
L 288.269777 -216.728073 
L 288.780095 -217.990363 
L 289.262671 -219.252654 
L 289.710811 -220.514944 
L 290.120161 -221.777234 
L 290.489002 -223.039525 
L 290.818269 -224.301815 
L 291.111293 -225.564106 
L 291.373312 -226.826396 
L 291.610808 -228.088687 
L 291.830765 -229.350977 
L 292.039919 -230.613268 
L 292.244099 -231.875558 
L 292.447712 -233.137849 
L 292.653436 -234.400139 
L 292.862125 -235.66243 
L 296.985464 -235.66243 
L 296.985464 -235.66243 
L 297.194153 -234.400139 
L 297.399877 -233.137849 
L 297.60349 -231.875558 
L 297.80767 -230.613268 
L 298.016824 -229.350977 
L 298.236781 -228.088687 
L 298.474277 -226.826396 
L 298.736296 -225.564106 
L 299.02932 -224.301815 
L 299.358587 -223.039525 
L 299.727428 -221.777234 
L 300.136778 -220.514944 
L 300.584919 -219.252654 
L 301.067494 -217.990363 
L 301.577812 -216.728073 
L 302.107398 -215.465782 
L 302.646756 -214.203492 
L 303.186246 -212.941201 
L 303.716965 -211.678911 
L 304.231542 -210.41662 
L 304.72472 -209.15433 
L 305.193674 -207.892039 
L 305.637993 -206.629749 
L 306.059359 -205.367458 
L 306.460944 -204.105168 
L 306.846629 -202.842877 
L 307.220154 -201.580587 
L 307.584322 -200.318296 
L 307.940365 -199.056006 
L 308.287549 -197.793715 
L 308.623054 -196.531425 
L 308.942115 -195.269134 
L 309.238352 -194.006844 
L 309.504234 -192.744553 
L 309.731555 -191.482263 
L 309.911885 -190.219972 
L 310.036942 -188.957682 
L 310.098897 -187.695391 
L 310.090657 -186.433101 
L 310.006172 -185.17081 
L 309.840822 -183.90852 
L 309.591887 -182.646229 
L 309.259082 -181.383939 
L 308.845064 -180.121648 
L 308.355807 -178.859358 
L 307.800721 -177.597067 
L 307.192414 -176.334777 
L 306.546068 -175.072486 
L 305.878456 -173.810196 
L 305.206695 -172.547905 
L 304.546906 -171.285615 
L 303.912969 -170.023324 
L 303.315525 -168.761034 
L 302.761386 -167.498743 
L 302.253396 -166.236453 
L 301.790739 -164.974162 
L 301.36961 -163.711872 
L 300.984132 -162.449582 
L 300.627352 -161.187291 
L 300.292196 -159.925001 
L 299.972262 -158.66271 
L 299.662372 -157.40042 
L 299.358887 -156.138129 
L 299.059771 -154.875839 
L 298.764471 -153.613548 
L 298.47367 -152.351258 
L 298.188965 -151.088967 
L 297.912532 -149.826677 
L 297.646814 -148.564386 
L 297.394247 -147.302096 
L 297.157054 -146.039805 
L 296.937078 -144.777515 
L 296.735675 -143.515224 
L 296.553648 -142.252934 
L 296.391221 -140.990643 
L 296.248048 -139.728353 
L 296.123253 -138.466062 
L 296.015505 -137.203772 
L 295.923114 -135.941481 
L 295.844152 -134.679191 
L 295.776583 -133.4169 
L 295.718399 -132.15461 
L 295.667745 -130.892319 
L 295.623027 -129.630029 
L 295.582984 -128.367738 
L 295.546725 -127.105448 
L 295.51372 -125.843157 
L 295.483744 -124.580867 
L 295.456786 -123.318576 
L 295.432935 -122.056286 
L 295.41225 -120.793995 
L 295.394651 -119.531705 
L 295.379828 -118.269414 
L 295.367207 -117.007124 
L 295.355963 -115.744833 
L 295.345082 -114.482543 
L 295.333472 -113.220252 
L 295.320088 -111.957962 
L 295.304068 -110.695671 
z
" style="stroke: #000000; stroke-opacity: 0.7"/>
    </defs>
    <g clip-path="url(#p7202b86d45)">
     <use xlink:href="#m528a76ac58" x="0" y="319.98799" style="fill: #d62728; fill-opacity: 0.7; stroke: #000000; stroke-opacity: 0.7"/>
    </g>
   </g>
   <g id="PolyCollection_6">
    <defs>
     <path id="m25f82a5870" d="M 350.074025 -148.683438 
L 345.999278 -148.683438 
L 345.840888 -149.647983 
L 345.688626 -150.612528 
L 345.543553 -151.577073 
L 345.40625 -152.541618 
L 345.276828 -153.506163 
L 345.154942 -154.470708 
L 345.039834 -155.435253 
L 344.930361 -156.399798 
L 344.825029 -157.364343 
L 344.722005 -158.328888 
L 344.619107 -159.293433 
L 344.513784 -160.257978 
L 344.40309 -161.222523 
L 344.283656 -162.187068 
L 344.151691 -163.151613 
L 344.00301 -164.116158 
L 343.833117 -165.080703 
L 343.637343 -166.045248 
L 343.411047 -167.009793 
L 343.149869 -167.974338 
L 342.850025 -168.938883 
L 342.508614 -169.903428 
L 342.123926 -170.867973 
L 341.695697 -171.832518 
L 341.225301 -172.797063 
L 340.715841 -173.761608 
L 340.172126 -174.726153 
L 339.600532 -175.690698 
L 339.008744 -176.655243 
L 338.405414 -177.619788 
L 337.799748 -178.584333 
L 337.201073 -179.548878 
L 336.618425 -180.513423 
L 336.06018 -181.477968 
L 335.533777 -182.442513 
L 335.045533 -183.407058 
L 334.600559 -184.371603 
L 334.202773 -185.336148 
L 333.854975 -186.300693 
L 333.558959 -187.265238 
L 333.31564 -188.229783 
L 333.125159 -189.194328 
L 332.986941 -190.158873 
L 332.899726 -191.123418 
L 332.86155 -192.087963 
L 332.869704 -193.052508 
L 332.920711 -194.017053 
L 333.010314 -194.981598 
L 333.133541 -195.946143 
L 333.284824 -196.910688 
L 333.458213 -197.875233 
L 333.647646 -198.839778 
L 333.847285 -199.804322 
L 334.051857 -200.768867 
L 334.25699 -201.733412 
L 334.459491 -202.697957 
L 334.657536 -203.662502 
L 334.85075 -204.627047 
L 335.040169 -205.591592 
L 335.22807 -206.556137 
L 335.417709 -207.520682 
L 335.612976 -208.485227 
L 335.818007 -209.449772 
L 336.036794 -210.414317 
L 336.272829 -211.378862 
L 336.528815 -212.343407 
L 336.806457 -213.307952 
L 337.106362 -214.272497 
L 337.428027 -215.237042 
L 337.769923 -216.201587 
L 338.129652 -217.166132 
L 338.50415 -218.130677 
L 338.889918 -219.095222 
L 339.283264 -220.059767 
L 339.680522 -221.024312 
L 340.078249 -221.988857 
L 340.473383 -222.953402 
L 340.863353 -223.917947 
L 341.246144 -224.882492 
L 341.620318 -225.847037 
L 341.984982 -226.811582 
L 342.33973 -227.776127 
L 342.684544 -228.740672 
L 343.019678 -229.705217 
L 343.345528 -230.669762 
L 343.662507 -231.634307 
L 343.970928 -232.598852 
L 344.270916 -233.563397 
L 344.56235 -234.527942 
L 344.844842 -235.492487 
L 345.117757 -236.457032 
L 345.38026 -237.421577 
L 345.631395 -238.386122 
L 345.870174 -239.350667 
L 346.095669 -240.315212 
L 346.307093 -241.279757 
L 346.503869 -242.244302 
L 346.685665 -243.208847 
L 346.852417 -244.173392 
L 349.220887 -244.173392 
L 349.220887 -244.173392 
L 349.387638 -243.208847 
L 349.569435 -242.244302 
L 349.76621 -241.279757 
L 349.977635 -240.315212 
L 350.203129 -239.350667 
L 350.441908 -238.386122 
L 350.693044 -237.421577 
L 350.955547 -236.457032 
L 351.228461 -235.492487 
L 351.510954 -234.527942 
L 351.802388 -233.563397 
L 352.102376 -232.598852 
L 352.410797 -231.634307 
L 352.727775 -230.669762 
L 353.053626 -229.705217 
L 353.38876 -228.740672 
L 353.733574 -227.776127 
L 354.088322 -226.811582 
L 354.452986 -225.847037 
L 354.827159 -224.882492 
L 355.209951 -223.917947 
L 355.599921 -222.953402 
L 355.995055 -221.988857 
L 356.392782 -221.024312 
L 356.790039 -220.059767 
L 357.183385 -219.095222 
L 357.569154 -218.130677 
L 357.943652 -217.166132 
L 358.303381 -216.201587 
L 358.645277 -215.237042 
L 358.966941 -214.272497 
L 359.266846 -213.307952 
L 359.544489 -212.343407 
L 359.800475 -211.378862 
L 360.03651 -210.414317 
L 360.255297 -209.449772 
L 360.460327 -208.485227 
L 360.655594 -207.520682 
L 360.845234 -206.556137 
L 361.033135 -205.591592 
L 361.222553 -204.627047 
L 361.415768 -203.662502 
L 361.613813 -202.697957 
L 361.816314 -201.733412 
L 362.021447 -200.768867 
L 362.226019 -199.804322 
L 362.425657 -198.839778 
L 362.615091 -197.875233 
L 362.788479 -196.910688 
L 362.939763 -195.946143 
L 363.062989 -194.981598 
L 363.152593 -194.017053 
L 363.203599 -193.052508 
L 363.211754 -192.087963 
L 363.173577 -191.123418 
L 363.086363 -190.158873 
L 362.948145 -189.194328 
L 362.757663 -188.229783 
L 362.514345 -187.265238 
L 362.218329 -186.300693 
L 361.87053 -185.336148 
L 361.472744 -184.371603 
L 361.027771 -183.407058 
L 360.539526 -182.442513 
L 360.013124 -181.477968 
L 359.454879 -180.513423 
L 358.872231 -179.548878 
L 358.273556 -178.584333 
L 357.667889 -177.619788 
L 357.064559 -176.655243 
L 356.472772 -175.690698 
L 355.901178 -174.726153 
L 355.357463 -173.761608 
L 354.848003 -172.797063 
L 354.377607 -171.832518 
L 353.949378 -170.867973 
L 353.56469 -169.903428 
L 353.223279 -168.938883 
L 352.923434 -167.974338 
L 352.662257 -167.009793 
L 352.435961 -166.045248 
L 352.240187 -165.080703 
L 352.070293 -164.116158 
L 351.921612 -163.151613 
L 351.789647 -162.187068 
L 351.670214 -161.222523 
L 351.55952 -160.257978 
L 351.454197 -159.293433 
L 351.351298 -158.328888 
L 351.248274 -157.364343 
L 351.142943 -156.399798 
L 351.03347 -155.435253 
L 350.918361 -154.470708 
L 350.796476 -153.506163 
L 350.667053 -152.541618 
L 350.529751 -151.577073 
L 350.384677 -150.612528 
L 350.232416 -149.647983 
L 350.074025 -148.683438 
z
" style="stroke: #000000; stroke-opacity: 0.7"/>
    </defs>
    <g clip-path="url(#p7202b86d45)">
     <use xlink:href="#m25f82a5870" x="0" y="319.98799" style="fill: #f7b6d2; fill-opacity: 0.7; stroke: #000000; stroke-opacity: 0.7"/>
    </g>
   </g>
   <g id="PolyCollection_7">
    <defs>
     <path id="m80da0f0c5e" d="M 401.643049 -93.858658 
L 400.655969 -93.858658 
L 400.624529 -95.196991 
L 400.600865 -96.535323 
L 400.585385 -97.873656 
L 400.577899 -99.211988 
L 400.577673 -100.55032 
L 400.583552 -101.888653 
L 400.594134 -103.226985 
L 400.607978 -104.565317 
L 400.623801 -105.90365 
L 400.640646 -107.241982 
L 400.657968 -108.580315 
L 400.675641 -109.918647 
L 400.693861 -111.256979 
L 400.712976 -112.595312 
L 400.733271 -113.933644 
L 400.754752 -115.271977 
L 400.776978 -116.610309 
L 400.798978 -117.948641 
L 400.819274 -119.286974 
L 400.835996 -120.625306 
L 400.847084 -121.963639 
L 400.850514 -123.301971 
L 400.844512 -124.640303 
L 400.827712 -125.978636 
L 400.799202 -127.316968 
L 400.758472 -128.655301 
L 400.705232 -129.993633 
L 400.639159 -131.331965 
L 400.559587 -132.670298 
L 400.465214 -134.00863 
L 400.353893 -135.346963 
L 400.222536 -136.685295 
L 400.067203 -138.023627 
L 399.883367 -139.36196 
L 399.666344 -140.700292 
L 399.411837 -142.038624 
L 399.116507 -143.376957 
L 398.778482 -144.715289 
L 398.397691 -146.053622 
L 397.97596 -147.391954 
L 397.516825 -148.730286 
L 397.025063 -150.068619 
L 396.506029 -151.406951 
L 395.964879 -152.745284 
L 395.405862 -154.083616 
L 394.831782 -155.421948 
L 394.243798 -156.760281 
L 393.641611 -158.098613 
L 393.024049 -159.436946 
L 392.389987 -160.775278 
L 391.739455 -162.11361 
L 391.074732 -163.451943 
L 390.401213 -164.790275 
L 389.727847 -166.128608 
L 389.067026 -167.46694 
L 388.433857 -168.805272 
L 387.844932 -170.143605 
L 387.316747 -171.481937 
L 386.864048 -172.82027 
L 386.498384 -174.158602 
L 386.227104 -175.496934 
L 386.052969 -176.835267 
L 385.974407 -178.173599 
L 385.98633 -179.511931 
L 386.081327 -180.850264 
L 386.250992 -182.188596 
L 386.487157 -183.526929 
L 386.782826 -184.865261 
L 387.132687 -186.203593 
L 387.533163 -187.541926 
L 387.982034 -188.880258 
L 388.477727 -190.218591 
L 389.018421 -191.556923 
L 389.601118 -192.895255 
L 390.220867 -194.233588 
L 390.870295 -195.57192 
L 391.539557 -196.910253 
L 392.216766 -198.248585 
L 392.88887 -199.586917 
L 393.54285 -200.92525 
L 394.167055 -202.263582 
L 394.752415 -203.601915 
L 395.293332 -204.940247 
L 395.788043 -206.278579 
L 396.238418 -207.616912 
L 396.649218 -208.955244 
L 397.026978 -210.293577 
L 397.378739 -211.631909 
L 397.710867 -212.970241 
L 398.028172 -214.308574 
L 398.333441 -215.646906 
L 398.627423 -216.985238 
L 398.909183 -218.323571 
L 399.176709 -219.661903 
L 399.42759 -221.000236 
L 399.659623 -222.338568 
L 399.871256 -223.6769 
L 400.061791 -225.015233 
L 400.231391 -226.353565 
L 402.067627 -226.353565 
L 402.067627 -226.353565 
L 402.237227 -225.015233 
L 402.427762 -223.6769 
L 402.639394 -222.338568 
L 402.871428 -221.000236 
L 403.122308 -219.661903 
L 403.389835 -218.323571 
L 403.671595 -216.985238 
L 403.965577 -215.646906 
L 404.270846 -214.308574 
L 404.588151 -212.970241 
L 404.920279 -211.631909 
L 405.27204 -210.293577 
L 405.6498 -208.955244 
L 406.0606 -207.616912 
L 406.510975 -206.278579 
L 407.005686 -204.940247 
L 407.546603 -203.601915 
L 408.131963 -202.263582 
L 408.756168 -200.92525 
L 409.410148 -199.586917 
L 410.082252 -198.248585 
L 410.759461 -196.910253 
L 411.428723 -195.57192 
L 412.078151 -194.233588 
L 412.6979 -192.895255 
L 413.280597 -191.556923 
L 413.821291 -190.218591 
L 414.316984 -188.880258 
L 414.765855 -187.541926 
L 415.166331 -186.203593 
L 415.516192 -184.865261 
L 415.811861 -183.526929 
L 416.048026 -182.188596 
L 416.217691 -180.850264 
L 416.312687 -179.511931 
L 416.324611 -178.173599 
L 416.246049 -176.835267 
L 416.071914 -175.496934 
L 415.800634 -174.158602 
L 415.434969 -172.82027 
L 414.982271 -171.481937 
L 414.454085 -170.143605 
L 413.865161 -168.805272 
L 413.231992 -167.46694 
L 412.571171 -166.128608 
L 411.897805 -164.790275 
L 411.224286 -163.451943 
L 410.559563 -162.11361 
L 409.909031 -160.775278 
L 409.274969 -159.436946 
L 408.657407 -158.098613 
L 408.05522 -156.760281 
L 407.467236 -155.421948 
L 406.893156 -154.083616 
L 406.334138 -152.745284 
L 405.792989 -151.406951 
L 405.273954 -150.068619 
L 404.782193 -148.730286 
L 404.323058 -147.391954 
L 403.901327 -146.053622 
L 403.520536 -144.715289 
L 403.182511 -143.376957 
L 402.887181 -142.038624 
L 402.632674 -140.700292 
L 402.415651 -139.36196 
L 402.231815 -138.023627 
L 402.076482 -136.685295 
L 401.945125 -135.346963 
L 401.833804 -134.00863 
L 401.739431 -132.670298 
L 401.659858 -131.331965 
L 401.593786 -129.993633 
L 401.540546 -128.655301 
L 401.499816 -127.316968 
L 401.471306 -125.978636 
L 401.454505 -124.640303 
L 401.448504 -123.301971 
L 401.451934 -121.963639 
L 401.463022 -120.625306 
L 401.479744 -119.286974 
L 401.50004 -117.948641 
L 401.52204 -116.610309 
L 401.544266 -115.271977 
L 401.565747 -113.933644 
L 401.586042 -112.595312 
L 401.605157 -111.256979 
L 401.623377 -109.918647 
L 401.64105 -108.580315 
L 401.658372 -107.241982 
L 401.675216 -105.90365 
L 401.69104 -104.565317 
L 401.704884 -103.226985 
L 401.715466 -101.888653 
L 401.721345 -100.55032 
L 401.721119 -99.211988 
L 401.713633 -97.873656 
L 401.698153 -96.535323 
L 401.674489 -95.196991 
L 401.643049 -93.858658 
z
" style="stroke: #000000; stroke-opacity: 0.7"/>
    </defs>
    <g clip-path="url(#p7202b86d45)">
     <use xlink:href="#m80da0f0c5e" x="0" y="319.98799" style="fill: #e5c494; fill-opacity: 0.7; stroke: #000000; stroke-opacity: 0.7"/>
    </g>
   </g>
   <g id="matplotlib.axis_1">
    <g id="xtick_1">
     <g id="line2d_1">
      <defs>
       <path id="maae70f9f94" d="M 0 0 
L 0 3.5 
" style="stroke: #000000; stroke-width: 0.8"/>
      </defs>
      <g>
       <use xlink:href="#maae70f9f94" x="82.472366" y="261.318486" style="stroke: #000000; stroke-width: 0.8"/>
      </g>
     </g>
     <g id="text_1">
      <!-- Dunvale -->
      <g transform="translate(51.910769 302.956996) rotate(-45) scale(0.12 -0.12)">
       <defs>
        <path id="TimesNewRomanPSMT-44" d="M 109 0 
L 109 116 
L 269 116 
Q 538 116 650 288 
Q 719 391 719 750 
L 719 3488 
Q 719 3884 631 3984 
Q 509 4122 269 4122 
L 109 4122 
L 109 4238 
L 1834 4238 
Q 2784 4238 3279 4022 
Q 3775 3806 4076 3303 
Q 4378 2800 4378 2141 
Q 4378 1256 3841 663 
Q 3238 0 2003 0 
L 109 0 
z
M 1319 306 
Q 1716 219 1984 219 
Q 2709 219 3187 728 
Q 3666 1238 3666 2109 
Q 3666 2988 3187 3494 
Q 2709 4000 1959 4000 
Q 1678 4000 1319 3909 
L 1319 306 
z
" transform="scale(0.015625)"/>
        <path id="TimesNewRomanPSMT-75" d="M 2709 2863 
L 2709 1128 
Q 2709 631 2732 520 
Q 2756 409 2807 365 
Q 2859 322 2928 322 
Q 3025 322 3147 375 
L 3191 266 
L 2334 -88 
L 2194 -88 
L 2194 519 
Q 1825 119 1631 15 
Q 1438 -88 1222 -88 
Q 981 -88 804 51 
Q 628 191 559 409 
Q 491 628 491 1028 
L 491 2306 
Q 491 2509 447 2587 
Q 403 2666 317 2708 
Q 231 2750 6 2747 
L 6 2863 
L 1009 2863 
L 1009 947 
Q 1009 547 1148 422 
Q 1288 297 1484 297 
Q 1619 297 1789 381 
Q 1959 466 2194 703 
L 2194 2325 
Q 2194 2569 2105 2655 
Q 2016 2741 1734 2747 
L 1734 2863 
L 2709 2863 
z
" transform="scale(0.015625)"/>
        <path id="TimesNewRomanPSMT-6e" d="M 1034 2341 
Q 1538 2947 1994 2947 
Q 2228 2947 2397 2830 
Q 2566 2713 2666 2444 
Q 2734 2256 2734 1869 
L 2734 647 
Q 2734 375 2778 278 
Q 2813 200 2889 156 
Q 2966 113 3172 113 
L 3172 0 
L 1756 0 
L 1756 113 
L 1816 113 
Q 2016 113 2095 173 
Q 2175 234 2206 353 
Q 2219 400 2219 647 
L 2219 1819 
Q 2219 2209 2117 2386 
Q 2016 2563 1775 2563 
Q 1403 2563 1034 2156 
L 1034 647 
Q 1034 356 1069 288 
Q 1113 197 1189 155 
Q 1266 113 1500 113 
L 1500 0 
L 84 0 
L 84 113 
L 147 113 
Q 366 113 442 223 
Q 519 334 519 647 
L 519 1709 
Q 519 2225 495 2337 
Q 472 2450 423 2490 
Q 375 2531 294 2531 
Q 206 2531 84 2484 
L 38 2597 
L 900 2947 
L 1034 2947 
L 1034 2341 
z
" transform="scale(0.015625)"/>
        <path id="TimesNewRomanPSMT-76" d="M 53 2863 
L 1400 2863 
L 1400 2747 
L 1313 2747 
Q 1191 2747 1127 2687 
Q 1063 2628 1063 2528 
Q 1063 2419 1128 2269 
L 1794 688 
L 2463 2328 
Q 2534 2503 2534 2594 
Q 2534 2638 2509 2666 
Q 2475 2713 2422 2730 
Q 2369 2747 2206 2747 
L 2206 2863 
L 3141 2863 
L 3141 2747 
Q 2978 2734 2916 2681 
Q 2806 2588 2719 2369 
L 1703 -88 
L 1575 -88 
L 553 2328 
Q 484 2497 421 2570 
Q 359 2644 263 2694 
Q 209 2722 53 2747 
L 53 2863 
z
" transform="scale(0.015625)"/>
        <path id="TimesNewRomanPSMT-61" d="M 1822 413 
Q 1381 72 1269 19 
Q 1100 -59 909 -59 
Q 613 -59 420 144 
Q 228 347 228 678 
Q 228 888 322 1041 
Q 450 1253 767 1440 
Q 1084 1628 1822 1897 
L 1822 2009 
Q 1822 2438 1686 2597 
Q 1550 2756 1291 2756 
Q 1094 2756 978 2650 
Q 859 2544 859 2406 
L 866 2225 
Q 866 2081 792 2003 
Q 719 1925 600 1925 
Q 484 1925 411 2006 
Q 338 2088 338 2228 
Q 338 2497 613 2722 
Q 888 2947 1384 2947 
Q 1766 2947 2009 2819 
Q 2194 2722 2281 2516 
Q 2338 2381 2338 1966 
L 2338 994 
Q 2338 584 2353 492 
Q 2369 400 2405 369 
Q 2441 338 2488 338 
Q 2538 338 2575 359 
Q 2641 400 2828 588 
L 2828 413 
Q 2478 -56 2159 -56 
Q 2006 -56 1915 50 
Q 1825 156 1822 413 
z
M 1822 616 
L 1822 1706 
Q 1350 1519 1213 1441 
Q 966 1303 859 1153 
Q 753 1003 753 825 
Q 753 600 887 451 
Q 1022 303 1197 303 
Q 1434 303 1822 616 
z
" transform="scale(0.015625)"/>
        <path id="TimesNewRomanPSMT-6c" d="M 1184 4444 
L 1184 647 
Q 1184 378 1223 290 
Q 1263 203 1344 158 
Q 1425 113 1647 113 
L 1647 0 
L 244 0 
L 244 113 
Q 441 113 512 153 
Q 584 194 625 287 
Q 666 381 666 647 
L 666 3247 
Q 666 3731 644 3842 
Q 622 3953 573 3993 
Q 525 4034 450 4034 
Q 369 4034 244 3984 
L 191 4094 
L 1044 4444 
L 1184 4444 
z
" transform="scale(0.015625)"/>
        <path id="TimesNewRomanPSMT-65" d="M 681 1784 
Q 678 1147 991 784 
Q 1303 422 1725 422 
Q 2006 422 2214 576 
Q 2422 731 2563 1106 
L 2659 1044 
Q 2594 616 2278 264 
Q 1963 -88 1488 -88 
Q 972 -88 605 314 
Q 238 716 238 1394 
Q 238 2128 614 2539 
Q 991 2950 1559 2950 
Q 2041 2950 2350 2633 
Q 2659 2316 2659 1784 
L 681 1784 
z
M 681 1966 
L 2006 1966 
Q 1991 2241 1941 2353 
Q 1863 2528 1708 2628 
Q 1553 2728 1384 2728 
Q 1125 2728 920 2526 
Q 716 2325 681 1966 
z
" transform="scale(0.015625)"/>
       </defs>
       <use xlink:href="#TimesNewRomanPSMT-44"/>
       <use xlink:href="#TimesNewRomanPSMT-75" x="72.216797"/>
       <use xlink:href="#TimesNewRomanPSMT-6e" x="122.216797"/>
       <use xlink:href="#TimesNewRomanPSMT-76" x="172.216797"/>
       <use xlink:href="#TimesNewRomanPSMT-61" x="222.216797"/>
       <use xlink:href="#TimesNewRomanPSMT-6c" x="266.601562"/>
       <use xlink:href="#TimesNewRomanPSMT-65" x="294.384766"/>
      </g>
     </g>
    </g>
    <g id="xtick_2">
     <g id="line2d_2">
      <g>
       <use xlink:href="#maae70f9f94" x="135.585223" y="261.318486" style="stroke: #000000; stroke-width: 0.8"/>
      </g>
     </g>
     <g id="text_2">
      <!-- Fairmont -->
      <g transform="translate(102.65968 305.320942) rotate(-45) scale(0.12 -0.12)">
       <defs>
        <path id="TimesNewRomanPSMT-46" d="M 1309 4006 
L 1309 2341 
L 2081 2341 
Q 2347 2341 2470 2458 
Q 2594 2575 2634 2922 
L 2750 2922 
L 2750 1488 
L 2634 1488 
Q 2631 1734 2570 1850 
Q 2509 1966 2401 2023 
Q 2294 2081 2081 2081 
L 1309 2081 
L 1309 750 
Q 1309 428 1350 325 
Q 1381 247 1481 191 
Q 1619 116 1769 116 
L 1922 116 
L 1922 0 
L 103 0 
L 103 116 
L 253 116 
Q 516 116 634 269 
Q 709 369 709 750 
L 709 3488 
Q 709 3809 669 3913 
Q 638 3991 541 4047 
Q 406 4122 253 4122 
L 103 4122 
L 103 4238 
L 3256 4238 
L 3297 3306 
L 3188 3306 
Q 3106 3603 2998 3742 
Q 2891 3881 2733 3943 
Q 2575 4006 2244 4006 
L 1309 4006 
z
" transform="scale(0.015625)"/>
        <path id="TimesNewRomanPSMT-69" d="M 928 4444 
Q 1059 4444 1151 4351 
Q 1244 4259 1244 4128 
Q 1244 3997 1151 3903 
Q 1059 3809 928 3809 
Q 797 3809 703 3903 
Q 609 3997 609 4128 
Q 609 4259 701 4351 
Q 794 4444 928 4444 
z
M 1188 2947 
L 1188 647 
Q 1188 378 1227 289 
Q 1266 200 1342 156 
Q 1419 113 1622 113 
L 1622 0 
L 231 0 
L 231 113 
Q 441 113 512 153 
Q 584 194 626 287 
Q 669 381 669 647 
L 669 1750 
Q 669 2216 641 2353 
Q 619 2453 572 2492 
Q 525 2531 444 2531 
Q 356 2531 231 2484 
L 188 2597 
L 1050 2947 
L 1188 2947 
z
" transform="scale(0.015625)"/>
        <path id="TimesNewRomanPSMT-72" d="M 1038 2947 
L 1038 2303 
Q 1397 2947 1775 2947 
Q 1947 2947 2059 2842 
Q 2172 2738 2172 2600 
Q 2172 2478 2090 2393 
Q 2009 2309 1897 2309 
Q 1788 2309 1652 2417 
Q 1516 2525 1450 2525 
Q 1394 2525 1328 2463 
Q 1188 2334 1038 2041 
L 1038 669 
Q 1038 431 1097 309 
Q 1138 225 1241 169 
Q 1344 113 1538 113 
L 1538 0 
L 72 0 
L 72 113 
Q 291 113 397 181 
Q 475 231 506 341 
Q 522 394 522 644 
L 522 1753 
Q 522 2253 501 2348 
Q 481 2444 426 2487 
Q 372 2531 291 2531 
Q 194 2531 72 2484 
L 41 2597 
L 906 2947 
L 1038 2947 
z
" transform="scale(0.015625)"/>
        <path id="TimesNewRomanPSMT-6d" d="M 1050 2338 
Q 1363 2650 1419 2697 
Q 1559 2816 1721 2881 
Q 1884 2947 2044 2947 
Q 2313 2947 2506 2790 
Q 2700 2634 2766 2338 
Q 3088 2713 3309 2830 
Q 3531 2947 3766 2947 
Q 3994 2947 4170 2830 
Q 4347 2713 4450 2447 
Q 4519 2266 4519 1878 
L 4519 647 
Q 4519 378 4559 278 
Q 4591 209 4675 161 
Q 4759 113 4950 113 
L 4950 0 
L 3538 0 
L 3538 113 
L 3597 113 
Q 3781 113 3884 184 
Q 3956 234 3988 344 
Q 4000 397 4000 647 
L 4000 1878 
Q 4000 2228 3916 2372 
Q 3794 2572 3525 2572 
Q 3359 2572 3192 2489 
Q 3025 2406 2788 2181 
L 2781 2147 
L 2788 2013 
L 2788 647 
Q 2788 353 2820 281 
Q 2853 209 2943 161 
Q 3034 113 3253 113 
L 3253 0 
L 1806 0 
L 1806 113 
Q 2044 113 2133 169 
Q 2222 225 2256 338 
Q 2272 391 2272 647 
L 2272 1878 
Q 2272 2228 2169 2381 
Q 2031 2581 1784 2581 
Q 1616 2581 1450 2491 
Q 1191 2353 1050 2181 
L 1050 647 
Q 1050 366 1089 281 
Q 1128 197 1204 155 
Q 1281 113 1516 113 
L 1516 0 
L 100 0 
L 100 113 
Q 297 113 375 155 
Q 453 197 493 289 
Q 534 381 534 647 
L 534 1741 
Q 534 2213 506 2350 
Q 484 2453 437 2492 
Q 391 2531 309 2531 
Q 222 2531 100 2484 
L 53 2597 
L 916 2947 
L 1050 2947 
L 1050 2338 
z
" transform="scale(0.015625)"/>
        <path id="TimesNewRomanPSMT-6f" d="M 1600 2947 
Q 2250 2947 2644 2453 
Q 2978 2031 2978 1484 
Q 2978 1100 2793 706 
Q 2609 313 2286 112 
Q 1963 -88 1566 -88 
Q 919 -88 538 428 
Q 216 863 216 1403 
Q 216 1797 411 2186 
Q 606 2575 925 2761 
Q 1244 2947 1600 2947 
z
M 1503 2744 
Q 1338 2744 1170 2645 
Q 1003 2547 900 2300 
Q 797 2053 797 1666 
Q 797 1041 1045 587 
Q 1294 134 1700 134 
Q 2003 134 2200 384 
Q 2397 634 2397 1244 
Q 2397 2006 2069 2444 
Q 1847 2744 1503 2744 
z
" transform="scale(0.015625)"/>
        <path id="TimesNewRomanPSMT-74" d="M 1031 3803 
L 1031 2863 
L 1700 2863 
L 1700 2644 
L 1031 2644 
L 1031 788 
Q 1031 509 1111 412 
Q 1191 316 1316 316 
Q 1419 316 1516 380 
Q 1613 444 1666 569 
L 1788 569 
Q 1678 263 1478 108 
Q 1278 -47 1066 -47 
Q 922 -47 784 33 
Q 647 113 581 261 
Q 516 409 516 719 
L 516 2644 
L 63 2644 
L 63 2747 
Q 234 2816 414 2980 
Q 594 3144 734 3369 
Q 806 3488 934 3803 
L 1031 3803 
z
" transform="scale(0.015625)"/>
       </defs>
       <use xlink:href="#TimesNewRomanPSMT-46"/>
       <use xlink:href="#TimesNewRomanPSMT-61" x="55.615234"/>
       <use xlink:href="#TimesNewRomanPSMT-69" x="100"/>
       <use xlink:href="#TimesNewRomanPSMT-72" x="127.783203"/>
       <use xlink:href="#TimesNewRomanPSMT-6d" x="161.083984"/>
       <use xlink:href="#TimesNewRomanPSMT-6f" x="238.867188"/>
       <use xlink:href="#TimesNewRomanPSMT-6e" x="288.867188"/>
       <use xlink:href="#TimesNewRomanPSMT-74" x="338.867188"/>
      </g>
     </g>
    </g>
    <g id="xtick_3">
     <g id="line2d_3">
      <g>
       <use xlink:href="#maae70f9f94" x="188.69808" y="261.318486" style="stroke: #000000; stroke-width: 0.8"/>
      </g>
     </g>
     <g id="text_3">
      <!-- Elmhurst -->
      <g transform="translate(155.772537 305.320942) rotate(-45) scale(0.12 -0.12)">
       <defs>
        <path id="TimesNewRomanPSMT-45" d="M 1338 4006 
L 1338 2331 
L 2269 2331 
Q 2631 2331 2753 2441 
Q 2916 2584 2934 2947 
L 3050 2947 
L 3050 1472 
L 2934 1472 
Q 2891 1781 2847 1869 
Q 2791 1978 2662 2040 
Q 2534 2103 2269 2103 
L 1338 2103 
L 1338 706 
Q 1338 425 1363 364 
Q 1388 303 1450 267 
Q 1513 231 1688 231 
L 2406 231 
Q 2766 231 2928 281 
Q 3091 331 3241 478 
Q 3434 672 3638 1063 
L 3763 1063 
L 3397 0 
L 131 0 
L 131 116 
L 281 116 
Q 431 116 566 188 
Q 666 238 702 338 
Q 738 438 738 747 
L 738 3500 
Q 738 3903 656 3997 
Q 544 4122 281 4122 
L 131 4122 
L 131 4238 
L 3397 4238 
L 3444 3309 
L 3322 3309 
Q 3256 3644 3176 3769 
Q 3097 3894 2941 3959 
Q 2816 4006 2500 4006 
L 1338 4006 
z
" transform="scale(0.015625)"/>
        <path id="TimesNewRomanPSMT-68" d="M 1041 4444 
L 1041 2350 
Q 1388 2731 1591 2839 
Q 1794 2947 1997 2947 
Q 2241 2947 2416 2812 
Q 2591 2678 2675 2391 
Q 2734 2191 2734 1659 
L 2734 647 
Q 2734 375 2778 275 
Q 2809 200 2884 156 
Q 2959 113 3159 113 
L 3159 0 
L 1753 0 
L 1753 113 
L 1819 113 
Q 2019 113 2097 173 
Q 2175 234 2206 353 
Q 2216 403 2216 647 
L 2216 1659 
Q 2216 2128 2167 2275 
Q 2119 2422 2012 2495 
Q 1906 2569 1756 2569 
Q 1603 2569 1437 2487 
Q 1272 2406 1041 2159 
L 1041 647 
Q 1041 353 1073 281 
Q 1106 209 1195 161 
Q 1284 113 1503 113 
L 1503 0 
L 84 0 
L 84 113 
Q 275 113 384 172 
Q 447 203 484 290 
Q 522 378 522 647 
L 522 3238 
Q 522 3728 498 3840 
Q 475 3953 426 3993 
Q 378 4034 297 4034 
Q 231 4034 84 3984 
L 41 4094 
L 897 4444 
L 1041 4444 
z
" transform="scale(0.015625)"/>
        <path id="TimesNewRomanPSMT-73" d="M 2050 2947 
L 2050 1972 
L 1947 1972 
Q 1828 2431 1642 2597 
Q 1456 2763 1169 2763 
Q 950 2763 815 2647 
Q 681 2531 681 2391 
Q 681 2216 781 2091 
Q 878 1963 1175 1819 
L 1631 1597 
Q 2266 1288 2266 781 
Q 2266 391 1970 151 
Q 1675 -88 1309 -88 
Q 1047 -88 709 6 
Q 606 38 541 38 
Q 469 38 428 -44 
L 325 -44 
L 325 978 
L 428 978 
Q 516 541 762 319 
Q 1009 97 1316 97 
Q 1531 97 1667 223 
Q 1803 350 1803 528 
Q 1803 744 1651 891 
Q 1500 1038 1047 1263 
Q 594 1488 453 1669 
Q 313 1847 313 2119 
Q 313 2472 555 2709 
Q 797 2947 1181 2947 
Q 1350 2947 1591 2875 
Q 1750 2828 1803 2828 
Q 1853 2828 1881 2850 
Q 1909 2872 1947 2947 
L 2050 2947 
z
" transform="scale(0.015625)"/>
       </defs>
       <use xlink:href="#TimesNewRomanPSMT-45"/>
       <use xlink:href="#TimesNewRomanPSMT-6c" x="61.083984"/>
       <use xlink:href="#TimesNewRomanPSMT-6d" x="88.867188"/>
       <use xlink:href="#TimesNewRomanPSMT-68" x="166.650391"/>
       <use xlink:href="#TimesNewRomanPSMT-75" x="216.650391"/>
       <use xlink:href="#TimesNewRomanPSMT-72" x="266.650391"/>
       <use xlink:href="#TimesNewRomanPSMT-73" x="299.951172"/>
       <use xlink:href="#TimesNewRomanPSMT-74" x="338.867188"/>
      </g>
     </g>
    </g>
    <g id="xtick_4">
     <g id="line2d_4">
      <g>
       <use xlink:href="#maae70f9f94" x="241.810938" y="261.318486" style="stroke: #000000; stroke-width: 0.8"/>
      </g>
     </g>
     <g id="text_4">
      <!-- Ashford -->
      <g transform="translate(212.186699 302.019637) rotate(-45) scale(0.12 -0.12)">
       <defs>
        <path id="TimesNewRomanPSMT-41" d="M 2928 1419 
L 1288 1419 
L 1000 750 
Q 894 503 894 381 
Q 894 284 986 211 
Q 1078 138 1384 116 
L 1384 0 
L 50 0 
L 50 116 
Q 316 163 394 238 
Q 553 388 747 847 
L 2238 4334 
L 2347 4334 
L 3822 809 
Q 4000 384 4145 257 
Q 4291 131 4550 116 
L 4550 0 
L 2878 0 
L 2878 116 
Q 3131 128 3220 200 
Q 3309 272 3309 375 
Q 3309 513 3184 809 
L 2928 1419 
z
M 2841 1650 
L 2122 3363 
L 1384 1650 
L 2841 1650 
z
" transform="scale(0.015625)"/>
        <path id="TimesNewRomanPSMT-66" d="M 1319 2638 
L 1319 756 
Q 1319 356 1406 250 
Q 1522 113 1716 113 
L 1975 113 
L 1975 0 
L 266 0 
L 266 113 
L 394 113 
Q 519 113 622 175 
Q 725 238 764 344 
Q 803 450 803 756 
L 803 2638 
L 247 2638 
L 247 2863 
L 803 2863 
L 803 3050 
Q 803 3478 940 3775 
Q 1078 4072 1361 4255 
Q 1644 4438 1997 4438 
Q 2325 4438 2600 4225 
Q 2781 4084 2781 3909 
Q 2781 3816 2700 3733 
Q 2619 3650 2525 3650 
Q 2453 3650 2373 3701 
Q 2294 3753 2178 3923 
Q 2063 4094 1966 4153 
Q 1869 4213 1750 4213 
Q 1606 4213 1506 4136 
Q 1406 4059 1362 3898 
Q 1319 3738 1319 3069 
L 1319 2863 
L 2056 2863 
L 2056 2638 
L 1319 2638 
z
" transform="scale(0.015625)"/>
        <path id="TimesNewRomanPSMT-64" d="M 2222 322 
Q 2013 103 1813 7 
Q 1613 -88 1381 -88 
Q 913 -88 563 304 
Q 213 697 213 1313 
Q 213 1928 600 2439 
Q 988 2950 1597 2950 
Q 1975 2950 2222 2709 
L 2222 3238 
Q 2222 3728 2198 3840 
Q 2175 3953 2125 3993 
Q 2075 4034 2000 4034 
Q 1919 4034 1784 3984 
L 1744 4094 
L 2597 4444 
L 2738 4444 
L 2738 1134 
Q 2738 631 2761 520 
Q 2784 409 2836 365 
Q 2888 322 2956 322 
Q 3041 322 3181 375 
L 3216 266 
L 2366 -88 
L 2222 -88 
L 2222 322 
z
M 2222 541 
L 2222 2016 
Q 2203 2228 2109 2403 
Q 2016 2578 1861 2667 
Q 1706 2756 1559 2756 
Q 1284 2756 1069 2509 
Q 784 2184 784 1559 
Q 784 928 1059 592 
Q 1334 256 1672 256 
Q 1956 256 2222 541 
z
" transform="scale(0.015625)"/>
       </defs>
       <use xlink:href="#TimesNewRomanPSMT-41"/>
       <use xlink:href="#TimesNewRomanPSMT-73" x="72.216797"/>
       <use xlink:href="#TimesNewRomanPSMT-68" x="111.132812"/>
       <use xlink:href="#TimesNewRomanPSMT-66" x="161.132812"/>
       <use xlink:href="#TimesNewRomanPSMT-6f" x="194.433594"/>
       <use xlink:href="#TimesNewRomanPSMT-72" x="244.433594"/>
       <use xlink:href="#TimesNewRomanPSMT-64" x="277.734375"/>
      </g>
     </g>
    </g>
    <g id="xtick_5">
     <g id="line2d_5">
      <g>
       <use xlink:href="#maae70f9f94" x="294.923795" y="261.318486" style="stroke: #000000; stroke-width: 0.8"/>
      </g>
     </g>
     <g id="text_5">
      <!-- Brookfield -->
      <g transform="translate(256.346258 310.972935) rotate(-45) scale(0.12 -0.12)">
       <defs>
        <path id="TimesNewRomanPSMT-42" d="M 2956 2163 
Q 3397 2069 3616 1863 
Q 3919 1575 3919 1159 
Q 3919 844 3719 555 
Q 3519 266 3170 133 
Q 2822 0 2106 0 
L 106 0 
L 106 116 
L 266 116 
Q 531 116 647 284 
Q 719 394 719 750 
L 719 3488 
Q 719 3881 628 3984 
Q 506 4122 266 4122 
L 106 4122 
L 106 4238 
L 1938 4238 
Q 2450 4238 2759 4163 
Q 3228 4050 3475 3764 
Q 3722 3478 3722 3106 
Q 3722 2788 3528 2536 
Q 3334 2284 2956 2163 
z
M 1319 2331 
Q 1434 2309 1582 2298 
Q 1731 2288 1909 2288 
Q 2366 2288 2595 2386 
Q 2825 2484 2947 2687 
Q 3069 2891 3069 3131 
Q 3069 3503 2766 3765 
Q 2463 4028 1881 4028 
Q 1569 4028 1319 3959 
L 1319 2331 
z
M 1319 306 
Q 1681 222 2034 222 
Q 2600 222 2897 476 
Q 3194 731 3194 1106 
Q 3194 1353 3059 1581 
Q 2925 1809 2622 1940 
Q 2319 2072 1872 2072 
Q 1678 2072 1540 2065 
Q 1403 2059 1319 2044 
L 1319 306 
z
" transform="scale(0.015625)"/>
        <path id="TimesNewRomanPSMT-6b" d="M 1047 4444 
L 1047 1597 
L 1775 2259 
Q 2006 2472 2044 2528 
Q 2069 2566 2069 2603 
Q 2069 2666 2017 2711 
Q 1966 2756 1847 2763 
L 1847 2863 
L 3091 2863 
L 3091 2763 
Q 2834 2756 2664 2684 
Q 2494 2613 2291 2428 
L 1556 1750 
L 2291 822 
Q 2597 438 2703 334 
Q 2853 188 2966 144 
Q 3044 113 3238 113 
L 3238 0 
L 1847 0 
L 1847 113 
Q 1966 116 2008 148 
Q 2050 181 2050 241 
Q 2050 313 1925 472 
L 1047 1594 
L 1047 644 
Q 1047 366 1086 278 
Q 1125 191 1197 153 
Q 1269 116 1509 113 
L 1509 0 
L 53 0 
L 53 113 
Q 272 113 381 166 
Q 447 200 481 272 
Q 528 375 528 628 
L 528 3234 
Q 528 3731 506 3842 
Q 484 3953 434 3995 
Q 384 4038 303 4038 
Q 238 4038 106 3984 
L 53 4094 
L 903 4444 
L 1047 4444 
z
" transform="scale(0.015625)"/>
       </defs>
       <use xlink:href="#TimesNewRomanPSMT-42"/>
       <use xlink:href="#TimesNewRomanPSMT-72" x="66.699219"/>
       <use xlink:href="#TimesNewRomanPSMT-6f" x="100"/>
       <use xlink:href="#TimesNewRomanPSMT-6f" x="150"/>
       <use xlink:href="#TimesNewRomanPSMT-6b" x="200"/>
       <use xlink:href="#TimesNewRomanPSMT-66" x="250"/>
       <use xlink:href="#TimesNewRomanPSMT-69" x="283.300781"/>
       <use xlink:href="#TimesNewRomanPSMT-65" x="311.083984"/>
       <use xlink:href="#TimesNewRomanPSMT-6c" x="355.46875"/>
       <use xlink:href="#TimesNewRomanPSMT-64" x="383.251953"/>
      </g>
     </g>
    </g>
    <g id="xtick_6">
     <g id="line2d_6">
      <g>
       <use xlink:href="#maae70f9f94" x="348.036652" y="261.318486" style="stroke: #000000; stroke-width: 0.8"/>
      </g>
     </g>
     <g id="text_6">
      <!-- Creston -->
      <g transform="translate(319.824417 300.607633) rotate(-45) scale(0.12 -0.12)">
       <defs>
        <path id="TimesNewRomanPSMT-43" d="M 3853 4334 
L 3950 2894 
L 3853 2894 
Q 3659 3541 3300 3825 
Q 2941 4109 2438 4109 
Q 2016 4109 1675 3895 
Q 1334 3681 1139 3212 
Q 944 2744 944 2047 
Q 944 1472 1128 1050 
Q 1313 628 1683 403 
Q 2053 178 2528 178 
Q 2941 178 3256 354 
Q 3572 531 3950 1056 
L 4047 994 
Q 3728 428 3303 165 
Q 2878 -97 2294 -97 
Q 1241 -97 663 684 
Q 231 1266 231 2053 
Q 231 2688 515 3219 
Q 800 3750 1298 4042 
Q 1797 4334 2388 4334 
Q 2847 4334 3294 4109 
Q 3425 4041 3481 4041 
Q 3566 4041 3628 4100 
Q 3709 4184 3744 4334 
L 3853 4334 
z
" transform="scale(0.015625)"/>
       </defs>
       <use xlink:href="#TimesNewRomanPSMT-43"/>
       <use xlink:href="#TimesNewRomanPSMT-72" x="66.699219"/>
       <use xlink:href="#TimesNewRomanPSMT-65" x="100"/>
       <use xlink:href="#TimesNewRomanPSMT-73" x="144.384766"/>
       <use xlink:href="#TimesNewRomanPSMT-74" x="183.300781"/>
       <use xlink:href="#TimesNewRomanPSMT-6f" x="211.083984"/>
       <use xlink:href="#TimesNewRomanPSMT-6e" x="261.083984"/>
      </g>
     </g>
    </g>
    <g id="xtick_7">
     <g id="line2d_7">
      <g>
       <use xlink:href="#maae70f9f94" x="401.149509" y="261.318486" style="stroke: #000000; stroke-width: 0.8"/>
      </g>
     </g>
     <g id="text_7">
      <!-- Oakridge -->
      <g transform="translate(367.746668 305.782329) rotate(-45) scale(0.12 -0.12)">
       <defs>
        <path id="TimesNewRomanPSMT-4f" d="M 2341 4334 
Q 3166 4334 3770 3707 
Q 4375 3081 4375 2144 
Q 4375 1178 3765 540 
Q 3156 -97 2291 -97 
Q 1416 -97 820 525 
Q 225 1147 225 2134 
Q 225 3144 913 3781 
Q 1509 4334 2341 4334 
z
M 2281 4106 
Q 1713 4106 1369 3684 
Q 941 3159 941 2147 
Q 941 1109 1384 550 
Q 1725 125 2284 125 
Q 2881 125 3270 590 
Q 3659 1056 3659 2059 
Q 3659 3147 3231 3681 
Q 2888 4106 2281 4106 
z
" transform="scale(0.015625)"/>
        <path id="TimesNewRomanPSMT-67" d="M 966 1044 
Q 703 1172 562 1401 
Q 422 1631 422 1909 
Q 422 2334 742 2640 
Q 1063 2947 1563 2947 
Q 1972 2947 2272 2747 
L 2878 2747 
Q 3013 2747 3034 2739 
Q 3056 2731 3066 2713 
Q 3084 2684 3084 2613 
Q 3084 2531 3069 2500 
Q 3059 2484 3036 2475 
Q 3013 2466 2878 2466 
L 2506 2466 
Q 2681 2241 2681 1891 
Q 2681 1491 2375 1206 
Q 2069 922 1553 922 
Q 1341 922 1119 984 
Q 981 866 932 777 
Q 884 688 884 625 
Q 884 572 936 522 
Q 988 472 1138 450 
Q 1225 438 1575 428 
Q 2219 413 2409 384 
Q 2700 344 2873 169 
Q 3047 -6 3047 -263 
Q 3047 -616 2716 -925 
Q 2228 -1381 1444 -1381 
Q 841 -1381 425 -1109 
Q 191 -953 191 -784 
Q 191 -709 225 -634 
Q 278 -519 444 -313 
Q 466 -284 763 25 
Q 600 122 533 198 
Q 466 275 466 372 
Q 466 481 555 628 
Q 644 775 966 1044 
z
M 1509 2797 
Q 1278 2797 1122 2612 
Q 966 2428 966 2047 
Q 966 1553 1178 1281 
Q 1341 1075 1591 1075 
Q 1828 1075 1981 1253 
Q 2134 1431 2134 1813 
Q 2134 2309 1919 2591 
Q 1759 2797 1509 2797 
z
M 934 0 
Q 788 -159 713 -296 
Q 638 -434 638 -550 
Q 638 -700 819 -813 
Q 1131 -1006 1722 -1006 
Q 2284 -1006 2551 -807 
Q 2819 -609 2819 -384 
Q 2819 -222 2659 -153 
Q 2497 -84 2016 -72 
Q 1313 -53 934 0 
z
" transform="scale(0.015625)"/>
       </defs>
       <use xlink:href="#TimesNewRomanPSMT-4f"/>
       <use xlink:href="#TimesNewRomanPSMT-61" x="72.216797"/>
       <use xlink:href="#TimesNewRomanPSMT-6b" x="116.601562"/>
       <use xlink:href="#TimesNewRomanPSMT-72" x="166.601562"/>
       <use xlink:href="#TimesNewRomanPSMT-69" x="199.902344"/>
       <use xlink:href="#TimesNewRomanPSMT-64" x="227.685547"/>
       <use xlink:href="#TimesNewRomanPSMT-67" x="277.685547"/>
       <use xlink:href="#TimesNewRomanPSMT-65" x="327.685547"/>
      </g>
     </g>
    </g>
   </g>
   <g id="matplotlib.axis_2">
    <g id="ytick_1">
     <g id="line2d_8">
      <defs>
       <path id="m20b588cc4e" d="M 0 0 
L -3.5 0 
" style="stroke: #000000; stroke-width: 0.8"/>
      </defs>
      <g>
       <use xlink:href="#m20b588cc4e" x="55.915938" y="258.164491" style="stroke: #000000; stroke-width: 0.8"/>
      </g>
     </g>
     <g id="text_8">
      <!-- 0 -->
      <g transform="translate(43.915938 261.636366) scale(0.1 -0.1)">
       <defs>
        <path id="TimesNewRomanPSMT-30" d="M 231 2094 
Q 231 2819 450 3342 
Q 669 3866 1031 4122 
Q 1313 4325 1613 4325 
Q 2100 4325 2488 3828 
Q 2972 3213 2972 2159 
Q 2972 1422 2759 906 
Q 2547 391 2217 158 
Q 1888 -75 1581 -75 
Q 975 -75 572 641 
Q 231 1244 231 2094 
z
M 844 2016 
Q 844 1141 1059 588 
Q 1238 122 1591 122 
Q 1759 122 1940 273 
Q 2122 425 2216 781 
Q 2359 1319 2359 2297 
Q 2359 3022 2209 3506 
Q 2097 3866 1919 4016 
Q 1791 4119 1609 4119 
Q 1397 4119 1231 3928 
Q 1006 3669 925 3112 
Q 844 2556 844 2016 
z
" transform="scale(0.015625)"/>
       </defs>
       <use xlink:href="#TimesNewRomanPSMT-30"/>
      </g>
     </g>
    </g>
    <g id="ytick_2">
     <g id="line2d_9">
      <g>
       <use xlink:href="#m20b588cc4e" x="55.915938" y="207.504003" style="stroke: #000000; stroke-width: 0.8"/>
      </g>
     </g>
     <g id="text_9">
      <!-- 20000 -->
      <g transform="translate(23.915938 210.975878) scale(0.1 -0.1)">
       <defs>
        <path id="TimesNewRomanPSMT-32" d="M 2934 816 
L 2638 0 
L 138 0 
L 138 116 
Q 1241 1122 1691 1759 
Q 2141 2397 2141 2925 
Q 2141 3328 1894 3587 
Q 1647 3847 1303 3847 
Q 991 3847 742 3664 
Q 494 3481 375 3128 
L 259 3128 
Q 338 3706 661 4015 
Q 984 4325 1469 4325 
Q 1984 4325 2329 3994 
Q 2675 3663 2675 3213 
Q 2675 2891 2525 2569 
Q 2294 2063 1775 1497 
Q 997 647 803 472 
L 1909 472 
Q 2247 472 2383 497 
Q 2519 522 2628 598 
Q 2738 675 2819 816 
L 2934 816 
z
" transform="scale(0.015625)"/>
       </defs>
       <use xlink:href="#TimesNewRomanPSMT-32"/>
       <use xlink:href="#TimesNewRomanPSMT-30" x="50"/>
       <use xlink:href="#TimesNewRomanPSMT-30" x="100"/>
       <use xlink:href="#TimesNewRomanPSMT-30" x="150"/>
       <use xlink:href="#TimesNewRomanPSMT-30" x="200"/>
      </g>
     </g>
    </g>
    <g id="ytick_3">
     <g id="line2d_10">
      <g>
       <use xlink:href="#m20b588cc4e" x="55.915938" y="156.843515" style="stroke: #000000; stroke-width: 0.8"/>
      </g>
     </g>
     <g id="text_10">
      <!-- 40000 -->
      <g transform="translate(23.915938 160.31539) scale(0.1 -0.1)">
       <defs>
        <path id="TimesNewRomanPSMT-34" d="M 2978 1563 
L 2978 1119 
L 2409 1119 
L 2409 0 
L 1894 0 
L 1894 1119 
L 100 1119 
L 100 1519 
L 2066 4325 
L 2409 4325 
L 2409 1563 
L 2978 1563 
z
M 1894 1563 
L 1894 3666 
L 406 1563 
L 1894 1563 
z
" transform="scale(0.015625)"/>
       </defs>
       <use xlink:href="#TimesNewRomanPSMT-34"/>
       <use xlink:href="#TimesNewRomanPSMT-30" x="50"/>
       <use xlink:href="#TimesNewRomanPSMT-30" x="100"/>
       <use xlink:href="#TimesNewRomanPSMT-30" x="150"/>
       <use xlink:href="#TimesNewRomanPSMT-30" x="200"/>
      </g>
     </g>
    </g>
    <g id="ytick_4">
     <g id="line2d_11">
      <g>
       <use xlink:href="#m20b588cc4e" x="55.915938" y="106.183027" style="stroke: #000000; stroke-width: 0.8"/>
      </g>
     </g>
     <g id="text_11">
      <!-- 60000 -->
      <g transform="translate(23.915938 109.654902) scale(0.1 -0.1)">
       <defs>
        <path id="TimesNewRomanPSMT-36" d="M 2869 4325 
L 2869 4209 
Q 2456 4169 2195 4045 
Q 1934 3922 1679 3669 
Q 1425 3416 1258 3105 
Q 1091 2794 978 2366 
Q 1428 2675 1881 2675 
Q 2316 2675 2634 2325 
Q 2953 1975 2953 1425 
Q 2953 894 2631 456 
Q 2244 -75 1606 -75 
Q 1172 -75 869 213 
Q 275 772 275 1663 
Q 275 2231 503 2743 
Q 731 3256 1154 3653 
Q 1578 4050 1965 4187 
Q 2353 4325 2688 4325 
L 2869 4325 
z
M 925 2138 
Q 869 1716 869 1456 
Q 869 1156 980 804 
Q 1091 453 1309 247 
Q 1469 100 1697 100 
Q 1969 100 2183 356 
Q 2397 613 2397 1088 
Q 2397 1622 2184 2012 
Q 1972 2403 1581 2403 
Q 1463 2403 1327 2353 
Q 1191 2303 925 2138 
z
" transform="scale(0.015625)"/>
       </defs>
       <use xlink:href="#TimesNewRomanPSMT-36"/>
       <use xlink:href="#TimesNewRomanPSMT-30" x="50"/>
       <use xlink:href="#TimesNewRomanPSMT-30" x="100"/>
       <use xlink:href="#TimesNewRomanPSMT-30" x="150"/>
       <use xlink:href="#TimesNewRomanPSMT-30" x="200"/>
      </g>
     </g>
    </g>
    <g id="ytick_5">
     <g id="line2d_12">
      <g>
       <use xlink:href="#m20b588cc4e" x="55.915938" y="55.522539" style="stroke: #000000; stroke-width: 0.8"/>
      </g>
     </g>
     <g id="text_12">
      <!-- 80000 -->
      <g transform="translate(23.915938 58.994414) scale(0.1 -0.1)">
       <defs>
        <path id="TimesNewRomanPSMT-38" d="M 1228 2134 
Q 725 2547 579 2797 
Q 434 3047 434 3316 
Q 434 3728 753 4026 
Q 1072 4325 1600 4325 
Q 2113 4325 2425 4047 
Q 2738 3769 2738 3413 
Q 2738 3175 2569 2928 
Q 2400 2681 1866 2347 
Q 2416 1922 2594 1678 
Q 2831 1359 2831 1006 
Q 2831 559 2490 242 
Q 2150 -75 1597 -75 
Q 994 -75 656 303 
Q 388 606 388 966 
Q 388 1247 577 1523 
Q 766 1800 1228 2134 
z
M 1719 2469 
Q 2094 2806 2194 3001 
Q 2294 3197 2294 3444 
Q 2294 3772 2109 3958 
Q 1925 4144 1606 4144 
Q 1288 4144 1088 3959 
Q 888 3775 888 3528 
Q 888 3366 970 3203 
Q 1053 3041 1206 2894 
L 1719 2469 
z
M 1375 2016 
Q 1116 1797 991 1539 
Q 866 1281 866 981 
Q 866 578 1086 336 
Q 1306 94 1647 94 
Q 1984 94 2187 284 
Q 2391 475 2391 747 
Q 2391 972 2272 1150 
Q 2050 1481 1375 2016 
z
" transform="scale(0.015625)"/>
       </defs>
       <use xlink:href="#TimesNewRomanPSMT-38"/>
       <use xlink:href="#TimesNewRomanPSMT-30" x="50"/>
       <use xlink:href="#TimesNewRomanPSMT-30" x="100"/>
       <use xlink:href="#TimesNewRomanPSMT-30" x="150"/>
       <use xlink:href="#TimesNewRomanPSMT-30" x="200"/>
      </g>
     </g>
    </g>
    <g id="text_13">
     <!-- tons -->
     <g transform="translate(16.92125 157.350962) rotate(-90) scale(0.14 -0.14)">
      <use xlink:href="#TimesNewRomanPSMT-74"/>
      <use xlink:href="#TimesNewRomanPSMT-6f" x="27.783203"/>
      <use xlink:href="#TimesNewRomanPSMT-6e" x="77.783203"/>
      <use xlink:href="#TimesNewRomanPSMT-73" x="127.783203"/>
     </g>
    </g>
   </g>
   <g id="patch_3">
    <path d="M 80.196101 143.662289 
L 84.748631 143.662289 
L 84.748631 120.863803 
L 80.196101 120.863803 
L 80.196101 143.662289 
L 80.196101 143.662289 
z
" clip-path="url(#p7202b86d45)" style="fill: none; stroke: #000000; stroke-linejoin: miter"/>
   </g>
   <g id="line2d_13">
    <path d="M 82.472366 143.662289 
L 82.472366 168.275054 
" clip-path="url(#p7202b86d45)" style="fill: none; stroke: #000000; stroke-linecap: square"/>
   </g>
   <g id="line2d_14">
    <path d="M 82.472366 120.863803 
L 82.472366 92.907446 
" clip-path="url(#p7202b86d45)" style="fill: none; stroke: #000000; stroke-linecap: square"/>
   </g>
   <g id="line2d_15">
    <path d="M 81.334233 168.275054 
L 83.610499 168.275054 
" clip-path="url(#p7202b86d45)" style="fill: none; stroke: #000000; stroke-linecap: square"/>
   </g>
   <g id="line2d_16">
    <path d="M 81.334233 92.907446 
L 83.610499 92.907446 
" clip-path="url(#p7202b86d45)" style="fill: none; stroke: #000000; stroke-linecap: square"/>
   </g>
   <g id="patch_4">
    <path d="M 133.308958 151.974409 
L 137.861489 151.974409 
L 137.861489 121.782025 
L 133.308958 121.782025 
L 133.308958 151.974409 
L 133.308958 151.974409 
z
" clip-path="url(#p7202b86d45)" style="fill: none; stroke: #000000; stroke-linejoin: miter"/>
   </g>
   <g id="line2d_17">
    <path d="M 135.585223 151.974409 
L 135.585223 192.546494 
" clip-path="url(#p7202b86d45)" style="fill: none; stroke: #000000; stroke-linecap: square"/>
   </g>
   <g id="line2d_18">
    <path d="M 135.585223 121.782025 
L 135.585223 81.686148 
" clip-path="url(#p7202b86d45)" style="fill: none; stroke: #000000; stroke-linecap: square"/>
   </g>
   <g id="line2d_19">
    <path d="M 134.447091 192.546494 
L 136.723356 192.546494 
" clip-path="url(#p7202b86d45)" style="fill: none; stroke: #000000; stroke-linecap: square"/>
   </g>
   <g id="line2d_20">
    <path d="M 134.447091 81.686148 
L 136.723356 81.686148 
" clip-path="url(#p7202b86d45)" style="fill: none; stroke: #000000; stroke-linecap: square"/>
   </g>
   <g id="patch_5">
    <path d="M 186.421815 155.094462 
L 190.974346 155.094462 
L 190.974346 132.903268 
L 186.421815 132.903268 
L 186.421815 155.094462 
L 186.421815 155.094462 
z
" clip-path="url(#p7202b86d45)" style="fill: none; stroke: #000000; stroke-linejoin: miter"/>
   </g>
   <g id="line2d_21">
    <path d="M 188.69808 155.094462 
L 188.69808 186.682542 
" clip-path="url(#p7202b86d45)" style="fill: none; stroke: #000000; stroke-linecap: square"/>
   </g>
   <g id="line2d_22">
    <path d="M 188.69808 132.903268 
L 188.69808 106.497122 
" clip-path="url(#p7202b86d45)" style="fill: none; stroke: #000000; stroke-linecap: square"/>
   </g>
   <g id="line2d_23">
    <path d="M 187.559948 186.682542 
L 189.836213 186.682542 
" clip-path="url(#p7202b86d45)" style="fill: none; stroke: #000000; stroke-linecap: square"/>
   </g>
   <g id="line2d_24">
    <path d="M 187.559948 106.497122 
L 189.836213 106.497122 
" clip-path="url(#p7202b86d45)" style="fill: none; stroke: #000000; stroke-linecap: square"/>
   </g>
   <g id="patch_6">
    <path d="M 239.534672 133.969038 
L 244.087203 133.969038 
L 244.087203 109.804619 
L 239.534672 109.804619 
L 239.534672 133.969038 
L 239.534672 133.969038 
z
" clip-path="url(#p7202b86d45)" style="fill: none; stroke: #000000; stroke-linejoin: miter"/>
   </g>
   <g id="line2d_25">
    <path d="M 241.810938 133.969038 
L 241.810938 168.860183 
" clip-path="url(#p7202b86d45)" style="fill: none; stroke: #000000; stroke-linecap: square"/>
   </g>
   <g id="line2d_26">
    <path d="M 241.810938 109.804619 
L 241.810938 74.48476 
" clip-path="url(#p7202b86d45)" style="fill: none; stroke: #000000; stroke-linecap: square"/>
   </g>
   <g id="line2d_27">
    <path d="M 240.672805 168.860183 
L 242.94907 168.860183 
" clip-path="url(#p7202b86d45)" style="fill: none; stroke: #000000; stroke-linecap: square"/>
   </g>
   <g id="line2d_28">
    <path d="M 240.672805 74.48476 
L 242.94907 74.48476 
" clip-path="url(#p7202b86d45)" style="fill: none; stroke: #000000; stroke-linecap: square"/>
   </g>
   <g id="patch_7">
    <path d="M 292.647529 141.891705 
L 297.20006 141.891705 
L 297.20006 115.80472 
L 292.647529 115.80472 
L 292.647529 141.891705 
L 292.647529 141.891705 
z
" clip-path="url(#p7202b86d45)" style="fill: none; stroke: #000000; stroke-linejoin: miter"/>
   </g>
   <g id="line2d_29">
    <path d="M 294.923795 141.891705 
L 294.923795 175.44098 
" clip-path="url(#p7202b86d45)" style="fill: none; stroke: #000000; stroke-linecap: square"/>
   </g>
   <g id="line2d_30">
    <path d="M 294.923795 115.80472 
L 294.923795 84.32556 
" clip-path="url(#p7202b86d45)" style="fill: none; stroke: #000000; stroke-linecap: square"/>
   </g>
   <g id="line2d_31">
    <path d="M 293.785662 175.44098 
L 296.061927 175.44098 
" clip-path="url(#p7202b86d45)" style="fill: none; stroke: #000000; stroke-linecap: square"/>
   </g>
   <g id="line2d_32">
    <path d="M 293.785662 84.32556 
L 296.061927 84.32556 
" clip-path="url(#p7202b86d45)" style="fill: none; stroke: #000000; stroke-linecap: square"/>
   </g>
   <g id="patch_8">
    <path d="M 345.760386 136.4685 
L 350.312917 136.4685 
L 350.312917 108.737582 
L 345.760386 108.737582 
L 345.760386 136.4685 
L 345.760386 136.4685 
z
" clip-path="url(#p7202b86d45)" style="fill: none; stroke: #000000; stroke-linejoin: miter"/>
   </g>
   <g id="line2d_33">
    <path d="M 348.036652 136.4685 
L 348.036652 171.304551 
" clip-path="url(#p7202b86d45)" style="fill: none; stroke: #000000; stroke-linecap: square"/>
   </g>
   <g id="line2d_34">
    <path d="M 348.036652 108.737582 
L 348.036652 75.814598 
" clip-path="url(#p7202b86d45)" style="fill: none; stroke: #000000; stroke-linecap: square"/>
   </g>
   <g id="line2d_35">
    <path d="M 346.898519 171.304551 
L 349.174784 171.304551 
" clip-path="url(#p7202b86d45)" style="fill: none; stroke: #000000; stroke-linecap: square"/>
   </g>
   <g id="line2d_36">
    <path d="M 346.898519 75.814598 
L 349.174784 75.814598 
" clip-path="url(#p7202b86d45)" style="fill: none; stroke: #000000; stroke-linecap: square"/>
   </g>
   <g id="patch_9">
    <path d="M 398.873244 151.315822 
L 403.425774 151.315822 
L 403.425774 128.488207 
L 398.873244 128.488207 
L 398.873244 151.315822 
L 398.873244 151.315822 
z
" clip-path="url(#p7202b86d45)" style="fill: none; stroke: #000000; stroke-linejoin: miter"/>
   </g>
   <g id="line2d_37">
    <path d="M 401.149509 151.315822 
L 401.149509 184.965152 
" clip-path="url(#p7202b86d45)" style="fill: none; stroke: #000000; stroke-linecap: square"/>
   </g>
   <g id="line2d_38">
    <path d="M 401.149509 128.488207 
L 401.149509 100.876341 
" clip-path="url(#p7202b86d45)" style="fill: none; stroke: #000000; stroke-linecap: square"/>
   </g>
   <g id="line2d_39">
    <path d="M 400.011376 184.965152 
L 402.287642 184.965152 
" clip-path="url(#p7202b86d45)" style="fill: none; stroke: #000000; stroke-linecap: square"/>
   </g>
   <g id="line2d_40">
    <path d="M 400.011376 100.876341 
L 402.287642 100.876341 
" clip-path="url(#p7202b86d45)" style="fill: none; stroke: #000000; stroke-linecap: square"/>
   </g>
   <g id="line2d_41">
    <path d="M 80.196101 134.778339 
L 84.748631 134.778339 
" clip-path="url(#p7202b86d45)" style="fill: none; stroke: #000000; stroke-width: 1.5; stroke-linecap: square"/>
   </g>
   <g id="line2d_42">
    <path d="M 133.308958 140.121754 
L 137.861489 140.121754 
" clip-path="url(#p7202b86d45)" style="fill: none; stroke: #000000; stroke-width: 1.5; stroke-linecap: square"/>
   </g>
   <g id="line2d_43">
    <path d="M 186.421815 144.663467 
L 190.974346 144.663467 
" clip-path="url(#p7202b86d45)" style="fill: none; stroke: #000000; stroke-width: 1.5; stroke-linecap: square"/>
   </g>
   <g id="line2d_44">
    <path d="M 239.534672 121.108873 
L 244.087203 121.108873 
" clip-path="url(#p7202b86d45)" style="fill: none; stroke: #000000; stroke-width: 1.5; stroke-linecap: square"/>
   </g>
   <g id="line2d_45">
    <path d="M 292.647529 130.408872 
L 297.20006 130.408872 
" clip-path="url(#p7202b86d45)" style="fill: none; stroke: #000000; stroke-width: 1.5; stroke-linecap: square"/>
   </g>
   <g id="line2d_46">
    <path d="M 345.760386 124.599381 
L 350.312917 124.599381 
" clip-path="url(#p7202b86d45)" style="fill: none; stroke: #000000; stroke-width: 1.5; stroke-linecap: square"/>
   </g>
   <g id="line2d_47">
    <path d="M 398.873244 141.409797 
L 403.425774 141.409797 
" clip-path="url(#p7202b86d45)" style="fill: none; stroke: #000000; stroke-width: 1.5; stroke-linecap: square"/>
   </g>
   <g id="patch_10">
    <path d="M 55.915938 261.318486 
L 55.915938 30.045 
" style="fill: none; stroke: #000000; stroke-linejoin: miter; stroke-linecap: square"/>
   </g>
   <g id="patch_11">
    <path d="M 427.705938 261.318486 
L 427.705938 30.045 
" style="fill: none; stroke: #000000; stroke-linejoin: miter; stroke-linecap: square"/>
   </g>
   <g id="patch_12">
    <path d="M 55.915938 261.318486 
L 427.705938 261.318486 
" style="fill: none; stroke: #000000; stroke-linejoin: miter; stroke-linecap: square"/>
   </g>
   <g id="patch_13">
    <path d="M 55.915938 30.045 
L 427.705938 30.045 
" style="fill: none; stroke: #000000; stroke-linejoin: miter; stroke-linecap: square"/>
   </g>
   <g id="text_14">
    <!-- Data on the volume of fruit transportation in cities (tons) -->
    <g transform="translate(47.830938 18.045) scale(0.16 -0.16)">
     <defs>
      <path id="TimesNewRomanPS-BoldMT-44" d="M 84 0 
L 84 116 
L 225 116 
Q 409 116 507 173 
Q 606 231 653 331 
Q 681 397 681 725 
L 681 3513 
Q 681 3838 647 3919 
Q 613 4000 508 4061 
Q 403 4122 225 4122 
L 84 4122 
L 84 4238 
L 1981 4238 
Q 2741 4238 3203 4031 
Q 3769 3778 4061 3265 
Q 4353 2753 4353 2106 
Q 4353 1659 4209 1282 
Q 4066 906 3837 661 
Q 3609 416 3311 267 
Q 3013 119 2581 38 
Q 2391 0 1981 0 
L 84 0 
z
M 1700 3997 
L 1700 691 
Q 1700 428 1725 368 
Q 1750 309 1809 278 
Q 1894 231 2053 231 
Q 2575 231 2850 588 
Q 3225 1069 3225 2081 
Q 3225 2897 2969 3384 
Q 2766 3766 2447 3903 
Q 2222 4000 1700 3997 
z
" transform="scale(0.015625)"/>
      <path id="TimesNewRomanPS-BoldMT-61" d="M 1828 431 
Q 1294 -41 869 -41 
Q 619 -41 453 123 
Q 288 288 288 534 
Q 288 869 575 1136 
Q 863 1403 1828 1847 
L 1828 2141 
Q 1828 2472 1792 2558 
Q 1756 2644 1656 2708 
Q 1556 2772 1431 2772 
Q 1228 2772 1097 2681 
Q 1016 2625 1016 2550 
Q 1016 2484 1103 2388 
Q 1222 2253 1222 2128 
Q 1222 1975 1108 1867 
Q 994 1759 809 1759 
Q 613 1759 480 1878 
Q 347 1997 347 2156 
Q 347 2381 525 2586 
Q 703 2791 1022 2900 
Q 1341 3009 1684 3009 
Q 2100 3009 2342 2832 
Q 2584 2656 2656 2450 
Q 2700 2319 2700 1847 
L 2700 713 
Q 2700 513 2715 461 
Q 2731 409 2762 384 
Q 2794 359 2834 359 
Q 2916 359 3000 475 
L 3094 400 
Q 2938 169 2770 64 
Q 2603 -41 2391 -41 
Q 2141 -41 2000 76 
Q 1859 194 1828 431 
z
M 1828 659 
L 1828 1638 
Q 1450 1416 1266 1163 
Q 1144 994 1144 822 
Q 1144 678 1247 569 
Q 1325 484 1466 484 
Q 1622 484 1828 659 
z
" transform="scale(0.015625)"/>
      <path id="TimesNewRomanPS-BoldMT-74" d="M 1375 3991 
L 1375 2922 
L 2069 2922 
L 2069 2613 
L 1375 2613 
L 1375 809 
Q 1375 556 1398 482 
Q 1422 409 1481 364 
Q 1541 319 1591 319 
Q 1794 319 1975 628 
L 2069 559 
Q 1816 -41 1247 -41 
Q 969 -41 776 114 
Q 584 269 531 459 
Q 500 566 500 1034 
L 500 2613 
L 119 2613 
L 119 2722 
Q 513 3000 789 3306 
Q 1066 3613 1272 3991 
L 1375 3991 
z
" transform="scale(0.015625)"/>
      <path id="TimesNewRomanPS-BoldMT-20" transform="scale(0.015625)"/>
      <path id="TimesNewRomanPS-BoldMT-6f" d="M 1594 3009 
Q 1975 3009 2303 2812 
Q 2631 2616 2801 2253 
Q 2972 1891 2972 1459 
Q 2972 838 2656 419 
Q 2275 -88 1603 -88 
Q 944 -88 587 375 
Q 231 838 231 1447 
Q 231 2075 595 2542 
Q 959 3009 1594 3009 
z
M 1606 2788 
Q 1447 2788 1333 2667 
Q 1219 2547 1183 2192 
Q 1147 1838 1147 1206 
Q 1147 872 1191 581 
Q 1225 359 1337 243 
Q 1450 128 1594 128 
Q 1734 128 1828 206 
Q 1950 313 1991 503 
Q 2053 800 2053 1703 
Q 2053 2234 1993 2432 
Q 1934 2631 1819 2722 
Q 1738 2788 1606 2788 
z
" transform="scale(0.015625)"/>
      <path id="TimesNewRomanPS-BoldMT-6e" d="M 1409 2922 
L 1409 2544 
Q 1634 2788 1840 2898 
Q 2047 3009 2284 3009 
Q 2569 3009 2756 2851 
Q 2944 2694 3006 2459 
Q 3056 2281 3056 1775 
L 3056 638 
Q 3056 300 3117 217 
Q 3178 134 3372 113 
L 3372 0 
L 1894 0 
L 1894 113 
Q 2059 134 2131 250 
Q 2181 328 2181 638 
L 2181 1938 
Q 2181 2297 2153 2390 
Q 2125 2484 2058 2536 
Q 1991 2588 1909 2588 
Q 1641 2588 1409 2203 
L 1409 638 
Q 1409 309 1470 221 
Q 1531 134 1697 113 
L 1697 0 
L 219 0 
L 219 113 
Q 403 131 481 231 
Q 534 300 534 638 
L 534 2288 
Q 534 2619 473 2700 
Q 413 2781 219 2806 
L 219 2922 
L 1409 2922 
z
" transform="scale(0.015625)"/>
      <path id="TimesNewRomanPS-BoldMT-68" d="M 1409 4238 
L 1409 2547 
Q 1650 2800 1850 2904 
Q 2050 3009 2266 3009 
Q 2541 3009 2736 2853 
Q 2931 2697 2995 2486 
Q 3059 2275 3059 1775 
L 3059 634 
Q 3059 300 3121 217 
Q 3184 134 3375 113 
L 3375 0 
L 1894 0 
L 1894 113 
Q 2050 134 2128 238 
Q 2184 319 2184 634 
L 2184 1938 
Q 2184 2300 2156 2392 
Q 2128 2484 2061 2536 
Q 1994 2588 1909 2588 
Q 1784 2588 1665 2502 
Q 1547 2416 1409 2200 
L 1409 634 
Q 1409 322 1456 244 
Q 1516 138 1700 113 
L 1700 0 
L 219 0 
L 219 113 
Q 403 131 481 231 
Q 534 300 534 634 
L 534 3603 
Q 534 3934 473 4015 
Q 413 4097 219 4122 
L 219 4238 
L 1409 4238 
z
" transform="scale(0.015625)"/>
      <path id="TimesNewRomanPS-BoldMT-65" d="M 2691 1566 
L 1088 1566 
Q 1116 984 1397 647 
Q 1613 388 1916 388 
Q 2103 388 2256 492 
Q 2409 597 2584 869 
L 2691 800 
Q 2453 316 2165 114 
Q 1878 -88 1500 -88 
Q 850 -88 516 413 
Q 247 816 247 1413 
Q 247 2144 642 2576 
Q 1038 3009 1569 3009 
Q 2013 3009 2339 2645 
Q 2666 2281 2691 1566 
z
M 1922 1775 
Q 1922 2278 1867 2465 
Q 1813 2653 1697 2750 
Q 1631 2806 1522 2806 
Q 1359 2806 1256 2647 
Q 1072 2369 1072 1884 
L 1072 1775 
L 1922 1775 
z
" transform="scale(0.015625)"/>
      <path id="TimesNewRomanPS-BoldMT-76" d="M 1534 -88 
L 550 2178 
Q 372 2588 272 2697 
Q 200 2778 59 2806 
L 59 2922 
L 1613 2922 
L 1613 2806 
Q 1466 2806 1413 2753 
Q 1338 2684 1338 2591 
Q 1338 2475 1475 2156 
L 1956 1059 
L 2341 2006 
Q 2506 2413 2506 2581 
Q 2506 2678 2436 2739 
Q 2366 2800 2188 2806 
L 2188 2922 
L 3144 2922 
L 3144 2806 
Q 3006 2788 2918 2703 
Q 2831 2619 2656 2206 
L 1681 -88 
L 1534 -88 
z
" transform="scale(0.015625)"/>
      <path id="TimesNewRomanPS-BoldMT-6c" d="M 1359 4238 
L 1359 606 
Q 1359 297 1431 211 
Q 1503 125 1713 113 
L 1713 0 
L 134 0 
L 134 113 
Q 328 119 422 225 
Q 484 297 484 606 
L 484 3631 
Q 484 3938 412 4023 
Q 341 4109 134 4122 
L 134 4238 
L 1359 4238 
z
" transform="scale(0.015625)"/>
      <path id="TimesNewRomanPS-BoldMT-75" d="M 3038 2922 
L 3038 634 
Q 3038 300 3100 217 
Q 3163 134 3353 113 
L 3353 0 
L 2163 0 
L 2163 391 
Q 1953 141 1743 26 
Q 1534 -88 1275 -88 
Q 1028 -88 836 64 
Q 644 216 578 419 
Q 513 622 513 1128 
L 513 2288 
Q 513 2619 452 2700 
Q 391 2781 197 2806 
L 197 2922 
L 1388 2922 
L 1388 925 
Q 1388 613 1417 522 
Q 1447 431 1511 384 
Q 1575 338 1659 338 
Q 1772 338 1863 397 
Q 1988 478 2163 725 
L 2163 2288 
Q 2163 2619 2102 2700 
Q 2041 2781 1847 2806 
L 1847 2922 
L 3038 2922 
z
" transform="scale(0.015625)"/>
      <path id="TimesNewRomanPS-BoldMT-6d" d="M 1428 2922 
L 1428 2538 
Q 1669 2800 1873 2904 
Q 2078 3009 2322 3009 
Q 2603 3009 2793 2878 
Q 2984 2747 3088 2478 
Q 3338 2759 3567 2884 
Q 3797 3009 4047 3009 
Q 4350 3009 4529 2870 
Q 4709 2731 4779 2517 
Q 4850 2303 4850 1834 
L 4850 638 
Q 4850 300 4911 219 
Q 4972 138 5166 113 
L 5166 0 
L 3656 0 
L 3656 113 
Q 3834 128 3919 250 
Q 3975 334 3975 638 
L 3975 1894 
Q 3975 2284 3944 2390 
Q 3913 2497 3845 2548 
Q 3778 2600 3688 2600 
Q 3553 2600 3415 2501 
Q 3278 2403 3138 2206 
L 3138 638 
Q 3138 322 3191 241 
Q 3263 125 3466 113 
L 3466 0 
L 1953 0 
L 1953 113 
Q 2075 119 2145 173 
Q 2216 228 2239 304 
Q 2263 381 2263 638 
L 2263 1894 
Q 2263 2291 2231 2391 
Q 2200 2491 2126 2547 
Q 2053 2603 1969 2603 
Q 1844 2603 1741 2538 
Q 1594 2441 1428 2206 
L 1428 638 
Q 1428 328 1489 229 
Q 1550 131 1744 113 
L 1744 0 
L 238 0 
L 238 113 
Q 422 131 500 231 
Q 553 300 553 638 
L 553 2288 
Q 553 2619 492 2700 
Q 431 2781 238 2806 
L 238 2922 
L 1428 2922 
z
" transform="scale(0.015625)"/>
      <path id="TimesNewRomanPS-BoldMT-66" d="M 1497 2616 
L 1497 588 
Q 1497 294 1559 219 
Q 1659 103 1928 113 
L 1928 0 
L 206 0 
L 206 113 
Q 403 116 486 158 
Q 569 200 600 275 
Q 631 350 631 588 
L 631 2616 
L 206 2616 
L 206 2922 
L 631 2922 
L 631 3138 
L 628 3284 
Q 628 3734 958 4034 
Q 1288 4334 1850 4334 
Q 2234 4334 2420 4190 
Q 2606 4047 2606 3872 
Q 2606 3731 2490 3628 
Q 2375 3525 2184 3525 
Q 2022 3525 1926 3609 
Q 1831 3694 1831 3797 
Q 1831 3825 1850 3913 
Q 1863 3966 1863 4013 
Q 1863 4078 1825 4109 
Q 1775 4156 1703 4156 
Q 1613 4156 1552 4081 
Q 1491 4006 1491 3841 
L 1497 3294 
L 1497 2922 
L 1928 2922 
L 1928 2616 
L 1497 2616 
z
" transform="scale(0.015625)"/>
      <path id="TimesNewRomanPS-BoldMT-72" d="M 1428 2922 
L 1428 2259 
Q 1719 2713 1937 2861 
Q 2156 3009 2359 3009 
Q 2534 3009 2639 2901 
Q 2744 2794 2744 2597 
Q 2744 2388 2642 2272 
Q 2541 2156 2397 2156 
Q 2231 2156 2109 2262 
Q 1988 2369 1966 2381 
Q 1934 2400 1894 2400 
Q 1803 2400 1722 2331 
Q 1594 2225 1528 2028 
Q 1428 1725 1428 1359 
L 1428 688 
L 1431 513 
Q 1431 334 1453 284 
Q 1491 200 1564 161 
Q 1638 122 1813 113 
L 1813 0 
L 234 0 
L 234 113 
Q 425 128 492 217 
Q 559 306 559 688 
L 559 2303 
Q 559 2553 534 2622 
Q 503 2709 443 2750 
Q 384 2791 234 2806 
L 234 2922 
L 1428 2922 
z
" transform="scale(0.015625)"/>
      <path id="TimesNewRomanPS-BoldMT-69" d="M 919 4338 
Q 1122 4338 1262 4195 
Q 1403 4053 1403 3853 
Q 1403 3653 1261 3512 
Q 1119 3372 919 3372 
Q 719 3372 578 3512 
Q 438 3653 438 3853 
Q 438 4053 578 4195 
Q 719 4338 919 4338 
z
M 1356 2922 
L 1356 606 
Q 1356 297 1428 211 
Q 1500 125 1709 113 
L 1709 0 
L 131 0 
L 131 113 
Q 325 119 419 225 
Q 481 297 481 606 
L 481 2313 
Q 481 2622 409 2708 
Q 338 2794 131 2806 
L 131 2922 
L 1356 2922 
z
" transform="scale(0.015625)"/>
      <path id="TimesNewRomanPS-BoldMT-73" d="M 2063 3003 
L 2109 2006 
L 2003 2006 
Q 1813 2450 1608 2612 
Q 1403 2775 1200 2775 
Q 1072 2775 981 2689 
Q 891 2603 891 2491 
Q 891 2406 953 2328 
Q 1053 2200 1512 1889 
Q 1972 1578 2117 1361 
Q 2263 1144 2263 875 
Q 2263 631 2141 397 
Q 2019 163 1797 37 
Q 1575 -88 1306 -88 
Q 1097 -88 747 44 
Q 653 78 619 78 
Q 516 78 447 -78 
L 344 -78 
L 294 972 
L 400 972 
Q 541 559 786 353 
Q 1031 147 1250 147 
Q 1400 147 1495 239 
Q 1591 331 1591 463 
Q 1591 613 1497 722 
Q 1403 831 1078 1053 
Q 600 1384 459 1559 
Q 253 1816 253 2125 
Q 253 2463 486 2736 
Q 719 3009 1159 3009 
Q 1397 3009 1619 2894 
Q 1703 2847 1756 2847 
Q 1813 2847 1847 2870 
Q 1881 2894 1956 3003 
L 2063 3003 
z
" transform="scale(0.015625)"/>
      <path id="TimesNewRomanPS-BoldMT-70" d="M 1347 297 
L 1347 -791 
Q 1347 -1016 1383 -1097 
Q 1419 -1178 1494 -1215 
Q 1569 -1253 1788 -1253 
L 1788 -1369 
L 122 -1369 
L 122 -1253 
Q 316 -1247 409 -1144 
Q 472 -1072 472 -772 
L 472 2313 
Q 472 2622 400 2708 
Q 328 2794 122 2806 
L 122 2922 
L 1347 2922 
L 1347 2538 
Q 1500 2763 1659 2863 
Q 1888 3009 2156 3009 
Q 2478 3009 2742 2806 
Q 3006 2603 3143 2245 
Q 3281 1888 3281 1475 
Q 3281 1031 3139 664 
Q 2997 297 2726 104 
Q 2456 -88 2125 -88 
Q 1884 -88 1675 19 
Q 1519 100 1347 297 
z
M 1347 613 
Q 1616 231 1922 231 
Q 2091 231 2200 409 
Q 2363 672 2363 1409 
Q 2363 2166 2184 2444 
Q 2066 2628 1866 2628 
Q 1550 2628 1347 2172 
L 1347 613 
z
" transform="scale(0.015625)"/>
      <path id="TimesNewRomanPS-BoldMT-63" d="M 2600 753 
L 2697 678 
Q 2491 291 2183 101 
Q 1875 -88 1528 -88 
Q 944 -88 594 353 
Q 244 794 244 1413 
Q 244 2009 563 2463 
Q 947 3009 1622 3009 
Q 2075 3009 2342 2781 
Q 2609 2553 2609 2272 
Q 2609 2094 2501 1987 
Q 2394 1881 2219 1881 
Q 2034 1881 1914 2003 
Q 1794 2125 1766 2438 
Q 1747 2634 1675 2713 
Q 1603 2791 1506 2791 
Q 1356 2791 1250 2631 
Q 1088 2391 1088 1894 
Q 1088 1481 1219 1104 
Q 1350 728 1578 544 
Q 1750 409 1984 409 
Q 2138 409 2275 481 
Q 2413 553 2600 753 
z
" transform="scale(0.015625)"/>
      <path id="TimesNewRomanPS-BoldMT-28" d="M 2056 4334 
L 2056 4191 
Q 1731 3978 1578 3775 
Q 1366 3494 1247 3053 
Q 1097 2506 1097 1525 
Q 1097 600 1233 87 
Q 1369 -425 1603 -741 
Q 1766 -959 2056 -1125 
L 2056 -1281 
Q 1303 -1028 779 -248 
Q 256 531 256 1544 
Q 256 2544 778 3314 
Q 1300 4084 2056 4334 
z
" transform="scale(0.015625)"/>
      <path id="TimesNewRomanPS-BoldMT-29" d="M 78 -1281 
L 78 -1138 
Q 403 -922 556 -719 
Q 766 -438 888 0 
Q 1038 550 1038 1531 
Q 1038 2456 902 2967 
Q 766 3478 531 3794 
Q 369 4013 78 4178 
L 78 4334 
Q 831 4081 1354 3301 
Q 1878 2522 1878 1509 
Q 1878 513 1354 -257 
Q 831 -1028 78 -1281 
z
" transform="scale(0.015625)"/>
     </defs>
     <use xlink:href="#TimesNewRomanPS-BoldMT-44"/>
     <use xlink:href="#TimesNewRomanPS-BoldMT-61" x="72.216797"/>
     <use xlink:href="#TimesNewRomanPS-BoldMT-74" x="122.216797"/>
     <use xlink:href="#TimesNewRomanPS-BoldMT-61" x="155.517578"/>
     <use xlink:href="#TimesNewRomanPS-BoldMT-20" x="205.517578"/>
     <use xlink:href="#TimesNewRomanPS-BoldMT-6f" x="230.517578"/>
     <use xlink:href="#TimesNewRomanPS-BoldMT-6e" x="280.517578"/>
     <use xlink:href="#TimesNewRomanPS-BoldMT-20" x="336.132812"/>
     <use xlink:href="#TimesNewRomanPS-BoldMT-74" x="361.132812"/>
     <use xlink:href="#TimesNewRomanPS-BoldMT-68" x="394.433594"/>
     <use xlink:href="#TimesNewRomanPS-BoldMT-65" x="450.048828"/>
     <use xlink:href="#TimesNewRomanPS-BoldMT-20" x="494.433594"/>
     <use xlink:href="#TimesNewRomanPS-BoldMT-76" x="519.433594"/>
     <use xlink:href="#TimesNewRomanPS-BoldMT-6f" x="569.433594"/>
     <use xlink:href="#TimesNewRomanPS-BoldMT-6c" x="619.433594"/>
     <use xlink:href="#TimesNewRomanPS-BoldMT-75" x="647.216797"/>
     <use xlink:href="#TimesNewRomanPS-BoldMT-6d" x="702.832031"/>
     <use xlink:href="#TimesNewRomanPS-BoldMT-65" x="786.132812"/>
     <use xlink:href="#TimesNewRomanPS-BoldMT-20" x="830.517578"/>
     <use xlink:href="#TimesNewRomanPS-BoldMT-6f" x="855.517578"/>
     <use xlink:href="#TimesNewRomanPS-BoldMT-66" x="905.517578"/>
     <use xlink:href="#TimesNewRomanPS-BoldMT-20" x="938.818359"/>
     <use xlink:href="#TimesNewRomanPS-BoldMT-66" x="963.818359"/>
     <use xlink:href="#TimesNewRomanPS-BoldMT-72" x="997.119141"/>
     <use xlink:href="#TimesNewRomanPS-BoldMT-75" x="1041.503906"/>
     <use xlink:href="#TimesNewRomanPS-BoldMT-69" x="1097.119141"/>
     <use xlink:href="#TimesNewRomanPS-BoldMT-74" x="1124.902344"/>
     <use xlink:href="#TimesNewRomanPS-BoldMT-20" x="1158.203125"/>
     <use xlink:href="#TimesNewRomanPS-BoldMT-74" x="1183.203125"/>
     <use xlink:href="#TimesNewRomanPS-BoldMT-72" x="1216.503906"/>
     <use xlink:href="#TimesNewRomanPS-BoldMT-61" x="1260.888672"/>
     <use xlink:href="#TimesNewRomanPS-BoldMT-6e" x="1310.888672"/>
     <use xlink:href="#TimesNewRomanPS-BoldMT-73" x="1366.503906"/>
     <use xlink:href="#TimesNewRomanPS-BoldMT-70" x="1405.419922"/>
     <use xlink:href="#TimesNewRomanPS-BoldMT-6f" x="1461.035156"/>
     <use xlink:href="#TimesNewRomanPS-BoldMT-72" x="1511.035156"/>
     <use xlink:href="#TimesNewRomanPS-BoldMT-74" x="1555.419922"/>
     <use xlink:href="#TimesNewRomanPS-BoldMT-61" x="1588.720703"/>
     <use xlink:href="#TimesNewRomanPS-BoldMT-74" x="1638.720703"/>
     <use xlink:href="#TimesNewRomanPS-BoldMT-69" x="1672.021484"/>
     <use xlink:href="#TimesNewRomanPS-BoldMT-6f" x="1699.804688"/>
     <use xlink:href="#TimesNewRomanPS-BoldMT-6e" x="1749.804688"/>
     <use xlink:href="#TimesNewRomanPS-BoldMT-20" x="1805.419922"/>
     <use xlink:href="#TimesNewRomanPS-BoldMT-69" x="1830.419922"/>
     <use xlink:href="#TimesNewRomanPS-BoldMT-6e" x="1858.203125"/>
     <use xlink:href="#TimesNewRomanPS-BoldMT-20" x="1913.818359"/>
     <use xlink:href="#TimesNewRomanPS-BoldMT-63" x="1938.818359"/>
     <use xlink:href="#TimesNewRomanPS-BoldMT-69" x="1983.203125"/>
     <use xlink:href="#TimesNewRomanPS-BoldMT-74" x="2010.986328"/>
     <use xlink:href="#TimesNewRomanPS-BoldMT-69" x="2044.287109"/>
     <use xlink:href="#TimesNewRomanPS-BoldMT-65" x="2072.070312"/>
     <use xlink:href="#TimesNewRomanPS-BoldMT-73" x="2116.455078"/>
     <use xlink:href="#TimesNewRomanPS-BoldMT-20" x="2155.371094"/>
     <use xlink:href="#TimesNewRomanPS-BoldMT-28" x="2180.371094"/>
     <use xlink:href="#TimesNewRomanPS-BoldMT-74" x="2213.671875"/>
     <use xlink:href="#TimesNewRomanPS-BoldMT-6f" x="2246.972656"/>
     <use xlink:href="#TimesNewRomanPS-BoldMT-6e" x="2296.972656"/>
     <use xlink:href="#TimesNewRomanPS-BoldMT-73" x="2352.587891"/>
     <use xlink:href="#TimesNewRomanPS-BoldMT-29" x="2391.503906"/>
    </g>
   </g>
  </g>
 </g>
 <defs>
  <clipPath id="p7202b86d45">
   <rect x="55.915938" y="30.045" width="371.79" height="231.273486"/>
  </clipPath>
 </defs>
</svg>
