<?xml version="1.0" encoding="utf-8" standalone="no"?>
<!DOCTYPE svg PUBLIC "-//W3C//DTD SVG 1.1//EN"
  "http://www.w3.org/Graphics/SVG/1.1/DTD/svg11.dtd">
<svg xmlns:xlink="http://www.w3.org/1999/xlink" width="452.089687pt" height="319.936282pt" viewBox="0 0 452.089687 319.936282" xmlns="http://www.w3.org/2000/svg" version="1.1">
 <metadata>
  <rdf:RDF xmlns:dc="http://purl.org/dc/elements/1.1/" xmlns:cc="http://creativecommons.org/ns#" xmlns:rdf="http://www.w3.org/1999/02/22-rdf-syntax-ns#">
   <cc:Work>
    <dc:type rdf:resource="http://purl.org/dc/dcmitype/StillImage"/>
    <dc:date>2025-05-26T16:48:47.517932</dc:date>
    <dc:format>image/svg+xml</dc:format>
    <dc:creator>
     <cc:Agent>
      <dc:title>Matplotlib v3.7.2, https://matplotlib.org/</dc:title>
     </cc:Agent>
    </dc:creator>
   </cc:Work>
  </rdf:RDF>
 </metadata>
 <defs>
  <style type="text/css">*{stroke-linejoin: round; stroke-linecap: butt}</style>
 </defs>
 <g id="figure_1">
  <g id="patch_1">
   <path d="M 0 319.936282 
L 452.089687 319.936282 
L 452.089687 -0 
L 0 -0 
z
" style="fill: #ffffff"/>
  </g>
  <g id="axes_1">
   <g id="patch_2">
    <path d="M 60.915938 260.321465 
L 427.695937 260.321465 
L 427.695937 30.045 
L 60.915938 30.045 
z
" style="fill: #ffffff"/>
   </g>
   <g id="PolyCollection_1">
    <defs>
     <path id="m504519415a" d="M 98.326318 -72.117866 
L 84.635557 -72.117866 
L 83.753267 -73.285553 
L 82.83171 -74.453239 
L 81.879818 -75.620926 
L 80.907448 -76.788613 
L 79.925168 -77.956299 
L 78.944046 -79.123986 
L 77.975448 -80.291672 
L 77.030856 -81.459359 
L 76.121697 -82.627046 
L 75.259188 -83.794732 
L 74.454167 -84.962419 
L 73.716926 -86.130106 
L 73.057014 -87.297792 
L 72.483022 -88.465479 
L 72.002338 -89.633165 
L 71.620896 -90.800852 
L 71.342915 -91.968539 
L 71.170662 -93.136225 
L 71.104271 -94.303912 
L 71.141617 -95.471599 
L 71.278306 -96.639285 
L 71.507762 -97.806972 
L 71.821451 -98.974658 
L 72.209211 -100.142345 
L 72.659697 -101.310032 
L 73.160892 -102.477718 
L 73.700661 -103.645405 
L 74.267304 -104.813092 
L 74.850054 -105.980778 
L 75.439491 -107.148465 
L 76.027837 -108.316151 
L 76.609101 -109.483838 
L 77.179095 -110.651525 
L 77.735293 -111.819211 
L 78.276587 -112.986898 
L 78.802955 -114.154585 
L 79.315079 -115.322271 
L 79.81396 -116.489958 
L 80.300563 -117.657645 
L 80.775523 -118.825331 
L 81.238939 -119.993018 
L 81.690264 -121.160704 
L 82.128297 -122.328391 
L 82.551264 -123.496078 
L 82.956981 -124.663764 
L 83.343069 -125.831451 
L 83.707194 -126.999138 
L 84.047312 -128.166824 
L 84.36189 -129.334511 
L 84.650086 -130.502197 
L 84.911858 -131.669884 
L 85.148019 -132.837571 
L 85.360211 -134.005257 
L 85.550819 -135.172944 
L 85.722829 -136.340631 
L 85.879644 -137.508317 
L 86.024874 -138.676004 
L 86.162131 -139.84369 
L 86.294819 -141.011377 
L 86.42596 -142.179064 
L 86.558057 -143.34675 
L 86.692995 -144.514437 
L 86.832006 -145.682124 
L 86.975671 -146.84981 
L 87.123975 -148.017497 
L 87.276402 -149.185183 
L 87.43206 -150.35287 
L 87.589818 -151.520557 
L 87.748449 -152.688243 
L 87.906768 -153.85593 
L 88.063735 -155.023617 
L 88.218535 -156.191303 
L 88.370616 -157.35899 
L 88.519686 -158.526676 
L 88.665675 -159.694363 
L 88.808658 -160.86205 
L 88.948771 -162.029736 
L 89.086107 -163.197423 
L 89.220627 -164.36511 
L 89.35209 -165.532796 
L 89.480015 -166.700483 
L 89.603674 -167.868169 
L 89.722139 -169.035856 
L 89.834352 -170.203543 
L 89.939232 -171.371229 
L 90.035795 -172.538916 
L 90.123277 -173.706603 
L 90.201245 -174.874289 
L 90.269679 -176.041976 
L 90.329014 -177.209662 
L 90.38014 -178.377349 
L 90.424354 -179.545036 
L 90.463271 -180.712722 
L 90.4987 -181.880409 
L 90.532508 -183.048096 
L 90.566469 -184.215782 
L 90.60213 -185.383469 
L 90.640702 -186.551155 
L 90.682983 -187.718842 
L 92.278892 -187.718842 
L 92.278892 -187.718842 
L 92.321173 -186.551155 
L 92.359745 -185.383469 
L 92.395406 -184.215782 
L 92.429367 -183.048096 
L 92.463175 -181.880409 
L 92.498604 -180.712722 
L 92.537521 -179.545036 
L 92.581735 -178.377349 
L 92.632861 -177.209662 
L 92.692196 -176.041976 
L 92.76063 -174.874289 
L 92.838598 -173.706603 
L 92.92608 -172.538916 
L 93.022643 -171.371229 
L 93.127523 -170.203543 
L 93.239736 -169.035856 
L 93.358201 -167.868169 
L 93.48186 -166.700483 
L 93.609785 -165.532796 
L 93.741248 -164.36511 
L 93.875768 -163.197423 
L 94.013104 -162.029736 
L 94.153217 -160.86205 
L 94.2962 -159.694363 
L 94.442189 -158.526676 
L 94.591259 -157.35899 
L 94.74334 -156.191303 
L 94.89814 -155.023617 
L 95.055107 -153.85593 
L 95.213426 -152.688243 
L 95.372057 -151.520557 
L 95.529815 -150.35287 
L 95.685473 -149.185183 
L 95.8379 -148.017497 
L 95.986204 -146.84981 
L 96.129869 -145.682124 
L 96.26888 -144.514437 
L 96.403818 -143.34675 
L 96.535915 -142.179064 
L 96.667056 -141.011377 
L 96.799744 -139.84369 
L 96.937001 -138.676004 
L 97.082231 -137.508317 
L 97.239046 -136.340631 
L 97.411056 -135.172944 
L 97.601664 -134.005257 
L 97.813856 -132.837571 
L 98.050017 -131.669884 
L 98.311789 -130.502197 
L 98.599985 -129.334511 
L 98.914563 -128.166824 
L 99.254681 -126.999138 
L 99.618806 -125.831451 
L 100.004894 -124.663764 
L 100.410611 -123.496078 
L 100.833578 -122.328391 
L 101.271611 -121.160704 
L 101.722936 -119.993018 
L 102.186352 -118.825331 
L 102.661312 -117.657645 
L 103.147915 -116.489958 
L 103.646796 -115.322271 
L 104.15892 -114.154585 
L 104.685288 -112.986898 
L 105.226582 -111.819211 
L 105.78278 -110.651525 
L 106.352774 -109.483838 
L 106.934038 -108.316151 
L 107.522384 -107.148465 
L 108.111821 -105.980778 
L 108.694571 -104.813092 
L 109.261214 -103.645405 
L 109.800983 -102.477718 
L 110.302178 -101.310032 
L 110.752664 -100.142345 
L 111.140424 -98.974658 
L 111.454113 -97.806972 
L 111.683569 -96.639285 
L 111.820258 -95.471599 
L 111.857604 -94.303912 
L 111.791213 -93.136225 
L 111.61896 -91.968539 
L 111.340979 -90.800852 
L 110.959537 -89.633165 
L 110.478853 -88.465479 
L 109.904861 -87.297792 
L 109.244949 -86.130106 
L 108.507708 -84.962419 
L 107.702687 -83.794732 
L 106.840178 -82.627046 
L 105.931019 -81.459359 
L 104.986427 -80.291672 
L 104.017829 -79.123986 
L 103.036707 -77.956299 
L 102.054427 -76.788613 
L 101.082057 -75.620926 
L 100.130165 -74.453239 
L 99.208608 -73.285553 
L 98.326318 -72.117866 
z
" style="stroke: #000000; stroke-opacity: 0.7"/>
    </defs>
    <g clip-path="url(#pee111bda8c)">
     <use xlink:href="#m504519415a" x="0" y="319.936282" style="fill: #e5c494; fill-opacity: 0.7; stroke: #000000; stroke-opacity: 0.7"/>
    </g>
   </g>
   <g id="PolyCollection_2">
    <defs>
     <path id="m6faf065696" d="M 159.003704 -75.743132 
L 146.218171 -75.743132 
L 145.493242 -76.8546 
L 144.759016 -77.966069 
L 144.023525 -79.077538 
L 143.293911 -80.189007 
L 142.576049 -81.300476 
L 141.874303 -82.411945 
L 141.191399 -83.523414 
L 140.528456 -84.634882 
L 139.885149 -85.746351 
L 139.26001 -86.85782 
L 138.65082 -87.969289 
L 138.055076 -89.080758 
L 137.4705 -90.192227 
L 136.895527 -91.303695 
L 136.329772 -92.415164 
L 135.7744 -93.526633 
L 135.232396 -94.638102 
L 134.708687 -95.749571 
L 134.210103 -96.86104 
L 133.745174 -97.972509 
L 133.323754 -99.083977 
L 132.956505 -100.195446 
L 132.654267 -101.306915 
L 132.427369 -102.418384 
L 132.284939 -103.529853 
L 132.234271 -104.641322 
L 132.280319 -105.75279 
L 132.425356 -106.864259 
L 132.668826 -107.975728 
L 133.007411 -109.087197 
L 133.435286 -110.198666 
L 133.944518 -111.310135 
L 134.525576 -112.421604 
L 135.167872 -113.533072 
L 135.860279 -114.644541 
L 136.591584 -115.75601 
L 137.350826 -116.867479 
L 138.127515 -117.978948 
L 138.911742 -119.090417 
L 139.694192 -120.201885 
L 140.46611 -121.313354 
L 141.219249 -122.424823 
L 141.945848 -123.536292 
L 142.638656 -124.647761 
L 143.291031 -125.75923 
L 143.897104 -126.870699 
L 144.451986 -127.982167 
L 144.952013 -129.093636 
L 145.39497 -130.205105 
L 145.780276 -131.316574 
L 146.109094 -132.428043 
L 146.384345 -133.539512 
L 146.610612 -134.65098 
L 146.79394 -135.762449 
L 146.941537 -136.873918 
L 147.061403 -137.985387 
L 147.161916 -139.096856 
L 147.251396 -140.208325 
L 147.3377 -141.319794 
L 147.427848 -142.431262 
L 147.52773 -143.542731 
L 147.641888 -144.6542 
L 147.7734 -145.765669 
L 147.92385 -146.877138 
L 148.093383 -147.988607 
L 148.280836 -149.100075 
L 148.483926 -150.211544 
L 148.699472 -151.323013 
L 148.923649 -152.434482 
L 149.152241 -153.545951 
L 149.38089 -154.65742 
L 149.605333 -155.768889 
L 149.821606 -156.880357 
L 150.026225 -157.991826 
L 150.21632 -159.103295 
L 150.389738 -160.214764 
L 150.545092 -161.326233 
L 150.681776 -162.437702 
L 150.799928 -163.54917 
L 150.900352 -164.660639 
L 150.984415 -165.772108 
L 151.053911 -166.883577 
L 151.110924 -167.995046 
L 151.157679 -169.106515 
L 151.196417 -170.217984 
L 151.229289 -171.329452 
L 151.258277 -172.440921 
L 151.285149 -173.55239 
L 151.31144 -174.663859 
L 151.338456 -175.775328 
L 151.367289 -176.886797 
L 151.398845 -177.998265 
L 151.433852 -179.109734 
L 151.472877 -180.221203 
L 151.51632 -181.332672 
L 151.564399 -182.444141 
L 151.617136 -183.55561 
L 151.674336 -184.667079 
L 151.735576 -185.778547 
L 153.486299 -185.778547 
L 153.486299 -185.778547 
L 153.547539 -184.667079 
L 153.604739 -183.55561 
L 153.657476 -182.444141 
L 153.705555 -181.332672 
L 153.748998 -180.221203 
L 153.788023 -179.109734 
L 153.82303 -177.998265 
L 153.854586 -176.886797 
L 153.883419 -175.775328 
L 153.910435 -174.663859 
L 153.936726 -173.55239 
L 153.963598 -172.440921 
L 153.992586 -171.329452 
L 154.025458 -170.217984 
L 154.064196 -169.106515 
L 154.110951 -167.995046 
L 154.167964 -166.883577 
L 154.23746 -165.772108 
L 154.321523 -164.660639 
L 154.421947 -163.54917 
L 154.540099 -162.437702 
L 154.676783 -161.326233 
L 154.832137 -160.214764 
L 155.005555 -159.103295 
L 155.19565 -157.991826 
L 155.400269 -156.880357 
L 155.616542 -155.768889 
L 155.840985 -154.65742 
L 156.069634 -153.545951 
L 156.298226 -152.434482 
L 156.522403 -151.323013 
L 156.737949 -150.211544 
L 156.941039 -149.100075 
L 157.128492 -147.988607 
L 157.298025 -146.877138 
L 157.448475 -145.765669 
L 157.579987 -144.6542 
L 157.694145 -143.542731 
L 157.794027 -142.431262 
L 157.884175 -141.319794 
L 157.970479 -140.208325 
L 158.059959 -139.096856 
L 158.160472 -137.985387 
L 158.280338 -136.873918 
L 158.427935 -135.762449 
L 158.611263 -134.65098 
L 158.83753 -133.539512 
L 159.112781 -132.428043 
L 159.441599 -131.316574 
L 159.826905 -130.205105 
L 160.269862 -129.093636 
L 160.769889 -127.982167 
L 161.324771 -126.870699 
L 161.930844 -125.75923 
L 162.583219 -124.647761 
L 163.276027 -123.536292 
L 164.002626 -122.424823 
L 164.755765 -121.313354 
L 165.527683 -120.201885 
L 166.310133 -119.090417 
L 167.09436 -117.978948 
L 167.871049 -116.867479 
L 168.630291 -115.75601 
L 169.361596 -114.644541 
L 170.054003 -113.533072 
L 170.696299 -112.421604 
L 171.277357 -111.310135 
L 171.786589 -110.198666 
L 172.214464 -109.087197 
L 172.553049 -107.975728 
L 172.796519 -106.864259 
L 172.941556 -105.75279 
L 172.987604 -104.641322 
L 172.936936 -103.529853 
L 172.794506 -102.418384 
L 172.567608 -101.306915 
L 172.26537 -100.195446 
L 171.898121 -99.083977 
L 171.476701 -97.972509 
L 171.011772 -96.86104 
L 170.513188 -95.749571 
L 169.989479 -94.638102 
L 169.447475 -93.526633 
L 168.892103 -92.415164 
L 168.326348 -91.303695 
L 167.751375 -90.192227 
L 167.166799 -89.080758 
L 166.571055 -87.969289 
L 165.961865 -86.85782 
L 165.336726 -85.746351 
L 164.693419 -84.634882 
L 164.030476 -83.523414 
L 163.347572 -82.411945 
L 162.645826 -81.300476 
L 161.927964 -80.189007 
L 161.19835 -79.077538 
L 160.462859 -77.966069 
L 159.728633 -76.8546 
L 159.003704 -75.743132 
z
" style="stroke: #000000; stroke-opacity: 0.7"/>
    </defs>
    <g clip-path="url(#pee111bda8c)">
     <use xlink:href="#m6faf065696" x="0" y="319.936282" style="fill: #b3b3b3; fill-opacity: 0.7; stroke: #000000; stroke-opacity: 0.7"/>
    </g>
   </g>
   <g id="PolyCollection_3">
    <defs>
     <path id="mc0d03c695b" d="M 221.875227 -71.909948 
L 205.606648 -71.909948 
L 203.957493 -74.006051 
L 202.259598 -76.102154 
L 200.577057 -78.198257 
L 198.974597 -80.294361 
L 197.511367 -82.390464 
L 196.235752 -84.486567 
L 195.181989 -86.58267 
L 194.368994 -88.678774 
L 193.801306 -90.774877 
L 193.471635 -92.87098 
L 193.364271 -94.967084 
L 193.458492 -97.063187 
L 193.731315 -99.15929 
L 194.15919 -101.255393 
L 194.71866 -103.351497 
L 195.386318 -105.4476 
L 196.138572 -107.543703 
L 196.951753 -109.639806 
L 197.802835 -111.73591 
L 198.670762 -113.832013 
L 199.538054 -115.928116 
L 200.39217 -118.024219 
L 201.226131 -120.120323 
L 202.038116 -122.216426 
L 202.830026 -124.312529 
L 203.605361 -126.408632 
L 204.36691 -128.504736 
L 205.114823 -130.600839 
L 205.845475 -132.696942 
L 206.551352 -134.793045 
L 207.22191 -136.889149 
L 207.845196 -138.985252 
L 208.409887 -141.081355 
L 208.907343 -143.177458 
L 209.333306 -145.273562 
L 209.688903 -147.369665 
L 209.980754 -149.465768 
L 210.220144 -151.561872 
L 210.421407 -153.657975 
L 210.599862 -155.754078 
L 210.769733 -157.850181 
L 210.942453 -159.946285 
L 211.125652 -162.042388 
L 211.322907 -164.138491 
L 211.534147 -166.234594 
L 211.756474 -168.330698 
L 211.98514 -170.426801 
L 212.214461 -172.522904 
L 212.438555 -174.619007 
L 212.651889 -176.715111 
L 212.849666 -178.811214 
L 213.028096 -180.907317 
L 213.18459 -183.00342 
L 213.317856 -185.099524 
L 213.427897 -187.195627 
L 213.515883 -189.29173 
L 213.583924 -191.387833 
L 213.634755 -193.483937 
L 213.671404 -195.58004 
L 213.696887 -197.676143 
L 213.71396 -199.772246 
L 213.724979 -201.86835 
L 213.731823 -203.964453 
L 213.735915 -206.060556 
L 213.738269 -208.156659 
L 213.73957 -210.252763 
L 213.740263 -212.348866 
L 213.740616 -214.444969 
L 213.74079 -216.541073 
L 213.740873 -218.637176 
L 213.74091 -220.733279 
L 213.740926 -222.829382 
L 213.740932 -224.925486 
L 213.740934 -227.021589 
L 213.740933 -229.117692 
L 213.740926 -231.213795 
L 213.740911 -233.309899 
L 213.740875 -235.406002 
L 213.740798 -237.502105 
L 213.740636 -239.598208 
L 213.740314 -241.694312 
L 213.739695 -243.790415 
L 213.738559 -245.886518 
L 213.736558 -247.982621 
L 213.733186 -250.078725 
L 213.727748 -252.174828 
L 213.719361 -254.270931 
L 213.707004 -256.367034 
L 213.689631 -258.463138 
L 213.666358 -260.559241 
L 213.636713 -262.655344 
L 213.600907 -264.751447 
L 213.560066 -266.847551 
L 213.516332 -268.943654 
L 213.472792 -271.039757 
L 213.433172 -273.13586 
L 213.401336 -275.231964 
L 213.380675 -277.328067 
L 213.373512 -279.42417 
L 214.108363 -279.42417 
L 214.108363 -279.42417 
L 214.1012 -277.328067 
L 214.080539 -275.231964 
L 214.048703 -273.13586 
L 214.009083 -271.039757 
L 213.965543 -268.943654 
L 213.921809 -266.847551 
L 213.880968 -264.751447 
L 213.845162 -262.655344 
L 213.815517 -260.559241 
L 213.792244 -258.463138 
L 213.774871 -256.367034 
L 213.762514 -254.270931 
L 213.754127 -252.174828 
L 213.748689 -250.078725 
L 213.745317 -247.982621 
L 213.743316 -245.886518 
L 213.74218 -243.790415 
L 213.741561 -241.694312 
L 213.741239 -239.598208 
L 213.741077 -237.502105 
L 213.741 -235.406002 
L 213.740964 -233.309899 
L 213.740949 -231.213795 
L 213.740942 -229.117692 
L 213.740941 -227.021589 
L 213.740943 -224.925486 
L 213.740949 -222.829382 
L 213.740965 -220.733279 
L 213.741002 -218.637176 
L 213.741085 -216.541073 
L 213.741259 -214.444969 
L 213.741612 -212.348866 
L 213.742305 -210.252763 
L 213.743606 -208.156659 
L 213.74596 -206.060556 
L 213.750052 -203.964453 
L 213.756896 -201.86835 
L 213.767915 -199.772246 
L 213.784988 -197.676143 
L 213.810471 -195.58004 
L 213.84712 -193.483937 
L 213.897951 -191.387833 
L 213.965992 -189.29173 
L 214.053978 -187.195627 
L 214.164019 -185.099524 
L 214.297285 -183.00342 
L 214.453779 -180.907317 
L 214.632209 -178.811214 
L 214.829986 -176.715111 
L 215.04332 -174.619007 
L 215.267414 -172.522904 
L 215.496735 -170.426801 
L 215.725401 -168.330698 
L 215.947728 -166.234594 
L 216.158968 -164.138491 
L 216.356223 -162.042388 
L 216.539422 -159.946285 
L 216.712142 -157.850181 
L 216.882013 -155.754078 
L 217.060468 -153.657975 
L 217.261731 -151.561872 
L 217.501121 -149.465768 
L 217.792972 -147.369665 
L 218.148569 -145.273562 
L 218.574532 -143.177458 
L 219.071988 -141.081355 
L 219.636679 -138.985252 
L 220.259965 -136.889149 
L 220.930523 -134.793045 
L 221.6364 -132.696942 
L 222.367052 -130.600839 
L 223.114965 -128.504736 
L 223.876514 -126.408632 
L 224.651849 -124.312529 
L 225.443759 -122.216426 
L 226.255744 -120.120323 
L 227.089705 -118.024219 
L 227.943821 -115.928116 
L 228.811113 -113.832013 
L 229.67904 -111.73591 
L 230.530122 -109.639806 
L 231.343303 -107.543703 
L 232.095557 -105.4476 
L 232.763215 -103.351497 
L 233.322685 -101.255393 
L 233.75056 -99.15929 
L 234.023383 -97.063187 
L 234.117604 -94.967084 
L 234.01024 -92.87098 
L 233.680569 -90.774877 
L 233.112881 -88.678774 
L 232.299886 -86.58267 
L 231.246123 -84.486567 
L 229.970508 -82.390464 
L 228.507278 -80.294361 
L 226.904818 -78.198257 
L 225.222277 -76.102154 
L 223.524382 -74.006051 
L 221.875227 -71.909948 
z
" style="stroke: #000000; stroke-opacity: 0.7"/>
    </defs>
    <g clip-path="url(#pee111bda8c)">
     <use xlink:href="#mc0d03c695b" x="0" y="319.936282" style="fill: #9467bd; fill-opacity: 0.7; stroke: #000000; stroke-opacity: 0.7"/>
    </g>
   </g>
   <g id="PolyCollection_4">
    <defs>
     <path id="m8267119ec4" d="M 283.103846 -75.204207 
L 266.638029 -75.204207 
L 265.696239 -76.896629 
L 264.775807 -78.589052 
L 263.890375 -80.281474 
L 263.04916 -81.973896 
L 262.256369 -83.666319 
L 261.511247 -85.358741 
L 260.808753 -87.051163 
L 260.140821 -88.743585 
L 259.498043 -90.436008 
L 258.8716 -92.12843 
L 258.255181 -93.820852 
L 257.646663 -95.513275 
L 257.049316 -97.205697 
L 256.472349 -98.898119 
L 255.930684 -100.590542 
L 255.443949 -102.282964 
L 255.034748 -103.975386 
L 254.726415 -105.667809 
L 254.540491 -107.360231 
L 254.494271 -109.052653 
L 254.598709 -110.745075 
L 254.857001 -112.437498 
L 255.264005 -114.12992 
L 255.806606 -115.822342 
L 256.464938 -117.514765 
L 257.214315 -119.207187 
L 258.027575 -120.899609 
L 258.877536 -122.592032 
L 259.739246 -124.284454 
L 260.591762 -125.976876 
L 261.419283 -127.669298 
L 262.211579 -129.361721 
L 262.96372 -131.054143 
L 263.675266 -132.746565 
L 264.349061 -134.438988 
L 264.989878 -136.13141 
L 265.603096 -137.823832 
L 266.193575 -139.516255 
L 266.76487 -141.208677 
L 267.318794 -142.901099 
L 267.85536 -144.593521 
L 268.373007 -146.285944 
L 268.869038 -147.978366 
L 269.34016 -149.670788 
L 269.783014 -151.363211 
L 270.194635 -153.055633 
L 270.572776 -154.748055 
L 270.916088 -156.440478 
L 271.22416 -158.1329 
L 271.497458 -159.825322 
L 271.737192 -161.517745 
L 271.945169 -163.210167 
L 272.123647 -164.902589 
L 272.275229 -166.595011 
L 272.402789 -168.287434 
L 272.509431 -169.979856 
L 272.598462 -171.672278 
L 272.673359 -173.364701 
L 272.737714 -175.057123 
L 272.795151 -176.749545 
L 272.849199 -178.441968 
L 272.903138 -180.13439 
L 272.959828 -181.826812 
L 273.021544 -183.519234 
L 273.089835 -185.211657 
L 273.165437 -186.904079 
L 273.248249 -188.596501 
L 273.337393 -190.288924 
L 273.431347 -191.981346 
L 273.528145 -193.673768 
L 273.625626 -195.366191 
L 273.721682 -197.058613 
L 273.814496 -198.751035 
L 273.902705 -200.443457 
L 273.985501 -202.13588 
L 274.062623 -203.828302 
L 274.13427 -205.520724 
L 274.200947 -207.213147 
L 274.263274 -208.905569 
L 274.321789 -210.597991 
L 274.376791 -212.290414 
L 274.42824 -213.982836 
L 274.475727 -215.675258 
L 274.518515 -217.367681 
L 274.555649 -219.060103 
L 274.5861 -220.752525 
L 274.608938 -222.444947 
L 274.62349 -224.13737 
L 274.629486 -225.829792 
L 274.627157 -227.522214 
L 274.61728 -229.214637 
L 274.601175 -230.907059 
L 274.580633 -232.599481 
L 274.557794 -234.291904 
L 274.53499 -235.984326 
L 274.514546 -237.676748 
L 274.498587 -239.36917 
L 274.488849 -241.061593 
L 274.486533 -242.754015 
L 275.255342 -242.754015 
L 275.255342 -242.754015 
L 275.253026 -241.061593 
L 275.243288 -239.36917 
L 275.227329 -237.676748 
L 275.206885 -235.984326 
L 275.184081 -234.291904 
L 275.161242 -232.599481 
L 275.1407 -230.907059 
L 275.124595 -229.214637 
L 275.114718 -227.522214 
L 275.112389 -225.829792 
L 275.118385 -224.13737 
L 275.132937 -222.444947 
L 275.155775 -220.752525 
L 275.186226 -219.060103 
L 275.22336 -217.367681 
L 275.266148 -215.675258 
L 275.313635 -213.982836 
L 275.365084 -212.290414 
L 275.420086 -210.597991 
L 275.478601 -208.905569 
L 275.540928 -207.213147 
L 275.607605 -205.520724 
L 275.679252 -203.828302 
L 275.756374 -202.13588 
L 275.83917 -200.443457 
L 275.927379 -198.751035 
L 276.020193 -197.058613 
L 276.116249 -195.366191 
L 276.21373 -193.673768 
L 276.310528 -191.981346 
L 276.404482 -190.288924 
L 276.493626 -188.596501 
L 276.576438 -186.904079 
L 276.65204 -185.211657 
L 276.720331 -183.519234 
L 276.782047 -181.826812 
L 276.838737 -180.13439 
L 276.892676 -178.441968 
L 276.946724 -176.749545 
L 277.004161 -175.057123 
L 277.068516 -173.364701 
L 277.143413 -171.672278 
L 277.232444 -169.979856 
L 277.339086 -168.287434 
L 277.466646 -166.595011 
L 277.618228 -164.902589 
L 277.796706 -163.210167 
L 278.004683 -161.517745 
L 278.244417 -159.825322 
L 278.517715 -158.1329 
L 278.825787 -156.440478 
L 279.169099 -154.748055 
L 279.54724 -153.055633 
L 279.958861 -151.363211 
L 280.401715 -149.670788 
L 280.872837 -147.978366 
L 281.368868 -146.285944 
L 281.886515 -144.593521 
L 282.423081 -142.901099 
L 282.977005 -141.208677 
L 283.5483 -139.516255 
L 284.138779 -137.823832 
L 284.751997 -136.13141 
L 285.392814 -134.438988 
L 286.066609 -132.746565 
L 286.778155 -131.054143 
L 287.530296 -129.361721 
L 288.322592 -127.669298 
L 289.150113 -125.976876 
L 290.002629 -124.284454 
L 290.864339 -122.592032 
L 291.7143 -120.899609 
L 292.52756 -119.207187 
L 293.276937 -117.514765 
L 293.935269 -115.822342 
L 294.47787 -114.12992 
L 294.884874 -112.437498 
L 295.143166 -110.745075 
L 295.247604 -109.052653 
L 295.201384 -107.360231 
L 295.01546 -105.667809 
L 294.707127 -103.975386 
L 294.297926 -102.282964 
L 293.811191 -100.590542 
L 293.269526 -98.898119 
L 292.692559 -97.205697 
L 292.095212 -95.513275 
L 291.486694 -93.820852 
L 290.870275 -92.12843 
L 290.243832 -90.436008 
L 289.601054 -88.743585 
L 288.933122 -87.051163 
L 288.230628 -85.358741 
L 287.485506 -83.666319 
L 286.692715 -81.973896 
L 285.8515 -80.281474 
L 284.966068 -78.589052 
L 284.045636 -76.896629 
L 283.103846 -75.204207 
z
" style="stroke: #000000; stroke-opacity: 0.7"/>
    </defs>
    <g clip-path="url(#pee111bda8c)">
     <use xlink:href="#m8267119ec4" x="0" y="319.936282" style="fill: #c49c94; fill-opacity: 0.7; stroke: #000000; stroke-opacity: 0.7"/>
    </g>
   </g>
   <g id="PolyCollection_5">
    <defs>
     <path id="mcd32ee184c" d="M 343.976754 -74.860726 
L 328.025121 -74.860726 
L 327.160584 -75.706177 
L 326.277792 -76.551628 
L 325.386057 -77.397078 
L 324.494888 -78.242529 
L 323.613703 -79.08798 
L 322.751561 -79.933431 
L 321.916923 -80.778882 
L 321.117456 -81.624333 
L 320.359889 -82.469784 
L 319.649913 -83.315235 
L 318.992144 -84.160686 
L 318.390126 -85.006136 
L 317.846379 -85.851587 
L 317.362488 -86.697038 
L 316.939212 -87.542489 
L 316.576613 -88.38794 
L 316.274194 -89.233391 
L 316.031033 -90.078842 
L 315.845911 -90.924293 
L 315.71742 -91.769744 
L 315.644054 -92.615194 
L 315.624271 -93.460645 
L 315.656529 -94.306096 
L 315.739298 -95.151547 
L 315.871049 -95.996998 
L 316.050218 -96.842449 
L 316.275165 -97.6879 
L 316.54412 -98.533351 
L 316.855132 -99.378801 
L 317.206019 -100.224252 
L 317.594332 -101.069703 
L 318.017323 -101.915154 
L 318.471931 -102.760605 
L 318.954778 -103.606056 
L 319.462178 -104.451507 
L 319.990148 -105.296958 
L 320.534434 -106.142409 
L 321.090536 -106.987859 
L 321.65375 -107.83331 
L 322.219202 -108.678761 
L 322.781909 -109.524212 
L 323.336835 -110.369663 
L 323.878969 -111.215114 
L 324.403415 -112.060565 
L 324.905494 -112.906016 
L 325.380857 -113.751467 
L 325.825604 -114.596917 
L 326.23641 -115.442368 
L 326.610637 -116.287819 
L 326.946443 -117.13327 
L 327.242869 -117.978721 
L 327.499894 -118.824172 
L 327.718468 -119.669623 
L 327.900505 -120.515074 
L 328.048834 -121.360524 
L 328.167125 -122.205975 
L 328.259765 -123.051426 
L 328.331718 -123.896877 
L 328.388351 -124.742328 
L 328.435249 -125.587779 
L 328.478024 -126.43323 
L 328.522115 -127.278681 
L 328.572618 -128.124132 
L 328.634114 -128.969582 
L 328.710533 -129.815033 
L 328.805053 -130.660484 
L 328.920019 -131.505935 
L 329.056911 -132.351386 
L 329.216338 -133.196837 
L 329.398068 -134.042288 
L 329.601084 -134.887739 
L 329.823667 -135.73319 
L 330.063499 -136.57864 
L 330.317773 -137.424091 
L 330.583326 -138.269542 
L 330.856759 -139.114993 
L 331.134578 -139.960444 
L 331.413309 -140.805895 
L 331.689627 -141.651346 
L 331.960456 -142.496797 
L 332.223067 -143.342247 
L 332.47515 -144.187698 
L 332.714871 -145.033149 
L 332.940904 -145.8786 
L 333.152441 -146.724051 
L 333.349175 -147.569502 
L 333.531269 -148.414953 
L 333.699297 -149.260404 
L 333.854174 -150.105855 
L 333.997076 -150.951305 
L 334.12935 -151.796756 
L 334.252427 -152.642207 
L 334.367738 -153.487658 
L 334.476636 -154.333109 
L 334.580334 -155.17856 
L 334.67986 -156.024011 
L 334.776018 -156.869462 
L 334.869378 -157.714912 
L 334.960275 -158.560363 
L 337.0416 -158.560363 
L 337.0416 -158.560363 
L 337.132497 -157.714912 
L 337.225857 -156.869462 
L 337.322015 -156.024011 
L 337.421541 -155.17856 
L 337.525239 -154.333109 
L 337.634137 -153.487658 
L 337.749448 -152.642207 
L 337.872525 -151.796756 
L 338.004799 -150.951305 
L 338.147701 -150.105855 
L 338.302578 -149.260404 
L 338.470606 -148.414953 
L 338.6527 -147.569502 
L 338.849434 -146.724051 
L 339.060971 -145.8786 
L 339.287004 -145.033149 
L 339.526725 -144.187698 
L 339.778808 -143.342247 
L 340.041419 -142.496797 
L 340.312248 -141.651346 
L 340.588566 -140.805895 
L 340.867297 -139.960444 
L 341.145116 -139.114993 
L 341.418549 -138.269542 
L 341.684102 -137.424091 
L 341.938376 -136.57864 
L 342.178208 -135.73319 
L 342.400791 -134.887739 
L 342.603807 -134.042288 
L 342.785537 -133.196837 
L 342.944964 -132.351386 
L 343.081856 -131.505935 
L 343.196822 -130.660484 
L 343.291342 -129.815033 
L 343.367761 -128.969582 
L 343.429257 -128.124132 
L 343.47976 -127.278681 
L 343.523851 -126.43323 
L 343.566626 -125.587779 
L 343.613524 -124.742328 
L 343.670157 -123.896877 
L 343.74211 -123.051426 
L 343.83475 -122.205975 
L 343.953041 -121.360524 
L 344.10137 -120.515074 
L 344.283407 -119.669623 
L 344.501981 -118.824172 
L 344.759006 -117.978721 
L 345.055432 -117.13327 
L 345.391238 -116.287819 
L 345.765465 -115.442368 
L 346.176271 -114.596917 
L 346.621018 -113.751467 
L 347.096381 -112.906016 
L 347.59846 -112.060565 
L 348.122906 -111.215114 
L 348.66504 -110.369663 
L 349.219966 -109.524212 
L 349.782673 -108.678761 
L 350.348125 -107.83331 
L 350.911339 -106.987859 
L 351.467441 -106.142409 
L 352.011727 -105.296958 
L 352.539697 -104.451507 
L 353.047097 -103.606056 
L 353.529944 -102.760605 
L 353.984552 -101.915154 
L 354.407543 -101.069703 
L 354.795856 -100.224252 
L 355.146743 -99.378801 
L 355.457755 -98.533351 
L 355.72671 -97.6879 
L 355.951657 -96.842449 
L 356.130826 -95.996998 
L 356.262577 -95.151547 
L 356.345346 -94.306096 
L 356.377604 -93.460645 
L 356.357821 -92.615194 
L 356.284455 -91.769744 
L 356.155964 -90.924293 
L 355.970842 -90.078842 
L 355.727681 -89.233391 
L 355.425262 -88.38794 
L 355.062663 -87.542489 
L 354.639387 -86.697038 
L 354.155496 -85.851587 
L 353.611749 -85.006136 
L 353.009731 -84.160686 
L 352.351962 -83.315235 
L 351.641986 -82.469784 
L 350.884419 -81.624333 
L 350.084952 -80.778882 
L 349.250314 -79.933431 
L 348.388172 -79.08798 
L 347.506987 -78.242529 
L 346.615818 -77.397078 
L 345.724083 -76.551628 
L 344.841291 -75.706177 
L 343.976754 -74.860726 
z
" style="stroke: #000000; stroke-opacity: 0.7"/>
    </defs>
    <g clip-path="url(#pee111bda8c)">
     <use xlink:href="#mcd32ee184c" x="0" y="319.936282" style="fill: #fc8d62; fill-opacity: 0.7; stroke: #000000; stroke-opacity: 0.7"/>
    </g>
   </g>
   <g id="PolyCollection_6">
    <defs>
     <path id="m166d71072e" d="M 405.660304 -70.081929 
L 388.601571 -70.081929 
L 387.476289 -71.639301 
L 386.344158 -73.196673 
L 385.225078 -74.754045 
L 384.137105 -76.311417 
L 383.095584 -77.868789 
L 382.112707 -79.426161 
L 381.197529 -80.983533 
L 380.356388 -82.540905 
L 379.593645 -84.098276 
L 378.912565 -85.655648 
L 378.316184 -87.21302 
L 377.807994 -88.770392 
L 377.392325 -90.327764 
L 377.074362 -91.885136 
L 376.859811 -93.442508 
L 376.754271 -94.99988 
L 376.762438 -96.557252 
L 376.887277 -98.114624 
L 377.129287 -99.671996 
L 377.485983 -101.229368 
L 377.951657 -102.78674 
L 378.517428 -104.344112 
L 379.171575 -105.901484 
L 379.900079 -107.458856 
L 380.687314 -109.016228 
L 381.516785 -110.573599 
L 382.371872 -112.130971 
L 383.2365 -113.688343 
L 384.095715 -115.245715 
L 384.936143 -116.803087 
L 385.746327 -118.360459 
L 386.516946 -119.917831 
L 387.240919 -121.475203 
L 387.913402 -123.032575 
L 388.531704 -124.589947 
L 389.095121 -126.147319 
L 389.604709 -127.704691 
L 390.063024 -129.262063 
L 390.473836 -130.819435 
L 390.841835 -132.376807 
L 391.172338 -133.934179 
L 391.471002 -135.491551 
L 391.743539 -137.048922 
L 391.995448 -138.606294 
L 392.231745 -140.163666 
L 392.456733 -141.721038 
L 392.673802 -143.27841 
L 392.885305 -144.835782 
L 393.092521 -146.393154 
L 393.29572 -147.950526 
L 393.494346 -149.507898 
L 393.687277 -151.06527 
L 393.873158 -152.622642 
L 394.050736 -154.180014 
L 394.219168 -155.737386 
L 394.378238 -157.294758 
L 394.528467 -158.85213 
L 394.671092 -160.409502 
L 394.807926 -161.966874 
L 394.941131 -163.524245 
L 395.072932 -165.081617 
L 395.205326 -166.638989 
L 395.33982 -168.196361 
L 395.477247 -169.753733 
L 395.617658 -171.311105 
L 395.760316 -172.868477 
L 395.903784 -174.425849 
L 396.046077 -175.983221 
L 396.184873 -177.540593 
L 396.317733 -179.097965 
L 396.442322 -180.655337 
L 396.556592 -182.212709 
L 396.658914 -183.770081 
L 396.74815 -185.327453 
L 396.82366 -186.884825 
L 396.885265 -188.442197 
L 396.933158 -189.999568 
L 396.967806 -191.55694 
L 396.98985 -193.114312 
L 397.000017 -194.671684 
L 396.999063 -196.229056 
L 396.987761 -197.786428 
L 396.966909 -199.3438 
L 396.937377 -200.901172 
L 396.900166 -202.458544 
L 396.856471 -204.015916 
L 396.807728 -205.573288 
L 396.755634 -207.13066 
L 396.702136 -208.688032 
L 396.64938 -210.245404 
L 396.599619 -211.802776 
L 396.555097 -213.360148 
L 396.517914 -214.91752 
L 396.489887 -216.474891 
L 396.47242 -218.032263 
L 396.466405 -219.589635 
L 396.472157 -221.147007 
L 396.489388 -222.704379 
L 396.517233 -224.261751 
L 397.744642 -224.261751 
L 397.744642 -224.261751 
L 397.772487 -222.704379 
L 397.789718 -221.147007 
L 397.79547 -219.589635 
L 397.789455 -218.032263 
L 397.771988 -216.474891 
L 397.743961 -214.91752 
L 397.706778 -213.360148 
L 397.662256 -211.802776 
L 397.612495 -210.245404 
L 397.559739 -208.688032 
L 397.506241 -207.13066 
L 397.454147 -205.573288 
L 397.405404 -204.015916 
L 397.361709 -202.458544 
L 397.324498 -200.901172 
L 397.294966 -199.3438 
L 397.274114 -197.786428 
L 397.262812 -196.229056 
L 397.261858 -194.671684 
L 397.272025 -193.114312 
L 397.294069 -191.55694 
L 397.328717 -189.999568 
L 397.37661 -188.442197 
L 397.438215 -186.884825 
L 397.513725 -185.327453 
L 397.602961 -183.770081 
L 397.705283 -182.212709 
L 397.819553 -180.655337 
L 397.944142 -179.097965 
L 398.077002 -177.540593 
L 398.215798 -175.983221 
L 398.358091 -174.425849 
L 398.501559 -172.868477 
L 398.644217 -171.311105 
L 398.784628 -169.753733 
L 398.922055 -168.196361 
L 399.056549 -166.638989 
L 399.188943 -165.081617 
L 399.320744 -163.524245 
L 399.453949 -161.966874 
L 399.590783 -160.409502 
L 399.733408 -158.85213 
L 399.883637 -157.294758 
L 400.042707 -155.737386 
L 400.211139 -154.180014 
L 400.388717 -152.622642 
L 400.574598 -151.06527 
L 400.767529 -149.507898 
L 400.966155 -147.950526 
L 401.169354 -146.393154 
L 401.37657 -144.835782 
L 401.588073 -143.27841 
L 401.805142 -141.721038 
L 402.03013 -140.163666 
L 402.266427 -138.606294 
L 402.518336 -137.048922 
L 402.790873 -135.491551 
L 403.089537 -133.934179 
L 403.42004 -132.376807 
L 403.788039 -130.819435 
L 404.198851 -129.262063 
L 404.657166 -127.704691 
L 405.166754 -126.147319 
L 405.730171 -124.589947 
L 406.348473 -123.032575 
L 407.020956 -121.475203 
L 407.744929 -119.917831 
L 408.515548 -118.360459 
L 409.325732 -116.803087 
L 410.16616 -115.245715 
L 411.025375 -113.688343 
L 411.890003 -112.130971 
L 412.74509 -110.573599 
L 413.574561 -109.016228 
L 414.361796 -107.458856 
L 415.0903 -105.901484 
L 415.744447 -104.344112 
L 416.310218 -102.78674 
L 416.775892 -101.229368 
L 417.132588 -99.671996 
L 417.374598 -98.114624 
L 417.499437 -96.557252 
L 417.507604 -94.99988 
L 417.402064 -93.442508 
L 417.187513 -91.885136 
L 416.86955 -90.327764 
L 416.453881 -88.770392 
L 415.945691 -87.21302 
L 415.34931 -85.655648 
L 414.66823 -84.098276 
L 413.905487 -82.540905 
L 413.064346 -80.983533 
L 412.149168 -79.426161 
L 411.166291 -77.868789 
L 410.12477 -76.311417 
L 409.036797 -74.754045 
L 407.917717 -73.196673 
L 406.785586 -71.639301 
L 405.660304 -70.081929 
z
" style="stroke: #000000; stroke-opacity: 0.7"/>
    </defs>
    <g clip-path="url(#pee111bda8c)">
     <use xlink:href="#m166d71072e" x="0" y="319.936282" style="fill: #bcbd22; fill-opacity: 0.7; stroke: #000000; stroke-opacity: 0.7"/>
    </g>
   </g>
   <g id="matplotlib.axis_1">
    <g id="xtick_1">
     <g id="line2d_1">
      <defs>
       <path id="mc3ee9802ff" d="M 0 0 
L 0 3.5 
" style="stroke: #000000; stroke-width: 0.8"/>
      </defs>
      <g>
       <use xlink:href="#mc3ee9802ff" x="91.480938" y="260.321465" style="stroke: #000000; stroke-width: 0.8"/>
      </g>
     </g>
     <g id="text_1">
      <!-- CoreLogic -->
      <g transform="translate(53.363463 309.499943) rotate(-45) scale(0.12 -0.12)">
       <defs>
        <path id="TimesNewRomanPSMT-43" d="M 3853 4334 
L 3950 2894 
L 3853 2894 
Q 3659 3541 3300 3825 
Q 2941 4109 2438 4109 
Q 2016 4109 1675 3895 
Q 1334 3681 1139 3212 
Q 944 2744 944 2047 
Q 944 1472 1128 1050 
Q 1313 628 1683 403 
Q 2053 178 2528 178 
Q 2941 178 3256 354 
Q 3572 531 3950 1056 
L 4047 994 
Q 3728 428 3303 165 
Q 2878 -97 2294 -97 
Q 1241 -97 663 684 
Q 231 1266 231 2053 
Q 231 2688 515 3219 
Q 800 3750 1298 4042 
Q 1797 4334 2388 4334 
Q 2847 4334 3294 4109 
Q 3425 4041 3481 4041 
Q 3566 4041 3628 4100 
Q 3709 4184 3744 4334 
L 3853 4334 
z
" transform="scale(0.015625)"/>
        <path id="TimesNewRomanPSMT-6f" d="M 1600 2947 
Q 2250 2947 2644 2453 
Q 2978 2031 2978 1484 
Q 2978 1100 2793 706 
Q 2609 313 2286 112 
Q 1963 -88 1566 -88 
Q 919 -88 538 428 
Q 216 863 216 1403 
Q 216 1797 411 2186 
Q 606 2575 925 2761 
Q 1244 2947 1600 2947 
z
M 1503 2744 
Q 1338 2744 1170 2645 
Q 1003 2547 900 2300 
Q 797 2053 797 1666 
Q 797 1041 1045 587 
Q 1294 134 1700 134 
Q 2003 134 2200 384 
Q 2397 634 2397 1244 
Q 2397 2006 2069 2444 
Q 1847 2744 1503 2744 
z
" transform="scale(0.015625)"/>
        <path id="TimesNewRomanPSMT-72" d="M 1038 2947 
L 1038 2303 
Q 1397 2947 1775 2947 
Q 1947 2947 2059 2842 
Q 2172 2738 2172 2600 
Q 2172 2478 2090 2393 
Q 2009 2309 1897 2309 
Q 1788 2309 1652 2417 
Q 1516 2525 1450 2525 
Q 1394 2525 1328 2463 
Q 1188 2334 1038 2041 
L 1038 669 
Q 1038 431 1097 309 
Q 1138 225 1241 169 
Q 1344 113 1538 113 
L 1538 0 
L 72 0 
L 72 113 
Q 291 113 397 181 
Q 475 231 506 341 
Q 522 394 522 644 
L 522 1753 
Q 522 2253 501 2348 
Q 481 2444 426 2487 
Q 372 2531 291 2531 
Q 194 2531 72 2484 
L 41 2597 
L 906 2947 
L 1038 2947 
z
" transform="scale(0.015625)"/>
        <path id="TimesNewRomanPSMT-65" d="M 681 1784 
Q 678 1147 991 784 
Q 1303 422 1725 422 
Q 2006 422 2214 576 
Q 2422 731 2563 1106 
L 2659 1044 
Q 2594 616 2278 264 
Q 1963 -88 1488 -88 
Q 972 -88 605 314 
Q 238 716 238 1394 
Q 238 2128 614 2539 
Q 991 2950 1559 2950 
Q 2041 2950 2350 2633 
Q 2659 2316 2659 1784 
L 681 1784 
z
M 681 1966 
L 2006 1966 
Q 1991 2241 1941 2353 
Q 1863 2528 1708 2628 
Q 1553 2728 1384 2728 
Q 1125 2728 920 2526 
Q 716 2325 681 1966 
z
" transform="scale(0.015625)"/>
        <path id="TimesNewRomanPSMT-4c" d="M 3669 1172 
L 3772 1150 
L 3409 0 
L 128 0 
L 128 116 
L 288 116 
Q 556 116 672 291 
Q 738 391 738 753 
L 738 3488 
Q 738 3884 650 3984 
Q 528 4122 288 4122 
L 128 4122 
L 128 4238 
L 2047 4238 
L 2047 4122 
Q 1709 4125 1573 4059 
Q 1438 3994 1388 3894 
Q 1338 3794 1338 3416 
L 1338 753 
Q 1338 494 1388 397 
Q 1425 331 1503 300 
Q 1581 269 1991 269 
L 2300 269 
Q 2788 269 2984 341 
Q 3181 413 3343 595 
Q 3506 778 3669 1172 
z
" transform="scale(0.015625)"/>
        <path id="TimesNewRomanPSMT-67" d="M 966 1044 
Q 703 1172 562 1401 
Q 422 1631 422 1909 
Q 422 2334 742 2640 
Q 1063 2947 1563 2947 
Q 1972 2947 2272 2747 
L 2878 2747 
Q 3013 2747 3034 2739 
Q 3056 2731 3066 2713 
Q 3084 2684 3084 2613 
Q 3084 2531 3069 2500 
Q 3059 2484 3036 2475 
Q 3013 2466 2878 2466 
L 2506 2466 
Q 2681 2241 2681 1891 
Q 2681 1491 2375 1206 
Q 2069 922 1553 922 
Q 1341 922 1119 984 
Q 981 866 932 777 
Q 884 688 884 625 
Q 884 572 936 522 
Q 988 472 1138 450 
Q 1225 438 1575 428 
Q 2219 413 2409 384 
Q 2700 344 2873 169 
Q 3047 -6 3047 -263 
Q 3047 -616 2716 -925 
Q 2228 -1381 1444 -1381 
Q 841 -1381 425 -1109 
Q 191 -953 191 -784 
Q 191 -709 225 -634 
Q 278 -519 444 -313 
Q 466 -284 763 25 
Q 600 122 533 198 
Q 466 275 466 372 
Q 466 481 555 628 
Q 644 775 966 1044 
z
M 1509 2797 
Q 1278 2797 1122 2612 
Q 966 2428 966 2047 
Q 966 1553 1178 1281 
Q 1341 1075 1591 1075 
Q 1828 1075 1981 1253 
Q 2134 1431 2134 1813 
Q 2134 2309 1919 2591 
Q 1759 2797 1509 2797 
z
M 934 0 
Q 788 -159 713 -296 
Q 638 -434 638 -550 
Q 638 -700 819 -813 
Q 1131 -1006 1722 -1006 
Q 2284 -1006 2551 -807 
Q 2819 -609 2819 -384 
Q 2819 -222 2659 -153 
Q 2497 -84 2016 -72 
Q 1313 -53 934 0 
z
" transform="scale(0.015625)"/>
        <path id="TimesNewRomanPSMT-69" d="M 928 4444 
Q 1059 4444 1151 4351 
Q 1244 4259 1244 4128 
Q 1244 3997 1151 3903 
Q 1059 3809 928 3809 
Q 797 3809 703 3903 
Q 609 3997 609 4128 
Q 609 4259 701 4351 
Q 794 4444 928 4444 
z
M 1188 2947 
L 1188 647 
Q 1188 378 1227 289 
Q 1266 200 1342 156 
Q 1419 113 1622 113 
L 1622 0 
L 231 0 
L 231 113 
Q 441 113 512 153 
Q 584 194 626 287 
Q 669 381 669 647 
L 669 1750 
Q 669 2216 641 2353 
Q 619 2453 572 2492 
Q 525 2531 444 2531 
Q 356 2531 231 2484 
L 188 2597 
L 1050 2947 
L 1188 2947 
z
" transform="scale(0.015625)"/>
        <path id="TimesNewRomanPSMT-63" d="M 2631 1088 
Q 2516 522 2178 217 
Q 1841 -88 1431 -88 
Q 944 -88 581 321 
Q 219 731 219 1428 
Q 219 2103 620 2525 
Q 1022 2947 1584 2947 
Q 2006 2947 2278 2723 
Q 2550 2500 2550 2259 
Q 2550 2141 2473 2067 
Q 2397 1994 2259 1994 
Q 2075 1994 1981 2113 
Q 1928 2178 1911 2362 
Q 1894 2547 1784 2644 
Q 1675 2738 1481 2738 
Q 1169 2738 978 2506 
Q 725 2200 725 1697 
Q 725 1184 976 792 
Q 1228 400 1656 400 
Q 1963 400 2206 609 
Q 2378 753 2541 1131 
L 2631 1088 
z
" transform="scale(0.015625)"/>
       </defs>
       <use xlink:href="#TimesNewRomanPSMT-43"/>
       <use xlink:href="#TimesNewRomanPSMT-6f" x="66.699219"/>
       <use xlink:href="#TimesNewRomanPSMT-72" x="116.699219"/>
       <use xlink:href="#TimesNewRomanPSMT-65" x="150"/>
       <use xlink:href="#TimesNewRomanPSMT-4c" x="194.384766"/>
       <use xlink:href="#TimesNewRomanPSMT-6f" x="255.46875"/>
       <use xlink:href="#TimesNewRomanPSMT-67" x="305.46875"/>
       <use xlink:href="#TimesNewRomanPSMT-69" x="355.46875"/>
       <use xlink:href="#TimesNewRomanPSMT-63" x="383.251953"/>
      </g>
     </g>
    </g>
    <g id="xtick_2">
     <g id="line2d_2">
      <g>
       <use xlink:href="#mc3ee9802ff" x="152.610938" y="260.321465" style="stroke: #000000; stroke-width: 0.8"/>
      </g>
     </g>
     <g id="text_2">
      <!-- SmartHub -->
      <g transform="translate(115.914747 308.094568) rotate(-45) scale(0.12 -0.12)">
       <defs>
        <path id="TimesNewRomanPSMT-53" d="M 2934 4334 
L 2934 2869 
L 2819 2869 
Q 2763 3291 2617 3541 
Q 2472 3791 2203 3937 
Q 1934 4084 1647 4084 
Q 1322 4084 1109 3886 
Q 897 3688 897 3434 
Q 897 3241 1031 3081 
Q 1225 2847 1953 2456 
Q 2547 2138 2764 1967 
Q 2981 1797 3098 1565 
Q 3216 1334 3216 1081 
Q 3216 600 2842 251 
Q 2469 -97 1881 -97 
Q 1697 -97 1534 -69 
Q 1438 -53 1133 45 
Q 828 144 747 144 
Q 669 144 623 97 
Q 578 50 556 -97 
L 441 -97 
L 441 1356 
L 556 1356 
Q 638 900 775 673 
Q 913 447 1195 297 
Q 1478 147 1816 147 
Q 2206 147 2432 353 
Q 2659 559 2659 841 
Q 2659 997 2573 1156 
Q 2488 1316 2306 1453 
Q 2184 1547 1640 1851 
Q 1097 2156 867 2337 
Q 638 2519 519 2737 
Q 400 2956 400 3219 
Q 400 3675 750 4004 
Q 1100 4334 1641 4334 
Q 1978 4334 2356 4169 
Q 2531 4091 2603 4091 
Q 2684 4091 2736 4139 
Q 2788 4188 2819 4334 
L 2934 4334 
z
" transform="scale(0.015625)"/>
        <path id="TimesNewRomanPSMT-6d" d="M 1050 2338 
Q 1363 2650 1419 2697 
Q 1559 2816 1721 2881 
Q 1884 2947 2044 2947 
Q 2313 2947 2506 2790 
Q 2700 2634 2766 2338 
Q 3088 2713 3309 2830 
Q 3531 2947 3766 2947 
Q 3994 2947 4170 2830 
Q 4347 2713 4450 2447 
Q 4519 2266 4519 1878 
L 4519 647 
Q 4519 378 4559 278 
Q 4591 209 4675 161 
Q 4759 113 4950 113 
L 4950 0 
L 3538 0 
L 3538 113 
L 3597 113 
Q 3781 113 3884 184 
Q 3956 234 3988 344 
Q 4000 397 4000 647 
L 4000 1878 
Q 4000 2228 3916 2372 
Q 3794 2572 3525 2572 
Q 3359 2572 3192 2489 
Q 3025 2406 2788 2181 
L 2781 2147 
L 2788 2013 
L 2788 647 
Q 2788 353 2820 281 
Q 2853 209 2943 161 
Q 3034 113 3253 113 
L 3253 0 
L 1806 0 
L 1806 113 
Q 2044 113 2133 169 
Q 2222 225 2256 338 
Q 2272 391 2272 647 
L 2272 1878 
Q 2272 2228 2169 2381 
Q 2031 2581 1784 2581 
Q 1616 2581 1450 2491 
Q 1191 2353 1050 2181 
L 1050 647 
Q 1050 366 1089 281 
Q 1128 197 1204 155 
Q 1281 113 1516 113 
L 1516 0 
L 100 0 
L 100 113 
Q 297 113 375 155 
Q 453 197 493 289 
Q 534 381 534 647 
L 534 1741 
Q 534 2213 506 2350 
Q 484 2453 437 2492 
Q 391 2531 309 2531 
Q 222 2531 100 2484 
L 53 2597 
L 916 2947 
L 1050 2947 
L 1050 2338 
z
" transform="scale(0.015625)"/>
        <path id="TimesNewRomanPSMT-61" d="M 1822 413 
Q 1381 72 1269 19 
Q 1100 -59 909 -59 
Q 613 -59 420 144 
Q 228 347 228 678 
Q 228 888 322 1041 
Q 450 1253 767 1440 
Q 1084 1628 1822 1897 
L 1822 2009 
Q 1822 2438 1686 2597 
Q 1550 2756 1291 2756 
Q 1094 2756 978 2650 
Q 859 2544 859 2406 
L 866 2225 
Q 866 2081 792 2003 
Q 719 1925 600 1925 
Q 484 1925 411 2006 
Q 338 2088 338 2228 
Q 338 2497 613 2722 
Q 888 2947 1384 2947 
Q 1766 2947 2009 2819 
Q 2194 2722 2281 2516 
Q 2338 2381 2338 1966 
L 2338 994 
Q 2338 584 2353 492 
Q 2369 400 2405 369 
Q 2441 338 2488 338 
Q 2538 338 2575 359 
Q 2641 400 2828 588 
L 2828 413 
Q 2478 -56 2159 -56 
Q 2006 -56 1915 50 
Q 1825 156 1822 413 
z
M 1822 616 
L 1822 1706 
Q 1350 1519 1213 1441 
Q 966 1303 859 1153 
Q 753 1003 753 825 
Q 753 600 887 451 
Q 1022 303 1197 303 
Q 1434 303 1822 616 
z
" transform="scale(0.015625)"/>
        <path id="TimesNewRomanPSMT-74" d="M 1031 3803 
L 1031 2863 
L 1700 2863 
L 1700 2644 
L 1031 2644 
L 1031 788 
Q 1031 509 1111 412 
Q 1191 316 1316 316 
Q 1419 316 1516 380 
Q 1613 444 1666 569 
L 1788 569 
Q 1678 263 1478 108 
Q 1278 -47 1066 -47 
Q 922 -47 784 33 
Q 647 113 581 261 
Q 516 409 516 719 
L 516 2644 
L 63 2644 
L 63 2747 
Q 234 2816 414 2980 
Q 594 3144 734 3369 
Q 806 3488 934 3803 
L 1031 3803 
z
" transform="scale(0.015625)"/>
        <path id="TimesNewRomanPSMT-48" d="M 1316 2272 
L 3284 2272 
L 3284 3484 
Q 3284 3809 3244 3913 
Q 3213 3991 3113 4047 
Q 2978 4122 2828 4122 
L 2678 4122 
L 2678 4238 
L 4491 4238 
L 4491 4122 
L 4341 4122 
Q 4191 4122 4056 4050 
Q 3956 4000 3920 3898 
Q 3884 3797 3884 3484 
L 3884 750 
Q 3884 428 3925 325 
Q 3956 247 4053 191 
Q 4191 116 4341 116 
L 4491 116 
L 4491 0 
L 2678 0 
L 2678 116 
L 2828 116 
Q 3088 116 3206 269 
Q 3284 369 3284 750 
L 3284 2041 
L 1316 2041 
L 1316 750 
Q 1316 428 1356 325 
Q 1388 247 1488 191 
Q 1622 116 1772 116 
L 1925 116 
L 1925 0 
L 109 0 
L 109 116 
L 259 116 
Q 522 116 641 269 
Q 716 369 716 750 
L 716 3484 
Q 716 3809 675 3913 
Q 644 3991 547 4047 
Q 409 4122 259 4122 
L 109 4122 
L 109 4238 
L 1925 4238 
L 1925 4122 
L 1772 4122 
Q 1622 4122 1488 4050 
Q 1391 4000 1353 3898 
Q 1316 3797 1316 3484 
L 1316 2272 
z
" transform="scale(0.015625)"/>
        <path id="TimesNewRomanPSMT-75" d="M 2709 2863 
L 2709 1128 
Q 2709 631 2732 520 
Q 2756 409 2807 365 
Q 2859 322 2928 322 
Q 3025 322 3147 375 
L 3191 266 
L 2334 -88 
L 2194 -88 
L 2194 519 
Q 1825 119 1631 15 
Q 1438 -88 1222 -88 
Q 981 -88 804 51 
Q 628 191 559 409 
Q 491 628 491 1028 
L 491 2306 
Q 491 2509 447 2587 
Q 403 2666 317 2708 
Q 231 2750 6 2747 
L 6 2863 
L 1009 2863 
L 1009 947 
Q 1009 547 1148 422 
Q 1288 297 1484 297 
Q 1619 297 1789 381 
Q 1959 466 2194 703 
L 2194 2325 
Q 2194 2569 2105 2655 
Q 2016 2741 1734 2747 
L 1734 2863 
L 2709 2863 
z
" transform="scale(0.015625)"/>
        <path id="TimesNewRomanPSMT-62" d="M 984 2369 
Q 1400 2947 1881 2947 
Q 2322 2947 2650 2570 
Q 2978 2194 2978 1541 
Q 2978 778 2472 313 
Q 2038 -88 1503 -88 
Q 1253 -88 995 3 
Q 738 94 469 275 
L 469 3241 
Q 469 3728 445 3840 
Q 422 3953 372 3993 
Q 322 4034 247 4034 
Q 159 4034 28 3984 
L -16 4094 
L 844 4444 
L 984 4444 
L 984 2369 
z
M 984 2169 
L 984 456 
Q 1144 300 1314 220 
Q 1484 141 1663 141 
Q 1947 141 2192 453 
Q 2438 766 2438 1363 
Q 2438 1913 2192 2208 
Q 1947 2503 1634 2503 
Q 1469 2503 1303 2419 
Q 1178 2356 984 2169 
z
" transform="scale(0.015625)"/>
       </defs>
       <use xlink:href="#TimesNewRomanPSMT-53"/>
       <use xlink:href="#TimesNewRomanPSMT-6d" x="55.615234"/>
       <use xlink:href="#TimesNewRomanPSMT-61" x="133.398438"/>
       <use xlink:href="#TimesNewRomanPSMT-72" x="177.783203"/>
       <use xlink:href="#TimesNewRomanPSMT-74" x="211.083984"/>
       <use xlink:href="#TimesNewRomanPSMT-48" x="238.867188"/>
       <use xlink:href="#TimesNewRomanPSMT-75" x="311.083984"/>
       <use xlink:href="#TimesNewRomanPSMT-62" x="361.083984"/>
      </g>
     </g>
    </g>
    <g id="xtick_3">
     <g id="line2d_3">
      <g>
       <use xlink:href="#mc3ee9802ff" x="213.740938" y="260.321465" style="stroke: #000000; stroke-width: 0.8"/>
      </g>
     </g>
     <g id="text_3">
      <!-- QuantumX -->
      <g transform="translate(174.218088 310.921228) rotate(-45) scale(0.12 -0.12)">
       <defs>
        <path id="TimesNewRomanPSMT-51" d="M 2819 -47 
Q 3138 -597 3508 -856 
Q 3878 -1116 4350 -1153 
L 4350 -1253 
Q 3919 -1238 3428 -1080 
Q 2938 -922 2498 -642 
Q 2059 -363 1741 -47 
Q 1291 134 1028 338 
Q 647 641 436 1083 
Q 225 1525 225 2128 
Q 225 3078 840 3706 
Q 1456 4334 2331 4334 
Q 3163 4334 3770 3704 
Q 4378 3075 4378 2116 
Q 4378 1338 3945 750 
Q 3513 163 2819 -47 
z
M 2294 4094 
Q 1725 4094 1378 3688 
Q 941 3178 941 2128 
Q 941 1100 1384 544 
Q 1728 116 2294 116 
Q 2881 116 3241 544 
Q 3663 1050 3663 2038 
Q 3663 2797 3431 3316 
Q 3253 3716 2958 3905 
Q 2663 4094 2294 4094 
z
" transform="scale(0.015625)"/>
        <path id="TimesNewRomanPSMT-6e" d="M 1034 2341 
Q 1538 2947 1994 2947 
Q 2228 2947 2397 2830 
Q 2566 2713 2666 2444 
Q 2734 2256 2734 1869 
L 2734 647 
Q 2734 375 2778 278 
Q 2813 200 2889 156 
Q 2966 113 3172 113 
L 3172 0 
L 1756 0 
L 1756 113 
L 1816 113 
Q 2016 113 2095 173 
Q 2175 234 2206 353 
Q 2219 400 2219 647 
L 2219 1819 
Q 2219 2209 2117 2386 
Q 2016 2563 1775 2563 
Q 1403 2563 1034 2156 
L 1034 647 
Q 1034 356 1069 288 
Q 1113 197 1189 155 
Q 1266 113 1500 113 
L 1500 0 
L 84 0 
L 84 113 
L 147 113 
Q 366 113 442 223 
Q 519 334 519 647 
L 519 1709 
Q 519 2225 495 2337 
Q 472 2450 423 2490 
Q 375 2531 294 2531 
Q 206 2531 84 2484 
L 38 2597 
L 900 2947 
L 1034 2947 
L 1034 2341 
z
" transform="scale(0.015625)"/>
        <path id="TimesNewRomanPSMT-58" d="M 2613 2347 
L 3522 991 
Q 3900 428 4083 279 
Q 4266 131 4547 116 
L 4547 0 
L 2728 0 
L 2728 116 
Q 2909 119 2997 153 
Q 3063 181 3105 239 
Q 3147 297 3147 356 
Q 3147 428 3119 500 
Q 3097 553 2947 775 
L 2228 1863 
L 1341 725 
Q 1200 544 1172 483 
Q 1144 422 1144 356 
Q 1144 256 1228 190 
Q 1313 125 1550 116 
L 1550 0 
L 47 0 
L 47 116 
Q 206 131 322 181 
Q 516 263 691 400 
Q 866 538 1091 822 
L 2091 2084 
L 1256 3306 
Q 916 3803 678 3958 
Q 441 4113 131 4122 
L 131 4238 
L 2091 4238 
L 2091 4122 
Q 1841 4113 1748 4041 
Q 1656 3969 1656 3881 
Q 1656 3766 1806 3544 
L 2456 2572 
L 3209 3525 
Q 3341 3694 3370 3756 
Q 3400 3819 3400 3884 
Q 3400 3950 3363 4000 
Q 3316 4066 3244 4092 
Q 3172 4119 2947 4122 
L 2947 4238 
L 4450 4238 
L 4450 4122 
Q 4272 4113 4159 4066 
Q 3991 3994 3850 3872 
Q 3709 3750 3453 3422 
L 2613 2347 
z
" transform="scale(0.015625)"/>
       </defs>
       <use xlink:href="#TimesNewRomanPSMT-51"/>
       <use xlink:href="#TimesNewRomanPSMT-75" x="72.216797"/>
       <use xlink:href="#TimesNewRomanPSMT-61" x="122.216797"/>
       <use xlink:href="#TimesNewRomanPSMT-6e" x="166.601562"/>
       <use xlink:href="#TimesNewRomanPSMT-74" x="216.601562"/>
       <use xlink:href="#TimesNewRomanPSMT-75" x="244.384766"/>
       <use xlink:href="#TimesNewRomanPSMT-6d" x="294.384766"/>
       <use xlink:href="#TimesNewRomanPSMT-58" x="372.167969"/>
      </g>
     </g>
    </g>
    <g id="xtick_4">
     <g id="line2d_4">
      <g>
       <use xlink:href="#mc3ee9802ff" x="274.870937" y="260.321465" style="stroke: #000000; stroke-width: 0.8"/>
      </g>
     </g>
     <g id="text_4">
      <!-- TechNova -->
      <g transform="translate(238.311307 307.958008) rotate(-45) scale(0.12 -0.12)">
       <defs>
        <path id="TimesNewRomanPSMT-54" d="M 3703 4238 
L 3750 3244 
L 3631 3244 
Q 3597 3506 3538 3619 
Q 3441 3800 3280 3886 
Q 3119 3972 2856 3972 
L 2259 3972 
L 2259 734 
Q 2259 344 2344 247 
Q 2463 116 2709 116 
L 2856 116 
L 2856 0 
L 1059 0 
L 1059 116 
L 1209 116 
Q 1478 116 1591 278 
Q 1659 378 1659 734 
L 1659 3972 
L 1150 3972 
Q 853 3972 728 3928 
Q 566 3869 450 3700 
Q 334 3531 313 3244 
L 194 3244 
L 244 4238 
L 3703 4238 
z
" transform="scale(0.015625)"/>
        <path id="TimesNewRomanPSMT-68" d="M 1041 4444 
L 1041 2350 
Q 1388 2731 1591 2839 
Q 1794 2947 1997 2947 
Q 2241 2947 2416 2812 
Q 2591 2678 2675 2391 
Q 2734 2191 2734 1659 
L 2734 647 
Q 2734 375 2778 275 
Q 2809 200 2884 156 
Q 2959 113 3159 113 
L 3159 0 
L 1753 0 
L 1753 113 
L 1819 113 
Q 2019 113 2097 173 
Q 2175 234 2206 353 
Q 2216 403 2216 647 
L 2216 1659 
Q 2216 2128 2167 2275 
Q 2119 2422 2012 2495 
Q 1906 2569 1756 2569 
Q 1603 2569 1437 2487 
Q 1272 2406 1041 2159 
L 1041 647 
Q 1041 353 1073 281 
Q 1106 209 1195 161 
Q 1284 113 1503 113 
L 1503 0 
L 84 0 
L 84 113 
Q 275 113 384 172 
Q 447 203 484 290 
Q 522 378 522 647 
L 522 3238 
Q 522 3728 498 3840 
Q 475 3953 426 3993 
Q 378 4034 297 4034 
Q 231 4034 84 3984 
L 41 4094 
L 897 4444 
L 1041 4444 
z
" transform="scale(0.015625)"/>
        <path id="TimesNewRomanPSMT-4e" d="M -84 4238 
L 1066 4238 
L 3656 1059 
L 3656 3503 
Q 3656 3894 3569 3991 
Q 3453 4122 3203 4122 
L 3056 4122 
L 3056 4238 
L 4531 4238 
L 4531 4122 
L 4381 4122 
Q 4113 4122 4000 3959 
Q 3931 3859 3931 3503 
L 3931 -69 
L 3819 -69 
L 1025 3344 
L 1025 734 
Q 1025 344 1109 247 
Q 1228 116 1475 116 
L 1625 116 
L 1625 0 
L 150 0 
L 150 116 
L 297 116 
Q 569 116 681 278 
Q 750 378 750 734 
L 750 3681 
Q 566 3897 470 3965 
Q 375 4034 191 4094 
Q 100 4122 -84 4122 
L -84 4238 
z
" transform="scale(0.015625)"/>
        <path id="TimesNewRomanPSMT-76" d="M 53 2863 
L 1400 2863 
L 1400 2747 
L 1313 2747 
Q 1191 2747 1127 2687 
Q 1063 2628 1063 2528 
Q 1063 2419 1128 2269 
L 1794 688 
L 2463 2328 
Q 2534 2503 2534 2594 
Q 2534 2638 2509 2666 
Q 2475 2713 2422 2730 
Q 2369 2747 2206 2747 
L 2206 2863 
L 3141 2863 
L 3141 2747 
Q 2978 2734 2916 2681 
Q 2806 2588 2719 2369 
L 1703 -88 
L 1575 -88 
L 553 2328 
Q 484 2497 421 2570 
Q 359 2644 263 2694 
Q 209 2722 53 2747 
L 53 2863 
z
" transform="scale(0.015625)"/>
       </defs>
       <use xlink:href="#TimesNewRomanPSMT-54"/>
       <use xlink:href="#TimesNewRomanPSMT-65" x="54.083984"/>
       <use xlink:href="#TimesNewRomanPSMT-63" x="98.46875"/>
       <use xlink:href="#TimesNewRomanPSMT-68" x="142.853516"/>
       <use xlink:href="#TimesNewRomanPSMT-4e" x="192.853516"/>
       <use xlink:href="#TimesNewRomanPSMT-6f" x="265.070312"/>
       <use xlink:href="#TimesNewRomanPSMT-76" x="315.070312"/>
       <use xlink:href="#TimesNewRomanPSMT-61" x="365.070312"/>
      </g>
     </g>
    </g>
    <g id="xtick_5">
     <g id="line2d_5">
      <g>
       <use xlink:href="#mc3ee9802ff" x="336.000937" y="260.321465" style="stroke: #000000; stroke-width: 0.8"/>
      </g>
     </g>
     <g id="text_5">
      <!-- PrimeVue -->
      <g transform="translate(300.289835 307.10948) rotate(-45) scale(0.12 -0.12)">
       <defs>
        <path id="TimesNewRomanPSMT-50" d="M 1313 1984 
L 1313 750 
Q 1313 350 1400 253 
Q 1519 116 1759 116 
L 1922 116 
L 1922 0 
L 106 0 
L 106 116 
L 266 116 
Q 534 116 650 291 
Q 713 388 713 750 
L 713 3488 
Q 713 3888 628 3984 
Q 506 4122 266 4122 
L 106 4122 
L 106 4238 
L 1659 4238 
Q 2228 4238 2556 4120 
Q 2884 4003 3109 3725 
Q 3334 3447 3334 3066 
Q 3334 2547 2992 2222 
Q 2650 1897 2025 1897 
Q 1872 1897 1694 1919 
Q 1516 1941 1313 1984 
z
M 1313 2163 
Q 1478 2131 1606 2115 
Q 1734 2100 1825 2100 
Q 2150 2100 2386 2351 
Q 2622 2603 2622 3003 
Q 2622 3278 2509 3514 
Q 2397 3750 2190 3867 
Q 1984 3984 1722 3984 
Q 1563 3984 1313 3925 
L 1313 2163 
z
" transform="scale(0.015625)"/>
        <path id="TimesNewRomanPSMT-56" d="M 4544 4238 
L 4544 4122 
Q 4319 4081 4203 3978 
Q 4038 3825 3909 3509 
L 2431 -97 
L 2316 -97 
L 728 3556 
Q 606 3838 556 3900 
Q 478 3997 364 4051 
Q 250 4106 56 4122 
L 56 4238 
L 1788 4238 
L 1788 4122 
Q 1494 4094 1406 4022 
Q 1319 3950 1319 3838 
Q 1319 3681 1463 3350 
L 2541 866 
L 3541 3319 
Q 3688 3681 3688 3822 
Q 3688 3913 3597 3995 
Q 3506 4078 3291 4113 
Q 3275 4116 3238 4122 
L 3238 4238 
L 4544 4238 
z
" transform="scale(0.015625)"/>
       </defs>
       <use xlink:href="#TimesNewRomanPSMT-50"/>
       <use xlink:href="#TimesNewRomanPSMT-72" x="55.615234"/>
       <use xlink:href="#TimesNewRomanPSMT-69" x="88.916016"/>
       <use xlink:href="#TimesNewRomanPSMT-6d" x="116.699219"/>
       <use xlink:href="#TimesNewRomanPSMT-65" x="194.482422"/>
       <use xlink:href="#TimesNewRomanPSMT-56" x="238.867188"/>
       <use xlink:href="#TimesNewRomanPSMT-75" x="305.083984"/>
       <use xlink:href="#TimesNewRomanPSMT-65" x="355.083984"/>
      </g>
     </g>
    </g>
    <g id="xtick_6">
     <g id="line2d_6">
      <g>
       <use xlink:href="#mc3ee9802ff" x="397.130937" y="260.321465" style="stroke: #000000; stroke-width: 0.8"/>
      </g>
     </g>
     <g id="text_6">
      <!-- SwiftLink -->
      <g transform="translate(360.904089 307.625226) rotate(-45) scale(0.12 -0.12)">
       <defs>
        <path id="TimesNewRomanPSMT-77" d="M 41 2863 
L 1241 2863 
L 1241 2747 
Q 1075 2734 1023 2687 
Q 972 2641 972 2553 
Q 972 2456 1025 2319 
L 1638 672 
L 2253 2013 
L 2091 2434 
Q 2016 2622 1894 2694 
Q 1825 2738 1638 2747 
L 1638 2863 
L 3000 2863 
L 3000 2747 
Q 2775 2738 2681 2666 
Q 2619 2616 2619 2506 
Q 2619 2444 2644 2378 
L 3294 734 
L 3897 2319 
Q 3959 2488 3959 2588 
Q 3959 2647 3898 2694 
Q 3838 2741 3659 2747 
L 3659 2863 
L 4563 2863 
L 4563 2747 
Q 4291 2706 4163 2378 
L 3206 -88 
L 3078 -88 
L 2363 1741 
L 1528 -88 
L 1413 -88 
L 494 2319 
Q 403 2547 315 2626 
Q 228 2706 41 2747 
L 41 2863 
z
" transform="scale(0.015625)"/>
        <path id="TimesNewRomanPSMT-66" d="M 1319 2638 
L 1319 756 
Q 1319 356 1406 250 
Q 1522 113 1716 113 
L 1975 113 
L 1975 0 
L 266 0 
L 266 113 
L 394 113 
Q 519 113 622 175 
Q 725 238 764 344 
Q 803 450 803 756 
L 803 2638 
L 247 2638 
L 247 2863 
L 803 2863 
L 803 3050 
Q 803 3478 940 3775 
Q 1078 4072 1361 4255 
Q 1644 4438 1997 4438 
Q 2325 4438 2600 4225 
Q 2781 4084 2781 3909 
Q 2781 3816 2700 3733 
Q 2619 3650 2525 3650 
Q 2453 3650 2373 3701 
Q 2294 3753 2178 3923 
Q 2063 4094 1966 4153 
Q 1869 4213 1750 4213 
Q 1606 4213 1506 4136 
Q 1406 4059 1362 3898 
Q 1319 3738 1319 3069 
L 1319 2863 
L 2056 2863 
L 2056 2638 
L 1319 2638 
z
" transform="scale(0.015625)"/>
        <path id="TimesNewRomanPSMT-6b" d="M 1047 4444 
L 1047 1597 
L 1775 2259 
Q 2006 2472 2044 2528 
Q 2069 2566 2069 2603 
Q 2069 2666 2017 2711 
Q 1966 2756 1847 2763 
L 1847 2863 
L 3091 2863 
L 3091 2763 
Q 2834 2756 2664 2684 
Q 2494 2613 2291 2428 
L 1556 1750 
L 2291 822 
Q 2597 438 2703 334 
Q 2853 188 2966 144 
Q 3044 113 3238 113 
L 3238 0 
L 1847 0 
L 1847 113 
Q 1966 116 2008 148 
Q 2050 181 2050 241 
Q 2050 313 1925 472 
L 1047 1594 
L 1047 644 
Q 1047 366 1086 278 
Q 1125 191 1197 153 
Q 1269 116 1509 113 
L 1509 0 
L 53 0 
L 53 113 
Q 272 113 381 166 
Q 447 200 481 272 
Q 528 375 528 628 
L 528 3234 
Q 528 3731 506 3842 
Q 484 3953 434 3995 
Q 384 4038 303 4038 
Q 238 4038 106 3984 
L 53 4094 
L 903 4444 
L 1047 4444 
z
" transform="scale(0.015625)"/>
       </defs>
       <use xlink:href="#TimesNewRomanPSMT-53"/>
       <use xlink:href="#TimesNewRomanPSMT-77" x="55.615234"/>
       <use xlink:href="#TimesNewRomanPSMT-69" x="127.832031"/>
       <use xlink:href="#TimesNewRomanPSMT-66" x="155.615234"/>
       <use xlink:href="#TimesNewRomanPSMT-74" x="188.916016"/>
       <use xlink:href="#TimesNewRomanPSMT-4c" x="216.699219"/>
       <use xlink:href="#TimesNewRomanPSMT-69" x="277.783203"/>
       <use xlink:href="#TimesNewRomanPSMT-6e" x="305.566406"/>
       <use xlink:href="#TimesNewRomanPSMT-6b" x="355.566406"/>
      </g>
     </g>
    </g>
   </g>
   <g id="matplotlib.axis_2">
    <g id="ytick_1">
     <g id="line2d_7">
      <defs>
       <path id="mb276e5cab9" d="M 0 0 
L -3.5 0 
" style="stroke: #000000; stroke-width: 0.8"/>
      </defs>
      <g>
       <use xlink:href="#mb276e5cab9" x="60.915938" y="223.768077" style="stroke: #000000; stroke-width: 0.8"/>
      </g>
     </g>
     <g id="text_7">
      <!-- 50000 -->
      <g transform="translate(28.915938 227.239952) scale(0.1 -0.1)">
       <defs>
        <path id="TimesNewRomanPSMT-35" d="M 2778 4238 
L 2534 3706 
L 1259 3706 
L 981 3138 
Q 1809 3016 2294 2522 
Q 2709 2097 2709 1522 
Q 2709 1188 2573 903 
Q 2438 619 2231 419 
Q 2025 219 1772 97 
Q 1413 -75 1034 -75 
Q 653 -75 479 54 
Q 306 184 306 341 
Q 306 428 378 495 
Q 450 563 559 563 
Q 641 563 702 538 
Q 763 513 909 409 
Q 1144 247 1384 247 
Q 1750 247 2026 523 
Q 2303 800 2303 1197 
Q 2303 1581 2056 1914 
Q 1809 2247 1375 2428 
Q 1034 2569 447 2591 
L 1259 4238 
L 2778 4238 
z
" transform="scale(0.015625)"/>
        <path id="TimesNewRomanPSMT-30" d="M 231 2094 
Q 231 2819 450 3342 
Q 669 3866 1031 4122 
Q 1313 4325 1613 4325 
Q 2100 4325 2488 3828 
Q 2972 3213 2972 2159 
Q 2972 1422 2759 906 
Q 2547 391 2217 158 
Q 1888 -75 1581 -75 
Q 975 -75 572 641 
Q 231 1244 231 2094 
z
M 844 2016 
Q 844 1141 1059 588 
Q 1238 122 1591 122 
Q 1759 122 1940 273 
Q 2122 425 2216 781 
Q 2359 1319 2359 2297 
Q 2359 3022 2209 3506 
Q 2097 3866 1919 4016 
Q 1791 4119 1609 4119 
Q 1397 4119 1231 3928 
Q 1006 3669 925 3112 
Q 844 2556 844 2016 
z
" transform="scale(0.015625)"/>
       </defs>
       <use xlink:href="#TimesNewRomanPSMT-35"/>
       <use xlink:href="#TimesNewRomanPSMT-30" x="50"/>
       <use xlink:href="#TimesNewRomanPSMT-30" x="100"/>
       <use xlink:href="#TimesNewRomanPSMT-30" x="150"/>
       <use xlink:href="#TimesNewRomanPSMT-30" x="200"/>
      </g>
     </g>
    </g>
    <g id="ytick_2">
     <g id="line2d_8">
      <g>
       <use xlink:href="#mb276e5cab9" x="60.915938" y="182.184394" style="stroke: #000000; stroke-width: 0.8"/>
      </g>
     </g>
     <g id="text_8">
      <!-- 100000 -->
      <g transform="translate(23.915938 185.656269) scale(0.1 -0.1)">
       <defs>
        <path id="TimesNewRomanPSMT-31" d="M 750 3822 
L 1781 4325 
L 1884 4325 
L 1884 747 
Q 1884 391 1914 303 
Q 1944 216 2037 169 
Q 2131 122 2419 116 
L 2419 0 
L 825 0 
L 825 116 
Q 1125 122 1212 167 
Q 1300 213 1334 289 
Q 1369 366 1369 747 
L 1369 3034 
Q 1369 3497 1338 3628 
Q 1316 3728 1258 3775 
Q 1200 3822 1119 3822 
Q 1003 3822 797 3725 
L 750 3822 
z
" transform="scale(0.015625)"/>
       </defs>
       <use xlink:href="#TimesNewRomanPSMT-31"/>
       <use xlink:href="#TimesNewRomanPSMT-30" x="50"/>
       <use xlink:href="#TimesNewRomanPSMT-30" x="100"/>
       <use xlink:href="#TimesNewRomanPSMT-30" x="150"/>
       <use xlink:href="#TimesNewRomanPSMT-30" x="200"/>
       <use xlink:href="#TimesNewRomanPSMT-30" x="250"/>
      </g>
     </g>
    </g>
    <g id="ytick_3">
     <g id="line2d_9">
      <g>
       <use xlink:href="#mb276e5cab9" x="60.915938" y="140.600711" style="stroke: #000000; stroke-width: 0.8"/>
      </g>
     </g>
     <g id="text_9">
      <!-- 150000 -->
      <g transform="translate(23.915938 144.072586) scale(0.1 -0.1)">
       <use xlink:href="#TimesNewRomanPSMT-31"/>
       <use xlink:href="#TimesNewRomanPSMT-35" x="50"/>
       <use xlink:href="#TimesNewRomanPSMT-30" x="100"/>
       <use xlink:href="#TimesNewRomanPSMT-30" x="150"/>
       <use xlink:href="#TimesNewRomanPSMT-30" x="200"/>
       <use xlink:href="#TimesNewRomanPSMT-30" x="250"/>
      </g>
     </g>
    </g>
    <g id="ytick_4">
     <g id="line2d_10">
      <g>
       <use xlink:href="#mb276e5cab9" x="60.915938" y="99.017028" style="stroke: #000000; stroke-width: 0.8"/>
      </g>
     </g>
     <g id="text_10">
      <!-- 200000 -->
      <g transform="translate(23.915938 102.488903) scale(0.1 -0.1)">
       <defs>
        <path id="TimesNewRomanPSMT-32" d="M 2934 816 
L 2638 0 
L 138 0 
L 138 116 
Q 1241 1122 1691 1759 
Q 2141 2397 2141 2925 
Q 2141 3328 1894 3587 
Q 1647 3847 1303 3847 
Q 991 3847 742 3664 
Q 494 3481 375 3128 
L 259 3128 
Q 338 3706 661 4015 
Q 984 4325 1469 4325 
Q 1984 4325 2329 3994 
Q 2675 3663 2675 3213 
Q 2675 2891 2525 2569 
Q 2294 2063 1775 1497 
Q 997 647 803 472 
L 1909 472 
Q 2247 472 2383 497 
Q 2519 522 2628 598 
Q 2738 675 2819 816 
L 2934 816 
z
" transform="scale(0.015625)"/>
       </defs>
       <use xlink:href="#TimesNewRomanPSMT-32"/>
       <use xlink:href="#TimesNewRomanPSMT-30" x="50"/>
       <use xlink:href="#TimesNewRomanPSMT-30" x="100"/>
       <use xlink:href="#TimesNewRomanPSMT-30" x="150"/>
       <use xlink:href="#TimesNewRomanPSMT-30" x="200"/>
       <use xlink:href="#TimesNewRomanPSMT-30" x="250"/>
      </g>
     </g>
    </g>
    <g id="ytick_5">
     <g id="line2d_11">
      <g>
       <use xlink:href="#mb276e5cab9" x="60.915938" y="57.433344" style="stroke: #000000; stroke-width: 0.8"/>
      </g>
     </g>
     <g id="text_11">
      <!-- 250000 -->
      <g transform="translate(23.915938 60.905219) scale(0.1 -0.1)">
       <use xlink:href="#TimesNewRomanPSMT-32"/>
       <use xlink:href="#TimesNewRomanPSMT-35" x="50"/>
       <use xlink:href="#TimesNewRomanPSMT-30" x="100"/>
       <use xlink:href="#TimesNewRomanPSMT-30" x="150"/>
       <use xlink:href="#TimesNewRomanPSMT-30" x="200"/>
       <use xlink:href="#TimesNewRomanPSMT-30" x="250"/>
      </g>
     </g>
    </g>
    <g id="text_12">
     <!-- USD -->
     <g transform="translate(16.92125 159.186514) rotate(-90) scale(0.14 -0.14)">
      <defs>
       <path id="TimesNewRomanPSMT-55" d="M 3053 4122 
L 3053 4238 
L 4553 4238 
L 4553 4122 
L 4394 4122 
Q 4144 4122 4009 3913 
Q 3944 3816 3944 3463 
L 3944 1744 
Q 3944 1106 3817 754 
Q 3691 403 3320 151 
Q 2950 -100 2313 -100 
Q 1619 -100 1259 140 
Q 900 381 750 788 
Q 650 1066 650 1831 
L 650 3488 
Q 650 3878 542 4000 
Q 434 4122 194 4122 
L 34 4122 
L 34 4238 
L 1866 4238 
L 1866 4122 
L 1703 4122 
Q 1441 4122 1328 3956 
Q 1250 3844 1250 3488 
L 1250 1641 
Q 1250 1394 1295 1075 
Q 1341 756 1459 578 
Q 1578 400 1801 284 
Q 2025 169 2350 169 
Q 2766 169 3094 350 
Q 3422 531 3542 814 
Q 3663 1097 3663 1772 
L 3663 3488 
Q 3663 3884 3575 3984 
Q 3453 4122 3213 4122 
L 3053 4122 
z
" transform="scale(0.015625)"/>
       <path id="TimesNewRomanPSMT-44" d="M 109 0 
L 109 116 
L 269 116 
Q 538 116 650 288 
Q 719 391 719 750 
L 719 3488 
Q 719 3884 631 3984 
Q 509 4122 269 4122 
L 109 4122 
L 109 4238 
L 1834 4238 
Q 2784 4238 3279 4022 
Q 3775 3806 4076 3303 
Q 4378 2800 4378 2141 
Q 4378 1256 3841 663 
Q 3238 0 2003 0 
L 109 0 
z
M 1319 306 
Q 1716 219 1984 219 
Q 2709 219 3187 728 
Q 3666 1238 3666 2109 
Q 3666 2988 3187 3494 
Q 2709 4000 1959 4000 
Q 1678 4000 1319 3909 
L 1319 306 
z
" transform="scale(0.015625)"/>
      </defs>
      <use xlink:href="#TimesNewRomanPSMT-55"/>
      <use xlink:href="#TimesNewRomanPSMT-53" x="72.216797"/>
      <use xlink:href="#TimesNewRomanPSMT-44" x="127.832031"/>
     </g>
    </g>
   </g>
   <g id="patch_3">
    <path d="M 88.424438 230.026006 
L 94.537438 230.026006 
L 94.537438 201.36965 
L 88.424438 201.36965 
L 88.424438 230.026006 
L 88.424438 230.026006 
z
" clip-path="url(#pee111bda8c)" style="fill: none; stroke: #000000; stroke-linejoin: miter"/>
   </g>
   <g id="line2d_12">
    <path d="M 91.480938 230.026006 
L 91.480938 247.818416 
" clip-path="url(#pee111bda8c)" style="fill: none; stroke: #000000; stroke-linecap: square"/>
   </g>
   <g id="line2d_13">
    <path d="M 91.480938 201.36965 
L 91.480938 161.074021 
" clip-path="url(#pee111bda8c)" style="fill: none; stroke: #000000; stroke-linecap: square"/>
   </g>
   <g id="line2d_14">
    <path d="M 89.952687 247.818416 
L 93.009187 247.818416 
" clip-path="url(#pee111bda8c)" style="fill: none; stroke: #000000; stroke-linecap: square"/>
   </g>
   <g id="line2d_15">
    <path d="M 89.952687 161.074021 
L 93.009187 161.074021 
" clip-path="url(#pee111bda8c)" style="fill: none; stroke: #000000; stroke-linecap: square"/>
   </g>
   <g id="patch_4">
    <path d="M 149.554438 225.820024 
L 155.667437 225.820024 
L 155.667437 199.887192 
L 149.554438 199.887192 
L 149.554438 225.820024 
L 149.554438 225.820024 
z
" clip-path="url(#pee111bda8c)" style="fill: none; stroke: #000000; stroke-linejoin: miter"/>
   </g>
   <g id="line2d_16">
    <path d="M 152.610938 225.820024 
L 152.610938 244.193151 
" clip-path="url(#pee111bda8c)" style="fill: none; stroke: #000000; stroke-linecap: square"/>
   </g>
   <g id="line2d_17">
    <path d="M 152.610938 199.887192 
L 152.610938 161.257821 
" clip-path="url(#pee111bda8c)" style="fill: none; stroke: #000000; stroke-linecap: square"/>
   </g>
   <g id="line2d_18">
    <path d="M 151.082687 244.193151 
L 154.139187 244.193151 
" clip-path="url(#pee111bda8c)" style="fill: none; stroke: #000000; stroke-linecap: square"/>
   </g>
   <g id="line2d_19">
    <path d="M 151.082687 161.257821 
L 154.139187 161.257821 
" clip-path="url(#pee111bda8c)" style="fill: none; stroke: #000000; stroke-linecap: square"/>
   </g>
   <g id="patch_5">
    <path d="M 210.684438 230.170509 
L 216.797438 230.170509 
L 216.797438 200.745479 
L 210.684438 200.745479 
L 210.684438 230.170509 
L 210.684438 230.170509 
z
" clip-path="url(#pee111bda8c)" style="fill: none; stroke: #000000; stroke-linejoin: miter"/>
   </g>
   <g id="line2d_20">
    <path d="M 213.740938 230.170509 
L 213.740938 248.026335 
" clip-path="url(#pee111bda8c)" style="fill: none; stroke: #000000; stroke-linecap: square"/>
   </g>
   <g id="line2d_21">
    <path d="M 213.740938 200.745479 
L 213.740938 161.508987 
" clip-path="url(#pee111bda8c)" style="fill: none; stroke: #000000; stroke-linecap: square"/>
   </g>
   <g id="line2d_22">
    <path d="M 212.212688 248.026335 
L 215.269187 248.026335 
" clip-path="url(#pee111bda8c)" style="fill: none; stroke: #000000; stroke-linecap: square"/>
   </g>
   <g id="line2d_23">
    <path d="M 212.212688 161.508987 
L 215.269187 161.508987 
" clip-path="url(#pee111bda8c)" style="fill: none; stroke: #000000; stroke-linecap: square"/>
   </g>
   <g id="patch_6">
    <path d="M 271.814437 224.767957 
L 277.927437 224.767957 
L 277.927437 193.751311 
L 271.814437 193.751311 
L 271.814437 224.767957 
L 271.814437 224.767957 
z
" clip-path="url(#pee111bda8c)" style="fill: none; stroke: #000000; stroke-linejoin: miter"/>
   </g>
   <g id="line2d_24">
    <path d="M 274.870937 224.767957 
L 274.870937 244.732075 
" clip-path="url(#pee111bda8c)" style="fill: none; stroke: #000000; stroke-linecap: square"/>
   </g>
   <g id="line2d_25">
    <path d="M 274.870937 193.751311 
L 274.870937 155.943427 
" clip-path="url(#pee111bda8c)" style="fill: none; stroke: #000000; stroke-linecap: square"/>
   </g>
   <g id="line2d_26">
    <path d="M 273.342688 244.732075 
L 276.399187 244.732075 
" clip-path="url(#pee111bda8c)" style="fill: none; stroke: #000000; stroke-linecap: square"/>
   </g>
   <g id="line2d_27">
    <path d="M 273.342688 155.943427 
L 276.399187 155.943427 
" clip-path="url(#pee111bda8c)" style="fill: none; stroke: #000000; stroke-linecap: square"/>
   </g>
   <g id="patch_7">
    <path d="M 332.944437 231.123191 
L 339.057437 231.123191 
L 339.057437 206.406266 
L 332.944437 206.406266 
L 332.944437 231.123191 
L 332.944437 231.123191 
z
" clip-path="url(#pee111bda8c)" style="fill: none; stroke: #000000; stroke-linejoin: miter"/>
   </g>
   <g id="line2d_28">
    <path d="M 336.000937 231.123191 
L 336.000937 245.075556 
" clip-path="url(#pee111bda8c)" style="fill: none; stroke: #000000; stroke-linecap: square"/>
   </g>
   <g id="line2d_29">
    <path d="M 336.000937 206.406266 
L 336.000937 170.771336 
" clip-path="url(#pee111bda8c)" style="fill: none; stroke: #000000; stroke-linecap: square"/>
   </g>
   <g id="line2d_30">
    <path d="M 334.472687 245.075556 
L 337.529187 245.075556 
" clip-path="url(#pee111bda8c)" style="fill: none; stroke: #000000; stroke-linecap: square"/>
   </g>
   <g id="line2d_31">
    <path d="M 334.472687 170.771336 
L 337.529187 170.771336 
" clip-path="url(#pee111bda8c)" style="fill: none; stroke: #000000; stroke-linecap: square"/>
   </g>
   <g id="patch_8">
    <path d="M 394.074437 232.972418 
L 400.187437 232.972418 
L 400.187437 205.249616 
L 394.074437 205.249616 
L 394.074437 232.972418 
L 394.074437 232.972418 
z
" clip-path="url(#pee111bda8c)" style="fill: none; stroke: #000000; stroke-linejoin: miter"/>
   </g>
   <g id="line2d_32">
    <path d="M 397.130937 232.972418 
L 397.130937 249.854353 
" clip-path="url(#pee111bda8c)" style="fill: none; stroke: #000000; stroke-linecap: square"/>
   </g>
   <g id="line2d_33">
    <path d="M 397.130937 205.249616 
L 397.130937 171.119808 
" clip-path="url(#pee111bda8c)" style="fill: none; stroke: #000000; stroke-linecap: square"/>
   </g>
   <g id="line2d_34">
    <path d="M 395.602687 249.854353 
L 398.659187 249.854353 
" clip-path="url(#pee111bda8c)" style="fill: none; stroke: #000000; stroke-linecap: square"/>
   </g>
   <g id="line2d_35">
    <path d="M 395.602687 171.119808 
L 398.659187 171.119808 
" clip-path="url(#pee111bda8c)" style="fill: none; stroke: #000000; stroke-linecap: square"/>
   </g>
   <g id="line2d_36">
    <path d="M 88.424438 220.003506 
L 94.537438 220.003506 
" clip-path="url(#pee111bda8c)" style="fill: none; stroke: #000000; stroke-width: 1.5; stroke-linecap: square"/>
   </g>
   <g id="line2d_37">
    <path d="M 149.554438 213.529759 
L 155.667437 213.529759 
" clip-path="url(#pee111bda8c)" style="fill: none; stroke: #000000; stroke-width: 1.5; stroke-linecap: square"/>
   </g>
   <g id="line2d_38">
    <path d="M 210.684438 218.263645 
L 216.797438 218.263645 
" clip-path="url(#pee111bda8c)" style="fill: none; stroke: #000000; stroke-width: 1.5; stroke-linecap: square"/>
   </g>
   <g id="line2d_39">
    <path d="M 271.814437 208.994642 
L 277.927437 208.994642 
" clip-path="url(#pee111bda8c)" style="fill: none; stroke: #000000; stroke-width: 1.5; stroke-linecap: square"/>
   </g>
   <g id="line2d_40">
    <path d="M 332.944437 220.97199 
L 339.057437 220.97199 
" clip-path="url(#pee111bda8c)" style="fill: none; stroke: #000000; stroke-width: 1.5; stroke-linecap: square"/>
   </g>
   <g id="line2d_41">
    <path d="M 394.074437 220.20394 
L 400.187437 220.20394 
" clip-path="url(#pee111bda8c)" style="fill: none; stroke: #000000; stroke-width: 1.5; stroke-linecap: square"/>
   </g>
   <g id="patch_9">
    <path d="M 60.915938 260.321465 
L 60.915938 30.045 
" style="fill: none; stroke: #000000; stroke-linejoin: miter; stroke-linecap: square"/>
   </g>
   <g id="patch_10">
    <path d="M 427.695937 260.321465 
L 427.695937 30.045 
" style="fill: none; stroke: #000000; stroke-linejoin: miter; stroke-linecap: square"/>
   </g>
   <g id="patch_11">
    <path d="M 60.915938 260.321465 
L 427.695937 260.321465 
" style="fill: none; stroke: #000000; stroke-linejoin: miter; stroke-linecap: square"/>
   </g>
   <g id="patch_12">
    <path d="M 60.915938 30.045 
L 427.695937 30.045 
" style="fill: none; stroke: #000000; stroke-linejoin: miter; stroke-linecap: square"/>
   </g>
   <g id="text_13">
    <!-- Data on the monthly revenue of different companies (USD) -->
    <g transform="translate(43.722187 18.045) scale(0.16 -0.16)">
     <defs>
      <path id="TimesNewRomanPS-BoldMT-44" d="M 84 0 
L 84 116 
L 225 116 
Q 409 116 507 173 
Q 606 231 653 331 
Q 681 397 681 725 
L 681 3513 
Q 681 3838 647 3919 
Q 613 4000 508 4061 
Q 403 4122 225 4122 
L 84 4122 
L 84 4238 
L 1981 4238 
Q 2741 4238 3203 4031 
Q 3769 3778 4061 3265 
Q 4353 2753 4353 2106 
Q 4353 1659 4209 1282 
Q 4066 906 3837 661 
Q 3609 416 3311 267 
Q 3013 119 2581 38 
Q 2391 0 1981 0 
L 84 0 
z
M 1700 3997 
L 1700 691 
Q 1700 428 1725 368 
Q 1750 309 1809 278 
Q 1894 231 2053 231 
Q 2575 231 2850 588 
Q 3225 1069 3225 2081 
Q 3225 2897 2969 3384 
Q 2766 3766 2447 3903 
Q 2222 4000 1700 3997 
z
" transform="scale(0.015625)"/>
      <path id="TimesNewRomanPS-BoldMT-61" d="M 1828 431 
Q 1294 -41 869 -41 
Q 619 -41 453 123 
Q 288 288 288 534 
Q 288 869 575 1136 
Q 863 1403 1828 1847 
L 1828 2141 
Q 1828 2472 1792 2558 
Q 1756 2644 1656 2708 
Q 1556 2772 1431 2772 
Q 1228 2772 1097 2681 
Q 1016 2625 1016 2550 
Q 1016 2484 1103 2388 
Q 1222 2253 1222 2128 
Q 1222 1975 1108 1867 
Q 994 1759 809 1759 
Q 613 1759 480 1878 
Q 347 1997 347 2156 
Q 347 2381 525 2586 
Q 703 2791 1022 2900 
Q 1341 3009 1684 3009 
Q 2100 3009 2342 2832 
Q 2584 2656 2656 2450 
Q 2700 2319 2700 1847 
L 2700 713 
Q 2700 513 2715 461 
Q 2731 409 2762 384 
Q 2794 359 2834 359 
Q 2916 359 3000 475 
L 3094 400 
Q 2938 169 2770 64 
Q 2603 -41 2391 -41 
Q 2141 -41 2000 76 
Q 1859 194 1828 431 
z
M 1828 659 
L 1828 1638 
Q 1450 1416 1266 1163 
Q 1144 994 1144 822 
Q 1144 678 1247 569 
Q 1325 484 1466 484 
Q 1622 484 1828 659 
z
" transform="scale(0.015625)"/>
      <path id="TimesNewRomanPS-BoldMT-74" d="M 1375 3991 
L 1375 2922 
L 2069 2922 
L 2069 2613 
L 1375 2613 
L 1375 809 
Q 1375 556 1398 482 
Q 1422 409 1481 364 
Q 1541 319 1591 319 
Q 1794 319 1975 628 
L 2069 559 
Q 1816 -41 1247 -41 
Q 969 -41 776 114 
Q 584 269 531 459 
Q 500 566 500 1034 
L 500 2613 
L 119 2613 
L 119 2722 
Q 513 3000 789 3306 
Q 1066 3613 1272 3991 
L 1375 3991 
z
" transform="scale(0.015625)"/>
      <path id="TimesNewRomanPS-BoldMT-20" transform="scale(0.015625)"/>
      <path id="TimesNewRomanPS-BoldMT-6f" d="M 1594 3009 
Q 1975 3009 2303 2812 
Q 2631 2616 2801 2253 
Q 2972 1891 2972 1459 
Q 2972 838 2656 419 
Q 2275 -88 1603 -88 
Q 944 -88 587 375 
Q 231 838 231 1447 
Q 231 2075 595 2542 
Q 959 3009 1594 3009 
z
M 1606 2788 
Q 1447 2788 1333 2667 
Q 1219 2547 1183 2192 
Q 1147 1838 1147 1206 
Q 1147 872 1191 581 
Q 1225 359 1337 243 
Q 1450 128 1594 128 
Q 1734 128 1828 206 
Q 1950 313 1991 503 
Q 2053 800 2053 1703 
Q 2053 2234 1993 2432 
Q 1934 2631 1819 2722 
Q 1738 2788 1606 2788 
z
" transform="scale(0.015625)"/>
      <path id="TimesNewRomanPS-BoldMT-6e" d="M 1409 2922 
L 1409 2544 
Q 1634 2788 1840 2898 
Q 2047 3009 2284 3009 
Q 2569 3009 2756 2851 
Q 2944 2694 3006 2459 
Q 3056 2281 3056 1775 
L 3056 638 
Q 3056 300 3117 217 
Q 3178 134 3372 113 
L 3372 0 
L 1894 0 
L 1894 113 
Q 2059 134 2131 250 
Q 2181 328 2181 638 
L 2181 1938 
Q 2181 2297 2153 2390 
Q 2125 2484 2058 2536 
Q 1991 2588 1909 2588 
Q 1641 2588 1409 2203 
L 1409 638 
Q 1409 309 1470 221 
Q 1531 134 1697 113 
L 1697 0 
L 219 0 
L 219 113 
Q 403 131 481 231 
Q 534 300 534 638 
L 534 2288 
Q 534 2619 473 2700 
Q 413 2781 219 2806 
L 219 2922 
L 1409 2922 
z
" transform="scale(0.015625)"/>
      <path id="TimesNewRomanPS-BoldMT-68" d="M 1409 4238 
L 1409 2547 
Q 1650 2800 1850 2904 
Q 2050 3009 2266 3009 
Q 2541 3009 2736 2853 
Q 2931 2697 2995 2486 
Q 3059 2275 3059 1775 
L 3059 634 
Q 3059 300 3121 217 
Q 3184 134 3375 113 
L 3375 0 
L 1894 0 
L 1894 113 
Q 2050 134 2128 238 
Q 2184 319 2184 634 
L 2184 1938 
Q 2184 2300 2156 2392 
Q 2128 2484 2061 2536 
Q 1994 2588 1909 2588 
Q 1784 2588 1665 2502 
Q 1547 2416 1409 2200 
L 1409 634 
Q 1409 322 1456 244 
Q 1516 138 1700 113 
L 1700 0 
L 219 0 
L 219 113 
Q 403 131 481 231 
Q 534 300 534 634 
L 534 3603 
Q 534 3934 473 4015 
Q 413 4097 219 4122 
L 219 4238 
L 1409 4238 
z
" transform="scale(0.015625)"/>
      <path id="TimesNewRomanPS-BoldMT-65" d="M 2691 1566 
L 1088 1566 
Q 1116 984 1397 647 
Q 1613 388 1916 388 
Q 2103 388 2256 492 
Q 2409 597 2584 869 
L 2691 800 
Q 2453 316 2165 114 
Q 1878 -88 1500 -88 
Q 850 -88 516 413 
Q 247 816 247 1413 
Q 247 2144 642 2576 
Q 1038 3009 1569 3009 
Q 2013 3009 2339 2645 
Q 2666 2281 2691 1566 
z
M 1922 1775 
Q 1922 2278 1867 2465 
Q 1813 2653 1697 2750 
Q 1631 2806 1522 2806 
Q 1359 2806 1256 2647 
Q 1072 2369 1072 1884 
L 1072 1775 
L 1922 1775 
z
" transform="scale(0.015625)"/>
      <path id="TimesNewRomanPS-BoldMT-6d" d="M 1428 2922 
L 1428 2538 
Q 1669 2800 1873 2904 
Q 2078 3009 2322 3009 
Q 2603 3009 2793 2878 
Q 2984 2747 3088 2478 
Q 3338 2759 3567 2884 
Q 3797 3009 4047 3009 
Q 4350 3009 4529 2870 
Q 4709 2731 4779 2517 
Q 4850 2303 4850 1834 
L 4850 638 
Q 4850 300 4911 219 
Q 4972 138 5166 113 
L 5166 0 
L 3656 0 
L 3656 113 
Q 3834 128 3919 250 
Q 3975 334 3975 638 
L 3975 1894 
Q 3975 2284 3944 2390 
Q 3913 2497 3845 2548 
Q 3778 2600 3688 2600 
Q 3553 2600 3415 2501 
Q 3278 2403 3138 2206 
L 3138 638 
Q 3138 322 3191 241 
Q 3263 125 3466 113 
L 3466 0 
L 1953 0 
L 1953 113 
Q 2075 119 2145 173 
Q 2216 228 2239 304 
Q 2263 381 2263 638 
L 2263 1894 
Q 2263 2291 2231 2391 
Q 2200 2491 2126 2547 
Q 2053 2603 1969 2603 
Q 1844 2603 1741 2538 
Q 1594 2441 1428 2206 
L 1428 638 
Q 1428 328 1489 229 
Q 1550 131 1744 113 
L 1744 0 
L 238 0 
L 238 113 
Q 422 131 500 231 
Q 553 300 553 638 
L 553 2288 
Q 553 2619 492 2700 
Q 431 2781 238 2806 
L 238 2922 
L 1428 2922 
z
" transform="scale(0.015625)"/>
      <path id="TimesNewRomanPS-BoldMT-6c" d="M 1359 4238 
L 1359 606 
Q 1359 297 1431 211 
Q 1503 125 1713 113 
L 1713 0 
L 134 0 
L 134 113 
Q 328 119 422 225 
Q 484 297 484 606 
L 484 3631 
Q 484 3938 412 4023 
Q 341 4109 134 4122 
L 134 4238 
L 1359 4238 
z
" transform="scale(0.015625)"/>
      <path id="TimesNewRomanPS-BoldMT-79" d="M 1556 -119 
L 613 2047 
Q 400 2538 298 2650 
Q 197 2763 53 2806 
L 53 2922 
L 1606 2922 
L 1606 2806 
Q 1453 2800 1390 2747 
Q 1328 2694 1328 2619 
Q 1328 2500 1484 2150 
L 1984 1006 
L 2325 1891 
Q 2509 2363 2509 2547 
Q 2509 2663 2432 2731 
Q 2356 2800 2163 2806 
L 2163 2922 
L 3141 2922 
L 3141 2806 
Q 2997 2791 2906 2695 
Q 2816 2600 2603 2047 
L 1769 -119 
Q 1453 -931 1300 -1119 
Q 1084 -1381 759 -1381 
Q 500 -1381 339 -1232 
Q 178 -1084 178 -875 
Q 178 -694 289 -575 
Q 400 -456 563 -456 
Q 719 -456 814 -556 
Q 909 -656 913 -866 
Q 916 -984 941 -1019 
Q 966 -1053 1013 -1053 
Q 1088 -1053 1172 -963 
Q 1297 -831 1466 -363 
L 1556 -119 
z
" transform="scale(0.015625)"/>
      <path id="TimesNewRomanPS-BoldMT-72" d="M 1428 2922 
L 1428 2259 
Q 1719 2713 1937 2861 
Q 2156 3009 2359 3009 
Q 2534 3009 2639 2901 
Q 2744 2794 2744 2597 
Q 2744 2388 2642 2272 
Q 2541 2156 2397 2156 
Q 2231 2156 2109 2262 
Q 1988 2369 1966 2381 
Q 1934 2400 1894 2400 
Q 1803 2400 1722 2331 
Q 1594 2225 1528 2028 
Q 1428 1725 1428 1359 
L 1428 688 
L 1431 513 
Q 1431 334 1453 284 
Q 1491 200 1564 161 
Q 1638 122 1813 113 
L 1813 0 
L 234 0 
L 234 113 
Q 425 128 492 217 
Q 559 306 559 688 
L 559 2303 
Q 559 2553 534 2622 
Q 503 2709 443 2750 
Q 384 2791 234 2806 
L 234 2922 
L 1428 2922 
z
" transform="scale(0.015625)"/>
      <path id="TimesNewRomanPS-BoldMT-76" d="M 1534 -88 
L 550 2178 
Q 372 2588 272 2697 
Q 200 2778 59 2806 
L 59 2922 
L 1613 2922 
L 1613 2806 
Q 1466 2806 1413 2753 
Q 1338 2684 1338 2591 
Q 1338 2475 1475 2156 
L 1956 1059 
L 2341 2006 
Q 2506 2413 2506 2581 
Q 2506 2678 2436 2739 
Q 2366 2800 2188 2806 
L 2188 2922 
L 3144 2922 
L 3144 2806 
Q 3006 2788 2918 2703 
Q 2831 2619 2656 2206 
L 1681 -88 
L 1534 -88 
z
" transform="scale(0.015625)"/>
      <path id="TimesNewRomanPS-BoldMT-75" d="M 3038 2922 
L 3038 634 
Q 3038 300 3100 217 
Q 3163 134 3353 113 
L 3353 0 
L 2163 0 
L 2163 391 
Q 1953 141 1743 26 
Q 1534 -88 1275 -88 
Q 1028 -88 836 64 
Q 644 216 578 419 
Q 513 622 513 1128 
L 513 2288 
Q 513 2619 452 2700 
Q 391 2781 197 2806 
L 197 2922 
L 1388 2922 
L 1388 925 
Q 1388 613 1417 522 
Q 1447 431 1511 384 
Q 1575 338 1659 338 
Q 1772 338 1863 397 
Q 1988 478 2163 725 
L 2163 2288 
Q 2163 2619 2102 2700 
Q 2041 2781 1847 2806 
L 1847 2922 
L 3038 2922 
z
" transform="scale(0.015625)"/>
      <path id="TimesNewRomanPS-BoldMT-66" d="M 1497 2616 
L 1497 588 
Q 1497 294 1559 219 
Q 1659 103 1928 113 
L 1928 0 
L 206 0 
L 206 113 
Q 403 116 486 158 
Q 569 200 600 275 
Q 631 350 631 588 
L 631 2616 
L 206 2616 
L 206 2922 
L 631 2922 
L 631 3138 
L 628 3284 
Q 628 3734 958 4034 
Q 1288 4334 1850 4334 
Q 2234 4334 2420 4190 
Q 2606 4047 2606 3872 
Q 2606 3731 2490 3628 
Q 2375 3525 2184 3525 
Q 2022 3525 1926 3609 
Q 1831 3694 1831 3797 
Q 1831 3825 1850 3913 
Q 1863 3966 1863 4013 
Q 1863 4078 1825 4109 
Q 1775 4156 1703 4156 
Q 1613 4156 1552 4081 
Q 1491 4006 1491 3841 
L 1497 3294 
L 1497 2922 
L 1928 2922 
L 1928 2616 
L 1497 2616 
z
" transform="scale(0.015625)"/>
      <path id="TimesNewRomanPS-BoldMT-64" d="M 3056 4238 
L 3056 875 
Q 3056 534 3075 472 
Q 3100 369 3170 319 
Q 3241 269 3416 256 
L 3416 153 
L 2181 -88 
L 2181 375 
Q 1959 106 1786 9 
Q 1613 -88 1394 -88 
Q 834 -88 509 413 
Q 247 819 247 1409 
Q 247 1881 409 2254 
Q 572 2628 855 2818 
Q 1138 3009 1463 3009 
Q 1672 3009 1834 2928 
Q 1997 2847 2181 2644 
L 2181 3525 
Q 2181 3859 2153 3928 
Q 2116 4019 2041 4062 
Q 1966 4106 1759 4106 
L 1759 4238 
L 3056 4238 
z
M 2181 2256 
Q 1950 2700 1616 2700 
Q 1500 2700 1425 2638 
Q 1309 2541 1236 2297 
Q 1163 2053 1163 1550 
Q 1163 997 1244 731 
Q 1325 466 1466 347 
Q 1538 288 1663 288 
Q 1938 288 2181 719 
L 2181 2256 
z
" transform="scale(0.015625)"/>
      <path id="TimesNewRomanPS-BoldMT-69" d="M 919 4338 
Q 1122 4338 1262 4195 
Q 1403 4053 1403 3853 
Q 1403 3653 1261 3512 
Q 1119 3372 919 3372 
Q 719 3372 578 3512 
Q 438 3653 438 3853 
Q 438 4053 578 4195 
Q 719 4338 919 4338 
z
M 1356 2922 
L 1356 606 
Q 1356 297 1428 211 
Q 1500 125 1709 113 
L 1709 0 
L 131 0 
L 131 113 
Q 325 119 419 225 
Q 481 297 481 606 
L 481 2313 
Q 481 2622 409 2708 
Q 338 2794 131 2806 
L 131 2922 
L 1356 2922 
z
" transform="scale(0.015625)"/>
      <path id="TimesNewRomanPS-BoldMT-63" d="M 2600 753 
L 2697 678 
Q 2491 291 2183 101 
Q 1875 -88 1528 -88 
Q 944 -88 594 353 
Q 244 794 244 1413 
Q 244 2009 563 2463 
Q 947 3009 1622 3009 
Q 2075 3009 2342 2781 
Q 2609 2553 2609 2272 
Q 2609 2094 2501 1987 
Q 2394 1881 2219 1881 
Q 2034 1881 1914 2003 
Q 1794 2125 1766 2438 
Q 1747 2634 1675 2713 
Q 1603 2791 1506 2791 
Q 1356 2791 1250 2631 
Q 1088 2391 1088 1894 
Q 1088 1481 1219 1104 
Q 1350 728 1578 544 
Q 1750 409 1984 409 
Q 2138 409 2275 481 
Q 2413 553 2600 753 
z
" transform="scale(0.015625)"/>
      <path id="TimesNewRomanPS-BoldMT-70" d="M 1347 297 
L 1347 -791 
Q 1347 -1016 1383 -1097 
Q 1419 -1178 1494 -1215 
Q 1569 -1253 1788 -1253 
L 1788 -1369 
L 122 -1369 
L 122 -1253 
Q 316 -1247 409 -1144 
Q 472 -1072 472 -772 
L 472 2313 
Q 472 2622 400 2708 
Q 328 2794 122 2806 
L 122 2922 
L 1347 2922 
L 1347 2538 
Q 1500 2763 1659 2863 
Q 1888 3009 2156 3009 
Q 2478 3009 2742 2806 
Q 3006 2603 3143 2245 
Q 3281 1888 3281 1475 
Q 3281 1031 3139 664 
Q 2997 297 2726 104 
Q 2456 -88 2125 -88 
Q 1884 -88 1675 19 
Q 1519 100 1347 297 
z
M 1347 613 
Q 1616 231 1922 231 
Q 2091 231 2200 409 
Q 2363 672 2363 1409 
Q 2363 2166 2184 2444 
Q 2066 2628 1866 2628 
Q 1550 2628 1347 2172 
L 1347 613 
z
" transform="scale(0.015625)"/>
      <path id="TimesNewRomanPS-BoldMT-73" d="M 2063 3003 
L 2109 2006 
L 2003 2006 
Q 1813 2450 1608 2612 
Q 1403 2775 1200 2775 
Q 1072 2775 981 2689 
Q 891 2603 891 2491 
Q 891 2406 953 2328 
Q 1053 2200 1512 1889 
Q 1972 1578 2117 1361 
Q 2263 1144 2263 875 
Q 2263 631 2141 397 
Q 2019 163 1797 37 
Q 1575 -88 1306 -88 
Q 1097 -88 747 44 
Q 653 78 619 78 
Q 516 78 447 -78 
L 344 -78 
L 294 972 
L 400 972 
Q 541 559 786 353 
Q 1031 147 1250 147 
Q 1400 147 1495 239 
Q 1591 331 1591 463 
Q 1591 613 1497 722 
Q 1403 831 1078 1053 
Q 600 1384 459 1559 
Q 253 1816 253 2125 
Q 253 2463 486 2736 
Q 719 3009 1159 3009 
Q 1397 3009 1619 2894 
Q 1703 2847 1756 2847 
Q 1813 2847 1847 2870 
Q 1881 2894 1956 3003 
L 2063 3003 
z
" transform="scale(0.015625)"/>
      <path id="TimesNewRomanPS-BoldMT-28" d="M 2056 4334 
L 2056 4191 
Q 1731 3978 1578 3775 
Q 1366 3494 1247 3053 
Q 1097 2506 1097 1525 
Q 1097 600 1233 87 
Q 1369 -425 1603 -741 
Q 1766 -959 2056 -1125 
L 2056 -1281 
Q 1303 -1028 779 -248 
Q 256 531 256 1544 
Q 256 2544 778 3314 
Q 1300 4084 2056 4334 
z
" transform="scale(0.015625)"/>
      <path id="TimesNewRomanPS-BoldMT-55" d="M 150 4238 
L 2338 4238 
L 2338 4122 
L 2228 4122 
Q 1981 4122 1889 4070 
Q 1797 4019 1758 3928 
Q 1719 3838 1719 3475 
L 1719 1400 
Q 1719 831 1805 647 
Q 1891 463 2087 341 
Q 2284 219 2584 219 
Q 2928 219 3170 373 
Q 3413 528 3533 800 
Q 3653 1072 3653 1747 
L 3653 3475 
Q 3653 3759 3593 3881 
Q 3534 4003 3444 4050 
Q 3303 4122 3047 4122 
L 3047 4238 
L 4513 4238 
L 4513 4122 
L 4425 4122 
Q 4247 4122 4128 4050 
Q 4009 3978 3956 3834 
Q 3916 3734 3916 3475 
L 3916 1866 
Q 3916 1119 3817 787 
Q 3719 456 3337 178 
Q 2956 -100 2297 -100 
Q 1747 -100 1447 47 
Q 1038 247 869 559 
Q 700 872 700 1400 
L 700 3475 
Q 700 3841 659 3930 
Q 619 4019 519 4072 
Q 419 4125 150 4122 
L 150 4238 
z
" transform="scale(0.015625)"/>
      <path id="TimesNewRomanPS-BoldMT-53" d="M 3006 4334 
L 3041 2922 
L 2913 2922 
Q 2822 3453 2467 3776 
Q 2113 4100 1700 4100 
Q 1381 4100 1195 3929 
Q 1009 3759 1009 3538 
Q 1009 3397 1075 3288 
Q 1166 3141 1366 2997 
Q 1513 2894 2044 2631 
Q 2788 2266 3047 1941 
Q 3303 1616 3303 1197 
Q 3303 666 2889 283 
Q 2475 -100 1838 -100 
Q 1638 -100 1459 -59 
Q 1281 -19 1013 94 
Q 863 156 766 156 
Q 684 156 593 93 
Q 503 31 447 -97 
L 331 -97 
L 331 1503 
L 447 1503 
Q 584 828 976 473 
Q 1369 119 1822 119 
Q 2172 119 2380 309 
Q 2588 500 2588 753 
Q 2588 903 2508 1043 
Q 2428 1184 2265 1311 
Q 2103 1438 1691 1641 
Q 1113 1925 859 2125 
Q 606 2325 470 2572 
Q 334 2819 334 3116 
Q 334 3622 706 3978 
Q 1078 4334 1644 4334 
Q 1850 4334 2044 4284 
Q 2191 4247 2402 4145 
Q 2613 4044 2697 4044 
Q 2778 4044 2825 4094 
Q 2872 4144 2913 4334 
L 3006 4334 
z
" transform="scale(0.015625)"/>
      <path id="TimesNewRomanPS-BoldMT-29" d="M 78 -1281 
L 78 -1138 
Q 403 -922 556 -719 
Q 766 -438 888 0 
Q 1038 550 1038 1531 
Q 1038 2456 902 2967 
Q 766 3478 531 3794 
Q 369 4013 78 4178 
L 78 4334 
Q 831 4081 1354 3301 
Q 1878 2522 1878 1509 
Q 1878 513 1354 -257 
Q 831 -1028 78 -1281 
z
" transform="scale(0.015625)"/>
     </defs>
     <use xlink:href="#TimesNewRomanPS-BoldMT-44"/>
     <use xlink:href="#TimesNewRomanPS-BoldMT-61" x="72.216797"/>
     <use xlink:href="#TimesNewRomanPS-BoldMT-74" x="122.216797"/>
     <use xlink:href="#TimesNewRomanPS-BoldMT-61" x="155.517578"/>
     <use xlink:href="#TimesNewRomanPS-BoldMT-20" x="205.517578"/>
     <use xlink:href="#TimesNewRomanPS-BoldMT-6f" x="230.517578"/>
     <use xlink:href="#TimesNewRomanPS-BoldMT-6e" x="280.517578"/>
     <use xlink:href="#TimesNewRomanPS-BoldMT-20" x="336.132812"/>
     <use xlink:href="#TimesNewRomanPS-BoldMT-74" x="361.132812"/>
     <use xlink:href="#TimesNewRomanPS-BoldMT-68" x="394.433594"/>
     <use xlink:href="#TimesNewRomanPS-BoldMT-65" x="450.048828"/>
     <use xlink:href="#TimesNewRomanPS-BoldMT-20" x="494.433594"/>
     <use xlink:href="#TimesNewRomanPS-BoldMT-6d" x="519.433594"/>
     <use xlink:href="#TimesNewRomanPS-BoldMT-6f" x="602.734375"/>
     <use xlink:href="#TimesNewRomanPS-BoldMT-6e" x="652.734375"/>
     <use xlink:href="#TimesNewRomanPS-BoldMT-74" x="708.349609"/>
     <use xlink:href="#TimesNewRomanPS-BoldMT-68" x="741.650391"/>
     <use xlink:href="#TimesNewRomanPS-BoldMT-6c" x="797.265625"/>
     <use xlink:href="#TimesNewRomanPS-BoldMT-79" x="825.048828"/>
     <use xlink:href="#TimesNewRomanPS-BoldMT-20" x="875.048828"/>
     <use xlink:href="#TimesNewRomanPS-BoldMT-72" x="900.048828"/>
     <use xlink:href="#TimesNewRomanPS-BoldMT-65" x="942.683594"/>
     <use xlink:href="#TimesNewRomanPS-BoldMT-76" x="987.068359"/>
     <use xlink:href="#TimesNewRomanPS-BoldMT-65" x="1037.068359"/>
     <use xlink:href="#TimesNewRomanPS-BoldMT-6e" x="1081.453125"/>
     <use xlink:href="#TimesNewRomanPS-BoldMT-75" x="1137.068359"/>
     <use xlink:href="#TimesNewRomanPS-BoldMT-65" x="1192.683594"/>
     <use xlink:href="#TimesNewRomanPS-BoldMT-20" x="1237.068359"/>
     <use xlink:href="#TimesNewRomanPS-BoldMT-6f" x="1262.068359"/>
     <use xlink:href="#TimesNewRomanPS-BoldMT-66" x="1312.068359"/>
     <use xlink:href="#TimesNewRomanPS-BoldMT-20" x="1345.369141"/>
     <use xlink:href="#TimesNewRomanPS-BoldMT-64" x="1370.369141"/>
     <use xlink:href="#TimesNewRomanPS-BoldMT-69" x="1425.984375"/>
     <use xlink:href="#TimesNewRomanPS-BoldMT-66" x="1453.767578"/>
     <use xlink:href="#TimesNewRomanPS-BoldMT-66" x="1487.068359"/>
     <use xlink:href="#TimesNewRomanPS-BoldMT-65" x="1520.369141"/>
     <use xlink:href="#TimesNewRomanPS-BoldMT-72" x="1564.753906"/>
     <use xlink:href="#TimesNewRomanPS-BoldMT-65" x="1607.388672"/>
     <use xlink:href="#TimesNewRomanPS-BoldMT-6e" x="1651.773438"/>
     <use xlink:href="#TimesNewRomanPS-BoldMT-74" x="1707.388672"/>
     <use xlink:href="#TimesNewRomanPS-BoldMT-20" x="1740.689453"/>
     <use xlink:href="#TimesNewRomanPS-BoldMT-63" x="1765.689453"/>
     <use xlink:href="#TimesNewRomanPS-BoldMT-6f" x="1810.074219"/>
     <use xlink:href="#TimesNewRomanPS-BoldMT-6d" x="1860.074219"/>
     <use xlink:href="#TimesNewRomanPS-BoldMT-70" x="1943.375"/>
     <use xlink:href="#TimesNewRomanPS-BoldMT-61" x="1998.990234"/>
     <use xlink:href="#TimesNewRomanPS-BoldMT-6e" x="2048.990234"/>
     <use xlink:href="#TimesNewRomanPS-BoldMT-69" x="2104.605469"/>
     <use xlink:href="#TimesNewRomanPS-BoldMT-65" x="2132.388672"/>
     <use xlink:href="#TimesNewRomanPS-BoldMT-73" x="2176.773438"/>
     <use xlink:href="#TimesNewRomanPS-BoldMT-20" x="2215.689453"/>
     <use xlink:href="#TimesNewRomanPS-BoldMT-28" x="2240.689453"/>
     <use xlink:href="#TimesNewRomanPS-BoldMT-55" x="2273.990234"/>
     <use xlink:href="#TimesNewRomanPS-BoldMT-53" x="2346.207031"/>
     <use xlink:href="#TimesNewRomanPS-BoldMT-44" x="2401.822266"/>
     <use xlink:href="#TimesNewRomanPS-BoldMT-29" x="2474.039062"/>
    </g>
   </g>
  </g>
 </g>
 <defs>
  <clipPath id="pee111bda8c">
   <rect x="60.915938" y="30.045" width="366.78" height="230.276465"/>
  </clipPath>
 </defs>
</svg>
