<?xml version="1.0" encoding="utf-8" standalone="no"?>
<!DOCTYPE svg PUBLIC "-//W3C//DTD SVG 1.1//EN"
  "http://www.w3.org/Graphics/SVG/1.1/DTD/svg11.dtd">
<svg xmlns:xlink="http://www.w3.org/1999/xlink" width="452.089687pt" height="319.942911pt" viewBox="0 0 452.089687 319.942911" xmlns="http://www.w3.org/2000/svg" version="1.1">
 <metadata>
  <rdf:RDF xmlns:dc="http://purl.org/dc/elements/1.1/" xmlns:cc="http://creativecommons.org/ns#" xmlns:rdf="http://www.w3.org/1999/02/22-rdf-syntax-ns#">
   <cc:Work>
    <dc:type rdf:resource="http://purl.org/dc/dcmitype/StillImage"/>
    <dc:date>2025-05-26T16:42:59.061296</dc:date>
    <dc:format>image/svg+xml</dc:format>
    <dc:creator>
     <cc:Agent>
      <dc:title>Matplotlib v3.7.2, https://matplotlib.org/</dc:title>
     </cc:Agent>
    </dc:creator>
   </cc:Work>
  </rdf:RDF>
 </metadata>
 <defs>
  <style type="text/css">*{stroke-linejoin: round; stroke-linecap: butt}</style>
 </defs>
 <g id="figure_1">
  <g id="patch_1">
   <path d="M 0 319.942911 
L 452.089687 319.942911 
L 452.089687 0 
L 0 0 
z
" style="fill: #ffffff"/>
  </g>
  <g id="axes_1">
   <g id="patch_2">
    <path d="M 60.915938 258.900181 
L 427.695937 258.900181 
L 427.695937 30.045 
L 60.915938 30.045 
z
" style="fill: #ffffff"/>
   </g>
   <g id="PolyCollection_1">
    <defs>
     <path id="m6bad70eab7" d="M 99.956124 -88.366159 
L 95.231751 -88.366159 
L 94.864819 -90.183498 
L 94.446005 -92.000837 
L 93.966973 -93.818176 
L 93.420507 -95.635515 
L 92.801765 -97.452854 
L 92.109386 -99.270193 
L 91.346242 -101.087532 
L 90.519623 -102.904871 
L 89.640745 -104.72221 
L 88.723589 -106.539549 
L 87.783192 -108.356888 
L 86.833644 -110.174227 
L 85.886108 -111.991566 
L 84.94721 -113.808905 
L 84.018095 -115.626244 
L 83.094349 -117.443583 
L 82.166855 -119.260922 
L 81.223485 -121.078261 
L 80.251408 -122.8956 
L 79.239697 -124.712939 
L 78.181873 -126.530278 
L 77.078031 -128.347617 
L 75.936253 -130.164956 
L 74.773111 -131.982295 
L 73.613171 -133.799634 
L 72.487492 -135.616973 
L 71.431274 -137.434312 
L 70.480842 -139.251651 
L 69.670264 -141.06899 
L 69.02795 -142.886329 
L 68.57362 -144.703668 
L 68.315992 -146.521007 
L 68.251538 -148.338346 
L 68.364513 -150.155685 
L 68.628351 -151.973024 
L 69.008294 -153.790363 
L 69.464989 -155.607702 
L 69.95859 -157.425041 
L 70.452844 -159.24238 
L 70.918603 -161.059719 
L 71.336341 -162.877058 
L 71.697367 -164.694397 
L 72.003688 -166.511736 
L 72.266658 -168.329075 
L 72.504736 -170.146414 
L 72.740775 -171.963753 
L 72.999273 -173.781092 
L 73.303955 -175.598431 
L 73.675909 -177.41577 
L 74.132369 -179.233109 
L 74.686078 -181.050448 
L 75.345085 -182.867787 
L 76.11277 -184.685126 
L 76.987955 -186.502465 
L 77.964985 -188.319804 
L 79.03378 -190.137143 
L 80.179946 -191.954482 
L 81.385049 -193.771821 
L 82.627196 -195.58916 
L 83.881978 -197.406499 
L 85.123789 -199.223838 
L 86.327414 -201.041177 
L 87.469729 -202.858516 
L 88.531307 -204.675855 
L 89.497719 -206.493194 
L 90.360371 -208.310533 
L 91.116789 -210.127872 
L 91.770337 -211.945211 
L 92.329419 -213.76255 
L 92.806291 -215.579889 
L 93.215635 -217.397228 
L 93.573046 -219.214567 
L 93.893586 -221.031906 
L 94.190558 -222.849245 
L 94.474565 -224.666584 
L 94.75296 -226.483923 
L 95.029665 -228.301262 
L 95.305377 -230.118601 
L 95.57807 -231.93594 
L 95.843717 -233.753279 
L 96.097117 -235.570618 
L 96.332711 -237.387957 
L 96.545306 -239.205296 
L 96.730626 -241.022635 
L 96.885664 -242.839974 
L 97.008854 -244.657313 
L 97.10007 -246.474652 
L 97.160522 -248.291991 
L 97.192589 -250.10933 
L 97.199633 -251.926669 
L 97.1858 -253.744008 
L 97.155841 -255.561347 
L 97.114912 -257.378686 
L 97.068357 -259.196025 
L 97.021464 -261.013364 
L 96.979181 -262.830703 
L 96.945821 -264.648042 
L 96.92478 -266.465381 
L 96.918314 -268.28272 
L 98.269561 -268.28272 
L 98.269561 -268.28272 
L 98.263095 -266.465381 
L 98.242054 -264.648042 
L 98.208694 -262.830703 
L 98.166411 -261.013364 
L 98.119518 -259.196025 
L 98.072963 -257.378686 
L 98.032034 -255.561347 
L 98.002075 -253.744008 
L 97.988242 -251.926669 
L 97.995286 -250.10933 
L 98.027353 -248.291991 
L 98.087805 -246.474652 
L 98.179021 -244.657313 
L 98.302211 -242.839974 
L 98.457249 -241.022635 
L 98.642569 -239.205296 
L 98.855164 -237.387957 
L 99.090758 -235.570618 
L 99.344158 -233.753279 
L 99.609805 -231.93594 
L 99.882498 -230.118601 
L 100.15821 -228.301262 
L 100.434915 -226.483923 
L 100.71331 -224.666584 
L 100.997317 -222.849245 
L 101.294289 -221.031906 
L 101.614829 -219.214567 
L 101.97224 -217.397228 
L 102.381584 -215.579889 
L 102.858456 -213.76255 
L 103.417538 -211.945211 
L 104.071086 -210.127872 
L 104.827504 -208.310533 
L 105.690156 -206.493194 
L 106.656568 -204.675855 
L 107.718146 -202.858516 
L 108.860461 -201.041177 
L 110.064086 -199.223838 
L 111.305897 -197.406499 
L 112.560679 -195.58916 
L 113.802826 -193.771821 
L 115.007929 -191.954482 
L 116.154095 -190.137143 
L 117.22289 -188.319804 
L 118.19992 -186.502465 
L 119.075105 -184.685126 
L 119.84279 -182.867787 
L 120.501797 -181.050448 
L 121.055506 -179.233109 
L 121.511966 -177.41577 
L 121.88392 -175.598431 
L 122.188602 -173.781092 
L 122.4471 -171.963753 
L 122.683139 -170.146414 
L 122.921217 -168.329075 
L 123.184187 -166.511736 
L 123.490508 -164.694397 
L 123.851534 -162.877058 
L 124.269272 -161.059719 
L 124.735031 -159.24238 
L 125.229285 -157.425041 
L 125.722886 -155.607702 
L 126.179581 -153.790363 
L 126.559524 -151.973024 
L 126.823362 -150.155685 
L 126.936338 -148.338346 
L 126.871883 -146.521007 
L 126.614255 -144.703668 
L 126.159925 -142.886329 
L 125.517611 -141.06899 
L 124.707033 -139.251651 
L 123.756601 -137.434312 
L 122.700383 -135.616973 
L 121.574704 -133.799634 
L 120.414764 -131.982295 
L 119.251622 -130.164956 
L 118.109844 -128.347617 
L 117.006002 -126.530278 
L 115.948178 -124.712939 
L 114.936467 -122.8956 
L 113.96439 -121.078261 
L 113.02102 -119.260922 
L 112.093526 -117.443583 
L 111.16978 -115.626244 
L 110.240665 -113.808905 
L 109.301767 -111.991566 
L 108.354231 -110.174227 
L 107.404683 -108.356888 
L 106.464286 -106.539549 
L 105.54713 -104.72221 
L 104.668252 -102.904871 
L 103.841633 -101.087532 
L 103.078489 -99.270193 
L 102.38611 -97.452854 
L 101.767368 -95.635515 
L 101.220902 -93.818176 
L 100.74187 -92.000837 
L 100.323056 -90.183498 
L 99.956124 -88.366159 
z
" style="stroke: #000000; stroke-opacity: 0.7"/>
    </defs>
    <g clip-path="url(#p85f35d3414)">
     <use xlink:href="#m6bad70eab7" x="0" y="319.942911" style="fill: #aec7e8; fill-opacity: 0.7; stroke: #000000; stroke-opacity: 0.7"/>
    </g>
   </g>
   <g id="PolyCollection_2">
    <defs>
     <path id="mca6af4b16f" d="M 175.694605 -90.896914 
L 166.20527 -90.896914 
L 165.589415 -92.220193 
L 164.960528 -93.543471 
L 164.33089 -94.86675 
L 163.713515 -96.190028 
L 163.121371 -97.513306 
L 162.566485 -98.836585 
L 162.059003 -100.159863 
L 161.60628 -101.483142 
L 161.212083 -102.80642 
L 160.876011 -104.129698 
L 160.593188 -105.452977 
L 160.3543 -106.776255 
L 160.145991 -108.099533 
L 159.951611 -109.422812 
L 159.752274 -110.74609 
L 159.528136 -112.069369 
L 159.259789 -113.392647 
L 158.929645 -114.715925 
L 158.523192 -116.039204 
L 158.029998 -117.362482 
L 157.444394 -118.685761 
L 156.76577 -120.009039 
L 155.998483 -121.332317 
L 155.151415 -122.655596 
L 154.237227 -123.978874 
L 153.271425 -125.302153 
L 152.27131 -126.625431 
L 151.254934 -127.948709 
L 150.240134 -129.271988 
L 149.243709 -130.595266 
L 148.280775 -131.918544 
L 147.364319 -133.241823 
L 146.504925 -134.565101 
L 145.710677 -135.88838 
L 144.987188 -137.211658 
L 144.337738 -138.534936 
L 143.763508 -139.858215 
L 143.263883 -141.181493 
L 142.836816 -142.504772 
L 142.479248 -143.82805 
L 142.187559 -145.151328 
L 141.958039 -146.474607 
L 141.787335 -147.797885 
L 141.672849 -149.121163 
L 141.61303 -150.444442 
L 141.607538 -151.76772 
L 141.657241 -153.090999 
L 141.764045 -154.414277 
L 141.930557 -155.737555 
L 142.159631 -157.060834 
L 142.453837 -158.384112 
L 142.814929 -159.707391 
L 143.243374 -161.030669 
L 143.738021 -162.353947 
L 144.29594 -163.677226 
L 144.912466 -165.000504 
L 145.58145 -166.323783 
L 146.295671 -167.647061 
L 147.047369 -168.970339 
L 147.82883 -170.293618 
L 148.632932 -171.616896 
L 149.453599 -172.940174 
L 150.2861 -174.263453 
L 151.127153 -175.586731 
L 151.974838 -176.91001 
L 152.828323 -178.233288 
L 153.687459 -179.556566 
L 154.552296 -180.879845 
L 155.422587 -182.203123 
L 156.297349 -183.526402 
L 157.174535 -184.84968 
L 158.050858 -186.172958 
L 158.921782 -187.496237 
L 159.781674 -188.819515 
L 160.624098 -190.142794 
L 161.442198 -191.466072 
L 162.22914 -192.78935 
L 162.978534 -194.112629 
L 163.684824 -195.435907 
L 164.343586 -196.759185 
L 164.951728 -198.082464 
L 165.507572 -199.405742 
L 166.01085 -200.729021 
L 166.462595 -202.052299 
L 166.864982 -203.375577 
L 167.221126 -204.698856 
L 167.534856 -206.022134 
L 167.8105 -207.345413 
L 168.052677 -208.668691 
L 168.266108 -209.991969 
L 168.455458 -211.315248 
L 168.625191 -212.638526 
L 168.779457 -213.961804 
L 168.921989 -215.285083 
L 169.056025 -216.608361 
L 169.18425 -217.93164 
L 169.308751 -219.254918 
L 169.431007 -220.578196 
L 169.551892 -221.901475 
L 172.347983 -221.901475 
L 172.347983 -221.901475 
L 172.468868 -220.578196 
L 172.591124 -219.254918 
L 172.715625 -217.93164 
L 172.84385 -216.608361 
L 172.977886 -215.285083 
L 173.120418 -213.961804 
L 173.274684 -212.638526 
L 173.444417 -211.315248 
L 173.633767 -209.991969 
L 173.847198 -208.668691 
L 174.089375 -207.345413 
L 174.365019 -206.022134 
L 174.678749 -204.698856 
L 175.034893 -203.375577 
L 175.43728 -202.052299 
L 175.889025 -200.729021 
L 176.392303 -199.405742 
L 176.948147 -198.082464 
L 177.556289 -196.759185 
L 178.215051 -195.435907 
L 178.921341 -194.112629 
L 179.670735 -192.78935 
L 180.457677 -191.466072 
L 181.275777 -190.142794 
L 182.118201 -188.819515 
L 182.978093 -187.496237 
L 183.849017 -186.172958 
L 184.72534 -184.84968 
L 185.602526 -183.526402 
L 186.477288 -182.203123 
L 187.347579 -180.879845 
L 188.212416 -179.556566 
L 189.071552 -178.233288 
L 189.925037 -176.91001 
L 190.772722 -175.586731 
L 191.613775 -174.263453 
L 192.446276 -172.940174 
L 193.266943 -171.616896 
L 194.071045 -170.293618 
L 194.852506 -168.970339 
L 195.604204 -167.647061 
L 196.318425 -166.323783 
L 196.987409 -165.000504 
L 197.603935 -163.677226 
L 198.161854 -162.353947 
L 198.656501 -161.030669 
L 199.084946 -159.707391 
L 199.446038 -158.384112 
L 199.740244 -157.060834 
L 199.969318 -155.737555 
L 200.13583 -154.414277 
L 200.242634 -153.090999 
L 200.292338 -151.76772 
L 200.286845 -150.444442 
L 200.227026 -149.121163 
L 200.11254 -147.797885 
L 199.941836 -146.474607 
L 199.712316 -145.151328 
L 199.420627 -143.82805 
L 199.063059 -142.504772 
L 198.635992 -141.181493 
L 198.136367 -139.858215 
L 197.562137 -138.534936 
L 196.912687 -137.211658 
L 196.189198 -135.88838 
L 195.39495 -134.565101 
L 194.535556 -133.241823 
L 193.6191 -131.918544 
L 192.656166 -130.595266 
L 191.659741 -129.271988 
L 190.644941 -127.948709 
L 189.628565 -126.625431 
L 188.62845 -125.302153 
L 187.662648 -123.978874 
L 186.74846 -122.655596 
L 185.901392 -121.332317 
L 185.134105 -120.009039 
L 184.455481 -118.685761 
L 183.869877 -117.362482 
L 183.376683 -116.039204 
L 182.97023 -114.715925 
L 182.640086 -113.392647 
L 182.371739 -112.069369 
L 182.147601 -110.74609 
L 181.948264 -109.422812 
L 181.753884 -108.099533 
L 181.545575 -106.776255 
L 181.306687 -105.452977 
L 181.023864 -104.129698 
L 180.687792 -102.80642 
L 180.293595 -101.483142 
L 179.840872 -100.159863 
L 179.33339 -98.836585 
L 178.778504 -97.513306 
L 178.18636 -96.190028 
L 177.568985 -94.86675 
L 176.939347 -93.543471 
L 176.31046 -92.220193 
L 175.694605 -90.896914 
z
" style="stroke: #000000; stroke-opacity: 0.7"/>
    </defs>
    <g clip-path="url(#p85f35d3414)">
     <use xlink:href="#mca6af4b16f" x="0" y="319.942911" style="fill: #8c564b; fill-opacity: 0.7; stroke: #000000; stroke-opacity: 0.7"/>
    </g>
   </g>
   <g id="PolyCollection_3">
    <defs>
     <path id="m95e05313cf" d="M 244.930062 -71.445239 
L 243.681813 -71.445239 
L 243.688408 -73.221198 
L 243.709736 -74.997157 
L 243.743247 -76.773116 
L 243.785111 -78.549075 
L 243.830477 -80.325034 
L 243.873806 -82.100993 
L 243.909189 -83.876952 
L 243.93064 -85.652911 
L 243.932332 -87.42887 
L 243.908784 -89.204829 
L 243.855011 -90.980788 
L 243.76666 -92.756747 
L 243.640147 -94.532706 
L 243.472782 -96.308665 
L 243.262877 -98.084624 
L 243.009782 -99.860583 
L 242.713851 -101.636542 
L 242.376292 -103.412501 
L 241.998932 -105.18846 
L 241.583925 -106.964419 
L 241.133463 -108.740378 
L 240.649551 -110.516337 
L 240.13388 -112.292296 
L 239.587816 -114.068255 
L 239.012458 -115.844214 
L 238.408709 -117.620173 
L 237.777276 -119.396132 
L 237.118541 -121.172091 
L 236.432288 -122.94805 
L 235.717338 -124.724009 
L 234.971186 -126.499968 
L 234.1898 -128.275927 
L 233.367696 -130.051886 
L 232.498418 -131.827844 
L 231.575417 -133.603803 
L 230.593272 -135.379762 
L 229.549077 -137.155721 
L 228.443753 -138.93168 
L 227.283038 -140.707639 
L 226.077922 -142.483598 
L 224.844395 -144.259557 
L 223.602492 -146.035516 
L 222.37477 -147.811475 
L 221.184494 -149.587434 
L 220.05385 -151.363393 
L 219.002567 -153.139352 
L 218.047179 -154.915311 
L 217.201067 -156.69127 
L 216.475161 -158.467229 
L 215.879038 -160.243188 
L 215.421979 -162.019147 
L 215.113574 -163.795106 
L 214.963538 -165.571065 
L 214.980625 -167.347024 
L 215.170816 -169.122983 
L 215.535166 -170.898942 
L 216.067877 -172.674901 
L 216.755166 -174.45086 
L 217.575332 -176.226819 
L 218.500172 -178.002778 
L 219.497584 -179.778737 
L 220.534886 -181.554696 
L 221.582239 -183.330655 
L 222.615509 -185.106614 
L 223.618067 -186.882573 
L 224.581248 -188.658532 
L 225.503509 -190.434491 
L 226.388586 -192.21045 
L 227.243121 -193.986409 
L 228.074309 -195.762368 
L 228.888016 -197.538327 
L 229.687668 -199.314286 
L 230.474014 -201.090245 
L 231.24563 -202.866204 
L 231.999921 -204.642163 
L 232.73428 -206.418122 
L 233.447085 -208.194081 
L 234.138297 -209.97004 
L 234.809543 -211.745999 
L 235.463684 -213.521958 
L 236.10402 -215.297917 
L 236.733312 -217.073876 
L 237.352876 -218.849835 
L 237.961948 -220.625794 
L 238.557447 -222.401753 
L 239.134206 -224.177712 
L 239.685602 -225.953671 
L 240.204468 -227.72963 
L 240.684104 -229.505589 
L 241.119214 -231.281548 
L 241.506607 -233.057507 
L 241.845572 -234.833466 
L 242.137896 -236.609425 
L 242.387551 -238.385384 
L 242.600139 -240.161343 
L 242.782188 -241.937302 
L 242.940425 -243.713261 
L 243.081108 -245.48922 
L 243.209508 -247.265179 
L 245.402367 -247.265179 
L 245.402367 -247.265179 
L 245.530767 -245.48922 
L 245.67145 -243.713261 
L 245.829687 -241.937302 
L 246.011736 -240.161343 
L 246.224324 -238.385384 
L 246.473979 -236.609425 
L 246.766303 -234.833466 
L 247.105268 -233.057507 
L 247.492661 -231.281548 
L 247.927771 -229.505589 
L 248.407407 -227.72963 
L 248.926273 -225.953671 
L 249.477669 -224.177712 
L 250.054428 -222.401753 
L 250.649927 -220.625794 
L 251.258999 -218.849835 
L 251.878563 -217.073876 
L 252.507855 -215.297917 
L 253.148191 -213.521958 
L 253.802332 -211.745999 
L 254.473578 -209.97004 
L 255.16479 -208.194081 
L 255.877595 -206.418122 
L 256.611954 -204.642163 
L 257.366245 -202.866204 
L 258.137861 -201.090245 
L 258.924207 -199.314286 
L 259.723859 -197.538327 
L 260.537566 -195.762368 
L 261.368754 -193.986409 
L 262.223289 -192.21045 
L 263.108366 -190.434491 
L 264.030627 -188.658532 
L 264.993808 -186.882573 
L 265.996366 -185.106614 
L 267.029636 -183.330655 
L 268.076989 -181.554696 
L 269.114291 -179.778737 
L 270.111703 -178.002778 
L 271.036543 -176.226819 
L 271.856709 -174.45086 
L 272.543998 -172.674901 
L 273.076709 -170.898942 
L 273.441059 -169.122983 
L 273.63125 -167.347024 
L 273.648337 -165.571065 
L 273.498301 -163.795106 
L 273.189896 -162.019147 
L 272.732837 -160.243188 
L 272.136714 -158.467229 
L 271.410808 -156.69127 
L 270.564696 -154.915311 
L 269.609308 -153.139352 
L 268.558025 -151.363393 
L 267.427381 -149.587434 
L 266.237105 -147.811475 
L 265.009383 -146.035516 
L 263.76748 -144.259557 
L 262.533953 -142.483598 
L 261.328837 -140.707639 
L 260.168122 -138.93168 
L 259.062798 -137.155721 
L 258.018603 -135.379762 
L 257.036458 -133.603803 
L 256.113457 -131.827844 
L 255.244179 -130.051886 
L 254.422075 -128.275927 
L 253.640689 -126.499968 
L 252.894537 -124.724009 
L 252.179587 -122.94805 
L 251.493334 -121.172091 
L 250.834599 -119.396132 
L 250.203166 -117.620173 
L 249.599417 -115.844214 
L 249.024059 -114.068255 
L 248.477995 -112.292296 
L 247.962324 -110.516337 
L 247.478412 -108.740378 
L 247.02795 -106.964419 
L 246.612943 -105.18846 
L 246.235583 -103.412501 
L 245.898024 -101.636542 
L 245.602093 -99.860583 
L 245.348998 -98.084624 
L 245.139093 -96.308665 
L 244.971728 -94.532706 
L 244.845215 -92.756747 
L 244.756864 -90.980788 
L 244.703091 -89.204829 
L 244.679543 -87.42887 
L 244.681235 -85.652911 
L 244.702686 -83.876952 
L 244.738069 -82.100993 
L 244.781398 -80.325034 
L 244.826764 -78.549075 
L 244.868628 -76.773116 
L 244.902139 -74.997157 
L 244.923467 -73.221198 
L 244.930062 -71.445239 
z
" style="stroke: #000000; stroke-opacity: 0.7"/>
    </defs>
    <g clip-path="url(#p85f35d3414)">
     <use xlink:href="#m95e05313cf" x="0" y="319.942911" style="fill: #d62728; fill-opacity: 0.7; stroke: #000000; stroke-opacity: 0.7"/>
    </g>
   </g>
   <g id="PolyCollection_4">
    <defs>
     <path id="m3fb2af08d2" d="M 318.466451 -73.639115 
L 316.857424 -73.639115 
L 316.803837 -75.718471 
L 316.74432 -77.797828 
L 316.673356 -79.877184 
L 316.584381 -81.956541 
L 316.470134 -84.035897 
L 316.323101 -86.115254 
L 316.136028 -88.19461 
L 315.90246 -90.273967 
L 315.617265 -92.353323 
L 315.277095 -94.43268 
L 314.880746 -96.512036 
L 314.429369 -98.591392 
L 313.9265 -100.670749 
L 313.377883 -102.750105 
L 312.791071 -104.829462 
L 312.174824 -106.908818 
L 311.538334 -108.988175 
L 310.890348 -111.067531 
L 310.238276 -113.146888 
L 309.587397 -115.226244 
L 308.940266 -117.3056 
L 308.296422 -119.384957 
L 307.652469 -121.464313 
L 307.002534 -123.54367 
L 306.339077 -125.623026 
L 305.653964 -127.702383 
L 304.939654 -129.781739 
L 304.190371 -131.861096 
L 303.403071 -133.940452 
L 302.578081 -136.019808 
L 301.719321 -138.099165 
L 300.83406 -140.178521 
L 299.932256 -142.257878 
L 299.025546 -144.337234 
L 298.126047 -146.416591 
L 297.245117 -148.495947 
L 296.392248 -150.575304 
L 295.574261 -152.65466 
L 294.794895 -154.734016 
L 294.054881 -156.813373 
L 293.352481 -158.892729 
L 292.68445 -160.972086 
L 292.047276 -163.051442 
L 291.438552 -165.130799 
L 290.858255 -167.210155 
L 290.309752 -169.289512 
L 289.80035 -171.368868 
L 289.341268 -173.448224 
L 288.947004 -175.527581 
L 288.634145 -177.606937 
L 288.419748 -179.686294 
L 288.319537 -181.76565 
L 288.34614 -183.845007 
L 288.507631 -185.924363 
L 288.806593 -188.00372 
L 289.239814 -190.083076 
L 289.798644 -192.162432 
L 290.469932 -194.241789 
L 291.237367 -196.321145 
L 292.082997 -198.400502 
L 292.988693 -200.479858 
L 293.937352 -202.559215 
L 294.91372 -204.638571 
L 295.904784 -206.717928 
L 296.899773 -208.797284 
L 297.88989 -210.876641 
L 298.867898 -212.955997 
L 299.827707 -215.035353 
L 300.764078 -217.11471 
L 301.672483 -219.194066 
L 302.54914 -221.273423 
L 303.391162 -223.352779 
L 304.196758 -225.432136 
L 304.965399 -227.511492 
L 305.697875 -229.590849 
L 306.396208 -231.670205 
L 307.063406 -233.749561 
L 307.703084 -235.828918 
L 308.319 -237.908274 
L 308.914574 -239.987631 
L 309.492457 -242.066987 
L 310.054214 -244.146344 
L 310.600158 -246.2257 
L 311.129371 -248.305057 
L 311.639888 -250.384413 
L 312.129027 -252.463769 
L 312.593814 -254.543126 
L 313.031434 -256.622482 
L 313.439646 -258.701839 
L 313.817116 -260.781195 
L 314.163606 -262.860552 
L 314.480018 -264.939908 
L 314.768294 -267.019265 
L 315.031185 -269.098621 
L 315.271941 -271.177977 
L 315.493969 -273.257334 
L 315.700494 -275.33669 
L 315.894286 -277.416047 
L 316.077463 -279.495403 
L 319.246412 -279.495403 
L 319.246412 -279.495403 
L 319.429589 -277.416047 
L 319.623381 -275.33669 
L 319.829906 -273.257334 
L 320.051934 -271.177977 
L 320.29269 -269.098621 
L 320.555581 -267.019265 
L 320.843857 -264.939908 
L 321.160269 -262.860552 
L 321.506759 -260.781195 
L 321.884229 -258.701839 
L 322.292441 -256.622482 
L 322.730061 -254.543126 
L 323.194848 -252.463769 
L 323.683987 -250.384413 
L 324.194504 -248.305057 
L 324.723717 -246.2257 
L 325.269661 -244.146344 
L 325.831418 -242.066987 
L 326.409301 -239.987631 
L 327.004875 -237.908274 
L 327.620791 -235.828918 
L 328.260469 -233.749561 
L 328.927667 -231.670205 
L 329.626 -229.590849 
L 330.358476 -227.511492 
L 331.127117 -225.432136 
L 331.932713 -223.352779 
L 332.774735 -221.273423 
L 333.651392 -219.194066 
L 334.559797 -217.11471 
L 335.496168 -215.035353 
L 336.455977 -212.955997 
L 337.433985 -210.876641 
L 338.424102 -208.797284 
L 339.419091 -206.717928 
L 340.410155 -204.638571 
L 341.386523 -202.559215 
L 342.335182 -200.479858 
L 343.240878 -198.400502 
L 344.086508 -196.321145 
L 344.853943 -194.241789 
L 345.525231 -192.162432 
L 346.084061 -190.083076 
L 346.517282 -188.00372 
L 346.816244 -185.924363 
L 346.977735 -183.845007 
L 347.004337 -181.76565 
L 346.904127 -179.686294 
L 346.68973 -177.606937 
L 346.376871 -175.527581 
L 345.982607 -173.448224 
L 345.523525 -171.368868 
L 345.014123 -169.289512 
L 344.46562 -167.210155 
L 343.885323 -165.130799 
L 343.276599 -163.051442 
L 342.639425 -160.972086 
L 341.971394 -158.892729 
L 341.268994 -156.813373 
L 340.52898 -154.734016 
L 339.749614 -152.65466 
L 338.931627 -150.575304 
L 338.078758 -148.495947 
L 337.197828 -146.416591 
L 336.298329 -144.337234 
L 335.391619 -142.257878 
L 334.489815 -140.178521 
L 333.604554 -138.099165 
L 332.745794 -136.019808 
L 331.920804 -133.940452 
L 331.133504 -131.861096 
L 330.384221 -129.781739 
L 329.669911 -127.702383 
L 328.984798 -125.623026 
L 328.321341 -123.54367 
L 327.671406 -121.464313 
L 327.027453 -119.384957 
L 326.383609 -117.3056 
L 325.736478 -115.226244 
L 325.085599 -113.146888 
L 324.433527 -111.067531 
L 323.785541 -108.988175 
L 323.149051 -106.908818 
L 322.532804 -104.829462 
L 321.945992 -102.750105 
L 321.397375 -100.670749 
L 320.894506 -98.591392 
L 320.443129 -96.512036 
L 320.04678 -94.43268 
L 319.70661 -92.353323 
L 319.421415 -90.273967 
L 319.187847 -88.19461 
L 319.000774 -86.115254 
L 318.853741 -84.035897 
L 318.739494 -81.956541 
L 318.650519 -79.877184 
L 318.579555 -77.797828 
L 318.520038 -75.718471 
L 318.466451 -73.639115 
z
" style="stroke: #000000; stroke-opacity: 0.7"/>
    </defs>
    <g clip-path="url(#p85f35d3414)">
     <use xlink:href="#m3fb2af08d2" x="0" y="319.942911" style="fill: #fc8d62; fill-opacity: 0.7; stroke: #000000; stroke-opacity: 0.7"/>
    </g>
   </g>
   <g id="PolyCollection_5">
    <defs>
     <path id="md22816c17e" d="M 393.645461 -114.24558 
L 388.390414 -114.24558 
L 388.249852 -115.395062 
L 388.137701 -116.544544 
L 388.051466 -117.694026 
L 387.985237 -118.843509 
L 387.929799 -119.992991 
L 387.873038 -121.142473 
L 387.800614 -122.291956 
L 387.69682 -123.441438 
L 387.545556 -124.59092 
L 387.331313 -125.740403 
L 387.040088 -126.889885 
L 386.66014 -128.039367 
L 386.182575 -129.18885 
L 385.601704 -130.338332 
L 384.915221 -131.487814 
L 384.124196 -132.637296 
L 383.232952 -133.786779 
L 382.248858 -134.936261 
L 381.182069 -136.085743 
L 380.045259 -137.235226 
L 378.853322 -138.384708 
L 377.623058 -139.53419 
L 376.372796 -140.683673 
L 375.121927 -141.833155 
L 373.890309 -142.982637 
L 372.697524 -144.13212 
L 371.561982 -145.281602 
L 370.499909 -146.431084 
L 369.524307 -147.580566 
L 368.643967 -148.730049 
L 367.862701 -149.879531 
L 367.178913 -151.029013 
L 366.585647 -152.178496 
L 366.071184 -153.327978 
L 365.620188 -154.47746 
L 365.215346 -155.626943 
L 364.839326 -156.776425 
L 364.476821 -157.925907 
L 364.116428 -159.07539 
L 363.75208 -160.224872 
L 363.383829 -161.374354 
L 363.017851 -162.523837 
L 362.665659 -163.673319 
L 362.342642 -164.822801 
L 362.066138 -165.972283 
L 361.853342 -167.121766 
L 361.719336 -168.271248 
L 361.675537 -169.42073 
L 361.728752 -170.570213 
L 361.880922 -171.719695 
L 362.129552 -172.869177 
L 362.468673 -174.01866 
L 362.890128 -175.168142 
L 363.384953 -176.317624 
L 363.944606 -177.467107 
L 364.561867 -178.616589 
L 365.231311 -179.766071 
L 365.949324 -180.915553 
L 366.713748 -182.065036 
L 367.523246 -183.214518 
L 368.376582 -184.364 
L 369.271919 -185.513483 
L 370.206302 -186.662965 
L 371.175357 -187.812447 
L 372.173249 -188.96193 
L 373.19285 -190.111412 
L 374.226055 -191.260894 
L 375.264159 -192.410377 
L 376.298219 -193.559859 
L 377.319349 -194.709341 
L 378.318922 -195.858823 
L 379.288696 -197.008306 
L 380.220893 -198.157788 
L 381.108284 -199.30727 
L 381.944318 -200.456753 
L 382.723322 -201.606235 
L 383.440766 -202.755717 
L 384.093571 -203.9052 
L 384.680392 -205.054682 
L 385.20183 -206.204164 
L 385.660505 -207.353647 
L 386.060957 -208.503129 
L 386.409355 -209.652611 
L 386.713054 -210.802093 
L 386.98003 -211.951576 
L 387.218288 -213.101058 
L 387.435293 -214.25054 
L 387.637524 -215.400023 
L 387.830172 -216.549505 
L 388.017018 -217.698987 
L 388.200483 -218.84847 
L 388.381808 -219.997952 
L 388.561321 -221.147434 
L 388.738733 -222.296917 
L 388.913416 -223.446399 
L 389.084622 -224.595881 
L 389.251621 -225.745363 
L 389.413771 -226.894846 
L 389.570517 -228.044328 
L 392.465358 -228.044328 
L 392.465358 -228.044328 
L 392.622104 -226.894846 
L 392.784254 -225.745363 
L 392.951253 -224.595881 
L 393.122459 -223.446399 
L 393.297142 -222.296917 
L 393.474554 -221.147434 
L 393.654067 -219.997952 
L 393.835392 -218.84847 
L 394.018857 -217.698987 
L 394.205703 -216.549505 
L 394.398351 -215.400023 
L 394.600582 -214.25054 
L 394.817587 -213.101058 
L 395.055845 -211.951576 
L 395.322821 -210.802093 
L 395.62652 -209.652611 
L 395.974918 -208.503129 
L 396.37537 -207.353647 
L 396.834045 -206.204164 
L 397.355483 -205.054682 
L 397.942304 -203.9052 
L 398.595109 -202.755717 
L 399.312553 -201.606235 
L 400.091557 -200.456753 
L 400.927591 -199.30727 
L 401.814982 -198.157788 
L 402.747179 -197.008306 
L 403.716953 -195.858823 
L 404.716526 -194.709341 
L 405.737656 -193.559859 
L 406.771716 -192.410377 
L 407.80982 -191.260894 
L 408.843025 -190.111412 
L 409.862626 -188.96193 
L 410.860518 -187.812447 
L 411.829573 -186.662965 
L 412.763956 -185.513483 
L 413.659293 -184.364 
L 414.512629 -183.214518 
L 415.322127 -182.065036 
L 416.086551 -180.915553 
L 416.804564 -179.766071 
L 417.474008 -178.616589 
L 418.091269 -177.467107 
L 418.650922 -176.317624 
L 419.145747 -175.168142 
L 419.567202 -174.01866 
L 419.906323 -172.869177 
L 420.154953 -171.719695 
L 420.307123 -170.570213 
L 420.360337 -169.42073 
L 420.316539 -168.271248 
L 420.182533 -167.121766 
L 419.969737 -165.972283 
L 419.693233 -164.822801 
L 419.370216 -163.673319 
L 419.018024 -162.523837 
L 418.652046 -161.374354 
L 418.283795 -160.224872 
L 417.919447 -159.07539 
L 417.559054 -157.925907 
L 417.196549 -156.776425 
L 416.820529 -155.626943 
L 416.415687 -154.47746 
L 415.964691 -153.327978 
L 415.450228 -152.178496 
L 414.856962 -151.029013 
L 414.173174 -149.879531 
L 413.391908 -148.730049 
L 412.511568 -147.580566 
L 411.535966 -146.431084 
L 410.473893 -145.281602 
L 409.338351 -144.13212 
L 408.145566 -142.982637 
L 406.913948 -141.833155 
L 405.663079 -140.683673 
L 404.412817 -139.53419 
L 403.182553 -138.384708 
L 401.990616 -137.235226 
L 400.853806 -136.085743 
L 399.787017 -134.936261 
L 398.802923 -133.786779 
L 397.911679 -132.637296 
L 397.120654 -131.487814 
L 396.434171 -130.338332 
L 395.8533 -129.18885 
L 395.375735 -128.039367 
L 394.995787 -126.889885 
L 394.704562 -125.740403 
L 394.490319 -124.59092 
L 394.339055 -123.441438 
L 394.235261 -122.291956 
L 394.162837 -121.142473 
L 394.106076 -119.992991 
L 394.050638 -118.843509 
L 393.984409 -117.694026 
L 393.898174 -116.544544 
L 393.786023 -115.395062 
L 393.645461 -114.24558 
z
" style="stroke: #000000; stroke-opacity: 0.7"/>
    </defs>
    <g clip-path="url(#p85f35d3414)">
     <use xlink:href="#md22816c17e" x="0" y="319.942911" style="fill: #bcbd22; fill-opacity: 0.7; stroke: #000000; stroke-opacity: 0.7"/>
    </g>
   </g>
   <g id="matplotlib.axis_1">
    <g id="xtick_1">
     <g id="line2d_1">
      <defs>
       <path id="m50c5547678" d="M 0 0 
L 0 3.5 
" style="stroke: #000000; stroke-width: 0.8"/>
      </defs>
      <g>
       <use xlink:href="#m50c5547678" x="97.593938" y="258.900181" style="stroke: #000000; stroke-width: 0.8"/>
      </g>
     </g>
     <g id="text_1">
      <!-- BluePeak -->
      <g transform="translate(63.257716 304.313315) rotate(-45) scale(0.12 -0.12)">
       <defs>
        <path id="TimesNewRomanPSMT-42" d="M 2956 2163 
Q 3397 2069 3616 1863 
Q 3919 1575 3919 1159 
Q 3919 844 3719 555 
Q 3519 266 3170 133 
Q 2822 0 2106 0 
L 106 0 
L 106 116 
L 266 116 
Q 531 116 647 284 
Q 719 394 719 750 
L 719 3488 
Q 719 3881 628 3984 
Q 506 4122 266 4122 
L 106 4122 
L 106 4238 
L 1938 4238 
Q 2450 4238 2759 4163 
Q 3228 4050 3475 3764 
Q 3722 3478 3722 3106 
Q 3722 2788 3528 2536 
Q 3334 2284 2956 2163 
z
M 1319 2331 
Q 1434 2309 1582 2298 
Q 1731 2288 1909 2288 
Q 2366 2288 2595 2386 
Q 2825 2484 2947 2687 
Q 3069 2891 3069 3131 
Q 3069 3503 2766 3765 
Q 2463 4028 1881 4028 
Q 1569 4028 1319 3959 
L 1319 2331 
z
M 1319 306 
Q 1681 222 2034 222 
Q 2600 222 2897 476 
Q 3194 731 3194 1106 
Q 3194 1353 3059 1581 
Q 2925 1809 2622 1940 
Q 2319 2072 1872 2072 
Q 1678 2072 1540 2065 
Q 1403 2059 1319 2044 
L 1319 306 
z
" transform="scale(0.015625)"/>
        <path id="TimesNewRomanPSMT-6c" d="M 1184 4444 
L 1184 647 
Q 1184 378 1223 290 
Q 1263 203 1344 158 
Q 1425 113 1647 113 
L 1647 0 
L 244 0 
L 244 113 
Q 441 113 512 153 
Q 584 194 625 287 
Q 666 381 666 647 
L 666 3247 
Q 666 3731 644 3842 
Q 622 3953 573 3993 
Q 525 4034 450 4034 
Q 369 4034 244 3984 
L 191 4094 
L 1044 4444 
L 1184 4444 
z
" transform="scale(0.015625)"/>
        <path id="TimesNewRomanPSMT-75" d="M 2709 2863 
L 2709 1128 
Q 2709 631 2732 520 
Q 2756 409 2807 365 
Q 2859 322 2928 322 
Q 3025 322 3147 375 
L 3191 266 
L 2334 -88 
L 2194 -88 
L 2194 519 
Q 1825 119 1631 15 
Q 1438 -88 1222 -88 
Q 981 -88 804 51 
Q 628 191 559 409 
Q 491 628 491 1028 
L 491 2306 
Q 491 2509 447 2587 
Q 403 2666 317 2708 
Q 231 2750 6 2747 
L 6 2863 
L 1009 2863 
L 1009 947 
Q 1009 547 1148 422 
Q 1288 297 1484 297 
Q 1619 297 1789 381 
Q 1959 466 2194 703 
L 2194 2325 
Q 2194 2569 2105 2655 
Q 2016 2741 1734 2747 
L 1734 2863 
L 2709 2863 
z
" transform="scale(0.015625)"/>
        <path id="TimesNewRomanPSMT-65" d="M 681 1784 
Q 678 1147 991 784 
Q 1303 422 1725 422 
Q 2006 422 2214 576 
Q 2422 731 2563 1106 
L 2659 1044 
Q 2594 616 2278 264 
Q 1963 -88 1488 -88 
Q 972 -88 605 314 
Q 238 716 238 1394 
Q 238 2128 614 2539 
Q 991 2950 1559 2950 
Q 2041 2950 2350 2633 
Q 2659 2316 2659 1784 
L 681 1784 
z
M 681 1966 
L 2006 1966 
Q 1991 2241 1941 2353 
Q 1863 2528 1708 2628 
Q 1553 2728 1384 2728 
Q 1125 2728 920 2526 
Q 716 2325 681 1966 
z
" transform="scale(0.015625)"/>
        <path id="TimesNewRomanPSMT-50" d="M 1313 1984 
L 1313 750 
Q 1313 350 1400 253 
Q 1519 116 1759 116 
L 1922 116 
L 1922 0 
L 106 0 
L 106 116 
L 266 116 
Q 534 116 650 291 
Q 713 388 713 750 
L 713 3488 
Q 713 3888 628 3984 
Q 506 4122 266 4122 
L 106 4122 
L 106 4238 
L 1659 4238 
Q 2228 4238 2556 4120 
Q 2884 4003 3109 3725 
Q 3334 3447 3334 3066 
Q 3334 2547 2992 2222 
Q 2650 1897 2025 1897 
Q 1872 1897 1694 1919 
Q 1516 1941 1313 1984 
z
M 1313 2163 
Q 1478 2131 1606 2115 
Q 1734 2100 1825 2100 
Q 2150 2100 2386 2351 
Q 2622 2603 2622 3003 
Q 2622 3278 2509 3514 
Q 2397 3750 2190 3867 
Q 1984 3984 1722 3984 
Q 1563 3984 1313 3925 
L 1313 2163 
z
" transform="scale(0.015625)"/>
        <path id="TimesNewRomanPSMT-61" d="M 1822 413 
Q 1381 72 1269 19 
Q 1100 -59 909 -59 
Q 613 -59 420 144 
Q 228 347 228 678 
Q 228 888 322 1041 
Q 450 1253 767 1440 
Q 1084 1628 1822 1897 
L 1822 2009 
Q 1822 2438 1686 2597 
Q 1550 2756 1291 2756 
Q 1094 2756 978 2650 
Q 859 2544 859 2406 
L 866 2225 
Q 866 2081 792 2003 
Q 719 1925 600 1925 
Q 484 1925 411 2006 
Q 338 2088 338 2228 
Q 338 2497 613 2722 
Q 888 2947 1384 2947 
Q 1766 2947 2009 2819 
Q 2194 2722 2281 2516 
Q 2338 2381 2338 1966 
L 2338 994 
Q 2338 584 2353 492 
Q 2369 400 2405 369 
Q 2441 338 2488 338 
Q 2538 338 2575 359 
Q 2641 400 2828 588 
L 2828 413 
Q 2478 -56 2159 -56 
Q 2006 -56 1915 50 
Q 1825 156 1822 413 
z
M 1822 616 
L 1822 1706 
Q 1350 1519 1213 1441 
Q 966 1303 859 1153 
Q 753 1003 753 825 
Q 753 600 887 451 
Q 1022 303 1197 303 
Q 1434 303 1822 616 
z
" transform="scale(0.015625)"/>
        <path id="TimesNewRomanPSMT-6b" d="M 1047 4444 
L 1047 1597 
L 1775 2259 
Q 2006 2472 2044 2528 
Q 2069 2566 2069 2603 
Q 2069 2666 2017 2711 
Q 1966 2756 1847 2763 
L 1847 2863 
L 3091 2863 
L 3091 2763 
Q 2834 2756 2664 2684 
Q 2494 2613 2291 2428 
L 1556 1750 
L 2291 822 
Q 2597 438 2703 334 
Q 2853 188 2966 144 
Q 3044 113 3238 113 
L 3238 0 
L 1847 0 
L 1847 113 
Q 1966 116 2008 148 
Q 2050 181 2050 241 
Q 2050 313 1925 472 
L 1047 1594 
L 1047 644 
Q 1047 366 1086 278 
Q 1125 191 1197 153 
Q 1269 116 1509 113 
L 1509 0 
L 53 0 
L 53 113 
Q 272 113 381 166 
Q 447 200 481 272 
Q 528 375 528 628 
L 528 3234 
Q 528 3731 506 3842 
Q 484 3953 434 3995 
Q 384 4038 303 4038 
Q 238 4038 106 3984 
L 53 4094 
L 903 4444 
L 1047 4444 
z
" transform="scale(0.015625)"/>
       </defs>
       <use xlink:href="#TimesNewRomanPSMT-42"/>
       <use xlink:href="#TimesNewRomanPSMT-6c" x="66.699219"/>
       <use xlink:href="#TimesNewRomanPSMT-75" x="94.482422"/>
       <use xlink:href="#TimesNewRomanPSMT-65" x="144.482422"/>
       <use xlink:href="#TimesNewRomanPSMT-50" x="188.867188"/>
       <use xlink:href="#TimesNewRomanPSMT-65" x="244.482422"/>
       <use xlink:href="#TimesNewRomanPSMT-61" x="288.867188"/>
       <use xlink:href="#TimesNewRomanPSMT-6b" x="333.251953"/>
      </g>
     </g>
    </g>
    <g id="xtick_2">
     <g id="line2d_2">
      <g>
       <use xlink:href="#m50c5547678" x="170.949938" y="258.900181" style="stroke: #000000; stroke-width: 0.8"/>
      </g>
     </g>
     <g id="text_2">
      <!-- BrightEdge -->
      <g transform="translate(129.999174 310.911947) rotate(-45) scale(0.12 -0.12)">
       <defs>
        <path id="TimesNewRomanPSMT-72" d="M 1038 2947 
L 1038 2303 
Q 1397 2947 1775 2947 
Q 1947 2947 2059 2842 
Q 2172 2738 2172 2600 
Q 2172 2478 2090 2393 
Q 2009 2309 1897 2309 
Q 1788 2309 1652 2417 
Q 1516 2525 1450 2525 
Q 1394 2525 1328 2463 
Q 1188 2334 1038 2041 
L 1038 669 
Q 1038 431 1097 309 
Q 1138 225 1241 169 
Q 1344 113 1538 113 
L 1538 0 
L 72 0 
L 72 113 
Q 291 113 397 181 
Q 475 231 506 341 
Q 522 394 522 644 
L 522 1753 
Q 522 2253 501 2348 
Q 481 2444 426 2487 
Q 372 2531 291 2531 
Q 194 2531 72 2484 
L 41 2597 
L 906 2947 
L 1038 2947 
z
" transform="scale(0.015625)"/>
        <path id="TimesNewRomanPSMT-69" d="M 928 4444 
Q 1059 4444 1151 4351 
Q 1244 4259 1244 4128 
Q 1244 3997 1151 3903 
Q 1059 3809 928 3809 
Q 797 3809 703 3903 
Q 609 3997 609 4128 
Q 609 4259 701 4351 
Q 794 4444 928 4444 
z
M 1188 2947 
L 1188 647 
Q 1188 378 1227 289 
Q 1266 200 1342 156 
Q 1419 113 1622 113 
L 1622 0 
L 231 0 
L 231 113 
Q 441 113 512 153 
Q 584 194 626 287 
Q 669 381 669 647 
L 669 1750 
Q 669 2216 641 2353 
Q 619 2453 572 2492 
Q 525 2531 444 2531 
Q 356 2531 231 2484 
L 188 2597 
L 1050 2947 
L 1188 2947 
z
" transform="scale(0.015625)"/>
        <path id="TimesNewRomanPSMT-67" d="M 966 1044 
Q 703 1172 562 1401 
Q 422 1631 422 1909 
Q 422 2334 742 2640 
Q 1063 2947 1563 2947 
Q 1972 2947 2272 2747 
L 2878 2747 
Q 3013 2747 3034 2739 
Q 3056 2731 3066 2713 
Q 3084 2684 3084 2613 
Q 3084 2531 3069 2500 
Q 3059 2484 3036 2475 
Q 3013 2466 2878 2466 
L 2506 2466 
Q 2681 2241 2681 1891 
Q 2681 1491 2375 1206 
Q 2069 922 1553 922 
Q 1341 922 1119 984 
Q 981 866 932 777 
Q 884 688 884 625 
Q 884 572 936 522 
Q 988 472 1138 450 
Q 1225 438 1575 428 
Q 2219 413 2409 384 
Q 2700 344 2873 169 
Q 3047 -6 3047 -263 
Q 3047 -616 2716 -925 
Q 2228 -1381 1444 -1381 
Q 841 -1381 425 -1109 
Q 191 -953 191 -784 
Q 191 -709 225 -634 
Q 278 -519 444 -313 
Q 466 -284 763 25 
Q 600 122 533 198 
Q 466 275 466 372 
Q 466 481 555 628 
Q 644 775 966 1044 
z
M 1509 2797 
Q 1278 2797 1122 2612 
Q 966 2428 966 2047 
Q 966 1553 1178 1281 
Q 1341 1075 1591 1075 
Q 1828 1075 1981 1253 
Q 2134 1431 2134 1813 
Q 2134 2309 1919 2591 
Q 1759 2797 1509 2797 
z
M 934 0 
Q 788 -159 713 -296 
Q 638 -434 638 -550 
Q 638 -700 819 -813 
Q 1131 -1006 1722 -1006 
Q 2284 -1006 2551 -807 
Q 2819 -609 2819 -384 
Q 2819 -222 2659 -153 
Q 2497 -84 2016 -72 
Q 1313 -53 934 0 
z
" transform="scale(0.015625)"/>
        <path id="TimesNewRomanPSMT-68" d="M 1041 4444 
L 1041 2350 
Q 1388 2731 1591 2839 
Q 1794 2947 1997 2947 
Q 2241 2947 2416 2812 
Q 2591 2678 2675 2391 
Q 2734 2191 2734 1659 
L 2734 647 
Q 2734 375 2778 275 
Q 2809 200 2884 156 
Q 2959 113 3159 113 
L 3159 0 
L 1753 0 
L 1753 113 
L 1819 113 
Q 2019 113 2097 173 
Q 2175 234 2206 353 
Q 2216 403 2216 647 
L 2216 1659 
Q 2216 2128 2167 2275 
Q 2119 2422 2012 2495 
Q 1906 2569 1756 2569 
Q 1603 2569 1437 2487 
Q 1272 2406 1041 2159 
L 1041 647 
Q 1041 353 1073 281 
Q 1106 209 1195 161 
Q 1284 113 1503 113 
L 1503 0 
L 84 0 
L 84 113 
Q 275 113 384 172 
Q 447 203 484 290 
Q 522 378 522 647 
L 522 3238 
Q 522 3728 498 3840 
Q 475 3953 426 3993 
Q 378 4034 297 4034 
Q 231 4034 84 3984 
L 41 4094 
L 897 4444 
L 1041 4444 
z
" transform="scale(0.015625)"/>
        <path id="TimesNewRomanPSMT-74" d="M 1031 3803 
L 1031 2863 
L 1700 2863 
L 1700 2644 
L 1031 2644 
L 1031 788 
Q 1031 509 1111 412 
Q 1191 316 1316 316 
Q 1419 316 1516 380 
Q 1613 444 1666 569 
L 1788 569 
Q 1678 263 1478 108 
Q 1278 -47 1066 -47 
Q 922 -47 784 33 
Q 647 113 581 261 
Q 516 409 516 719 
L 516 2644 
L 63 2644 
L 63 2747 
Q 234 2816 414 2980 
Q 594 3144 734 3369 
Q 806 3488 934 3803 
L 1031 3803 
z
" transform="scale(0.015625)"/>
        <path id="TimesNewRomanPSMT-45" d="M 1338 4006 
L 1338 2331 
L 2269 2331 
Q 2631 2331 2753 2441 
Q 2916 2584 2934 2947 
L 3050 2947 
L 3050 1472 
L 2934 1472 
Q 2891 1781 2847 1869 
Q 2791 1978 2662 2040 
Q 2534 2103 2269 2103 
L 1338 2103 
L 1338 706 
Q 1338 425 1363 364 
Q 1388 303 1450 267 
Q 1513 231 1688 231 
L 2406 231 
Q 2766 231 2928 281 
Q 3091 331 3241 478 
Q 3434 672 3638 1063 
L 3763 1063 
L 3397 0 
L 131 0 
L 131 116 
L 281 116 
Q 431 116 566 188 
Q 666 238 702 338 
Q 738 438 738 747 
L 738 3500 
Q 738 3903 656 3997 
Q 544 4122 281 4122 
L 131 4122 
L 131 4238 
L 3397 4238 
L 3444 3309 
L 3322 3309 
Q 3256 3644 3176 3769 
Q 3097 3894 2941 3959 
Q 2816 4006 2500 4006 
L 1338 4006 
z
" transform="scale(0.015625)"/>
        <path id="TimesNewRomanPSMT-64" d="M 2222 322 
Q 2013 103 1813 7 
Q 1613 -88 1381 -88 
Q 913 -88 563 304 
Q 213 697 213 1313 
Q 213 1928 600 2439 
Q 988 2950 1597 2950 
Q 1975 2950 2222 2709 
L 2222 3238 
Q 2222 3728 2198 3840 
Q 2175 3953 2125 3993 
Q 2075 4034 2000 4034 
Q 1919 4034 1784 3984 
L 1744 4094 
L 2597 4444 
L 2738 4444 
L 2738 1134 
Q 2738 631 2761 520 
Q 2784 409 2836 365 
Q 2888 322 2956 322 
Q 3041 322 3181 375 
L 3216 266 
L 2366 -88 
L 2222 -88 
L 2222 322 
z
M 2222 541 
L 2222 2016 
Q 2203 2228 2109 2403 
Q 2016 2578 1861 2667 
Q 1706 2756 1559 2756 
Q 1284 2756 1069 2509 
Q 784 2184 784 1559 
Q 784 928 1059 592 
Q 1334 256 1672 256 
Q 1956 256 2222 541 
z
" transform="scale(0.015625)"/>
       </defs>
       <use xlink:href="#TimesNewRomanPSMT-42"/>
       <use xlink:href="#TimesNewRomanPSMT-72" x="66.699219"/>
       <use xlink:href="#TimesNewRomanPSMT-69" x="100"/>
       <use xlink:href="#TimesNewRomanPSMT-67" x="127.783203"/>
       <use xlink:href="#TimesNewRomanPSMT-68" x="177.783203"/>
       <use xlink:href="#TimesNewRomanPSMT-74" x="227.783203"/>
       <use xlink:href="#TimesNewRomanPSMT-45" x="255.566406"/>
       <use xlink:href="#TimesNewRomanPSMT-64" x="316.650391"/>
       <use xlink:href="#TimesNewRomanPSMT-67" x="366.650391"/>
       <use xlink:href="#TimesNewRomanPSMT-65" x="416.650391"/>
      </g>
     </g>
    </g>
    <g id="xtick_3">
     <g id="line2d_3">
      <g>
       <use xlink:href="#m50c5547678" x="244.305937" y="258.900181" style="stroke: #000000; stroke-width: 0.8"/>
      </g>
     </g>
     <g id="text_3">
      <!-- TechNova -->
      <g transform="translate(207.746307 306.536724) rotate(-45) scale(0.12 -0.12)">
       <defs>
        <path id="TimesNewRomanPSMT-54" d="M 3703 4238 
L 3750 3244 
L 3631 3244 
Q 3597 3506 3538 3619 
Q 3441 3800 3280 3886 
Q 3119 3972 2856 3972 
L 2259 3972 
L 2259 734 
Q 2259 344 2344 247 
Q 2463 116 2709 116 
L 2856 116 
L 2856 0 
L 1059 0 
L 1059 116 
L 1209 116 
Q 1478 116 1591 278 
Q 1659 378 1659 734 
L 1659 3972 
L 1150 3972 
Q 853 3972 728 3928 
Q 566 3869 450 3700 
Q 334 3531 313 3244 
L 194 3244 
L 244 4238 
L 3703 4238 
z
" transform="scale(0.015625)"/>
        <path id="TimesNewRomanPSMT-63" d="M 2631 1088 
Q 2516 522 2178 217 
Q 1841 -88 1431 -88 
Q 944 -88 581 321 
Q 219 731 219 1428 
Q 219 2103 620 2525 
Q 1022 2947 1584 2947 
Q 2006 2947 2278 2723 
Q 2550 2500 2550 2259 
Q 2550 2141 2473 2067 
Q 2397 1994 2259 1994 
Q 2075 1994 1981 2113 
Q 1928 2178 1911 2362 
Q 1894 2547 1784 2644 
Q 1675 2738 1481 2738 
Q 1169 2738 978 2506 
Q 725 2200 725 1697 
Q 725 1184 976 792 
Q 1228 400 1656 400 
Q 1963 400 2206 609 
Q 2378 753 2541 1131 
L 2631 1088 
z
" transform="scale(0.015625)"/>
        <path id="TimesNewRomanPSMT-4e" d="M -84 4238 
L 1066 4238 
L 3656 1059 
L 3656 3503 
Q 3656 3894 3569 3991 
Q 3453 4122 3203 4122 
L 3056 4122 
L 3056 4238 
L 4531 4238 
L 4531 4122 
L 4381 4122 
Q 4113 4122 4000 3959 
Q 3931 3859 3931 3503 
L 3931 -69 
L 3819 -69 
L 1025 3344 
L 1025 734 
Q 1025 344 1109 247 
Q 1228 116 1475 116 
L 1625 116 
L 1625 0 
L 150 0 
L 150 116 
L 297 116 
Q 569 116 681 278 
Q 750 378 750 734 
L 750 3681 
Q 566 3897 470 3965 
Q 375 4034 191 4094 
Q 100 4122 -84 4122 
L -84 4238 
z
" transform="scale(0.015625)"/>
        <path id="TimesNewRomanPSMT-6f" d="M 1600 2947 
Q 2250 2947 2644 2453 
Q 2978 2031 2978 1484 
Q 2978 1100 2793 706 
Q 2609 313 2286 112 
Q 1963 -88 1566 -88 
Q 919 -88 538 428 
Q 216 863 216 1403 
Q 216 1797 411 2186 
Q 606 2575 925 2761 
Q 1244 2947 1600 2947 
z
M 1503 2744 
Q 1338 2744 1170 2645 
Q 1003 2547 900 2300 
Q 797 2053 797 1666 
Q 797 1041 1045 587 
Q 1294 134 1700 134 
Q 2003 134 2200 384 
Q 2397 634 2397 1244 
Q 2397 2006 2069 2444 
Q 1847 2744 1503 2744 
z
" transform="scale(0.015625)"/>
        <path id="TimesNewRomanPSMT-76" d="M 53 2863 
L 1400 2863 
L 1400 2747 
L 1313 2747 
Q 1191 2747 1127 2687 
Q 1063 2628 1063 2528 
Q 1063 2419 1128 2269 
L 1794 688 
L 2463 2328 
Q 2534 2503 2534 2594 
Q 2534 2638 2509 2666 
Q 2475 2713 2422 2730 
Q 2369 2747 2206 2747 
L 2206 2863 
L 3141 2863 
L 3141 2747 
Q 2978 2734 2916 2681 
Q 2806 2588 2719 2369 
L 1703 -88 
L 1575 -88 
L 553 2328 
Q 484 2497 421 2570 
Q 359 2644 263 2694 
Q 209 2722 53 2747 
L 53 2863 
z
" transform="scale(0.015625)"/>
       </defs>
       <use xlink:href="#TimesNewRomanPSMT-54"/>
       <use xlink:href="#TimesNewRomanPSMT-65" x="54.083984"/>
       <use xlink:href="#TimesNewRomanPSMT-63" x="98.46875"/>
       <use xlink:href="#TimesNewRomanPSMT-68" x="142.853516"/>
       <use xlink:href="#TimesNewRomanPSMT-4e" x="192.853516"/>
       <use xlink:href="#TimesNewRomanPSMT-6f" x="265.070312"/>
       <use xlink:href="#TimesNewRomanPSMT-76" x="315.070312"/>
       <use xlink:href="#TimesNewRomanPSMT-61" x="365.070312"/>
      </g>
     </g>
    </g>
    <g id="xtick_4">
     <g id="line2d_4">
      <g>
       <use xlink:href="#m50c5547678" x="317.661937" y="258.900181" style="stroke: #000000; stroke-width: 0.8"/>
      </g>
     </g>
     <g id="text_4">
      <!-- CoreLogic -->
      <g transform="translate(279.544463 308.078658) rotate(-45) scale(0.12 -0.12)">
       <defs>
        <path id="TimesNewRomanPSMT-43" d="M 3853 4334 
L 3950 2894 
L 3853 2894 
Q 3659 3541 3300 3825 
Q 2941 4109 2438 4109 
Q 2016 4109 1675 3895 
Q 1334 3681 1139 3212 
Q 944 2744 944 2047 
Q 944 1472 1128 1050 
Q 1313 628 1683 403 
Q 2053 178 2528 178 
Q 2941 178 3256 354 
Q 3572 531 3950 1056 
L 4047 994 
Q 3728 428 3303 165 
Q 2878 -97 2294 -97 
Q 1241 -97 663 684 
Q 231 1266 231 2053 
Q 231 2688 515 3219 
Q 800 3750 1298 4042 
Q 1797 4334 2388 4334 
Q 2847 4334 3294 4109 
Q 3425 4041 3481 4041 
Q 3566 4041 3628 4100 
Q 3709 4184 3744 4334 
L 3853 4334 
z
" transform="scale(0.015625)"/>
        <path id="TimesNewRomanPSMT-4c" d="M 3669 1172 
L 3772 1150 
L 3409 0 
L 128 0 
L 128 116 
L 288 116 
Q 556 116 672 291 
Q 738 391 738 753 
L 738 3488 
Q 738 3884 650 3984 
Q 528 4122 288 4122 
L 128 4122 
L 128 4238 
L 2047 4238 
L 2047 4122 
Q 1709 4125 1573 4059 
Q 1438 3994 1388 3894 
Q 1338 3794 1338 3416 
L 1338 753 
Q 1338 494 1388 397 
Q 1425 331 1503 300 
Q 1581 269 1991 269 
L 2300 269 
Q 2788 269 2984 341 
Q 3181 413 3343 595 
Q 3506 778 3669 1172 
z
" transform="scale(0.015625)"/>
       </defs>
       <use xlink:href="#TimesNewRomanPSMT-43"/>
       <use xlink:href="#TimesNewRomanPSMT-6f" x="66.699219"/>
       <use xlink:href="#TimesNewRomanPSMT-72" x="116.699219"/>
       <use xlink:href="#TimesNewRomanPSMT-65" x="150"/>
       <use xlink:href="#TimesNewRomanPSMT-4c" x="194.384766"/>
       <use xlink:href="#TimesNewRomanPSMT-6f" x="255.46875"/>
       <use xlink:href="#TimesNewRomanPSMT-67" x="305.46875"/>
       <use xlink:href="#TimesNewRomanPSMT-69" x="355.46875"/>
       <use xlink:href="#TimesNewRomanPSMT-63" x="383.251953"/>
      </g>
     </g>
    </g>
    <g id="xtick_5">
     <g id="line2d_5">
      <g>
       <use xlink:href="#m50c5547678" x="391.017937" y="258.900181" style="stroke: #000000; stroke-width: 0.8"/>
      </g>
     </g>
     <g id="text_5">
      <!-- PureSync -->
      <g transform="translate(356.663155 304.300056) rotate(-45) scale(0.12 -0.12)">
       <defs>
        <path id="TimesNewRomanPSMT-53" d="M 2934 4334 
L 2934 2869 
L 2819 2869 
Q 2763 3291 2617 3541 
Q 2472 3791 2203 3937 
Q 1934 4084 1647 4084 
Q 1322 4084 1109 3886 
Q 897 3688 897 3434 
Q 897 3241 1031 3081 
Q 1225 2847 1953 2456 
Q 2547 2138 2764 1967 
Q 2981 1797 3098 1565 
Q 3216 1334 3216 1081 
Q 3216 600 2842 251 
Q 2469 -97 1881 -97 
Q 1697 -97 1534 -69 
Q 1438 -53 1133 45 
Q 828 144 747 144 
Q 669 144 623 97 
Q 578 50 556 -97 
L 441 -97 
L 441 1356 
L 556 1356 
Q 638 900 775 673 
Q 913 447 1195 297 
Q 1478 147 1816 147 
Q 2206 147 2432 353 
Q 2659 559 2659 841 
Q 2659 997 2573 1156 
Q 2488 1316 2306 1453 
Q 2184 1547 1640 1851 
Q 1097 2156 867 2337 
Q 638 2519 519 2737 
Q 400 2956 400 3219 
Q 400 3675 750 4004 
Q 1100 4334 1641 4334 
Q 1978 4334 2356 4169 
Q 2531 4091 2603 4091 
Q 2684 4091 2736 4139 
Q 2788 4188 2819 4334 
L 2934 4334 
z
" transform="scale(0.015625)"/>
        <path id="TimesNewRomanPSMT-79" d="M 38 2863 
L 1372 2863 
L 1372 2747 
L 1306 2747 
Q 1166 2747 1095 2686 
Q 1025 2625 1025 2534 
Q 1025 2413 1128 2197 
L 1825 753 
L 2466 2334 
Q 2519 2463 2519 2588 
Q 2519 2644 2497 2672 
Q 2472 2706 2419 2726 
Q 2366 2747 2231 2747 
L 2231 2863 
L 3163 2863 
L 3163 2747 
Q 3047 2734 2984 2696 
Q 2922 2659 2847 2556 
Q 2819 2513 2741 2316 
L 1575 -541 
Q 1406 -956 1132 -1168 
Q 859 -1381 606 -1381 
Q 422 -1381 303 -1275 
Q 184 -1169 184 -1031 
Q 184 -900 270 -820 
Q 356 -741 506 -741 
Q 609 -741 788 -809 
Q 913 -856 944 -856 
Q 1038 -856 1148 -759 
Q 1259 -663 1372 -384 
L 1575 113 
L 547 2272 
Q 500 2369 397 2513 
Q 319 2622 269 2659 
Q 197 2709 38 2747 
L 38 2863 
z
" transform="scale(0.015625)"/>
        <path id="TimesNewRomanPSMT-6e" d="M 1034 2341 
Q 1538 2947 1994 2947 
Q 2228 2947 2397 2830 
Q 2566 2713 2666 2444 
Q 2734 2256 2734 1869 
L 2734 647 
Q 2734 375 2778 278 
Q 2813 200 2889 156 
Q 2966 113 3172 113 
L 3172 0 
L 1756 0 
L 1756 113 
L 1816 113 
Q 2016 113 2095 173 
Q 2175 234 2206 353 
Q 2219 400 2219 647 
L 2219 1819 
Q 2219 2209 2117 2386 
Q 2016 2563 1775 2563 
Q 1403 2563 1034 2156 
L 1034 647 
Q 1034 356 1069 288 
Q 1113 197 1189 155 
Q 1266 113 1500 113 
L 1500 0 
L 84 0 
L 84 113 
L 147 113 
Q 366 113 442 223 
Q 519 334 519 647 
L 519 1709 
Q 519 2225 495 2337 
Q 472 2450 423 2490 
Q 375 2531 294 2531 
Q 206 2531 84 2484 
L 38 2597 
L 900 2947 
L 1034 2947 
L 1034 2341 
z
" transform="scale(0.015625)"/>
       </defs>
       <use xlink:href="#TimesNewRomanPSMT-50"/>
       <use xlink:href="#TimesNewRomanPSMT-75" x="55.615234"/>
       <use xlink:href="#TimesNewRomanPSMT-72" x="105.615234"/>
       <use xlink:href="#TimesNewRomanPSMT-65" x="138.916016"/>
       <use xlink:href="#TimesNewRomanPSMT-53" x="183.300781"/>
       <use xlink:href="#TimesNewRomanPSMT-79" x="238.916016"/>
       <use xlink:href="#TimesNewRomanPSMT-6e" x="288.916016"/>
       <use xlink:href="#TimesNewRomanPSMT-63" x="338.916016"/>
      </g>
     </g>
    </g>
   </g>
   <g id="matplotlib.axis_2">
    <g id="ytick_1">
     <g id="line2d_6">
      <defs>
       <path id="m95744e6dd6" d="M 0 0 
L -3.5 0 
" style="stroke: #000000; stroke-width: 0.8"/>
      </defs>
      <g>
       <use xlink:href="#m95744e6dd6" x="60.915938" y="254.985723" style="stroke: #000000; stroke-width: 0.8"/>
      </g>
     </g>
     <g id="text_6">
      <!-- 0 -->
      <g transform="translate(48.915938 258.457598) scale(0.1 -0.1)">
       <defs>
        <path id="TimesNewRomanPSMT-30" d="M 231 2094 
Q 231 2819 450 3342 
Q 669 3866 1031 4122 
Q 1313 4325 1613 4325 
Q 2100 4325 2488 3828 
Q 2972 3213 2972 2159 
Q 2972 1422 2759 906 
Q 2547 391 2217 158 
Q 1888 -75 1581 -75 
Q 975 -75 572 641 
Q 231 1244 231 2094 
z
M 844 2016 
Q 844 1141 1059 588 
Q 1238 122 1591 122 
Q 1759 122 1940 273 
Q 2122 425 2216 781 
Q 2359 1319 2359 2297 
Q 2359 3022 2209 3506 
Q 2097 3866 1919 4016 
Q 1791 4119 1609 4119 
Q 1397 4119 1231 3928 
Q 1006 3669 925 3112 
Q 844 2556 844 2016 
z
" transform="scale(0.015625)"/>
       </defs>
       <use xlink:href="#TimesNewRomanPSMT-30"/>
      </g>
     </g>
    </g>
    <g id="ytick_2">
     <g id="line2d_7">
      <g>
       <use xlink:href="#m95744e6dd6" x="60.915938" y="213.395654" style="stroke: #000000; stroke-width: 0.8"/>
      </g>
     </g>
     <g id="text_7">
      <!-- 20000 -->
      <g transform="translate(28.915938 216.867529) scale(0.1 -0.1)">
       <defs>
        <path id="TimesNewRomanPSMT-32" d="M 2934 816 
L 2638 0 
L 138 0 
L 138 116 
Q 1241 1122 1691 1759 
Q 2141 2397 2141 2925 
Q 2141 3328 1894 3587 
Q 1647 3847 1303 3847 
Q 991 3847 742 3664 
Q 494 3481 375 3128 
L 259 3128 
Q 338 3706 661 4015 
Q 984 4325 1469 4325 
Q 1984 4325 2329 3994 
Q 2675 3663 2675 3213 
Q 2675 2891 2525 2569 
Q 2294 2063 1775 1497 
Q 997 647 803 472 
L 1909 472 
Q 2247 472 2383 497 
Q 2519 522 2628 598 
Q 2738 675 2819 816 
L 2934 816 
z
" transform="scale(0.015625)"/>
       </defs>
       <use xlink:href="#TimesNewRomanPSMT-32"/>
       <use xlink:href="#TimesNewRomanPSMT-30" x="50"/>
       <use xlink:href="#TimesNewRomanPSMT-30" x="100"/>
       <use xlink:href="#TimesNewRomanPSMT-30" x="150"/>
       <use xlink:href="#TimesNewRomanPSMT-30" x="200"/>
      </g>
     </g>
    </g>
    <g id="ytick_3">
     <g id="line2d_8">
      <g>
       <use xlink:href="#m95744e6dd6" x="60.915938" y="171.805584" style="stroke: #000000; stroke-width: 0.8"/>
      </g>
     </g>
     <g id="text_8">
      <!-- 40000 -->
      <g transform="translate(28.915938 175.277459) scale(0.1 -0.1)">
       <defs>
        <path id="TimesNewRomanPSMT-34" d="M 2978 1563 
L 2978 1119 
L 2409 1119 
L 2409 0 
L 1894 0 
L 1894 1119 
L 100 1119 
L 100 1519 
L 2066 4325 
L 2409 4325 
L 2409 1563 
L 2978 1563 
z
M 1894 1563 
L 1894 3666 
L 406 1563 
L 1894 1563 
z
" transform="scale(0.015625)"/>
       </defs>
       <use xlink:href="#TimesNewRomanPSMT-34"/>
       <use xlink:href="#TimesNewRomanPSMT-30" x="50"/>
       <use xlink:href="#TimesNewRomanPSMT-30" x="100"/>
       <use xlink:href="#TimesNewRomanPSMT-30" x="150"/>
       <use xlink:href="#TimesNewRomanPSMT-30" x="200"/>
      </g>
     </g>
    </g>
    <g id="ytick_4">
     <g id="line2d_9">
      <g>
       <use xlink:href="#m95744e6dd6" x="60.915938" y="130.215515" style="stroke: #000000; stroke-width: 0.8"/>
      </g>
     </g>
     <g id="text_9">
      <!-- 60000 -->
      <g transform="translate(28.915938 133.68739) scale(0.1 -0.1)">
       <defs>
        <path id="TimesNewRomanPSMT-36" d="M 2869 4325 
L 2869 4209 
Q 2456 4169 2195 4045 
Q 1934 3922 1679 3669 
Q 1425 3416 1258 3105 
Q 1091 2794 978 2366 
Q 1428 2675 1881 2675 
Q 2316 2675 2634 2325 
Q 2953 1975 2953 1425 
Q 2953 894 2631 456 
Q 2244 -75 1606 -75 
Q 1172 -75 869 213 
Q 275 772 275 1663 
Q 275 2231 503 2743 
Q 731 3256 1154 3653 
Q 1578 4050 1965 4187 
Q 2353 4325 2688 4325 
L 2869 4325 
z
M 925 2138 
Q 869 1716 869 1456 
Q 869 1156 980 804 
Q 1091 453 1309 247 
Q 1469 100 1697 100 
Q 1969 100 2183 356 
Q 2397 613 2397 1088 
Q 2397 1622 2184 2012 
Q 1972 2403 1581 2403 
Q 1463 2403 1327 2353 
Q 1191 2303 925 2138 
z
" transform="scale(0.015625)"/>
       </defs>
       <use xlink:href="#TimesNewRomanPSMT-36"/>
       <use xlink:href="#TimesNewRomanPSMT-30" x="50"/>
       <use xlink:href="#TimesNewRomanPSMT-30" x="100"/>
       <use xlink:href="#TimesNewRomanPSMT-30" x="150"/>
       <use xlink:href="#TimesNewRomanPSMT-30" x="200"/>
      </g>
     </g>
    </g>
    <g id="ytick_5">
     <g id="line2d_10">
      <g>
       <use xlink:href="#m95744e6dd6" x="60.915938" y="88.625445" style="stroke: #000000; stroke-width: 0.8"/>
      </g>
     </g>
     <g id="text_10">
      <!-- 80000 -->
      <g transform="translate(28.915938 92.09732) scale(0.1 -0.1)">
       <defs>
        <path id="TimesNewRomanPSMT-38" d="M 1228 2134 
Q 725 2547 579 2797 
Q 434 3047 434 3316 
Q 434 3728 753 4026 
Q 1072 4325 1600 4325 
Q 2113 4325 2425 4047 
Q 2738 3769 2738 3413 
Q 2738 3175 2569 2928 
Q 2400 2681 1866 2347 
Q 2416 1922 2594 1678 
Q 2831 1359 2831 1006 
Q 2831 559 2490 242 
Q 2150 -75 1597 -75 
Q 994 -75 656 303 
Q 388 606 388 966 
Q 388 1247 577 1523 
Q 766 1800 1228 2134 
z
M 1719 2469 
Q 2094 2806 2194 3001 
Q 2294 3197 2294 3444 
Q 2294 3772 2109 3958 
Q 1925 4144 1606 4144 
Q 1288 4144 1088 3959 
Q 888 3775 888 3528 
Q 888 3366 970 3203 
Q 1053 3041 1206 2894 
L 1719 2469 
z
M 1375 2016 
Q 1116 1797 991 1539 
Q 866 1281 866 981 
Q 866 578 1086 336 
Q 1306 94 1647 94 
Q 1984 94 2187 284 
Q 2391 475 2391 747 
Q 2391 972 2272 1150 
Q 2050 1481 1375 2016 
z
" transform="scale(0.015625)"/>
       </defs>
       <use xlink:href="#TimesNewRomanPSMT-38"/>
       <use xlink:href="#TimesNewRomanPSMT-30" x="50"/>
       <use xlink:href="#TimesNewRomanPSMT-30" x="100"/>
       <use xlink:href="#TimesNewRomanPSMT-30" x="150"/>
       <use xlink:href="#TimesNewRomanPSMT-30" x="200"/>
      </g>
     </g>
    </g>
    <g id="ytick_6">
     <g id="line2d_11">
      <g>
       <use xlink:href="#m95744e6dd6" x="60.915938" y="47.035375" style="stroke: #000000; stroke-width: 0.8"/>
      </g>
     </g>
     <g id="text_11">
      <!-- 100000 -->
      <g transform="translate(23.915938 50.50725) scale(0.1 -0.1)">
       <defs>
        <path id="TimesNewRomanPSMT-31" d="M 750 3822 
L 1781 4325 
L 1884 4325 
L 1884 747 
Q 1884 391 1914 303 
Q 1944 216 2037 169 
Q 2131 122 2419 116 
L 2419 0 
L 825 0 
L 825 116 
Q 1125 122 1212 167 
Q 1300 213 1334 289 
Q 1369 366 1369 747 
L 1369 3034 
Q 1369 3497 1338 3628 
Q 1316 3728 1258 3775 
Q 1200 3822 1119 3822 
Q 1003 3822 797 3725 
L 750 3822 
z
" transform="scale(0.015625)"/>
       </defs>
       <use xlink:href="#TimesNewRomanPSMT-31"/>
       <use xlink:href="#TimesNewRomanPSMT-30" x="50"/>
       <use xlink:href="#TimesNewRomanPSMT-30" x="100"/>
       <use xlink:href="#TimesNewRomanPSMT-30" x="150"/>
       <use xlink:href="#TimesNewRomanPSMT-30" x="200"/>
       <use xlink:href="#TimesNewRomanPSMT-30" x="250"/>
      </g>
     </g>
    </g>
    <g id="text_12">
     <!-- USD -->
     <g transform="translate(16.92125 158.475872) rotate(-90) scale(0.14 -0.14)">
      <defs>
       <path id="TimesNewRomanPSMT-55" d="M 3053 4122 
L 3053 4238 
L 4553 4238 
L 4553 4122 
L 4394 4122 
Q 4144 4122 4009 3913 
Q 3944 3816 3944 3463 
L 3944 1744 
Q 3944 1106 3817 754 
Q 3691 403 3320 151 
Q 2950 -100 2313 -100 
Q 1619 -100 1259 140 
Q 900 381 750 788 
Q 650 1066 650 1831 
L 650 3488 
Q 650 3878 542 4000 
Q 434 4122 194 4122 
L 34 4122 
L 34 4238 
L 1866 4238 
L 1866 4122 
L 1703 4122 
Q 1441 4122 1328 3956 
Q 1250 3844 1250 3488 
L 1250 1641 
Q 1250 1394 1295 1075 
Q 1341 756 1459 578 
Q 1578 400 1801 284 
Q 2025 169 2350 169 
Q 2766 169 3094 350 
Q 3422 531 3542 814 
Q 3663 1097 3663 1772 
L 3663 3488 
Q 3663 3884 3575 3984 
Q 3453 4122 3213 4122 
L 3053 4122 
z
" transform="scale(0.015625)"/>
       <path id="TimesNewRomanPSMT-44" d="M 109 0 
L 109 116 
L 269 116 
Q 538 116 650 288 
Q 719 391 719 750 
L 719 3488 
Q 719 3884 631 3984 
Q 509 4122 269 4122 
L 109 4122 
L 109 4238 
L 1834 4238 
Q 2784 4238 3279 4022 
Q 3775 3806 4076 3303 
Q 4378 2800 4378 2141 
Q 4378 1256 3841 663 
Q 3238 0 2003 0 
L 109 0 
z
M 1319 306 
Q 1716 219 1984 219 
Q 2709 219 3187 728 
Q 3666 1238 3666 2109 
Q 3666 2988 3187 3494 
Q 2709 4000 1959 4000 
Q 1678 4000 1319 3909 
L 1319 306 
z
" transform="scale(0.015625)"/>
      </defs>
      <use xlink:href="#TimesNewRomanPSMT-55"/>
      <use xlink:href="#TimesNewRomanPSMT-53" x="72.216797"/>
      <use xlink:href="#TimesNewRomanPSMT-44" x="127.832031"/>
     </g>
    </g>
   </g>
   <g id="patch_3">
    <path d="M 93.192577 182.715179 
L 101.995297 182.715179 
L 101.995297 141.223886 
L 93.192577 141.223886 
L 93.192577 182.715179 
L 93.192577 182.715179 
z
" clip-path="url(#p85f35d3414)" style="fill: none; stroke: #000000; stroke-linejoin: miter"/>
   </g>
   <g id="line2d_12">
    <path d="M 97.593938 182.715179 
L 97.593938 231.576753 
" clip-path="url(#p85f35d3414)" style="fill: none; stroke: #000000; stroke-linecap: square"/>
   </g>
   <g id="line2d_13">
    <path d="M 97.593938 141.223886 
L 97.593938 92.969528 
" clip-path="url(#p85f35d3414)" style="fill: none; stroke: #000000; stroke-linecap: square"/>
   </g>
   <g id="line2d_14">
    <path d="M 95.393258 231.576753 
L 99.794618 231.576753 
" clip-path="url(#p85f35d3414)" style="fill: none; stroke: #000000; stroke-linecap: square"/>
   </g>
   <g id="line2d_15">
    <path d="M 95.393258 92.969528 
L 99.794618 92.969528 
" clip-path="url(#p85f35d3414)" style="fill: none; stroke: #000000; stroke-linecap: square"/>
   </g>
   <g id="patch_4">
    <path d="M 166.548577 187.11125 
L 175.351298 187.11125 
L 175.351298 153.748216 
L 166.548577 153.748216 
L 166.548577 187.11125 
L 166.548577 187.11125 
z
" clip-path="url(#p85f35d3414)" style="fill: none; stroke: #000000; stroke-linejoin: miter"/>
   </g>
   <g id="line2d_16">
    <path d="M 170.949938 187.11125 
L 170.949938 229.045997 
" clip-path="url(#p85f35d3414)" style="fill: none; stroke: #000000; stroke-linecap: square"/>
   </g>
   <g id="line2d_17">
    <path d="M 170.949938 153.748216 
L 170.949938 106.968745 
" clip-path="url(#p85f35d3414)" style="fill: none; stroke: #000000; stroke-linecap: square"/>
   </g>
   <g id="line2d_18">
    <path d="M 168.749257 229.045997 
L 173.150617 229.045997 
" clip-path="url(#p85f35d3414)" style="fill: none; stroke: #000000; stroke-linecap: square"/>
   </g>
   <g id="line2d_19">
    <path d="M 168.749257 106.968745 
L 173.150617 106.968745 
" clip-path="url(#p85f35d3414)" style="fill: none; stroke: #000000; stroke-linecap: square"/>
   </g>
   <g id="patch_5">
    <path d="M 239.904577 168.479938 
L 248.707298 168.479938 
L 248.707298 133.215718 
L 239.904577 133.215718 
L 239.904577 168.479938 
L 239.904577 168.479938 
z
" clip-path="url(#p85f35d3414)" style="fill: none; stroke: #000000; stroke-linejoin: miter"/>
   </g>
   <g id="line2d_20">
    <path d="M 244.305937 168.479938 
L 244.305937 210.085084 
" clip-path="url(#p85f35d3414)" style="fill: none; stroke: #000000; stroke-linecap: square"/>
   </g>
   <g id="line2d_21">
    <path d="M 244.305937 133.215718 
L 244.305937 85.262888 
" clip-path="url(#p85f35d3414)" style="fill: none; stroke: #000000; stroke-linecap: square"/>
   </g>
   <g id="line2d_22">
    <path d="M 242.105258 210.085084 
L 246.506617 210.085084 
" clip-path="url(#p85f35d3414)" style="fill: none; stroke: #000000; stroke-linecap: square"/>
   </g>
   <g id="line2d_23">
    <path d="M 242.105258 85.262888 
L 246.506617 85.262888 
" clip-path="url(#p85f35d3414)" style="fill: none; stroke: #000000; stroke-linecap: square"/>
   </g>
   <g id="patch_6">
    <path d="M 313.260577 165.143895 
L 322.063297 165.143895 
L 322.063297 115.043457 
L 313.260577 115.043457 
L 313.260577 165.143895 
L 313.260577 165.143895 
z
" clip-path="url(#p85f35d3414)" style="fill: none; stroke: #000000; stroke-linejoin: miter"/>
   </g>
   <g id="line2d_24">
    <path d="M 317.661937 165.143895 
L 317.661937 217.883222 
" clip-path="url(#p85f35d3414)" style="fill: none; stroke: #000000; stroke-linecap: square"/>
   </g>
   <g id="line2d_25">
    <path d="M 317.661937 115.043457 
L 317.661937 40.447508 
" clip-path="url(#p85f35d3414)" style="fill: none; stroke: #000000; stroke-linecap: square"/>
   </g>
   <g id="line2d_26">
    <path d="M 315.461257 217.883222 
L 319.862617 217.883222 
" clip-path="url(#p85f35d3414)" style="fill: none; stroke: #000000; stroke-linecap: square"/>
   </g>
   <g id="line2d_27">
    <path d="M 315.461257 40.447508 
L 319.862617 40.447508 
" clip-path="url(#p85f35d3414)" style="fill: none; stroke: #000000; stroke-linecap: square"/>
   </g>
   <g id="patch_7">
    <path d="M 386.616578 166.790342 
L 395.419297 166.790342 
L 395.419297 137.357049 
L 386.616578 137.357049 
L 386.616578 166.790342 
L 386.616578 166.790342 
z
" clip-path="url(#p85f35d3414)" style="fill: none; stroke: #000000; stroke-linejoin: miter"/>
   </g>
   <g id="line2d_28">
    <path d="M 391.017937 166.790342 
L 391.017937 205.697332 
" clip-path="url(#p85f35d3414)" style="fill: none; stroke: #000000; stroke-linecap: square"/>
   </g>
   <g id="line2d_29">
    <path d="M 391.017937 137.357049 
L 391.017937 99.962898 
" clip-path="url(#p85f35d3414)" style="fill: none; stroke: #000000; stroke-linecap: square"/>
   </g>
   <g id="line2d_30">
    <path d="M 388.817257 205.697332 
L 393.218617 205.697332 
" clip-path="url(#p85f35d3414)" style="fill: none; stroke: #000000; stroke-linecap: square"/>
   </g>
   <g id="line2d_31">
    <path d="M 388.817257 99.962898 
L 393.218617 99.962898 
" clip-path="url(#p85f35d3414)" style="fill: none; stroke: #000000; stroke-linecap: square"/>
   </g>
   <g id="line2d_32">
    <path d="M 93.192577 167.290982 
L 101.995297 167.290982 
" clip-path="url(#p85f35d3414)" style="fill: none; stroke: #000000; stroke-width: 1.5; stroke-linecap: square"/>
   </g>
   <g id="line2d_33">
    <path d="M 166.548577 169.704246 
L 175.351298 169.704246 
" clip-path="url(#p85f35d3414)" style="fill: none; stroke: #000000; stroke-width: 1.5; stroke-linecap: square"/>
   </g>
   <g id="line2d_34">
    <path d="M 239.904577 151.122843 
L 248.707298 151.122843 
" clip-path="url(#p85f35d3414)" style="fill: none; stroke: #000000; stroke-width: 1.5; stroke-linecap: square"/>
   </g>
   <g id="line2d_35">
    <path d="M 313.260577 138.989979 
L 322.063297 138.989979 
" clip-path="url(#p85f35d3414)" style="fill: none; stroke: #000000; stroke-width: 1.5; stroke-linecap: square"/>
   </g>
   <g id="line2d_36">
    <path d="M 386.616578 152.124123 
L 395.419297 152.124123 
" clip-path="url(#p85f35d3414)" style="fill: none; stroke: #000000; stroke-width: 1.5; stroke-linecap: square"/>
   </g>
   <g id="patch_8">
    <path d="M 60.915938 258.900181 
L 60.915938 30.045 
" style="fill: none; stroke: #000000; stroke-linejoin: miter; stroke-linecap: square"/>
   </g>
   <g id="patch_9">
    <path d="M 427.695937 258.900181 
L 427.695937 30.045 
" style="fill: none; stroke: #000000; stroke-linejoin: miter; stroke-linecap: square"/>
   </g>
   <g id="patch_10">
    <path d="M 60.915938 258.900181 
L 427.695937 258.900181 
" style="fill: none; stroke: #000000; stroke-linejoin: miter; stroke-linecap: square"/>
   </g>
   <g id="patch_11">
    <path d="M 60.915938 30.045 
L 427.695937 30.045 
" style="fill: none; stroke: #000000; stroke-linejoin: miter; stroke-linecap: square"/>
   </g>
   <g id="text_13">
    <!-- Data on the monthly revenue of different companies (USD) -->
    <g transform="translate(43.722187 18.045) scale(0.16 -0.16)">
     <defs>
      <path id="TimesNewRomanPS-BoldMT-44" d="M 84 0 
L 84 116 
L 225 116 
Q 409 116 507 173 
Q 606 231 653 331 
Q 681 397 681 725 
L 681 3513 
Q 681 3838 647 3919 
Q 613 4000 508 4061 
Q 403 4122 225 4122 
L 84 4122 
L 84 4238 
L 1981 4238 
Q 2741 4238 3203 4031 
Q 3769 3778 4061 3265 
Q 4353 2753 4353 2106 
Q 4353 1659 4209 1282 
Q 4066 906 3837 661 
Q 3609 416 3311 267 
Q 3013 119 2581 38 
Q 2391 0 1981 0 
L 84 0 
z
M 1700 3997 
L 1700 691 
Q 1700 428 1725 368 
Q 1750 309 1809 278 
Q 1894 231 2053 231 
Q 2575 231 2850 588 
Q 3225 1069 3225 2081 
Q 3225 2897 2969 3384 
Q 2766 3766 2447 3903 
Q 2222 4000 1700 3997 
z
" transform="scale(0.015625)"/>
      <path id="TimesNewRomanPS-BoldMT-61" d="M 1828 431 
Q 1294 -41 869 -41 
Q 619 -41 453 123 
Q 288 288 288 534 
Q 288 869 575 1136 
Q 863 1403 1828 1847 
L 1828 2141 
Q 1828 2472 1792 2558 
Q 1756 2644 1656 2708 
Q 1556 2772 1431 2772 
Q 1228 2772 1097 2681 
Q 1016 2625 1016 2550 
Q 1016 2484 1103 2388 
Q 1222 2253 1222 2128 
Q 1222 1975 1108 1867 
Q 994 1759 809 1759 
Q 613 1759 480 1878 
Q 347 1997 347 2156 
Q 347 2381 525 2586 
Q 703 2791 1022 2900 
Q 1341 3009 1684 3009 
Q 2100 3009 2342 2832 
Q 2584 2656 2656 2450 
Q 2700 2319 2700 1847 
L 2700 713 
Q 2700 513 2715 461 
Q 2731 409 2762 384 
Q 2794 359 2834 359 
Q 2916 359 3000 475 
L 3094 400 
Q 2938 169 2770 64 
Q 2603 -41 2391 -41 
Q 2141 -41 2000 76 
Q 1859 194 1828 431 
z
M 1828 659 
L 1828 1638 
Q 1450 1416 1266 1163 
Q 1144 994 1144 822 
Q 1144 678 1247 569 
Q 1325 484 1466 484 
Q 1622 484 1828 659 
z
" transform="scale(0.015625)"/>
      <path id="TimesNewRomanPS-BoldMT-74" d="M 1375 3991 
L 1375 2922 
L 2069 2922 
L 2069 2613 
L 1375 2613 
L 1375 809 
Q 1375 556 1398 482 
Q 1422 409 1481 364 
Q 1541 319 1591 319 
Q 1794 319 1975 628 
L 2069 559 
Q 1816 -41 1247 -41 
Q 969 -41 776 114 
Q 584 269 531 459 
Q 500 566 500 1034 
L 500 2613 
L 119 2613 
L 119 2722 
Q 513 3000 789 3306 
Q 1066 3613 1272 3991 
L 1375 3991 
z
" transform="scale(0.015625)"/>
      <path id="TimesNewRomanPS-BoldMT-20" transform="scale(0.015625)"/>
      <path id="TimesNewRomanPS-BoldMT-6f" d="M 1594 3009 
Q 1975 3009 2303 2812 
Q 2631 2616 2801 2253 
Q 2972 1891 2972 1459 
Q 2972 838 2656 419 
Q 2275 -88 1603 -88 
Q 944 -88 587 375 
Q 231 838 231 1447 
Q 231 2075 595 2542 
Q 959 3009 1594 3009 
z
M 1606 2788 
Q 1447 2788 1333 2667 
Q 1219 2547 1183 2192 
Q 1147 1838 1147 1206 
Q 1147 872 1191 581 
Q 1225 359 1337 243 
Q 1450 128 1594 128 
Q 1734 128 1828 206 
Q 1950 313 1991 503 
Q 2053 800 2053 1703 
Q 2053 2234 1993 2432 
Q 1934 2631 1819 2722 
Q 1738 2788 1606 2788 
z
" transform="scale(0.015625)"/>
      <path id="TimesNewRomanPS-BoldMT-6e" d="M 1409 2922 
L 1409 2544 
Q 1634 2788 1840 2898 
Q 2047 3009 2284 3009 
Q 2569 3009 2756 2851 
Q 2944 2694 3006 2459 
Q 3056 2281 3056 1775 
L 3056 638 
Q 3056 300 3117 217 
Q 3178 134 3372 113 
L 3372 0 
L 1894 0 
L 1894 113 
Q 2059 134 2131 250 
Q 2181 328 2181 638 
L 2181 1938 
Q 2181 2297 2153 2390 
Q 2125 2484 2058 2536 
Q 1991 2588 1909 2588 
Q 1641 2588 1409 2203 
L 1409 638 
Q 1409 309 1470 221 
Q 1531 134 1697 113 
L 1697 0 
L 219 0 
L 219 113 
Q 403 131 481 231 
Q 534 300 534 638 
L 534 2288 
Q 534 2619 473 2700 
Q 413 2781 219 2806 
L 219 2922 
L 1409 2922 
z
" transform="scale(0.015625)"/>
      <path id="TimesNewRomanPS-BoldMT-68" d="M 1409 4238 
L 1409 2547 
Q 1650 2800 1850 2904 
Q 2050 3009 2266 3009 
Q 2541 3009 2736 2853 
Q 2931 2697 2995 2486 
Q 3059 2275 3059 1775 
L 3059 634 
Q 3059 300 3121 217 
Q 3184 134 3375 113 
L 3375 0 
L 1894 0 
L 1894 113 
Q 2050 134 2128 238 
Q 2184 319 2184 634 
L 2184 1938 
Q 2184 2300 2156 2392 
Q 2128 2484 2061 2536 
Q 1994 2588 1909 2588 
Q 1784 2588 1665 2502 
Q 1547 2416 1409 2200 
L 1409 634 
Q 1409 322 1456 244 
Q 1516 138 1700 113 
L 1700 0 
L 219 0 
L 219 113 
Q 403 131 481 231 
Q 534 300 534 634 
L 534 3603 
Q 534 3934 473 4015 
Q 413 4097 219 4122 
L 219 4238 
L 1409 4238 
z
" transform="scale(0.015625)"/>
      <path id="TimesNewRomanPS-BoldMT-65" d="M 2691 1566 
L 1088 1566 
Q 1116 984 1397 647 
Q 1613 388 1916 388 
Q 2103 388 2256 492 
Q 2409 597 2584 869 
L 2691 800 
Q 2453 316 2165 114 
Q 1878 -88 1500 -88 
Q 850 -88 516 413 
Q 247 816 247 1413 
Q 247 2144 642 2576 
Q 1038 3009 1569 3009 
Q 2013 3009 2339 2645 
Q 2666 2281 2691 1566 
z
M 1922 1775 
Q 1922 2278 1867 2465 
Q 1813 2653 1697 2750 
Q 1631 2806 1522 2806 
Q 1359 2806 1256 2647 
Q 1072 2369 1072 1884 
L 1072 1775 
L 1922 1775 
z
" transform="scale(0.015625)"/>
      <path id="TimesNewRomanPS-BoldMT-6d" d="M 1428 2922 
L 1428 2538 
Q 1669 2800 1873 2904 
Q 2078 3009 2322 3009 
Q 2603 3009 2793 2878 
Q 2984 2747 3088 2478 
Q 3338 2759 3567 2884 
Q 3797 3009 4047 3009 
Q 4350 3009 4529 2870 
Q 4709 2731 4779 2517 
Q 4850 2303 4850 1834 
L 4850 638 
Q 4850 300 4911 219 
Q 4972 138 5166 113 
L 5166 0 
L 3656 0 
L 3656 113 
Q 3834 128 3919 250 
Q 3975 334 3975 638 
L 3975 1894 
Q 3975 2284 3944 2390 
Q 3913 2497 3845 2548 
Q 3778 2600 3688 2600 
Q 3553 2600 3415 2501 
Q 3278 2403 3138 2206 
L 3138 638 
Q 3138 322 3191 241 
Q 3263 125 3466 113 
L 3466 0 
L 1953 0 
L 1953 113 
Q 2075 119 2145 173 
Q 2216 228 2239 304 
Q 2263 381 2263 638 
L 2263 1894 
Q 2263 2291 2231 2391 
Q 2200 2491 2126 2547 
Q 2053 2603 1969 2603 
Q 1844 2603 1741 2538 
Q 1594 2441 1428 2206 
L 1428 638 
Q 1428 328 1489 229 
Q 1550 131 1744 113 
L 1744 0 
L 238 0 
L 238 113 
Q 422 131 500 231 
Q 553 300 553 638 
L 553 2288 
Q 553 2619 492 2700 
Q 431 2781 238 2806 
L 238 2922 
L 1428 2922 
z
" transform="scale(0.015625)"/>
      <path id="TimesNewRomanPS-BoldMT-6c" d="M 1359 4238 
L 1359 606 
Q 1359 297 1431 211 
Q 1503 125 1713 113 
L 1713 0 
L 134 0 
L 134 113 
Q 328 119 422 225 
Q 484 297 484 606 
L 484 3631 
Q 484 3938 412 4023 
Q 341 4109 134 4122 
L 134 4238 
L 1359 4238 
z
" transform="scale(0.015625)"/>
      <path id="TimesNewRomanPS-BoldMT-79" d="M 1556 -119 
L 613 2047 
Q 400 2538 298 2650 
Q 197 2763 53 2806 
L 53 2922 
L 1606 2922 
L 1606 2806 
Q 1453 2800 1390 2747 
Q 1328 2694 1328 2619 
Q 1328 2500 1484 2150 
L 1984 1006 
L 2325 1891 
Q 2509 2363 2509 2547 
Q 2509 2663 2432 2731 
Q 2356 2800 2163 2806 
L 2163 2922 
L 3141 2922 
L 3141 2806 
Q 2997 2791 2906 2695 
Q 2816 2600 2603 2047 
L 1769 -119 
Q 1453 -931 1300 -1119 
Q 1084 -1381 759 -1381 
Q 500 -1381 339 -1232 
Q 178 -1084 178 -875 
Q 178 -694 289 -575 
Q 400 -456 563 -456 
Q 719 -456 814 -556 
Q 909 -656 913 -866 
Q 916 -984 941 -1019 
Q 966 -1053 1013 -1053 
Q 1088 -1053 1172 -963 
Q 1297 -831 1466 -363 
L 1556 -119 
z
" transform="scale(0.015625)"/>
      <path id="TimesNewRomanPS-BoldMT-72" d="M 1428 2922 
L 1428 2259 
Q 1719 2713 1937 2861 
Q 2156 3009 2359 3009 
Q 2534 3009 2639 2901 
Q 2744 2794 2744 2597 
Q 2744 2388 2642 2272 
Q 2541 2156 2397 2156 
Q 2231 2156 2109 2262 
Q 1988 2369 1966 2381 
Q 1934 2400 1894 2400 
Q 1803 2400 1722 2331 
Q 1594 2225 1528 2028 
Q 1428 1725 1428 1359 
L 1428 688 
L 1431 513 
Q 1431 334 1453 284 
Q 1491 200 1564 161 
Q 1638 122 1813 113 
L 1813 0 
L 234 0 
L 234 113 
Q 425 128 492 217 
Q 559 306 559 688 
L 559 2303 
Q 559 2553 534 2622 
Q 503 2709 443 2750 
Q 384 2791 234 2806 
L 234 2922 
L 1428 2922 
z
" transform="scale(0.015625)"/>
      <path id="TimesNewRomanPS-BoldMT-76" d="M 1534 -88 
L 550 2178 
Q 372 2588 272 2697 
Q 200 2778 59 2806 
L 59 2922 
L 1613 2922 
L 1613 2806 
Q 1466 2806 1413 2753 
Q 1338 2684 1338 2591 
Q 1338 2475 1475 2156 
L 1956 1059 
L 2341 2006 
Q 2506 2413 2506 2581 
Q 2506 2678 2436 2739 
Q 2366 2800 2188 2806 
L 2188 2922 
L 3144 2922 
L 3144 2806 
Q 3006 2788 2918 2703 
Q 2831 2619 2656 2206 
L 1681 -88 
L 1534 -88 
z
" transform="scale(0.015625)"/>
      <path id="TimesNewRomanPS-BoldMT-75" d="M 3038 2922 
L 3038 634 
Q 3038 300 3100 217 
Q 3163 134 3353 113 
L 3353 0 
L 2163 0 
L 2163 391 
Q 1953 141 1743 26 
Q 1534 -88 1275 -88 
Q 1028 -88 836 64 
Q 644 216 578 419 
Q 513 622 513 1128 
L 513 2288 
Q 513 2619 452 2700 
Q 391 2781 197 2806 
L 197 2922 
L 1388 2922 
L 1388 925 
Q 1388 613 1417 522 
Q 1447 431 1511 384 
Q 1575 338 1659 338 
Q 1772 338 1863 397 
Q 1988 478 2163 725 
L 2163 2288 
Q 2163 2619 2102 2700 
Q 2041 2781 1847 2806 
L 1847 2922 
L 3038 2922 
z
" transform="scale(0.015625)"/>
      <path id="TimesNewRomanPS-BoldMT-66" d="M 1497 2616 
L 1497 588 
Q 1497 294 1559 219 
Q 1659 103 1928 113 
L 1928 0 
L 206 0 
L 206 113 
Q 403 116 486 158 
Q 569 200 600 275 
Q 631 350 631 588 
L 631 2616 
L 206 2616 
L 206 2922 
L 631 2922 
L 631 3138 
L 628 3284 
Q 628 3734 958 4034 
Q 1288 4334 1850 4334 
Q 2234 4334 2420 4190 
Q 2606 4047 2606 3872 
Q 2606 3731 2490 3628 
Q 2375 3525 2184 3525 
Q 2022 3525 1926 3609 
Q 1831 3694 1831 3797 
Q 1831 3825 1850 3913 
Q 1863 3966 1863 4013 
Q 1863 4078 1825 4109 
Q 1775 4156 1703 4156 
Q 1613 4156 1552 4081 
Q 1491 4006 1491 3841 
L 1497 3294 
L 1497 2922 
L 1928 2922 
L 1928 2616 
L 1497 2616 
z
" transform="scale(0.015625)"/>
      <path id="TimesNewRomanPS-BoldMT-64" d="M 3056 4238 
L 3056 875 
Q 3056 534 3075 472 
Q 3100 369 3170 319 
Q 3241 269 3416 256 
L 3416 153 
L 2181 -88 
L 2181 375 
Q 1959 106 1786 9 
Q 1613 -88 1394 -88 
Q 834 -88 509 413 
Q 247 819 247 1409 
Q 247 1881 409 2254 
Q 572 2628 855 2818 
Q 1138 3009 1463 3009 
Q 1672 3009 1834 2928 
Q 1997 2847 2181 2644 
L 2181 3525 
Q 2181 3859 2153 3928 
Q 2116 4019 2041 4062 
Q 1966 4106 1759 4106 
L 1759 4238 
L 3056 4238 
z
M 2181 2256 
Q 1950 2700 1616 2700 
Q 1500 2700 1425 2638 
Q 1309 2541 1236 2297 
Q 1163 2053 1163 1550 
Q 1163 997 1244 731 
Q 1325 466 1466 347 
Q 1538 288 1663 288 
Q 1938 288 2181 719 
L 2181 2256 
z
" transform="scale(0.015625)"/>
      <path id="TimesNewRomanPS-BoldMT-69" d="M 919 4338 
Q 1122 4338 1262 4195 
Q 1403 4053 1403 3853 
Q 1403 3653 1261 3512 
Q 1119 3372 919 3372 
Q 719 3372 578 3512 
Q 438 3653 438 3853 
Q 438 4053 578 4195 
Q 719 4338 919 4338 
z
M 1356 2922 
L 1356 606 
Q 1356 297 1428 211 
Q 1500 125 1709 113 
L 1709 0 
L 131 0 
L 131 113 
Q 325 119 419 225 
Q 481 297 481 606 
L 481 2313 
Q 481 2622 409 2708 
Q 338 2794 131 2806 
L 131 2922 
L 1356 2922 
z
" transform="scale(0.015625)"/>
      <path id="TimesNewRomanPS-BoldMT-63" d="M 2600 753 
L 2697 678 
Q 2491 291 2183 101 
Q 1875 -88 1528 -88 
Q 944 -88 594 353 
Q 244 794 244 1413 
Q 244 2009 563 2463 
Q 947 3009 1622 3009 
Q 2075 3009 2342 2781 
Q 2609 2553 2609 2272 
Q 2609 2094 2501 1987 
Q 2394 1881 2219 1881 
Q 2034 1881 1914 2003 
Q 1794 2125 1766 2438 
Q 1747 2634 1675 2713 
Q 1603 2791 1506 2791 
Q 1356 2791 1250 2631 
Q 1088 2391 1088 1894 
Q 1088 1481 1219 1104 
Q 1350 728 1578 544 
Q 1750 409 1984 409 
Q 2138 409 2275 481 
Q 2413 553 2600 753 
z
" transform="scale(0.015625)"/>
      <path id="TimesNewRomanPS-BoldMT-70" d="M 1347 297 
L 1347 -791 
Q 1347 -1016 1383 -1097 
Q 1419 -1178 1494 -1215 
Q 1569 -1253 1788 -1253 
L 1788 -1369 
L 122 -1369 
L 122 -1253 
Q 316 -1247 409 -1144 
Q 472 -1072 472 -772 
L 472 2313 
Q 472 2622 400 2708 
Q 328 2794 122 2806 
L 122 2922 
L 1347 2922 
L 1347 2538 
Q 1500 2763 1659 2863 
Q 1888 3009 2156 3009 
Q 2478 3009 2742 2806 
Q 3006 2603 3143 2245 
Q 3281 1888 3281 1475 
Q 3281 1031 3139 664 
Q 2997 297 2726 104 
Q 2456 -88 2125 -88 
Q 1884 -88 1675 19 
Q 1519 100 1347 297 
z
M 1347 613 
Q 1616 231 1922 231 
Q 2091 231 2200 409 
Q 2363 672 2363 1409 
Q 2363 2166 2184 2444 
Q 2066 2628 1866 2628 
Q 1550 2628 1347 2172 
L 1347 613 
z
" transform="scale(0.015625)"/>
      <path id="TimesNewRomanPS-BoldMT-73" d="M 2063 3003 
L 2109 2006 
L 2003 2006 
Q 1813 2450 1608 2612 
Q 1403 2775 1200 2775 
Q 1072 2775 981 2689 
Q 891 2603 891 2491 
Q 891 2406 953 2328 
Q 1053 2200 1512 1889 
Q 1972 1578 2117 1361 
Q 2263 1144 2263 875 
Q 2263 631 2141 397 
Q 2019 163 1797 37 
Q 1575 -88 1306 -88 
Q 1097 -88 747 44 
Q 653 78 619 78 
Q 516 78 447 -78 
L 344 -78 
L 294 972 
L 400 972 
Q 541 559 786 353 
Q 1031 147 1250 147 
Q 1400 147 1495 239 
Q 1591 331 1591 463 
Q 1591 613 1497 722 
Q 1403 831 1078 1053 
Q 600 1384 459 1559 
Q 253 1816 253 2125 
Q 253 2463 486 2736 
Q 719 3009 1159 3009 
Q 1397 3009 1619 2894 
Q 1703 2847 1756 2847 
Q 1813 2847 1847 2870 
Q 1881 2894 1956 3003 
L 2063 3003 
z
" transform="scale(0.015625)"/>
      <path id="TimesNewRomanPS-BoldMT-28" d="M 2056 4334 
L 2056 4191 
Q 1731 3978 1578 3775 
Q 1366 3494 1247 3053 
Q 1097 2506 1097 1525 
Q 1097 600 1233 87 
Q 1369 -425 1603 -741 
Q 1766 -959 2056 -1125 
L 2056 -1281 
Q 1303 -1028 779 -248 
Q 256 531 256 1544 
Q 256 2544 778 3314 
Q 1300 4084 2056 4334 
z
" transform="scale(0.015625)"/>
      <path id="TimesNewRomanPS-BoldMT-55" d="M 150 4238 
L 2338 4238 
L 2338 4122 
L 2228 4122 
Q 1981 4122 1889 4070 
Q 1797 4019 1758 3928 
Q 1719 3838 1719 3475 
L 1719 1400 
Q 1719 831 1805 647 
Q 1891 463 2087 341 
Q 2284 219 2584 219 
Q 2928 219 3170 373 
Q 3413 528 3533 800 
Q 3653 1072 3653 1747 
L 3653 3475 
Q 3653 3759 3593 3881 
Q 3534 4003 3444 4050 
Q 3303 4122 3047 4122 
L 3047 4238 
L 4513 4238 
L 4513 4122 
L 4425 4122 
Q 4247 4122 4128 4050 
Q 4009 3978 3956 3834 
Q 3916 3734 3916 3475 
L 3916 1866 
Q 3916 1119 3817 787 
Q 3719 456 3337 178 
Q 2956 -100 2297 -100 
Q 1747 -100 1447 47 
Q 1038 247 869 559 
Q 700 872 700 1400 
L 700 3475 
Q 700 3841 659 3930 
Q 619 4019 519 4072 
Q 419 4125 150 4122 
L 150 4238 
z
" transform="scale(0.015625)"/>
      <path id="TimesNewRomanPS-BoldMT-53" d="M 3006 4334 
L 3041 2922 
L 2913 2922 
Q 2822 3453 2467 3776 
Q 2113 4100 1700 4100 
Q 1381 4100 1195 3929 
Q 1009 3759 1009 3538 
Q 1009 3397 1075 3288 
Q 1166 3141 1366 2997 
Q 1513 2894 2044 2631 
Q 2788 2266 3047 1941 
Q 3303 1616 3303 1197 
Q 3303 666 2889 283 
Q 2475 -100 1838 -100 
Q 1638 -100 1459 -59 
Q 1281 -19 1013 94 
Q 863 156 766 156 
Q 684 156 593 93 
Q 503 31 447 -97 
L 331 -97 
L 331 1503 
L 447 1503 
Q 584 828 976 473 
Q 1369 119 1822 119 
Q 2172 119 2380 309 
Q 2588 500 2588 753 
Q 2588 903 2508 1043 
Q 2428 1184 2265 1311 
Q 2103 1438 1691 1641 
Q 1113 1925 859 2125 
Q 606 2325 470 2572 
Q 334 2819 334 3116 
Q 334 3622 706 3978 
Q 1078 4334 1644 4334 
Q 1850 4334 2044 4284 
Q 2191 4247 2402 4145 
Q 2613 4044 2697 4044 
Q 2778 4044 2825 4094 
Q 2872 4144 2913 4334 
L 3006 4334 
z
" transform="scale(0.015625)"/>
      <path id="TimesNewRomanPS-BoldMT-29" d="M 78 -1281 
L 78 -1138 
Q 403 -922 556 -719 
Q 766 -438 888 0 
Q 1038 550 1038 1531 
Q 1038 2456 902 2967 
Q 766 3478 531 3794 
Q 369 4013 78 4178 
L 78 4334 
Q 831 4081 1354 3301 
Q 1878 2522 1878 1509 
Q 1878 513 1354 -257 
Q 831 -1028 78 -1281 
z
" transform="scale(0.015625)"/>
     </defs>
     <use xlink:href="#TimesNewRomanPS-BoldMT-44"/>
     <use xlink:href="#TimesNewRomanPS-BoldMT-61" x="72.216797"/>
     <use xlink:href="#TimesNewRomanPS-BoldMT-74" x="122.216797"/>
     <use xlink:href="#TimesNewRomanPS-BoldMT-61" x="155.517578"/>
     <use xlink:href="#TimesNewRomanPS-BoldMT-20" x="205.517578"/>
     <use xlink:href="#TimesNewRomanPS-BoldMT-6f" x="230.517578"/>
     <use xlink:href="#TimesNewRomanPS-BoldMT-6e" x="280.517578"/>
     <use xlink:href="#TimesNewRomanPS-BoldMT-20" x="336.132812"/>
     <use xlink:href="#TimesNewRomanPS-BoldMT-74" x="361.132812"/>
     <use xlink:href="#TimesNewRomanPS-BoldMT-68" x="394.433594"/>
     <use xlink:href="#TimesNewRomanPS-BoldMT-65" x="450.048828"/>
     <use xlink:href="#TimesNewRomanPS-BoldMT-20" x="494.433594"/>
     <use xlink:href="#TimesNewRomanPS-BoldMT-6d" x="519.433594"/>
     <use xlink:href="#TimesNewRomanPS-BoldMT-6f" x="602.734375"/>
     <use xlink:href="#TimesNewRomanPS-BoldMT-6e" x="652.734375"/>
     <use xlink:href="#TimesNewRomanPS-BoldMT-74" x="708.349609"/>
     <use xlink:href="#TimesNewRomanPS-BoldMT-68" x="741.650391"/>
     <use xlink:href="#TimesNewRomanPS-BoldMT-6c" x="797.265625"/>
     <use xlink:href="#TimesNewRomanPS-BoldMT-79" x="825.048828"/>
     <use xlink:href="#TimesNewRomanPS-BoldMT-20" x="875.048828"/>
     <use xlink:href="#TimesNewRomanPS-BoldMT-72" x="900.048828"/>
     <use xlink:href="#TimesNewRomanPS-BoldMT-65" x="942.683594"/>
     <use xlink:href="#TimesNewRomanPS-BoldMT-76" x="987.068359"/>
     <use xlink:href="#TimesNewRomanPS-BoldMT-65" x="1037.068359"/>
     <use xlink:href="#TimesNewRomanPS-BoldMT-6e" x="1081.453125"/>
     <use xlink:href="#TimesNewRomanPS-BoldMT-75" x="1137.068359"/>
     <use xlink:href="#TimesNewRomanPS-BoldMT-65" x="1192.683594"/>
     <use xlink:href="#TimesNewRomanPS-BoldMT-20" x="1237.068359"/>
     <use xlink:href="#TimesNewRomanPS-BoldMT-6f" x="1262.068359"/>
     <use xlink:href="#TimesNewRomanPS-BoldMT-66" x="1312.068359"/>
     <use xlink:href="#TimesNewRomanPS-BoldMT-20" x="1345.369141"/>
     <use xlink:href="#TimesNewRomanPS-BoldMT-64" x="1370.369141"/>
     <use xlink:href="#TimesNewRomanPS-BoldMT-69" x="1425.984375"/>
     <use xlink:href="#TimesNewRomanPS-BoldMT-66" x="1453.767578"/>
     <use xlink:href="#TimesNewRomanPS-BoldMT-66" x="1487.068359"/>
     <use xlink:href="#TimesNewRomanPS-BoldMT-65" x="1520.369141"/>
     <use xlink:href="#TimesNewRomanPS-BoldMT-72" x="1564.753906"/>
     <use xlink:href="#TimesNewRomanPS-BoldMT-65" x="1607.388672"/>
     <use xlink:href="#TimesNewRomanPS-BoldMT-6e" x="1651.773438"/>
     <use xlink:href="#TimesNewRomanPS-BoldMT-74" x="1707.388672"/>
     <use xlink:href="#TimesNewRomanPS-BoldMT-20" x="1740.689453"/>
     <use xlink:href="#TimesNewRomanPS-BoldMT-63" x="1765.689453"/>
     <use xlink:href="#TimesNewRomanPS-BoldMT-6f" x="1810.074219"/>
     <use xlink:href="#TimesNewRomanPS-BoldMT-6d" x="1860.074219"/>
     <use xlink:href="#TimesNewRomanPS-BoldMT-70" x="1943.375"/>
     <use xlink:href="#TimesNewRomanPS-BoldMT-61" x="1998.990234"/>
     <use xlink:href="#TimesNewRomanPS-BoldMT-6e" x="2048.990234"/>
     <use xlink:href="#TimesNewRomanPS-BoldMT-69" x="2104.605469"/>
     <use xlink:href="#TimesNewRomanPS-BoldMT-65" x="2132.388672"/>
     <use xlink:href="#TimesNewRomanPS-BoldMT-73" x="2176.773438"/>
     <use xlink:href="#TimesNewRomanPS-BoldMT-20" x="2215.689453"/>
     <use xlink:href="#TimesNewRomanPS-BoldMT-28" x="2240.689453"/>
     <use xlink:href="#TimesNewRomanPS-BoldMT-55" x="2273.990234"/>
     <use xlink:href="#TimesNewRomanPS-BoldMT-53" x="2346.207031"/>
     <use xlink:href="#TimesNewRomanPS-BoldMT-44" x="2401.822266"/>
     <use xlink:href="#TimesNewRomanPS-BoldMT-29" x="2474.039062"/>
    </g>
   </g>
  </g>
 </g>
 <defs>
  <clipPath id="p85f35d3414">
   <rect x="60.915938" y="30.045" width="366.78" height="228.855181"/>
  </clipPath>
 </defs>
</svg>
