<?xml version="1.0" encoding="utf-8" standalone="no"?>
<!DOCTYPE svg PUBLIC "-//W3C//DTD SVG 1.1//EN"
  "http://www.w3.org/Graphics/SVG/1.1/DTD/svg11.dtd">
<svg xmlns:xlink="http://www.w3.org/1999/xlink" width="538.4pt" height="319.944237pt" viewBox="0 0 538.4 319.944237" xmlns="http://www.w3.org/2000/svg" version="1.1">
 <metadata>
  <rdf:RDF xmlns:dc="http://purl.org/dc/elements/1.1/" xmlns:cc="http://creativecommons.org/ns#" xmlns:rdf="http://www.w3.org/1999/02/22-rdf-syntax-ns#">
   <cc:Work>
    <dc:type rdf:resource="http://purl.org/dc/dcmitype/StillImage"/>
    <dc:date>2025-05-26T17:54:19.670516</dc:date>
    <dc:format>image/svg+xml</dc:format>
    <dc:creator>
     <cc:Agent>
      <dc:title>Matplotlib v3.7.2, https://matplotlib.org/</dc:title>
     </cc:Agent>
    </dc:creator>
   </cc:Work>
  </rdf:RDF>
 </metadata>
 <defs>
  <style type="text/css">*{stroke-linejoin: round; stroke-linecap: butt}</style>
 </defs>
 <g id="figure_1">
  <g id="patch_1">
   <path d="M 0 319.944237 
L 538.4 319.944237 
L 538.4 0 
L 0 0 
z
" style="fill: #ffffff"/>
  </g>
  <g id="axes_1">
   <g id="patch_2">
    <path d="M 80.8 270.228031 
L 457.6 270.228031 
L 457.6 30.045 
L 80.8 30.045 
z
" style="fill: #ffffff"/>
   </g>
   <g id="PolyCollection_1">
    <defs>
     <path id="m15ef892631" d="M 178.728009 -60.633616 
L 171.271991 -60.633616 
L 170.891403 -61.887037 
L 170.506855 -63.140457 
L 170.117105 -64.393877 
L 169.719811 -65.647297 
L 169.311905 -66.900717 
L 168.889923 -68.154138 
L 168.450124 -69.407558 
L 167.988323 -70.660978 
L 167.499353 -71.914398 
L 166.976245 -73.167818 
L 166.409234 -74.421239 
L 165.784824 -75.674659 
L 165.085156 -76.928079 
L 164.287902 -78.181499 
L 163.366834 -79.434919 
L 162.293091 -80.68834 
L 161.037031 -81.94176 
L 159.57045 -83.19518 
L 157.868845 -84.4486 
L 155.913431 -85.702021 
L 153.692674 -86.955441 
L 151.203209 -88.208861 
L 148.45019 -89.462281 
L 145.447221 -90.715701 
L 142.21609 -91.969122 
L 138.786522 -93.222542 
L 135.196091 -94.475962 
L 131.490244 -95.729382 
L 127.722272 -96.982802 
L 123.952916 -98.236223 
L 120.249253 -99.489643 
L 116.682588 -100.743063 
L 113.325242 -101.996483 
L 110.246356 -103.249903 
L 107.507121 -104.503324 
L 105.156017 -105.756744 
L 103.224781 -107.010164 
L 101.725771 -108.263584 
L 100.65125 -109.517004 
L 99.974823 -110.770425 
L 99.654933 -112.023845 
L 99.64 -113.277265 
L 99.87453 -114.530685 
L 100.305349 -115.784105 
L 100.887128 -117.037526 
L 101.586453 -118.290946 
L 102.383927 -119.544366 
L 103.274103 -120.797786 
L 104.263349 -122.051206 
L 105.366103 -123.304627 
L 106.600159 -124.558047 
L 107.981815 -125.811467 
L 109.521673 -127.064887 
L 111.221772 -128.318308 
L 113.074471 -129.571728 
L 115.063181 -130.825148 
L 117.16472 -132.078568 
L 119.35276 -133.331988 
L 121.601679 -134.585409 
L 123.890079 -135.838829 
L 126.203325 -137.092249 
L 128.534677 -138.345669 
L 130.884877 -139.599089 
L 133.260303 -140.85251 
L 135.670083 -142.10593 
L 138.122656 -143.35935 
L 140.622375 -144.61277 
L 143.166636 -145.86619 
L 145.743945 -147.119611 
L 148.333155 -148.373031 
L 150.903938 -149.626451 
L 153.418421 -150.879871 
L 155.833773 -152.133291 
L 158.105474 -153.386712 
L 160.19091 -154.640132 
L 162.052948 -155.893552 
L 163.663145 -157.146972 
L 165.004267 -158.400392 
L 166.071893 -159.653813 
L 166.874911 -160.907233 
L 167.434873 -162.160653 
L 167.784252 -163.414073 
L 167.963774 -164.667494 
L 168.019094 -165.920914 
L 167.997163 -167.174334 
L 167.942658 -168.427754 
L 167.894848 -169.681174 
L 167.885208 -170.934595 
L 167.935981 -172.188015 
L 168.059786 -173.441435 
L 168.260204 -174.694855 
L 168.533177 -175.948275 
L 168.868945 -177.201696 
L 169.254206 -178.455116 
L 169.674195 -179.708536 
L 170.114436 -180.961956 
L 170.56199 -182.215376 
L 171.006163 -183.468797 
L 171.438707 -184.722217 
L 178.561293 -184.722217 
L 178.561293 -184.722217 
L 178.993837 -183.468797 
L 179.43801 -182.215376 
L 179.885564 -180.961956 
L 180.325805 -179.708536 
L 180.745794 -178.455116 
L 181.131055 -177.201696 
L 181.466823 -175.948275 
L 181.739796 -174.694855 
L 181.940214 -173.441435 
L 182.064019 -172.188015 
L 182.114792 -170.934595 
L 182.105152 -169.681174 
L 182.057342 -168.427754 
L 182.002837 -167.174334 
L 181.980906 -165.920914 
L 182.036226 -164.667494 
L 182.215748 -163.414073 
L 182.565127 -162.160653 
L 183.125089 -160.907233 
L 183.928107 -159.653813 
L 184.995733 -158.400392 
L 186.336855 -157.146972 
L 187.947052 -155.893552 
L 189.80909 -154.640132 
L 191.894526 -153.386712 
L 194.166227 -152.133291 
L 196.581579 -150.879871 
L 199.096062 -149.626451 
L 201.666845 -148.373031 
L 204.256055 -147.119611 
L 206.833364 -145.86619 
L 209.377625 -144.61277 
L 211.877344 -143.35935 
L 214.329917 -142.10593 
L 216.739697 -140.85251 
L 219.115123 -139.599089 
L 221.465323 -138.345669 
L 223.796675 -137.092249 
L 226.109921 -135.838829 
L 228.398321 -134.585409 
L 230.64724 -133.331988 
L 232.83528 -132.078568 
L 234.936819 -130.825148 
L 236.925529 -129.571728 
L 238.778228 -128.318308 
L 240.478327 -127.064887 
L 242.018185 -125.811467 
L 243.399841 -124.558047 
L 244.633897 -123.304627 
L 245.736651 -122.051206 
L 246.725897 -120.797786 
L 247.616073 -119.544366 
L 248.413547 -118.290946 
L 249.112872 -117.037526 
L 249.694651 -115.784105 
L 250.12547 -114.530685 
L 250.36 -113.277265 
L 250.345067 -112.023845 
L 250.025177 -110.770425 
L 249.34875 -109.517004 
L 248.274229 -108.263584 
L 246.775219 -107.010164 
L 244.843983 -105.756744 
L 242.492879 -104.503324 
L 239.753644 -103.249903 
L 236.674758 -101.996483 
L 233.317412 -100.743063 
L 229.750747 -99.489643 
L 226.047084 -98.236223 
L 222.277728 -96.982802 
L 218.509756 -95.729382 
L 214.803909 -94.475962 
L 211.213478 -93.222542 
L 207.78391 -91.969122 
L 204.552779 -90.715701 
L 201.54981 -89.462281 
L 198.796791 -88.208861 
L 196.307326 -86.955441 
L 194.086569 -85.702021 
L 192.131155 -84.4486 
L 190.42955 -83.19518 
L 188.962969 -81.94176 
L 187.706909 -80.68834 
L 186.633166 -79.434919 
L 185.712098 -78.181499 
L 184.914844 -76.928079 
L 184.215176 -75.674659 
L 183.590766 -74.421239 
L 183.023755 -73.167818 
L 182.500647 -71.914398 
L 182.011677 -70.660978 
L 181.549876 -69.407558 
L 181.110077 -68.154138 
L 180.688095 -66.900717 
L 180.280189 -65.647297 
L 179.882895 -64.393877 
L 179.493145 -63.140457 
L 179.108597 -61.887037 
L 178.728009 -60.633616 
z
" style="stroke: #000000; stroke-opacity: 0.7"/>
    </defs>
    <g clip-path="url(#p8676b2990a)">
     <use xlink:href="#m15ef892631" x="0" y="319.944237" style="fill: #8da0cb; fill-opacity: 0.7; stroke: #000000; stroke-opacity: 0.7"/>
    </g>
   </g>
   <g id="PolyCollection_2">
    <defs>
     <path id="mef001792fb" d="M 365.158533 -225.687364 
L 361.641467 -225.687364 
L 361.658812 -226.225692 
L 361.713921 -226.76402 
L 361.801393 -227.302347 
L 361.913036 -227.840675 
L 362.038418 -228.379003 
L 362.165541 -228.917331 
L 362.281508 -229.455659 
L 362.373119 -229.993987 
L 362.42732 -230.532315 
L 362.431507 -231.070643 
L 362.373698 -231.608971 
L 362.242628 -232.147299 
L 362.027831 -232.685627 
L 361.719754 -233.223954 
L 361.309944 -233.762282 
L 360.791314 -234.30061 
L 360.158459 -234.838938 
L 359.408004 -235.377266 
L 358.538913 -235.915594 
L 357.552736 -236.453922 
L 356.453733 -236.99225 
L 355.248836 -237.530578 
L 353.947414 -238.068906 
L 352.560793 -238.607234 
L 351.101505 -239.145561 
L 349.582247 -239.683889 
L 348.014571 -240.222217 
L 346.407406 -240.760545 
L 344.765557 -241.298873 
L 343.088425 -241.837201 
L 341.369239 -242.375529 
L 339.59508 -242.913857 
L 337.747936 -243.452185 
L 335.806875 -243.990513 
L 333.751245 -244.528841 
L 331.564577 -245.067168 
L 329.23866 -245.605496 
L 326.777109 -246.143824 
L 324.197727 -246.682152 
L 321.533039 -247.22048 
L 318.828653 -247.758808 
L 316.139421 -248.297136 
L 313.523812 -248.835464 
L 311.037233 -249.373792 
L 308.725344 -249.91212 
L 306.618443 -250.450448 
L 304.727919 -250.988775 
L 303.045406 -251.527103 
L 301.544853 -252.065431 
L 300.187194 -252.603759 
L 298.926875 -253.142087 
L 297.719202 -253.680415 
L 296.527359 -254.218743 
L 295.32811 -254.757071 
L 294.115445 -255.295399 
L 292.901862 -255.833727 
L 291.717348 -256.372055 
L 290.606428 -256.910382 
L 289.623866 -257.44871 
L 288.829592 -257.987038 
L 288.28343 -258.525366 
L 288.04 -259.063694 
L 288.144113 -259.602022 
L 288.626854 -260.14035 
L 289.502557 -260.678678 
L 290.766894 -261.217006 
L 292.396322 -261.755334 
L 294.349136 -262.293662 
L 296.568264 -262.831989 
L 298.985741 -263.370317 
L 301.528591 -263.908645 
L 304.125506 -264.446973 
L 306.713551 -264.985301 
L 309.243983 -265.523629 
L 311.686311 -266.061957 
L 314.029968 -266.600285 
L 316.2833 -267.138613 
L 318.469984 -267.676941 
L 320.623458 -268.215269 
L 322.780222 -268.753596 
L 324.973085 -269.291924 
L 327.225391 -269.830252 
L 329.547075 -270.36858 
L 331.93303 -270.906908 
L 334.363875 -271.445236 
L 336.808794 -271.983564 
L 339.229817 -272.521892 
L 341.586721 -273.06022 
L 343.841746 -273.598548 
L 345.963445 -274.136876 
L 347.92921 -274.675203 
L 349.726321 -275.213531 
L 351.351614 -275.751859 
L 352.810061 -276.290187 
L 354.112664 -276.828515 
L 355.274102 -277.366843 
L 356.310491 -277.905171 
L 357.237539 -278.443499 
L 358.069237 -278.981827 
L 368.730763 -278.981827 
L 368.730763 -278.981827 
L 369.562461 -278.443499 
L 370.489509 -277.905171 
L 371.525898 -277.366843 
L 372.687336 -276.828515 
L 373.989939 -276.290187 
L 375.448386 -275.751859 
L 377.073679 -275.213531 
L 378.87079 -274.675203 
L 380.836555 -274.136876 
L 382.958254 -273.598548 
L 385.213279 -273.06022 
L 387.570183 -272.521892 
L 389.991206 -271.983564 
L 392.436125 -271.445236 
L 394.86697 -270.906908 
L 397.252925 -270.36858 
L 399.574609 -269.830252 
L 401.826915 -269.291924 
L 404.019778 -268.753596 
L 406.176542 -268.215269 
L 408.330016 -267.676941 
L 410.5167 -267.138613 
L 412.770032 -266.600285 
L 415.113689 -266.061957 
L 417.556017 -265.523629 
L 420.086449 -264.985301 
L 422.674494 -264.446973 
L 425.271409 -263.908645 
L 427.814259 -263.370317 
L 430.231736 -262.831989 
L 432.450864 -262.293662 
L 434.403678 -261.755334 
L 436.033106 -261.217006 
L 437.297443 -260.678678 
L 438.173146 -260.14035 
L 438.655887 -259.602022 
L 438.76 -259.063694 
L 438.51657 -258.525366 
L 437.970408 -257.987038 
L 437.176134 -257.44871 
L 436.193572 -256.910382 
L 435.082652 -256.372055 
L 433.898138 -255.833727 
L 432.684555 -255.295399 
L 431.47189 -254.757071 
L 430.272641 -254.218743 
L 429.080798 -253.680415 
L 427.873125 -253.142087 
L 426.612806 -252.603759 
L 425.255147 -252.065431 
L 423.754594 -251.527103 
L 422.072081 -250.988775 
L 420.181557 -250.450448 
L 418.074656 -249.91212 
L 415.762767 -249.373792 
L 413.276188 -248.835464 
L 410.660579 -248.297136 
L 407.971347 -247.758808 
L 405.266961 -247.22048 
L 402.602273 -246.682152 
L 400.022891 -246.143824 
L 397.56134 -245.605496 
L 395.235423 -245.067168 
L 393.048755 -244.528841 
L 390.993125 -243.990513 
L 389.052064 -243.452185 
L 387.20492 -242.913857 
L 385.430761 -242.375529 
L 383.711575 -241.837201 
L 382.034443 -241.298873 
L 380.392594 -240.760545 
L 378.785429 -240.222217 
L 377.217753 -239.683889 
L 375.698495 -239.145561 
L 374.239207 -238.607234 
L 372.852586 -238.068906 
L 371.551164 -237.530578 
L 370.346267 -236.99225 
L 369.247264 -236.453922 
L 368.261087 -235.915594 
L 367.391996 -235.377266 
L 366.641541 -234.838938 
L 366.008686 -234.30061 
L 365.490056 -233.762282 
L 365.080246 -233.223954 
L 364.772169 -232.685627 
L 364.557372 -232.147299 
L 364.426302 -231.608971 
L 364.368493 -231.070643 
L 364.37268 -230.532315 
L 364.426881 -229.993987 
L 364.518492 -229.455659 
L 364.634459 -228.917331 
L 364.761582 -228.379003 
L 364.886964 -227.840675 
L 364.998607 -227.302347 
L 365.086079 -226.76402 
L 365.141188 -226.225692 
L 365.158533 -225.687364 
z
" style="stroke: #000000; stroke-opacity: 0.7"/>
    </defs>
    <g clip-path="url(#p8676b2990a)">
     <use xlink:href="#mef001792fb" x="0" y="319.944237" style="fill: #1f77b4; fill-opacity: 0.7; stroke: #000000; stroke-opacity: 0.7"/>
    </g>
   </g>
   <g id="matplotlib.axis_1">
    <g id="xtick_1">
     <g id="line2d_1">
      <defs>
       <path id="mf1bb53855d" d="M 0 0 
L 0 3.5 
" style="stroke: #000000; stroke-width: 0.8"/>
      </defs>
      <g>
       <use xlink:href="#mf1bb53855d" x="175" y="270.228031" style="stroke: #000000; stroke-width: 0.8"/>
      </g>
     </g>
     <g id="text_1">
      <!-- Ashford -->
      <g transform="translate(145.375761 310.929183) rotate(-45) scale(0.12 -0.12)">
       <defs>
        <path id="TimesNewRomanPSMT-41" d="M 2928 1419 
L 1288 1419 
L 1000 750 
Q 894 503 894 381 
Q 894 284 986 211 
Q 1078 138 1384 116 
L 1384 0 
L 50 0 
L 50 116 
Q 316 163 394 238 
Q 553 388 747 847 
L 2238 4334 
L 2347 4334 
L 3822 809 
Q 4000 384 4145 257 
Q 4291 131 4550 116 
L 4550 0 
L 2878 0 
L 2878 116 
Q 3131 128 3220 200 
Q 3309 272 3309 375 
Q 3309 513 3184 809 
L 2928 1419 
z
M 2841 1650 
L 2122 3363 
L 1384 1650 
L 2841 1650 
z
" transform="scale(0.015625)"/>
        <path id="TimesNewRomanPSMT-73" d="M 2050 2947 
L 2050 1972 
L 1947 1972 
Q 1828 2431 1642 2597 
Q 1456 2763 1169 2763 
Q 950 2763 815 2647 
Q 681 2531 681 2391 
Q 681 2216 781 2091 
Q 878 1963 1175 1819 
L 1631 1597 
Q 2266 1288 2266 781 
Q 2266 391 1970 151 
Q 1675 -88 1309 -88 
Q 1047 -88 709 6 
Q 606 38 541 38 
Q 469 38 428 -44 
L 325 -44 
L 325 978 
L 428 978 
Q 516 541 762 319 
Q 1009 97 1316 97 
Q 1531 97 1667 223 
Q 1803 350 1803 528 
Q 1803 744 1651 891 
Q 1500 1038 1047 1263 
Q 594 1488 453 1669 
Q 313 1847 313 2119 
Q 313 2472 555 2709 
Q 797 2947 1181 2947 
Q 1350 2947 1591 2875 
Q 1750 2828 1803 2828 
Q 1853 2828 1881 2850 
Q 1909 2872 1947 2947 
L 2050 2947 
z
" transform="scale(0.015625)"/>
        <path id="TimesNewRomanPSMT-68" d="M 1041 4444 
L 1041 2350 
Q 1388 2731 1591 2839 
Q 1794 2947 1997 2947 
Q 2241 2947 2416 2812 
Q 2591 2678 2675 2391 
Q 2734 2191 2734 1659 
L 2734 647 
Q 2734 375 2778 275 
Q 2809 200 2884 156 
Q 2959 113 3159 113 
L 3159 0 
L 1753 0 
L 1753 113 
L 1819 113 
Q 2019 113 2097 173 
Q 2175 234 2206 353 
Q 2216 403 2216 647 
L 2216 1659 
Q 2216 2128 2167 2275 
Q 2119 2422 2012 2495 
Q 1906 2569 1756 2569 
Q 1603 2569 1437 2487 
Q 1272 2406 1041 2159 
L 1041 647 
Q 1041 353 1073 281 
Q 1106 209 1195 161 
Q 1284 113 1503 113 
L 1503 0 
L 84 0 
L 84 113 
Q 275 113 384 172 
Q 447 203 484 290 
Q 522 378 522 647 
L 522 3238 
Q 522 3728 498 3840 
Q 475 3953 426 3993 
Q 378 4034 297 4034 
Q 231 4034 84 3984 
L 41 4094 
L 897 4444 
L 1041 4444 
z
" transform="scale(0.015625)"/>
        <path id="TimesNewRomanPSMT-66" d="M 1319 2638 
L 1319 756 
Q 1319 356 1406 250 
Q 1522 113 1716 113 
L 1975 113 
L 1975 0 
L 266 0 
L 266 113 
L 394 113 
Q 519 113 622 175 
Q 725 238 764 344 
Q 803 450 803 756 
L 803 2638 
L 247 2638 
L 247 2863 
L 803 2863 
L 803 3050 
Q 803 3478 940 3775 
Q 1078 4072 1361 4255 
Q 1644 4438 1997 4438 
Q 2325 4438 2600 4225 
Q 2781 4084 2781 3909 
Q 2781 3816 2700 3733 
Q 2619 3650 2525 3650 
Q 2453 3650 2373 3701 
Q 2294 3753 2178 3923 
Q 2063 4094 1966 4153 
Q 1869 4213 1750 4213 
Q 1606 4213 1506 4136 
Q 1406 4059 1362 3898 
Q 1319 3738 1319 3069 
L 1319 2863 
L 2056 2863 
L 2056 2638 
L 1319 2638 
z
" transform="scale(0.015625)"/>
        <path id="TimesNewRomanPSMT-6f" d="M 1600 2947 
Q 2250 2947 2644 2453 
Q 2978 2031 2978 1484 
Q 2978 1100 2793 706 
Q 2609 313 2286 112 
Q 1963 -88 1566 -88 
Q 919 -88 538 428 
Q 216 863 216 1403 
Q 216 1797 411 2186 
Q 606 2575 925 2761 
Q 1244 2947 1600 2947 
z
M 1503 2744 
Q 1338 2744 1170 2645 
Q 1003 2547 900 2300 
Q 797 2053 797 1666 
Q 797 1041 1045 587 
Q 1294 134 1700 134 
Q 2003 134 2200 384 
Q 2397 634 2397 1244 
Q 2397 2006 2069 2444 
Q 1847 2744 1503 2744 
z
" transform="scale(0.015625)"/>
        <path id="TimesNewRomanPSMT-72" d="M 1038 2947 
L 1038 2303 
Q 1397 2947 1775 2947 
Q 1947 2947 2059 2842 
Q 2172 2738 2172 2600 
Q 2172 2478 2090 2393 
Q 2009 2309 1897 2309 
Q 1788 2309 1652 2417 
Q 1516 2525 1450 2525 
Q 1394 2525 1328 2463 
Q 1188 2334 1038 2041 
L 1038 669 
Q 1038 431 1097 309 
Q 1138 225 1241 169 
Q 1344 113 1538 113 
L 1538 0 
L 72 0 
L 72 113 
Q 291 113 397 181 
Q 475 231 506 341 
Q 522 394 522 644 
L 522 1753 
Q 522 2253 501 2348 
Q 481 2444 426 2487 
Q 372 2531 291 2531 
Q 194 2531 72 2484 
L 41 2597 
L 906 2947 
L 1038 2947 
z
" transform="scale(0.015625)"/>
        <path id="TimesNewRomanPSMT-64" d="M 2222 322 
Q 2013 103 1813 7 
Q 1613 -88 1381 -88 
Q 913 -88 563 304 
Q 213 697 213 1313 
Q 213 1928 600 2439 
Q 988 2950 1597 2950 
Q 1975 2950 2222 2709 
L 2222 3238 
Q 2222 3728 2198 3840 
Q 2175 3953 2125 3993 
Q 2075 4034 2000 4034 
Q 1919 4034 1784 3984 
L 1744 4094 
L 2597 4444 
L 2738 4444 
L 2738 1134 
Q 2738 631 2761 520 
Q 2784 409 2836 365 
Q 2888 322 2956 322 
Q 3041 322 3181 375 
L 3216 266 
L 2366 -88 
L 2222 -88 
L 2222 322 
z
M 2222 541 
L 2222 2016 
Q 2203 2228 2109 2403 
Q 2016 2578 1861 2667 
Q 1706 2756 1559 2756 
Q 1284 2756 1069 2509 
Q 784 2184 784 1559 
Q 784 928 1059 592 
Q 1334 256 1672 256 
Q 1956 256 2222 541 
z
" transform="scale(0.015625)"/>
       </defs>
       <use xlink:href="#TimesNewRomanPSMT-41"/>
       <use xlink:href="#TimesNewRomanPSMT-73" x="72.216797"/>
       <use xlink:href="#TimesNewRomanPSMT-68" x="111.132812"/>
       <use xlink:href="#TimesNewRomanPSMT-66" x="161.132812"/>
       <use xlink:href="#TimesNewRomanPSMT-6f" x="194.433594"/>
       <use xlink:href="#TimesNewRomanPSMT-72" x="244.433594"/>
       <use xlink:href="#TimesNewRomanPSMT-64" x="277.734375"/>
      </g>
     </g>
    </g>
    <g id="xtick_2">
     <g id="line2d_2">
      <g>
       <use xlink:href="#mf1bb53855d" x="363.4" y="270.228031" style="stroke: #000000; stroke-width: 0.8"/>
      </g>
     </g>
     <g id="text_2">
      <!-- Yorkton -->
      <g transform="translate(334.152296 310.552648) rotate(-45) scale(0.12 -0.12)">
       <defs>
        <path id="TimesNewRomanPSMT-59" d="M 3050 4238 
L 4528 4238 
L 4528 4122 
L 4447 4122 
Q 4366 4122 4209 4050 
Q 4053 3978 3925 3843 
Q 3797 3709 3609 3406 
L 2588 1797 
L 2588 734 
Q 2588 344 2675 247 
Q 2794 116 3050 116 
L 3188 116 
L 3188 0 
L 1388 0 
L 1388 116 
L 1538 116 
Q 1806 116 1919 278 
Q 1988 378 1988 734 
L 1988 1738 
L 825 3513 
Q 619 3825 545 3903 
Q 472 3981 241 4091 
Q 178 4122 59 4122 
L 59 4238 
L 1872 4238 
L 1872 4122 
L 1778 4122 
Q 1631 4122 1507 4053 
Q 1384 3984 1384 3847 
Q 1384 3734 1575 3441 
L 2459 2075 
L 3291 3381 
Q 3478 3675 3478 3819 
Q 3478 3906 3433 3975 
Q 3388 4044 3303 4083 
Q 3219 4122 3050 4122 
L 3050 4238 
z
" transform="scale(0.015625)"/>
        <path id="TimesNewRomanPSMT-6b" d="M 1047 4444 
L 1047 1597 
L 1775 2259 
Q 2006 2472 2044 2528 
Q 2069 2566 2069 2603 
Q 2069 2666 2017 2711 
Q 1966 2756 1847 2763 
L 1847 2863 
L 3091 2863 
L 3091 2763 
Q 2834 2756 2664 2684 
Q 2494 2613 2291 2428 
L 1556 1750 
L 2291 822 
Q 2597 438 2703 334 
Q 2853 188 2966 144 
Q 3044 113 3238 113 
L 3238 0 
L 1847 0 
L 1847 113 
Q 1966 116 2008 148 
Q 2050 181 2050 241 
Q 2050 313 1925 472 
L 1047 1594 
L 1047 644 
Q 1047 366 1086 278 
Q 1125 191 1197 153 
Q 1269 116 1509 113 
L 1509 0 
L 53 0 
L 53 113 
Q 272 113 381 166 
Q 447 200 481 272 
Q 528 375 528 628 
L 528 3234 
Q 528 3731 506 3842 
Q 484 3953 434 3995 
Q 384 4038 303 4038 
Q 238 4038 106 3984 
L 53 4094 
L 903 4444 
L 1047 4444 
z
" transform="scale(0.015625)"/>
        <path id="TimesNewRomanPSMT-74" d="M 1031 3803 
L 1031 2863 
L 1700 2863 
L 1700 2644 
L 1031 2644 
L 1031 788 
Q 1031 509 1111 412 
Q 1191 316 1316 316 
Q 1419 316 1516 380 
Q 1613 444 1666 569 
L 1788 569 
Q 1678 263 1478 108 
Q 1278 -47 1066 -47 
Q 922 -47 784 33 
Q 647 113 581 261 
Q 516 409 516 719 
L 516 2644 
L 63 2644 
L 63 2747 
Q 234 2816 414 2980 
Q 594 3144 734 3369 
Q 806 3488 934 3803 
L 1031 3803 
z
" transform="scale(0.015625)"/>
        <path id="TimesNewRomanPSMT-6e" d="M 1034 2341 
Q 1538 2947 1994 2947 
Q 2228 2947 2397 2830 
Q 2566 2713 2666 2444 
Q 2734 2256 2734 1869 
L 2734 647 
Q 2734 375 2778 278 
Q 2813 200 2889 156 
Q 2966 113 3172 113 
L 3172 0 
L 1756 0 
L 1756 113 
L 1816 113 
Q 2016 113 2095 173 
Q 2175 234 2206 353 
Q 2219 400 2219 647 
L 2219 1819 
Q 2219 2209 2117 2386 
Q 2016 2563 1775 2563 
Q 1403 2563 1034 2156 
L 1034 647 
Q 1034 356 1069 288 
Q 1113 197 1189 155 
Q 1266 113 1500 113 
L 1500 0 
L 84 0 
L 84 113 
L 147 113 
Q 366 113 442 223 
Q 519 334 519 647 
L 519 1709 
Q 519 2225 495 2337 
Q 472 2450 423 2490 
Q 375 2531 294 2531 
Q 206 2531 84 2484 
L 38 2597 
L 900 2947 
L 1034 2947 
L 1034 2341 
z
" transform="scale(0.015625)"/>
       </defs>
       <use xlink:href="#TimesNewRomanPSMT-59"/>
       <use xlink:href="#TimesNewRomanPSMT-6f" x="62.216797"/>
       <use xlink:href="#TimesNewRomanPSMT-72" x="112.216797"/>
       <use xlink:href="#TimesNewRomanPSMT-6b" x="145.517578"/>
       <use xlink:href="#TimesNewRomanPSMT-74" x="195.517578"/>
       <use xlink:href="#TimesNewRomanPSMT-6f" x="223.300781"/>
       <use xlink:href="#TimesNewRomanPSMT-6e" x="273.300781"/>
      </g>
     </g>
    </g>
   </g>
   <g id="matplotlib.axis_2">
    <g id="ytick_1">
     <g id="line2d_3">
      <defs>
       <path id="m550cc35f3c" d="M 0 0 
L -3.5 0 
" style="stroke: #000000; stroke-width: 0.8"/>
      </defs>
      <g>
       <use xlink:href="#m550cc35f3c" x="80.8" y="245.125279" style="stroke: #000000; stroke-width: 0.8"/>
      </g>
     </g>
     <g id="text_3">
      <!-- 1500 -->
      <g transform="translate(53.8 248.597154) scale(0.1 -0.1)">
       <defs>
        <path id="TimesNewRomanPSMT-31" d="M 750 3822 
L 1781 4325 
L 1884 4325 
L 1884 747 
Q 1884 391 1914 303 
Q 1944 216 2037 169 
Q 2131 122 2419 116 
L 2419 0 
L 825 0 
L 825 116 
Q 1125 122 1212 167 
Q 1300 213 1334 289 
Q 1369 366 1369 747 
L 1369 3034 
Q 1369 3497 1338 3628 
Q 1316 3728 1258 3775 
Q 1200 3822 1119 3822 
Q 1003 3822 797 3725 
L 750 3822 
z
" transform="scale(0.015625)"/>
        <path id="TimesNewRomanPSMT-35" d="M 2778 4238 
L 2534 3706 
L 1259 3706 
L 981 3138 
Q 1809 3016 2294 2522 
Q 2709 2097 2709 1522 
Q 2709 1188 2573 903 
Q 2438 619 2231 419 
Q 2025 219 1772 97 
Q 1413 -75 1034 -75 
Q 653 -75 479 54 
Q 306 184 306 341 
Q 306 428 378 495 
Q 450 563 559 563 
Q 641 563 702 538 
Q 763 513 909 409 
Q 1144 247 1384 247 
Q 1750 247 2026 523 
Q 2303 800 2303 1197 
Q 2303 1581 2056 1914 
Q 1809 2247 1375 2428 
Q 1034 2569 447 2591 
L 1259 4238 
L 2778 4238 
z
" transform="scale(0.015625)"/>
        <path id="TimesNewRomanPSMT-30" d="M 231 2094 
Q 231 2819 450 3342 
Q 669 3866 1031 4122 
Q 1313 4325 1613 4325 
Q 2100 4325 2488 3828 
Q 2972 3213 2972 2159 
Q 2972 1422 2759 906 
Q 2547 391 2217 158 
Q 1888 -75 1581 -75 
Q 975 -75 572 641 
Q 231 1244 231 2094 
z
M 844 2016 
Q 844 1141 1059 588 
Q 1238 122 1591 122 
Q 1759 122 1940 273 
Q 2122 425 2216 781 
Q 2359 1319 2359 2297 
Q 2359 3022 2209 3506 
Q 2097 3866 1919 4016 
Q 1791 4119 1609 4119 
Q 1397 4119 1231 3928 
Q 1006 3669 925 3112 
Q 844 2556 844 2016 
z
" transform="scale(0.015625)"/>
       </defs>
       <use xlink:href="#TimesNewRomanPSMT-31"/>
       <use xlink:href="#TimesNewRomanPSMT-35" x="50"/>
       <use xlink:href="#TimesNewRomanPSMT-30" x="100"/>
       <use xlink:href="#TimesNewRomanPSMT-30" x="150"/>
      </g>
     </g>
    </g>
    <g id="ytick_2">
     <g id="line2d_4">
      <g>
       <use xlink:href="#m550cc35f3c" x="80.8" y="211.981956" style="stroke: #000000; stroke-width: 0.8"/>
      </g>
     </g>
     <g id="text_4">
      <!-- 1750 -->
      <g transform="translate(53.8 215.453831) scale(0.1 -0.1)">
       <defs>
        <path id="TimesNewRomanPSMT-37" d="M 644 4238 
L 2916 4238 
L 2916 4119 
L 1503 -88 
L 1153 -88 
L 2419 3728 
L 1253 3728 
Q 900 3728 750 3644 
Q 488 3500 328 3200 
L 238 3234 
L 644 4238 
z
" transform="scale(0.015625)"/>
       </defs>
       <use xlink:href="#TimesNewRomanPSMT-31"/>
       <use xlink:href="#TimesNewRomanPSMT-37" x="50"/>
       <use xlink:href="#TimesNewRomanPSMT-35" x="100"/>
       <use xlink:href="#TimesNewRomanPSMT-30" x="150"/>
      </g>
     </g>
    </g>
    <g id="ytick_3">
     <g id="line2d_5">
      <g>
       <use xlink:href="#m550cc35f3c" x="80.8" y="178.838633" style="stroke: #000000; stroke-width: 0.8"/>
      </g>
     </g>
     <g id="text_5">
      <!-- 2000 -->
      <g transform="translate(53.8 182.310508) scale(0.1 -0.1)">
       <defs>
        <path id="TimesNewRomanPSMT-32" d="M 2934 816 
L 2638 0 
L 138 0 
L 138 116 
Q 1241 1122 1691 1759 
Q 2141 2397 2141 2925 
Q 2141 3328 1894 3587 
Q 1647 3847 1303 3847 
Q 991 3847 742 3664 
Q 494 3481 375 3128 
L 259 3128 
Q 338 3706 661 4015 
Q 984 4325 1469 4325 
Q 1984 4325 2329 3994 
Q 2675 3663 2675 3213 
Q 2675 2891 2525 2569 
Q 2294 2063 1775 1497 
Q 997 647 803 472 
L 1909 472 
Q 2247 472 2383 497 
Q 2519 522 2628 598 
Q 2738 675 2819 816 
L 2934 816 
z
" transform="scale(0.015625)"/>
       </defs>
       <use xlink:href="#TimesNewRomanPSMT-32"/>
       <use xlink:href="#TimesNewRomanPSMT-30" x="50"/>
       <use xlink:href="#TimesNewRomanPSMT-30" x="100"/>
       <use xlink:href="#TimesNewRomanPSMT-30" x="150"/>
      </g>
     </g>
    </g>
    <g id="ytick_4">
     <g id="line2d_6">
      <g>
       <use xlink:href="#m550cc35f3c" x="80.8" y="145.69531" style="stroke: #000000; stroke-width: 0.8"/>
      </g>
     </g>
     <g id="text_6">
      <!-- 2250 -->
      <g transform="translate(53.8 149.167185) scale(0.1 -0.1)">
       <use xlink:href="#TimesNewRomanPSMT-32"/>
       <use xlink:href="#TimesNewRomanPSMT-32" x="50"/>
       <use xlink:href="#TimesNewRomanPSMT-35" x="100"/>
       <use xlink:href="#TimesNewRomanPSMT-30" x="150"/>
      </g>
     </g>
    </g>
    <g id="ytick_5">
     <g id="line2d_7">
      <g>
       <use xlink:href="#m550cc35f3c" x="80.8" y="112.551988" style="stroke: #000000; stroke-width: 0.8"/>
      </g>
     </g>
     <g id="text_7">
      <!-- 2500 -->
      <g transform="translate(53.8 116.023863) scale(0.1 -0.1)">
       <use xlink:href="#TimesNewRomanPSMT-32"/>
       <use xlink:href="#TimesNewRomanPSMT-35" x="50"/>
       <use xlink:href="#TimesNewRomanPSMT-30" x="100"/>
       <use xlink:href="#TimesNewRomanPSMT-30" x="150"/>
      </g>
     </g>
    </g>
    <g id="ytick_6">
     <g id="line2d_8">
      <g>
       <use xlink:href="#m550cc35f3c" x="80.8" y="79.408665" style="stroke: #000000; stroke-width: 0.8"/>
      </g>
     </g>
     <g id="text_8">
      <!-- 2750 -->
      <g transform="translate(53.8 82.88054) scale(0.1 -0.1)">
       <use xlink:href="#TimesNewRomanPSMT-32"/>
       <use xlink:href="#TimesNewRomanPSMT-37" x="50"/>
       <use xlink:href="#TimesNewRomanPSMT-35" x="100"/>
       <use xlink:href="#TimesNewRomanPSMT-30" x="150"/>
      </g>
     </g>
    </g>
    <g id="ytick_7">
     <g id="line2d_9">
      <g>
       <use xlink:href="#m550cc35f3c" x="80.8" y="46.265342" style="stroke: #000000; stroke-width: 0.8"/>
      </g>
     </g>
     <g id="text_9">
      <!-- 3000 -->
      <g transform="translate(53.8 49.737217) scale(0.1 -0.1)">
       <defs>
        <path id="TimesNewRomanPSMT-33" d="M 325 3431 
Q 506 3859 782 4092 
Q 1059 4325 1472 4325 
Q 1981 4325 2253 3994 
Q 2459 3747 2459 3466 
Q 2459 3003 1878 2509 
Q 2269 2356 2469 2072 
Q 2669 1788 2669 1403 
Q 2669 853 2319 450 
Q 1863 -75 997 -75 
Q 569 -75 414 31 
Q 259 138 259 259 
Q 259 350 332 419 
Q 406 488 509 488 
Q 588 488 669 463 
Q 722 447 909 348 
Q 1097 250 1169 231 
Q 1284 197 1416 197 
Q 1734 197 1970 444 
Q 2206 691 2206 1028 
Q 2206 1275 2097 1509 
Q 2016 1684 1919 1775 
Q 1784 1900 1550 2001 
Q 1316 2103 1072 2103 
L 972 2103 
L 972 2197 
Q 1219 2228 1467 2375 
Q 1716 2522 1828 2728 
Q 1941 2934 1941 3181 
Q 1941 3503 1739 3701 
Q 1538 3900 1238 3900 
Q 753 3900 428 3381 
L 325 3431 
z
" transform="scale(0.015625)"/>
       </defs>
       <use xlink:href="#TimesNewRomanPSMT-33"/>
       <use xlink:href="#TimesNewRomanPSMT-30" x="50"/>
       <use xlink:href="#TimesNewRomanPSMT-30" x="100"/>
       <use xlink:href="#TimesNewRomanPSMT-30" x="150"/>
      </g>
     </g>
    </g>
    <g id="text_10">
     <!-- number -->
     <g transform="translate(46.805313 171.519328) rotate(-90) scale(0.14 -0.14)">
      <defs>
       <path id="TimesNewRomanPSMT-75" d="M 2709 2863 
L 2709 1128 
Q 2709 631 2732 520 
Q 2756 409 2807 365 
Q 2859 322 2928 322 
Q 3025 322 3147 375 
L 3191 266 
L 2334 -88 
L 2194 -88 
L 2194 519 
Q 1825 119 1631 15 
Q 1438 -88 1222 -88 
Q 981 -88 804 51 
Q 628 191 559 409 
Q 491 628 491 1028 
L 491 2306 
Q 491 2509 447 2587 
Q 403 2666 317 2708 
Q 231 2750 6 2747 
L 6 2863 
L 1009 2863 
L 1009 947 
Q 1009 547 1148 422 
Q 1288 297 1484 297 
Q 1619 297 1789 381 
Q 1959 466 2194 703 
L 2194 2325 
Q 2194 2569 2105 2655 
Q 2016 2741 1734 2747 
L 1734 2863 
L 2709 2863 
z
" transform="scale(0.015625)"/>
       <path id="TimesNewRomanPSMT-6d" d="M 1050 2338 
Q 1363 2650 1419 2697 
Q 1559 2816 1721 2881 
Q 1884 2947 2044 2947 
Q 2313 2947 2506 2790 
Q 2700 2634 2766 2338 
Q 3088 2713 3309 2830 
Q 3531 2947 3766 2947 
Q 3994 2947 4170 2830 
Q 4347 2713 4450 2447 
Q 4519 2266 4519 1878 
L 4519 647 
Q 4519 378 4559 278 
Q 4591 209 4675 161 
Q 4759 113 4950 113 
L 4950 0 
L 3538 0 
L 3538 113 
L 3597 113 
Q 3781 113 3884 184 
Q 3956 234 3988 344 
Q 4000 397 4000 647 
L 4000 1878 
Q 4000 2228 3916 2372 
Q 3794 2572 3525 2572 
Q 3359 2572 3192 2489 
Q 3025 2406 2788 2181 
L 2781 2147 
L 2788 2013 
L 2788 647 
Q 2788 353 2820 281 
Q 2853 209 2943 161 
Q 3034 113 3253 113 
L 3253 0 
L 1806 0 
L 1806 113 
Q 2044 113 2133 169 
Q 2222 225 2256 338 
Q 2272 391 2272 647 
L 2272 1878 
Q 2272 2228 2169 2381 
Q 2031 2581 1784 2581 
Q 1616 2581 1450 2491 
Q 1191 2353 1050 2181 
L 1050 647 
Q 1050 366 1089 281 
Q 1128 197 1204 155 
Q 1281 113 1516 113 
L 1516 0 
L 100 0 
L 100 113 
Q 297 113 375 155 
Q 453 197 493 289 
Q 534 381 534 647 
L 534 1741 
Q 534 2213 506 2350 
Q 484 2453 437 2492 
Q 391 2531 309 2531 
Q 222 2531 100 2484 
L 53 2597 
L 916 2947 
L 1050 2947 
L 1050 2338 
z
" transform="scale(0.015625)"/>
       <path id="TimesNewRomanPSMT-62" d="M 984 2369 
Q 1400 2947 1881 2947 
Q 2322 2947 2650 2570 
Q 2978 2194 2978 1541 
Q 2978 778 2472 313 
Q 2038 -88 1503 -88 
Q 1253 -88 995 3 
Q 738 94 469 275 
L 469 3241 
Q 469 3728 445 3840 
Q 422 3953 372 3993 
Q 322 4034 247 4034 
Q 159 4034 28 3984 
L -16 4094 
L 844 4444 
L 984 4444 
L 984 2369 
z
M 984 2169 
L 984 456 
Q 1144 300 1314 220 
Q 1484 141 1663 141 
Q 1947 141 2192 453 
Q 2438 766 2438 1363 
Q 2438 1913 2192 2208 
Q 1947 2503 1634 2503 
Q 1469 2503 1303 2419 
Q 1178 2356 984 2169 
z
" transform="scale(0.015625)"/>
       <path id="TimesNewRomanPSMT-65" d="M 681 1784 
Q 678 1147 991 784 
Q 1303 422 1725 422 
Q 2006 422 2214 576 
Q 2422 731 2563 1106 
L 2659 1044 
Q 2594 616 2278 264 
Q 1963 -88 1488 -88 
Q 972 -88 605 314 
Q 238 716 238 1394 
Q 238 2128 614 2539 
Q 991 2950 1559 2950 
Q 2041 2950 2350 2633 
Q 2659 2316 2659 1784 
L 681 1784 
z
M 681 1966 
L 2006 1966 
Q 1991 2241 1941 2353 
Q 1863 2528 1708 2628 
Q 1553 2728 1384 2728 
Q 1125 2728 920 2526 
Q 716 2325 681 1966 
z
" transform="scale(0.015625)"/>
      </defs>
      <use xlink:href="#TimesNewRomanPSMT-6e"/>
      <use xlink:href="#TimesNewRomanPSMT-75" x="50"/>
      <use xlink:href="#TimesNewRomanPSMT-6d" x="100"/>
      <use xlink:href="#TimesNewRomanPSMT-62" x="177.783203"/>
      <use xlink:href="#TimesNewRomanPSMT-65" x="227.783203"/>
      <use xlink:href="#TimesNewRomanPSMT-72" x="272.167969"/>
     </g>
    </g>
   </g>
   <g id="patch_3">
    <path d="M 163.696 213.771695 
L 186.304 213.771695 
L 186.304 189.311923 
L 163.696 189.311923 
L 163.696 213.771695 
L 163.696 213.771695 
z
" clip-path="url(#p8676b2990a)" style="fill: none; stroke: #000000; stroke-linejoin: miter"/>
   </g>
   <g id="line2d_10">
    <path d="M 175 213.771695 
L 175 244.329839 
" clip-path="url(#p8676b2990a)" style="fill: none; stroke: #000000; stroke-linecap: square"/>
   </g>
   <g id="line2d_11">
    <path d="M 175 189.311923 
L 175 169.42593 
" clip-path="url(#p8676b2990a)" style="fill: none; stroke: #000000; stroke-linecap: square"/>
   </g>
   <g id="line2d_12">
    <path d="M 169.348 244.329839 
L 180.652 244.329839 
" clip-path="url(#p8676b2990a)" style="fill: none; stroke: #000000; stroke-linecap: square"/>
   </g>
   <g id="line2d_13">
    <path d="M 169.348 169.42593 
L 180.652 169.42593 
" clip-path="url(#p8676b2990a)" style="fill: none; stroke: #000000; stroke-linecap: square"/>
   </g>
   <g id="patch_4">
    <path d="M 352.096 68.802802 
L 374.704 68.802802 
L 374.704 57.036922 
L 352.096 57.036922 
L 352.096 68.802802 
L 352.096 68.802802 
z
" clip-path="url(#p8676b2990a)" style="fill: none; stroke: #000000; stroke-linejoin: miter"/>
   </g>
   <g id="line2d_14">
    <path d="M 363.4 68.802802 
L 363.4 81.794984 
" clip-path="url(#p8676b2990a)" style="fill: none; stroke: #000000; stroke-linecap: square"/>
   </g>
   <g id="line2d_15">
    <path d="M 363.4 57.036922 
L 363.4 40.962411 
" clip-path="url(#p8676b2990a)" style="fill: none; stroke: #000000; stroke-linecap: square"/>
   </g>
   <g id="line2d_16">
    <path d="M 357.748 81.794984 
L 369.052 81.794984 
" clip-path="url(#p8676b2990a)" style="fill: none; stroke: #000000; stroke-linecap: square"/>
   </g>
   <g id="line2d_17">
    <path d="M 357.748 40.962411 
L 369.052 40.962411 
" clip-path="url(#p8676b2990a)" style="fill: none; stroke: #000000; stroke-linecap: square"/>
   </g>
   <g id="line2d_18">
    <path d="M 163.696 203.033259 
L 186.304 203.033259 
" clip-path="url(#p8676b2990a)" style="fill: none; stroke: #000000; stroke-width: 1.5; stroke-linecap: square"/>
   </g>
   <g id="line2d_19">
    <path d="M 352.096 61.975277 
L 374.704 61.975277 
" clip-path="url(#p8676b2990a)" style="fill: none; stroke: #000000; stroke-width: 1.5; stroke-linecap: square"/>
   </g>
   <g id="patch_5">
    <path d="M 80.8 270.228031 
L 80.8 30.045 
" style="fill: none; stroke: #000000; stroke-linejoin: miter; stroke-linecap: square"/>
   </g>
   <g id="patch_6">
    <path d="M 457.6 270.228031 
L 457.6 30.045 
" style="fill: none; stroke: #000000; stroke-linejoin: miter; stroke-linecap: square"/>
   </g>
   <g id="patch_7">
    <path d="M 80.8 270.228031 
L 457.6 270.228031 
" style="fill: none; stroke: #000000; stroke-linejoin: miter; stroke-linecap: square"/>
   </g>
   <g id="patch_8">
    <path d="M 80.8 30.045 
L 457.6 30.045 
" style="fill: none; stroke: #000000; stroke-linejoin: miter; stroke-linecap: square"/>
   </g>
   <g id="text_11">
    <!-- Number of people participating in cultural activities across regions (number) -->
    <g transform="translate(7.2 18.045) scale(0.16 -0.16)">
     <defs>
      <path id="TimesNewRomanPS-BoldMT-4e" d="M 1594 4238 
L 3684 1609 
L 3684 3431 
Q 3684 3813 3575 3947 
Q 3425 4128 3072 4122 
L 3072 4238 
L 4472 4238 
L 4472 4122 
Q 4203 4088 4111 4033 
Q 4019 3978 3967 3854 
Q 3916 3731 3916 3431 
L 3916 -97 
L 3809 -97 
L 944 3431 
L 944 738 
Q 944 372 1111 244 
Q 1278 116 1494 116 
L 1594 116 
L 1594 0 
L 91 0 
L 91 116 
Q 441 119 578 259 
Q 716 400 716 738 
L 716 3728 
L 625 3841 
Q 491 4009 387 4062 
Q 284 4116 91 4122 
L 91 4238 
L 1594 4238 
z
" transform="scale(0.015625)"/>
      <path id="TimesNewRomanPS-BoldMT-75" d="M 3038 2922 
L 3038 634 
Q 3038 300 3100 217 
Q 3163 134 3353 113 
L 3353 0 
L 2163 0 
L 2163 391 
Q 1953 141 1743 26 
Q 1534 -88 1275 -88 
Q 1028 -88 836 64 
Q 644 216 578 419 
Q 513 622 513 1128 
L 513 2288 
Q 513 2619 452 2700 
Q 391 2781 197 2806 
L 197 2922 
L 1388 2922 
L 1388 925 
Q 1388 613 1417 522 
Q 1447 431 1511 384 
Q 1575 338 1659 338 
Q 1772 338 1863 397 
Q 1988 478 2163 725 
L 2163 2288 
Q 2163 2619 2102 2700 
Q 2041 2781 1847 2806 
L 1847 2922 
L 3038 2922 
z
" transform="scale(0.015625)"/>
      <path id="TimesNewRomanPS-BoldMT-6d" d="M 1428 2922 
L 1428 2538 
Q 1669 2800 1873 2904 
Q 2078 3009 2322 3009 
Q 2603 3009 2793 2878 
Q 2984 2747 3088 2478 
Q 3338 2759 3567 2884 
Q 3797 3009 4047 3009 
Q 4350 3009 4529 2870 
Q 4709 2731 4779 2517 
Q 4850 2303 4850 1834 
L 4850 638 
Q 4850 300 4911 219 
Q 4972 138 5166 113 
L 5166 0 
L 3656 0 
L 3656 113 
Q 3834 128 3919 250 
Q 3975 334 3975 638 
L 3975 1894 
Q 3975 2284 3944 2390 
Q 3913 2497 3845 2548 
Q 3778 2600 3688 2600 
Q 3553 2600 3415 2501 
Q 3278 2403 3138 2206 
L 3138 638 
Q 3138 322 3191 241 
Q 3263 125 3466 113 
L 3466 0 
L 1953 0 
L 1953 113 
Q 2075 119 2145 173 
Q 2216 228 2239 304 
Q 2263 381 2263 638 
L 2263 1894 
Q 2263 2291 2231 2391 
Q 2200 2491 2126 2547 
Q 2053 2603 1969 2603 
Q 1844 2603 1741 2538 
Q 1594 2441 1428 2206 
L 1428 638 
Q 1428 328 1489 229 
Q 1550 131 1744 113 
L 1744 0 
L 238 0 
L 238 113 
Q 422 131 500 231 
Q 553 300 553 638 
L 553 2288 
Q 553 2619 492 2700 
Q 431 2781 238 2806 
L 238 2922 
L 1428 2922 
z
" transform="scale(0.015625)"/>
      <path id="TimesNewRomanPS-BoldMT-62" d="M 1347 4238 
L 1347 2628 
Q 1716 3009 2153 3009 
Q 2453 3009 2718 2832 
Q 2984 2656 3134 2331 
Q 3284 2006 3284 1581 
Q 3284 1103 3093 712 
Q 2903 322 2584 117 
Q 2266 -88 1856 -88 
Q 1619 -88 1434 -12 
Q 1250 63 1072 231 
L 588 -84 
L 481 -84 
L 481 3631 
Q 481 3884 459 3944 
Q 428 4031 361 4073 
Q 294 4116 134 4122 
L 134 4238 
L 1347 4238 
z
M 1347 2350 
L 1347 1050 
Q 1347 653 1366 544 
Q 1397 359 1515 245 
Q 1634 131 1819 131 
Q 1978 131 2092 222 
Q 2206 313 2282 581 
Q 2359 850 2359 1550 
Q 2359 2222 2191 2472 
Q 2069 2653 1863 2653 
Q 1594 2653 1347 2350 
z
" transform="scale(0.015625)"/>
      <path id="TimesNewRomanPS-BoldMT-65" d="M 2691 1566 
L 1088 1566 
Q 1116 984 1397 647 
Q 1613 388 1916 388 
Q 2103 388 2256 492 
Q 2409 597 2584 869 
L 2691 800 
Q 2453 316 2165 114 
Q 1878 -88 1500 -88 
Q 850 -88 516 413 
Q 247 816 247 1413 
Q 247 2144 642 2576 
Q 1038 3009 1569 3009 
Q 2013 3009 2339 2645 
Q 2666 2281 2691 1566 
z
M 1922 1775 
Q 1922 2278 1867 2465 
Q 1813 2653 1697 2750 
Q 1631 2806 1522 2806 
Q 1359 2806 1256 2647 
Q 1072 2369 1072 1884 
L 1072 1775 
L 1922 1775 
z
" transform="scale(0.015625)"/>
      <path id="TimesNewRomanPS-BoldMT-72" d="M 1428 2922 
L 1428 2259 
Q 1719 2713 1937 2861 
Q 2156 3009 2359 3009 
Q 2534 3009 2639 2901 
Q 2744 2794 2744 2597 
Q 2744 2388 2642 2272 
Q 2541 2156 2397 2156 
Q 2231 2156 2109 2262 
Q 1988 2369 1966 2381 
Q 1934 2400 1894 2400 
Q 1803 2400 1722 2331 
Q 1594 2225 1528 2028 
Q 1428 1725 1428 1359 
L 1428 688 
L 1431 513 
Q 1431 334 1453 284 
Q 1491 200 1564 161 
Q 1638 122 1813 113 
L 1813 0 
L 234 0 
L 234 113 
Q 425 128 492 217 
Q 559 306 559 688 
L 559 2303 
Q 559 2553 534 2622 
Q 503 2709 443 2750 
Q 384 2791 234 2806 
L 234 2922 
L 1428 2922 
z
" transform="scale(0.015625)"/>
      <path id="TimesNewRomanPS-BoldMT-20" transform="scale(0.015625)"/>
      <path id="TimesNewRomanPS-BoldMT-6f" d="M 1594 3009 
Q 1975 3009 2303 2812 
Q 2631 2616 2801 2253 
Q 2972 1891 2972 1459 
Q 2972 838 2656 419 
Q 2275 -88 1603 -88 
Q 944 -88 587 375 
Q 231 838 231 1447 
Q 231 2075 595 2542 
Q 959 3009 1594 3009 
z
M 1606 2788 
Q 1447 2788 1333 2667 
Q 1219 2547 1183 2192 
Q 1147 1838 1147 1206 
Q 1147 872 1191 581 
Q 1225 359 1337 243 
Q 1450 128 1594 128 
Q 1734 128 1828 206 
Q 1950 313 1991 503 
Q 2053 800 2053 1703 
Q 2053 2234 1993 2432 
Q 1934 2631 1819 2722 
Q 1738 2788 1606 2788 
z
" transform="scale(0.015625)"/>
      <path id="TimesNewRomanPS-BoldMT-66" d="M 1497 2616 
L 1497 588 
Q 1497 294 1559 219 
Q 1659 103 1928 113 
L 1928 0 
L 206 0 
L 206 113 
Q 403 116 486 158 
Q 569 200 600 275 
Q 631 350 631 588 
L 631 2616 
L 206 2616 
L 206 2922 
L 631 2922 
L 631 3138 
L 628 3284 
Q 628 3734 958 4034 
Q 1288 4334 1850 4334 
Q 2234 4334 2420 4190 
Q 2606 4047 2606 3872 
Q 2606 3731 2490 3628 
Q 2375 3525 2184 3525 
Q 2022 3525 1926 3609 
Q 1831 3694 1831 3797 
Q 1831 3825 1850 3913 
Q 1863 3966 1863 4013 
Q 1863 4078 1825 4109 
Q 1775 4156 1703 4156 
Q 1613 4156 1552 4081 
Q 1491 4006 1491 3841 
L 1497 3294 
L 1497 2922 
L 1928 2922 
L 1928 2616 
L 1497 2616 
z
" transform="scale(0.015625)"/>
      <path id="TimesNewRomanPS-BoldMT-70" d="M 1347 297 
L 1347 -791 
Q 1347 -1016 1383 -1097 
Q 1419 -1178 1494 -1215 
Q 1569 -1253 1788 -1253 
L 1788 -1369 
L 122 -1369 
L 122 -1253 
Q 316 -1247 409 -1144 
Q 472 -1072 472 -772 
L 472 2313 
Q 472 2622 400 2708 
Q 328 2794 122 2806 
L 122 2922 
L 1347 2922 
L 1347 2538 
Q 1500 2763 1659 2863 
Q 1888 3009 2156 3009 
Q 2478 3009 2742 2806 
Q 3006 2603 3143 2245 
Q 3281 1888 3281 1475 
Q 3281 1031 3139 664 
Q 2997 297 2726 104 
Q 2456 -88 2125 -88 
Q 1884 -88 1675 19 
Q 1519 100 1347 297 
z
M 1347 613 
Q 1616 231 1922 231 
Q 2091 231 2200 409 
Q 2363 672 2363 1409 
Q 2363 2166 2184 2444 
Q 2066 2628 1866 2628 
Q 1550 2628 1347 2172 
L 1347 613 
z
" transform="scale(0.015625)"/>
      <path id="TimesNewRomanPS-BoldMT-6c" d="M 1359 4238 
L 1359 606 
Q 1359 297 1431 211 
Q 1503 125 1713 113 
L 1713 0 
L 134 0 
L 134 113 
Q 328 119 422 225 
Q 484 297 484 606 
L 484 3631 
Q 484 3938 412 4023 
Q 341 4109 134 4122 
L 134 4238 
L 1359 4238 
z
" transform="scale(0.015625)"/>
      <path id="TimesNewRomanPS-BoldMT-61" d="M 1828 431 
Q 1294 -41 869 -41 
Q 619 -41 453 123 
Q 288 288 288 534 
Q 288 869 575 1136 
Q 863 1403 1828 1847 
L 1828 2141 
Q 1828 2472 1792 2558 
Q 1756 2644 1656 2708 
Q 1556 2772 1431 2772 
Q 1228 2772 1097 2681 
Q 1016 2625 1016 2550 
Q 1016 2484 1103 2388 
Q 1222 2253 1222 2128 
Q 1222 1975 1108 1867 
Q 994 1759 809 1759 
Q 613 1759 480 1878 
Q 347 1997 347 2156 
Q 347 2381 525 2586 
Q 703 2791 1022 2900 
Q 1341 3009 1684 3009 
Q 2100 3009 2342 2832 
Q 2584 2656 2656 2450 
Q 2700 2319 2700 1847 
L 2700 713 
Q 2700 513 2715 461 
Q 2731 409 2762 384 
Q 2794 359 2834 359 
Q 2916 359 3000 475 
L 3094 400 
Q 2938 169 2770 64 
Q 2603 -41 2391 -41 
Q 2141 -41 2000 76 
Q 1859 194 1828 431 
z
M 1828 659 
L 1828 1638 
Q 1450 1416 1266 1163 
Q 1144 994 1144 822 
Q 1144 678 1247 569 
Q 1325 484 1466 484 
Q 1622 484 1828 659 
z
" transform="scale(0.015625)"/>
      <path id="TimesNewRomanPS-BoldMT-74" d="M 1375 3991 
L 1375 2922 
L 2069 2922 
L 2069 2613 
L 1375 2613 
L 1375 809 
Q 1375 556 1398 482 
Q 1422 409 1481 364 
Q 1541 319 1591 319 
Q 1794 319 1975 628 
L 2069 559 
Q 1816 -41 1247 -41 
Q 969 -41 776 114 
Q 584 269 531 459 
Q 500 566 500 1034 
L 500 2613 
L 119 2613 
L 119 2722 
Q 513 3000 789 3306 
Q 1066 3613 1272 3991 
L 1375 3991 
z
" transform="scale(0.015625)"/>
      <path id="TimesNewRomanPS-BoldMT-69" d="M 919 4338 
Q 1122 4338 1262 4195 
Q 1403 4053 1403 3853 
Q 1403 3653 1261 3512 
Q 1119 3372 919 3372 
Q 719 3372 578 3512 
Q 438 3653 438 3853 
Q 438 4053 578 4195 
Q 719 4338 919 4338 
z
M 1356 2922 
L 1356 606 
Q 1356 297 1428 211 
Q 1500 125 1709 113 
L 1709 0 
L 131 0 
L 131 113 
Q 325 119 419 225 
Q 481 297 481 606 
L 481 2313 
Q 481 2622 409 2708 
Q 338 2794 131 2806 
L 131 2922 
L 1356 2922 
z
" transform="scale(0.015625)"/>
      <path id="TimesNewRomanPS-BoldMT-63" d="M 2600 753 
L 2697 678 
Q 2491 291 2183 101 
Q 1875 -88 1528 -88 
Q 944 -88 594 353 
Q 244 794 244 1413 
Q 244 2009 563 2463 
Q 947 3009 1622 3009 
Q 2075 3009 2342 2781 
Q 2609 2553 2609 2272 
Q 2609 2094 2501 1987 
Q 2394 1881 2219 1881 
Q 2034 1881 1914 2003 
Q 1794 2125 1766 2438 
Q 1747 2634 1675 2713 
Q 1603 2791 1506 2791 
Q 1356 2791 1250 2631 
Q 1088 2391 1088 1894 
Q 1088 1481 1219 1104 
Q 1350 728 1578 544 
Q 1750 409 1984 409 
Q 2138 409 2275 481 
Q 2413 553 2600 753 
z
" transform="scale(0.015625)"/>
      <path id="TimesNewRomanPS-BoldMT-6e" d="M 1409 2922 
L 1409 2544 
Q 1634 2788 1840 2898 
Q 2047 3009 2284 3009 
Q 2569 3009 2756 2851 
Q 2944 2694 3006 2459 
Q 3056 2281 3056 1775 
L 3056 638 
Q 3056 300 3117 217 
Q 3178 134 3372 113 
L 3372 0 
L 1894 0 
L 1894 113 
Q 2059 134 2131 250 
Q 2181 328 2181 638 
L 2181 1938 
Q 2181 2297 2153 2390 
Q 2125 2484 2058 2536 
Q 1991 2588 1909 2588 
Q 1641 2588 1409 2203 
L 1409 638 
Q 1409 309 1470 221 
Q 1531 134 1697 113 
L 1697 0 
L 219 0 
L 219 113 
Q 403 131 481 231 
Q 534 300 534 638 
L 534 2288 
Q 534 2619 473 2700 
Q 413 2781 219 2806 
L 219 2922 
L 1409 2922 
z
" transform="scale(0.015625)"/>
      <path id="TimesNewRomanPS-BoldMT-67" d="M 2091 2888 
L 3075 2888 
L 3075 2544 
L 2516 2544 
Q 2669 2391 2728 2266 
Q 2803 2097 2803 1913 
Q 2803 1600 2629 1370 
Q 2456 1141 2157 1011 
Q 1859 881 1628 881 
Q 1609 881 1253 897 
Q 1113 897 1017 805 
Q 922 713 922 584 
Q 922 472 1008 400 
Q 1094 328 1288 328 
L 1828 334 
Q 2484 334 2731 191 
Q 3084 -9 3084 -425 
Q 3084 -691 2921 -908 
Q 2759 -1125 2494 -1228 
Q 2091 -1381 1566 -1381 
Q 1172 -1381 847 -1304 
Q 522 -1228 381 -1092 
Q 241 -956 241 -806 
Q 241 -663 348 -548 
Q 456 -434 750 -356 
Q 344 -156 344 200 
Q 344 416 509 619 
Q 675 822 1034 972 
Q 616 1125 428 1375 
Q 241 1625 241 1953 
Q 241 2381 591 2695 
Q 941 3009 1491 3009 
Q 1781 3009 2091 2888 
z
M 1550 2816 
Q 1369 2816 1244 2633 
Q 1119 2450 1119 1875 
Q 1119 1409 1242 1236 
Q 1366 1063 1534 1063 
Q 1722 1063 1847 1234 
Q 1972 1406 1972 1903 
Q 1972 2463 1831 2666 
Q 1731 2816 1550 2816 
z
M 1366 -431 
Q 1047 -431 944 -484 
Q 766 -581 766 -747 
Q 766 -906 950 -1036 
Q 1134 -1166 1644 -1166 
Q 2078 -1166 2326 -1050 
Q 2575 -934 2575 -725 
Q 2575 -647 2528 -594 
Q 2444 -500 2273 -465 
Q 2103 -431 1366 -431 
z
" transform="scale(0.015625)"/>
      <path id="TimesNewRomanPS-BoldMT-76" d="M 1534 -88 
L 550 2178 
Q 372 2588 272 2697 
Q 200 2778 59 2806 
L 59 2922 
L 1613 2922 
L 1613 2806 
Q 1466 2806 1413 2753 
Q 1338 2684 1338 2591 
Q 1338 2475 1475 2156 
L 1956 1059 
L 2341 2006 
Q 2506 2413 2506 2581 
Q 2506 2678 2436 2739 
Q 2366 2800 2188 2806 
L 2188 2922 
L 3144 2922 
L 3144 2806 
Q 3006 2788 2918 2703 
Q 2831 2619 2656 2206 
L 1681 -88 
L 1534 -88 
z
" transform="scale(0.015625)"/>
      <path id="TimesNewRomanPS-BoldMT-73" d="M 2063 3003 
L 2109 2006 
L 2003 2006 
Q 1813 2450 1608 2612 
Q 1403 2775 1200 2775 
Q 1072 2775 981 2689 
Q 891 2603 891 2491 
Q 891 2406 953 2328 
Q 1053 2200 1512 1889 
Q 1972 1578 2117 1361 
Q 2263 1144 2263 875 
Q 2263 631 2141 397 
Q 2019 163 1797 37 
Q 1575 -88 1306 -88 
Q 1097 -88 747 44 
Q 653 78 619 78 
Q 516 78 447 -78 
L 344 -78 
L 294 972 
L 400 972 
Q 541 559 786 353 
Q 1031 147 1250 147 
Q 1400 147 1495 239 
Q 1591 331 1591 463 
Q 1591 613 1497 722 
Q 1403 831 1078 1053 
Q 600 1384 459 1559 
Q 253 1816 253 2125 
Q 253 2463 486 2736 
Q 719 3009 1159 3009 
Q 1397 3009 1619 2894 
Q 1703 2847 1756 2847 
Q 1813 2847 1847 2870 
Q 1881 2894 1956 3003 
L 2063 3003 
z
" transform="scale(0.015625)"/>
      <path id="TimesNewRomanPS-BoldMT-28" d="M 2056 4334 
L 2056 4191 
Q 1731 3978 1578 3775 
Q 1366 3494 1247 3053 
Q 1097 2506 1097 1525 
Q 1097 600 1233 87 
Q 1369 -425 1603 -741 
Q 1766 -959 2056 -1125 
L 2056 -1281 
Q 1303 -1028 779 -248 
Q 256 531 256 1544 
Q 256 2544 778 3314 
Q 1300 4084 2056 4334 
z
" transform="scale(0.015625)"/>
      <path id="TimesNewRomanPS-BoldMT-29" d="M 78 -1281 
L 78 -1138 
Q 403 -922 556 -719 
Q 766 -438 888 0 
Q 1038 550 1038 1531 
Q 1038 2456 902 2967 
Q 766 3478 531 3794 
Q 369 4013 78 4178 
L 78 4334 
Q 831 4081 1354 3301 
Q 1878 2522 1878 1509 
Q 1878 513 1354 -257 
Q 831 -1028 78 -1281 
z
" transform="scale(0.015625)"/>
     </defs>
     <use xlink:href="#TimesNewRomanPS-BoldMT-4e"/>
     <use xlink:href="#TimesNewRomanPS-BoldMT-75" x="72.216797"/>
     <use xlink:href="#TimesNewRomanPS-BoldMT-6d" x="127.832031"/>
     <use xlink:href="#TimesNewRomanPS-BoldMT-62" x="211.132812"/>
     <use xlink:href="#TimesNewRomanPS-BoldMT-65" x="266.748047"/>
     <use xlink:href="#TimesNewRomanPS-BoldMT-72" x="311.132812"/>
     <use xlink:href="#TimesNewRomanPS-BoldMT-20" x="353.767578"/>
     <use xlink:href="#TimesNewRomanPS-BoldMT-6f" x="378.767578"/>
     <use xlink:href="#TimesNewRomanPS-BoldMT-66" x="428.767578"/>
     <use xlink:href="#TimesNewRomanPS-BoldMT-20" x="462.068359"/>
     <use xlink:href="#TimesNewRomanPS-BoldMT-70" x="487.068359"/>
     <use xlink:href="#TimesNewRomanPS-BoldMT-65" x="542.683594"/>
     <use xlink:href="#TimesNewRomanPS-BoldMT-6f" x="587.068359"/>
     <use xlink:href="#TimesNewRomanPS-BoldMT-70" x="637.068359"/>
     <use xlink:href="#TimesNewRomanPS-BoldMT-6c" x="692.683594"/>
     <use xlink:href="#TimesNewRomanPS-BoldMT-65" x="720.466797"/>
     <use xlink:href="#TimesNewRomanPS-BoldMT-20" x="764.851562"/>
     <use xlink:href="#TimesNewRomanPS-BoldMT-70" x="789.851562"/>
     <use xlink:href="#TimesNewRomanPS-BoldMT-61" x="845.466797"/>
     <use xlink:href="#TimesNewRomanPS-BoldMT-72" x="895.466797"/>
     <use xlink:href="#TimesNewRomanPS-BoldMT-74" x="939.851562"/>
     <use xlink:href="#TimesNewRomanPS-BoldMT-69" x="973.152344"/>
     <use xlink:href="#TimesNewRomanPS-BoldMT-63" x="1000.935547"/>
     <use xlink:href="#TimesNewRomanPS-BoldMT-69" x="1045.320312"/>
     <use xlink:href="#TimesNewRomanPS-BoldMT-70" x="1073.103516"/>
     <use xlink:href="#TimesNewRomanPS-BoldMT-61" x="1128.71875"/>
     <use xlink:href="#TimesNewRomanPS-BoldMT-74" x="1178.71875"/>
     <use xlink:href="#TimesNewRomanPS-BoldMT-69" x="1212.019531"/>
     <use xlink:href="#TimesNewRomanPS-BoldMT-6e" x="1239.802734"/>
     <use xlink:href="#TimesNewRomanPS-BoldMT-67" x="1295.417969"/>
     <use xlink:href="#TimesNewRomanPS-BoldMT-20" x="1345.417969"/>
     <use xlink:href="#TimesNewRomanPS-BoldMT-69" x="1370.417969"/>
     <use xlink:href="#TimesNewRomanPS-BoldMT-6e" x="1398.201172"/>
     <use xlink:href="#TimesNewRomanPS-BoldMT-20" x="1453.816406"/>
     <use xlink:href="#TimesNewRomanPS-BoldMT-63" x="1478.816406"/>
     <use xlink:href="#TimesNewRomanPS-BoldMT-75" x="1523.201172"/>
     <use xlink:href="#TimesNewRomanPS-BoldMT-6c" x="1578.816406"/>
     <use xlink:href="#TimesNewRomanPS-BoldMT-74" x="1606.599609"/>
     <use xlink:href="#TimesNewRomanPS-BoldMT-75" x="1639.900391"/>
     <use xlink:href="#TimesNewRomanPS-BoldMT-72" x="1695.515625"/>
     <use xlink:href="#TimesNewRomanPS-BoldMT-61" x="1739.900391"/>
     <use xlink:href="#TimesNewRomanPS-BoldMT-6c" x="1789.900391"/>
     <use xlink:href="#TimesNewRomanPS-BoldMT-20" x="1817.683594"/>
     <use xlink:href="#TimesNewRomanPS-BoldMT-61" x="1842.683594"/>
     <use xlink:href="#TimesNewRomanPS-BoldMT-63" x="1892.683594"/>
     <use xlink:href="#TimesNewRomanPS-BoldMT-74" x="1937.068359"/>
     <use xlink:href="#TimesNewRomanPS-BoldMT-69" x="1970.369141"/>
     <use xlink:href="#TimesNewRomanPS-BoldMT-76" x="1998.152344"/>
     <use xlink:href="#TimesNewRomanPS-BoldMT-69" x="2048.152344"/>
     <use xlink:href="#TimesNewRomanPS-BoldMT-74" x="2075.935547"/>
     <use xlink:href="#TimesNewRomanPS-BoldMT-69" x="2109.236328"/>
     <use xlink:href="#TimesNewRomanPS-BoldMT-65" x="2137.019531"/>
     <use xlink:href="#TimesNewRomanPS-BoldMT-73" x="2181.404297"/>
     <use xlink:href="#TimesNewRomanPS-BoldMT-20" x="2220.320312"/>
     <use xlink:href="#TimesNewRomanPS-BoldMT-61" x="2245.320312"/>
     <use xlink:href="#TimesNewRomanPS-BoldMT-63" x="2295.320312"/>
     <use xlink:href="#TimesNewRomanPS-BoldMT-72" x="2339.705078"/>
     <use xlink:href="#TimesNewRomanPS-BoldMT-6f" x="2382.339844"/>
     <use xlink:href="#TimesNewRomanPS-BoldMT-73" x="2432.339844"/>
     <use xlink:href="#TimesNewRomanPS-BoldMT-73" x="2471.255859"/>
     <use xlink:href="#TimesNewRomanPS-BoldMT-20" x="2510.171875"/>
     <use xlink:href="#TimesNewRomanPS-BoldMT-72" x="2535.171875"/>
     <use xlink:href="#TimesNewRomanPS-BoldMT-65" x="2577.806641"/>
     <use xlink:href="#TimesNewRomanPS-BoldMT-67" x="2622.191406"/>
     <use xlink:href="#TimesNewRomanPS-BoldMT-69" x="2672.191406"/>
     <use xlink:href="#TimesNewRomanPS-BoldMT-6f" x="2699.974609"/>
     <use xlink:href="#TimesNewRomanPS-BoldMT-6e" x="2749.974609"/>
     <use xlink:href="#TimesNewRomanPS-BoldMT-73" x="2805.589844"/>
     <use xlink:href="#TimesNewRomanPS-BoldMT-20" x="2844.505859"/>
     <use xlink:href="#TimesNewRomanPS-BoldMT-28" x="2869.505859"/>
     <use xlink:href="#TimesNewRomanPS-BoldMT-6e" x="2902.806641"/>
     <use xlink:href="#TimesNewRomanPS-BoldMT-75" x="2958.421875"/>
     <use xlink:href="#TimesNewRomanPS-BoldMT-6d" x="3014.037109"/>
     <use xlink:href="#TimesNewRomanPS-BoldMT-62" x="3097.337891"/>
     <use xlink:href="#TimesNewRomanPS-BoldMT-65" x="3152.953125"/>
     <use xlink:href="#TimesNewRomanPS-BoldMT-72" x="3197.337891"/>
     <use xlink:href="#TimesNewRomanPS-BoldMT-29" x="3241.722656"/>
    </g>
   </g>
  </g>
 </g>
 <defs>
  <clipPath id="p8676b2990a">
   <rect x="80.8" y="30.045" width="376.8" height="240.183031"/>
  </clipPath>
 </defs>
</svg>
