<?xml version="1.0" encoding="utf-8" standalone="no"?>
<!DOCTYPE svg PUBLIC "-//W3C//DTD SVG 1.1//EN"
  "http://www.w3.org/Graphics/SVG/1.1/DTD/svg11.dtd">
<svg xmlns:xlink="http://www.w3.org/1999/xlink" width="538.4pt" height="319.98799pt" viewBox="0 0 538.4 319.98799" xmlns="http://www.w3.org/2000/svg" version="1.1">
 <metadata>
  <rdf:RDF xmlns:dc="http://purl.org/dc/elements/1.1/" xmlns:cc="http://creativecommons.org/ns#" xmlns:rdf="http://www.w3.org/1999/02/22-rdf-syntax-ns#">
   <cc:Work>
    <dc:type rdf:resource="http://purl.org/dc/dcmitype/StillImage"/>
    <dc:date>2025-05-26T17:56:20.133994</dc:date>
    <dc:format>image/svg+xml</dc:format>
    <dc:creator>
     <cc:Agent>
      <dc:title>Matplotlib v3.7.2, https://matplotlib.org/</dc:title>
     </cc:Agent>
    </dc:creator>
   </cc:Work>
  </rdf:RDF>
 </metadata>
 <defs>
  <style type="text/css">*{stroke-linejoin: round; stroke-linecap: butt}</style>
 </defs>
 <g id="figure_1">
  <g id="patch_1">
   <path d="M 0 319.98799 
L 538.4 319.98799 
L 538.4 0 
L 0 0 
z
" style="fill: #ffffff"/>
  </g>
  <g id="axes_1">
   <g id="patch_2">
    <path d="M 80.8 261.318486 
L 457.6 261.318486 
L 457.6 30.045 
L 80.8 30.045 
z
" style="fill: #ffffff"/>
   </g>
   <g id="PolyCollection_1">
    <defs>
     <path id="m9fea98a8bc" d="M 124.447948 -69.236673 
L 99.952052 -69.236673 
L 98.890606 -69.633108 
L 97.86277 -70.029544 
L 96.883696 -70.42598 
L 95.966689 -70.822416 
L 95.122692 -71.218851 
L 94.359931 -71.615287 
L 93.683765 -72.011723 
L 93.096725 -72.408159 
L 92.598748 -72.804594 
L 92.187566 -73.20103 
L 91.85921 -73.597466 
L 91.608582 -73.993902 
L 91.43002 -74.390337 
L 91.317822 -74.786773 
L 91.266667 -75.183209 
L 91.271904 -75.579645 
L 91.329696 -75.976081 
L 91.437006 -76.372516 
L 91.591461 -76.768952 
L 91.791104 -77.165388 
L 92.034098 -77.561824 
L 92.318412 -77.958259 
L 92.641551 -78.354695 
L 93.000347 -78.751131 
L 93.390874 -79.147567 
L 93.808463 -79.544002 
L 94.247847 -79.940438 
L 94.7034 -80.336874 
L 95.169451 -80.73331 
L 95.640624 -81.129745 
L 96.112182 -81.526181 
L 96.580302 -81.922617 
L 97.042288 -82.319053 
L 97.496656 -82.715488 
L 97.94312 -83.111924 
L 98.382456 -83.50836 
L 98.816272 -83.904796 
L 99.24671 -84.301231 
L 99.676115 -84.697667 
L 100.1067 -85.094103 
L 100.540256 -85.490539 
L 100.977913 -85.886974 
L 101.419989 -86.28341 
L 101.86593 -86.679846 
L 102.31433 -87.076282 
L 102.763036 -87.472717 
L 103.209308 -87.869153 
L 103.650018 -88.265589 
L 104.081868 -88.662025 
L 104.501596 -89.05846 
L 104.906174 -89.454896 
L 105.292959 -89.851332 
L 105.659821 -90.247768 
L 106.00521 -90.644203 
L 106.328206 -91.040639 
L 106.628513 -91.437075 
L 106.906436 -91.833511 
L 107.16282 -92.229946 
L 107.398979 -92.626382 
L 107.616599 -93.022818 
L 107.817625 -93.419254 
L 108.004148 -93.815689 
L 108.178271 -94.212125 
L 108.341991 -94.608561 
L 108.497074 -95.004997 
L 108.64495 -95.401432 
L 108.786636 -95.797868 
L 108.922684 -96.194304 
L 109.053164 -96.59074 
L 109.177697 -96.987175 
L 109.295518 -97.383611 
L 109.405582 -97.780047 
L 109.506696 -98.176483 
L 109.597669 -98.572918 
L 109.677462 -98.969354 
L 109.745341 -99.36579 
L 109.800986 -99.762226 
L 109.844587 -100.158661 
L 109.876886 -100.555097 
L 109.899173 -100.951533 
L 109.913241 -101.347969 
L 109.9213 -101.744404 
L 109.925857 -102.14084 
L 109.929575 -102.537276 
L 109.935128 -102.933712 
L 109.94505 -103.330147 
L 109.961609 -103.726583 
L 109.986695 -104.123019 
L 110.021745 -104.519455 
L 110.067693 -104.915891 
L 110.124958 -105.312326 
L 110.193459 -105.708762 
L 110.272658 -106.105198 
L 110.361616 -106.501634 
L 110.459072 -106.898069 
L 110.563521 -107.294505 
L 110.673296 -107.690941 
L 110.786647 -108.087377 
L 110.90181 -108.483812 
L 113.49819 -108.483812 
L 113.49819 -108.483812 
L 113.613353 -108.087377 
L 113.726704 -107.690941 
L 113.836479 -107.294505 
L 113.940928 -106.898069 
L 114.038384 -106.501634 
L 114.127342 -106.105198 
L 114.206541 -105.708762 
L 114.275042 -105.312326 
L 114.332307 -104.915891 
L 114.378255 -104.519455 
L 114.413305 -104.123019 
L 114.438391 -103.726583 
L 114.45495 -103.330147 
L 114.464872 -102.933712 
L 114.470425 -102.537276 
L 114.474143 -102.14084 
L 114.4787 -101.744404 
L 114.486759 -101.347969 
L 114.500827 -100.951533 
L 114.523114 -100.555097 
L 114.555413 -100.158661 
L 114.599014 -99.762226 
L 114.654659 -99.36579 
L 114.722538 -98.969354 
L 114.802331 -98.572918 
L 114.893304 -98.176483 
L 114.994418 -97.780047 
L 115.104482 -97.383611 
L 115.222303 -96.987175 
L 115.346836 -96.59074 
L 115.477316 -96.194304 
L 115.613364 -95.797868 
L 115.75505 -95.401432 
L 115.902926 -95.004997 
L 116.058009 -94.608561 
L 116.221729 -94.212125 
L 116.395852 -93.815689 
L 116.582375 -93.419254 
L 116.783401 -93.022818 
L 117.001021 -92.626382 
L 117.23718 -92.229946 
L 117.493564 -91.833511 
L 117.771487 -91.437075 
L 118.071794 -91.040639 
L 118.39479 -90.644203 
L 118.740179 -90.247768 
L 119.107041 -89.851332 
L 119.493826 -89.454896 
L 119.898404 -89.05846 
L 120.318132 -88.662025 
L 120.749982 -88.265589 
L 121.190692 -87.869153 
L 121.636964 -87.472717 
L 122.08567 -87.076282 
L 122.53407 -86.679846 
L 122.980011 -86.28341 
L 123.422087 -85.886974 
L 123.859744 -85.490539 
L 124.2933 -85.094103 
L 124.723885 -84.697667 
L 125.15329 -84.301231 
L 125.583728 -83.904796 
L 126.017544 -83.50836 
L 126.45688 -83.111924 
L 126.903344 -82.715488 
L 127.357712 -82.319053 
L 127.819698 -81.922617 
L 128.287818 -81.526181 
L 128.759376 -81.129745 
L 129.230549 -80.73331 
L 129.6966 -80.336874 
L 130.152153 -79.940438 
L 130.591537 -79.544002 
L 131.009126 -79.147567 
L 131.399653 -78.751131 
L 131.758449 -78.354695 
L 132.081588 -77.958259 
L 132.365902 -77.561824 
L 132.608896 -77.165388 
L 132.808539 -76.768952 
L 132.962994 -76.372516 
L 133.070304 -75.976081 
L 133.128096 -75.579645 
L 133.133333 -75.183209 
L 133.082178 -74.786773 
L 132.96998 -74.390337 
L 132.791418 -73.993902 
L 132.54079 -73.597466 
L 132.212434 -73.20103 
L 131.801252 -72.804594 
L 131.303275 -72.408159 
L 130.716235 -72.011723 
L 130.040069 -71.615287 
L 129.277308 -71.218851 
L 128.433311 -70.822416 
L 127.516304 -70.42598 
L 126.53723 -70.029544 
L 125.509394 -69.633108 
L 124.447948 -69.236673 
z
" style="stroke: #000000; stroke-opacity: 0.7"/>
    </defs>
    <g clip-path="url(#p73de78c966)">
     <use xlink:href="#m9fea98a8bc" x="0" y="319.98799" style="fill: #98df8a; fill-opacity: 0.7; stroke: #000000; stroke-opacity: 0.7"/>
    </g>
   </g>
   <g id="PolyCollection_2">
    <defs>
     <path id="m936540686d" d="M 179.836557 -72.84938 
L 170.163443 -72.84938 
L 169.605455 -73.732929 
L 169.011924 -74.616477 
L 168.382271 -75.500026 
L 167.716293 -76.383574 
L 167.014446 -77.267123 
L 166.27814 -78.150672 
L 165.510011 -79.03422 
L 164.714136 -79.917769 
L 163.896149 -80.801317 
L 163.063234 -81.684866 
L 162.223981 -82.568415 
L 161.388095 -83.451963 
L 160.565986 -84.335512 
L 159.768252 -85.21906 
L 159.005123 -86.102609 
L 158.285891 -86.986157 
L 157.618405 -87.869706 
L 157.008675 -88.753255 
L 156.460619 -89.636803 
L 155.975998 -90.520352 
L 155.554527 -91.4039 
L 155.194169 -92.287449 
L 154.891561 -93.170998 
L 154.642545 -94.054546 
L 154.442726 -94.938095 
L 154.288008 -95.821643 
L 154.175055 -96.705192 
L 154.10161 -97.58874 
L 154.066667 -98.472289 
L 154.070466 -99.355838 
L 154.114327 -100.239386 
L 154.200355 -101.122935 
L 154.331043 -102.006483 
L 154.508845 -102.890032 
L 154.735755 -103.773581 
L 155.012948 -104.657129 
L 155.340521 -105.540678 
L 155.71736 -106.424226 
L 156.141126 -107.307775 
L 156.608372 -108.191323 
L 157.114743 -109.074872 
L 157.655232 -109.958421 
L 158.224448 -110.841969 
L 158.816867 -111.725518 
L 159.427009 -112.609066 
L 160.049554 -113.492615 
L 160.679361 -114.376164 
L 161.311425 -115.259712 
L 161.940784 -116.143261 
L 162.562414 -117.026809 
L 163.171141 -117.910358 
L 163.761622 -118.793906 
L 164.328393 -119.677455 
L 164.866024 -120.561004 
L 165.369357 -121.444552 
L 165.833815 -122.328101 
L 166.255754 -123.211649 
L 166.632801 -124.095198 
L 166.96416 -124.978746 
L 167.250814 -125.862295 
L 167.495607 -126.745844 
L 167.703191 -127.629392 
L 167.879815 -128.512941 
L 168.032987 -129.396489 
L 168.171019 -130.280038 
L 168.302507 -131.163587 
L 168.435776 -132.047135 
L 168.578347 -132.930684 
L 168.736466 -133.814232 
L 168.91473 -134.697781 
L 169.115832 -135.581329 
L 169.340459 -136.464878 
L 169.587326 -137.348427 
L 169.853345 -138.231975 
L 170.133928 -139.115524 
L 170.423368 -139.999072 
L 170.715294 -140.882621 
L 171.003148 -141.76617 
L 171.280661 -142.649718 
L 171.542276 -143.533267 
L 171.783506 -144.416815 
L 172.00119 -145.300364 
L 172.193639 -146.183912 
L 172.360657 -147.067461 
L 172.503457 -147.95101 
L 172.624463 -148.834558 
L 172.727047 -149.718107 
L 172.815202 -150.601655 
L 172.893207 -151.485204 
L 172.96529 -152.368753 
L 173.035342 -153.252301 
L 173.106678 -154.13585 
L 173.181874 -155.019398 
L 173.262682 -155.902947 
L 173.350021 -156.786495 
L 173.444021 -157.670044 
L 173.544135 -158.553593 
L 173.649269 -159.437141 
L 173.757935 -160.32069 
L 176.242065 -160.32069 
L 176.242065 -160.32069 
L 176.350731 -159.437141 
L 176.455865 -158.553593 
L 176.555979 -157.670044 
L 176.649979 -156.786495 
L 176.737318 -155.902947 
L 176.818126 -155.019398 
L 176.893322 -154.13585 
L 176.964658 -153.252301 
L 177.03471 -152.368753 
L 177.106793 -151.485204 
L 177.184798 -150.601655 
L 177.272953 -149.718107 
L 177.375537 -148.834558 
L 177.496543 -147.95101 
L 177.639343 -147.067461 
L 177.806361 -146.183912 
L 177.99881 -145.300364 
L 178.216494 -144.416815 
L 178.457724 -143.533267 
L 178.719339 -142.649718 
L 178.996852 -141.76617 
L 179.284706 -140.882621 
L 179.576632 -139.999072 
L 179.866072 -139.115524 
L 180.146655 -138.231975 
L 180.412674 -137.348427 
L 180.659541 -136.464878 
L 180.884168 -135.581329 
L 181.08527 -134.697781 
L 181.263534 -133.814232 
L 181.421653 -132.930684 
L 181.564224 -132.047135 
L 181.697493 -131.163587 
L 181.828981 -130.280038 
L 181.967013 -129.396489 
L 182.120185 -128.512941 
L 182.296809 -127.629392 
L 182.504393 -126.745844 
L 182.749186 -125.862295 
L 183.03584 -124.978746 
L 183.367199 -124.095198 
L 183.744246 -123.211649 
L 184.166185 -122.328101 
L 184.630643 -121.444552 
L 185.133976 -120.561004 
L 185.671607 -119.677455 
L 186.238378 -118.793906 
L 186.828859 -117.910358 
L 187.437586 -117.026809 
L 188.059216 -116.143261 
L 188.688575 -115.259712 
L 189.320639 -114.376164 
L 189.950446 -113.492615 
L 190.572991 -112.609066 
L 191.183133 -111.725518 
L 191.775552 -110.841969 
L 192.344768 -109.958421 
L 192.885257 -109.074872 
L 193.391628 -108.191323 
L 193.858874 -107.307775 
L 194.28264 -106.424226 
L 194.659479 -105.540678 
L 194.987052 -104.657129 
L 195.264245 -103.773581 
L 195.491155 -102.890032 
L 195.668957 -102.006483 
L 195.799645 -101.122935 
L 195.885673 -100.239386 
L 195.929534 -99.355838 
L 195.933333 -98.472289 
L 195.89839 -97.58874 
L 195.824945 -96.705192 
L 195.711992 -95.821643 
L 195.557274 -94.938095 
L 195.357455 -94.054546 
L 195.108439 -93.170998 
L 194.805831 -92.287449 
L 194.445473 -91.4039 
L 194.024002 -90.520352 
L 193.539381 -89.636803 
L 192.991325 -88.753255 
L 192.381595 -87.869706 
L 191.714109 -86.986157 
L 190.994877 -86.102609 
L 190.231748 -85.21906 
L 189.434014 -84.335512 
L 188.611905 -83.451963 
L 187.776019 -82.568415 
L 186.936766 -81.684866 
L 186.103851 -80.801317 
L 185.285864 -79.917769 
L 184.489989 -79.03422 
L 183.72186 -78.150672 
L 182.985554 -77.267123 
L 182.283707 -76.383574 
L 181.617729 -75.500026 
L 180.988076 -74.616477 
L 180.394545 -73.732929 
L 179.836557 -72.84938 
z
" style="stroke: #000000; stroke-opacity: 0.7"/>
    </defs>
    <g clip-path="url(#p73de78c966)">
     <use xlink:href="#m936540686d" x="0" y="319.98799" style="fill: #2ca02c; fill-opacity: 0.7; stroke: #000000; stroke-opacity: 0.7"/>
    </g>
   </g>
   <g id="PolyCollection_3">
    <defs>
     <path id="mf787f6c10e" d="M 248.352145 -113.136542 
L 227.247855 -113.136542 
L 226.244868 -114.265029 
L 225.239145 -115.393516 
L 224.242735 -116.522003 
L 223.267907 -117.650491 
L 222.32688 -118.778978 
L 221.431554 -119.907465 
L 220.593244 -121.035952 
L 219.822411 -122.16444 
L 219.1284 -123.292927 
L 218.519189 -124.421414 
L 218.001153 -125.549901 
L 217.578849 -126.678389 
L 217.25485 -127.806876 
L 217.029628 -128.935363 
L 216.901501 -130.063851 
L 216.866667 -131.192338 
L 216.919327 -132.320825 
L 217.051899 -133.449312 
L 217.255316 -134.5778 
L 217.51941 -135.706287 
L 217.833338 -136.834774 
L 218.186055 -137.963261 
L 218.56678 -139.091749 
L 218.965433 -140.220236 
L 219.373026 -141.348723 
L 219.781966 -142.477211 
L 220.186264 -143.605698 
L 220.581639 -144.734185 
L 220.965515 -145.862672 
L 221.336919 -146.99116 
L 221.696302 -148.119647 
L 222.045288 -149.248134 
L 222.386397 -150.376621 
L 222.722741 -151.505109 
L 223.057738 -152.633596 
L 223.394842 -153.762083 
L 223.737322 -154.890571 
L 224.088082 -156.019058 
L 224.44953 -157.147545 
L 224.823504 -158.276032 
L 225.211226 -159.40452 
L 225.613304 -160.533007 
L 226.029753 -161.661494 
L 226.460035 -162.789981 
L 226.903107 -163.918469 
L 227.357478 -165.046956 
L 227.821263 -166.175443 
L 228.292234 -167.30393 
L 228.767878 -168.432418 
L 229.245445 -169.560905 
L 229.722006 -170.689392 
L 230.194504 -171.81788 
L 230.659817 -172.946367 
L 231.114815 -174.074854 
L 231.556422 -175.203341 
L 231.981683 -176.331829 
L 232.387816 -177.460316 
L 232.772264 -178.588803 
L 233.132741 -179.71729 
L 233.467263 -180.845778 
L 233.774163 -181.974265 
L 234.052107 -183.102752 
L 234.300089 -184.23124 
L 234.517426 -185.359727 
L 234.703753 -186.488214 
L 234.859015 -187.616701 
L 234.983472 -188.745189 
L 235.077712 -189.873676 
L 235.142671 -191.002163 
L 235.179669 -192.13065 
L 235.190442 -193.259138 
L 235.177185 -194.387625 
L 235.142569 -195.516112 
L 235.089759 -196.6446 
L 235.022391 -197.773087 
L 234.944522 -198.901574 
L 234.860551 -200.030061 
L 234.77509 -201.158549 
L 234.692817 -202.287036 
L 234.618298 -203.415523 
L 234.5558 -204.54401 
L 234.509112 -205.672498 
L 234.481374 -206.800985 
L 234.474946 -207.929472 
L 234.491318 -209.057959 
L 234.53107 -210.186447 
L 234.593884 -211.314934 
L 234.678617 -212.443421 
L 234.783405 -213.571909 
L 234.905812 -214.700396 
L 235.042998 -215.828883 
L 235.191887 -216.95737 
L 235.349339 -218.085858 
L 235.512293 -219.214345 
L 235.677888 -220.342832 
L 235.843554 -221.471319 
L 236.007058 -222.599807 
L 236.166536 -223.728294 
L 236.320479 -224.856781 
L 239.279521 -224.856781 
L 239.279521 -224.856781 
L 239.433464 -223.728294 
L 239.592942 -222.599807 
L 239.756446 -221.471319 
L 239.922112 -220.342832 
L 240.087707 -219.214345 
L 240.250661 -218.085858 
L 240.408113 -216.95737 
L 240.557002 -215.828883 
L 240.694188 -214.700396 
L 240.816595 -213.571909 
L 240.921383 -212.443421 
L 241.006116 -211.314934 
L 241.06893 -210.186447 
L 241.108682 -209.057959 
L 241.125054 -207.929472 
L 241.118626 -206.800985 
L 241.090888 -205.672498 
L 241.0442 -204.54401 
L 240.981702 -203.415523 
L 240.907183 -202.287036 
L 240.82491 -201.158549 
L 240.739449 -200.030061 
L 240.655478 -198.901574 
L 240.577609 -197.773087 
L 240.510241 -196.6446 
L 240.457431 -195.516112 
L 240.422815 -194.387625 
L 240.409558 -193.259138 
L 240.420331 -192.13065 
L 240.457329 -191.002163 
L 240.522288 -189.873676 
L 240.616528 -188.745189 
L 240.740985 -187.616701 
L 240.896247 -186.488214 
L 241.082574 -185.359727 
L 241.299911 -184.23124 
L 241.547893 -183.102752 
L 241.825837 -181.974265 
L 242.132737 -180.845778 
L 242.467259 -179.71729 
L 242.827736 -178.588803 
L 243.212184 -177.460316 
L 243.618317 -176.331829 
L 244.043578 -175.203341 
L 244.485185 -174.074854 
L 244.940183 -172.946367 
L 245.405496 -171.81788 
L 245.877994 -170.689392 
L 246.354555 -169.560905 
L 246.832122 -168.432418 
L 247.307766 -167.30393 
L 247.778737 -166.175443 
L 248.242522 -165.046956 
L 248.696893 -163.918469 
L 249.139965 -162.789981 
L 249.570247 -161.661494 
L 249.986696 -160.533007 
L 250.388774 -159.40452 
L 250.776496 -158.276032 
L 251.15047 -157.147545 
L 251.511918 -156.019058 
L 251.862678 -154.890571 
L 252.205158 -153.762083 
L 252.542262 -152.633596 
L 252.877259 -151.505109 
L 253.213603 -150.376621 
L 253.554712 -149.248134 
L 253.903698 -148.119647 
L 254.263081 -146.99116 
L 254.634485 -145.862672 
L 255.018361 -144.734185 
L 255.413736 -143.605698 
L 255.818034 -142.477211 
L 256.226974 -141.348723 
L 256.634567 -140.220236 
L 257.03322 -139.091749 
L 257.413945 -137.963261 
L 257.766662 -136.834774 
L 258.08059 -135.706287 
L 258.344684 -134.5778 
L 258.548101 -133.449312 
L 258.680673 -132.320825 
L 258.733333 -131.192338 
L 258.698499 -130.063851 
L 258.570372 -128.935363 
L 258.34515 -127.806876 
L 258.021151 -126.678389 
L 257.598847 -125.549901 
L 257.080811 -124.421414 
L 256.4716 -123.292927 
L 255.777589 -122.16444 
L 255.006756 -121.035952 
L 254.168446 -119.907465 
L 253.27312 -118.778978 
L 252.332093 -117.650491 
L 251.357265 -116.522003 
L 250.360855 -115.393516 
L 249.355132 -114.265029 
L 248.352145 -113.136542 
z
" style="stroke: #000000; stroke-opacity: 0.7"/>
    </defs>
    <g clip-path="url(#p73de78c966)">
     <use xlink:href="#mf787f6c10e" x="0" y="319.98799" style="fill: #ffd92f; fill-opacity: 0.7; stroke: #000000; stroke-opacity: 0.7"/>
    </g>
   </g>
   <g id="PolyCollection_4">
    <defs>
     <path id="md5cc34f88e" d="M 305.945321 -69.181935 
L 295.254679 -69.181935 
L 294.749147 -69.853719 
L 294.231278 -70.525504 
L 293.701839 -71.197288 
L 293.160915 -71.869072 
L 292.60794 -72.540857 
L 292.041809 -73.212641 
L 291.461063 -73.884426 
L 290.864127 -74.55621 
L 290.249584 -75.227995 
L 289.616482 -75.899779 
L 288.964619 -76.571564 
L 288.294807 -77.243348 
L 287.609076 -77.915132 
L 286.910803 -78.586917 
L 286.204756 -79.258701 
L 285.497031 -79.930486 
L 284.794901 -80.60227 
L 284.106569 -81.274055 
L 283.440854 -81.945839 
L 282.806814 -82.617623 
L 282.213355 -83.289408 
L 281.668833 -83.961192 
L 281.180686 -84.632977 
L 280.755124 -85.304761 
L 280.396885 -85.976546 
L 280.109083 -86.64833 
L 279.893146 -87.320114 
L 279.748844 -87.991899 
L 279.674399 -88.663683 
L 279.666667 -89.335468 
L 279.721371 -90.007252 
L 279.833365 -90.679037 
L 279.996911 -91.350821 
L 280.205955 -92.022606 
L 280.454378 -92.69439 
L 280.736211 -93.366174 
L 281.045818 -94.037959 
L 281.378025 -94.709743 
L 281.728194 -95.381528 
L 282.092265 -96.053312 
L 282.466741 -96.725097 
L 282.848647 -97.396881 
L 283.235455 -98.068665 
L 283.625 -98.74045 
L 284.015385 -99.412234 
L 284.404897 -100.084019 
L 284.791936 -100.755803 
L 285.17497 -101.427588 
L 285.552518 -102.099372 
L 285.923169 -102.771156 
L 286.285625 -103.442941 
L 286.638762 -104.114725 
L 286.98172 -104.78651 
L 287.313975 -105.458294 
L 287.635418 -106.130079 
L 287.9464 -106.801863 
L 288.247752 -107.473648 
L 288.540773 -108.145432 
L 288.827175 -108.817216 
L 289.108995 -109.489001 
L 289.388485 -110.160785 
L 289.667982 -110.83257 
L 289.949769 -111.504354 
L 290.235948 -112.176139 
L 290.528321 -112.847923 
L 290.828298 -113.519707 
L 291.136826 -114.191492 
L 291.454347 -114.863276 
L 291.780784 -115.535061 
L 292.115544 -116.206845 
L 292.457539 -116.87863 
L 292.805225 -117.550414 
L 293.156647 -118.222199 
L 293.509493 -118.893983 
L 293.861165 -119.565767 
L 294.208854 -120.237552 
L 294.549628 -120.909336 
L 294.880537 -121.581121 
L 295.198731 -122.252905 
L 295.501579 -122.92469 
L 295.786809 -123.596474 
L 296.052621 -124.268258 
L 296.297809 -124.940043 
L 296.52184 -125.611827 
L 296.724912 -126.283612 
L 296.90796 -126.955396 
L 297.072627 -127.627181 
L 297.221177 -128.298965 
L 297.356373 -128.970749 
L 297.481316 -129.642534 
L 297.599269 -130.314318 
L 297.713456 -130.986103 
L 297.826883 -131.657887 
L 297.942165 -132.329672 
L 298.061393 -133.001456 
L 298.186034 -133.673241 
L 298.316883 -134.345025 
L 298.454054 -135.016809 
L 298.597025 -135.688594 
L 302.602975 -135.688594 
L 302.602975 -135.688594 
L 302.745946 -135.016809 
L 302.883117 -134.345025 
L 303.013966 -133.673241 
L 303.138607 -133.001456 
L 303.257835 -132.329672 
L 303.373117 -131.657887 
L 303.486544 -130.986103 
L 303.600731 -130.314318 
L 303.718684 -129.642534 
L 303.843627 -128.970749 
L 303.978823 -128.298965 
L 304.127373 -127.627181 
L 304.29204 -126.955396 
L 304.475088 -126.283612 
L 304.67816 -125.611827 
L 304.902191 -124.940043 
L 305.147379 -124.268258 
L 305.413191 -123.596474 
L 305.698421 -122.92469 
L 306.001269 -122.252905 
L 306.319463 -121.581121 
L 306.650372 -120.909336 
L 306.991146 -120.237552 
L 307.338835 -119.565767 
L 307.690507 -118.893983 
L 308.043353 -118.222199 
L 308.394775 -117.550414 
L 308.742461 -116.87863 
L 309.084456 -116.206845 
L 309.419216 -115.535061 
L 309.745653 -114.863276 
L 310.063174 -114.191492 
L 310.371702 -113.519707 
L 310.671679 -112.847923 
L 310.964052 -112.176139 
L 311.250231 -111.504354 
L 311.532018 -110.83257 
L 311.811515 -110.160785 
L 312.091005 -109.489001 
L 312.372825 -108.817216 
L 312.659227 -108.145432 
L 312.952248 -107.473648 
L 313.2536 -106.801863 
L 313.564582 -106.130079 
L 313.886025 -105.458294 
L 314.21828 -104.78651 
L 314.561238 -104.114725 
L 314.914375 -103.442941 
L 315.276831 -102.771156 
L 315.647482 -102.099372 
L 316.02503 -101.427588 
L 316.408064 -100.755803 
L 316.795103 -100.084019 
L 317.184615 -99.412234 
L 317.575 -98.74045 
L 317.964545 -98.068665 
L 318.351353 -97.396881 
L 318.733259 -96.725097 
L 319.107735 -96.053312 
L 319.471806 -95.381528 
L 319.821975 -94.709743 
L 320.154182 -94.037959 
L 320.463789 -93.366174 
L 320.745622 -92.69439 
L 320.994045 -92.022606 
L 321.203089 -91.350821 
L 321.366635 -90.679037 
L 321.478629 -90.007252 
L 321.533333 -89.335468 
L 321.525601 -88.663683 
L 321.451156 -87.991899 
L 321.306854 -87.320114 
L 321.090917 -86.64833 
L 320.803115 -85.976546 
L 320.444876 -85.304761 
L 320.019314 -84.632977 
L 319.531167 -83.961192 
L 318.986645 -83.289408 
L 318.393186 -82.617623 
L 317.759146 -81.945839 
L 317.093431 -81.274055 
L 316.405099 -80.60227 
L 315.702969 -79.930486 
L 314.995244 -79.258701 
L 314.289197 -78.586917 
L 313.590924 -77.915132 
L 312.905193 -77.243348 
L 312.235381 -76.571564 
L 311.583518 -75.899779 
L 310.950416 -75.227995 
L 310.335873 -74.55621 
L 309.738937 -73.884426 
L 309.158191 -73.212641 
L 308.59206 -72.540857 
L 308.039085 -71.869072 
L 307.498161 -71.197288 
L 306.968722 -70.525504 
L 306.450853 -69.853719 
L 305.945321 -69.181935 
z
" style="stroke: #000000; stroke-opacity: 0.7"/>
    </defs>
    <g clip-path="url(#p73de78c966)">
     <use xlink:href="#md5cc34f88e" x="0" y="319.98799" style="fill: #c5b0d5; fill-opacity: 0.7; stroke: #000000; stroke-opacity: 0.7"/>
    </g>
   </g>
   <g id="PolyCollection_5">
    <defs>
     <path id="mfba8a04e94" d="M 370.938497 -111.330188 
L 355.861503 -111.330188 
L 355.15042 -113.028171 
L 354.426445 -114.726155 
L 353.694974 -116.424138 
L 352.961338 -118.122122 
L 352.230669 -119.820106 
L 351.507784 -121.518089 
L 350.797101 -123.216073 
L 350.102576 -124.914056 
L 349.427674 -126.61204 
L 348.775374 -128.310023 
L 348.148185 -130.008007 
L 347.548199 -131.70599 
L 346.977145 -133.403974 
L 346.436453 -135.101957 
L 345.927318 -136.799941 
L 345.450754 -138.497924 
L 345.00764 -140.195908 
L 344.598747 -141.893892 
L 344.22475 -143.591875 
L 343.88623 -145.289859 
L 343.583658 -146.987842 
L 343.317379 -148.685826 
L 343.087592 -150.383809 
L 342.894335 -152.081793 
L 342.737481 -153.779776 
L 342.616748 -155.47776 
L 342.531719 -157.175743 
L 342.48188 -158.873727 
L 342.466667 -160.57171 
L 342.485512 -162.269694 
L 342.537897 -163.967678 
L 342.623383 -165.665661 
L 342.741638 -167.363645 
L 342.892429 -169.061628 
L 343.075596 -170.759612 
L 343.291002 -172.457595 
L 343.538455 -174.155579 
L 343.817622 -175.853562 
L 344.127929 -177.551546 
L 344.468472 -179.249529 
L 344.837942 -180.947513 
L 345.234566 -182.645497 
L 345.656087 -184.34348 
L 346.099781 -186.041464 
L 346.562497 -187.739447 
L 347.040743 -189.437431 
L 347.53079 -191.135414 
L 348.028789 -192.833398 
L 348.530904 -194.531381 
L 349.033429 -196.229365 
L 349.532895 -197.927348 
L 350.026159 -199.625332 
L 350.510461 -201.323315 
L 350.983459 -203.021299 
L 351.443234 -204.719283 
L 351.888279 -206.417266 
L 352.317467 -208.11525 
L 352.73001 -209.813233 
L 353.125416 -211.511217 
L 353.503446 -213.2092 
L 353.864072 -214.907184 
L 354.207443 -216.605167 
L 354.533855 -218.303151 
L 354.84372 -220.001134 
L 355.137542 -221.699118 
L 355.415892 -223.397101 
L 355.679372 -225.095085 
L 355.928584 -226.793069 
L 356.164097 -228.491052 
L 356.386406 -230.189036 
L 356.595907 -231.887019 
L 356.792867 -233.585003 
L 356.977413 -235.282986 
L 357.149539 -236.98097 
L 357.309122 -238.678953 
L 357.455965 -240.376937 
L 357.589853 -242.07492 
L 357.710629 -243.772904 
L 357.818268 -245.470888 
L 357.912971 -247.168871 
L 357.995244 -248.866855 
L 358.065964 -250.564838 
L 358.126437 -252.262822 
L 358.178418 -253.960805 
L 358.224111 -255.658789 
L 358.266133 -257.356772 
L 358.30744 -259.054756 
L 358.351236 -260.752739 
L 358.400839 -262.450723 
L 358.459546 -264.148706 
L 358.530469 -265.84669 
L 358.61639 -267.544674 
L 358.71961 -269.242657 
L 358.841822 -270.940641 
L 358.984018 -272.638624 
L 359.146424 -274.336608 
L 359.328475 -276.034591 
L 359.528835 -277.732575 
L 359.745456 -279.430558 
L 367.054544 -279.430558 
L 367.054544 -279.430558 
L 367.271165 -277.732575 
L 367.471525 -276.034591 
L 367.653576 -274.336608 
L 367.815982 -272.638624 
L 367.958178 -270.940641 
L 368.08039 -269.242657 
L 368.18361 -267.544674 
L 368.269531 -265.84669 
L 368.340454 -264.148706 
L 368.399161 -262.450723 
L 368.448764 -260.752739 
L 368.49256 -259.054756 
L 368.533867 -257.356772 
L 368.575889 -255.658789 
L 368.621582 -253.960805 
L 368.673563 -252.262822 
L 368.734036 -250.564838 
L 368.804756 -248.866855 
L 368.887029 -247.168871 
L 368.981732 -245.470888 
L 369.089371 -243.772904 
L 369.210147 -242.07492 
L 369.344035 -240.376937 
L 369.490878 -238.678953 
L 369.650461 -236.98097 
L 369.822587 -235.282986 
L 370.007133 -233.585003 
L 370.204093 -231.887019 
L 370.413594 -230.189036 
L 370.635903 -228.491052 
L 370.871416 -226.793069 
L 371.120628 -225.095085 
L 371.384108 -223.397101 
L 371.662458 -221.699118 
L 371.95628 -220.001134 
L 372.266145 -218.303151 
L 372.592557 -216.605167 
L 372.935928 -214.907184 
L 373.296554 -213.2092 
L 373.674584 -211.511217 
L 374.06999 -209.813233 
L 374.482533 -208.11525 
L 374.911721 -206.417266 
L 375.356766 -204.719283 
L 375.816541 -203.021299 
L 376.289539 -201.323315 
L 376.773841 -199.625332 
L 377.267105 -197.927348 
L 377.766571 -196.229365 
L 378.269096 -194.531381 
L 378.771211 -192.833398 
L 379.26921 -191.135414 
L 379.759257 -189.437431 
L 380.237503 -187.739447 
L 380.700219 -186.041464 
L 381.143913 -184.34348 
L 381.565434 -182.645497 
L 381.962058 -180.947513 
L 382.331528 -179.249529 
L 382.672071 -177.551546 
L 382.982378 -175.853562 
L 383.261545 -174.155579 
L 383.508998 -172.457595 
L 383.724404 -170.759612 
L 383.907571 -169.061628 
L 384.058362 -167.363645 
L 384.176617 -165.665661 
L 384.262103 -163.967678 
L 384.314488 -162.269694 
L 384.333333 -160.57171 
L 384.31812 -158.873727 
L 384.268281 -157.175743 
L 384.183252 -155.47776 
L 384.062519 -153.779776 
L 383.905665 -152.081793 
L 383.712408 -150.383809 
L 383.482621 -148.685826 
L 383.216342 -146.987842 
L 382.91377 -145.289859 
L 382.57525 -143.591875 
L 382.201253 -141.893892 
L 381.79236 -140.195908 
L 381.349246 -138.497924 
L 380.872682 -136.799941 
L 380.363547 -135.101957 
L 379.822855 -133.403974 
L 379.251801 -131.70599 
L 378.651815 -130.008007 
L 378.024626 -128.310023 
L 377.372326 -126.61204 
L 376.697424 -124.914056 
L 376.002899 -123.216073 
L 375.292216 -121.518089 
L 374.569331 -119.820106 
L 373.838662 -118.122122 
L 373.105026 -116.424138 
L 372.373555 -114.726155 
L 371.64958 -113.028171 
L 370.938497 -111.330188 
z
" style="stroke: #000000; stroke-opacity: 0.7"/>
    </defs>
    <g clip-path="url(#p73de78c966)">
     <use xlink:href="#mfba8a04e94" x="0" y="319.98799" style="fill: #dbdb8d; fill-opacity: 0.7; stroke: #000000; stroke-opacity: 0.7"/>
    </g>
   </g>
   <g id="PolyCollection_6">
    <defs>
     <path id="mab9e6071ec" d="M 436.284498 -84.399096 
L 416.115502 -84.399096 
L 415.051917 -85.080833 
L 413.991971 -85.76257 
L 412.95238 -86.444307 
L 411.949265 -87.126043 
L 410.997422 -87.80778 
L 410.109648 -88.489517 
L 409.296194 -89.171254 
L 408.56437 -89.852991 
L 407.918334 -90.534727 
L 407.359082 -91.216464 
L 406.884632 -91.898201 
L 406.49039 -92.579938 
L 406.169672 -93.261675 
L 405.914321 -93.943411 
L 405.715398 -94.625148 
L 405.563868 -95.306885 
L 405.451247 -95.988622 
L 405.370153 -96.670359 
L 405.314736 -97.352095 
L 405.280951 -98.033832 
L 405.266667 -98.715569 
L 405.271619 -99.397306 
L 405.297209 -100.079043 
L 405.346186 -100.760779 
L 405.422233 -101.442516 
L 405.5295 -102.124253 
L 405.672126 -102.80599 
L 405.853768 -103.487727 
L 406.077196 -104.169463 
L 406.343959 -104.8512 
L 406.654153 -105.532937 
L 407.006308 -106.214674 
L 407.397385 -106.896411 
L 407.822897 -107.578147 
L 408.277132 -108.259884 
L 408.753462 -108.941621 
L 409.244719 -109.623358 
L 409.743601 -110.305095 
L 410.243085 -110.986831 
L 410.736815 -111.668568 
L 411.219433 -112.350305 
L 411.686836 -113.032042 
L 412.136341 -113.713779 
L 412.566755 -114.395515 
L 412.978335 -115.077252 
L 413.372672 -115.758989 
L 413.752492 -116.440726 
L 414.121393 -117.122463 
L 414.483557 -117.804199 
L 414.843435 -118.485936 
L 415.205439 -119.167673 
L 415.573645 -119.84941 
L 415.951538 -120.531146 
L 416.341788 -121.212883 
L 416.746084 -121.89462 
L 417.165017 -122.576357 
L 417.598025 -123.258094 
L 418.043402 -123.93983 
L 418.498359 -124.621567 
L 418.959155 -125.303304 
L 419.42127 -125.985041 
L 419.879637 -126.666778 
L 420.328895 -127.348514 
L 420.76367 -128.030251 
L 421.178858 -128.711988 
L 421.569895 -129.393725 
L 421.93299 -130.075462 
L 422.265312 -130.757198 
L 422.56512 -131.438935 
L 422.831811 -132.120672 
L 423.065904 -132.802409 
L 423.268942 -133.484146 
L 423.443332 -134.165882 
L 423.592132 -134.847619 
L 423.718802 -135.529356 
L 423.826942 -136.211093 
L 423.920043 -136.89283 
L 424.001258 -137.574566 
L 424.073234 -138.256303 
L 424.138007 -138.93804 
L 424.196961 -139.619777 
L 424.250869 -140.301514 
L 424.299994 -140.98325 
L 424.344245 -141.664987 
L 424.383365 -142.346724 
L 424.41712 -143.028461 
L 424.445486 -143.710198 
L 424.468792 -144.391934 
L 424.487809 -145.073671 
L 424.503779 -145.755408 
L 424.518378 -146.437145 
L 424.533619 -147.118882 
L 424.5517 -147.800618 
L 424.574833 -148.482355 
L 424.605051 -149.164092 
L 424.644036 -149.845829 
L 424.692969 -150.527566 
L 424.752428 -151.209302 
L 424.822342 -151.891039 
L 427.577658 -151.891039 
L 427.577658 -151.891039 
L 427.647572 -151.209302 
L 427.707031 -150.527566 
L 427.755964 -149.845829 
L 427.794949 -149.164092 
L 427.825167 -148.482355 
L 427.8483 -147.800618 
L 427.866381 -147.118882 
L 427.881622 -146.437145 
L 427.896221 -145.755408 
L 427.912191 -145.073671 
L 427.931208 -144.391934 
L 427.954514 -143.710198 
L 427.98288 -143.028461 
L 428.016635 -142.346724 
L 428.055755 -141.664987 
L 428.100006 -140.98325 
L 428.149131 -140.301514 
L 428.203039 -139.619777 
L 428.261993 -138.93804 
L 428.326766 -138.256303 
L 428.398742 -137.574566 
L 428.479957 -136.89283 
L 428.573058 -136.211093 
L 428.681198 -135.529356 
L 428.807868 -134.847619 
L 428.956668 -134.165882 
L 429.131058 -133.484146 
L 429.334096 -132.802409 
L 429.568189 -132.120672 
L 429.83488 -131.438935 
L 430.134688 -130.757198 
L 430.46701 -130.075462 
L 430.830105 -129.393725 
L 431.221142 -128.711988 
L 431.63633 -128.030251 
L 432.071105 -127.348514 
L 432.520363 -126.666778 
L 432.97873 -125.985041 
L 433.440845 -125.303304 
L 433.901641 -124.621567 
L 434.356598 -123.93983 
L 434.801975 -123.258094 
L 435.234983 -122.576357 
L 435.653916 -121.89462 
L 436.058212 -121.212883 
L 436.448462 -120.531146 
L 436.826355 -119.84941 
L 437.194561 -119.167673 
L 437.556565 -118.485936 
L 437.916443 -117.804199 
L 438.278607 -117.122463 
L 438.647508 -116.440726 
L 439.027328 -115.758989 
L 439.421665 -115.077252 
L 439.833245 -114.395515 
L 440.263659 -113.713779 
L 440.713164 -113.032042 
L 441.180567 -112.350305 
L 441.663185 -111.668568 
L 442.156915 -110.986831 
L 442.656399 -110.305095 
L 443.155281 -109.623358 
L 443.646538 -108.941621 
L 444.122868 -108.259884 
L 444.577103 -107.578147 
L 445.002615 -106.896411 
L 445.393692 -106.214674 
L 445.745847 -105.532937 
L 446.056041 -104.8512 
L 446.322804 -104.169463 
L 446.546232 -103.487727 
L 446.727874 -102.80599 
L 446.8705 -102.124253 
L 446.977767 -101.442516 
L 447.053814 -100.760779 
L 447.102791 -100.079043 
L 447.128381 -99.397306 
L 447.133333 -98.715569 
L 447.119049 -98.033832 
L 447.085264 -97.352095 
L 447.029847 -96.670359 
L 446.948753 -95.988622 
L 446.836132 -95.306885 
L 446.684602 -94.625148 
L 446.485679 -93.943411 
L 446.230328 -93.261675 
L 445.90961 -92.579938 
L 445.515368 -91.898201 
L 445.040918 -91.216464 
L 444.481666 -90.534727 
L 443.83563 -89.852991 
L 443.103806 -89.171254 
L 442.290352 -88.489517 
L 441.402578 -87.80778 
L 440.450735 -87.126043 
L 439.44762 -86.444307 
L 438.408029 -85.76257 
L 437.348083 -85.080833 
L 436.284498 -84.399096 
z
" style="stroke: #000000; stroke-opacity: 0.7"/>
    </defs>
    <g clip-path="url(#p73de78c966)">
     <use xlink:href="#mab9e6071ec" x="0" y="319.98799" style="fill: #17becf; fill-opacity: 0.7; stroke: #000000; stroke-opacity: 0.7"/>
    </g>
   </g>
   <g id="matplotlib.axis_1">
    <g id="xtick_1">
     <g id="line2d_1">
      <defs>
       <path id="ma583c91ff9" d="M 0 0 
L 0 3.5 
" style="stroke: #000000; stroke-width: 0.8"/>
      </defs>
      <g>
       <use xlink:href="#ma583c91ff9" x="112.2" y="261.318486" style="stroke: #000000; stroke-width: 0.8"/>
      </g>
     </g>
     <g id="text_1">
      <!-- Zephyr -->
      <g transform="translate(85.86646 298.713029) rotate(-45) scale(0.12 -0.12)">
       <defs>
        <path id="TimesNewRomanPSMT-5a" d="M 3681 4238 
L 897 256 
L 2634 256 
Q 3034 256 3248 431 
Q 3463 606 3628 1141 
L 3731 1122 
L 3531 0 
L 81 0 
L 81 116 
L 2800 3984 
L 1444 3984 
Q 1106 3984 954 3911 
Q 803 3838 723 3698 
Q 644 3559 578 3178 
L 459 3178 
L 547 4238 
L 3681 4238 
z
" transform="scale(0.015625)"/>
        <path id="TimesNewRomanPSMT-65" d="M 681 1784 
Q 678 1147 991 784 
Q 1303 422 1725 422 
Q 2006 422 2214 576 
Q 2422 731 2563 1106 
L 2659 1044 
Q 2594 616 2278 264 
Q 1963 -88 1488 -88 
Q 972 -88 605 314 
Q 238 716 238 1394 
Q 238 2128 614 2539 
Q 991 2950 1559 2950 
Q 2041 2950 2350 2633 
Q 2659 2316 2659 1784 
L 681 1784 
z
M 681 1966 
L 2006 1966 
Q 1991 2241 1941 2353 
Q 1863 2528 1708 2628 
Q 1553 2728 1384 2728 
Q 1125 2728 920 2526 
Q 716 2325 681 1966 
z
" transform="scale(0.015625)"/>
        <path id="TimesNewRomanPSMT-70" d="M -6 2578 
L 875 2934 
L 994 2934 
L 994 2266 
Q 1216 2644 1439 2795 
Q 1663 2947 1909 2947 
Q 2341 2947 2628 2609 
Q 2981 2197 2981 1534 
Q 2981 794 2556 309 
Q 2206 -88 1675 -88 
Q 1444 -88 1275 -22 
Q 1150 25 994 166 
L 994 -706 
Q 994 -1000 1030 -1079 
Q 1066 -1159 1155 -1206 
Q 1244 -1253 1478 -1253 
L 1478 -1369 
L -22 -1369 
L -22 -1253 
L 56 -1253 
Q 228 -1256 350 -1188 
Q 409 -1153 442 -1076 
Q 475 -1000 475 -688 
L 475 2019 
Q 475 2297 450 2372 
Q 425 2447 370 2484 
Q 316 2522 222 2522 
Q 147 2522 31 2478 
L -6 2578 
z
M 994 2081 
L 994 1013 
Q 994 666 1022 556 
Q 1066 375 1236 237 
Q 1406 100 1666 100 
Q 1978 100 2172 344 
Q 2425 663 2425 1241 
Q 2425 1897 2138 2250 
Q 1938 2494 1663 2494 
Q 1513 2494 1366 2419 
Q 1253 2363 994 2081 
z
" transform="scale(0.015625)"/>
        <path id="TimesNewRomanPSMT-68" d="M 1041 4444 
L 1041 2350 
Q 1388 2731 1591 2839 
Q 1794 2947 1997 2947 
Q 2241 2947 2416 2812 
Q 2591 2678 2675 2391 
Q 2734 2191 2734 1659 
L 2734 647 
Q 2734 375 2778 275 
Q 2809 200 2884 156 
Q 2959 113 3159 113 
L 3159 0 
L 1753 0 
L 1753 113 
L 1819 113 
Q 2019 113 2097 173 
Q 2175 234 2206 353 
Q 2216 403 2216 647 
L 2216 1659 
Q 2216 2128 2167 2275 
Q 2119 2422 2012 2495 
Q 1906 2569 1756 2569 
Q 1603 2569 1437 2487 
Q 1272 2406 1041 2159 
L 1041 647 
Q 1041 353 1073 281 
Q 1106 209 1195 161 
Q 1284 113 1503 113 
L 1503 0 
L 84 0 
L 84 113 
Q 275 113 384 172 
Q 447 203 484 290 
Q 522 378 522 647 
L 522 3238 
Q 522 3728 498 3840 
Q 475 3953 426 3993 
Q 378 4034 297 4034 
Q 231 4034 84 3984 
L 41 4094 
L 897 4444 
L 1041 4444 
z
" transform="scale(0.015625)"/>
        <path id="TimesNewRomanPSMT-79" d="M 38 2863 
L 1372 2863 
L 1372 2747 
L 1306 2747 
Q 1166 2747 1095 2686 
Q 1025 2625 1025 2534 
Q 1025 2413 1128 2197 
L 1825 753 
L 2466 2334 
Q 2519 2463 2519 2588 
Q 2519 2644 2497 2672 
Q 2472 2706 2419 2726 
Q 2366 2747 2231 2747 
L 2231 2863 
L 3163 2863 
L 3163 2747 
Q 3047 2734 2984 2696 
Q 2922 2659 2847 2556 
Q 2819 2513 2741 2316 
L 1575 -541 
Q 1406 -956 1132 -1168 
Q 859 -1381 606 -1381 
Q 422 -1381 303 -1275 
Q 184 -1169 184 -1031 
Q 184 -900 270 -820 
Q 356 -741 506 -741 
Q 609 -741 788 -809 
Q 913 -856 944 -856 
Q 1038 -856 1148 -759 
Q 1259 -663 1372 -384 
L 1575 113 
L 547 2272 
Q 500 2369 397 2513 
Q 319 2622 269 2659 
Q 197 2709 38 2747 
L 38 2863 
z
" transform="scale(0.015625)"/>
        <path id="TimesNewRomanPSMT-72" d="M 1038 2947 
L 1038 2303 
Q 1397 2947 1775 2947 
Q 1947 2947 2059 2842 
Q 2172 2738 2172 2600 
Q 2172 2478 2090 2393 
Q 2009 2309 1897 2309 
Q 1788 2309 1652 2417 
Q 1516 2525 1450 2525 
Q 1394 2525 1328 2463 
Q 1188 2334 1038 2041 
L 1038 669 
Q 1038 431 1097 309 
Q 1138 225 1241 169 
Q 1344 113 1538 113 
L 1538 0 
L 72 0 
L 72 113 
Q 291 113 397 181 
Q 475 231 506 341 
Q 522 394 522 644 
L 522 1753 
Q 522 2253 501 2348 
Q 481 2444 426 2487 
Q 372 2531 291 2531 
Q 194 2531 72 2484 
L 41 2597 
L 906 2947 
L 1038 2947 
z
" transform="scale(0.015625)"/>
       </defs>
       <use xlink:href="#TimesNewRomanPSMT-5a"/>
       <use xlink:href="#TimesNewRomanPSMT-65" x="61.083984"/>
       <use xlink:href="#TimesNewRomanPSMT-70" x="105.46875"/>
       <use xlink:href="#TimesNewRomanPSMT-68" x="155.46875"/>
       <use xlink:href="#TimesNewRomanPSMT-79" x="205.46875"/>
       <use xlink:href="#TimesNewRomanPSMT-72" x="255.46875"/>
      </g>
     </g>
    </g>
    <g id="xtick_2">
     <g id="line2d_2">
      <g>
       <use xlink:href="#ma583c91ff9" x="175" y="261.318486" style="stroke: #000000; stroke-width: 0.8"/>
      </g>
     </g>
     <g id="text_2">
      <!-- Ironwood -->
      <g transform="translate(140.193111 307.202288) rotate(-45) scale(0.12 -0.12)">
       <defs>
        <path id="TimesNewRomanPSMT-49" d="M 1975 116 
L 1975 0 
L 159 0 
L 159 116 
L 309 116 
Q 572 116 691 269 
Q 766 369 766 750 
L 766 3488 
Q 766 3809 725 3913 
Q 694 3991 597 4047 
Q 459 4122 309 4122 
L 159 4122 
L 159 4238 
L 1975 4238 
L 1975 4122 
L 1822 4122 
Q 1563 4122 1444 3969 
Q 1366 3869 1366 3488 
L 1366 750 
Q 1366 428 1406 325 
Q 1438 247 1538 191 
Q 1672 116 1822 116 
L 1975 116 
z
" transform="scale(0.015625)"/>
        <path id="TimesNewRomanPSMT-6f" d="M 1600 2947 
Q 2250 2947 2644 2453 
Q 2978 2031 2978 1484 
Q 2978 1100 2793 706 
Q 2609 313 2286 112 
Q 1963 -88 1566 -88 
Q 919 -88 538 428 
Q 216 863 216 1403 
Q 216 1797 411 2186 
Q 606 2575 925 2761 
Q 1244 2947 1600 2947 
z
M 1503 2744 
Q 1338 2744 1170 2645 
Q 1003 2547 900 2300 
Q 797 2053 797 1666 
Q 797 1041 1045 587 
Q 1294 134 1700 134 
Q 2003 134 2200 384 
Q 2397 634 2397 1244 
Q 2397 2006 2069 2444 
Q 1847 2744 1503 2744 
z
" transform="scale(0.015625)"/>
        <path id="TimesNewRomanPSMT-6e" d="M 1034 2341 
Q 1538 2947 1994 2947 
Q 2228 2947 2397 2830 
Q 2566 2713 2666 2444 
Q 2734 2256 2734 1869 
L 2734 647 
Q 2734 375 2778 278 
Q 2813 200 2889 156 
Q 2966 113 3172 113 
L 3172 0 
L 1756 0 
L 1756 113 
L 1816 113 
Q 2016 113 2095 173 
Q 2175 234 2206 353 
Q 2219 400 2219 647 
L 2219 1819 
Q 2219 2209 2117 2386 
Q 2016 2563 1775 2563 
Q 1403 2563 1034 2156 
L 1034 647 
Q 1034 356 1069 288 
Q 1113 197 1189 155 
Q 1266 113 1500 113 
L 1500 0 
L 84 0 
L 84 113 
L 147 113 
Q 366 113 442 223 
Q 519 334 519 647 
L 519 1709 
Q 519 2225 495 2337 
Q 472 2450 423 2490 
Q 375 2531 294 2531 
Q 206 2531 84 2484 
L 38 2597 
L 900 2947 
L 1034 2947 
L 1034 2341 
z
" transform="scale(0.015625)"/>
        <path id="TimesNewRomanPSMT-77" d="M 41 2863 
L 1241 2863 
L 1241 2747 
Q 1075 2734 1023 2687 
Q 972 2641 972 2553 
Q 972 2456 1025 2319 
L 1638 672 
L 2253 2013 
L 2091 2434 
Q 2016 2622 1894 2694 
Q 1825 2738 1638 2747 
L 1638 2863 
L 3000 2863 
L 3000 2747 
Q 2775 2738 2681 2666 
Q 2619 2616 2619 2506 
Q 2619 2444 2644 2378 
L 3294 734 
L 3897 2319 
Q 3959 2488 3959 2588 
Q 3959 2647 3898 2694 
Q 3838 2741 3659 2747 
L 3659 2863 
L 4563 2863 
L 4563 2747 
Q 4291 2706 4163 2378 
L 3206 -88 
L 3078 -88 
L 2363 1741 
L 1528 -88 
L 1413 -88 
L 494 2319 
Q 403 2547 315 2626 
Q 228 2706 41 2747 
L 41 2863 
z
" transform="scale(0.015625)"/>
        <path id="TimesNewRomanPSMT-64" d="M 2222 322 
Q 2013 103 1813 7 
Q 1613 -88 1381 -88 
Q 913 -88 563 304 
Q 213 697 213 1313 
Q 213 1928 600 2439 
Q 988 2950 1597 2950 
Q 1975 2950 2222 2709 
L 2222 3238 
Q 2222 3728 2198 3840 
Q 2175 3953 2125 3993 
Q 2075 4034 2000 4034 
Q 1919 4034 1784 3984 
L 1744 4094 
L 2597 4444 
L 2738 4444 
L 2738 1134 
Q 2738 631 2761 520 
Q 2784 409 2836 365 
Q 2888 322 2956 322 
Q 3041 322 3181 375 
L 3216 266 
L 2366 -88 
L 2222 -88 
L 2222 322 
z
M 2222 541 
L 2222 2016 
Q 2203 2228 2109 2403 
Q 2016 2578 1861 2667 
Q 1706 2756 1559 2756 
Q 1284 2756 1069 2509 
Q 784 2184 784 1559 
Q 784 928 1059 592 
Q 1334 256 1672 256 
Q 1956 256 2222 541 
z
" transform="scale(0.015625)"/>
       </defs>
       <use xlink:href="#TimesNewRomanPSMT-49"/>
       <use xlink:href="#TimesNewRomanPSMT-72" x="33.300781"/>
       <use xlink:href="#TimesNewRomanPSMT-6f" x="66.601562"/>
       <use xlink:href="#TimesNewRomanPSMT-6e" x="116.601562"/>
       <use xlink:href="#TimesNewRomanPSMT-77" x="166.601562"/>
       <use xlink:href="#TimesNewRomanPSMT-6f" x="238.818359"/>
       <use xlink:href="#TimesNewRomanPSMT-6f" x="288.818359"/>
       <use xlink:href="#TimesNewRomanPSMT-64" x="338.818359"/>
      </g>
     </g>
    </g>
    <g id="xtick_3">
     <g id="line2d_3">
      <g>
       <use xlink:href="#ma583c91ff9" x="237.8" y="261.318486" style="stroke: #000000; stroke-width: 0.8"/>
      </g>
     </g>
     <g id="text_3">
      <!-- Brookfield -->
      <g transform="translate(199.222464 310.972935) rotate(-45) scale(0.12 -0.12)">
       <defs>
        <path id="TimesNewRomanPSMT-42" d="M 2956 2163 
Q 3397 2069 3616 1863 
Q 3919 1575 3919 1159 
Q 3919 844 3719 555 
Q 3519 266 3170 133 
Q 2822 0 2106 0 
L 106 0 
L 106 116 
L 266 116 
Q 531 116 647 284 
Q 719 394 719 750 
L 719 3488 
Q 719 3881 628 3984 
Q 506 4122 266 4122 
L 106 4122 
L 106 4238 
L 1938 4238 
Q 2450 4238 2759 4163 
Q 3228 4050 3475 3764 
Q 3722 3478 3722 3106 
Q 3722 2788 3528 2536 
Q 3334 2284 2956 2163 
z
M 1319 2331 
Q 1434 2309 1582 2298 
Q 1731 2288 1909 2288 
Q 2366 2288 2595 2386 
Q 2825 2484 2947 2687 
Q 3069 2891 3069 3131 
Q 3069 3503 2766 3765 
Q 2463 4028 1881 4028 
Q 1569 4028 1319 3959 
L 1319 2331 
z
M 1319 306 
Q 1681 222 2034 222 
Q 2600 222 2897 476 
Q 3194 731 3194 1106 
Q 3194 1353 3059 1581 
Q 2925 1809 2622 1940 
Q 2319 2072 1872 2072 
Q 1678 2072 1540 2065 
Q 1403 2059 1319 2044 
L 1319 306 
z
" transform="scale(0.015625)"/>
        <path id="TimesNewRomanPSMT-6b" d="M 1047 4444 
L 1047 1597 
L 1775 2259 
Q 2006 2472 2044 2528 
Q 2069 2566 2069 2603 
Q 2069 2666 2017 2711 
Q 1966 2756 1847 2763 
L 1847 2863 
L 3091 2863 
L 3091 2763 
Q 2834 2756 2664 2684 
Q 2494 2613 2291 2428 
L 1556 1750 
L 2291 822 
Q 2597 438 2703 334 
Q 2853 188 2966 144 
Q 3044 113 3238 113 
L 3238 0 
L 1847 0 
L 1847 113 
Q 1966 116 2008 148 
Q 2050 181 2050 241 
Q 2050 313 1925 472 
L 1047 1594 
L 1047 644 
Q 1047 366 1086 278 
Q 1125 191 1197 153 
Q 1269 116 1509 113 
L 1509 0 
L 53 0 
L 53 113 
Q 272 113 381 166 
Q 447 200 481 272 
Q 528 375 528 628 
L 528 3234 
Q 528 3731 506 3842 
Q 484 3953 434 3995 
Q 384 4038 303 4038 
Q 238 4038 106 3984 
L 53 4094 
L 903 4444 
L 1047 4444 
z
" transform="scale(0.015625)"/>
        <path id="TimesNewRomanPSMT-66" d="M 1319 2638 
L 1319 756 
Q 1319 356 1406 250 
Q 1522 113 1716 113 
L 1975 113 
L 1975 0 
L 266 0 
L 266 113 
L 394 113 
Q 519 113 622 175 
Q 725 238 764 344 
Q 803 450 803 756 
L 803 2638 
L 247 2638 
L 247 2863 
L 803 2863 
L 803 3050 
Q 803 3478 940 3775 
Q 1078 4072 1361 4255 
Q 1644 4438 1997 4438 
Q 2325 4438 2600 4225 
Q 2781 4084 2781 3909 
Q 2781 3816 2700 3733 
Q 2619 3650 2525 3650 
Q 2453 3650 2373 3701 
Q 2294 3753 2178 3923 
Q 2063 4094 1966 4153 
Q 1869 4213 1750 4213 
Q 1606 4213 1506 4136 
Q 1406 4059 1362 3898 
Q 1319 3738 1319 3069 
L 1319 2863 
L 2056 2863 
L 2056 2638 
L 1319 2638 
z
" transform="scale(0.015625)"/>
        <path id="TimesNewRomanPSMT-69" d="M 928 4444 
Q 1059 4444 1151 4351 
Q 1244 4259 1244 4128 
Q 1244 3997 1151 3903 
Q 1059 3809 928 3809 
Q 797 3809 703 3903 
Q 609 3997 609 4128 
Q 609 4259 701 4351 
Q 794 4444 928 4444 
z
M 1188 2947 
L 1188 647 
Q 1188 378 1227 289 
Q 1266 200 1342 156 
Q 1419 113 1622 113 
L 1622 0 
L 231 0 
L 231 113 
Q 441 113 512 153 
Q 584 194 626 287 
Q 669 381 669 647 
L 669 1750 
Q 669 2216 641 2353 
Q 619 2453 572 2492 
Q 525 2531 444 2531 
Q 356 2531 231 2484 
L 188 2597 
L 1050 2947 
L 1188 2947 
z
" transform="scale(0.015625)"/>
        <path id="TimesNewRomanPSMT-6c" d="M 1184 4444 
L 1184 647 
Q 1184 378 1223 290 
Q 1263 203 1344 158 
Q 1425 113 1647 113 
L 1647 0 
L 244 0 
L 244 113 
Q 441 113 512 153 
Q 584 194 625 287 
Q 666 381 666 647 
L 666 3247 
Q 666 3731 644 3842 
Q 622 3953 573 3993 
Q 525 4034 450 4034 
Q 369 4034 244 3984 
L 191 4094 
L 1044 4444 
L 1184 4444 
z
" transform="scale(0.015625)"/>
       </defs>
       <use xlink:href="#TimesNewRomanPSMT-42"/>
       <use xlink:href="#TimesNewRomanPSMT-72" x="66.699219"/>
       <use xlink:href="#TimesNewRomanPSMT-6f" x="100"/>
       <use xlink:href="#TimesNewRomanPSMT-6f" x="150"/>
       <use xlink:href="#TimesNewRomanPSMT-6b" x="200"/>
       <use xlink:href="#TimesNewRomanPSMT-66" x="250"/>
       <use xlink:href="#TimesNewRomanPSMT-69" x="283.300781"/>
       <use xlink:href="#TimesNewRomanPSMT-65" x="311.083984"/>
       <use xlink:href="#TimesNewRomanPSMT-6c" x="355.46875"/>
       <use xlink:href="#TimesNewRomanPSMT-64" x="383.251953"/>
      </g>
     </g>
    </g>
    <g id="xtick_4">
     <g id="line2d_4">
      <g>
       <use xlink:href="#ma583c91ff9" x="300.6" y="261.318486" style="stroke: #000000; stroke-width: 0.8"/>
      </g>
     </g>
     <g id="text_4">
      <!-- Glenhaven -->
      <g transform="translate(262.029093 310.966306) rotate(-45) scale(0.12 -0.12)">
       <defs>
        <path id="TimesNewRomanPSMT-47" d="M 3928 4334 
L 4038 2997 
L 3928 2997 
Q 3763 3497 3500 3750 
Q 3122 4116 2528 4116 
Q 1719 4116 1297 3475 
Q 944 2934 944 2188 
Q 944 1581 1178 1081 
Q 1413 581 1792 348 
Q 2172 116 2572 116 
Q 2806 116 3025 175 
Q 3244 234 3447 350 
L 3447 1575 
Q 3447 1894 3398 1992 
Q 3350 2091 3248 2142 
Q 3147 2194 2891 2194 
L 2891 2313 
L 4531 2313 
L 4531 2194 
L 4453 2194 
Q 4209 2194 4119 2031 
Q 4056 1916 4056 1575 
L 4056 278 
Q 3697 84 3347 -6 
Q 2997 -97 2569 -97 
Q 1341 -97 703 691 
Q 225 1281 225 2053 
Q 225 2613 494 3125 
Q 813 3734 1369 4063 
Q 1834 4334 2469 4334 
Q 2700 4334 2889 4296 
Q 3078 4259 3425 4131 
Q 3600 4066 3659 4066 
Q 3719 4066 3761 4120 
Q 3803 4175 3813 4334 
L 3928 4334 
z
" transform="scale(0.015625)"/>
        <path id="TimesNewRomanPSMT-61" d="M 1822 413 
Q 1381 72 1269 19 
Q 1100 -59 909 -59 
Q 613 -59 420 144 
Q 228 347 228 678 
Q 228 888 322 1041 
Q 450 1253 767 1440 
Q 1084 1628 1822 1897 
L 1822 2009 
Q 1822 2438 1686 2597 
Q 1550 2756 1291 2756 
Q 1094 2756 978 2650 
Q 859 2544 859 2406 
L 866 2225 
Q 866 2081 792 2003 
Q 719 1925 600 1925 
Q 484 1925 411 2006 
Q 338 2088 338 2228 
Q 338 2497 613 2722 
Q 888 2947 1384 2947 
Q 1766 2947 2009 2819 
Q 2194 2722 2281 2516 
Q 2338 2381 2338 1966 
L 2338 994 
Q 2338 584 2353 492 
Q 2369 400 2405 369 
Q 2441 338 2488 338 
Q 2538 338 2575 359 
Q 2641 400 2828 588 
L 2828 413 
Q 2478 -56 2159 -56 
Q 2006 -56 1915 50 
Q 1825 156 1822 413 
z
M 1822 616 
L 1822 1706 
Q 1350 1519 1213 1441 
Q 966 1303 859 1153 
Q 753 1003 753 825 
Q 753 600 887 451 
Q 1022 303 1197 303 
Q 1434 303 1822 616 
z
" transform="scale(0.015625)"/>
        <path id="TimesNewRomanPSMT-76" d="M 53 2863 
L 1400 2863 
L 1400 2747 
L 1313 2747 
Q 1191 2747 1127 2687 
Q 1063 2628 1063 2528 
Q 1063 2419 1128 2269 
L 1794 688 
L 2463 2328 
Q 2534 2503 2534 2594 
Q 2534 2638 2509 2666 
Q 2475 2713 2422 2730 
Q 2369 2747 2206 2747 
L 2206 2863 
L 3141 2863 
L 3141 2747 
Q 2978 2734 2916 2681 
Q 2806 2588 2719 2369 
L 1703 -88 
L 1575 -88 
L 553 2328 
Q 484 2497 421 2570 
Q 359 2644 263 2694 
Q 209 2722 53 2747 
L 53 2863 
z
" transform="scale(0.015625)"/>
       </defs>
       <use xlink:href="#TimesNewRomanPSMT-47"/>
       <use xlink:href="#TimesNewRomanPSMT-6c" x="72.216797"/>
       <use xlink:href="#TimesNewRomanPSMT-65" x="100"/>
       <use xlink:href="#TimesNewRomanPSMT-6e" x="144.384766"/>
       <use xlink:href="#TimesNewRomanPSMT-68" x="194.384766"/>
       <use xlink:href="#TimesNewRomanPSMT-61" x="244.384766"/>
       <use xlink:href="#TimesNewRomanPSMT-76" x="288.769531"/>
       <use xlink:href="#TimesNewRomanPSMT-65" x="338.769531"/>
       <use xlink:href="#TimesNewRomanPSMT-6e" x="383.154297"/>
      </g>
     </g>
    </g>
    <g id="xtick_5">
     <g id="line2d_5">
      <g>
       <use xlink:href="#ma583c91ff9" x="363.4" y="261.318486" style="stroke: #000000; stroke-width: 0.8"/>
      </g>
     </g>
     <g id="text_5">
      <!-- Fairmont -->
      <g transform="translate(330.474457 305.320942) rotate(-45) scale(0.12 -0.12)">
       <defs>
        <path id="TimesNewRomanPSMT-46" d="M 1309 4006 
L 1309 2341 
L 2081 2341 
Q 2347 2341 2470 2458 
Q 2594 2575 2634 2922 
L 2750 2922 
L 2750 1488 
L 2634 1488 
Q 2631 1734 2570 1850 
Q 2509 1966 2401 2023 
Q 2294 2081 2081 2081 
L 1309 2081 
L 1309 750 
Q 1309 428 1350 325 
Q 1381 247 1481 191 
Q 1619 116 1769 116 
L 1922 116 
L 1922 0 
L 103 0 
L 103 116 
L 253 116 
Q 516 116 634 269 
Q 709 369 709 750 
L 709 3488 
Q 709 3809 669 3913 
Q 638 3991 541 4047 
Q 406 4122 253 4122 
L 103 4122 
L 103 4238 
L 3256 4238 
L 3297 3306 
L 3188 3306 
Q 3106 3603 2998 3742 
Q 2891 3881 2733 3943 
Q 2575 4006 2244 4006 
L 1309 4006 
z
" transform="scale(0.015625)"/>
        <path id="TimesNewRomanPSMT-6d" d="M 1050 2338 
Q 1363 2650 1419 2697 
Q 1559 2816 1721 2881 
Q 1884 2947 2044 2947 
Q 2313 2947 2506 2790 
Q 2700 2634 2766 2338 
Q 3088 2713 3309 2830 
Q 3531 2947 3766 2947 
Q 3994 2947 4170 2830 
Q 4347 2713 4450 2447 
Q 4519 2266 4519 1878 
L 4519 647 
Q 4519 378 4559 278 
Q 4591 209 4675 161 
Q 4759 113 4950 113 
L 4950 0 
L 3538 0 
L 3538 113 
L 3597 113 
Q 3781 113 3884 184 
Q 3956 234 3988 344 
Q 4000 397 4000 647 
L 4000 1878 
Q 4000 2228 3916 2372 
Q 3794 2572 3525 2572 
Q 3359 2572 3192 2489 
Q 3025 2406 2788 2181 
L 2781 2147 
L 2788 2013 
L 2788 647 
Q 2788 353 2820 281 
Q 2853 209 2943 161 
Q 3034 113 3253 113 
L 3253 0 
L 1806 0 
L 1806 113 
Q 2044 113 2133 169 
Q 2222 225 2256 338 
Q 2272 391 2272 647 
L 2272 1878 
Q 2272 2228 2169 2381 
Q 2031 2581 1784 2581 
Q 1616 2581 1450 2491 
Q 1191 2353 1050 2181 
L 1050 647 
Q 1050 366 1089 281 
Q 1128 197 1204 155 
Q 1281 113 1516 113 
L 1516 0 
L 100 0 
L 100 113 
Q 297 113 375 155 
Q 453 197 493 289 
Q 534 381 534 647 
L 534 1741 
Q 534 2213 506 2350 
Q 484 2453 437 2492 
Q 391 2531 309 2531 
Q 222 2531 100 2484 
L 53 2597 
L 916 2947 
L 1050 2947 
L 1050 2338 
z
" transform="scale(0.015625)"/>
        <path id="TimesNewRomanPSMT-74" d="M 1031 3803 
L 1031 2863 
L 1700 2863 
L 1700 2644 
L 1031 2644 
L 1031 788 
Q 1031 509 1111 412 
Q 1191 316 1316 316 
Q 1419 316 1516 380 
Q 1613 444 1666 569 
L 1788 569 
Q 1678 263 1478 108 
Q 1278 -47 1066 -47 
Q 922 -47 784 33 
Q 647 113 581 261 
Q 516 409 516 719 
L 516 2644 
L 63 2644 
L 63 2747 
Q 234 2816 414 2980 
Q 594 3144 734 3369 
Q 806 3488 934 3803 
L 1031 3803 
z
" transform="scale(0.015625)"/>
       </defs>
       <use xlink:href="#TimesNewRomanPSMT-46"/>
       <use xlink:href="#TimesNewRomanPSMT-61" x="55.615234"/>
       <use xlink:href="#TimesNewRomanPSMT-69" x="100"/>
       <use xlink:href="#TimesNewRomanPSMT-72" x="127.783203"/>
       <use xlink:href="#TimesNewRomanPSMT-6d" x="161.083984"/>
       <use xlink:href="#TimesNewRomanPSMT-6f" x="238.867188"/>
       <use xlink:href="#TimesNewRomanPSMT-6e" x="288.867188"/>
       <use xlink:href="#TimesNewRomanPSMT-74" x="338.867188"/>
      </g>
     </g>
    </g>
    <g id="xtick_6">
     <g id="line2d_6">
      <g>
       <use xlink:href="#ma583c91ff9" x="426.2" y="261.318486" style="stroke: #000000; stroke-width: 0.8"/>
      </g>
     </g>
     <g id="text_6">
      <!-- Pinehaven -->
      <g transform="translate(389.038445 309.556953) rotate(-45) scale(0.12 -0.12)">
       <defs>
        <path id="TimesNewRomanPSMT-50" d="M 1313 1984 
L 1313 750 
Q 1313 350 1400 253 
Q 1519 116 1759 116 
L 1922 116 
L 1922 0 
L 106 0 
L 106 116 
L 266 116 
Q 534 116 650 291 
Q 713 388 713 750 
L 713 3488 
Q 713 3888 628 3984 
Q 506 4122 266 4122 
L 106 4122 
L 106 4238 
L 1659 4238 
Q 2228 4238 2556 4120 
Q 2884 4003 3109 3725 
Q 3334 3447 3334 3066 
Q 3334 2547 2992 2222 
Q 2650 1897 2025 1897 
Q 1872 1897 1694 1919 
Q 1516 1941 1313 1984 
z
M 1313 2163 
Q 1478 2131 1606 2115 
Q 1734 2100 1825 2100 
Q 2150 2100 2386 2351 
Q 2622 2603 2622 3003 
Q 2622 3278 2509 3514 
Q 2397 3750 2190 3867 
Q 1984 3984 1722 3984 
Q 1563 3984 1313 3925 
L 1313 2163 
z
" transform="scale(0.015625)"/>
       </defs>
       <use xlink:href="#TimesNewRomanPSMT-50"/>
       <use xlink:href="#TimesNewRomanPSMT-69" x="55.615234"/>
       <use xlink:href="#TimesNewRomanPSMT-6e" x="83.398438"/>
       <use xlink:href="#TimesNewRomanPSMT-65" x="133.398438"/>
       <use xlink:href="#TimesNewRomanPSMT-68" x="177.783203"/>
       <use xlink:href="#TimesNewRomanPSMT-61" x="227.783203"/>
       <use xlink:href="#TimesNewRomanPSMT-76" x="272.167969"/>
       <use xlink:href="#TimesNewRomanPSMT-65" x="322.167969"/>
       <use xlink:href="#TimesNewRomanPSMT-6e" x="366.552734"/>
      </g>
     </g>
    </g>
   </g>
   <g id="matplotlib.axis_2">
    <g id="ytick_1">
     <g id="line2d_7">
      <defs>
       <path id="m19b2918b28" d="M 0 0 
L -3.5 0 
" style="stroke: #000000; stroke-width: 0.8"/>
      </defs>
      <g>
       <use xlink:href="#m19b2918b28" x="80.8" y="234.877299" style="stroke: #000000; stroke-width: 0.8"/>
      </g>
     </g>
     <g id="text_7">
      <!-- 500 -->
      <g transform="translate(58.8 238.349174) scale(0.1 -0.1)">
       <defs>
        <path id="TimesNewRomanPSMT-35" d="M 2778 4238 
L 2534 3706 
L 1259 3706 
L 981 3138 
Q 1809 3016 2294 2522 
Q 2709 2097 2709 1522 
Q 2709 1188 2573 903 
Q 2438 619 2231 419 
Q 2025 219 1772 97 
Q 1413 -75 1034 -75 
Q 653 -75 479 54 
Q 306 184 306 341 
Q 306 428 378 495 
Q 450 563 559 563 
Q 641 563 702 538 
Q 763 513 909 409 
Q 1144 247 1384 247 
Q 1750 247 2026 523 
Q 2303 800 2303 1197 
Q 2303 1581 2056 1914 
Q 1809 2247 1375 2428 
Q 1034 2569 447 2591 
L 1259 4238 
L 2778 4238 
z
" transform="scale(0.015625)"/>
        <path id="TimesNewRomanPSMT-30" d="M 231 2094 
Q 231 2819 450 3342 
Q 669 3866 1031 4122 
Q 1313 4325 1613 4325 
Q 2100 4325 2488 3828 
Q 2972 3213 2972 2159 
Q 2972 1422 2759 906 
Q 2547 391 2217 158 
Q 1888 -75 1581 -75 
Q 975 -75 572 641 
Q 231 1244 231 2094 
z
M 844 2016 
Q 844 1141 1059 588 
Q 1238 122 1591 122 
Q 1759 122 1940 273 
Q 2122 425 2216 781 
Q 2359 1319 2359 2297 
Q 2359 3022 2209 3506 
Q 2097 3866 1919 4016 
Q 1791 4119 1609 4119 
Q 1397 4119 1231 3928 
Q 1006 3669 925 3112 
Q 844 2556 844 2016 
z
" transform="scale(0.015625)"/>
       </defs>
       <use xlink:href="#TimesNewRomanPSMT-35"/>
       <use xlink:href="#TimesNewRomanPSMT-30" x="50"/>
       <use xlink:href="#TimesNewRomanPSMT-30" x="100"/>
      </g>
     </g>
    </g>
    <g id="ytick_2">
     <g id="line2d_8">
      <g>
       <use xlink:href="#m19b2918b28" x="80.8" y="207.508304" style="stroke: #000000; stroke-width: 0.8"/>
      </g>
     </g>
     <g id="text_8">
      <!-- 1000 -->
      <g transform="translate(53.8 210.980179) scale(0.1 -0.1)">
       <defs>
        <path id="TimesNewRomanPSMT-31" d="M 750 3822 
L 1781 4325 
L 1884 4325 
L 1884 747 
Q 1884 391 1914 303 
Q 1944 216 2037 169 
Q 2131 122 2419 116 
L 2419 0 
L 825 0 
L 825 116 
Q 1125 122 1212 167 
Q 1300 213 1334 289 
Q 1369 366 1369 747 
L 1369 3034 
Q 1369 3497 1338 3628 
Q 1316 3728 1258 3775 
Q 1200 3822 1119 3822 
Q 1003 3822 797 3725 
L 750 3822 
z
" transform="scale(0.015625)"/>
       </defs>
       <use xlink:href="#TimesNewRomanPSMT-31"/>
       <use xlink:href="#TimesNewRomanPSMT-30" x="50"/>
       <use xlink:href="#TimesNewRomanPSMT-30" x="100"/>
       <use xlink:href="#TimesNewRomanPSMT-30" x="150"/>
      </g>
     </g>
    </g>
    <g id="ytick_3">
     <g id="line2d_9">
      <g>
       <use xlink:href="#m19b2918b28" x="80.8" y="180.139308" style="stroke: #000000; stroke-width: 0.8"/>
      </g>
     </g>
     <g id="text_9">
      <!-- 1500 -->
      <g transform="translate(53.8 183.611183) scale(0.1 -0.1)">
       <use xlink:href="#TimesNewRomanPSMT-31"/>
       <use xlink:href="#TimesNewRomanPSMT-35" x="50"/>
       <use xlink:href="#TimesNewRomanPSMT-30" x="100"/>
       <use xlink:href="#TimesNewRomanPSMT-30" x="150"/>
      </g>
     </g>
    </g>
    <g id="ytick_4">
     <g id="line2d_10">
      <g>
       <use xlink:href="#m19b2918b28" x="80.8" y="152.770313" style="stroke: #000000; stroke-width: 0.8"/>
      </g>
     </g>
     <g id="text_10">
      <!-- 2000 -->
      <g transform="translate(53.8 156.242188) scale(0.1 -0.1)">
       <defs>
        <path id="TimesNewRomanPSMT-32" d="M 2934 816 
L 2638 0 
L 138 0 
L 138 116 
Q 1241 1122 1691 1759 
Q 2141 2397 2141 2925 
Q 2141 3328 1894 3587 
Q 1647 3847 1303 3847 
Q 991 3847 742 3664 
Q 494 3481 375 3128 
L 259 3128 
Q 338 3706 661 4015 
Q 984 4325 1469 4325 
Q 1984 4325 2329 3994 
Q 2675 3663 2675 3213 
Q 2675 2891 2525 2569 
Q 2294 2063 1775 1497 
Q 997 647 803 472 
L 1909 472 
Q 2247 472 2383 497 
Q 2519 522 2628 598 
Q 2738 675 2819 816 
L 2934 816 
z
" transform="scale(0.015625)"/>
       </defs>
       <use xlink:href="#TimesNewRomanPSMT-32"/>
       <use xlink:href="#TimesNewRomanPSMT-30" x="50"/>
       <use xlink:href="#TimesNewRomanPSMT-30" x="100"/>
       <use xlink:href="#TimesNewRomanPSMT-30" x="150"/>
      </g>
     </g>
    </g>
    <g id="ytick_5">
     <g id="line2d_11">
      <g>
       <use xlink:href="#m19b2918b28" x="80.8" y="125.401317" style="stroke: #000000; stroke-width: 0.8"/>
      </g>
     </g>
     <g id="text_11">
      <!-- 2500 -->
      <g transform="translate(53.8 128.873192) scale(0.1 -0.1)">
       <use xlink:href="#TimesNewRomanPSMT-32"/>
       <use xlink:href="#TimesNewRomanPSMT-35" x="50"/>
       <use xlink:href="#TimesNewRomanPSMT-30" x="100"/>
       <use xlink:href="#TimesNewRomanPSMT-30" x="150"/>
      </g>
     </g>
    </g>
    <g id="ytick_6">
     <g id="line2d_12">
      <g>
       <use xlink:href="#m19b2918b28" x="80.8" y="98.032322" style="stroke: #000000; stroke-width: 0.8"/>
      </g>
     </g>
     <g id="text_12">
      <!-- 3000 -->
      <g transform="translate(53.8 101.504197) scale(0.1 -0.1)">
       <defs>
        <path id="TimesNewRomanPSMT-33" d="M 325 3431 
Q 506 3859 782 4092 
Q 1059 4325 1472 4325 
Q 1981 4325 2253 3994 
Q 2459 3747 2459 3466 
Q 2459 3003 1878 2509 
Q 2269 2356 2469 2072 
Q 2669 1788 2669 1403 
Q 2669 853 2319 450 
Q 1863 -75 997 -75 
Q 569 -75 414 31 
Q 259 138 259 259 
Q 259 350 332 419 
Q 406 488 509 488 
Q 588 488 669 463 
Q 722 447 909 348 
Q 1097 250 1169 231 
Q 1284 197 1416 197 
Q 1734 197 1970 444 
Q 2206 691 2206 1028 
Q 2206 1275 2097 1509 
Q 2016 1684 1919 1775 
Q 1784 1900 1550 2001 
Q 1316 2103 1072 2103 
L 972 2103 
L 972 2197 
Q 1219 2228 1467 2375 
Q 1716 2522 1828 2728 
Q 1941 2934 1941 3181 
Q 1941 3503 1739 3701 
Q 1538 3900 1238 3900 
Q 753 3900 428 3381 
L 325 3431 
z
" transform="scale(0.015625)"/>
       </defs>
       <use xlink:href="#TimesNewRomanPSMT-33"/>
       <use xlink:href="#TimesNewRomanPSMT-30" x="50"/>
       <use xlink:href="#TimesNewRomanPSMT-30" x="100"/>
       <use xlink:href="#TimesNewRomanPSMT-30" x="150"/>
      </g>
     </g>
    </g>
    <g id="ytick_7">
     <g id="line2d_13">
      <g>
       <use xlink:href="#m19b2918b28" x="80.8" y="70.663326" style="stroke: #000000; stroke-width: 0.8"/>
      </g>
     </g>
     <g id="text_13">
      <!-- 3500 -->
      <g transform="translate(53.8 74.135201) scale(0.1 -0.1)">
       <use xlink:href="#TimesNewRomanPSMT-33"/>
       <use xlink:href="#TimesNewRomanPSMT-35" x="50"/>
       <use xlink:href="#TimesNewRomanPSMT-30" x="100"/>
       <use xlink:href="#TimesNewRomanPSMT-30" x="150"/>
      </g>
     </g>
    </g>
    <g id="ytick_8">
     <g id="line2d_14">
      <g>
       <use xlink:href="#m19b2918b28" x="80.8" y="43.294331" style="stroke: #000000; stroke-width: 0.8"/>
      </g>
     </g>
     <g id="text_14">
      <!-- 4000 -->
      <g transform="translate(53.8 46.766206) scale(0.1 -0.1)">
       <defs>
        <path id="TimesNewRomanPSMT-34" d="M 2978 1563 
L 2978 1119 
L 2409 1119 
L 2409 0 
L 1894 0 
L 1894 1119 
L 100 1119 
L 100 1519 
L 2066 4325 
L 2409 4325 
L 2409 1563 
L 2978 1563 
z
M 1894 1563 
L 1894 3666 
L 406 1563 
L 1894 1563 
z
" transform="scale(0.015625)"/>
       </defs>
       <use xlink:href="#TimesNewRomanPSMT-34"/>
       <use xlink:href="#TimesNewRomanPSMT-30" x="50"/>
       <use xlink:href="#TimesNewRomanPSMT-30" x="100"/>
       <use xlink:href="#TimesNewRomanPSMT-30" x="150"/>
      </g>
     </g>
    </g>
    <g id="text_15">
     <!-- number -->
     <g transform="translate(46.805313 167.064555) rotate(-90) scale(0.14 -0.14)">
      <defs>
       <path id="TimesNewRomanPSMT-75" d="M 2709 2863 
L 2709 1128 
Q 2709 631 2732 520 
Q 2756 409 2807 365 
Q 2859 322 2928 322 
Q 3025 322 3147 375 
L 3191 266 
L 2334 -88 
L 2194 -88 
L 2194 519 
Q 1825 119 1631 15 
Q 1438 -88 1222 -88 
Q 981 -88 804 51 
Q 628 191 559 409 
Q 491 628 491 1028 
L 491 2306 
Q 491 2509 447 2587 
Q 403 2666 317 2708 
Q 231 2750 6 2747 
L 6 2863 
L 1009 2863 
L 1009 947 
Q 1009 547 1148 422 
Q 1288 297 1484 297 
Q 1619 297 1789 381 
Q 1959 466 2194 703 
L 2194 2325 
Q 2194 2569 2105 2655 
Q 2016 2741 1734 2747 
L 1734 2863 
L 2709 2863 
z
" transform="scale(0.015625)"/>
       <path id="TimesNewRomanPSMT-62" d="M 984 2369 
Q 1400 2947 1881 2947 
Q 2322 2947 2650 2570 
Q 2978 2194 2978 1541 
Q 2978 778 2472 313 
Q 2038 -88 1503 -88 
Q 1253 -88 995 3 
Q 738 94 469 275 
L 469 3241 
Q 469 3728 445 3840 
Q 422 3953 372 3993 
Q 322 4034 247 4034 
Q 159 4034 28 3984 
L -16 4094 
L 844 4444 
L 984 4444 
L 984 2369 
z
M 984 2169 
L 984 456 
Q 1144 300 1314 220 
Q 1484 141 1663 141 
Q 1947 141 2192 453 
Q 2438 766 2438 1363 
Q 2438 1913 2192 2208 
Q 1947 2503 1634 2503 
Q 1469 2503 1303 2419 
Q 1178 2356 984 2169 
z
" transform="scale(0.015625)"/>
      </defs>
      <use xlink:href="#TimesNewRomanPSMT-6e"/>
      <use xlink:href="#TimesNewRomanPSMT-75" x="50"/>
      <use xlink:href="#TimesNewRomanPSMT-6d" x="100"/>
      <use xlink:href="#TimesNewRomanPSMT-62" x="177.783203"/>
      <use xlink:href="#TimesNewRomanPSMT-65" x="227.783203"/>
      <use xlink:href="#TimesNewRomanPSMT-72" x="272.167969"/>
     </g>
    </g>
   </g>
   <g id="patch_3">
    <path d="M 109.06 246.71439 
L 115.34 246.71439 
L 115.34 235.205727 
L 109.06 235.205727 
L 109.06 246.71439 
L 109.06 246.71439 
z
" clip-path="url(#p73de78c966)" style="fill: none; stroke: #000000; stroke-linejoin: miter"/>
   </g>
   <g id="line2d_15">
    <path d="M 112.2 246.71439 
L 112.2 250.751317 
" clip-path="url(#p73de78c966)" style="fill: none; stroke: #000000; stroke-linecap: square"/>
   </g>
   <g id="line2d_16">
    <path d="M 112.2 235.205727 
L 112.2 218.455902 
" clip-path="url(#p73de78c966)" style="fill: none; stroke: #000000; stroke-linecap: square"/>
   </g>
   <g id="line2d_17">
    <path d="M 110.63 250.751317 
L 113.77 250.751317 
" clip-path="url(#p73de78c966)" style="fill: none; stroke: #000000; stroke-linecap: square"/>
   </g>
   <g id="line2d_18">
    <path d="M 110.63 218.455902 
L 113.77 218.455902 
" clip-path="url(#p73de78c966)" style="fill: none; stroke: #000000; stroke-linecap: square"/>
   </g>
   <g id="patch_4">
    <path d="M 171.86 229.28034 
L 178.14 229.28034 
L 178.14 204.374554 
L 171.86 204.374554 
L 171.86 229.28034 
L 171.86 229.28034 
z
" clip-path="url(#p73de78c966)" style="fill: none; stroke: #000000; stroke-linejoin: miter"/>
   </g>
   <g id="line2d_19">
    <path d="M 175 229.28034 
L 175 247.138609 
" clip-path="url(#p73de78c966)" style="fill: none; stroke: #000000; stroke-linecap: square"/>
   </g>
   <g id="line2d_20">
    <path d="M 175 204.374554 
L 175 167.713784 
" clip-path="url(#p73de78c966)" style="fill: none; stroke: #000000; stroke-linecap: square"/>
   </g>
   <g id="line2d_21">
    <path d="M 173.43 247.138609 
L 176.57 247.138609 
" clip-path="url(#p73de78c966)" style="fill: none; stroke: #000000; stroke-linecap: square"/>
   </g>
   <g id="line2d_22">
    <path d="M 173.43 167.713784 
L 176.57 167.713784 
" clip-path="url(#p73de78c966)" style="fill: none; stroke: #000000; stroke-linecap: square"/>
   </g>
   <g id="patch_5">
    <path d="M 234.66 192.605886 
L 240.94 192.605886 
L 240.94 160.324156 
L 234.66 160.324156 
L 234.66 192.605886 
L 234.66 192.605886 
z
" clip-path="url(#p73de78c966)" style="fill: none; stroke: #000000; stroke-linejoin: miter"/>
   </g>
   <g id="line2d_23">
    <path d="M 237.8 192.605886 
L 237.8 206.851448 
" clip-path="url(#p73de78c966)" style="fill: none; stroke: #000000; stroke-linecap: square"/>
   </g>
   <g id="line2d_24">
    <path d="M 237.8 160.324156 
L 237.8 114.344243 
" clip-path="url(#p73de78c966)" style="fill: none; stroke: #000000; stroke-linecap: square"/>
   </g>
   <g id="line2d_25">
    <path d="M 236.23 206.851448 
L 239.37 206.851448 
" clip-path="url(#p73de78c966)" style="fill: none; stroke: #000000; stroke-linecap: square"/>
   </g>
   <g id="line2d_26">
    <path d="M 236.23 114.344243 
L 239.37 114.344243 
" clip-path="url(#p73de78c966)" style="fill: none; stroke: #000000; stroke-linecap: square"/>
   </g>
   <g id="patch_6">
    <path d="M 297.46 235.205727 
L 303.74 235.205727 
L 303.74 214.309499 
L 297.46 214.309499 
L 297.46 235.205727 
L 297.46 235.205727 
z
" clip-path="url(#p73de78c966)" style="fill: none; stroke: #000000; stroke-linejoin: miter"/>
   </g>
   <g id="line2d_27">
    <path d="M 300.6 235.205727 
L 300.6 250.806055 
" clip-path="url(#p73de78c966)" style="fill: none; stroke: #000000; stroke-linecap: square"/>
   </g>
   <g id="line2d_28">
    <path d="M 300.6 214.309499 
L 300.6 184.299396 
" clip-path="url(#p73de78c966)" style="fill: none; stroke: #000000; stroke-linecap: square"/>
   </g>
   <g id="line2d_29">
    <path d="M 299.03 250.806055 
L 302.17 250.806055 
" clip-path="url(#p73de78c966)" style="fill: none; stroke: #000000; stroke-linecap: square"/>
   </g>
   <g id="line2d_30">
    <path d="M 299.03 184.299396 
L 302.17 184.299396 
" clip-path="url(#p73de78c966)" style="fill: none; stroke: #000000; stroke-linecap: square"/>
   </g>
   <g id="patch_7">
    <path d="M 360.26 174.597087 
L 366.54 174.597087 
L 366.54 117.067458 
L 360.26 117.067458 
L 360.26 174.597087 
L 360.26 174.597087 
z
" clip-path="url(#p73de78c966)" style="fill: none; stroke: #000000; stroke-linejoin: miter"/>
   </g>
   <g id="line2d_31">
    <path d="M 363.4 174.597087 
L 363.4 208.657802 
" clip-path="url(#p73de78c966)" style="fill: none; stroke: #000000; stroke-linecap: square"/>
   </g>
   <g id="line2d_32">
    <path d="M 363.4 117.067458 
L 363.4 40.557431 
" clip-path="url(#p73de78c966)" style="fill: none; stroke: #000000; stroke-linecap: square"/>
   </g>
   <g id="line2d_33">
    <path d="M 361.83 208.657802 
L 364.97 208.657802 
" clip-path="url(#p73de78c966)" style="fill: none; stroke: #000000; stroke-linecap: square"/>
   </g>
   <g id="line2d_34">
    <path d="M 361.83 40.557431 
L 364.97 40.557431 
" clip-path="url(#p73de78c966)" style="fill: none; stroke: #000000; stroke-linecap: square"/>
   </g>
   <g id="patch_8">
    <path d="M 423.06 226.461333 
L 429.34 226.461333 
L 429.34 205.838795 
L 423.06 205.838795 
L 423.06 226.461333 
L 423.06 226.461333 
z
" clip-path="url(#p73de78c966)" style="fill: none; stroke: #000000; stroke-linejoin: miter"/>
   </g>
   <g id="line2d_35">
    <path d="M 426.2 226.461333 
L 426.2 235.588893 
" clip-path="url(#p73de78c966)" style="fill: none; stroke: #000000; stroke-linecap: square"/>
   </g>
   <g id="line2d_36">
    <path d="M 426.2 205.838795 
L 426.2 180.412998 
" clip-path="url(#p73de78c966)" style="fill: none; stroke: #000000; stroke-linecap: square"/>
   </g>
   <g id="line2d_37">
    <path d="M 424.63 235.588893 
L 427.77 235.588893 
" clip-path="url(#p73de78c966)" style="fill: none; stroke: #000000; stroke-linecap: square"/>
   </g>
   <g id="line2d_38">
    <path d="M 424.63 180.412998 
L 427.77 180.412998 
" clip-path="url(#p73de78c966)" style="fill: none; stroke: #000000; stroke-linecap: square"/>
   </g>
   <g id="line2d_39">
    <path d="M 109.06 241.774286 
L 115.34 241.774286 
" clip-path="url(#p73de78c966)" style="fill: none; stroke: #000000; stroke-width: 1.5; stroke-linecap: square"/>
   </g>
   <g id="line2d_40">
    <path d="M 171.86 216.731655 
L 178.14 216.731655 
" clip-path="url(#p73de78c966)" style="fill: none; stroke: #000000; stroke-width: 1.5; stroke-linecap: square"/>
   </g>
   <g id="line2d_41">
    <path d="M 234.66 180.659319 
L 240.94 180.659319 
" clip-path="url(#p73de78c966)" style="fill: none; stroke: #000000; stroke-width: 1.5; stroke-linecap: square"/>
   </g>
   <g id="line2d_42">
    <path d="M 297.46 226.502387 
L 303.74 226.502387 
" clip-path="url(#p73de78c966)" style="fill: none; stroke: #000000; stroke-width: 1.5; stroke-linecap: square"/>
   </g>
   <g id="line2d_43">
    <path d="M 360.26 149.102867 
L 366.54 149.102867 
" clip-path="url(#p73de78c966)" style="fill: none; stroke: #000000; stroke-width: 1.5; stroke-linecap: square"/>
   </g>
   <g id="line2d_44">
    <path d="M 423.06 217.41588 
L 429.34 217.41588 
" clip-path="url(#p73de78c966)" style="fill: none; stroke: #000000; stroke-width: 1.5; stroke-linecap: square"/>
   </g>
   <g id="patch_9">
    <path d="M 80.8 261.318486 
L 80.8 30.045 
" style="fill: none; stroke: #000000; stroke-linejoin: miter; stroke-linecap: square"/>
   </g>
   <g id="patch_10">
    <path d="M 457.6 261.318486 
L 457.6 30.045 
" style="fill: none; stroke: #000000; stroke-linejoin: miter; stroke-linecap: square"/>
   </g>
   <g id="patch_11">
    <path d="M 80.8 261.318486 
L 457.6 261.318486 
" style="fill: none; stroke: #000000; stroke-linejoin: miter; stroke-linecap: square"/>
   </g>
   <g id="patch_12">
    <path d="M 80.8 30.045 
L 457.6 30.045 
" style="fill: none; stroke: #000000; stroke-linejoin: miter; stroke-linecap: square"/>
   </g>
   <g id="text_16">
    <!-- Number of people participating in cultural activities across regions (number) -->
    <g transform="translate(7.2 18.045) scale(0.16 -0.16)">
     <defs>
      <path id="TimesNewRomanPS-BoldMT-4e" d="M 1594 4238 
L 3684 1609 
L 3684 3431 
Q 3684 3813 3575 3947 
Q 3425 4128 3072 4122 
L 3072 4238 
L 4472 4238 
L 4472 4122 
Q 4203 4088 4111 4033 
Q 4019 3978 3967 3854 
Q 3916 3731 3916 3431 
L 3916 -97 
L 3809 -97 
L 944 3431 
L 944 738 
Q 944 372 1111 244 
Q 1278 116 1494 116 
L 1594 116 
L 1594 0 
L 91 0 
L 91 116 
Q 441 119 578 259 
Q 716 400 716 738 
L 716 3728 
L 625 3841 
Q 491 4009 387 4062 
Q 284 4116 91 4122 
L 91 4238 
L 1594 4238 
z
" transform="scale(0.015625)"/>
      <path id="TimesNewRomanPS-BoldMT-75" d="M 3038 2922 
L 3038 634 
Q 3038 300 3100 217 
Q 3163 134 3353 113 
L 3353 0 
L 2163 0 
L 2163 391 
Q 1953 141 1743 26 
Q 1534 -88 1275 -88 
Q 1028 -88 836 64 
Q 644 216 578 419 
Q 513 622 513 1128 
L 513 2288 
Q 513 2619 452 2700 
Q 391 2781 197 2806 
L 197 2922 
L 1388 2922 
L 1388 925 
Q 1388 613 1417 522 
Q 1447 431 1511 384 
Q 1575 338 1659 338 
Q 1772 338 1863 397 
Q 1988 478 2163 725 
L 2163 2288 
Q 2163 2619 2102 2700 
Q 2041 2781 1847 2806 
L 1847 2922 
L 3038 2922 
z
" transform="scale(0.015625)"/>
      <path id="TimesNewRomanPS-BoldMT-6d" d="M 1428 2922 
L 1428 2538 
Q 1669 2800 1873 2904 
Q 2078 3009 2322 3009 
Q 2603 3009 2793 2878 
Q 2984 2747 3088 2478 
Q 3338 2759 3567 2884 
Q 3797 3009 4047 3009 
Q 4350 3009 4529 2870 
Q 4709 2731 4779 2517 
Q 4850 2303 4850 1834 
L 4850 638 
Q 4850 300 4911 219 
Q 4972 138 5166 113 
L 5166 0 
L 3656 0 
L 3656 113 
Q 3834 128 3919 250 
Q 3975 334 3975 638 
L 3975 1894 
Q 3975 2284 3944 2390 
Q 3913 2497 3845 2548 
Q 3778 2600 3688 2600 
Q 3553 2600 3415 2501 
Q 3278 2403 3138 2206 
L 3138 638 
Q 3138 322 3191 241 
Q 3263 125 3466 113 
L 3466 0 
L 1953 0 
L 1953 113 
Q 2075 119 2145 173 
Q 2216 228 2239 304 
Q 2263 381 2263 638 
L 2263 1894 
Q 2263 2291 2231 2391 
Q 2200 2491 2126 2547 
Q 2053 2603 1969 2603 
Q 1844 2603 1741 2538 
Q 1594 2441 1428 2206 
L 1428 638 
Q 1428 328 1489 229 
Q 1550 131 1744 113 
L 1744 0 
L 238 0 
L 238 113 
Q 422 131 500 231 
Q 553 300 553 638 
L 553 2288 
Q 553 2619 492 2700 
Q 431 2781 238 2806 
L 238 2922 
L 1428 2922 
z
" transform="scale(0.015625)"/>
      <path id="TimesNewRomanPS-BoldMT-62" d="M 1347 4238 
L 1347 2628 
Q 1716 3009 2153 3009 
Q 2453 3009 2718 2832 
Q 2984 2656 3134 2331 
Q 3284 2006 3284 1581 
Q 3284 1103 3093 712 
Q 2903 322 2584 117 
Q 2266 -88 1856 -88 
Q 1619 -88 1434 -12 
Q 1250 63 1072 231 
L 588 -84 
L 481 -84 
L 481 3631 
Q 481 3884 459 3944 
Q 428 4031 361 4073 
Q 294 4116 134 4122 
L 134 4238 
L 1347 4238 
z
M 1347 2350 
L 1347 1050 
Q 1347 653 1366 544 
Q 1397 359 1515 245 
Q 1634 131 1819 131 
Q 1978 131 2092 222 
Q 2206 313 2282 581 
Q 2359 850 2359 1550 
Q 2359 2222 2191 2472 
Q 2069 2653 1863 2653 
Q 1594 2653 1347 2350 
z
" transform="scale(0.015625)"/>
      <path id="TimesNewRomanPS-BoldMT-65" d="M 2691 1566 
L 1088 1566 
Q 1116 984 1397 647 
Q 1613 388 1916 388 
Q 2103 388 2256 492 
Q 2409 597 2584 869 
L 2691 800 
Q 2453 316 2165 114 
Q 1878 -88 1500 -88 
Q 850 -88 516 413 
Q 247 816 247 1413 
Q 247 2144 642 2576 
Q 1038 3009 1569 3009 
Q 2013 3009 2339 2645 
Q 2666 2281 2691 1566 
z
M 1922 1775 
Q 1922 2278 1867 2465 
Q 1813 2653 1697 2750 
Q 1631 2806 1522 2806 
Q 1359 2806 1256 2647 
Q 1072 2369 1072 1884 
L 1072 1775 
L 1922 1775 
z
" transform="scale(0.015625)"/>
      <path id="TimesNewRomanPS-BoldMT-72" d="M 1428 2922 
L 1428 2259 
Q 1719 2713 1937 2861 
Q 2156 3009 2359 3009 
Q 2534 3009 2639 2901 
Q 2744 2794 2744 2597 
Q 2744 2388 2642 2272 
Q 2541 2156 2397 2156 
Q 2231 2156 2109 2262 
Q 1988 2369 1966 2381 
Q 1934 2400 1894 2400 
Q 1803 2400 1722 2331 
Q 1594 2225 1528 2028 
Q 1428 1725 1428 1359 
L 1428 688 
L 1431 513 
Q 1431 334 1453 284 
Q 1491 200 1564 161 
Q 1638 122 1813 113 
L 1813 0 
L 234 0 
L 234 113 
Q 425 128 492 217 
Q 559 306 559 688 
L 559 2303 
Q 559 2553 534 2622 
Q 503 2709 443 2750 
Q 384 2791 234 2806 
L 234 2922 
L 1428 2922 
z
" transform="scale(0.015625)"/>
      <path id="TimesNewRomanPS-BoldMT-20" transform="scale(0.015625)"/>
      <path id="TimesNewRomanPS-BoldMT-6f" d="M 1594 3009 
Q 1975 3009 2303 2812 
Q 2631 2616 2801 2253 
Q 2972 1891 2972 1459 
Q 2972 838 2656 419 
Q 2275 -88 1603 -88 
Q 944 -88 587 375 
Q 231 838 231 1447 
Q 231 2075 595 2542 
Q 959 3009 1594 3009 
z
M 1606 2788 
Q 1447 2788 1333 2667 
Q 1219 2547 1183 2192 
Q 1147 1838 1147 1206 
Q 1147 872 1191 581 
Q 1225 359 1337 243 
Q 1450 128 1594 128 
Q 1734 128 1828 206 
Q 1950 313 1991 503 
Q 2053 800 2053 1703 
Q 2053 2234 1993 2432 
Q 1934 2631 1819 2722 
Q 1738 2788 1606 2788 
z
" transform="scale(0.015625)"/>
      <path id="TimesNewRomanPS-BoldMT-66" d="M 1497 2616 
L 1497 588 
Q 1497 294 1559 219 
Q 1659 103 1928 113 
L 1928 0 
L 206 0 
L 206 113 
Q 403 116 486 158 
Q 569 200 600 275 
Q 631 350 631 588 
L 631 2616 
L 206 2616 
L 206 2922 
L 631 2922 
L 631 3138 
L 628 3284 
Q 628 3734 958 4034 
Q 1288 4334 1850 4334 
Q 2234 4334 2420 4190 
Q 2606 4047 2606 3872 
Q 2606 3731 2490 3628 
Q 2375 3525 2184 3525 
Q 2022 3525 1926 3609 
Q 1831 3694 1831 3797 
Q 1831 3825 1850 3913 
Q 1863 3966 1863 4013 
Q 1863 4078 1825 4109 
Q 1775 4156 1703 4156 
Q 1613 4156 1552 4081 
Q 1491 4006 1491 3841 
L 1497 3294 
L 1497 2922 
L 1928 2922 
L 1928 2616 
L 1497 2616 
z
" transform="scale(0.015625)"/>
      <path id="TimesNewRomanPS-BoldMT-70" d="M 1347 297 
L 1347 -791 
Q 1347 -1016 1383 -1097 
Q 1419 -1178 1494 -1215 
Q 1569 -1253 1788 -1253 
L 1788 -1369 
L 122 -1369 
L 122 -1253 
Q 316 -1247 409 -1144 
Q 472 -1072 472 -772 
L 472 2313 
Q 472 2622 400 2708 
Q 328 2794 122 2806 
L 122 2922 
L 1347 2922 
L 1347 2538 
Q 1500 2763 1659 2863 
Q 1888 3009 2156 3009 
Q 2478 3009 2742 2806 
Q 3006 2603 3143 2245 
Q 3281 1888 3281 1475 
Q 3281 1031 3139 664 
Q 2997 297 2726 104 
Q 2456 -88 2125 -88 
Q 1884 -88 1675 19 
Q 1519 100 1347 297 
z
M 1347 613 
Q 1616 231 1922 231 
Q 2091 231 2200 409 
Q 2363 672 2363 1409 
Q 2363 2166 2184 2444 
Q 2066 2628 1866 2628 
Q 1550 2628 1347 2172 
L 1347 613 
z
" transform="scale(0.015625)"/>
      <path id="TimesNewRomanPS-BoldMT-6c" d="M 1359 4238 
L 1359 606 
Q 1359 297 1431 211 
Q 1503 125 1713 113 
L 1713 0 
L 134 0 
L 134 113 
Q 328 119 422 225 
Q 484 297 484 606 
L 484 3631 
Q 484 3938 412 4023 
Q 341 4109 134 4122 
L 134 4238 
L 1359 4238 
z
" transform="scale(0.015625)"/>
      <path id="TimesNewRomanPS-BoldMT-61" d="M 1828 431 
Q 1294 -41 869 -41 
Q 619 -41 453 123 
Q 288 288 288 534 
Q 288 869 575 1136 
Q 863 1403 1828 1847 
L 1828 2141 
Q 1828 2472 1792 2558 
Q 1756 2644 1656 2708 
Q 1556 2772 1431 2772 
Q 1228 2772 1097 2681 
Q 1016 2625 1016 2550 
Q 1016 2484 1103 2388 
Q 1222 2253 1222 2128 
Q 1222 1975 1108 1867 
Q 994 1759 809 1759 
Q 613 1759 480 1878 
Q 347 1997 347 2156 
Q 347 2381 525 2586 
Q 703 2791 1022 2900 
Q 1341 3009 1684 3009 
Q 2100 3009 2342 2832 
Q 2584 2656 2656 2450 
Q 2700 2319 2700 1847 
L 2700 713 
Q 2700 513 2715 461 
Q 2731 409 2762 384 
Q 2794 359 2834 359 
Q 2916 359 3000 475 
L 3094 400 
Q 2938 169 2770 64 
Q 2603 -41 2391 -41 
Q 2141 -41 2000 76 
Q 1859 194 1828 431 
z
M 1828 659 
L 1828 1638 
Q 1450 1416 1266 1163 
Q 1144 994 1144 822 
Q 1144 678 1247 569 
Q 1325 484 1466 484 
Q 1622 484 1828 659 
z
" transform="scale(0.015625)"/>
      <path id="TimesNewRomanPS-BoldMT-74" d="M 1375 3991 
L 1375 2922 
L 2069 2922 
L 2069 2613 
L 1375 2613 
L 1375 809 
Q 1375 556 1398 482 
Q 1422 409 1481 364 
Q 1541 319 1591 319 
Q 1794 319 1975 628 
L 2069 559 
Q 1816 -41 1247 -41 
Q 969 -41 776 114 
Q 584 269 531 459 
Q 500 566 500 1034 
L 500 2613 
L 119 2613 
L 119 2722 
Q 513 3000 789 3306 
Q 1066 3613 1272 3991 
L 1375 3991 
z
" transform="scale(0.015625)"/>
      <path id="TimesNewRomanPS-BoldMT-69" d="M 919 4338 
Q 1122 4338 1262 4195 
Q 1403 4053 1403 3853 
Q 1403 3653 1261 3512 
Q 1119 3372 919 3372 
Q 719 3372 578 3512 
Q 438 3653 438 3853 
Q 438 4053 578 4195 
Q 719 4338 919 4338 
z
M 1356 2922 
L 1356 606 
Q 1356 297 1428 211 
Q 1500 125 1709 113 
L 1709 0 
L 131 0 
L 131 113 
Q 325 119 419 225 
Q 481 297 481 606 
L 481 2313 
Q 481 2622 409 2708 
Q 338 2794 131 2806 
L 131 2922 
L 1356 2922 
z
" transform="scale(0.015625)"/>
      <path id="TimesNewRomanPS-BoldMT-63" d="M 2600 753 
L 2697 678 
Q 2491 291 2183 101 
Q 1875 -88 1528 -88 
Q 944 -88 594 353 
Q 244 794 244 1413 
Q 244 2009 563 2463 
Q 947 3009 1622 3009 
Q 2075 3009 2342 2781 
Q 2609 2553 2609 2272 
Q 2609 2094 2501 1987 
Q 2394 1881 2219 1881 
Q 2034 1881 1914 2003 
Q 1794 2125 1766 2438 
Q 1747 2634 1675 2713 
Q 1603 2791 1506 2791 
Q 1356 2791 1250 2631 
Q 1088 2391 1088 1894 
Q 1088 1481 1219 1104 
Q 1350 728 1578 544 
Q 1750 409 1984 409 
Q 2138 409 2275 481 
Q 2413 553 2600 753 
z
" transform="scale(0.015625)"/>
      <path id="TimesNewRomanPS-BoldMT-6e" d="M 1409 2922 
L 1409 2544 
Q 1634 2788 1840 2898 
Q 2047 3009 2284 3009 
Q 2569 3009 2756 2851 
Q 2944 2694 3006 2459 
Q 3056 2281 3056 1775 
L 3056 638 
Q 3056 300 3117 217 
Q 3178 134 3372 113 
L 3372 0 
L 1894 0 
L 1894 113 
Q 2059 134 2131 250 
Q 2181 328 2181 638 
L 2181 1938 
Q 2181 2297 2153 2390 
Q 2125 2484 2058 2536 
Q 1991 2588 1909 2588 
Q 1641 2588 1409 2203 
L 1409 638 
Q 1409 309 1470 221 
Q 1531 134 1697 113 
L 1697 0 
L 219 0 
L 219 113 
Q 403 131 481 231 
Q 534 300 534 638 
L 534 2288 
Q 534 2619 473 2700 
Q 413 2781 219 2806 
L 219 2922 
L 1409 2922 
z
" transform="scale(0.015625)"/>
      <path id="TimesNewRomanPS-BoldMT-67" d="M 2091 2888 
L 3075 2888 
L 3075 2544 
L 2516 2544 
Q 2669 2391 2728 2266 
Q 2803 2097 2803 1913 
Q 2803 1600 2629 1370 
Q 2456 1141 2157 1011 
Q 1859 881 1628 881 
Q 1609 881 1253 897 
Q 1113 897 1017 805 
Q 922 713 922 584 
Q 922 472 1008 400 
Q 1094 328 1288 328 
L 1828 334 
Q 2484 334 2731 191 
Q 3084 -9 3084 -425 
Q 3084 -691 2921 -908 
Q 2759 -1125 2494 -1228 
Q 2091 -1381 1566 -1381 
Q 1172 -1381 847 -1304 
Q 522 -1228 381 -1092 
Q 241 -956 241 -806 
Q 241 -663 348 -548 
Q 456 -434 750 -356 
Q 344 -156 344 200 
Q 344 416 509 619 
Q 675 822 1034 972 
Q 616 1125 428 1375 
Q 241 1625 241 1953 
Q 241 2381 591 2695 
Q 941 3009 1491 3009 
Q 1781 3009 2091 2888 
z
M 1550 2816 
Q 1369 2816 1244 2633 
Q 1119 2450 1119 1875 
Q 1119 1409 1242 1236 
Q 1366 1063 1534 1063 
Q 1722 1063 1847 1234 
Q 1972 1406 1972 1903 
Q 1972 2463 1831 2666 
Q 1731 2816 1550 2816 
z
M 1366 -431 
Q 1047 -431 944 -484 
Q 766 -581 766 -747 
Q 766 -906 950 -1036 
Q 1134 -1166 1644 -1166 
Q 2078 -1166 2326 -1050 
Q 2575 -934 2575 -725 
Q 2575 -647 2528 -594 
Q 2444 -500 2273 -465 
Q 2103 -431 1366 -431 
z
" transform="scale(0.015625)"/>
      <path id="TimesNewRomanPS-BoldMT-76" d="M 1534 -88 
L 550 2178 
Q 372 2588 272 2697 
Q 200 2778 59 2806 
L 59 2922 
L 1613 2922 
L 1613 2806 
Q 1466 2806 1413 2753 
Q 1338 2684 1338 2591 
Q 1338 2475 1475 2156 
L 1956 1059 
L 2341 2006 
Q 2506 2413 2506 2581 
Q 2506 2678 2436 2739 
Q 2366 2800 2188 2806 
L 2188 2922 
L 3144 2922 
L 3144 2806 
Q 3006 2788 2918 2703 
Q 2831 2619 2656 2206 
L 1681 -88 
L 1534 -88 
z
" transform="scale(0.015625)"/>
      <path id="TimesNewRomanPS-BoldMT-73" d="M 2063 3003 
L 2109 2006 
L 2003 2006 
Q 1813 2450 1608 2612 
Q 1403 2775 1200 2775 
Q 1072 2775 981 2689 
Q 891 2603 891 2491 
Q 891 2406 953 2328 
Q 1053 2200 1512 1889 
Q 1972 1578 2117 1361 
Q 2263 1144 2263 875 
Q 2263 631 2141 397 
Q 2019 163 1797 37 
Q 1575 -88 1306 -88 
Q 1097 -88 747 44 
Q 653 78 619 78 
Q 516 78 447 -78 
L 344 -78 
L 294 972 
L 400 972 
Q 541 559 786 353 
Q 1031 147 1250 147 
Q 1400 147 1495 239 
Q 1591 331 1591 463 
Q 1591 613 1497 722 
Q 1403 831 1078 1053 
Q 600 1384 459 1559 
Q 253 1816 253 2125 
Q 253 2463 486 2736 
Q 719 3009 1159 3009 
Q 1397 3009 1619 2894 
Q 1703 2847 1756 2847 
Q 1813 2847 1847 2870 
Q 1881 2894 1956 3003 
L 2063 3003 
z
" transform="scale(0.015625)"/>
      <path id="TimesNewRomanPS-BoldMT-28" d="M 2056 4334 
L 2056 4191 
Q 1731 3978 1578 3775 
Q 1366 3494 1247 3053 
Q 1097 2506 1097 1525 
Q 1097 600 1233 87 
Q 1369 -425 1603 -741 
Q 1766 -959 2056 -1125 
L 2056 -1281 
Q 1303 -1028 779 -248 
Q 256 531 256 1544 
Q 256 2544 778 3314 
Q 1300 4084 2056 4334 
z
" transform="scale(0.015625)"/>
      <path id="TimesNewRomanPS-BoldMT-29" d="M 78 -1281 
L 78 -1138 
Q 403 -922 556 -719 
Q 766 -438 888 0 
Q 1038 550 1038 1531 
Q 1038 2456 902 2967 
Q 766 3478 531 3794 
Q 369 4013 78 4178 
L 78 4334 
Q 831 4081 1354 3301 
Q 1878 2522 1878 1509 
Q 1878 513 1354 -257 
Q 831 -1028 78 -1281 
z
" transform="scale(0.015625)"/>
     </defs>
     <use xlink:href="#TimesNewRomanPS-BoldMT-4e"/>
     <use xlink:href="#TimesNewRomanPS-BoldMT-75" x="72.216797"/>
     <use xlink:href="#TimesNewRomanPS-BoldMT-6d" x="127.832031"/>
     <use xlink:href="#TimesNewRomanPS-BoldMT-62" x="211.132812"/>
     <use xlink:href="#TimesNewRomanPS-BoldMT-65" x="266.748047"/>
     <use xlink:href="#TimesNewRomanPS-BoldMT-72" x="311.132812"/>
     <use xlink:href="#TimesNewRomanPS-BoldMT-20" x="353.767578"/>
     <use xlink:href="#TimesNewRomanPS-BoldMT-6f" x="378.767578"/>
     <use xlink:href="#TimesNewRomanPS-BoldMT-66" x="428.767578"/>
     <use xlink:href="#TimesNewRomanPS-BoldMT-20" x="462.068359"/>
     <use xlink:href="#TimesNewRomanPS-BoldMT-70" x="487.068359"/>
     <use xlink:href="#TimesNewRomanPS-BoldMT-65" x="542.683594"/>
     <use xlink:href="#TimesNewRomanPS-BoldMT-6f" x="587.068359"/>
     <use xlink:href="#TimesNewRomanPS-BoldMT-70" x="637.068359"/>
     <use xlink:href="#TimesNewRomanPS-BoldMT-6c" x="692.683594"/>
     <use xlink:href="#TimesNewRomanPS-BoldMT-65" x="720.466797"/>
     <use xlink:href="#TimesNewRomanPS-BoldMT-20" x="764.851562"/>
     <use xlink:href="#TimesNewRomanPS-BoldMT-70" x="789.851562"/>
     <use xlink:href="#TimesNewRomanPS-BoldMT-61" x="845.466797"/>
     <use xlink:href="#TimesNewRomanPS-BoldMT-72" x="895.466797"/>
     <use xlink:href="#TimesNewRomanPS-BoldMT-74" x="939.851562"/>
     <use xlink:href="#TimesNewRomanPS-BoldMT-69" x="973.152344"/>
     <use xlink:href="#TimesNewRomanPS-BoldMT-63" x="1000.935547"/>
     <use xlink:href="#TimesNewRomanPS-BoldMT-69" x="1045.320312"/>
     <use xlink:href="#TimesNewRomanPS-BoldMT-70" x="1073.103516"/>
     <use xlink:href="#TimesNewRomanPS-BoldMT-61" x="1128.71875"/>
     <use xlink:href="#TimesNewRomanPS-BoldMT-74" x="1178.71875"/>
     <use xlink:href="#TimesNewRomanPS-BoldMT-69" x="1212.019531"/>
     <use xlink:href="#TimesNewRomanPS-BoldMT-6e" x="1239.802734"/>
     <use xlink:href="#TimesNewRomanPS-BoldMT-67" x="1295.417969"/>
     <use xlink:href="#TimesNewRomanPS-BoldMT-20" x="1345.417969"/>
     <use xlink:href="#TimesNewRomanPS-BoldMT-69" x="1370.417969"/>
     <use xlink:href="#TimesNewRomanPS-BoldMT-6e" x="1398.201172"/>
     <use xlink:href="#TimesNewRomanPS-BoldMT-20" x="1453.816406"/>
     <use xlink:href="#TimesNewRomanPS-BoldMT-63" x="1478.816406"/>
     <use xlink:href="#TimesNewRomanPS-BoldMT-75" x="1523.201172"/>
     <use xlink:href="#TimesNewRomanPS-BoldMT-6c" x="1578.816406"/>
     <use xlink:href="#TimesNewRomanPS-BoldMT-74" x="1606.599609"/>
     <use xlink:href="#TimesNewRomanPS-BoldMT-75" x="1639.900391"/>
     <use xlink:href="#TimesNewRomanPS-BoldMT-72" x="1695.515625"/>
     <use xlink:href="#TimesNewRomanPS-BoldMT-61" x="1739.900391"/>
     <use xlink:href="#TimesNewRomanPS-BoldMT-6c" x="1789.900391"/>
     <use xlink:href="#TimesNewRomanPS-BoldMT-20" x="1817.683594"/>
     <use xlink:href="#TimesNewRomanPS-BoldMT-61" x="1842.683594"/>
     <use xlink:href="#TimesNewRomanPS-BoldMT-63" x="1892.683594"/>
     <use xlink:href="#TimesNewRomanPS-BoldMT-74" x="1937.068359"/>
     <use xlink:href="#TimesNewRomanPS-BoldMT-69" x="1970.369141"/>
     <use xlink:href="#TimesNewRomanPS-BoldMT-76" x="1998.152344"/>
     <use xlink:href="#TimesNewRomanPS-BoldMT-69" x="2048.152344"/>
     <use xlink:href="#TimesNewRomanPS-BoldMT-74" x="2075.935547"/>
     <use xlink:href="#TimesNewRomanPS-BoldMT-69" x="2109.236328"/>
     <use xlink:href="#TimesNewRomanPS-BoldMT-65" x="2137.019531"/>
     <use xlink:href="#TimesNewRomanPS-BoldMT-73" x="2181.404297"/>
     <use xlink:href="#TimesNewRomanPS-BoldMT-20" x="2220.320312"/>
     <use xlink:href="#TimesNewRomanPS-BoldMT-61" x="2245.320312"/>
     <use xlink:href="#TimesNewRomanPS-BoldMT-63" x="2295.320312"/>
     <use xlink:href="#TimesNewRomanPS-BoldMT-72" x="2339.705078"/>
     <use xlink:href="#TimesNewRomanPS-BoldMT-6f" x="2382.339844"/>
     <use xlink:href="#TimesNewRomanPS-BoldMT-73" x="2432.339844"/>
     <use xlink:href="#TimesNewRomanPS-BoldMT-73" x="2471.255859"/>
     <use xlink:href="#TimesNewRomanPS-BoldMT-20" x="2510.171875"/>
     <use xlink:href="#TimesNewRomanPS-BoldMT-72" x="2535.171875"/>
     <use xlink:href="#TimesNewRomanPS-BoldMT-65" x="2577.806641"/>
     <use xlink:href="#TimesNewRomanPS-BoldMT-67" x="2622.191406"/>
     <use xlink:href="#TimesNewRomanPS-BoldMT-69" x="2672.191406"/>
     <use xlink:href="#TimesNewRomanPS-BoldMT-6f" x="2699.974609"/>
     <use xlink:href="#TimesNewRomanPS-BoldMT-6e" x="2749.974609"/>
     <use xlink:href="#TimesNewRomanPS-BoldMT-73" x="2805.589844"/>
     <use xlink:href="#TimesNewRomanPS-BoldMT-20" x="2844.505859"/>
     <use xlink:href="#TimesNewRomanPS-BoldMT-28" x="2869.505859"/>
     <use xlink:href="#TimesNewRomanPS-BoldMT-6e" x="2902.806641"/>
     <use xlink:href="#TimesNewRomanPS-BoldMT-75" x="2958.421875"/>
     <use xlink:href="#TimesNewRomanPS-BoldMT-6d" x="3014.037109"/>
     <use xlink:href="#TimesNewRomanPS-BoldMT-62" x="3097.337891"/>
     <use xlink:href="#TimesNewRomanPS-BoldMT-65" x="3152.953125"/>
     <use xlink:href="#TimesNewRomanPS-BoldMT-72" x="3197.337891"/>
     <use xlink:href="#TimesNewRomanPS-BoldMT-29" x="3241.722656"/>
    </g>
   </g>
  </g>
 </g>
 <defs>
  <clipPath id="p73de78c966">
   <rect x="80.8" y="30.045" width="376.8" height="231.273486"/>
  </clipPath>
 </defs>
</svg>
