<?xml version="1.0" encoding="utf-8" standalone="no"?>
<!DOCTYPE svg PUBLIC "-//W3C//DTD SVG 1.1//EN"
  "http://www.w3.org/Graphics/SVG/1.1/DTD/svg11.dtd">
<svg xmlns:xlink="http://www.w3.org/1999/xlink" width="538.4pt" height="319.95617pt" viewBox="0 0 538.4 319.95617" xmlns="http://www.w3.org/2000/svg" version="1.1">
 <metadata>
  <rdf:RDF xmlns:dc="http://purl.org/dc/elements/1.1/" xmlns:cc="http://creativecommons.org/ns#" xmlns:rdf="http://www.w3.org/1999/02/22-rdf-syntax-ns#">
   <cc:Work>
    <dc:type rdf:resource="http://purl.org/dc/dcmitype/StillImage"/>
    <dc:date>2025-05-26T17:56:41.207760</dc:date>
    <dc:format>image/svg+xml</dc:format>
    <dc:creator>
     <cc:Agent>
      <dc:title>Matplotlib v3.7.2, https://matplotlib.org/</dc:title>
     </cc:Agent>
    </dc:creator>
   </cc:Work>
  </rdf:RDF>
 </metadata>
 <defs>
  <style type="text/css">*{stroke-linejoin: round; stroke-linecap: butt}</style>
 </defs>
 <g id="figure_1">
  <g id="patch_1">
   <path d="M 0 319.95617 
L 538.4 319.95617 
L 538.4 0 
L 0 0 
z
" style="fill: #ffffff"/>
  </g>
  <g id="axes_1">
   <g id="patch_2">
    <path d="M 80.8 259.854775 
L 457.6 259.854775 
L 457.6 30.045 
L 80.8 30.045 
z
" style="fill: #ffffff"/>
   </g>
   <g id="PolyCollection_1">
    <defs>
     <path id="m7bacd260b5" d="M 148.483524 -80.329106 
L 107.316476 -80.329106 
L 105.186066 -80.9999 
L 103.076933 -81.670695 
L 101.028144 -82.341489 
L 99.078355 -83.012283 
L 97.264086 -83.683078 
L 95.618052 -84.353872 
L 94.167672 -85.024666 
L 92.933855 -85.695461 
L 91.930162 -86.366255 
L 91.162392 -87.037049 
L 90.62862 -87.707843 
L 90.319674 -88.378638 
L 90.22 -89.049432 
L 90.308829 -89.720226 
L 90.561553 -90.391021 
L 90.951198 -91.061815 
L 91.449862 -91.732609 
L 92.030045 -92.403403 
L 92.66577 -93.074198 
L 93.33345 -93.744992 
L 94.012485 -94.415786 
L 94.685583 -95.086581 
L 95.338857 -95.757375 
L 95.961732 -96.428169 
L 96.546729 -97.098964 
L 97.089196 -97.769758 
L 97.587009 -98.440552 
L 98.040312 -99.111346 
L 98.451289 -99.782141 
L 98.823975 -100.452935 
L 99.164091 -101.123729 
L 99.478877 -101.794524 
L 99.776879 -102.465318 
L 100.067684 -103.136112 
L 100.361565 -103.806907 
L 100.669043 -104.477701 
L 101.000375 -105.148495 
L 101.364998 -105.819289 
L 101.770968 -106.490084 
L 102.224451 -107.160878 
L 102.7293 -107.831672 
L 103.286787 -108.502467 
L 103.895504 -109.173261 
L 104.551462 -109.844055 
L 105.248384 -110.514849 
L 105.978176 -111.185644 
L 106.731524 -111.856438 
L 107.498584 -112.527232 
L 108.269685 -113.198027 
L 109.035996 -113.868821 
L 109.790083 -114.539615 
L 110.526325 -115.21041 
L 111.241143 -115.881204 
L 111.933029 -116.551998 
L 112.602389 -117.222792 
L 113.251218 -117.893587 
L 113.882641 -118.564381 
L 114.50039 -119.235175 
L 115.108244 -119.90597 
L 115.709517 -120.576764 
L 116.306615 -121.247558 
L 116.90072 -121.918353 
L 117.491612 -122.589147 
L 118.077646 -123.259941 
L 118.655864 -123.930735 
L 119.222238 -124.60153 
L 119.771993 -125.272324 
L 120.299998 -125.943118 
L 120.801158 -126.613913 
L 121.270797 -127.284707 
L 121.704977 -127.955501 
L 122.100745 -128.626295 
L 122.456289 -129.29709 
L 122.770995 -129.967884 
L 123.045424 -130.638678 
L 123.281198 -131.309473 
L 123.480842 -131.980267 
L 123.647579 -132.651061 
L 123.785125 -133.321856 
L 123.897476 -133.99265 
L 123.988733 -134.663444 
L 124.06295 -135.334238 
L 124.124033 -136.005033 
L 124.175673 -136.675827 
L 124.221314 -137.346621 
L 124.264148 -138.017416 
L 124.307123 -138.68821 
L 124.352955 -139.359004 
L 124.404129 -140.029799 
L 124.462892 -140.700593 
L 124.531218 -141.371387 
L 124.610769 -142.042181 
L 124.702834 -142.712976 
L 124.808267 -143.38377 
L 124.927432 -144.054564 
L 125.060156 -144.725359 
L 125.205713 -145.396153 
L 125.362833 -146.066947 
L 125.52974 -146.737742 
L 130.27026 -146.737742 
L 130.27026 -146.737742 
L 130.437167 -146.066947 
L 130.594287 -145.396153 
L 130.739844 -144.725359 
L 130.872568 -144.054564 
L 130.991733 -143.38377 
L 131.097166 -142.712976 
L 131.189231 -142.042181 
L 131.268782 -141.371387 
L 131.337108 -140.700593 
L 131.395871 -140.029799 
L 131.447045 -139.359004 
L 131.492877 -138.68821 
L 131.535852 -138.017416 
L 131.578686 -137.346621 
L 131.624327 -136.675827 
L 131.675967 -136.005033 
L 131.73705 -135.334238 
L 131.811267 -134.663444 
L 131.902524 -133.99265 
L 132.014875 -133.321856 
L 132.152421 -132.651061 
L 132.319158 -131.980267 
L 132.518802 -131.309473 
L 132.754576 -130.638678 
L 133.029005 -129.967884 
L 133.343711 -129.29709 
L 133.699255 -128.626295 
L 134.095023 -127.955501 
L 134.529203 -127.284707 
L 134.998842 -126.613913 
L 135.500002 -125.943118 
L 136.028007 -125.272324 
L 136.577762 -124.60153 
L 137.144136 -123.930735 
L 137.722354 -123.259941 
L 138.308388 -122.589147 
L 138.89928 -121.918353 
L 139.493385 -121.247558 
L 140.090483 -120.576764 
L 140.691756 -119.90597 
L 141.29961 -119.235175 
L 141.917359 -118.564381 
L 142.548782 -117.893587 
L 143.197611 -117.222792 
L 143.866971 -116.551998 
L 144.558857 -115.881204 
L 145.273675 -115.21041 
L 146.009917 -114.539615 
L 146.764004 -113.868821 
L 147.530315 -113.198027 
L 148.301416 -112.527232 
L 149.068476 -111.856438 
L 149.821824 -111.185644 
L 150.551616 -110.514849 
L 151.248538 -109.844055 
L 151.904496 -109.173261 
L 152.513213 -108.502467 
L 153.0707 -107.831672 
L 153.575549 -107.160878 
L 154.029032 -106.490084 
L 154.435002 -105.819289 
L 154.799625 -105.148495 
L 155.130957 -104.477701 
L 155.438435 -103.806907 
L 155.732316 -103.136112 
L 156.023121 -102.465318 
L 156.321123 -101.794524 
L 156.635909 -101.123729 
L 156.976025 -100.452935 
L 157.348711 -99.782141 
L 157.759688 -99.111346 
L 158.212991 -98.440552 
L 158.710804 -97.769758 
L 159.253271 -97.098964 
L 159.838268 -96.428169 
L 160.461143 -95.757375 
L 161.114417 -95.086581 
L 161.787515 -94.415786 
L 162.46655 -93.744992 
L 163.13423 -93.074198 
L 163.769955 -92.403403 
L 164.350138 -91.732609 
L 164.848802 -91.061815 
L 165.238447 -90.391021 
L 165.491171 -89.720226 
L 165.58 -89.049432 
L 165.480326 -88.378638 
L 165.17138 -87.707843 
L 164.637608 -87.037049 
L 163.869838 -86.366255 
L 162.866145 -85.695461 
L 161.632328 -85.024666 
L 160.181948 -84.353872 
L 158.535914 -83.683078 
L 156.721645 -83.012283 
L 154.771856 -82.341489 
L 152.723067 -81.670695 
L 150.613934 -80.9999 
L 148.483524 -80.329106 
z
" style="stroke: #000000; stroke-opacity: 0.7"/>
    </defs>
    <g clip-path="url(#pc1a1d4a748)">
     <use xlink:href="#m7bacd260b5" x="0" y="319.95617" style="fill: #ffd92f; fill-opacity: 0.7; stroke: #000000; stroke-opacity: 0.7"/>
    </g>
   </g>
   <g id="PolyCollection_2">
    <defs>
     <path id="m3c946f8ba4" d="M 233.980791 -130.674031 
L 210.219209 -130.674031 
L 208.345559 -131.983893 
L 206.365977 -133.293755 
L 204.310232 -134.603617 
L 202.21226 -135.913478 
L 200.108567 -137.22334 
L 198.036427 -138.533202 
L 196.032026 -139.843064 
L 194.128734 -141.152926 
L 192.355666 -142.462788 
L 190.736659 -143.772649 
L 189.289727 -145.082511 
L 188.027028 -146.392373 
L 186.955265 -147.702235 
L 186.07644 -149.012097 
L 185.388807 -150.321959 
L 184.887888 -151.63182 
L 184.567401 -152.941682 
L 184.42 -154.251544 
L 184.437749 -155.561406 
L 184.612331 -156.871268 
L 184.935018 -158.18113 
L 185.396468 -159.490991 
L 185.986466 -160.800853 
L 186.693697 -162.110715 
L 187.505654 -163.420577 
L 188.408728 -164.730439 
L 189.388533 -166.040301 
L 190.430405 -167.350162 
L 191.520056 -168.660024 
L 192.644258 -169.969886 
L 193.791481 -171.279748 
L 194.952358 -172.58961 
L 196.119931 -173.899472 
L 197.289609 -175.209333 
L 198.458858 -176.519195 
L 199.62666 -177.829057 
L 200.792834 -179.138919 
L 201.957294 -180.448781 
L 203.119378 -181.758643 
L 204.277311 -183.068504 
L 205.427875 -184.378366 
L 206.566305 -185.688228 
L 207.686396 -186.99809 
L 208.780784 -188.307952 
L 209.841327 -189.617814 
L 210.859542 -190.927676 
L 211.827004 -192.237537 
L 212.735709 -193.547399 
L 213.578342 -194.857261 
L 214.348482 -196.167123 
L 215.040754 -197.476985 
L 215.650943 -198.786847 
L 216.176121 -200.096708 
L 216.614784 -201.40657 
L 216.967008 -202.716432 
L 217.234617 -204.026294 
L 217.421335 -205.336156 
L 217.532884 -206.646018 
L 217.577 -207.955879 
L 217.563333 -209.265741 
L 217.503205 -210.575603 
L 217.409243 -211.885465 
L 217.294866 -213.195327 
L 217.173696 -214.505189 
L 217.058904 -215.81505 
L 216.962559 -217.124912 
L 216.895044 -218.434774 
L 216.864567 -219.744636 
L 216.876833 -221.054498 
L 216.934883 -222.36436 
L 217.039129 -223.674221 
L 217.187552 -224.984083 
L 217.376053 -226.293945 
L 217.598916 -227.603807 
L 217.84932 -228.913669 
L 218.11987 -230.223531 
L 218.403085 -231.533392 
L 218.691814 -232.843254 
L 218.979546 -234.153116 
L 219.26062 -235.462978 
L 219.530309 -236.77284 
L 219.78483 -238.082702 
L 220.021273 -239.392563 
L 220.237504 -240.702425 
L 220.432057 -242.012287 
L 220.604042 -243.322149 
L 220.753095 -244.632011 
L 220.879357 -245.941873 
L 220.983491 -247.251734 
L 221.066714 -248.561596 
L 221.13082 -249.871458 
L 221.178177 -251.18132 
L 221.211681 -252.491182 
L 221.234643 -253.801044 
L 221.250633 -255.110905 
L 221.263265 -256.420767 
L 221.275967 -257.730629 
L 221.291743 -259.040491 
L 221.312978 -260.350353 
L 222.887022 -260.350353 
L 222.887022 -260.350353 
L 222.908257 -259.040491 
L 222.924033 -257.730629 
L 222.936735 -256.420767 
L 222.949367 -255.110905 
L 222.965357 -253.801044 
L 222.988319 -252.491182 
L 223.021823 -251.18132 
L 223.06918 -249.871458 
L 223.133286 -248.561596 
L 223.216509 -247.251734 
L 223.320643 -245.941873 
L 223.446905 -244.632011 
L 223.595958 -243.322149 
L 223.767943 -242.012287 
L 223.962496 -240.702425 
L 224.178727 -239.392563 
L 224.41517 -238.082702 
L 224.669691 -236.77284 
L 224.93938 -235.462978 
L 225.220454 -234.153116 
L 225.508186 -232.843254 
L 225.796915 -231.533392 
L 226.08013 -230.223531 
L 226.35068 -228.913669 
L 226.601084 -227.603807 
L 226.823947 -226.293945 
L 227.012448 -224.984083 
L 227.160871 -223.674221 
L 227.265117 -222.36436 
L 227.323167 -221.054498 
L 227.335433 -219.744636 
L 227.304956 -218.434774 
L 227.237441 -217.124912 
L 227.141096 -215.81505 
L 227.026304 -214.505189 
L 226.905134 -213.195327 
L 226.790757 -211.885465 
L 226.696795 -210.575603 
L 226.636667 -209.265741 
L 226.623 -207.955879 
L 226.667116 -206.646018 
L 226.778665 -205.336156 
L 226.965383 -204.026294 
L 227.232992 -202.716432 
L 227.585216 -201.40657 
L 228.023879 -200.096708 
L 228.549057 -198.786847 
L 229.159246 -197.476985 
L 229.851518 -196.167123 
L 230.621658 -194.857261 
L 231.464291 -193.547399 
L 232.372996 -192.237537 
L 233.340458 -190.927676 
L 234.358673 -189.617814 
L 235.419216 -188.307952 
L 236.513604 -186.99809 
L 237.633695 -185.688228 
L 238.772125 -184.378366 
L 239.922689 -183.068504 
L 241.080622 -181.758643 
L 242.242706 -180.448781 
L 243.407166 -179.138919 
L 244.57334 -177.829057 
L 245.741142 -176.519195 
L 246.910391 -175.209333 
L 248.080069 -173.899472 
L 249.247642 -172.58961 
L 250.408519 -171.279748 
L 251.555742 -169.969886 
L 252.679944 -168.660024 
L 253.769595 -167.350162 
L 254.811467 -166.040301 
L 255.791272 -164.730439 
L 256.694346 -163.420577 
L 257.506303 -162.110715 
L 258.213534 -160.800853 
L 258.803532 -159.490991 
L 259.264982 -158.18113 
L 259.587669 -156.871268 
L 259.762251 -155.561406 
L 259.78 -154.251544 
L 259.632599 -152.941682 
L 259.312112 -151.63182 
L 258.811193 -150.321959 
L 258.12356 -149.012097 
L 257.244735 -147.702235 
L 256.172972 -146.392373 
L 254.910273 -145.082511 
L 253.463341 -143.772649 
L 251.844334 -142.462788 
L 250.071266 -141.152926 
L 248.167974 -139.843064 
L 246.163573 -138.533202 
L 244.091433 -137.22334 
L 241.98774 -135.913478 
L 239.889768 -134.603617 
L 237.834023 -133.293755 
L 235.854441 -131.983893 
L 233.980791 -130.674031 
z
" style="stroke: #000000; stroke-opacity: 0.7"/>
    </defs>
    <g clip-path="url(#pc1a1d4a748)">
     <use xlink:href="#m3c946f8ba4" x="0" y="319.95617" style="fill: #dbdb8d; fill-opacity: 0.7; stroke: #000000; stroke-opacity: 0.7"/>
    </g>
   </g>
   <g id="PolyCollection_3">
    <defs>
     <path id="m9b911832ec" d="M 336.73123 -98.008162 
L 295.86877 -98.008162 
L 294.206695 -99.783047 
L 292.585353 -101.557933 
L 291.025329 -103.332818 
L 289.54527 -105.107704 
L 288.161189 -106.882589 
L 286.88591 -108.657474 
L 285.728676 -110.43236 
L 284.694946 -112.207245 
L 283.786381 -113.982131 
L 283.001016 -115.757016 
L 282.333599 -117.531902 
L 281.776058 -119.306787 
L 281.318075 -121.081673 
L 280.947703 -122.856558 
L 280.652017 -124.631444 
L 280.417732 -126.406329 
L 280.23178 -128.181214 
L 280.081813 -129.9561 
L 279.956622 -131.730985 
L 279.846467 -133.505871 
L 279.743311 -135.280756 
L 279.640979 -137.055642 
L 279.535233 -138.830527 
L 279.423782 -140.605413 
L 279.306244 -142.380298 
L 279.184047 -144.155183 
L 279.060299 -145.930069 
L 278.939617 -147.704954 
L 278.827913 -149.47984 
L 278.732158 -151.254725 
L 278.660108 -153.029611 
L 278.62 -154.804496 
L 278.620231 -156.579382 
L 278.669017 -158.354267 
L 278.774044 -160.129153 
L 278.94213 -161.904038 
L 279.178907 -163.678923 
L 279.488532 -165.453809 
L 279.873457 -167.228694 
L 280.334258 -169.00358 
L 280.869547 -170.778465 
L 281.475962 -172.553351 
L 282.148255 -174.328236 
L 282.879461 -176.103122 
L 283.661163 -177.878007 
L 284.483814 -179.652892 
L 285.337124 -181.427778 
L 286.210483 -183.202663 
L 287.093395 -184.977549 
L 287.975897 -186.752434 
L 288.848949 -188.52732 
L 289.704766 -190.302205 
L 290.537078 -192.077091 
L 291.341298 -193.851976 
L 292.114602 -195.626862 
L 292.855908 -197.401747 
L 293.565766 -199.176632 
L 294.246162 -200.951518 
L 294.900259 -202.726403 
L 295.532077 -204.501289 
L 296.146152 -206.276174 
L 296.747175 -208.05106 
L 297.33965 -209.825945 
L 297.927574 -211.600831 
L 298.514168 -213.375716 
L 299.101666 -215.150601 
L 299.691179 -216.925487 
L 300.282631 -218.700372 
L 300.874772 -220.475258 
L 301.46527 -222.250143 
L 302.050865 -224.025029 
L 302.627578 -225.799914 
L 303.190965 -227.5748 
L 303.736391 -229.349685 
L 304.259323 -231.124571 
L 304.755605 -232.899456 
L 305.221716 -234.674341 
L 305.65499 -236.449227 
L 306.053792 -238.224112 
L 306.417631 -239.998998 
L 306.747217 -241.773883 
L 307.044454 -243.548769 
L 307.312371 -245.323654 
L 307.554991 -247.09854 
L 307.777158 -248.873425 
L 307.984314 -250.64831 
L 308.182253 -252.423196 
L 308.376857 -254.198081 
L 308.573827 -255.972967 
L 308.778427 -257.747852 
L 308.995253 -259.522738 
L 309.22804 -261.297623 
L 309.479507 -263.072509 
L 309.751262 -264.847394 
L 310.043766 -266.62228 
L 310.356344 -268.397165 
L 310.68726 -270.17205 
L 311.033839 -271.946936 
L 311.392624 -273.721821 
L 321.207376 -273.721821 
L 321.207376 -273.721821 
L 321.566161 -271.946936 
L 321.91274 -270.17205 
L 322.243656 -268.397165 
L 322.556234 -266.62228 
L 322.848738 -264.847394 
L 323.120493 -263.072509 
L 323.37196 -261.297623 
L 323.604747 -259.522738 
L 323.821573 -257.747852 
L 324.026173 -255.972967 
L 324.223143 -254.198081 
L 324.417747 -252.423196 
L 324.615686 -250.64831 
L 324.822842 -248.873425 
L 325.045009 -247.09854 
L 325.287629 -245.323654 
L 325.555546 -243.548769 
L 325.852783 -241.773883 
L 326.182369 -239.998998 
L 326.546208 -238.224112 
L 326.94501 -236.449227 
L 327.378284 -234.674341 
L 327.844395 -232.899456 
L 328.340677 -231.124571 
L 328.863609 -229.349685 
L 329.409035 -227.5748 
L 329.972422 -225.799914 
L 330.549135 -224.025029 
L 331.13473 -222.250143 
L 331.725228 -220.475258 
L 332.317369 -218.700372 
L 332.908821 -216.925487 
L 333.498334 -215.150601 
L 334.085832 -213.375716 
L 334.672426 -211.600831 
L 335.26035 -209.825945 
L 335.852825 -208.05106 
L 336.453848 -206.276174 
L 337.067923 -204.501289 
L 337.699741 -202.726403 
L 338.353838 -200.951518 
L 339.034234 -199.176632 
L 339.744092 -197.401747 
L 340.485398 -195.626862 
L 341.258702 -193.851976 
L 342.062922 -192.077091 
L 342.895234 -190.302205 
L 343.751051 -188.52732 
L 344.624103 -186.752434 
L 345.506605 -184.977549 
L 346.389517 -183.202663 
L 347.262876 -181.427778 
L 348.116186 -179.652892 
L 348.938837 -177.878007 
L 349.720539 -176.103122 
L 350.451745 -174.328236 
L 351.124038 -172.553351 
L 351.730453 -170.778465 
L 352.265742 -169.00358 
L 352.726543 -167.228694 
L 353.111468 -165.453809 
L 353.421093 -163.678923 
L 353.65787 -161.904038 
L 353.825956 -160.129153 
L 353.930983 -158.354267 
L 353.979769 -156.579382 
L 353.98 -154.804496 
L 353.939892 -153.029611 
L 353.867842 -151.254725 
L 353.772087 -149.47984 
L 353.660383 -147.704954 
L 353.539701 -145.930069 
L 353.415953 -144.155183 
L 353.293756 -142.380298 
L 353.176218 -140.605413 
L 353.064767 -138.830527 
L 352.959021 -137.055642 
L 352.856689 -135.280756 
L 352.753533 -133.505871 
L 352.643378 -131.730985 
L 352.518187 -129.9561 
L 352.36822 -128.181214 
L 352.182268 -126.406329 
L 351.947983 -124.631444 
L 351.652297 -122.856558 
L 351.281925 -121.081673 
L 350.823942 -119.306787 
L 350.266401 -117.531902 
L 349.598984 -115.757016 
L 348.813619 -113.982131 
L 347.905054 -112.207245 
L 346.871324 -110.43236 
L 345.71409 -108.657474 
L 344.438811 -106.882589 
L 343.05473 -105.107704 
L 341.574671 -103.332818 
L 340.014647 -101.557933 
L 338.393305 -99.783047 
L 336.73123 -98.008162 
z
" style="stroke: #000000; stroke-opacity: 0.7"/>
    </defs>
    <g clip-path="url(#pc1a1d4a748)">
     <use xlink:href="#m9b911832ec" x="0" y="319.95617" style="fill: #fc8d62; fill-opacity: 0.7; stroke: #000000; stroke-opacity: 0.7"/>
    </g>
   </g>
   <g id="PolyCollection_4">
    <defs>
     <path id="m22988e9706" d="M 423.665922 -70.547294 
L 397.334078 -70.547294 
L 395.854969 -72.657576 
L 394.335311 -74.767859 
L 392.791617 -76.878141 
L 391.241271 -78.988424 
L 389.701909 -81.098707 
L 388.190743 -83.208989 
L 386.723884 -85.319272 
L 385.31571 -87.429554 
L 383.978303 -89.539837 
L 382.721038 -91.65012 
L 381.550315 -93.760402 
L 380.469509 -95.870685 
L 379.479106 -97.980967 
L 378.577049 -100.09125 
L 377.759256 -102.201533 
L 377.020254 -104.311815 
L 376.353896 -106.422098 
L 375.754063 -108.53238 
L 375.215298 -110.642663 
L 374.733293 -112.752946 
L 374.305195 -114.863228 
L 373.929673 -116.973511 
L 373.60676 -119.083793 
L 373.337486 -121.194076 
L 373.123338 -123.304359 
L 372.965625 -125.414641 
L 372.864826 -127.524924 
L 372.82 -129.635206 
L 372.828348 -131.745489 
L 372.884983 -133.855772 
L 372.982957 -135.966054 
L 373.113546 -138.076337 
L 373.266789 -140.186619 
L 373.432224 -142.296902 
L 373.599742 -144.407185 
L 373.760484 -146.517467 
L 373.907677 -148.62775 
L 374.037313 -150.738032 
L 374.148602 -152.848315 
L 374.24414 -154.958598 
L 374.329777 -157.06888 
L 374.414182 -159.179163 
L 374.508157 -161.289445 
L 374.623761 -163.399728 
L 374.773339 -165.510011 
L 374.968531 -167.620293 
L 375.219382 -169.730576 
L 375.533608 -171.840858 
L 375.916098 -173.951141 
L 376.368669 -176.061424 
L 376.890102 -178.171706 
L 377.476411 -180.281989 
L 378.121316 -182.392271 
L 378.816862 -184.502554 
L 379.554096 -186.612837 
L 380.323749 -188.723119 
L 381.116854 -190.833402 
L 381.925246 -192.943684 
L 382.741937 -195.053967 
L 383.561319 -197.16425 
L 384.379242 -199.274532 
L 385.192952 -201.384815 
L 386.000947 -203.495097 
L 386.802761 -205.60538 
L 387.598728 -207.715663 
L 388.389739 -209.825945 
L 389.177014 -211.936228 
L 389.961906 -214.04651 
L 390.745729 -216.156793 
L 391.52962 -218.267075 
L 392.314418 -220.377358 
L 393.100568 -222.487641 
L 393.888026 -224.597923 
L 394.67619 -226.708206 
L 395.463841 -228.818488 
L 396.24911 -230.928771 
L 397.029474 -233.039054 
L 397.801799 -235.149336 
L 398.562415 -237.259619 
L 399.307253 -239.369901 
L 400.032013 -241.480184 
L 400.732373 -243.590467 
L 401.404212 -245.700749 
L 402.043842 -247.811032 
L 402.648222 -249.921314 
L 403.215135 -252.031597 
L 403.743323 -254.14188 
L 404.232553 -256.252162 
L 404.683617 -258.362445 
L 405.098271 -260.472727 
L 405.479104 -262.58301 
L 405.829356 -264.693293 
L 406.152707 -266.803575 
L 406.453038 -268.913858 
L 406.734198 -271.02414 
L 406.999786 -273.134423 
L 407.252962 -275.244706 
L 407.496309 -277.354988 
L 407.731745 -279.465271 
L 413.268255 -279.465271 
L 413.268255 -279.465271 
L 413.503691 -277.354988 
L 413.747038 -275.244706 
L 414.000214 -273.134423 
L 414.265802 -271.02414 
L 414.546962 -268.913858 
L 414.847293 -266.803575 
L 415.170644 -264.693293 
L 415.520896 -262.58301 
L 415.901729 -260.472727 
L 416.316383 -258.362445 
L 416.767447 -256.252162 
L 417.256677 -254.14188 
L 417.784865 -252.031597 
L 418.351778 -249.921314 
L 418.956158 -247.811032 
L 419.595788 -245.700749 
L 420.267627 -243.590467 
L 420.967987 -241.480184 
L 421.692747 -239.369901 
L 422.437585 -237.259619 
L 423.198201 -235.149336 
L 423.970526 -233.039054 
L 424.75089 -230.928771 
L 425.536159 -228.818488 
L 426.32381 -226.708206 
L 427.111974 -224.597923 
L 427.899432 -222.487641 
L 428.685582 -220.377358 
L 429.47038 -218.267075 
L 430.254271 -216.156793 
L 431.038094 -214.04651 
L 431.822986 -211.936228 
L 432.610261 -209.825945 
L 433.401272 -207.715663 
L 434.197239 -205.60538 
L 434.999053 -203.495097 
L 435.807048 -201.384815 
L 436.620758 -199.274532 
L 437.438681 -197.16425 
L 438.258063 -195.053967 
L 439.074754 -192.943684 
L 439.883146 -190.833402 
L 440.676251 -188.723119 
L 441.445904 -186.612837 
L 442.183138 -184.502554 
L 442.878684 -182.392271 
L 443.523589 -180.281989 
L 444.109898 -178.171706 
L 444.631331 -176.061424 
L 445.083902 -173.951141 
L 445.466392 -171.840858 
L 445.780618 -169.730576 
L 446.031469 -167.620293 
L 446.226661 -165.510011 
L 446.376239 -163.399728 
L 446.491843 -161.289445 
L 446.585818 -159.179163 
L 446.670223 -157.06888 
L 446.75586 -154.958598 
L 446.851398 -152.848315 
L 446.962687 -150.738032 
L 447.092323 -148.62775 
L 447.239516 -146.517467 
L 447.400258 -144.407185 
L 447.567776 -142.296902 
L 447.733211 -140.186619 
L 447.886454 -138.076337 
L 448.017043 -135.966054 
L 448.115017 -133.855772 
L 448.171652 -131.745489 
L 448.18 -129.635206 
L 448.135174 -127.524924 
L 448.034375 -125.414641 
L 447.876662 -123.304359 
L 447.662514 -121.194076 
L 447.39324 -119.083793 
L 447.070327 -116.973511 
L 446.694805 -114.863228 
L 446.266707 -112.752946 
L 445.784702 -110.642663 
L 445.245937 -108.53238 
L 444.646104 -106.422098 
L 443.979746 -104.311815 
L 443.240744 -102.201533 
L 442.422951 -100.09125 
L 441.520894 -97.980967 
L 440.530491 -95.870685 
L 439.449685 -93.760402 
L 438.278962 -91.65012 
L 437.021697 -89.539837 
L 435.68429 -87.429554 
L 434.276116 -85.319272 
L 432.809257 -83.208989 
L 431.298091 -81.098707 
L 429.758729 -78.988424 
L 428.208383 -76.878141 
L 426.664689 -74.767859 
L 425.145031 -72.657576 
L 423.665922 -70.547294 
z
" style="stroke: #000000; stroke-opacity: 0.7"/>
    </defs>
    <g clip-path="url(#pc1a1d4a748)">
     <use xlink:href="#m22988e9706" x="0" y="319.95617" style="fill: #ff7f0e; fill-opacity: 0.7; stroke: #000000; stroke-opacity: 0.7"/>
    </g>
   </g>
   <g id="matplotlib.axis_1">
    <g id="xtick_1">
     <g id="line2d_1">
      <defs>
       <path id="m9a08d4022b" d="M 0 0 
L 0 3.5 
" style="stroke: #000000; stroke-width: 0.8"/>
      </defs>
      <g>
       <use xlink:href="#m9a08d4022b" x="127.9" y="259.854775" style="stroke: #000000; stroke-width: 0.8"/>
      </g>
     </g>
     <g id="text_1">
      <!-- Brookfield -->
      <g transform="translate(89.322464 309.509224) rotate(-45) scale(0.12 -0.12)">
       <defs>
        <path id="TimesNewRomanPSMT-42" d="M 2956 2163 
Q 3397 2069 3616 1863 
Q 3919 1575 3919 1159 
Q 3919 844 3719 555 
Q 3519 266 3170 133 
Q 2822 0 2106 0 
L 106 0 
L 106 116 
L 266 116 
Q 531 116 647 284 
Q 719 394 719 750 
L 719 3488 
Q 719 3881 628 3984 
Q 506 4122 266 4122 
L 106 4122 
L 106 4238 
L 1938 4238 
Q 2450 4238 2759 4163 
Q 3228 4050 3475 3764 
Q 3722 3478 3722 3106 
Q 3722 2788 3528 2536 
Q 3334 2284 2956 2163 
z
M 1319 2331 
Q 1434 2309 1582 2298 
Q 1731 2288 1909 2288 
Q 2366 2288 2595 2386 
Q 2825 2484 2947 2687 
Q 3069 2891 3069 3131 
Q 3069 3503 2766 3765 
Q 2463 4028 1881 4028 
Q 1569 4028 1319 3959 
L 1319 2331 
z
M 1319 306 
Q 1681 222 2034 222 
Q 2600 222 2897 476 
Q 3194 731 3194 1106 
Q 3194 1353 3059 1581 
Q 2925 1809 2622 1940 
Q 2319 2072 1872 2072 
Q 1678 2072 1540 2065 
Q 1403 2059 1319 2044 
L 1319 306 
z
" transform="scale(0.015625)"/>
        <path id="TimesNewRomanPSMT-72" d="M 1038 2947 
L 1038 2303 
Q 1397 2947 1775 2947 
Q 1947 2947 2059 2842 
Q 2172 2738 2172 2600 
Q 2172 2478 2090 2393 
Q 2009 2309 1897 2309 
Q 1788 2309 1652 2417 
Q 1516 2525 1450 2525 
Q 1394 2525 1328 2463 
Q 1188 2334 1038 2041 
L 1038 669 
Q 1038 431 1097 309 
Q 1138 225 1241 169 
Q 1344 113 1538 113 
L 1538 0 
L 72 0 
L 72 113 
Q 291 113 397 181 
Q 475 231 506 341 
Q 522 394 522 644 
L 522 1753 
Q 522 2253 501 2348 
Q 481 2444 426 2487 
Q 372 2531 291 2531 
Q 194 2531 72 2484 
L 41 2597 
L 906 2947 
L 1038 2947 
z
" transform="scale(0.015625)"/>
        <path id="TimesNewRomanPSMT-6f" d="M 1600 2947 
Q 2250 2947 2644 2453 
Q 2978 2031 2978 1484 
Q 2978 1100 2793 706 
Q 2609 313 2286 112 
Q 1963 -88 1566 -88 
Q 919 -88 538 428 
Q 216 863 216 1403 
Q 216 1797 411 2186 
Q 606 2575 925 2761 
Q 1244 2947 1600 2947 
z
M 1503 2744 
Q 1338 2744 1170 2645 
Q 1003 2547 900 2300 
Q 797 2053 797 1666 
Q 797 1041 1045 587 
Q 1294 134 1700 134 
Q 2003 134 2200 384 
Q 2397 634 2397 1244 
Q 2397 2006 2069 2444 
Q 1847 2744 1503 2744 
z
" transform="scale(0.015625)"/>
        <path id="TimesNewRomanPSMT-6b" d="M 1047 4444 
L 1047 1597 
L 1775 2259 
Q 2006 2472 2044 2528 
Q 2069 2566 2069 2603 
Q 2069 2666 2017 2711 
Q 1966 2756 1847 2763 
L 1847 2863 
L 3091 2863 
L 3091 2763 
Q 2834 2756 2664 2684 
Q 2494 2613 2291 2428 
L 1556 1750 
L 2291 822 
Q 2597 438 2703 334 
Q 2853 188 2966 144 
Q 3044 113 3238 113 
L 3238 0 
L 1847 0 
L 1847 113 
Q 1966 116 2008 148 
Q 2050 181 2050 241 
Q 2050 313 1925 472 
L 1047 1594 
L 1047 644 
Q 1047 366 1086 278 
Q 1125 191 1197 153 
Q 1269 116 1509 113 
L 1509 0 
L 53 0 
L 53 113 
Q 272 113 381 166 
Q 447 200 481 272 
Q 528 375 528 628 
L 528 3234 
Q 528 3731 506 3842 
Q 484 3953 434 3995 
Q 384 4038 303 4038 
Q 238 4038 106 3984 
L 53 4094 
L 903 4444 
L 1047 4444 
z
" transform="scale(0.015625)"/>
        <path id="TimesNewRomanPSMT-66" d="M 1319 2638 
L 1319 756 
Q 1319 356 1406 250 
Q 1522 113 1716 113 
L 1975 113 
L 1975 0 
L 266 0 
L 266 113 
L 394 113 
Q 519 113 622 175 
Q 725 238 764 344 
Q 803 450 803 756 
L 803 2638 
L 247 2638 
L 247 2863 
L 803 2863 
L 803 3050 
Q 803 3478 940 3775 
Q 1078 4072 1361 4255 
Q 1644 4438 1997 4438 
Q 2325 4438 2600 4225 
Q 2781 4084 2781 3909 
Q 2781 3816 2700 3733 
Q 2619 3650 2525 3650 
Q 2453 3650 2373 3701 
Q 2294 3753 2178 3923 
Q 2063 4094 1966 4153 
Q 1869 4213 1750 4213 
Q 1606 4213 1506 4136 
Q 1406 4059 1362 3898 
Q 1319 3738 1319 3069 
L 1319 2863 
L 2056 2863 
L 2056 2638 
L 1319 2638 
z
" transform="scale(0.015625)"/>
        <path id="TimesNewRomanPSMT-69" d="M 928 4444 
Q 1059 4444 1151 4351 
Q 1244 4259 1244 4128 
Q 1244 3997 1151 3903 
Q 1059 3809 928 3809 
Q 797 3809 703 3903 
Q 609 3997 609 4128 
Q 609 4259 701 4351 
Q 794 4444 928 4444 
z
M 1188 2947 
L 1188 647 
Q 1188 378 1227 289 
Q 1266 200 1342 156 
Q 1419 113 1622 113 
L 1622 0 
L 231 0 
L 231 113 
Q 441 113 512 153 
Q 584 194 626 287 
Q 669 381 669 647 
L 669 1750 
Q 669 2216 641 2353 
Q 619 2453 572 2492 
Q 525 2531 444 2531 
Q 356 2531 231 2484 
L 188 2597 
L 1050 2947 
L 1188 2947 
z
" transform="scale(0.015625)"/>
        <path id="TimesNewRomanPSMT-65" d="M 681 1784 
Q 678 1147 991 784 
Q 1303 422 1725 422 
Q 2006 422 2214 576 
Q 2422 731 2563 1106 
L 2659 1044 
Q 2594 616 2278 264 
Q 1963 -88 1488 -88 
Q 972 -88 605 314 
Q 238 716 238 1394 
Q 238 2128 614 2539 
Q 991 2950 1559 2950 
Q 2041 2950 2350 2633 
Q 2659 2316 2659 1784 
L 681 1784 
z
M 681 1966 
L 2006 1966 
Q 1991 2241 1941 2353 
Q 1863 2528 1708 2628 
Q 1553 2728 1384 2728 
Q 1125 2728 920 2526 
Q 716 2325 681 1966 
z
" transform="scale(0.015625)"/>
        <path id="TimesNewRomanPSMT-6c" d="M 1184 4444 
L 1184 647 
Q 1184 378 1223 290 
Q 1263 203 1344 158 
Q 1425 113 1647 113 
L 1647 0 
L 244 0 
L 244 113 
Q 441 113 512 153 
Q 584 194 625 287 
Q 666 381 666 647 
L 666 3247 
Q 666 3731 644 3842 
Q 622 3953 573 3993 
Q 525 4034 450 4034 
Q 369 4034 244 3984 
L 191 4094 
L 1044 4444 
L 1184 4444 
z
" transform="scale(0.015625)"/>
        <path id="TimesNewRomanPSMT-64" d="M 2222 322 
Q 2013 103 1813 7 
Q 1613 -88 1381 -88 
Q 913 -88 563 304 
Q 213 697 213 1313 
Q 213 1928 600 2439 
Q 988 2950 1597 2950 
Q 1975 2950 2222 2709 
L 2222 3238 
Q 2222 3728 2198 3840 
Q 2175 3953 2125 3993 
Q 2075 4034 2000 4034 
Q 1919 4034 1784 3984 
L 1744 4094 
L 2597 4444 
L 2738 4444 
L 2738 1134 
Q 2738 631 2761 520 
Q 2784 409 2836 365 
Q 2888 322 2956 322 
Q 3041 322 3181 375 
L 3216 266 
L 2366 -88 
L 2222 -88 
L 2222 322 
z
M 2222 541 
L 2222 2016 
Q 2203 2228 2109 2403 
Q 2016 2578 1861 2667 
Q 1706 2756 1559 2756 
Q 1284 2756 1069 2509 
Q 784 2184 784 1559 
Q 784 928 1059 592 
Q 1334 256 1672 256 
Q 1956 256 2222 541 
z
" transform="scale(0.015625)"/>
       </defs>
       <use xlink:href="#TimesNewRomanPSMT-42"/>
       <use xlink:href="#TimesNewRomanPSMT-72" x="66.699219"/>
       <use xlink:href="#TimesNewRomanPSMT-6f" x="100"/>
       <use xlink:href="#TimesNewRomanPSMT-6f" x="150"/>
       <use xlink:href="#TimesNewRomanPSMT-6b" x="200"/>
       <use xlink:href="#TimesNewRomanPSMT-66" x="250"/>
       <use xlink:href="#TimesNewRomanPSMT-69" x="283.300781"/>
       <use xlink:href="#TimesNewRomanPSMT-65" x="311.083984"/>
       <use xlink:href="#TimesNewRomanPSMT-6c" x="355.46875"/>
       <use xlink:href="#TimesNewRomanPSMT-64" x="383.251953"/>
      </g>
     </g>
    </g>
    <g id="xtick_2">
     <g id="line2d_2">
      <g>
       <use xlink:href="#m9a08d4022b" x="222.1" y="259.854775" style="stroke: #000000; stroke-width: 0.8"/>
      </g>
     </g>
     <g id="text_2">
      <!-- Highvale -->
      <g transform="translate(189.165176 303.850602) rotate(-45) scale(0.12 -0.12)">
       <defs>
        <path id="TimesNewRomanPSMT-48" d="M 1316 2272 
L 3284 2272 
L 3284 3484 
Q 3284 3809 3244 3913 
Q 3213 3991 3113 4047 
Q 2978 4122 2828 4122 
L 2678 4122 
L 2678 4238 
L 4491 4238 
L 4491 4122 
L 4341 4122 
Q 4191 4122 4056 4050 
Q 3956 4000 3920 3898 
Q 3884 3797 3884 3484 
L 3884 750 
Q 3884 428 3925 325 
Q 3956 247 4053 191 
Q 4191 116 4341 116 
L 4491 116 
L 4491 0 
L 2678 0 
L 2678 116 
L 2828 116 
Q 3088 116 3206 269 
Q 3284 369 3284 750 
L 3284 2041 
L 1316 2041 
L 1316 750 
Q 1316 428 1356 325 
Q 1388 247 1488 191 
Q 1622 116 1772 116 
L 1925 116 
L 1925 0 
L 109 0 
L 109 116 
L 259 116 
Q 522 116 641 269 
Q 716 369 716 750 
L 716 3484 
Q 716 3809 675 3913 
Q 644 3991 547 4047 
Q 409 4122 259 4122 
L 109 4122 
L 109 4238 
L 1925 4238 
L 1925 4122 
L 1772 4122 
Q 1622 4122 1488 4050 
Q 1391 4000 1353 3898 
Q 1316 3797 1316 3484 
L 1316 2272 
z
" transform="scale(0.015625)"/>
        <path id="TimesNewRomanPSMT-67" d="M 966 1044 
Q 703 1172 562 1401 
Q 422 1631 422 1909 
Q 422 2334 742 2640 
Q 1063 2947 1563 2947 
Q 1972 2947 2272 2747 
L 2878 2747 
Q 3013 2747 3034 2739 
Q 3056 2731 3066 2713 
Q 3084 2684 3084 2613 
Q 3084 2531 3069 2500 
Q 3059 2484 3036 2475 
Q 3013 2466 2878 2466 
L 2506 2466 
Q 2681 2241 2681 1891 
Q 2681 1491 2375 1206 
Q 2069 922 1553 922 
Q 1341 922 1119 984 
Q 981 866 932 777 
Q 884 688 884 625 
Q 884 572 936 522 
Q 988 472 1138 450 
Q 1225 438 1575 428 
Q 2219 413 2409 384 
Q 2700 344 2873 169 
Q 3047 -6 3047 -263 
Q 3047 -616 2716 -925 
Q 2228 -1381 1444 -1381 
Q 841 -1381 425 -1109 
Q 191 -953 191 -784 
Q 191 -709 225 -634 
Q 278 -519 444 -313 
Q 466 -284 763 25 
Q 600 122 533 198 
Q 466 275 466 372 
Q 466 481 555 628 
Q 644 775 966 1044 
z
M 1509 2797 
Q 1278 2797 1122 2612 
Q 966 2428 966 2047 
Q 966 1553 1178 1281 
Q 1341 1075 1591 1075 
Q 1828 1075 1981 1253 
Q 2134 1431 2134 1813 
Q 2134 2309 1919 2591 
Q 1759 2797 1509 2797 
z
M 934 0 
Q 788 -159 713 -296 
Q 638 -434 638 -550 
Q 638 -700 819 -813 
Q 1131 -1006 1722 -1006 
Q 2284 -1006 2551 -807 
Q 2819 -609 2819 -384 
Q 2819 -222 2659 -153 
Q 2497 -84 2016 -72 
Q 1313 -53 934 0 
z
" transform="scale(0.015625)"/>
        <path id="TimesNewRomanPSMT-68" d="M 1041 4444 
L 1041 2350 
Q 1388 2731 1591 2839 
Q 1794 2947 1997 2947 
Q 2241 2947 2416 2812 
Q 2591 2678 2675 2391 
Q 2734 2191 2734 1659 
L 2734 647 
Q 2734 375 2778 275 
Q 2809 200 2884 156 
Q 2959 113 3159 113 
L 3159 0 
L 1753 0 
L 1753 113 
L 1819 113 
Q 2019 113 2097 173 
Q 2175 234 2206 353 
Q 2216 403 2216 647 
L 2216 1659 
Q 2216 2128 2167 2275 
Q 2119 2422 2012 2495 
Q 1906 2569 1756 2569 
Q 1603 2569 1437 2487 
Q 1272 2406 1041 2159 
L 1041 647 
Q 1041 353 1073 281 
Q 1106 209 1195 161 
Q 1284 113 1503 113 
L 1503 0 
L 84 0 
L 84 113 
Q 275 113 384 172 
Q 447 203 484 290 
Q 522 378 522 647 
L 522 3238 
Q 522 3728 498 3840 
Q 475 3953 426 3993 
Q 378 4034 297 4034 
Q 231 4034 84 3984 
L 41 4094 
L 897 4444 
L 1041 4444 
z
" transform="scale(0.015625)"/>
        <path id="TimesNewRomanPSMT-76" d="M 53 2863 
L 1400 2863 
L 1400 2747 
L 1313 2747 
Q 1191 2747 1127 2687 
Q 1063 2628 1063 2528 
Q 1063 2419 1128 2269 
L 1794 688 
L 2463 2328 
Q 2534 2503 2534 2594 
Q 2534 2638 2509 2666 
Q 2475 2713 2422 2730 
Q 2369 2747 2206 2747 
L 2206 2863 
L 3141 2863 
L 3141 2747 
Q 2978 2734 2916 2681 
Q 2806 2588 2719 2369 
L 1703 -88 
L 1575 -88 
L 553 2328 
Q 484 2497 421 2570 
Q 359 2644 263 2694 
Q 209 2722 53 2747 
L 53 2863 
z
" transform="scale(0.015625)"/>
        <path id="TimesNewRomanPSMT-61" d="M 1822 413 
Q 1381 72 1269 19 
Q 1100 -59 909 -59 
Q 613 -59 420 144 
Q 228 347 228 678 
Q 228 888 322 1041 
Q 450 1253 767 1440 
Q 1084 1628 1822 1897 
L 1822 2009 
Q 1822 2438 1686 2597 
Q 1550 2756 1291 2756 
Q 1094 2756 978 2650 
Q 859 2544 859 2406 
L 866 2225 
Q 866 2081 792 2003 
Q 719 1925 600 1925 
Q 484 1925 411 2006 
Q 338 2088 338 2228 
Q 338 2497 613 2722 
Q 888 2947 1384 2947 
Q 1766 2947 2009 2819 
Q 2194 2722 2281 2516 
Q 2338 2381 2338 1966 
L 2338 994 
Q 2338 584 2353 492 
Q 2369 400 2405 369 
Q 2441 338 2488 338 
Q 2538 338 2575 359 
Q 2641 400 2828 588 
L 2828 413 
Q 2478 -56 2159 -56 
Q 2006 -56 1915 50 
Q 1825 156 1822 413 
z
M 1822 616 
L 1822 1706 
Q 1350 1519 1213 1441 
Q 966 1303 859 1153 
Q 753 1003 753 825 
Q 753 600 887 451 
Q 1022 303 1197 303 
Q 1434 303 1822 616 
z
" transform="scale(0.015625)"/>
       </defs>
       <use xlink:href="#TimesNewRomanPSMT-48"/>
       <use xlink:href="#TimesNewRomanPSMT-69" x="72.216797"/>
       <use xlink:href="#TimesNewRomanPSMT-67" x="100"/>
       <use xlink:href="#TimesNewRomanPSMT-68" x="150"/>
       <use xlink:href="#TimesNewRomanPSMT-76" x="200"/>
       <use xlink:href="#TimesNewRomanPSMT-61" x="250"/>
       <use xlink:href="#TimesNewRomanPSMT-6c" x="294.384766"/>
       <use xlink:href="#TimesNewRomanPSMT-65" x="322.167969"/>
      </g>
     </g>
    </g>
    <g id="xtick_3">
     <g id="line2d_3">
      <g>
       <use xlink:href="#m9a08d4022b" x="316.3" y="259.854775" style="stroke: #000000; stroke-width: 0.8"/>
      </g>
     </g>
     <g id="text_3">
      <!-- Springfield -->
      <g transform="translate(276.290572 310.925205) rotate(-45) scale(0.12 -0.12)">
       <defs>
        <path id="TimesNewRomanPSMT-53" d="M 2934 4334 
L 2934 2869 
L 2819 2869 
Q 2763 3291 2617 3541 
Q 2472 3791 2203 3937 
Q 1934 4084 1647 4084 
Q 1322 4084 1109 3886 
Q 897 3688 897 3434 
Q 897 3241 1031 3081 
Q 1225 2847 1953 2456 
Q 2547 2138 2764 1967 
Q 2981 1797 3098 1565 
Q 3216 1334 3216 1081 
Q 3216 600 2842 251 
Q 2469 -97 1881 -97 
Q 1697 -97 1534 -69 
Q 1438 -53 1133 45 
Q 828 144 747 144 
Q 669 144 623 97 
Q 578 50 556 -97 
L 441 -97 
L 441 1356 
L 556 1356 
Q 638 900 775 673 
Q 913 447 1195 297 
Q 1478 147 1816 147 
Q 2206 147 2432 353 
Q 2659 559 2659 841 
Q 2659 997 2573 1156 
Q 2488 1316 2306 1453 
Q 2184 1547 1640 1851 
Q 1097 2156 867 2337 
Q 638 2519 519 2737 
Q 400 2956 400 3219 
Q 400 3675 750 4004 
Q 1100 4334 1641 4334 
Q 1978 4334 2356 4169 
Q 2531 4091 2603 4091 
Q 2684 4091 2736 4139 
Q 2788 4188 2819 4334 
L 2934 4334 
z
" transform="scale(0.015625)"/>
        <path id="TimesNewRomanPSMT-70" d="M -6 2578 
L 875 2934 
L 994 2934 
L 994 2266 
Q 1216 2644 1439 2795 
Q 1663 2947 1909 2947 
Q 2341 2947 2628 2609 
Q 2981 2197 2981 1534 
Q 2981 794 2556 309 
Q 2206 -88 1675 -88 
Q 1444 -88 1275 -22 
Q 1150 25 994 166 
L 994 -706 
Q 994 -1000 1030 -1079 
Q 1066 -1159 1155 -1206 
Q 1244 -1253 1478 -1253 
L 1478 -1369 
L -22 -1369 
L -22 -1253 
L 56 -1253 
Q 228 -1256 350 -1188 
Q 409 -1153 442 -1076 
Q 475 -1000 475 -688 
L 475 2019 
Q 475 2297 450 2372 
Q 425 2447 370 2484 
Q 316 2522 222 2522 
Q 147 2522 31 2478 
L -6 2578 
z
M 994 2081 
L 994 1013 
Q 994 666 1022 556 
Q 1066 375 1236 237 
Q 1406 100 1666 100 
Q 1978 100 2172 344 
Q 2425 663 2425 1241 
Q 2425 1897 2138 2250 
Q 1938 2494 1663 2494 
Q 1513 2494 1366 2419 
Q 1253 2363 994 2081 
z
" transform="scale(0.015625)"/>
        <path id="TimesNewRomanPSMT-6e" d="M 1034 2341 
Q 1538 2947 1994 2947 
Q 2228 2947 2397 2830 
Q 2566 2713 2666 2444 
Q 2734 2256 2734 1869 
L 2734 647 
Q 2734 375 2778 278 
Q 2813 200 2889 156 
Q 2966 113 3172 113 
L 3172 0 
L 1756 0 
L 1756 113 
L 1816 113 
Q 2016 113 2095 173 
Q 2175 234 2206 353 
Q 2219 400 2219 647 
L 2219 1819 
Q 2219 2209 2117 2386 
Q 2016 2563 1775 2563 
Q 1403 2563 1034 2156 
L 1034 647 
Q 1034 356 1069 288 
Q 1113 197 1189 155 
Q 1266 113 1500 113 
L 1500 0 
L 84 0 
L 84 113 
L 147 113 
Q 366 113 442 223 
Q 519 334 519 647 
L 519 1709 
Q 519 2225 495 2337 
Q 472 2450 423 2490 
Q 375 2531 294 2531 
Q 206 2531 84 2484 
L 38 2597 
L 900 2947 
L 1034 2947 
L 1034 2341 
z
" transform="scale(0.015625)"/>
       </defs>
       <use xlink:href="#TimesNewRomanPSMT-53"/>
       <use xlink:href="#TimesNewRomanPSMT-70" x="55.615234"/>
       <use xlink:href="#TimesNewRomanPSMT-72" x="105.615234"/>
       <use xlink:href="#TimesNewRomanPSMT-69" x="138.916016"/>
       <use xlink:href="#TimesNewRomanPSMT-6e" x="166.699219"/>
       <use xlink:href="#TimesNewRomanPSMT-67" x="216.699219"/>
       <use xlink:href="#TimesNewRomanPSMT-66" x="266.699219"/>
       <use xlink:href="#TimesNewRomanPSMT-69" x="300"/>
       <use xlink:href="#TimesNewRomanPSMT-65" x="327.783203"/>
       <use xlink:href="#TimesNewRomanPSMT-6c" x="372.167969"/>
       <use xlink:href="#TimesNewRomanPSMT-64" x="399.951172"/>
      </g>
     </g>
    </g>
    <g id="xtick_4">
     <g id="line2d_4">
      <g>
       <use xlink:href="#m9a08d4022b" x="410.5" y="259.854775" style="stroke: #000000; stroke-width: 0.8"/>
      </g>
     </g>
     <g id="text_4">
      <!-- Westport -->
      <g transform="translate(378.259908 303.171779) rotate(-45) scale(0.12 -0.12)">
       <defs>
        <path id="TimesNewRomanPSMT-57" d="M 5991 4238 
L 5991 4122 
Q 5825 4122 5722 4062 
Q 5619 4003 5525 3841 
Q 5463 3731 5328 3319 
L 4147 -97 
L 4022 -97 
L 3056 2613 
L 2097 -97 
L 1984 -97 
L 725 3422 
Q 584 3816 547 3888 
Q 484 4006 376 4064 
Q 269 4122 84 4122 
L 84 4238 
L 1653 4238 
L 1653 4122 
L 1578 4122 
Q 1413 4122 1325 4047 
Q 1238 3972 1238 3866 
Q 1238 3756 1375 3363 
L 2209 984 
L 2913 3006 
L 2788 3363 
L 2688 3647 
Q 2622 3803 2541 3922 
Q 2500 3981 2441 4022 
Q 2363 4078 2284 4103 
Q 2225 4122 2097 4122 
L 2097 4238 
L 3747 4238 
L 3747 4122 
L 3634 4122 
Q 3459 4122 3378 4047 
Q 3297 3972 3297 3844 
Q 3297 3684 3438 3288 
L 4250 984 
L 5056 3319 
Q 5194 3706 5194 3856 
Q 5194 3928 5148 3990 
Q 5103 4053 5034 4078 
Q 4916 4122 4725 4122 
L 4725 4238 
L 5991 4238 
z
" transform="scale(0.015625)"/>
        <path id="TimesNewRomanPSMT-73" d="M 2050 2947 
L 2050 1972 
L 1947 1972 
Q 1828 2431 1642 2597 
Q 1456 2763 1169 2763 
Q 950 2763 815 2647 
Q 681 2531 681 2391 
Q 681 2216 781 2091 
Q 878 1963 1175 1819 
L 1631 1597 
Q 2266 1288 2266 781 
Q 2266 391 1970 151 
Q 1675 -88 1309 -88 
Q 1047 -88 709 6 
Q 606 38 541 38 
Q 469 38 428 -44 
L 325 -44 
L 325 978 
L 428 978 
Q 516 541 762 319 
Q 1009 97 1316 97 
Q 1531 97 1667 223 
Q 1803 350 1803 528 
Q 1803 744 1651 891 
Q 1500 1038 1047 1263 
Q 594 1488 453 1669 
Q 313 1847 313 2119 
Q 313 2472 555 2709 
Q 797 2947 1181 2947 
Q 1350 2947 1591 2875 
Q 1750 2828 1803 2828 
Q 1853 2828 1881 2850 
Q 1909 2872 1947 2947 
L 2050 2947 
z
" transform="scale(0.015625)"/>
        <path id="TimesNewRomanPSMT-74" d="M 1031 3803 
L 1031 2863 
L 1700 2863 
L 1700 2644 
L 1031 2644 
L 1031 788 
Q 1031 509 1111 412 
Q 1191 316 1316 316 
Q 1419 316 1516 380 
Q 1613 444 1666 569 
L 1788 569 
Q 1678 263 1478 108 
Q 1278 -47 1066 -47 
Q 922 -47 784 33 
Q 647 113 581 261 
Q 516 409 516 719 
L 516 2644 
L 63 2644 
L 63 2747 
Q 234 2816 414 2980 
Q 594 3144 734 3369 
Q 806 3488 934 3803 
L 1031 3803 
z
" transform="scale(0.015625)"/>
       </defs>
       <use xlink:href="#TimesNewRomanPSMT-57"/>
       <use xlink:href="#TimesNewRomanPSMT-65" x="86.384766"/>
       <use xlink:href="#TimesNewRomanPSMT-73" x="130.769531"/>
       <use xlink:href="#TimesNewRomanPSMT-74" x="169.685547"/>
       <use xlink:href="#TimesNewRomanPSMT-70" x="197.46875"/>
       <use xlink:href="#TimesNewRomanPSMT-6f" x="247.46875"/>
       <use xlink:href="#TimesNewRomanPSMT-72" x="297.46875"/>
       <use xlink:href="#TimesNewRomanPSMT-74" x="330.769531"/>
      </g>
     </g>
    </g>
   </g>
   <g id="matplotlib.axis_2">
    <g id="ytick_1">
     <g id="line2d_5">
      <defs>
       <path id="m522d54bce5" d="M 0 0 
L -3.5 0 
" style="stroke: #000000; stroke-width: 0.8"/>
      </defs>
      <g>
       <use xlink:href="#m522d54bce5" x="80.8" y="239.178357" style="stroke: #000000; stroke-width: 0.8"/>
      </g>
     </g>
     <g id="text_5">
      <!-- 500 -->
      <g transform="translate(58.8 242.650232) scale(0.1 -0.1)">
       <defs>
        <path id="TimesNewRomanPSMT-35" d="M 2778 4238 
L 2534 3706 
L 1259 3706 
L 981 3138 
Q 1809 3016 2294 2522 
Q 2709 2097 2709 1522 
Q 2709 1188 2573 903 
Q 2438 619 2231 419 
Q 2025 219 1772 97 
Q 1413 -75 1034 -75 
Q 653 -75 479 54 
Q 306 184 306 341 
Q 306 428 378 495 
Q 450 563 559 563 
Q 641 563 702 538 
Q 763 513 909 409 
Q 1144 247 1384 247 
Q 1750 247 2026 523 
Q 2303 800 2303 1197 
Q 2303 1581 2056 1914 
Q 1809 2247 1375 2428 
Q 1034 2569 447 2591 
L 1259 4238 
L 2778 4238 
z
" transform="scale(0.015625)"/>
        <path id="TimesNewRomanPSMT-30" d="M 231 2094 
Q 231 2819 450 3342 
Q 669 3866 1031 4122 
Q 1313 4325 1613 4325 
Q 2100 4325 2488 3828 
Q 2972 3213 2972 2159 
Q 2972 1422 2759 906 
Q 2547 391 2217 158 
Q 1888 -75 1581 -75 
Q 975 -75 572 641 
Q 231 1244 231 2094 
z
M 844 2016 
Q 844 1141 1059 588 
Q 1238 122 1591 122 
Q 1759 122 1940 273 
Q 2122 425 2216 781 
Q 2359 1319 2359 2297 
Q 2359 3022 2209 3506 
Q 2097 3866 1919 4016 
Q 1791 4119 1609 4119 
Q 1397 4119 1231 3928 
Q 1006 3669 925 3112 
Q 844 2556 844 2016 
z
" transform="scale(0.015625)"/>
       </defs>
       <use xlink:href="#TimesNewRomanPSMT-35"/>
       <use xlink:href="#TimesNewRomanPSMT-30" x="50"/>
       <use xlink:href="#TimesNewRomanPSMT-30" x="100"/>
      </g>
     </g>
    </g>
    <g id="ytick_2">
     <g id="line2d_6">
      <g>
       <use xlink:href="#m522d54bce5" x="80.8" y="194.307657" style="stroke: #000000; stroke-width: 0.8"/>
      </g>
     </g>
     <g id="text_6">
      <!-- 1000 -->
      <g transform="translate(53.8 197.779532) scale(0.1 -0.1)">
       <defs>
        <path id="TimesNewRomanPSMT-31" d="M 750 3822 
L 1781 4325 
L 1884 4325 
L 1884 747 
Q 1884 391 1914 303 
Q 1944 216 2037 169 
Q 2131 122 2419 116 
L 2419 0 
L 825 0 
L 825 116 
Q 1125 122 1212 167 
Q 1300 213 1334 289 
Q 1369 366 1369 747 
L 1369 3034 
Q 1369 3497 1338 3628 
Q 1316 3728 1258 3775 
Q 1200 3822 1119 3822 
Q 1003 3822 797 3725 
L 750 3822 
z
" transform="scale(0.015625)"/>
       </defs>
       <use xlink:href="#TimesNewRomanPSMT-31"/>
       <use xlink:href="#TimesNewRomanPSMT-30" x="50"/>
       <use xlink:href="#TimesNewRomanPSMT-30" x="100"/>
       <use xlink:href="#TimesNewRomanPSMT-30" x="150"/>
      </g>
     </g>
    </g>
    <g id="ytick_3">
     <g id="line2d_7">
      <g>
       <use xlink:href="#m522d54bce5" x="80.8" y="149.436957" style="stroke: #000000; stroke-width: 0.8"/>
      </g>
     </g>
     <g id="text_7">
      <!-- 1500 -->
      <g transform="translate(53.8 152.908832) scale(0.1 -0.1)">
       <use xlink:href="#TimesNewRomanPSMT-31"/>
       <use xlink:href="#TimesNewRomanPSMT-35" x="50"/>
       <use xlink:href="#TimesNewRomanPSMT-30" x="100"/>
       <use xlink:href="#TimesNewRomanPSMT-30" x="150"/>
      </g>
     </g>
    </g>
    <g id="ytick_4">
     <g id="line2d_8">
      <g>
       <use xlink:href="#m522d54bce5" x="80.8" y="104.566258" style="stroke: #000000; stroke-width: 0.8"/>
      </g>
     </g>
     <g id="text_8">
      <!-- 2000 -->
      <g transform="translate(53.8 108.038133) scale(0.1 -0.1)">
       <defs>
        <path id="TimesNewRomanPSMT-32" d="M 2934 816 
L 2638 0 
L 138 0 
L 138 116 
Q 1241 1122 1691 1759 
Q 2141 2397 2141 2925 
Q 2141 3328 1894 3587 
Q 1647 3847 1303 3847 
Q 991 3847 742 3664 
Q 494 3481 375 3128 
L 259 3128 
Q 338 3706 661 4015 
Q 984 4325 1469 4325 
Q 1984 4325 2329 3994 
Q 2675 3663 2675 3213 
Q 2675 2891 2525 2569 
Q 2294 2063 1775 1497 
Q 997 647 803 472 
L 1909 472 
Q 2247 472 2383 497 
Q 2519 522 2628 598 
Q 2738 675 2819 816 
L 2934 816 
z
" transform="scale(0.015625)"/>
       </defs>
       <use xlink:href="#TimesNewRomanPSMT-32"/>
       <use xlink:href="#TimesNewRomanPSMT-30" x="50"/>
       <use xlink:href="#TimesNewRomanPSMT-30" x="100"/>
       <use xlink:href="#TimesNewRomanPSMT-30" x="150"/>
      </g>
     </g>
    </g>
    <g id="ytick_5">
     <g id="line2d_9">
      <g>
       <use xlink:href="#m522d54bce5" x="80.8" y="59.695558" style="stroke: #000000; stroke-width: 0.8"/>
      </g>
     </g>
     <g id="text_9">
      <!-- 2500 -->
      <g transform="translate(53.8 63.167433) scale(0.1 -0.1)">
       <use xlink:href="#TimesNewRomanPSMT-32"/>
       <use xlink:href="#TimesNewRomanPSMT-35" x="50"/>
       <use xlink:href="#TimesNewRomanPSMT-30" x="100"/>
       <use xlink:href="#TimesNewRomanPSMT-30" x="150"/>
      </g>
     </g>
    </g>
    <g id="text_10">
     <!-- number -->
     <g transform="translate(46.805313 166.3327) rotate(-90) scale(0.14 -0.14)">
      <defs>
       <path id="TimesNewRomanPSMT-75" d="M 2709 2863 
L 2709 1128 
Q 2709 631 2732 520 
Q 2756 409 2807 365 
Q 2859 322 2928 322 
Q 3025 322 3147 375 
L 3191 266 
L 2334 -88 
L 2194 -88 
L 2194 519 
Q 1825 119 1631 15 
Q 1438 -88 1222 -88 
Q 981 -88 804 51 
Q 628 191 559 409 
Q 491 628 491 1028 
L 491 2306 
Q 491 2509 447 2587 
Q 403 2666 317 2708 
Q 231 2750 6 2747 
L 6 2863 
L 1009 2863 
L 1009 947 
Q 1009 547 1148 422 
Q 1288 297 1484 297 
Q 1619 297 1789 381 
Q 1959 466 2194 703 
L 2194 2325 
Q 2194 2569 2105 2655 
Q 2016 2741 1734 2747 
L 1734 2863 
L 2709 2863 
z
" transform="scale(0.015625)"/>
       <path id="TimesNewRomanPSMT-6d" d="M 1050 2338 
Q 1363 2650 1419 2697 
Q 1559 2816 1721 2881 
Q 1884 2947 2044 2947 
Q 2313 2947 2506 2790 
Q 2700 2634 2766 2338 
Q 3088 2713 3309 2830 
Q 3531 2947 3766 2947 
Q 3994 2947 4170 2830 
Q 4347 2713 4450 2447 
Q 4519 2266 4519 1878 
L 4519 647 
Q 4519 378 4559 278 
Q 4591 209 4675 161 
Q 4759 113 4950 113 
L 4950 0 
L 3538 0 
L 3538 113 
L 3597 113 
Q 3781 113 3884 184 
Q 3956 234 3988 344 
Q 4000 397 4000 647 
L 4000 1878 
Q 4000 2228 3916 2372 
Q 3794 2572 3525 2572 
Q 3359 2572 3192 2489 
Q 3025 2406 2788 2181 
L 2781 2147 
L 2788 2013 
L 2788 647 
Q 2788 353 2820 281 
Q 2853 209 2943 161 
Q 3034 113 3253 113 
L 3253 0 
L 1806 0 
L 1806 113 
Q 2044 113 2133 169 
Q 2222 225 2256 338 
Q 2272 391 2272 647 
L 2272 1878 
Q 2272 2228 2169 2381 
Q 2031 2581 1784 2581 
Q 1616 2581 1450 2491 
Q 1191 2353 1050 2181 
L 1050 647 
Q 1050 366 1089 281 
Q 1128 197 1204 155 
Q 1281 113 1516 113 
L 1516 0 
L 100 0 
L 100 113 
Q 297 113 375 155 
Q 453 197 493 289 
Q 534 381 534 647 
L 534 1741 
Q 534 2213 506 2350 
Q 484 2453 437 2492 
Q 391 2531 309 2531 
Q 222 2531 100 2484 
L 53 2597 
L 916 2947 
L 1050 2947 
L 1050 2338 
z
" transform="scale(0.015625)"/>
       <path id="TimesNewRomanPSMT-62" d="M 984 2369 
Q 1400 2947 1881 2947 
Q 2322 2947 2650 2570 
Q 2978 2194 2978 1541 
Q 2978 778 2472 313 
Q 2038 -88 1503 -88 
Q 1253 -88 995 3 
Q 738 94 469 275 
L 469 3241 
Q 469 3728 445 3840 
Q 422 3953 372 3993 
Q 322 4034 247 4034 
Q 159 4034 28 3984 
L -16 4094 
L 844 4444 
L 984 4444 
L 984 2369 
z
M 984 2169 
L 984 456 
Q 1144 300 1314 220 
Q 1484 141 1663 141 
Q 1947 141 2192 453 
Q 2438 766 2438 1363 
Q 2438 1913 2192 2208 
Q 1947 2503 1634 2503 
Q 1469 2503 1303 2419 
Q 1178 2356 984 2169 
z
" transform="scale(0.015625)"/>
      </defs>
      <use xlink:href="#TimesNewRomanPSMT-6e"/>
      <use xlink:href="#TimesNewRomanPSMT-75" x="50"/>
      <use xlink:href="#TimesNewRomanPSMT-6d" x="100"/>
      <use xlink:href="#TimesNewRomanPSMT-62" x="177.783203"/>
      <use xlink:href="#TimesNewRomanPSMT-65" x="227.783203"/>
      <use xlink:href="#TimesNewRomanPSMT-72" x="272.167969"/>
     </g>
    </g>
   </g>
   <g id="patch_3">
    <path d="M 122.248 232.066351 
L 133.552 232.066351 
L 133.552 211.111734 
L 122.248 211.111734 
L 122.248 232.066351 
L 122.248 232.066351 
z
" clip-path="url(#pc1a1d4a748)" style="fill: none; stroke: #000000; stroke-linejoin: miter"/>
   </g>
   <g id="line2d_10">
    <path d="M 127.9 232.066351 
L 127.9 239.627064 
" clip-path="url(#pc1a1d4a748)" style="fill: none; stroke: #000000; stroke-linecap: square"/>
   </g>
   <g id="line2d_11">
    <path d="M 127.9 211.111734 
L 127.9 182.551534 
" clip-path="url(#pc1a1d4a748)" style="fill: none; stroke: #000000; stroke-linecap: square"/>
   </g>
   <g id="line2d_12">
    <path d="M 125.074 239.627064 
L 130.726 239.627064 
" clip-path="url(#pc1a1d4a748)" style="fill: none; stroke: #000000; stroke-linecap: square"/>
   </g>
   <g id="line2d_13">
    <path d="M 125.074 182.551534 
L 130.726 182.551534 
" clip-path="url(#pc1a1d4a748)" style="fill: none; stroke: #000000; stroke-linecap: square"/>
   </g>
   <g id="patch_4">
    <path d="M 216.448 171.580648 
L 227.752 171.580648 
L 227.752 142.549305 
L 216.448 142.549305 
L 216.448 171.580648 
L 216.448 171.580648 
z
" clip-path="url(#pc1a1d4a748)" style="fill: none; stroke: #000000; stroke-linejoin: miter"/>
   </g>
   <g id="line2d_14">
    <path d="M 222.1 171.580648 
L 222.1 189.282139 
" clip-path="url(#pc1a1d4a748)" style="fill: none; stroke: #000000; stroke-linecap: square"/>
   </g>
   <g id="line2d_15">
    <path d="M 222.1 142.549305 
L 222.1 99.989447 
" clip-path="url(#pc1a1d4a748)" style="fill: none; stroke: #000000; stroke-linecap: square"/>
   </g>
   <g id="line2d_16">
    <path d="M 219.274 189.282139 
L 224.926 189.282139 
" clip-path="url(#pc1a1d4a748)" style="fill: none; stroke: #000000; stroke-linecap: square"/>
   </g>
   <g id="line2d_17">
    <path d="M 219.274 99.989447 
L 224.926 99.989447 
" clip-path="url(#pc1a1d4a748)" style="fill: none; stroke: #000000; stroke-linecap: square"/>
   </g>
   <g id="patch_5">
    <path d="M 310.648 192.153863 
L 321.952 192.153863 
L 321.952 131.039971 
L 310.648 131.039971 
L 310.648 192.153863 
L 310.648 192.153863 
z
" clip-path="url(#pc1a1d4a748)" style="fill: none; stroke: #000000; stroke-linejoin: miter"/>
   </g>
   <g id="line2d_18">
    <path d="M 316.3 192.153863 
L 316.3 221.948008 
" clip-path="url(#pc1a1d4a748)" style="fill: none; stroke: #000000; stroke-linecap: square"/>
   </g>
   <g id="line2d_19">
    <path d="M 316.3 131.039971 
L 316.3 46.234348 
" clip-path="url(#pc1a1d4a748)" style="fill: none; stroke: #000000; stroke-linecap: square"/>
   </g>
   <g id="line2d_20">
    <path d="M 313.474 221.948008 
L 319.126 221.948008 
" clip-path="url(#pc1a1d4a748)" style="fill: none; stroke: #000000; stroke-linecap: square"/>
   </g>
   <g id="line2d_21">
    <path d="M 313.474 46.234348 
L 319.126 46.234348 
" clip-path="url(#pc1a1d4a748)" style="fill: none; stroke: #000000; stroke-linecap: square"/>
   </g>
   <g id="patch_6">
    <path d="M 404.848 203.708069 
L 416.152 203.708069 
L 416.152 134.270661 
L 404.848 134.270661 
L 404.848 203.708069 
L 404.848 203.708069 
z
" clip-path="url(#pc1a1d4a748)" style="fill: none; stroke: #000000; stroke-linejoin: miter"/>
   </g>
   <g id="line2d_22">
    <path d="M 410.5 203.708069 
L 410.5 249.408876 
" clip-path="url(#pc1a1d4a748)" style="fill: none; stroke: #000000; stroke-linecap: square"/>
   </g>
   <g id="line2d_23">
    <path d="M 410.5 134.270661 
L 410.5 40.490899 
" clip-path="url(#pc1a1d4a748)" style="fill: none; stroke: #000000; stroke-linecap: square"/>
   </g>
   <g id="line2d_24">
    <path d="M 407.674 249.408876 
L 413.326 249.408876 
" clip-path="url(#pc1a1d4a748)" style="fill: none; stroke: #000000; stroke-linecap: square"/>
   </g>
   <g id="line2d_25">
    <path d="M 407.674 40.490899 
L 413.326 40.490899 
" clip-path="url(#pc1a1d4a748)" style="fill: none; stroke: #000000; stroke-linecap: square"/>
   </g>
   <g id="line2d_26">
    <path d="M 122.248 222.576198 
L 133.552 222.576198 
" clip-path="url(#pc1a1d4a748)" style="fill: none; stroke: #000000; stroke-width: 1.5; stroke-linecap: square"/>
   </g>
   <g id="line2d_27">
    <path d="M 216.448 158.725192 
L 227.752 158.725192 
" clip-path="url(#pc1a1d4a748)" style="fill: none; stroke: #000000; stroke-width: 1.5; stroke-linecap: square"/>
   </g>
   <g id="line2d_28">
    <path d="M 310.648 162.539202 
L 321.952 162.539202 
" clip-path="url(#pc1a1d4a748)" style="fill: none; stroke: #000000; stroke-width: 1.5; stroke-linecap: square"/>
   </g>
   <g id="line2d_29">
    <path d="M 404.848 172.321014 
L 416.152 172.321014 
" clip-path="url(#pc1a1d4a748)" style="fill: none; stroke: #000000; stroke-width: 1.5; stroke-linecap: square"/>
   </g>
   <g id="patch_7">
    <path d="M 80.8 259.854775 
L 80.8 30.045 
" style="fill: none; stroke: #000000; stroke-linejoin: miter; stroke-linecap: square"/>
   </g>
   <g id="patch_8">
    <path d="M 457.6 259.854775 
L 457.6 30.045 
" style="fill: none; stroke: #000000; stroke-linejoin: miter; stroke-linecap: square"/>
   </g>
   <g id="patch_9">
    <path d="M 80.8 259.854775 
L 457.6 259.854775 
" style="fill: none; stroke: #000000; stroke-linejoin: miter; stroke-linecap: square"/>
   </g>
   <g id="patch_10">
    <path d="M 80.8 30.045 
L 457.6 30.045 
" style="fill: none; stroke: #000000; stroke-linejoin: miter; stroke-linecap: square"/>
   </g>
   <g id="text_11">
    <!-- Number of people participating in cultural activities across regions (number) -->
    <g transform="translate(7.2 18.045) scale(0.16 -0.16)">
     <defs>
      <path id="TimesNewRomanPS-BoldMT-4e" d="M 1594 4238 
L 3684 1609 
L 3684 3431 
Q 3684 3813 3575 3947 
Q 3425 4128 3072 4122 
L 3072 4238 
L 4472 4238 
L 4472 4122 
Q 4203 4088 4111 4033 
Q 4019 3978 3967 3854 
Q 3916 3731 3916 3431 
L 3916 -97 
L 3809 -97 
L 944 3431 
L 944 738 
Q 944 372 1111 244 
Q 1278 116 1494 116 
L 1594 116 
L 1594 0 
L 91 0 
L 91 116 
Q 441 119 578 259 
Q 716 400 716 738 
L 716 3728 
L 625 3841 
Q 491 4009 387 4062 
Q 284 4116 91 4122 
L 91 4238 
L 1594 4238 
z
" transform="scale(0.015625)"/>
      <path id="TimesNewRomanPS-BoldMT-75" d="M 3038 2922 
L 3038 634 
Q 3038 300 3100 217 
Q 3163 134 3353 113 
L 3353 0 
L 2163 0 
L 2163 391 
Q 1953 141 1743 26 
Q 1534 -88 1275 -88 
Q 1028 -88 836 64 
Q 644 216 578 419 
Q 513 622 513 1128 
L 513 2288 
Q 513 2619 452 2700 
Q 391 2781 197 2806 
L 197 2922 
L 1388 2922 
L 1388 925 
Q 1388 613 1417 522 
Q 1447 431 1511 384 
Q 1575 338 1659 338 
Q 1772 338 1863 397 
Q 1988 478 2163 725 
L 2163 2288 
Q 2163 2619 2102 2700 
Q 2041 2781 1847 2806 
L 1847 2922 
L 3038 2922 
z
" transform="scale(0.015625)"/>
      <path id="TimesNewRomanPS-BoldMT-6d" d="M 1428 2922 
L 1428 2538 
Q 1669 2800 1873 2904 
Q 2078 3009 2322 3009 
Q 2603 3009 2793 2878 
Q 2984 2747 3088 2478 
Q 3338 2759 3567 2884 
Q 3797 3009 4047 3009 
Q 4350 3009 4529 2870 
Q 4709 2731 4779 2517 
Q 4850 2303 4850 1834 
L 4850 638 
Q 4850 300 4911 219 
Q 4972 138 5166 113 
L 5166 0 
L 3656 0 
L 3656 113 
Q 3834 128 3919 250 
Q 3975 334 3975 638 
L 3975 1894 
Q 3975 2284 3944 2390 
Q 3913 2497 3845 2548 
Q 3778 2600 3688 2600 
Q 3553 2600 3415 2501 
Q 3278 2403 3138 2206 
L 3138 638 
Q 3138 322 3191 241 
Q 3263 125 3466 113 
L 3466 0 
L 1953 0 
L 1953 113 
Q 2075 119 2145 173 
Q 2216 228 2239 304 
Q 2263 381 2263 638 
L 2263 1894 
Q 2263 2291 2231 2391 
Q 2200 2491 2126 2547 
Q 2053 2603 1969 2603 
Q 1844 2603 1741 2538 
Q 1594 2441 1428 2206 
L 1428 638 
Q 1428 328 1489 229 
Q 1550 131 1744 113 
L 1744 0 
L 238 0 
L 238 113 
Q 422 131 500 231 
Q 553 300 553 638 
L 553 2288 
Q 553 2619 492 2700 
Q 431 2781 238 2806 
L 238 2922 
L 1428 2922 
z
" transform="scale(0.015625)"/>
      <path id="TimesNewRomanPS-BoldMT-62" d="M 1347 4238 
L 1347 2628 
Q 1716 3009 2153 3009 
Q 2453 3009 2718 2832 
Q 2984 2656 3134 2331 
Q 3284 2006 3284 1581 
Q 3284 1103 3093 712 
Q 2903 322 2584 117 
Q 2266 -88 1856 -88 
Q 1619 -88 1434 -12 
Q 1250 63 1072 231 
L 588 -84 
L 481 -84 
L 481 3631 
Q 481 3884 459 3944 
Q 428 4031 361 4073 
Q 294 4116 134 4122 
L 134 4238 
L 1347 4238 
z
M 1347 2350 
L 1347 1050 
Q 1347 653 1366 544 
Q 1397 359 1515 245 
Q 1634 131 1819 131 
Q 1978 131 2092 222 
Q 2206 313 2282 581 
Q 2359 850 2359 1550 
Q 2359 2222 2191 2472 
Q 2069 2653 1863 2653 
Q 1594 2653 1347 2350 
z
" transform="scale(0.015625)"/>
      <path id="TimesNewRomanPS-BoldMT-65" d="M 2691 1566 
L 1088 1566 
Q 1116 984 1397 647 
Q 1613 388 1916 388 
Q 2103 388 2256 492 
Q 2409 597 2584 869 
L 2691 800 
Q 2453 316 2165 114 
Q 1878 -88 1500 -88 
Q 850 -88 516 413 
Q 247 816 247 1413 
Q 247 2144 642 2576 
Q 1038 3009 1569 3009 
Q 2013 3009 2339 2645 
Q 2666 2281 2691 1566 
z
M 1922 1775 
Q 1922 2278 1867 2465 
Q 1813 2653 1697 2750 
Q 1631 2806 1522 2806 
Q 1359 2806 1256 2647 
Q 1072 2369 1072 1884 
L 1072 1775 
L 1922 1775 
z
" transform="scale(0.015625)"/>
      <path id="TimesNewRomanPS-BoldMT-72" d="M 1428 2922 
L 1428 2259 
Q 1719 2713 1937 2861 
Q 2156 3009 2359 3009 
Q 2534 3009 2639 2901 
Q 2744 2794 2744 2597 
Q 2744 2388 2642 2272 
Q 2541 2156 2397 2156 
Q 2231 2156 2109 2262 
Q 1988 2369 1966 2381 
Q 1934 2400 1894 2400 
Q 1803 2400 1722 2331 
Q 1594 2225 1528 2028 
Q 1428 1725 1428 1359 
L 1428 688 
L 1431 513 
Q 1431 334 1453 284 
Q 1491 200 1564 161 
Q 1638 122 1813 113 
L 1813 0 
L 234 0 
L 234 113 
Q 425 128 492 217 
Q 559 306 559 688 
L 559 2303 
Q 559 2553 534 2622 
Q 503 2709 443 2750 
Q 384 2791 234 2806 
L 234 2922 
L 1428 2922 
z
" transform="scale(0.015625)"/>
      <path id="TimesNewRomanPS-BoldMT-20" transform="scale(0.015625)"/>
      <path id="TimesNewRomanPS-BoldMT-6f" d="M 1594 3009 
Q 1975 3009 2303 2812 
Q 2631 2616 2801 2253 
Q 2972 1891 2972 1459 
Q 2972 838 2656 419 
Q 2275 -88 1603 -88 
Q 944 -88 587 375 
Q 231 838 231 1447 
Q 231 2075 595 2542 
Q 959 3009 1594 3009 
z
M 1606 2788 
Q 1447 2788 1333 2667 
Q 1219 2547 1183 2192 
Q 1147 1838 1147 1206 
Q 1147 872 1191 581 
Q 1225 359 1337 243 
Q 1450 128 1594 128 
Q 1734 128 1828 206 
Q 1950 313 1991 503 
Q 2053 800 2053 1703 
Q 2053 2234 1993 2432 
Q 1934 2631 1819 2722 
Q 1738 2788 1606 2788 
z
" transform="scale(0.015625)"/>
      <path id="TimesNewRomanPS-BoldMT-66" d="M 1497 2616 
L 1497 588 
Q 1497 294 1559 219 
Q 1659 103 1928 113 
L 1928 0 
L 206 0 
L 206 113 
Q 403 116 486 158 
Q 569 200 600 275 
Q 631 350 631 588 
L 631 2616 
L 206 2616 
L 206 2922 
L 631 2922 
L 631 3138 
L 628 3284 
Q 628 3734 958 4034 
Q 1288 4334 1850 4334 
Q 2234 4334 2420 4190 
Q 2606 4047 2606 3872 
Q 2606 3731 2490 3628 
Q 2375 3525 2184 3525 
Q 2022 3525 1926 3609 
Q 1831 3694 1831 3797 
Q 1831 3825 1850 3913 
Q 1863 3966 1863 4013 
Q 1863 4078 1825 4109 
Q 1775 4156 1703 4156 
Q 1613 4156 1552 4081 
Q 1491 4006 1491 3841 
L 1497 3294 
L 1497 2922 
L 1928 2922 
L 1928 2616 
L 1497 2616 
z
" transform="scale(0.015625)"/>
      <path id="TimesNewRomanPS-BoldMT-70" d="M 1347 297 
L 1347 -791 
Q 1347 -1016 1383 -1097 
Q 1419 -1178 1494 -1215 
Q 1569 -1253 1788 -1253 
L 1788 -1369 
L 122 -1369 
L 122 -1253 
Q 316 -1247 409 -1144 
Q 472 -1072 472 -772 
L 472 2313 
Q 472 2622 400 2708 
Q 328 2794 122 2806 
L 122 2922 
L 1347 2922 
L 1347 2538 
Q 1500 2763 1659 2863 
Q 1888 3009 2156 3009 
Q 2478 3009 2742 2806 
Q 3006 2603 3143 2245 
Q 3281 1888 3281 1475 
Q 3281 1031 3139 664 
Q 2997 297 2726 104 
Q 2456 -88 2125 -88 
Q 1884 -88 1675 19 
Q 1519 100 1347 297 
z
M 1347 613 
Q 1616 231 1922 231 
Q 2091 231 2200 409 
Q 2363 672 2363 1409 
Q 2363 2166 2184 2444 
Q 2066 2628 1866 2628 
Q 1550 2628 1347 2172 
L 1347 613 
z
" transform="scale(0.015625)"/>
      <path id="TimesNewRomanPS-BoldMT-6c" d="M 1359 4238 
L 1359 606 
Q 1359 297 1431 211 
Q 1503 125 1713 113 
L 1713 0 
L 134 0 
L 134 113 
Q 328 119 422 225 
Q 484 297 484 606 
L 484 3631 
Q 484 3938 412 4023 
Q 341 4109 134 4122 
L 134 4238 
L 1359 4238 
z
" transform="scale(0.015625)"/>
      <path id="TimesNewRomanPS-BoldMT-61" d="M 1828 431 
Q 1294 -41 869 -41 
Q 619 -41 453 123 
Q 288 288 288 534 
Q 288 869 575 1136 
Q 863 1403 1828 1847 
L 1828 2141 
Q 1828 2472 1792 2558 
Q 1756 2644 1656 2708 
Q 1556 2772 1431 2772 
Q 1228 2772 1097 2681 
Q 1016 2625 1016 2550 
Q 1016 2484 1103 2388 
Q 1222 2253 1222 2128 
Q 1222 1975 1108 1867 
Q 994 1759 809 1759 
Q 613 1759 480 1878 
Q 347 1997 347 2156 
Q 347 2381 525 2586 
Q 703 2791 1022 2900 
Q 1341 3009 1684 3009 
Q 2100 3009 2342 2832 
Q 2584 2656 2656 2450 
Q 2700 2319 2700 1847 
L 2700 713 
Q 2700 513 2715 461 
Q 2731 409 2762 384 
Q 2794 359 2834 359 
Q 2916 359 3000 475 
L 3094 400 
Q 2938 169 2770 64 
Q 2603 -41 2391 -41 
Q 2141 -41 2000 76 
Q 1859 194 1828 431 
z
M 1828 659 
L 1828 1638 
Q 1450 1416 1266 1163 
Q 1144 994 1144 822 
Q 1144 678 1247 569 
Q 1325 484 1466 484 
Q 1622 484 1828 659 
z
" transform="scale(0.015625)"/>
      <path id="TimesNewRomanPS-BoldMT-74" d="M 1375 3991 
L 1375 2922 
L 2069 2922 
L 2069 2613 
L 1375 2613 
L 1375 809 
Q 1375 556 1398 482 
Q 1422 409 1481 364 
Q 1541 319 1591 319 
Q 1794 319 1975 628 
L 2069 559 
Q 1816 -41 1247 -41 
Q 969 -41 776 114 
Q 584 269 531 459 
Q 500 566 500 1034 
L 500 2613 
L 119 2613 
L 119 2722 
Q 513 3000 789 3306 
Q 1066 3613 1272 3991 
L 1375 3991 
z
" transform="scale(0.015625)"/>
      <path id="TimesNewRomanPS-BoldMT-69" d="M 919 4338 
Q 1122 4338 1262 4195 
Q 1403 4053 1403 3853 
Q 1403 3653 1261 3512 
Q 1119 3372 919 3372 
Q 719 3372 578 3512 
Q 438 3653 438 3853 
Q 438 4053 578 4195 
Q 719 4338 919 4338 
z
M 1356 2922 
L 1356 606 
Q 1356 297 1428 211 
Q 1500 125 1709 113 
L 1709 0 
L 131 0 
L 131 113 
Q 325 119 419 225 
Q 481 297 481 606 
L 481 2313 
Q 481 2622 409 2708 
Q 338 2794 131 2806 
L 131 2922 
L 1356 2922 
z
" transform="scale(0.015625)"/>
      <path id="TimesNewRomanPS-BoldMT-63" d="M 2600 753 
L 2697 678 
Q 2491 291 2183 101 
Q 1875 -88 1528 -88 
Q 944 -88 594 353 
Q 244 794 244 1413 
Q 244 2009 563 2463 
Q 947 3009 1622 3009 
Q 2075 3009 2342 2781 
Q 2609 2553 2609 2272 
Q 2609 2094 2501 1987 
Q 2394 1881 2219 1881 
Q 2034 1881 1914 2003 
Q 1794 2125 1766 2438 
Q 1747 2634 1675 2713 
Q 1603 2791 1506 2791 
Q 1356 2791 1250 2631 
Q 1088 2391 1088 1894 
Q 1088 1481 1219 1104 
Q 1350 728 1578 544 
Q 1750 409 1984 409 
Q 2138 409 2275 481 
Q 2413 553 2600 753 
z
" transform="scale(0.015625)"/>
      <path id="TimesNewRomanPS-BoldMT-6e" d="M 1409 2922 
L 1409 2544 
Q 1634 2788 1840 2898 
Q 2047 3009 2284 3009 
Q 2569 3009 2756 2851 
Q 2944 2694 3006 2459 
Q 3056 2281 3056 1775 
L 3056 638 
Q 3056 300 3117 217 
Q 3178 134 3372 113 
L 3372 0 
L 1894 0 
L 1894 113 
Q 2059 134 2131 250 
Q 2181 328 2181 638 
L 2181 1938 
Q 2181 2297 2153 2390 
Q 2125 2484 2058 2536 
Q 1991 2588 1909 2588 
Q 1641 2588 1409 2203 
L 1409 638 
Q 1409 309 1470 221 
Q 1531 134 1697 113 
L 1697 0 
L 219 0 
L 219 113 
Q 403 131 481 231 
Q 534 300 534 638 
L 534 2288 
Q 534 2619 473 2700 
Q 413 2781 219 2806 
L 219 2922 
L 1409 2922 
z
" transform="scale(0.015625)"/>
      <path id="TimesNewRomanPS-BoldMT-67" d="M 2091 2888 
L 3075 2888 
L 3075 2544 
L 2516 2544 
Q 2669 2391 2728 2266 
Q 2803 2097 2803 1913 
Q 2803 1600 2629 1370 
Q 2456 1141 2157 1011 
Q 1859 881 1628 881 
Q 1609 881 1253 897 
Q 1113 897 1017 805 
Q 922 713 922 584 
Q 922 472 1008 400 
Q 1094 328 1288 328 
L 1828 334 
Q 2484 334 2731 191 
Q 3084 -9 3084 -425 
Q 3084 -691 2921 -908 
Q 2759 -1125 2494 -1228 
Q 2091 -1381 1566 -1381 
Q 1172 -1381 847 -1304 
Q 522 -1228 381 -1092 
Q 241 -956 241 -806 
Q 241 -663 348 -548 
Q 456 -434 750 -356 
Q 344 -156 344 200 
Q 344 416 509 619 
Q 675 822 1034 972 
Q 616 1125 428 1375 
Q 241 1625 241 1953 
Q 241 2381 591 2695 
Q 941 3009 1491 3009 
Q 1781 3009 2091 2888 
z
M 1550 2816 
Q 1369 2816 1244 2633 
Q 1119 2450 1119 1875 
Q 1119 1409 1242 1236 
Q 1366 1063 1534 1063 
Q 1722 1063 1847 1234 
Q 1972 1406 1972 1903 
Q 1972 2463 1831 2666 
Q 1731 2816 1550 2816 
z
M 1366 -431 
Q 1047 -431 944 -484 
Q 766 -581 766 -747 
Q 766 -906 950 -1036 
Q 1134 -1166 1644 -1166 
Q 2078 -1166 2326 -1050 
Q 2575 -934 2575 -725 
Q 2575 -647 2528 -594 
Q 2444 -500 2273 -465 
Q 2103 -431 1366 -431 
z
" transform="scale(0.015625)"/>
      <path id="TimesNewRomanPS-BoldMT-76" d="M 1534 -88 
L 550 2178 
Q 372 2588 272 2697 
Q 200 2778 59 2806 
L 59 2922 
L 1613 2922 
L 1613 2806 
Q 1466 2806 1413 2753 
Q 1338 2684 1338 2591 
Q 1338 2475 1475 2156 
L 1956 1059 
L 2341 2006 
Q 2506 2413 2506 2581 
Q 2506 2678 2436 2739 
Q 2366 2800 2188 2806 
L 2188 2922 
L 3144 2922 
L 3144 2806 
Q 3006 2788 2918 2703 
Q 2831 2619 2656 2206 
L 1681 -88 
L 1534 -88 
z
" transform="scale(0.015625)"/>
      <path id="TimesNewRomanPS-BoldMT-73" d="M 2063 3003 
L 2109 2006 
L 2003 2006 
Q 1813 2450 1608 2612 
Q 1403 2775 1200 2775 
Q 1072 2775 981 2689 
Q 891 2603 891 2491 
Q 891 2406 953 2328 
Q 1053 2200 1512 1889 
Q 1972 1578 2117 1361 
Q 2263 1144 2263 875 
Q 2263 631 2141 397 
Q 2019 163 1797 37 
Q 1575 -88 1306 -88 
Q 1097 -88 747 44 
Q 653 78 619 78 
Q 516 78 447 -78 
L 344 -78 
L 294 972 
L 400 972 
Q 541 559 786 353 
Q 1031 147 1250 147 
Q 1400 147 1495 239 
Q 1591 331 1591 463 
Q 1591 613 1497 722 
Q 1403 831 1078 1053 
Q 600 1384 459 1559 
Q 253 1816 253 2125 
Q 253 2463 486 2736 
Q 719 3009 1159 3009 
Q 1397 3009 1619 2894 
Q 1703 2847 1756 2847 
Q 1813 2847 1847 2870 
Q 1881 2894 1956 3003 
L 2063 3003 
z
" transform="scale(0.015625)"/>
      <path id="TimesNewRomanPS-BoldMT-28" d="M 2056 4334 
L 2056 4191 
Q 1731 3978 1578 3775 
Q 1366 3494 1247 3053 
Q 1097 2506 1097 1525 
Q 1097 600 1233 87 
Q 1369 -425 1603 -741 
Q 1766 -959 2056 -1125 
L 2056 -1281 
Q 1303 -1028 779 -248 
Q 256 531 256 1544 
Q 256 2544 778 3314 
Q 1300 4084 2056 4334 
z
" transform="scale(0.015625)"/>
      <path id="TimesNewRomanPS-BoldMT-29" d="M 78 -1281 
L 78 -1138 
Q 403 -922 556 -719 
Q 766 -438 888 0 
Q 1038 550 1038 1531 
Q 1038 2456 902 2967 
Q 766 3478 531 3794 
Q 369 4013 78 4178 
L 78 4334 
Q 831 4081 1354 3301 
Q 1878 2522 1878 1509 
Q 1878 513 1354 -257 
Q 831 -1028 78 -1281 
z
" transform="scale(0.015625)"/>
     </defs>
     <use xlink:href="#TimesNewRomanPS-BoldMT-4e"/>
     <use xlink:href="#TimesNewRomanPS-BoldMT-75" x="72.216797"/>
     <use xlink:href="#TimesNewRomanPS-BoldMT-6d" x="127.832031"/>
     <use xlink:href="#TimesNewRomanPS-BoldMT-62" x="211.132812"/>
     <use xlink:href="#TimesNewRomanPS-BoldMT-65" x="266.748047"/>
     <use xlink:href="#TimesNewRomanPS-BoldMT-72" x="311.132812"/>
     <use xlink:href="#TimesNewRomanPS-BoldMT-20" x="353.767578"/>
     <use xlink:href="#TimesNewRomanPS-BoldMT-6f" x="378.767578"/>
     <use xlink:href="#TimesNewRomanPS-BoldMT-66" x="428.767578"/>
     <use xlink:href="#TimesNewRomanPS-BoldMT-20" x="462.068359"/>
     <use xlink:href="#TimesNewRomanPS-BoldMT-70" x="487.068359"/>
     <use xlink:href="#TimesNewRomanPS-BoldMT-65" x="542.683594"/>
     <use xlink:href="#TimesNewRomanPS-BoldMT-6f" x="587.068359"/>
     <use xlink:href="#TimesNewRomanPS-BoldMT-70" x="637.068359"/>
     <use xlink:href="#TimesNewRomanPS-BoldMT-6c" x="692.683594"/>
     <use xlink:href="#TimesNewRomanPS-BoldMT-65" x="720.466797"/>
     <use xlink:href="#TimesNewRomanPS-BoldMT-20" x="764.851562"/>
     <use xlink:href="#TimesNewRomanPS-BoldMT-70" x="789.851562"/>
     <use xlink:href="#TimesNewRomanPS-BoldMT-61" x="845.466797"/>
     <use xlink:href="#TimesNewRomanPS-BoldMT-72" x="895.466797"/>
     <use xlink:href="#TimesNewRomanPS-BoldMT-74" x="939.851562"/>
     <use xlink:href="#TimesNewRomanPS-BoldMT-69" x="973.152344"/>
     <use xlink:href="#TimesNewRomanPS-BoldMT-63" x="1000.935547"/>
     <use xlink:href="#TimesNewRomanPS-BoldMT-69" x="1045.320312"/>
     <use xlink:href="#TimesNewRomanPS-BoldMT-70" x="1073.103516"/>
     <use xlink:href="#TimesNewRomanPS-BoldMT-61" x="1128.71875"/>
     <use xlink:href="#TimesNewRomanPS-BoldMT-74" x="1178.71875"/>
     <use xlink:href="#TimesNewRomanPS-BoldMT-69" x="1212.019531"/>
     <use xlink:href="#TimesNewRomanPS-BoldMT-6e" x="1239.802734"/>
     <use xlink:href="#TimesNewRomanPS-BoldMT-67" x="1295.417969"/>
     <use xlink:href="#TimesNewRomanPS-BoldMT-20" x="1345.417969"/>
     <use xlink:href="#TimesNewRomanPS-BoldMT-69" x="1370.417969"/>
     <use xlink:href="#TimesNewRomanPS-BoldMT-6e" x="1398.201172"/>
     <use xlink:href="#TimesNewRomanPS-BoldMT-20" x="1453.816406"/>
     <use xlink:href="#TimesNewRomanPS-BoldMT-63" x="1478.816406"/>
     <use xlink:href="#TimesNewRomanPS-BoldMT-75" x="1523.201172"/>
     <use xlink:href="#TimesNewRomanPS-BoldMT-6c" x="1578.816406"/>
     <use xlink:href="#TimesNewRomanPS-BoldMT-74" x="1606.599609"/>
     <use xlink:href="#TimesNewRomanPS-BoldMT-75" x="1639.900391"/>
     <use xlink:href="#TimesNewRomanPS-BoldMT-72" x="1695.515625"/>
     <use xlink:href="#TimesNewRomanPS-BoldMT-61" x="1739.900391"/>
     <use xlink:href="#TimesNewRomanPS-BoldMT-6c" x="1789.900391"/>
     <use xlink:href="#TimesNewRomanPS-BoldMT-20" x="1817.683594"/>
     <use xlink:href="#TimesNewRomanPS-BoldMT-61" x="1842.683594"/>
     <use xlink:href="#TimesNewRomanPS-BoldMT-63" x="1892.683594"/>
     <use xlink:href="#TimesNewRomanPS-BoldMT-74" x="1937.068359"/>
     <use xlink:href="#TimesNewRomanPS-BoldMT-69" x="1970.369141"/>
     <use xlink:href="#TimesNewRomanPS-BoldMT-76" x="1998.152344"/>
     <use xlink:href="#TimesNewRomanPS-BoldMT-69" x="2048.152344"/>
     <use xlink:href="#TimesNewRomanPS-BoldMT-74" x="2075.935547"/>
     <use xlink:href="#TimesNewRomanPS-BoldMT-69" x="2109.236328"/>
     <use xlink:href="#TimesNewRomanPS-BoldMT-65" x="2137.019531"/>
     <use xlink:href="#TimesNewRomanPS-BoldMT-73" x="2181.404297"/>
     <use xlink:href="#TimesNewRomanPS-BoldMT-20" x="2220.320312"/>
     <use xlink:href="#TimesNewRomanPS-BoldMT-61" x="2245.320312"/>
     <use xlink:href="#TimesNewRomanPS-BoldMT-63" x="2295.320312"/>
     <use xlink:href="#TimesNewRomanPS-BoldMT-72" x="2339.705078"/>
     <use xlink:href="#TimesNewRomanPS-BoldMT-6f" x="2382.339844"/>
     <use xlink:href="#TimesNewRomanPS-BoldMT-73" x="2432.339844"/>
     <use xlink:href="#TimesNewRomanPS-BoldMT-73" x="2471.255859"/>
     <use xlink:href="#TimesNewRomanPS-BoldMT-20" x="2510.171875"/>
     <use xlink:href="#TimesNewRomanPS-BoldMT-72" x="2535.171875"/>
     <use xlink:href="#TimesNewRomanPS-BoldMT-65" x="2577.806641"/>
     <use xlink:href="#TimesNewRomanPS-BoldMT-67" x="2622.191406"/>
     <use xlink:href="#TimesNewRomanPS-BoldMT-69" x="2672.191406"/>
     <use xlink:href="#TimesNewRomanPS-BoldMT-6f" x="2699.974609"/>
     <use xlink:href="#TimesNewRomanPS-BoldMT-6e" x="2749.974609"/>
     <use xlink:href="#TimesNewRomanPS-BoldMT-73" x="2805.589844"/>
     <use xlink:href="#TimesNewRomanPS-BoldMT-20" x="2844.505859"/>
     <use xlink:href="#TimesNewRomanPS-BoldMT-28" x="2869.505859"/>
     <use xlink:href="#TimesNewRomanPS-BoldMT-6e" x="2902.806641"/>
     <use xlink:href="#TimesNewRomanPS-BoldMT-75" x="2958.421875"/>
     <use xlink:href="#TimesNewRomanPS-BoldMT-6d" x="3014.037109"/>
     <use xlink:href="#TimesNewRomanPS-BoldMT-62" x="3097.337891"/>
     <use xlink:href="#TimesNewRomanPS-BoldMT-65" x="3152.953125"/>
     <use xlink:href="#TimesNewRomanPS-BoldMT-72" x="3197.337891"/>
     <use xlink:href="#TimesNewRomanPS-BoldMT-29" x="3241.722656"/>
    </g>
   </g>
  </g>
 </g>
 <defs>
  <clipPath id="pc1a1d4a748">
   <rect x="80.8" y="30.045" width="376.8" height="229.809775"/>
  </clipPath>
 </defs>
</svg>
