<?xml version="1.0" encoding="utf-8" standalone="no"?>
<!DOCTYPE svg PUBLIC "-//W3C//DTD SVG 1.1//EN"
  "http://www.w3.org/Graphics/SVG/1.1/DTD/svg11.dtd">
<svg xmlns:xlink="http://www.w3.org/1999/xlink" width="434.925937pt" height="319.962461pt" viewBox="0 0 434.925937 319.962461" xmlns="http://www.w3.org/2000/svg" version="1.1">
 <metadata>
  <rdf:RDF xmlns:dc="http://purl.org/dc/elements/1.1/" xmlns:cc="http://creativecommons.org/ns#" xmlns:rdf="http://www.w3.org/1999/02/22-rdf-syntax-ns#">
   <cc:Work>
    <dc:type rdf:resource="http://purl.org/dc/dcmitype/StillImage"/>
    <dc:date>2025-05-26T17:21:42.326153</dc:date>
    <dc:format>image/svg+xml</dc:format>
    <dc:creator>
     <cc:Agent>
      <dc:title>Matplotlib v3.7.2, https://matplotlib.org/</dc:title>
     </cc:Agent>
    </dc:creator>
   </cc:Work>
  </rdf:RDF>
 </metadata>
 <defs>
  <style type="text/css">*{stroke-linejoin: round; stroke-linecap: butt}</style>
 </defs>
 <g id="figure_1">
  <g id="patch_1">
   <path d="M 0 319.962461 
L 434.925937 319.962461 
L 434.925937 -0 
L 0 -0 
z
" style="fill: #ffffff"/>
  </g>
  <g id="axes_1">
   <g id="patch_2">
    <path d="M 45.915937 229.459894 
L 427.725937 229.459894 
L 427.725937 30.045 
L 45.915937 30.045 
z
" style="fill: #ffffff"/>
   </g>
   <g id="PolyCollection_1">
    <defs>
     <path id="ma984d815d7" d="M 86.212612 -160.845981 
L 81.981263 -160.845981 
L 81.678327 -161.571323 
L 81.346322 -162.296666 
L 80.981143 -163.022008 
L 80.57797 -163.747351 
L 80.131488 -164.472693 
L 79.636167 -165.198035 
L 79.086534 -165.923378 
L 78.477414 -166.64872 
L 77.804098 -167.374063 
L 77.062442 -168.099405 
L 76.248915 -168.824748 
L 75.360625 -169.55009 
L 74.395386 -170.275433 
L 73.351858 -171.000775 
L 72.229813 -171.726117 
L 71.030531 -172.45146 
L 69.757315 -173.176802 
L 68.416078 -173.902145 
L 67.01594 -174.627487 
L 65.569751 -175.35283 
L 64.094452 -176.078172 
L 62.611191 -176.803515 
L 61.145127 -177.528857 
L 59.724876 -178.254199 
L 58.381576 -178.979542 
L 57.147577 -179.704884 
L 56.054806 -180.430227 
L 55.132869 -181.155569 
L 54.407021 -181.880912 
L 53.896134 -182.606254 
L 53.610855 -183.331597 
L 53.552138 -184.056939 
L 53.710344 -184.782281 
L 54.065091 -185.507624 
L 54.585939 -186.232966 
L 55.23399 -186.958309 
L 55.964325 -187.683651 
L 56.729127 -188.408994 
L 57.481271 -189.134336 
L 58.178046 -189.859678 
L 58.784654 -190.585021 
L 59.277158 -191.310363 
L 59.644531 -192.035706 
L 59.889581 -192.761048 
L 60.028613 -193.486391 
L 60.089811 -194.211733 
L 60.110474 -194.937076 
L 60.133349 -195.662418 
L 60.202428 -196.38776 
L 60.358646 -197.113103 
L 60.635936 -197.838445 
L 61.058077 -198.563788 
L 61.636674 -199.28913 
L 62.370471 -200.014473 
L 63.246047 -200.739815 
L 64.23975 -201.465158 
L 65.320583 -202.1905 
L 66.45366 -202.915842 
L 67.603759 -203.641185 
L 68.738563 -204.366527 
L 69.831228 -205.09187 
L 70.862045 -205.817212 
L 71.819103 -206.542555 
L 72.698014 -207.267897 
L 73.500864 -207.99324 
L 74.234632 -208.718582 
L 74.909372 -209.443924 
L 75.536415 -210.169267 
L 76.126809 -210.894609 
L 76.690145 -211.619952 
L 77.233828 -212.345294 
L 77.762789 -213.070637 
L 78.279553 -213.795979 
L 78.784569 -214.521321 
L 79.276687 -215.246664 
L 79.753668 -215.972006 
L 80.212653 -216.697349 
L 80.650544 -217.422691 
L 81.064279 -218.148034 
L 81.451 -218.873376 
L 81.808156 -219.598719 
L 82.133555 -220.324061 
L 82.425402 -221.049403 
L 82.682345 -221.774746 
L 82.903531 -222.500088 
L 83.088691 -223.225431 
L 83.238225 -223.950773 
L 83.353299 -224.676116 
L 83.435913 -225.401458 
L 83.488935 -226.126801 
L 83.516094 -226.852143 
L 83.521886 -227.577485 
L 83.511428 -228.302828 
L 83.490224 -229.02817 
L 83.463871 -229.753513 
L 83.437735 -230.478855 
L 83.416603 -231.204198 
L 83.404376 -231.92954 
L 83.403827 -232.654883 
L 84.790048 -232.654883 
L 84.790048 -232.654883 
L 84.789499 -231.92954 
L 84.777272 -231.204198 
L 84.75614 -230.478855 
L 84.730004 -229.753513 
L 84.703651 -229.02817 
L 84.682447 -228.302828 
L 84.671989 -227.577485 
L 84.677781 -226.852143 
L 84.70494 -226.126801 
L 84.757962 -225.401458 
L 84.840576 -224.676116 
L 84.95565 -223.950773 
L 85.105184 -223.225431 
L 85.290344 -222.500088 
L 85.51153 -221.774746 
L 85.768473 -221.049403 
L 86.06032 -220.324061 
L 86.385719 -219.598719 
L 86.742875 -218.873376 
L 87.129596 -218.148034 
L 87.543331 -217.422691 
L 87.981222 -216.697349 
L 88.440207 -215.972006 
L 88.917188 -215.246664 
L 89.409306 -214.521321 
L 89.914322 -213.795979 
L 90.431086 -213.070637 
L 90.960047 -212.345294 
L 91.50373 -211.619952 
L 92.067066 -210.894609 
L 92.65746 -210.169267 
L 93.284503 -209.443924 
L 93.959243 -208.718582 
L 94.693011 -207.99324 
L 95.495861 -207.267897 
L 96.374772 -206.542555 
L 97.33183 -205.817212 
L 98.362647 -205.09187 
L 99.455312 -204.366527 
L 100.590116 -203.641185 
L 101.740215 -202.915842 
L 102.873292 -202.1905 
L 103.954125 -201.465158 
L 104.947828 -200.739815 
L 105.823404 -200.014473 
L 106.557201 -199.28913 
L 107.135798 -198.563788 
L 107.557939 -197.838445 
L 107.835229 -197.113103 
L 107.991447 -196.38776 
L 108.060526 -195.662418 
L 108.083401 -194.937076 
L 108.104064 -194.211733 
L 108.165262 -193.486391 
L 108.304294 -192.761048 
L 108.549344 -192.035706 
L 108.916717 -191.310363 
L 109.409221 -190.585021 
L 110.015829 -189.859678 
L 110.712604 -189.134336 
L 111.464748 -188.408994 
L 112.22955 -187.683651 
L 112.959885 -186.958309 
L 113.607936 -186.232966 
L 114.128784 -185.507624 
L 114.483531 -184.782281 
L 114.641738 -184.056939 
L 114.58302 -183.331597 
L 114.297741 -182.606254 
L 113.786854 -181.880912 
L 113.061006 -181.155569 
L 112.139069 -180.430227 
L 111.046298 -179.704884 
L 109.812299 -178.979542 
L 108.468999 -178.254199 
L 107.048748 -177.528857 
L 105.582684 -176.803515 
L 104.099423 -176.078172 
L 102.624124 -175.35283 
L 101.177935 -174.627487 
L 99.777797 -173.902145 
L 98.43656 -173.176802 
L 97.163344 -172.45146 
L 95.964062 -171.726117 
L 94.842017 -171.000775 
L 93.798489 -170.275433 
L 92.83325 -169.55009 
L 91.94496 -168.824748 
L 91.131433 -168.099405 
L 90.389777 -167.374063 
L 89.716461 -166.64872 
L 89.107341 -165.923378 
L 88.557708 -165.198035 
L 88.062387 -164.472693 
L 87.615905 -163.747351 
L 87.212732 -163.022008 
L 86.847553 -162.296666 
L 86.515548 -161.571323 
L 86.212612 -160.845981 
z
" style="stroke: #000000; stroke-opacity: 0.7"/>
    </defs>
    <g clip-path="url(#p98f953ce77)">
     <use xlink:href="#ma984d815d7" x="0" y="319.962461" style="fill: #9467bd; fill-opacity: 0.7; stroke: #000000; stroke-opacity: 0.7"/>
    </g>
   </g>
   <g id="PolyCollection_2">
    <defs>
     <path id="m0d4dee0d99" d="M 162.253562 -132.784604 
L 158.664313 -132.784604 
L 158.457897 -134.280245 
L 158.243715 -135.775887 
L 158.02253 -137.271529 
L 157.794976 -138.767171 
L 157.56152 -140.262813 
L 157.322375 -141.758455 
L 157.077379 -143.254097 
L 156.825806 -144.749738 
L 156.566139 -146.24538 
L 156.295807 -147.741022 
L 156.010928 -149.236664 
L 155.7061 -150.732306 
L 155.374303 -152.227948 
L 155.006963 -153.72359 
L 154.594215 -155.219231 
L 154.125406 -156.714873 
L 153.589818 -158.210515 
L 152.977587 -159.706157 
L 152.28073 -161.201799 
L 151.494183 -162.697441 
L 150.616723 -164.193083 
L 149.65163 -165.688724 
L 148.60698 -167.184366 
L 147.495485 -168.680008 
L 146.333827 -170.17565 
L 145.141541 -171.671292 
L 143.939522 -173.166934 
L 142.748327 -174.662576 
L 141.586465 -176.158217 
L 140.468901 -177.653859 
L 139.405976 -179.149501 
L 138.402916 -180.645143 
L 137.460012 -182.140785 
L 136.573474 -183.636427 
L 135.736862 -185.132069 
L 134.942904 -186.62771 
L 134.185447 -188.123352 
L 133.461269 -189.618994 
L 132.771462 -191.114636 
L 132.122194 -192.610278 
L 131.524702 -194.10592 
L 130.994513 -195.601562 
L 130.549986 -197.097203 
L 130.210354 -198.592845 
L 129.99356 -200.088487 
L 129.914138 -201.584129 
L 129.981448 -203.079771 
L 130.198461 -204.575413 
L 130.561231 -206.071055 
L 131.059098 -207.566696 
L 131.67555 -209.062338 
L 132.389606 -210.55798 
L 133.177532 -212.053622 
L 134.014663 -213.549264 
L 134.877149 -215.044906 
L 135.743439 -216.540548 
L 136.595421 -218.03619 
L 137.419139 -219.531831 
L 138.205121 -221.027473 
L 138.948359 -222.523115 
L 139.648009 -224.018757 
L 140.30691 -225.514399 
L 140.930977 -227.010041 
L 141.528533 -228.505683 
L 142.109607 -230.001324 
L 142.685203 -231.496966 
L 143.266549 -232.992608 
L 143.864332 -234.48825 
L 144.487929 -235.983892 
L 145.144671 -237.479534 
L 145.839204 -238.975176 
L 146.572999 -240.470817 
L 147.34409 -241.966459 
L 148.147069 -243.462101 
L 148.97339 -244.957743 
L 149.811945 -246.453385 
L 150.649859 -247.949027 
L 151.473447 -249.444669 
L 152.269191 -250.94031 
L 153.02467 -252.435952 
L 153.729324 -253.931594 
L 154.375005 -255.427236 
L 154.956278 -256.922878 
L 155.470486 -258.41852 
L 155.917604 -259.914162 
L 156.299958 -261.409803 
L 156.621844 -262.905445 
L 156.889126 -264.401087 
L 157.108827 -265.896729 
L 157.288755 -267.392371 
L 157.43715 -268.888013 
L 157.562357 -270.383655 
L 157.672505 -271.879296 
L 157.775189 -273.374938 
L 157.877162 -274.87058 
L 157.984047 -276.366222 
L 158.100091 -277.861864 
L 158.227998 -279.357506 
L 158.368861 -280.853148 
L 162.549014 -280.853148 
L 162.549014 -280.853148 
L 162.689877 -279.357506 
L 162.817784 -277.861864 
L 162.933828 -276.366222 
L 163.040713 -274.87058 
L 163.142686 -273.374938 
L 163.24537 -271.879296 
L 163.355518 -270.383655 
L 163.480725 -268.888013 
L 163.62912 -267.392371 
L 163.809048 -265.896729 
L 164.028749 -264.401087 
L 164.296031 -262.905445 
L 164.617917 -261.409803 
L 165.000271 -259.914162 
L 165.447389 -258.41852 
L 165.961597 -256.922878 
L 166.54287 -255.427236 
L 167.188551 -253.931594 
L 167.893205 -252.435952 
L 168.648684 -250.94031 
L 169.444428 -249.444669 
L 170.268016 -247.949027 
L 171.10593 -246.453385 
L 171.944485 -244.957743 
L 172.770806 -243.462101 
L 173.573785 -241.966459 
L 174.344876 -240.470817 
L 175.078671 -238.975176 
L 175.773204 -237.479534 
L 176.429946 -235.983892 
L 177.053543 -234.48825 
L 177.651326 -232.992608 
L 178.232672 -231.496966 
L 178.808268 -230.001324 
L 179.389342 -228.505683 
L 179.986898 -227.010041 
L 180.610965 -225.514399 
L 181.269866 -224.018757 
L 181.969516 -222.523115 
L 182.712754 -221.027473 
L 183.498736 -219.531831 
L 184.322454 -218.03619 
L 185.174436 -216.540548 
L 186.040726 -215.044906 
L 186.903212 -213.549264 
L 187.740343 -212.053622 
L 188.528269 -210.55798 
L 189.242325 -209.062338 
L 189.858777 -207.566696 
L 190.356644 -206.071055 
L 190.719414 -204.575413 
L 190.936427 -203.079771 
L 191.003738 -201.584129 
L 190.924315 -200.088487 
L 190.707521 -198.592845 
L 190.367889 -197.097203 
L 189.923362 -195.601562 
L 189.393173 -194.10592 
L 188.795681 -192.610278 
L 188.146413 -191.114636 
L 187.456606 -189.618994 
L 186.732428 -188.123352 
L 185.974971 -186.62771 
L 185.181013 -185.132069 
L 184.344401 -183.636427 
L 183.457863 -182.140785 
L 182.514959 -180.645143 
L 181.511899 -179.149501 
L 180.448974 -177.653859 
L 179.33141 -176.158217 
L 178.169548 -174.662576 
L 176.978353 -173.166934 
L 175.776334 -171.671292 
L 174.584048 -170.17565 
L 173.42239 -168.680008 
L 172.310895 -167.184366 
L 171.266245 -165.688724 
L 170.301152 -164.193083 
L 169.423692 -162.697441 
L 168.637145 -161.201799 
L 167.940288 -159.706157 
L 167.328057 -158.210515 
L 166.792469 -156.714873 
L 166.32366 -155.219231 
L 165.910912 -153.72359 
L 165.543572 -152.227948 
L 165.211775 -150.732306 
L 164.906947 -149.236664 
L 164.622068 -147.741022 
L 164.351736 -146.24538 
L 164.092069 -144.749738 
L 163.840496 -143.254097 
L 163.5955 -141.758455 
L 163.356355 -140.262813 
L 163.122899 -138.767171 
L 162.895345 -137.271529 
L 162.67416 -135.775887 
L 162.459978 -134.280245 
L 162.253562 -132.784604 
z
" style="stroke: #000000; stroke-opacity: 0.7"/>
    </defs>
    <g clip-path="url(#p98f953ce77)">
     <use xlink:href="#m0d4dee0d99" x="0" y="319.962461" style="fill: #e78ac3; fill-opacity: 0.7; stroke: #000000; stroke-opacity: 0.7"/>
    </g>
   </g>
   <g id="PolyCollection_3">
    <defs>
     <path id="m5093d6f2bd" d="M 239.505836 -112.213497 
L 234.136039 -112.213497 
L 233.787518 -113.083031 
L 233.418272 -113.952565 
L 233.030361 -114.822098 
L 232.626264 -115.691632 
L 232.208853 -116.561166 
L 231.78135 -117.430699 
L 231.347247 -118.300233 
L 230.910204 -119.169767 
L 230.473899 -120.039301 
L 230.041843 -120.908834 
L 229.617159 -121.778368 
L 229.202332 -122.647902 
L 228.798954 -123.517436 
L 228.407472 -124.386969 
L 228.026994 -125.256503 
L 227.655155 -126.126037 
L 227.288088 -126.99557 
L 226.920507 -127.865104 
L 226.545924 -128.734638 
L 226.156981 -129.604172 
L 225.74587 -130.473705 
L 225.304823 -131.343239 
L 224.826609 -132.212773 
L 224.304992 -133.082306 
L 223.735108 -133.95184 
L 223.113727 -134.821374 
L 222.439371 -135.690908 
L 221.7123 -136.560441 
L 220.934387 -137.429975 
L 220.108901 -138.299509 
L 219.240275 -139.169042 
L 218.333878 -140.038576 
L 217.395866 -140.90811 
L 216.433113 -141.777644 
L 215.453251 -142.647177 
L 214.464799 -143.516711 
L 213.477334 -144.386245 
L 212.501663 -145.255779 
L 211.549906 -146.125312 
L 210.635448 -146.994846 
L 209.772692 -147.86438 
L 208.976591 -148.733913 
L 208.261964 -149.603447 
L 207.642645 -150.472981 
L 207.130532 -151.342515 
L 206.734646 -152.212048 
L 206.460324 -153.081582 
L 206.308637 -153.951116 
L 206.276138 -154.820649 
L 206.354988 -155.690183 
L 206.533476 -156.559717 
L 206.796874 -157.429251 
L 207.128561 -158.298784 
L 207.511299 -159.168318 
L 207.928522 -160.037852 
L 208.365509 -160.907385 
L 208.810349 -161.776919 
L 209.254599 -162.646453 
L 209.693617 -163.515987 
L 210.126562 -164.38552 
L 210.556099 -165.255054 
L 210.987885 -166.124588 
L 211.429881 -166.994122 
L 211.891584 -167.863655 
L 212.38322 -168.733189 
L 212.914958 -169.602723 
L 213.496154 -170.472256 
L 214.134666 -171.34179 
L 214.836227 -172.211324 
L 215.603921 -173.080858 
L 216.43776 -173.950391 
L 217.334411 -174.819925 
L 218.287107 -175.689459 
L 219.285769 -176.558992 
L 220.317382 -177.428526 
L 221.366606 -178.29806 
L 222.416619 -179.167594 
L 223.450125 -180.037127 
L 224.450454 -180.906661 
L 225.402651 -181.776195 
L 226.294448 -182.645728 
L 227.11701 -183.515262 
L 227.865401 -184.384796 
L 228.538692 -185.25433 
L 229.139735 -186.123863 
L 229.674613 -186.993397 
L 230.151861 -187.862931 
L 230.581519 -188.732465 
L 230.974163 -189.601998 
L 231.339975 -190.471532 
L 231.687977 -191.341066 
L 232.02546 -192.210599 
L 232.35766 -193.080133 
L 232.687678 -193.949667 
L 233.0166 -194.819201 
L 233.343796 -195.688734 
L 233.667321 -196.558268 
L 233.984357 -197.427802 
L 234.291662 -198.297335 
L 239.350213 -198.297335 
L 239.350213 -198.297335 
L 239.657518 -197.427802 
L 239.974554 -196.558268 
L 240.298079 -195.688734 
L 240.625275 -194.819201 
L 240.954197 -193.949667 
L 241.284215 -193.080133 
L 241.616415 -192.210599 
L 241.953898 -191.341066 
L 242.3019 -190.471532 
L 242.667712 -189.601998 
L 243.060356 -188.732465 
L 243.490014 -187.862931 
L 243.967262 -186.993397 
L 244.50214 -186.123863 
L 245.103183 -185.25433 
L 245.776474 -184.384796 
L 246.524865 -183.515262 
L 247.347427 -182.645728 
L 248.239224 -181.776195 
L 249.191421 -180.906661 
L 250.19175 -180.037127 
L 251.225256 -179.167594 
L 252.275269 -178.29806 
L 253.324493 -177.428526 
L 254.356106 -176.558992 
L 255.354768 -175.689459 
L 256.307464 -174.819925 
L 257.204115 -173.950391 
L 258.037954 -173.080858 
L 258.805648 -172.211324 
L 259.507209 -171.34179 
L 260.145721 -170.472256 
L 260.726917 -169.602723 
L 261.258655 -168.733189 
L 261.750291 -167.863655 
L 262.211994 -166.994122 
L 262.65399 -166.124588 
L 263.085776 -165.255054 
L 263.515313 -164.38552 
L 263.948258 -163.515987 
L 264.387276 -162.646453 
L 264.831526 -161.776919 
L 265.276366 -160.907385 
L 265.713353 -160.037852 
L 266.130576 -159.168318 
L 266.513314 -158.298784 
L 266.845001 -157.429251 
L 267.108399 -156.559717 
L 267.286887 -155.690183 
L 267.365738 -154.820649 
L 267.333238 -153.951116 
L 267.181551 -153.081582 
L 266.907229 -152.212048 
L 266.511343 -151.342515 
L 265.99923 -150.472981 
L 265.379911 -149.603447 
L 264.665284 -148.733913 
L 263.869183 -147.86438 
L 263.006427 -146.994846 
L 262.091969 -146.125312 
L 261.140212 -145.255779 
L 260.164541 -144.386245 
L 259.177076 -143.516711 
L 258.188624 -142.647177 
L 257.208762 -141.777644 
L 256.246009 -140.90811 
L 255.307997 -140.038576 
L 254.4016 -139.169042 
L 253.532974 -138.299509 
L 252.707488 -137.429975 
L 251.929575 -136.560441 
L 251.202504 -135.690908 
L 250.528148 -134.821374 
L 249.906767 -133.95184 
L 249.336883 -133.082306 
L 248.815266 -132.212773 
L 248.337052 -131.343239 
L 247.896005 -130.473705 
L 247.484894 -129.604172 
L 247.095951 -128.734638 
L 246.721368 -127.865104 
L 246.353787 -126.99557 
L 245.98672 -126.126037 
L 245.614881 -125.256503 
L 245.234403 -124.386969 
L 244.842921 -123.517436 
L 244.439543 -122.647902 
L 244.024716 -121.778368 
L 243.600032 -120.908834 
L 243.167976 -120.039301 
L 242.731671 -119.169767 
L 242.294628 -118.300233 
L 241.860525 -117.430699 
L 241.433022 -116.561166 
L 241.015611 -115.691632 
L 240.611514 -114.822098 
L 240.223603 -113.952565 
L 239.854357 -113.083031 
L 239.505836 -112.213497 
z
" style="stroke: #000000; stroke-opacity: 0.7"/>
    </defs>
    <g clip-path="url(#p98f953ce77)">
     <use xlink:href="#m5093d6f2bd" x="0" y="319.962461" style="fill: #7f7f7f; fill-opacity: 0.7; stroke: #000000; stroke-opacity: 0.7"/>
    </g>
   </g>
   <g id="PolyCollection_4">
    <defs>
     <path id="maa5d3df657" d="M 314.561275 -136.366907 
L 311.8046 -136.366907 
L 311.620109 -137.156395 
L 311.416739 -137.945884 
L 311.192205 -138.735372 
L 310.94441 -139.524861 
L 310.67164 -140.314349 
L 310.372665 -141.103837 
L 310.046741 -141.893326 
L 309.6935 -142.682814 
L 309.312744 -143.472302 
L 308.904206 -144.261791 
L 308.467322 -145.051279 
L 308.001088 -145.840767 
L 307.504047 -146.630256 
L 306.974421 -147.419744 
L 306.410371 -148.209233 
L 305.810331 -148.998721 
L 305.173344 -149.788209 
L 304.499328 -150.577698 
L 303.789189 -151.367186 
L 303.044781 -152.156674 
L 302.2687 -152.946163 
L 301.463972 -153.735651 
L 300.633712 -154.52514 
L 299.780808 -155.314628 
L 298.907727 -156.104116 
L 298.01644 -156.893605 
L 297.108477 -157.683093 
L 296.185082 -158.472581 
L 295.247408 -159.26207 
L 294.29673 -160.051558 
L 293.334651 -160.841047 
L 292.363315 -161.630535 
L 291.385671 -162.420023 
L 290.405806 -163.209512 
L 289.429387 -163.999 
L 288.464151 -164.788488 
L 287.520375 -165.577977 
L 286.611176 -166.367465 
L 285.752486 -167.156954 
L 284.962558 -167.946442 
L 284.260938 -168.73593 
L 283.666926 -169.525419 
L 283.19768 -170.314907 
L 282.866223 -171.104395 
L 282.679691 -171.893884 
L 282.638138 -172.683372 
L 282.734182 -173.47286 
L 282.953639 -174.262349 
L 283.277108 -175.051837 
L 283.682343 -175.841326 
L 284.147075 -176.630814 
L 284.651869 -177.420302 
L 285.1826 -178.209791 
L 285.73217 -178.999279 
L 286.301222 -179.788767 
L 286.897757 -180.578256 
L 287.5357 -181.367744 
L 288.232645 -182.157233 
L 289.007083 -182.946721 
L 289.875501 -183.736209 
L 290.849719 -184.525698 
L 291.934798 -185.315186 
L 293.127773 -186.104674 
L 294.41731 -186.894163 
L 295.784313 -187.683651 
L 297.203345 -188.47314 
L 298.644667 -189.262628 
L 300.076614 -190.052116 
L 301.468032 -190.841605 
L 302.790503 -191.631093 
L 304.020136 -192.420581 
L 305.138791 -193.21007 
L 306.134667 -193.999558 
L 307.002291 -194.789047 
L 307.741986 -195.578535 
L 308.358972 -196.368023 
L 308.862239 -197.157512 
L 309.263373 -197.947 
L 309.575453 -198.736488 
L 309.812119 -199.525977 
L 309.986863 -200.315465 
L 310.112546 -201.104953 
L 310.201109 -201.894442 
L 310.263431 -202.68393 
L 310.309263 -203.473419 
L 310.347198 -204.262907 
L 310.384623 -205.052395 
L 310.427657 -205.841884 
L 310.481079 -206.631372 
L 310.548269 -207.42086 
L 310.631198 -208.210349 
L 310.730484 -208.999837 
L 310.845532 -209.789326 
L 310.974748 -210.578814 
L 311.115796 -211.368302 
L 311.265883 -212.157791 
L 311.422013 -212.947279 
L 311.5812 -213.736767 
L 311.740621 -214.526256 
L 314.625254 -214.526256 
L 314.625254 -214.526256 
L 314.784675 -213.736767 
L 314.943862 -212.947279 
L 315.099992 -212.157791 
L 315.250079 -211.368302 
L 315.391127 -210.578814 
L 315.520343 -209.789326 
L 315.635391 -208.999837 
L 315.734677 -208.210349 
L 315.817606 -207.42086 
L 315.884796 -206.631372 
L 315.938218 -205.841884 
L 315.981252 -205.052395 
L 316.018677 -204.262907 
L 316.056612 -203.473419 
L 316.102444 -202.68393 
L 316.164766 -201.894442 
L 316.253329 -201.104953 
L 316.379012 -200.315465 
L 316.553756 -199.525977 
L 316.790422 -198.736488 
L 317.102502 -197.947 
L 317.503636 -197.157512 
L 318.006903 -196.368023 
L 318.623889 -195.578535 
L 319.363584 -194.789047 
L 320.231208 -193.999558 
L 321.227084 -193.21007 
L 322.345739 -192.420581 
L 323.575372 -191.631093 
L 324.897843 -190.841605 
L 326.289261 -190.052116 
L 327.721208 -189.262628 
L 329.16253 -188.47314 
L 330.581562 -187.683651 
L 331.948565 -186.894163 
L 333.238102 -186.104674 
L 334.431077 -185.315186 
L 335.516156 -184.525698 
L 336.490374 -183.736209 
L 337.358792 -182.946721 
L 338.13323 -182.157233 
L 338.830175 -181.367744 
L 339.468118 -180.578256 
L 340.064653 -179.788767 
L 340.633705 -178.999279 
L 341.183275 -178.209791 
L 341.714006 -177.420302 
L 342.2188 -176.630814 
L 342.683532 -175.841326 
L 343.088767 -175.051837 
L 343.412236 -174.262349 
L 343.631693 -173.47286 
L 343.727738 -172.683372 
L 343.686184 -171.893884 
L 343.499652 -171.104395 
L 343.168195 -170.314907 
L 342.698949 -169.525419 
L 342.104937 -168.73593 
L 341.403317 -167.946442 
L 340.613389 -167.156954 
L 339.754699 -166.367465 
L 338.8455 -165.577977 
L 337.901724 -164.788488 
L 336.936488 -163.999 
L 335.960069 -163.209512 
L 334.980204 -162.420023 
L 334.00256 -161.630535 
L 333.031224 -160.841047 
L 332.069145 -160.051558 
L 331.118467 -159.26207 
L 330.180793 -158.472581 
L 329.257398 -157.683093 
L 328.349435 -156.893605 
L 327.458148 -156.104116 
L 326.585067 -155.314628 
L 325.732163 -154.52514 
L 324.901903 -153.735651 
L 324.097175 -152.946163 
L 323.321094 -152.156674 
L 322.576686 -151.367186 
L 321.866547 -150.577698 
L 321.192531 -149.788209 
L 320.555544 -148.998721 
L 319.955504 -148.209233 
L 319.391454 -147.419744 
L 318.861828 -146.630256 
L 318.364787 -145.840767 
L 317.898553 -145.051279 
L 317.461669 -144.261791 
L 317.053131 -143.472302 
L 316.672375 -142.682814 
L 316.319134 -141.893326 
L 315.99321 -141.103837 
L 315.694235 -140.314349 
L 315.421465 -139.524861 
L 315.17367 -138.735372 
L 314.949136 -137.945884 
L 314.745766 -137.156395 
L 314.561275 -136.366907 
z
" style="stroke: #000000; stroke-opacity: 0.7"/>
    </defs>
    <g clip-path="url(#p98f953ce77)">
     <use xlink:href="#maa5d3df657" x="0" y="319.962461" style="fill: #66c2a5; fill-opacity: 0.7; stroke: #000000; stroke-opacity: 0.7"/>
    </g>
   </g>
   <g id="PolyCollection_5">
    <defs>
     <path id="m2e2bab819a" d="M 390.213103 -99.56688 
L 388.876772 -99.56688 
L 388.85528 -101.086097 
L 388.8454 -102.605314 
L 388.842709 -104.124531 
L 388.842164 -105.643748 
L 388.839314 -107.162965 
L 388.831276 -108.682181 
L 388.8172 -110.201398 
L 388.798073 -111.720615 
L 388.775965 -113.239832 
L 388.752957 -114.759049 
L 388.730103 -116.278266 
L 388.706744 -117.797483 
L 388.680325 -119.316699 
L 388.646707 -120.835916 
L 388.600768 -122.355133 
L 388.53703 -123.87435 
L 388.450096 -125.393567 
L 388.334783 -126.912784 
L 388.186044 -128.432001 
L 387.998826 -129.951217 
L 387.768076 -131.470434 
L 387.488961 -132.989651 
L 387.157262 -134.508868 
L 386.769687 -136.028085 
L 386.323855 -137.547302 
L 385.817701 -139.066519 
L 385.248315 -140.585736 
L 384.610464 -142.104952 
L 383.895333 -143.624169 
L 383.090123 -145.143386 
L 382.179077 -146.662603 
L 381.146143 -148.18182 
L 379.978971 -149.701037 
L 378.673431 -151.220254 
L 377.23741 -152.73947 
L 375.692676 -154.258687 
L 374.073896 -155.777904 
L 372.424683 -157.297121 
L 370.791348 -158.816338 
L 369.215836 -160.335555 
L 367.729639 -161.854772 
L 366.350369 -163.373988 
L 365.081968 -164.893205 
L 363.918599 -166.412422 
L 362.85119 -167.931639 
L 361.874868 -169.450856 
L 360.995231 -170.970073 
L 360.231684 -172.48929 
L 359.616841 -174.008506 
L 359.192055 -175.527723 
L 359.000137 -177.04694 
L 359.077107 -178.566157 
L 359.444966 -180.085374 
L 360.107182 -181.604591 
L 361.047717 -183.123808 
L 362.233442 -184.643024 
L 363.618939 -186.162241 
L 365.152272 -187.681458 
L 366.780437 -189.200675 
L 368.453708 -190.719892 
L 370.128709 -192.239109 
L 371.770458 -193.758326 
L 373.353665 -195.277542 
L 374.863318 -196.796759 
L 376.294256 -198.315976 
L 377.64938 -199.835193 
L 378.93639 -201.35441 
L 380.163485 -202.873627 
L 381.335024 -204.392844 
L 382.448365 -205.91206 
L 383.492914 -207.431277 
L 384.451779 -208.950494 
L 385.30561 -210.469711 
L 386.037543 -211.988928 
L 386.637843 -213.508145 
L 387.106981 -215.027362 
L 387.456387 -216.546578 
L 387.706789 -218.065795 
L 387.884686 -219.585012 
L 388.017902 -221.104229 
L 388.131275 -222.623446 
L 388.243403 -224.142663 
L 388.36497 -225.66188 
L 388.498747 -227.181096 
L 388.641003 -228.700313 
L 388.783754 -230.21953 
L 388.917252 -231.738747 
L 389.03218 -233.257964 
L 389.121252 -234.777181 
L 389.180115 -236.296398 
L 389.207653 -237.815614 
L 389.205865 -239.334831 
L 389.179475 -240.854048 
L 389.135376 -242.373265 
L 389.081926 -243.892482 
L 389.028099 -245.411699 
L 388.982508 -246.930916 
L 388.952388 -248.450133 
L 388.9427 -249.969349 
L 390.147175 -249.969349 
L 390.147175 -249.969349 
L 390.137487 -248.450133 
L 390.107367 -246.930916 
L 390.061776 -245.411699 
L 390.007949 -243.892482 
L 389.954499 -242.373265 
L 389.9104 -240.854048 
L 389.88401 -239.334831 
L 389.882222 -237.815614 
L 389.90976 -236.296398 
L 389.968623 -234.777181 
L 390.057695 -233.257964 
L 390.172623 -231.738747 
L 390.306121 -230.21953 
L 390.448872 -228.700313 
L 390.591128 -227.181096 
L 390.724905 -225.66188 
L 390.846472 -224.142663 
L 390.9586 -222.623446 
L 391.071973 -221.104229 
L 391.205189 -219.585012 
L 391.383086 -218.065795 
L 391.633488 -216.546578 
L 391.982894 -215.027362 
L 392.452032 -213.508145 
L 393.052332 -211.988928 
L 393.784265 -210.469711 
L 394.638096 -208.950494 
L 395.596961 -207.431277 
L 396.64151 -205.91206 
L 397.754851 -204.392844 
L 398.92639 -202.873627 
L 400.153485 -201.35441 
L 401.440495 -199.835193 
L 402.795619 -198.315976 
L 404.226557 -196.796759 
L 405.73621 -195.277542 
L 407.319417 -193.758326 
L 408.961166 -192.239109 
L 410.636167 -190.719892 
L 412.309438 -189.200675 
L 413.937603 -187.681458 
L 415.470936 -186.162241 
L 416.856433 -184.643024 
L 418.042158 -183.123808 
L 418.982693 -181.604591 
L 419.644909 -180.085374 
L 420.012768 -178.566157 
L 420.089738 -177.04694 
L 419.89782 -175.527723 
L 419.473034 -174.008506 
L 418.858191 -172.48929 
L 418.094644 -170.970073 
L 417.215007 -169.450856 
L 416.238685 -167.931639 
L 415.171276 -166.412422 
L 414.007907 -164.893205 
L 412.739506 -163.373988 
L 411.360236 -161.854772 
L 409.874039 -160.335555 
L 408.298527 -158.816338 
L 406.665192 -157.297121 
L 405.015979 -155.777904 
L 403.397199 -154.258687 
L 401.852465 -152.73947 
L 400.416444 -151.220254 
L 399.110904 -149.701037 
L 397.943732 -148.18182 
L 396.910798 -146.662603 
L 395.999752 -145.143386 
L 395.194542 -143.624169 
L 394.479411 -142.104952 
L 393.84156 -140.585736 
L 393.272174 -139.066519 
L 392.76602 -137.547302 
L 392.320188 -136.028085 
L 391.932613 -134.508868 
L 391.600914 -132.989651 
L 391.321799 -131.470434 
L 391.091049 -129.951217 
L 390.903831 -128.432001 
L 390.755092 -126.912784 
L 390.639779 -125.393567 
L 390.552845 -123.87435 
L 390.489107 -122.355133 
L 390.443168 -120.835916 
L 390.40955 -119.316699 
L 390.383131 -117.797483 
L 390.359772 -116.278266 
L 390.336918 -114.759049 
L 390.31391 -113.239832 
L 390.291802 -111.720615 
L 390.272675 -110.201398 
L 390.258599 -108.682181 
L 390.250561 -107.162965 
L 390.247711 -105.643748 
L 390.247166 -104.124531 
L 390.244475 -102.605314 
L 390.234595 -101.086097 
L 390.213103 -99.56688 
z
" style="stroke: #000000; stroke-opacity: 0.7"/>
    </defs>
    <g clip-path="url(#p98f953ce77)">
     <use xlink:href="#m2e2bab819a" x="0" y="319.962461" style="fill: #1f77b4; fill-opacity: 0.7; stroke: #000000; stroke-opacity: 0.7"/>
    </g>
   </g>
   <g id="matplotlib.axis_1">
    <g id="xtick_1">
     <g id="line2d_1">
      <defs>
       <path id="m33d3242cf1" d="M 0 0 
L 0 3.5 
" style="stroke: #000000; stroke-width: 0.8"/>
      </defs>
      <g>
       <use xlink:href="#m33d3242cf1" x="84.096937" y="229.459894" style="stroke: #000000; stroke-width: 0.8"/>
      </g>
     </g>
     <g id="text_1">
      <!-- Sunnyvale Prep -->
      <g transform="translate(28.768925 295.848909) rotate(-45) scale(0.12 -0.12)">
       <defs>
        <path id="TimesNewRomanPSMT-53" d="M 2934 4334 
L 2934 2869 
L 2819 2869 
Q 2763 3291 2617 3541 
Q 2472 3791 2203 3937 
Q 1934 4084 1647 4084 
Q 1322 4084 1109 3886 
Q 897 3688 897 3434 
Q 897 3241 1031 3081 
Q 1225 2847 1953 2456 
Q 2547 2138 2764 1967 
Q 2981 1797 3098 1565 
Q 3216 1334 3216 1081 
Q 3216 600 2842 251 
Q 2469 -97 1881 -97 
Q 1697 -97 1534 -69 
Q 1438 -53 1133 45 
Q 828 144 747 144 
Q 669 144 623 97 
Q 578 50 556 -97 
L 441 -97 
L 441 1356 
L 556 1356 
Q 638 900 775 673 
Q 913 447 1195 297 
Q 1478 147 1816 147 
Q 2206 147 2432 353 
Q 2659 559 2659 841 
Q 2659 997 2573 1156 
Q 2488 1316 2306 1453 
Q 2184 1547 1640 1851 
Q 1097 2156 867 2337 
Q 638 2519 519 2737 
Q 400 2956 400 3219 
Q 400 3675 750 4004 
Q 1100 4334 1641 4334 
Q 1978 4334 2356 4169 
Q 2531 4091 2603 4091 
Q 2684 4091 2736 4139 
Q 2788 4188 2819 4334 
L 2934 4334 
z
" transform="scale(0.015625)"/>
        <path id="TimesNewRomanPSMT-75" d="M 2709 2863 
L 2709 1128 
Q 2709 631 2732 520 
Q 2756 409 2807 365 
Q 2859 322 2928 322 
Q 3025 322 3147 375 
L 3191 266 
L 2334 -88 
L 2194 -88 
L 2194 519 
Q 1825 119 1631 15 
Q 1438 -88 1222 -88 
Q 981 -88 804 51 
Q 628 191 559 409 
Q 491 628 491 1028 
L 491 2306 
Q 491 2509 447 2587 
Q 403 2666 317 2708 
Q 231 2750 6 2747 
L 6 2863 
L 1009 2863 
L 1009 947 
Q 1009 547 1148 422 
Q 1288 297 1484 297 
Q 1619 297 1789 381 
Q 1959 466 2194 703 
L 2194 2325 
Q 2194 2569 2105 2655 
Q 2016 2741 1734 2747 
L 1734 2863 
L 2709 2863 
z
" transform="scale(0.015625)"/>
        <path id="TimesNewRomanPSMT-6e" d="M 1034 2341 
Q 1538 2947 1994 2947 
Q 2228 2947 2397 2830 
Q 2566 2713 2666 2444 
Q 2734 2256 2734 1869 
L 2734 647 
Q 2734 375 2778 278 
Q 2813 200 2889 156 
Q 2966 113 3172 113 
L 3172 0 
L 1756 0 
L 1756 113 
L 1816 113 
Q 2016 113 2095 173 
Q 2175 234 2206 353 
Q 2219 400 2219 647 
L 2219 1819 
Q 2219 2209 2117 2386 
Q 2016 2563 1775 2563 
Q 1403 2563 1034 2156 
L 1034 647 
Q 1034 356 1069 288 
Q 1113 197 1189 155 
Q 1266 113 1500 113 
L 1500 0 
L 84 0 
L 84 113 
L 147 113 
Q 366 113 442 223 
Q 519 334 519 647 
L 519 1709 
Q 519 2225 495 2337 
Q 472 2450 423 2490 
Q 375 2531 294 2531 
Q 206 2531 84 2484 
L 38 2597 
L 900 2947 
L 1034 2947 
L 1034 2341 
z
" transform="scale(0.015625)"/>
        <path id="TimesNewRomanPSMT-79" d="M 38 2863 
L 1372 2863 
L 1372 2747 
L 1306 2747 
Q 1166 2747 1095 2686 
Q 1025 2625 1025 2534 
Q 1025 2413 1128 2197 
L 1825 753 
L 2466 2334 
Q 2519 2463 2519 2588 
Q 2519 2644 2497 2672 
Q 2472 2706 2419 2726 
Q 2366 2747 2231 2747 
L 2231 2863 
L 3163 2863 
L 3163 2747 
Q 3047 2734 2984 2696 
Q 2922 2659 2847 2556 
Q 2819 2513 2741 2316 
L 1575 -541 
Q 1406 -956 1132 -1168 
Q 859 -1381 606 -1381 
Q 422 -1381 303 -1275 
Q 184 -1169 184 -1031 
Q 184 -900 270 -820 
Q 356 -741 506 -741 
Q 609 -741 788 -809 
Q 913 -856 944 -856 
Q 1038 -856 1148 -759 
Q 1259 -663 1372 -384 
L 1575 113 
L 547 2272 
Q 500 2369 397 2513 
Q 319 2622 269 2659 
Q 197 2709 38 2747 
L 38 2863 
z
" transform="scale(0.015625)"/>
        <path id="TimesNewRomanPSMT-76" d="M 53 2863 
L 1400 2863 
L 1400 2747 
L 1313 2747 
Q 1191 2747 1127 2687 
Q 1063 2628 1063 2528 
Q 1063 2419 1128 2269 
L 1794 688 
L 2463 2328 
Q 2534 2503 2534 2594 
Q 2534 2638 2509 2666 
Q 2475 2713 2422 2730 
Q 2369 2747 2206 2747 
L 2206 2863 
L 3141 2863 
L 3141 2747 
Q 2978 2734 2916 2681 
Q 2806 2588 2719 2369 
L 1703 -88 
L 1575 -88 
L 553 2328 
Q 484 2497 421 2570 
Q 359 2644 263 2694 
Q 209 2722 53 2747 
L 53 2863 
z
" transform="scale(0.015625)"/>
        <path id="TimesNewRomanPSMT-61" d="M 1822 413 
Q 1381 72 1269 19 
Q 1100 -59 909 -59 
Q 613 -59 420 144 
Q 228 347 228 678 
Q 228 888 322 1041 
Q 450 1253 767 1440 
Q 1084 1628 1822 1897 
L 1822 2009 
Q 1822 2438 1686 2597 
Q 1550 2756 1291 2756 
Q 1094 2756 978 2650 
Q 859 2544 859 2406 
L 866 2225 
Q 866 2081 792 2003 
Q 719 1925 600 1925 
Q 484 1925 411 2006 
Q 338 2088 338 2228 
Q 338 2497 613 2722 
Q 888 2947 1384 2947 
Q 1766 2947 2009 2819 
Q 2194 2722 2281 2516 
Q 2338 2381 2338 1966 
L 2338 994 
Q 2338 584 2353 492 
Q 2369 400 2405 369 
Q 2441 338 2488 338 
Q 2538 338 2575 359 
Q 2641 400 2828 588 
L 2828 413 
Q 2478 -56 2159 -56 
Q 2006 -56 1915 50 
Q 1825 156 1822 413 
z
M 1822 616 
L 1822 1706 
Q 1350 1519 1213 1441 
Q 966 1303 859 1153 
Q 753 1003 753 825 
Q 753 600 887 451 
Q 1022 303 1197 303 
Q 1434 303 1822 616 
z
" transform="scale(0.015625)"/>
        <path id="TimesNewRomanPSMT-6c" d="M 1184 4444 
L 1184 647 
Q 1184 378 1223 290 
Q 1263 203 1344 158 
Q 1425 113 1647 113 
L 1647 0 
L 244 0 
L 244 113 
Q 441 113 512 153 
Q 584 194 625 287 
Q 666 381 666 647 
L 666 3247 
Q 666 3731 644 3842 
Q 622 3953 573 3993 
Q 525 4034 450 4034 
Q 369 4034 244 3984 
L 191 4094 
L 1044 4444 
L 1184 4444 
z
" transform="scale(0.015625)"/>
        <path id="TimesNewRomanPSMT-65" d="M 681 1784 
Q 678 1147 991 784 
Q 1303 422 1725 422 
Q 2006 422 2214 576 
Q 2422 731 2563 1106 
L 2659 1044 
Q 2594 616 2278 264 
Q 1963 -88 1488 -88 
Q 972 -88 605 314 
Q 238 716 238 1394 
Q 238 2128 614 2539 
Q 991 2950 1559 2950 
Q 2041 2950 2350 2633 
Q 2659 2316 2659 1784 
L 681 1784 
z
M 681 1966 
L 2006 1966 
Q 1991 2241 1941 2353 
Q 1863 2528 1708 2628 
Q 1553 2728 1384 2728 
Q 1125 2728 920 2526 
Q 716 2325 681 1966 
z
" transform="scale(0.015625)"/>
        <path id="TimesNewRomanPSMT-20" transform="scale(0.015625)"/>
        <path id="TimesNewRomanPSMT-50" d="M 1313 1984 
L 1313 750 
Q 1313 350 1400 253 
Q 1519 116 1759 116 
L 1922 116 
L 1922 0 
L 106 0 
L 106 116 
L 266 116 
Q 534 116 650 291 
Q 713 388 713 750 
L 713 3488 
Q 713 3888 628 3984 
Q 506 4122 266 4122 
L 106 4122 
L 106 4238 
L 1659 4238 
Q 2228 4238 2556 4120 
Q 2884 4003 3109 3725 
Q 3334 3447 3334 3066 
Q 3334 2547 2992 2222 
Q 2650 1897 2025 1897 
Q 1872 1897 1694 1919 
Q 1516 1941 1313 1984 
z
M 1313 2163 
Q 1478 2131 1606 2115 
Q 1734 2100 1825 2100 
Q 2150 2100 2386 2351 
Q 2622 2603 2622 3003 
Q 2622 3278 2509 3514 
Q 2397 3750 2190 3867 
Q 1984 3984 1722 3984 
Q 1563 3984 1313 3925 
L 1313 2163 
z
" transform="scale(0.015625)"/>
        <path id="TimesNewRomanPSMT-72" d="M 1038 2947 
L 1038 2303 
Q 1397 2947 1775 2947 
Q 1947 2947 2059 2842 
Q 2172 2738 2172 2600 
Q 2172 2478 2090 2393 
Q 2009 2309 1897 2309 
Q 1788 2309 1652 2417 
Q 1516 2525 1450 2525 
Q 1394 2525 1328 2463 
Q 1188 2334 1038 2041 
L 1038 669 
Q 1038 431 1097 309 
Q 1138 225 1241 169 
Q 1344 113 1538 113 
L 1538 0 
L 72 0 
L 72 113 
Q 291 113 397 181 
Q 475 231 506 341 
Q 522 394 522 644 
L 522 1753 
Q 522 2253 501 2348 
Q 481 2444 426 2487 
Q 372 2531 291 2531 
Q 194 2531 72 2484 
L 41 2597 
L 906 2947 
L 1038 2947 
z
" transform="scale(0.015625)"/>
        <path id="TimesNewRomanPSMT-70" d="M -6 2578 
L 875 2934 
L 994 2934 
L 994 2266 
Q 1216 2644 1439 2795 
Q 1663 2947 1909 2947 
Q 2341 2947 2628 2609 
Q 2981 2197 2981 1534 
Q 2981 794 2556 309 
Q 2206 -88 1675 -88 
Q 1444 -88 1275 -22 
Q 1150 25 994 166 
L 994 -706 
Q 994 -1000 1030 -1079 
Q 1066 -1159 1155 -1206 
Q 1244 -1253 1478 -1253 
L 1478 -1369 
L -22 -1369 
L -22 -1253 
L 56 -1253 
Q 228 -1256 350 -1188 
Q 409 -1153 442 -1076 
Q 475 -1000 475 -688 
L 475 2019 
Q 475 2297 450 2372 
Q 425 2447 370 2484 
Q 316 2522 222 2522 
Q 147 2522 31 2478 
L -6 2578 
z
M 994 2081 
L 994 1013 
Q 994 666 1022 556 
Q 1066 375 1236 237 
Q 1406 100 1666 100 
Q 1978 100 2172 344 
Q 2425 663 2425 1241 
Q 2425 1897 2138 2250 
Q 1938 2494 1663 2494 
Q 1513 2494 1366 2419 
Q 1253 2363 994 2081 
z
" transform="scale(0.015625)"/>
       </defs>
       <use xlink:href="#TimesNewRomanPSMT-53"/>
       <use xlink:href="#TimesNewRomanPSMT-75" x="55.615234"/>
       <use xlink:href="#TimesNewRomanPSMT-6e" x="105.615234"/>
       <use xlink:href="#TimesNewRomanPSMT-6e" x="155.615234"/>
       <use xlink:href="#TimesNewRomanPSMT-79" x="205.615234"/>
       <use xlink:href="#TimesNewRomanPSMT-76" x="255.615234"/>
       <use xlink:href="#TimesNewRomanPSMT-61" x="305.615234"/>
       <use xlink:href="#TimesNewRomanPSMT-6c" x="350"/>
       <use xlink:href="#TimesNewRomanPSMT-65" x="377.783203"/>
       <use xlink:href="#TimesNewRomanPSMT-20" x="422.167969"/>
       <use xlink:href="#TimesNewRomanPSMT-50" x="447.167969"/>
       <use xlink:href="#TimesNewRomanPSMT-72" x="502.783203"/>
       <use xlink:href="#TimesNewRomanPSMT-65" x="536.083984"/>
       <use xlink:href="#TimesNewRomanPSMT-70" x="580.46875"/>
      </g>
     </g>
    </g>
    <g id="xtick_2">
     <g id="line2d_2">
      <g>
       <use xlink:href="#m33d3242cf1" x="160.458938" y="229.459894" style="stroke: #000000; stroke-width: 0.8"/>
      </g>
     </g>
     <g id="text_2">
      <!-- Lakewood Institute -->
      <g transform="translate(92.898862 308.096882) rotate(-45) scale(0.12 -0.12)">
       <defs>
        <path id="TimesNewRomanPSMT-4c" d="M 3669 1172 
L 3772 1150 
L 3409 0 
L 128 0 
L 128 116 
L 288 116 
Q 556 116 672 291 
Q 738 391 738 753 
L 738 3488 
Q 738 3884 650 3984 
Q 528 4122 288 4122 
L 128 4122 
L 128 4238 
L 2047 4238 
L 2047 4122 
Q 1709 4125 1573 4059 
Q 1438 3994 1388 3894 
Q 1338 3794 1338 3416 
L 1338 753 
Q 1338 494 1388 397 
Q 1425 331 1503 300 
Q 1581 269 1991 269 
L 2300 269 
Q 2788 269 2984 341 
Q 3181 413 3343 595 
Q 3506 778 3669 1172 
z
" transform="scale(0.015625)"/>
        <path id="TimesNewRomanPSMT-6b" d="M 1047 4444 
L 1047 1597 
L 1775 2259 
Q 2006 2472 2044 2528 
Q 2069 2566 2069 2603 
Q 2069 2666 2017 2711 
Q 1966 2756 1847 2763 
L 1847 2863 
L 3091 2863 
L 3091 2763 
Q 2834 2756 2664 2684 
Q 2494 2613 2291 2428 
L 1556 1750 
L 2291 822 
Q 2597 438 2703 334 
Q 2853 188 2966 144 
Q 3044 113 3238 113 
L 3238 0 
L 1847 0 
L 1847 113 
Q 1966 116 2008 148 
Q 2050 181 2050 241 
Q 2050 313 1925 472 
L 1047 1594 
L 1047 644 
Q 1047 366 1086 278 
Q 1125 191 1197 153 
Q 1269 116 1509 113 
L 1509 0 
L 53 0 
L 53 113 
Q 272 113 381 166 
Q 447 200 481 272 
Q 528 375 528 628 
L 528 3234 
Q 528 3731 506 3842 
Q 484 3953 434 3995 
Q 384 4038 303 4038 
Q 238 4038 106 3984 
L 53 4094 
L 903 4444 
L 1047 4444 
z
" transform="scale(0.015625)"/>
        <path id="TimesNewRomanPSMT-77" d="M 41 2863 
L 1241 2863 
L 1241 2747 
Q 1075 2734 1023 2687 
Q 972 2641 972 2553 
Q 972 2456 1025 2319 
L 1638 672 
L 2253 2013 
L 2091 2434 
Q 2016 2622 1894 2694 
Q 1825 2738 1638 2747 
L 1638 2863 
L 3000 2863 
L 3000 2747 
Q 2775 2738 2681 2666 
Q 2619 2616 2619 2506 
Q 2619 2444 2644 2378 
L 3294 734 
L 3897 2319 
Q 3959 2488 3959 2588 
Q 3959 2647 3898 2694 
Q 3838 2741 3659 2747 
L 3659 2863 
L 4563 2863 
L 4563 2747 
Q 4291 2706 4163 2378 
L 3206 -88 
L 3078 -88 
L 2363 1741 
L 1528 -88 
L 1413 -88 
L 494 2319 
Q 403 2547 315 2626 
Q 228 2706 41 2747 
L 41 2863 
z
" transform="scale(0.015625)"/>
        <path id="TimesNewRomanPSMT-6f" d="M 1600 2947 
Q 2250 2947 2644 2453 
Q 2978 2031 2978 1484 
Q 2978 1100 2793 706 
Q 2609 313 2286 112 
Q 1963 -88 1566 -88 
Q 919 -88 538 428 
Q 216 863 216 1403 
Q 216 1797 411 2186 
Q 606 2575 925 2761 
Q 1244 2947 1600 2947 
z
M 1503 2744 
Q 1338 2744 1170 2645 
Q 1003 2547 900 2300 
Q 797 2053 797 1666 
Q 797 1041 1045 587 
Q 1294 134 1700 134 
Q 2003 134 2200 384 
Q 2397 634 2397 1244 
Q 2397 2006 2069 2444 
Q 1847 2744 1503 2744 
z
" transform="scale(0.015625)"/>
        <path id="TimesNewRomanPSMT-64" d="M 2222 322 
Q 2013 103 1813 7 
Q 1613 -88 1381 -88 
Q 913 -88 563 304 
Q 213 697 213 1313 
Q 213 1928 600 2439 
Q 988 2950 1597 2950 
Q 1975 2950 2222 2709 
L 2222 3238 
Q 2222 3728 2198 3840 
Q 2175 3953 2125 3993 
Q 2075 4034 2000 4034 
Q 1919 4034 1784 3984 
L 1744 4094 
L 2597 4444 
L 2738 4444 
L 2738 1134 
Q 2738 631 2761 520 
Q 2784 409 2836 365 
Q 2888 322 2956 322 
Q 3041 322 3181 375 
L 3216 266 
L 2366 -88 
L 2222 -88 
L 2222 322 
z
M 2222 541 
L 2222 2016 
Q 2203 2228 2109 2403 
Q 2016 2578 1861 2667 
Q 1706 2756 1559 2756 
Q 1284 2756 1069 2509 
Q 784 2184 784 1559 
Q 784 928 1059 592 
Q 1334 256 1672 256 
Q 1956 256 2222 541 
z
" transform="scale(0.015625)"/>
        <path id="TimesNewRomanPSMT-49" d="M 1975 116 
L 1975 0 
L 159 0 
L 159 116 
L 309 116 
Q 572 116 691 269 
Q 766 369 766 750 
L 766 3488 
Q 766 3809 725 3913 
Q 694 3991 597 4047 
Q 459 4122 309 4122 
L 159 4122 
L 159 4238 
L 1975 4238 
L 1975 4122 
L 1822 4122 
Q 1563 4122 1444 3969 
Q 1366 3869 1366 3488 
L 1366 750 
Q 1366 428 1406 325 
Q 1438 247 1538 191 
Q 1672 116 1822 116 
L 1975 116 
z
" transform="scale(0.015625)"/>
        <path id="TimesNewRomanPSMT-73" d="M 2050 2947 
L 2050 1972 
L 1947 1972 
Q 1828 2431 1642 2597 
Q 1456 2763 1169 2763 
Q 950 2763 815 2647 
Q 681 2531 681 2391 
Q 681 2216 781 2091 
Q 878 1963 1175 1819 
L 1631 1597 
Q 2266 1288 2266 781 
Q 2266 391 1970 151 
Q 1675 -88 1309 -88 
Q 1047 -88 709 6 
Q 606 38 541 38 
Q 469 38 428 -44 
L 325 -44 
L 325 978 
L 428 978 
Q 516 541 762 319 
Q 1009 97 1316 97 
Q 1531 97 1667 223 
Q 1803 350 1803 528 
Q 1803 744 1651 891 
Q 1500 1038 1047 1263 
Q 594 1488 453 1669 
Q 313 1847 313 2119 
Q 313 2472 555 2709 
Q 797 2947 1181 2947 
Q 1350 2947 1591 2875 
Q 1750 2828 1803 2828 
Q 1853 2828 1881 2850 
Q 1909 2872 1947 2947 
L 2050 2947 
z
" transform="scale(0.015625)"/>
        <path id="TimesNewRomanPSMT-74" d="M 1031 3803 
L 1031 2863 
L 1700 2863 
L 1700 2644 
L 1031 2644 
L 1031 788 
Q 1031 509 1111 412 
Q 1191 316 1316 316 
Q 1419 316 1516 380 
Q 1613 444 1666 569 
L 1788 569 
Q 1678 263 1478 108 
Q 1278 -47 1066 -47 
Q 922 -47 784 33 
Q 647 113 581 261 
Q 516 409 516 719 
L 516 2644 
L 63 2644 
L 63 2747 
Q 234 2816 414 2980 
Q 594 3144 734 3369 
Q 806 3488 934 3803 
L 1031 3803 
z
" transform="scale(0.015625)"/>
        <path id="TimesNewRomanPSMT-69" d="M 928 4444 
Q 1059 4444 1151 4351 
Q 1244 4259 1244 4128 
Q 1244 3997 1151 3903 
Q 1059 3809 928 3809 
Q 797 3809 703 3903 
Q 609 3997 609 4128 
Q 609 4259 701 4351 
Q 794 4444 928 4444 
z
M 1188 2947 
L 1188 647 
Q 1188 378 1227 289 
Q 1266 200 1342 156 
Q 1419 113 1622 113 
L 1622 0 
L 231 0 
L 231 113 
Q 441 113 512 153 
Q 584 194 626 287 
Q 669 381 669 647 
L 669 1750 
Q 669 2216 641 2353 
Q 619 2453 572 2492 
Q 525 2531 444 2531 
Q 356 2531 231 2484 
L 188 2597 
L 1050 2947 
L 1188 2947 
z
" transform="scale(0.015625)"/>
       </defs>
       <use xlink:href="#TimesNewRomanPSMT-4c"/>
       <use xlink:href="#TimesNewRomanPSMT-61" x="61.083984"/>
       <use xlink:href="#TimesNewRomanPSMT-6b" x="105.46875"/>
       <use xlink:href="#TimesNewRomanPSMT-65" x="155.46875"/>
       <use xlink:href="#TimesNewRomanPSMT-77" x="199.853516"/>
       <use xlink:href="#TimesNewRomanPSMT-6f" x="272.070312"/>
       <use xlink:href="#TimesNewRomanPSMT-6f" x="322.070312"/>
       <use xlink:href="#TimesNewRomanPSMT-64" x="372.070312"/>
       <use xlink:href="#TimesNewRomanPSMT-20" x="422.070312"/>
       <use xlink:href="#TimesNewRomanPSMT-49" x="447.070312"/>
       <use xlink:href="#TimesNewRomanPSMT-6e" x="480.371094"/>
       <use xlink:href="#TimesNewRomanPSMT-73" x="530.371094"/>
       <use xlink:href="#TimesNewRomanPSMT-74" x="569.287109"/>
       <use xlink:href="#TimesNewRomanPSMT-69" x="597.070312"/>
       <use xlink:href="#TimesNewRomanPSMT-74" x="624.853516"/>
       <use xlink:href="#TimesNewRomanPSMT-75" x="652.636719"/>
       <use xlink:href="#TimesNewRomanPSMT-74" x="702.636719"/>
       <use xlink:href="#TimesNewRomanPSMT-65" x="730.419922"/>
      </g>
     </g>
    </g>
    <g id="xtick_3">
     <g id="line2d_3">
      <g>
       <use xlink:href="#m33d3242cf1" x="236.820938" y="229.459894" style="stroke: #000000; stroke-width: 0.8"/>
      </g>
     </g>
     <g id="text_3">
      <!-- Eastwood Prep -->
      <g transform="translate(183.866153 293.491591) rotate(-45) scale(0.12 -0.12)">
       <defs>
        <path id="TimesNewRomanPSMT-45" d="M 1338 4006 
L 1338 2331 
L 2269 2331 
Q 2631 2331 2753 2441 
Q 2916 2584 2934 2947 
L 3050 2947 
L 3050 1472 
L 2934 1472 
Q 2891 1781 2847 1869 
Q 2791 1978 2662 2040 
Q 2534 2103 2269 2103 
L 1338 2103 
L 1338 706 
Q 1338 425 1363 364 
Q 1388 303 1450 267 
Q 1513 231 1688 231 
L 2406 231 
Q 2766 231 2928 281 
Q 3091 331 3241 478 
Q 3434 672 3638 1063 
L 3763 1063 
L 3397 0 
L 131 0 
L 131 116 
L 281 116 
Q 431 116 566 188 
Q 666 238 702 338 
Q 738 438 738 747 
L 738 3500 
Q 738 3903 656 3997 
Q 544 4122 281 4122 
L 131 4122 
L 131 4238 
L 3397 4238 
L 3444 3309 
L 3322 3309 
Q 3256 3644 3176 3769 
Q 3097 3894 2941 3959 
Q 2816 4006 2500 4006 
L 1338 4006 
z
" transform="scale(0.015625)"/>
       </defs>
       <use xlink:href="#TimesNewRomanPSMT-45"/>
       <use xlink:href="#TimesNewRomanPSMT-61" x="61.083984"/>
       <use xlink:href="#TimesNewRomanPSMT-73" x="105.46875"/>
       <use xlink:href="#TimesNewRomanPSMT-74" x="144.384766"/>
       <use xlink:href="#TimesNewRomanPSMT-77" x="172.167969"/>
       <use xlink:href="#TimesNewRomanPSMT-6f" x="244.384766"/>
       <use xlink:href="#TimesNewRomanPSMT-6f" x="294.384766"/>
       <use xlink:href="#TimesNewRomanPSMT-64" x="344.384766"/>
       <use xlink:href="#TimesNewRomanPSMT-20" x="394.384766"/>
       <use xlink:href="#TimesNewRomanPSMT-50" x="419.384766"/>
       <use xlink:href="#TimesNewRomanPSMT-72" x="475"/>
       <use xlink:href="#TimesNewRomanPSMT-65" x="508.300781"/>
       <use xlink:href="#TimesNewRomanPSMT-70" x="552.685547"/>
      </g>
     </g>
    </g>
    <g id="xtick_4">
     <g id="line2d_4">
      <g>
       <use xlink:href="#m33d3242cf1" x="313.182938" y="229.459894" style="stroke: #000000; stroke-width: 0.8"/>
      </g>
     </g>
     <g id="text_4">
      <!-- Silverton High -->
      <g transform="translate(261.149601 292.554233) rotate(-45) scale(0.12 -0.12)">
       <defs>
        <path id="TimesNewRomanPSMT-48" d="M 1316 2272 
L 3284 2272 
L 3284 3484 
Q 3284 3809 3244 3913 
Q 3213 3991 3113 4047 
Q 2978 4122 2828 4122 
L 2678 4122 
L 2678 4238 
L 4491 4238 
L 4491 4122 
L 4341 4122 
Q 4191 4122 4056 4050 
Q 3956 4000 3920 3898 
Q 3884 3797 3884 3484 
L 3884 750 
Q 3884 428 3925 325 
Q 3956 247 4053 191 
Q 4191 116 4341 116 
L 4491 116 
L 4491 0 
L 2678 0 
L 2678 116 
L 2828 116 
Q 3088 116 3206 269 
Q 3284 369 3284 750 
L 3284 2041 
L 1316 2041 
L 1316 750 
Q 1316 428 1356 325 
Q 1388 247 1488 191 
Q 1622 116 1772 116 
L 1925 116 
L 1925 0 
L 109 0 
L 109 116 
L 259 116 
Q 522 116 641 269 
Q 716 369 716 750 
L 716 3484 
Q 716 3809 675 3913 
Q 644 3991 547 4047 
Q 409 4122 259 4122 
L 109 4122 
L 109 4238 
L 1925 4238 
L 1925 4122 
L 1772 4122 
Q 1622 4122 1488 4050 
Q 1391 4000 1353 3898 
Q 1316 3797 1316 3484 
L 1316 2272 
z
" transform="scale(0.015625)"/>
        <path id="TimesNewRomanPSMT-67" d="M 966 1044 
Q 703 1172 562 1401 
Q 422 1631 422 1909 
Q 422 2334 742 2640 
Q 1063 2947 1563 2947 
Q 1972 2947 2272 2747 
L 2878 2747 
Q 3013 2747 3034 2739 
Q 3056 2731 3066 2713 
Q 3084 2684 3084 2613 
Q 3084 2531 3069 2500 
Q 3059 2484 3036 2475 
Q 3013 2466 2878 2466 
L 2506 2466 
Q 2681 2241 2681 1891 
Q 2681 1491 2375 1206 
Q 2069 922 1553 922 
Q 1341 922 1119 984 
Q 981 866 932 777 
Q 884 688 884 625 
Q 884 572 936 522 
Q 988 472 1138 450 
Q 1225 438 1575 428 
Q 2219 413 2409 384 
Q 2700 344 2873 169 
Q 3047 -6 3047 -263 
Q 3047 -616 2716 -925 
Q 2228 -1381 1444 -1381 
Q 841 -1381 425 -1109 
Q 191 -953 191 -784 
Q 191 -709 225 -634 
Q 278 -519 444 -313 
Q 466 -284 763 25 
Q 600 122 533 198 
Q 466 275 466 372 
Q 466 481 555 628 
Q 644 775 966 1044 
z
M 1509 2797 
Q 1278 2797 1122 2612 
Q 966 2428 966 2047 
Q 966 1553 1178 1281 
Q 1341 1075 1591 1075 
Q 1828 1075 1981 1253 
Q 2134 1431 2134 1813 
Q 2134 2309 1919 2591 
Q 1759 2797 1509 2797 
z
M 934 0 
Q 788 -159 713 -296 
Q 638 -434 638 -550 
Q 638 -700 819 -813 
Q 1131 -1006 1722 -1006 
Q 2284 -1006 2551 -807 
Q 2819 -609 2819 -384 
Q 2819 -222 2659 -153 
Q 2497 -84 2016 -72 
Q 1313 -53 934 0 
z
" transform="scale(0.015625)"/>
        <path id="TimesNewRomanPSMT-68" d="M 1041 4444 
L 1041 2350 
Q 1388 2731 1591 2839 
Q 1794 2947 1997 2947 
Q 2241 2947 2416 2812 
Q 2591 2678 2675 2391 
Q 2734 2191 2734 1659 
L 2734 647 
Q 2734 375 2778 275 
Q 2809 200 2884 156 
Q 2959 113 3159 113 
L 3159 0 
L 1753 0 
L 1753 113 
L 1819 113 
Q 2019 113 2097 173 
Q 2175 234 2206 353 
Q 2216 403 2216 647 
L 2216 1659 
Q 2216 2128 2167 2275 
Q 2119 2422 2012 2495 
Q 1906 2569 1756 2569 
Q 1603 2569 1437 2487 
Q 1272 2406 1041 2159 
L 1041 647 
Q 1041 353 1073 281 
Q 1106 209 1195 161 
Q 1284 113 1503 113 
L 1503 0 
L 84 0 
L 84 113 
Q 275 113 384 172 
Q 447 203 484 290 
Q 522 378 522 647 
L 522 3238 
Q 522 3728 498 3840 
Q 475 3953 426 3993 
Q 378 4034 297 4034 
Q 231 4034 84 3984 
L 41 4094 
L 897 4444 
L 1041 4444 
z
" transform="scale(0.015625)"/>
       </defs>
       <use xlink:href="#TimesNewRomanPSMT-53"/>
       <use xlink:href="#TimesNewRomanPSMT-69" x="55.615234"/>
       <use xlink:href="#TimesNewRomanPSMT-6c" x="83.398438"/>
       <use xlink:href="#TimesNewRomanPSMT-76" x="111.181641"/>
       <use xlink:href="#TimesNewRomanPSMT-65" x="161.181641"/>
       <use xlink:href="#TimesNewRomanPSMT-72" x="205.566406"/>
       <use xlink:href="#TimesNewRomanPSMT-74" x="238.867188"/>
       <use xlink:href="#TimesNewRomanPSMT-6f" x="266.650391"/>
       <use xlink:href="#TimesNewRomanPSMT-6e" x="316.650391"/>
       <use xlink:href="#TimesNewRomanPSMT-20" x="366.650391"/>
       <use xlink:href="#TimesNewRomanPSMT-48" x="391.650391"/>
       <use xlink:href="#TimesNewRomanPSMT-69" x="463.867188"/>
       <use xlink:href="#TimesNewRomanPSMT-67" x="491.650391"/>
       <use xlink:href="#TimesNewRomanPSMT-68" x="541.650391"/>
      </g>
     </g>
    </g>
    <g id="xtick_5">
     <g id="line2d_5">
      <g>
       <use xlink:href="#m33d3242cf1" x="389.544938" y="229.459894" style="stroke: #000000; stroke-width: 0.8"/>
      </g>
     </g>
     <g id="text_5">
      <!-- Meadowbrook High -->
      <g transform="translate(319.134338 310.931496) rotate(-45) scale(0.12 -0.12)">
       <defs>
        <path id="TimesNewRomanPSMT-4d" d="M 2619 0 
L 981 3566 
L 981 734 
Q 981 344 1066 247 
Q 1181 116 1431 116 
L 1581 116 
L 1581 0 
L 106 0 
L 106 116 
L 256 116 
Q 525 116 638 278 
Q 706 378 706 734 
L 706 3503 
Q 706 3784 644 3909 
Q 600 4000 483 4061 
Q 366 4122 106 4122 
L 106 4238 
L 1306 4238 
L 2844 922 
L 4356 4238 
L 5556 4238 
L 5556 4122 
L 5409 4122 
Q 5138 4122 5025 3959 
Q 4956 3859 4956 3503 
L 4956 734 
Q 4956 344 5044 247 
Q 5159 116 5409 116 
L 5556 116 
L 5556 0 
L 3756 0 
L 3756 116 
L 3906 116 
Q 4178 116 4288 278 
Q 4356 378 4356 734 
L 4356 3566 
L 2722 0 
L 2619 0 
z
" transform="scale(0.015625)"/>
        <path id="TimesNewRomanPSMT-62" d="M 984 2369 
Q 1400 2947 1881 2947 
Q 2322 2947 2650 2570 
Q 2978 2194 2978 1541 
Q 2978 778 2472 313 
Q 2038 -88 1503 -88 
Q 1253 -88 995 3 
Q 738 94 469 275 
L 469 3241 
Q 469 3728 445 3840 
Q 422 3953 372 3993 
Q 322 4034 247 4034 
Q 159 4034 28 3984 
L -16 4094 
L 844 4444 
L 984 4444 
L 984 2369 
z
M 984 2169 
L 984 456 
Q 1144 300 1314 220 
Q 1484 141 1663 141 
Q 1947 141 2192 453 
Q 2438 766 2438 1363 
Q 2438 1913 2192 2208 
Q 1947 2503 1634 2503 
Q 1469 2503 1303 2419 
Q 1178 2356 984 2169 
z
" transform="scale(0.015625)"/>
       </defs>
       <use xlink:href="#TimesNewRomanPSMT-4d"/>
       <use xlink:href="#TimesNewRomanPSMT-65" x="88.916016"/>
       <use xlink:href="#TimesNewRomanPSMT-61" x="133.300781"/>
       <use xlink:href="#TimesNewRomanPSMT-64" x="177.685547"/>
       <use xlink:href="#TimesNewRomanPSMT-6f" x="227.685547"/>
       <use xlink:href="#TimesNewRomanPSMT-77" x="277.685547"/>
       <use xlink:href="#TimesNewRomanPSMT-62" x="349.902344"/>
       <use xlink:href="#TimesNewRomanPSMT-72" x="399.902344"/>
       <use xlink:href="#TimesNewRomanPSMT-6f" x="433.203125"/>
       <use xlink:href="#TimesNewRomanPSMT-6f" x="483.203125"/>
       <use xlink:href="#TimesNewRomanPSMT-6b" x="533.203125"/>
       <use xlink:href="#TimesNewRomanPSMT-20" x="583.203125"/>
       <use xlink:href="#TimesNewRomanPSMT-48" x="608.203125"/>
       <use xlink:href="#TimesNewRomanPSMT-69" x="680.419922"/>
       <use xlink:href="#TimesNewRomanPSMT-67" x="708.203125"/>
       <use xlink:href="#TimesNewRomanPSMT-68" x="758.203125"/>
      </g>
     </g>
    </g>
   </g>
   <g id="matplotlib.axis_2">
    <g id="ytick_1">
     <g id="line2d_6">
      <defs>
       <path id="m6a1c432bbe" d="M 0 0 
L -3.5 0 
" style="stroke: #000000; stroke-width: 0.8"/>
      </defs>
      <g>
       <use xlink:href="#m6a1c432bbe" x="45.915937" y="217.301773" style="stroke: #000000; stroke-width: 0.8"/>
      </g>
     </g>
     <g id="text_6">
      <!-- 70 -->
      <g transform="translate(28.915937 220.773648) scale(0.1 -0.1)">
       <defs>
        <path id="TimesNewRomanPSMT-37" d="M 644 4238 
L 2916 4238 
L 2916 4119 
L 1503 -88 
L 1153 -88 
L 2419 3728 
L 1253 3728 
Q 900 3728 750 3644 
Q 488 3500 328 3200 
L 238 3234 
L 644 4238 
z
" transform="scale(0.015625)"/>
        <path id="TimesNewRomanPSMT-30" d="M 231 2094 
Q 231 2819 450 3342 
Q 669 3866 1031 4122 
Q 1313 4325 1613 4325 
Q 2100 4325 2488 3828 
Q 2972 3213 2972 2159 
Q 2972 1422 2759 906 
Q 2547 391 2217 158 
Q 1888 -75 1581 -75 
Q 975 -75 572 641 
Q 231 1244 231 2094 
z
M 844 2016 
Q 844 1141 1059 588 
Q 1238 122 1591 122 
Q 1759 122 1940 273 
Q 2122 425 2216 781 
Q 2359 1319 2359 2297 
Q 2359 3022 2209 3506 
Q 2097 3866 1919 4016 
Q 1791 4119 1609 4119 
Q 1397 4119 1231 3928 
Q 1006 3669 925 3112 
Q 844 2556 844 2016 
z
" transform="scale(0.015625)"/>
       </defs>
       <use xlink:href="#TimesNewRomanPSMT-37"/>
       <use xlink:href="#TimesNewRomanPSMT-30" x="50"/>
      </g>
     </g>
    </g>
    <g id="ytick_2">
     <g id="line2d_7">
      <g>
       <use xlink:href="#m6a1c432bbe" x="45.915937" y="190.16311" style="stroke: #000000; stroke-width: 0.8"/>
      </g>
     </g>
     <g id="text_7">
      <!-- 75 -->
      <g transform="translate(28.915937 193.634985) scale(0.1 -0.1)">
       <defs>
        <path id="TimesNewRomanPSMT-35" d="M 2778 4238 
L 2534 3706 
L 1259 3706 
L 981 3138 
Q 1809 3016 2294 2522 
Q 2709 2097 2709 1522 
Q 2709 1188 2573 903 
Q 2438 619 2231 419 
Q 2025 219 1772 97 
Q 1413 -75 1034 -75 
Q 653 -75 479 54 
Q 306 184 306 341 
Q 306 428 378 495 
Q 450 563 559 563 
Q 641 563 702 538 
Q 763 513 909 409 
Q 1144 247 1384 247 
Q 1750 247 2026 523 
Q 2303 800 2303 1197 
Q 2303 1581 2056 1914 
Q 1809 2247 1375 2428 
Q 1034 2569 447 2591 
L 1259 4238 
L 2778 4238 
z
" transform="scale(0.015625)"/>
       </defs>
       <use xlink:href="#TimesNewRomanPSMT-37"/>
       <use xlink:href="#TimesNewRomanPSMT-35" x="50"/>
      </g>
     </g>
    </g>
    <g id="ytick_3">
     <g id="line2d_8">
      <g>
       <use xlink:href="#m6a1c432bbe" x="45.915937" y="163.024448" style="stroke: #000000; stroke-width: 0.8"/>
      </g>
     </g>
     <g id="text_8">
      <!-- 80 -->
      <g transform="translate(28.915937 166.496323) scale(0.1 -0.1)">
       <defs>
        <path id="TimesNewRomanPSMT-38" d="M 1228 2134 
Q 725 2547 579 2797 
Q 434 3047 434 3316 
Q 434 3728 753 4026 
Q 1072 4325 1600 4325 
Q 2113 4325 2425 4047 
Q 2738 3769 2738 3413 
Q 2738 3175 2569 2928 
Q 2400 2681 1866 2347 
Q 2416 1922 2594 1678 
Q 2831 1359 2831 1006 
Q 2831 559 2490 242 
Q 2150 -75 1597 -75 
Q 994 -75 656 303 
Q 388 606 388 966 
Q 388 1247 577 1523 
Q 766 1800 1228 2134 
z
M 1719 2469 
Q 2094 2806 2194 3001 
Q 2294 3197 2294 3444 
Q 2294 3772 2109 3958 
Q 1925 4144 1606 4144 
Q 1288 4144 1088 3959 
Q 888 3775 888 3528 
Q 888 3366 970 3203 
Q 1053 3041 1206 2894 
L 1719 2469 
z
M 1375 2016 
Q 1116 1797 991 1539 
Q 866 1281 866 981 
Q 866 578 1086 336 
Q 1306 94 1647 94 
Q 1984 94 2187 284 
Q 2391 475 2391 747 
Q 2391 972 2272 1150 
Q 2050 1481 1375 2016 
z
" transform="scale(0.015625)"/>
       </defs>
       <use xlink:href="#TimesNewRomanPSMT-38"/>
       <use xlink:href="#TimesNewRomanPSMT-30" x="50"/>
      </g>
     </g>
    </g>
    <g id="ytick_4">
     <g id="line2d_9">
      <g>
       <use xlink:href="#m6a1c432bbe" x="45.915937" y="135.885785" style="stroke: #000000; stroke-width: 0.8"/>
      </g>
     </g>
     <g id="text_9">
      <!-- 85 -->
      <g transform="translate(28.915937 139.35766) scale(0.1 -0.1)">
       <use xlink:href="#TimesNewRomanPSMT-38"/>
       <use xlink:href="#TimesNewRomanPSMT-35" x="50"/>
      </g>
     </g>
    </g>
    <g id="ytick_5">
     <g id="line2d_10">
      <g>
       <use xlink:href="#m6a1c432bbe" x="45.915937" y="108.747122" style="stroke: #000000; stroke-width: 0.8"/>
      </g>
     </g>
     <g id="text_10">
      <!-- 90 -->
      <g transform="translate(28.915937 112.218997) scale(0.1 -0.1)">
       <defs>
        <path id="TimesNewRomanPSMT-39" d="M 338 -88 
L 338 28 
Q 744 34 1094 217 
Q 1444 400 1770 856 
Q 2097 1313 2225 1859 
Q 1734 1544 1338 1544 
Q 891 1544 572 1889 
Q 253 2234 253 2806 
Q 253 3363 572 3797 
Q 956 4325 1575 4325 
Q 2097 4325 2469 3894 
Q 2925 3359 2925 2575 
Q 2925 1869 2578 1258 
Q 2231 647 1613 244 
Q 1109 -88 516 -88 
L 338 -88 
z
M 2275 2091 
Q 2331 2497 2331 2741 
Q 2331 3044 2228 3395 
Q 2125 3747 1936 3934 
Q 1747 4122 1506 4122 
Q 1228 4122 1018 3872 
Q 809 3622 809 3128 
Q 809 2469 1088 2097 
Q 1291 1828 1588 1828 
Q 1731 1828 1928 1897 
Q 2125 1966 2275 2091 
z
" transform="scale(0.015625)"/>
       </defs>
       <use xlink:href="#TimesNewRomanPSMT-39"/>
       <use xlink:href="#TimesNewRomanPSMT-30" x="50"/>
      </g>
     </g>
    </g>
    <g id="ytick_6">
     <g id="line2d_11">
      <g>
       <use xlink:href="#m6a1c432bbe" x="45.915937" y="81.608459" style="stroke: #000000; stroke-width: 0.8"/>
      </g>
     </g>
     <g id="text_11">
      <!-- 95 -->
      <g transform="translate(28.915937 85.080334) scale(0.1 -0.1)">
       <use xlink:href="#TimesNewRomanPSMT-39"/>
       <use xlink:href="#TimesNewRomanPSMT-35" x="50"/>
      </g>
     </g>
    </g>
    <g id="ytick_7">
     <g id="line2d_12">
      <g>
       <use xlink:href="#m6a1c432bbe" x="45.915937" y="54.469796" style="stroke: #000000; stroke-width: 0.8"/>
      </g>
     </g>
     <g id="text_12">
      <!-- 100 -->
      <g transform="translate(23.915937 57.941671) scale(0.1 -0.1)">
       <defs>
        <path id="TimesNewRomanPSMT-31" d="M 750 3822 
L 1781 4325 
L 1884 4325 
L 1884 747 
Q 1884 391 1914 303 
Q 1944 216 2037 169 
Q 2131 122 2419 116 
L 2419 0 
L 825 0 
L 825 116 
Q 1125 122 1212 167 
Q 1300 213 1334 289 
Q 1369 366 1369 747 
L 1369 3034 
Q 1369 3497 1338 3628 
Q 1316 3728 1258 3775 
Q 1200 3822 1119 3822 
Q 1003 3822 797 3725 
L 750 3822 
z
" transform="scale(0.015625)"/>
       </defs>
       <use xlink:href="#TimesNewRomanPSMT-31"/>
       <use xlink:href="#TimesNewRomanPSMT-30" x="50"/>
       <use xlink:href="#TimesNewRomanPSMT-30" x="100"/>
      </g>
     </g>
    </g>
    <g id="text_13">
     <!-- % -->
     <g transform="translate(16.92125 135.583228) rotate(-90) scale(0.14 -0.14)">
      <defs>
       <path id="TimesNewRomanPSMT-25" d="M 4350 4334 
L 1263 -175 
L 984 -175 
L 4072 4334 
L 4350 4334 
z
M 1138 4334 
Q 1559 4334 1792 3984 
Q 2025 3634 2025 3181 
Q 2025 2638 1762 2341 
Q 1500 2044 1131 2044 
Q 884 2044 678 2180 
Q 472 2316 348 2584 
Q 225 2853 225 3181 
Q 225 3509 350 3786 
Q 475 4063 692 4198 
Q 909 4334 1138 4334 
z
M 1128 4159 
Q 969 4159 845 3971 
Q 722 3784 722 3184 
Q 722 2750 791 2522 
Q 844 2350 956 2256 
Q 1022 2200 1119 2200 
Q 1269 2200 1375 2363 
Q 1531 2603 1531 3166 
Q 1531 3759 1378 4000 
Q 1278 4159 1128 4159 
z
M 4206 2103 
Q 4428 2103 4648 1962 
Q 4869 1822 4989 1553 
Q 5109 1284 5109 963 
Q 5109 409 4843 117 
Q 4578 -175 4216 -175 
Q 3988 -175 3773 -34 
Q 3559 106 3436 367 
Q 3313 628 3313 963 
Q 3313 1291 3436 1562 
Q 3559 1834 3773 1968 
Q 3988 2103 4206 2103 
z
M 4209 1938 
Q 4059 1938 3950 1769 
Q 3809 1550 3809 941 
Q 3809 381 3953 159 
Q 4059 0 4209 0 
Q 4353 0 4466 172 
Q 4616 400 4616 956 
Q 4616 1544 4466 1778 
Q 4363 1938 4209 1938 
z
" transform="scale(0.015625)"/>
      </defs>
      <use xlink:href="#TimesNewRomanPSMT-25"/>
     </g>
    </g>
   </g>
   <g id="patch_3">
    <path d="M 79.515218 139.006731 
L 88.678658 139.006731 
L 88.678658 121.488724 
L 79.515218 121.488724 
L 79.515218 139.006731 
L 79.515218 139.006731 
z
" clip-path="url(#p98f953ce77)" style="fill: none; stroke: #000000; stroke-linejoin: miter"/>
   </g>
   <g id="line2d_13">
    <path d="M 84.096937 139.006731 
L 84.096937 159.11648 
" clip-path="url(#p98f953ce77)" style="fill: none; stroke: #000000; stroke-linecap: square"/>
   </g>
   <g id="line2d_14">
    <path d="M 84.096937 121.488724 
L 84.096937 100.985464 
" clip-path="url(#p98f953ce77)" style="fill: none; stroke: #000000; stroke-linecap: square"/>
   </g>
   <g id="line2d_15">
    <path d="M 81.806077 159.11648 
L 86.387798 159.11648 
" clip-path="url(#p98f953ce77)" style="fill: none; stroke: #000000; stroke-linecap: square"/>
   </g>
   <g id="line2d_16">
    <path d="M 81.806077 100.985464 
L 86.387798 100.985464 
" clip-path="url(#p98f953ce77)" style="fill: none; stroke: #000000; stroke-linecap: square"/>
   </g>
   <g id="patch_4">
    <path d="M 155.877218 133.904662 
L 165.040658 133.904662 
L 165.040658 96.561862 
L 155.877218 96.561862 
L 155.877218 133.904662 
L 155.877218 133.904662 
z
" clip-path="url(#p98f953ce77)" style="fill: none; stroke: #000000; stroke-linejoin: miter"/>
   </g>
   <g id="line2d_17">
    <path d="M 160.458938 133.904662 
L 160.458938 187.177857 
" clip-path="url(#p98f953ce77)" style="fill: none; stroke: #000000; stroke-linecap: square"/>
   </g>
   <g id="line2d_18">
    <path d="M 160.458938 96.561862 
L 160.458938 41.714625 
" clip-path="url(#p98f953ce77)" style="fill: none; stroke: #000000; stroke-linecap: square"/>
   </g>
   <g id="line2d_19">
    <path d="M 158.168078 187.177857 
L 162.749797 187.177857 
" clip-path="url(#p98f953ce77)" style="fill: none; stroke: #000000; stroke-linecap: square"/>
   </g>
   <g id="line2d_20">
    <path d="M 158.168078 41.714625 
L 162.749797 41.714625 
" clip-path="url(#p98f953ce77)" style="fill: none; stroke: #000000; stroke-linecap: square"/>
   </g>
   <g id="patch_5">
    <path d="M 232.239218 175.196138 
L 241.402658 175.196138 
L 241.402658 151.924735 
L 232.239218 151.924735 
L 232.239218 175.196138 
L 232.239218 175.196138 
z
" clip-path="url(#p98f953ce77)" style="fill: none; stroke: #000000; stroke-linejoin: miter"/>
   </g>
   <g id="line2d_21">
    <path d="M 236.820938 175.196138 
L 236.820938 207.748964 
" clip-path="url(#p98f953ce77)" style="fill: none; stroke: #000000; stroke-linecap: square"/>
   </g>
   <g id="line2d_22">
    <path d="M 236.820938 151.924735 
L 236.820938 121.665126 
" clip-path="url(#p98f953ce77)" style="fill: none; stroke: #000000; stroke-linecap: square"/>
   </g>
   <g id="line2d_23">
    <path d="M 234.530078 207.748964 
L 239.111798 207.748964 
" clip-path="url(#p98f953ce77)" style="fill: none; stroke: #000000; stroke-linecap: square"/>
   </g>
   <g id="line2d_24">
    <path d="M 234.530078 121.665126 
L 239.111798 121.665126 
" clip-path="url(#p98f953ce77)" style="fill: none; stroke: #000000; stroke-linecap: square"/>
   </g>
   <g id="patch_6">
    <path d="M 308.601218 155.683439 
L 317.764657 155.683439 
L 317.764657 137.663367 
L 308.601218 137.663367 
L 308.601218 155.683439 
L 308.601218 155.683439 
z
" clip-path="url(#p98f953ce77)" style="fill: none; stroke: #000000; stroke-linejoin: miter"/>
   </g>
   <g id="line2d_25">
    <path d="M 313.182938 155.683439 
L 313.182938 177.299384 
" clip-path="url(#p98f953ce77)" style="fill: none; stroke: #000000; stroke-linecap: square"/>
   </g>
   <g id="line2d_26">
    <path d="M 313.182938 137.663367 
L 313.182938 111.406711 
" clip-path="url(#p98f953ce77)" style="fill: none; stroke: #000000; stroke-linecap: square"/>
   </g>
   <g id="line2d_27">
    <path d="M 310.892078 177.299384 
L 315.473798 177.299384 
" clip-path="url(#p98f953ce77)" style="fill: none; stroke: #000000; stroke-linecap: square"/>
   </g>
   <g id="line2d_28">
    <path d="M 310.892078 111.406711 
L 315.473798 111.406711 
" clip-path="url(#p98f953ce77)" style="fill: none; stroke: #000000; stroke-linecap: square"/>
   </g>
   <g id="patch_7">
    <path d="M 384.963218 155.330637 
L 394.126658 155.330637 
L 394.126658 133.049795 
L 384.963218 133.049795 
L 384.963218 155.330637 
L 384.963218 155.330637 
z
" clip-path="url(#p98f953ce77)" style="fill: none; stroke: #000000; stroke-linejoin: miter"/>
   </g>
   <g id="line2d_29">
    <path d="M 389.544938 155.330637 
L 389.544938 182.347175 
" clip-path="url(#p98f953ce77)" style="fill: none; stroke: #000000; stroke-linecap: square"/>
   </g>
   <g id="line2d_30">
    <path d="M 389.544938 133.049795 
L 389.544938 114.554796 
" clip-path="url(#p98f953ce77)" style="fill: none; stroke: #000000; stroke-linecap: square"/>
   </g>
   <g id="line2d_31">
    <path d="M 387.254078 182.347175 
L 391.835798 182.347175 
" clip-path="url(#p98f953ce77)" style="fill: none; stroke: #000000; stroke-linecap: square"/>
   </g>
   <g id="line2d_32">
    <path d="M 387.254078 114.554796 
L 391.835798 114.554796 
" clip-path="url(#p98f953ce77)" style="fill: none; stroke: #000000; stroke-linecap: square"/>
   </g>
   <g id="line2d_33">
    <path d="M 79.515218 132.547729 
L 88.678658 132.547729 
" clip-path="url(#p98f953ce77)" style="fill: none; stroke: #000000; stroke-width: 1.5; stroke-linecap: square"/>
   </g>
   <g id="line2d_34">
    <path d="M 155.877218 116.535918 
L 165.040658 116.535918 
" clip-path="url(#p98f953ce77)" style="fill: none; stroke: #000000; stroke-width: 1.5; stroke-linecap: square"/>
   </g>
   <g id="line2d_35">
    <path d="M 232.239218 165.141263 
L 241.402658 165.141263 
" clip-path="url(#p98f953ce77)" style="fill: none; stroke: #000000; stroke-width: 1.5; stroke-linecap: square"/>
   </g>
   <g id="line2d_36">
    <path d="M 308.601218 147.989628 
L 317.764657 147.989628 
" clip-path="url(#p98f953ce77)" style="fill: none; stroke: #000000; stroke-width: 1.5; stroke-linecap: square"/>
   </g>
   <g id="line2d_37">
    <path d="M 384.963218 143.48461 
L 394.126658 143.48461 
" clip-path="url(#p98f953ce77)" style="fill: none; stroke: #000000; stroke-width: 1.5; stroke-linecap: square"/>
   </g>
   <g id="patch_8">
    <path d="M 45.915937 229.459894 
L 45.915937 30.045 
" style="fill: none; stroke: #000000; stroke-linejoin: miter; stroke-linecap: square"/>
   </g>
   <g id="patch_9">
    <path d="M 427.725937 229.459894 
L 427.725937 30.045 
" style="fill: none; stroke: #000000; stroke-linejoin: miter; stroke-linecap: square"/>
   </g>
   <g id="patch_10">
    <path d="M 45.915937 229.459894 
L 427.725938 229.459894 
" style="fill: none; stroke: #000000; stroke-linejoin: miter; stroke-linecap: square"/>
   </g>
   <g id="patch_11">
    <path d="M 45.915937 30.045 
L 427.725938 30.045 
" style="fill: none; stroke: #000000; stroke-linejoin: miter; stroke-linecap: square"/>
   </g>
   <g id="text_14">
    <!-- Data on employment rates in different schools (%) -->
    <g transform="translate(64.763438 18.045) scale(0.16 -0.16)">
     <defs>
      <path id="TimesNewRomanPS-BoldMT-44" d="M 84 0 
L 84 116 
L 225 116 
Q 409 116 507 173 
Q 606 231 653 331 
Q 681 397 681 725 
L 681 3513 
Q 681 3838 647 3919 
Q 613 4000 508 4061 
Q 403 4122 225 4122 
L 84 4122 
L 84 4238 
L 1981 4238 
Q 2741 4238 3203 4031 
Q 3769 3778 4061 3265 
Q 4353 2753 4353 2106 
Q 4353 1659 4209 1282 
Q 4066 906 3837 661 
Q 3609 416 3311 267 
Q 3013 119 2581 38 
Q 2391 0 1981 0 
L 84 0 
z
M 1700 3997 
L 1700 691 
Q 1700 428 1725 368 
Q 1750 309 1809 278 
Q 1894 231 2053 231 
Q 2575 231 2850 588 
Q 3225 1069 3225 2081 
Q 3225 2897 2969 3384 
Q 2766 3766 2447 3903 
Q 2222 4000 1700 3997 
z
" transform="scale(0.015625)"/>
      <path id="TimesNewRomanPS-BoldMT-61" d="M 1828 431 
Q 1294 -41 869 -41 
Q 619 -41 453 123 
Q 288 288 288 534 
Q 288 869 575 1136 
Q 863 1403 1828 1847 
L 1828 2141 
Q 1828 2472 1792 2558 
Q 1756 2644 1656 2708 
Q 1556 2772 1431 2772 
Q 1228 2772 1097 2681 
Q 1016 2625 1016 2550 
Q 1016 2484 1103 2388 
Q 1222 2253 1222 2128 
Q 1222 1975 1108 1867 
Q 994 1759 809 1759 
Q 613 1759 480 1878 
Q 347 1997 347 2156 
Q 347 2381 525 2586 
Q 703 2791 1022 2900 
Q 1341 3009 1684 3009 
Q 2100 3009 2342 2832 
Q 2584 2656 2656 2450 
Q 2700 2319 2700 1847 
L 2700 713 
Q 2700 513 2715 461 
Q 2731 409 2762 384 
Q 2794 359 2834 359 
Q 2916 359 3000 475 
L 3094 400 
Q 2938 169 2770 64 
Q 2603 -41 2391 -41 
Q 2141 -41 2000 76 
Q 1859 194 1828 431 
z
M 1828 659 
L 1828 1638 
Q 1450 1416 1266 1163 
Q 1144 994 1144 822 
Q 1144 678 1247 569 
Q 1325 484 1466 484 
Q 1622 484 1828 659 
z
" transform="scale(0.015625)"/>
      <path id="TimesNewRomanPS-BoldMT-74" d="M 1375 3991 
L 1375 2922 
L 2069 2922 
L 2069 2613 
L 1375 2613 
L 1375 809 
Q 1375 556 1398 482 
Q 1422 409 1481 364 
Q 1541 319 1591 319 
Q 1794 319 1975 628 
L 2069 559 
Q 1816 -41 1247 -41 
Q 969 -41 776 114 
Q 584 269 531 459 
Q 500 566 500 1034 
L 500 2613 
L 119 2613 
L 119 2722 
Q 513 3000 789 3306 
Q 1066 3613 1272 3991 
L 1375 3991 
z
" transform="scale(0.015625)"/>
      <path id="TimesNewRomanPS-BoldMT-20" transform="scale(0.015625)"/>
      <path id="TimesNewRomanPS-BoldMT-6f" d="M 1594 3009 
Q 1975 3009 2303 2812 
Q 2631 2616 2801 2253 
Q 2972 1891 2972 1459 
Q 2972 838 2656 419 
Q 2275 -88 1603 -88 
Q 944 -88 587 375 
Q 231 838 231 1447 
Q 231 2075 595 2542 
Q 959 3009 1594 3009 
z
M 1606 2788 
Q 1447 2788 1333 2667 
Q 1219 2547 1183 2192 
Q 1147 1838 1147 1206 
Q 1147 872 1191 581 
Q 1225 359 1337 243 
Q 1450 128 1594 128 
Q 1734 128 1828 206 
Q 1950 313 1991 503 
Q 2053 800 2053 1703 
Q 2053 2234 1993 2432 
Q 1934 2631 1819 2722 
Q 1738 2788 1606 2788 
z
" transform="scale(0.015625)"/>
      <path id="TimesNewRomanPS-BoldMT-6e" d="M 1409 2922 
L 1409 2544 
Q 1634 2788 1840 2898 
Q 2047 3009 2284 3009 
Q 2569 3009 2756 2851 
Q 2944 2694 3006 2459 
Q 3056 2281 3056 1775 
L 3056 638 
Q 3056 300 3117 217 
Q 3178 134 3372 113 
L 3372 0 
L 1894 0 
L 1894 113 
Q 2059 134 2131 250 
Q 2181 328 2181 638 
L 2181 1938 
Q 2181 2297 2153 2390 
Q 2125 2484 2058 2536 
Q 1991 2588 1909 2588 
Q 1641 2588 1409 2203 
L 1409 638 
Q 1409 309 1470 221 
Q 1531 134 1697 113 
L 1697 0 
L 219 0 
L 219 113 
Q 403 131 481 231 
Q 534 300 534 638 
L 534 2288 
Q 534 2619 473 2700 
Q 413 2781 219 2806 
L 219 2922 
L 1409 2922 
z
" transform="scale(0.015625)"/>
      <path id="TimesNewRomanPS-BoldMT-65" d="M 2691 1566 
L 1088 1566 
Q 1116 984 1397 647 
Q 1613 388 1916 388 
Q 2103 388 2256 492 
Q 2409 597 2584 869 
L 2691 800 
Q 2453 316 2165 114 
Q 1878 -88 1500 -88 
Q 850 -88 516 413 
Q 247 816 247 1413 
Q 247 2144 642 2576 
Q 1038 3009 1569 3009 
Q 2013 3009 2339 2645 
Q 2666 2281 2691 1566 
z
M 1922 1775 
Q 1922 2278 1867 2465 
Q 1813 2653 1697 2750 
Q 1631 2806 1522 2806 
Q 1359 2806 1256 2647 
Q 1072 2369 1072 1884 
L 1072 1775 
L 1922 1775 
z
" transform="scale(0.015625)"/>
      <path id="TimesNewRomanPS-BoldMT-6d" d="M 1428 2922 
L 1428 2538 
Q 1669 2800 1873 2904 
Q 2078 3009 2322 3009 
Q 2603 3009 2793 2878 
Q 2984 2747 3088 2478 
Q 3338 2759 3567 2884 
Q 3797 3009 4047 3009 
Q 4350 3009 4529 2870 
Q 4709 2731 4779 2517 
Q 4850 2303 4850 1834 
L 4850 638 
Q 4850 300 4911 219 
Q 4972 138 5166 113 
L 5166 0 
L 3656 0 
L 3656 113 
Q 3834 128 3919 250 
Q 3975 334 3975 638 
L 3975 1894 
Q 3975 2284 3944 2390 
Q 3913 2497 3845 2548 
Q 3778 2600 3688 2600 
Q 3553 2600 3415 2501 
Q 3278 2403 3138 2206 
L 3138 638 
Q 3138 322 3191 241 
Q 3263 125 3466 113 
L 3466 0 
L 1953 0 
L 1953 113 
Q 2075 119 2145 173 
Q 2216 228 2239 304 
Q 2263 381 2263 638 
L 2263 1894 
Q 2263 2291 2231 2391 
Q 2200 2491 2126 2547 
Q 2053 2603 1969 2603 
Q 1844 2603 1741 2538 
Q 1594 2441 1428 2206 
L 1428 638 
Q 1428 328 1489 229 
Q 1550 131 1744 113 
L 1744 0 
L 238 0 
L 238 113 
Q 422 131 500 231 
Q 553 300 553 638 
L 553 2288 
Q 553 2619 492 2700 
Q 431 2781 238 2806 
L 238 2922 
L 1428 2922 
z
" transform="scale(0.015625)"/>
      <path id="TimesNewRomanPS-BoldMT-70" d="M 1347 297 
L 1347 -791 
Q 1347 -1016 1383 -1097 
Q 1419 -1178 1494 -1215 
Q 1569 -1253 1788 -1253 
L 1788 -1369 
L 122 -1369 
L 122 -1253 
Q 316 -1247 409 -1144 
Q 472 -1072 472 -772 
L 472 2313 
Q 472 2622 400 2708 
Q 328 2794 122 2806 
L 122 2922 
L 1347 2922 
L 1347 2538 
Q 1500 2763 1659 2863 
Q 1888 3009 2156 3009 
Q 2478 3009 2742 2806 
Q 3006 2603 3143 2245 
Q 3281 1888 3281 1475 
Q 3281 1031 3139 664 
Q 2997 297 2726 104 
Q 2456 -88 2125 -88 
Q 1884 -88 1675 19 
Q 1519 100 1347 297 
z
M 1347 613 
Q 1616 231 1922 231 
Q 2091 231 2200 409 
Q 2363 672 2363 1409 
Q 2363 2166 2184 2444 
Q 2066 2628 1866 2628 
Q 1550 2628 1347 2172 
L 1347 613 
z
" transform="scale(0.015625)"/>
      <path id="TimesNewRomanPS-BoldMT-6c" d="M 1359 4238 
L 1359 606 
Q 1359 297 1431 211 
Q 1503 125 1713 113 
L 1713 0 
L 134 0 
L 134 113 
Q 328 119 422 225 
Q 484 297 484 606 
L 484 3631 
Q 484 3938 412 4023 
Q 341 4109 134 4122 
L 134 4238 
L 1359 4238 
z
" transform="scale(0.015625)"/>
      <path id="TimesNewRomanPS-BoldMT-79" d="M 1556 -119 
L 613 2047 
Q 400 2538 298 2650 
Q 197 2763 53 2806 
L 53 2922 
L 1606 2922 
L 1606 2806 
Q 1453 2800 1390 2747 
Q 1328 2694 1328 2619 
Q 1328 2500 1484 2150 
L 1984 1006 
L 2325 1891 
Q 2509 2363 2509 2547 
Q 2509 2663 2432 2731 
Q 2356 2800 2163 2806 
L 2163 2922 
L 3141 2922 
L 3141 2806 
Q 2997 2791 2906 2695 
Q 2816 2600 2603 2047 
L 1769 -119 
Q 1453 -931 1300 -1119 
Q 1084 -1381 759 -1381 
Q 500 -1381 339 -1232 
Q 178 -1084 178 -875 
Q 178 -694 289 -575 
Q 400 -456 563 -456 
Q 719 -456 814 -556 
Q 909 -656 913 -866 
Q 916 -984 941 -1019 
Q 966 -1053 1013 -1053 
Q 1088 -1053 1172 -963 
Q 1297 -831 1466 -363 
L 1556 -119 
z
" transform="scale(0.015625)"/>
      <path id="TimesNewRomanPS-BoldMT-72" d="M 1428 2922 
L 1428 2259 
Q 1719 2713 1937 2861 
Q 2156 3009 2359 3009 
Q 2534 3009 2639 2901 
Q 2744 2794 2744 2597 
Q 2744 2388 2642 2272 
Q 2541 2156 2397 2156 
Q 2231 2156 2109 2262 
Q 1988 2369 1966 2381 
Q 1934 2400 1894 2400 
Q 1803 2400 1722 2331 
Q 1594 2225 1528 2028 
Q 1428 1725 1428 1359 
L 1428 688 
L 1431 513 
Q 1431 334 1453 284 
Q 1491 200 1564 161 
Q 1638 122 1813 113 
L 1813 0 
L 234 0 
L 234 113 
Q 425 128 492 217 
Q 559 306 559 688 
L 559 2303 
Q 559 2553 534 2622 
Q 503 2709 443 2750 
Q 384 2791 234 2806 
L 234 2922 
L 1428 2922 
z
" transform="scale(0.015625)"/>
      <path id="TimesNewRomanPS-BoldMT-73" d="M 2063 3003 
L 2109 2006 
L 2003 2006 
Q 1813 2450 1608 2612 
Q 1403 2775 1200 2775 
Q 1072 2775 981 2689 
Q 891 2603 891 2491 
Q 891 2406 953 2328 
Q 1053 2200 1512 1889 
Q 1972 1578 2117 1361 
Q 2263 1144 2263 875 
Q 2263 631 2141 397 
Q 2019 163 1797 37 
Q 1575 -88 1306 -88 
Q 1097 -88 747 44 
Q 653 78 619 78 
Q 516 78 447 -78 
L 344 -78 
L 294 972 
L 400 972 
Q 541 559 786 353 
Q 1031 147 1250 147 
Q 1400 147 1495 239 
Q 1591 331 1591 463 
Q 1591 613 1497 722 
Q 1403 831 1078 1053 
Q 600 1384 459 1559 
Q 253 1816 253 2125 
Q 253 2463 486 2736 
Q 719 3009 1159 3009 
Q 1397 3009 1619 2894 
Q 1703 2847 1756 2847 
Q 1813 2847 1847 2870 
Q 1881 2894 1956 3003 
L 2063 3003 
z
" transform="scale(0.015625)"/>
      <path id="TimesNewRomanPS-BoldMT-69" d="M 919 4338 
Q 1122 4338 1262 4195 
Q 1403 4053 1403 3853 
Q 1403 3653 1261 3512 
Q 1119 3372 919 3372 
Q 719 3372 578 3512 
Q 438 3653 438 3853 
Q 438 4053 578 4195 
Q 719 4338 919 4338 
z
M 1356 2922 
L 1356 606 
Q 1356 297 1428 211 
Q 1500 125 1709 113 
L 1709 0 
L 131 0 
L 131 113 
Q 325 119 419 225 
Q 481 297 481 606 
L 481 2313 
Q 481 2622 409 2708 
Q 338 2794 131 2806 
L 131 2922 
L 1356 2922 
z
" transform="scale(0.015625)"/>
      <path id="TimesNewRomanPS-BoldMT-64" d="M 3056 4238 
L 3056 875 
Q 3056 534 3075 472 
Q 3100 369 3170 319 
Q 3241 269 3416 256 
L 3416 153 
L 2181 -88 
L 2181 375 
Q 1959 106 1786 9 
Q 1613 -88 1394 -88 
Q 834 -88 509 413 
Q 247 819 247 1409 
Q 247 1881 409 2254 
Q 572 2628 855 2818 
Q 1138 3009 1463 3009 
Q 1672 3009 1834 2928 
Q 1997 2847 2181 2644 
L 2181 3525 
Q 2181 3859 2153 3928 
Q 2116 4019 2041 4062 
Q 1966 4106 1759 4106 
L 1759 4238 
L 3056 4238 
z
M 2181 2256 
Q 1950 2700 1616 2700 
Q 1500 2700 1425 2638 
Q 1309 2541 1236 2297 
Q 1163 2053 1163 1550 
Q 1163 997 1244 731 
Q 1325 466 1466 347 
Q 1538 288 1663 288 
Q 1938 288 2181 719 
L 2181 2256 
z
" transform="scale(0.015625)"/>
      <path id="TimesNewRomanPS-BoldMT-66" d="M 1497 2616 
L 1497 588 
Q 1497 294 1559 219 
Q 1659 103 1928 113 
L 1928 0 
L 206 0 
L 206 113 
Q 403 116 486 158 
Q 569 200 600 275 
Q 631 350 631 588 
L 631 2616 
L 206 2616 
L 206 2922 
L 631 2922 
L 631 3138 
L 628 3284 
Q 628 3734 958 4034 
Q 1288 4334 1850 4334 
Q 2234 4334 2420 4190 
Q 2606 4047 2606 3872 
Q 2606 3731 2490 3628 
Q 2375 3525 2184 3525 
Q 2022 3525 1926 3609 
Q 1831 3694 1831 3797 
Q 1831 3825 1850 3913 
Q 1863 3966 1863 4013 
Q 1863 4078 1825 4109 
Q 1775 4156 1703 4156 
Q 1613 4156 1552 4081 
Q 1491 4006 1491 3841 
L 1497 3294 
L 1497 2922 
L 1928 2922 
L 1928 2616 
L 1497 2616 
z
" transform="scale(0.015625)"/>
      <path id="TimesNewRomanPS-BoldMT-63" d="M 2600 753 
L 2697 678 
Q 2491 291 2183 101 
Q 1875 -88 1528 -88 
Q 944 -88 594 353 
Q 244 794 244 1413 
Q 244 2009 563 2463 
Q 947 3009 1622 3009 
Q 2075 3009 2342 2781 
Q 2609 2553 2609 2272 
Q 2609 2094 2501 1987 
Q 2394 1881 2219 1881 
Q 2034 1881 1914 2003 
Q 1794 2125 1766 2438 
Q 1747 2634 1675 2713 
Q 1603 2791 1506 2791 
Q 1356 2791 1250 2631 
Q 1088 2391 1088 1894 
Q 1088 1481 1219 1104 
Q 1350 728 1578 544 
Q 1750 409 1984 409 
Q 2138 409 2275 481 
Q 2413 553 2600 753 
z
" transform="scale(0.015625)"/>
      <path id="TimesNewRomanPS-BoldMT-68" d="M 1409 4238 
L 1409 2547 
Q 1650 2800 1850 2904 
Q 2050 3009 2266 3009 
Q 2541 3009 2736 2853 
Q 2931 2697 2995 2486 
Q 3059 2275 3059 1775 
L 3059 634 
Q 3059 300 3121 217 
Q 3184 134 3375 113 
L 3375 0 
L 1894 0 
L 1894 113 
Q 2050 134 2128 238 
Q 2184 319 2184 634 
L 2184 1938 
Q 2184 2300 2156 2392 
Q 2128 2484 2061 2536 
Q 1994 2588 1909 2588 
Q 1784 2588 1665 2502 
Q 1547 2416 1409 2200 
L 1409 634 
Q 1409 322 1456 244 
Q 1516 138 1700 113 
L 1700 0 
L 219 0 
L 219 113 
Q 403 131 481 231 
Q 534 300 534 634 
L 534 3603 
Q 534 3934 473 4015 
Q 413 4097 219 4122 
L 219 4238 
L 1409 4238 
z
" transform="scale(0.015625)"/>
      <path id="TimesNewRomanPS-BoldMT-28" d="M 2056 4334 
L 2056 4191 
Q 1731 3978 1578 3775 
Q 1366 3494 1247 3053 
Q 1097 2506 1097 1525 
Q 1097 600 1233 87 
Q 1369 -425 1603 -741 
Q 1766 -959 2056 -1125 
L 2056 -1281 
Q 1303 -1028 779 -248 
Q 256 531 256 1544 
Q 256 2544 778 3314 
Q 1300 4084 2056 4334 
z
" transform="scale(0.015625)"/>
      <path id="TimesNewRomanPS-BoldMT-25" d="M 4916 4334 
L 1906 -178 
L 1488 -178 
L 4494 4334 
L 4916 4334 
z
M 1494 4334 
Q 1938 4334 2242 4020 
Q 2547 3706 2547 3209 
Q 2547 2700 2240 2383 
Q 1934 2066 1481 2066 
Q 1034 2066 739 2372 
Q 444 2678 444 3178 
Q 444 3694 747 4014 
Q 1050 4334 1494 4334 
z
M 1494 4169 
Q 1425 4169 1381 4128 
Q 1303 4056 1264 3879 
Q 1225 3703 1225 3150 
Q 1225 2709 1278 2469 
Q 1309 2331 1384 2263 
Q 1431 2222 1494 2222 
Q 1563 2222 1603 2259 
Q 1675 2325 1709 2472 
Q 1763 2709 1763 3138 
Q 1763 3663 1713 3897 
Q 1678 4059 1600 4134 
Q 1563 4169 1494 4169 
z
M 4894 2097 
Q 5347 2097 5651 1786 
Q 5956 1475 5956 972 
Q 5956 463 5647 144 
Q 5338 -175 4900 -175 
Q 4466 -175 4161 144 
Q 3856 463 3856 963 
Q 3856 1466 4153 1781 
Q 4450 2097 4894 2097 
z
M 4903 1934 
Q 4841 1934 4797 1897 
Q 4722 1828 4681 1658 
Q 4641 1488 4641 1006 
Q 4641 494 4688 269 
Q 4722 109 4803 38 
Q 4844 0 4909 0 
Q 4969 0 5006 34 
Q 5084 106 5122 269 
Q 5175 497 5175 959 
Q 5175 1447 5125 1672 
Q 5088 1834 5013 1900 
Q 4975 1934 4903 1934 
z
" transform="scale(0.015625)"/>
      <path id="TimesNewRomanPS-BoldMT-29" d="M 78 -1281 
L 78 -1138 
Q 403 -922 556 -719 
Q 766 -438 888 0 
Q 1038 550 1038 1531 
Q 1038 2456 902 2967 
Q 766 3478 531 3794 
Q 369 4013 78 4178 
L 78 4334 
Q 831 4081 1354 3301 
Q 1878 2522 1878 1509 
Q 1878 513 1354 -257 
Q 831 -1028 78 -1281 
z
" transform="scale(0.015625)"/>
     </defs>
     <use xlink:href="#TimesNewRomanPS-BoldMT-44"/>
     <use xlink:href="#TimesNewRomanPS-BoldMT-61" x="72.216797"/>
     <use xlink:href="#TimesNewRomanPS-BoldMT-74" x="122.216797"/>
     <use xlink:href="#TimesNewRomanPS-BoldMT-61" x="155.517578"/>
     <use xlink:href="#TimesNewRomanPS-BoldMT-20" x="205.517578"/>
     <use xlink:href="#TimesNewRomanPS-BoldMT-6f" x="230.517578"/>
     <use xlink:href="#TimesNewRomanPS-BoldMT-6e" x="280.517578"/>
     <use xlink:href="#TimesNewRomanPS-BoldMT-20" x="336.132812"/>
     <use xlink:href="#TimesNewRomanPS-BoldMT-65" x="361.132812"/>
     <use xlink:href="#TimesNewRomanPS-BoldMT-6d" x="405.517578"/>
     <use xlink:href="#TimesNewRomanPS-BoldMT-70" x="488.818359"/>
     <use xlink:href="#TimesNewRomanPS-BoldMT-6c" x="544.433594"/>
     <use xlink:href="#TimesNewRomanPS-BoldMT-6f" x="572.216797"/>
     <use xlink:href="#TimesNewRomanPS-BoldMT-79" x="622.216797"/>
     <use xlink:href="#TimesNewRomanPS-BoldMT-6d" x="672.216797"/>
     <use xlink:href="#TimesNewRomanPS-BoldMT-65" x="755.517578"/>
     <use xlink:href="#TimesNewRomanPS-BoldMT-6e" x="799.902344"/>
     <use xlink:href="#TimesNewRomanPS-BoldMT-74" x="855.517578"/>
     <use xlink:href="#TimesNewRomanPS-BoldMT-20" x="888.818359"/>
     <use xlink:href="#TimesNewRomanPS-BoldMT-72" x="913.818359"/>
     <use xlink:href="#TimesNewRomanPS-BoldMT-61" x="958.203125"/>
     <use xlink:href="#TimesNewRomanPS-BoldMT-74" x="1008.203125"/>
     <use xlink:href="#TimesNewRomanPS-BoldMT-65" x="1041.503906"/>
     <use xlink:href="#TimesNewRomanPS-BoldMT-73" x="1085.888672"/>
     <use xlink:href="#TimesNewRomanPS-BoldMT-20" x="1124.804688"/>
     <use xlink:href="#TimesNewRomanPS-BoldMT-69" x="1149.804688"/>
     <use xlink:href="#TimesNewRomanPS-BoldMT-6e" x="1177.587891"/>
     <use xlink:href="#TimesNewRomanPS-BoldMT-20" x="1233.203125"/>
     <use xlink:href="#TimesNewRomanPS-BoldMT-64" x="1258.203125"/>
     <use xlink:href="#TimesNewRomanPS-BoldMT-69" x="1313.818359"/>
     <use xlink:href="#TimesNewRomanPS-BoldMT-66" x="1341.601562"/>
     <use xlink:href="#TimesNewRomanPS-BoldMT-66" x="1374.902344"/>
     <use xlink:href="#TimesNewRomanPS-BoldMT-65" x="1408.203125"/>
     <use xlink:href="#TimesNewRomanPS-BoldMT-72" x="1452.587891"/>
     <use xlink:href="#TimesNewRomanPS-BoldMT-65" x="1495.222656"/>
     <use xlink:href="#TimesNewRomanPS-BoldMT-6e" x="1539.607422"/>
     <use xlink:href="#TimesNewRomanPS-BoldMT-74" x="1595.222656"/>
     <use xlink:href="#TimesNewRomanPS-BoldMT-20" x="1628.523438"/>
     <use xlink:href="#TimesNewRomanPS-BoldMT-73" x="1653.523438"/>
     <use xlink:href="#TimesNewRomanPS-BoldMT-63" x="1692.439453"/>
     <use xlink:href="#TimesNewRomanPS-BoldMT-68" x="1736.824219"/>
     <use xlink:href="#TimesNewRomanPS-BoldMT-6f" x="1792.439453"/>
     <use xlink:href="#TimesNewRomanPS-BoldMT-6f" x="1842.439453"/>
     <use xlink:href="#TimesNewRomanPS-BoldMT-6c" x="1892.439453"/>
     <use xlink:href="#TimesNewRomanPS-BoldMT-73" x="1920.222656"/>
     <use xlink:href="#TimesNewRomanPS-BoldMT-20" x="1959.138672"/>
     <use xlink:href="#TimesNewRomanPS-BoldMT-28" x="1984.138672"/>
     <use xlink:href="#TimesNewRomanPS-BoldMT-25" x="2017.439453"/>
     <use xlink:href="#TimesNewRomanPS-BoldMT-29" x="2117.439453"/>
    </g>
   </g>
  </g>
 </g>
 <defs>
  <clipPath id="p98f953ce77">
   <rect x="45.915937" y="30.045" width="381.81" height="199.414894"/>
  </clipPath>
 </defs>
</svg>
