<?xml version="1.0" encoding="utf-8" standalone="no"?>
<!DOCTYPE svg PUBLIC "-//W3C//DTD SVG 1.1//EN"
  "http://www.w3.org/Graphics/SVG/1.1/DTD/svg11.dtd">
<svg xmlns:xlink="http://www.w3.org/1999/xlink" width="434.925937pt" height="319.973068pt" viewBox="0 0 434.925937 319.973068" xmlns="http://www.w3.org/2000/svg" version="1.1">
 <metadata>
  <rdf:RDF xmlns:dc="http://purl.org/dc/elements/1.1/" xmlns:cc="http://creativecommons.org/ns#" xmlns:rdf="http://www.w3.org/1999/02/22-rdf-syntax-ns#">
   <cc:Work>
    <dc:type rdf:resource="http://purl.org/dc/dcmitype/StillImage"/>
    <dc:date>2025-05-26T17:21:51.693326</dc:date>
    <dc:format>image/svg+xml</dc:format>
    <dc:creator>
     <cc:Agent>
      <dc:title>Matplotlib v3.7.2, https://matplotlib.org/</dc:title>
     </cc:Agent>
    </dc:creator>
   </cc:Work>
  </rdf:RDF>
 </metadata>
 <defs>
  <style type="text/css">*{stroke-linejoin: round; stroke-linecap: butt}</style>
 </defs>
 <g id="figure_1">
  <g id="patch_1">
   <path d="M 0 319.973068 
L 434.925937 319.973068 
L 434.925937 0 
L 0 0 
z
" style="fill: #ffffff"/>
  </g>
  <g id="axes_1">
   <g id="patch_2">
    <path d="M 45.915937 227.126442 
L 427.725938 227.126442 
L 427.725938 30.045 
L 45.915937 30.045 
z
" style="fill: #ffffff"/>
   </g>
   <g id="PolyCollection_1">
    <defs>
     <path id="m0fcdb41d76" d="M 125.39191 -103.34154 
L 93.709965 -103.34154 
L 91.684493 -104.550406 
L 89.576817 -105.759272 
L 87.408344 -106.968137 
L 85.201519 -108.177003 
L 82.978918 -109.385869 
L 80.762401 -110.594734 
L 78.572426 -111.8036 
L 76.427586 -113.012466 
L 74.344414 -114.221332 
L 72.337472 -115.430197 
L 70.419684 -116.639063 
L 68.602859 -117.847929 
L 66.898306 -119.056794 
L 65.317428 -120.26566 
L 63.872178 -121.474526 
L 62.575291 -122.683391 
L 61.440217 -123.892257 
L 60.480735 -125.101123 
L 59.710282 -126.309989 
L 59.141058 -127.518854 
L 58.783025 -128.72772 
L 58.642938 -129.936586 
L 58.72352 -131.145451 
L 59.022928 -132.354317 
L 59.534561 -133.563183 
L 60.247267 -134.772049 
L 61.145919 -135.980914 
L 62.212301 -137.18978 
L 63.426195 -138.398646 
L 64.766544 -139.607511 
L 66.212555 -140.816377 
L 67.744622 -142.025243 
L 69.344979 -143.234108 
L 70.998031 -144.442974 
L 72.690351 -145.65184 
L 74.410387 -146.860706 
L 76.147943 -148.069571 
L 77.893536 -149.278437 
L 79.637732 -150.487303 
L 81.370566 -151.696168 
L 83.081133 -152.905034 
L 84.7574 -154.1139 
L 86.38628 -155.322766 
L 87.953936 -156.531631 
L 89.446303 -157.740497 
L 90.849745 -158.949363 
L 92.151781 -160.158228 
L 93.341801 -161.367094 
L 94.411706 -162.57596 
L 95.356394 -163.784825 
L 96.174083 -164.993691 
L 96.866431 -166.202557 
L 97.438464 -167.411423 
L 97.898337 -168.620288 
L 98.256937 -169.829154 
L 98.527395 -171.03802 
L 98.724514 -172.246885 
L 98.864168 -173.455751 
L 98.96269 -174.664617 
L 99.036284 -175.873483 
L 99.100465 -177.082348 
L 99.169563 -178.291214 
L 99.256283 -179.50008 
L 99.371345 -180.708945 
L 99.523201 -181.917811 
L 99.717843 -183.126677 
L 99.958708 -184.335542 
L 100.246667 -185.544408 
L 100.580122 -186.753274 
L 100.955176 -187.96214 
L 101.365899 -189.171005 
L 101.804661 -190.379871 
L 102.262518 -191.588737 
L 102.729653 -192.797602 
L 103.195836 -194.006468 
L 103.650895 -195.215334 
L 104.085179 -196.424199 
L 104.489984 -197.633065 
L 104.857934 -198.841931 
L 105.183292 -200.050797 
L 105.462183 -201.259662 
L 105.692732 -202.468528 
L 105.875082 -203.677394 
L 106.011328 -204.886259 
L 106.105342 -206.095125 
L 106.162518 -207.303991 
L 106.189452 -208.512857 
L 106.193577 -209.721722 
L 106.18277 -210.930588 
L 106.164971 -212.139454 
L 106.147816 -213.348319 
L 106.138312 -214.557185 
L 106.142565 -215.766051 
L 106.165569 -216.974916 
L 106.211055 -218.183782 
L 106.281411 -219.392648 
L 106.377665 -220.601514 
L 106.499524 -221.810379 
L 106.645469 -223.019245 
L 112.456406 -223.019245 
L 112.456406 -223.019245 
L 112.602351 -221.810379 
L 112.72421 -220.601514 
L 112.820464 -219.392648 
L 112.89082 -218.183782 
L 112.936306 -216.974916 
L 112.95931 -215.766051 
L 112.963563 -214.557185 
L 112.954059 -213.348319 
L 112.936904 -212.139454 
L 112.919105 -210.930588 
L 112.908298 -209.721722 
L 112.912423 -208.512857 
L 112.939357 -207.303991 
L 112.996533 -206.095125 
L 113.090547 -204.886259 
L 113.226793 -203.677394 
L 113.409143 -202.468528 
L 113.639692 -201.259662 
L 113.918583 -200.050797 
L 114.243941 -198.841931 
L 114.611891 -197.633065 
L 115.016696 -196.424199 
L 115.45098 -195.215334 
L 115.906039 -194.006468 
L 116.372222 -192.797602 
L 116.839357 -191.588737 
L 117.297214 -190.379871 
L 117.735976 -189.171005 
L 118.146699 -187.96214 
L 118.521753 -186.753274 
L 118.855208 -185.544408 
L 119.143167 -184.335542 
L 119.384032 -183.126677 
L 119.578674 -181.917811 
L 119.73053 -180.708945 
L 119.845592 -179.50008 
L 119.932312 -178.291214 
L 120.00141 -177.082348 
L 120.065591 -175.873483 
L 120.139185 -174.664617 
L 120.237707 -173.455751 
L 120.377361 -172.246885 
L 120.57448 -171.03802 
L 120.844938 -169.829154 
L 121.203538 -168.620288 
L 121.663411 -167.411423 
L 122.235444 -166.202557 
L 122.927792 -164.993691 
L 123.745481 -163.784825 
L 124.690169 -162.57596 
L 125.760074 -161.367094 
L 126.950094 -160.158228 
L 128.25213 -158.949363 
L 129.655572 -157.740497 
L 131.147939 -156.531631 
L 132.715595 -155.322766 
L 134.344475 -154.1139 
L 136.020742 -152.905034 
L 137.731309 -151.696168 
L 139.464143 -150.487303 
L 141.208339 -149.278437 
L 142.953932 -148.069571 
L 144.691488 -146.860706 
L 146.411524 -145.65184 
L 148.103844 -144.442974 
L 149.756896 -143.234108 
L 151.357253 -142.025243 
L 152.88932 -140.816377 
L 154.335331 -139.607511 
L 155.67568 -138.398646 
L 156.889574 -137.18978 
L 157.955956 -135.980914 
L 158.854608 -134.772049 
L 159.567314 -133.563183 
L 160.078947 -132.354317 
L 160.378355 -131.145451 
L 160.458937 -129.936586 
L 160.31885 -128.72772 
L 159.960817 -127.518854 
L 159.391593 -126.309989 
L 158.62114 -125.101123 
L 157.661658 -123.892257 
L 156.526584 -122.683391 
L 155.229697 -121.474526 
L 153.784447 -120.26566 
L 152.203569 -119.056794 
L 150.499016 -117.847929 
L 148.682191 -116.639063 
L 146.764403 -115.430197 
L 144.757461 -114.221332 
L 142.674289 -113.012466 
L 140.529449 -111.8036 
L 138.339474 -110.594734 
L 136.122957 -109.385869 
L 133.900356 -108.177003 
L 131.693531 -106.968137 
L 129.525058 -105.759272 
L 127.417382 -104.550406 
L 125.39191 -103.34154 
z
" style="stroke: #000000; stroke-opacity: 0.7"/>
    </defs>
    <g clip-path="url(#pd8ef21991a)">
     <use xlink:href="#m0fcdb41d76" x="0" y="319.973068" style="fill: #ff9896; fill-opacity: 0.7; stroke: #000000; stroke-opacity: 0.7"/>
    </g>
   </g>
   <g id="PolyCollection_2">
    <defs>
     <path id="ma1819ae9e0" d="M 255.427388 -105.503292 
L 218.214487 -105.503292 
L 215.157918 -107.275681 
L 211.974978 -109.04807 
L 208.731346 -110.82046 
L 205.498036 -112.592849 
L 202.34759 -114.365238 
L 199.35007 -116.137627 
L 196.569177 -117.910016 
L 194.05888 -119.682405 
L 191.860869 -121.454795 
L 190.0031 -123.227184 
L 188.499613 -124.999573 
L 187.351628 -126.771962 
L 186.549776 -128.544351 
L 186.077181 -130.31674 
L 185.912938 -132.08913 
L 186.035526 -133.861519 
L 186.425632 -135.633908 
L 187.067981 -137.406297 
L 187.95189 -139.178686 
L 189.07048 -140.951075 
L 190.418687 -142.723465 
L 191.990438 -144.495854 
L 193.775498 -146.268243 
L 195.756617 -148.040632 
L 197.907527 -149.813021 
L 200.192265 -151.585411 
L 202.566038 -153.3578 
L 204.977619 -155.130189 
L 207.372953 -156.902578 
L 209.699485 -158.674967 
L 211.910564 -160.447356 
L 213.969285 -162.219746 
L 215.851226 -163.992135 
L 217.545719 -165.764524 
L 219.05553 -167.536913 
L 220.39505 -169.309302 
L 221.587302 -171.081691 
L 222.660225 -172.854081 
L 223.64273 -174.62647 
L 224.561054 -176.398859 
L 225.435819 -178.171248 
L 226.280131 -179.943637 
L 227.09885 -181.716026 
L 227.889046 -183.488416 
L 228.641479 -185.260805 
L 229.342841 -187.033194 
L 229.978413 -188.805583 
L 230.534757 -190.577972 
L 231.002092 -192.350362 
L 231.376047 -194.122751 
L 231.658596 -195.89514 
L 231.858085 -197.667529 
L 231.98838 -199.439918 
L 232.067305 -201.212307 
L 232.114601 -202.984697 
L 232.149734 -204.757086 
L 232.189867 -206.529475 
L 232.248296 -208.301864 
L 232.333556 -210.074253 
L 232.449296 -211.846642 
L 232.594865 -213.619032 
L 232.766445 -215.391421 
L 232.958466 -217.16381 
L 233.165018 -218.936199 
L 233.380976 -220.708588 
L 233.602681 -222.480977 
L 233.828089 -224.253367 
L 234.056466 -226.025756 
L 234.287767 -227.798145 
L 234.521908 -229.570534 
L 234.758124 -231.342923 
L 234.994578 -233.115313 
L 235.228277 -234.887702 
L 235.455298 -236.660091 
L 235.67123 -238.43248 
L 235.871725 -240.204869 
L 236.053018 -241.977258 
L 236.212321 -243.749648 
L 236.34802 -245.522037 
L 236.459674 -247.294426 
L 236.54783 -249.066815 
L 236.613733 -250.839204 
L 236.658975 -252.611593 
L 236.685189 -254.383983 
L 236.693809 -256.156372 
L 236.685957 -257.928761 
L 236.662469 -259.70115 
L 236.624042 -261.473539 
L 236.57148 -263.245928 
L 236.505989 -265.018318 
L 236.429469 -266.790707 
L 236.344728 -268.563096 
L 236.255569 -270.335485 
L 236.166693 -272.107874 
L 236.083435 -273.880264 
L 236.011309 -275.652653 
L 235.955469 -277.425042 
L 235.920121 -279.197431 
L 235.908025 -280.96982 
L 237.73385 -280.96982 
L 237.73385 -280.96982 
L 237.721754 -279.197431 
L 237.686406 -277.425042 
L 237.630566 -275.652653 
L 237.55844 -273.880264 
L 237.475182 -272.107874 
L 237.386306 -270.335485 
L 237.297147 -268.563096 
L 237.212406 -266.790707 
L 237.135886 -265.018318 
L 237.070395 -263.245928 
L 237.017833 -261.473539 
L 236.979406 -259.70115 
L 236.955918 -257.928761 
L 236.948066 -256.156372 
L 236.956686 -254.383983 
L 236.9829 -252.611593 
L 237.028142 -250.839204 
L 237.094045 -249.066815 
L 237.182201 -247.294426 
L 237.293855 -245.522037 
L 237.429554 -243.749648 
L 237.588857 -241.977258 
L 237.77015 -240.204869 
L 237.970645 -238.43248 
L 238.186577 -236.660091 
L 238.413598 -234.887702 
L 238.647297 -233.115313 
L 238.883751 -231.342923 
L 239.119967 -229.570534 
L 239.354108 -227.798145 
L 239.585409 -226.025756 
L 239.813786 -224.253367 
L 240.039194 -222.480977 
L 240.260899 -220.708588 
L 240.476857 -218.936199 
L 240.683409 -217.16381 
L 240.87543 -215.391421 
L 241.04701 -213.619032 
L 241.192579 -211.846642 
L 241.308319 -210.074253 
L 241.393579 -208.301864 
L 241.452008 -206.529475 
L 241.492141 -204.757086 
L 241.527274 -202.984697 
L 241.57457 -201.212307 
L 241.653495 -199.439918 
L 241.78379 -197.667529 
L 241.983279 -195.89514 
L 242.265828 -194.122751 
L 242.639783 -192.350362 
L 243.107118 -190.577972 
L 243.663462 -188.805583 
L 244.299034 -187.033194 
L 245.000396 -185.260805 
L 245.752829 -183.488416 
L 246.543025 -181.716026 
L 247.361744 -179.943637 
L 248.206056 -178.171248 
L 249.080821 -176.398859 
L 249.999145 -174.62647 
L 250.98165 -172.854081 
L 252.054573 -171.081691 
L 253.246825 -169.309302 
L 254.586345 -167.536913 
L 256.096156 -165.764524 
L 257.790649 -163.992135 
L 259.67259 -162.219746 
L 261.731311 -160.447356 
L 263.94239 -158.674967 
L 266.268922 -156.902578 
L 268.664256 -155.130189 
L 271.075837 -153.3578 
L 273.44961 -151.585411 
L 275.734348 -149.813021 
L 277.885258 -148.040632 
L 279.866377 -146.268243 
L 281.651437 -144.495854 
L 283.223188 -142.723465 
L 284.571395 -140.951075 
L 285.689985 -139.178686 
L 286.573894 -137.406297 
L 287.216243 -135.633908 
L 287.606349 -133.861519 
L 287.728938 -132.08913 
L 287.564694 -130.31674 
L 287.092099 -128.544351 
L 286.290247 -126.771962 
L 285.142262 -124.999573 
L 283.638775 -123.227184 
L 281.781006 -121.454795 
L 279.582995 -119.682405 
L 277.072698 -117.910016 
L 274.291805 -116.137627 
L 271.294285 -114.365238 
L 268.143839 -112.592849 
L 264.910529 -110.82046 
L 261.666897 -109.04807 
L 258.483957 -107.275681 
L 255.427388 -105.503292 
z
" style="stroke: #000000; stroke-opacity: 0.7"/>
    </defs>
    <g clip-path="url(#pd8ef21991a)">
     <use xlink:href="#ma1819ae9e0" x="0" y="319.973068" style="fill: #ffd92f; fill-opacity: 0.7; stroke: #000000; stroke-opacity: 0.7"/>
    </g>
   </g>
   <g id="PolyCollection_3">
    <defs>
     <path id="mcc2fc7c8ad" d="M 387.542512 -101.804873 
L 340.639363 -101.804873 
L 337.183472 -102.812744 
L 333.72586 -103.820614 
L 330.362863 -104.828484 
L 327.186149 -105.836355 
L 324.275273 -106.844225 
L 321.691465 -107.852096 
L 319.473517 -108.859966 
L 317.636338 -109.867837 
L 316.172313 -110.875707 
L 315.055164 -111.883577 
L 314.245571 -112.891448 
L 313.697565 -113.899318 
L 313.364643 -114.907189 
L 313.204666 -115.915059 
L 313.182938 -116.922929 
L 313.273268 -117.9308 
L 313.457214 -118.93867 
L 313.72203 -119.946541 
L 314.058017 -120.954411 
L 314.455966 -121.962281 
L 314.905236 -122.970152 
L 315.392803 -123.978022 
L 315.903338 -124.985893 
L 316.420209 -125.993763 
L 316.927143 -127.001633 
L 317.410289 -128.009504 
L 317.860394 -129.017374 
L 318.274885 -130.025245 
L 318.659623 -131.033115 
L 319.030131 -132.040985 
L 319.412022 -133.048856 
L 319.840386 -134.056726 
L 320.35789 -135.064597 
L 321.011541 -136.072467 
L 321.848221 -137.080337 
L 322.909416 -138.088208 
L 324.225797 -139.096078 
L 325.812471 -140.103949 
L 327.665722 -141.111819 
L 329.761873 -142.11969 
L 332.05858 -143.12756 
L 334.498424 -144.13543 
L 337.014278 -145.143301 
L 339.535621 -146.151171 
L 341.994855 -147.159042 
L 344.332753 -148.166912 
L 346.502417 -149.174782 
L 348.471433 -150.182653 
L 350.22226 -151.190523 
L 351.751153 -152.198394 
L 353.066048 -153.206264 
L 354.183887 -154.214134 
L 355.127775 -155.222005 
L 355.92426 -156.229875 
L 356.600904 -157.237746 
L 357.184234 -158.245616 
L 357.698119 -159.253486 
L 358.162601 -160.261357 
L 358.593224 -161.269227 
L 359.000868 -162.277098 
L 359.392068 -163.284968 
L 359.769761 -164.292838 
L 360.134296 -165.300709 
L 360.484557 -166.308579 
L 360.818977 -167.31645 
L 361.136311 -168.32432 
L 361.43605 -169.33219 
L 361.718482 -170.340061 
L 361.984462 -171.347931 
L 362.235023 -172.355802 
L 362.470969 -173.363672 
L 362.692573 -174.371542 
L 362.899453 -175.379413 
L 363.090645 -176.387283 
L 363.26483 -177.395154 
L 363.420639 -178.403024 
L 363.55695 -179.410895 
L 363.673108 -180.418765 
L 363.769023 -181.426635 
L 363.845132 -182.434506 
L 363.90225 -183.442376 
L 363.941365 -184.450247 
L 363.963405 -185.458117 
L 363.969058 -186.465987 
L 363.958677 -187.473858 
L 363.932287 -188.481728 
L 363.889729 -189.489599 
L 363.830903 -190.497469 
L 363.756098 -191.505339 
L 363.666349 -192.51321 
L 363.563756 -193.52108 
L 363.451705 -194.528951 
L 363.334917 -195.536821 
L 363.219288 -196.544691 
L 363.111507 -197.552562 
L 363.018484 -198.560432 
L 362.946653 -199.568303 
L 362.901259 -200.576173 
L 362.885734 -201.584043 
L 365.296141 -201.584043 
L 365.296141 -201.584043 
L 365.280616 -200.576173 
L 365.235222 -199.568303 
L 365.163391 -198.560432 
L 365.070368 -197.552562 
L 364.962587 -196.544691 
L 364.846958 -195.536821 
L 364.73017 -194.528951 
L 364.618119 -193.52108 
L 364.515526 -192.51321 
L 364.425777 -191.505339 
L 364.350972 -190.497469 
L 364.292146 -189.489599 
L 364.249588 -188.481728 
L 364.223198 -187.473858 
L 364.212817 -186.465987 
L 364.21847 -185.458117 
L 364.24051 -184.450247 
L 364.279625 -183.442376 
L 364.336743 -182.434506 
L 364.412852 -181.426635 
L 364.508767 -180.418765 
L 364.624925 -179.410895 
L 364.761236 -178.403024 
L 364.917045 -177.395154 
L 365.09123 -176.387283 
L 365.282422 -175.379413 
L 365.489302 -174.371542 
L 365.710906 -173.363672 
L 365.946852 -172.355802 
L 366.197413 -171.347931 
L 366.463393 -170.340061 
L 366.745825 -169.33219 
L 367.045564 -168.32432 
L 367.362898 -167.31645 
L 367.697318 -166.308579 
L 368.047579 -165.300709 
L 368.412114 -164.292838 
L 368.789807 -163.284968 
L 369.181007 -162.277098 
L 369.588651 -161.269227 
L 370.019274 -160.261357 
L 370.483756 -159.253486 
L 370.997641 -158.245616 
L 371.580971 -157.237746 
L 372.257615 -156.229875 
L 373.0541 -155.222005 
L 373.997988 -154.214134 
L 375.115827 -153.206264 
L 376.430722 -152.198394 
L 377.959615 -151.190523 
L 379.710442 -150.182653 
L 381.679458 -149.174782 
L 383.849122 -148.166912 
L 386.18702 -147.159042 
L 388.646254 -146.151171 
L 391.167597 -145.143301 
L 393.683451 -144.13543 
L 396.123295 -143.12756 
L 398.420002 -142.11969 
L 400.516153 -141.111819 
L 402.369404 -140.103949 
L 403.956078 -139.096078 
L 405.272459 -138.088208 
L 406.333654 -137.080337 
L 407.170334 -136.072467 
L 407.823985 -135.064597 
L 408.341489 -134.056726 
L 408.769853 -133.048856 
L 409.151744 -132.040985 
L 409.522252 -131.033115 
L 409.90699 -130.025245 
L 410.321481 -129.017374 
L 410.771586 -128.009504 
L 411.254732 -127.001633 
L 411.761666 -125.993763 
L 412.278537 -124.985893 
L 412.789072 -123.978022 
L 413.276639 -122.970152 
L 413.725909 -121.962281 
L 414.123858 -120.954411 
L 414.459845 -119.946541 
L 414.724661 -118.93867 
L 414.908607 -117.9308 
L 414.998938 -116.922929 
L 414.977209 -115.915059 
L 414.817232 -114.907189 
L 414.48431 -113.899318 
L 413.936304 -112.891448 
L 413.126711 -111.883577 
L 412.009562 -110.875707 
L 410.545537 -109.867837 
L 408.708358 -108.859966 
L 406.49041 -107.852096 
L 403.906602 -106.844225 
L 400.995726 -105.836355 
L 397.819012 -104.828484 
L 394.456015 -103.820614 
L 390.998403 -102.812744 
L 387.542512 -101.804873 
z
" style="stroke: #000000; stroke-opacity: 0.7"/>
    </defs>
    <g clip-path="url(#pd8ef21991a)">
     <use xlink:href="#mcc2fc7c8ad" x="0" y="319.973068" style="fill: #fc8d62; fill-opacity: 0.7; stroke: #000000; stroke-opacity: 0.7"/>
    </g>
   </g>
   <g id="matplotlib.axis_1">
    <g id="xtick_1">
     <g id="line2d_1">
      <defs>
       <path id="mfaa9aeea78" d="M 0 0 
L 0 3.5 
" style="stroke: #000000; stroke-width: 0.8"/>
      </defs>
      <g>
       <use xlink:href="#mfaa9aeea78" x="109.550938" y="227.126442" style="stroke: #000000; stroke-width: 0.8"/>
      </g>
     </g>
     <g id="text_1">
      <!-- Glenhaven Academy -->
      <g transform="translate(36.796279 310.942103) rotate(-45) scale(0.12 -0.12)">
       <defs>
        <path id="TimesNewRomanPSMT-47" d="M 3928 4334 
L 4038 2997 
L 3928 2997 
Q 3763 3497 3500 3750 
Q 3122 4116 2528 4116 
Q 1719 4116 1297 3475 
Q 944 2934 944 2188 
Q 944 1581 1178 1081 
Q 1413 581 1792 348 
Q 2172 116 2572 116 
Q 2806 116 3025 175 
Q 3244 234 3447 350 
L 3447 1575 
Q 3447 1894 3398 1992 
Q 3350 2091 3248 2142 
Q 3147 2194 2891 2194 
L 2891 2313 
L 4531 2313 
L 4531 2194 
L 4453 2194 
Q 4209 2194 4119 2031 
Q 4056 1916 4056 1575 
L 4056 278 
Q 3697 84 3347 -6 
Q 2997 -97 2569 -97 
Q 1341 -97 703 691 
Q 225 1281 225 2053 
Q 225 2613 494 3125 
Q 813 3734 1369 4063 
Q 1834 4334 2469 4334 
Q 2700 4334 2889 4296 
Q 3078 4259 3425 4131 
Q 3600 4066 3659 4066 
Q 3719 4066 3761 4120 
Q 3803 4175 3813 4334 
L 3928 4334 
z
" transform="scale(0.015625)"/>
        <path id="TimesNewRomanPSMT-6c" d="M 1184 4444 
L 1184 647 
Q 1184 378 1223 290 
Q 1263 203 1344 158 
Q 1425 113 1647 113 
L 1647 0 
L 244 0 
L 244 113 
Q 441 113 512 153 
Q 584 194 625 287 
Q 666 381 666 647 
L 666 3247 
Q 666 3731 644 3842 
Q 622 3953 573 3993 
Q 525 4034 450 4034 
Q 369 4034 244 3984 
L 191 4094 
L 1044 4444 
L 1184 4444 
z
" transform="scale(0.015625)"/>
        <path id="TimesNewRomanPSMT-65" d="M 681 1784 
Q 678 1147 991 784 
Q 1303 422 1725 422 
Q 2006 422 2214 576 
Q 2422 731 2563 1106 
L 2659 1044 
Q 2594 616 2278 264 
Q 1963 -88 1488 -88 
Q 972 -88 605 314 
Q 238 716 238 1394 
Q 238 2128 614 2539 
Q 991 2950 1559 2950 
Q 2041 2950 2350 2633 
Q 2659 2316 2659 1784 
L 681 1784 
z
M 681 1966 
L 2006 1966 
Q 1991 2241 1941 2353 
Q 1863 2528 1708 2628 
Q 1553 2728 1384 2728 
Q 1125 2728 920 2526 
Q 716 2325 681 1966 
z
" transform="scale(0.015625)"/>
        <path id="TimesNewRomanPSMT-6e" d="M 1034 2341 
Q 1538 2947 1994 2947 
Q 2228 2947 2397 2830 
Q 2566 2713 2666 2444 
Q 2734 2256 2734 1869 
L 2734 647 
Q 2734 375 2778 278 
Q 2813 200 2889 156 
Q 2966 113 3172 113 
L 3172 0 
L 1756 0 
L 1756 113 
L 1816 113 
Q 2016 113 2095 173 
Q 2175 234 2206 353 
Q 2219 400 2219 647 
L 2219 1819 
Q 2219 2209 2117 2386 
Q 2016 2563 1775 2563 
Q 1403 2563 1034 2156 
L 1034 647 
Q 1034 356 1069 288 
Q 1113 197 1189 155 
Q 1266 113 1500 113 
L 1500 0 
L 84 0 
L 84 113 
L 147 113 
Q 366 113 442 223 
Q 519 334 519 647 
L 519 1709 
Q 519 2225 495 2337 
Q 472 2450 423 2490 
Q 375 2531 294 2531 
Q 206 2531 84 2484 
L 38 2597 
L 900 2947 
L 1034 2947 
L 1034 2341 
z
" transform="scale(0.015625)"/>
        <path id="TimesNewRomanPSMT-68" d="M 1041 4444 
L 1041 2350 
Q 1388 2731 1591 2839 
Q 1794 2947 1997 2947 
Q 2241 2947 2416 2812 
Q 2591 2678 2675 2391 
Q 2734 2191 2734 1659 
L 2734 647 
Q 2734 375 2778 275 
Q 2809 200 2884 156 
Q 2959 113 3159 113 
L 3159 0 
L 1753 0 
L 1753 113 
L 1819 113 
Q 2019 113 2097 173 
Q 2175 234 2206 353 
Q 2216 403 2216 647 
L 2216 1659 
Q 2216 2128 2167 2275 
Q 2119 2422 2012 2495 
Q 1906 2569 1756 2569 
Q 1603 2569 1437 2487 
Q 1272 2406 1041 2159 
L 1041 647 
Q 1041 353 1073 281 
Q 1106 209 1195 161 
Q 1284 113 1503 113 
L 1503 0 
L 84 0 
L 84 113 
Q 275 113 384 172 
Q 447 203 484 290 
Q 522 378 522 647 
L 522 3238 
Q 522 3728 498 3840 
Q 475 3953 426 3993 
Q 378 4034 297 4034 
Q 231 4034 84 3984 
L 41 4094 
L 897 4444 
L 1041 4444 
z
" transform="scale(0.015625)"/>
        <path id="TimesNewRomanPSMT-61" d="M 1822 413 
Q 1381 72 1269 19 
Q 1100 -59 909 -59 
Q 613 -59 420 144 
Q 228 347 228 678 
Q 228 888 322 1041 
Q 450 1253 767 1440 
Q 1084 1628 1822 1897 
L 1822 2009 
Q 1822 2438 1686 2597 
Q 1550 2756 1291 2756 
Q 1094 2756 978 2650 
Q 859 2544 859 2406 
L 866 2225 
Q 866 2081 792 2003 
Q 719 1925 600 1925 
Q 484 1925 411 2006 
Q 338 2088 338 2228 
Q 338 2497 613 2722 
Q 888 2947 1384 2947 
Q 1766 2947 2009 2819 
Q 2194 2722 2281 2516 
Q 2338 2381 2338 1966 
L 2338 994 
Q 2338 584 2353 492 
Q 2369 400 2405 369 
Q 2441 338 2488 338 
Q 2538 338 2575 359 
Q 2641 400 2828 588 
L 2828 413 
Q 2478 -56 2159 -56 
Q 2006 -56 1915 50 
Q 1825 156 1822 413 
z
M 1822 616 
L 1822 1706 
Q 1350 1519 1213 1441 
Q 966 1303 859 1153 
Q 753 1003 753 825 
Q 753 600 887 451 
Q 1022 303 1197 303 
Q 1434 303 1822 616 
z
" transform="scale(0.015625)"/>
        <path id="TimesNewRomanPSMT-76" d="M 53 2863 
L 1400 2863 
L 1400 2747 
L 1313 2747 
Q 1191 2747 1127 2687 
Q 1063 2628 1063 2528 
Q 1063 2419 1128 2269 
L 1794 688 
L 2463 2328 
Q 2534 2503 2534 2594 
Q 2534 2638 2509 2666 
Q 2475 2713 2422 2730 
Q 2369 2747 2206 2747 
L 2206 2863 
L 3141 2863 
L 3141 2747 
Q 2978 2734 2916 2681 
Q 2806 2588 2719 2369 
L 1703 -88 
L 1575 -88 
L 553 2328 
Q 484 2497 421 2570 
Q 359 2644 263 2694 
Q 209 2722 53 2747 
L 53 2863 
z
" transform="scale(0.015625)"/>
        <path id="TimesNewRomanPSMT-20" transform="scale(0.015625)"/>
        <path id="TimesNewRomanPSMT-41" d="M 2928 1419 
L 1288 1419 
L 1000 750 
Q 894 503 894 381 
Q 894 284 986 211 
Q 1078 138 1384 116 
L 1384 0 
L 50 0 
L 50 116 
Q 316 163 394 238 
Q 553 388 747 847 
L 2238 4334 
L 2347 4334 
L 3822 809 
Q 4000 384 4145 257 
Q 4291 131 4550 116 
L 4550 0 
L 2878 0 
L 2878 116 
Q 3131 128 3220 200 
Q 3309 272 3309 375 
Q 3309 513 3184 809 
L 2928 1419 
z
M 2841 1650 
L 2122 3363 
L 1384 1650 
L 2841 1650 
z
" transform="scale(0.015625)"/>
        <path id="TimesNewRomanPSMT-63" d="M 2631 1088 
Q 2516 522 2178 217 
Q 1841 -88 1431 -88 
Q 944 -88 581 321 
Q 219 731 219 1428 
Q 219 2103 620 2525 
Q 1022 2947 1584 2947 
Q 2006 2947 2278 2723 
Q 2550 2500 2550 2259 
Q 2550 2141 2473 2067 
Q 2397 1994 2259 1994 
Q 2075 1994 1981 2113 
Q 1928 2178 1911 2362 
Q 1894 2547 1784 2644 
Q 1675 2738 1481 2738 
Q 1169 2738 978 2506 
Q 725 2200 725 1697 
Q 725 1184 976 792 
Q 1228 400 1656 400 
Q 1963 400 2206 609 
Q 2378 753 2541 1131 
L 2631 1088 
z
" transform="scale(0.015625)"/>
        <path id="TimesNewRomanPSMT-64" d="M 2222 322 
Q 2013 103 1813 7 
Q 1613 -88 1381 -88 
Q 913 -88 563 304 
Q 213 697 213 1313 
Q 213 1928 600 2439 
Q 988 2950 1597 2950 
Q 1975 2950 2222 2709 
L 2222 3238 
Q 2222 3728 2198 3840 
Q 2175 3953 2125 3993 
Q 2075 4034 2000 4034 
Q 1919 4034 1784 3984 
L 1744 4094 
L 2597 4444 
L 2738 4444 
L 2738 1134 
Q 2738 631 2761 520 
Q 2784 409 2836 365 
Q 2888 322 2956 322 
Q 3041 322 3181 375 
L 3216 266 
L 2366 -88 
L 2222 -88 
L 2222 322 
z
M 2222 541 
L 2222 2016 
Q 2203 2228 2109 2403 
Q 2016 2578 1861 2667 
Q 1706 2756 1559 2756 
Q 1284 2756 1069 2509 
Q 784 2184 784 1559 
Q 784 928 1059 592 
Q 1334 256 1672 256 
Q 1956 256 2222 541 
z
" transform="scale(0.015625)"/>
        <path id="TimesNewRomanPSMT-6d" d="M 1050 2338 
Q 1363 2650 1419 2697 
Q 1559 2816 1721 2881 
Q 1884 2947 2044 2947 
Q 2313 2947 2506 2790 
Q 2700 2634 2766 2338 
Q 3088 2713 3309 2830 
Q 3531 2947 3766 2947 
Q 3994 2947 4170 2830 
Q 4347 2713 4450 2447 
Q 4519 2266 4519 1878 
L 4519 647 
Q 4519 378 4559 278 
Q 4591 209 4675 161 
Q 4759 113 4950 113 
L 4950 0 
L 3538 0 
L 3538 113 
L 3597 113 
Q 3781 113 3884 184 
Q 3956 234 3988 344 
Q 4000 397 4000 647 
L 4000 1878 
Q 4000 2228 3916 2372 
Q 3794 2572 3525 2572 
Q 3359 2572 3192 2489 
Q 3025 2406 2788 2181 
L 2781 2147 
L 2788 2013 
L 2788 647 
Q 2788 353 2820 281 
Q 2853 209 2943 161 
Q 3034 113 3253 113 
L 3253 0 
L 1806 0 
L 1806 113 
Q 2044 113 2133 169 
Q 2222 225 2256 338 
Q 2272 391 2272 647 
L 2272 1878 
Q 2272 2228 2169 2381 
Q 2031 2581 1784 2581 
Q 1616 2581 1450 2491 
Q 1191 2353 1050 2181 
L 1050 647 
Q 1050 366 1089 281 
Q 1128 197 1204 155 
Q 1281 113 1516 113 
L 1516 0 
L 100 0 
L 100 113 
Q 297 113 375 155 
Q 453 197 493 289 
Q 534 381 534 647 
L 534 1741 
Q 534 2213 506 2350 
Q 484 2453 437 2492 
Q 391 2531 309 2531 
Q 222 2531 100 2484 
L 53 2597 
L 916 2947 
L 1050 2947 
L 1050 2338 
z
" transform="scale(0.015625)"/>
        <path id="TimesNewRomanPSMT-79" d="M 38 2863 
L 1372 2863 
L 1372 2747 
L 1306 2747 
Q 1166 2747 1095 2686 
Q 1025 2625 1025 2534 
Q 1025 2413 1128 2197 
L 1825 753 
L 2466 2334 
Q 2519 2463 2519 2588 
Q 2519 2644 2497 2672 
Q 2472 2706 2419 2726 
Q 2366 2747 2231 2747 
L 2231 2863 
L 3163 2863 
L 3163 2747 
Q 3047 2734 2984 2696 
Q 2922 2659 2847 2556 
Q 2819 2513 2741 2316 
L 1575 -541 
Q 1406 -956 1132 -1168 
Q 859 -1381 606 -1381 
Q 422 -1381 303 -1275 
Q 184 -1169 184 -1031 
Q 184 -900 270 -820 
Q 356 -741 506 -741 
Q 609 -741 788 -809 
Q 913 -856 944 -856 
Q 1038 -856 1148 -759 
Q 1259 -663 1372 -384 
L 1575 113 
L 547 2272 
Q 500 2369 397 2513 
Q 319 2622 269 2659 
Q 197 2709 38 2747 
L 38 2863 
z
" transform="scale(0.015625)"/>
       </defs>
       <use xlink:href="#TimesNewRomanPSMT-47"/>
       <use xlink:href="#TimesNewRomanPSMT-6c" x="72.216797"/>
       <use xlink:href="#TimesNewRomanPSMT-65" x="100"/>
       <use xlink:href="#TimesNewRomanPSMT-6e" x="144.384766"/>
       <use xlink:href="#TimesNewRomanPSMT-68" x="194.384766"/>
       <use xlink:href="#TimesNewRomanPSMT-61" x="244.384766"/>
       <use xlink:href="#TimesNewRomanPSMT-76" x="288.769531"/>
       <use xlink:href="#TimesNewRomanPSMT-65" x="338.769531"/>
       <use xlink:href="#TimesNewRomanPSMT-6e" x="383.154297"/>
       <use xlink:href="#TimesNewRomanPSMT-20" x="433.154297"/>
       <use xlink:href="#TimesNewRomanPSMT-41" x="452.654297"/>
       <use xlink:href="#TimesNewRomanPSMT-63" x="524.871094"/>
       <use xlink:href="#TimesNewRomanPSMT-61" x="569.255859"/>
       <use xlink:href="#TimesNewRomanPSMT-64" x="613.640625"/>
       <use xlink:href="#TimesNewRomanPSMT-65" x="663.640625"/>
       <use xlink:href="#TimesNewRomanPSMT-6d" x="708.025391"/>
       <use xlink:href="#TimesNewRomanPSMT-79" x="785.808594"/>
      </g>
     </g>
    </g>
    <g id="xtick_2">
     <g id="line2d_2">
      <g>
       <use xlink:href="#mfaa9aeea78" x="236.820938" y="227.126442" style="stroke: #000000; stroke-width: 0.8"/>
      </g>
     </g>
     <g id="text_2">
      <!-- Lakewood Institute -->
      <g transform="translate(169.260862 305.76343) rotate(-45) scale(0.12 -0.12)">
       <defs>
        <path id="TimesNewRomanPSMT-4c" d="M 3669 1172 
L 3772 1150 
L 3409 0 
L 128 0 
L 128 116 
L 288 116 
Q 556 116 672 291 
Q 738 391 738 753 
L 738 3488 
Q 738 3884 650 3984 
Q 528 4122 288 4122 
L 128 4122 
L 128 4238 
L 2047 4238 
L 2047 4122 
Q 1709 4125 1573 4059 
Q 1438 3994 1388 3894 
Q 1338 3794 1338 3416 
L 1338 753 
Q 1338 494 1388 397 
Q 1425 331 1503 300 
Q 1581 269 1991 269 
L 2300 269 
Q 2788 269 2984 341 
Q 3181 413 3343 595 
Q 3506 778 3669 1172 
z
" transform="scale(0.015625)"/>
        <path id="TimesNewRomanPSMT-6b" d="M 1047 4444 
L 1047 1597 
L 1775 2259 
Q 2006 2472 2044 2528 
Q 2069 2566 2069 2603 
Q 2069 2666 2017 2711 
Q 1966 2756 1847 2763 
L 1847 2863 
L 3091 2863 
L 3091 2763 
Q 2834 2756 2664 2684 
Q 2494 2613 2291 2428 
L 1556 1750 
L 2291 822 
Q 2597 438 2703 334 
Q 2853 188 2966 144 
Q 3044 113 3238 113 
L 3238 0 
L 1847 0 
L 1847 113 
Q 1966 116 2008 148 
Q 2050 181 2050 241 
Q 2050 313 1925 472 
L 1047 1594 
L 1047 644 
Q 1047 366 1086 278 
Q 1125 191 1197 153 
Q 1269 116 1509 113 
L 1509 0 
L 53 0 
L 53 113 
Q 272 113 381 166 
Q 447 200 481 272 
Q 528 375 528 628 
L 528 3234 
Q 528 3731 506 3842 
Q 484 3953 434 3995 
Q 384 4038 303 4038 
Q 238 4038 106 3984 
L 53 4094 
L 903 4444 
L 1047 4444 
z
" transform="scale(0.015625)"/>
        <path id="TimesNewRomanPSMT-77" d="M 41 2863 
L 1241 2863 
L 1241 2747 
Q 1075 2734 1023 2687 
Q 972 2641 972 2553 
Q 972 2456 1025 2319 
L 1638 672 
L 2253 2013 
L 2091 2434 
Q 2016 2622 1894 2694 
Q 1825 2738 1638 2747 
L 1638 2863 
L 3000 2863 
L 3000 2747 
Q 2775 2738 2681 2666 
Q 2619 2616 2619 2506 
Q 2619 2444 2644 2378 
L 3294 734 
L 3897 2319 
Q 3959 2488 3959 2588 
Q 3959 2647 3898 2694 
Q 3838 2741 3659 2747 
L 3659 2863 
L 4563 2863 
L 4563 2747 
Q 4291 2706 4163 2378 
L 3206 -88 
L 3078 -88 
L 2363 1741 
L 1528 -88 
L 1413 -88 
L 494 2319 
Q 403 2547 315 2626 
Q 228 2706 41 2747 
L 41 2863 
z
" transform="scale(0.015625)"/>
        <path id="TimesNewRomanPSMT-6f" d="M 1600 2947 
Q 2250 2947 2644 2453 
Q 2978 2031 2978 1484 
Q 2978 1100 2793 706 
Q 2609 313 2286 112 
Q 1963 -88 1566 -88 
Q 919 -88 538 428 
Q 216 863 216 1403 
Q 216 1797 411 2186 
Q 606 2575 925 2761 
Q 1244 2947 1600 2947 
z
M 1503 2744 
Q 1338 2744 1170 2645 
Q 1003 2547 900 2300 
Q 797 2053 797 1666 
Q 797 1041 1045 587 
Q 1294 134 1700 134 
Q 2003 134 2200 384 
Q 2397 634 2397 1244 
Q 2397 2006 2069 2444 
Q 1847 2744 1503 2744 
z
" transform="scale(0.015625)"/>
        <path id="TimesNewRomanPSMT-49" d="M 1975 116 
L 1975 0 
L 159 0 
L 159 116 
L 309 116 
Q 572 116 691 269 
Q 766 369 766 750 
L 766 3488 
Q 766 3809 725 3913 
Q 694 3991 597 4047 
Q 459 4122 309 4122 
L 159 4122 
L 159 4238 
L 1975 4238 
L 1975 4122 
L 1822 4122 
Q 1563 4122 1444 3969 
Q 1366 3869 1366 3488 
L 1366 750 
Q 1366 428 1406 325 
Q 1438 247 1538 191 
Q 1672 116 1822 116 
L 1975 116 
z
" transform="scale(0.015625)"/>
        <path id="TimesNewRomanPSMT-73" d="M 2050 2947 
L 2050 1972 
L 1947 1972 
Q 1828 2431 1642 2597 
Q 1456 2763 1169 2763 
Q 950 2763 815 2647 
Q 681 2531 681 2391 
Q 681 2216 781 2091 
Q 878 1963 1175 1819 
L 1631 1597 
Q 2266 1288 2266 781 
Q 2266 391 1970 151 
Q 1675 -88 1309 -88 
Q 1047 -88 709 6 
Q 606 38 541 38 
Q 469 38 428 -44 
L 325 -44 
L 325 978 
L 428 978 
Q 516 541 762 319 
Q 1009 97 1316 97 
Q 1531 97 1667 223 
Q 1803 350 1803 528 
Q 1803 744 1651 891 
Q 1500 1038 1047 1263 
Q 594 1488 453 1669 
Q 313 1847 313 2119 
Q 313 2472 555 2709 
Q 797 2947 1181 2947 
Q 1350 2947 1591 2875 
Q 1750 2828 1803 2828 
Q 1853 2828 1881 2850 
Q 1909 2872 1947 2947 
L 2050 2947 
z
" transform="scale(0.015625)"/>
        <path id="TimesNewRomanPSMT-74" d="M 1031 3803 
L 1031 2863 
L 1700 2863 
L 1700 2644 
L 1031 2644 
L 1031 788 
Q 1031 509 1111 412 
Q 1191 316 1316 316 
Q 1419 316 1516 380 
Q 1613 444 1666 569 
L 1788 569 
Q 1678 263 1478 108 
Q 1278 -47 1066 -47 
Q 922 -47 784 33 
Q 647 113 581 261 
Q 516 409 516 719 
L 516 2644 
L 63 2644 
L 63 2747 
Q 234 2816 414 2980 
Q 594 3144 734 3369 
Q 806 3488 934 3803 
L 1031 3803 
z
" transform="scale(0.015625)"/>
        <path id="TimesNewRomanPSMT-69" d="M 928 4444 
Q 1059 4444 1151 4351 
Q 1244 4259 1244 4128 
Q 1244 3997 1151 3903 
Q 1059 3809 928 3809 
Q 797 3809 703 3903 
Q 609 3997 609 4128 
Q 609 4259 701 4351 
Q 794 4444 928 4444 
z
M 1188 2947 
L 1188 647 
Q 1188 378 1227 289 
Q 1266 200 1342 156 
Q 1419 113 1622 113 
L 1622 0 
L 231 0 
L 231 113 
Q 441 113 512 153 
Q 584 194 626 287 
Q 669 381 669 647 
L 669 1750 
Q 669 2216 641 2353 
Q 619 2453 572 2492 
Q 525 2531 444 2531 
Q 356 2531 231 2484 
L 188 2597 
L 1050 2947 
L 1188 2947 
z
" transform="scale(0.015625)"/>
        <path id="TimesNewRomanPSMT-75" d="M 2709 2863 
L 2709 1128 
Q 2709 631 2732 520 
Q 2756 409 2807 365 
Q 2859 322 2928 322 
Q 3025 322 3147 375 
L 3191 266 
L 2334 -88 
L 2194 -88 
L 2194 519 
Q 1825 119 1631 15 
Q 1438 -88 1222 -88 
Q 981 -88 804 51 
Q 628 191 559 409 
Q 491 628 491 1028 
L 491 2306 
Q 491 2509 447 2587 
Q 403 2666 317 2708 
Q 231 2750 6 2747 
L 6 2863 
L 1009 2863 
L 1009 947 
Q 1009 547 1148 422 
Q 1288 297 1484 297 
Q 1619 297 1789 381 
Q 1959 466 2194 703 
L 2194 2325 
Q 2194 2569 2105 2655 
Q 2016 2741 1734 2747 
L 1734 2863 
L 2709 2863 
z
" transform="scale(0.015625)"/>
       </defs>
       <use xlink:href="#TimesNewRomanPSMT-4c"/>
       <use xlink:href="#TimesNewRomanPSMT-61" x="61.083984"/>
       <use xlink:href="#TimesNewRomanPSMT-6b" x="105.46875"/>
       <use xlink:href="#TimesNewRomanPSMT-65" x="155.46875"/>
       <use xlink:href="#TimesNewRomanPSMT-77" x="199.853516"/>
       <use xlink:href="#TimesNewRomanPSMT-6f" x="272.070312"/>
       <use xlink:href="#TimesNewRomanPSMT-6f" x="322.070312"/>
       <use xlink:href="#TimesNewRomanPSMT-64" x="372.070312"/>
       <use xlink:href="#TimesNewRomanPSMT-20" x="422.070312"/>
       <use xlink:href="#TimesNewRomanPSMT-49" x="447.070312"/>
       <use xlink:href="#TimesNewRomanPSMT-6e" x="480.371094"/>
       <use xlink:href="#TimesNewRomanPSMT-73" x="530.371094"/>
       <use xlink:href="#TimesNewRomanPSMT-74" x="569.287109"/>
       <use xlink:href="#TimesNewRomanPSMT-69" x="597.070312"/>
       <use xlink:href="#TimesNewRomanPSMT-74" x="624.853516"/>
       <use xlink:href="#TimesNewRomanPSMT-75" x="652.636719"/>
       <use xlink:href="#TimesNewRomanPSMT-74" x="702.636719"/>
       <use xlink:href="#TimesNewRomanPSMT-65" x="730.419922"/>
      </g>
     </g>
    </g>
    <g id="xtick_3">
     <g id="line2d_3">
      <g>
       <use xlink:href="#mfaa9aeea78" x="364.090938" y="227.126442" style="stroke: #000000; stroke-width: 0.8"/>
      </g>
     </g>
     <g id="text_3">
      <!-- Fairview School -->
      <g transform="translate(306.421518 295.872774) rotate(-45) scale(0.12 -0.12)">
       <defs>
        <path id="TimesNewRomanPSMT-46" d="M 1309 4006 
L 1309 2341 
L 2081 2341 
Q 2347 2341 2470 2458 
Q 2594 2575 2634 2922 
L 2750 2922 
L 2750 1488 
L 2634 1488 
Q 2631 1734 2570 1850 
Q 2509 1966 2401 2023 
Q 2294 2081 2081 2081 
L 1309 2081 
L 1309 750 
Q 1309 428 1350 325 
Q 1381 247 1481 191 
Q 1619 116 1769 116 
L 1922 116 
L 1922 0 
L 103 0 
L 103 116 
L 253 116 
Q 516 116 634 269 
Q 709 369 709 750 
L 709 3488 
Q 709 3809 669 3913 
Q 638 3991 541 4047 
Q 406 4122 253 4122 
L 103 4122 
L 103 4238 
L 3256 4238 
L 3297 3306 
L 3188 3306 
Q 3106 3603 2998 3742 
Q 2891 3881 2733 3943 
Q 2575 4006 2244 4006 
L 1309 4006 
z
" transform="scale(0.015625)"/>
        <path id="TimesNewRomanPSMT-72" d="M 1038 2947 
L 1038 2303 
Q 1397 2947 1775 2947 
Q 1947 2947 2059 2842 
Q 2172 2738 2172 2600 
Q 2172 2478 2090 2393 
Q 2009 2309 1897 2309 
Q 1788 2309 1652 2417 
Q 1516 2525 1450 2525 
Q 1394 2525 1328 2463 
Q 1188 2334 1038 2041 
L 1038 669 
Q 1038 431 1097 309 
Q 1138 225 1241 169 
Q 1344 113 1538 113 
L 1538 0 
L 72 0 
L 72 113 
Q 291 113 397 181 
Q 475 231 506 341 
Q 522 394 522 644 
L 522 1753 
Q 522 2253 501 2348 
Q 481 2444 426 2487 
Q 372 2531 291 2531 
Q 194 2531 72 2484 
L 41 2597 
L 906 2947 
L 1038 2947 
z
" transform="scale(0.015625)"/>
        <path id="TimesNewRomanPSMT-53" d="M 2934 4334 
L 2934 2869 
L 2819 2869 
Q 2763 3291 2617 3541 
Q 2472 3791 2203 3937 
Q 1934 4084 1647 4084 
Q 1322 4084 1109 3886 
Q 897 3688 897 3434 
Q 897 3241 1031 3081 
Q 1225 2847 1953 2456 
Q 2547 2138 2764 1967 
Q 2981 1797 3098 1565 
Q 3216 1334 3216 1081 
Q 3216 600 2842 251 
Q 2469 -97 1881 -97 
Q 1697 -97 1534 -69 
Q 1438 -53 1133 45 
Q 828 144 747 144 
Q 669 144 623 97 
Q 578 50 556 -97 
L 441 -97 
L 441 1356 
L 556 1356 
Q 638 900 775 673 
Q 913 447 1195 297 
Q 1478 147 1816 147 
Q 2206 147 2432 353 
Q 2659 559 2659 841 
Q 2659 997 2573 1156 
Q 2488 1316 2306 1453 
Q 2184 1547 1640 1851 
Q 1097 2156 867 2337 
Q 638 2519 519 2737 
Q 400 2956 400 3219 
Q 400 3675 750 4004 
Q 1100 4334 1641 4334 
Q 1978 4334 2356 4169 
Q 2531 4091 2603 4091 
Q 2684 4091 2736 4139 
Q 2788 4188 2819 4334 
L 2934 4334 
z
" transform="scale(0.015625)"/>
       </defs>
       <use xlink:href="#TimesNewRomanPSMT-46"/>
       <use xlink:href="#TimesNewRomanPSMT-61" x="55.615234"/>
       <use xlink:href="#TimesNewRomanPSMT-69" x="100"/>
       <use xlink:href="#TimesNewRomanPSMT-72" x="127.783203"/>
       <use xlink:href="#TimesNewRomanPSMT-76" x="161.083984"/>
       <use xlink:href="#TimesNewRomanPSMT-69" x="211.083984"/>
       <use xlink:href="#TimesNewRomanPSMT-65" x="238.867188"/>
       <use xlink:href="#TimesNewRomanPSMT-77" x="283.251953"/>
       <use xlink:href="#TimesNewRomanPSMT-20" x="355.46875"/>
       <use xlink:href="#TimesNewRomanPSMT-53" x="380.46875"/>
       <use xlink:href="#TimesNewRomanPSMT-63" x="436.083984"/>
       <use xlink:href="#TimesNewRomanPSMT-68" x="480.46875"/>
       <use xlink:href="#TimesNewRomanPSMT-6f" x="530.46875"/>
       <use xlink:href="#TimesNewRomanPSMT-6f" x="580.46875"/>
       <use xlink:href="#TimesNewRomanPSMT-6c" x="630.46875"/>
      </g>
     </g>
    </g>
   </g>
   <g id="matplotlib.axis_2">
    <g id="ytick_1">
     <g id="line2d_4">
      <defs>
       <path id="m06519b75f3" d="M 0 0 
L -3.5 0 
" style="stroke: #000000; stroke-width: 0.8"/>
      </defs>
      <g>
       <use xlink:href="#m06519b75f3" x="45.915937" y="221.189438" style="stroke: #000000; stroke-width: 0.8"/>
      </g>
     </g>
     <g id="text_4">
      <!-- 70 -->
      <g transform="translate(28.915937 224.661313) scale(0.1 -0.1)">
       <defs>
        <path id="TimesNewRomanPSMT-37" d="M 644 4238 
L 2916 4238 
L 2916 4119 
L 1503 -88 
L 1153 -88 
L 2419 3728 
L 1253 3728 
Q 900 3728 750 3644 
Q 488 3500 328 3200 
L 238 3234 
L 644 4238 
z
" transform="scale(0.015625)"/>
        <path id="TimesNewRomanPSMT-30" d="M 231 2094 
Q 231 2819 450 3342 
Q 669 3866 1031 4122 
Q 1313 4325 1613 4325 
Q 2100 4325 2488 3828 
Q 2972 3213 2972 2159 
Q 2972 1422 2759 906 
Q 2547 391 2217 158 
Q 1888 -75 1581 -75 
Q 975 -75 572 641 
Q 231 1244 231 2094 
z
M 844 2016 
Q 844 1141 1059 588 
Q 1238 122 1591 122 
Q 1759 122 1940 273 
Q 2122 425 2216 781 
Q 2359 1319 2359 2297 
Q 2359 3022 2209 3506 
Q 2097 3866 1919 4016 
Q 1791 4119 1609 4119 
Q 1397 4119 1231 3928 
Q 1006 3669 925 3112 
Q 844 2556 844 2016 
z
" transform="scale(0.015625)"/>
       </defs>
       <use xlink:href="#TimesNewRomanPSMT-37"/>
       <use xlink:href="#TimesNewRomanPSMT-30" x="50"/>
      </g>
     </g>
    </g>
    <g id="ytick_2">
     <g id="line2d_5">
      <g>
       <use xlink:href="#m06519b75f3" x="45.915937" y="195.144235" style="stroke: #000000; stroke-width: 0.8"/>
      </g>
     </g>
     <g id="text_5">
      <!-- 80 -->
      <g transform="translate(28.915937 198.61611) scale(0.1 -0.1)">
       <defs>
        <path id="TimesNewRomanPSMT-38" d="M 1228 2134 
Q 725 2547 579 2797 
Q 434 3047 434 3316 
Q 434 3728 753 4026 
Q 1072 4325 1600 4325 
Q 2113 4325 2425 4047 
Q 2738 3769 2738 3413 
Q 2738 3175 2569 2928 
Q 2400 2681 1866 2347 
Q 2416 1922 2594 1678 
Q 2831 1359 2831 1006 
Q 2831 559 2490 242 
Q 2150 -75 1597 -75 
Q 994 -75 656 303 
Q 388 606 388 966 
Q 388 1247 577 1523 
Q 766 1800 1228 2134 
z
M 1719 2469 
Q 2094 2806 2194 3001 
Q 2294 3197 2294 3444 
Q 2294 3772 2109 3958 
Q 1925 4144 1606 4144 
Q 1288 4144 1088 3959 
Q 888 3775 888 3528 
Q 888 3366 970 3203 
Q 1053 3041 1206 2894 
L 1719 2469 
z
M 1375 2016 
Q 1116 1797 991 1539 
Q 866 1281 866 981 
Q 866 578 1086 336 
Q 1306 94 1647 94 
Q 1984 94 2187 284 
Q 2391 475 2391 747 
Q 2391 972 2272 1150 
Q 2050 1481 1375 2016 
z
" transform="scale(0.015625)"/>
       </defs>
       <use xlink:href="#TimesNewRomanPSMT-38"/>
       <use xlink:href="#TimesNewRomanPSMT-30" x="50"/>
      </g>
     </g>
    </g>
    <g id="ytick_3">
     <g id="line2d_6">
      <g>
       <use xlink:href="#m06519b75f3" x="45.915937" y="169.099033" style="stroke: #000000; stroke-width: 0.8"/>
      </g>
     </g>
     <g id="text_6">
      <!-- 90 -->
      <g transform="translate(28.915937 172.570908) scale(0.1 -0.1)">
       <defs>
        <path id="TimesNewRomanPSMT-39" d="M 338 -88 
L 338 28 
Q 744 34 1094 217 
Q 1444 400 1770 856 
Q 2097 1313 2225 1859 
Q 1734 1544 1338 1544 
Q 891 1544 572 1889 
Q 253 2234 253 2806 
Q 253 3363 572 3797 
Q 956 4325 1575 4325 
Q 2097 4325 2469 3894 
Q 2925 3359 2925 2575 
Q 2925 1869 2578 1258 
Q 2231 647 1613 244 
Q 1109 -88 516 -88 
L 338 -88 
z
M 2275 2091 
Q 2331 2497 2331 2741 
Q 2331 3044 2228 3395 
Q 2125 3747 1936 3934 
Q 1747 4122 1506 4122 
Q 1228 4122 1018 3872 
Q 809 3622 809 3128 
Q 809 2469 1088 2097 
Q 1291 1828 1588 1828 
Q 1731 1828 1928 1897 
Q 2125 1966 2275 2091 
z
" transform="scale(0.015625)"/>
       </defs>
       <use xlink:href="#TimesNewRomanPSMT-39"/>
       <use xlink:href="#TimesNewRomanPSMT-30" x="50"/>
      </g>
     </g>
    </g>
    <g id="ytick_4">
     <g id="line2d_7">
      <g>
       <use xlink:href="#m06519b75f3" x="45.915937" y="143.053831" style="stroke: #000000; stroke-width: 0.8"/>
      </g>
     </g>
     <g id="text_7">
      <!-- 100 -->
      <g transform="translate(23.915937 146.525706) scale(0.1 -0.1)">
       <defs>
        <path id="TimesNewRomanPSMT-31" d="M 750 3822 
L 1781 4325 
L 1884 4325 
L 1884 747 
Q 1884 391 1914 303 
Q 1944 216 2037 169 
Q 2131 122 2419 116 
L 2419 0 
L 825 0 
L 825 116 
Q 1125 122 1212 167 
Q 1300 213 1334 289 
Q 1369 366 1369 747 
L 1369 3034 
Q 1369 3497 1338 3628 
Q 1316 3728 1258 3775 
Q 1200 3822 1119 3822 
Q 1003 3822 797 3725 
L 750 3822 
z
" transform="scale(0.015625)"/>
       </defs>
       <use xlink:href="#TimesNewRomanPSMT-31"/>
       <use xlink:href="#TimesNewRomanPSMT-30" x="50"/>
       <use xlink:href="#TimesNewRomanPSMT-30" x="100"/>
      </g>
     </g>
    </g>
    <g id="ytick_5">
     <g id="line2d_8">
      <g>
       <use xlink:href="#m06519b75f3" x="45.915937" y="117.008628" style="stroke: #000000; stroke-width: 0.8"/>
      </g>
     </g>
     <g id="text_8">
      <!-- 110 -->
      <g transform="translate(24.290937 120.480503) scale(0.1 -0.1)">
       <use xlink:href="#TimesNewRomanPSMT-31"/>
       <use xlink:href="#TimesNewRomanPSMT-31" x="46.25"/>
       <use xlink:href="#TimesNewRomanPSMT-30" x="96.25"/>
      </g>
     </g>
    </g>
    <g id="ytick_6">
     <g id="line2d_9">
      <g>
       <use xlink:href="#m06519b75f3" x="45.915937" y="90.963426" style="stroke: #000000; stroke-width: 0.8"/>
      </g>
     </g>
     <g id="text_9">
      <!-- 120 -->
      <g transform="translate(23.915937 94.435301) scale(0.1 -0.1)">
       <defs>
        <path id="TimesNewRomanPSMT-32" d="M 2934 816 
L 2638 0 
L 138 0 
L 138 116 
Q 1241 1122 1691 1759 
Q 2141 2397 2141 2925 
Q 2141 3328 1894 3587 
Q 1647 3847 1303 3847 
Q 991 3847 742 3664 
Q 494 3481 375 3128 
L 259 3128 
Q 338 3706 661 4015 
Q 984 4325 1469 4325 
Q 1984 4325 2329 3994 
Q 2675 3663 2675 3213 
Q 2675 2891 2525 2569 
Q 2294 2063 1775 1497 
Q 997 647 803 472 
L 1909 472 
Q 2247 472 2383 497 
Q 2519 522 2628 598 
Q 2738 675 2819 816 
L 2934 816 
z
" transform="scale(0.015625)"/>
       </defs>
       <use xlink:href="#TimesNewRomanPSMT-31"/>
       <use xlink:href="#TimesNewRomanPSMT-32" x="50"/>
       <use xlink:href="#TimesNewRomanPSMT-30" x="100"/>
      </g>
     </g>
    </g>
    <g id="ytick_7">
     <g id="line2d_10">
      <g>
       <use xlink:href="#m06519b75f3" x="45.915937" y="64.918224" style="stroke: #000000; stroke-width: 0.8"/>
      </g>
     </g>
     <g id="text_10">
      <!-- 130 -->
      <g transform="translate(23.915937 68.390099) scale(0.1 -0.1)">
       <defs>
        <path id="TimesNewRomanPSMT-33" d="M 325 3431 
Q 506 3859 782 4092 
Q 1059 4325 1472 4325 
Q 1981 4325 2253 3994 
Q 2459 3747 2459 3466 
Q 2459 3003 1878 2509 
Q 2269 2356 2469 2072 
Q 2669 1788 2669 1403 
Q 2669 853 2319 450 
Q 1863 -75 997 -75 
Q 569 -75 414 31 
Q 259 138 259 259 
Q 259 350 332 419 
Q 406 488 509 488 
Q 588 488 669 463 
Q 722 447 909 348 
Q 1097 250 1169 231 
Q 1284 197 1416 197 
Q 1734 197 1970 444 
Q 2206 691 2206 1028 
Q 2206 1275 2097 1509 
Q 2016 1684 1919 1775 
Q 1784 1900 1550 2001 
Q 1316 2103 1072 2103 
L 972 2103 
L 972 2197 
Q 1219 2228 1467 2375 
Q 1716 2522 1828 2728 
Q 1941 2934 1941 3181 
Q 1941 3503 1739 3701 
Q 1538 3900 1238 3900 
Q 753 3900 428 3381 
L 325 3431 
z
" transform="scale(0.015625)"/>
       </defs>
       <use xlink:href="#TimesNewRomanPSMT-31"/>
       <use xlink:href="#TimesNewRomanPSMT-33" x="50"/>
       <use xlink:href="#TimesNewRomanPSMT-30" x="100"/>
      </g>
     </g>
    </g>
    <g id="ytick_8">
     <g id="line2d_11">
      <g>
       <use xlink:href="#m06519b75f3" x="45.915937" y="38.873021" style="stroke: #000000; stroke-width: 0.8"/>
      </g>
     </g>
     <g id="text_11">
      <!-- 140 -->
      <g transform="translate(23.915937 42.344896) scale(0.1 -0.1)">
       <defs>
        <path id="TimesNewRomanPSMT-34" d="M 2978 1563 
L 2978 1119 
L 2409 1119 
L 2409 0 
L 1894 0 
L 1894 1119 
L 100 1119 
L 100 1519 
L 2066 4325 
L 2409 4325 
L 2409 1563 
L 2978 1563 
z
M 1894 1563 
L 1894 3666 
L 406 1563 
L 1894 1563 
z
" transform="scale(0.015625)"/>
       </defs>
       <use xlink:href="#TimesNewRomanPSMT-31"/>
       <use xlink:href="#TimesNewRomanPSMT-34" x="50"/>
       <use xlink:href="#TimesNewRomanPSMT-30" x="100"/>
      </g>
     </g>
    </g>
    <g id="text_12">
     <!-- % -->
     <g transform="translate(16.92125 134.416502) rotate(-90) scale(0.14 -0.14)">
      <defs>
       <path id="TimesNewRomanPSMT-25" d="M 4350 4334 
L 1263 -175 
L 984 -175 
L 4072 4334 
L 4350 4334 
z
M 1138 4334 
Q 1559 4334 1792 3984 
Q 2025 3634 2025 3181 
Q 2025 2638 1762 2341 
Q 1500 2044 1131 2044 
Q 884 2044 678 2180 
Q 472 2316 348 2584 
Q 225 2853 225 3181 
Q 225 3509 350 3786 
Q 475 4063 692 4198 
Q 909 4334 1138 4334 
z
M 1128 4159 
Q 969 4159 845 3971 
Q 722 3784 722 3184 
Q 722 2750 791 2522 
Q 844 2350 956 2256 
Q 1022 2200 1119 2200 
Q 1269 2200 1375 2363 
Q 1531 2603 1531 3166 
Q 1531 3759 1378 4000 
Q 1278 4159 1128 4159 
z
M 4206 2103 
Q 4428 2103 4648 1962 
Q 4869 1822 4989 1553 
Q 5109 1284 5109 963 
Q 5109 409 4843 117 
Q 4578 -175 4216 -175 
Q 3988 -175 3773 -34 
Q 3559 106 3436 367 
Q 3313 628 3313 963 
Q 3313 1291 3436 1562 
Q 3559 1834 3773 1968 
Q 3988 2103 4206 2103 
z
M 4209 1938 
Q 4059 1938 3950 1769 
Q 3809 1550 3809 941 
Q 3809 381 3953 159 
Q 4059 0 4209 0 
Q 4353 0 4466 172 
Q 4616 400 4616 956 
Q 4616 1544 4466 1778 
Q 4363 1938 4209 1938 
z
" transform="scale(0.015625)"/>
      </defs>
      <use xlink:href="#TimesNewRomanPSMT-25"/>
     </g>
    </g>
   </g>
   <g id="patch_3">
    <path d="M 101.914738 197.123671 
L 117.187138 197.123671 
L 117.187138 169.978059 
L 101.914738 169.978059 
L 101.914738 197.123671 
L 101.914738 197.123671 
z
" clip-path="url(#pd8ef21991a)" style="fill: none; stroke: #000000; stroke-linejoin: miter"/>
   </g>
   <g id="line2d_12">
    <path d="M 109.550938 197.123671 
L 109.550938 216.631527 
" clip-path="url(#pd8ef21991a)" style="fill: none; stroke: #000000; stroke-linecap: square"/>
   </g>
   <g id="line2d_13">
    <path d="M 109.550938 169.978059 
L 109.550938 130.578179 
" clip-path="url(#pd8ef21991a)" style="fill: none; stroke: #000000; stroke-linecap: square"/>
   </g>
   <g id="line2d_14">
    <path d="M 105.732838 216.631527 
L 113.369038 216.631527 
" clip-path="url(#pd8ef21991a)" style="fill: none; stroke: #000000; stroke-linecap: square"/>
   </g>
   <g id="line2d_15">
    <path d="M 105.732838 130.578179 
L 113.369038 130.578179 
" clip-path="url(#pd8ef21991a)" style="fill: none; stroke: #000000; stroke-linecap: square"/>
   </g>
   <g id="patch_4">
    <path d="M 229.184738 196.374871 
L 244.457138 196.374871 
L 244.457138 168.83207 
L 229.184738 168.83207 
L 229.184738 196.374871 
L 229.184738 196.374871 
z
" clip-path="url(#pd8ef21991a)" style="fill: none; stroke: #000000; stroke-linejoin: miter"/>
   </g>
   <g id="line2d_16">
    <path d="M 236.820938 196.374871 
L 236.820938 214.469776 
" clip-path="url(#pd8ef21991a)" style="fill: none; stroke: #000000; stroke-linecap: square"/>
   </g>
   <g id="line2d_17">
    <path d="M 236.820938 168.83207 
L 236.820938 135.83931 
" clip-path="url(#pd8ef21991a)" style="fill: none; stroke: #000000; stroke-linecap: square"/>
   </g>
   <g id="line2d_18">
    <path d="M 233.002837 214.469776 
L 240.639037 214.469776 
" clip-path="url(#pd8ef21991a)" style="fill: none; stroke: #000000; stroke-linecap: square"/>
   </g>
   <g id="line2d_19">
    <path d="M 233.002837 135.83931 
L 240.639037 135.83931 
" clip-path="url(#pd8ef21991a)" style="fill: none; stroke: #000000; stroke-linecap: square"/>
   </g>
   <g id="patch_5">
    <path d="M 356.454738 206.421808 
L 371.727138 206.421808 
L 371.727138 182.141168 
L 356.454738 182.141168 
L 356.454738 206.421808 
L 356.454738 206.421808 
z
" clip-path="url(#pd8ef21991a)" style="fill: none; stroke: #000000; stroke-linejoin: miter"/>
   </g>
   <g id="line2d_20">
    <path d="M 364.090938 206.421808 
L 364.090938 218.168194 
" clip-path="url(#pd8ef21991a)" style="fill: none; stroke: #000000; stroke-linecap: square"/>
   </g>
   <g id="line2d_21">
    <path d="M 364.090938 182.141168 
L 364.090938 149.018182 
" clip-path="url(#pd8ef21991a)" style="fill: none; stroke: #000000; stroke-linecap: square"/>
   </g>
   <g id="line2d_22">
    <path d="M 360.272838 218.168194 
L 367.909038 218.168194 
" clip-path="url(#pd8ef21991a)" style="fill: none; stroke: #000000; stroke-linecap: square"/>
   </g>
   <g id="line2d_23">
    <path d="M 360.272838 149.018182 
L 367.909038 149.018182 
" clip-path="url(#pd8ef21991a)" style="fill: none; stroke: #000000; stroke-linecap: square"/>
   </g>
   <g id="line2d_24">
    <path d="M 101.914738 186.484206 
L 117.187138 186.484206 
" clip-path="url(#pd8ef21991a)" style="fill: none; stroke: #000000; stroke-width: 1.5; stroke-linecap: square"/>
   </g>
   <g id="line2d_25">
    <path d="M 229.184738 183.710392 
L 244.457138 183.710392 
" clip-path="url(#pd8ef21991a)" style="fill: none; stroke: #000000; stroke-width: 1.5; stroke-linecap: square"/>
   </g>
   <g id="line2d_26">
    <path d="M 356.454738 195.639094 
L 371.727138 195.639094 
" clip-path="url(#pd8ef21991a)" style="fill: none; stroke: #000000; stroke-width: 1.5; stroke-linecap: square"/>
   </g>
   <g id="patch_6">
    <path d="M 45.915937 227.126442 
L 45.915937 30.045 
" style="fill: none; stroke: #000000; stroke-linejoin: miter; stroke-linecap: square"/>
   </g>
   <g id="patch_7">
    <path d="M 427.725938 227.126442 
L 427.725938 30.045 
" style="fill: none; stroke: #000000; stroke-linejoin: miter; stroke-linecap: square"/>
   </g>
   <g id="patch_8">
    <path d="M 45.915937 227.126442 
L 427.725938 227.126442 
" style="fill: none; stroke: #000000; stroke-linejoin: miter; stroke-linecap: square"/>
   </g>
   <g id="patch_9">
    <path d="M 45.915937 30.045 
L 427.725938 30.045 
" style="fill: none; stroke: #000000; stroke-linejoin: miter; stroke-linecap: square"/>
   </g>
   <g id="text_13">
    <!-- Data on employment rates in different schools (%) -->
    <g transform="translate(64.763438 18.045) scale(0.16 -0.16)">
     <defs>
      <path id="TimesNewRomanPS-BoldMT-44" d="M 84 0 
L 84 116 
L 225 116 
Q 409 116 507 173 
Q 606 231 653 331 
Q 681 397 681 725 
L 681 3513 
Q 681 3838 647 3919 
Q 613 4000 508 4061 
Q 403 4122 225 4122 
L 84 4122 
L 84 4238 
L 1981 4238 
Q 2741 4238 3203 4031 
Q 3769 3778 4061 3265 
Q 4353 2753 4353 2106 
Q 4353 1659 4209 1282 
Q 4066 906 3837 661 
Q 3609 416 3311 267 
Q 3013 119 2581 38 
Q 2391 0 1981 0 
L 84 0 
z
M 1700 3997 
L 1700 691 
Q 1700 428 1725 368 
Q 1750 309 1809 278 
Q 1894 231 2053 231 
Q 2575 231 2850 588 
Q 3225 1069 3225 2081 
Q 3225 2897 2969 3384 
Q 2766 3766 2447 3903 
Q 2222 4000 1700 3997 
z
" transform="scale(0.015625)"/>
      <path id="TimesNewRomanPS-BoldMT-61" d="M 1828 431 
Q 1294 -41 869 -41 
Q 619 -41 453 123 
Q 288 288 288 534 
Q 288 869 575 1136 
Q 863 1403 1828 1847 
L 1828 2141 
Q 1828 2472 1792 2558 
Q 1756 2644 1656 2708 
Q 1556 2772 1431 2772 
Q 1228 2772 1097 2681 
Q 1016 2625 1016 2550 
Q 1016 2484 1103 2388 
Q 1222 2253 1222 2128 
Q 1222 1975 1108 1867 
Q 994 1759 809 1759 
Q 613 1759 480 1878 
Q 347 1997 347 2156 
Q 347 2381 525 2586 
Q 703 2791 1022 2900 
Q 1341 3009 1684 3009 
Q 2100 3009 2342 2832 
Q 2584 2656 2656 2450 
Q 2700 2319 2700 1847 
L 2700 713 
Q 2700 513 2715 461 
Q 2731 409 2762 384 
Q 2794 359 2834 359 
Q 2916 359 3000 475 
L 3094 400 
Q 2938 169 2770 64 
Q 2603 -41 2391 -41 
Q 2141 -41 2000 76 
Q 1859 194 1828 431 
z
M 1828 659 
L 1828 1638 
Q 1450 1416 1266 1163 
Q 1144 994 1144 822 
Q 1144 678 1247 569 
Q 1325 484 1466 484 
Q 1622 484 1828 659 
z
" transform="scale(0.015625)"/>
      <path id="TimesNewRomanPS-BoldMT-74" d="M 1375 3991 
L 1375 2922 
L 2069 2922 
L 2069 2613 
L 1375 2613 
L 1375 809 
Q 1375 556 1398 482 
Q 1422 409 1481 364 
Q 1541 319 1591 319 
Q 1794 319 1975 628 
L 2069 559 
Q 1816 -41 1247 -41 
Q 969 -41 776 114 
Q 584 269 531 459 
Q 500 566 500 1034 
L 500 2613 
L 119 2613 
L 119 2722 
Q 513 3000 789 3306 
Q 1066 3613 1272 3991 
L 1375 3991 
z
" transform="scale(0.015625)"/>
      <path id="TimesNewRomanPS-BoldMT-20" transform="scale(0.015625)"/>
      <path id="TimesNewRomanPS-BoldMT-6f" d="M 1594 3009 
Q 1975 3009 2303 2812 
Q 2631 2616 2801 2253 
Q 2972 1891 2972 1459 
Q 2972 838 2656 419 
Q 2275 -88 1603 -88 
Q 944 -88 587 375 
Q 231 838 231 1447 
Q 231 2075 595 2542 
Q 959 3009 1594 3009 
z
M 1606 2788 
Q 1447 2788 1333 2667 
Q 1219 2547 1183 2192 
Q 1147 1838 1147 1206 
Q 1147 872 1191 581 
Q 1225 359 1337 243 
Q 1450 128 1594 128 
Q 1734 128 1828 206 
Q 1950 313 1991 503 
Q 2053 800 2053 1703 
Q 2053 2234 1993 2432 
Q 1934 2631 1819 2722 
Q 1738 2788 1606 2788 
z
" transform="scale(0.015625)"/>
      <path id="TimesNewRomanPS-BoldMT-6e" d="M 1409 2922 
L 1409 2544 
Q 1634 2788 1840 2898 
Q 2047 3009 2284 3009 
Q 2569 3009 2756 2851 
Q 2944 2694 3006 2459 
Q 3056 2281 3056 1775 
L 3056 638 
Q 3056 300 3117 217 
Q 3178 134 3372 113 
L 3372 0 
L 1894 0 
L 1894 113 
Q 2059 134 2131 250 
Q 2181 328 2181 638 
L 2181 1938 
Q 2181 2297 2153 2390 
Q 2125 2484 2058 2536 
Q 1991 2588 1909 2588 
Q 1641 2588 1409 2203 
L 1409 638 
Q 1409 309 1470 221 
Q 1531 134 1697 113 
L 1697 0 
L 219 0 
L 219 113 
Q 403 131 481 231 
Q 534 300 534 638 
L 534 2288 
Q 534 2619 473 2700 
Q 413 2781 219 2806 
L 219 2922 
L 1409 2922 
z
" transform="scale(0.015625)"/>
      <path id="TimesNewRomanPS-BoldMT-65" d="M 2691 1566 
L 1088 1566 
Q 1116 984 1397 647 
Q 1613 388 1916 388 
Q 2103 388 2256 492 
Q 2409 597 2584 869 
L 2691 800 
Q 2453 316 2165 114 
Q 1878 -88 1500 -88 
Q 850 -88 516 413 
Q 247 816 247 1413 
Q 247 2144 642 2576 
Q 1038 3009 1569 3009 
Q 2013 3009 2339 2645 
Q 2666 2281 2691 1566 
z
M 1922 1775 
Q 1922 2278 1867 2465 
Q 1813 2653 1697 2750 
Q 1631 2806 1522 2806 
Q 1359 2806 1256 2647 
Q 1072 2369 1072 1884 
L 1072 1775 
L 1922 1775 
z
" transform="scale(0.015625)"/>
      <path id="TimesNewRomanPS-BoldMT-6d" d="M 1428 2922 
L 1428 2538 
Q 1669 2800 1873 2904 
Q 2078 3009 2322 3009 
Q 2603 3009 2793 2878 
Q 2984 2747 3088 2478 
Q 3338 2759 3567 2884 
Q 3797 3009 4047 3009 
Q 4350 3009 4529 2870 
Q 4709 2731 4779 2517 
Q 4850 2303 4850 1834 
L 4850 638 
Q 4850 300 4911 219 
Q 4972 138 5166 113 
L 5166 0 
L 3656 0 
L 3656 113 
Q 3834 128 3919 250 
Q 3975 334 3975 638 
L 3975 1894 
Q 3975 2284 3944 2390 
Q 3913 2497 3845 2548 
Q 3778 2600 3688 2600 
Q 3553 2600 3415 2501 
Q 3278 2403 3138 2206 
L 3138 638 
Q 3138 322 3191 241 
Q 3263 125 3466 113 
L 3466 0 
L 1953 0 
L 1953 113 
Q 2075 119 2145 173 
Q 2216 228 2239 304 
Q 2263 381 2263 638 
L 2263 1894 
Q 2263 2291 2231 2391 
Q 2200 2491 2126 2547 
Q 2053 2603 1969 2603 
Q 1844 2603 1741 2538 
Q 1594 2441 1428 2206 
L 1428 638 
Q 1428 328 1489 229 
Q 1550 131 1744 113 
L 1744 0 
L 238 0 
L 238 113 
Q 422 131 500 231 
Q 553 300 553 638 
L 553 2288 
Q 553 2619 492 2700 
Q 431 2781 238 2806 
L 238 2922 
L 1428 2922 
z
" transform="scale(0.015625)"/>
      <path id="TimesNewRomanPS-BoldMT-70" d="M 1347 297 
L 1347 -791 
Q 1347 -1016 1383 -1097 
Q 1419 -1178 1494 -1215 
Q 1569 -1253 1788 -1253 
L 1788 -1369 
L 122 -1369 
L 122 -1253 
Q 316 -1247 409 -1144 
Q 472 -1072 472 -772 
L 472 2313 
Q 472 2622 400 2708 
Q 328 2794 122 2806 
L 122 2922 
L 1347 2922 
L 1347 2538 
Q 1500 2763 1659 2863 
Q 1888 3009 2156 3009 
Q 2478 3009 2742 2806 
Q 3006 2603 3143 2245 
Q 3281 1888 3281 1475 
Q 3281 1031 3139 664 
Q 2997 297 2726 104 
Q 2456 -88 2125 -88 
Q 1884 -88 1675 19 
Q 1519 100 1347 297 
z
M 1347 613 
Q 1616 231 1922 231 
Q 2091 231 2200 409 
Q 2363 672 2363 1409 
Q 2363 2166 2184 2444 
Q 2066 2628 1866 2628 
Q 1550 2628 1347 2172 
L 1347 613 
z
" transform="scale(0.015625)"/>
      <path id="TimesNewRomanPS-BoldMT-6c" d="M 1359 4238 
L 1359 606 
Q 1359 297 1431 211 
Q 1503 125 1713 113 
L 1713 0 
L 134 0 
L 134 113 
Q 328 119 422 225 
Q 484 297 484 606 
L 484 3631 
Q 484 3938 412 4023 
Q 341 4109 134 4122 
L 134 4238 
L 1359 4238 
z
" transform="scale(0.015625)"/>
      <path id="TimesNewRomanPS-BoldMT-79" d="M 1556 -119 
L 613 2047 
Q 400 2538 298 2650 
Q 197 2763 53 2806 
L 53 2922 
L 1606 2922 
L 1606 2806 
Q 1453 2800 1390 2747 
Q 1328 2694 1328 2619 
Q 1328 2500 1484 2150 
L 1984 1006 
L 2325 1891 
Q 2509 2363 2509 2547 
Q 2509 2663 2432 2731 
Q 2356 2800 2163 2806 
L 2163 2922 
L 3141 2922 
L 3141 2806 
Q 2997 2791 2906 2695 
Q 2816 2600 2603 2047 
L 1769 -119 
Q 1453 -931 1300 -1119 
Q 1084 -1381 759 -1381 
Q 500 -1381 339 -1232 
Q 178 -1084 178 -875 
Q 178 -694 289 -575 
Q 400 -456 563 -456 
Q 719 -456 814 -556 
Q 909 -656 913 -866 
Q 916 -984 941 -1019 
Q 966 -1053 1013 -1053 
Q 1088 -1053 1172 -963 
Q 1297 -831 1466 -363 
L 1556 -119 
z
" transform="scale(0.015625)"/>
      <path id="TimesNewRomanPS-BoldMT-72" d="M 1428 2922 
L 1428 2259 
Q 1719 2713 1937 2861 
Q 2156 3009 2359 3009 
Q 2534 3009 2639 2901 
Q 2744 2794 2744 2597 
Q 2744 2388 2642 2272 
Q 2541 2156 2397 2156 
Q 2231 2156 2109 2262 
Q 1988 2369 1966 2381 
Q 1934 2400 1894 2400 
Q 1803 2400 1722 2331 
Q 1594 2225 1528 2028 
Q 1428 1725 1428 1359 
L 1428 688 
L 1431 513 
Q 1431 334 1453 284 
Q 1491 200 1564 161 
Q 1638 122 1813 113 
L 1813 0 
L 234 0 
L 234 113 
Q 425 128 492 217 
Q 559 306 559 688 
L 559 2303 
Q 559 2553 534 2622 
Q 503 2709 443 2750 
Q 384 2791 234 2806 
L 234 2922 
L 1428 2922 
z
" transform="scale(0.015625)"/>
      <path id="TimesNewRomanPS-BoldMT-73" d="M 2063 3003 
L 2109 2006 
L 2003 2006 
Q 1813 2450 1608 2612 
Q 1403 2775 1200 2775 
Q 1072 2775 981 2689 
Q 891 2603 891 2491 
Q 891 2406 953 2328 
Q 1053 2200 1512 1889 
Q 1972 1578 2117 1361 
Q 2263 1144 2263 875 
Q 2263 631 2141 397 
Q 2019 163 1797 37 
Q 1575 -88 1306 -88 
Q 1097 -88 747 44 
Q 653 78 619 78 
Q 516 78 447 -78 
L 344 -78 
L 294 972 
L 400 972 
Q 541 559 786 353 
Q 1031 147 1250 147 
Q 1400 147 1495 239 
Q 1591 331 1591 463 
Q 1591 613 1497 722 
Q 1403 831 1078 1053 
Q 600 1384 459 1559 
Q 253 1816 253 2125 
Q 253 2463 486 2736 
Q 719 3009 1159 3009 
Q 1397 3009 1619 2894 
Q 1703 2847 1756 2847 
Q 1813 2847 1847 2870 
Q 1881 2894 1956 3003 
L 2063 3003 
z
" transform="scale(0.015625)"/>
      <path id="TimesNewRomanPS-BoldMT-69" d="M 919 4338 
Q 1122 4338 1262 4195 
Q 1403 4053 1403 3853 
Q 1403 3653 1261 3512 
Q 1119 3372 919 3372 
Q 719 3372 578 3512 
Q 438 3653 438 3853 
Q 438 4053 578 4195 
Q 719 4338 919 4338 
z
M 1356 2922 
L 1356 606 
Q 1356 297 1428 211 
Q 1500 125 1709 113 
L 1709 0 
L 131 0 
L 131 113 
Q 325 119 419 225 
Q 481 297 481 606 
L 481 2313 
Q 481 2622 409 2708 
Q 338 2794 131 2806 
L 131 2922 
L 1356 2922 
z
" transform="scale(0.015625)"/>
      <path id="TimesNewRomanPS-BoldMT-64" d="M 3056 4238 
L 3056 875 
Q 3056 534 3075 472 
Q 3100 369 3170 319 
Q 3241 269 3416 256 
L 3416 153 
L 2181 -88 
L 2181 375 
Q 1959 106 1786 9 
Q 1613 -88 1394 -88 
Q 834 -88 509 413 
Q 247 819 247 1409 
Q 247 1881 409 2254 
Q 572 2628 855 2818 
Q 1138 3009 1463 3009 
Q 1672 3009 1834 2928 
Q 1997 2847 2181 2644 
L 2181 3525 
Q 2181 3859 2153 3928 
Q 2116 4019 2041 4062 
Q 1966 4106 1759 4106 
L 1759 4238 
L 3056 4238 
z
M 2181 2256 
Q 1950 2700 1616 2700 
Q 1500 2700 1425 2638 
Q 1309 2541 1236 2297 
Q 1163 2053 1163 1550 
Q 1163 997 1244 731 
Q 1325 466 1466 347 
Q 1538 288 1663 288 
Q 1938 288 2181 719 
L 2181 2256 
z
" transform="scale(0.015625)"/>
      <path id="TimesNewRomanPS-BoldMT-66" d="M 1497 2616 
L 1497 588 
Q 1497 294 1559 219 
Q 1659 103 1928 113 
L 1928 0 
L 206 0 
L 206 113 
Q 403 116 486 158 
Q 569 200 600 275 
Q 631 350 631 588 
L 631 2616 
L 206 2616 
L 206 2922 
L 631 2922 
L 631 3138 
L 628 3284 
Q 628 3734 958 4034 
Q 1288 4334 1850 4334 
Q 2234 4334 2420 4190 
Q 2606 4047 2606 3872 
Q 2606 3731 2490 3628 
Q 2375 3525 2184 3525 
Q 2022 3525 1926 3609 
Q 1831 3694 1831 3797 
Q 1831 3825 1850 3913 
Q 1863 3966 1863 4013 
Q 1863 4078 1825 4109 
Q 1775 4156 1703 4156 
Q 1613 4156 1552 4081 
Q 1491 4006 1491 3841 
L 1497 3294 
L 1497 2922 
L 1928 2922 
L 1928 2616 
L 1497 2616 
z
" transform="scale(0.015625)"/>
      <path id="TimesNewRomanPS-BoldMT-63" d="M 2600 753 
L 2697 678 
Q 2491 291 2183 101 
Q 1875 -88 1528 -88 
Q 944 -88 594 353 
Q 244 794 244 1413 
Q 244 2009 563 2463 
Q 947 3009 1622 3009 
Q 2075 3009 2342 2781 
Q 2609 2553 2609 2272 
Q 2609 2094 2501 1987 
Q 2394 1881 2219 1881 
Q 2034 1881 1914 2003 
Q 1794 2125 1766 2438 
Q 1747 2634 1675 2713 
Q 1603 2791 1506 2791 
Q 1356 2791 1250 2631 
Q 1088 2391 1088 1894 
Q 1088 1481 1219 1104 
Q 1350 728 1578 544 
Q 1750 409 1984 409 
Q 2138 409 2275 481 
Q 2413 553 2600 753 
z
" transform="scale(0.015625)"/>
      <path id="TimesNewRomanPS-BoldMT-68" d="M 1409 4238 
L 1409 2547 
Q 1650 2800 1850 2904 
Q 2050 3009 2266 3009 
Q 2541 3009 2736 2853 
Q 2931 2697 2995 2486 
Q 3059 2275 3059 1775 
L 3059 634 
Q 3059 300 3121 217 
Q 3184 134 3375 113 
L 3375 0 
L 1894 0 
L 1894 113 
Q 2050 134 2128 238 
Q 2184 319 2184 634 
L 2184 1938 
Q 2184 2300 2156 2392 
Q 2128 2484 2061 2536 
Q 1994 2588 1909 2588 
Q 1784 2588 1665 2502 
Q 1547 2416 1409 2200 
L 1409 634 
Q 1409 322 1456 244 
Q 1516 138 1700 113 
L 1700 0 
L 219 0 
L 219 113 
Q 403 131 481 231 
Q 534 300 534 634 
L 534 3603 
Q 534 3934 473 4015 
Q 413 4097 219 4122 
L 219 4238 
L 1409 4238 
z
" transform="scale(0.015625)"/>
      <path id="TimesNewRomanPS-BoldMT-28" d="M 2056 4334 
L 2056 4191 
Q 1731 3978 1578 3775 
Q 1366 3494 1247 3053 
Q 1097 2506 1097 1525 
Q 1097 600 1233 87 
Q 1369 -425 1603 -741 
Q 1766 -959 2056 -1125 
L 2056 -1281 
Q 1303 -1028 779 -248 
Q 256 531 256 1544 
Q 256 2544 778 3314 
Q 1300 4084 2056 4334 
z
" transform="scale(0.015625)"/>
      <path id="TimesNewRomanPS-BoldMT-25" d="M 4916 4334 
L 1906 -178 
L 1488 -178 
L 4494 4334 
L 4916 4334 
z
M 1494 4334 
Q 1938 4334 2242 4020 
Q 2547 3706 2547 3209 
Q 2547 2700 2240 2383 
Q 1934 2066 1481 2066 
Q 1034 2066 739 2372 
Q 444 2678 444 3178 
Q 444 3694 747 4014 
Q 1050 4334 1494 4334 
z
M 1494 4169 
Q 1425 4169 1381 4128 
Q 1303 4056 1264 3879 
Q 1225 3703 1225 3150 
Q 1225 2709 1278 2469 
Q 1309 2331 1384 2263 
Q 1431 2222 1494 2222 
Q 1563 2222 1603 2259 
Q 1675 2325 1709 2472 
Q 1763 2709 1763 3138 
Q 1763 3663 1713 3897 
Q 1678 4059 1600 4134 
Q 1563 4169 1494 4169 
z
M 4894 2097 
Q 5347 2097 5651 1786 
Q 5956 1475 5956 972 
Q 5956 463 5647 144 
Q 5338 -175 4900 -175 
Q 4466 -175 4161 144 
Q 3856 463 3856 963 
Q 3856 1466 4153 1781 
Q 4450 2097 4894 2097 
z
M 4903 1934 
Q 4841 1934 4797 1897 
Q 4722 1828 4681 1658 
Q 4641 1488 4641 1006 
Q 4641 494 4688 269 
Q 4722 109 4803 38 
Q 4844 0 4909 0 
Q 4969 0 5006 34 
Q 5084 106 5122 269 
Q 5175 497 5175 959 
Q 5175 1447 5125 1672 
Q 5088 1834 5013 1900 
Q 4975 1934 4903 1934 
z
" transform="scale(0.015625)"/>
      <path id="TimesNewRomanPS-BoldMT-29" d="M 78 -1281 
L 78 -1138 
Q 403 -922 556 -719 
Q 766 -438 888 0 
Q 1038 550 1038 1531 
Q 1038 2456 902 2967 
Q 766 3478 531 3794 
Q 369 4013 78 4178 
L 78 4334 
Q 831 4081 1354 3301 
Q 1878 2522 1878 1509 
Q 1878 513 1354 -257 
Q 831 -1028 78 -1281 
z
" transform="scale(0.015625)"/>
     </defs>
     <use xlink:href="#TimesNewRomanPS-BoldMT-44"/>
     <use xlink:href="#TimesNewRomanPS-BoldMT-61" x="72.216797"/>
     <use xlink:href="#TimesNewRomanPS-BoldMT-74" x="122.216797"/>
     <use xlink:href="#TimesNewRomanPS-BoldMT-61" x="155.517578"/>
     <use xlink:href="#TimesNewRomanPS-BoldMT-20" x="205.517578"/>
     <use xlink:href="#TimesNewRomanPS-BoldMT-6f" x="230.517578"/>
     <use xlink:href="#TimesNewRomanPS-BoldMT-6e" x="280.517578"/>
     <use xlink:href="#TimesNewRomanPS-BoldMT-20" x="336.132812"/>
     <use xlink:href="#TimesNewRomanPS-BoldMT-65" x="361.132812"/>
     <use xlink:href="#TimesNewRomanPS-BoldMT-6d" x="405.517578"/>
     <use xlink:href="#TimesNewRomanPS-BoldMT-70" x="488.818359"/>
     <use xlink:href="#TimesNewRomanPS-BoldMT-6c" x="544.433594"/>
     <use xlink:href="#TimesNewRomanPS-BoldMT-6f" x="572.216797"/>
     <use xlink:href="#TimesNewRomanPS-BoldMT-79" x="622.216797"/>
     <use xlink:href="#TimesNewRomanPS-BoldMT-6d" x="672.216797"/>
     <use xlink:href="#TimesNewRomanPS-BoldMT-65" x="755.517578"/>
     <use xlink:href="#TimesNewRomanPS-BoldMT-6e" x="799.902344"/>
     <use xlink:href="#TimesNewRomanPS-BoldMT-74" x="855.517578"/>
     <use xlink:href="#TimesNewRomanPS-BoldMT-20" x="888.818359"/>
     <use xlink:href="#TimesNewRomanPS-BoldMT-72" x="913.818359"/>
     <use xlink:href="#TimesNewRomanPS-BoldMT-61" x="958.203125"/>
     <use xlink:href="#TimesNewRomanPS-BoldMT-74" x="1008.203125"/>
     <use xlink:href="#TimesNewRomanPS-BoldMT-65" x="1041.503906"/>
     <use xlink:href="#TimesNewRomanPS-BoldMT-73" x="1085.888672"/>
     <use xlink:href="#TimesNewRomanPS-BoldMT-20" x="1124.804688"/>
     <use xlink:href="#TimesNewRomanPS-BoldMT-69" x="1149.804688"/>
     <use xlink:href="#TimesNewRomanPS-BoldMT-6e" x="1177.587891"/>
     <use xlink:href="#TimesNewRomanPS-BoldMT-20" x="1233.203125"/>
     <use xlink:href="#TimesNewRomanPS-BoldMT-64" x="1258.203125"/>
     <use xlink:href="#TimesNewRomanPS-BoldMT-69" x="1313.818359"/>
     <use xlink:href="#TimesNewRomanPS-BoldMT-66" x="1341.601562"/>
     <use xlink:href="#TimesNewRomanPS-BoldMT-66" x="1374.902344"/>
     <use xlink:href="#TimesNewRomanPS-BoldMT-65" x="1408.203125"/>
     <use xlink:href="#TimesNewRomanPS-BoldMT-72" x="1452.587891"/>
     <use xlink:href="#TimesNewRomanPS-BoldMT-65" x="1495.222656"/>
     <use xlink:href="#TimesNewRomanPS-BoldMT-6e" x="1539.607422"/>
     <use xlink:href="#TimesNewRomanPS-BoldMT-74" x="1595.222656"/>
     <use xlink:href="#TimesNewRomanPS-BoldMT-20" x="1628.523438"/>
     <use xlink:href="#TimesNewRomanPS-BoldMT-73" x="1653.523438"/>
     <use xlink:href="#TimesNewRomanPS-BoldMT-63" x="1692.439453"/>
     <use xlink:href="#TimesNewRomanPS-BoldMT-68" x="1736.824219"/>
     <use xlink:href="#TimesNewRomanPS-BoldMT-6f" x="1792.439453"/>
     <use xlink:href="#TimesNewRomanPS-BoldMT-6f" x="1842.439453"/>
     <use xlink:href="#TimesNewRomanPS-BoldMT-6c" x="1892.439453"/>
     <use xlink:href="#TimesNewRomanPS-BoldMT-73" x="1920.222656"/>
     <use xlink:href="#TimesNewRomanPS-BoldMT-20" x="1959.138672"/>
     <use xlink:href="#TimesNewRomanPS-BoldMT-28" x="1984.138672"/>
     <use xlink:href="#TimesNewRomanPS-BoldMT-25" x="2017.439453"/>
     <use xlink:href="#TimesNewRomanPS-BoldMT-29" x="2117.439453"/>
    </g>
   </g>
  </g>
 </g>
 <defs>
  <clipPath id="pd8ef21991a">
   <rect x="45.915937" y="30.045" width="381.81" height="197.081442"/>
  </clipPath>
 </defs>
</svg>
