<?xml version="1.0" encoding="utf-8" standalone="no"?>
<!DOCTYPE svg PUBLIC "-//W3C//DTD SVG 1.1//EN"
  "http://www.w3.org/Graphics/SVG/1.1/DTD/svg11.dtd">
<svg xmlns:xlink="http://www.w3.org/1999/xlink" width="434.935938pt" height="319.96909pt" viewBox="0 0 434.935938 319.96909" xmlns="http://www.w3.org/2000/svg" version="1.1">
 <metadata>
  <rdf:RDF xmlns:dc="http://purl.org/dc/elements/1.1/" xmlns:cc="http://creativecommons.org/ns#" xmlns:rdf="http://www.w3.org/1999/02/22-rdf-syntax-ns#">
   <cc:Work>
    <dc:type rdf:resource="http://purl.org/dc/dcmitype/StillImage"/>
    <dc:date>2025-05-26T17:25:59.649128</dc:date>
    <dc:format>image/svg+xml</dc:format>
    <dc:creator>
     <cc:Agent>
      <dc:title>Matplotlib v3.7.2, https://matplotlib.org/</dc:title>
     </cc:Agent>
    </dc:creator>
   </cc:Work>
  </rdf:RDF>
 </metadata>
 <defs>
  <style type="text/css">*{stroke-linejoin: round; stroke-linecap: butt}</style>
 </defs>
 <g id="figure_1">
  <g id="patch_1">
   <path d="M 0 319.96909 
L 434.935938 319.96909 
L 434.935938 0 
L 0 0 
z
" style="fill: #ffffff"/>
  </g>
  <g id="axes_1">
   <g id="patch_2">
    <path d="M 40.915938 231.835773 
L 427.735938 231.835773 
L 427.735938 30.045 
L 40.915938 30.045 
z
" style="fill: #ffffff"/>
   </g>
   <g id="PolyCollection_1">
    <defs>
     <path id="mb3438b8ef5" d="M 90.836317 -157.653587 
L 87.700558 -157.653587 
L 87.548873 -158.746999 
L 87.382989 -159.840411 
L 87.198881 -160.933823 
L 86.992042 -162.027235 
L 86.757664 -163.120647 
L 86.490853 -164.214059 
L 86.186829 -165.307471 
L 85.841113 -166.400883 
L 85.449674 -167.494295 
L 85.009038 -168.587708 
L 84.516354 -169.68112 
L 83.969434 -170.774532 
L 83.36677 -171.867944 
L 82.707552 -172.961356 
L 81.991696 -174.054768 
L 81.219899 -175.14818 
L 80.393717 -176.241592 
L 79.515668 -177.335004 
L 78.589335 -178.428416 
L 77.619462 -179.521828 
L 76.611982 -180.61524 
L 75.573977 -181.708652 
L 74.513509 -182.802064 
L 73.439329 -183.895476 
L 72.360444 -184.988888 
L 71.285557 -186.0823 
L 70.222445 -187.175712 
L 69.177313 -188.269124 
L 68.154222 -189.362536 
L 67.154672 -190.455948 
L 66.177431 -191.54936 
L 65.218663 -192.642772 
L 64.272394 -193.736184 
L 63.331295 -194.829596 
L 62.387741 -195.923009 
L 61.435014 -197.016421 
L 60.468543 -198.109833 
L 59.487 -199.203245 
L 58.493124 -200.296657 
L 57.494129 -201.390069 
L 56.501638 -202.483481 
L 55.531106 -203.576893 
L 54.600794 -204.670305 
L 53.730391 -205.763717 
L 52.939444 -206.857129 
L 52.245763 -207.950541 
L 51.663989 -209.043953 
L 51.20446 -210.137365 
L 50.872501 -211.230777 
L 50.668166 -212.324189 
L 50.586438 -213.417601 
L 50.617815 -214.511013 
L 50.749197 -215.604425 
L 50.964928 -216.697837 
L 51.24792 -217.791249 
L 51.580715 -218.884661 
L 51.946452 -219.978073 
L 52.329686 -221.071485 
L 52.717048 -222.164897 
L 53.09778 -223.25831 
L 53.46414 -224.351722 
L 53.811718 -225.445134 
L 54.139656 -226.538546 
L 54.450771 -227.631958 
L 54.75154 -228.72537 
L 55.051927 -229.818782 
L 55.365003 -230.912194 
L 55.706329 -232.005606 
L 56.093115 -233.099018 
L 56.543151 -234.19243 
L 57.073589 -235.285842 
L 57.699639 -236.379254 
L 58.433306 -237.472666 
L 59.282252 -238.566078 
L 60.248936 -239.65949 
L 61.330084 -240.752902 
L 62.516589 -241.846314 
L 63.793858 -242.939726 
L 65.142575 -244.033138 
L 66.539854 -245.12655 
L 67.960655 -246.219962 
L 69.379363 -247.313374 
L 70.771384 -248.406786 
L 72.114618 -249.500198 
L 73.390698 -250.59361 
L 74.585883 -251.687023 
L 75.691558 -252.780435 
L 76.704312 -253.873847 
L 77.625616 -254.967259 
L 78.461154 -256.060671 
L 79.219898 -257.154083 
L 79.913016 -258.247495 
L 80.552726 -259.340907 
L 81.1512 -260.434319 
L 81.719604 -261.527731 
L 82.267333 -262.621143 
L 82.801501 -263.714555 
L 83.326675 -264.807967 
L 83.844877 -265.901379 
L 94.691998 -265.901379 
L 94.691998 -265.901379 
L 95.2102 -264.807967 
L 95.735374 -263.714555 
L 96.269542 -262.621143 
L 96.817271 -261.527731 
L 97.385675 -260.434319 
L 97.984149 -259.340907 
L 98.623859 -258.247495 
L 99.316977 -257.154083 
L 100.075721 -256.060671 
L 100.911259 -254.967259 
L 101.832563 -253.873847 
L 102.845317 -252.780435 
L 103.950992 -251.687023 
L 105.146177 -250.59361 
L 106.422257 -249.500198 
L 107.765491 -248.406786 
L 109.157512 -247.313374 
L 110.57622 -246.219962 
L 111.997021 -245.12655 
L 113.3943 -244.033138 
L 114.743017 -242.939726 
L 116.020286 -241.846314 
L 117.206791 -240.752902 
L 118.287939 -239.65949 
L 119.254623 -238.566078 
L 120.103569 -237.472666 
L 120.837236 -236.379254 
L 121.463286 -235.285842 
L 121.993724 -234.19243 
L 122.44376 -233.099018 
L 122.830546 -232.005606 
L 123.171872 -230.912194 
L 123.484948 -229.818782 
L 123.785335 -228.72537 
L 124.086104 -227.631958 
L 124.397219 -226.538546 
L 124.725157 -225.445134 
L 125.072735 -224.351722 
L 125.439095 -223.25831 
L 125.819827 -222.164897 
L 126.207189 -221.071485 
L 126.590423 -219.978073 
L 126.95616 -218.884661 
L 127.288955 -217.791249 
L 127.571947 -216.697837 
L 127.787678 -215.604425 
L 127.91906 -214.511013 
L 127.950437 -213.417601 
L 127.868709 -212.324189 
L 127.664374 -211.230777 
L 127.332415 -210.137365 
L 126.872886 -209.043953 
L 126.291112 -207.950541 
L 125.597431 -206.857129 
L 124.806484 -205.763717 
L 123.936081 -204.670305 
L 123.005769 -203.576893 
L 122.035237 -202.483481 
L 121.042746 -201.390069 
L 120.043751 -200.296657 
L 119.049875 -199.203245 
L 118.068332 -198.109833 
L 117.101861 -197.016421 
L 116.149134 -195.923009 
L 115.20558 -194.829596 
L 114.264481 -193.736184 
L 113.318212 -192.642772 
L 112.359444 -191.54936 
L 111.382203 -190.455948 
L 110.382653 -189.362536 
L 109.359562 -188.269124 
L 108.31443 -187.175712 
L 107.251318 -186.0823 
L 106.176431 -184.988888 
L 105.097546 -183.895476 
L 104.023366 -182.802064 
L 102.962898 -181.708652 
L 101.924893 -180.61524 
L 100.917413 -179.521828 
L 99.94754 -178.428416 
L 99.021207 -177.335004 
L 98.143158 -176.241592 
L 97.316976 -175.14818 
L 96.545179 -174.054768 
L 95.829323 -172.961356 
L 95.170105 -171.867944 
L 94.567441 -170.774532 
L 94.020521 -169.68112 
L 93.527837 -168.587708 
L 93.087201 -167.494295 
L 92.695762 -166.400883 
L 92.350046 -165.307471 
L 92.046022 -164.214059 
L 91.779211 -163.120647 
L 91.544833 -162.027235 
L 91.337994 -160.933823 
L 91.153886 -159.840411 
L 90.988002 -158.746999 
L 90.836317 -157.653587 
z
" style="stroke: #000000; stroke-opacity: 0.7"/>
    </defs>
    <g clip-path="url(#p6ce5213885)">
     <use xlink:href="#mb3438b8ef5" x="0" y="319.96909" style="fill: #e78ac3; fill-opacity: 0.7; stroke: #000000; stroke-opacity: 0.7"/>
    </g>
   </g>
   <g id="PolyCollection_2">
    <defs>
     <path id="mfcb99baaed" d="M 189.21766 -143.167164 
L 182.729215 -143.167164 
L 182.489653 -144.492936 
L 182.247591 -145.818707 
L 181.997782 -147.144478 
L 181.733581 -148.47025 
L 181.447351 -149.796021 
L 181.130963 -151.121792 
L 180.776326 -152.447563 
L 180.375887 -153.773335 
L 179.923059 -155.099106 
L 179.412524 -156.424877 
L 178.840403 -157.750649 
L 178.204294 -159.07642 
L 177.503199 -160.402191 
L 176.737379 -161.727962 
L 175.908185 -163.053734 
L 175.017906 -164.379505 
L 174.069673 -165.705276 
L 173.067433 -167.031048 
L 172.016008 -168.356819 
L 170.921188 -169.68259 
L 169.78986 -171.008361 
L 168.630079 -172.334133 
L 167.451065 -173.659904 
L 166.263057 -174.985675 
L 165.077003 -176.311447 
L 163.904082 -177.637218 
L 162.75509 -178.962989 
L 161.639731 -180.288761 
L 160.565911 -181.614532 
L 159.539122 -182.940303 
L 158.562008 -184.266074 
L 157.634213 -185.591846 
L 156.752549 -186.917617 
L 155.911504 -188.243388 
L 155.104064 -189.56916 
L 154.322761 -190.894931 
L 153.56084 -192.220702 
L 152.813401 -193.546473 
L 152.078383 -194.872245 
L 151.357261 -196.198016 
L 150.655377 -197.523787 
L 149.981855 -198.849559 
L 149.349135 -200.17533 
L 148.772172 -201.501101 
L 148.267422 -202.826872 
L 147.851727 -204.152644 
L 147.541232 -205.478415 
L 147.350433 -206.804186 
L 147.291438 -208.129958 
L 147.373456 -209.455729 
L 147.602527 -210.7815 
L 147.981429 -212.107271 
L 148.50973 -213.433043 
L 149.18391 -214.758814 
L 149.997519 -216.084585 
L 150.941348 -217.410357 
L 152.003618 -218.736128 
L 153.170214 -220.061899 
L 154.425 -221.38767 
L 155.750251 -222.713442 
L 157.127213 -224.039213 
L 158.536783 -225.364984 
L 159.960267 -226.690756 
L 161.380148 -228.016527 
L 162.780769 -229.342298 
L 164.14886 -230.66807 
L 165.473822 -231.993841 
L 166.747744 -233.319612 
L 167.965138 -234.645383 
L 169.122448 -235.971155 
L 170.21742 -237.296926 
L 171.248421 -238.622697 
L 172.213844 -239.948469 
L 173.111691 -241.27424 
L 173.939404 -242.600011 
L 174.693993 -243.925782 
L 175.372421 -245.251554 
L 175.972215 -246.577325 
L 176.492176 -247.903096 
L 176.933093 -249.228868 
L 177.298337 -250.554639 
L 177.594212 -251.88041 
L 177.830016 -253.206181 
L 178.017755 -254.531953 
L 178.171545 -255.857724 
L 178.306743 -257.183495 
L 178.438907 -258.509267 
L 178.582713 -259.835038 
L 178.75092 -261.160809 
L 178.953527 -262.48658 
L 179.197179 -263.812352 
L 179.48489 -265.138123 
L 179.816082 -266.463894 
L 180.186923 -267.789666 
L 180.590895 -269.115437 
L 181.019532 -270.441208 
L 181.463214 -271.766979 
L 181.91196 -273.092751 
L 182.356132 -274.418522 
L 189.590743 -274.418522 
L 189.590743 -274.418522 
L 190.034915 -273.092751 
L 190.483661 -271.766979 
L 190.927343 -270.441208 
L 191.35598 -269.115437 
L 191.759952 -267.789666 
L 192.130793 -266.463894 
L 192.461985 -265.138123 
L 192.749696 -263.812352 
L 192.993348 -262.48658 
L 193.195955 -261.160809 
L 193.364162 -259.835038 
L 193.507968 -258.509267 
L 193.640132 -257.183495 
L 193.77533 -255.857724 
L 193.92912 -254.531953 
L 194.116859 -253.206181 
L 194.352663 -251.88041 
L 194.648538 -250.554639 
L 195.013782 -249.228868 
L 195.454699 -247.903096 
L 195.97466 -246.577325 
L 196.574454 -245.251554 
L 197.252882 -243.925782 
L 198.007471 -242.600011 
L 198.835184 -241.27424 
L 199.733031 -239.948469 
L 200.698454 -238.622697 
L 201.729455 -237.296926 
L 202.824427 -235.971155 
L 203.981737 -234.645383 
L 205.199131 -233.319612 
L 206.473053 -231.993841 
L 207.798015 -230.66807 
L 209.166106 -229.342298 
L 210.566727 -228.016527 
L 211.986608 -226.690756 
L 213.410092 -225.364984 
L 214.819662 -224.039213 
L 216.196624 -222.713442 
L 217.521875 -221.38767 
L 218.776661 -220.061899 
L 219.943257 -218.736128 
L 221.005527 -217.410357 
L 221.949356 -216.084585 
L 222.762965 -214.758814 
L 223.437145 -213.433043 
L 223.965446 -212.107271 
L 224.344348 -210.7815 
L 224.573419 -209.455729 
L 224.655438 -208.129958 
L 224.596442 -206.804186 
L 224.405643 -205.478415 
L 224.095148 -204.152644 
L 223.679453 -202.826872 
L 223.174703 -201.501101 
L 222.59774 -200.17533 
L 221.96502 -198.849559 
L 221.291498 -197.523787 
L 220.589614 -196.198016 
L 219.868492 -194.872245 
L 219.133474 -193.546473 
L 218.386035 -192.220702 
L 217.624114 -190.894931 
L 216.842811 -189.56916 
L 216.035371 -188.243388 
L 215.194326 -186.917617 
L 214.312662 -185.591846 
L 213.384867 -184.266074 
L 212.407753 -182.940303 
L 211.380964 -181.614532 
L 210.307144 -180.288761 
L 209.191785 -178.962989 
L 208.042793 -177.637218 
L 206.869872 -176.311447 
L 205.683818 -174.985675 
L 204.49581 -173.659904 
L 203.316796 -172.334133 
L 202.157015 -171.008361 
L 201.025687 -169.68259 
L 199.930867 -168.356819 
L 198.879442 -167.031048 
L 197.877202 -165.705276 
L 196.928969 -164.379505 
L 196.03869 -163.053734 
L 195.209496 -161.727962 
L 194.443676 -160.402191 
L 193.742581 -159.07642 
L 193.106472 -157.750649 
L 192.534351 -156.424877 
L 192.023816 -155.099106 
L 191.570988 -153.773335 
L 191.170549 -152.447563 
L 190.815912 -151.121792 
L 190.499524 -149.796021 
L 190.213294 -148.47025 
L 189.949093 -147.144478 
L 189.699284 -145.818707 
L 189.457222 -144.492936 
L 189.21766 -143.167164 
z
" style="stroke: #000000; stroke-opacity: 0.7"/>
    </defs>
    <g clip-path="url(#p6ce5213885)">
     <use xlink:href="#mfcb99baaed" x="0" y="319.96909" style="fill: #66c2a5; fill-opacity: 0.7; stroke: #000000; stroke-opacity: 0.7"/>
    </g>
   </g>
   <g id="PolyCollection_3">
    <defs>
     <path id="meace6b9f62" d="M 283.724898 -97.305625 
L 281.631977 -97.305625 
L 281.591785 -99.158617 
L 281.555737 -101.011608 
L 281.518413 -102.8646 
L 281.472961 -104.717591 
L 281.411453 -106.570583 
L 281.32533 -108.423574 
L 281.205874 -110.276566 
L 281.044679 -112.129557 
L 280.834085 -113.982549 
L 280.567573 -115.83554 
L 280.240109 -117.688531 
L 279.848433 -119.541523 
L 279.391276 -121.394514 
L 278.869473 -123.247506 
L 278.285928 -125.100497 
L 277.645379 -126.953489 
L 276.953929 -128.80648 
L 276.218342 -130.659472 
L 275.445128 -132.512463 
L 274.639536 -134.365455 
L 273.804568 -136.218446 
L 272.940189 -138.071438 
L 272.042888 -139.924429 
L 271.105702 -141.777421 
L 270.118756 -143.630412 
L 269.070288 -145.483404 
L 267.948053 -147.336395 
L 266.740937 -149.189387 
L 265.440602 -151.042378 
L 264.042969 -152.89537 
L 262.549401 -154.748361 
L 260.967491 -156.601353 
L 259.311401 -158.454344 
L 257.60175 -160.307336 
L 255.865071 -162.160327 
L 254.13284 -164.013319 
L 252.440108 -165.86631 
L 250.823763 -167.719302 
L 249.320473 -169.572293 
L 247.964413 -171.425285 
L 246.784937 -173.278276 
L 245.804408 -175.131268 
L 245.036448 -176.984259 
L 244.484851 -178.837251 
L 244.143365 -180.690242 
L 243.996438 -182.543233 
L 244.020881 -184.396225 
L 244.188282 -186.249216 
L 244.467833 -188.102208 
L 244.829212 -189.955199 
L 245.245125 -191.808191 
L 245.693159 -193.661182 
L 246.156781 -195.514174 
L 246.625404 -197.367165 
L 247.093663 -199.220157 
L 247.560119 -201.073148 
L 248.025739 -202.92614 
L 248.492445 -204.779131 
L 248.962028 -206.632123 
L 249.435575 -208.485114 
L 249.913471 -210.338106 
L 250.395887 -212.191097 
L 250.883605 -214.044089 
L 251.378955 -215.89708 
L 251.886659 -217.750072 
L 252.414373 -219.603063 
L 252.972817 -221.456055 
L 253.575422 -223.309046 
L 254.237512 -225.162038 
L 254.975103 -227.015029 
L 255.803428 -228.868021 
L 256.735377 -230.721012 
L 257.779992 -232.574004 
L 258.941205 -234.426995 
L 260.216934 -236.279987 
L 261.598661 -238.132978 
L 263.071508 -239.98597 
L 264.614833 -241.838961 
L 266.203264 -243.691953 
L 267.808092 -245.544944 
L 269.398888 -247.397935 
L 270.94521 -249.250927 
L 272.418283 -251.103918 
L 273.79252 -252.95691 
L 275.046808 -254.809901 
L 276.165482 -256.662893 
L 277.138952 -258.515884 
L 277.96395 -260.368876 
L 278.643408 -262.221867 
L 279.18596 -264.074859 
L 279.605128 -265.92785 
L 279.918227 -267.780842 
L 280.145063 -269.633833 
L 280.306532 -271.486825 
L 280.423203 -273.339816 
L 280.514022 -275.192808 
L 280.595224 -277.045799 
L 280.679548 -278.898791 
L 280.775812 -280.751782 
L 284.581063 -280.751782 
L 284.581063 -280.751782 
L 284.677327 -278.898791 
L 284.761651 -277.045799 
L 284.842853 -275.192808 
L 284.933672 -273.339816 
L 285.050343 -271.486825 
L 285.211812 -269.633833 
L 285.438648 -267.780842 
L 285.751747 -265.92785 
L 286.170915 -264.074859 
L 286.713467 -262.221867 
L 287.392925 -260.368876 
L 288.217923 -258.515884 
L 289.191393 -256.662893 
L 290.310067 -254.809901 
L 291.564355 -252.95691 
L 292.938592 -251.103918 
L 294.411665 -249.250927 
L 295.957987 -247.397935 
L 297.548783 -245.544944 
L 299.153611 -243.691953 
L 300.742042 -241.838961 
L 302.285367 -239.98597 
L 303.758214 -238.132978 
L 305.139941 -236.279987 
L 306.41567 -234.426995 
L 307.576883 -232.574004 
L 308.621498 -230.721012 
L 309.553447 -228.868021 
L 310.381772 -227.015029 
L 311.119363 -225.162038 
L 311.781453 -223.309046 
L 312.384058 -221.456055 
L 312.942502 -219.603063 
L 313.470216 -217.750072 
L 313.97792 -215.89708 
L 314.47327 -214.044089 
L 314.960988 -212.191097 
L 315.443404 -210.338106 
L 315.9213 -208.485114 
L 316.394847 -206.632123 
L 316.86443 -204.779131 
L 317.331136 -202.92614 
L 317.796756 -201.073148 
L 318.263212 -199.220157 
L 318.731471 -197.367165 
L 319.200094 -195.514174 
L 319.663716 -193.661182 
L 320.11175 -191.808191 
L 320.527663 -189.955199 
L 320.889042 -188.102208 
L 321.168593 -186.249216 
L 321.335994 -184.396225 
L 321.360438 -182.543233 
L 321.21351 -180.690242 
L 320.872024 -178.837251 
L 320.320427 -176.984259 
L 319.552467 -175.131268 
L 318.571938 -173.278276 
L 317.392462 -171.425285 
L 316.036402 -169.572293 
L 314.533112 -167.719302 
L 312.916767 -165.86631 
L 311.224035 -164.013319 
L 309.491804 -162.160327 
L 307.755125 -160.307336 
L 306.045474 -158.454344 
L 304.389384 -156.601353 
L 302.807474 -154.748361 
L 301.313906 -152.89537 
L 299.916273 -151.042378 
L 298.615938 -149.189387 
L 297.408822 -147.336395 
L 296.286587 -145.483404 
L 295.238119 -143.630412 
L 294.251173 -141.777421 
L 293.313987 -139.924429 
L 292.416686 -138.071438 
L 291.552307 -136.218446 
L 290.717339 -134.365455 
L 289.911747 -132.512463 
L 289.138533 -130.659472 
L 288.402946 -128.80648 
L 287.711496 -126.953489 
L 287.070947 -125.100497 
L 286.487402 -123.247506 
L 285.965599 -121.394514 
L 285.508442 -119.541523 
L 285.116766 -117.688531 
L 284.789302 -115.83554 
L 284.52279 -113.982549 
L 284.312196 -112.129557 
L 284.151001 -110.276566 
L 284.031545 -108.423574 
L 283.945422 -106.570583 
L 283.883914 -104.717591 
L 283.838462 -102.8646 
L 283.801138 -101.011608 
L 283.76509 -99.158617 
L 283.724898 -97.305625 
z
" style="stroke: #000000; stroke-opacity: 0.7"/>
    </defs>
    <g clip-path="url(#p6ce5213885)">
     <use xlink:href="#meace6b9f62" x="0" y="319.96909" style="fill: #ff9896; fill-opacity: 0.7; stroke: #000000; stroke-opacity: 0.7"/>
    </g>
   </g>
   <g id="PolyCollection_4">
    <defs>
     <path id="m7010c3bfeb" d="M 381.471826 -169.51935 
L 377.295049 -169.51935 
L 376.968874 -170.479671 
L 376.599403 -171.439991 
L 376.183377 -172.400311 
L 375.718528 -173.360631 
L 375.203873 -174.320951 
L 374.639876 -175.281272 
L 374.028471 -176.241592 
L 373.372903 -177.201912 
L 372.677396 -178.162232 
L 371.946651 -179.122552 
L 371.185243 -180.082873 
L 370.396958 -181.043193 
L 369.584166 -182.003513 
L 368.747307 -182.963833 
L 367.884561 -183.924153 
L 366.991783 -184.884474 
L 366.062733 -185.844794 
L 365.089612 -186.805114 
L 364.063893 -187.765434 
L 362.977369 -188.725754 
L 361.823341 -189.686074 
L 360.597811 -190.646395 
L 359.300548 -191.606715 
L 357.935892 -192.567035 
L 356.513162 -193.527355 
L 355.046612 -194.487675 
L 353.554884 -195.447996 
L 352.06 -196.408316 
L 350.585999 -197.368636 
L 349.157357 -198.328956 
L 347.797389 -199.289276 
L 346.526827 -200.249597 
L 345.362747 -201.209917 
L 344.317974 -202.170237 
L 343.401029 -203.130557 
L 342.616584 -204.090877 
L 341.966346 -205.051198 
L 341.450186 -206.011518 
L 341.067343 -206.971838 
L 340.817481 -207.932158 
L 340.701438 -208.892478 
L 340.721536 -209.852798 
L 340.881416 -210.813119 
L 341.185413 -211.773439 
L 341.637576 -212.733759 
L 342.240502 -213.694079 
L 342.994135 -214.654399 
L 343.894745 -215.61472 
L 344.934227 -216.57504 
L 346.099818 -217.53536 
L 347.37429 -218.49568 
L 348.736572 -219.456 
L 350.162735 -220.416321 
L 351.627189 -221.376641 
L 353.103964 -222.336961 
L 354.567907 -223.297281 
L 355.995699 -224.257601 
L 357.366601 -225.217922 
L 358.662906 -226.178242 
L 359.870141 -227.138562 
L 360.977058 -228.098882 
L 361.975524 -229.059202 
L 362.860394 -230.019522 
L 363.629428 -230.979843 
L 364.283302 -231.940163 
L 364.825706 -232.900483 
L 365.263469 -233.860803 
L 365.606661 -234.821123 
L 365.868546 -235.781444 
L 366.065339 -236.741764 
L 366.215672 -237.702084 
L 366.33978 -238.662404 
L 366.458422 -239.622724 
L 366.591629 -240.583045 
L 366.757408 -241.543365 
L 366.970525 -242.503685 
L 367.241538 -243.464005 
L 367.576181 -244.424325 
L 367.97518 -245.384646 
L 368.434526 -246.344966 
L 368.946161 -247.305286 
L 369.498984 -248.265606 
L 370.080059 -249.225926 
L 370.675864 -250.186246 
L 371.27345 -251.146567 
L 371.86139 -252.106887 
L 372.430437 -253.067207 
L 372.973864 -254.027527 
L 373.487492 -254.987847 
L 373.969463 -255.948168 
L 374.419824 -256.908488 
L 374.840014 -257.868808 
L 375.232328 -258.829128 
L 375.599429 -259.789448 
L 375.943949 -260.749769 
L 376.268199 -261.710089 
L 376.574011 -262.670409 
L 376.862663 -263.630729 
L 377.134904 -264.591049 
L 381.631971 -264.591049 
L 381.631971 -264.591049 
L 381.904212 -263.630729 
L 382.192864 -262.670409 
L 382.498676 -261.710089 
L 382.822926 -260.749769 
L 383.167446 -259.789448 
L 383.534547 -258.829128 
L 383.926861 -257.868808 
L 384.347051 -256.908488 
L 384.797412 -255.948168 
L 385.279383 -254.987847 
L 385.793011 -254.027527 
L 386.336438 -253.067207 
L 386.905485 -252.106887 
L 387.493425 -251.146567 
L 388.091011 -250.186246 
L 388.686816 -249.225926 
L 389.267891 -248.265606 
L 389.820714 -247.305286 
L 390.332349 -246.344966 
L 390.791695 -245.384646 
L 391.190694 -244.424325 
L 391.525337 -243.464005 
L 391.79635 -242.503685 
L 392.009467 -241.543365 
L 392.175246 -240.583045 
L 392.308453 -239.622724 
L 392.427095 -238.662404 
L 392.551203 -237.702084 
L 392.701536 -236.741764 
L 392.898329 -235.781444 
L 393.160214 -234.821123 
L 393.503406 -233.860803 
L 393.941169 -232.900483 
L 394.483573 -231.940163 
L 395.137447 -230.979843 
L 395.906481 -230.019522 
L 396.791351 -229.059202 
L 397.789817 -228.098882 
L 398.896734 -227.138562 
L 400.103969 -226.178242 
L 401.400274 -225.217922 
L 402.771176 -224.257601 
L 404.198968 -223.297281 
L 405.662911 -222.336961 
L 407.139686 -221.376641 
L 408.60414 -220.416321 
L 410.030303 -219.456 
L 411.392585 -218.49568 
L 412.667057 -217.53536 
L 413.832648 -216.57504 
L 414.87213 -215.61472 
L 415.77274 -214.654399 
L 416.526373 -213.694079 
L 417.129299 -212.733759 
L 417.581462 -211.773439 
L 417.885459 -210.813119 
L 418.045339 -209.852798 
L 418.065438 -208.892478 
L 417.949394 -207.932158 
L 417.699532 -206.971838 
L 417.316689 -206.011518 
L 416.800529 -205.051198 
L 416.150291 -204.090877 
L 415.365846 -203.130557 
L 414.448901 -202.170237 
L 413.404128 -201.209917 
L 412.240048 -200.249597 
L 410.969486 -199.289276 
L 409.609518 -198.328956 
L 408.180876 -197.368636 
L 406.706875 -196.408316 
L 405.211991 -195.447996 
L 403.720263 -194.487675 
L 402.253713 -193.527355 
L 400.830983 -192.567035 
L 399.466327 -191.606715 
L 398.169064 -190.646395 
L 396.943534 -189.686074 
L 395.789506 -188.725754 
L 394.702982 -187.765434 
L 393.677263 -186.805114 
L 392.704142 -185.844794 
L 391.775092 -184.884474 
L 390.882314 -183.924153 
L 390.019568 -182.963833 
L 389.182709 -182.003513 
L 388.369917 -181.043193 
L 387.581632 -180.082873 
L 386.820224 -179.122552 
L 386.089479 -178.162232 
L 385.393972 -177.201912 
L 384.738404 -176.241592 
L 384.126999 -175.281272 
L 383.563002 -174.320951 
L 383.048347 -173.360631 
L 382.583498 -172.400311 
L 382.167472 -171.439991 
L 381.798001 -170.479671 
L 381.471826 -169.51935 
z
" style="stroke: #000000; stroke-opacity: 0.7"/>
    </defs>
    <g clip-path="url(#p6ce5213885)">
     <use xlink:href="#m7010c3bfeb" x="0" y="319.96909" style="fill: #aec7e8; fill-opacity: 0.7; stroke: #000000; stroke-opacity: 0.7"/>
    </g>
   </g>
   <g id="matplotlib.axis_1">
    <g id="xtick_1">
     <g id="line2d_1">
      <defs>
       <path id="ma8c6401ae0" d="M 0 0 
L 0 3.5 
" style="stroke: #000000; stroke-width: 0.8"/>
      </defs>
      <g>
       <use xlink:href="#ma8c6401ae0" x="89.268438" y="231.835773" style="stroke: #000000; stroke-width: 0.8"/>
      </g>
     </g>
     <g id="text_1">
      <!-- Redwood Prep -->
      <g transform="translate(37.253663 294.92746) rotate(-45) scale(0.12 -0.12)">
       <defs>
        <path id="TimesNewRomanPSMT-52" d="M 4325 0 
L 3194 0 
L 1759 1981 
Q 1600 1975 1500 1975 
Q 1459 1975 1412 1976 
Q 1366 1978 1316 1981 
L 1316 750 
Q 1316 350 1403 253 
Q 1522 116 1759 116 
L 1925 116 
L 1925 0 
L 109 0 
L 109 116 
L 269 116 
Q 538 116 653 291 
Q 719 388 719 750 
L 719 3488 
Q 719 3888 631 3984 
Q 509 4122 269 4122 
L 109 4122 
L 109 4238 
L 1653 4238 
Q 2328 4238 2648 4139 
Q 2969 4041 3192 3777 
Q 3416 3513 3416 3147 
Q 3416 2756 3161 2468 
Q 2906 2181 2372 2063 
L 3247 847 
Q 3547 428 3762 290 
Q 3978 153 4325 116 
L 4325 0 
z
M 1316 2178 
Q 1375 2178 1419 2176 
Q 1463 2175 1491 2175 
Q 2097 2175 2405 2437 
Q 2713 2700 2713 3106 
Q 2713 3503 2464 3751 
Q 2216 4000 1806 4000 
Q 1625 4000 1316 3941 
L 1316 2178 
z
" transform="scale(0.015625)"/>
        <path id="TimesNewRomanPSMT-65" d="M 681 1784 
Q 678 1147 991 784 
Q 1303 422 1725 422 
Q 2006 422 2214 576 
Q 2422 731 2563 1106 
L 2659 1044 
Q 2594 616 2278 264 
Q 1963 -88 1488 -88 
Q 972 -88 605 314 
Q 238 716 238 1394 
Q 238 2128 614 2539 
Q 991 2950 1559 2950 
Q 2041 2950 2350 2633 
Q 2659 2316 2659 1784 
L 681 1784 
z
M 681 1966 
L 2006 1966 
Q 1991 2241 1941 2353 
Q 1863 2528 1708 2628 
Q 1553 2728 1384 2728 
Q 1125 2728 920 2526 
Q 716 2325 681 1966 
z
" transform="scale(0.015625)"/>
        <path id="TimesNewRomanPSMT-64" d="M 2222 322 
Q 2013 103 1813 7 
Q 1613 -88 1381 -88 
Q 913 -88 563 304 
Q 213 697 213 1313 
Q 213 1928 600 2439 
Q 988 2950 1597 2950 
Q 1975 2950 2222 2709 
L 2222 3238 
Q 2222 3728 2198 3840 
Q 2175 3953 2125 3993 
Q 2075 4034 2000 4034 
Q 1919 4034 1784 3984 
L 1744 4094 
L 2597 4444 
L 2738 4444 
L 2738 1134 
Q 2738 631 2761 520 
Q 2784 409 2836 365 
Q 2888 322 2956 322 
Q 3041 322 3181 375 
L 3216 266 
L 2366 -88 
L 2222 -88 
L 2222 322 
z
M 2222 541 
L 2222 2016 
Q 2203 2228 2109 2403 
Q 2016 2578 1861 2667 
Q 1706 2756 1559 2756 
Q 1284 2756 1069 2509 
Q 784 2184 784 1559 
Q 784 928 1059 592 
Q 1334 256 1672 256 
Q 1956 256 2222 541 
z
" transform="scale(0.015625)"/>
        <path id="TimesNewRomanPSMT-77" d="M 41 2863 
L 1241 2863 
L 1241 2747 
Q 1075 2734 1023 2687 
Q 972 2641 972 2553 
Q 972 2456 1025 2319 
L 1638 672 
L 2253 2013 
L 2091 2434 
Q 2016 2622 1894 2694 
Q 1825 2738 1638 2747 
L 1638 2863 
L 3000 2863 
L 3000 2747 
Q 2775 2738 2681 2666 
Q 2619 2616 2619 2506 
Q 2619 2444 2644 2378 
L 3294 734 
L 3897 2319 
Q 3959 2488 3959 2588 
Q 3959 2647 3898 2694 
Q 3838 2741 3659 2747 
L 3659 2863 
L 4563 2863 
L 4563 2747 
Q 4291 2706 4163 2378 
L 3206 -88 
L 3078 -88 
L 2363 1741 
L 1528 -88 
L 1413 -88 
L 494 2319 
Q 403 2547 315 2626 
Q 228 2706 41 2747 
L 41 2863 
z
" transform="scale(0.015625)"/>
        <path id="TimesNewRomanPSMT-6f" d="M 1600 2947 
Q 2250 2947 2644 2453 
Q 2978 2031 2978 1484 
Q 2978 1100 2793 706 
Q 2609 313 2286 112 
Q 1963 -88 1566 -88 
Q 919 -88 538 428 
Q 216 863 216 1403 
Q 216 1797 411 2186 
Q 606 2575 925 2761 
Q 1244 2947 1600 2947 
z
M 1503 2744 
Q 1338 2744 1170 2645 
Q 1003 2547 900 2300 
Q 797 2053 797 1666 
Q 797 1041 1045 587 
Q 1294 134 1700 134 
Q 2003 134 2200 384 
Q 2397 634 2397 1244 
Q 2397 2006 2069 2444 
Q 1847 2744 1503 2744 
z
" transform="scale(0.015625)"/>
        <path id="TimesNewRomanPSMT-20" transform="scale(0.015625)"/>
        <path id="TimesNewRomanPSMT-50" d="M 1313 1984 
L 1313 750 
Q 1313 350 1400 253 
Q 1519 116 1759 116 
L 1922 116 
L 1922 0 
L 106 0 
L 106 116 
L 266 116 
Q 534 116 650 291 
Q 713 388 713 750 
L 713 3488 
Q 713 3888 628 3984 
Q 506 4122 266 4122 
L 106 4122 
L 106 4238 
L 1659 4238 
Q 2228 4238 2556 4120 
Q 2884 4003 3109 3725 
Q 3334 3447 3334 3066 
Q 3334 2547 2992 2222 
Q 2650 1897 2025 1897 
Q 1872 1897 1694 1919 
Q 1516 1941 1313 1984 
z
M 1313 2163 
Q 1478 2131 1606 2115 
Q 1734 2100 1825 2100 
Q 2150 2100 2386 2351 
Q 2622 2603 2622 3003 
Q 2622 3278 2509 3514 
Q 2397 3750 2190 3867 
Q 1984 3984 1722 3984 
Q 1563 3984 1313 3925 
L 1313 2163 
z
" transform="scale(0.015625)"/>
        <path id="TimesNewRomanPSMT-72" d="M 1038 2947 
L 1038 2303 
Q 1397 2947 1775 2947 
Q 1947 2947 2059 2842 
Q 2172 2738 2172 2600 
Q 2172 2478 2090 2393 
Q 2009 2309 1897 2309 
Q 1788 2309 1652 2417 
Q 1516 2525 1450 2525 
Q 1394 2525 1328 2463 
Q 1188 2334 1038 2041 
L 1038 669 
Q 1038 431 1097 309 
Q 1138 225 1241 169 
Q 1344 113 1538 113 
L 1538 0 
L 72 0 
L 72 113 
Q 291 113 397 181 
Q 475 231 506 341 
Q 522 394 522 644 
L 522 1753 
Q 522 2253 501 2348 
Q 481 2444 426 2487 
Q 372 2531 291 2531 
Q 194 2531 72 2484 
L 41 2597 
L 906 2947 
L 1038 2947 
z
" transform="scale(0.015625)"/>
        <path id="TimesNewRomanPSMT-70" d="M -6 2578 
L 875 2934 
L 994 2934 
L 994 2266 
Q 1216 2644 1439 2795 
Q 1663 2947 1909 2947 
Q 2341 2947 2628 2609 
Q 2981 2197 2981 1534 
Q 2981 794 2556 309 
Q 2206 -88 1675 -88 
Q 1444 -88 1275 -22 
Q 1150 25 994 166 
L 994 -706 
Q 994 -1000 1030 -1079 
Q 1066 -1159 1155 -1206 
Q 1244 -1253 1478 -1253 
L 1478 -1369 
L -22 -1369 
L -22 -1253 
L 56 -1253 
Q 228 -1256 350 -1188 
Q 409 -1153 442 -1076 
Q 475 -1000 475 -688 
L 475 2019 
Q 475 2297 450 2372 
Q 425 2447 370 2484 
Q 316 2522 222 2522 
Q 147 2522 31 2478 
L -6 2578 
z
M 994 2081 
L 994 1013 
Q 994 666 1022 556 
Q 1066 375 1236 237 
Q 1406 100 1666 100 
Q 1978 100 2172 344 
Q 2425 663 2425 1241 
Q 2425 1897 2138 2250 
Q 1938 2494 1663 2494 
Q 1513 2494 1366 2419 
Q 1253 2363 994 2081 
z
" transform="scale(0.015625)"/>
       </defs>
       <use xlink:href="#TimesNewRomanPSMT-52"/>
       <use xlink:href="#TimesNewRomanPSMT-65" x="66.699219"/>
       <use xlink:href="#TimesNewRomanPSMT-64" x="111.083984"/>
       <use xlink:href="#TimesNewRomanPSMT-77" x="161.083984"/>
       <use xlink:href="#TimesNewRomanPSMT-6f" x="233.300781"/>
       <use xlink:href="#TimesNewRomanPSMT-6f" x="283.300781"/>
       <use xlink:href="#TimesNewRomanPSMT-64" x="333.300781"/>
       <use xlink:href="#TimesNewRomanPSMT-20" x="383.300781"/>
       <use xlink:href="#TimesNewRomanPSMT-50" x="408.300781"/>
       <use xlink:href="#TimesNewRomanPSMT-72" x="463.916016"/>
       <use xlink:href="#TimesNewRomanPSMT-65" x="497.216797"/>
       <use xlink:href="#TimesNewRomanPSMT-70" x="541.601562"/>
      </g>
     </g>
    </g>
    <g id="xtick_2">
     <g id="line2d_2">
      <g>
       <use xlink:href="#ma8c6401ae0" x="185.973438" y="231.835773" style="stroke: #000000; stroke-width: 0.8"/>
      </g>
     </g>
     <g id="text_2">
      <!-- Fairview School -->
      <g transform="translate(128.304018 300.582105) rotate(-45) scale(0.12 -0.12)">
       <defs>
        <path id="TimesNewRomanPSMT-46" d="M 1309 4006 
L 1309 2341 
L 2081 2341 
Q 2347 2341 2470 2458 
Q 2594 2575 2634 2922 
L 2750 2922 
L 2750 1488 
L 2634 1488 
Q 2631 1734 2570 1850 
Q 2509 1966 2401 2023 
Q 2294 2081 2081 2081 
L 1309 2081 
L 1309 750 
Q 1309 428 1350 325 
Q 1381 247 1481 191 
Q 1619 116 1769 116 
L 1922 116 
L 1922 0 
L 103 0 
L 103 116 
L 253 116 
Q 516 116 634 269 
Q 709 369 709 750 
L 709 3488 
Q 709 3809 669 3913 
Q 638 3991 541 4047 
Q 406 4122 253 4122 
L 103 4122 
L 103 4238 
L 3256 4238 
L 3297 3306 
L 3188 3306 
Q 3106 3603 2998 3742 
Q 2891 3881 2733 3943 
Q 2575 4006 2244 4006 
L 1309 4006 
z
" transform="scale(0.015625)"/>
        <path id="TimesNewRomanPSMT-61" d="M 1822 413 
Q 1381 72 1269 19 
Q 1100 -59 909 -59 
Q 613 -59 420 144 
Q 228 347 228 678 
Q 228 888 322 1041 
Q 450 1253 767 1440 
Q 1084 1628 1822 1897 
L 1822 2009 
Q 1822 2438 1686 2597 
Q 1550 2756 1291 2756 
Q 1094 2756 978 2650 
Q 859 2544 859 2406 
L 866 2225 
Q 866 2081 792 2003 
Q 719 1925 600 1925 
Q 484 1925 411 2006 
Q 338 2088 338 2228 
Q 338 2497 613 2722 
Q 888 2947 1384 2947 
Q 1766 2947 2009 2819 
Q 2194 2722 2281 2516 
Q 2338 2381 2338 1966 
L 2338 994 
Q 2338 584 2353 492 
Q 2369 400 2405 369 
Q 2441 338 2488 338 
Q 2538 338 2575 359 
Q 2641 400 2828 588 
L 2828 413 
Q 2478 -56 2159 -56 
Q 2006 -56 1915 50 
Q 1825 156 1822 413 
z
M 1822 616 
L 1822 1706 
Q 1350 1519 1213 1441 
Q 966 1303 859 1153 
Q 753 1003 753 825 
Q 753 600 887 451 
Q 1022 303 1197 303 
Q 1434 303 1822 616 
z
" transform="scale(0.015625)"/>
        <path id="TimesNewRomanPSMT-69" d="M 928 4444 
Q 1059 4444 1151 4351 
Q 1244 4259 1244 4128 
Q 1244 3997 1151 3903 
Q 1059 3809 928 3809 
Q 797 3809 703 3903 
Q 609 3997 609 4128 
Q 609 4259 701 4351 
Q 794 4444 928 4444 
z
M 1188 2947 
L 1188 647 
Q 1188 378 1227 289 
Q 1266 200 1342 156 
Q 1419 113 1622 113 
L 1622 0 
L 231 0 
L 231 113 
Q 441 113 512 153 
Q 584 194 626 287 
Q 669 381 669 647 
L 669 1750 
Q 669 2216 641 2353 
Q 619 2453 572 2492 
Q 525 2531 444 2531 
Q 356 2531 231 2484 
L 188 2597 
L 1050 2947 
L 1188 2947 
z
" transform="scale(0.015625)"/>
        <path id="TimesNewRomanPSMT-76" d="M 53 2863 
L 1400 2863 
L 1400 2747 
L 1313 2747 
Q 1191 2747 1127 2687 
Q 1063 2628 1063 2528 
Q 1063 2419 1128 2269 
L 1794 688 
L 2463 2328 
Q 2534 2503 2534 2594 
Q 2534 2638 2509 2666 
Q 2475 2713 2422 2730 
Q 2369 2747 2206 2747 
L 2206 2863 
L 3141 2863 
L 3141 2747 
Q 2978 2734 2916 2681 
Q 2806 2588 2719 2369 
L 1703 -88 
L 1575 -88 
L 553 2328 
Q 484 2497 421 2570 
Q 359 2644 263 2694 
Q 209 2722 53 2747 
L 53 2863 
z
" transform="scale(0.015625)"/>
        <path id="TimesNewRomanPSMT-53" d="M 2934 4334 
L 2934 2869 
L 2819 2869 
Q 2763 3291 2617 3541 
Q 2472 3791 2203 3937 
Q 1934 4084 1647 4084 
Q 1322 4084 1109 3886 
Q 897 3688 897 3434 
Q 897 3241 1031 3081 
Q 1225 2847 1953 2456 
Q 2547 2138 2764 1967 
Q 2981 1797 3098 1565 
Q 3216 1334 3216 1081 
Q 3216 600 2842 251 
Q 2469 -97 1881 -97 
Q 1697 -97 1534 -69 
Q 1438 -53 1133 45 
Q 828 144 747 144 
Q 669 144 623 97 
Q 578 50 556 -97 
L 441 -97 
L 441 1356 
L 556 1356 
Q 638 900 775 673 
Q 913 447 1195 297 
Q 1478 147 1816 147 
Q 2206 147 2432 353 
Q 2659 559 2659 841 
Q 2659 997 2573 1156 
Q 2488 1316 2306 1453 
Q 2184 1547 1640 1851 
Q 1097 2156 867 2337 
Q 638 2519 519 2737 
Q 400 2956 400 3219 
Q 400 3675 750 4004 
Q 1100 4334 1641 4334 
Q 1978 4334 2356 4169 
Q 2531 4091 2603 4091 
Q 2684 4091 2736 4139 
Q 2788 4188 2819 4334 
L 2934 4334 
z
" transform="scale(0.015625)"/>
        <path id="TimesNewRomanPSMT-63" d="M 2631 1088 
Q 2516 522 2178 217 
Q 1841 -88 1431 -88 
Q 944 -88 581 321 
Q 219 731 219 1428 
Q 219 2103 620 2525 
Q 1022 2947 1584 2947 
Q 2006 2947 2278 2723 
Q 2550 2500 2550 2259 
Q 2550 2141 2473 2067 
Q 2397 1994 2259 1994 
Q 2075 1994 1981 2113 
Q 1928 2178 1911 2362 
Q 1894 2547 1784 2644 
Q 1675 2738 1481 2738 
Q 1169 2738 978 2506 
Q 725 2200 725 1697 
Q 725 1184 976 792 
Q 1228 400 1656 400 
Q 1963 400 2206 609 
Q 2378 753 2541 1131 
L 2631 1088 
z
" transform="scale(0.015625)"/>
        <path id="TimesNewRomanPSMT-68" d="M 1041 4444 
L 1041 2350 
Q 1388 2731 1591 2839 
Q 1794 2947 1997 2947 
Q 2241 2947 2416 2812 
Q 2591 2678 2675 2391 
Q 2734 2191 2734 1659 
L 2734 647 
Q 2734 375 2778 275 
Q 2809 200 2884 156 
Q 2959 113 3159 113 
L 3159 0 
L 1753 0 
L 1753 113 
L 1819 113 
Q 2019 113 2097 173 
Q 2175 234 2206 353 
Q 2216 403 2216 647 
L 2216 1659 
Q 2216 2128 2167 2275 
Q 2119 2422 2012 2495 
Q 1906 2569 1756 2569 
Q 1603 2569 1437 2487 
Q 1272 2406 1041 2159 
L 1041 647 
Q 1041 353 1073 281 
Q 1106 209 1195 161 
Q 1284 113 1503 113 
L 1503 0 
L 84 0 
L 84 113 
Q 275 113 384 172 
Q 447 203 484 290 
Q 522 378 522 647 
L 522 3238 
Q 522 3728 498 3840 
Q 475 3953 426 3993 
Q 378 4034 297 4034 
Q 231 4034 84 3984 
L 41 4094 
L 897 4444 
L 1041 4444 
z
" transform="scale(0.015625)"/>
        <path id="TimesNewRomanPSMT-6c" d="M 1184 4444 
L 1184 647 
Q 1184 378 1223 290 
Q 1263 203 1344 158 
Q 1425 113 1647 113 
L 1647 0 
L 244 0 
L 244 113 
Q 441 113 512 153 
Q 584 194 625 287 
Q 666 381 666 647 
L 666 3247 
Q 666 3731 644 3842 
Q 622 3953 573 3993 
Q 525 4034 450 4034 
Q 369 4034 244 3984 
L 191 4094 
L 1044 4444 
L 1184 4444 
z
" transform="scale(0.015625)"/>
       </defs>
       <use xlink:href="#TimesNewRomanPSMT-46"/>
       <use xlink:href="#TimesNewRomanPSMT-61" x="55.615234"/>
       <use xlink:href="#TimesNewRomanPSMT-69" x="100"/>
       <use xlink:href="#TimesNewRomanPSMT-72" x="127.783203"/>
       <use xlink:href="#TimesNewRomanPSMT-76" x="161.083984"/>
       <use xlink:href="#TimesNewRomanPSMT-69" x="211.083984"/>
       <use xlink:href="#TimesNewRomanPSMT-65" x="238.867188"/>
       <use xlink:href="#TimesNewRomanPSMT-77" x="283.251953"/>
       <use xlink:href="#TimesNewRomanPSMT-20" x="355.46875"/>
       <use xlink:href="#TimesNewRomanPSMT-53" x="380.46875"/>
       <use xlink:href="#TimesNewRomanPSMT-63" x="436.083984"/>
       <use xlink:href="#TimesNewRomanPSMT-68" x="480.46875"/>
       <use xlink:href="#TimesNewRomanPSMT-6f" x="530.46875"/>
       <use xlink:href="#TimesNewRomanPSMT-6f" x="580.46875"/>
       <use xlink:href="#TimesNewRomanPSMT-6c" x="630.46875"/>
      </g>
     </g>
    </g>
    <g id="xtick_3">
     <g id="line2d_3">
      <g>
       <use xlink:href="#ma8c6401ae0" x="282.678438" y="231.835773" style="stroke: #000000; stroke-width: 0.8"/>
      </g>
     </g>
     <g id="text_3">
      <!-- Westport Academy -->
      <g transform="translate(216.254594 309.320619) rotate(-45) scale(0.12 -0.12)">
       <defs>
        <path id="TimesNewRomanPSMT-57" d="M 5991 4238 
L 5991 4122 
Q 5825 4122 5722 4062 
Q 5619 4003 5525 3841 
Q 5463 3731 5328 3319 
L 4147 -97 
L 4022 -97 
L 3056 2613 
L 2097 -97 
L 1984 -97 
L 725 3422 
Q 584 3816 547 3888 
Q 484 4006 376 4064 
Q 269 4122 84 4122 
L 84 4238 
L 1653 4238 
L 1653 4122 
L 1578 4122 
Q 1413 4122 1325 4047 
Q 1238 3972 1238 3866 
Q 1238 3756 1375 3363 
L 2209 984 
L 2913 3006 
L 2788 3363 
L 2688 3647 
Q 2622 3803 2541 3922 
Q 2500 3981 2441 4022 
Q 2363 4078 2284 4103 
Q 2225 4122 2097 4122 
L 2097 4238 
L 3747 4238 
L 3747 4122 
L 3634 4122 
Q 3459 4122 3378 4047 
Q 3297 3972 3297 3844 
Q 3297 3684 3438 3288 
L 4250 984 
L 5056 3319 
Q 5194 3706 5194 3856 
Q 5194 3928 5148 3990 
Q 5103 4053 5034 4078 
Q 4916 4122 4725 4122 
L 4725 4238 
L 5991 4238 
z
" transform="scale(0.015625)"/>
        <path id="TimesNewRomanPSMT-73" d="M 2050 2947 
L 2050 1972 
L 1947 1972 
Q 1828 2431 1642 2597 
Q 1456 2763 1169 2763 
Q 950 2763 815 2647 
Q 681 2531 681 2391 
Q 681 2216 781 2091 
Q 878 1963 1175 1819 
L 1631 1597 
Q 2266 1288 2266 781 
Q 2266 391 1970 151 
Q 1675 -88 1309 -88 
Q 1047 -88 709 6 
Q 606 38 541 38 
Q 469 38 428 -44 
L 325 -44 
L 325 978 
L 428 978 
Q 516 541 762 319 
Q 1009 97 1316 97 
Q 1531 97 1667 223 
Q 1803 350 1803 528 
Q 1803 744 1651 891 
Q 1500 1038 1047 1263 
Q 594 1488 453 1669 
Q 313 1847 313 2119 
Q 313 2472 555 2709 
Q 797 2947 1181 2947 
Q 1350 2947 1591 2875 
Q 1750 2828 1803 2828 
Q 1853 2828 1881 2850 
Q 1909 2872 1947 2947 
L 2050 2947 
z
" transform="scale(0.015625)"/>
        <path id="TimesNewRomanPSMT-74" d="M 1031 3803 
L 1031 2863 
L 1700 2863 
L 1700 2644 
L 1031 2644 
L 1031 788 
Q 1031 509 1111 412 
Q 1191 316 1316 316 
Q 1419 316 1516 380 
Q 1613 444 1666 569 
L 1788 569 
Q 1678 263 1478 108 
Q 1278 -47 1066 -47 
Q 922 -47 784 33 
Q 647 113 581 261 
Q 516 409 516 719 
L 516 2644 
L 63 2644 
L 63 2747 
Q 234 2816 414 2980 
Q 594 3144 734 3369 
Q 806 3488 934 3803 
L 1031 3803 
z
" transform="scale(0.015625)"/>
        <path id="TimesNewRomanPSMT-41" d="M 2928 1419 
L 1288 1419 
L 1000 750 
Q 894 503 894 381 
Q 894 284 986 211 
Q 1078 138 1384 116 
L 1384 0 
L 50 0 
L 50 116 
Q 316 163 394 238 
Q 553 388 747 847 
L 2238 4334 
L 2347 4334 
L 3822 809 
Q 4000 384 4145 257 
Q 4291 131 4550 116 
L 4550 0 
L 2878 0 
L 2878 116 
Q 3131 128 3220 200 
Q 3309 272 3309 375 
Q 3309 513 3184 809 
L 2928 1419 
z
M 2841 1650 
L 2122 3363 
L 1384 1650 
L 2841 1650 
z
" transform="scale(0.015625)"/>
        <path id="TimesNewRomanPSMT-6d" d="M 1050 2338 
Q 1363 2650 1419 2697 
Q 1559 2816 1721 2881 
Q 1884 2947 2044 2947 
Q 2313 2947 2506 2790 
Q 2700 2634 2766 2338 
Q 3088 2713 3309 2830 
Q 3531 2947 3766 2947 
Q 3994 2947 4170 2830 
Q 4347 2713 4450 2447 
Q 4519 2266 4519 1878 
L 4519 647 
Q 4519 378 4559 278 
Q 4591 209 4675 161 
Q 4759 113 4950 113 
L 4950 0 
L 3538 0 
L 3538 113 
L 3597 113 
Q 3781 113 3884 184 
Q 3956 234 3988 344 
Q 4000 397 4000 647 
L 4000 1878 
Q 4000 2228 3916 2372 
Q 3794 2572 3525 2572 
Q 3359 2572 3192 2489 
Q 3025 2406 2788 2181 
L 2781 2147 
L 2788 2013 
L 2788 647 
Q 2788 353 2820 281 
Q 2853 209 2943 161 
Q 3034 113 3253 113 
L 3253 0 
L 1806 0 
L 1806 113 
Q 2044 113 2133 169 
Q 2222 225 2256 338 
Q 2272 391 2272 647 
L 2272 1878 
Q 2272 2228 2169 2381 
Q 2031 2581 1784 2581 
Q 1616 2581 1450 2491 
Q 1191 2353 1050 2181 
L 1050 647 
Q 1050 366 1089 281 
Q 1128 197 1204 155 
Q 1281 113 1516 113 
L 1516 0 
L 100 0 
L 100 113 
Q 297 113 375 155 
Q 453 197 493 289 
Q 534 381 534 647 
L 534 1741 
Q 534 2213 506 2350 
Q 484 2453 437 2492 
Q 391 2531 309 2531 
Q 222 2531 100 2484 
L 53 2597 
L 916 2947 
L 1050 2947 
L 1050 2338 
z
" transform="scale(0.015625)"/>
        <path id="TimesNewRomanPSMT-79" d="M 38 2863 
L 1372 2863 
L 1372 2747 
L 1306 2747 
Q 1166 2747 1095 2686 
Q 1025 2625 1025 2534 
Q 1025 2413 1128 2197 
L 1825 753 
L 2466 2334 
Q 2519 2463 2519 2588 
Q 2519 2644 2497 2672 
Q 2472 2706 2419 2726 
Q 2366 2747 2231 2747 
L 2231 2863 
L 3163 2863 
L 3163 2747 
Q 3047 2734 2984 2696 
Q 2922 2659 2847 2556 
Q 2819 2513 2741 2316 
L 1575 -541 
Q 1406 -956 1132 -1168 
Q 859 -1381 606 -1381 
Q 422 -1381 303 -1275 
Q 184 -1169 184 -1031 
Q 184 -900 270 -820 
Q 356 -741 506 -741 
Q 609 -741 788 -809 
Q 913 -856 944 -856 
Q 1038 -856 1148 -759 
Q 1259 -663 1372 -384 
L 1575 113 
L 547 2272 
Q 500 2369 397 2513 
Q 319 2622 269 2659 
Q 197 2709 38 2747 
L 38 2863 
z
" transform="scale(0.015625)"/>
       </defs>
       <use xlink:href="#TimesNewRomanPSMT-57"/>
       <use xlink:href="#TimesNewRomanPSMT-65" x="86.384766"/>
       <use xlink:href="#TimesNewRomanPSMT-73" x="130.769531"/>
       <use xlink:href="#TimesNewRomanPSMT-74" x="169.685547"/>
       <use xlink:href="#TimesNewRomanPSMT-70" x="197.46875"/>
       <use xlink:href="#TimesNewRomanPSMT-6f" x="247.46875"/>
       <use xlink:href="#TimesNewRomanPSMT-72" x="297.46875"/>
       <use xlink:href="#TimesNewRomanPSMT-74" x="330.769531"/>
       <use xlink:href="#TimesNewRomanPSMT-20" x="358.552734"/>
       <use xlink:href="#TimesNewRomanPSMT-41" x="378.052734"/>
       <use xlink:href="#TimesNewRomanPSMT-63" x="450.269531"/>
       <use xlink:href="#TimesNewRomanPSMT-61" x="494.654297"/>
       <use xlink:href="#TimesNewRomanPSMT-64" x="539.039062"/>
       <use xlink:href="#TimesNewRomanPSMT-65" x="589.039062"/>
       <use xlink:href="#TimesNewRomanPSMT-6d" x="633.423828"/>
       <use xlink:href="#TimesNewRomanPSMT-79" x="711.207031"/>
      </g>
     </g>
    </g>
    <g id="xtick_4">
     <g id="line2d_4">
      <g>
       <use xlink:href="#ma8c6401ae0" x="379.383438" y="231.835773" style="stroke: #000000; stroke-width: 0.8"/>
      </g>
     </g>
     <g id="text_4">
      <!-- Maplewood School -->
      <g transform="translate(311.342087 310.954035) rotate(-45) scale(0.12 -0.12)">
       <defs>
        <path id="TimesNewRomanPSMT-4d" d="M 2619 0 
L 981 3566 
L 981 734 
Q 981 344 1066 247 
Q 1181 116 1431 116 
L 1581 116 
L 1581 0 
L 106 0 
L 106 116 
L 256 116 
Q 525 116 638 278 
Q 706 378 706 734 
L 706 3503 
Q 706 3784 644 3909 
Q 600 4000 483 4061 
Q 366 4122 106 4122 
L 106 4238 
L 1306 4238 
L 2844 922 
L 4356 4238 
L 5556 4238 
L 5556 4122 
L 5409 4122 
Q 5138 4122 5025 3959 
Q 4956 3859 4956 3503 
L 4956 734 
Q 4956 344 5044 247 
Q 5159 116 5409 116 
L 5556 116 
L 5556 0 
L 3756 0 
L 3756 116 
L 3906 116 
Q 4178 116 4288 278 
Q 4356 378 4356 734 
L 4356 3566 
L 2722 0 
L 2619 0 
z
" transform="scale(0.015625)"/>
       </defs>
       <use xlink:href="#TimesNewRomanPSMT-4d"/>
       <use xlink:href="#TimesNewRomanPSMT-61" x="88.916016"/>
       <use xlink:href="#TimesNewRomanPSMT-70" x="133.300781"/>
       <use xlink:href="#TimesNewRomanPSMT-6c" x="183.300781"/>
       <use xlink:href="#TimesNewRomanPSMT-65" x="211.083984"/>
       <use xlink:href="#TimesNewRomanPSMT-77" x="255.46875"/>
       <use xlink:href="#TimesNewRomanPSMT-6f" x="327.685547"/>
       <use xlink:href="#TimesNewRomanPSMT-6f" x="377.685547"/>
       <use xlink:href="#TimesNewRomanPSMT-64" x="427.685547"/>
       <use xlink:href="#TimesNewRomanPSMT-20" x="477.685547"/>
       <use xlink:href="#TimesNewRomanPSMT-53" x="502.685547"/>
       <use xlink:href="#TimesNewRomanPSMT-63" x="558.300781"/>
       <use xlink:href="#TimesNewRomanPSMT-68" x="602.685547"/>
       <use xlink:href="#TimesNewRomanPSMT-6f" x="652.685547"/>
       <use xlink:href="#TimesNewRomanPSMT-6f" x="702.685547"/>
       <use xlink:href="#TimesNewRomanPSMT-6c" x="752.685547"/>
      </g>
     </g>
    </g>
   </g>
   <g id="matplotlib.axis_2">
    <g id="ytick_1">
     <g id="line2d_5">
      <defs>
       <path id="mc9d8eb2221" d="M 0 0 
L -3.5 0 
" style="stroke: #000000; stroke-width: 0.8"/>
      </defs>
      <g>
       <use xlink:href="#mc9d8eb2221" x="40.915938" y="202.426151" style="stroke: #000000; stroke-width: 0.8"/>
      </g>
     </g>
     <g id="text_5">
      <!-- 70 -->
      <g transform="translate(23.915938 205.898026) scale(0.1 -0.1)">
       <defs>
        <path id="TimesNewRomanPSMT-37" d="M 644 4238 
L 2916 4238 
L 2916 4119 
L 1503 -88 
L 1153 -88 
L 2419 3728 
L 1253 3728 
Q 900 3728 750 3644 
Q 488 3500 328 3200 
L 238 3234 
L 644 4238 
z
" transform="scale(0.015625)"/>
        <path id="TimesNewRomanPSMT-30" d="M 231 2094 
Q 231 2819 450 3342 
Q 669 3866 1031 4122 
Q 1313 4325 1613 4325 
Q 2100 4325 2488 3828 
Q 2972 3213 2972 2159 
Q 2972 1422 2759 906 
Q 2547 391 2217 158 
Q 1888 -75 1581 -75 
Q 975 -75 572 641 
Q 231 1244 231 2094 
z
M 844 2016 
Q 844 1141 1059 588 
Q 1238 122 1591 122 
Q 1759 122 1940 273 
Q 2122 425 2216 781 
Q 2359 1319 2359 2297 
Q 2359 3022 2209 3506 
Q 2097 3866 1919 4016 
Q 1791 4119 1609 4119 
Q 1397 4119 1231 3928 
Q 1006 3669 925 3112 
Q 844 2556 844 2016 
z
" transform="scale(0.015625)"/>
       </defs>
       <use xlink:href="#TimesNewRomanPSMT-37"/>
       <use xlink:href="#TimesNewRomanPSMT-30" x="50"/>
      </g>
     </g>
    </g>
    <g id="ytick_2">
     <g id="line2d_6">
      <g>
       <use xlink:href="#mc9d8eb2221" x="40.915938" y="166.028104" style="stroke: #000000; stroke-width: 0.8"/>
      </g>
     </g>
     <g id="text_6">
      <!-- 75 -->
      <g transform="translate(23.915938 169.499979) scale(0.1 -0.1)">
       <defs>
        <path id="TimesNewRomanPSMT-35" d="M 2778 4238 
L 2534 3706 
L 1259 3706 
L 981 3138 
Q 1809 3016 2294 2522 
Q 2709 2097 2709 1522 
Q 2709 1188 2573 903 
Q 2438 619 2231 419 
Q 2025 219 1772 97 
Q 1413 -75 1034 -75 
Q 653 -75 479 54 
Q 306 184 306 341 
Q 306 428 378 495 
Q 450 563 559 563 
Q 641 563 702 538 
Q 763 513 909 409 
Q 1144 247 1384 247 
Q 1750 247 2026 523 
Q 2303 800 2303 1197 
Q 2303 1581 2056 1914 
Q 1809 2247 1375 2428 
Q 1034 2569 447 2591 
L 1259 4238 
L 2778 4238 
z
" transform="scale(0.015625)"/>
       </defs>
       <use xlink:href="#TimesNewRomanPSMT-37"/>
       <use xlink:href="#TimesNewRomanPSMT-35" x="50"/>
      </g>
     </g>
    </g>
    <g id="ytick_3">
     <g id="line2d_7">
      <g>
       <use xlink:href="#mc9d8eb2221" x="40.915938" y="129.630057" style="stroke: #000000; stroke-width: 0.8"/>
      </g>
     </g>
     <g id="text_7">
      <!-- 80 -->
      <g transform="translate(23.915938 133.101932) scale(0.1 -0.1)">
       <defs>
        <path id="TimesNewRomanPSMT-38" d="M 1228 2134 
Q 725 2547 579 2797 
Q 434 3047 434 3316 
Q 434 3728 753 4026 
Q 1072 4325 1600 4325 
Q 2113 4325 2425 4047 
Q 2738 3769 2738 3413 
Q 2738 3175 2569 2928 
Q 2400 2681 1866 2347 
Q 2416 1922 2594 1678 
Q 2831 1359 2831 1006 
Q 2831 559 2490 242 
Q 2150 -75 1597 -75 
Q 994 -75 656 303 
Q 388 606 388 966 
Q 388 1247 577 1523 
Q 766 1800 1228 2134 
z
M 1719 2469 
Q 2094 2806 2194 3001 
Q 2294 3197 2294 3444 
Q 2294 3772 2109 3958 
Q 1925 4144 1606 4144 
Q 1288 4144 1088 3959 
Q 888 3775 888 3528 
Q 888 3366 970 3203 
Q 1053 3041 1206 2894 
L 1719 2469 
z
M 1375 2016 
Q 1116 1797 991 1539 
Q 866 1281 866 981 
Q 866 578 1086 336 
Q 1306 94 1647 94 
Q 1984 94 2187 284 
Q 2391 475 2391 747 
Q 2391 972 2272 1150 
Q 2050 1481 1375 2016 
z
" transform="scale(0.015625)"/>
       </defs>
       <use xlink:href="#TimesNewRomanPSMT-38"/>
       <use xlink:href="#TimesNewRomanPSMT-30" x="50"/>
      </g>
     </g>
    </g>
    <g id="ytick_4">
     <g id="line2d_8">
      <g>
       <use xlink:href="#mc9d8eb2221" x="40.915938" y="93.23201" style="stroke: #000000; stroke-width: 0.8"/>
      </g>
     </g>
     <g id="text_8">
      <!-- 85 -->
      <g transform="translate(23.915938 96.703885) scale(0.1 -0.1)">
       <use xlink:href="#TimesNewRomanPSMT-38"/>
       <use xlink:href="#TimesNewRomanPSMT-35" x="50"/>
      </g>
     </g>
    </g>
    <g id="ytick_5">
     <g id="line2d_9">
      <g>
       <use xlink:href="#mc9d8eb2221" x="40.915938" y="56.833963" style="stroke: #000000; stroke-width: 0.8"/>
      </g>
     </g>
     <g id="text_9">
      <!-- 90 -->
      <g transform="translate(23.915938 60.305838) scale(0.1 -0.1)">
       <defs>
        <path id="TimesNewRomanPSMT-39" d="M 338 -88 
L 338 28 
Q 744 34 1094 217 
Q 1444 400 1770 856 
Q 2097 1313 2225 1859 
Q 1734 1544 1338 1544 
Q 891 1544 572 1889 
Q 253 2234 253 2806 
Q 253 3363 572 3797 
Q 956 4325 1575 4325 
Q 2097 4325 2469 3894 
Q 2925 3359 2925 2575 
Q 2925 1869 2578 1258 
Q 2231 647 1613 244 
Q 1109 -88 516 -88 
L 338 -88 
z
M 2275 2091 
Q 2331 2497 2331 2741 
Q 2331 3044 2228 3395 
Q 2125 3747 1936 3934 
Q 1747 4122 1506 4122 
Q 1228 4122 1018 3872 
Q 809 3622 809 3128 
Q 809 2469 1088 2097 
Q 1291 1828 1588 1828 
Q 1731 1828 1928 1897 
Q 2125 1966 2275 2091 
z
" transform="scale(0.015625)"/>
       </defs>
       <use xlink:href="#TimesNewRomanPSMT-39"/>
       <use xlink:href="#TimesNewRomanPSMT-30" x="50"/>
      </g>
     </g>
    </g>
    <g id="text_10">
     <!-- % -->
     <g transform="translate(16.92125 136.771168) rotate(-90) scale(0.14 -0.14)">
      <defs>
       <path id="TimesNewRomanPSMT-25" d="M 4350 4334 
L 1263 -175 
L 984 -175 
L 4072 4334 
L 4350 4334 
z
M 1138 4334 
Q 1559 4334 1792 3984 
Q 2025 3634 2025 3181 
Q 2025 2638 1762 2341 
Q 1500 2044 1131 2044 
Q 884 2044 678 2180 
Q 472 2316 348 2584 
Q 225 2853 225 3181 
Q 225 3509 350 3786 
Q 475 4063 692 4198 
Q 909 4334 1138 4334 
z
M 1128 4159 
Q 969 4159 845 3971 
Q 722 3784 722 3184 
Q 722 2750 791 2522 
Q 844 2350 956 2256 
Q 1022 2200 1119 2200 
Q 1269 2200 1375 2363 
Q 1531 2603 1531 3166 
Q 1531 3759 1378 4000 
Q 1278 4159 1128 4159 
z
M 4206 2103 
Q 4428 2103 4648 1962 
Q 4869 1822 4989 1553 
Q 5109 1284 5109 963 
Q 5109 409 4843 117 
Q 4578 -175 4216 -175 
Q 3988 -175 3773 -34 
Q 3559 106 3436 367 
Q 3313 628 3313 963 
Q 3313 1291 3436 1562 
Q 3559 1834 3773 1968 
Q 3988 2103 4206 2103 
z
M 4209 1938 
Q 4059 1938 3950 1769 
Q 3809 1550 3809 941 
Q 3809 381 3953 159 
Q 4059 0 4209 0 
Q 4353 0 4466 172 
Q 4616 400 4616 956 
Q 4616 1544 4466 1778 
Q 4363 1938 4209 1938 
z
" transform="scale(0.015625)"/>
      </defs>
      <use xlink:href="#TimesNewRomanPSMT-25"/>
     </g>
    </g>
   </g>
   <g id="patch_3">
    <path d="M 83.466138 117.709696 
L 95.070738 117.709696 
L 95.070738 85.9524 
L 83.466138 85.9524 
L 83.466138 117.709696 
L 83.466138 117.709696 
z
" clip-path="url(#p6ce5213885)" style="fill: none; stroke: #000000; stroke-linejoin: miter"/>
   </g>
   <g id="line2d_10">
    <path d="M 89.268438 117.709696 
L 89.268438 162.315503 
" clip-path="url(#p6ce5213885)" style="fill: none; stroke: #000000; stroke-linecap: square"/>
   </g>
   <g id="line2d_11">
    <path d="M 89.268438 85.9524 
L 89.268438 54.067711 
" clip-path="url(#p6ce5213885)" style="fill: none; stroke: #000000; stroke-linecap: square"/>
   </g>
   <g id="line2d_12">
    <path d="M 86.367288 162.315503 
L 92.169588 162.315503 
" clip-path="url(#p6ce5213885)" style="fill: none; stroke: #000000; stroke-linecap: square"/>
   </g>
   <g id="line2d_13">
    <path d="M 86.367288 54.067711 
L 92.169588 54.067711 
" clip-path="url(#p6ce5213885)" style="fill: none; stroke: #000000; stroke-linecap: square"/>
   </g>
   <g id="patch_4">
    <path d="M 180.171138 132.105124 
L 191.775738 132.105124 
L 191.775738 98.473328 
L 180.171138 98.473328 
L 180.171138 132.105124 
L 180.171138 132.105124 
z
" clip-path="url(#p6ce5213885)" style="fill: none; stroke: #000000; stroke-linejoin: miter"/>
   </g>
   <g id="line2d_14">
    <path d="M 185.973438 132.105124 
L 185.973438 176.801926 
" clip-path="url(#p6ce5213885)" style="fill: none; stroke: #000000; stroke-linecap: square"/>
   </g>
   <g id="line2d_15">
    <path d="M 185.973438 98.473328 
L 185.973438 54.795672 
" clip-path="url(#p6ce5213885)" style="fill: none; stroke: #000000; stroke-linecap: square"/>
   </g>
   <g id="line2d_16">
    <path d="M 183.072288 176.801926 
L 188.874587 176.801926 
" clip-path="url(#p6ce5213885)" style="fill: none; stroke: #000000; stroke-linecap: square"/>
   </g>
   <g id="line2d_17">
    <path d="M 183.072288 54.795672 
L 188.874587 54.795672 
" clip-path="url(#p6ce5213885)" style="fill: none; stroke: #000000; stroke-linecap: square"/>
   </g>
   <g id="patch_5">
    <path d="M 276.876138 145.863586 
L 288.480738 145.863586 
L 288.480738 101.658158 
L 276.876138 101.658158 
L 276.876138 145.863586 
L 276.876138 145.863586 
z
" clip-path="url(#p6ce5213885)" style="fill: none; stroke: #000000; stroke-linejoin: miter"/>
   </g>
   <g id="line2d_18">
    <path d="M 282.678438 145.863586 
L 282.678438 197.03924 
" clip-path="url(#p6ce5213885)" style="fill: none; stroke: #000000; stroke-linecap: square"/>
   </g>
   <g id="line2d_19">
    <path d="M 282.678438 101.658158 
L 282.678438 39.217308 
" clip-path="url(#p6ce5213885)" style="fill: none; stroke: #000000; stroke-linecap: square"/>
   </g>
   <g id="line2d_20">
    <path d="M 279.777288 197.03924 
L 285.579588 197.03924 
" clip-path="url(#p6ce5213885)" style="fill: none; stroke: #000000; stroke-linecap: square"/>
   </g>
   <g id="line2d_21">
    <path d="M 279.777288 39.217308 
L 285.579588 39.217308 
" clip-path="url(#p6ce5213885)" style="fill: none; stroke: #000000; stroke-linecap: square"/>
   </g>
   <g id="patch_6">
    <path d="M 373.581138 119.256613 
L 385.185738 119.256613 
L 385.185738 96.635227 
L 373.581138 96.635227 
L 373.581138 119.256613 
L 373.581138 119.256613 
z
" clip-path="url(#p6ce5213885)" style="fill: none; stroke: #000000; stroke-linejoin: miter"/>
   </g>
   <g id="line2d_22">
    <path d="M 379.383438 119.256613 
L 379.383438 150.44974 
" clip-path="url(#p6ce5213885)" style="fill: none; stroke: #000000; stroke-linecap: square"/>
   </g>
   <g id="line2d_23">
    <path d="M 379.383438 96.635227 
L 379.383438 63.676795 
" clip-path="url(#p6ce5213885)" style="fill: none; stroke: #000000; stroke-linecap: square"/>
   </g>
   <g id="line2d_24">
    <path d="M 376.482288 150.44974 
L 382.284588 150.44974 
" clip-path="url(#p6ce5213885)" style="fill: none; stroke: #000000; stroke-linecap: square"/>
   </g>
   <g id="line2d_25">
    <path d="M 376.482288 63.676795 
L 382.284588 63.676795 
" clip-path="url(#p6ce5213885)" style="fill: none; stroke: #000000; stroke-linecap: square"/>
   </g>
   <g id="line2d_26">
    <path d="M 83.466138 102.513512 
L 95.070738 102.513512 
" clip-path="url(#p6ce5213885)" style="fill: none; stroke: #000000; stroke-width: 1.5; stroke-linecap: square"/>
   </g>
   <g id="line2d_27">
    <path d="M 180.171138 113.178139 
L 191.775738 113.178139 
" clip-path="url(#p6ce5213885)" style="fill: none; stroke: #000000; stroke-width: 1.5; stroke-linecap: square"/>
   </g>
   <g id="line2d_28">
    <path d="M 276.876138 128.174135 
L 288.480738 128.174135 
" clip-path="url(#p6ce5213885)" style="fill: none; stroke: #000000; stroke-width: 1.5; stroke-linecap: square"/>
   </g>
   <g id="line2d_29">
    <path d="M 373.581138 108.009617 
L 385.185738 108.009617 
" clip-path="url(#p6ce5213885)" style="fill: none; stroke: #000000; stroke-width: 1.5; stroke-linecap: square"/>
   </g>
   <g id="patch_7">
    <path d="M 40.915938 231.835773 
L 40.915938 30.045 
" style="fill: none; stroke: #000000; stroke-linejoin: miter; stroke-linecap: square"/>
   </g>
   <g id="patch_8">
    <path d="M 427.735938 231.835773 
L 427.735938 30.045 
" style="fill: none; stroke: #000000; stroke-linejoin: miter; stroke-linecap: square"/>
   </g>
   <g id="patch_9">
    <path d="M 40.915938 231.835773 
L 427.735938 231.835773 
" style="fill: none; stroke: #000000; stroke-linejoin: miter; stroke-linecap: square"/>
   </g>
   <g id="patch_10">
    <path d="M 40.915938 30.045 
L 427.735938 30.045 
" style="fill: none; stroke: #000000; stroke-linejoin: miter; stroke-linecap: square"/>
   </g>
   <g id="text_11">
    <!-- Data on employment rates in different schools (%) -->
    <g transform="translate(62.268438 18.045) scale(0.16 -0.16)">
     <defs>
      <path id="TimesNewRomanPS-BoldMT-44" d="M 84 0 
L 84 116 
L 225 116 
Q 409 116 507 173 
Q 606 231 653 331 
Q 681 397 681 725 
L 681 3513 
Q 681 3838 647 3919 
Q 613 4000 508 4061 
Q 403 4122 225 4122 
L 84 4122 
L 84 4238 
L 1981 4238 
Q 2741 4238 3203 4031 
Q 3769 3778 4061 3265 
Q 4353 2753 4353 2106 
Q 4353 1659 4209 1282 
Q 4066 906 3837 661 
Q 3609 416 3311 267 
Q 3013 119 2581 38 
Q 2391 0 1981 0 
L 84 0 
z
M 1700 3997 
L 1700 691 
Q 1700 428 1725 368 
Q 1750 309 1809 278 
Q 1894 231 2053 231 
Q 2575 231 2850 588 
Q 3225 1069 3225 2081 
Q 3225 2897 2969 3384 
Q 2766 3766 2447 3903 
Q 2222 4000 1700 3997 
z
" transform="scale(0.015625)"/>
      <path id="TimesNewRomanPS-BoldMT-61" d="M 1828 431 
Q 1294 -41 869 -41 
Q 619 -41 453 123 
Q 288 288 288 534 
Q 288 869 575 1136 
Q 863 1403 1828 1847 
L 1828 2141 
Q 1828 2472 1792 2558 
Q 1756 2644 1656 2708 
Q 1556 2772 1431 2772 
Q 1228 2772 1097 2681 
Q 1016 2625 1016 2550 
Q 1016 2484 1103 2388 
Q 1222 2253 1222 2128 
Q 1222 1975 1108 1867 
Q 994 1759 809 1759 
Q 613 1759 480 1878 
Q 347 1997 347 2156 
Q 347 2381 525 2586 
Q 703 2791 1022 2900 
Q 1341 3009 1684 3009 
Q 2100 3009 2342 2832 
Q 2584 2656 2656 2450 
Q 2700 2319 2700 1847 
L 2700 713 
Q 2700 513 2715 461 
Q 2731 409 2762 384 
Q 2794 359 2834 359 
Q 2916 359 3000 475 
L 3094 400 
Q 2938 169 2770 64 
Q 2603 -41 2391 -41 
Q 2141 -41 2000 76 
Q 1859 194 1828 431 
z
M 1828 659 
L 1828 1638 
Q 1450 1416 1266 1163 
Q 1144 994 1144 822 
Q 1144 678 1247 569 
Q 1325 484 1466 484 
Q 1622 484 1828 659 
z
" transform="scale(0.015625)"/>
      <path id="TimesNewRomanPS-BoldMT-74" d="M 1375 3991 
L 1375 2922 
L 2069 2922 
L 2069 2613 
L 1375 2613 
L 1375 809 
Q 1375 556 1398 482 
Q 1422 409 1481 364 
Q 1541 319 1591 319 
Q 1794 319 1975 628 
L 2069 559 
Q 1816 -41 1247 -41 
Q 969 -41 776 114 
Q 584 269 531 459 
Q 500 566 500 1034 
L 500 2613 
L 119 2613 
L 119 2722 
Q 513 3000 789 3306 
Q 1066 3613 1272 3991 
L 1375 3991 
z
" transform="scale(0.015625)"/>
      <path id="TimesNewRomanPS-BoldMT-20" transform="scale(0.015625)"/>
      <path id="TimesNewRomanPS-BoldMT-6f" d="M 1594 3009 
Q 1975 3009 2303 2812 
Q 2631 2616 2801 2253 
Q 2972 1891 2972 1459 
Q 2972 838 2656 419 
Q 2275 -88 1603 -88 
Q 944 -88 587 375 
Q 231 838 231 1447 
Q 231 2075 595 2542 
Q 959 3009 1594 3009 
z
M 1606 2788 
Q 1447 2788 1333 2667 
Q 1219 2547 1183 2192 
Q 1147 1838 1147 1206 
Q 1147 872 1191 581 
Q 1225 359 1337 243 
Q 1450 128 1594 128 
Q 1734 128 1828 206 
Q 1950 313 1991 503 
Q 2053 800 2053 1703 
Q 2053 2234 1993 2432 
Q 1934 2631 1819 2722 
Q 1738 2788 1606 2788 
z
" transform="scale(0.015625)"/>
      <path id="TimesNewRomanPS-BoldMT-6e" d="M 1409 2922 
L 1409 2544 
Q 1634 2788 1840 2898 
Q 2047 3009 2284 3009 
Q 2569 3009 2756 2851 
Q 2944 2694 3006 2459 
Q 3056 2281 3056 1775 
L 3056 638 
Q 3056 300 3117 217 
Q 3178 134 3372 113 
L 3372 0 
L 1894 0 
L 1894 113 
Q 2059 134 2131 250 
Q 2181 328 2181 638 
L 2181 1938 
Q 2181 2297 2153 2390 
Q 2125 2484 2058 2536 
Q 1991 2588 1909 2588 
Q 1641 2588 1409 2203 
L 1409 638 
Q 1409 309 1470 221 
Q 1531 134 1697 113 
L 1697 0 
L 219 0 
L 219 113 
Q 403 131 481 231 
Q 534 300 534 638 
L 534 2288 
Q 534 2619 473 2700 
Q 413 2781 219 2806 
L 219 2922 
L 1409 2922 
z
" transform="scale(0.015625)"/>
      <path id="TimesNewRomanPS-BoldMT-65" d="M 2691 1566 
L 1088 1566 
Q 1116 984 1397 647 
Q 1613 388 1916 388 
Q 2103 388 2256 492 
Q 2409 597 2584 869 
L 2691 800 
Q 2453 316 2165 114 
Q 1878 -88 1500 -88 
Q 850 -88 516 413 
Q 247 816 247 1413 
Q 247 2144 642 2576 
Q 1038 3009 1569 3009 
Q 2013 3009 2339 2645 
Q 2666 2281 2691 1566 
z
M 1922 1775 
Q 1922 2278 1867 2465 
Q 1813 2653 1697 2750 
Q 1631 2806 1522 2806 
Q 1359 2806 1256 2647 
Q 1072 2369 1072 1884 
L 1072 1775 
L 1922 1775 
z
" transform="scale(0.015625)"/>
      <path id="TimesNewRomanPS-BoldMT-6d" d="M 1428 2922 
L 1428 2538 
Q 1669 2800 1873 2904 
Q 2078 3009 2322 3009 
Q 2603 3009 2793 2878 
Q 2984 2747 3088 2478 
Q 3338 2759 3567 2884 
Q 3797 3009 4047 3009 
Q 4350 3009 4529 2870 
Q 4709 2731 4779 2517 
Q 4850 2303 4850 1834 
L 4850 638 
Q 4850 300 4911 219 
Q 4972 138 5166 113 
L 5166 0 
L 3656 0 
L 3656 113 
Q 3834 128 3919 250 
Q 3975 334 3975 638 
L 3975 1894 
Q 3975 2284 3944 2390 
Q 3913 2497 3845 2548 
Q 3778 2600 3688 2600 
Q 3553 2600 3415 2501 
Q 3278 2403 3138 2206 
L 3138 638 
Q 3138 322 3191 241 
Q 3263 125 3466 113 
L 3466 0 
L 1953 0 
L 1953 113 
Q 2075 119 2145 173 
Q 2216 228 2239 304 
Q 2263 381 2263 638 
L 2263 1894 
Q 2263 2291 2231 2391 
Q 2200 2491 2126 2547 
Q 2053 2603 1969 2603 
Q 1844 2603 1741 2538 
Q 1594 2441 1428 2206 
L 1428 638 
Q 1428 328 1489 229 
Q 1550 131 1744 113 
L 1744 0 
L 238 0 
L 238 113 
Q 422 131 500 231 
Q 553 300 553 638 
L 553 2288 
Q 553 2619 492 2700 
Q 431 2781 238 2806 
L 238 2922 
L 1428 2922 
z
" transform="scale(0.015625)"/>
      <path id="TimesNewRomanPS-BoldMT-70" d="M 1347 297 
L 1347 -791 
Q 1347 -1016 1383 -1097 
Q 1419 -1178 1494 -1215 
Q 1569 -1253 1788 -1253 
L 1788 -1369 
L 122 -1369 
L 122 -1253 
Q 316 -1247 409 -1144 
Q 472 -1072 472 -772 
L 472 2313 
Q 472 2622 400 2708 
Q 328 2794 122 2806 
L 122 2922 
L 1347 2922 
L 1347 2538 
Q 1500 2763 1659 2863 
Q 1888 3009 2156 3009 
Q 2478 3009 2742 2806 
Q 3006 2603 3143 2245 
Q 3281 1888 3281 1475 
Q 3281 1031 3139 664 
Q 2997 297 2726 104 
Q 2456 -88 2125 -88 
Q 1884 -88 1675 19 
Q 1519 100 1347 297 
z
M 1347 613 
Q 1616 231 1922 231 
Q 2091 231 2200 409 
Q 2363 672 2363 1409 
Q 2363 2166 2184 2444 
Q 2066 2628 1866 2628 
Q 1550 2628 1347 2172 
L 1347 613 
z
" transform="scale(0.015625)"/>
      <path id="TimesNewRomanPS-BoldMT-6c" d="M 1359 4238 
L 1359 606 
Q 1359 297 1431 211 
Q 1503 125 1713 113 
L 1713 0 
L 134 0 
L 134 113 
Q 328 119 422 225 
Q 484 297 484 606 
L 484 3631 
Q 484 3938 412 4023 
Q 341 4109 134 4122 
L 134 4238 
L 1359 4238 
z
" transform="scale(0.015625)"/>
      <path id="TimesNewRomanPS-BoldMT-79" d="M 1556 -119 
L 613 2047 
Q 400 2538 298 2650 
Q 197 2763 53 2806 
L 53 2922 
L 1606 2922 
L 1606 2806 
Q 1453 2800 1390 2747 
Q 1328 2694 1328 2619 
Q 1328 2500 1484 2150 
L 1984 1006 
L 2325 1891 
Q 2509 2363 2509 2547 
Q 2509 2663 2432 2731 
Q 2356 2800 2163 2806 
L 2163 2922 
L 3141 2922 
L 3141 2806 
Q 2997 2791 2906 2695 
Q 2816 2600 2603 2047 
L 1769 -119 
Q 1453 -931 1300 -1119 
Q 1084 -1381 759 -1381 
Q 500 -1381 339 -1232 
Q 178 -1084 178 -875 
Q 178 -694 289 -575 
Q 400 -456 563 -456 
Q 719 -456 814 -556 
Q 909 -656 913 -866 
Q 916 -984 941 -1019 
Q 966 -1053 1013 -1053 
Q 1088 -1053 1172 -963 
Q 1297 -831 1466 -363 
L 1556 -119 
z
" transform="scale(0.015625)"/>
      <path id="TimesNewRomanPS-BoldMT-72" d="M 1428 2922 
L 1428 2259 
Q 1719 2713 1937 2861 
Q 2156 3009 2359 3009 
Q 2534 3009 2639 2901 
Q 2744 2794 2744 2597 
Q 2744 2388 2642 2272 
Q 2541 2156 2397 2156 
Q 2231 2156 2109 2262 
Q 1988 2369 1966 2381 
Q 1934 2400 1894 2400 
Q 1803 2400 1722 2331 
Q 1594 2225 1528 2028 
Q 1428 1725 1428 1359 
L 1428 688 
L 1431 513 
Q 1431 334 1453 284 
Q 1491 200 1564 161 
Q 1638 122 1813 113 
L 1813 0 
L 234 0 
L 234 113 
Q 425 128 492 217 
Q 559 306 559 688 
L 559 2303 
Q 559 2553 534 2622 
Q 503 2709 443 2750 
Q 384 2791 234 2806 
L 234 2922 
L 1428 2922 
z
" transform="scale(0.015625)"/>
      <path id="TimesNewRomanPS-BoldMT-73" d="M 2063 3003 
L 2109 2006 
L 2003 2006 
Q 1813 2450 1608 2612 
Q 1403 2775 1200 2775 
Q 1072 2775 981 2689 
Q 891 2603 891 2491 
Q 891 2406 953 2328 
Q 1053 2200 1512 1889 
Q 1972 1578 2117 1361 
Q 2263 1144 2263 875 
Q 2263 631 2141 397 
Q 2019 163 1797 37 
Q 1575 -88 1306 -88 
Q 1097 -88 747 44 
Q 653 78 619 78 
Q 516 78 447 -78 
L 344 -78 
L 294 972 
L 400 972 
Q 541 559 786 353 
Q 1031 147 1250 147 
Q 1400 147 1495 239 
Q 1591 331 1591 463 
Q 1591 613 1497 722 
Q 1403 831 1078 1053 
Q 600 1384 459 1559 
Q 253 1816 253 2125 
Q 253 2463 486 2736 
Q 719 3009 1159 3009 
Q 1397 3009 1619 2894 
Q 1703 2847 1756 2847 
Q 1813 2847 1847 2870 
Q 1881 2894 1956 3003 
L 2063 3003 
z
" transform="scale(0.015625)"/>
      <path id="TimesNewRomanPS-BoldMT-69" d="M 919 4338 
Q 1122 4338 1262 4195 
Q 1403 4053 1403 3853 
Q 1403 3653 1261 3512 
Q 1119 3372 919 3372 
Q 719 3372 578 3512 
Q 438 3653 438 3853 
Q 438 4053 578 4195 
Q 719 4338 919 4338 
z
M 1356 2922 
L 1356 606 
Q 1356 297 1428 211 
Q 1500 125 1709 113 
L 1709 0 
L 131 0 
L 131 113 
Q 325 119 419 225 
Q 481 297 481 606 
L 481 2313 
Q 481 2622 409 2708 
Q 338 2794 131 2806 
L 131 2922 
L 1356 2922 
z
" transform="scale(0.015625)"/>
      <path id="TimesNewRomanPS-BoldMT-64" d="M 3056 4238 
L 3056 875 
Q 3056 534 3075 472 
Q 3100 369 3170 319 
Q 3241 269 3416 256 
L 3416 153 
L 2181 -88 
L 2181 375 
Q 1959 106 1786 9 
Q 1613 -88 1394 -88 
Q 834 -88 509 413 
Q 247 819 247 1409 
Q 247 1881 409 2254 
Q 572 2628 855 2818 
Q 1138 3009 1463 3009 
Q 1672 3009 1834 2928 
Q 1997 2847 2181 2644 
L 2181 3525 
Q 2181 3859 2153 3928 
Q 2116 4019 2041 4062 
Q 1966 4106 1759 4106 
L 1759 4238 
L 3056 4238 
z
M 2181 2256 
Q 1950 2700 1616 2700 
Q 1500 2700 1425 2638 
Q 1309 2541 1236 2297 
Q 1163 2053 1163 1550 
Q 1163 997 1244 731 
Q 1325 466 1466 347 
Q 1538 288 1663 288 
Q 1938 288 2181 719 
L 2181 2256 
z
" transform="scale(0.015625)"/>
      <path id="TimesNewRomanPS-BoldMT-66" d="M 1497 2616 
L 1497 588 
Q 1497 294 1559 219 
Q 1659 103 1928 113 
L 1928 0 
L 206 0 
L 206 113 
Q 403 116 486 158 
Q 569 200 600 275 
Q 631 350 631 588 
L 631 2616 
L 206 2616 
L 206 2922 
L 631 2922 
L 631 3138 
L 628 3284 
Q 628 3734 958 4034 
Q 1288 4334 1850 4334 
Q 2234 4334 2420 4190 
Q 2606 4047 2606 3872 
Q 2606 3731 2490 3628 
Q 2375 3525 2184 3525 
Q 2022 3525 1926 3609 
Q 1831 3694 1831 3797 
Q 1831 3825 1850 3913 
Q 1863 3966 1863 4013 
Q 1863 4078 1825 4109 
Q 1775 4156 1703 4156 
Q 1613 4156 1552 4081 
Q 1491 4006 1491 3841 
L 1497 3294 
L 1497 2922 
L 1928 2922 
L 1928 2616 
L 1497 2616 
z
" transform="scale(0.015625)"/>
      <path id="TimesNewRomanPS-BoldMT-63" d="M 2600 753 
L 2697 678 
Q 2491 291 2183 101 
Q 1875 -88 1528 -88 
Q 944 -88 594 353 
Q 244 794 244 1413 
Q 244 2009 563 2463 
Q 947 3009 1622 3009 
Q 2075 3009 2342 2781 
Q 2609 2553 2609 2272 
Q 2609 2094 2501 1987 
Q 2394 1881 2219 1881 
Q 2034 1881 1914 2003 
Q 1794 2125 1766 2438 
Q 1747 2634 1675 2713 
Q 1603 2791 1506 2791 
Q 1356 2791 1250 2631 
Q 1088 2391 1088 1894 
Q 1088 1481 1219 1104 
Q 1350 728 1578 544 
Q 1750 409 1984 409 
Q 2138 409 2275 481 
Q 2413 553 2600 753 
z
" transform="scale(0.015625)"/>
      <path id="TimesNewRomanPS-BoldMT-68" d="M 1409 4238 
L 1409 2547 
Q 1650 2800 1850 2904 
Q 2050 3009 2266 3009 
Q 2541 3009 2736 2853 
Q 2931 2697 2995 2486 
Q 3059 2275 3059 1775 
L 3059 634 
Q 3059 300 3121 217 
Q 3184 134 3375 113 
L 3375 0 
L 1894 0 
L 1894 113 
Q 2050 134 2128 238 
Q 2184 319 2184 634 
L 2184 1938 
Q 2184 2300 2156 2392 
Q 2128 2484 2061 2536 
Q 1994 2588 1909 2588 
Q 1784 2588 1665 2502 
Q 1547 2416 1409 2200 
L 1409 634 
Q 1409 322 1456 244 
Q 1516 138 1700 113 
L 1700 0 
L 219 0 
L 219 113 
Q 403 131 481 231 
Q 534 300 534 634 
L 534 3603 
Q 534 3934 473 4015 
Q 413 4097 219 4122 
L 219 4238 
L 1409 4238 
z
" transform="scale(0.015625)"/>
      <path id="TimesNewRomanPS-BoldMT-28" d="M 2056 4334 
L 2056 4191 
Q 1731 3978 1578 3775 
Q 1366 3494 1247 3053 
Q 1097 2506 1097 1525 
Q 1097 600 1233 87 
Q 1369 -425 1603 -741 
Q 1766 -959 2056 -1125 
L 2056 -1281 
Q 1303 -1028 779 -248 
Q 256 531 256 1544 
Q 256 2544 778 3314 
Q 1300 4084 2056 4334 
z
" transform="scale(0.015625)"/>
      <path id="TimesNewRomanPS-BoldMT-25" d="M 4916 4334 
L 1906 -178 
L 1488 -178 
L 4494 4334 
L 4916 4334 
z
M 1494 4334 
Q 1938 4334 2242 4020 
Q 2547 3706 2547 3209 
Q 2547 2700 2240 2383 
Q 1934 2066 1481 2066 
Q 1034 2066 739 2372 
Q 444 2678 444 3178 
Q 444 3694 747 4014 
Q 1050 4334 1494 4334 
z
M 1494 4169 
Q 1425 4169 1381 4128 
Q 1303 4056 1264 3879 
Q 1225 3703 1225 3150 
Q 1225 2709 1278 2469 
Q 1309 2331 1384 2263 
Q 1431 2222 1494 2222 
Q 1563 2222 1603 2259 
Q 1675 2325 1709 2472 
Q 1763 2709 1763 3138 
Q 1763 3663 1713 3897 
Q 1678 4059 1600 4134 
Q 1563 4169 1494 4169 
z
M 4894 2097 
Q 5347 2097 5651 1786 
Q 5956 1475 5956 972 
Q 5956 463 5647 144 
Q 5338 -175 4900 -175 
Q 4466 -175 4161 144 
Q 3856 463 3856 963 
Q 3856 1466 4153 1781 
Q 4450 2097 4894 2097 
z
M 4903 1934 
Q 4841 1934 4797 1897 
Q 4722 1828 4681 1658 
Q 4641 1488 4641 1006 
Q 4641 494 4688 269 
Q 4722 109 4803 38 
Q 4844 0 4909 0 
Q 4969 0 5006 34 
Q 5084 106 5122 269 
Q 5175 497 5175 959 
Q 5175 1447 5125 1672 
Q 5088 1834 5013 1900 
Q 4975 1934 4903 1934 
z
" transform="scale(0.015625)"/>
      <path id="TimesNewRomanPS-BoldMT-29" d="M 78 -1281 
L 78 -1138 
Q 403 -922 556 -719 
Q 766 -438 888 0 
Q 1038 550 1038 1531 
Q 1038 2456 902 2967 
Q 766 3478 531 3794 
Q 369 4013 78 4178 
L 78 4334 
Q 831 4081 1354 3301 
Q 1878 2522 1878 1509 
Q 1878 513 1354 -257 
Q 831 -1028 78 -1281 
z
" transform="scale(0.015625)"/>
     </defs>
     <use xlink:href="#TimesNewRomanPS-BoldMT-44"/>
     <use xlink:href="#TimesNewRomanPS-BoldMT-61" x="72.216797"/>
     <use xlink:href="#TimesNewRomanPS-BoldMT-74" x="122.216797"/>
     <use xlink:href="#TimesNewRomanPS-BoldMT-61" x="155.517578"/>
     <use xlink:href="#TimesNewRomanPS-BoldMT-20" x="205.517578"/>
     <use xlink:href="#TimesNewRomanPS-BoldMT-6f" x="230.517578"/>
     <use xlink:href="#TimesNewRomanPS-BoldMT-6e" x="280.517578"/>
     <use xlink:href="#TimesNewRomanPS-BoldMT-20" x="336.132812"/>
     <use xlink:href="#TimesNewRomanPS-BoldMT-65" x="361.132812"/>
     <use xlink:href="#TimesNewRomanPS-BoldMT-6d" x="405.517578"/>
     <use xlink:href="#TimesNewRomanPS-BoldMT-70" x="488.818359"/>
     <use xlink:href="#TimesNewRomanPS-BoldMT-6c" x="544.433594"/>
     <use xlink:href="#TimesNewRomanPS-BoldMT-6f" x="572.216797"/>
     <use xlink:href="#TimesNewRomanPS-BoldMT-79" x="622.216797"/>
     <use xlink:href="#TimesNewRomanPS-BoldMT-6d" x="672.216797"/>
     <use xlink:href="#TimesNewRomanPS-BoldMT-65" x="755.517578"/>
     <use xlink:href="#TimesNewRomanPS-BoldMT-6e" x="799.902344"/>
     <use xlink:href="#TimesNewRomanPS-BoldMT-74" x="855.517578"/>
     <use xlink:href="#TimesNewRomanPS-BoldMT-20" x="888.818359"/>
     <use xlink:href="#TimesNewRomanPS-BoldMT-72" x="913.818359"/>
     <use xlink:href="#TimesNewRomanPS-BoldMT-61" x="958.203125"/>
     <use xlink:href="#TimesNewRomanPS-BoldMT-74" x="1008.203125"/>
     <use xlink:href="#TimesNewRomanPS-BoldMT-65" x="1041.503906"/>
     <use xlink:href="#TimesNewRomanPS-BoldMT-73" x="1085.888672"/>
     <use xlink:href="#TimesNewRomanPS-BoldMT-20" x="1124.804688"/>
     <use xlink:href="#TimesNewRomanPS-BoldMT-69" x="1149.804688"/>
     <use xlink:href="#TimesNewRomanPS-BoldMT-6e" x="1177.587891"/>
     <use xlink:href="#TimesNewRomanPS-BoldMT-20" x="1233.203125"/>
     <use xlink:href="#TimesNewRomanPS-BoldMT-64" x="1258.203125"/>
     <use xlink:href="#TimesNewRomanPS-BoldMT-69" x="1313.818359"/>
     <use xlink:href="#TimesNewRomanPS-BoldMT-66" x="1341.601562"/>
     <use xlink:href="#TimesNewRomanPS-BoldMT-66" x="1374.902344"/>
     <use xlink:href="#TimesNewRomanPS-BoldMT-65" x="1408.203125"/>
     <use xlink:href="#TimesNewRomanPS-BoldMT-72" x="1452.587891"/>
     <use xlink:href="#TimesNewRomanPS-BoldMT-65" x="1495.222656"/>
     <use xlink:href="#TimesNewRomanPS-BoldMT-6e" x="1539.607422"/>
     <use xlink:href="#TimesNewRomanPS-BoldMT-74" x="1595.222656"/>
     <use xlink:href="#TimesNewRomanPS-BoldMT-20" x="1628.523438"/>
     <use xlink:href="#TimesNewRomanPS-BoldMT-73" x="1653.523438"/>
     <use xlink:href="#TimesNewRomanPS-BoldMT-63" x="1692.439453"/>
     <use xlink:href="#TimesNewRomanPS-BoldMT-68" x="1736.824219"/>
     <use xlink:href="#TimesNewRomanPS-BoldMT-6f" x="1792.439453"/>
     <use xlink:href="#TimesNewRomanPS-BoldMT-6f" x="1842.439453"/>
     <use xlink:href="#TimesNewRomanPS-BoldMT-6c" x="1892.439453"/>
     <use xlink:href="#TimesNewRomanPS-BoldMT-73" x="1920.222656"/>
     <use xlink:href="#TimesNewRomanPS-BoldMT-20" x="1959.138672"/>
     <use xlink:href="#TimesNewRomanPS-BoldMT-28" x="1984.138672"/>
     <use xlink:href="#TimesNewRomanPS-BoldMT-25" x="2017.439453"/>
     <use xlink:href="#TimesNewRomanPS-BoldMT-29" x="2117.439453"/>
    </g>
   </g>
  </g>
 </g>
 <defs>
  <clipPath id="p6ce5213885">
   <rect x="40.915938" y="30.045" width="386.82" height="201.790773"/>
  </clipPath>
 </defs>
</svg>
