<?xml version="1.0" encoding="utf-8" standalone="no"?>
<!DOCTYPE svg PUBLIC "-//W3C//DTD SVG 1.1//EN"
  "http://www.w3.org/Graphics/SVG/1.1/DTD/svg11.dtd">
<svg xmlns:xlink="http://www.w3.org/1999/xlink" width="436.805937pt" height="319.934957pt" viewBox="0 0 436.805937 319.934957" xmlns="http://www.w3.org/2000/svg" version="1.1">
 <metadata>
  <rdf:RDF xmlns:dc="http://purl.org/dc/elements/1.1/" xmlns:cc="http://creativecommons.org/ns#" xmlns:rdf="http://www.w3.org/1999/02/22-rdf-syntax-ns#">
   <cc:Work>
    <dc:type rdf:resource="http://purl.org/dc/dcmitype/StillImage"/>
    <dc:date>2025-05-26T17:46:28.781791</dc:date>
    <dc:format>image/svg+xml</dc:format>
    <dc:creator>
     <cc:Agent>
      <dc:title>Matplotlib v3.7.2, https://matplotlib.org/</dc:title>
     </cc:Agent>
    </dc:creator>
   </cc:Work>
  </rdf:RDF>
 </metadata>
 <defs>
  <style type="text/css">*{stroke-linejoin: round; stroke-linecap: butt}</style>
 </defs>
 <g id="figure_1">
  <g id="patch_1">
   <path d="M 0 319.934957 
L 436.805937 319.934957 
L 436.805937 0 
L 0 0 
z
" style="fill: #ffffff"/>
  </g>
  <g id="axes_1">
   <g id="patch_2">
    <path d="M 50.915938 258.900181 
L 427.715937 258.900181 
L 427.715937 30.045 
L 50.915938 30.045 
z
" style="fill: #ffffff"/>
   </g>
   <g id="PolyCollection_1">
    <defs>
     <path id="mee88511839" d="M 89.513735 -71.437284 
L 87.67814 -71.437284 
L 87.614507 -72.181686 
L 87.54654 -72.926088 
L 87.471138 -73.67049 
L 87.384677 -74.414891 
L 87.283158 -75.159293 
L 87.162383 -75.903695 
L 87.018126 -76.648097 
L 86.846296 -77.392499 
L 86.643088 -78.136901 
L 86.405106 -78.881303 
L 86.129475 -79.625705 
L 85.813939 -80.370107 
L 85.456963 -81.114508 
L 85.057829 -81.85891 
L 84.616736 -82.603312 
L 84.134893 -83.347714 
L 83.61458 -84.092116 
L 83.059185 -84.836518 
L 82.473157 -85.58092 
L 81.861907 -86.325322 
L 81.231619 -87.069724 
L 80.588987 -87.814125 
L 79.940903 -88.558527 
L 79.294117 -89.302929 
L 78.654891 -90.047331 
L 78.028697 -90.791733 
L 77.419951 -91.536135 
L 76.83183 -92.280537 
L 76.266135 -93.024939 
L 75.723213 -93.76934 
L 75.201918 -94.513742 
L 74.69959 -95.258144 
L 74.212067 -96.002546 
L 73.73372 -96.746948 
L 73.257556 -97.49135 
L 72.775408 -98.235752 
L 72.278252 -98.980154 
L 71.756676 -99.724556 
L 71.201507 -100.468957 
L 70.604561 -101.213359 
L 69.959467 -101.957761 
L 69.26248 -102.702163 
L 68.513171 -103.446565 
L 67.714907 -104.190967 
L 66.875012 -104.935369 
L 66.004581 -105.679771 
L 65.117917 -106.424173 
L 64.231649 -107.168574 
L 63.36361 -107.912976 
L 62.531611 -108.657378 
L 61.752234 -109.40178 
L 61.0398 -110.146182 
L 60.405616 -110.890584 
L 59.857574 -111.634986 
L 59.400138 -112.379388 
L 59.034685 -113.123789 
L 58.76014 -113.868191 
L 58.573791 -114.612593 
L 58.472183 -115.356995 
L 58.451938 -116.101397 
L 58.51043 -116.845799 
L 58.646204 -117.590201 
L 58.859108 -118.334603 
L 59.15013 -119.079005 
L 59.520978 -119.823406 
L 59.973469 -120.567808 
L 60.508808 -121.31221 
L 61.126877 -122.056612 
L 61.825612 -122.801014 
L 62.600571 -123.545416 
L 63.444732 -124.289818 
L 64.348562 -125.03422 
L 65.300337 -125.778622 
L 66.28668 -126.523023 
L 67.293256 -127.267425 
L 68.305545 -128.011827 
L 69.309609 -128.756229 
L 70.292807 -129.500631 
L 71.244367 -130.245033 
L 72.15582 -130.989435 
L 73.021245 -131.733837 
L 73.837354 -132.478238 
L 74.603413 -133.22264 
L 75.321029 -133.967042 
L 75.993824 -134.711444 
L 76.627031 -135.455846 
L 77.227025 -136.200248 
L 77.800822 -136.94465 
L 78.355578 -137.689052 
L 78.8981 -138.433454 
L 79.434408 -139.177855 
L 79.969372 -139.922257 
L 80.506432 -140.666659 
L 81.047438 -141.411061 
L 81.592594 -142.155463 
L 82.140529 -142.899865 
L 82.688461 -143.644267 
L 83.232454 -144.388669 
L 83.767735 -145.133071 
L 93.42414 -145.133071 
L 93.42414 -145.133071 
L 93.959421 -144.388669 
L 94.503414 -143.644267 
L 95.051346 -142.899865 
L 95.599281 -142.155463 
L 96.144437 -141.411061 
L 96.685443 -140.666659 
L 97.222503 -139.922257 
L 97.757467 -139.177855 
L 98.293775 -138.433454 
L 98.836297 -137.689052 
L 99.391053 -136.94465 
L 99.96485 -136.200248 
L 100.564844 -135.455846 
L 101.198051 -134.711444 
L 101.870846 -133.967042 
L 102.588462 -133.22264 
L 103.354521 -132.478238 
L 104.17063 -131.733837 
L 105.036055 -130.989435 
L 105.947508 -130.245033 
L 106.899068 -129.500631 
L 107.882266 -128.756229 
L 108.88633 -128.011827 
L 109.898619 -127.267425 
L 110.905195 -126.523023 
L 111.891538 -125.778622 
L 112.843313 -125.03422 
L 113.747143 -124.289818 
L 114.591304 -123.545416 
L 115.366263 -122.801014 
L 116.064998 -122.056612 
L 116.683067 -121.31221 
L 117.218406 -120.567808 
L 117.670897 -119.823406 
L 118.041745 -119.079005 
L 118.332767 -118.334603 
L 118.545671 -117.590201 
L 118.681445 -116.845799 
L 118.739937 -116.101397 
L 118.719692 -115.356995 
L 118.618084 -114.612593 
L 118.431735 -113.868191 
L 118.15719 -113.123789 
L 117.791737 -112.379388 
L 117.334301 -111.634986 
L 116.786259 -110.890584 
L 116.152075 -110.146182 
L 115.439641 -109.40178 
L 114.660264 -108.657378 
L 113.828265 -107.912976 
L 112.960226 -107.168574 
L 112.073958 -106.424173 
L 111.187294 -105.679771 
L 110.316863 -104.935369 
L 109.476968 -104.190967 
L 108.678704 -103.446565 
L 107.929395 -102.702163 
L 107.232408 -101.957761 
L 106.587314 -101.213359 
L 105.990368 -100.468957 
L 105.435199 -99.724556 
L 104.913623 -98.980154 
L 104.416467 -98.235752 
L 103.934319 -97.49135 
L 103.458155 -96.746948 
L 102.979808 -96.002546 
L 102.492285 -95.258144 
L 101.989957 -94.513742 
L 101.468662 -93.76934 
L 100.92574 -93.024939 
L 100.360045 -92.280537 
L 99.771924 -91.536135 
L 99.163178 -90.791733 
L 98.536984 -90.047331 
L 97.897758 -89.302929 
L 97.250972 -88.558527 
L 96.602888 -87.814125 
L 95.960256 -87.069724 
L 95.329968 -86.325322 
L 94.718718 -85.58092 
L 94.13269 -84.836518 
L 93.577295 -84.092116 
L 93.056982 -83.347714 
L 92.575139 -82.603312 
L 92.134046 -81.85891 
L 91.734912 -81.114508 
L 91.377936 -80.370107 
L 91.0624 -79.625705 
L 90.786769 -78.881303 
L 90.548787 -78.136901 
L 90.345579 -77.392499 
L 90.173749 -76.648097 
L 90.029492 -75.903695 
L 89.908717 -75.159293 
L 89.807198 -74.414891 
L 89.720737 -73.67049 
L 89.645335 -72.926088 
L 89.577368 -72.181686 
L 89.513735 -71.437284 
z
" style="stroke: #000000; stroke-opacity: 0.7"/>
    </defs>
    <g clip-path="url(#pfff2746ba0)">
     <use xlink:href="#mee88511839" x="0" y="319.934957" style="fill: #ff7f0e; fill-opacity: 0.7; stroke: #000000; stroke-opacity: 0.7"/>
    </g>
   </g>
   <g id="PolyCollection_2">
    <defs>
     <path id="m06b509eeb4" d="M 166.382073 -105.225 
L 161.529802 -105.225 
L 161.262398 -105.896147 
L 160.984418 -106.567294 
L 160.697475 -107.238441 
L 160.403443 -107.909589 
L 160.104475 -108.580736 
L 159.802984 -109.251883 
L 159.501598 -109.923031 
L 159.203059 -110.594178 
L 158.910084 -111.265325 
L 158.625177 -111.936473 
L 158.350414 -112.60762 
L 158.087212 -113.278767 
L 157.836108 -113.949915 
L 157.596565 -114.621062 
L 157.366824 -115.292209 
L 157.143836 -115.963357 
L 156.923254 -116.634504 
L 156.699526 -117.305651 
L 156.466054 -117.976799 
L 156.215433 -118.647946 
L 155.939746 -119.319093 
L 155.6309 -119.990241 
L 155.280988 -120.661388 
L 154.882658 -121.332535 
L 154.42947 -122.003683 
L 153.916229 -122.67483 
L 153.339277 -123.345977 
L 152.696731 -124.017124 
L 151.988657 -124.688272 
L 151.217156 -125.359419 
L 150.386366 -126.030566 
L 149.502364 -126.701714 
L 148.572967 -127.372861 
L 147.60744 -128.044008 
L 146.616117 -128.715156 
L 145.60997 -129.386303 
L 144.600146 -130.05745 
L 143.597518 -130.728598 
L 142.612282 -131.399745 
L 141.653641 -132.070892 
L 140.729603 -132.74204 
L 139.846906 -133.413187 
L 139.011066 -134.084334 
L 138.226539 -134.755482 
L 137.496956 -135.426629 
L 136.82539 -136.097776 
L 136.214608 -136.768924 
L 135.667263 -137.440071 
L 135.185999 -138.111218 
L 134.773448 -138.782365 
L 134.432109 -139.453513 
L 134.164153 -140.12466 
L 133.971165 -140.795807 
L 133.853877 -141.466955 
L 133.811937 -142.138102 
L 133.843751 -142.809249 
L 133.946417 -143.480397 
L 134.11579 -144.151544 
L 134.346634 -144.822691 
L 134.632883 -145.493839 
L 134.967944 -146.164986 
L 135.345039 -146.836133 
L 135.757523 -147.507281 
L 136.199172 -148.178428 
L 136.664404 -148.849575 
L 137.148432 -149.520723 
L 137.647357 -150.19187 
L 138.158198 -150.863017 
L 138.678885 -151.534165 
L 139.208239 -152.205312 
L 139.745924 -152.876459 
L 140.29242 -153.547607 
L 140.848979 -154.218754 
L 141.41758 -154.889901 
L 142.000854 -155.561048 
L 142.601983 -156.232196 
L 143.224531 -156.903343 
L 143.872226 -157.57449 
L 144.548674 -158.245638 
L 145.257026 -158.916785 
L 145.999619 -159.587932 
L 146.777625 -160.25908 
L 147.590741 -160.930227 
L 148.436967 -161.601374 
L 149.312492 -162.272522 
L 150.211727 -162.943669 
L 151.12748 -163.614816 
L 152.051269 -164.285964 
L 152.973744 -164.957111 
L 153.88519 -165.628258 
L 154.776045 -166.299406 
L 155.637401 -166.970553 
L 156.461434 -167.6417 
L 157.241725 -168.312848 
L 157.973458 -168.983995 
L 158.65348 -169.655142 
L 159.280235 -170.32629 
L 159.853601 -170.997437 
L 160.374649 -171.668584 
L 167.537226 -171.668584 
L 167.537226 -171.668584 
L 168.058274 -170.997437 
L 168.63164 -170.32629 
L 169.258395 -169.655142 
L 169.938417 -168.983995 
L 170.67015 -168.312848 
L 171.450441 -167.6417 
L 172.274474 -166.970553 
L 173.13583 -166.299406 
L 174.026685 -165.628258 
L 174.938131 -164.957111 
L 175.860606 -164.285964 
L 176.784395 -163.614816 
L 177.700148 -162.943669 
L 178.599383 -162.272522 
L 179.474908 -161.601374 
L 180.321134 -160.930227 
L 181.13425 -160.25908 
L 181.912256 -159.587932 
L 182.654849 -158.916785 
L 183.363201 -158.245638 
L 184.039649 -157.57449 
L 184.687344 -156.903343 
L 185.309892 -156.232196 
L 185.911021 -155.561048 
L 186.494295 -154.889901 
L 187.062896 -154.218754 
L 187.619455 -153.547607 
L 188.165951 -152.876459 
L 188.703636 -152.205312 
L 189.23299 -151.534165 
L 189.753677 -150.863017 
L 190.264518 -150.19187 
L 190.763443 -149.520723 
L 191.247471 -148.849575 
L 191.712703 -148.178428 
L 192.154352 -147.507281 
L 192.566836 -146.836133 
L 192.943931 -146.164986 
L 193.278992 -145.493839 
L 193.565241 -144.822691 
L 193.796085 -144.151544 
L 193.965458 -143.480397 
L 194.068124 -142.809249 
L 194.099938 -142.138102 
L 194.057998 -141.466955 
L 193.94071 -140.795807 
L 193.747722 -140.12466 
L 193.479766 -139.453513 
L 193.138427 -138.782365 
L 192.725876 -138.111218 
L 192.244612 -137.440071 
L 191.697267 -136.768924 
L 191.086485 -136.097776 
L 190.414919 -135.426629 
L 189.685336 -134.755482 
L 188.900809 -134.084334 
L 188.064969 -133.413187 
L 187.182272 -132.74204 
L 186.258234 -132.070892 
L 185.299593 -131.399745 
L 184.314357 -130.728598 
L 183.311729 -130.05745 
L 182.301905 -129.386303 
L 181.295758 -128.715156 
L 180.304435 -128.044008 
L 179.338908 -127.372861 
L 178.409511 -126.701714 
L 177.525509 -126.030566 
L 176.694719 -125.359419 
L 175.923218 -124.688272 
L 175.215144 -124.017124 
L 174.572598 -123.345977 
L 173.995646 -122.67483 
L 173.482405 -122.003683 
L 173.029217 -121.332535 
L 172.630887 -120.661388 
L 172.280975 -119.990241 
L 171.972129 -119.319093 
L 171.696442 -118.647946 
L 171.445821 -117.976799 
L 171.212349 -117.305651 
L 170.988621 -116.634504 
L 170.768039 -115.963357 
L 170.545051 -115.292209 
L 170.31531 -114.621062 
L 170.075767 -113.949915 
L 169.824663 -113.278767 
L 169.561461 -112.60762 
L 169.286698 -111.936473 
L 169.001791 -111.265325 
L 168.708816 -110.594178 
L 168.410277 -109.923031 
L 168.108891 -109.251883 
L 167.8074 -108.580736 
L 167.508432 -107.909589 
L 167.2144 -107.238441 
L 166.927457 -106.567294 
L 166.649477 -105.896147 
L 166.382073 -105.225 
z
" style="stroke: #000000; stroke-opacity: 0.7"/>
    </defs>
    <g clip-path="url(#pfff2746ba0)">
     <use xlink:href="#m06b509eeb4" x="0" y="319.934957" style="fill: #c49c94; fill-opacity: 0.7; stroke: #000000; stroke-opacity: 0.7"/>
    </g>
   </g>
   <g id="PolyCollection_3">
    <defs>
     <path id="m8af5378e24" d="M 240.111692 -103.296668 
L 238.520183 -103.296668 
L 238.481191 -104.039376 
L 238.444218 -104.782085 
L 238.407056 -105.524793 
L 238.366954 -106.267501 
L 238.320764 -107.010209 
L 238.26509 -107.752917 
L 238.196424 -108.495625 
L 238.111261 -109.238333 
L 238.006168 -109.981042 
L 237.877812 -110.72375 
L 237.722962 -111.466458 
L 237.538466 -112.209166 
L 237.321233 -112.951874 
L 237.06823 -113.694582 
L 236.77652 -114.43729 
L 236.443338 -115.179999 
L 236.066212 -115.922707 
L 235.643119 -116.665415 
L 235.172659 -117.408123 
L 234.654212 -118.150831 
L 234.088062 -118.893539 
L 233.47545 -119.636247 
L 232.818518 -120.378956 
L 232.120151 -121.121664 
L 231.383693 -121.864372 
L 230.612565 -122.60708 
L 229.809824 -123.349788 
L 228.977723 -124.092496 
L 228.117339 -124.835204 
L 227.228356 -125.577912 
L 226.309066 -126.320621 
L 225.356637 -127.063329 
L 224.367655 -127.806037 
L 223.338913 -128.548745 
L 222.268376 -129.291453 
L 221.156212 -130.034161 
L 220.005757 -130.776869 
L 218.824291 -131.519578 
L 217.623487 -132.262286 
L 216.419477 -133.004994 
L 215.232467 -133.747702 
L 214.085933 -134.49041 
L 213.005434 -135.233118 
L 212.01715 -135.975826 
L 211.146269 -136.718535 
L 210.415343 -137.461243 
L 209.842758 -138.203951 
L 209.441452 -138.946659 
L 209.217967 -139.689367 
L 209.171938 -140.432075 
L 209.296056 -141.174783 
L 209.576544 -141.917492 
L 209.994093 -142.6602 
L 210.525227 -143.402908 
L 211.143982 -144.145616 
L 211.823758 -144.888324 
L 212.539181 -145.631032 
L 213.267814 -146.37374 
L 213.991542 -147.116448 
L 214.697492 -147.859157 
L 215.378419 -148.601865 
L 216.032525 -149.344573 
L 216.662744 -150.087281 
L 217.275617 -150.829989 
L 217.879883 -151.572697 
L 218.484984 -152.315405 
L 219.099651 -153.058114 
L 219.730731 -153.800822 
L 220.382373 -154.54353 
L 221.05563 -155.286238 
L 221.74848 -156.028946 
L 222.456211 -156.771654 
L 223.172084 -157.514362 
L 223.888137 -158.257071 
L 224.596037 -158.999779 
L 225.287834 -159.742487 
L 225.956577 -160.485195 
L 226.596705 -161.227903 
L 227.204244 -161.970611 
L 227.776818 -162.713319 
L 228.313522 -163.456028 
L 228.814734 -164.198736 
L 229.281911 -164.941444 
L 229.717413 -165.684152 
L 230.124385 -166.42686 
L 230.506676 -167.169568 
L 230.868786 -167.912276 
L 231.215796 -168.654984 
L 231.553249 -169.397693 
L 231.886937 -170.140401 
L 232.222613 -170.883109 
L 232.565607 -171.625817 
L 232.920411 -172.368525 
L 233.290262 -173.111233 
L 233.676791 -173.853941 
L 234.079798 -174.59665 
L 234.497183 -175.339358 
L 234.925052 -176.082066 
L 235.358007 -176.824774 
L 243.273868 -176.824774 
L 243.273868 -176.824774 
L 243.706823 -176.082066 
L 244.134692 -175.339358 
L 244.552077 -174.59665 
L 244.955084 -173.853941 
L 245.341613 -173.111233 
L 245.711464 -172.368525 
L 246.066268 -171.625817 
L 246.409262 -170.883109 
L 246.744938 -170.140401 
L 247.078626 -169.397693 
L 247.416079 -168.654984 
L 247.763089 -167.912276 
L 248.125199 -167.169568 
L 248.50749 -166.42686 
L 248.914462 -165.684152 
L 249.349964 -164.941444 
L 249.817141 -164.198736 
L 250.318353 -163.456028 
L 250.855057 -162.713319 
L 251.427631 -161.970611 
L 252.03517 -161.227903 
L 252.675298 -160.485195 
L 253.344041 -159.742487 
L 254.035838 -158.999779 
L 254.743738 -158.257071 
L 255.459791 -157.514362 
L 256.175664 -156.771654 
L 256.883395 -156.028946 
L 257.576245 -155.286238 
L 258.249502 -154.54353 
L 258.901144 -153.800822 
L 259.532224 -153.058114 
L 260.146891 -152.315405 
L 260.751992 -151.572697 
L 261.356258 -150.829989 
L 261.969131 -150.087281 
L 262.59935 -149.344573 
L 263.253456 -148.601865 
L 263.934383 -147.859157 
L 264.640333 -147.116448 
L 265.364061 -146.37374 
L 266.092694 -145.631032 
L 266.808117 -144.888324 
L 267.487893 -144.145616 
L 268.106648 -143.402908 
L 268.637782 -142.6602 
L 269.055331 -141.917492 
L 269.335819 -141.174783 
L 269.459938 -140.432075 
L 269.413908 -139.689367 
L 269.190423 -138.946659 
L 268.789117 -138.203951 
L 268.216532 -137.461243 
L 267.485606 -136.718535 
L 266.614725 -135.975826 
L 265.626441 -135.233118 
L 264.545942 -134.49041 
L 263.399408 -133.747702 
L 262.212398 -133.004994 
L 261.008388 -132.262286 
L 259.807584 -131.519578 
L 258.626118 -130.776869 
L 257.475663 -130.034161 
L 256.363499 -129.291453 
L 255.292962 -128.548745 
L 254.26422 -127.806037 
L 253.275238 -127.063329 
L 252.322809 -126.320621 
L 251.403519 -125.577912 
L 250.514536 -124.835204 
L 249.654152 -124.092496 
L 248.822051 -123.349788 
L 248.01931 -122.60708 
L 247.248182 -121.864372 
L 246.511724 -121.121664 
L 245.813357 -120.378956 
L 245.156425 -119.636247 
L 244.543813 -118.893539 
L 243.977663 -118.150831 
L 243.459216 -117.408123 
L 242.988756 -116.665415 
L 242.565663 -115.922707 
L 242.188537 -115.179999 
L 241.855355 -114.43729 
L 241.563645 -113.694582 
L 241.310642 -112.951874 
L 241.093409 -112.209166 
L 240.908913 -111.466458 
L 240.754063 -110.72375 
L 240.625707 -109.981042 
L 240.520614 -109.238333 
L 240.435451 -108.495625 
L 240.366785 -107.752917 
L 240.311111 -107.010209 
L 240.264921 -106.267501 
L 240.224819 -105.524793 
L 240.187657 -104.782085 
L 240.150684 -104.039376 
L 240.111692 -103.296668 
z
" style="stroke: #000000; stroke-opacity: 0.7"/>
    </defs>
    <g clip-path="url(#pfff2746ba0)">
     <use xlink:href="#m8af5378e24" x="0" y="319.934957" style="fill: #8da0cb; fill-opacity: 0.7; stroke: #000000; stroke-opacity: 0.7"/>
    </g>
   </g>
   <g id="PolyCollection_4">
    <defs>
     <path id="mc1fb59db18" d="M 315.69058 -190.02965 
L 313.661295 -190.02965 
L 313.563333 -190.933265 
L 313.453602 -191.836879 
L 313.327812 -192.740493 
L 313.181218 -193.644107 
L 313.008907 -194.547721 
L 312.806117 -195.451335 
L 312.568578 -196.354949 
L 312.292819 -197.258563 
L 311.976446 -198.162178 
L 311.618345 -199.065792 
L 311.218813 -199.969406 
L 310.779602 -200.87302 
L 310.303883 -201.776634 
L 309.796122 -202.680248 
L 309.261886 -203.583862 
L 308.707585 -204.487476 
L 308.140156 -205.39109 
L 307.566715 -206.294705 
L 306.994171 -207.198319 
L 306.428834 -208.101933 
L 305.876028 -209.005547 
L 305.339727 -209.909161 
L 304.822229 -210.812775 
L 304.323899 -211.716389 
L 303.84299 -212.620003 
L 303.375568 -213.523618 
L 302.915549 -214.427232 
L 302.454865 -215.330846 
L 301.983766 -216.23446 
L 301.491261 -217.138074 
L 300.965685 -218.041688 
L 300.395392 -218.945302 
L 299.769535 -219.848916 
L 299.078906 -220.752531 
L 298.316788 -221.656145 
L 297.479748 -222.559759 
L 296.568324 -223.463373 
L 295.587505 -224.366987 
L 294.546964 -225.270601 
L 293.460964 -226.174215 
L 292.347928 -227.077829 
L 291.229664 -227.981443 
L 290.130278 -228.885058 
L 289.074878 -229.788672 
L 288.088137 -230.692286 
L 287.192892 -231.5959 
L 286.408862 -232.499514 
L 285.751641 -233.403128 
L 285.232031 -234.306742 
L 284.855766 -235.210356 
L 284.623635 -236.113971 
L 284.531938 -237.017585 
L 284.573216 -237.921199 
L 284.737145 -238.824813 
L 285.01147 -239.728427 
L 285.382916 -240.632041 
L 285.837961 -241.535655 
L 286.363455 -242.439269 
L 286.94704 -243.342883 
L 287.577407 -244.246498 
L 288.24439 -245.150112 
L 288.938953 -246.053726 
L 289.653117 -246.95734 
L 290.379856 -247.860954 
L 291.113003 -248.764568 
L 291.847196 -249.668182 
L 292.577861 -250.571796 
L 293.301255 -251.475411 
L 294.014533 -252.379025 
L 294.715844 -253.282639 
L 295.404412 -254.186253 
L 296.08059 -255.089867 
L 296.745847 -255.993481 
L 297.402676 -256.897095 
L 298.054419 -257.800709 
L 298.705001 -258.704324 
L 299.358595 -259.607938 
L 300.019248 -260.511552 
L 300.690495 -261.415166 
L 301.374999 -262.31878 
L 302.074253 -263.222394 
L 302.788359 -264.126008 
L 303.515915 -265.029622 
L 304.254005 -265.933236 
L 304.998299 -266.836851 
L 305.743253 -267.740465 
L 306.48239 -268.644079 
L 307.208652 -269.547693 
L 307.914791 -270.451307 
L 308.593784 -271.354921 
L 309.239225 -272.258535 
L 309.84568 -273.162149 
L 310.408968 -274.065764 
L 310.926342 -274.969378 
L 311.396562 -275.872992 
L 311.819843 -276.776606 
L 312.197702 -277.68022 
L 312.532712 -278.583834 
L 312.828203 -279.487448 
L 316.523672 -279.487448 
L 316.523672 -279.487448 
L 316.819163 -278.583834 
L 317.154173 -277.68022 
L 317.532032 -276.776606 
L 317.955313 -275.872992 
L 318.425533 -274.969378 
L 318.942907 -274.065764 
L 319.506195 -273.162149 
L 320.11265 -272.258535 
L 320.758091 -271.354921 
L 321.437084 -270.451307 
L 322.143223 -269.547693 
L 322.869485 -268.644079 
L 323.608622 -267.740465 
L 324.353576 -266.836851 
L 325.09787 -265.933236 
L 325.83596 -265.029622 
L 326.563516 -264.126008 
L 327.277622 -263.222394 
L 327.976876 -262.31878 
L 328.66138 -261.415166 
L 329.332627 -260.511552 
L 329.99328 -259.607938 
L 330.646874 -258.704324 
L 331.297456 -257.800709 
L 331.949199 -256.897095 
L 332.606028 -255.993481 
L 333.271285 -255.089867 
L 333.947463 -254.186253 
L 334.636031 -253.282639 
L 335.337342 -252.379025 
L 336.05062 -251.475411 
L 336.774014 -250.571796 
L 337.504679 -249.668182 
L 338.238872 -248.764568 
L 338.972019 -247.860954 
L 339.698758 -246.95734 
L 340.412922 -246.053726 
L 341.107485 -245.150112 
L 341.774468 -244.246498 
L 342.404835 -243.342883 
L 342.98842 -242.439269 
L 343.513914 -241.535655 
L 343.968959 -240.632041 
L 344.340405 -239.728427 
L 344.61473 -238.824813 
L 344.778659 -237.921199 
L 344.819938 -237.017585 
L 344.72824 -236.113971 
L 344.496109 -235.210356 
L 344.119844 -234.306742 
L 343.600234 -233.403128 
L 342.943013 -232.499514 
L 342.158983 -231.5959 
L 341.263738 -230.692286 
L 340.276997 -229.788672 
L 339.221597 -228.885058 
L 338.122211 -227.981443 
L 337.003947 -227.077829 
L 335.890911 -226.174215 
L 334.804911 -225.270601 
L 333.76437 -224.366987 
L 332.783551 -223.463373 
L 331.872127 -222.559759 
L 331.035087 -221.656145 
L 330.272969 -220.752531 
L 329.58234 -219.848916 
L 328.956483 -218.945302 
L 328.38619 -218.041688 
L 327.860614 -217.138074 
L 327.368109 -216.23446 
L 326.89701 -215.330846 
L 326.436326 -214.427232 
L 325.976307 -213.523618 
L 325.508885 -212.620003 
L 325.027976 -211.716389 
L 324.529646 -210.812775 
L 324.012148 -209.909161 
L 323.475847 -209.005547 
L 322.923041 -208.101933 
L 322.357704 -207.198319 
L 321.78516 -206.294705 
L 321.211719 -205.39109 
L 320.64429 -204.487476 
L 320.089989 -203.583862 
L 319.555753 -202.680248 
L 319.047992 -201.776634 
L 318.572273 -200.87302 
L 318.133062 -199.969406 
L 317.73353 -199.065792 
L 317.375429 -198.162178 
L 317.059056 -197.258563 
L 316.783297 -196.354949 
L 316.545758 -195.451335 
L 316.342968 -194.547721 
L 316.170657 -193.644107 
L 316.024063 -192.740493 
L 315.898273 -191.836879 
L 315.788542 -190.933265 
L 315.69058 -190.02965 
z
" style="stroke: #000000; stroke-opacity: 0.7"/>
    </defs>
    <g clip-path="url(#pfff2746ba0)">
     <use xlink:href="#mc1fb59db18" x="0" y="319.934957" style="fill: #c5b0d5; fill-opacity: 0.7; stroke: #000000; stroke-opacity: 0.7"/>
    </g>
   </g>
   <g id="PolyCollection_5">
    <defs>
     <path id="m8e2cc516ee" d="M 391.61887 -103.967392 
L 388.453005 -103.967392 
L 388.290726 -104.842213 
L 388.119732 -105.717033 
L 387.936936 -106.591853 
L 387.738203 -107.466674 
L 387.518484 -108.341494 
L 387.272069 -109.216315 
L 386.992933 -110.091135 
L 386.67517 -110.965956 
L 386.313464 -111.840776 
L 385.903563 -112.715596 
L 385.442711 -113.590417 
L 384.929993 -114.465237 
L 384.366562 -115.340058 
L 383.755716 -116.214878 
L 383.10283 -117.089699 
L 382.415139 -117.964519 
L 381.701406 -118.839339 
L 380.971487 -119.71416 
L 380.235857 -120.58898 
L 379.505095 -121.463801 
L 378.789388 -122.338621 
L 378.09805 -123.213441 
L 377.43909 -124.088262 
L 376.818821 -124.963082 
L 376.241525 -125.837903 
L 375.709188 -126.712723 
L 375.221313 -127.587544 
L 374.774841 -128.462364 
L 374.364193 -129.337184 
L 373.981458 -130.212005 
L 373.616728 -131.086825 
L 373.258595 -131.961646 
L 372.894761 -132.836466 
L 372.512745 -133.711286 
L 372.100629 -134.586107 
L 371.647779 -135.460927 
L 371.145494 -136.335748 
L 370.587538 -137.210568 
L 369.970524 -138.085389 
L 369.294143 -138.960209 
L 368.561259 -139.835029 
L 367.777875 -140.70985 
L 366.953013 -141.58467 
L 366.098533 -142.459491 
L 365.228898 -143.334311 
L 364.360893 -144.209131 
L 363.51328 -145.083952 
L 362.706373 -145.958772 
L 361.961502 -146.833593 
L 361.300346 -147.708413 
L 360.744151 -148.583234 
L 360.312823 -149.458054 
L 360.023969 -150.332874 
L 359.891937 -151.207695 
L 359.926937 -152.082515 
L 360.134334 -152.957336 
L 360.5142 -153.832156 
L 361.061181 -154.706976 
L 361.764713 -155.581797 
L 362.609607 -156.456617 
L 363.576938 -157.331438 
L 364.645185 -158.206258 
L 365.791505 -159.081079 
L 366.993031 -159.955899 
L 368.228055 -160.830719 
L 369.477 -161.70554 
L 370.723078 -162.58036 
L 371.952613 -163.455181 
L 373.155011 -164.330001 
L 374.322425 -165.204821 
L 375.449207 -166.079642 
L 376.531245 -166.954462 
L 377.565301 -167.829283 
L 378.548446 -168.704103 
L 379.477693 -169.578924 
L 380.349839 -170.453744 
L 381.16155 -171.328564 
L 381.909624 -172.203385 
L 382.591395 -173.078205 
L 383.205172 -173.953026 
L 383.75064 -174.827846 
L 384.22916 -175.702666 
L 384.643891 -176.577487 
L 384.99975 -177.452307 
L 385.303183 -178.327128 
L 385.561805 -179.201948 
L 385.783947 -180.076769 
L 385.978167 -180.951589 
L 386.152781 -181.826409 
L 386.315453 -182.70123 
L 386.472871 -183.57605 
L 386.630533 -184.450871 
L 386.792618 -185.325691 
L 386.961959 -186.200512 
L 387.140078 -187.075332 
L 387.32729 -187.950152 
L 387.522833 -188.824973 
L 387.72505 -189.699793 
L 387.931572 -190.574614 
L 392.140303 -190.574614 
L 392.140303 -190.574614 
L 392.346825 -189.699793 
L 392.549042 -188.824973 
L 392.744585 -187.950152 
L 392.931797 -187.075332 
L 393.109916 -186.200512 
L 393.279257 -185.325691 
L 393.441342 -184.450871 
L 393.599004 -183.57605 
L 393.756422 -182.70123 
L 393.919094 -181.826409 
L 394.093708 -180.951589 
L 394.287928 -180.076769 
L 394.51007 -179.201948 
L 394.768692 -178.327128 
L 395.072125 -177.452307 
L 395.427984 -176.577487 
L 395.842715 -175.702666 
L 396.321235 -174.827846 
L 396.866703 -173.953026 
L 397.48048 -173.078205 
L 398.162251 -172.203385 
L 398.910325 -171.328564 
L 399.722036 -170.453744 
L 400.594182 -169.578924 
L 401.523429 -168.704103 
L 402.506574 -167.829283 
L 403.54063 -166.954462 
L 404.622668 -166.079642 
L 405.74945 -165.204821 
L 406.916864 -164.330001 
L 408.119262 -163.455181 
L 409.348797 -162.58036 
L 410.594875 -161.70554 
L 411.84382 -160.830719 
L 413.078844 -159.955899 
L 414.28037 -159.081079 
L 415.42669 -158.206258 
L 416.494937 -157.331438 
L 417.462268 -156.456617 
L 418.307162 -155.581797 
L 419.010694 -154.706976 
L 419.557675 -153.832156 
L 419.937541 -152.957336 
L 420.144938 -152.082515 
L 420.179938 -151.207695 
L 420.047906 -150.332874 
L 419.759052 -149.458054 
L 419.327724 -148.583234 
L 418.771529 -147.708413 
L 418.110373 -146.833593 
L 417.365502 -145.958772 
L 416.558595 -145.083952 
L 415.710982 -144.209131 
L 414.842977 -143.334311 
L 413.973342 -142.459491 
L 413.118862 -141.58467 
L 412.294 -140.70985 
L 411.510616 -139.835029 
L 410.777732 -138.960209 
L 410.101351 -138.085389 
L 409.484337 -137.210568 
L 408.926381 -136.335748 
L 408.424096 -135.460927 
L 407.971246 -134.586107 
L 407.55913 -133.711286 
L 407.177114 -132.836466 
L 406.81328 -131.961646 
L 406.455147 -131.086825 
L 406.090417 -130.212005 
L 405.707682 -129.337184 
L 405.297034 -128.462364 
L 404.850562 -127.587544 
L 404.362687 -126.712723 
L 403.83035 -125.837903 
L 403.253054 -124.963082 
L 402.632785 -124.088262 
L 401.973825 -123.213441 
L 401.282487 -122.338621 
L 400.56678 -121.463801 
L 399.836018 -120.58898 
L 399.100388 -119.71416 
L 398.370469 -118.839339 
L 397.656736 -117.964519 
L 396.969045 -117.089699 
L 396.316159 -116.214878 
L 395.705313 -115.340058 
L 395.141882 -114.465237 
L 394.629164 -113.590417 
L 394.168312 -112.715596 
L 393.758411 -111.840776 
L 393.396705 -110.965956 
L 393.078942 -110.091135 
L 392.799806 -109.216315 
L 392.553391 -108.341494 
L 392.333672 -107.466674 
L 392.134939 -106.591853 
L 391.952143 -105.717033 
L 391.781149 -104.842213 
L 391.61887 -103.967392 
z
" style="stroke: #000000; stroke-opacity: 0.7"/>
    </defs>
    <g clip-path="url(#pfff2746ba0)">
     <use xlink:href="#m8e2cc516ee" x="0" y="319.934957" style="fill: #fc8d62; fill-opacity: 0.7; stroke: #000000; stroke-opacity: 0.7"/>
    </g>
   </g>
   <g id="matplotlib.axis_1">
    <g id="xtick_1">
     <g id="line2d_1">
      <defs>
       <path id="m652d782744" d="M 0 0 
L 0 3.5 
" style="stroke: #000000; stroke-width: 0.8"/>
      </defs>
      <g>
       <use xlink:href="#m652d782744" x="88.595938" y="258.900181" style="stroke: #000000; stroke-width: 0.8"/>
      </g>
     </g>
     <g id="text_1">
      <!-- Quarryville -->
      <g transform="translate(47.653129 310.903992) rotate(-45) scale(0.12 -0.12)">
       <defs>
        <path id="TimesNewRomanPSMT-51" d="M 2819 -47 
Q 3138 -597 3508 -856 
Q 3878 -1116 4350 -1153 
L 4350 -1253 
Q 3919 -1238 3428 -1080 
Q 2938 -922 2498 -642 
Q 2059 -363 1741 -47 
Q 1291 134 1028 338 
Q 647 641 436 1083 
Q 225 1525 225 2128 
Q 225 3078 840 3706 
Q 1456 4334 2331 4334 
Q 3163 4334 3770 3704 
Q 4378 3075 4378 2116 
Q 4378 1338 3945 750 
Q 3513 163 2819 -47 
z
M 2294 4094 
Q 1725 4094 1378 3688 
Q 941 3178 941 2128 
Q 941 1100 1384 544 
Q 1728 116 2294 116 
Q 2881 116 3241 544 
Q 3663 1050 3663 2038 
Q 3663 2797 3431 3316 
Q 3253 3716 2958 3905 
Q 2663 4094 2294 4094 
z
" transform="scale(0.015625)"/>
        <path id="TimesNewRomanPSMT-75" d="M 2709 2863 
L 2709 1128 
Q 2709 631 2732 520 
Q 2756 409 2807 365 
Q 2859 322 2928 322 
Q 3025 322 3147 375 
L 3191 266 
L 2334 -88 
L 2194 -88 
L 2194 519 
Q 1825 119 1631 15 
Q 1438 -88 1222 -88 
Q 981 -88 804 51 
Q 628 191 559 409 
Q 491 628 491 1028 
L 491 2306 
Q 491 2509 447 2587 
Q 403 2666 317 2708 
Q 231 2750 6 2747 
L 6 2863 
L 1009 2863 
L 1009 947 
Q 1009 547 1148 422 
Q 1288 297 1484 297 
Q 1619 297 1789 381 
Q 1959 466 2194 703 
L 2194 2325 
Q 2194 2569 2105 2655 
Q 2016 2741 1734 2747 
L 1734 2863 
L 2709 2863 
z
" transform="scale(0.015625)"/>
        <path id="TimesNewRomanPSMT-61" d="M 1822 413 
Q 1381 72 1269 19 
Q 1100 -59 909 -59 
Q 613 -59 420 144 
Q 228 347 228 678 
Q 228 888 322 1041 
Q 450 1253 767 1440 
Q 1084 1628 1822 1897 
L 1822 2009 
Q 1822 2438 1686 2597 
Q 1550 2756 1291 2756 
Q 1094 2756 978 2650 
Q 859 2544 859 2406 
L 866 2225 
Q 866 2081 792 2003 
Q 719 1925 600 1925 
Q 484 1925 411 2006 
Q 338 2088 338 2228 
Q 338 2497 613 2722 
Q 888 2947 1384 2947 
Q 1766 2947 2009 2819 
Q 2194 2722 2281 2516 
Q 2338 2381 2338 1966 
L 2338 994 
Q 2338 584 2353 492 
Q 2369 400 2405 369 
Q 2441 338 2488 338 
Q 2538 338 2575 359 
Q 2641 400 2828 588 
L 2828 413 
Q 2478 -56 2159 -56 
Q 2006 -56 1915 50 
Q 1825 156 1822 413 
z
M 1822 616 
L 1822 1706 
Q 1350 1519 1213 1441 
Q 966 1303 859 1153 
Q 753 1003 753 825 
Q 753 600 887 451 
Q 1022 303 1197 303 
Q 1434 303 1822 616 
z
" transform="scale(0.015625)"/>
        <path id="TimesNewRomanPSMT-72" d="M 1038 2947 
L 1038 2303 
Q 1397 2947 1775 2947 
Q 1947 2947 2059 2842 
Q 2172 2738 2172 2600 
Q 2172 2478 2090 2393 
Q 2009 2309 1897 2309 
Q 1788 2309 1652 2417 
Q 1516 2525 1450 2525 
Q 1394 2525 1328 2463 
Q 1188 2334 1038 2041 
L 1038 669 
Q 1038 431 1097 309 
Q 1138 225 1241 169 
Q 1344 113 1538 113 
L 1538 0 
L 72 0 
L 72 113 
Q 291 113 397 181 
Q 475 231 506 341 
Q 522 394 522 644 
L 522 1753 
Q 522 2253 501 2348 
Q 481 2444 426 2487 
Q 372 2531 291 2531 
Q 194 2531 72 2484 
L 41 2597 
L 906 2947 
L 1038 2947 
z
" transform="scale(0.015625)"/>
        <path id="TimesNewRomanPSMT-79" d="M 38 2863 
L 1372 2863 
L 1372 2747 
L 1306 2747 
Q 1166 2747 1095 2686 
Q 1025 2625 1025 2534 
Q 1025 2413 1128 2197 
L 1825 753 
L 2466 2334 
Q 2519 2463 2519 2588 
Q 2519 2644 2497 2672 
Q 2472 2706 2419 2726 
Q 2366 2747 2231 2747 
L 2231 2863 
L 3163 2863 
L 3163 2747 
Q 3047 2734 2984 2696 
Q 2922 2659 2847 2556 
Q 2819 2513 2741 2316 
L 1575 -541 
Q 1406 -956 1132 -1168 
Q 859 -1381 606 -1381 
Q 422 -1381 303 -1275 
Q 184 -1169 184 -1031 
Q 184 -900 270 -820 
Q 356 -741 506 -741 
Q 609 -741 788 -809 
Q 913 -856 944 -856 
Q 1038 -856 1148 -759 
Q 1259 -663 1372 -384 
L 1575 113 
L 547 2272 
Q 500 2369 397 2513 
Q 319 2622 269 2659 
Q 197 2709 38 2747 
L 38 2863 
z
" transform="scale(0.015625)"/>
        <path id="TimesNewRomanPSMT-76" d="M 53 2863 
L 1400 2863 
L 1400 2747 
L 1313 2747 
Q 1191 2747 1127 2687 
Q 1063 2628 1063 2528 
Q 1063 2419 1128 2269 
L 1794 688 
L 2463 2328 
Q 2534 2503 2534 2594 
Q 2534 2638 2509 2666 
Q 2475 2713 2422 2730 
Q 2369 2747 2206 2747 
L 2206 2863 
L 3141 2863 
L 3141 2747 
Q 2978 2734 2916 2681 
Q 2806 2588 2719 2369 
L 1703 -88 
L 1575 -88 
L 553 2328 
Q 484 2497 421 2570 
Q 359 2644 263 2694 
Q 209 2722 53 2747 
L 53 2863 
z
" transform="scale(0.015625)"/>
        <path id="TimesNewRomanPSMT-69" d="M 928 4444 
Q 1059 4444 1151 4351 
Q 1244 4259 1244 4128 
Q 1244 3997 1151 3903 
Q 1059 3809 928 3809 
Q 797 3809 703 3903 
Q 609 3997 609 4128 
Q 609 4259 701 4351 
Q 794 4444 928 4444 
z
M 1188 2947 
L 1188 647 
Q 1188 378 1227 289 
Q 1266 200 1342 156 
Q 1419 113 1622 113 
L 1622 0 
L 231 0 
L 231 113 
Q 441 113 512 153 
Q 584 194 626 287 
Q 669 381 669 647 
L 669 1750 
Q 669 2216 641 2353 
Q 619 2453 572 2492 
Q 525 2531 444 2531 
Q 356 2531 231 2484 
L 188 2597 
L 1050 2947 
L 1188 2947 
z
" transform="scale(0.015625)"/>
        <path id="TimesNewRomanPSMT-6c" d="M 1184 4444 
L 1184 647 
Q 1184 378 1223 290 
Q 1263 203 1344 158 
Q 1425 113 1647 113 
L 1647 0 
L 244 0 
L 244 113 
Q 441 113 512 153 
Q 584 194 625 287 
Q 666 381 666 647 
L 666 3247 
Q 666 3731 644 3842 
Q 622 3953 573 3993 
Q 525 4034 450 4034 
Q 369 4034 244 3984 
L 191 4094 
L 1044 4444 
L 1184 4444 
z
" transform="scale(0.015625)"/>
        <path id="TimesNewRomanPSMT-65" d="M 681 1784 
Q 678 1147 991 784 
Q 1303 422 1725 422 
Q 2006 422 2214 576 
Q 2422 731 2563 1106 
L 2659 1044 
Q 2594 616 2278 264 
Q 1963 -88 1488 -88 
Q 972 -88 605 314 
Q 238 716 238 1394 
Q 238 2128 614 2539 
Q 991 2950 1559 2950 
Q 2041 2950 2350 2633 
Q 2659 2316 2659 1784 
L 681 1784 
z
M 681 1966 
L 2006 1966 
Q 1991 2241 1941 2353 
Q 1863 2528 1708 2628 
Q 1553 2728 1384 2728 
Q 1125 2728 920 2526 
Q 716 2325 681 1966 
z
" transform="scale(0.015625)"/>
       </defs>
       <use xlink:href="#TimesNewRomanPSMT-51"/>
       <use xlink:href="#TimesNewRomanPSMT-75" x="72.216797"/>
       <use xlink:href="#TimesNewRomanPSMT-61" x="122.216797"/>
       <use xlink:href="#TimesNewRomanPSMT-72" x="166.601562"/>
       <use xlink:href="#TimesNewRomanPSMT-72" x="199.902344"/>
       <use xlink:href="#TimesNewRomanPSMT-79" x="233.203125"/>
       <use xlink:href="#TimesNewRomanPSMT-76" x="283.203125"/>
       <use xlink:href="#TimesNewRomanPSMT-69" x="333.203125"/>
       <use xlink:href="#TimesNewRomanPSMT-6c" x="360.986328"/>
       <use xlink:href="#TimesNewRomanPSMT-6c" x="388.769531"/>
       <use xlink:href="#TimesNewRomanPSMT-65" x="416.552734"/>
      </g>
     </g>
    </g>
    <g id="xtick_2">
     <g id="line2d_2">
      <g>
       <use xlink:href="#m652d782744" x="163.955938" y="258.900181" style="stroke: #000000; stroke-width: 0.8"/>
      </g>
     </g>
     <g id="text_2">
      <!-- Creston -->
      <g transform="translate(135.743703 298.189328) rotate(-45) scale(0.12 -0.12)">
       <defs>
        <path id="TimesNewRomanPSMT-43" d="M 3853 4334 
L 3950 2894 
L 3853 2894 
Q 3659 3541 3300 3825 
Q 2941 4109 2438 4109 
Q 2016 4109 1675 3895 
Q 1334 3681 1139 3212 
Q 944 2744 944 2047 
Q 944 1472 1128 1050 
Q 1313 628 1683 403 
Q 2053 178 2528 178 
Q 2941 178 3256 354 
Q 3572 531 3950 1056 
L 4047 994 
Q 3728 428 3303 165 
Q 2878 -97 2294 -97 
Q 1241 -97 663 684 
Q 231 1266 231 2053 
Q 231 2688 515 3219 
Q 800 3750 1298 4042 
Q 1797 4334 2388 4334 
Q 2847 4334 3294 4109 
Q 3425 4041 3481 4041 
Q 3566 4041 3628 4100 
Q 3709 4184 3744 4334 
L 3853 4334 
z
" transform="scale(0.015625)"/>
        <path id="TimesNewRomanPSMT-73" d="M 2050 2947 
L 2050 1972 
L 1947 1972 
Q 1828 2431 1642 2597 
Q 1456 2763 1169 2763 
Q 950 2763 815 2647 
Q 681 2531 681 2391 
Q 681 2216 781 2091 
Q 878 1963 1175 1819 
L 1631 1597 
Q 2266 1288 2266 781 
Q 2266 391 1970 151 
Q 1675 -88 1309 -88 
Q 1047 -88 709 6 
Q 606 38 541 38 
Q 469 38 428 -44 
L 325 -44 
L 325 978 
L 428 978 
Q 516 541 762 319 
Q 1009 97 1316 97 
Q 1531 97 1667 223 
Q 1803 350 1803 528 
Q 1803 744 1651 891 
Q 1500 1038 1047 1263 
Q 594 1488 453 1669 
Q 313 1847 313 2119 
Q 313 2472 555 2709 
Q 797 2947 1181 2947 
Q 1350 2947 1591 2875 
Q 1750 2828 1803 2828 
Q 1853 2828 1881 2850 
Q 1909 2872 1947 2947 
L 2050 2947 
z
" transform="scale(0.015625)"/>
        <path id="TimesNewRomanPSMT-74" d="M 1031 3803 
L 1031 2863 
L 1700 2863 
L 1700 2644 
L 1031 2644 
L 1031 788 
Q 1031 509 1111 412 
Q 1191 316 1316 316 
Q 1419 316 1516 380 
Q 1613 444 1666 569 
L 1788 569 
Q 1678 263 1478 108 
Q 1278 -47 1066 -47 
Q 922 -47 784 33 
Q 647 113 581 261 
Q 516 409 516 719 
L 516 2644 
L 63 2644 
L 63 2747 
Q 234 2816 414 2980 
Q 594 3144 734 3369 
Q 806 3488 934 3803 
L 1031 3803 
z
" transform="scale(0.015625)"/>
        <path id="TimesNewRomanPSMT-6f" d="M 1600 2947 
Q 2250 2947 2644 2453 
Q 2978 2031 2978 1484 
Q 2978 1100 2793 706 
Q 2609 313 2286 112 
Q 1963 -88 1566 -88 
Q 919 -88 538 428 
Q 216 863 216 1403 
Q 216 1797 411 2186 
Q 606 2575 925 2761 
Q 1244 2947 1600 2947 
z
M 1503 2744 
Q 1338 2744 1170 2645 
Q 1003 2547 900 2300 
Q 797 2053 797 1666 
Q 797 1041 1045 587 
Q 1294 134 1700 134 
Q 2003 134 2200 384 
Q 2397 634 2397 1244 
Q 2397 2006 2069 2444 
Q 1847 2744 1503 2744 
z
" transform="scale(0.015625)"/>
        <path id="TimesNewRomanPSMT-6e" d="M 1034 2341 
Q 1538 2947 1994 2947 
Q 2228 2947 2397 2830 
Q 2566 2713 2666 2444 
Q 2734 2256 2734 1869 
L 2734 647 
Q 2734 375 2778 278 
Q 2813 200 2889 156 
Q 2966 113 3172 113 
L 3172 0 
L 1756 0 
L 1756 113 
L 1816 113 
Q 2016 113 2095 173 
Q 2175 234 2206 353 
Q 2219 400 2219 647 
L 2219 1819 
Q 2219 2209 2117 2386 
Q 2016 2563 1775 2563 
Q 1403 2563 1034 2156 
L 1034 647 
Q 1034 356 1069 288 
Q 1113 197 1189 155 
Q 1266 113 1500 113 
L 1500 0 
L 84 0 
L 84 113 
L 147 113 
Q 366 113 442 223 
Q 519 334 519 647 
L 519 1709 
Q 519 2225 495 2337 
Q 472 2450 423 2490 
Q 375 2531 294 2531 
Q 206 2531 84 2484 
L 38 2597 
L 900 2947 
L 1034 2947 
L 1034 2341 
z
" transform="scale(0.015625)"/>
       </defs>
       <use xlink:href="#TimesNewRomanPSMT-43"/>
       <use xlink:href="#TimesNewRomanPSMT-72" x="66.699219"/>
       <use xlink:href="#TimesNewRomanPSMT-65" x="100"/>
       <use xlink:href="#TimesNewRomanPSMT-73" x="144.384766"/>
       <use xlink:href="#TimesNewRomanPSMT-74" x="183.300781"/>
       <use xlink:href="#TimesNewRomanPSMT-6f" x="211.083984"/>
       <use xlink:href="#TimesNewRomanPSMT-6e" x="261.083984"/>
      </g>
     </g>
    </g>
    <g id="xtick_3">
     <g id="line2d_3">
      <g>
       <use xlink:href="#m652d782744" x="239.315937" y="258.900181" style="stroke: #000000; stroke-width: 0.8"/>
      </g>
     </g>
     <g id="text_3">
      <!-- Springfield -->
      <g transform="translate(199.30651 309.970611) rotate(-45) scale(0.12 -0.12)">
       <defs>
        <path id="TimesNewRomanPSMT-53" d="M 2934 4334 
L 2934 2869 
L 2819 2869 
Q 2763 3291 2617 3541 
Q 2472 3791 2203 3937 
Q 1934 4084 1647 4084 
Q 1322 4084 1109 3886 
Q 897 3688 897 3434 
Q 897 3241 1031 3081 
Q 1225 2847 1953 2456 
Q 2547 2138 2764 1967 
Q 2981 1797 3098 1565 
Q 3216 1334 3216 1081 
Q 3216 600 2842 251 
Q 2469 -97 1881 -97 
Q 1697 -97 1534 -69 
Q 1438 -53 1133 45 
Q 828 144 747 144 
Q 669 144 623 97 
Q 578 50 556 -97 
L 441 -97 
L 441 1356 
L 556 1356 
Q 638 900 775 673 
Q 913 447 1195 297 
Q 1478 147 1816 147 
Q 2206 147 2432 353 
Q 2659 559 2659 841 
Q 2659 997 2573 1156 
Q 2488 1316 2306 1453 
Q 2184 1547 1640 1851 
Q 1097 2156 867 2337 
Q 638 2519 519 2737 
Q 400 2956 400 3219 
Q 400 3675 750 4004 
Q 1100 4334 1641 4334 
Q 1978 4334 2356 4169 
Q 2531 4091 2603 4091 
Q 2684 4091 2736 4139 
Q 2788 4188 2819 4334 
L 2934 4334 
z
" transform="scale(0.015625)"/>
        <path id="TimesNewRomanPSMT-70" d="M -6 2578 
L 875 2934 
L 994 2934 
L 994 2266 
Q 1216 2644 1439 2795 
Q 1663 2947 1909 2947 
Q 2341 2947 2628 2609 
Q 2981 2197 2981 1534 
Q 2981 794 2556 309 
Q 2206 -88 1675 -88 
Q 1444 -88 1275 -22 
Q 1150 25 994 166 
L 994 -706 
Q 994 -1000 1030 -1079 
Q 1066 -1159 1155 -1206 
Q 1244 -1253 1478 -1253 
L 1478 -1369 
L -22 -1369 
L -22 -1253 
L 56 -1253 
Q 228 -1256 350 -1188 
Q 409 -1153 442 -1076 
Q 475 -1000 475 -688 
L 475 2019 
Q 475 2297 450 2372 
Q 425 2447 370 2484 
Q 316 2522 222 2522 
Q 147 2522 31 2478 
L -6 2578 
z
M 994 2081 
L 994 1013 
Q 994 666 1022 556 
Q 1066 375 1236 237 
Q 1406 100 1666 100 
Q 1978 100 2172 344 
Q 2425 663 2425 1241 
Q 2425 1897 2138 2250 
Q 1938 2494 1663 2494 
Q 1513 2494 1366 2419 
Q 1253 2363 994 2081 
z
" transform="scale(0.015625)"/>
        <path id="TimesNewRomanPSMT-67" d="M 966 1044 
Q 703 1172 562 1401 
Q 422 1631 422 1909 
Q 422 2334 742 2640 
Q 1063 2947 1563 2947 
Q 1972 2947 2272 2747 
L 2878 2747 
Q 3013 2747 3034 2739 
Q 3056 2731 3066 2713 
Q 3084 2684 3084 2613 
Q 3084 2531 3069 2500 
Q 3059 2484 3036 2475 
Q 3013 2466 2878 2466 
L 2506 2466 
Q 2681 2241 2681 1891 
Q 2681 1491 2375 1206 
Q 2069 922 1553 922 
Q 1341 922 1119 984 
Q 981 866 932 777 
Q 884 688 884 625 
Q 884 572 936 522 
Q 988 472 1138 450 
Q 1225 438 1575 428 
Q 2219 413 2409 384 
Q 2700 344 2873 169 
Q 3047 -6 3047 -263 
Q 3047 -616 2716 -925 
Q 2228 -1381 1444 -1381 
Q 841 -1381 425 -1109 
Q 191 -953 191 -784 
Q 191 -709 225 -634 
Q 278 -519 444 -313 
Q 466 -284 763 25 
Q 600 122 533 198 
Q 466 275 466 372 
Q 466 481 555 628 
Q 644 775 966 1044 
z
M 1509 2797 
Q 1278 2797 1122 2612 
Q 966 2428 966 2047 
Q 966 1553 1178 1281 
Q 1341 1075 1591 1075 
Q 1828 1075 1981 1253 
Q 2134 1431 2134 1813 
Q 2134 2309 1919 2591 
Q 1759 2797 1509 2797 
z
M 934 0 
Q 788 -159 713 -296 
Q 638 -434 638 -550 
Q 638 -700 819 -813 
Q 1131 -1006 1722 -1006 
Q 2284 -1006 2551 -807 
Q 2819 -609 2819 -384 
Q 2819 -222 2659 -153 
Q 2497 -84 2016 -72 
Q 1313 -53 934 0 
z
" transform="scale(0.015625)"/>
        <path id="TimesNewRomanPSMT-66" d="M 1319 2638 
L 1319 756 
Q 1319 356 1406 250 
Q 1522 113 1716 113 
L 1975 113 
L 1975 0 
L 266 0 
L 266 113 
L 394 113 
Q 519 113 622 175 
Q 725 238 764 344 
Q 803 450 803 756 
L 803 2638 
L 247 2638 
L 247 2863 
L 803 2863 
L 803 3050 
Q 803 3478 940 3775 
Q 1078 4072 1361 4255 
Q 1644 4438 1997 4438 
Q 2325 4438 2600 4225 
Q 2781 4084 2781 3909 
Q 2781 3816 2700 3733 
Q 2619 3650 2525 3650 
Q 2453 3650 2373 3701 
Q 2294 3753 2178 3923 
Q 2063 4094 1966 4153 
Q 1869 4213 1750 4213 
Q 1606 4213 1506 4136 
Q 1406 4059 1362 3898 
Q 1319 3738 1319 3069 
L 1319 2863 
L 2056 2863 
L 2056 2638 
L 1319 2638 
z
" transform="scale(0.015625)"/>
        <path id="TimesNewRomanPSMT-64" d="M 2222 322 
Q 2013 103 1813 7 
Q 1613 -88 1381 -88 
Q 913 -88 563 304 
Q 213 697 213 1313 
Q 213 1928 600 2439 
Q 988 2950 1597 2950 
Q 1975 2950 2222 2709 
L 2222 3238 
Q 2222 3728 2198 3840 
Q 2175 3953 2125 3993 
Q 2075 4034 2000 4034 
Q 1919 4034 1784 3984 
L 1744 4094 
L 2597 4444 
L 2738 4444 
L 2738 1134 
Q 2738 631 2761 520 
Q 2784 409 2836 365 
Q 2888 322 2956 322 
Q 3041 322 3181 375 
L 3216 266 
L 2366 -88 
L 2222 -88 
L 2222 322 
z
M 2222 541 
L 2222 2016 
Q 2203 2228 2109 2403 
Q 2016 2578 1861 2667 
Q 1706 2756 1559 2756 
Q 1284 2756 1069 2509 
Q 784 2184 784 1559 
Q 784 928 1059 592 
Q 1334 256 1672 256 
Q 1956 256 2222 541 
z
" transform="scale(0.015625)"/>
       </defs>
       <use xlink:href="#TimesNewRomanPSMT-53"/>
       <use xlink:href="#TimesNewRomanPSMT-70" x="55.615234"/>
       <use xlink:href="#TimesNewRomanPSMT-72" x="105.615234"/>
       <use xlink:href="#TimesNewRomanPSMT-69" x="138.916016"/>
       <use xlink:href="#TimesNewRomanPSMT-6e" x="166.699219"/>
       <use xlink:href="#TimesNewRomanPSMT-67" x="216.699219"/>
       <use xlink:href="#TimesNewRomanPSMT-66" x="266.699219"/>
       <use xlink:href="#TimesNewRomanPSMT-69" x="300"/>
       <use xlink:href="#TimesNewRomanPSMT-65" x="327.783203"/>
       <use xlink:href="#TimesNewRomanPSMT-6c" x="372.167969"/>
       <use xlink:href="#TimesNewRomanPSMT-64" x="399.951172"/>
      </g>
     </g>
    </g>
    <g id="xtick_4">
     <g id="line2d_4">
      <g>
       <use xlink:href="#m652d782744" x="314.675938" y="258.900181" style="stroke: #000000; stroke-width: 0.8"/>
      </g>
     </g>
     <g id="text_4">
      <!-- Elmhurst -->
      <g transform="translate(281.750394 302.902637) rotate(-45) scale(0.12 -0.12)">
       <defs>
        <path id="TimesNewRomanPSMT-45" d="M 1338 4006 
L 1338 2331 
L 2269 2331 
Q 2631 2331 2753 2441 
Q 2916 2584 2934 2947 
L 3050 2947 
L 3050 1472 
L 2934 1472 
Q 2891 1781 2847 1869 
Q 2791 1978 2662 2040 
Q 2534 2103 2269 2103 
L 1338 2103 
L 1338 706 
Q 1338 425 1363 364 
Q 1388 303 1450 267 
Q 1513 231 1688 231 
L 2406 231 
Q 2766 231 2928 281 
Q 3091 331 3241 478 
Q 3434 672 3638 1063 
L 3763 1063 
L 3397 0 
L 131 0 
L 131 116 
L 281 116 
Q 431 116 566 188 
Q 666 238 702 338 
Q 738 438 738 747 
L 738 3500 
Q 738 3903 656 3997 
Q 544 4122 281 4122 
L 131 4122 
L 131 4238 
L 3397 4238 
L 3444 3309 
L 3322 3309 
Q 3256 3644 3176 3769 
Q 3097 3894 2941 3959 
Q 2816 4006 2500 4006 
L 1338 4006 
z
" transform="scale(0.015625)"/>
        <path id="TimesNewRomanPSMT-6d" d="M 1050 2338 
Q 1363 2650 1419 2697 
Q 1559 2816 1721 2881 
Q 1884 2947 2044 2947 
Q 2313 2947 2506 2790 
Q 2700 2634 2766 2338 
Q 3088 2713 3309 2830 
Q 3531 2947 3766 2947 
Q 3994 2947 4170 2830 
Q 4347 2713 4450 2447 
Q 4519 2266 4519 1878 
L 4519 647 
Q 4519 378 4559 278 
Q 4591 209 4675 161 
Q 4759 113 4950 113 
L 4950 0 
L 3538 0 
L 3538 113 
L 3597 113 
Q 3781 113 3884 184 
Q 3956 234 3988 344 
Q 4000 397 4000 647 
L 4000 1878 
Q 4000 2228 3916 2372 
Q 3794 2572 3525 2572 
Q 3359 2572 3192 2489 
Q 3025 2406 2788 2181 
L 2781 2147 
L 2788 2013 
L 2788 647 
Q 2788 353 2820 281 
Q 2853 209 2943 161 
Q 3034 113 3253 113 
L 3253 0 
L 1806 0 
L 1806 113 
Q 2044 113 2133 169 
Q 2222 225 2256 338 
Q 2272 391 2272 647 
L 2272 1878 
Q 2272 2228 2169 2381 
Q 2031 2581 1784 2581 
Q 1616 2581 1450 2491 
Q 1191 2353 1050 2181 
L 1050 647 
Q 1050 366 1089 281 
Q 1128 197 1204 155 
Q 1281 113 1516 113 
L 1516 0 
L 100 0 
L 100 113 
Q 297 113 375 155 
Q 453 197 493 289 
Q 534 381 534 647 
L 534 1741 
Q 534 2213 506 2350 
Q 484 2453 437 2492 
Q 391 2531 309 2531 
Q 222 2531 100 2484 
L 53 2597 
L 916 2947 
L 1050 2947 
L 1050 2338 
z
" transform="scale(0.015625)"/>
        <path id="TimesNewRomanPSMT-68" d="M 1041 4444 
L 1041 2350 
Q 1388 2731 1591 2839 
Q 1794 2947 1997 2947 
Q 2241 2947 2416 2812 
Q 2591 2678 2675 2391 
Q 2734 2191 2734 1659 
L 2734 647 
Q 2734 375 2778 275 
Q 2809 200 2884 156 
Q 2959 113 3159 113 
L 3159 0 
L 1753 0 
L 1753 113 
L 1819 113 
Q 2019 113 2097 173 
Q 2175 234 2206 353 
Q 2216 403 2216 647 
L 2216 1659 
Q 2216 2128 2167 2275 
Q 2119 2422 2012 2495 
Q 1906 2569 1756 2569 
Q 1603 2569 1437 2487 
Q 1272 2406 1041 2159 
L 1041 647 
Q 1041 353 1073 281 
Q 1106 209 1195 161 
Q 1284 113 1503 113 
L 1503 0 
L 84 0 
L 84 113 
Q 275 113 384 172 
Q 447 203 484 290 
Q 522 378 522 647 
L 522 3238 
Q 522 3728 498 3840 
Q 475 3953 426 3993 
Q 378 4034 297 4034 
Q 231 4034 84 3984 
L 41 4094 
L 897 4444 
L 1041 4444 
z
" transform="scale(0.015625)"/>
       </defs>
       <use xlink:href="#TimesNewRomanPSMT-45"/>
       <use xlink:href="#TimesNewRomanPSMT-6c" x="61.083984"/>
       <use xlink:href="#TimesNewRomanPSMT-6d" x="88.867188"/>
       <use xlink:href="#TimesNewRomanPSMT-68" x="166.650391"/>
       <use xlink:href="#TimesNewRomanPSMT-75" x="216.650391"/>
       <use xlink:href="#TimesNewRomanPSMT-72" x="266.650391"/>
       <use xlink:href="#TimesNewRomanPSMT-73" x="299.951172"/>
       <use xlink:href="#TimesNewRomanPSMT-74" x="338.867188"/>
      </g>
     </g>
    </g>
    <g id="xtick_5">
     <g id="line2d_5">
      <g>
       <use xlink:href="#m652d782744" x="390.035938" y="258.900181" style="stroke: #000000; stroke-width: 0.8"/>
      </g>
     </g>
     <g id="text_5">
      <!-- Ironwood -->
      <g transform="translate(355.229048 304.783983) rotate(-45) scale(0.12 -0.12)">
       <defs>
        <path id="TimesNewRomanPSMT-49" d="M 1975 116 
L 1975 0 
L 159 0 
L 159 116 
L 309 116 
Q 572 116 691 269 
Q 766 369 766 750 
L 766 3488 
Q 766 3809 725 3913 
Q 694 3991 597 4047 
Q 459 4122 309 4122 
L 159 4122 
L 159 4238 
L 1975 4238 
L 1975 4122 
L 1822 4122 
Q 1563 4122 1444 3969 
Q 1366 3869 1366 3488 
L 1366 750 
Q 1366 428 1406 325 
Q 1438 247 1538 191 
Q 1672 116 1822 116 
L 1975 116 
z
" transform="scale(0.015625)"/>
        <path id="TimesNewRomanPSMT-77" d="M 41 2863 
L 1241 2863 
L 1241 2747 
Q 1075 2734 1023 2687 
Q 972 2641 972 2553 
Q 972 2456 1025 2319 
L 1638 672 
L 2253 2013 
L 2091 2434 
Q 2016 2622 1894 2694 
Q 1825 2738 1638 2747 
L 1638 2863 
L 3000 2863 
L 3000 2747 
Q 2775 2738 2681 2666 
Q 2619 2616 2619 2506 
Q 2619 2444 2644 2378 
L 3294 734 
L 3897 2319 
Q 3959 2488 3959 2588 
Q 3959 2647 3898 2694 
Q 3838 2741 3659 2747 
L 3659 2863 
L 4563 2863 
L 4563 2747 
Q 4291 2706 4163 2378 
L 3206 -88 
L 3078 -88 
L 2363 1741 
L 1528 -88 
L 1413 -88 
L 494 2319 
Q 403 2547 315 2626 
Q 228 2706 41 2747 
L 41 2863 
z
" transform="scale(0.015625)"/>
       </defs>
       <use xlink:href="#TimesNewRomanPSMT-49"/>
       <use xlink:href="#TimesNewRomanPSMT-72" x="33.300781"/>
       <use xlink:href="#TimesNewRomanPSMT-6f" x="66.601562"/>
       <use xlink:href="#TimesNewRomanPSMT-6e" x="116.601562"/>
       <use xlink:href="#TimesNewRomanPSMT-77" x="166.601562"/>
       <use xlink:href="#TimesNewRomanPSMT-6f" x="238.818359"/>
       <use xlink:href="#TimesNewRomanPSMT-6f" x="288.818359"/>
       <use xlink:href="#TimesNewRomanPSMT-64" x="338.818359"/>
      </g>
     </g>
    </g>
   </g>
   <g id="matplotlib.axis_2">
    <g id="ytick_1">
     <g id="line2d_6">
      <defs>
       <path id="m992d453833" d="M 0 0 
L -3.5 0 
" style="stroke: #000000; stroke-width: 0.8"/>
      </defs>
      <g>
       <use xlink:href="#m992d453833" x="50.915938" y="256.252917" style="stroke: #000000; stroke-width: 0.8"/>
      </g>
     </g>
     <g id="text_6">
      <!-- 1000 -->
      <g transform="translate(23.915938 259.724792) scale(0.1 -0.1)">
       <defs>
        <path id="TimesNewRomanPSMT-31" d="M 750 3822 
L 1781 4325 
L 1884 4325 
L 1884 747 
Q 1884 391 1914 303 
Q 1944 216 2037 169 
Q 2131 122 2419 116 
L 2419 0 
L 825 0 
L 825 116 
Q 1125 122 1212 167 
Q 1300 213 1334 289 
Q 1369 366 1369 747 
L 1369 3034 
Q 1369 3497 1338 3628 
Q 1316 3728 1258 3775 
Q 1200 3822 1119 3822 
Q 1003 3822 797 3725 
L 750 3822 
z
" transform="scale(0.015625)"/>
        <path id="TimesNewRomanPSMT-30" d="M 231 2094 
Q 231 2819 450 3342 
Q 669 3866 1031 4122 
Q 1313 4325 1613 4325 
Q 2100 4325 2488 3828 
Q 2972 3213 2972 2159 
Q 2972 1422 2759 906 
Q 2547 391 2217 158 
Q 1888 -75 1581 -75 
Q 975 -75 572 641 
Q 231 1244 231 2094 
z
M 844 2016 
Q 844 1141 1059 588 
Q 1238 122 1591 122 
Q 1759 122 1940 273 
Q 2122 425 2216 781 
Q 2359 1319 2359 2297 
Q 2359 3022 2209 3506 
Q 2097 3866 1919 4016 
Q 1791 4119 1609 4119 
Q 1397 4119 1231 3928 
Q 1006 3669 925 3112 
Q 844 2556 844 2016 
z
" transform="scale(0.015625)"/>
       </defs>
       <use xlink:href="#TimesNewRomanPSMT-31"/>
       <use xlink:href="#TimesNewRomanPSMT-30" x="50"/>
       <use xlink:href="#TimesNewRomanPSMT-30" x="100"/>
       <use xlink:href="#TimesNewRomanPSMT-30" x="150"/>
      </g>
     </g>
    </g>
    <g id="ytick_2">
     <g id="line2d_7">
      <g>
       <use xlink:href="#m992d453833" x="50.915938" y="214.332675" style="stroke: #000000; stroke-width: 0.8"/>
      </g>
     </g>
     <g id="text_7">
      <!-- 2000 -->
      <g transform="translate(23.915938 217.80455) scale(0.1 -0.1)">
       <defs>
        <path id="TimesNewRomanPSMT-32" d="M 2934 816 
L 2638 0 
L 138 0 
L 138 116 
Q 1241 1122 1691 1759 
Q 2141 2397 2141 2925 
Q 2141 3328 1894 3587 
Q 1647 3847 1303 3847 
Q 991 3847 742 3664 
Q 494 3481 375 3128 
L 259 3128 
Q 338 3706 661 4015 
Q 984 4325 1469 4325 
Q 1984 4325 2329 3994 
Q 2675 3663 2675 3213 
Q 2675 2891 2525 2569 
Q 2294 2063 1775 1497 
Q 997 647 803 472 
L 1909 472 
Q 2247 472 2383 497 
Q 2519 522 2628 598 
Q 2738 675 2819 816 
L 2934 816 
z
" transform="scale(0.015625)"/>
       </defs>
       <use xlink:href="#TimesNewRomanPSMT-32"/>
       <use xlink:href="#TimesNewRomanPSMT-30" x="50"/>
       <use xlink:href="#TimesNewRomanPSMT-30" x="100"/>
       <use xlink:href="#TimesNewRomanPSMT-30" x="150"/>
      </g>
     </g>
    </g>
    <g id="ytick_3">
     <g id="line2d_8">
      <g>
       <use xlink:href="#m992d453833" x="50.915938" y="172.412432" style="stroke: #000000; stroke-width: 0.8"/>
      </g>
     </g>
     <g id="text_8">
      <!-- 3000 -->
      <g transform="translate(23.915938 175.884307) scale(0.1 -0.1)">
       <defs>
        <path id="TimesNewRomanPSMT-33" d="M 325 3431 
Q 506 3859 782 4092 
Q 1059 4325 1472 4325 
Q 1981 4325 2253 3994 
Q 2459 3747 2459 3466 
Q 2459 3003 1878 2509 
Q 2269 2356 2469 2072 
Q 2669 1788 2669 1403 
Q 2669 853 2319 450 
Q 1863 -75 997 -75 
Q 569 -75 414 31 
Q 259 138 259 259 
Q 259 350 332 419 
Q 406 488 509 488 
Q 588 488 669 463 
Q 722 447 909 348 
Q 1097 250 1169 231 
Q 1284 197 1416 197 
Q 1734 197 1970 444 
Q 2206 691 2206 1028 
Q 2206 1275 2097 1509 
Q 2016 1684 1919 1775 
Q 1784 1900 1550 2001 
Q 1316 2103 1072 2103 
L 972 2103 
L 972 2197 
Q 1219 2228 1467 2375 
Q 1716 2522 1828 2728 
Q 1941 2934 1941 3181 
Q 1941 3503 1739 3701 
Q 1538 3900 1238 3900 
Q 753 3900 428 3381 
L 325 3431 
z
" transform="scale(0.015625)"/>
       </defs>
       <use xlink:href="#TimesNewRomanPSMT-33"/>
       <use xlink:href="#TimesNewRomanPSMT-30" x="50"/>
       <use xlink:href="#TimesNewRomanPSMT-30" x="100"/>
       <use xlink:href="#TimesNewRomanPSMT-30" x="150"/>
      </g>
     </g>
    </g>
    <g id="ytick_4">
     <g id="line2d_9">
      <g>
       <use xlink:href="#m992d453833" x="50.915938" y="130.492189" style="stroke: #000000; stroke-width: 0.8"/>
      </g>
     </g>
     <g id="text_9">
      <!-- 4000 -->
      <g transform="translate(23.915938 133.964064) scale(0.1 -0.1)">
       <defs>
        <path id="TimesNewRomanPSMT-34" d="M 2978 1563 
L 2978 1119 
L 2409 1119 
L 2409 0 
L 1894 0 
L 1894 1119 
L 100 1119 
L 100 1519 
L 2066 4325 
L 2409 4325 
L 2409 1563 
L 2978 1563 
z
M 1894 1563 
L 1894 3666 
L 406 1563 
L 1894 1563 
z
" transform="scale(0.015625)"/>
       </defs>
       <use xlink:href="#TimesNewRomanPSMT-34"/>
       <use xlink:href="#TimesNewRomanPSMT-30" x="50"/>
       <use xlink:href="#TimesNewRomanPSMT-30" x="100"/>
       <use xlink:href="#TimesNewRomanPSMT-30" x="150"/>
      </g>
     </g>
    </g>
    <g id="ytick_5">
     <g id="line2d_10">
      <g>
       <use xlink:href="#m992d453833" x="50.915938" y="88.571947" style="stroke: #000000; stroke-width: 0.8"/>
      </g>
     </g>
     <g id="text_10">
      <!-- 5000 -->
      <g transform="translate(23.915938 92.043822) scale(0.1 -0.1)">
       <defs>
        <path id="TimesNewRomanPSMT-35" d="M 2778 4238 
L 2534 3706 
L 1259 3706 
L 981 3138 
Q 1809 3016 2294 2522 
Q 2709 2097 2709 1522 
Q 2709 1188 2573 903 
Q 2438 619 2231 419 
Q 2025 219 1772 97 
Q 1413 -75 1034 -75 
Q 653 -75 479 54 
Q 306 184 306 341 
Q 306 428 378 495 
Q 450 563 559 563 
Q 641 563 702 538 
Q 763 513 909 409 
Q 1144 247 1384 247 
Q 1750 247 2026 523 
Q 2303 800 2303 1197 
Q 2303 1581 2056 1914 
Q 1809 2247 1375 2428 
Q 1034 2569 447 2591 
L 1259 4238 
L 2778 4238 
z
" transform="scale(0.015625)"/>
       </defs>
       <use xlink:href="#TimesNewRomanPSMT-35"/>
       <use xlink:href="#TimesNewRomanPSMT-30" x="50"/>
       <use xlink:href="#TimesNewRomanPSMT-30" x="100"/>
       <use xlink:href="#TimesNewRomanPSMT-30" x="150"/>
      </g>
     </g>
    </g>
    <g id="ytick_6">
     <g id="line2d_11">
      <g>
       <use xlink:href="#m992d453833" x="50.915938" y="46.651704" style="stroke: #000000; stroke-width: 0.8"/>
      </g>
     </g>
     <g id="text_11">
      <!-- 6000 -->
      <g transform="translate(23.915938 50.123579) scale(0.1 -0.1)">
       <defs>
        <path id="TimesNewRomanPSMT-36" d="M 2869 4325 
L 2869 4209 
Q 2456 4169 2195 4045 
Q 1934 3922 1679 3669 
Q 1425 3416 1258 3105 
Q 1091 2794 978 2366 
Q 1428 2675 1881 2675 
Q 2316 2675 2634 2325 
Q 2953 1975 2953 1425 
Q 2953 894 2631 456 
Q 2244 -75 1606 -75 
Q 1172 -75 869 213 
Q 275 772 275 1663 
Q 275 2231 503 2743 
Q 731 3256 1154 3653 
Q 1578 4050 1965 4187 
Q 2353 4325 2688 4325 
L 2869 4325 
z
M 925 2138 
Q 869 1716 869 1456 
Q 869 1156 980 804 
Q 1091 453 1309 247 
Q 1469 100 1697 100 
Q 1969 100 2183 356 
Q 2397 613 2397 1088 
Q 2397 1622 2184 2012 
Q 1972 2403 1581 2403 
Q 1463 2403 1327 2353 
Q 1191 2303 925 2138 
z
" transform="scale(0.015625)"/>
       </defs>
       <use xlink:href="#TimesNewRomanPSMT-36"/>
       <use xlink:href="#TimesNewRomanPSMT-30" x="50"/>
       <use xlink:href="#TimesNewRomanPSMT-30" x="100"/>
       <use xlink:href="#TimesNewRomanPSMT-30" x="150"/>
      </g>
     </g>
    </g>
    <g id="text_12">
     <!-- MWh -->
     <g transform="translate(16.92125 160.804465) rotate(-90) scale(0.14 -0.14)">
      <defs>
       <path id="TimesNewRomanPSMT-4d" d="M 2619 0 
L 981 3566 
L 981 734 
Q 981 344 1066 247 
Q 1181 116 1431 116 
L 1581 116 
L 1581 0 
L 106 0 
L 106 116 
L 256 116 
Q 525 116 638 278 
Q 706 378 706 734 
L 706 3503 
Q 706 3784 644 3909 
Q 600 4000 483 4061 
Q 366 4122 106 4122 
L 106 4238 
L 1306 4238 
L 2844 922 
L 4356 4238 
L 5556 4238 
L 5556 4122 
L 5409 4122 
Q 5138 4122 5025 3959 
Q 4956 3859 4956 3503 
L 4956 734 
Q 4956 344 5044 247 
Q 5159 116 5409 116 
L 5556 116 
L 5556 0 
L 3756 0 
L 3756 116 
L 3906 116 
Q 4178 116 4288 278 
Q 4356 378 4356 734 
L 4356 3566 
L 2722 0 
L 2619 0 
z
" transform="scale(0.015625)"/>
       <path id="TimesNewRomanPSMT-57" d="M 5991 4238 
L 5991 4122 
Q 5825 4122 5722 4062 
Q 5619 4003 5525 3841 
Q 5463 3731 5328 3319 
L 4147 -97 
L 4022 -97 
L 3056 2613 
L 2097 -97 
L 1984 -97 
L 725 3422 
Q 584 3816 547 3888 
Q 484 4006 376 4064 
Q 269 4122 84 4122 
L 84 4238 
L 1653 4238 
L 1653 4122 
L 1578 4122 
Q 1413 4122 1325 4047 
Q 1238 3972 1238 3866 
Q 1238 3756 1375 3363 
L 2209 984 
L 2913 3006 
L 2788 3363 
L 2688 3647 
Q 2622 3803 2541 3922 
Q 2500 3981 2441 4022 
Q 2363 4078 2284 4103 
Q 2225 4122 2097 4122 
L 2097 4238 
L 3747 4238 
L 3747 4122 
L 3634 4122 
Q 3459 4122 3378 4047 
Q 3297 3972 3297 3844 
Q 3297 3684 3438 3288 
L 4250 984 
L 5056 3319 
Q 5194 3706 5194 3856 
Q 5194 3928 5148 3990 
Q 5103 4053 5034 4078 
Q 4916 4122 4725 4122 
L 4725 4238 
L 5991 4238 
z
" transform="scale(0.015625)"/>
      </defs>
      <use xlink:href="#TimesNewRomanPSMT-4d"/>
      <use xlink:href="#TimesNewRomanPSMT-57" x="88.916016"/>
      <use xlink:href="#TimesNewRomanPSMT-68" x="183.300781"/>
     </g>
    </g>
   </g>
   <g id="patch_3">
    <path d="M 84.074337 213.630511 
L 93.117538 213.630511 
L 93.117538 195.856328 
L 84.074337 195.856328 
L 84.074337 213.630511 
L 84.074337 213.630511 
z
" clip-path="url(#pfff2746ba0)" style="fill: none; stroke: #000000; stroke-linejoin: miter"/>
   </g>
   <g id="line2d_12">
    <path d="M 88.595938 213.630511 
L 88.595938 238.436814 
" clip-path="url(#pfff2746ba0)" style="fill: none; stroke: #000000; stroke-linecap: square"/>
   </g>
   <g id="line2d_13">
    <path d="M 88.595938 195.856328 
L 88.595938 174.801886 
" clip-path="url(#pfff2746ba0)" style="fill: none; stroke: #000000; stroke-linecap: square"/>
   </g>
   <g id="line2d_14">
    <path d="M 86.335138 238.436814 
L 90.856738 238.436814 
" clip-path="url(#pfff2746ba0)" style="fill: none; stroke: #000000; stroke-linecap: square"/>
   </g>
   <g id="line2d_15">
    <path d="M 86.335138 174.801886 
L 90.856738 174.801886 
" clip-path="url(#pfff2746ba0)" style="fill: none; stroke: #000000; stroke-linecap: square"/>
   </g>
   <g id="patch_4">
    <path d="M 159.434337 186.340433 
L 168.477538 186.340433 
L 168.477538 168.115607 
L 159.434337 168.115607 
L 159.434337 186.340433 
L 159.434337 186.340433 
z
" clip-path="url(#pfff2746ba0)" style="fill: none; stroke: #000000; stroke-linejoin: miter"/>
   </g>
   <g id="line2d_16">
    <path d="M 163.955938 186.340433 
L 163.955938 211.901301 
" clip-path="url(#pfff2746ba0)" style="fill: none; stroke: #000000; stroke-linecap: square"/>
   </g>
   <g id="line2d_17">
    <path d="M 163.955938 168.115607 
L 163.955938 148.266372 
" clip-path="url(#pfff2746ba0)" style="fill: none; stroke: #000000; stroke-linecap: square"/>
   </g>
   <g id="line2d_18">
    <path d="M 161.695138 211.901301 
L 166.216737 211.901301 
" clip-path="url(#pfff2746ba0)" style="fill: none; stroke: #000000; stroke-linecap: square"/>
   </g>
   <g id="line2d_19">
    <path d="M 161.695138 148.266372 
L 166.216737 148.266372 
" clip-path="url(#pfff2746ba0)" style="fill: none; stroke: #000000; stroke-linecap: square"/>
   </g>
   <g id="patch_5">
    <path d="M 234.794338 184.338741 
L 243.837537 184.338741 
L 243.837537 166.88944 
L 234.794338 166.88944 
L 234.794338 184.338741 
L 234.794338 184.338741 
z
" clip-path="url(#pfff2746ba0)" style="fill: none; stroke: #000000; stroke-linejoin: miter"/>
   </g>
   <g id="line2d_20">
    <path d="M 239.315937 184.338741 
L 239.315937 206.996632 
" clip-path="url(#pfff2746ba0)" style="fill: none; stroke: #000000; stroke-linecap: square"/>
   </g>
   <g id="line2d_21">
    <path d="M 239.315937 166.88944 
L 239.315937 143.110183 
" clip-path="url(#pfff2746ba0)" style="fill: none; stroke: #000000; stroke-linecap: square"/>
   </g>
   <g id="line2d_22">
    <path d="M 237.055138 206.996632 
L 241.576737 206.996632 
" clip-path="url(#pfff2746ba0)" style="fill: none; stroke: #000000; stroke-linecap: square"/>
   </g>
   <g id="line2d_23">
    <path d="M 237.055138 143.110183 
L 241.576737 143.110183 
" clip-path="url(#pfff2746ba0)" style="fill: none; stroke: #000000; stroke-linecap: square"/>
   </g>
   <g id="patch_6">
    <path d="M 310.154337 91.097641 
L 319.197537 91.097641 
L 319.197537 69.026634 
L 310.154337 69.026634 
L 310.154337 91.097641 
L 310.154337 91.097641 
z
" clip-path="url(#pfff2746ba0)" style="fill: none; stroke: #000000; stroke-linejoin: miter"/>
   </g>
   <g id="line2d_24">
    <path d="M 314.675938 91.097641 
L 314.675938 119.383325 
" clip-path="url(#pfff2746ba0)" style="fill: none; stroke: #000000; stroke-linecap: square"/>
   </g>
   <g id="line2d_25">
    <path d="M 314.675938 69.026634 
L 314.675938 40.447508 
" clip-path="url(#pfff2746ba0)" style="fill: none; stroke: #000000; stroke-linecap: square"/>
   </g>
   <g id="line2d_26">
    <path d="M 312.415138 119.383325 
L 316.936738 119.383325 
" clip-path="url(#pfff2746ba0)" style="fill: none; stroke: #000000; stroke-linecap: square"/>
   </g>
   <g id="line2d_27">
    <path d="M 312.415138 40.447508 
L 316.936738 40.447508 
" clip-path="url(#pfff2746ba0)" style="fill: none; stroke: #000000; stroke-linecap: square"/>
   </g>
   <g id="patch_7">
    <path d="M 385.514338 184.338741 
L 394.557537 184.338741 
L 394.557537 162.613575 
L 385.514338 162.613575 
L 385.514338 184.338741 
L 385.514338 184.338741 
z
" clip-path="url(#pfff2746ba0)" style="fill: none; stroke: #000000; stroke-linejoin: miter"/>
   </g>
   <g id="line2d_28">
    <path d="M 390.035938 184.338741 
L 390.035938 215.967564 
" clip-path="url(#pfff2746ba0)" style="fill: none; stroke: #000000; stroke-linecap: square"/>
   </g>
   <g id="line2d_29">
    <path d="M 390.035938 162.613575 
L 390.035938 133.133165 
" clip-path="url(#pfff2746ba0)" style="fill: none; stroke: #000000; stroke-linecap: square"/>
   </g>
   <g id="line2d_30">
    <path d="M 387.775138 215.967564 
L 392.296738 215.967564 
" clip-path="url(#pfff2746ba0)" style="fill: none; stroke: #000000; stroke-linecap: square"/>
   </g>
   <g id="line2d_31">
    <path d="M 387.775138 133.133165 
L 392.296738 133.133165 
" clip-path="url(#pfff2746ba0)" style="fill: none; stroke: #000000; stroke-linecap: square"/>
   </g>
   <g id="line2d_32">
    <path d="M 84.074337 205.403663 
L 93.117538 205.403663 
" clip-path="url(#pfff2746ba0)" style="fill: none; stroke: #000000; stroke-width: 1.5; stroke-linecap: square"/>
   </g>
   <g id="line2d_33">
    <path d="M 159.434337 177.2123 
L 168.477538 177.2123 
" clip-path="url(#pfff2746ba0)" style="fill: none; stroke: #000000; stroke-width: 1.5; stroke-linecap: square"/>
   </g>
   <g id="line2d_34">
    <path d="M 234.794338 177.317101 
L 243.837537 177.317101 
" clip-path="url(#pfff2746ba0)" style="fill: none; stroke: #000000; stroke-width: 1.5; stroke-linecap: square"/>
   </g>
   <g id="line2d_35">
    <path d="M 310.154337 81.759907 
L 319.197537 81.759907 
" clip-path="url(#pfff2746ba0)" style="fill: none; stroke: #000000; stroke-width: 1.5; stroke-linecap: square"/>
   </g>
   <g id="line2d_36">
    <path d="M 385.514338 170.40026 
L 394.557537 170.40026 
" clip-path="url(#pfff2746ba0)" style="fill: none; stroke: #000000; stroke-width: 1.5; stroke-linecap: square"/>
   </g>
   <g id="patch_8">
    <path d="M 50.915938 258.900181 
L 50.915938 30.045 
" style="fill: none; stroke: #000000; stroke-linejoin: miter; stroke-linecap: square"/>
   </g>
   <g id="patch_9">
    <path d="M 427.715937 258.900181 
L 427.715937 30.045 
" style="fill: none; stroke: #000000; stroke-linejoin: miter; stroke-linecap: square"/>
   </g>
   <g id="patch_10">
    <path d="M 50.915938 258.900181 
L 427.715937 258.900181 
" style="fill: none; stroke: #000000; stroke-linejoin: miter; stroke-linecap: square"/>
   </g>
   <g id="patch_11">
    <path d="M 50.915938 30.045 
L 427.715937 30.045 
" style="fill: none; stroke: #000000; stroke-linejoin: miter; stroke-linecap: square"/>
   </g>
   <g id="text_13">
    <!-- Data on daily energy consumption accross cities (MWh) -->
    <g transform="translate(49.025937 18.045) scale(0.16 -0.16)">
     <defs>
      <path id="TimesNewRomanPS-BoldMT-44" d="M 84 0 
L 84 116 
L 225 116 
Q 409 116 507 173 
Q 606 231 653 331 
Q 681 397 681 725 
L 681 3513 
Q 681 3838 647 3919 
Q 613 4000 508 4061 
Q 403 4122 225 4122 
L 84 4122 
L 84 4238 
L 1981 4238 
Q 2741 4238 3203 4031 
Q 3769 3778 4061 3265 
Q 4353 2753 4353 2106 
Q 4353 1659 4209 1282 
Q 4066 906 3837 661 
Q 3609 416 3311 267 
Q 3013 119 2581 38 
Q 2391 0 1981 0 
L 84 0 
z
M 1700 3997 
L 1700 691 
Q 1700 428 1725 368 
Q 1750 309 1809 278 
Q 1894 231 2053 231 
Q 2575 231 2850 588 
Q 3225 1069 3225 2081 
Q 3225 2897 2969 3384 
Q 2766 3766 2447 3903 
Q 2222 4000 1700 3997 
z
" transform="scale(0.015625)"/>
      <path id="TimesNewRomanPS-BoldMT-61" d="M 1828 431 
Q 1294 -41 869 -41 
Q 619 -41 453 123 
Q 288 288 288 534 
Q 288 869 575 1136 
Q 863 1403 1828 1847 
L 1828 2141 
Q 1828 2472 1792 2558 
Q 1756 2644 1656 2708 
Q 1556 2772 1431 2772 
Q 1228 2772 1097 2681 
Q 1016 2625 1016 2550 
Q 1016 2484 1103 2388 
Q 1222 2253 1222 2128 
Q 1222 1975 1108 1867 
Q 994 1759 809 1759 
Q 613 1759 480 1878 
Q 347 1997 347 2156 
Q 347 2381 525 2586 
Q 703 2791 1022 2900 
Q 1341 3009 1684 3009 
Q 2100 3009 2342 2832 
Q 2584 2656 2656 2450 
Q 2700 2319 2700 1847 
L 2700 713 
Q 2700 513 2715 461 
Q 2731 409 2762 384 
Q 2794 359 2834 359 
Q 2916 359 3000 475 
L 3094 400 
Q 2938 169 2770 64 
Q 2603 -41 2391 -41 
Q 2141 -41 2000 76 
Q 1859 194 1828 431 
z
M 1828 659 
L 1828 1638 
Q 1450 1416 1266 1163 
Q 1144 994 1144 822 
Q 1144 678 1247 569 
Q 1325 484 1466 484 
Q 1622 484 1828 659 
z
" transform="scale(0.015625)"/>
      <path id="TimesNewRomanPS-BoldMT-74" d="M 1375 3991 
L 1375 2922 
L 2069 2922 
L 2069 2613 
L 1375 2613 
L 1375 809 
Q 1375 556 1398 482 
Q 1422 409 1481 364 
Q 1541 319 1591 319 
Q 1794 319 1975 628 
L 2069 559 
Q 1816 -41 1247 -41 
Q 969 -41 776 114 
Q 584 269 531 459 
Q 500 566 500 1034 
L 500 2613 
L 119 2613 
L 119 2722 
Q 513 3000 789 3306 
Q 1066 3613 1272 3991 
L 1375 3991 
z
" transform="scale(0.015625)"/>
      <path id="TimesNewRomanPS-BoldMT-20" transform="scale(0.015625)"/>
      <path id="TimesNewRomanPS-BoldMT-6f" d="M 1594 3009 
Q 1975 3009 2303 2812 
Q 2631 2616 2801 2253 
Q 2972 1891 2972 1459 
Q 2972 838 2656 419 
Q 2275 -88 1603 -88 
Q 944 -88 587 375 
Q 231 838 231 1447 
Q 231 2075 595 2542 
Q 959 3009 1594 3009 
z
M 1606 2788 
Q 1447 2788 1333 2667 
Q 1219 2547 1183 2192 
Q 1147 1838 1147 1206 
Q 1147 872 1191 581 
Q 1225 359 1337 243 
Q 1450 128 1594 128 
Q 1734 128 1828 206 
Q 1950 313 1991 503 
Q 2053 800 2053 1703 
Q 2053 2234 1993 2432 
Q 1934 2631 1819 2722 
Q 1738 2788 1606 2788 
z
" transform="scale(0.015625)"/>
      <path id="TimesNewRomanPS-BoldMT-6e" d="M 1409 2922 
L 1409 2544 
Q 1634 2788 1840 2898 
Q 2047 3009 2284 3009 
Q 2569 3009 2756 2851 
Q 2944 2694 3006 2459 
Q 3056 2281 3056 1775 
L 3056 638 
Q 3056 300 3117 217 
Q 3178 134 3372 113 
L 3372 0 
L 1894 0 
L 1894 113 
Q 2059 134 2131 250 
Q 2181 328 2181 638 
L 2181 1938 
Q 2181 2297 2153 2390 
Q 2125 2484 2058 2536 
Q 1991 2588 1909 2588 
Q 1641 2588 1409 2203 
L 1409 638 
Q 1409 309 1470 221 
Q 1531 134 1697 113 
L 1697 0 
L 219 0 
L 219 113 
Q 403 131 481 231 
Q 534 300 534 638 
L 534 2288 
Q 534 2619 473 2700 
Q 413 2781 219 2806 
L 219 2922 
L 1409 2922 
z
" transform="scale(0.015625)"/>
      <path id="TimesNewRomanPS-BoldMT-64" d="M 3056 4238 
L 3056 875 
Q 3056 534 3075 472 
Q 3100 369 3170 319 
Q 3241 269 3416 256 
L 3416 153 
L 2181 -88 
L 2181 375 
Q 1959 106 1786 9 
Q 1613 -88 1394 -88 
Q 834 -88 509 413 
Q 247 819 247 1409 
Q 247 1881 409 2254 
Q 572 2628 855 2818 
Q 1138 3009 1463 3009 
Q 1672 3009 1834 2928 
Q 1997 2847 2181 2644 
L 2181 3525 
Q 2181 3859 2153 3928 
Q 2116 4019 2041 4062 
Q 1966 4106 1759 4106 
L 1759 4238 
L 3056 4238 
z
M 2181 2256 
Q 1950 2700 1616 2700 
Q 1500 2700 1425 2638 
Q 1309 2541 1236 2297 
Q 1163 2053 1163 1550 
Q 1163 997 1244 731 
Q 1325 466 1466 347 
Q 1538 288 1663 288 
Q 1938 288 2181 719 
L 2181 2256 
z
" transform="scale(0.015625)"/>
      <path id="TimesNewRomanPS-BoldMT-69" d="M 919 4338 
Q 1122 4338 1262 4195 
Q 1403 4053 1403 3853 
Q 1403 3653 1261 3512 
Q 1119 3372 919 3372 
Q 719 3372 578 3512 
Q 438 3653 438 3853 
Q 438 4053 578 4195 
Q 719 4338 919 4338 
z
M 1356 2922 
L 1356 606 
Q 1356 297 1428 211 
Q 1500 125 1709 113 
L 1709 0 
L 131 0 
L 131 113 
Q 325 119 419 225 
Q 481 297 481 606 
L 481 2313 
Q 481 2622 409 2708 
Q 338 2794 131 2806 
L 131 2922 
L 1356 2922 
z
" transform="scale(0.015625)"/>
      <path id="TimesNewRomanPS-BoldMT-6c" d="M 1359 4238 
L 1359 606 
Q 1359 297 1431 211 
Q 1503 125 1713 113 
L 1713 0 
L 134 0 
L 134 113 
Q 328 119 422 225 
Q 484 297 484 606 
L 484 3631 
Q 484 3938 412 4023 
Q 341 4109 134 4122 
L 134 4238 
L 1359 4238 
z
" transform="scale(0.015625)"/>
      <path id="TimesNewRomanPS-BoldMT-79" d="M 1556 -119 
L 613 2047 
Q 400 2538 298 2650 
Q 197 2763 53 2806 
L 53 2922 
L 1606 2922 
L 1606 2806 
Q 1453 2800 1390 2747 
Q 1328 2694 1328 2619 
Q 1328 2500 1484 2150 
L 1984 1006 
L 2325 1891 
Q 2509 2363 2509 2547 
Q 2509 2663 2432 2731 
Q 2356 2800 2163 2806 
L 2163 2922 
L 3141 2922 
L 3141 2806 
Q 2997 2791 2906 2695 
Q 2816 2600 2603 2047 
L 1769 -119 
Q 1453 -931 1300 -1119 
Q 1084 -1381 759 -1381 
Q 500 -1381 339 -1232 
Q 178 -1084 178 -875 
Q 178 -694 289 -575 
Q 400 -456 563 -456 
Q 719 -456 814 -556 
Q 909 -656 913 -866 
Q 916 -984 941 -1019 
Q 966 -1053 1013 -1053 
Q 1088 -1053 1172 -963 
Q 1297 -831 1466 -363 
L 1556 -119 
z
" transform="scale(0.015625)"/>
      <path id="TimesNewRomanPS-BoldMT-65" d="M 2691 1566 
L 1088 1566 
Q 1116 984 1397 647 
Q 1613 388 1916 388 
Q 2103 388 2256 492 
Q 2409 597 2584 869 
L 2691 800 
Q 2453 316 2165 114 
Q 1878 -88 1500 -88 
Q 850 -88 516 413 
Q 247 816 247 1413 
Q 247 2144 642 2576 
Q 1038 3009 1569 3009 
Q 2013 3009 2339 2645 
Q 2666 2281 2691 1566 
z
M 1922 1775 
Q 1922 2278 1867 2465 
Q 1813 2653 1697 2750 
Q 1631 2806 1522 2806 
Q 1359 2806 1256 2647 
Q 1072 2369 1072 1884 
L 1072 1775 
L 1922 1775 
z
" transform="scale(0.015625)"/>
      <path id="TimesNewRomanPS-BoldMT-72" d="M 1428 2922 
L 1428 2259 
Q 1719 2713 1937 2861 
Q 2156 3009 2359 3009 
Q 2534 3009 2639 2901 
Q 2744 2794 2744 2597 
Q 2744 2388 2642 2272 
Q 2541 2156 2397 2156 
Q 2231 2156 2109 2262 
Q 1988 2369 1966 2381 
Q 1934 2400 1894 2400 
Q 1803 2400 1722 2331 
Q 1594 2225 1528 2028 
Q 1428 1725 1428 1359 
L 1428 688 
L 1431 513 
Q 1431 334 1453 284 
Q 1491 200 1564 161 
Q 1638 122 1813 113 
L 1813 0 
L 234 0 
L 234 113 
Q 425 128 492 217 
Q 559 306 559 688 
L 559 2303 
Q 559 2553 534 2622 
Q 503 2709 443 2750 
Q 384 2791 234 2806 
L 234 2922 
L 1428 2922 
z
" transform="scale(0.015625)"/>
      <path id="TimesNewRomanPS-BoldMT-67" d="M 2091 2888 
L 3075 2888 
L 3075 2544 
L 2516 2544 
Q 2669 2391 2728 2266 
Q 2803 2097 2803 1913 
Q 2803 1600 2629 1370 
Q 2456 1141 2157 1011 
Q 1859 881 1628 881 
Q 1609 881 1253 897 
Q 1113 897 1017 805 
Q 922 713 922 584 
Q 922 472 1008 400 
Q 1094 328 1288 328 
L 1828 334 
Q 2484 334 2731 191 
Q 3084 -9 3084 -425 
Q 3084 -691 2921 -908 
Q 2759 -1125 2494 -1228 
Q 2091 -1381 1566 -1381 
Q 1172 -1381 847 -1304 
Q 522 -1228 381 -1092 
Q 241 -956 241 -806 
Q 241 -663 348 -548 
Q 456 -434 750 -356 
Q 344 -156 344 200 
Q 344 416 509 619 
Q 675 822 1034 972 
Q 616 1125 428 1375 
Q 241 1625 241 1953 
Q 241 2381 591 2695 
Q 941 3009 1491 3009 
Q 1781 3009 2091 2888 
z
M 1550 2816 
Q 1369 2816 1244 2633 
Q 1119 2450 1119 1875 
Q 1119 1409 1242 1236 
Q 1366 1063 1534 1063 
Q 1722 1063 1847 1234 
Q 1972 1406 1972 1903 
Q 1972 2463 1831 2666 
Q 1731 2816 1550 2816 
z
M 1366 -431 
Q 1047 -431 944 -484 
Q 766 -581 766 -747 
Q 766 -906 950 -1036 
Q 1134 -1166 1644 -1166 
Q 2078 -1166 2326 -1050 
Q 2575 -934 2575 -725 
Q 2575 -647 2528 -594 
Q 2444 -500 2273 -465 
Q 2103 -431 1366 -431 
z
" transform="scale(0.015625)"/>
      <path id="TimesNewRomanPS-BoldMT-63" d="M 2600 753 
L 2697 678 
Q 2491 291 2183 101 
Q 1875 -88 1528 -88 
Q 944 -88 594 353 
Q 244 794 244 1413 
Q 244 2009 563 2463 
Q 947 3009 1622 3009 
Q 2075 3009 2342 2781 
Q 2609 2553 2609 2272 
Q 2609 2094 2501 1987 
Q 2394 1881 2219 1881 
Q 2034 1881 1914 2003 
Q 1794 2125 1766 2438 
Q 1747 2634 1675 2713 
Q 1603 2791 1506 2791 
Q 1356 2791 1250 2631 
Q 1088 2391 1088 1894 
Q 1088 1481 1219 1104 
Q 1350 728 1578 544 
Q 1750 409 1984 409 
Q 2138 409 2275 481 
Q 2413 553 2600 753 
z
" transform="scale(0.015625)"/>
      <path id="TimesNewRomanPS-BoldMT-73" d="M 2063 3003 
L 2109 2006 
L 2003 2006 
Q 1813 2450 1608 2612 
Q 1403 2775 1200 2775 
Q 1072 2775 981 2689 
Q 891 2603 891 2491 
Q 891 2406 953 2328 
Q 1053 2200 1512 1889 
Q 1972 1578 2117 1361 
Q 2263 1144 2263 875 
Q 2263 631 2141 397 
Q 2019 163 1797 37 
Q 1575 -88 1306 -88 
Q 1097 -88 747 44 
Q 653 78 619 78 
Q 516 78 447 -78 
L 344 -78 
L 294 972 
L 400 972 
Q 541 559 786 353 
Q 1031 147 1250 147 
Q 1400 147 1495 239 
Q 1591 331 1591 463 
Q 1591 613 1497 722 
Q 1403 831 1078 1053 
Q 600 1384 459 1559 
Q 253 1816 253 2125 
Q 253 2463 486 2736 
Q 719 3009 1159 3009 
Q 1397 3009 1619 2894 
Q 1703 2847 1756 2847 
Q 1813 2847 1847 2870 
Q 1881 2894 1956 3003 
L 2063 3003 
z
" transform="scale(0.015625)"/>
      <path id="TimesNewRomanPS-BoldMT-75" d="M 3038 2922 
L 3038 634 
Q 3038 300 3100 217 
Q 3163 134 3353 113 
L 3353 0 
L 2163 0 
L 2163 391 
Q 1953 141 1743 26 
Q 1534 -88 1275 -88 
Q 1028 -88 836 64 
Q 644 216 578 419 
Q 513 622 513 1128 
L 513 2288 
Q 513 2619 452 2700 
Q 391 2781 197 2806 
L 197 2922 
L 1388 2922 
L 1388 925 
Q 1388 613 1417 522 
Q 1447 431 1511 384 
Q 1575 338 1659 338 
Q 1772 338 1863 397 
Q 1988 478 2163 725 
L 2163 2288 
Q 2163 2619 2102 2700 
Q 2041 2781 1847 2806 
L 1847 2922 
L 3038 2922 
z
" transform="scale(0.015625)"/>
      <path id="TimesNewRomanPS-BoldMT-6d" d="M 1428 2922 
L 1428 2538 
Q 1669 2800 1873 2904 
Q 2078 3009 2322 3009 
Q 2603 3009 2793 2878 
Q 2984 2747 3088 2478 
Q 3338 2759 3567 2884 
Q 3797 3009 4047 3009 
Q 4350 3009 4529 2870 
Q 4709 2731 4779 2517 
Q 4850 2303 4850 1834 
L 4850 638 
Q 4850 300 4911 219 
Q 4972 138 5166 113 
L 5166 0 
L 3656 0 
L 3656 113 
Q 3834 128 3919 250 
Q 3975 334 3975 638 
L 3975 1894 
Q 3975 2284 3944 2390 
Q 3913 2497 3845 2548 
Q 3778 2600 3688 2600 
Q 3553 2600 3415 2501 
Q 3278 2403 3138 2206 
L 3138 638 
Q 3138 322 3191 241 
Q 3263 125 3466 113 
L 3466 0 
L 1953 0 
L 1953 113 
Q 2075 119 2145 173 
Q 2216 228 2239 304 
Q 2263 381 2263 638 
L 2263 1894 
Q 2263 2291 2231 2391 
Q 2200 2491 2126 2547 
Q 2053 2603 1969 2603 
Q 1844 2603 1741 2538 
Q 1594 2441 1428 2206 
L 1428 638 
Q 1428 328 1489 229 
Q 1550 131 1744 113 
L 1744 0 
L 238 0 
L 238 113 
Q 422 131 500 231 
Q 553 300 553 638 
L 553 2288 
Q 553 2619 492 2700 
Q 431 2781 238 2806 
L 238 2922 
L 1428 2922 
z
" transform="scale(0.015625)"/>
      <path id="TimesNewRomanPS-BoldMT-70" d="M 1347 297 
L 1347 -791 
Q 1347 -1016 1383 -1097 
Q 1419 -1178 1494 -1215 
Q 1569 -1253 1788 -1253 
L 1788 -1369 
L 122 -1369 
L 122 -1253 
Q 316 -1247 409 -1144 
Q 472 -1072 472 -772 
L 472 2313 
Q 472 2622 400 2708 
Q 328 2794 122 2806 
L 122 2922 
L 1347 2922 
L 1347 2538 
Q 1500 2763 1659 2863 
Q 1888 3009 2156 3009 
Q 2478 3009 2742 2806 
Q 3006 2603 3143 2245 
Q 3281 1888 3281 1475 
Q 3281 1031 3139 664 
Q 2997 297 2726 104 
Q 2456 -88 2125 -88 
Q 1884 -88 1675 19 
Q 1519 100 1347 297 
z
M 1347 613 
Q 1616 231 1922 231 
Q 2091 231 2200 409 
Q 2363 672 2363 1409 
Q 2363 2166 2184 2444 
Q 2066 2628 1866 2628 
Q 1550 2628 1347 2172 
L 1347 613 
z
" transform="scale(0.015625)"/>
      <path id="TimesNewRomanPS-BoldMT-28" d="M 2056 4334 
L 2056 4191 
Q 1731 3978 1578 3775 
Q 1366 3494 1247 3053 
Q 1097 2506 1097 1525 
Q 1097 600 1233 87 
Q 1369 -425 1603 -741 
Q 1766 -959 2056 -1125 
L 2056 -1281 
Q 1303 -1028 779 -248 
Q 256 531 256 1544 
Q 256 2544 778 3314 
Q 1300 4084 2056 4334 
z
" transform="scale(0.015625)"/>
      <path id="TimesNewRomanPS-BoldMT-4d" d="M 3050 1444 
L 4200 4238 
L 5925 4238 
L 5925 4122 
L 5788 4122 
Q 5600 4122 5488 4056 
Q 5409 4013 5363 3909 
Q 5328 3834 5328 3519 
L 5328 725 
Q 5328 400 5362 319 
Q 5397 238 5503 177 
Q 5609 116 5788 116 
L 5925 116 
L 5925 0 
L 3713 0 
L 3713 116 
L 3850 116 
Q 4038 116 4150 181 
Q 4228 225 4275 331 
Q 4309 406 4309 725 
L 4309 3866 
L 2684 0 
L 2609 0 
L 959 3838 
L 959 853 
Q 959 541 975 469 
Q 1016 313 1152 214 
Q 1288 116 1578 116 
L 1578 0 
L 128 0 
L 128 116 
L 172 116 
Q 313 113 434 161 
Q 556 209 618 290 
Q 681 372 716 519 
Q 722 553 722 838 
L 722 3519 
Q 722 3841 687 3920 
Q 653 4000 547 4061 
Q 441 4122 263 4122 
L 128 4122 
L 128 4238 
L 1859 4238 
L 3050 1444 
z
" transform="scale(0.015625)"/>
      <path id="TimesNewRomanPS-BoldMT-57" d="M 6344 4238 
L 6344 4122 
Q 6225 4113 6144 4056 
Q 6063 4000 6000 3884 
Q 5981 3847 5803 3400 
L 4475 -97 
L 4353 -97 
L 3303 2634 
L 2147 -97 
L 2031 -97 
L 638 3363 
Q 425 3884 340 3993 
Q 256 4103 56 4122 
L 56 4238 
L 1894 4238 
L 1894 4122 
Q 1672 4116 1598 4055 
Q 1525 3994 1525 3903 
Q 1525 3784 1678 3400 
L 2509 1344 
L 3175 2950 
L 3000 3400 
Q 2856 3769 2778 3892 
Q 2700 4016 2598 4069 
Q 2497 4122 2300 4122 
L 2300 4238 
L 4353 4238 
L 4353 4122 
Q 4138 4119 4044 4088 
Q 3978 4066 3940 4014 
Q 3903 3963 3903 3897 
Q 3903 3825 4044 3456 
L 4816 1450 
L 5506 3266 
Q 5616 3547 5641 3650 
Q 5666 3753 5666 3841 
Q 5666 3969 5578 4042 
Q 5491 4116 5244 4122 
L 5244 4238 
L 6344 4238 
z
" transform="scale(0.015625)"/>
      <path id="TimesNewRomanPS-BoldMT-68" d="M 1409 4238 
L 1409 2547 
Q 1650 2800 1850 2904 
Q 2050 3009 2266 3009 
Q 2541 3009 2736 2853 
Q 2931 2697 2995 2486 
Q 3059 2275 3059 1775 
L 3059 634 
Q 3059 300 3121 217 
Q 3184 134 3375 113 
L 3375 0 
L 1894 0 
L 1894 113 
Q 2050 134 2128 238 
Q 2184 319 2184 634 
L 2184 1938 
Q 2184 2300 2156 2392 
Q 2128 2484 2061 2536 
Q 1994 2588 1909 2588 
Q 1784 2588 1665 2502 
Q 1547 2416 1409 2200 
L 1409 634 
Q 1409 322 1456 244 
Q 1516 138 1700 113 
L 1700 0 
L 219 0 
L 219 113 
Q 403 131 481 231 
Q 534 300 534 634 
L 534 3603 
Q 534 3934 473 4015 
Q 413 4097 219 4122 
L 219 4238 
L 1409 4238 
z
" transform="scale(0.015625)"/>
      <path id="TimesNewRomanPS-BoldMT-29" d="M 78 -1281 
L 78 -1138 
Q 403 -922 556 -719 
Q 766 -438 888 0 
Q 1038 550 1038 1531 
Q 1038 2456 902 2967 
Q 766 3478 531 3794 
Q 369 4013 78 4178 
L 78 4334 
Q 831 4081 1354 3301 
Q 1878 2522 1878 1509 
Q 1878 513 1354 -257 
Q 831 -1028 78 -1281 
z
" transform="scale(0.015625)"/>
     </defs>
     <use xlink:href="#TimesNewRomanPS-BoldMT-44"/>
     <use xlink:href="#TimesNewRomanPS-BoldMT-61" x="72.216797"/>
     <use xlink:href="#TimesNewRomanPS-BoldMT-74" x="122.216797"/>
     <use xlink:href="#TimesNewRomanPS-BoldMT-61" x="155.517578"/>
     <use xlink:href="#TimesNewRomanPS-BoldMT-20" x="205.517578"/>
     <use xlink:href="#TimesNewRomanPS-BoldMT-6f" x="230.517578"/>
     <use xlink:href="#TimesNewRomanPS-BoldMT-6e" x="280.517578"/>
     <use xlink:href="#TimesNewRomanPS-BoldMT-20" x="336.132812"/>
     <use xlink:href="#TimesNewRomanPS-BoldMT-64" x="361.132812"/>
     <use xlink:href="#TimesNewRomanPS-BoldMT-61" x="416.748047"/>
     <use xlink:href="#TimesNewRomanPS-BoldMT-69" x="466.748047"/>
     <use xlink:href="#TimesNewRomanPS-BoldMT-6c" x="494.53125"/>
     <use xlink:href="#TimesNewRomanPS-BoldMT-79" x="522.314453"/>
     <use xlink:href="#TimesNewRomanPS-BoldMT-20" x="572.314453"/>
     <use xlink:href="#TimesNewRomanPS-BoldMT-65" x="597.314453"/>
     <use xlink:href="#TimesNewRomanPS-BoldMT-6e" x="641.699219"/>
     <use xlink:href="#TimesNewRomanPS-BoldMT-65" x="697.314453"/>
     <use xlink:href="#TimesNewRomanPS-BoldMT-72" x="741.699219"/>
     <use xlink:href="#TimesNewRomanPS-BoldMT-67" x="786.083984"/>
     <use xlink:href="#TimesNewRomanPS-BoldMT-79" x="836.083984"/>
     <use xlink:href="#TimesNewRomanPS-BoldMT-20" x="886.083984"/>
     <use xlink:href="#TimesNewRomanPS-BoldMT-63" x="911.083984"/>
     <use xlink:href="#TimesNewRomanPS-BoldMT-6f" x="955.46875"/>
     <use xlink:href="#TimesNewRomanPS-BoldMT-6e" x="1005.46875"/>
     <use xlink:href="#TimesNewRomanPS-BoldMT-73" x="1061.083984"/>
     <use xlink:href="#TimesNewRomanPS-BoldMT-75" x="1100"/>
     <use xlink:href="#TimesNewRomanPS-BoldMT-6d" x="1155.615234"/>
     <use xlink:href="#TimesNewRomanPS-BoldMT-70" x="1238.916016"/>
     <use xlink:href="#TimesNewRomanPS-BoldMT-74" x="1294.53125"/>
     <use xlink:href="#TimesNewRomanPS-BoldMT-69" x="1327.832031"/>
     <use xlink:href="#TimesNewRomanPS-BoldMT-6f" x="1355.615234"/>
     <use xlink:href="#TimesNewRomanPS-BoldMT-6e" x="1405.615234"/>
     <use xlink:href="#TimesNewRomanPS-BoldMT-20" x="1461.230469"/>
     <use xlink:href="#TimesNewRomanPS-BoldMT-61" x="1486.230469"/>
     <use xlink:href="#TimesNewRomanPS-BoldMT-63" x="1536.230469"/>
     <use xlink:href="#TimesNewRomanPS-BoldMT-63" x="1580.615234"/>
     <use xlink:href="#TimesNewRomanPS-BoldMT-72" x="1625"/>
     <use xlink:href="#TimesNewRomanPS-BoldMT-6f" x="1667.634766"/>
     <use xlink:href="#TimesNewRomanPS-BoldMT-73" x="1717.634766"/>
     <use xlink:href="#TimesNewRomanPS-BoldMT-73" x="1756.550781"/>
     <use xlink:href="#TimesNewRomanPS-BoldMT-20" x="1795.466797"/>
     <use xlink:href="#TimesNewRomanPS-BoldMT-63" x="1820.466797"/>
     <use xlink:href="#TimesNewRomanPS-BoldMT-69" x="1864.851562"/>
     <use xlink:href="#TimesNewRomanPS-BoldMT-74" x="1892.634766"/>
     <use xlink:href="#TimesNewRomanPS-BoldMT-69" x="1925.935547"/>
     <use xlink:href="#TimesNewRomanPS-BoldMT-65" x="1953.71875"/>
     <use xlink:href="#TimesNewRomanPS-BoldMT-73" x="1998.103516"/>
     <use xlink:href="#TimesNewRomanPS-BoldMT-20" x="2037.019531"/>
     <use xlink:href="#TimesNewRomanPS-BoldMT-28" x="2062.019531"/>
     <use xlink:href="#TimesNewRomanPS-BoldMT-4d" x="2095.320312"/>
     <use xlink:href="#TimesNewRomanPS-BoldMT-57" x="2189.705078"/>
     <use xlink:href="#TimesNewRomanPS-BoldMT-68" x="2289.705078"/>
     <use xlink:href="#TimesNewRomanPS-BoldMT-29" x="2345.320312"/>
    </g>
   </g>
  </g>
 </g>
 <defs>
  <clipPath id="pfff2746ba0">
   <rect x="50.915938" y="30.045" width="376.8" height="228.855181"/>
  </clipPath>
 </defs>
</svg>
