<?xml version="1.0" encoding="utf-8" standalone="no"?>
<!DOCTYPE svg PUBLIC "-//W3C//DTD SVG 1.1//EN"
  "http://www.w3.org/Graphics/SVG/1.1/DTD/svg11.dtd">
<svg xmlns:xlink="http://www.w3.org/1999/xlink" width="436.805937pt" height="319.991967pt" viewBox="0 0 436.805937 319.991967" xmlns="http://www.w3.org/2000/svg" version="1.1">
 <metadata>
  <rdf:RDF xmlns:dc="http://purl.org/dc/elements/1.1/" xmlns:cc="http://creativecommons.org/ns#" xmlns:rdf="http://www.w3.org/1999/02/22-rdf-syntax-ns#">
   <cc:Work>
    <dc:type rdf:resource="http://purl.org/dc/dcmitype/StillImage"/>
    <dc:date>2025-05-26T17:46:35.788515</dc:date>
    <dc:format>image/svg+xml</dc:format>
    <dc:creator>
     <cc:Agent>
      <dc:title>Matplotlib v3.7.2, https://matplotlib.org/</dc:title>
     </cc:Agent>
    </dc:creator>
   </cc:Work>
  </rdf:RDF>
 </metadata>
 <defs>
  <style type="text/css">*{stroke-linejoin: round; stroke-linecap: butt}</style>
 </defs>
 <g id="figure_1">
  <g id="patch_1">
   <path d="M 0 319.991967 
L 436.805937 319.991967 
L 436.805937 0 
L 0 0 
z
" style="fill: #ffffff"/>
  </g>
  <g id="axes_1">
   <g id="patch_2">
    <path d="M 50.915938 264.139842 
L 427.715937 264.139842 
L 427.715937 30.045 
L 50.915938 30.045 
z
" style="fill: #ffffff"/>
   </g>
   <g id="PolyCollection_1">
    <defs>
     <path id="m5c016a37ba" d="M 89.458076 -66.4928 
L 87.733799 -66.4928 
L 87.675786 -67.18226 
L 87.611022 -67.87172 
L 87.534751 -68.56118 
L 87.441612 -69.25064 
L 87.326019 -69.9401 
L 87.182613 -70.62956 
L 87.006745 -71.31902 
L 86.794929 -72.00848 
L 86.545231 -72.69794 
L 86.257528 -73.3874 
L 85.933616 -74.07686 
L 85.577134 -74.76632 
L 85.193312 -75.45578 
L 84.788555 -76.14524 
L 84.369907 -76.8347 
L 83.944444 -77.52416 
L 83.518656 -78.21362 
L 83.097871 -78.903081 
L 82.685791 -79.592541 
L 82.284144 -80.282001 
L 81.892502 -80.971461 
L 81.508241 -81.660921 
L 81.12663 -82.350381 
L 80.741042 -83.039841 
L 80.343224 -83.729301 
L 79.923639 -84.418761 
L 79.471848 -85.108221 
L 78.976928 -85.797681 
L 78.427945 -86.487141 
L 77.814482 -87.176601 
L 77.12723 -87.866061 
L 76.358638 -88.555521 
L 75.503591 -89.244981 
L 74.560079 -89.934441 
L 73.529794 -90.623901 
L 72.418584 -91.313361 
L 71.236699 -92.002822 
L 69.99876 -92.692282 
L 68.72343 -93.381742 
L 67.432758 -94.071202 
L 66.151236 -94.760662 
L 64.904625 -95.450122 
L 63.718619 -96.139582 
L 62.61746 -96.829042 
L 61.622616 -97.518502 
L 60.751612 -98.207962 
L 60.017121 -98.897422 
L 59.426367 -99.586882 
L 58.980902 -100.276342 
L 58.676738 -100.965802 
L 58.504844 -101.655262 
L 58.451938 -102.344722 
L 58.501518 -103.034182 
L 58.635065 -103.723642 
L 58.833316 -104.413102 
L 59.077545 -105.102563 
L 59.350771 -105.792023 
L 59.638831 -106.481483 
L 59.931259 -107.170943 
L 60.221919 -107.860403 
L 60.509357 -108.549863 
L 60.796818 -109.239323 
L 61.091924 -109.928783 
L 61.405988 -110.618243 
L 61.752989 -111.307703 
L 62.148257 -111.997163 
L 62.606969 -112.686623 
L 63.142559 -113.376083 
L 63.765216 -114.065543 
L 64.480622 -114.755003 
L 65.289084 -115.444463 
L 66.185172 -116.133923 
L 67.157921 -116.823383 
L 68.191583 -117.512843 
L 69.266847 -118.202304 
L 70.362375 -118.891764 
L 71.456469 -119.581224 
L 72.528672 -120.270684 
L 73.561135 -120.960144 
L 74.539604 -121.649604 
L 75.453981 -122.339064 
L 76.298445 -123.028524 
L 77.07121 -123.717984 
L 77.773998 -124.407444 
L 78.411359 -125.096904 
L 78.989948 -125.786364 
L 79.517818 -126.475824 
L 80.003813 -127.165284 
L 80.457041 -127.854744 
L 80.886436 -128.544204 
L 81.300386 -129.233664 
L 81.706388 -129.923124 
L 82.110735 -130.612584 
L 82.518238 -131.302045 
L 82.931998 -131.991505 
L 83.353262 -132.680965 
L 83.781396 -133.370425 
L 84.213994 -134.059885 
L 84.647125 -134.749345 
L 92.54475 -134.749345 
L 92.54475 -134.749345 
L 92.977881 -134.059885 
L 93.410479 -133.370425 
L 93.838613 -132.680965 
L 94.259877 -131.991505 
L 94.673637 -131.302045 
L 95.08114 -130.612584 
L 95.485487 -129.923124 
L 95.891489 -129.233664 
L 96.305439 -128.544204 
L 96.734834 -127.854744 
L 97.188062 -127.165284 
L 97.674057 -126.475824 
L 98.201927 -125.786364 
L 98.780516 -125.096904 
L 99.417877 -124.407444 
L 100.120665 -123.717984 
L 100.89343 -123.028524 
L 101.737894 -122.339064 
L 102.652271 -121.649604 
L 103.63074 -120.960144 
L 104.663203 -120.270684 
L 105.735406 -119.581224 
L 106.8295 -118.891764 
L 107.925028 -118.202304 
L 109.000292 -117.512843 
L 110.033954 -116.823383 
L 111.006703 -116.133923 
L 111.902791 -115.444463 
L 112.711253 -114.755003 
L 113.426659 -114.065543 
L 114.049316 -113.376083 
L 114.584906 -112.686623 
L 115.043618 -111.997163 
L 115.438886 -111.307703 
L 115.785887 -110.618243 
L 116.099951 -109.928783 
L 116.395057 -109.239323 
L 116.682518 -108.549863 
L 116.969956 -107.860403 
L 117.260616 -107.170943 
L 117.553044 -106.481483 
L 117.841104 -105.792023 
L 118.11433 -105.102563 
L 118.358559 -104.413102 
L 118.55681 -103.723642 
L 118.690357 -103.034182 
L 118.739937 -102.344722 
L 118.687031 -101.655262 
L 118.515137 -100.965802 
L 118.210973 -100.276342 
L 117.765508 -99.586882 
L 117.174754 -98.897422 
L 116.440263 -98.207962 
L 115.569259 -97.518502 
L 114.574415 -96.829042 
L 113.473256 -96.139582 
L 112.28725 -95.450122 
L 111.040639 -94.760662 
L 109.759117 -94.071202 
L 108.468445 -93.381742 
L 107.193115 -92.692282 
L 105.955176 -92.002822 
L 104.773291 -91.313361 
L 103.662081 -90.623901 
L 102.631796 -89.934441 
L 101.688284 -89.244981 
L 100.833237 -88.555521 
L 100.064645 -87.866061 
L 99.377393 -87.176601 
L 98.76393 -86.487141 
L 98.214947 -85.797681 
L 97.720027 -85.108221 
L 97.268236 -84.418761 
L 96.848651 -83.729301 
L 96.450833 -83.039841 
L 96.065245 -82.350381 
L 95.683634 -81.660921 
L 95.299373 -80.971461 
L 94.907731 -80.282001 
L 94.506084 -79.592541 
L 94.094004 -78.903081 
L 93.673219 -78.21362 
L 93.247431 -77.52416 
L 92.821968 -76.8347 
L 92.40332 -76.14524 
L 91.998563 -75.45578 
L 91.614741 -74.76632 
L 91.258259 -74.07686 
L 90.934347 -73.3874 
L 90.646644 -72.69794 
L 90.396946 -72.00848 
L 90.18513 -71.31902 
L 90.009262 -70.62956 
L 89.865856 -69.9401 
L 89.750263 -69.25064 
L 89.657124 -68.56118 
L 89.580853 -67.87172 
L 89.516089 -67.18226 
L 89.458076 -66.4928 
z
" style="stroke: #000000; stroke-opacity: 0.7"/>
    </defs>
    <g clip-path="url(#pcf9021c714)">
     <use xlink:href="#m5c016a37ba" x="0" y="319.991967" style="fill: #98df8a; fill-opacity: 0.7; stroke: #000000; stroke-opacity: 0.7"/>
    </g>
   </g>
   <g id="PolyCollection_2">
    <defs>
     <path id="maf25422a8a" d="M 165.492573 -169.063603 
L 162.419302 -169.063603 
L 162.2667 -169.785939 
L 162.113085 -170.508275 
L 161.959655 -171.230611 
L 161.807333 -171.952947 
L 161.65664 -172.675284 
L 161.507565 -173.39762 
L 161.359443 -174.119956 
L 161.210874 -174.842292 
L 161.059683 -175.564628 
L 160.902967 -176.286965 
L 160.73721 -177.009301 
L 160.558489 -177.731637 
L 160.362746 -178.453973 
L 160.146092 -179.17631 
L 159.905117 -179.898646 
L 159.637138 -180.620982 
L 159.340362 -181.343318 
L 159.013904 -182.065654 
L 158.657668 -182.787991 
L 158.272062 -183.510327 
L 157.857608 -184.232663 
L 157.414472 -184.954999 
L 156.941997 -185.677335 
L 156.438304 -186.399672 
L 155.900048 -187.122008 
L 155.322364 -187.844344 
L 154.699062 -188.56668 
L 154.02306 -189.289016 
L 153.287039 -190.011353 
L 152.484255 -190.733689 
L 151.609442 -191.456025 
L 150.659704 -192.178361 
L 149.635309 -192.900698 
L 148.540286 -193.623034 
L 147.382773 -194.34537 
L 146.175042 -195.067706 
L 144.9332 -195.790042 
L 143.676567 -196.512379 
L 142.426757 -197.234715 
L 141.206542 -197.957051 
L 140.038565 -198.679387 
L 138.944004 -199.401723 
L 137.941292 -200.12406 
L 137.045005 -200.846396 
L 136.265007 -201.568732 
L 135.605944 -202.291068 
L 135.067144 -203.013405 
L 134.642941 -203.735741 
L 134.323428 -204.458077 
L 134.09557 -205.180413 
L 133.944604 -205.902749 
L 133.855587 -206.625086 
L 133.814956 -207.347422 
L 133.811937 -208.069758 
L 133.839657 -208.792094 
L 133.895821 -209.51443 
L 133.982887 -210.236767 
L 134.107687 -210.959103 
L 134.280532 -211.681439 
L 134.513897 -212.403775 
L 134.820817 -213.126112 
L 135.213197 -213.848448 
L 135.700224 -214.570784 
L 136.287074 -215.29312 
L 136.97408 -216.015456 
L 137.756436 -216.737793 
L 138.624488 -217.460129 
L 139.564535 -218.182465 
L 140.560038 -218.904801 
L 141.59305 -219.627137 
L 142.645688 -220.349474 
L 143.701442 -221.07181 
L 144.746187 -221.794146 
L 145.768774 -222.516482 
L 146.76119 -223.238819 
L 147.718315 -223.961155 
L 148.637352 -224.683491 
L 149.517096 -225.405827 
L 150.357146 -226.128163 
L 151.157222 -226.8505 
L 151.916687 -227.572836 
L 152.634326 -228.295172 
L 153.308404 -229.017508 
L 153.936968 -229.739844 
L 154.518316 -230.462181 
L 155.051544 -231.184517 
L 155.537058 -231.906853 
L 155.97697 -232.629189 
L 156.375293 -233.351525 
L 156.737899 -234.073862 
L 157.072239 -234.796198 
L 157.386834 -235.518534 
L 157.690628 -236.24087 
L 157.992242 -236.963207 
L 158.299253 -237.685543 
L 158.61756 -238.407879 
L 158.950918 -239.130215 
L 159.300687 -239.852551 
L 159.665814 -240.574888 
L 168.246061 -240.574888 
L 168.246061 -240.574888 
L 168.611188 -239.852551 
L 168.960957 -239.130215 
L 169.294315 -238.407879 
L 169.612622 -237.685543 
L 169.919633 -236.963207 
L 170.221247 -236.24087 
L 170.525041 -235.518534 
L 170.839636 -234.796198 
L 171.173976 -234.073862 
L 171.536582 -233.351525 
L 171.934905 -232.629189 
L 172.374817 -231.906853 
L 172.860331 -231.184517 
L 173.393559 -230.462181 
L 173.974907 -229.739844 
L 174.603471 -229.017508 
L 175.277549 -228.295172 
L 175.995188 -227.572836 
L 176.754653 -226.8505 
L 177.554729 -226.128163 
L 178.394779 -225.405827 
L 179.274523 -224.683491 
L 180.19356 -223.961155 
L 181.150685 -223.238819 
L 182.143101 -222.516482 
L 183.165688 -221.794146 
L 184.210433 -221.07181 
L 185.266187 -220.349474 
L 186.318825 -219.627137 
L 187.351837 -218.904801 
L 188.34734 -218.182465 
L 189.287387 -217.460129 
L 190.155439 -216.737793 
L 190.937795 -216.015456 
L 191.624801 -215.29312 
L 192.211651 -214.570784 
L 192.698678 -213.848448 
L 193.091058 -213.126112 
L 193.397978 -212.403775 
L 193.631343 -211.681439 
L 193.804188 -210.959103 
L 193.928988 -210.236767 
L 194.016054 -209.51443 
L 194.072218 -208.792094 
L 194.099938 -208.069758 
L 194.096919 -207.347422 
L 194.056288 -206.625086 
L 193.967271 -205.902749 
L 193.816305 -205.180413 
L 193.588447 -204.458077 
L 193.268934 -203.735741 
L 192.844731 -203.013405 
L 192.305931 -202.291068 
L 191.646868 -201.568732 
L 190.86687 -200.846396 
L 189.970583 -200.12406 
L 188.967871 -199.401723 
L 187.87331 -198.679387 
L 186.705333 -197.957051 
L 185.485118 -197.234715 
L 184.235308 -196.512379 
L 182.978675 -195.790042 
L 181.736833 -195.067706 
L 180.529102 -194.34537 
L 179.371589 -193.623034 
L 178.276566 -192.900698 
L 177.252171 -192.178361 
L 176.302433 -191.456025 
L 175.42762 -190.733689 
L 174.624836 -190.011353 
L 173.888815 -189.289016 
L 173.212813 -188.56668 
L 172.589511 -187.844344 
L 172.011827 -187.122008 
L 171.473571 -186.399672 
L 170.969878 -185.677335 
L 170.497403 -184.954999 
L 170.054267 -184.232663 
L 169.639813 -183.510327 
L 169.254207 -182.787991 
L 168.897971 -182.065654 
L 168.571513 -181.343318 
L 168.274737 -180.620982 
L 168.006758 -179.898646 
L 167.765783 -179.17631 
L 167.549129 -178.453973 
L 167.353386 -177.731637 
L 167.174665 -177.009301 
L 167.008908 -176.286965 
L 166.852192 -175.564628 
L 166.701001 -174.842292 
L 166.552432 -174.119956 
L 166.40431 -173.39762 
L 166.255235 -172.675284 
L 166.104542 -171.952947 
L 165.95222 -171.230611 
L 165.79879 -170.508275 
L 165.645175 -169.785939 
L 165.492573 -169.063603 
z
" style="stroke: #000000; stroke-opacity: 0.7"/>
    </defs>
    <g clip-path="url(#pcf9021c714)">
     <use xlink:href="#maf25422a8a" x="0" y="319.991967" style="fill: #7f7f7f; fill-opacity: 0.7; stroke: #000000; stroke-opacity: 0.7"/>
    </g>
   </g>
   <g id="PolyCollection_3">
    <defs>
     <path id="m031ba0ee2f" d="M 243.804256 -121.962867 
L 234.827619 -121.962867 
L 234.35609 -122.622738 
L 233.855763 -123.28261 
L 233.324736 -123.942481 
L 232.760791 -124.602353 
L 232.161543 -125.262224 
L 231.524622 -125.922096 
L 230.847913 -126.581967 
L 230.129801 -127.241839 
L 229.369431 -127.90171 
L 228.566932 -128.561582 
L 227.723606 -129.221453 
L 226.842038 -129.881325 
L 225.926134 -130.541196 
L 224.981055 -131.201068 
L 224.013071 -131.860939 
L 223.029329 -132.520811 
L 222.037556 -133.180682 
L 221.045736 -133.840554 
L 220.061774 -134.500425 
L 219.093196 -135.160297 
L 218.146894 -135.820168 
L 217.228968 -136.48004 
L 216.344639 -137.139911 
L 215.498269 -137.799783 
L 214.693463 -138.459654 
L 213.933224 -139.119526 
L 213.220154 -139.779397 
L 212.556652 -140.439269 
L 211.945078 -141.09914 
L 211.387876 -141.759012 
L 210.887609 -142.418883 
L 210.446918 -143.078755 
L 210.068409 -143.738626 
L 209.754466 -144.398498 
L 209.507035 -145.058369 
L 209.32739 -145.718241 
L 209.215914 -146.378112 
L 209.171938 -147.037984 
L 209.193626 -147.697855 
L 209.277964 -148.357727 
L 209.420816 -149.017598 
L 209.617071 -149.67747 
L 209.860858 -150.337341 
L 210.145812 -150.997213 
L 210.46537 -151.657084 
L 210.813073 -152.316956 
L 211.182852 -152.976828 
L 211.569275 -153.636699 
L 211.967741 -154.296571 
L 212.3746 -154.956442 
L 212.787205 -155.616314 
L 213.203877 -156.276185 
L 213.623798 -156.936057 
L 214.046838 -157.595928 
L 214.473327 -158.2558 
L 214.90379 -158.915671 
L 215.33868 -159.575543 
L 215.778119 -160.235414 
L 216.22168 -160.895286 
L 216.66824 -161.555157 
L 217.115907 -162.215029 
L 217.562049 -162.8749 
L 218.003423 -163.534772 
L 218.436389 -164.194643 
L 218.857204 -164.854515 
L 219.262356 -165.514386 
L 219.648925 -166.174258 
L 220.014907 -166.834129 
L 220.359496 -167.494001 
L 220.68328 -168.153872 
L 220.988322 -168.813744 
L 221.278132 -169.473615 
L 221.557524 -170.133487 
L 221.832363 -170.793358 
L 222.109232 -171.45323 
L 222.39505 -172.113101 
L 222.696663 -172.772973 
L 223.02045 -173.432844 
L 223.371964 -174.092716 
L 223.755642 -174.752587 
L 224.174591 -175.412459 
L 224.630462 -176.07233 
L 225.123418 -176.732202 
L 225.652174 -177.392073 
L 226.214126 -178.051945 
L 226.805522 -178.711816 
L 227.421683 -179.371688 
L 228.057247 -180.031559 
L 228.706423 -180.691431 
L 229.363236 -181.351302 
L 230.021748 -182.011174 
L 230.676262 -182.671045 
L 231.321475 -183.330917 
L 231.952602 -183.990788 
L 232.56545 -184.65066 
L 233.156458 -185.310531 
L 233.722699 -185.970403 
L 234.261858 -186.630274 
L 234.772181 -187.290146 
L 243.859694 -187.290146 
L 243.859694 -187.290146 
L 244.370017 -186.630274 
L 244.909176 -185.970403 
L 245.475417 -185.310531 
L 246.066425 -184.65066 
L 246.679273 -183.990788 
L 247.3104 -183.330917 
L 247.955613 -182.671045 
L 248.610127 -182.011174 
L 249.268639 -181.351302 
L 249.925452 -180.691431 
L 250.574628 -180.031559 
L 251.210192 -179.371688 
L 251.826353 -178.711816 
L 252.417749 -178.051945 
L 252.979701 -177.392073 
L 253.508457 -176.732202 
L 254.001413 -176.07233 
L 254.457284 -175.412459 
L 254.876233 -174.752587 
L 255.259911 -174.092716 
L 255.611425 -173.432844 
L 255.935212 -172.772973 
L 256.236825 -172.113101 
L 256.522643 -171.45323 
L 256.799512 -170.793358 
L 257.074351 -170.133487 
L 257.353743 -169.473615 
L 257.643553 -168.813744 
L 257.948595 -168.153872 
L 258.272379 -167.494001 
L 258.616968 -166.834129 
L 258.98295 -166.174258 
L 259.369519 -165.514386 
L 259.774671 -164.854515 
L 260.195486 -164.194643 
L 260.628452 -163.534772 
L 261.069826 -162.8749 
L 261.515968 -162.215029 
L 261.963635 -161.555157 
L 262.410195 -160.895286 
L 262.853756 -160.235414 
L 263.293195 -159.575543 
L 263.728085 -158.915671 
L 264.158548 -158.2558 
L 264.585037 -157.595928 
L 265.008077 -156.936057 
L 265.427998 -156.276185 
L 265.84467 -155.616314 
L 266.257275 -154.956442 
L 266.664134 -154.296571 
L 267.0626 -153.636699 
L 267.449023 -152.976828 
L 267.818802 -152.316956 
L 268.166505 -151.657084 
L 268.486063 -150.997213 
L 268.771017 -150.337341 
L 269.014804 -149.67747 
L 269.211059 -149.017598 
L 269.353911 -148.357727 
L 269.438249 -147.697855 
L 269.459938 -147.037984 
L 269.415961 -146.378112 
L 269.304485 -145.718241 
L 269.12484 -145.058369 
L 268.877409 -144.398498 
L 268.563466 -143.738626 
L 268.184957 -143.078755 
L 267.744266 -142.418883 
L 267.243999 -141.759012 
L 266.686797 -141.09914 
L 266.075223 -140.439269 
L 265.411721 -139.779397 
L 264.698651 -139.119526 
L 263.938412 -138.459654 
L 263.133606 -137.799783 
L 262.287236 -137.139911 
L 261.402907 -136.48004 
L 260.484981 -135.820168 
L 259.538679 -135.160297 
L 258.570101 -134.500425 
L 257.586139 -133.840554 
L 256.594319 -133.180682 
L 255.602546 -132.520811 
L 254.618804 -131.860939 
L 253.65082 -131.201068 
L 252.705741 -130.541196 
L 251.789837 -129.881325 
L 250.908269 -129.221453 
L 250.064943 -128.561582 
L 249.262444 -127.90171 
L 248.502074 -127.241839 
L 247.783962 -126.581967 
L 247.107253 -125.922096 
L 246.470332 -125.262224 
L 245.871084 -124.602353 
L 245.307139 -123.942481 
L 244.776112 -123.28261 
L 244.275785 -122.622738 
L 243.804256 -121.962867 
z
" style="stroke: #000000; stroke-opacity: 0.7"/>
    </defs>
    <g clip-path="url(#pcf9021c714)">
     <use xlink:href="#m031ba0ee2f" x="0" y="319.991967" style="fill: #ffbb78; fill-opacity: 0.7; stroke: #000000; stroke-opacity: 0.7"/>
    </g>
   </g>
   <g id="PolyCollection_4">
    <defs>
     <path id="mbbd54ba337" d="M 317.926638 -111.873173 
L 311.425237 -111.873173 
L 310.975503 -112.468231 
L 310.481037 -113.06329 
L 309.940108 -113.658348 
L 309.351527 -114.253407 
L 308.714767 -114.848465 
L 308.030081 -115.443524 
L 307.298595 -116.038583 
L 306.522357 -116.633641 
L 305.704348 -117.2287 
L 304.848447 -117.823758 
L 303.959337 -118.418817 
L 303.042362 -119.013875 
L 302.10334 -119.608934 
L 301.148347 -120.203992 
L 300.183478 -120.799051 
L 299.214614 -121.394109 
L 298.247208 -121.989168 
L 297.286122 -122.584226 
L 296.33552 -123.179285 
L 295.398837 -123.774343 
L 294.478836 -124.369402 
L 293.577745 -124.96446 
L 292.697465 -125.559519 
L 291.839835 -126.154577 
L 291.006919 -126.749636 
L 290.201287 -127.344694 
L 289.426266 -127.939753 
L 288.686096 -128.534811 
L 287.985996 -129.12987 
L 287.332098 -129.724928 
L 286.731239 -130.319987 
L 286.19062 -130.915045 
L 285.717347 -131.510104 
L 285.317879 -132.105162 
L 284.997436 -132.700221 
L 284.759406 -133.295279 
L 284.604819 -133.890338 
L 284.531938 -134.485396 
L 284.536011 -135.080455 
L 284.609241 -135.675513 
L 284.74098 -136.270572 
L 284.918157 -136.86563 
L 285.125928 -137.460689 
L 285.348509 -138.055747 
L 285.570133 -138.650806 
L 285.776069 -139.245864 
L 285.953612 -139.840923 
L 286.09298 -140.435981 
L 286.188027 -141.03104 
L 286.236724 -141.626098 
L 286.24135 -142.221157 
L 286.208379 -142.816215 
L 286.148068 -143.411274 
L 286.073772 -144.006332 
L 286.001031 -144.601391 
L 285.946512 -145.196449 
L 285.926875 -145.791508 
L 285.957653 -146.386566 
L 286.052242 -146.981625 
L 286.221048 -147.576683 
L 286.470885 -148.171742 
L 286.804639 -148.7668 
L 287.221224 -149.361859 
L 287.71582 -149.956917 
L 288.280365 -150.551976 
L 288.904251 -151.147034 
L 289.575159 -151.742093 
L 290.279953 -152.337151 
L 291.005574 -152.93221 
L 291.739845 -153.527268 
L 292.472138 -154.122327 
L 293.193855 -154.717385 
L 293.898707 -155.312444 
L 294.582776 -155.907502 
L 295.244387 -156.502561 
L 295.883815 -157.097619 
L 296.502885 -157.692678 
L 297.104503 -158.287736 
L 297.692177 -158.882795 
L 298.269581 -159.477853 
L 298.840181 -160.072912 
L 299.406975 -160.66797 
L 299.972325 -161.263029 
L 300.537903 -161.858087 
L 301.10472 -162.453146 
L 301.673223 -163.048204 
L 302.243427 -163.643263 
L 302.815059 -164.238321 
L 303.387681 -164.83338 
L 303.960785 -165.428438 
L 304.533838 -166.023497 
L 305.106285 -166.618555 
L 305.677505 -167.213614 
L 306.246742 -167.808673 
L 306.813014 -168.403731 
L 307.375034 -168.99879 
L 307.931142 -169.593848 
L 308.479271 -170.188907 
L 309.016955 -170.783965 
L 320.33492 -170.783965 
L 320.33492 -170.783965 
L 320.872604 -170.188907 
L 321.420733 -169.593848 
L 321.976841 -168.99879 
L 322.538861 -168.403731 
L 323.105133 -167.808673 
L 323.67437 -167.213614 
L 324.24559 -166.618555 
L 324.818037 -166.023497 
L 325.39109 -165.428438 
L 325.964194 -164.83338 
L 326.536816 -164.238321 
L 327.108448 -163.643263 
L 327.678652 -163.048204 
L 328.247155 -162.453146 
L 328.813972 -161.858087 
L 329.37955 -161.263029 
L 329.9449 -160.66797 
L 330.511694 -160.072912 
L 331.082294 -159.477853 
L 331.659698 -158.882795 
L 332.247372 -158.287736 
L 332.84899 -157.692678 
L 333.46806 -157.097619 
L 334.107488 -156.502561 
L 334.769099 -155.907502 
L 335.453168 -155.312444 
L 336.15802 -154.717385 
L 336.879737 -154.122327 
L 337.61203 -153.527268 
L 338.346301 -152.93221 
L 339.071922 -152.337151 
L 339.776716 -151.742093 
L 340.447624 -151.147034 
L 341.07151 -150.551976 
L 341.636055 -149.956917 
L 342.130651 -149.361859 
L 342.547236 -148.7668 
L 342.88099 -148.171742 
L 343.130827 -147.576683 
L 343.299633 -146.981625 
L 343.394222 -146.386566 
L 343.425 -145.791508 
L 343.405363 -145.196449 
L 343.350844 -144.601391 
L 343.278103 -144.006332 
L 343.203807 -143.411274 
L 343.143496 -142.816215 
L 343.110525 -142.221157 
L 343.115151 -141.626098 
L 343.163848 -141.03104 
L 343.258895 -140.435981 
L 343.398263 -139.840923 
L 343.575806 -139.245864 
L 343.781742 -138.650806 
L 344.003366 -138.055747 
L 344.225947 -137.460689 
L 344.433718 -136.86563 
L 344.610895 -136.270572 
L 344.742634 -135.675513 
L 344.815864 -135.080455 
L 344.819938 -134.485396 
L 344.747056 -133.890338 
L 344.592469 -133.295279 
L 344.354439 -132.700221 
L 344.033996 -132.105162 
L 343.634528 -131.510104 
L 343.161255 -130.915045 
L 342.620636 -130.319987 
L 342.019777 -129.724928 
L 341.365879 -129.12987 
L 340.665779 -128.534811 
L 339.925609 -127.939753 
L 339.150588 -127.344694 
L 338.344956 -126.749636 
L 337.51204 -126.154577 
L 336.65441 -125.559519 
L 335.77413 -124.96446 
L 334.873039 -124.369402 
L 333.953038 -123.774343 
L 333.016355 -123.179285 
L 332.065753 -122.584226 
L 331.104667 -121.989168 
L 330.137261 -121.394109 
L 329.168397 -120.799051 
L 328.203528 -120.203992 
L 327.248535 -119.608934 
L 326.309513 -119.013875 
L 325.392538 -118.418817 
L 324.503428 -117.823758 
L 323.647527 -117.2287 
L 322.829518 -116.633641 
L 322.05328 -116.038583 
L 321.321794 -115.443524 
L 320.637108 -114.848465 
L 320.000348 -114.253407 
L 319.411767 -113.658348 
L 318.870838 -113.06329 
L 318.376372 -112.468231 
L 317.926638 -111.873173 
z
" style="stroke: #000000; stroke-opacity: 0.7"/>
    </defs>
    <g clip-path="url(#pcf9021c714)">
     <use xlink:href="#mbbd54ba337" x="0" y="319.991967" style="fill: #17becf; fill-opacity: 0.7; stroke: #000000; stroke-opacity: 0.7"/>
    </g>
   </g>
   <g id="PolyCollection_5">
    <defs>
     <path id="m01271fed59" d="M 391.059677 -185.61628 
L 389.012198 -185.61628 
L 388.910854 -186.562643 
L 388.795951 -187.509007 
L 388.663315 -188.455371 
L 388.508549 -189.401735 
L 388.327343 -190.348099 
L 388.115791 -191.294462 
L 387.870703 -192.240826 
L 387.589837 -193.18719 
L 387.272053 -194.133554 
L 386.917346 -195.079917 
L 386.526768 -196.026281 
L 386.102231 -196.972645 
L 385.646242 -197.919009 
L 385.161586 -198.865372 
L 384.651011 -199.811736 
L 384.116961 -200.7581 
L 383.561381 -201.704464 
L 382.985621 -202.650827 
L 382.390437 -203.597191 
L 381.776062 -204.543555 
L 381.142329 -205.489919 
L 380.488788 -206.436283 
L 379.814786 -207.382646 
L 379.119486 -208.32901 
L 378.401811 -209.275374 
L 377.660335 -210.221738 
L 376.893172 -211.168101 
L 376.0979 -212.114465 
L 375.271603 -213.060829 
L 374.411084 -214.007193 
L 373.51327 -214.953556 
L 372.575812 -215.89992 
L 371.597839 -216.846284 
L 370.580783 -217.792648 
L 369.529157 -218.739011 
L 368.451165 -219.685375 
L 367.359023 -220.631739 
L 366.268892 -221.578103 
L 365.20037 -222.524467 
L 364.175558 -223.47083 
L 363.217752 -224.417194 
L 362.349886 -225.363558 
L 361.592884 -226.309922 
L 360.964095 -227.256285 
L 360.475989 -228.202649 
L 360.135259 -229.149013 
L 359.942417 -230.095377 
L 359.891937 -231.04174 
L 359.972902 -231.988104 
L 360.170078 -232.934468 
L 360.465298 -233.880832 
L 360.838977 -234.827195 
L 361.271616 -235.773559 
L 361.745157 -236.719923 
L 362.244056 -237.666287 
L 362.756016 -238.61265 
L 363.272357 -239.559014 
L 363.788024 -240.505378 
L 364.301289 -241.451742 
L 364.813224 -242.398106 
L 365.327019 -243.344469 
L 365.847233 -244.290833 
L 366.379047 -245.237197 
L 366.927582 -246.183561 
L 367.497323 -247.129924 
L 368.09166 -248.076288 
L 368.712575 -249.022652 
L 369.360459 -249.969016 
L 370.034051 -250.915379 
L 370.730504 -251.861743 
L 371.445545 -252.808107 
L 372.173738 -253.754471 
L 372.90881 -254.700834 
L 373.644047 -255.647198 
L 374.372703 -256.593562 
L 375.088425 -257.539926 
L 375.785633 -258.48629 
L 376.459839 -259.432653 
L 377.107867 -260.379017 
L 377.727967 -261.325381 
L 378.319801 -262.271745 
L 378.884322 -263.218108 
L 379.423554 -264.164472 
L 379.940313 -265.110836 
L 380.437897 -266.0572 
L 380.919778 -267.003563 
L 381.38933 -267.949927 
L 381.84961 -268.896291 
L 382.303195 -269.842655 
L 382.752086 -270.789018 
L 383.197657 -271.735382 
L 383.640651 -272.681746 
L 384.08119 -273.62811 
L 384.518809 -274.574474 
L 384.952496 -275.520837 
L 385.380733 -276.467201 
L 385.801551 -277.413565 
L 386.212607 -278.359929 
L 386.611267 -279.306292 
L 393.460608 -279.306292 
L 393.460608 -279.306292 
L 393.859268 -278.359929 
L 394.270324 -277.413565 
L 394.691142 -276.467201 
L 395.119379 -275.520837 
L 395.553066 -274.574474 
L 395.990685 -273.62811 
L 396.431224 -272.681746 
L 396.874218 -271.735382 
L 397.319789 -270.789018 
L 397.76868 -269.842655 
L 398.222265 -268.896291 
L 398.682545 -267.949927 
L 399.152097 -267.003563 
L 399.633978 -266.0572 
L 400.131562 -265.110836 
L 400.648321 -264.164472 
L 401.187553 -263.218108 
L 401.752074 -262.271745 
L 402.343908 -261.325381 
L 402.964008 -260.379017 
L 403.612036 -259.432653 
L 404.286242 -258.48629 
L 404.98345 -257.539926 
L 405.699172 -256.593562 
L 406.427828 -255.647198 
L 407.163065 -254.700834 
L 407.898137 -253.754471 
L 408.62633 -252.808107 
L 409.341371 -251.861743 
L 410.037824 -250.915379 
L 410.711416 -249.969016 
L 411.3593 -249.022652 
L 411.980215 -248.076288 
L 412.574552 -247.129924 
L 413.144293 -246.183561 
L 413.692828 -245.237197 
L 414.224642 -244.290833 
L 414.744856 -243.344469 
L 415.258651 -242.398106 
L 415.770586 -241.451742 
L 416.283851 -240.505378 
L 416.799518 -239.559014 
L 417.315859 -238.61265 
L 417.827819 -237.666287 
L 418.326718 -236.719923 
L 418.800259 -235.773559 
L 419.232898 -234.827195 
L 419.606577 -233.880832 
L 419.901797 -232.934468 
L 420.098973 -231.988104 
L 420.179938 -231.04174 
L 420.129458 -230.095377 
L 419.936616 -229.149013 
L 419.595886 -228.202649 
L 419.10778 -227.256285 
L 418.478991 -226.309922 
L 417.721989 -225.363558 
L 416.854123 -224.417194 
L 415.896317 -223.47083 
L 414.871505 -222.524467 
L 413.802983 -221.578103 
L 412.712852 -220.631739 
L 411.62071 -219.685375 
L 410.542718 -218.739011 
L 409.491092 -217.792648 
L 408.474036 -216.846284 
L 407.496063 -215.89992 
L 406.558605 -214.953556 
L 405.660791 -214.007193 
L 404.800272 -213.060829 
L 403.973975 -212.114465 
L 403.178703 -211.168101 
L 402.41154 -210.221738 
L 401.670064 -209.275374 
L 400.952389 -208.32901 
L 400.257089 -207.382646 
L 399.583087 -206.436283 
L 398.929546 -205.489919 
L 398.295813 -204.543555 
L 397.681438 -203.597191 
L 397.086254 -202.650827 
L 396.510494 -201.704464 
L 395.954914 -200.7581 
L 395.420864 -199.811736 
L 394.910289 -198.865372 
L 394.425633 -197.919009 
L 393.969644 -196.972645 
L 393.545107 -196.026281 
L 393.154529 -195.079917 
L 392.799822 -194.133554 
L 392.482038 -193.18719 
L 392.201172 -192.240826 
L 391.956084 -191.294462 
L 391.744532 -190.348099 
L 391.563326 -189.401735 
L 391.40856 -188.455371 
L 391.275924 -187.509007 
L 391.161021 -186.562643 
L 391.059677 -185.61628 
z
" style="stroke: #000000; stroke-opacity: 0.7"/>
    </defs>
    <g clip-path="url(#pcf9021c714)">
     <use xlink:href="#m01271fed59" x="0" y="319.991967" style="fill: #66c2a5; fill-opacity: 0.7; stroke: #000000; stroke-opacity: 0.7"/>
    </g>
   </g>
   <g id="matplotlib.axis_1">
    <g id="xtick_1">
     <g id="line2d_1">
      <defs>
       <path id="mf99c10ff6a" d="M 0 0 
L 0 3.5 
" style="stroke: #000000; stroke-width: 0.8"/>
      </defs>
      <g>
       <use xlink:href="#mf99c10ff6a" x="88.595938" y="264.139842" style="stroke: #000000; stroke-width: 0.8"/>
      </g>
     </g>
     <g id="text_1">
      <!-- Oakridge -->
      <g transform="translate(55.193097 308.603685) rotate(-45) scale(0.12 -0.12)">
       <defs>
        <path id="TimesNewRomanPSMT-4f" d="M 2341 4334 
Q 3166 4334 3770 3707 
Q 4375 3081 4375 2144 
Q 4375 1178 3765 540 
Q 3156 -97 2291 -97 
Q 1416 -97 820 525 
Q 225 1147 225 2134 
Q 225 3144 913 3781 
Q 1509 4334 2341 4334 
z
M 2281 4106 
Q 1713 4106 1369 3684 
Q 941 3159 941 2147 
Q 941 1109 1384 550 
Q 1725 125 2284 125 
Q 2881 125 3270 590 
Q 3659 1056 3659 2059 
Q 3659 3147 3231 3681 
Q 2888 4106 2281 4106 
z
" transform="scale(0.015625)"/>
        <path id="TimesNewRomanPSMT-61" d="M 1822 413 
Q 1381 72 1269 19 
Q 1100 -59 909 -59 
Q 613 -59 420 144 
Q 228 347 228 678 
Q 228 888 322 1041 
Q 450 1253 767 1440 
Q 1084 1628 1822 1897 
L 1822 2009 
Q 1822 2438 1686 2597 
Q 1550 2756 1291 2756 
Q 1094 2756 978 2650 
Q 859 2544 859 2406 
L 866 2225 
Q 866 2081 792 2003 
Q 719 1925 600 1925 
Q 484 1925 411 2006 
Q 338 2088 338 2228 
Q 338 2497 613 2722 
Q 888 2947 1384 2947 
Q 1766 2947 2009 2819 
Q 2194 2722 2281 2516 
Q 2338 2381 2338 1966 
L 2338 994 
Q 2338 584 2353 492 
Q 2369 400 2405 369 
Q 2441 338 2488 338 
Q 2538 338 2575 359 
Q 2641 400 2828 588 
L 2828 413 
Q 2478 -56 2159 -56 
Q 2006 -56 1915 50 
Q 1825 156 1822 413 
z
M 1822 616 
L 1822 1706 
Q 1350 1519 1213 1441 
Q 966 1303 859 1153 
Q 753 1003 753 825 
Q 753 600 887 451 
Q 1022 303 1197 303 
Q 1434 303 1822 616 
z
" transform="scale(0.015625)"/>
        <path id="TimesNewRomanPSMT-6b" d="M 1047 4444 
L 1047 1597 
L 1775 2259 
Q 2006 2472 2044 2528 
Q 2069 2566 2069 2603 
Q 2069 2666 2017 2711 
Q 1966 2756 1847 2763 
L 1847 2863 
L 3091 2863 
L 3091 2763 
Q 2834 2756 2664 2684 
Q 2494 2613 2291 2428 
L 1556 1750 
L 2291 822 
Q 2597 438 2703 334 
Q 2853 188 2966 144 
Q 3044 113 3238 113 
L 3238 0 
L 1847 0 
L 1847 113 
Q 1966 116 2008 148 
Q 2050 181 2050 241 
Q 2050 313 1925 472 
L 1047 1594 
L 1047 644 
Q 1047 366 1086 278 
Q 1125 191 1197 153 
Q 1269 116 1509 113 
L 1509 0 
L 53 0 
L 53 113 
Q 272 113 381 166 
Q 447 200 481 272 
Q 528 375 528 628 
L 528 3234 
Q 528 3731 506 3842 
Q 484 3953 434 3995 
Q 384 4038 303 4038 
Q 238 4038 106 3984 
L 53 4094 
L 903 4444 
L 1047 4444 
z
" transform="scale(0.015625)"/>
        <path id="TimesNewRomanPSMT-72" d="M 1038 2947 
L 1038 2303 
Q 1397 2947 1775 2947 
Q 1947 2947 2059 2842 
Q 2172 2738 2172 2600 
Q 2172 2478 2090 2393 
Q 2009 2309 1897 2309 
Q 1788 2309 1652 2417 
Q 1516 2525 1450 2525 
Q 1394 2525 1328 2463 
Q 1188 2334 1038 2041 
L 1038 669 
Q 1038 431 1097 309 
Q 1138 225 1241 169 
Q 1344 113 1538 113 
L 1538 0 
L 72 0 
L 72 113 
Q 291 113 397 181 
Q 475 231 506 341 
Q 522 394 522 644 
L 522 1753 
Q 522 2253 501 2348 
Q 481 2444 426 2487 
Q 372 2531 291 2531 
Q 194 2531 72 2484 
L 41 2597 
L 906 2947 
L 1038 2947 
z
" transform="scale(0.015625)"/>
        <path id="TimesNewRomanPSMT-69" d="M 928 4444 
Q 1059 4444 1151 4351 
Q 1244 4259 1244 4128 
Q 1244 3997 1151 3903 
Q 1059 3809 928 3809 
Q 797 3809 703 3903 
Q 609 3997 609 4128 
Q 609 4259 701 4351 
Q 794 4444 928 4444 
z
M 1188 2947 
L 1188 647 
Q 1188 378 1227 289 
Q 1266 200 1342 156 
Q 1419 113 1622 113 
L 1622 0 
L 231 0 
L 231 113 
Q 441 113 512 153 
Q 584 194 626 287 
Q 669 381 669 647 
L 669 1750 
Q 669 2216 641 2353 
Q 619 2453 572 2492 
Q 525 2531 444 2531 
Q 356 2531 231 2484 
L 188 2597 
L 1050 2947 
L 1188 2947 
z
" transform="scale(0.015625)"/>
        <path id="TimesNewRomanPSMT-64" d="M 2222 322 
Q 2013 103 1813 7 
Q 1613 -88 1381 -88 
Q 913 -88 563 304 
Q 213 697 213 1313 
Q 213 1928 600 2439 
Q 988 2950 1597 2950 
Q 1975 2950 2222 2709 
L 2222 3238 
Q 2222 3728 2198 3840 
Q 2175 3953 2125 3993 
Q 2075 4034 2000 4034 
Q 1919 4034 1784 3984 
L 1744 4094 
L 2597 4444 
L 2738 4444 
L 2738 1134 
Q 2738 631 2761 520 
Q 2784 409 2836 365 
Q 2888 322 2956 322 
Q 3041 322 3181 375 
L 3216 266 
L 2366 -88 
L 2222 -88 
L 2222 322 
z
M 2222 541 
L 2222 2016 
Q 2203 2228 2109 2403 
Q 2016 2578 1861 2667 
Q 1706 2756 1559 2756 
Q 1284 2756 1069 2509 
Q 784 2184 784 1559 
Q 784 928 1059 592 
Q 1334 256 1672 256 
Q 1956 256 2222 541 
z
" transform="scale(0.015625)"/>
        <path id="TimesNewRomanPSMT-67" d="M 966 1044 
Q 703 1172 562 1401 
Q 422 1631 422 1909 
Q 422 2334 742 2640 
Q 1063 2947 1563 2947 
Q 1972 2947 2272 2747 
L 2878 2747 
Q 3013 2747 3034 2739 
Q 3056 2731 3066 2713 
Q 3084 2684 3084 2613 
Q 3084 2531 3069 2500 
Q 3059 2484 3036 2475 
Q 3013 2466 2878 2466 
L 2506 2466 
Q 2681 2241 2681 1891 
Q 2681 1491 2375 1206 
Q 2069 922 1553 922 
Q 1341 922 1119 984 
Q 981 866 932 777 
Q 884 688 884 625 
Q 884 572 936 522 
Q 988 472 1138 450 
Q 1225 438 1575 428 
Q 2219 413 2409 384 
Q 2700 344 2873 169 
Q 3047 -6 3047 -263 
Q 3047 -616 2716 -925 
Q 2228 -1381 1444 -1381 
Q 841 -1381 425 -1109 
Q 191 -953 191 -784 
Q 191 -709 225 -634 
Q 278 -519 444 -313 
Q 466 -284 763 25 
Q 600 122 533 198 
Q 466 275 466 372 
Q 466 481 555 628 
Q 644 775 966 1044 
z
M 1509 2797 
Q 1278 2797 1122 2612 
Q 966 2428 966 2047 
Q 966 1553 1178 1281 
Q 1341 1075 1591 1075 
Q 1828 1075 1981 1253 
Q 2134 1431 2134 1813 
Q 2134 2309 1919 2591 
Q 1759 2797 1509 2797 
z
M 934 0 
Q 788 -159 713 -296 
Q 638 -434 638 -550 
Q 638 -700 819 -813 
Q 1131 -1006 1722 -1006 
Q 2284 -1006 2551 -807 
Q 2819 -609 2819 -384 
Q 2819 -222 2659 -153 
Q 2497 -84 2016 -72 
Q 1313 -53 934 0 
z
" transform="scale(0.015625)"/>
        <path id="TimesNewRomanPSMT-65" d="M 681 1784 
Q 678 1147 991 784 
Q 1303 422 1725 422 
Q 2006 422 2214 576 
Q 2422 731 2563 1106 
L 2659 1044 
Q 2594 616 2278 264 
Q 1963 -88 1488 -88 
Q 972 -88 605 314 
Q 238 716 238 1394 
Q 238 2128 614 2539 
Q 991 2950 1559 2950 
Q 2041 2950 2350 2633 
Q 2659 2316 2659 1784 
L 681 1784 
z
M 681 1966 
L 2006 1966 
Q 1991 2241 1941 2353 
Q 1863 2528 1708 2628 
Q 1553 2728 1384 2728 
Q 1125 2728 920 2526 
Q 716 2325 681 1966 
z
" transform="scale(0.015625)"/>
       </defs>
       <use xlink:href="#TimesNewRomanPSMT-4f"/>
       <use xlink:href="#TimesNewRomanPSMT-61" x="72.216797"/>
       <use xlink:href="#TimesNewRomanPSMT-6b" x="116.601562"/>
       <use xlink:href="#TimesNewRomanPSMT-72" x="166.601562"/>
       <use xlink:href="#TimesNewRomanPSMT-69" x="199.902344"/>
       <use xlink:href="#TimesNewRomanPSMT-64" x="227.685547"/>
       <use xlink:href="#TimesNewRomanPSMT-67" x="277.685547"/>
       <use xlink:href="#TimesNewRomanPSMT-65" x="327.685547"/>
      </g>
     </g>
    </g>
    <g id="xtick_2">
     <g id="line2d_2">
      <g>
       <use xlink:href="#mf99c10ff6a" x="163.955938" y="264.139842" style="stroke: #000000; stroke-width: 0.8"/>
      </g>
     </g>
     <g id="text_2">
      <!-- Dunvale -->
      <g transform="translate(133.39434 305.778352) rotate(-45) scale(0.12 -0.12)">
       <defs>
        <path id="TimesNewRomanPSMT-44" d="M 109 0 
L 109 116 
L 269 116 
Q 538 116 650 288 
Q 719 391 719 750 
L 719 3488 
Q 719 3884 631 3984 
Q 509 4122 269 4122 
L 109 4122 
L 109 4238 
L 1834 4238 
Q 2784 4238 3279 4022 
Q 3775 3806 4076 3303 
Q 4378 2800 4378 2141 
Q 4378 1256 3841 663 
Q 3238 0 2003 0 
L 109 0 
z
M 1319 306 
Q 1716 219 1984 219 
Q 2709 219 3187 728 
Q 3666 1238 3666 2109 
Q 3666 2988 3187 3494 
Q 2709 4000 1959 4000 
Q 1678 4000 1319 3909 
L 1319 306 
z
" transform="scale(0.015625)"/>
        <path id="TimesNewRomanPSMT-75" d="M 2709 2863 
L 2709 1128 
Q 2709 631 2732 520 
Q 2756 409 2807 365 
Q 2859 322 2928 322 
Q 3025 322 3147 375 
L 3191 266 
L 2334 -88 
L 2194 -88 
L 2194 519 
Q 1825 119 1631 15 
Q 1438 -88 1222 -88 
Q 981 -88 804 51 
Q 628 191 559 409 
Q 491 628 491 1028 
L 491 2306 
Q 491 2509 447 2587 
Q 403 2666 317 2708 
Q 231 2750 6 2747 
L 6 2863 
L 1009 2863 
L 1009 947 
Q 1009 547 1148 422 
Q 1288 297 1484 297 
Q 1619 297 1789 381 
Q 1959 466 2194 703 
L 2194 2325 
Q 2194 2569 2105 2655 
Q 2016 2741 1734 2747 
L 1734 2863 
L 2709 2863 
z
" transform="scale(0.015625)"/>
        <path id="TimesNewRomanPSMT-6e" d="M 1034 2341 
Q 1538 2947 1994 2947 
Q 2228 2947 2397 2830 
Q 2566 2713 2666 2444 
Q 2734 2256 2734 1869 
L 2734 647 
Q 2734 375 2778 278 
Q 2813 200 2889 156 
Q 2966 113 3172 113 
L 3172 0 
L 1756 0 
L 1756 113 
L 1816 113 
Q 2016 113 2095 173 
Q 2175 234 2206 353 
Q 2219 400 2219 647 
L 2219 1819 
Q 2219 2209 2117 2386 
Q 2016 2563 1775 2563 
Q 1403 2563 1034 2156 
L 1034 647 
Q 1034 356 1069 288 
Q 1113 197 1189 155 
Q 1266 113 1500 113 
L 1500 0 
L 84 0 
L 84 113 
L 147 113 
Q 366 113 442 223 
Q 519 334 519 647 
L 519 1709 
Q 519 2225 495 2337 
Q 472 2450 423 2490 
Q 375 2531 294 2531 
Q 206 2531 84 2484 
L 38 2597 
L 900 2947 
L 1034 2947 
L 1034 2341 
z
" transform="scale(0.015625)"/>
        <path id="TimesNewRomanPSMT-76" d="M 53 2863 
L 1400 2863 
L 1400 2747 
L 1313 2747 
Q 1191 2747 1127 2687 
Q 1063 2628 1063 2528 
Q 1063 2419 1128 2269 
L 1794 688 
L 2463 2328 
Q 2534 2503 2534 2594 
Q 2534 2638 2509 2666 
Q 2475 2713 2422 2730 
Q 2369 2747 2206 2747 
L 2206 2863 
L 3141 2863 
L 3141 2747 
Q 2978 2734 2916 2681 
Q 2806 2588 2719 2369 
L 1703 -88 
L 1575 -88 
L 553 2328 
Q 484 2497 421 2570 
Q 359 2644 263 2694 
Q 209 2722 53 2747 
L 53 2863 
z
" transform="scale(0.015625)"/>
        <path id="TimesNewRomanPSMT-6c" d="M 1184 4444 
L 1184 647 
Q 1184 378 1223 290 
Q 1263 203 1344 158 
Q 1425 113 1647 113 
L 1647 0 
L 244 0 
L 244 113 
Q 441 113 512 153 
Q 584 194 625 287 
Q 666 381 666 647 
L 666 3247 
Q 666 3731 644 3842 
Q 622 3953 573 3993 
Q 525 4034 450 4034 
Q 369 4034 244 3984 
L 191 4094 
L 1044 4444 
L 1184 4444 
z
" transform="scale(0.015625)"/>
       </defs>
       <use xlink:href="#TimesNewRomanPSMT-44"/>
       <use xlink:href="#TimesNewRomanPSMT-75" x="72.216797"/>
       <use xlink:href="#TimesNewRomanPSMT-6e" x="122.216797"/>
       <use xlink:href="#TimesNewRomanPSMT-76" x="172.216797"/>
       <use xlink:href="#TimesNewRomanPSMT-61" x="222.216797"/>
       <use xlink:href="#TimesNewRomanPSMT-6c" x="266.601562"/>
       <use xlink:href="#TimesNewRomanPSMT-65" x="294.384766"/>
      </g>
     </g>
    </g>
    <g id="xtick_3">
     <g id="line2d_3">
      <g>
       <use xlink:href="#mf99c10ff6a" x="239.315937" y="264.139842" style="stroke: #000000; stroke-width: 0.8"/>
      </g>
     </g>
     <g id="text_3">
      <!-- Highvale -->
      <g transform="translate(206.381113 308.135669) rotate(-45) scale(0.12 -0.12)">
       <defs>
        <path id="TimesNewRomanPSMT-48" d="M 1316 2272 
L 3284 2272 
L 3284 3484 
Q 3284 3809 3244 3913 
Q 3213 3991 3113 4047 
Q 2978 4122 2828 4122 
L 2678 4122 
L 2678 4238 
L 4491 4238 
L 4491 4122 
L 4341 4122 
Q 4191 4122 4056 4050 
Q 3956 4000 3920 3898 
Q 3884 3797 3884 3484 
L 3884 750 
Q 3884 428 3925 325 
Q 3956 247 4053 191 
Q 4191 116 4341 116 
L 4491 116 
L 4491 0 
L 2678 0 
L 2678 116 
L 2828 116 
Q 3088 116 3206 269 
Q 3284 369 3284 750 
L 3284 2041 
L 1316 2041 
L 1316 750 
Q 1316 428 1356 325 
Q 1388 247 1488 191 
Q 1622 116 1772 116 
L 1925 116 
L 1925 0 
L 109 0 
L 109 116 
L 259 116 
Q 522 116 641 269 
Q 716 369 716 750 
L 716 3484 
Q 716 3809 675 3913 
Q 644 3991 547 4047 
Q 409 4122 259 4122 
L 109 4122 
L 109 4238 
L 1925 4238 
L 1925 4122 
L 1772 4122 
Q 1622 4122 1488 4050 
Q 1391 4000 1353 3898 
Q 1316 3797 1316 3484 
L 1316 2272 
z
" transform="scale(0.015625)"/>
        <path id="TimesNewRomanPSMT-68" d="M 1041 4444 
L 1041 2350 
Q 1388 2731 1591 2839 
Q 1794 2947 1997 2947 
Q 2241 2947 2416 2812 
Q 2591 2678 2675 2391 
Q 2734 2191 2734 1659 
L 2734 647 
Q 2734 375 2778 275 
Q 2809 200 2884 156 
Q 2959 113 3159 113 
L 3159 0 
L 1753 0 
L 1753 113 
L 1819 113 
Q 2019 113 2097 173 
Q 2175 234 2206 353 
Q 2216 403 2216 647 
L 2216 1659 
Q 2216 2128 2167 2275 
Q 2119 2422 2012 2495 
Q 1906 2569 1756 2569 
Q 1603 2569 1437 2487 
Q 1272 2406 1041 2159 
L 1041 647 
Q 1041 353 1073 281 
Q 1106 209 1195 161 
Q 1284 113 1503 113 
L 1503 0 
L 84 0 
L 84 113 
Q 275 113 384 172 
Q 447 203 484 290 
Q 522 378 522 647 
L 522 3238 
Q 522 3728 498 3840 
Q 475 3953 426 3993 
Q 378 4034 297 4034 
Q 231 4034 84 3984 
L 41 4094 
L 897 4444 
L 1041 4444 
z
" transform="scale(0.015625)"/>
       </defs>
       <use xlink:href="#TimesNewRomanPSMT-48"/>
       <use xlink:href="#TimesNewRomanPSMT-69" x="72.216797"/>
       <use xlink:href="#TimesNewRomanPSMT-67" x="100"/>
       <use xlink:href="#TimesNewRomanPSMT-68" x="150"/>
       <use xlink:href="#TimesNewRomanPSMT-76" x="200"/>
       <use xlink:href="#TimesNewRomanPSMT-61" x="250"/>
       <use xlink:href="#TimesNewRomanPSMT-6c" x="294.384766"/>
       <use xlink:href="#TimesNewRomanPSMT-65" x="322.167969"/>
      </g>
     </g>
    </g>
    <g id="xtick_4">
     <g id="line2d_4">
      <g>
       <use xlink:href="#mf99c10ff6a" x="314.675938" y="264.139842" style="stroke: #000000; stroke-width: 0.8"/>
      </g>
     </g>
     <g id="text_4">
      <!-- Westport -->
      <g transform="translate(282.435846 307.456846) rotate(-45) scale(0.12 -0.12)">
       <defs>
        <path id="TimesNewRomanPSMT-57" d="M 5991 4238 
L 5991 4122 
Q 5825 4122 5722 4062 
Q 5619 4003 5525 3841 
Q 5463 3731 5328 3319 
L 4147 -97 
L 4022 -97 
L 3056 2613 
L 2097 -97 
L 1984 -97 
L 725 3422 
Q 584 3816 547 3888 
Q 484 4006 376 4064 
Q 269 4122 84 4122 
L 84 4238 
L 1653 4238 
L 1653 4122 
L 1578 4122 
Q 1413 4122 1325 4047 
Q 1238 3972 1238 3866 
Q 1238 3756 1375 3363 
L 2209 984 
L 2913 3006 
L 2788 3363 
L 2688 3647 
Q 2622 3803 2541 3922 
Q 2500 3981 2441 4022 
Q 2363 4078 2284 4103 
Q 2225 4122 2097 4122 
L 2097 4238 
L 3747 4238 
L 3747 4122 
L 3634 4122 
Q 3459 4122 3378 4047 
Q 3297 3972 3297 3844 
Q 3297 3684 3438 3288 
L 4250 984 
L 5056 3319 
Q 5194 3706 5194 3856 
Q 5194 3928 5148 3990 
Q 5103 4053 5034 4078 
Q 4916 4122 4725 4122 
L 4725 4238 
L 5991 4238 
z
" transform="scale(0.015625)"/>
        <path id="TimesNewRomanPSMT-73" d="M 2050 2947 
L 2050 1972 
L 1947 1972 
Q 1828 2431 1642 2597 
Q 1456 2763 1169 2763 
Q 950 2763 815 2647 
Q 681 2531 681 2391 
Q 681 2216 781 2091 
Q 878 1963 1175 1819 
L 1631 1597 
Q 2266 1288 2266 781 
Q 2266 391 1970 151 
Q 1675 -88 1309 -88 
Q 1047 -88 709 6 
Q 606 38 541 38 
Q 469 38 428 -44 
L 325 -44 
L 325 978 
L 428 978 
Q 516 541 762 319 
Q 1009 97 1316 97 
Q 1531 97 1667 223 
Q 1803 350 1803 528 
Q 1803 744 1651 891 
Q 1500 1038 1047 1263 
Q 594 1488 453 1669 
Q 313 1847 313 2119 
Q 313 2472 555 2709 
Q 797 2947 1181 2947 
Q 1350 2947 1591 2875 
Q 1750 2828 1803 2828 
Q 1853 2828 1881 2850 
Q 1909 2872 1947 2947 
L 2050 2947 
z
" transform="scale(0.015625)"/>
        <path id="TimesNewRomanPSMT-74" d="M 1031 3803 
L 1031 2863 
L 1700 2863 
L 1700 2644 
L 1031 2644 
L 1031 788 
Q 1031 509 1111 412 
Q 1191 316 1316 316 
Q 1419 316 1516 380 
Q 1613 444 1666 569 
L 1788 569 
Q 1678 263 1478 108 
Q 1278 -47 1066 -47 
Q 922 -47 784 33 
Q 647 113 581 261 
Q 516 409 516 719 
L 516 2644 
L 63 2644 
L 63 2747 
Q 234 2816 414 2980 
Q 594 3144 734 3369 
Q 806 3488 934 3803 
L 1031 3803 
z
" transform="scale(0.015625)"/>
        <path id="TimesNewRomanPSMT-70" d="M -6 2578 
L 875 2934 
L 994 2934 
L 994 2266 
Q 1216 2644 1439 2795 
Q 1663 2947 1909 2947 
Q 2341 2947 2628 2609 
Q 2981 2197 2981 1534 
Q 2981 794 2556 309 
Q 2206 -88 1675 -88 
Q 1444 -88 1275 -22 
Q 1150 25 994 166 
L 994 -706 
Q 994 -1000 1030 -1079 
Q 1066 -1159 1155 -1206 
Q 1244 -1253 1478 -1253 
L 1478 -1369 
L -22 -1369 
L -22 -1253 
L 56 -1253 
Q 228 -1256 350 -1188 
Q 409 -1153 442 -1076 
Q 475 -1000 475 -688 
L 475 2019 
Q 475 2297 450 2372 
Q 425 2447 370 2484 
Q 316 2522 222 2522 
Q 147 2522 31 2478 
L -6 2578 
z
M 994 2081 
L 994 1013 
Q 994 666 1022 556 
Q 1066 375 1236 237 
Q 1406 100 1666 100 
Q 1978 100 2172 344 
Q 2425 663 2425 1241 
Q 2425 1897 2138 2250 
Q 1938 2494 1663 2494 
Q 1513 2494 1366 2419 
Q 1253 2363 994 2081 
z
" transform="scale(0.015625)"/>
        <path id="TimesNewRomanPSMT-6f" d="M 1600 2947 
Q 2250 2947 2644 2453 
Q 2978 2031 2978 1484 
Q 2978 1100 2793 706 
Q 2609 313 2286 112 
Q 1963 -88 1566 -88 
Q 919 -88 538 428 
Q 216 863 216 1403 
Q 216 1797 411 2186 
Q 606 2575 925 2761 
Q 1244 2947 1600 2947 
z
M 1503 2744 
Q 1338 2744 1170 2645 
Q 1003 2547 900 2300 
Q 797 2053 797 1666 
Q 797 1041 1045 587 
Q 1294 134 1700 134 
Q 2003 134 2200 384 
Q 2397 634 2397 1244 
Q 2397 2006 2069 2444 
Q 1847 2744 1503 2744 
z
" transform="scale(0.015625)"/>
       </defs>
       <use xlink:href="#TimesNewRomanPSMT-57"/>
       <use xlink:href="#TimesNewRomanPSMT-65" x="86.384766"/>
       <use xlink:href="#TimesNewRomanPSMT-73" x="130.769531"/>
       <use xlink:href="#TimesNewRomanPSMT-74" x="169.685547"/>
       <use xlink:href="#TimesNewRomanPSMT-70" x="197.46875"/>
       <use xlink:href="#TimesNewRomanPSMT-6f" x="247.46875"/>
       <use xlink:href="#TimesNewRomanPSMT-72" x="297.46875"/>
       <use xlink:href="#TimesNewRomanPSMT-74" x="330.769531"/>
      </g>
     </g>
    </g>
    <g id="xtick_5">
     <g id="line2d_5">
      <g>
       <use xlink:href="#mf99c10ff6a" x="390.035938" y="264.139842" style="stroke: #000000; stroke-width: 0.8"/>
      </g>
     </g>
     <g id="text_5">
      <!-- Northgate -->
      <g transform="translate(354.27578 310.961002) rotate(-45) scale(0.12 -0.12)">
       <defs>
        <path id="TimesNewRomanPSMT-4e" d="M -84 4238 
L 1066 4238 
L 3656 1059 
L 3656 3503 
Q 3656 3894 3569 3991 
Q 3453 4122 3203 4122 
L 3056 4122 
L 3056 4238 
L 4531 4238 
L 4531 4122 
L 4381 4122 
Q 4113 4122 4000 3959 
Q 3931 3859 3931 3503 
L 3931 -69 
L 3819 -69 
L 1025 3344 
L 1025 734 
Q 1025 344 1109 247 
Q 1228 116 1475 116 
L 1625 116 
L 1625 0 
L 150 0 
L 150 116 
L 297 116 
Q 569 116 681 278 
Q 750 378 750 734 
L 750 3681 
Q 566 3897 470 3965 
Q 375 4034 191 4094 
Q 100 4122 -84 4122 
L -84 4238 
z
" transform="scale(0.015625)"/>
       </defs>
       <use xlink:href="#TimesNewRomanPSMT-4e"/>
       <use xlink:href="#TimesNewRomanPSMT-6f" x="72.216797"/>
       <use xlink:href="#TimesNewRomanPSMT-72" x="122.216797"/>
       <use xlink:href="#TimesNewRomanPSMT-74" x="155.517578"/>
       <use xlink:href="#TimesNewRomanPSMT-68" x="183.300781"/>
       <use xlink:href="#TimesNewRomanPSMT-67" x="233.300781"/>
       <use xlink:href="#TimesNewRomanPSMT-61" x="283.300781"/>
       <use xlink:href="#TimesNewRomanPSMT-74" x="327.685547"/>
       <use xlink:href="#TimesNewRomanPSMT-65" x="355.46875"/>
      </g>
     </g>
    </g>
   </g>
   <g id="matplotlib.axis_2">
    <g id="ytick_1">
     <g id="line2d_6">
      <defs>
       <path id="mf0d18d79c3" d="M 0 0 
L -3.5 0 
" style="stroke: #000000; stroke-width: 0.8"/>
      </defs>
      <g>
       <use xlink:href="#mf0d18d79c3" x="50.915938" y="233.273284" style="stroke: #000000; stroke-width: 0.8"/>
      </g>
     </g>
     <g id="text_6">
      <!-- 2000 -->
      <g transform="translate(23.915938 236.745159) scale(0.1 -0.1)">
       <defs>
        <path id="TimesNewRomanPSMT-32" d="M 2934 816 
L 2638 0 
L 138 0 
L 138 116 
Q 1241 1122 1691 1759 
Q 2141 2397 2141 2925 
Q 2141 3328 1894 3587 
Q 1647 3847 1303 3847 
Q 991 3847 742 3664 
Q 494 3481 375 3128 
L 259 3128 
Q 338 3706 661 4015 
Q 984 4325 1469 4325 
Q 1984 4325 2329 3994 
Q 2675 3663 2675 3213 
Q 2675 2891 2525 2569 
Q 2294 2063 1775 1497 
Q 997 647 803 472 
L 1909 472 
Q 2247 472 2383 497 
Q 2519 522 2628 598 
Q 2738 675 2819 816 
L 2934 816 
z
" transform="scale(0.015625)"/>
        <path id="TimesNewRomanPSMT-30" d="M 231 2094 
Q 231 2819 450 3342 
Q 669 3866 1031 4122 
Q 1313 4325 1613 4325 
Q 2100 4325 2488 3828 
Q 2972 3213 2972 2159 
Q 2972 1422 2759 906 
Q 2547 391 2217 158 
Q 1888 -75 1581 -75 
Q 975 -75 572 641 
Q 231 1244 231 2094 
z
M 844 2016 
Q 844 1141 1059 588 
Q 1238 122 1591 122 
Q 1759 122 1940 273 
Q 2122 425 2216 781 
Q 2359 1319 2359 2297 
Q 2359 3022 2209 3506 
Q 2097 3866 1919 4016 
Q 1791 4119 1609 4119 
Q 1397 4119 1231 3928 
Q 1006 3669 925 3112 
Q 844 2556 844 2016 
z
" transform="scale(0.015625)"/>
       </defs>
       <use xlink:href="#TimesNewRomanPSMT-32"/>
       <use xlink:href="#TimesNewRomanPSMT-30" x="50"/>
       <use xlink:href="#TimesNewRomanPSMT-30" x="100"/>
       <use xlink:href="#TimesNewRomanPSMT-30" x="150"/>
      </g>
     </g>
    </g>
    <g id="ytick_2">
     <g id="line2d_7">
      <g>
       <use xlink:href="#mf0d18d79c3" x="50.915938" y="186.777" style="stroke: #000000; stroke-width: 0.8"/>
      </g>
     </g>
     <g id="text_7">
      <!-- 3000 -->
      <g transform="translate(23.915938 190.248875) scale(0.1 -0.1)">
       <defs>
        <path id="TimesNewRomanPSMT-33" d="M 325 3431 
Q 506 3859 782 4092 
Q 1059 4325 1472 4325 
Q 1981 4325 2253 3994 
Q 2459 3747 2459 3466 
Q 2459 3003 1878 2509 
Q 2269 2356 2469 2072 
Q 2669 1788 2669 1403 
Q 2669 853 2319 450 
Q 1863 -75 997 -75 
Q 569 -75 414 31 
Q 259 138 259 259 
Q 259 350 332 419 
Q 406 488 509 488 
Q 588 488 669 463 
Q 722 447 909 348 
Q 1097 250 1169 231 
Q 1284 197 1416 197 
Q 1734 197 1970 444 
Q 2206 691 2206 1028 
Q 2206 1275 2097 1509 
Q 2016 1684 1919 1775 
Q 1784 1900 1550 2001 
Q 1316 2103 1072 2103 
L 972 2103 
L 972 2197 
Q 1219 2228 1467 2375 
Q 1716 2522 1828 2728 
Q 1941 2934 1941 3181 
Q 1941 3503 1739 3701 
Q 1538 3900 1238 3900 
Q 753 3900 428 3381 
L 325 3431 
z
" transform="scale(0.015625)"/>
       </defs>
       <use xlink:href="#TimesNewRomanPSMT-33"/>
       <use xlink:href="#TimesNewRomanPSMT-30" x="50"/>
       <use xlink:href="#TimesNewRomanPSMT-30" x="100"/>
       <use xlink:href="#TimesNewRomanPSMT-30" x="150"/>
      </g>
     </g>
    </g>
    <g id="ytick_3">
     <g id="line2d_8">
      <g>
       <use xlink:href="#mf0d18d79c3" x="50.915938" y="140.280715" style="stroke: #000000; stroke-width: 0.8"/>
      </g>
     </g>
     <g id="text_8">
      <!-- 4000 -->
      <g transform="translate(23.915938 143.75259) scale(0.1 -0.1)">
       <defs>
        <path id="TimesNewRomanPSMT-34" d="M 2978 1563 
L 2978 1119 
L 2409 1119 
L 2409 0 
L 1894 0 
L 1894 1119 
L 100 1119 
L 100 1519 
L 2066 4325 
L 2409 4325 
L 2409 1563 
L 2978 1563 
z
M 1894 1563 
L 1894 3666 
L 406 1563 
L 1894 1563 
z
" transform="scale(0.015625)"/>
       </defs>
       <use xlink:href="#TimesNewRomanPSMT-34"/>
       <use xlink:href="#TimesNewRomanPSMT-30" x="50"/>
       <use xlink:href="#TimesNewRomanPSMT-30" x="100"/>
       <use xlink:href="#TimesNewRomanPSMT-30" x="150"/>
      </g>
     </g>
    </g>
    <g id="ytick_4">
     <g id="line2d_9">
      <g>
       <use xlink:href="#mf0d18d79c3" x="50.915938" y="93.784431" style="stroke: #000000; stroke-width: 0.8"/>
      </g>
     </g>
     <g id="text_9">
      <!-- 5000 -->
      <g transform="translate(23.915938 97.256306) scale(0.1 -0.1)">
       <defs>
        <path id="TimesNewRomanPSMT-35" d="M 2778 4238 
L 2534 3706 
L 1259 3706 
L 981 3138 
Q 1809 3016 2294 2522 
Q 2709 2097 2709 1522 
Q 2709 1188 2573 903 
Q 2438 619 2231 419 
Q 2025 219 1772 97 
Q 1413 -75 1034 -75 
Q 653 -75 479 54 
Q 306 184 306 341 
Q 306 428 378 495 
Q 450 563 559 563 
Q 641 563 702 538 
Q 763 513 909 409 
Q 1144 247 1384 247 
Q 1750 247 2026 523 
Q 2303 800 2303 1197 
Q 2303 1581 2056 1914 
Q 1809 2247 1375 2428 
Q 1034 2569 447 2591 
L 1259 4238 
L 2778 4238 
z
" transform="scale(0.015625)"/>
       </defs>
       <use xlink:href="#TimesNewRomanPSMT-35"/>
       <use xlink:href="#TimesNewRomanPSMT-30" x="50"/>
       <use xlink:href="#TimesNewRomanPSMT-30" x="100"/>
       <use xlink:href="#TimesNewRomanPSMT-30" x="150"/>
      </g>
     </g>
    </g>
    <g id="ytick_5">
     <g id="line2d_10">
      <g>
       <use xlink:href="#mf0d18d79c3" x="50.915938" y="47.288147" style="stroke: #000000; stroke-width: 0.8"/>
      </g>
     </g>
     <g id="text_10">
      <!-- 6000 -->
      <g transform="translate(23.915938 50.760022) scale(0.1 -0.1)">
       <defs>
        <path id="TimesNewRomanPSMT-36" d="M 2869 4325 
L 2869 4209 
Q 2456 4169 2195 4045 
Q 1934 3922 1679 3669 
Q 1425 3416 1258 3105 
Q 1091 2794 978 2366 
Q 1428 2675 1881 2675 
Q 2316 2675 2634 2325 
Q 2953 1975 2953 1425 
Q 2953 894 2631 456 
Q 2244 -75 1606 -75 
Q 1172 -75 869 213 
Q 275 772 275 1663 
Q 275 2231 503 2743 
Q 731 3256 1154 3653 
Q 1578 4050 1965 4187 
Q 2353 4325 2688 4325 
L 2869 4325 
z
M 925 2138 
Q 869 1716 869 1456 
Q 869 1156 980 804 
Q 1091 453 1309 247 
Q 1469 100 1697 100 
Q 1969 100 2183 356 
Q 2397 613 2397 1088 
Q 2397 1622 2184 2012 
Q 1972 2403 1581 2403 
Q 1463 2403 1327 2353 
Q 1191 2303 925 2138 
z
" transform="scale(0.015625)"/>
       </defs>
       <use xlink:href="#TimesNewRomanPSMT-36"/>
       <use xlink:href="#TimesNewRomanPSMT-30" x="50"/>
       <use xlink:href="#TimesNewRomanPSMT-30" x="100"/>
       <use xlink:href="#TimesNewRomanPSMT-30" x="150"/>
      </g>
     </g>
    </g>
    <g id="text_11">
     <!-- MWh -->
     <g transform="translate(16.92125 163.424296) rotate(-90) scale(0.14 -0.14)">
      <defs>
       <path id="TimesNewRomanPSMT-4d" d="M 2619 0 
L 981 3566 
L 981 734 
Q 981 344 1066 247 
Q 1181 116 1431 116 
L 1581 116 
L 1581 0 
L 106 0 
L 106 116 
L 256 116 
Q 525 116 638 278 
Q 706 378 706 734 
L 706 3503 
Q 706 3784 644 3909 
Q 600 4000 483 4061 
Q 366 4122 106 4122 
L 106 4238 
L 1306 4238 
L 2844 922 
L 4356 4238 
L 5556 4238 
L 5556 4122 
L 5409 4122 
Q 5138 4122 5025 3959 
Q 4956 3859 4956 3503 
L 4956 734 
Q 4956 344 5044 247 
Q 5159 116 5409 116 
L 5556 116 
L 5556 0 
L 3756 0 
L 3756 116 
L 3906 116 
Q 4178 116 4288 278 
Q 4356 378 4356 734 
L 4356 3566 
L 2722 0 
L 2619 0 
z
" transform="scale(0.015625)"/>
      </defs>
      <use xlink:href="#TimesNewRomanPSMT-4d"/>
      <use xlink:href="#TimesNewRomanPSMT-57" x="88.916016"/>
      <use xlink:href="#TimesNewRomanPSMT-68" x="183.300781"/>
     </g>
    </g>
   </g>
   <g id="patch_3">
    <path d="M 84.074337 222.846492 
L 93.117538 222.846492 
L 93.117538 205.42201 
L 84.074337 205.42201 
L 84.074337 222.846492 
L 84.074337 222.846492 
z
" clip-path="url(#pcf9021c714)" style="fill: none; stroke: #000000; stroke-linejoin: miter"/>
   </g>
   <g id="line2d_11">
    <path d="M 88.595938 222.846492 
L 88.595938 242.572541 
" clip-path="url(#pcf9021c714)" style="fill: none; stroke: #000000; stroke-linecap: square"/>
   </g>
   <g id="line2d_12">
    <path d="M 88.595938 205.42201 
L 88.595938 185.242622 
" clip-path="url(#pcf9021c714)" style="fill: none; stroke: #000000; stroke-linecap: square"/>
   </g>
   <g id="line2d_13">
    <path d="M 86.335138 242.572541 
L 90.856738 242.572541 
" clip-path="url(#pcf9021c714)" style="fill: none; stroke: #000000; stroke-linecap: square"/>
   </g>
   <g id="line2d_14">
    <path d="M 86.335138 185.242622 
L 90.856738 185.242622 
" clip-path="url(#pcf9021c714)" style="fill: none; stroke: #000000; stroke-linecap: square"/>
   </g>
   <g id="patch_4">
    <path d="M 159.434337 119.345763 
L 168.477538 119.345763 
L 168.477538 102.909327 
L 159.434337 102.909327 
L 159.434337 119.345763 
L 159.434337 119.345763 
z
" clip-path="url(#pcf9021c714)" style="fill: none; stroke: #000000; stroke-linejoin: miter"/>
   </g>
   <g id="line2d_15">
    <path d="M 163.955938 119.345763 
L 163.955938 143.860929 
" clip-path="url(#pcf9021c714)" style="fill: none; stroke: #000000; stroke-linecap: square"/>
   </g>
   <g id="line2d_16">
    <path d="M 163.955938 102.909327 
L 163.955938 79.417079 
" clip-path="url(#pcf9021c714)" style="fill: none; stroke: #000000; stroke-linecap: square"/>
   </g>
   <g id="line2d_17">
    <path d="M 161.695138 143.860929 
L 166.216737 143.860929 
" clip-path="url(#pcf9021c714)" style="fill: none; stroke: #000000; stroke-linecap: square"/>
   </g>
   <g id="line2d_18">
    <path d="M 161.695138 79.417079 
L 166.216737 79.417079 
" clip-path="url(#pcf9021c714)" style="fill: none; stroke: #000000; stroke-linecap: square"/>
   </g>
   <g id="patch_5">
    <path d="M 234.794338 177.652104 
L 243.837537 177.652104 
L 243.837537 155.810474 
L 234.794338 155.810474 
L 234.794338 177.652104 
L 234.794338 177.652104 
z
" clip-path="url(#pcf9021c714)" style="fill: none; stroke: #000000; stroke-linejoin: miter"/>
   </g>
   <g id="line2d_19">
    <path d="M 239.315937 177.652104 
L 239.315937 198.0291 
" clip-path="url(#pcf9021c714)" style="fill: none; stroke: #000000; stroke-linecap: square"/>
   </g>
   <g id="line2d_20">
    <path d="M 239.315937 155.810474 
L 239.315937 132.701821 
" clip-path="url(#pcf9021c714)" style="fill: none; stroke: #000000; stroke-linecap: square"/>
   </g>
   <g id="line2d_21">
    <path d="M 237.055138 198.0291 
L 241.576737 198.0291 
" clip-path="url(#pcf9021c714)" style="fill: none; stroke: #000000; stroke-linecap: square"/>
   </g>
   <g id="line2d_22">
    <path d="M 237.055138 132.701821 
L 241.576737 132.701821 
" clip-path="url(#pcf9021c714)" style="fill: none; stroke: #000000; stroke-linecap: square"/>
   </g>
   <g id="patch_6">
    <path d="M 310.154337 188.160264 
L 319.197537 188.160264 
L 319.197537 169.352517 
L 310.154337 169.352517 
L 310.154337 188.160264 
L 310.154337 188.160264 
z
" clip-path="url(#pcf9021c714)" style="fill: none; stroke: #000000; stroke-linejoin: miter"/>
   </g>
   <g id="line2d_23">
    <path d="M 314.675938 188.160264 
L 314.675938 208.118794 
" clip-path="url(#pcf9021c714)" style="fill: none; stroke: #000000; stroke-linecap: square"/>
   </g>
   <g id="line2d_24">
    <path d="M 314.675938 169.352517 
L 314.675938 149.208002 
" clip-path="url(#pcf9021c714)" style="fill: none; stroke: #000000; stroke-linecap: square"/>
   </g>
   <g id="line2d_25">
    <path d="M 312.415138 208.118794 
L 316.936738 208.118794 
" clip-path="url(#pcf9021c714)" style="fill: none; stroke: #000000; stroke-linecap: square"/>
   </g>
   <g id="line2d_26">
    <path d="M 312.415138 149.208002 
L 316.936738 149.208002 
" clip-path="url(#pcf9021c714)" style="fill: none; stroke: #000000; stroke-linecap: square"/>
   </g>
   <g id="patch_7">
    <path d="M 385.514338 95.423425 
L 394.557537 95.423425 
L 394.557537 71.501087 
L 385.514338 71.501087 
L 385.514338 95.423425 
L 385.514338 95.423425 
z
" clip-path="url(#pcf9021c714)" style="fill: none; stroke: #000000; stroke-linejoin: miter"/>
   </g>
   <g id="line2d_27">
    <path d="M 390.035938 95.423425 
L 390.035938 122.054172 
" clip-path="url(#pcf9021c714)" style="fill: none; stroke: #000000; stroke-linecap: square"/>
   </g>
   <g id="line2d_28">
    <path d="M 390.035938 71.501087 
L 390.035938 40.685675 
" clip-path="url(#pcf9021c714)" style="fill: none; stroke: #000000; stroke-linecap: square"/>
   </g>
   <g id="line2d_29">
    <path d="M 387.775138 122.054172 
L 392.296738 122.054172 
" clip-path="url(#pcf9021c714)" style="fill: none; stroke: #000000; stroke-linecap: square"/>
   </g>
   <g id="line2d_30">
    <path d="M 387.775138 40.685675 
L 392.296738 40.685675 
" clip-path="url(#pcf9021c714)" style="fill: none; stroke: #000000; stroke-linecap: square"/>
   </g>
   <g id="line2d_31">
    <path d="M 84.074337 215.534951 
L 93.117538 215.534951 
" clip-path="url(#pcf9021c714)" style="fill: none; stroke: #000000; stroke-width: 1.5; stroke-linecap: square"/>
   </g>
   <g id="line2d_32">
    <path d="M 159.434337 111.360027 
L 168.477538 111.360027 
" clip-path="url(#pcf9021c714)" style="fill: none; stroke: #000000; stroke-width: 1.5; stroke-linecap: square"/>
   </g>
   <g id="line2d_33">
    <path d="M 234.794338 168.294727 
L 243.837537 168.294727 
" clip-path="url(#pcf9021c714)" style="fill: none; stroke: #000000; stroke-width: 1.5; stroke-linecap: square"/>
   </g>
   <g id="line2d_34">
    <path d="M 310.154337 179.430587 
L 319.197537 179.430587 
" clip-path="url(#pcf9021c714)" style="fill: none; stroke: #000000; stroke-width: 1.5; stroke-linecap: square"/>
   </g>
   <g id="line2d_35">
    <path d="M 385.514338 85.368604 
L 394.557537 85.368604 
" clip-path="url(#pcf9021c714)" style="fill: none; stroke: #000000; stroke-width: 1.5; stroke-linecap: square"/>
   </g>
   <g id="patch_8">
    <path d="M 50.915938 264.139842 
L 50.915938 30.045 
" style="fill: none; stroke: #000000; stroke-linejoin: miter; stroke-linecap: square"/>
   </g>
   <g id="patch_9">
    <path d="M 427.715937 264.139842 
L 427.715937 30.045 
" style="fill: none; stroke: #000000; stroke-linejoin: miter; stroke-linecap: square"/>
   </g>
   <g id="patch_10">
    <path d="M 50.915938 264.139842 
L 427.715937 264.139842 
" style="fill: none; stroke: #000000; stroke-linejoin: miter; stroke-linecap: square"/>
   </g>
   <g id="patch_11">
    <path d="M 50.915938 30.045 
L 427.715937 30.045 
" style="fill: none; stroke: #000000; stroke-linejoin: miter; stroke-linecap: square"/>
   </g>
   <g id="text_12">
    <!-- Data on daily energy consumption accross cities (MWh) -->
    <g transform="translate(49.025937 18.045) scale(0.16 -0.16)">
     <defs>
      <path id="TimesNewRomanPS-BoldMT-44" d="M 84 0 
L 84 116 
L 225 116 
Q 409 116 507 173 
Q 606 231 653 331 
Q 681 397 681 725 
L 681 3513 
Q 681 3838 647 3919 
Q 613 4000 508 4061 
Q 403 4122 225 4122 
L 84 4122 
L 84 4238 
L 1981 4238 
Q 2741 4238 3203 4031 
Q 3769 3778 4061 3265 
Q 4353 2753 4353 2106 
Q 4353 1659 4209 1282 
Q 4066 906 3837 661 
Q 3609 416 3311 267 
Q 3013 119 2581 38 
Q 2391 0 1981 0 
L 84 0 
z
M 1700 3997 
L 1700 691 
Q 1700 428 1725 368 
Q 1750 309 1809 278 
Q 1894 231 2053 231 
Q 2575 231 2850 588 
Q 3225 1069 3225 2081 
Q 3225 2897 2969 3384 
Q 2766 3766 2447 3903 
Q 2222 4000 1700 3997 
z
" transform="scale(0.015625)"/>
      <path id="TimesNewRomanPS-BoldMT-61" d="M 1828 431 
Q 1294 -41 869 -41 
Q 619 -41 453 123 
Q 288 288 288 534 
Q 288 869 575 1136 
Q 863 1403 1828 1847 
L 1828 2141 
Q 1828 2472 1792 2558 
Q 1756 2644 1656 2708 
Q 1556 2772 1431 2772 
Q 1228 2772 1097 2681 
Q 1016 2625 1016 2550 
Q 1016 2484 1103 2388 
Q 1222 2253 1222 2128 
Q 1222 1975 1108 1867 
Q 994 1759 809 1759 
Q 613 1759 480 1878 
Q 347 1997 347 2156 
Q 347 2381 525 2586 
Q 703 2791 1022 2900 
Q 1341 3009 1684 3009 
Q 2100 3009 2342 2832 
Q 2584 2656 2656 2450 
Q 2700 2319 2700 1847 
L 2700 713 
Q 2700 513 2715 461 
Q 2731 409 2762 384 
Q 2794 359 2834 359 
Q 2916 359 3000 475 
L 3094 400 
Q 2938 169 2770 64 
Q 2603 -41 2391 -41 
Q 2141 -41 2000 76 
Q 1859 194 1828 431 
z
M 1828 659 
L 1828 1638 
Q 1450 1416 1266 1163 
Q 1144 994 1144 822 
Q 1144 678 1247 569 
Q 1325 484 1466 484 
Q 1622 484 1828 659 
z
" transform="scale(0.015625)"/>
      <path id="TimesNewRomanPS-BoldMT-74" d="M 1375 3991 
L 1375 2922 
L 2069 2922 
L 2069 2613 
L 1375 2613 
L 1375 809 
Q 1375 556 1398 482 
Q 1422 409 1481 364 
Q 1541 319 1591 319 
Q 1794 319 1975 628 
L 2069 559 
Q 1816 -41 1247 -41 
Q 969 -41 776 114 
Q 584 269 531 459 
Q 500 566 500 1034 
L 500 2613 
L 119 2613 
L 119 2722 
Q 513 3000 789 3306 
Q 1066 3613 1272 3991 
L 1375 3991 
z
" transform="scale(0.015625)"/>
      <path id="TimesNewRomanPS-BoldMT-20" transform="scale(0.015625)"/>
      <path id="TimesNewRomanPS-BoldMT-6f" d="M 1594 3009 
Q 1975 3009 2303 2812 
Q 2631 2616 2801 2253 
Q 2972 1891 2972 1459 
Q 2972 838 2656 419 
Q 2275 -88 1603 -88 
Q 944 -88 587 375 
Q 231 838 231 1447 
Q 231 2075 595 2542 
Q 959 3009 1594 3009 
z
M 1606 2788 
Q 1447 2788 1333 2667 
Q 1219 2547 1183 2192 
Q 1147 1838 1147 1206 
Q 1147 872 1191 581 
Q 1225 359 1337 243 
Q 1450 128 1594 128 
Q 1734 128 1828 206 
Q 1950 313 1991 503 
Q 2053 800 2053 1703 
Q 2053 2234 1993 2432 
Q 1934 2631 1819 2722 
Q 1738 2788 1606 2788 
z
" transform="scale(0.015625)"/>
      <path id="TimesNewRomanPS-BoldMT-6e" d="M 1409 2922 
L 1409 2544 
Q 1634 2788 1840 2898 
Q 2047 3009 2284 3009 
Q 2569 3009 2756 2851 
Q 2944 2694 3006 2459 
Q 3056 2281 3056 1775 
L 3056 638 
Q 3056 300 3117 217 
Q 3178 134 3372 113 
L 3372 0 
L 1894 0 
L 1894 113 
Q 2059 134 2131 250 
Q 2181 328 2181 638 
L 2181 1938 
Q 2181 2297 2153 2390 
Q 2125 2484 2058 2536 
Q 1991 2588 1909 2588 
Q 1641 2588 1409 2203 
L 1409 638 
Q 1409 309 1470 221 
Q 1531 134 1697 113 
L 1697 0 
L 219 0 
L 219 113 
Q 403 131 481 231 
Q 534 300 534 638 
L 534 2288 
Q 534 2619 473 2700 
Q 413 2781 219 2806 
L 219 2922 
L 1409 2922 
z
" transform="scale(0.015625)"/>
      <path id="TimesNewRomanPS-BoldMT-64" d="M 3056 4238 
L 3056 875 
Q 3056 534 3075 472 
Q 3100 369 3170 319 
Q 3241 269 3416 256 
L 3416 153 
L 2181 -88 
L 2181 375 
Q 1959 106 1786 9 
Q 1613 -88 1394 -88 
Q 834 -88 509 413 
Q 247 819 247 1409 
Q 247 1881 409 2254 
Q 572 2628 855 2818 
Q 1138 3009 1463 3009 
Q 1672 3009 1834 2928 
Q 1997 2847 2181 2644 
L 2181 3525 
Q 2181 3859 2153 3928 
Q 2116 4019 2041 4062 
Q 1966 4106 1759 4106 
L 1759 4238 
L 3056 4238 
z
M 2181 2256 
Q 1950 2700 1616 2700 
Q 1500 2700 1425 2638 
Q 1309 2541 1236 2297 
Q 1163 2053 1163 1550 
Q 1163 997 1244 731 
Q 1325 466 1466 347 
Q 1538 288 1663 288 
Q 1938 288 2181 719 
L 2181 2256 
z
" transform="scale(0.015625)"/>
      <path id="TimesNewRomanPS-BoldMT-69" d="M 919 4338 
Q 1122 4338 1262 4195 
Q 1403 4053 1403 3853 
Q 1403 3653 1261 3512 
Q 1119 3372 919 3372 
Q 719 3372 578 3512 
Q 438 3653 438 3853 
Q 438 4053 578 4195 
Q 719 4338 919 4338 
z
M 1356 2922 
L 1356 606 
Q 1356 297 1428 211 
Q 1500 125 1709 113 
L 1709 0 
L 131 0 
L 131 113 
Q 325 119 419 225 
Q 481 297 481 606 
L 481 2313 
Q 481 2622 409 2708 
Q 338 2794 131 2806 
L 131 2922 
L 1356 2922 
z
" transform="scale(0.015625)"/>
      <path id="TimesNewRomanPS-BoldMT-6c" d="M 1359 4238 
L 1359 606 
Q 1359 297 1431 211 
Q 1503 125 1713 113 
L 1713 0 
L 134 0 
L 134 113 
Q 328 119 422 225 
Q 484 297 484 606 
L 484 3631 
Q 484 3938 412 4023 
Q 341 4109 134 4122 
L 134 4238 
L 1359 4238 
z
" transform="scale(0.015625)"/>
      <path id="TimesNewRomanPS-BoldMT-79" d="M 1556 -119 
L 613 2047 
Q 400 2538 298 2650 
Q 197 2763 53 2806 
L 53 2922 
L 1606 2922 
L 1606 2806 
Q 1453 2800 1390 2747 
Q 1328 2694 1328 2619 
Q 1328 2500 1484 2150 
L 1984 1006 
L 2325 1891 
Q 2509 2363 2509 2547 
Q 2509 2663 2432 2731 
Q 2356 2800 2163 2806 
L 2163 2922 
L 3141 2922 
L 3141 2806 
Q 2997 2791 2906 2695 
Q 2816 2600 2603 2047 
L 1769 -119 
Q 1453 -931 1300 -1119 
Q 1084 -1381 759 -1381 
Q 500 -1381 339 -1232 
Q 178 -1084 178 -875 
Q 178 -694 289 -575 
Q 400 -456 563 -456 
Q 719 -456 814 -556 
Q 909 -656 913 -866 
Q 916 -984 941 -1019 
Q 966 -1053 1013 -1053 
Q 1088 -1053 1172 -963 
Q 1297 -831 1466 -363 
L 1556 -119 
z
" transform="scale(0.015625)"/>
      <path id="TimesNewRomanPS-BoldMT-65" d="M 2691 1566 
L 1088 1566 
Q 1116 984 1397 647 
Q 1613 388 1916 388 
Q 2103 388 2256 492 
Q 2409 597 2584 869 
L 2691 800 
Q 2453 316 2165 114 
Q 1878 -88 1500 -88 
Q 850 -88 516 413 
Q 247 816 247 1413 
Q 247 2144 642 2576 
Q 1038 3009 1569 3009 
Q 2013 3009 2339 2645 
Q 2666 2281 2691 1566 
z
M 1922 1775 
Q 1922 2278 1867 2465 
Q 1813 2653 1697 2750 
Q 1631 2806 1522 2806 
Q 1359 2806 1256 2647 
Q 1072 2369 1072 1884 
L 1072 1775 
L 1922 1775 
z
" transform="scale(0.015625)"/>
      <path id="TimesNewRomanPS-BoldMT-72" d="M 1428 2922 
L 1428 2259 
Q 1719 2713 1937 2861 
Q 2156 3009 2359 3009 
Q 2534 3009 2639 2901 
Q 2744 2794 2744 2597 
Q 2744 2388 2642 2272 
Q 2541 2156 2397 2156 
Q 2231 2156 2109 2262 
Q 1988 2369 1966 2381 
Q 1934 2400 1894 2400 
Q 1803 2400 1722 2331 
Q 1594 2225 1528 2028 
Q 1428 1725 1428 1359 
L 1428 688 
L 1431 513 
Q 1431 334 1453 284 
Q 1491 200 1564 161 
Q 1638 122 1813 113 
L 1813 0 
L 234 0 
L 234 113 
Q 425 128 492 217 
Q 559 306 559 688 
L 559 2303 
Q 559 2553 534 2622 
Q 503 2709 443 2750 
Q 384 2791 234 2806 
L 234 2922 
L 1428 2922 
z
" transform="scale(0.015625)"/>
      <path id="TimesNewRomanPS-BoldMT-67" d="M 2091 2888 
L 3075 2888 
L 3075 2544 
L 2516 2544 
Q 2669 2391 2728 2266 
Q 2803 2097 2803 1913 
Q 2803 1600 2629 1370 
Q 2456 1141 2157 1011 
Q 1859 881 1628 881 
Q 1609 881 1253 897 
Q 1113 897 1017 805 
Q 922 713 922 584 
Q 922 472 1008 400 
Q 1094 328 1288 328 
L 1828 334 
Q 2484 334 2731 191 
Q 3084 -9 3084 -425 
Q 3084 -691 2921 -908 
Q 2759 -1125 2494 -1228 
Q 2091 -1381 1566 -1381 
Q 1172 -1381 847 -1304 
Q 522 -1228 381 -1092 
Q 241 -956 241 -806 
Q 241 -663 348 -548 
Q 456 -434 750 -356 
Q 344 -156 344 200 
Q 344 416 509 619 
Q 675 822 1034 972 
Q 616 1125 428 1375 
Q 241 1625 241 1953 
Q 241 2381 591 2695 
Q 941 3009 1491 3009 
Q 1781 3009 2091 2888 
z
M 1550 2816 
Q 1369 2816 1244 2633 
Q 1119 2450 1119 1875 
Q 1119 1409 1242 1236 
Q 1366 1063 1534 1063 
Q 1722 1063 1847 1234 
Q 1972 1406 1972 1903 
Q 1972 2463 1831 2666 
Q 1731 2816 1550 2816 
z
M 1366 -431 
Q 1047 -431 944 -484 
Q 766 -581 766 -747 
Q 766 -906 950 -1036 
Q 1134 -1166 1644 -1166 
Q 2078 -1166 2326 -1050 
Q 2575 -934 2575 -725 
Q 2575 -647 2528 -594 
Q 2444 -500 2273 -465 
Q 2103 -431 1366 -431 
z
" transform="scale(0.015625)"/>
      <path id="TimesNewRomanPS-BoldMT-63" d="M 2600 753 
L 2697 678 
Q 2491 291 2183 101 
Q 1875 -88 1528 -88 
Q 944 -88 594 353 
Q 244 794 244 1413 
Q 244 2009 563 2463 
Q 947 3009 1622 3009 
Q 2075 3009 2342 2781 
Q 2609 2553 2609 2272 
Q 2609 2094 2501 1987 
Q 2394 1881 2219 1881 
Q 2034 1881 1914 2003 
Q 1794 2125 1766 2438 
Q 1747 2634 1675 2713 
Q 1603 2791 1506 2791 
Q 1356 2791 1250 2631 
Q 1088 2391 1088 1894 
Q 1088 1481 1219 1104 
Q 1350 728 1578 544 
Q 1750 409 1984 409 
Q 2138 409 2275 481 
Q 2413 553 2600 753 
z
" transform="scale(0.015625)"/>
      <path id="TimesNewRomanPS-BoldMT-73" d="M 2063 3003 
L 2109 2006 
L 2003 2006 
Q 1813 2450 1608 2612 
Q 1403 2775 1200 2775 
Q 1072 2775 981 2689 
Q 891 2603 891 2491 
Q 891 2406 953 2328 
Q 1053 2200 1512 1889 
Q 1972 1578 2117 1361 
Q 2263 1144 2263 875 
Q 2263 631 2141 397 
Q 2019 163 1797 37 
Q 1575 -88 1306 -88 
Q 1097 -88 747 44 
Q 653 78 619 78 
Q 516 78 447 -78 
L 344 -78 
L 294 972 
L 400 972 
Q 541 559 786 353 
Q 1031 147 1250 147 
Q 1400 147 1495 239 
Q 1591 331 1591 463 
Q 1591 613 1497 722 
Q 1403 831 1078 1053 
Q 600 1384 459 1559 
Q 253 1816 253 2125 
Q 253 2463 486 2736 
Q 719 3009 1159 3009 
Q 1397 3009 1619 2894 
Q 1703 2847 1756 2847 
Q 1813 2847 1847 2870 
Q 1881 2894 1956 3003 
L 2063 3003 
z
" transform="scale(0.015625)"/>
      <path id="TimesNewRomanPS-BoldMT-75" d="M 3038 2922 
L 3038 634 
Q 3038 300 3100 217 
Q 3163 134 3353 113 
L 3353 0 
L 2163 0 
L 2163 391 
Q 1953 141 1743 26 
Q 1534 -88 1275 -88 
Q 1028 -88 836 64 
Q 644 216 578 419 
Q 513 622 513 1128 
L 513 2288 
Q 513 2619 452 2700 
Q 391 2781 197 2806 
L 197 2922 
L 1388 2922 
L 1388 925 
Q 1388 613 1417 522 
Q 1447 431 1511 384 
Q 1575 338 1659 338 
Q 1772 338 1863 397 
Q 1988 478 2163 725 
L 2163 2288 
Q 2163 2619 2102 2700 
Q 2041 2781 1847 2806 
L 1847 2922 
L 3038 2922 
z
" transform="scale(0.015625)"/>
      <path id="TimesNewRomanPS-BoldMT-6d" d="M 1428 2922 
L 1428 2538 
Q 1669 2800 1873 2904 
Q 2078 3009 2322 3009 
Q 2603 3009 2793 2878 
Q 2984 2747 3088 2478 
Q 3338 2759 3567 2884 
Q 3797 3009 4047 3009 
Q 4350 3009 4529 2870 
Q 4709 2731 4779 2517 
Q 4850 2303 4850 1834 
L 4850 638 
Q 4850 300 4911 219 
Q 4972 138 5166 113 
L 5166 0 
L 3656 0 
L 3656 113 
Q 3834 128 3919 250 
Q 3975 334 3975 638 
L 3975 1894 
Q 3975 2284 3944 2390 
Q 3913 2497 3845 2548 
Q 3778 2600 3688 2600 
Q 3553 2600 3415 2501 
Q 3278 2403 3138 2206 
L 3138 638 
Q 3138 322 3191 241 
Q 3263 125 3466 113 
L 3466 0 
L 1953 0 
L 1953 113 
Q 2075 119 2145 173 
Q 2216 228 2239 304 
Q 2263 381 2263 638 
L 2263 1894 
Q 2263 2291 2231 2391 
Q 2200 2491 2126 2547 
Q 2053 2603 1969 2603 
Q 1844 2603 1741 2538 
Q 1594 2441 1428 2206 
L 1428 638 
Q 1428 328 1489 229 
Q 1550 131 1744 113 
L 1744 0 
L 238 0 
L 238 113 
Q 422 131 500 231 
Q 553 300 553 638 
L 553 2288 
Q 553 2619 492 2700 
Q 431 2781 238 2806 
L 238 2922 
L 1428 2922 
z
" transform="scale(0.015625)"/>
      <path id="TimesNewRomanPS-BoldMT-70" d="M 1347 297 
L 1347 -791 
Q 1347 -1016 1383 -1097 
Q 1419 -1178 1494 -1215 
Q 1569 -1253 1788 -1253 
L 1788 -1369 
L 122 -1369 
L 122 -1253 
Q 316 -1247 409 -1144 
Q 472 -1072 472 -772 
L 472 2313 
Q 472 2622 400 2708 
Q 328 2794 122 2806 
L 122 2922 
L 1347 2922 
L 1347 2538 
Q 1500 2763 1659 2863 
Q 1888 3009 2156 3009 
Q 2478 3009 2742 2806 
Q 3006 2603 3143 2245 
Q 3281 1888 3281 1475 
Q 3281 1031 3139 664 
Q 2997 297 2726 104 
Q 2456 -88 2125 -88 
Q 1884 -88 1675 19 
Q 1519 100 1347 297 
z
M 1347 613 
Q 1616 231 1922 231 
Q 2091 231 2200 409 
Q 2363 672 2363 1409 
Q 2363 2166 2184 2444 
Q 2066 2628 1866 2628 
Q 1550 2628 1347 2172 
L 1347 613 
z
" transform="scale(0.015625)"/>
      <path id="TimesNewRomanPS-BoldMT-28" d="M 2056 4334 
L 2056 4191 
Q 1731 3978 1578 3775 
Q 1366 3494 1247 3053 
Q 1097 2506 1097 1525 
Q 1097 600 1233 87 
Q 1369 -425 1603 -741 
Q 1766 -959 2056 -1125 
L 2056 -1281 
Q 1303 -1028 779 -248 
Q 256 531 256 1544 
Q 256 2544 778 3314 
Q 1300 4084 2056 4334 
z
" transform="scale(0.015625)"/>
      <path id="TimesNewRomanPS-BoldMT-4d" d="M 3050 1444 
L 4200 4238 
L 5925 4238 
L 5925 4122 
L 5788 4122 
Q 5600 4122 5488 4056 
Q 5409 4013 5363 3909 
Q 5328 3834 5328 3519 
L 5328 725 
Q 5328 400 5362 319 
Q 5397 238 5503 177 
Q 5609 116 5788 116 
L 5925 116 
L 5925 0 
L 3713 0 
L 3713 116 
L 3850 116 
Q 4038 116 4150 181 
Q 4228 225 4275 331 
Q 4309 406 4309 725 
L 4309 3866 
L 2684 0 
L 2609 0 
L 959 3838 
L 959 853 
Q 959 541 975 469 
Q 1016 313 1152 214 
Q 1288 116 1578 116 
L 1578 0 
L 128 0 
L 128 116 
L 172 116 
Q 313 113 434 161 
Q 556 209 618 290 
Q 681 372 716 519 
Q 722 553 722 838 
L 722 3519 
Q 722 3841 687 3920 
Q 653 4000 547 4061 
Q 441 4122 263 4122 
L 128 4122 
L 128 4238 
L 1859 4238 
L 3050 1444 
z
" transform="scale(0.015625)"/>
      <path id="TimesNewRomanPS-BoldMT-57" d="M 6344 4238 
L 6344 4122 
Q 6225 4113 6144 4056 
Q 6063 4000 6000 3884 
Q 5981 3847 5803 3400 
L 4475 -97 
L 4353 -97 
L 3303 2634 
L 2147 -97 
L 2031 -97 
L 638 3363 
Q 425 3884 340 3993 
Q 256 4103 56 4122 
L 56 4238 
L 1894 4238 
L 1894 4122 
Q 1672 4116 1598 4055 
Q 1525 3994 1525 3903 
Q 1525 3784 1678 3400 
L 2509 1344 
L 3175 2950 
L 3000 3400 
Q 2856 3769 2778 3892 
Q 2700 4016 2598 4069 
Q 2497 4122 2300 4122 
L 2300 4238 
L 4353 4238 
L 4353 4122 
Q 4138 4119 4044 4088 
Q 3978 4066 3940 4014 
Q 3903 3963 3903 3897 
Q 3903 3825 4044 3456 
L 4816 1450 
L 5506 3266 
Q 5616 3547 5641 3650 
Q 5666 3753 5666 3841 
Q 5666 3969 5578 4042 
Q 5491 4116 5244 4122 
L 5244 4238 
L 6344 4238 
z
" transform="scale(0.015625)"/>
      <path id="TimesNewRomanPS-BoldMT-68" d="M 1409 4238 
L 1409 2547 
Q 1650 2800 1850 2904 
Q 2050 3009 2266 3009 
Q 2541 3009 2736 2853 
Q 2931 2697 2995 2486 
Q 3059 2275 3059 1775 
L 3059 634 
Q 3059 300 3121 217 
Q 3184 134 3375 113 
L 3375 0 
L 1894 0 
L 1894 113 
Q 2050 134 2128 238 
Q 2184 319 2184 634 
L 2184 1938 
Q 2184 2300 2156 2392 
Q 2128 2484 2061 2536 
Q 1994 2588 1909 2588 
Q 1784 2588 1665 2502 
Q 1547 2416 1409 2200 
L 1409 634 
Q 1409 322 1456 244 
Q 1516 138 1700 113 
L 1700 0 
L 219 0 
L 219 113 
Q 403 131 481 231 
Q 534 300 534 634 
L 534 3603 
Q 534 3934 473 4015 
Q 413 4097 219 4122 
L 219 4238 
L 1409 4238 
z
" transform="scale(0.015625)"/>
      <path id="TimesNewRomanPS-BoldMT-29" d="M 78 -1281 
L 78 -1138 
Q 403 -922 556 -719 
Q 766 -438 888 0 
Q 1038 550 1038 1531 
Q 1038 2456 902 2967 
Q 766 3478 531 3794 
Q 369 4013 78 4178 
L 78 4334 
Q 831 4081 1354 3301 
Q 1878 2522 1878 1509 
Q 1878 513 1354 -257 
Q 831 -1028 78 -1281 
z
" transform="scale(0.015625)"/>
     </defs>
     <use xlink:href="#TimesNewRomanPS-BoldMT-44"/>
     <use xlink:href="#TimesNewRomanPS-BoldMT-61" x="72.216797"/>
     <use xlink:href="#TimesNewRomanPS-BoldMT-74" x="122.216797"/>
     <use xlink:href="#TimesNewRomanPS-BoldMT-61" x="155.517578"/>
     <use xlink:href="#TimesNewRomanPS-BoldMT-20" x="205.517578"/>
     <use xlink:href="#TimesNewRomanPS-BoldMT-6f" x="230.517578"/>
     <use xlink:href="#TimesNewRomanPS-BoldMT-6e" x="280.517578"/>
     <use xlink:href="#TimesNewRomanPS-BoldMT-20" x="336.132812"/>
     <use xlink:href="#TimesNewRomanPS-BoldMT-64" x="361.132812"/>
     <use xlink:href="#TimesNewRomanPS-BoldMT-61" x="416.748047"/>
     <use xlink:href="#TimesNewRomanPS-BoldMT-69" x="466.748047"/>
     <use xlink:href="#TimesNewRomanPS-BoldMT-6c" x="494.53125"/>
     <use xlink:href="#TimesNewRomanPS-BoldMT-79" x="522.314453"/>
     <use xlink:href="#TimesNewRomanPS-BoldMT-20" x="572.314453"/>
     <use xlink:href="#TimesNewRomanPS-BoldMT-65" x="597.314453"/>
     <use xlink:href="#TimesNewRomanPS-BoldMT-6e" x="641.699219"/>
     <use xlink:href="#TimesNewRomanPS-BoldMT-65" x="697.314453"/>
     <use xlink:href="#TimesNewRomanPS-BoldMT-72" x="741.699219"/>
     <use xlink:href="#TimesNewRomanPS-BoldMT-67" x="786.083984"/>
     <use xlink:href="#TimesNewRomanPS-BoldMT-79" x="836.083984"/>
     <use xlink:href="#TimesNewRomanPS-BoldMT-20" x="886.083984"/>
     <use xlink:href="#TimesNewRomanPS-BoldMT-63" x="911.083984"/>
     <use xlink:href="#TimesNewRomanPS-BoldMT-6f" x="955.46875"/>
     <use xlink:href="#TimesNewRomanPS-BoldMT-6e" x="1005.46875"/>
     <use xlink:href="#TimesNewRomanPS-BoldMT-73" x="1061.083984"/>
     <use xlink:href="#TimesNewRomanPS-BoldMT-75" x="1100"/>
     <use xlink:href="#TimesNewRomanPS-BoldMT-6d" x="1155.615234"/>
     <use xlink:href="#TimesNewRomanPS-BoldMT-70" x="1238.916016"/>
     <use xlink:href="#TimesNewRomanPS-BoldMT-74" x="1294.53125"/>
     <use xlink:href="#TimesNewRomanPS-BoldMT-69" x="1327.832031"/>
     <use xlink:href="#TimesNewRomanPS-BoldMT-6f" x="1355.615234"/>
     <use xlink:href="#TimesNewRomanPS-BoldMT-6e" x="1405.615234"/>
     <use xlink:href="#TimesNewRomanPS-BoldMT-20" x="1461.230469"/>
     <use xlink:href="#TimesNewRomanPS-BoldMT-61" x="1486.230469"/>
     <use xlink:href="#TimesNewRomanPS-BoldMT-63" x="1536.230469"/>
     <use xlink:href="#TimesNewRomanPS-BoldMT-63" x="1580.615234"/>
     <use xlink:href="#TimesNewRomanPS-BoldMT-72" x="1625"/>
     <use xlink:href="#TimesNewRomanPS-BoldMT-6f" x="1667.634766"/>
     <use xlink:href="#TimesNewRomanPS-BoldMT-73" x="1717.634766"/>
     <use xlink:href="#TimesNewRomanPS-BoldMT-73" x="1756.550781"/>
     <use xlink:href="#TimesNewRomanPS-BoldMT-20" x="1795.466797"/>
     <use xlink:href="#TimesNewRomanPS-BoldMT-63" x="1820.466797"/>
     <use xlink:href="#TimesNewRomanPS-BoldMT-69" x="1864.851562"/>
     <use xlink:href="#TimesNewRomanPS-BoldMT-74" x="1892.634766"/>
     <use xlink:href="#TimesNewRomanPS-BoldMT-69" x="1925.935547"/>
     <use xlink:href="#TimesNewRomanPS-BoldMT-65" x="1953.71875"/>
     <use xlink:href="#TimesNewRomanPS-BoldMT-73" x="1998.103516"/>
     <use xlink:href="#TimesNewRomanPS-BoldMT-20" x="2037.019531"/>
     <use xlink:href="#TimesNewRomanPS-BoldMT-28" x="2062.019531"/>
     <use xlink:href="#TimesNewRomanPS-BoldMT-4d" x="2095.320312"/>
     <use xlink:href="#TimesNewRomanPS-BoldMT-57" x="2189.705078"/>
     <use xlink:href="#TimesNewRomanPS-BoldMT-68" x="2289.705078"/>
     <use xlink:href="#TimesNewRomanPS-BoldMT-29" x="2345.320312"/>
    </g>
   </g>
  </g>
 </g>
 <defs>
  <clipPath id="pcf9021c714">
   <rect x="50.915938" y="30.045" width="376.8" height="234.094842"/>
  </clipPath>
 </defs>
</svg>
