<?xml version="1.0" encoding="utf-8" standalone="no"?>
<!DOCTYPE svg PUBLIC "-//W3C//DTD SVG 1.1//EN"
  "http://www.w3.org/Graphics/SVG/1.1/DTD/svg11.dtd">
<svg xmlns:xlink="http://www.w3.org/1999/xlink" width="436.805937pt" height="319.98799pt" viewBox="0 0 436.805937 319.98799" xmlns="http://www.w3.org/2000/svg" version="1.1">
 <metadata>
  <rdf:RDF xmlns:dc="http://purl.org/dc/elements/1.1/" xmlns:cc="http://creativecommons.org/ns#" xmlns:rdf="http://www.w3.org/1999/02/22-rdf-syntax-ns#">
   <cc:Work>
    <dc:type rdf:resource="http://purl.org/dc/dcmitype/StillImage"/>
    <dc:date>2025-05-26T17:47:23.044233</dc:date>
    <dc:format>image/svg+xml</dc:format>
    <dc:creator>
     <cc:Agent>
      <dc:title>Matplotlib v3.7.2, https://matplotlib.org/</dc:title>
     </cc:Agent>
    </dc:creator>
   </cc:Work>
  </rdf:RDF>
 </metadata>
 <defs>
  <style type="text/css">*{stroke-linejoin: round; stroke-linecap: butt}</style>
 </defs>
 <g id="figure_1">
  <g id="patch_1">
   <path d="M 0 319.98799 
L 436.805937 319.98799 
L 436.805937 0 
L 0 0 
z
" style="fill: #ffffff"/>
  </g>
  <g id="axes_1">
   <g id="patch_2">
    <path d="M 50.915938 261.318486 
L 427.715937 261.318486 
L 427.715937 30.045 
L 50.915938 30.045 
z
" style="fill: #ffffff"/>
   </g>
   <g id="PolyCollection_1">
    <defs>
     <path id="m2908032bab" d="M 85.184217 -79.915989 
L 70.47623 -79.915989 
L 69.690132 -81.931288 
L 68.892967 -83.946587 
L 68.09589 -85.961885 
L 67.310735 -87.977184 
L 66.54967 -89.992483 
L 65.824827 -92.007781 
L 65.147906 -94.02308 
L 64.529798 -96.038379 
L 63.98022 -98.053677 
L 63.507397 -100.068976 
L 63.117793 -102.084275 
L 62.815919 -104.099574 
L 62.604218 -106.114872 
L 62.483028 -108.130171 
L 62.450631 -110.14547 
L 62.503383 -112.160768 
L 62.635903 -114.176067 
L 62.841328 -116.191366 
L 63.1116 -118.206664 
L 63.43778 -120.221963 
L 63.810368 -122.237262 
L 64.219618 -124.25256 
L 64.65583 -126.267859 
L 65.109608 -128.283158 
L 65.572089 -130.298456 
L 66.03512 -132.313755 
L 66.491402 -134.329054 
L 66.934586 -136.344352 
L 67.359338 -138.359651 
L 67.76137 -140.37495 
L 68.137447 -142.390248 
L 68.485365 -144.405547 
L 68.803924 -146.420846 
L 69.092873 -148.436144 
L 69.352851 -150.451443 
L 69.585312 -152.466742 
L 69.792434 -154.48204 
L 69.977021 -156.497339 
L 70.142378 -158.512638 
L 70.292185 -160.527936 
L 70.430346 -162.543235 
L 70.560833 -164.558534 
L 70.687524 -166.573832 
L 70.814039 -168.589131 
L 70.943586 -170.60443 
L 71.078827 -172.619729 
L 71.221765 -174.635027 
L 71.373666 -176.650326 
L 71.535018 -178.665625 
L 71.705543 -180.680923 
L 71.884236 -182.696222 
L 72.069464 -184.711521 
L 72.259087 -186.726819 
L 72.450619 -188.742118 
L 72.641403 -190.757417 
L 72.828793 -192.772715 
L 73.010332 -194.788014 
L 73.183917 -196.803313 
L 73.347926 -198.818611 
L 73.501317 -200.83391 
L 73.643679 -202.849209 
L 73.775231 -204.864507 
L 73.896783 -206.879806 
L 74.009642 -208.895105 
L 74.115495 -210.910403 
L 74.216251 -212.925702 
L 74.313889 -214.941001 
L 74.410285 -216.956299 
L 74.507075 -218.971598 
L 74.605525 -220.986897 
L 74.706451 -223.002195 
L 74.810175 -225.017494 
L 74.916525 -227.032793 
L 75.02488 -229.048091 
L 75.134249 -231.06339 
L 75.243384 -233.078689 
L 75.350901 -235.093987 
L 75.455414 -237.109286 
L 75.555654 -239.124585 
L 75.65058 -241.139883 
L 75.739456 -243.155182 
L 75.821902 -245.170481 
L 75.897909 -247.18578 
L 75.967829 -249.201078 
L 76.032327 -251.216377 
L 76.092323 -253.231676 
L 76.148913 -255.246974 
L 76.203283 -257.262273 
L 76.256629 -259.277572 
L 76.310077 -261.29287 
L 76.36462 -263.308169 
L 76.421068 -265.323468 
L 76.480013 -267.338766 
L 76.541812 -269.354065 
L 76.606585 -271.369364 
L 76.674224 -273.384662 
L 76.744418 -275.399961 
L 76.816682 -277.41526 
L 76.890389 -279.430558 
L 78.770058 -279.430558 
L 78.770058 -279.430558 
L 78.843765 -277.41526 
L 78.916028 -275.399961 
L 78.986222 -273.384662 
L 79.053862 -271.369364 
L 79.118634 -269.354065 
L 79.180433 -267.338766 
L 79.239378 -265.323468 
L 79.295826 -263.308169 
L 79.35037 -261.29287 
L 79.403817 -259.277572 
L 79.457163 -257.262273 
L 79.511533 -255.246974 
L 79.568123 -253.231676 
L 79.628119 -251.216377 
L 79.692618 -249.201078 
L 79.762537 -247.18578 
L 79.838545 -245.170481 
L 79.920991 -243.155182 
L 80.009867 -241.139883 
L 80.104793 -239.124585 
L 80.205033 -237.109286 
L 80.309545 -235.093987 
L 80.417062 -233.078689 
L 80.526197 -231.06339 
L 80.635567 -229.048091 
L 80.743921 -227.032793 
L 80.850271 -225.017494 
L 80.953995 -223.002195 
L 81.054921 -220.986897 
L 81.153371 -218.971598 
L 81.250161 -216.956299 
L 81.346558 -214.941001 
L 81.444195 -212.925702 
L 81.544952 -210.910403 
L 81.650804 -208.895105 
L 81.763664 -206.879806 
L 81.885215 -204.864507 
L 82.016768 -202.849209 
L 82.159129 -200.83391 
L 82.312521 -198.818611 
L 82.47653 -196.803313 
L 82.650114 -194.788014 
L 82.831653 -192.772715 
L 83.019043 -190.757417 
L 83.209827 -188.742118 
L 83.401359 -186.726819 
L 83.590983 -184.711521 
L 83.77621 -182.696222 
L 83.954904 -180.680923 
L 84.125428 -178.665625 
L 84.286781 -176.650326 
L 84.438681 -174.635027 
L 84.581619 -172.619729 
L 84.71686 -170.60443 
L 84.846408 -168.589131 
L 84.972922 -166.573832 
L 85.099613 -164.558534 
L 85.2301 -162.543235 
L 85.368261 -160.527936 
L 85.518068 -158.512638 
L 85.683426 -156.497339 
L 85.868012 -154.48204 
L 86.075135 -152.466742 
L 86.307596 -150.451443 
L 86.567574 -148.436144 
L 86.856523 -146.420846 
L 87.175081 -144.405547 
L 87.523 -142.390248 
L 87.899076 -140.37495 
L 88.301109 -138.359651 
L 88.725861 -136.344352 
L 89.169044 -134.329054 
L 89.625326 -132.313755 
L 90.088357 -130.298456 
L 90.550838 -128.283158 
L 91.004617 -126.267859 
L 91.440828 -124.25256 
L 91.850078 -122.237262 
L 92.222666 -120.221963 
L 92.548846 -118.206664 
L 92.819118 -116.191366 
L 93.024543 -114.176067 
L 93.157064 -112.160768 
L 93.209815 -110.14547 
L 93.177418 -108.130171 
L 93.056228 -106.114872 
L 92.844527 -104.099574 
L 92.542654 -102.084275 
L 92.153049 -100.068976 
L 91.680226 -98.053677 
L 91.130649 -96.038379 
L 90.512541 -94.02308 
L 89.83562 -92.007781 
L 89.110776 -89.992483 
L 88.349712 -87.977184 
L 87.564557 -85.961885 
L 86.767479 -83.946587 
L 85.970314 -81.931288 
L 85.184217 -79.915989 
z
" style="stroke: #000000; stroke-opacity: 0.7"/>
    </defs>
    <g clip-path="url(#p74f2dfc8c8)">
     <use xlink:href="#m2908032bab" x="0" y="319.98799" style="fill: #aec7e8; fill-opacity: 0.7; stroke: #000000; stroke-opacity: 0.7"/>
    </g>
   </g>
   <g id="PolyCollection_2">
    <defs>
     <path id="m517b84a8be" d="M 136.213528 -126.056404 
L 127.104061 -126.056404 
L 126.416087 -127.31111 
L 125.683083 -128.565817 
L 124.912812 -129.820524 
L 124.114803 -131.075231 
L 123.300113 -132.329938 
L 122.480984 -133.584645 
L 121.670399 -134.839351 
L 120.881573 -136.094058 
L 120.12741 -137.348765 
L 119.41997 -138.603472 
L 118.769981 -139.858179 
L 118.186439 -141.112886 
L 117.676325 -142.367592 
L 117.244441 -143.622299 
L 116.893382 -144.877006 
L 116.62362 -146.131713 
L 116.433683 -147.38642 
L 116.320403 -148.641127 
L 116.279203 -149.895833 
L 116.304405 -151.15054 
L 116.38954 -152.405247 
L 116.527638 -153.659954 
L 116.711512 -154.914661 
L 116.934011 -156.169368 
L 117.188249 -157.424074 
L 117.467803 -158.678781 
L 117.766863 -159.933488 
L 118.080335 -161.188195 
L 118.403875 -162.442902 
L 118.733868 -163.697609 
L 119.067349 -164.952315 
L 119.401876 -166.207022 
L 119.735393 -167.461729 
L 120.066106 -168.716436 
L 120.392385 -169.971143 
L 120.712746 -171.22585 
L 121.025876 -172.480556 
L 121.330737 -173.735263 
L 121.626696 -174.98997 
L 121.913662 -176.244677 
L 122.192191 -177.499384 
L 122.463523 -178.754091 
L 122.729528 -180.008797 
L 122.99256 -181.263504 
L 123.255223 -182.518211 
L 123.520082 -183.772918 
L 123.789373 -185.027625 
L 124.064731 -186.282332 
L 124.347003 -187.537038 
L 124.636165 -188.791745 
L 124.931351 -190.046452 
L 125.231004 -191.301159 
L 125.533101 -192.555866 
L 125.835435 -193.810573 
L 126.135897 -195.065279 
L 126.432721 -196.319986 
L 126.724654 -197.574693 
L 127.011021 -198.8294 
L 127.291703 -200.084107 
L 127.567001 -201.338813 
L 127.837451 -202.59352 
L 128.103592 -203.848227 
L 128.365743 -205.102934 
L 128.623815 -206.357641 
L 128.877192 -207.612348 
L 129.124689 -208.867054 
L 129.364609 -210.121761 
L 129.594863 -211.376468 
L 129.813159 -212.631175 
L 130.017222 -213.885882 
L 130.205014 -215.140589 
L 130.37493 -216.395295 
L 130.525945 -217.650002 
L 130.657692 -218.904709 
L 130.770475 -220.159416 
L 130.865199 -221.414123 
L 130.943257 -222.66883 
L 131.006361 -223.923536 
L 131.05637 -225.178243 
L 131.09511 -226.43295 
L 131.124234 -227.687657 
L 131.145118 -228.942364 
L 131.15882 -230.197071 
L 131.166091 -231.451777 
L 131.167444 -232.706484 
L 131.163253 -233.961191 
L 131.15389 -235.215898 
L 131.139841 -236.470605 
L 131.121819 -237.725312 
L 131.100829 -238.980018 
L 131.078189 -240.234725 
L 131.055493 -241.489432 
L 131.034527 -242.744139 
L 131.017141 -243.998846 
L 131.005103 -245.253553 
L 130.999941 -246.508259 
L 131.00281 -247.762966 
L 131.014384 -249.017673 
L 131.034797 -250.27238 
L 132.282793 -250.27238 
L 132.282793 -250.27238 
L 132.303205 -249.017673 
L 132.314779 -247.762966 
L 132.317648 -246.508259 
L 132.312486 -245.253553 
L 132.300448 -243.998846 
L 132.283062 -242.744139 
L 132.262096 -241.489432 
L 132.2394 -240.234725 
L 132.21676 -238.980018 
L 132.19577 -237.725312 
L 132.177748 -236.470605 
L 132.163699 -235.215898 
L 132.154336 -233.961191 
L 132.150146 -232.706484 
L 132.151498 -231.451777 
L 132.158769 -230.197071 
L 132.172471 -228.942364 
L 132.193355 -227.687657 
L 132.222479 -226.43295 
L 132.261219 -225.178243 
L 132.311228 -223.923536 
L 132.374333 -222.66883 
L 132.45239 -221.414123 
L 132.547115 -220.159416 
L 132.659897 -218.904709 
L 132.791644 -217.650002 
L 132.942659 -216.395295 
L 133.112575 -215.140589 
L 133.300367 -213.885882 
L 133.50443 -212.631175 
L 133.722726 -211.376468 
L 133.95298 -210.121761 
L 134.1929 -208.867054 
L 134.440398 -207.612348 
L 134.693774 -206.357641 
L 134.951846 -205.102934 
L 135.213997 -203.848227 
L 135.480138 -202.59352 
L 135.750588 -201.338813 
L 136.025886 -200.084107 
L 136.306568 -198.8294 
L 136.592936 -197.574693 
L 136.884868 -196.319986 
L 137.181693 -195.065279 
L 137.482155 -193.810573 
L 137.784488 -192.555866 
L 138.086585 -191.301159 
L 138.386238 -190.046452 
L 138.681425 -188.791745 
L 138.970586 -187.537038 
L 139.252858 -186.282332 
L 139.528216 -185.027625 
L 139.797507 -183.772918 
L 140.062367 -182.518211 
L 140.325029 -181.263504 
L 140.588061 -180.008797 
L 140.854066 -178.754091 
L 141.125398 -177.499384 
L 141.403927 -176.244677 
L 141.690893 -174.98997 
L 141.986852 -173.735263 
L 142.291713 -172.480556 
L 142.604843 -171.22585 
L 142.925204 -169.971143 
L 143.251484 -168.716436 
L 143.582196 -167.461729 
L 143.915713 -166.207022 
L 144.25024 -164.952315 
L 144.583721 -163.697609 
L 144.913715 -162.442902 
L 145.237254 -161.188195 
L 145.550726 -159.933488 
L 145.849786 -158.678781 
L 146.12934 -157.424074 
L 146.383578 -156.169368 
L 146.606077 -154.914661 
L 146.789951 -153.659954 
L 146.928049 -152.405247 
L 147.013184 -151.15054 
L 147.038386 -149.895833 
L 146.997186 -148.641127 
L 146.883906 -147.38642 
L 146.693969 -146.131713 
L 146.424207 -144.877006 
L 146.073149 -143.622299 
L 145.641264 -142.367592 
L 145.13115 -141.112886 
L 144.547608 -139.858179 
L 143.897619 -138.603472 
L 143.190179 -137.348765 
L 142.436017 -136.094058 
L 141.64719 -134.839351 
L 140.836605 -133.584645 
L 140.017476 -132.329938 
L 139.202786 -131.075231 
L 138.404777 -129.820524 
L 137.634506 -128.565817 
L 136.901502 -127.31111 
L 136.213528 -126.056404 
z
" style="stroke: #000000; stroke-opacity: 0.7"/>
    </defs>
    <g clip-path="url(#p74f2dfc8c8)">
     <use xlink:href="#m517b84a8be" x="0" y="319.98799" style="fill: #c5b0d5; fill-opacity: 0.7; stroke: #000000; stroke-opacity: 0.7"/>
    </g>
   </g>
   <g id="PolyCollection_3">
    <defs>
     <path id="me4180f9ac5" d="M 192.943353 -113.132815 
L 178.031379 -113.132815 
L 177.187071 -114.599517 
L 176.344746 -116.066219 
L 175.519404 -117.53292 
L 174.725507 -118.999622 
L 173.976253 -120.466323 
L 173.282942 -121.933025 
L 172.654484 -123.399726 
L 172.097089 -124.866428 
L 171.614148 -126.33313 
L 171.20632 -127.799831 
L 170.871797 -129.266533 
L 170.6067 -130.733234 
L 170.405589 -132.199936 
L 170.262004 -133.666637 
L 170.16902 -135.133339 
L 170.119748 -136.600041 
L 170.107774 -138.066742 
L 170.127493 -139.533444 
L 170.174339 -141.000145 
L 170.244907 -142.466847 
L 170.336964 -143.933549 
L 170.44936 -145.40025 
L 170.581862 -146.866952 
L 170.734918 -148.333653 
L 170.909376 -149.800355 
L 171.106189 -151.267056 
L 171.326134 -152.733758 
L 171.569558 -154.20046 
L 171.836206 -155.667161 
L 172.125119 -157.133863 
L 172.434636 -158.600564 
L 172.76248 -160.067266 
L 173.10593 -161.533968 
L 173.462043 -163.000669 
L 173.827901 -164.467371 
L 174.200837 -165.934072 
L 174.578624 -167.400774 
L 174.959575 -168.867475 
L 175.342567 -170.334177 
L 175.726966 -171.800879 
L 176.112471 -173.26758 
L 176.498905 -174.734282 
L 176.88598 -176.200983 
L 177.273073 -177.667685 
L 177.659036 -179.134386 
L 178.042083 -180.601088 
L 178.419759 -182.06779 
L 178.788996 -183.534491 
L 179.146258 -185.001193 
L 179.487755 -186.467894 
L 179.809696 -187.934596 
L 180.108575 -189.401298 
L 180.381434 -190.867999 
L 180.626102 -192.334701 
L 180.84138 -193.801402 
L 181.027149 -195.268104 
L 181.184413 -196.734805 
L 181.315264 -198.201507 
L 181.422768 -199.668209 
L 181.510806 -201.13491 
L 181.583858 -202.601612 
L 181.646761 -204.068313 
L 181.70446 -205.535015 
L 181.761749 -207.001716 
L 181.823047 -208.468418 
L 181.892187 -209.93512 
L 181.972259 -211.401821 
L 182.065489 -212.868523 
L 182.173177 -214.335224 
L 182.295679 -215.801926 
L 182.432447 -217.268628 
L 182.582106 -218.735329 
L 182.742577 -220.202031 
L 182.911228 -221.668732 
L 183.085044 -223.135434 
L 183.260812 -224.602135 
L 183.4353 -226.068837 
L 183.605427 -227.535539 
L 183.768411 -229.00224 
L 183.92189 -230.468942 
L 184.064003 -231.935643 
L 184.193444 -233.402345 
L 184.309467 -234.869046 
L 184.411867 -236.335748 
L 184.500927 -237.80245 
L 184.57735 -239.269151 
L 184.642168 -240.735853 
L 184.69666 -242.202554 
L 184.74226 -243.669256 
L 184.780476 -245.135958 
L 184.812826 -246.602659 
L 184.840775 -248.069361 
L 184.865694 -249.536062 
L 184.888824 -251.002764 
L 184.91125 -252.469465 
L 184.93388 -253.936167 
L 184.957433 -255.402869 
L 184.982429 -256.86957 
L 185.009184 -258.336272 
L 185.965549 -258.336272 
L 185.965549 -258.336272 
L 185.992303 -256.86957 
L 186.017299 -255.402869 
L 186.040852 -253.936167 
L 186.063483 -252.469465 
L 186.085908 -251.002764 
L 186.109038 -249.536062 
L 186.133958 -248.069361 
L 186.161907 -246.602659 
L 186.194256 -245.135958 
L 186.232473 -243.669256 
L 186.278072 -242.202554 
L 186.332564 -240.735853 
L 186.397383 -239.269151 
L 186.473805 -237.80245 
L 186.562865 -236.335748 
L 186.665265 -234.869046 
L 186.781288 -233.402345 
L 186.910729 -231.935643 
L 187.052842 -230.468942 
L 187.206321 -229.00224 
L 187.369305 -227.535539 
L 187.539432 -226.068837 
L 187.71392 -224.602135 
L 187.889688 -223.135434 
L 188.063505 -221.668732 
L 188.232155 -220.202031 
L 188.392626 -218.735329 
L 188.542285 -217.268628 
L 188.679053 -215.801926 
L 188.801555 -214.335224 
L 188.909243 -212.868523 
L 189.002473 -211.401821 
L 189.082545 -209.93512 
L 189.151685 -208.468418 
L 189.212983 -207.001716 
L 189.270272 -205.535015 
L 189.327971 -204.068313 
L 189.390874 -202.601612 
L 189.463926 -201.13491 
L 189.551964 -199.668209 
L 189.659468 -198.201507 
L 189.790319 -196.734805 
L 189.947583 -195.268104 
L 190.133352 -193.801402 
L 190.34863 -192.334701 
L 190.593299 -190.867999 
L 190.866157 -189.401298 
L 191.165036 -187.934596 
L 191.486977 -186.467894 
L 191.828474 -185.001193 
L 192.185736 -183.534491 
L 192.554973 -182.06779 
L 192.932649 -180.601088 
L 193.315696 -179.134386 
L 193.701659 -177.667685 
L 194.088752 -176.200983 
L 194.475828 -174.734282 
L 194.862261 -173.26758 
L 195.247766 -171.800879 
L 195.632165 -170.334177 
L 196.015157 -168.867475 
L 196.396108 -167.400774 
L 196.773895 -165.934072 
L 197.146831 -164.467371 
L 197.512689 -163.000669 
L 197.868802 -161.533968 
L 198.212252 -160.067266 
L 198.540096 -158.600564 
L 198.849613 -157.133863 
L 199.138527 -155.667161 
L 199.405175 -154.20046 
L 199.648599 -152.733758 
L 199.868543 -151.267056 
L 200.065356 -149.800355 
L 200.239814 -148.333653 
L 200.39287 -146.866952 
L 200.525373 -145.40025 
L 200.637769 -143.933549 
L 200.729825 -142.466847 
L 200.800393 -141.000145 
L 200.847239 -139.533444 
L 200.866958 -138.066742 
L 200.854984 -136.600041 
L 200.805712 -135.133339 
L 200.712728 -133.666637 
L 200.569143 -132.199936 
L 200.368032 -130.733234 
L 200.102935 -129.266533 
L 199.768412 -127.799831 
L 199.360585 -126.33313 
L 198.877643 -124.866428 
L 198.320248 -123.399726 
L 197.691791 -121.933025 
L 196.998479 -120.466323 
L 196.249225 -118.999622 
L 195.455328 -117.53292 
L 194.629986 -116.066219 
L 193.787661 -114.599517 
L 192.943353 -113.132815 
z
" style="stroke: #000000; stroke-opacity: 0.7"/>
    </defs>
    <g clip-path="url(#p74f2dfc8c8)">
     <use xlink:href="#me4180f9ac5" x="0" y="319.98799" style="fill: #e78ac3; fill-opacity: 0.7; stroke: #000000; stroke-opacity: 0.7"/>
    </g>
   </g>
   <g id="PolyCollection_4">
    <defs>
     <path id="med788be979" d="M 244.870043 -69.181935 
L 233.761832 -69.181935 
L 233.176291 -70.252158 
L 232.575618 -71.32238 
L 231.965376 -72.392603 
L 231.351378 -73.462826 
L 230.73953 -74.533049 
L 230.135672 -75.603272 
L 229.545428 -76.673495 
L 228.974061 -77.743718 
L 228.42635 -78.81394 
L 227.906485 -79.884163 
L 227.417982 -80.954386 
L 226.963617 -82.024609 
L 226.545385 -83.094832 
L 226.164482 -84.165055 
L 225.821305 -85.235277 
L 225.515476 -86.3055 
L 225.245893 -87.375723 
L 225.010803 -88.445946 
L 224.807898 -89.516169 
L 224.634443 -90.586392 
L 224.487424 -91.656615 
L 224.363712 -92.726837 
L 224.260245 -93.79706 
L 224.174212 -94.867283 
L 224.103223 -95.937506 
L 224.045471 -97.007729 
L 223.999846 -98.077952 
L 223.966016 -99.148175 
L 223.944442 -100.218397 
L 223.936346 -101.28862 
L 223.943607 -102.358843 
L 223.968615 -103.429066 
L 224.014066 -104.499289 
L 224.082747 -105.569512 
L 224.177288 -106.639735 
L 224.299944 -107.709957 
L 224.45239 -108.78018 
L 224.635567 -109.850403 
L 224.849581 -110.920626 
L 225.093671 -111.990849 
L 225.36623 -113.061072 
L 225.664897 -114.131294 
L 225.986687 -115.201517 
L 226.328155 -116.27174 
L 226.685584 -117.341963 
L 227.055159 -118.412186 
L 227.433139 -119.482409 
L 227.815991 -120.552632 
L 228.200489 -121.622854 
L 228.583777 -122.693077 
L 228.96339 -123.7633 
L 229.337241 -124.833523 
L 229.703588 -125.903746 
L 230.060974 -126.973969 
L 230.408174 -128.044192 
L 230.744135 -129.114414 
L 231.067937 -130.184637 
L 231.37876 -131.25486 
L 231.675876 -132.325083 
L 231.958653 -133.395306 
L 232.226577 -134.465529 
L 232.479277 -135.535752 
L 232.716561 -136.605974 
L 232.938441 -137.676197 
L 233.14515 -138.74642 
L 233.337154 -139.816643 
L 233.51514 -140.886866 
L 233.679994 -141.957089 
L 233.832765 -143.027311 
L 233.974616 -144.097534 
L 234.106776 -145.167757 
L 234.230485 -146.23798 
L 234.346948 -147.308203 
L 234.457293 -148.378426 
L 234.562546 -149.448649 
L 234.663621 -150.518871 
L 234.761315 -151.589094 
L 234.856328 -152.659317 
L 234.94928 -153.72954 
L 235.040741 -154.799763 
L 235.131262 -155.869986 
L 235.221402 -156.940209 
L 235.311745 -158.010431 
L 235.402916 -159.080654 
L 235.495583 -160.150877 
L 235.590441 -161.2211 
L 235.688202 -162.291323 
L 235.789563 -163.361546 
L 235.895174 -164.431768 
L 236.005607 -165.501991 
L 236.121316 -166.572214 
L 236.242611 -167.642437 
L 236.369624 -168.71266 
L 236.502296 -169.782883 
L 236.640362 -170.853106 
L 236.783345 -171.923328 
L 236.930565 -172.993551 
L 237.081152 -174.063774 
L 237.234069 -175.133997 
L 241.397806 -175.133997 
L 241.397806 -175.133997 
L 241.550723 -174.063774 
L 241.70131 -172.993551 
L 241.84853 -171.923328 
L 241.991513 -170.853106 
L 242.129579 -169.782883 
L 242.262251 -168.71266 
L 242.389264 -167.642437 
L 242.510559 -166.572214 
L 242.626268 -165.501991 
L 242.736701 -164.431768 
L 242.842312 -163.361546 
L 242.943673 -162.291323 
L 243.041434 -161.2211 
L 243.136292 -160.150877 
L 243.228959 -159.080654 
L 243.32013 -158.010431 
L 243.410473 -156.940209 
L 243.500613 -155.869986 
L 243.591134 -154.799763 
L 243.682595 -153.72954 
L 243.775547 -152.659317 
L 243.87056 -151.589094 
L 243.968254 -150.518871 
L 244.069329 -149.448649 
L 244.174582 -148.378426 
L 244.284927 -147.308203 
L 244.40139 -146.23798 
L 244.525099 -145.167757 
L 244.657259 -144.097534 
L 244.79911 -143.027311 
L 244.951881 -141.957089 
L 245.116735 -140.886866 
L 245.294721 -139.816643 
L 245.486725 -138.74642 
L 245.693434 -137.676197 
L 245.915314 -136.605974 
L 246.152598 -135.535752 
L 246.405298 -134.465529 
L 246.673222 -133.395306 
L 246.955999 -132.325083 
L 247.253115 -131.25486 
L 247.563938 -130.184637 
L 247.88774 -129.114414 
L 248.223701 -128.044192 
L 248.570901 -126.973969 
L 248.928287 -125.903746 
L 249.294634 -124.833523 
L 249.668485 -123.7633 
L 250.048098 -122.693077 
L 250.431386 -121.622854 
L 250.815884 -120.552632 
L 251.198736 -119.482409 
L 251.576716 -118.412186 
L 251.946291 -117.341963 
L 252.30372 -116.27174 
L 252.645188 -115.201517 
L 252.966978 -114.131294 
L 253.265645 -113.061072 
L 253.538204 -111.990849 
L 253.782294 -110.920626 
L 253.996308 -109.850403 
L 254.179485 -108.78018 
L 254.331931 -107.709957 
L 254.454587 -106.639735 
L 254.549128 -105.569512 
L 254.617809 -104.499289 
L 254.66326 -103.429066 
L 254.688268 -102.358843 
L 254.695529 -101.28862 
L 254.687433 -100.218397 
L 254.665859 -99.148175 
L 254.632029 -98.077952 
L 254.586404 -97.007729 
L 254.528652 -95.937506 
L 254.457663 -94.867283 
L 254.37163 -93.79706 
L 254.268163 -92.726837 
L 254.144451 -91.656615 
L 253.997432 -90.586392 
L 253.823977 -89.516169 
L 253.621072 -88.445946 
L 253.385982 -87.375723 
L 253.116399 -86.3055 
L 252.81057 -85.235277 
L 252.467393 -84.165055 
L 252.08649 -83.094832 
L 251.668258 -82.024609 
L 251.213893 -80.954386 
L 250.72539 -79.884163 
L 250.205525 -78.81394 
L 249.657814 -77.743718 
L 249.086447 -76.673495 
L 248.496203 -75.603272 
L 247.892345 -74.533049 
L 247.280497 -73.462826 
L 246.666499 -72.392603 
L 246.056257 -71.32238 
L 245.455584 -70.252158 
L 244.870043 -69.181935 
z
" style="stroke: #000000; stroke-opacity: 0.7"/>
    </defs>
    <g clip-path="url(#p74f2dfc8c8)">
     <use xlink:href="#med788be979" x="0" y="319.98799" style="fill: #17becf; fill-opacity: 0.7; stroke: #000000; stroke-opacity: 0.7"/>
    </g>
   </g>
   <g id="PolyCollection_5">
    <defs>
     <path id="m08fc7fbe81" d="M 300.03519 -129.634422 
L 286.253827 -129.634422 
L 285.606219 -130.898838 
L 284.970564 -132.163255 
L 284.354406 -133.427671 
L 283.763994 -134.692088 
L 283.204054 -135.956504 
L 282.677694 -137.220921 
L 282.186421 -138.485337 
L 281.730281 -139.749754 
L 281.308093 -141.01417 
L 280.917742 -142.278587 
L 280.556518 -143.543004 
L 280.221458 -144.80742 
L 279.909661 -146.071837 
L 279.618576 -147.336253 
L 279.346217 -148.60067 
L 279.09133 -149.865086 
L 278.853489 -151.129503 
L 278.633127 -152.393919 
L 278.431511 -153.658336 
L 278.250676 -154.922752 
L 278.093295 -156.187169 
L 277.962535 -157.451585 
L 277.861863 -158.716002 
L 277.794844 -159.980418 
L 277.764917 -161.244835 
L 277.775169 -162.509251 
L 277.828118 -163.773668 
L 277.925523 -165.038084 
L 278.068226 -166.302501 
L 278.256043 -167.566917 
L 278.487726 -168.831334 
L 278.760977 -170.09575 
L 279.072541 -171.360167 
L 279.418346 -172.624583 
L 279.793699 -173.889 
L 280.193497 -175.153416 
L 280.612457 -176.417833 
L 281.045325 -177.682249 
L 281.487056 -178.946666 
L 281.932958 -180.211082 
L 282.378784 -181.475499 
L 282.820778 -182.739915 
L 283.255693 -184.004332 
L 283.680777 -185.268748 
L 284.093748 -186.533165 
L 284.492775 -187.797582 
L 284.876469 -189.061998 
L 285.243886 -190.326415 
L 285.594545 -191.590831 
L 285.928456 -192.855248 
L 286.246137 -194.119664 
L 286.548626 -195.384081 
L 286.837449 -196.648497 
L 287.114563 -197.912914 
L 287.382247 -199.17733 
L 287.642957 -200.441747 
L 287.899147 -201.706163 
L 288.153068 -202.97058 
L 288.406575 -204.234996 
L 288.660941 -205.499413 
L 288.916727 -206.763829 
L 289.17369 -208.028246 
L 289.430772 -209.292662 
L 289.686157 -210.557079 
L 289.937385 -211.821495 
L 290.18154 -213.085912 
L 290.415461 -214.350328 
L 290.63598 -215.614745 
L 290.840163 -216.879161 
L 291.025516 -218.143578 
L 291.19016 -219.407994 
L 291.332949 -220.672411 
L 291.453537 -221.936827 
L 291.552371 -223.201244 
L 291.630644 -224.46566 
L 291.690194 -225.730077 
L 291.733372 -226.994493 
L 291.76289 -228.25891 
L 291.781659 -229.523326 
L 291.792636 -230.787743 
L 291.798685 -232.05216 
L 291.802457 -233.316576 
L 291.8063 -234.580993 
L 291.812197 -235.845409 
L 291.821726 -237.109826 
L 291.836055 -238.374242 
L 291.855952 -239.638659 
L 291.881815 -240.903075 
L 291.913714 -242.167492 
L 291.951449 -243.431908 
L 291.994601 -244.696325 
L 292.042593 -245.960741 
L 292.094747 -247.225158 
L 292.150327 -248.489574 
L 292.208581 -249.753991 
L 292.268771 -251.018407 
L 292.330191 -252.282824 
L 292.392177 -253.54724 
L 292.454108 -254.811657 
L 293.83491 -254.811657 
L 293.83491 -254.811657 
L 293.896841 -253.54724 
L 293.958827 -252.282824 
L 294.020247 -251.018407 
L 294.080437 -249.753991 
L 294.138691 -248.489574 
L 294.194271 -247.225158 
L 294.246424 -245.960741 
L 294.294417 -244.696325 
L 294.337569 -243.431908 
L 294.375304 -242.167492 
L 294.407203 -240.903075 
L 294.433066 -239.638659 
L 294.452963 -238.374242 
L 294.467292 -237.109826 
L 294.476821 -235.845409 
L 294.482718 -234.580993 
L 294.486561 -233.316576 
L 294.490333 -232.05216 
L 294.496382 -230.787743 
L 294.507359 -229.523326 
L 294.526128 -228.25891 
L 294.555645 -226.994493 
L 294.598824 -225.730077 
L 294.658374 -224.46566 
L 294.736647 -223.201244 
L 294.835481 -221.936827 
L 294.956068 -220.672411 
L 295.098858 -219.407994 
L 295.263502 -218.143578 
L 295.448854 -216.879161 
L 295.653038 -215.614745 
L 295.873557 -214.350328 
L 296.107478 -213.085912 
L 296.351632 -211.821495 
L 296.602861 -210.557079 
L 296.858246 -209.292662 
L 297.115328 -208.028246 
L 297.372291 -206.763829 
L 297.628077 -205.499413 
L 297.882443 -204.234996 
L 298.13595 -202.97058 
L 298.389871 -201.706163 
L 298.646061 -200.441747 
L 298.906771 -199.17733 
L 299.174455 -197.912914 
L 299.451569 -196.648497 
L 299.740392 -195.384081 
L 300.042881 -194.119664 
L 300.360562 -192.855248 
L 300.694473 -191.590831 
L 301.045132 -190.326415 
L 301.412548 -189.061998 
L 301.796243 -187.797582 
L 302.19527 -186.533165 
L 302.608241 -185.268748 
L 303.033325 -184.004332 
L 303.46824 -182.739915 
L 303.910234 -181.475499 
L 304.356059 -180.211082 
L 304.801962 -178.946666 
L 305.243693 -177.682249 
L 305.676561 -176.417833 
L 306.095521 -175.153416 
L 306.495319 -173.889 
L 306.870672 -172.624583 
L 307.216477 -171.360167 
L 307.528041 -170.09575 
L 307.801292 -168.831334 
L 308.032975 -167.566917 
L 308.220792 -166.302501 
L 308.363494 -165.038084 
L 308.4609 -163.773668 
L 308.513849 -162.509251 
L 308.524101 -161.244835 
L 308.494174 -159.980418 
L 308.427155 -158.716002 
L 308.326483 -157.451585 
L 308.195723 -156.187169 
L 308.038342 -154.922752 
L 307.857506 -153.658336 
L 307.655891 -152.393919 
L 307.435528 -151.129503 
L 307.197687 -149.865086 
L 306.942801 -148.60067 
L 306.670442 -147.336253 
L 306.379356 -146.071837 
L 306.06756 -144.80742 
L 305.7325 -143.543004 
L 305.371276 -142.278587 
L 304.980925 -141.01417 
L 304.558736 -139.749754 
L 304.102597 -138.485337 
L 303.611324 -137.220921 
L 303.084964 -135.956504 
L 302.525024 -134.692088 
L 301.934612 -133.427671 
L 301.318454 -132.163255 
L 300.682799 -130.898838 
L 300.03519 -129.634422 
z
" style="stroke: #000000; stroke-opacity: 0.7"/>
    </defs>
    <g clip-path="url(#p74f2dfc8c8)">
     <use xlink:href="#m08fc7fbe81" x="0" y="319.98799" style="fill: #ff7f0e; fill-opacity: 0.7; stroke: #000000; stroke-opacity: 0.7"/>
    </g>
   </g>
   <g id="PolyCollection_6">
    <defs>
     <path id="m792d9c6980" d="M 353.384438 -78.313892 
L 340.561723 -78.313892 
L 339.868768 -80.177072 
L 339.155874 -82.040252 
L 338.430729 -83.903433 
L 337.701871 -85.766613 
L 336.978504 -87.629793 
L 336.270243 -89.492974 
L 335.586819 -91.356154 
L 334.937739 -93.219334 
L 334.331924 -95.082514 
L 333.777333 -96.945695 
L 333.280625 -98.808875 
L 332.846842 -100.672055 
L 332.479177 -102.535236 
L 332.178828 -104.398416 
L 331.944955 -106.261596 
L 331.774755 -108.124777 
L 331.663658 -109.987957 
L 331.605615 -111.851137 
L 331.593489 -113.714318 
L 331.619496 -115.577498 
L 331.67569 -117.440678 
L 331.754429 -119.303858 
L 331.848824 -121.167039 
L 331.953107 -123.030219 
L 332.062921 -124.893399 
L 332.175498 -126.75658 
L 332.289724 -128.61976 
L 332.406085 -130.48294 
L 332.526516 -132.346121 
L 332.654149 -134.209301 
L 332.793001 -136.072481 
L 332.947605 -137.935662 
L 333.122629 -139.798842 
L 333.322501 -141.662022 
L 333.551053 -143.525202 
L 333.811227 -145.388383 
L 334.104834 -147.251563 
L 334.432399 -149.114743 
L 334.793077 -150.977924 
L 335.184661 -152.841104 
L 335.603663 -154.704284 
L 336.045464 -156.567465 
L 336.504523 -158.430645 
L 336.974631 -160.293825 
L 337.449183 -162.157006 
L 337.921464 -164.020186 
L 338.38493 -165.883366 
L 338.833456 -167.746546 
L 339.261557 -169.609727 
L 339.66456 -171.472907 
L 340.038722 -173.336087 
L 340.3813 -175.199268 
L 340.690563 -177.062448 
L 340.96576 -178.925628 
L 341.207048 -180.788809 
L 341.415393 -182.651989 
L 341.592446 -184.515169 
L 341.740414 -186.378349 
L 341.861935 -188.24153 
L 341.959955 -190.10471 
L 342.037631 -191.96789 
L 342.098237 -193.831071 
L 342.145108 -195.694251 
L 342.181581 -197.557431 
L 342.210966 -199.420612 
L 342.236512 -201.283792 
L 342.26138 -203.146972 
L 342.288614 -205.010153 
L 342.321098 -206.873333 
L 342.361503 -208.736513 
L 342.41223 -210.599693 
L 342.475336 -212.462874 
L 342.552455 -214.326054 
L 342.644726 -216.189234 
L 342.752729 -218.052415 
L 342.87643 -219.915595 
L 343.015163 -221.778775 
L 343.167627 -223.641956 
L 343.331932 -225.505136 
L 343.505669 -227.368316 
L 343.686013 -229.231497 
L 343.869864 -231.094677 
L 344.053998 -232.957857 
L 344.235233 -234.821037 
L 344.410597 -236.684218 
L 344.577479 -238.547398 
L 344.733762 -240.410578 
L 344.877923 -242.273759 
L 345.00909 -244.136939 
L 345.127062 -246.000119 
L 345.232284 -247.8633 
L 345.325771 -249.72648 
L 345.409012 -251.58966 
L 345.483837 -253.452841 
L 345.55227 -255.316021 
L 345.616383 -257.179201 
L 345.678143 -259.042381 
L 345.739299 -260.905562 
L 345.801269 -262.768742 
L 348.144892 -262.768742 
L 348.144892 -262.768742 
L 348.206862 -260.905562 
L 348.268017 -259.042381 
L 348.329778 -257.179201 
L 348.39389 -255.316021 
L 348.462324 -253.452841 
L 348.537149 -251.58966 
L 348.62039 -249.72648 
L 348.713877 -247.8633 
L 348.819098 -246.000119 
L 348.937071 -244.136939 
L 349.068238 -242.273759 
L 349.212398 -240.410578 
L 349.368681 -238.547398 
L 349.535563 -236.684218 
L 349.710927 -234.821037 
L 349.892163 -232.957857 
L 350.076297 -231.094677 
L 350.260148 -229.231497 
L 350.440492 -227.368316 
L 350.614228 -225.505136 
L 350.778534 -223.641956 
L 350.930998 -221.778775 
L 351.069731 -219.915595 
L 351.193432 -218.052415 
L 351.301435 -216.189234 
L 351.393706 -214.326054 
L 351.470825 -212.462874 
L 351.53393 -210.599693 
L 351.584658 -208.736513 
L 351.625063 -206.873333 
L 351.657546 -205.010153 
L 351.684781 -203.146972 
L 351.709649 -201.283792 
L 351.735195 -199.420612 
L 351.76458 -197.557431 
L 351.801053 -195.694251 
L 351.847923 -193.831071 
L 351.90853 -191.96789 
L 351.986205 -190.10471 
L 352.084226 -188.24153 
L 352.205747 -186.378349 
L 352.353715 -184.515169 
L 352.530768 -182.651989 
L 352.739113 -180.788809 
L 352.980401 -178.925628 
L 353.255598 -177.062448 
L 353.56486 -175.199268 
L 353.907438 -173.336087 
L 354.281601 -171.472907 
L 354.684604 -169.609727 
L 355.112705 -167.746546 
L 355.561231 -165.883366 
L 356.024696 -164.020186 
L 356.496978 -162.157006 
L 356.971529 -160.293825 
L 357.441637 -158.430645 
L 357.900697 -156.567465 
L 358.342498 -154.704284 
L 358.7615 -152.841104 
L 359.153084 -150.977924 
L 359.513762 -149.114743 
L 359.841326 -147.251563 
L 360.134934 -145.388383 
L 360.395108 -143.525202 
L 360.62366 -141.662022 
L 360.823531 -139.798842 
L 360.998556 -137.935662 
L 361.15316 -136.072481 
L 361.292011 -134.209301 
L 361.419645 -132.346121 
L 361.540076 -130.48294 
L 361.656437 -128.61976 
L 361.770662 -126.75658 
L 361.88324 -124.893399 
L 361.993054 -123.030219 
L 362.097337 -121.167039 
L 362.191731 -119.303858 
L 362.270471 -117.440678 
L 362.326664 -115.577498 
L 362.352672 -113.714318 
L 362.340546 -111.851137 
L 362.282503 -109.987957 
L 362.171405 -108.124777 
L 362.001206 -106.261596 
L 361.767333 -104.398416 
L 361.466984 -102.535236 
L 361.099319 -100.672055 
L 360.665536 -98.808875 
L 360.168827 -96.945695 
L 359.614237 -95.082514 
L 359.008421 -93.219334 
L 358.359342 -91.356154 
L 357.675918 -89.492974 
L 356.967657 -87.629793 
L 356.244289 -85.766613 
L 355.515432 -83.903433 
L 354.790286 -82.040252 
L 354.077393 -80.177072 
L 353.384438 -78.313892 
z
" style="stroke: #000000; stroke-opacity: 0.7"/>
    </defs>
    <g clip-path="url(#p74f2dfc8c8)">
     <use xlink:href="#m792d9c6980" x="0" y="319.98799" style="fill: #dbdb8d; fill-opacity: 0.7; stroke: #000000; stroke-opacity: 0.7"/>
    </g>
   </g>
   <g id="PolyCollection_7">
    <defs>
     <path id="m1f7c1675f5" d="M 407.148503 -115.001929 
L 394.454801 -115.001929 
L 393.905777 -116.402281 
L 393.350635 -117.802634 
L 392.79329 -119.202986 
L 392.237587 -120.603338 
L 391.687233 -122.00369 
L 391.145744 -123.404042 
L 390.616408 -124.804394 
L 390.102255 -126.204746 
L 389.606048 -127.605098 
L 389.130277 -129.00545 
L 388.677166 -130.405802 
L 388.248679 -131.806154 
L 387.846535 -133.206506 
L 387.472221 -134.606858 
L 387.127004 -136.007211 
L 386.811948 -137.407563 
L 386.52792 -138.807915 
L 386.275608 -140.208267 
L 386.055527 -141.608619 
L 385.868034 -143.008971 
L 385.713338 -144.409323 
L 385.591511 -145.809675 
L 385.502495 -147.210027 
L 385.446112 -148.610379 
L 385.42206 -150.010731 
L 385.429911 -151.411083 
L 385.469096 -152.811435 
L 385.538885 -154.211788 
L 385.638355 -155.61214 
L 385.766359 -157.012492 
L 385.921479 -158.412844 
L 386.101994 -159.813196 
L 386.305841 -161.213548 
L 386.530595 -162.6139 
L 386.773457 -164.014252 
L 387.031266 -165.414604 
L 387.300536 -166.814956 
L 387.57751 -168.215308 
L 387.858247 -169.61566 
L 388.138723 -171.016013 
L 388.414951 -172.416365 
L 388.68311 -173.816717 
L 388.939677 -175.217069 
L 389.181552 -176.617421 
L 389.406172 -178.017773 
L 389.611596 -179.418125 
L 389.79658 -180.818477 
L 389.960603 -182.218829 
L 390.103882 -183.619181 
L 390.227345 -185.019533 
L 390.332578 -186.419885 
L 390.421756 -187.820237 
L 390.497548 -189.22059 
L 390.563012 -190.620942 
L 390.621477 -192.021294 
L 390.676429 -193.421646 
L 390.731386 -194.821998 
L 390.789786 -196.22235 
L 390.854871 -197.622702 
L 390.929587 -199.023054 
L 391.016493 -200.423406 
L 391.11768 -201.823758 
L 391.234709 -203.22411 
L 391.368564 -204.624462 
L 391.519629 -206.024814 
L 391.687687 -207.425167 
L 391.871935 -208.825519 
L 392.071033 -210.225871 
L 392.283171 -211.626223 
L 392.506155 -213.026575 
L 392.737512 -214.426927 
L 392.974608 -215.827279 
L 393.21477 -217.227631 
L 393.455409 -218.627983 
L 393.694139 -220.028335 
L 393.928876 -221.428687 
L 394.157929 -222.829039 
L 394.380062 -224.229391 
L 394.594528 -225.629744 
L 394.801083 -227.030096 
L 394.999967 -228.430448 
L 395.191859 -229.8308 
L 395.377816 -231.231152 
L 395.559189 -232.631504 
L 395.737522 -234.031856 
L 395.914452 -235.432208 
L 396.091603 -236.83256 
L 396.270485 -238.232912 
L 396.452402 -239.633264 
L 396.638377 -241.033616 
L 396.829095 -242.433968 
L 397.024862 -243.834321 
L 397.225591 -245.234673 
L 397.430811 -246.635025 
L 397.639686 -248.035377 
L 397.851066 -249.435729 
L 398.06354 -250.836081 
L 398.275511 -252.236433 
L 398.485261 -253.636785 
L 403.118043 -253.636785 
L 403.118043 -253.636785 
L 403.327793 -252.236433 
L 403.539763 -250.836081 
L 403.752238 -249.435729 
L 403.963618 -248.035377 
L 404.172493 -246.635025 
L 404.377712 -245.234673 
L 404.578442 -243.834321 
L 404.774209 -242.433968 
L 404.964926 -241.033616 
L 405.150902 -239.633264 
L 405.332819 -238.232912 
L 405.5117 -236.83256 
L 405.688851 -235.432208 
L 405.865782 -234.031856 
L 406.044114 -232.631504 
L 406.225487 -231.231152 
L 406.411445 -229.8308 
L 406.603337 -228.430448 
L 406.80222 -227.030096 
L 407.008775 -225.629744 
L 407.223242 -224.229391 
L 407.445374 -222.829039 
L 407.674428 -221.428687 
L 407.909165 -220.028335 
L 408.147894 -218.627983 
L 408.388533 -217.227631 
L 408.628695 -215.827279 
L 408.865791 -214.426927 
L 409.097148 -213.026575 
L 409.320132 -211.626223 
L 409.53227 -210.225871 
L 409.731369 -208.825519 
L 409.915616 -207.425167 
L 410.083674 -206.024814 
L 410.23474 -204.624462 
L 410.368595 -203.22411 
L 410.485624 -201.823758 
L 410.586811 -200.423406 
L 410.673717 -199.023054 
L 410.748433 -197.622702 
L 410.813518 -196.22235 
L 410.871917 -194.821998 
L 410.926875 -193.421646 
L 410.981827 -192.021294 
L 411.040292 -190.620942 
L 411.105755 -189.22059 
L 411.181547 -187.820237 
L 411.270726 -186.419885 
L 411.375959 -185.019533 
L 411.499421 -183.619181 
L 411.642701 -182.218829 
L 411.806724 -180.818477 
L 411.991707 -179.418125 
L 412.197132 -178.017773 
L 412.421751 -176.617421 
L 412.663627 -175.217069 
L 412.920194 -173.816717 
L 413.188353 -172.416365 
L 413.46458 -171.016013 
L 413.745056 -169.61566 
L 414.025794 -168.215308 
L 414.302768 -166.814956 
L 414.572037 -165.414604 
L 414.829846 -164.014252 
L 415.072708 -162.6139 
L 415.297462 -161.213548 
L 415.50131 -159.813196 
L 415.681825 -158.412844 
L 415.836945 -157.012492 
L 415.964948 -155.61214 
L 416.064419 -154.211788 
L 416.134208 -152.811435 
L 416.173393 -151.411083 
L 416.181244 -150.010731 
L 416.157192 -148.610379 
L 416.100808 -147.210027 
L 416.011793 -145.809675 
L 415.889965 -144.409323 
L 415.73527 -143.008971 
L 415.547777 -141.608619 
L 415.327696 -140.208267 
L 415.075383 -138.807915 
L 414.791356 -137.407563 
L 414.476299 -136.007211 
L 414.131083 -134.606858 
L 413.756768 -133.206506 
L 413.354624 -131.806154 
L 412.926137 -130.405802 
L 412.473026 -129.00545 
L 411.997256 -127.605098 
L 411.501049 -126.204746 
L 410.986896 -124.804394 
L 410.45756 -123.404042 
L 409.916071 -122.00369 
L 409.365717 -120.603338 
L 408.810014 -119.202986 
L 408.252668 -117.802634 
L 407.697526 -116.402281 
L 407.148503 -115.001929 
z
" style="stroke: #000000; stroke-opacity: 0.7"/>
    </defs>
    <g clip-path="url(#p74f2dfc8c8)">
     <use xlink:href="#m1f7c1675f5" x="0" y="319.98799" style="fill: #f7b6d2; fill-opacity: 0.7; stroke: #000000; stroke-opacity: 0.7"/>
    </g>
   </g>
   <g id="matplotlib.axis_1">
    <g id="xtick_1">
     <g id="line2d_1">
      <defs>
       <path id="mb9b8052233" d="M 0 0 
L 0 3.5 
" style="stroke: #000000; stroke-width: 0.8"/>
      </defs>
      <g>
       <use xlink:href="#mb9b8052233" x="77.830223" y="261.318486" style="stroke: #000000; stroke-width: 0.8"/>
      </g>
     </g>
     <g id="text_1">
      <!-- Brookfield -->
      <g transform="translate(39.252687 310.972935) rotate(-45) scale(0.12 -0.12)">
       <defs>
        <path id="TimesNewRomanPSMT-42" d="M 2956 2163 
Q 3397 2069 3616 1863 
Q 3919 1575 3919 1159 
Q 3919 844 3719 555 
Q 3519 266 3170 133 
Q 2822 0 2106 0 
L 106 0 
L 106 116 
L 266 116 
Q 531 116 647 284 
Q 719 394 719 750 
L 719 3488 
Q 719 3881 628 3984 
Q 506 4122 266 4122 
L 106 4122 
L 106 4238 
L 1938 4238 
Q 2450 4238 2759 4163 
Q 3228 4050 3475 3764 
Q 3722 3478 3722 3106 
Q 3722 2788 3528 2536 
Q 3334 2284 2956 2163 
z
M 1319 2331 
Q 1434 2309 1582 2298 
Q 1731 2288 1909 2288 
Q 2366 2288 2595 2386 
Q 2825 2484 2947 2687 
Q 3069 2891 3069 3131 
Q 3069 3503 2766 3765 
Q 2463 4028 1881 4028 
Q 1569 4028 1319 3959 
L 1319 2331 
z
M 1319 306 
Q 1681 222 2034 222 
Q 2600 222 2897 476 
Q 3194 731 3194 1106 
Q 3194 1353 3059 1581 
Q 2925 1809 2622 1940 
Q 2319 2072 1872 2072 
Q 1678 2072 1540 2065 
Q 1403 2059 1319 2044 
L 1319 306 
z
" transform="scale(0.015625)"/>
        <path id="TimesNewRomanPSMT-72" d="M 1038 2947 
L 1038 2303 
Q 1397 2947 1775 2947 
Q 1947 2947 2059 2842 
Q 2172 2738 2172 2600 
Q 2172 2478 2090 2393 
Q 2009 2309 1897 2309 
Q 1788 2309 1652 2417 
Q 1516 2525 1450 2525 
Q 1394 2525 1328 2463 
Q 1188 2334 1038 2041 
L 1038 669 
Q 1038 431 1097 309 
Q 1138 225 1241 169 
Q 1344 113 1538 113 
L 1538 0 
L 72 0 
L 72 113 
Q 291 113 397 181 
Q 475 231 506 341 
Q 522 394 522 644 
L 522 1753 
Q 522 2253 501 2348 
Q 481 2444 426 2487 
Q 372 2531 291 2531 
Q 194 2531 72 2484 
L 41 2597 
L 906 2947 
L 1038 2947 
z
" transform="scale(0.015625)"/>
        <path id="TimesNewRomanPSMT-6f" d="M 1600 2947 
Q 2250 2947 2644 2453 
Q 2978 2031 2978 1484 
Q 2978 1100 2793 706 
Q 2609 313 2286 112 
Q 1963 -88 1566 -88 
Q 919 -88 538 428 
Q 216 863 216 1403 
Q 216 1797 411 2186 
Q 606 2575 925 2761 
Q 1244 2947 1600 2947 
z
M 1503 2744 
Q 1338 2744 1170 2645 
Q 1003 2547 900 2300 
Q 797 2053 797 1666 
Q 797 1041 1045 587 
Q 1294 134 1700 134 
Q 2003 134 2200 384 
Q 2397 634 2397 1244 
Q 2397 2006 2069 2444 
Q 1847 2744 1503 2744 
z
" transform="scale(0.015625)"/>
        <path id="TimesNewRomanPSMT-6b" d="M 1047 4444 
L 1047 1597 
L 1775 2259 
Q 2006 2472 2044 2528 
Q 2069 2566 2069 2603 
Q 2069 2666 2017 2711 
Q 1966 2756 1847 2763 
L 1847 2863 
L 3091 2863 
L 3091 2763 
Q 2834 2756 2664 2684 
Q 2494 2613 2291 2428 
L 1556 1750 
L 2291 822 
Q 2597 438 2703 334 
Q 2853 188 2966 144 
Q 3044 113 3238 113 
L 3238 0 
L 1847 0 
L 1847 113 
Q 1966 116 2008 148 
Q 2050 181 2050 241 
Q 2050 313 1925 472 
L 1047 1594 
L 1047 644 
Q 1047 366 1086 278 
Q 1125 191 1197 153 
Q 1269 116 1509 113 
L 1509 0 
L 53 0 
L 53 113 
Q 272 113 381 166 
Q 447 200 481 272 
Q 528 375 528 628 
L 528 3234 
Q 528 3731 506 3842 
Q 484 3953 434 3995 
Q 384 4038 303 4038 
Q 238 4038 106 3984 
L 53 4094 
L 903 4444 
L 1047 4444 
z
" transform="scale(0.015625)"/>
        <path id="TimesNewRomanPSMT-66" d="M 1319 2638 
L 1319 756 
Q 1319 356 1406 250 
Q 1522 113 1716 113 
L 1975 113 
L 1975 0 
L 266 0 
L 266 113 
L 394 113 
Q 519 113 622 175 
Q 725 238 764 344 
Q 803 450 803 756 
L 803 2638 
L 247 2638 
L 247 2863 
L 803 2863 
L 803 3050 
Q 803 3478 940 3775 
Q 1078 4072 1361 4255 
Q 1644 4438 1997 4438 
Q 2325 4438 2600 4225 
Q 2781 4084 2781 3909 
Q 2781 3816 2700 3733 
Q 2619 3650 2525 3650 
Q 2453 3650 2373 3701 
Q 2294 3753 2178 3923 
Q 2063 4094 1966 4153 
Q 1869 4213 1750 4213 
Q 1606 4213 1506 4136 
Q 1406 4059 1362 3898 
Q 1319 3738 1319 3069 
L 1319 2863 
L 2056 2863 
L 2056 2638 
L 1319 2638 
z
" transform="scale(0.015625)"/>
        <path id="TimesNewRomanPSMT-69" d="M 928 4444 
Q 1059 4444 1151 4351 
Q 1244 4259 1244 4128 
Q 1244 3997 1151 3903 
Q 1059 3809 928 3809 
Q 797 3809 703 3903 
Q 609 3997 609 4128 
Q 609 4259 701 4351 
Q 794 4444 928 4444 
z
M 1188 2947 
L 1188 647 
Q 1188 378 1227 289 
Q 1266 200 1342 156 
Q 1419 113 1622 113 
L 1622 0 
L 231 0 
L 231 113 
Q 441 113 512 153 
Q 584 194 626 287 
Q 669 381 669 647 
L 669 1750 
Q 669 2216 641 2353 
Q 619 2453 572 2492 
Q 525 2531 444 2531 
Q 356 2531 231 2484 
L 188 2597 
L 1050 2947 
L 1188 2947 
z
" transform="scale(0.015625)"/>
        <path id="TimesNewRomanPSMT-65" d="M 681 1784 
Q 678 1147 991 784 
Q 1303 422 1725 422 
Q 2006 422 2214 576 
Q 2422 731 2563 1106 
L 2659 1044 
Q 2594 616 2278 264 
Q 1963 -88 1488 -88 
Q 972 -88 605 314 
Q 238 716 238 1394 
Q 238 2128 614 2539 
Q 991 2950 1559 2950 
Q 2041 2950 2350 2633 
Q 2659 2316 2659 1784 
L 681 1784 
z
M 681 1966 
L 2006 1966 
Q 1991 2241 1941 2353 
Q 1863 2528 1708 2628 
Q 1553 2728 1384 2728 
Q 1125 2728 920 2526 
Q 716 2325 681 1966 
z
" transform="scale(0.015625)"/>
        <path id="TimesNewRomanPSMT-6c" d="M 1184 4444 
L 1184 647 
Q 1184 378 1223 290 
Q 1263 203 1344 158 
Q 1425 113 1647 113 
L 1647 0 
L 244 0 
L 244 113 
Q 441 113 512 153 
Q 584 194 625 287 
Q 666 381 666 647 
L 666 3247 
Q 666 3731 644 3842 
Q 622 3953 573 3993 
Q 525 4034 450 4034 
Q 369 4034 244 3984 
L 191 4094 
L 1044 4444 
L 1184 4444 
z
" transform="scale(0.015625)"/>
        <path id="TimesNewRomanPSMT-64" d="M 2222 322 
Q 2013 103 1813 7 
Q 1613 -88 1381 -88 
Q 913 -88 563 304 
Q 213 697 213 1313 
Q 213 1928 600 2439 
Q 988 2950 1597 2950 
Q 1975 2950 2222 2709 
L 2222 3238 
Q 2222 3728 2198 3840 
Q 2175 3953 2125 3993 
Q 2075 4034 2000 4034 
Q 1919 4034 1784 3984 
L 1744 4094 
L 2597 4444 
L 2738 4444 
L 2738 1134 
Q 2738 631 2761 520 
Q 2784 409 2836 365 
Q 2888 322 2956 322 
Q 3041 322 3181 375 
L 3216 266 
L 2366 -88 
L 2222 -88 
L 2222 322 
z
M 2222 541 
L 2222 2016 
Q 2203 2228 2109 2403 
Q 2016 2578 1861 2667 
Q 1706 2756 1559 2756 
Q 1284 2756 1069 2509 
Q 784 2184 784 1559 
Q 784 928 1059 592 
Q 1334 256 1672 256 
Q 1956 256 2222 541 
z
" transform="scale(0.015625)"/>
       </defs>
       <use xlink:href="#TimesNewRomanPSMT-42"/>
       <use xlink:href="#TimesNewRomanPSMT-72" x="66.699219"/>
       <use xlink:href="#TimesNewRomanPSMT-6f" x="100"/>
       <use xlink:href="#TimesNewRomanPSMT-6f" x="150"/>
       <use xlink:href="#TimesNewRomanPSMT-6b" x="200"/>
       <use xlink:href="#TimesNewRomanPSMT-66" x="250"/>
       <use xlink:href="#TimesNewRomanPSMT-69" x="283.300781"/>
       <use xlink:href="#TimesNewRomanPSMT-65" x="311.083984"/>
       <use xlink:href="#TimesNewRomanPSMT-6c" x="355.46875"/>
       <use xlink:href="#TimesNewRomanPSMT-64" x="383.251953"/>
      </g>
     </g>
    </g>
    <g id="xtick_2">
     <g id="line2d_2">
      <g>
       <use xlink:href="#mb9b8052233" x="131.658795" y="261.318486" style="stroke: #000000; stroke-width: 0.8"/>
      </g>
     </g>
     <g id="text_2">
      <!-- Mapleton -->
      <g transform="translate(97.322573 306.73162) rotate(-45) scale(0.12 -0.12)">
       <defs>
        <path id="TimesNewRomanPSMT-4d" d="M 2619 0 
L 981 3566 
L 981 734 
Q 981 344 1066 247 
Q 1181 116 1431 116 
L 1581 116 
L 1581 0 
L 106 0 
L 106 116 
L 256 116 
Q 525 116 638 278 
Q 706 378 706 734 
L 706 3503 
Q 706 3784 644 3909 
Q 600 4000 483 4061 
Q 366 4122 106 4122 
L 106 4238 
L 1306 4238 
L 2844 922 
L 4356 4238 
L 5556 4238 
L 5556 4122 
L 5409 4122 
Q 5138 4122 5025 3959 
Q 4956 3859 4956 3503 
L 4956 734 
Q 4956 344 5044 247 
Q 5159 116 5409 116 
L 5556 116 
L 5556 0 
L 3756 0 
L 3756 116 
L 3906 116 
Q 4178 116 4288 278 
Q 4356 378 4356 734 
L 4356 3566 
L 2722 0 
L 2619 0 
z
" transform="scale(0.015625)"/>
        <path id="TimesNewRomanPSMT-61" d="M 1822 413 
Q 1381 72 1269 19 
Q 1100 -59 909 -59 
Q 613 -59 420 144 
Q 228 347 228 678 
Q 228 888 322 1041 
Q 450 1253 767 1440 
Q 1084 1628 1822 1897 
L 1822 2009 
Q 1822 2438 1686 2597 
Q 1550 2756 1291 2756 
Q 1094 2756 978 2650 
Q 859 2544 859 2406 
L 866 2225 
Q 866 2081 792 2003 
Q 719 1925 600 1925 
Q 484 1925 411 2006 
Q 338 2088 338 2228 
Q 338 2497 613 2722 
Q 888 2947 1384 2947 
Q 1766 2947 2009 2819 
Q 2194 2722 2281 2516 
Q 2338 2381 2338 1966 
L 2338 994 
Q 2338 584 2353 492 
Q 2369 400 2405 369 
Q 2441 338 2488 338 
Q 2538 338 2575 359 
Q 2641 400 2828 588 
L 2828 413 
Q 2478 -56 2159 -56 
Q 2006 -56 1915 50 
Q 1825 156 1822 413 
z
M 1822 616 
L 1822 1706 
Q 1350 1519 1213 1441 
Q 966 1303 859 1153 
Q 753 1003 753 825 
Q 753 600 887 451 
Q 1022 303 1197 303 
Q 1434 303 1822 616 
z
" transform="scale(0.015625)"/>
        <path id="TimesNewRomanPSMT-70" d="M -6 2578 
L 875 2934 
L 994 2934 
L 994 2266 
Q 1216 2644 1439 2795 
Q 1663 2947 1909 2947 
Q 2341 2947 2628 2609 
Q 2981 2197 2981 1534 
Q 2981 794 2556 309 
Q 2206 -88 1675 -88 
Q 1444 -88 1275 -22 
Q 1150 25 994 166 
L 994 -706 
Q 994 -1000 1030 -1079 
Q 1066 -1159 1155 -1206 
Q 1244 -1253 1478 -1253 
L 1478 -1369 
L -22 -1369 
L -22 -1253 
L 56 -1253 
Q 228 -1256 350 -1188 
Q 409 -1153 442 -1076 
Q 475 -1000 475 -688 
L 475 2019 
Q 475 2297 450 2372 
Q 425 2447 370 2484 
Q 316 2522 222 2522 
Q 147 2522 31 2478 
L -6 2578 
z
M 994 2081 
L 994 1013 
Q 994 666 1022 556 
Q 1066 375 1236 237 
Q 1406 100 1666 100 
Q 1978 100 2172 344 
Q 2425 663 2425 1241 
Q 2425 1897 2138 2250 
Q 1938 2494 1663 2494 
Q 1513 2494 1366 2419 
Q 1253 2363 994 2081 
z
" transform="scale(0.015625)"/>
        <path id="TimesNewRomanPSMT-74" d="M 1031 3803 
L 1031 2863 
L 1700 2863 
L 1700 2644 
L 1031 2644 
L 1031 788 
Q 1031 509 1111 412 
Q 1191 316 1316 316 
Q 1419 316 1516 380 
Q 1613 444 1666 569 
L 1788 569 
Q 1678 263 1478 108 
Q 1278 -47 1066 -47 
Q 922 -47 784 33 
Q 647 113 581 261 
Q 516 409 516 719 
L 516 2644 
L 63 2644 
L 63 2747 
Q 234 2816 414 2980 
Q 594 3144 734 3369 
Q 806 3488 934 3803 
L 1031 3803 
z
" transform="scale(0.015625)"/>
        <path id="TimesNewRomanPSMT-6e" d="M 1034 2341 
Q 1538 2947 1994 2947 
Q 2228 2947 2397 2830 
Q 2566 2713 2666 2444 
Q 2734 2256 2734 1869 
L 2734 647 
Q 2734 375 2778 278 
Q 2813 200 2889 156 
Q 2966 113 3172 113 
L 3172 0 
L 1756 0 
L 1756 113 
L 1816 113 
Q 2016 113 2095 173 
Q 2175 234 2206 353 
Q 2219 400 2219 647 
L 2219 1819 
Q 2219 2209 2117 2386 
Q 2016 2563 1775 2563 
Q 1403 2563 1034 2156 
L 1034 647 
Q 1034 356 1069 288 
Q 1113 197 1189 155 
Q 1266 113 1500 113 
L 1500 0 
L 84 0 
L 84 113 
L 147 113 
Q 366 113 442 223 
Q 519 334 519 647 
L 519 1709 
Q 519 2225 495 2337 
Q 472 2450 423 2490 
Q 375 2531 294 2531 
Q 206 2531 84 2484 
L 38 2597 
L 900 2947 
L 1034 2947 
L 1034 2341 
z
" transform="scale(0.015625)"/>
       </defs>
       <use xlink:href="#TimesNewRomanPSMT-4d"/>
       <use xlink:href="#TimesNewRomanPSMT-61" x="88.916016"/>
       <use xlink:href="#TimesNewRomanPSMT-70" x="133.300781"/>
       <use xlink:href="#TimesNewRomanPSMT-6c" x="183.300781"/>
       <use xlink:href="#TimesNewRomanPSMT-65" x="211.083984"/>
       <use xlink:href="#TimesNewRomanPSMT-74" x="255.46875"/>
       <use xlink:href="#TimesNewRomanPSMT-6f" x="283.251953"/>
       <use xlink:href="#TimesNewRomanPSMT-6e" x="333.251953"/>
      </g>
     </g>
    </g>
    <g id="xtick_3">
     <g id="line2d_3">
      <g>
       <use xlink:href="#mb9b8052233" x="185.487366" y="261.318486" style="stroke: #000000; stroke-width: 0.8"/>
      </g>
     </g>
     <g id="text_3">
      <!-- Ironwood -->
      <g transform="translate(150.680477 307.202288) rotate(-45) scale(0.12 -0.12)">
       <defs>
        <path id="TimesNewRomanPSMT-49" d="M 1975 116 
L 1975 0 
L 159 0 
L 159 116 
L 309 116 
Q 572 116 691 269 
Q 766 369 766 750 
L 766 3488 
Q 766 3809 725 3913 
Q 694 3991 597 4047 
Q 459 4122 309 4122 
L 159 4122 
L 159 4238 
L 1975 4238 
L 1975 4122 
L 1822 4122 
Q 1563 4122 1444 3969 
Q 1366 3869 1366 3488 
L 1366 750 
Q 1366 428 1406 325 
Q 1438 247 1538 191 
Q 1672 116 1822 116 
L 1975 116 
z
" transform="scale(0.015625)"/>
        <path id="TimesNewRomanPSMT-77" d="M 41 2863 
L 1241 2863 
L 1241 2747 
Q 1075 2734 1023 2687 
Q 972 2641 972 2553 
Q 972 2456 1025 2319 
L 1638 672 
L 2253 2013 
L 2091 2434 
Q 2016 2622 1894 2694 
Q 1825 2738 1638 2747 
L 1638 2863 
L 3000 2863 
L 3000 2747 
Q 2775 2738 2681 2666 
Q 2619 2616 2619 2506 
Q 2619 2444 2644 2378 
L 3294 734 
L 3897 2319 
Q 3959 2488 3959 2588 
Q 3959 2647 3898 2694 
Q 3838 2741 3659 2747 
L 3659 2863 
L 4563 2863 
L 4563 2747 
Q 4291 2706 4163 2378 
L 3206 -88 
L 3078 -88 
L 2363 1741 
L 1528 -88 
L 1413 -88 
L 494 2319 
Q 403 2547 315 2626 
Q 228 2706 41 2747 
L 41 2863 
z
" transform="scale(0.015625)"/>
       </defs>
       <use xlink:href="#TimesNewRomanPSMT-49"/>
       <use xlink:href="#TimesNewRomanPSMT-72" x="33.300781"/>
       <use xlink:href="#TimesNewRomanPSMT-6f" x="66.601562"/>
       <use xlink:href="#TimesNewRomanPSMT-6e" x="116.601562"/>
       <use xlink:href="#TimesNewRomanPSMT-77" x="166.601562"/>
       <use xlink:href="#TimesNewRomanPSMT-6f" x="238.818359"/>
       <use xlink:href="#TimesNewRomanPSMT-6f" x="288.818359"/>
       <use xlink:href="#TimesNewRomanPSMT-64" x="338.818359"/>
      </g>
     </g>
    </g>
    <g id="xtick_4">
     <g id="line2d_4">
      <g>
       <use xlink:href="#mb9b8052233" x="239.315937" y="261.318486" style="stroke: #000000; stroke-width: 0.8"/>
      </g>
     </g>
     <g id="text_4">
      <!-- Zephyr -->
      <g transform="translate(212.982397 298.713029) rotate(-45) scale(0.12 -0.12)">
       <defs>
        <path id="TimesNewRomanPSMT-5a" d="M 3681 4238 
L 897 256 
L 2634 256 
Q 3034 256 3248 431 
Q 3463 606 3628 1141 
L 3731 1122 
L 3531 0 
L 81 0 
L 81 116 
L 2800 3984 
L 1444 3984 
Q 1106 3984 954 3911 
Q 803 3838 723 3698 
Q 644 3559 578 3178 
L 459 3178 
L 547 4238 
L 3681 4238 
z
" transform="scale(0.015625)"/>
        <path id="TimesNewRomanPSMT-68" d="M 1041 4444 
L 1041 2350 
Q 1388 2731 1591 2839 
Q 1794 2947 1997 2947 
Q 2241 2947 2416 2812 
Q 2591 2678 2675 2391 
Q 2734 2191 2734 1659 
L 2734 647 
Q 2734 375 2778 275 
Q 2809 200 2884 156 
Q 2959 113 3159 113 
L 3159 0 
L 1753 0 
L 1753 113 
L 1819 113 
Q 2019 113 2097 173 
Q 2175 234 2206 353 
Q 2216 403 2216 647 
L 2216 1659 
Q 2216 2128 2167 2275 
Q 2119 2422 2012 2495 
Q 1906 2569 1756 2569 
Q 1603 2569 1437 2487 
Q 1272 2406 1041 2159 
L 1041 647 
Q 1041 353 1073 281 
Q 1106 209 1195 161 
Q 1284 113 1503 113 
L 1503 0 
L 84 0 
L 84 113 
Q 275 113 384 172 
Q 447 203 484 290 
Q 522 378 522 647 
L 522 3238 
Q 522 3728 498 3840 
Q 475 3953 426 3993 
Q 378 4034 297 4034 
Q 231 4034 84 3984 
L 41 4094 
L 897 4444 
L 1041 4444 
z
" transform="scale(0.015625)"/>
        <path id="TimesNewRomanPSMT-79" d="M 38 2863 
L 1372 2863 
L 1372 2747 
L 1306 2747 
Q 1166 2747 1095 2686 
Q 1025 2625 1025 2534 
Q 1025 2413 1128 2197 
L 1825 753 
L 2466 2334 
Q 2519 2463 2519 2588 
Q 2519 2644 2497 2672 
Q 2472 2706 2419 2726 
Q 2366 2747 2231 2747 
L 2231 2863 
L 3163 2863 
L 3163 2747 
Q 3047 2734 2984 2696 
Q 2922 2659 2847 2556 
Q 2819 2513 2741 2316 
L 1575 -541 
Q 1406 -956 1132 -1168 
Q 859 -1381 606 -1381 
Q 422 -1381 303 -1275 
Q 184 -1169 184 -1031 
Q 184 -900 270 -820 
Q 356 -741 506 -741 
Q 609 -741 788 -809 
Q 913 -856 944 -856 
Q 1038 -856 1148 -759 
Q 1259 -663 1372 -384 
L 1575 113 
L 547 2272 
Q 500 2369 397 2513 
Q 319 2622 269 2659 
Q 197 2709 38 2747 
L 38 2863 
z
" transform="scale(0.015625)"/>
       </defs>
       <use xlink:href="#TimesNewRomanPSMT-5a"/>
       <use xlink:href="#TimesNewRomanPSMT-65" x="61.083984"/>
       <use xlink:href="#TimesNewRomanPSMT-70" x="105.46875"/>
       <use xlink:href="#TimesNewRomanPSMT-68" x="155.46875"/>
       <use xlink:href="#TimesNewRomanPSMT-79" x="205.46875"/>
       <use xlink:href="#TimesNewRomanPSMT-72" x="255.46875"/>
      </g>
     </g>
    </g>
    <g id="xtick_5">
     <g id="line2d_5">
      <g>
       <use xlink:href="#mb9b8052233" x="293.144509" y="261.318486" style="stroke: #000000; stroke-width: 0.8"/>
      </g>
     </g>
     <g id="text_5">
      <!-- Oakridge -->
      <g transform="translate(259.741668 305.782329) rotate(-45) scale(0.12 -0.12)">
       <defs>
        <path id="TimesNewRomanPSMT-4f" d="M 2341 4334 
Q 3166 4334 3770 3707 
Q 4375 3081 4375 2144 
Q 4375 1178 3765 540 
Q 3156 -97 2291 -97 
Q 1416 -97 820 525 
Q 225 1147 225 2134 
Q 225 3144 913 3781 
Q 1509 4334 2341 4334 
z
M 2281 4106 
Q 1713 4106 1369 3684 
Q 941 3159 941 2147 
Q 941 1109 1384 550 
Q 1725 125 2284 125 
Q 2881 125 3270 590 
Q 3659 1056 3659 2059 
Q 3659 3147 3231 3681 
Q 2888 4106 2281 4106 
z
" transform="scale(0.015625)"/>
        <path id="TimesNewRomanPSMT-67" d="M 966 1044 
Q 703 1172 562 1401 
Q 422 1631 422 1909 
Q 422 2334 742 2640 
Q 1063 2947 1563 2947 
Q 1972 2947 2272 2747 
L 2878 2747 
Q 3013 2747 3034 2739 
Q 3056 2731 3066 2713 
Q 3084 2684 3084 2613 
Q 3084 2531 3069 2500 
Q 3059 2484 3036 2475 
Q 3013 2466 2878 2466 
L 2506 2466 
Q 2681 2241 2681 1891 
Q 2681 1491 2375 1206 
Q 2069 922 1553 922 
Q 1341 922 1119 984 
Q 981 866 932 777 
Q 884 688 884 625 
Q 884 572 936 522 
Q 988 472 1138 450 
Q 1225 438 1575 428 
Q 2219 413 2409 384 
Q 2700 344 2873 169 
Q 3047 -6 3047 -263 
Q 3047 -616 2716 -925 
Q 2228 -1381 1444 -1381 
Q 841 -1381 425 -1109 
Q 191 -953 191 -784 
Q 191 -709 225 -634 
Q 278 -519 444 -313 
Q 466 -284 763 25 
Q 600 122 533 198 
Q 466 275 466 372 
Q 466 481 555 628 
Q 644 775 966 1044 
z
M 1509 2797 
Q 1278 2797 1122 2612 
Q 966 2428 966 2047 
Q 966 1553 1178 1281 
Q 1341 1075 1591 1075 
Q 1828 1075 1981 1253 
Q 2134 1431 2134 1813 
Q 2134 2309 1919 2591 
Q 1759 2797 1509 2797 
z
M 934 0 
Q 788 -159 713 -296 
Q 638 -434 638 -550 
Q 638 -700 819 -813 
Q 1131 -1006 1722 -1006 
Q 2284 -1006 2551 -807 
Q 2819 -609 2819 -384 
Q 2819 -222 2659 -153 
Q 2497 -84 2016 -72 
Q 1313 -53 934 0 
z
" transform="scale(0.015625)"/>
       </defs>
       <use xlink:href="#TimesNewRomanPSMT-4f"/>
       <use xlink:href="#TimesNewRomanPSMT-61" x="72.216797"/>
       <use xlink:href="#TimesNewRomanPSMT-6b" x="116.601562"/>
       <use xlink:href="#TimesNewRomanPSMT-72" x="166.601562"/>
       <use xlink:href="#TimesNewRomanPSMT-69" x="199.902344"/>
       <use xlink:href="#TimesNewRomanPSMT-64" x="227.685547"/>
       <use xlink:href="#TimesNewRomanPSMT-67" x="277.685547"/>
       <use xlink:href="#TimesNewRomanPSMT-65" x="327.685547"/>
      </g>
     </g>
    </g>
    <g id="xtick_6">
     <g id="line2d_6">
      <g>
       <use xlink:href="#mb9b8052233" x="346.97308" y="261.318486" style="stroke: #000000; stroke-width: 0.8"/>
      </g>
     </g>
     <g id="text_6">
      <!-- Creston -->
      <g transform="translate(318.760846 300.607633) rotate(-45) scale(0.12 -0.12)">
       <defs>
        <path id="TimesNewRomanPSMT-43" d="M 3853 4334 
L 3950 2894 
L 3853 2894 
Q 3659 3541 3300 3825 
Q 2941 4109 2438 4109 
Q 2016 4109 1675 3895 
Q 1334 3681 1139 3212 
Q 944 2744 944 2047 
Q 944 1472 1128 1050 
Q 1313 628 1683 403 
Q 2053 178 2528 178 
Q 2941 178 3256 354 
Q 3572 531 3950 1056 
L 4047 994 
Q 3728 428 3303 165 
Q 2878 -97 2294 -97 
Q 1241 -97 663 684 
Q 231 1266 231 2053 
Q 231 2688 515 3219 
Q 800 3750 1298 4042 
Q 1797 4334 2388 4334 
Q 2847 4334 3294 4109 
Q 3425 4041 3481 4041 
Q 3566 4041 3628 4100 
Q 3709 4184 3744 4334 
L 3853 4334 
z
" transform="scale(0.015625)"/>
        <path id="TimesNewRomanPSMT-73" d="M 2050 2947 
L 2050 1972 
L 1947 1972 
Q 1828 2431 1642 2597 
Q 1456 2763 1169 2763 
Q 950 2763 815 2647 
Q 681 2531 681 2391 
Q 681 2216 781 2091 
Q 878 1963 1175 1819 
L 1631 1597 
Q 2266 1288 2266 781 
Q 2266 391 1970 151 
Q 1675 -88 1309 -88 
Q 1047 -88 709 6 
Q 606 38 541 38 
Q 469 38 428 -44 
L 325 -44 
L 325 978 
L 428 978 
Q 516 541 762 319 
Q 1009 97 1316 97 
Q 1531 97 1667 223 
Q 1803 350 1803 528 
Q 1803 744 1651 891 
Q 1500 1038 1047 1263 
Q 594 1488 453 1669 
Q 313 1847 313 2119 
Q 313 2472 555 2709 
Q 797 2947 1181 2947 
Q 1350 2947 1591 2875 
Q 1750 2828 1803 2828 
Q 1853 2828 1881 2850 
Q 1909 2872 1947 2947 
L 2050 2947 
z
" transform="scale(0.015625)"/>
       </defs>
       <use xlink:href="#TimesNewRomanPSMT-43"/>
       <use xlink:href="#TimesNewRomanPSMT-72" x="66.699219"/>
       <use xlink:href="#TimesNewRomanPSMT-65" x="100"/>
       <use xlink:href="#TimesNewRomanPSMT-73" x="144.384766"/>
       <use xlink:href="#TimesNewRomanPSMT-74" x="183.300781"/>
       <use xlink:href="#TimesNewRomanPSMT-6f" x="211.083984"/>
       <use xlink:href="#TimesNewRomanPSMT-6e" x="261.083984"/>
      </g>
     </g>
    </g>
    <g id="xtick_7">
     <g id="line2d_7">
      <g>
       <use xlink:href="#mb9b8052233" x="400.801652" y="261.318486" style="stroke: #000000; stroke-width: 0.8"/>
      </g>
     </g>
     <g id="text_7">
      <!-- Highvale -->
      <g transform="translate(367.866828 305.314313) rotate(-45) scale(0.12 -0.12)">
       <defs>
        <path id="TimesNewRomanPSMT-48" d="M 1316 2272 
L 3284 2272 
L 3284 3484 
Q 3284 3809 3244 3913 
Q 3213 3991 3113 4047 
Q 2978 4122 2828 4122 
L 2678 4122 
L 2678 4238 
L 4491 4238 
L 4491 4122 
L 4341 4122 
Q 4191 4122 4056 4050 
Q 3956 4000 3920 3898 
Q 3884 3797 3884 3484 
L 3884 750 
Q 3884 428 3925 325 
Q 3956 247 4053 191 
Q 4191 116 4341 116 
L 4491 116 
L 4491 0 
L 2678 0 
L 2678 116 
L 2828 116 
Q 3088 116 3206 269 
Q 3284 369 3284 750 
L 3284 2041 
L 1316 2041 
L 1316 750 
Q 1316 428 1356 325 
Q 1388 247 1488 191 
Q 1622 116 1772 116 
L 1925 116 
L 1925 0 
L 109 0 
L 109 116 
L 259 116 
Q 522 116 641 269 
Q 716 369 716 750 
L 716 3484 
Q 716 3809 675 3913 
Q 644 3991 547 4047 
Q 409 4122 259 4122 
L 109 4122 
L 109 4238 
L 1925 4238 
L 1925 4122 
L 1772 4122 
Q 1622 4122 1488 4050 
Q 1391 4000 1353 3898 
Q 1316 3797 1316 3484 
L 1316 2272 
z
" transform="scale(0.015625)"/>
        <path id="TimesNewRomanPSMT-76" d="M 53 2863 
L 1400 2863 
L 1400 2747 
L 1313 2747 
Q 1191 2747 1127 2687 
Q 1063 2628 1063 2528 
Q 1063 2419 1128 2269 
L 1794 688 
L 2463 2328 
Q 2534 2503 2534 2594 
Q 2534 2638 2509 2666 
Q 2475 2713 2422 2730 
Q 2369 2747 2206 2747 
L 2206 2863 
L 3141 2863 
L 3141 2747 
Q 2978 2734 2916 2681 
Q 2806 2588 2719 2369 
L 1703 -88 
L 1575 -88 
L 553 2328 
Q 484 2497 421 2570 
Q 359 2644 263 2694 
Q 209 2722 53 2747 
L 53 2863 
z
" transform="scale(0.015625)"/>
       </defs>
       <use xlink:href="#TimesNewRomanPSMT-48"/>
       <use xlink:href="#TimesNewRomanPSMT-69" x="72.216797"/>
       <use xlink:href="#TimesNewRomanPSMT-67" x="100"/>
       <use xlink:href="#TimesNewRomanPSMT-68" x="150"/>
       <use xlink:href="#TimesNewRomanPSMT-76" x="200"/>
       <use xlink:href="#TimesNewRomanPSMT-61" x="250"/>
       <use xlink:href="#TimesNewRomanPSMT-6c" x="294.384766"/>
       <use xlink:href="#TimesNewRomanPSMT-65" x="322.167969"/>
      </g>
     </g>
    </g>
   </g>
   <g id="matplotlib.axis_2">
    <g id="ytick_1">
     <g id="line2d_8">
      <defs>
       <path id="mc0099ddbec" d="M 0 0 
L -3.5 0 
" style="stroke: #000000; stroke-width: 0.8"/>
      </defs>
      <g>
       <use xlink:href="#mc0099ddbec" x="50.915938" y="236.493982" style="stroke: #000000; stroke-width: 0.8"/>
      </g>
     </g>
     <g id="text_8">
      <!-- 1000 -->
      <g transform="translate(23.915938 239.965857) scale(0.1 -0.1)">
       <defs>
        <path id="TimesNewRomanPSMT-31" d="M 750 3822 
L 1781 4325 
L 1884 4325 
L 1884 747 
Q 1884 391 1914 303 
Q 1944 216 2037 169 
Q 2131 122 2419 116 
L 2419 0 
L 825 0 
L 825 116 
Q 1125 122 1212 167 
Q 1300 213 1334 289 
Q 1369 366 1369 747 
L 1369 3034 
Q 1369 3497 1338 3628 
Q 1316 3728 1258 3775 
Q 1200 3822 1119 3822 
Q 1003 3822 797 3725 
L 750 3822 
z
" transform="scale(0.015625)"/>
        <path id="TimesNewRomanPSMT-30" d="M 231 2094 
Q 231 2819 450 3342 
Q 669 3866 1031 4122 
Q 1313 4325 1613 4325 
Q 2100 4325 2488 3828 
Q 2972 3213 2972 2159 
Q 2972 1422 2759 906 
Q 2547 391 2217 158 
Q 1888 -75 1581 -75 
Q 975 -75 572 641 
Q 231 1244 231 2094 
z
M 844 2016 
Q 844 1141 1059 588 
Q 1238 122 1591 122 
Q 1759 122 1940 273 
Q 2122 425 2216 781 
Q 2359 1319 2359 2297 
Q 2359 3022 2209 3506 
Q 2097 3866 1919 4016 
Q 1791 4119 1609 4119 
Q 1397 4119 1231 3928 
Q 1006 3669 925 3112 
Q 844 2556 844 2016 
z
" transform="scale(0.015625)"/>
       </defs>
       <use xlink:href="#TimesNewRomanPSMT-31"/>
       <use xlink:href="#TimesNewRomanPSMT-30" x="50"/>
       <use xlink:href="#TimesNewRomanPSMT-30" x="100"/>
       <use xlink:href="#TimesNewRomanPSMT-30" x="150"/>
      </g>
     </g>
    </g>
    <g id="ytick_2">
     <g id="line2d_9">
      <g>
       <use xlink:href="#mc0099ddbec" x="50.915938" y="209.792353" style="stroke: #000000; stroke-width: 0.8"/>
      </g>
     </g>
     <g id="text_9">
      <!-- 1500 -->
      <g transform="translate(23.915938 213.264228) scale(0.1 -0.1)">
       <defs>
        <path id="TimesNewRomanPSMT-35" d="M 2778 4238 
L 2534 3706 
L 1259 3706 
L 981 3138 
Q 1809 3016 2294 2522 
Q 2709 2097 2709 1522 
Q 2709 1188 2573 903 
Q 2438 619 2231 419 
Q 2025 219 1772 97 
Q 1413 -75 1034 -75 
Q 653 -75 479 54 
Q 306 184 306 341 
Q 306 428 378 495 
Q 450 563 559 563 
Q 641 563 702 538 
Q 763 513 909 409 
Q 1144 247 1384 247 
Q 1750 247 2026 523 
Q 2303 800 2303 1197 
Q 2303 1581 2056 1914 
Q 1809 2247 1375 2428 
Q 1034 2569 447 2591 
L 1259 4238 
L 2778 4238 
z
" transform="scale(0.015625)"/>
       </defs>
       <use xlink:href="#TimesNewRomanPSMT-31"/>
       <use xlink:href="#TimesNewRomanPSMT-35" x="50"/>
       <use xlink:href="#TimesNewRomanPSMT-30" x="100"/>
       <use xlink:href="#TimesNewRomanPSMT-30" x="150"/>
      </g>
     </g>
    </g>
    <g id="ytick_3">
     <g id="line2d_10">
      <g>
       <use xlink:href="#mc0099ddbec" x="50.915938" y="183.090725" style="stroke: #000000; stroke-width: 0.8"/>
      </g>
     </g>
     <g id="text_10">
      <!-- 2000 -->
      <g transform="translate(23.915938 186.5626) scale(0.1 -0.1)">
       <defs>
        <path id="TimesNewRomanPSMT-32" d="M 2934 816 
L 2638 0 
L 138 0 
L 138 116 
Q 1241 1122 1691 1759 
Q 2141 2397 2141 2925 
Q 2141 3328 1894 3587 
Q 1647 3847 1303 3847 
Q 991 3847 742 3664 
Q 494 3481 375 3128 
L 259 3128 
Q 338 3706 661 4015 
Q 984 4325 1469 4325 
Q 1984 4325 2329 3994 
Q 2675 3663 2675 3213 
Q 2675 2891 2525 2569 
Q 2294 2063 1775 1497 
Q 997 647 803 472 
L 1909 472 
Q 2247 472 2383 497 
Q 2519 522 2628 598 
Q 2738 675 2819 816 
L 2934 816 
z
" transform="scale(0.015625)"/>
       </defs>
       <use xlink:href="#TimesNewRomanPSMT-32"/>
       <use xlink:href="#TimesNewRomanPSMT-30" x="50"/>
       <use xlink:href="#TimesNewRomanPSMT-30" x="100"/>
       <use xlink:href="#TimesNewRomanPSMT-30" x="150"/>
      </g>
     </g>
    </g>
    <g id="ytick_4">
     <g id="line2d_11">
      <g>
       <use xlink:href="#mc0099ddbec" x="50.915938" y="156.389096" style="stroke: #000000; stroke-width: 0.8"/>
      </g>
     </g>
     <g id="text_11">
      <!-- 2500 -->
      <g transform="translate(23.915938 159.860971) scale(0.1 -0.1)">
       <use xlink:href="#TimesNewRomanPSMT-32"/>
       <use xlink:href="#TimesNewRomanPSMT-35" x="50"/>
       <use xlink:href="#TimesNewRomanPSMT-30" x="100"/>
       <use xlink:href="#TimesNewRomanPSMT-30" x="150"/>
      </g>
     </g>
    </g>
    <g id="ytick_5">
     <g id="line2d_12">
      <g>
       <use xlink:href="#mc0099ddbec" x="50.915938" y="129.687467" style="stroke: #000000; stroke-width: 0.8"/>
      </g>
     </g>
     <g id="text_12">
      <!-- 3000 -->
      <g transform="translate(23.915938 133.159342) scale(0.1 -0.1)">
       <defs>
        <path id="TimesNewRomanPSMT-33" d="M 325 3431 
Q 506 3859 782 4092 
Q 1059 4325 1472 4325 
Q 1981 4325 2253 3994 
Q 2459 3747 2459 3466 
Q 2459 3003 1878 2509 
Q 2269 2356 2469 2072 
Q 2669 1788 2669 1403 
Q 2669 853 2319 450 
Q 1863 -75 997 -75 
Q 569 -75 414 31 
Q 259 138 259 259 
Q 259 350 332 419 
Q 406 488 509 488 
Q 588 488 669 463 
Q 722 447 909 348 
Q 1097 250 1169 231 
Q 1284 197 1416 197 
Q 1734 197 1970 444 
Q 2206 691 2206 1028 
Q 2206 1275 2097 1509 
Q 2016 1684 1919 1775 
Q 1784 1900 1550 2001 
Q 1316 2103 1072 2103 
L 972 2103 
L 972 2197 
Q 1219 2228 1467 2375 
Q 1716 2522 1828 2728 
Q 1941 2934 1941 3181 
Q 1941 3503 1739 3701 
Q 1538 3900 1238 3900 
Q 753 3900 428 3381 
L 325 3431 
z
" transform="scale(0.015625)"/>
       </defs>
       <use xlink:href="#TimesNewRomanPSMT-33"/>
       <use xlink:href="#TimesNewRomanPSMT-30" x="50"/>
       <use xlink:href="#TimesNewRomanPSMT-30" x="100"/>
       <use xlink:href="#TimesNewRomanPSMT-30" x="150"/>
      </g>
     </g>
    </g>
    <g id="ytick_6">
     <g id="line2d_13">
      <g>
       <use xlink:href="#mc0099ddbec" x="50.915938" y="102.985839" style="stroke: #000000; stroke-width: 0.8"/>
      </g>
     </g>
     <g id="text_13">
      <!-- 3500 -->
      <g transform="translate(23.915938 106.457714) scale(0.1 -0.1)">
       <use xlink:href="#TimesNewRomanPSMT-33"/>
       <use xlink:href="#TimesNewRomanPSMT-35" x="50"/>
       <use xlink:href="#TimesNewRomanPSMT-30" x="100"/>
       <use xlink:href="#TimesNewRomanPSMT-30" x="150"/>
      </g>
     </g>
    </g>
    <g id="ytick_7">
     <g id="line2d_14">
      <g>
       <use xlink:href="#mc0099ddbec" x="50.915938" y="76.28421" style="stroke: #000000; stroke-width: 0.8"/>
      </g>
     </g>
     <g id="text_14">
      <!-- 4000 -->
      <g transform="translate(23.915938 79.756085) scale(0.1 -0.1)">
       <defs>
        <path id="TimesNewRomanPSMT-34" d="M 2978 1563 
L 2978 1119 
L 2409 1119 
L 2409 0 
L 1894 0 
L 1894 1119 
L 100 1119 
L 100 1519 
L 2066 4325 
L 2409 4325 
L 2409 1563 
L 2978 1563 
z
M 1894 1563 
L 1894 3666 
L 406 1563 
L 1894 1563 
z
" transform="scale(0.015625)"/>
       </defs>
       <use xlink:href="#TimesNewRomanPSMT-34"/>
       <use xlink:href="#TimesNewRomanPSMT-30" x="50"/>
       <use xlink:href="#TimesNewRomanPSMT-30" x="100"/>
       <use xlink:href="#TimesNewRomanPSMT-30" x="150"/>
      </g>
     </g>
    </g>
    <g id="ytick_8">
     <g id="line2d_15">
      <g>
       <use xlink:href="#mc0099ddbec" x="50.915938" y="49.582582" style="stroke: #000000; stroke-width: 0.8"/>
      </g>
     </g>
     <g id="text_15">
      <!-- 4500 -->
      <g transform="translate(23.915938 53.054457) scale(0.1 -0.1)">
       <use xlink:href="#TimesNewRomanPSMT-34"/>
       <use xlink:href="#TimesNewRomanPSMT-35" x="50"/>
       <use xlink:href="#TimesNewRomanPSMT-30" x="100"/>
       <use xlink:href="#TimesNewRomanPSMT-30" x="150"/>
      </g>
     </g>
    </g>
    <g id="text_16">
     <!-- MWh -->
     <g transform="translate(16.92125 162.013618) rotate(-90) scale(0.14 -0.14)">
      <defs>
       <path id="TimesNewRomanPSMT-57" d="M 5991 4238 
L 5991 4122 
Q 5825 4122 5722 4062 
Q 5619 4003 5525 3841 
Q 5463 3731 5328 3319 
L 4147 -97 
L 4022 -97 
L 3056 2613 
L 2097 -97 
L 1984 -97 
L 725 3422 
Q 584 3816 547 3888 
Q 484 4006 376 4064 
Q 269 4122 84 4122 
L 84 4238 
L 1653 4238 
L 1653 4122 
L 1578 4122 
Q 1413 4122 1325 4047 
Q 1238 3972 1238 3866 
Q 1238 3756 1375 3363 
L 2209 984 
L 2913 3006 
L 2788 3363 
L 2688 3647 
Q 2622 3803 2541 3922 
Q 2500 3981 2441 4022 
Q 2363 4078 2284 4103 
Q 2225 4122 2097 4122 
L 2097 4238 
L 3747 4238 
L 3747 4122 
L 3634 4122 
Q 3459 4122 3378 4047 
Q 3297 3972 3297 3844 
Q 3297 3684 3438 3288 
L 4250 984 
L 5056 3319 
Q 5194 3706 5194 3856 
Q 5194 3928 5148 3990 
Q 5103 4053 5034 4078 
Q 4916 4122 4725 4122 
L 4725 4238 
L 5991 4238 
z
" transform="scale(0.015625)"/>
      </defs>
      <use xlink:href="#TimesNewRomanPSMT-4d"/>
      <use xlink:href="#TimesNewRomanPSMT-57" x="88.916016"/>
      <use xlink:href="#TimesNewRomanPSMT-68" x="183.300781"/>
     </g>
    </g>
   </g>
   <g id="patch_3">
    <path d="M 75.523284 214.438437 
L 80.137162 214.438437 
L 80.137162 149.419971 
L 75.523284 149.419971 
L 75.523284 214.438437 
L 75.523284 214.438437 
z
" clip-path="url(#p74f2dfc8c8)" style="fill: none; stroke: #000000; stroke-linejoin: miter"/>
   </g>
   <g id="line2d_16">
    <path d="M 77.830223 214.438437 
L 77.830223 240.072 
" clip-path="url(#p74f2dfc8c8)" style="fill: none; stroke: #000000; stroke-linecap: square"/>
   </g>
   <g id="line2d_17">
    <path d="M 77.830223 149.419971 
L 77.830223 60.690459 
" clip-path="url(#p74f2dfc8c8)" style="fill: none; stroke: #000000; stroke-linecap: square"/>
   </g>
   <g id="line2d_18">
    <path d="M 76.676754 240.072 
L 78.983693 240.072 
" clip-path="url(#p74f2dfc8c8)" style="fill: none; stroke: #000000; stroke-linecap: square"/>
   </g>
   <g id="line2d_19">
    <path d="M 76.676754 60.690459 
L 78.983693 60.690459 
" clip-path="url(#p74f2dfc8c8)" style="fill: none; stroke: #000000; stroke-linecap: square"/>
   </g>
   <g id="patch_4">
    <path d="M 129.351856 174.612958 
L 133.965733 174.612958 
L 133.965733 142.35739 
L 129.351856 142.35739 
L 129.351856 174.612958 
L 129.351856 174.612958 
z
" clip-path="url(#p74f2dfc8c8)" style="fill: none; stroke: #000000; stroke-linejoin: miter"/>
   </g>
   <g id="line2d_20">
    <path d="M 131.658795 174.612958 
L 131.658795 193.931586 
" clip-path="url(#p74f2dfc8c8)" style="fill: none; stroke: #000000; stroke-linecap: square"/>
   </g>
   <g id="line2d_21">
    <path d="M 131.658795 142.35739 
L 131.658795 108.165955 
" clip-path="url(#p74f2dfc8c8)" style="fill: none; stroke: #000000; stroke-linecap: square"/>
   </g>
   <g id="line2d_22">
    <path d="M 130.505325 193.931586 
L 132.812264 193.931586 
" clip-path="url(#p74f2dfc8c8)" style="fill: none; stroke: #000000; stroke-linecap: square"/>
   </g>
   <g id="line2d_23">
    <path d="M 130.505325 108.165955 
L 132.812264 108.165955 
" clip-path="url(#p74f2dfc8c8)" style="fill: none; stroke: #000000; stroke-linecap: square"/>
   </g>
   <g id="patch_5">
    <path d="M 183.180427 189.352257 
L 187.794305 189.352257 
L 187.794305 147.497454 
L 183.180427 147.497454 
L 183.180427 189.352257 
L 183.180427 189.352257 
z
" clip-path="url(#p74f2dfc8c8)" style="fill: none; stroke: #000000; stroke-linejoin: miter"/>
   </g>
   <g id="line2d_24">
    <path d="M 185.487366 189.352257 
L 185.487366 206.855174 
" clip-path="url(#p74f2dfc8c8)" style="fill: none; stroke: #000000; stroke-linecap: square"/>
   </g>
   <g id="line2d_25">
    <path d="M 185.487366 147.497454 
L 185.487366 92.572204 
" clip-path="url(#p74f2dfc8c8)" style="fill: none; stroke: #000000; stroke-linecap: square"/>
   </g>
   <g id="line2d_26">
    <path d="M 184.333897 206.855174 
L 186.640835 206.855174 
" clip-path="url(#p74f2dfc8c8)" style="fill: none; stroke: #000000; stroke-linecap: square"/>
   </g>
   <g id="line2d_27">
    <path d="M 184.333897 92.572204 
L 186.640835 92.572204 
" clip-path="url(#p74f2dfc8c8)" style="fill: none; stroke: #000000; stroke-linecap: square"/>
   </g>
   <g id="patch_6">
    <path d="M 237.008999 229.538208 
L 241.622876 229.538208 
L 241.622876 196.121119 
L 237.008999 196.121119 
L 237.008999 229.538208 
L 237.008999 229.538208 
z
" clip-path="url(#p74f2dfc8c8)" style="fill: none; stroke: #000000; stroke-linejoin: miter"/>
   </g>
   <g id="line2d_28">
    <path d="M 239.315937 229.538208 
L 239.315937 250.806055 
" clip-path="url(#p74f2dfc8c8)" style="fill: none; stroke: #000000; stroke-linecap: square"/>
   </g>
   <g id="line2d_29">
    <path d="M 239.315937 196.121119 
L 239.315937 146.990123 
" clip-path="url(#p74f2dfc8c8)" style="fill: none; stroke: #000000; stroke-linecap: square"/>
   </g>
   <g id="line2d_30">
    <path d="M 238.162468 250.806055 
L 240.469407 250.806055 
" clip-path="url(#p74f2dfc8c8)" style="fill: none; stroke: #000000; stroke-linecap: square"/>
   </g>
   <g id="line2d_31">
    <path d="M 238.162468 146.990123 
L 240.469407 146.990123 
" clip-path="url(#p74f2dfc8c8)" style="fill: none; stroke: #000000; stroke-linecap: square"/>
   </g>
   <g id="patch_7">
    <path d="M 290.83757 172.009549 
L 295.451448 172.009549 
L 295.451448 138.539057 
L 290.83757 138.539057 
L 290.83757 172.009549 
L 290.83757 172.009549 
z
" clip-path="url(#p74f2dfc8c8)" style="fill: none; stroke: #000000; stroke-linejoin: miter"/>
   </g>
   <g id="line2d_32">
    <path d="M 293.144509 172.009549 
L 293.144509 190.353568 
" clip-path="url(#p74f2dfc8c8)" style="fill: none; stroke: #000000; stroke-linecap: square"/>
   </g>
   <g id="line2d_33">
    <path d="M 293.144509 138.539057 
L 293.144509 88.994185 
" clip-path="url(#p74f2dfc8c8)" style="fill: none; stroke: #000000; stroke-linecap: square"/>
   </g>
   <g id="line2d_34">
    <path d="M 291.99104 190.353568 
L 294.297978 190.353568 
" clip-path="url(#p74f2dfc8c8)" style="fill: none; stroke: #000000; stroke-linecap: square"/>
   </g>
   <g id="line2d_35">
    <path d="M 291.99104 88.994185 
L 294.297978 88.994185 
" clip-path="url(#p74f2dfc8c8)" style="fill: none; stroke: #000000; stroke-linecap: square"/>
   </g>
   <g id="patch_8">
    <path d="M 344.666142 214.33163 
L 349.280019 214.33163 
L 349.280019 158.805593 
L 344.666142 158.805593 
L 344.666142 214.33163 
L 344.666142 214.33163 
z
" clip-path="url(#p74f2dfc8c8)" style="fill: none; stroke: #000000; stroke-linejoin: miter"/>
   </g>
   <g id="line2d_36">
    <path d="M 346.97308 214.33163 
L 346.97308 241.674098 
" clip-path="url(#p74f2dfc8c8)" style="fill: none; stroke: #000000; stroke-linecap: square"/>
   </g>
   <g id="line2d_37">
    <path d="M 346.97308 158.805593 
L 346.97308 86.430829 
" clip-path="url(#p74f2dfc8c8)" style="fill: none; stroke: #000000; stroke-linecap: square"/>
   </g>
   <g id="line2d_38">
    <path d="M 345.819611 241.674098 
L 348.12655 241.674098 
" clip-path="url(#p74f2dfc8c8)" style="fill: none; stroke: #000000; stroke-linecap: square"/>
   </g>
   <g id="line2d_39">
    <path d="M 345.819611 86.430829 
L 348.12655 86.430829 
" clip-path="url(#p74f2dfc8c8)" style="fill: none; stroke: #000000; stroke-linecap: square"/>
   </g>
   <g id="patch_9">
    <path d="M 398.494713 176.201704 
L 403.108591 176.201704 
L 403.108591 121.236402 
L 398.494713 121.236402 
L 398.494713 176.201704 
L 398.494713 176.201704 
z
" clip-path="url(#p74f2dfc8c8)" style="fill: none; stroke: #000000; stroke-linejoin: miter"/>
   </g>
   <g id="line2d_40">
    <path d="M 400.801652 176.201704 
L 400.801652 204.98606 
" clip-path="url(#p74f2dfc8c8)" style="fill: none; stroke: #000000; stroke-linecap: square"/>
   </g>
   <g id="line2d_41">
    <path d="M 400.801652 121.236402 
L 400.801652 66.351204 
" clip-path="url(#p74f2dfc8c8)" style="fill: none; stroke: #000000; stroke-linecap: square"/>
   </g>
   <g id="line2d_42">
    <path d="M 399.648182 204.98606 
L 401.955121 204.98606 
" clip-path="url(#p74f2dfc8c8)" style="fill: none; stroke: #000000; stroke-linecap: square"/>
   </g>
   <g id="line2d_43">
    <path d="M 399.648182 66.351204 
L 401.955121 66.351204 
" clip-path="url(#p74f2dfc8c8)" style="fill: none; stroke: #000000; stroke-linecap: square"/>
   </g>
   <g id="line2d_44">
    <path d="M 75.523284 194.999651 
L 80.137162 194.999651 
" clip-path="url(#p74f2dfc8c8)" style="fill: none; stroke: #000000; stroke-width: 1.5; stroke-linecap: square"/>
   </g>
   <g id="line2d_45">
    <path d="M 129.351856 161.889632 
L 133.965733 161.889632 
" clip-path="url(#p74f2dfc8c8)" style="fill: none; stroke: #000000; stroke-width: 1.5; stroke-linecap: square"/>
   </g>
   <g id="line2d_46">
    <path d="M 183.180427 168.031006 
L 187.794305 168.031006 
" clip-path="url(#p74f2dfc8c8)" style="fill: none; stroke: #000000; stroke-width: 1.5; stroke-linecap: square"/>
   </g>
   <g id="line2d_47">
    <path d="M 237.008999 212.676129 
L 241.622876 212.676129 
" clip-path="url(#p74f2dfc8c8)" style="fill: none; stroke: #000000; stroke-width: 1.5; stroke-linecap: square"/>
   </g>
   <g id="line2d_48">
    <path d="M 290.83757 155.64145 
L 295.451448 155.64145 
" clip-path="url(#p74f2dfc8c8)" style="fill: none; stroke: #000000; stroke-width: 1.5; stroke-linecap: square"/>
   </g>
   <g id="line2d_49">
    <path d="M 344.666142 186.348323 
L 349.280019 186.348323 
" clip-path="url(#p74f2dfc8c8)" style="fill: none; stroke: #000000; stroke-width: 1.5; stroke-linecap: square"/>
   </g>
   <g id="line2d_50">
    <path d="M 398.494713 156.308991 
L 403.108591 156.308991 
" clip-path="url(#p74f2dfc8c8)" style="fill: none; stroke: #000000; stroke-width: 1.5; stroke-linecap: square"/>
   </g>
   <g id="patch_10">
    <path d="M 50.915938 261.318486 
L 50.915938 30.045 
" style="fill: none; stroke: #000000; stroke-linejoin: miter; stroke-linecap: square"/>
   </g>
   <g id="patch_11">
    <path d="M 427.715937 261.318486 
L 427.715937 30.045 
" style="fill: none; stroke: #000000; stroke-linejoin: miter; stroke-linecap: square"/>
   </g>
   <g id="patch_12">
    <path d="M 50.915938 261.318486 
L 427.715937 261.318486 
" style="fill: none; stroke: #000000; stroke-linejoin: miter; stroke-linecap: square"/>
   </g>
   <g id="patch_13">
    <path d="M 50.915938 30.045 
L 427.715937 30.045 
" style="fill: none; stroke: #000000; stroke-linejoin: miter; stroke-linecap: square"/>
   </g>
   <g id="text_17">
    <!-- Data on daily energy consumption accross cities (MWh) -->
    <g transform="translate(49.025937 18.045) scale(0.16 -0.16)">
     <defs>
      <path id="TimesNewRomanPS-BoldMT-44" d="M 84 0 
L 84 116 
L 225 116 
Q 409 116 507 173 
Q 606 231 653 331 
Q 681 397 681 725 
L 681 3513 
Q 681 3838 647 3919 
Q 613 4000 508 4061 
Q 403 4122 225 4122 
L 84 4122 
L 84 4238 
L 1981 4238 
Q 2741 4238 3203 4031 
Q 3769 3778 4061 3265 
Q 4353 2753 4353 2106 
Q 4353 1659 4209 1282 
Q 4066 906 3837 661 
Q 3609 416 3311 267 
Q 3013 119 2581 38 
Q 2391 0 1981 0 
L 84 0 
z
M 1700 3997 
L 1700 691 
Q 1700 428 1725 368 
Q 1750 309 1809 278 
Q 1894 231 2053 231 
Q 2575 231 2850 588 
Q 3225 1069 3225 2081 
Q 3225 2897 2969 3384 
Q 2766 3766 2447 3903 
Q 2222 4000 1700 3997 
z
" transform="scale(0.015625)"/>
      <path id="TimesNewRomanPS-BoldMT-61" d="M 1828 431 
Q 1294 -41 869 -41 
Q 619 -41 453 123 
Q 288 288 288 534 
Q 288 869 575 1136 
Q 863 1403 1828 1847 
L 1828 2141 
Q 1828 2472 1792 2558 
Q 1756 2644 1656 2708 
Q 1556 2772 1431 2772 
Q 1228 2772 1097 2681 
Q 1016 2625 1016 2550 
Q 1016 2484 1103 2388 
Q 1222 2253 1222 2128 
Q 1222 1975 1108 1867 
Q 994 1759 809 1759 
Q 613 1759 480 1878 
Q 347 1997 347 2156 
Q 347 2381 525 2586 
Q 703 2791 1022 2900 
Q 1341 3009 1684 3009 
Q 2100 3009 2342 2832 
Q 2584 2656 2656 2450 
Q 2700 2319 2700 1847 
L 2700 713 
Q 2700 513 2715 461 
Q 2731 409 2762 384 
Q 2794 359 2834 359 
Q 2916 359 3000 475 
L 3094 400 
Q 2938 169 2770 64 
Q 2603 -41 2391 -41 
Q 2141 -41 2000 76 
Q 1859 194 1828 431 
z
M 1828 659 
L 1828 1638 
Q 1450 1416 1266 1163 
Q 1144 994 1144 822 
Q 1144 678 1247 569 
Q 1325 484 1466 484 
Q 1622 484 1828 659 
z
" transform="scale(0.015625)"/>
      <path id="TimesNewRomanPS-BoldMT-74" d="M 1375 3991 
L 1375 2922 
L 2069 2922 
L 2069 2613 
L 1375 2613 
L 1375 809 
Q 1375 556 1398 482 
Q 1422 409 1481 364 
Q 1541 319 1591 319 
Q 1794 319 1975 628 
L 2069 559 
Q 1816 -41 1247 -41 
Q 969 -41 776 114 
Q 584 269 531 459 
Q 500 566 500 1034 
L 500 2613 
L 119 2613 
L 119 2722 
Q 513 3000 789 3306 
Q 1066 3613 1272 3991 
L 1375 3991 
z
" transform="scale(0.015625)"/>
      <path id="TimesNewRomanPS-BoldMT-20" transform="scale(0.015625)"/>
      <path id="TimesNewRomanPS-BoldMT-6f" d="M 1594 3009 
Q 1975 3009 2303 2812 
Q 2631 2616 2801 2253 
Q 2972 1891 2972 1459 
Q 2972 838 2656 419 
Q 2275 -88 1603 -88 
Q 944 -88 587 375 
Q 231 838 231 1447 
Q 231 2075 595 2542 
Q 959 3009 1594 3009 
z
M 1606 2788 
Q 1447 2788 1333 2667 
Q 1219 2547 1183 2192 
Q 1147 1838 1147 1206 
Q 1147 872 1191 581 
Q 1225 359 1337 243 
Q 1450 128 1594 128 
Q 1734 128 1828 206 
Q 1950 313 1991 503 
Q 2053 800 2053 1703 
Q 2053 2234 1993 2432 
Q 1934 2631 1819 2722 
Q 1738 2788 1606 2788 
z
" transform="scale(0.015625)"/>
      <path id="TimesNewRomanPS-BoldMT-6e" d="M 1409 2922 
L 1409 2544 
Q 1634 2788 1840 2898 
Q 2047 3009 2284 3009 
Q 2569 3009 2756 2851 
Q 2944 2694 3006 2459 
Q 3056 2281 3056 1775 
L 3056 638 
Q 3056 300 3117 217 
Q 3178 134 3372 113 
L 3372 0 
L 1894 0 
L 1894 113 
Q 2059 134 2131 250 
Q 2181 328 2181 638 
L 2181 1938 
Q 2181 2297 2153 2390 
Q 2125 2484 2058 2536 
Q 1991 2588 1909 2588 
Q 1641 2588 1409 2203 
L 1409 638 
Q 1409 309 1470 221 
Q 1531 134 1697 113 
L 1697 0 
L 219 0 
L 219 113 
Q 403 131 481 231 
Q 534 300 534 638 
L 534 2288 
Q 534 2619 473 2700 
Q 413 2781 219 2806 
L 219 2922 
L 1409 2922 
z
" transform="scale(0.015625)"/>
      <path id="TimesNewRomanPS-BoldMT-64" d="M 3056 4238 
L 3056 875 
Q 3056 534 3075 472 
Q 3100 369 3170 319 
Q 3241 269 3416 256 
L 3416 153 
L 2181 -88 
L 2181 375 
Q 1959 106 1786 9 
Q 1613 -88 1394 -88 
Q 834 -88 509 413 
Q 247 819 247 1409 
Q 247 1881 409 2254 
Q 572 2628 855 2818 
Q 1138 3009 1463 3009 
Q 1672 3009 1834 2928 
Q 1997 2847 2181 2644 
L 2181 3525 
Q 2181 3859 2153 3928 
Q 2116 4019 2041 4062 
Q 1966 4106 1759 4106 
L 1759 4238 
L 3056 4238 
z
M 2181 2256 
Q 1950 2700 1616 2700 
Q 1500 2700 1425 2638 
Q 1309 2541 1236 2297 
Q 1163 2053 1163 1550 
Q 1163 997 1244 731 
Q 1325 466 1466 347 
Q 1538 288 1663 288 
Q 1938 288 2181 719 
L 2181 2256 
z
" transform="scale(0.015625)"/>
      <path id="TimesNewRomanPS-BoldMT-69" d="M 919 4338 
Q 1122 4338 1262 4195 
Q 1403 4053 1403 3853 
Q 1403 3653 1261 3512 
Q 1119 3372 919 3372 
Q 719 3372 578 3512 
Q 438 3653 438 3853 
Q 438 4053 578 4195 
Q 719 4338 919 4338 
z
M 1356 2922 
L 1356 606 
Q 1356 297 1428 211 
Q 1500 125 1709 113 
L 1709 0 
L 131 0 
L 131 113 
Q 325 119 419 225 
Q 481 297 481 606 
L 481 2313 
Q 481 2622 409 2708 
Q 338 2794 131 2806 
L 131 2922 
L 1356 2922 
z
" transform="scale(0.015625)"/>
      <path id="TimesNewRomanPS-BoldMT-6c" d="M 1359 4238 
L 1359 606 
Q 1359 297 1431 211 
Q 1503 125 1713 113 
L 1713 0 
L 134 0 
L 134 113 
Q 328 119 422 225 
Q 484 297 484 606 
L 484 3631 
Q 484 3938 412 4023 
Q 341 4109 134 4122 
L 134 4238 
L 1359 4238 
z
" transform="scale(0.015625)"/>
      <path id="TimesNewRomanPS-BoldMT-79" d="M 1556 -119 
L 613 2047 
Q 400 2538 298 2650 
Q 197 2763 53 2806 
L 53 2922 
L 1606 2922 
L 1606 2806 
Q 1453 2800 1390 2747 
Q 1328 2694 1328 2619 
Q 1328 2500 1484 2150 
L 1984 1006 
L 2325 1891 
Q 2509 2363 2509 2547 
Q 2509 2663 2432 2731 
Q 2356 2800 2163 2806 
L 2163 2922 
L 3141 2922 
L 3141 2806 
Q 2997 2791 2906 2695 
Q 2816 2600 2603 2047 
L 1769 -119 
Q 1453 -931 1300 -1119 
Q 1084 -1381 759 -1381 
Q 500 -1381 339 -1232 
Q 178 -1084 178 -875 
Q 178 -694 289 -575 
Q 400 -456 563 -456 
Q 719 -456 814 -556 
Q 909 -656 913 -866 
Q 916 -984 941 -1019 
Q 966 -1053 1013 -1053 
Q 1088 -1053 1172 -963 
Q 1297 -831 1466 -363 
L 1556 -119 
z
" transform="scale(0.015625)"/>
      <path id="TimesNewRomanPS-BoldMT-65" d="M 2691 1566 
L 1088 1566 
Q 1116 984 1397 647 
Q 1613 388 1916 388 
Q 2103 388 2256 492 
Q 2409 597 2584 869 
L 2691 800 
Q 2453 316 2165 114 
Q 1878 -88 1500 -88 
Q 850 -88 516 413 
Q 247 816 247 1413 
Q 247 2144 642 2576 
Q 1038 3009 1569 3009 
Q 2013 3009 2339 2645 
Q 2666 2281 2691 1566 
z
M 1922 1775 
Q 1922 2278 1867 2465 
Q 1813 2653 1697 2750 
Q 1631 2806 1522 2806 
Q 1359 2806 1256 2647 
Q 1072 2369 1072 1884 
L 1072 1775 
L 1922 1775 
z
" transform="scale(0.015625)"/>
      <path id="TimesNewRomanPS-BoldMT-72" d="M 1428 2922 
L 1428 2259 
Q 1719 2713 1937 2861 
Q 2156 3009 2359 3009 
Q 2534 3009 2639 2901 
Q 2744 2794 2744 2597 
Q 2744 2388 2642 2272 
Q 2541 2156 2397 2156 
Q 2231 2156 2109 2262 
Q 1988 2369 1966 2381 
Q 1934 2400 1894 2400 
Q 1803 2400 1722 2331 
Q 1594 2225 1528 2028 
Q 1428 1725 1428 1359 
L 1428 688 
L 1431 513 
Q 1431 334 1453 284 
Q 1491 200 1564 161 
Q 1638 122 1813 113 
L 1813 0 
L 234 0 
L 234 113 
Q 425 128 492 217 
Q 559 306 559 688 
L 559 2303 
Q 559 2553 534 2622 
Q 503 2709 443 2750 
Q 384 2791 234 2806 
L 234 2922 
L 1428 2922 
z
" transform="scale(0.015625)"/>
      <path id="TimesNewRomanPS-BoldMT-67" d="M 2091 2888 
L 3075 2888 
L 3075 2544 
L 2516 2544 
Q 2669 2391 2728 2266 
Q 2803 2097 2803 1913 
Q 2803 1600 2629 1370 
Q 2456 1141 2157 1011 
Q 1859 881 1628 881 
Q 1609 881 1253 897 
Q 1113 897 1017 805 
Q 922 713 922 584 
Q 922 472 1008 400 
Q 1094 328 1288 328 
L 1828 334 
Q 2484 334 2731 191 
Q 3084 -9 3084 -425 
Q 3084 -691 2921 -908 
Q 2759 -1125 2494 -1228 
Q 2091 -1381 1566 -1381 
Q 1172 -1381 847 -1304 
Q 522 -1228 381 -1092 
Q 241 -956 241 -806 
Q 241 -663 348 -548 
Q 456 -434 750 -356 
Q 344 -156 344 200 
Q 344 416 509 619 
Q 675 822 1034 972 
Q 616 1125 428 1375 
Q 241 1625 241 1953 
Q 241 2381 591 2695 
Q 941 3009 1491 3009 
Q 1781 3009 2091 2888 
z
M 1550 2816 
Q 1369 2816 1244 2633 
Q 1119 2450 1119 1875 
Q 1119 1409 1242 1236 
Q 1366 1063 1534 1063 
Q 1722 1063 1847 1234 
Q 1972 1406 1972 1903 
Q 1972 2463 1831 2666 
Q 1731 2816 1550 2816 
z
M 1366 -431 
Q 1047 -431 944 -484 
Q 766 -581 766 -747 
Q 766 -906 950 -1036 
Q 1134 -1166 1644 -1166 
Q 2078 -1166 2326 -1050 
Q 2575 -934 2575 -725 
Q 2575 -647 2528 -594 
Q 2444 -500 2273 -465 
Q 2103 -431 1366 -431 
z
" transform="scale(0.015625)"/>
      <path id="TimesNewRomanPS-BoldMT-63" d="M 2600 753 
L 2697 678 
Q 2491 291 2183 101 
Q 1875 -88 1528 -88 
Q 944 -88 594 353 
Q 244 794 244 1413 
Q 244 2009 563 2463 
Q 947 3009 1622 3009 
Q 2075 3009 2342 2781 
Q 2609 2553 2609 2272 
Q 2609 2094 2501 1987 
Q 2394 1881 2219 1881 
Q 2034 1881 1914 2003 
Q 1794 2125 1766 2438 
Q 1747 2634 1675 2713 
Q 1603 2791 1506 2791 
Q 1356 2791 1250 2631 
Q 1088 2391 1088 1894 
Q 1088 1481 1219 1104 
Q 1350 728 1578 544 
Q 1750 409 1984 409 
Q 2138 409 2275 481 
Q 2413 553 2600 753 
z
" transform="scale(0.015625)"/>
      <path id="TimesNewRomanPS-BoldMT-73" d="M 2063 3003 
L 2109 2006 
L 2003 2006 
Q 1813 2450 1608 2612 
Q 1403 2775 1200 2775 
Q 1072 2775 981 2689 
Q 891 2603 891 2491 
Q 891 2406 953 2328 
Q 1053 2200 1512 1889 
Q 1972 1578 2117 1361 
Q 2263 1144 2263 875 
Q 2263 631 2141 397 
Q 2019 163 1797 37 
Q 1575 -88 1306 -88 
Q 1097 -88 747 44 
Q 653 78 619 78 
Q 516 78 447 -78 
L 344 -78 
L 294 972 
L 400 972 
Q 541 559 786 353 
Q 1031 147 1250 147 
Q 1400 147 1495 239 
Q 1591 331 1591 463 
Q 1591 613 1497 722 
Q 1403 831 1078 1053 
Q 600 1384 459 1559 
Q 253 1816 253 2125 
Q 253 2463 486 2736 
Q 719 3009 1159 3009 
Q 1397 3009 1619 2894 
Q 1703 2847 1756 2847 
Q 1813 2847 1847 2870 
Q 1881 2894 1956 3003 
L 2063 3003 
z
" transform="scale(0.015625)"/>
      <path id="TimesNewRomanPS-BoldMT-75" d="M 3038 2922 
L 3038 634 
Q 3038 300 3100 217 
Q 3163 134 3353 113 
L 3353 0 
L 2163 0 
L 2163 391 
Q 1953 141 1743 26 
Q 1534 -88 1275 -88 
Q 1028 -88 836 64 
Q 644 216 578 419 
Q 513 622 513 1128 
L 513 2288 
Q 513 2619 452 2700 
Q 391 2781 197 2806 
L 197 2922 
L 1388 2922 
L 1388 925 
Q 1388 613 1417 522 
Q 1447 431 1511 384 
Q 1575 338 1659 338 
Q 1772 338 1863 397 
Q 1988 478 2163 725 
L 2163 2288 
Q 2163 2619 2102 2700 
Q 2041 2781 1847 2806 
L 1847 2922 
L 3038 2922 
z
" transform="scale(0.015625)"/>
      <path id="TimesNewRomanPS-BoldMT-6d" d="M 1428 2922 
L 1428 2538 
Q 1669 2800 1873 2904 
Q 2078 3009 2322 3009 
Q 2603 3009 2793 2878 
Q 2984 2747 3088 2478 
Q 3338 2759 3567 2884 
Q 3797 3009 4047 3009 
Q 4350 3009 4529 2870 
Q 4709 2731 4779 2517 
Q 4850 2303 4850 1834 
L 4850 638 
Q 4850 300 4911 219 
Q 4972 138 5166 113 
L 5166 0 
L 3656 0 
L 3656 113 
Q 3834 128 3919 250 
Q 3975 334 3975 638 
L 3975 1894 
Q 3975 2284 3944 2390 
Q 3913 2497 3845 2548 
Q 3778 2600 3688 2600 
Q 3553 2600 3415 2501 
Q 3278 2403 3138 2206 
L 3138 638 
Q 3138 322 3191 241 
Q 3263 125 3466 113 
L 3466 0 
L 1953 0 
L 1953 113 
Q 2075 119 2145 173 
Q 2216 228 2239 304 
Q 2263 381 2263 638 
L 2263 1894 
Q 2263 2291 2231 2391 
Q 2200 2491 2126 2547 
Q 2053 2603 1969 2603 
Q 1844 2603 1741 2538 
Q 1594 2441 1428 2206 
L 1428 638 
Q 1428 328 1489 229 
Q 1550 131 1744 113 
L 1744 0 
L 238 0 
L 238 113 
Q 422 131 500 231 
Q 553 300 553 638 
L 553 2288 
Q 553 2619 492 2700 
Q 431 2781 238 2806 
L 238 2922 
L 1428 2922 
z
" transform="scale(0.015625)"/>
      <path id="TimesNewRomanPS-BoldMT-70" d="M 1347 297 
L 1347 -791 
Q 1347 -1016 1383 -1097 
Q 1419 -1178 1494 -1215 
Q 1569 -1253 1788 -1253 
L 1788 -1369 
L 122 -1369 
L 122 -1253 
Q 316 -1247 409 -1144 
Q 472 -1072 472 -772 
L 472 2313 
Q 472 2622 400 2708 
Q 328 2794 122 2806 
L 122 2922 
L 1347 2922 
L 1347 2538 
Q 1500 2763 1659 2863 
Q 1888 3009 2156 3009 
Q 2478 3009 2742 2806 
Q 3006 2603 3143 2245 
Q 3281 1888 3281 1475 
Q 3281 1031 3139 664 
Q 2997 297 2726 104 
Q 2456 -88 2125 -88 
Q 1884 -88 1675 19 
Q 1519 100 1347 297 
z
M 1347 613 
Q 1616 231 1922 231 
Q 2091 231 2200 409 
Q 2363 672 2363 1409 
Q 2363 2166 2184 2444 
Q 2066 2628 1866 2628 
Q 1550 2628 1347 2172 
L 1347 613 
z
" transform="scale(0.015625)"/>
      <path id="TimesNewRomanPS-BoldMT-28" d="M 2056 4334 
L 2056 4191 
Q 1731 3978 1578 3775 
Q 1366 3494 1247 3053 
Q 1097 2506 1097 1525 
Q 1097 600 1233 87 
Q 1369 -425 1603 -741 
Q 1766 -959 2056 -1125 
L 2056 -1281 
Q 1303 -1028 779 -248 
Q 256 531 256 1544 
Q 256 2544 778 3314 
Q 1300 4084 2056 4334 
z
" transform="scale(0.015625)"/>
      <path id="TimesNewRomanPS-BoldMT-4d" d="M 3050 1444 
L 4200 4238 
L 5925 4238 
L 5925 4122 
L 5788 4122 
Q 5600 4122 5488 4056 
Q 5409 4013 5363 3909 
Q 5328 3834 5328 3519 
L 5328 725 
Q 5328 400 5362 319 
Q 5397 238 5503 177 
Q 5609 116 5788 116 
L 5925 116 
L 5925 0 
L 3713 0 
L 3713 116 
L 3850 116 
Q 4038 116 4150 181 
Q 4228 225 4275 331 
Q 4309 406 4309 725 
L 4309 3866 
L 2684 0 
L 2609 0 
L 959 3838 
L 959 853 
Q 959 541 975 469 
Q 1016 313 1152 214 
Q 1288 116 1578 116 
L 1578 0 
L 128 0 
L 128 116 
L 172 116 
Q 313 113 434 161 
Q 556 209 618 290 
Q 681 372 716 519 
Q 722 553 722 838 
L 722 3519 
Q 722 3841 687 3920 
Q 653 4000 547 4061 
Q 441 4122 263 4122 
L 128 4122 
L 128 4238 
L 1859 4238 
L 3050 1444 
z
" transform="scale(0.015625)"/>
      <path id="TimesNewRomanPS-BoldMT-57" d="M 6344 4238 
L 6344 4122 
Q 6225 4113 6144 4056 
Q 6063 4000 6000 3884 
Q 5981 3847 5803 3400 
L 4475 -97 
L 4353 -97 
L 3303 2634 
L 2147 -97 
L 2031 -97 
L 638 3363 
Q 425 3884 340 3993 
Q 256 4103 56 4122 
L 56 4238 
L 1894 4238 
L 1894 4122 
Q 1672 4116 1598 4055 
Q 1525 3994 1525 3903 
Q 1525 3784 1678 3400 
L 2509 1344 
L 3175 2950 
L 3000 3400 
Q 2856 3769 2778 3892 
Q 2700 4016 2598 4069 
Q 2497 4122 2300 4122 
L 2300 4238 
L 4353 4238 
L 4353 4122 
Q 4138 4119 4044 4088 
Q 3978 4066 3940 4014 
Q 3903 3963 3903 3897 
Q 3903 3825 4044 3456 
L 4816 1450 
L 5506 3266 
Q 5616 3547 5641 3650 
Q 5666 3753 5666 3841 
Q 5666 3969 5578 4042 
Q 5491 4116 5244 4122 
L 5244 4238 
L 6344 4238 
z
" transform="scale(0.015625)"/>
      <path id="TimesNewRomanPS-BoldMT-68" d="M 1409 4238 
L 1409 2547 
Q 1650 2800 1850 2904 
Q 2050 3009 2266 3009 
Q 2541 3009 2736 2853 
Q 2931 2697 2995 2486 
Q 3059 2275 3059 1775 
L 3059 634 
Q 3059 300 3121 217 
Q 3184 134 3375 113 
L 3375 0 
L 1894 0 
L 1894 113 
Q 2050 134 2128 238 
Q 2184 319 2184 634 
L 2184 1938 
Q 2184 2300 2156 2392 
Q 2128 2484 2061 2536 
Q 1994 2588 1909 2588 
Q 1784 2588 1665 2502 
Q 1547 2416 1409 2200 
L 1409 634 
Q 1409 322 1456 244 
Q 1516 138 1700 113 
L 1700 0 
L 219 0 
L 219 113 
Q 403 131 481 231 
Q 534 300 534 634 
L 534 3603 
Q 534 3934 473 4015 
Q 413 4097 219 4122 
L 219 4238 
L 1409 4238 
z
" transform="scale(0.015625)"/>
      <path id="TimesNewRomanPS-BoldMT-29" d="M 78 -1281 
L 78 -1138 
Q 403 -922 556 -719 
Q 766 -438 888 0 
Q 1038 550 1038 1531 
Q 1038 2456 902 2967 
Q 766 3478 531 3794 
Q 369 4013 78 4178 
L 78 4334 
Q 831 4081 1354 3301 
Q 1878 2522 1878 1509 
Q 1878 513 1354 -257 
Q 831 -1028 78 -1281 
z
" transform="scale(0.015625)"/>
     </defs>
     <use xlink:href="#TimesNewRomanPS-BoldMT-44"/>
     <use xlink:href="#TimesNewRomanPS-BoldMT-61" x="72.216797"/>
     <use xlink:href="#TimesNewRomanPS-BoldMT-74" x="122.216797"/>
     <use xlink:href="#TimesNewRomanPS-BoldMT-61" x="155.517578"/>
     <use xlink:href="#TimesNewRomanPS-BoldMT-20" x="205.517578"/>
     <use xlink:href="#TimesNewRomanPS-BoldMT-6f" x="230.517578"/>
     <use xlink:href="#TimesNewRomanPS-BoldMT-6e" x="280.517578"/>
     <use xlink:href="#TimesNewRomanPS-BoldMT-20" x="336.132812"/>
     <use xlink:href="#TimesNewRomanPS-BoldMT-64" x="361.132812"/>
     <use xlink:href="#TimesNewRomanPS-BoldMT-61" x="416.748047"/>
     <use xlink:href="#TimesNewRomanPS-BoldMT-69" x="466.748047"/>
     <use xlink:href="#TimesNewRomanPS-BoldMT-6c" x="494.53125"/>
     <use xlink:href="#TimesNewRomanPS-BoldMT-79" x="522.314453"/>
     <use xlink:href="#TimesNewRomanPS-BoldMT-20" x="572.314453"/>
     <use xlink:href="#TimesNewRomanPS-BoldMT-65" x="597.314453"/>
     <use xlink:href="#TimesNewRomanPS-BoldMT-6e" x="641.699219"/>
     <use xlink:href="#TimesNewRomanPS-BoldMT-65" x="697.314453"/>
     <use xlink:href="#TimesNewRomanPS-BoldMT-72" x="741.699219"/>
     <use xlink:href="#TimesNewRomanPS-BoldMT-67" x="786.083984"/>
     <use xlink:href="#TimesNewRomanPS-BoldMT-79" x="836.083984"/>
     <use xlink:href="#TimesNewRomanPS-BoldMT-20" x="886.083984"/>
     <use xlink:href="#TimesNewRomanPS-BoldMT-63" x="911.083984"/>
     <use xlink:href="#TimesNewRomanPS-BoldMT-6f" x="955.46875"/>
     <use xlink:href="#TimesNewRomanPS-BoldMT-6e" x="1005.46875"/>
     <use xlink:href="#TimesNewRomanPS-BoldMT-73" x="1061.083984"/>
     <use xlink:href="#TimesNewRomanPS-BoldMT-75" x="1100"/>
     <use xlink:href="#TimesNewRomanPS-BoldMT-6d" x="1155.615234"/>
     <use xlink:href="#TimesNewRomanPS-BoldMT-70" x="1238.916016"/>
     <use xlink:href="#TimesNewRomanPS-BoldMT-74" x="1294.53125"/>
     <use xlink:href="#TimesNewRomanPS-BoldMT-69" x="1327.832031"/>
     <use xlink:href="#TimesNewRomanPS-BoldMT-6f" x="1355.615234"/>
     <use xlink:href="#TimesNewRomanPS-BoldMT-6e" x="1405.615234"/>
     <use xlink:href="#TimesNewRomanPS-BoldMT-20" x="1461.230469"/>
     <use xlink:href="#TimesNewRomanPS-BoldMT-61" x="1486.230469"/>
     <use xlink:href="#TimesNewRomanPS-BoldMT-63" x="1536.230469"/>
     <use xlink:href="#TimesNewRomanPS-BoldMT-63" x="1580.615234"/>
     <use xlink:href="#TimesNewRomanPS-BoldMT-72" x="1625"/>
     <use xlink:href="#TimesNewRomanPS-BoldMT-6f" x="1667.634766"/>
     <use xlink:href="#TimesNewRomanPS-BoldMT-73" x="1717.634766"/>
     <use xlink:href="#TimesNewRomanPS-BoldMT-73" x="1756.550781"/>
     <use xlink:href="#TimesNewRomanPS-BoldMT-20" x="1795.466797"/>
     <use xlink:href="#TimesNewRomanPS-BoldMT-63" x="1820.466797"/>
     <use xlink:href="#TimesNewRomanPS-BoldMT-69" x="1864.851562"/>
     <use xlink:href="#TimesNewRomanPS-BoldMT-74" x="1892.634766"/>
     <use xlink:href="#TimesNewRomanPS-BoldMT-69" x="1925.935547"/>
     <use xlink:href="#TimesNewRomanPS-BoldMT-65" x="1953.71875"/>
     <use xlink:href="#TimesNewRomanPS-BoldMT-73" x="1998.103516"/>
     <use xlink:href="#TimesNewRomanPS-BoldMT-20" x="2037.019531"/>
     <use xlink:href="#TimesNewRomanPS-BoldMT-28" x="2062.019531"/>
     <use xlink:href="#TimesNewRomanPS-BoldMT-4d" x="2095.320312"/>
     <use xlink:href="#TimesNewRomanPS-BoldMT-57" x="2189.705078"/>
     <use xlink:href="#TimesNewRomanPS-BoldMT-68" x="2289.705078"/>
     <use xlink:href="#TimesNewRomanPS-BoldMT-29" x="2345.320312"/>
    </g>
   </g>
  </g>
 </g>
 <defs>
  <clipPath id="p74f2dfc8c8">
   <rect x="50.915938" y="30.045" width="376.8" height="231.273486"/>
  </clipPath>
 </defs>
</svg>
