<?xml version="1.0" encoding="utf-8" standalone="no"?>
<!DOCTYPE svg PUBLIC "-//W3C//DTD SVG 1.1//EN"
  "http://www.w3.org/Graphics/SVG/1.1/DTD/svg11.dtd">
<svg xmlns:xlink="http://www.w3.org/1999/xlink" width="454.062187pt" height="319.945563pt" viewBox="0 0 454.062187 319.945563" xmlns="http://www.w3.org/2000/svg" version="1.1">
 <metadata>
  <rdf:RDF xmlns:dc="http://purl.org/dc/elements/1.1/" xmlns:cc="http://creativecommons.org/ns#" xmlns:rdf="http://www.w3.org/1999/02/22-rdf-syntax-ns#">
   <cc:Work>
    <dc:type rdf:resource="http://purl.org/dc/dcmitype/StillImage"/>
    <dc:date>2025-05-26T17:29:41.447613</dc:date>
    <dc:format>image/svg+xml</dc:format>
    <dc:creator>
     <cc:Agent>
      <dc:title>Matplotlib v3.7.2, https://matplotlib.org/</dc:title>
     </cc:Agent>
    </dc:creator>
   </cc:Work>
  </rdf:RDF>
 </metadata>
 <defs>
  <style type="text/css">*{stroke-linejoin: round; stroke-linecap: butt}</style>
 </defs>
 <g id="figure_1">
  <g id="patch_1">
   <path d="M 0 319.945563 
L 454.062187 319.945563 
L 454.062187 0 
L 0 0 
z
" style="fill: #ffffff"/>
  </g>
  <g id="axes_1">
   <g id="patch_2">
    <path d="M 50.915938 234.653489 
L 427.715937 234.653489 
L 427.715937 30.045 
L 50.915938 30.045 
z
" style="fill: #ffffff"/>
   </g>
   <g id="PolyCollection_1">
    <defs>
     <path id="m3069630021" d="M 101.252418 -104.96061 
L 94.779457 -104.96061 
L 94.436323 -106.142326 
L 94.067907 -107.324042 
L 93.671796 -108.505758 
L 93.245592 -109.687474 
L 92.787145 -110.86919 
L 92.294793 -112.050906 
L 91.76761 -113.232622 
L 91.205622 -114.414338 
L 90.609973 -115.596054 
L 89.983024 -116.77777 
L 89.328364 -117.959486 
L 88.650721 -119.141202 
L 87.955772 -120.322918 
L 87.24986 -121.504634 
L 86.539625 -122.68635 
L 85.831579 -123.868066 
L 85.131646 -125.049781 
L 84.444708 -126.231497 
L 83.774184 -127.413213 
L 83.121695 -128.594929 
L 82.486832 -129.776645 
L 81.867072 -130.958361 
L 81.25784 -132.140077 
L 80.652744 -133.321793 
L 80.043963 -134.503509 
L 79.422773 -135.685225 
L 78.780165 -136.866941 
L 78.107529 -138.048657 
L 77.397333 -139.230373 
L 76.643764 -140.412089 
L 75.843254 -141.593805 
L 74.994874 -142.775521 
L 74.10055 -143.957237 
L 73.165087 -145.138953 
L 72.196001 -146.320669 
L 71.203172 -147.502385 
L 70.198351 -148.6841 
L 69.194548 -149.865816 
L 68.205359 -151.047532 
L 67.244281 -152.229248 
L 66.324044 -153.410964 
L 65.456032 -154.59268 
L 64.649799 -155.774396 
L 63.912729 -156.956112 
L 63.249838 -158.137828 
L 62.663724 -159.319544 
L 62.15466 -160.50126 
L 61.720818 -161.682976 
L 61.358579 -162.864692 
L 61.062925 -164.046408 
L 60.82787 -165.228124 
L 60.64689 -166.40984 
L 60.513348 -167.591556 
L 60.420865 -168.773272 
L 60.363636 -169.954988 
L 60.336668 -171.136703 
L 60.335938 -172.318419 
L 60.358468 -173.500135 
L 60.402328 -174.681851 
L 60.466563 -175.863567 
L 60.551069 -177.045283 
L 60.656431 -178.226999 
L 60.783738 -179.408715 
L 60.934403 -180.590431 
L 61.109994 -181.772147 
L 61.312119 -182.953863 
L 61.542343 -184.135579 
L 61.80218 -185.317295 
L 62.093134 -186.499011 
L 62.416802 -187.680727 
L 62.775003 -188.862443 
L 63.169917 -190.044159 
L 63.604213 -191.225875 
L 64.081121 -192.407591 
L 64.604428 -193.589306 
L 65.178382 -194.771022 
L 65.80749 -195.952738 
L 66.496215 -197.134454 
L 67.248597 -198.31617 
L 68.06783 -199.497886 
L 68.955831 -200.679602 
L 69.91286 -201.861318 
L 70.937223 -203.043034 
L 72.02511 -204.22475 
L 73.170579 -205.406466 
L 74.365705 -206.588182 
L 75.600878 -207.769898 
L 76.86522 -208.951614 
L 78.147088 -210.13333 
L 79.434616 -211.315046 
L 80.716227 -212.496762 
L 81.981095 -213.678478 
L 83.219501 -214.860194 
L 84.423072 -216.04191 
L 85.58489 -217.223625 
L 86.699484 -218.405341 
L 87.762722 -219.587057 
L 88.771641 -220.768773 
L 89.724231 -221.950489 
L 106.307644 -221.950489 
L 106.307644 -221.950489 
L 107.260234 -220.768773 
L 108.269153 -219.587057 
L 109.332391 -218.405341 
L 110.446985 -217.223625 
L 111.608803 -216.04191 
L 112.812374 -214.860194 
L 114.05078 -213.678478 
L 115.315648 -212.496762 
L 116.597259 -211.315046 
L 117.884787 -210.13333 
L 119.166655 -208.951614 
L 120.430997 -207.769898 
L 121.66617 -206.588182 
L 122.861296 -205.406466 
L 124.006765 -204.22475 
L 125.094652 -203.043034 
L 126.119015 -201.861318 
L 127.076044 -200.679602 
L 127.964045 -199.497886 
L 128.783278 -198.31617 
L 129.53566 -197.134454 
L 130.224385 -195.952738 
L 130.853493 -194.771022 
L 131.427447 -193.589306 
L 131.950754 -192.407591 
L 132.427662 -191.225875 
L 132.861958 -190.044159 
L 133.256872 -188.862443 
L 133.615073 -187.680727 
L 133.938741 -186.499011 
L 134.229695 -185.317295 
L 134.489532 -184.135579 
L 134.719756 -182.953863 
L 134.921881 -181.772147 
L 135.097472 -180.590431 
L 135.248137 -179.408715 
L 135.375444 -178.226999 
L 135.480806 -177.045283 
L 135.565312 -175.863567 
L 135.629547 -174.681851 
L 135.673407 -173.500135 
L 135.695937 -172.318419 
L 135.695207 -171.136703 
L 135.668239 -169.954988 
L 135.61101 -168.773272 
L 135.518527 -167.591556 
L 135.384985 -166.40984 
L 135.204005 -165.228124 
L 134.96895 -164.046408 
L 134.673296 -162.864692 
L 134.311057 -161.682976 
L 133.877215 -160.50126 
L 133.368151 -159.319544 
L 132.782037 -158.137828 
L 132.119146 -156.956112 
L 131.382076 -155.774396 
L 130.575843 -154.59268 
L 129.707831 -153.410964 
L 128.787594 -152.229248 
L 127.826516 -151.047532 
L 126.837327 -149.865816 
L 125.833524 -148.6841 
L 124.828703 -147.502385 
L 123.835874 -146.320669 
L 122.866788 -145.138953 
L 121.931325 -143.957237 
L 121.037001 -142.775521 
L 120.188621 -141.593805 
L 119.388111 -140.412089 
L 118.634542 -139.230373 
L 117.924346 -138.048657 
L 117.25171 -136.866941 
L 116.609102 -135.685225 
L 115.987912 -134.503509 
L 115.379131 -133.321793 
L 114.774035 -132.140077 
L 114.164803 -130.958361 
L 113.545043 -129.776645 
L 112.91018 -128.594929 
L 112.257691 -127.413213 
L 111.587167 -126.231497 
L 110.900229 -125.049781 
L 110.200296 -123.868066 
L 109.49225 -122.68635 
L 108.782015 -121.504634 
L 108.076103 -120.322918 
L 107.381154 -119.141202 
L 106.703511 -117.959486 
L 106.048851 -116.77777 
L 105.421902 -115.596054 
L 104.826253 -114.414338 
L 104.264265 -113.232622 
L 103.737082 -112.050906 
L 103.24473 -110.86919 
L 102.786283 -109.687474 
L 102.360079 -108.505758 
L 101.963968 -107.324042 
L 101.595552 -106.142326 
L 101.252418 -104.96061 
z
" style="stroke: #000000; stroke-opacity: 0.7"/>
    </defs>
    <g clip-path="url(#p7bbb25916a)">
     <use xlink:href="#m3069630021" x="0" y="319.945563" style="fill: #17becf; fill-opacity: 0.7; stroke: #000000; stroke-opacity: 0.7"/>
    </g>
   </g>
   <g id="PolyCollection_2">
    <defs>
     <path id="m2079ac64f1" d="M 198.001738 -114.709767 
L 186.430137 -114.709767 
L 185.7657 -116.385428 
L 185.077657 -118.061088 
L 184.368877 -119.736749 
L 183.641663 -121.41241 
L 182.897732 -123.08807 
L 182.138271 -124.763731 
L 181.364068 -126.439392 
L 180.575691 -128.115053 
L 179.773705 -129.790713 
L 178.958903 -131.466374 
L 178.132535 -133.142035 
L 177.296499 -134.817695 
L 176.453499 -136.493356 
L 175.60713 -138.169017 
L 174.761874 -139.844678 
L 173.923006 -141.520338 
L 173.09637 -143.195999 
L 172.28804 -144.87166 
L 171.503856 -146.54732 
L 170.748858 -148.222981 
L 170.026656 -149.898642 
L 169.338799 -151.574303 
L 168.684203 -153.249963 
L 168.058748 -154.925624 
L 167.45511 -156.601285 
L 166.862925 -158.276945 
L 166.269316 -159.952606 
L 165.659827 -161.628267 
L 165.0197 -163.303928 
L 164.335429 -164.979588 
L 163.596452 -166.655249 
L 162.796813 -168.33091 
L 161.936596 -170.00657 
L 161.022947 -171.682231 
L 160.070538 -173.357892 
L 159.101339 -175.033552 
L 158.143696 -176.709213 
L 157.230725 -178.384874 
L 156.39816 -180.060535 
L 155.681844 -181.736195 
L 155.115082 -183.411856 
L 154.726111 -185.087517 
L 154.535938 -186.763177 
L 154.55673 -188.438838 
L 154.790923 -190.114499 
L 155.231091 -191.79016 
L 155.860611 -193.46582 
L 156.655001 -195.141481 
L 157.583831 -196.817142 
L 158.612997 -198.492802 
L 159.707173 -200.168463 
L 160.832209 -201.844124 
L 161.957309 -203.519785 
L 163.056802 -205.195445 
L 164.111401 -206.871106 
L 165.108879 -208.546767 
L 166.044145 -210.222427 
L 166.918757 -211.898088 
L 167.73996 -213.573749 
L 168.519352 -215.24941 
L 169.271326 -216.92507 
L 170.011443 -218.600731 
L 170.754851 -220.276392 
L 171.514912 -221.952052 
L 172.302102 -223.627713 
L 173.123271 -225.303374 
L 173.981282 -226.979035 
L 174.875027 -228.654695 
L 175.799778 -230.330356 
L 176.747813 -232.006017 
L 177.709242 -233.681677 
L 178.672931 -235.357338 
L 179.627436 -237.032999 
L 180.561866 -238.708659 
L 181.466597 -240.38432 
L 182.333778 -242.059981 
L 183.157624 -243.735642 
L 183.934461 -245.411302 
L 184.662573 -247.086963 
L 185.341877 -248.762624 
L 185.973493 -250.438284 
L 186.559273 -252.113945 
L 187.101359 -253.789606 
L 187.601812 -255.465267 
L 188.062371 -257.140927 
L 188.484346 -258.816588 
L 188.868646 -260.492249 
L 189.21592 -262.167909 
L 189.526782 -263.84357 
L 189.802053 -265.519231 
L 190.042999 -267.194892 
L 190.251501 -268.870552 
L 190.430145 -270.546213 
L 190.582206 -272.221874 
L 190.711531 -273.897534 
L 190.82234 -275.573195 
L 190.918968 -277.248856 
L 191.005589 -278.924517 
L 191.085949 -280.600177 
L 193.345926 -280.600177 
L 193.345926 -280.600177 
L 193.426286 -278.924517 
L 193.512907 -277.248856 
L 193.609535 -275.573195 
L 193.720344 -273.897534 
L 193.849669 -272.221874 
L 194.00173 -270.546213 
L 194.180374 -268.870552 
L 194.388876 -267.194892 
L 194.629822 -265.519231 
L 194.905093 -263.84357 
L 195.215955 -262.167909 
L 195.563229 -260.492249 
L 195.947529 -258.816588 
L 196.369504 -257.140927 
L 196.830063 -255.465267 
L 197.330516 -253.789606 
L 197.872602 -252.113945 
L 198.458382 -250.438284 
L 199.089998 -248.762624 
L 199.769302 -247.086963 
L 200.497414 -245.411302 
L 201.274251 -243.735642 
L 202.098097 -242.059981 
L 202.965278 -240.38432 
L 203.870009 -238.708659 
L 204.804439 -237.032999 
L 205.758944 -235.357338 
L 206.722633 -233.681677 
L 207.684062 -232.006017 
L 208.632097 -230.330356 
L 209.556848 -228.654695 
L 210.450593 -226.979035 
L 211.308604 -225.303374 
L 212.129773 -223.627713 
L 212.916963 -221.952052 
L 213.677024 -220.276392 
L 214.420432 -218.600731 
L 215.160549 -216.92507 
L 215.912523 -215.24941 
L 216.691915 -213.573749 
L 217.513118 -211.898088 
L 218.38773 -210.222427 
L 219.322996 -208.546767 
L 220.320474 -206.871106 
L 221.375073 -205.195445 
L 222.474566 -203.519785 
L 223.599666 -201.844124 
L 224.724702 -200.168463 
L 225.818878 -198.492802 
L 226.848044 -196.817142 
L 227.776874 -195.141481 
L 228.571264 -193.46582 
L 229.200784 -191.79016 
L 229.640952 -190.114499 
L 229.875145 -188.438838 
L 229.895937 -186.763177 
L 229.705764 -185.087517 
L 229.316793 -183.411856 
L 228.750031 -181.736195 
L 228.033715 -180.060535 
L 227.20115 -178.384874 
L 226.288179 -176.709213 
L 225.330536 -175.033552 
L 224.361337 -173.357892 
L 223.408928 -171.682231 
L 222.495279 -170.00657 
L 221.635062 -168.33091 
L 220.835423 -166.655249 
L 220.096446 -164.979588 
L 219.412175 -163.303928 
L 218.772048 -161.628267 
L 218.162559 -159.952606 
L 217.56895 -158.276945 
L 216.976765 -156.601285 
L 216.373127 -154.925624 
L 215.747672 -153.249963 
L 215.093076 -151.574303 
L 214.405219 -149.898642 
L 213.683017 -148.222981 
L 212.928019 -146.54732 
L 212.143835 -144.87166 
L 211.335505 -143.195999 
L 210.508869 -141.520338 
L 209.670001 -139.844678 
L 208.824745 -138.169017 
L 207.978376 -136.493356 
L 207.135376 -134.817695 
L 206.29934 -133.142035 
L 205.472972 -131.466374 
L 204.65817 -129.790713 
L 203.856184 -128.115053 
L 203.067807 -126.439392 
L 202.293604 -124.763731 
L 201.534143 -123.08807 
L 200.790212 -121.41241 
L 200.062998 -119.736749 
L 199.354218 -118.061088 
L 198.666175 -116.385428 
L 198.001738 -114.709767 
z
" style="stroke: #000000; stroke-opacity: 0.7"/>
    </defs>
    <g clip-path="url(#p7bbb25916a)">
     <use xlink:href="#m2079ac64f1" x="0" y="319.945563" style="fill: #e377c2; fill-opacity: 0.7; stroke: #000000; stroke-opacity: 0.7"/>
    </g>
   </g>
   <g id="PolyCollection_3">
    <defs>
     <path id="m498fa7bd67" d="M 288.10438 -94.59246 
L 284.727495 -94.59246 
L 284.532039 -95.858584 
L 284.313425 -97.124708 
L 284.067694 -98.390832 
L 283.79092 -99.656957 
L 283.479424 -100.923081 
L 283.12994 -102.189205 
L 282.7397 -103.455329 
L 282.306426 -104.721454 
L 281.828226 -105.987578 
L 281.303418 -107.253702 
L 280.730308 -108.519826 
L 280.106982 -109.78595 
L 279.431167 -111.052075 
L 278.7002 -112.318199 
L 277.911176 -113.584323 
L 277.061254 -114.850447 
L 276.148147 -116.116572 
L 275.17074 -117.382696 
L 274.129773 -118.64882 
L 273.028504 -119.914944 
L 271.873249 -121.181069 
L 270.673715 -122.447193 
L 269.443015 -123.713317 
L 268.197339 -124.979441 
L 266.955242 -126.245565 
L 265.73658 -127.51169 
L 264.561169 -128.777814 
L 263.447276 -130.043938 
L 262.410091 -131.310062 
L 261.460353 -132.576187 
L 260.603277 -133.842311 
L 259.837952 -135.108435 
L 259.157282 -136.374559 
L 258.548548 -137.640684 
L 257.994539 -138.906808 
L 257.47519 -140.172932 
L 256.96954 -141.439056 
L 256.457842 -142.70518 
L 255.923572 -143.971305 
L 255.355145 -145.237429 
L 254.747121 -146.503553 
L 254.100782 -147.769677 
L 253.424024 -149.035802 
L 252.730563 -150.301926 
L 252.038562 -151.56805 
L 251.368835 -152.834174 
L 250.742828 -154.100299 
L 250.1806 -155.366423 
L 249.699012 -156.632547 
L 249.310319 -157.898671 
L 249.021288 -159.164795 
L 248.832921 -160.43092 
L 248.740793 -161.697044 
L 248.735938 -162.963168 
L 248.806186 -164.229292 
L 248.937798 -165.495417 
L 249.117214 -166.761541 
L 249.332738 -168.027665 
L 249.575996 -169.293789 
L 249.842997 -170.559914 
L 250.134715 -171.826038 
L 250.45711 -173.092162 
L 250.820599 -174.358286 
L 251.239019 -175.62441 
L 251.72818 -176.890535 
L 252.304161 -178.156659 
L 252.981508 -179.422783 
L 253.771524 -180.688907 
L 254.680816 -181.955032 
L 255.710249 -183.221156 
L 256.854417 -184.48728 
L 258.101665 -185.753404 
L 259.434673 -187.019529 
L 260.831524 -188.285653 
L 262.267148 -189.551777 
L 263.715001 -190.817901 
L 265.14881 -192.084025 
L 266.544223 -193.35015 
L 267.880226 -194.616274 
L 269.140213 -195.882398 
L 270.312641 -197.148522 
L 271.391247 -198.414647 
L 272.374849 -199.680771 
L 273.266788 -200.946895 
L 274.074096 -202.213019 
L 274.806498 -203.479144 
L 275.475347 -204.745268 
L 276.0926 -206.011392 
L 276.669905 -207.277516 
L 277.217879 -208.54364 
L 277.745574 -209.809765 
L 278.260181 -211.075889 
L 278.76691 -212.342013 
L 279.269049 -213.608137 
L 279.768136 -214.874262 
L 280.264212 -216.140386 
L 280.756105 -217.40651 
L 281.241724 -218.672634 
L 281.718326 -219.938759 
L 291.113549 -219.938759 
L 291.113549 -219.938759 
L 291.590151 -218.672634 
L 292.07577 -217.40651 
L 292.567663 -216.140386 
L 293.063739 -214.874262 
L 293.562826 -213.608137 
L 294.064965 -212.342013 
L 294.571694 -211.075889 
L 295.086301 -209.809765 
L 295.613996 -208.54364 
L 296.16197 -207.277516 
L 296.739275 -206.011392 
L 297.356528 -204.745268 
L 298.025377 -203.479144 
L 298.757779 -202.213019 
L 299.565087 -200.946895 
L 300.457026 -199.680771 
L 301.440628 -198.414647 
L 302.519234 -197.148522 
L 303.691662 -195.882398 
L 304.951649 -194.616274 
L 306.287652 -193.35015 
L 307.683065 -192.084025 
L 309.116874 -190.817901 
L 310.564727 -189.551777 
L 312.000351 -188.285653 
L 313.397202 -187.019529 
L 314.73021 -185.753404 
L 315.977458 -184.48728 
L 317.121626 -183.221156 
L 318.151059 -181.955032 
L 319.060351 -180.688907 
L 319.850367 -179.422783 
L 320.527714 -178.156659 
L 321.103695 -176.890535 
L 321.592856 -175.62441 
L 322.011276 -174.358286 
L 322.374765 -173.092162 
L 322.69716 -171.826038 
L 322.988878 -170.559914 
L 323.255879 -169.293789 
L 323.499137 -168.027665 
L 323.714661 -166.761541 
L 323.894077 -165.495417 
L 324.025689 -164.229292 
L 324.095937 -162.963168 
L 324.091082 -161.697044 
L 323.998954 -160.43092 
L 323.810587 -159.164795 
L 323.521556 -157.898671 
L 323.132863 -156.632547 
L 322.651275 -155.366423 
L 322.089047 -154.100299 
L 321.46304 -152.834174 
L 320.793313 -151.56805 
L 320.101312 -150.301926 
L 319.407851 -149.035802 
L 318.731093 -147.769677 
L 318.084754 -146.503553 
L 317.47673 -145.237429 
L 316.908303 -143.971305 
L 316.374033 -142.70518 
L 315.862335 -141.439056 
L 315.356685 -140.172932 
L 314.837336 -138.906808 
L 314.283327 -137.640684 
L 313.674593 -136.374559 
L 312.993923 -135.108435 
L 312.228598 -133.842311 
L 311.371522 -132.576187 
L 310.421784 -131.310062 
L 309.384599 -130.043938 
L 308.270706 -128.777814 
L 307.095295 -127.51169 
L 305.876633 -126.245565 
L 304.634536 -124.979441 
L 303.38886 -123.713317 
L 302.15816 -122.447193 
L 300.958626 -121.181069 
L 299.803371 -119.914944 
L 298.702102 -118.64882 
L 297.661135 -117.382696 
L 296.683728 -116.116572 
L 295.770621 -114.850447 
L 294.920699 -113.584323 
L 294.131675 -112.318199 
L 293.400708 -111.052075 
L 292.724893 -109.78595 
L 292.101567 -108.519826 
L 291.528457 -107.253702 
L 291.003649 -105.987578 
L 290.525449 -104.721454 
L 290.092175 -103.455329 
L 289.701935 -102.189205 
L 289.352451 -100.923081 
L 289.040955 -99.656957 
L 288.764181 -98.390832 
L 288.51845 -97.124708 
L 288.299836 -95.858584 
L 288.10438 -94.59246 
z
" style="stroke: #000000; stroke-opacity: 0.7"/>
    </defs>
    <g clip-path="url(#p7bbb25916a)">
     <use xlink:href="#m498fa7bd67" x="0" y="319.945563" style="fill: #a6d854; fill-opacity: 0.7; stroke: #000000; stroke-opacity: 0.7"/>
    </g>
   </g>
   <g id="PolyCollection_4">
    <defs>
     <path id="mf77928fd02" d="M 384.758057 -111.3053 
L 376.473818 -111.3053 
L 375.889346 -112.2885 
L 375.252571 -113.2717 
L 374.564712 -114.2549 
L 373.828451 -115.2381 
L 373.04808 -116.2213 
L 372.229578 -117.204501 
L 371.380591 -118.187701 
L 370.51031 -119.170901 
L 369.629231 -120.154101 
L 368.748793 -121.137301 
L 367.880907 -122.120501 
L 367.0374 -123.103702 
L 366.229391 -124.086902 
L 365.466648 -125.070102 
L 364.756963 -126.053302 
L 364.105589 -127.036502 
L 363.514789 -128.019703 
L 362.983531 -129.002903 
L 362.507349 -129.986103 
L 362.078409 -130.969303 
L 361.685765 -131.952503 
L 361.315808 -132.935703 
L 360.952882 -133.918904 
L 360.580043 -134.902104 
L 360.179914 -135.885304 
L 359.735599 -136.868504 
L 359.231604 -137.851704 
L 358.654726 -138.834904 
L 357.994857 -139.818105 
L 357.245667 -140.801305 
L 356.405135 -141.784505 
L 355.475889 -142.767705 
L 354.465342 -143.750905 
L 353.385603 -144.734105 
L 352.253166 -145.717306 
L 351.088364 -146.700506 
L 349.914628 -147.683706 
L 348.757547 -148.666906 
L 347.643796 -149.650106 
L 346.59996 -150.633307 
L 345.651313 -151.616507 
L 344.820629 -152.599707 
L 344.127089 -153.582907 
L 343.58533 -154.566107 
L 343.204738 -155.549307 
L 342.988995 -156.532508 
L 342.935937 -157.515708 
L 343.037736 -158.498908 
L 343.281394 -159.482108 
L 343.649527 -160.465308 
L 344.121393 -161.448508 
L 344.674091 -162.431709 
L 345.283858 -163.414909 
L 345.927389 -164.398109 
L 346.583076 -165.381309 
L 347.232108 -166.364509 
L 347.859354 -167.347709 
L 348.453986 -168.33091 
L 349.009804 -169.31411 
L 349.525264 -170.29731 
L 350.003216 -171.28051 
L 350.450376 -172.26371 
L 350.87659 -173.246911 
L 351.293938 -174.230111 
L 351.715747 -175.213311 
L 352.155581 -176.196511 
L 352.626274 -177.179711 
L 353.139056 -178.162911 
L 353.702839 -179.146112 
L 354.323686 -180.129312 
L 355.004487 -181.112512 
L 355.744856 -182.095712 
L 356.541237 -183.078912 
L 357.387202 -184.062112 
L 358.273909 -185.045313 
L 359.190677 -186.028513 
L 360.125642 -187.011713 
L 361.066443 -187.994913 
L 362.000899 -188.978113 
L 362.917631 -189.961313 
L 363.806609 -190.944514 
L 364.659586 -191.927714 
L 365.470409 -192.910914 
L 366.235205 -193.894114 
L 366.952424 -194.877314 
L 367.622755 -195.860515 
L 368.24893 -196.843715 
L 368.835419 -197.826915 
L 369.388044 -198.810115 
L 369.913531 -199.793315 
L 370.419038 -200.776515 
L 370.911664 -201.759716 
L 371.397988 -202.742916 
L 371.883662 -203.726116 
L 372.373074 -204.709316 
L 372.869107 -205.692516 
L 373.373012 -206.675716 
L 373.884393 -207.658917 
L 374.401302 -208.642117 
L 386.830573 -208.642117 
L 386.830573 -208.642117 
L 387.347482 -207.658917 
L 387.858863 -206.675716 
L 388.362768 -205.692516 
L 388.858801 -204.709316 
L 389.348213 -203.726116 
L 389.833887 -202.742916 
L 390.320211 -201.759716 
L 390.812837 -200.776515 
L 391.318344 -199.793315 
L 391.843831 -198.810115 
L 392.396456 -197.826915 
L 392.982945 -196.843715 
L 393.60912 -195.860515 
L 394.279451 -194.877314 
L 394.99667 -193.894114 
L 395.761466 -192.910914 
L 396.572289 -191.927714 
L 397.425266 -190.944514 
L 398.314244 -189.961313 
L 399.230976 -188.978113 
L 400.165432 -187.994913 
L 401.106233 -187.011713 
L 402.041198 -186.028513 
L 402.957966 -185.045313 
L 403.844673 -184.062112 
L 404.690638 -183.078912 
L 405.487019 -182.095712 
L 406.227388 -181.112512 
L 406.908189 -180.129312 
L 407.529036 -179.146112 
L 408.092819 -178.162911 
L 408.605601 -177.179711 
L 409.076294 -176.196511 
L 409.516128 -175.213311 
L 409.937937 -174.230111 
L 410.355285 -173.246911 
L 410.781499 -172.26371 
L 411.228659 -171.28051 
L 411.706611 -170.29731 
L 412.222071 -169.31411 
L 412.777889 -168.33091 
L 413.372521 -167.347709 
L 413.999767 -166.364509 
L 414.648799 -165.381309 
L 415.304486 -164.398109 
L 415.948017 -163.414909 
L 416.557784 -162.431709 
L 417.110482 -161.448508 
L 417.582348 -160.465308 
L 417.950481 -159.482108 
L 418.194139 -158.498908 
L 418.295937 -157.515708 
L 418.24288 -156.532508 
L 418.027137 -155.549307 
L 417.646545 -154.566107 
L 417.104786 -153.582907 
L 416.411246 -152.599707 
L 415.580562 -151.616507 
L 414.631915 -150.633307 
L 413.588079 -149.650106 
L 412.474328 -148.666906 
L 411.317247 -147.683706 
L 410.143511 -146.700506 
L 408.978709 -145.717306 
L 407.846272 -144.734105 
L 406.766533 -143.750905 
L 405.755986 -142.767705 
L 404.82674 -141.784505 
L 403.986208 -140.801305 
L 403.237018 -139.818105 
L 402.577149 -138.834904 
L 402.000271 -137.851704 
L 401.496276 -136.868504 
L 401.051961 -135.885304 
L 400.651832 -134.902104 
L 400.278993 -133.918904 
L 399.916067 -132.935703 
L 399.54611 -131.952503 
L 399.153466 -130.969303 
L 398.724526 -129.986103 
L 398.248344 -129.002903 
L 397.717086 -128.019703 
L 397.126286 -127.036502 
L 396.474912 -126.053302 
L 395.765227 -125.070102 
L 395.002484 -124.086902 
L 394.194475 -123.103702 
L 393.350968 -122.120501 
L 392.483082 -121.137301 
L 391.602644 -120.154101 
L 390.721565 -119.170901 
L 389.851284 -118.187701 
L 389.002297 -117.204501 
L 388.183795 -116.2213 
L 387.403424 -115.2381 
L 386.667163 -114.2549 
L 385.979304 -113.2717 
L 385.342529 -112.2885 
L 384.758057 -111.3053 
z
" style="stroke: #000000; stroke-opacity: 0.7"/>
    </defs>
    <g clip-path="url(#p7bbb25916a)">
     <use xlink:href="#mf77928fd02" x="0" y="319.945563" style="fill: #9467bd; fill-opacity: 0.7; stroke: #000000; stroke-opacity: 0.7"/>
    </g>
   </g>
   <g id="matplotlib.axis_1">
    <g id="xtick_1">
     <g id="line2d_1">
      <defs>
       <path id="m5764406530" d="M 0 0 
L 0 3.5 
" style="stroke: #000000; stroke-width: 0.8"/>
      </defs>
      <g>
       <use xlink:href="#m5764406530" x="98.015938" y="234.653489" style="stroke: #000000; stroke-width: 0.8"/>
      </g>
     </g>
     <g id="text_1">
      <!-- Italian Restaurants -->
      <g transform="translate(32.815831 310.930508) rotate(-45) scale(0.12 -0.12)">
       <defs>
        <path id="TimesNewRomanPSMT-49" d="M 1975 116 
L 1975 0 
L 159 0 
L 159 116 
L 309 116 
Q 572 116 691 269 
Q 766 369 766 750 
L 766 3488 
Q 766 3809 725 3913 
Q 694 3991 597 4047 
Q 459 4122 309 4122 
L 159 4122 
L 159 4238 
L 1975 4238 
L 1975 4122 
L 1822 4122 
Q 1563 4122 1444 3969 
Q 1366 3869 1366 3488 
L 1366 750 
Q 1366 428 1406 325 
Q 1438 247 1538 191 
Q 1672 116 1822 116 
L 1975 116 
z
" transform="scale(0.015625)"/>
        <path id="TimesNewRomanPSMT-74" d="M 1031 3803 
L 1031 2863 
L 1700 2863 
L 1700 2644 
L 1031 2644 
L 1031 788 
Q 1031 509 1111 412 
Q 1191 316 1316 316 
Q 1419 316 1516 380 
Q 1613 444 1666 569 
L 1788 569 
Q 1678 263 1478 108 
Q 1278 -47 1066 -47 
Q 922 -47 784 33 
Q 647 113 581 261 
Q 516 409 516 719 
L 516 2644 
L 63 2644 
L 63 2747 
Q 234 2816 414 2980 
Q 594 3144 734 3369 
Q 806 3488 934 3803 
L 1031 3803 
z
" transform="scale(0.015625)"/>
        <path id="TimesNewRomanPSMT-61" d="M 1822 413 
Q 1381 72 1269 19 
Q 1100 -59 909 -59 
Q 613 -59 420 144 
Q 228 347 228 678 
Q 228 888 322 1041 
Q 450 1253 767 1440 
Q 1084 1628 1822 1897 
L 1822 2009 
Q 1822 2438 1686 2597 
Q 1550 2756 1291 2756 
Q 1094 2756 978 2650 
Q 859 2544 859 2406 
L 866 2225 
Q 866 2081 792 2003 
Q 719 1925 600 1925 
Q 484 1925 411 2006 
Q 338 2088 338 2228 
Q 338 2497 613 2722 
Q 888 2947 1384 2947 
Q 1766 2947 2009 2819 
Q 2194 2722 2281 2516 
Q 2338 2381 2338 1966 
L 2338 994 
Q 2338 584 2353 492 
Q 2369 400 2405 369 
Q 2441 338 2488 338 
Q 2538 338 2575 359 
Q 2641 400 2828 588 
L 2828 413 
Q 2478 -56 2159 -56 
Q 2006 -56 1915 50 
Q 1825 156 1822 413 
z
M 1822 616 
L 1822 1706 
Q 1350 1519 1213 1441 
Q 966 1303 859 1153 
Q 753 1003 753 825 
Q 753 600 887 451 
Q 1022 303 1197 303 
Q 1434 303 1822 616 
z
" transform="scale(0.015625)"/>
        <path id="TimesNewRomanPSMT-6c" d="M 1184 4444 
L 1184 647 
Q 1184 378 1223 290 
Q 1263 203 1344 158 
Q 1425 113 1647 113 
L 1647 0 
L 244 0 
L 244 113 
Q 441 113 512 153 
Q 584 194 625 287 
Q 666 381 666 647 
L 666 3247 
Q 666 3731 644 3842 
Q 622 3953 573 3993 
Q 525 4034 450 4034 
Q 369 4034 244 3984 
L 191 4094 
L 1044 4444 
L 1184 4444 
z
" transform="scale(0.015625)"/>
        <path id="TimesNewRomanPSMT-69" d="M 928 4444 
Q 1059 4444 1151 4351 
Q 1244 4259 1244 4128 
Q 1244 3997 1151 3903 
Q 1059 3809 928 3809 
Q 797 3809 703 3903 
Q 609 3997 609 4128 
Q 609 4259 701 4351 
Q 794 4444 928 4444 
z
M 1188 2947 
L 1188 647 
Q 1188 378 1227 289 
Q 1266 200 1342 156 
Q 1419 113 1622 113 
L 1622 0 
L 231 0 
L 231 113 
Q 441 113 512 153 
Q 584 194 626 287 
Q 669 381 669 647 
L 669 1750 
Q 669 2216 641 2353 
Q 619 2453 572 2492 
Q 525 2531 444 2531 
Q 356 2531 231 2484 
L 188 2597 
L 1050 2947 
L 1188 2947 
z
" transform="scale(0.015625)"/>
        <path id="TimesNewRomanPSMT-6e" d="M 1034 2341 
Q 1538 2947 1994 2947 
Q 2228 2947 2397 2830 
Q 2566 2713 2666 2444 
Q 2734 2256 2734 1869 
L 2734 647 
Q 2734 375 2778 278 
Q 2813 200 2889 156 
Q 2966 113 3172 113 
L 3172 0 
L 1756 0 
L 1756 113 
L 1816 113 
Q 2016 113 2095 173 
Q 2175 234 2206 353 
Q 2219 400 2219 647 
L 2219 1819 
Q 2219 2209 2117 2386 
Q 2016 2563 1775 2563 
Q 1403 2563 1034 2156 
L 1034 647 
Q 1034 356 1069 288 
Q 1113 197 1189 155 
Q 1266 113 1500 113 
L 1500 0 
L 84 0 
L 84 113 
L 147 113 
Q 366 113 442 223 
Q 519 334 519 647 
L 519 1709 
Q 519 2225 495 2337 
Q 472 2450 423 2490 
Q 375 2531 294 2531 
Q 206 2531 84 2484 
L 38 2597 
L 900 2947 
L 1034 2947 
L 1034 2341 
z
" transform="scale(0.015625)"/>
        <path id="TimesNewRomanPSMT-20" transform="scale(0.015625)"/>
        <path id="TimesNewRomanPSMT-52" d="M 4325 0 
L 3194 0 
L 1759 1981 
Q 1600 1975 1500 1975 
Q 1459 1975 1412 1976 
Q 1366 1978 1316 1981 
L 1316 750 
Q 1316 350 1403 253 
Q 1522 116 1759 116 
L 1925 116 
L 1925 0 
L 109 0 
L 109 116 
L 269 116 
Q 538 116 653 291 
Q 719 388 719 750 
L 719 3488 
Q 719 3888 631 3984 
Q 509 4122 269 4122 
L 109 4122 
L 109 4238 
L 1653 4238 
Q 2328 4238 2648 4139 
Q 2969 4041 3192 3777 
Q 3416 3513 3416 3147 
Q 3416 2756 3161 2468 
Q 2906 2181 2372 2063 
L 3247 847 
Q 3547 428 3762 290 
Q 3978 153 4325 116 
L 4325 0 
z
M 1316 2178 
Q 1375 2178 1419 2176 
Q 1463 2175 1491 2175 
Q 2097 2175 2405 2437 
Q 2713 2700 2713 3106 
Q 2713 3503 2464 3751 
Q 2216 4000 1806 4000 
Q 1625 4000 1316 3941 
L 1316 2178 
z
" transform="scale(0.015625)"/>
        <path id="TimesNewRomanPSMT-65" d="M 681 1784 
Q 678 1147 991 784 
Q 1303 422 1725 422 
Q 2006 422 2214 576 
Q 2422 731 2563 1106 
L 2659 1044 
Q 2594 616 2278 264 
Q 1963 -88 1488 -88 
Q 972 -88 605 314 
Q 238 716 238 1394 
Q 238 2128 614 2539 
Q 991 2950 1559 2950 
Q 2041 2950 2350 2633 
Q 2659 2316 2659 1784 
L 681 1784 
z
M 681 1966 
L 2006 1966 
Q 1991 2241 1941 2353 
Q 1863 2528 1708 2628 
Q 1553 2728 1384 2728 
Q 1125 2728 920 2526 
Q 716 2325 681 1966 
z
" transform="scale(0.015625)"/>
        <path id="TimesNewRomanPSMT-73" d="M 2050 2947 
L 2050 1972 
L 1947 1972 
Q 1828 2431 1642 2597 
Q 1456 2763 1169 2763 
Q 950 2763 815 2647 
Q 681 2531 681 2391 
Q 681 2216 781 2091 
Q 878 1963 1175 1819 
L 1631 1597 
Q 2266 1288 2266 781 
Q 2266 391 1970 151 
Q 1675 -88 1309 -88 
Q 1047 -88 709 6 
Q 606 38 541 38 
Q 469 38 428 -44 
L 325 -44 
L 325 978 
L 428 978 
Q 516 541 762 319 
Q 1009 97 1316 97 
Q 1531 97 1667 223 
Q 1803 350 1803 528 
Q 1803 744 1651 891 
Q 1500 1038 1047 1263 
Q 594 1488 453 1669 
Q 313 1847 313 2119 
Q 313 2472 555 2709 
Q 797 2947 1181 2947 
Q 1350 2947 1591 2875 
Q 1750 2828 1803 2828 
Q 1853 2828 1881 2850 
Q 1909 2872 1947 2947 
L 2050 2947 
z
" transform="scale(0.015625)"/>
        <path id="TimesNewRomanPSMT-75" d="M 2709 2863 
L 2709 1128 
Q 2709 631 2732 520 
Q 2756 409 2807 365 
Q 2859 322 2928 322 
Q 3025 322 3147 375 
L 3191 266 
L 2334 -88 
L 2194 -88 
L 2194 519 
Q 1825 119 1631 15 
Q 1438 -88 1222 -88 
Q 981 -88 804 51 
Q 628 191 559 409 
Q 491 628 491 1028 
L 491 2306 
Q 491 2509 447 2587 
Q 403 2666 317 2708 
Q 231 2750 6 2747 
L 6 2863 
L 1009 2863 
L 1009 947 
Q 1009 547 1148 422 
Q 1288 297 1484 297 
Q 1619 297 1789 381 
Q 1959 466 2194 703 
L 2194 2325 
Q 2194 2569 2105 2655 
Q 2016 2741 1734 2747 
L 1734 2863 
L 2709 2863 
z
" transform="scale(0.015625)"/>
        <path id="TimesNewRomanPSMT-72" d="M 1038 2947 
L 1038 2303 
Q 1397 2947 1775 2947 
Q 1947 2947 2059 2842 
Q 2172 2738 2172 2600 
Q 2172 2478 2090 2393 
Q 2009 2309 1897 2309 
Q 1788 2309 1652 2417 
Q 1516 2525 1450 2525 
Q 1394 2525 1328 2463 
Q 1188 2334 1038 2041 
L 1038 669 
Q 1038 431 1097 309 
Q 1138 225 1241 169 
Q 1344 113 1538 113 
L 1538 0 
L 72 0 
L 72 113 
Q 291 113 397 181 
Q 475 231 506 341 
Q 522 394 522 644 
L 522 1753 
Q 522 2253 501 2348 
Q 481 2444 426 2487 
Q 372 2531 291 2531 
Q 194 2531 72 2484 
L 41 2597 
L 906 2947 
L 1038 2947 
z
" transform="scale(0.015625)"/>
       </defs>
       <use xlink:href="#TimesNewRomanPSMT-49"/>
       <use xlink:href="#TimesNewRomanPSMT-74" x="33.300781"/>
       <use xlink:href="#TimesNewRomanPSMT-61" x="61.083984"/>
       <use xlink:href="#TimesNewRomanPSMT-6c" x="105.46875"/>
       <use xlink:href="#TimesNewRomanPSMT-69" x="133.251953"/>
       <use xlink:href="#TimesNewRomanPSMT-61" x="161.035156"/>
       <use xlink:href="#TimesNewRomanPSMT-6e" x="205.419922"/>
       <use xlink:href="#TimesNewRomanPSMT-20" x="255.419922"/>
       <use xlink:href="#TimesNewRomanPSMT-52" x="280.419922"/>
       <use xlink:href="#TimesNewRomanPSMT-65" x="347.119141"/>
       <use xlink:href="#TimesNewRomanPSMT-73" x="391.503906"/>
       <use xlink:href="#TimesNewRomanPSMT-74" x="430.419922"/>
       <use xlink:href="#TimesNewRomanPSMT-61" x="458.203125"/>
       <use xlink:href="#TimesNewRomanPSMT-75" x="502.587891"/>
       <use xlink:href="#TimesNewRomanPSMT-72" x="552.587891"/>
       <use xlink:href="#TimesNewRomanPSMT-61" x="585.888672"/>
       <use xlink:href="#TimesNewRomanPSMT-6e" x="630.273438"/>
       <use xlink:href="#TimesNewRomanPSMT-74" x="680.273438"/>
       <use xlink:href="#TimesNewRomanPSMT-73" x="708.056641"/>
      </g>
     </g>
    </g>
    <g id="xtick_2">
     <g id="line2d_2">
      <g>
       <use xlink:href="#m5764406530" x="192.215937" y="234.653489" style="stroke: #000000; stroke-width: 0.8"/>
      </g>
     </g>
     <g id="text_2">
      <!-- Sushi Restaurants -->
      <g transform="translate(129.825255 308.121085) rotate(-45) scale(0.12 -0.12)">
       <defs>
        <path id="TimesNewRomanPSMT-53" d="M 2934 4334 
L 2934 2869 
L 2819 2869 
Q 2763 3291 2617 3541 
Q 2472 3791 2203 3937 
Q 1934 4084 1647 4084 
Q 1322 4084 1109 3886 
Q 897 3688 897 3434 
Q 897 3241 1031 3081 
Q 1225 2847 1953 2456 
Q 2547 2138 2764 1967 
Q 2981 1797 3098 1565 
Q 3216 1334 3216 1081 
Q 3216 600 2842 251 
Q 2469 -97 1881 -97 
Q 1697 -97 1534 -69 
Q 1438 -53 1133 45 
Q 828 144 747 144 
Q 669 144 623 97 
Q 578 50 556 -97 
L 441 -97 
L 441 1356 
L 556 1356 
Q 638 900 775 673 
Q 913 447 1195 297 
Q 1478 147 1816 147 
Q 2206 147 2432 353 
Q 2659 559 2659 841 
Q 2659 997 2573 1156 
Q 2488 1316 2306 1453 
Q 2184 1547 1640 1851 
Q 1097 2156 867 2337 
Q 638 2519 519 2737 
Q 400 2956 400 3219 
Q 400 3675 750 4004 
Q 1100 4334 1641 4334 
Q 1978 4334 2356 4169 
Q 2531 4091 2603 4091 
Q 2684 4091 2736 4139 
Q 2788 4188 2819 4334 
L 2934 4334 
z
" transform="scale(0.015625)"/>
        <path id="TimesNewRomanPSMT-68" d="M 1041 4444 
L 1041 2350 
Q 1388 2731 1591 2839 
Q 1794 2947 1997 2947 
Q 2241 2947 2416 2812 
Q 2591 2678 2675 2391 
Q 2734 2191 2734 1659 
L 2734 647 
Q 2734 375 2778 275 
Q 2809 200 2884 156 
Q 2959 113 3159 113 
L 3159 0 
L 1753 0 
L 1753 113 
L 1819 113 
Q 2019 113 2097 173 
Q 2175 234 2206 353 
Q 2216 403 2216 647 
L 2216 1659 
Q 2216 2128 2167 2275 
Q 2119 2422 2012 2495 
Q 1906 2569 1756 2569 
Q 1603 2569 1437 2487 
Q 1272 2406 1041 2159 
L 1041 647 
Q 1041 353 1073 281 
Q 1106 209 1195 161 
Q 1284 113 1503 113 
L 1503 0 
L 84 0 
L 84 113 
Q 275 113 384 172 
Q 447 203 484 290 
Q 522 378 522 647 
L 522 3238 
Q 522 3728 498 3840 
Q 475 3953 426 3993 
Q 378 4034 297 4034 
Q 231 4034 84 3984 
L 41 4094 
L 897 4444 
L 1041 4444 
z
" transform="scale(0.015625)"/>
       </defs>
       <use xlink:href="#TimesNewRomanPSMT-53"/>
       <use xlink:href="#TimesNewRomanPSMT-75" x="55.615234"/>
       <use xlink:href="#TimesNewRomanPSMT-73" x="105.615234"/>
       <use xlink:href="#TimesNewRomanPSMT-68" x="144.53125"/>
       <use xlink:href="#TimesNewRomanPSMT-69" x="194.53125"/>
       <use xlink:href="#TimesNewRomanPSMT-20" x="222.314453"/>
       <use xlink:href="#TimesNewRomanPSMT-52" x="247.314453"/>
       <use xlink:href="#TimesNewRomanPSMT-65" x="314.013672"/>
       <use xlink:href="#TimesNewRomanPSMT-73" x="358.398438"/>
       <use xlink:href="#TimesNewRomanPSMT-74" x="397.314453"/>
       <use xlink:href="#TimesNewRomanPSMT-61" x="425.097656"/>
       <use xlink:href="#TimesNewRomanPSMT-75" x="469.482422"/>
       <use xlink:href="#TimesNewRomanPSMT-72" x="519.482422"/>
       <use xlink:href="#TimesNewRomanPSMT-61" x="552.783203"/>
       <use xlink:href="#TimesNewRomanPSMT-6e" x="597.167969"/>
       <use xlink:href="#TimesNewRomanPSMT-74" x="647.167969"/>
       <use xlink:href="#TimesNewRomanPSMT-73" x="674.951172"/>
      </g>
     </g>
    </g>
    <g id="xtick_3">
     <g id="line2d_3">
      <g>
       <use xlink:href="#m5764406530" x="286.415937" y="234.653489" style="stroke: #000000; stroke-width: 0.8"/>
      </g>
     </g>
     <g id="text_3">
      <!-- Bars &amp; Pubs -->
      <g transform="translate(241.697179 290.44916) rotate(-45) scale(0.12 -0.12)">
       <defs>
        <path id="TimesNewRomanPSMT-42" d="M 2956 2163 
Q 3397 2069 3616 1863 
Q 3919 1575 3919 1159 
Q 3919 844 3719 555 
Q 3519 266 3170 133 
Q 2822 0 2106 0 
L 106 0 
L 106 116 
L 266 116 
Q 531 116 647 284 
Q 719 394 719 750 
L 719 3488 
Q 719 3881 628 3984 
Q 506 4122 266 4122 
L 106 4122 
L 106 4238 
L 1938 4238 
Q 2450 4238 2759 4163 
Q 3228 4050 3475 3764 
Q 3722 3478 3722 3106 
Q 3722 2788 3528 2536 
Q 3334 2284 2956 2163 
z
M 1319 2331 
Q 1434 2309 1582 2298 
Q 1731 2288 1909 2288 
Q 2366 2288 2595 2386 
Q 2825 2484 2947 2687 
Q 3069 2891 3069 3131 
Q 3069 3503 2766 3765 
Q 2463 4028 1881 4028 
Q 1569 4028 1319 3959 
L 1319 2331 
z
M 1319 306 
Q 1681 222 2034 222 
Q 2600 222 2897 476 
Q 3194 731 3194 1106 
Q 3194 1353 3059 1581 
Q 2925 1809 2622 1940 
Q 2319 2072 1872 2072 
Q 1678 2072 1540 2065 
Q 1403 2059 1319 2044 
L 1319 306 
z
" transform="scale(0.015625)"/>
        <path id="TimesNewRomanPSMT-26" d="M 3266 2728 
L 4578 2728 
L 4578 2613 
Q 4306 2591 4176 2492 
Q 4047 2394 3772 1897 
Q 3497 1400 3153 969 
Q 3431 644 3650 514 
Q 3869 384 4091 384 
Q 4306 384 4456 501 
Q 4606 619 4669 847 
L 4784 763 
Q 4669 322 4412 112 
Q 4156 -97 3816 -97 
Q 3559 -97 3295 42 
Q 3031 181 2719 513 
Q 2331 169 2020 36 
Q 1709 -97 1356 -97 
Q 841 -97 537 178 
Q 234 453 234 834 
Q 234 1213 506 1589 
Q 778 1966 1528 2369 
Q 1381 2694 1328 2901 
Q 1275 3109 1275 3300 
Q 1275 3834 1669 4116 
Q 1975 4334 2366 4334 
Q 2738 4334 2972 4114 
Q 3206 3894 3206 3572 
Q 3206 3241 2979 2991 
Q 2753 2741 2178 2444 
Q 2575 1738 3006 1150 
Q 3556 1806 3556 2256 
Q 3556 2400 3463 2513 
Q 3394 2597 3266 2613 
L 3266 2728 
z
M 2072 2647 
Q 2459 2831 2651 3065 
Q 2844 3300 2844 3588 
Q 2844 3813 2705 3959 
Q 2566 4106 2359 4106 
Q 2088 4106 1948 3917 
Q 1809 3728 1809 3547 
Q 1809 3394 1862 3205 
Q 1916 3016 2072 2647 
z
M 2556 694 
Q 2144 1256 1984 1515 
Q 1825 1775 1634 2159 
Q 1259 1944 1070 1684 
Q 881 1425 881 1122 
Q 881 788 1097 534 
Q 1313 281 1678 281 
Q 1875 281 2058 359 
Q 2241 438 2556 694 
z
" transform="scale(0.015625)"/>
        <path id="TimesNewRomanPSMT-50" d="M 1313 1984 
L 1313 750 
Q 1313 350 1400 253 
Q 1519 116 1759 116 
L 1922 116 
L 1922 0 
L 106 0 
L 106 116 
L 266 116 
Q 534 116 650 291 
Q 713 388 713 750 
L 713 3488 
Q 713 3888 628 3984 
Q 506 4122 266 4122 
L 106 4122 
L 106 4238 
L 1659 4238 
Q 2228 4238 2556 4120 
Q 2884 4003 3109 3725 
Q 3334 3447 3334 3066 
Q 3334 2547 2992 2222 
Q 2650 1897 2025 1897 
Q 1872 1897 1694 1919 
Q 1516 1941 1313 1984 
z
M 1313 2163 
Q 1478 2131 1606 2115 
Q 1734 2100 1825 2100 
Q 2150 2100 2386 2351 
Q 2622 2603 2622 3003 
Q 2622 3278 2509 3514 
Q 2397 3750 2190 3867 
Q 1984 3984 1722 3984 
Q 1563 3984 1313 3925 
L 1313 2163 
z
" transform="scale(0.015625)"/>
        <path id="TimesNewRomanPSMT-62" d="M 984 2369 
Q 1400 2947 1881 2947 
Q 2322 2947 2650 2570 
Q 2978 2194 2978 1541 
Q 2978 778 2472 313 
Q 2038 -88 1503 -88 
Q 1253 -88 995 3 
Q 738 94 469 275 
L 469 3241 
Q 469 3728 445 3840 
Q 422 3953 372 3993 
Q 322 4034 247 4034 
Q 159 4034 28 3984 
L -16 4094 
L 844 4444 
L 984 4444 
L 984 2369 
z
M 984 2169 
L 984 456 
Q 1144 300 1314 220 
Q 1484 141 1663 141 
Q 1947 141 2192 453 
Q 2438 766 2438 1363 
Q 2438 1913 2192 2208 
Q 1947 2503 1634 2503 
Q 1469 2503 1303 2419 
Q 1178 2356 984 2169 
z
" transform="scale(0.015625)"/>
       </defs>
       <use xlink:href="#TimesNewRomanPSMT-42"/>
       <use xlink:href="#TimesNewRomanPSMT-61" x="66.699219"/>
       <use xlink:href="#TimesNewRomanPSMT-72" x="111.083984"/>
       <use xlink:href="#TimesNewRomanPSMT-73" x="144.384766"/>
       <use xlink:href="#TimesNewRomanPSMT-20" x="183.300781"/>
       <use xlink:href="#TimesNewRomanPSMT-26" x="208.300781"/>
       <use xlink:href="#TimesNewRomanPSMT-20" x="286.083984"/>
       <use xlink:href="#TimesNewRomanPSMT-50" x="311.083984"/>
       <use xlink:href="#TimesNewRomanPSMT-75" x="366.699219"/>
       <use xlink:href="#TimesNewRomanPSMT-62" x="416.699219"/>
       <use xlink:href="#TimesNewRomanPSMT-73" x="466.699219"/>
      </g>
     </g>
    </g>
    <g id="xtick_4">
     <g id="line2d_4">
      <g>
       <use xlink:href="#m5764406530" x="380.615937" y="234.653489" style="stroke: #000000; stroke-width: 0.8"/>
      </g>
     </g>
     <g id="text_4">
      <!-- Fast Food Chains -->
      <g transform="translate(319.394632 306.951707) rotate(-45) scale(0.12 -0.12)">
       <defs>
        <path id="TimesNewRomanPSMT-46" d="M 1309 4006 
L 1309 2341 
L 2081 2341 
Q 2347 2341 2470 2458 
Q 2594 2575 2634 2922 
L 2750 2922 
L 2750 1488 
L 2634 1488 
Q 2631 1734 2570 1850 
Q 2509 1966 2401 2023 
Q 2294 2081 2081 2081 
L 1309 2081 
L 1309 750 
Q 1309 428 1350 325 
Q 1381 247 1481 191 
Q 1619 116 1769 116 
L 1922 116 
L 1922 0 
L 103 0 
L 103 116 
L 253 116 
Q 516 116 634 269 
Q 709 369 709 750 
L 709 3488 
Q 709 3809 669 3913 
Q 638 3991 541 4047 
Q 406 4122 253 4122 
L 103 4122 
L 103 4238 
L 3256 4238 
L 3297 3306 
L 3188 3306 
Q 3106 3603 2998 3742 
Q 2891 3881 2733 3943 
Q 2575 4006 2244 4006 
L 1309 4006 
z
" transform="scale(0.015625)"/>
        <path id="TimesNewRomanPSMT-6f" d="M 1600 2947 
Q 2250 2947 2644 2453 
Q 2978 2031 2978 1484 
Q 2978 1100 2793 706 
Q 2609 313 2286 112 
Q 1963 -88 1566 -88 
Q 919 -88 538 428 
Q 216 863 216 1403 
Q 216 1797 411 2186 
Q 606 2575 925 2761 
Q 1244 2947 1600 2947 
z
M 1503 2744 
Q 1338 2744 1170 2645 
Q 1003 2547 900 2300 
Q 797 2053 797 1666 
Q 797 1041 1045 587 
Q 1294 134 1700 134 
Q 2003 134 2200 384 
Q 2397 634 2397 1244 
Q 2397 2006 2069 2444 
Q 1847 2744 1503 2744 
z
" transform="scale(0.015625)"/>
        <path id="TimesNewRomanPSMT-64" d="M 2222 322 
Q 2013 103 1813 7 
Q 1613 -88 1381 -88 
Q 913 -88 563 304 
Q 213 697 213 1313 
Q 213 1928 600 2439 
Q 988 2950 1597 2950 
Q 1975 2950 2222 2709 
L 2222 3238 
Q 2222 3728 2198 3840 
Q 2175 3953 2125 3993 
Q 2075 4034 2000 4034 
Q 1919 4034 1784 3984 
L 1744 4094 
L 2597 4444 
L 2738 4444 
L 2738 1134 
Q 2738 631 2761 520 
Q 2784 409 2836 365 
Q 2888 322 2956 322 
Q 3041 322 3181 375 
L 3216 266 
L 2366 -88 
L 2222 -88 
L 2222 322 
z
M 2222 541 
L 2222 2016 
Q 2203 2228 2109 2403 
Q 2016 2578 1861 2667 
Q 1706 2756 1559 2756 
Q 1284 2756 1069 2509 
Q 784 2184 784 1559 
Q 784 928 1059 592 
Q 1334 256 1672 256 
Q 1956 256 2222 541 
z
" transform="scale(0.015625)"/>
        <path id="TimesNewRomanPSMT-43" d="M 3853 4334 
L 3950 2894 
L 3853 2894 
Q 3659 3541 3300 3825 
Q 2941 4109 2438 4109 
Q 2016 4109 1675 3895 
Q 1334 3681 1139 3212 
Q 944 2744 944 2047 
Q 944 1472 1128 1050 
Q 1313 628 1683 403 
Q 2053 178 2528 178 
Q 2941 178 3256 354 
Q 3572 531 3950 1056 
L 4047 994 
Q 3728 428 3303 165 
Q 2878 -97 2294 -97 
Q 1241 -97 663 684 
Q 231 1266 231 2053 
Q 231 2688 515 3219 
Q 800 3750 1298 4042 
Q 1797 4334 2388 4334 
Q 2847 4334 3294 4109 
Q 3425 4041 3481 4041 
Q 3566 4041 3628 4100 
Q 3709 4184 3744 4334 
L 3853 4334 
z
" transform="scale(0.015625)"/>
       </defs>
       <use xlink:href="#TimesNewRomanPSMT-46"/>
       <use xlink:href="#TimesNewRomanPSMT-61" x="55.615234"/>
       <use xlink:href="#TimesNewRomanPSMT-73" x="100"/>
       <use xlink:href="#TimesNewRomanPSMT-74" x="138.916016"/>
       <use xlink:href="#TimesNewRomanPSMT-20" x="166.699219"/>
       <use xlink:href="#TimesNewRomanPSMT-46" x="191.699219"/>
       <use xlink:href="#TimesNewRomanPSMT-6f" x="247.314453"/>
       <use xlink:href="#TimesNewRomanPSMT-6f" x="297.314453"/>
       <use xlink:href="#TimesNewRomanPSMT-64" x="347.314453"/>
       <use xlink:href="#TimesNewRomanPSMT-20" x="397.314453"/>
       <use xlink:href="#TimesNewRomanPSMT-43" x="422.314453"/>
       <use xlink:href="#TimesNewRomanPSMT-68" x="489.013672"/>
       <use xlink:href="#TimesNewRomanPSMT-61" x="539.013672"/>
       <use xlink:href="#TimesNewRomanPSMT-69" x="583.398438"/>
       <use xlink:href="#TimesNewRomanPSMT-6e" x="611.181641"/>
       <use xlink:href="#TimesNewRomanPSMT-73" x="661.181641"/>
      </g>
     </g>
    </g>
   </g>
   <g id="matplotlib.axis_2">
    <g id="ytick_1">
     <g id="line2d_5">
      <defs>
       <path id="m7e035b3d20" d="M 0 0 
L -3.5 0 
" style="stroke: #000000; stroke-width: 0.8"/>
      </defs>
      <g>
       <use xlink:href="#m7e035b3d20" x="50.915938" y="226.436343" style="stroke: #000000; stroke-width: 0.8"/>
      </g>
     </g>
     <g id="text_5">
      <!-- 0 -->
      <g transform="translate(38.915938 229.908218) scale(0.1 -0.1)">
       <defs>
        <path id="TimesNewRomanPSMT-30" d="M 231 2094 
Q 231 2819 450 3342 
Q 669 3866 1031 4122 
Q 1313 4325 1613 4325 
Q 2100 4325 2488 3828 
Q 2972 3213 2972 2159 
Q 2972 1422 2759 906 
Q 2547 391 2217 158 
Q 1888 -75 1581 -75 
Q 975 -75 572 641 
Q 231 1244 231 2094 
z
M 844 2016 
Q 844 1141 1059 588 
Q 1238 122 1591 122 
Q 1759 122 1940 273 
Q 2122 425 2216 781 
Q 2359 1319 2359 2297 
Q 2359 3022 2209 3506 
Q 2097 3866 1919 4016 
Q 1791 4119 1609 4119 
Q 1397 4119 1231 3928 
Q 1006 3669 925 3112 
Q 844 2556 844 2016 
z
" transform="scale(0.015625)"/>
       </defs>
       <use xlink:href="#TimesNewRomanPSMT-30"/>
      </g>
     </g>
    </g>
    <g id="ytick_2">
     <g id="line2d_6">
      <g>
       <use xlink:href="#m7e035b3d20" x="50.915938" y="195.48664" style="stroke: #000000; stroke-width: 0.8"/>
      </g>
     </g>
     <g id="text_6">
      <!-- 200 -->
      <g transform="translate(28.915938 198.958515) scale(0.1 -0.1)">
       <defs>
        <path id="TimesNewRomanPSMT-32" d="M 2934 816 
L 2638 0 
L 138 0 
L 138 116 
Q 1241 1122 1691 1759 
Q 2141 2397 2141 2925 
Q 2141 3328 1894 3587 
Q 1647 3847 1303 3847 
Q 991 3847 742 3664 
Q 494 3481 375 3128 
L 259 3128 
Q 338 3706 661 4015 
Q 984 4325 1469 4325 
Q 1984 4325 2329 3994 
Q 2675 3663 2675 3213 
Q 2675 2891 2525 2569 
Q 2294 2063 1775 1497 
Q 997 647 803 472 
L 1909 472 
Q 2247 472 2383 497 
Q 2519 522 2628 598 
Q 2738 675 2819 816 
L 2934 816 
z
" transform="scale(0.015625)"/>
       </defs>
       <use xlink:href="#TimesNewRomanPSMT-32"/>
       <use xlink:href="#TimesNewRomanPSMT-30" x="50"/>
       <use xlink:href="#TimesNewRomanPSMT-30" x="100"/>
      </g>
     </g>
    </g>
    <g id="ytick_3">
     <g id="line2d_7">
      <g>
       <use xlink:href="#m7e035b3d20" x="50.915938" y="164.536936" style="stroke: #000000; stroke-width: 0.8"/>
      </g>
     </g>
     <g id="text_7">
      <!-- 400 -->
      <g transform="translate(28.915938 168.008811) scale(0.1 -0.1)">
       <defs>
        <path id="TimesNewRomanPSMT-34" d="M 2978 1563 
L 2978 1119 
L 2409 1119 
L 2409 0 
L 1894 0 
L 1894 1119 
L 100 1119 
L 100 1519 
L 2066 4325 
L 2409 4325 
L 2409 1563 
L 2978 1563 
z
M 1894 1563 
L 1894 3666 
L 406 1563 
L 1894 1563 
z
" transform="scale(0.015625)"/>
       </defs>
       <use xlink:href="#TimesNewRomanPSMT-34"/>
       <use xlink:href="#TimesNewRomanPSMT-30" x="50"/>
       <use xlink:href="#TimesNewRomanPSMT-30" x="100"/>
      </g>
     </g>
    </g>
    <g id="ytick_4">
     <g id="line2d_8">
      <g>
       <use xlink:href="#m7e035b3d20" x="50.915938" y="133.587233" style="stroke: #000000; stroke-width: 0.8"/>
      </g>
     </g>
     <g id="text_8">
      <!-- 600 -->
      <g transform="translate(28.915938 137.059108) scale(0.1 -0.1)">
       <defs>
        <path id="TimesNewRomanPSMT-36" d="M 2869 4325 
L 2869 4209 
Q 2456 4169 2195 4045 
Q 1934 3922 1679 3669 
Q 1425 3416 1258 3105 
Q 1091 2794 978 2366 
Q 1428 2675 1881 2675 
Q 2316 2675 2634 2325 
Q 2953 1975 2953 1425 
Q 2953 894 2631 456 
Q 2244 -75 1606 -75 
Q 1172 -75 869 213 
Q 275 772 275 1663 
Q 275 2231 503 2743 
Q 731 3256 1154 3653 
Q 1578 4050 1965 4187 
Q 2353 4325 2688 4325 
L 2869 4325 
z
M 925 2138 
Q 869 1716 869 1456 
Q 869 1156 980 804 
Q 1091 453 1309 247 
Q 1469 100 1697 100 
Q 1969 100 2183 356 
Q 2397 613 2397 1088 
Q 2397 1622 2184 2012 
Q 1972 2403 1581 2403 
Q 1463 2403 1327 2353 
Q 1191 2303 925 2138 
z
" transform="scale(0.015625)"/>
       </defs>
       <use xlink:href="#TimesNewRomanPSMT-36"/>
       <use xlink:href="#TimesNewRomanPSMT-30" x="50"/>
       <use xlink:href="#TimesNewRomanPSMT-30" x="100"/>
      </g>
     </g>
    </g>
    <g id="ytick_5">
     <g id="line2d_9">
      <g>
       <use xlink:href="#m7e035b3d20" x="50.915938" y="102.637529" style="stroke: #000000; stroke-width: 0.8"/>
      </g>
     </g>
     <g id="text_9">
      <!-- 800 -->
      <g transform="translate(28.915938 106.109404) scale(0.1 -0.1)">
       <defs>
        <path id="TimesNewRomanPSMT-38" d="M 1228 2134 
Q 725 2547 579 2797 
Q 434 3047 434 3316 
Q 434 3728 753 4026 
Q 1072 4325 1600 4325 
Q 2113 4325 2425 4047 
Q 2738 3769 2738 3413 
Q 2738 3175 2569 2928 
Q 2400 2681 1866 2347 
Q 2416 1922 2594 1678 
Q 2831 1359 2831 1006 
Q 2831 559 2490 242 
Q 2150 -75 1597 -75 
Q 994 -75 656 303 
Q 388 606 388 966 
Q 388 1247 577 1523 
Q 766 1800 1228 2134 
z
M 1719 2469 
Q 2094 2806 2194 3001 
Q 2294 3197 2294 3444 
Q 2294 3772 2109 3958 
Q 1925 4144 1606 4144 
Q 1288 4144 1088 3959 
Q 888 3775 888 3528 
Q 888 3366 970 3203 
Q 1053 3041 1206 2894 
L 1719 2469 
z
M 1375 2016 
Q 1116 1797 991 1539 
Q 866 1281 866 981 
Q 866 578 1086 336 
Q 1306 94 1647 94 
Q 1984 94 2187 284 
Q 2391 475 2391 747 
Q 2391 972 2272 1150 
Q 2050 1481 1375 2016 
z
" transform="scale(0.015625)"/>
       </defs>
       <use xlink:href="#TimesNewRomanPSMT-38"/>
       <use xlink:href="#TimesNewRomanPSMT-30" x="50"/>
       <use xlink:href="#TimesNewRomanPSMT-30" x="100"/>
      </g>
     </g>
    </g>
    <g id="ytick_6">
     <g id="line2d_10">
      <g>
       <use xlink:href="#m7e035b3d20" x="50.915938" y="71.687826" style="stroke: #000000; stroke-width: 0.8"/>
      </g>
     </g>
     <g id="text_10">
      <!-- 1000 -->
      <g transform="translate(23.915938 75.159701) scale(0.1 -0.1)">
       <defs>
        <path id="TimesNewRomanPSMT-31" d="M 750 3822 
L 1781 4325 
L 1884 4325 
L 1884 747 
Q 1884 391 1914 303 
Q 1944 216 2037 169 
Q 2131 122 2419 116 
L 2419 0 
L 825 0 
L 825 116 
Q 1125 122 1212 167 
Q 1300 213 1334 289 
Q 1369 366 1369 747 
L 1369 3034 
Q 1369 3497 1338 3628 
Q 1316 3728 1258 3775 
Q 1200 3822 1119 3822 
Q 1003 3822 797 3725 
L 750 3822 
z
" transform="scale(0.015625)"/>
       </defs>
       <use xlink:href="#TimesNewRomanPSMT-31"/>
       <use xlink:href="#TimesNewRomanPSMT-30" x="50"/>
       <use xlink:href="#TimesNewRomanPSMT-30" x="100"/>
       <use xlink:href="#TimesNewRomanPSMT-30" x="150"/>
      </g>
     </g>
    </g>
    <g id="ytick_7">
     <g id="line2d_11">
      <g>
       <use xlink:href="#m7e035b3d20" x="50.915938" y="40.738123" style="stroke: #000000; stroke-width: 0.8"/>
      </g>
     </g>
     <g id="text_11">
      <!-- 1200 -->
      <g transform="translate(23.915938 44.209998) scale(0.1 -0.1)">
       <use xlink:href="#TimesNewRomanPSMT-31"/>
       <use xlink:href="#TimesNewRomanPSMT-32" x="50"/>
       <use xlink:href="#TimesNewRomanPSMT-30" x="100"/>
       <use xlink:href="#TimesNewRomanPSMT-30" x="150"/>
      </g>
     </g>
    </g>
    <g id="text_12">
     <!-- million USD -->
     <g transform="translate(16.92125 168.325963) rotate(-90) scale(0.14 -0.14)">
      <defs>
       <path id="TimesNewRomanPSMT-6d" d="M 1050 2338 
Q 1363 2650 1419 2697 
Q 1559 2816 1721 2881 
Q 1884 2947 2044 2947 
Q 2313 2947 2506 2790 
Q 2700 2634 2766 2338 
Q 3088 2713 3309 2830 
Q 3531 2947 3766 2947 
Q 3994 2947 4170 2830 
Q 4347 2713 4450 2447 
Q 4519 2266 4519 1878 
L 4519 647 
Q 4519 378 4559 278 
Q 4591 209 4675 161 
Q 4759 113 4950 113 
L 4950 0 
L 3538 0 
L 3538 113 
L 3597 113 
Q 3781 113 3884 184 
Q 3956 234 3988 344 
Q 4000 397 4000 647 
L 4000 1878 
Q 4000 2228 3916 2372 
Q 3794 2572 3525 2572 
Q 3359 2572 3192 2489 
Q 3025 2406 2788 2181 
L 2781 2147 
L 2788 2013 
L 2788 647 
Q 2788 353 2820 281 
Q 2853 209 2943 161 
Q 3034 113 3253 113 
L 3253 0 
L 1806 0 
L 1806 113 
Q 2044 113 2133 169 
Q 2222 225 2256 338 
Q 2272 391 2272 647 
L 2272 1878 
Q 2272 2228 2169 2381 
Q 2031 2581 1784 2581 
Q 1616 2581 1450 2491 
Q 1191 2353 1050 2181 
L 1050 647 
Q 1050 366 1089 281 
Q 1128 197 1204 155 
Q 1281 113 1516 113 
L 1516 0 
L 100 0 
L 100 113 
Q 297 113 375 155 
Q 453 197 493 289 
Q 534 381 534 647 
L 534 1741 
Q 534 2213 506 2350 
Q 484 2453 437 2492 
Q 391 2531 309 2531 
Q 222 2531 100 2484 
L 53 2597 
L 916 2947 
L 1050 2947 
L 1050 2338 
z
" transform="scale(0.015625)"/>
       <path id="TimesNewRomanPSMT-55" d="M 3053 4122 
L 3053 4238 
L 4553 4238 
L 4553 4122 
L 4394 4122 
Q 4144 4122 4009 3913 
Q 3944 3816 3944 3463 
L 3944 1744 
Q 3944 1106 3817 754 
Q 3691 403 3320 151 
Q 2950 -100 2313 -100 
Q 1619 -100 1259 140 
Q 900 381 750 788 
Q 650 1066 650 1831 
L 650 3488 
Q 650 3878 542 4000 
Q 434 4122 194 4122 
L 34 4122 
L 34 4238 
L 1866 4238 
L 1866 4122 
L 1703 4122 
Q 1441 4122 1328 3956 
Q 1250 3844 1250 3488 
L 1250 1641 
Q 1250 1394 1295 1075 
Q 1341 756 1459 578 
Q 1578 400 1801 284 
Q 2025 169 2350 169 
Q 2766 169 3094 350 
Q 3422 531 3542 814 
Q 3663 1097 3663 1772 
L 3663 3488 
Q 3663 3884 3575 3984 
Q 3453 4122 3213 4122 
L 3053 4122 
z
" transform="scale(0.015625)"/>
       <path id="TimesNewRomanPSMT-44" d="M 109 0 
L 109 116 
L 269 116 
Q 538 116 650 288 
Q 719 391 719 750 
L 719 3488 
Q 719 3884 631 3984 
Q 509 4122 269 4122 
L 109 4122 
L 109 4238 
L 1834 4238 
Q 2784 4238 3279 4022 
Q 3775 3806 4076 3303 
Q 4378 2800 4378 2141 
Q 4378 1256 3841 663 
Q 3238 0 2003 0 
L 109 0 
z
M 1319 306 
Q 1716 219 1984 219 
Q 2709 219 3187 728 
Q 3666 1238 3666 2109 
Q 3666 2988 3187 3494 
Q 2709 4000 1959 4000 
Q 1678 4000 1319 3909 
L 1319 306 
z
" transform="scale(0.015625)"/>
      </defs>
      <use xlink:href="#TimesNewRomanPSMT-6d"/>
      <use xlink:href="#TimesNewRomanPSMT-69" x="77.783203"/>
      <use xlink:href="#TimesNewRomanPSMT-6c" x="105.566406"/>
      <use xlink:href="#TimesNewRomanPSMT-6c" x="133.349609"/>
      <use xlink:href="#TimesNewRomanPSMT-69" x="161.132812"/>
      <use xlink:href="#TimesNewRomanPSMT-6f" x="188.916016"/>
      <use xlink:href="#TimesNewRomanPSMT-6e" x="238.916016"/>
      <use xlink:href="#TimesNewRomanPSMT-20" x="288.916016"/>
      <use xlink:href="#TimesNewRomanPSMT-55" x="313.916016"/>
      <use xlink:href="#TimesNewRomanPSMT-53" x="386.132812"/>
      <use xlink:href="#TimesNewRomanPSMT-44" x="441.748047"/>
     </g>
    </g>
   </g>
   <g id="patch_3">
    <path d="M 92.363937 166.23917 
L 103.667937 166.23917 
L 103.667937 129.409023 
L 92.363937 129.409023 
L 92.363937 166.23917 
L 92.363937 166.23917 
z
" clip-path="url(#p7bbb25916a)" style="fill: none; stroke: #000000; stroke-linejoin: miter"/>
   </g>
   <g id="line2d_12">
    <path d="M 98.015938 166.23917 
L 98.015938 214.984953 
" clip-path="url(#p7bbb25916a)" style="fill: none; stroke: #000000; stroke-linecap: square"/>
   </g>
   <g id="line2d_13">
    <path d="M 98.015938 129.409023 
L 98.015938 97.995074 
" clip-path="url(#p7bbb25916a)" style="fill: none; stroke: #000000; stroke-linecap: square"/>
   </g>
   <g id="line2d_14">
    <path d="M 95.189937 214.984953 
L 100.841938 214.984953 
" clip-path="url(#p7bbb25916a)" style="fill: none; stroke: #000000; stroke-linecap: square"/>
   </g>
   <g id="line2d_15">
    <path d="M 95.189937 97.995074 
L 100.841938 97.995074 
" clip-path="url(#p7bbb25916a)" style="fill: none; stroke: #000000; stroke-linecap: square"/>
   </g>
   <g id="patch_4">
    <path d="M 186.563937 160.049229 
L 197.867938 160.049229 
L 197.867938 113.00568 
L 186.563937 113.00568 
L 186.563937 160.049229 
L 186.563937 160.049229 
z
" clip-path="url(#p7bbb25916a)" style="fill: none; stroke: #000000; stroke-linejoin: miter"/>
   </g>
   <g id="line2d_16">
    <path d="M 192.215937 160.049229 
L 192.215937 205.235796 
" clip-path="url(#p7bbb25916a)" style="fill: none; stroke: #000000; stroke-linecap: square"/>
   </g>
   <g id="line2d_17">
    <path d="M 192.215937 113.00568 
L 192.215937 62.712412 
" clip-path="url(#p7bbb25916a)" style="fill: none; stroke: #000000; stroke-linecap: square"/>
   </g>
   <g id="line2d_18">
    <path d="M 189.389938 205.235796 
L 195.041937 205.235796 
" clip-path="url(#p7bbb25916a)" style="fill: none; stroke: #000000; stroke-linecap: square"/>
   </g>
   <g id="line2d_19">
    <path d="M 189.389938 62.712412 
L 195.041937 62.712412 
" clip-path="url(#p7bbb25916a)" style="fill: none; stroke: #000000; stroke-linecap: square"/>
   </g>
   <g id="patch_5">
    <path d="M 280.763937 178.619051 
L 292.067937 178.619051 
L 292.067937 139.158179 
L 280.763937 139.158179 
L 280.763937 178.619051 
L 280.763937 178.619051 
z
" clip-path="url(#p7bbb25916a)" style="fill: none; stroke: #000000; stroke-linejoin: miter"/>
   </g>
   <g id="line2d_20">
    <path d="M 286.415937 178.619051 
L 286.415937 225.353103 
" clip-path="url(#p7bbb25916a)" style="fill: none; stroke: #000000; stroke-linecap: square"/>
   </g>
   <g id="line2d_21">
    <path d="M 286.415937 139.158179 
L 286.415937 100.006805 
" clip-path="url(#p7bbb25916a)" style="fill: none; stroke: #000000; stroke-linecap: square"/>
   </g>
   <g id="line2d_22">
    <path d="M 283.589938 225.353103 
L 289.241937 225.353103 
" clip-path="url(#p7bbb25916a)" style="fill: none; stroke: #000000; stroke-linecap: square"/>
   </g>
   <g id="line2d_23">
    <path d="M 283.589938 100.006805 
L 289.241937 100.006805 
" clip-path="url(#p7bbb25916a)" style="fill: none; stroke: #000000; stroke-linecap: square"/>
   </g>
   <g id="patch_6">
    <path d="M 374.963937 171.810116 
L 386.267937 171.810116 
L 386.267937 142.25315 
L 374.963937 142.25315 
L 374.963937 171.810116 
L 374.963937 171.810116 
z
" clip-path="url(#p7bbb25916a)" style="fill: none; stroke: #000000; stroke-linejoin: miter"/>
   </g>
   <g id="line2d_24">
    <path d="M 380.615937 171.810116 
L 380.615937 208.640264 
" clip-path="url(#p7bbb25916a)" style="fill: none; stroke: #000000; stroke-linecap: square"/>
   </g>
   <g id="line2d_25">
    <path d="M 380.615937 142.25315 
L 380.615937 111.303446 
" clip-path="url(#p7bbb25916a)" style="fill: none; stroke: #000000; stroke-linecap: square"/>
   </g>
   <g id="line2d_26">
    <path d="M 377.789938 208.640264 
L 383.441937 208.640264 
" clip-path="url(#p7bbb25916a)" style="fill: none; stroke: #000000; stroke-linecap: square"/>
   </g>
   <g id="line2d_27">
    <path d="M 377.789938 111.303446 
L 383.441937 111.303446 
" clip-path="url(#p7bbb25916a)" style="fill: none; stroke: #000000; stroke-linecap: square"/>
   </g>
   <g id="line2d_28">
    <path d="M 92.363937 147.978845 
L 103.667937 147.978845 
" clip-path="url(#p7bbb25916a)" style="fill: none; stroke: #000000; stroke-width: 1.5; stroke-linecap: square"/>
   </g>
   <g id="line2d_29">
    <path d="M 186.563937 133.587233 
L 197.867938 133.587233 
" clip-path="url(#p7bbb25916a)" style="fill: none; stroke: #000000; stroke-width: 1.5; stroke-linecap: square"/>
   </g>
   <g id="line2d_30">
    <path d="M 280.763937 158.192247 
L 292.067937 158.192247 
" clip-path="url(#p7bbb25916a)" style="fill: none; stroke: #000000; stroke-width: 1.5; stroke-linecap: square"/>
   </g>
   <g id="line2d_31">
    <path d="M 374.963937 161.132469 
L 386.267937 161.132469 
" clip-path="url(#p7bbb25916a)" style="fill: none; stroke: #000000; stroke-width: 1.5; stroke-linecap: square"/>
   </g>
   <g id="patch_7">
    <path d="M 50.915938 234.653489 
L 50.915938 30.045 
" style="fill: none; stroke: #000000; stroke-linejoin: miter; stroke-linecap: square"/>
   </g>
   <g id="patch_8">
    <path d="M 427.715937 234.653489 
L 427.715937 30.045 
" style="fill: none; stroke: #000000; stroke-linejoin: miter; stroke-linecap: square"/>
   </g>
   <g id="patch_9">
    <path d="M 50.915938 234.653489 
L 427.715937 234.653489 
" style="fill: none; stroke: #000000; stroke-linejoin: miter; stroke-linecap: square"/>
   </g>
   <g id="patch_10">
    <path d="M 50.915938 30.045 
L 427.715937 30.045 
" style="fill: none; stroke: #000000; stroke-linejoin: miter; stroke-linecap: square"/>
   </g>
   <g id="text_13">
    <!-- Data on the sales by food and beverage sectors (million USD) -->
    <g transform="translate(31.769687 18.045) scale(0.16 -0.16)">
     <defs>
      <path id="TimesNewRomanPS-BoldMT-44" d="M 84 0 
L 84 116 
L 225 116 
Q 409 116 507 173 
Q 606 231 653 331 
Q 681 397 681 725 
L 681 3513 
Q 681 3838 647 3919 
Q 613 4000 508 4061 
Q 403 4122 225 4122 
L 84 4122 
L 84 4238 
L 1981 4238 
Q 2741 4238 3203 4031 
Q 3769 3778 4061 3265 
Q 4353 2753 4353 2106 
Q 4353 1659 4209 1282 
Q 4066 906 3837 661 
Q 3609 416 3311 267 
Q 3013 119 2581 38 
Q 2391 0 1981 0 
L 84 0 
z
M 1700 3997 
L 1700 691 
Q 1700 428 1725 368 
Q 1750 309 1809 278 
Q 1894 231 2053 231 
Q 2575 231 2850 588 
Q 3225 1069 3225 2081 
Q 3225 2897 2969 3384 
Q 2766 3766 2447 3903 
Q 2222 4000 1700 3997 
z
" transform="scale(0.015625)"/>
      <path id="TimesNewRomanPS-BoldMT-61" d="M 1828 431 
Q 1294 -41 869 -41 
Q 619 -41 453 123 
Q 288 288 288 534 
Q 288 869 575 1136 
Q 863 1403 1828 1847 
L 1828 2141 
Q 1828 2472 1792 2558 
Q 1756 2644 1656 2708 
Q 1556 2772 1431 2772 
Q 1228 2772 1097 2681 
Q 1016 2625 1016 2550 
Q 1016 2484 1103 2388 
Q 1222 2253 1222 2128 
Q 1222 1975 1108 1867 
Q 994 1759 809 1759 
Q 613 1759 480 1878 
Q 347 1997 347 2156 
Q 347 2381 525 2586 
Q 703 2791 1022 2900 
Q 1341 3009 1684 3009 
Q 2100 3009 2342 2832 
Q 2584 2656 2656 2450 
Q 2700 2319 2700 1847 
L 2700 713 
Q 2700 513 2715 461 
Q 2731 409 2762 384 
Q 2794 359 2834 359 
Q 2916 359 3000 475 
L 3094 400 
Q 2938 169 2770 64 
Q 2603 -41 2391 -41 
Q 2141 -41 2000 76 
Q 1859 194 1828 431 
z
M 1828 659 
L 1828 1638 
Q 1450 1416 1266 1163 
Q 1144 994 1144 822 
Q 1144 678 1247 569 
Q 1325 484 1466 484 
Q 1622 484 1828 659 
z
" transform="scale(0.015625)"/>
      <path id="TimesNewRomanPS-BoldMT-74" d="M 1375 3991 
L 1375 2922 
L 2069 2922 
L 2069 2613 
L 1375 2613 
L 1375 809 
Q 1375 556 1398 482 
Q 1422 409 1481 364 
Q 1541 319 1591 319 
Q 1794 319 1975 628 
L 2069 559 
Q 1816 -41 1247 -41 
Q 969 -41 776 114 
Q 584 269 531 459 
Q 500 566 500 1034 
L 500 2613 
L 119 2613 
L 119 2722 
Q 513 3000 789 3306 
Q 1066 3613 1272 3991 
L 1375 3991 
z
" transform="scale(0.015625)"/>
      <path id="TimesNewRomanPS-BoldMT-20" transform="scale(0.015625)"/>
      <path id="TimesNewRomanPS-BoldMT-6f" d="M 1594 3009 
Q 1975 3009 2303 2812 
Q 2631 2616 2801 2253 
Q 2972 1891 2972 1459 
Q 2972 838 2656 419 
Q 2275 -88 1603 -88 
Q 944 -88 587 375 
Q 231 838 231 1447 
Q 231 2075 595 2542 
Q 959 3009 1594 3009 
z
M 1606 2788 
Q 1447 2788 1333 2667 
Q 1219 2547 1183 2192 
Q 1147 1838 1147 1206 
Q 1147 872 1191 581 
Q 1225 359 1337 243 
Q 1450 128 1594 128 
Q 1734 128 1828 206 
Q 1950 313 1991 503 
Q 2053 800 2053 1703 
Q 2053 2234 1993 2432 
Q 1934 2631 1819 2722 
Q 1738 2788 1606 2788 
z
" transform="scale(0.015625)"/>
      <path id="TimesNewRomanPS-BoldMT-6e" d="M 1409 2922 
L 1409 2544 
Q 1634 2788 1840 2898 
Q 2047 3009 2284 3009 
Q 2569 3009 2756 2851 
Q 2944 2694 3006 2459 
Q 3056 2281 3056 1775 
L 3056 638 
Q 3056 300 3117 217 
Q 3178 134 3372 113 
L 3372 0 
L 1894 0 
L 1894 113 
Q 2059 134 2131 250 
Q 2181 328 2181 638 
L 2181 1938 
Q 2181 2297 2153 2390 
Q 2125 2484 2058 2536 
Q 1991 2588 1909 2588 
Q 1641 2588 1409 2203 
L 1409 638 
Q 1409 309 1470 221 
Q 1531 134 1697 113 
L 1697 0 
L 219 0 
L 219 113 
Q 403 131 481 231 
Q 534 300 534 638 
L 534 2288 
Q 534 2619 473 2700 
Q 413 2781 219 2806 
L 219 2922 
L 1409 2922 
z
" transform="scale(0.015625)"/>
      <path id="TimesNewRomanPS-BoldMT-68" d="M 1409 4238 
L 1409 2547 
Q 1650 2800 1850 2904 
Q 2050 3009 2266 3009 
Q 2541 3009 2736 2853 
Q 2931 2697 2995 2486 
Q 3059 2275 3059 1775 
L 3059 634 
Q 3059 300 3121 217 
Q 3184 134 3375 113 
L 3375 0 
L 1894 0 
L 1894 113 
Q 2050 134 2128 238 
Q 2184 319 2184 634 
L 2184 1938 
Q 2184 2300 2156 2392 
Q 2128 2484 2061 2536 
Q 1994 2588 1909 2588 
Q 1784 2588 1665 2502 
Q 1547 2416 1409 2200 
L 1409 634 
Q 1409 322 1456 244 
Q 1516 138 1700 113 
L 1700 0 
L 219 0 
L 219 113 
Q 403 131 481 231 
Q 534 300 534 634 
L 534 3603 
Q 534 3934 473 4015 
Q 413 4097 219 4122 
L 219 4238 
L 1409 4238 
z
" transform="scale(0.015625)"/>
      <path id="TimesNewRomanPS-BoldMT-65" d="M 2691 1566 
L 1088 1566 
Q 1116 984 1397 647 
Q 1613 388 1916 388 
Q 2103 388 2256 492 
Q 2409 597 2584 869 
L 2691 800 
Q 2453 316 2165 114 
Q 1878 -88 1500 -88 
Q 850 -88 516 413 
Q 247 816 247 1413 
Q 247 2144 642 2576 
Q 1038 3009 1569 3009 
Q 2013 3009 2339 2645 
Q 2666 2281 2691 1566 
z
M 1922 1775 
Q 1922 2278 1867 2465 
Q 1813 2653 1697 2750 
Q 1631 2806 1522 2806 
Q 1359 2806 1256 2647 
Q 1072 2369 1072 1884 
L 1072 1775 
L 1922 1775 
z
" transform="scale(0.015625)"/>
      <path id="TimesNewRomanPS-BoldMT-73" d="M 2063 3003 
L 2109 2006 
L 2003 2006 
Q 1813 2450 1608 2612 
Q 1403 2775 1200 2775 
Q 1072 2775 981 2689 
Q 891 2603 891 2491 
Q 891 2406 953 2328 
Q 1053 2200 1512 1889 
Q 1972 1578 2117 1361 
Q 2263 1144 2263 875 
Q 2263 631 2141 397 
Q 2019 163 1797 37 
Q 1575 -88 1306 -88 
Q 1097 -88 747 44 
Q 653 78 619 78 
Q 516 78 447 -78 
L 344 -78 
L 294 972 
L 400 972 
Q 541 559 786 353 
Q 1031 147 1250 147 
Q 1400 147 1495 239 
Q 1591 331 1591 463 
Q 1591 613 1497 722 
Q 1403 831 1078 1053 
Q 600 1384 459 1559 
Q 253 1816 253 2125 
Q 253 2463 486 2736 
Q 719 3009 1159 3009 
Q 1397 3009 1619 2894 
Q 1703 2847 1756 2847 
Q 1813 2847 1847 2870 
Q 1881 2894 1956 3003 
L 2063 3003 
z
" transform="scale(0.015625)"/>
      <path id="TimesNewRomanPS-BoldMT-6c" d="M 1359 4238 
L 1359 606 
Q 1359 297 1431 211 
Q 1503 125 1713 113 
L 1713 0 
L 134 0 
L 134 113 
Q 328 119 422 225 
Q 484 297 484 606 
L 484 3631 
Q 484 3938 412 4023 
Q 341 4109 134 4122 
L 134 4238 
L 1359 4238 
z
" transform="scale(0.015625)"/>
      <path id="TimesNewRomanPS-BoldMT-62" d="M 1347 4238 
L 1347 2628 
Q 1716 3009 2153 3009 
Q 2453 3009 2718 2832 
Q 2984 2656 3134 2331 
Q 3284 2006 3284 1581 
Q 3284 1103 3093 712 
Q 2903 322 2584 117 
Q 2266 -88 1856 -88 
Q 1619 -88 1434 -12 
Q 1250 63 1072 231 
L 588 -84 
L 481 -84 
L 481 3631 
Q 481 3884 459 3944 
Q 428 4031 361 4073 
Q 294 4116 134 4122 
L 134 4238 
L 1347 4238 
z
M 1347 2350 
L 1347 1050 
Q 1347 653 1366 544 
Q 1397 359 1515 245 
Q 1634 131 1819 131 
Q 1978 131 2092 222 
Q 2206 313 2282 581 
Q 2359 850 2359 1550 
Q 2359 2222 2191 2472 
Q 2069 2653 1863 2653 
Q 1594 2653 1347 2350 
z
" transform="scale(0.015625)"/>
      <path id="TimesNewRomanPS-BoldMT-79" d="M 1556 -119 
L 613 2047 
Q 400 2538 298 2650 
Q 197 2763 53 2806 
L 53 2922 
L 1606 2922 
L 1606 2806 
Q 1453 2800 1390 2747 
Q 1328 2694 1328 2619 
Q 1328 2500 1484 2150 
L 1984 1006 
L 2325 1891 
Q 2509 2363 2509 2547 
Q 2509 2663 2432 2731 
Q 2356 2800 2163 2806 
L 2163 2922 
L 3141 2922 
L 3141 2806 
Q 2997 2791 2906 2695 
Q 2816 2600 2603 2047 
L 1769 -119 
Q 1453 -931 1300 -1119 
Q 1084 -1381 759 -1381 
Q 500 -1381 339 -1232 
Q 178 -1084 178 -875 
Q 178 -694 289 -575 
Q 400 -456 563 -456 
Q 719 -456 814 -556 
Q 909 -656 913 -866 
Q 916 -984 941 -1019 
Q 966 -1053 1013 -1053 
Q 1088 -1053 1172 -963 
Q 1297 -831 1466 -363 
L 1556 -119 
z
" transform="scale(0.015625)"/>
      <path id="TimesNewRomanPS-BoldMT-66" d="M 1497 2616 
L 1497 588 
Q 1497 294 1559 219 
Q 1659 103 1928 113 
L 1928 0 
L 206 0 
L 206 113 
Q 403 116 486 158 
Q 569 200 600 275 
Q 631 350 631 588 
L 631 2616 
L 206 2616 
L 206 2922 
L 631 2922 
L 631 3138 
L 628 3284 
Q 628 3734 958 4034 
Q 1288 4334 1850 4334 
Q 2234 4334 2420 4190 
Q 2606 4047 2606 3872 
Q 2606 3731 2490 3628 
Q 2375 3525 2184 3525 
Q 2022 3525 1926 3609 
Q 1831 3694 1831 3797 
Q 1831 3825 1850 3913 
Q 1863 3966 1863 4013 
Q 1863 4078 1825 4109 
Q 1775 4156 1703 4156 
Q 1613 4156 1552 4081 
Q 1491 4006 1491 3841 
L 1497 3294 
L 1497 2922 
L 1928 2922 
L 1928 2616 
L 1497 2616 
z
" transform="scale(0.015625)"/>
      <path id="TimesNewRomanPS-BoldMT-64" d="M 3056 4238 
L 3056 875 
Q 3056 534 3075 472 
Q 3100 369 3170 319 
Q 3241 269 3416 256 
L 3416 153 
L 2181 -88 
L 2181 375 
Q 1959 106 1786 9 
Q 1613 -88 1394 -88 
Q 834 -88 509 413 
Q 247 819 247 1409 
Q 247 1881 409 2254 
Q 572 2628 855 2818 
Q 1138 3009 1463 3009 
Q 1672 3009 1834 2928 
Q 1997 2847 2181 2644 
L 2181 3525 
Q 2181 3859 2153 3928 
Q 2116 4019 2041 4062 
Q 1966 4106 1759 4106 
L 1759 4238 
L 3056 4238 
z
M 2181 2256 
Q 1950 2700 1616 2700 
Q 1500 2700 1425 2638 
Q 1309 2541 1236 2297 
Q 1163 2053 1163 1550 
Q 1163 997 1244 731 
Q 1325 466 1466 347 
Q 1538 288 1663 288 
Q 1938 288 2181 719 
L 2181 2256 
z
" transform="scale(0.015625)"/>
      <path id="TimesNewRomanPS-BoldMT-76" d="M 1534 -88 
L 550 2178 
Q 372 2588 272 2697 
Q 200 2778 59 2806 
L 59 2922 
L 1613 2922 
L 1613 2806 
Q 1466 2806 1413 2753 
Q 1338 2684 1338 2591 
Q 1338 2475 1475 2156 
L 1956 1059 
L 2341 2006 
Q 2506 2413 2506 2581 
Q 2506 2678 2436 2739 
Q 2366 2800 2188 2806 
L 2188 2922 
L 3144 2922 
L 3144 2806 
Q 3006 2788 2918 2703 
Q 2831 2619 2656 2206 
L 1681 -88 
L 1534 -88 
z
" transform="scale(0.015625)"/>
      <path id="TimesNewRomanPS-BoldMT-72" d="M 1428 2922 
L 1428 2259 
Q 1719 2713 1937 2861 
Q 2156 3009 2359 3009 
Q 2534 3009 2639 2901 
Q 2744 2794 2744 2597 
Q 2744 2388 2642 2272 
Q 2541 2156 2397 2156 
Q 2231 2156 2109 2262 
Q 1988 2369 1966 2381 
Q 1934 2400 1894 2400 
Q 1803 2400 1722 2331 
Q 1594 2225 1528 2028 
Q 1428 1725 1428 1359 
L 1428 688 
L 1431 513 
Q 1431 334 1453 284 
Q 1491 200 1564 161 
Q 1638 122 1813 113 
L 1813 0 
L 234 0 
L 234 113 
Q 425 128 492 217 
Q 559 306 559 688 
L 559 2303 
Q 559 2553 534 2622 
Q 503 2709 443 2750 
Q 384 2791 234 2806 
L 234 2922 
L 1428 2922 
z
" transform="scale(0.015625)"/>
      <path id="TimesNewRomanPS-BoldMT-67" d="M 2091 2888 
L 3075 2888 
L 3075 2544 
L 2516 2544 
Q 2669 2391 2728 2266 
Q 2803 2097 2803 1913 
Q 2803 1600 2629 1370 
Q 2456 1141 2157 1011 
Q 1859 881 1628 881 
Q 1609 881 1253 897 
Q 1113 897 1017 805 
Q 922 713 922 584 
Q 922 472 1008 400 
Q 1094 328 1288 328 
L 1828 334 
Q 2484 334 2731 191 
Q 3084 -9 3084 -425 
Q 3084 -691 2921 -908 
Q 2759 -1125 2494 -1228 
Q 2091 -1381 1566 -1381 
Q 1172 -1381 847 -1304 
Q 522 -1228 381 -1092 
Q 241 -956 241 -806 
Q 241 -663 348 -548 
Q 456 -434 750 -356 
Q 344 -156 344 200 
Q 344 416 509 619 
Q 675 822 1034 972 
Q 616 1125 428 1375 
Q 241 1625 241 1953 
Q 241 2381 591 2695 
Q 941 3009 1491 3009 
Q 1781 3009 2091 2888 
z
M 1550 2816 
Q 1369 2816 1244 2633 
Q 1119 2450 1119 1875 
Q 1119 1409 1242 1236 
Q 1366 1063 1534 1063 
Q 1722 1063 1847 1234 
Q 1972 1406 1972 1903 
Q 1972 2463 1831 2666 
Q 1731 2816 1550 2816 
z
M 1366 -431 
Q 1047 -431 944 -484 
Q 766 -581 766 -747 
Q 766 -906 950 -1036 
Q 1134 -1166 1644 -1166 
Q 2078 -1166 2326 -1050 
Q 2575 -934 2575 -725 
Q 2575 -647 2528 -594 
Q 2444 -500 2273 -465 
Q 2103 -431 1366 -431 
z
" transform="scale(0.015625)"/>
      <path id="TimesNewRomanPS-BoldMT-63" d="M 2600 753 
L 2697 678 
Q 2491 291 2183 101 
Q 1875 -88 1528 -88 
Q 944 -88 594 353 
Q 244 794 244 1413 
Q 244 2009 563 2463 
Q 947 3009 1622 3009 
Q 2075 3009 2342 2781 
Q 2609 2553 2609 2272 
Q 2609 2094 2501 1987 
Q 2394 1881 2219 1881 
Q 2034 1881 1914 2003 
Q 1794 2125 1766 2438 
Q 1747 2634 1675 2713 
Q 1603 2791 1506 2791 
Q 1356 2791 1250 2631 
Q 1088 2391 1088 1894 
Q 1088 1481 1219 1104 
Q 1350 728 1578 544 
Q 1750 409 1984 409 
Q 2138 409 2275 481 
Q 2413 553 2600 753 
z
" transform="scale(0.015625)"/>
      <path id="TimesNewRomanPS-BoldMT-28" d="M 2056 4334 
L 2056 4191 
Q 1731 3978 1578 3775 
Q 1366 3494 1247 3053 
Q 1097 2506 1097 1525 
Q 1097 600 1233 87 
Q 1369 -425 1603 -741 
Q 1766 -959 2056 -1125 
L 2056 -1281 
Q 1303 -1028 779 -248 
Q 256 531 256 1544 
Q 256 2544 778 3314 
Q 1300 4084 2056 4334 
z
" transform="scale(0.015625)"/>
      <path id="TimesNewRomanPS-BoldMT-6d" d="M 1428 2922 
L 1428 2538 
Q 1669 2800 1873 2904 
Q 2078 3009 2322 3009 
Q 2603 3009 2793 2878 
Q 2984 2747 3088 2478 
Q 3338 2759 3567 2884 
Q 3797 3009 4047 3009 
Q 4350 3009 4529 2870 
Q 4709 2731 4779 2517 
Q 4850 2303 4850 1834 
L 4850 638 
Q 4850 300 4911 219 
Q 4972 138 5166 113 
L 5166 0 
L 3656 0 
L 3656 113 
Q 3834 128 3919 250 
Q 3975 334 3975 638 
L 3975 1894 
Q 3975 2284 3944 2390 
Q 3913 2497 3845 2548 
Q 3778 2600 3688 2600 
Q 3553 2600 3415 2501 
Q 3278 2403 3138 2206 
L 3138 638 
Q 3138 322 3191 241 
Q 3263 125 3466 113 
L 3466 0 
L 1953 0 
L 1953 113 
Q 2075 119 2145 173 
Q 2216 228 2239 304 
Q 2263 381 2263 638 
L 2263 1894 
Q 2263 2291 2231 2391 
Q 2200 2491 2126 2547 
Q 2053 2603 1969 2603 
Q 1844 2603 1741 2538 
Q 1594 2441 1428 2206 
L 1428 638 
Q 1428 328 1489 229 
Q 1550 131 1744 113 
L 1744 0 
L 238 0 
L 238 113 
Q 422 131 500 231 
Q 553 300 553 638 
L 553 2288 
Q 553 2619 492 2700 
Q 431 2781 238 2806 
L 238 2922 
L 1428 2922 
z
" transform="scale(0.015625)"/>
      <path id="TimesNewRomanPS-BoldMT-69" d="M 919 4338 
Q 1122 4338 1262 4195 
Q 1403 4053 1403 3853 
Q 1403 3653 1261 3512 
Q 1119 3372 919 3372 
Q 719 3372 578 3512 
Q 438 3653 438 3853 
Q 438 4053 578 4195 
Q 719 4338 919 4338 
z
M 1356 2922 
L 1356 606 
Q 1356 297 1428 211 
Q 1500 125 1709 113 
L 1709 0 
L 131 0 
L 131 113 
Q 325 119 419 225 
Q 481 297 481 606 
L 481 2313 
Q 481 2622 409 2708 
Q 338 2794 131 2806 
L 131 2922 
L 1356 2922 
z
" transform="scale(0.015625)"/>
      <path id="TimesNewRomanPS-BoldMT-55" d="M 150 4238 
L 2338 4238 
L 2338 4122 
L 2228 4122 
Q 1981 4122 1889 4070 
Q 1797 4019 1758 3928 
Q 1719 3838 1719 3475 
L 1719 1400 
Q 1719 831 1805 647 
Q 1891 463 2087 341 
Q 2284 219 2584 219 
Q 2928 219 3170 373 
Q 3413 528 3533 800 
Q 3653 1072 3653 1747 
L 3653 3475 
Q 3653 3759 3593 3881 
Q 3534 4003 3444 4050 
Q 3303 4122 3047 4122 
L 3047 4238 
L 4513 4238 
L 4513 4122 
L 4425 4122 
Q 4247 4122 4128 4050 
Q 4009 3978 3956 3834 
Q 3916 3734 3916 3475 
L 3916 1866 
Q 3916 1119 3817 787 
Q 3719 456 3337 178 
Q 2956 -100 2297 -100 
Q 1747 -100 1447 47 
Q 1038 247 869 559 
Q 700 872 700 1400 
L 700 3475 
Q 700 3841 659 3930 
Q 619 4019 519 4072 
Q 419 4125 150 4122 
L 150 4238 
z
" transform="scale(0.015625)"/>
      <path id="TimesNewRomanPS-BoldMT-53" d="M 3006 4334 
L 3041 2922 
L 2913 2922 
Q 2822 3453 2467 3776 
Q 2113 4100 1700 4100 
Q 1381 4100 1195 3929 
Q 1009 3759 1009 3538 
Q 1009 3397 1075 3288 
Q 1166 3141 1366 2997 
Q 1513 2894 2044 2631 
Q 2788 2266 3047 1941 
Q 3303 1616 3303 1197 
Q 3303 666 2889 283 
Q 2475 -100 1838 -100 
Q 1638 -100 1459 -59 
Q 1281 -19 1013 94 
Q 863 156 766 156 
Q 684 156 593 93 
Q 503 31 447 -97 
L 331 -97 
L 331 1503 
L 447 1503 
Q 584 828 976 473 
Q 1369 119 1822 119 
Q 2172 119 2380 309 
Q 2588 500 2588 753 
Q 2588 903 2508 1043 
Q 2428 1184 2265 1311 
Q 2103 1438 1691 1641 
Q 1113 1925 859 2125 
Q 606 2325 470 2572 
Q 334 2819 334 3116 
Q 334 3622 706 3978 
Q 1078 4334 1644 4334 
Q 1850 4334 2044 4284 
Q 2191 4247 2402 4145 
Q 2613 4044 2697 4044 
Q 2778 4044 2825 4094 
Q 2872 4144 2913 4334 
L 3006 4334 
z
" transform="scale(0.015625)"/>
      <path id="TimesNewRomanPS-BoldMT-29" d="M 78 -1281 
L 78 -1138 
Q 403 -922 556 -719 
Q 766 -438 888 0 
Q 1038 550 1038 1531 
Q 1038 2456 902 2967 
Q 766 3478 531 3794 
Q 369 4013 78 4178 
L 78 4334 
Q 831 4081 1354 3301 
Q 1878 2522 1878 1509 
Q 1878 513 1354 -257 
Q 831 -1028 78 -1281 
z
" transform="scale(0.015625)"/>
     </defs>
     <use xlink:href="#TimesNewRomanPS-BoldMT-44"/>
     <use xlink:href="#TimesNewRomanPS-BoldMT-61" x="72.216797"/>
     <use xlink:href="#TimesNewRomanPS-BoldMT-74" x="122.216797"/>
     <use xlink:href="#TimesNewRomanPS-BoldMT-61" x="155.517578"/>
     <use xlink:href="#TimesNewRomanPS-BoldMT-20" x="205.517578"/>
     <use xlink:href="#TimesNewRomanPS-BoldMT-6f" x="230.517578"/>
     <use xlink:href="#TimesNewRomanPS-BoldMT-6e" x="280.517578"/>
     <use xlink:href="#TimesNewRomanPS-BoldMT-20" x="336.132812"/>
     <use xlink:href="#TimesNewRomanPS-BoldMT-74" x="361.132812"/>
     <use xlink:href="#TimesNewRomanPS-BoldMT-68" x="394.433594"/>
     <use xlink:href="#TimesNewRomanPS-BoldMT-65" x="450.048828"/>
     <use xlink:href="#TimesNewRomanPS-BoldMT-20" x="494.433594"/>
     <use xlink:href="#TimesNewRomanPS-BoldMT-73" x="519.433594"/>
     <use xlink:href="#TimesNewRomanPS-BoldMT-61" x="558.349609"/>
     <use xlink:href="#TimesNewRomanPS-BoldMT-6c" x="608.349609"/>
     <use xlink:href="#TimesNewRomanPS-BoldMT-65" x="636.132812"/>
     <use xlink:href="#TimesNewRomanPS-BoldMT-73" x="680.517578"/>
     <use xlink:href="#TimesNewRomanPS-BoldMT-20" x="719.433594"/>
     <use xlink:href="#TimesNewRomanPS-BoldMT-62" x="744.433594"/>
     <use xlink:href="#TimesNewRomanPS-BoldMT-79" x="800.048828"/>
     <use xlink:href="#TimesNewRomanPS-BoldMT-20" x="850.048828"/>
     <use xlink:href="#TimesNewRomanPS-BoldMT-66" x="875.048828"/>
     <use xlink:href="#TimesNewRomanPS-BoldMT-6f" x="908.349609"/>
     <use xlink:href="#TimesNewRomanPS-BoldMT-6f" x="958.349609"/>
     <use xlink:href="#TimesNewRomanPS-BoldMT-64" x="1008.349609"/>
     <use xlink:href="#TimesNewRomanPS-BoldMT-20" x="1063.964844"/>
     <use xlink:href="#TimesNewRomanPS-BoldMT-61" x="1088.964844"/>
     <use xlink:href="#TimesNewRomanPS-BoldMT-6e" x="1138.964844"/>
     <use xlink:href="#TimesNewRomanPS-BoldMT-64" x="1194.580078"/>
     <use xlink:href="#TimesNewRomanPS-BoldMT-20" x="1250.195312"/>
     <use xlink:href="#TimesNewRomanPS-BoldMT-62" x="1275.195312"/>
     <use xlink:href="#TimesNewRomanPS-BoldMT-65" x="1330.810547"/>
     <use xlink:href="#TimesNewRomanPS-BoldMT-76" x="1375.195312"/>
     <use xlink:href="#TimesNewRomanPS-BoldMT-65" x="1425.195312"/>
     <use xlink:href="#TimesNewRomanPS-BoldMT-72" x="1469.580078"/>
     <use xlink:href="#TimesNewRomanPS-BoldMT-61" x="1513.964844"/>
     <use xlink:href="#TimesNewRomanPS-BoldMT-67" x="1563.964844"/>
     <use xlink:href="#TimesNewRomanPS-BoldMT-65" x="1613.964844"/>
     <use xlink:href="#TimesNewRomanPS-BoldMT-20" x="1658.349609"/>
     <use xlink:href="#TimesNewRomanPS-BoldMT-73" x="1683.349609"/>
     <use xlink:href="#TimesNewRomanPS-BoldMT-65" x="1722.265625"/>
     <use xlink:href="#TimesNewRomanPS-BoldMT-63" x="1766.650391"/>
     <use xlink:href="#TimesNewRomanPS-BoldMT-74" x="1811.035156"/>
     <use xlink:href="#TimesNewRomanPS-BoldMT-6f" x="1844.335938"/>
     <use xlink:href="#TimesNewRomanPS-BoldMT-72" x="1894.335938"/>
     <use xlink:href="#TimesNewRomanPS-BoldMT-73" x="1938.720703"/>
     <use xlink:href="#TimesNewRomanPS-BoldMT-20" x="1977.636719"/>
     <use xlink:href="#TimesNewRomanPS-BoldMT-28" x="2002.636719"/>
     <use xlink:href="#TimesNewRomanPS-BoldMT-6d" x="2035.9375"/>
     <use xlink:href="#TimesNewRomanPS-BoldMT-69" x="2119.238281"/>
     <use xlink:href="#TimesNewRomanPS-BoldMT-6c" x="2147.021484"/>
     <use xlink:href="#TimesNewRomanPS-BoldMT-6c" x="2174.804688"/>
     <use xlink:href="#TimesNewRomanPS-BoldMT-69" x="2202.587891"/>
     <use xlink:href="#TimesNewRomanPS-BoldMT-6f" x="2230.371094"/>
     <use xlink:href="#TimesNewRomanPS-BoldMT-6e" x="2280.371094"/>
     <use xlink:href="#TimesNewRomanPS-BoldMT-20" x="2335.986328"/>
     <use xlink:href="#TimesNewRomanPS-BoldMT-55" x="2360.986328"/>
     <use xlink:href="#TimesNewRomanPS-BoldMT-53" x="2433.203125"/>
     <use xlink:href="#TimesNewRomanPS-BoldMT-44" x="2488.818359"/>
     <use xlink:href="#TimesNewRomanPS-BoldMT-29" x="2561.035156"/>
    </g>
   </g>
  </g>
 </g>
 <defs>
  <clipPath id="p7bbb25916a">
   <rect x="50.915938" y="30.045" width="376.8" height="204.608489"/>
  </clipPath>
 </defs>
</svg>
