<?xml version="1.0" encoding="utf-8" standalone="no"?>
<!DOCTYPE svg PUBLIC "-//W3C//DTD SVG 1.1//EN"
  "http://www.w3.org/Graphics/SVG/1.1/DTD/svg11.dtd">
<svg xmlns:xlink="http://www.w3.org/1999/xlink" width="458.359687pt" height="319.966776pt" viewBox="0 0 458.359687 319.966776" xmlns="http://www.w3.org/2000/svg" version="1.1">
 <metadata>
  <rdf:RDF xmlns:dc="http://purl.org/dc/elements/1.1/" xmlns:cc="http://creativecommons.org/ns#" xmlns:rdf="http://www.w3.org/1999/02/22-rdf-syntax-ns#">
   <cc:Work>
    <dc:type rdf:resource="http://purl.org/dc/dcmitype/StillImage"/>
    <dc:date>2025-05-26T16:56:11.318769</dc:date>
    <dc:format>image/svg+xml</dc:format>
    <dc:creator>
     <cc:Agent>
      <dc:title>Matplotlib v3.7.2, https://matplotlib.org/</dc:title>
     </cc:Agent>
    </dc:creator>
   </cc:Work>
  </rdf:RDF>
 </metadata>
 <defs>
  <style type="text/css">*{stroke-linejoin: round; stroke-linecap: butt}</style>
 </defs>
 <g id="figure_1">
  <g id="patch_1">
   <path d="M 0 319.966776 
L 458.359687 319.966776 
L 458.359687 0 
L 0 0 
z
" style="fill: #ffffff"/>
  </g>
  <g id="axes_1">
   <g id="patch_2">
    <path d="M 50.915938 264.606533 
L 427.715937 264.606533 
L 427.715937 30.045 
L 50.915938 30.045 
z
" style="fill: #ffffff"/>
   </g>
   <g id="PolyCollection_1">
    <defs>
     <path id="me000096af1" d="M 116.617296 -73.319241 
L 110.814579 -73.319241 
L 110.408928 -74.896362 
L 109.94786 -76.473483 
L 109.425806 -78.050604 
L 108.838168 -79.627725 
L 108.181778 -81.204846 
L 107.455311 -82.781967 
L 106.659595 -84.359088 
L 105.797799 -85.936209 
L 104.875437 -87.51333 
L 103.900205 -89.090451 
L 102.88162 -90.667572 
L 101.830516 -92.244693 
L 100.75841 -93.821814 
L 99.67681 -95.398935 
L 98.596526 -96.976056 
L 97.527055 -98.553177 
L 96.476096 -100.130298 
L 95.449243 -101.707419 
L 94.449893 -103.28454 
L 93.47936 -104.861661 
L 92.537177 -106.438782 
L 91.62155 -108.015903 
L 90.729884 -109.593024 
L 89.859329 -111.170145 
L 89.007254 -112.747266 
L 88.1716 -114.324387 
L 87.351063 -115.901508 
L 86.545082 -117.478629 
L 85.753638 -119.05575 
L 84.976902 -120.632871 
L 84.214778 -122.209992 
L 83.466421 -123.787113 
L 82.729803 -125.364234 
L 82.001397 -126.941355 
L 81.27605 -128.518476 
L 80.547072 -130.095597 
L 79.806566 -131.672718 
L 79.045979 -133.249839 
L 78.256823 -134.82696 
L 77.431517 -136.404081 
L 76.564246 -137.981202 
L 75.651776 -139.558323 
L 74.694113 -141.135444 
L 73.694951 -142.712565 
L 72.661858 -144.289686 
L 71.606166 -145.866807 
L 70.542579 -147.443928 
L 69.488527 -149.021049 
L 68.463327 -150.59817 
L 67.487221 -152.175291 
L 66.580378 -153.752412 
L 65.761936 -155.329533 
L 65.049167 -156.906654 
L 64.456801 -158.483775 
L 63.996549 -160.060896 
L 63.67684 -161.638017 
L 63.502724 -163.215138 
L 63.475938 -164.792259 
L 63.595064 -166.36938 
L 63.855746 -167.946501 
L 64.250912 -169.523622 
L 64.770986 -171.100743 
L 65.404071 -172.677864 
L 66.136129 -174.254985 
L 66.951175 -175.832106 
L 67.831535 -177.409227 
L 68.758214 -178.986348 
L 69.711405 -180.563469 
L 70.67116 -182.14059 
L 71.618222 -183.717711 
L 72.534991 -185.294832 
L 73.406546 -186.871953 
L 74.221661 -188.449074 
L 74.973694 -190.026195 
L 75.661271 -191.603316 
L 76.288651 -193.180437 
L 76.865717 -194.757558 
L 77.407564 -196.334679 
L 77.933662 -197.9118 
L 78.466675 -199.488921 
L 79.030989 -201.066042 
L 79.651085 -202.643163 
L 80.349867 -204.220284 
L 81.147109 -205.797405 
L 82.058108 -207.374526 
L 83.092685 -208.951647 
L 84.254573 -210.528768 
L 85.541238 -212.105889 
L 86.944125 -213.68301 
L 88.449278 -215.260131 
L 90.038268 -216.837252 
L 91.689337 -218.414373 
L 93.378647 -219.991494 
L 95.081553 -221.568615 
L 96.773783 -223.145736 
L 98.432493 -224.722857 
L 100.037099 -226.299978 
L 101.569905 -227.877099 
L 103.01649 -229.45422 
L 124.415385 -229.45422 
L 124.415385 -229.45422 
L 125.86197 -227.877099 
L 127.394776 -226.299978 
L 128.999382 -224.722857 
L 130.658092 -223.145736 
L 132.350322 -221.568615 
L 134.053228 -219.991494 
L 135.742538 -218.414373 
L 137.393607 -216.837252 
L 138.982597 -215.260131 
L 140.48775 -213.68301 
L 141.890637 -212.105889 
L 143.177302 -210.528768 
L 144.33919 -208.951647 
L 145.373767 -207.374526 
L 146.284766 -205.797405 
L 147.082008 -204.220284 
L 147.78079 -202.643163 
L 148.400886 -201.066042 
L 148.9652 -199.488921 
L 149.498213 -197.9118 
L 150.024311 -196.334679 
L 150.566158 -194.757558 
L 151.143224 -193.180437 
L 151.770604 -191.603316 
L 152.458181 -190.026195 
L 153.210214 -188.449074 
L 154.025329 -186.871953 
L 154.896884 -185.294832 
L 155.813653 -183.717711 
L 156.760715 -182.14059 
L 157.72047 -180.563469 
L 158.673661 -178.986348 
L 159.60034 -177.409227 
L 160.4807 -175.832106 
L 161.295746 -174.254985 
L 162.027804 -172.677864 
L 162.660889 -171.100743 
L 163.180963 -169.523622 
L 163.576129 -167.946501 
L 163.836811 -166.36938 
L 163.955938 -164.792259 
L 163.929151 -163.215138 
L 163.755035 -161.638017 
L 163.435326 -160.060896 
L 162.975074 -158.483775 
L 162.382708 -156.906654 
L 161.669939 -155.329533 
L 160.851497 -153.752412 
L 159.944654 -152.175291 
L 158.968548 -150.59817 
L 157.943348 -149.021049 
L 156.889296 -147.443928 
L 155.825709 -145.866807 
L 154.770017 -144.289686 
L 153.736924 -142.712565 
L 152.737762 -141.135444 
L 151.780099 -139.558323 
L 150.867629 -137.981202 
L 150.000358 -136.404081 
L 149.175052 -134.82696 
L 148.385896 -133.249839 
L 147.625309 -131.672718 
L 146.884803 -130.095597 
L 146.155825 -128.518476 
L 145.430478 -126.941355 
L 144.702072 -125.364234 
L 143.965454 -123.787113 
L 143.217097 -122.209992 
L 142.454973 -120.632871 
L 141.678237 -119.05575 
L 140.886793 -117.478629 
L 140.080812 -115.901508 
L 139.260275 -114.324387 
L 138.424621 -112.747266 
L 137.572546 -111.170145 
L 136.701991 -109.593024 
L 135.810325 -108.015903 
L 134.894698 -106.438782 
L 133.952515 -104.861661 
L 132.981982 -103.28454 
L 131.982632 -101.707419 
L 130.955779 -100.130298 
L 129.90482 -98.553177 
L 128.835349 -96.976056 
L 127.755065 -95.398935 
L 126.673465 -93.821814 
L 125.601359 -92.244693 
L 124.550255 -90.667572 
L 123.53167 -89.090451 
L 122.556438 -87.51333 
L 121.634076 -85.936209 
L 120.77228 -84.359088 
L 119.976564 -82.781967 
L 119.250097 -81.204846 
L 118.593707 -79.627725 
L 118.006069 -78.050604 
L 117.484015 -76.473483 
L 117.022947 -74.896362 
L 116.617296 -73.319241 
z
" style="stroke: #000000; stroke-opacity: 0.7"/>
    </defs>
    <g clip-path="url(#p2f9e3cf2e8)">
     <use xlink:href="#me000096af1" x="0" y="319.966776" style="fill: #1f77b4; fill-opacity: 0.7; stroke: #000000; stroke-opacity: 0.7"/>
    </g>
   </g>
   <g id="PolyCollection_2">
    <defs>
     <path id="m51a0f6d4ea" d="M 243.635572 -66.022132 
L 234.996303 -66.022132 
L 234.623331 -67.909295 
L 234.234306 -69.796458 
L 233.823922 -71.683622 
L 233.385267 -73.570785 
L 232.909961 -75.457948 
L 232.38839 -77.345112 
L 231.810048 -79.232275 
L 231.163955 -81.119438 
L 230.439161 -83.006602 
L 229.625298 -84.893765 
L 228.713177 -86.780928 
L 227.695388 -88.668092 
L 226.566891 -90.555255 
L 225.325549 -92.442418 
L 223.972585 -94.329582 
L 222.512918 -96.216745 
L 220.955337 -98.103908 
L 219.312503 -99.991072 
L 217.600726 -101.878235 
L 215.839542 -103.765398 
L 214.051055 -105.652562 
L 212.259105 -107.539725 
L 210.488267 -109.426888 
L 208.762764 -111.314052 
L 207.105344 -113.201215 
L 205.536223 -115.088378 
L 204.072149 -116.975542 
L 202.725685 -118.862705 
L 201.50475 -120.749868 
L 200.412476 -122.637032 
L 199.447366 -124.524195 
L 198.603751 -126.411358 
L 197.872496 -128.298522 
L 197.241863 -130.185685 
L 196.698466 -132.072848 
L 196.228214 -133.960012 
L 195.817155 -135.847175 
L 195.452151 -137.734338 
L 195.121353 -139.621502 
L 194.814453 -141.508665 
L 194.522732 -143.395828 
L 194.238952 -145.282992 
L 193.957158 -147.170155 
L 193.672441 -149.057318 
L 193.380754 -150.944482 
L 193.0788 -152.831645 
L 192.764053 -154.718808 
L 192.434893 -156.605972 
L 192.090852 -158.493135 
L 191.732929 -160.380298 
L 191.363929 -162.267462 
L 190.988759 -164.154625 
L 190.614648 -166.041788 
L 190.251231 -167.928952 
L 189.91047 -169.816115 
L 189.606407 -171.703278 
L 189.354734 -173.590442 
L 189.172208 -175.477605 
L 189.075938 -177.364768 
L 189.082585 -179.251932 
L 189.207526 -181.139095 
L 189.464035 -183.026258 
L 189.862542 -184.913422 
L 190.410019 -186.800585 
L 191.109549 -188.687748 
L 191.960104 -190.574912 
L 192.956556 -192.462075 
L 194.089919 -194.349238 
L 195.347809 -196.236402 
L 196.715066 -198.123565 
L 198.174503 -200.010728 
L 199.707704 -201.897892 
L 201.295814 -203.785055 
L 202.920254 -205.672218 
L 204.563318 -207.559382 
L 206.208632 -209.446545 
L 207.841446 -211.333708 
L 209.448796 -213.220872 
L 211.019549 -215.108035 
L 212.54437 -216.995198 
L 214.015652 -218.882362 
L 215.42745 -220.769525 
L 216.775425 -222.656688 
L 218.056831 -224.543852 
L 219.270514 -226.431015 
L 220.416925 -228.318178 
L 221.498104 -230.205342 
L 222.517619 -232.092505 
L 223.480422 -233.979668 
L 224.392617 -235.866832 
L 225.261135 -237.753995 
L 226.093324 -239.641158 
L 226.896488 -241.528322 
L 227.677408 -243.415485 
L 228.441888 -245.302648 
L 229.194373 -247.189812 
L 229.937667 -249.076975 
L 230.672789 -250.964138 
L 231.39897 -252.851302 
L 247.232905 -252.851302 
L 247.232905 -252.851302 
L 247.959086 -250.964138 
L 248.694208 -249.076975 
L 249.437502 -247.189812 
L 250.189987 -245.302648 
L 250.954467 -243.415485 
L 251.735387 -241.528322 
L 252.538551 -239.641158 
L 253.37074 -237.753995 
L 254.239258 -235.866832 
L 255.151453 -233.979668 
L 256.114256 -232.092505 
L 257.133771 -230.205342 
L 258.21495 -228.318178 
L 259.361361 -226.431015 
L 260.575044 -224.543852 
L 261.85645 -222.656688 
L 263.204425 -220.769525 
L 264.616223 -218.882362 
L 266.087505 -216.995198 
L 267.612326 -215.108035 
L 269.183079 -213.220872 
L 270.790429 -211.333708 
L 272.423243 -209.446545 
L 274.068557 -207.559382 
L 275.711621 -205.672218 
L 277.336061 -203.785055 
L 278.924171 -201.897892 
L 280.457372 -200.010728 
L 281.916809 -198.123565 
L 283.284066 -196.236402 
L 284.541956 -194.349238 
L 285.675319 -192.462075 
L 286.671771 -190.574912 
L 287.522326 -188.687748 
L 288.221856 -186.800585 
L 288.769333 -184.913422 
L 289.16784 -183.026258 
L 289.424349 -181.139095 
L 289.54929 -179.251932 
L 289.555937 -177.364768 
L 289.459667 -175.477605 
L 289.277141 -173.590442 
L 289.025468 -171.703278 
L 288.721405 -169.816115 
L 288.380644 -167.928952 
L 288.017227 -166.041788 
L 287.643116 -164.154625 
L 287.267946 -162.267462 
L 286.898946 -160.380298 
L 286.541023 -158.493135 
L 286.196982 -156.605972 
L 285.867822 -154.718808 
L 285.553075 -152.831645 
L 285.251121 -150.944482 
L 284.959434 -149.057318 
L 284.674717 -147.170155 
L 284.392923 -145.282992 
L 284.109143 -143.395828 
L 283.817422 -141.508665 
L 283.510522 -139.621502 
L 283.179724 -137.734338 
L 282.81472 -135.847175 
L 282.403661 -133.960012 
L 281.933409 -132.072848 
L 281.390012 -130.185685 
L 280.759379 -128.298522 
L 280.028124 -126.411358 
L 279.184509 -124.524195 
L 278.219399 -122.637032 
L 277.127125 -120.749868 
L 275.90619 -118.862705 
L 274.559726 -116.975542 
L 273.095652 -115.088378 
L 271.526531 -113.201215 
L 269.869111 -111.314052 
L 268.143608 -109.426888 
L 266.37277 -107.539725 
L 264.58082 -105.652562 
L 262.792333 -103.765398 
L 261.031149 -101.878235 
L 259.319372 -99.991072 
L 257.676538 -98.103908 
L 256.118957 -96.216745 
L 254.65929 -94.329582 
L 253.306326 -92.442418 
L 252.064984 -90.555255 
L 250.936487 -88.668092 
L 249.918698 -86.780928 
L 249.006577 -84.893765 
L 248.192714 -83.006602 
L 247.46792 -81.119438 
L 246.821827 -79.232275 
L 246.243485 -77.345112 
L 245.721914 -75.457948 
L 245.246608 -73.570785 
L 244.807953 -71.683622 
L 244.397569 -69.796458 
L 244.008544 -67.909295 
L 243.635572 -66.022132 
z
" style="stroke: #000000; stroke-opacity: 0.7"/>
    </defs>
    <g clip-path="url(#p2f9e3cf2e8)">
     <use xlink:href="#m51a0f6d4ea" x="0" y="319.966776" style="fill: #ff7f0e; fill-opacity: 0.7; stroke: #000000; stroke-opacity: 0.7"/>
    </g>
   </g>
   <g id="PolyCollection_3">
    <defs>
     <path id="m1b0895311b" d="M 368.447282 -105.866666 
L 361.384593 -105.866666 
L 361.039591 -107.618113 
L 360.680226 -109.36956 
L 360.30324 -111.121006 
L 359.904204 -112.872453 
L 359.477652 -114.6239 
L 359.017288 -116.375346 
L 358.516256 -118.126793 
L 357.967463 -119.87824 
L 357.363947 -121.629687 
L 356.699284 -123.381133 
L 355.968016 -125.13258 
L 355.166114 -126.884027 
L 354.291437 -128.635473 
L 353.344173 -130.38692 
L 352.327237 -132.138367 
L 351.246569 -133.889813 
L 350.111299 -135.64126 
L 348.933722 -137.392707 
L 347.729055 -139.144153 
L 346.514938 -140.8956 
L 345.310688 -142.647047 
L 344.136315 -144.398493 
L 343.011364 -146.14994 
L 341.95364 -147.901387 
L 340.977932 -149.652834 
L 340.094829 -151.40428 
L 339.309762 -153.155727 
L 338.622344 -154.907174 
L 338.026119 -156.65862 
L 337.508747 -158.410067 
L 337.052628 -160.161514 
L 336.635936 -161.91296 
L 336.233974 -163.664407 
L 335.820733 -165.415854 
L 335.370528 -167.1673 
L 334.859572 -168.918747 
L 334.267362 -170.670194 
L 333.577788 -172.42164 
L 332.779905 -174.173087 
L 331.868357 -175.924534 
L 330.843472 -177.675981 
L 329.711087 -179.427427 
L 328.482176 -181.178874 
L 327.172348 -182.930321 
L 325.801295 -184.681767 
L 324.392222 -186.433214 
L 322.9713 -188.184661 
L 321.567128 -189.936107 
L 320.21019 -191.687554 
L 318.932275 -193.439001 
L 317.765808 -195.190447 
L 316.743079 -196.941894 
L 315.895327 -198.693341 
L 315.251694 -200.444787 
L 314.838079 -202.196234 
L 314.675937 -203.947681 
L 314.781115 -205.699128 
L 315.162821 -207.450574 
L 315.822839 -209.202021 
L 316.755087 -210.953468 
L 317.945597 -212.704914 
L 319.372965 -214.456361 
L 321.009267 -216.207808 
L 322.821385 -217.959254 
L 324.772641 -219.710701 
L 326.82462 -221.462148 
L 328.938997 -223.213594 
L 331.079246 -224.965041 
L 333.212069 -226.716488 
L 335.308458 -228.467935 
L 337.344339 -230.219381 
L 339.300781 -231.970828 
L 341.16383 -233.722275 
L 342.924034 -235.473721 
L 344.575764 -237.225168 
L 346.11644 -238.976615 
L 347.545763 -240.728061 
L 348.865035 -242.479508 
L 350.076633 -244.230955 
L 351.183648 -245.982401 
L 352.189717 -247.733848 
L 353.098996 -249.485295 
L 353.916254 -251.236741 
L 354.647013 -252.988188 
L 355.297703 -254.739635 
L 355.875754 -256.491082 
L 356.389604 -258.242528 
L 356.848582 -259.993975 
L 357.262676 -261.745422 
L 357.642182 -263.496868 
L 357.997282 -265.248315 
L 358.337561 -266.999762 
L 358.671553 -268.751208 
L 359.006319 -270.502655 
L 359.347131 -272.254102 
L 359.697279 -274.005548 
L 360.058014 -275.756995 
L 360.428642 -277.508442 
L 360.806748 -279.259888 
L 369.025127 -279.259888 
L 369.025127 -279.259888 
L 369.403233 -277.508442 
L 369.773861 -275.756995 
L 370.134596 -274.005548 
L 370.484744 -272.254102 
L 370.825556 -270.502655 
L 371.160322 -268.751208 
L 371.494314 -266.999762 
L 371.834593 -265.248315 
L 372.189693 -263.496868 
L 372.569199 -261.745422 
L 372.983293 -259.993975 
L 373.442271 -258.242528 
L 373.956121 -256.491082 
L 374.534172 -254.739635 
L 375.184862 -252.988188 
L 375.915621 -251.236741 
L 376.732879 -249.485295 
L 377.642158 -247.733848 
L 378.648227 -245.982401 
L 379.755242 -244.230955 
L 380.96684 -242.479508 
L 382.286112 -240.728061 
L 383.715435 -238.976615 
L 385.256111 -237.225168 
L 386.907841 -235.473721 
L 388.668045 -233.722275 
L 390.531094 -231.970828 
L 392.487536 -230.219381 
L 394.523417 -228.467935 
L 396.619806 -226.716488 
L 398.752629 -224.965041 
L 400.892878 -223.213594 
L 403.007255 -221.462148 
L 405.059234 -219.710701 
L 407.01049 -217.959254 
L 408.822608 -216.207808 
L 410.45891 -214.456361 
L 411.886278 -212.704914 
L 413.076788 -210.953468 
L 414.009036 -209.202021 
L 414.669054 -207.450574 
L 415.05076 -205.699128 
L 415.155937 -203.947681 
L 414.993796 -202.196234 
L 414.580181 -200.444787 
L 413.936548 -198.693341 
L 413.088796 -196.941894 
L 412.066067 -195.190447 
L 410.8996 -193.439001 
L 409.621685 -191.687554 
L 408.264747 -189.936107 
L 406.860575 -188.184661 
L 405.439653 -186.433214 
L 404.03058 -184.681767 
L 402.659527 -182.930321 
L 401.349699 -181.178874 
L 400.120788 -179.427427 
L 398.988403 -177.675981 
L 397.963518 -175.924534 
L 397.05197 -174.173087 
L 396.254087 -172.42164 
L 395.564513 -170.670194 
L 394.972303 -168.918747 
L 394.461347 -167.1673 
L 394.011142 -165.415854 
L 393.597901 -163.664407 
L 393.195939 -161.91296 
L 392.779247 -160.161514 
L 392.323128 -158.410067 
L 391.805756 -156.65862 
L 391.209531 -154.907174 
L 390.522113 -153.155727 
L 389.737046 -151.40428 
L 388.853943 -149.652834 
L 387.878235 -147.901387 
L 386.820511 -146.14994 
L 385.69556 -144.398493 
L 384.521187 -142.647047 
L 383.316937 -140.8956 
L 382.10282 -139.144153 
L 380.898153 -137.392707 
L 379.720576 -135.64126 
L 378.585306 -133.889813 
L 377.504638 -132.138367 
L 376.487702 -130.38692 
L 375.540438 -128.635473 
L 374.665761 -126.884027 
L 373.863859 -125.13258 
L 373.132591 -123.381133 
L 372.467928 -121.629687 
L 371.864412 -119.87824 
L 371.315619 -118.126793 
L 370.814587 -116.375346 
L 370.354223 -114.6239 
L 369.927671 -112.872453 
L 369.528635 -111.121006 
L 369.151649 -109.36956 
L 368.792284 -107.618113 
L 368.447282 -105.866666 
z
" style="stroke: #000000; stroke-opacity: 0.7"/>
    </defs>
    <g clip-path="url(#p2f9e3cf2e8)">
     <use xlink:href="#m1b0895311b" x="0" y="319.966776" style="fill: #ff9896; fill-opacity: 0.7; stroke: #000000; stroke-opacity: 0.7"/>
    </g>
   </g>
   <g id="matplotlib.axis_1">
    <g id="xtick_1">
     <g id="line2d_1">
      <defs>
       <path id="m80ca7e1688" d="M 0 0 
L 0 3.5 
" style="stroke: #000000; stroke-width: 0.8"/>
      </defs>
      <g>
       <use xlink:href="#m80ca7e1688" x="113.715937" y="264.606533" style="stroke: #000000; stroke-width: 0.8"/>
      </g>
     </g>
     <g id="text_1">
      <!-- Westport -->
      <g transform="translate(81.475846 307.923537) rotate(-45) scale(0.12 -0.12)">
       <defs>
        <path id="TimesNewRomanPSMT-57" d="M 5991 4238 
L 5991 4122 
Q 5825 4122 5722 4062 
Q 5619 4003 5525 3841 
Q 5463 3731 5328 3319 
L 4147 -97 
L 4022 -97 
L 3056 2613 
L 2097 -97 
L 1984 -97 
L 725 3422 
Q 584 3816 547 3888 
Q 484 4006 376 4064 
Q 269 4122 84 4122 
L 84 4238 
L 1653 4238 
L 1653 4122 
L 1578 4122 
Q 1413 4122 1325 4047 
Q 1238 3972 1238 3866 
Q 1238 3756 1375 3363 
L 2209 984 
L 2913 3006 
L 2788 3363 
L 2688 3647 
Q 2622 3803 2541 3922 
Q 2500 3981 2441 4022 
Q 2363 4078 2284 4103 
Q 2225 4122 2097 4122 
L 2097 4238 
L 3747 4238 
L 3747 4122 
L 3634 4122 
Q 3459 4122 3378 4047 
Q 3297 3972 3297 3844 
Q 3297 3684 3438 3288 
L 4250 984 
L 5056 3319 
Q 5194 3706 5194 3856 
Q 5194 3928 5148 3990 
Q 5103 4053 5034 4078 
Q 4916 4122 4725 4122 
L 4725 4238 
L 5991 4238 
z
" transform="scale(0.015625)"/>
        <path id="TimesNewRomanPSMT-65" d="M 681 1784 
Q 678 1147 991 784 
Q 1303 422 1725 422 
Q 2006 422 2214 576 
Q 2422 731 2563 1106 
L 2659 1044 
Q 2594 616 2278 264 
Q 1963 -88 1488 -88 
Q 972 -88 605 314 
Q 238 716 238 1394 
Q 238 2128 614 2539 
Q 991 2950 1559 2950 
Q 2041 2950 2350 2633 
Q 2659 2316 2659 1784 
L 681 1784 
z
M 681 1966 
L 2006 1966 
Q 1991 2241 1941 2353 
Q 1863 2528 1708 2628 
Q 1553 2728 1384 2728 
Q 1125 2728 920 2526 
Q 716 2325 681 1966 
z
" transform="scale(0.015625)"/>
        <path id="TimesNewRomanPSMT-73" d="M 2050 2947 
L 2050 1972 
L 1947 1972 
Q 1828 2431 1642 2597 
Q 1456 2763 1169 2763 
Q 950 2763 815 2647 
Q 681 2531 681 2391 
Q 681 2216 781 2091 
Q 878 1963 1175 1819 
L 1631 1597 
Q 2266 1288 2266 781 
Q 2266 391 1970 151 
Q 1675 -88 1309 -88 
Q 1047 -88 709 6 
Q 606 38 541 38 
Q 469 38 428 -44 
L 325 -44 
L 325 978 
L 428 978 
Q 516 541 762 319 
Q 1009 97 1316 97 
Q 1531 97 1667 223 
Q 1803 350 1803 528 
Q 1803 744 1651 891 
Q 1500 1038 1047 1263 
Q 594 1488 453 1669 
Q 313 1847 313 2119 
Q 313 2472 555 2709 
Q 797 2947 1181 2947 
Q 1350 2947 1591 2875 
Q 1750 2828 1803 2828 
Q 1853 2828 1881 2850 
Q 1909 2872 1947 2947 
L 2050 2947 
z
" transform="scale(0.015625)"/>
        <path id="TimesNewRomanPSMT-74" d="M 1031 3803 
L 1031 2863 
L 1700 2863 
L 1700 2644 
L 1031 2644 
L 1031 788 
Q 1031 509 1111 412 
Q 1191 316 1316 316 
Q 1419 316 1516 380 
Q 1613 444 1666 569 
L 1788 569 
Q 1678 263 1478 108 
Q 1278 -47 1066 -47 
Q 922 -47 784 33 
Q 647 113 581 261 
Q 516 409 516 719 
L 516 2644 
L 63 2644 
L 63 2747 
Q 234 2816 414 2980 
Q 594 3144 734 3369 
Q 806 3488 934 3803 
L 1031 3803 
z
" transform="scale(0.015625)"/>
        <path id="TimesNewRomanPSMT-70" d="M -6 2578 
L 875 2934 
L 994 2934 
L 994 2266 
Q 1216 2644 1439 2795 
Q 1663 2947 1909 2947 
Q 2341 2947 2628 2609 
Q 2981 2197 2981 1534 
Q 2981 794 2556 309 
Q 2206 -88 1675 -88 
Q 1444 -88 1275 -22 
Q 1150 25 994 166 
L 994 -706 
Q 994 -1000 1030 -1079 
Q 1066 -1159 1155 -1206 
Q 1244 -1253 1478 -1253 
L 1478 -1369 
L -22 -1369 
L -22 -1253 
L 56 -1253 
Q 228 -1256 350 -1188 
Q 409 -1153 442 -1076 
Q 475 -1000 475 -688 
L 475 2019 
Q 475 2297 450 2372 
Q 425 2447 370 2484 
Q 316 2522 222 2522 
Q 147 2522 31 2478 
L -6 2578 
z
M 994 2081 
L 994 1013 
Q 994 666 1022 556 
Q 1066 375 1236 237 
Q 1406 100 1666 100 
Q 1978 100 2172 344 
Q 2425 663 2425 1241 
Q 2425 1897 2138 2250 
Q 1938 2494 1663 2494 
Q 1513 2494 1366 2419 
Q 1253 2363 994 2081 
z
" transform="scale(0.015625)"/>
        <path id="TimesNewRomanPSMT-6f" d="M 1600 2947 
Q 2250 2947 2644 2453 
Q 2978 2031 2978 1484 
Q 2978 1100 2793 706 
Q 2609 313 2286 112 
Q 1963 -88 1566 -88 
Q 919 -88 538 428 
Q 216 863 216 1403 
Q 216 1797 411 2186 
Q 606 2575 925 2761 
Q 1244 2947 1600 2947 
z
M 1503 2744 
Q 1338 2744 1170 2645 
Q 1003 2547 900 2300 
Q 797 2053 797 1666 
Q 797 1041 1045 587 
Q 1294 134 1700 134 
Q 2003 134 2200 384 
Q 2397 634 2397 1244 
Q 2397 2006 2069 2444 
Q 1847 2744 1503 2744 
z
" transform="scale(0.015625)"/>
        <path id="TimesNewRomanPSMT-72" d="M 1038 2947 
L 1038 2303 
Q 1397 2947 1775 2947 
Q 1947 2947 2059 2842 
Q 2172 2738 2172 2600 
Q 2172 2478 2090 2393 
Q 2009 2309 1897 2309 
Q 1788 2309 1652 2417 
Q 1516 2525 1450 2525 
Q 1394 2525 1328 2463 
Q 1188 2334 1038 2041 
L 1038 669 
Q 1038 431 1097 309 
Q 1138 225 1241 169 
Q 1344 113 1538 113 
L 1538 0 
L 72 0 
L 72 113 
Q 291 113 397 181 
Q 475 231 506 341 
Q 522 394 522 644 
L 522 1753 
Q 522 2253 501 2348 
Q 481 2444 426 2487 
Q 372 2531 291 2531 
Q 194 2531 72 2484 
L 41 2597 
L 906 2947 
L 1038 2947 
z
" transform="scale(0.015625)"/>
       </defs>
       <use xlink:href="#TimesNewRomanPSMT-57"/>
       <use xlink:href="#TimesNewRomanPSMT-65" x="86.384766"/>
       <use xlink:href="#TimesNewRomanPSMT-73" x="130.769531"/>
       <use xlink:href="#TimesNewRomanPSMT-74" x="169.685547"/>
       <use xlink:href="#TimesNewRomanPSMT-70" x="197.46875"/>
       <use xlink:href="#TimesNewRomanPSMT-6f" x="247.46875"/>
       <use xlink:href="#TimesNewRomanPSMT-72" x="297.46875"/>
       <use xlink:href="#TimesNewRomanPSMT-74" x="330.769531"/>
      </g>
     </g>
    </g>
    <g id="xtick_2">
     <g id="line2d_2">
      <g>
       <use xlink:href="#m80ca7e1688" x="239.315937" y="264.606533" style="stroke: #000000; stroke-width: 0.8"/>
      </g>
     </g>
     <g id="text_2">
      <!-- Lakeview -->
      <g transform="translate(204.047661 310.951722) rotate(-45) scale(0.12 -0.12)">
       <defs>
        <path id="TimesNewRomanPSMT-4c" d="M 3669 1172 
L 3772 1150 
L 3409 0 
L 128 0 
L 128 116 
L 288 116 
Q 556 116 672 291 
Q 738 391 738 753 
L 738 3488 
Q 738 3884 650 3984 
Q 528 4122 288 4122 
L 128 4122 
L 128 4238 
L 2047 4238 
L 2047 4122 
Q 1709 4125 1573 4059 
Q 1438 3994 1388 3894 
Q 1338 3794 1338 3416 
L 1338 753 
Q 1338 494 1388 397 
Q 1425 331 1503 300 
Q 1581 269 1991 269 
L 2300 269 
Q 2788 269 2984 341 
Q 3181 413 3343 595 
Q 3506 778 3669 1172 
z
" transform="scale(0.015625)"/>
        <path id="TimesNewRomanPSMT-61" d="M 1822 413 
Q 1381 72 1269 19 
Q 1100 -59 909 -59 
Q 613 -59 420 144 
Q 228 347 228 678 
Q 228 888 322 1041 
Q 450 1253 767 1440 
Q 1084 1628 1822 1897 
L 1822 2009 
Q 1822 2438 1686 2597 
Q 1550 2756 1291 2756 
Q 1094 2756 978 2650 
Q 859 2544 859 2406 
L 866 2225 
Q 866 2081 792 2003 
Q 719 1925 600 1925 
Q 484 1925 411 2006 
Q 338 2088 338 2228 
Q 338 2497 613 2722 
Q 888 2947 1384 2947 
Q 1766 2947 2009 2819 
Q 2194 2722 2281 2516 
Q 2338 2381 2338 1966 
L 2338 994 
Q 2338 584 2353 492 
Q 2369 400 2405 369 
Q 2441 338 2488 338 
Q 2538 338 2575 359 
Q 2641 400 2828 588 
L 2828 413 
Q 2478 -56 2159 -56 
Q 2006 -56 1915 50 
Q 1825 156 1822 413 
z
M 1822 616 
L 1822 1706 
Q 1350 1519 1213 1441 
Q 966 1303 859 1153 
Q 753 1003 753 825 
Q 753 600 887 451 
Q 1022 303 1197 303 
Q 1434 303 1822 616 
z
" transform="scale(0.015625)"/>
        <path id="TimesNewRomanPSMT-6b" d="M 1047 4444 
L 1047 1597 
L 1775 2259 
Q 2006 2472 2044 2528 
Q 2069 2566 2069 2603 
Q 2069 2666 2017 2711 
Q 1966 2756 1847 2763 
L 1847 2863 
L 3091 2863 
L 3091 2763 
Q 2834 2756 2664 2684 
Q 2494 2613 2291 2428 
L 1556 1750 
L 2291 822 
Q 2597 438 2703 334 
Q 2853 188 2966 144 
Q 3044 113 3238 113 
L 3238 0 
L 1847 0 
L 1847 113 
Q 1966 116 2008 148 
Q 2050 181 2050 241 
Q 2050 313 1925 472 
L 1047 1594 
L 1047 644 
Q 1047 366 1086 278 
Q 1125 191 1197 153 
Q 1269 116 1509 113 
L 1509 0 
L 53 0 
L 53 113 
Q 272 113 381 166 
Q 447 200 481 272 
Q 528 375 528 628 
L 528 3234 
Q 528 3731 506 3842 
Q 484 3953 434 3995 
Q 384 4038 303 4038 
Q 238 4038 106 3984 
L 53 4094 
L 903 4444 
L 1047 4444 
z
" transform="scale(0.015625)"/>
        <path id="TimesNewRomanPSMT-76" d="M 53 2863 
L 1400 2863 
L 1400 2747 
L 1313 2747 
Q 1191 2747 1127 2687 
Q 1063 2628 1063 2528 
Q 1063 2419 1128 2269 
L 1794 688 
L 2463 2328 
Q 2534 2503 2534 2594 
Q 2534 2638 2509 2666 
Q 2475 2713 2422 2730 
Q 2369 2747 2206 2747 
L 2206 2863 
L 3141 2863 
L 3141 2747 
Q 2978 2734 2916 2681 
Q 2806 2588 2719 2369 
L 1703 -88 
L 1575 -88 
L 553 2328 
Q 484 2497 421 2570 
Q 359 2644 263 2694 
Q 209 2722 53 2747 
L 53 2863 
z
" transform="scale(0.015625)"/>
        <path id="TimesNewRomanPSMT-69" d="M 928 4444 
Q 1059 4444 1151 4351 
Q 1244 4259 1244 4128 
Q 1244 3997 1151 3903 
Q 1059 3809 928 3809 
Q 797 3809 703 3903 
Q 609 3997 609 4128 
Q 609 4259 701 4351 
Q 794 4444 928 4444 
z
M 1188 2947 
L 1188 647 
Q 1188 378 1227 289 
Q 1266 200 1342 156 
Q 1419 113 1622 113 
L 1622 0 
L 231 0 
L 231 113 
Q 441 113 512 153 
Q 584 194 626 287 
Q 669 381 669 647 
L 669 1750 
Q 669 2216 641 2353 
Q 619 2453 572 2492 
Q 525 2531 444 2531 
Q 356 2531 231 2484 
L 188 2597 
L 1050 2947 
L 1188 2947 
z
" transform="scale(0.015625)"/>
        <path id="TimesNewRomanPSMT-77" d="M 41 2863 
L 1241 2863 
L 1241 2747 
Q 1075 2734 1023 2687 
Q 972 2641 972 2553 
Q 972 2456 1025 2319 
L 1638 672 
L 2253 2013 
L 2091 2434 
Q 2016 2622 1894 2694 
Q 1825 2738 1638 2747 
L 1638 2863 
L 3000 2863 
L 3000 2747 
Q 2775 2738 2681 2666 
Q 2619 2616 2619 2506 
Q 2619 2444 2644 2378 
L 3294 734 
L 3897 2319 
Q 3959 2488 3959 2588 
Q 3959 2647 3898 2694 
Q 3838 2741 3659 2747 
L 3659 2863 
L 4563 2863 
L 4563 2747 
Q 4291 2706 4163 2378 
L 3206 -88 
L 3078 -88 
L 2363 1741 
L 1528 -88 
L 1413 -88 
L 494 2319 
Q 403 2547 315 2626 
Q 228 2706 41 2747 
L 41 2863 
z
" transform="scale(0.015625)"/>
       </defs>
       <use xlink:href="#TimesNewRomanPSMT-4c"/>
       <use xlink:href="#TimesNewRomanPSMT-61" x="61.083984"/>
       <use xlink:href="#TimesNewRomanPSMT-6b" x="105.46875"/>
       <use xlink:href="#TimesNewRomanPSMT-65" x="155.46875"/>
       <use xlink:href="#TimesNewRomanPSMT-76" x="199.853516"/>
       <use xlink:href="#TimesNewRomanPSMT-69" x="249.853516"/>
       <use xlink:href="#TimesNewRomanPSMT-65" x="277.636719"/>
       <use xlink:href="#TimesNewRomanPSMT-77" x="322.021484"/>
      </g>
     </g>
    </g>
    <g id="xtick_3">
     <g id="line2d_3">
      <g>
       <use xlink:href="#m80ca7e1688" x="364.915937" y="264.606533" style="stroke: #000000; stroke-width: 0.8"/>
      </g>
     </g>
     <g id="text_3">
      <!-- Dunvale -->
      <g transform="translate(334.35434 306.245042) rotate(-45) scale(0.12 -0.12)">
       <defs>
        <path id="TimesNewRomanPSMT-44" d="M 109 0 
L 109 116 
L 269 116 
Q 538 116 650 288 
Q 719 391 719 750 
L 719 3488 
Q 719 3884 631 3984 
Q 509 4122 269 4122 
L 109 4122 
L 109 4238 
L 1834 4238 
Q 2784 4238 3279 4022 
Q 3775 3806 4076 3303 
Q 4378 2800 4378 2141 
Q 4378 1256 3841 663 
Q 3238 0 2003 0 
L 109 0 
z
M 1319 306 
Q 1716 219 1984 219 
Q 2709 219 3187 728 
Q 3666 1238 3666 2109 
Q 3666 2988 3187 3494 
Q 2709 4000 1959 4000 
Q 1678 4000 1319 3909 
L 1319 306 
z
" transform="scale(0.015625)"/>
        <path id="TimesNewRomanPSMT-75" d="M 2709 2863 
L 2709 1128 
Q 2709 631 2732 520 
Q 2756 409 2807 365 
Q 2859 322 2928 322 
Q 3025 322 3147 375 
L 3191 266 
L 2334 -88 
L 2194 -88 
L 2194 519 
Q 1825 119 1631 15 
Q 1438 -88 1222 -88 
Q 981 -88 804 51 
Q 628 191 559 409 
Q 491 628 491 1028 
L 491 2306 
Q 491 2509 447 2587 
Q 403 2666 317 2708 
Q 231 2750 6 2747 
L 6 2863 
L 1009 2863 
L 1009 947 
Q 1009 547 1148 422 
Q 1288 297 1484 297 
Q 1619 297 1789 381 
Q 1959 466 2194 703 
L 2194 2325 
Q 2194 2569 2105 2655 
Q 2016 2741 1734 2747 
L 1734 2863 
L 2709 2863 
z
" transform="scale(0.015625)"/>
        <path id="TimesNewRomanPSMT-6e" d="M 1034 2341 
Q 1538 2947 1994 2947 
Q 2228 2947 2397 2830 
Q 2566 2713 2666 2444 
Q 2734 2256 2734 1869 
L 2734 647 
Q 2734 375 2778 278 
Q 2813 200 2889 156 
Q 2966 113 3172 113 
L 3172 0 
L 1756 0 
L 1756 113 
L 1816 113 
Q 2016 113 2095 173 
Q 2175 234 2206 353 
Q 2219 400 2219 647 
L 2219 1819 
Q 2219 2209 2117 2386 
Q 2016 2563 1775 2563 
Q 1403 2563 1034 2156 
L 1034 647 
Q 1034 356 1069 288 
Q 1113 197 1189 155 
Q 1266 113 1500 113 
L 1500 0 
L 84 0 
L 84 113 
L 147 113 
Q 366 113 442 223 
Q 519 334 519 647 
L 519 1709 
Q 519 2225 495 2337 
Q 472 2450 423 2490 
Q 375 2531 294 2531 
Q 206 2531 84 2484 
L 38 2597 
L 900 2947 
L 1034 2947 
L 1034 2341 
z
" transform="scale(0.015625)"/>
        <path id="TimesNewRomanPSMT-6c" d="M 1184 4444 
L 1184 647 
Q 1184 378 1223 290 
Q 1263 203 1344 158 
Q 1425 113 1647 113 
L 1647 0 
L 244 0 
L 244 113 
Q 441 113 512 153 
Q 584 194 625 287 
Q 666 381 666 647 
L 666 3247 
Q 666 3731 644 3842 
Q 622 3953 573 3993 
Q 525 4034 450 4034 
Q 369 4034 244 3984 
L 191 4094 
L 1044 4444 
L 1184 4444 
z
" transform="scale(0.015625)"/>
       </defs>
       <use xlink:href="#TimesNewRomanPSMT-44"/>
       <use xlink:href="#TimesNewRomanPSMT-75" x="72.216797"/>
       <use xlink:href="#TimesNewRomanPSMT-6e" x="122.216797"/>
       <use xlink:href="#TimesNewRomanPSMT-76" x="172.216797"/>
       <use xlink:href="#TimesNewRomanPSMT-61" x="222.216797"/>
       <use xlink:href="#TimesNewRomanPSMT-6c" x="266.601562"/>
       <use xlink:href="#TimesNewRomanPSMT-65" x="294.384766"/>
      </g>
     </g>
    </g>
   </g>
   <g id="matplotlib.axis_2">
    <g id="ytick_1">
     <g id="line2d_4">
      <defs>
       <path id="m65bf4ca655" d="M 0 0 
L -3.5 0 
" style="stroke: #000000; stroke-width: 0.8"/>
      </defs>
      <g>
       <use xlink:href="#m65bf4ca655" x="50.915938" y="254.176299" style="stroke: #000000; stroke-width: 0.8"/>
      </g>
     </g>
     <g id="text_4">
      <!-- 0 -->
      <g transform="translate(38.915938 257.648174) scale(0.1 -0.1)">
       <defs>
        <path id="TimesNewRomanPSMT-30" d="M 231 2094 
Q 231 2819 450 3342 
Q 669 3866 1031 4122 
Q 1313 4325 1613 4325 
Q 2100 4325 2488 3828 
Q 2972 3213 2972 2159 
Q 2972 1422 2759 906 
Q 2547 391 2217 158 
Q 1888 -75 1581 -75 
Q 975 -75 572 641 
Q 231 1244 231 2094 
z
M 844 2016 
Q 844 1141 1059 588 
Q 1238 122 1591 122 
Q 1759 122 1940 273 
Q 2122 425 2216 781 
Q 2359 1319 2359 2297 
Q 2359 3022 2209 3506 
Q 2097 3866 1919 4016 
Q 1791 4119 1609 4119 
Q 1397 4119 1231 3928 
Q 1006 3669 925 3112 
Q 844 2556 844 2016 
z
" transform="scale(0.015625)"/>
       </defs>
       <use xlink:href="#TimesNewRomanPSMT-30"/>
      </g>
     </g>
    </g>
    <g id="ytick_2">
     <g id="line2d_5">
      <g>
       <use xlink:href="#m65bf4ca655" x="50.915938" y="225.219515" style="stroke: #000000; stroke-width: 0.8"/>
      </g>
     </g>
     <g id="text_5">
      <!-- 250 -->
      <g transform="translate(28.915938 228.69139) scale(0.1 -0.1)">
       <defs>
        <path id="TimesNewRomanPSMT-32" d="M 2934 816 
L 2638 0 
L 138 0 
L 138 116 
Q 1241 1122 1691 1759 
Q 2141 2397 2141 2925 
Q 2141 3328 1894 3587 
Q 1647 3847 1303 3847 
Q 991 3847 742 3664 
Q 494 3481 375 3128 
L 259 3128 
Q 338 3706 661 4015 
Q 984 4325 1469 4325 
Q 1984 4325 2329 3994 
Q 2675 3663 2675 3213 
Q 2675 2891 2525 2569 
Q 2294 2063 1775 1497 
Q 997 647 803 472 
L 1909 472 
Q 2247 472 2383 497 
Q 2519 522 2628 598 
Q 2738 675 2819 816 
L 2934 816 
z
" transform="scale(0.015625)"/>
        <path id="TimesNewRomanPSMT-35" d="M 2778 4238 
L 2534 3706 
L 1259 3706 
L 981 3138 
Q 1809 3016 2294 2522 
Q 2709 2097 2709 1522 
Q 2709 1188 2573 903 
Q 2438 619 2231 419 
Q 2025 219 1772 97 
Q 1413 -75 1034 -75 
Q 653 -75 479 54 
Q 306 184 306 341 
Q 306 428 378 495 
Q 450 563 559 563 
Q 641 563 702 538 
Q 763 513 909 409 
Q 1144 247 1384 247 
Q 1750 247 2026 523 
Q 2303 800 2303 1197 
Q 2303 1581 2056 1914 
Q 1809 2247 1375 2428 
Q 1034 2569 447 2591 
L 1259 4238 
L 2778 4238 
z
" transform="scale(0.015625)"/>
       </defs>
       <use xlink:href="#TimesNewRomanPSMT-32"/>
       <use xlink:href="#TimesNewRomanPSMT-35" x="50"/>
       <use xlink:href="#TimesNewRomanPSMT-30" x="100"/>
      </g>
     </g>
    </g>
    <g id="ytick_3">
     <g id="line2d_6">
      <g>
       <use xlink:href="#m65bf4ca655" x="50.915938" y="196.262731" style="stroke: #000000; stroke-width: 0.8"/>
      </g>
     </g>
     <g id="text_6">
      <!-- 500 -->
      <g transform="translate(28.915938 199.734606) scale(0.1 -0.1)">
       <use xlink:href="#TimesNewRomanPSMT-35"/>
       <use xlink:href="#TimesNewRomanPSMT-30" x="50"/>
       <use xlink:href="#TimesNewRomanPSMT-30" x="100"/>
      </g>
     </g>
    </g>
    <g id="ytick_4">
     <g id="line2d_7">
      <g>
       <use xlink:href="#m65bf4ca655" x="50.915938" y="167.305947" style="stroke: #000000; stroke-width: 0.8"/>
      </g>
     </g>
     <g id="text_7">
      <!-- 750 -->
      <g transform="translate(28.915938 170.777822) scale(0.1 -0.1)">
       <defs>
        <path id="TimesNewRomanPSMT-37" d="M 644 4238 
L 2916 4238 
L 2916 4119 
L 1503 -88 
L 1153 -88 
L 2419 3728 
L 1253 3728 
Q 900 3728 750 3644 
Q 488 3500 328 3200 
L 238 3234 
L 644 4238 
z
" transform="scale(0.015625)"/>
       </defs>
       <use xlink:href="#TimesNewRomanPSMT-37"/>
       <use xlink:href="#TimesNewRomanPSMT-35" x="50"/>
       <use xlink:href="#TimesNewRomanPSMT-30" x="100"/>
      </g>
     </g>
    </g>
    <g id="ytick_5">
     <g id="line2d_8">
      <g>
       <use xlink:href="#m65bf4ca655" x="50.915938" y="138.349163" style="stroke: #000000; stroke-width: 0.8"/>
      </g>
     </g>
     <g id="text_8">
      <!-- 1000 -->
      <g transform="translate(23.915938 141.821038) scale(0.1 -0.1)">
       <defs>
        <path id="TimesNewRomanPSMT-31" d="M 750 3822 
L 1781 4325 
L 1884 4325 
L 1884 747 
Q 1884 391 1914 303 
Q 1944 216 2037 169 
Q 2131 122 2419 116 
L 2419 0 
L 825 0 
L 825 116 
Q 1125 122 1212 167 
Q 1300 213 1334 289 
Q 1369 366 1369 747 
L 1369 3034 
Q 1369 3497 1338 3628 
Q 1316 3728 1258 3775 
Q 1200 3822 1119 3822 
Q 1003 3822 797 3725 
L 750 3822 
z
" transform="scale(0.015625)"/>
       </defs>
       <use xlink:href="#TimesNewRomanPSMT-31"/>
       <use xlink:href="#TimesNewRomanPSMT-30" x="50"/>
       <use xlink:href="#TimesNewRomanPSMT-30" x="100"/>
       <use xlink:href="#TimesNewRomanPSMT-30" x="150"/>
      </g>
     </g>
    </g>
    <g id="ytick_6">
     <g id="line2d_9">
      <g>
       <use xlink:href="#m65bf4ca655" x="50.915938" y="109.392379" style="stroke: #000000; stroke-width: 0.8"/>
      </g>
     </g>
     <g id="text_9">
      <!-- 1250 -->
      <g transform="translate(23.915938 112.864254) scale(0.1 -0.1)">
       <use xlink:href="#TimesNewRomanPSMT-31"/>
       <use xlink:href="#TimesNewRomanPSMT-32" x="50"/>
       <use xlink:href="#TimesNewRomanPSMT-35" x="100"/>
       <use xlink:href="#TimesNewRomanPSMT-30" x="150"/>
      </g>
     </g>
    </g>
    <g id="ytick_7">
     <g id="line2d_10">
      <g>
       <use xlink:href="#m65bf4ca655" x="50.915938" y="80.435595" style="stroke: #000000; stroke-width: 0.8"/>
      </g>
     </g>
     <g id="text_10">
      <!-- 1500 -->
      <g transform="translate(23.915938 83.90747) scale(0.1 -0.1)">
       <use xlink:href="#TimesNewRomanPSMT-31"/>
       <use xlink:href="#TimesNewRomanPSMT-35" x="50"/>
       <use xlink:href="#TimesNewRomanPSMT-30" x="100"/>
       <use xlink:href="#TimesNewRomanPSMT-30" x="150"/>
      </g>
     </g>
    </g>
    <g id="ytick_8">
     <g id="line2d_11">
      <g>
       <use xlink:href="#m65bf4ca655" x="50.915938" y="51.478811" style="stroke: #000000; stroke-width: 0.8"/>
      </g>
     </g>
     <g id="text_11">
      <!-- 1750 -->
      <g transform="translate(23.915938 54.950686) scale(0.1 -0.1)">
       <use xlink:href="#TimesNewRomanPSMT-31"/>
       <use xlink:href="#TimesNewRomanPSMT-37" x="50"/>
       <use xlink:href="#TimesNewRomanPSMT-35" x="100"/>
       <use xlink:href="#TimesNewRomanPSMT-30" x="150"/>
      </g>
     </g>
    </g>
    <g id="text_12">
     <!-- Number -->
     <g transform="translate(16.92125 170.263891) rotate(-90) scale(0.14 -0.14)">
      <defs>
       <path id="TimesNewRomanPSMT-4e" d="M -84 4238 
L 1066 4238 
L 3656 1059 
L 3656 3503 
Q 3656 3894 3569 3991 
Q 3453 4122 3203 4122 
L 3056 4122 
L 3056 4238 
L 4531 4238 
L 4531 4122 
L 4381 4122 
Q 4113 4122 4000 3959 
Q 3931 3859 3931 3503 
L 3931 -69 
L 3819 -69 
L 1025 3344 
L 1025 734 
Q 1025 344 1109 247 
Q 1228 116 1475 116 
L 1625 116 
L 1625 0 
L 150 0 
L 150 116 
L 297 116 
Q 569 116 681 278 
Q 750 378 750 734 
L 750 3681 
Q 566 3897 470 3965 
Q 375 4034 191 4094 
Q 100 4122 -84 4122 
L -84 4238 
z
" transform="scale(0.015625)"/>
       <path id="TimesNewRomanPSMT-6d" d="M 1050 2338 
Q 1363 2650 1419 2697 
Q 1559 2816 1721 2881 
Q 1884 2947 2044 2947 
Q 2313 2947 2506 2790 
Q 2700 2634 2766 2338 
Q 3088 2713 3309 2830 
Q 3531 2947 3766 2947 
Q 3994 2947 4170 2830 
Q 4347 2713 4450 2447 
Q 4519 2266 4519 1878 
L 4519 647 
Q 4519 378 4559 278 
Q 4591 209 4675 161 
Q 4759 113 4950 113 
L 4950 0 
L 3538 0 
L 3538 113 
L 3597 113 
Q 3781 113 3884 184 
Q 3956 234 3988 344 
Q 4000 397 4000 647 
L 4000 1878 
Q 4000 2228 3916 2372 
Q 3794 2572 3525 2572 
Q 3359 2572 3192 2489 
Q 3025 2406 2788 2181 
L 2781 2147 
L 2788 2013 
L 2788 647 
Q 2788 353 2820 281 
Q 2853 209 2943 161 
Q 3034 113 3253 113 
L 3253 0 
L 1806 0 
L 1806 113 
Q 2044 113 2133 169 
Q 2222 225 2256 338 
Q 2272 391 2272 647 
L 2272 1878 
Q 2272 2228 2169 2381 
Q 2031 2581 1784 2581 
Q 1616 2581 1450 2491 
Q 1191 2353 1050 2181 
L 1050 647 
Q 1050 366 1089 281 
Q 1128 197 1204 155 
Q 1281 113 1516 113 
L 1516 0 
L 100 0 
L 100 113 
Q 297 113 375 155 
Q 453 197 493 289 
Q 534 381 534 647 
L 534 1741 
Q 534 2213 506 2350 
Q 484 2453 437 2492 
Q 391 2531 309 2531 
Q 222 2531 100 2484 
L 53 2597 
L 916 2947 
L 1050 2947 
L 1050 2338 
z
" transform="scale(0.015625)"/>
       <path id="TimesNewRomanPSMT-62" d="M 984 2369 
Q 1400 2947 1881 2947 
Q 2322 2947 2650 2570 
Q 2978 2194 2978 1541 
Q 2978 778 2472 313 
Q 2038 -88 1503 -88 
Q 1253 -88 995 3 
Q 738 94 469 275 
L 469 3241 
Q 469 3728 445 3840 
Q 422 3953 372 3993 
Q 322 4034 247 4034 
Q 159 4034 28 3984 
L -16 4094 
L 844 4444 
L 984 4444 
L 984 2369 
z
M 984 2169 
L 984 456 
Q 1144 300 1314 220 
Q 1484 141 1663 141 
Q 1947 141 2192 453 
Q 2438 766 2438 1363 
Q 2438 1913 2192 2208 
Q 1947 2503 1634 2503 
Q 1469 2503 1303 2419 
Q 1178 2356 984 2169 
z
" transform="scale(0.015625)"/>
      </defs>
      <use xlink:href="#TimesNewRomanPSMT-4e"/>
      <use xlink:href="#TimesNewRomanPSMT-75" x="72.216797"/>
      <use xlink:href="#TimesNewRomanPSMT-6d" x="122.216797"/>
      <use xlink:href="#TimesNewRomanPSMT-62" x="200"/>
      <use xlink:href="#TimesNewRomanPSMT-65" x="250"/>
      <use xlink:href="#TimesNewRomanPSMT-72" x="294.384766"/>
     </g>
    </g>
   </g>
   <g id="patch_3">
    <path d="M 106.179937 184.158795 
L 121.251938 184.158795 
L 121.251938 135.077047 
L 106.179937 135.077047 
L 106.179937 184.158795 
L 106.179937 184.158795 
z
" clip-path="url(#p2f9e3cf2e8)" style="fill: none; stroke: #000000; stroke-linejoin: miter"/>
   </g>
   <g id="line2d_12">
    <path d="M 113.715937 184.158795 
L 113.715937 246.647535 
" clip-path="url(#p2f9e3cf2e8)" style="fill: none; stroke: #000000; stroke-linecap: square"/>
   </g>
   <g id="line2d_13">
    <path d="M 113.715937 135.077047 
L 113.715937 90.512556 
" clip-path="url(#p2f9e3cf2e8)" style="fill: none; stroke: #000000; stroke-linecap: square"/>
   </g>
   <g id="line2d_14">
    <path d="M 109.947937 246.647535 
L 117.483938 246.647535 
" clip-path="url(#p2f9e3cf2e8)" style="fill: none; stroke: #000000; stroke-linecap: square"/>
   </g>
   <g id="line2d_15">
    <path d="M 109.947937 90.512556 
L 117.483938 90.512556 
" clip-path="url(#p2f9e3cf2e8)" style="fill: none; stroke: #000000; stroke-linecap: square"/>
   </g>
   <g id="patch_4">
    <path d="M 231.779937 190.15285 
L 246.851938 190.15285 
L 246.851938 127.084974 
L 231.779937 127.084974 
L 231.779937 190.15285 
L 231.779937 190.15285 
z
" clip-path="url(#p2f9e3cf2e8)" style="fill: none; stroke: #000000; stroke-linejoin: miter"/>
   </g>
   <g id="line2d_16">
    <path d="M 239.315937 190.15285 
L 239.315937 253.944645 
" clip-path="url(#p2f9e3cf2e8)" style="fill: none; stroke: #000000; stroke-linecap: square"/>
   </g>
   <g id="line2d_17">
    <path d="M 239.315937 127.084974 
L 239.315937 67.115475 
" clip-path="url(#p2f9e3cf2e8)" style="fill: none; stroke: #000000; stroke-linecap: square"/>
   </g>
   <g id="line2d_18">
    <path d="M 235.547937 253.944645 
L 243.083937 253.944645 
" clip-path="url(#p2f9e3cf2e8)" style="fill: none; stroke: #000000; stroke-linecap: square"/>
   </g>
   <g id="line2d_19">
    <path d="M 235.547937 67.115475 
L 243.083937 67.115475 
" clip-path="url(#p2f9e3cf2e8)" style="fill: none; stroke: #000000; stroke-linecap: square"/>
   </g>
   <g id="patch_5">
    <path d="M 357.379937 152.972339 
L 372.451937 152.972339 
L 372.451937 105.975479 
L 357.379937 105.975479 
L 357.379937 152.972339 
L 357.379937 152.972339 
z
" clip-path="url(#p2f9e3cf2e8)" style="fill: none; stroke: #000000; stroke-linejoin: miter"/>
   </g>
   <g id="line2d_20">
    <path d="M 364.915937 152.972339 
L 364.915937 214.10011 
" clip-path="url(#p2f9e3cf2e8)" style="fill: none; stroke: #000000; stroke-linecap: square"/>
   </g>
   <g id="line2d_21">
    <path d="M 364.915937 105.975479 
L 364.915937 40.706888 
" clip-path="url(#p2f9e3cf2e8)" style="fill: none; stroke: #000000; stroke-linecap: square"/>
   </g>
   <g id="line2d_22">
    <path d="M 361.147938 214.10011 
L 368.683937 214.10011 
" clip-path="url(#p2f9e3cf2e8)" style="fill: none; stroke: #000000; stroke-linecap: square"/>
   </g>
   <g id="line2d_23">
    <path d="M 361.147938 40.706888 
L 368.683937 40.706888 
" clip-path="url(#p2f9e3cf2e8)" style="fill: none; stroke: #000000; stroke-linecap: square"/>
   </g>
   <g id="line2d_24">
    <path d="M 106.179937 157.344813 
L 121.251938 157.344813 
" clip-path="url(#p2f9e3cf2e8)" style="fill: none; stroke: #000000; stroke-width: 1.5; stroke-linecap: square"/>
   </g>
   <g id="line2d_25">
    <path d="M 231.779937 153.696259 
L 246.851938 153.696259 
" clip-path="url(#p2f9e3cf2e8)" style="fill: none; stroke: #000000; stroke-width: 1.5; stroke-linecap: square"/>
   </g>
   <g id="line2d_26">
    <path d="M 357.379937 123.812858 
L 372.451937 123.812858 
" clip-path="url(#p2f9e3cf2e8)" style="fill: none; stroke: #000000; stroke-width: 1.5; stroke-linecap: square"/>
   </g>
   <g id="patch_6">
    <path d="M 50.915938 264.606533 
L 50.915938 30.045 
" style="fill: none; stroke: #000000; stroke-linejoin: miter; stroke-linecap: square"/>
   </g>
   <g id="patch_7">
    <path d="M 427.715937 264.606533 
L 427.715937 30.045 
" style="fill: none; stroke: #000000; stroke-linejoin: miter; stroke-linecap: square"/>
   </g>
   <g id="patch_8">
    <path d="M 50.915938 264.606533 
L 427.715937 264.606533 
" style="fill: none; stroke: #000000; stroke-linejoin: miter; stroke-linecap: square"/>
   </g>
   <g id="patch_9">
    <path d="M 50.915938 30.045 
L 427.715937 30.045 
" style="fill: none; stroke: #000000; stroke-linejoin: miter; stroke-linecap: square"/>
   </g>
   <g id="text_13">
    <!-- Statistics on daily outpatient visits in different cities (Number) -->
    <g transform="translate(27.472187 18.045) scale(0.16 -0.16)">
     <defs>
      <path id="TimesNewRomanPS-BoldMT-53" d="M 3006 4334 
L 3041 2922 
L 2913 2922 
Q 2822 3453 2467 3776 
Q 2113 4100 1700 4100 
Q 1381 4100 1195 3929 
Q 1009 3759 1009 3538 
Q 1009 3397 1075 3288 
Q 1166 3141 1366 2997 
Q 1513 2894 2044 2631 
Q 2788 2266 3047 1941 
Q 3303 1616 3303 1197 
Q 3303 666 2889 283 
Q 2475 -100 1838 -100 
Q 1638 -100 1459 -59 
Q 1281 -19 1013 94 
Q 863 156 766 156 
Q 684 156 593 93 
Q 503 31 447 -97 
L 331 -97 
L 331 1503 
L 447 1503 
Q 584 828 976 473 
Q 1369 119 1822 119 
Q 2172 119 2380 309 
Q 2588 500 2588 753 
Q 2588 903 2508 1043 
Q 2428 1184 2265 1311 
Q 2103 1438 1691 1641 
Q 1113 1925 859 2125 
Q 606 2325 470 2572 
Q 334 2819 334 3116 
Q 334 3622 706 3978 
Q 1078 4334 1644 4334 
Q 1850 4334 2044 4284 
Q 2191 4247 2402 4145 
Q 2613 4044 2697 4044 
Q 2778 4044 2825 4094 
Q 2872 4144 2913 4334 
L 3006 4334 
z
" transform="scale(0.015625)"/>
      <path id="TimesNewRomanPS-BoldMT-74" d="M 1375 3991 
L 1375 2922 
L 2069 2922 
L 2069 2613 
L 1375 2613 
L 1375 809 
Q 1375 556 1398 482 
Q 1422 409 1481 364 
Q 1541 319 1591 319 
Q 1794 319 1975 628 
L 2069 559 
Q 1816 -41 1247 -41 
Q 969 -41 776 114 
Q 584 269 531 459 
Q 500 566 500 1034 
L 500 2613 
L 119 2613 
L 119 2722 
Q 513 3000 789 3306 
Q 1066 3613 1272 3991 
L 1375 3991 
z
" transform="scale(0.015625)"/>
      <path id="TimesNewRomanPS-BoldMT-61" d="M 1828 431 
Q 1294 -41 869 -41 
Q 619 -41 453 123 
Q 288 288 288 534 
Q 288 869 575 1136 
Q 863 1403 1828 1847 
L 1828 2141 
Q 1828 2472 1792 2558 
Q 1756 2644 1656 2708 
Q 1556 2772 1431 2772 
Q 1228 2772 1097 2681 
Q 1016 2625 1016 2550 
Q 1016 2484 1103 2388 
Q 1222 2253 1222 2128 
Q 1222 1975 1108 1867 
Q 994 1759 809 1759 
Q 613 1759 480 1878 
Q 347 1997 347 2156 
Q 347 2381 525 2586 
Q 703 2791 1022 2900 
Q 1341 3009 1684 3009 
Q 2100 3009 2342 2832 
Q 2584 2656 2656 2450 
Q 2700 2319 2700 1847 
L 2700 713 
Q 2700 513 2715 461 
Q 2731 409 2762 384 
Q 2794 359 2834 359 
Q 2916 359 3000 475 
L 3094 400 
Q 2938 169 2770 64 
Q 2603 -41 2391 -41 
Q 2141 -41 2000 76 
Q 1859 194 1828 431 
z
M 1828 659 
L 1828 1638 
Q 1450 1416 1266 1163 
Q 1144 994 1144 822 
Q 1144 678 1247 569 
Q 1325 484 1466 484 
Q 1622 484 1828 659 
z
" transform="scale(0.015625)"/>
      <path id="TimesNewRomanPS-BoldMT-69" d="M 919 4338 
Q 1122 4338 1262 4195 
Q 1403 4053 1403 3853 
Q 1403 3653 1261 3512 
Q 1119 3372 919 3372 
Q 719 3372 578 3512 
Q 438 3653 438 3853 
Q 438 4053 578 4195 
Q 719 4338 919 4338 
z
M 1356 2922 
L 1356 606 
Q 1356 297 1428 211 
Q 1500 125 1709 113 
L 1709 0 
L 131 0 
L 131 113 
Q 325 119 419 225 
Q 481 297 481 606 
L 481 2313 
Q 481 2622 409 2708 
Q 338 2794 131 2806 
L 131 2922 
L 1356 2922 
z
" transform="scale(0.015625)"/>
      <path id="TimesNewRomanPS-BoldMT-73" d="M 2063 3003 
L 2109 2006 
L 2003 2006 
Q 1813 2450 1608 2612 
Q 1403 2775 1200 2775 
Q 1072 2775 981 2689 
Q 891 2603 891 2491 
Q 891 2406 953 2328 
Q 1053 2200 1512 1889 
Q 1972 1578 2117 1361 
Q 2263 1144 2263 875 
Q 2263 631 2141 397 
Q 2019 163 1797 37 
Q 1575 -88 1306 -88 
Q 1097 -88 747 44 
Q 653 78 619 78 
Q 516 78 447 -78 
L 344 -78 
L 294 972 
L 400 972 
Q 541 559 786 353 
Q 1031 147 1250 147 
Q 1400 147 1495 239 
Q 1591 331 1591 463 
Q 1591 613 1497 722 
Q 1403 831 1078 1053 
Q 600 1384 459 1559 
Q 253 1816 253 2125 
Q 253 2463 486 2736 
Q 719 3009 1159 3009 
Q 1397 3009 1619 2894 
Q 1703 2847 1756 2847 
Q 1813 2847 1847 2870 
Q 1881 2894 1956 3003 
L 2063 3003 
z
" transform="scale(0.015625)"/>
      <path id="TimesNewRomanPS-BoldMT-63" d="M 2600 753 
L 2697 678 
Q 2491 291 2183 101 
Q 1875 -88 1528 -88 
Q 944 -88 594 353 
Q 244 794 244 1413 
Q 244 2009 563 2463 
Q 947 3009 1622 3009 
Q 2075 3009 2342 2781 
Q 2609 2553 2609 2272 
Q 2609 2094 2501 1987 
Q 2394 1881 2219 1881 
Q 2034 1881 1914 2003 
Q 1794 2125 1766 2438 
Q 1747 2634 1675 2713 
Q 1603 2791 1506 2791 
Q 1356 2791 1250 2631 
Q 1088 2391 1088 1894 
Q 1088 1481 1219 1104 
Q 1350 728 1578 544 
Q 1750 409 1984 409 
Q 2138 409 2275 481 
Q 2413 553 2600 753 
z
" transform="scale(0.015625)"/>
      <path id="TimesNewRomanPS-BoldMT-20" transform="scale(0.015625)"/>
      <path id="TimesNewRomanPS-BoldMT-6f" d="M 1594 3009 
Q 1975 3009 2303 2812 
Q 2631 2616 2801 2253 
Q 2972 1891 2972 1459 
Q 2972 838 2656 419 
Q 2275 -88 1603 -88 
Q 944 -88 587 375 
Q 231 838 231 1447 
Q 231 2075 595 2542 
Q 959 3009 1594 3009 
z
M 1606 2788 
Q 1447 2788 1333 2667 
Q 1219 2547 1183 2192 
Q 1147 1838 1147 1206 
Q 1147 872 1191 581 
Q 1225 359 1337 243 
Q 1450 128 1594 128 
Q 1734 128 1828 206 
Q 1950 313 1991 503 
Q 2053 800 2053 1703 
Q 2053 2234 1993 2432 
Q 1934 2631 1819 2722 
Q 1738 2788 1606 2788 
z
" transform="scale(0.015625)"/>
      <path id="TimesNewRomanPS-BoldMT-6e" d="M 1409 2922 
L 1409 2544 
Q 1634 2788 1840 2898 
Q 2047 3009 2284 3009 
Q 2569 3009 2756 2851 
Q 2944 2694 3006 2459 
Q 3056 2281 3056 1775 
L 3056 638 
Q 3056 300 3117 217 
Q 3178 134 3372 113 
L 3372 0 
L 1894 0 
L 1894 113 
Q 2059 134 2131 250 
Q 2181 328 2181 638 
L 2181 1938 
Q 2181 2297 2153 2390 
Q 2125 2484 2058 2536 
Q 1991 2588 1909 2588 
Q 1641 2588 1409 2203 
L 1409 638 
Q 1409 309 1470 221 
Q 1531 134 1697 113 
L 1697 0 
L 219 0 
L 219 113 
Q 403 131 481 231 
Q 534 300 534 638 
L 534 2288 
Q 534 2619 473 2700 
Q 413 2781 219 2806 
L 219 2922 
L 1409 2922 
z
" transform="scale(0.015625)"/>
      <path id="TimesNewRomanPS-BoldMT-64" d="M 3056 4238 
L 3056 875 
Q 3056 534 3075 472 
Q 3100 369 3170 319 
Q 3241 269 3416 256 
L 3416 153 
L 2181 -88 
L 2181 375 
Q 1959 106 1786 9 
Q 1613 -88 1394 -88 
Q 834 -88 509 413 
Q 247 819 247 1409 
Q 247 1881 409 2254 
Q 572 2628 855 2818 
Q 1138 3009 1463 3009 
Q 1672 3009 1834 2928 
Q 1997 2847 2181 2644 
L 2181 3525 
Q 2181 3859 2153 3928 
Q 2116 4019 2041 4062 
Q 1966 4106 1759 4106 
L 1759 4238 
L 3056 4238 
z
M 2181 2256 
Q 1950 2700 1616 2700 
Q 1500 2700 1425 2638 
Q 1309 2541 1236 2297 
Q 1163 2053 1163 1550 
Q 1163 997 1244 731 
Q 1325 466 1466 347 
Q 1538 288 1663 288 
Q 1938 288 2181 719 
L 2181 2256 
z
" transform="scale(0.015625)"/>
      <path id="TimesNewRomanPS-BoldMT-6c" d="M 1359 4238 
L 1359 606 
Q 1359 297 1431 211 
Q 1503 125 1713 113 
L 1713 0 
L 134 0 
L 134 113 
Q 328 119 422 225 
Q 484 297 484 606 
L 484 3631 
Q 484 3938 412 4023 
Q 341 4109 134 4122 
L 134 4238 
L 1359 4238 
z
" transform="scale(0.015625)"/>
      <path id="TimesNewRomanPS-BoldMT-79" d="M 1556 -119 
L 613 2047 
Q 400 2538 298 2650 
Q 197 2763 53 2806 
L 53 2922 
L 1606 2922 
L 1606 2806 
Q 1453 2800 1390 2747 
Q 1328 2694 1328 2619 
Q 1328 2500 1484 2150 
L 1984 1006 
L 2325 1891 
Q 2509 2363 2509 2547 
Q 2509 2663 2432 2731 
Q 2356 2800 2163 2806 
L 2163 2922 
L 3141 2922 
L 3141 2806 
Q 2997 2791 2906 2695 
Q 2816 2600 2603 2047 
L 1769 -119 
Q 1453 -931 1300 -1119 
Q 1084 -1381 759 -1381 
Q 500 -1381 339 -1232 
Q 178 -1084 178 -875 
Q 178 -694 289 -575 
Q 400 -456 563 -456 
Q 719 -456 814 -556 
Q 909 -656 913 -866 
Q 916 -984 941 -1019 
Q 966 -1053 1013 -1053 
Q 1088 -1053 1172 -963 
Q 1297 -831 1466 -363 
L 1556 -119 
z
" transform="scale(0.015625)"/>
      <path id="TimesNewRomanPS-BoldMT-75" d="M 3038 2922 
L 3038 634 
Q 3038 300 3100 217 
Q 3163 134 3353 113 
L 3353 0 
L 2163 0 
L 2163 391 
Q 1953 141 1743 26 
Q 1534 -88 1275 -88 
Q 1028 -88 836 64 
Q 644 216 578 419 
Q 513 622 513 1128 
L 513 2288 
Q 513 2619 452 2700 
Q 391 2781 197 2806 
L 197 2922 
L 1388 2922 
L 1388 925 
Q 1388 613 1417 522 
Q 1447 431 1511 384 
Q 1575 338 1659 338 
Q 1772 338 1863 397 
Q 1988 478 2163 725 
L 2163 2288 
Q 2163 2619 2102 2700 
Q 2041 2781 1847 2806 
L 1847 2922 
L 3038 2922 
z
" transform="scale(0.015625)"/>
      <path id="TimesNewRomanPS-BoldMT-70" d="M 1347 297 
L 1347 -791 
Q 1347 -1016 1383 -1097 
Q 1419 -1178 1494 -1215 
Q 1569 -1253 1788 -1253 
L 1788 -1369 
L 122 -1369 
L 122 -1253 
Q 316 -1247 409 -1144 
Q 472 -1072 472 -772 
L 472 2313 
Q 472 2622 400 2708 
Q 328 2794 122 2806 
L 122 2922 
L 1347 2922 
L 1347 2538 
Q 1500 2763 1659 2863 
Q 1888 3009 2156 3009 
Q 2478 3009 2742 2806 
Q 3006 2603 3143 2245 
Q 3281 1888 3281 1475 
Q 3281 1031 3139 664 
Q 2997 297 2726 104 
Q 2456 -88 2125 -88 
Q 1884 -88 1675 19 
Q 1519 100 1347 297 
z
M 1347 613 
Q 1616 231 1922 231 
Q 2091 231 2200 409 
Q 2363 672 2363 1409 
Q 2363 2166 2184 2444 
Q 2066 2628 1866 2628 
Q 1550 2628 1347 2172 
L 1347 613 
z
" transform="scale(0.015625)"/>
      <path id="TimesNewRomanPS-BoldMT-65" d="M 2691 1566 
L 1088 1566 
Q 1116 984 1397 647 
Q 1613 388 1916 388 
Q 2103 388 2256 492 
Q 2409 597 2584 869 
L 2691 800 
Q 2453 316 2165 114 
Q 1878 -88 1500 -88 
Q 850 -88 516 413 
Q 247 816 247 1413 
Q 247 2144 642 2576 
Q 1038 3009 1569 3009 
Q 2013 3009 2339 2645 
Q 2666 2281 2691 1566 
z
M 1922 1775 
Q 1922 2278 1867 2465 
Q 1813 2653 1697 2750 
Q 1631 2806 1522 2806 
Q 1359 2806 1256 2647 
Q 1072 2369 1072 1884 
L 1072 1775 
L 1922 1775 
z
" transform="scale(0.015625)"/>
      <path id="TimesNewRomanPS-BoldMT-76" d="M 1534 -88 
L 550 2178 
Q 372 2588 272 2697 
Q 200 2778 59 2806 
L 59 2922 
L 1613 2922 
L 1613 2806 
Q 1466 2806 1413 2753 
Q 1338 2684 1338 2591 
Q 1338 2475 1475 2156 
L 1956 1059 
L 2341 2006 
Q 2506 2413 2506 2581 
Q 2506 2678 2436 2739 
Q 2366 2800 2188 2806 
L 2188 2922 
L 3144 2922 
L 3144 2806 
Q 3006 2788 2918 2703 
Q 2831 2619 2656 2206 
L 1681 -88 
L 1534 -88 
z
" transform="scale(0.015625)"/>
      <path id="TimesNewRomanPS-BoldMT-66" d="M 1497 2616 
L 1497 588 
Q 1497 294 1559 219 
Q 1659 103 1928 113 
L 1928 0 
L 206 0 
L 206 113 
Q 403 116 486 158 
Q 569 200 600 275 
Q 631 350 631 588 
L 631 2616 
L 206 2616 
L 206 2922 
L 631 2922 
L 631 3138 
L 628 3284 
Q 628 3734 958 4034 
Q 1288 4334 1850 4334 
Q 2234 4334 2420 4190 
Q 2606 4047 2606 3872 
Q 2606 3731 2490 3628 
Q 2375 3525 2184 3525 
Q 2022 3525 1926 3609 
Q 1831 3694 1831 3797 
Q 1831 3825 1850 3913 
Q 1863 3966 1863 4013 
Q 1863 4078 1825 4109 
Q 1775 4156 1703 4156 
Q 1613 4156 1552 4081 
Q 1491 4006 1491 3841 
L 1497 3294 
L 1497 2922 
L 1928 2922 
L 1928 2616 
L 1497 2616 
z
" transform="scale(0.015625)"/>
      <path id="TimesNewRomanPS-BoldMT-72" d="M 1428 2922 
L 1428 2259 
Q 1719 2713 1937 2861 
Q 2156 3009 2359 3009 
Q 2534 3009 2639 2901 
Q 2744 2794 2744 2597 
Q 2744 2388 2642 2272 
Q 2541 2156 2397 2156 
Q 2231 2156 2109 2262 
Q 1988 2369 1966 2381 
Q 1934 2400 1894 2400 
Q 1803 2400 1722 2331 
Q 1594 2225 1528 2028 
Q 1428 1725 1428 1359 
L 1428 688 
L 1431 513 
Q 1431 334 1453 284 
Q 1491 200 1564 161 
Q 1638 122 1813 113 
L 1813 0 
L 234 0 
L 234 113 
Q 425 128 492 217 
Q 559 306 559 688 
L 559 2303 
Q 559 2553 534 2622 
Q 503 2709 443 2750 
Q 384 2791 234 2806 
L 234 2922 
L 1428 2922 
z
" transform="scale(0.015625)"/>
      <path id="TimesNewRomanPS-BoldMT-28" d="M 2056 4334 
L 2056 4191 
Q 1731 3978 1578 3775 
Q 1366 3494 1247 3053 
Q 1097 2506 1097 1525 
Q 1097 600 1233 87 
Q 1369 -425 1603 -741 
Q 1766 -959 2056 -1125 
L 2056 -1281 
Q 1303 -1028 779 -248 
Q 256 531 256 1544 
Q 256 2544 778 3314 
Q 1300 4084 2056 4334 
z
" transform="scale(0.015625)"/>
      <path id="TimesNewRomanPS-BoldMT-4e" d="M 1594 4238 
L 3684 1609 
L 3684 3431 
Q 3684 3813 3575 3947 
Q 3425 4128 3072 4122 
L 3072 4238 
L 4472 4238 
L 4472 4122 
Q 4203 4088 4111 4033 
Q 4019 3978 3967 3854 
Q 3916 3731 3916 3431 
L 3916 -97 
L 3809 -97 
L 944 3431 
L 944 738 
Q 944 372 1111 244 
Q 1278 116 1494 116 
L 1594 116 
L 1594 0 
L 91 0 
L 91 116 
Q 441 119 578 259 
Q 716 400 716 738 
L 716 3728 
L 625 3841 
Q 491 4009 387 4062 
Q 284 4116 91 4122 
L 91 4238 
L 1594 4238 
z
" transform="scale(0.015625)"/>
      <path id="TimesNewRomanPS-BoldMT-6d" d="M 1428 2922 
L 1428 2538 
Q 1669 2800 1873 2904 
Q 2078 3009 2322 3009 
Q 2603 3009 2793 2878 
Q 2984 2747 3088 2478 
Q 3338 2759 3567 2884 
Q 3797 3009 4047 3009 
Q 4350 3009 4529 2870 
Q 4709 2731 4779 2517 
Q 4850 2303 4850 1834 
L 4850 638 
Q 4850 300 4911 219 
Q 4972 138 5166 113 
L 5166 0 
L 3656 0 
L 3656 113 
Q 3834 128 3919 250 
Q 3975 334 3975 638 
L 3975 1894 
Q 3975 2284 3944 2390 
Q 3913 2497 3845 2548 
Q 3778 2600 3688 2600 
Q 3553 2600 3415 2501 
Q 3278 2403 3138 2206 
L 3138 638 
Q 3138 322 3191 241 
Q 3263 125 3466 113 
L 3466 0 
L 1953 0 
L 1953 113 
Q 2075 119 2145 173 
Q 2216 228 2239 304 
Q 2263 381 2263 638 
L 2263 1894 
Q 2263 2291 2231 2391 
Q 2200 2491 2126 2547 
Q 2053 2603 1969 2603 
Q 1844 2603 1741 2538 
Q 1594 2441 1428 2206 
L 1428 638 
Q 1428 328 1489 229 
Q 1550 131 1744 113 
L 1744 0 
L 238 0 
L 238 113 
Q 422 131 500 231 
Q 553 300 553 638 
L 553 2288 
Q 553 2619 492 2700 
Q 431 2781 238 2806 
L 238 2922 
L 1428 2922 
z
" transform="scale(0.015625)"/>
      <path id="TimesNewRomanPS-BoldMT-62" d="M 1347 4238 
L 1347 2628 
Q 1716 3009 2153 3009 
Q 2453 3009 2718 2832 
Q 2984 2656 3134 2331 
Q 3284 2006 3284 1581 
Q 3284 1103 3093 712 
Q 2903 322 2584 117 
Q 2266 -88 1856 -88 
Q 1619 -88 1434 -12 
Q 1250 63 1072 231 
L 588 -84 
L 481 -84 
L 481 3631 
Q 481 3884 459 3944 
Q 428 4031 361 4073 
Q 294 4116 134 4122 
L 134 4238 
L 1347 4238 
z
M 1347 2350 
L 1347 1050 
Q 1347 653 1366 544 
Q 1397 359 1515 245 
Q 1634 131 1819 131 
Q 1978 131 2092 222 
Q 2206 313 2282 581 
Q 2359 850 2359 1550 
Q 2359 2222 2191 2472 
Q 2069 2653 1863 2653 
Q 1594 2653 1347 2350 
z
" transform="scale(0.015625)"/>
      <path id="TimesNewRomanPS-BoldMT-29" d="M 78 -1281 
L 78 -1138 
Q 403 -922 556 -719 
Q 766 -438 888 0 
Q 1038 550 1038 1531 
Q 1038 2456 902 2967 
Q 766 3478 531 3794 
Q 369 4013 78 4178 
L 78 4334 
Q 831 4081 1354 3301 
Q 1878 2522 1878 1509 
Q 1878 513 1354 -257 
Q 831 -1028 78 -1281 
z
" transform="scale(0.015625)"/>
     </defs>
     <use xlink:href="#TimesNewRomanPS-BoldMT-53"/>
     <use xlink:href="#TimesNewRomanPS-BoldMT-74" x="55.615234"/>
     <use xlink:href="#TimesNewRomanPS-BoldMT-61" x="88.916016"/>
     <use xlink:href="#TimesNewRomanPS-BoldMT-74" x="138.916016"/>
     <use xlink:href="#TimesNewRomanPS-BoldMT-69" x="172.216797"/>
     <use xlink:href="#TimesNewRomanPS-BoldMT-73" x="200"/>
     <use xlink:href="#TimesNewRomanPS-BoldMT-74" x="238.916016"/>
     <use xlink:href="#TimesNewRomanPS-BoldMT-69" x="272.216797"/>
     <use xlink:href="#TimesNewRomanPS-BoldMT-63" x="300"/>
     <use xlink:href="#TimesNewRomanPS-BoldMT-73" x="344.384766"/>
     <use xlink:href="#TimesNewRomanPS-BoldMT-20" x="383.300781"/>
     <use xlink:href="#TimesNewRomanPS-BoldMT-6f" x="408.300781"/>
     <use xlink:href="#TimesNewRomanPS-BoldMT-6e" x="458.300781"/>
     <use xlink:href="#TimesNewRomanPS-BoldMT-20" x="513.916016"/>
     <use xlink:href="#TimesNewRomanPS-BoldMT-64" x="538.916016"/>
     <use xlink:href="#TimesNewRomanPS-BoldMT-61" x="594.53125"/>
     <use xlink:href="#TimesNewRomanPS-BoldMT-69" x="644.53125"/>
     <use xlink:href="#TimesNewRomanPS-BoldMT-6c" x="672.314453"/>
     <use xlink:href="#TimesNewRomanPS-BoldMT-79" x="700.097656"/>
     <use xlink:href="#TimesNewRomanPS-BoldMT-20" x="750.097656"/>
     <use xlink:href="#TimesNewRomanPS-BoldMT-6f" x="775.097656"/>
     <use xlink:href="#TimesNewRomanPS-BoldMT-75" x="825.097656"/>
     <use xlink:href="#TimesNewRomanPS-BoldMT-74" x="880.712891"/>
     <use xlink:href="#TimesNewRomanPS-BoldMT-70" x="914.013672"/>
     <use xlink:href="#TimesNewRomanPS-BoldMT-61" x="969.628906"/>
     <use xlink:href="#TimesNewRomanPS-BoldMT-74" x="1019.628906"/>
     <use xlink:href="#TimesNewRomanPS-BoldMT-69" x="1052.929688"/>
     <use xlink:href="#TimesNewRomanPS-BoldMT-65" x="1080.712891"/>
     <use xlink:href="#TimesNewRomanPS-BoldMT-6e" x="1125.097656"/>
     <use xlink:href="#TimesNewRomanPS-BoldMT-74" x="1180.712891"/>
     <use xlink:href="#TimesNewRomanPS-BoldMT-20" x="1214.013672"/>
     <use xlink:href="#TimesNewRomanPS-BoldMT-76" x="1239.013672"/>
     <use xlink:href="#TimesNewRomanPS-BoldMT-69" x="1289.013672"/>
     <use xlink:href="#TimesNewRomanPS-BoldMT-73" x="1316.796875"/>
     <use xlink:href="#TimesNewRomanPS-BoldMT-69" x="1355.712891"/>
     <use xlink:href="#TimesNewRomanPS-BoldMT-74" x="1383.496094"/>
     <use xlink:href="#TimesNewRomanPS-BoldMT-73" x="1416.796875"/>
     <use xlink:href="#TimesNewRomanPS-BoldMT-20" x="1455.712891"/>
     <use xlink:href="#TimesNewRomanPS-BoldMT-69" x="1480.712891"/>
     <use xlink:href="#TimesNewRomanPS-BoldMT-6e" x="1508.496094"/>
     <use xlink:href="#TimesNewRomanPS-BoldMT-20" x="1564.111328"/>
     <use xlink:href="#TimesNewRomanPS-BoldMT-64" x="1589.111328"/>
     <use xlink:href="#TimesNewRomanPS-BoldMT-69" x="1644.726562"/>
     <use xlink:href="#TimesNewRomanPS-BoldMT-66" x="1672.509766"/>
     <use xlink:href="#TimesNewRomanPS-BoldMT-66" x="1705.810547"/>
     <use xlink:href="#TimesNewRomanPS-BoldMT-65" x="1739.111328"/>
     <use xlink:href="#TimesNewRomanPS-BoldMT-72" x="1783.496094"/>
     <use xlink:href="#TimesNewRomanPS-BoldMT-65" x="1826.130859"/>
     <use xlink:href="#TimesNewRomanPS-BoldMT-6e" x="1870.515625"/>
     <use xlink:href="#TimesNewRomanPS-BoldMT-74" x="1926.130859"/>
     <use xlink:href="#TimesNewRomanPS-BoldMT-20" x="1959.431641"/>
     <use xlink:href="#TimesNewRomanPS-BoldMT-63" x="1984.431641"/>
     <use xlink:href="#TimesNewRomanPS-BoldMT-69" x="2028.816406"/>
     <use xlink:href="#TimesNewRomanPS-BoldMT-74" x="2056.599609"/>
     <use xlink:href="#TimesNewRomanPS-BoldMT-69" x="2089.900391"/>
     <use xlink:href="#TimesNewRomanPS-BoldMT-65" x="2117.683594"/>
     <use xlink:href="#TimesNewRomanPS-BoldMT-73" x="2162.068359"/>
     <use xlink:href="#TimesNewRomanPS-BoldMT-20" x="2200.984375"/>
     <use xlink:href="#TimesNewRomanPS-BoldMT-28" x="2225.984375"/>
     <use xlink:href="#TimesNewRomanPS-BoldMT-4e" x="2259.285156"/>
     <use xlink:href="#TimesNewRomanPS-BoldMT-75" x="2331.501953"/>
     <use xlink:href="#TimesNewRomanPS-BoldMT-6d" x="2387.117188"/>
     <use xlink:href="#TimesNewRomanPS-BoldMT-62" x="2470.417969"/>
     <use xlink:href="#TimesNewRomanPS-BoldMT-65" x="2526.033203"/>
     <use xlink:href="#TimesNewRomanPS-BoldMT-72" x="2570.417969"/>
     <use xlink:href="#TimesNewRomanPS-BoldMT-29" x="2614.802734"/>
    </g>
   </g>
  </g>
 </g>
 <defs>
  <clipPath id="p2f9e3cf2e8">
   <rect x="50.915938" y="30.045" width="376.8" height="234.561533"/>
  </clipPath>
 </defs>
</svg>
