<?xml version="1.0" encoding="utf-8" standalone="no"?>
<!DOCTYPE svg PUBLIC "-//W3C//DTD SVG 1.1//EN"
  "http://www.w3.org/Graphics/SVG/1.1/DTD/svg11.dtd">
<svg xmlns:xlink="http://www.w3.org/1999/xlink" width="458.359687pt" height="319.95617pt" viewBox="0 0 458.359687 319.95617" xmlns="http://www.w3.org/2000/svg" version="1.1">
 <metadata>
  <rdf:RDF xmlns:dc="http://purl.org/dc/elements/1.1/" xmlns:cc="http://creativecommons.org/ns#" xmlns:rdf="http://www.w3.org/1999/02/22-rdf-syntax-ns#">
   <cc:Work>
    <dc:type rdf:resource="http://purl.org/dc/dcmitype/StillImage"/>
    <dc:date>2025-05-26T16:57:48.060073</dc:date>
    <dc:format>image/svg+xml</dc:format>
    <dc:creator>
     <cc:Agent>
      <dc:title>Matplotlib v3.7.2, https://matplotlib.org/</dc:title>
     </cc:Agent>
    </dc:creator>
   </cc:Work>
  </rdf:RDF>
 </metadata>
 <defs>
  <style type="text/css">*{stroke-linejoin: round; stroke-linecap: butt}</style>
 </defs>
 <g id="figure_1">
  <g id="patch_1">
   <path d="M 0 319.95617 
L 458.359687 319.95617 
L 458.359687 0 
L 0 0 
z
" style="fill: #ffffff"/>
  </g>
  <g id="axes_1">
   <g id="patch_2">
    <path d="M 50.915938 259.854775 
L 427.715937 259.854775 
L 427.715937 30.045 
L 50.915938 30.045 
z
" style="fill: #ffffff"/>
   </g>
   <g id="PolyCollection_1">
    <defs>
     <path id="m2f075464fa" d="M 79.907705 -70.547294 
L 75.752741 -70.547294 
L 75.560858 -72.024617 
L 75.365221 -73.501939 
L 75.166902 -74.979262 
L 74.966912 -76.456585 
L 74.766175 -77.933908 
L 74.565513 -79.411231 
L 74.365637 -80.888554 
L 74.167144 -82.365877 
L 73.970516 -83.8432 
L 73.776133 -85.320523 
L 73.584279 -86.797846 
L 73.39516 -88.275169 
L 73.208917 -89.752491 
L 73.025645 -91.229814 
L 72.845404 -92.707137 
L 72.668224 -94.18446 
L 72.494118 -95.661783 
L 72.323069 -97.139106 
L 72.155023 -98.616429 
L 71.989873 -100.093752 
L 71.827431 -101.571075 
L 71.667402 -103.048398 
L 71.509357 -104.525721 
L 71.352703 -106.003043 
L 71.196665 -107.480366 
L 71.040274 -108.957689 
L 70.88237 -110.435012 
L 70.721614 -111.912335 
L 70.556521 -113.389658 
L 70.385506 -114.866981 
L 70.206935 -116.344304 
L 70.019192 -117.821627 
L 69.820751 -119.29895 
L 69.610241 -120.776273 
L 69.386513 -122.253595 
L 69.148693 -123.730918 
L 68.896225 -125.208241 
L 68.628898 -126.685564 
L 68.346856 -128.162887 
L 68.050589 -129.64021 
L 67.74092 -131.117533 
L 67.418971 -132.594856 
L 67.086129 -134.072179 
L 66.744017 -135.549502 
L 66.39447 -137.026825 
L 66.039521 -138.504147 
L 65.681417 -139.98147 
L 65.322642 -141.458793 
L 64.965978 -142.936116 
L 64.614569 -144.413439 
L 64.272004 -145.890762 
L 63.942397 -147.368085 
L 63.630449 -148.845408 
L 63.341486 -150.322731 
L 63.081444 -151.800054 
L 62.856799 -153.277377 
L 62.674424 -154.754699 
L 62.541376 -156.232022 
L 62.464608 -157.709345 
L 62.450631 -159.186668 
L 62.505123 -160.663991 
L 62.632533 -162.141314 
L 62.835699 -163.618637 
L 63.115508 -165.09596 
L 63.470643 -166.573283 
L 63.897431 -168.050606 
L 64.389817 -169.527929 
L 64.939477 -171.005251 
L 65.536066 -172.482574 
L 66.167596 -173.959897 
L 66.820913 -175.43722 
L 67.482261 -176.914543 
L 68.137872 -178.391866 
L 68.774576 -179.869189 
L 69.380365 -181.346512 
L 69.944897 -182.823835 
L 70.459898 -184.301158 
L 70.91945 -185.778481 
L 71.320153 -187.255803 
L 71.66115 -188.733126 
L 71.944028 -190.210449 
L 72.172605 -191.687772 
L 72.352616 -193.165095 
L 72.491333 -194.642418 
L 72.597125 -196.119741 
L 72.679003 -197.597064 
L 72.746156 -199.074387 
L 72.807517 -200.55171 
L 72.871368 -202.029033 
L 72.945004 -203.506355 
L 73.034467 -204.983678 
L 73.144366 -206.461001 
L 73.277771 -207.938324 
L 73.436194 -209.415647 
L 73.619648 -210.89297 
L 73.826773 -212.370293 
L 74.055019 -213.847616 
L 74.300874 -215.324939 
L 74.560117 -216.802262 
L 81.100329 -216.802262 
L 81.100329 -216.802262 
L 81.359572 -215.324939 
L 81.605427 -213.847616 
L 81.833674 -212.370293 
L 82.040799 -210.89297 
L 82.224253 -209.415647 
L 82.382676 -207.938324 
L 82.51608 -206.461001 
L 82.625979 -204.983678 
L 82.715443 -203.506355 
L 82.789078 -202.029033 
L 82.852929 -200.55171 
L 82.91429 -199.074387 
L 82.981443 -197.597064 
L 83.063321 -196.119741 
L 83.169114 -194.642418 
L 83.30783 -193.165095 
L 83.487842 -191.687772 
L 83.716418 -190.210449 
L 83.999297 -188.733126 
L 84.340294 -187.255803 
L 84.740997 -185.778481 
L 85.200549 -184.301158 
L 85.715549 -182.823835 
L 86.280081 -181.346512 
L 86.885871 -179.869189 
L 87.522575 -178.391866 
L 88.178186 -176.914543 
L 88.839533 -175.43722 
L 89.492851 -173.959897 
L 90.12438 -172.482574 
L 90.720969 -171.005251 
L 91.270629 -169.527929 
L 91.763015 -168.050606 
L 92.189803 -166.573283 
L 92.544939 -165.09596 
L 92.824748 -163.618637 
L 93.027913 -162.141314 
L 93.155323 -160.663991 
L 93.209815 -159.186668 
L 93.195838 -157.709345 
L 93.119071 -156.232022 
L 92.986022 -154.754699 
L 92.803647 -153.277377 
L 92.579002 -151.800054 
L 92.318961 -150.322731 
L 92.029998 -148.845408 
L 91.71805 -147.368085 
L 91.388442 -145.890762 
L 91.045877 -144.413439 
L 90.694468 -142.936116 
L 90.337804 -141.458793 
L 89.97903 -139.98147 
L 89.620925 -138.504147 
L 89.265977 -137.026825 
L 88.916429 -135.549502 
L 88.574318 -134.072179 
L 88.241476 -132.594856 
L 87.919526 -131.117533 
L 87.609857 -129.64021 
L 87.313591 -128.162887 
L 87.031548 -126.685564 
L 86.764221 -125.208241 
L 86.511754 -123.730918 
L 86.273933 -122.253595 
L 86.050205 -120.776273 
L 85.839695 -119.29895 
L 85.641254 -117.821627 
L 85.453512 -116.344304 
L 85.27494 -114.866981 
L 85.103925 -113.389658 
L 84.938833 -111.912335 
L 84.778077 -110.435012 
L 84.620172 -108.957689 
L 84.463781 -107.480366 
L 84.307743 -106.003043 
L 84.151089 -104.525721 
L 83.993044 -103.048398 
L 83.833016 -101.571075 
L 83.670574 -100.093752 
L 83.505423 -98.616429 
L 83.337378 -97.139106 
L 83.166328 -95.661783 
L 82.992222 -94.18446 
L 82.815043 -92.707137 
L 82.634801 -91.229814 
L 82.451529 -89.752491 
L 82.265287 -88.275169 
L 82.076168 -86.797846 
L 81.884313 -85.320523 
L 81.68993 -83.8432 
L 81.493303 -82.365877 
L 81.294809 -80.888554 
L 81.094934 -79.411231 
L 80.894272 -77.933908 
L 80.693534 -76.456585 
L 80.493544 -74.979262 
L 80.295226 -73.501939 
L 80.099588 -72.024617 
L 79.907705 -70.547294 
z
" style="stroke: #000000; stroke-opacity: 0.7"/>
    </defs>
    <g clip-path="url(#peeebc2c6b5)">
     <use xlink:href="#m2f075464fa" x="0" y="319.95617" style="fill: #f7b6d2; fill-opacity: 0.7; stroke: #000000; stroke-opacity: 0.7"/>
    </g>
   </g>
   <g id="PolyCollection_2">
    <defs>
     <path id="m84fddba775" d="M 132.330786 -105.841676 
L 130.986803 -105.841676 
L 130.914639 -107.352774 
L 130.837567 -108.863871 
L 130.755223 -110.374969 
L 130.667282 -111.886066 
L 130.57345 -113.397163 
L 130.473428 -114.908261 
L 130.366832 -116.419358 
L 130.253077 -117.930456 
L 130.131241 -119.441553 
L 129.999927 -120.952651 
L 129.857136 -122.463748 
L 129.700205 -123.974846 
L 129.525803 -125.485943 
L 129.330022 -126.99704 
L 129.108569 -128.508138 
L 128.857046 -130.019235 
L 128.571305 -131.530333 
L 128.247849 -133.04143 
L 127.884238 -134.552528 
L 127.479466 -136.063625 
L 127.034253 -137.574722 
L 126.551238 -139.08582 
L 126.035021 -140.596917 
L 125.492069 -142.108015 
L 124.930454 -143.619112 
L 124.359462 -145.13021 
L 123.789081 -146.641307 
L 123.229412 -148.152405 
L 122.690041 -149.663502 
L 122.17942 -151.174599 
L 121.704312 -152.685697 
L 121.269336 -154.196794 
L 120.87666 -155.707892 
L 120.525881 -157.218989 
L 120.214091 -158.730087 
L 119.936156 -160.241184 
L 119.685182 -161.752281 
L 119.453133 -163.263379 
L 119.231573 -164.774476 
L 119.012451 -166.285574 
L 118.788873 -167.796671 
L 118.555786 -169.307769 
L 118.310518 -170.818866 
L 118.053108 -172.329964 
L 117.786402 -173.841061 
L 117.515898 -175.352158 
L 117.249357 -176.863256 
L 116.9962 -178.374353 
L 116.766766 -179.885451 
L 116.571482 -181.396548 
L 116.420029 -182.907646 
L 116.320584 -184.418743 
L 116.279203 -185.92984 
L 116.299396 -187.440938 
L 116.381941 -188.952035 
L 116.524933 -190.463133 
L 116.724064 -191.97423 
L 116.97309 -193.485328 
L 117.264428 -194.996425 
L 117.589822 -196.507523 
L 117.940992 -198.01862 
L 118.310216 -199.529717 
L 118.690773 -201.040815 
L 119.077229 -202.551912 
L 119.465543 -204.06301 
L 119.853017 -205.574107 
L 120.238109 -207.085205 
L 120.620168 -208.596302 
L 120.999136 -210.1074 
L 121.375262 -211.618497 
L 121.748869 -213.129594 
L 122.120203 -214.640692 
L 122.489358 -216.151789 
L 122.856273 -217.662887 
L 123.220775 -219.173984 
L 123.582646 -220.685082 
L 123.941673 -222.196179 
L 124.297677 -223.707276 
L 124.650488 -225.218374 
L 124.999891 -226.729471 
L 125.345536 -228.240569 
L 125.686849 -229.751666 
L 126.022958 -231.262764 
L 126.352664 -232.773861 
L 126.674471 -234.284959 
L 126.986675 -235.796056 
L 127.287519 -237.307153 
L 127.575374 -238.818251 
L 127.848935 -240.329348 
L 128.107393 -241.840446 
L 128.350556 -243.351543 
L 128.5789 -244.862641 
L 128.793525 -246.373738 
L 128.99604 -247.884835 
L 129.188378 -249.395933 
L 129.372563 -250.90703 
L 129.550482 -252.418128 
L 129.723662 -253.929225 
L 129.89312 -255.440323 
L 133.42447 -255.440323 
L 133.42447 -255.440323 
L 133.593927 -253.929225 
L 133.767108 -252.418128 
L 133.945026 -250.90703 
L 134.129211 -249.395933 
L 134.321549 -247.884835 
L 134.524065 -246.373738 
L 134.738689 -244.862641 
L 134.967033 -243.351543 
L 135.210197 -241.840446 
L 135.468654 -240.329348 
L 135.742215 -238.818251 
L 136.03007 -237.307153 
L 136.330914 -235.796056 
L 136.643119 -234.284959 
L 136.964925 -232.773861 
L 137.294631 -231.262764 
L 137.63074 -229.751666 
L 137.972054 -228.240569 
L 138.317699 -226.729471 
L 138.667101 -225.218374 
L 139.019912 -223.707276 
L 139.375916 -222.196179 
L 139.734943 -220.685082 
L 140.096814 -219.173984 
L 140.461316 -217.662887 
L 140.828231 -216.151789 
L 141.197386 -214.640692 
L 141.568721 -213.129594 
L 141.942328 -211.618497 
L 142.318453 -210.1074 
L 142.697421 -208.596302 
L 143.079481 -207.085205 
L 143.464572 -205.574107 
L 143.852046 -204.06301 
L 144.240361 -202.551912 
L 144.626816 -201.040815 
L 145.007374 -199.529717 
L 145.376597 -198.01862 
L 145.727768 -196.507523 
L 146.053161 -194.996425 
L 146.344499 -193.485328 
L 146.593525 -191.97423 
L 146.792656 -190.463133 
L 146.935649 -188.952035 
L 147.018194 -187.440938 
L 147.038386 -185.92984 
L 146.997005 -184.418743 
L 146.897561 -182.907646 
L 146.746108 -181.396548 
L 146.550823 -179.885451 
L 146.32139 -178.374353 
L 146.068233 -176.863256 
L 145.801691 -175.352158 
L 145.531187 -173.841061 
L 145.264481 -172.329964 
L 145.007071 -170.818866 
L 144.761803 -169.307769 
L 144.528716 -167.796671 
L 144.305138 -166.285574 
L 144.086016 -164.774476 
L 143.864457 -163.263379 
L 143.632408 -161.752281 
L 143.381433 -160.241184 
L 143.103499 -158.730087 
L 142.791709 -157.218989 
L 142.440929 -155.707892 
L 142.048253 -154.196794 
L 141.613277 -152.685697 
L 141.138169 -151.174599 
L 140.627549 -149.663502 
L 140.088178 -148.152405 
L 139.528509 -146.641307 
L 138.958128 -145.13021 
L 138.387135 -143.619112 
L 137.82552 -142.108015 
L 137.282568 -140.596917 
L 136.766351 -139.08582 
L 136.283336 -137.574722 
L 135.838123 -136.063625 
L 135.433351 -134.552528 
L 135.069741 -133.04143 
L 134.746285 -131.530333 
L 134.460544 -130.019235 
L 134.209021 -128.508138 
L 133.987568 -126.99704 
L 133.791786 -125.485943 
L 133.617384 -123.974846 
L 133.460453 -122.463748 
L 133.317663 -120.952651 
L 133.186348 -119.441553 
L 133.064513 -117.930456 
L 132.950757 -116.419358 
L 132.844161 -114.908261 
L 132.744139 -113.397163 
L 132.650307 -111.886066 
L 132.562366 -110.374969 
L 132.480022 -108.863871 
L 132.40295 -107.352774 
L 132.330786 -105.841676 
z
" style="stroke: #000000; stroke-opacity: 0.7"/>
    </defs>
    <g clip-path="url(#peeebc2c6b5)">
     <use xlink:href="#m84fddba775" x="0" y="319.95617" style="fill: #fc8d62; fill-opacity: 0.7; stroke: #000000; stroke-opacity: 0.7"/>
    </g>
   </g>
   <g id="PolyCollection_3">
    <defs>
     <path id="me41d158bb2" d="M 185.818232 -75.500891 
L 185.1565 -75.500891 
L 185.154222 -77.367247 
L 185.155799 -79.233602 
L 185.15964 -81.099958 
L 185.163575 -82.966313 
L 185.164951 -84.832668 
L 185.160755 -86.699024 
L 185.147784 -88.565379 
L 185.122834 -90.431735 
L 185.082914 -92.29809 
L 185.025453 -94.164446 
L 184.948509 -96.030801 
L 184.85095 -97.897157 
L 184.732588 -99.763512 
L 184.594262 -101.629867 
L 184.437829 -103.496223 
L 184.266068 -105.362578 
L 184.082486 -107.228934 
L 183.891028 -109.095289 
L 183.695716 -110.961645 
L 183.500256 -112.828 
L 183.307639 -114.694356 
L 183.119806 -116.560711 
L 182.937402 -118.427066 
L 182.759674 -120.293422 
L 182.584517 -122.159777 
L 182.408676 -124.026133 
L 182.228085 -125.892488 
L 182.038299 -127.758844 
L 181.834969 -129.625199 
L 181.614302 -131.491555 
L 181.373443 -133.35791 
L 181.110739 -135.224265 
L 180.825832 -137.090621 
L 180.519587 -138.956976 
L 180.193849 -140.823332 
L 179.851061 -142.689687 
L 179.493794 -144.556043 
L 179.124259 -146.422398 
L 178.743868 -148.288754 
L 178.352923 -150.155109 
L 177.95049 -152.021464 
L 177.534498 -153.88782 
L 177.102067 -155.754175 
L 176.650047 -157.620531 
L 176.175702 -159.486886 
L 175.677453 -161.353242 
L 175.15558 -163.219597 
L 174.612785 -165.085953 
L 174.054522 -166.952308 
L 173.489042 -168.818663 
L 172.927133 -170.685019 
L 172.381559 -172.551374 
L 171.866274 -174.41773 
L 171.395487 -176.284085 
L 170.982672 -178.150441 
L 170.639647 -180.016796 
L 170.375807 -181.883152 
L 170.197589 -183.749507 
L 170.108224 -185.615862 
L 170.107774 -187.482218 
L 170.193453 -189.348573 
L 170.360147 -191.214929 
L 170.601074 -193.081284 
L 170.90848 -194.94764 
L 171.274276 -196.813995 
L 171.690528 -198.680351 
L 172.149754 -200.546706 
L 172.645008 -202.413061 
L 173.16977 -204.279417 
L 173.717693 -206.145772 
L 174.282311 -208.012128 
L 174.856766 -209.878483 
L 175.433672 -211.744839 
L 176.005134 -213.611194 
L 176.562986 -215.47755 
L 177.099192 -217.343905 
L 177.606378 -219.21026 
L 178.078407 -221.076616 
L 178.510913 -222.942971 
L 178.901696 -224.809327 
L 179.250935 -226.675682 
L 179.561164 -228.542038 
L 179.837023 -230.408393 
L 180.084811 -232.274749 
L 180.3119 -234.141104 
L 180.526066 -236.007459 
L 180.734837 -237.873815 
L 180.944896 -239.74017 
L 181.161611 -241.606526 
L 181.388726 -243.472881 
L 181.628216 -245.339237 
L 181.880305 -247.205592 
L 182.143639 -249.071948 
L 182.415552 -250.938303 
L 182.692415 -252.804659 
L 182.970012 -254.671014 
L 183.243909 -256.537369 
L 183.509782 -258.403725 
L 183.763696 -260.27008 
L 187.211036 -260.27008 
L 187.211036 -260.27008 
L 187.46495 -258.403725 
L 187.730823 -256.537369 
L 188.00472 -254.671014 
L 188.282318 -252.804659 
L 188.559181 -250.938303 
L 188.831093 -249.071948 
L 189.094427 -247.205592 
L 189.346516 -245.339237 
L 189.586006 -243.472881 
L 189.813121 -241.606526 
L 190.029836 -239.74017 
L 190.239895 -237.873815 
L 190.448666 -236.007459 
L 190.662833 -234.141104 
L 190.889921 -232.274749 
L 191.13771 -230.408393 
L 191.413568 -228.542038 
L 191.723797 -226.675682 
L 192.073036 -224.809327 
L 192.463819 -222.942971 
L 192.896325 -221.076616 
L 193.368354 -219.21026 
L 193.87554 -217.343905 
L 194.411746 -215.47755 
L 194.969598 -213.611194 
L 195.54106 -211.744839 
L 196.117966 -209.878483 
L 196.692422 -208.012128 
L 197.257039 -206.145772 
L 197.804963 -204.279417 
L 198.329724 -202.413061 
L 198.824978 -200.546706 
L 199.284204 -198.680351 
L 199.700456 -196.813995 
L 200.066252 -194.94764 
L 200.373659 -193.081284 
L 200.614585 -191.214929 
L 200.781279 -189.348573 
L 200.866958 -187.482218 
L 200.866509 -185.615862 
L 200.777143 -183.749507 
L 200.598925 -181.883152 
L 200.335085 -180.016796 
L 199.99206 -178.150441 
L 199.579245 -176.284085 
L 199.108458 -174.41773 
L 198.593173 -172.551374 
L 198.047599 -170.685019 
L 197.48569 -168.818663 
L 196.920211 -166.952308 
L 196.361947 -165.085953 
L 195.819152 -163.219597 
L 195.297279 -161.353242 
L 194.79903 -159.486886 
L 194.324685 -157.620531 
L 193.872665 -155.754175 
L 193.440234 -153.88782 
L 193.024242 -152.021464 
L 192.621809 -150.155109 
L 192.230865 -148.288754 
L 191.850474 -146.422398 
L 191.480938 -144.556043 
L 191.123671 -142.689687 
L 190.780883 -140.823332 
L 190.455145 -138.956976 
L 190.1489 -137.090621 
L 189.863993 -135.224265 
L 189.601289 -133.35791 
L 189.36043 -131.491555 
L 189.139763 -129.625199 
L 188.936433 -127.758844 
L 188.746647 -125.892488 
L 188.566056 -124.026133 
L 188.390215 -122.159777 
L 188.215058 -120.293422 
L 188.03733 -118.427066 
L 187.854926 -116.560711 
L 187.667093 -114.694356 
L 187.474476 -112.828 
L 187.279016 -110.961645 
L 187.083705 -109.095289 
L 186.892246 -107.228934 
L 186.708664 -105.362578 
L 186.536903 -103.496223 
L 186.38047 -101.629867 
L 186.242144 -99.763512 
L 186.123782 -97.897157 
L 186.026223 -96.030801 
L 185.949279 -94.164446 
L 185.891818 -92.29809 
L 185.851898 -90.431735 
L 185.826948 -88.565379 
L 185.813977 -86.699024 
L 185.809781 -84.832668 
L 185.811157 -82.966313 
L 185.815093 -81.099958 
L 185.818933 -79.233602 
L 185.82051 -77.367247 
L 185.818232 -75.500891 
z
" style="stroke: #000000; stroke-opacity: 0.7"/>
    </defs>
    <g clip-path="url(#peeebc2c6b5)">
     <use xlink:href="#me41d158bb2" x="0" y="319.95617" style="fill: #8da0cb; fill-opacity: 0.7; stroke: #000000; stroke-opacity: 0.7"/>
    </g>
   </g>
   <g id="PolyCollection_4">
    <defs>
     <path id="m83ef6f59f5" d="M 241.119403 -79.216089 
L 237.512472 -79.216089 
L 237.334452 -81.238808 
L 237.148374 -83.261527 
L 236.953408 -85.284246 
L 236.748298 -87.306965 
L 236.531366 -89.329684 
L 236.300541 -91.352403 
L 236.053424 -93.375122 
L 235.787382 -95.397841 
L 235.49967 -97.42056 
L 235.18758 -99.443279 
L 234.848597 -101.465998 
L 234.480575 -103.488717 
L 234.0819 -105.511436 
L 233.65166 -107.534155 
L 233.189781 -109.556874 
L 232.69715 -111.579593 
L 232.1757 -113.602312 
L 231.628451 -115.625031 
L 231.059508 -117.64775 
L 230.473998 -119.670469 
L 229.877965 -121.693188 
L 229.278198 -123.715907 
L 228.682018 -125.738626 
L 228.09702 -127.761345 
L 227.53079 -129.784064 
L 226.990612 -131.806783 
L 226.483183 -133.829502 
L 226.014355 -135.852221 
L 225.588935 -137.874941 
L 225.210541 -139.89766 
L 224.881541 -141.920379 
L 224.603071 -143.943098 
L 224.375128 -145.965817 
L 224.196731 -147.988536 
L 224.06612 -150.011255 
L 223.98098 -152.033974 
L 223.938657 -154.056693 
L 223.936346 -156.079412 
L 223.971223 -158.102131 
L 224.040522 -160.12485 
L 224.141541 -162.147569 
L 224.271589 -164.170288 
L 224.42789 -166.193007 
L 224.607471 -168.215726 
L 224.807048 -170.238445 
L 225.022948 -172.261164 
L 225.251085 -174.283883 
L 225.486999 -176.306602 
L 225.725974 -178.329321 
L 225.963222 -180.35204 
L 226.194115 -182.374759 
L 226.414454 -184.397478 
L 226.620733 -186.420197 
L 226.810373 -188.442916 
L 226.981906 -190.465635 
L 227.135078 -192.488354 
L 227.270861 -194.511073 
L 227.391372 -196.533792 
L 227.499713 -198.556511 
L 227.599734 -200.57923 
L 227.695752 -202.601949 
L 227.792254 -204.624668 
L 227.893602 -206.647387 
L 228.003774 -208.670106 
L 228.12615 -210.692825 
L 228.263369 -212.715544 
L 228.417246 -214.738263 
L 228.588765 -216.760982 
L 228.778117 -218.783701 
L 228.984793 -220.80642 
L 229.207701 -222.829139 
L 229.445299 -224.851858 
L 229.695721 -226.874577 
L 229.956903 -228.897296 
L 230.226683 -230.920015 
L 230.502887 -232.942734 
L 230.783393 -234.965453 
L 231.066183 -236.988172 
L 231.349383 -239.010891 
L 231.631303 -241.03361 
L 231.91047 -243.056329 
L 232.185668 -245.079048 
L 232.455972 -247.101767 
L 232.72078 -249.124486 
L 232.979845 -251.147205 
L 233.233275 -253.169924 
L 233.481535 -255.192643 
L 233.725408 -257.215362 
L 233.965937 -259.238081 
L 234.204349 -261.2608 
L 234.441947 -263.283519 
L 234.679999 -265.306238 
L 234.919616 -267.328957 
L 235.161643 -269.351676 
L 235.406558 -271.374395 
L 235.654405 -273.397114 
L 235.904751 -275.419833 
L 236.156683 -277.442552 
L 236.408845 -279.465271 
L 242.22303 -279.465271 
L 242.22303 -279.465271 
L 242.475192 -277.442552 
L 242.727124 -275.419833 
L 242.97747 -273.397114 
L 243.225317 -271.374395 
L 243.470232 -269.351676 
L 243.712259 -267.328957 
L 243.951876 -265.306238 
L 244.189928 -263.283519 
L 244.427526 -261.2608 
L 244.665938 -259.238081 
L 244.906467 -257.215362 
L 245.15034 -255.192643 
L 245.3986 -253.169924 
L 245.65203 -251.147205 
L 245.911095 -249.124486 
L 246.175903 -247.101767 
L 246.446207 -245.079048 
L 246.721405 -243.056329 
L 247.000572 -241.03361 
L 247.282492 -239.010891 
L 247.565692 -236.988172 
L 247.848482 -234.965453 
L 248.128988 -232.942734 
L 248.405192 -230.920015 
L 248.674972 -228.897296 
L 248.936154 -226.874577 
L 249.186576 -224.851858 
L 249.424174 -222.829139 
L 249.647082 -220.80642 
L 249.853758 -218.783701 
L 250.04311 -216.760982 
L 250.214629 -214.738263 
L 250.368506 -212.715544 
L 250.505725 -210.692825 
L 250.628101 -208.670106 
L 250.738273 -206.647387 
L 250.839621 -204.624668 
L 250.936123 -202.601949 
L 251.032141 -200.57923 
L 251.132162 -198.556511 
L 251.240503 -196.533792 
L 251.361014 -194.511073 
L 251.496797 -192.488354 
L 251.649969 -190.465635 
L 251.821502 -188.442916 
L 252.011142 -186.420197 
L 252.217421 -184.397478 
L 252.43776 -182.374759 
L 252.668653 -180.35204 
L 252.905901 -178.329321 
L 253.144876 -176.306602 
L 253.38079 -174.283883 
L 253.608927 -172.261164 
L 253.824827 -170.238445 
L 254.024404 -168.215726 
L 254.203985 -166.193007 
L 254.360286 -164.170288 
L 254.490334 -162.147569 
L 254.591353 -160.12485 
L 254.660652 -158.102131 
L 254.695529 -156.079412 
L 254.693218 -154.056693 
L 254.650895 -152.033974 
L 254.565755 -150.011255 
L 254.435144 -147.988536 
L 254.256747 -145.965817 
L 254.028804 -143.943098 
L 253.750334 -141.920379 
L 253.421334 -139.89766 
L 253.04294 -137.874941 
L 252.61752 -135.852221 
L 252.148692 -133.829502 
L 251.641263 -131.806783 
L 251.101085 -129.784064 
L 250.534855 -127.761345 
L 249.949857 -125.738626 
L 249.353677 -123.715907 
L 248.75391 -121.693188 
L 248.157877 -119.670469 
L 247.572367 -117.64775 
L 247.003424 -115.625031 
L 246.456175 -113.602312 
L 245.934725 -111.579593 
L 245.442094 -109.556874 
L 244.980215 -107.534155 
L 244.549975 -105.511436 
L 244.1513 -103.488717 
L 243.783278 -101.465998 
L 243.444295 -99.443279 
L 243.132205 -97.42056 
L 242.844493 -95.397841 
L 242.578451 -93.375122 
L 242.331334 -91.352403 
L 242.100509 -89.329684 
L 241.883577 -87.306965 
L 241.678467 -85.284246 
L 241.483501 -83.261527 
L 241.297423 -81.238808 
L 241.119403 -79.216089 
z
" style="stroke: #000000; stroke-opacity: 0.7"/>
    </defs>
    <g clip-path="url(#peeebc2c6b5)">
     <use xlink:href="#m83ef6f59f5" x="0" y="319.95617" style="fill: #2ca02c; fill-opacity: 0.7; stroke: #000000; stroke-opacity: 0.7"/>
    </g>
   </g>
   <g id="PolyCollection_5">
    <defs>
     <path id="m252697ea9b" d="M 293.623819 -70.794973 
L 292.665199 -70.794973 
L 292.62519 -72.722623 
L 292.580632 -74.650273 
L 292.529326 -76.577923 
L 292.468807 -78.505573 
L 292.396482 -80.433223 
L 292.309801 -82.360873 
L 292.206419 -84.288523 
L 292.084351 -86.216173 
L 291.942085 -88.143823 
L 291.778672 -90.071473 
L 291.593749 -91.999123 
L 291.387538 -93.926773 
L 291.160784 -95.854423 
L 290.914679 -97.782073 
L 290.65075 -99.709723 
L 290.37075 -101.637373 
L 290.076543 -103.565023 
L 289.77 -105.492673 
L 289.452913 -107.420323 
L 289.12692 -109.347973 
L 288.793447 -111.275623 
L 288.45367 -113.203273 
L 288.108478 -115.130923 
L 287.75846 -117.058573 
L 287.403888 -118.986223 
L 287.044717 -120.913872 
L 286.680602 -122.841522 
L 286.310924 -124.769172 
L 285.934841 -126.696822 
L 285.551363 -128.624472 
L 285.159451 -130.552122 
L 284.758138 -132.479772 
L 284.346669 -134.407422 
L 283.92465 -136.335072 
L 283.4922 -138.262722 
L 283.050075 -140.190372 
L 282.599776 -142.118022 
L 282.143605 -144.045672 
L 281.68468 -145.973322 
L 281.226889 -147.900972 
L 280.774807 -149.828622 
L 280.333566 -151.756272 
L 279.908712 -153.683922 
L 279.506049 -155.611572 
L 279.131504 -157.539222 
L 278.79099 -159.466872 
L 278.490306 -161.394522 
L 278.23503 -163.322172 
L 278.03041 -165.249822 
L 277.881234 -167.177472 
L 277.791644 -169.105122 
L 277.764917 -171.032771 
L 277.803192 -172.960421 
L 277.907178 -174.888071 
L 278.075874 -176.815721 
L 278.30635 -178.743371 
L 278.593631 -180.671021 
L 278.930729 -182.598671 
L 279.308854 -184.526321 
L 279.717797 -186.453971 
L 280.146486 -188.381621 
L 280.583659 -190.309271 
L 281.018586 -192.236921 
L 281.441791 -194.164571 
L 281.84567 -196.092221 
L 282.224953 -198.019871 
L 282.576966 -199.947521 
L 282.901654 -201.875171 
L 283.201381 -203.802821 
L 283.480525 -205.730471 
L 283.744932 -207.658121 
L 284.001275 -209.585771 
L 284.256409 -211.513421 
L 284.516762 -213.441071 
L 284.787838 -215.368721 
L 285.073844 -217.296371 
L 285.377476 -219.22402 
L 285.699852 -221.15167 
L 286.040569 -223.07932 
L 286.397865 -225.00697 
L 286.768858 -226.93462 
L 287.149812 -228.86227 
L 287.536426 -230.78992 
L 287.924113 -232.71757 
L 288.308259 -234.64522 
L 288.684453 -236.57287 
L 289.048691 -238.50052 
L 289.397536 -240.42817 
L 289.728241 -242.35582 
L 290.038835 -244.28347 
L 290.328149 -246.21112 
L 290.595809 -248.13877 
L 290.84216 -250.06642 
L 291.06816 -251.99407 
L 291.275227 -253.92172 
L 291.465069 -255.84937 
L 291.639507 -257.77702 
L 291.800306 -259.70467 
L 291.949036 -261.63232 
L 294.339982 -261.63232 
L 294.339982 -261.63232 
L 294.488712 -259.70467 
L 294.649511 -257.77702 
L 294.823949 -255.84937 
L 295.013791 -253.92172 
L 295.220858 -251.99407 
L 295.446858 -250.06642 
L 295.693209 -248.13877 
L 295.960869 -246.21112 
L 296.250183 -244.28347 
L 296.560777 -242.35582 
L 296.891482 -240.42817 
L 297.240326 -238.50052 
L 297.604565 -236.57287 
L 297.980759 -234.64522 
L 298.364905 -232.71757 
L 298.752591 -230.78992 
L 299.139206 -228.86227 
L 299.52016 -226.93462 
L 299.891153 -225.00697 
L 300.248449 -223.07932 
L 300.589166 -221.15167 
L 300.911542 -219.22402 
L 301.215174 -217.296371 
L 301.50118 -215.368721 
L 301.772256 -213.441071 
L 302.032609 -211.513421 
L 302.287743 -209.585771 
L 302.544086 -207.658121 
L 302.808492 -205.730471 
L 303.087637 -203.802821 
L 303.387363 -201.875171 
L 303.712052 -199.947521 
L 304.064065 -198.019871 
L 304.443348 -196.092221 
L 304.847226 -194.164571 
L 305.270432 -192.236921 
L 305.705359 -190.309271 
L 306.142532 -188.381621 
L 306.571221 -186.453971 
L 306.980164 -184.526321 
L 307.358288 -182.598671 
L 307.695387 -180.671021 
L 307.982668 -178.743371 
L 308.213144 -176.815721 
L 308.38184 -174.888071 
L 308.485826 -172.960421 
L 308.524101 -171.032771 
L 308.497374 -169.105122 
L 308.407784 -167.177472 
L 308.258607 -165.249822 
L 308.053988 -163.322172 
L 307.798712 -161.394522 
L 307.498027 -159.466872 
L 307.157514 -157.539222 
L 306.782968 -155.611572 
L 306.380306 -153.683922 
L 305.955452 -151.756272 
L 305.514211 -149.828622 
L 305.062128 -147.900972 
L 304.604338 -145.973322 
L 304.145413 -144.045672 
L 303.689242 -142.118022 
L 303.238943 -140.190372 
L 302.796818 -138.262722 
L 302.364367 -136.335072 
L 301.942349 -134.407422 
L 301.53088 -132.479772 
L 301.129567 -130.552122 
L 300.737655 -128.624472 
L 300.354177 -126.696822 
L 299.978094 -124.769172 
L 299.608416 -122.841522 
L 299.244301 -120.913872 
L 298.88513 -118.986223 
L 298.530557 -117.058573 
L 298.18054 -115.130923 
L 297.835348 -113.203273 
L 297.495571 -111.275623 
L 297.162098 -109.347973 
L 296.836104 -107.420323 
L 296.519018 -105.492673 
L 296.212475 -103.565023 
L 295.918267 -101.637373 
L 295.638267 -99.709723 
L 295.374339 -97.782073 
L 295.128233 -95.854423 
L 294.90148 -93.926773 
L 294.695269 -91.999123 
L 294.510346 -90.071473 
L 294.346933 -88.143823 
L 294.204667 -86.216173 
L 294.082599 -84.288523 
L 293.979217 -82.360873 
L 293.892536 -80.433223 
L 293.820211 -78.505573 
L 293.759691 -76.577923 
L 293.708386 -74.650273 
L 293.663828 -72.722623 
L 293.623819 -70.794973 
z
" style="stroke: #000000; stroke-opacity: 0.7"/>
    </defs>
    <g clip-path="url(#peeebc2c6b5)">
     <use xlink:href="#m252697ea9b" x="0" y="319.95617" style="fill: #8c564b; fill-opacity: 0.7; stroke: #000000; stroke-opacity: 0.7"/>
    </g>
   </g>
   <g id="PolyCollection_6">
    <defs>
     <path id="m586befd721" d="M 347.767932 -105.470156 
L 346.178229 -105.470156 
L 346.130998 -106.691043 
L 346.089043 -107.91193 
L 346.052013 -109.132816 
L 346.019135 -110.353703 
L 345.989272 -111.57459 
L 345.961018 -112.795476 
L 345.932791 -114.016363 
L 345.90291 -115.23725 
L 345.869653 -116.458136 
L 345.831295 -117.679023 
L 345.786103 -118.89991 
L 345.732338 -120.120797 
L 345.668236 -121.341683 
L 345.592027 -122.56257 
L 345.501963 -123.783457 
L 345.396396 -125.004343 
L 345.273881 -126.22523 
L 345.133305 -127.446117 
L 344.974013 -128.667003 
L 344.795916 -129.88789 
L 344.599548 -131.108777 
L 344.386063 -132.329663 
L 344.157159 -133.55055 
L 343.914924 -134.771437 
L 343.661627 -135.992323 
L 343.399468 -137.21321 
L 343.130317 -138.434097 
L 342.85547 -139.654983 
L 342.575458 -140.87587 
L 342.289925 -142.096757 
L 341.997594 -143.317643 
L 341.696337 -144.53853 
L 341.383334 -145.759417 
L 341.055329 -146.980303 
L 340.70895 -148.20119 
L 340.341071 -149.422077 
L 339.949194 -150.642963 
L 339.531794 -151.86385 
L 339.088621 -153.084737 
L 338.620899 -154.305623 
L 338.131411 -155.52651 
L 337.624465 -156.747397 
L 337.105717 -157.968283 
L 336.581888 -159.18917 
L 336.060387 -160.410057 
L 335.548883 -161.630943 
L 335.054851 -162.85183 
L 334.585153 -164.072717 
L 334.145667 -165.293603 
L 333.740999 -166.51449 
L 333.374303 -167.735377 
L 333.047207 -168.956263 
L 332.759856 -170.17715 
L 332.511066 -171.398037 
L 332.298587 -172.618923 
L 332.119447 -173.83981 
L 331.97037 -175.060697 
L 331.848233 -176.281583 
L 331.750511 -177.50247 
L 331.675684 -178.723357 
L 331.623525 -179.944243 
L 331.595254 -181.16513 
L 331.593489 -182.386017 
L 331.622003 -183.606903 
L 331.685292 -184.82779 
L 331.78799 -186.048677 
L 331.934212 -187.269563 
L 332.126907 -188.49045 
L 332.367319 -189.711337 
L 332.65464 -190.932223 
L 332.985923 -192.15311 
L 333.356265 -193.373997 
L 333.759244 -194.594884 
L 334.187568 -195.81577 
L 334.633805 -197.036657 
L 335.091132 -198.257544 
L 335.553953 -199.47843 
L 336.01833 -200.699317 
L 336.482148 -201.920204 
L 336.945031 -203.14109 
L 337.408002 -204.361977 
L 337.87298 -205.582864 
L 338.342189 -206.80375 
L 338.817563 -208.024637 
L 339.300242 -209.245524 
L 339.790221 -210.46641 
L 340.286172 -211.687297 
L 340.785468 -212.908184 
L 341.284363 -214.12907 
L 341.778297 -215.349957 
L 342.262284 -216.570844 
L 342.7313 -217.79173 
L 343.180654 -219.012617 
L 343.606282 -220.233504 
L 344.004956 -221.45439 
L 344.374389 -222.675277 
L 344.713258 -223.896164 
L 345.021136 -225.11705 
L 345.29838 -226.337937 
L 348.647781 -226.337937 
L 348.647781 -226.337937 
L 348.925025 -225.11705 
L 349.232903 -223.896164 
L 349.571771 -222.675277 
L 349.941205 -221.45439 
L 350.339878 -220.233504 
L 350.765506 -219.012617 
L 351.21486 -217.79173 
L 351.683877 -216.570844 
L 352.167863 -215.349957 
L 352.661798 -214.12907 
L 353.160692 -212.908184 
L 353.659989 -211.687297 
L 354.15594 -210.46641 
L 354.645919 -209.245524 
L 355.128598 -208.024637 
L 355.603971 -206.80375 
L 356.07318 -205.582864 
L 356.538159 -204.361977 
L 357.001129 -203.14109 
L 357.464012 -201.920204 
L 357.927831 -200.699317 
L 358.392207 -199.47843 
L 358.855029 -198.257544 
L 359.312356 -197.036657 
L 359.758593 -195.81577 
L 360.186916 -194.594884 
L 360.589896 -193.373997 
L 360.960237 -192.15311 
L 361.291521 -190.932223 
L 361.578842 -189.711337 
L 361.819253 -188.49045 
L 362.011948 -187.269563 
L 362.158171 -186.048677 
L 362.260869 -184.82779 
L 362.324158 -183.606903 
L 362.352672 -182.386017 
L 362.350906 -181.16513 
L 362.322635 -179.944243 
L 362.270477 -178.723357 
L 362.19565 -177.50247 
L 362.097928 -176.281583 
L 361.975791 -175.060697 
L 361.826714 -173.83981 
L 361.647574 -172.618923 
L 361.435094 -171.398037 
L 361.186305 -170.17715 
L 360.898954 -168.956263 
L 360.571857 -167.735377 
L 360.205162 -166.51449 
L 359.800494 -165.293603 
L 359.361007 -164.072717 
L 358.89131 -162.85183 
L 358.397278 -161.630943 
L 357.885773 -160.410057 
L 357.364273 -159.18917 
L 356.840444 -157.968283 
L 356.321695 -156.747397 
L 355.814749 -155.52651 
L 355.325262 -154.305623 
L 354.857539 -153.084737 
L 354.414367 -151.86385 
L 353.996967 -150.642963 
L 353.605089 -149.422077 
L 353.237211 -148.20119 
L 352.890832 -146.980303 
L 352.562827 -145.759417 
L 352.249824 -144.53853 
L 351.948566 -143.317643 
L 351.656236 -142.096757 
L 351.370702 -140.87587 
L 351.090691 -139.654983 
L 350.815844 -138.434097 
L 350.546692 -137.21321 
L 350.284534 -135.992323 
L 350.031237 -134.771437 
L 349.789002 -133.55055 
L 349.560098 -132.329663 
L 349.346613 -131.108777 
L 349.150245 -129.88789 
L 348.972147 -128.667003 
L 348.812856 -127.446117 
L 348.67228 -126.22523 
L 348.549765 -125.004343 
L 348.444197 -123.783457 
L 348.354133 -122.56257 
L 348.277924 -121.341683 
L 348.213823 -120.120797 
L 348.160057 -118.89991 
L 348.114866 -117.679023 
L 348.076507 -116.458136 
L 348.043251 -115.23725 
L 348.013369 -114.016363 
L 347.985142 -112.795476 
L 347.956889 -111.57459 
L 347.927026 -110.353703 
L 347.894147 -109.132816 
L 347.857118 -107.91193 
L 347.815162 -106.691043 
L 347.767932 -105.470156 
z
" style="stroke: #000000; stroke-opacity: 0.7"/>
    </defs>
    <g clip-path="url(#peeebc2c6b5)">
     <use xlink:href="#m586befd721" x="0" y="319.95617" style="fill: #a6d854; fill-opacity: 0.7; stroke: #000000; stroke-opacity: 0.7"/>
    </g>
   </g>
   <g id="PolyCollection_7">
    <defs>
     <path id="m050ec8a47a" d="M 404.893486 -96.553681 
L 396.709817 -96.553681 
L 396.322294 -97.697011 
L 395.926737 -98.840342 
L 395.525495 -99.983672 
L 395.12073 -101.127002 
L 394.714325 -102.270333 
L 394.307808 -103.413663 
L 393.90229 -104.556993 
L 393.498425 -105.700324 
L 393.096407 -106.843654 
L 392.695985 -107.986984 
L 392.296529 -109.130315 
L 391.897118 -110.273645 
L 391.49667 -111.416975 
L 391.094098 -112.560306 
L 390.688488 -113.703636 
L 390.27929 -114.846966 
L 389.866497 -115.990297 
L 389.450816 -117.133627 
L 389.033793 -118.276957 
L 388.617899 -119.420288 
L 388.206542 -120.563618 
L 387.804015 -121.706948 
L 387.415368 -122.850279 
L 387.046206 -123.993609 
L 386.702434 -125.136939 
L 386.389947 -126.28027 
L 386.114306 -127.4236 
L 385.880411 -128.566931 
L 385.692203 -129.710261 
L 385.552415 -130.853591 
L 385.462404 -131.996922 
L 385.42206 -133.140252 
L 385.42982 -134.283582 
L 385.482773 -135.426913 
L 385.576855 -136.570243 
L 385.707105 -137.713573 
L 385.867985 -138.856904 
L 386.053706 -140.000234 
L 386.258555 -141.143564 
L 386.477195 -142.286895 
L 386.704907 -143.430225 
L 386.937759 -144.573555 
L 387.172702 -145.716886 
L 387.407581 -146.860216 
L 387.641073 -148.003546 
L 387.872559 -149.146877 
L 388.101953 -150.290207 
L 388.329504 -151.433537 
L 388.555595 -152.576868 
L 388.780557 -153.720198 
L 389.004517 -154.863529 
L 389.227289 -156.006859 
L 389.448321 -157.150189 
L 389.666692 -158.29352 
L 389.881158 -159.43685 
L 390.090245 -160.58018 
L 390.292365 -161.723511 
L 390.485951 -162.866841 
L 390.669595 -164.010171 
L 390.842172 -165.153502 
L 391.002948 -166.296832 
L 391.151657 -167.440162 
L 391.288548 -168.583493 
L 391.414394 -169.726823 
L 391.530477 -170.870153 
L 391.638535 -172.013484 
L 391.740702 -173.156814 
L 391.839415 -174.300144 
L 391.937326 -175.443475 
L 392.037205 -176.586805 
L 392.141836 -177.730135 
L 392.253929 -178.873466 
L 392.376029 -180.016796 
L 392.510439 -181.160126 
L 392.659145 -182.303457 
L 392.823757 -183.446787 
L 393.00546 -184.590118 
L 393.204972 -185.733448 
L 393.422529 -186.876778 
L 393.657865 -188.020109 
L 393.910233 -189.163439 
L 394.178417 -190.306769 
L 394.460784 -191.4501 
L 394.755334 -192.59343 
L 395.059775 -193.73676 
L 395.371596 -194.880091 
L 395.68816 -196.023421 
L 396.006782 -197.166751 
L 396.324818 -198.310082 
L 396.639733 -199.453412 
L 396.949174 -200.596742 
L 397.25101 -201.740073 
L 397.543378 -202.883403 
L 397.824692 -204.026733 
L 398.093661 -205.170064 
L 398.349276 -206.313394 
L 398.590796 -207.456724 
L 398.817729 -208.600055 
L 399.029802 -209.743385 
L 402.573502 -209.743385 
L 402.573502 -209.743385 
L 402.785575 -208.600055 
L 403.012508 -207.456724 
L 403.254028 -206.313394 
L 403.509642 -205.170064 
L 403.778611 -204.026733 
L 404.059926 -202.883403 
L 404.352293 -201.740073 
L 404.65413 -200.596742 
L 404.96357 -199.453412 
L 405.278486 -198.310082 
L 405.596521 -197.166751 
L 405.915143 -196.023421 
L 406.231707 -194.880091 
L 406.543529 -193.73676 
L 406.84797 -192.59343 
L 407.14252 -191.4501 
L 407.424887 -190.306769 
L 407.693071 -189.163439 
L 407.945438 -188.020109 
L 408.180775 -186.876778 
L 408.398331 -185.733448 
L 408.597844 -184.590118 
L 408.779546 -183.446787 
L 408.944158 -182.303457 
L 409.092864 -181.160126 
L 409.227274 -180.016796 
L 409.349375 -178.873466 
L 409.461468 -177.730135 
L 409.566099 -176.586805 
L 409.665977 -175.443475 
L 409.763889 -174.300144 
L 409.862602 -173.156814 
L 409.964768 -172.013484 
L 410.072827 -170.870153 
L 410.188909 -169.726823 
L 410.314756 -168.583493 
L 410.451647 -167.440162 
L 410.600356 -166.296832 
L 410.761132 -165.153502 
L 410.933708 -164.010171 
L 411.117352 -162.866841 
L 411.310939 -161.723511 
L 411.513059 -160.58018 
L 411.722146 -159.43685 
L 411.936612 -158.29352 
L 412.154982 -157.150189 
L 412.376014 -156.006859 
L 412.598787 -154.863529 
L 412.822747 -153.720198 
L 413.047709 -152.576868 
L 413.2738 -151.433537 
L 413.501351 -150.290207 
L 413.730745 -149.146877 
L 413.962231 -148.003546 
L 414.195723 -146.860216 
L 414.430602 -145.716886 
L 414.665545 -144.573555 
L 414.898396 -143.430225 
L 415.126108 -142.286895 
L 415.344749 -141.143564 
L 415.549598 -140.000234 
L 415.735318 -138.856904 
L 415.896198 -137.713573 
L 416.026449 -136.570243 
L 416.12053 -135.426913 
L 416.173484 -134.283582 
L 416.181244 -133.140252 
L 416.140899 -131.996922 
L 416.050888 -130.853591 
L 415.911101 -129.710261 
L 415.722892 -128.566931 
L 415.488997 -127.4236 
L 415.213356 -126.28027 
L 414.900869 -125.136939 
L 414.557097 -123.993609 
L 414.187936 -122.850279 
L 413.799288 -121.706948 
L 413.396761 -120.563618 
L 412.985404 -119.420288 
L 412.569511 -118.276957 
L 412.152488 -117.133627 
L 411.736807 -115.990297 
L 411.324014 -114.846966 
L 410.914815 -113.703636 
L 410.509206 -112.560306 
L 410.106634 -111.416975 
L 409.706185 -110.273645 
L 409.306774 -109.130315 
L 408.907318 -107.986984 
L 408.506897 -106.843654 
L 408.104878 -105.700324 
L 407.701014 -104.556993 
L 407.295495 -103.413663 
L 406.888978 -102.270333 
L 406.482574 -101.127002 
L 406.077808 -99.983672 
L 405.676566 -98.840342 
L 405.281009 -97.697011 
L 404.893486 -96.553681 
z
" style="stroke: #000000; stroke-opacity: 0.7"/>
    </defs>
    <g clip-path="url(#peeebc2c6b5)">
     <use xlink:href="#m050ec8a47a" x="0" y="319.95617" style="fill: #7f7f7f; fill-opacity: 0.7; stroke: #000000; stroke-opacity: 0.7"/>
    </g>
   </g>
   <g id="matplotlib.axis_1">
    <g id="xtick_1">
     <g id="line2d_1">
      <defs>
       <path id="m15c0548628" d="M 0 0 
L 0 3.5 
" style="stroke: #000000; stroke-width: 0.8"/>
      </defs>
      <g>
       <use xlink:href="#m15c0548628" x="77.830223" y="259.854775" style="stroke: #000000; stroke-width: 0.8"/>
      </g>
     </g>
     <g id="text_1">
      <!-- Rosewood -->
      <g transform="translate(40.187394 308.574517) rotate(-45) scale(0.12 -0.12)">
       <defs>
        <path id="TimesNewRomanPSMT-52" d="M 4325 0 
L 3194 0 
L 1759 1981 
Q 1600 1975 1500 1975 
Q 1459 1975 1412 1976 
Q 1366 1978 1316 1981 
L 1316 750 
Q 1316 350 1403 253 
Q 1522 116 1759 116 
L 1925 116 
L 1925 0 
L 109 0 
L 109 116 
L 269 116 
Q 538 116 653 291 
Q 719 388 719 750 
L 719 3488 
Q 719 3888 631 3984 
Q 509 4122 269 4122 
L 109 4122 
L 109 4238 
L 1653 4238 
Q 2328 4238 2648 4139 
Q 2969 4041 3192 3777 
Q 3416 3513 3416 3147 
Q 3416 2756 3161 2468 
Q 2906 2181 2372 2063 
L 3247 847 
Q 3547 428 3762 290 
Q 3978 153 4325 116 
L 4325 0 
z
M 1316 2178 
Q 1375 2178 1419 2176 
Q 1463 2175 1491 2175 
Q 2097 2175 2405 2437 
Q 2713 2700 2713 3106 
Q 2713 3503 2464 3751 
Q 2216 4000 1806 4000 
Q 1625 4000 1316 3941 
L 1316 2178 
z
" transform="scale(0.015625)"/>
        <path id="TimesNewRomanPSMT-6f" d="M 1600 2947 
Q 2250 2947 2644 2453 
Q 2978 2031 2978 1484 
Q 2978 1100 2793 706 
Q 2609 313 2286 112 
Q 1963 -88 1566 -88 
Q 919 -88 538 428 
Q 216 863 216 1403 
Q 216 1797 411 2186 
Q 606 2575 925 2761 
Q 1244 2947 1600 2947 
z
M 1503 2744 
Q 1338 2744 1170 2645 
Q 1003 2547 900 2300 
Q 797 2053 797 1666 
Q 797 1041 1045 587 
Q 1294 134 1700 134 
Q 2003 134 2200 384 
Q 2397 634 2397 1244 
Q 2397 2006 2069 2444 
Q 1847 2744 1503 2744 
z
" transform="scale(0.015625)"/>
        <path id="TimesNewRomanPSMT-73" d="M 2050 2947 
L 2050 1972 
L 1947 1972 
Q 1828 2431 1642 2597 
Q 1456 2763 1169 2763 
Q 950 2763 815 2647 
Q 681 2531 681 2391 
Q 681 2216 781 2091 
Q 878 1963 1175 1819 
L 1631 1597 
Q 2266 1288 2266 781 
Q 2266 391 1970 151 
Q 1675 -88 1309 -88 
Q 1047 -88 709 6 
Q 606 38 541 38 
Q 469 38 428 -44 
L 325 -44 
L 325 978 
L 428 978 
Q 516 541 762 319 
Q 1009 97 1316 97 
Q 1531 97 1667 223 
Q 1803 350 1803 528 
Q 1803 744 1651 891 
Q 1500 1038 1047 1263 
Q 594 1488 453 1669 
Q 313 1847 313 2119 
Q 313 2472 555 2709 
Q 797 2947 1181 2947 
Q 1350 2947 1591 2875 
Q 1750 2828 1803 2828 
Q 1853 2828 1881 2850 
Q 1909 2872 1947 2947 
L 2050 2947 
z
" transform="scale(0.015625)"/>
        <path id="TimesNewRomanPSMT-65" d="M 681 1784 
Q 678 1147 991 784 
Q 1303 422 1725 422 
Q 2006 422 2214 576 
Q 2422 731 2563 1106 
L 2659 1044 
Q 2594 616 2278 264 
Q 1963 -88 1488 -88 
Q 972 -88 605 314 
Q 238 716 238 1394 
Q 238 2128 614 2539 
Q 991 2950 1559 2950 
Q 2041 2950 2350 2633 
Q 2659 2316 2659 1784 
L 681 1784 
z
M 681 1966 
L 2006 1966 
Q 1991 2241 1941 2353 
Q 1863 2528 1708 2628 
Q 1553 2728 1384 2728 
Q 1125 2728 920 2526 
Q 716 2325 681 1966 
z
" transform="scale(0.015625)"/>
        <path id="TimesNewRomanPSMT-77" d="M 41 2863 
L 1241 2863 
L 1241 2747 
Q 1075 2734 1023 2687 
Q 972 2641 972 2553 
Q 972 2456 1025 2319 
L 1638 672 
L 2253 2013 
L 2091 2434 
Q 2016 2622 1894 2694 
Q 1825 2738 1638 2747 
L 1638 2863 
L 3000 2863 
L 3000 2747 
Q 2775 2738 2681 2666 
Q 2619 2616 2619 2506 
Q 2619 2444 2644 2378 
L 3294 734 
L 3897 2319 
Q 3959 2488 3959 2588 
Q 3959 2647 3898 2694 
Q 3838 2741 3659 2747 
L 3659 2863 
L 4563 2863 
L 4563 2747 
Q 4291 2706 4163 2378 
L 3206 -88 
L 3078 -88 
L 2363 1741 
L 1528 -88 
L 1413 -88 
L 494 2319 
Q 403 2547 315 2626 
Q 228 2706 41 2747 
L 41 2863 
z
" transform="scale(0.015625)"/>
        <path id="TimesNewRomanPSMT-64" d="M 2222 322 
Q 2013 103 1813 7 
Q 1613 -88 1381 -88 
Q 913 -88 563 304 
Q 213 697 213 1313 
Q 213 1928 600 2439 
Q 988 2950 1597 2950 
Q 1975 2950 2222 2709 
L 2222 3238 
Q 2222 3728 2198 3840 
Q 2175 3953 2125 3993 
Q 2075 4034 2000 4034 
Q 1919 4034 1784 3984 
L 1744 4094 
L 2597 4444 
L 2738 4444 
L 2738 1134 
Q 2738 631 2761 520 
Q 2784 409 2836 365 
Q 2888 322 2956 322 
Q 3041 322 3181 375 
L 3216 266 
L 2366 -88 
L 2222 -88 
L 2222 322 
z
M 2222 541 
L 2222 2016 
Q 2203 2228 2109 2403 
Q 2016 2578 1861 2667 
Q 1706 2756 1559 2756 
Q 1284 2756 1069 2509 
Q 784 2184 784 1559 
Q 784 928 1059 592 
Q 1334 256 1672 256 
Q 1956 256 2222 541 
z
" transform="scale(0.015625)"/>
       </defs>
       <use xlink:href="#TimesNewRomanPSMT-52"/>
       <use xlink:href="#TimesNewRomanPSMT-6f" x="66.699219"/>
       <use xlink:href="#TimesNewRomanPSMT-73" x="116.699219"/>
       <use xlink:href="#TimesNewRomanPSMT-65" x="155.615234"/>
       <use xlink:href="#TimesNewRomanPSMT-77" x="200"/>
       <use xlink:href="#TimesNewRomanPSMT-6f" x="272.216797"/>
       <use xlink:href="#TimesNewRomanPSMT-6f" x="322.216797"/>
       <use xlink:href="#TimesNewRomanPSMT-64" x="372.216797"/>
      </g>
     </g>
    </g>
    <g id="xtick_2">
     <g id="line2d_2">
      <g>
       <use xlink:href="#m15c0548628" x="131.658795" y="259.854775" style="stroke: #000000; stroke-width: 0.8"/>
      </g>
     </g>
     <g id="text_2">
      <!-- Westport -->
      <g transform="translate(99.418703 303.171779) rotate(-45) scale(0.12 -0.12)">
       <defs>
        <path id="TimesNewRomanPSMT-57" d="M 5991 4238 
L 5991 4122 
Q 5825 4122 5722 4062 
Q 5619 4003 5525 3841 
Q 5463 3731 5328 3319 
L 4147 -97 
L 4022 -97 
L 3056 2613 
L 2097 -97 
L 1984 -97 
L 725 3422 
Q 584 3816 547 3888 
Q 484 4006 376 4064 
Q 269 4122 84 4122 
L 84 4238 
L 1653 4238 
L 1653 4122 
L 1578 4122 
Q 1413 4122 1325 4047 
Q 1238 3972 1238 3866 
Q 1238 3756 1375 3363 
L 2209 984 
L 2913 3006 
L 2788 3363 
L 2688 3647 
Q 2622 3803 2541 3922 
Q 2500 3981 2441 4022 
Q 2363 4078 2284 4103 
Q 2225 4122 2097 4122 
L 2097 4238 
L 3747 4238 
L 3747 4122 
L 3634 4122 
Q 3459 4122 3378 4047 
Q 3297 3972 3297 3844 
Q 3297 3684 3438 3288 
L 4250 984 
L 5056 3319 
Q 5194 3706 5194 3856 
Q 5194 3928 5148 3990 
Q 5103 4053 5034 4078 
Q 4916 4122 4725 4122 
L 4725 4238 
L 5991 4238 
z
" transform="scale(0.015625)"/>
        <path id="TimesNewRomanPSMT-74" d="M 1031 3803 
L 1031 2863 
L 1700 2863 
L 1700 2644 
L 1031 2644 
L 1031 788 
Q 1031 509 1111 412 
Q 1191 316 1316 316 
Q 1419 316 1516 380 
Q 1613 444 1666 569 
L 1788 569 
Q 1678 263 1478 108 
Q 1278 -47 1066 -47 
Q 922 -47 784 33 
Q 647 113 581 261 
Q 516 409 516 719 
L 516 2644 
L 63 2644 
L 63 2747 
Q 234 2816 414 2980 
Q 594 3144 734 3369 
Q 806 3488 934 3803 
L 1031 3803 
z
" transform="scale(0.015625)"/>
        <path id="TimesNewRomanPSMT-70" d="M -6 2578 
L 875 2934 
L 994 2934 
L 994 2266 
Q 1216 2644 1439 2795 
Q 1663 2947 1909 2947 
Q 2341 2947 2628 2609 
Q 2981 2197 2981 1534 
Q 2981 794 2556 309 
Q 2206 -88 1675 -88 
Q 1444 -88 1275 -22 
Q 1150 25 994 166 
L 994 -706 
Q 994 -1000 1030 -1079 
Q 1066 -1159 1155 -1206 
Q 1244 -1253 1478 -1253 
L 1478 -1369 
L -22 -1369 
L -22 -1253 
L 56 -1253 
Q 228 -1256 350 -1188 
Q 409 -1153 442 -1076 
Q 475 -1000 475 -688 
L 475 2019 
Q 475 2297 450 2372 
Q 425 2447 370 2484 
Q 316 2522 222 2522 
Q 147 2522 31 2478 
L -6 2578 
z
M 994 2081 
L 994 1013 
Q 994 666 1022 556 
Q 1066 375 1236 237 
Q 1406 100 1666 100 
Q 1978 100 2172 344 
Q 2425 663 2425 1241 
Q 2425 1897 2138 2250 
Q 1938 2494 1663 2494 
Q 1513 2494 1366 2419 
Q 1253 2363 994 2081 
z
" transform="scale(0.015625)"/>
        <path id="TimesNewRomanPSMT-72" d="M 1038 2947 
L 1038 2303 
Q 1397 2947 1775 2947 
Q 1947 2947 2059 2842 
Q 2172 2738 2172 2600 
Q 2172 2478 2090 2393 
Q 2009 2309 1897 2309 
Q 1788 2309 1652 2417 
Q 1516 2525 1450 2525 
Q 1394 2525 1328 2463 
Q 1188 2334 1038 2041 
L 1038 669 
Q 1038 431 1097 309 
Q 1138 225 1241 169 
Q 1344 113 1538 113 
L 1538 0 
L 72 0 
L 72 113 
Q 291 113 397 181 
Q 475 231 506 341 
Q 522 394 522 644 
L 522 1753 
Q 522 2253 501 2348 
Q 481 2444 426 2487 
Q 372 2531 291 2531 
Q 194 2531 72 2484 
L 41 2597 
L 906 2947 
L 1038 2947 
z
" transform="scale(0.015625)"/>
       </defs>
       <use xlink:href="#TimesNewRomanPSMT-57"/>
       <use xlink:href="#TimesNewRomanPSMT-65" x="86.384766"/>
       <use xlink:href="#TimesNewRomanPSMT-73" x="130.769531"/>
       <use xlink:href="#TimesNewRomanPSMT-74" x="169.685547"/>
       <use xlink:href="#TimesNewRomanPSMT-70" x="197.46875"/>
       <use xlink:href="#TimesNewRomanPSMT-6f" x="247.46875"/>
       <use xlink:href="#TimesNewRomanPSMT-72" x="297.46875"/>
       <use xlink:href="#TimesNewRomanPSMT-74" x="330.769531"/>
      </g>
     </g>
    </g>
    <g id="xtick_3">
     <g id="line2d_3">
      <g>
       <use xlink:href="#m15c0548628" x="185.487366" y="259.854775" style="stroke: #000000; stroke-width: 0.8"/>
      </g>
     </g>
     <g id="text_3">
      <!-- Creston -->
      <g transform="translate(157.275131 299.143922) rotate(-45) scale(0.12 -0.12)">
       <defs>
        <path id="TimesNewRomanPSMT-43" d="M 3853 4334 
L 3950 2894 
L 3853 2894 
Q 3659 3541 3300 3825 
Q 2941 4109 2438 4109 
Q 2016 4109 1675 3895 
Q 1334 3681 1139 3212 
Q 944 2744 944 2047 
Q 944 1472 1128 1050 
Q 1313 628 1683 403 
Q 2053 178 2528 178 
Q 2941 178 3256 354 
Q 3572 531 3950 1056 
L 4047 994 
Q 3728 428 3303 165 
Q 2878 -97 2294 -97 
Q 1241 -97 663 684 
Q 231 1266 231 2053 
Q 231 2688 515 3219 
Q 800 3750 1298 4042 
Q 1797 4334 2388 4334 
Q 2847 4334 3294 4109 
Q 3425 4041 3481 4041 
Q 3566 4041 3628 4100 
Q 3709 4184 3744 4334 
L 3853 4334 
z
" transform="scale(0.015625)"/>
        <path id="TimesNewRomanPSMT-6e" d="M 1034 2341 
Q 1538 2947 1994 2947 
Q 2228 2947 2397 2830 
Q 2566 2713 2666 2444 
Q 2734 2256 2734 1869 
L 2734 647 
Q 2734 375 2778 278 
Q 2813 200 2889 156 
Q 2966 113 3172 113 
L 3172 0 
L 1756 0 
L 1756 113 
L 1816 113 
Q 2016 113 2095 173 
Q 2175 234 2206 353 
Q 2219 400 2219 647 
L 2219 1819 
Q 2219 2209 2117 2386 
Q 2016 2563 1775 2563 
Q 1403 2563 1034 2156 
L 1034 647 
Q 1034 356 1069 288 
Q 1113 197 1189 155 
Q 1266 113 1500 113 
L 1500 0 
L 84 0 
L 84 113 
L 147 113 
Q 366 113 442 223 
Q 519 334 519 647 
L 519 1709 
Q 519 2225 495 2337 
Q 472 2450 423 2490 
Q 375 2531 294 2531 
Q 206 2531 84 2484 
L 38 2597 
L 900 2947 
L 1034 2947 
L 1034 2341 
z
" transform="scale(0.015625)"/>
       </defs>
       <use xlink:href="#TimesNewRomanPSMT-43"/>
       <use xlink:href="#TimesNewRomanPSMT-72" x="66.699219"/>
       <use xlink:href="#TimesNewRomanPSMT-65" x="100"/>
       <use xlink:href="#TimesNewRomanPSMT-73" x="144.384766"/>
       <use xlink:href="#TimesNewRomanPSMT-74" x="183.300781"/>
       <use xlink:href="#TimesNewRomanPSMT-6f" x="211.083984"/>
       <use xlink:href="#TimesNewRomanPSMT-6e" x="261.083984"/>
      </g>
     </g>
    </g>
    <g id="xtick_4">
     <g id="line2d_4">
      <g>
       <use xlink:href="#m15c0548628" x="239.315937" y="259.854775" style="stroke: #000000; stroke-width: 0.8"/>
      </g>
     </g>
     <g id="text_4">
      <!-- Oakridge -->
      <g transform="translate(205.913097 304.318618) rotate(-45) scale(0.12 -0.12)">
       <defs>
        <path id="TimesNewRomanPSMT-4f" d="M 2341 4334 
Q 3166 4334 3770 3707 
Q 4375 3081 4375 2144 
Q 4375 1178 3765 540 
Q 3156 -97 2291 -97 
Q 1416 -97 820 525 
Q 225 1147 225 2134 
Q 225 3144 913 3781 
Q 1509 4334 2341 4334 
z
M 2281 4106 
Q 1713 4106 1369 3684 
Q 941 3159 941 2147 
Q 941 1109 1384 550 
Q 1725 125 2284 125 
Q 2881 125 3270 590 
Q 3659 1056 3659 2059 
Q 3659 3147 3231 3681 
Q 2888 4106 2281 4106 
z
" transform="scale(0.015625)"/>
        <path id="TimesNewRomanPSMT-61" d="M 1822 413 
Q 1381 72 1269 19 
Q 1100 -59 909 -59 
Q 613 -59 420 144 
Q 228 347 228 678 
Q 228 888 322 1041 
Q 450 1253 767 1440 
Q 1084 1628 1822 1897 
L 1822 2009 
Q 1822 2438 1686 2597 
Q 1550 2756 1291 2756 
Q 1094 2756 978 2650 
Q 859 2544 859 2406 
L 866 2225 
Q 866 2081 792 2003 
Q 719 1925 600 1925 
Q 484 1925 411 2006 
Q 338 2088 338 2228 
Q 338 2497 613 2722 
Q 888 2947 1384 2947 
Q 1766 2947 2009 2819 
Q 2194 2722 2281 2516 
Q 2338 2381 2338 1966 
L 2338 994 
Q 2338 584 2353 492 
Q 2369 400 2405 369 
Q 2441 338 2488 338 
Q 2538 338 2575 359 
Q 2641 400 2828 588 
L 2828 413 
Q 2478 -56 2159 -56 
Q 2006 -56 1915 50 
Q 1825 156 1822 413 
z
M 1822 616 
L 1822 1706 
Q 1350 1519 1213 1441 
Q 966 1303 859 1153 
Q 753 1003 753 825 
Q 753 600 887 451 
Q 1022 303 1197 303 
Q 1434 303 1822 616 
z
" transform="scale(0.015625)"/>
        <path id="TimesNewRomanPSMT-6b" d="M 1047 4444 
L 1047 1597 
L 1775 2259 
Q 2006 2472 2044 2528 
Q 2069 2566 2069 2603 
Q 2069 2666 2017 2711 
Q 1966 2756 1847 2763 
L 1847 2863 
L 3091 2863 
L 3091 2763 
Q 2834 2756 2664 2684 
Q 2494 2613 2291 2428 
L 1556 1750 
L 2291 822 
Q 2597 438 2703 334 
Q 2853 188 2966 144 
Q 3044 113 3238 113 
L 3238 0 
L 1847 0 
L 1847 113 
Q 1966 116 2008 148 
Q 2050 181 2050 241 
Q 2050 313 1925 472 
L 1047 1594 
L 1047 644 
Q 1047 366 1086 278 
Q 1125 191 1197 153 
Q 1269 116 1509 113 
L 1509 0 
L 53 0 
L 53 113 
Q 272 113 381 166 
Q 447 200 481 272 
Q 528 375 528 628 
L 528 3234 
Q 528 3731 506 3842 
Q 484 3953 434 3995 
Q 384 4038 303 4038 
Q 238 4038 106 3984 
L 53 4094 
L 903 4444 
L 1047 4444 
z
" transform="scale(0.015625)"/>
        <path id="TimesNewRomanPSMT-69" d="M 928 4444 
Q 1059 4444 1151 4351 
Q 1244 4259 1244 4128 
Q 1244 3997 1151 3903 
Q 1059 3809 928 3809 
Q 797 3809 703 3903 
Q 609 3997 609 4128 
Q 609 4259 701 4351 
Q 794 4444 928 4444 
z
M 1188 2947 
L 1188 647 
Q 1188 378 1227 289 
Q 1266 200 1342 156 
Q 1419 113 1622 113 
L 1622 0 
L 231 0 
L 231 113 
Q 441 113 512 153 
Q 584 194 626 287 
Q 669 381 669 647 
L 669 1750 
Q 669 2216 641 2353 
Q 619 2453 572 2492 
Q 525 2531 444 2531 
Q 356 2531 231 2484 
L 188 2597 
L 1050 2947 
L 1188 2947 
z
" transform="scale(0.015625)"/>
        <path id="TimesNewRomanPSMT-67" d="M 966 1044 
Q 703 1172 562 1401 
Q 422 1631 422 1909 
Q 422 2334 742 2640 
Q 1063 2947 1563 2947 
Q 1972 2947 2272 2747 
L 2878 2747 
Q 3013 2747 3034 2739 
Q 3056 2731 3066 2713 
Q 3084 2684 3084 2613 
Q 3084 2531 3069 2500 
Q 3059 2484 3036 2475 
Q 3013 2466 2878 2466 
L 2506 2466 
Q 2681 2241 2681 1891 
Q 2681 1491 2375 1206 
Q 2069 922 1553 922 
Q 1341 922 1119 984 
Q 981 866 932 777 
Q 884 688 884 625 
Q 884 572 936 522 
Q 988 472 1138 450 
Q 1225 438 1575 428 
Q 2219 413 2409 384 
Q 2700 344 2873 169 
Q 3047 -6 3047 -263 
Q 3047 -616 2716 -925 
Q 2228 -1381 1444 -1381 
Q 841 -1381 425 -1109 
Q 191 -953 191 -784 
Q 191 -709 225 -634 
Q 278 -519 444 -313 
Q 466 -284 763 25 
Q 600 122 533 198 
Q 466 275 466 372 
Q 466 481 555 628 
Q 644 775 966 1044 
z
M 1509 2797 
Q 1278 2797 1122 2612 
Q 966 2428 966 2047 
Q 966 1553 1178 1281 
Q 1341 1075 1591 1075 
Q 1828 1075 1981 1253 
Q 2134 1431 2134 1813 
Q 2134 2309 1919 2591 
Q 1759 2797 1509 2797 
z
M 934 0 
Q 788 -159 713 -296 
Q 638 -434 638 -550 
Q 638 -700 819 -813 
Q 1131 -1006 1722 -1006 
Q 2284 -1006 2551 -807 
Q 2819 -609 2819 -384 
Q 2819 -222 2659 -153 
Q 2497 -84 2016 -72 
Q 1313 -53 934 0 
z
" transform="scale(0.015625)"/>
       </defs>
       <use xlink:href="#TimesNewRomanPSMT-4f"/>
       <use xlink:href="#TimesNewRomanPSMT-61" x="72.216797"/>
       <use xlink:href="#TimesNewRomanPSMT-6b" x="116.601562"/>
       <use xlink:href="#TimesNewRomanPSMT-72" x="166.601562"/>
       <use xlink:href="#TimesNewRomanPSMT-69" x="199.902344"/>
       <use xlink:href="#TimesNewRomanPSMT-64" x="227.685547"/>
       <use xlink:href="#TimesNewRomanPSMT-67" x="277.685547"/>
       <use xlink:href="#TimesNewRomanPSMT-65" x="327.685547"/>
      </g>
     </g>
    </g>
    <g id="xtick_5">
     <g id="line2d_5">
      <g>
       <use xlink:href="#m15c0548628" x="293.144509" y="259.854775" style="stroke: #000000; stroke-width: 0.8"/>
      </g>
     </g>
     <g id="text_5">
      <!-- Springfield -->
      <g transform="translate(253.135081 310.925205) rotate(-45) scale(0.12 -0.12)">
       <defs>
        <path id="TimesNewRomanPSMT-53" d="M 2934 4334 
L 2934 2869 
L 2819 2869 
Q 2763 3291 2617 3541 
Q 2472 3791 2203 3937 
Q 1934 4084 1647 4084 
Q 1322 4084 1109 3886 
Q 897 3688 897 3434 
Q 897 3241 1031 3081 
Q 1225 2847 1953 2456 
Q 2547 2138 2764 1967 
Q 2981 1797 3098 1565 
Q 3216 1334 3216 1081 
Q 3216 600 2842 251 
Q 2469 -97 1881 -97 
Q 1697 -97 1534 -69 
Q 1438 -53 1133 45 
Q 828 144 747 144 
Q 669 144 623 97 
Q 578 50 556 -97 
L 441 -97 
L 441 1356 
L 556 1356 
Q 638 900 775 673 
Q 913 447 1195 297 
Q 1478 147 1816 147 
Q 2206 147 2432 353 
Q 2659 559 2659 841 
Q 2659 997 2573 1156 
Q 2488 1316 2306 1453 
Q 2184 1547 1640 1851 
Q 1097 2156 867 2337 
Q 638 2519 519 2737 
Q 400 2956 400 3219 
Q 400 3675 750 4004 
Q 1100 4334 1641 4334 
Q 1978 4334 2356 4169 
Q 2531 4091 2603 4091 
Q 2684 4091 2736 4139 
Q 2788 4188 2819 4334 
L 2934 4334 
z
" transform="scale(0.015625)"/>
        <path id="TimesNewRomanPSMT-66" d="M 1319 2638 
L 1319 756 
Q 1319 356 1406 250 
Q 1522 113 1716 113 
L 1975 113 
L 1975 0 
L 266 0 
L 266 113 
L 394 113 
Q 519 113 622 175 
Q 725 238 764 344 
Q 803 450 803 756 
L 803 2638 
L 247 2638 
L 247 2863 
L 803 2863 
L 803 3050 
Q 803 3478 940 3775 
Q 1078 4072 1361 4255 
Q 1644 4438 1997 4438 
Q 2325 4438 2600 4225 
Q 2781 4084 2781 3909 
Q 2781 3816 2700 3733 
Q 2619 3650 2525 3650 
Q 2453 3650 2373 3701 
Q 2294 3753 2178 3923 
Q 2063 4094 1966 4153 
Q 1869 4213 1750 4213 
Q 1606 4213 1506 4136 
Q 1406 4059 1362 3898 
Q 1319 3738 1319 3069 
L 1319 2863 
L 2056 2863 
L 2056 2638 
L 1319 2638 
z
" transform="scale(0.015625)"/>
        <path id="TimesNewRomanPSMT-6c" d="M 1184 4444 
L 1184 647 
Q 1184 378 1223 290 
Q 1263 203 1344 158 
Q 1425 113 1647 113 
L 1647 0 
L 244 0 
L 244 113 
Q 441 113 512 153 
Q 584 194 625 287 
Q 666 381 666 647 
L 666 3247 
Q 666 3731 644 3842 
Q 622 3953 573 3993 
Q 525 4034 450 4034 
Q 369 4034 244 3984 
L 191 4094 
L 1044 4444 
L 1184 4444 
z
" transform="scale(0.015625)"/>
       </defs>
       <use xlink:href="#TimesNewRomanPSMT-53"/>
       <use xlink:href="#TimesNewRomanPSMT-70" x="55.615234"/>
       <use xlink:href="#TimesNewRomanPSMT-72" x="105.615234"/>
       <use xlink:href="#TimesNewRomanPSMT-69" x="138.916016"/>
       <use xlink:href="#TimesNewRomanPSMT-6e" x="166.699219"/>
       <use xlink:href="#TimesNewRomanPSMT-67" x="216.699219"/>
       <use xlink:href="#TimesNewRomanPSMT-66" x="266.699219"/>
       <use xlink:href="#TimesNewRomanPSMT-69" x="300"/>
       <use xlink:href="#TimesNewRomanPSMT-65" x="327.783203"/>
       <use xlink:href="#TimesNewRomanPSMT-6c" x="372.167969"/>
       <use xlink:href="#TimesNewRomanPSMT-64" x="399.951172"/>
      </g>
     </g>
    </g>
    <g id="xtick_6">
     <g id="line2d_6">
      <g>
       <use xlink:href="#m15c0548628" x="346.97308" y="259.854775" style="stroke: #000000; stroke-width: 0.8"/>
      </g>
     </g>
     <g id="text_6">
      <!-- Mapleton -->
      <g transform="translate(312.636859 305.267909) rotate(-45) scale(0.12 -0.12)">
       <defs>
        <path id="TimesNewRomanPSMT-4d" d="M 2619 0 
L 981 3566 
L 981 734 
Q 981 344 1066 247 
Q 1181 116 1431 116 
L 1581 116 
L 1581 0 
L 106 0 
L 106 116 
L 256 116 
Q 525 116 638 278 
Q 706 378 706 734 
L 706 3503 
Q 706 3784 644 3909 
Q 600 4000 483 4061 
Q 366 4122 106 4122 
L 106 4238 
L 1306 4238 
L 2844 922 
L 4356 4238 
L 5556 4238 
L 5556 4122 
L 5409 4122 
Q 5138 4122 5025 3959 
Q 4956 3859 4956 3503 
L 4956 734 
Q 4956 344 5044 247 
Q 5159 116 5409 116 
L 5556 116 
L 5556 0 
L 3756 0 
L 3756 116 
L 3906 116 
Q 4178 116 4288 278 
Q 4356 378 4356 734 
L 4356 3566 
L 2722 0 
L 2619 0 
z
" transform="scale(0.015625)"/>
       </defs>
       <use xlink:href="#TimesNewRomanPSMT-4d"/>
       <use xlink:href="#TimesNewRomanPSMT-61" x="88.916016"/>
       <use xlink:href="#TimesNewRomanPSMT-70" x="133.300781"/>
       <use xlink:href="#TimesNewRomanPSMT-6c" x="183.300781"/>
       <use xlink:href="#TimesNewRomanPSMT-65" x="211.083984"/>
       <use xlink:href="#TimesNewRomanPSMT-74" x="255.46875"/>
       <use xlink:href="#TimesNewRomanPSMT-6f" x="283.251953"/>
       <use xlink:href="#TimesNewRomanPSMT-6e" x="333.251953"/>
      </g>
     </g>
    </g>
    <g id="xtick_7">
     <g id="line2d_7">
      <g>
       <use xlink:href="#m15c0548628" x="400.801652" y="259.854775" style="stroke: #000000; stroke-width: 0.8"/>
      </g>
     </g>
     <g id="text_7">
      <!-- Dunvale -->
      <g transform="translate(370.240055 301.493285) rotate(-45) scale(0.12 -0.12)">
       <defs>
        <path id="TimesNewRomanPSMT-44" d="M 109 0 
L 109 116 
L 269 116 
Q 538 116 650 288 
Q 719 391 719 750 
L 719 3488 
Q 719 3884 631 3984 
Q 509 4122 269 4122 
L 109 4122 
L 109 4238 
L 1834 4238 
Q 2784 4238 3279 4022 
Q 3775 3806 4076 3303 
Q 4378 2800 4378 2141 
Q 4378 1256 3841 663 
Q 3238 0 2003 0 
L 109 0 
z
M 1319 306 
Q 1716 219 1984 219 
Q 2709 219 3187 728 
Q 3666 1238 3666 2109 
Q 3666 2988 3187 3494 
Q 2709 4000 1959 4000 
Q 1678 4000 1319 3909 
L 1319 306 
z
" transform="scale(0.015625)"/>
        <path id="TimesNewRomanPSMT-75" d="M 2709 2863 
L 2709 1128 
Q 2709 631 2732 520 
Q 2756 409 2807 365 
Q 2859 322 2928 322 
Q 3025 322 3147 375 
L 3191 266 
L 2334 -88 
L 2194 -88 
L 2194 519 
Q 1825 119 1631 15 
Q 1438 -88 1222 -88 
Q 981 -88 804 51 
Q 628 191 559 409 
Q 491 628 491 1028 
L 491 2306 
Q 491 2509 447 2587 
Q 403 2666 317 2708 
Q 231 2750 6 2747 
L 6 2863 
L 1009 2863 
L 1009 947 
Q 1009 547 1148 422 
Q 1288 297 1484 297 
Q 1619 297 1789 381 
Q 1959 466 2194 703 
L 2194 2325 
Q 2194 2569 2105 2655 
Q 2016 2741 1734 2747 
L 1734 2863 
L 2709 2863 
z
" transform="scale(0.015625)"/>
        <path id="TimesNewRomanPSMT-76" d="M 53 2863 
L 1400 2863 
L 1400 2747 
L 1313 2747 
Q 1191 2747 1127 2687 
Q 1063 2628 1063 2528 
Q 1063 2419 1128 2269 
L 1794 688 
L 2463 2328 
Q 2534 2503 2534 2594 
Q 2534 2638 2509 2666 
Q 2475 2713 2422 2730 
Q 2369 2747 2206 2747 
L 2206 2863 
L 3141 2863 
L 3141 2747 
Q 2978 2734 2916 2681 
Q 2806 2588 2719 2369 
L 1703 -88 
L 1575 -88 
L 553 2328 
Q 484 2497 421 2570 
Q 359 2644 263 2694 
Q 209 2722 53 2747 
L 53 2863 
z
" transform="scale(0.015625)"/>
       </defs>
       <use xlink:href="#TimesNewRomanPSMT-44"/>
       <use xlink:href="#TimesNewRomanPSMT-75" x="72.216797"/>
       <use xlink:href="#TimesNewRomanPSMT-6e" x="122.216797"/>
       <use xlink:href="#TimesNewRomanPSMT-76" x="172.216797"/>
       <use xlink:href="#TimesNewRomanPSMT-61" x="222.216797"/>
       <use xlink:href="#TimesNewRomanPSMT-6c" x="266.601562"/>
       <use xlink:href="#TimesNewRomanPSMT-65" x="294.384766"/>
      </g>
     </g>
    </g>
   </g>
   <g id="matplotlib.axis_2">
    <g id="ytick_1">
     <g id="line2d_8">
      <defs>
       <path id="mef474ffc6c" d="M 0 0 
L -3.5 0 
" style="stroke: #000000; stroke-width: 0.8"/>
      </defs>
      <g>
       <use xlink:href="#mef474ffc6c" x="50.915938" y="246.684397" style="stroke: #000000; stroke-width: 0.8"/>
      </g>
     </g>
     <g id="text_8">
      <!-- 250 -->
      <g transform="translate(28.915938 250.156272) scale(0.1 -0.1)">
       <defs>
        <path id="TimesNewRomanPSMT-32" d="M 2934 816 
L 2638 0 
L 138 0 
L 138 116 
Q 1241 1122 1691 1759 
Q 2141 2397 2141 2925 
Q 2141 3328 1894 3587 
Q 1647 3847 1303 3847 
Q 991 3847 742 3664 
Q 494 3481 375 3128 
L 259 3128 
Q 338 3706 661 4015 
Q 984 4325 1469 4325 
Q 1984 4325 2329 3994 
Q 2675 3663 2675 3213 
Q 2675 2891 2525 2569 
Q 2294 2063 1775 1497 
Q 997 647 803 472 
L 1909 472 
Q 2247 472 2383 497 
Q 2519 522 2628 598 
Q 2738 675 2819 816 
L 2934 816 
z
" transform="scale(0.015625)"/>
        <path id="TimesNewRomanPSMT-35" d="M 2778 4238 
L 2534 3706 
L 1259 3706 
L 981 3138 
Q 1809 3016 2294 2522 
Q 2709 2097 2709 1522 
Q 2709 1188 2573 903 
Q 2438 619 2231 419 
Q 2025 219 1772 97 
Q 1413 -75 1034 -75 
Q 653 -75 479 54 
Q 306 184 306 341 
Q 306 428 378 495 
Q 450 563 559 563 
Q 641 563 702 538 
Q 763 513 909 409 
Q 1144 247 1384 247 
Q 1750 247 2026 523 
Q 2303 800 2303 1197 
Q 2303 1581 2056 1914 
Q 1809 2247 1375 2428 
Q 1034 2569 447 2591 
L 1259 4238 
L 2778 4238 
z
" transform="scale(0.015625)"/>
        <path id="TimesNewRomanPSMT-30" d="M 231 2094 
Q 231 2819 450 3342 
Q 669 3866 1031 4122 
Q 1313 4325 1613 4325 
Q 2100 4325 2488 3828 
Q 2972 3213 2972 2159 
Q 2972 1422 2759 906 
Q 2547 391 2217 158 
Q 1888 -75 1581 -75 
Q 975 -75 572 641 
Q 231 1244 231 2094 
z
M 844 2016 
Q 844 1141 1059 588 
Q 1238 122 1591 122 
Q 1759 122 1940 273 
Q 2122 425 2216 781 
Q 2359 1319 2359 2297 
Q 2359 3022 2209 3506 
Q 2097 3866 1919 4016 
Q 1791 4119 1609 4119 
Q 1397 4119 1231 3928 
Q 1006 3669 925 3112 
Q 844 2556 844 2016 
z
" transform="scale(0.015625)"/>
       </defs>
       <use xlink:href="#TimesNewRomanPSMT-32"/>
       <use xlink:href="#TimesNewRomanPSMT-35" x="50"/>
       <use xlink:href="#TimesNewRomanPSMT-30" x="100"/>
      </g>
     </g>
    </g>
    <g id="ytick_2">
     <g id="line2d_9">
      <g>
       <use xlink:href="#mef474ffc6c" x="50.915938" y="215.724413" style="stroke: #000000; stroke-width: 0.8"/>
      </g>
     </g>
     <g id="text_9">
      <!-- 500 -->
      <g transform="translate(28.915938 219.196288) scale(0.1 -0.1)">
       <use xlink:href="#TimesNewRomanPSMT-35"/>
       <use xlink:href="#TimesNewRomanPSMT-30" x="50"/>
       <use xlink:href="#TimesNewRomanPSMT-30" x="100"/>
      </g>
     </g>
    </g>
    <g id="ytick_3">
     <g id="line2d_10">
      <g>
       <use xlink:href="#mef474ffc6c" x="50.915938" y="184.764428" style="stroke: #000000; stroke-width: 0.8"/>
      </g>
     </g>
     <g id="text_10">
      <!-- 750 -->
      <g transform="translate(28.915938 188.236303) scale(0.1 -0.1)">
       <defs>
        <path id="TimesNewRomanPSMT-37" d="M 644 4238 
L 2916 4238 
L 2916 4119 
L 1503 -88 
L 1153 -88 
L 2419 3728 
L 1253 3728 
Q 900 3728 750 3644 
Q 488 3500 328 3200 
L 238 3234 
L 644 4238 
z
" transform="scale(0.015625)"/>
       </defs>
       <use xlink:href="#TimesNewRomanPSMT-37"/>
       <use xlink:href="#TimesNewRomanPSMT-35" x="50"/>
       <use xlink:href="#TimesNewRomanPSMT-30" x="100"/>
      </g>
     </g>
    </g>
    <g id="ytick_4">
     <g id="line2d_11">
      <g>
       <use xlink:href="#mef474ffc6c" x="50.915938" y="153.804443" style="stroke: #000000; stroke-width: 0.8"/>
      </g>
     </g>
     <g id="text_11">
      <!-- 1000 -->
      <g transform="translate(23.915938 157.276318) scale(0.1 -0.1)">
       <defs>
        <path id="TimesNewRomanPSMT-31" d="M 750 3822 
L 1781 4325 
L 1884 4325 
L 1884 747 
Q 1884 391 1914 303 
Q 1944 216 2037 169 
Q 2131 122 2419 116 
L 2419 0 
L 825 0 
L 825 116 
Q 1125 122 1212 167 
Q 1300 213 1334 289 
Q 1369 366 1369 747 
L 1369 3034 
Q 1369 3497 1338 3628 
Q 1316 3728 1258 3775 
Q 1200 3822 1119 3822 
Q 1003 3822 797 3725 
L 750 3822 
z
" transform="scale(0.015625)"/>
       </defs>
       <use xlink:href="#TimesNewRomanPSMT-31"/>
       <use xlink:href="#TimesNewRomanPSMT-30" x="50"/>
       <use xlink:href="#TimesNewRomanPSMT-30" x="100"/>
       <use xlink:href="#TimesNewRomanPSMT-30" x="150"/>
      </g>
     </g>
    </g>
    <g id="ytick_5">
     <g id="line2d_12">
      <g>
       <use xlink:href="#mef474ffc6c" x="50.915938" y="122.844458" style="stroke: #000000; stroke-width: 0.8"/>
      </g>
     </g>
     <g id="text_12">
      <!-- 1250 -->
      <g transform="translate(23.915938 126.316333) scale(0.1 -0.1)">
       <use xlink:href="#TimesNewRomanPSMT-31"/>
       <use xlink:href="#TimesNewRomanPSMT-32" x="50"/>
       <use xlink:href="#TimesNewRomanPSMT-35" x="100"/>
       <use xlink:href="#TimesNewRomanPSMT-30" x="150"/>
      </g>
     </g>
    </g>
    <g id="ytick_6">
     <g id="line2d_13">
      <g>
       <use xlink:href="#mef474ffc6c" x="50.915938" y="91.884474" style="stroke: #000000; stroke-width: 0.8"/>
      </g>
     </g>
     <g id="text_13">
      <!-- 1500 -->
      <g transform="translate(23.915938 95.356349) scale(0.1 -0.1)">
       <use xlink:href="#TimesNewRomanPSMT-31"/>
       <use xlink:href="#TimesNewRomanPSMT-35" x="50"/>
       <use xlink:href="#TimesNewRomanPSMT-30" x="100"/>
       <use xlink:href="#TimesNewRomanPSMT-30" x="150"/>
      </g>
     </g>
    </g>
    <g id="ytick_7">
     <g id="line2d_14">
      <g>
       <use xlink:href="#mef474ffc6c" x="50.915938" y="60.924489" style="stroke: #000000; stroke-width: 0.8"/>
      </g>
     </g>
     <g id="text_14">
      <!-- 1750 -->
      <g transform="translate(23.915938 64.396364) scale(0.1 -0.1)">
       <use xlink:href="#TimesNewRomanPSMT-31"/>
       <use xlink:href="#TimesNewRomanPSMT-37" x="50"/>
       <use xlink:href="#TimesNewRomanPSMT-35" x="100"/>
       <use xlink:href="#TimesNewRomanPSMT-30" x="150"/>
      </g>
     </g>
    </g>
    <g id="text_15">
     <!-- Number -->
     <g transform="translate(16.92125 167.888012) rotate(-90) scale(0.14 -0.14)">
      <defs>
       <path id="TimesNewRomanPSMT-4e" d="M -84 4238 
L 1066 4238 
L 3656 1059 
L 3656 3503 
Q 3656 3894 3569 3991 
Q 3453 4122 3203 4122 
L 3056 4122 
L 3056 4238 
L 4531 4238 
L 4531 4122 
L 4381 4122 
Q 4113 4122 4000 3959 
Q 3931 3859 3931 3503 
L 3931 -69 
L 3819 -69 
L 1025 3344 
L 1025 734 
Q 1025 344 1109 247 
Q 1228 116 1475 116 
L 1625 116 
L 1625 0 
L 150 0 
L 150 116 
L 297 116 
Q 569 116 681 278 
Q 750 378 750 734 
L 750 3681 
Q 566 3897 470 3965 
Q 375 4034 191 4094 
Q 100 4122 -84 4122 
L -84 4238 
z
" transform="scale(0.015625)"/>
       <path id="TimesNewRomanPSMT-6d" d="M 1050 2338 
Q 1363 2650 1419 2697 
Q 1559 2816 1721 2881 
Q 1884 2947 2044 2947 
Q 2313 2947 2506 2790 
Q 2700 2634 2766 2338 
Q 3088 2713 3309 2830 
Q 3531 2947 3766 2947 
Q 3994 2947 4170 2830 
Q 4347 2713 4450 2447 
Q 4519 2266 4519 1878 
L 4519 647 
Q 4519 378 4559 278 
Q 4591 209 4675 161 
Q 4759 113 4950 113 
L 4950 0 
L 3538 0 
L 3538 113 
L 3597 113 
Q 3781 113 3884 184 
Q 3956 234 3988 344 
Q 4000 397 4000 647 
L 4000 1878 
Q 4000 2228 3916 2372 
Q 3794 2572 3525 2572 
Q 3359 2572 3192 2489 
Q 3025 2406 2788 2181 
L 2781 2147 
L 2788 2013 
L 2788 647 
Q 2788 353 2820 281 
Q 2853 209 2943 161 
Q 3034 113 3253 113 
L 3253 0 
L 1806 0 
L 1806 113 
Q 2044 113 2133 169 
Q 2222 225 2256 338 
Q 2272 391 2272 647 
L 2272 1878 
Q 2272 2228 2169 2381 
Q 2031 2581 1784 2581 
Q 1616 2581 1450 2491 
Q 1191 2353 1050 2181 
L 1050 647 
Q 1050 366 1089 281 
Q 1128 197 1204 155 
Q 1281 113 1516 113 
L 1516 0 
L 100 0 
L 100 113 
Q 297 113 375 155 
Q 453 197 493 289 
Q 534 381 534 647 
L 534 1741 
Q 534 2213 506 2350 
Q 484 2453 437 2492 
Q 391 2531 309 2531 
Q 222 2531 100 2484 
L 53 2597 
L 916 2947 
L 1050 2947 
L 1050 2338 
z
" transform="scale(0.015625)"/>
       <path id="TimesNewRomanPSMT-62" d="M 984 2369 
Q 1400 2947 1881 2947 
Q 2322 2947 2650 2570 
Q 2978 2194 2978 1541 
Q 2978 778 2472 313 
Q 2038 -88 1503 -88 
Q 1253 -88 995 3 
Q 738 94 469 275 
L 469 3241 
Q 469 3728 445 3840 
Q 422 3953 372 3993 
Q 322 4034 247 4034 
Q 159 4034 28 3984 
L -16 4094 
L 844 4444 
L 984 4444 
L 984 2369 
z
M 984 2169 
L 984 456 
Q 1144 300 1314 220 
Q 1484 141 1663 141 
Q 1947 141 2192 453 
Q 2438 766 2438 1363 
Q 2438 1913 2192 2208 
Q 1947 2503 1634 2503 
Q 1469 2503 1303 2419 
Q 1178 2356 984 2169 
z
" transform="scale(0.015625)"/>
      </defs>
      <use xlink:href="#TimesNewRomanPSMT-4e"/>
      <use xlink:href="#TimesNewRomanPSMT-75" x="72.216797"/>
      <use xlink:href="#TimesNewRomanPSMT-6d" x="122.216797"/>
      <use xlink:href="#TimesNewRomanPSMT-62" x="200"/>
      <use xlink:href="#TimesNewRomanPSMT-65" x="250"/>
      <use xlink:href="#TimesNewRomanPSMT-72" x="294.384766"/>
     </g>
    </g>
   </g>
   <g id="patch_3">
    <path d="M 75.523284 194.269143 
L 80.137162 194.269143 
L 80.137162 151.234764 
L 75.523284 151.234764 
L 75.523284 194.269143 
L 75.523284 194.269143 
z
" clip-path="url(#peeebc2c6b5)" style="fill: none; stroke: #000000; stroke-linejoin: miter"/>
   </g>
   <g id="line2d_15">
    <path d="M 77.830223 194.269143 
L 77.830223 249.408876 
" clip-path="url(#peeebc2c6b5)" style="fill: none; stroke: #000000; stroke-linecap: square"/>
   </g>
   <g id="line2d_16">
    <path d="M 77.830223 151.234764 
L 77.830223 103.153908 
" clip-path="url(#peeebc2c6b5)" style="fill: none; stroke: #000000; stroke-linecap: square"/>
   </g>
   <g id="line2d_17">
    <path d="M 76.676754 249.408876 
L 78.983693 249.408876 
" clip-path="url(#peeebc2c6b5)" style="fill: none; stroke: #000000; stroke-linecap: square"/>
   </g>
   <g id="line2d_18">
    <path d="M 76.676754 103.153908 
L 78.983693 103.153908 
" clip-path="url(#peeebc2c6b5)" style="fill: none; stroke: #000000; stroke-linecap: square"/>
   </g>
   <g id="patch_4">
    <path d="M 129.351856 157.210041 
L 133.965733 157.210041 
L 133.965733 113.401663 
L 129.351856 113.401663 
L 129.351856 157.210041 
L 129.351856 157.210041 
z
" clip-path="url(#peeebc2c6b5)" style="fill: none; stroke: #000000; stroke-linejoin: miter"/>
   </g>
   <g id="line2d_19">
    <path d="M 131.658795 157.210041 
L 131.658795 214.114493 
" clip-path="url(#peeebc2c6b5)" style="fill: none; stroke: #000000; stroke-linecap: square"/>
   </g>
   <g id="line2d_20">
    <path d="M 131.658795 113.401663 
L 131.658795 64.515847 
" clip-path="url(#peeebc2c6b5)" style="fill: none; stroke: #000000; stroke-linecap: square"/>
   </g>
   <g id="line2d_21">
    <path d="M 130.505325 214.114493 
L 132.812264 214.114493 
" clip-path="url(#peeebc2c6b5)" style="fill: none; stroke: #000000; stroke-linecap: square"/>
   </g>
   <g id="line2d_22">
    <path d="M 130.505325 64.515847 
L 132.812264 64.515847 
" clip-path="url(#peeebc2c6b5)" style="fill: none; stroke: #000000; stroke-linecap: square"/>
   </g>
   <g id="patch_5">
    <path d="M 183.180427 151.915884 
L 187.794305 151.915884 
L 187.794305 113.618383 
L 183.180427 113.618383 
L 183.180427 151.915884 
L 183.180427 151.915884 
z
" clip-path="url(#peeebc2c6b5)" style="fill: none; stroke: #000000; stroke-linejoin: miter"/>
   </g>
   <g id="line2d_23">
    <path d="M 185.487366 151.915884 
L 185.487366 206.684097 
" clip-path="url(#peeebc2c6b5)" style="fill: none; stroke: #000000; stroke-linecap: square"/>
   </g>
   <g id="line2d_24">
    <path d="M 185.487366 113.618383 
L 185.487366 59.686089 
" clip-path="url(#peeebc2c6b5)" style="fill: none; stroke: #000000; stroke-linecap: square"/>
   </g>
   <g id="line2d_25">
    <path d="M 184.333897 206.684097 
L 186.640835 206.684097 
" clip-path="url(#peeebc2c6b5)" style="fill: none; stroke: #000000; stroke-linecap: square"/>
   </g>
   <g id="line2d_26">
    <path d="M 184.333897 59.686089 
L 186.640835 59.686089 
" clip-path="url(#peeebc2c6b5)" style="fill: none; stroke: #000000; stroke-linecap: square"/>
   </g>
   <g id="patch_6">
    <path d="M 237.008999 176.993472 
L 241.622876 176.993472 
L 241.622876 107.271586 
L 237.008999 107.271586 
L 237.008999 176.993472 
L 237.008999 176.993472 
z
" clip-path="url(#peeebc2c6b5)" style="fill: none; stroke: #000000; stroke-linejoin: miter"/>
   </g>
   <g id="line2d_27">
    <path d="M 239.315937 176.993472 
L 239.315937 240.74008 
" clip-path="url(#peeebc2c6b5)" style="fill: none; stroke: #000000; stroke-linecap: square"/>
   </g>
   <g id="line2d_28">
    <path d="M 239.315937 107.271586 
L 239.315937 40.490899 
" clip-path="url(#peeebc2c6b5)" style="fill: none; stroke: #000000; stroke-linecap: square"/>
   </g>
   <g id="line2d_29">
    <path d="M 238.162468 240.74008 
L 240.469407 240.74008 
" clip-path="url(#peeebc2c6b5)" style="fill: none; stroke: #000000; stroke-linecap: square"/>
   </g>
   <g id="line2d_30">
    <path d="M 238.162468 40.490899 
L 240.469407 40.490899 
" clip-path="url(#peeebc2c6b5)" style="fill: none; stroke: #000000; stroke-linecap: square"/>
   </g>
   <g id="patch_7">
    <path d="M 290.83757 171.080115 
L 295.451448 171.080115 
L 295.451448 123.401738 
L 290.83757 123.401738 
L 290.83757 171.080115 
L 290.83757 171.080115 
z
" clip-path="url(#peeebc2c6b5)" style="fill: none; stroke: #000000; stroke-linejoin: miter"/>
   </g>
   <g id="line2d_31">
    <path d="M 293.144509 171.080115 
L 293.144509 224.269368 
" clip-path="url(#peeebc2c6b5)" style="fill: none; stroke: #000000; stroke-linecap: square"/>
   </g>
   <g id="line2d_32">
    <path d="M 293.144509 123.401738 
L 293.144509 58.32385 
" clip-path="url(#peeebc2c6b5)" style="fill: none; stroke: #000000; stroke-linecap: square"/>
   </g>
   <g id="line2d_33">
    <path d="M 291.99104 224.269368 
L 294.297978 224.269368 
" clip-path="url(#peeebc2c6b5)" style="fill: none; stroke: #000000; stroke-linecap: square"/>
   </g>
   <g id="line2d_34">
    <path d="M 291.99104 58.32385 
L 294.297978 58.32385 
" clip-path="url(#peeebc2c6b5)" style="fill: none; stroke: #000000; stroke-linecap: square"/>
   </g>
   <g id="patch_8">
    <path d="M 344.666142 156.962362 
L 349.280019 156.962362 
L 349.280019 127.426536 
L 344.666142 127.426536 
L 344.666142 156.962362 
L 344.666142 156.962362 
z
" clip-path="url(#peeebc2c6b5)" style="fill: none; stroke: #000000; stroke-linejoin: miter"/>
   </g>
   <g id="line2d_35">
    <path d="M 346.97308 156.962362 
L 346.97308 198.015301 
" clip-path="url(#peeebc2c6b5)" style="fill: none; stroke: #000000; stroke-linecap: square"/>
   </g>
   <g id="line2d_36">
    <path d="M 346.97308 127.426536 
L 346.97308 93.618233 
" clip-path="url(#peeebc2c6b5)" style="fill: none; stroke: #000000; stroke-linecap: square"/>
   </g>
   <g id="line2d_37">
    <path d="M 345.819611 198.015301 
L 348.12655 198.015301 
" clip-path="url(#peeebc2c6b5)" style="fill: none; stroke: #000000; stroke-linecap: square"/>
   </g>
   <g id="line2d_38">
    <path d="M 345.819611 93.618233 
L 348.12655 93.618233 
" clip-path="url(#peeebc2c6b5)" style="fill: none; stroke: #000000; stroke-linecap: square"/>
   </g>
   <g id="patch_9">
    <path d="M 398.494713 192.566344 
L 403.108591 192.566344 
L 403.108591 154.702283 
L 398.494713 154.702283 
L 398.494713 192.566344 
L 398.494713 192.566344 
z
" clip-path="url(#peeebc2c6b5)" style="fill: none; stroke: #000000; stroke-linejoin: miter"/>
   </g>
   <g id="line2d_39">
    <path d="M 400.801652 192.566344 
L 400.801652 223.402489 
" clip-path="url(#peeebc2c6b5)" style="fill: none; stroke: #000000; stroke-linecap: square"/>
   </g>
   <g id="line2d_40">
    <path d="M 400.801652 154.702283 
L 400.801652 110.212785 
" clip-path="url(#peeebc2c6b5)" style="fill: none; stroke: #000000; stroke-linecap: square"/>
   </g>
   <g id="line2d_41">
    <path d="M 399.648182 223.402489 
L 401.955121 223.402489 
" clip-path="url(#peeebc2c6b5)" style="fill: none; stroke: #000000; stroke-linecap: square"/>
   </g>
   <g id="line2d_42">
    <path d="M 399.648182 110.212785 
L 401.955121 110.212785 
" clip-path="url(#peeebc2c6b5)" style="fill: none; stroke: #000000; stroke-linecap: square"/>
   </g>
   <g id="line2d_43">
    <path d="M 75.523284 167.488756 
L 80.137162 167.488756 
" clip-path="url(#peeebc2c6b5)" style="fill: none; stroke: #000000; stroke-width: 1.5; stroke-linecap: square"/>
   </g>
   <g id="line2d_44">
    <path d="M 129.351856 134.856932 
L 133.965733 134.856932 
" clip-path="url(#peeebc2c6b5)" style="fill: none; stroke: #000000; stroke-width: 1.5; stroke-linecap: square"/>
   </g>
   <g id="line2d_45">
    <path d="M 183.180427 133.185093 
L 187.794305 133.185093 
" clip-path="url(#peeebc2c6b5)" style="fill: none; stroke: #000000; stroke-width: 1.5; stroke-linecap: square"/>
   </g>
   <g id="line2d_46">
    <path d="M 237.008999 147.117086 
L 241.622876 147.117086 
" clip-path="url(#peeebc2c6b5)" style="fill: none; stroke: #000000; stroke-width: 1.5; stroke-linecap: square"/>
   </g>
   <g id="line2d_47">
    <path d="M 290.83757 145.631007 
L 295.451448 145.631007 
" clip-path="url(#peeebc2c6b5)" style="fill: none; stroke: #000000; stroke-width: 1.5; stroke-linecap: square"/>
   </g>
   <g id="line2d_48">
    <path d="M 344.666142 141.668129 
L 349.280019 141.668129 
" clip-path="url(#peeebc2c6b5)" style="fill: none; stroke: #000000; stroke-width: 1.5; stroke-linecap: square"/>
   </g>
   <g id="line2d_49">
    <path d="M 398.494713 178.015151 
L 403.108591 178.015151 
" clip-path="url(#peeebc2c6b5)" style="fill: none; stroke: #000000; stroke-width: 1.5; stroke-linecap: square"/>
   </g>
   <g id="patch_10">
    <path d="M 50.915938 259.854775 
L 50.915938 30.045 
" style="fill: none; stroke: #000000; stroke-linejoin: miter; stroke-linecap: square"/>
   </g>
   <g id="patch_11">
    <path d="M 427.715937 259.854775 
L 427.715937 30.045 
" style="fill: none; stroke: #000000; stroke-linejoin: miter; stroke-linecap: square"/>
   </g>
   <g id="patch_12">
    <path d="M 50.915938 259.854775 
L 427.715937 259.854775 
" style="fill: none; stroke: #000000; stroke-linejoin: miter; stroke-linecap: square"/>
   </g>
   <g id="patch_13">
    <path d="M 50.915938 30.045 
L 427.715937 30.045 
" style="fill: none; stroke: #000000; stroke-linejoin: miter; stroke-linecap: square"/>
   </g>
   <g id="text_16">
    <!-- Statistics on daily outpatient visits in different cities (Number) -->
    <g transform="translate(27.472187 18.045) scale(0.16 -0.16)">
     <defs>
      <path id="TimesNewRomanPS-BoldMT-53" d="M 3006 4334 
L 3041 2922 
L 2913 2922 
Q 2822 3453 2467 3776 
Q 2113 4100 1700 4100 
Q 1381 4100 1195 3929 
Q 1009 3759 1009 3538 
Q 1009 3397 1075 3288 
Q 1166 3141 1366 2997 
Q 1513 2894 2044 2631 
Q 2788 2266 3047 1941 
Q 3303 1616 3303 1197 
Q 3303 666 2889 283 
Q 2475 -100 1838 -100 
Q 1638 -100 1459 -59 
Q 1281 -19 1013 94 
Q 863 156 766 156 
Q 684 156 593 93 
Q 503 31 447 -97 
L 331 -97 
L 331 1503 
L 447 1503 
Q 584 828 976 473 
Q 1369 119 1822 119 
Q 2172 119 2380 309 
Q 2588 500 2588 753 
Q 2588 903 2508 1043 
Q 2428 1184 2265 1311 
Q 2103 1438 1691 1641 
Q 1113 1925 859 2125 
Q 606 2325 470 2572 
Q 334 2819 334 3116 
Q 334 3622 706 3978 
Q 1078 4334 1644 4334 
Q 1850 4334 2044 4284 
Q 2191 4247 2402 4145 
Q 2613 4044 2697 4044 
Q 2778 4044 2825 4094 
Q 2872 4144 2913 4334 
L 3006 4334 
z
" transform="scale(0.015625)"/>
      <path id="TimesNewRomanPS-BoldMT-74" d="M 1375 3991 
L 1375 2922 
L 2069 2922 
L 2069 2613 
L 1375 2613 
L 1375 809 
Q 1375 556 1398 482 
Q 1422 409 1481 364 
Q 1541 319 1591 319 
Q 1794 319 1975 628 
L 2069 559 
Q 1816 -41 1247 -41 
Q 969 -41 776 114 
Q 584 269 531 459 
Q 500 566 500 1034 
L 500 2613 
L 119 2613 
L 119 2722 
Q 513 3000 789 3306 
Q 1066 3613 1272 3991 
L 1375 3991 
z
" transform="scale(0.015625)"/>
      <path id="TimesNewRomanPS-BoldMT-61" d="M 1828 431 
Q 1294 -41 869 -41 
Q 619 -41 453 123 
Q 288 288 288 534 
Q 288 869 575 1136 
Q 863 1403 1828 1847 
L 1828 2141 
Q 1828 2472 1792 2558 
Q 1756 2644 1656 2708 
Q 1556 2772 1431 2772 
Q 1228 2772 1097 2681 
Q 1016 2625 1016 2550 
Q 1016 2484 1103 2388 
Q 1222 2253 1222 2128 
Q 1222 1975 1108 1867 
Q 994 1759 809 1759 
Q 613 1759 480 1878 
Q 347 1997 347 2156 
Q 347 2381 525 2586 
Q 703 2791 1022 2900 
Q 1341 3009 1684 3009 
Q 2100 3009 2342 2832 
Q 2584 2656 2656 2450 
Q 2700 2319 2700 1847 
L 2700 713 
Q 2700 513 2715 461 
Q 2731 409 2762 384 
Q 2794 359 2834 359 
Q 2916 359 3000 475 
L 3094 400 
Q 2938 169 2770 64 
Q 2603 -41 2391 -41 
Q 2141 -41 2000 76 
Q 1859 194 1828 431 
z
M 1828 659 
L 1828 1638 
Q 1450 1416 1266 1163 
Q 1144 994 1144 822 
Q 1144 678 1247 569 
Q 1325 484 1466 484 
Q 1622 484 1828 659 
z
" transform="scale(0.015625)"/>
      <path id="TimesNewRomanPS-BoldMT-69" d="M 919 4338 
Q 1122 4338 1262 4195 
Q 1403 4053 1403 3853 
Q 1403 3653 1261 3512 
Q 1119 3372 919 3372 
Q 719 3372 578 3512 
Q 438 3653 438 3853 
Q 438 4053 578 4195 
Q 719 4338 919 4338 
z
M 1356 2922 
L 1356 606 
Q 1356 297 1428 211 
Q 1500 125 1709 113 
L 1709 0 
L 131 0 
L 131 113 
Q 325 119 419 225 
Q 481 297 481 606 
L 481 2313 
Q 481 2622 409 2708 
Q 338 2794 131 2806 
L 131 2922 
L 1356 2922 
z
" transform="scale(0.015625)"/>
      <path id="TimesNewRomanPS-BoldMT-73" d="M 2063 3003 
L 2109 2006 
L 2003 2006 
Q 1813 2450 1608 2612 
Q 1403 2775 1200 2775 
Q 1072 2775 981 2689 
Q 891 2603 891 2491 
Q 891 2406 953 2328 
Q 1053 2200 1512 1889 
Q 1972 1578 2117 1361 
Q 2263 1144 2263 875 
Q 2263 631 2141 397 
Q 2019 163 1797 37 
Q 1575 -88 1306 -88 
Q 1097 -88 747 44 
Q 653 78 619 78 
Q 516 78 447 -78 
L 344 -78 
L 294 972 
L 400 972 
Q 541 559 786 353 
Q 1031 147 1250 147 
Q 1400 147 1495 239 
Q 1591 331 1591 463 
Q 1591 613 1497 722 
Q 1403 831 1078 1053 
Q 600 1384 459 1559 
Q 253 1816 253 2125 
Q 253 2463 486 2736 
Q 719 3009 1159 3009 
Q 1397 3009 1619 2894 
Q 1703 2847 1756 2847 
Q 1813 2847 1847 2870 
Q 1881 2894 1956 3003 
L 2063 3003 
z
" transform="scale(0.015625)"/>
      <path id="TimesNewRomanPS-BoldMT-63" d="M 2600 753 
L 2697 678 
Q 2491 291 2183 101 
Q 1875 -88 1528 -88 
Q 944 -88 594 353 
Q 244 794 244 1413 
Q 244 2009 563 2463 
Q 947 3009 1622 3009 
Q 2075 3009 2342 2781 
Q 2609 2553 2609 2272 
Q 2609 2094 2501 1987 
Q 2394 1881 2219 1881 
Q 2034 1881 1914 2003 
Q 1794 2125 1766 2438 
Q 1747 2634 1675 2713 
Q 1603 2791 1506 2791 
Q 1356 2791 1250 2631 
Q 1088 2391 1088 1894 
Q 1088 1481 1219 1104 
Q 1350 728 1578 544 
Q 1750 409 1984 409 
Q 2138 409 2275 481 
Q 2413 553 2600 753 
z
" transform="scale(0.015625)"/>
      <path id="TimesNewRomanPS-BoldMT-20" transform="scale(0.015625)"/>
      <path id="TimesNewRomanPS-BoldMT-6f" d="M 1594 3009 
Q 1975 3009 2303 2812 
Q 2631 2616 2801 2253 
Q 2972 1891 2972 1459 
Q 2972 838 2656 419 
Q 2275 -88 1603 -88 
Q 944 -88 587 375 
Q 231 838 231 1447 
Q 231 2075 595 2542 
Q 959 3009 1594 3009 
z
M 1606 2788 
Q 1447 2788 1333 2667 
Q 1219 2547 1183 2192 
Q 1147 1838 1147 1206 
Q 1147 872 1191 581 
Q 1225 359 1337 243 
Q 1450 128 1594 128 
Q 1734 128 1828 206 
Q 1950 313 1991 503 
Q 2053 800 2053 1703 
Q 2053 2234 1993 2432 
Q 1934 2631 1819 2722 
Q 1738 2788 1606 2788 
z
" transform="scale(0.015625)"/>
      <path id="TimesNewRomanPS-BoldMT-6e" d="M 1409 2922 
L 1409 2544 
Q 1634 2788 1840 2898 
Q 2047 3009 2284 3009 
Q 2569 3009 2756 2851 
Q 2944 2694 3006 2459 
Q 3056 2281 3056 1775 
L 3056 638 
Q 3056 300 3117 217 
Q 3178 134 3372 113 
L 3372 0 
L 1894 0 
L 1894 113 
Q 2059 134 2131 250 
Q 2181 328 2181 638 
L 2181 1938 
Q 2181 2297 2153 2390 
Q 2125 2484 2058 2536 
Q 1991 2588 1909 2588 
Q 1641 2588 1409 2203 
L 1409 638 
Q 1409 309 1470 221 
Q 1531 134 1697 113 
L 1697 0 
L 219 0 
L 219 113 
Q 403 131 481 231 
Q 534 300 534 638 
L 534 2288 
Q 534 2619 473 2700 
Q 413 2781 219 2806 
L 219 2922 
L 1409 2922 
z
" transform="scale(0.015625)"/>
      <path id="TimesNewRomanPS-BoldMT-64" d="M 3056 4238 
L 3056 875 
Q 3056 534 3075 472 
Q 3100 369 3170 319 
Q 3241 269 3416 256 
L 3416 153 
L 2181 -88 
L 2181 375 
Q 1959 106 1786 9 
Q 1613 -88 1394 -88 
Q 834 -88 509 413 
Q 247 819 247 1409 
Q 247 1881 409 2254 
Q 572 2628 855 2818 
Q 1138 3009 1463 3009 
Q 1672 3009 1834 2928 
Q 1997 2847 2181 2644 
L 2181 3525 
Q 2181 3859 2153 3928 
Q 2116 4019 2041 4062 
Q 1966 4106 1759 4106 
L 1759 4238 
L 3056 4238 
z
M 2181 2256 
Q 1950 2700 1616 2700 
Q 1500 2700 1425 2638 
Q 1309 2541 1236 2297 
Q 1163 2053 1163 1550 
Q 1163 997 1244 731 
Q 1325 466 1466 347 
Q 1538 288 1663 288 
Q 1938 288 2181 719 
L 2181 2256 
z
" transform="scale(0.015625)"/>
      <path id="TimesNewRomanPS-BoldMT-6c" d="M 1359 4238 
L 1359 606 
Q 1359 297 1431 211 
Q 1503 125 1713 113 
L 1713 0 
L 134 0 
L 134 113 
Q 328 119 422 225 
Q 484 297 484 606 
L 484 3631 
Q 484 3938 412 4023 
Q 341 4109 134 4122 
L 134 4238 
L 1359 4238 
z
" transform="scale(0.015625)"/>
      <path id="TimesNewRomanPS-BoldMT-79" d="M 1556 -119 
L 613 2047 
Q 400 2538 298 2650 
Q 197 2763 53 2806 
L 53 2922 
L 1606 2922 
L 1606 2806 
Q 1453 2800 1390 2747 
Q 1328 2694 1328 2619 
Q 1328 2500 1484 2150 
L 1984 1006 
L 2325 1891 
Q 2509 2363 2509 2547 
Q 2509 2663 2432 2731 
Q 2356 2800 2163 2806 
L 2163 2922 
L 3141 2922 
L 3141 2806 
Q 2997 2791 2906 2695 
Q 2816 2600 2603 2047 
L 1769 -119 
Q 1453 -931 1300 -1119 
Q 1084 -1381 759 -1381 
Q 500 -1381 339 -1232 
Q 178 -1084 178 -875 
Q 178 -694 289 -575 
Q 400 -456 563 -456 
Q 719 -456 814 -556 
Q 909 -656 913 -866 
Q 916 -984 941 -1019 
Q 966 -1053 1013 -1053 
Q 1088 -1053 1172 -963 
Q 1297 -831 1466 -363 
L 1556 -119 
z
" transform="scale(0.015625)"/>
      <path id="TimesNewRomanPS-BoldMT-75" d="M 3038 2922 
L 3038 634 
Q 3038 300 3100 217 
Q 3163 134 3353 113 
L 3353 0 
L 2163 0 
L 2163 391 
Q 1953 141 1743 26 
Q 1534 -88 1275 -88 
Q 1028 -88 836 64 
Q 644 216 578 419 
Q 513 622 513 1128 
L 513 2288 
Q 513 2619 452 2700 
Q 391 2781 197 2806 
L 197 2922 
L 1388 2922 
L 1388 925 
Q 1388 613 1417 522 
Q 1447 431 1511 384 
Q 1575 338 1659 338 
Q 1772 338 1863 397 
Q 1988 478 2163 725 
L 2163 2288 
Q 2163 2619 2102 2700 
Q 2041 2781 1847 2806 
L 1847 2922 
L 3038 2922 
z
" transform="scale(0.015625)"/>
      <path id="TimesNewRomanPS-BoldMT-70" d="M 1347 297 
L 1347 -791 
Q 1347 -1016 1383 -1097 
Q 1419 -1178 1494 -1215 
Q 1569 -1253 1788 -1253 
L 1788 -1369 
L 122 -1369 
L 122 -1253 
Q 316 -1247 409 -1144 
Q 472 -1072 472 -772 
L 472 2313 
Q 472 2622 400 2708 
Q 328 2794 122 2806 
L 122 2922 
L 1347 2922 
L 1347 2538 
Q 1500 2763 1659 2863 
Q 1888 3009 2156 3009 
Q 2478 3009 2742 2806 
Q 3006 2603 3143 2245 
Q 3281 1888 3281 1475 
Q 3281 1031 3139 664 
Q 2997 297 2726 104 
Q 2456 -88 2125 -88 
Q 1884 -88 1675 19 
Q 1519 100 1347 297 
z
M 1347 613 
Q 1616 231 1922 231 
Q 2091 231 2200 409 
Q 2363 672 2363 1409 
Q 2363 2166 2184 2444 
Q 2066 2628 1866 2628 
Q 1550 2628 1347 2172 
L 1347 613 
z
" transform="scale(0.015625)"/>
      <path id="TimesNewRomanPS-BoldMT-65" d="M 2691 1566 
L 1088 1566 
Q 1116 984 1397 647 
Q 1613 388 1916 388 
Q 2103 388 2256 492 
Q 2409 597 2584 869 
L 2691 800 
Q 2453 316 2165 114 
Q 1878 -88 1500 -88 
Q 850 -88 516 413 
Q 247 816 247 1413 
Q 247 2144 642 2576 
Q 1038 3009 1569 3009 
Q 2013 3009 2339 2645 
Q 2666 2281 2691 1566 
z
M 1922 1775 
Q 1922 2278 1867 2465 
Q 1813 2653 1697 2750 
Q 1631 2806 1522 2806 
Q 1359 2806 1256 2647 
Q 1072 2369 1072 1884 
L 1072 1775 
L 1922 1775 
z
" transform="scale(0.015625)"/>
      <path id="TimesNewRomanPS-BoldMT-76" d="M 1534 -88 
L 550 2178 
Q 372 2588 272 2697 
Q 200 2778 59 2806 
L 59 2922 
L 1613 2922 
L 1613 2806 
Q 1466 2806 1413 2753 
Q 1338 2684 1338 2591 
Q 1338 2475 1475 2156 
L 1956 1059 
L 2341 2006 
Q 2506 2413 2506 2581 
Q 2506 2678 2436 2739 
Q 2366 2800 2188 2806 
L 2188 2922 
L 3144 2922 
L 3144 2806 
Q 3006 2788 2918 2703 
Q 2831 2619 2656 2206 
L 1681 -88 
L 1534 -88 
z
" transform="scale(0.015625)"/>
      <path id="TimesNewRomanPS-BoldMT-66" d="M 1497 2616 
L 1497 588 
Q 1497 294 1559 219 
Q 1659 103 1928 113 
L 1928 0 
L 206 0 
L 206 113 
Q 403 116 486 158 
Q 569 200 600 275 
Q 631 350 631 588 
L 631 2616 
L 206 2616 
L 206 2922 
L 631 2922 
L 631 3138 
L 628 3284 
Q 628 3734 958 4034 
Q 1288 4334 1850 4334 
Q 2234 4334 2420 4190 
Q 2606 4047 2606 3872 
Q 2606 3731 2490 3628 
Q 2375 3525 2184 3525 
Q 2022 3525 1926 3609 
Q 1831 3694 1831 3797 
Q 1831 3825 1850 3913 
Q 1863 3966 1863 4013 
Q 1863 4078 1825 4109 
Q 1775 4156 1703 4156 
Q 1613 4156 1552 4081 
Q 1491 4006 1491 3841 
L 1497 3294 
L 1497 2922 
L 1928 2922 
L 1928 2616 
L 1497 2616 
z
" transform="scale(0.015625)"/>
      <path id="TimesNewRomanPS-BoldMT-72" d="M 1428 2922 
L 1428 2259 
Q 1719 2713 1937 2861 
Q 2156 3009 2359 3009 
Q 2534 3009 2639 2901 
Q 2744 2794 2744 2597 
Q 2744 2388 2642 2272 
Q 2541 2156 2397 2156 
Q 2231 2156 2109 2262 
Q 1988 2369 1966 2381 
Q 1934 2400 1894 2400 
Q 1803 2400 1722 2331 
Q 1594 2225 1528 2028 
Q 1428 1725 1428 1359 
L 1428 688 
L 1431 513 
Q 1431 334 1453 284 
Q 1491 200 1564 161 
Q 1638 122 1813 113 
L 1813 0 
L 234 0 
L 234 113 
Q 425 128 492 217 
Q 559 306 559 688 
L 559 2303 
Q 559 2553 534 2622 
Q 503 2709 443 2750 
Q 384 2791 234 2806 
L 234 2922 
L 1428 2922 
z
" transform="scale(0.015625)"/>
      <path id="TimesNewRomanPS-BoldMT-28" d="M 2056 4334 
L 2056 4191 
Q 1731 3978 1578 3775 
Q 1366 3494 1247 3053 
Q 1097 2506 1097 1525 
Q 1097 600 1233 87 
Q 1369 -425 1603 -741 
Q 1766 -959 2056 -1125 
L 2056 -1281 
Q 1303 -1028 779 -248 
Q 256 531 256 1544 
Q 256 2544 778 3314 
Q 1300 4084 2056 4334 
z
" transform="scale(0.015625)"/>
      <path id="TimesNewRomanPS-BoldMT-4e" d="M 1594 4238 
L 3684 1609 
L 3684 3431 
Q 3684 3813 3575 3947 
Q 3425 4128 3072 4122 
L 3072 4238 
L 4472 4238 
L 4472 4122 
Q 4203 4088 4111 4033 
Q 4019 3978 3967 3854 
Q 3916 3731 3916 3431 
L 3916 -97 
L 3809 -97 
L 944 3431 
L 944 738 
Q 944 372 1111 244 
Q 1278 116 1494 116 
L 1594 116 
L 1594 0 
L 91 0 
L 91 116 
Q 441 119 578 259 
Q 716 400 716 738 
L 716 3728 
L 625 3841 
Q 491 4009 387 4062 
Q 284 4116 91 4122 
L 91 4238 
L 1594 4238 
z
" transform="scale(0.015625)"/>
      <path id="TimesNewRomanPS-BoldMT-6d" d="M 1428 2922 
L 1428 2538 
Q 1669 2800 1873 2904 
Q 2078 3009 2322 3009 
Q 2603 3009 2793 2878 
Q 2984 2747 3088 2478 
Q 3338 2759 3567 2884 
Q 3797 3009 4047 3009 
Q 4350 3009 4529 2870 
Q 4709 2731 4779 2517 
Q 4850 2303 4850 1834 
L 4850 638 
Q 4850 300 4911 219 
Q 4972 138 5166 113 
L 5166 0 
L 3656 0 
L 3656 113 
Q 3834 128 3919 250 
Q 3975 334 3975 638 
L 3975 1894 
Q 3975 2284 3944 2390 
Q 3913 2497 3845 2548 
Q 3778 2600 3688 2600 
Q 3553 2600 3415 2501 
Q 3278 2403 3138 2206 
L 3138 638 
Q 3138 322 3191 241 
Q 3263 125 3466 113 
L 3466 0 
L 1953 0 
L 1953 113 
Q 2075 119 2145 173 
Q 2216 228 2239 304 
Q 2263 381 2263 638 
L 2263 1894 
Q 2263 2291 2231 2391 
Q 2200 2491 2126 2547 
Q 2053 2603 1969 2603 
Q 1844 2603 1741 2538 
Q 1594 2441 1428 2206 
L 1428 638 
Q 1428 328 1489 229 
Q 1550 131 1744 113 
L 1744 0 
L 238 0 
L 238 113 
Q 422 131 500 231 
Q 553 300 553 638 
L 553 2288 
Q 553 2619 492 2700 
Q 431 2781 238 2806 
L 238 2922 
L 1428 2922 
z
" transform="scale(0.015625)"/>
      <path id="TimesNewRomanPS-BoldMT-62" d="M 1347 4238 
L 1347 2628 
Q 1716 3009 2153 3009 
Q 2453 3009 2718 2832 
Q 2984 2656 3134 2331 
Q 3284 2006 3284 1581 
Q 3284 1103 3093 712 
Q 2903 322 2584 117 
Q 2266 -88 1856 -88 
Q 1619 -88 1434 -12 
Q 1250 63 1072 231 
L 588 -84 
L 481 -84 
L 481 3631 
Q 481 3884 459 3944 
Q 428 4031 361 4073 
Q 294 4116 134 4122 
L 134 4238 
L 1347 4238 
z
M 1347 2350 
L 1347 1050 
Q 1347 653 1366 544 
Q 1397 359 1515 245 
Q 1634 131 1819 131 
Q 1978 131 2092 222 
Q 2206 313 2282 581 
Q 2359 850 2359 1550 
Q 2359 2222 2191 2472 
Q 2069 2653 1863 2653 
Q 1594 2653 1347 2350 
z
" transform="scale(0.015625)"/>
      <path id="TimesNewRomanPS-BoldMT-29" d="M 78 -1281 
L 78 -1138 
Q 403 -922 556 -719 
Q 766 -438 888 0 
Q 1038 550 1038 1531 
Q 1038 2456 902 2967 
Q 766 3478 531 3794 
Q 369 4013 78 4178 
L 78 4334 
Q 831 4081 1354 3301 
Q 1878 2522 1878 1509 
Q 1878 513 1354 -257 
Q 831 -1028 78 -1281 
z
" transform="scale(0.015625)"/>
     </defs>
     <use xlink:href="#TimesNewRomanPS-BoldMT-53"/>
     <use xlink:href="#TimesNewRomanPS-BoldMT-74" x="55.615234"/>
     <use xlink:href="#TimesNewRomanPS-BoldMT-61" x="88.916016"/>
     <use xlink:href="#TimesNewRomanPS-BoldMT-74" x="138.916016"/>
     <use xlink:href="#TimesNewRomanPS-BoldMT-69" x="172.216797"/>
     <use xlink:href="#TimesNewRomanPS-BoldMT-73" x="200"/>
     <use xlink:href="#TimesNewRomanPS-BoldMT-74" x="238.916016"/>
     <use xlink:href="#TimesNewRomanPS-BoldMT-69" x="272.216797"/>
     <use xlink:href="#TimesNewRomanPS-BoldMT-63" x="300"/>
     <use xlink:href="#TimesNewRomanPS-BoldMT-73" x="344.384766"/>
     <use xlink:href="#TimesNewRomanPS-BoldMT-20" x="383.300781"/>
     <use xlink:href="#TimesNewRomanPS-BoldMT-6f" x="408.300781"/>
     <use xlink:href="#TimesNewRomanPS-BoldMT-6e" x="458.300781"/>
     <use xlink:href="#TimesNewRomanPS-BoldMT-20" x="513.916016"/>
     <use xlink:href="#TimesNewRomanPS-BoldMT-64" x="538.916016"/>
     <use xlink:href="#TimesNewRomanPS-BoldMT-61" x="594.53125"/>
     <use xlink:href="#TimesNewRomanPS-BoldMT-69" x="644.53125"/>
     <use xlink:href="#TimesNewRomanPS-BoldMT-6c" x="672.314453"/>
     <use xlink:href="#TimesNewRomanPS-BoldMT-79" x="700.097656"/>
     <use xlink:href="#TimesNewRomanPS-BoldMT-20" x="750.097656"/>
     <use xlink:href="#TimesNewRomanPS-BoldMT-6f" x="775.097656"/>
     <use xlink:href="#TimesNewRomanPS-BoldMT-75" x="825.097656"/>
     <use xlink:href="#TimesNewRomanPS-BoldMT-74" x="880.712891"/>
     <use xlink:href="#TimesNewRomanPS-BoldMT-70" x="914.013672"/>
     <use xlink:href="#TimesNewRomanPS-BoldMT-61" x="969.628906"/>
     <use xlink:href="#TimesNewRomanPS-BoldMT-74" x="1019.628906"/>
     <use xlink:href="#TimesNewRomanPS-BoldMT-69" x="1052.929688"/>
     <use xlink:href="#TimesNewRomanPS-BoldMT-65" x="1080.712891"/>
     <use xlink:href="#TimesNewRomanPS-BoldMT-6e" x="1125.097656"/>
     <use xlink:href="#TimesNewRomanPS-BoldMT-74" x="1180.712891"/>
     <use xlink:href="#TimesNewRomanPS-BoldMT-20" x="1214.013672"/>
     <use xlink:href="#TimesNewRomanPS-BoldMT-76" x="1239.013672"/>
     <use xlink:href="#TimesNewRomanPS-BoldMT-69" x="1289.013672"/>
     <use xlink:href="#TimesNewRomanPS-BoldMT-73" x="1316.796875"/>
     <use xlink:href="#TimesNewRomanPS-BoldMT-69" x="1355.712891"/>
     <use xlink:href="#TimesNewRomanPS-BoldMT-74" x="1383.496094"/>
     <use xlink:href="#TimesNewRomanPS-BoldMT-73" x="1416.796875"/>
     <use xlink:href="#TimesNewRomanPS-BoldMT-20" x="1455.712891"/>
     <use xlink:href="#TimesNewRomanPS-BoldMT-69" x="1480.712891"/>
     <use xlink:href="#TimesNewRomanPS-BoldMT-6e" x="1508.496094"/>
     <use xlink:href="#TimesNewRomanPS-BoldMT-20" x="1564.111328"/>
     <use xlink:href="#TimesNewRomanPS-BoldMT-64" x="1589.111328"/>
     <use xlink:href="#TimesNewRomanPS-BoldMT-69" x="1644.726562"/>
     <use xlink:href="#TimesNewRomanPS-BoldMT-66" x="1672.509766"/>
     <use xlink:href="#TimesNewRomanPS-BoldMT-66" x="1705.810547"/>
     <use xlink:href="#TimesNewRomanPS-BoldMT-65" x="1739.111328"/>
     <use xlink:href="#TimesNewRomanPS-BoldMT-72" x="1783.496094"/>
     <use xlink:href="#TimesNewRomanPS-BoldMT-65" x="1826.130859"/>
     <use xlink:href="#TimesNewRomanPS-BoldMT-6e" x="1870.515625"/>
     <use xlink:href="#TimesNewRomanPS-BoldMT-74" x="1926.130859"/>
     <use xlink:href="#TimesNewRomanPS-BoldMT-20" x="1959.431641"/>
     <use xlink:href="#TimesNewRomanPS-BoldMT-63" x="1984.431641"/>
     <use xlink:href="#TimesNewRomanPS-BoldMT-69" x="2028.816406"/>
     <use xlink:href="#TimesNewRomanPS-BoldMT-74" x="2056.599609"/>
     <use xlink:href="#TimesNewRomanPS-BoldMT-69" x="2089.900391"/>
     <use xlink:href="#TimesNewRomanPS-BoldMT-65" x="2117.683594"/>
     <use xlink:href="#TimesNewRomanPS-BoldMT-73" x="2162.068359"/>
     <use xlink:href="#TimesNewRomanPS-BoldMT-20" x="2200.984375"/>
     <use xlink:href="#TimesNewRomanPS-BoldMT-28" x="2225.984375"/>
     <use xlink:href="#TimesNewRomanPS-BoldMT-4e" x="2259.285156"/>
     <use xlink:href="#TimesNewRomanPS-BoldMT-75" x="2331.501953"/>
     <use xlink:href="#TimesNewRomanPS-BoldMT-6d" x="2387.117188"/>
     <use xlink:href="#TimesNewRomanPS-BoldMT-62" x="2470.417969"/>
     <use xlink:href="#TimesNewRomanPS-BoldMT-65" x="2526.033203"/>
     <use xlink:href="#TimesNewRomanPS-BoldMT-72" x="2570.417969"/>
     <use xlink:href="#TimesNewRomanPS-BoldMT-29" x="2614.802734"/>
    </g>
   </g>
  </g>
 </g>
 <defs>
  <clipPath id="peeebc2c6b5">
   <rect x="50.915938" y="30.045" width="376.8" height="229.809775"/>
  </clipPath>
 </defs>
</svg>
