<?xml version="1.0" encoding="utf-8" standalone="no"?>
<!DOCTYPE svg PUBLIC "-//W3C//DTD SVG 1.1//EN"
  "http://www.w3.org/Graphics/SVG/1.1/DTD/svg11.dtd">
<svg xmlns:xlink="http://www.w3.org/1999/xlink" width="434.905938pt" height="319.934957pt" viewBox="0 0 434.905938 319.934957" xmlns="http://www.w3.org/2000/svg" version="1.1">
 <metadata>
  <rdf:RDF xmlns:dc="http://purl.org/dc/elements/1.1/" xmlns:cc="http://creativecommons.org/ns#" xmlns:rdf="http://www.w3.org/1999/02/22-rdf-syntax-ns#">
   <cc:Work>
    <dc:type rdf:resource="http://purl.org/dc/dcmitype/StillImage"/>
    <dc:date>2025-05-26T17:06:26.066492</dc:date>
    <dc:format>image/svg+xml</dc:format>
    <dc:creator>
     <cc:Agent>
      <dc:title>Matplotlib v3.7.2, https://matplotlib.org/</dc:title>
     </cc:Agent>
    </dc:creator>
   </cc:Work>
  </rdf:RDF>
 </metadata>
 <defs>
  <style type="text/css">*{stroke-linejoin: round; stroke-linecap: butt}</style>
 </defs>
 <g id="figure_1">
  <g id="patch_1">
   <path d="M 0 319.934957 
L 434.905938 319.934957 
L 434.905938 0 
L 0 0 
z
" style="fill: #ffffff"/>
  </g>
  <g id="axes_1">
   <g id="patch_2">
    <path d="M 55.915938 258.900181 
L 427.705938 258.900181 
L 427.705938 30.045 
L 55.915938 30.045 
z
" style="fill: #ffffff"/>
   </g>
   <g id="PolyCollection_1">
    <defs>
     <path id="me878a902c3" d="M 119.968062 -71.437284 
L 115.793813 -71.437284 
L 115.574035 -73.176445 
L 115.346638 -74.915607 
L 115.113526 -76.654768 
L 114.877513 -78.393929 
L 114.642329 -80.13309 
L 114.41243 -81.872252 
L 114.192575 -83.611413 
L 113.987201 -85.350574 
L 113.79966 -87.089736 
L 113.63143 -88.828897 
L 113.481418 -90.568058 
L 113.345494 -92.30722 
L 113.216357 -94.046381 
L 113.083794 -95.785542 
L 112.935341 -97.524704 
L 112.757272 -99.263865 
L 112.535814 -101.003026 
L 112.258425 -102.742188 
L 111.914976 -104.481349 
L 111.498663 -106.22051 
L 111.006543 -107.959671 
L 110.439613 -109.698833 
L 109.802411 -111.437994 
L 109.102197 -113.177155 
L 108.347803 -114.916317 
L 107.548276 -116.655478 
L 106.711484 -118.394639 
L 105.84283 -120.133801 
L 104.944234 -121.872962 
L 104.013489 -123.612123 
L 103.044103 -125.351285 
L 102.025656 -127.090446 
L 100.944684 -128.829607 
L 99.786022 -130.568769 
L 98.534521 -132.30793 
L 97.176968 -134.047091 
L 95.704037 -135.786253 
L 94.112055 -137.525414 
L 92.404381 -139.264575 
L 90.592207 -141.003736 
L 88.694668 -142.742898 
L 86.738174 -144.482059 
L 84.755022 -146.22122 
L 82.78137 -147.960382 
L 80.854798 -149.699543 
L 79.011679 -151.438704 
L 77.28466 -153.177866 
L 75.700505 -154.917027 
L 74.278533 -156.656188 
L 73.029804 -158.39535 
L 71.957099 -160.134511 
L 71.055681 -161.873672 
L 70.314694 -163.612834 
L 69.719015 -165.351995 
L 69.251336 -167.091156 
L 68.894225 -168.830317 
L 68.631961 -170.569479 
L 68.45195 -172.30864 
L 68.345652 -174.047801 
L 68.308937 -175.786963 
L 68.341955 -177.526124 
L 68.448564 -179.265285 
L 68.635489 -181.004447 
L 68.911336 -182.743608 
L 69.285593 -184.482769 
L 69.767759 -186.221931 
L 70.36662 -187.961092 
L 71.089724 -189.700253 
L 71.943012 -191.439415 
L 72.930536 -193.178576 
L 74.054224 -194.917737 
L 75.313616 -196.656898 
L 76.705562 -198.39606 
L 78.2239 -200.135221 
L 79.859165 -201.874382 
L 81.598413 -203.613544 
L 83.425249 -205.352705 
L 85.320115 -207.091866 
L 87.260878 -208.831028 
L 89.223702 -210.570189 
L 91.18412 -212.30935 
L 93.118225 -214.048512 
L 95.00384 -215.787673 
L 96.821547 -217.526834 
L 98.555493 -219.265996 
L 100.193878 -221.005157 
L 101.729133 -222.744318 
L 103.157788 -224.483479 
L 104.480077 -226.222641 
L 105.699353 -227.961802 
L 106.821382 -229.700963 
L 107.853581 -231.440125 
L 108.804276 -233.179286 
L 109.682002 -234.918447 
L 110.494915 -236.657609 
L 111.250314 -238.39677 
L 111.95431 -240.135931 
L 112.611632 -241.875093 
L 113.225592 -243.614254 
L 122.536283 -243.614254 
L 122.536283 -243.614254 
L 123.150243 -241.875093 
L 123.807565 -240.135931 
L 124.511561 -238.39677 
L 125.26696 -236.657609 
L 126.079873 -234.918447 
L 126.957599 -233.179286 
L 127.908294 -231.440125 
L 128.940493 -229.700963 
L 130.062522 -227.961802 
L 131.281798 -226.222641 
L 132.604087 -224.483479 
L 134.032742 -222.744318 
L 135.567997 -221.005157 
L 137.206382 -219.265996 
L 138.940328 -217.526834 
L 140.758035 -215.787673 
L 142.64365 -214.048512 
L 144.577755 -212.30935 
L 146.538173 -210.570189 
L 148.500997 -208.831028 
L 150.44176 -207.091866 
L 152.336626 -205.352705 
L 154.163462 -203.613544 
L 155.90271 -201.874382 
L 157.537975 -200.135221 
L 159.056313 -198.39606 
L 160.448259 -196.656898 
L 161.707651 -194.917737 
L 162.831339 -193.178576 
L 163.818863 -191.439415 
L 164.672151 -189.700253 
L 165.395255 -187.961092 
L 165.994116 -186.221931 
L 166.476282 -184.482769 
L 166.850539 -182.743608 
L 167.126386 -181.004447 
L 167.313311 -179.265285 
L 167.41992 -177.526124 
L 167.452938 -175.786963 
L 167.416223 -174.047801 
L 167.309925 -172.30864 
L 167.129914 -170.569479 
L 166.86765 -168.830317 
L 166.510539 -167.091156 
L 166.04286 -165.351995 
L 165.447181 -163.612834 
L 164.706194 -161.873672 
L 163.804776 -160.134511 
L 162.732071 -158.39535 
L 161.483342 -156.656188 
L 160.06137 -154.917027 
L 158.477215 -153.177866 
L 156.750196 -151.438704 
L 154.907077 -149.699543 
L 152.980505 -147.960382 
L 151.006853 -146.22122 
L 149.023701 -144.482059 
L 147.067207 -142.742898 
L 145.169668 -141.003736 
L 143.357494 -139.264575 
L 141.64982 -137.525414 
L 140.057838 -135.786253 
L 138.584907 -134.047091 
L 137.227354 -132.30793 
L 135.975853 -130.568769 
L 134.817191 -128.829607 
L 133.736219 -127.090446 
L 132.717772 -125.351285 
L 131.748386 -123.612123 
L 130.817641 -121.872962 
L 129.919045 -120.133801 
L 129.050391 -118.394639 
L 128.213599 -116.655478 
L 127.414072 -114.916317 
L 126.659678 -113.177155 
L 125.959464 -111.437994 
L 125.322262 -109.698833 
L 124.755332 -107.959671 
L 124.263212 -106.22051 
L 123.846899 -104.481349 
L 123.50345 -102.742188 
L 123.226061 -101.003026 
L 123.004603 -99.263865 
L 122.826534 -97.524704 
L 122.678081 -95.785542 
L 122.545518 -94.046381 
L 122.416381 -92.30722 
L 122.280457 -90.568058 
L 122.130445 -88.828897 
L 121.962215 -87.089736 
L 121.774674 -85.350574 
L 121.5693 -83.611413 
L 121.349445 -81.872252 
L 121.119546 -80.13309 
L 120.884362 -78.393929 
L 120.648349 -76.654768 
L 120.415237 -74.915607 
L 120.18784 -73.176445 
L 119.968062 -71.437284 
z
" style="stroke: #000000; stroke-opacity: 0.7"/>
    </defs>
    <g clip-path="url(#p2dfdb4f94a)">
     <use xlink:href="#me878a902c3" x="0" y="319.934957" style="fill: #9467bd; fill-opacity: 0.7; stroke: #000000; stroke-opacity: 0.7"/>
    </g>
   </g>
   <g id="PolyCollection_2">
    <defs>
     <path id="mea48218bd2" d="M 244.930036 -113.419768 
L 238.691839 -113.419768 
L 238.423174 -114.923896 
L 238.13126 -116.428024 
L 237.806283 -117.932152 
L 237.437106 -119.43628 
L 237.011951 -120.940408 
L 236.519183 -122.444536 
L 235.948132 -123.948664 
L 235.289858 -125.452792 
L 234.537779 -126.95692 
L 233.688111 -128.461048 
L 232.740074 -129.965176 
L 231.695844 -131.469304 
L 230.56031 -132.973432 
L 229.340638 -134.47756 
L 228.045744 -135.981688 
L 226.685731 -137.485816 
L 225.271358 -138.989944 
L 223.813602 -140.494072 
L 222.323336 -141.9982 
L 220.811154 -143.502328 
L 219.287317 -145.006456 
L 217.761801 -146.510584 
L 216.244403 -148.014713 
L 214.744867 -149.518841 
L 213.272966 -151.022969 
L 211.83851 -152.527097 
L 210.451232 -154.031225 
L 209.120545 -155.535353 
L 207.855149 -157.039481 
L 206.662526 -158.543609 
L 205.548339 -160.047737 
L 204.515833 -161.551865 
L 203.565279 -163.055993 
L 202.693596 -164.560121 
L 201.894201 -166.064249 
L 201.157193 -167.568377 
L 200.469897 -169.072505 
L 199.817778 -170.576633 
L 199.185679 -172.080761 
L 198.559288 -173.584889 
L 197.926702 -175.089017 
L 197.279934 -176.593145 
L 196.616182 -178.097273 
L 195.938729 -179.601401 
L 195.257341 -181.105529 
L 194.588099 -182.609657 
L 193.952657 -184.113785 
L 193.376963 -185.617913 
L 192.889562 -187.122041 
L 192.519596 -188.626169 
L 192.294699 -190.130297 
L 192.238938 -191.634425 
L 192.370986 -193.138553 
L 192.702683 -194.642681 
L 193.238079 -196.146809 
L 193.973058 -197.650937 
L 194.895544 -199.155065 
L 195.986292 -200.659193 
L 197.220164 -202.163321 
L 198.567792 -203.667449 
L 199.997474 -205.171577 
L 201.477149 -206.675705 
L 202.976272 -208.179833 
L 204.467444 -209.683961 
L 205.927682 -211.188089 
L 207.339239 -212.692217 
L 208.689953 -214.196345 
L 209.973144 -215.700473 
L 211.187119 -217.204601 
L 212.334381 -218.708729 
L 213.420666 -220.212857 
L 214.453911 -221.716986 
L 215.443273 -223.221114 
L 216.398263 -224.725242 
L 217.328069 -226.22937 
L 218.241068 -227.733498 
L 219.14453 -229.237626 
L 220.044481 -230.741754 
L 220.945684 -232.245882 
L 221.851689 -233.75001 
L 222.764905 -235.254138 
L 223.686679 -236.758266 
L 224.617341 -238.262394 
L 225.556227 -239.766522 
L 226.501684 -241.27065 
L 227.451076 -242.774778 
L 228.40081 -244.278906 
L 229.346405 -245.783034 
L 230.282617 -247.287162 
L 231.203628 -248.79129 
L 232.103292 -250.295418 
L 232.97542 -251.799546 
L 233.814087 -253.303674 
L 234.613924 -254.807802 
L 235.370375 -256.31193 
L 236.079882 -257.816058 
L 236.740001 -259.320186 
L 237.349425 -260.824314 
L 237.907921 -262.328442 
L 245.713954 -262.328442 
L 245.713954 -262.328442 
L 246.27245 -260.824314 
L 246.881874 -259.320186 
L 247.541993 -257.816058 
L 248.2515 -256.31193 
L 249.007951 -254.807802 
L 249.807788 -253.303674 
L 250.646455 -251.799546 
L 251.518583 -250.295418 
L 252.418247 -248.79129 
L 253.339258 -247.287162 
L 254.27547 -245.783034 
L 255.221065 -244.278906 
L 256.170799 -242.774778 
L 257.120191 -241.27065 
L 258.065648 -239.766522 
L 259.004534 -238.262394 
L 259.935196 -236.758266 
L 260.85697 -235.254138 
L 261.770186 -233.75001 
L 262.676191 -232.245882 
L 263.577394 -230.741754 
L 264.477345 -229.237626 
L 265.380807 -227.733498 
L 266.293806 -226.22937 
L 267.223612 -224.725242 
L 268.178602 -223.221114 
L 269.167964 -221.716986 
L 270.201209 -220.212857 
L 271.287494 -218.708729 
L 272.434756 -217.204601 
L 273.648731 -215.700473 
L 274.931922 -214.196345 
L 276.282636 -212.692217 
L 277.694193 -211.188089 
L 279.154431 -209.683961 
L 280.645603 -208.179833 
L 282.144726 -206.675705 
L 283.624401 -205.171577 
L 285.054083 -203.667449 
L 286.401711 -202.163321 
L 287.635583 -200.659193 
L 288.726331 -199.155065 
L 289.648817 -197.650937 
L 290.383796 -196.146809 
L 290.919192 -194.642681 
L 291.250889 -193.138553 
L 291.382938 -191.634425 
L 291.327176 -190.130297 
L 291.102279 -188.626169 
L 290.732313 -187.122041 
L 290.244912 -185.617913 
L 289.669218 -184.113785 
L 289.033776 -182.609657 
L 288.364534 -181.105529 
L 287.683146 -179.601401 
L 287.005693 -178.097273 
L 286.341941 -176.593145 
L 285.695173 -175.089017 
L 285.062587 -173.584889 
L 284.436196 -172.080761 
L 283.804097 -170.576633 
L 283.151978 -169.072505 
L 282.464682 -167.568377 
L 281.727674 -166.064249 
L 280.928279 -164.560121 
L 280.056596 -163.055993 
L 279.106042 -161.551865 
L 278.073536 -160.047737 
L 276.959349 -158.543609 
L 275.766726 -157.039481 
L 274.50133 -155.535353 
L 273.170643 -154.031225 
L 271.783365 -152.527097 
L 270.348909 -151.022969 
L 268.877008 -149.518841 
L 267.377472 -148.014713 
L 265.860074 -146.510584 
L 264.334558 -145.006456 
L 262.810721 -143.502328 
L 261.298539 -141.9982 
L 259.808273 -140.494072 
L 258.350517 -138.989944 
L 256.936144 -137.485816 
L 255.576131 -135.981688 
L 254.281237 -134.47756 
L 253.061565 -132.973432 
L 251.926031 -131.469304 
L 250.881801 -129.965176 
L 249.933764 -128.461048 
L 249.084096 -126.95692 
L 248.332017 -125.452792 
L 247.673743 -123.948664 
L 247.102692 -122.444536 
L 246.609924 -120.940408 
L 246.184769 -119.43628 
L 245.815592 -117.932152 
L 245.490615 -116.428024 
L 245.198701 -114.923896 
L 244.930036 -113.419768 
z
" style="stroke: #000000; stroke-opacity: 0.7"/>
    </defs>
    <g clip-path="url(#p2dfdb4f94a)">
     <use xlink:href="#mea48218bd2" x="0" y="319.934957" style="fill: #66c2a5; fill-opacity: 0.7; stroke: #000000; stroke-opacity: 0.7"/>
    </g>
   </g>
   <g id="PolyCollection_3">
    <defs>
     <path id="m439aecd292" d="M 368.926549 -77.098344 
L 362.555326 -77.098344 
L 362.244206 -79.142679 
L 361.912236 -81.187013 
L 361.555923 -83.231348 
L 361.171781 -85.275682 
L 360.756736 -87.320016 
L 360.30855 -89.364351 
L 359.826182 -91.408685 
L 359.310073 -93.453019 
L 358.762273 -95.497354 
L 358.18642 -97.541688 
L 357.587534 -99.586023 
L 356.971664 -101.630357 
L 356.3454 -103.674691 
L 355.715323 -105.719026 
L 355.087434 -107.76336 
L 354.466633 -109.807695 
L 353.856294 -111.852029 
L 353.257986 -113.896363 
L 352.671341 -115.940698 
L 352.094088 -117.985032 
L 351.522211 -120.029366 
L 350.950215 -122.073701 
L 350.371441 -124.118035 
L 349.778395 -126.16237 
L 349.16305 -128.206704 
L 348.517098 -130.251038 
L 347.832154 -132.295373 
L 347.09991 -134.339707 
L 346.312279 -136.384042 
L 345.461538 -138.428376 
L 344.540528 -140.47271 
L 343.542916 -142.517045 
L 342.463538 -144.561379 
L 341.298812 -146.605713 
L 340.047202 -148.650048 
L 338.709679 -150.694382 
L 337.290142 -152.738717 
L 335.795734 -154.783051 
L 334.236999 -156.827385 
L 332.62786 -158.87172 
L 330.98538 -160.916054 
L 329.329325 -162.960388 
L 327.681548 -165.004723 
L 326.06524 -167.049057 
L 324.504114 -169.093392 
L 323.02157 -171.137726 
L 321.639935 -173.18206 
L 320.379795 -175.226395 
L 319.259497 -177.270729 
L 318.294813 -179.315064 
L 317.498781 -181.359398 
L 316.881703 -183.403732 
L 316.451256 -185.448067 
L 316.212672 -187.492401 
L 316.168938 -189.536735 
L 316.320954 -191.58107 
L 316.667617 -193.625404 
L 317.205801 -195.669739 
L 317.930226 -197.714073 
L 318.833241 -199.758407 
L 319.90456 -201.802742 
L 321.130993 -203.847076 
L 322.496269 -205.891411 
L 323.980978 -207.935745 
L 325.562727 -209.980079 
L 327.216516 -212.024414 
L 328.915365 -214.068748 
L 330.631167 -216.113082 
L 332.335715 -218.157417 
L 334.001847 -220.201751 
L 335.604603 -222.246086 
L 337.122326 -224.29042 
L 338.537597 -226.334754 
L 339.837947 -228.379089 
L 341.016282 -230.423423 
L 342.070994 -232.467757 
L 343.005767 -234.512092 
L 343.829084 -236.556426 
L 344.553496 -238.600761 
L 345.194698 -240.645095 
L 345.770503 -242.689429 
L 346.299769 -244.733764 
L 346.801363 -246.778098 
L 347.293222 -248.822433 
L 347.791555 -250.866767 
L 348.310226 -252.911101 
L 348.860332 -254.955436 
L 349.449969 -256.99977 
L 350.084172 -259.044104 
L 350.765012 -261.088439 
L 351.491802 -263.132773 
L 352.261385 -265.177108 
L 353.068486 -267.221442 
L 353.906081 -269.265776 
L 354.765784 -271.310111 
L 355.638238 -273.354445 
L 356.51349 -275.39878 
L 357.381371 -277.443114 
L 358.231855 -279.487448 
L 373.25002 -279.487448 
L 373.25002 -279.487448 
L 374.100504 -277.443114 
L 374.968385 -275.39878 
L 375.843637 -273.354445 
L 376.716091 -271.310111 
L 377.575794 -269.265776 
L 378.413389 -267.221442 
L 379.22049 -265.177108 
L 379.990073 -263.132773 
L 380.716863 -261.088439 
L 381.397703 -259.044104 
L 382.031906 -256.99977 
L 382.621543 -254.955436 
L 383.171649 -252.911101 
L 383.69032 -250.866767 
L 384.188653 -248.822433 
L 384.680512 -246.778098 
L 385.182106 -244.733764 
L 385.711372 -242.689429 
L 386.287177 -240.645095 
L 386.928379 -238.600761 
L 387.652791 -236.556426 
L 388.476108 -234.512092 
L 389.410881 -232.467757 
L 390.465593 -230.423423 
L 391.643928 -228.379089 
L 392.944278 -226.334754 
L 394.359549 -224.29042 
L 395.877272 -222.246086 
L 397.480028 -220.201751 
L 399.14616 -218.157417 
L 400.850708 -216.113082 
L 402.56651 -214.068748 
L 404.265359 -212.024414 
L 405.919148 -209.980079 
L 407.500897 -207.935745 
L 408.985606 -205.891411 
L 410.350882 -203.847076 
L 411.577315 -201.802742 
L 412.648634 -199.758407 
L 413.551649 -197.714073 
L 414.276074 -195.669739 
L 414.814258 -193.625404 
L 415.160921 -191.58107 
L 415.312938 -189.536735 
L 415.269203 -187.492401 
L 415.030619 -185.448067 
L 414.600172 -183.403732 
L 413.983094 -181.359398 
L 413.187062 -179.315064 
L 412.222378 -177.270729 
L 411.10208 -175.226395 
L 409.84194 -173.18206 
L 408.460305 -171.137726 
L 406.977761 -169.093392 
L 405.416635 -167.049057 
L 403.800327 -165.004723 
L 402.15255 -162.960388 
L 400.496495 -160.916054 
L 398.854015 -158.87172 
L 397.244876 -156.827385 
L 395.686141 -154.783051 
L 394.191733 -152.738717 
L 392.772196 -150.694382 
L 391.434673 -148.650048 
L 390.183063 -146.605713 
L 389.018337 -144.561379 
L 387.938959 -142.517045 
L 386.941347 -140.47271 
L 386.020337 -138.428376 
L 385.169596 -136.384042 
L 384.381965 -134.339707 
L 383.649721 -132.295373 
L 382.964777 -130.251038 
L 382.318825 -128.206704 
L 381.70348 -126.16237 
L 381.110434 -124.118035 
L 380.53166 -122.073701 
L 379.959664 -120.029366 
L 379.387787 -117.985032 
L 378.810534 -115.940698 
L 378.223889 -113.896363 
L 377.625581 -111.852029 
L 377.015242 -109.807695 
L 376.394441 -107.76336 
L 375.766552 -105.719026 
L 375.136475 -103.674691 
L 374.510211 -101.630357 
L 373.894341 -99.586023 
L 373.295455 -97.541688 
L 372.719602 -95.497354 
L 372.171802 -93.453019 
L 371.655693 -91.408685 
L 371.173325 -89.364351 
L 370.725139 -87.320016 
L 370.310094 -85.275682 
L 369.925952 -83.231348 
L 369.569639 -81.187013 
L 369.237669 -79.142679 
L 368.926549 -77.098344 
z
" style="stroke: #000000; stroke-opacity: 0.7"/>
    </defs>
    <g clip-path="url(#p2dfdb4f94a)">
     <use xlink:href="#m439aecd292" x="0" y="319.934957" style="fill: #ffd92f; fill-opacity: 0.7; stroke: #000000; stroke-opacity: 0.7"/>
    </g>
   </g>
   <g id="matplotlib.axis_1">
    <g id="xtick_1">
     <g id="line2d_1">
      <defs>
       <path id="m78178fbd41" d="M 0 0 
L 0 3.5 
" style="stroke: #000000; stroke-width: 0.8"/>
      </defs>
      <g>
       <use xlink:href="#m78178fbd41" x="117.880938" y="258.900181" style="stroke: #000000; stroke-width: 0.8"/>
      </g>
     </g>
     <g id="text_1">
      <!-- Pinehaven -->
      <g transform="translate(80.719383 307.138648) rotate(-45) scale(0.12 -0.12)">
       <defs>
        <path id="TimesNewRomanPSMT-50" d="M 1313 1984 
L 1313 750 
Q 1313 350 1400 253 
Q 1519 116 1759 116 
L 1922 116 
L 1922 0 
L 106 0 
L 106 116 
L 266 116 
Q 534 116 650 291 
Q 713 388 713 750 
L 713 3488 
Q 713 3888 628 3984 
Q 506 4122 266 4122 
L 106 4122 
L 106 4238 
L 1659 4238 
Q 2228 4238 2556 4120 
Q 2884 4003 3109 3725 
Q 3334 3447 3334 3066 
Q 3334 2547 2992 2222 
Q 2650 1897 2025 1897 
Q 1872 1897 1694 1919 
Q 1516 1941 1313 1984 
z
M 1313 2163 
Q 1478 2131 1606 2115 
Q 1734 2100 1825 2100 
Q 2150 2100 2386 2351 
Q 2622 2603 2622 3003 
Q 2622 3278 2509 3514 
Q 2397 3750 2190 3867 
Q 1984 3984 1722 3984 
Q 1563 3984 1313 3925 
L 1313 2163 
z
" transform="scale(0.015625)"/>
        <path id="TimesNewRomanPSMT-69" d="M 928 4444 
Q 1059 4444 1151 4351 
Q 1244 4259 1244 4128 
Q 1244 3997 1151 3903 
Q 1059 3809 928 3809 
Q 797 3809 703 3903 
Q 609 3997 609 4128 
Q 609 4259 701 4351 
Q 794 4444 928 4444 
z
M 1188 2947 
L 1188 647 
Q 1188 378 1227 289 
Q 1266 200 1342 156 
Q 1419 113 1622 113 
L 1622 0 
L 231 0 
L 231 113 
Q 441 113 512 153 
Q 584 194 626 287 
Q 669 381 669 647 
L 669 1750 
Q 669 2216 641 2353 
Q 619 2453 572 2492 
Q 525 2531 444 2531 
Q 356 2531 231 2484 
L 188 2597 
L 1050 2947 
L 1188 2947 
z
" transform="scale(0.015625)"/>
        <path id="TimesNewRomanPSMT-6e" d="M 1034 2341 
Q 1538 2947 1994 2947 
Q 2228 2947 2397 2830 
Q 2566 2713 2666 2444 
Q 2734 2256 2734 1869 
L 2734 647 
Q 2734 375 2778 278 
Q 2813 200 2889 156 
Q 2966 113 3172 113 
L 3172 0 
L 1756 0 
L 1756 113 
L 1816 113 
Q 2016 113 2095 173 
Q 2175 234 2206 353 
Q 2219 400 2219 647 
L 2219 1819 
Q 2219 2209 2117 2386 
Q 2016 2563 1775 2563 
Q 1403 2563 1034 2156 
L 1034 647 
Q 1034 356 1069 288 
Q 1113 197 1189 155 
Q 1266 113 1500 113 
L 1500 0 
L 84 0 
L 84 113 
L 147 113 
Q 366 113 442 223 
Q 519 334 519 647 
L 519 1709 
Q 519 2225 495 2337 
Q 472 2450 423 2490 
Q 375 2531 294 2531 
Q 206 2531 84 2484 
L 38 2597 
L 900 2947 
L 1034 2947 
L 1034 2341 
z
" transform="scale(0.015625)"/>
        <path id="TimesNewRomanPSMT-65" d="M 681 1784 
Q 678 1147 991 784 
Q 1303 422 1725 422 
Q 2006 422 2214 576 
Q 2422 731 2563 1106 
L 2659 1044 
Q 2594 616 2278 264 
Q 1963 -88 1488 -88 
Q 972 -88 605 314 
Q 238 716 238 1394 
Q 238 2128 614 2539 
Q 991 2950 1559 2950 
Q 2041 2950 2350 2633 
Q 2659 2316 2659 1784 
L 681 1784 
z
M 681 1966 
L 2006 1966 
Q 1991 2241 1941 2353 
Q 1863 2528 1708 2628 
Q 1553 2728 1384 2728 
Q 1125 2728 920 2526 
Q 716 2325 681 1966 
z
" transform="scale(0.015625)"/>
        <path id="TimesNewRomanPSMT-68" d="M 1041 4444 
L 1041 2350 
Q 1388 2731 1591 2839 
Q 1794 2947 1997 2947 
Q 2241 2947 2416 2812 
Q 2591 2678 2675 2391 
Q 2734 2191 2734 1659 
L 2734 647 
Q 2734 375 2778 275 
Q 2809 200 2884 156 
Q 2959 113 3159 113 
L 3159 0 
L 1753 0 
L 1753 113 
L 1819 113 
Q 2019 113 2097 173 
Q 2175 234 2206 353 
Q 2216 403 2216 647 
L 2216 1659 
Q 2216 2128 2167 2275 
Q 2119 2422 2012 2495 
Q 1906 2569 1756 2569 
Q 1603 2569 1437 2487 
Q 1272 2406 1041 2159 
L 1041 647 
Q 1041 353 1073 281 
Q 1106 209 1195 161 
Q 1284 113 1503 113 
L 1503 0 
L 84 0 
L 84 113 
Q 275 113 384 172 
Q 447 203 484 290 
Q 522 378 522 647 
L 522 3238 
Q 522 3728 498 3840 
Q 475 3953 426 3993 
Q 378 4034 297 4034 
Q 231 4034 84 3984 
L 41 4094 
L 897 4444 
L 1041 4444 
z
" transform="scale(0.015625)"/>
        <path id="TimesNewRomanPSMT-61" d="M 1822 413 
Q 1381 72 1269 19 
Q 1100 -59 909 -59 
Q 613 -59 420 144 
Q 228 347 228 678 
Q 228 888 322 1041 
Q 450 1253 767 1440 
Q 1084 1628 1822 1897 
L 1822 2009 
Q 1822 2438 1686 2597 
Q 1550 2756 1291 2756 
Q 1094 2756 978 2650 
Q 859 2544 859 2406 
L 866 2225 
Q 866 2081 792 2003 
Q 719 1925 600 1925 
Q 484 1925 411 2006 
Q 338 2088 338 2228 
Q 338 2497 613 2722 
Q 888 2947 1384 2947 
Q 1766 2947 2009 2819 
Q 2194 2722 2281 2516 
Q 2338 2381 2338 1966 
L 2338 994 
Q 2338 584 2353 492 
Q 2369 400 2405 369 
Q 2441 338 2488 338 
Q 2538 338 2575 359 
Q 2641 400 2828 588 
L 2828 413 
Q 2478 -56 2159 -56 
Q 2006 -56 1915 50 
Q 1825 156 1822 413 
z
M 1822 616 
L 1822 1706 
Q 1350 1519 1213 1441 
Q 966 1303 859 1153 
Q 753 1003 753 825 
Q 753 600 887 451 
Q 1022 303 1197 303 
Q 1434 303 1822 616 
z
" transform="scale(0.015625)"/>
        <path id="TimesNewRomanPSMT-76" d="M 53 2863 
L 1400 2863 
L 1400 2747 
L 1313 2747 
Q 1191 2747 1127 2687 
Q 1063 2628 1063 2528 
Q 1063 2419 1128 2269 
L 1794 688 
L 2463 2328 
Q 2534 2503 2534 2594 
Q 2534 2638 2509 2666 
Q 2475 2713 2422 2730 
Q 2369 2747 2206 2747 
L 2206 2863 
L 3141 2863 
L 3141 2747 
Q 2978 2734 2916 2681 
Q 2806 2588 2719 2369 
L 1703 -88 
L 1575 -88 
L 553 2328 
Q 484 2497 421 2570 
Q 359 2644 263 2694 
Q 209 2722 53 2747 
L 53 2863 
z
" transform="scale(0.015625)"/>
       </defs>
       <use xlink:href="#TimesNewRomanPSMT-50"/>
       <use xlink:href="#TimesNewRomanPSMT-69" x="55.615234"/>
       <use xlink:href="#TimesNewRomanPSMT-6e" x="83.398438"/>
       <use xlink:href="#TimesNewRomanPSMT-65" x="133.398438"/>
       <use xlink:href="#TimesNewRomanPSMT-68" x="177.783203"/>
       <use xlink:href="#TimesNewRomanPSMT-61" x="227.783203"/>
       <use xlink:href="#TimesNewRomanPSMT-76" x="272.167969"/>
       <use xlink:href="#TimesNewRomanPSMT-65" x="322.167969"/>
       <use xlink:href="#TimesNewRomanPSMT-6e" x="366.552734"/>
      </g>
     </g>
    </g>
    <g id="xtick_2">
     <g id="line2d_2">
      <g>
       <use xlink:href="#m78178fbd41" x="241.810938" y="258.900181" style="stroke: #000000; stroke-width: 0.8"/>
      </g>
     </g>
     <g id="text_2">
      <!-- Quarryville -->
      <g transform="translate(200.868129 310.903992) rotate(-45) scale(0.12 -0.12)">
       <defs>
        <path id="TimesNewRomanPSMT-51" d="M 2819 -47 
Q 3138 -597 3508 -856 
Q 3878 -1116 4350 -1153 
L 4350 -1253 
Q 3919 -1238 3428 -1080 
Q 2938 -922 2498 -642 
Q 2059 -363 1741 -47 
Q 1291 134 1028 338 
Q 647 641 436 1083 
Q 225 1525 225 2128 
Q 225 3078 840 3706 
Q 1456 4334 2331 4334 
Q 3163 4334 3770 3704 
Q 4378 3075 4378 2116 
Q 4378 1338 3945 750 
Q 3513 163 2819 -47 
z
M 2294 4094 
Q 1725 4094 1378 3688 
Q 941 3178 941 2128 
Q 941 1100 1384 544 
Q 1728 116 2294 116 
Q 2881 116 3241 544 
Q 3663 1050 3663 2038 
Q 3663 2797 3431 3316 
Q 3253 3716 2958 3905 
Q 2663 4094 2294 4094 
z
" transform="scale(0.015625)"/>
        <path id="TimesNewRomanPSMT-75" d="M 2709 2863 
L 2709 1128 
Q 2709 631 2732 520 
Q 2756 409 2807 365 
Q 2859 322 2928 322 
Q 3025 322 3147 375 
L 3191 266 
L 2334 -88 
L 2194 -88 
L 2194 519 
Q 1825 119 1631 15 
Q 1438 -88 1222 -88 
Q 981 -88 804 51 
Q 628 191 559 409 
Q 491 628 491 1028 
L 491 2306 
Q 491 2509 447 2587 
Q 403 2666 317 2708 
Q 231 2750 6 2747 
L 6 2863 
L 1009 2863 
L 1009 947 
Q 1009 547 1148 422 
Q 1288 297 1484 297 
Q 1619 297 1789 381 
Q 1959 466 2194 703 
L 2194 2325 
Q 2194 2569 2105 2655 
Q 2016 2741 1734 2747 
L 1734 2863 
L 2709 2863 
z
" transform="scale(0.015625)"/>
        <path id="TimesNewRomanPSMT-72" d="M 1038 2947 
L 1038 2303 
Q 1397 2947 1775 2947 
Q 1947 2947 2059 2842 
Q 2172 2738 2172 2600 
Q 2172 2478 2090 2393 
Q 2009 2309 1897 2309 
Q 1788 2309 1652 2417 
Q 1516 2525 1450 2525 
Q 1394 2525 1328 2463 
Q 1188 2334 1038 2041 
L 1038 669 
Q 1038 431 1097 309 
Q 1138 225 1241 169 
Q 1344 113 1538 113 
L 1538 0 
L 72 0 
L 72 113 
Q 291 113 397 181 
Q 475 231 506 341 
Q 522 394 522 644 
L 522 1753 
Q 522 2253 501 2348 
Q 481 2444 426 2487 
Q 372 2531 291 2531 
Q 194 2531 72 2484 
L 41 2597 
L 906 2947 
L 1038 2947 
z
" transform="scale(0.015625)"/>
        <path id="TimesNewRomanPSMT-79" d="M 38 2863 
L 1372 2863 
L 1372 2747 
L 1306 2747 
Q 1166 2747 1095 2686 
Q 1025 2625 1025 2534 
Q 1025 2413 1128 2197 
L 1825 753 
L 2466 2334 
Q 2519 2463 2519 2588 
Q 2519 2644 2497 2672 
Q 2472 2706 2419 2726 
Q 2366 2747 2231 2747 
L 2231 2863 
L 3163 2863 
L 3163 2747 
Q 3047 2734 2984 2696 
Q 2922 2659 2847 2556 
Q 2819 2513 2741 2316 
L 1575 -541 
Q 1406 -956 1132 -1168 
Q 859 -1381 606 -1381 
Q 422 -1381 303 -1275 
Q 184 -1169 184 -1031 
Q 184 -900 270 -820 
Q 356 -741 506 -741 
Q 609 -741 788 -809 
Q 913 -856 944 -856 
Q 1038 -856 1148 -759 
Q 1259 -663 1372 -384 
L 1575 113 
L 547 2272 
Q 500 2369 397 2513 
Q 319 2622 269 2659 
Q 197 2709 38 2747 
L 38 2863 
z
" transform="scale(0.015625)"/>
        <path id="TimesNewRomanPSMT-6c" d="M 1184 4444 
L 1184 647 
Q 1184 378 1223 290 
Q 1263 203 1344 158 
Q 1425 113 1647 113 
L 1647 0 
L 244 0 
L 244 113 
Q 441 113 512 153 
Q 584 194 625 287 
Q 666 381 666 647 
L 666 3247 
Q 666 3731 644 3842 
Q 622 3953 573 3993 
Q 525 4034 450 4034 
Q 369 4034 244 3984 
L 191 4094 
L 1044 4444 
L 1184 4444 
z
" transform="scale(0.015625)"/>
       </defs>
       <use xlink:href="#TimesNewRomanPSMT-51"/>
       <use xlink:href="#TimesNewRomanPSMT-75" x="72.216797"/>
       <use xlink:href="#TimesNewRomanPSMT-61" x="122.216797"/>
       <use xlink:href="#TimesNewRomanPSMT-72" x="166.601562"/>
       <use xlink:href="#TimesNewRomanPSMT-72" x="199.902344"/>
       <use xlink:href="#TimesNewRomanPSMT-79" x="233.203125"/>
       <use xlink:href="#TimesNewRomanPSMT-76" x="283.203125"/>
       <use xlink:href="#TimesNewRomanPSMT-69" x="333.203125"/>
       <use xlink:href="#TimesNewRomanPSMT-6c" x="360.986328"/>
       <use xlink:href="#TimesNewRomanPSMT-6c" x="388.769531"/>
       <use xlink:href="#TimesNewRomanPSMT-65" x="416.552734"/>
      </g>
     </g>
    </g>
    <g id="xtick_3">
     <g id="line2d_3">
      <g>
       <use xlink:href="#m78178fbd41" x="365.740938" y="258.900181" style="stroke: #000000; stroke-width: 0.8"/>
      </g>
     </g>
     <g id="text_3">
      <!-- Creston -->
      <g transform="translate(337.528703 298.189328) rotate(-45) scale(0.12 -0.12)">
       <defs>
        <path id="TimesNewRomanPSMT-43" d="M 3853 4334 
L 3950 2894 
L 3853 2894 
Q 3659 3541 3300 3825 
Q 2941 4109 2438 4109 
Q 2016 4109 1675 3895 
Q 1334 3681 1139 3212 
Q 944 2744 944 2047 
Q 944 1472 1128 1050 
Q 1313 628 1683 403 
Q 2053 178 2528 178 
Q 2941 178 3256 354 
Q 3572 531 3950 1056 
L 4047 994 
Q 3728 428 3303 165 
Q 2878 -97 2294 -97 
Q 1241 -97 663 684 
Q 231 1266 231 2053 
Q 231 2688 515 3219 
Q 800 3750 1298 4042 
Q 1797 4334 2388 4334 
Q 2847 4334 3294 4109 
Q 3425 4041 3481 4041 
Q 3566 4041 3628 4100 
Q 3709 4184 3744 4334 
L 3853 4334 
z
" transform="scale(0.015625)"/>
        <path id="TimesNewRomanPSMT-73" d="M 2050 2947 
L 2050 1972 
L 1947 1972 
Q 1828 2431 1642 2597 
Q 1456 2763 1169 2763 
Q 950 2763 815 2647 
Q 681 2531 681 2391 
Q 681 2216 781 2091 
Q 878 1963 1175 1819 
L 1631 1597 
Q 2266 1288 2266 781 
Q 2266 391 1970 151 
Q 1675 -88 1309 -88 
Q 1047 -88 709 6 
Q 606 38 541 38 
Q 469 38 428 -44 
L 325 -44 
L 325 978 
L 428 978 
Q 516 541 762 319 
Q 1009 97 1316 97 
Q 1531 97 1667 223 
Q 1803 350 1803 528 
Q 1803 744 1651 891 
Q 1500 1038 1047 1263 
Q 594 1488 453 1669 
Q 313 1847 313 2119 
Q 313 2472 555 2709 
Q 797 2947 1181 2947 
Q 1350 2947 1591 2875 
Q 1750 2828 1803 2828 
Q 1853 2828 1881 2850 
Q 1909 2872 1947 2947 
L 2050 2947 
z
" transform="scale(0.015625)"/>
        <path id="TimesNewRomanPSMT-74" d="M 1031 3803 
L 1031 2863 
L 1700 2863 
L 1700 2644 
L 1031 2644 
L 1031 788 
Q 1031 509 1111 412 
Q 1191 316 1316 316 
Q 1419 316 1516 380 
Q 1613 444 1666 569 
L 1788 569 
Q 1678 263 1478 108 
Q 1278 -47 1066 -47 
Q 922 -47 784 33 
Q 647 113 581 261 
Q 516 409 516 719 
L 516 2644 
L 63 2644 
L 63 2747 
Q 234 2816 414 2980 
Q 594 3144 734 3369 
Q 806 3488 934 3803 
L 1031 3803 
z
" transform="scale(0.015625)"/>
        <path id="TimesNewRomanPSMT-6f" d="M 1600 2947 
Q 2250 2947 2644 2453 
Q 2978 2031 2978 1484 
Q 2978 1100 2793 706 
Q 2609 313 2286 112 
Q 1963 -88 1566 -88 
Q 919 -88 538 428 
Q 216 863 216 1403 
Q 216 1797 411 2186 
Q 606 2575 925 2761 
Q 1244 2947 1600 2947 
z
M 1503 2744 
Q 1338 2744 1170 2645 
Q 1003 2547 900 2300 
Q 797 2053 797 1666 
Q 797 1041 1045 587 
Q 1294 134 1700 134 
Q 2003 134 2200 384 
Q 2397 634 2397 1244 
Q 2397 2006 2069 2444 
Q 1847 2744 1503 2744 
z
" transform="scale(0.015625)"/>
       </defs>
       <use xlink:href="#TimesNewRomanPSMT-43"/>
       <use xlink:href="#TimesNewRomanPSMT-72" x="66.699219"/>
       <use xlink:href="#TimesNewRomanPSMT-65" x="100"/>
       <use xlink:href="#TimesNewRomanPSMT-73" x="144.384766"/>
       <use xlink:href="#TimesNewRomanPSMT-74" x="183.300781"/>
       <use xlink:href="#TimesNewRomanPSMT-6f" x="211.083984"/>
       <use xlink:href="#TimesNewRomanPSMT-6e" x="261.083984"/>
      </g>
     </g>
    </g>
   </g>
   <g id="matplotlib.axis_2">
    <g id="ytick_1">
     <g id="line2d_4">
      <defs>
       <path id="m6a5a5ca628" d="M 0 0 
L -3.5 0 
" style="stroke: #000000; stroke-width: 0.8"/>
      </defs>
      <g>
       <use xlink:href="#m6a5a5ca628" x="55.915938" y="255.69658" style="stroke: #000000; stroke-width: 0.8"/>
      </g>
     </g>
     <g id="text_4">
      <!-- 0 -->
      <g transform="translate(43.915938 259.168455) scale(0.1 -0.1)">
       <defs>
        <path id="TimesNewRomanPSMT-30" d="M 231 2094 
Q 231 2819 450 3342 
Q 669 3866 1031 4122 
Q 1313 4325 1613 4325 
Q 2100 4325 2488 3828 
Q 2972 3213 2972 2159 
Q 2972 1422 2759 906 
Q 2547 391 2217 158 
Q 1888 -75 1581 -75 
Q 975 -75 572 641 
Q 231 1244 231 2094 
z
M 844 2016 
Q 844 1141 1059 588 
Q 1238 122 1591 122 
Q 1759 122 1940 273 
Q 2122 425 2216 781 
Q 2359 1319 2359 2297 
Q 2359 3022 2209 3506 
Q 2097 3866 1919 4016 
Q 1791 4119 1609 4119 
Q 1397 4119 1231 3928 
Q 1006 3669 925 3112 
Q 844 2556 844 2016 
z
" transform="scale(0.015625)"/>
       </defs>
       <use xlink:href="#TimesNewRomanPSMT-30"/>
      </g>
     </g>
    </g>
    <g id="ytick_2">
     <g id="line2d_5">
      <g>
       <use xlink:href="#m6a5a5ca628" x="55.915938" y="206.168492" style="stroke: #000000; stroke-width: 0.8"/>
      </g>
     </g>
     <g id="text_5">
      <!-- 20000 -->
      <g transform="translate(23.915938 209.640367) scale(0.1 -0.1)">
       <defs>
        <path id="TimesNewRomanPSMT-32" d="M 2934 816 
L 2638 0 
L 138 0 
L 138 116 
Q 1241 1122 1691 1759 
Q 2141 2397 2141 2925 
Q 2141 3328 1894 3587 
Q 1647 3847 1303 3847 
Q 991 3847 742 3664 
Q 494 3481 375 3128 
L 259 3128 
Q 338 3706 661 4015 
Q 984 4325 1469 4325 
Q 1984 4325 2329 3994 
Q 2675 3663 2675 3213 
Q 2675 2891 2525 2569 
Q 2294 2063 1775 1497 
Q 997 647 803 472 
L 1909 472 
Q 2247 472 2383 497 
Q 2519 522 2628 598 
Q 2738 675 2819 816 
L 2934 816 
z
" transform="scale(0.015625)"/>
       </defs>
       <use xlink:href="#TimesNewRomanPSMT-32"/>
       <use xlink:href="#TimesNewRomanPSMT-30" x="50"/>
       <use xlink:href="#TimesNewRomanPSMT-30" x="100"/>
       <use xlink:href="#TimesNewRomanPSMT-30" x="150"/>
       <use xlink:href="#TimesNewRomanPSMT-30" x="200"/>
      </g>
     </g>
    </g>
    <g id="ytick_3">
     <g id="line2d_6">
      <g>
       <use xlink:href="#m6a5a5ca628" x="55.915938" y="156.640404" style="stroke: #000000; stroke-width: 0.8"/>
      </g>
     </g>
     <g id="text_6">
      <!-- 40000 -->
      <g transform="translate(23.915938 160.112279) scale(0.1 -0.1)">
       <defs>
        <path id="TimesNewRomanPSMT-34" d="M 2978 1563 
L 2978 1119 
L 2409 1119 
L 2409 0 
L 1894 0 
L 1894 1119 
L 100 1119 
L 100 1519 
L 2066 4325 
L 2409 4325 
L 2409 1563 
L 2978 1563 
z
M 1894 1563 
L 1894 3666 
L 406 1563 
L 1894 1563 
z
" transform="scale(0.015625)"/>
       </defs>
       <use xlink:href="#TimesNewRomanPSMT-34"/>
       <use xlink:href="#TimesNewRomanPSMT-30" x="50"/>
       <use xlink:href="#TimesNewRomanPSMT-30" x="100"/>
       <use xlink:href="#TimesNewRomanPSMT-30" x="150"/>
       <use xlink:href="#TimesNewRomanPSMT-30" x="200"/>
      </g>
     </g>
    </g>
    <g id="ytick_4">
     <g id="line2d_7">
      <g>
       <use xlink:href="#m6a5a5ca628" x="55.915938" y="107.112315" style="stroke: #000000; stroke-width: 0.8"/>
      </g>
     </g>
     <g id="text_7">
      <!-- 60000 -->
      <g transform="translate(23.915938 110.58419) scale(0.1 -0.1)">
       <defs>
        <path id="TimesNewRomanPSMT-36" d="M 2869 4325 
L 2869 4209 
Q 2456 4169 2195 4045 
Q 1934 3922 1679 3669 
Q 1425 3416 1258 3105 
Q 1091 2794 978 2366 
Q 1428 2675 1881 2675 
Q 2316 2675 2634 2325 
Q 2953 1975 2953 1425 
Q 2953 894 2631 456 
Q 2244 -75 1606 -75 
Q 1172 -75 869 213 
Q 275 772 275 1663 
Q 275 2231 503 2743 
Q 731 3256 1154 3653 
Q 1578 4050 1965 4187 
Q 2353 4325 2688 4325 
L 2869 4325 
z
M 925 2138 
Q 869 1716 869 1456 
Q 869 1156 980 804 
Q 1091 453 1309 247 
Q 1469 100 1697 100 
Q 1969 100 2183 356 
Q 2397 613 2397 1088 
Q 2397 1622 2184 2012 
Q 1972 2403 1581 2403 
Q 1463 2403 1327 2353 
Q 1191 2303 925 2138 
z
" transform="scale(0.015625)"/>
       </defs>
       <use xlink:href="#TimesNewRomanPSMT-36"/>
       <use xlink:href="#TimesNewRomanPSMT-30" x="50"/>
       <use xlink:href="#TimesNewRomanPSMT-30" x="100"/>
       <use xlink:href="#TimesNewRomanPSMT-30" x="150"/>
       <use xlink:href="#TimesNewRomanPSMT-30" x="200"/>
      </g>
     </g>
    </g>
    <g id="ytick_5">
     <g id="line2d_8">
      <g>
       <use xlink:href="#m6a5a5ca628" x="55.915938" y="57.584227" style="stroke: #000000; stroke-width: 0.8"/>
      </g>
     </g>
     <g id="text_8">
      <!-- 80000 -->
      <g transform="translate(23.915938 61.056102) scale(0.1 -0.1)">
       <defs>
        <path id="TimesNewRomanPSMT-38" d="M 1228 2134 
Q 725 2547 579 2797 
Q 434 3047 434 3316 
Q 434 3728 753 4026 
Q 1072 4325 1600 4325 
Q 2113 4325 2425 4047 
Q 2738 3769 2738 3413 
Q 2738 3175 2569 2928 
Q 2400 2681 1866 2347 
Q 2416 1922 2594 1678 
Q 2831 1359 2831 1006 
Q 2831 559 2490 242 
Q 2150 -75 1597 -75 
Q 994 -75 656 303 
Q 388 606 388 966 
Q 388 1247 577 1523 
Q 766 1800 1228 2134 
z
M 1719 2469 
Q 2094 2806 2194 3001 
Q 2294 3197 2294 3444 
Q 2294 3772 2109 3958 
Q 1925 4144 1606 4144 
Q 1288 4144 1088 3959 
Q 888 3775 888 3528 
Q 888 3366 970 3203 
Q 1053 3041 1206 2894 
L 1719 2469 
z
M 1375 2016 
Q 1116 1797 991 1539 
Q 866 1281 866 981 
Q 866 578 1086 336 
Q 1306 94 1647 94 
Q 1984 94 2187 284 
Q 2391 475 2391 747 
Q 2391 972 2272 1150 
Q 2050 1481 1375 2016 
z
" transform="scale(0.015625)"/>
       </defs>
       <use xlink:href="#TimesNewRomanPSMT-38"/>
       <use xlink:href="#TimesNewRomanPSMT-30" x="50"/>
       <use xlink:href="#TimesNewRomanPSMT-30" x="100"/>
       <use xlink:href="#TimesNewRomanPSMT-30" x="150"/>
       <use xlink:href="#TimesNewRomanPSMT-30" x="200"/>
      </g>
     </g>
    </g>
    <g id="text_9">
     <!-- USD -->
     <g transform="translate(16.92125 158.475872) rotate(-90) scale(0.14 -0.14)">
      <defs>
       <path id="TimesNewRomanPSMT-55" d="M 3053 4122 
L 3053 4238 
L 4553 4238 
L 4553 4122 
L 4394 4122 
Q 4144 4122 4009 3913 
Q 3944 3816 3944 3463 
L 3944 1744 
Q 3944 1106 3817 754 
Q 3691 403 3320 151 
Q 2950 -100 2313 -100 
Q 1619 -100 1259 140 
Q 900 381 750 788 
Q 650 1066 650 1831 
L 650 3488 
Q 650 3878 542 4000 
Q 434 4122 194 4122 
L 34 4122 
L 34 4238 
L 1866 4238 
L 1866 4122 
L 1703 4122 
Q 1441 4122 1328 3956 
Q 1250 3844 1250 3488 
L 1250 1641 
Q 1250 1394 1295 1075 
Q 1341 756 1459 578 
Q 1578 400 1801 284 
Q 2025 169 2350 169 
Q 2766 169 3094 350 
Q 3422 531 3542 814 
Q 3663 1097 3663 1772 
L 3663 3488 
Q 3663 3884 3575 3984 
Q 3453 4122 3213 4122 
L 3053 4122 
z
" transform="scale(0.015625)"/>
       <path id="TimesNewRomanPSMT-53" d="M 2934 4334 
L 2934 2869 
L 2819 2869 
Q 2763 3291 2617 3541 
Q 2472 3791 2203 3937 
Q 1934 4084 1647 4084 
Q 1322 4084 1109 3886 
Q 897 3688 897 3434 
Q 897 3241 1031 3081 
Q 1225 2847 1953 2456 
Q 2547 2138 2764 1967 
Q 2981 1797 3098 1565 
Q 3216 1334 3216 1081 
Q 3216 600 2842 251 
Q 2469 -97 1881 -97 
Q 1697 -97 1534 -69 
Q 1438 -53 1133 45 
Q 828 144 747 144 
Q 669 144 623 97 
Q 578 50 556 -97 
L 441 -97 
L 441 1356 
L 556 1356 
Q 638 900 775 673 
Q 913 447 1195 297 
Q 1478 147 1816 147 
Q 2206 147 2432 353 
Q 2659 559 2659 841 
Q 2659 997 2573 1156 
Q 2488 1316 2306 1453 
Q 2184 1547 1640 1851 
Q 1097 2156 867 2337 
Q 638 2519 519 2737 
Q 400 2956 400 3219 
Q 400 3675 750 4004 
Q 1100 4334 1641 4334 
Q 1978 4334 2356 4169 
Q 2531 4091 2603 4091 
Q 2684 4091 2736 4139 
Q 2788 4188 2819 4334 
L 2934 4334 
z
" transform="scale(0.015625)"/>
       <path id="TimesNewRomanPSMT-44" d="M 109 0 
L 109 116 
L 269 116 
Q 538 116 650 288 
Q 719 391 719 750 
L 719 3488 
Q 719 3884 631 3984 
Q 509 4122 269 4122 
L 109 4122 
L 109 4238 
L 1834 4238 
Q 2784 4238 3279 4022 
Q 3775 3806 4076 3303 
Q 4378 2800 4378 2141 
Q 4378 1256 3841 663 
Q 3238 0 2003 0 
L 109 0 
z
M 1319 306 
Q 1716 219 1984 219 
Q 2709 219 3187 728 
Q 3666 1238 3666 2109 
Q 3666 2988 3187 3494 
Q 2709 4000 1959 4000 
Q 1678 4000 1319 3909 
L 1319 306 
z
" transform="scale(0.015625)"/>
      </defs>
      <use xlink:href="#TimesNewRomanPSMT-55"/>
      <use xlink:href="#TimesNewRomanPSMT-53" x="72.216797"/>
      <use xlink:href="#TimesNewRomanPSMT-44" x="127.832031"/>
     </g>
    </g>
   </g>
   <g id="patch_3">
    <path d="M 110.445138 165.577747 
L 125.316738 165.577747 
L 125.316738 124.672499 
L 110.445138 124.672499 
L 110.445138 165.577747 
L 110.445138 165.577747 
z
" clip-path="url(#p2dfdb4f94a)" style="fill: none; stroke: #000000; stroke-linejoin: miter"/>
   </g>
   <g id="line2d_9">
    <path d="M 117.880938 165.577747 
L 117.880938 208.218955 
" clip-path="url(#p2dfdb4f94a)" style="fill: none; stroke: #000000; stroke-linecap: square"/>
   </g>
   <g id="line2d_10">
    <path d="M 117.880938 124.672499 
L 117.880938 76.320703 
" clip-path="url(#p2dfdb4f94a)" style="fill: none; stroke: #000000; stroke-linecap: square"/>
   </g>
   <g id="line2d_11">
    <path d="M 114.163038 208.218955 
L 121.598838 208.218955 
" clip-path="url(#p2dfdb4f94a)" style="fill: none; stroke: #000000; stroke-linecap: square"/>
   </g>
   <g id="line2d_12">
    <path d="M 114.163038 76.320703 
L 121.598838 76.320703 
" clip-path="url(#p2dfdb4f94a)" style="fill: none; stroke: #000000; stroke-linecap: square"/>
   </g>
   <g id="patch_4">
    <path d="M 234.375138 154.084754 
L 249.246738 154.084754 
L 249.246738 111.535173 
L 234.375138 111.535173 
L 234.375138 154.084754 
L 234.375138 154.084754 
z
" clip-path="url(#p2dfdb4f94a)" style="fill: none; stroke: #000000; stroke-linejoin: miter"/>
   </g>
   <g id="line2d_13">
    <path d="M 241.810938 154.084754 
L 241.810938 206.515188 
" clip-path="url(#p2dfdb4f94a)" style="fill: none; stroke: #000000; stroke-linecap: square"/>
   </g>
   <g id="line2d_14">
    <path d="M 241.810938 111.535173 
L 241.810938 57.606514 
" clip-path="url(#p2dfdb4f94a)" style="fill: none; stroke: #000000; stroke-linecap: square"/>
   </g>
   <g id="line2d_15">
    <path d="M 238.093038 206.515188 
L 245.528838 206.515188 
" clip-path="url(#p2dfdb4f94a)" style="fill: none; stroke: #000000; stroke-linecap: square"/>
   </g>
   <g id="line2d_16">
    <path d="M 238.093038 57.606514 
L 245.528838 57.606514 
" clip-path="url(#p2dfdb4f94a)" style="fill: none; stroke: #000000; stroke-linecap: square"/>
   </g>
   <g id="patch_5">
    <path d="M 358.305138 155.786044 
L 373.176738 155.786044 
L 373.176738 108.313371 
L 358.305138 108.313371 
L 358.305138 155.786044 
L 358.305138 155.786044 
z
" clip-path="url(#p2dfdb4f94a)" style="fill: none; stroke: #000000; stroke-linejoin: miter"/>
   </g>
   <g id="line2d_17">
    <path d="M 365.740938 155.786044 
L 365.740938 216.544626 
" clip-path="url(#p2dfdb4f94a)" style="fill: none; stroke: #000000; stroke-linecap: square"/>
   </g>
   <g id="line2d_18">
    <path d="M 365.740938 108.313371 
L 365.740938 40.447508 
" clip-path="url(#p2dfdb4f94a)" style="fill: none; stroke: #000000; stroke-linecap: square"/>
   </g>
   <g id="line2d_19">
    <path d="M 362.023038 216.544626 
L 369.458838 216.544626 
" clip-path="url(#p2dfdb4f94a)" style="fill: none; stroke: #000000; stroke-linecap: square"/>
   </g>
   <g id="line2d_20">
    <path d="M 362.023038 40.447508 
L 369.458838 40.447508 
" clip-path="url(#p2dfdb4f94a)" style="fill: none; stroke: #000000; stroke-linecap: square"/>
   </g>
   <g id="line2d_21">
    <path d="M 110.445138 144.491163 
L 125.316738 144.491163 
" clip-path="url(#p2dfdb4f94a)" style="fill: none; stroke: #000000; stroke-width: 1.5; stroke-linecap: square"/>
   </g>
   <g id="line2d_22">
    <path d="M 234.375138 130.709973 
L 249.246738 130.709973 
" clip-path="url(#p2dfdb4f94a)" style="fill: none; stroke: #000000; stroke-width: 1.5; stroke-linecap: square"/>
   </g>
   <g id="line2d_23">
    <path d="M 358.305138 130.932849 
L 373.176738 130.932849 
" clip-path="url(#p2dfdb4f94a)" style="fill: none; stroke: #000000; stroke-width: 1.5; stroke-linecap: square"/>
   </g>
   <g id="patch_6">
    <path d="M 55.915938 258.900181 
L 55.915938 30.045 
" style="fill: none; stroke: #000000; stroke-linejoin: miter; stroke-linecap: square"/>
   </g>
   <g id="patch_7">
    <path d="M 427.705938 258.900181 
L 427.705938 30.045 
" style="fill: none; stroke: #000000; stroke-linejoin: miter; stroke-linecap: square"/>
   </g>
   <g id="patch_8">
    <path d="M 55.915938 258.900181 
L 427.705938 258.900181 
" style="fill: none; stroke: #000000; stroke-linejoin: miter; stroke-linecap: square"/>
   </g>
   <g id="patch_9">
    <path d="M 55.915938 30.045 
L 427.705938 30.045 
" style="fill: none; stroke: #000000; stroke-linejoin: miter; stroke-linecap: square"/>
   </g>
   <g id="text_10">
    <!-- Salary of Employees in Different Cities (USD) -->
    <g transform="translate(85.529688 18.045) scale(0.16 -0.16)">
     <defs>
      <path id="TimesNewRomanPS-BoldMT-53" d="M 3006 4334 
L 3041 2922 
L 2913 2922 
Q 2822 3453 2467 3776 
Q 2113 4100 1700 4100 
Q 1381 4100 1195 3929 
Q 1009 3759 1009 3538 
Q 1009 3397 1075 3288 
Q 1166 3141 1366 2997 
Q 1513 2894 2044 2631 
Q 2788 2266 3047 1941 
Q 3303 1616 3303 1197 
Q 3303 666 2889 283 
Q 2475 -100 1838 -100 
Q 1638 -100 1459 -59 
Q 1281 -19 1013 94 
Q 863 156 766 156 
Q 684 156 593 93 
Q 503 31 447 -97 
L 331 -97 
L 331 1503 
L 447 1503 
Q 584 828 976 473 
Q 1369 119 1822 119 
Q 2172 119 2380 309 
Q 2588 500 2588 753 
Q 2588 903 2508 1043 
Q 2428 1184 2265 1311 
Q 2103 1438 1691 1641 
Q 1113 1925 859 2125 
Q 606 2325 470 2572 
Q 334 2819 334 3116 
Q 334 3622 706 3978 
Q 1078 4334 1644 4334 
Q 1850 4334 2044 4284 
Q 2191 4247 2402 4145 
Q 2613 4044 2697 4044 
Q 2778 4044 2825 4094 
Q 2872 4144 2913 4334 
L 3006 4334 
z
" transform="scale(0.015625)"/>
      <path id="TimesNewRomanPS-BoldMT-61" d="M 1828 431 
Q 1294 -41 869 -41 
Q 619 -41 453 123 
Q 288 288 288 534 
Q 288 869 575 1136 
Q 863 1403 1828 1847 
L 1828 2141 
Q 1828 2472 1792 2558 
Q 1756 2644 1656 2708 
Q 1556 2772 1431 2772 
Q 1228 2772 1097 2681 
Q 1016 2625 1016 2550 
Q 1016 2484 1103 2388 
Q 1222 2253 1222 2128 
Q 1222 1975 1108 1867 
Q 994 1759 809 1759 
Q 613 1759 480 1878 
Q 347 1997 347 2156 
Q 347 2381 525 2586 
Q 703 2791 1022 2900 
Q 1341 3009 1684 3009 
Q 2100 3009 2342 2832 
Q 2584 2656 2656 2450 
Q 2700 2319 2700 1847 
L 2700 713 
Q 2700 513 2715 461 
Q 2731 409 2762 384 
Q 2794 359 2834 359 
Q 2916 359 3000 475 
L 3094 400 
Q 2938 169 2770 64 
Q 2603 -41 2391 -41 
Q 2141 -41 2000 76 
Q 1859 194 1828 431 
z
M 1828 659 
L 1828 1638 
Q 1450 1416 1266 1163 
Q 1144 994 1144 822 
Q 1144 678 1247 569 
Q 1325 484 1466 484 
Q 1622 484 1828 659 
z
" transform="scale(0.015625)"/>
      <path id="TimesNewRomanPS-BoldMT-6c" d="M 1359 4238 
L 1359 606 
Q 1359 297 1431 211 
Q 1503 125 1713 113 
L 1713 0 
L 134 0 
L 134 113 
Q 328 119 422 225 
Q 484 297 484 606 
L 484 3631 
Q 484 3938 412 4023 
Q 341 4109 134 4122 
L 134 4238 
L 1359 4238 
z
" transform="scale(0.015625)"/>
      <path id="TimesNewRomanPS-BoldMT-72" d="M 1428 2922 
L 1428 2259 
Q 1719 2713 1937 2861 
Q 2156 3009 2359 3009 
Q 2534 3009 2639 2901 
Q 2744 2794 2744 2597 
Q 2744 2388 2642 2272 
Q 2541 2156 2397 2156 
Q 2231 2156 2109 2262 
Q 1988 2369 1966 2381 
Q 1934 2400 1894 2400 
Q 1803 2400 1722 2331 
Q 1594 2225 1528 2028 
Q 1428 1725 1428 1359 
L 1428 688 
L 1431 513 
Q 1431 334 1453 284 
Q 1491 200 1564 161 
Q 1638 122 1813 113 
L 1813 0 
L 234 0 
L 234 113 
Q 425 128 492 217 
Q 559 306 559 688 
L 559 2303 
Q 559 2553 534 2622 
Q 503 2709 443 2750 
Q 384 2791 234 2806 
L 234 2922 
L 1428 2922 
z
" transform="scale(0.015625)"/>
      <path id="TimesNewRomanPS-BoldMT-79" d="M 1556 -119 
L 613 2047 
Q 400 2538 298 2650 
Q 197 2763 53 2806 
L 53 2922 
L 1606 2922 
L 1606 2806 
Q 1453 2800 1390 2747 
Q 1328 2694 1328 2619 
Q 1328 2500 1484 2150 
L 1984 1006 
L 2325 1891 
Q 2509 2363 2509 2547 
Q 2509 2663 2432 2731 
Q 2356 2800 2163 2806 
L 2163 2922 
L 3141 2922 
L 3141 2806 
Q 2997 2791 2906 2695 
Q 2816 2600 2603 2047 
L 1769 -119 
Q 1453 -931 1300 -1119 
Q 1084 -1381 759 -1381 
Q 500 -1381 339 -1232 
Q 178 -1084 178 -875 
Q 178 -694 289 -575 
Q 400 -456 563 -456 
Q 719 -456 814 -556 
Q 909 -656 913 -866 
Q 916 -984 941 -1019 
Q 966 -1053 1013 -1053 
Q 1088 -1053 1172 -963 
Q 1297 -831 1466 -363 
L 1556 -119 
z
" transform="scale(0.015625)"/>
      <path id="TimesNewRomanPS-BoldMT-20" transform="scale(0.015625)"/>
      <path id="TimesNewRomanPS-BoldMT-6f" d="M 1594 3009 
Q 1975 3009 2303 2812 
Q 2631 2616 2801 2253 
Q 2972 1891 2972 1459 
Q 2972 838 2656 419 
Q 2275 -88 1603 -88 
Q 944 -88 587 375 
Q 231 838 231 1447 
Q 231 2075 595 2542 
Q 959 3009 1594 3009 
z
M 1606 2788 
Q 1447 2788 1333 2667 
Q 1219 2547 1183 2192 
Q 1147 1838 1147 1206 
Q 1147 872 1191 581 
Q 1225 359 1337 243 
Q 1450 128 1594 128 
Q 1734 128 1828 206 
Q 1950 313 1991 503 
Q 2053 800 2053 1703 
Q 2053 2234 1993 2432 
Q 1934 2631 1819 2722 
Q 1738 2788 1606 2788 
z
" transform="scale(0.015625)"/>
      <path id="TimesNewRomanPS-BoldMT-66" d="M 1497 2616 
L 1497 588 
Q 1497 294 1559 219 
Q 1659 103 1928 113 
L 1928 0 
L 206 0 
L 206 113 
Q 403 116 486 158 
Q 569 200 600 275 
Q 631 350 631 588 
L 631 2616 
L 206 2616 
L 206 2922 
L 631 2922 
L 631 3138 
L 628 3284 
Q 628 3734 958 4034 
Q 1288 4334 1850 4334 
Q 2234 4334 2420 4190 
Q 2606 4047 2606 3872 
Q 2606 3731 2490 3628 
Q 2375 3525 2184 3525 
Q 2022 3525 1926 3609 
Q 1831 3694 1831 3797 
Q 1831 3825 1850 3913 
Q 1863 3966 1863 4013 
Q 1863 4078 1825 4109 
Q 1775 4156 1703 4156 
Q 1613 4156 1552 4081 
Q 1491 4006 1491 3841 
L 1497 3294 
L 1497 2922 
L 1928 2922 
L 1928 2616 
L 1497 2616 
z
" transform="scale(0.015625)"/>
      <path id="TimesNewRomanPS-BoldMT-45" d="M 1744 3994 
L 1744 2269 
L 1828 2269 
Q 2231 2269 2412 2522 
Q 2594 2775 2644 3269 
L 2763 3269 
L 2763 1050 
L 2644 1050 
Q 2606 1413 2486 1644 
Q 2366 1875 2206 1954 
Q 2047 2034 1744 2034 
L 1744 841 
Q 1744 491 1773 412 
Q 1803 334 1884 284 
Q 1966 234 2147 234 
L 2400 234 
Q 2994 234 3351 509 
Q 3709 784 3866 1347 
L 3981 1347 
L 3791 0 
L 128 0 
L 128 116 
L 269 116 
Q 453 116 566 181 
Q 647 225 691 331 
Q 725 406 725 725 
L 725 3513 
Q 725 3800 709 3866 
Q 678 3975 594 4034 
Q 475 4122 269 4122 
L 128 4122 
L 128 4238 
L 3675 4238 
L 3675 2984 
L 3556 2984 
Q 3466 3444 3302 3644 
Q 3138 3844 2838 3938 
Q 2663 3994 2181 3994 
L 1744 3994 
z
" transform="scale(0.015625)"/>
      <path id="TimesNewRomanPS-BoldMT-6d" d="M 1428 2922 
L 1428 2538 
Q 1669 2800 1873 2904 
Q 2078 3009 2322 3009 
Q 2603 3009 2793 2878 
Q 2984 2747 3088 2478 
Q 3338 2759 3567 2884 
Q 3797 3009 4047 3009 
Q 4350 3009 4529 2870 
Q 4709 2731 4779 2517 
Q 4850 2303 4850 1834 
L 4850 638 
Q 4850 300 4911 219 
Q 4972 138 5166 113 
L 5166 0 
L 3656 0 
L 3656 113 
Q 3834 128 3919 250 
Q 3975 334 3975 638 
L 3975 1894 
Q 3975 2284 3944 2390 
Q 3913 2497 3845 2548 
Q 3778 2600 3688 2600 
Q 3553 2600 3415 2501 
Q 3278 2403 3138 2206 
L 3138 638 
Q 3138 322 3191 241 
Q 3263 125 3466 113 
L 3466 0 
L 1953 0 
L 1953 113 
Q 2075 119 2145 173 
Q 2216 228 2239 304 
Q 2263 381 2263 638 
L 2263 1894 
Q 2263 2291 2231 2391 
Q 2200 2491 2126 2547 
Q 2053 2603 1969 2603 
Q 1844 2603 1741 2538 
Q 1594 2441 1428 2206 
L 1428 638 
Q 1428 328 1489 229 
Q 1550 131 1744 113 
L 1744 0 
L 238 0 
L 238 113 
Q 422 131 500 231 
Q 553 300 553 638 
L 553 2288 
Q 553 2619 492 2700 
Q 431 2781 238 2806 
L 238 2922 
L 1428 2922 
z
" transform="scale(0.015625)"/>
      <path id="TimesNewRomanPS-BoldMT-70" d="M 1347 297 
L 1347 -791 
Q 1347 -1016 1383 -1097 
Q 1419 -1178 1494 -1215 
Q 1569 -1253 1788 -1253 
L 1788 -1369 
L 122 -1369 
L 122 -1253 
Q 316 -1247 409 -1144 
Q 472 -1072 472 -772 
L 472 2313 
Q 472 2622 400 2708 
Q 328 2794 122 2806 
L 122 2922 
L 1347 2922 
L 1347 2538 
Q 1500 2763 1659 2863 
Q 1888 3009 2156 3009 
Q 2478 3009 2742 2806 
Q 3006 2603 3143 2245 
Q 3281 1888 3281 1475 
Q 3281 1031 3139 664 
Q 2997 297 2726 104 
Q 2456 -88 2125 -88 
Q 1884 -88 1675 19 
Q 1519 100 1347 297 
z
M 1347 613 
Q 1616 231 1922 231 
Q 2091 231 2200 409 
Q 2363 672 2363 1409 
Q 2363 2166 2184 2444 
Q 2066 2628 1866 2628 
Q 1550 2628 1347 2172 
L 1347 613 
z
" transform="scale(0.015625)"/>
      <path id="TimesNewRomanPS-BoldMT-65" d="M 2691 1566 
L 1088 1566 
Q 1116 984 1397 647 
Q 1613 388 1916 388 
Q 2103 388 2256 492 
Q 2409 597 2584 869 
L 2691 800 
Q 2453 316 2165 114 
Q 1878 -88 1500 -88 
Q 850 -88 516 413 
Q 247 816 247 1413 
Q 247 2144 642 2576 
Q 1038 3009 1569 3009 
Q 2013 3009 2339 2645 
Q 2666 2281 2691 1566 
z
M 1922 1775 
Q 1922 2278 1867 2465 
Q 1813 2653 1697 2750 
Q 1631 2806 1522 2806 
Q 1359 2806 1256 2647 
Q 1072 2369 1072 1884 
L 1072 1775 
L 1922 1775 
z
" transform="scale(0.015625)"/>
      <path id="TimesNewRomanPS-BoldMT-73" d="M 2063 3003 
L 2109 2006 
L 2003 2006 
Q 1813 2450 1608 2612 
Q 1403 2775 1200 2775 
Q 1072 2775 981 2689 
Q 891 2603 891 2491 
Q 891 2406 953 2328 
Q 1053 2200 1512 1889 
Q 1972 1578 2117 1361 
Q 2263 1144 2263 875 
Q 2263 631 2141 397 
Q 2019 163 1797 37 
Q 1575 -88 1306 -88 
Q 1097 -88 747 44 
Q 653 78 619 78 
Q 516 78 447 -78 
L 344 -78 
L 294 972 
L 400 972 
Q 541 559 786 353 
Q 1031 147 1250 147 
Q 1400 147 1495 239 
Q 1591 331 1591 463 
Q 1591 613 1497 722 
Q 1403 831 1078 1053 
Q 600 1384 459 1559 
Q 253 1816 253 2125 
Q 253 2463 486 2736 
Q 719 3009 1159 3009 
Q 1397 3009 1619 2894 
Q 1703 2847 1756 2847 
Q 1813 2847 1847 2870 
Q 1881 2894 1956 3003 
L 2063 3003 
z
" transform="scale(0.015625)"/>
      <path id="TimesNewRomanPS-BoldMT-69" d="M 919 4338 
Q 1122 4338 1262 4195 
Q 1403 4053 1403 3853 
Q 1403 3653 1261 3512 
Q 1119 3372 919 3372 
Q 719 3372 578 3512 
Q 438 3653 438 3853 
Q 438 4053 578 4195 
Q 719 4338 919 4338 
z
M 1356 2922 
L 1356 606 
Q 1356 297 1428 211 
Q 1500 125 1709 113 
L 1709 0 
L 131 0 
L 131 113 
Q 325 119 419 225 
Q 481 297 481 606 
L 481 2313 
Q 481 2622 409 2708 
Q 338 2794 131 2806 
L 131 2922 
L 1356 2922 
z
" transform="scale(0.015625)"/>
      <path id="TimesNewRomanPS-BoldMT-6e" d="M 1409 2922 
L 1409 2544 
Q 1634 2788 1840 2898 
Q 2047 3009 2284 3009 
Q 2569 3009 2756 2851 
Q 2944 2694 3006 2459 
Q 3056 2281 3056 1775 
L 3056 638 
Q 3056 300 3117 217 
Q 3178 134 3372 113 
L 3372 0 
L 1894 0 
L 1894 113 
Q 2059 134 2131 250 
Q 2181 328 2181 638 
L 2181 1938 
Q 2181 2297 2153 2390 
Q 2125 2484 2058 2536 
Q 1991 2588 1909 2588 
Q 1641 2588 1409 2203 
L 1409 638 
Q 1409 309 1470 221 
Q 1531 134 1697 113 
L 1697 0 
L 219 0 
L 219 113 
Q 403 131 481 231 
Q 534 300 534 638 
L 534 2288 
Q 534 2619 473 2700 
Q 413 2781 219 2806 
L 219 2922 
L 1409 2922 
z
" transform="scale(0.015625)"/>
      <path id="TimesNewRomanPS-BoldMT-44" d="M 84 0 
L 84 116 
L 225 116 
Q 409 116 507 173 
Q 606 231 653 331 
Q 681 397 681 725 
L 681 3513 
Q 681 3838 647 3919 
Q 613 4000 508 4061 
Q 403 4122 225 4122 
L 84 4122 
L 84 4238 
L 1981 4238 
Q 2741 4238 3203 4031 
Q 3769 3778 4061 3265 
Q 4353 2753 4353 2106 
Q 4353 1659 4209 1282 
Q 4066 906 3837 661 
Q 3609 416 3311 267 
Q 3013 119 2581 38 
Q 2391 0 1981 0 
L 84 0 
z
M 1700 3997 
L 1700 691 
Q 1700 428 1725 368 
Q 1750 309 1809 278 
Q 1894 231 2053 231 
Q 2575 231 2850 588 
Q 3225 1069 3225 2081 
Q 3225 2897 2969 3384 
Q 2766 3766 2447 3903 
Q 2222 4000 1700 3997 
z
" transform="scale(0.015625)"/>
      <path id="TimesNewRomanPS-BoldMT-74" d="M 1375 3991 
L 1375 2922 
L 2069 2922 
L 2069 2613 
L 1375 2613 
L 1375 809 
Q 1375 556 1398 482 
Q 1422 409 1481 364 
Q 1541 319 1591 319 
Q 1794 319 1975 628 
L 2069 559 
Q 1816 -41 1247 -41 
Q 969 -41 776 114 
Q 584 269 531 459 
Q 500 566 500 1034 
L 500 2613 
L 119 2613 
L 119 2722 
Q 513 3000 789 3306 
Q 1066 3613 1272 3991 
L 1375 3991 
z
" transform="scale(0.015625)"/>
      <path id="TimesNewRomanPS-BoldMT-43" d="M 4272 4334 
L 4272 2866 
L 4150 2866 
Q 4013 3441 3638 3747 
Q 3263 4053 2788 4053 
Q 2391 4053 2059 3825 
Q 1728 3597 1575 3228 
Q 1378 2756 1378 2178 
Q 1378 1609 1522 1142 
Q 1666 675 1972 436 
Q 2278 197 2766 197 
Q 3166 197 3498 372 
Q 3831 547 4200 975 
L 4200 609 
Q 3844 238 3458 70 
Q 3072 -97 2556 -97 
Q 1878 -97 1351 175 
Q 825 447 539 956 
Q 253 1466 253 2041 
Q 253 2647 570 3190 
Q 888 3734 1427 4034 
Q 1966 4334 2572 4334 
Q 3019 4334 3516 4141 
Q 3803 4028 3881 4028 
Q 3981 4028 4054 4101 
Q 4128 4175 4150 4334 
L 4272 4334 
z
" transform="scale(0.015625)"/>
      <path id="TimesNewRomanPS-BoldMT-28" d="M 2056 4334 
L 2056 4191 
Q 1731 3978 1578 3775 
Q 1366 3494 1247 3053 
Q 1097 2506 1097 1525 
Q 1097 600 1233 87 
Q 1369 -425 1603 -741 
Q 1766 -959 2056 -1125 
L 2056 -1281 
Q 1303 -1028 779 -248 
Q 256 531 256 1544 
Q 256 2544 778 3314 
Q 1300 4084 2056 4334 
z
" transform="scale(0.015625)"/>
      <path id="TimesNewRomanPS-BoldMT-55" d="M 150 4238 
L 2338 4238 
L 2338 4122 
L 2228 4122 
Q 1981 4122 1889 4070 
Q 1797 4019 1758 3928 
Q 1719 3838 1719 3475 
L 1719 1400 
Q 1719 831 1805 647 
Q 1891 463 2087 341 
Q 2284 219 2584 219 
Q 2928 219 3170 373 
Q 3413 528 3533 800 
Q 3653 1072 3653 1747 
L 3653 3475 
Q 3653 3759 3593 3881 
Q 3534 4003 3444 4050 
Q 3303 4122 3047 4122 
L 3047 4238 
L 4513 4238 
L 4513 4122 
L 4425 4122 
Q 4247 4122 4128 4050 
Q 4009 3978 3956 3834 
Q 3916 3734 3916 3475 
L 3916 1866 
Q 3916 1119 3817 787 
Q 3719 456 3337 178 
Q 2956 -100 2297 -100 
Q 1747 -100 1447 47 
Q 1038 247 869 559 
Q 700 872 700 1400 
L 700 3475 
Q 700 3841 659 3930 
Q 619 4019 519 4072 
Q 419 4125 150 4122 
L 150 4238 
z
" transform="scale(0.015625)"/>
      <path id="TimesNewRomanPS-BoldMT-29" d="M 78 -1281 
L 78 -1138 
Q 403 -922 556 -719 
Q 766 -438 888 0 
Q 1038 550 1038 1531 
Q 1038 2456 902 2967 
Q 766 3478 531 3794 
Q 369 4013 78 4178 
L 78 4334 
Q 831 4081 1354 3301 
Q 1878 2522 1878 1509 
Q 1878 513 1354 -257 
Q 831 -1028 78 -1281 
z
" transform="scale(0.015625)"/>
     </defs>
     <use xlink:href="#TimesNewRomanPS-BoldMT-53"/>
     <use xlink:href="#TimesNewRomanPS-BoldMT-61" x="55.615234"/>
     <use xlink:href="#TimesNewRomanPS-BoldMT-6c" x="105.615234"/>
     <use xlink:href="#TimesNewRomanPS-BoldMT-61" x="133.398438"/>
     <use xlink:href="#TimesNewRomanPS-BoldMT-72" x="183.398438"/>
     <use xlink:href="#TimesNewRomanPS-BoldMT-79" x="227.783203"/>
     <use xlink:href="#TimesNewRomanPS-BoldMT-20" x="277.783203"/>
     <use xlink:href="#TimesNewRomanPS-BoldMT-6f" x="302.783203"/>
     <use xlink:href="#TimesNewRomanPS-BoldMT-66" x="352.783203"/>
     <use xlink:href="#TimesNewRomanPS-BoldMT-20" x="386.083984"/>
     <use xlink:href="#TimesNewRomanPS-BoldMT-45" x="411.083984"/>
     <use xlink:href="#TimesNewRomanPS-BoldMT-6d" x="477.783203"/>
     <use xlink:href="#TimesNewRomanPS-BoldMT-70" x="561.083984"/>
     <use xlink:href="#TimesNewRomanPS-BoldMT-6c" x="616.699219"/>
     <use xlink:href="#TimesNewRomanPS-BoldMT-6f" x="644.482422"/>
     <use xlink:href="#TimesNewRomanPS-BoldMT-79" x="694.482422"/>
     <use xlink:href="#TimesNewRomanPS-BoldMT-65" x="744.482422"/>
     <use xlink:href="#TimesNewRomanPS-BoldMT-65" x="788.867188"/>
     <use xlink:href="#TimesNewRomanPS-BoldMT-73" x="833.251953"/>
     <use xlink:href="#TimesNewRomanPS-BoldMT-20" x="872.167969"/>
     <use xlink:href="#TimesNewRomanPS-BoldMT-69" x="897.167969"/>
     <use xlink:href="#TimesNewRomanPS-BoldMT-6e" x="924.951172"/>
     <use xlink:href="#TimesNewRomanPS-BoldMT-20" x="980.566406"/>
     <use xlink:href="#TimesNewRomanPS-BoldMT-44" x="1005.566406"/>
     <use xlink:href="#TimesNewRomanPS-BoldMT-69" x="1077.783203"/>
     <use xlink:href="#TimesNewRomanPS-BoldMT-66" x="1105.566406"/>
     <use xlink:href="#TimesNewRomanPS-BoldMT-66" x="1138.867188"/>
     <use xlink:href="#TimesNewRomanPS-BoldMT-65" x="1172.167969"/>
     <use xlink:href="#TimesNewRomanPS-BoldMT-72" x="1216.552734"/>
     <use xlink:href="#TimesNewRomanPS-BoldMT-65" x="1259.1875"/>
     <use xlink:href="#TimesNewRomanPS-BoldMT-6e" x="1303.572266"/>
     <use xlink:href="#TimesNewRomanPS-BoldMT-74" x="1359.1875"/>
     <use xlink:href="#TimesNewRomanPS-BoldMT-20" x="1392.488281"/>
     <use xlink:href="#TimesNewRomanPS-BoldMT-43" x="1417.488281"/>
     <use xlink:href="#TimesNewRomanPS-BoldMT-69" x="1489.705078"/>
     <use xlink:href="#TimesNewRomanPS-BoldMT-74" x="1517.488281"/>
     <use xlink:href="#TimesNewRomanPS-BoldMT-69" x="1550.789062"/>
     <use xlink:href="#TimesNewRomanPS-BoldMT-65" x="1578.572266"/>
     <use xlink:href="#TimesNewRomanPS-BoldMT-73" x="1622.957031"/>
     <use xlink:href="#TimesNewRomanPS-BoldMT-20" x="1661.873047"/>
     <use xlink:href="#TimesNewRomanPS-BoldMT-28" x="1686.873047"/>
     <use xlink:href="#TimesNewRomanPS-BoldMT-55" x="1720.173828"/>
     <use xlink:href="#TimesNewRomanPS-BoldMT-53" x="1792.390625"/>
     <use xlink:href="#TimesNewRomanPS-BoldMT-44" x="1848.005859"/>
     <use xlink:href="#TimesNewRomanPS-BoldMT-29" x="1920.222656"/>
    </g>
   </g>
  </g>
 </g>
 <defs>
  <clipPath id="p2dfdb4f94a">
   <rect x="55.915938" y="30.045" width="371.79" height="228.855181"/>
  </clipPath>
 </defs>
</svg>
