<?xml version="1.0" encoding="utf-8" standalone="no"?>
<!DOCTYPE svg PUBLIC "-//W3C//DTD SVG 1.1//EN"
  "http://www.w3.org/Graphics/SVG/1.1/DTD/svg11.dtd">
<svg xmlns:xlink="http://www.w3.org/1999/xlink" width="434.895937pt" height="319.934957pt" viewBox="0 0 434.895937 319.934957" xmlns="http://www.w3.org/2000/svg" version="1.1">
 <metadata>
  <rdf:RDF xmlns:dc="http://purl.org/dc/elements/1.1/" xmlns:cc="http://creativecommons.org/ns#" xmlns:rdf="http://www.w3.org/1999/02/22-rdf-syntax-ns#">
   <cc:Work>
    <dc:type rdf:resource="http://purl.org/dc/dcmitype/StillImage"/>
    <dc:date>2025-05-26T17:10:57.717397</dc:date>
    <dc:format>image/svg+xml</dc:format>
    <dc:creator>
     <cc:Agent>
      <dc:title>Matplotlib v3.7.2, https://matplotlib.org/</dc:title>
     </cc:Agent>
    </dc:creator>
   </cc:Work>
  </rdf:RDF>
 </metadata>
 <defs>
  <style type="text/css">*{stroke-linejoin: round; stroke-linecap: butt}</style>
 </defs>
 <g id="figure_1">
  <g id="patch_1">
   <path d="M 0 319.934957 
L 434.895937 319.934957 
L 434.895937 0 
L 0 0 
z
" style="fill: #ffffff"/>
  </g>
  <g id="axes_1">
   <g id="patch_2">
    <path d="M 60.915938 258.900181 
L 427.695937 258.900181 
L 427.695937 30.045 
L 60.915938 30.045 
z
" style="fill: #ffffff"/>
   </g>
   <g id="PolyCollection_1">
    <defs>
     <path id="m521fcba42c" d="M 124.051389 -95.205912 
L 120.040486 -95.205912 
L 119.888847 -96.466279 
L 119.744351 -97.726645 
L 119.607707 -98.987012 
L 119.479 -100.247379 
L 119.357666 -101.507745 
L 119.242492 -102.768112 
L 119.131635 -104.028478 
L 119.022664 -105.288845 
L 118.912617 -106.549212 
L 118.798083 -107.809578 
L 118.67531 -109.069945 
L 118.540326 -110.330312 
L 118.389076 -111.590678 
L 118.21755 -112.851045 
L 118.02189 -114.111411 
L 117.798455 -115.371778 
L 117.543829 -116.632145 
L 117.254755 -117.892511 
L 116.928017 -119.152878 
L 116.560267 -120.413245 
L 116.147845 -121.673611 
L 115.686636 -122.933978 
L 115.172003 -124.194344 
L 114.598851 -125.454711 
L 113.961852 -126.715078 
L 113.255824 -127.975444 
L 112.476269 -129.235811 
L 111.619986 -130.496178 
L 110.685707 -131.756544 
L 109.674658 -133.016911 
L 108.590935 -134.277277 
L 107.441634 -135.537644 
L 106.236671 -136.798011 
L 104.988274 -138.058377 
L 103.710187 -139.318744 
L 102.416658 -140.579111 
L 101.121318 -141.839477 
L 99.836076 -143.099844 
L 98.570176 -144.36021 
L 97.329515 -145.620577 
L 96.116309 -146.880944 
L 94.929151 -148.14131 
L 93.763449 -149.401677 
L 92.612181 -150.662044 
L 91.466898 -151.92241 
L 90.318834 -153.182777 
L 89.160032 -154.443143 
L 87.984363 -155.70351 
L 86.788354 -156.963877 
L 85.571773 -158.224243 
L 84.337947 -159.48461 
L 83.093829 -160.744977 
L 81.849834 -162.005343 
L 80.619508 -163.26571 
L 79.419054 -164.526076 
L 78.266787 -165.786443 
L 77.182508 -167.04681 
L 76.186841 -168.307176 
L 75.300517 -169.567543 
L 74.543602 -170.827909 
L 73.934684 -172.088276 
L 73.490029 -173.348643 
L 73.222731 -174.609009 
L 73.141938 -175.869376 
L 73.252194 -177.129743 
L 73.552988 -178.390109 
L 74.038562 -179.650476 
L 74.698025 -180.910842 
L 75.515786 -182.171209 
L 76.472285 -183.431576 
L 77.544963 -184.691942 
L 78.709415 -185.952309 
L 79.940625 -187.212676 
L 81.214209 -188.473042 
L 82.507581 -189.733409 
L 83.800983 -190.993775 
L 85.078332 -192.254142 
L 86.32784 -193.514509 
L 87.542398 -194.774875 
L 88.719675 -196.035242 
L 89.861949 -197.295609 
L 90.975647 -198.555975 
L 92.070604 -199.816342 
L 93.159085 -201.076708 
L 94.254616 -202.337075 
L 95.370703 -203.597442 
L 96.519558 -204.857808 
L 97.710913 -206.118175 
L 98.951065 -207.378542 
L 100.242209 -208.638908 
L 101.582146 -209.899275 
L 102.964358 -211.159641 
L 104.37844 -212.420008 
L 105.810836 -213.680375 
L 107.245766 -214.940741 
L 108.666262 -216.201108 
L 110.055213 -217.461475 
L 111.396308 -218.721841 
L 112.674839 -219.982208 
L 131.417036 -219.982208 
L 131.417036 -219.982208 
L 132.695567 -218.721841 
L 134.036662 -217.461475 
L 135.425613 -216.201108 
L 136.846109 -214.940741 
L 138.281039 -213.680375 
L 139.713435 -212.420008 
L 141.127517 -211.159641 
L 142.509729 -209.899275 
L 143.849666 -208.638908 
L 145.14081 -207.378542 
L 146.380962 -206.118175 
L 147.572317 -204.857808 
L 148.721172 -203.597442 
L 149.837259 -202.337075 
L 150.93279 -201.076708 
L 152.021271 -199.816342 
L 153.116228 -198.555975 
L 154.229926 -197.295609 
L 155.3722 -196.035242 
L 156.549477 -194.774875 
L 157.764035 -193.514509 
L 159.013543 -192.254142 
L 160.290892 -190.993775 
L 161.584294 -189.733409 
L 162.877666 -188.473042 
L 164.15125 -187.212676 
L 165.38246 -185.952309 
L 166.546912 -184.691942 
L 167.61959 -183.431576 
L 168.576089 -182.171209 
L 169.39385 -180.910842 
L 170.053313 -179.650476 
L 170.538887 -178.390109 
L 170.839681 -177.129743 
L 170.949938 -175.869376 
L 170.869144 -174.609009 
L 170.601846 -173.348643 
L 170.157191 -172.088276 
L 169.548273 -170.827909 
L 168.791358 -169.567543 
L 167.905034 -168.307176 
L 166.909367 -167.04681 
L 165.825088 -165.786443 
L 164.672821 -164.526076 
L 163.472367 -163.26571 
L 162.242041 -162.005343 
L 160.998046 -160.744977 
L 159.753928 -159.48461 
L 158.520102 -158.224243 
L 157.303521 -156.963877 
L 156.107512 -155.70351 
L 154.931843 -154.443143 
L 153.773041 -153.182777 
L 152.624977 -151.92241 
L 151.479694 -150.662044 
L 150.328426 -149.401677 
L 149.162724 -148.14131 
L 147.975566 -146.880944 
L 146.76236 -145.620577 
L 145.521699 -144.36021 
L 144.255799 -143.099844 
L 142.970557 -141.839477 
L 141.675217 -140.579111 
L 140.381688 -139.318744 
L 139.103601 -138.058377 
L 137.855204 -136.798011 
L 136.650241 -135.537644 
L 135.50094 -134.277277 
L 134.417217 -133.016911 
L 133.406168 -131.756544 
L 132.471889 -130.496178 
L 131.615606 -129.235811 
L 130.836051 -127.975444 
L 130.130023 -126.715078 
L 129.493024 -125.454711 
L 128.919872 -124.194344 
L 128.405239 -122.933978 
L 127.94403 -121.673611 
L 127.531608 -120.413245 
L 127.163858 -119.152878 
L 126.83712 -117.892511 
L 126.548046 -116.632145 
L 126.29342 -115.371778 
L 126.069985 -114.111411 
L 125.874325 -112.851045 
L 125.702799 -111.590678 
L 125.551549 -110.330312 
L 125.416565 -109.069945 
L 125.293792 -107.809578 
L 125.179258 -106.549212 
L 125.069211 -105.288845 
L 124.96024 -104.028478 
L 124.849383 -102.768112 
L 124.734209 -101.507745 
L 124.612875 -100.247379 
L 124.484168 -98.987012 
L 124.347524 -97.726645 
L 124.203028 -96.466279 
L 124.051389 -95.205912 
z
" style="stroke: #000000; stroke-opacity: 0.7"/>
    </defs>
    <g clip-path="url(#peba881efdb)">
     <use xlink:href="#m521fcba42c" x="0" y="319.934957" style="fill: #8da0cb; fill-opacity: 0.7; stroke: #000000; stroke-opacity: 0.7"/>
    </g>
   </g>
   <g id="PolyCollection_2">
    <defs>
     <path id="m8890efbcd8" d="M 252.328754 -84.868963 
L 236.283121 -84.868963 
L 235.29918 -86.834806 
L 234.280561 -88.80065 
L 233.237598 -90.766493 
L 232.181296 -92.732336 
L 231.122968 -94.698179 
L 230.07382 -96.664023 
L 229.044473 -98.629866 
L 228.044449 -100.595709 
L 227.081635 -102.561553 
L 226.161759 -104.527396 
L 225.287929 -106.493239 
L 224.460257 -108.459082 
L 223.675629 -110.424926 
L 222.927659 -112.390769 
L 222.206829 -114.356612 
L 221.500854 -116.322456 
L 220.795239 -118.288299 
L 220.074022 -120.254142 
L 219.320644 -122.219985 
L 218.518913 -124.185829 
L 217.653995 -126.151672 
L 216.713373 -128.117515 
L 215.687722 -130.083359 
L 214.571645 -132.049202 
L 213.364226 -134.015045 
L 212.069378 -135.980888 
L 210.695958 -137.946732 
L 209.257639 -139.912575 
L 207.772556 -141.878418 
L 206.26273 -143.844262 
L 204.753302 -145.810105 
L 203.271611 -147.775948 
L 201.846162 -149.741791 
L 200.505513 -151.707635 
L 199.277142 -153.673478 
L 198.186328 -155.639321 
L 197.255083 -157.605165 
L 196.50119 -159.571008 
L 195.937374 -161.536851 
L 195.570656 -163.502694 
L 195.401938 -165.468538 
L 195.42587 -167.434381 
L 195.63104 -169.400224 
L 196.000519 -171.366068 
L 196.512785 -173.331911 
L 197.142995 -175.297754 
L 197.864556 -177.263597 
L 198.650892 -179.229441 
L 199.477269 -181.195284 
L 200.322516 -183.161127 
L 201.170478 -185.126971 
L 202.011034 -187.092814 
L 202.840578 -189.058657 
L 203.66189 -191.0245 
L 204.483418 -192.990344 
L 205.318049 -194.956187 
L 206.18149 -196.92203 
L 207.090472 -198.887874 
L 208.060929 -200.853717 
L 209.10637 -202.81956 
L 210.236573 -204.785403 
L 211.456706 -206.751247 
L 212.766907 -208.71709 
L 214.16232 -210.682933 
L 215.633507 -212.648777 
L 217.167162 -214.61462 
L 218.747005 -216.580463 
L 220.354762 -218.546306 
L 221.971151 -220.51215 
L 223.576795 -222.477993 
L 225.153036 -224.443836 
L 226.682625 -226.40968 
L 228.150274 -228.375523 
L 229.543091 -230.341366 
L 230.850882 -232.307209 
L 232.066329 -234.273053 
L 233.185052 -236.238896 
L 234.205533 -238.204739 
L 235.128926 -240.170583 
L 235.95874 -242.136426 
L 236.700426 -244.102269 
L 237.360891 -246.068112 
L 237.947968 -248.033956 
L 238.469894 -249.999799 
L 238.934838 -251.965642 
L 239.35051 -253.931486 
L 239.723876 -255.897329 
L 240.06101 -257.863172 
L 240.367054 -259.829015 
L 240.646291 -261.794859 
L 240.902284 -263.760702 
L 241.138055 -265.726545 
L 241.356266 -267.692389 
L 241.559366 -269.658232 
L 241.749679 -271.624075 
L 241.92944 -273.589918 
L 242.100754 -275.555762 
L 242.265527 -277.521605 
L 242.42535 -279.487448 
L 246.186525 -279.487448 
L 246.186525 -279.487448 
L 246.346348 -277.521605 
L 246.511121 -275.555762 
L 246.682435 -273.589918 
L 246.862196 -271.624075 
L 247.052509 -269.658232 
L 247.255609 -267.692389 
L 247.47382 -265.726545 
L 247.709591 -263.760702 
L 247.965584 -261.794859 
L 248.244821 -259.829015 
L 248.550865 -257.863172 
L 248.887999 -255.897329 
L 249.261365 -253.931486 
L 249.677037 -251.965642 
L 250.141981 -249.999799 
L 250.663907 -248.033956 
L 251.250984 -246.068112 
L 251.911449 -244.102269 
L 252.653135 -242.136426 
L 253.482949 -240.170583 
L 254.406342 -238.204739 
L 255.426823 -236.238896 
L 256.545546 -234.273053 
L 257.760993 -232.307209 
L 259.068784 -230.341366 
L 260.461601 -228.375523 
L 261.92925 -226.40968 
L 263.458839 -224.443836 
L 265.03508 -222.477993 
L 266.640724 -220.51215 
L 268.257113 -218.546306 
L 269.86487 -216.580463 
L 271.444713 -214.61462 
L 272.978368 -212.648777 
L 274.449555 -210.682933 
L 275.844968 -208.71709 
L 277.155169 -206.751247 
L 278.375302 -204.785403 
L 279.505505 -202.81956 
L 280.550946 -200.853717 
L 281.521403 -198.887874 
L 282.430385 -196.92203 
L 283.293826 -194.956187 
L 284.128457 -192.990344 
L 284.949985 -191.0245 
L 285.771297 -189.058657 
L 286.600841 -187.092814 
L 287.441397 -185.126971 
L 288.289359 -183.161127 
L 289.134606 -181.195284 
L 289.960983 -179.229441 
L 290.747319 -177.263597 
L 291.46888 -175.297754 
L 292.09909 -173.331911 
L 292.611356 -171.366068 
L 292.980835 -169.400224 
L 293.186005 -167.434381 
L 293.209937 -165.468538 
L 293.041219 -163.502694 
L 292.674501 -161.536851 
L 292.110685 -159.571008 
L 291.356792 -157.605165 
L 290.425547 -155.639321 
L 289.334733 -153.673478 
L 288.106362 -151.707635 
L 286.765713 -149.741791 
L 285.340264 -147.775948 
L 283.858573 -145.810105 
L 282.349145 -143.844262 
L 280.839319 -141.878418 
L 279.354236 -139.912575 
L 277.915917 -137.946732 
L 276.542497 -135.980888 
L 275.247649 -134.015045 
L 274.04023 -132.049202 
L 272.924153 -130.083359 
L 271.898502 -128.117515 
L 270.95788 -126.151672 
L 270.092962 -124.185829 
L 269.291231 -122.219985 
L 268.537853 -120.254142 
L 267.816636 -118.288299 
L 267.111021 -116.322456 
L 266.405046 -114.356612 
L 265.684216 -112.390769 
L 264.936246 -110.424926 
L 264.151618 -108.459082 
L 263.323946 -106.493239 
L 262.450116 -104.527396 
L 261.53024 -102.561553 
L 260.567426 -100.595709 
L 259.567402 -98.629866 
L 258.538055 -96.664023 
L 257.488907 -94.698179 
L 256.430579 -92.732336 
L 255.374277 -90.766493 
L 254.331314 -88.80065 
L 253.312695 -86.834806 
L 252.328754 -84.868963 
z
" style="stroke: #000000; stroke-opacity: 0.7"/>
    </defs>
    <g clip-path="url(#peba881efdb)">
     <use xlink:href="#m8890efbcd8" x="0" y="319.934957" style="fill: #d62728; fill-opacity: 0.7; stroke: #000000; stroke-opacity: 0.7"/>
    </g>
   </g>
   <g id="PolyCollection_3">
    <defs>
     <path id="m28ffa8372d" d="M 370.200567 -71.437284 
L 362.931308 -71.437284 
L 362.563156 -73.003232 
L 362.194537 -74.569179 
L 361.828506 -76.135127 
L 361.467327 -77.701075 
L 361.112333 -79.267022 
L 360.763857 -80.83297 
L 360.421236 -82.398917 
L 360.082858 -83.964865 
L 359.746266 -85.530813 
L 359.408284 -87.09676 
L 359.065151 -88.662708 
L 358.712655 -90.228656 
L 358.346241 -91.794603 
L 357.961106 -93.360551 
L 357.552268 -94.926499 
L 357.114619 -96.492446 
L 356.642974 -98.058394 
L 356.132103 -99.624342 
L 355.576772 -101.190289 
L 354.971778 -102.756237 
L 354.311978 -104.322185 
L 353.592303 -105.888132 
L 352.807774 -107.45408 
L 351.953503 -109.020028 
L 351.024709 -110.585975 
L 350.016763 -112.151923 
L 348.925302 -113.717871 
L 347.746416 -115.283818 
L 346.476959 -116.849766 
L 345.114963 -118.415713 
L 343.66016 -119.981661 
L 342.114557 -121.547609 
L 340.483022 -123.113556 
L 338.77378 -124.679504 
L 336.998771 -126.245452 
L 335.173763 -127.811399 
L 333.318213 -129.377347 
L 331.454829 -130.943295 
L 329.608889 -132.509242 
L 327.807361 -134.07519 
L 326.077925 -135.641138 
L 324.447999 -137.207085 
L 322.943862 -138.773033 
L 321.589945 -140.338981 
L 320.408323 -141.904928 
L 319.418401 -143.470876 
L 318.636741 -145.036824 
L 318.076958 -146.602771 
L 317.7496 -148.168719 
L 317.661937 -149.734667 
L 317.817634 -151.300614 
L 318.216278 -152.866562 
L 318.852857 -154.432509 
L 319.717239 -155.998457 
L 320.7938 -157.564405 
L 322.061315 -159.130352 
L 323.49321 -160.6963 
L 325.058243 -162.262248 
L 326.721608 -163.828195 
L 328.446415 -165.394143 
L 330.195406 -166.960091 
L 331.932765 -168.526038 
L 333.625839 -170.091986 
L 335.246597 -171.657934 
L 336.772699 -173.223881 
L 338.188098 -174.789829 
L 339.483155 -176.355777 
L 340.654315 -177.921724 
L 341.703444 -179.487672 
L 342.636932 -181.05362 
L 343.464717 -182.619567 
L 344.199326 -184.185515 
L 344.855012 -185.751463 
L 345.447046 -187.31741 
L 345.991145 -188.883358 
L 346.503025 -190.449305 
L 346.99802 -192.015253 
L 347.490731 -193.581201 
L 347.994658 -195.147148 
L 348.521812 -196.713096 
L 349.082304 -198.279044 
L 349.68395 -199.844991 
L 350.331933 -201.410939 
L 351.02856 -202.976887 
L 351.773174 -204.542834 
L 352.56223 -206.108782 
L 353.389551 -207.67473 
L 354.24675 -209.240677 
L 355.123774 -210.806625 
L 356.009542 -212.372573 
L 356.8926 -213.93852 
L 357.761763 -215.504468 
L 358.606665 -217.070416 
L 359.418217 -218.636363 
L 360.188909 -220.202311 
L 360.912986 -221.768259 
L 361.586475 -223.334206 
L 362.207099 -224.900154 
L 362.7741 -226.466101 
L 370.357775 -226.466101 
L 370.357775 -226.466101 
L 370.924776 -224.900154 
L 371.5454 -223.334206 
L 372.218889 -221.768259 
L 372.942966 -220.202311 
L 373.713658 -218.636363 
L 374.52521 -217.070416 
L 375.370112 -215.504468 
L 376.239275 -213.93852 
L 377.122333 -212.372573 
L 378.008101 -210.806625 
L 378.885125 -209.240677 
L 379.742324 -207.67473 
L 380.569645 -206.108782 
L 381.358701 -204.542834 
L 382.103315 -202.976887 
L 382.799942 -201.410939 
L 383.447925 -199.844991 
L 384.049571 -198.279044 
L 384.610063 -196.713096 
L 385.137217 -195.147148 
L 385.641144 -193.581201 
L 386.133855 -192.015253 
L 386.62885 -190.449305 
L 387.14073 -188.883358 
L 387.684829 -187.31741 
L 388.276863 -185.751463 
L 388.932549 -184.185515 
L 389.667158 -182.619567 
L 390.494943 -181.05362 
L 391.428431 -179.487672 
L 392.47756 -177.921724 
L 393.64872 -176.355777 
L 394.943777 -174.789829 
L 396.359176 -173.223881 
L 397.885278 -171.657934 
L 399.506036 -170.091986 
L 401.19911 -168.526038 
L 402.936469 -166.960091 
L 404.68546 -165.394143 
L 406.410267 -163.828195 
L 408.073632 -162.262248 
L 409.638665 -160.6963 
L 411.07056 -159.130352 
L 412.338075 -157.564405 
L 413.414636 -155.998457 
L 414.279018 -154.432509 
L 414.915597 -152.866562 
L 415.314241 -151.300614 
L 415.469937 -149.734667 
L 415.382275 -148.168719 
L 415.054917 -146.602771 
L 414.495134 -145.036824 
L 413.713474 -143.470876 
L 412.723552 -141.904928 
L 411.54193 -140.338981 
L 410.188013 -138.773033 
L 408.683876 -137.207085 
L 407.05395 -135.641138 
L 405.324514 -134.07519 
L 403.522986 -132.509242 
L 401.677046 -130.943295 
L 399.813662 -129.377347 
L 397.958112 -127.811399 
L 396.133104 -126.245452 
L 394.358095 -124.679504 
L 392.648853 -123.113556 
L 391.017318 -121.547609 
L 389.471715 -119.981661 
L 388.016912 -118.415713 
L 386.654916 -116.849766 
L 385.385459 -115.283818 
L 384.206573 -113.717871 
L 383.115112 -112.151923 
L 382.107166 -110.585975 
L 381.178372 -109.020028 
L 380.324101 -107.45408 
L 379.539572 -105.888132 
L 378.819897 -104.322185 
L 378.160097 -102.756237 
L 377.555103 -101.190289 
L 376.999772 -99.624342 
L 376.488901 -98.058394 
L 376.017256 -96.492446 
L 375.579607 -94.926499 
L 375.170769 -93.360551 
L 374.785634 -91.794603 
L 374.41922 -90.228656 
L 374.066724 -88.662708 
L 373.723591 -87.09676 
L 373.385609 -85.530813 
L 373.049017 -83.964865 
L 372.710639 -82.398917 
L 372.368018 -80.83297 
L 372.019542 -79.267022 
L 371.664548 -77.701075 
L 371.303369 -76.135127 
L 370.937338 -74.569179 
L 370.568719 -73.003232 
L 370.200567 -71.437284 
z
" style="stroke: #000000; stroke-opacity: 0.7"/>
    </defs>
    <g clip-path="url(#peba881efdb)">
     <use xlink:href="#m28ffa8372d" x="0" y="319.934957" style="fill: #1f77b4; fill-opacity: 0.7; stroke: #000000; stroke-opacity: 0.7"/>
    </g>
   </g>
   <g id="matplotlib.axis_1">
    <g id="xtick_1">
     <g id="line2d_1">
      <defs>
       <path id="m57a6c0eb63" d="M 0 0 
L 0 3.5 
" style="stroke: #000000; stroke-width: 0.8"/>
      </defs>
      <g>
       <use xlink:href="#m57a6c0eb63" x="122.045938" y="258.900181" style="stroke: #000000; stroke-width: 0.8"/>
      </g>
     </g>
     <g id="text_1">
      <!-- Brookfield -->
      <g transform="translate(83.468401 308.55463) rotate(-45) scale(0.12 -0.12)">
       <defs>
        <path id="TimesNewRomanPSMT-42" d="M 2956 2163 
Q 3397 2069 3616 1863 
Q 3919 1575 3919 1159 
Q 3919 844 3719 555 
Q 3519 266 3170 133 
Q 2822 0 2106 0 
L 106 0 
L 106 116 
L 266 116 
Q 531 116 647 284 
Q 719 394 719 750 
L 719 3488 
Q 719 3881 628 3984 
Q 506 4122 266 4122 
L 106 4122 
L 106 4238 
L 1938 4238 
Q 2450 4238 2759 4163 
Q 3228 4050 3475 3764 
Q 3722 3478 3722 3106 
Q 3722 2788 3528 2536 
Q 3334 2284 2956 2163 
z
M 1319 2331 
Q 1434 2309 1582 2298 
Q 1731 2288 1909 2288 
Q 2366 2288 2595 2386 
Q 2825 2484 2947 2687 
Q 3069 2891 3069 3131 
Q 3069 3503 2766 3765 
Q 2463 4028 1881 4028 
Q 1569 4028 1319 3959 
L 1319 2331 
z
M 1319 306 
Q 1681 222 2034 222 
Q 2600 222 2897 476 
Q 3194 731 3194 1106 
Q 3194 1353 3059 1581 
Q 2925 1809 2622 1940 
Q 2319 2072 1872 2072 
Q 1678 2072 1540 2065 
Q 1403 2059 1319 2044 
L 1319 306 
z
" transform="scale(0.015625)"/>
        <path id="TimesNewRomanPSMT-72" d="M 1038 2947 
L 1038 2303 
Q 1397 2947 1775 2947 
Q 1947 2947 2059 2842 
Q 2172 2738 2172 2600 
Q 2172 2478 2090 2393 
Q 2009 2309 1897 2309 
Q 1788 2309 1652 2417 
Q 1516 2525 1450 2525 
Q 1394 2525 1328 2463 
Q 1188 2334 1038 2041 
L 1038 669 
Q 1038 431 1097 309 
Q 1138 225 1241 169 
Q 1344 113 1538 113 
L 1538 0 
L 72 0 
L 72 113 
Q 291 113 397 181 
Q 475 231 506 341 
Q 522 394 522 644 
L 522 1753 
Q 522 2253 501 2348 
Q 481 2444 426 2487 
Q 372 2531 291 2531 
Q 194 2531 72 2484 
L 41 2597 
L 906 2947 
L 1038 2947 
z
" transform="scale(0.015625)"/>
        <path id="TimesNewRomanPSMT-6f" d="M 1600 2947 
Q 2250 2947 2644 2453 
Q 2978 2031 2978 1484 
Q 2978 1100 2793 706 
Q 2609 313 2286 112 
Q 1963 -88 1566 -88 
Q 919 -88 538 428 
Q 216 863 216 1403 
Q 216 1797 411 2186 
Q 606 2575 925 2761 
Q 1244 2947 1600 2947 
z
M 1503 2744 
Q 1338 2744 1170 2645 
Q 1003 2547 900 2300 
Q 797 2053 797 1666 
Q 797 1041 1045 587 
Q 1294 134 1700 134 
Q 2003 134 2200 384 
Q 2397 634 2397 1244 
Q 2397 2006 2069 2444 
Q 1847 2744 1503 2744 
z
" transform="scale(0.015625)"/>
        <path id="TimesNewRomanPSMT-6b" d="M 1047 4444 
L 1047 1597 
L 1775 2259 
Q 2006 2472 2044 2528 
Q 2069 2566 2069 2603 
Q 2069 2666 2017 2711 
Q 1966 2756 1847 2763 
L 1847 2863 
L 3091 2863 
L 3091 2763 
Q 2834 2756 2664 2684 
Q 2494 2613 2291 2428 
L 1556 1750 
L 2291 822 
Q 2597 438 2703 334 
Q 2853 188 2966 144 
Q 3044 113 3238 113 
L 3238 0 
L 1847 0 
L 1847 113 
Q 1966 116 2008 148 
Q 2050 181 2050 241 
Q 2050 313 1925 472 
L 1047 1594 
L 1047 644 
Q 1047 366 1086 278 
Q 1125 191 1197 153 
Q 1269 116 1509 113 
L 1509 0 
L 53 0 
L 53 113 
Q 272 113 381 166 
Q 447 200 481 272 
Q 528 375 528 628 
L 528 3234 
Q 528 3731 506 3842 
Q 484 3953 434 3995 
Q 384 4038 303 4038 
Q 238 4038 106 3984 
L 53 4094 
L 903 4444 
L 1047 4444 
z
" transform="scale(0.015625)"/>
        <path id="TimesNewRomanPSMT-66" d="M 1319 2638 
L 1319 756 
Q 1319 356 1406 250 
Q 1522 113 1716 113 
L 1975 113 
L 1975 0 
L 266 0 
L 266 113 
L 394 113 
Q 519 113 622 175 
Q 725 238 764 344 
Q 803 450 803 756 
L 803 2638 
L 247 2638 
L 247 2863 
L 803 2863 
L 803 3050 
Q 803 3478 940 3775 
Q 1078 4072 1361 4255 
Q 1644 4438 1997 4438 
Q 2325 4438 2600 4225 
Q 2781 4084 2781 3909 
Q 2781 3816 2700 3733 
Q 2619 3650 2525 3650 
Q 2453 3650 2373 3701 
Q 2294 3753 2178 3923 
Q 2063 4094 1966 4153 
Q 1869 4213 1750 4213 
Q 1606 4213 1506 4136 
Q 1406 4059 1362 3898 
Q 1319 3738 1319 3069 
L 1319 2863 
L 2056 2863 
L 2056 2638 
L 1319 2638 
z
" transform="scale(0.015625)"/>
        <path id="TimesNewRomanPSMT-69" d="M 928 4444 
Q 1059 4444 1151 4351 
Q 1244 4259 1244 4128 
Q 1244 3997 1151 3903 
Q 1059 3809 928 3809 
Q 797 3809 703 3903 
Q 609 3997 609 4128 
Q 609 4259 701 4351 
Q 794 4444 928 4444 
z
M 1188 2947 
L 1188 647 
Q 1188 378 1227 289 
Q 1266 200 1342 156 
Q 1419 113 1622 113 
L 1622 0 
L 231 0 
L 231 113 
Q 441 113 512 153 
Q 584 194 626 287 
Q 669 381 669 647 
L 669 1750 
Q 669 2216 641 2353 
Q 619 2453 572 2492 
Q 525 2531 444 2531 
Q 356 2531 231 2484 
L 188 2597 
L 1050 2947 
L 1188 2947 
z
" transform="scale(0.015625)"/>
        <path id="TimesNewRomanPSMT-65" d="M 681 1784 
Q 678 1147 991 784 
Q 1303 422 1725 422 
Q 2006 422 2214 576 
Q 2422 731 2563 1106 
L 2659 1044 
Q 2594 616 2278 264 
Q 1963 -88 1488 -88 
Q 972 -88 605 314 
Q 238 716 238 1394 
Q 238 2128 614 2539 
Q 991 2950 1559 2950 
Q 2041 2950 2350 2633 
Q 2659 2316 2659 1784 
L 681 1784 
z
M 681 1966 
L 2006 1966 
Q 1991 2241 1941 2353 
Q 1863 2528 1708 2628 
Q 1553 2728 1384 2728 
Q 1125 2728 920 2526 
Q 716 2325 681 1966 
z
" transform="scale(0.015625)"/>
        <path id="TimesNewRomanPSMT-6c" d="M 1184 4444 
L 1184 647 
Q 1184 378 1223 290 
Q 1263 203 1344 158 
Q 1425 113 1647 113 
L 1647 0 
L 244 0 
L 244 113 
Q 441 113 512 153 
Q 584 194 625 287 
Q 666 381 666 647 
L 666 3247 
Q 666 3731 644 3842 
Q 622 3953 573 3993 
Q 525 4034 450 4034 
Q 369 4034 244 3984 
L 191 4094 
L 1044 4444 
L 1184 4444 
z
" transform="scale(0.015625)"/>
        <path id="TimesNewRomanPSMT-64" d="M 2222 322 
Q 2013 103 1813 7 
Q 1613 -88 1381 -88 
Q 913 -88 563 304 
Q 213 697 213 1313 
Q 213 1928 600 2439 
Q 988 2950 1597 2950 
Q 1975 2950 2222 2709 
L 2222 3238 
Q 2222 3728 2198 3840 
Q 2175 3953 2125 3993 
Q 2075 4034 2000 4034 
Q 1919 4034 1784 3984 
L 1744 4094 
L 2597 4444 
L 2738 4444 
L 2738 1134 
Q 2738 631 2761 520 
Q 2784 409 2836 365 
Q 2888 322 2956 322 
Q 3041 322 3181 375 
L 3216 266 
L 2366 -88 
L 2222 -88 
L 2222 322 
z
M 2222 541 
L 2222 2016 
Q 2203 2228 2109 2403 
Q 2016 2578 1861 2667 
Q 1706 2756 1559 2756 
Q 1284 2756 1069 2509 
Q 784 2184 784 1559 
Q 784 928 1059 592 
Q 1334 256 1672 256 
Q 1956 256 2222 541 
z
" transform="scale(0.015625)"/>
       </defs>
       <use xlink:href="#TimesNewRomanPSMT-42"/>
       <use xlink:href="#TimesNewRomanPSMT-72" x="66.699219"/>
       <use xlink:href="#TimesNewRomanPSMT-6f" x="100"/>
       <use xlink:href="#TimesNewRomanPSMT-6f" x="150"/>
       <use xlink:href="#TimesNewRomanPSMT-6b" x="200"/>
       <use xlink:href="#TimesNewRomanPSMT-66" x="250"/>
       <use xlink:href="#TimesNewRomanPSMT-69" x="283.300781"/>
       <use xlink:href="#TimesNewRomanPSMT-65" x="311.083984"/>
       <use xlink:href="#TimesNewRomanPSMT-6c" x="355.46875"/>
       <use xlink:href="#TimesNewRomanPSMT-64" x="383.251953"/>
      </g>
     </g>
    </g>
    <g id="xtick_2">
     <g id="line2d_2">
      <g>
       <use xlink:href="#m57a6c0eb63" x="244.305937" y="258.900181" style="stroke: #000000; stroke-width: 0.8"/>
      </g>
     </g>
     <g id="text_2">
      <!-- Zephyr -->
      <g transform="translate(217.972397 296.294724) rotate(-45) scale(0.12 -0.12)">
       <defs>
        <path id="TimesNewRomanPSMT-5a" d="M 3681 4238 
L 897 256 
L 2634 256 
Q 3034 256 3248 431 
Q 3463 606 3628 1141 
L 3731 1122 
L 3531 0 
L 81 0 
L 81 116 
L 2800 3984 
L 1444 3984 
Q 1106 3984 954 3911 
Q 803 3838 723 3698 
Q 644 3559 578 3178 
L 459 3178 
L 547 4238 
L 3681 4238 
z
" transform="scale(0.015625)"/>
        <path id="TimesNewRomanPSMT-70" d="M -6 2578 
L 875 2934 
L 994 2934 
L 994 2266 
Q 1216 2644 1439 2795 
Q 1663 2947 1909 2947 
Q 2341 2947 2628 2609 
Q 2981 2197 2981 1534 
Q 2981 794 2556 309 
Q 2206 -88 1675 -88 
Q 1444 -88 1275 -22 
Q 1150 25 994 166 
L 994 -706 
Q 994 -1000 1030 -1079 
Q 1066 -1159 1155 -1206 
Q 1244 -1253 1478 -1253 
L 1478 -1369 
L -22 -1369 
L -22 -1253 
L 56 -1253 
Q 228 -1256 350 -1188 
Q 409 -1153 442 -1076 
Q 475 -1000 475 -688 
L 475 2019 
Q 475 2297 450 2372 
Q 425 2447 370 2484 
Q 316 2522 222 2522 
Q 147 2522 31 2478 
L -6 2578 
z
M 994 2081 
L 994 1013 
Q 994 666 1022 556 
Q 1066 375 1236 237 
Q 1406 100 1666 100 
Q 1978 100 2172 344 
Q 2425 663 2425 1241 
Q 2425 1897 2138 2250 
Q 1938 2494 1663 2494 
Q 1513 2494 1366 2419 
Q 1253 2363 994 2081 
z
" transform="scale(0.015625)"/>
        <path id="TimesNewRomanPSMT-68" d="M 1041 4444 
L 1041 2350 
Q 1388 2731 1591 2839 
Q 1794 2947 1997 2947 
Q 2241 2947 2416 2812 
Q 2591 2678 2675 2391 
Q 2734 2191 2734 1659 
L 2734 647 
Q 2734 375 2778 275 
Q 2809 200 2884 156 
Q 2959 113 3159 113 
L 3159 0 
L 1753 0 
L 1753 113 
L 1819 113 
Q 2019 113 2097 173 
Q 2175 234 2206 353 
Q 2216 403 2216 647 
L 2216 1659 
Q 2216 2128 2167 2275 
Q 2119 2422 2012 2495 
Q 1906 2569 1756 2569 
Q 1603 2569 1437 2487 
Q 1272 2406 1041 2159 
L 1041 647 
Q 1041 353 1073 281 
Q 1106 209 1195 161 
Q 1284 113 1503 113 
L 1503 0 
L 84 0 
L 84 113 
Q 275 113 384 172 
Q 447 203 484 290 
Q 522 378 522 647 
L 522 3238 
Q 522 3728 498 3840 
Q 475 3953 426 3993 
Q 378 4034 297 4034 
Q 231 4034 84 3984 
L 41 4094 
L 897 4444 
L 1041 4444 
z
" transform="scale(0.015625)"/>
        <path id="TimesNewRomanPSMT-79" d="M 38 2863 
L 1372 2863 
L 1372 2747 
L 1306 2747 
Q 1166 2747 1095 2686 
Q 1025 2625 1025 2534 
Q 1025 2413 1128 2197 
L 1825 753 
L 2466 2334 
Q 2519 2463 2519 2588 
Q 2519 2644 2497 2672 
Q 2472 2706 2419 2726 
Q 2366 2747 2231 2747 
L 2231 2863 
L 3163 2863 
L 3163 2747 
Q 3047 2734 2984 2696 
Q 2922 2659 2847 2556 
Q 2819 2513 2741 2316 
L 1575 -541 
Q 1406 -956 1132 -1168 
Q 859 -1381 606 -1381 
Q 422 -1381 303 -1275 
Q 184 -1169 184 -1031 
Q 184 -900 270 -820 
Q 356 -741 506 -741 
Q 609 -741 788 -809 
Q 913 -856 944 -856 
Q 1038 -856 1148 -759 
Q 1259 -663 1372 -384 
L 1575 113 
L 547 2272 
Q 500 2369 397 2513 
Q 319 2622 269 2659 
Q 197 2709 38 2747 
L 38 2863 
z
" transform="scale(0.015625)"/>
       </defs>
       <use xlink:href="#TimesNewRomanPSMT-5a"/>
       <use xlink:href="#TimesNewRomanPSMT-65" x="61.083984"/>
       <use xlink:href="#TimesNewRomanPSMT-70" x="105.46875"/>
       <use xlink:href="#TimesNewRomanPSMT-68" x="155.46875"/>
       <use xlink:href="#TimesNewRomanPSMT-79" x="205.46875"/>
       <use xlink:href="#TimesNewRomanPSMT-72" x="255.46875"/>
      </g>
     </g>
    </g>
    <g id="xtick_3">
     <g id="line2d_3">
      <g>
       <use xlink:href="#m57a6c0eb63" x="366.565937" y="258.900181" style="stroke: #000000; stroke-width: 0.8"/>
      </g>
     </g>
     <g id="text_3">
      <!-- Quarryville -->
      <g transform="translate(325.623129 310.903992) rotate(-45) scale(0.12 -0.12)">
       <defs>
        <path id="TimesNewRomanPSMT-51" d="M 2819 -47 
Q 3138 -597 3508 -856 
Q 3878 -1116 4350 -1153 
L 4350 -1253 
Q 3919 -1238 3428 -1080 
Q 2938 -922 2498 -642 
Q 2059 -363 1741 -47 
Q 1291 134 1028 338 
Q 647 641 436 1083 
Q 225 1525 225 2128 
Q 225 3078 840 3706 
Q 1456 4334 2331 4334 
Q 3163 4334 3770 3704 
Q 4378 3075 4378 2116 
Q 4378 1338 3945 750 
Q 3513 163 2819 -47 
z
M 2294 4094 
Q 1725 4094 1378 3688 
Q 941 3178 941 2128 
Q 941 1100 1384 544 
Q 1728 116 2294 116 
Q 2881 116 3241 544 
Q 3663 1050 3663 2038 
Q 3663 2797 3431 3316 
Q 3253 3716 2958 3905 
Q 2663 4094 2294 4094 
z
" transform="scale(0.015625)"/>
        <path id="TimesNewRomanPSMT-75" d="M 2709 2863 
L 2709 1128 
Q 2709 631 2732 520 
Q 2756 409 2807 365 
Q 2859 322 2928 322 
Q 3025 322 3147 375 
L 3191 266 
L 2334 -88 
L 2194 -88 
L 2194 519 
Q 1825 119 1631 15 
Q 1438 -88 1222 -88 
Q 981 -88 804 51 
Q 628 191 559 409 
Q 491 628 491 1028 
L 491 2306 
Q 491 2509 447 2587 
Q 403 2666 317 2708 
Q 231 2750 6 2747 
L 6 2863 
L 1009 2863 
L 1009 947 
Q 1009 547 1148 422 
Q 1288 297 1484 297 
Q 1619 297 1789 381 
Q 1959 466 2194 703 
L 2194 2325 
Q 2194 2569 2105 2655 
Q 2016 2741 1734 2747 
L 1734 2863 
L 2709 2863 
z
" transform="scale(0.015625)"/>
        <path id="TimesNewRomanPSMT-61" d="M 1822 413 
Q 1381 72 1269 19 
Q 1100 -59 909 -59 
Q 613 -59 420 144 
Q 228 347 228 678 
Q 228 888 322 1041 
Q 450 1253 767 1440 
Q 1084 1628 1822 1897 
L 1822 2009 
Q 1822 2438 1686 2597 
Q 1550 2756 1291 2756 
Q 1094 2756 978 2650 
Q 859 2544 859 2406 
L 866 2225 
Q 866 2081 792 2003 
Q 719 1925 600 1925 
Q 484 1925 411 2006 
Q 338 2088 338 2228 
Q 338 2497 613 2722 
Q 888 2947 1384 2947 
Q 1766 2947 2009 2819 
Q 2194 2722 2281 2516 
Q 2338 2381 2338 1966 
L 2338 994 
Q 2338 584 2353 492 
Q 2369 400 2405 369 
Q 2441 338 2488 338 
Q 2538 338 2575 359 
Q 2641 400 2828 588 
L 2828 413 
Q 2478 -56 2159 -56 
Q 2006 -56 1915 50 
Q 1825 156 1822 413 
z
M 1822 616 
L 1822 1706 
Q 1350 1519 1213 1441 
Q 966 1303 859 1153 
Q 753 1003 753 825 
Q 753 600 887 451 
Q 1022 303 1197 303 
Q 1434 303 1822 616 
z
" transform="scale(0.015625)"/>
        <path id="TimesNewRomanPSMT-76" d="M 53 2863 
L 1400 2863 
L 1400 2747 
L 1313 2747 
Q 1191 2747 1127 2687 
Q 1063 2628 1063 2528 
Q 1063 2419 1128 2269 
L 1794 688 
L 2463 2328 
Q 2534 2503 2534 2594 
Q 2534 2638 2509 2666 
Q 2475 2713 2422 2730 
Q 2369 2747 2206 2747 
L 2206 2863 
L 3141 2863 
L 3141 2747 
Q 2978 2734 2916 2681 
Q 2806 2588 2719 2369 
L 1703 -88 
L 1575 -88 
L 553 2328 
Q 484 2497 421 2570 
Q 359 2644 263 2694 
Q 209 2722 53 2747 
L 53 2863 
z
" transform="scale(0.015625)"/>
       </defs>
       <use xlink:href="#TimesNewRomanPSMT-51"/>
       <use xlink:href="#TimesNewRomanPSMT-75" x="72.216797"/>
       <use xlink:href="#TimesNewRomanPSMT-61" x="122.216797"/>
       <use xlink:href="#TimesNewRomanPSMT-72" x="166.601562"/>
       <use xlink:href="#TimesNewRomanPSMT-72" x="199.902344"/>
       <use xlink:href="#TimesNewRomanPSMT-79" x="233.203125"/>
       <use xlink:href="#TimesNewRomanPSMT-76" x="283.203125"/>
       <use xlink:href="#TimesNewRomanPSMT-69" x="333.203125"/>
       <use xlink:href="#TimesNewRomanPSMT-6c" x="360.986328"/>
       <use xlink:href="#TimesNewRomanPSMT-6c" x="388.769531"/>
       <use xlink:href="#TimesNewRomanPSMT-65" x="416.552734"/>
      </g>
     </g>
    </g>
   </g>
   <g id="matplotlib.axis_2">
    <g id="ytick_1">
     <g id="line2d_4">
      <defs>
       <path id="m61785fc415" d="M 0 0 
L -3.5 0 
" style="stroke: #000000; stroke-width: 0.8"/>
      </defs>
      <g>
       <use xlink:href="#m61785fc415" x="60.915938" y="248.609939" style="stroke: #000000; stroke-width: 0.8"/>
      </g>
     </g>
     <g id="text_4">
      <!-- 0 -->
      <g transform="translate(48.915938 252.081814) scale(0.1 -0.1)">
       <defs>
        <path id="TimesNewRomanPSMT-30" d="M 231 2094 
Q 231 2819 450 3342 
Q 669 3866 1031 4122 
Q 1313 4325 1613 4325 
Q 2100 4325 2488 3828 
Q 2972 3213 2972 2159 
Q 2972 1422 2759 906 
Q 2547 391 2217 158 
Q 1888 -75 1581 -75 
Q 975 -75 572 641 
Q 231 1244 231 2094 
z
M 844 2016 
Q 844 1141 1059 588 
Q 1238 122 1591 122 
Q 1759 122 1940 273 
Q 2122 425 2216 781 
Q 2359 1319 2359 2297 
Q 2359 3022 2209 3506 
Q 2097 3866 1919 4016 
Q 1791 4119 1609 4119 
Q 1397 4119 1231 3928 
Q 1006 3669 925 3112 
Q 844 2556 844 2016 
z
" transform="scale(0.015625)"/>
       </defs>
       <use xlink:href="#TimesNewRomanPSMT-30"/>
      </g>
     </g>
    </g>
    <g id="ytick_2">
     <g id="line2d_5">
      <g>
       <use xlink:href="#m61785fc415" x="60.915938" y="206.245393" style="stroke: #000000; stroke-width: 0.8"/>
      </g>
     </g>
     <g id="text_5">
      <!-- 20000 -->
      <g transform="translate(28.915938 209.717268) scale(0.1 -0.1)">
       <defs>
        <path id="TimesNewRomanPSMT-32" d="M 2934 816 
L 2638 0 
L 138 0 
L 138 116 
Q 1241 1122 1691 1759 
Q 2141 2397 2141 2925 
Q 2141 3328 1894 3587 
Q 1647 3847 1303 3847 
Q 991 3847 742 3664 
Q 494 3481 375 3128 
L 259 3128 
Q 338 3706 661 4015 
Q 984 4325 1469 4325 
Q 1984 4325 2329 3994 
Q 2675 3663 2675 3213 
Q 2675 2891 2525 2569 
Q 2294 2063 1775 1497 
Q 997 647 803 472 
L 1909 472 
Q 2247 472 2383 497 
Q 2519 522 2628 598 
Q 2738 675 2819 816 
L 2934 816 
z
" transform="scale(0.015625)"/>
       </defs>
       <use xlink:href="#TimesNewRomanPSMT-32"/>
       <use xlink:href="#TimesNewRomanPSMT-30" x="50"/>
       <use xlink:href="#TimesNewRomanPSMT-30" x="100"/>
       <use xlink:href="#TimesNewRomanPSMT-30" x="150"/>
       <use xlink:href="#TimesNewRomanPSMT-30" x="200"/>
      </g>
     </g>
    </g>
    <g id="ytick_3">
     <g id="line2d_6">
      <g>
       <use xlink:href="#m61785fc415" x="60.915938" y="163.880848" style="stroke: #000000; stroke-width: 0.8"/>
      </g>
     </g>
     <g id="text_6">
      <!-- 40000 -->
      <g transform="translate(28.915938 167.352723) scale(0.1 -0.1)">
       <defs>
        <path id="TimesNewRomanPSMT-34" d="M 2978 1563 
L 2978 1119 
L 2409 1119 
L 2409 0 
L 1894 0 
L 1894 1119 
L 100 1119 
L 100 1519 
L 2066 4325 
L 2409 4325 
L 2409 1563 
L 2978 1563 
z
M 1894 1563 
L 1894 3666 
L 406 1563 
L 1894 1563 
z
" transform="scale(0.015625)"/>
       </defs>
       <use xlink:href="#TimesNewRomanPSMT-34"/>
       <use xlink:href="#TimesNewRomanPSMT-30" x="50"/>
       <use xlink:href="#TimesNewRomanPSMT-30" x="100"/>
       <use xlink:href="#TimesNewRomanPSMT-30" x="150"/>
       <use xlink:href="#TimesNewRomanPSMT-30" x="200"/>
      </g>
     </g>
    </g>
    <g id="ytick_4">
     <g id="line2d_7">
      <g>
       <use xlink:href="#m61785fc415" x="60.915938" y="121.516302" style="stroke: #000000; stroke-width: 0.8"/>
      </g>
     </g>
     <g id="text_7">
      <!-- 60000 -->
      <g transform="translate(28.915938 124.988177) scale(0.1 -0.1)">
       <defs>
        <path id="TimesNewRomanPSMT-36" d="M 2869 4325 
L 2869 4209 
Q 2456 4169 2195 4045 
Q 1934 3922 1679 3669 
Q 1425 3416 1258 3105 
Q 1091 2794 978 2366 
Q 1428 2675 1881 2675 
Q 2316 2675 2634 2325 
Q 2953 1975 2953 1425 
Q 2953 894 2631 456 
Q 2244 -75 1606 -75 
Q 1172 -75 869 213 
Q 275 772 275 1663 
Q 275 2231 503 2743 
Q 731 3256 1154 3653 
Q 1578 4050 1965 4187 
Q 2353 4325 2688 4325 
L 2869 4325 
z
M 925 2138 
Q 869 1716 869 1456 
Q 869 1156 980 804 
Q 1091 453 1309 247 
Q 1469 100 1697 100 
Q 1969 100 2183 356 
Q 2397 613 2397 1088 
Q 2397 1622 2184 2012 
Q 1972 2403 1581 2403 
Q 1463 2403 1327 2353 
Q 1191 2303 925 2138 
z
" transform="scale(0.015625)"/>
       </defs>
       <use xlink:href="#TimesNewRomanPSMT-36"/>
       <use xlink:href="#TimesNewRomanPSMT-30" x="50"/>
       <use xlink:href="#TimesNewRomanPSMT-30" x="100"/>
       <use xlink:href="#TimesNewRomanPSMT-30" x="150"/>
       <use xlink:href="#TimesNewRomanPSMT-30" x="200"/>
      </g>
     </g>
    </g>
    <g id="ytick_5">
     <g id="line2d_8">
      <g>
       <use xlink:href="#m61785fc415" x="60.915938" y="79.151757" style="stroke: #000000; stroke-width: 0.8"/>
      </g>
     </g>
     <g id="text_8">
      <!-- 80000 -->
      <g transform="translate(28.915938 82.623632) scale(0.1 -0.1)">
       <defs>
        <path id="TimesNewRomanPSMT-38" d="M 1228 2134 
Q 725 2547 579 2797 
Q 434 3047 434 3316 
Q 434 3728 753 4026 
Q 1072 4325 1600 4325 
Q 2113 4325 2425 4047 
Q 2738 3769 2738 3413 
Q 2738 3175 2569 2928 
Q 2400 2681 1866 2347 
Q 2416 1922 2594 1678 
Q 2831 1359 2831 1006 
Q 2831 559 2490 242 
Q 2150 -75 1597 -75 
Q 994 -75 656 303 
Q 388 606 388 966 
Q 388 1247 577 1523 
Q 766 1800 1228 2134 
z
M 1719 2469 
Q 2094 2806 2194 3001 
Q 2294 3197 2294 3444 
Q 2294 3772 2109 3958 
Q 1925 4144 1606 4144 
Q 1288 4144 1088 3959 
Q 888 3775 888 3528 
Q 888 3366 970 3203 
Q 1053 3041 1206 2894 
L 1719 2469 
z
M 1375 2016 
Q 1116 1797 991 1539 
Q 866 1281 866 981 
Q 866 578 1086 336 
Q 1306 94 1647 94 
Q 1984 94 2187 284 
Q 2391 475 2391 747 
Q 2391 972 2272 1150 
Q 2050 1481 1375 2016 
z
" transform="scale(0.015625)"/>
       </defs>
       <use xlink:href="#TimesNewRomanPSMT-38"/>
       <use xlink:href="#TimesNewRomanPSMT-30" x="50"/>
       <use xlink:href="#TimesNewRomanPSMT-30" x="100"/>
       <use xlink:href="#TimesNewRomanPSMT-30" x="150"/>
       <use xlink:href="#TimesNewRomanPSMT-30" x="200"/>
      </g>
     </g>
    </g>
    <g id="ytick_6">
     <g id="line2d_9">
      <g>
       <use xlink:href="#m61785fc415" x="60.915938" y="36.787211" style="stroke: #000000; stroke-width: 0.8"/>
      </g>
     </g>
     <g id="text_9">
      <!-- 100000 -->
      <g transform="translate(23.915938 40.259086) scale(0.1 -0.1)">
       <defs>
        <path id="TimesNewRomanPSMT-31" d="M 750 3822 
L 1781 4325 
L 1884 4325 
L 1884 747 
Q 1884 391 1914 303 
Q 1944 216 2037 169 
Q 2131 122 2419 116 
L 2419 0 
L 825 0 
L 825 116 
Q 1125 122 1212 167 
Q 1300 213 1334 289 
Q 1369 366 1369 747 
L 1369 3034 
Q 1369 3497 1338 3628 
Q 1316 3728 1258 3775 
Q 1200 3822 1119 3822 
Q 1003 3822 797 3725 
L 750 3822 
z
" transform="scale(0.015625)"/>
       </defs>
       <use xlink:href="#TimesNewRomanPSMT-31"/>
       <use xlink:href="#TimesNewRomanPSMT-30" x="50"/>
       <use xlink:href="#TimesNewRomanPSMT-30" x="100"/>
       <use xlink:href="#TimesNewRomanPSMT-30" x="150"/>
       <use xlink:href="#TimesNewRomanPSMT-30" x="200"/>
       <use xlink:href="#TimesNewRomanPSMT-30" x="250"/>
      </g>
     </g>
    </g>
    <g id="text_10">
     <!-- USD -->
     <g transform="translate(16.92125 158.475872) rotate(-90) scale(0.14 -0.14)">
      <defs>
       <path id="TimesNewRomanPSMT-55" d="M 3053 4122 
L 3053 4238 
L 4553 4238 
L 4553 4122 
L 4394 4122 
Q 4144 4122 4009 3913 
Q 3944 3816 3944 3463 
L 3944 1744 
Q 3944 1106 3817 754 
Q 3691 403 3320 151 
Q 2950 -100 2313 -100 
Q 1619 -100 1259 140 
Q 900 381 750 788 
Q 650 1066 650 1831 
L 650 3488 
Q 650 3878 542 4000 
Q 434 4122 194 4122 
L 34 4122 
L 34 4238 
L 1866 4238 
L 1866 4122 
L 1703 4122 
Q 1441 4122 1328 3956 
Q 1250 3844 1250 3488 
L 1250 1641 
Q 1250 1394 1295 1075 
Q 1341 756 1459 578 
Q 1578 400 1801 284 
Q 2025 169 2350 169 
Q 2766 169 3094 350 
Q 3422 531 3542 814 
Q 3663 1097 3663 1772 
L 3663 3488 
Q 3663 3884 3575 3984 
Q 3453 4122 3213 4122 
L 3053 4122 
z
" transform="scale(0.015625)"/>
       <path id="TimesNewRomanPSMT-53" d="M 2934 4334 
L 2934 2869 
L 2819 2869 
Q 2763 3291 2617 3541 
Q 2472 3791 2203 3937 
Q 1934 4084 1647 4084 
Q 1322 4084 1109 3886 
Q 897 3688 897 3434 
Q 897 3241 1031 3081 
Q 1225 2847 1953 2456 
Q 2547 2138 2764 1967 
Q 2981 1797 3098 1565 
Q 3216 1334 3216 1081 
Q 3216 600 2842 251 
Q 2469 -97 1881 -97 
Q 1697 -97 1534 -69 
Q 1438 -53 1133 45 
Q 828 144 747 144 
Q 669 144 623 97 
Q 578 50 556 -97 
L 441 -97 
L 441 1356 
L 556 1356 
Q 638 900 775 673 
Q 913 447 1195 297 
Q 1478 147 1816 147 
Q 2206 147 2432 353 
Q 2659 559 2659 841 
Q 2659 997 2573 1156 
Q 2488 1316 2306 1453 
Q 2184 1547 1640 1851 
Q 1097 2156 867 2337 
Q 638 2519 519 2737 
Q 400 2956 400 3219 
Q 400 3675 750 4004 
Q 1100 4334 1641 4334 
Q 1978 4334 2356 4169 
Q 2531 4091 2603 4091 
Q 2684 4091 2736 4139 
Q 2788 4188 2819 4334 
L 2934 4334 
z
" transform="scale(0.015625)"/>
       <path id="TimesNewRomanPSMT-44" d="M 109 0 
L 109 116 
L 269 116 
Q 538 116 650 288 
Q 719 391 719 750 
L 719 3488 
Q 719 3884 631 3984 
Q 509 4122 269 4122 
L 109 4122 
L 109 4238 
L 1834 4238 
Q 2784 4238 3279 4022 
Q 3775 3806 4076 3303 
Q 4378 2800 4378 2141 
Q 4378 1256 3841 663 
Q 3238 0 2003 0 
L 109 0 
z
M 1319 306 
Q 1716 219 1984 219 
Q 2709 219 3187 728 
Q 3666 1238 3666 2109 
Q 3666 2988 3187 3494 
Q 2709 4000 1959 4000 
Q 1678 4000 1319 3909 
L 1319 306 
z
" transform="scale(0.015625)"/>
      </defs>
      <use xlink:href="#TimesNewRomanPSMT-55"/>
      <use xlink:href="#TimesNewRomanPSMT-53" x="72.216797"/>
      <use xlink:href="#TimesNewRomanPSMT-44" x="127.832031"/>
     </g>
    </g>
   </g>
   <g id="patch_3">
    <path d="M 114.710338 162.409209 
L 129.381538 162.409209 
L 129.381538 129.534322 
L 114.710338 129.534322 
L 114.710338 162.409209 
L 114.710338 162.409209 
z
" clip-path="url(#peba881efdb)" style="fill: none; stroke: #000000; stroke-linejoin: miter"/>
   </g>
   <g id="line2d_10">
    <path d="M 122.045938 162.409209 
L 122.045938 207.891256 
" clip-path="url(#peba881efdb)" style="fill: none; stroke: #000000; stroke-linecap: square"/>
   </g>
   <g id="line2d_11">
    <path d="M 122.045938 129.534322 
L 122.045938 99.952749 
" clip-path="url(#peba881efdb)" style="fill: none; stroke: #000000; stroke-linecap: square"/>
   </g>
   <g id="line2d_12">
    <path d="M 118.378138 207.891256 
L 125.713738 207.891256 
" clip-path="url(#peba881efdb)" style="fill: none; stroke: #000000; stroke-linecap: square"/>
   </g>
   <g id="line2d_13">
    <path d="M 118.378138 99.952749 
L 125.713738 99.952749 
" clip-path="url(#peba881efdb)" style="fill: none; stroke: #000000; stroke-linecap: square"/>
   </g>
   <g id="patch_4">
    <path d="M 236.970337 175.943093 
L 251.641537 175.943093 
L 251.641537 123.685897 
L 236.970337 123.685897 
L 236.970337 175.943093 
L 236.970337 175.943093 
z
" clip-path="url(#peba881efdb)" style="fill: none; stroke: #000000; stroke-linejoin: miter"/>
   </g>
   <g id="line2d_14">
    <path d="M 244.305937 175.943093 
L 244.305937 235.065993 
" clip-path="url(#peba881efdb)" style="fill: none; stroke: #000000; stroke-linecap: square"/>
   </g>
   <g id="line2d_15">
    <path d="M 244.305937 123.685897 
L 244.305937 59.687367 
" clip-path="url(#peba881efdb)" style="fill: none; stroke: #000000; stroke-linecap: square"/>
   </g>
   <g id="line2d_16">
    <path d="M 240.638137 235.065993 
L 247.973737 235.065993 
" clip-path="url(#peba881efdb)" style="fill: none; stroke: #000000; stroke-linecap: square"/>
   </g>
   <g id="line2d_17">
    <path d="M 240.638137 59.687367 
L 247.973737 59.687367 
" clip-path="url(#peba881efdb)" style="fill: none; stroke: #000000; stroke-linecap: square"/>
   </g>
   <g id="patch_5">
    <path d="M 359.230337 184.464721 
L 373.901537 184.464721 
L 373.901537 150.102838 
L 359.230337 150.102838 
L 359.230337 184.464721 
L 359.230337 184.464721 
z
" clip-path="url(#peba881efdb)" style="fill: none; stroke: #000000; stroke-linejoin: miter"/>
   </g>
   <g id="line2d_18">
    <path d="M 366.565937 184.464721 
L 366.565937 235.26087 
" clip-path="url(#peba881efdb)" style="fill: none; stroke: #000000; stroke-linecap: square"/>
   </g>
   <g id="line2d_19">
    <path d="M 366.565937 150.102838 
L 366.565937 104.608612 
" clip-path="url(#peba881efdb)" style="fill: none; stroke: #000000; stroke-linecap: square"/>
   </g>
   <g id="line2d_20">
    <path d="M 362.898137 235.26087 
L 370.233737 235.26087 
" clip-path="url(#peba881efdb)" style="fill: none; stroke: #000000; stroke-linecap: square"/>
   </g>
   <g id="line2d_21">
    <path d="M 362.898137 104.608612 
L 370.233737 104.608612 
" clip-path="url(#peba881efdb)" style="fill: none; stroke: #000000; stroke-linecap: square"/>
   </g>
   <g id="line2d_22">
    <path d="M 114.710338 144.949192 
L 129.381538 144.949192 
" clip-path="url(#peba881efdb)" style="fill: none; stroke: #000000; stroke-width: 1.5; stroke-linecap: square"/>
   </g>
   <g id="line2d_23">
    <path d="M 236.970337 151.293282 
L 251.641537 151.293282 
" clip-path="url(#peba881efdb)" style="fill: none; stroke: #000000; stroke-width: 1.5; stroke-linecap: square"/>
   </g>
   <g id="line2d_24">
    <path d="M 359.230337 167.49878 
L 373.901537 167.49878 
" clip-path="url(#peba881efdb)" style="fill: none; stroke: #000000; stroke-width: 1.5; stroke-linecap: square"/>
   </g>
   <g id="patch_6">
    <path d="M 60.915938 258.900181 
L 60.915938 30.045 
" style="fill: none; stroke: #000000; stroke-linejoin: miter; stroke-linecap: square"/>
   </g>
   <g id="patch_7">
    <path d="M 427.695937 258.900181 
L 427.695937 30.045 
" style="fill: none; stroke: #000000; stroke-linejoin: miter; stroke-linecap: square"/>
   </g>
   <g id="patch_8">
    <path d="M 60.915938 258.900181 
L 427.695937 258.900181 
" style="fill: none; stroke: #000000; stroke-linejoin: miter; stroke-linecap: square"/>
   </g>
   <g id="patch_9">
    <path d="M 60.915938 30.045 
L 427.695937 30.045 
" style="fill: none; stroke: #000000; stroke-linejoin: miter; stroke-linecap: square"/>
   </g>
   <g id="text_11">
    <!-- Salary of Employees in Different Cities (USD) -->
    <g transform="translate(88.024687 18.045) scale(0.16 -0.16)">
     <defs>
      <path id="TimesNewRomanPS-BoldMT-53" d="M 3006 4334 
L 3041 2922 
L 2913 2922 
Q 2822 3453 2467 3776 
Q 2113 4100 1700 4100 
Q 1381 4100 1195 3929 
Q 1009 3759 1009 3538 
Q 1009 3397 1075 3288 
Q 1166 3141 1366 2997 
Q 1513 2894 2044 2631 
Q 2788 2266 3047 1941 
Q 3303 1616 3303 1197 
Q 3303 666 2889 283 
Q 2475 -100 1838 -100 
Q 1638 -100 1459 -59 
Q 1281 -19 1013 94 
Q 863 156 766 156 
Q 684 156 593 93 
Q 503 31 447 -97 
L 331 -97 
L 331 1503 
L 447 1503 
Q 584 828 976 473 
Q 1369 119 1822 119 
Q 2172 119 2380 309 
Q 2588 500 2588 753 
Q 2588 903 2508 1043 
Q 2428 1184 2265 1311 
Q 2103 1438 1691 1641 
Q 1113 1925 859 2125 
Q 606 2325 470 2572 
Q 334 2819 334 3116 
Q 334 3622 706 3978 
Q 1078 4334 1644 4334 
Q 1850 4334 2044 4284 
Q 2191 4247 2402 4145 
Q 2613 4044 2697 4044 
Q 2778 4044 2825 4094 
Q 2872 4144 2913 4334 
L 3006 4334 
z
" transform="scale(0.015625)"/>
      <path id="TimesNewRomanPS-BoldMT-61" d="M 1828 431 
Q 1294 -41 869 -41 
Q 619 -41 453 123 
Q 288 288 288 534 
Q 288 869 575 1136 
Q 863 1403 1828 1847 
L 1828 2141 
Q 1828 2472 1792 2558 
Q 1756 2644 1656 2708 
Q 1556 2772 1431 2772 
Q 1228 2772 1097 2681 
Q 1016 2625 1016 2550 
Q 1016 2484 1103 2388 
Q 1222 2253 1222 2128 
Q 1222 1975 1108 1867 
Q 994 1759 809 1759 
Q 613 1759 480 1878 
Q 347 1997 347 2156 
Q 347 2381 525 2586 
Q 703 2791 1022 2900 
Q 1341 3009 1684 3009 
Q 2100 3009 2342 2832 
Q 2584 2656 2656 2450 
Q 2700 2319 2700 1847 
L 2700 713 
Q 2700 513 2715 461 
Q 2731 409 2762 384 
Q 2794 359 2834 359 
Q 2916 359 3000 475 
L 3094 400 
Q 2938 169 2770 64 
Q 2603 -41 2391 -41 
Q 2141 -41 2000 76 
Q 1859 194 1828 431 
z
M 1828 659 
L 1828 1638 
Q 1450 1416 1266 1163 
Q 1144 994 1144 822 
Q 1144 678 1247 569 
Q 1325 484 1466 484 
Q 1622 484 1828 659 
z
" transform="scale(0.015625)"/>
      <path id="TimesNewRomanPS-BoldMT-6c" d="M 1359 4238 
L 1359 606 
Q 1359 297 1431 211 
Q 1503 125 1713 113 
L 1713 0 
L 134 0 
L 134 113 
Q 328 119 422 225 
Q 484 297 484 606 
L 484 3631 
Q 484 3938 412 4023 
Q 341 4109 134 4122 
L 134 4238 
L 1359 4238 
z
" transform="scale(0.015625)"/>
      <path id="TimesNewRomanPS-BoldMT-72" d="M 1428 2922 
L 1428 2259 
Q 1719 2713 1937 2861 
Q 2156 3009 2359 3009 
Q 2534 3009 2639 2901 
Q 2744 2794 2744 2597 
Q 2744 2388 2642 2272 
Q 2541 2156 2397 2156 
Q 2231 2156 2109 2262 
Q 1988 2369 1966 2381 
Q 1934 2400 1894 2400 
Q 1803 2400 1722 2331 
Q 1594 2225 1528 2028 
Q 1428 1725 1428 1359 
L 1428 688 
L 1431 513 
Q 1431 334 1453 284 
Q 1491 200 1564 161 
Q 1638 122 1813 113 
L 1813 0 
L 234 0 
L 234 113 
Q 425 128 492 217 
Q 559 306 559 688 
L 559 2303 
Q 559 2553 534 2622 
Q 503 2709 443 2750 
Q 384 2791 234 2806 
L 234 2922 
L 1428 2922 
z
" transform="scale(0.015625)"/>
      <path id="TimesNewRomanPS-BoldMT-79" d="M 1556 -119 
L 613 2047 
Q 400 2538 298 2650 
Q 197 2763 53 2806 
L 53 2922 
L 1606 2922 
L 1606 2806 
Q 1453 2800 1390 2747 
Q 1328 2694 1328 2619 
Q 1328 2500 1484 2150 
L 1984 1006 
L 2325 1891 
Q 2509 2363 2509 2547 
Q 2509 2663 2432 2731 
Q 2356 2800 2163 2806 
L 2163 2922 
L 3141 2922 
L 3141 2806 
Q 2997 2791 2906 2695 
Q 2816 2600 2603 2047 
L 1769 -119 
Q 1453 -931 1300 -1119 
Q 1084 -1381 759 -1381 
Q 500 -1381 339 -1232 
Q 178 -1084 178 -875 
Q 178 -694 289 -575 
Q 400 -456 563 -456 
Q 719 -456 814 -556 
Q 909 -656 913 -866 
Q 916 -984 941 -1019 
Q 966 -1053 1013 -1053 
Q 1088 -1053 1172 -963 
Q 1297 -831 1466 -363 
L 1556 -119 
z
" transform="scale(0.015625)"/>
      <path id="TimesNewRomanPS-BoldMT-20" transform="scale(0.015625)"/>
      <path id="TimesNewRomanPS-BoldMT-6f" d="M 1594 3009 
Q 1975 3009 2303 2812 
Q 2631 2616 2801 2253 
Q 2972 1891 2972 1459 
Q 2972 838 2656 419 
Q 2275 -88 1603 -88 
Q 944 -88 587 375 
Q 231 838 231 1447 
Q 231 2075 595 2542 
Q 959 3009 1594 3009 
z
M 1606 2788 
Q 1447 2788 1333 2667 
Q 1219 2547 1183 2192 
Q 1147 1838 1147 1206 
Q 1147 872 1191 581 
Q 1225 359 1337 243 
Q 1450 128 1594 128 
Q 1734 128 1828 206 
Q 1950 313 1991 503 
Q 2053 800 2053 1703 
Q 2053 2234 1993 2432 
Q 1934 2631 1819 2722 
Q 1738 2788 1606 2788 
z
" transform="scale(0.015625)"/>
      <path id="TimesNewRomanPS-BoldMT-66" d="M 1497 2616 
L 1497 588 
Q 1497 294 1559 219 
Q 1659 103 1928 113 
L 1928 0 
L 206 0 
L 206 113 
Q 403 116 486 158 
Q 569 200 600 275 
Q 631 350 631 588 
L 631 2616 
L 206 2616 
L 206 2922 
L 631 2922 
L 631 3138 
L 628 3284 
Q 628 3734 958 4034 
Q 1288 4334 1850 4334 
Q 2234 4334 2420 4190 
Q 2606 4047 2606 3872 
Q 2606 3731 2490 3628 
Q 2375 3525 2184 3525 
Q 2022 3525 1926 3609 
Q 1831 3694 1831 3797 
Q 1831 3825 1850 3913 
Q 1863 3966 1863 4013 
Q 1863 4078 1825 4109 
Q 1775 4156 1703 4156 
Q 1613 4156 1552 4081 
Q 1491 4006 1491 3841 
L 1497 3294 
L 1497 2922 
L 1928 2922 
L 1928 2616 
L 1497 2616 
z
" transform="scale(0.015625)"/>
      <path id="TimesNewRomanPS-BoldMT-45" d="M 1744 3994 
L 1744 2269 
L 1828 2269 
Q 2231 2269 2412 2522 
Q 2594 2775 2644 3269 
L 2763 3269 
L 2763 1050 
L 2644 1050 
Q 2606 1413 2486 1644 
Q 2366 1875 2206 1954 
Q 2047 2034 1744 2034 
L 1744 841 
Q 1744 491 1773 412 
Q 1803 334 1884 284 
Q 1966 234 2147 234 
L 2400 234 
Q 2994 234 3351 509 
Q 3709 784 3866 1347 
L 3981 1347 
L 3791 0 
L 128 0 
L 128 116 
L 269 116 
Q 453 116 566 181 
Q 647 225 691 331 
Q 725 406 725 725 
L 725 3513 
Q 725 3800 709 3866 
Q 678 3975 594 4034 
Q 475 4122 269 4122 
L 128 4122 
L 128 4238 
L 3675 4238 
L 3675 2984 
L 3556 2984 
Q 3466 3444 3302 3644 
Q 3138 3844 2838 3938 
Q 2663 3994 2181 3994 
L 1744 3994 
z
" transform="scale(0.015625)"/>
      <path id="TimesNewRomanPS-BoldMT-6d" d="M 1428 2922 
L 1428 2538 
Q 1669 2800 1873 2904 
Q 2078 3009 2322 3009 
Q 2603 3009 2793 2878 
Q 2984 2747 3088 2478 
Q 3338 2759 3567 2884 
Q 3797 3009 4047 3009 
Q 4350 3009 4529 2870 
Q 4709 2731 4779 2517 
Q 4850 2303 4850 1834 
L 4850 638 
Q 4850 300 4911 219 
Q 4972 138 5166 113 
L 5166 0 
L 3656 0 
L 3656 113 
Q 3834 128 3919 250 
Q 3975 334 3975 638 
L 3975 1894 
Q 3975 2284 3944 2390 
Q 3913 2497 3845 2548 
Q 3778 2600 3688 2600 
Q 3553 2600 3415 2501 
Q 3278 2403 3138 2206 
L 3138 638 
Q 3138 322 3191 241 
Q 3263 125 3466 113 
L 3466 0 
L 1953 0 
L 1953 113 
Q 2075 119 2145 173 
Q 2216 228 2239 304 
Q 2263 381 2263 638 
L 2263 1894 
Q 2263 2291 2231 2391 
Q 2200 2491 2126 2547 
Q 2053 2603 1969 2603 
Q 1844 2603 1741 2538 
Q 1594 2441 1428 2206 
L 1428 638 
Q 1428 328 1489 229 
Q 1550 131 1744 113 
L 1744 0 
L 238 0 
L 238 113 
Q 422 131 500 231 
Q 553 300 553 638 
L 553 2288 
Q 553 2619 492 2700 
Q 431 2781 238 2806 
L 238 2922 
L 1428 2922 
z
" transform="scale(0.015625)"/>
      <path id="TimesNewRomanPS-BoldMT-70" d="M 1347 297 
L 1347 -791 
Q 1347 -1016 1383 -1097 
Q 1419 -1178 1494 -1215 
Q 1569 -1253 1788 -1253 
L 1788 -1369 
L 122 -1369 
L 122 -1253 
Q 316 -1247 409 -1144 
Q 472 -1072 472 -772 
L 472 2313 
Q 472 2622 400 2708 
Q 328 2794 122 2806 
L 122 2922 
L 1347 2922 
L 1347 2538 
Q 1500 2763 1659 2863 
Q 1888 3009 2156 3009 
Q 2478 3009 2742 2806 
Q 3006 2603 3143 2245 
Q 3281 1888 3281 1475 
Q 3281 1031 3139 664 
Q 2997 297 2726 104 
Q 2456 -88 2125 -88 
Q 1884 -88 1675 19 
Q 1519 100 1347 297 
z
M 1347 613 
Q 1616 231 1922 231 
Q 2091 231 2200 409 
Q 2363 672 2363 1409 
Q 2363 2166 2184 2444 
Q 2066 2628 1866 2628 
Q 1550 2628 1347 2172 
L 1347 613 
z
" transform="scale(0.015625)"/>
      <path id="TimesNewRomanPS-BoldMT-65" d="M 2691 1566 
L 1088 1566 
Q 1116 984 1397 647 
Q 1613 388 1916 388 
Q 2103 388 2256 492 
Q 2409 597 2584 869 
L 2691 800 
Q 2453 316 2165 114 
Q 1878 -88 1500 -88 
Q 850 -88 516 413 
Q 247 816 247 1413 
Q 247 2144 642 2576 
Q 1038 3009 1569 3009 
Q 2013 3009 2339 2645 
Q 2666 2281 2691 1566 
z
M 1922 1775 
Q 1922 2278 1867 2465 
Q 1813 2653 1697 2750 
Q 1631 2806 1522 2806 
Q 1359 2806 1256 2647 
Q 1072 2369 1072 1884 
L 1072 1775 
L 1922 1775 
z
" transform="scale(0.015625)"/>
      <path id="TimesNewRomanPS-BoldMT-73" d="M 2063 3003 
L 2109 2006 
L 2003 2006 
Q 1813 2450 1608 2612 
Q 1403 2775 1200 2775 
Q 1072 2775 981 2689 
Q 891 2603 891 2491 
Q 891 2406 953 2328 
Q 1053 2200 1512 1889 
Q 1972 1578 2117 1361 
Q 2263 1144 2263 875 
Q 2263 631 2141 397 
Q 2019 163 1797 37 
Q 1575 -88 1306 -88 
Q 1097 -88 747 44 
Q 653 78 619 78 
Q 516 78 447 -78 
L 344 -78 
L 294 972 
L 400 972 
Q 541 559 786 353 
Q 1031 147 1250 147 
Q 1400 147 1495 239 
Q 1591 331 1591 463 
Q 1591 613 1497 722 
Q 1403 831 1078 1053 
Q 600 1384 459 1559 
Q 253 1816 253 2125 
Q 253 2463 486 2736 
Q 719 3009 1159 3009 
Q 1397 3009 1619 2894 
Q 1703 2847 1756 2847 
Q 1813 2847 1847 2870 
Q 1881 2894 1956 3003 
L 2063 3003 
z
" transform="scale(0.015625)"/>
      <path id="TimesNewRomanPS-BoldMT-69" d="M 919 4338 
Q 1122 4338 1262 4195 
Q 1403 4053 1403 3853 
Q 1403 3653 1261 3512 
Q 1119 3372 919 3372 
Q 719 3372 578 3512 
Q 438 3653 438 3853 
Q 438 4053 578 4195 
Q 719 4338 919 4338 
z
M 1356 2922 
L 1356 606 
Q 1356 297 1428 211 
Q 1500 125 1709 113 
L 1709 0 
L 131 0 
L 131 113 
Q 325 119 419 225 
Q 481 297 481 606 
L 481 2313 
Q 481 2622 409 2708 
Q 338 2794 131 2806 
L 131 2922 
L 1356 2922 
z
" transform="scale(0.015625)"/>
      <path id="TimesNewRomanPS-BoldMT-6e" d="M 1409 2922 
L 1409 2544 
Q 1634 2788 1840 2898 
Q 2047 3009 2284 3009 
Q 2569 3009 2756 2851 
Q 2944 2694 3006 2459 
Q 3056 2281 3056 1775 
L 3056 638 
Q 3056 300 3117 217 
Q 3178 134 3372 113 
L 3372 0 
L 1894 0 
L 1894 113 
Q 2059 134 2131 250 
Q 2181 328 2181 638 
L 2181 1938 
Q 2181 2297 2153 2390 
Q 2125 2484 2058 2536 
Q 1991 2588 1909 2588 
Q 1641 2588 1409 2203 
L 1409 638 
Q 1409 309 1470 221 
Q 1531 134 1697 113 
L 1697 0 
L 219 0 
L 219 113 
Q 403 131 481 231 
Q 534 300 534 638 
L 534 2288 
Q 534 2619 473 2700 
Q 413 2781 219 2806 
L 219 2922 
L 1409 2922 
z
" transform="scale(0.015625)"/>
      <path id="TimesNewRomanPS-BoldMT-44" d="M 84 0 
L 84 116 
L 225 116 
Q 409 116 507 173 
Q 606 231 653 331 
Q 681 397 681 725 
L 681 3513 
Q 681 3838 647 3919 
Q 613 4000 508 4061 
Q 403 4122 225 4122 
L 84 4122 
L 84 4238 
L 1981 4238 
Q 2741 4238 3203 4031 
Q 3769 3778 4061 3265 
Q 4353 2753 4353 2106 
Q 4353 1659 4209 1282 
Q 4066 906 3837 661 
Q 3609 416 3311 267 
Q 3013 119 2581 38 
Q 2391 0 1981 0 
L 84 0 
z
M 1700 3997 
L 1700 691 
Q 1700 428 1725 368 
Q 1750 309 1809 278 
Q 1894 231 2053 231 
Q 2575 231 2850 588 
Q 3225 1069 3225 2081 
Q 3225 2897 2969 3384 
Q 2766 3766 2447 3903 
Q 2222 4000 1700 3997 
z
" transform="scale(0.015625)"/>
      <path id="TimesNewRomanPS-BoldMT-74" d="M 1375 3991 
L 1375 2922 
L 2069 2922 
L 2069 2613 
L 1375 2613 
L 1375 809 
Q 1375 556 1398 482 
Q 1422 409 1481 364 
Q 1541 319 1591 319 
Q 1794 319 1975 628 
L 2069 559 
Q 1816 -41 1247 -41 
Q 969 -41 776 114 
Q 584 269 531 459 
Q 500 566 500 1034 
L 500 2613 
L 119 2613 
L 119 2722 
Q 513 3000 789 3306 
Q 1066 3613 1272 3991 
L 1375 3991 
z
" transform="scale(0.015625)"/>
      <path id="TimesNewRomanPS-BoldMT-43" d="M 4272 4334 
L 4272 2866 
L 4150 2866 
Q 4013 3441 3638 3747 
Q 3263 4053 2788 4053 
Q 2391 4053 2059 3825 
Q 1728 3597 1575 3228 
Q 1378 2756 1378 2178 
Q 1378 1609 1522 1142 
Q 1666 675 1972 436 
Q 2278 197 2766 197 
Q 3166 197 3498 372 
Q 3831 547 4200 975 
L 4200 609 
Q 3844 238 3458 70 
Q 3072 -97 2556 -97 
Q 1878 -97 1351 175 
Q 825 447 539 956 
Q 253 1466 253 2041 
Q 253 2647 570 3190 
Q 888 3734 1427 4034 
Q 1966 4334 2572 4334 
Q 3019 4334 3516 4141 
Q 3803 4028 3881 4028 
Q 3981 4028 4054 4101 
Q 4128 4175 4150 4334 
L 4272 4334 
z
" transform="scale(0.015625)"/>
      <path id="TimesNewRomanPS-BoldMT-28" d="M 2056 4334 
L 2056 4191 
Q 1731 3978 1578 3775 
Q 1366 3494 1247 3053 
Q 1097 2506 1097 1525 
Q 1097 600 1233 87 
Q 1369 -425 1603 -741 
Q 1766 -959 2056 -1125 
L 2056 -1281 
Q 1303 -1028 779 -248 
Q 256 531 256 1544 
Q 256 2544 778 3314 
Q 1300 4084 2056 4334 
z
" transform="scale(0.015625)"/>
      <path id="TimesNewRomanPS-BoldMT-55" d="M 150 4238 
L 2338 4238 
L 2338 4122 
L 2228 4122 
Q 1981 4122 1889 4070 
Q 1797 4019 1758 3928 
Q 1719 3838 1719 3475 
L 1719 1400 
Q 1719 831 1805 647 
Q 1891 463 2087 341 
Q 2284 219 2584 219 
Q 2928 219 3170 373 
Q 3413 528 3533 800 
Q 3653 1072 3653 1747 
L 3653 3475 
Q 3653 3759 3593 3881 
Q 3534 4003 3444 4050 
Q 3303 4122 3047 4122 
L 3047 4238 
L 4513 4238 
L 4513 4122 
L 4425 4122 
Q 4247 4122 4128 4050 
Q 4009 3978 3956 3834 
Q 3916 3734 3916 3475 
L 3916 1866 
Q 3916 1119 3817 787 
Q 3719 456 3337 178 
Q 2956 -100 2297 -100 
Q 1747 -100 1447 47 
Q 1038 247 869 559 
Q 700 872 700 1400 
L 700 3475 
Q 700 3841 659 3930 
Q 619 4019 519 4072 
Q 419 4125 150 4122 
L 150 4238 
z
" transform="scale(0.015625)"/>
      <path id="TimesNewRomanPS-BoldMT-29" d="M 78 -1281 
L 78 -1138 
Q 403 -922 556 -719 
Q 766 -438 888 0 
Q 1038 550 1038 1531 
Q 1038 2456 902 2967 
Q 766 3478 531 3794 
Q 369 4013 78 4178 
L 78 4334 
Q 831 4081 1354 3301 
Q 1878 2522 1878 1509 
Q 1878 513 1354 -257 
Q 831 -1028 78 -1281 
z
" transform="scale(0.015625)"/>
     </defs>
     <use xlink:href="#TimesNewRomanPS-BoldMT-53"/>
     <use xlink:href="#TimesNewRomanPS-BoldMT-61" x="55.615234"/>
     <use xlink:href="#TimesNewRomanPS-BoldMT-6c" x="105.615234"/>
     <use xlink:href="#TimesNewRomanPS-BoldMT-61" x="133.398438"/>
     <use xlink:href="#TimesNewRomanPS-BoldMT-72" x="183.398438"/>
     <use xlink:href="#TimesNewRomanPS-BoldMT-79" x="227.783203"/>
     <use xlink:href="#TimesNewRomanPS-BoldMT-20" x="277.783203"/>
     <use xlink:href="#TimesNewRomanPS-BoldMT-6f" x="302.783203"/>
     <use xlink:href="#TimesNewRomanPS-BoldMT-66" x="352.783203"/>
     <use xlink:href="#TimesNewRomanPS-BoldMT-20" x="386.083984"/>
     <use xlink:href="#TimesNewRomanPS-BoldMT-45" x="411.083984"/>
     <use xlink:href="#TimesNewRomanPS-BoldMT-6d" x="477.783203"/>
     <use xlink:href="#TimesNewRomanPS-BoldMT-70" x="561.083984"/>
     <use xlink:href="#TimesNewRomanPS-BoldMT-6c" x="616.699219"/>
     <use xlink:href="#TimesNewRomanPS-BoldMT-6f" x="644.482422"/>
     <use xlink:href="#TimesNewRomanPS-BoldMT-79" x="694.482422"/>
     <use xlink:href="#TimesNewRomanPS-BoldMT-65" x="744.482422"/>
     <use xlink:href="#TimesNewRomanPS-BoldMT-65" x="788.867188"/>
     <use xlink:href="#TimesNewRomanPS-BoldMT-73" x="833.251953"/>
     <use xlink:href="#TimesNewRomanPS-BoldMT-20" x="872.167969"/>
     <use xlink:href="#TimesNewRomanPS-BoldMT-69" x="897.167969"/>
     <use xlink:href="#TimesNewRomanPS-BoldMT-6e" x="924.951172"/>
     <use xlink:href="#TimesNewRomanPS-BoldMT-20" x="980.566406"/>
     <use xlink:href="#TimesNewRomanPS-BoldMT-44" x="1005.566406"/>
     <use xlink:href="#TimesNewRomanPS-BoldMT-69" x="1077.783203"/>
     <use xlink:href="#TimesNewRomanPS-BoldMT-66" x="1105.566406"/>
     <use xlink:href="#TimesNewRomanPS-BoldMT-66" x="1138.867188"/>
     <use xlink:href="#TimesNewRomanPS-BoldMT-65" x="1172.167969"/>
     <use xlink:href="#TimesNewRomanPS-BoldMT-72" x="1216.552734"/>
     <use xlink:href="#TimesNewRomanPS-BoldMT-65" x="1259.1875"/>
     <use xlink:href="#TimesNewRomanPS-BoldMT-6e" x="1303.572266"/>
     <use xlink:href="#TimesNewRomanPS-BoldMT-74" x="1359.1875"/>
     <use xlink:href="#TimesNewRomanPS-BoldMT-20" x="1392.488281"/>
     <use xlink:href="#TimesNewRomanPS-BoldMT-43" x="1417.488281"/>
     <use xlink:href="#TimesNewRomanPS-BoldMT-69" x="1489.705078"/>
     <use xlink:href="#TimesNewRomanPS-BoldMT-74" x="1517.488281"/>
     <use xlink:href="#TimesNewRomanPS-BoldMT-69" x="1550.789062"/>
     <use xlink:href="#TimesNewRomanPS-BoldMT-65" x="1578.572266"/>
     <use xlink:href="#TimesNewRomanPS-BoldMT-73" x="1622.957031"/>
     <use xlink:href="#TimesNewRomanPS-BoldMT-20" x="1661.873047"/>
     <use xlink:href="#TimesNewRomanPS-BoldMT-28" x="1686.873047"/>
     <use xlink:href="#TimesNewRomanPS-BoldMT-55" x="1720.173828"/>
     <use xlink:href="#TimesNewRomanPS-BoldMT-53" x="1792.390625"/>
     <use xlink:href="#TimesNewRomanPS-BoldMT-44" x="1848.005859"/>
     <use xlink:href="#TimesNewRomanPS-BoldMT-29" x="1920.222656"/>
    </g>
   </g>
  </g>
 </g>
 <defs>
  <clipPath id="peba881efdb">
   <rect x="60.915938" y="30.045" width="366.78" height="228.855181"/>
  </clipPath>
 </defs>
</svg>
