<?xml version="1.0" encoding="utf-8" standalone="no"?>
<!DOCTYPE svg PUBLIC "-//W3C//DTD SVG 1.1//EN"
  "http://www.w3.org/Graphics/SVG/1.1/DTD/svg11.dtd">
<svg xmlns:xlink="http://www.w3.org/1999/xlink" width="434.895937pt" height="319.934957pt" viewBox="0 0 434.895937 319.934957" xmlns="http://www.w3.org/2000/svg" version="1.1">
 <metadata>
  <rdf:RDF xmlns:dc="http://purl.org/dc/elements/1.1/" xmlns:cc="http://creativecommons.org/ns#" xmlns:rdf="http://www.w3.org/1999/02/22-rdf-syntax-ns#">
   <cc:Work>
    <dc:type rdf:resource="http://purl.org/dc/dcmitype/StillImage"/>
    <dc:date>2025-05-26T17:12:04.664431</dc:date>
    <dc:format>image/svg+xml</dc:format>
    <dc:creator>
     <cc:Agent>
      <dc:title>Matplotlib v3.7.2, https://matplotlib.org/</dc:title>
     </cc:Agent>
    </dc:creator>
   </cc:Work>
  </rdf:RDF>
 </metadata>
 <defs>
  <style type="text/css">*{stroke-linejoin: round; stroke-linecap: butt}</style>
 </defs>
 <g id="figure_1">
  <g id="patch_1">
   <path d="M 0 319.934957 
L 434.895937 319.934957 
L 434.895937 0 
L 0 0 
z
" style="fill: #ffffff"/>
  </g>
  <g id="axes_1">
   <g id="patch_2">
    <path d="M 60.915938 258.900181 
L 427.695937 258.900181 
L 427.695937 30.045 
L 60.915938 30.045 
z
" style="fill: #ffffff"/>
   </g>
   <g id="PolyCollection_1">
    <defs>
     <path id="m8a038e3bd7" d="M 92.764512 -72.405398 
L 81.464505 -72.405398 
L 80.897786 -73.918673 
L 80.314607 -75.431948 
L 79.719323 -76.945223 
L 79.116594 -78.458498 
L 78.511315 -79.971773 
L 77.908536 -81.485049 
L 77.313384 -82.998324 
L 76.730984 -84.511599 
L 76.166387 -86.024874 
L 75.624487 -87.538149 
L 75.109953 -89.051424 
L 74.62715 -90.564699 
L 74.180061 -92.077974 
L 73.772217 -93.591249 
L 73.406621 -95.104525 
L 73.085676 -96.6178 
L 72.811129 -98.131075 
L 72.584018 -99.64435 
L 72.404632 -101.157625 
L 72.272505 -102.6709 
L 72.186412 -104.184175 
L 72.144411 -105.69745 
L 72.143897 -107.210725 
L 72.181684 -108.724 
L 72.254119 -110.237276 
L 72.357201 -111.750551 
L 72.486723 -113.263826 
L 72.638415 -114.777101 
L 72.808085 -116.290376 
L 72.991752 -117.803651 
L 73.185763 -119.316926 
L 73.386884 -120.830201 
L 73.592371 -122.343476 
L 73.800008 -123.856751 
L 74.008114 -125.370027 
L 74.215527 -126.883302 
L 74.421558 -128.396577 
L 74.625928 -129.909852 
L 74.828687 -131.423127 
L 75.030123 -132.936402 
L 75.230664 -134.449677 
L 75.430792 -135.962952 
L 75.630946 -137.476227 
L 75.831453 -138.989502 
L 76.032461 -140.502778 
L 76.233896 -142.016053 
L 76.43543 -143.529328 
L 76.636475 -145.042603 
L 76.836187 -146.555878 
L 77.033497 -148.069153 
L 77.227143 -149.582428 
L 77.415732 -151.095703 
L 77.597797 -152.608978 
L 77.771872 -154.122253 
L 77.936568 -155.635529 
L 78.09065 -157.148804 
L 78.23311 -158.662079 
L 78.363245 -160.175354 
L 78.480708 -161.688629 
L 78.585568 -163.201904 
L 78.678337 -164.715179 
L 78.75999 -166.228454 
L 78.831962 -167.741729 
L 78.896121 -169.255005 
L 78.954723 -170.76828 
L 79.010342 -172.281555 
L 79.065788 -173.79483 
L 79.123995 -175.308105 
L 79.187916 -176.82138 
L 79.260395 -178.334655 
L 79.34405 -179.84793 
L 79.441159 -181.361205 
L 79.55356 -182.87448 
L 79.682573 -184.387756 
L 79.828943 -185.901031 
L 79.992816 -187.414306 
L 80.173742 -188.927581 
L 80.370712 -190.440856 
L 80.582219 -191.954131 
L 80.806343 -193.467406 
L 81.04086 -194.980681 
L 81.283355 -196.493956 
L 81.531342 -198.007231 
L 81.782377 -199.520507 
L 82.034165 -201.033782 
L 82.284646 -202.547057 
L 82.532056 -204.060332 
L 82.774974 -205.573607 
L 83.01233 -207.086882 
L 83.243403 -208.600157 
L 83.467786 -210.113432 
L 83.68534 -211.626707 
L 83.896134 -213.139982 
L 84.10038 -214.653258 
L 84.298365 -216.166533 
L 84.490389 -217.679808 
L 84.676708 -219.193083 
L 84.857495 -220.706358 
L 85.03281 -222.219633 
L 89.196208 -222.219633 
L 89.196208 -222.219633 
L 89.371523 -220.706358 
L 89.55231 -219.193083 
L 89.738629 -217.679808 
L 89.930653 -216.166533 
L 90.128638 -214.653258 
L 90.332884 -213.139982 
L 90.543678 -211.626707 
L 90.761232 -210.113432 
L 90.985615 -208.600157 
L 91.216688 -207.086882 
L 91.454044 -205.573607 
L 91.696962 -204.060332 
L 91.944372 -202.547057 
L 92.194852 -201.033782 
L 92.446641 -199.520507 
L 92.697676 -198.007231 
L 92.945662 -196.493956 
L 93.188158 -194.980681 
L 93.422675 -193.467406 
L 93.646799 -191.954131 
L 93.858306 -190.440856 
L 94.055276 -188.927581 
L 94.236202 -187.414306 
L 94.400075 -185.901031 
L 94.546445 -184.387756 
L 94.675458 -182.87448 
L 94.787859 -181.361205 
L 94.884968 -179.84793 
L 94.968623 -178.334655 
L 95.041102 -176.82138 
L 95.105023 -175.308105 
L 95.16323 -173.79483 
L 95.218675 -172.281555 
L 95.274295 -170.76828 
L 95.332897 -169.255005 
L 95.397056 -167.741729 
L 95.469028 -166.228454 
L 95.550681 -164.715179 
L 95.64345 -163.201904 
L 95.74831 -161.688629 
L 95.865773 -160.175354 
L 95.995907 -158.662079 
L 96.138368 -157.148804 
L 96.292449 -155.635529 
L 96.457146 -154.122253 
L 96.631221 -152.608978 
L 96.813286 -151.095703 
L 97.001875 -149.582428 
L 97.195521 -148.069153 
L 97.392831 -146.555878 
L 97.592543 -145.042603 
L 97.793588 -143.529328 
L 97.995122 -142.016053 
L 98.196557 -140.502778 
L 98.397565 -138.989502 
L 98.598072 -137.476227 
L 98.798226 -135.962952 
L 98.998354 -134.449677 
L 99.198895 -132.936402 
L 99.400331 -131.423127 
L 99.60309 -129.909852 
L 99.80746 -128.396577 
L 100.013491 -126.883302 
L 100.220904 -125.370027 
L 100.42901 -123.856751 
L 100.636647 -122.343476 
L 100.842134 -120.830201 
L 101.043255 -119.316926 
L 101.237266 -117.803651 
L 101.420933 -116.290376 
L 101.590603 -114.777101 
L 101.742295 -113.263826 
L 101.871817 -111.750551 
L 101.974899 -110.237276 
L 102.047334 -108.724 
L 102.085121 -107.210725 
L 102.084606 -105.69745 
L 102.042606 -104.184175 
L 101.956513 -102.6709 
L 101.824385 -101.157625 
L 101.645 -99.64435 
L 101.417888 -98.131075 
L 101.143342 -96.6178 
L 100.822397 -95.104525 
L 100.456801 -93.591249 
L 100.048957 -92.077974 
L 99.601868 -90.564699 
L 99.119065 -89.051424 
L 98.604531 -87.538149 
L 98.062631 -86.024874 
L 97.498033 -84.511599 
L 96.915634 -82.998324 
L 96.320482 -81.485049 
L 95.717703 -79.971773 
L 95.112424 -78.458498 
L 94.509695 -76.945223 
L 93.91441 -75.431948 
L 93.331232 -73.918673 
L 92.764512 -72.405398 
z
" style="stroke: #000000; stroke-opacity: 0.7"/>
    </defs>
    <g clip-path="url(#p59f90e56ed)">
     <use xlink:href="#m8a038e3bd7" x="0" y="319.934957" style="fill: #2ca02c; fill-opacity: 0.7; stroke: #000000; stroke-opacity: 0.7"/>
    </g>
   </g>
   <g id="PolyCollection_2">
    <defs>
     <path id="m51d214c3d1" d="M 145.865227 -75.904196 
L 133.158076 -75.904196 
L 132.473672 -77.053859 
L 131.773291 -78.203522 
L 131.065 -79.353185 
L 130.357416 -80.502848 
L 129.659455 -81.65251 
L 128.980072 -82.802173 
L 128.327984 -83.951836 
L 127.711399 -85.101499 
L 127.137768 -86.251162 
L 126.613551 -87.400825 
L 126.144035 -88.550487 
L 125.733193 -89.70015 
L 125.383591 -90.849813 
L 125.096355 -91.999476 
L 124.871191 -93.149139 
L 124.706458 -94.298802 
L 124.599288 -95.448465 
L 124.545748 -96.598127 
L 124.54104 -97.74779 
L 124.579718 -98.897453 
L 124.655933 -100.047116 
L 124.763673 -101.196779 
L 124.897 -102.346442 
L 125.050279 -103.496104 
L 125.218374 -104.645767 
L 125.396818 -105.79543 
L 125.581937 -106.945093 
L 125.770934 -108.094756 
L 125.961918 -109.244419 
L 126.153888 -110.394082 
L 126.346667 -111.543744 
L 126.540791 -112.693407 
L 126.737368 -113.84307 
L 126.937907 -114.992733 
L 127.144133 -116.142396 
L 127.357808 -117.292059 
L 127.580554 -118.441721 
L 127.813708 -119.591384 
L 128.0582 -120.741047 
L 128.314478 -121.89071 
L 128.58247 -123.040373 
L 128.861592 -124.190036 
L 129.150789 -125.339699 
L 129.44861 -126.489361 
L 129.753304 -127.639024 
L 130.062932 -128.788687 
L 130.375478 -129.93835 
L 130.688949 -131.088013 
L 131.001467 -132.237676 
L 131.311336 -133.387338 
L 131.617081 -134.537001 
L 131.917469 -135.686664 
L 132.211499 -136.836327 
L 132.498379 -137.98599 
L 132.777485 -139.135653 
L 133.048311 -140.285316 
L 133.310422 -141.434978 
L 133.563404 -142.584641 
L 133.806825 -143.734304 
L 134.040209 -144.883967 
L 134.263024 -146.03363 
L 134.474681 -147.183293 
L 134.674553 -148.332955 
L 134.861998 -149.482618 
L 135.036398 -150.632281 
L 135.197205 -151.781944 
L 135.343978 -152.931607 
L 135.476438 -154.08127 
L 135.594494 -155.230933 
L 135.698286 -156.380595 
L 135.788196 -157.530258 
L 135.864865 -158.679921 
L 135.929181 -159.829584 
L 135.982274 -160.979247 
L 136.025483 -162.12891 
L 136.060323 -163.278572 
L 136.088444 -164.428235 
L 136.111586 -165.577898 
L 136.131531 -166.727561 
L 136.150056 -167.877224 
L 136.168892 -169.026887 
L 136.189684 -170.17655 
L 136.21396 -171.326212 
L 136.243104 -172.475875 
L 136.278335 -173.625538 
L 136.320695 -174.775201 
L 136.371034 -175.924864 
L 136.43001 -177.074527 
L 136.498078 -178.224189 
L 136.575493 -179.373852 
L 136.662304 -180.523515 
L 136.75836 -181.673178 
L 136.863308 -182.822841 
L 136.976594 -183.972504 
L 137.097477 -185.122167 
L 137.225035 -186.271829 
L 137.358179 -187.421492 
L 137.495681 -188.571155 
L 137.636193 -189.720818 
L 141.38711 -189.720818 
L 141.38711 -189.720818 
L 141.527623 -188.571155 
L 141.665125 -187.421492 
L 141.798269 -186.271829 
L 141.925826 -185.122167 
L 142.04671 -183.972504 
L 142.159996 -182.822841 
L 142.264943 -181.673178 
L 142.360999 -180.523515 
L 142.447811 -179.373852 
L 142.525225 -178.224189 
L 142.593293 -177.074527 
L 142.652269 -175.924864 
L 142.702609 -174.775201 
L 142.744969 -173.625538 
L 142.7802 -172.475875 
L 142.809344 -171.326212 
L 142.83362 -170.17655 
L 142.854412 -169.026887 
L 142.873248 -167.877224 
L 142.891773 -166.727561 
L 142.911717 -165.577898 
L 142.93486 -164.428235 
L 142.962981 -163.278572 
L 142.997821 -162.12891 
L 143.041029 -160.979247 
L 143.094122 -159.829584 
L 143.158439 -158.679921 
L 143.235107 -157.530258 
L 143.325018 -156.380595 
L 143.428809 -155.230933 
L 143.546866 -154.08127 
L 143.679325 -152.931607 
L 143.826099 -151.781944 
L 143.986905 -150.632281 
L 144.161306 -149.482618 
L 144.34875 -148.332955 
L 144.548622 -147.183293 
L 144.76028 -146.03363 
L 144.983095 -144.883967 
L 145.216479 -143.734304 
L 145.4599 -142.584641 
L 145.712881 -141.434978 
L 145.974992 -140.285316 
L 146.245819 -139.135653 
L 146.524924 -137.98599 
L 146.811804 -136.836327 
L 147.105834 -135.686664 
L 147.406222 -134.537001 
L 147.711968 -133.387338 
L 148.021836 -132.237676 
L 148.334355 -131.088013 
L 148.647826 -129.93835 
L 148.960371 -128.788687 
L 149.27 -127.639024 
L 149.574694 -126.489361 
L 149.872514 -125.339699 
L 150.161711 -124.190036 
L 150.440834 -123.040373 
L 150.708826 -121.89071 
L 150.965104 -120.741047 
L 151.209596 -119.591384 
L 151.442749 -118.441721 
L 151.665496 -117.292059 
L 151.879171 -116.142396 
L 152.085397 -114.992733 
L 152.285935 -113.84307 
L 152.482512 -112.693407 
L 152.676637 -111.543744 
L 152.869415 -110.394082 
L 153.061386 -109.244419 
L 153.25237 -108.094756 
L 153.441367 -106.945093 
L 153.626486 -105.79543 
L 153.80493 -104.645767 
L 153.973025 -103.496104 
L 154.126304 -102.346442 
L 154.259631 -101.196779 
L 154.36737 -100.047116 
L 154.443586 -98.897453 
L 154.482264 -97.74779 
L 154.477555 -96.598127 
L 154.424015 -95.448465 
L 154.316845 -94.298802 
L 154.152113 -93.149139 
L 153.926949 -91.999476 
L 153.639713 -90.849813 
L 153.29011 -89.70015 
L 152.879268 -88.550487 
L 152.409753 -87.400825 
L 151.885536 -86.251162 
L 151.311904 -85.101499 
L 150.69532 -83.951836 
L 150.043232 -82.802173 
L 149.363849 -81.65251 
L 148.665888 -80.502848 
L 147.958304 -79.353185 
L 147.250013 -78.203522 
L 146.549631 -77.053859 
L 145.865227 -75.904196 
z
" style="stroke: #000000; stroke-opacity: 0.7"/>
    </defs>
    <g clip-path="url(#p59f90e56ed)">
     <use xlink:href="#m51d214c3d1" x="0" y="319.934957" style="fill: #b3b3b3; fill-opacity: 0.7; stroke: #000000; stroke-opacity: 0.7"/>
    </g>
   </g>
   <g id="PolyCollection_3">
    <defs>
     <path id="m0dd3d0cc64" d="M 198.820007 -80.765525 
L 184.997582 -80.765525 
L 184.143284 -82.731986 
L 183.282941 -84.698447 
L 182.433001 -86.664908 
L 181.609894 -88.631369 
L 180.829156 -90.597829 
L 180.104605 -92.56429 
L 179.447613 -94.530751 
L 178.866555 -96.497212 
L 178.366484 -98.463673 
L 177.949059 -100.430134 
L 177.612729 -102.396594 
L 177.353177 -104.363055 
L 177.163947 -106.329516 
L 177.037225 -108.295977 
L 176.964663 -110.262438 
L 176.938182 -112.228899 
L 176.950668 -114.195359 
L 176.996482 -116.16182 
L 177.071762 -118.128281 
L 177.174473 -120.094742 
L 177.30424 -122.061203 
L 177.461982 -124.027664 
L 177.649427 -125.994124 
L 177.868564 -127.960585 
L 178.121104 -129.927046 
L 178.408026 -131.893507 
L 178.729248 -133.859968 
L 179.083451 -135.826428 
L 179.468058 -137.792889 
L 179.879365 -139.75935 
L 180.312774 -141.725811 
L 180.763099 -143.692272 
L 181.224905 -145.658733 
L 181.692817 -147.625193 
L 182.161794 -149.591654 
L 182.627318 -151.558115 
L 183.085511 -153.524576 
L 183.533155 -155.491037 
L 183.967658 -157.457498 
L 184.386947 -159.423958 
L 184.789352 -161.390419 
L 185.173475 -163.35688 
L 185.538081 -165.323341 
L 185.882037 -167.289802 
L 186.204295 -169.256263 
L 186.503933 -171.222723 
L 186.780245 -173.189184 
L 187.032856 -175.155645 
L 187.261851 -177.122106 
L 187.467881 -179.088567 
L 187.652238 -181.055028 
L 187.816861 -183.021488 
L 187.964281 -184.987949 
L 188.097499 -186.95441 
L 188.219814 -188.920871 
L 188.334606 -190.887332 
L 188.445118 -192.853793 
L 188.554251 -194.820253 
L 188.664398 -196.786714 
L 188.777323 -198.753175 
L 188.894117 -200.719636 
L 189.0152 -202.686097 
L 189.140386 -204.652558 
L 189.268984 -206.619018 
L 189.399931 -208.585479 
L 189.53193 -210.55194 
L 189.663587 -212.518401 
L 189.793527 -214.484862 
L 189.920496 -216.451323 
L 190.043428 -218.417783 
L 190.161481 -220.384244 
L 190.274058 -222.350705 
L 190.380788 -224.317166 
L 190.481507 -226.283627 
L 190.57621 -228.250088 
L 190.665017 -230.216548 
L 190.748122 -232.183009 
L 190.82576 -234.14947 
L 190.898174 -236.115931 
L 190.965594 -238.082392 
L 191.028219 -240.048853 
L 191.086216 -242.015313 
L 191.139713 -243.981774 
L 191.188807 -245.948235 
L 191.233568 -247.914696 
L 191.274052 -249.881157 
L 191.310322 -251.847618 
L 191.342466 -253.814078 
L 191.370628 -255.780539 
L 191.395028 -257.747 
L 191.415995 -259.713461 
L 191.433972 -261.679922 
L 191.449529 -263.646383 
L 191.463348 -265.612843 
L 191.476189 -267.579304 
L 191.488851 -269.545765 
L 191.502111 -271.512226 
L 191.516664 -273.478687 
L 191.533065 -275.445147 
L 192.284525 -275.445147 
L 192.284525 -275.445147 
L 192.300925 -273.478687 
L 192.315479 -271.512226 
L 192.328739 -269.545765 
L 192.341401 -267.579304 
L 192.354241 -265.612843 
L 192.36806 -263.646383 
L 192.383618 -261.679922 
L 192.401595 -259.713461 
L 192.422561 -257.747 
L 192.446962 -255.780539 
L 192.475123 -253.814078 
L 192.507267 -251.847618 
L 192.543537 -249.881157 
L 192.584021 -247.914696 
L 192.628782 -245.948235 
L 192.677876 -243.981774 
L 192.731374 -242.015313 
L 192.789371 -240.048853 
L 192.851996 -238.082392 
L 192.919415 -236.115931 
L 192.991829 -234.14947 
L 193.069467 -232.183009 
L 193.152573 -230.216548 
L 193.241379 -228.250088 
L 193.336083 -226.283627 
L 193.436801 -224.317166 
L 193.543532 -222.350705 
L 193.656108 -220.384244 
L 193.774162 -218.417783 
L 193.897093 -216.451323 
L 194.024062 -214.484862 
L 194.154003 -212.518401 
L 194.285659 -210.55194 
L 194.417659 -208.585479 
L 194.548606 -206.619018 
L 194.677204 -204.652558 
L 194.802389 -202.686097 
L 194.923472 -200.719636 
L 195.040266 -198.753175 
L 195.153192 -196.786714 
L 195.263338 -194.820253 
L 195.372471 -192.853793 
L 195.482983 -190.887332 
L 195.597775 -188.920871 
L 195.72009 -186.95441 
L 195.853309 -184.987949 
L 196.000728 -183.021488 
L 196.165351 -181.055028 
L 196.349708 -179.088567 
L 196.555739 -177.122106 
L 196.784733 -175.155645 
L 197.037344 -173.189184 
L 197.313656 -171.222723 
L 197.613295 -169.256263 
L 197.935552 -167.289802 
L 198.279508 -165.323341 
L 198.644114 -163.35688 
L 199.028237 -161.390419 
L 199.430642 -159.423958 
L 199.849932 -157.457498 
L 200.284434 -155.491037 
L 200.732078 -153.524576 
L 201.190271 -151.558115 
L 201.655795 -149.591654 
L 202.124772 -147.625193 
L 202.592684 -145.658733 
L 203.05449 -143.692272 
L 203.504816 -141.725811 
L 203.938224 -139.75935 
L 204.349531 -137.792889 
L 204.734139 -135.826428 
L 205.088341 -133.859968 
L 205.409564 -131.893507 
L 205.696486 -129.927046 
L 205.949025 -127.960585 
L 206.168162 -125.994124 
L 206.355608 -124.027664 
L 206.51335 -122.061203 
L 206.643116 -120.094742 
L 206.745827 -118.128281 
L 206.821107 -116.16182 
L 206.866922 -114.195359 
L 206.879407 -112.228899 
L 206.852926 -110.262438 
L 206.780364 -108.295977 
L 206.653642 -106.329516 
L 206.464413 -104.363055 
L 206.20486 -102.396594 
L 205.868531 -100.430134 
L 205.451105 -98.463673 
L 204.951035 -96.497212 
L 204.369977 -94.530751 
L 203.712984 -92.56429 
L 202.988433 -90.597829 
L 202.207696 -88.631369 
L 201.384588 -86.664908 
L 200.534648 -84.698447 
L 199.674305 -82.731986 
L 198.820007 -80.765525 
z
" style="stroke: #000000; stroke-opacity: 0.7"/>
    </defs>
    <g clip-path="url(#p59f90e56ed)">
     <use xlink:href="#m0dd3d0cc64" x="0" y="319.934957" style="fill: #8da0cb; fill-opacity: 0.7; stroke: #000000; stroke-opacity: 0.7"/>
    </g>
   </g>
   <g id="PolyCollection_4">
    <defs>
     <path id="m97c1b6144c" d="M 250.155611 -74.366159 
L 238.456264 -74.366159 
L 237.810837 -76.215807 
L 237.157333 -78.065454 
L 236.502683 -79.915101 
L 235.853404 -81.764749 
L 235.21544 -83.614396 
L 234.594089 -85.464044 
L 233.994007 -87.313691 
L 233.41927 -89.163339 
L 232.873472 -91.012986 
L 232.359831 -92.862633 
L 231.881273 -94.712281 
L 231.440457 -96.561928 
L 231.039758 -98.411576 
L 230.681169 -100.261223 
L 230.366176 -102.11087 
L 230.095594 -103.960518 
L 229.86943 -105.810165 
L 229.686778 -107.659813 
L 229.545795 -109.50946 
L 229.44377 -111.359108 
L 229.377285 -113.208755 
L 229.342472 -115.058402 
L 229.335325 -116.90805 
L 229.352062 -118.757697 
L 229.389464 -120.607345 
L 229.445188 -122.456992 
L 229.517997 -124.306639 
L 229.607888 -126.156287 
L 229.71611 -128.005934 
L 229.845051 -129.855582 
L 229.998022 -131.705229 
L 230.178936 -133.554876 
L 230.391913 -135.404524 
L 230.640851 -137.254171 
L 230.928982 -139.103819 
L 231.258477 -140.953466 
L 231.630105 -142.803114 
L 232.043008 -144.652761 
L 232.494591 -146.502408 
L 232.980552 -148.352056 
L 233.49505 -150.201703 
L 234.030984 -152.051351 
L 234.58037 -153.900998 
L 235.13477 -155.750645 
L 235.685741 -157.600293 
L 236.225251 -159.44994 
L 236.74605 -161.299588 
L 237.24195 -163.149235 
L 237.708013 -164.998883 
L 238.140649 -166.84853 
L 238.537618 -168.698177 
L 238.897969 -170.547825 
L 239.221925 -172.397472 
L 239.510736 -174.24712 
L 239.766515 -176.096767 
L 239.99207 -177.946414 
L 240.190739 -179.796062 
L 240.36622 -181.645709 
L 240.52241 -183.495357 
L 240.663237 -185.345004 
L 240.792491 -187.194652 
L 240.913666 -189.044299 
L 241.029808 -190.893946 
L 241.143379 -192.743594 
L 241.256174 -194.593241 
L 241.369268 -196.442889 
L 241.483027 -198.292536 
L 241.597186 -200.142183 
L 241.710968 -201.991831 
L 241.823261 -203.841478 
L 241.932811 -205.691126 
L 242.038432 -207.540773 
L 242.139185 -209.390421 
L 242.23452 -211.240068 
L 242.324365 -213.089715 
L 242.40914 -214.939363 
L 242.489707 -216.78901 
L 242.567256 -218.638658 
L 242.643152 -220.488305 
L 242.718752 -222.337952 
L 242.795228 -224.1876 
L 242.873413 -226.037247 
L 242.953684 -227.886895 
L 243.035919 -229.736542 
L 243.119497 -231.586189 
L 243.203374 -233.435837 
L 243.286203 -235.285484 
L 243.366488 -237.135132 
L 243.442754 -238.984779 
L 243.513708 -240.834427 
L 243.578374 -242.684074 
L 243.636188 -244.533721 
L 243.687041 -246.383369 
L 243.731271 -248.233016 
L 243.769602 -250.082664 
L 243.803054 -251.932311 
L 243.832819 -253.781958 
L 243.860133 -255.631606 
L 243.886153 -257.481253 
L 244.725722 -257.481253 
L 244.725722 -257.481253 
L 244.751742 -255.631606 
L 244.779056 -253.781958 
L 244.808821 -251.932311 
L 244.842273 -250.082664 
L 244.880604 -248.233016 
L 244.924834 -246.383369 
L 244.975687 -244.533721 
L 245.033501 -242.684074 
L 245.098167 -240.834427 
L 245.169121 -238.984779 
L 245.245387 -237.135132 
L 245.325672 -235.285484 
L 245.408501 -233.435837 
L 245.492378 -231.586189 
L 245.575956 -229.736542 
L 245.658191 -227.886895 
L 245.738462 -226.037247 
L 245.816647 -224.1876 
L 245.893123 -222.337952 
L 245.968723 -220.488305 
L 246.044619 -218.638658 
L 246.122168 -216.78901 
L 246.202735 -214.939363 
L 246.28751 -213.089715 
L 246.377355 -211.240068 
L 246.47269 -209.390421 
L 246.573443 -207.540773 
L 246.679064 -205.691126 
L 246.788614 -203.841478 
L 246.900907 -201.991831 
L 247.014689 -200.142183 
L 247.128848 -198.292536 
L 247.242607 -196.442889 
L 247.355701 -194.593241 
L 247.468496 -192.743594 
L 247.582067 -190.893946 
L 247.698209 -189.044299 
L 247.819384 -187.194652 
L 247.948638 -185.345004 
L 248.089465 -183.495357 
L 248.245655 -181.645709 
L 248.421136 -179.796062 
L 248.619805 -177.946414 
L 248.84536 -176.096767 
L 249.101139 -174.24712 
L 249.38995 -172.397472 
L 249.713906 -170.547825 
L 250.074257 -168.698177 
L 250.471226 -166.84853 
L 250.903862 -164.998883 
L 251.369925 -163.149235 
L 251.865825 -161.299588 
L 252.386624 -159.44994 
L 252.926134 -157.600293 
L 253.477105 -155.750645 
L 254.031505 -153.900998 
L 254.580891 -152.051351 
L 255.116825 -150.201703 
L 255.631323 -148.352056 
L 256.117284 -146.502408 
L 256.568867 -144.652761 
L 256.98177 -142.803114 
L 257.353398 -140.953466 
L 257.682893 -139.103819 
L 257.971024 -137.254171 
L 258.219962 -135.404524 
L 258.432939 -133.554876 
L 258.613853 -131.705229 
L 258.766824 -129.855582 
L 258.895765 -128.005934 
L 259.003987 -126.156287 
L 259.093878 -124.306639 
L 259.166687 -122.456992 
L 259.222411 -120.607345 
L 259.259813 -118.757697 
L 259.27655 -116.90805 
L 259.269403 -115.058402 
L 259.23459 -113.208755 
L 259.168105 -111.359108 
L 259.06608 -109.50946 
L 258.925097 -107.659813 
L 258.742445 -105.810165 
L 258.516281 -103.960518 
L 258.245699 -102.11087 
L 257.930706 -100.261223 
L 257.572117 -98.411576 
L 257.171418 -96.561928 
L 256.730602 -94.712281 
L 256.252044 -92.862633 
L 255.738403 -91.012986 
L 255.192605 -89.163339 
L 254.617868 -87.313691 
L 254.017786 -85.464044 
L 253.396435 -83.614396 
L 252.758471 -81.764749 
L 252.109192 -79.915101 
L 251.454542 -78.065454 
L 250.801038 -76.215807 
L 250.155611 -74.366159 
z
" style="stroke: #000000; stroke-opacity: 0.7"/>
    </defs>
    <g clip-path="url(#p59f90e56ed)">
     <use xlink:href="#m97c1b6144c" x="0" y="319.934957" style="fill: #17becf; fill-opacity: 0.7; stroke: #000000; stroke-opacity: 0.7"/>
    </g>
   </g>
   <g id="PolyCollection_5">
    <defs>
     <path id="m65d6204bd3" d="M 305.209248 -76.723224 
L 288.196912 -76.723224 
L 287.391935 -78.771348 
L 286.59857 -80.819471 
L 285.830061 -82.867595 
L 285.099458 -84.915718 
L 284.41913 -86.963842 
L 283.80029 -89.011965 
L 283.252581 -91.060089 
L 282.783713 -93.108212 
L 282.399208 -95.156336 
L 282.102234 -97.204459 
L 281.89355 -99.252583 
L 281.771561 -101.300706 
L 281.732468 -103.34883 
L 281.770507 -105.396953 
L 281.878254 -107.445077 
L 282.04699 -109.4932 
L 282.267086 -111.541323 
L 282.528413 -113.589447 
L 282.820736 -115.63757 
L 283.134102 -117.685694 
L 283.459177 -119.733817 
L 283.787555 -121.781941 
L 284.112005 -123.830064 
L 284.426652 -125.878188 
L 284.727097 -127.926311 
L 285.010464 -129.974435 
L 285.275365 -132.022558 
L 285.521806 -134.070682 
L 285.751013 -136.118805 
L 285.965214 -138.166929 
L 286.167364 -140.215052 
L 286.360861 -142.263176 
L 286.549238 -144.311299 
L 286.735881 -146.359423 
L 286.923778 -148.407546 
L 287.115319 -150.455669 
L 287.312164 -152.503793 
L 287.515173 -154.551916 
L 287.724421 -156.60004 
L 287.939267 -158.648163 
L 288.158483 -160.696287 
L 288.380419 -162.74441 
L 288.603189 -164.792534 
L 288.824858 -166.840657 
L 289.043609 -168.888781 
L 289.257887 -170.936904 
L 289.4665 -172.985028 
L 289.668678 -175.033151 
L 289.864089 -177.081275 
L 290.052817 -179.129398 
L 290.235306 -181.177522 
L 290.412289 -183.225645 
L 290.584696 -185.273769 
L 290.753566 -187.321892 
L 290.919954 -189.370015 
L 291.084858 -191.418139 
L 291.249153 -193.466262 
L 291.413546 -195.514386 
L 291.57854 -197.562509 
L 291.744424 -199.610633 
L 291.911268 -201.658756 
L 292.078944 -203.70688 
L 292.247142 -205.755003 
L 292.415408 -207.803127 
L 292.583181 -209.85125 
L 292.749832 -211.899374 
L 292.914709 -213.947497 
L 293.07717 -215.995621 
L 293.236619 -218.043744 
L 293.392527 -220.091868 
L 293.544449 -222.139991 
L 293.69203 -224.188115 
L 293.834997 -226.236238 
L 293.97315 -228.284361 
L 294.106343 -230.332485 
L 294.234466 -232.380608 
L 294.357422 -234.428732 
L 294.475112 -236.476855 
L 294.587422 -238.524979 
L 294.694223 -240.573102 
L 294.795374 -242.621226 
L 294.890736 -244.669349 
L 294.980196 -246.717473 
L 295.063684 -248.765596 
L 295.141212 -250.81372 
L 295.21289 -252.861843 
L 295.278952 -254.909967 
L 295.33977 -256.95809 
L 295.395857 -259.006214 
L 295.447858 -261.054337 
L 295.496531 -263.102461 
L 295.542717 -265.150584 
L 295.587299 -267.198707 
L 295.631158 -269.246831 
L 295.67512 -271.294954 
L 295.719914 -273.343078 
L 295.766122 -275.391201 
L 295.814154 -277.439325 
L 295.864219 -279.487448 
L 297.541942 -279.487448 
L 297.541942 -279.487448 
L 297.592006 -277.439325 
L 297.640038 -275.391201 
L 297.686247 -273.343078 
L 297.73104 -271.294954 
L 297.775003 -269.246831 
L 297.818862 -267.198707 
L 297.863444 -265.150584 
L 297.90963 -263.102461 
L 297.958303 -261.054337 
L 298.010303 -259.006214 
L 298.06639 -256.95809 
L 298.127209 -254.909967 
L 298.193271 -252.861843 
L 298.264949 -250.81372 
L 298.342476 -248.765596 
L 298.425965 -246.717473 
L 298.515424 -244.669349 
L 298.610787 -242.621226 
L 298.711938 -240.573102 
L 298.818739 -238.524979 
L 298.931049 -236.476855 
L 299.048738 -234.428732 
L 299.171694 -232.380608 
L 299.299818 -230.332485 
L 299.433011 -228.284361 
L 299.571164 -226.236238 
L 299.71413 -224.188115 
L 299.861711 -222.139991 
L 300.013634 -220.091868 
L 300.169542 -218.043744 
L 300.328991 -215.995621 
L 300.491452 -213.947497 
L 300.656329 -211.899374 
L 300.82298 -209.85125 
L 300.990753 -207.803127 
L 301.159019 -205.755003 
L 301.327217 -203.70688 
L 301.494892 -201.658756 
L 301.661737 -199.610633 
L 301.82762 -197.562509 
L 301.992615 -195.514386 
L 302.157007 -193.466262 
L 302.321303 -191.418139 
L 302.486207 -189.370015 
L 302.652595 -187.321892 
L 302.821464 -185.273769 
L 302.993872 -183.225645 
L 303.170855 -181.177522 
L 303.353344 -179.129398 
L 303.542072 -177.081275 
L 303.737483 -175.033151 
L 303.939661 -172.985028 
L 304.148274 -170.936904 
L 304.362552 -168.888781 
L 304.581303 -166.840657 
L 304.802971 -164.792534 
L 305.025742 -162.74441 
L 305.247678 -160.696287 
L 305.466894 -158.648163 
L 305.68174 -156.60004 
L 305.890988 -154.551916 
L 306.093997 -152.503793 
L 306.290841 -150.455669 
L 306.482383 -148.407546 
L 306.67028 -146.359423 
L 306.856923 -144.311299 
L 307.045299 -142.263176 
L 307.238796 -140.215052 
L 307.440947 -138.166929 
L 307.655147 -136.118805 
L 307.884355 -134.070682 
L 308.130795 -132.022558 
L 308.395697 -129.974435 
L 308.679064 -127.926311 
L 308.979509 -125.878188 
L 309.294156 -123.830064 
L 309.618606 -121.781941 
L 309.946984 -119.733817 
L 310.272059 -117.685694 
L 310.585424 -115.63757 
L 310.877748 -113.589447 
L 311.139075 -111.541323 
L 311.359171 -109.4932 
L 311.527907 -107.445077 
L 311.635654 -105.396953 
L 311.673693 -103.34883 
L 311.6346 -101.300706 
L 311.512611 -99.252583 
L 311.303927 -97.204459 
L 311.006952 -95.156336 
L 310.622448 -93.108212 
L 310.15358 -91.060089 
L 309.60587 -89.011965 
L 308.987031 -86.963842 
L 308.306702 -84.915718 
L 307.576099 -82.867595 
L 306.80759 -80.819471 
L 306.014225 -78.771348 
L 305.209248 -76.723224 
z
" style="stroke: #000000; stroke-opacity: 0.7"/>
    </defs>
    <g clip-path="url(#p59f90e56ed)">
     <use xlink:href="#m65d6204bd3" x="0" y="319.934957" style="fill: #9edae5; fill-opacity: 0.7; stroke: #000000; stroke-opacity: 0.7"/>
    </g>
   </g>
   <g id="PolyCollection_6">
    <defs>
     <path id="m2c3f0fd860" d="M 353.567466 -71.437284 
L 344.63298 -71.437284 
L 343.951269 -73.537524 
L 343.22453 -75.637763 
L 342.461053 -77.738003 
L 341.67102 -79.838242 
L 340.866231 -81.938482 
L 340.05971 -84.038722 
L 339.265211 -86.138961 
L 338.496622 -88.239201 
L 337.767332 -90.339441 
L 337.089572 -92.43968 
L 336.4738 -94.53992 
L 335.928153 -96.64016 
L 335.458032 -98.740399 
L 335.06585 -100.840639 
L 334.750954 -102.940879 
L 334.509757 -105.041118 
L 334.336055 -107.141358 
L 334.221508 -109.241597 
L 334.156256 -111.341837 
L 334.129611 -113.442077 
L 334.130764 -115.542316 
L 334.149471 -117.642556 
L 334.17664 -119.742796 
L 334.204801 -121.843035 
L 334.22842 -123.943275 
L 334.244046 -126.043515 
L 334.250308 -128.143754 
L 334.247758 -130.243994 
L 334.238611 -132.344234 
L 334.226395 -134.444473 
L 334.215561 -136.544713 
L 334.211083 -138.644952 
L 334.218077 -140.745192 
L 334.24147 -142.845432 
L 334.285733 -144.945671 
L 334.354692 -147.045911 
L 334.451418 -149.146151 
L 334.578191 -151.24639 
L 334.736537 -153.34663 
L 334.927305 -155.44687 
L 335.15078 -157.547109 
L 335.406802 -159.647349 
L 335.694872 -161.747589 
L 336.014233 -163.847828 
L 336.363903 -165.948068 
L 336.74267 -168.048307 
L 337.149043 -170.148547 
L 337.58116 -172.248787 
L 338.036694 -174.349026 
L 338.512755 -176.449266 
L 339.005807 -178.549506 
L 339.511644 -180.649745 
L 340.025408 -182.749985 
L 340.541674 -184.850225 
L 341.054608 -186.950464 
L 341.558172 -189.050704 
L 342.046376 -191.150943 
L 342.513551 -193.251183 
L 342.954629 -195.351423 
L 343.36539 -197.451662 
L 343.742669 -199.551902 
L 344.084503 -201.652142 
L 344.390193 -203.752381 
L 344.660298 -205.852621 
L 344.896536 -207.952861 
L 345.101629 -210.0531 
L 345.27908 -212.15334 
L 345.432925 -214.25358 
L 345.567458 -216.353819 
L 345.686979 -218.454059 
L 345.795555 -220.554298 
L 345.896835 -222.654538 
L 345.993923 -224.754778 
L 346.0893 -226.855017 
L 346.184817 -228.955257 
L 346.281733 -231.055497 
L 346.380791 -233.155736 
L 346.482317 -235.255976 
L 346.586324 -237.356216 
L 346.692614 -239.456455 
L 346.800851 -241.556695 
L 346.91062 -243.656935 
L 347.021455 -245.757174 
L 347.132846 -247.857414 
L 347.244239 -249.957653 
L 347.355022 -252.057893 
L 347.464527 -254.158133 
L 347.572037 -256.258372 
L 347.676807 -258.358612 
L 347.778108 -260.458852 
L 347.875273 -262.559091 
L 347.967748 -264.659331 
L 348.05514 -266.759571 
L 348.137248 -268.85981 
L 348.214077 -270.96005 
L 348.285827 -273.06029 
L 348.352857 -275.160529 
L 348.415642 -277.260769 
L 348.474707 -279.361008 
L 349.72574 -279.361008 
L 349.72574 -279.361008 
L 349.784804 -277.260769 
L 349.847589 -275.160529 
L 349.91462 -273.06029 
L 349.986369 -270.96005 
L 350.063198 -268.85981 
L 350.145307 -266.759571 
L 350.232699 -264.659331 
L 350.325174 -262.559091 
L 350.422338 -260.458852 
L 350.52364 -258.358612 
L 350.62841 -256.258372 
L 350.735919 -254.158133 
L 350.845424 -252.057893 
L 350.956208 -249.957653 
L 351.0676 -247.857414 
L 351.178992 -245.757174 
L 351.289826 -243.656935 
L 351.399595 -241.556695 
L 351.507833 -239.456455 
L 351.614122 -237.356216 
L 351.71813 -235.255976 
L 351.819655 -233.155736 
L 351.918713 -231.055497 
L 352.015629 -228.955257 
L 352.111147 -226.855017 
L 352.206523 -224.754778 
L 352.303611 -222.654538 
L 352.404892 -220.554298 
L 352.513467 -218.454059 
L 352.632988 -216.353819 
L 352.767522 -214.25358 
L 352.921366 -212.15334 
L 353.098818 -210.0531 
L 353.30391 -207.952861 
L 353.540148 -205.852621 
L 353.810253 -203.752381 
L 354.115944 -201.652142 
L 354.457777 -199.551902 
L 354.835057 -197.451662 
L 355.245817 -195.351423 
L 355.686895 -193.251183 
L 356.154071 -191.150943 
L 356.642274 -189.050704 
L 357.145838 -186.950464 
L 357.658772 -184.850225 
L 358.175039 -182.749985 
L 358.688802 -180.649745 
L 359.194639 -178.549506 
L 359.687692 -176.449266 
L 360.163752 -174.349026 
L 360.619287 -172.248787 
L 361.051404 -170.148547 
L 361.457776 -168.048307 
L 361.836544 -165.948068 
L 362.186214 -163.847828 
L 362.505574 -161.747589 
L 362.793644 -159.647349 
L 363.049666 -157.547109 
L 363.273142 -155.44687 
L 363.46391 -153.34663 
L 363.622256 -151.24639 
L 363.749029 -149.146151 
L 363.845754 -147.045911 
L 363.914713 -144.945671 
L 363.958977 -142.845432 
L 363.98237 -140.745192 
L 363.989364 -138.644952 
L 363.984885 -136.544713 
L 363.974051 -134.444473 
L 363.961835 -132.344234 
L 363.952688 -130.243994 
L 363.950139 -128.143754 
L 363.9564 -126.043515 
L 363.972027 -123.943275 
L 363.995645 -121.843035 
L 364.023806 -119.742796 
L 364.050975 -117.642556 
L 364.069682 -115.542316 
L 364.070835 -113.442077 
L 364.04419 -111.341837 
L 363.978939 -109.241597 
L 363.864392 -107.141358 
L 363.690689 -105.041118 
L 363.449492 -102.940879 
L 363.134596 -100.840639 
L 362.742414 -98.740399 
L 362.272294 -96.64016 
L 361.726646 -94.53992 
L 361.110874 -92.43968 
L 360.433115 -90.339441 
L 359.703825 -88.239201 
L 358.935236 -86.138961 
L 358.140736 -84.038722 
L 357.334216 -81.938482 
L 356.529426 -79.838242 
L 355.739393 -77.738003 
L 354.975917 -75.637763 
L 354.249177 -73.537524 
L 353.567466 -71.437284 
z
" style="stroke: #000000; stroke-opacity: 0.7"/>
    </defs>
    <g clip-path="url(#p59f90e56ed)">
     <use xlink:href="#m2c3f0fd860" x="0" y="319.934957" style="fill: #ff7f0e; fill-opacity: 0.7; stroke: #000000; stroke-opacity: 0.7"/>
    </g>
   </g>
   <g id="PolyCollection_7">
    <defs>
     <path id="m2d9ce47806" d="M 407.234493 -87.181876 
L 395.760239 -87.181876 
L 395.158931 -89.040406 
L 394.546695 -90.898937 
L 393.929821 -92.757467 
L 393.314769 -94.615997 
L 392.708003 -96.474528 
L 392.115797 -98.333058 
L 391.544061 -100.191589 
L 390.998153 -102.050119 
L 390.482714 -103.908649 
L 390.001523 -105.76718 
L 389.557383 -107.62571 
L 389.152052 -109.484241 
L 388.786222 -111.342771 
L 388.459553 -113.201302 
L 388.170761 -115.059832 
L 387.917759 -116.918362 
L 387.697832 -118.776893 
L 387.507844 -120.635423 
L 387.344453 -122.493954 
L 387.20431 -124.352484 
L 387.084241 -126.211015 
L 386.98138 -128.069545 
L 386.893254 -129.928075 
L 386.817818 -131.786606 
L 386.75344 -133.645136 
L 386.698843 -135.503667 
L 386.653036 -137.362197 
L 386.615226 -139.220727 
L 386.584754 -141.079258 
L 386.561061 -142.937788 
L 386.543679 -144.796319 
L 386.532281 -146.654849 
L 386.526754 -148.51338 
L 386.527298 -150.37191 
L 386.534538 -152.23044 
L 386.549607 -154.088971 
L 386.574204 -155.947501 
L 386.610594 -157.806032 
L 386.661541 -159.664562 
L 386.730178 -161.523092 
L 386.819817 -163.381623 
L 386.933716 -165.240153 
L 387.074822 -167.098684 
L 387.245523 -168.957214 
L 387.447432 -170.815745 
L 387.681223 -172.674275 
L 387.94655 -174.532805 
L 388.242033 -176.391336 
L 388.565341 -178.249866 
L 388.913335 -180.108397 
L 389.282268 -181.966927 
L 389.668016 -183.825458 
L 390.066311 -185.683988 
L 390.472959 -187.542518 
L 390.88402 -189.401049 
L 391.295936 -191.259579 
L 391.705608 -193.11811 
L 392.11042 -194.97664 
L 392.508225 -196.83517 
L 392.897296 -198.693701 
L 393.276279 -200.552231 
L 393.644131 -202.410762 
L 394.000092 -204.269292 
L 394.343664 -206.127823 
L 394.674614 -207.986353 
L 394.992989 -209.844883 
L 395.299145 -211.703414 
L 395.593752 -213.561944 
L 395.877793 -215.420475 
L 396.152521 -217.279005 
L 396.419397 -219.137536 
L 396.679973 -220.996066 
L 396.935772 -222.854596 
L 397.188131 -224.713127 
L 397.438064 -226.571657 
L 397.686129 -228.430188 
L 397.93234 -230.288718 
L 398.176117 -232.147248 
L 398.4163 -234.005779 
L 398.651212 -235.864309 
L 398.878778 -237.72284 
L 399.096683 -239.58137 
L 399.302563 -241.439901 
L 399.494197 -243.298431 
L 399.669695 -245.156961 
L 399.827661 -247.015492 
L 399.967312 -248.874022 
L 400.088551 -250.732553 
L 400.191984 -252.591083 
L 400.278879 -254.449613 
L 400.351083 -256.308144 
L 400.410887 -258.166674 
L 400.460874 -260.025205 
L 400.503745 -261.883735 
L 400.542148 -263.742266 
L 400.578519 -265.600796 
L 400.614952 -267.459326 
L 400.653099 -269.317857 
L 400.694113 -271.176387 
L 402.300619 -271.176387 
L 402.300619 -271.176387 
L 402.341633 -269.317857 
L 402.37978 -267.459326 
L 402.416213 -265.600796 
L 402.452584 -263.742266 
L 402.490987 -261.883735 
L 402.533858 -260.025205 
L 402.583845 -258.166674 
L 402.643649 -256.308144 
L 402.715853 -254.449613 
L 402.802748 -252.591083 
L 402.906181 -250.732553 
L 403.02742 -248.874022 
L 403.167071 -247.015492 
L 403.325037 -245.156961 
L 403.500535 -243.298431 
L 403.692169 -241.439901 
L 403.898049 -239.58137 
L 404.115955 -237.72284 
L 404.34352 -235.864309 
L 404.578432 -234.005779 
L 404.818615 -232.147248 
L 405.062392 -230.288718 
L 405.308603 -228.430188 
L 405.556668 -226.571657 
L 405.806601 -224.713127 
L 406.05896 -222.854596 
L 406.314759 -220.996066 
L 406.575335 -219.137536 
L 406.842211 -217.279005 
L 407.11694 -215.420475 
L 407.40098 -213.561944 
L 407.695587 -211.703414 
L 408.001743 -209.844883 
L 408.320118 -207.986353 
L 408.651068 -206.127823 
L 408.99464 -204.269292 
L 409.350601 -202.410762 
L 409.718454 -200.552231 
L 410.097436 -198.693701 
L 410.486507 -196.83517 
L 410.884312 -194.97664 
L 411.289124 -193.11811 
L 411.698796 -191.259579 
L 412.110712 -189.401049 
L 412.521773 -187.542518 
L 412.928421 -185.683988 
L 413.326716 -183.825458 
L 413.712464 -181.966927 
L 414.081397 -180.108397 
L 414.429391 -178.249866 
L 414.752699 -176.391336 
L 415.048182 -174.532805 
L 415.313509 -172.674275 
L 415.547301 -170.815745 
L 415.749209 -168.957214 
L 415.91991 -167.098684 
L 416.061016 -165.240153 
L 416.174915 -163.381623 
L 416.264554 -161.523092 
L 416.333191 -159.664562 
L 416.384138 -157.806032 
L 416.420528 -155.947501 
L 416.445125 -154.088971 
L 416.460194 -152.23044 
L 416.467434 -150.37191 
L 416.467978 -148.51338 
L 416.462451 -146.654849 
L 416.451053 -144.796319 
L 416.433671 -142.937788 
L 416.409978 -141.079258 
L 416.379506 -139.220727 
L 416.341696 -137.362197 
L 416.295889 -135.503667 
L 416.241292 -133.645136 
L 416.176914 -131.786606 
L 416.101478 -129.928075 
L 416.013352 -128.069545 
L 415.910491 -126.211015 
L 415.790422 -124.352484 
L 415.650279 -122.493954 
L 415.486888 -120.635423 
L 415.296901 -118.776893 
L 415.076973 -116.918362 
L 414.823971 -115.059832 
L 414.53518 -113.201302 
L 414.20851 -111.342771 
L 413.842681 -109.484241 
L 413.43735 -107.62571 
L 412.993209 -105.76718 
L 412.512018 -103.908649 
L 411.996579 -102.050119 
L 411.450671 -100.191589 
L 410.878935 -98.333058 
L 410.28673 -96.474528 
L 409.679963 -94.615997 
L 409.064912 -92.757467 
L 408.448037 -90.898937 
L 407.835801 -89.040406 
L 407.234493 -87.181876 
z
" style="stroke: #000000; stroke-opacity: 0.7"/>
    </defs>
    <g clip-path="url(#p59f90e56ed)">
     <use xlink:href="#m2d9ce47806" x="0" y="319.934957" style="fill: #f7b6d2; fill-opacity: 0.7; stroke: #000000; stroke-opacity: 0.7"/>
    </g>
   </g>
   <g id="matplotlib.axis_1">
    <g id="xtick_1">
     <g id="line2d_1">
      <defs>
       <path id="m3d29b0056e" d="M 0 0 
L 0 3.5 
" style="stroke: #000000; stroke-width: 0.8"/>
      </defs>
      <g>
       <use xlink:href="#m3d29b0056e" x="87.114509" y="258.900181" style="stroke: #000000; stroke-width: 0.8"/>
      </g>
     </g>
     <g id="text_1">
      <!-- Rosewood -->
      <g transform="translate(49.471679 307.619923) rotate(-45) scale(0.12 -0.12)">
       <defs>
        <path id="TimesNewRomanPSMT-52" d="M 4325 0 
L 3194 0 
L 1759 1981 
Q 1600 1975 1500 1975 
Q 1459 1975 1412 1976 
Q 1366 1978 1316 1981 
L 1316 750 
Q 1316 350 1403 253 
Q 1522 116 1759 116 
L 1925 116 
L 1925 0 
L 109 0 
L 109 116 
L 269 116 
Q 538 116 653 291 
Q 719 388 719 750 
L 719 3488 
Q 719 3888 631 3984 
Q 509 4122 269 4122 
L 109 4122 
L 109 4238 
L 1653 4238 
Q 2328 4238 2648 4139 
Q 2969 4041 3192 3777 
Q 3416 3513 3416 3147 
Q 3416 2756 3161 2468 
Q 2906 2181 2372 2063 
L 3247 847 
Q 3547 428 3762 290 
Q 3978 153 4325 116 
L 4325 0 
z
M 1316 2178 
Q 1375 2178 1419 2176 
Q 1463 2175 1491 2175 
Q 2097 2175 2405 2437 
Q 2713 2700 2713 3106 
Q 2713 3503 2464 3751 
Q 2216 4000 1806 4000 
Q 1625 4000 1316 3941 
L 1316 2178 
z
" transform="scale(0.015625)"/>
        <path id="TimesNewRomanPSMT-6f" d="M 1600 2947 
Q 2250 2947 2644 2453 
Q 2978 2031 2978 1484 
Q 2978 1100 2793 706 
Q 2609 313 2286 112 
Q 1963 -88 1566 -88 
Q 919 -88 538 428 
Q 216 863 216 1403 
Q 216 1797 411 2186 
Q 606 2575 925 2761 
Q 1244 2947 1600 2947 
z
M 1503 2744 
Q 1338 2744 1170 2645 
Q 1003 2547 900 2300 
Q 797 2053 797 1666 
Q 797 1041 1045 587 
Q 1294 134 1700 134 
Q 2003 134 2200 384 
Q 2397 634 2397 1244 
Q 2397 2006 2069 2444 
Q 1847 2744 1503 2744 
z
" transform="scale(0.015625)"/>
        <path id="TimesNewRomanPSMT-73" d="M 2050 2947 
L 2050 1972 
L 1947 1972 
Q 1828 2431 1642 2597 
Q 1456 2763 1169 2763 
Q 950 2763 815 2647 
Q 681 2531 681 2391 
Q 681 2216 781 2091 
Q 878 1963 1175 1819 
L 1631 1597 
Q 2266 1288 2266 781 
Q 2266 391 1970 151 
Q 1675 -88 1309 -88 
Q 1047 -88 709 6 
Q 606 38 541 38 
Q 469 38 428 -44 
L 325 -44 
L 325 978 
L 428 978 
Q 516 541 762 319 
Q 1009 97 1316 97 
Q 1531 97 1667 223 
Q 1803 350 1803 528 
Q 1803 744 1651 891 
Q 1500 1038 1047 1263 
Q 594 1488 453 1669 
Q 313 1847 313 2119 
Q 313 2472 555 2709 
Q 797 2947 1181 2947 
Q 1350 2947 1591 2875 
Q 1750 2828 1803 2828 
Q 1853 2828 1881 2850 
Q 1909 2872 1947 2947 
L 2050 2947 
z
" transform="scale(0.015625)"/>
        <path id="TimesNewRomanPSMT-65" d="M 681 1784 
Q 678 1147 991 784 
Q 1303 422 1725 422 
Q 2006 422 2214 576 
Q 2422 731 2563 1106 
L 2659 1044 
Q 2594 616 2278 264 
Q 1963 -88 1488 -88 
Q 972 -88 605 314 
Q 238 716 238 1394 
Q 238 2128 614 2539 
Q 991 2950 1559 2950 
Q 2041 2950 2350 2633 
Q 2659 2316 2659 1784 
L 681 1784 
z
M 681 1966 
L 2006 1966 
Q 1991 2241 1941 2353 
Q 1863 2528 1708 2628 
Q 1553 2728 1384 2728 
Q 1125 2728 920 2526 
Q 716 2325 681 1966 
z
" transform="scale(0.015625)"/>
        <path id="TimesNewRomanPSMT-77" d="M 41 2863 
L 1241 2863 
L 1241 2747 
Q 1075 2734 1023 2687 
Q 972 2641 972 2553 
Q 972 2456 1025 2319 
L 1638 672 
L 2253 2013 
L 2091 2434 
Q 2016 2622 1894 2694 
Q 1825 2738 1638 2747 
L 1638 2863 
L 3000 2863 
L 3000 2747 
Q 2775 2738 2681 2666 
Q 2619 2616 2619 2506 
Q 2619 2444 2644 2378 
L 3294 734 
L 3897 2319 
Q 3959 2488 3959 2588 
Q 3959 2647 3898 2694 
Q 3838 2741 3659 2747 
L 3659 2863 
L 4563 2863 
L 4563 2747 
Q 4291 2706 4163 2378 
L 3206 -88 
L 3078 -88 
L 2363 1741 
L 1528 -88 
L 1413 -88 
L 494 2319 
Q 403 2547 315 2626 
Q 228 2706 41 2747 
L 41 2863 
z
" transform="scale(0.015625)"/>
        <path id="TimesNewRomanPSMT-64" d="M 2222 322 
Q 2013 103 1813 7 
Q 1613 -88 1381 -88 
Q 913 -88 563 304 
Q 213 697 213 1313 
Q 213 1928 600 2439 
Q 988 2950 1597 2950 
Q 1975 2950 2222 2709 
L 2222 3238 
Q 2222 3728 2198 3840 
Q 2175 3953 2125 3993 
Q 2075 4034 2000 4034 
Q 1919 4034 1784 3984 
L 1744 4094 
L 2597 4444 
L 2738 4444 
L 2738 1134 
Q 2738 631 2761 520 
Q 2784 409 2836 365 
Q 2888 322 2956 322 
Q 3041 322 3181 375 
L 3216 266 
L 2366 -88 
L 2222 -88 
L 2222 322 
z
M 2222 541 
L 2222 2016 
Q 2203 2228 2109 2403 
Q 2016 2578 1861 2667 
Q 1706 2756 1559 2756 
Q 1284 2756 1069 2509 
Q 784 2184 784 1559 
Q 784 928 1059 592 
Q 1334 256 1672 256 
Q 1956 256 2222 541 
z
" transform="scale(0.015625)"/>
       </defs>
       <use xlink:href="#TimesNewRomanPSMT-52"/>
       <use xlink:href="#TimesNewRomanPSMT-6f" x="66.699219"/>
       <use xlink:href="#TimesNewRomanPSMT-73" x="116.699219"/>
       <use xlink:href="#TimesNewRomanPSMT-65" x="155.615234"/>
       <use xlink:href="#TimesNewRomanPSMT-77" x="200"/>
       <use xlink:href="#TimesNewRomanPSMT-6f" x="272.216797"/>
       <use xlink:href="#TimesNewRomanPSMT-6f" x="322.216797"/>
       <use xlink:href="#TimesNewRomanPSMT-64" x="372.216797"/>
      </g>
     </g>
    </g>
    <g id="xtick_2">
     <g id="line2d_2">
      <g>
       <use xlink:href="#m3d29b0056e" x="139.511652" y="258.900181" style="stroke: #000000; stroke-width: 0.8"/>
      </g>
     </g>
     <g id="text_2">
      <!-- Pinehaven -->
      <g transform="translate(102.350097 307.138648) rotate(-45) scale(0.12 -0.12)">
       <defs>
        <path id="TimesNewRomanPSMT-50" d="M 1313 1984 
L 1313 750 
Q 1313 350 1400 253 
Q 1519 116 1759 116 
L 1922 116 
L 1922 0 
L 106 0 
L 106 116 
L 266 116 
Q 534 116 650 291 
Q 713 388 713 750 
L 713 3488 
Q 713 3888 628 3984 
Q 506 4122 266 4122 
L 106 4122 
L 106 4238 
L 1659 4238 
Q 2228 4238 2556 4120 
Q 2884 4003 3109 3725 
Q 3334 3447 3334 3066 
Q 3334 2547 2992 2222 
Q 2650 1897 2025 1897 
Q 1872 1897 1694 1919 
Q 1516 1941 1313 1984 
z
M 1313 2163 
Q 1478 2131 1606 2115 
Q 1734 2100 1825 2100 
Q 2150 2100 2386 2351 
Q 2622 2603 2622 3003 
Q 2622 3278 2509 3514 
Q 2397 3750 2190 3867 
Q 1984 3984 1722 3984 
Q 1563 3984 1313 3925 
L 1313 2163 
z
" transform="scale(0.015625)"/>
        <path id="TimesNewRomanPSMT-69" d="M 928 4444 
Q 1059 4444 1151 4351 
Q 1244 4259 1244 4128 
Q 1244 3997 1151 3903 
Q 1059 3809 928 3809 
Q 797 3809 703 3903 
Q 609 3997 609 4128 
Q 609 4259 701 4351 
Q 794 4444 928 4444 
z
M 1188 2947 
L 1188 647 
Q 1188 378 1227 289 
Q 1266 200 1342 156 
Q 1419 113 1622 113 
L 1622 0 
L 231 0 
L 231 113 
Q 441 113 512 153 
Q 584 194 626 287 
Q 669 381 669 647 
L 669 1750 
Q 669 2216 641 2353 
Q 619 2453 572 2492 
Q 525 2531 444 2531 
Q 356 2531 231 2484 
L 188 2597 
L 1050 2947 
L 1188 2947 
z
" transform="scale(0.015625)"/>
        <path id="TimesNewRomanPSMT-6e" d="M 1034 2341 
Q 1538 2947 1994 2947 
Q 2228 2947 2397 2830 
Q 2566 2713 2666 2444 
Q 2734 2256 2734 1869 
L 2734 647 
Q 2734 375 2778 278 
Q 2813 200 2889 156 
Q 2966 113 3172 113 
L 3172 0 
L 1756 0 
L 1756 113 
L 1816 113 
Q 2016 113 2095 173 
Q 2175 234 2206 353 
Q 2219 400 2219 647 
L 2219 1819 
Q 2219 2209 2117 2386 
Q 2016 2563 1775 2563 
Q 1403 2563 1034 2156 
L 1034 647 
Q 1034 356 1069 288 
Q 1113 197 1189 155 
Q 1266 113 1500 113 
L 1500 0 
L 84 0 
L 84 113 
L 147 113 
Q 366 113 442 223 
Q 519 334 519 647 
L 519 1709 
Q 519 2225 495 2337 
Q 472 2450 423 2490 
Q 375 2531 294 2531 
Q 206 2531 84 2484 
L 38 2597 
L 900 2947 
L 1034 2947 
L 1034 2341 
z
" transform="scale(0.015625)"/>
        <path id="TimesNewRomanPSMT-68" d="M 1041 4444 
L 1041 2350 
Q 1388 2731 1591 2839 
Q 1794 2947 1997 2947 
Q 2241 2947 2416 2812 
Q 2591 2678 2675 2391 
Q 2734 2191 2734 1659 
L 2734 647 
Q 2734 375 2778 275 
Q 2809 200 2884 156 
Q 2959 113 3159 113 
L 3159 0 
L 1753 0 
L 1753 113 
L 1819 113 
Q 2019 113 2097 173 
Q 2175 234 2206 353 
Q 2216 403 2216 647 
L 2216 1659 
Q 2216 2128 2167 2275 
Q 2119 2422 2012 2495 
Q 1906 2569 1756 2569 
Q 1603 2569 1437 2487 
Q 1272 2406 1041 2159 
L 1041 647 
Q 1041 353 1073 281 
Q 1106 209 1195 161 
Q 1284 113 1503 113 
L 1503 0 
L 84 0 
L 84 113 
Q 275 113 384 172 
Q 447 203 484 290 
Q 522 378 522 647 
L 522 3238 
Q 522 3728 498 3840 
Q 475 3953 426 3993 
Q 378 4034 297 4034 
Q 231 4034 84 3984 
L 41 4094 
L 897 4444 
L 1041 4444 
z
" transform="scale(0.015625)"/>
        <path id="TimesNewRomanPSMT-61" d="M 1822 413 
Q 1381 72 1269 19 
Q 1100 -59 909 -59 
Q 613 -59 420 144 
Q 228 347 228 678 
Q 228 888 322 1041 
Q 450 1253 767 1440 
Q 1084 1628 1822 1897 
L 1822 2009 
Q 1822 2438 1686 2597 
Q 1550 2756 1291 2756 
Q 1094 2756 978 2650 
Q 859 2544 859 2406 
L 866 2225 
Q 866 2081 792 2003 
Q 719 1925 600 1925 
Q 484 1925 411 2006 
Q 338 2088 338 2228 
Q 338 2497 613 2722 
Q 888 2947 1384 2947 
Q 1766 2947 2009 2819 
Q 2194 2722 2281 2516 
Q 2338 2381 2338 1966 
L 2338 994 
Q 2338 584 2353 492 
Q 2369 400 2405 369 
Q 2441 338 2488 338 
Q 2538 338 2575 359 
Q 2641 400 2828 588 
L 2828 413 
Q 2478 -56 2159 -56 
Q 2006 -56 1915 50 
Q 1825 156 1822 413 
z
M 1822 616 
L 1822 1706 
Q 1350 1519 1213 1441 
Q 966 1303 859 1153 
Q 753 1003 753 825 
Q 753 600 887 451 
Q 1022 303 1197 303 
Q 1434 303 1822 616 
z
" transform="scale(0.015625)"/>
        <path id="TimesNewRomanPSMT-76" d="M 53 2863 
L 1400 2863 
L 1400 2747 
L 1313 2747 
Q 1191 2747 1127 2687 
Q 1063 2628 1063 2528 
Q 1063 2419 1128 2269 
L 1794 688 
L 2463 2328 
Q 2534 2503 2534 2594 
Q 2534 2638 2509 2666 
Q 2475 2713 2422 2730 
Q 2369 2747 2206 2747 
L 2206 2863 
L 3141 2863 
L 3141 2747 
Q 2978 2734 2916 2681 
Q 2806 2588 2719 2369 
L 1703 -88 
L 1575 -88 
L 553 2328 
Q 484 2497 421 2570 
Q 359 2644 263 2694 
Q 209 2722 53 2747 
L 53 2863 
z
" transform="scale(0.015625)"/>
       </defs>
       <use xlink:href="#TimesNewRomanPSMT-50"/>
       <use xlink:href="#TimesNewRomanPSMT-69" x="55.615234"/>
       <use xlink:href="#TimesNewRomanPSMT-6e" x="83.398438"/>
       <use xlink:href="#TimesNewRomanPSMT-65" x="133.398438"/>
       <use xlink:href="#TimesNewRomanPSMT-68" x="177.783203"/>
       <use xlink:href="#TimesNewRomanPSMT-61" x="227.783203"/>
       <use xlink:href="#TimesNewRomanPSMT-76" x="272.167969"/>
       <use xlink:href="#TimesNewRomanPSMT-65" x="322.167969"/>
       <use xlink:href="#TimesNewRomanPSMT-6e" x="366.552734"/>
      </g>
     </g>
    </g>
    <g id="xtick_3">
     <g id="line2d_3">
      <g>
       <use xlink:href="#m3d29b0056e" x="191.908795" y="258.900181" style="stroke: #000000; stroke-width: 0.8"/>
      </g>
     </g>
     <g id="text_3">
      <!-- Glenhaven -->
      <g transform="translate(153.337887 308.548) rotate(-45) scale(0.12 -0.12)">
       <defs>
        <path id="TimesNewRomanPSMT-47" d="M 3928 4334 
L 4038 2997 
L 3928 2997 
Q 3763 3497 3500 3750 
Q 3122 4116 2528 4116 
Q 1719 4116 1297 3475 
Q 944 2934 944 2188 
Q 944 1581 1178 1081 
Q 1413 581 1792 348 
Q 2172 116 2572 116 
Q 2806 116 3025 175 
Q 3244 234 3447 350 
L 3447 1575 
Q 3447 1894 3398 1992 
Q 3350 2091 3248 2142 
Q 3147 2194 2891 2194 
L 2891 2313 
L 4531 2313 
L 4531 2194 
L 4453 2194 
Q 4209 2194 4119 2031 
Q 4056 1916 4056 1575 
L 4056 278 
Q 3697 84 3347 -6 
Q 2997 -97 2569 -97 
Q 1341 -97 703 691 
Q 225 1281 225 2053 
Q 225 2613 494 3125 
Q 813 3734 1369 4063 
Q 1834 4334 2469 4334 
Q 2700 4334 2889 4296 
Q 3078 4259 3425 4131 
Q 3600 4066 3659 4066 
Q 3719 4066 3761 4120 
Q 3803 4175 3813 4334 
L 3928 4334 
z
" transform="scale(0.015625)"/>
        <path id="TimesNewRomanPSMT-6c" d="M 1184 4444 
L 1184 647 
Q 1184 378 1223 290 
Q 1263 203 1344 158 
Q 1425 113 1647 113 
L 1647 0 
L 244 0 
L 244 113 
Q 441 113 512 153 
Q 584 194 625 287 
Q 666 381 666 647 
L 666 3247 
Q 666 3731 644 3842 
Q 622 3953 573 3993 
Q 525 4034 450 4034 
Q 369 4034 244 3984 
L 191 4094 
L 1044 4444 
L 1184 4444 
z
" transform="scale(0.015625)"/>
       </defs>
       <use xlink:href="#TimesNewRomanPSMT-47"/>
       <use xlink:href="#TimesNewRomanPSMT-6c" x="72.216797"/>
       <use xlink:href="#TimesNewRomanPSMT-65" x="100"/>
       <use xlink:href="#TimesNewRomanPSMT-6e" x="144.384766"/>
       <use xlink:href="#TimesNewRomanPSMT-68" x="194.384766"/>
       <use xlink:href="#TimesNewRomanPSMT-61" x="244.384766"/>
       <use xlink:href="#TimesNewRomanPSMT-76" x="288.769531"/>
       <use xlink:href="#TimesNewRomanPSMT-65" x="338.769531"/>
       <use xlink:href="#TimesNewRomanPSMT-6e" x="383.154297"/>
      </g>
     </g>
    </g>
    <g id="xtick_4">
     <g id="line2d_4">
      <g>
       <use xlink:href="#m3d29b0056e" x="244.305937" y="258.900181" style="stroke: #000000; stroke-width: 0.8"/>
      </g>
     </g>
     <g id="text_4">
      <!-- Brookfield -->
      <g transform="translate(205.728401 308.55463) rotate(-45) scale(0.12 -0.12)">
       <defs>
        <path id="TimesNewRomanPSMT-42" d="M 2956 2163 
Q 3397 2069 3616 1863 
Q 3919 1575 3919 1159 
Q 3919 844 3719 555 
Q 3519 266 3170 133 
Q 2822 0 2106 0 
L 106 0 
L 106 116 
L 266 116 
Q 531 116 647 284 
Q 719 394 719 750 
L 719 3488 
Q 719 3881 628 3984 
Q 506 4122 266 4122 
L 106 4122 
L 106 4238 
L 1938 4238 
Q 2450 4238 2759 4163 
Q 3228 4050 3475 3764 
Q 3722 3478 3722 3106 
Q 3722 2788 3528 2536 
Q 3334 2284 2956 2163 
z
M 1319 2331 
Q 1434 2309 1582 2298 
Q 1731 2288 1909 2288 
Q 2366 2288 2595 2386 
Q 2825 2484 2947 2687 
Q 3069 2891 3069 3131 
Q 3069 3503 2766 3765 
Q 2463 4028 1881 4028 
Q 1569 4028 1319 3959 
L 1319 2331 
z
M 1319 306 
Q 1681 222 2034 222 
Q 2600 222 2897 476 
Q 3194 731 3194 1106 
Q 3194 1353 3059 1581 
Q 2925 1809 2622 1940 
Q 2319 2072 1872 2072 
Q 1678 2072 1540 2065 
Q 1403 2059 1319 2044 
L 1319 306 
z
" transform="scale(0.015625)"/>
        <path id="TimesNewRomanPSMT-72" d="M 1038 2947 
L 1038 2303 
Q 1397 2947 1775 2947 
Q 1947 2947 2059 2842 
Q 2172 2738 2172 2600 
Q 2172 2478 2090 2393 
Q 2009 2309 1897 2309 
Q 1788 2309 1652 2417 
Q 1516 2525 1450 2525 
Q 1394 2525 1328 2463 
Q 1188 2334 1038 2041 
L 1038 669 
Q 1038 431 1097 309 
Q 1138 225 1241 169 
Q 1344 113 1538 113 
L 1538 0 
L 72 0 
L 72 113 
Q 291 113 397 181 
Q 475 231 506 341 
Q 522 394 522 644 
L 522 1753 
Q 522 2253 501 2348 
Q 481 2444 426 2487 
Q 372 2531 291 2531 
Q 194 2531 72 2484 
L 41 2597 
L 906 2947 
L 1038 2947 
z
" transform="scale(0.015625)"/>
        <path id="TimesNewRomanPSMT-6b" d="M 1047 4444 
L 1047 1597 
L 1775 2259 
Q 2006 2472 2044 2528 
Q 2069 2566 2069 2603 
Q 2069 2666 2017 2711 
Q 1966 2756 1847 2763 
L 1847 2863 
L 3091 2863 
L 3091 2763 
Q 2834 2756 2664 2684 
Q 2494 2613 2291 2428 
L 1556 1750 
L 2291 822 
Q 2597 438 2703 334 
Q 2853 188 2966 144 
Q 3044 113 3238 113 
L 3238 0 
L 1847 0 
L 1847 113 
Q 1966 116 2008 148 
Q 2050 181 2050 241 
Q 2050 313 1925 472 
L 1047 1594 
L 1047 644 
Q 1047 366 1086 278 
Q 1125 191 1197 153 
Q 1269 116 1509 113 
L 1509 0 
L 53 0 
L 53 113 
Q 272 113 381 166 
Q 447 200 481 272 
Q 528 375 528 628 
L 528 3234 
Q 528 3731 506 3842 
Q 484 3953 434 3995 
Q 384 4038 303 4038 
Q 238 4038 106 3984 
L 53 4094 
L 903 4444 
L 1047 4444 
z
" transform="scale(0.015625)"/>
        <path id="TimesNewRomanPSMT-66" d="M 1319 2638 
L 1319 756 
Q 1319 356 1406 250 
Q 1522 113 1716 113 
L 1975 113 
L 1975 0 
L 266 0 
L 266 113 
L 394 113 
Q 519 113 622 175 
Q 725 238 764 344 
Q 803 450 803 756 
L 803 2638 
L 247 2638 
L 247 2863 
L 803 2863 
L 803 3050 
Q 803 3478 940 3775 
Q 1078 4072 1361 4255 
Q 1644 4438 1997 4438 
Q 2325 4438 2600 4225 
Q 2781 4084 2781 3909 
Q 2781 3816 2700 3733 
Q 2619 3650 2525 3650 
Q 2453 3650 2373 3701 
Q 2294 3753 2178 3923 
Q 2063 4094 1966 4153 
Q 1869 4213 1750 4213 
Q 1606 4213 1506 4136 
Q 1406 4059 1362 3898 
Q 1319 3738 1319 3069 
L 1319 2863 
L 2056 2863 
L 2056 2638 
L 1319 2638 
z
" transform="scale(0.015625)"/>
       </defs>
       <use xlink:href="#TimesNewRomanPSMT-42"/>
       <use xlink:href="#TimesNewRomanPSMT-72" x="66.699219"/>
       <use xlink:href="#TimesNewRomanPSMT-6f" x="100"/>
       <use xlink:href="#TimesNewRomanPSMT-6f" x="150"/>
       <use xlink:href="#TimesNewRomanPSMT-6b" x="200"/>
       <use xlink:href="#TimesNewRomanPSMT-66" x="250"/>
       <use xlink:href="#TimesNewRomanPSMT-69" x="283.300781"/>
       <use xlink:href="#TimesNewRomanPSMT-65" x="311.083984"/>
       <use xlink:href="#TimesNewRomanPSMT-6c" x="355.46875"/>
       <use xlink:href="#TimesNewRomanPSMT-64" x="383.251953"/>
      </g>
     </g>
    </g>
    <g id="xtick_5">
     <g id="line2d_5">
      <g>
       <use xlink:href="#m3d29b0056e" x="296.70308" y="258.900181" style="stroke: #000000; stroke-width: 0.8"/>
      </g>
     </g>
     <g id="text_5">
      <!-- Quarryville -->
      <g transform="translate(255.760272 310.903992) rotate(-45) scale(0.12 -0.12)">
       <defs>
        <path id="TimesNewRomanPSMT-51" d="M 2819 -47 
Q 3138 -597 3508 -856 
Q 3878 -1116 4350 -1153 
L 4350 -1253 
Q 3919 -1238 3428 -1080 
Q 2938 -922 2498 -642 
Q 2059 -363 1741 -47 
Q 1291 134 1028 338 
Q 647 641 436 1083 
Q 225 1525 225 2128 
Q 225 3078 840 3706 
Q 1456 4334 2331 4334 
Q 3163 4334 3770 3704 
Q 4378 3075 4378 2116 
Q 4378 1338 3945 750 
Q 3513 163 2819 -47 
z
M 2294 4094 
Q 1725 4094 1378 3688 
Q 941 3178 941 2128 
Q 941 1100 1384 544 
Q 1728 116 2294 116 
Q 2881 116 3241 544 
Q 3663 1050 3663 2038 
Q 3663 2797 3431 3316 
Q 3253 3716 2958 3905 
Q 2663 4094 2294 4094 
z
" transform="scale(0.015625)"/>
        <path id="TimesNewRomanPSMT-75" d="M 2709 2863 
L 2709 1128 
Q 2709 631 2732 520 
Q 2756 409 2807 365 
Q 2859 322 2928 322 
Q 3025 322 3147 375 
L 3191 266 
L 2334 -88 
L 2194 -88 
L 2194 519 
Q 1825 119 1631 15 
Q 1438 -88 1222 -88 
Q 981 -88 804 51 
Q 628 191 559 409 
Q 491 628 491 1028 
L 491 2306 
Q 491 2509 447 2587 
Q 403 2666 317 2708 
Q 231 2750 6 2747 
L 6 2863 
L 1009 2863 
L 1009 947 
Q 1009 547 1148 422 
Q 1288 297 1484 297 
Q 1619 297 1789 381 
Q 1959 466 2194 703 
L 2194 2325 
Q 2194 2569 2105 2655 
Q 2016 2741 1734 2747 
L 1734 2863 
L 2709 2863 
z
" transform="scale(0.015625)"/>
        <path id="TimesNewRomanPSMT-79" d="M 38 2863 
L 1372 2863 
L 1372 2747 
L 1306 2747 
Q 1166 2747 1095 2686 
Q 1025 2625 1025 2534 
Q 1025 2413 1128 2197 
L 1825 753 
L 2466 2334 
Q 2519 2463 2519 2588 
Q 2519 2644 2497 2672 
Q 2472 2706 2419 2726 
Q 2366 2747 2231 2747 
L 2231 2863 
L 3163 2863 
L 3163 2747 
Q 3047 2734 2984 2696 
Q 2922 2659 2847 2556 
Q 2819 2513 2741 2316 
L 1575 -541 
Q 1406 -956 1132 -1168 
Q 859 -1381 606 -1381 
Q 422 -1381 303 -1275 
Q 184 -1169 184 -1031 
Q 184 -900 270 -820 
Q 356 -741 506 -741 
Q 609 -741 788 -809 
Q 913 -856 944 -856 
Q 1038 -856 1148 -759 
Q 1259 -663 1372 -384 
L 1575 113 
L 547 2272 
Q 500 2369 397 2513 
Q 319 2622 269 2659 
Q 197 2709 38 2747 
L 38 2863 
z
" transform="scale(0.015625)"/>
       </defs>
       <use xlink:href="#TimesNewRomanPSMT-51"/>
       <use xlink:href="#TimesNewRomanPSMT-75" x="72.216797"/>
       <use xlink:href="#TimesNewRomanPSMT-61" x="122.216797"/>
       <use xlink:href="#TimesNewRomanPSMT-72" x="166.601562"/>
       <use xlink:href="#TimesNewRomanPSMT-72" x="199.902344"/>
       <use xlink:href="#TimesNewRomanPSMT-79" x="233.203125"/>
       <use xlink:href="#TimesNewRomanPSMT-76" x="283.203125"/>
       <use xlink:href="#TimesNewRomanPSMT-69" x="333.203125"/>
       <use xlink:href="#TimesNewRomanPSMT-6c" x="360.986328"/>
       <use xlink:href="#TimesNewRomanPSMT-6c" x="388.769531"/>
       <use xlink:href="#TimesNewRomanPSMT-65" x="416.552734"/>
      </g>
     </g>
    </g>
    <g id="xtick_6">
     <g id="line2d_6">
      <g>
       <use xlink:href="#m3d29b0056e" x="349.100223" y="258.900181" style="stroke: #000000; stroke-width: 0.8"/>
      </g>
     </g>
     <g id="text_6">
      <!-- Zephyr -->
      <g transform="translate(322.766683 296.294724) rotate(-45) scale(0.12 -0.12)">
       <defs>
        <path id="TimesNewRomanPSMT-5a" d="M 3681 4238 
L 897 256 
L 2634 256 
Q 3034 256 3248 431 
Q 3463 606 3628 1141 
L 3731 1122 
L 3531 0 
L 81 0 
L 81 116 
L 2800 3984 
L 1444 3984 
Q 1106 3984 954 3911 
Q 803 3838 723 3698 
Q 644 3559 578 3178 
L 459 3178 
L 547 4238 
L 3681 4238 
z
" transform="scale(0.015625)"/>
        <path id="TimesNewRomanPSMT-70" d="M -6 2578 
L 875 2934 
L 994 2934 
L 994 2266 
Q 1216 2644 1439 2795 
Q 1663 2947 1909 2947 
Q 2341 2947 2628 2609 
Q 2981 2197 2981 1534 
Q 2981 794 2556 309 
Q 2206 -88 1675 -88 
Q 1444 -88 1275 -22 
Q 1150 25 994 166 
L 994 -706 
Q 994 -1000 1030 -1079 
Q 1066 -1159 1155 -1206 
Q 1244 -1253 1478 -1253 
L 1478 -1369 
L -22 -1369 
L -22 -1253 
L 56 -1253 
Q 228 -1256 350 -1188 
Q 409 -1153 442 -1076 
Q 475 -1000 475 -688 
L 475 2019 
Q 475 2297 450 2372 
Q 425 2447 370 2484 
Q 316 2522 222 2522 
Q 147 2522 31 2478 
L -6 2578 
z
M 994 2081 
L 994 1013 
Q 994 666 1022 556 
Q 1066 375 1236 237 
Q 1406 100 1666 100 
Q 1978 100 2172 344 
Q 2425 663 2425 1241 
Q 2425 1897 2138 2250 
Q 1938 2494 1663 2494 
Q 1513 2494 1366 2419 
Q 1253 2363 994 2081 
z
" transform="scale(0.015625)"/>
       </defs>
       <use xlink:href="#TimesNewRomanPSMT-5a"/>
       <use xlink:href="#TimesNewRomanPSMT-65" x="61.083984"/>
       <use xlink:href="#TimesNewRomanPSMT-70" x="105.46875"/>
       <use xlink:href="#TimesNewRomanPSMT-68" x="155.46875"/>
       <use xlink:href="#TimesNewRomanPSMT-79" x="205.46875"/>
       <use xlink:href="#TimesNewRomanPSMT-72" x="255.46875"/>
      </g>
     </g>
    </g>
    <g id="xtick_7">
     <g id="line2d_7">
      <g>
       <use xlink:href="#m3d29b0056e" x="401.497366" y="258.900181" style="stroke: #000000; stroke-width: 0.8"/>
      </g>
     </g>
     <g id="text_7">
      <!-- Springfield -->
      <g transform="translate(361.487939 309.970611) rotate(-45) scale(0.12 -0.12)">
       <defs>
        <path id="TimesNewRomanPSMT-53" d="M 2934 4334 
L 2934 2869 
L 2819 2869 
Q 2763 3291 2617 3541 
Q 2472 3791 2203 3937 
Q 1934 4084 1647 4084 
Q 1322 4084 1109 3886 
Q 897 3688 897 3434 
Q 897 3241 1031 3081 
Q 1225 2847 1953 2456 
Q 2547 2138 2764 1967 
Q 2981 1797 3098 1565 
Q 3216 1334 3216 1081 
Q 3216 600 2842 251 
Q 2469 -97 1881 -97 
Q 1697 -97 1534 -69 
Q 1438 -53 1133 45 
Q 828 144 747 144 
Q 669 144 623 97 
Q 578 50 556 -97 
L 441 -97 
L 441 1356 
L 556 1356 
Q 638 900 775 673 
Q 913 447 1195 297 
Q 1478 147 1816 147 
Q 2206 147 2432 353 
Q 2659 559 2659 841 
Q 2659 997 2573 1156 
Q 2488 1316 2306 1453 
Q 2184 1547 1640 1851 
Q 1097 2156 867 2337 
Q 638 2519 519 2737 
Q 400 2956 400 3219 
Q 400 3675 750 4004 
Q 1100 4334 1641 4334 
Q 1978 4334 2356 4169 
Q 2531 4091 2603 4091 
Q 2684 4091 2736 4139 
Q 2788 4188 2819 4334 
L 2934 4334 
z
" transform="scale(0.015625)"/>
        <path id="TimesNewRomanPSMT-67" d="M 966 1044 
Q 703 1172 562 1401 
Q 422 1631 422 1909 
Q 422 2334 742 2640 
Q 1063 2947 1563 2947 
Q 1972 2947 2272 2747 
L 2878 2747 
Q 3013 2747 3034 2739 
Q 3056 2731 3066 2713 
Q 3084 2684 3084 2613 
Q 3084 2531 3069 2500 
Q 3059 2484 3036 2475 
Q 3013 2466 2878 2466 
L 2506 2466 
Q 2681 2241 2681 1891 
Q 2681 1491 2375 1206 
Q 2069 922 1553 922 
Q 1341 922 1119 984 
Q 981 866 932 777 
Q 884 688 884 625 
Q 884 572 936 522 
Q 988 472 1138 450 
Q 1225 438 1575 428 
Q 2219 413 2409 384 
Q 2700 344 2873 169 
Q 3047 -6 3047 -263 
Q 3047 -616 2716 -925 
Q 2228 -1381 1444 -1381 
Q 841 -1381 425 -1109 
Q 191 -953 191 -784 
Q 191 -709 225 -634 
Q 278 -519 444 -313 
Q 466 -284 763 25 
Q 600 122 533 198 
Q 466 275 466 372 
Q 466 481 555 628 
Q 644 775 966 1044 
z
M 1509 2797 
Q 1278 2797 1122 2612 
Q 966 2428 966 2047 
Q 966 1553 1178 1281 
Q 1341 1075 1591 1075 
Q 1828 1075 1981 1253 
Q 2134 1431 2134 1813 
Q 2134 2309 1919 2591 
Q 1759 2797 1509 2797 
z
M 934 0 
Q 788 -159 713 -296 
Q 638 -434 638 -550 
Q 638 -700 819 -813 
Q 1131 -1006 1722 -1006 
Q 2284 -1006 2551 -807 
Q 2819 -609 2819 -384 
Q 2819 -222 2659 -153 
Q 2497 -84 2016 -72 
Q 1313 -53 934 0 
z
" transform="scale(0.015625)"/>
       </defs>
       <use xlink:href="#TimesNewRomanPSMT-53"/>
       <use xlink:href="#TimesNewRomanPSMT-70" x="55.615234"/>
       <use xlink:href="#TimesNewRomanPSMT-72" x="105.615234"/>
       <use xlink:href="#TimesNewRomanPSMT-69" x="138.916016"/>
       <use xlink:href="#TimesNewRomanPSMT-6e" x="166.699219"/>
       <use xlink:href="#TimesNewRomanPSMT-67" x="216.699219"/>
       <use xlink:href="#TimesNewRomanPSMT-66" x="266.699219"/>
       <use xlink:href="#TimesNewRomanPSMT-69" x="300"/>
       <use xlink:href="#TimesNewRomanPSMT-65" x="327.783203"/>
       <use xlink:href="#TimesNewRomanPSMT-6c" x="372.167969"/>
       <use xlink:href="#TimesNewRomanPSMT-64" x="399.951172"/>
      </g>
     </g>
    </g>
   </g>
   <g id="matplotlib.axis_2">
    <g id="ytick_1">
     <g id="line2d_8">
      <defs>
       <path id="m3bc0cfc3b8" d="M 0 0 
L -3.5 0 
" style="stroke: #000000; stroke-width: 0.8"/>
      </defs>
      <g>
       <use xlink:href="#m3bc0cfc3b8" x="60.915938" y="244.883758" style="stroke: #000000; stroke-width: 0.8"/>
      </g>
     </g>
     <g id="text_8">
      <!-- 20000 -->
      <g transform="translate(28.915938 248.355633) scale(0.1 -0.1)">
       <defs>
        <path id="TimesNewRomanPSMT-32" d="M 2934 816 
L 2638 0 
L 138 0 
L 138 116 
Q 1241 1122 1691 1759 
Q 2141 2397 2141 2925 
Q 2141 3328 1894 3587 
Q 1647 3847 1303 3847 
Q 991 3847 742 3664 
Q 494 3481 375 3128 
L 259 3128 
Q 338 3706 661 4015 
Q 984 4325 1469 4325 
Q 1984 4325 2329 3994 
Q 2675 3663 2675 3213 
Q 2675 2891 2525 2569 
Q 2294 2063 1775 1497 
Q 997 647 803 472 
L 1909 472 
Q 2247 472 2383 497 
Q 2519 522 2628 598 
Q 2738 675 2819 816 
L 2934 816 
z
" transform="scale(0.015625)"/>
        <path id="TimesNewRomanPSMT-30" d="M 231 2094 
Q 231 2819 450 3342 
Q 669 3866 1031 4122 
Q 1313 4325 1613 4325 
Q 2100 4325 2488 3828 
Q 2972 3213 2972 2159 
Q 2972 1422 2759 906 
Q 2547 391 2217 158 
Q 1888 -75 1581 -75 
Q 975 -75 572 641 
Q 231 1244 231 2094 
z
M 844 2016 
Q 844 1141 1059 588 
Q 1238 122 1591 122 
Q 1759 122 1940 273 
Q 2122 425 2216 781 
Q 2359 1319 2359 2297 
Q 2359 3022 2209 3506 
Q 2097 3866 1919 4016 
Q 1791 4119 1609 4119 
Q 1397 4119 1231 3928 
Q 1006 3669 925 3112 
Q 844 2556 844 2016 
z
" transform="scale(0.015625)"/>
       </defs>
       <use xlink:href="#TimesNewRomanPSMT-32"/>
       <use xlink:href="#TimesNewRomanPSMT-30" x="50"/>
       <use xlink:href="#TimesNewRomanPSMT-30" x="100"/>
       <use xlink:href="#TimesNewRomanPSMT-30" x="150"/>
       <use xlink:href="#TimesNewRomanPSMT-30" x="200"/>
      </g>
     </g>
    </g>
    <g id="ytick_2">
     <g id="line2d_9">
      <g>
       <use xlink:href="#m3bc0cfc3b8" x="60.915938" y="207.140519" style="stroke: #000000; stroke-width: 0.8"/>
      </g>
     </g>
     <g id="text_9">
      <!-- 40000 -->
      <g transform="translate(28.915938 210.612394) scale(0.1 -0.1)">
       <defs>
        <path id="TimesNewRomanPSMT-34" d="M 2978 1563 
L 2978 1119 
L 2409 1119 
L 2409 0 
L 1894 0 
L 1894 1119 
L 100 1119 
L 100 1519 
L 2066 4325 
L 2409 4325 
L 2409 1563 
L 2978 1563 
z
M 1894 1563 
L 1894 3666 
L 406 1563 
L 1894 1563 
z
" transform="scale(0.015625)"/>
       </defs>
       <use xlink:href="#TimesNewRomanPSMT-34"/>
       <use xlink:href="#TimesNewRomanPSMT-30" x="50"/>
       <use xlink:href="#TimesNewRomanPSMT-30" x="100"/>
       <use xlink:href="#TimesNewRomanPSMT-30" x="150"/>
       <use xlink:href="#TimesNewRomanPSMT-30" x="200"/>
      </g>
     </g>
    </g>
    <g id="ytick_3">
     <g id="line2d_10">
      <g>
       <use xlink:href="#m3bc0cfc3b8" x="60.915938" y="169.397281" style="stroke: #000000; stroke-width: 0.8"/>
      </g>
     </g>
     <g id="text_10">
      <!-- 60000 -->
      <g transform="translate(28.915938 172.869156) scale(0.1 -0.1)">
       <defs>
        <path id="TimesNewRomanPSMT-36" d="M 2869 4325 
L 2869 4209 
Q 2456 4169 2195 4045 
Q 1934 3922 1679 3669 
Q 1425 3416 1258 3105 
Q 1091 2794 978 2366 
Q 1428 2675 1881 2675 
Q 2316 2675 2634 2325 
Q 2953 1975 2953 1425 
Q 2953 894 2631 456 
Q 2244 -75 1606 -75 
Q 1172 -75 869 213 
Q 275 772 275 1663 
Q 275 2231 503 2743 
Q 731 3256 1154 3653 
Q 1578 4050 1965 4187 
Q 2353 4325 2688 4325 
L 2869 4325 
z
M 925 2138 
Q 869 1716 869 1456 
Q 869 1156 980 804 
Q 1091 453 1309 247 
Q 1469 100 1697 100 
Q 1969 100 2183 356 
Q 2397 613 2397 1088 
Q 2397 1622 2184 2012 
Q 1972 2403 1581 2403 
Q 1463 2403 1327 2353 
Q 1191 2303 925 2138 
z
" transform="scale(0.015625)"/>
       </defs>
       <use xlink:href="#TimesNewRomanPSMT-36"/>
       <use xlink:href="#TimesNewRomanPSMT-30" x="50"/>
       <use xlink:href="#TimesNewRomanPSMT-30" x="100"/>
       <use xlink:href="#TimesNewRomanPSMT-30" x="150"/>
       <use xlink:href="#TimesNewRomanPSMT-30" x="200"/>
      </g>
     </g>
    </g>
    <g id="ytick_4">
     <g id="line2d_11">
      <g>
       <use xlink:href="#m3bc0cfc3b8" x="60.915938" y="131.654043" style="stroke: #000000; stroke-width: 0.8"/>
      </g>
     </g>
     <g id="text_11">
      <!-- 80000 -->
      <g transform="translate(28.915938 135.125918) scale(0.1 -0.1)">
       <defs>
        <path id="TimesNewRomanPSMT-38" d="M 1228 2134 
Q 725 2547 579 2797 
Q 434 3047 434 3316 
Q 434 3728 753 4026 
Q 1072 4325 1600 4325 
Q 2113 4325 2425 4047 
Q 2738 3769 2738 3413 
Q 2738 3175 2569 2928 
Q 2400 2681 1866 2347 
Q 2416 1922 2594 1678 
Q 2831 1359 2831 1006 
Q 2831 559 2490 242 
Q 2150 -75 1597 -75 
Q 994 -75 656 303 
Q 388 606 388 966 
Q 388 1247 577 1523 
Q 766 1800 1228 2134 
z
M 1719 2469 
Q 2094 2806 2194 3001 
Q 2294 3197 2294 3444 
Q 2294 3772 2109 3958 
Q 1925 4144 1606 4144 
Q 1288 4144 1088 3959 
Q 888 3775 888 3528 
Q 888 3366 970 3203 
Q 1053 3041 1206 2894 
L 1719 2469 
z
M 1375 2016 
Q 1116 1797 991 1539 
Q 866 1281 866 981 
Q 866 578 1086 336 
Q 1306 94 1647 94 
Q 1984 94 2187 284 
Q 2391 475 2391 747 
Q 2391 972 2272 1150 
Q 2050 1481 1375 2016 
z
" transform="scale(0.015625)"/>
       </defs>
       <use xlink:href="#TimesNewRomanPSMT-38"/>
       <use xlink:href="#TimesNewRomanPSMT-30" x="50"/>
       <use xlink:href="#TimesNewRomanPSMT-30" x="100"/>
       <use xlink:href="#TimesNewRomanPSMT-30" x="150"/>
       <use xlink:href="#TimesNewRomanPSMT-30" x="200"/>
      </g>
     </g>
    </g>
    <g id="ytick_5">
     <g id="line2d_12">
      <g>
       <use xlink:href="#m3bc0cfc3b8" x="60.915938" y="93.910805" style="stroke: #000000; stroke-width: 0.8"/>
      </g>
     </g>
     <g id="text_12">
      <!-- 100000 -->
      <g transform="translate(23.915938 97.38268) scale(0.1 -0.1)">
       <defs>
        <path id="TimesNewRomanPSMT-31" d="M 750 3822 
L 1781 4325 
L 1884 4325 
L 1884 747 
Q 1884 391 1914 303 
Q 1944 216 2037 169 
Q 2131 122 2419 116 
L 2419 0 
L 825 0 
L 825 116 
Q 1125 122 1212 167 
Q 1300 213 1334 289 
Q 1369 366 1369 747 
L 1369 3034 
Q 1369 3497 1338 3628 
Q 1316 3728 1258 3775 
Q 1200 3822 1119 3822 
Q 1003 3822 797 3725 
L 750 3822 
z
" transform="scale(0.015625)"/>
       </defs>
       <use xlink:href="#TimesNewRomanPSMT-31"/>
       <use xlink:href="#TimesNewRomanPSMT-30" x="50"/>
       <use xlink:href="#TimesNewRomanPSMT-30" x="100"/>
       <use xlink:href="#TimesNewRomanPSMT-30" x="150"/>
       <use xlink:href="#TimesNewRomanPSMT-30" x="200"/>
       <use xlink:href="#TimesNewRomanPSMT-30" x="250"/>
      </g>
     </g>
    </g>
    <g id="ytick_6">
     <g id="line2d_13">
      <g>
       <use xlink:href="#m3bc0cfc3b8" x="60.915938" y="56.167567" style="stroke: #000000; stroke-width: 0.8"/>
      </g>
     </g>
     <g id="text_13">
      <!-- 120000 -->
      <g transform="translate(23.915938 59.639442) scale(0.1 -0.1)">
       <use xlink:href="#TimesNewRomanPSMT-31"/>
       <use xlink:href="#TimesNewRomanPSMT-32" x="50"/>
       <use xlink:href="#TimesNewRomanPSMT-30" x="100"/>
       <use xlink:href="#TimesNewRomanPSMT-30" x="150"/>
       <use xlink:href="#TimesNewRomanPSMT-30" x="200"/>
       <use xlink:href="#TimesNewRomanPSMT-30" x="250"/>
      </g>
     </g>
    </g>
    <g id="text_14">
     <!-- USD -->
     <g transform="translate(16.92125 158.475872) rotate(-90) scale(0.14 -0.14)">
      <defs>
       <path id="TimesNewRomanPSMT-55" d="M 3053 4122 
L 3053 4238 
L 4553 4238 
L 4553 4122 
L 4394 4122 
Q 4144 4122 4009 3913 
Q 3944 3816 3944 3463 
L 3944 1744 
Q 3944 1106 3817 754 
Q 3691 403 3320 151 
Q 2950 -100 2313 -100 
Q 1619 -100 1259 140 
Q 900 381 750 788 
Q 650 1066 650 1831 
L 650 3488 
Q 650 3878 542 4000 
Q 434 4122 194 4122 
L 34 4122 
L 34 4238 
L 1866 4238 
L 1866 4122 
L 1703 4122 
Q 1441 4122 1328 3956 
Q 1250 3844 1250 3488 
L 1250 1641 
Q 1250 1394 1295 1075 
Q 1341 756 1459 578 
Q 1578 400 1801 284 
Q 2025 169 2350 169 
Q 2766 169 3094 350 
Q 3422 531 3542 814 
Q 3663 1097 3663 1772 
L 3663 3488 
Q 3663 3884 3575 3984 
Q 3453 4122 3213 4122 
L 3053 4122 
z
" transform="scale(0.015625)"/>
       <path id="TimesNewRomanPSMT-44" d="M 109 0 
L 109 116 
L 269 116 
Q 538 116 650 288 
Q 719 391 719 750 
L 719 3488 
Q 719 3884 631 3984 
Q 509 4122 269 4122 
L 109 4122 
L 109 4238 
L 1834 4238 
Q 2784 4238 3279 4022 
Q 3775 3806 4076 3303 
Q 4378 2800 4378 2141 
Q 4378 1256 3841 663 
Q 3238 0 2003 0 
L 109 0 
z
M 1319 306 
Q 1716 219 1984 219 
Q 2709 219 3187 728 
Q 3666 1238 3666 2109 
Q 3666 2988 3187 3494 
Q 2709 4000 1959 4000 
Q 1678 4000 1319 3909 
L 1319 306 
z
" transform="scale(0.015625)"/>
      </defs>
      <use xlink:href="#TimesNewRomanPSMT-55"/>
      <use xlink:href="#TimesNewRomanPSMT-53" x="72.216797"/>
      <use xlink:href="#TimesNewRomanPSMT-44" x="127.832031"/>
     </g>
    </g>
   </g>
   <g id="patch_3">
    <path d="M 84.868917 216.539057 
L 89.360101 216.539057 
L 89.360101 158.221037 
L 84.868917 158.221037 
L 84.868917 216.539057 
L 84.868917 216.539057 
z
" clip-path="url(#p59f90e56ed)" style="fill: none; stroke: #000000; stroke-linejoin: miter"/>
   </g>
   <g id="line2d_14">
    <path d="M 87.114509 216.539057 
L 87.114509 247.529559 
" clip-path="url(#p59f90e56ed)" style="fill: none; stroke: #000000; stroke-linecap: square"/>
   </g>
   <g id="line2d_15">
    <path d="M 87.114509 158.221037 
L 87.114509 97.715323 
" clip-path="url(#p59f90e56ed)" style="fill: none; stroke: #000000; stroke-linecap: square"/>
   </g>
   <g id="line2d_16">
    <path d="M 85.991713 247.529559 
L 88.237305 247.529559 
" clip-path="url(#p59f90e56ed)" style="fill: none; stroke: #000000; stroke-linecap: square"/>
   </g>
   <g id="line2d_17">
    <path d="M 85.991713 97.715323 
L 88.237305 97.715323 
" clip-path="url(#p59f90e56ed)" style="fill: none; stroke: #000000; stroke-linecap: square"/>
   </g>
   <g id="patch_4">
    <path d="M 137.26606 226.41316 
L 141.757244 226.41316 
L 141.757244 187.899488 
L 137.26606 187.899488 
L 137.26606 226.41316 
L 137.26606 226.41316 
z
" clip-path="url(#p59f90e56ed)" style="fill: none; stroke: #000000; stroke-linejoin: miter"/>
   </g>
   <g id="line2d_18">
    <path d="M 139.511652 226.41316 
L 139.511652 244.03076 
" clip-path="url(#p59f90e56ed)" style="fill: none; stroke: #000000; stroke-linecap: square"/>
   </g>
   <g id="line2d_19">
    <path d="M 139.511652 187.899488 
L 139.511652 130.214139 
" clip-path="url(#p59f90e56ed)" style="fill: none; stroke: #000000; stroke-linecap: square"/>
   </g>
   <g id="line2d_20">
    <path d="M 138.388856 244.03076 
L 140.634448 244.03076 
" clip-path="url(#p59f90e56ed)" style="fill: none; stroke: #000000; stroke-linecap: square"/>
   </g>
   <g id="line2d_21">
    <path d="M 138.388856 130.214139 
L 140.634448 130.214139 
" clip-path="url(#p59f90e56ed)" style="fill: none; stroke: #000000; stroke-linecap: square"/>
   </g>
   <g id="patch_5">
    <path d="M 189.663203 215.962058 
L 194.154386 215.962058 
L 194.154386 169.13874 
L 189.663203 169.13874 
L 189.663203 215.962058 
L 189.663203 215.962058 
z
" clip-path="url(#p59f90e56ed)" style="fill: none; stroke: #000000; stroke-linejoin: miter"/>
   </g>
   <g id="line2d_22">
    <path d="M 191.908795 215.962058 
L 191.908795 239.169431 
" clip-path="url(#p59f90e56ed)" style="fill: none; stroke: #000000; stroke-linecap: square"/>
   </g>
   <g id="line2d_23">
    <path d="M 191.908795 169.13874 
L 191.908795 106.979401 
" clip-path="url(#p59f90e56ed)" style="fill: none; stroke: #000000; stroke-linecap: square"/>
   </g>
   <g id="line2d_24">
    <path d="M 190.785999 239.169431 
L 193.031591 239.169431 
" clip-path="url(#p59f90e56ed)" style="fill: none; stroke: #000000; stroke-linecap: square"/>
   </g>
   <g id="line2d_25">
    <path d="M 190.785999 106.979401 
L 193.031591 106.979401 
" clip-path="url(#p59f90e56ed)" style="fill: none; stroke: #000000; stroke-linecap: square"/>
   </g>
   <g id="patch_6">
    <path d="M 242.060346 215.703517 
L 246.551529 215.703517 
L 246.551529 173.081021 
L 242.060346 173.081021 
L 242.060346 215.703517 
L 242.060346 215.703517 
z
" clip-path="url(#p59f90e56ed)" style="fill: none; stroke: #000000; stroke-linejoin: miter"/>
   </g>
   <g id="line2d_26">
    <path d="M 244.305937 215.703517 
L 244.305937 245.568797 
" clip-path="url(#p59f90e56ed)" style="fill: none; stroke: #000000; stroke-linecap: square"/>
   </g>
   <g id="line2d_27">
    <path d="M 244.305937 173.081021 
L 244.305937 117.832469 
" clip-path="url(#p59f90e56ed)" style="fill: none; stroke: #000000; stroke-linecap: square"/>
   </g>
   <g id="line2d_28">
    <path d="M 243.183142 245.568797 
L 245.428733 245.568797 
" clip-path="url(#p59f90e56ed)" style="fill: none; stroke: #000000; stroke-linecap: square"/>
   </g>
   <g id="line2d_29">
    <path d="M 243.183142 117.832469 
L 245.428733 117.832469 
" clip-path="url(#p59f90e56ed)" style="fill: none; stroke: #000000; stroke-linecap: square"/>
   </g>
   <g id="patch_7">
    <path d="M 294.457489 221.126276 
L 298.948672 221.126276 
L 298.948672 153.317718 
L 294.457489 153.317718 
L 294.457489 221.126276 
L 294.457489 221.126276 
z
" clip-path="url(#p59f90e56ed)" style="fill: none; stroke: #000000; stroke-linejoin: miter"/>
   </g>
   <g id="line2d_30">
    <path d="M 296.70308 221.126276 
L 296.70308 243.211732 
" clip-path="url(#p59f90e56ed)" style="fill: none; stroke: #000000; stroke-linecap: square"/>
   </g>
   <g id="line2d_31">
    <path d="M 296.70308 153.317718 
L 296.70308 60.689207 
" clip-path="url(#p59f90e56ed)" style="fill: none; stroke: #000000; stroke-linecap: square"/>
   </g>
   <g id="line2d_32">
    <path d="M 295.580284 243.211732 
L 297.825876 243.211732 
" clip-path="url(#p59f90e56ed)" style="fill: none; stroke: #000000; stroke-linecap: square"/>
   </g>
   <g id="line2d_33">
    <path d="M 295.580284 60.689207 
L 297.825876 60.689207 
" clip-path="url(#p59f90e56ed)" style="fill: none; stroke: #000000; stroke-linecap: square"/>
   </g>
   <g id="patch_8">
    <path d="M 346.854631 214.095183 
L 351.345815 214.095183 
L 351.345815 151.49472 
L 346.854631 151.49472 
L 346.854631 214.095183 
L 346.854631 214.095183 
z
" clip-path="url(#p59f90e56ed)" style="fill: none; stroke: #000000; stroke-linejoin: miter"/>
   </g>
   <g id="line2d_34">
    <path d="M 349.100223 214.095183 
L 349.100223 248.497673 
" clip-path="url(#p59f90e56ed)" style="fill: none; stroke: #000000; stroke-linecap: square"/>
   </g>
   <g id="line2d_35">
    <path d="M 349.100223 151.49472 
L 349.100223 65.744914 
" clip-path="url(#p59f90e56ed)" style="fill: none; stroke: #000000; stroke-linecap: square"/>
   </g>
   <g id="line2d_36">
    <path d="M 347.977427 248.497673 
L 350.223019 248.497673 
" clip-path="url(#p59f90e56ed)" style="fill: none; stroke: #000000; stroke-linecap: square"/>
   </g>
   <g id="line2d_37">
    <path d="M 347.977427 65.744914 
L 350.223019 65.744914 
" clip-path="url(#p59f90e56ed)" style="fill: none; stroke: #000000; stroke-linecap: square"/>
   </g>
   <g id="patch_9">
    <path d="M 399.251774 196.97485 
L 403.742958 196.97485 
L 403.742958 141.823487 
L 399.251774 141.823487 
L 399.251774 196.97485 
L 399.251774 196.97485 
z
" clip-path="url(#p59f90e56ed)" style="fill: none; stroke: #000000; stroke-linejoin: miter"/>
   </g>
   <g id="line2d_38">
    <path d="M 401.497366 196.97485 
L 401.497366 232.753081 
" clip-path="url(#p59f90e56ed)" style="fill: none; stroke: #000000; stroke-linecap: square"/>
   </g>
   <g id="line2d_39">
    <path d="M 401.497366 141.823487 
L 401.497366 81.361178 
" clip-path="url(#p59f90e56ed)" style="fill: none; stroke: #000000; stroke-linecap: square"/>
   </g>
   <g id="line2d_40">
    <path d="M 400.37457 232.753081 
L 402.620162 232.753081 
" clip-path="url(#p59f90e56ed)" style="fill: none; stroke: #000000; stroke-linecap: square"/>
   </g>
   <g id="line2d_41">
    <path d="M 400.37457 81.361178 
L 402.620162 81.361178 
" clip-path="url(#p59f90e56ed)" style="fill: none; stroke: #000000; stroke-linecap: square"/>
   </g>
   <g id="line2d_42">
    <path d="M 84.868917 194.958889 
L 89.360101 194.958889 
" clip-path="url(#p59f90e56ed)" style="fill: none; stroke: #000000; stroke-width: 1.5; stroke-linecap: square"/>
   </g>
   <g id="line2d_43">
    <path d="M 137.26606 210.154317 
L 141.757244 210.154317 
" clip-path="url(#p59f90e56ed)" style="fill: none; stroke: #000000; stroke-width: 1.5; stroke-linecap: square"/>
   </g>
   <g id="line2d_44">
    <path d="M 189.663203 193.94454 
L 194.154386 193.94454 
" clip-path="url(#p59f90e56ed)" style="fill: none; stroke: #000000; stroke-width: 1.5; stroke-linecap: square"/>
   </g>
   <g id="line2d_45">
    <path d="M 242.060346 194.462566 
L 246.551529 194.462566 
" clip-path="url(#p59f90e56ed)" style="fill: none; stroke: #000000; stroke-width: 1.5; stroke-linecap: square"/>
   </g>
   <g id="line2d_46">
    <path d="M 294.457489 196.442199 
L 298.948672 196.442199 
" clip-path="url(#p59f90e56ed)" style="fill: none; stroke: #000000; stroke-width: 1.5; stroke-linecap: square"/>
   </g>
   <g id="line2d_47">
    <path d="M 346.854631 180.504173 
L 351.345815 180.504173 
" clip-path="url(#p59f90e56ed)" style="fill: none; stroke: #000000; stroke-width: 1.5; stroke-linecap: square"/>
   </g>
   <g id="line2d_48">
    <path d="M 399.251774 171.291992 
L 403.742958 171.291992 
" clip-path="url(#p59f90e56ed)" style="fill: none; stroke: #000000; stroke-width: 1.5; stroke-linecap: square"/>
   </g>
   <g id="patch_10">
    <path d="M 60.915938 258.900181 
L 60.915938 30.045 
" style="fill: none; stroke: #000000; stroke-linejoin: miter; stroke-linecap: square"/>
   </g>
   <g id="patch_11">
    <path d="M 427.695937 258.900181 
L 427.695937 30.045 
" style="fill: none; stroke: #000000; stroke-linejoin: miter; stroke-linecap: square"/>
   </g>
   <g id="patch_12">
    <path d="M 60.915938 258.900181 
L 427.695937 258.900181 
" style="fill: none; stroke: #000000; stroke-linejoin: miter; stroke-linecap: square"/>
   </g>
   <g id="patch_13">
    <path d="M 60.915938 30.045 
L 427.695937 30.045 
" style="fill: none; stroke: #000000; stroke-linejoin: miter; stroke-linecap: square"/>
   </g>
   <g id="text_15">
    <!-- Salary of Employees in Different Cities (USD) -->
    <g transform="translate(88.024687 18.045) scale(0.16 -0.16)">
     <defs>
      <path id="TimesNewRomanPS-BoldMT-53" d="M 3006 4334 
L 3041 2922 
L 2913 2922 
Q 2822 3453 2467 3776 
Q 2113 4100 1700 4100 
Q 1381 4100 1195 3929 
Q 1009 3759 1009 3538 
Q 1009 3397 1075 3288 
Q 1166 3141 1366 2997 
Q 1513 2894 2044 2631 
Q 2788 2266 3047 1941 
Q 3303 1616 3303 1197 
Q 3303 666 2889 283 
Q 2475 -100 1838 -100 
Q 1638 -100 1459 -59 
Q 1281 -19 1013 94 
Q 863 156 766 156 
Q 684 156 593 93 
Q 503 31 447 -97 
L 331 -97 
L 331 1503 
L 447 1503 
Q 584 828 976 473 
Q 1369 119 1822 119 
Q 2172 119 2380 309 
Q 2588 500 2588 753 
Q 2588 903 2508 1043 
Q 2428 1184 2265 1311 
Q 2103 1438 1691 1641 
Q 1113 1925 859 2125 
Q 606 2325 470 2572 
Q 334 2819 334 3116 
Q 334 3622 706 3978 
Q 1078 4334 1644 4334 
Q 1850 4334 2044 4284 
Q 2191 4247 2402 4145 
Q 2613 4044 2697 4044 
Q 2778 4044 2825 4094 
Q 2872 4144 2913 4334 
L 3006 4334 
z
" transform="scale(0.015625)"/>
      <path id="TimesNewRomanPS-BoldMT-61" d="M 1828 431 
Q 1294 -41 869 -41 
Q 619 -41 453 123 
Q 288 288 288 534 
Q 288 869 575 1136 
Q 863 1403 1828 1847 
L 1828 2141 
Q 1828 2472 1792 2558 
Q 1756 2644 1656 2708 
Q 1556 2772 1431 2772 
Q 1228 2772 1097 2681 
Q 1016 2625 1016 2550 
Q 1016 2484 1103 2388 
Q 1222 2253 1222 2128 
Q 1222 1975 1108 1867 
Q 994 1759 809 1759 
Q 613 1759 480 1878 
Q 347 1997 347 2156 
Q 347 2381 525 2586 
Q 703 2791 1022 2900 
Q 1341 3009 1684 3009 
Q 2100 3009 2342 2832 
Q 2584 2656 2656 2450 
Q 2700 2319 2700 1847 
L 2700 713 
Q 2700 513 2715 461 
Q 2731 409 2762 384 
Q 2794 359 2834 359 
Q 2916 359 3000 475 
L 3094 400 
Q 2938 169 2770 64 
Q 2603 -41 2391 -41 
Q 2141 -41 2000 76 
Q 1859 194 1828 431 
z
M 1828 659 
L 1828 1638 
Q 1450 1416 1266 1163 
Q 1144 994 1144 822 
Q 1144 678 1247 569 
Q 1325 484 1466 484 
Q 1622 484 1828 659 
z
" transform="scale(0.015625)"/>
      <path id="TimesNewRomanPS-BoldMT-6c" d="M 1359 4238 
L 1359 606 
Q 1359 297 1431 211 
Q 1503 125 1713 113 
L 1713 0 
L 134 0 
L 134 113 
Q 328 119 422 225 
Q 484 297 484 606 
L 484 3631 
Q 484 3938 412 4023 
Q 341 4109 134 4122 
L 134 4238 
L 1359 4238 
z
" transform="scale(0.015625)"/>
      <path id="TimesNewRomanPS-BoldMT-72" d="M 1428 2922 
L 1428 2259 
Q 1719 2713 1937 2861 
Q 2156 3009 2359 3009 
Q 2534 3009 2639 2901 
Q 2744 2794 2744 2597 
Q 2744 2388 2642 2272 
Q 2541 2156 2397 2156 
Q 2231 2156 2109 2262 
Q 1988 2369 1966 2381 
Q 1934 2400 1894 2400 
Q 1803 2400 1722 2331 
Q 1594 2225 1528 2028 
Q 1428 1725 1428 1359 
L 1428 688 
L 1431 513 
Q 1431 334 1453 284 
Q 1491 200 1564 161 
Q 1638 122 1813 113 
L 1813 0 
L 234 0 
L 234 113 
Q 425 128 492 217 
Q 559 306 559 688 
L 559 2303 
Q 559 2553 534 2622 
Q 503 2709 443 2750 
Q 384 2791 234 2806 
L 234 2922 
L 1428 2922 
z
" transform="scale(0.015625)"/>
      <path id="TimesNewRomanPS-BoldMT-79" d="M 1556 -119 
L 613 2047 
Q 400 2538 298 2650 
Q 197 2763 53 2806 
L 53 2922 
L 1606 2922 
L 1606 2806 
Q 1453 2800 1390 2747 
Q 1328 2694 1328 2619 
Q 1328 2500 1484 2150 
L 1984 1006 
L 2325 1891 
Q 2509 2363 2509 2547 
Q 2509 2663 2432 2731 
Q 2356 2800 2163 2806 
L 2163 2922 
L 3141 2922 
L 3141 2806 
Q 2997 2791 2906 2695 
Q 2816 2600 2603 2047 
L 1769 -119 
Q 1453 -931 1300 -1119 
Q 1084 -1381 759 -1381 
Q 500 -1381 339 -1232 
Q 178 -1084 178 -875 
Q 178 -694 289 -575 
Q 400 -456 563 -456 
Q 719 -456 814 -556 
Q 909 -656 913 -866 
Q 916 -984 941 -1019 
Q 966 -1053 1013 -1053 
Q 1088 -1053 1172 -963 
Q 1297 -831 1466 -363 
L 1556 -119 
z
" transform="scale(0.015625)"/>
      <path id="TimesNewRomanPS-BoldMT-20" transform="scale(0.015625)"/>
      <path id="TimesNewRomanPS-BoldMT-6f" d="M 1594 3009 
Q 1975 3009 2303 2812 
Q 2631 2616 2801 2253 
Q 2972 1891 2972 1459 
Q 2972 838 2656 419 
Q 2275 -88 1603 -88 
Q 944 -88 587 375 
Q 231 838 231 1447 
Q 231 2075 595 2542 
Q 959 3009 1594 3009 
z
M 1606 2788 
Q 1447 2788 1333 2667 
Q 1219 2547 1183 2192 
Q 1147 1838 1147 1206 
Q 1147 872 1191 581 
Q 1225 359 1337 243 
Q 1450 128 1594 128 
Q 1734 128 1828 206 
Q 1950 313 1991 503 
Q 2053 800 2053 1703 
Q 2053 2234 1993 2432 
Q 1934 2631 1819 2722 
Q 1738 2788 1606 2788 
z
" transform="scale(0.015625)"/>
      <path id="TimesNewRomanPS-BoldMT-66" d="M 1497 2616 
L 1497 588 
Q 1497 294 1559 219 
Q 1659 103 1928 113 
L 1928 0 
L 206 0 
L 206 113 
Q 403 116 486 158 
Q 569 200 600 275 
Q 631 350 631 588 
L 631 2616 
L 206 2616 
L 206 2922 
L 631 2922 
L 631 3138 
L 628 3284 
Q 628 3734 958 4034 
Q 1288 4334 1850 4334 
Q 2234 4334 2420 4190 
Q 2606 4047 2606 3872 
Q 2606 3731 2490 3628 
Q 2375 3525 2184 3525 
Q 2022 3525 1926 3609 
Q 1831 3694 1831 3797 
Q 1831 3825 1850 3913 
Q 1863 3966 1863 4013 
Q 1863 4078 1825 4109 
Q 1775 4156 1703 4156 
Q 1613 4156 1552 4081 
Q 1491 4006 1491 3841 
L 1497 3294 
L 1497 2922 
L 1928 2922 
L 1928 2616 
L 1497 2616 
z
" transform="scale(0.015625)"/>
      <path id="TimesNewRomanPS-BoldMT-45" d="M 1744 3994 
L 1744 2269 
L 1828 2269 
Q 2231 2269 2412 2522 
Q 2594 2775 2644 3269 
L 2763 3269 
L 2763 1050 
L 2644 1050 
Q 2606 1413 2486 1644 
Q 2366 1875 2206 1954 
Q 2047 2034 1744 2034 
L 1744 841 
Q 1744 491 1773 412 
Q 1803 334 1884 284 
Q 1966 234 2147 234 
L 2400 234 
Q 2994 234 3351 509 
Q 3709 784 3866 1347 
L 3981 1347 
L 3791 0 
L 128 0 
L 128 116 
L 269 116 
Q 453 116 566 181 
Q 647 225 691 331 
Q 725 406 725 725 
L 725 3513 
Q 725 3800 709 3866 
Q 678 3975 594 4034 
Q 475 4122 269 4122 
L 128 4122 
L 128 4238 
L 3675 4238 
L 3675 2984 
L 3556 2984 
Q 3466 3444 3302 3644 
Q 3138 3844 2838 3938 
Q 2663 3994 2181 3994 
L 1744 3994 
z
" transform="scale(0.015625)"/>
      <path id="TimesNewRomanPS-BoldMT-6d" d="M 1428 2922 
L 1428 2538 
Q 1669 2800 1873 2904 
Q 2078 3009 2322 3009 
Q 2603 3009 2793 2878 
Q 2984 2747 3088 2478 
Q 3338 2759 3567 2884 
Q 3797 3009 4047 3009 
Q 4350 3009 4529 2870 
Q 4709 2731 4779 2517 
Q 4850 2303 4850 1834 
L 4850 638 
Q 4850 300 4911 219 
Q 4972 138 5166 113 
L 5166 0 
L 3656 0 
L 3656 113 
Q 3834 128 3919 250 
Q 3975 334 3975 638 
L 3975 1894 
Q 3975 2284 3944 2390 
Q 3913 2497 3845 2548 
Q 3778 2600 3688 2600 
Q 3553 2600 3415 2501 
Q 3278 2403 3138 2206 
L 3138 638 
Q 3138 322 3191 241 
Q 3263 125 3466 113 
L 3466 0 
L 1953 0 
L 1953 113 
Q 2075 119 2145 173 
Q 2216 228 2239 304 
Q 2263 381 2263 638 
L 2263 1894 
Q 2263 2291 2231 2391 
Q 2200 2491 2126 2547 
Q 2053 2603 1969 2603 
Q 1844 2603 1741 2538 
Q 1594 2441 1428 2206 
L 1428 638 
Q 1428 328 1489 229 
Q 1550 131 1744 113 
L 1744 0 
L 238 0 
L 238 113 
Q 422 131 500 231 
Q 553 300 553 638 
L 553 2288 
Q 553 2619 492 2700 
Q 431 2781 238 2806 
L 238 2922 
L 1428 2922 
z
" transform="scale(0.015625)"/>
      <path id="TimesNewRomanPS-BoldMT-70" d="M 1347 297 
L 1347 -791 
Q 1347 -1016 1383 -1097 
Q 1419 -1178 1494 -1215 
Q 1569 -1253 1788 -1253 
L 1788 -1369 
L 122 -1369 
L 122 -1253 
Q 316 -1247 409 -1144 
Q 472 -1072 472 -772 
L 472 2313 
Q 472 2622 400 2708 
Q 328 2794 122 2806 
L 122 2922 
L 1347 2922 
L 1347 2538 
Q 1500 2763 1659 2863 
Q 1888 3009 2156 3009 
Q 2478 3009 2742 2806 
Q 3006 2603 3143 2245 
Q 3281 1888 3281 1475 
Q 3281 1031 3139 664 
Q 2997 297 2726 104 
Q 2456 -88 2125 -88 
Q 1884 -88 1675 19 
Q 1519 100 1347 297 
z
M 1347 613 
Q 1616 231 1922 231 
Q 2091 231 2200 409 
Q 2363 672 2363 1409 
Q 2363 2166 2184 2444 
Q 2066 2628 1866 2628 
Q 1550 2628 1347 2172 
L 1347 613 
z
" transform="scale(0.015625)"/>
      <path id="TimesNewRomanPS-BoldMT-65" d="M 2691 1566 
L 1088 1566 
Q 1116 984 1397 647 
Q 1613 388 1916 388 
Q 2103 388 2256 492 
Q 2409 597 2584 869 
L 2691 800 
Q 2453 316 2165 114 
Q 1878 -88 1500 -88 
Q 850 -88 516 413 
Q 247 816 247 1413 
Q 247 2144 642 2576 
Q 1038 3009 1569 3009 
Q 2013 3009 2339 2645 
Q 2666 2281 2691 1566 
z
M 1922 1775 
Q 1922 2278 1867 2465 
Q 1813 2653 1697 2750 
Q 1631 2806 1522 2806 
Q 1359 2806 1256 2647 
Q 1072 2369 1072 1884 
L 1072 1775 
L 1922 1775 
z
" transform="scale(0.015625)"/>
      <path id="TimesNewRomanPS-BoldMT-73" d="M 2063 3003 
L 2109 2006 
L 2003 2006 
Q 1813 2450 1608 2612 
Q 1403 2775 1200 2775 
Q 1072 2775 981 2689 
Q 891 2603 891 2491 
Q 891 2406 953 2328 
Q 1053 2200 1512 1889 
Q 1972 1578 2117 1361 
Q 2263 1144 2263 875 
Q 2263 631 2141 397 
Q 2019 163 1797 37 
Q 1575 -88 1306 -88 
Q 1097 -88 747 44 
Q 653 78 619 78 
Q 516 78 447 -78 
L 344 -78 
L 294 972 
L 400 972 
Q 541 559 786 353 
Q 1031 147 1250 147 
Q 1400 147 1495 239 
Q 1591 331 1591 463 
Q 1591 613 1497 722 
Q 1403 831 1078 1053 
Q 600 1384 459 1559 
Q 253 1816 253 2125 
Q 253 2463 486 2736 
Q 719 3009 1159 3009 
Q 1397 3009 1619 2894 
Q 1703 2847 1756 2847 
Q 1813 2847 1847 2870 
Q 1881 2894 1956 3003 
L 2063 3003 
z
" transform="scale(0.015625)"/>
      <path id="TimesNewRomanPS-BoldMT-69" d="M 919 4338 
Q 1122 4338 1262 4195 
Q 1403 4053 1403 3853 
Q 1403 3653 1261 3512 
Q 1119 3372 919 3372 
Q 719 3372 578 3512 
Q 438 3653 438 3853 
Q 438 4053 578 4195 
Q 719 4338 919 4338 
z
M 1356 2922 
L 1356 606 
Q 1356 297 1428 211 
Q 1500 125 1709 113 
L 1709 0 
L 131 0 
L 131 113 
Q 325 119 419 225 
Q 481 297 481 606 
L 481 2313 
Q 481 2622 409 2708 
Q 338 2794 131 2806 
L 131 2922 
L 1356 2922 
z
" transform="scale(0.015625)"/>
      <path id="TimesNewRomanPS-BoldMT-6e" d="M 1409 2922 
L 1409 2544 
Q 1634 2788 1840 2898 
Q 2047 3009 2284 3009 
Q 2569 3009 2756 2851 
Q 2944 2694 3006 2459 
Q 3056 2281 3056 1775 
L 3056 638 
Q 3056 300 3117 217 
Q 3178 134 3372 113 
L 3372 0 
L 1894 0 
L 1894 113 
Q 2059 134 2131 250 
Q 2181 328 2181 638 
L 2181 1938 
Q 2181 2297 2153 2390 
Q 2125 2484 2058 2536 
Q 1991 2588 1909 2588 
Q 1641 2588 1409 2203 
L 1409 638 
Q 1409 309 1470 221 
Q 1531 134 1697 113 
L 1697 0 
L 219 0 
L 219 113 
Q 403 131 481 231 
Q 534 300 534 638 
L 534 2288 
Q 534 2619 473 2700 
Q 413 2781 219 2806 
L 219 2922 
L 1409 2922 
z
" transform="scale(0.015625)"/>
      <path id="TimesNewRomanPS-BoldMT-44" d="M 84 0 
L 84 116 
L 225 116 
Q 409 116 507 173 
Q 606 231 653 331 
Q 681 397 681 725 
L 681 3513 
Q 681 3838 647 3919 
Q 613 4000 508 4061 
Q 403 4122 225 4122 
L 84 4122 
L 84 4238 
L 1981 4238 
Q 2741 4238 3203 4031 
Q 3769 3778 4061 3265 
Q 4353 2753 4353 2106 
Q 4353 1659 4209 1282 
Q 4066 906 3837 661 
Q 3609 416 3311 267 
Q 3013 119 2581 38 
Q 2391 0 1981 0 
L 84 0 
z
M 1700 3997 
L 1700 691 
Q 1700 428 1725 368 
Q 1750 309 1809 278 
Q 1894 231 2053 231 
Q 2575 231 2850 588 
Q 3225 1069 3225 2081 
Q 3225 2897 2969 3384 
Q 2766 3766 2447 3903 
Q 2222 4000 1700 3997 
z
" transform="scale(0.015625)"/>
      <path id="TimesNewRomanPS-BoldMT-74" d="M 1375 3991 
L 1375 2922 
L 2069 2922 
L 2069 2613 
L 1375 2613 
L 1375 809 
Q 1375 556 1398 482 
Q 1422 409 1481 364 
Q 1541 319 1591 319 
Q 1794 319 1975 628 
L 2069 559 
Q 1816 -41 1247 -41 
Q 969 -41 776 114 
Q 584 269 531 459 
Q 500 566 500 1034 
L 500 2613 
L 119 2613 
L 119 2722 
Q 513 3000 789 3306 
Q 1066 3613 1272 3991 
L 1375 3991 
z
" transform="scale(0.015625)"/>
      <path id="TimesNewRomanPS-BoldMT-43" d="M 4272 4334 
L 4272 2866 
L 4150 2866 
Q 4013 3441 3638 3747 
Q 3263 4053 2788 4053 
Q 2391 4053 2059 3825 
Q 1728 3597 1575 3228 
Q 1378 2756 1378 2178 
Q 1378 1609 1522 1142 
Q 1666 675 1972 436 
Q 2278 197 2766 197 
Q 3166 197 3498 372 
Q 3831 547 4200 975 
L 4200 609 
Q 3844 238 3458 70 
Q 3072 -97 2556 -97 
Q 1878 -97 1351 175 
Q 825 447 539 956 
Q 253 1466 253 2041 
Q 253 2647 570 3190 
Q 888 3734 1427 4034 
Q 1966 4334 2572 4334 
Q 3019 4334 3516 4141 
Q 3803 4028 3881 4028 
Q 3981 4028 4054 4101 
Q 4128 4175 4150 4334 
L 4272 4334 
z
" transform="scale(0.015625)"/>
      <path id="TimesNewRomanPS-BoldMT-28" d="M 2056 4334 
L 2056 4191 
Q 1731 3978 1578 3775 
Q 1366 3494 1247 3053 
Q 1097 2506 1097 1525 
Q 1097 600 1233 87 
Q 1369 -425 1603 -741 
Q 1766 -959 2056 -1125 
L 2056 -1281 
Q 1303 -1028 779 -248 
Q 256 531 256 1544 
Q 256 2544 778 3314 
Q 1300 4084 2056 4334 
z
" transform="scale(0.015625)"/>
      <path id="TimesNewRomanPS-BoldMT-55" d="M 150 4238 
L 2338 4238 
L 2338 4122 
L 2228 4122 
Q 1981 4122 1889 4070 
Q 1797 4019 1758 3928 
Q 1719 3838 1719 3475 
L 1719 1400 
Q 1719 831 1805 647 
Q 1891 463 2087 341 
Q 2284 219 2584 219 
Q 2928 219 3170 373 
Q 3413 528 3533 800 
Q 3653 1072 3653 1747 
L 3653 3475 
Q 3653 3759 3593 3881 
Q 3534 4003 3444 4050 
Q 3303 4122 3047 4122 
L 3047 4238 
L 4513 4238 
L 4513 4122 
L 4425 4122 
Q 4247 4122 4128 4050 
Q 4009 3978 3956 3834 
Q 3916 3734 3916 3475 
L 3916 1866 
Q 3916 1119 3817 787 
Q 3719 456 3337 178 
Q 2956 -100 2297 -100 
Q 1747 -100 1447 47 
Q 1038 247 869 559 
Q 700 872 700 1400 
L 700 3475 
Q 700 3841 659 3930 
Q 619 4019 519 4072 
Q 419 4125 150 4122 
L 150 4238 
z
" transform="scale(0.015625)"/>
      <path id="TimesNewRomanPS-BoldMT-29" d="M 78 -1281 
L 78 -1138 
Q 403 -922 556 -719 
Q 766 -438 888 0 
Q 1038 550 1038 1531 
Q 1038 2456 902 2967 
Q 766 3478 531 3794 
Q 369 4013 78 4178 
L 78 4334 
Q 831 4081 1354 3301 
Q 1878 2522 1878 1509 
Q 1878 513 1354 -257 
Q 831 -1028 78 -1281 
z
" transform="scale(0.015625)"/>
     </defs>
     <use xlink:href="#TimesNewRomanPS-BoldMT-53"/>
     <use xlink:href="#TimesNewRomanPS-BoldMT-61" x="55.615234"/>
     <use xlink:href="#TimesNewRomanPS-BoldMT-6c" x="105.615234"/>
     <use xlink:href="#TimesNewRomanPS-BoldMT-61" x="133.398438"/>
     <use xlink:href="#TimesNewRomanPS-BoldMT-72" x="183.398438"/>
     <use xlink:href="#TimesNewRomanPS-BoldMT-79" x="227.783203"/>
     <use xlink:href="#TimesNewRomanPS-BoldMT-20" x="277.783203"/>
     <use xlink:href="#TimesNewRomanPS-BoldMT-6f" x="302.783203"/>
     <use xlink:href="#TimesNewRomanPS-BoldMT-66" x="352.783203"/>
     <use xlink:href="#TimesNewRomanPS-BoldMT-20" x="386.083984"/>
     <use xlink:href="#TimesNewRomanPS-BoldMT-45" x="411.083984"/>
     <use xlink:href="#TimesNewRomanPS-BoldMT-6d" x="477.783203"/>
     <use xlink:href="#TimesNewRomanPS-BoldMT-70" x="561.083984"/>
     <use xlink:href="#TimesNewRomanPS-BoldMT-6c" x="616.699219"/>
     <use xlink:href="#TimesNewRomanPS-BoldMT-6f" x="644.482422"/>
     <use xlink:href="#TimesNewRomanPS-BoldMT-79" x="694.482422"/>
     <use xlink:href="#TimesNewRomanPS-BoldMT-65" x="744.482422"/>
     <use xlink:href="#TimesNewRomanPS-BoldMT-65" x="788.867188"/>
     <use xlink:href="#TimesNewRomanPS-BoldMT-73" x="833.251953"/>
     <use xlink:href="#TimesNewRomanPS-BoldMT-20" x="872.167969"/>
     <use xlink:href="#TimesNewRomanPS-BoldMT-69" x="897.167969"/>
     <use xlink:href="#TimesNewRomanPS-BoldMT-6e" x="924.951172"/>
     <use xlink:href="#TimesNewRomanPS-BoldMT-20" x="980.566406"/>
     <use xlink:href="#TimesNewRomanPS-BoldMT-44" x="1005.566406"/>
     <use xlink:href="#TimesNewRomanPS-BoldMT-69" x="1077.783203"/>
     <use xlink:href="#TimesNewRomanPS-BoldMT-66" x="1105.566406"/>
     <use xlink:href="#TimesNewRomanPS-BoldMT-66" x="1138.867188"/>
     <use xlink:href="#TimesNewRomanPS-BoldMT-65" x="1172.167969"/>
     <use xlink:href="#TimesNewRomanPS-BoldMT-72" x="1216.552734"/>
     <use xlink:href="#TimesNewRomanPS-BoldMT-65" x="1259.1875"/>
     <use xlink:href="#TimesNewRomanPS-BoldMT-6e" x="1303.572266"/>
     <use xlink:href="#TimesNewRomanPS-BoldMT-74" x="1359.1875"/>
     <use xlink:href="#TimesNewRomanPS-BoldMT-20" x="1392.488281"/>
     <use xlink:href="#TimesNewRomanPS-BoldMT-43" x="1417.488281"/>
     <use xlink:href="#TimesNewRomanPS-BoldMT-69" x="1489.705078"/>
     <use xlink:href="#TimesNewRomanPS-BoldMT-74" x="1517.488281"/>
     <use xlink:href="#TimesNewRomanPS-BoldMT-69" x="1550.789062"/>
     <use xlink:href="#TimesNewRomanPS-BoldMT-65" x="1578.572266"/>
     <use xlink:href="#TimesNewRomanPS-BoldMT-73" x="1622.957031"/>
     <use xlink:href="#TimesNewRomanPS-BoldMT-20" x="1661.873047"/>
     <use xlink:href="#TimesNewRomanPS-BoldMT-28" x="1686.873047"/>
     <use xlink:href="#TimesNewRomanPS-BoldMT-55" x="1720.173828"/>
     <use xlink:href="#TimesNewRomanPS-BoldMT-53" x="1792.390625"/>
     <use xlink:href="#TimesNewRomanPS-BoldMT-44" x="1848.005859"/>
     <use xlink:href="#TimesNewRomanPS-BoldMT-29" x="1920.222656"/>
    </g>
   </g>
  </g>
 </g>
 <defs>
  <clipPath id="p59f90e56ed">
   <rect x="60.915938" y="30.045" width="366.78" height="228.855181"/>
  </clipPath>
 </defs>
</svg>
