<?xml version="1.0" encoding="utf-8" standalone="no"?>
<!DOCTYPE svg PUBLIC "-//W3C//DTD SVG 1.1//EN"
  "http://www.w3.org/Graphics/SVG/1.1/DTD/svg11.dtd">
<svg xmlns:xlink="http://www.w3.org/1999/xlink" width="442.905937pt" height="319.958821pt" viewBox="0 0 442.905937 319.958821" xmlns="http://www.w3.org/2000/svg" version="1.1">
 <metadata>
  <rdf:RDF xmlns:dc="http://purl.org/dc/elements/1.1/" xmlns:cc="http://creativecommons.org/ns#" xmlns:rdf="http://www.w3.org/1999/02/22-rdf-syntax-ns#">
   <cc:Work>
    <dc:type rdf:resource="http://purl.org/dc/dcmitype/StillImage"/>
    <dc:date>2025-05-26T16:51:30.264739</dc:date>
    <dc:format>image/svg+xml</dc:format>
    <dc:creator>
     <cc:Agent>
      <dc:title>Matplotlib v3.7.2, https://matplotlib.org/</dc:title>
     </cc:Agent>
    </dc:creator>
   </cc:Work>
  </rdf:RDF>
 </metadata>
 <defs>
  <style type="text/css">*{stroke-linejoin: round; stroke-linecap: butt}</style>
 </defs>
 <g id="figure_1">
  <g id="patch_1">
   <path d="M 0 319.958821 
L 442.905937 319.958821 
L 442.905937 0 
L 0 0 
z
" style="fill: #ffffff"/>
  </g>
  <g id="axes_1">
   <g id="patch_2">
    <path d="M 50.915938 253.045337 
L 427.715937 253.045337 
L 427.715937 30.045 
L 50.915938 30.045 
z
" style="fill: #ffffff"/>
   </g>
   <g id="PolyCollection_1">
    <defs>
     <path id="m041366ca11" d="M 93.276055 -82.04667 
L 71.35582 -82.04667 
L 70.13201 -83.999246 
L 68.924572 -85.951822 
L 67.757085 -87.904398 
L 66.651732 -89.856974 
L 65.628175 -91.80955 
L 64.702623 -93.762126 
L 63.887155 -95.714703 
L 63.189354 -97.667279 
L 62.61227 -99.619855 
L 62.154701 -101.572431 
L 61.811741 -103.525007 
L 61.575537 -105.477583 
L 61.436175 -107.430159 
L 61.382604 -109.382735 
L 61.403523 -111.335311 
L 61.488147 -113.287887 
L 61.626808 -115.240463 
L 61.811359 -117.193039 
L 62.035356 -119.145615 
L 62.294046 -121.098191 
L 62.584186 -123.050767 
L 62.903724 -125.003343 
L 63.251419 -126.955919 
L 63.626425 -128.908495 
L 64.027906 -130.861072 
L 64.454712 -132.813648 
L 64.905146 -134.766224 
L 65.376831 -136.7188 
L 65.866682 -138.671376 
L 66.370971 -140.623952 
L 66.885464 -142.576528 
L 67.405616 -144.529104 
L 67.926785 -146.48168 
L 68.444469 -148.434256 
L 68.954516 -150.386832 
L 69.453317 -152.339408 
L 69.93795 -154.291984 
L 70.406283 -156.24456 
L 70.857007 -158.197136 
L 71.289631 -160.149712 
L 71.704411 -162.102288 
L 72.102239 -164.054864 
L 72.4845 -166.00744 
L 72.852909 -167.960017 
L 73.209349 -169.912593 
L 73.555721 -171.865169 
L 73.893824 -173.817745 
L 74.225272 -175.770321 
L 74.551444 -177.722897 
L 74.873483 -179.675473 
L 75.192307 -181.628049 
L 75.508643 -183.580625 
L 75.823064 -185.533201 
L 76.136007 -187.485777 
L 76.447776 -189.438353 
L 76.758511 -191.390929 
L 77.068144 -193.343505 
L 77.376331 -195.296081 
L 77.682386 -197.248657 
L 77.98523 -199.201233 
L 78.283369 -201.153809 
L 78.574909 -203.106386 
L 78.857634 -205.058962 
L 79.129114 -207.011538 
L 79.386869 -208.964114 
L 79.628542 -210.91669 
L 79.852092 -212.869266 
L 80.055954 -214.821842 
L 80.23917 -216.774418 
L 80.401468 -218.726994 
L 80.543274 -220.67957 
L 80.665674 -222.632146 
L 80.770313 -224.584722 
L 80.85926 -226.537298 
L 80.934855 -228.489874 
L 80.999539 -230.44245 
L 81.055705 -232.395026 
L 81.105568 -234.347602 
L 81.151063 -236.300178 
L 81.19378 -238.252754 
L 81.234923 -240.205331 
L 81.27531 -242.157907 
L 81.315383 -244.110483 
L 81.355257 -246.063059 
L 81.394765 -248.015635 
L 81.433536 -249.968211 
L 81.471067 -251.920787 
L 81.506815 -253.873363 
L 81.540283 -255.825939 
L 81.571097 -257.778515 
L 81.599082 -259.731091 
L 81.624304 -261.683667 
L 81.647092 -263.636243 
L 81.668028 -265.588819 
L 81.687898 -267.541395 
L 81.707625 -269.493971 
L 81.728171 -271.446547 
L 81.750438 -273.399123 
L 81.775168 -275.3517 
L 82.856707 -275.3517 
L 82.856707 -275.3517 
L 82.881437 -273.399123 
L 82.903704 -271.446547 
L 82.92425 -269.493971 
L 82.943977 -267.541395 
L 82.963847 -265.588819 
L 82.984783 -263.636243 
L 83.007571 -261.683667 
L 83.032793 -259.731091 
L 83.060778 -257.778515 
L 83.091592 -255.825939 
L 83.12506 -253.873363 
L 83.160808 -251.920787 
L 83.198339 -249.968211 
L 83.23711 -248.015635 
L 83.276618 -246.063059 
L 83.316492 -244.110483 
L 83.356565 -242.157907 
L 83.396952 -240.205331 
L 83.438095 -238.252754 
L 83.480812 -236.300178 
L 83.526307 -234.347602 
L 83.57617 -232.395026 
L 83.632336 -230.44245 
L 83.69702 -228.489874 
L 83.772615 -226.537298 
L 83.861562 -224.584722 
L 83.966201 -222.632146 
L 84.088601 -220.67957 
L 84.230407 -218.726994 
L 84.392705 -216.774418 
L 84.575921 -214.821842 
L 84.779783 -212.869266 
L 85.003333 -210.91669 
L 85.245006 -208.964114 
L 85.502761 -207.011538 
L 85.774241 -205.058962 
L 86.056966 -203.106386 
L 86.348506 -201.153809 
L 86.646645 -199.201233 
L 86.949489 -197.248657 
L 87.255544 -195.296081 
L 87.563731 -193.343505 
L 87.873364 -191.390929 
L 88.184099 -189.438353 
L 88.495868 -187.485777 
L 88.808811 -185.533201 
L 89.123232 -183.580625 
L 89.439568 -181.628049 
L 89.758392 -179.675473 
L 90.080431 -177.722897 
L 90.406603 -175.770321 
L 90.738051 -173.817745 
L 91.076154 -171.865169 
L 91.422526 -169.912593 
L 91.778966 -167.960017 
L 92.147375 -166.00744 
L 92.529636 -164.054864 
L 92.927464 -162.102288 
L 93.342244 -160.149712 
L 93.774868 -158.197136 
L 94.225592 -156.24456 
L 94.693925 -154.291984 
L 95.178558 -152.339408 
L 95.677359 -150.386832 
L 96.187406 -148.434256 
L 96.70509 -146.48168 
L 97.226259 -144.529104 
L 97.746411 -142.576528 
L 98.260904 -140.623952 
L 98.765193 -138.671376 
L 99.255044 -136.7188 
L 99.726729 -134.766224 
L 100.177163 -132.813648 
L 100.603969 -130.861072 
L 101.00545 -128.908495 
L 101.380456 -126.955919 
L 101.728151 -125.003343 
L 102.047689 -123.050767 
L 102.337829 -121.098191 
L 102.596519 -119.145615 
L 102.820516 -117.193039 
L 103.005067 -115.240463 
L 103.143728 -113.287887 
L 103.228352 -111.335311 
L 103.249271 -109.382735 
L 103.1957 -107.430159 
L 103.056338 -105.477583 
L 102.820134 -103.525007 
L 102.477174 -101.572431 
L 102.019605 -99.619855 
L 101.442521 -97.667279 
L 100.74472 -95.714703 
L 99.929252 -93.762126 
L 99.0037 -91.80955 
L 97.980143 -89.856974 
L 96.87479 -87.904398 
L 95.707303 -85.951822 
L 94.499865 -83.999246 
L 93.276055 -82.04667 
z
" style="stroke: #000000; stroke-opacity: 0.7"/>
    </defs>
    <g clip-path="url(#pbca0d7b8bd)">
     <use xlink:href="#m041366ca11" x="0" y="319.958821" style="fill: #b3b3b3; fill-opacity: 0.7; stroke: #000000; stroke-opacity: 0.7"/>
    </g>
   </g>
   <g id="PolyCollection_2">
    <defs>
     <path id="mf84dc4dfaa" d="M 152.436113 -80.047948 
L 137.795762 -80.047948 
L 137.033734 -81.526079 
L 136.257384 -83.004211 
L 135.473599 -84.482343 
L 134.688993 -85.960475 
L 133.909668 -87.438607 
L 133.141019 -88.916738 
L 132.387606 -90.39487 
L 131.653102 -91.873002 
L 130.940317 -93.351134 
L 130.251301 -94.829266 
L 129.587522 -96.307397 
L 128.950091 -97.785529 
L 128.34003 -99.263661 
L 127.758541 -100.741793 
L 127.207259 -102.219925 
L 126.688461 -103.698056 
L 126.205196 -105.176188 
L 125.761335 -106.65432 
L 125.361505 -108.132452 
L 125.010928 -109.610584 
L 124.715159 -111.088715 
L 124.479744 -112.566847 
L 124.309825 -114.044979 
L 124.209736 -115.523111 
L 124.182604 -117.001243 
L 124.230025 -118.479374 
L 124.351819 -119.957506 
L 124.545908 -121.435638 
L 124.808331 -122.91377 
L 125.13339 -124.391902 
L 125.513924 -125.870033 
L 125.941686 -127.348165 
L 126.407796 -128.826297 
L 126.903214 -130.304429 
L 127.41921 -131.782561 
L 127.947783 -133.260692 
L 128.481989 -134.738824 
L 129.016164 -136.216956 
L 129.546018 -137.695088 
L 130.068611 -139.17322 
L 130.582213 -140.651351 
L 131.086072 -142.129483 
L 131.580129 -143.607615 
L 132.064696 -145.085747 
L 132.540148 -146.563878 
L 133.006648 -148.04201 
L 133.463941 -149.520142 
L 133.911214 -150.998274 
L 134.347052 -152.476406 
L 134.769475 -153.954537 
L 135.176046 -155.432669 
L 135.564036 -156.910801 
L 135.930637 -158.388933 
L 136.273174 -159.867065 
L 136.589325 -161.345196 
L 136.87731 -162.823328 
L 137.13604 -164.30146 
L 137.365221 -165.779592 
L 137.565395 -167.257724 
L 137.737933 -168.735855 
L 137.884974 -170.213987 
L 138.009322 -171.692119 
L 138.114313 -173.170251 
L 138.203662 -174.648383 
L 138.281301 -176.126514 
L 138.351225 -177.604646 
L 138.417353 -179.082778 
L 138.483404 -180.56091 
L 138.552809 -182.039042 
L 138.628643 -183.517173 
L 138.713584 -184.995305 
L 138.809897 -186.473437 
L 138.91943 -187.951569 
L 139.04362 -189.429701 
L 139.183505 -190.907832 
L 139.339729 -192.385964 
L 139.512544 -193.864096 
L 139.70181 -195.342228 
L 139.906977 -196.82036 
L 140.127083 -198.298491 
L 140.360743 -199.776623 
L 140.606157 -201.254755 
L 140.861129 -202.732887 
L 141.123116 -204.211019 
L 141.38929 -205.68915 
L 141.656633 -207.167282 
L 141.922047 -208.645414 
L 142.182479 -210.123546 
L 142.435049 -211.601678 
L 142.677173 -213.079809 
L 142.906673 -214.557941 
L 143.121854 -216.036073 
L 143.321557 -217.514205 
L 143.505175 -218.992337 
L 143.67263 -220.470468 
L 143.824319 -221.9486 
L 143.961037 -223.426732 
L 144.083878 -224.904864 
L 144.194125 -226.382996 
L 146.03775 -226.382996 
L 146.03775 -226.382996 
L 146.147997 -224.904864 
L 146.270838 -223.426732 
L 146.407556 -221.9486 
L 146.559245 -220.470468 
L 146.7267 -218.992337 
L 146.910318 -217.514205 
L 147.110021 -216.036073 
L 147.325202 -214.557941 
L 147.554702 -213.079809 
L 147.796826 -211.601678 
L 148.049396 -210.123546 
L 148.309828 -208.645414 
L 148.575242 -207.167282 
L 148.842585 -205.68915 
L 149.108759 -204.211019 
L 149.370746 -202.732887 
L 149.625718 -201.254755 
L 149.871132 -199.776623 
L 150.104792 -198.298491 
L 150.324898 -196.82036 
L 150.530065 -195.342228 
L 150.719331 -193.864096 
L 150.892146 -192.385964 
L 151.04837 -190.907832 
L 151.188255 -189.429701 
L 151.312445 -187.951569 
L 151.421978 -186.473437 
L 151.518291 -184.995305 
L 151.603232 -183.517173 
L 151.679066 -182.039042 
L 151.748471 -180.56091 
L 151.814522 -179.082778 
L 151.88065 -177.604646 
L 151.950574 -176.126514 
L 152.028213 -174.648383 
L 152.117562 -173.170251 
L 152.222553 -171.692119 
L 152.346901 -170.213987 
L 152.493942 -168.735855 
L 152.66648 -167.257724 
L 152.866654 -165.779592 
L 153.095835 -164.30146 
L 153.354565 -162.823328 
L 153.64255 -161.345196 
L 153.958701 -159.867065 
L 154.301238 -158.388933 
L 154.667839 -156.910801 
L 155.055829 -155.432669 
L 155.4624 -153.954537 
L 155.884823 -152.476406 
L 156.320661 -150.998274 
L 156.767934 -149.520142 
L 157.225227 -148.04201 
L 157.691727 -146.563878 
L 158.167179 -145.085747 
L 158.651746 -143.607615 
L 159.145803 -142.129483 
L 159.649662 -140.651351 
L 160.163264 -139.17322 
L 160.685857 -137.695088 
L 161.215711 -136.216956 
L 161.749886 -134.738824 
L 162.284092 -133.260692 
L 162.812665 -131.782561 
L 163.328661 -130.304429 
L 163.824079 -128.826297 
L 164.290189 -127.348165 
L 164.717951 -125.870033 
L 165.098485 -124.391902 
L 165.423544 -122.91377 
L 165.685967 -121.435638 
L 165.880056 -119.957506 
L 166.00185 -118.479374 
L 166.049271 -117.001243 
L 166.022139 -115.523111 
L 165.92205 -114.044979 
L 165.752131 -112.566847 
L 165.516716 -111.088715 
L 165.220947 -109.610584 
L 164.87037 -108.132452 
L 164.47054 -106.65432 
L 164.026679 -105.176188 
L 163.543414 -103.698056 
L 163.024616 -102.219925 
L 162.473334 -100.741793 
L 161.891845 -99.263661 
L 161.281784 -97.785529 
L 160.644353 -96.307397 
L 159.980574 -94.829266 
L 159.291558 -93.351134 
L 158.578773 -91.873002 
L 157.844269 -90.39487 
L 157.090856 -88.916738 
L 156.322207 -87.438607 
L 155.542882 -85.960475 
L 154.758276 -84.482343 
L 153.974491 -83.004211 
L 153.198141 -81.526079 
L 152.436113 -80.047948 
z
" style="stroke: #000000; stroke-opacity: 0.7"/>
    </defs>
    <g clip-path="url(#pbca0d7b8bd)">
     <use xlink:href="#mf84dc4dfaa" x="0" y="319.958821" style="fill: #2ca02c; fill-opacity: 0.7; stroke: #000000; stroke-opacity: 0.7"/>
    </g>
   </g>
   <g id="PolyCollection_3">
    <defs>
     <path id="m526f1a7fb8" d="M 217.567563 -82.617734 
L 198.264312 -82.617734 
L 197.087658 -84.609246 
L 195.897713 -86.600758 
L 194.714632 -88.59227 
L 193.558951 -90.583783 
L 192.450834 -92.575295 
L 191.409348 -94.566807 
L 190.451816 -96.558319 
L 189.593254 -98.549831 
L 188.84593 -100.541344 
L 188.219031 -102.532856 
L 187.718473 -104.524368 
L 187.34682 -106.51588 
L 187.103339 -108.507392 
L 186.98417 -110.498905 
L 186.982604 -112.490417 
L 187.089458 -114.481929 
L 187.293526 -116.473441 
L 187.582094 -118.464954 
L 187.941482 -120.456466 
L 188.357606 -122.447978 
L 188.816524 -124.43949 
L 189.304949 -126.431002 
L 189.810711 -128.422515 
L 190.323147 -130.414027 
L 190.833401 -132.405539 
L 191.334631 -134.397051 
L 191.822105 -136.388563 
L 192.293189 -138.380076 
L 192.747233 -140.371588 
L 193.185348 -142.3631 
L 193.610103 -144.354612 
L 194.025161 -146.346124 
L 194.434867 -148.337637 
L 194.843819 -150.329149 
L 195.256463 -152.320661 
L 195.676712 -154.312173 
L 196.107631 -156.303685 
L 196.551199 -158.295198 
L 197.008161 -160.28671 
L 197.477971 -162.278222 
L 197.958825 -164.269734 
L 198.447785 -166.261247 
L 198.940971 -168.252759 
L 199.4338 -170.244271 
L 199.92127 -172.235783 
L 200.398247 -174.227295 
L 200.859759 -176.218808 
L 201.301252 -178.21032 
L 201.718823 -180.201832 
L 202.1094 -182.193344 
L 202.470871 -184.184856 
L 202.802159 -186.176369 
L 203.103237 -188.167881 
L 203.375091 -190.159393 
L 203.619629 -192.150905 
L 203.839545 -194.142417 
L 204.038139 -196.13393 
L 204.219114 -198.125442 
L 204.386347 -200.116954 
L 204.543656 -202.108466 
L 204.694578 -204.099978 
L 204.842172 -206.091491 
L 204.98886 -208.083003 
L 205.136314 -210.074515 
L 205.285407 -212.066027 
L 205.436218 -214.05754 
L 205.588098 -216.049052 
L 205.739786 -218.040564 
L 205.889562 -220.032076 
L 206.035424 -222.023588 
L 206.175277 -224.015101 
L 206.307112 -226.006613 
L 206.429164 -227.998125 
L 206.540037 -229.989637 
L 206.638791 -231.981149 
L 206.724984 -233.972662 
L 206.798667 -235.964174 
L 206.860348 -237.955686 
L 206.910918 -239.947198 
L 206.951564 -241.93871 
L 206.983661 -243.930223 
L 207.00868 -245.921735 
L 207.028087 -247.913247 
L 207.043277 -249.904759 
L 207.055516 -251.896272 
L 207.06591 -253.887784 
L 207.075395 -255.879296 
L 207.084747 -257.870808 
L 207.094604 -259.86232 
L 207.105497 -261.853833 
L 207.117881 -263.845345 
L 207.132164 -265.836857 
L 207.148727 -267.828369 
L 207.167932 -269.819881 
L 207.19011 -271.811394 
L 207.215545 -273.802906 
L 207.244442 -275.794418 
L 207.276886 -277.78593 
L 207.312817 -279.777442 
L 208.519058 -279.777442 
L 208.519058 -279.777442 
L 208.554989 -277.78593 
L 208.587433 -275.794418 
L 208.61633 -273.802906 
L 208.641765 -271.811394 
L 208.663943 -269.819881 
L 208.683148 -267.828369 
L 208.699711 -265.836857 
L 208.713994 -263.845345 
L 208.726378 -261.853833 
L 208.737271 -259.86232 
L 208.747128 -257.870808 
L 208.75648 -255.879296 
L 208.765965 -253.887784 
L 208.776359 -251.896272 
L 208.788598 -249.904759 
L 208.803788 -247.913247 
L 208.823195 -245.921735 
L 208.848214 -243.930223 
L 208.880311 -241.93871 
L 208.920957 -239.947198 
L 208.971527 -237.955686 
L 209.033208 -235.964174 
L 209.106891 -233.972662 
L 209.193084 -231.981149 
L 209.291838 -229.989637 
L 209.402711 -227.998125 
L 209.524763 -226.006613 
L 209.656598 -224.015101 
L 209.796451 -222.023588 
L 209.942313 -220.032076 
L 210.092089 -218.040564 
L 210.243777 -216.049052 
L 210.395657 -214.05754 
L 210.546468 -212.066027 
L 210.695561 -210.074515 
L 210.843015 -208.083003 
L 210.989703 -206.091491 
L 211.137297 -204.099978 
L 211.288219 -202.108466 
L 211.445528 -200.116954 
L 211.612761 -198.125442 
L 211.793736 -196.13393 
L 211.99233 -194.142417 
L 212.212246 -192.150905 
L 212.456784 -190.159393 
L 212.728638 -188.167881 
L 213.029716 -186.176369 
L 213.361004 -184.184856 
L 213.722475 -182.193344 
L 214.113052 -180.201832 
L 214.530623 -178.21032 
L 214.972116 -176.218808 
L 215.433628 -174.227295 
L 215.910605 -172.235783 
L 216.398075 -170.244271 
L 216.890904 -168.252759 
L 217.38409 -166.261247 
L 217.87305 -164.269734 
L 218.353904 -162.278222 
L 218.823714 -160.28671 
L 219.280676 -158.295198 
L 219.724244 -156.303685 
L 220.155163 -154.312173 
L 220.575412 -152.320661 
L 220.988056 -150.329149 
L 221.397008 -148.337637 
L 221.806714 -146.346124 
L 222.221772 -144.354612 
L 222.646527 -142.3631 
L 223.084642 -140.371588 
L 223.538686 -138.380076 
L 224.00977 -136.388563 
L 224.497244 -134.397051 
L 224.998474 -132.405539 
L 225.508728 -130.414027 
L 226.021164 -128.422515 
L 226.526926 -126.431002 
L 227.015351 -124.43949 
L 227.474269 -122.447978 
L 227.890393 -120.456466 
L 228.249781 -118.464954 
L 228.538349 -116.473441 
L 228.742417 -114.481929 
L 228.849271 -112.490417 
L 228.847705 -110.498905 
L 228.728536 -108.507392 
L 228.485055 -106.51588 
L 228.113402 -104.524368 
L 227.612844 -102.532856 
L 226.985945 -100.541344 
L 226.238621 -98.549831 
L 225.380059 -96.558319 
L 224.422527 -94.566807 
L 223.381041 -92.575295 
L 222.272924 -90.583783 
L 221.117243 -88.59227 
L 219.934162 -86.600758 
L 218.744217 -84.609246 
L 217.567563 -82.617734 
z
" style="stroke: #000000; stroke-opacity: 0.7"/>
    </defs>
    <g clip-path="url(#pbca0d7b8bd)">
     <use xlink:href="#m526f1a7fb8" x="0" y="319.958821" style="fill: #8da0cb; fill-opacity: 0.7; stroke: #000000; stroke-opacity: 0.7"/>
    </g>
   </g>
   <g id="PolyCollection_4">
    <defs>
     <path id="m7ef422162f" d="M 278.890934 -79.61965 
L 262.540941 -79.61965 
L 261.582466 -81.303999 
L 260.603529 -82.988348 
L 259.615848 -84.672697 
L 258.631124 -86.357047 
L 257.66063 -88.041396 
L 256.71488 -89.725745 
L 255.803393 -91.410094 
L 254.934588 -93.094444 
L 254.115783 -94.778793 
L 253.353301 -96.463142 
L 252.652645 -98.147491 
L 252.018697 -99.83184 
L 251.455908 -101.51619 
L 250.968426 -103.200539 
L 250.560147 -104.884888 
L 250.234661 -106.569237 
L 249.9951 -108.253586 
L 249.843916 -109.937936 
L 249.782604 -111.622285 
L 249.811435 -113.306634 
L 249.929223 -114.990983 
L 250.133173 -116.675332 
L 250.418837 -118.359682 
L 250.78018 -120.044031 
L 251.209757 -121.72838 
L 251.698981 -123.412729 
L 252.238444 -125.097079 
L 252.818263 -126.781428 
L 253.428415 -128.465777 
L 254.05904 -130.150126 
L 254.700681 -131.834475 
L 255.344478 -133.518825 
L 255.982298 -135.203174 
L 256.606831 -136.887523 
L 257.211657 -138.571872 
L 257.791305 -140.256221 
L 258.341305 -141.940571 
L 258.858254 -143.62492 
L 259.33987 -145.309269 
L 259.785051 -146.993618 
L 260.1939 -148.677967 
L 260.567721 -150.362317 
L 260.90896 -152.046666 
L 261.221094 -153.731015 
L 261.508446 -155.415364 
L 261.775961 -157.099714 
L 262.02893 -158.784063 
L 262.272687 -160.468412 
L 262.512313 -162.152761 
L 262.752354 -163.83711 
L 262.996583 -165.52146 
L 263.247821 -167.205809 
L 263.507822 -168.890158 
L 263.777236 -170.574507 
L 264.055631 -172.258856 
L 264.341579 -173.943206 
L 264.632788 -175.627555 
L 264.926269 -177.311904 
L 265.218527 -178.996253 
L 265.505762 -180.680602 
L 265.784081 -182.364952 
L 266.049715 -184.049301 
L 266.29922 -185.73365 
L 266.529688 -187.417999 
L 266.738927 -189.102349 
L 266.925626 -190.786698 
L 267.089476 -192.471047 
L 267.231241 -194.155396 
L 267.352771 -195.839745 
L 267.45693 -197.524095 
L 267.547454 -199.208444 
L 267.628733 -200.892793 
L 267.705525 -202.577142 
L 267.782633 -204.261491 
L 267.864557 -205.945841 
L 267.955162 -207.63019 
L 268.057394 -209.314539 
L 268.173054 -210.998888 
L 268.302681 -212.683237 
L 268.445531 -214.367587 
L 268.59966 -216.051936 
L 268.762115 -217.736285 
L 268.929191 -219.420634 
L 269.096751 -221.104984 
L 269.260557 -222.789333 
L 269.416597 -224.473682 
L 269.561376 -226.158031 
L 269.692138 -227.84238 
L 269.807026 -229.52673 
L 269.905142 -231.211079 
L 269.986544 -232.895428 
L 270.052155 -234.579777 
L 270.103624 -236.264126 
L 270.14314 -237.948476 
L 270.173221 -239.632825 
L 270.196509 -241.317174 
L 270.215566 -243.001523 
L 270.232709 -244.685872 
L 270.249879 -246.370222 
L 271.181996 -246.370222 
L 271.181996 -246.370222 
L 271.199166 -244.685872 
L 271.216309 -243.001523 
L 271.235366 -241.317174 
L 271.258654 -239.632825 
L 271.288735 -237.948476 
L 271.328251 -236.264126 
L 271.37972 -234.579777 
L 271.445331 -232.895428 
L 271.526733 -231.211079 
L 271.624849 -229.52673 
L 271.739737 -227.84238 
L 271.870499 -226.158031 
L 272.015278 -224.473682 
L 272.171318 -222.789333 
L 272.335124 -221.104984 
L 272.502684 -219.420634 
L 272.66976 -217.736285 
L 272.832215 -216.051936 
L 272.986344 -214.367587 
L 273.129194 -212.683237 
L 273.258821 -210.998888 
L 273.374481 -209.314539 
L 273.476713 -207.63019 
L 273.567318 -205.945841 
L 273.649242 -204.261491 
L 273.72635 -202.577142 
L 273.803142 -200.892793 
L 273.884421 -199.208444 
L 273.974945 -197.524095 
L 274.079104 -195.839745 
L 274.200634 -194.155396 
L 274.342399 -192.471047 
L 274.506249 -190.786698 
L 274.692948 -189.102349 
L 274.902187 -187.417999 
L 275.132655 -185.73365 
L 275.38216 -184.049301 
L 275.647794 -182.364952 
L 275.926113 -180.680602 
L 276.213348 -178.996253 
L 276.505606 -177.311904 
L 276.799087 -175.627555 
L 277.090296 -173.943206 
L 277.376244 -172.258856 
L 277.654639 -170.574507 
L 277.924053 -168.890158 
L 278.184054 -167.205809 
L 278.435292 -165.52146 
L 278.679521 -163.83711 
L 278.919562 -162.152761 
L 279.159188 -160.468412 
L 279.402945 -158.784063 
L 279.655914 -157.099714 
L 279.923429 -155.415364 
L 280.210781 -153.731015 
L 280.522915 -152.046666 
L 280.864154 -150.362317 
L 281.237975 -148.677967 
L 281.646824 -146.993618 
L 282.092005 -145.309269 
L 282.573621 -143.62492 
L 283.09057 -141.940571 
L 283.64057 -140.256221 
L 284.220218 -138.571872 
L 284.825044 -136.887523 
L 285.449577 -135.203174 
L 286.087397 -133.518825 
L 286.731194 -131.834475 
L 287.372835 -130.150126 
L 288.00346 -128.465777 
L 288.613612 -126.781428 
L 289.193431 -125.097079 
L 289.732894 -123.412729 
L 290.222118 -121.72838 
L 290.651695 -120.044031 
L 291.013038 -118.359682 
L 291.298702 -116.675332 
L 291.502652 -114.990983 
L 291.62044 -113.306634 
L 291.649271 -111.622285 
L 291.587959 -109.937936 
L 291.436775 -108.253586 
L 291.197214 -106.569237 
L 290.871728 -104.884888 
L 290.463449 -103.200539 
L 289.975967 -101.51619 
L 289.413178 -99.83184 
L 288.77923 -98.147491 
L 288.078574 -96.463142 
L 287.316092 -94.778793 
L 286.497287 -93.094444 
L 285.628482 -91.410094 
L 284.716995 -89.725745 
L 283.771245 -88.041396 
L 282.800751 -86.357047 
L 281.816027 -84.672697 
L 280.828346 -82.988348 
L 279.849409 -81.303999 
L 278.890934 -79.61965 
z
" style="stroke: #000000; stroke-opacity: 0.7"/>
    </defs>
    <g clip-path="url(#pbca0d7b8bd)">
     <use xlink:href="#m7ef422162f" x="0" y="319.958821" style="fill: #9edae5; fill-opacity: 0.7; stroke: #000000; stroke-opacity: 0.7"/>
    </g>
   </g>
   <g id="PolyCollection_5">
    <defs>
     <path id="m9f7533559b" d="M 341.496539 -77.049864 
L 325.535336 -77.049864 
L 324.692137 -78.796222 
L 323.834978 -80.542581 
L 322.970998 -82.28894 
L 322.106781 -84.035298 
L 321.248233 -85.781657 
L 320.40057 -87.528016 
L 319.568427 -89.274374 
L 318.756061 -91.020733 
L 317.96763 -92.767091 
L 317.207501 -94.51345 
L 316.480554 -96.259809 
L 315.792416 -98.006167 
L 315.1496 -99.752526 
L 314.559503 -101.498885 
L 314.030264 -103.245243 
L 313.570451 -104.991602 
L 313.188639 -106.737961 
L 312.892876 -108.484319 
L 312.690111 -110.230678 
L 312.585638 -111.977036 
L 312.582604 -113.723395 
L 312.681645 -115.469754 
L 312.880679 -117.216112 
L 313.174889 -118.962471 
L 313.556883 -120.70883 
L 314.017039 -122.455188 
L 314.54398 -124.201547 
L 315.125147 -125.947906 
L 315.747423 -127.694264 
L 316.397748 -129.440623 
L 317.063689 -131.186982 
L 317.733916 -132.93334 
L 318.398574 -134.679699 
L 319.049525 -136.426057 
L 319.680464 -138.172416 
L 320.286923 -139.918775 
L 320.866174 -141.665133 
L 321.417051 -143.411492 
L 321.939728 -145.157851 
L 322.435456 -146.904209 
L 322.906297 -148.650568 
L 323.35486 -150.396927 
L 323.784058 -152.143285 
L 324.19689 -153.889644 
L 324.596255 -155.636003 
L 324.984799 -157.382361 
L 325.364795 -159.12872 
L 325.738058 -160.875078 
L 326.105888 -162.621437 
L 326.469046 -164.367796 
L 326.827748 -166.114154 
L 327.181699 -167.860513 
L 327.530127 -169.606872 
L 327.871859 -171.35323 
L 328.205394 -173.099589 
L 328.529002 -174.845948 
L 328.840819 -176.592306 
L 329.138959 -178.338665 
L 329.421615 -180.085024 
L 329.687158 -181.831382 
L 329.934228 -183.577741 
L 330.161809 -185.324099 
L 330.369283 -187.070458 
L 330.556462 -188.816817 
L 330.723605 -190.563175 
L 330.871397 -192.309534 
L 331.000918 -194.055893 
L 331.11358 -195.802251 
L 331.211052 -197.54861 
L 331.295178 -199.294969 
L 331.367871 -201.041327 
L 331.431026 -202.787686 
L 331.486423 -204.534045 
L 331.535647 -206.280403 
L 331.580024 -208.026762 
L 331.620572 -209.77312 
L 331.657984 -211.519479 
L 331.692631 -213.265838 
L 331.724591 -215.012196 
L 331.753705 -216.758555 
L 331.779656 -218.504914 
L 331.802056 -220.251272 
L 331.82055 -221.997631 
L 331.834916 -223.74399 
L 331.845157 -225.490348 
L 331.851572 -227.236707 
L 331.854805 -228.983066 
L 331.85586 -230.729424 
L 331.856078 -232.475783 
L 331.857086 -234.222141 
L 331.860703 -235.9685 
L 331.868831 -237.714859 
L 331.883326 -239.461217 
L 331.905859 -241.207576 
L 331.937797 -242.953935 
L 331.980089 -244.700293 
L 332.033193 -246.446652 
L 332.097026 -248.193011 
L 332.170969 -249.939369 
L 334.860906 -249.939369 
L 334.860906 -249.939369 
L 334.934849 -248.193011 
L 334.998682 -246.446652 
L 335.051786 -244.700293 
L 335.094078 -242.953935 
L 335.126016 -241.207576 
L 335.148549 -239.461217 
L 335.163044 -237.714859 
L 335.171172 -235.9685 
L 335.174789 -234.222141 
L 335.175797 -232.475783 
L 335.176015 -230.729424 
L 335.17707 -228.983066 
L 335.180303 -227.236707 
L 335.186718 -225.490348 
L 335.196959 -223.74399 
L 335.211325 -221.997631 
L 335.229819 -220.251272 
L 335.252219 -218.504914 
L 335.27817 -216.758555 
L 335.307284 -215.012196 
L 335.339244 -213.265838 
L 335.373891 -211.519479 
L 335.411303 -209.77312 
L 335.451851 -208.026762 
L 335.496228 -206.280403 
L 335.545452 -204.534045 
L 335.600849 -202.787686 
L 335.664004 -201.041327 
L 335.736697 -199.294969 
L 335.820823 -197.54861 
L 335.918295 -195.802251 
L 336.030957 -194.055893 
L 336.160478 -192.309534 
L 336.30827 -190.563175 
L 336.475413 -188.816817 
L 336.662592 -187.070458 
L 336.870066 -185.324099 
L 337.097647 -183.577741 
L 337.344717 -181.831382 
L 337.61026 -180.085024 
L 337.892916 -178.338665 
L 338.191056 -176.592306 
L 338.502873 -174.845948 
L 338.826481 -173.099589 
L 339.160016 -171.35323 
L 339.501748 -169.606872 
L 339.850176 -167.860513 
L 340.204127 -166.114154 
L 340.562829 -164.367796 
L 340.925987 -162.621437 
L 341.293817 -160.875078 
L 341.66708 -159.12872 
L 342.047076 -157.382361 
L 342.43562 -155.636003 
L 342.834985 -153.889644 
L 343.247817 -152.143285 
L 343.677015 -150.396927 
L 344.125578 -148.650568 
L 344.596419 -146.904209 
L 345.092147 -145.157851 
L 345.614824 -143.411492 
L 346.165701 -141.665133 
L 346.744952 -139.918775 
L 347.351411 -138.172416 
L 347.98235 -136.426057 
L 348.633301 -134.679699 
L 349.297959 -132.93334 
L 349.968186 -131.186982 
L 350.634127 -129.440623 
L 351.284452 -127.694264 
L 351.906728 -125.947906 
L 352.487895 -124.201547 
L 353.014836 -122.455188 
L 353.474992 -120.70883 
L 353.856986 -118.962471 
L 354.151196 -117.216112 
L 354.35023 -115.469754 
L 354.449271 -113.723395 
L 354.446237 -111.977036 
L 354.341764 -110.230678 
L 354.138999 -108.484319 
L 353.843236 -106.737961 
L 353.461424 -104.991602 
L 353.001611 -103.245243 
L 352.472372 -101.498885 
L 351.882275 -99.752526 
L 351.239459 -98.006167 
L 350.551321 -96.259809 
L 349.824374 -94.51345 
L 349.064245 -92.767091 
L 348.275814 -91.020733 
L 347.463448 -89.274374 
L 346.631305 -87.528016 
L 345.783642 -85.781657 
L 344.925094 -84.035298 
L 344.060877 -82.28894 
L 343.196897 -80.542581 
L 342.339738 -78.796222 
L 341.496539 -77.049864 
z
" style="stroke: #000000; stroke-opacity: 0.7"/>
    </defs>
    <g clip-path="url(#pbca0d7b8bd)">
     <use xlink:href="#m9f7533559b" x="0" y="319.958821" style="fill: #c7c7c7; fill-opacity: 0.7; stroke: #000000; stroke-opacity: 0.7"/>
    </g>
   </g>
   <g id="PolyCollection_6">
    <defs>
     <path id="m276cb571cb" d="M 402.564422 -80.904543 
L 390.067453 -80.904543 
L 389.139187 -82.834046 
L 388.157069 -84.763549 
L 387.132296 -86.693051 
L 386.077708 -88.622554 
L 385.007314 -90.552057 
L 383.935767 -92.48156 
L 382.877829 -94.411062 
L 381.847874 -96.340565 
L 380.859477 -98.270068 
L 379.925114 -100.199571 
L 379.055981 -102.129074 
L 378.26194 -104.058576 
L 377.551545 -105.988079 
L 376.93214 -107.917582 
L 376.40996 -109.847085 
L 375.99022 -111.776587 
L 375.677141 -113.70609 
L 375.473918 -115.635593 
L 375.382604 -117.565096 
L 375.403955 -119.494599 
L 375.537243 -121.424101 
L 375.78008 -123.353604 
L 376.128287 -125.283107 
L 376.57583 -127.21261 
L 377.11485 -129.142112 
L 377.735789 -131.071615 
L 378.4276 -133.001118 
L 379.17804 -134.930621 
L 379.974009 -136.860123 
L 380.801929 -138.789626 
L 381.648125 -140.719129 
L 382.499198 -142.648632 
L 383.342373 -144.578135 
L 384.165816 -146.507637 
L 384.958908 -148.43714 
L 385.712471 -150.366643 
L 386.418959 -152.296146 
L 387.072579 -154.225648 
L 387.669377 -156.155151 
L 388.207258 -158.084654 
L 388.685945 -160.014157 
L 389.106894 -161.94366 
L 389.473136 -163.873162 
L 389.789081 -165.802665 
L 390.060274 -167.732168 
L 390.293116 -169.661671 
L 390.494555 -171.591173 
L 390.671763 -173.520676 
L 390.83181 -175.450179 
L 390.981335 -177.379682 
L 391.126251 -179.309185 
L 391.271471 -181.238687 
L 391.420702 -183.16819 
L 391.576306 -185.097693 
L 391.739251 -187.027196 
L 391.909161 -188.956698 
L 392.084472 -190.886201 
L 392.262687 -192.815704 
L 392.440706 -194.745207 
L 392.615205 -196.67471 
L 392.783032 -198.604212 
L 392.941574 -200.533715 
L 393.089045 -202.463218 
L 393.224685 -204.392721 
L 393.348823 -206.322223 
L 393.462817 -208.251726 
L 393.568871 -210.181229 
L 393.669755 -212.110732 
L 393.768471 -214.040235 
L 393.867901 -215.969737 
L 393.970489 -217.89924 
L 394.077981 -219.828743 
L 394.191258 -221.758246 
L 394.310279 -223.687748 
L 394.43411 -225.617251 
L 394.561061 -227.546754 
L 394.688866 -229.476257 
L 394.814915 -231.40576 
L 394.936491 -233.335262 
L 395.050994 -235.264765 
L 395.156129 -237.194268 
L 395.25006 -239.123771 
L 395.331506 -241.053273 
L 395.399802 -242.982776 
L 395.454902 -244.912279 
L 395.49736 -246.841782 
L 395.528267 -248.771285 
L 395.549169 -250.700787 
L 395.561969 -252.63029 
L 395.568805 -254.559793 
L 395.571933 -256.489296 
L 395.573601 -258.418798 
L 395.57593 -260.348301 
L 395.580808 -262.277804 
L 395.589797 -264.207307 
L 395.604067 -266.13681 
L 395.624353 -268.066312 
L 395.650941 -269.995815 
L 395.683684 -271.925318 
L 396.948191 -271.925318 
L 396.948191 -271.925318 
L 396.980934 -269.995815 
L 397.007522 -268.066312 
L 397.027808 -266.13681 
L 397.042078 -264.207307 
L 397.051067 -262.277804 
L 397.055945 -260.348301 
L 397.058274 -258.418798 
L 397.059942 -256.489296 
L 397.06307 -254.559793 
L 397.069906 -252.63029 
L 397.082706 -250.700787 
L 397.103608 -248.771285 
L 397.134515 -246.841782 
L 397.176973 -244.912279 
L 397.232073 -242.982776 
L 397.300369 -241.053273 
L 397.381815 -239.123771 
L 397.475746 -237.194268 
L 397.580881 -235.264765 
L 397.695384 -233.335262 
L 397.81696 -231.40576 
L 397.943009 -229.476257 
L 398.070814 -227.546754 
L 398.197765 -225.617251 
L 398.321596 -223.687748 
L 398.440617 -221.758246 
L 398.553894 -219.828743 
L 398.661386 -217.89924 
L 398.763974 -215.969737 
L 398.863404 -214.040235 
L 398.96212 -212.110732 
L 399.063004 -210.181229 
L 399.169058 -208.251726 
L 399.283052 -206.322223 
L 399.40719 -204.392721 
L 399.54283 -202.463218 
L 399.690301 -200.533715 
L 399.848843 -198.604212 
L 400.01667 -196.67471 
L 400.191169 -194.745207 
L 400.369188 -192.815704 
L 400.547403 -190.886201 
L 400.722714 -188.956698 
L 400.892624 -187.027196 
L 401.055569 -185.097693 
L 401.211173 -183.16819 
L 401.360404 -181.238687 
L 401.505624 -179.309185 
L 401.65054 -177.379682 
L 401.800065 -175.450179 
L 401.960112 -173.520676 
L 402.13732 -171.591173 
L 402.338759 -169.661671 
L 402.571601 -167.732168 
L 402.842794 -165.802665 
L 403.158739 -163.873162 
L 403.524981 -161.94366 
L 403.94593 -160.014157 
L 404.424617 -158.084654 
L 404.962498 -156.155151 
L 405.559296 -154.225648 
L 406.212916 -152.296146 
L 406.919404 -150.366643 
L 407.672967 -148.43714 
L 408.466059 -146.507637 
L 409.289502 -144.578135 
L 410.132677 -142.648632 
L 410.98375 -140.719129 
L 411.829946 -138.789626 
L 412.657866 -136.860123 
L 413.453835 -134.930621 
L 414.204275 -133.001118 
L 414.896086 -131.071615 
L 415.517025 -129.142112 
L 416.056045 -127.21261 
L 416.503588 -125.283107 
L 416.851795 -123.353604 
L 417.094632 -121.424101 
L 417.22792 -119.494599 
L 417.249271 -117.565096 
L 417.157957 -115.635593 
L 416.954734 -113.70609 
L 416.641655 -111.776587 
L 416.221915 -109.847085 
L 415.699735 -107.917582 
L 415.08033 -105.988079 
L 414.369935 -104.058576 
L 413.575894 -102.129074 
L 412.706761 -100.199571 
L 411.772398 -98.270068 
L 410.784001 -96.340565 
L 409.754046 -94.411062 
L 408.696108 -92.48156 
L 407.624561 -90.552057 
L 406.554167 -88.622554 
L 405.499579 -86.693051 
L 404.474806 -84.763549 
L 403.492688 -82.834046 
L 402.564422 -80.904543 
z
" style="stroke: #000000; stroke-opacity: 0.7"/>
    </defs>
    <g clip-path="url(#pbca0d7b8bd)">
     <use xlink:href="#m276cb571cb" x="0" y="319.958821" style="fill: #98df8a; fill-opacity: 0.7; stroke: #000000; stroke-opacity: 0.7"/>
    </g>
   </g>
   <g id="matplotlib.axis_1">
    <g id="xtick_1">
     <g id="line2d_1">
      <defs>
       <path id="m351044b13f" d="M 0 0 
L 0 3.5 
" style="stroke: #000000; stroke-width: 0.8"/>
      </defs>
      <g>
       <use xlink:href="#m351044b13f" x="82.315938" y="253.045337" style="stroke: #000000; stroke-width: 0.8"/>
      </g>
     </g>
     <g id="text_1">
      <!-- Studio -->
      <g transform="translate(58.339714 288.098472) rotate(-45) scale(0.12 -0.12)">
       <defs>
        <path id="TimesNewRomanPSMT-53" d="M 2934 4334 
L 2934 2869 
L 2819 2869 
Q 2763 3291 2617 3541 
Q 2472 3791 2203 3937 
Q 1934 4084 1647 4084 
Q 1322 4084 1109 3886 
Q 897 3688 897 3434 
Q 897 3241 1031 3081 
Q 1225 2847 1953 2456 
Q 2547 2138 2764 1967 
Q 2981 1797 3098 1565 
Q 3216 1334 3216 1081 
Q 3216 600 2842 251 
Q 2469 -97 1881 -97 
Q 1697 -97 1534 -69 
Q 1438 -53 1133 45 
Q 828 144 747 144 
Q 669 144 623 97 
Q 578 50 556 -97 
L 441 -97 
L 441 1356 
L 556 1356 
Q 638 900 775 673 
Q 913 447 1195 297 
Q 1478 147 1816 147 
Q 2206 147 2432 353 
Q 2659 559 2659 841 
Q 2659 997 2573 1156 
Q 2488 1316 2306 1453 
Q 2184 1547 1640 1851 
Q 1097 2156 867 2337 
Q 638 2519 519 2737 
Q 400 2956 400 3219 
Q 400 3675 750 4004 
Q 1100 4334 1641 4334 
Q 1978 4334 2356 4169 
Q 2531 4091 2603 4091 
Q 2684 4091 2736 4139 
Q 2788 4188 2819 4334 
L 2934 4334 
z
" transform="scale(0.015625)"/>
        <path id="TimesNewRomanPSMT-74" d="M 1031 3803 
L 1031 2863 
L 1700 2863 
L 1700 2644 
L 1031 2644 
L 1031 788 
Q 1031 509 1111 412 
Q 1191 316 1316 316 
Q 1419 316 1516 380 
Q 1613 444 1666 569 
L 1788 569 
Q 1678 263 1478 108 
Q 1278 -47 1066 -47 
Q 922 -47 784 33 
Q 647 113 581 261 
Q 516 409 516 719 
L 516 2644 
L 63 2644 
L 63 2747 
Q 234 2816 414 2980 
Q 594 3144 734 3369 
Q 806 3488 934 3803 
L 1031 3803 
z
" transform="scale(0.015625)"/>
        <path id="TimesNewRomanPSMT-75" d="M 2709 2863 
L 2709 1128 
Q 2709 631 2732 520 
Q 2756 409 2807 365 
Q 2859 322 2928 322 
Q 3025 322 3147 375 
L 3191 266 
L 2334 -88 
L 2194 -88 
L 2194 519 
Q 1825 119 1631 15 
Q 1438 -88 1222 -88 
Q 981 -88 804 51 
Q 628 191 559 409 
Q 491 628 491 1028 
L 491 2306 
Q 491 2509 447 2587 
Q 403 2666 317 2708 
Q 231 2750 6 2747 
L 6 2863 
L 1009 2863 
L 1009 947 
Q 1009 547 1148 422 
Q 1288 297 1484 297 
Q 1619 297 1789 381 
Q 1959 466 2194 703 
L 2194 2325 
Q 2194 2569 2105 2655 
Q 2016 2741 1734 2747 
L 1734 2863 
L 2709 2863 
z
" transform="scale(0.015625)"/>
        <path id="TimesNewRomanPSMT-64" d="M 2222 322 
Q 2013 103 1813 7 
Q 1613 -88 1381 -88 
Q 913 -88 563 304 
Q 213 697 213 1313 
Q 213 1928 600 2439 
Q 988 2950 1597 2950 
Q 1975 2950 2222 2709 
L 2222 3238 
Q 2222 3728 2198 3840 
Q 2175 3953 2125 3993 
Q 2075 4034 2000 4034 
Q 1919 4034 1784 3984 
L 1744 4094 
L 2597 4444 
L 2738 4444 
L 2738 1134 
Q 2738 631 2761 520 
Q 2784 409 2836 365 
Q 2888 322 2956 322 
Q 3041 322 3181 375 
L 3216 266 
L 2366 -88 
L 2222 -88 
L 2222 322 
z
M 2222 541 
L 2222 2016 
Q 2203 2228 2109 2403 
Q 2016 2578 1861 2667 
Q 1706 2756 1559 2756 
Q 1284 2756 1069 2509 
Q 784 2184 784 1559 
Q 784 928 1059 592 
Q 1334 256 1672 256 
Q 1956 256 2222 541 
z
" transform="scale(0.015625)"/>
        <path id="TimesNewRomanPSMT-69" d="M 928 4444 
Q 1059 4444 1151 4351 
Q 1244 4259 1244 4128 
Q 1244 3997 1151 3903 
Q 1059 3809 928 3809 
Q 797 3809 703 3903 
Q 609 3997 609 4128 
Q 609 4259 701 4351 
Q 794 4444 928 4444 
z
M 1188 2947 
L 1188 647 
Q 1188 378 1227 289 
Q 1266 200 1342 156 
Q 1419 113 1622 113 
L 1622 0 
L 231 0 
L 231 113 
Q 441 113 512 153 
Q 584 194 626 287 
Q 669 381 669 647 
L 669 1750 
Q 669 2216 641 2353 
Q 619 2453 572 2492 
Q 525 2531 444 2531 
Q 356 2531 231 2484 
L 188 2597 
L 1050 2947 
L 1188 2947 
z
" transform="scale(0.015625)"/>
        <path id="TimesNewRomanPSMT-6f" d="M 1600 2947 
Q 2250 2947 2644 2453 
Q 2978 2031 2978 1484 
Q 2978 1100 2793 706 
Q 2609 313 2286 112 
Q 1963 -88 1566 -88 
Q 919 -88 538 428 
Q 216 863 216 1403 
Q 216 1797 411 2186 
Q 606 2575 925 2761 
Q 1244 2947 1600 2947 
z
M 1503 2744 
Q 1338 2744 1170 2645 
Q 1003 2547 900 2300 
Q 797 2053 797 1666 
Q 797 1041 1045 587 
Q 1294 134 1700 134 
Q 2003 134 2200 384 
Q 2397 634 2397 1244 
Q 2397 2006 2069 2444 
Q 1847 2744 1503 2744 
z
" transform="scale(0.015625)"/>
       </defs>
       <use xlink:href="#TimesNewRomanPSMT-53"/>
       <use xlink:href="#TimesNewRomanPSMT-74" x="55.615234"/>
       <use xlink:href="#TimesNewRomanPSMT-75" x="83.398438"/>
       <use xlink:href="#TimesNewRomanPSMT-64" x="133.398438"/>
       <use xlink:href="#TimesNewRomanPSMT-69" x="183.398438"/>
       <use xlink:href="#TimesNewRomanPSMT-6f" x="211.181641"/>
      </g>
     </g>
    </g>
    <g id="xtick_2">
     <g id="line2d_2">
      <g>
       <use xlink:href="#m351044b13f" x="145.115938" y="253.045337" style="stroke: #000000; stroke-width: 0.8"/>
      </g>
     </g>
     <g id="text_2">
      <!-- Co-op -->
      <g transform="translate(122.087679 287.150507) rotate(-45) scale(0.12 -0.12)">
       <defs>
        <path id="TimesNewRomanPSMT-43" d="M 3853 4334 
L 3950 2894 
L 3853 2894 
Q 3659 3541 3300 3825 
Q 2941 4109 2438 4109 
Q 2016 4109 1675 3895 
Q 1334 3681 1139 3212 
Q 944 2744 944 2047 
Q 944 1472 1128 1050 
Q 1313 628 1683 403 
Q 2053 178 2528 178 
Q 2941 178 3256 354 
Q 3572 531 3950 1056 
L 4047 994 
Q 3728 428 3303 165 
Q 2878 -97 2294 -97 
Q 1241 -97 663 684 
Q 231 1266 231 2053 
Q 231 2688 515 3219 
Q 800 3750 1298 4042 
Q 1797 4334 2388 4334 
Q 2847 4334 3294 4109 
Q 3425 4041 3481 4041 
Q 3566 4041 3628 4100 
Q 3709 4184 3744 4334 
L 3853 4334 
z
" transform="scale(0.015625)"/>
        <path id="TimesNewRomanPSMT-2d" d="M 259 1672 
L 1875 1672 
L 1875 1200 
L 259 1200 
L 259 1672 
z
" transform="scale(0.015625)"/>
        <path id="TimesNewRomanPSMT-70" d="M -6 2578 
L 875 2934 
L 994 2934 
L 994 2266 
Q 1216 2644 1439 2795 
Q 1663 2947 1909 2947 
Q 2341 2947 2628 2609 
Q 2981 2197 2981 1534 
Q 2981 794 2556 309 
Q 2206 -88 1675 -88 
Q 1444 -88 1275 -22 
Q 1150 25 994 166 
L 994 -706 
Q 994 -1000 1030 -1079 
Q 1066 -1159 1155 -1206 
Q 1244 -1253 1478 -1253 
L 1478 -1369 
L -22 -1369 
L -22 -1253 
L 56 -1253 
Q 228 -1256 350 -1188 
Q 409 -1153 442 -1076 
Q 475 -1000 475 -688 
L 475 2019 
Q 475 2297 450 2372 
Q 425 2447 370 2484 
Q 316 2522 222 2522 
Q 147 2522 31 2478 
L -6 2578 
z
M 994 2081 
L 994 1013 
Q 994 666 1022 556 
Q 1066 375 1236 237 
Q 1406 100 1666 100 
Q 1978 100 2172 344 
Q 2425 663 2425 1241 
Q 2425 1897 2138 2250 
Q 1938 2494 1663 2494 
Q 1513 2494 1366 2419 
Q 1253 2363 994 2081 
z
" transform="scale(0.015625)"/>
       </defs>
       <use xlink:href="#TimesNewRomanPSMT-43"/>
       <use xlink:href="#TimesNewRomanPSMT-6f" x="66.699219"/>
       <use xlink:href="#TimesNewRomanPSMT-2d" x="116.699219"/>
       <use xlink:href="#TimesNewRomanPSMT-6f" x="150"/>
       <use xlink:href="#TimesNewRomanPSMT-70" x="200"/>
      </g>
     </g>
    </g>
    <g id="xtick_3">
     <g id="line2d_3">
      <g>
       <use xlink:href="#m351044b13f" x="207.915937" y="253.045337" style="stroke: #000000; stroke-width: 0.8"/>
      </g>
     </g>
     <g id="text_3">
      <!-- Cottage -->
      <g transform="translate(179.69177 292.314597) rotate(-45) scale(0.12 -0.12)">
       <defs>
        <path id="TimesNewRomanPSMT-61" d="M 1822 413 
Q 1381 72 1269 19 
Q 1100 -59 909 -59 
Q 613 -59 420 144 
Q 228 347 228 678 
Q 228 888 322 1041 
Q 450 1253 767 1440 
Q 1084 1628 1822 1897 
L 1822 2009 
Q 1822 2438 1686 2597 
Q 1550 2756 1291 2756 
Q 1094 2756 978 2650 
Q 859 2544 859 2406 
L 866 2225 
Q 866 2081 792 2003 
Q 719 1925 600 1925 
Q 484 1925 411 2006 
Q 338 2088 338 2228 
Q 338 2497 613 2722 
Q 888 2947 1384 2947 
Q 1766 2947 2009 2819 
Q 2194 2722 2281 2516 
Q 2338 2381 2338 1966 
L 2338 994 
Q 2338 584 2353 492 
Q 2369 400 2405 369 
Q 2441 338 2488 338 
Q 2538 338 2575 359 
Q 2641 400 2828 588 
L 2828 413 
Q 2478 -56 2159 -56 
Q 2006 -56 1915 50 
Q 1825 156 1822 413 
z
M 1822 616 
L 1822 1706 
Q 1350 1519 1213 1441 
Q 966 1303 859 1153 
Q 753 1003 753 825 
Q 753 600 887 451 
Q 1022 303 1197 303 
Q 1434 303 1822 616 
z
" transform="scale(0.015625)"/>
        <path id="TimesNewRomanPSMT-67" d="M 966 1044 
Q 703 1172 562 1401 
Q 422 1631 422 1909 
Q 422 2334 742 2640 
Q 1063 2947 1563 2947 
Q 1972 2947 2272 2747 
L 2878 2747 
Q 3013 2747 3034 2739 
Q 3056 2731 3066 2713 
Q 3084 2684 3084 2613 
Q 3084 2531 3069 2500 
Q 3059 2484 3036 2475 
Q 3013 2466 2878 2466 
L 2506 2466 
Q 2681 2241 2681 1891 
Q 2681 1491 2375 1206 
Q 2069 922 1553 922 
Q 1341 922 1119 984 
Q 981 866 932 777 
Q 884 688 884 625 
Q 884 572 936 522 
Q 988 472 1138 450 
Q 1225 438 1575 428 
Q 2219 413 2409 384 
Q 2700 344 2873 169 
Q 3047 -6 3047 -263 
Q 3047 -616 2716 -925 
Q 2228 -1381 1444 -1381 
Q 841 -1381 425 -1109 
Q 191 -953 191 -784 
Q 191 -709 225 -634 
Q 278 -519 444 -313 
Q 466 -284 763 25 
Q 600 122 533 198 
Q 466 275 466 372 
Q 466 481 555 628 
Q 644 775 966 1044 
z
M 1509 2797 
Q 1278 2797 1122 2612 
Q 966 2428 966 2047 
Q 966 1553 1178 1281 
Q 1341 1075 1591 1075 
Q 1828 1075 1981 1253 
Q 2134 1431 2134 1813 
Q 2134 2309 1919 2591 
Q 1759 2797 1509 2797 
z
M 934 0 
Q 788 -159 713 -296 
Q 638 -434 638 -550 
Q 638 -700 819 -813 
Q 1131 -1006 1722 -1006 
Q 2284 -1006 2551 -807 
Q 2819 -609 2819 -384 
Q 2819 -222 2659 -153 
Q 2497 -84 2016 -72 
Q 1313 -53 934 0 
z
" transform="scale(0.015625)"/>
        <path id="TimesNewRomanPSMT-65" d="M 681 1784 
Q 678 1147 991 784 
Q 1303 422 1725 422 
Q 2006 422 2214 576 
Q 2422 731 2563 1106 
L 2659 1044 
Q 2594 616 2278 264 
Q 1963 -88 1488 -88 
Q 972 -88 605 314 
Q 238 716 238 1394 
Q 238 2128 614 2539 
Q 991 2950 1559 2950 
Q 2041 2950 2350 2633 
Q 2659 2316 2659 1784 
L 681 1784 
z
M 681 1966 
L 2006 1966 
Q 1991 2241 1941 2353 
Q 1863 2528 1708 2628 
Q 1553 2728 1384 2728 
Q 1125 2728 920 2526 
Q 716 2325 681 1966 
z
" transform="scale(0.015625)"/>
       </defs>
       <use xlink:href="#TimesNewRomanPSMT-43"/>
       <use xlink:href="#TimesNewRomanPSMT-6f" x="66.699219"/>
       <use xlink:href="#TimesNewRomanPSMT-74" x="116.699219"/>
       <use xlink:href="#TimesNewRomanPSMT-74" x="144.482422"/>
       <use xlink:href="#TimesNewRomanPSMT-61" x="172.265625"/>
       <use xlink:href="#TimesNewRomanPSMT-67" x="216.650391"/>
       <use xlink:href="#TimesNewRomanPSMT-65" x="266.650391"/>
      </g>
     </g>
    </g>
    <g id="xtick_4">
     <g id="line2d_4">
      <g>
       <use xlink:href="#m351044b13f" x="270.715937" y="253.045337" style="stroke: #000000; stroke-width: 0.8"/>
      </g>
     </g>
     <g id="text_4">
      <!-- Duplex -->
      <g transform="translate(243.92101 290.917177) rotate(-45) scale(0.12 -0.12)">
       <defs>
        <path id="TimesNewRomanPSMT-44" d="M 109 0 
L 109 116 
L 269 116 
Q 538 116 650 288 
Q 719 391 719 750 
L 719 3488 
Q 719 3884 631 3984 
Q 509 4122 269 4122 
L 109 4122 
L 109 4238 
L 1834 4238 
Q 2784 4238 3279 4022 
Q 3775 3806 4076 3303 
Q 4378 2800 4378 2141 
Q 4378 1256 3841 663 
Q 3238 0 2003 0 
L 109 0 
z
M 1319 306 
Q 1716 219 1984 219 
Q 2709 219 3187 728 
Q 3666 1238 3666 2109 
Q 3666 2988 3187 3494 
Q 2709 4000 1959 4000 
Q 1678 4000 1319 3909 
L 1319 306 
z
" transform="scale(0.015625)"/>
        <path id="TimesNewRomanPSMT-6c" d="M 1184 4444 
L 1184 647 
Q 1184 378 1223 290 
Q 1263 203 1344 158 
Q 1425 113 1647 113 
L 1647 0 
L 244 0 
L 244 113 
Q 441 113 512 153 
Q 584 194 625 287 
Q 666 381 666 647 
L 666 3247 
Q 666 3731 644 3842 
Q 622 3953 573 3993 
Q 525 4034 450 4034 
Q 369 4034 244 3984 
L 191 4094 
L 1044 4444 
L 1184 4444 
z
" transform="scale(0.015625)"/>
        <path id="TimesNewRomanPSMT-78" d="M 84 2863 
L 1431 2863 
L 1431 2747 
Q 1303 2747 1251 2703 
Q 1200 2659 1200 2588 
Q 1200 2513 1309 2356 
Q 1344 2306 1413 2200 
L 1616 1875 
L 1850 2200 
Q 2075 2509 2075 2591 
Q 2075 2656 2022 2701 
Q 1969 2747 1850 2747 
L 1850 2863 
L 2819 2863 
L 2819 2747 
Q 2666 2738 2553 2663 
Q 2400 2556 2134 2200 
L 1744 1678 
L 2456 653 
Q 2719 275 2831 198 
Q 2944 122 3122 113 
L 3122 0 
L 1772 0 
L 1772 113 
Q 1913 113 1991 175 
Q 2050 219 2050 291 
Q 2050 363 1850 653 
L 1431 1266 
L 972 653 
Q 759 369 759 316 
Q 759 241 829 180 
Q 900 119 1041 113 
L 1041 0 
L 106 0 
L 106 113 
Q 219 128 303 191 
Q 422 281 703 653 
L 1303 1450 
L 759 2238 
Q 528 2575 401 2661 
Q 275 2747 84 2747 
L 84 2863 
z
" transform="scale(0.015625)"/>
       </defs>
       <use xlink:href="#TimesNewRomanPSMT-44"/>
       <use xlink:href="#TimesNewRomanPSMT-75" x="72.216797"/>
       <use xlink:href="#TimesNewRomanPSMT-70" x="122.216797"/>
       <use xlink:href="#TimesNewRomanPSMT-6c" x="172.216797"/>
       <use xlink:href="#TimesNewRomanPSMT-65" x="200"/>
       <use xlink:href="#TimesNewRomanPSMT-78" x="244.384766"/>
      </g>
     </g>
    </g>
    <g id="xtick_5">
     <g id="line2d_5">
      <g>
       <use xlink:href="#m351044b13f" x="333.515937" y="253.045337" style="stroke: #000000; stroke-width: 0.8"/>
      </g>
     </g>
     <g id="text_5">
      <!-- Farmhouse -->
      <g transform="translate(293.993088 303.645099) rotate(-45) scale(0.12 -0.12)">
       <defs>
        <path id="TimesNewRomanPSMT-46" d="M 1309 4006 
L 1309 2341 
L 2081 2341 
Q 2347 2341 2470 2458 
Q 2594 2575 2634 2922 
L 2750 2922 
L 2750 1488 
L 2634 1488 
Q 2631 1734 2570 1850 
Q 2509 1966 2401 2023 
Q 2294 2081 2081 2081 
L 1309 2081 
L 1309 750 
Q 1309 428 1350 325 
Q 1381 247 1481 191 
Q 1619 116 1769 116 
L 1922 116 
L 1922 0 
L 103 0 
L 103 116 
L 253 116 
Q 516 116 634 269 
Q 709 369 709 750 
L 709 3488 
Q 709 3809 669 3913 
Q 638 3991 541 4047 
Q 406 4122 253 4122 
L 103 4122 
L 103 4238 
L 3256 4238 
L 3297 3306 
L 3188 3306 
Q 3106 3603 2998 3742 
Q 2891 3881 2733 3943 
Q 2575 4006 2244 4006 
L 1309 4006 
z
" transform="scale(0.015625)"/>
        <path id="TimesNewRomanPSMT-72" d="M 1038 2947 
L 1038 2303 
Q 1397 2947 1775 2947 
Q 1947 2947 2059 2842 
Q 2172 2738 2172 2600 
Q 2172 2478 2090 2393 
Q 2009 2309 1897 2309 
Q 1788 2309 1652 2417 
Q 1516 2525 1450 2525 
Q 1394 2525 1328 2463 
Q 1188 2334 1038 2041 
L 1038 669 
Q 1038 431 1097 309 
Q 1138 225 1241 169 
Q 1344 113 1538 113 
L 1538 0 
L 72 0 
L 72 113 
Q 291 113 397 181 
Q 475 231 506 341 
Q 522 394 522 644 
L 522 1753 
Q 522 2253 501 2348 
Q 481 2444 426 2487 
Q 372 2531 291 2531 
Q 194 2531 72 2484 
L 41 2597 
L 906 2947 
L 1038 2947 
z
" transform="scale(0.015625)"/>
        <path id="TimesNewRomanPSMT-6d" d="M 1050 2338 
Q 1363 2650 1419 2697 
Q 1559 2816 1721 2881 
Q 1884 2947 2044 2947 
Q 2313 2947 2506 2790 
Q 2700 2634 2766 2338 
Q 3088 2713 3309 2830 
Q 3531 2947 3766 2947 
Q 3994 2947 4170 2830 
Q 4347 2713 4450 2447 
Q 4519 2266 4519 1878 
L 4519 647 
Q 4519 378 4559 278 
Q 4591 209 4675 161 
Q 4759 113 4950 113 
L 4950 0 
L 3538 0 
L 3538 113 
L 3597 113 
Q 3781 113 3884 184 
Q 3956 234 3988 344 
Q 4000 397 4000 647 
L 4000 1878 
Q 4000 2228 3916 2372 
Q 3794 2572 3525 2572 
Q 3359 2572 3192 2489 
Q 3025 2406 2788 2181 
L 2781 2147 
L 2788 2013 
L 2788 647 
Q 2788 353 2820 281 
Q 2853 209 2943 161 
Q 3034 113 3253 113 
L 3253 0 
L 1806 0 
L 1806 113 
Q 2044 113 2133 169 
Q 2222 225 2256 338 
Q 2272 391 2272 647 
L 2272 1878 
Q 2272 2228 2169 2381 
Q 2031 2581 1784 2581 
Q 1616 2581 1450 2491 
Q 1191 2353 1050 2181 
L 1050 647 
Q 1050 366 1089 281 
Q 1128 197 1204 155 
Q 1281 113 1516 113 
L 1516 0 
L 100 0 
L 100 113 
Q 297 113 375 155 
Q 453 197 493 289 
Q 534 381 534 647 
L 534 1741 
Q 534 2213 506 2350 
Q 484 2453 437 2492 
Q 391 2531 309 2531 
Q 222 2531 100 2484 
L 53 2597 
L 916 2947 
L 1050 2947 
L 1050 2338 
z
" transform="scale(0.015625)"/>
        <path id="TimesNewRomanPSMT-68" d="M 1041 4444 
L 1041 2350 
Q 1388 2731 1591 2839 
Q 1794 2947 1997 2947 
Q 2241 2947 2416 2812 
Q 2591 2678 2675 2391 
Q 2734 2191 2734 1659 
L 2734 647 
Q 2734 375 2778 275 
Q 2809 200 2884 156 
Q 2959 113 3159 113 
L 3159 0 
L 1753 0 
L 1753 113 
L 1819 113 
Q 2019 113 2097 173 
Q 2175 234 2206 353 
Q 2216 403 2216 647 
L 2216 1659 
Q 2216 2128 2167 2275 
Q 2119 2422 2012 2495 
Q 1906 2569 1756 2569 
Q 1603 2569 1437 2487 
Q 1272 2406 1041 2159 
L 1041 647 
Q 1041 353 1073 281 
Q 1106 209 1195 161 
Q 1284 113 1503 113 
L 1503 0 
L 84 0 
L 84 113 
Q 275 113 384 172 
Q 447 203 484 290 
Q 522 378 522 647 
L 522 3238 
Q 522 3728 498 3840 
Q 475 3953 426 3993 
Q 378 4034 297 4034 
Q 231 4034 84 3984 
L 41 4094 
L 897 4444 
L 1041 4444 
z
" transform="scale(0.015625)"/>
        <path id="TimesNewRomanPSMT-73" d="M 2050 2947 
L 2050 1972 
L 1947 1972 
Q 1828 2431 1642 2597 
Q 1456 2763 1169 2763 
Q 950 2763 815 2647 
Q 681 2531 681 2391 
Q 681 2216 781 2091 
Q 878 1963 1175 1819 
L 1631 1597 
Q 2266 1288 2266 781 
Q 2266 391 1970 151 
Q 1675 -88 1309 -88 
Q 1047 -88 709 6 
Q 606 38 541 38 
Q 469 38 428 -44 
L 325 -44 
L 325 978 
L 428 978 
Q 516 541 762 319 
Q 1009 97 1316 97 
Q 1531 97 1667 223 
Q 1803 350 1803 528 
Q 1803 744 1651 891 
Q 1500 1038 1047 1263 
Q 594 1488 453 1669 
Q 313 1847 313 2119 
Q 313 2472 555 2709 
Q 797 2947 1181 2947 
Q 1350 2947 1591 2875 
Q 1750 2828 1803 2828 
Q 1853 2828 1881 2850 
Q 1909 2872 1947 2947 
L 2050 2947 
z
" transform="scale(0.015625)"/>
       </defs>
       <use xlink:href="#TimesNewRomanPSMT-46"/>
       <use xlink:href="#TimesNewRomanPSMT-61" x="55.615234"/>
       <use xlink:href="#TimesNewRomanPSMT-72" x="100"/>
       <use xlink:href="#TimesNewRomanPSMT-6d" x="133.300781"/>
       <use xlink:href="#TimesNewRomanPSMT-68" x="211.083984"/>
       <use xlink:href="#TimesNewRomanPSMT-6f" x="261.083984"/>
       <use xlink:href="#TimesNewRomanPSMT-75" x="311.083984"/>
       <use xlink:href="#TimesNewRomanPSMT-73" x="361.083984"/>
       <use xlink:href="#TimesNewRomanPSMT-65" x="400"/>
      </g>
     </g>
    </g>
    <g id="xtick_6">
     <g id="line2d_6">
      <g>
       <use xlink:href="#m351044b13f" x="396.315937" y="253.045337" style="stroke: #000000; stroke-width: 0.8"/>
      </g>
     </g>
     <g id="text_6">
      <!-- Beach House -->
      <g transform="translate(349.49442 310.943767) rotate(-45) scale(0.12 -0.12)">
       <defs>
        <path id="TimesNewRomanPSMT-42" d="M 2956 2163 
Q 3397 2069 3616 1863 
Q 3919 1575 3919 1159 
Q 3919 844 3719 555 
Q 3519 266 3170 133 
Q 2822 0 2106 0 
L 106 0 
L 106 116 
L 266 116 
Q 531 116 647 284 
Q 719 394 719 750 
L 719 3488 
Q 719 3881 628 3984 
Q 506 4122 266 4122 
L 106 4122 
L 106 4238 
L 1938 4238 
Q 2450 4238 2759 4163 
Q 3228 4050 3475 3764 
Q 3722 3478 3722 3106 
Q 3722 2788 3528 2536 
Q 3334 2284 2956 2163 
z
M 1319 2331 
Q 1434 2309 1582 2298 
Q 1731 2288 1909 2288 
Q 2366 2288 2595 2386 
Q 2825 2484 2947 2687 
Q 3069 2891 3069 3131 
Q 3069 3503 2766 3765 
Q 2463 4028 1881 4028 
Q 1569 4028 1319 3959 
L 1319 2331 
z
M 1319 306 
Q 1681 222 2034 222 
Q 2600 222 2897 476 
Q 3194 731 3194 1106 
Q 3194 1353 3059 1581 
Q 2925 1809 2622 1940 
Q 2319 2072 1872 2072 
Q 1678 2072 1540 2065 
Q 1403 2059 1319 2044 
L 1319 306 
z
" transform="scale(0.015625)"/>
        <path id="TimesNewRomanPSMT-63" d="M 2631 1088 
Q 2516 522 2178 217 
Q 1841 -88 1431 -88 
Q 944 -88 581 321 
Q 219 731 219 1428 
Q 219 2103 620 2525 
Q 1022 2947 1584 2947 
Q 2006 2947 2278 2723 
Q 2550 2500 2550 2259 
Q 2550 2141 2473 2067 
Q 2397 1994 2259 1994 
Q 2075 1994 1981 2113 
Q 1928 2178 1911 2362 
Q 1894 2547 1784 2644 
Q 1675 2738 1481 2738 
Q 1169 2738 978 2506 
Q 725 2200 725 1697 
Q 725 1184 976 792 
Q 1228 400 1656 400 
Q 1963 400 2206 609 
Q 2378 753 2541 1131 
L 2631 1088 
z
" transform="scale(0.015625)"/>
        <path id="TimesNewRomanPSMT-20" transform="scale(0.015625)"/>
        <path id="TimesNewRomanPSMT-48" d="M 1316 2272 
L 3284 2272 
L 3284 3484 
Q 3284 3809 3244 3913 
Q 3213 3991 3113 4047 
Q 2978 4122 2828 4122 
L 2678 4122 
L 2678 4238 
L 4491 4238 
L 4491 4122 
L 4341 4122 
Q 4191 4122 4056 4050 
Q 3956 4000 3920 3898 
Q 3884 3797 3884 3484 
L 3884 750 
Q 3884 428 3925 325 
Q 3956 247 4053 191 
Q 4191 116 4341 116 
L 4491 116 
L 4491 0 
L 2678 0 
L 2678 116 
L 2828 116 
Q 3088 116 3206 269 
Q 3284 369 3284 750 
L 3284 2041 
L 1316 2041 
L 1316 750 
Q 1316 428 1356 325 
Q 1388 247 1488 191 
Q 1622 116 1772 116 
L 1925 116 
L 1925 0 
L 109 0 
L 109 116 
L 259 116 
Q 522 116 641 269 
Q 716 369 716 750 
L 716 3484 
Q 716 3809 675 3913 
Q 644 3991 547 4047 
Q 409 4122 259 4122 
L 109 4122 
L 109 4238 
L 1925 4238 
L 1925 4122 
L 1772 4122 
Q 1622 4122 1488 4050 
Q 1391 4000 1353 3898 
Q 1316 3797 1316 3484 
L 1316 2272 
z
" transform="scale(0.015625)"/>
       </defs>
       <use xlink:href="#TimesNewRomanPSMT-42"/>
       <use xlink:href="#TimesNewRomanPSMT-65" x="66.699219"/>
       <use xlink:href="#TimesNewRomanPSMT-61" x="111.083984"/>
       <use xlink:href="#TimesNewRomanPSMT-63" x="155.46875"/>
       <use xlink:href="#TimesNewRomanPSMT-68" x="199.853516"/>
       <use xlink:href="#TimesNewRomanPSMT-20" x="249.853516"/>
       <use xlink:href="#TimesNewRomanPSMT-48" x="274.853516"/>
       <use xlink:href="#TimesNewRomanPSMT-6f" x="347.070312"/>
       <use xlink:href="#TimesNewRomanPSMT-75" x="397.070312"/>
       <use xlink:href="#TimesNewRomanPSMT-73" x="447.070312"/>
       <use xlink:href="#TimesNewRomanPSMT-65" x="485.986328"/>
      </g>
     </g>
    </g>
   </g>
   <g id="matplotlib.axis_2">
    <g id="ytick_1">
     <g id="line2d_7">
      <defs>
       <path id="m14b3911f43" d="M 0 0 
L -3.5 0 
" style="stroke: #000000; stroke-width: 0.8"/>
      </defs>
      <g>
       <use xlink:href="#m14b3911f43" x="50.915938" y="228.20407" style="stroke: #000000; stroke-width: 0.8"/>
      </g>
     </g>
     <g id="text_7">
      <!-- 400 -->
      <g transform="translate(28.915938 231.675945) scale(0.1 -0.1)">
       <defs>
        <path id="TimesNewRomanPSMT-34" d="M 2978 1563 
L 2978 1119 
L 2409 1119 
L 2409 0 
L 1894 0 
L 1894 1119 
L 100 1119 
L 100 1519 
L 2066 4325 
L 2409 4325 
L 2409 1563 
L 2978 1563 
z
M 1894 1563 
L 1894 3666 
L 406 1563 
L 1894 1563 
z
" transform="scale(0.015625)"/>
        <path id="TimesNewRomanPSMT-30" d="M 231 2094 
Q 231 2819 450 3342 
Q 669 3866 1031 4122 
Q 1313 4325 1613 4325 
Q 2100 4325 2488 3828 
Q 2972 3213 2972 2159 
Q 2972 1422 2759 906 
Q 2547 391 2217 158 
Q 1888 -75 1581 -75 
Q 975 -75 572 641 
Q 231 1244 231 2094 
z
M 844 2016 
Q 844 1141 1059 588 
Q 1238 122 1591 122 
Q 1759 122 1940 273 
Q 2122 425 2216 781 
Q 2359 1319 2359 2297 
Q 2359 3022 2209 3506 
Q 2097 3866 1919 4016 
Q 1791 4119 1609 4119 
Q 1397 4119 1231 3928 
Q 1006 3669 925 3112 
Q 844 2556 844 2016 
z
" transform="scale(0.015625)"/>
       </defs>
       <use xlink:href="#TimesNewRomanPSMT-34"/>
       <use xlink:href="#TimesNewRomanPSMT-30" x="50"/>
       <use xlink:href="#TimesNewRomanPSMT-30" x="100"/>
      </g>
     </g>
    </g>
    <g id="ytick_2">
     <g id="line2d_8">
      <g>
       <use xlink:href="#m14b3911f43" x="50.915938" y="199.65089" style="stroke: #000000; stroke-width: 0.8"/>
      </g>
     </g>
     <g id="text_8">
      <!-- 600 -->
      <g transform="translate(28.915938 203.122765) scale(0.1 -0.1)">
       <defs>
        <path id="TimesNewRomanPSMT-36" d="M 2869 4325 
L 2869 4209 
Q 2456 4169 2195 4045 
Q 1934 3922 1679 3669 
Q 1425 3416 1258 3105 
Q 1091 2794 978 2366 
Q 1428 2675 1881 2675 
Q 2316 2675 2634 2325 
Q 2953 1975 2953 1425 
Q 2953 894 2631 456 
Q 2244 -75 1606 -75 
Q 1172 -75 869 213 
Q 275 772 275 1663 
Q 275 2231 503 2743 
Q 731 3256 1154 3653 
Q 1578 4050 1965 4187 
Q 2353 4325 2688 4325 
L 2869 4325 
z
M 925 2138 
Q 869 1716 869 1456 
Q 869 1156 980 804 
Q 1091 453 1309 247 
Q 1469 100 1697 100 
Q 1969 100 2183 356 
Q 2397 613 2397 1088 
Q 2397 1622 2184 2012 
Q 1972 2403 1581 2403 
Q 1463 2403 1327 2353 
Q 1191 2303 925 2138 
z
" transform="scale(0.015625)"/>
       </defs>
       <use xlink:href="#TimesNewRomanPSMT-36"/>
       <use xlink:href="#TimesNewRomanPSMT-30" x="50"/>
       <use xlink:href="#TimesNewRomanPSMT-30" x="100"/>
      </g>
     </g>
    </g>
    <g id="ytick_3">
     <g id="line2d_9">
      <g>
       <use xlink:href="#m14b3911f43" x="50.915938" y="171.09771" style="stroke: #000000; stroke-width: 0.8"/>
      </g>
     </g>
     <g id="text_9">
      <!-- 800 -->
      <g transform="translate(28.915938 174.569585) scale(0.1 -0.1)">
       <defs>
        <path id="TimesNewRomanPSMT-38" d="M 1228 2134 
Q 725 2547 579 2797 
Q 434 3047 434 3316 
Q 434 3728 753 4026 
Q 1072 4325 1600 4325 
Q 2113 4325 2425 4047 
Q 2738 3769 2738 3413 
Q 2738 3175 2569 2928 
Q 2400 2681 1866 2347 
Q 2416 1922 2594 1678 
Q 2831 1359 2831 1006 
Q 2831 559 2490 242 
Q 2150 -75 1597 -75 
Q 994 -75 656 303 
Q 388 606 388 966 
Q 388 1247 577 1523 
Q 766 1800 1228 2134 
z
M 1719 2469 
Q 2094 2806 2194 3001 
Q 2294 3197 2294 3444 
Q 2294 3772 2109 3958 
Q 1925 4144 1606 4144 
Q 1288 4144 1088 3959 
Q 888 3775 888 3528 
Q 888 3366 970 3203 
Q 1053 3041 1206 2894 
L 1719 2469 
z
M 1375 2016 
Q 1116 1797 991 1539 
Q 866 1281 866 981 
Q 866 578 1086 336 
Q 1306 94 1647 94 
Q 1984 94 2187 284 
Q 2391 475 2391 747 
Q 2391 972 2272 1150 
Q 2050 1481 1375 2016 
z
" transform="scale(0.015625)"/>
       </defs>
       <use xlink:href="#TimesNewRomanPSMT-38"/>
       <use xlink:href="#TimesNewRomanPSMT-30" x="50"/>
       <use xlink:href="#TimesNewRomanPSMT-30" x="100"/>
      </g>
     </g>
    </g>
    <g id="ytick_4">
     <g id="line2d_10">
      <g>
       <use xlink:href="#m14b3911f43" x="50.915938" y="142.54453" style="stroke: #000000; stroke-width: 0.8"/>
      </g>
     </g>
     <g id="text_10">
      <!-- 1000 -->
      <g transform="translate(23.915938 146.016405) scale(0.1 -0.1)">
       <defs>
        <path id="TimesNewRomanPSMT-31" d="M 750 3822 
L 1781 4325 
L 1884 4325 
L 1884 747 
Q 1884 391 1914 303 
Q 1944 216 2037 169 
Q 2131 122 2419 116 
L 2419 0 
L 825 0 
L 825 116 
Q 1125 122 1212 167 
Q 1300 213 1334 289 
Q 1369 366 1369 747 
L 1369 3034 
Q 1369 3497 1338 3628 
Q 1316 3728 1258 3775 
Q 1200 3822 1119 3822 
Q 1003 3822 797 3725 
L 750 3822 
z
" transform="scale(0.015625)"/>
       </defs>
       <use xlink:href="#TimesNewRomanPSMT-31"/>
       <use xlink:href="#TimesNewRomanPSMT-30" x="50"/>
       <use xlink:href="#TimesNewRomanPSMT-30" x="100"/>
       <use xlink:href="#TimesNewRomanPSMT-30" x="150"/>
      </g>
     </g>
    </g>
    <g id="ytick_5">
     <g id="line2d_11">
      <g>
       <use xlink:href="#m14b3911f43" x="50.915938" y="113.99135" style="stroke: #000000; stroke-width: 0.8"/>
      </g>
     </g>
     <g id="text_11">
      <!-- 1200 -->
      <g transform="translate(23.915938 117.463225) scale(0.1 -0.1)">
       <defs>
        <path id="TimesNewRomanPSMT-32" d="M 2934 816 
L 2638 0 
L 138 0 
L 138 116 
Q 1241 1122 1691 1759 
Q 2141 2397 2141 2925 
Q 2141 3328 1894 3587 
Q 1647 3847 1303 3847 
Q 991 3847 742 3664 
Q 494 3481 375 3128 
L 259 3128 
Q 338 3706 661 4015 
Q 984 4325 1469 4325 
Q 1984 4325 2329 3994 
Q 2675 3663 2675 3213 
Q 2675 2891 2525 2569 
Q 2294 2063 1775 1497 
Q 997 647 803 472 
L 1909 472 
Q 2247 472 2383 497 
Q 2519 522 2628 598 
Q 2738 675 2819 816 
L 2934 816 
z
" transform="scale(0.015625)"/>
       </defs>
       <use xlink:href="#TimesNewRomanPSMT-31"/>
       <use xlink:href="#TimesNewRomanPSMT-32" x="50"/>
       <use xlink:href="#TimesNewRomanPSMT-30" x="100"/>
       <use xlink:href="#TimesNewRomanPSMT-30" x="150"/>
      </g>
     </g>
    </g>
    <g id="ytick_6">
     <g id="line2d_12">
      <g>
       <use xlink:href="#m14b3911f43" x="50.915938" y="85.438169" style="stroke: #000000; stroke-width: 0.8"/>
      </g>
     </g>
     <g id="text_12">
      <!-- 1400 -->
      <g transform="translate(23.915938 88.910044) scale(0.1 -0.1)">
       <use xlink:href="#TimesNewRomanPSMT-31"/>
       <use xlink:href="#TimesNewRomanPSMT-34" x="50"/>
       <use xlink:href="#TimesNewRomanPSMT-30" x="100"/>
       <use xlink:href="#TimesNewRomanPSMT-30" x="150"/>
      </g>
     </g>
    </g>
    <g id="ytick_7">
     <g id="line2d_13">
      <g>
       <use xlink:href="#m14b3911f43" x="50.915938" y="56.884989" style="stroke: #000000; stroke-width: 0.8"/>
      </g>
     </g>
     <g id="text_13">
      <!-- 1600 -->
      <g transform="translate(23.915938 60.356864) scale(0.1 -0.1)">
       <use xlink:href="#TimesNewRomanPSMT-31"/>
       <use xlink:href="#TimesNewRomanPSMT-36" x="50"/>
       <use xlink:href="#TimesNewRomanPSMT-30" x="100"/>
       <use xlink:href="#TimesNewRomanPSMT-30" x="150"/>
      </g>
     </g>
    </g>
    <g id="text_14">
     <!-- thousand USD -->
     <g transform="translate(16.92125 182.575012) rotate(-90) scale(0.14 -0.14)">
      <defs>
       <path id="TimesNewRomanPSMT-6e" d="M 1034 2341 
Q 1538 2947 1994 2947 
Q 2228 2947 2397 2830 
Q 2566 2713 2666 2444 
Q 2734 2256 2734 1869 
L 2734 647 
Q 2734 375 2778 278 
Q 2813 200 2889 156 
Q 2966 113 3172 113 
L 3172 0 
L 1756 0 
L 1756 113 
L 1816 113 
Q 2016 113 2095 173 
Q 2175 234 2206 353 
Q 2219 400 2219 647 
L 2219 1819 
Q 2219 2209 2117 2386 
Q 2016 2563 1775 2563 
Q 1403 2563 1034 2156 
L 1034 647 
Q 1034 356 1069 288 
Q 1113 197 1189 155 
Q 1266 113 1500 113 
L 1500 0 
L 84 0 
L 84 113 
L 147 113 
Q 366 113 442 223 
Q 519 334 519 647 
L 519 1709 
Q 519 2225 495 2337 
Q 472 2450 423 2490 
Q 375 2531 294 2531 
Q 206 2531 84 2484 
L 38 2597 
L 900 2947 
L 1034 2947 
L 1034 2341 
z
" transform="scale(0.015625)"/>
       <path id="TimesNewRomanPSMT-55" d="M 3053 4122 
L 3053 4238 
L 4553 4238 
L 4553 4122 
L 4394 4122 
Q 4144 4122 4009 3913 
Q 3944 3816 3944 3463 
L 3944 1744 
Q 3944 1106 3817 754 
Q 3691 403 3320 151 
Q 2950 -100 2313 -100 
Q 1619 -100 1259 140 
Q 900 381 750 788 
Q 650 1066 650 1831 
L 650 3488 
Q 650 3878 542 4000 
Q 434 4122 194 4122 
L 34 4122 
L 34 4238 
L 1866 4238 
L 1866 4122 
L 1703 4122 
Q 1441 4122 1328 3956 
Q 1250 3844 1250 3488 
L 1250 1641 
Q 1250 1394 1295 1075 
Q 1341 756 1459 578 
Q 1578 400 1801 284 
Q 2025 169 2350 169 
Q 2766 169 3094 350 
Q 3422 531 3542 814 
Q 3663 1097 3663 1772 
L 3663 3488 
Q 3663 3884 3575 3984 
Q 3453 4122 3213 4122 
L 3053 4122 
z
" transform="scale(0.015625)"/>
      </defs>
      <use xlink:href="#TimesNewRomanPSMT-74"/>
      <use xlink:href="#TimesNewRomanPSMT-68" x="27.783203"/>
      <use xlink:href="#TimesNewRomanPSMT-6f" x="77.783203"/>
      <use xlink:href="#TimesNewRomanPSMT-75" x="127.783203"/>
      <use xlink:href="#TimesNewRomanPSMT-73" x="177.783203"/>
      <use xlink:href="#TimesNewRomanPSMT-61" x="216.699219"/>
      <use xlink:href="#TimesNewRomanPSMT-6e" x="261.083984"/>
      <use xlink:href="#TimesNewRomanPSMT-64" x="311.083984"/>
      <use xlink:href="#TimesNewRomanPSMT-20" x="361.083984"/>
      <use xlink:href="#TimesNewRomanPSMT-55" x="386.083984"/>
      <use xlink:href="#TimesNewRomanPSMT-53" x="458.300781"/>
      <use xlink:href="#TimesNewRomanPSMT-44" x="513.916016"/>
     </g>
    </g>
   </g>
   <g id="patch_3">
    <path d="M 79.175938 217.710776 
L 85.455938 217.710776 
L 85.455938 167.457179 
L 79.175938 167.457179 
L 79.175938 217.710776 
L 79.175938 217.710776 
z
" clip-path="url(#pbca0d7b8bd)" style="fill: none; stroke: #000000; stroke-linejoin: miter"/>
   </g>
   <g id="line2d_14">
    <path d="M 82.315938 217.710776 
L 82.315938 237.912151 
" clip-path="url(#pbca0d7b8bd)" style="fill: none; stroke: #000000; stroke-linecap: square"/>
   </g>
   <g id="line2d_15">
    <path d="M 82.315938 167.457179 
L 82.315938 96.288378 
" clip-path="url(#pbca0d7b8bd)" style="fill: none; stroke: #000000; stroke-linecap: square"/>
   </g>
   <g id="line2d_16">
    <path d="M 80.745937 237.912151 
L 83.885937 237.912151 
" clip-path="url(#pbca0d7b8bd)" style="fill: none; stroke: #000000; stroke-linecap: square"/>
   </g>
   <g id="line2d_17">
    <path d="M 80.745937 96.288378 
L 83.885937 96.288378 
" clip-path="url(#pbca0d7b8bd)" style="fill: none; stroke: #000000; stroke-linecap: square"/>
   </g>
   <g id="patch_4">
    <path d="M 141.975937 212.249981 
L 148.255937 212.249981 
L 148.255937 170.954944 
L 141.975937 170.954944 
L 141.975937 212.249981 
L 141.975937 212.249981 
z
" clip-path="url(#pbca0d7b8bd)" style="fill: none; stroke: #000000; stroke-linejoin: miter"/>
   </g>
   <g id="line2d_18">
    <path d="M 145.115938 212.249981 
L 145.115938 239.910874 
" clip-path="url(#pbca0d7b8bd)" style="fill: none; stroke: #000000; stroke-linecap: square"/>
   </g>
   <g id="line2d_19">
    <path d="M 145.115938 170.954944 
L 145.115938 112.278159 
" clip-path="url(#pbca0d7b8bd)" style="fill: none; stroke: #000000; stroke-linecap: square"/>
   </g>
   <g id="line2d_20">
    <path d="M 143.545938 239.910874 
L 146.685937 239.910874 
" clip-path="url(#pbca0d7b8bd)" style="fill: none; stroke: #000000; stroke-linecap: square"/>
   </g>
   <g id="line2d_21">
    <path d="M 143.545938 112.278159 
L 146.685937 112.278159 
" clip-path="url(#pbca0d7b8bd)" style="fill: none; stroke: #000000; stroke-linecap: square"/>
   </g>
   <g id="patch_5">
    <path d="M 204.775937 214.034554 
L 211.055937 214.034554 
L 211.055937 166.315052 
L 204.775937 166.315052 
L 204.775937 214.034554 
L 204.775937 214.034554 
z
" clip-path="url(#pbca0d7b8bd)" style="fill: none; stroke: #000000; stroke-linejoin: miter"/>
   </g>
   <g id="line2d_22">
    <path d="M 207.915937 214.034554 
L 207.915937 237.341088 
" clip-path="url(#pbca0d7b8bd)" style="fill: none; stroke: #000000; stroke-linecap: square"/>
   </g>
   <g id="line2d_23">
    <path d="M 207.915937 166.315052 
L 207.915937 95.86008 
" clip-path="url(#pbca0d7b8bd)" style="fill: none; stroke: #000000; stroke-linecap: square"/>
   </g>
   <g id="line2d_24">
    <path d="M 206.345937 237.341088 
L 209.485937 237.341088 
" clip-path="url(#pbca0d7b8bd)" style="fill: none; stroke: #000000; stroke-linecap: square"/>
   </g>
   <g id="line2d_25">
    <path d="M 206.345937 95.86008 
L 209.485937 95.86008 
" clip-path="url(#pbca0d7b8bd)" style="fill: none; stroke: #000000; stroke-linecap: square"/>
   </g>
   <g id="patch_6">
    <path d="M 267.575938 215.640671 
L 273.855937 215.640671 
L 273.855937 173.060741 
L 267.575938 173.060741 
L 267.575938 215.640671 
L 267.575938 215.640671 
z
" clip-path="url(#pbca0d7b8bd)" style="fill: none; stroke: #000000; stroke-linejoin: miter"/>
   </g>
   <g id="line2d_26">
    <path d="M 270.715937 215.640671 
L 270.715937 240.339172 
" clip-path="url(#pbca0d7b8bd)" style="fill: none; stroke: #000000; stroke-linecap: square"/>
   </g>
   <g id="line2d_27">
    <path d="M 270.715937 173.060741 
L 270.715937 111.992627 
" clip-path="url(#pbca0d7b8bd)" style="fill: none; stroke: #000000; stroke-linecap: square"/>
   </g>
   <g id="line2d_28">
    <path d="M 269.145938 240.339172 
L 272.285937 240.339172 
" clip-path="url(#pbca0d7b8bd)" style="fill: none; stroke: #000000; stroke-linecap: square"/>
   </g>
   <g id="line2d_29">
    <path d="M 269.145938 111.992627 
L 272.285937 111.992627 
" clip-path="url(#pbca0d7b8bd)" style="fill: none; stroke: #000000; stroke-linecap: square"/>
   </g>
   <g id="patch_7">
    <path d="M 330.375937 215.176682 
L 336.655937 215.176682 
L 336.655937 176.772654 
L 330.375937 176.772654 
L 330.375937 215.176682 
L 330.375937 215.176682 
z
" clip-path="url(#pbca0d7b8bd)" style="fill: none; stroke: #000000; stroke-linejoin: miter"/>
   </g>
   <g id="line2d_30">
    <path d="M 333.515937 215.176682 
L 333.515937 242.908958 
" clip-path="url(#pbca0d7b8bd)" style="fill: none; stroke: #000000; stroke-linecap: square"/>
   </g>
   <g id="line2d_31">
    <path d="M 333.515937 176.772654 
L 333.515937 121.98624 
" clip-path="url(#pbca0d7b8bd)" style="fill: none; stroke: #000000; stroke-linecap: square"/>
   </g>
   <g id="line2d_32">
    <path d="M 331.945937 242.908958 
L 335.085938 242.908958 
" clip-path="url(#pbca0d7b8bd)" style="fill: none; stroke: #000000; stroke-linecap: square"/>
   </g>
   <g id="line2d_33">
    <path d="M 331.945937 121.98624 
L 335.085938 121.98624 
" clip-path="url(#pbca0d7b8bd)" style="fill: none; stroke: #000000; stroke-linecap: square"/>
   </g>
   <g id="patch_8">
    <path d="M 393.175937 211.143545 
L 399.455937 211.143545 
L 399.455937 171.847231 
L 393.175937 171.847231 
L 393.175937 211.143545 
L 393.175937 211.143545 
z
" clip-path="url(#pbca0d7b8bd)" style="fill: none; stroke: #000000; stroke-linejoin: miter"/>
   </g>
   <g id="line2d_34">
    <path d="M 396.315937 211.143545 
L 396.315937 239.054278 
" clip-path="url(#pbca0d7b8bd)" style="fill: none; stroke: #000000; stroke-linecap: square"/>
   </g>
   <g id="line2d_35">
    <path d="M 396.315937 171.847231 
L 396.315937 113.27752 
" clip-path="url(#pbca0d7b8bd)" style="fill: none; stroke: #000000; stroke-linecap: square"/>
   </g>
   <g id="line2d_36">
    <path d="M 394.745937 239.054278 
L 397.885937 239.054278 
" clip-path="url(#pbca0d7b8bd)" style="fill: none; stroke: #000000; stroke-linecap: square"/>
   </g>
   <g id="line2d_37">
    <path d="M 394.745937 113.27752 
L 397.885937 113.27752 
" clip-path="url(#pbca0d7b8bd)" style="fill: none; stroke: #000000; stroke-linecap: square"/>
   </g>
   <g id="line2d_38">
    <path d="M 79.175938 193.797488 
L 85.455938 193.797488 
" clip-path="url(#pbca0d7b8bd)" style="fill: none; stroke: #000000; stroke-width: 1.5; stroke-linecap: square"/>
   </g>
   <g id="line2d_39">
    <path d="M 141.975937 196.153125 
L 148.255937 196.153125 
" clip-path="url(#pbca0d7b8bd)" style="fill: none; stroke: #000000; stroke-width: 1.5; stroke-linecap: square"/>
   </g>
   <g id="line2d_40">
    <path d="M 204.775937 194.08302 
L 211.055937 194.08302 
" clip-path="url(#pbca0d7b8bd)" style="fill: none; stroke: #000000; stroke-width: 1.5; stroke-linecap: square"/>
   </g>
   <g id="line2d_41">
    <path d="M 267.575938 201.078549 
L 273.855937 201.078549 
" clip-path="url(#pbca0d7b8bd)" style="fill: none; stroke: #000000; stroke-width: 1.5; stroke-linecap: square"/>
   </g>
   <g id="line2d_42">
    <path d="M 330.375937 202.363442 
L 336.655937 202.363442 
" clip-path="url(#pbca0d7b8bd)" style="fill: none; stroke: #000000; stroke-width: 1.5; stroke-linecap: square"/>
   </g>
   <g id="line2d_43">
    <path d="M 393.175937 194.08302 
L 399.455937 194.08302 
" clip-path="url(#pbca0d7b8bd)" style="fill: none; stroke: #000000; stroke-width: 1.5; stroke-linecap: square"/>
   </g>
   <g id="patch_9">
    <path d="M 50.915938 253.045337 
L 50.915938 30.045 
" style="fill: none; stroke: #000000; stroke-linejoin: miter; stroke-linecap: square"/>
   </g>
   <g id="patch_10">
    <path d="M 427.715937 253.045337 
L 427.715937 30.045 
" style="fill: none; stroke: #000000; stroke-linejoin: miter; stroke-linecap: square"/>
   </g>
   <g id="patch_11">
    <path d="M 50.915938 253.045337 
L 427.715937 253.045337 
" style="fill: none; stroke: #000000; stroke-linejoin: miter; stroke-linecap: square"/>
   </g>
   <g id="patch_12">
    <path d="M 50.915938 30.045 
L 427.715937 30.045 
" style="fill: none; stroke: #000000; stroke-linejoin: miter; stroke-linecap: square"/>
   </g>
   <g id="text_15">
    <!-- Virtual Housing Prices by Property Type (thousand USD) -->
    <g transform="translate(42.925937 18.045) scale(0.16 -0.16)">
     <defs>
      <path id="TimesNewRomanPS-BoldMT-56" d="M 4556 4238 
L 4556 4122 
Q 4325 4084 4144 3875 
Q 4013 3719 3753 3141 
L 2294 -97 
L 2191 -97 
L 738 3272 
Q 475 3881 386 3987 
Q 297 4094 50 4122 
L 50 4238 
L 2081 4238 
L 2081 4122 
L 2013 4122 
Q 1738 4122 1638 4053 
Q 1566 4006 1566 3916 
Q 1566 3859 1591 3782 
Q 1616 3706 1759 3372 
L 2663 1263 
L 3500 3141 
Q 3650 3481 3684 3597 
Q 3719 3713 3719 3794 
Q 3719 3888 3669 3959 
Q 3619 4031 3522 4069 
Q 3388 4122 3166 4122 
L 3166 4238 
L 4556 4238 
z
" transform="scale(0.015625)"/>
      <path id="TimesNewRomanPS-BoldMT-69" d="M 919 4338 
Q 1122 4338 1262 4195 
Q 1403 4053 1403 3853 
Q 1403 3653 1261 3512 
Q 1119 3372 919 3372 
Q 719 3372 578 3512 
Q 438 3653 438 3853 
Q 438 4053 578 4195 
Q 719 4338 919 4338 
z
M 1356 2922 
L 1356 606 
Q 1356 297 1428 211 
Q 1500 125 1709 113 
L 1709 0 
L 131 0 
L 131 113 
Q 325 119 419 225 
Q 481 297 481 606 
L 481 2313 
Q 481 2622 409 2708 
Q 338 2794 131 2806 
L 131 2922 
L 1356 2922 
z
" transform="scale(0.015625)"/>
      <path id="TimesNewRomanPS-BoldMT-72" d="M 1428 2922 
L 1428 2259 
Q 1719 2713 1937 2861 
Q 2156 3009 2359 3009 
Q 2534 3009 2639 2901 
Q 2744 2794 2744 2597 
Q 2744 2388 2642 2272 
Q 2541 2156 2397 2156 
Q 2231 2156 2109 2262 
Q 1988 2369 1966 2381 
Q 1934 2400 1894 2400 
Q 1803 2400 1722 2331 
Q 1594 2225 1528 2028 
Q 1428 1725 1428 1359 
L 1428 688 
L 1431 513 
Q 1431 334 1453 284 
Q 1491 200 1564 161 
Q 1638 122 1813 113 
L 1813 0 
L 234 0 
L 234 113 
Q 425 128 492 217 
Q 559 306 559 688 
L 559 2303 
Q 559 2553 534 2622 
Q 503 2709 443 2750 
Q 384 2791 234 2806 
L 234 2922 
L 1428 2922 
z
" transform="scale(0.015625)"/>
      <path id="TimesNewRomanPS-BoldMT-74" d="M 1375 3991 
L 1375 2922 
L 2069 2922 
L 2069 2613 
L 1375 2613 
L 1375 809 
Q 1375 556 1398 482 
Q 1422 409 1481 364 
Q 1541 319 1591 319 
Q 1794 319 1975 628 
L 2069 559 
Q 1816 -41 1247 -41 
Q 969 -41 776 114 
Q 584 269 531 459 
Q 500 566 500 1034 
L 500 2613 
L 119 2613 
L 119 2722 
Q 513 3000 789 3306 
Q 1066 3613 1272 3991 
L 1375 3991 
z
" transform="scale(0.015625)"/>
      <path id="TimesNewRomanPS-BoldMT-75" d="M 3038 2922 
L 3038 634 
Q 3038 300 3100 217 
Q 3163 134 3353 113 
L 3353 0 
L 2163 0 
L 2163 391 
Q 1953 141 1743 26 
Q 1534 -88 1275 -88 
Q 1028 -88 836 64 
Q 644 216 578 419 
Q 513 622 513 1128 
L 513 2288 
Q 513 2619 452 2700 
Q 391 2781 197 2806 
L 197 2922 
L 1388 2922 
L 1388 925 
Q 1388 613 1417 522 
Q 1447 431 1511 384 
Q 1575 338 1659 338 
Q 1772 338 1863 397 
Q 1988 478 2163 725 
L 2163 2288 
Q 2163 2619 2102 2700 
Q 2041 2781 1847 2806 
L 1847 2922 
L 3038 2922 
z
" transform="scale(0.015625)"/>
      <path id="TimesNewRomanPS-BoldMT-61" d="M 1828 431 
Q 1294 -41 869 -41 
Q 619 -41 453 123 
Q 288 288 288 534 
Q 288 869 575 1136 
Q 863 1403 1828 1847 
L 1828 2141 
Q 1828 2472 1792 2558 
Q 1756 2644 1656 2708 
Q 1556 2772 1431 2772 
Q 1228 2772 1097 2681 
Q 1016 2625 1016 2550 
Q 1016 2484 1103 2388 
Q 1222 2253 1222 2128 
Q 1222 1975 1108 1867 
Q 994 1759 809 1759 
Q 613 1759 480 1878 
Q 347 1997 347 2156 
Q 347 2381 525 2586 
Q 703 2791 1022 2900 
Q 1341 3009 1684 3009 
Q 2100 3009 2342 2832 
Q 2584 2656 2656 2450 
Q 2700 2319 2700 1847 
L 2700 713 
Q 2700 513 2715 461 
Q 2731 409 2762 384 
Q 2794 359 2834 359 
Q 2916 359 3000 475 
L 3094 400 
Q 2938 169 2770 64 
Q 2603 -41 2391 -41 
Q 2141 -41 2000 76 
Q 1859 194 1828 431 
z
M 1828 659 
L 1828 1638 
Q 1450 1416 1266 1163 
Q 1144 994 1144 822 
Q 1144 678 1247 569 
Q 1325 484 1466 484 
Q 1622 484 1828 659 
z
" transform="scale(0.015625)"/>
      <path id="TimesNewRomanPS-BoldMT-6c" d="M 1359 4238 
L 1359 606 
Q 1359 297 1431 211 
Q 1503 125 1713 113 
L 1713 0 
L 134 0 
L 134 113 
Q 328 119 422 225 
Q 484 297 484 606 
L 484 3631 
Q 484 3938 412 4023 
Q 341 4109 134 4122 
L 134 4238 
L 1359 4238 
z
" transform="scale(0.015625)"/>
      <path id="TimesNewRomanPS-BoldMT-20" transform="scale(0.015625)"/>
      <path id="TimesNewRomanPS-BoldMT-48" d="M 1750 2038 
L 1750 725 
Q 1750 400 1786 319 
Q 1822 238 1926 177 
Q 2031 116 2209 116 
L 2350 116 
L 2350 0 
L 134 0 
L 134 116 
L 275 116 
Q 459 116 572 181 
Q 653 225 697 331 
Q 731 406 731 725 
L 731 3513 
Q 731 3838 697 3919 
Q 663 4000 558 4061 
Q 453 4122 275 4122 
L 134 4122 
L 134 4238 
L 2350 4238 
L 2350 4122 
L 2209 4122 
Q 2025 4122 1913 4056 
Q 1831 4013 1784 3906 
Q 1750 3831 1750 3513 
L 1750 2313 
L 3247 2313 
L 3247 3513 
Q 3247 3838 3212 3919 
Q 3178 4000 3072 4061 
Q 2966 4122 2788 4122 
L 2650 4122 
L 2650 4238 
L 4863 4238 
L 4863 4122 
L 4725 4122 
Q 4538 4122 4428 4056 
Q 4347 4013 4300 3906 
Q 4266 3831 4266 3513 
L 4266 725 
Q 4266 400 4300 319 
Q 4334 238 4440 177 
Q 4547 116 4725 116 
L 4863 116 
L 4863 0 
L 2650 0 
L 2650 116 
L 2788 116 
Q 2975 116 3084 181 
Q 3166 225 3213 331 
Q 3247 406 3247 725 
L 3247 2038 
L 1750 2038 
z
" transform="scale(0.015625)"/>
      <path id="TimesNewRomanPS-BoldMT-6f" d="M 1594 3009 
Q 1975 3009 2303 2812 
Q 2631 2616 2801 2253 
Q 2972 1891 2972 1459 
Q 2972 838 2656 419 
Q 2275 -88 1603 -88 
Q 944 -88 587 375 
Q 231 838 231 1447 
Q 231 2075 595 2542 
Q 959 3009 1594 3009 
z
M 1606 2788 
Q 1447 2788 1333 2667 
Q 1219 2547 1183 2192 
Q 1147 1838 1147 1206 
Q 1147 872 1191 581 
Q 1225 359 1337 243 
Q 1450 128 1594 128 
Q 1734 128 1828 206 
Q 1950 313 1991 503 
Q 2053 800 2053 1703 
Q 2053 2234 1993 2432 
Q 1934 2631 1819 2722 
Q 1738 2788 1606 2788 
z
" transform="scale(0.015625)"/>
      <path id="TimesNewRomanPS-BoldMT-73" d="M 2063 3003 
L 2109 2006 
L 2003 2006 
Q 1813 2450 1608 2612 
Q 1403 2775 1200 2775 
Q 1072 2775 981 2689 
Q 891 2603 891 2491 
Q 891 2406 953 2328 
Q 1053 2200 1512 1889 
Q 1972 1578 2117 1361 
Q 2263 1144 2263 875 
Q 2263 631 2141 397 
Q 2019 163 1797 37 
Q 1575 -88 1306 -88 
Q 1097 -88 747 44 
Q 653 78 619 78 
Q 516 78 447 -78 
L 344 -78 
L 294 972 
L 400 972 
Q 541 559 786 353 
Q 1031 147 1250 147 
Q 1400 147 1495 239 
Q 1591 331 1591 463 
Q 1591 613 1497 722 
Q 1403 831 1078 1053 
Q 600 1384 459 1559 
Q 253 1816 253 2125 
Q 253 2463 486 2736 
Q 719 3009 1159 3009 
Q 1397 3009 1619 2894 
Q 1703 2847 1756 2847 
Q 1813 2847 1847 2870 
Q 1881 2894 1956 3003 
L 2063 3003 
z
" transform="scale(0.015625)"/>
      <path id="TimesNewRomanPS-BoldMT-6e" d="M 1409 2922 
L 1409 2544 
Q 1634 2788 1840 2898 
Q 2047 3009 2284 3009 
Q 2569 3009 2756 2851 
Q 2944 2694 3006 2459 
Q 3056 2281 3056 1775 
L 3056 638 
Q 3056 300 3117 217 
Q 3178 134 3372 113 
L 3372 0 
L 1894 0 
L 1894 113 
Q 2059 134 2131 250 
Q 2181 328 2181 638 
L 2181 1938 
Q 2181 2297 2153 2390 
Q 2125 2484 2058 2536 
Q 1991 2588 1909 2588 
Q 1641 2588 1409 2203 
L 1409 638 
Q 1409 309 1470 221 
Q 1531 134 1697 113 
L 1697 0 
L 219 0 
L 219 113 
Q 403 131 481 231 
Q 534 300 534 638 
L 534 2288 
Q 534 2619 473 2700 
Q 413 2781 219 2806 
L 219 2922 
L 1409 2922 
z
" transform="scale(0.015625)"/>
      <path id="TimesNewRomanPS-BoldMT-67" d="M 2091 2888 
L 3075 2888 
L 3075 2544 
L 2516 2544 
Q 2669 2391 2728 2266 
Q 2803 2097 2803 1913 
Q 2803 1600 2629 1370 
Q 2456 1141 2157 1011 
Q 1859 881 1628 881 
Q 1609 881 1253 897 
Q 1113 897 1017 805 
Q 922 713 922 584 
Q 922 472 1008 400 
Q 1094 328 1288 328 
L 1828 334 
Q 2484 334 2731 191 
Q 3084 -9 3084 -425 
Q 3084 -691 2921 -908 
Q 2759 -1125 2494 -1228 
Q 2091 -1381 1566 -1381 
Q 1172 -1381 847 -1304 
Q 522 -1228 381 -1092 
Q 241 -956 241 -806 
Q 241 -663 348 -548 
Q 456 -434 750 -356 
Q 344 -156 344 200 
Q 344 416 509 619 
Q 675 822 1034 972 
Q 616 1125 428 1375 
Q 241 1625 241 1953 
Q 241 2381 591 2695 
Q 941 3009 1491 3009 
Q 1781 3009 2091 2888 
z
M 1550 2816 
Q 1369 2816 1244 2633 
Q 1119 2450 1119 1875 
Q 1119 1409 1242 1236 
Q 1366 1063 1534 1063 
Q 1722 1063 1847 1234 
Q 1972 1406 1972 1903 
Q 1972 2463 1831 2666 
Q 1731 2816 1550 2816 
z
M 1366 -431 
Q 1047 -431 944 -484 
Q 766 -581 766 -747 
Q 766 -906 950 -1036 
Q 1134 -1166 1644 -1166 
Q 2078 -1166 2326 -1050 
Q 2575 -934 2575 -725 
Q 2575 -647 2528 -594 
Q 2444 -500 2273 -465 
Q 2103 -431 1366 -431 
z
" transform="scale(0.015625)"/>
      <path id="TimesNewRomanPS-BoldMT-50" d="M 1728 1919 
L 1728 744 
Q 1728 400 1770 311 
Q 1813 222 1920 169 
Q 2028 116 2316 116 
L 2316 0 
L 163 0 
L 163 116 
Q 456 116 561 170 
Q 666 225 708 312 
Q 750 400 750 744 
L 750 3494 
Q 750 3838 708 3927 
Q 666 4016 559 4069 
Q 453 4122 163 4122 
L 163 4238 
L 2009 4238 
Q 2922 4238 3319 3913 
Q 3716 3588 3716 3100 
Q 3716 2688 3459 2394 
Q 3203 2100 2753 1994 
Q 2450 1919 1728 1919 
z
M 1728 3994 
L 1728 2163 
Q 1831 2156 1884 2156 
Q 2266 2156 2472 2382 
Q 2678 2609 2678 3084 
Q 2678 3556 2472 3775 
Q 2266 3994 1856 3994 
L 1728 3994 
z
" transform="scale(0.015625)"/>
      <path id="TimesNewRomanPS-BoldMT-63" d="M 2600 753 
L 2697 678 
Q 2491 291 2183 101 
Q 1875 -88 1528 -88 
Q 944 -88 594 353 
Q 244 794 244 1413 
Q 244 2009 563 2463 
Q 947 3009 1622 3009 
Q 2075 3009 2342 2781 
Q 2609 2553 2609 2272 
Q 2609 2094 2501 1987 
Q 2394 1881 2219 1881 
Q 2034 1881 1914 2003 
Q 1794 2125 1766 2438 
Q 1747 2634 1675 2713 
Q 1603 2791 1506 2791 
Q 1356 2791 1250 2631 
Q 1088 2391 1088 1894 
Q 1088 1481 1219 1104 
Q 1350 728 1578 544 
Q 1750 409 1984 409 
Q 2138 409 2275 481 
Q 2413 553 2600 753 
z
" transform="scale(0.015625)"/>
      <path id="TimesNewRomanPS-BoldMT-65" d="M 2691 1566 
L 1088 1566 
Q 1116 984 1397 647 
Q 1613 388 1916 388 
Q 2103 388 2256 492 
Q 2409 597 2584 869 
L 2691 800 
Q 2453 316 2165 114 
Q 1878 -88 1500 -88 
Q 850 -88 516 413 
Q 247 816 247 1413 
Q 247 2144 642 2576 
Q 1038 3009 1569 3009 
Q 2013 3009 2339 2645 
Q 2666 2281 2691 1566 
z
M 1922 1775 
Q 1922 2278 1867 2465 
Q 1813 2653 1697 2750 
Q 1631 2806 1522 2806 
Q 1359 2806 1256 2647 
Q 1072 2369 1072 1884 
L 1072 1775 
L 1922 1775 
z
" transform="scale(0.015625)"/>
      <path id="TimesNewRomanPS-BoldMT-62" d="M 1347 4238 
L 1347 2628 
Q 1716 3009 2153 3009 
Q 2453 3009 2718 2832 
Q 2984 2656 3134 2331 
Q 3284 2006 3284 1581 
Q 3284 1103 3093 712 
Q 2903 322 2584 117 
Q 2266 -88 1856 -88 
Q 1619 -88 1434 -12 
Q 1250 63 1072 231 
L 588 -84 
L 481 -84 
L 481 3631 
Q 481 3884 459 3944 
Q 428 4031 361 4073 
Q 294 4116 134 4122 
L 134 4238 
L 1347 4238 
z
M 1347 2350 
L 1347 1050 
Q 1347 653 1366 544 
Q 1397 359 1515 245 
Q 1634 131 1819 131 
Q 1978 131 2092 222 
Q 2206 313 2282 581 
Q 2359 850 2359 1550 
Q 2359 2222 2191 2472 
Q 2069 2653 1863 2653 
Q 1594 2653 1347 2350 
z
" transform="scale(0.015625)"/>
      <path id="TimesNewRomanPS-BoldMT-79" d="M 1556 -119 
L 613 2047 
Q 400 2538 298 2650 
Q 197 2763 53 2806 
L 53 2922 
L 1606 2922 
L 1606 2806 
Q 1453 2800 1390 2747 
Q 1328 2694 1328 2619 
Q 1328 2500 1484 2150 
L 1984 1006 
L 2325 1891 
Q 2509 2363 2509 2547 
Q 2509 2663 2432 2731 
Q 2356 2800 2163 2806 
L 2163 2922 
L 3141 2922 
L 3141 2806 
Q 2997 2791 2906 2695 
Q 2816 2600 2603 2047 
L 1769 -119 
Q 1453 -931 1300 -1119 
Q 1084 -1381 759 -1381 
Q 500 -1381 339 -1232 
Q 178 -1084 178 -875 
Q 178 -694 289 -575 
Q 400 -456 563 -456 
Q 719 -456 814 -556 
Q 909 -656 913 -866 
Q 916 -984 941 -1019 
Q 966 -1053 1013 -1053 
Q 1088 -1053 1172 -963 
Q 1297 -831 1466 -363 
L 1556 -119 
z
" transform="scale(0.015625)"/>
      <path id="TimesNewRomanPS-BoldMT-70" d="M 1347 297 
L 1347 -791 
Q 1347 -1016 1383 -1097 
Q 1419 -1178 1494 -1215 
Q 1569 -1253 1788 -1253 
L 1788 -1369 
L 122 -1369 
L 122 -1253 
Q 316 -1247 409 -1144 
Q 472 -1072 472 -772 
L 472 2313 
Q 472 2622 400 2708 
Q 328 2794 122 2806 
L 122 2922 
L 1347 2922 
L 1347 2538 
Q 1500 2763 1659 2863 
Q 1888 3009 2156 3009 
Q 2478 3009 2742 2806 
Q 3006 2603 3143 2245 
Q 3281 1888 3281 1475 
Q 3281 1031 3139 664 
Q 2997 297 2726 104 
Q 2456 -88 2125 -88 
Q 1884 -88 1675 19 
Q 1519 100 1347 297 
z
M 1347 613 
Q 1616 231 1922 231 
Q 2091 231 2200 409 
Q 2363 672 2363 1409 
Q 2363 2166 2184 2444 
Q 2066 2628 1866 2628 
Q 1550 2628 1347 2172 
L 1347 613 
z
" transform="scale(0.015625)"/>
      <path id="TimesNewRomanPS-BoldMT-54" d="M 4038 4238 
L 4038 3091 
L 3925 3091 
Q 3825 3488 3703 3661 
Q 3581 3834 3369 3938 
Q 3250 3994 2953 3994 
L 2638 3994 
L 2638 725 
Q 2638 400 2673 319 
Q 2709 238 2814 177 
Q 2919 116 3100 116 
L 3241 116 
L 3241 0 
L 1022 0 
L 1022 116 
L 1163 116 
Q 1347 116 1459 181 
Q 1541 225 1588 331 
Q 1622 406 1622 725 
L 1622 3994 
L 1316 3994 
Q 888 3994 694 3813 
Q 422 3559 350 3091 
L 231 3091 
L 231 4238 
L 4038 4238 
z
" transform="scale(0.015625)"/>
      <path id="TimesNewRomanPS-BoldMT-28" d="M 2056 4334 
L 2056 4191 
Q 1731 3978 1578 3775 
Q 1366 3494 1247 3053 
Q 1097 2506 1097 1525 
Q 1097 600 1233 87 
Q 1369 -425 1603 -741 
Q 1766 -959 2056 -1125 
L 2056 -1281 
Q 1303 -1028 779 -248 
Q 256 531 256 1544 
Q 256 2544 778 3314 
Q 1300 4084 2056 4334 
z
" transform="scale(0.015625)"/>
      <path id="TimesNewRomanPS-BoldMT-68" d="M 1409 4238 
L 1409 2547 
Q 1650 2800 1850 2904 
Q 2050 3009 2266 3009 
Q 2541 3009 2736 2853 
Q 2931 2697 2995 2486 
Q 3059 2275 3059 1775 
L 3059 634 
Q 3059 300 3121 217 
Q 3184 134 3375 113 
L 3375 0 
L 1894 0 
L 1894 113 
Q 2050 134 2128 238 
Q 2184 319 2184 634 
L 2184 1938 
Q 2184 2300 2156 2392 
Q 2128 2484 2061 2536 
Q 1994 2588 1909 2588 
Q 1784 2588 1665 2502 
Q 1547 2416 1409 2200 
L 1409 634 
Q 1409 322 1456 244 
Q 1516 138 1700 113 
L 1700 0 
L 219 0 
L 219 113 
Q 403 131 481 231 
Q 534 300 534 634 
L 534 3603 
Q 534 3934 473 4015 
Q 413 4097 219 4122 
L 219 4238 
L 1409 4238 
z
" transform="scale(0.015625)"/>
      <path id="TimesNewRomanPS-BoldMT-64" d="M 3056 4238 
L 3056 875 
Q 3056 534 3075 472 
Q 3100 369 3170 319 
Q 3241 269 3416 256 
L 3416 153 
L 2181 -88 
L 2181 375 
Q 1959 106 1786 9 
Q 1613 -88 1394 -88 
Q 834 -88 509 413 
Q 247 819 247 1409 
Q 247 1881 409 2254 
Q 572 2628 855 2818 
Q 1138 3009 1463 3009 
Q 1672 3009 1834 2928 
Q 1997 2847 2181 2644 
L 2181 3525 
Q 2181 3859 2153 3928 
Q 2116 4019 2041 4062 
Q 1966 4106 1759 4106 
L 1759 4238 
L 3056 4238 
z
M 2181 2256 
Q 1950 2700 1616 2700 
Q 1500 2700 1425 2638 
Q 1309 2541 1236 2297 
Q 1163 2053 1163 1550 
Q 1163 997 1244 731 
Q 1325 466 1466 347 
Q 1538 288 1663 288 
Q 1938 288 2181 719 
L 2181 2256 
z
" transform="scale(0.015625)"/>
      <path id="TimesNewRomanPS-BoldMT-55" d="M 150 4238 
L 2338 4238 
L 2338 4122 
L 2228 4122 
Q 1981 4122 1889 4070 
Q 1797 4019 1758 3928 
Q 1719 3838 1719 3475 
L 1719 1400 
Q 1719 831 1805 647 
Q 1891 463 2087 341 
Q 2284 219 2584 219 
Q 2928 219 3170 373 
Q 3413 528 3533 800 
Q 3653 1072 3653 1747 
L 3653 3475 
Q 3653 3759 3593 3881 
Q 3534 4003 3444 4050 
Q 3303 4122 3047 4122 
L 3047 4238 
L 4513 4238 
L 4513 4122 
L 4425 4122 
Q 4247 4122 4128 4050 
Q 4009 3978 3956 3834 
Q 3916 3734 3916 3475 
L 3916 1866 
Q 3916 1119 3817 787 
Q 3719 456 3337 178 
Q 2956 -100 2297 -100 
Q 1747 -100 1447 47 
Q 1038 247 869 559 
Q 700 872 700 1400 
L 700 3475 
Q 700 3841 659 3930 
Q 619 4019 519 4072 
Q 419 4125 150 4122 
L 150 4238 
z
" transform="scale(0.015625)"/>
      <path id="TimesNewRomanPS-BoldMT-53" d="M 3006 4334 
L 3041 2922 
L 2913 2922 
Q 2822 3453 2467 3776 
Q 2113 4100 1700 4100 
Q 1381 4100 1195 3929 
Q 1009 3759 1009 3538 
Q 1009 3397 1075 3288 
Q 1166 3141 1366 2997 
Q 1513 2894 2044 2631 
Q 2788 2266 3047 1941 
Q 3303 1616 3303 1197 
Q 3303 666 2889 283 
Q 2475 -100 1838 -100 
Q 1638 -100 1459 -59 
Q 1281 -19 1013 94 
Q 863 156 766 156 
Q 684 156 593 93 
Q 503 31 447 -97 
L 331 -97 
L 331 1503 
L 447 1503 
Q 584 828 976 473 
Q 1369 119 1822 119 
Q 2172 119 2380 309 
Q 2588 500 2588 753 
Q 2588 903 2508 1043 
Q 2428 1184 2265 1311 
Q 2103 1438 1691 1641 
Q 1113 1925 859 2125 
Q 606 2325 470 2572 
Q 334 2819 334 3116 
Q 334 3622 706 3978 
Q 1078 4334 1644 4334 
Q 1850 4334 2044 4284 
Q 2191 4247 2402 4145 
Q 2613 4044 2697 4044 
Q 2778 4044 2825 4094 
Q 2872 4144 2913 4334 
L 3006 4334 
z
" transform="scale(0.015625)"/>
      <path id="TimesNewRomanPS-BoldMT-44" d="M 84 0 
L 84 116 
L 225 116 
Q 409 116 507 173 
Q 606 231 653 331 
Q 681 397 681 725 
L 681 3513 
Q 681 3838 647 3919 
Q 613 4000 508 4061 
Q 403 4122 225 4122 
L 84 4122 
L 84 4238 
L 1981 4238 
Q 2741 4238 3203 4031 
Q 3769 3778 4061 3265 
Q 4353 2753 4353 2106 
Q 4353 1659 4209 1282 
Q 4066 906 3837 661 
Q 3609 416 3311 267 
Q 3013 119 2581 38 
Q 2391 0 1981 0 
L 84 0 
z
M 1700 3997 
L 1700 691 
Q 1700 428 1725 368 
Q 1750 309 1809 278 
Q 1894 231 2053 231 
Q 2575 231 2850 588 
Q 3225 1069 3225 2081 
Q 3225 2897 2969 3384 
Q 2766 3766 2447 3903 
Q 2222 4000 1700 3997 
z
" transform="scale(0.015625)"/>
      <path id="TimesNewRomanPS-BoldMT-29" d="M 78 -1281 
L 78 -1138 
Q 403 -922 556 -719 
Q 766 -438 888 0 
Q 1038 550 1038 1531 
Q 1038 2456 902 2967 
Q 766 3478 531 3794 
Q 369 4013 78 4178 
L 78 4334 
Q 831 4081 1354 3301 
Q 1878 2522 1878 1509 
Q 1878 513 1354 -257 
Q 831 -1028 78 -1281 
z
" transform="scale(0.015625)"/>
     </defs>
     <use xlink:href="#TimesNewRomanPS-BoldMT-56"/>
     <use xlink:href="#TimesNewRomanPS-BoldMT-69" x="68.466797"/>
     <use xlink:href="#TimesNewRomanPS-BoldMT-72" x="96.25"/>
     <use xlink:href="#TimesNewRomanPS-BoldMT-74" x="140.634766"/>
     <use xlink:href="#TimesNewRomanPS-BoldMT-75" x="173.935547"/>
     <use xlink:href="#TimesNewRomanPS-BoldMT-61" x="229.550781"/>
     <use xlink:href="#TimesNewRomanPS-BoldMT-6c" x="279.550781"/>
     <use xlink:href="#TimesNewRomanPS-BoldMT-20" x="307.333984"/>
     <use xlink:href="#TimesNewRomanPS-BoldMT-48" x="332.333984"/>
     <use xlink:href="#TimesNewRomanPS-BoldMT-6f" x="410.117188"/>
     <use xlink:href="#TimesNewRomanPS-BoldMT-75" x="460.117188"/>
     <use xlink:href="#TimesNewRomanPS-BoldMT-73" x="515.732422"/>
     <use xlink:href="#TimesNewRomanPS-BoldMT-69" x="554.648438"/>
     <use xlink:href="#TimesNewRomanPS-BoldMT-6e" x="582.431641"/>
     <use xlink:href="#TimesNewRomanPS-BoldMT-67" x="638.046875"/>
     <use xlink:href="#TimesNewRomanPS-BoldMT-20" x="688.046875"/>
     <use xlink:href="#TimesNewRomanPS-BoldMT-50" x="713.046875"/>
     <use xlink:href="#TimesNewRomanPS-BoldMT-72" x="774.130859"/>
     <use xlink:href="#TimesNewRomanPS-BoldMT-69" x="818.515625"/>
     <use xlink:href="#TimesNewRomanPS-BoldMT-63" x="846.298828"/>
     <use xlink:href="#TimesNewRomanPS-BoldMT-65" x="890.683594"/>
     <use xlink:href="#TimesNewRomanPS-BoldMT-73" x="935.068359"/>
     <use xlink:href="#TimesNewRomanPS-BoldMT-20" x="973.984375"/>
     <use xlink:href="#TimesNewRomanPS-BoldMT-62" x="998.984375"/>
     <use xlink:href="#TimesNewRomanPS-BoldMT-79" x="1054.599609"/>
     <use xlink:href="#TimesNewRomanPS-BoldMT-20" x="1104.599609"/>
     <use xlink:href="#TimesNewRomanPS-BoldMT-50" x="1129.599609"/>
     <use xlink:href="#TimesNewRomanPS-BoldMT-72" x="1190.683594"/>
     <use xlink:href="#TimesNewRomanPS-BoldMT-6f" x="1233.318359"/>
     <use xlink:href="#TimesNewRomanPS-BoldMT-70" x="1283.318359"/>
     <use xlink:href="#TimesNewRomanPS-BoldMT-65" x="1338.933594"/>
     <use xlink:href="#TimesNewRomanPS-BoldMT-72" x="1383.318359"/>
     <use xlink:href="#TimesNewRomanPS-BoldMT-74" x="1427.703125"/>
     <use xlink:href="#TimesNewRomanPS-BoldMT-79" x="1461.003906"/>
     <use xlink:href="#TimesNewRomanPS-BoldMT-20" x="1511.003906"/>
     <use xlink:href="#TimesNewRomanPS-BoldMT-54" x="1534.253906"/>
     <use xlink:href="#TimesNewRomanPS-BoldMT-79" x="1593.578125"/>
     <use xlink:href="#TimesNewRomanPS-BoldMT-70" x="1643.578125"/>
     <use xlink:href="#TimesNewRomanPS-BoldMT-65" x="1699.193359"/>
     <use xlink:href="#TimesNewRomanPS-BoldMT-20" x="1743.578125"/>
     <use xlink:href="#TimesNewRomanPS-BoldMT-28" x="1768.578125"/>
     <use xlink:href="#TimesNewRomanPS-BoldMT-74" x="1801.878906"/>
     <use xlink:href="#TimesNewRomanPS-BoldMT-68" x="1835.179688"/>
     <use xlink:href="#TimesNewRomanPS-BoldMT-6f" x="1890.794922"/>
     <use xlink:href="#TimesNewRomanPS-BoldMT-75" x="1940.794922"/>
     <use xlink:href="#TimesNewRomanPS-BoldMT-73" x="1996.410156"/>
     <use xlink:href="#TimesNewRomanPS-BoldMT-61" x="2035.326172"/>
     <use xlink:href="#TimesNewRomanPS-BoldMT-6e" x="2085.326172"/>
     <use xlink:href="#TimesNewRomanPS-BoldMT-64" x="2140.941406"/>
     <use xlink:href="#TimesNewRomanPS-BoldMT-20" x="2196.556641"/>
     <use xlink:href="#TimesNewRomanPS-BoldMT-55" x="2221.556641"/>
     <use xlink:href="#TimesNewRomanPS-BoldMT-53" x="2293.773438"/>
     <use xlink:href="#TimesNewRomanPS-BoldMT-44" x="2349.388672"/>
     <use xlink:href="#TimesNewRomanPS-BoldMT-29" x="2421.605469"/>
    </g>
   </g>
  </g>
 </g>
 <defs>
  <clipPath id="pbca0d7b8bd">
   <rect x="50.915938" y="30.045" width="376.8" height="223.000337"/>
  </clipPath>
 </defs>
</svg>
