<?xml version="1.0" encoding="utf-8" standalone="no"?>
<!DOCTYPE svg PUBLIC "-//W3C//DTD SVG 1.1//EN"
  "http://www.w3.org/Graphics/SVG/1.1/DTD/svg11.dtd">
<svg xmlns:xlink="http://www.w3.org/1999/xlink" width="442.905937pt" height="319.946889pt" viewBox="0 0 442.905937 319.946889" xmlns="http://www.w3.org/2000/svg" version="1.1">
 <metadata>
  <rdf:RDF xmlns:dc="http://purl.org/dc/elements/1.1/" xmlns:cc="http://creativecommons.org/ns#" xmlns:rdf="http://www.w3.org/1999/02/22-rdf-syntax-ns#">
   <cc:Work>
    <dc:type rdf:resource="http://purl.org/dc/dcmitype/StillImage"/>
    <dc:date>2025-05-26T16:51:48.446337</dc:date>
    <dc:format>image/svg+xml</dc:format>
    <dc:creator>
     <cc:Agent>
      <dc:title>Matplotlib v3.7.2, https://matplotlib.org/</dc:title>
     </cc:Agent>
    </dc:creator>
   </cc:Work>
  </rdf:RDF>
 </metadata>
 <defs>
  <style type="text/css">*{stroke-linejoin: round; stroke-linecap: butt}</style>
 </defs>
 <g id="figure_1">
  <g id="patch_1">
   <path d="M 0 319.946889 
L 442.905937 319.946889 
L 442.905937 -0 
L 0 -0 
z
" style="fill: #ffffff"/>
  </g>
  <g id="axes_1">
   <g id="patch_2">
    <path d="M 50.915938 254.615114 
L 427.715937 254.615114 
L 427.715937 30.045 
L 50.915938 30.045 
z
" style="fill: #ffffff"/>
   </g>
   <g id="PolyCollection_1">
    <defs>
     <path id="md45c22f372" d="M 102.925454 -78.65262 
L 74.266421 -78.65262 
L 72.570072 -80.648587 
L 70.845445 -82.644554 
L 69.122059 -84.640521 
L 67.431675 -86.636488 
L 65.807176 -88.632455 
L 64.28128 -90.628422 
L 62.885159 -92.624389 
L 61.647038 -94.620356 
L 60.590859 -96.616323 
L 59.735102 -98.61229 
L 59.091853 -100.608257 
L 58.666193 -102.604224 
L 58.455964 -104.600191 
L 58.451938 -106.596158 
L 58.638398 -108.592124 
L 58.994088 -110.588091 
L 59.493458 -112.584058 
L 60.108137 -114.580025 
L 60.808491 -116.575992 
L 61.565178 -118.571959 
L 62.350564 -120.567926 
L 63.139917 -122.563893 
L 63.912296 -124.55986 
L 64.651105 -126.555827 
L 65.344291 -128.551794 
L 65.984222 -130.547761 
L 66.567299 -132.543728 
L 67.093366 -134.539695 
L 67.565021 -136.535662 
L 67.986884 -138.531629 
L 68.364921 -140.527596 
L 68.705859 -142.523563 
L 69.01674 -144.519529 
L 69.304613 -146.515496 
L 69.576359 -148.511463 
L 69.838621 -150.50743 
L 70.097804 -152.503397 
L 70.360095 -154.499364 
L 70.63148 -156.495331 
L 70.917726 -158.491298 
L 71.224293 -160.487265 
L 71.55621 -162.483232 
L 71.91788 -164.479199 
L 72.312866 -166.475166 
L 72.743657 -168.471133 
L 73.211463 -170.4671 
L 73.716045 -172.463067 
L 74.255613 -174.459034 
L 74.826806 -176.455001 
L 75.424772 -178.450968 
L 76.043332 -180.446934 
L 76.675251 -182.442901 
L 77.312576 -184.438868 
L 77.947037 -186.434835 
L 78.570492 -188.430802 
L 79.175356 -190.426769 
L 79.755021 -192.422736 
L 80.304198 -194.418703 
L 80.819169 -196.41467 
L 81.297921 -198.410637 
L 81.740152 -200.406604 
L 82.147142 -202.402571 
L 82.521502 -204.398538 
L 82.86683 -206.394505 
L 83.187309 -208.390472 
L 83.487283 -210.386439 
L 83.770847 -212.382406 
L 84.041512 -214.378373 
L 84.301948 -216.374339 
L 84.553833 -218.370306 
L 84.797821 -220.366273 
L 85.03361 -222.36224 
L 85.260094 -224.358207 
L 85.475579 -226.354174 
L 85.678031 -228.350141 
L 85.865323 -230.346108 
L 86.035475 -232.342075 
L 86.186842 -234.338042 
L 86.318268 -236.334009 
L 86.429183 -238.329976 
L 86.519654 -240.325943 
L 86.590391 -242.32191 
L 86.642724 -244.317877 
L 86.67854 -246.313844 
L 86.700217 -248.309811 
L 86.710528 -250.305778 
L 86.712538 -252.301744 
L 86.709496 -254.297711 
L 86.704711 -256.293678 
L 86.701429 -258.289645 
L 86.702706 -260.285612 
L 86.711285 -262.281579 
L 86.729484 -264.277546 
L 86.759094 -266.273513 
L 86.801311 -268.26948 
L 86.856686 -270.265447 
L 86.925117 -272.261414 
L 87.005873 -274.257381 
L 87.097654 -276.253348 
L 90.094221 -276.253348 
L 90.094221 -276.253348 
L 90.186002 -274.257381 
L 90.266758 -272.261414 
L 90.335189 -270.265447 
L 90.390564 -268.26948 
L 90.432781 -266.273513 
L 90.462391 -264.277546 
L 90.48059 -262.281579 
L 90.489169 -260.285612 
L 90.490446 -258.289645 
L 90.487164 -256.293678 
L 90.482379 -254.297711 
L 90.479337 -252.301744 
L 90.481347 -250.305778 
L 90.491658 -248.309811 
L 90.513335 -246.313844 
L 90.549151 -244.317877 
L 90.601484 -242.32191 
L 90.672221 -240.325943 
L 90.762692 -238.329976 
L 90.873607 -236.334009 
L 91.005033 -234.338042 
L 91.1564 -232.342075 
L 91.326552 -230.346108 
L 91.513844 -228.350141 
L 91.716296 -226.354174 
L 91.931781 -224.358207 
L 92.158265 -222.36224 
L 92.394054 -220.366273 
L 92.638042 -218.370306 
L 92.889927 -216.374339 
L 93.150363 -214.378373 
L 93.421028 -212.382406 
L 93.704592 -210.386439 
L 94.004566 -208.390472 
L 94.325045 -206.394505 
L 94.670373 -204.398538 
L 95.044733 -202.402571 
L 95.451723 -200.406604 
L 95.893954 -198.410637 
L 96.372706 -196.41467 
L 96.887677 -194.418703 
L 97.436854 -192.422736 
L 98.016519 -190.426769 
L 98.621383 -188.430802 
L 99.244838 -186.434835 
L 99.879299 -184.438868 
L 100.516624 -182.442901 
L 101.148543 -180.446934 
L 101.767103 -178.450968 
L 102.365069 -176.455001 
L 102.936262 -174.459034 
L 103.47583 -172.463067 
L 103.980412 -170.4671 
L 104.448218 -168.471133 
L 104.879009 -166.475166 
L 105.273995 -164.479199 
L 105.635665 -162.483232 
L 105.967582 -160.487265 
L 106.274149 -158.491298 
L 106.560395 -156.495331 
L 106.83178 -154.499364 
L 107.094071 -152.503397 
L 107.353254 -150.50743 
L 107.615516 -148.511463 
L 107.887262 -146.515496 
L 108.175135 -144.519529 
L 108.486016 -142.523563 
L 108.826954 -140.527596 
L 109.204991 -138.531629 
L 109.626854 -136.535662 
L 110.098509 -134.539695 
L 110.624576 -132.543728 
L 111.207653 -130.547761 
L 111.847584 -128.551794 
L 112.54077 -126.555827 
L 113.279579 -124.55986 
L 114.051958 -122.563893 
L 114.841311 -120.567926 
L 115.626697 -118.571959 
L 116.383384 -116.575992 
L 117.083738 -114.580025 
L 117.698417 -112.584058 
L 118.197787 -110.588091 
L 118.553477 -108.592124 
L 118.739937 -106.596158 
L 118.735911 -104.600191 
L 118.525682 -102.604224 
L 118.100022 -100.608257 
L 117.456773 -98.61229 
L 116.601016 -96.616323 
L 115.544837 -94.620356 
L 114.306716 -92.624389 
L 112.910595 -90.628422 
L 111.384699 -88.632455 
L 109.7602 -86.636488 
L 108.069816 -84.640521 
L 106.34643 -82.644554 
L 104.621803 -80.648587 
L 102.925454 -78.65262 
z
" style="stroke: #000000; stroke-opacity: 0.7"/>
    </defs>
    <g clip-path="url(#pdf907c27e7)">
     <use xlink:href="#md45c22f372" x="0" y="319.946889" style="fill: #1f77b4; fill-opacity: 0.7; stroke: #000000; stroke-opacity: 0.7"/>
    </g>
   </g>
   <g id="PolyCollection_2">
    <defs>
     <path id="md0b8f1def6" d="M 174.453286 -75.539508 
L 153.458589 -75.539508 
L 152.348176 -77.237569 
L 151.21478 -78.935631 
L 150.067711 -80.633692 
L 148.915715 -82.331753 
L 147.766711 -84.029815 
L 146.627645 -85.727876 
L 145.504479 -87.425938 
L 144.4023 -89.123999 
L 143.325548 -90.822061 
L 142.278321 -92.520122 
L 141.264717 -94.218183 
L 140.289159 -95.916245 
L 139.356664 -97.614306 
L 138.473005 -99.312368 
L 137.644736 -101.010429 
L 136.879078 -102.708491 
L 136.183652 -104.406552 
L 135.566101 -106.104613 
L 135.033633 -107.802675 
L 134.59253 -109.500736 
L 134.247694 -111.198798 
L 134.002261 -112.896859 
L 133.857346 -114.594921 
L 133.811937 -116.292982 
L 133.862955 -117.991043 
L 134.005461 -119.689105 
L 134.233 -121.387166 
L 134.538034 -123.085228 
L 134.912409 -124.783289 
L 135.347823 -126.481351 
L 135.836227 -128.179412 
L 136.37014 -129.877473 
L 136.942846 -131.575535 
L 137.548465 -133.273596 
L 138.181912 -134.971658 
L 138.838762 -136.669719 
L 139.515057 -138.367781 
L 140.207088 -140.065842 
L 140.911188 -141.763903 
L 141.623582 -143.461965 
L 142.340289 -145.160026 
L 143.057117 -146.858088 
L 143.769729 -148.556149 
L 144.473773 -150.254211 
L 145.165058 -151.952272 
L 145.839746 -153.650333 
L 146.494525 -155.348395 
L 147.126754 -157.046456 
L 147.734546 -158.744518 
L 148.316783 -160.442579 
L 148.873071 -162.140641 
L 149.403626 -163.838702 
L 149.909131 -165.536763 
L 150.390564 -167.234825 
L 150.849034 -168.932886 
L 151.285642 -170.630948 
L 151.701387 -172.329009 
L 152.097115 -174.027071 
L 152.473532 -175.725132 
L 152.831258 -177.423193 
L 153.170915 -179.121255 
L 153.493225 -180.819316 
L 153.799116 -182.517378 
L 154.089786 -184.215439 
L 154.366744 -185.913501 
L 154.631792 -187.611562 
L 154.886969 -189.309624 
L 155.134441 -191.007685 
L 155.376375 -192.705746 
L 155.61479 -194.403808 
L 155.851417 -196.101869 
L 156.087585 -197.799931 
L 156.324144 -199.497992 
L 156.561433 -201.196054 
L 156.7993 -202.894115 
L 157.03717 -204.592176 
L 157.274148 -206.290238 
L 157.509144 -207.988299 
L 157.741012 -209.686361 
L 157.968674 -211.384422 
L 158.19123 -213.082484 
L 158.408037 -214.780545 
L 158.618754 -216.478606 
L 158.823348 -218.176668 
L 159.022076 -219.874729 
L 159.215437 -221.572791 
L 159.404117 -223.270852 
L 159.588916 -224.968914 
L 159.770688 -226.666975 
L 159.950283 -228.365036 
L 160.128493 -230.063098 
L 160.306021 -231.761159 
L 160.483454 -233.459221 
L 160.661234 -235.157282 
L 160.839653 -236.855344 
L 161.018834 -238.553405 
L 161.198722 -240.251466 
L 161.379073 -241.949528 
L 161.559452 -243.647589 
L 166.352423 -243.647589 
L 166.352423 -243.647589 
L 166.532802 -241.949528 
L 166.713153 -240.251466 
L 166.893041 -238.553405 
L 167.072222 -236.855344 
L 167.250641 -235.157282 
L 167.428421 -233.459221 
L 167.605854 -231.761159 
L 167.783382 -230.063098 
L 167.961592 -228.365036 
L 168.141187 -226.666975 
L 168.322959 -224.968914 
L 168.507758 -223.270852 
L 168.696438 -221.572791 
L 168.889799 -219.874729 
L 169.088527 -218.176668 
L 169.293121 -216.478606 
L 169.503838 -214.780545 
L 169.720645 -213.082484 
L 169.943201 -211.384422 
L 170.170863 -209.686361 
L 170.402731 -207.988299 
L 170.637727 -206.290238 
L 170.874705 -204.592176 
L 171.112575 -202.894115 
L 171.350442 -201.196054 
L 171.587731 -199.497992 
L 171.82429 -197.799931 
L 172.060458 -196.101869 
L 172.297085 -194.403808 
L 172.5355 -192.705746 
L 172.777434 -191.007685 
L 173.024906 -189.309624 
L 173.280083 -187.611562 
L 173.545131 -185.913501 
L 173.822089 -184.215439 
L 174.112759 -182.517378 
L 174.41865 -180.819316 
L 174.74096 -179.121255 
L 175.080617 -177.423193 
L 175.438343 -175.725132 
L 175.81476 -174.027071 
L 176.210488 -172.329009 
L 176.626233 -170.630948 
L 177.062841 -168.932886 
L 177.521311 -167.234825 
L 178.002744 -165.536763 
L 178.508249 -163.838702 
L 179.038804 -162.140641 
L 179.595092 -160.442579 
L 180.177329 -158.744518 
L 180.785121 -157.046456 
L 181.41735 -155.348395 
L 182.072129 -153.650333 
L 182.746817 -151.952272 
L 183.438102 -150.254211 
L 184.142146 -148.556149 
L 184.854758 -146.858088 
L 185.571586 -145.160026 
L 186.288293 -143.461965 
L 187.000687 -141.763903 
L 187.704787 -140.065842 
L 188.396818 -138.367781 
L 189.073113 -136.669719 
L 189.729963 -134.971658 
L 190.36341 -133.273596 
L 190.969029 -131.575535 
L 191.541735 -129.877473 
L 192.075648 -128.179412 
L 192.564052 -126.481351 
L 192.999466 -124.783289 
L 193.373841 -123.085228 
L 193.678875 -121.387166 
L 193.906414 -119.689105 
L 194.04892 -117.991043 
L 194.099938 -116.292982 
L 194.054529 -114.594921 
L 193.909614 -112.896859 
L 193.664181 -111.198798 
L 193.319345 -109.500736 
L 192.878242 -107.802675 
L 192.345774 -106.104613 
L 191.728223 -104.406552 
L 191.032797 -102.708491 
L 190.267139 -101.010429 
L 189.43887 -99.312368 
L 188.555211 -97.614306 
L 187.622716 -95.916245 
L 186.647158 -94.218183 
L 185.633554 -92.520122 
L 184.586327 -90.822061 
L 183.509575 -89.123999 
L 182.407396 -87.425938 
L 181.28423 -85.727876 
L 180.145164 -84.029815 
L 178.99616 -82.331753 
L 177.844164 -80.633692 
L 176.697095 -78.935631 
L 175.563699 -77.237569 
L 174.453286 -75.539508 
z
" style="stroke: #000000; stroke-opacity: 0.7"/>
    </defs>
    <g clip-path="url(#pdf907c27e7)">
     <use xlink:href="#md0b8f1def6" x="0" y="319.946889" style="fill: #7f7f7f; fill-opacity: 0.7; stroke: #000000; stroke-opacity: 0.7"/>
    </g>
   </g>
   <g id="PolyCollection_3">
    <defs>
     <path id="m6fa61a97e0" d="M 253.344652 -79.47186 
L 225.287223 -79.47186 
L 223.958455 -81.252673 
L 222.626477 -83.033486 
L 221.304411 -84.814299 
L 220.004672 -86.595112 
L 218.738749 -88.375925 
L 217.517107 -90.156738 
L 216.3492 -91.937551 
L 215.243587 -93.718364 
L 214.20811 -95.499177 
L 213.250105 -97.27999 
L 212.376596 -99.060803 
L 211.59443 -100.841616 
L 210.91033 -102.622429 
L 210.330844 -104.403242 
L 209.862177 -106.184055 
L 209.509927 -107.964868 
L 209.278742 -109.745681 
L 209.171938 -111.526494 
L 209.19112 -113.307307 
L 209.335842 -115.08812 
L 209.603349 -116.868933 
L 209.988425 -118.649746 
L 210.483374 -120.430559 
L 211.078129 -122.211372 
L 211.760484 -123.992185 
L 212.516437 -125.772997 
L 213.330611 -127.55381 
L 214.186733 -129.334623 
L 215.06813 -131.115436 
L 215.958227 -132.896249 
L 216.841019 -134.677062 
L 217.701495 -136.457875 
L 218.526023 -138.238688 
L 219.302663 -140.019501 
L 220.021428 -141.800314 
L 220.674484 -143.581127 
L 221.256295 -145.36194 
L 221.763707 -147.142753 
L 222.195974 -148.923566 
L 222.554721 -150.704379 
L 222.843848 -152.485192 
L 223.069362 -154.266005 
L 223.239135 -156.046818 
L 223.362606 -157.827631 
L 223.450403 -159.608444 
L 223.513922 -161.389257 
L 223.564865 -163.17007 
L 223.614755 -164.950883 
L 223.674461 -166.731696 
L 223.753748 -168.512509 
L 223.860894 -170.293322 
L 224.002379 -172.074134 
L 224.182687 -173.854947 
L 224.404214 -175.63576 
L 224.667307 -177.416573 
L 224.97042 -179.197386 
L 225.310374 -180.978199 
L 225.6827 -182.759012 
L 226.082048 -184.539825 
L 226.502608 -186.320638 
L 226.93853 -188.101451 
L 227.384298 -189.882264 
L 227.835036 -191.663077 
L 228.286715 -193.44389 
L 228.736274 -195.224703 
L 229.181621 -197.005516 
L 229.621553 -198.786329 
L 230.05559 -200.567142 
L 230.483761 -202.347955 
L 230.906365 -204.128768 
L 231.323728 -205.909581 
L 231.735995 -207.690394 
L 232.142963 -209.471207 
L 232.543981 -211.25202 
L 232.937909 -213.032833 
L 233.323152 -214.813646 
L 233.697743 -216.594459 
L 234.059471 -218.375272 
L 234.406042 -220.156084 
L 234.735242 -221.936897 
L 235.045099 -223.71771 
L 235.334021 -225.498523 
L 235.60091 -227.279336 
L 235.845235 -229.060149 
L 236.067062 -230.840962 
L 236.267059 -232.621775 
L 236.446449 -234.402588 
L 236.606949 -236.183401 
L 236.750678 -237.964214 
L 236.880044 -239.745027 
L 236.997634 -241.52584 
L 237.106088 -243.306653 
L 237.207981 -245.087466 
L 237.305715 -246.868279 
L 237.401416 -248.649092 
L 237.496858 -250.429905 
L 237.593401 -252.210718 
L 237.69196 -253.991531 
L 237.792988 -255.772344 
L 240.838887 -255.772344 
L 240.838887 -255.772344 
L 240.939915 -253.991531 
L 241.038474 -252.210718 
L 241.135017 -250.429905 
L 241.230459 -248.649092 
L 241.32616 -246.868279 
L 241.423894 -245.087466 
L 241.525787 -243.306653 
L 241.634241 -241.52584 
L 241.751831 -239.745027 
L 241.881197 -237.964214 
L 242.024926 -236.183401 
L 242.185426 -234.402588 
L 242.364816 -232.621775 
L 242.564813 -230.840962 
L 242.78664 -229.060149 
L 243.030965 -227.279336 
L 243.297854 -225.498523 
L 243.586776 -223.71771 
L 243.896633 -221.936897 
L 244.225833 -220.156084 
L 244.572404 -218.375272 
L 244.934132 -216.594459 
L 245.308723 -214.813646 
L 245.693966 -213.032833 
L 246.087894 -211.25202 
L 246.488912 -209.471207 
L 246.89588 -207.690394 
L 247.308147 -205.909581 
L 247.72551 -204.128768 
L 248.148114 -202.347955 
L 248.576285 -200.567142 
L 249.010322 -198.786329 
L 249.450254 -197.005516 
L 249.895601 -195.224703 
L 250.34516 -193.44389 
L 250.796839 -191.663077 
L 251.247577 -189.882264 
L 251.693345 -188.101451 
L 252.129267 -186.320638 
L 252.549827 -184.539825 
L 252.949175 -182.759012 
L 253.321501 -180.978199 
L 253.661455 -179.197386 
L 253.964568 -177.416573 
L 254.227661 -175.63576 
L 254.449188 -173.854947 
L 254.629496 -172.074134 
L 254.770981 -170.293322 
L 254.878127 -168.512509 
L 254.957414 -166.731696 
L 255.01712 -164.950883 
L 255.06701 -163.17007 
L 255.117953 -161.389257 
L 255.181472 -159.608444 
L 255.269269 -157.827631 
L 255.39274 -156.046818 
L 255.562513 -154.266005 
L 255.788027 -152.485192 
L 256.077154 -150.704379 
L 256.435901 -148.923566 
L 256.868168 -147.142753 
L 257.37558 -145.36194 
L 257.957391 -143.581127 
L 258.610447 -141.800314 
L 259.329212 -140.019501 
L 260.105852 -138.238688 
L 260.93038 -136.457875 
L 261.790856 -134.677062 
L 262.673648 -132.896249 
L 263.563745 -131.115436 
L 264.445142 -129.334623 
L 265.301264 -127.55381 
L 266.115438 -125.772997 
L 266.871391 -123.992185 
L 267.553746 -122.211372 
L 268.148501 -120.430559 
L 268.64345 -118.649746 
L 269.028526 -116.868933 
L 269.296033 -115.08812 
L 269.440755 -113.307307 
L 269.459938 -111.526494 
L 269.353133 -109.745681 
L 269.121948 -107.964868 
L 268.769698 -106.184055 
L 268.301031 -104.403242 
L 267.721545 -102.622429 
L 267.037445 -100.841616 
L 266.255279 -99.060803 
L 265.38177 -97.27999 
L 264.423765 -95.499177 
L 263.388288 -93.718364 
L 262.282675 -91.937551 
L 261.114768 -90.156738 
L 259.893126 -88.375925 
L 258.627203 -86.595112 
L 257.327464 -84.814299 
L 256.005398 -83.033486 
L 254.67342 -81.252673 
L 253.344652 -79.47186 
z
" style="stroke: #000000; stroke-opacity: 0.7"/>
    </defs>
    <g clip-path="url(#pdf907c27e7)">
     <use xlink:href="#m6fa61a97e0" x="0" y="319.946889" style="fill: #8da0cb; fill-opacity: 0.7; stroke: #000000; stroke-opacity: 0.7"/>
    </g>
   </g>
   <g id="PolyCollection_4">
    <defs>
     <path id="m5e3d59bbdc" d="M 324.997279 -75.539508 
L 304.354596 -75.539508 
L 303.171816 -77.058826 
L 301.94396 -78.578144 
L 300.681337 -80.097462 
L 299.395258 -81.61678 
L 298.097823 -83.136098 
L 296.801683 -84.655416 
L 295.519799 -86.174735 
L 294.265177 -87.694053 
L 293.050597 -89.213371 
L 291.888325 -90.732689 
L 290.789817 -92.252007 
L 289.765417 -93.771325 
L 288.824063 -95.290643 
L 287.973002 -96.809961 
L 287.217542 -98.32928 
L 286.560859 -99.848598 
L 286.003866 -101.367916 
L 285.545183 -102.887234 
L 285.18121 -104.406552 
L 284.906301 -105.92587 
L 284.713061 -107.445188 
L 284.59274 -108.964506 
L 284.535698 -110.483824 
L 284.531938 -112.003143 
L 284.571645 -113.522461 
L 284.64572 -115.041779 
L 284.746249 -116.561097 
L 284.866903 -118.080415 
L 285.003222 -119.599733 
L 285.152769 -121.119051 
L 285.31516 -122.638369 
L 285.491953 -124.157688 
L 285.686414 -125.677006 
L 285.903187 -127.196324 
L 286.147873 -128.715642 
L 286.426555 -130.23496 
L 286.745312 -131.754278 
L 287.109724 -133.273596 
L 287.524426 -134.792914 
L 287.992724 -136.312233 
L 288.516288 -137.831551 
L 289.094966 -139.350869 
L 289.726689 -140.870187 
L 290.407512 -142.389505 
L 291.131754 -143.908823 
L 291.892233 -145.428141 
L 292.680589 -146.947459 
L 293.487653 -148.466778 
L 294.30384 -149.986096 
L 295.11955 -151.505414 
L 295.925535 -153.024732 
L 296.713221 -154.54405 
L 297.474973 -156.063368 
L 298.204287 -157.582686 
L 298.895916 -159.102004 
L 299.545928 -160.621323 
L 300.151715 -162.140641 
L 300.711954 -163.659959 
L 301.226537 -165.179277 
L 301.696474 -166.698595 
L 302.123784 -168.217913 
L 302.511368 -169.737231 
L 302.862871 -171.256549 
L 303.182524 -172.775867 
L 303.474981 -174.295186 
L 303.745131 -175.814504 
L 303.997908 -177.333822 
L 304.238094 -178.85314 
L 304.47013 -180.372458 
L 304.697946 -181.891776 
L 304.924828 -183.411094 
L 305.153324 -184.930412 
L 305.385205 -186.449731 
L 305.621484 -187.969049 
L 305.862485 -189.488367 
L 306.107963 -191.007685 
L 306.357252 -192.527003 
L 306.609437 -194.046321 
L 306.863514 -195.565639 
L 307.118551 -197.084957 
L 307.373799 -198.604276 
L 307.628779 -200.123594 
L 307.883313 -201.642912 
L 308.13752 -203.16223 
L 308.391767 -204.681548 
L 308.646598 -206.200866 
L 308.902639 -207.720184 
L 309.160501 -209.239502 
L 309.420683 -210.758821 
L 309.683496 -212.278139 
L 309.948994 -213.797457 
L 310.216943 -215.316775 
L 310.486802 -216.836093 
L 310.757728 -218.355411 
L 311.02861 -219.874729 
L 311.298103 -221.394047 
L 311.564685 -222.913366 
L 311.826718 -224.432684 
L 312.082506 -225.952002 
L 317.269369 -225.952002 
L 317.269369 -225.952002 
L 317.525157 -224.432684 
L 317.78719 -222.913366 
L 318.053772 -221.394047 
L 318.323265 -219.874729 
L 318.594147 -218.355411 
L 318.865073 -216.836093 
L 319.134932 -215.316775 
L 319.402881 -213.797457 
L 319.668379 -212.278139 
L 319.931192 -210.758821 
L 320.191374 -209.239502 
L 320.449236 -207.720184 
L 320.705277 -206.200866 
L 320.960108 -204.681548 
L 321.214355 -203.16223 
L 321.468562 -201.642912 
L 321.723096 -200.123594 
L 321.978076 -198.604276 
L 322.233324 -197.084957 
L 322.488361 -195.565639 
L 322.742438 -194.046321 
L 322.994623 -192.527003 
L 323.243912 -191.007685 
L 323.48939 -189.488367 
L 323.730391 -187.969049 
L 323.96667 -186.449731 
L 324.198551 -184.930412 
L 324.427047 -183.411094 
L 324.653929 -181.891776 
L 324.881745 -180.372458 
L 325.113781 -178.85314 
L 325.353967 -177.333822 
L 325.606744 -175.814504 
L 325.876894 -174.295186 
L 326.169351 -172.775867 
L 326.489004 -171.256549 
L 326.840507 -169.737231 
L 327.228091 -168.217913 
L 327.655401 -166.698595 
L 328.125338 -165.179277 
L 328.639921 -163.659959 
L 329.20016 -162.140641 
L 329.805947 -160.621323 
L 330.455959 -159.102004 
L 331.147588 -157.582686 
L 331.876902 -156.063368 
L 332.638654 -154.54405 
L 333.42634 -153.024732 
L 334.232325 -151.505414 
L 335.048035 -149.986096 
L 335.864222 -148.466778 
L 336.671286 -146.947459 
L 337.459642 -145.428141 
L 338.220121 -143.908823 
L 338.944363 -142.389505 
L 339.625186 -140.870187 
L 340.256909 -139.350869 
L 340.835587 -137.831551 
L 341.359151 -136.312233 
L 341.827449 -134.792914 
L 342.242151 -133.273596 
L 342.606563 -131.754278 
L 342.92532 -130.23496 
L 343.204002 -128.715642 
L 343.448688 -127.196324 
L 343.665461 -125.677006 
L 343.859922 -124.157688 
L 344.036715 -122.638369 
L 344.199106 -121.119051 
L 344.348653 -119.599733 
L 344.484972 -118.080415 
L 344.605626 -116.561097 
L 344.706155 -115.041779 
L 344.78023 -113.522461 
L 344.819938 -112.003143 
L 344.816177 -110.483824 
L 344.759135 -108.964506 
L 344.638814 -107.445188 
L 344.445574 -105.92587 
L 344.170665 -104.406552 
L 343.806692 -102.887234 
L 343.348009 -101.367916 
L 342.791016 -99.848598 
L 342.134333 -98.32928 
L 341.378873 -96.809961 
L 340.527812 -95.290643 
L 339.586458 -93.771325 
L 338.562058 -92.252007 
L 337.46355 -90.732689 
L 336.301278 -89.213371 
L 335.086698 -87.694053 
L 333.832076 -86.174735 
L 332.550192 -84.655416 
L 331.254052 -83.136098 
L 329.956617 -81.61678 
L 328.670538 -80.097462 
L 327.407915 -78.578144 
L 326.180059 -77.058826 
L 324.997279 -75.539508 
z
" style="stroke: #000000; stroke-opacity: 0.7"/>
    </defs>
    <g clip-path="url(#pdf907c27e7)">
     <use xlink:href="#m5e3d59bbdc" x="0" y="319.946889" style="fill: #dbdb8d; fill-opacity: 0.7; stroke: #000000; stroke-opacity: 0.7"/>
    </g>
   </g>
   <g id="PolyCollection_5">
    <defs>
     <path id="m4c48a327fe" d="M 404.924962 -77.83338 
L 375.146913 -77.83338 
L 373.542054 -79.872378 
L 371.935652 -81.911376 
L 370.353733 -83.950373 
L 368.822244 -85.989371 
L 367.36596 -88.028369 
L 366.007428 -90.067367 
L 364.766011 -92.106364 
L 363.657092 -94.145362 
L 362.691507 -96.18436 
L 361.875241 -98.223358 
L 361.209415 -100.262355 
L 360.69056 -102.301353 
L 360.311173 -104.340351 
L 360.060506 -106.379349 
L 359.925518 -108.418346 
L 359.891937 -110.457344 
L 359.945329 -112.496342 
L 360.072081 -114.535339 
L 360.260244 -116.574337 
L 360.500139 -118.613335 
L 360.784709 -120.652333 
L 361.109578 -122.69133 
L 361.472854 -124.730328 
L 361.874688 -126.769326 
L 362.316685 -128.808324 
L 362.801206 -130.847321 
L 363.330681 -132.886319 
L 363.906975 -134.925317 
L 364.5309 -136.964315 
L 365.201886 -139.003312 
L 365.917843 -141.04231 
L 366.6752 -143.081308 
L 367.469092 -145.120306 
L 368.293636 -147.159303 
L 369.142266 -149.198301 
L 370.008055 -151.237299 
L 370.884 -153.276297 
L 371.763223 -155.315294 
L 372.639104 -157.354292 
L 373.505332 -159.39329 
L 374.355897 -161.432288 
L 375.185058 -163.471285 
L 375.987317 -165.510283 
L 376.757414 -167.549281 
L 377.490377 -169.588278 
L 378.181619 -171.627276 
L 378.827101 -173.666274 
L 379.423516 -175.705272 
L 379.968502 -177.744269 
L 380.460837 -179.783267 
L 380.900597 -181.822265 
L 381.289251 -183.861263 
L 381.62968 -185.90026 
L 381.926102 -187.939258 
L 382.183913 -189.978256 
L 382.409445 -192.017254 
L 382.609665 -194.056251 
L 382.791831 -196.095249 
L 382.963127 -198.134247 
L 383.130314 -200.173245 
L 383.299404 -202.212242 
L 383.47539 -204.25124 
L 383.662043 -206.290238 
L 383.861785 -208.329236 
L 384.075641 -210.368233 
L 384.303273 -212.407231 
L 384.543091 -214.446229 
L 384.792428 -216.485227 
L 385.047762 -218.524224 
L 385.304988 -220.563222 
L 385.559691 -222.60222 
L 385.807439 -224.641217 
L 386.044046 -226.680215 
L 386.265813 -228.719213 
L 386.469723 -230.758211 
L 386.653578 -232.797208 
L 386.816081 -234.836206 
L 386.956861 -236.875204 
L 387.076437 -238.914202 
L 387.176133 -240.953199 
L 387.257962 -242.992197 
L 387.324479 -245.031195 
L 387.378618 -247.070193 
L 387.423534 -249.10919 
L 387.462444 -251.148188 
L 387.498495 -253.187186 
L 387.534636 -255.226184 
L 387.573526 -257.265181 
L 387.617455 -259.304179 
L 387.668295 -261.343177 
L 387.727462 -263.382175 
L 387.795897 -265.421172 
L 387.874075 -267.46017 
L 387.962009 -269.499168 
L 388.059284 -271.538166 
L 388.165092 -273.577163 
L 388.278287 -275.616161 
L 388.397442 -277.655159 
L 388.520917 -279.694156 
L 391.550958 -279.694156 
L 391.550958 -279.694156 
L 391.674433 -277.655159 
L 391.793588 -275.616161 
L 391.906783 -273.577163 
L 392.012591 -271.538166 
L 392.109866 -269.499168 
L 392.1978 -267.46017 
L 392.275978 -265.421172 
L 392.344413 -263.382175 
L 392.40358 -261.343177 
L 392.45442 -259.304179 
L 392.498349 -257.265181 
L 392.537239 -255.226184 
L 392.57338 -253.187186 
L 392.609431 -251.148188 
L 392.648341 -249.10919 
L 392.693257 -247.070193 
L 392.747396 -245.031195 
L 392.813913 -242.992197 
L 392.895742 -240.953199 
L 392.995438 -238.914202 
L 393.115014 -236.875204 
L 393.255794 -234.836206 
L 393.418297 -232.797208 
L 393.602152 -230.758211 
L 393.806062 -228.719213 
L 394.027829 -226.680215 
L 394.264436 -224.641217 
L 394.512184 -222.60222 
L 394.766887 -220.563222 
L 395.024113 -218.524224 
L 395.279447 -216.485227 
L 395.528784 -214.446229 
L 395.768602 -212.407231 
L 395.996234 -210.368233 
L 396.21009 -208.329236 
L 396.409832 -206.290238 
L 396.596485 -204.25124 
L 396.772471 -202.212242 
L 396.941561 -200.173245 
L 397.108748 -198.134247 
L 397.280044 -196.095249 
L 397.46221 -194.056251 
L 397.66243 -192.017254 
L 397.887962 -189.978256 
L 398.145773 -187.939258 
L 398.442195 -185.90026 
L 398.782624 -183.861263 
L 399.171278 -181.822265 
L 399.611038 -179.783267 
L 400.103373 -177.744269 
L 400.648359 -175.705272 
L 401.244774 -173.666274 
L 401.890256 -171.627276 
L 402.581498 -169.588278 
L 403.314461 -167.549281 
L 404.084558 -165.510283 
L 404.886817 -163.471285 
L 405.715978 -161.432288 
L 406.566543 -159.39329 
L 407.432771 -157.354292 
L 408.308652 -155.315294 
L 409.187875 -153.276297 
L 410.06382 -151.237299 
L 410.929609 -149.198301 
L 411.778239 -147.159303 
L 412.602783 -145.120306 
L 413.396675 -143.081308 
L 414.154032 -141.04231 
L 414.869989 -139.003312 
L 415.540975 -136.964315 
L 416.1649 -134.925317 
L 416.741194 -132.886319 
L 417.270669 -130.847321 
L 417.75519 -128.808324 
L 418.197187 -126.769326 
L 418.599021 -124.730328 
L 418.962297 -122.69133 
L 419.287166 -120.652333 
L 419.571736 -118.613335 
L 419.811631 -116.574337 
L 419.999794 -114.535339 
L 420.126546 -112.496342 
L 420.179938 -110.457344 
L 420.146357 -108.418346 
L 420.011369 -106.379349 
L 419.760702 -104.340351 
L 419.381315 -102.301353 
L 418.86246 -100.262355 
L 418.196634 -98.223358 
L 417.380368 -96.18436 
L 416.414783 -94.145362 
L 415.305864 -92.106364 
L 414.064447 -90.067367 
L 412.705915 -88.028369 
L 411.249631 -85.989371 
L 409.718142 -83.950373 
L 408.136223 -81.911376 
L 406.529821 -79.872378 
L 404.924962 -77.83338 
z
" style="stroke: #000000; stroke-opacity: 0.7"/>
    </defs>
    <g clip-path="url(#pdf907c27e7)">
     <use xlink:href="#m4c48a327fe" x="0" y="319.946889" style="fill: #b3b3b3; fill-opacity: 0.7; stroke: #000000; stroke-opacity: 0.7"/>
    </g>
   </g>
   <g id="matplotlib.axis_1">
    <g id="xtick_1">
     <g id="line2d_1">
      <defs>
       <path id="m808ffb9aa2" d="M 0 0 
L 0 3.5 
" style="stroke: #000000; stroke-width: 0.8"/>
      </defs>
      <g>
       <use xlink:href="#m808ffb9aa2" x="88.595938" y="254.615114" style="stroke: #000000; stroke-width: 0.8"/>
      </g>
     </g>
     <g id="text_1">
      <!-- Farmhouse -->
      <g transform="translate(49.073088 305.214876) rotate(-45) scale(0.12 -0.12)">
       <defs>
        <path id="TimesNewRomanPSMT-46" d="M 1309 4006 
L 1309 2341 
L 2081 2341 
Q 2347 2341 2470 2458 
Q 2594 2575 2634 2922 
L 2750 2922 
L 2750 1488 
L 2634 1488 
Q 2631 1734 2570 1850 
Q 2509 1966 2401 2023 
Q 2294 2081 2081 2081 
L 1309 2081 
L 1309 750 
Q 1309 428 1350 325 
Q 1381 247 1481 191 
Q 1619 116 1769 116 
L 1922 116 
L 1922 0 
L 103 0 
L 103 116 
L 253 116 
Q 516 116 634 269 
Q 709 369 709 750 
L 709 3488 
Q 709 3809 669 3913 
Q 638 3991 541 4047 
Q 406 4122 253 4122 
L 103 4122 
L 103 4238 
L 3256 4238 
L 3297 3306 
L 3188 3306 
Q 3106 3603 2998 3742 
Q 2891 3881 2733 3943 
Q 2575 4006 2244 4006 
L 1309 4006 
z
" transform="scale(0.015625)"/>
        <path id="TimesNewRomanPSMT-61" d="M 1822 413 
Q 1381 72 1269 19 
Q 1100 -59 909 -59 
Q 613 -59 420 144 
Q 228 347 228 678 
Q 228 888 322 1041 
Q 450 1253 767 1440 
Q 1084 1628 1822 1897 
L 1822 2009 
Q 1822 2438 1686 2597 
Q 1550 2756 1291 2756 
Q 1094 2756 978 2650 
Q 859 2544 859 2406 
L 866 2225 
Q 866 2081 792 2003 
Q 719 1925 600 1925 
Q 484 1925 411 2006 
Q 338 2088 338 2228 
Q 338 2497 613 2722 
Q 888 2947 1384 2947 
Q 1766 2947 2009 2819 
Q 2194 2722 2281 2516 
Q 2338 2381 2338 1966 
L 2338 994 
Q 2338 584 2353 492 
Q 2369 400 2405 369 
Q 2441 338 2488 338 
Q 2538 338 2575 359 
Q 2641 400 2828 588 
L 2828 413 
Q 2478 -56 2159 -56 
Q 2006 -56 1915 50 
Q 1825 156 1822 413 
z
M 1822 616 
L 1822 1706 
Q 1350 1519 1213 1441 
Q 966 1303 859 1153 
Q 753 1003 753 825 
Q 753 600 887 451 
Q 1022 303 1197 303 
Q 1434 303 1822 616 
z
" transform="scale(0.015625)"/>
        <path id="TimesNewRomanPSMT-72" d="M 1038 2947 
L 1038 2303 
Q 1397 2947 1775 2947 
Q 1947 2947 2059 2842 
Q 2172 2738 2172 2600 
Q 2172 2478 2090 2393 
Q 2009 2309 1897 2309 
Q 1788 2309 1652 2417 
Q 1516 2525 1450 2525 
Q 1394 2525 1328 2463 
Q 1188 2334 1038 2041 
L 1038 669 
Q 1038 431 1097 309 
Q 1138 225 1241 169 
Q 1344 113 1538 113 
L 1538 0 
L 72 0 
L 72 113 
Q 291 113 397 181 
Q 475 231 506 341 
Q 522 394 522 644 
L 522 1753 
Q 522 2253 501 2348 
Q 481 2444 426 2487 
Q 372 2531 291 2531 
Q 194 2531 72 2484 
L 41 2597 
L 906 2947 
L 1038 2947 
z
" transform="scale(0.015625)"/>
        <path id="TimesNewRomanPSMT-6d" d="M 1050 2338 
Q 1363 2650 1419 2697 
Q 1559 2816 1721 2881 
Q 1884 2947 2044 2947 
Q 2313 2947 2506 2790 
Q 2700 2634 2766 2338 
Q 3088 2713 3309 2830 
Q 3531 2947 3766 2947 
Q 3994 2947 4170 2830 
Q 4347 2713 4450 2447 
Q 4519 2266 4519 1878 
L 4519 647 
Q 4519 378 4559 278 
Q 4591 209 4675 161 
Q 4759 113 4950 113 
L 4950 0 
L 3538 0 
L 3538 113 
L 3597 113 
Q 3781 113 3884 184 
Q 3956 234 3988 344 
Q 4000 397 4000 647 
L 4000 1878 
Q 4000 2228 3916 2372 
Q 3794 2572 3525 2572 
Q 3359 2572 3192 2489 
Q 3025 2406 2788 2181 
L 2781 2147 
L 2788 2013 
L 2788 647 
Q 2788 353 2820 281 
Q 2853 209 2943 161 
Q 3034 113 3253 113 
L 3253 0 
L 1806 0 
L 1806 113 
Q 2044 113 2133 169 
Q 2222 225 2256 338 
Q 2272 391 2272 647 
L 2272 1878 
Q 2272 2228 2169 2381 
Q 2031 2581 1784 2581 
Q 1616 2581 1450 2491 
Q 1191 2353 1050 2181 
L 1050 647 
Q 1050 366 1089 281 
Q 1128 197 1204 155 
Q 1281 113 1516 113 
L 1516 0 
L 100 0 
L 100 113 
Q 297 113 375 155 
Q 453 197 493 289 
Q 534 381 534 647 
L 534 1741 
Q 534 2213 506 2350 
Q 484 2453 437 2492 
Q 391 2531 309 2531 
Q 222 2531 100 2484 
L 53 2597 
L 916 2947 
L 1050 2947 
L 1050 2338 
z
" transform="scale(0.015625)"/>
        <path id="TimesNewRomanPSMT-68" d="M 1041 4444 
L 1041 2350 
Q 1388 2731 1591 2839 
Q 1794 2947 1997 2947 
Q 2241 2947 2416 2812 
Q 2591 2678 2675 2391 
Q 2734 2191 2734 1659 
L 2734 647 
Q 2734 375 2778 275 
Q 2809 200 2884 156 
Q 2959 113 3159 113 
L 3159 0 
L 1753 0 
L 1753 113 
L 1819 113 
Q 2019 113 2097 173 
Q 2175 234 2206 353 
Q 2216 403 2216 647 
L 2216 1659 
Q 2216 2128 2167 2275 
Q 2119 2422 2012 2495 
Q 1906 2569 1756 2569 
Q 1603 2569 1437 2487 
Q 1272 2406 1041 2159 
L 1041 647 
Q 1041 353 1073 281 
Q 1106 209 1195 161 
Q 1284 113 1503 113 
L 1503 0 
L 84 0 
L 84 113 
Q 275 113 384 172 
Q 447 203 484 290 
Q 522 378 522 647 
L 522 3238 
Q 522 3728 498 3840 
Q 475 3953 426 3993 
Q 378 4034 297 4034 
Q 231 4034 84 3984 
L 41 4094 
L 897 4444 
L 1041 4444 
z
" transform="scale(0.015625)"/>
        <path id="TimesNewRomanPSMT-6f" d="M 1600 2947 
Q 2250 2947 2644 2453 
Q 2978 2031 2978 1484 
Q 2978 1100 2793 706 
Q 2609 313 2286 112 
Q 1963 -88 1566 -88 
Q 919 -88 538 428 
Q 216 863 216 1403 
Q 216 1797 411 2186 
Q 606 2575 925 2761 
Q 1244 2947 1600 2947 
z
M 1503 2744 
Q 1338 2744 1170 2645 
Q 1003 2547 900 2300 
Q 797 2053 797 1666 
Q 797 1041 1045 587 
Q 1294 134 1700 134 
Q 2003 134 2200 384 
Q 2397 634 2397 1244 
Q 2397 2006 2069 2444 
Q 1847 2744 1503 2744 
z
" transform="scale(0.015625)"/>
        <path id="TimesNewRomanPSMT-75" d="M 2709 2863 
L 2709 1128 
Q 2709 631 2732 520 
Q 2756 409 2807 365 
Q 2859 322 2928 322 
Q 3025 322 3147 375 
L 3191 266 
L 2334 -88 
L 2194 -88 
L 2194 519 
Q 1825 119 1631 15 
Q 1438 -88 1222 -88 
Q 981 -88 804 51 
Q 628 191 559 409 
Q 491 628 491 1028 
L 491 2306 
Q 491 2509 447 2587 
Q 403 2666 317 2708 
Q 231 2750 6 2747 
L 6 2863 
L 1009 2863 
L 1009 947 
Q 1009 547 1148 422 
Q 1288 297 1484 297 
Q 1619 297 1789 381 
Q 1959 466 2194 703 
L 2194 2325 
Q 2194 2569 2105 2655 
Q 2016 2741 1734 2747 
L 1734 2863 
L 2709 2863 
z
" transform="scale(0.015625)"/>
        <path id="TimesNewRomanPSMT-73" d="M 2050 2947 
L 2050 1972 
L 1947 1972 
Q 1828 2431 1642 2597 
Q 1456 2763 1169 2763 
Q 950 2763 815 2647 
Q 681 2531 681 2391 
Q 681 2216 781 2091 
Q 878 1963 1175 1819 
L 1631 1597 
Q 2266 1288 2266 781 
Q 2266 391 1970 151 
Q 1675 -88 1309 -88 
Q 1047 -88 709 6 
Q 606 38 541 38 
Q 469 38 428 -44 
L 325 -44 
L 325 978 
L 428 978 
Q 516 541 762 319 
Q 1009 97 1316 97 
Q 1531 97 1667 223 
Q 1803 350 1803 528 
Q 1803 744 1651 891 
Q 1500 1038 1047 1263 
Q 594 1488 453 1669 
Q 313 1847 313 2119 
Q 313 2472 555 2709 
Q 797 2947 1181 2947 
Q 1350 2947 1591 2875 
Q 1750 2828 1803 2828 
Q 1853 2828 1881 2850 
Q 1909 2872 1947 2947 
L 2050 2947 
z
" transform="scale(0.015625)"/>
        <path id="TimesNewRomanPSMT-65" d="M 681 1784 
Q 678 1147 991 784 
Q 1303 422 1725 422 
Q 2006 422 2214 576 
Q 2422 731 2563 1106 
L 2659 1044 
Q 2594 616 2278 264 
Q 1963 -88 1488 -88 
Q 972 -88 605 314 
Q 238 716 238 1394 
Q 238 2128 614 2539 
Q 991 2950 1559 2950 
Q 2041 2950 2350 2633 
Q 2659 2316 2659 1784 
L 681 1784 
z
M 681 1966 
L 2006 1966 
Q 1991 2241 1941 2353 
Q 1863 2528 1708 2628 
Q 1553 2728 1384 2728 
Q 1125 2728 920 2526 
Q 716 2325 681 1966 
z
" transform="scale(0.015625)"/>
       </defs>
       <use xlink:href="#TimesNewRomanPSMT-46"/>
       <use xlink:href="#TimesNewRomanPSMT-61" x="55.615234"/>
       <use xlink:href="#TimesNewRomanPSMT-72" x="100"/>
       <use xlink:href="#TimesNewRomanPSMT-6d" x="133.300781"/>
       <use xlink:href="#TimesNewRomanPSMT-68" x="211.083984"/>
       <use xlink:href="#TimesNewRomanPSMT-6f" x="261.083984"/>
       <use xlink:href="#TimesNewRomanPSMT-75" x="311.083984"/>
       <use xlink:href="#TimesNewRomanPSMT-73" x="361.083984"/>
       <use xlink:href="#TimesNewRomanPSMT-65" x="400"/>
      </g>
     </g>
    </g>
    <g id="xtick_2">
     <g id="line2d_2">
      <g>
       <use xlink:href="#m808ffb9aa2" x="163.955938" y="254.615114" style="stroke: #000000; stroke-width: 0.8"/>
      </g>
     </g>
     <g id="text_2">
      <!-- Luxury Villa -->
      <g transform="translate(118.71613 310.915924) rotate(-45) scale(0.12 -0.12)">
       <defs>
        <path id="TimesNewRomanPSMT-4c" d="M 3669 1172 
L 3772 1150 
L 3409 0 
L 128 0 
L 128 116 
L 288 116 
Q 556 116 672 291 
Q 738 391 738 753 
L 738 3488 
Q 738 3884 650 3984 
Q 528 4122 288 4122 
L 128 4122 
L 128 4238 
L 2047 4238 
L 2047 4122 
Q 1709 4125 1573 4059 
Q 1438 3994 1388 3894 
Q 1338 3794 1338 3416 
L 1338 753 
Q 1338 494 1388 397 
Q 1425 331 1503 300 
Q 1581 269 1991 269 
L 2300 269 
Q 2788 269 2984 341 
Q 3181 413 3343 595 
Q 3506 778 3669 1172 
z
" transform="scale(0.015625)"/>
        <path id="TimesNewRomanPSMT-78" d="M 84 2863 
L 1431 2863 
L 1431 2747 
Q 1303 2747 1251 2703 
Q 1200 2659 1200 2588 
Q 1200 2513 1309 2356 
Q 1344 2306 1413 2200 
L 1616 1875 
L 1850 2200 
Q 2075 2509 2075 2591 
Q 2075 2656 2022 2701 
Q 1969 2747 1850 2747 
L 1850 2863 
L 2819 2863 
L 2819 2747 
Q 2666 2738 2553 2663 
Q 2400 2556 2134 2200 
L 1744 1678 
L 2456 653 
Q 2719 275 2831 198 
Q 2944 122 3122 113 
L 3122 0 
L 1772 0 
L 1772 113 
Q 1913 113 1991 175 
Q 2050 219 2050 291 
Q 2050 363 1850 653 
L 1431 1266 
L 972 653 
Q 759 369 759 316 
Q 759 241 829 180 
Q 900 119 1041 113 
L 1041 0 
L 106 0 
L 106 113 
Q 219 128 303 191 
Q 422 281 703 653 
L 1303 1450 
L 759 2238 
Q 528 2575 401 2661 
Q 275 2747 84 2747 
L 84 2863 
z
" transform="scale(0.015625)"/>
        <path id="TimesNewRomanPSMT-79" d="M 38 2863 
L 1372 2863 
L 1372 2747 
L 1306 2747 
Q 1166 2747 1095 2686 
Q 1025 2625 1025 2534 
Q 1025 2413 1128 2197 
L 1825 753 
L 2466 2334 
Q 2519 2463 2519 2588 
Q 2519 2644 2497 2672 
Q 2472 2706 2419 2726 
Q 2366 2747 2231 2747 
L 2231 2863 
L 3163 2863 
L 3163 2747 
Q 3047 2734 2984 2696 
Q 2922 2659 2847 2556 
Q 2819 2513 2741 2316 
L 1575 -541 
Q 1406 -956 1132 -1168 
Q 859 -1381 606 -1381 
Q 422 -1381 303 -1275 
Q 184 -1169 184 -1031 
Q 184 -900 270 -820 
Q 356 -741 506 -741 
Q 609 -741 788 -809 
Q 913 -856 944 -856 
Q 1038 -856 1148 -759 
Q 1259 -663 1372 -384 
L 1575 113 
L 547 2272 
Q 500 2369 397 2513 
Q 319 2622 269 2659 
Q 197 2709 38 2747 
L 38 2863 
z
" transform="scale(0.015625)"/>
        <path id="TimesNewRomanPSMT-20" transform="scale(0.015625)"/>
        <path id="TimesNewRomanPSMT-56" d="M 4544 4238 
L 4544 4122 
Q 4319 4081 4203 3978 
Q 4038 3825 3909 3509 
L 2431 -97 
L 2316 -97 
L 728 3556 
Q 606 3838 556 3900 
Q 478 3997 364 4051 
Q 250 4106 56 4122 
L 56 4238 
L 1788 4238 
L 1788 4122 
Q 1494 4094 1406 4022 
Q 1319 3950 1319 3838 
Q 1319 3681 1463 3350 
L 2541 866 
L 3541 3319 
Q 3688 3681 3688 3822 
Q 3688 3913 3597 3995 
Q 3506 4078 3291 4113 
Q 3275 4116 3238 4122 
L 3238 4238 
L 4544 4238 
z
" transform="scale(0.015625)"/>
        <path id="TimesNewRomanPSMT-69" d="M 928 4444 
Q 1059 4444 1151 4351 
Q 1244 4259 1244 4128 
Q 1244 3997 1151 3903 
Q 1059 3809 928 3809 
Q 797 3809 703 3903 
Q 609 3997 609 4128 
Q 609 4259 701 4351 
Q 794 4444 928 4444 
z
M 1188 2947 
L 1188 647 
Q 1188 378 1227 289 
Q 1266 200 1342 156 
Q 1419 113 1622 113 
L 1622 0 
L 231 0 
L 231 113 
Q 441 113 512 153 
Q 584 194 626 287 
Q 669 381 669 647 
L 669 1750 
Q 669 2216 641 2353 
Q 619 2453 572 2492 
Q 525 2531 444 2531 
Q 356 2531 231 2484 
L 188 2597 
L 1050 2947 
L 1188 2947 
z
" transform="scale(0.015625)"/>
        <path id="TimesNewRomanPSMT-6c" d="M 1184 4444 
L 1184 647 
Q 1184 378 1223 290 
Q 1263 203 1344 158 
Q 1425 113 1647 113 
L 1647 0 
L 244 0 
L 244 113 
Q 441 113 512 153 
Q 584 194 625 287 
Q 666 381 666 647 
L 666 3247 
Q 666 3731 644 3842 
Q 622 3953 573 3993 
Q 525 4034 450 4034 
Q 369 4034 244 3984 
L 191 4094 
L 1044 4444 
L 1184 4444 
z
" transform="scale(0.015625)"/>
       </defs>
       <use xlink:href="#TimesNewRomanPSMT-4c"/>
       <use xlink:href="#TimesNewRomanPSMT-75" x="61.083984"/>
       <use xlink:href="#TimesNewRomanPSMT-78" x="111.083984"/>
       <use xlink:href="#TimesNewRomanPSMT-75" x="161.083984"/>
       <use xlink:href="#TimesNewRomanPSMT-72" x="211.083984"/>
       <use xlink:href="#TimesNewRomanPSMT-79" x="244.384766"/>
       <use xlink:href="#TimesNewRomanPSMT-20" x="294.384766"/>
       <use xlink:href="#TimesNewRomanPSMT-56" x="317.634766"/>
       <use xlink:href="#TimesNewRomanPSMT-69" x="383.851562"/>
       <use xlink:href="#TimesNewRomanPSMT-6c" x="411.634766"/>
       <use xlink:href="#TimesNewRomanPSMT-6c" x="439.417969"/>
       <use xlink:href="#TimesNewRomanPSMT-61" x="467.201172"/>
      </g>
     </g>
    </g>
    <g id="xtick_3">
     <g id="line2d_3">
      <g>
       <use xlink:href="#m808ffb9aa2" x="239.315937" y="254.615114" style="stroke: #000000; stroke-width: 0.8"/>
      </g>
     </g>
     <g id="text_3">
      <!-- Townhouse -->
      <g transform="translate(198.501734 306.50623) rotate(-45) scale(0.12 -0.12)">
       <defs>
        <path id="TimesNewRomanPSMT-54" d="M 3703 4238 
L 3750 3244 
L 3631 3244 
Q 3597 3506 3538 3619 
Q 3441 3800 3280 3886 
Q 3119 3972 2856 3972 
L 2259 3972 
L 2259 734 
Q 2259 344 2344 247 
Q 2463 116 2709 116 
L 2856 116 
L 2856 0 
L 1059 0 
L 1059 116 
L 1209 116 
Q 1478 116 1591 278 
Q 1659 378 1659 734 
L 1659 3972 
L 1150 3972 
Q 853 3972 728 3928 
Q 566 3869 450 3700 
Q 334 3531 313 3244 
L 194 3244 
L 244 4238 
L 3703 4238 
z
" transform="scale(0.015625)"/>
        <path id="TimesNewRomanPSMT-77" d="M 41 2863 
L 1241 2863 
L 1241 2747 
Q 1075 2734 1023 2687 
Q 972 2641 972 2553 
Q 972 2456 1025 2319 
L 1638 672 
L 2253 2013 
L 2091 2434 
Q 2016 2622 1894 2694 
Q 1825 2738 1638 2747 
L 1638 2863 
L 3000 2863 
L 3000 2747 
Q 2775 2738 2681 2666 
Q 2619 2616 2619 2506 
Q 2619 2444 2644 2378 
L 3294 734 
L 3897 2319 
Q 3959 2488 3959 2588 
Q 3959 2647 3898 2694 
Q 3838 2741 3659 2747 
L 3659 2863 
L 4563 2863 
L 4563 2747 
Q 4291 2706 4163 2378 
L 3206 -88 
L 3078 -88 
L 2363 1741 
L 1528 -88 
L 1413 -88 
L 494 2319 
Q 403 2547 315 2626 
Q 228 2706 41 2747 
L 41 2863 
z
" transform="scale(0.015625)"/>
        <path id="TimesNewRomanPSMT-6e" d="M 1034 2341 
Q 1538 2947 1994 2947 
Q 2228 2947 2397 2830 
Q 2566 2713 2666 2444 
Q 2734 2256 2734 1869 
L 2734 647 
Q 2734 375 2778 278 
Q 2813 200 2889 156 
Q 2966 113 3172 113 
L 3172 0 
L 1756 0 
L 1756 113 
L 1816 113 
Q 2016 113 2095 173 
Q 2175 234 2206 353 
Q 2219 400 2219 647 
L 2219 1819 
Q 2219 2209 2117 2386 
Q 2016 2563 1775 2563 
Q 1403 2563 1034 2156 
L 1034 647 
Q 1034 356 1069 288 
Q 1113 197 1189 155 
Q 1266 113 1500 113 
L 1500 0 
L 84 0 
L 84 113 
L 147 113 
Q 366 113 442 223 
Q 519 334 519 647 
L 519 1709 
Q 519 2225 495 2337 
Q 472 2450 423 2490 
Q 375 2531 294 2531 
Q 206 2531 84 2484 
L 38 2597 
L 900 2947 
L 1034 2947 
L 1034 2341 
z
" transform="scale(0.015625)"/>
       </defs>
       <use xlink:href="#TimesNewRomanPSMT-54"/>
       <use xlink:href="#TimesNewRomanPSMT-6f" x="54.083984"/>
       <use xlink:href="#TimesNewRomanPSMT-77" x="104.083984"/>
       <use xlink:href="#TimesNewRomanPSMT-6e" x="176.300781"/>
       <use xlink:href="#TimesNewRomanPSMT-68" x="226.300781"/>
       <use xlink:href="#TimesNewRomanPSMT-6f" x="276.300781"/>
       <use xlink:href="#TimesNewRomanPSMT-75" x="326.300781"/>
       <use xlink:href="#TimesNewRomanPSMT-73" x="376.300781"/>
       <use xlink:href="#TimesNewRomanPSMT-65" x="415.216797"/>
      </g>
     </g>
    </g>
    <g id="xtick_4">
     <g id="line2d_4">
      <g>
       <use xlink:href="#m808ffb9aa2" x="314.675938" y="254.615114" style="stroke: #000000; stroke-width: 0.8"/>
      </g>
     </g>
     <g id="text_4">
      <!-- Cottage -->
      <g transform="translate(286.45177 293.884374) rotate(-45) scale(0.12 -0.12)">
       <defs>
        <path id="TimesNewRomanPSMT-43" d="M 3853 4334 
L 3950 2894 
L 3853 2894 
Q 3659 3541 3300 3825 
Q 2941 4109 2438 4109 
Q 2016 4109 1675 3895 
Q 1334 3681 1139 3212 
Q 944 2744 944 2047 
Q 944 1472 1128 1050 
Q 1313 628 1683 403 
Q 2053 178 2528 178 
Q 2941 178 3256 354 
Q 3572 531 3950 1056 
L 4047 994 
Q 3728 428 3303 165 
Q 2878 -97 2294 -97 
Q 1241 -97 663 684 
Q 231 1266 231 2053 
Q 231 2688 515 3219 
Q 800 3750 1298 4042 
Q 1797 4334 2388 4334 
Q 2847 4334 3294 4109 
Q 3425 4041 3481 4041 
Q 3566 4041 3628 4100 
Q 3709 4184 3744 4334 
L 3853 4334 
z
" transform="scale(0.015625)"/>
        <path id="TimesNewRomanPSMT-74" d="M 1031 3803 
L 1031 2863 
L 1700 2863 
L 1700 2644 
L 1031 2644 
L 1031 788 
Q 1031 509 1111 412 
Q 1191 316 1316 316 
Q 1419 316 1516 380 
Q 1613 444 1666 569 
L 1788 569 
Q 1678 263 1478 108 
Q 1278 -47 1066 -47 
Q 922 -47 784 33 
Q 647 113 581 261 
Q 516 409 516 719 
L 516 2644 
L 63 2644 
L 63 2747 
Q 234 2816 414 2980 
Q 594 3144 734 3369 
Q 806 3488 934 3803 
L 1031 3803 
z
" transform="scale(0.015625)"/>
        <path id="TimesNewRomanPSMT-67" d="M 966 1044 
Q 703 1172 562 1401 
Q 422 1631 422 1909 
Q 422 2334 742 2640 
Q 1063 2947 1563 2947 
Q 1972 2947 2272 2747 
L 2878 2747 
Q 3013 2747 3034 2739 
Q 3056 2731 3066 2713 
Q 3084 2684 3084 2613 
Q 3084 2531 3069 2500 
Q 3059 2484 3036 2475 
Q 3013 2466 2878 2466 
L 2506 2466 
Q 2681 2241 2681 1891 
Q 2681 1491 2375 1206 
Q 2069 922 1553 922 
Q 1341 922 1119 984 
Q 981 866 932 777 
Q 884 688 884 625 
Q 884 572 936 522 
Q 988 472 1138 450 
Q 1225 438 1575 428 
Q 2219 413 2409 384 
Q 2700 344 2873 169 
Q 3047 -6 3047 -263 
Q 3047 -616 2716 -925 
Q 2228 -1381 1444 -1381 
Q 841 -1381 425 -1109 
Q 191 -953 191 -784 
Q 191 -709 225 -634 
Q 278 -519 444 -313 
Q 466 -284 763 25 
Q 600 122 533 198 
Q 466 275 466 372 
Q 466 481 555 628 
Q 644 775 966 1044 
z
M 1509 2797 
Q 1278 2797 1122 2612 
Q 966 2428 966 2047 
Q 966 1553 1178 1281 
Q 1341 1075 1591 1075 
Q 1828 1075 1981 1253 
Q 2134 1431 2134 1813 
Q 2134 2309 1919 2591 
Q 1759 2797 1509 2797 
z
M 934 0 
Q 788 -159 713 -296 
Q 638 -434 638 -550 
Q 638 -700 819 -813 
Q 1131 -1006 1722 -1006 
Q 2284 -1006 2551 -807 
Q 2819 -609 2819 -384 
Q 2819 -222 2659 -153 
Q 2497 -84 2016 -72 
Q 1313 -53 934 0 
z
" transform="scale(0.015625)"/>
       </defs>
       <use xlink:href="#TimesNewRomanPSMT-43"/>
       <use xlink:href="#TimesNewRomanPSMT-6f" x="66.699219"/>
       <use xlink:href="#TimesNewRomanPSMT-74" x="116.699219"/>
       <use xlink:href="#TimesNewRomanPSMT-74" x="144.482422"/>
       <use xlink:href="#TimesNewRomanPSMT-61" x="172.265625"/>
       <use xlink:href="#TimesNewRomanPSMT-67" x="216.650391"/>
       <use xlink:href="#TimesNewRomanPSMT-65" x="266.650391"/>
      </g>
     </g>
    </g>
    <g id="xtick_5">
     <g id="line2d_5">
      <g>
       <use xlink:href="#m808ffb9aa2" x="390.035938" y="254.615114" style="stroke: #000000; stroke-width: 0.8"/>
      </g>
     </g>
     <g id="text_5">
      <!-- Mansion -->
      <g transform="translate(358.521072 297.206892) rotate(-45) scale(0.12 -0.12)">
       <defs>
        <path id="TimesNewRomanPSMT-4d" d="M 2619 0 
L 981 3566 
L 981 734 
Q 981 344 1066 247 
Q 1181 116 1431 116 
L 1581 116 
L 1581 0 
L 106 0 
L 106 116 
L 256 116 
Q 525 116 638 278 
Q 706 378 706 734 
L 706 3503 
Q 706 3784 644 3909 
Q 600 4000 483 4061 
Q 366 4122 106 4122 
L 106 4238 
L 1306 4238 
L 2844 922 
L 4356 4238 
L 5556 4238 
L 5556 4122 
L 5409 4122 
Q 5138 4122 5025 3959 
Q 4956 3859 4956 3503 
L 4956 734 
Q 4956 344 5044 247 
Q 5159 116 5409 116 
L 5556 116 
L 5556 0 
L 3756 0 
L 3756 116 
L 3906 116 
Q 4178 116 4288 278 
Q 4356 378 4356 734 
L 4356 3566 
L 2722 0 
L 2619 0 
z
" transform="scale(0.015625)"/>
       </defs>
       <use xlink:href="#TimesNewRomanPSMT-4d"/>
       <use xlink:href="#TimesNewRomanPSMT-61" x="88.916016"/>
       <use xlink:href="#TimesNewRomanPSMT-6e" x="133.300781"/>
       <use xlink:href="#TimesNewRomanPSMT-73" x="183.300781"/>
       <use xlink:href="#TimesNewRomanPSMT-69" x="222.216797"/>
       <use xlink:href="#TimesNewRomanPSMT-6f" x="250"/>
       <use xlink:href="#TimesNewRomanPSMT-6e" x="300"/>
      </g>
     </g>
    </g>
   </g>
   <g id="matplotlib.axis_2">
    <g id="ytick_1">
     <g id="line2d_6">
      <defs>
       <path id="me6f9eb14e6" d="M 0 0 
L -3.5 0 
" style="stroke: #000000; stroke-width: 0.8"/>
      </defs>
      <g>
       <use xlink:href="#me6f9eb14e6" x="50.915938" y="226.711794" style="stroke: #000000; stroke-width: 0.8"/>
      </g>
     </g>
     <g id="text_6">
      <!-- 400 -->
      <g transform="translate(28.915938 230.183669) scale(0.1 -0.1)">
       <defs>
        <path id="TimesNewRomanPSMT-34" d="M 2978 1563 
L 2978 1119 
L 2409 1119 
L 2409 0 
L 1894 0 
L 1894 1119 
L 100 1119 
L 100 1519 
L 2066 4325 
L 2409 4325 
L 2409 1563 
L 2978 1563 
z
M 1894 1563 
L 1894 3666 
L 406 1563 
L 1894 1563 
z
" transform="scale(0.015625)"/>
        <path id="TimesNewRomanPSMT-30" d="M 231 2094 
Q 231 2819 450 3342 
Q 669 3866 1031 4122 
Q 1313 4325 1613 4325 
Q 2100 4325 2488 3828 
Q 2972 3213 2972 2159 
Q 2972 1422 2759 906 
Q 2547 391 2217 158 
Q 1888 -75 1581 -75 
Q 975 -75 572 641 
Q 231 1244 231 2094 
z
M 844 2016 
Q 844 1141 1059 588 
Q 1238 122 1591 122 
Q 1759 122 1940 273 
Q 2122 425 2216 781 
Q 2359 1319 2359 2297 
Q 2359 3022 2209 3506 
Q 2097 3866 1919 4016 
Q 1791 4119 1609 4119 
Q 1397 4119 1231 3928 
Q 1006 3669 925 3112 
Q 844 2556 844 2016 
z
" transform="scale(0.015625)"/>
       </defs>
       <use xlink:href="#TimesNewRomanPSMT-34"/>
       <use xlink:href="#TimesNewRomanPSMT-30" x="50"/>
       <use xlink:href="#TimesNewRomanPSMT-30" x="100"/>
      </g>
     </g>
    </g>
    <g id="ytick_2">
     <g id="line2d_7">
      <g>
       <use xlink:href="#me6f9eb14e6" x="50.915938" y="193.942187" style="stroke: #000000; stroke-width: 0.8"/>
      </g>
     </g>
     <g id="text_7">
      <!-- 600 -->
      <g transform="translate(28.915938 197.414062) scale(0.1 -0.1)">
       <defs>
        <path id="TimesNewRomanPSMT-36" d="M 2869 4325 
L 2869 4209 
Q 2456 4169 2195 4045 
Q 1934 3922 1679 3669 
Q 1425 3416 1258 3105 
Q 1091 2794 978 2366 
Q 1428 2675 1881 2675 
Q 2316 2675 2634 2325 
Q 2953 1975 2953 1425 
Q 2953 894 2631 456 
Q 2244 -75 1606 -75 
Q 1172 -75 869 213 
Q 275 772 275 1663 
Q 275 2231 503 2743 
Q 731 3256 1154 3653 
Q 1578 4050 1965 4187 
Q 2353 4325 2688 4325 
L 2869 4325 
z
M 925 2138 
Q 869 1716 869 1456 
Q 869 1156 980 804 
Q 1091 453 1309 247 
Q 1469 100 1697 100 
Q 1969 100 2183 356 
Q 2397 613 2397 1088 
Q 2397 1622 2184 2012 
Q 1972 2403 1581 2403 
Q 1463 2403 1327 2353 
Q 1191 2303 925 2138 
z
" transform="scale(0.015625)"/>
       </defs>
       <use xlink:href="#TimesNewRomanPSMT-36"/>
       <use xlink:href="#TimesNewRomanPSMT-30" x="50"/>
       <use xlink:href="#TimesNewRomanPSMT-30" x="100"/>
      </g>
     </g>
    </g>
    <g id="ytick_3">
     <g id="line2d_8">
      <g>
       <use xlink:href="#me6f9eb14e6" x="50.915938" y="161.172581" style="stroke: #000000; stroke-width: 0.8"/>
      </g>
     </g>
     <g id="text_8">
      <!-- 800 -->
      <g transform="translate(28.915938 164.644456) scale(0.1 -0.1)">
       <defs>
        <path id="TimesNewRomanPSMT-38" d="M 1228 2134 
Q 725 2547 579 2797 
Q 434 3047 434 3316 
Q 434 3728 753 4026 
Q 1072 4325 1600 4325 
Q 2113 4325 2425 4047 
Q 2738 3769 2738 3413 
Q 2738 3175 2569 2928 
Q 2400 2681 1866 2347 
Q 2416 1922 2594 1678 
Q 2831 1359 2831 1006 
Q 2831 559 2490 242 
Q 2150 -75 1597 -75 
Q 994 -75 656 303 
Q 388 606 388 966 
Q 388 1247 577 1523 
Q 766 1800 1228 2134 
z
M 1719 2469 
Q 2094 2806 2194 3001 
Q 2294 3197 2294 3444 
Q 2294 3772 2109 3958 
Q 1925 4144 1606 4144 
Q 1288 4144 1088 3959 
Q 888 3775 888 3528 
Q 888 3366 970 3203 
Q 1053 3041 1206 2894 
L 1719 2469 
z
M 1375 2016 
Q 1116 1797 991 1539 
Q 866 1281 866 981 
Q 866 578 1086 336 
Q 1306 94 1647 94 
Q 1984 94 2187 284 
Q 2391 475 2391 747 
Q 2391 972 2272 1150 
Q 2050 1481 1375 2016 
z
" transform="scale(0.015625)"/>
       </defs>
       <use xlink:href="#TimesNewRomanPSMT-38"/>
       <use xlink:href="#TimesNewRomanPSMT-30" x="50"/>
       <use xlink:href="#TimesNewRomanPSMT-30" x="100"/>
      </g>
     </g>
    </g>
    <g id="ytick_4">
     <g id="line2d_9">
      <g>
       <use xlink:href="#me6f9eb14e6" x="50.915938" y="128.402974" style="stroke: #000000; stroke-width: 0.8"/>
      </g>
     </g>
     <g id="text_9">
      <!-- 1000 -->
      <g transform="translate(23.915938 131.874849) scale(0.1 -0.1)">
       <defs>
        <path id="TimesNewRomanPSMT-31" d="M 750 3822 
L 1781 4325 
L 1884 4325 
L 1884 747 
Q 1884 391 1914 303 
Q 1944 216 2037 169 
Q 2131 122 2419 116 
L 2419 0 
L 825 0 
L 825 116 
Q 1125 122 1212 167 
Q 1300 213 1334 289 
Q 1369 366 1369 747 
L 1369 3034 
Q 1369 3497 1338 3628 
Q 1316 3728 1258 3775 
Q 1200 3822 1119 3822 
Q 1003 3822 797 3725 
L 750 3822 
z
" transform="scale(0.015625)"/>
       </defs>
       <use xlink:href="#TimesNewRomanPSMT-31"/>
       <use xlink:href="#TimesNewRomanPSMT-30" x="50"/>
       <use xlink:href="#TimesNewRomanPSMT-30" x="100"/>
       <use xlink:href="#TimesNewRomanPSMT-30" x="150"/>
      </g>
     </g>
    </g>
    <g id="ytick_5">
     <g id="line2d_10">
      <g>
       <use xlink:href="#me6f9eb14e6" x="50.915938" y="95.633368" style="stroke: #000000; stroke-width: 0.8"/>
      </g>
     </g>
     <g id="text_10">
      <!-- 1200 -->
      <g transform="translate(23.915938 99.105243) scale(0.1 -0.1)">
       <defs>
        <path id="TimesNewRomanPSMT-32" d="M 2934 816 
L 2638 0 
L 138 0 
L 138 116 
Q 1241 1122 1691 1759 
Q 2141 2397 2141 2925 
Q 2141 3328 1894 3587 
Q 1647 3847 1303 3847 
Q 991 3847 742 3664 
Q 494 3481 375 3128 
L 259 3128 
Q 338 3706 661 4015 
Q 984 4325 1469 4325 
Q 1984 4325 2329 3994 
Q 2675 3663 2675 3213 
Q 2675 2891 2525 2569 
Q 2294 2063 1775 1497 
Q 997 647 803 472 
L 1909 472 
Q 2247 472 2383 497 
Q 2519 522 2628 598 
Q 2738 675 2819 816 
L 2934 816 
z
" transform="scale(0.015625)"/>
       </defs>
       <use xlink:href="#TimesNewRomanPSMT-31"/>
       <use xlink:href="#TimesNewRomanPSMT-32" x="50"/>
       <use xlink:href="#TimesNewRomanPSMT-30" x="100"/>
       <use xlink:href="#TimesNewRomanPSMT-30" x="150"/>
      </g>
     </g>
    </g>
    <g id="ytick_6">
     <g id="line2d_11">
      <g>
       <use xlink:href="#me6f9eb14e6" x="50.915938" y="62.863761" style="stroke: #000000; stroke-width: 0.8"/>
      </g>
     </g>
     <g id="text_11">
      <!-- 1400 -->
      <g transform="translate(23.915938 66.335636) scale(0.1 -0.1)">
       <use xlink:href="#TimesNewRomanPSMT-31"/>
       <use xlink:href="#TimesNewRomanPSMT-34" x="50"/>
       <use xlink:href="#TimesNewRomanPSMT-30" x="100"/>
       <use xlink:href="#TimesNewRomanPSMT-30" x="150"/>
      </g>
     </g>
    </g>
    <g id="ytick_7">
     <g id="line2d_12">
      <g>
       <use xlink:href="#me6f9eb14e6" x="50.915938" y="30.094154" style="stroke: #000000; stroke-width: 0.8"/>
      </g>
     </g>
     <g id="text_12">
      <!-- 1600 -->
      <g transform="translate(23.915938 33.566029) scale(0.1 -0.1)">
       <use xlink:href="#TimesNewRomanPSMT-31"/>
       <use xlink:href="#TimesNewRomanPSMT-36" x="50"/>
       <use xlink:href="#TimesNewRomanPSMT-30" x="100"/>
       <use xlink:href="#TimesNewRomanPSMT-30" x="150"/>
      </g>
     </g>
    </g>
    <g id="text_13">
     <!-- thousand USD -->
     <g transform="translate(16.92125 183.359901) rotate(-90) scale(0.14 -0.14)">
      <defs>
       <path id="TimesNewRomanPSMT-64" d="M 2222 322 
Q 2013 103 1813 7 
Q 1613 -88 1381 -88 
Q 913 -88 563 304 
Q 213 697 213 1313 
Q 213 1928 600 2439 
Q 988 2950 1597 2950 
Q 1975 2950 2222 2709 
L 2222 3238 
Q 2222 3728 2198 3840 
Q 2175 3953 2125 3993 
Q 2075 4034 2000 4034 
Q 1919 4034 1784 3984 
L 1744 4094 
L 2597 4444 
L 2738 4444 
L 2738 1134 
Q 2738 631 2761 520 
Q 2784 409 2836 365 
Q 2888 322 2956 322 
Q 3041 322 3181 375 
L 3216 266 
L 2366 -88 
L 2222 -88 
L 2222 322 
z
M 2222 541 
L 2222 2016 
Q 2203 2228 2109 2403 
Q 2016 2578 1861 2667 
Q 1706 2756 1559 2756 
Q 1284 2756 1069 2509 
Q 784 2184 784 1559 
Q 784 928 1059 592 
Q 1334 256 1672 256 
Q 1956 256 2222 541 
z
" transform="scale(0.015625)"/>
       <path id="TimesNewRomanPSMT-55" d="M 3053 4122 
L 3053 4238 
L 4553 4238 
L 4553 4122 
L 4394 4122 
Q 4144 4122 4009 3913 
Q 3944 3816 3944 3463 
L 3944 1744 
Q 3944 1106 3817 754 
Q 3691 403 3320 151 
Q 2950 -100 2313 -100 
Q 1619 -100 1259 140 
Q 900 381 750 788 
Q 650 1066 650 1831 
L 650 3488 
Q 650 3878 542 4000 
Q 434 4122 194 4122 
L 34 4122 
L 34 4238 
L 1866 4238 
L 1866 4122 
L 1703 4122 
Q 1441 4122 1328 3956 
Q 1250 3844 1250 3488 
L 1250 1641 
Q 1250 1394 1295 1075 
Q 1341 756 1459 578 
Q 1578 400 1801 284 
Q 2025 169 2350 169 
Q 2766 169 3094 350 
Q 3422 531 3542 814 
Q 3663 1097 3663 1772 
L 3663 3488 
Q 3663 3884 3575 3984 
Q 3453 4122 3213 4122 
L 3053 4122 
z
" transform="scale(0.015625)"/>
       <path id="TimesNewRomanPSMT-53" d="M 2934 4334 
L 2934 2869 
L 2819 2869 
Q 2763 3291 2617 3541 
Q 2472 3791 2203 3937 
Q 1934 4084 1647 4084 
Q 1322 4084 1109 3886 
Q 897 3688 897 3434 
Q 897 3241 1031 3081 
Q 1225 2847 1953 2456 
Q 2547 2138 2764 1967 
Q 2981 1797 3098 1565 
Q 3216 1334 3216 1081 
Q 3216 600 2842 251 
Q 2469 -97 1881 -97 
Q 1697 -97 1534 -69 
Q 1438 -53 1133 45 
Q 828 144 747 144 
Q 669 144 623 97 
Q 578 50 556 -97 
L 441 -97 
L 441 1356 
L 556 1356 
Q 638 900 775 673 
Q 913 447 1195 297 
Q 1478 147 1816 147 
Q 2206 147 2432 353 
Q 2659 559 2659 841 
Q 2659 997 2573 1156 
Q 2488 1316 2306 1453 
Q 2184 1547 1640 1851 
Q 1097 2156 867 2337 
Q 638 2519 519 2737 
Q 400 2956 400 3219 
Q 400 3675 750 4004 
Q 1100 4334 1641 4334 
Q 1978 4334 2356 4169 
Q 2531 4091 2603 4091 
Q 2684 4091 2736 4139 
Q 2788 4188 2819 4334 
L 2934 4334 
z
" transform="scale(0.015625)"/>
       <path id="TimesNewRomanPSMT-44" d="M 109 0 
L 109 116 
L 269 116 
Q 538 116 650 288 
Q 719 391 719 750 
L 719 3488 
Q 719 3884 631 3984 
Q 509 4122 269 4122 
L 109 4122 
L 109 4238 
L 1834 4238 
Q 2784 4238 3279 4022 
Q 3775 3806 4076 3303 
Q 4378 2800 4378 2141 
Q 4378 1256 3841 663 
Q 3238 0 2003 0 
L 109 0 
z
M 1319 306 
Q 1716 219 1984 219 
Q 2709 219 3187 728 
Q 3666 1238 3666 2109 
Q 3666 2988 3187 3494 
Q 2709 4000 1959 4000 
Q 1678 4000 1319 3909 
L 1319 306 
z
" transform="scale(0.015625)"/>
      </defs>
      <use xlink:href="#TimesNewRomanPSMT-74"/>
      <use xlink:href="#TimesNewRomanPSMT-68" x="27.783203"/>
      <use xlink:href="#TimesNewRomanPSMT-6f" x="77.783203"/>
      <use xlink:href="#TimesNewRomanPSMT-75" x="127.783203"/>
      <use xlink:href="#TimesNewRomanPSMT-73" x="177.783203"/>
      <use xlink:href="#TimesNewRomanPSMT-61" x="216.699219"/>
      <use xlink:href="#TimesNewRomanPSMT-6e" x="261.083984"/>
      <use xlink:href="#TimesNewRomanPSMT-64" x="311.083984"/>
      <use xlink:href="#TimesNewRomanPSMT-20" x="361.083984"/>
      <use xlink:href="#TimesNewRomanPSMT-55" x="386.083984"/>
      <use xlink:href="#TimesNewRomanPSMT-53" x="458.300781"/>
      <use xlink:href="#TimesNewRomanPSMT-44" x="513.916016"/>
     </g>
    </g>
   </g>
   <g id="patch_3">
    <path d="M 84.074337 217.700152 
L 93.117538 217.700152 
L 93.117538 157.158304 
L 84.074337 157.158304 
L 84.074337 217.700152 
L 84.074337 217.700152 
z
" clip-path="url(#pdf907c27e7)" style="fill: none; stroke: #000000; stroke-linejoin: miter"/>
   </g>
   <g id="line2d_13">
    <path d="M 88.595938 217.700152 
L 88.595938 241.294269 
" clip-path="url(#pdf907c27e7)" style="fill: none; stroke: #000000; stroke-linecap: square"/>
   </g>
   <g id="line2d_14">
    <path d="M 88.595938 157.158304 
L 88.595938 78.101628 
" clip-path="url(#pdf907c27e7)" style="fill: none; stroke: #000000; stroke-linecap: square"/>
   </g>
   <g id="line2d_15">
    <path d="M 86.335138 241.294269 
L 90.856738 241.294269 
" clip-path="url(#pdf907c27e7)" style="fill: none; stroke: #000000; stroke-linecap: square"/>
   </g>
   <g id="line2d_16">
    <path d="M 86.335138 78.101628 
L 90.856738 78.101628 
" clip-path="url(#pdf907c27e7)" style="fill: none; stroke: #000000; stroke-linecap: square"/>
   </g>
   <g id="patch_4">
    <path d="M 159.434337 211.392003 
L 168.477538 211.392003 
L 168.477538 163.261643 
L 159.434337 163.261643 
L 159.434337 211.392003 
L 159.434337 211.392003 
z
" clip-path="url(#pdf907c27e7)" style="fill: none; stroke: #000000; stroke-linejoin: miter"/>
   </g>
   <g id="line2d_17">
    <path d="M 163.955938 211.392003 
L 163.955938 244.407381 
" clip-path="url(#pdf907c27e7)" style="fill: none; stroke: #000000; stroke-linecap: square"/>
   </g>
   <g id="line2d_18">
    <path d="M 163.955938 163.261643 
L 163.955938 97.599544 
" clip-path="url(#pdf907c27e7)" style="fill: none; stroke: #000000; stroke-linecap: square"/>
   </g>
   <g id="line2d_19">
    <path d="M 161.695138 244.407381 
L 166.216737 244.407381 
" clip-path="url(#pdf907c27e7)" style="fill: none; stroke: #000000; stroke-linecap: square"/>
   </g>
   <g id="line2d_20">
    <path d="M 161.695138 97.599544 
L 166.216737 97.599544 
" clip-path="url(#pdf907c27e7)" style="fill: none; stroke: #000000; stroke-linecap: square"/>
   </g>
   <g id="patch_5">
    <path d="M 234.794338 212.088357 
L 243.837537 212.088357 
L 243.837537 153.799419 
L 234.794338 153.799419 
L 234.794338 212.088357 
L 234.794338 212.088357 
z
" clip-path="url(#pdf907c27e7)" style="fill: none; stroke: #000000; stroke-linejoin: miter"/>
   </g>
   <g id="line2d_21">
    <path d="M 239.315937 212.088357 
L 239.315937 240.475028 
" clip-path="url(#pdf907c27e7)" style="fill: none; stroke: #000000; stroke-linecap: square"/>
   </g>
   <g id="line2d_22">
    <path d="M 239.315937 153.799419 
L 239.315937 71.875403 
" clip-path="url(#pdf907c27e7)" style="fill: none; stroke: #000000; stroke-linecap: square"/>
   </g>
   <g id="line2d_23">
    <path d="M 237.055138 240.475028 
L 241.576737 240.475028 
" clip-path="url(#pdf907c27e7)" style="fill: none; stroke: #000000; stroke-linecap: square"/>
   </g>
   <g id="line2d_24">
    <path d="M 237.055138 71.875403 
L 241.576737 71.875403 
" clip-path="url(#pdf907c27e7)" style="fill: none; stroke: #000000; stroke-linecap: square"/>
   </g>
   <g id="patch_6">
    <path d="M 310.154337 216.594178 
L 319.197537 216.594178 
L 319.197537 172.027513 
L 310.154337 172.027513 
L 310.154337 216.594178 
L 310.154337 216.594178 
z
" clip-path="url(#pdf907c27e7)" style="fill: none; stroke: #000000; stroke-linejoin: miter"/>
   </g>
   <g id="line2d_25">
    <path d="M 314.675938 216.594178 
L 314.675938 244.407381 
" clip-path="url(#pdf907c27e7)" style="fill: none; stroke: #000000; stroke-linecap: square"/>
   </g>
   <g id="line2d_26">
    <path d="M 314.675938 172.027513 
L 314.675938 106.611186 
" clip-path="url(#pdf907c27e7)" style="fill: none; stroke: #000000; stroke-linecap: square"/>
   </g>
   <g id="line2d_27">
    <path d="M 312.415138 244.407381 
L 316.936738 244.407381 
" clip-path="url(#pdf907c27e7)" style="fill: none; stroke: #000000; stroke-linecap: square"/>
   </g>
   <g id="line2d_28">
    <path d="M 312.415138 106.611186 
L 316.936738 106.611186 
" clip-path="url(#pdf907c27e7)" style="fill: none; stroke: #000000; stroke-linecap: square"/>
   </g>
   <g id="patch_7">
    <path d="M 385.514338 218.027848 
L 394.557537 218.027848 
L 394.557537 164.818199 
L 385.514338 164.818199 
L 385.514338 218.027848 
L 385.514338 218.027848 
z
" clip-path="url(#pdf907c27e7)" style="fill: none; stroke: #000000; stroke-linejoin: miter"/>
   </g>
   <g id="line2d_29">
    <path d="M 390.035938 218.027848 
L 390.035938 242.113509 
" clip-path="url(#pdf907c27e7)" style="fill: none; stroke: #000000; stroke-linecap: square"/>
   </g>
   <g id="line2d_30">
    <path d="M 390.035938 164.818199 
L 390.035938 95.797216 
" clip-path="url(#pdf907c27e7)" style="fill: none; stroke: #000000; stroke-linecap: square"/>
   </g>
   <g id="line2d_31">
    <path d="M 387.775138 242.113509 
L 392.296738 242.113509 
" clip-path="url(#pdf907c27e7)" style="fill: none; stroke: #000000; stroke-linecap: square"/>
   </g>
   <g id="line2d_32">
    <path d="M 387.775138 95.797216 
L 392.296738 95.797216 
" clip-path="url(#pdf907c27e7)" style="fill: none; stroke: #000000; stroke-linecap: square"/>
   </g>
   <g id="line2d_33">
    <path d="M 84.074337 192.959099 
L 93.117538 192.959099 
" clip-path="url(#pdf907c27e7)" style="fill: none; stroke: #000000; stroke-width: 1.5; stroke-linecap: square"/>
   </g>
   <g id="line2d_34">
    <path d="M 159.434337 192.959099 
L 168.477538 192.959099 
" clip-path="url(#pdf907c27e7)" style="fill: none; stroke: #000000; stroke-width: 1.5; stroke-linecap: square"/>
   </g>
   <g id="line2d_35">
    <path d="M 234.794338 194.925275 
L 243.837537 194.925275 
" clip-path="url(#pdf907c27e7)" style="fill: none; stroke: #000000; stroke-width: 1.5; stroke-linecap: square"/>
   </g>
   <g id="line2d_36">
    <path d="M 310.154337 193.778339 
L 319.197537 193.778339 
" clip-path="url(#pdf907c27e7)" style="fill: none; stroke: #000000; stroke-width: 1.5; stroke-linecap: square"/>
   </g>
   <g id="line2d_37">
    <path d="M 385.514338 191.238695 
L 394.557537 191.238695 
" clip-path="url(#pdf907c27e7)" style="fill: none; stroke: #000000; stroke-width: 1.5; stroke-linecap: square"/>
   </g>
   <g id="patch_8">
    <path d="M 50.915938 254.615114 
L 50.915938 30.045 
" style="fill: none; stroke: #000000; stroke-linejoin: miter; stroke-linecap: square"/>
   </g>
   <g id="patch_9">
    <path d="M 427.715937 254.615114 
L 427.715937 30.045 
" style="fill: none; stroke: #000000; stroke-linejoin: miter; stroke-linecap: square"/>
   </g>
   <g id="patch_10">
    <path d="M 50.915938 254.615114 
L 427.715937 254.615114 
" style="fill: none; stroke: #000000; stroke-linejoin: miter; stroke-linecap: square"/>
   </g>
   <g id="patch_11">
    <path d="M 50.915938 30.045 
L 427.715937 30.045 
" style="fill: none; stroke: #000000; stroke-linejoin: miter; stroke-linecap: square"/>
   </g>
   <g id="text_14">
    <!-- Virtual Housing Prices by Property Type (thousand USD) -->
    <g transform="translate(42.925937 18.045) scale(0.16 -0.16)">
     <defs>
      <path id="TimesNewRomanPS-BoldMT-56" d="M 4556 4238 
L 4556 4122 
Q 4325 4084 4144 3875 
Q 4013 3719 3753 3141 
L 2294 -97 
L 2191 -97 
L 738 3272 
Q 475 3881 386 3987 
Q 297 4094 50 4122 
L 50 4238 
L 2081 4238 
L 2081 4122 
L 2013 4122 
Q 1738 4122 1638 4053 
Q 1566 4006 1566 3916 
Q 1566 3859 1591 3782 
Q 1616 3706 1759 3372 
L 2663 1263 
L 3500 3141 
Q 3650 3481 3684 3597 
Q 3719 3713 3719 3794 
Q 3719 3888 3669 3959 
Q 3619 4031 3522 4069 
Q 3388 4122 3166 4122 
L 3166 4238 
L 4556 4238 
z
" transform="scale(0.015625)"/>
      <path id="TimesNewRomanPS-BoldMT-69" d="M 919 4338 
Q 1122 4338 1262 4195 
Q 1403 4053 1403 3853 
Q 1403 3653 1261 3512 
Q 1119 3372 919 3372 
Q 719 3372 578 3512 
Q 438 3653 438 3853 
Q 438 4053 578 4195 
Q 719 4338 919 4338 
z
M 1356 2922 
L 1356 606 
Q 1356 297 1428 211 
Q 1500 125 1709 113 
L 1709 0 
L 131 0 
L 131 113 
Q 325 119 419 225 
Q 481 297 481 606 
L 481 2313 
Q 481 2622 409 2708 
Q 338 2794 131 2806 
L 131 2922 
L 1356 2922 
z
" transform="scale(0.015625)"/>
      <path id="TimesNewRomanPS-BoldMT-72" d="M 1428 2922 
L 1428 2259 
Q 1719 2713 1937 2861 
Q 2156 3009 2359 3009 
Q 2534 3009 2639 2901 
Q 2744 2794 2744 2597 
Q 2744 2388 2642 2272 
Q 2541 2156 2397 2156 
Q 2231 2156 2109 2262 
Q 1988 2369 1966 2381 
Q 1934 2400 1894 2400 
Q 1803 2400 1722 2331 
Q 1594 2225 1528 2028 
Q 1428 1725 1428 1359 
L 1428 688 
L 1431 513 
Q 1431 334 1453 284 
Q 1491 200 1564 161 
Q 1638 122 1813 113 
L 1813 0 
L 234 0 
L 234 113 
Q 425 128 492 217 
Q 559 306 559 688 
L 559 2303 
Q 559 2553 534 2622 
Q 503 2709 443 2750 
Q 384 2791 234 2806 
L 234 2922 
L 1428 2922 
z
" transform="scale(0.015625)"/>
      <path id="TimesNewRomanPS-BoldMT-74" d="M 1375 3991 
L 1375 2922 
L 2069 2922 
L 2069 2613 
L 1375 2613 
L 1375 809 
Q 1375 556 1398 482 
Q 1422 409 1481 364 
Q 1541 319 1591 319 
Q 1794 319 1975 628 
L 2069 559 
Q 1816 -41 1247 -41 
Q 969 -41 776 114 
Q 584 269 531 459 
Q 500 566 500 1034 
L 500 2613 
L 119 2613 
L 119 2722 
Q 513 3000 789 3306 
Q 1066 3613 1272 3991 
L 1375 3991 
z
" transform="scale(0.015625)"/>
      <path id="TimesNewRomanPS-BoldMT-75" d="M 3038 2922 
L 3038 634 
Q 3038 300 3100 217 
Q 3163 134 3353 113 
L 3353 0 
L 2163 0 
L 2163 391 
Q 1953 141 1743 26 
Q 1534 -88 1275 -88 
Q 1028 -88 836 64 
Q 644 216 578 419 
Q 513 622 513 1128 
L 513 2288 
Q 513 2619 452 2700 
Q 391 2781 197 2806 
L 197 2922 
L 1388 2922 
L 1388 925 
Q 1388 613 1417 522 
Q 1447 431 1511 384 
Q 1575 338 1659 338 
Q 1772 338 1863 397 
Q 1988 478 2163 725 
L 2163 2288 
Q 2163 2619 2102 2700 
Q 2041 2781 1847 2806 
L 1847 2922 
L 3038 2922 
z
" transform="scale(0.015625)"/>
      <path id="TimesNewRomanPS-BoldMT-61" d="M 1828 431 
Q 1294 -41 869 -41 
Q 619 -41 453 123 
Q 288 288 288 534 
Q 288 869 575 1136 
Q 863 1403 1828 1847 
L 1828 2141 
Q 1828 2472 1792 2558 
Q 1756 2644 1656 2708 
Q 1556 2772 1431 2772 
Q 1228 2772 1097 2681 
Q 1016 2625 1016 2550 
Q 1016 2484 1103 2388 
Q 1222 2253 1222 2128 
Q 1222 1975 1108 1867 
Q 994 1759 809 1759 
Q 613 1759 480 1878 
Q 347 1997 347 2156 
Q 347 2381 525 2586 
Q 703 2791 1022 2900 
Q 1341 3009 1684 3009 
Q 2100 3009 2342 2832 
Q 2584 2656 2656 2450 
Q 2700 2319 2700 1847 
L 2700 713 
Q 2700 513 2715 461 
Q 2731 409 2762 384 
Q 2794 359 2834 359 
Q 2916 359 3000 475 
L 3094 400 
Q 2938 169 2770 64 
Q 2603 -41 2391 -41 
Q 2141 -41 2000 76 
Q 1859 194 1828 431 
z
M 1828 659 
L 1828 1638 
Q 1450 1416 1266 1163 
Q 1144 994 1144 822 
Q 1144 678 1247 569 
Q 1325 484 1466 484 
Q 1622 484 1828 659 
z
" transform="scale(0.015625)"/>
      <path id="TimesNewRomanPS-BoldMT-6c" d="M 1359 4238 
L 1359 606 
Q 1359 297 1431 211 
Q 1503 125 1713 113 
L 1713 0 
L 134 0 
L 134 113 
Q 328 119 422 225 
Q 484 297 484 606 
L 484 3631 
Q 484 3938 412 4023 
Q 341 4109 134 4122 
L 134 4238 
L 1359 4238 
z
" transform="scale(0.015625)"/>
      <path id="TimesNewRomanPS-BoldMT-20" transform="scale(0.015625)"/>
      <path id="TimesNewRomanPS-BoldMT-48" d="M 1750 2038 
L 1750 725 
Q 1750 400 1786 319 
Q 1822 238 1926 177 
Q 2031 116 2209 116 
L 2350 116 
L 2350 0 
L 134 0 
L 134 116 
L 275 116 
Q 459 116 572 181 
Q 653 225 697 331 
Q 731 406 731 725 
L 731 3513 
Q 731 3838 697 3919 
Q 663 4000 558 4061 
Q 453 4122 275 4122 
L 134 4122 
L 134 4238 
L 2350 4238 
L 2350 4122 
L 2209 4122 
Q 2025 4122 1913 4056 
Q 1831 4013 1784 3906 
Q 1750 3831 1750 3513 
L 1750 2313 
L 3247 2313 
L 3247 3513 
Q 3247 3838 3212 3919 
Q 3178 4000 3072 4061 
Q 2966 4122 2788 4122 
L 2650 4122 
L 2650 4238 
L 4863 4238 
L 4863 4122 
L 4725 4122 
Q 4538 4122 4428 4056 
Q 4347 4013 4300 3906 
Q 4266 3831 4266 3513 
L 4266 725 
Q 4266 400 4300 319 
Q 4334 238 4440 177 
Q 4547 116 4725 116 
L 4863 116 
L 4863 0 
L 2650 0 
L 2650 116 
L 2788 116 
Q 2975 116 3084 181 
Q 3166 225 3213 331 
Q 3247 406 3247 725 
L 3247 2038 
L 1750 2038 
z
" transform="scale(0.015625)"/>
      <path id="TimesNewRomanPS-BoldMT-6f" d="M 1594 3009 
Q 1975 3009 2303 2812 
Q 2631 2616 2801 2253 
Q 2972 1891 2972 1459 
Q 2972 838 2656 419 
Q 2275 -88 1603 -88 
Q 944 -88 587 375 
Q 231 838 231 1447 
Q 231 2075 595 2542 
Q 959 3009 1594 3009 
z
M 1606 2788 
Q 1447 2788 1333 2667 
Q 1219 2547 1183 2192 
Q 1147 1838 1147 1206 
Q 1147 872 1191 581 
Q 1225 359 1337 243 
Q 1450 128 1594 128 
Q 1734 128 1828 206 
Q 1950 313 1991 503 
Q 2053 800 2053 1703 
Q 2053 2234 1993 2432 
Q 1934 2631 1819 2722 
Q 1738 2788 1606 2788 
z
" transform="scale(0.015625)"/>
      <path id="TimesNewRomanPS-BoldMT-73" d="M 2063 3003 
L 2109 2006 
L 2003 2006 
Q 1813 2450 1608 2612 
Q 1403 2775 1200 2775 
Q 1072 2775 981 2689 
Q 891 2603 891 2491 
Q 891 2406 953 2328 
Q 1053 2200 1512 1889 
Q 1972 1578 2117 1361 
Q 2263 1144 2263 875 
Q 2263 631 2141 397 
Q 2019 163 1797 37 
Q 1575 -88 1306 -88 
Q 1097 -88 747 44 
Q 653 78 619 78 
Q 516 78 447 -78 
L 344 -78 
L 294 972 
L 400 972 
Q 541 559 786 353 
Q 1031 147 1250 147 
Q 1400 147 1495 239 
Q 1591 331 1591 463 
Q 1591 613 1497 722 
Q 1403 831 1078 1053 
Q 600 1384 459 1559 
Q 253 1816 253 2125 
Q 253 2463 486 2736 
Q 719 3009 1159 3009 
Q 1397 3009 1619 2894 
Q 1703 2847 1756 2847 
Q 1813 2847 1847 2870 
Q 1881 2894 1956 3003 
L 2063 3003 
z
" transform="scale(0.015625)"/>
      <path id="TimesNewRomanPS-BoldMT-6e" d="M 1409 2922 
L 1409 2544 
Q 1634 2788 1840 2898 
Q 2047 3009 2284 3009 
Q 2569 3009 2756 2851 
Q 2944 2694 3006 2459 
Q 3056 2281 3056 1775 
L 3056 638 
Q 3056 300 3117 217 
Q 3178 134 3372 113 
L 3372 0 
L 1894 0 
L 1894 113 
Q 2059 134 2131 250 
Q 2181 328 2181 638 
L 2181 1938 
Q 2181 2297 2153 2390 
Q 2125 2484 2058 2536 
Q 1991 2588 1909 2588 
Q 1641 2588 1409 2203 
L 1409 638 
Q 1409 309 1470 221 
Q 1531 134 1697 113 
L 1697 0 
L 219 0 
L 219 113 
Q 403 131 481 231 
Q 534 300 534 638 
L 534 2288 
Q 534 2619 473 2700 
Q 413 2781 219 2806 
L 219 2922 
L 1409 2922 
z
" transform="scale(0.015625)"/>
      <path id="TimesNewRomanPS-BoldMT-67" d="M 2091 2888 
L 3075 2888 
L 3075 2544 
L 2516 2544 
Q 2669 2391 2728 2266 
Q 2803 2097 2803 1913 
Q 2803 1600 2629 1370 
Q 2456 1141 2157 1011 
Q 1859 881 1628 881 
Q 1609 881 1253 897 
Q 1113 897 1017 805 
Q 922 713 922 584 
Q 922 472 1008 400 
Q 1094 328 1288 328 
L 1828 334 
Q 2484 334 2731 191 
Q 3084 -9 3084 -425 
Q 3084 -691 2921 -908 
Q 2759 -1125 2494 -1228 
Q 2091 -1381 1566 -1381 
Q 1172 -1381 847 -1304 
Q 522 -1228 381 -1092 
Q 241 -956 241 -806 
Q 241 -663 348 -548 
Q 456 -434 750 -356 
Q 344 -156 344 200 
Q 344 416 509 619 
Q 675 822 1034 972 
Q 616 1125 428 1375 
Q 241 1625 241 1953 
Q 241 2381 591 2695 
Q 941 3009 1491 3009 
Q 1781 3009 2091 2888 
z
M 1550 2816 
Q 1369 2816 1244 2633 
Q 1119 2450 1119 1875 
Q 1119 1409 1242 1236 
Q 1366 1063 1534 1063 
Q 1722 1063 1847 1234 
Q 1972 1406 1972 1903 
Q 1972 2463 1831 2666 
Q 1731 2816 1550 2816 
z
M 1366 -431 
Q 1047 -431 944 -484 
Q 766 -581 766 -747 
Q 766 -906 950 -1036 
Q 1134 -1166 1644 -1166 
Q 2078 -1166 2326 -1050 
Q 2575 -934 2575 -725 
Q 2575 -647 2528 -594 
Q 2444 -500 2273 -465 
Q 2103 -431 1366 -431 
z
" transform="scale(0.015625)"/>
      <path id="TimesNewRomanPS-BoldMT-50" d="M 1728 1919 
L 1728 744 
Q 1728 400 1770 311 
Q 1813 222 1920 169 
Q 2028 116 2316 116 
L 2316 0 
L 163 0 
L 163 116 
Q 456 116 561 170 
Q 666 225 708 312 
Q 750 400 750 744 
L 750 3494 
Q 750 3838 708 3927 
Q 666 4016 559 4069 
Q 453 4122 163 4122 
L 163 4238 
L 2009 4238 
Q 2922 4238 3319 3913 
Q 3716 3588 3716 3100 
Q 3716 2688 3459 2394 
Q 3203 2100 2753 1994 
Q 2450 1919 1728 1919 
z
M 1728 3994 
L 1728 2163 
Q 1831 2156 1884 2156 
Q 2266 2156 2472 2382 
Q 2678 2609 2678 3084 
Q 2678 3556 2472 3775 
Q 2266 3994 1856 3994 
L 1728 3994 
z
" transform="scale(0.015625)"/>
      <path id="TimesNewRomanPS-BoldMT-63" d="M 2600 753 
L 2697 678 
Q 2491 291 2183 101 
Q 1875 -88 1528 -88 
Q 944 -88 594 353 
Q 244 794 244 1413 
Q 244 2009 563 2463 
Q 947 3009 1622 3009 
Q 2075 3009 2342 2781 
Q 2609 2553 2609 2272 
Q 2609 2094 2501 1987 
Q 2394 1881 2219 1881 
Q 2034 1881 1914 2003 
Q 1794 2125 1766 2438 
Q 1747 2634 1675 2713 
Q 1603 2791 1506 2791 
Q 1356 2791 1250 2631 
Q 1088 2391 1088 1894 
Q 1088 1481 1219 1104 
Q 1350 728 1578 544 
Q 1750 409 1984 409 
Q 2138 409 2275 481 
Q 2413 553 2600 753 
z
" transform="scale(0.015625)"/>
      <path id="TimesNewRomanPS-BoldMT-65" d="M 2691 1566 
L 1088 1566 
Q 1116 984 1397 647 
Q 1613 388 1916 388 
Q 2103 388 2256 492 
Q 2409 597 2584 869 
L 2691 800 
Q 2453 316 2165 114 
Q 1878 -88 1500 -88 
Q 850 -88 516 413 
Q 247 816 247 1413 
Q 247 2144 642 2576 
Q 1038 3009 1569 3009 
Q 2013 3009 2339 2645 
Q 2666 2281 2691 1566 
z
M 1922 1775 
Q 1922 2278 1867 2465 
Q 1813 2653 1697 2750 
Q 1631 2806 1522 2806 
Q 1359 2806 1256 2647 
Q 1072 2369 1072 1884 
L 1072 1775 
L 1922 1775 
z
" transform="scale(0.015625)"/>
      <path id="TimesNewRomanPS-BoldMT-62" d="M 1347 4238 
L 1347 2628 
Q 1716 3009 2153 3009 
Q 2453 3009 2718 2832 
Q 2984 2656 3134 2331 
Q 3284 2006 3284 1581 
Q 3284 1103 3093 712 
Q 2903 322 2584 117 
Q 2266 -88 1856 -88 
Q 1619 -88 1434 -12 
Q 1250 63 1072 231 
L 588 -84 
L 481 -84 
L 481 3631 
Q 481 3884 459 3944 
Q 428 4031 361 4073 
Q 294 4116 134 4122 
L 134 4238 
L 1347 4238 
z
M 1347 2350 
L 1347 1050 
Q 1347 653 1366 544 
Q 1397 359 1515 245 
Q 1634 131 1819 131 
Q 1978 131 2092 222 
Q 2206 313 2282 581 
Q 2359 850 2359 1550 
Q 2359 2222 2191 2472 
Q 2069 2653 1863 2653 
Q 1594 2653 1347 2350 
z
" transform="scale(0.015625)"/>
      <path id="TimesNewRomanPS-BoldMT-79" d="M 1556 -119 
L 613 2047 
Q 400 2538 298 2650 
Q 197 2763 53 2806 
L 53 2922 
L 1606 2922 
L 1606 2806 
Q 1453 2800 1390 2747 
Q 1328 2694 1328 2619 
Q 1328 2500 1484 2150 
L 1984 1006 
L 2325 1891 
Q 2509 2363 2509 2547 
Q 2509 2663 2432 2731 
Q 2356 2800 2163 2806 
L 2163 2922 
L 3141 2922 
L 3141 2806 
Q 2997 2791 2906 2695 
Q 2816 2600 2603 2047 
L 1769 -119 
Q 1453 -931 1300 -1119 
Q 1084 -1381 759 -1381 
Q 500 -1381 339 -1232 
Q 178 -1084 178 -875 
Q 178 -694 289 -575 
Q 400 -456 563 -456 
Q 719 -456 814 -556 
Q 909 -656 913 -866 
Q 916 -984 941 -1019 
Q 966 -1053 1013 -1053 
Q 1088 -1053 1172 -963 
Q 1297 -831 1466 -363 
L 1556 -119 
z
" transform="scale(0.015625)"/>
      <path id="TimesNewRomanPS-BoldMT-70" d="M 1347 297 
L 1347 -791 
Q 1347 -1016 1383 -1097 
Q 1419 -1178 1494 -1215 
Q 1569 -1253 1788 -1253 
L 1788 -1369 
L 122 -1369 
L 122 -1253 
Q 316 -1247 409 -1144 
Q 472 -1072 472 -772 
L 472 2313 
Q 472 2622 400 2708 
Q 328 2794 122 2806 
L 122 2922 
L 1347 2922 
L 1347 2538 
Q 1500 2763 1659 2863 
Q 1888 3009 2156 3009 
Q 2478 3009 2742 2806 
Q 3006 2603 3143 2245 
Q 3281 1888 3281 1475 
Q 3281 1031 3139 664 
Q 2997 297 2726 104 
Q 2456 -88 2125 -88 
Q 1884 -88 1675 19 
Q 1519 100 1347 297 
z
M 1347 613 
Q 1616 231 1922 231 
Q 2091 231 2200 409 
Q 2363 672 2363 1409 
Q 2363 2166 2184 2444 
Q 2066 2628 1866 2628 
Q 1550 2628 1347 2172 
L 1347 613 
z
" transform="scale(0.015625)"/>
      <path id="TimesNewRomanPS-BoldMT-54" d="M 4038 4238 
L 4038 3091 
L 3925 3091 
Q 3825 3488 3703 3661 
Q 3581 3834 3369 3938 
Q 3250 3994 2953 3994 
L 2638 3994 
L 2638 725 
Q 2638 400 2673 319 
Q 2709 238 2814 177 
Q 2919 116 3100 116 
L 3241 116 
L 3241 0 
L 1022 0 
L 1022 116 
L 1163 116 
Q 1347 116 1459 181 
Q 1541 225 1588 331 
Q 1622 406 1622 725 
L 1622 3994 
L 1316 3994 
Q 888 3994 694 3813 
Q 422 3559 350 3091 
L 231 3091 
L 231 4238 
L 4038 4238 
z
" transform="scale(0.015625)"/>
      <path id="TimesNewRomanPS-BoldMT-28" d="M 2056 4334 
L 2056 4191 
Q 1731 3978 1578 3775 
Q 1366 3494 1247 3053 
Q 1097 2506 1097 1525 
Q 1097 600 1233 87 
Q 1369 -425 1603 -741 
Q 1766 -959 2056 -1125 
L 2056 -1281 
Q 1303 -1028 779 -248 
Q 256 531 256 1544 
Q 256 2544 778 3314 
Q 1300 4084 2056 4334 
z
" transform="scale(0.015625)"/>
      <path id="TimesNewRomanPS-BoldMT-68" d="M 1409 4238 
L 1409 2547 
Q 1650 2800 1850 2904 
Q 2050 3009 2266 3009 
Q 2541 3009 2736 2853 
Q 2931 2697 2995 2486 
Q 3059 2275 3059 1775 
L 3059 634 
Q 3059 300 3121 217 
Q 3184 134 3375 113 
L 3375 0 
L 1894 0 
L 1894 113 
Q 2050 134 2128 238 
Q 2184 319 2184 634 
L 2184 1938 
Q 2184 2300 2156 2392 
Q 2128 2484 2061 2536 
Q 1994 2588 1909 2588 
Q 1784 2588 1665 2502 
Q 1547 2416 1409 2200 
L 1409 634 
Q 1409 322 1456 244 
Q 1516 138 1700 113 
L 1700 0 
L 219 0 
L 219 113 
Q 403 131 481 231 
Q 534 300 534 634 
L 534 3603 
Q 534 3934 473 4015 
Q 413 4097 219 4122 
L 219 4238 
L 1409 4238 
z
" transform="scale(0.015625)"/>
      <path id="TimesNewRomanPS-BoldMT-64" d="M 3056 4238 
L 3056 875 
Q 3056 534 3075 472 
Q 3100 369 3170 319 
Q 3241 269 3416 256 
L 3416 153 
L 2181 -88 
L 2181 375 
Q 1959 106 1786 9 
Q 1613 -88 1394 -88 
Q 834 -88 509 413 
Q 247 819 247 1409 
Q 247 1881 409 2254 
Q 572 2628 855 2818 
Q 1138 3009 1463 3009 
Q 1672 3009 1834 2928 
Q 1997 2847 2181 2644 
L 2181 3525 
Q 2181 3859 2153 3928 
Q 2116 4019 2041 4062 
Q 1966 4106 1759 4106 
L 1759 4238 
L 3056 4238 
z
M 2181 2256 
Q 1950 2700 1616 2700 
Q 1500 2700 1425 2638 
Q 1309 2541 1236 2297 
Q 1163 2053 1163 1550 
Q 1163 997 1244 731 
Q 1325 466 1466 347 
Q 1538 288 1663 288 
Q 1938 288 2181 719 
L 2181 2256 
z
" transform="scale(0.015625)"/>
      <path id="TimesNewRomanPS-BoldMT-55" d="M 150 4238 
L 2338 4238 
L 2338 4122 
L 2228 4122 
Q 1981 4122 1889 4070 
Q 1797 4019 1758 3928 
Q 1719 3838 1719 3475 
L 1719 1400 
Q 1719 831 1805 647 
Q 1891 463 2087 341 
Q 2284 219 2584 219 
Q 2928 219 3170 373 
Q 3413 528 3533 800 
Q 3653 1072 3653 1747 
L 3653 3475 
Q 3653 3759 3593 3881 
Q 3534 4003 3444 4050 
Q 3303 4122 3047 4122 
L 3047 4238 
L 4513 4238 
L 4513 4122 
L 4425 4122 
Q 4247 4122 4128 4050 
Q 4009 3978 3956 3834 
Q 3916 3734 3916 3475 
L 3916 1866 
Q 3916 1119 3817 787 
Q 3719 456 3337 178 
Q 2956 -100 2297 -100 
Q 1747 -100 1447 47 
Q 1038 247 869 559 
Q 700 872 700 1400 
L 700 3475 
Q 700 3841 659 3930 
Q 619 4019 519 4072 
Q 419 4125 150 4122 
L 150 4238 
z
" transform="scale(0.015625)"/>
      <path id="TimesNewRomanPS-BoldMT-53" d="M 3006 4334 
L 3041 2922 
L 2913 2922 
Q 2822 3453 2467 3776 
Q 2113 4100 1700 4100 
Q 1381 4100 1195 3929 
Q 1009 3759 1009 3538 
Q 1009 3397 1075 3288 
Q 1166 3141 1366 2997 
Q 1513 2894 2044 2631 
Q 2788 2266 3047 1941 
Q 3303 1616 3303 1197 
Q 3303 666 2889 283 
Q 2475 -100 1838 -100 
Q 1638 -100 1459 -59 
Q 1281 -19 1013 94 
Q 863 156 766 156 
Q 684 156 593 93 
Q 503 31 447 -97 
L 331 -97 
L 331 1503 
L 447 1503 
Q 584 828 976 473 
Q 1369 119 1822 119 
Q 2172 119 2380 309 
Q 2588 500 2588 753 
Q 2588 903 2508 1043 
Q 2428 1184 2265 1311 
Q 2103 1438 1691 1641 
Q 1113 1925 859 2125 
Q 606 2325 470 2572 
Q 334 2819 334 3116 
Q 334 3622 706 3978 
Q 1078 4334 1644 4334 
Q 1850 4334 2044 4284 
Q 2191 4247 2402 4145 
Q 2613 4044 2697 4044 
Q 2778 4044 2825 4094 
Q 2872 4144 2913 4334 
L 3006 4334 
z
" transform="scale(0.015625)"/>
      <path id="TimesNewRomanPS-BoldMT-44" d="M 84 0 
L 84 116 
L 225 116 
Q 409 116 507 173 
Q 606 231 653 331 
Q 681 397 681 725 
L 681 3513 
Q 681 3838 647 3919 
Q 613 4000 508 4061 
Q 403 4122 225 4122 
L 84 4122 
L 84 4238 
L 1981 4238 
Q 2741 4238 3203 4031 
Q 3769 3778 4061 3265 
Q 4353 2753 4353 2106 
Q 4353 1659 4209 1282 
Q 4066 906 3837 661 
Q 3609 416 3311 267 
Q 3013 119 2581 38 
Q 2391 0 1981 0 
L 84 0 
z
M 1700 3997 
L 1700 691 
Q 1700 428 1725 368 
Q 1750 309 1809 278 
Q 1894 231 2053 231 
Q 2575 231 2850 588 
Q 3225 1069 3225 2081 
Q 3225 2897 2969 3384 
Q 2766 3766 2447 3903 
Q 2222 4000 1700 3997 
z
" transform="scale(0.015625)"/>
      <path id="TimesNewRomanPS-BoldMT-29" d="M 78 -1281 
L 78 -1138 
Q 403 -922 556 -719 
Q 766 -438 888 0 
Q 1038 550 1038 1531 
Q 1038 2456 902 2967 
Q 766 3478 531 3794 
Q 369 4013 78 4178 
L 78 4334 
Q 831 4081 1354 3301 
Q 1878 2522 1878 1509 
Q 1878 513 1354 -257 
Q 831 -1028 78 -1281 
z
" transform="scale(0.015625)"/>
     </defs>
     <use xlink:href="#TimesNewRomanPS-BoldMT-56"/>
     <use xlink:href="#TimesNewRomanPS-BoldMT-69" x="68.466797"/>
     <use xlink:href="#TimesNewRomanPS-BoldMT-72" x="96.25"/>
     <use xlink:href="#TimesNewRomanPS-BoldMT-74" x="140.634766"/>
     <use xlink:href="#TimesNewRomanPS-BoldMT-75" x="173.935547"/>
     <use xlink:href="#TimesNewRomanPS-BoldMT-61" x="229.550781"/>
     <use xlink:href="#TimesNewRomanPS-BoldMT-6c" x="279.550781"/>
     <use xlink:href="#TimesNewRomanPS-BoldMT-20" x="307.333984"/>
     <use xlink:href="#TimesNewRomanPS-BoldMT-48" x="332.333984"/>
     <use xlink:href="#TimesNewRomanPS-BoldMT-6f" x="410.117188"/>
     <use xlink:href="#TimesNewRomanPS-BoldMT-75" x="460.117188"/>
     <use xlink:href="#TimesNewRomanPS-BoldMT-73" x="515.732422"/>
     <use xlink:href="#TimesNewRomanPS-BoldMT-69" x="554.648438"/>
     <use xlink:href="#TimesNewRomanPS-BoldMT-6e" x="582.431641"/>
     <use xlink:href="#TimesNewRomanPS-BoldMT-67" x="638.046875"/>
     <use xlink:href="#TimesNewRomanPS-BoldMT-20" x="688.046875"/>
     <use xlink:href="#TimesNewRomanPS-BoldMT-50" x="713.046875"/>
     <use xlink:href="#TimesNewRomanPS-BoldMT-72" x="774.130859"/>
     <use xlink:href="#TimesNewRomanPS-BoldMT-69" x="818.515625"/>
     <use xlink:href="#TimesNewRomanPS-BoldMT-63" x="846.298828"/>
     <use xlink:href="#TimesNewRomanPS-BoldMT-65" x="890.683594"/>
     <use xlink:href="#TimesNewRomanPS-BoldMT-73" x="935.068359"/>
     <use xlink:href="#TimesNewRomanPS-BoldMT-20" x="973.984375"/>
     <use xlink:href="#TimesNewRomanPS-BoldMT-62" x="998.984375"/>
     <use xlink:href="#TimesNewRomanPS-BoldMT-79" x="1054.599609"/>
     <use xlink:href="#TimesNewRomanPS-BoldMT-20" x="1104.599609"/>
     <use xlink:href="#TimesNewRomanPS-BoldMT-50" x="1129.599609"/>
     <use xlink:href="#TimesNewRomanPS-BoldMT-72" x="1190.683594"/>
     <use xlink:href="#TimesNewRomanPS-BoldMT-6f" x="1233.318359"/>
     <use xlink:href="#TimesNewRomanPS-BoldMT-70" x="1283.318359"/>
     <use xlink:href="#TimesNewRomanPS-BoldMT-65" x="1338.933594"/>
     <use xlink:href="#TimesNewRomanPS-BoldMT-72" x="1383.318359"/>
     <use xlink:href="#TimesNewRomanPS-BoldMT-74" x="1427.703125"/>
     <use xlink:href="#TimesNewRomanPS-BoldMT-79" x="1461.003906"/>
     <use xlink:href="#TimesNewRomanPS-BoldMT-20" x="1511.003906"/>
     <use xlink:href="#TimesNewRomanPS-BoldMT-54" x="1534.253906"/>
     <use xlink:href="#TimesNewRomanPS-BoldMT-79" x="1593.578125"/>
     <use xlink:href="#TimesNewRomanPS-BoldMT-70" x="1643.578125"/>
     <use xlink:href="#TimesNewRomanPS-BoldMT-65" x="1699.193359"/>
     <use xlink:href="#TimesNewRomanPS-BoldMT-20" x="1743.578125"/>
     <use xlink:href="#TimesNewRomanPS-BoldMT-28" x="1768.578125"/>
     <use xlink:href="#TimesNewRomanPS-BoldMT-74" x="1801.878906"/>
     <use xlink:href="#TimesNewRomanPS-BoldMT-68" x="1835.179688"/>
     <use xlink:href="#TimesNewRomanPS-BoldMT-6f" x="1890.794922"/>
     <use xlink:href="#TimesNewRomanPS-BoldMT-75" x="1940.794922"/>
     <use xlink:href="#TimesNewRomanPS-BoldMT-73" x="1996.410156"/>
     <use xlink:href="#TimesNewRomanPS-BoldMT-61" x="2035.326172"/>
     <use xlink:href="#TimesNewRomanPS-BoldMT-6e" x="2085.326172"/>
     <use xlink:href="#TimesNewRomanPS-BoldMT-64" x="2140.941406"/>
     <use xlink:href="#TimesNewRomanPS-BoldMT-20" x="2196.556641"/>
     <use xlink:href="#TimesNewRomanPS-BoldMT-55" x="2221.556641"/>
     <use xlink:href="#TimesNewRomanPS-BoldMT-53" x="2293.773438"/>
     <use xlink:href="#TimesNewRomanPS-BoldMT-44" x="2349.388672"/>
     <use xlink:href="#TimesNewRomanPS-BoldMT-29" x="2421.605469"/>
    </g>
   </g>
  </g>
 </g>
 <defs>
  <clipPath id="pdf907c27e7">
   <rect x="50.915938" y="30.045" width="376.8" height="224.570114"/>
  </clipPath>
 </defs>
</svg>
