<?xml version="1.0" encoding="utf-8" standalone="no"?>
<!DOCTYPE svg PUBLIC "-//W3C//DTD SVG 1.1//EN"
  "http://www.w3.org/Graphics/SVG/1.1/DTD/svg11.dtd">
<svg xmlns:xlink="http://www.w3.org/1999/xlink" width="439.215937pt" height="319.929653pt" viewBox="0 0 439.215937 319.929653" xmlns="http://www.w3.org/2000/svg" version="1.1">
 <metadata>
  <rdf:RDF xmlns:dc="http://purl.org/dc/elements/1.1/" xmlns:cc="http://creativecommons.org/ns#" xmlns:rdf="http://www.w3.org/1999/02/22-rdf-syntax-ns#">
   <cc:Work>
    <dc:type rdf:resource="http://purl.org/dc/dcmitype/StillImage"/>
    <dc:date>2025-05-26T17:03:00.614195</dc:date>
    <dc:format>image/svg+xml</dc:format>
    <dc:creator>
     <cc:Agent>
      <dc:title>Matplotlib v3.7.2, https://matplotlib.org/</dc:title>
     </cc:Agent>
    </dc:creator>
   </cc:Work>
  </rdf:RDF>
 </metadata>
 <defs>
  <style type="text/css">*{stroke-linejoin: round; stroke-linecap: butt}</style>
 </defs>
 <g id="figure_1">
  <g id="patch_1">
   <path d="M 0 319.929653 
L 439.215937 319.929653 
L 439.215937 0 
L 0 0 
z
" style="fill: #ffffff"/>
  </g>
  <g id="axes_1">
   <g id="patch_2">
    <path d="M 45.915937 259.854775 
L 427.725938 259.854775 
L 427.725938 30.045 
L 45.915937 30.045 
z
" style="fill: #ffffff"/>
   </g>
   <g id="PolyCollection_1">
    <defs>
     <path id="mca7bb61c06" d="M 128.837493 -70.520777 
L 90.264382 -70.520777 
L 87.687127 -72.12155 
L 85.011856 -73.722323 
L 82.275996 -75.323096 
L 79.520786 -76.923869 
L 76.789869 -78.524642 
L 74.127715 -80.125415 
L 71.577958 -81.726188 
L 69.181759 -83.326961 
L 66.976283 -84.927733 
L 64.993408 -86.528506 
L 63.258736 -88.129279 
L 61.790997 -89.730052 
L 60.60187 -91.330825 
L 59.696237 -92.931598 
L 59.07283 -94.532371 
L 58.725207 -96.133144 
L 58.642938 -97.733917 
L 58.812869 -99.33469 
L 59.220335 -100.935463 
L 59.850154 -102.536236 
L 60.687324 -104.137009 
L 61.717331 -105.737781 
L 62.926065 -107.338554 
L 64.299375 -108.939327 
L 65.822375 -110.5401 
L 67.478615 -112.140873 
L 69.249299 -113.741646 
L 71.11269 -115.342419 
L 73.043846 -116.943192 
L 75.014772 -118.543965 
L 76.99503 -120.144738 
L 78.952776 -121.745511 
L 80.856137 -123.346284 
L 82.674803 -124.947057 
L 84.381673 -126.54783 
L 85.954381 -128.148602 
L 87.376552 -129.749375 
L 88.638659 -131.350148 
L 89.738399 -132.950921 
L 90.680547 -134.551694 
L 91.476317 -136.152467 
L 92.142295 -137.75324 
L 92.699037 -139.354013 
L 93.16948 -140.954786 
L 93.577288 -142.555559 
L 93.945295 -144.156332 
L 94.294142 -145.757105 
L 94.641225 -147.357878 
L 95.000006 -148.95865 
L 95.379707 -150.559423 
L 95.785381 -152.160196 
L 96.218297 -153.760969 
L 96.676577 -155.361742 
L 97.155977 -156.962515 
L 97.650731 -158.563288 
L 98.154357 -160.164061 
L 98.660353 -161.764834 
L 99.162735 -163.365607 
L 99.656394 -164.96638 
L 100.13727 -166.567153 
L 100.602366 -168.167926 
L 101.049651 -169.768699 
L 101.477886 -171.369471 
L 101.88643 -172.970244 
L 102.275056 -174.571017 
L 102.643809 -176.17179 
L 102.992913 -177.772563 
L 103.322727 -179.373336 
L 103.633737 -180.974109 
L 103.926566 -182.574882 
L 104.201971 -184.175655 
L 104.460833 -185.776428 
L 104.704101 -187.377201 
L 104.932723 -188.977974 
L 105.14754 -190.578747 
L 105.34919 -192.179519 
L 105.538022 -193.780292 
L 105.714047 -195.381065 
L 105.876948 -196.981838 
L 106.02614 -198.582611 
L 106.160895 -200.183384 
L 106.280518 -201.784157 
L 106.384534 -203.38493 
L 106.472894 -204.985703 
L 106.546139 -206.586476 
L 106.605519 -208.187249 
L 106.653041 -209.788022 
L 106.691437 -211.388795 
L 106.724049 -212.989568 
L 106.754651 -214.59034 
L 106.787209 -216.191113 
L 106.825624 -217.791886 
L 106.873464 -219.392659 
L 106.933722 -220.993432 
L 107.008617 -222.594205 
L 107.09946 -224.194978 
L 107.206584 -225.795751 
L 107.329347 -227.396524 
L 107.466208 -228.997297 
L 111.635667 -228.997297 
L 111.635667 -228.997297 
L 111.772528 -227.396524 
L 111.895291 -225.795751 
L 112.002415 -224.194978 
L 112.093258 -222.594205 
L 112.168153 -220.993432 
L 112.228411 -219.392659 
L 112.276251 -217.791886 
L 112.314666 -216.191113 
L 112.347224 -214.59034 
L 112.377826 -212.989568 
L 112.410438 -211.388795 
L 112.448834 -209.788022 
L 112.496356 -208.187249 
L 112.555736 -206.586476 
L 112.628981 -204.985703 
L 112.717341 -203.38493 
L 112.821357 -201.784157 
L 112.94098 -200.183384 
L 113.075735 -198.582611 
L 113.224927 -196.981838 
L 113.387828 -195.381065 
L 113.563853 -193.780292 
L 113.752685 -192.179519 
L 113.954335 -190.578747 
L 114.169152 -188.977974 
L 114.397774 -187.377201 
L 114.641042 -185.776428 
L 114.899904 -184.175655 
L 115.175309 -182.574882 
L 115.468138 -180.974109 
L 115.779148 -179.373336 
L 116.108962 -177.772563 
L 116.458066 -176.17179 
L 116.826819 -174.571017 
L 117.215445 -172.970244 
L 117.623989 -171.369471 
L 118.052224 -169.768699 
L 118.499509 -168.167926 
L 118.964605 -166.567153 
L 119.445481 -164.96638 
L 119.93914 -163.365607 
L 120.441522 -161.764834 
L 120.947518 -160.164061 
L 121.451144 -158.563288 
L 121.945898 -156.962515 
L 122.425298 -155.361742 
L 122.883578 -153.760969 
L 123.316494 -152.160196 
L 123.722168 -150.559423 
L 124.101869 -148.95865 
L 124.46065 -147.357878 
L 124.807733 -145.757105 
L 125.15658 -144.156332 
L 125.524587 -142.555559 
L 125.932395 -140.954786 
L 126.402838 -139.354013 
L 126.95958 -137.75324 
L 127.625558 -136.152467 
L 128.421328 -134.551694 
L 129.363476 -132.950921 
L 130.463216 -131.350148 
L 131.725323 -129.749375 
L 133.147494 -128.148602 
L 134.720202 -126.54783 
L 136.427072 -124.947057 
L 138.245738 -123.346284 
L 140.149099 -121.745511 
L 142.106845 -120.144738 
L 144.087103 -118.543965 
L 146.058029 -116.943192 
L 147.989185 -115.342419 
L 149.852576 -113.741646 
L 151.62326 -112.140873 
L 153.2795 -110.5401 
L 154.8025 -108.939327 
L 156.17581 -107.338554 
L 157.384544 -105.737781 
L 158.414551 -104.137009 
L 159.251721 -102.536236 
L 159.88154 -100.935463 
L 160.289006 -99.33469 
L 160.458937 -97.733917 
L 160.376668 -96.133144 
L 160.029045 -94.532371 
L 159.405638 -92.931598 
L 158.500005 -91.330825 
L 157.310878 -89.730052 
L 155.843139 -88.129279 
L 154.108467 -86.528506 
L 152.125592 -84.927733 
L 149.920116 -83.326961 
L 147.523917 -81.726188 
L 144.97416 -80.125415 
L 142.312006 -78.524642 
L 139.581089 -76.923869 
L 136.825879 -75.323096 
L 134.090019 -73.722323 
L 131.414748 -72.12155 
L 128.837493 -70.520777 
z
" style="stroke: #000000; stroke-opacity: 0.7"/>
    </defs>
    <g clip-path="url(#p644a5002fd)">
     <use xlink:href="#mca7bb61c06" x="0" y="319.929653" style="fill: #e78ac3; fill-opacity: 0.7; stroke: #000000; stroke-opacity: 0.7"/>
    </g>
   </g>
   <g id="PolyCollection_2">
    <defs>
     <path id="m24b908d5de" d="M 246.076 -76.920067 
L 227.565875 -76.920067 
L 226.135848 -78.167225 
L 224.576559 -79.414383 
L 222.894048 -80.661541 
L 221.097722 -81.908699 
L 219.200246 -83.155857 
L 217.217263 -84.403015 
L 215.166945 -85.650173 
L 213.069392 -86.897331 
L 210.945935 -88.144489 
L 208.818384 -89.391647 
L 206.70827 -90.638805 
L 204.636157 -91.885963 
L 202.621043 -93.133121 
L 200.679922 -94.380279 
L 198.827493 -95.627437 
L 197.076054 -96.874595 
L 195.435541 -98.121753 
L 193.913714 -99.368911 
L 192.516421 -100.616069 
L 191.247933 -101.863227 
L 190.111283 -103.110385 
L 189.108584 -104.357543 
L 188.241294 -105.604701 
L 187.510407 -106.851859 
L 186.916573 -108.099017 
L 186.460131 -109.346175 
L 186.14108 -110.593333 
L 185.959001 -111.840491 
L 185.912938 -113.087649 
L 186.001264 -114.334807 
L 186.221554 -115.581965 
L 186.570459 -116.829123 
L 187.04361 -118.076281 
L 187.635548 -119.323439 
L 188.339676 -120.570597 
L 189.14825 -121.817755 
L 190.052386 -123.064913 
L 191.042094 -124.312071 
L 192.106326 -125.559229 
L 193.233039 -126.806387 
L 194.409266 -128.053545 
L 195.621206 -129.300703 
L 196.854329 -130.547861 
L 198.093507 -131.795019 
L 199.323183 -133.042177 
L 200.527596 -134.289335 
L 201.69106 -135.536493 
L 202.79833 -136.783651 
L 203.835031 -138.030809 
L 204.788165 -139.277967 
L 205.646669 -140.525125 
L 206.401994 -141.772283 
L 207.048669 -143.019441 
L 207.584798 -144.266599 
L 208.012444 -145.513757 
L 208.337836 -146.760915 
L 208.571376 -148.008073 
L 208.727402 -149.255231 
L 208.823707 -150.502389 
L 208.880822 -151.749547 
L 208.921101 -152.996705 
L 208.967661 -154.243863 
L 209.043246 -155.491021 
L 209.169106 -156.738179 
L 209.363957 -157.985337 
L 209.643108 -159.232495 
L 210.017815 -160.479653 
L 210.494894 -161.726811 
L 211.076627 -162.973969 
L 211.760929 -164.221127 
L 212.541767 -165.468285 
L 213.40976 -166.715443 
L 214.352914 -167.962601 
L 215.357405 -169.209759 
L 216.408361 -170.456917 
L 217.490574 -171.704075 
L 218.589098 -172.951233 
L 219.689729 -174.198391 
L 220.779332 -175.445549 
L 221.84605 -176.692707 
L 222.879415 -177.939865 
L 223.87038 -179.187023 
L 224.811322 -180.434181 
L 225.696035 -181.681339 
L 226.519735 -182.928497 
L 227.279093 -184.175655 
L 227.972278 -185.422813 
L 228.599018 -186.669971 
L 229.160637 -187.917129 
L 229.660059 -189.164287 
L 230.101742 -190.411445 
L 230.491538 -191.658603 
L 230.836462 -192.905761 
L 231.144375 -194.152919 
L 231.423595 -195.400077 
L 231.682468 -196.647235 
L 231.928917 -197.894393 
L 232.170028 -199.141551 
L 232.411688 -200.388709 
L 241.230187 -200.388709 
L 241.230187 -200.388709 
L 241.471847 -199.141551 
L 241.712958 -197.894393 
L 241.959407 -196.647235 
L 242.21828 -195.400077 
L 242.4975 -194.152919 
L 242.805413 -192.905761 
L 243.150337 -191.658603 
L 243.540133 -190.411445 
L 243.981816 -189.164287 
L 244.481238 -187.917129 
L 245.042857 -186.669971 
L 245.669597 -185.422813 
L 246.362782 -184.175655 
L 247.12214 -182.928497 
L 247.94584 -181.681339 
L 248.830553 -180.434181 
L 249.771495 -179.187023 
L 250.76246 -177.939865 
L 251.795825 -176.692707 
L 252.862543 -175.445549 
L 253.952146 -174.198391 
L 255.052777 -172.951233 
L 256.151301 -171.704075 
L 257.233514 -170.456917 
L 258.28447 -169.209759 
L 259.288961 -167.962601 
L 260.232115 -166.715443 
L 261.100108 -165.468285 
L 261.880946 -164.221127 
L 262.565248 -162.973969 
L 263.146981 -161.726811 
L 263.62406 -160.479653 
L 263.998767 -159.232495 
L 264.277918 -157.985337 
L 264.472769 -156.738179 
L 264.598629 -155.491021 
L 264.674214 -154.243863 
L 264.720774 -152.996705 
L 264.761053 -151.749547 
L 264.818168 -150.502389 
L 264.914473 -149.255231 
L 265.070499 -148.008073 
L 265.304039 -146.760915 
L 265.629431 -145.513757 
L 266.057077 -144.266599 
L 266.593206 -143.019441 
L 267.239881 -141.772283 
L 267.995206 -140.525125 
L 268.85371 -139.277967 
L 269.806844 -138.030809 
L 270.843545 -136.783651 
L 271.950815 -135.536493 
L 273.114279 -134.289335 
L 274.318692 -133.042177 
L 275.548368 -131.795019 
L 276.787546 -130.547861 
L 278.020669 -129.300703 
L 279.232609 -128.053545 
L 280.408836 -126.806387 
L 281.535549 -125.559229 
L 282.599781 -124.312071 
L 283.589489 -123.064913 
L 284.493625 -121.817755 
L 285.302199 -120.570597 
L 286.006327 -119.323439 
L 286.598265 -118.076281 
L 287.071416 -116.829123 
L 287.420321 -115.581965 
L 287.640611 -114.334807 
L 287.728938 -113.087649 
L 287.682874 -111.840491 
L 287.500795 -110.593333 
L 287.181744 -109.346175 
L 286.725302 -108.099017 
L 286.131468 -106.851859 
L 285.400581 -105.604701 
L 284.533291 -104.357543 
L 283.530592 -103.110385 
L 282.393942 -101.863227 
L 281.125454 -100.616069 
L 279.728161 -99.368911 
L 278.206334 -98.121753 
L 276.565821 -96.874595 
L 274.814382 -95.627437 
L 272.961953 -94.380279 
L 271.020832 -93.133121 
L 269.005718 -91.885963 
L 266.933605 -90.638805 
L 264.823491 -89.391647 
L 262.69594 -88.144489 
L 260.572483 -86.897331 
L 258.47493 -85.650173 
L 256.424612 -84.403015 
L 254.441629 -83.155857 
L 252.544153 -81.908699 
L 250.747827 -80.661541 
L 249.065316 -79.414383 
L 247.506027 -78.167225 
L 246.076 -76.920067 
z
" style="stroke: #000000; stroke-opacity: 0.7"/>
    </defs>
    <g clip-path="url(#p644a5002fd)">
     <use xlink:href="#m24b908d5de" x="0" y="319.929653" style="fill: #98df8a; fill-opacity: 0.7; stroke: #000000; stroke-opacity: 0.7"/>
    </g>
   </g>
   <g id="PolyCollection_3">
    <defs>
     <path id="m1a2a559a1b" d="M 378.133115 -76.920067 
L 350.04876 -76.920067 
L 348.149343 -78.96571 
L 346.14481 -81.011353 
L 344.05191 -83.056996 
L 341.889703 -85.10264 
L 339.679057 -87.148283 
L 337.442082 -89.193926 
L 335.201563 -91.23957 
L 332.980403 -93.285213 
L 330.801106 -95.330856 
L 328.685308 -97.3765 
L 326.653376 -99.422143 
L 324.724059 -101.467786 
L 322.914198 -103.51343 
L 321.238474 -105.559073 
L 319.709197 -107.604716 
L 318.336106 -109.650359 
L 317.126195 -111.696003 
L 316.083563 -113.741646 
L 315.209287 -115.787289 
L 314.501362 -117.832933 
L 313.954708 -119.878576 
L 313.561303 -121.924219 
L 313.310446 -123.969863 
L 313.189188 -126.015506 
L 313.182938 -128.061149 
L 313.276209 -130.106793 
L 313.453505 -132.152436 
L 313.700246 -134.198079 
L 314.003678 -136.243723 
L 314.353674 -138.289366 
L 314.743315 -140.335009 
L 315.169195 -142.380652 
L 315.631382 -144.426296 
L 316.133025 -146.471939 
L 316.679636 -148.517582 
L 317.278108 -150.563226 
L 317.935572 -152.608869 
L 318.658234 -154.654512 
L 319.4503 -156.700156 
L 320.313129 -158.745799 
L 321.244709 -160.791442 
L 322.239504 -162.837086 
L 323.288694 -164.882729 
L 324.380775 -166.928372 
L 325.502447 -168.974016 
L 326.639686 -171.019659 
L 327.77889 -173.065302 
L 328.907981 -175.110945 
L 330.017339 -177.156589 
L 331.1005 -179.202232 
L 332.154547 -181.247875 
L 333.18016 -183.293519 
L 334.18134 -185.339162 
L 335.164831 -187.384805 
L 336.139302 -189.430449 
L 337.114365 -191.476092 
L 338.099508 -193.521735 
L 339.103056 -195.567379 
L 340.131224 -197.613022 
L 341.187363 -199.658665 
L 342.271438 -201.704309 
L 343.379806 -203.749952 
L 344.505282 -205.795595 
L 345.637508 -207.841238 
L 346.763583 -209.886882 
L 347.868895 -211.932525 
L 348.9381 -213.978168 
L 349.956159 -216.023812 
L 350.909358 -218.069455 
L 351.786224 -220.115098 
L 352.578275 -222.160742 
L 353.280549 -224.206385 
L 353.891869 -226.252028 
L 354.414839 -228.297672 
L 354.855568 -230.343315 
L 355.223158 -232.388958 
L 355.528993 -234.434601 
L 355.785901 -236.480245 
L 356.007249 -238.525888 
L 356.206057 -240.571531 
L 356.394196 -242.617175 
L 356.581735 -244.662818 
L 356.77648 -246.708461 
L 356.983748 -248.754105 
L 357.206361 -250.799748 
L 357.444861 -252.845391 
L 357.697895 -254.891035 
L 357.962723 -256.936678 
L 358.235795 -258.982321 
L 358.513305 -261.027965 
L 358.791696 -263.073608 
L 359.068042 -265.119251 
L 359.34029 -267.164894 
L 359.607345 -269.210538 
L 359.869008 -271.256181 
L 360.125798 -273.301824 
L 360.378685 -275.347468 
L 360.628786 -277.393111 
L 360.877075 -279.438754 
L 367.3048 -279.438754 
L 367.3048 -279.438754 
L 367.553089 -277.393111 
L 367.80319 -275.347468 
L 368.056077 -273.301824 
L 368.312867 -271.256181 
L 368.57453 -269.210538 
L 368.841585 -267.164894 
L 369.113833 -265.119251 
L 369.390179 -263.073608 
L 369.66857 -261.027965 
L 369.94608 -258.982321 
L 370.219152 -256.936678 
L 370.48398 -254.891035 
L 370.737014 -252.845391 
L 370.975514 -250.799748 
L 371.198127 -248.754105 
L 371.405395 -246.708461 
L 371.60014 -244.662818 
L 371.787679 -242.617175 
L 371.975818 -240.571531 
L 372.174626 -238.525888 
L 372.395974 -236.480245 
L 372.652882 -234.434601 
L 372.958717 -232.388958 
L 373.326307 -230.343315 
L 373.767036 -228.297672 
L 374.290006 -226.252028 
L 374.901326 -224.206385 
L 375.6036 -222.160742 
L 376.395651 -220.115098 
L 377.272517 -218.069455 
L 378.225716 -216.023812 
L 379.243775 -213.978168 
L 380.31298 -211.932525 
L 381.418292 -209.886882 
L 382.544367 -207.841238 
L 383.676593 -205.795595 
L 384.802069 -203.749952 
L 385.910437 -201.704309 
L 386.994512 -199.658665 
L 388.050651 -197.613022 
L 389.078819 -195.567379 
L 390.082367 -193.521735 
L 391.06751 -191.476092 
L 392.042573 -189.430449 
L 393.017044 -187.384805 
L 394.000535 -185.339162 
L 395.001715 -183.293519 
L 396.027328 -181.247875 
L 397.081375 -179.202232 
L 398.164536 -177.156589 
L 399.273894 -175.110945 
L 400.402985 -173.065302 
L 401.542189 -171.019659 
L 402.679428 -168.974016 
L 403.8011 -166.928372 
L 404.893181 -164.882729 
L 405.942371 -162.837086 
L 406.937166 -160.791442 
L 407.868746 -158.745799 
L 408.731575 -156.700156 
L 409.523641 -154.654512 
L 410.246303 -152.608869 
L 410.903767 -150.563226 
L 411.502239 -148.517582 
L 412.04885 -146.471939 
L 412.550493 -144.426296 
L 413.01268 -142.380652 
L 413.43856 -140.335009 
L 413.828201 -138.289366 
L 414.178197 -136.243723 
L 414.481629 -134.198079 
L 414.72837 -132.152436 
L 414.905666 -130.106793 
L 414.998938 -128.061149 
L 414.992687 -126.015506 
L 414.871429 -123.969863 
L 414.620572 -121.924219 
L 414.227167 -119.878576 
L 413.680513 -117.832933 
L 412.972588 -115.787289 
L 412.098312 -113.741646 
L 411.05568 -111.696003 
L 409.845769 -109.650359 
L 408.472678 -107.604716 
L 406.943401 -105.559073 
L 405.267677 -103.51343 
L 403.457816 -101.467786 
L 401.528499 -99.422143 
L 399.496567 -97.3765 
L 397.380769 -95.330856 
L 395.201472 -93.285213 
L 392.980312 -91.23957 
L 390.739793 -89.193926 
L 388.502818 -87.148283 
L 386.292172 -85.10264 
L 384.129965 -83.056996 
L 382.037065 -81.011353 
L 380.032532 -78.96571 
L 378.133115 -76.920067 
z
" style="stroke: #000000; stroke-opacity: 0.7"/>
    </defs>
    <g clip-path="url(#p644a5002fd)">
     <use xlink:href="#m1a2a559a1b" x="0" y="319.929653" style="fill: #aec7e8; fill-opacity: 0.7; stroke: #000000; stroke-opacity: 0.7"/>
    </g>
   </g>
   <g id="matplotlib.axis_1">
    <g id="xtick_1">
     <g id="line2d_1">
      <defs>
       <path id="mfcd9586fce" d="M 0 0 
L 0 3.5 
" style="stroke: #000000; stroke-width: 0.8"/>
      </defs>
      <g>
       <use xlink:href="#mfcd9586fce" x="109.550938" y="259.854775" style="stroke: #000000; stroke-width: 0.8"/>
      </g>
     </g>
     <g id="text_1">
      <!-- Electronics -->
      <g transform="translate(69.568026 310.914598) rotate(-45) scale(0.12 -0.12)">
       <defs>
        <path id="TimesNewRomanPSMT-45" d="M 1338 4006 
L 1338 2331 
L 2269 2331 
Q 2631 2331 2753 2441 
Q 2916 2584 2934 2947 
L 3050 2947 
L 3050 1472 
L 2934 1472 
Q 2891 1781 2847 1869 
Q 2791 1978 2662 2040 
Q 2534 2103 2269 2103 
L 1338 2103 
L 1338 706 
Q 1338 425 1363 364 
Q 1388 303 1450 267 
Q 1513 231 1688 231 
L 2406 231 
Q 2766 231 2928 281 
Q 3091 331 3241 478 
Q 3434 672 3638 1063 
L 3763 1063 
L 3397 0 
L 131 0 
L 131 116 
L 281 116 
Q 431 116 566 188 
Q 666 238 702 338 
Q 738 438 738 747 
L 738 3500 
Q 738 3903 656 3997 
Q 544 4122 281 4122 
L 131 4122 
L 131 4238 
L 3397 4238 
L 3444 3309 
L 3322 3309 
Q 3256 3644 3176 3769 
Q 3097 3894 2941 3959 
Q 2816 4006 2500 4006 
L 1338 4006 
z
" transform="scale(0.015625)"/>
        <path id="TimesNewRomanPSMT-6c" d="M 1184 4444 
L 1184 647 
Q 1184 378 1223 290 
Q 1263 203 1344 158 
Q 1425 113 1647 113 
L 1647 0 
L 244 0 
L 244 113 
Q 441 113 512 153 
Q 584 194 625 287 
Q 666 381 666 647 
L 666 3247 
Q 666 3731 644 3842 
Q 622 3953 573 3993 
Q 525 4034 450 4034 
Q 369 4034 244 3984 
L 191 4094 
L 1044 4444 
L 1184 4444 
z
" transform="scale(0.015625)"/>
        <path id="TimesNewRomanPSMT-65" d="M 681 1784 
Q 678 1147 991 784 
Q 1303 422 1725 422 
Q 2006 422 2214 576 
Q 2422 731 2563 1106 
L 2659 1044 
Q 2594 616 2278 264 
Q 1963 -88 1488 -88 
Q 972 -88 605 314 
Q 238 716 238 1394 
Q 238 2128 614 2539 
Q 991 2950 1559 2950 
Q 2041 2950 2350 2633 
Q 2659 2316 2659 1784 
L 681 1784 
z
M 681 1966 
L 2006 1966 
Q 1991 2241 1941 2353 
Q 1863 2528 1708 2628 
Q 1553 2728 1384 2728 
Q 1125 2728 920 2526 
Q 716 2325 681 1966 
z
" transform="scale(0.015625)"/>
        <path id="TimesNewRomanPSMT-63" d="M 2631 1088 
Q 2516 522 2178 217 
Q 1841 -88 1431 -88 
Q 944 -88 581 321 
Q 219 731 219 1428 
Q 219 2103 620 2525 
Q 1022 2947 1584 2947 
Q 2006 2947 2278 2723 
Q 2550 2500 2550 2259 
Q 2550 2141 2473 2067 
Q 2397 1994 2259 1994 
Q 2075 1994 1981 2113 
Q 1928 2178 1911 2362 
Q 1894 2547 1784 2644 
Q 1675 2738 1481 2738 
Q 1169 2738 978 2506 
Q 725 2200 725 1697 
Q 725 1184 976 792 
Q 1228 400 1656 400 
Q 1963 400 2206 609 
Q 2378 753 2541 1131 
L 2631 1088 
z
" transform="scale(0.015625)"/>
        <path id="TimesNewRomanPSMT-74" d="M 1031 3803 
L 1031 2863 
L 1700 2863 
L 1700 2644 
L 1031 2644 
L 1031 788 
Q 1031 509 1111 412 
Q 1191 316 1316 316 
Q 1419 316 1516 380 
Q 1613 444 1666 569 
L 1788 569 
Q 1678 263 1478 108 
Q 1278 -47 1066 -47 
Q 922 -47 784 33 
Q 647 113 581 261 
Q 516 409 516 719 
L 516 2644 
L 63 2644 
L 63 2747 
Q 234 2816 414 2980 
Q 594 3144 734 3369 
Q 806 3488 934 3803 
L 1031 3803 
z
" transform="scale(0.015625)"/>
        <path id="TimesNewRomanPSMT-72" d="M 1038 2947 
L 1038 2303 
Q 1397 2947 1775 2947 
Q 1947 2947 2059 2842 
Q 2172 2738 2172 2600 
Q 2172 2478 2090 2393 
Q 2009 2309 1897 2309 
Q 1788 2309 1652 2417 
Q 1516 2525 1450 2525 
Q 1394 2525 1328 2463 
Q 1188 2334 1038 2041 
L 1038 669 
Q 1038 431 1097 309 
Q 1138 225 1241 169 
Q 1344 113 1538 113 
L 1538 0 
L 72 0 
L 72 113 
Q 291 113 397 181 
Q 475 231 506 341 
Q 522 394 522 644 
L 522 1753 
Q 522 2253 501 2348 
Q 481 2444 426 2487 
Q 372 2531 291 2531 
Q 194 2531 72 2484 
L 41 2597 
L 906 2947 
L 1038 2947 
z
" transform="scale(0.015625)"/>
        <path id="TimesNewRomanPSMT-6f" d="M 1600 2947 
Q 2250 2947 2644 2453 
Q 2978 2031 2978 1484 
Q 2978 1100 2793 706 
Q 2609 313 2286 112 
Q 1963 -88 1566 -88 
Q 919 -88 538 428 
Q 216 863 216 1403 
Q 216 1797 411 2186 
Q 606 2575 925 2761 
Q 1244 2947 1600 2947 
z
M 1503 2744 
Q 1338 2744 1170 2645 
Q 1003 2547 900 2300 
Q 797 2053 797 1666 
Q 797 1041 1045 587 
Q 1294 134 1700 134 
Q 2003 134 2200 384 
Q 2397 634 2397 1244 
Q 2397 2006 2069 2444 
Q 1847 2744 1503 2744 
z
" transform="scale(0.015625)"/>
        <path id="TimesNewRomanPSMT-6e" d="M 1034 2341 
Q 1538 2947 1994 2947 
Q 2228 2947 2397 2830 
Q 2566 2713 2666 2444 
Q 2734 2256 2734 1869 
L 2734 647 
Q 2734 375 2778 278 
Q 2813 200 2889 156 
Q 2966 113 3172 113 
L 3172 0 
L 1756 0 
L 1756 113 
L 1816 113 
Q 2016 113 2095 173 
Q 2175 234 2206 353 
Q 2219 400 2219 647 
L 2219 1819 
Q 2219 2209 2117 2386 
Q 2016 2563 1775 2563 
Q 1403 2563 1034 2156 
L 1034 647 
Q 1034 356 1069 288 
Q 1113 197 1189 155 
Q 1266 113 1500 113 
L 1500 0 
L 84 0 
L 84 113 
L 147 113 
Q 366 113 442 223 
Q 519 334 519 647 
L 519 1709 
Q 519 2225 495 2337 
Q 472 2450 423 2490 
Q 375 2531 294 2531 
Q 206 2531 84 2484 
L 38 2597 
L 900 2947 
L 1034 2947 
L 1034 2341 
z
" transform="scale(0.015625)"/>
        <path id="TimesNewRomanPSMT-69" d="M 928 4444 
Q 1059 4444 1151 4351 
Q 1244 4259 1244 4128 
Q 1244 3997 1151 3903 
Q 1059 3809 928 3809 
Q 797 3809 703 3903 
Q 609 3997 609 4128 
Q 609 4259 701 4351 
Q 794 4444 928 4444 
z
M 1188 2947 
L 1188 647 
Q 1188 378 1227 289 
Q 1266 200 1342 156 
Q 1419 113 1622 113 
L 1622 0 
L 231 0 
L 231 113 
Q 441 113 512 153 
Q 584 194 626 287 
Q 669 381 669 647 
L 669 1750 
Q 669 2216 641 2353 
Q 619 2453 572 2492 
Q 525 2531 444 2531 
Q 356 2531 231 2484 
L 188 2597 
L 1050 2947 
L 1188 2947 
z
" transform="scale(0.015625)"/>
        <path id="TimesNewRomanPSMT-73" d="M 2050 2947 
L 2050 1972 
L 1947 1972 
Q 1828 2431 1642 2597 
Q 1456 2763 1169 2763 
Q 950 2763 815 2647 
Q 681 2531 681 2391 
Q 681 2216 781 2091 
Q 878 1963 1175 1819 
L 1631 1597 
Q 2266 1288 2266 781 
Q 2266 391 1970 151 
Q 1675 -88 1309 -88 
Q 1047 -88 709 6 
Q 606 38 541 38 
Q 469 38 428 -44 
L 325 -44 
L 325 978 
L 428 978 
Q 516 541 762 319 
Q 1009 97 1316 97 
Q 1531 97 1667 223 
Q 1803 350 1803 528 
Q 1803 744 1651 891 
Q 1500 1038 1047 1263 
Q 594 1488 453 1669 
Q 313 1847 313 2119 
Q 313 2472 555 2709 
Q 797 2947 1181 2947 
Q 1350 2947 1591 2875 
Q 1750 2828 1803 2828 
Q 1853 2828 1881 2850 
Q 1909 2872 1947 2947 
L 2050 2947 
z
" transform="scale(0.015625)"/>
       </defs>
       <use xlink:href="#TimesNewRomanPSMT-45"/>
       <use xlink:href="#TimesNewRomanPSMT-6c" x="61.083984"/>
       <use xlink:href="#TimesNewRomanPSMT-65" x="88.867188"/>
       <use xlink:href="#TimesNewRomanPSMT-63" x="133.251953"/>
       <use xlink:href="#TimesNewRomanPSMT-74" x="177.636719"/>
       <use xlink:href="#TimesNewRomanPSMT-72" x="205.419922"/>
       <use xlink:href="#TimesNewRomanPSMT-6f" x="238.720703"/>
       <use xlink:href="#TimesNewRomanPSMT-6e" x="288.720703"/>
       <use xlink:href="#TimesNewRomanPSMT-69" x="338.720703"/>
       <use xlink:href="#TimesNewRomanPSMT-63" x="366.503906"/>
       <use xlink:href="#TimesNewRomanPSMT-73" x="410.888672"/>
      </g>
     </g>
    </g>
    <g id="xtick_2">
     <g id="line2d_2">
      <g>
       <use xlink:href="#mfcd9586fce" x="236.820938" y="259.854775" style="stroke: #000000; stroke-width: 0.8"/>
      </g>
     </g>
     <g id="text_2">
      <!-- Music -->
      <g transform="translate(213.791354 293.961271) rotate(-45) scale(0.12 -0.12)">
       <defs>
        <path id="TimesNewRomanPSMT-4d" d="M 2619 0 
L 981 3566 
L 981 734 
Q 981 344 1066 247 
Q 1181 116 1431 116 
L 1581 116 
L 1581 0 
L 106 0 
L 106 116 
L 256 116 
Q 525 116 638 278 
Q 706 378 706 734 
L 706 3503 
Q 706 3784 644 3909 
Q 600 4000 483 4061 
Q 366 4122 106 4122 
L 106 4238 
L 1306 4238 
L 2844 922 
L 4356 4238 
L 5556 4238 
L 5556 4122 
L 5409 4122 
Q 5138 4122 5025 3959 
Q 4956 3859 4956 3503 
L 4956 734 
Q 4956 344 5044 247 
Q 5159 116 5409 116 
L 5556 116 
L 5556 0 
L 3756 0 
L 3756 116 
L 3906 116 
Q 4178 116 4288 278 
Q 4356 378 4356 734 
L 4356 3566 
L 2722 0 
L 2619 0 
z
" transform="scale(0.015625)"/>
        <path id="TimesNewRomanPSMT-75" d="M 2709 2863 
L 2709 1128 
Q 2709 631 2732 520 
Q 2756 409 2807 365 
Q 2859 322 2928 322 
Q 3025 322 3147 375 
L 3191 266 
L 2334 -88 
L 2194 -88 
L 2194 519 
Q 1825 119 1631 15 
Q 1438 -88 1222 -88 
Q 981 -88 804 51 
Q 628 191 559 409 
Q 491 628 491 1028 
L 491 2306 
Q 491 2509 447 2587 
Q 403 2666 317 2708 
Q 231 2750 6 2747 
L 6 2863 
L 1009 2863 
L 1009 947 
Q 1009 547 1148 422 
Q 1288 297 1484 297 
Q 1619 297 1789 381 
Q 1959 466 2194 703 
L 2194 2325 
Q 2194 2569 2105 2655 
Q 2016 2741 1734 2747 
L 1734 2863 
L 2709 2863 
z
" transform="scale(0.015625)"/>
       </defs>
       <use xlink:href="#TimesNewRomanPSMT-4d"/>
       <use xlink:href="#TimesNewRomanPSMT-75" x="88.916016"/>
       <use xlink:href="#TimesNewRomanPSMT-73" x="138.916016"/>
       <use xlink:href="#TimesNewRomanPSMT-69" x="177.832031"/>
       <use xlink:href="#TimesNewRomanPSMT-63" x="205.615234"/>
      </g>
     </g>
    </g>
    <g id="xtick_3">
     <g id="line2d_3">
      <g>
       <use xlink:href="#mfcd9586fce" x="364.090938" y="259.854775" style="stroke: #000000; stroke-width: 0.8"/>
      </g>
     </g>
     <g id="text_3">
      <!-- Sports -->
      <g transform="translate(340.586708 294.435917) rotate(-45) scale(0.12 -0.12)">
       <defs>
        <path id="TimesNewRomanPSMT-53" d="M 2934 4334 
L 2934 2869 
L 2819 2869 
Q 2763 3291 2617 3541 
Q 2472 3791 2203 3937 
Q 1934 4084 1647 4084 
Q 1322 4084 1109 3886 
Q 897 3688 897 3434 
Q 897 3241 1031 3081 
Q 1225 2847 1953 2456 
Q 2547 2138 2764 1967 
Q 2981 1797 3098 1565 
Q 3216 1334 3216 1081 
Q 3216 600 2842 251 
Q 2469 -97 1881 -97 
Q 1697 -97 1534 -69 
Q 1438 -53 1133 45 
Q 828 144 747 144 
Q 669 144 623 97 
Q 578 50 556 -97 
L 441 -97 
L 441 1356 
L 556 1356 
Q 638 900 775 673 
Q 913 447 1195 297 
Q 1478 147 1816 147 
Q 2206 147 2432 353 
Q 2659 559 2659 841 
Q 2659 997 2573 1156 
Q 2488 1316 2306 1453 
Q 2184 1547 1640 1851 
Q 1097 2156 867 2337 
Q 638 2519 519 2737 
Q 400 2956 400 3219 
Q 400 3675 750 4004 
Q 1100 4334 1641 4334 
Q 1978 4334 2356 4169 
Q 2531 4091 2603 4091 
Q 2684 4091 2736 4139 
Q 2788 4188 2819 4334 
L 2934 4334 
z
" transform="scale(0.015625)"/>
        <path id="TimesNewRomanPSMT-70" d="M -6 2578 
L 875 2934 
L 994 2934 
L 994 2266 
Q 1216 2644 1439 2795 
Q 1663 2947 1909 2947 
Q 2341 2947 2628 2609 
Q 2981 2197 2981 1534 
Q 2981 794 2556 309 
Q 2206 -88 1675 -88 
Q 1444 -88 1275 -22 
Q 1150 25 994 166 
L 994 -706 
Q 994 -1000 1030 -1079 
Q 1066 -1159 1155 -1206 
Q 1244 -1253 1478 -1253 
L 1478 -1369 
L -22 -1369 
L -22 -1253 
L 56 -1253 
Q 228 -1256 350 -1188 
Q 409 -1153 442 -1076 
Q 475 -1000 475 -688 
L 475 2019 
Q 475 2297 450 2372 
Q 425 2447 370 2484 
Q 316 2522 222 2522 
Q 147 2522 31 2478 
L -6 2578 
z
M 994 2081 
L 994 1013 
Q 994 666 1022 556 
Q 1066 375 1236 237 
Q 1406 100 1666 100 
Q 1978 100 2172 344 
Q 2425 663 2425 1241 
Q 2425 1897 2138 2250 
Q 1938 2494 1663 2494 
Q 1513 2494 1366 2419 
Q 1253 2363 994 2081 
z
" transform="scale(0.015625)"/>
       </defs>
       <use xlink:href="#TimesNewRomanPSMT-53"/>
       <use xlink:href="#TimesNewRomanPSMT-70" x="55.615234"/>
       <use xlink:href="#TimesNewRomanPSMT-6f" x="105.615234"/>
       <use xlink:href="#TimesNewRomanPSMT-72" x="155.615234"/>
       <use xlink:href="#TimesNewRomanPSMT-74" x="188.916016"/>
       <use xlink:href="#TimesNewRomanPSMT-73" x="216.699219"/>
      </g>
     </g>
    </g>
   </g>
   <g id="matplotlib.axis_2">
    <g id="ytick_1">
     <g id="line2d_4">
      <defs>
       <path id="m7901f57a4a" d="M 0 0 
L -3.5 0 
" style="stroke: #000000; stroke-width: 0.8"/>
      </defs>
      <g>
       <use xlink:href="#m7901f57a4a" x="45.915937" y="232.093152" style="stroke: #000000; stroke-width: 0.8"/>
      </g>
     </g>
     <g id="text_4">
      <!-- 100 -->
      <g transform="translate(23.915937 235.565027) scale(0.1 -0.1)">
       <defs>
        <path id="TimesNewRomanPSMT-31" d="M 750 3822 
L 1781 4325 
L 1884 4325 
L 1884 747 
Q 1884 391 1914 303 
Q 1944 216 2037 169 
Q 2131 122 2419 116 
L 2419 0 
L 825 0 
L 825 116 
Q 1125 122 1212 167 
Q 1300 213 1334 289 
Q 1369 366 1369 747 
L 1369 3034 
Q 1369 3497 1338 3628 
Q 1316 3728 1258 3775 
Q 1200 3822 1119 3822 
Q 1003 3822 797 3725 
L 750 3822 
z
" transform="scale(0.015625)"/>
        <path id="TimesNewRomanPSMT-30" d="M 231 2094 
Q 231 2819 450 3342 
Q 669 3866 1031 4122 
Q 1313 4325 1613 4325 
Q 2100 4325 2488 3828 
Q 2972 3213 2972 2159 
Q 2972 1422 2759 906 
Q 2547 391 2217 158 
Q 1888 -75 1581 -75 
Q 975 -75 572 641 
Q 231 1244 231 2094 
z
M 844 2016 
Q 844 1141 1059 588 
Q 1238 122 1591 122 
Q 1759 122 1940 273 
Q 2122 425 2216 781 
Q 2359 1319 2359 2297 
Q 2359 3022 2209 3506 
Q 2097 3866 1919 4016 
Q 1791 4119 1609 4119 
Q 1397 4119 1231 3928 
Q 1006 3669 925 3112 
Q 844 2556 844 2016 
z
" transform="scale(0.015625)"/>
       </defs>
       <use xlink:href="#TimesNewRomanPSMT-31"/>
       <use xlink:href="#TimesNewRomanPSMT-30" x="50"/>
       <use xlink:href="#TimesNewRomanPSMT-30" x="100"/>
      </g>
     </g>
    </g>
    <g id="ytick_2">
     <g id="line2d_5">
      <g>
       <use xlink:href="#m7901f57a4a" x="45.915937" y="194.450273" style="stroke: #000000; stroke-width: 0.8"/>
      </g>
     </g>
     <g id="text_5">
      <!-- 200 -->
      <g transform="translate(23.915937 197.922148) scale(0.1 -0.1)">
       <defs>
        <path id="TimesNewRomanPSMT-32" d="M 2934 816 
L 2638 0 
L 138 0 
L 138 116 
Q 1241 1122 1691 1759 
Q 2141 2397 2141 2925 
Q 2141 3328 1894 3587 
Q 1647 3847 1303 3847 
Q 991 3847 742 3664 
Q 494 3481 375 3128 
L 259 3128 
Q 338 3706 661 4015 
Q 984 4325 1469 4325 
Q 1984 4325 2329 3994 
Q 2675 3663 2675 3213 
Q 2675 2891 2525 2569 
Q 2294 2063 1775 1497 
Q 997 647 803 472 
L 1909 472 
Q 2247 472 2383 497 
Q 2519 522 2628 598 
Q 2738 675 2819 816 
L 2934 816 
z
" transform="scale(0.015625)"/>
       </defs>
       <use xlink:href="#TimesNewRomanPSMT-32"/>
       <use xlink:href="#TimesNewRomanPSMT-30" x="50"/>
       <use xlink:href="#TimesNewRomanPSMT-30" x="100"/>
      </g>
     </g>
    </g>
    <g id="ytick_3">
     <g id="line2d_6">
      <g>
       <use xlink:href="#m7901f57a4a" x="45.915937" y="156.807394" style="stroke: #000000; stroke-width: 0.8"/>
      </g>
     </g>
     <g id="text_6">
      <!-- 300 -->
      <g transform="translate(23.915937 160.279269) scale(0.1 -0.1)">
       <defs>
        <path id="TimesNewRomanPSMT-33" d="M 325 3431 
Q 506 3859 782 4092 
Q 1059 4325 1472 4325 
Q 1981 4325 2253 3994 
Q 2459 3747 2459 3466 
Q 2459 3003 1878 2509 
Q 2269 2356 2469 2072 
Q 2669 1788 2669 1403 
Q 2669 853 2319 450 
Q 1863 -75 997 -75 
Q 569 -75 414 31 
Q 259 138 259 259 
Q 259 350 332 419 
Q 406 488 509 488 
Q 588 488 669 463 
Q 722 447 909 348 
Q 1097 250 1169 231 
Q 1284 197 1416 197 
Q 1734 197 1970 444 
Q 2206 691 2206 1028 
Q 2206 1275 2097 1509 
Q 2016 1684 1919 1775 
Q 1784 1900 1550 2001 
Q 1316 2103 1072 2103 
L 972 2103 
L 972 2197 
Q 1219 2228 1467 2375 
Q 1716 2522 1828 2728 
Q 1941 2934 1941 3181 
Q 1941 3503 1739 3701 
Q 1538 3900 1238 3900 
Q 753 3900 428 3381 
L 325 3431 
z
" transform="scale(0.015625)"/>
       </defs>
       <use xlink:href="#TimesNewRomanPSMT-33"/>
       <use xlink:href="#TimesNewRomanPSMT-30" x="50"/>
       <use xlink:href="#TimesNewRomanPSMT-30" x="100"/>
      </g>
     </g>
    </g>
    <g id="ytick_4">
     <g id="line2d_7">
      <g>
       <use xlink:href="#m7901f57a4a" x="45.915937" y="119.164516" style="stroke: #000000; stroke-width: 0.8"/>
      </g>
     </g>
     <g id="text_7">
      <!-- 400 -->
      <g transform="translate(23.915937 122.636391) scale(0.1 -0.1)">
       <defs>
        <path id="TimesNewRomanPSMT-34" d="M 2978 1563 
L 2978 1119 
L 2409 1119 
L 2409 0 
L 1894 0 
L 1894 1119 
L 100 1119 
L 100 1519 
L 2066 4325 
L 2409 4325 
L 2409 1563 
L 2978 1563 
z
M 1894 1563 
L 1894 3666 
L 406 1563 
L 1894 1563 
z
" transform="scale(0.015625)"/>
       </defs>
       <use xlink:href="#TimesNewRomanPSMT-34"/>
       <use xlink:href="#TimesNewRomanPSMT-30" x="50"/>
       <use xlink:href="#TimesNewRomanPSMT-30" x="100"/>
      </g>
     </g>
    </g>
    <g id="ytick_5">
     <g id="line2d_8">
      <g>
       <use xlink:href="#m7901f57a4a" x="45.915937" y="81.521637" style="stroke: #000000; stroke-width: 0.8"/>
      </g>
     </g>
     <g id="text_8">
      <!-- 500 -->
      <g transform="translate(23.915937 84.993512) scale(0.1 -0.1)">
       <defs>
        <path id="TimesNewRomanPSMT-35" d="M 2778 4238 
L 2534 3706 
L 1259 3706 
L 981 3138 
Q 1809 3016 2294 2522 
Q 2709 2097 2709 1522 
Q 2709 1188 2573 903 
Q 2438 619 2231 419 
Q 2025 219 1772 97 
Q 1413 -75 1034 -75 
Q 653 -75 479 54 
Q 306 184 306 341 
Q 306 428 378 495 
Q 450 563 559 563 
Q 641 563 702 538 
Q 763 513 909 409 
Q 1144 247 1384 247 
Q 1750 247 2026 523 
Q 2303 800 2303 1197 
Q 2303 1581 2056 1914 
Q 1809 2247 1375 2428 
Q 1034 2569 447 2591 
L 1259 4238 
L 2778 4238 
z
" transform="scale(0.015625)"/>
       </defs>
       <use xlink:href="#TimesNewRomanPSMT-35"/>
       <use xlink:href="#TimesNewRomanPSMT-30" x="50"/>
       <use xlink:href="#TimesNewRomanPSMT-30" x="100"/>
      </g>
     </g>
    </g>
    <g id="ytick_6">
     <g id="line2d_9">
      <g>
       <use xlink:href="#m7901f57a4a" x="45.915937" y="43.878758" style="stroke: #000000; stroke-width: 0.8"/>
      </g>
     </g>
     <g id="text_9">
      <!-- 600 -->
      <g transform="translate(23.915937 47.350633) scale(0.1 -0.1)">
       <defs>
        <path id="TimesNewRomanPSMT-36" d="M 2869 4325 
L 2869 4209 
Q 2456 4169 2195 4045 
Q 1934 3922 1679 3669 
Q 1425 3416 1258 3105 
Q 1091 2794 978 2366 
Q 1428 2675 1881 2675 
Q 2316 2675 2634 2325 
Q 2953 1975 2953 1425 
Q 2953 894 2631 456 
Q 2244 -75 1606 -75 
Q 1172 -75 869 213 
Q 275 772 275 1663 
Q 275 2231 503 2743 
Q 731 3256 1154 3653 
Q 1578 4050 1965 4187 
Q 2353 4325 2688 4325 
L 2869 4325 
z
M 925 2138 
Q 869 1716 869 1456 
Q 869 1156 980 804 
Q 1091 453 1309 247 
Q 1469 100 1697 100 
Q 1969 100 2183 356 
Q 2397 613 2397 1088 
Q 2397 1622 2184 2012 
Q 1972 2403 1581 2403 
Q 1463 2403 1327 2353 
Q 1191 2303 925 2138 
z
" transform="scale(0.015625)"/>
       </defs>
       <use xlink:href="#TimesNewRomanPSMT-36"/>
       <use xlink:href="#TimesNewRomanPSMT-30" x="50"/>
       <use xlink:href="#TimesNewRomanPSMT-30" x="100"/>
      </g>
     </g>
    </g>
    <g id="text_10">
     <!-- thousand USD -->
     <g transform="translate(16.92125 185.979731) rotate(-90) scale(0.14 -0.14)">
      <defs>
       <path id="TimesNewRomanPSMT-68" d="M 1041 4444 
L 1041 2350 
Q 1388 2731 1591 2839 
Q 1794 2947 1997 2947 
Q 2241 2947 2416 2812 
Q 2591 2678 2675 2391 
Q 2734 2191 2734 1659 
L 2734 647 
Q 2734 375 2778 275 
Q 2809 200 2884 156 
Q 2959 113 3159 113 
L 3159 0 
L 1753 0 
L 1753 113 
L 1819 113 
Q 2019 113 2097 173 
Q 2175 234 2206 353 
Q 2216 403 2216 647 
L 2216 1659 
Q 2216 2128 2167 2275 
Q 2119 2422 2012 2495 
Q 1906 2569 1756 2569 
Q 1603 2569 1437 2487 
Q 1272 2406 1041 2159 
L 1041 647 
Q 1041 353 1073 281 
Q 1106 209 1195 161 
Q 1284 113 1503 113 
L 1503 0 
L 84 0 
L 84 113 
Q 275 113 384 172 
Q 447 203 484 290 
Q 522 378 522 647 
L 522 3238 
Q 522 3728 498 3840 
Q 475 3953 426 3993 
Q 378 4034 297 4034 
Q 231 4034 84 3984 
L 41 4094 
L 897 4444 
L 1041 4444 
z
" transform="scale(0.015625)"/>
       <path id="TimesNewRomanPSMT-61" d="M 1822 413 
Q 1381 72 1269 19 
Q 1100 -59 909 -59 
Q 613 -59 420 144 
Q 228 347 228 678 
Q 228 888 322 1041 
Q 450 1253 767 1440 
Q 1084 1628 1822 1897 
L 1822 2009 
Q 1822 2438 1686 2597 
Q 1550 2756 1291 2756 
Q 1094 2756 978 2650 
Q 859 2544 859 2406 
L 866 2225 
Q 866 2081 792 2003 
Q 719 1925 600 1925 
Q 484 1925 411 2006 
Q 338 2088 338 2228 
Q 338 2497 613 2722 
Q 888 2947 1384 2947 
Q 1766 2947 2009 2819 
Q 2194 2722 2281 2516 
Q 2338 2381 2338 1966 
L 2338 994 
Q 2338 584 2353 492 
Q 2369 400 2405 369 
Q 2441 338 2488 338 
Q 2538 338 2575 359 
Q 2641 400 2828 588 
L 2828 413 
Q 2478 -56 2159 -56 
Q 2006 -56 1915 50 
Q 1825 156 1822 413 
z
M 1822 616 
L 1822 1706 
Q 1350 1519 1213 1441 
Q 966 1303 859 1153 
Q 753 1003 753 825 
Q 753 600 887 451 
Q 1022 303 1197 303 
Q 1434 303 1822 616 
z
" transform="scale(0.015625)"/>
       <path id="TimesNewRomanPSMT-64" d="M 2222 322 
Q 2013 103 1813 7 
Q 1613 -88 1381 -88 
Q 913 -88 563 304 
Q 213 697 213 1313 
Q 213 1928 600 2439 
Q 988 2950 1597 2950 
Q 1975 2950 2222 2709 
L 2222 3238 
Q 2222 3728 2198 3840 
Q 2175 3953 2125 3993 
Q 2075 4034 2000 4034 
Q 1919 4034 1784 3984 
L 1744 4094 
L 2597 4444 
L 2738 4444 
L 2738 1134 
Q 2738 631 2761 520 
Q 2784 409 2836 365 
Q 2888 322 2956 322 
Q 3041 322 3181 375 
L 3216 266 
L 2366 -88 
L 2222 -88 
L 2222 322 
z
M 2222 541 
L 2222 2016 
Q 2203 2228 2109 2403 
Q 2016 2578 1861 2667 
Q 1706 2756 1559 2756 
Q 1284 2756 1069 2509 
Q 784 2184 784 1559 
Q 784 928 1059 592 
Q 1334 256 1672 256 
Q 1956 256 2222 541 
z
" transform="scale(0.015625)"/>
       <path id="TimesNewRomanPSMT-20" transform="scale(0.015625)"/>
       <path id="TimesNewRomanPSMT-55" d="M 3053 4122 
L 3053 4238 
L 4553 4238 
L 4553 4122 
L 4394 4122 
Q 4144 4122 4009 3913 
Q 3944 3816 3944 3463 
L 3944 1744 
Q 3944 1106 3817 754 
Q 3691 403 3320 151 
Q 2950 -100 2313 -100 
Q 1619 -100 1259 140 
Q 900 381 750 788 
Q 650 1066 650 1831 
L 650 3488 
Q 650 3878 542 4000 
Q 434 4122 194 4122 
L 34 4122 
L 34 4238 
L 1866 4238 
L 1866 4122 
L 1703 4122 
Q 1441 4122 1328 3956 
Q 1250 3844 1250 3488 
L 1250 1641 
Q 1250 1394 1295 1075 
Q 1341 756 1459 578 
Q 1578 400 1801 284 
Q 2025 169 2350 169 
Q 2766 169 3094 350 
Q 3422 531 3542 814 
Q 3663 1097 3663 1772 
L 3663 3488 
Q 3663 3884 3575 3984 
Q 3453 4122 3213 4122 
L 3053 4122 
z
" transform="scale(0.015625)"/>
       <path id="TimesNewRomanPSMT-44" d="M 109 0 
L 109 116 
L 269 116 
Q 538 116 650 288 
Q 719 391 719 750 
L 719 3488 
Q 719 3884 631 3984 
Q 509 4122 269 4122 
L 109 4122 
L 109 4238 
L 1834 4238 
Q 2784 4238 3279 4022 
Q 3775 3806 4076 3303 
Q 4378 2800 4378 2141 
Q 4378 1256 3841 663 
Q 3238 0 2003 0 
L 109 0 
z
M 1319 306 
Q 1716 219 1984 219 
Q 2709 219 3187 728 
Q 3666 1238 3666 2109 
Q 3666 2988 3187 3494 
Q 2709 4000 1959 4000 
Q 1678 4000 1319 3909 
L 1319 306 
z
" transform="scale(0.015625)"/>
      </defs>
      <use xlink:href="#TimesNewRomanPSMT-74"/>
      <use xlink:href="#TimesNewRomanPSMT-68" x="27.783203"/>
      <use xlink:href="#TimesNewRomanPSMT-6f" x="77.783203"/>
      <use xlink:href="#TimesNewRomanPSMT-75" x="127.783203"/>
      <use xlink:href="#TimesNewRomanPSMT-73" x="177.783203"/>
      <use xlink:href="#TimesNewRomanPSMT-61" x="216.699219"/>
      <use xlink:href="#TimesNewRomanPSMT-6e" x="261.083984"/>
      <use xlink:href="#TimesNewRomanPSMT-64" x="311.083984"/>
      <use xlink:href="#TimesNewRomanPSMT-20" x="361.083984"/>
      <use xlink:href="#TimesNewRomanPSMT-55" x="386.083984"/>
      <use xlink:href="#TimesNewRomanPSMT-53" x="458.300781"/>
      <use xlink:href="#TimesNewRomanPSMT-44" x="513.916016"/>
     </g>
    </g>
   </g>
   <g id="patch_3">
    <path d="M 101.914738 228.234757 
L 117.187138 228.234757 
L 117.187138 195.861881 
L 101.914738 195.861881 
L 101.914738 228.234757 
L 101.914738 228.234757 
z
" clip-path="url(#p644a5002fd)" style="fill: none; stroke: #000000; stroke-linejoin: miter"/>
   </g>
   <g id="line2d_10">
    <path d="M 109.550938 228.234757 
L 109.550938 249.408876 
" clip-path="url(#p644a5002fd)" style="fill: none; stroke: #000000; stroke-linecap: square"/>
   </g>
   <g id="line2d_11">
    <path d="M 109.550938 195.861881 
L 109.550938 151.537391 
" clip-path="url(#p644a5002fd)" style="fill: none; stroke: #000000; stroke-linecap: square"/>
   </g>
   <g id="line2d_12">
    <path d="M 105.732838 249.408876 
L 113.369038 249.408876 
" clip-path="url(#p644a5002fd)" style="fill: none; stroke: #000000; stroke-linecap: square"/>
   </g>
   <g id="line2d_13">
    <path d="M 105.732838 151.537391 
L 113.369038 151.537391 
" clip-path="url(#p644a5002fd)" style="fill: none; stroke: #000000; stroke-linecap: square"/>
   </g>
   <g id="patch_4">
    <path d="M 229.184738 214.02457 
L 244.457138 214.02457 
L 244.457138 169.04133 
L 229.184738 169.04133 
L 229.184738 214.02457 
L 229.184738 214.02457 
z
" clip-path="url(#p644a5002fd)" style="fill: none; stroke: #000000; stroke-linejoin: miter"/>
   </g>
   <g id="line2d_14">
    <path d="M 236.820938 214.02457 
L 236.820938 243.009587 
" clip-path="url(#p644a5002fd)" style="fill: none; stroke: #000000; stroke-linecap: square"/>
   </g>
   <g id="line2d_15">
    <path d="M 236.820938 169.04133 
L 236.820938 119.540944 
" clip-path="url(#p644a5002fd)" style="fill: none; stroke: #000000; stroke-linecap: square"/>
   </g>
   <g id="line2d_16">
    <path d="M 233.002837 243.009587 
L 240.639037 243.009587 
" clip-path="url(#p644a5002fd)" style="fill: none; stroke: #000000; stroke-linecap: square"/>
   </g>
   <g id="line2d_17">
    <path d="M 233.002837 119.540944 
L 240.639037 119.540944 
" clip-path="url(#p644a5002fd)" style="fill: none; stroke: #000000; stroke-linecap: square"/>
   </g>
   <g id="patch_5">
    <path d="M 356.454738 204.802065 
L 371.727138 204.802065 
L 371.727138 144.291137 
L 356.454738 144.291137 
L 356.454738 204.802065 
L 356.454738 204.802065 
z
" clip-path="url(#p644a5002fd)" style="fill: none; stroke: #000000; stroke-linejoin: miter"/>
   </g>
   <g id="line2d_18">
    <path d="M 364.090938 204.802065 
L 364.090938 243.009587 
" clip-path="url(#p644a5002fd)" style="fill: none; stroke: #000000; stroke-linecap: square"/>
   </g>
   <g id="line2d_19">
    <path d="M 364.090938 144.291137 
L 364.090938 64.582341 
" clip-path="url(#p644a5002fd)" style="fill: none; stroke: #000000; stroke-linecap: square"/>
   </g>
   <g id="line2d_20">
    <path d="M 360.272838 243.009587 
L 367.909038 243.009587 
" clip-path="url(#p644a5002fd)" style="fill: none; stroke: #000000; stroke-linecap: square"/>
   </g>
   <g id="line2d_21">
    <path d="M 360.272838 64.582341 
L 367.909038 64.582341 
" clip-path="url(#p644a5002fd)" style="fill: none; stroke: #000000; stroke-linecap: square"/>
   </g>
   <g id="line2d_22">
    <path d="M 101.914738 214.400999 
L 117.187138 214.400999 
" clip-path="url(#p644a5002fd)" style="fill: none; stroke: #000000; stroke-width: 1.5; stroke-linecap: square"/>
   </g>
   <g id="line2d_23">
    <path d="M 229.184738 198.402775 
L 244.457138 198.402775 
" clip-path="url(#p644a5002fd)" style="fill: none; stroke: #000000; stroke-width: 1.5; stroke-linecap: square"/>
   </g>
   <g id="line2d_24">
    <path d="M 356.454738 174.687762 
L 371.727138 174.687762 
" clip-path="url(#p644a5002fd)" style="fill: none; stroke: #000000; stroke-width: 1.5; stroke-linecap: square"/>
   </g>
   <g id="patch_6">
    <path d="M 45.915937 259.854775 
L 45.915937 30.045 
" style="fill: none; stroke: #000000; stroke-linejoin: miter; stroke-linecap: square"/>
   </g>
   <g id="patch_7">
    <path d="M 427.725938 259.854775 
L 427.725938 30.045 
" style="fill: none; stroke: #000000; stroke-linejoin: miter; stroke-linecap: square"/>
   </g>
   <g id="patch_8">
    <path d="M 45.915937 259.854775 
L 427.725938 259.854775 
" style="fill: none; stroke: #000000; stroke-linejoin: miter; stroke-linecap: square"/>
   </g>
   <g id="patch_9">
    <path d="M 45.915937 30.045 
L 427.725938 30.045 
" style="fill: none; stroke: #000000; stroke-linejoin: miter; stroke-linecap: square"/>
   </g>
   <g id="text_11">
    <!-- Daily sales statistics by product category (thousand USD) -->
    <g transform="translate(41.625938 18.045) scale(0.16 -0.16)">
     <defs>
      <path id="TimesNewRomanPS-BoldMT-44" d="M 84 0 
L 84 116 
L 225 116 
Q 409 116 507 173 
Q 606 231 653 331 
Q 681 397 681 725 
L 681 3513 
Q 681 3838 647 3919 
Q 613 4000 508 4061 
Q 403 4122 225 4122 
L 84 4122 
L 84 4238 
L 1981 4238 
Q 2741 4238 3203 4031 
Q 3769 3778 4061 3265 
Q 4353 2753 4353 2106 
Q 4353 1659 4209 1282 
Q 4066 906 3837 661 
Q 3609 416 3311 267 
Q 3013 119 2581 38 
Q 2391 0 1981 0 
L 84 0 
z
M 1700 3997 
L 1700 691 
Q 1700 428 1725 368 
Q 1750 309 1809 278 
Q 1894 231 2053 231 
Q 2575 231 2850 588 
Q 3225 1069 3225 2081 
Q 3225 2897 2969 3384 
Q 2766 3766 2447 3903 
Q 2222 4000 1700 3997 
z
" transform="scale(0.015625)"/>
      <path id="TimesNewRomanPS-BoldMT-61" d="M 1828 431 
Q 1294 -41 869 -41 
Q 619 -41 453 123 
Q 288 288 288 534 
Q 288 869 575 1136 
Q 863 1403 1828 1847 
L 1828 2141 
Q 1828 2472 1792 2558 
Q 1756 2644 1656 2708 
Q 1556 2772 1431 2772 
Q 1228 2772 1097 2681 
Q 1016 2625 1016 2550 
Q 1016 2484 1103 2388 
Q 1222 2253 1222 2128 
Q 1222 1975 1108 1867 
Q 994 1759 809 1759 
Q 613 1759 480 1878 
Q 347 1997 347 2156 
Q 347 2381 525 2586 
Q 703 2791 1022 2900 
Q 1341 3009 1684 3009 
Q 2100 3009 2342 2832 
Q 2584 2656 2656 2450 
Q 2700 2319 2700 1847 
L 2700 713 
Q 2700 513 2715 461 
Q 2731 409 2762 384 
Q 2794 359 2834 359 
Q 2916 359 3000 475 
L 3094 400 
Q 2938 169 2770 64 
Q 2603 -41 2391 -41 
Q 2141 -41 2000 76 
Q 1859 194 1828 431 
z
M 1828 659 
L 1828 1638 
Q 1450 1416 1266 1163 
Q 1144 994 1144 822 
Q 1144 678 1247 569 
Q 1325 484 1466 484 
Q 1622 484 1828 659 
z
" transform="scale(0.015625)"/>
      <path id="TimesNewRomanPS-BoldMT-69" d="M 919 4338 
Q 1122 4338 1262 4195 
Q 1403 4053 1403 3853 
Q 1403 3653 1261 3512 
Q 1119 3372 919 3372 
Q 719 3372 578 3512 
Q 438 3653 438 3853 
Q 438 4053 578 4195 
Q 719 4338 919 4338 
z
M 1356 2922 
L 1356 606 
Q 1356 297 1428 211 
Q 1500 125 1709 113 
L 1709 0 
L 131 0 
L 131 113 
Q 325 119 419 225 
Q 481 297 481 606 
L 481 2313 
Q 481 2622 409 2708 
Q 338 2794 131 2806 
L 131 2922 
L 1356 2922 
z
" transform="scale(0.015625)"/>
      <path id="TimesNewRomanPS-BoldMT-6c" d="M 1359 4238 
L 1359 606 
Q 1359 297 1431 211 
Q 1503 125 1713 113 
L 1713 0 
L 134 0 
L 134 113 
Q 328 119 422 225 
Q 484 297 484 606 
L 484 3631 
Q 484 3938 412 4023 
Q 341 4109 134 4122 
L 134 4238 
L 1359 4238 
z
" transform="scale(0.015625)"/>
      <path id="TimesNewRomanPS-BoldMT-79" d="M 1556 -119 
L 613 2047 
Q 400 2538 298 2650 
Q 197 2763 53 2806 
L 53 2922 
L 1606 2922 
L 1606 2806 
Q 1453 2800 1390 2747 
Q 1328 2694 1328 2619 
Q 1328 2500 1484 2150 
L 1984 1006 
L 2325 1891 
Q 2509 2363 2509 2547 
Q 2509 2663 2432 2731 
Q 2356 2800 2163 2806 
L 2163 2922 
L 3141 2922 
L 3141 2806 
Q 2997 2791 2906 2695 
Q 2816 2600 2603 2047 
L 1769 -119 
Q 1453 -931 1300 -1119 
Q 1084 -1381 759 -1381 
Q 500 -1381 339 -1232 
Q 178 -1084 178 -875 
Q 178 -694 289 -575 
Q 400 -456 563 -456 
Q 719 -456 814 -556 
Q 909 -656 913 -866 
Q 916 -984 941 -1019 
Q 966 -1053 1013 -1053 
Q 1088 -1053 1172 -963 
Q 1297 -831 1466 -363 
L 1556 -119 
z
" transform="scale(0.015625)"/>
      <path id="TimesNewRomanPS-BoldMT-20" transform="scale(0.015625)"/>
      <path id="TimesNewRomanPS-BoldMT-73" d="M 2063 3003 
L 2109 2006 
L 2003 2006 
Q 1813 2450 1608 2612 
Q 1403 2775 1200 2775 
Q 1072 2775 981 2689 
Q 891 2603 891 2491 
Q 891 2406 953 2328 
Q 1053 2200 1512 1889 
Q 1972 1578 2117 1361 
Q 2263 1144 2263 875 
Q 2263 631 2141 397 
Q 2019 163 1797 37 
Q 1575 -88 1306 -88 
Q 1097 -88 747 44 
Q 653 78 619 78 
Q 516 78 447 -78 
L 344 -78 
L 294 972 
L 400 972 
Q 541 559 786 353 
Q 1031 147 1250 147 
Q 1400 147 1495 239 
Q 1591 331 1591 463 
Q 1591 613 1497 722 
Q 1403 831 1078 1053 
Q 600 1384 459 1559 
Q 253 1816 253 2125 
Q 253 2463 486 2736 
Q 719 3009 1159 3009 
Q 1397 3009 1619 2894 
Q 1703 2847 1756 2847 
Q 1813 2847 1847 2870 
Q 1881 2894 1956 3003 
L 2063 3003 
z
" transform="scale(0.015625)"/>
      <path id="TimesNewRomanPS-BoldMT-65" d="M 2691 1566 
L 1088 1566 
Q 1116 984 1397 647 
Q 1613 388 1916 388 
Q 2103 388 2256 492 
Q 2409 597 2584 869 
L 2691 800 
Q 2453 316 2165 114 
Q 1878 -88 1500 -88 
Q 850 -88 516 413 
Q 247 816 247 1413 
Q 247 2144 642 2576 
Q 1038 3009 1569 3009 
Q 2013 3009 2339 2645 
Q 2666 2281 2691 1566 
z
M 1922 1775 
Q 1922 2278 1867 2465 
Q 1813 2653 1697 2750 
Q 1631 2806 1522 2806 
Q 1359 2806 1256 2647 
Q 1072 2369 1072 1884 
L 1072 1775 
L 1922 1775 
z
" transform="scale(0.015625)"/>
      <path id="TimesNewRomanPS-BoldMT-74" d="M 1375 3991 
L 1375 2922 
L 2069 2922 
L 2069 2613 
L 1375 2613 
L 1375 809 
Q 1375 556 1398 482 
Q 1422 409 1481 364 
Q 1541 319 1591 319 
Q 1794 319 1975 628 
L 2069 559 
Q 1816 -41 1247 -41 
Q 969 -41 776 114 
Q 584 269 531 459 
Q 500 566 500 1034 
L 500 2613 
L 119 2613 
L 119 2722 
Q 513 3000 789 3306 
Q 1066 3613 1272 3991 
L 1375 3991 
z
" transform="scale(0.015625)"/>
      <path id="TimesNewRomanPS-BoldMT-63" d="M 2600 753 
L 2697 678 
Q 2491 291 2183 101 
Q 1875 -88 1528 -88 
Q 944 -88 594 353 
Q 244 794 244 1413 
Q 244 2009 563 2463 
Q 947 3009 1622 3009 
Q 2075 3009 2342 2781 
Q 2609 2553 2609 2272 
Q 2609 2094 2501 1987 
Q 2394 1881 2219 1881 
Q 2034 1881 1914 2003 
Q 1794 2125 1766 2438 
Q 1747 2634 1675 2713 
Q 1603 2791 1506 2791 
Q 1356 2791 1250 2631 
Q 1088 2391 1088 1894 
Q 1088 1481 1219 1104 
Q 1350 728 1578 544 
Q 1750 409 1984 409 
Q 2138 409 2275 481 
Q 2413 553 2600 753 
z
" transform="scale(0.015625)"/>
      <path id="TimesNewRomanPS-BoldMT-62" d="M 1347 4238 
L 1347 2628 
Q 1716 3009 2153 3009 
Q 2453 3009 2718 2832 
Q 2984 2656 3134 2331 
Q 3284 2006 3284 1581 
Q 3284 1103 3093 712 
Q 2903 322 2584 117 
Q 2266 -88 1856 -88 
Q 1619 -88 1434 -12 
Q 1250 63 1072 231 
L 588 -84 
L 481 -84 
L 481 3631 
Q 481 3884 459 3944 
Q 428 4031 361 4073 
Q 294 4116 134 4122 
L 134 4238 
L 1347 4238 
z
M 1347 2350 
L 1347 1050 
Q 1347 653 1366 544 
Q 1397 359 1515 245 
Q 1634 131 1819 131 
Q 1978 131 2092 222 
Q 2206 313 2282 581 
Q 2359 850 2359 1550 
Q 2359 2222 2191 2472 
Q 2069 2653 1863 2653 
Q 1594 2653 1347 2350 
z
" transform="scale(0.015625)"/>
      <path id="TimesNewRomanPS-BoldMT-70" d="M 1347 297 
L 1347 -791 
Q 1347 -1016 1383 -1097 
Q 1419 -1178 1494 -1215 
Q 1569 -1253 1788 -1253 
L 1788 -1369 
L 122 -1369 
L 122 -1253 
Q 316 -1247 409 -1144 
Q 472 -1072 472 -772 
L 472 2313 
Q 472 2622 400 2708 
Q 328 2794 122 2806 
L 122 2922 
L 1347 2922 
L 1347 2538 
Q 1500 2763 1659 2863 
Q 1888 3009 2156 3009 
Q 2478 3009 2742 2806 
Q 3006 2603 3143 2245 
Q 3281 1888 3281 1475 
Q 3281 1031 3139 664 
Q 2997 297 2726 104 
Q 2456 -88 2125 -88 
Q 1884 -88 1675 19 
Q 1519 100 1347 297 
z
M 1347 613 
Q 1616 231 1922 231 
Q 2091 231 2200 409 
Q 2363 672 2363 1409 
Q 2363 2166 2184 2444 
Q 2066 2628 1866 2628 
Q 1550 2628 1347 2172 
L 1347 613 
z
" transform="scale(0.015625)"/>
      <path id="TimesNewRomanPS-BoldMT-72" d="M 1428 2922 
L 1428 2259 
Q 1719 2713 1937 2861 
Q 2156 3009 2359 3009 
Q 2534 3009 2639 2901 
Q 2744 2794 2744 2597 
Q 2744 2388 2642 2272 
Q 2541 2156 2397 2156 
Q 2231 2156 2109 2262 
Q 1988 2369 1966 2381 
Q 1934 2400 1894 2400 
Q 1803 2400 1722 2331 
Q 1594 2225 1528 2028 
Q 1428 1725 1428 1359 
L 1428 688 
L 1431 513 
Q 1431 334 1453 284 
Q 1491 200 1564 161 
Q 1638 122 1813 113 
L 1813 0 
L 234 0 
L 234 113 
Q 425 128 492 217 
Q 559 306 559 688 
L 559 2303 
Q 559 2553 534 2622 
Q 503 2709 443 2750 
Q 384 2791 234 2806 
L 234 2922 
L 1428 2922 
z
" transform="scale(0.015625)"/>
      <path id="TimesNewRomanPS-BoldMT-6f" d="M 1594 3009 
Q 1975 3009 2303 2812 
Q 2631 2616 2801 2253 
Q 2972 1891 2972 1459 
Q 2972 838 2656 419 
Q 2275 -88 1603 -88 
Q 944 -88 587 375 
Q 231 838 231 1447 
Q 231 2075 595 2542 
Q 959 3009 1594 3009 
z
M 1606 2788 
Q 1447 2788 1333 2667 
Q 1219 2547 1183 2192 
Q 1147 1838 1147 1206 
Q 1147 872 1191 581 
Q 1225 359 1337 243 
Q 1450 128 1594 128 
Q 1734 128 1828 206 
Q 1950 313 1991 503 
Q 2053 800 2053 1703 
Q 2053 2234 1993 2432 
Q 1934 2631 1819 2722 
Q 1738 2788 1606 2788 
z
" transform="scale(0.015625)"/>
      <path id="TimesNewRomanPS-BoldMT-64" d="M 3056 4238 
L 3056 875 
Q 3056 534 3075 472 
Q 3100 369 3170 319 
Q 3241 269 3416 256 
L 3416 153 
L 2181 -88 
L 2181 375 
Q 1959 106 1786 9 
Q 1613 -88 1394 -88 
Q 834 -88 509 413 
Q 247 819 247 1409 
Q 247 1881 409 2254 
Q 572 2628 855 2818 
Q 1138 3009 1463 3009 
Q 1672 3009 1834 2928 
Q 1997 2847 2181 2644 
L 2181 3525 
Q 2181 3859 2153 3928 
Q 2116 4019 2041 4062 
Q 1966 4106 1759 4106 
L 1759 4238 
L 3056 4238 
z
M 2181 2256 
Q 1950 2700 1616 2700 
Q 1500 2700 1425 2638 
Q 1309 2541 1236 2297 
Q 1163 2053 1163 1550 
Q 1163 997 1244 731 
Q 1325 466 1466 347 
Q 1538 288 1663 288 
Q 1938 288 2181 719 
L 2181 2256 
z
" transform="scale(0.015625)"/>
      <path id="TimesNewRomanPS-BoldMT-75" d="M 3038 2922 
L 3038 634 
Q 3038 300 3100 217 
Q 3163 134 3353 113 
L 3353 0 
L 2163 0 
L 2163 391 
Q 1953 141 1743 26 
Q 1534 -88 1275 -88 
Q 1028 -88 836 64 
Q 644 216 578 419 
Q 513 622 513 1128 
L 513 2288 
Q 513 2619 452 2700 
Q 391 2781 197 2806 
L 197 2922 
L 1388 2922 
L 1388 925 
Q 1388 613 1417 522 
Q 1447 431 1511 384 
Q 1575 338 1659 338 
Q 1772 338 1863 397 
Q 1988 478 2163 725 
L 2163 2288 
Q 2163 2619 2102 2700 
Q 2041 2781 1847 2806 
L 1847 2922 
L 3038 2922 
z
" transform="scale(0.015625)"/>
      <path id="TimesNewRomanPS-BoldMT-67" d="M 2091 2888 
L 3075 2888 
L 3075 2544 
L 2516 2544 
Q 2669 2391 2728 2266 
Q 2803 2097 2803 1913 
Q 2803 1600 2629 1370 
Q 2456 1141 2157 1011 
Q 1859 881 1628 881 
Q 1609 881 1253 897 
Q 1113 897 1017 805 
Q 922 713 922 584 
Q 922 472 1008 400 
Q 1094 328 1288 328 
L 1828 334 
Q 2484 334 2731 191 
Q 3084 -9 3084 -425 
Q 3084 -691 2921 -908 
Q 2759 -1125 2494 -1228 
Q 2091 -1381 1566 -1381 
Q 1172 -1381 847 -1304 
Q 522 -1228 381 -1092 
Q 241 -956 241 -806 
Q 241 -663 348 -548 
Q 456 -434 750 -356 
Q 344 -156 344 200 
Q 344 416 509 619 
Q 675 822 1034 972 
Q 616 1125 428 1375 
Q 241 1625 241 1953 
Q 241 2381 591 2695 
Q 941 3009 1491 3009 
Q 1781 3009 2091 2888 
z
M 1550 2816 
Q 1369 2816 1244 2633 
Q 1119 2450 1119 1875 
Q 1119 1409 1242 1236 
Q 1366 1063 1534 1063 
Q 1722 1063 1847 1234 
Q 1972 1406 1972 1903 
Q 1972 2463 1831 2666 
Q 1731 2816 1550 2816 
z
M 1366 -431 
Q 1047 -431 944 -484 
Q 766 -581 766 -747 
Q 766 -906 950 -1036 
Q 1134 -1166 1644 -1166 
Q 2078 -1166 2326 -1050 
Q 2575 -934 2575 -725 
Q 2575 -647 2528 -594 
Q 2444 -500 2273 -465 
Q 2103 -431 1366 -431 
z
" transform="scale(0.015625)"/>
      <path id="TimesNewRomanPS-BoldMT-28" d="M 2056 4334 
L 2056 4191 
Q 1731 3978 1578 3775 
Q 1366 3494 1247 3053 
Q 1097 2506 1097 1525 
Q 1097 600 1233 87 
Q 1369 -425 1603 -741 
Q 1766 -959 2056 -1125 
L 2056 -1281 
Q 1303 -1028 779 -248 
Q 256 531 256 1544 
Q 256 2544 778 3314 
Q 1300 4084 2056 4334 
z
" transform="scale(0.015625)"/>
      <path id="TimesNewRomanPS-BoldMT-68" d="M 1409 4238 
L 1409 2547 
Q 1650 2800 1850 2904 
Q 2050 3009 2266 3009 
Q 2541 3009 2736 2853 
Q 2931 2697 2995 2486 
Q 3059 2275 3059 1775 
L 3059 634 
Q 3059 300 3121 217 
Q 3184 134 3375 113 
L 3375 0 
L 1894 0 
L 1894 113 
Q 2050 134 2128 238 
Q 2184 319 2184 634 
L 2184 1938 
Q 2184 2300 2156 2392 
Q 2128 2484 2061 2536 
Q 1994 2588 1909 2588 
Q 1784 2588 1665 2502 
Q 1547 2416 1409 2200 
L 1409 634 
Q 1409 322 1456 244 
Q 1516 138 1700 113 
L 1700 0 
L 219 0 
L 219 113 
Q 403 131 481 231 
Q 534 300 534 634 
L 534 3603 
Q 534 3934 473 4015 
Q 413 4097 219 4122 
L 219 4238 
L 1409 4238 
z
" transform="scale(0.015625)"/>
      <path id="TimesNewRomanPS-BoldMT-6e" d="M 1409 2922 
L 1409 2544 
Q 1634 2788 1840 2898 
Q 2047 3009 2284 3009 
Q 2569 3009 2756 2851 
Q 2944 2694 3006 2459 
Q 3056 2281 3056 1775 
L 3056 638 
Q 3056 300 3117 217 
Q 3178 134 3372 113 
L 3372 0 
L 1894 0 
L 1894 113 
Q 2059 134 2131 250 
Q 2181 328 2181 638 
L 2181 1938 
Q 2181 2297 2153 2390 
Q 2125 2484 2058 2536 
Q 1991 2588 1909 2588 
Q 1641 2588 1409 2203 
L 1409 638 
Q 1409 309 1470 221 
Q 1531 134 1697 113 
L 1697 0 
L 219 0 
L 219 113 
Q 403 131 481 231 
Q 534 300 534 638 
L 534 2288 
Q 534 2619 473 2700 
Q 413 2781 219 2806 
L 219 2922 
L 1409 2922 
z
" transform="scale(0.015625)"/>
      <path id="TimesNewRomanPS-BoldMT-55" d="M 150 4238 
L 2338 4238 
L 2338 4122 
L 2228 4122 
Q 1981 4122 1889 4070 
Q 1797 4019 1758 3928 
Q 1719 3838 1719 3475 
L 1719 1400 
Q 1719 831 1805 647 
Q 1891 463 2087 341 
Q 2284 219 2584 219 
Q 2928 219 3170 373 
Q 3413 528 3533 800 
Q 3653 1072 3653 1747 
L 3653 3475 
Q 3653 3759 3593 3881 
Q 3534 4003 3444 4050 
Q 3303 4122 3047 4122 
L 3047 4238 
L 4513 4238 
L 4513 4122 
L 4425 4122 
Q 4247 4122 4128 4050 
Q 4009 3978 3956 3834 
Q 3916 3734 3916 3475 
L 3916 1866 
Q 3916 1119 3817 787 
Q 3719 456 3337 178 
Q 2956 -100 2297 -100 
Q 1747 -100 1447 47 
Q 1038 247 869 559 
Q 700 872 700 1400 
L 700 3475 
Q 700 3841 659 3930 
Q 619 4019 519 4072 
Q 419 4125 150 4122 
L 150 4238 
z
" transform="scale(0.015625)"/>
      <path id="TimesNewRomanPS-BoldMT-53" d="M 3006 4334 
L 3041 2922 
L 2913 2922 
Q 2822 3453 2467 3776 
Q 2113 4100 1700 4100 
Q 1381 4100 1195 3929 
Q 1009 3759 1009 3538 
Q 1009 3397 1075 3288 
Q 1166 3141 1366 2997 
Q 1513 2894 2044 2631 
Q 2788 2266 3047 1941 
Q 3303 1616 3303 1197 
Q 3303 666 2889 283 
Q 2475 -100 1838 -100 
Q 1638 -100 1459 -59 
Q 1281 -19 1013 94 
Q 863 156 766 156 
Q 684 156 593 93 
Q 503 31 447 -97 
L 331 -97 
L 331 1503 
L 447 1503 
Q 584 828 976 473 
Q 1369 119 1822 119 
Q 2172 119 2380 309 
Q 2588 500 2588 753 
Q 2588 903 2508 1043 
Q 2428 1184 2265 1311 
Q 2103 1438 1691 1641 
Q 1113 1925 859 2125 
Q 606 2325 470 2572 
Q 334 2819 334 3116 
Q 334 3622 706 3978 
Q 1078 4334 1644 4334 
Q 1850 4334 2044 4284 
Q 2191 4247 2402 4145 
Q 2613 4044 2697 4044 
Q 2778 4044 2825 4094 
Q 2872 4144 2913 4334 
L 3006 4334 
z
" transform="scale(0.015625)"/>
      <path id="TimesNewRomanPS-BoldMT-29" d="M 78 -1281 
L 78 -1138 
Q 403 -922 556 -719 
Q 766 -438 888 0 
Q 1038 550 1038 1531 
Q 1038 2456 902 2967 
Q 766 3478 531 3794 
Q 369 4013 78 4178 
L 78 4334 
Q 831 4081 1354 3301 
Q 1878 2522 1878 1509 
Q 1878 513 1354 -257 
Q 831 -1028 78 -1281 
z
" transform="scale(0.015625)"/>
     </defs>
     <use xlink:href="#TimesNewRomanPS-BoldMT-44"/>
     <use xlink:href="#TimesNewRomanPS-BoldMT-61" x="72.216797"/>
     <use xlink:href="#TimesNewRomanPS-BoldMT-69" x="122.216797"/>
     <use xlink:href="#TimesNewRomanPS-BoldMT-6c" x="150"/>
     <use xlink:href="#TimesNewRomanPS-BoldMT-79" x="177.783203"/>
     <use xlink:href="#TimesNewRomanPS-BoldMT-20" x="227.783203"/>
     <use xlink:href="#TimesNewRomanPS-BoldMT-73" x="252.783203"/>
     <use xlink:href="#TimesNewRomanPS-BoldMT-61" x="291.699219"/>
     <use xlink:href="#TimesNewRomanPS-BoldMT-6c" x="341.699219"/>
     <use xlink:href="#TimesNewRomanPS-BoldMT-65" x="369.482422"/>
     <use xlink:href="#TimesNewRomanPS-BoldMT-73" x="413.867188"/>
     <use xlink:href="#TimesNewRomanPS-BoldMT-20" x="452.783203"/>
     <use xlink:href="#TimesNewRomanPS-BoldMT-73" x="477.783203"/>
     <use xlink:href="#TimesNewRomanPS-BoldMT-74" x="516.699219"/>
     <use xlink:href="#TimesNewRomanPS-BoldMT-61" x="550"/>
     <use xlink:href="#TimesNewRomanPS-BoldMT-74" x="600"/>
     <use xlink:href="#TimesNewRomanPS-BoldMT-69" x="633.300781"/>
     <use xlink:href="#TimesNewRomanPS-BoldMT-73" x="661.083984"/>
     <use xlink:href="#TimesNewRomanPS-BoldMT-74" x="700"/>
     <use xlink:href="#TimesNewRomanPS-BoldMT-69" x="733.300781"/>
     <use xlink:href="#TimesNewRomanPS-BoldMT-63" x="761.083984"/>
     <use xlink:href="#TimesNewRomanPS-BoldMT-73" x="805.46875"/>
     <use xlink:href="#TimesNewRomanPS-BoldMT-20" x="844.384766"/>
     <use xlink:href="#TimesNewRomanPS-BoldMT-62" x="869.384766"/>
     <use xlink:href="#TimesNewRomanPS-BoldMT-79" x="925"/>
     <use xlink:href="#TimesNewRomanPS-BoldMT-20" x="975"/>
     <use xlink:href="#TimesNewRomanPS-BoldMT-70" x="1000"/>
     <use xlink:href="#TimesNewRomanPS-BoldMT-72" x="1055.615234"/>
     <use xlink:href="#TimesNewRomanPS-BoldMT-6f" x="1098.25"/>
     <use xlink:href="#TimesNewRomanPS-BoldMT-64" x="1148.25"/>
     <use xlink:href="#TimesNewRomanPS-BoldMT-75" x="1203.865234"/>
     <use xlink:href="#TimesNewRomanPS-BoldMT-63" x="1259.480469"/>
     <use xlink:href="#TimesNewRomanPS-BoldMT-74" x="1303.865234"/>
     <use xlink:href="#TimesNewRomanPS-BoldMT-20" x="1337.166016"/>
     <use xlink:href="#TimesNewRomanPS-BoldMT-63" x="1362.166016"/>
     <use xlink:href="#TimesNewRomanPS-BoldMT-61" x="1406.550781"/>
     <use xlink:href="#TimesNewRomanPS-BoldMT-74" x="1456.550781"/>
     <use xlink:href="#TimesNewRomanPS-BoldMT-65" x="1489.851562"/>
     <use xlink:href="#TimesNewRomanPS-BoldMT-67" x="1534.236328"/>
     <use xlink:href="#TimesNewRomanPS-BoldMT-6f" x="1584.236328"/>
     <use xlink:href="#TimesNewRomanPS-BoldMT-72" x="1634.236328"/>
     <use xlink:href="#TimesNewRomanPS-BoldMT-79" x="1678.621094"/>
     <use xlink:href="#TimesNewRomanPS-BoldMT-20" x="1728.621094"/>
     <use xlink:href="#TimesNewRomanPS-BoldMT-28" x="1753.621094"/>
     <use xlink:href="#TimesNewRomanPS-BoldMT-74" x="1786.921875"/>
     <use xlink:href="#TimesNewRomanPS-BoldMT-68" x="1820.222656"/>
     <use xlink:href="#TimesNewRomanPS-BoldMT-6f" x="1875.837891"/>
     <use xlink:href="#TimesNewRomanPS-BoldMT-75" x="1925.837891"/>
     <use xlink:href="#TimesNewRomanPS-BoldMT-73" x="1981.453125"/>
     <use xlink:href="#TimesNewRomanPS-BoldMT-61" x="2020.369141"/>
     <use xlink:href="#TimesNewRomanPS-BoldMT-6e" x="2070.369141"/>
     <use xlink:href="#TimesNewRomanPS-BoldMT-64" x="2125.984375"/>
     <use xlink:href="#TimesNewRomanPS-BoldMT-20" x="2181.599609"/>
     <use xlink:href="#TimesNewRomanPS-BoldMT-55" x="2206.599609"/>
     <use xlink:href="#TimesNewRomanPS-BoldMT-53" x="2278.816406"/>
     <use xlink:href="#TimesNewRomanPS-BoldMT-44" x="2334.431641"/>
     <use xlink:href="#TimesNewRomanPS-BoldMT-29" x="2406.648438"/>
    </g>
   </g>
  </g>
 </g>
 <defs>
  <clipPath id="p644a5002fd">
   <rect x="45.915937" y="30.045" width="381.81" height="229.809775"/>
  </clipPath>
 </defs>
</svg>
