<svg xmlns="http://www.w3.org/2000/svg" id="SVGChart" width="1920" height="1440" style="font-family: &quot;Times New Roman&quot;; color: rgb(0, 0, 0);"><rect x="0" y="0" width="1920" height="1440" fill="#ffffff"/><g transform="translate(960,770)"><text x="0" y="-660" text-anchor="middle" style="font-size: 48px;">Research Institution Collaboration Flow (Collaborations)</text><g><g class="group"><path fill="#464879" stroke="#000000" stroke-width="3" d="M0,-522.72A522.72,522.72,0,0,1,237.689,465.554L216.08,423.231A475.2,475.2,0,0,0,0,-475.2Z"/><path id="groupArc0" d="M283.16,554.618A622.72,622.72,0,0,0,0,-622.72A622.72,622.72,0,0,1,283.16,554.618Z" style="visibility: hidden;"/><text><textPath xmlns:ns1="http://www.w3.org/1999/xlink" ns1:href="#groupArc0" startOffset="75%" style="font-size: 36px; text-anchor: middle;">Adriantown College</textPath></text></g><g class="group"><path fill="#5D7DB3" stroke="#000000" stroke-width="3" d="M214.123,476.851A522.72,522.72,0,0,1,-522.638,-9.28L-475.125,-8.437A475.2,475.2,0,0,0,194.658,433.501Z"/><path id="groupArc1" d="M259.183,577.199A632.72,632.72,0,0,1,-632.62,-11.233A632.72,632.72,0,0,0,259.183,577.199Z" style="visibility: hidden;"/><text><textPath xmlns:ns2="http://www.w3.org/1999/xlink" ns2:href="#groupArc1" startOffset="75%" style="font-size: 36px; text-anchor: middle;">Herman Research Center</textPath></text></g><g class="group"><path fill="#84709B" stroke="#000000" stroke-width="3" d="M-521.521,-35.39A522.72,522.72,0,0,1,-26.125,-522.067L-23.75,-474.606A475.2,475.2,0,0,0,-474.11,-32.173Z"/><path id="groupArc2" d="M-31.123,-621.942A622.72,622.72,0,0,0,-621.291,-42.16A622.72,622.72,0,0,1,-31.123,-621.942Z" style="visibility: hidden;"/><text><textPath xmlns:ns3="http://www.w3.org/1999/xlink" ns3:href="#groupArc2" startOffset="75%" style="font-size: 36px; text-anchor: middle;">Jessicatown School</textPath></text></g></g><g class="group-ticks"><g transform="&#10;                    rotate(-90)&#10;                    translate(522.7200000000001,0)&#10;                "><line stroke="#000000" stroke-width="3" x2="15"/><text x="20" dy="0.35em" style="text-anchor: start; font-size: 32px; fill: rgb(0, 0, 0);">0</text></g><g transform="&#10;                    rotate(-83.2235828333023)&#10;                    translate(522.7200000000001,0)&#10;                "><line stroke="#000000" stroke-width="1" x2="10"/></g><g transform="&#10;                    rotate(-76.4471656666046)&#10;                    translate(522.7200000000001,0)&#10;                "><line stroke="#000000" stroke-width="1" x2="10"/></g><g transform="&#10;                    rotate(-69.67074849990692)&#10;                    translate(522.7200000000001,0)&#10;                "><line stroke="#000000" stroke-width="1" x2="10"/></g><g transform="&#10;                    rotate(-62.894331333209216)&#10;                    translate(522.7200000000001,0)&#10;                "><line stroke="#000000" stroke-width="1" x2="10"/></g><g transform="&#10;                    rotate(-56.117914166511525)&#10;                    translate(522.7200000000001,0)&#10;                "><line stroke="#000000" stroke-width="3" x2="15"/><text x="20" dy="0.35em" style="text-anchor: start; font-size: 32px; fill: rgb(0, 0, 0);">35</text></g><g transform="&#10;                    rotate(-49.34149699981383)&#10;                    translate(522.7200000000001,0)&#10;                "><line stroke="#000000" stroke-width="1" x2="10"/></g><g transform="&#10;                    rotate(-42.56507983311614)&#10;                    translate(522.7200000000001,0)&#10;                "><line stroke="#000000" stroke-width="1" x2="10"/></g><g transform="&#10;                    rotate(-35.78866266641843)&#10;                    translate(522.7200000000001,0)&#10;                "><line stroke="#000000" stroke-width="1" x2="10"/></g><g transform="&#10;                    rotate(-29.012245499720734)&#10;                    translate(522.7200000000001,0)&#10;                "><line stroke="#000000" stroke-width="1" x2="10"/></g><g transform="&#10;                    rotate(-22.23582833302305)&#10;                    translate(522.7200000000001,0)&#10;                "><line stroke="#000000" stroke-width="3" x2="15"/><text x="20" dy="0.35em" style="text-anchor: start; font-size: 32px; fill: rgb(0, 0, 0);">70</text></g><g transform="&#10;                    rotate(-15.459411166325353)&#10;                    translate(522.7200000000001,0)&#10;                "><line stroke="#000000" stroke-width="1" x2="10"/></g><g transform="&#10;                    rotate(-8.682993999627655)&#10;                    translate(522.7200000000001,0)&#10;                "><line stroke="#000000" stroke-width="1" x2="10"/></g><g transform="&#10;                    rotate(-1.9065768329299715)&#10;                    translate(522.7200000000001,0)&#10;                "><line stroke="#000000" stroke-width="1" x2="10"/></g><g transform="&#10;                    rotate(4.869840333767726)&#10;                    translate(522.7200000000001,0)&#10;                "><line stroke="#000000" stroke-width="1" x2="10"/></g><g transform="&#10;                    rotate(11.646257500465424)&#10;                    translate(522.7200000000001,0)&#10;                "><line stroke="#000000" stroke-width="3" x2="15"/><text x="20" dy="0.35em" style="text-anchor: start; font-size: 32px; fill: rgb(0, 0, 0);">105</text></g><g transform="&#10;                    rotate(18.422674667163136)&#10;                    translate(522.7200000000001,0)&#10;                "><line stroke="#000000" stroke-width="1" x2="10"/></g><g transform="&#10;                    rotate(25.199091833860834)&#10;                    translate(522.7200000000001,0)&#10;                "><line stroke="#000000" stroke-width="1" x2="10"/></g><g transform="&#10;                    rotate(31.97550900055853)&#10;                    translate(522.7200000000001,0)&#10;                "><line stroke="#000000" stroke-width="1" x2="10"/></g><g transform="&#10;                    rotate(38.751926167256215)&#10;                    translate(522.7200000000001,0)&#10;                "><line stroke="#000000" stroke-width="1" x2="10"/></g><g transform="&#10;                    rotate(45.5283433339539)&#10;                    translate(522.7200000000001,0)&#10;                "><line stroke="#000000" stroke-width="3" x2="15"/><text x="20" dy="0.35em" style="text-anchor: start; font-size: 32px; fill: rgb(0, 0, 0);">140</text></g><g transform="&#10;                    rotate(52.30476050065161)&#10;                    translate(522.7200000000001,0)&#10;                "><line stroke="#000000" stroke-width="1" x2="10"/></g><g transform="&#10;                    rotate(59.081177667349294)&#10;                    translate(522.7200000000001,0)&#10;                "><line stroke="#000000" stroke-width="1" x2="10"/></g><g transform="&#10;                    rotate(65.81820502397352)&#10;                    translate(522.7200000000001,0)&#10;                "><line stroke="#000000" stroke-width="3" x2="15"/><text x="20" dy="0.35em" style="text-anchor: start; font-size: 32px; fill: rgb(0, 0, 0);">0</text></g><g transform="&#10;                    rotate(72.59462219067123)&#10;                    translate(522.7200000000001,0)&#10;                "><line stroke="#000000" stroke-width="1" x2="10"/></g><g transform="&#10;                    rotate(79.37103935736891)&#10;                    translate(522.7200000000001,0)&#10;                "><line stroke="#000000" stroke-width="1" x2="10"/></g><g transform="&#10;                    rotate(86.14745652406665)&#10;                    translate(522.7200000000001,0)&#10;                "><line stroke="#000000" stroke-width="1" x2="10"/></g><g transform="&#10;                    rotate(92.92387369076431)&#10;                    translate(522.7200000000001,0)&#10;                "><line stroke="#000000" stroke-width="1" x2="10"/></g><g transform="&#10;                    rotate(99.700290857462)&#10;                    translate(522.7200000000001,0)&#10;                "><line stroke="#000000" stroke-width="3" x2="15"/><text x="20" dy="0.35em" transform="rotate(180) translate(-40)" style="text-anchor: end; font-size: 32px; fill: rgb(0, 0, 0);">35</text></g><g transform="&#10;                    rotate(106.4767080241597)&#10;                    translate(522.7200000000001,0)&#10;                "><line stroke="#000000" stroke-width="1" x2="10"/></g><g transform="&#10;                    rotate(113.25312519085739)&#10;                    translate(522.7200000000001,0)&#10;                "><line stroke="#000000" stroke-width="1" x2="10"/></g><g transform="&#10;                    rotate(120.02954235755507)&#10;                    translate(522.7200000000001,0)&#10;                "><line stroke="#000000" stroke-width="1" x2="10"/></g><g transform="&#10;                    rotate(126.80595952425284)&#10;                    translate(522.7200000000001,0)&#10;                "><line stroke="#000000" stroke-width="1" x2="10"/></g><g transform="&#10;                    rotate(133.58237669095055)&#10;                    translate(522.7200000000001,0)&#10;                "><line stroke="#000000" stroke-width="3" x2="15"/><text x="20" dy="0.35em" transform="rotate(180) translate(-40)" style="text-anchor: end; font-size: 32px; fill: rgb(0, 0, 0);">70</text></g><g transform="&#10;                    rotate(140.35879385764824)&#10;                    translate(522.7200000000001,0)&#10;                "><line stroke="#000000" stroke-width="1" x2="10"/></g><g transform="&#10;                    rotate(147.13521102434595)&#10;                    translate(522.7200000000001,0)&#10;                "><line stroke="#000000" stroke-width="1" x2="10"/></g><g transform="&#10;                    rotate(153.91162819104363)&#10;                    translate(522.7200000000001,0)&#10;                "><line stroke="#000000" stroke-width="1" x2="10"/></g><g transform="&#10;                    rotate(160.68804535774132)&#10;                    translate(522.7200000000001,0)&#10;                "><line stroke="#000000" stroke-width="1" x2="10"/></g><g transform="&#10;                    rotate(167.464462524439)&#10;                    translate(522.7200000000001,0)&#10;                "><line stroke="#000000" stroke-width="3" x2="15"/><text x="20" dy="0.35em" transform="rotate(180) translate(-40)" style="text-anchor: end; font-size: 32px; fill: rgb(0, 0, 0);">105</text></g><g transform="&#10;                    rotate(174.24087969113674)&#10;                    translate(522.7200000000001,0)&#10;                "><line stroke="#000000" stroke-width="1" x2="10"/></g><g transform="&#10;                    rotate(181.01729685783442)&#10;                    translate(522.7200000000001,0)&#10;                "><line stroke="#000000" stroke-width="1" x2="10"/></g><g transform="&#10;                    rotate(183.88208583348853)&#10;                    translate(522.7200000000001,0)&#10;                "><line stroke="#000000" stroke-width="3" x2="15"/><text x="20" dy="0.35em" transform="rotate(180) translate(-40)" style="text-anchor: end; font-size: 32px; fill: rgb(0, 0, 0);">0</text></g><g transform="&#10;                    rotate(190.65850300018622)&#10;                    translate(522.7200000000001,0)&#10;                "><line stroke="#000000" stroke-width="1" x2="10"/></g><g transform="&#10;                    rotate(197.4349201668839)&#10;                    translate(522.7200000000001,0)&#10;                "><line stroke="#000000" stroke-width="1" x2="10"/></g><g transform="&#10;                    rotate(204.21133733358164)&#10;                    translate(522.7200000000001,0)&#10;                "><line stroke="#000000" stroke-width="1" x2="10"/></g><g transform="&#10;                    rotate(210.98775450027932)&#10;                    translate(522.7200000000001,0)&#10;                "><line stroke="#000000" stroke-width="1" x2="10"/></g><g transform="&#10;                    rotate(217.764171666977)&#10;                    translate(522.7200000000001,0)&#10;                "><line stroke="#000000" stroke-width="3" x2="15"/><text x="20" dy="0.35em" transform="rotate(180) translate(-40)" style="text-anchor: end; font-size: 32px; fill: rgb(0, 0, 0);">35</text></g><g transform="&#10;                    rotate(224.5405888336747)&#10;                    translate(522.7200000000001,0)&#10;                "><line stroke="#000000" stroke-width="1" x2="10"/></g><g transform="&#10;                    rotate(231.31700600037237)&#10;                    translate(522.7200000000001,0)&#10;                "><line stroke="#000000" stroke-width="1" x2="10"/></g><g transform="&#10;                    rotate(238.0934231670701)&#10;                    translate(522.7200000000001,0)&#10;                "><line stroke="#000000" stroke-width="1" x2="10"/></g><g transform="&#10;                    rotate(244.86984033376768)&#10;                    translate(522.7200000000001,0)&#10;                "><line stroke="#000000" stroke-width="1" x2="10"/></g><g transform="&#10;                    rotate(251.64625750046542)&#10;                    translate(522.7200000000001,0)&#10;                "><line stroke="#000000" stroke-width="3" x2="15"/><text x="20" dy="0.35em" transform="rotate(180) translate(-40)" style="text-anchor: end; font-size: 32px; fill: rgb(0, 0, 0);">70</text></g><g transform="&#10;                    rotate(258.42267466716316)&#10;                    translate(522.7200000000001,0)&#10;                "><line stroke="#000000" stroke-width="1" x2="10"/></g><g transform="&#10;                    rotate(265.19909183386085)&#10;                    translate(522.7200000000001,0)&#10;                "><line stroke="#000000" stroke-width="1" x2="10"/></g></g><g class="chord"><path d="M463.8364989568372,-103.29928477711734A475.20000000000005,475.20000000000005,0,0,1,216.0804618038378,423.2307574203938Q0,0,-390.2058054296887,271.209272350648A475.20000000000005,475.20000000000005,0,0,1,-475.12509942211227,-8.436818068914214Q0,0,463.8364989568372,-103.29928477711734Z" fill="#464879" stroke="#000000" stroke-width="1" opacity="0.3"/><path d="M2.909760794774111e-14,-475.20000000000005A475.20000000000005,475.20000000000005,0,0,1,463.8364989568372,-103.29928477711734Q0,0,-474.1096516096467,-32.17263201199856A475.20000000000005,475.20000000000005,0,0,1,-187.1557642034385,-436.7925822692356Q0,0,2.909760794774111e-14,-475.20000000000005Z" fill="#464879" stroke="#000000" stroke-width="1" opacity="0.3"/><path d="M194.65769582717638,433.5013511573574A475.20000000000005,475.20000000000005,0,0,1,-390.2058054296887,271.209272350648Q0,0,-187.1557642034385,-436.7925822692356A475.20000000000005,475.20000000000005,0,0,1,-23.75010123742635,-474.60612373968803Q0,0,194.65769582717638,433.5013511573574Z" fill="#5D7DB3" stroke="#000000" stroke-width="1" opacity="0.3"/></g><g transform="translate(522.7200000000001, 0)"><g class="legend-item" transform="translate(0, -620)"><circle cx="20" cy="20" r="20" fill="#464879"/><text x="50" y="20" dy="0.35em" style="font-size: 28px; fill: rgb(0, 0, 0);">Adriantown College</text></g><g class="legend-item" transform="translate(0, -575)"><circle cx="20" cy="20" r="20" fill="#5D7DB3"/><text x="50" y="20" dy="0.35em" style="font-size: 28px; fill: rgb(0, 0, 0);">Herman Research Center</text></g><g class="legend-item" transform="translate(0, -530)"><circle cx="20" cy="20" r="20" fill="#84709B"/><text x="50" y="20" dy="0.35em" style="font-size: 28px; fill: rgb(0, 0, 0);">Jessicatown School</text></g></g></g></svg>