<svg xmlns="http://www.w3.org/2000/svg" id="SVGChart" width="1920" height="1440" style="font-family: &quot;Times New Roman&quot;; color: rgb(0, 0, 0);"><rect x="0" y="0" width="1920" height="1440" fill="#ffffff"/><g transform="translate(960,770)"><text x="0" y="-660" text-anchor="middle" style="font-size: 48px;">Basketball Team Fans Migration (Thousand Fans)</text><g><g class="group"><path fill="#91AEB0" stroke="#000000" stroke-width="3" d="M0,-522.72A522.72,522.72,0,0,1,393.022,-344.63L357.292,-313.3A475.2,475.2,0,0,0,0,-475.2Z"/><path id="groupArc0" d="M468.21,-410.561A622.72,622.72,0,0,0,0,-622.72A622.72,622.72,0,0,1,468.21,-410.561Z" style="visibility: hidden;"/><text><textPath xmlns:ns1="http://www.w3.org/1999/xlink" ns1:href="#groupArc0" startOffset="75%" style="font-size: 36px; text-anchor: middle;">Edwardsborough Bulls</textPath></text></g><g class="group"><path fill="#364A62" stroke="#000000" stroke-width="3" d="M409.755,-324.557A522.72,522.72,0,0,1,417.911,313.985L379.919,285.441A475.2,475.2,0,0,0,372.504,-295.052Z"/><path id="groupArc1" d="M497.86,374.053A622.72,622.72,0,0,0,488.144,-386.647A622.72,622.72,0,0,1,497.86,374.053Z" style="visibility: hidden;"/><text><textPath xmlns:ns2="http://www.w3.org/1999/xlink" ns2:href="#groupArc1" startOffset="75%" style="font-size: 36px; text-anchor: middle;">Rebeccaview Dolphins</textPath></text></g><g class="group"><path fill="#E3B386" stroke="#000000" stroke-width="3" d="M401.696,334.479A522.72,522.72,0,0,1,-327.616,407.313L-297.832,370.285A475.2,475.2,0,0,0,365.178,304.072Z"/><path id="groupArc2" d="M486.228,404.867A632.72,632.72,0,0,1,-396.558,493.027A632.72,632.72,0,0,0,486.228,404.867Z" style="visibility: hidden;"/><text><textPath xmlns:ns3="http://www.w3.org/1999/xlink" ns3:href="#groupArc2" startOffset="75%" style="font-size: 36px; text-anchor: middle;">East Rovers</textPath></text></g><g class="group"><path fill="#DC8E75" stroke="#000000" stroke-width="3" d="M-347.563,390.43A522.72,522.72,0,0,1,-26.125,-522.067L-23.75,-474.606A475.2,475.2,0,0,0,-315.967,354.937Z"/><path id="groupArc3" d="M-31.123,-621.942A622.72,622.72,0,0,0,-414.055,465.122A622.72,622.72,0,0,1,-31.123,-621.942Z" style="visibility: hidden;"/><text><textPath xmlns:ns4="http://www.w3.org/1999/xlink" ns4:href="#groupArc3" startOffset="75%" style="font-size: 36px; text-anchor: middle;">South Stars</textPath></text></g></g><g class="group-ticks"><g transform="&#10;                    rotate(-90)&#10;                    translate(522.7200000000001,0)&#10;                "><line stroke="#000000" stroke-width="3" x2="15"/><text x="20" dy="0.35em" style="text-anchor: start; font-size: 32px; fill: rgb(0, 0, 0);">0</text></g><g transform="&#10;                    rotate(-83.03523943159007)&#10;                    translate(522.7200000000001,0)&#10;                "><line stroke="#000000" stroke-width="1" x2="10"/></g><g transform="&#10;                    rotate(-76.07047886318016)&#10;                    translate(522.7200000000001,0)&#10;                "><line stroke="#000000" stroke-width="1" x2="10"/></g><g transform="&#10;                    rotate(-69.10571829477024)&#10;                    translate(522.7200000000001,0)&#10;                "><line stroke="#000000" stroke-width="1" x2="10"/></g><g transform="&#10;                    rotate(-62.14095772636031)&#10;                    translate(522.7200000000001,0)&#10;                "><line stroke="#000000" stroke-width="1" x2="10"/></g><g transform="&#10;                    rotate(-55.176197157950384)&#10;                    translate(522.7200000000001,0)&#10;                "><line stroke="#000000" stroke-width="3" x2="15"/><text x="20" dy="0.35em" style="text-anchor: start; font-size: 32px; fill: rgb(0, 0, 0);">345</text></g><g transform="&#10;                    rotate(-48.21143658954047)&#10;                    translate(522.7200000000001,0)&#10;                "><line stroke="#000000" stroke-width="1" x2="10"/></g><g transform="&#10;                    rotate(-41.24667602113054)&#10;                    translate(522.7200000000001,0)&#10;                "><line stroke="#000000" stroke-width="1" x2="10"/></g><g transform="&#10;                    rotate(-38.381887045476425)&#10;                    translate(522.7200000000001,0)&#10;                "><line stroke="#000000" stroke-width="3" x2="15"/><text x="20" dy="0.35em" style="text-anchor: start; font-size: 32px; fill: rgb(0, 0, 0);">0</text></g><g transform="&#10;                    rotate(-31.417126477066496)&#10;                    translate(522.7200000000001,0)&#10;                "><line stroke="#000000" stroke-width="1" x2="10"/></g><g transform="&#10;                    rotate(-24.45236590865656)&#10;                    translate(522.7200000000001,0)&#10;                "><line stroke="#000000" stroke-width="1" x2="10"/></g><g transform="&#10;                    rotate(-17.48760534024666)&#10;                    translate(522.7200000000001,0)&#10;                "><line stroke="#000000" stroke-width="1" x2="10"/></g><g transform="&#10;                    rotate(-10.52284477183673)&#10;                    translate(522.7200000000001,0)&#10;                "><line stroke="#000000" stroke-width="1" x2="10"/></g><g transform="&#10;                    rotate(-3.5580842034267874)&#10;                    translate(522.7200000000001,0)&#10;                "><line stroke="#000000" stroke-width="3" x2="15"/><text x="20" dy="0.35em" style="text-anchor: start; font-size: 32px; fill: rgb(0, 0, 0);">345</text></g><g transform="&#10;                    rotate(3.4066763649831273)&#10;                    translate(522.7200000000001,0)&#10;                "><line stroke="#000000" stroke-width="1" x2="10"/></g><g transform="&#10;                    rotate(10.371436933393042)&#10;                    translate(522.7200000000001,0)&#10;                "><line stroke="#000000" stroke-width="1" x2="10"/></g><g transform="&#10;                    rotate(17.33619750180297)&#10;                    translate(522.7200000000001,0)&#10;                "><line stroke="#000000" stroke-width="1" x2="10"/></g><g transform="&#10;                    rotate(24.300958070212886)&#10;                    translate(522.7200000000001,0)&#10;                "><line stroke="#000000" stroke-width="1" x2="10"/></g><g transform="&#10;                    rotate(31.26571863862283)&#10;                    translate(522.7200000000001,0)&#10;                "><line stroke="#000000" stroke-width="3" x2="15"/><text x="20" dy="0.35em" style="text-anchor: start; font-size: 32px; fill: rgb(0, 0, 0);">690</text></g><g transform="&#10;                    rotate(39.783066916174846)&#10;                    translate(522.7200000000001,0)&#10;                "><line stroke="#000000" stroke-width="3" x2="15"/><text x="20" dy="0.35em" style="text-anchor: start; font-size: 32px; fill: rgb(0, 0, 0);">0</text></g><g transform="&#10;                    rotate(46.747827484584775)&#10;                    translate(522.7200000000001,0)&#10;                "><line stroke="#000000" stroke-width="1" x2="10"/></g><g transform="&#10;                    rotate(53.712588052994676)&#10;                    translate(522.7200000000001,0)&#10;                "><line stroke="#000000" stroke-width="1" x2="10"/></g><g transform="&#10;                    rotate(60.677348621404605)&#10;                    translate(522.7200000000001,0)&#10;                "><line stroke="#000000" stroke-width="1" x2="10"/></g><g transform="&#10;                    rotate(67.64210918981453)&#10;                    translate(522.7200000000001,0)&#10;                "><line stroke="#000000" stroke-width="1" x2="10"/></g><g transform="&#10;                    rotate(74.60686975822443)&#10;                    translate(522.7200000000001,0)&#10;                "><line stroke="#000000" stroke-width="3" x2="15"/><text x="20" dy="0.35em" style="text-anchor: start; font-size: 32px; fill: rgb(0, 0, 0);">345</text></g><g transform="&#10;                    rotate(81.57163032663436)&#10;                    translate(522.7200000000001,0)&#10;                "><line stroke="#000000" stroke-width="1" x2="10"/></g><g transform="&#10;                    rotate(88.53639089504429)&#10;                    translate(522.7200000000001,0)&#10;                "><line stroke="#000000" stroke-width="1" x2="10"/></g><g transform="&#10;                    rotate(95.50115146345422)&#10;                    translate(522.7200000000001,0)&#10;                "><line stroke="#000000" stroke-width="1" x2="10"/></g><g transform="&#10;                    rotate(102.46591203186415)&#10;                    translate(522.7200000000001,0)&#10;                "><line stroke="#000000" stroke-width="1" x2="10"/></g><g transform="&#10;                    rotate(109.43067260027405)&#10;                    translate(522.7200000000001,0)&#10;                "><line stroke="#000000" stroke-width="3" x2="15"/><text x="20" dy="0.35em" transform="rotate(180) translate(-40)" style="text-anchor: end; font-size: 32px; fill: rgb(0, 0, 0);">690</text></g><g transform="&#10;                    rotate(116.39543316868398)&#10;                    translate(522.7200000000001,0)&#10;                "><line stroke="#000000" stroke-width="1" x2="10"/></g><g transform="&#10;                    rotate(123.36019373709394)&#10;                    translate(522.7200000000001,0)&#10;                "><line stroke="#000000" stroke-width="1" x2="10"/></g><g transform="&#10;                    rotate(131.67566489672103)&#10;                    translate(522.7200000000001,0)&#10;                "><line stroke="#000000" stroke-width="3" x2="15"/><text x="20" dy="0.35em" transform="rotate(180) translate(-40)" style="text-anchor: end; font-size: 32px; fill: rgb(0, 0, 0);">0</text></g><g transform="&#10;                    rotate(138.64042546513096)&#10;                    translate(522.7200000000001,0)&#10;                "><line stroke="#000000" stroke-width="1" x2="10"/></g><g transform="&#10;                    rotate(145.60518603354086)&#10;                    translate(522.7200000000001,0)&#10;                "><line stroke="#000000" stroke-width="1" x2="10"/></g><g transform="&#10;                    rotate(152.56994660195082)&#10;                    translate(522.7200000000001,0)&#10;                "><line stroke="#000000" stroke-width="1" x2="10"/></g><g transform="&#10;                    rotate(159.5347071703607)&#10;                    translate(522.7200000000001,0)&#10;                "><line stroke="#000000" stroke-width="1" x2="10"/></g><g transform="&#10;                    rotate(166.49946773877065)&#10;                    translate(522.7200000000001,0)&#10;                "><line stroke="#000000" stroke-width="3" x2="15"/><text x="20" dy="0.35em" transform="rotate(180) translate(-40)" style="text-anchor: end; font-size: 32px; fill: rgb(0, 0, 0);">345</text></g><g transform="&#10;                    rotate(173.46422830718058)&#10;                    translate(522.7200000000001,0)&#10;                "><line stroke="#000000" stroke-width="1" x2="10"/></g><g transform="&#10;                    rotate(180.4289888755905)&#10;                    translate(522.7200000000001,0)&#10;                "><line stroke="#000000" stroke-width="1" x2="10"/></g><g transform="&#10;                    rotate(187.39374944400038)&#10;                    translate(522.7200000000001,0)&#10;                "><line stroke="#000000" stroke-width="1" x2="10"/></g><g transform="&#10;                    rotate(194.35851001241036)&#10;                    translate(522.7200000000001,0)&#10;                "><line stroke="#000000" stroke-width="1" x2="10"/></g><g transform="&#10;                    rotate(201.32327058082024)&#10;                    translate(522.7200000000001,0)&#10;                "><line stroke="#000000" stroke-width="3" x2="15"/><text x="20" dy="0.35em" transform="rotate(180) translate(-40)" style="text-anchor: end; font-size: 32px; fill: rgb(0, 0, 0);">690</text></g><g transform="&#10;                    rotate(208.28803114923016)&#10;                    translate(522.7200000000001,0)&#10;                "><line stroke="#000000" stroke-width="1" x2="10"/></g><g transform="&#10;                    rotate(215.2527917176401)&#10;                    translate(522.7200000000001,0)&#10;                "><line stroke="#000000" stroke-width="1" x2="10"/></g><g transform="&#10;                    rotate(222.21755228605008)&#10;                    translate(522.7200000000001,0)&#10;                "><line stroke="#000000" stroke-width="1" x2="10"/></g><g transform="&#10;                    rotate(229.18231285445995)&#10;                    translate(522.7200000000001,0)&#10;                "><line stroke="#000000" stroke-width="1" x2="10"/></g><g transform="&#10;                    rotate(236.14707342286994)&#10;                    translate(522.7200000000001,0)&#10;                "><line stroke="#000000" stroke-width="3" x2="15"/><text x="20" dy="0.35em" transform="rotate(180) translate(-40)" style="text-anchor: end; font-size: 32px; fill: rgb(0, 0, 0);">1035</text></g><g transform="&#10;                    rotate(243.11183399127975)&#10;                    translate(522.7200000000001,0)&#10;                "><line stroke="#000000" stroke-width="1" x2="10"/></g><g transform="&#10;                    rotate(250.07659455968974)&#10;                    translate(522.7200000000001,0)&#10;                "><line stroke="#000000" stroke-width="1" x2="10"/></g><g transform="&#10;                    rotate(257.04135512809955)&#10;                    translate(522.7200000000001,0)&#10;                "><line stroke="#000000" stroke-width="1" x2="10"/></g><g transform="&#10;                    rotate(264.0061156965096)&#10;                    translate(522.7200000000001,0)&#10;                "><line stroke="#000000" stroke-width="1" x2="10"/></g></g><g class="chord"><path d="M473.5892316120376,39.093218096235326A475.20000000000005,475.20000000000005,0,0,1,443.7265675362397,170.0640269501665Q0,0,307.8313227927476,-362.0150780114929A475.20000000000005,475.20000000000005,0,0,1,357.2924530425442,-313.30040376424887Q0,0,473.5892316120376,39.093218096235326Z" fill="#364A62" stroke="#000000" stroke-width="1" opacity="0.3"/><path d="M-315.9667415974207,354.9366960519985A475.20000000000005,475.20000000000005,0,0,1,-472.2529532405681,-52.841159672757655Q0,0,2.909760794774111e-14,-475.20000000000005A475.20000000000005,475.20000000000005,0,0,1,307.8313227927476,-362.0150780114929Q0,0,-315.9667415974207,354.9366960519985Z" fill="#DC8E75" stroke="#000000" stroke-width="1" opacity="0.3"/><path d="M372.50442442570255,-295.05167985164246A475.20000000000005,475.20000000000005,0,0,1,473.5892316120376,39.093218096235326Q0,0,-82.87196367712333,467.91802448323955A475.20000000000005,475.20000000000005,0,0,1,-297.8324242342149,370.28487286786464Q0,0,372.50442442570255,-295.05167985164246Z" fill="#364A62" stroke="#000000" stroke-width="1" opacity="0.3"/><path d="M-247.7989575942255,-405.4759137300455A475.20000000000005,475.20000000000005,0,0,1,-23.75010123742635,-474.60612373968803Q0,0,443.7265675362397,170.0640269501665A475.20000000000005,475.20000000000005,0,0,1,379.91911047440146,285.4409036847025Q0,0,-247.7989575942255,-405.4759137300455Z" fill="#DC8E75" stroke="#000000" stroke-width="1" opacity="0.3"/><path d="M365.1782112732993,304.0722184140366A475.20000000000005,475.20000000000005,0,0,1,-82.87196367712333,467.91802448323955Q0,0,-472.2529532405681,-52.841159672757655A475.20000000000005,475.20000000000005,0,0,1,-247.7989575942255,-405.4759137300455Q0,0,365.1782112732993,304.0722184140366Z" fill="#E3B386" stroke="#000000" stroke-width="1" opacity="0.3"/></g><g transform="translate(522.7200000000001, 0)"><g class="legend-item" transform="translate(0, -620)"><circle cx="20" cy="20" r="20" fill="#91AEB0"/><text x="50" y="20" dy="0.35em" style="font-size: 28px; fill: rgb(0, 0, 0);">Edwardsborough Bulls</text></g><g class="legend-item" transform="translate(0, -575)"><circle cx="20" cy="20" r="20" fill="#364A62"/><text x="50" y="20" dy="0.35em" style="font-size: 28px; fill: rgb(0, 0, 0);">Rebeccaview Dolphins</text></g><g class="legend-item" transform="translate(0, -530)"><circle cx="20" cy="20" r="20" fill="#E3B386"/><text x="50" y="20" dy="0.35em" style="font-size: 28px; fill: rgb(0, 0, 0);">East Rovers</text></g><g class="legend-item" transform="translate(0, -485)"><circle cx="20" cy="20" r="20" fill="#DC8E75"/><text x="50" y="20" dy="0.35em" style="font-size: 28px; fill: rgb(0, 0, 0);">South Stars</text></g></g></g></svg>