<svg xmlns="http://www.w3.org/2000/svg" id="SVGChart" width="1920" height="1440" style="font-family: &quot;Times New Roman&quot;; color: rgb(0, 0, 0);"><rect x="0" y="0" width="1920" height="1440" fill="#ffffff"/><g transform="translate(960,770)"><text x="0" y="-660" text-anchor="middle" style="font-size: 48px;">Restaurant Customer Flow (Customers)</text><g><g class="group"><path fill="#464879" stroke="#000000" stroke-width="3" d="M0,-522.72A522.72,522.72,0,0,1,459.64,248.932L417.855,226.302A475.2,475.2,0,0,0,0,-475.2Z"/><path id="groupArc0" d="M547.572,296.554A622.72,622.72,0,0,0,0,-622.72A622.72,622.72,0,0,1,547.572,296.554Z" style="visibility: hidden;"/><text><textPath xmlns:ns1="http://www.w3.org/1999/xlink" ns1:href="#groupArc0" startOffset="75%" style="font-size: 36px; text-anchor: middle;">Christopher's Tacos</textPath></text></g><g class="group"><path fill="#5D7DB3" stroke="#000000" stroke-width="3" d="M446.624,271.593A522.72,522.72,0,0,1,-375.217,363.935L-341.106,330.85A475.2,475.2,0,0,0,406.022,246.903Z"/><path id="groupArc1" d="M540.611,328.747A632.72,632.72,0,0,1,-454.176,440.521A632.72,632.72,0,0,0,540.611,328.747Z" style="visibility: hidden;"/><text><textPath xmlns:ns2="http://www.w3.org/1999/xlink" ns2:href="#groupArc1" startOffset="75%" style="font-size: 36px; text-anchor: middle;">World Donuts</textPath></text></g><g class="group"><path fill="#84709B" stroke="#000000" stroke-width="3" d="M-392.937,344.727A522.72,522.72,0,0,1,-440.337,-281.673L-400.306,-256.066A475.2,475.2,0,0,0,-357.215,313.388Z"/><path id="groupArc2" d="M-475.626,417.271A632.72,632.72,0,0,1,-533,-340.947A632.72,632.72,0,0,0,-475.626,417.271Z" style="visibility: hidden;"/><text><textPath xmlns:ns3="http://www.w3.org/1999/xlink" ns3:href="#groupArc2" startOffset="75%" style="font-size: 36px; text-anchor: middle;">Kathy's Pizzas</textPath></text></g><g class="group"><path fill="#A3B3C8" stroke="#000000" stroke-width="3" d="M-425.709,-303.328A522.72,522.72,0,0,1,-276.871,-443.372L-251.701,-403.065A475.2,475.2,0,0,0,-387.008,-275.753Z"/><path id="groupArc3" d="M-329.839,-528.192A622.72,622.72,0,0,0,-507.15,-361.357A622.72,622.72,0,0,1,-329.839,-528.192Z" style="visibility: hidden;"/><text><textPath xmlns:ns4="http://www.w3.org/1999/xlink" ns4:href="#groupArc3" startOffset="75%" style="font-size: 36px; text-anchor: middle;">Cisnerosfurt…</textPath></text></g><g class="group"><path fill="#B6CAD7" stroke="#000000" stroke-width="3" d="M-254.366,-456.655A522.72,522.72,0,0,1,-26.125,-522.067L-23.75,-474.606A475.2,475.2,0,0,0,-231.242,-415.141Z"/><path id="groupArc4" d="M-31.123,-621.942A622.72,622.72,0,0,0,-303.028,-544.017A622.72,622.72,0,0,1,-31.123,-621.942Z" style="visibility: hidden;"/><text><textPath xmlns:ns5="http://www.w3.org/1999/xlink" ns5:href="#groupArc4" startOffset="75%" style="font-size: 36px; text-anchor: middle;">Crystalbury Co…</textPath></text></g></g><g class="group-ticks"><g transform="&#10;                    rotate(-90)&#10;                    translate(522.7200000000001,0)&#10;                "><line stroke="#000000" stroke-width="3" x2="15"/><text x="20" dy="0.35em" style="text-anchor: start; font-size: 32px; fill: rgb(0, 0, 0);">0</text></g><g transform="&#10;                    rotate(-83.10279486669795)&#10;                    translate(522.7200000000001,0)&#10;                "><line stroke="#000000" stroke-width="1" x2="10"/></g><g transform="&#10;                    rotate(-76.20558973339591)&#10;                    translate(522.7200000000001,0)&#10;                "><line stroke="#000000" stroke-width="1" x2="10"/></g><g transform="&#10;                    rotate(-69.30838460009386)&#10;                    translate(522.7200000000001,0)&#10;                "><line stroke="#000000" stroke-width="1" x2="10"/></g><g transform="&#10;                    rotate(-62.411179466791815)&#10;                    translate(522.7200000000001,0)&#10;                "><line stroke="#000000" stroke-width="1" x2="10"/></g><g transform="&#10;                    rotate(-55.51397433348977)&#10;                    translate(522.7200000000001,0)&#10;                "><line stroke="#000000" stroke-width="3" x2="15"/><text x="20" dy="0.35em" style="text-anchor: start; font-size: 32px; fill: rgb(0, 0, 0);">465</text></g><g transform="&#10;                    rotate(-48.61676920018772)&#10;                    translate(522.7200000000001,0)&#10;                "><line stroke="#000000" stroke-width="1" x2="10"/></g><g transform="&#10;                    rotate(-41.71956406688567)&#10;                    translate(522.7200000000001,0)&#10;                "><line stroke="#000000" stroke-width="1" x2="10"/></g><g transform="&#10;                    rotate(-34.82235893358363)&#10;                    translate(522.7200000000001,0)&#10;                "><line stroke="#000000" stroke-width="1" x2="10"/></g><g transform="&#10;                    rotate(-27.92515380028157)&#10;                    translate(522.7200000000001,0)&#10;                "><line stroke="#000000" stroke-width="1" x2="10"/></g><g transform="&#10;                    rotate(-21.02794866697954)&#10;                    translate(522.7200000000001,0)&#10;                "><line stroke="#000000" stroke-width="3" x2="15"/><text x="20" dy="0.35em" style="text-anchor: start; font-size: 32px; fill: rgb(0, 0, 0);">930</text></g><g transform="&#10;                    rotate(-14.130743533677503)&#10;                    translate(522.7200000000001,0)&#10;                "><line stroke="#000000" stroke-width="1" x2="10"/></g><g transform="&#10;                    rotate(-7.233538400375437)&#10;                    translate(522.7200000000001,0)&#10;                "><line stroke="#000000" stroke-width="1" x2="10"/></g><g transform="&#10;                    rotate(-0.3363332670733996)&#10;                    translate(522.7200000000001,0)&#10;                "><line stroke="#000000" stroke-width="1" x2="10"/></g><g transform="&#10;                    rotate(6.560871866228666)&#10;                    translate(522.7200000000001,0)&#10;                "><line stroke="#000000" stroke-width="1" x2="10"/></g><g transform="&#10;                    rotate(13.458076999530704)&#10;                    translate(522.7200000000001,0)&#10;                "><line stroke="#000000" stroke-width="3" x2="15"/><text x="20" dy="0.35em" style="text-anchor: start; font-size: 32px; fill: rgb(0, 0, 0);">1395</text></g><g transform="&#10;                    rotate(20.35528213283274)&#10;                    translate(522.7200000000001,0)&#10;                "><line stroke="#000000" stroke-width="1" x2="10"/></g><g transform="&#10;                    rotate(27.252487266134793)&#10;                    translate(522.7200000000001,0)&#10;                "><line stroke="#000000" stroke-width="1" x2="10"/></g><g transform="&#10;                    rotate(31.30389217870109)&#10;                    translate(522.7200000000001,0)&#10;                "><line stroke="#000000" stroke-width="3" x2="15"/><text x="20" dy="0.35em" style="text-anchor: start; font-size: 32px; fill: rgb(0, 0, 0);">0</text></g><g transform="&#10;                    rotate(38.2010973120031)&#10;                    translate(522.7200000000001,0)&#10;                "><line stroke="#000000" stroke-width="1" x2="10"/></g><g transform="&#10;                    rotate(45.098302445305166)&#10;                    translate(522.7200000000001,0)&#10;                "><line stroke="#000000" stroke-width="1" x2="10"/></g><g transform="&#10;                    rotate(51.9955075786072)&#10;                    translate(522.7200000000001,0)&#10;                "><line stroke="#000000" stroke-width="1" x2="10"/></g><g transform="&#10;                    rotate(58.89271271190927)&#10;                    translate(522.7200000000001,0)&#10;                "><line stroke="#000000" stroke-width="1" x2="10"/></g><g transform="&#10;                    rotate(65.7899178452113)&#10;                    translate(522.7200000000001,0)&#10;                "><line stroke="#000000" stroke-width="3" x2="15"/><text x="20" dy="0.35em" style="text-anchor: start; font-size: 32px; fill: rgb(0, 0, 0);">465</text></g><g transform="&#10;                    rotate(72.68712297851334)&#10;                    translate(522.7200000000001,0)&#10;                "><line stroke="#000000" stroke-width="1" x2="10"/></g><g transform="&#10;                    rotate(79.58432811181538)&#10;                    translate(522.7200000000001,0)&#10;                "><line stroke="#000000" stroke-width="1" x2="10"/></g><g transform="&#10;                    rotate(86.48153324511748)&#10;                    translate(522.7200000000001,0)&#10;                "><line stroke="#000000" stroke-width="1" x2="10"/></g><g transform="&#10;                    rotate(93.37873837841948)&#10;                    translate(522.7200000000001,0)&#10;                "><line stroke="#000000" stroke-width="1" x2="10"/></g><g transform="&#10;                    rotate(100.27594351172155)&#10;                    translate(522.7200000000001,0)&#10;                "><line stroke="#000000" stroke-width="3" x2="15"/><text x="20" dy="0.35em" transform="rotate(180) translate(-40)" style="text-anchor: end; font-size: 32px; fill: rgb(0, 0, 0);">930</text></g><g transform="&#10;                    rotate(107.17314864502359)&#10;                    translate(522.7200000000001,0)&#10;                "><line stroke="#000000" stroke-width="1" x2="10"/></g><g transform="&#10;                    rotate(114.0703537783256)&#10;                    translate(522.7200000000001,0)&#10;                "><line stroke="#000000" stroke-width="1" x2="10"/></g><g transform="&#10;                    rotate(120.96755891162769)&#10;                    translate(522.7200000000001,0)&#10;                "><line stroke="#000000" stroke-width="1" x2="10"/></g><g transform="&#10;                    rotate(127.86476404492973)&#10;                    translate(522.7200000000001,0)&#10;                "><line stroke="#000000" stroke-width="1" x2="10"/></g><g transform="&#10;                    rotate(134.76196917823177)&#10;                    translate(522.7200000000001,0)&#10;                "><line stroke="#000000" stroke-width="3" x2="15"/><text x="20" dy="0.35em" transform="rotate(180) translate(-40)" style="text-anchor: end; font-size: 32px; fill: rgb(0, 0, 0);">1395</text></g><g transform="&#10;                    rotate(138.73921059474105)&#10;                    translate(522.7200000000001,0)&#10;                "><line stroke="#000000" stroke-width="3" x2="15"/><text x="20" dy="0.35em" transform="rotate(180) translate(-40)" style="text-anchor: end; font-size: 32px; fill: rgb(0, 0, 0);">0</text></g><g transform="&#10;                    rotate(145.6364157280431)&#10;                    translate(522.7200000000001,0)&#10;                "><line stroke="#000000" stroke-width="1" x2="10"/></g><g transform="&#10;                    rotate(152.53362086134518)&#10;                    translate(522.7200000000001,0)&#10;                "><line stroke="#000000" stroke-width="1" x2="10"/></g><g transform="&#10;                    rotate(159.43082599464722)&#10;                    translate(522.7200000000001,0)&#10;                "><line stroke="#000000" stroke-width="1" x2="10"/></g><g transform="&#10;                    rotate(166.32803112794926)&#10;                    translate(522.7200000000001,0)&#10;                "><line stroke="#000000" stroke-width="1" x2="10"/></g><g transform="&#10;                    rotate(173.22523626125133)&#10;                    translate(522.7200000000001,0)&#10;                "><line stroke="#000000" stroke-width="3" x2="15"/><text x="20" dy="0.35em" transform="rotate(180) translate(-40)" style="text-anchor: end; font-size: 32px; fill: rgb(0, 0, 0);">465</text></g><g transform="&#10;                    rotate(180.12244139455333)&#10;                    translate(522.7200000000001,0)&#10;                "><line stroke="#000000" stroke-width="1" x2="10"/></g><g transform="&#10;                    rotate(187.0196465278554)&#10;                    translate(522.7200000000001,0)&#10;                "><line stroke="#000000" stroke-width="1" x2="10"/></g><g transform="&#10;                    rotate(193.91685166115747)&#10;                    translate(522.7200000000001,0)&#10;                "><line stroke="#000000" stroke-width="1" x2="10"/></g><g transform="&#10;                    rotate(200.81405679445947)&#10;                    translate(522.7200000000001,0)&#10;                "><line stroke="#000000" stroke-width="1" x2="10"/></g><g transform="&#10;                    rotate(207.71126192776154)&#10;                    translate(522.7200000000001,0)&#10;                "><line stroke="#000000" stroke-width="3" x2="15"/><text x="20" dy="0.35em" transform="rotate(180) translate(-40)" style="text-anchor: end; font-size: 32px; fill: rgb(0, 0, 0);">930</text></g><g transform="&#10;                    rotate(215.4708416431784)&#10;                    translate(522.7200000000001,0)&#10;                "><line stroke="#000000" stroke-width="3" x2="15"/><text x="20" dy="0.35em" transform="rotate(180) translate(-40)" style="text-anchor: end; font-size: 32px; fill: rgb(0, 0, 0);">0</text></g><g transform="&#10;                    rotate(222.36804677648047)&#10;                    translate(522.7200000000001,0)&#10;                "><line stroke="#000000" stroke-width="1" x2="10"/></g><g transform="&#10;                    rotate(229.26525190978248)&#10;                    translate(522.7200000000001,0)&#10;                "><line stroke="#000000" stroke-width="1" x2="10"/></g><g transform="&#10;                    rotate(236.16245704308454)&#10;                    translate(522.7200000000001,0)&#10;                "><line stroke="#000000" stroke-width="1" x2="10"/></g><g transform="&#10;                    rotate(240.8813334201639)&#10;                    translate(522.7200000000001,0)&#10;                "><line stroke="#000000" stroke-width="3" x2="15"/><text x="20" dy="0.35em" transform="rotate(180) translate(-40)" style="text-anchor: end; font-size: 32px; fill: rgb(0, 0, 0);">0</text></g><g transform="&#10;                    rotate(247.77853855346598)&#10;                    translate(522.7200000000001,0)&#10;                "><line stroke="#000000" stroke-width="1" x2="10"/></g><g transform="&#10;                    rotate(254.67574368676804)&#10;                    translate(522.7200000000001,0)&#10;                "><line stroke="#000000" stroke-width="1" x2="10"/></g><g transform="&#10;                    rotate(261.57294882007005)&#10;                    translate(522.7200000000001,0)&#10;                "><line stroke="#000000" stroke-width="1" x2="10"/></g></g><g class="chord"><path d="M2.909760794774111e-14,-475.20000000000005A475.20000000000005,475.20000000000005,0,0,1,456.1546280577699,133.18406549387828Q0,0,406.0220645615801,246.90306415504867A475.20000000000005,475.20000000000005,0,0,1,11.95748228033929,475.04953280422814Q0,0,2.909760794774111e-14,-475.20000000000005Z" fill="#464879" stroke="#000000" stroke-width="1" opacity="0.3"/><path d="M456.1546280577699,133.18406549387828A475.20000000000005,475.20000000000005,0,0,1,417.85465274383427,226.30185412481651Q0,0,-443.74912723260684,-170.0051530992509A475.20000000000005,475.20000000000005,0,0,1,-400.3063307236546,-256.066166415175Q0,0,456.1546280577699,133.18406549387828Z" fill="#464879" stroke="#000000" stroke-width="1" opacity="0.3"/><path d="M11.95748228033929,475.04953280422814A475.20000000000005,475.20000000000005,0,0,1,-284.83180765892376,380.37597367045925Q0,0,-357.21526847504646,313.38840432967606A475.20000000000005,475.20000000000005,0,0,1,-463.42401224051065,105.1343182738494Q0,0,11.95748228033929,475.04953280422814Z" fill="#5D7DB3" stroke="#000000" stroke-width="1" opacity="0.3"/><path d="M-108.89728355059648,-462.5542364256337A475.20000000000005,475.20000000000005,0,0,1,-23.750101237425927,-474.60612373968803Q0,0,-284.83180765892376,380.37597367045925A475.20000000000005,475.20000000000005,0,0,1,-341.10595029904977,330.850072798212Q0,0,-108.89728355059648,-462.5542364256337Z" fill="#B6CAD7" stroke="#000000" stroke-width="1" opacity="0.3"/><path d="M-387.0080777722458,-275.75312824885845A475.20000000000005,475.20000000000005,0,0,1,-251.7012577686653,-403.0651521003421Q0,0,-463.42401224051065,105.1343182738494A475.20000000000005,475.20000000000005,0,0,1,-472.1448744268827,-53.79830436382906Q0,0,-387.0080777722458,-275.75312824885845Z" fill="#A3B3C8" stroke="#000000" stroke-width="1" opacity="0.3"/><path d="M-231.24183527426035,-415.14124538401614A475.20000000000005,475.20000000000005,0,0,1,-108.89728355059648,-462.5542364256337Q0,0,-472.1448744268827,-53.79830436382906A475.20000000000005,475.20000000000005,0,0,1,-443.74912723260684,-170.0051530992509Q0,0,-231.24183527426035,-415.14124538401614Z" fill="#B6CAD7" stroke="#000000" stroke-width="1" opacity="0.3"/></g><g transform="translate(522.7200000000001, 0)"><g class="legend-item" transform="translate(0, -620)"><circle cx="20" cy="20" r="20" fill="#464879"/><text x="50" y="20" dy="0.35em" style="font-size: 28px; fill: rgb(0, 0, 0);">Christopher's Tacos</text></g><g class="legend-item" transform="translate(0, -575)"><circle cx="20" cy="20" r="20" fill="#5D7DB3"/><text x="50" y="20" dy="0.35em" style="font-size: 28px; fill: rgb(0, 0, 0);">World Donuts</text></g><g class="legend-item" transform="translate(0, -530)"><circle cx="20" cy="20" r="20" fill="#84709B"/><text x="50" y="20" dy="0.35em" style="font-size: 28px; fill: rgb(0, 0, 0);">Kathy's Pizzas</text></g><g class="legend-item" transform="translate(0, -485)"><circle cx="20" cy="20" r="20" fill="#A3B3C8"/><text x="50" y="20" dy="0.35em" style="font-size: 28px; fill: rgb(0, 0, 0);">Cisnerosfurt Sandwich</text></g><g class="legend-item" transform="translate(0, -440)"><circle cx="20" cy="20" r="20" fill="#B6CAD7"/><text x="50" y="20" dy="0.35em" style="font-size: 28px; fill: rgb(0, 0, 0);">Crystalbury Coffee</text></g></g></g></svg>