<svg xmlns="http://www.w3.org/2000/svg" id="SVGChart" width="1920" height="1440" style="font-family: &quot;Times New Roman&quot;; color: rgb(0, 0, 0);"><rect x="0" y="0" width="1920" height="1440" fill="#ffffff"/><g transform="translate(960,770)"><text x="0" y="-660" text-anchor="middle" style="font-size: 48px;">Medical Referral Flow (Patients)</text><g><g class="group"><path fill="#E3EAE1" stroke="#000000" stroke-width="3" d="M0,-522.72A522.72,522.72,0,0,1,520.847,44.217L473.497,40.197A475.2,475.2,0,0,0,0,-475.2Z"/><path id="groupArc0" d="M620.488,52.676A622.72,622.72,0,0,0,0,-622.72A622.72,622.72,0,0,1,620.488,52.676Z" style="visibility: hidden;"/><text><textPath xmlns:ns1="http://www.w3.org/1999/xlink" ns1:href="#groupArc0" startOffset="75%" style="font-size: 36px; text-anchor: middle;">Maternal and Child Health Center</textPath></text></g><g class="group"><path fill="#C2CDBC" stroke="#000000" stroke-width="3" d="M517.986,70.193A522.72,522.72,0,0,1,-423.553,306.331L-385.049,278.483A475.2,475.2,0,0,0,470.896,63.812Z"/><path id="groupArc1" d="M626.989,84.964A632.72,632.72,0,0,1,-512.685,370.795A632.72,632.72,0,0,0,626.989,84.964Z" style="visibility: hidden;"/><text><textPath xmlns:ns2="http://www.w3.org/1999/xlink" ns2:href="#groupArc1" startOffset="75%" style="font-size: 36px; text-anchor: middle;">Tertiary General Hospital</textPath></text></g><g class="group"><path fill="#FBC7BC" stroke="#000000" stroke-width="3" d="M-438.334,284.779A522.72,522.72,0,0,1,-26.125,-522.067L-23.75,-474.606A475.2,475.2,0,0,0,-398.486,258.89Z"/><path id="groupArc2" d="M-31.123,-621.942A622.72,622.72,0,0,0,-522.191,339.26A622.72,622.72,0,0,1,-31.123,-621.942Z" style="visibility: hidden;"/><text><textPath xmlns:ns3="http://www.w3.org/1999/xlink" ns3:href="#groupArc2" startOffset="75%" style="font-size: 36px; text-anchor: middle;">Mental Health Hospital</textPath></text></g></g><g class="group-ticks"><g transform="&#10;                    rotate(-90)&#10;                    translate(522.7200000000001,0)&#10;                "><line stroke="#000000" stroke-width="3" x2="15"/><text x="20" dy="0.35em" style="text-anchor: start; font-size: 32px; fill: rgb(0, 0, 0);">0</text></g><g transform="&#10;                    rotate(-83.07426772863765)&#10;                    translate(522.7200000000001,0)&#10;                "><line stroke="#000000" stroke-width="1" x2="10"/></g><g transform="&#10;                    rotate(-76.14853545727529)&#10;                    translate(522.7200000000001,0)&#10;                "><line stroke="#000000" stroke-width="1" x2="10"/></g><g transform="&#10;                    rotate(-69.22280318591294)&#10;                    translate(522.7200000000001,0)&#10;                "><line stroke="#000000" stroke-width="1" x2="10"/></g><g transform="&#10;                    rotate(-62.29707091455059)&#10;                    translate(522.7200000000001,0)&#10;                "><line stroke="#000000" stroke-width="1" x2="10"/></g><g transform="&#10;                    rotate(-55.37133864318823)&#10;                    translate(522.7200000000001,0)&#10;                "><line stroke="#000000" stroke-width="3" x2="15"/><text x="20" dy="0.35em" style="text-anchor: start; font-size: 32px; fill: rgb(0, 0, 0);">230</text></g><g transform="&#10;                    rotate(-48.44560637182588)&#10;                    translate(522.7200000000001,0)&#10;                "><line stroke="#000000" stroke-width="1" x2="10"/></g><g transform="&#10;                    rotate(-41.519874100463525)&#10;                    translate(522.7200000000001,0)&#10;                "><line stroke="#000000" stroke-width="1" x2="10"/></g><g transform="&#10;                    rotate(-34.59414182910117)&#10;                    translate(522.7200000000001,0)&#10;                "><line stroke="#000000" stroke-width="1" x2="10"/></g><g transform="&#10;                    rotate(-27.66840955773882)&#10;                    translate(522.7200000000001,0)&#10;                "><line stroke="#000000" stroke-width="1" x2="10"/></g><g transform="&#10;                    rotate(-20.742677286376463)&#10;                    translate(522.7200000000001,0)&#10;                "><line stroke="#000000" stroke-width="3" x2="15"/><text x="20" dy="0.35em" style="text-anchor: start; font-size: 32px; fill: rgb(0, 0, 0);">460</text></g><g transform="&#10;                    rotate(-13.816945015014113)&#10;                    translate(522.7200000000001,0)&#10;                "><line stroke="#000000" stroke-width="1" x2="10"/></g><g transform="&#10;                    rotate(-6.891212743651764)&#10;                    translate(522.7200000000001,0)&#10;                "><line stroke="#000000" stroke-width="1" x2="10"/></g><g transform="&#10;                    rotate(0.03451952771058586)&#10;                    translate(522.7200000000001,0)&#10;                "><line stroke="#000000" stroke-width="1" x2="10"/></g><g transform="&#10;                    rotate(7.717209213877652)&#10;                    translate(522.7200000000001,0)&#10;                "><line stroke="#000000" stroke-width="3" x2="15"/><text x="20" dy="0.35em" style="text-anchor: start; font-size: 32px; fill: rgb(0, 0, 0);">0</text></g><g transform="&#10;                    rotate(14.642941485240016)&#10;                    translate(522.7200000000001,0)&#10;                "><line stroke="#000000" stroke-width="1" x2="10"/></g><g transform="&#10;                    rotate(21.56867375660235)&#10;                    translate(522.7200000000001,0)&#10;                "><line stroke="#000000" stroke-width="1" x2="10"/></g><g transform="&#10;                    rotate(28.494406027964715)&#10;                    translate(522.7200000000001,0)&#10;                "><line stroke="#000000" stroke-width="1" x2="10"/></g><g transform="&#10;                    rotate(35.42013829932705)&#10;                    translate(522.7200000000001,0)&#10;                "><line stroke="#000000" stroke-width="1" x2="10"/></g><g transform="&#10;                    rotate(42.34587057068944)&#10;                    translate(522.7200000000001,0)&#10;                "><line stroke="#000000" stroke-width="3" x2="15"/><text x="20" dy="0.35em" style="text-anchor: start; font-size: 32px; fill: rgb(0, 0, 0);">230</text></g><g transform="&#10;                    rotate(49.27160284205175)&#10;                    translate(522.7200000000001,0)&#10;                "><line stroke="#000000" stroke-width="1" x2="10"/></g><g transform="&#10;                    rotate(56.19733511341414)&#10;                    translate(522.7200000000001,0)&#10;                "><line stroke="#000000" stroke-width="1" x2="10"/></g><g transform="&#10;                    rotate(63.123067384776505)&#10;                    translate(522.7200000000001,0)&#10;                "><line stroke="#000000" stroke-width="1" x2="10"/></g><g transform="&#10;                    rotate(70.04879965613884)&#10;                    translate(522.7200000000001,0)&#10;                "><line stroke="#000000" stroke-width="1" x2="10"/></g><g transform="&#10;                    rotate(76.97453192750118)&#10;                    translate(522.7200000000001,0)&#10;                "><line stroke="#000000" stroke-width="3" x2="15"/><text x="20" dy="0.35em" style="text-anchor: start; font-size: 32px; fill: rgb(0, 0, 0);">460</text></g><g transform="&#10;                    rotate(83.90026419886357)&#10;                    translate(522.7200000000001,0)&#10;                "><line stroke="#000000" stroke-width="1" x2="10"/></g><g transform="&#10;                    rotate(90.8259964702259)&#10;                    translate(522.7200000000001,0)&#10;                "><line stroke="#000000" stroke-width="1" x2="10"/></g><g transform="&#10;                    rotate(97.75172874158824)&#10;                    translate(522.7200000000001,0)&#10;                "><line stroke="#000000" stroke-width="1" x2="10"/></g><g transform="&#10;                    rotate(104.67746101295057)&#10;                    translate(522.7200000000001,0)&#10;                "><line stroke="#000000" stroke-width="1" x2="10"/></g><g transform="&#10;                    rotate(111.60319328431297)&#10;                    translate(522.7200000000001,0)&#10;                "><line stroke="#000000" stroke-width="3" x2="15"/><text x="20" dy="0.35em" transform="rotate(180) translate(-40)" style="text-anchor: end; font-size: 32px; fill: rgb(0, 0, 0);">690</text></g><g transform="&#10;                    rotate(118.52892555567533)&#10;                    translate(522.7200000000001,0)&#10;                "><line stroke="#000000" stroke-width="1" x2="10"/></g><g transform="&#10;                    rotate(125.45465782703764)&#10;                    translate(522.7200000000001,0)&#10;                "><line stroke="#000000" stroke-width="1" x2="10"/></g><g transform="&#10;                    rotate(132.38039009840003)&#10;                    translate(522.7200000000001,0)&#10;                "><line stroke="#000000" stroke-width="1" x2="10"/></g><g transform="&#10;                    rotate(139.3061223697624)&#10;                    translate(522.7200000000001,0)&#10;                "><line stroke="#000000" stroke-width="1" x2="10"/></g><g transform="&#10;                    rotate(146.98881205592943)&#10;                    translate(522.7200000000001,0)&#10;                "><line stroke="#000000" stroke-width="3" x2="15"/><text x="20" dy="0.35em" transform="rotate(180) translate(-40)" style="text-anchor: end; font-size: 32px; fill: rgb(0, 0, 0);">0</text></g><g transform="&#10;                    rotate(153.91454432729182)&#10;                    translate(522.7200000000001,0)&#10;                "><line stroke="#000000" stroke-width="1" x2="10"/></g><g transform="&#10;                    rotate(160.8402765986541)&#10;                    translate(522.7200000000001,0)&#10;                "><line stroke="#000000" stroke-width="1" x2="10"/></g><g transform="&#10;                    rotate(167.7660088700165)&#10;                    translate(522.7200000000001,0)&#10;                "><line stroke="#000000" stroke-width="1" x2="10"/></g><g transform="&#10;                    rotate(174.69174114137883)&#10;                    translate(522.7200000000001,0)&#10;                "><line stroke="#000000" stroke-width="1" x2="10"/></g><g transform="&#10;                    rotate(181.61747341274122)&#10;                    translate(522.7200000000001,0)&#10;                "><line stroke="#000000" stroke-width="3" x2="15"/><text x="20" dy="0.35em" transform="rotate(180) translate(-40)" style="text-anchor: end; font-size: 32px; fill: rgb(0, 0, 0);">230</text></g><g transform="&#10;                    rotate(188.5432056841035)&#10;                    translate(522.7200000000001,0)&#10;                "><line stroke="#000000" stroke-width="1" x2="10"/></g><g transform="&#10;                    rotate(195.4689379554659)&#10;                    translate(522.7200000000001,0)&#10;                "><line stroke="#000000" stroke-width="1" x2="10"/></g><g transform="&#10;                    rotate(202.39467022682828)&#10;                    translate(522.7200000000001,0)&#10;                "><line stroke="#000000" stroke-width="1" x2="10"/></g><g transform="&#10;                    rotate(209.32040249819062)&#10;                    translate(522.7200000000001,0)&#10;                "><line stroke="#000000" stroke-width="1" x2="10"/></g><g transform="&#10;                    rotate(216.2461347695529)&#10;                    translate(522.7200000000001,0)&#10;                "><line stroke="#000000" stroke-width="3" x2="15"/><text x="20" dy="0.35em" transform="rotate(180) translate(-40)" style="text-anchor: end; font-size: 32px; fill: rgb(0, 0, 0);">460</text></g><g transform="&#10;                    rotate(223.1718670409153)&#10;                    translate(522.7200000000001,0)&#10;                "><line stroke="#000000" stroke-width="1" x2="10"/></g><g transform="&#10;                    rotate(230.09759931227768)&#10;                    translate(522.7200000000001,0)&#10;                "><line stroke="#000000" stroke-width="1" x2="10"/></g><g transform="&#10;                    rotate(237.02333158364002)&#10;                    translate(522.7200000000001,0)&#10;                "><line stroke="#000000" stroke-width="1" x2="10"/></g><g transform="&#10;                    rotate(243.94906385500235)&#10;                    translate(522.7200000000001,0)&#10;                "><line stroke="#000000" stroke-width="1" x2="10"/></g><g transform="&#10;                    rotate(250.87479612636469)&#10;                    translate(522.7200000000001,0)&#10;                "><line stroke="#000000" stroke-width="3" x2="15"/><text x="20" dy="0.35em" transform="rotate(180) translate(-40)" style="text-anchor: end; font-size: 32px; fill: rgb(0, 0, 0);">690</text></g><g transform="&#10;                    rotate(257.80052839772713)&#10;                    translate(522.7200000000001,0)&#10;                "><line stroke="#000000" stroke-width="1" x2="10"/></g><g transform="&#10;                    rotate(264.72626066908936)&#10;                    translate(522.7200000000001,0)&#10;                "><line stroke="#000000" stroke-width="1" x2="10"/></g></g><g class="chord"><path d="M-125.2300573195232,458.40208632133096A475.20000000000005,475.20000000000005,0,0,1,-385.048584132837,278.48272452218214Q0,0,469.73489720861886,-71.86213428787302A475.20000000000005,475.20000000000005,0,0,1,473.4968284862438,40.19693288633609Q0,0,-125.2300573195232,458.40208632133096Z" fill="#C2CDBC" stroke="#000000" stroke-width="1" opacity="0.3"/><path d="M2.909760794774111e-14,-475.20000000000005A475.20000000000005,475.20000000000005,0,0,1,469.73489720861886,-71.86213428787302Q0,0,-337.9033721998193,-334.12026435999127A475.20000000000005,475.20000000000005,0,0,1,-23.75010123742635,-474.60612373968803Q0,0,2.909760794774111e-14,-475.20000000000005Z" fill="#E3EAE1" stroke="#000000" stroke-width="1" opacity="0.3"/><path d="M470.89607143393846,63.8116753273505A475.20000000000005,475.20000000000005,0,0,1,-125.2300573195232,458.40208632133096Q0,0,-398.4857088952378,258.89028526821903A475.20000000000005,475.20000000000005,0,0,1,-337.9033721998193,-334.12026435999127Q0,0,470.89607143393846,63.8116753273505Z" fill="#C2CDBC" stroke="#000000" stroke-width="1" opacity="0.3"/></g><g transform="translate(522.7200000000001, 0)"><g class="legend-item" transform="translate(0, -620)"><circle cx="20" cy="20" r="20" fill="#E3EAE1"/><text x="50" y="20" dy="0.35em" style="font-size: 28px; fill: rgb(0, 0, 0);">Maternal and Child Health Center</text></g><g class="legend-item" transform="translate(0, -575)"><circle cx="20" cy="20" r="20" fill="#C2CDBC"/><text x="50" y="20" dy="0.35em" style="font-size: 28px; fill: rgb(0, 0, 0);">Tertiary General Hospital</text></g><g class="legend-item" transform="translate(0, -530)"><circle cx="20" cy="20" r="20" fill="#FBC7BC"/><text x="50" y="20" dy="0.35em" style="font-size: 28px; fill: rgb(0, 0, 0);">Mental Health Hospital</text></g></g></g></svg>