<?xml version="1.0" encoding="utf-8" standalone="no"?>
<!DOCTYPE svg PUBLIC "-//W3C//DTD SVG 1.1//EN"
  "http://www.w3.org/Graphics/SVG/1.1/DTD/svg11.dtd">
<svg xmlns:xlink="http://www.w3.org/1999/xlink" width="669.83025pt" height="378.15pt" viewBox="0 0 669.83025 378.15" xmlns="http://www.w3.org/2000/svg" version="1.1">
 <metadata>
  <rdf:RDF xmlns:dc="http://purl.org/dc/elements/1.1/" xmlns:cc="http://creativecommons.org/ns#" xmlns:rdf="http://www.w3.org/1999/02/22-rdf-syntax-ns#">
   <cc:Work>
    <dc:type rdf:resource="http://purl.org/dc/dcmitype/StillImage"/>
    <dc:date>2025-05-31T11:40:33.193936</dc:date>
    <dc:format>image/svg+xml</dc:format>
    <dc:creator>
     <cc:Agent>
      <dc:title>Matplotlib v3.9.2, https://matplotlib.org/</dc:title>
     </cc:Agent>
    </dc:creator>
   </cc:Work>
  </rdf:RDF>
 </metadata>
 <defs>
  <style type="text/css">*{stroke-linejoin: round; stroke-linecap: butt}</style>
 </defs>
 <g id="figure_1">
  <g id="patch_1">
   <path d="M 0 378.15 
L 669.83025 378.15 
L 669.83025 -0 
L 0 -0 
z
" style="fill: #ffffff"/>
  </g>
  <g id="axes_1">
   <g id="patch_2">
    <path d="M 241.023054 74.093067 
Q 329.843049 191.928175 418.663045 309.763284 
" clip-path="url(#p420d788231)" style="fill: none; stroke: #1f78b4; stroke-width: 2; stroke-linecap: round"/>
   </g>
   <g id="patch_3">
    <path d="M 233.72237 75.577599 
Q 201.676383 204.628269 169.630395 333.678938 
" clip-path="url(#p420d788231)" style="fill: none; stroke: #33a02c; stroke-width: 2; stroke-linecap: round"/>
   </g>
   <g id="patch_4">
    <path d="M 228.561322 71.917609 
Q 143.293192 127.710084 58.025061 183.502559 
" clip-path="url(#p420d788231)" style="fill: none; stroke: #1f78b4; stroke-width: 2; stroke-linecap: round"/>
   </g>
   <g id="patch_5">
    <path d="M 243.996934 70.00671 
Q 350.814929 106.941739 457.632923 143.876769 
" clip-path="url(#p420d788231)" style="fill: none; stroke: #b2df8a; stroke-width: 2; stroke-linecap: round"/>
   </g>
   <g id="patch_6">
    <path d="M 415.688396 313.862402 
Q 237.327791 252.462305 58.967186 191.062207 
" clip-path="url(#p420d788231)" style="fill: none; stroke: #1f78b4; stroke-width: 2; stroke-linecap: round"/>
   </g>
   <g id="patch_7">
    <path d="M 415.261101 317.535511 
Q 295.709273 329.383184 176.157446 341.230858 
" clip-path="url(#p420d788231)" style="fill: none; stroke: #1f78b4; stroke-width: 2; stroke-linecap: round"/>
   </g>
   <g id="patch_8">
    <path d="M 425.952051 308.275753 
Q 444.848821 231.69644 463.745591 155.117127 
" clip-path="url(#p420d788231)" style="fill: none; stroke: #b2df8a; stroke-width: 2; stroke-linecap: round"/>
   </g>
   <g id="patch_9">
    <path d="M 162.306768 335.185457 
Q 109.161232 265.164067 56.015696 195.142678 
" clip-path="url(#p420d788231)" style="fill: none; stroke: #1f78b4; stroke-width: 2; stroke-linecap: round"/>
   </g>
   <g id="patch_10">
    <path d="M 174.786587 337.339948 
Q 316.681019 244.396783 458.575451 151.453617 
" clip-path="url(#p420d788231)" style="fill: none; stroke: #a6cee3; stroke-width: 2; stroke-linecap: round"/>
   </g>
   <g id="patch_11">
    <path d="M 59.395423 187.381302 
Q 258.299511 167.475775 457.203598 147.570248 
" clip-path="url(#p420d788231)" style="fill: none; stroke: #1f78b4; stroke-width: 2; stroke-linecap: round"/>
   </g>
   <g id="PathCollection_1">
    <defs>
     <path id="m1d54211c3b" d="M 0 6.123724 
C 1.624031 6.123724 3.181764 5.47849 4.330127 4.330127 
C 5.47849 3.181764 6.123724 1.624031 6.123724 0 
C 6.123724 -1.624031 5.47849 -3.181764 4.330127 -4.330127 
C 3.181764 -5.47849 1.624031 -6.123724 0 -6.123724 
C -1.624031 -6.123724 -3.181764 -5.47849 -4.330127 -4.330127 
C -5.47849 -3.181764 -6.123724 -1.624031 -6.123724 0 
C -6.123724 1.624031 -5.47849 3.181764 -4.330127 4.330127 
C -3.181764 5.47849 -1.624031 6.123724 0 6.123724 
z
" style="stroke: #000000"/>
    </defs>
    <g clip-path="url(#p420d788231)">
     <use xlink:href="#m1d54211c3b" x="235.808799" y="67.175455" style="fill: #ffffff; stroke: #000000"/>
     <use xlink:href="#m1d54211c3b" x="423.877821" y="316.681587" style="fill: #ffffff; stroke: #000000"/>
     <use xlink:href="#m1d54211c3b" x="167.543107" y="342.084545" style="fill: #ffffff; stroke: #000000"/>
     <use xlink:href="#m1d54211c3b" x="50.779339" y="188.243566" style="fill: #ffffff; stroke: #000000"/>
     <use xlink:href="#m1d54211c3b" x="465.820661" y="146.707887" style="fill: #ffffff; stroke: #000000"/>
    </g>
   </g>
   <g id="text_1">
    <!-- Company-wise Transport Routes and Flow -->
    <g transform="translate(120.95625 18.31) scale(0.16 -0.16)">
     <defs>
      <path id="TimesNewRomanPSMT-43" d="M 3853 4334 
L 3950 2894 
L 3853 2894 
Q 3659 3541 3300 3825 
Q 2941 4109 2438 4109 
Q 2016 4109 1675 3895 
Q 1334 3681 1139 3212 
Q 944 2744 944 2047 
Q 944 1472 1128 1050 
Q 1313 628 1683 403 
Q 2053 178 2528 178 
Q 2941 178 3256 354 
Q 3572 531 3950 1056 
L 4047 994 
Q 3728 428 3303 165 
Q 2878 -97 2294 -97 
Q 1241 -97 663 684 
Q 231 1266 231 2053 
Q 231 2688 515 3219 
Q 800 3750 1298 4042 
Q 1797 4334 2388 4334 
Q 2847 4334 3294 4109 
Q 3425 4041 3481 4041 
Q 3566 4041 3628 4100 
Q 3709 4184 3744 4334 
L 3853 4334 
z
" transform="scale(0.015625)"/>
      <path id="TimesNewRomanPSMT-6f" d="M 1600 2947 
Q 2250 2947 2644 2453 
Q 2978 2031 2978 1484 
Q 2978 1100 2793 706 
Q 2609 313 2286 112 
Q 1963 -88 1566 -88 
Q 919 -88 538 428 
Q 216 863 216 1403 
Q 216 1797 411 2186 
Q 606 2575 925 2761 
Q 1244 2947 1600 2947 
z
M 1503 2744 
Q 1338 2744 1170 2645 
Q 1003 2547 900 2300 
Q 797 2053 797 1666 
Q 797 1041 1045 587 
Q 1294 134 1700 134 
Q 2003 134 2200 384 
Q 2397 634 2397 1244 
Q 2397 2006 2069 2444 
Q 1847 2744 1503 2744 
z
" transform="scale(0.015625)"/>
      <path id="TimesNewRomanPSMT-6d" d="M 1050 2338 
Q 1363 2650 1419 2697 
Q 1559 2816 1721 2881 
Q 1884 2947 2044 2947 
Q 2313 2947 2506 2790 
Q 2700 2634 2766 2338 
Q 3088 2713 3309 2830 
Q 3531 2947 3766 2947 
Q 3994 2947 4170 2830 
Q 4347 2713 4450 2447 
Q 4519 2266 4519 1878 
L 4519 647 
Q 4519 378 4559 278 
Q 4591 209 4675 161 
Q 4759 113 4950 113 
L 4950 0 
L 3538 0 
L 3538 113 
L 3597 113 
Q 3781 113 3884 184 
Q 3956 234 3988 344 
Q 4000 397 4000 647 
L 4000 1878 
Q 4000 2228 3916 2372 
Q 3794 2572 3525 2572 
Q 3359 2572 3192 2489 
Q 3025 2406 2788 2181 
L 2781 2147 
L 2788 2013 
L 2788 647 
Q 2788 353 2820 281 
Q 2853 209 2943 161 
Q 3034 113 3253 113 
L 3253 0 
L 1806 0 
L 1806 113 
Q 2044 113 2133 169 
Q 2222 225 2256 338 
Q 2272 391 2272 647 
L 2272 1878 
Q 2272 2228 2169 2381 
Q 2031 2581 1784 2581 
Q 1616 2581 1450 2491 
Q 1191 2353 1050 2181 
L 1050 647 
Q 1050 366 1089 281 
Q 1128 197 1204 155 
Q 1281 113 1516 113 
L 1516 0 
L 100 0 
L 100 113 
Q 297 113 375 155 
Q 453 197 493 289 
Q 534 381 534 647 
L 534 1741 
Q 534 2213 506 2350 
Q 484 2453 437 2492 
Q 391 2531 309 2531 
Q 222 2531 100 2484 
L 53 2597 
L 916 2947 
L 1050 2947 
L 1050 2338 
z
" transform="scale(0.015625)"/>
      <path id="TimesNewRomanPSMT-70" d="M -6 2578 
L 875 2934 
L 994 2934 
L 994 2266 
Q 1216 2644 1439 2795 
Q 1663 2947 1909 2947 
Q 2341 2947 2628 2609 
Q 2981 2197 2981 1534 
Q 2981 794 2556 309 
Q 2206 -88 1675 -88 
Q 1444 -88 1275 -22 
Q 1150 25 994 166 
L 994 -706 
Q 994 -1000 1030 -1079 
Q 1066 -1159 1155 -1206 
Q 1244 -1253 1478 -1253 
L 1478 -1369 
L -22 -1369 
L -22 -1253 
L 56 -1253 
Q 228 -1256 350 -1188 
Q 409 -1153 442 -1076 
Q 475 -1000 475 -688 
L 475 2019 
Q 475 2297 450 2372 
Q 425 2447 370 2484 
Q 316 2522 222 2522 
Q 147 2522 31 2478 
L -6 2578 
z
M 994 2081 
L 994 1013 
Q 994 666 1022 556 
Q 1066 375 1236 237 
Q 1406 100 1666 100 
Q 1978 100 2172 344 
Q 2425 663 2425 1241 
Q 2425 1897 2138 2250 
Q 1938 2494 1663 2494 
Q 1513 2494 1366 2419 
Q 1253 2363 994 2081 
z
" transform="scale(0.015625)"/>
      <path id="TimesNewRomanPSMT-61" d="M 1822 413 
Q 1381 72 1269 19 
Q 1100 -59 909 -59 
Q 613 -59 420 144 
Q 228 347 228 678 
Q 228 888 322 1041 
Q 450 1253 767 1440 
Q 1084 1628 1822 1897 
L 1822 2009 
Q 1822 2438 1686 2597 
Q 1550 2756 1291 2756 
Q 1094 2756 978 2650 
Q 859 2544 859 2406 
L 866 2225 
Q 866 2081 792 2003 
Q 719 1925 600 1925 
Q 484 1925 411 2006 
Q 338 2088 338 2228 
Q 338 2497 613 2722 
Q 888 2947 1384 2947 
Q 1766 2947 2009 2819 
Q 2194 2722 2281 2516 
Q 2338 2381 2338 1966 
L 2338 994 
Q 2338 584 2353 492 
Q 2369 400 2405 369 
Q 2441 338 2488 338 
Q 2538 338 2575 359 
Q 2641 400 2828 588 
L 2828 413 
Q 2478 -56 2159 -56 
Q 2006 -56 1915 50 
Q 1825 156 1822 413 
z
M 1822 616 
L 1822 1706 
Q 1350 1519 1213 1441 
Q 966 1303 859 1153 
Q 753 1003 753 825 
Q 753 600 887 451 
Q 1022 303 1197 303 
Q 1434 303 1822 616 
z
" transform="scale(0.015625)"/>
      <path id="TimesNewRomanPSMT-6e" d="M 1034 2341 
Q 1538 2947 1994 2947 
Q 2228 2947 2397 2830 
Q 2566 2713 2666 2444 
Q 2734 2256 2734 1869 
L 2734 647 
Q 2734 375 2778 278 
Q 2813 200 2889 156 
Q 2966 113 3172 113 
L 3172 0 
L 1756 0 
L 1756 113 
L 1816 113 
Q 2016 113 2095 173 
Q 2175 234 2206 353 
Q 2219 400 2219 647 
L 2219 1819 
Q 2219 2209 2117 2386 
Q 2016 2563 1775 2563 
Q 1403 2563 1034 2156 
L 1034 647 
Q 1034 356 1069 288 
Q 1113 197 1189 155 
Q 1266 113 1500 113 
L 1500 0 
L 84 0 
L 84 113 
L 147 113 
Q 366 113 442 223 
Q 519 334 519 647 
L 519 1709 
Q 519 2225 495 2337 
Q 472 2450 423 2490 
Q 375 2531 294 2531 
Q 206 2531 84 2484 
L 38 2597 
L 900 2947 
L 1034 2947 
L 1034 2341 
z
" transform="scale(0.015625)"/>
      <path id="TimesNewRomanPSMT-79" d="M 38 2863 
L 1372 2863 
L 1372 2747 
L 1306 2747 
Q 1166 2747 1095 2686 
Q 1025 2625 1025 2534 
Q 1025 2413 1128 2197 
L 1825 753 
L 2466 2334 
Q 2519 2463 2519 2588 
Q 2519 2644 2497 2672 
Q 2472 2706 2419 2726 
Q 2366 2747 2231 2747 
L 2231 2863 
L 3163 2863 
L 3163 2747 
Q 3047 2734 2984 2696 
Q 2922 2659 2847 2556 
Q 2819 2513 2741 2316 
L 1575 -541 
Q 1406 -956 1132 -1168 
Q 859 -1381 606 -1381 
Q 422 -1381 303 -1275 
Q 184 -1169 184 -1031 
Q 184 -900 270 -820 
Q 356 -741 506 -741 
Q 609 -741 788 -809 
Q 913 -856 944 -856 
Q 1038 -856 1148 -759 
Q 1259 -663 1372 -384 
L 1575 113 
L 547 2272 
Q 500 2369 397 2513 
Q 319 2622 269 2659 
Q 197 2709 38 2747 
L 38 2863 
z
" transform="scale(0.015625)"/>
      <path id="TimesNewRomanPSMT-2d" d="M 259 1672 
L 1875 1672 
L 1875 1200 
L 259 1200 
L 259 1672 
z
" transform="scale(0.015625)"/>
      <path id="TimesNewRomanPSMT-77" d="M 41 2863 
L 1241 2863 
L 1241 2747 
Q 1075 2734 1023 2687 
Q 972 2641 972 2553 
Q 972 2456 1025 2319 
L 1638 672 
L 2253 2013 
L 2091 2434 
Q 2016 2622 1894 2694 
Q 1825 2738 1638 2747 
L 1638 2863 
L 3000 2863 
L 3000 2747 
Q 2775 2738 2681 2666 
Q 2619 2616 2619 2506 
Q 2619 2444 2644 2378 
L 3294 734 
L 3897 2319 
Q 3959 2488 3959 2588 
Q 3959 2647 3898 2694 
Q 3838 2741 3659 2747 
L 3659 2863 
L 4563 2863 
L 4563 2747 
Q 4291 2706 4163 2378 
L 3206 -88 
L 3078 -88 
L 2363 1741 
L 1528 -88 
L 1413 -88 
L 494 2319 
Q 403 2547 315 2626 
Q 228 2706 41 2747 
L 41 2863 
z
" transform="scale(0.015625)"/>
      <path id="TimesNewRomanPSMT-69" d="M 928 4444 
Q 1059 4444 1151 4351 
Q 1244 4259 1244 4128 
Q 1244 3997 1151 3903 
Q 1059 3809 928 3809 
Q 797 3809 703 3903 
Q 609 3997 609 4128 
Q 609 4259 701 4351 
Q 794 4444 928 4444 
z
M 1188 2947 
L 1188 647 
Q 1188 378 1227 289 
Q 1266 200 1342 156 
Q 1419 113 1622 113 
L 1622 0 
L 231 0 
L 231 113 
Q 441 113 512 153 
Q 584 194 626 287 
Q 669 381 669 647 
L 669 1750 
Q 669 2216 641 2353 
Q 619 2453 572 2492 
Q 525 2531 444 2531 
Q 356 2531 231 2484 
L 188 2597 
L 1050 2947 
L 1188 2947 
z
" transform="scale(0.015625)"/>
      <path id="TimesNewRomanPSMT-73" d="M 2050 2947 
L 2050 1972 
L 1947 1972 
Q 1828 2431 1642 2597 
Q 1456 2763 1169 2763 
Q 950 2763 815 2647 
Q 681 2531 681 2391 
Q 681 2216 781 2091 
Q 878 1963 1175 1819 
L 1631 1597 
Q 2266 1288 2266 781 
Q 2266 391 1970 151 
Q 1675 -88 1309 -88 
Q 1047 -88 709 6 
Q 606 38 541 38 
Q 469 38 428 -44 
L 325 -44 
L 325 978 
L 428 978 
Q 516 541 762 319 
Q 1009 97 1316 97 
Q 1531 97 1667 223 
Q 1803 350 1803 528 
Q 1803 744 1651 891 
Q 1500 1038 1047 1263 
Q 594 1488 453 1669 
Q 313 1847 313 2119 
Q 313 2472 555 2709 
Q 797 2947 1181 2947 
Q 1350 2947 1591 2875 
Q 1750 2828 1803 2828 
Q 1853 2828 1881 2850 
Q 1909 2872 1947 2947 
L 2050 2947 
z
" transform="scale(0.015625)"/>
      <path id="TimesNewRomanPSMT-65" d="M 681 1784 
Q 678 1147 991 784 
Q 1303 422 1725 422 
Q 2006 422 2214 576 
Q 2422 731 2563 1106 
L 2659 1044 
Q 2594 616 2278 264 
Q 1963 -88 1488 -88 
Q 972 -88 605 314 
Q 238 716 238 1394 
Q 238 2128 614 2539 
Q 991 2950 1559 2950 
Q 2041 2950 2350 2633 
Q 2659 2316 2659 1784 
L 681 1784 
z
M 681 1966 
L 2006 1966 
Q 1991 2241 1941 2353 
Q 1863 2528 1708 2628 
Q 1553 2728 1384 2728 
Q 1125 2728 920 2526 
Q 716 2325 681 1966 
z
" transform="scale(0.015625)"/>
      <path id="TimesNewRomanPSMT-20" transform="scale(0.015625)"/>
      <path id="TimesNewRomanPSMT-54" d="M 3703 4238 
L 3750 3244 
L 3631 3244 
Q 3597 3506 3538 3619 
Q 3441 3800 3280 3886 
Q 3119 3972 2856 3972 
L 2259 3972 
L 2259 734 
Q 2259 344 2344 247 
Q 2463 116 2709 116 
L 2856 116 
L 2856 0 
L 1059 0 
L 1059 116 
L 1209 116 
Q 1478 116 1591 278 
Q 1659 378 1659 734 
L 1659 3972 
L 1150 3972 
Q 853 3972 728 3928 
Q 566 3869 450 3700 
Q 334 3531 313 3244 
L 194 3244 
L 244 4238 
L 3703 4238 
z
" transform="scale(0.015625)"/>
      <path id="TimesNewRomanPSMT-72" d="M 1038 2947 
L 1038 2303 
Q 1397 2947 1775 2947 
Q 1947 2947 2059 2842 
Q 2172 2738 2172 2600 
Q 2172 2478 2090 2393 
Q 2009 2309 1897 2309 
Q 1788 2309 1652 2417 
Q 1516 2525 1450 2525 
Q 1394 2525 1328 2463 
Q 1188 2334 1038 2041 
L 1038 669 
Q 1038 431 1097 309 
Q 1138 225 1241 169 
Q 1344 113 1538 113 
L 1538 0 
L 72 0 
L 72 113 
Q 291 113 397 181 
Q 475 231 506 341 
Q 522 394 522 644 
L 522 1753 
Q 522 2253 501 2348 
Q 481 2444 426 2487 
Q 372 2531 291 2531 
Q 194 2531 72 2484 
L 41 2597 
L 906 2947 
L 1038 2947 
z
" transform="scale(0.015625)"/>
      <path id="TimesNewRomanPSMT-74" d="M 1031 3803 
L 1031 2863 
L 1700 2863 
L 1700 2644 
L 1031 2644 
L 1031 788 
Q 1031 509 1111 412 
Q 1191 316 1316 316 
Q 1419 316 1516 380 
Q 1613 444 1666 569 
L 1788 569 
Q 1678 263 1478 108 
Q 1278 -47 1066 -47 
Q 922 -47 784 33 
Q 647 113 581 261 
Q 516 409 516 719 
L 516 2644 
L 63 2644 
L 63 2747 
Q 234 2816 414 2980 
Q 594 3144 734 3369 
Q 806 3488 934 3803 
L 1031 3803 
z
" transform="scale(0.015625)"/>
      <path id="TimesNewRomanPSMT-52" d="M 4325 0 
L 3194 0 
L 1759 1981 
Q 1600 1975 1500 1975 
Q 1459 1975 1412 1976 
Q 1366 1978 1316 1981 
L 1316 750 
Q 1316 350 1403 253 
Q 1522 116 1759 116 
L 1925 116 
L 1925 0 
L 109 0 
L 109 116 
L 269 116 
Q 538 116 653 291 
Q 719 388 719 750 
L 719 3488 
Q 719 3888 631 3984 
Q 509 4122 269 4122 
L 109 4122 
L 109 4238 
L 1653 4238 
Q 2328 4238 2648 4139 
Q 2969 4041 3192 3777 
Q 3416 3513 3416 3147 
Q 3416 2756 3161 2468 
Q 2906 2181 2372 2063 
L 3247 847 
Q 3547 428 3762 290 
Q 3978 153 4325 116 
L 4325 0 
z
M 1316 2178 
Q 1375 2178 1419 2176 
Q 1463 2175 1491 2175 
Q 2097 2175 2405 2437 
Q 2713 2700 2713 3106 
Q 2713 3503 2464 3751 
Q 2216 4000 1806 4000 
Q 1625 4000 1316 3941 
L 1316 2178 
z
" transform="scale(0.015625)"/>
      <path id="TimesNewRomanPSMT-75" d="M 2709 2863 
L 2709 1128 
Q 2709 631 2732 520 
Q 2756 409 2807 365 
Q 2859 322 2928 322 
Q 3025 322 3147 375 
L 3191 266 
L 2334 -88 
L 2194 -88 
L 2194 519 
Q 1825 119 1631 15 
Q 1438 -88 1222 -88 
Q 981 -88 804 51 
Q 628 191 559 409 
Q 491 628 491 1028 
L 491 2306 
Q 491 2509 447 2587 
Q 403 2666 317 2708 
Q 231 2750 6 2747 
L 6 2863 
L 1009 2863 
L 1009 947 
Q 1009 547 1148 422 
Q 1288 297 1484 297 
Q 1619 297 1789 381 
Q 1959 466 2194 703 
L 2194 2325 
Q 2194 2569 2105 2655 
Q 2016 2741 1734 2747 
L 1734 2863 
L 2709 2863 
z
" transform="scale(0.015625)"/>
      <path id="TimesNewRomanPSMT-64" d="M 2222 322 
Q 2013 103 1813 7 
Q 1613 -88 1381 -88 
Q 913 -88 563 304 
Q 213 697 213 1313 
Q 213 1928 600 2439 
Q 988 2950 1597 2950 
Q 1975 2950 2222 2709 
L 2222 3238 
Q 2222 3728 2198 3840 
Q 2175 3953 2125 3993 
Q 2075 4034 2000 4034 
Q 1919 4034 1784 3984 
L 1744 4094 
L 2597 4444 
L 2738 4444 
L 2738 1134 
Q 2738 631 2761 520 
Q 2784 409 2836 365 
Q 2888 322 2956 322 
Q 3041 322 3181 375 
L 3216 266 
L 2366 -88 
L 2222 -88 
L 2222 322 
z
M 2222 541 
L 2222 2016 
Q 2203 2228 2109 2403 
Q 2016 2578 1861 2667 
Q 1706 2756 1559 2756 
Q 1284 2756 1069 2509 
Q 784 2184 784 1559 
Q 784 928 1059 592 
Q 1334 256 1672 256 
Q 1956 256 2222 541 
z
" transform="scale(0.015625)"/>
      <path id="TimesNewRomanPSMT-46" d="M 1309 4006 
L 1309 2341 
L 2081 2341 
Q 2347 2341 2470 2458 
Q 2594 2575 2634 2922 
L 2750 2922 
L 2750 1488 
L 2634 1488 
Q 2631 1734 2570 1850 
Q 2509 1966 2401 2023 
Q 2294 2081 2081 2081 
L 1309 2081 
L 1309 750 
Q 1309 428 1350 325 
Q 1381 247 1481 191 
Q 1619 116 1769 116 
L 1922 116 
L 1922 0 
L 103 0 
L 103 116 
L 253 116 
Q 516 116 634 269 
Q 709 369 709 750 
L 709 3488 
Q 709 3809 669 3913 
Q 638 3991 541 4047 
Q 406 4122 253 4122 
L 103 4122 
L 103 4238 
L 3256 4238 
L 3297 3306 
L 3188 3306 
Q 3106 3603 2998 3742 
Q 2891 3881 2733 3943 
Q 2575 4006 2244 4006 
L 1309 4006 
z
" transform="scale(0.015625)"/>
      <path id="TimesNewRomanPSMT-6c" d="M 1184 4444 
L 1184 647 
Q 1184 378 1223 290 
Q 1263 203 1344 158 
Q 1425 113 1647 113 
L 1647 0 
L 244 0 
L 244 113 
Q 441 113 512 153 
Q 584 194 625 287 
Q 666 381 666 647 
L 666 3247 
Q 666 3731 644 3842 
Q 622 3953 573 3993 
Q 525 4034 450 4034 
Q 369 4034 244 3984 
L 191 4094 
L 1044 4444 
L 1184 4444 
z
" transform="scale(0.015625)"/>
     </defs>
     <use xlink:href="#TimesNewRomanPSMT-43"/>
     <use xlink:href="#TimesNewRomanPSMT-6f" x="66.699219"/>
     <use xlink:href="#TimesNewRomanPSMT-6d" x="116.699219"/>
     <use xlink:href="#TimesNewRomanPSMT-70" x="194.482422"/>
     <use xlink:href="#TimesNewRomanPSMT-61" x="244.482422"/>
     <use xlink:href="#TimesNewRomanPSMT-6e" x="288.867188"/>
     <use xlink:href="#TimesNewRomanPSMT-79" x="338.867188"/>
     <use xlink:href="#TimesNewRomanPSMT-2d" x="388.867188"/>
     <use xlink:href="#TimesNewRomanPSMT-77" x="422.167969"/>
     <use xlink:href="#TimesNewRomanPSMT-69" x="494.384766"/>
     <use xlink:href="#TimesNewRomanPSMT-73" x="522.167969"/>
     <use xlink:href="#TimesNewRomanPSMT-65" x="561.083984"/>
     <use xlink:href="#TimesNewRomanPSMT-20" x="605.46875"/>
     <use xlink:href="#TimesNewRomanPSMT-54" x="628.71875"/>
     <use xlink:href="#TimesNewRomanPSMT-72" x="686.302734"/>
     <use xlink:href="#TimesNewRomanPSMT-61" x="719.603516"/>
     <use xlink:href="#TimesNewRomanPSMT-6e" x="763.988281"/>
     <use xlink:href="#TimesNewRomanPSMT-73" x="813.988281"/>
     <use xlink:href="#TimesNewRomanPSMT-70" x="852.904297"/>
     <use xlink:href="#TimesNewRomanPSMT-6f" x="902.904297"/>
     <use xlink:href="#TimesNewRomanPSMT-72" x="952.904297"/>
     <use xlink:href="#TimesNewRomanPSMT-74" x="986.205078"/>
     <use xlink:href="#TimesNewRomanPSMT-20" x="1013.988281"/>
     <use xlink:href="#TimesNewRomanPSMT-52" x="1038.988281"/>
     <use xlink:href="#TimesNewRomanPSMT-6f" x="1105.6875"/>
     <use xlink:href="#TimesNewRomanPSMT-75" x="1155.6875"/>
     <use xlink:href="#TimesNewRomanPSMT-74" x="1205.6875"/>
     <use xlink:href="#TimesNewRomanPSMT-65" x="1233.470703"/>
     <use xlink:href="#TimesNewRomanPSMT-73" x="1277.855469"/>
     <use xlink:href="#TimesNewRomanPSMT-20" x="1316.771484"/>
     <use xlink:href="#TimesNewRomanPSMT-61" x="1341.771484"/>
     <use xlink:href="#TimesNewRomanPSMT-6e" x="1386.15625"/>
     <use xlink:href="#TimesNewRomanPSMT-64" x="1436.15625"/>
     <use xlink:href="#TimesNewRomanPSMT-20" x="1486.15625"/>
     <use xlink:href="#TimesNewRomanPSMT-46" x="1511.15625"/>
     <use xlink:href="#TimesNewRomanPSMT-6c" x="1566.771484"/>
     <use xlink:href="#TimesNewRomanPSMT-6f" x="1594.554688"/>
     <use xlink:href="#TimesNewRomanPSMT-77" x="1644.554688"/>
    </g>
   </g>
   <g id="legend_1">
    <g id="patch_12">
     <path d="M 527.844 149.976594 
L 660.23025 149.976594 
Q 662.63025 149.976594 662.63025 147.576594 
L 662.63025 62.099406 
Q 662.63025 59.699406 660.23025 59.699406 
L 527.844 59.699406 
Q 525.444 59.699406 525.444 62.099406 
L 525.444 147.576594 
Q 525.444 149.976594 527.844 149.976594 
z
" style="fill: #ffffff; opacity: 0.8; stroke: #cccccc; stroke-linejoin: miter"/>
    </g>
    <g id="text_2">
     <!-- Relation Type -->
     <g transform="translate(554.798844 74.220656) scale(0.14 -0.14)">
      <use xlink:href="#TimesNewRomanPSMT-52"/>
      <use xlink:href="#TimesNewRomanPSMT-65" x="66.699219"/>
      <use xlink:href="#TimesNewRomanPSMT-6c" x="111.083984"/>
      <use xlink:href="#TimesNewRomanPSMT-61" x="138.867188"/>
      <use xlink:href="#TimesNewRomanPSMT-74" x="183.251953"/>
      <use xlink:href="#TimesNewRomanPSMT-69" x="211.035156"/>
      <use xlink:href="#TimesNewRomanPSMT-6f" x="238.818359"/>
      <use xlink:href="#TimesNewRomanPSMT-6e" x="288.818359"/>
      <use xlink:href="#TimesNewRomanPSMT-20" x="338.818359"/>
      <use xlink:href="#TimesNewRomanPSMT-54" x="362.068359"/>
      <use xlink:href="#TimesNewRomanPSMT-79" x="416.152344"/>
      <use xlink:href="#TimesNewRomanPSMT-70" x="466.152344"/>
      <use xlink:href="#TimesNewRomanPSMT-65" x="516.152344"/>
     </g>
    </g>
    <g id="line2d_1">
     <path d="M 530.244 87.441594 
L 542.244 87.441594 
L 554.244 87.441594 
" style="fill: none; stroke: #a6cee3; stroke-width: 3; stroke-linecap: square"/>
    </g>
    <g id="text_3">
     <!-- Air Route -->
     <g transform="translate(563.844 91.641594) scale(0.12 -0.12)">
      <defs>
       <path id="TimesNewRomanPSMT-41" d="M 2928 1419 
L 1288 1419 
L 1000 750 
Q 894 503 894 381 
Q 894 284 986 211 
Q 1078 138 1384 116 
L 1384 0 
L 50 0 
L 50 116 
Q 316 163 394 238 
Q 553 388 747 847 
L 2238 4334 
L 2347 4334 
L 3822 809 
Q 4000 384 4145 257 
Q 4291 131 4550 116 
L 4550 0 
L 2878 0 
L 2878 116 
Q 3131 128 3220 200 
Q 3309 272 3309 375 
Q 3309 513 3184 809 
L 2928 1419 
z
M 2841 1650 
L 2122 3363 
L 1384 1650 
L 2841 1650 
z
" transform="scale(0.015625)"/>
      </defs>
      <use xlink:href="#TimesNewRomanPSMT-41"/>
      <use xlink:href="#TimesNewRomanPSMT-69" x="72.216797"/>
      <use xlink:href="#TimesNewRomanPSMT-72" x="100"/>
      <use xlink:href="#TimesNewRomanPSMT-20" x="133.300781"/>
      <use xlink:href="#TimesNewRomanPSMT-52" x="158.300781"/>
      <use xlink:href="#TimesNewRomanPSMT-6f" x="225"/>
      <use xlink:href="#TimesNewRomanPSMT-75" x="275"/>
      <use xlink:href="#TimesNewRomanPSMT-74" x="325"/>
      <use xlink:href="#TimesNewRomanPSMT-65" x="352.783203"/>
     </g>
    </g>
    <g id="line2d_2">
     <path d="M 530.244 104.408469 
L 542.244 104.408469 
L 554.244 104.408469 
" style="fill: none; stroke: #1f78b4; stroke-width: 3; stroke-linecap: square"/>
    </g>
    <g id="text_4">
     <!-- Intercity Bus Route -->
     <g transform="translate(563.844 108.608469) scale(0.12 -0.12)">
      <defs>
       <path id="TimesNewRomanPSMT-49" d="M 1975 116 
L 1975 0 
L 159 0 
L 159 116 
L 309 116 
Q 572 116 691 269 
Q 766 369 766 750 
L 766 3488 
Q 766 3809 725 3913 
Q 694 3991 597 4047 
Q 459 4122 309 4122 
L 159 4122 
L 159 4238 
L 1975 4238 
L 1975 4122 
L 1822 4122 
Q 1563 4122 1444 3969 
Q 1366 3869 1366 3488 
L 1366 750 
Q 1366 428 1406 325 
Q 1438 247 1538 191 
Q 1672 116 1822 116 
L 1975 116 
z
" transform="scale(0.015625)"/>
       <path id="TimesNewRomanPSMT-63" d="M 2631 1088 
Q 2516 522 2178 217 
Q 1841 -88 1431 -88 
Q 944 -88 581 321 
Q 219 731 219 1428 
Q 219 2103 620 2525 
Q 1022 2947 1584 2947 
Q 2006 2947 2278 2723 
Q 2550 2500 2550 2259 
Q 2550 2141 2473 2067 
Q 2397 1994 2259 1994 
Q 2075 1994 1981 2113 
Q 1928 2178 1911 2362 
Q 1894 2547 1784 2644 
Q 1675 2738 1481 2738 
Q 1169 2738 978 2506 
Q 725 2200 725 1697 
Q 725 1184 976 792 
Q 1228 400 1656 400 
Q 1963 400 2206 609 
Q 2378 753 2541 1131 
L 2631 1088 
z
" transform="scale(0.015625)"/>
       <path id="TimesNewRomanPSMT-42" d="M 2956 2163 
Q 3397 2069 3616 1863 
Q 3919 1575 3919 1159 
Q 3919 844 3719 555 
Q 3519 266 3170 133 
Q 2822 0 2106 0 
L 106 0 
L 106 116 
L 266 116 
Q 531 116 647 284 
Q 719 394 719 750 
L 719 3488 
Q 719 3881 628 3984 
Q 506 4122 266 4122 
L 106 4122 
L 106 4238 
L 1938 4238 
Q 2450 4238 2759 4163 
Q 3228 4050 3475 3764 
Q 3722 3478 3722 3106 
Q 3722 2788 3528 2536 
Q 3334 2284 2956 2163 
z
M 1319 2331 
Q 1434 2309 1582 2298 
Q 1731 2288 1909 2288 
Q 2366 2288 2595 2386 
Q 2825 2484 2947 2687 
Q 3069 2891 3069 3131 
Q 3069 3503 2766 3765 
Q 2463 4028 1881 4028 
Q 1569 4028 1319 3959 
L 1319 2331 
z
M 1319 306 
Q 1681 222 2034 222 
Q 2600 222 2897 476 
Q 3194 731 3194 1106 
Q 3194 1353 3059 1581 
Q 2925 1809 2622 1940 
Q 2319 2072 1872 2072 
Q 1678 2072 1540 2065 
Q 1403 2059 1319 2044 
L 1319 306 
z
" transform="scale(0.015625)"/>
      </defs>
      <use xlink:href="#TimesNewRomanPSMT-49"/>
      <use xlink:href="#TimesNewRomanPSMT-6e" x="33.300781"/>
      <use xlink:href="#TimesNewRomanPSMT-74" x="83.300781"/>
      <use xlink:href="#TimesNewRomanPSMT-65" x="111.083984"/>
      <use xlink:href="#TimesNewRomanPSMT-72" x="155.46875"/>
      <use xlink:href="#TimesNewRomanPSMT-63" x="188.769531"/>
      <use xlink:href="#TimesNewRomanPSMT-69" x="233.154297"/>
      <use xlink:href="#TimesNewRomanPSMT-74" x="260.9375"/>
      <use xlink:href="#TimesNewRomanPSMT-79" x="288.720703"/>
      <use xlink:href="#TimesNewRomanPSMT-20" x="338.720703"/>
      <use xlink:href="#TimesNewRomanPSMT-42" x="363.720703"/>
      <use xlink:href="#TimesNewRomanPSMT-75" x="430.419922"/>
      <use xlink:href="#TimesNewRomanPSMT-73" x="480.419922"/>
      <use xlink:href="#TimesNewRomanPSMT-20" x="519.335938"/>
      <use xlink:href="#TimesNewRomanPSMT-52" x="544.335938"/>
      <use xlink:href="#TimesNewRomanPSMT-6f" x="611.035156"/>
      <use xlink:href="#TimesNewRomanPSMT-75" x="661.035156"/>
      <use xlink:href="#TimesNewRomanPSMT-74" x="711.035156"/>
      <use xlink:href="#TimesNewRomanPSMT-65" x="738.818359"/>
     </g>
    </g>
    <g id="line2d_3">
     <path d="M 530.244 121.397844 
L 542.244 121.397844 
L 554.244 121.397844 
" style="fill: none; stroke: #b2df8a; stroke-width: 3; stroke-linecap: square"/>
    </g>
    <g id="text_5">
     <!-- Logistics Alliance -->
     <g transform="translate(563.844 125.597844) scale(0.12 -0.12)">
      <defs>
       <path id="TimesNewRomanPSMT-4c" d="M 3669 1172 
L 3772 1150 
L 3409 0 
L 128 0 
L 128 116 
L 288 116 
Q 556 116 672 291 
Q 738 391 738 753 
L 738 3488 
Q 738 3884 650 3984 
Q 528 4122 288 4122 
L 128 4122 
L 128 4238 
L 2047 4238 
L 2047 4122 
Q 1709 4125 1573 4059 
Q 1438 3994 1388 3894 
Q 1338 3794 1338 3416 
L 1338 753 
Q 1338 494 1388 397 
Q 1425 331 1503 300 
Q 1581 269 1991 269 
L 2300 269 
Q 2788 269 2984 341 
Q 3181 413 3343 595 
Q 3506 778 3669 1172 
z
" transform="scale(0.015625)"/>
       <path id="TimesNewRomanPSMT-67" d="M 966 1044 
Q 703 1172 562 1401 
Q 422 1631 422 1909 
Q 422 2334 742 2640 
Q 1063 2947 1563 2947 
Q 1972 2947 2272 2747 
L 2878 2747 
Q 3013 2747 3034 2739 
Q 3056 2731 3066 2713 
Q 3084 2684 3084 2613 
Q 3084 2531 3069 2500 
Q 3059 2484 3036 2475 
Q 3013 2466 2878 2466 
L 2506 2466 
Q 2681 2241 2681 1891 
Q 2681 1491 2375 1206 
Q 2069 922 1553 922 
Q 1341 922 1119 984 
Q 981 866 932 777 
Q 884 688 884 625 
Q 884 572 936 522 
Q 988 472 1138 450 
Q 1225 438 1575 428 
Q 2219 413 2409 384 
Q 2700 344 2873 169 
Q 3047 -6 3047 -263 
Q 3047 -616 2716 -925 
Q 2228 -1381 1444 -1381 
Q 841 -1381 425 -1109 
Q 191 -953 191 -784 
Q 191 -709 225 -634 
Q 278 -519 444 -313 
Q 466 -284 763 25 
Q 600 122 533 198 
Q 466 275 466 372 
Q 466 481 555 628 
Q 644 775 966 1044 
z
M 1509 2797 
Q 1278 2797 1122 2612 
Q 966 2428 966 2047 
Q 966 1553 1178 1281 
Q 1341 1075 1591 1075 
Q 1828 1075 1981 1253 
Q 2134 1431 2134 1813 
Q 2134 2309 1919 2591 
Q 1759 2797 1509 2797 
z
M 934 0 
Q 788 -159 713 -296 
Q 638 -434 638 -550 
Q 638 -700 819 -813 
Q 1131 -1006 1722 -1006 
Q 2284 -1006 2551 -807 
Q 2819 -609 2819 -384 
Q 2819 -222 2659 -153 
Q 2497 -84 2016 -72 
Q 1313 -53 934 0 
z
" transform="scale(0.015625)"/>
      </defs>
      <use xlink:href="#TimesNewRomanPSMT-4c"/>
      <use xlink:href="#TimesNewRomanPSMT-6f" x="61.083984"/>
      <use xlink:href="#TimesNewRomanPSMT-67" x="111.083984"/>
      <use xlink:href="#TimesNewRomanPSMT-69" x="161.083984"/>
      <use xlink:href="#TimesNewRomanPSMT-73" x="188.867188"/>
      <use xlink:href="#TimesNewRomanPSMT-74" x="227.783203"/>
      <use xlink:href="#TimesNewRomanPSMT-69" x="255.566406"/>
      <use xlink:href="#TimesNewRomanPSMT-63" x="283.349609"/>
      <use xlink:href="#TimesNewRomanPSMT-73" x="327.734375"/>
      <use xlink:href="#TimesNewRomanPSMT-20" x="366.650391"/>
      <use xlink:href="#TimesNewRomanPSMT-41" x="386.150391"/>
      <use xlink:href="#TimesNewRomanPSMT-6c" x="458.367188"/>
      <use xlink:href="#TimesNewRomanPSMT-6c" x="486.150391"/>
      <use xlink:href="#TimesNewRomanPSMT-69" x="513.933594"/>
      <use xlink:href="#TimesNewRomanPSMT-61" x="541.716797"/>
      <use xlink:href="#TimesNewRomanPSMT-6e" x="586.101562"/>
      <use xlink:href="#TimesNewRomanPSMT-63" x="636.101562"/>
      <use xlink:href="#TimesNewRomanPSMT-65" x="680.486328"/>
     </g>
    </g>
    <g id="line2d_4">
     <path d="M 530.244 138.387219 
L 542.244 138.387219 
L 554.244 138.387219 
" style="fill: none; stroke: #33a02c; stroke-width: 3; stroke-linecap: square"/>
    </g>
    <g id="text_6">
     <!-- Shipping Lane -->
     <g transform="translate(563.844 142.587219) scale(0.12 -0.12)">
      <defs>
       <path id="TimesNewRomanPSMT-53" d="M 2934 4334 
L 2934 2869 
L 2819 2869 
Q 2763 3291 2617 3541 
Q 2472 3791 2203 3937 
Q 1934 4084 1647 4084 
Q 1322 4084 1109 3886 
Q 897 3688 897 3434 
Q 897 3241 1031 3081 
Q 1225 2847 1953 2456 
Q 2547 2138 2764 1967 
Q 2981 1797 3098 1565 
Q 3216 1334 3216 1081 
Q 3216 600 2842 251 
Q 2469 -97 1881 -97 
Q 1697 -97 1534 -69 
Q 1438 -53 1133 45 
Q 828 144 747 144 
Q 669 144 623 97 
Q 578 50 556 -97 
L 441 -97 
L 441 1356 
L 556 1356 
Q 638 900 775 673 
Q 913 447 1195 297 
Q 1478 147 1816 147 
Q 2206 147 2432 353 
Q 2659 559 2659 841 
Q 2659 997 2573 1156 
Q 2488 1316 2306 1453 
Q 2184 1547 1640 1851 
Q 1097 2156 867 2337 
Q 638 2519 519 2737 
Q 400 2956 400 3219 
Q 400 3675 750 4004 
Q 1100 4334 1641 4334 
Q 1978 4334 2356 4169 
Q 2531 4091 2603 4091 
Q 2684 4091 2736 4139 
Q 2788 4188 2819 4334 
L 2934 4334 
z
" transform="scale(0.015625)"/>
       <path id="TimesNewRomanPSMT-68" d="M 1041 4444 
L 1041 2350 
Q 1388 2731 1591 2839 
Q 1794 2947 1997 2947 
Q 2241 2947 2416 2812 
Q 2591 2678 2675 2391 
Q 2734 2191 2734 1659 
L 2734 647 
Q 2734 375 2778 275 
Q 2809 200 2884 156 
Q 2959 113 3159 113 
L 3159 0 
L 1753 0 
L 1753 113 
L 1819 113 
Q 2019 113 2097 173 
Q 2175 234 2206 353 
Q 2216 403 2216 647 
L 2216 1659 
Q 2216 2128 2167 2275 
Q 2119 2422 2012 2495 
Q 1906 2569 1756 2569 
Q 1603 2569 1437 2487 
Q 1272 2406 1041 2159 
L 1041 647 
Q 1041 353 1073 281 
Q 1106 209 1195 161 
Q 1284 113 1503 113 
L 1503 0 
L 84 0 
L 84 113 
Q 275 113 384 172 
Q 447 203 484 290 
Q 522 378 522 647 
L 522 3238 
Q 522 3728 498 3840 
Q 475 3953 426 3993 
Q 378 4034 297 4034 
Q 231 4034 84 3984 
L 41 4094 
L 897 4444 
L 1041 4444 
z
" transform="scale(0.015625)"/>
      </defs>
      <use xlink:href="#TimesNewRomanPSMT-53"/>
      <use xlink:href="#TimesNewRomanPSMT-68" x="55.615234"/>
      <use xlink:href="#TimesNewRomanPSMT-69" x="105.615234"/>
      <use xlink:href="#TimesNewRomanPSMT-70" x="133.398438"/>
      <use xlink:href="#TimesNewRomanPSMT-70" x="183.398438"/>
      <use xlink:href="#TimesNewRomanPSMT-69" x="233.398438"/>
      <use xlink:href="#TimesNewRomanPSMT-6e" x="261.181641"/>
      <use xlink:href="#TimesNewRomanPSMT-67" x="311.181641"/>
      <use xlink:href="#TimesNewRomanPSMT-20" x="361.181641"/>
      <use xlink:href="#TimesNewRomanPSMT-4c" x="386.181641"/>
      <use xlink:href="#TimesNewRomanPSMT-61" x="447.265625"/>
      <use xlink:href="#TimesNewRomanPSMT-6e" x="491.650391"/>
      <use xlink:href="#TimesNewRomanPSMT-65" x="541.650391"/>
     </g>
    </g>
   </g>
   <g id="text_7">
    <!-- Chicago Logistics Hub -->
    <g transform="translate(212.375742 51.682326) scale(0.11 -0.11)">
     <defs>
      <path id="TimesNewRomanPSMT-48" d="M 1316 2272 
L 3284 2272 
L 3284 3484 
Q 3284 3809 3244 3913 
Q 3213 3991 3113 4047 
Q 2978 4122 2828 4122 
L 2678 4122 
L 2678 4238 
L 4491 4238 
L 4491 4122 
L 4341 4122 
Q 4191 4122 4056 4050 
Q 3956 4000 3920 3898 
Q 3884 3797 3884 3484 
L 3884 750 
Q 3884 428 3925 325 
Q 3956 247 4053 191 
Q 4191 116 4341 116 
L 4491 116 
L 4491 0 
L 2678 0 
L 2678 116 
L 2828 116 
Q 3088 116 3206 269 
Q 3284 369 3284 750 
L 3284 2041 
L 1316 2041 
L 1316 750 
Q 1316 428 1356 325 
Q 1388 247 1488 191 
Q 1622 116 1772 116 
L 1925 116 
L 1925 0 
L 109 0 
L 109 116 
L 259 116 
Q 522 116 641 269 
Q 716 369 716 750 
L 716 3484 
Q 716 3809 675 3913 
Q 644 3991 547 4047 
Q 409 4122 259 4122 
L 109 4122 
L 109 4238 
L 1925 4238 
L 1925 4122 
L 1772 4122 
Q 1622 4122 1488 4050 
Q 1391 4000 1353 3898 
Q 1316 3797 1316 3484 
L 1316 2272 
z
" transform="scale(0.015625)"/>
      <path id="TimesNewRomanPSMT-62" d="M 984 2369 
Q 1400 2947 1881 2947 
Q 2322 2947 2650 2570 
Q 2978 2194 2978 1541 
Q 2978 778 2472 313 
Q 2038 -88 1503 -88 
Q 1253 -88 995 3 
Q 738 94 469 275 
L 469 3241 
Q 469 3728 445 3840 
Q 422 3953 372 3993 
Q 322 4034 247 4034 
Q 159 4034 28 3984 
L -16 4094 
L 844 4444 
L 984 4444 
L 984 2369 
z
M 984 2169 
L 984 456 
Q 1144 300 1314 220 
Q 1484 141 1663 141 
Q 1947 141 2192 453 
Q 2438 766 2438 1363 
Q 2438 1913 2192 2208 
Q 1947 2503 1634 2503 
Q 1469 2503 1303 2419 
Q 1178 2356 984 2169 
z
" transform="scale(0.015625)"/>
     </defs>
     <use xlink:href="#TimesNewRomanPSMT-43"/>
     <use xlink:href="#TimesNewRomanPSMT-68" x="66.699219"/>
     <use xlink:href="#TimesNewRomanPSMT-69" x="116.699219"/>
     <use xlink:href="#TimesNewRomanPSMT-63" x="144.482422"/>
     <use xlink:href="#TimesNewRomanPSMT-61" x="188.867188"/>
     <use xlink:href="#TimesNewRomanPSMT-67" x="233.251953"/>
     <use xlink:href="#TimesNewRomanPSMT-6f" x="283.251953"/>
     <use xlink:href="#TimesNewRomanPSMT-20" x="333.251953"/>
     <use xlink:href="#TimesNewRomanPSMT-4c" x="358.251953"/>
     <use xlink:href="#TimesNewRomanPSMT-6f" x="419.335938"/>
     <use xlink:href="#TimesNewRomanPSMT-67" x="469.335938"/>
     <use xlink:href="#TimesNewRomanPSMT-69" x="519.335938"/>
     <use xlink:href="#TimesNewRomanPSMT-73" x="547.119141"/>
     <use xlink:href="#TimesNewRomanPSMT-74" x="586.035156"/>
     <use xlink:href="#TimesNewRomanPSMT-69" x="613.818359"/>
     <use xlink:href="#TimesNewRomanPSMT-63" x="641.601562"/>
     <use xlink:href="#TimesNewRomanPSMT-73" x="685.986328"/>
     <use xlink:href="#TimesNewRomanPSMT-20" x="724.902344"/>
     <use xlink:href="#TimesNewRomanPSMT-48" x="749.902344"/>
     <use xlink:href="#TimesNewRomanPSMT-75" x="822.119141"/>
     <use xlink:href="#TimesNewRomanPSMT-62" x="872.119141"/>
    </g>
   </g>
   <g id="text_8">
    <!-- Shanghai Freight Station -->
    <g transform="translate(396.471874 301.188459) scale(0.11 -0.11)">
     <use xlink:href="#TimesNewRomanPSMT-53"/>
     <use xlink:href="#TimesNewRomanPSMT-68" x="55.615234"/>
     <use xlink:href="#TimesNewRomanPSMT-61" x="105.615234"/>
     <use xlink:href="#TimesNewRomanPSMT-6e" x="150"/>
     <use xlink:href="#TimesNewRomanPSMT-67" x="200"/>
     <use xlink:href="#TimesNewRomanPSMT-68" x="250"/>
     <use xlink:href="#TimesNewRomanPSMT-61" x="300"/>
     <use xlink:href="#TimesNewRomanPSMT-69" x="344.384766"/>
     <use xlink:href="#TimesNewRomanPSMT-20" x="372.167969"/>
     <use xlink:href="#TimesNewRomanPSMT-46" x="397.167969"/>
     <use xlink:href="#TimesNewRomanPSMT-72" x="452.783203"/>
     <use xlink:href="#TimesNewRomanPSMT-65" x="486.083984"/>
     <use xlink:href="#TimesNewRomanPSMT-69" x="530.46875"/>
     <use xlink:href="#TimesNewRomanPSMT-67" x="558.251953"/>
     <use xlink:href="#TimesNewRomanPSMT-68" x="608.251953"/>
     <use xlink:href="#TimesNewRomanPSMT-74" x="658.251953"/>
     <use xlink:href="#TimesNewRomanPSMT-20" x="686.035156"/>
     <use xlink:href="#TimesNewRomanPSMT-53" x="711.035156"/>
     <use xlink:href="#TimesNewRomanPSMT-74" x="766.650391"/>
     <use xlink:href="#TimesNewRomanPSMT-61" x="794.433594"/>
     <use xlink:href="#TimesNewRomanPSMT-74" x="838.818359"/>
     <use xlink:href="#TimesNewRomanPSMT-69" x="866.601562"/>
     <use xlink:href="#TimesNewRomanPSMT-6f" x="894.384766"/>
     <use xlink:href="#TimesNewRomanPSMT-6e" x="944.384766"/>
    </g>
   </g>
   <g id="text_9">
    <!-- Singapore Distribution Node -->
    <g transform="translate(131.279582 326.591417) scale(0.11 -0.11)">
     <defs>
      <path id="TimesNewRomanPSMT-44" d="M 109 0 
L 109 116 
L 269 116 
Q 538 116 650 288 
Q 719 391 719 750 
L 719 3488 
Q 719 3884 631 3984 
Q 509 4122 269 4122 
L 109 4122 
L 109 4238 
L 1834 4238 
Q 2784 4238 3279 4022 
Q 3775 3806 4076 3303 
Q 4378 2800 4378 2141 
Q 4378 1256 3841 663 
Q 3238 0 2003 0 
L 109 0 
z
M 1319 306 
Q 1716 219 1984 219 
Q 2709 219 3187 728 
Q 3666 1238 3666 2109 
Q 3666 2988 3187 3494 
Q 2709 4000 1959 4000 
Q 1678 4000 1319 3909 
L 1319 306 
z
" transform="scale(0.015625)"/>
      <path id="TimesNewRomanPSMT-4e" d="M -84 4238 
L 1066 4238 
L 3656 1059 
L 3656 3503 
Q 3656 3894 3569 3991 
Q 3453 4122 3203 4122 
L 3056 4122 
L 3056 4238 
L 4531 4238 
L 4531 4122 
L 4381 4122 
Q 4113 4122 4000 3959 
Q 3931 3859 3931 3503 
L 3931 -69 
L 3819 -69 
L 1025 3344 
L 1025 734 
Q 1025 344 1109 247 
Q 1228 116 1475 116 
L 1625 116 
L 1625 0 
L 150 0 
L 150 116 
L 297 116 
Q 569 116 681 278 
Q 750 378 750 734 
L 750 3681 
Q 566 3897 470 3965 
Q 375 4034 191 4094 
Q 100 4122 -84 4122 
L -84 4238 
z
" transform="scale(0.015625)"/>
     </defs>
     <use xlink:href="#TimesNewRomanPSMT-53"/>
     <use xlink:href="#TimesNewRomanPSMT-69" x="55.615234"/>
     <use xlink:href="#TimesNewRomanPSMT-6e" x="83.398438"/>
     <use xlink:href="#TimesNewRomanPSMT-67" x="133.398438"/>
     <use xlink:href="#TimesNewRomanPSMT-61" x="183.398438"/>
     <use xlink:href="#TimesNewRomanPSMT-70" x="227.783203"/>
     <use xlink:href="#TimesNewRomanPSMT-6f" x="277.783203"/>
     <use xlink:href="#TimesNewRomanPSMT-72" x="327.783203"/>
     <use xlink:href="#TimesNewRomanPSMT-65" x="361.083984"/>
     <use xlink:href="#TimesNewRomanPSMT-20" x="405.46875"/>
     <use xlink:href="#TimesNewRomanPSMT-44" x="430.46875"/>
     <use xlink:href="#TimesNewRomanPSMT-69" x="502.685547"/>
     <use xlink:href="#TimesNewRomanPSMT-73" x="530.46875"/>
     <use xlink:href="#TimesNewRomanPSMT-74" x="569.384766"/>
     <use xlink:href="#TimesNewRomanPSMT-72" x="597.167969"/>
     <use xlink:href="#TimesNewRomanPSMT-69" x="630.46875"/>
     <use xlink:href="#TimesNewRomanPSMT-62" x="658.251953"/>
     <use xlink:href="#TimesNewRomanPSMT-75" x="708.251953"/>
     <use xlink:href="#TimesNewRomanPSMT-74" x="758.251953"/>
     <use xlink:href="#TimesNewRomanPSMT-69" x="786.035156"/>
     <use xlink:href="#TimesNewRomanPSMT-6f" x="813.818359"/>
     <use xlink:href="#TimesNewRomanPSMT-6e" x="863.818359"/>
     <use xlink:href="#TimesNewRomanPSMT-20" x="913.818359"/>
     <use xlink:href="#TimesNewRomanPSMT-4e" x="938.818359"/>
     <use xlink:href="#TimesNewRomanPSMT-6f" x="1011.035156"/>
     <use xlink:href="#TimesNewRomanPSMT-64" x="1061.035156"/>
     <use xlink:href="#TimesNewRomanPSMT-65" x="1111.035156"/>
    </g>
   </g>
   <g id="text_10">
    <!-- Rotterdam Port -->
    <g transform="translate(44.304329 172.76075) scale(0.11 -0.11)">
     <defs>
      <path id="TimesNewRomanPSMT-50" d="M 1313 1984 
L 1313 750 
Q 1313 350 1400 253 
Q 1519 116 1759 116 
L 1922 116 
L 1922 0 
L 106 0 
L 106 116 
L 266 116 
Q 534 116 650 291 
Q 713 388 713 750 
L 713 3488 
Q 713 3888 628 3984 
Q 506 4122 266 4122 
L 106 4122 
L 106 4238 
L 1659 4238 
Q 2228 4238 2556 4120 
Q 2884 4003 3109 3725 
Q 3334 3447 3334 3066 
Q 3334 2547 2992 2222 
Q 2650 1897 2025 1897 
Q 1872 1897 1694 1919 
Q 1516 1941 1313 1984 
z
M 1313 2163 
Q 1478 2131 1606 2115 
Q 1734 2100 1825 2100 
Q 2150 2100 2386 2351 
Q 2622 2603 2622 3003 
Q 2622 3278 2509 3514 
Q 2397 3750 2190 3867 
Q 1984 3984 1722 3984 
Q 1563 3984 1313 3925 
L 1313 2163 
z
" transform="scale(0.015625)"/>
     </defs>
     <use xlink:href="#TimesNewRomanPSMT-52"/>
     <use xlink:href="#TimesNewRomanPSMT-6f" x="66.699219"/>
     <use xlink:href="#TimesNewRomanPSMT-74" x="116.699219"/>
     <use xlink:href="#TimesNewRomanPSMT-74" x="144.482422"/>
     <use xlink:href="#TimesNewRomanPSMT-65" x="172.265625"/>
     <use xlink:href="#TimesNewRomanPSMT-72" x="216.650391"/>
     <use xlink:href="#TimesNewRomanPSMT-64" x="249.951172"/>
     <use xlink:href="#TimesNewRomanPSMT-61" x="299.951172"/>
     <use xlink:href="#TimesNewRomanPSMT-6d" x="344.335938"/>
     <use xlink:href="#TimesNewRomanPSMT-20" x="422.119141"/>
     <use xlink:href="#TimesNewRomanPSMT-50" x="447.119141"/>
     <use xlink:href="#TimesNewRomanPSMT-6f" x="502.734375"/>
     <use xlink:href="#TimesNewRomanPSMT-72" x="552.734375"/>
     <use xlink:href="#TimesNewRomanPSMT-74" x="586.035156"/>
    </g>
   </g>
   <g id="text_11">
    <!-- Dubai Transport Center -->
    <g transform="translate(441.159558 131.225071) scale(0.11 -0.11)">
     <use xlink:href="#TimesNewRomanPSMT-44"/>
     <use xlink:href="#TimesNewRomanPSMT-75" x="72.216797"/>
     <use xlink:href="#TimesNewRomanPSMT-62" x="122.216797"/>
     <use xlink:href="#TimesNewRomanPSMT-61" x="172.216797"/>
     <use xlink:href="#TimesNewRomanPSMT-69" x="216.601562"/>
     <use xlink:href="#TimesNewRomanPSMT-20" x="244.384766"/>
     <use xlink:href="#TimesNewRomanPSMT-54" x="267.634766"/>
     <use xlink:href="#TimesNewRomanPSMT-72" x="325.21875"/>
     <use xlink:href="#TimesNewRomanPSMT-61" x="358.519531"/>
     <use xlink:href="#TimesNewRomanPSMT-6e" x="402.904297"/>
     <use xlink:href="#TimesNewRomanPSMT-73" x="452.904297"/>
     <use xlink:href="#TimesNewRomanPSMT-70" x="491.820312"/>
     <use xlink:href="#TimesNewRomanPSMT-6f" x="541.820312"/>
     <use xlink:href="#TimesNewRomanPSMT-72" x="591.820312"/>
     <use xlink:href="#TimesNewRomanPSMT-74" x="625.121094"/>
     <use xlink:href="#TimesNewRomanPSMT-20" x="652.904297"/>
     <use xlink:href="#TimesNewRomanPSMT-43" x="677.904297"/>
     <use xlink:href="#TimesNewRomanPSMT-65" x="744.603516"/>
     <use xlink:href="#TimesNewRomanPSMT-6e" x="788.988281"/>
     <use xlink:href="#TimesNewRomanPSMT-74" x="838.988281"/>
     <use xlink:href="#TimesNewRomanPSMT-65" x="866.771484"/>
     <use xlink:href="#TimesNewRomanPSMT-72" x="911.15625"/>
    </g>
   </g>
  </g>
 </g>
 <defs>
  <clipPath id="p420d788231">
   <rect x="7.2" y="38.31" width="502.2" height="332.64"/>
  </clipPath>
 </defs>
</svg>
