<svg class="main-svg" xmlns="http://www.w3.org/2000/svg" xmlns:xlink="http://www.w3.org/1999/xlink" width="1920" height="1440" style="" viewBox="0 0 640 480"><rect x="0" y="0" width="640" height="480" style="fill: rgb(255, 255, 255); fill-opacity: 1;"/><defs id="defs-c19cf7"><g class="clips"/><g class="gradients"><linearGradient x1="0" y1="1" x2="0" y2="0" gradientUnits="objectBoundingBox" id="gc19cf7-cb142515"><stop offset="0%" stop-color="rgb(247, 251, 255)" stop-opacity="1"/><stop offset="12.5%" stop-color="rgb(222, 235, 247)" stop-opacity="1"/><stop offset="25%" stop-color="rgb(198, 219, 239)" stop-opacity="1"/><stop offset="37.5%" stop-color="rgb(158, 202, 225)" stop-opacity="1"/><stop offset="50%" stop-color="rgb(107, 174, 214)" stop-opacity="1"/><stop offset="62.5%" stop-color="rgb(66, 146, 198)" stop-opacity="1"/><stop offset="75%" stop-color="rgb(33, 113, 181)" stop-opacity="1"/><stop offset="87.5%" stop-color="rgb(8, 81, 156)" stop-opacity="1"/><stop offset="100%" stop-color="rgb(8, 48, 107)" stop-opacity="1"/></linearGradient></g><g class="patterns"/></defs><g class="bglayer"/><g class="layer-below"><g class="imagelayer"/><g class="shapelayer"/></g><g class="cartesianlayer"/><g class="polarlayer"/><g class="smithlayer"/><g class="ternarylayer"/><g class="geolayer"/><g class="funnelarealayer"/><g class="pielayer"/><g class="iciclelayer"/><g class="treemaplayer"/><g class="sunburstlayer"><g class="trace sunburst" stroke-linejoin="round" style="opacity: 1;"><g class="slice"><path class="surface" d="M282.5,260A0,0 0,1,0 282.5,260A0,0 0,1,0 282.5,260ZM324.5,260A42,42 0,1,1 240.5,260A42,42 0,1,1 324.5,260Z" style="pointer-events: none; stroke-width: 1; fill: rgb(255, 255, 255); fill-opacity: 1; stroke: rgb(0, 0, 0); stroke-opacity: 1;"/><g class="slicetext"><text data-notex="1" class="slicetext" text-anchor="middle" x="0" y="0" style="font-family: 'Times New Roman'; font-size: 12px; fill: rgb(0, 0, 0); fill-opacity: 1; white-space: pre;" transform="translate(282.5,264)">100</text></g></g><g class="slice cursor-pointer"><path class="surface" d="M324.5,260L366.5,260A84,84 0,0,0 221.55644400523536,202.19097836225745L252.02822200261767,231.09548918112873A42,42 0,0,1 324.5,260Z" style="pointer-events: none; stroke-width: 1; fill: rgb(8, 48, 107); fill-opacity: 1; stroke: rgb(0, 0, 0); stroke-opacity: 1;"/><g class="slicetext"><text data-notex="1" class="slicetext" text-anchor="middle" x="0" y="0" style="font-family: 'Times New Roman'; font-size: 12px; fill: rgb(0, 0, 0); fill-opacity: 1; white-space: pre;" transform="translate(305.341956464865,202.7287592472665)scale(0.9842211435651563)rotate(21.744000000000028)"><tspan class="line" dy="0em" x="0" y="0">Crop Production</tspan><tspan class="line" dy="1.3em" x="0" y="0">37.92</tspan></text></g></g><g class="slice cursor-pointer"><path class="surface" d="M252.02822200261767,231.09548918112873L221.55644400523536,202.19097836225745A84,84 0,0,0 257.4477337482146,340.17720346613277L269.9738668741073,300.0886017330664A42,42 0,0,1 252.02822200261767,231.09548918112873Z" style="pointer-events: none; stroke-width: 1; fill: rgb(17, 93, 165); fill-opacity: 1; stroke: rgb(0, 0, 0); stroke-opacity: 1;"/><g class="slicetext"><text data-notex="1" class="slicetext" text-anchor="middle" x="0" y="0" style="font-family: 'Times New Roman'; font-size: 12px; fill: rgb(0, 0, 0); fill-opacity: 1; white-space: pre;" transform="translate(227.65818347316917,274.26478277461416)rotate(75.41999999999996)"><tspan class="line" dy="0em" x="0" y="0">Livestock</tspan><tspan class="line" dy="1.3em" x="0" y="0">32.26</tspan></text></g></g><g class="slice cursor-pointer"><path class="surface" d="M269.9738668741073,300.0886017330664L257.4477337482146,340.17720346613277A84,84 0,0,0 366.5,259.99999999999994L324.5,260A42,42 0,0,1 269.9738668741073,300.0886017330664Z" style="pointer-events: none; stroke-width: 1; fill: rgb(32, 112, 180); fill-opacity: 1; stroke: rgb(0, 0, 0); stroke-opacity: 1;"/><g class="slicetext"><text data-notex="1" class="slicetext" text-anchor="middle" x="0" y="0" style="font-family: 'Times New Roman'; font-size: 12px; fill: rgb(0, 0, 0); fill-opacity: 1; white-space: pre;" transform="translate(314.0906412779547,303.22395635984617)scale(0.9251734053456667)rotate(-36.32400000000007)"><tspan class="line" dy="0em" x="0" y="0">Agricultural Inputs</tspan><tspan class="line" dy="1.3em" x="0" y="0">29.82</tspan></text></g></g><g class="slice cursor-pointer"><path class="surface" d="M366.5,260L408.5,260A126,126 0,0,0 246.89122355951216,139.13637834149037L258.7608157063414,179.42425222766025A84,84 0,0,1 366.5,260Z" style="pointer-events: none; stroke-width: 1; fill: rgb(34, 114, 182); fill-opacity: 1; stroke: rgb(0, 0, 0); stroke-opacity: 1;"/><g class="slicetext"><text data-notex="1" class="slicetext" text-anchor="middle" x="0" y="0" style="font-family: 'Times New Roman'; font-size: 12px; fill: rgb(0, 0, 0); fill-opacity: 1; white-space: pre;" transform="translate(346.6446404383184,173.95719068307537)rotate(36.79200000000003)"><tspan class="line" dy="0em" x="0" y="0">Oilseeds</tspan><tspan class="line" dy="1.3em" x="0" y="0">29.56</tspan></text></g></g><g class="slice"><path class="surface" d="M258.7608157063414,179.42425222766025L246.89122355951216,139.13637834149037A126,126 0,0,0 191.0846660078531,173.28646754338612L221.5564440052354,202.19097836225743A84,84 0,0,1 258.7608157063414,179.42425222766025Z" style="pointer-events: none; stroke-width: 1; fill: rgb(227, 238, 248); fill-opacity: 1; stroke: rgb(0, 0, 0); stroke-opacity: 1; opacity: 1;"/><g class="slicetext"><text data-notex="1" class="slicetext" text-anchor="middle" x="0" y="0" style="font-family: 'Times New Roman'; font-size: 12px; fill: rgb(0, 0, 0); fill-opacity: 1; white-space: pre;" transform="translate(226.0618321566862,168.08557361885582)rotate(-31.464000000000055)"><tspan class="line" dy="0em" x="0" y="0">Grains</tspan><tspan class="line" dy="1.3em" x="0" y="0">8.36</tspan></text></g></g><g class="slice cursor-pointer"><path class="surface" d="M221.55644400523536,202.19097836225745L191.08466600785306,173.28646754338615A126,126 0,0,0 178.64515540274704,331.34543610968007L213.2634369351647,307.56362407312A84,84 0,0,1 221.55644400523536,202.19097836225745Z" style="pointer-events: none; stroke-width: 1; fill: rgb(105, 173, 213); fill-opacity: 1; stroke: rgb(0, 0, 0); stroke-opacity: 1;"/><g class="slicetext"><text data-notex="1" class="slicetext" text-anchor="middle" x="0" y="0" style="font-family: 'Times New Roman'; font-size: 12px; fill: rgb(0, 0, 0); fill-opacity: 1; white-space: pre;" transform="translate(175.13826680243005,251.550448349702)rotate(-85.5)"><tspan class="line" dy="0em" x="0" y="0">Poultry</tspan><tspan class="line" dy="1.3em" x="0" y="0">21.66</tspan></text></g></g><g class="slice cursor-pointer"><path class="surface" d="M213.2634369351647,307.56362407312L178.64515540274704,331.34543610968007A126,126 0,0,0 244.9216006223219,380.2658051991992L257.4477337482146,340.17720346613277A84,84 0,0,1 213.2634369351647,307.56362407312Z" style="pointer-events: none; stroke-width: 1; fill: rgb(213, 229, 244); fill-opacity: 1; stroke: rgb(0, 0, 0); stroke-opacity: 1;"/><g class="slicetext"><text data-notex="1" class="slicetext" text-anchor="middle" x="0" y="0" style="font-family: 'Times New Roman'; font-size: 12px; fill: rgb(0, 0, 0); fill-opacity: 1; white-space: pre;" transform="translate(220.1438251894711,340.674348141979)"><tspan class="line" dy="0em" x="0" y="0">Cattle</tspan><tspan class="line" dy="1.3em" x="0" y="0">10.6</tspan></text></g></g><g class="slice"><path class="surface" d="M257.4477337482146,340.17720346613277L244.9216006223219,380.2658051991992A126,126 0,0,0 408.5,259.99999999999994L366.5,259.99999999999994A84,84 0,0,1 257.4477337482146,340.17720346613277Z" style="pointer-events: none; stroke-width: 1; fill: rgb(32, 112, 180); fill-opacity: 1; stroke: rgb(0, 0, 0); stroke-opacity: 1; opacity: 1;"/><g class="slicetext"><text data-notex="1" class="slicetext" text-anchor="middle" x="0" y="0" style="font-family: 'Times New Roman'; font-size: 12px; fill: rgb(0, 0, 0); fill-opacity: 1; white-space: pre;" transform="translate(344.53276239666644,340.7917366133951)"><tspan class="line" dy="0em" x="0" y="0">Seeds</tspan><tspan class="line" dy="1.3em" x="0" y="0">29.82</tspan></text></g></g><g class="slice cursor-pointer"><path class="surface" d="M408.5,260L450.5,260A168,168 0,0,0 235.0216314126829,98.8485044553205L246.89122355951216,139.13637834149037A126,126 0,0,1 408.5,260Z" style="pointer-events: none; stroke-width: 1; fill: rgb(34, 114, 182); fill-opacity: 1; stroke: rgb(0, 0, 0); stroke-opacity: 1;"/><g class="slicetext"><text data-notex="1" class="slicetext" text-anchor="middle" x="0" y="0" style="font-family: 'Times New Roman'; font-size: 12px; fill: rgb(0, 0, 0); fill-opacity: 1; white-space: pre;" transform="translate(372.1367285430428,140.1452262873725)rotate(36.79200000000003)"><tspan class="line" dy="0em" x="0" y="0">Soybean</tspan><tspan class="line" dy="1.3em" x="0" y="0">29.56</tspan></text></g></g><g class="slice cursor-pointer"><path class="surface" d="M191.08466600785306,173.28646754338615L160.61288801047073,144.3819567245149A168,168 0,0,0 114.5671483147569,255.25054478259415L156.55036123606766,256.4379085869456A126,126 0,0,1 191.08466600785306,173.28646754338615Z" style="pointer-events: none; stroke-width: 1; fill: rgb(207, 225, 242); fill-opacity: 1; stroke: rgb(0, 0, 0); stroke-opacity: 1;"/><g class="slicetext"><text data-notex="1" class="slicetext" text-anchor="middle" x="0" y="0" style="font-family: 'Times New Roman'; font-size: 12px; fill: rgb(0, 0, 0); fill-opacity: 1; white-space: pre;" transform="translate(144.90424501527403,203.03163150536625)rotate(-67.44600000000003)"><tspan class="line" dy="0em" x="0" y="0">Egg Layers</tspan><tspan class="line" dy="1.3em" x="0" y="0">11.63</tspan></text></g></g><g class="slice cursor-pointer"><path class="surface" d="M156.55036123606766,256.4379085869456L114.5671483147569,255.25054478259415A168,168 0,0,0 144.02687387032938,355.12724814624005L178.64515540274704,331.34543610968007A126,126 0,0,1 156.55036123606766,256.4379085869456Z" style="pointer-events: none; stroke-width: 1; fill: rgb(217, 231, 245); fill-opacity: 1; stroke: rgb(0, 0, 0); stroke-opacity: 1;"/><g class="slicetext"><text data-notex="1" class="slicetext" text-anchor="middle" x="0" y="0" style="font-family: 'Times New Roman'; font-size: 12px; fill: rgb(0, 0, 0); fill-opacity: 1; white-space: pre;" transform="translate(146.09256667080479,300.0638131750572)rotate(73.56599999999992)"><tspan class="line" dy="0em" x="0" y="0">Broilers</tspan><tspan class="line" dy="1.3em" x="0" y="0">10.03</tspan></text></g></g><g class="slice"><path class="surface" d="M178.64515540274704,331.34543610968007L144.02687387032938,355.12724814624005A168,168 0,0,0 184.69380470809827,396.594100028231L209.14535353107368,362.4455750211732A126,126 0,0,1 178.64515540274704,331.34543610968007Z" style="pointer-events: none; stroke-width: 1; fill: rgb(244, 249, 254); fill-opacity: 1; stroke: rgb(0, 0, 0); stroke-opacity: 1; opacity: 1;"/><g class="slicetext"><text data-notex="1" class="slicetext" text-anchor="middle" x="0" y="0" style="font-family: 'Times New Roman'; font-size: 12px; fill: rgb(0, 0, 0); fill-opacity: 1; white-space: pre;" transform="translate(176.5401251675497,359.1227850822288)"><tspan class="line" dy="0em" x="0" y="0">Beef</tspan><tspan class="line" dy="1.3em" x="0" y="0">5.53</tspan></text></g></g><g class="slice"><path class="surface" d="M209.14535353107368,362.4455750211732L184.69380470809827,396.594100028231A168,168 0,0,0 232.3954674964292,420.35440693226553L244.9216006223219,380.2658051991992A126,126 0,0,1 209.14535353107368,362.4455750211732Z" style="pointer-events: none; stroke-width: 1; fill: rgb(247, 251, 255); fill-opacity: 1; stroke: rgb(0, 0, 0); stroke-opacity: 1; opacity: 1;"/><g class="slicetext"><text data-notex="1" class="slicetext" text-anchor="middle" x="0" y="0" style="font-family: 'Times New Roman'; font-size: 12px; fill: rgb(0, 0, 0); fill-opacity: 1; white-space: pre;" transform="translate(216.95943993539984,387.7758391231236)"><tspan class="line" dy="0em" x="0" y="0">Dairy</tspan><tspan class="line" dy="1.3em" x="0" y="0">5.07</tspan></text></g></g><g class="slice"><path class="surface" d="M450.5,260L492.5,260A210,210 0,0,0 223.1520392658536,58.56063056915062L235.0216314126829,98.8485044553205A168,168 0,0,1 450.5,260Z" style="pointer-events: none; stroke-width: 1; fill: rgb(34, 114, 182); fill-opacity: 1; stroke: rgb(0, 0, 0); stroke-opacity: 1; opacity: 1;"/><g class="slicetext"><text data-notex="1" class="slicetext" text-anchor="middle" x="0" y="0" style="font-family: 'Times New Roman'; font-size: 12px; fill: rgb(0, 0, 0); fill-opacity: 1; white-space: pre;" transform="translate(396.4749159521217,107.05435888154919)rotate(36.79200000000003)"><tspan class="line" dy="0em" x="0" y="0">Conventional</tspan><tspan class="line" dy="1.3em" x="0" y="0">29.56</tspan></text></g></g><g class="slice"><path class="surface" d="M160.61288801047073,144.3819567245149L130.14111001308842,115.4774459056436A210,210 0,0,0 85.87081451591402,186.26423245218837L125.19665161273122,201.0113859617507A168,168 0,0,1 160.61288801047073,144.3819567245149Z" style="pointer-events: none; stroke-width: 1; fill: rgb(239, 246, 252); fill-opacity: 1; stroke: rgb(0, 0, 0); stroke-opacity: 1; opacity: 1;"/><g class="slicetext"><text data-notex="1" class="slicetext" text-anchor="middle" x="0" y="0" style="font-family: 'Times New Roman'; font-size: 12px; fill: rgb(0, 0, 0); fill-opacity: 1; white-space: pre;" transform="translate(120.14219075570242,158.46087748604313)rotate(-57.978000000000065)"><tspan class="line" dy="0em" x="0" y="0">Cage-Free</tspan><tspan class="line" dy="1.3em" x="0" y="0">6.37</tspan></text></g></g><g class="slice"><path class="surface" d="M125.19665161273122,201.0113859617507L85.87081451591402,186.26423245218837A210,210 0,0,0 72.58393539344613,254.06318097824268L114.5671483147569,255.25054478259415A168,168 0,0,1 125.19665161273122,201.0113859617507Z" style="pointer-events: none; stroke-width: 1; fill: rgb(245, 250, 254); fill-opacity: 1; stroke: rgb(0, 0, 0); stroke-opacity: 1; opacity: 1;"/><g class="slicetext"><text data-notex="1" class="slicetext" text-anchor="middle" x="0" y="0" style="font-family: 'Times New Roman'; font-size: 12px; fill: rgb(0, 0, 0); fill-opacity: 1; white-space: pre;" transform="translate(93.81803416934402,223.0231068905422)rotate(-78.91200000000003)"><tspan class="line" dy="0em" x="0" y="0">Caged</tspan><tspan class="line" dy="1.3em" x="0" y="0">5.26</tspan></text></g></g><g class="slice"><path class="surface" d="M114.5671483147569,255.25054478259415L72.58393539344613,254.06318097824268A210,210 0,0,0 81.13536844663147,319.60104998551736L121.40829475730519,307.6808399884139A168,168 0,0,1 114.5671483147569,255.25054478259415Z" style="pointer-events: none; stroke-width: 1; fill: rgb(247, 251, 255); fill-opacity: 1; stroke: rgb(0, 0, 0); stroke-opacity: 1; opacity: 1;"/><g class="slicetext"><text data-notex="1" class="slicetext" text-anchor="middle" x="0" y="0" style="font-family: 'Times New Roman'; font-size: 12px; fill: rgb(0, 0, 0); fill-opacity: 1; white-space: pre;" transform="translate(98.02851833584008,284.0699850264871)rotate(82.56599999999992)"><tspan class="line" dy="0em" x="0" y="0">Intensive</tspan><tspan class="line" dy="1.3em" x="0" y="0">5.03</tspan></text></g></g><g class="slice"><path class="surface" d="M121.40829475730519,307.6808399884139L81.13536844663147,319.60104998551736A210,210 0,0,0 109.40859233791173,378.9090601828001L144.02687387032938,355.12724814624005A168,168 0,0,1 121.40829475730519,307.6808399884139Z" style="pointer-events: none; stroke-width: 1; fill: rgb(247, 251, 255); fill-opacity: 1; stroke: rgb(0, 0, 0); stroke-opacity: 1; opacity: 1;"/><g class="slicetext"><text data-notex="1" class="slicetext" text-anchor="middle" x="0" y="0" style="font-family: 'Times New Roman'; font-size: 12px; fill: rgb(0, 0, 0); fill-opacity: 1; white-space: pre;" transform="translate(111.486868799097,341.5251182885503)scale(0.9794670548652669)rotate(64.51199999999994)"><tspan class="line" dy="0em" x="0" y="0">Free-Range</tspan><tspan class="line" dy="1.3em" x="0" y="0">5</tspan></text></g></g></g></g><g class="glimages"/><defs id="topdefs-c19cf7"><g class="clips"/></defs><g class="layer-above"><g class="imagelayer"/><g class="shapelayer"/></g><g class="infolayer"><g class="cb142515 colorbar" transform="translate(10,50)"><rect class="cbbg" x="571.5" y="63" width="48.015625" height="295" style="fill: rgb(0, 0, 0); fill-opacity: 0; stroke: rgb(68, 68, 68); stroke-opacity: 1; stroke-width: 0;"/><g class="cbfills" transform="translate(0,93)"><rect class="cbfill gradient_filled" style="fill: url('#gc19cf7-cb142515');" x="582" y="0" width="15" height="254"/></g><g class="cblines" transform="translate(0,93)"/><g class="cbaxis crisp" transform="translate(0,-50)"><g class="ycb142515tick"><text text-anchor="start" x="600.4" y="4.199999999999999" transform="translate(0,397.00000000000006)" style="font-family: 'Times New Roman'; font-size: 12px; fill: rgb(42, 63, 95); fill-opacity: 1; white-space: pre; opacity: 1;">5</text></g><g class="ycb142515tick"><text text-anchor="start" x="600.4" y="4.199999999999999" style="font-family: 'Times New Roman'; font-size: 12px; fill: rgb(42, 63, 95); fill-opacity: 1; white-space: pre; opacity: 1;" transform="translate(0,358.4200000000001)">10</text></g><g class="ycb142515tick"><text text-anchor="start" x="600.4" y="4.199999999999999" style="font-family: 'Times New Roman'; font-size: 12px; fill: rgb(42, 63, 95); fill-opacity: 1; white-space: pre; opacity: 1;" transform="translate(0,319.84000000000003)">15</text></g><g class="ycb142515tick"><text text-anchor="start" x="600.4" y="4.199999999999999" style="font-family: 'Times New Roman'; font-size: 12px; fill: rgb(42, 63, 95); fill-opacity: 1; white-space: pre; opacity: 1;" transform="translate(0,281.26000000000005)">20</text></g><g class="ycb142515tick"><text text-anchor="start" x="600.4" y="4.199999999999999" style="font-family: 'Times New Roman'; font-size: 12px; fill: rgb(42, 63, 95); fill-opacity: 1; white-space: pre; opacity: 1;" transform="translate(0,242.69000000000005)">25</text></g><g class="ycb142515tick"><text text-anchor="start" x="600.4" y="4.199999999999999" style="font-family: 'Times New Roman'; font-size: 12px; fill: rgb(42, 63, 95); fill-opacity: 1; white-space: pre; opacity: 1;" transform="translate(0,204.11000000000007)">30</text></g><g class="ycb142515tick"><text text-anchor="start" x="600.4" y="4.199999999999999" style="font-family: 'Times New Roman'; font-size: 12px; fill: rgb(42, 63, 95); fill-opacity: 1; white-space: pre; opacity: 1;" transform="translate(0,165.53000000000006)">35</text></g></g><g class="cbtitleunshift" transform="translate(-10,-50)"><g class="cbtitle" transform="translate(-0.5,-0.5)"><text class="ycb142515title" x="592.25" y="135.75" text-anchor="start" style="opacity: 1; font-family: 'Times New Roman'; font-size: 13px; fill: rgb(42, 63, 95); fill-opacity: 1; white-space: pre;">%</text></g></g><rect class="cboutline" x="582" y="93" width="15" height="254" style="stroke: rgb(68, 68, 68); stroke-opacity: 1; fill: none; stroke-width: 1;"/></g><g class="g-gtitle"><text class="gtitle" x="320" y="25" text-anchor="middle" dy="0em" style="opacity: 1; font-family: 'Times New Roman'; font-size: 16px; fill: rgb(42, 63, 95); fill-opacity: 1; white-space: pre;">Agriculture Production Distribution by Category (2024) (%)</text></g></g></svg>