<svg class="main-svg" xmlns="http://www.w3.org/2000/svg" xmlns:xlink="http://www.w3.org/1999/xlink" width="1920" height="1440" style="" viewBox="0 0 640 480"><rect x="0" y="0" width="640" height="480" style="fill: rgb(255, 255, 255); fill-opacity: 1;"/><defs id="defs-97f2a6"><g class="clips"/><g class="gradients"><linearGradient x1="0" y1="1" x2="0" y2="0" gradientUnits="objectBoundingBox" id="g97f2a6-cb1576c4"><stop offset="0%" stop-color="rgb(255, 245, 240)" stop-opacity="1"/><stop offset="12.5%" stop-color="rgb(254, 224, 210)" stop-opacity="1"/><stop offset="25%" stop-color="rgb(252, 187, 161)" stop-opacity="1"/><stop offset="37.5%" stop-color="rgb(252, 146, 114)" stop-opacity="1"/><stop offset="50%" stop-color="rgb(251, 106, 74)" stop-opacity="1"/><stop offset="62.5%" stop-color="rgb(239, 59, 44)" stop-opacity="1"/><stop offset="75%" stop-color="rgb(203, 24, 29)" stop-opacity="1"/><stop offset="87.5%" stop-color="rgb(165, 15, 21)" stop-opacity="1"/><stop offset="100%" stop-color="rgb(103, 0, 13)" stop-opacity="1"/></linearGradient></g><g class="patterns"/></defs><g class="bglayer"/><g class="layer-below"><g class="imagelayer"/><g class="shapelayer"/></g><g class="cartesianlayer"/><g class="polarlayer"/><g class="smithlayer"/><g class="ternarylayer"/><g class="geolayer"/><g class="funnelarealayer"/><g class="pielayer"/><g class="iciclelayer"/><g class="treemaplayer"/><g class="sunburstlayer"><g class="trace sunburst" stroke-linejoin="round" style="opacity: 1;"><g class="slice"><path class="surface" d="M282.5,260A0,0 0,1,0 282.5,260A0,0 0,1,0 282.5,260ZM324.5,260A42,42 0,1,1 240.5,260A42,42 0,1,1 324.5,260Z" style="pointer-events: none; stroke-width: 1; fill: rgb(255, 255, 255); fill-opacity: 1; stroke: rgb(0, 0, 0); stroke-opacity: 1;"/><g class="slicetext"><text data-notex="1" class="slicetext" text-anchor="middle" x="0" y="0" style="font-family: 'Times New Roman'; font-size: 12px; fill: rgb(0, 0, 0); fill-opacity: 1; white-space: pre;" transform="translate(282.5,264)">100</text></g></g><g class="slice cursor-pointer"><path class="surface" d="M324.5,260L366.5,260A84,84 0,1,0 202.46574493752084,285.5052546859275L242.48287246876043,272.75262734296376A42,42 0,1,1 324.5,260Z" style="pointer-events: none; stroke-width: 1; fill: rgb(103, 0, 13); fill-opacity: 1; stroke: rgb(0, 0, 0); stroke-opacity: 1;"/><g class="slicetext"><text data-notex="1" class="slicetext" text-anchor="middle" x="0" y="0" style="font-family: 'Times New Roman'; font-size: 12px; fill: rgb(0, 0, 0); fill-opacity: 1; white-space: pre;" transform="translate(272.6245535527048,196.48714661589895)rotate(-8.837999999999965)"><tspan class="line" dy="0em" x="0" y="0">Livestock</tspan><tspan class="line" dy="1.3em" x="0" y="0">54.91</tspan></text></g></g><g class="slice cursor-pointer"><path class="surface" d="M242.48287246876043,272.75262734296376L202.46574493752084,285.5052546859275A84,84 0,0,0 302.67346294015385,341.54159302467815L292.5867314700769,300.7707965123391A42,42 0,0,1 242.48287246876043,272.75262734296376Z" style="pointer-events: none; stroke-width: 1; fill: rgb(252, 147, 115); fill-opacity: 1; stroke: rgb(0, 0, 0); stroke-opacity: 1;"/><g class="slicetext"><text data-notex="1" class="slicetext" text-anchor="middle" x="0" y="0" style="font-family: 'Times New Roman'; font-size: 12px; fill: rgb(0, 0, 0); fill-opacity: 1; white-space: pre;" transform="translate(255.44535463117813,308.3808249102771)scale(0.9527524138418302)rotate(29.214000000000055)"><tspan class="line" dy="0em" x="0" y="0">Crop Production</tspan><tspan class="line" dy="1.3em" x="0" y="0">23.95</tspan></text></g></g><g class="slice cursor-pointer"><path class="surface" d="M292.5867314700769,300.7707965123391L302.67346294015385,341.54159302467815A84,84 0,0,0 366.5,260L324.5,260A42,42 0,0,1 292.5867314700769,300.7707965123391Z" style="pointer-events: none; stroke-width: 1; fill: rgb(252, 165, 136); fill-opacity: 1; stroke: rgb(0, 0, 0); stroke-opacity: 1;"/><g class="slicetext"><text data-notex="1" class="slicetext" text-anchor="middle" x="0" y="0" style="font-family: 'Times New Roman'; font-size: 12px; fill: rgb(0, 0, 0); fill-opacity: 1; white-space: pre;" transform="translate(329.31558490752593,296.80889269431077)scale(0.787520251770882)rotate(-51.94799999999998)"><tspan class="line" dy="0em" x="0" y="0">Agricultural Inputs</tspan><tspan class="line" dy="1.3em" x="0" y="0">21.14</tspan></text></g></g><g class="slice cursor-pointer"><path class="surface" d="M366.5,260L408.5,260A126,126 0,0,0 158.94427695653567,235.30215994855547L200.12951797102377,243.53477329903697A84,84 0,0,1 366.5,260Z" style="pointer-events: none; stroke-width: 1; fill: rgb(177, 18, 23); fill-opacity: 1; stroke: rgb(0, 0, 0); stroke-opacity: 1;"/><g class="slicetext"><text data-notex="1" class="slicetext" text-anchor="middle" x="0" y="0" style="font-family: 'Times New Roman'; font-size: 12px; fill: rgb(0, 0, 0); fill-opacity: 1; white-space: pre;" transform="translate(293.1063340924771,152.829843914474)rotate(5.652000000000044)"><tspan class="line" dy="0em" x="0" y="0">Poultry</tspan><tspan class="line" dy="1.3em" x="0" y="0">46.86</tspan></text></g></g><g class="slice cursor-pointer"><path class="surface" d="M200.12951797102377,243.53477329903697L158.94427695653567,235.30215994855547A126,126 0,0,0 162.44861740628124,298.2578820288913L202.46574493752084,285.5052546859275A84,84 0,0,1 200.12951797102377,243.53477329903697Z" style="pointer-events: none; stroke-width: 1; fill: rgb(255, 236, 228); fill-opacity: 1; stroke: rgb(0, 0, 0); stroke-opacity: 1;"/><g class="slicetext"><text data-notex="1" class="slicetext" text-anchor="middle" x="0" y="0" style="font-family: 'Times New Roman'; font-size: 12px; fill: rgb(0, 0, 0); fill-opacity: 1; white-space: pre;" transform="translate(177.6622907150204,262.0309540138438)"><tspan class="line" dy="0em" x="0" y="0">Cattle</tspan><tspan class="line" dy="1.3em" x="0" y="0">8.05</tspan></text></g></g><g class="slice"><path class="surface" d="M202.46574493752084,285.5052546859275L162.44861740628124,298.2578820288913A126,126 0,0,0 312.76019441023084,382.3123895370172L302.67346294015385,341.54159302467815A84,84 0,0,1 202.46574493752084,285.5052546859275Z" style="pointer-events: none; stroke-width: 1; fill: rgb(252, 147, 115); fill-opacity: 1; stroke: rgb(0, 0, 0); stroke-opacity: 1; opacity: 1;"/><g class="slicetext"><text data-notex="1" class="slicetext" text-anchor="middle" x="0" y="0" style="font-family: 'Times New Roman'; font-size: 12px; fill: rgb(0, 0, 0); fill-opacity: 1; white-space: pre;" transform="translate(233.69008709206165,346.9488244104281)rotate(29.214000000000055)"><tspan class="line" dy="0em" x="0" y="0">Oilseeds</tspan><tspan class="line" dy="1.3em" x="0" y="0">23.95</tspan></text></g></g><g class="slice cursor-pointer"><path class="surface" d="M302.67346294015385,341.54159302467815L312.76019441023084,382.3123895370172A126,126 0,0,0 390.0153063351062,325.69976334560323L354.1768708900708,303.79984223040213A84,84 0,0,1 302.67346294015385,341.54159302467815Z" style="pointer-events: none; stroke-width: 1; fill: rgb(254, 220, 204); fill-opacity: 1; stroke: rgb(0, 0, 0); stroke-opacity: 1;"/><g class="slicetext"><text data-notex="1" class="slicetext" text-anchor="middle" x="0" y="0" style="font-family: 'Times New Roman'; font-size: 12px; fill: rgb(0, 0, 0); fill-opacity: 1; white-space: pre;" transform="translate(344.399801966814,340.8893307506707)"><tspan class="line" dy="0em" x="0" y="0">Seeds</tspan><tspan class="line" dy="1.3em" x="0" y="0">12.41</tspan></text></g></g><g class="slice"><path class="surface" d="M354.1768708900708,303.79984223040213L390.0153063351062,325.69976334560323A126,126 0,0,0 408.5,260.00000000000006L366.5,260A84,84 0,0,1 354.1768708900708,303.79984223040213Z" style="pointer-events: none; stroke-width: 1; fill: rgb(254, 234, 224); fill-opacity: 1; stroke: rgb(0, 0, 0); stroke-opacity: 1; opacity: 1;"/><g class="slicetext"><text data-notex="1" class="slicetext" text-anchor="middle" x="0" y="0" style="font-family: 'Times New Roman'; font-size: 12px; fill: rgb(0, 0, 0); fill-opacity: 1; white-space: pre;" transform="translate(382.4644735127152,288.29553620488986)rotate(-74.28599999999994)"><tspan class="line" dy="0em" x="0" y="0">Fertilizers</tspan><tspan class="line" dy="1.3em" x="0" y="0">8.73</tspan></text></g></g><g class="slice cursor-pointer"><path class="surface" d="M408.5,260L450.5,260A168,168 0,0,0 260.2925520739889,93.47423845958997L265.84441405549165,135.10567884469248A126,126 0,0,1 408.5,260Z" style="pointer-events: none; stroke-width: 1; fill: rgb(252, 126, 94); fill-opacity: 1; stroke: rgb(0, 0, 0); stroke-opacity: 1;"/><g class="slicetext"><text data-notex="1" class="slicetext" text-anchor="middle" x="0" y="0" style="font-family: 'Times New Roman'; font-size: 12px; fill: rgb(0, 0, 0); fill-opacity: 1; white-space: pre;" transform="translate(380.4742611959981,147.84372089866986)rotate(41.202)"><tspan class="line" dy="0em" x="0" y="0">Egg Layers</tspan><tspan class="line" dy="1.3em" x="0" y="0">27.11</tspan></text></g></g><g class="slice cursor-pointer"><path class="surface" d="M265.84441405549165,135.10567884469248L260.2925520739889,93.47423845958997A168,168 0,0,0 117.75903594204755,227.06954659807394L158.94427695653567,235.30215994855547A126,126 0,0,1 265.84441405549165,135.10567884469248Z" style="pointer-events: none; stroke-width: 1; fill: rgb(252, 174, 147); fill-opacity: 1; stroke: rgb(0, 0, 0); stroke-opacity: 1;"/><g class="slicetext"><text data-notex="1" class="slicetext" text-anchor="middle" x="0" y="0" style="font-family: 'Times New Roman'; font-size: 12px; fill: rgb(0, 0, 0); fill-opacity: 1; white-space: pre;" transform="translate(179.9527839511347,150.8317584320931)rotate(-43.14599999999996)"><tspan class="line" dy="0em" x="0" y="0">Broilers</tspan><tspan class="line" dy="1.3em" x="0" y="0">19.75</tspan></text></g></g><g class="slice cursor-pointer"><path class="surface" d="M158.94427695653567,235.30215994855547L117.75903594204755,227.06954659807394A168,168 0,0,0 122.43148987504168,311.01050937185505L162.44861740628124,298.2578820288913A126,126 0,0,1 158.94427695653567,235.30215994855547Z" style="pointer-events: none; stroke-width: 1; fill: rgb(255, 236, 228); fill-opacity: 1; stroke: rgb(0, 0, 0); stroke-opacity: 1;"/><g class="slicetext"><text data-notex="1" class="slicetext" text-anchor="middle" x="0" y="0" style="font-family: 'Times New Roman'; font-size: 12px; fill: rgb(0, 0, 0); fill-opacity: 1; white-space: pre;" transform="translate(134.71939450102855,264.36521061938134)"><tspan class="line" dy="0em" x="0" y="0">Beef</tspan><tspan class="line" dy="1.3em" x="0" y="0">8.05</tspan></text></g></g><g class="slice"><path class="surface" d="M312.76019441023084,382.3123895370172L322.84692588030777,423.0831860493563A168,168 0,0,0 387.70544387016855,390.9802068256148L361.4040829026264,358.2351551192111A126,126 0,0,1 312.76019441023084,382.3123895370172Z" style="pointer-events: none; stroke-width: 1; fill: rgb(255, 240, 233); fill-opacity: 1; stroke: rgb(0, 0, 0); stroke-opacity: 1; opacity: 1;"/><g class="slicetext"><text data-notex="1" class="slicetext" text-anchor="middle" x="0" y="0" style="font-family: 'Times New Roman'; font-size: 12px; fill: rgb(0, 0, 0); fill-opacity: 1; white-space: pre;" transform="translate(349.03002560531,394.6997780534272)scale(0.7770000582085235)rotate(-26.333999999999946)"><tspan class="line" dy="0em" x="0" y="0">Heirloom Seeds</tspan><tspan class="line" dy="1.3em" x="0" y="0">6.91</tspan></text></g></g><g class="slice"><path class="surface" d="M361.4040829026264,358.2351551192111L387.70544387016855,390.9802068256148A168,168 0,0,0 425.8537417801416,347.5996844608043L390.0153063351062,325.69976334560323A126,126 0,0,1 361.4040829026264,358.2351551192111Z" style="pointer-events: none; stroke-width: 1; fill: rgb(255, 245, 240); fill-opacity: 1; stroke: rgb(0, 0, 0); stroke-opacity: 1; opacity: 1;"/><g class="slicetext"><text data-notex="1" class="slicetext" text-anchor="middle" x="0" y="0" style="font-family: 'Times New Roman'; font-size: 12px; fill: rgb(0, 0, 0); fill-opacity: 1; white-space: pre;" transform="translate(396.5477600115426,360.4536626198289)scale(0.7390519952422285)rotate(-48.672000000000025)"><tspan class="line" dy="0em" x="0" y="0">Hybrid Seeds</tspan><tspan class="line" dy="1.3em" x="0" y="0">5.5</tspan></text></g></g><g class="slice"><path class="surface" d="M450.5,260L492.5,260A210,210 0,0,0 401.19145327534454,86.75930351275224L377.45316262027563,121.40744281020179A168,168 0,0,1 450.5,260Z" style="pointer-events: none; stroke-width: 1; fill: rgb(253, 201, 180); fill-opacity: 1; stroke: rgb(0, 0, 0); stroke-opacity: 1; opacity: 1;"/><g class="slicetext"><text data-notex="1" class="slicetext" text-anchor="middle" x="0" y="0" style="font-family: 'Times New Roman'; font-size: 12px; fill: rgb(0, 0, 0); fill-opacity: 1; white-space: pre;" transform="translate(452.59187375689925,170.35107733153652)rotate(62.20799999999997)"><tspan class="line" dy="0em" x="0" y="0">Caged</tspan><tspan class="line" dy="1.3em" x="0" y="0">15.44</tspan></text></g></g><g class="slice"><path class="surface" d="M377.45316262027563,121.40744281020179L401.19145327534454,86.75930351275224A210,210 0,0,0 254.74069009248606,51.84279807448746L260.2925520739889,93.47423845958997A168,168 0,0,1 377.45316262027563,121.40744281020179Z" style="pointer-events: none; stroke-width: 1; fill: rgb(254, 224, 210); fill-opacity: 1; stroke: rgb(0, 0, 0); stroke-opacity: 1; opacity: 1;"/><g class="slicetext"><text data-notex="1" class="slicetext" text-anchor="middle" x="0" y="0" style="font-family: 'Times New Roman'; font-size: 12px; fill: rgb(0, 0, 0); fill-opacity: 1; white-space: pre;" transform="translate(326.91102589308514,73.72624338722379)rotate(13.409999999999968)"><tspan class="line" dy="0em" x="0" y="0">Cage-Free</tspan><tspan class="line" dy="1.3em" x="0" y="0">11.67</tspan></text></g></g><g class="slice"><path class="surface" d="M260.2925520739889,93.47423845958997L254.74069009248606,51.84279807448746A210,210 0,0,0 111.52722801182469,138.06431515475293L145.72178240945976,162.45145212380234A168,168 0,0,1 260.2925520739889,93.47423845958997Z" style="pointer-events: none; stroke-width: 1; fill: rgb(254, 216, 199); fill-opacity: 1; stroke: rgb(0, 0, 0); stroke-opacity: 1; opacity: 1;"/><g class="slicetext"><text data-notex="1" class="slicetext" text-anchor="middle" x="0" y="0" style="font-family: 'Times New Roman'; font-size: 12px; fill: rgb(0, 0, 0); fill-opacity: 1; white-space: pre;" transform="translate(183.876297045818,96.18657590848711)rotate(-31.049999999999955)"><tspan class="line" dy="0em" x="0" y="0">Free-Range</tspan><tspan class="line" dy="1.3em" x="0" y="0">13.03</tspan></text></g></g><g class="slice"><path class="surface" d="M145.72178240945976,162.45145212380234L111.52722801182469,138.06431515475293A210,210 0,0,0 76.57379492755945,218.83693324759244L117.75903594204755,227.06954659807394A168,168 0,0,1 145.72178240945976,162.45145212380234Z" style="pointer-events: none; stroke-width: 1; fill: rgb(255, 241, 234); fill-opacity: 1; stroke: rgb(0, 0, 0); stroke-opacity: 1; opacity: 1;"/><g class="slicetext"><text data-notex="1" class="slicetext" text-anchor="middle" x="0" y="0" style="font-family: 'Times New Roman'; font-size: 12px; fill: rgb(0, 0, 0); fill-opacity: 1; white-space: pre;" transform="translate(106.50998004022037,183.84231771350758)rotate(-66.60000000000002)"><tspan class="line" dy="0em" x="0" y="0">Intensive</tspan><tspan class="line" dy="1.3em" x="0" y="0">6.72</tspan></text></g></g><g class="slice"><path class="surface" d="M117.75903594204755,227.06954659807394L76.57379492755945,218.83693324759244A210,210 0,0,0 82.41436234380211,323.7631367148188L122.43148987504168,311.01050937185505A168,168 0,0,1 117.75903594204755,227.06954659807394Z" style="pointer-events: none; stroke-width: 1; fill: rgb(255, 236, 228); fill-opacity: 1; stroke: rgb(0, 0, 0); stroke-opacity: 1; opacity: 1;"/><g class="slicetext"><text data-notex="1" class="slicetext" text-anchor="middle" x="0" y="0" style="font-family: 'Times New Roman'; font-size: 12px; fill: rgb(0, 0, 0); fill-opacity: 1; white-space: pre;" transform="translate(98.28736936048156,270.2539332656744)rotate(86.81399999999996)"><tspan class="line" dy="0em" x="0" y="0">Pasture</tspan><tspan class="line" dy="1.3em" x="0" y="0">8.05</tspan></text></g></g></g></g><g class="glimages"/><defs id="topdefs-97f2a6"><g class="clips"/></defs><g class="layer-above"><g class="imagelayer"/><g class="shapelayer"/></g><g class="infolayer"><g class="cb1576c4 colorbar" transform="translate(10,50)"><rect class="cbbg" x="571.5" y="63" width="48.015625" height="295" style="fill: rgb(0, 0, 0); fill-opacity: 0; stroke: rgb(68, 68, 68); stroke-opacity: 1; stroke-width: 0;"/><g class="cbfills" transform="translate(0,93)"><rect class="cbfill gradient_filled" style="fill: url('#g97f2a6-cb1576c4');" x="582" y="0" width="15" height="254"/></g><g class="cblines" transform="translate(0,93)"/><g class="cbaxis crisp" transform="translate(0,-50)"><g class="ycb1576c4tick"><text text-anchor="start" x="600.4" y="4.199999999999999" transform="translate(0,373.87000000000006)" style="font-family: 'Times New Roman'; font-size: 12px; fill: rgb(42, 63, 95); fill-opacity: 1; white-space: pre; opacity: 1;">10</text></g><g class="ycb1576c4tick"><text text-anchor="start" x="600.4" y="4.199999999999999" style="font-family: 'Times New Roman'; font-size: 12px; fill: rgb(42, 63, 95); fill-opacity: 1; white-space: pre; opacity: 1;" transform="translate(0,322.46000000000004)">20</text></g><g class="ycb1576c4tick"><text text-anchor="start" x="600.4" y="4.199999999999999" style="font-family: 'Times New Roman'; font-size: 12px; fill: rgb(42, 63, 95); fill-opacity: 1; white-space: pre; opacity: 1;" transform="translate(0,271.05000000000007)">30</text></g><g class="ycb1576c4tick"><text text-anchor="start" x="600.4" y="4.199999999999999" style="font-family: 'Times New Roman'; font-size: 12px; fill: rgb(42, 63, 95); fill-opacity: 1; white-space: pre; opacity: 1;" transform="translate(0,219.65000000000006)">40</text></g><g class="ycb1576c4tick"><text text-anchor="start" x="600.4" y="4.199999999999999" style="font-family: 'Times New Roman'; font-size: 12px; fill: rgb(42, 63, 95); fill-opacity: 1; white-space: pre; opacity: 1;" transform="translate(0,168.24000000000007)">50</text></g></g><g class="cbtitleunshift" transform="translate(-10,-50)"><g class="cbtitle" transform="translate(-0.5,-0.5)"><text class="ycb1576c4title" x="592.25" y="135.75" text-anchor="start" style="opacity: 1; font-family: 'Times New Roman'; font-size: 13px; fill: rgb(42, 63, 95); fill-opacity: 1; white-space: pre;">%</text></g></g><rect class="cboutline" x="582" y="93" width="15" height="254" style="stroke: rgb(68, 68, 68); stroke-opacity: 1; fill: none; stroke-width: 1;"/></g><g class="g-gtitle"><text class="gtitle" x="320" y="25" text-anchor="middle" dy="0em" style="opacity: 1; font-family: 'Times New Roman'; font-size: 16px; fill: rgb(42, 63, 95); fill-opacity: 1; white-space: pre;">Agriculture Production Distribution by Category (2024) (%)</text></g></g></svg>