<svg class="main-svg" xmlns="http://www.w3.org/2000/svg" xmlns:xlink="http://www.w3.org/1999/xlink" width="1920" height="1440" style="" viewBox="0 0 640 480"><rect x="0" y="0" width="640" height="480" style="fill: rgb(255, 255, 255); fill-opacity: 1;"/><defs id="defs-c8dc9a"><g class="clips"/><g class="gradients"><linearGradient x1="0" y1="1" x2="0" y2="0" gradientUnits="objectBoundingBox" id="gc8dc9a-cb3608bb"><stop offset="0%" stop-color="rgb(247, 251, 255)" stop-opacity="1"/><stop offset="12.5%" stop-color="rgb(222, 235, 247)" stop-opacity="1"/><stop offset="25%" stop-color="rgb(198, 219, 239)" stop-opacity="1"/><stop offset="37.5%" stop-color="rgb(158, 202, 225)" stop-opacity="1"/><stop offset="50%" stop-color="rgb(107, 174, 214)" stop-opacity="1"/><stop offset="62.5%" stop-color="rgb(66, 146, 198)" stop-opacity="1"/><stop offset="75%" stop-color="rgb(33, 113, 181)" stop-opacity="1"/><stop offset="87.5%" stop-color="rgb(8, 81, 156)" stop-opacity="1"/><stop offset="100%" stop-color="rgb(8, 48, 107)" stop-opacity="1"/></linearGradient></g><g class="patterns"/></defs><g class="bglayer"/><g class="layer-below"><g class="imagelayer"/><g class="shapelayer"/></g><g class="cartesianlayer"/><g class="polarlayer"/><g class="smithlayer"/><g class="ternarylayer"/><g class="geolayer"/><g class="funnelarealayer"/><g class="pielayer"/><g class="iciclelayer"/><g class="treemaplayer"/><g class="sunburstlayer"><g class="trace sunburst" stroke-linejoin="round" style="opacity: 1;"><g class="slice"><path class="surface" d="M282.5,260A0,0 0,1,0 282.5,260A0,0 0,1,0 282.5,260ZM324.5,260A42,42 0,1,1 240.5,260A42,42 0,1,1 324.5,260Z" style="pointer-events: none; stroke-width: 1; fill: rgb(255, 255, 255); fill-opacity: 1; stroke: rgb(0, 0, 0); stroke-opacity: 1;"/><g class="slicetext"><text data-notex="1" class="slicetext" text-anchor="middle" x="0" y="0" style="font-family: 'Times New Roman'; font-size: 12px; fill: rgb(0, 0, 0); fill-opacity: 1; white-space: pre;" transform="translate(282.5,264)">100.01</text></g></g><g class="slice cursor-pointer"><path class="surface" d="M324.5,260L366.5,260A84,84 0,0,0 208.9009194421247,219.51326956846992L245.70045972106234,239.75663478423496A42,42 0,0,1 324.5,260Z" style="pointer-events: none; stroke-width: 1; fill: rgb(8, 48, 107); fill-opacity: 1; stroke: rgb(0, 0, 0); stroke-opacity: 1;"/><g class="slicetext"><text data-notex="1" class="slicetext" text-anchor="middle" x="0" y="0" style="font-family: 'Times New Roman'; font-size: 12px; fill: rgb(0, 0, 0); fill-opacity: 1; white-space: pre;" transform="translate(297.7225225329929,200.74464572958212)scale(0.9581518419590909)rotate(14.407559244075628)"><tspan class="line" dy="0em" x="0" y="0">Higher Education</tspan><tspan class="line" dy="1.3em" x="0" y="0">42</tspan></text></g></g><g class="slice cursor-pointer"><path class="surface" d="M245.70045972106234,239.75663478423496L208.9009194421247,219.51326956846992A84,84 0,0,0 292.62105122953636,343.3880346453201L287.56052561476815,301.69401732266005A42,42 0,0,1 245.70045972106234,239.75663478423496Z" style="pointer-events: none; stroke-width: 1; fill: rgb(21, 98, 169); fill-opacity: 1; stroke: rgb(0, 0, 0); stroke-opacity: 1;"/><g class="slicetext"><text data-notex="1" class="slicetext" text-anchor="middle" x="0" y="0" style="font-family: 'Times New Roman'; font-size: 12px; fill: rgb(0, 0, 0); fill-opacity: 1; white-space: pre;" transform="translate(237.99214148333417,290.0804104716489)scale(0.9423235837095201)rotate(55.94740525947407)"><tspan class="line" dy="0em" x="0" y="0">Informal Learning</tspan><tspan class="line" dy="1.3em" x="0" y="0">34.93</tspan></text></g></g><g class="slice cursor-pointer"><path class="surface" d="M287.56052561476815,301.69401732266005L292.62105122953636,343.3880346453201A84,84 0,0,0 366.5,260.0000000000001L324.5,260.00000000000006A42,42 0,0,1 287.56052561476815,301.69401732266005Z" style="pointer-events: none; stroke-width: 1; fill: rgb(112, 177, 215); fill-opacity: 1; stroke: rgb(0, 0, 0); stroke-opacity: 1;"/><g class="slicetext"><text data-notex="1" class="slicetext" text-anchor="middle" x="0" y="0" style="font-family: 'Times New Roman'; font-size: 12px; fill: rgb(0, 0, 0); fill-opacity: 1; white-space: pre;" transform="translate(325.1135487369271,297.7541477917514)scale(0.8780917919721365)rotate(-48.46015398460156)"><tspan class="line" dy="0em" x="0" y="0">Formal Education</tspan><tspan class="line" dy="1.3em" x="0" y="0">23.08</tspan></text></g></g><g class="slice cursor-pointer"><path class="surface" d="M366.5,260L408.5,260A126,126 0,0,0 296.8168025550509,134.8160187380203L292.0445350367006,176.5440124920135A84,84 0,0,1 366.5,260Z" style="pointer-events: none; stroke-width: 1; fill: rgb(110, 176, 215); fill-opacity: 1; stroke: rgb(0, 0, 0); stroke-opacity: 1;"/><g class="slicetext"><text data-notex="1" class="slicetext" text-anchor="middle" x="0" y="0" style="font-family: 'Times New Roman'; font-size: 12px; fill: rgb(0, 0, 0); fill-opacity: 1; white-space: pre;" transform="translate(361.1248413584676,189.85465398213464)rotate(48.262173782621744)"><tspan class="line" dy="0em" x="0" y="0">Undergraduate</tspan><tspan class="line" dy="1.3em" x="0" y="0">23.19</tspan></text></g></g><g class="slice cursor-pointer"><path class="surface" d="M292.0445350367006,176.5440124920135L296.8168025550509,134.8160187380203A126,126 0,0,0 172.10137916318706,199.2699043527049L208.9009194421247,219.51326956846992A84,84 0,0,1 292.0445350367006,176.5440124920135Z" style="pointer-events: none; stroke-width: 1; fill: rgb(159, 202, 225); fill-opacity: 1; stroke: rgb(0, 0, 0); stroke-opacity: 1;"/><g class="slicetext"><text data-notex="1" class="slicetext" text-anchor="middle" x="0" y="0" style="font-family: 'Times New Roman'; font-size: 12px; fill: rgb(0, 0, 0); fill-opacity: 1; white-space: pre;" transform="translate(233.83987914317657,165.84481420969036)rotate(-27.330266973302628)"><tspan class="line" dy="0em" x="0" y="0">Postgraduate</tspan><tspan class="line" dy="1.3em" x="0" y="0">18.81</tspan></text></g></g><g class="slice"><path class="surface" d="M208.9009194421247,219.51326956846992L172.10137916318706,199.2699043527049A126,126 0,0,0 208.6537626559088,362.0917882599778L233.26917510393918,328.06119217331855A84,84 0,0,1 208.9009194421247,219.51326956846992Z" style="pointer-events: none; stroke-width: 1; fill: rgb(112, 177, 215); fill-opacity: 1; stroke: rgb(0, 0, 0); stroke-opacity: 1; opacity: 1;"/><g class="slicetext"><text data-notex="1" class="slicetext" text-anchor="middle" x="0" y="0" style="font-family: 'Times New Roman'; font-size: 12px; fill: rgb(0, 0, 0); fill-opacity: 1; white-space: pre;" transform="translate(187.97592720780776,281.21999865793117)rotate(77.34726527347266)"><tspan class="line" dy="0em" x="0" y="0">Online Education</tspan><tspan class="line" dy="1.3em" x="0" y="0">23.04</tspan></text></g></g><g class="slice cursor-pointer"><path class="surface" d="M233.26917510393918,328.06119217331855L208.6537626559088,362.0917882599778A126,126 0,0,0 297.6815768443045,385.0820519679801L292.62105122953636,343.3880346453201A84,84 0,0,1 233.26917510393918,328.06119217331855Z" style="pointer-events: none; stroke-width: 1; fill: rgb(210, 227, 243); fill-opacity: 1; stroke: rgb(0, 0, 0); stroke-opacity: 1;"/><g class="slicetext"><text data-notex="1" class="slicetext" text-anchor="middle" x="0" y="0" style="font-family: 'Times New Roman'; font-size: 12px; fill: rgb(0, 0, 0); fill-opacity: 1; white-space: pre;" transform="translate(255.87205872780524,363.11440694676844)scale(0.7068336058075364)rotate(14.479552044795469)"><tspan class="line" dy="0em" x="0" y="0">Community Learning</tspan><tspan class="line" dy="1.3em" x="0" y="0">11.89</tspan></text></g></g><g class="slice"><path class="surface" d="M292.62105122953636,343.3880346453201L297.6815768443045,385.0820519679801A126,126 0,0,0 408.5,260.00000000000017L366.5,260.0000000000001A84,84 0,0,1 292.62105122953636,343.3880346453201Z" style="pointer-events: none; stroke-width: 1; fill: rgb(112, 177, 215); fill-opacity: 1; stroke: rgb(0, 0, 0); stroke-opacity: 1; opacity: 1;"/><g class="slicetext"><text data-notex="1" class="slicetext" text-anchor="middle" x="0" y="0" style="font-family: 'Times New Roman'; font-size: 12px; fill: rgb(0, 0, 0); fill-opacity: 1; white-space: pre;" transform="translate(354.72243101381184,323.98660555609115)rotate(-48.46015398460156)"><tspan class="line" dy="0em" x="0" y="0">Primary Education</tspan><tspan class="line" dy="1.3em" x="0" y="0">23.08</tspan></text></g></g><g class="slice cursor-pointer"><path class="surface" d="M408.5,260L450.5,260A168,168 0,0,0 377.1180434086956,121.17843877296946L353.4635325565217,155.8838290797271A126,126 0,0,1 408.5,260Z" style="pointer-events: none; stroke-width: 1; fill: rgb(187, 215, 235); fill-opacity: 1; stroke: rgb(0, 0, 0); stroke-opacity: 1;"/><g class="slicetext"><text data-notex="1" class="slicetext" text-anchor="middle" x="0" y="0" style="font-family: 'Times New Roman'; font-size: 12px; fill: rgb(0, 0, 0); fill-opacity: 1; white-space: pre;" transform="translate(411.5105338165024,191.61864083364964)rotate(62.13878612138785)"><tspan class="line" dy="0em" x="0" y="0">Research Universities</tspan><tspan class="line" dy="1.3em" x="0" y="0">15.48</tspan></text></g></g><g class="slice"><path class="surface" d="M353.4635325565217,155.8838290797271L377.1180434086956,121.17843877296946A168,168 0,0,0 301.5890700734013,93.08802498402707L296.81680255505097,134.81601873802032A126,126 0,0,1 353.4635325565217,155.8838290797271Z" style="pointer-events: none; stroke-width: 1; fill: rgb(232, 242, 250); fill-opacity: 1; stroke: rgb(0, 0, 0); stroke-opacity: 1; opacity: 1;"/><g class="slicetext"><text data-notex="1" class="slicetext" text-anchor="middle" x="0" y="0" style="font-family: 'Times New Roman'; font-size: 12px; fill: rgb(0, 0, 0); fill-opacity: 1; white-space: pre;" transform="translate(336.99099861357786,113.17424603161118)scale(0.6616128207541846)rotate(20.400959904009596)"><tspan class="line" dy="0em" x="0" y="0">Liberal Arts Colleges</tspan><tspan class="line" dy="1.3em" x="0" y="0">7.71</tspan></text></g></g><g class="slice cursor-pointer"><path class="surface" d="M296.8168025550509,134.8160187380203L301.5890700734012,93.08802498402704A168,168 0,0,0 189.58971545182402,120.02972092198655L212.817286588868,155.02229069148993A126,126 0,0,1 296.8168025550509,134.8160187380203Z" style="pointer-events: none; stroke-width: 1; fill: rgb(214, 230, 244); fill-opacity: 1; stroke: rgb(0, 0, 0); stroke-opacity: 1;"/><g class="slicetext"><text data-notex="1" class="slicetext" text-anchor="middle" x="0" y="0" style="font-family: 'Times New Roman'; font-size: 12px; fill: rgb(0, 0, 0); fill-opacity: 1; white-space: pre;" transform="translate(247.44346939455235,114.9679367301348)rotate(-13.525647435256474)"><tspan class="line" dy="0em" x="0" y="0">Masters Programs</tspan><tspan class="line" dy="1.3em" x="0" y="0">11.14</tspan></text></g></g><g class="slice"><path class="surface" d="M212.817286588868,155.02229069148993L189.58971545182402,120.02972092198655A168,168 0,0,0 135.3018388842494,179.02653913693987L172.10137916318706,199.2699043527049A126,126 0,0,1 212.817286588868,155.02229069148993Z" style="pointer-events: none; stroke-width: 1; fill: rgb(233, 242, 250); fill-opacity: 1; stroke: rgb(0, 0, 0); stroke-opacity: 1; opacity: 1;"/><g class="slicetext"><text data-notex="1" class="slicetext" text-anchor="middle" x="0" y="0" style="font-family: 'Times New Roman'; font-size: 12px; fill: rgb(0, 0, 0); fill-opacity: 1; white-space: pre;" transform="translate(167.6942759966789,154.52174200599333)scale(0.7357267103494362)rotate(-47.38026197380259)"><tspan class="line" dy="0em" x="0" y="0">Doctoral Programs</tspan><tspan class="line" dy="1.3em" x="0" y="0">7.67</tspan></text></g></g><g class="slice"><path class="surface" d="M208.6537626559088,362.0917882599778L184.03835020787835,396.1223843466371A168,168 0,0,0 302.7421024590727,426.7760692906402L297.6815768443045,385.0820519679801A126,126 0,0,1 208.6537626559088,362.0917882599778Z" style="pointer-events: none; stroke-width: 1; fill: rgb(210, 227, 243); fill-opacity: 1; stroke: rgb(0, 0, 0); stroke-opacity: 1; opacity: 1;"/><g class="slicetext"><text data-notex="1" class="slicetext" text-anchor="middle" x="0" y="0" style="font-family: 'Times New Roman'; font-size: 12px; fill: rgb(0, 0, 0); fill-opacity: 1; white-space: pre;" transform="translate(247.33018654571785,395.5359110412869)rotate(14.479552044795469)"><tspan class="line" dy="0em" x="0" y="0">Public Libraries</tspan><tspan class="line" dy="1.3em" x="0" y="0">11.89</tspan></text></g></g><g class="slice"><path class="surface" d="M450.5,260L492.5,260A210,210 0,0,0 480.4424154805449,189.8658417479234L440.85393238443595,203.89267339833873A168,168 0,0,1 450.5,260Z" style="pointer-events: none; stroke-width: 1; fill: rgb(245, 250, 254); fill-opacity: 1; stroke: rgb(0, 0, 0); stroke-opacity: 1; opacity: 1;"/><g class="slicetext"><text data-notex="1" class="slicetext" text-anchor="middle" x="0" y="0" style="font-family: 'Times New Roman'; font-size: 12px; fill: rgb(0, 0, 0); fill-opacity: 1; white-space: pre;" transform="translate(479.90059344115724,225.95781815257808)scale(0.6291483425229809)rotate(80.24497550244973)"><tspan class="line" dy="0em" x="0" y="0">Engineering Schools</tspan><tspan class="line" dy="1.3em" x="0" y="0">5.42</tspan></text></g></g><g class="slice"><path class="surface" d="M440.85393238443595,203.89267339833873L480.4424154805449,189.8658417479234A210,210 0,0,0 448.68331663034803,131.61345368872372L415.44665330427847,157.290762950979A168,168 0,0,1 440.85393238443595,203.89267339833873Z" style="pointer-events: none; stroke-width: 1; fill: rgb(247, 251, 255); fill-opacity: 1; stroke: rgb(0, 0, 0); stroke-opacity: 1; opacity: 1;"/><g class="slicetext"><text data-notex="1" class="slicetext" text-anchor="middle" x="0" y="0" style="font-family: 'Times New Roman'; font-size: 12px; fill: rgb(0, 0, 0); fill-opacity: 1; white-space: pre;" transform="translate(458.0209781680556,164.17713371407243)scale(0.6910987319072547)rotate(61.400859914008606)"><tspan class="line" dy="0em" x="0" y="0">Business Schools</tspan><tspan class="line" dy="1.3em" x="0" y="0">5.05</tspan></text></g></g><g class="slice"><path class="surface" d="M415.44665330427847,157.290762950979L448.68331663034803,131.61345368872372A210,210 0,0,0 400.7725542608695,86.47304846621182L377.1180434086956,121.17843877296946A168,168 0,0,1 415.44665330427847,157.290762950979Z" style="pointer-events: none; stroke-width: 1; fill: rgb(247, 251, 255); fill-opacity: 1; stroke: rgb(0, 0, 0); stroke-opacity: 1; opacity: 1;"/><g class="slicetext"><text data-notex="1" class="slicetext" text-anchor="middle" x="0" y="0" style="font-family: 'Times New Roman'; font-size: 12px; fill: rgb(0, 0, 0); fill-opacity: 1; white-space: pre;" transform="translate(419.41781169186544,114.50899109612975)scale(0.7117247406494938)rotate(43.294670532946725)"><tspan class="line" dy="0em" x="0" y="0">Medical Schools</tspan><tspan class="line" dy="1.3em" x="0" y="0">5.01</tspan></text></g></g><g class="slice"><path class="surface" d="M301.5890700734012,93.08802498402704L306.3613375917515,51.3600312300338A210,210 0,0,0 229.67346816698654,56.752964266399175L240.2387745335892,97.40237141311934A168,168 0,0,1 301.5890700734012,93.08802498402704Z" style="pointer-events: none; stroke-width: 1; fill: rgb(242, 248, 254); fill-opacity: 1; stroke: rgb(0, 0, 0); stroke-opacity: 1; opacity: 1;"/><g class="slicetext"><text data-notex="1" class="slicetext" text-anchor="middle" x="0" y="0" style="font-family: 'Times New Roman'; font-size: 12px; fill: rgb(0, 0, 0); fill-opacity: 1; white-space: pre;" transform="translate(269.0697915321703,67.66092148961741)"><tspan class="line" dy="0em" x="0" y="0">MBA</tspan><tspan class="line" dy="1.3em" x="0" y="0">5.86</tspan></text></g></g><g class="slice"><path class="surface" d="M240.2387745335892,97.40237141311934L229.67346816698654,56.752964266399175A210,210 0,0,0 166.36214431478,85.0371511524832L189.58971545182402,120.02972092198655A168,168 0,0,1 240.2387745335892,97.40237141311934Z" style="pointer-events: none; stroke-width: 1; fill: rgb(246, 250, 255); fill-opacity: 1; stroke: rgb(0, 0, 0); stroke-opacity: 1; opacity: 1;"/><g class="slicetext"><text data-notex="1" class="slicetext" text-anchor="middle" x="0" y="0" style="font-family: 'Times New Roman'; font-size: 12px; fill: rgb(0, 0, 0); fill-opacity: 1; white-space: pre;" transform="translate(205.40807893081927,83.63275657936231)"><tspan class="line" dy="0em" x="0" y="0">MA</tspan><tspan class="line" dy="1.3em" x="0" y="0">5.28</tspan></text></g></g></g></g><g class="glimages"/><defs id="topdefs-c8dc9a"><g class="clips"/></defs><g class="layer-above"><g class="imagelayer"/><g class="shapelayer"/></g><g class="infolayer"><g class="cb3608bb colorbar" transform="translate(10,50)"><rect class="cbbg" x="571.5" y="63" width="48.015625" height="295" style="fill: rgb(0, 0, 0); fill-opacity: 0; stroke: rgb(68, 68, 68); stroke-opacity: 1; stroke-width: 0;"/><g class="cbfills" transform="translate(0,93)"><rect class="cbfill gradient_filled" style="fill: url('#gc8dc9a-cb3608bb');" x="582" y="0" width="15" height="254"/></g><g class="cblines" transform="translate(0,93)"/><g class="cbaxis crisp" transform="translate(0,-50)"><g class="ycb3608bbtick"><text text-anchor="start" x="600.4" y="4.199999999999999" transform="translate(0,362.74000000000007)" style="font-family: 'Times New Roman'; font-size: 12px; fill: rgb(42, 63, 95); fill-opacity: 1; white-space: pre; opacity: 1;">10</text></g><g class="ycb3608bbtick"><text text-anchor="start" x="600.4" y="4.199999999999999" style="font-family: 'Times New Roman'; font-size: 12px; fill: rgb(42, 63, 95); fill-opacity: 1; white-space: pre; opacity: 1;" transform="translate(0,294.07000000000005)">20</text></g><g class="ycb3608bbtick"><text text-anchor="start" x="600.4" y="4.199999999999999" style="font-family: 'Times New Roman'; font-size: 12px; fill: rgb(42, 63, 95); fill-opacity: 1; white-space: pre; opacity: 1;" transform="translate(0,225.40000000000006)">30</text></g><g class="ycb3608bbtick"><text text-anchor="start" x="600.4" y="4.199999999999999" style="font-family: 'Times New Roman'; font-size: 12px; fill: rgb(42, 63, 95); fill-opacity: 1; white-space: pre; opacity: 1;" transform="translate(0,156.73000000000005)">40</text></g></g><g class="cbtitleunshift" transform="translate(-10,-50)"><g class="cbtitle" transform="translate(-0.5,-0.5)"><text class="ycb3608bbtitle" x="592.25" y="135.75" text-anchor="start" style="opacity: 1; font-family: 'Times New Roman'; font-size: 13px; fill: rgb(42, 63, 95); fill-opacity: 1; white-space: pre;">%</text></g></g><rect class="cboutline" x="582" y="93" width="15" height="254" style="stroke: rgb(68, 68, 68); stroke-opacity: 1; fill: none; stroke-width: 1;"/></g><g class="g-gtitle"><text class="gtitle" x="320" y="25" text-anchor="middle" dy="0em" style="opacity: 1; font-family: 'Times New Roman'; font-size: 16px; fill: rgb(42, 63, 95); fill-opacity: 1; white-space: pre;">Education Distribution by Category (2024) (%)</text></g></g></svg>