<svg class="main-svg" xmlns="http://www.w3.org/2000/svg" xmlns:xlink="http://www.w3.org/1999/xlink" width="1920" height="1440" style="" viewBox="0 0 640 480"><rect x="0" y="0" width="640" height="480" style="fill: rgb(255, 255, 255); fill-opacity: 1;"/><defs id="defs-036d04"><g class="clips"/><g class="gradients"><linearGradient x1="0" y1="1" x2="0" y2="0" gradientUnits="objectBoundingBox" id="g036d04-cbb0a057"><stop offset="0%" stop-color="rgb(252, 251, 253)" stop-opacity="1"/><stop offset="12.5%" stop-color="rgb(239, 237, 245)" stop-opacity="1"/><stop offset="25%" stop-color="rgb(218, 218, 235)" stop-opacity="1"/><stop offset="37.5%" stop-color="rgb(188, 189, 220)" stop-opacity="1"/><stop offset="50%" stop-color="rgb(158, 154, 200)" stop-opacity="1"/><stop offset="62.5%" stop-color="rgb(128, 125, 186)" stop-opacity="1"/><stop offset="75%" stop-color="rgb(106, 81, 163)" stop-opacity="1"/><stop offset="87.5%" stop-color="rgb(84, 39, 143)" stop-opacity="1"/><stop offset="100%" stop-color="rgb(63, 0, 125)" stop-opacity="1"/></linearGradient></g><g class="patterns"/></defs><g class="bglayer"/><g class="layer-below"><g class="imagelayer"/><g class="shapelayer"/></g><g class="cartesianlayer"/><g class="polarlayer"/><g class="smithlayer"/><g class="ternarylayer"/><g class="geolayer"/><g class="funnelarealayer"/><g class="pielayer"/><g class="iciclelayer"/><g class="treemaplayer"/><g class="sunburstlayer"><g class="trace sunburst" stroke-linejoin="round" style="opacity: 1;"><g class="slice"><path class="surface" d="M282.5,260A0,0 0,1,0 282.5,260A0,0 0,1,0 282.5,260ZM324.5,260A42,42 0,1,1 240.5,260A42,42 0,1,1 324.5,260Z" style="pointer-events: none; stroke-width: 1; fill: rgb(255, 255, 255); fill-opacity: 1; stroke: rgb(0, 0, 0); stroke-opacity: 1;"/><g class="slicetext"><text data-notex="1" class="slicetext" text-anchor="middle" x="0" y="0" style="font-family: 'Times New Roman'; font-size: 12px; fill: rgb(0, 0, 0); fill-opacity: 1; white-space: pre;" transform="translate(282.5,264)">99.99</text></g></g><g class="slice cursor-pointer"><path class="surface" d="M324.5,260L366.5,260A84,84 0,1,0 199.18585582583796,270.7123004311373L240.84292791291898,265.3561502155687A42,42 0,1,1 324.5,260Z" style="pointer-events: none; stroke-width: 1; fill: rgb(63, 0, 125); fill-opacity: 1; stroke: rgb(0, 0, 0); stroke-opacity: 1;"/><g class="slicetext"><text data-notex="1" class="slicetext" text-anchor="middle" x="0" y="0" style="font-family: 'Times New Roman'; font-size: 12px; fill: rgb(0, 0, 0); fill-opacity: 1; white-space: pre;" transform="translate(278.4779752514398,199.55606026830253)scale(0.9251734053456667)rotate(-3.6633663366336577)"><tspan class="line" dy="0em" x="0" y="0">Agricultural Inputs</tspan><tspan class="line" dy="1.3em" x="0" y="0">52.03</tspan></text></g></g><g class="slice cursor-pointer"><path class="surface" d="M240.84292791291898,265.3561502155687L199.18585582583796,270.7123004311373A84,84 0,0,0 288.55172062715866,343.78172042546527L285.52586031357936,301.8908602127326A42,42 0,0,1 240.84292791291898,265.3561502155687Z" style="pointer-events: none; stroke-width: 1; fill: rgb(181, 181, 215); fill-opacity: 1; stroke: rgb(0, 0, 0); stroke-opacity: 1;"/><g class="slicetext"><text data-notex="1" class="slicetext" text-anchor="middle" x="0" y="0" style="font-family: 'Times New Roman'; font-size: 12px; fill: rgb(0, 0, 0); fill-opacity: 1; white-space: pre;" transform="translate(246.63068512494323,303.86913628011763)rotate(39.27092709270926)"><tspan class="line" dy="0em" x="0" y="0">Livestock</tspan><tspan class="line" dy="1.3em" x="0" y="0">24.11</tspan></text></g></g><g class="slice cursor-pointer"><path class="surface" d="M285.52586031357936,301.8908602127326L288.55172062715866,343.78172042546527A84,84 0,0,0 366.5,260L324.5,260A42,42 0,0,1 285.52586031357936,301.8908602127326Z" style="pointer-events: none; stroke-width: 1; fill: rgb(182, 182, 216); fill-opacity: 1; stroke: rgb(0, 0, 0); stroke-opacity: 1;"/><g class="slicetext"><text data-notex="1" class="slicetext" text-anchor="middle" x="0" y="0" style="font-family: 'Times New Roman'; font-size: 12px; fill: rgb(0, 0, 0); fill-opacity: 1; white-space: pre;" transform="translate(323.16276670494796,297.8315542232117)scale(0.9500281747503418)rotate(-47.065706570657085)"><tspan class="line" dy="0em" x="0" y="0">Crop Production</tspan><tspan class="line" dy="1.3em" x="0" y="0">23.85</tspan></text></g></g><g class="slice cursor-pointer"><path class="surface" d="M366.5,260L408.5,260A126,126 0,0,0 164.15298288093334,216.75669370851315L203.6019885872889,231.17112913900877A84,84 0,0,1 366.5,260Z" style="pointer-events: none; stroke-width: 1; fill: rgb(91, 51, 149); fill-opacity: 1; stroke: rgb(0, 0, 0); stroke-opacity: 1;"/><g class="slicetext"><text data-notex="1" class="slicetext" text-anchor="middle" x="0" y="0" style="font-family: 'Times New Roman'; font-size: 12px; fill: rgb(0, 0, 0); fill-opacity: 1; white-space: pre;" transform="translate(300.6339702095793,152.80197616269456)"><tspan class="line" dy="0em" x="0" y="0">Seeds</tspan><tspan class="line" dy="1.3em" x="0" y="0">44.42</tspan></text></g></g><g class="slice cursor-pointer"><path class="surface" d="M203.6019885872889,231.17112913900877L164.15298288093334,216.75669370851315A126,126 0,0,0 157.52878373875697,276.06845064670597L199.18585582583796,270.7123004311373A84,84 0,0,1 203.6019885872889,231.17112913900877Z" style="pointer-events: none; stroke-width: 1; fill: rgb(246, 245, 250); fill-opacity: 1; stroke: rgb(0, 0, 0); stroke-opacity: 1;"/><g class="slicetext"><text data-notex="1" class="slicetext" text-anchor="middle" x="0" y="0" style="font-family: 'Times New Roman'; font-size: 12px; fill: rgb(0, 0, 0); fill-opacity: 1; white-space: pre;" transform="translate(169.97887035012678,247.5828195784838)scale(0.9066774989578485)rotate(-83.62736273627365)"><tspan class="line" dy="0em" x="0" y="0">Fertilizers</tspan><tspan class="line" dy="1.3em" x="0" y="0">7.61</tspan></text></g></g><g class="slice"><path class="surface" d="M199.18585582583796,270.7123004311373L157.52878373875697,276.06845064670597A126,126 0,0,0 291.577580940738,385.67258063819787L288.55172062715866,343.78172042546527A84,84 0,0,1 199.18585582583796,270.7123004311373Z" style="pointer-events: none; stroke-width: 1; fill: rgb(181, 181, 215); fill-opacity: 1; stroke: rgb(0, 0, 0); stroke-opacity: 1; opacity: 1;"/><g class="slicetext"><text data-notex="1" class="slicetext" text-anchor="middle" x="0" y="0" style="font-family: 'Times New Roman'; font-size: 12px; fill: rgb(0, 0, 0); fill-opacity: 1; white-space: pre;" transform="translate(216.0362462777407,337.482269886452)"><tspan class="line" dy="0em" x="0" y="0">Cattle</tspan><tspan class="line" dy="1.3em" x="0" y="0">24.11</tspan></text></g></g><g class="slice cursor-pointer"><path class="surface" d="M288.55172062715866,343.78172042546527L291.577580940738,385.67258063819787A126,126 0,0,0 387.72067667640204,329.31528835516787L352.647117784268,306.2101922367786A84,84 0,0,1 288.55172062715866,343.78172042546527Z" style="pointer-events: none; stroke-width: 1; fill: rgb(226, 225, 239); fill-opacity: 1; stroke: rgb(0, 0, 0); stroke-opacity: 1;"/><g class="slicetext"><text data-notex="1" class="slicetext" text-anchor="middle" x="0" y="0" style="font-family: 'Times New Roman'; font-size: 12px; fill: rgb(0, 0, 0); fill-opacity: 1; white-space: pre;" transform="translate(332.783120357675,346.105246480871)rotate(-30.378037803780444)"><tspan class="line" dy="0em" x="0" y="0">Oilseeds</tspan><tspan class="line" dy="1.3em" x="0" y="0">14.58</tspan></text></g></g><g class="slice"><path class="surface" d="M352.647117784268,306.2101922367786L387.72067667640204,329.31528835516787A126,126 0,0,0 408.5,260.00000000000006L366.5,260A84,84 0,0,1 352.647117784268,306.2101922367786Z" style="pointer-events: none; stroke-width: 1; fill: rgb(243, 241, 247); fill-opacity: 1; stroke: rgb(0, 0, 0); stroke-opacity: 1; opacity: 1;"/><g class="slicetext"><text data-notex="1" class="slicetext" text-anchor="middle" x="0" y="0" style="font-family: 'Times New Roman'; font-size: 12px; fill: rgb(0, 0, 0); fill-opacity: 1; white-space: pre;" transform="translate(378.4801561323459,288.94418797091305)rotate(-73.31233123312336)"><tspan class="line" dy="0em" x="0" y="0">Grains</tspan><tspan class="line" dy="1.3em" x="0" y="0">9.27</tspan></text></g></g><g class="slice cursor-pointer"><path class="surface" d="M408.5,260L450.5,260A168,168 0,0,0 281.10123923414614,92.0058231118712L281.45092942560956,134.00436733390342A126,126 0,0,1 408.5,260Z" style="pointer-events: none; stroke-width: 1; fill: rgb(176, 175, 212); fill-opacity: 1; stroke: rgb(0, 0, 0); stroke-opacity: 1;"/><g class="slicetext"><text data-notex="1" class="slicetext" text-anchor="middle" x="0" y="0" style="font-family: 'Times New Roman'; font-size: 12px; fill: rgb(0, 0, 0); fill-opacity: 1; white-space: pre;" transform="translate(386.8420232946992,154.55259125740483)rotate(44.76147614761476)"><tspan class="line" dy="0em" x="0" y="0">Hybrid Seeds</tspan><tspan class="line" dy="1.3em" x="0" y="0">25.13</tspan></text></g></g><g class="slice cursor-pointer"><path class="surface" d="M281.45092942560956,134.00436733390342L281.10123923414614,92.0058231118712A168,168 0,0,0 124.7039771745778,202.34225827801754L164.15298288093334,216.75669370851315A126,126 0,0,1 281.45092942560956,134.00436733390342Z" style="pointer-events: none; stroke-width: 1; fill: rgb(205, 206, 229); fill-opacity: 1; stroke: rgb(0, 0, 0); stroke-opacity: 1;"/><g class="slicetext"><text data-notex="1" class="slicetext" text-anchor="middle" x="0" y="0" style="font-family: 'Times New Roman'; font-size: 12px; fill: rgb(0, 0, 0); fill-opacity: 1; white-space: pre;" transform="translate(197.25967486146155,139.46001908239907)rotate(-35.20252025202524)"><tspan class="line" dy="0em" x="0" y="0">Heirloom Seeds</tspan><tspan class="line" dy="1.3em" x="0" y="0">19.29</tspan></text></g></g><g class="slice cursor-pointer"><path class="surface" d="M164.15298288093334,216.75669370851315L124.7039771745778,202.34225827801754A168,168 0,0,0 115.87171165167595,281.42460086227464L157.52878373875697,276.06845064670597A126,126 0,0,1 164.15298288093334,216.75669370851315Z" style="pointer-events: none; stroke-width: 1; fill: rgb(246, 245, 250); fill-opacity: 1; stroke: rgb(0, 0, 0); stroke-opacity: 1;"/><g class="slicetext"><text data-notex="1" class="slicetext" text-anchor="middle" x="0" y="0" style="font-family: 'Times New Roman'; font-size: 12px; fill: rgb(0, 0, 0); fill-opacity: 1; white-space: pre;" transform="translate(133.92906362638186,242.9038325305779)rotate(-83.62736273627365)"><tspan class="line" dy="0em" x="0" y="0">Nitrogen</tspan><tspan class="line" dy="1.3em" x="0" y="0">7.61</tspan></text></g></g><g class="slice"><path class="surface" d="M291.577580940738,385.67258063819787L294.6034412543173,427.56344085093053A168,168 0,0,0 386.4544052729508,391.975306873472L360.46580395471307,358.981480155104A126,126 0,0,1 291.577580940738,385.67258063819787Z" style="pointer-events: none; stroke-width: 1; fill: rgb(242, 241, 247); fill-opacity: 1; stroke: rgb(0, 0, 0); stroke-opacity: 1; opacity: 1;"/><g class="slicetext"><text data-notex="1" class="slicetext" text-anchor="middle" x="0" y="0" style="font-family: 'Times New Roman'; font-size: 12px; fill: rgb(0, 0, 0); fill-opacity: 1; white-space: pre;" transform="translate(333.8228902649899,392.46148140410327)rotate(-21.179117911791195)"><tspan class="line" dy="0em" x="0" y="0">Soybean</tspan><tspan class="line" dy="1.3em" x="0" y="0">9.47</tspan></text></g></g><g class="slice"><path class="surface" d="M360.46580395471307,358.981480155104L386.4544052729508,391.975306873472A168,168 0,0,0 422.794235568536,352.42038447355714L387.72067667640204,329.31528835516787A126,126 0,0,1 360.46580395471307,358.981480155104Z" style="pointer-events: none; stroke-width: 1; fill: rgb(252, 251, 253); fill-opacity: 1; stroke: rgb(0, 0, 0); stroke-opacity: 1; opacity: 1;"/><g class="slicetext"><text data-notex="1" class="slicetext" text-anchor="middle" x="0" y="0" style="font-family: 'Times New Roman'; font-size: 12px; fill: rgb(0, 0, 0); fill-opacity: 1; white-space: pre;" transform="translate(388.9114024691948,358.2182889032137)rotate(-47.425742574257356)"><tspan class="line" dy="0em" x="0" y="0">Canola</tspan><tspan class="line" dy="1.3em" x="0" y="0">5.11</tspan></text></g></g><g class="slice"><path class="surface" d="M450.5,260L492.5,260A210,210 0,0,0 379.3428215225587,73.66302589247127L359.974257218047,110.93042071397701A168,168 0,0,1 450.5,260Z" style="pointer-events: none; stroke-width: 1; fill: rgb(215, 215, 234); fill-opacity: 1; stroke: rgb(0, 0, 0); stroke-opacity: 1; opacity: 1;"/><g class="slicetext"><text data-notex="1" class="slicetext" text-anchor="middle" x="0" y="0" style="font-family: 'Times New Roman'; font-size: 12px; fill: rgb(0, 0, 0); fill-opacity: 1; white-space: pre;" transform="translate(445.15384336533515,161.03297289622753)rotate(58.73087308730874)"><tspan class="line" dy="0em" x="0" y="0">Maize Hybrids</tspan><tspan class="line" dy="1.3em" x="0" y="0">17.37</tspan></text></g></g><g class="slice"><path class="surface" d="M359.974257218047,110.93042071397701L379.3428215225587,73.66302589247127A210,210 0,0,0 280.7515490426826,50.007278889839L281.1012392341461,92.0058231118712A168,168 0,0,1 359.974257218047,110.93042071397701Z" style="pointer-events: none; stroke-width: 1; fill: rgb(246, 245, 249); fill-opacity: 1; stroke: rgb(0, 0, 0); stroke-opacity: 1; opacity: 1;"/><g class="slicetext"><text data-notex="1" class="slicetext" text-anchor="middle" x="0" y="0" style="font-family: 'Times New Roman'; font-size: 12px; fill: rgb(0, 0, 0); fill-opacity: 1; white-space: pre;" transform="translate(327.7334760128001,70.80723476393705)scale(0.9540713796571568)rotate(13.492349234923495)"><tspan class="line" dy="0em" x="0" y="0">Vegetable Hybrids</tspan><tspan class="line" dy="1.3em" x="0" y="0">7.76</tspan></text></g></g><g class="slice"><path class="surface" d="M281.10123923414614,92.0058231118712L280.75154904268265,50.007278889839A210,210 0,0,0 150.23762924446092,96.88450324348605L176.69010339556874,129.50760259478884A168,168 0,0,1 281.10123923414614,92.0058231118712Z" style="pointer-events: none; stroke-width: 1; fill: rgb(240, 238, 245); fill-opacity: 1; stroke: rgb(0, 0, 0); stroke-opacity: 1; opacity: 1;"/><g class="slicetext"><text data-notex="1" class="slicetext" text-anchor="middle" x="0" y="0" style="font-family: 'Times New Roman'; font-size: 12px; fill: rgb(0, 0, 0); fill-opacity: 1; white-space: pre;" transform="translate(217.48377273309885,80.46325902954864)rotate(-19.756975697569715)"><tspan class="line" dy="0em" x="0" y="0">Chili Pepper</tspan><tspan class="line" dy="1.3em" x="0" y="0">10.71</tspan></text></g></g><g class="slice"><path class="surface" d="M176.69010339556874,129.50760259478884L150.23762924446092,96.88450324348605A210,210 0,0,0 85.25497146822227,187.92782284752192L124.7039771745778,202.34225827801754A168,168 0,0,1 176.69010339556874,129.50760259478884Z" style="pointer-events: none; stroke-width: 1; fill: rgb(244, 243, 248); fill-opacity: 1; stroke: rgb(0, 0, 0); stroke-opacity: 1; opacity: 1;"/><g class="slicetext"><text data-notex="1" class="slicetext" text-anchor="middle" x="0" y="0" style="font-family: 'Times New Roman'; font-size: 12px; fill: rgb(0, 0, 0); fill-opacity: 1; white-space: pre;" transform="translate(126.17184301679627,148.41993931887217)rotate(-54.48244824482447)"><tspan class="line" dy="0em" x="0" y="0">Tomato</tspan><tspan class="line" dy="1.3em" x="0" y="0">8.58</tspan></text></g></g><g class="slice"><path class="surface" d="M124.7039771745778,202.34225827801754L85.25497146822227,187.92782284752192A210,210 0,0,0 74.21463956459496,286.7807510778433L115.87171165167595,281.42460086227464A168,168 0,0,1 124.7039771745778,202.34225827801754Z" style="pointer-events: none; stroke-width: 1; fill: rgb(246, 245, 250); fill-opacity: 1; stroke: rgb(0, 0, 0); stroke-opacity: 1; opacity: 1;"/><g class="slicetext"><text data-notex="1" class="slicetext" text-anchor="middle" x="0" y="0" style="font-family: 'Times New Roman'; font-size: 12px; fill: rgb(0, 0, 0); fill-opacity: 1; white-space: pre;" transform="translate(94.33188593377454,235.21738489991728)"><tspan class="line" dy="0em" x="0" y="0">Urea</tspan><tspan class="line" dy="1.3em" x="0" y="0">7.61</tspan></text></g></g></g></g><g class="glimages"/><defs id="topdefs-036d04"><g class="clips"/></defs><g class="layer-above"><g class="imagelayer"/><g class="shapelayer"/></g><g class="infolayer"><g class="cbb0a057 colorbar" transform="translate(10,50)"><rect class="cbbg" x="571.5" y="63" width="48.015625" height="295" style="fill: rgb(0, 0, 0); fill-opacity: 0; stroke: rgb(68, 68, 68); stroke-opacity: 1; stroke-width: 0;"/><g class="cbfills" transform="translate(0,93)"><rect class="cbfill gradient_filled" style="fill: url('#g036d04-cbb0a057');" x="582" y="0" width="15" height="254"/></g><g class="cblines" transform="translate(0,93)"/><g class="cbaxis crisp" transform="translate(0,-50)"><g class="ycbb0a057tick"><text text-anchor="start" x="600.4" y="4.199999999999999" transform="translate(0,370.5300000000001)" style="font-family: 'Times New Roman'; font-size: 12px; fill: rgb(42, 63, 95); fill-opacity: 1; white-space: pre; opacity: 1;">10</text></g><g class="ycbb0a057tick"><text text-anchor="start" x="600.4" y="4.199999999999999" style="font-family: 'Times New Roman'; font-size: 12px; fill: rgb(42, 63, 95); fill-opacity: 1; white-space: pre; opacity: 1;" transform="translate(0,316.39000000000004)">20</text></g><g class="ycbb0a057tick"><text text-anchor="start" x="600.4" y="4.199999999999999" style="font-family: 'Times New Roman'; font-size: 12px; fill: rgb(42, 63, 95); fill-opacity: 1; white-space: pre; opacity: 1;" transform="translate(0,262.26000000000005)">30</text></g><g class="ycbb0a057tick"><text text-anchor="start" x="600.4" y="4.199999999999999" style="font-family: 'Times New Roman'; font-size: 12px; fill: rgb(42, 63, 95); fill-opacity: 1; white-space: pre; opacity: 1;" transform="translate(0,208.12000000000006)">40</text></g><g class="ycbb0a057tick"><text text-anchor="start" x="600.4" y="4.199999999999999" style="font-family: 'Times New Roman'; font-size: 12px; fill: rgb(42, 63, 95); fill-opacity: 1; white-space: pre; opacity: 1;" transform="translate(0,153.99000000000007)">50</text></g></g><g class="cbtitleunshift" transform="translate(-10,-50)"><g class="cbtitle" transform="translate(-0.5,-0.5)"><text class="ycbb0a057title" x="592.25" y="135.75" text-anchor="start" style="opacity: 1; font-family: 'Times New Roman'; font-size: 13px; fill: rgb(42, 63, 95); fill-opacity: 1; white-space: pre;">%</text></g></g><rect class="cboutline" x="582" y="93" width="15" height="254" style="stroke: rgb(68, 68, 68); stroke-opacity: 1; fill: none; stroke-width: 1;"/></g><g class="g-gtitle"><text class="gtitle" x="320" y="25" text-anchor="middle" dy="0em" style="opacity: 1; font-family: 'Times New Roman'; font-size: 16px; fill: rgb(42, 63, 95); fill-opacity: 1; white-space: pre;">Agriculture Production Distribution by Category (2024) (%)</text></g></g></svg>