<svg class="main-svg" xmlns="http://www.w3.org/2000/svg" xmlns:xlink="http://www.w3.org/1999/xlink" width="1920" height="1440" style="" viewBox="0 0 640 480"><rect x="0" y="0" width="640" height="480" style="fill: rgb(255, 255, 255); fill-opacity: 1;"/><defs id="defs-6e314a"><g class="clips"/><g class="gradients"><linearGradient x1="0" y1="1" x2="0" y2="0" gradientUnits="objectBoundingBox" id="g6e314a-cbcd1815"><stop offset="0%" stop-color="rgb(247, 251, 255)" stop-opacity="1"/><stop offset="12.5%" stop-color="rgb(222, 235, 247)" stop-opacity="1"/><stop offset="25%" stop-color="rgb(198, 219, 239)" stop-opacity="1"/><stop offset="37.5%" stop-color="rgb(158, 202, 225)" stop-opacity="1"/><stop offset="50%" stop-color="rgb(107, 174, 214)" stop-opacity="1"/><stop offset="62.5%" stop-color="rgb(66, 146, 198)" stop-opacity="1"/><stop offset="75%" stop-color="rgb(33, 113, 181)" stop-opacity="1"/><stop offset="87.5%" stop-color="rgb(8, 81, 156)" stop-opacity="1"/><stop offset="100%" stop-color="rgb(8, 48, 107)" stop-opacity="1"/></linearGradient></g><g class="patterns"/></defs><g class="bglayer"/><g class="layer-below"><g class="imagelayer"/><g class="shapelayer"/></g><g class="cartesianlayer"/><g class="polarlayer"/><g class="smithlayer"/><g class="ternarylayer"/><g class="geolayer"/><g class="funnelarealayer"/><g class="pielayer"/><g class="iciclelayer"/><g class="treemaplayer"/><g class="sunburstlayer"><g class="trace sunburst" stroke-linejoin="round" style="opacity: 1;"><g class="slice"><path class="surface" d="M282.5,260A0,0 0,1,0 282.5,260A0,0 0,1,0 282.5,260ZM324.5,260A42,42 0,1,1 240.5,260A42,42 0,1,1 324.5,260Z" style="pointer-events: none; stroke-width: 1; fill: rgb(255, 255, 255); fill-opacity: 1; stroke: rgb(0, 0, 0); stroke-opacity: 1;"/><g class="slicetext"><text data-notex="1" class="slicetext" text-anchor="middle" x="0" y="0" style="font-family: 'Times New Roman'; font-size: 12px; fill: rgb(0, 0, 0); fill-opacity: 1; white-space: pre;" transform="translate(282.5,264)">100</text></g></g><g class="slice cursor-pointer"><path class="surface" d="M324.5,260L366.5,260A84,84 0,0,0 237.22349422873538,189.24663947808102L259.8617471143677,224.6233197390405A42,42 0,0,1 324.5,260Z" style="pointer-events: none; stroke-width: 1; fill: rgb(8, 48, 107); fill-opacity: 1; stroke: rgb(0, 0, 0); stroke-opacity: 1;"/><g class="slicetext"><text data-notex="1" class="slicetext" text-anchor="middle" x="0" y="0" style="font-family: 'Times New Roman'; font-size: 12px; fill: rgb(0, 0, 0); fill-opacity: 1; white-space: pre;" transform="translate(312.12616275207176,205.52703983830278)rotate(28.692000000000007)"><tspan class="line" dy="0em" x="0" y="0">Energy Sources</tspan><tspan class="line" dy="1.3em" x="0" y="0">34.06</tspan></text></g></g><g class="slice cursor-pointer"><path class="surface" d="M259.8617471143677,224.6233197390405L237.22349422873538,189.24663947808102A84,84 0,0,0 243.42730944149355,334.3594301519263L262.9636547207468,297.17971507596314A42,42 0,0,1 259.8617471143677,224.6233197390405Z" style="pointer-events: none; stroke-width: 1; fill: rgb(8, 56, 119); fill-opacity: 1; stroke: rgb(0, 0, 0); stroke-opacity: 1;"/><g class="slicetext"><text data-notex="1" class="slicetext" text-anchor="middle" x="0" y="0" style="font-family: 'Times New Roman'; font-size: 12px; fill: rgb(0, 0, 0); fill-opacity: 1; white-space: pre;" transform="translate(229.4848916379198,262.26648480974995)scale(0.8800076861931426)rotate(87.55200000000002)"><tspan class="line" dy="0em" x="0" y="0">Energy Consumption</tspan><tspan class="line" dy="1.3em" x="0" y="0">33.24</tspan></text></g></g><g class="slice cursor-pointer"><path class="surface" d="M262.9636547207468,297.17971507596314L243.42730944149355,334.3594301519263A84,84 0,0,0 366.5,259.9999999999999L324.5,259.99999999999994A42,42 0,0,1 262.9636547207468,297.17971507596314Z" style="pointer-events: none; stroke-width: 1; fill: rgb(8, 61, 126); fill-opacity: 1; stroke: rgb(0, 0, 0); stroke-opacity: 1;"/><g class="slicetext"><text data-notex="1" class="slicetext" text-anchor="middle" x="0" y="0" style="font-family: 'Times New Roman'; font-size: 12px; fill: rgb(0, 0, 0); fill-opacity: 1; white-space: pre;" transform="translate(309.92639743957983,305.3935770933094)scale(0.8773297843688436)rotate(-31.1400000000001)"><tspan class="line" dy="0em" x="0" y="0">Energy Infrastructure</tspan><tspan class="line" dy="1.3em" x="0" y="0">32.7</tspan></text></g></g><g class="slice cursor-pointer"><path class="surface" d="M366.5,260L408.5,260A126,126 0,0,0 288.1190733834108,134.12535595159824L286.24604892227387,176.08357063439882A84,84 0,0,1 366.5,260Z" style="pointer-events: none; stroke-width: 1; fill: rgb(60, 140, 195); fill-opacity: 1; stroke: rgb(0, 0, 0); stroke-opacity: 1;"/><g class="slicetext"><text data-notex="1" class="slicetext" text-anchor="middle" x="0" y="0" style="font-family: 'Times New Roman'; font-size: 12px; fill: rgb(0, 0, 0); fill-opacity: 1; white-space: pre;" transform="translate(359.172118191507,186.43636397700843)rotate(46.27800000000002)"><tspan class="line" dy="0em" x="0" y="0">Fossil Fuels</tspan><tspan class="line" dy="1.3em" x="0" y="0">24.29</tspan></text></g></g><g class="slice"><path class="surface" d="M286.24604892227387,176.08357063439882L288.1190733834108,134.12535595159824A126,126 0,0,0 214.58524134310306,153.86995921712153L237.22349422873538,189.24663947808102A84,84 0,0,1 286.24604892227387,176.08357063439882Z" style="pointer-events: none; stroke-width: 1; fill: rgb(223, 236, 247); fill-opacity: 1; stroke: rgb(0, 0, 0); stroke-opacity: 1; opacity: 1;"/><g class="slicetext"><text data-notex="1" class="slicetext" text-anchor="middle" x="0" y="0" style="font-family: 'Times New Roman'; font-size: 12px; fill: rgb(0, 0, 0); fill-opacity: 1; white-space: pre;" transform="translate(253.48008878067708,152.52982750832612)scale(0.9598032442412092)rotate(-15.029999999999973)"><tspan class="line" dy="0em" x="0" y="0">Renewables</tspan><tspan class="line" dy="1.3em" x="0" y="0">9.77</tspan></text></g></g><g class="slice cursor-pointer"><path class="surface" d="M237.22349422873538,189.24663947808102L214.58524134310306,153.86995921712153A126,126 0,0,0 180.42443829747666,333.8686652317094L214.44962553165112,309.2457768211396A84,84 0,0,1 237.22349422873538,189.24663947808102Z" style="pointer-events: none; stroke-width: 1; fill: rgb(45, 125, 187); fill-opacity: 1; stroke: rgb(0, 0, 0); stroke-opacity: 1;"/><g class="slicetext"><text data-notex="1" class="slicetext" text-anchor="middle" x="0" y="0" style="font-family: 'Times New Roman'; font-size: 12px; fill: rgb(0, 0, 0); fill-opacity: 1; white-space: pre;" transform="translate(177.3063719694031,240.377908062606)rotate(-79.25400000000002)"><tspan class="line" dy="0em" x="0" y="0">Industrial</tspan><tspan class="line" dy="1.3em" x="0" y="0">25.91</tspan></text></g></g><g class="slice"><path class="surface" d="M214.44962553165112,309.2457768211396L180.42443829747666,333.8686652317094A126,126 0,0,0 223.89096416224032,371.5391452278894L243.42730944149355,334.3594301519263A84,84 0,0,1 214.44962553165112,309.2457768211396Z" style="pointer-events: none; stroke-width: 1; fill: rgb(241, 247, 253); fill-opacity: 1; stroke: rgb(0, 0, 0); stroke-opacity: 1; opacity: 1;"/><g class="slicetext"><text data-notex="1" class="slicetext" text-anchor="middle" x="0" y="0" style="font-family: 'Times New Roman'; font-size: 12px; fill: rgb(0, 0, 0); fill-opacity: 1; white-space: pre;" transform="translate(211.38958845126433,341.63771067110434)scale(0.8068643748361913)rotate(40.91399999999999)"><tspan class="line" dy="0em" x="0" y="0">Residential</tspan><tspan class="line" dy="1.3em" x="0" y="0">7.33</tspan></text></g></g><g class="slice cursor-pointer"><path class="surface" d="M243.42730944149355,334.3594301519263L223.89096416224032,371.5391452278894A126,126 0,0,0 408.5,259.99999999999983L366.5,259.9999999999999A84,84 0,0,1 243.42730944149355,334.3594301519263Z" style="pointer-events: none; stroke-width: 1; fill: rgb(8, 61, 126); fill-opacity: 1; stroke: rgb(0, 0, 0); stroke-opacity: 1;"/><g class="slicetext"><text data-notex="1" class="slicetext" text-anchor="middle" x="0" y="0" style="font-family: 'Times New Roman'; font-size: 12px; fill: rgb(0, 0, 0); fill-opacity: 1; white-space: pre;" transform="translate(333.6768814828954,344.7031302637084)rotate(-31.1400000000001)"><tspan class="line" dy="0em" x="0" y="0">Generation</tspan><tspan class="line" dy="1.3em" x="0" y="0">32.7</tspan></text></g></g><g class="slice cursor-pointer"><path class="surface" d="M408.5,260L450.5,260A168,168 0,0,0 378.84162533380373,122.36900338934913L354.75621900035276,156.77675254201185A126,126 0,0,1 408.5,260Z" style="pointer-events: none; stroke-width: 1; fill: rgb(176, 210, 231); fill-opacity: 1; stroke: rgb(0, 0, 0); stroke-opacity: 1;"/><g class="slicetext"><text data-notex="1" class="slicetext" text-anchor="middle" x="0" y="0" style="font-family: 'Times New Roman'; font-size: 12px; fill: rgb(0, 0, 0); fill-opacity: 1; white-space: pre;" transform="translate(412.88585344768137,188.30916353926023)"><tspan class="line" dy="0em" x="0" y="0">Coal</tspan><tspan class="line" dy="1.3em" x="0" y="0">15.28</tspan></text></g></g><g class="slice"><path class="surface" d="M354.75621900035276,156.77675254201185L378.84162533380373,122.36900338934913A168,168 0,0,0 289.9920978445478,92.16714126879765L288.11907338341086,134.12535595159824A126,126 0,0,1 354.75621900035276,156.77675254201185Z" style="pointer-events: none; stroke-width: 1; fill: rgb(228, 239, 249); fill-opacity: 1; stroke: rgb(0, 0, 0); stroke-opacity: 1; opacity: 1;"/><g class="slicetext"><text data-notex="1" class="slicetext" text-anchor="middle" x="0" y="0" style="font-family: 'Times New Roman'; font-size: 12px; fill: rgb(0, 0, 0); fill-opacity: 1; white-space: pre;" transform="translate(329.80990467975573,117.01638838002981)"><tspan class="line" dy="0em" x="0" y="0">Oil</tspan><tspan class="line" dy="1.3em" x="0" y="0">9.01</tspan></text></g></g><g class="slice cursor-pointer"><path class="surface" d="M214.58524134310306,153.86995921712153L191.94698845747075,118.49327895616204A168,168 0,0,0 117.4757418775803,291.48006085040186L158.73180640818524,283.61004563780136A126,126 0,0,1 214.58524134310306,153.86995921712153Z" style="pointer-events: none; stroke-width: 1; fill: rgb(126, 185, 218); fill-opacity: 1; stroke: rgb(0, 0, 0); stroke-opacity: 1;"/><g class="slicetext"><text data-notex="1" class="slicetext" text-anchor="middle" x="0" y="0" style="font-family: 'Times New Roman'; font-size: 12px; fill: rgb(0, 0, 0); fill-opacity: 1; white-space: pre;" transform="translate(144.77290051146178,200.70813576372123)rotate(-66.70800000000008)"><tspan class="line" dy="0em" x="0" y="0">Mining</tspan><tspan class="line" dy="1.3em" x="0" y="0">18.94</tspan></text></g></g><g class="slice"><path class="surface" d="M158.73180640818524,283.61004563780136L117.4757418775803,291.48006085040186A168,168 0,0,0 146.39925106330224,358.4915536422792L180.42443829747668,333.86866523170943A126,126 0,0,1 158.73180640818524,283.61004563780136Z" style="pointer-events: none; stroke-width: 1; fill: rgb(243, 249, 254); fill-opacity: 1; stroke: rgb(0, 0, 0); stroke-opacity: 1; opacity: 1;"/><g class="slicetext"><text data-notex="1" class="slicetext" text-anchor="middle" x="0" y="0" style="font-family: 'Times New Roman'; font-size: 12px; fill: rgb(0, 0, 0); fill-opacity: 1; white-space: pre;" transform="translate(145.63012120369345,319.0757947880467)scale(0.8388263290018054)rotate(66.654)"><tspan class="line" dy="0em" x="0" y="0">Manufacturing</tspan><tspan class="line" dy="1.3em" x="0" y="0">6.97</tspan></text></g></g><g class="slice cursor-pointer"><path class="surface" d="M223.89096416224032,371.5391452278894L204.3546188829871,408.7188603038525A168,168 0,0,0 450.5,259.9999999999997L408.5,259.99999999999983A126,126 0,0,1 223.89096416224032,371.5391452278894Z" style="pointer-events: none; stroke-width: 1; fill: rgb(8, 61, 126); fill-opacity: 1; stroke: rgb(0, 0, 0); stroke-opacity: 1;"/><g class="slicetext"><text data-notex="1" class="slicetext" text-anchor="middle" x="0" y="0" style="font-family: 'Times New Roman'; font-size: 12px; fill: rgb(0, 0, 0); fill-opacity: 1; white-space: pre;" transform="translate(354.8936641388978,380.1363959246838)rotate(-31.1400000000001)"><tspan class="line" dy="0em" x="0" y="0">Thermal Plants</tspan><tspan class="line" dy="1.3em" x="0" y="0">32.7</tspan></text></g></g><g class="slice"><path class="surface" d="M450.5,260L492.5,260A210,210 0,0,0 461.0006383390057,149.37666560545432L425.3005106712046,171.50133248436345A168,168 0,0,1 450.5,260Z" style="pointer-events: none; stroke-width: 1; fill: rgb(230, 240, 249); fill-opacity: 1; stroke: rgb(0, 0, 0); stroke-opacity: 1; opacity: 1;"/><g class="slicetext"><text data-notex="1" class="slicetext" text-anchor="middle" x="0" y="0" style="font-family: 'Times New Roman'; font-size: 12px; fill: rgb(0, 0, 0); fill-opacity: 1; white-space: pre;" transform="translate(465.46413961783026,207.90200786879518)rotate(74.106)"><tspan class="line" dy="0em" x="0" y="0">Surface Mining</tspan><tspan class="line" dy="1.3em" x="0" y="0">8.83</tspan></text></g></g><g class="slice"><path class="surface" d="M425.3005106712046,171.50133248436345L461.0006383390057,149.37666560545432A210,210 0,0,0 402.9270316672546,87.96125423668641L378.8416253338037,122.36900338934913A168,168 0,0,1 425.3005106712046,171.50133248436345Z" style="pointer-events: none; stroke-width: 1; fill: rgb(247, 251, 255); fill-opacity: 1; stroke: rgb(0, 0, 0); stroke-opacity: 1; opacity: 1;"/><g class="slicetext"><text data-notex="1" class="slicetext" text-anchor="middle" x="0" y="0" style="font-family: 'Times New Roman'; font-size: 12px; fill: rgb(0, 0, 0); fill-opacity: 1; white-space: pre;" transform="translate(426.6097527987471,123.73170976017155)scale(0.7214678484049881)rotate(46.601999999999975)"><tspan class="line" dy="0em" x="0" y="0">Underground Mining</tspan><tspan class="line" dy="1.3em" x="0" y="0">6.45</tspan></text></g></g><g class="slice"><path class="surface" d="M191.94698845747075,118.49327895616204L169.30873557183844,83.11659869520255A210,210 0,0,0 82.41436234380208,196.23686328518122L122.43148987504165,208.98949062814495A168,168 0,0,1 191.94698845747075,118.49327895616204Z" style="pointer-events: none; stroke-width: 1; fill: rgb(214, 230, 244); fill-opacity: 1; stroke: rgb(0, 0, 0); stroke-opacity: 1; opacity: 1;"/><g class="slicetext"><text data-notex="1" class="slicetext" text-anchor="middle" x="0" y="0" style="font-family: 'Times New Roman'; font-size: 12px; fill: rgb(0, 0, 0); fill-opacity: 1; white-space: pre;" transform="translate(131.55168925193271,144.0476646706308)rotate(-52.47000000000003)"><tspan class="line" dy="0em" x="0" y="0">Ore Processing</tspan><tspan class="line" dy="1.3em" x="0" y="0">11.03</tspan></text></g></g><g class="slice"><path class="surface" d="M122.43148987504165,208.98949062814495L82.41436234380208,196.23686328518122A210,210 0,0,0 76.2196773469754,299.3500760630023L117.4757418775803,291.48006085040186A168,168 0,0,1 122.43148987504165,208.98949062814495Z" style="pointer-events: none; stroke-width: 1; fill: rgb(236, 244, 252); fill-opacity: 1; stroke: rgb(0, 0, 0); stroke-opacity: 1; opacity: 1;"/><g class="slicetext"><text data-notex="1" class="slicetext" text-anchor="middle" x="0" y="0" style="font-family: 'Times New Roman'; font-size: 12px; fill: rgb(0, 0, 0); fill-opacity: 1; white-space: pre;" transform="translate(88.89305479388388,248.53228979838275)scale(0.9949304843733302)rotate(-86.56200000000001)"><tspan class="line" dy="0em" x="0" y="0">Pumping Systems</tspan><tspan class="line" dy="1.3em" x="0" y="0">7.91</tspan></text></g></g><g class="slice"><path class="surface" d="M204.3546188829871,408.7188603038525L184.81827360373387,445.8985753798156A210,210 0,0,0 492.5,259.99999999999966L450.5,259.9999999999997A168,168 0,0,1 204.3546188829871,408.7188603038525Z" style="pointer-events: none; stroke-width: 1; fill: rgb(8, 61, 126); fill-opacity: 1; stroke: rgb(0, 0, 0); stroke-opacity: 1; opacity: 1;"/><g class="slicetext"><text data-notex="1" class="slicetext" text-anchor="middle" x="0" y="0" style="font-family: 'Times New Roman'; font-size: 12px; fill: rgb(0, 0, 0); fill-opacity: 1; white-space: pre;" transform="translate(376.9917202588604,416.71100680107196)rotate(-31.1400000000001)"><tspan class="line" dy="0em" x="0" y="0">Steam Boilers</tspan><tspan class="line" dy="1.3em" x="0" y="0">32.7</tspan></text></g></g></g></g><g class="glimages"/><defs id="topdefs-6e314a"><g class="clips"/></defs><g class="layer-above"><g class="imagelayer"/><g class="shapelayer"/></g><g class="infolayer"><g class="cbcd1815 colorbar" transform="translate(10,50)"><rect class="cbbg" x="571.5" y="63" width="48.015625" height="295" style="fill: rgb(0, 0, 0); fill-opacity: 0; stroke: rgb(68, 68, 68); stroke-opacity: 1; stroke-width: 0;"/><g class="cbfills" transform="translate(0,93)"><rect class="cbfill gradient_filled" style="fill: url('#g6e314a-cbcd1815');" x="582" y="0" width="15" height="254"/></g><g class="cblines" transform="translate(0,93)"/><g class="cbaxis crisp" transform="translate(0,-50)"><g class="ycbcd1815tick"><text text-anchor="start" x="600.4" y="4.199999999999999" transform="translate(0,364.34000000000003)" style="font-family: 'Times New Roman'; font-size: 12px; fill: rgb(42, 63, 95); fill-opacity: 1; white-space: pre; opacity: 1;">10</text></g><g class="ycbcd1815tick"><text text-anchor="start" x="600.4" y="4.199999999999999" style="font-family: 'Times New Roman'; font-size: 12px; fill: rgb(42, 63, 95); fill-opacity: 1; white-space: pre; opacity: 1;" transform="translate(0,318.34000000000003)">15</text></g><g class="ycbcd1815tick"><text text-anchor="start" x="600.4" y="4.199999999999999" style="font-family: 'Times New Roman'; font-size: 12px; fill: rgb(42, 63, 95); fill-opacity: 1; white-space: pre; opacity: 1;" transform="translate(0,272.35)">20</text></g><g class="ycbcd1815tick"><text text-anchor="start" x="600.4" y="4.199999999999999" style="font-family: 'Times New Roman'; font-size: 12px; fill: rgb(42, 63, 95); fill-opacity: 1; white-space: pre; opacity: 1;" transform="translate(0,226.35000000000005)">25</text></g><g class="ycbcd1815tick"><text text-anchor="start" x="600.4" y="4.199999999999999" style="font-family: 'Times New Roman'; font-size: 12px; fill: rgb(42, 63, 95); fill-opacity: 1; white-space: pre; opacity: 1;" transform="translate(0,180.35000000000005)">30</text></g></g><g class="cbtitleunshift" transform="translate(-10,-50)"><g class="cbtitle" transform="translate(-0.5,-0.5)"><text class="ycbcd1815title" x="592.25" y="135.75" text-anchor="start" style="opacity: 1; font-family: 'Times New Roman'; font-size: 13px; fill: rgb(42, 63, 95); fill-opacity: 1; white-space: pre;">%</text></g></g><rect class="cboutline" x="582" y="93" width="15" height="254" style="stroke: rgb(68, 68, 68); stroke-opacity: 1; fill: none; stroke-width: 1;"/></g><g class="g-gtitle"><text class="gtitle" x="320" y="25" text-anchor="middle" dy="0em" style="opacity: 1; font-family: 'Times New Roman'; font-size: 16px; fill: rgb(42, 63, 95); fill-opacity: 1; white-space: pre;">Energy Distribution by Category (2020) (%)</text></g></g></svg>