<svg class="main-svg" xmlns="http://www.w3.org/2000/svg" xmlns:xlink="http://www.w3.org/1999/xlink" width="1920" height="1440" style="" viewBox="0 0 640 480"><rect x="0" y="0" width="640" height="480" style="fill: rgb(255, 255, 255); fill-opacity: 1;"/><defs id="defs-23e826"><g class="clips"/><g class="gradients"><linearGradient x1="0" y1="1" x2="0" y2="0" gradientUnits="objectBoundingBox" id="g23e826-cbf0c5be"><stop offset="0%" stop-color="rgb(255, 255, 217)" stop-opacity="1"/><stop offset="12.5%" stop-color="rgb(237, 248, 177)" stop-opacity="1"/><stop offset="25%" stop-color="rgb(199, 233, 180)" stop-opacity="1"/><stop offset="37.5%" stop-color="rgb(127, 205, 187)" stop-opacity="1"/><stop offset="50%" stop-color="rgb(65, 182, 196)" stop-opacity="1"/><stop offset="62.5%" stop-color="rgb(29, 145, 192)" stop-opacity="1"/><stop offset="75%" stop-color="rgb(34, 94, 168)" stop-opacity="1"/><stop offset="87.5%" stop-color="rgb(37, 52, 148)" stop-opacity="1"/><stop offset="100%" stop-color="rgb(8, 29, 88)" stop-opacity="1"/></linearGradient></g><g class="patterns"/></defs><g class="bglayer"/><g class="layer-below"><g class="imagelayer"/><g class="shapelayer"/></g><g class="cartesianlayer"/><g class="polarlayer"/><g class="smithlayer"/><g class="ternarylayer"/><g class="geolayer"/><g class="funnelarealayer"/><g class="pielayer"/><g class="iciclelayer"/><g class="treemaplayer"/><g class="sunburstlayer"><g class="trace sunburst" stroke-linejoin="round" style="opacity: 1;"><g class="slice"><path class="surface" d="M282.5,260A0,0 0,1,0 282.5,260A0,0 0,1,0 282.5,260ZM324.5,260A42,42 0,1,1 240.5,260A42,42 0,1,1 324.5,260Z" style="pointer-events: none; stroke-width: 1; fill: rgb(255, 255, 255); fill-opacity: 1; stroke: rgb(0, 0, 0); stroke-opacity: 1;"/><g class="slicetext"><text data-notex="1" class="slicetext" text-anchor="middle" x="0" y="0" style="font-family: 'Times New Roman'; font-size: 12px; fill: rgb(0, 0, 0); fill-opacity: 1; white-space: pre;" transform="translate(282.5,264)">100</text></g></g><g class="slice cursor-pointer"><path class="surface" d="M324.5,260L366.5,260A84,84 0,1,0 201.02218606534325,280.4295334364115L241.76109303267162,270.21476671820574A42,42 0,1,1 324.5,260Z" style="pointer-events: none; stroke-width: 1; fill: rgb(8, 29, 88); fill-opacity: 1; stroke: rgb(0, 0, 0); stroke-opacity: 1;"/><g class="slicetext"><text data-notex="1" class="slicetext" text-anchor="middle" x="0" y="0" style="font-family: 'Times New Roman'; font-size: 12px; fill: rgb(0, 0, 0); fill-opacity: 1; white-space: pre;" transform="translate(275.17777000610306,200.6904413021349)scale(0.8800076861931426)rotate(-7.038000000000011)"><tspan class="line" dy="0em" x="0" y="0">Energy Consumption</tspan><tspan class="line" dy="1.3em" x="0" y="0">53.91</tspan></text></g></g><g class="slice cursor-pointer"><path class="surface" d="M241.76109303267162,270.21476671820574L201.02218606534325,280.4295334364115A84,84 0,0,0 299.7408074433303,342.2116449093558L291.1204037216652,301.1058224546779A42,42 0,0,1 241.76109303267162,270.21476671820574Z" style="pointer-events: none; stroke-width: 1; fill: rgb(117, 201, 189); fill-opacity: 1; stroke: rgb(0, 0, 0); stroke-opacity: 1;"/><g class="slicetext"><text data-notex="1" class="slicetext" text-anchor="middle" x="0" y="0" style="font-family: 'Times New Roman'; font-size: 12px; fill: rgb(0, 0, 0); fill-opacity: 1; white-space: pre;" transform="translate(253.38189737562035,306.21783855679547)scale(0.997746995716838)rotate(32.039999999999964)"><tspan class="line" dy="0em" x="0" y="0">Energy Sources</tspan><tspan class="line" dy="1.3em" x="0" y="0">24.38</tspan></text></g></g><g class="slice cursor-pointer"><path class="surface" d="M291.1204037216652,301.1058224546779L299.7408074433303,342.2116449093558A84,84 0,0,0 366.5,260L324.5,260A42,42 0,0,1 291.1204037216652,301.1058224546779Z" style="pointer-events: none; stroke-width: 1; fill: rgb(146, 213, 185); fill-opacity: 1; stroke: rgb(0, 0, 0); stroke-opacity: 1;"/><g class="slicetext"><text data-notex="1" class="slicetext" text-anchor="middle" x="0" y="0" style="font-family: 'Times New Roman'; font-size: 12px; fill: rgb(0, 0, 0); fill-opacity: 1; white-space: pre;" transform="translate(328.7683568300214,297.5717837333356)scale(0.7400583764135304)rotate(-50.922000000000025)"><tspan class="line" dy="0em" x="0" y="0">Energy Infrastructure</tspan><tspan class="line" dy="1.3em" x="0" y="0">21.71</tspan></text></g></g><g class="slice"><path class="surface" d="M366.5,260L408.5,260A126,126 0,1,0 160.28327909801487,290.64430015461716L201.02218606534325,280.4295334364115A84,84 0,1,1 366.5,260Z" style="pointer-events: none; stroke-width: 1; fill: rgb(8, 29, 88); fill-opacity: 1; stroke: rgb(0, 0, 0); stroke-opacity: 1; opacity: 1;"/><g class="slicetext"><text data-notex="1" class="slicetext" text-anchor="middle" x="0" y="0" style="font-family: 'Times New Roman'; font-size: 12px; fill: rgb(0, 0, 0); fill-opacity: 1; white-space: pre;" transform="translate(269.0552172434127,153.8399148132063)rotate(-7.038000000000011)"><tspan class="line" dy="0em" x="0" y="0">Industrial</tspan><tspan class="line" dy="1.3em" x="0" y="0">53.91</tspan></text></g></g><g class="slice cursor-pointer"><path class="surface" d="M201.02218606534325,280.4295334364115L160.28327909801487,290.64430015461716A126,126 0,0,0 263.18032124914305,384.51003980789534L269.62021416609537,343.00669320526356A84,84 0,0,1 201.02218606534325,280.4295334364115Z" style="pointer-events: none; stroke-width: 1; fill: rgb(183, 227, 182); fill-opacity: 1; stroke: rgb(0, 0, 0); stroke-opacity: 1;"/><g class="slicetext"><text data-notex="1" class="slicetext" text-anchor="middle" x="0" y="0" style="font-family: 'Times New Roman'; font-size: 12px; fill: rgb(0, 0, 0); fill-opacity: 1; white-space: pre;" transform="translate(215.91074614309048,332.7527089374905)rotate(42.37199999999996)"><tspan class="line" dy="0em" x="0" y="0">Renewables</tspan><tspan class="line" dy="1.3em" x="0" y="0">18.64</tspan></text></g></g><g class="slice cursor-pointer"><path class="surface" d="M269.62021416609537,343.00669320526356L263.18032124914305,384.51003980789534A126,126 0,0,0 308.3612111649956,383.31746736403363L299.74080744333037,342.21164490935575A84,84 0,0,1 269.62021416609537,343.00669320526356Z" style="pointer-events: none; stroke-width: 1; fill: rgb(253, 254, 212); fill-opacity: 1; stroke: rgb(0, 0, 0); stroke-opacity: 1;"/><g class="slicetext"><text data-notex="1" class="slicetext" text-anchor="middle" x="0" y="0" style="font-family: 'Times New Roman'; font-size: 12px; fill: rgb(0, 0, 0); fill-opacity: 1; white-space: pre;" transform="translate(287.85535323597605,364.5551638638285)scale(0.6819648326139088)rotate(88.48799999999994)"><tspan class="line" dy="0em" x="0" y="0">Fossil Fuels</tspan><tspan class="line" dy="1.3em" x="0" y="0">5.74</tspan></text></g></g><g class="slice cursor-pointer"><path class="surface" d="M299.7408074433303,342.2116449093558L308.3612111649955,383.3174673640337A126,126 0,0,0 402.06115376979545,299.7634318090797L362.2074358465303,286.5089545393865A84,84 0,0,1 299.7408074433303,342.2116449093558Z" style="pointer-events: none; stroke-width: 1; fill: rgb(203, 235, 180); fill-opacity: 1; stroke: rgb(0, 0, 0); stroke-opacity: 1;"/><g class="slicetext"><text data-notex="1" class="slicetext" text-anchor="middle" x="0" y="0" style="font-family: 'Times New Roman'; font-size: 12px; fill: rgb(0, 0, 0); fill-opacity: 1; white-space: pre;" transform="translate(347.8718111488128,333.30986363413774)rotate(-41.72399999999993)"><tspan class="line" dy="0em" x="0" y="0">Transmission</tspan><tspan class="line" dy="1.3em" x="0" y="0">16.6</tspan></text></g></g><g class="slice"><path class="surface" d="M362.2074358465303,286.5089545393865L402.06115376979545,299.7634318090797A126,126 0,0,0 408.5,260.00000000000006L366.5,260A84,84 0,0,1 362.2074358465303,286.5089545393865Z" style="pointer-events: none; stroke-width: 1; fill: rgb(255, 255, 216); fill-opacity: 1; stroke: rgb(0, 0, 0); stroke-opacity: 1; opacity: 1;"/><g class="slicetext"><text data-notex="1" class="slicetext" text-anchor="middle" x="0" y="0" style="font-family: 'Times New Roman'; font-size: 12px; fill: rgb(0, 0, 0); fill-opacity: 1; white-space: pre;" transform="translate(386.34104349162567,273.9592866190213)scale(0.7408900974542514)rotate(9.197999999999979)"><tspan class="line" dy="0em" x="0" y="0">Generation</tspan><tspan class="line" dy="1.3em" x="0" y="0">5.11</tspan></text></g></g><g class="slice"><path class="surface" d="M160.28327909801487,290.64430015461716L119.5443721306865,300.8590668728229A168,168 0,0,0 173.8751014440137,388.158618179589L201.03132608301027,356.1189636346918A126,126 0,0,1 160.28327909801487,290.64430015461716Z" style="pointer-events: none; stroke-width: 1; fill: rgb(241, 249, 185); fill-opacity: 1; stroke: rgb(0, 0, 0); stroke-opacity: 1; opacity: 1;"/><g class="slicetext"><text data-notex="1" class="slicetext" text-anchor="middle" x="0" y="0" style="font-family: 'Times New Roman'; font-size: 12px; fill: rgb(0, 0, 0); fill-opacity: 1; white-space: pre;" transform="translate(157.19573910521302,333.86703491238086)"><tspan class="line" dy="0em" x="0" y="0">Solar</tspan><tspan class="line" dy="1.3em" x="0" y="0">9.9</tspan></text></g></g><g class="slice"><path class="surface" d="M201.03132608301027,356.1189636346918L173.8751014440137,388.158618179589A168,168 0,0,0 256.7404283321907,426.0133864105271L263.18032124914305,384.51003980789534A126,126 0,0,1 201.03132608301027,356.1189636346918Z" style="pointer-events: none; stroke-width: 1; fill: rgb(244, 251, 193); fill-opacity: 1; stroke: rgb(0, 0, 0); stroke-opacity: 1; opacity: 1;"/><g class="slicetext"><text data-notex="1" class="slicetext" text-anchor="middle" x="0" y="0" style="font-family: 'Times New Roman'; font-size: 12px; fill: rgb(0, 0, 0); fill-opacity: 1; white-space: pre;" transform="translate(221.41871781815976,389.904238780269)"><tspan class="line" dy="0em" x="0" y="0">Wind</tspan><tspan class="line" dy="1.3em" x="0" y="0">8.74</tspan></text></g></g><g class="slice"><path class="surface" d="M263.18032124914305,384.51003980789534L256.7404283321907,426.0133864105271A168,168 0,0,0 316.9816148866608,424.4232898187115L308.3612111649956,383.31746736403363A126,126 0,0,1 263.18032124914305,384.51003980789534Z" style="pointer-events: none; stroke-width: 1; fill: rgb(253, 254, 212); fill-opacity: 1; stroke: rgb(0, 0, 0); stroke-opacity: 1; opacity: 1;"/><g class="slicetext"><text data-notex="1" class="slicetext" text-anchor="middle" x="0" y="0" style="font-family: 'Times New Roman'; font-size: 12px; fill: rgb(0, 0, 0); fill-opacity: 1; white-space: pre;" transform="translate(286.050663374497,403.1441301228236)"><tspan class="line" dy="0em" x="0" y="0">Coal</tspan><tspan class="line" dy="1.3em" x="0" y="0">5.74</tspan></text></g></g><g class="slice cursor-pointer"><path class="surface" d="M308.3612111649955,383.3174673640337L316.9816148866606,424.4232898187116A168,168 0,0,0 408.86706942677074,370.70394647206444L377.27530207007806,343.02795985404833A126,126 0,0,1 308.3612111649955,383.3174673640337Z" style="pointer-events: none; stroke-width: 1; fill: rgb(240, 249, 183); fill-opacity: 1; stroke: rgb(0, 0, 0); stroke-opacity: 1;"/><g class="slicetext"><text data-notex="1" class="slicetext" text-anchor="middle" x="0" y="0" style="font-family: 'Times New Roman'; font-size: 12px; fill: rgb(0, 0, 0); fill-opacity: 1; white-space: pre;" transform="translate(355.2671848022674,384.7659242928396)scale(0.9218572458144104)rotate(-30.312000000000012)"><tspan class="line" dy="0em" x="0" y="0">High Voltage Lines</tspan><tspan class="line" dy="1.3em" x="0" y="0">10.26</tspan></text></g></g><g class="slice"><path class="surface" d="M377.27530207007806,343.02795985404833L408.86706942677074,370.70394647206444A168,168 0,0,0 441.9148716930606,313.0179090787729L402.06115376979545,299.7634318090797A126,126 0,0,1 377.27530207007806,343.02795985404833Z" style="pointer-events: none; stroke-width: 1; fill: rgb(251, 253, 208); fill-opacity: 1; stroke: rgb(0, 0, 0); stroke-opacity: 1; opacity: 1;"/><g class="slicetext"><text data-notex="1" class="slicetext" text-anchor="middle" x="0" y="0" style="font-family: 'Times New Roman'; font-size: 12px; fill: rgb(0, 0, 0); fill-opacity: 1; white-space: pre;" transform="translate(411.02640010405366,333.80429232915924)scale(0.9133535954010804)rotate(-60.19200000000001)"><tspan class="line" dy="0em" x="0" y="0">Smart Grids</tspan><tspan class="line" dy="1.3em" x="0" y="0">6.34</tspan></text></g></g><g class="slice"><path class="surface" d="M316.9816148866606,424.4232898187116L325.6020186083258,465.5291122733895A210,210 0,0,0 389.7392239016689,440.55400537503374L368.2913791213351,404.443204300027A168,168 0,0,1 316.9816148866606,424.4232898187116Z" style="pointer-events: none; stroke-width: 1; fill: rgb(254, 255, 216); fill-opacity: 1; stroke: rgb(0, 0, 0); stroke-opacity: 1; opacity: 1;"/><g class="slicetext"><text data-notex="1" class="slicetext" text-anchor="middle" x="0" y="0" style="font-family: 'Times New Roman'; font-size: 12px; fill: rgb(0, 0, 0); fill-opacity: 1; white-space: pre;" transform="translate(349.89287510492414,433.52009058960965)rotate(-21.276000000000067)"><tspan class="line" dy="0em" x="0" y="0">DC Lines</tspan><tspan class="line" dy="1.3em" x="0" y="0">5.24</tspan></text></g></g><g class="slice"><path class="surface" d="M368.2913791213351,404.443204300027L389.7392239016689,440.55400537503374A210,210 0,0,0 440.4588367834634,398.3799330900805L408.86706942677074,370.70394647206444A168,168 0,0,1 368.2913791213351,404.443204300027Z" style="pointer-events: none; stroke-width: 1; fill: rgb(255, 255, 217); fill-opacity: 1; stroke: rgb(0, 0, 0); stroke-opacity: 1; opacity: 1;"/><g class="slicetext"><text data-notex="1" class="slicetext" text-anchor="middle" x="0" y="0" style="font-family: 'Times New Roman'; font-size: 12px; fill: rgb(0, 0, 0); fill-opacity: 1; white-space: pre;" transform="translate(401.8781822946747,403.82384569839)rotate(-39.74400000000003)"><tspan class="line" dy="0em" x="0" y="0">AC Lines</tspan><tspan class="line" dy="1.3em" x="0" y="0">5.02</tspan></text></g></g></g></g><g class="glimages"/><defs id="topdefs-23e826"><g class="clips"/></defs><g class="layer-above"><g class="imagelayer"/><g class="shapelayer"/></g><g class="infolayer"><g class="cbf0c5be colorbar" transform="translate(10,50)"><rect class="cbbg" x="571.5" y="63" width="48.015625" height="295" style="fill: rgb(0, 0, 0); fill-opacity: 0; stroke: rgb(68, 68, 68); stroke-opacity: 1; stroke-width: 0;"/><g class="cbfills" transform="translate(0,93)"><rect class="cbfill gradient_filled" style="fill: url('#g23e826-cbf0c5be');" x="582" y="0" width="15" height="254"/></g><g class="cblines" transform="translate(0,93)"/><g class="cbaxis crisp" transform="translate(0,-50)"><g class="ycbf0c5betick"><text text-anchor="start" x="600.4" y="4.199999999999999" transform="translate(0,371.13000000000005)" style="font-family: 'Times New Roman'; font-size: 12px; fill: rgb(42, 63, 95); fill-opacity: 1; white-space: pre; opacity: 1;">10</text></g><g class="ycbf0c5betick"><text text-anchor="start" x="600.4" y="4.199999999999999" style="font-family: 'Times New Roman'; font-size: 12px; fill: rgb(42, 63, 95); fill-opacity: 1; white-space: pre; opacity: 1;" transform="translate(0,319.1700000000001)">20</text></g><g class="ycbf0c5betick"><text text-anchor="start" x="600.4" y="4.199999999999999" style="font-family: 'Times New Roman'; font-size: 12px; fill: rgb(42, 63, 95); fill-opacity: 1; white-space: pre; opacity: 1;" transform="translate(0,267.22)">30</text></g><g class="ycbf0c5betick"><text text-anchor="start" x="600.4" y="4.199999999999999" style="font-family: 'Times New Roman'; font-size: 12px; fill: rgb(42, 63, 95); fill-opacity: 1; white-space: pre; opacity: 1;" transform="translate(0,215.27000000000004)">40</text></g><g class="ycbf0c5betick"><text text-anchor="start" x="600.4" y="4.199999999999999" style="font-family: 'Times New Roman'; font-size: 12px; fill: rgb(42, 63, 95); fill-opacity: 1; white-space: pre; opacity: 1;" transform="translate(0,163.31000000000006)">50</text></g></g><g class="cbtitleunshift" transform="translate(-10,-50)"><g class="cbtitle" transform="translate(-0.5,-0.5)"><text class="ycbf0c5betitle" x="592.25" y="135.75" text-anchor="start" style="opacity: 1; font-family: 'Times New Roman'; font-size: 13px; fill: rgb(42, 63, 95); fill-opacity: 1; white-space: pre;">%</text></g></g><rect class="cboutline" x="582" y="93" width="15" height="254" style="stroke: rgb(68, 68, 68); stroke-opacity: 1; fill: none; stroke-width: 1;"/></g><g class="g-gtitle"><text class="gtitle" x="320" y="25" text-anchor="middle" dy="0em" style="opacity: 1; font-family: 'Times New Roman'; font-size: 16px; fill: rgb(42, 63, 95); fill-opacity: 1; white-space: pre;">Energy Distribution by Category (2020) (%)</text></g></g></svg>