<svg class="main-svg" xmlns="http://www.w3.org/2000/svg" xmlns:xlink="http://www.w3.org/1999/xlink" width="1920" height="1440" style="" viewBox="0 0 640 480"><rect x="0" y="0" width="640" height="480" style="fill: rgb(255, 255, 255); fill-opacity: 1;"/><defs id="defs-c57770"><g class="clips"/><g class="gradients"><linearGradient x1="0" y1="1" x2="0" y2="0" gradientUnits="objectBoundingBox" id="gc57770-cbc82fc3"><stop offset="0%" stop-color="rgb(255, 245, 235)" stop-opacity="1"/><stop offset="12.5%" stop-color="rgb(254, 230, 206)" stop-opacity="1"/><stop offset="25%" stop-color="rgb(253, 208, 162)" stop-opacity="1"/><stop offset="37.5%" stop-color="rgb(253, 174, 107)" stop-opacity="1"/><stop offset="50%" stop-color="rgb(253, 141, 60)" stop-opacity="1"/><stop offset="62.5%" stop-color="rgb(241, 105, 19)" stop-opacity="1"/><stop offset="75%" stop-color="rgb(217, 72, 1)" stop-opacity="1"/><stop offset="87.5%" stop-color="rgb(166, 54, 3)" stop-opacity="1"/><stop offset="100%" stop-color="rgb(127, 39, 4)" stop-opacity="1"/></linearGradient></g><g class="patterns"/></defs><g class="bglayer"/><g class="layer-below"><g class="imagelayer"/><g class="shapelayer"/></g><g class="cartesianlayer"/><g class="polarlayer"/><g class="smithlayer"/><g class="ternarylayer"/><g class="geolayer"/><g class="funnelarealayer"/><g class="pielayer"/><g class="iciclelayer"/><g class="treemaplayer"/><g class="sunburstlayer"><g class="trace sunburst" stroke-linejoin="round" style="opacity: 1;"><g class="slice"><path class="surface" d="M282.5,260A0,0 0,1,0 282.5,260A0,0 0,1,0 282.5,260ZM324.5,260A42,42 0,1,1 240.5,260A42,42 0,1,1 324.5,260Z" style="pointer-events: none; stroke-width: 1; fill: rgb(255, 255, 255); fill-opacity: 1; stroke: rgb(0, 0, 0); stroke-opacity: 1;"/><g class="slicetext"><text data-notex="1" class="slicetext" text-anchor="middle" x="0" y="0" style="font-family: 'Times New Roman'; font-size: 12px; fill: rgb(0, 0, 0); fill-opacity: 1; white-space: pre;" transform="translate(282.5,264)">100.01</text></g></g><g class="slice cursor-pointer"><path class="surface" d="M324.5,260L366.5,260A84,84 0,0,0 208.29884433318324,220.62756677942258L245.39942216659162,240.3137833897113A42,42 0,0,1 324.5,260Z" style="pointer-events: none; stroke-width: 1; fill: rgb(127, 39, 4); fill-opacity: 1; stroke: rgb(0, 0, 0); stroke-opacity: 1;"/><g class="slicetext"><text data-notex="1" class="slicetext" text-anchor="middle" x="0" y="0" style="font-family: 'Times New Roman'; font-size: 12px; fill: rgb(0, 0, 0); fill-opacity: 1; white-space: pre;" transform="translate(297.3910240561761,200.16683699603763)scale(0.9842211435651563)rotate(13.975602439756017)"><tspan class="line" dy="0em" x="0" y="0">Crop Production</tspan><tspan class="line" dy="1.3em" x="0" y="0">42.24</tspan></text></g></g><g class="slice cursor-pointer"><path class="surface" d="M245.39942216659162,240.3137833897113L208.29884433318324,220.62756677942258A84,84 0,0,0 279.3475251080663,343.9408238109189L280.92376255403315,301.97041190545946A42,42 0,0,1 245.39942216659162,240.3137833897113Z" style="pointer-events: none; stroke-width: 1; fill: rgb(223, 81, 6); fill-opacity: 1; stroke: rgb(0, 0, 0); stroke-opacity: 1;"/><g class="slicetext"><text data-notex="1" class="slicetext" text-anchor="middle" x="0" y="0" style="font-family: 'Times New Roman'; font-size: 12px; fill: rgb(0, 0, 0); fill-opacity: 1; white-space: pre;" transform="translate(236.0356463797666,286.5959181530588)scale(0.9251734053456667)rotate(60.05099490050998)"><tspan class="line" dy="0em" x="0" y="0">Agricultural Inputs</tspan><tspan class="line" dy="1.3em" x="0" y="0">32.17</tspan></text></g></g><g class="slice cursor-pointer"><path class="surface" d="M280.92376255403315,301.97041190545946L279.3475251080663,343.9408238109189A84,84 0,0,0 366.5,260L324.5,260A42,42 0,0,1 280.92376255403315,301.97041190545946Z" style="pointer-events: none; stroke-width: 1; fill: rgb(250, 132, 50); fill-opacity: 1; stroke: rgb(0, 0, 0); stroke-opacity: 1;"/><g class="slicetext"><text data-notex="1" class="slicetext" text-anchor="middle" x="0" y="0" style="font-family: 'Times New Roman'; font-size: 12px; fill: rgb(0, 0, 0); fill-opacity: 1; white-space: pre;" transform="translate(321.81028921375173,300.8143360781564)rotate(-43.92460753924604)"><tspan class="line" dy="0em" x="0" y="0">Livestock</tspan><tspan class="line" dy="1.3em" x="0" y="0">25.6</tspan></text></g></g><g class="slice cursor-pointer"><path class="surface" d="M366.5,260L408.5,260A126,126 0,0,0 268.537168165879,134.77604331769396L273.19144544391935,176.51736221179596A84,84 0,0,1 366.5,260Z" style="pointer-events: none; stroke-width: 1; fill: rgb(247, 122, 39); fill-opacity: 1; stroke: rgb(0, 0, 0); stroke-opacity: 1;"/><g class="slicetext"><text data-notex="1" class="slicetext" text-anchor="middle" x="0" y="0" style="font-family: 'Times New Roman'; font-size: 12px; fill: rgb(0, 0, 0); fill-opacity: 1; white-space: pre;" transform="translate(353.9371714262943,179.90861175681843)rotate(41.81881811818823)"><tspan class="line" dy="0em" x="0" y="0">Oilseeds</tspan><tspan class="line" dy="1.3em" x="0" y="0">26.77</tspan></text></g></g><g class="slice cursor-pointer"><path class="surface" d="M273.19144544391935,176.51736221179596L268.537168165879,134.77604331769396A126,126 0,0,0 171.19826649977486,200.9413501691339L208.29884433318324,220.62756677942258A84,84 0,0,1 273.19144544391935,176.51736221179596Z" style="pointer-events: none; stroke-width: 1; fill: rgb(253, 209, 163); fill-opacity: 1; stroke: rgb(0, 0, 0); stroke-opacity: 1;"/><g class="slicetext"><text data-notex="1" class="slicetext" text-anchor="middle" x="0" y="0" style="font-family: 'Times New Roman'; font-size: 12px; fill: rgb(0, 0, 0); fill-opacity: 1; white-space: pre;" transform="translate(221.730040434176,170.8902890765942)rotate(-34.20557944205575)"><tspan class="line" dy="0em" x="0" y="0">Grains</tspan><tspan class="line" dy="1.3em" x="0" y="0">15.47</tspan></text></g></g><g class="slice"><path class="surface" d="M208.29884433318324,220.62756677942258L171.19826649977486,200.9413501691339A126,126 0,0,0 219.82019252489263,369.30343880630414L240.71346168326176,332.8689592042028A84,84 0,0,1 208.29884433318324,220.62756677942258Z" style="pointer-events: none; stroke-width: 1; fill: rgb(253, 141, 60); fill-opacity: 1; stroke: rgb(0, 0, 0); stroke-opacity: 1; opacity: 1;"/><g class="slicetext"><text data-notex="1" class="slicetext" text-anchor="middle" x="0" y="0" style="font-family: 'Times New Roman'; font-size: 12px; fill: rgb(0, 0, 0); fill-opacity: 1; white-space: pre;" transform="translate(187.10251722509554,287.37943374404347)rotate(73.89161083891611)"><tspan class="line" dy="0em" x="0" y="0">Fertilizers</tspan><tspan class="line" dy="1.3em" x="0" y="0">24.48</tspan></text></g></g><g class="slice cursor-pointer"><path class="surface" d="M240.71346168326176,332.8689592042028L219.82019252489263,369.30343880630414A126,126 0,0,0 277.77128766209944,385.9112357163783L279.3475251080663,343.9408238109189A84,84 0,0,1 240.71346168326176,332.8689592042028Z" style="pointer-events: none; stroke-width: 1; fill: rgb(255, 242, 229); fill-opacity: 1; stroke: rgb(0, 0, 0); stroke-opacity: 1;"/><g class="slicetext"><text data-notex="1" class="slicetext" text-anchor="middle" x="0" y="0" style="font-family: 'Times New Roman'; font-size: 12px; fill: rgb(0, 0, 0); fill-opacity: 1; white-space: pre;" transform="translate(253.40916374524392,357.1321331361839)"><tspan class="line" dy="0em" x="0" y="0">Seeds</tspan><tspan class="line" dy="1.3em" x="0" y="0">7.69</tspan></text></g></g><g class="slice"><path class="surface" d="M279.3475251080663,343.9408238109189L277.77128766209944,385.9112357163783A126,126 0,0,0 408.5,260.00000000000006L366.5,260A84,84 0,0,1 279.3475251080663,343.9408238109189Z" style="pointer-events: none; stroke-width: 1; fill: rgb(250, 132, 50); fill-opacity: 1; stroke: rgb(0, 0, 0); stroke-opacity: 1; opacity: 1;"/><g class="slicetext"><text data-notex="1" class="slicetext" text-anchor="middle" x="0" y="0" style="font-family: 'Times New Roman'; font-size: 12px; fill: rgb(0, 0, 0); fill-opacity: 1; white-space: pre;" transform="translate(351.92963182941514,332.0860717116551)rotate(-43.92460753924604)"><tspan class="line" dy="0em" x="0" y="0">Poultry</tspan><tspan class="line" dy="1.3em" x="0" y="0">25.6</tspan></text></g></g><g class="slice cursor-pointer"><path class="surface" d="M408.5,260L450.5,260A168,168 0,0,0 339.52662654061504,101.97479990394817L325.26996990546127,141.4810999279611A126,126 0,0,1 408.5,260Z" style="pointer-events: none; stroke-width: 1; fill: rgb(253, 178, 114); fill-opacity: 1; stroke: rgb(0, 0, 0); stroke-opacity: 1;"/><g class="slicetext"><text data-notex="1" class="slicetext" text-anchor="middle" x="0" y="0" style="font-family: 'Times New Roman'; font-size: 12px; fill: rgb(0, 0, 0); fill-opacity: 1; white-space: pre;" transform="translate(405.04319721652047,173.53340461856732)rotate(54.92150784921512)"><tspan class="line" dy="0em" x="0" y="0">Canola</tspan><tspan class="line" dy="1.3em" x="0" y="0">19.49</tspan></text></g></g><g class="slice"><path class="surface" d="M325.26996990546127,141.4810999279611L339.52662654061504,101.97479990394817A168,168 0,0,0 263.8828908878387,93.03472442359194L268.537168165879,134.77604331769396A126,126 0,0,1 325.26996990546127,141.4810999279611Z" style="pointer-events: none; stroke-width: 1; fill: rgb(255, 243, 231); fill-opacity: 1; stroke: rgb(0, 0, 0); stroke-opacity: 1; opacity: 1;"/><g class="slicetext"><text data-notex="1" class="slicetext" text-anchor="middle" x="0" y="0" style="font-family: 'Times New Roman'; font-size: 12px; fill: rgb(0, 0, 0); fill-opacity: 1; white-space: pre;" transform="translate(300.0662562192444,111.36845379245987)rotate(6.740325967403237)"><tspan class="line" dy="0em" x="0" y="0">Soybean</tspan><tspan class="line" dy="1.3em" x="0" y="0">7.28</tspan></text></g></g><g class="slice"><path class="surface" d="M268.537168165879,134.77604331769396L263.8828908878387,93.03472442359194A168,168 0,0,0 179.3944795362103,127.36044462570356L205.17085965215773,160.5203334692777A126,126 0,0,1 268.537168165879,134.77604331769396Z" style="pointer-events: none; stroke-width: 1; fill: rgb(255, 238, 222); fill-opacity: 1; stroke: rgb(0, 0, 0); stroke-opacity: 1; opacity: 1;"/><g class="slicetext"><text data-notex="1" class="slicetext" text-anchor="middle" x="0" y="0" style="font-family: 'Times New Roman'; font-size: 12px; fill: rgb(0, 0, 0); fill-opacity: 1; white-space: pre;" transform="translate(225.69426085171534,121.07237449153722)rotate(-22.110788921107883)"><tspan class="line" dy="0em" x="0" y="0">Wheat</tspan><tspan class="line" dy="1.3em" x="0" y="0">8.75</tspan></text></g></g><g class="slice"><path class="surface" d="M205.17085965215773,160.5203334692777L179.3944795362103,127.36044462570356A168,168 0,0,0 134.09768866636648,181.2551335588452L171.19826649977486,200.9413501691339A126,126 0,0,1 205.17085965215773,160.5203334692777Z" style="pointer-events: none; stroke-width: 1; fill: rgb(255, 245, 235); fill-opacity: 1; stroke: rgb(0, 0, 0); stroke-opacity: 1; opacity: 1;"/><g class="slicetext"><text data-notex="1" class="slicetext" text-anchor="middle" x="0" y="0" style="font-family: 'Times New Roman'; font-size: 12px; fill: rgb(0, 0, 0); fill-opacity: 1; white-space: pre;" transform="translate(169.96735680914122,161.61516544746647)"><tspan class="line" dy="0em" x="0" y="0">Rice</tspan><tspan class="line" dy="1.3em" x="0" y="0">6.72</tspan></text></g></g><g class="slice"><path class="surface" d="M219.82019252489263,369.30343880630414L198.9269233665235,405.73791840840556A168,168 0,0,0 276.1950502161326,427.88164762183777L277.77128766209944,385.9112357163783A126,126 0,0,1 219.82019252489263,369.30343880630414Z" style="pointer-events: none; stroke-width: 1; fill: rgb(255, 242, 229); fill-opacity: 1; stroke: rgb(0, 0, 0); stroke-opacity: 1; opacity: 1;"/><g class="slicetext"><text data-notex="1" class="slicetext" text-anchor="middle" x="0" y="0" style="font-family: 'Times New Roman'; font-size: 12px; fill: rgb(0, 0, 0); fill-opacity: 1; white-space: pre;" transform="translate(241.52240099817055,402.48033897616943)scale(0.8505487083984404)rotate(15.991400859914052)"><tspan class="line" dy="0em" x="0" y="0">Heirloom Seeds</tspan><tspan class="line" dy="1.3em" x="0" y="0">7.69</tspan></text></g></g><g class="slice"><path class="surface" d="M450.5,260L492.5,260A210,210 0,0,0 432.02665335658276,112.54905922314248L402.1213226852662,142.03924737851398A168,168 0,0,1 450.5,260Z" style="pointer-events: none; stroke-width: 1; fill: rgb(254, 224, 194); fill-opacity: 1; stroke: rgb(0, 0, 0); stroke-opacity: 1; opacity: 1;"/><g class="slicetext"><text data-notex="1" class="slicetext" text-anchor="middle" x="0" y="0" style="font-family: 'Times New Roman'; font-size: 12px; fill: rgb(0, 0, 0); fill-opacity: 1; white-space: pre;" transform="translate(458.329476601899,187.88790066271238)rotate(67.70022997700232)"><tspan class="line" dy="0em" x="0" y="0">Open-Pollinated</tspan><tspan class="line" dy="1.3em" x="0" y="0">12.39</tspan></text></g></g><g class="slice"><path class="surface" d="M402.1213226852662,142.03924737851398L432.02665335658276,112.54905922314248A210,210 0,0,0 353.7832831757688,62.46849987993522L339.52662654061504,101.97479990394817A168,168 0,0,1 402.1213226852662,142.03924737851398Z" style="pointer-events: none; stroke-width: 1; fill: rgb(255, 244, 233); fill-opacity: 1; stroke: rgb(0, 0, 0); stroke-opacity: 1; opacity: 1;"/><g class="slicetext"><text data-notex="1" class="slicetext" text-anchor="middle" x="0" y="0" style="font-family: 'Times New Roman'; font-size: 12px; fill: rgb(0, 0, 0); fill-opacity: 1; white-space: pre;" transform="translate(387.4884201132152,95.67323031522363)scale(0.9795028119027488)rotate(32.62173782621733)"><tspan class="line" dy="0em" x="0" y="0">Hybrid Varieties</tspan><tspan class="line" dy="1.3em" x="0" y="0">7.1</tspan></text></g></g></g></g><g class="glimages"/><defs id="topdefs-c57770"><g class="clips"/></defs><g class="layer-above"><g class="imagelayer"/><g class="shapelayer"/></g><g class="infolayer"><g class="cbc82fc3 colorbar" transform="translate(10,50)"><rect class="cbbg" x="571.5" y="63" width="48.015625" height="295" style="fill: rgb(0, 0, 0); fill-opacity: 0; stroke: rgb(68, 68, 68); stroke-opacity: 1; stroke-width: 0;"/><g class="cbfills" transform="translate(0,93)"><rect class="cbfill gradient_filled" style="fill: url('#gc57770-cbc82fc3');" x="582" y="0" width="15" height="254"/></g><g class="cblines" transform="translate(0,93)"/><g class="cbaxis crisp" transform="translate(0,-50)"><g class="ycbc82fc3tick"><text text-anchor="start" x="600.4" y="4.199999999999999" transform="translate(0,373.55000000000007)" style="font-family: 'Times New Roman'; font-size: 12px; fill: rgb(42, 63, 95); fill-opacity: 1; white-space: pre; opacity: 1;">10</text></g><g class="ycbc82fc3tick"><text text-anchor="start" x="600.4" y="4.199999999999999" style="font-family: 'Times New Roman'; font-size: 12px; fill: rgb(42, 63, 95); fill-opacity: 1; white-space: pre; opacity: 1;" transform="translate(0,337.7900000000001)">15</text></g><g class="ycbc82fc3tick"><text text-anchor="start" x="600.4" y="4.199999999999999" style="font-family: 'Times New Roman'; font-size: 12px; fill: rgb(42, 63, 95); fill-opacity: 1; white-space: pre; opacity: 1;" transform="translate(0,302.0400000000001)">20</text></g><g class="ycbc82fc3tick"><text text-anchor="start" x="600.4" y="4.199999999999999" style="font-family: 'Times New Roman'; font-size: 12px; fill: rgb(42, 63, 95); fill-opacity: 1; white-space: pre; opacity: 1;" transform="translate(0,266.2800000000001)">25</text></g><g class="ycbc82fc3tick"><text text-anchor="start" x="600.4" y="4.199999999999999" style="font-family: 'Times New Roman'; font-size: 12px; fill: rgb(42, 63, 95); fill-opacity: 1; white-space: pre; opacity: 1;" transform="translate(0,230.53000000000006)">30</text></g><g class="ycbc82fc3tick"><text text-anchor="start" x="600.4" y="4.199999999999999" style="font-family: 'Times New Roman'; font-size: 12px; fill: rgb(42, 63, 95); fill-opacity: 1; white-space: pre; opacity: 1;" transform="translate(0,194.77000000000007)">35</text></g><g class="ycbc82fc3tick"><text text-anchor="start" x="600.4" y="4.199999999999999" style="font-family: 'Times New Roman'; font-size: 12px; fill: rgb(42, 63, 95); fill-opacity: 1; white-space: pre; opacity: 1;" transform="translate(0,159.02000000000007)">40</text></g></g><g class="cbtitleunshift" transform="translate(-10,-50)"><g class="cbtitle" transform="translate(-0.5,-0.5)"><text class="ycbc82fc3title" x="592.25" y="135.75" text-anchor="start" style="opacity: 1; font-family: 'Times New Roman'; font-size: 13px; fill: rgb(42, 63, 95); fill-opacity: 1; white-space: pre;">%</text></g></g><rect class="cboutline" x="582" y="93" width="15" height="254" style="stroke: rgb(68, 68, 68); stroke-opacity: 1; fill: none; stroke-width: 1;"/></g><g class="g-gtitle"><text class="gtitle" x="320" y="25" text-anchor="middle" dy="0em" style="opacity: 1; font-family: 'Times New Roman'; font-size: 16px; fill: rgb(42, 63, 95); fill-opacity: 1; white-space: pre;">Agriculture Production Distribution by Category (2024) (%)</text></g></g></svg>