<svg class="main-svg" xmlns="http://www.w3.org/2000/svg" xmlns:xlink="http://www.w3.org/1999/xlink" width="1920" height="1440" style="" viewBox="0 0 640 480"><rect x="0" y="0" width="640" height="480" style="fill: rgb(255, 255, 255); fill-opacity: 1;"/><defs id="defs-02730b"><g class="clips"/><g class="gradients"><linearGradient x1="0" y1="1" x2="0" y2="0" gradientUnits="objectBoundingBox" id="g02730b-cbcd5b09"><stop offset="0%" stop-color="rgb(247, 251, 255)" stop-opacity="1"/><stop offset="12.5%" stop-color="rgb(222, 235, 247)" stop-opacity="1"/><stop offset="25%" stop-color="rgb(198, 219, 239)" stop-opacity="1"/><stop offset="37.5%" stop-color="rgb(158, 202, 225)" stop-opacity="1"/><stop offset="50%" stop-color="rgb(107, 174, 214)" stop-opacity="1"/><stop offset="62.5%" stop-color="rgb(66, 146, 198)" stop-opacity="1"/><stop offset="75%" stop-color="rgb(33, 113, 181)" stop-opacity="1"/><stop offset="87.5%" stop-color="rgb(8, 81, 156)" stop-opacity="1"/><stop offset="100%" stop-color="rgb(8, 48, 107)" stop-opacity="1"/></linearGradient></g><g class="patterns"/></defs><g class="bglayer"/><g class="layer-below"><g class="imagelayer"/><g class="shapelayer"/></g><g class="cartesianlayer"/><g class="polarlayer"/><g class="smithlayer"/><g class="ternarylayer"/><g class="geolayer"/><g class="funnelarealayer"/><g class="pielayer"/><g class="iciclelayer"/><g class="treemaplayer"/><g class="sunburstlayer"><g class="trace sunburst" stroke-linejoin="round" style="opacity: 1;"><g class="slice"><path class="surface" d="M282.5,260A0,0 0,1,0 282.5,260A0,0 0,1,0 282.5,260ZM324.5,260A42,42 0,1,1 240.5,260A42,42 0,1,1 324.5,260Z" style="pointer-events: none; stroke-width: 1; fill: rgb(255, 255, 255); fill-opacity: 1; stroke: rgb(0, 0, 0); stroke-opacity: 1;"/><g class="slicetext"><text data-notex="1" class="slicetext" text-anchor="middle" x="0" y="0" style="font-family: 'Times New Roman'; font-size: 12px; fill: rgb(0, 0, 0); fill-opacity: 1; white-space: pre;" transform="translate(282.5,264)">100</text></g></g><g class="slice cursor-pointer"><path class="surface" d="M324.5,260L366.5,260A84,84 0,1,0 198.55199244898827,262.95500054404L240.52599622449412,261.47750027202A42,42 0,1,1 324.5,260Z" style="pointer-events: none; stroke-width: 1; fill: rgb(8, 48, 107); fill-opacity: 1; stroke: rgb(0, 0, 0); stroke-opacity: 1;"/><g class="slicetext"><text data-notex="1" class="slicetext" text-anchor="middle" x="0" y="0" style="font-family: 'Times New Roman'; font-size: 12px; fill: rgb(0, 0, 0); fill-opacity: 1; white-space: pre;" transform="translate(281.44870416867116,200.24940517372184)scale(0.8800076861931426)rotate(-1.0080000000000382)"><tspan class="line" dy="0em" x="0" y="0">Energy Consumption</tspan><tspan class="line" dy="1.3em" x="0" y="0">50.56</tspan></text></g></g><g class="slice cursor-pointer"><path class="surface" d="M240.52599622449412,261.47750027202L198.55199244898827,262.95500054404A84,84 0,0,0 302.26333706205565,341.6419653620096L292.3816685310278,300.8209826810048A42,42 0,0,1 240.52599622449412,261.47750027202Z" style="pointer-events: none; stroke-width: 1; fill: rgb(104, 172, 213); fill-opacity: 1; stroke: rgb(0, 0, 0); stroke-opacity: 1;"/><g class="slicetext"><text data-notex="1" class="slicetext" text-anchor="middle" x="0" y="0" style="font-family: 'Times New Roman'; font-size: 12px; fill: rgb(0, 0, 0); fill-opacity: 1; white-space: pre;" transform="translate(249.48904337210183,303.2378160151762)rotate(37.18799999999999)"><tspan class="line" dy="0em" x="0" y="0">Energy Sources</tspan><tspan class="line" dy="1.3em" x="0" y="0">28.22</tspan></text></g></g><g class="slice cursor-pointer"><path class="surface" d="M292.3816685310278,300.8209826810048L302.26333706205565,341.6419653620096A84,84 0,0,0 366.5,260L324.5,260A42,42 0,0,1 292.3816685310278,300.8209826810048Z" style="pointer-events: none; stroke-width: 1; fill: rgb(164, 205, 227); fill-opacity: 1; stroke: rgb(0, 0, 0); stroke-opacity: 1;"/><g class="slicetext"><text data-notex="1" class="slicetext" text-anchor="middle" x="0" y="0" style="font-family: 'Times New Roman'; font-size: 12px; fill: rgb(0, 0, 0); fill-opacity: 1; white-space: pre;" transform="translate(329.78922547911895,297.20760547874005)scale(0.7275186505368698)rotate(-51.803999999999974)"><tspan class="line" dy="0em" x="0" y="0">Energy Infrastructure</tspan><tspan class="line" dy="1.3em" x="0" y="0">21.22</tspan></text></g></g><g class="slice cursor-pointer"><path class="surface" d="M366.5,260L408.5,260A126,126 0,0,0 208.4390582111484,158.06385870875664L233.12603880743228,192.04257247250442A84,84 0,0,1 366.5,260Z" style="pointer-events: none; stroke-width: 1; fill: rgb(57, 137, 193); fill-opacity: 1; stroke: rgb(0, 0, 0); stroke-opacity: 1;"/><g class="slicetext"><text data-notex="1" class="slicetext" text-anchor="middle" x="0" y="0" style="font-family: 'Times New Roman'; font-size: 12px; fill: rgb(0, 0, 0); fill-opacity: 1; white-space: pre;" transform="translate(330.5423146502464,164.97168263382082)rotate(27)"><tspan class="line" dy="0em" x="0" y="0">Residential</tspan><tspan class="line" dy="1.3em" x="0" y="0">35</tspan></text></g></g><g class="slice cursor-pointer"><path class="surface" d="M233.12603880743228,192.04257247250442L208.4390582111484,158.06385870875664A126,126 0,0,0 156.5779886734824,264.43250081606L198.55199244898827,262.95500054404A84,84 0,0,1 233.12603880743228,192.04257247250442Z" style="pointer-events: none; stroke-width: 1; fill: rgb(202, 221, 240); fill-opacity: 1; stroke: rgb(0, 0, 0); stroke-opacity: 1;"/><g class="slicetext"><text data-notex="1" class="slicetext" text-anchor="middle" x="0" y="0" style="font-family: 'Times New Roman'; font-size: 12px; fill: rgb(0, 0, 0); fill-opacity: 1; white-space: pre;" transform="translate(186.16849071737352,213.4063717921606)rotate(-64.00800000000004)"><tspan class="line" dy="0em" x="0" y="0">Industrial</tspan><tspan class="line" dy="1.3em" x="0" y="0">15.56</tspan></text></g></g><g class="slice"><path class="surface" d="M198.55199244898827,262.95500054404L156.5779886734824,264.43250081606A126,126 0,0,0 312.14500559308345,382.4629480430144L302.26333706205565,341.6419653620096A84,84 0,0,1 198.55199244898827,262.95500054404Z" style="pointer-events: none; stroke-width: 1; fill: rgb(104, 172, 213); fill-opacity: 1; stroke: rgb(0, 0, 0); stroke-opacity: 1; opacity: 1;"/><g class="slicetext"><text data-notex="1" class="slicetext" text-anchor="middle" x="0" y="0" style="font-family: 'Times New Roman'; font-size: 12px; fill: rgb(0, 0, 0); fill-opacity: 1; white-space: pre;" transform="translate(222.73828242910463,338.483048011485)rotate(37.18799999999999)"><tspan class="line" dy="0em" x="0" y="0">Fossil Fuels</tspan><tspan class="line" dy="1.3em" x="0" y="0">28.22</tspan></text></g></g><g class="slice"><path class="surface" d="M302.26333706205565,341.6419653620096L312.14500559308345,382.4629480430144A126,126 0,0,0 386.7566308776794,330.75701320742206L352.00442058511965,307.1713421382814A84,84 0,0,1 302.26333706205565,341.6419653620096Z" style="pointer-events: none; stroke-width: 1; fill: rgb(218, 232, 246); fill-opacity: 1; stroke: rgb(0, 0, 0); stroke-opacity: 1; opacity: 1;"/><g class="slicetext"><text data-notex="1" class="slicetext" text-anchor="middle" x="0" y="0" style="font-family: 'Times New Roman'; font-size: 12px; fill: rgb(0, 0, 0); fill-opacity: 1; white-space: pre;" transform="translate(339.26600952990725,341.9133092828592)rotate(-34.72199999999998)"><tspan class="line" dy="0em" x="0" y="0">Generation</tspan><tspan class="line" dy="1.3em" x="0" y="0">11.73</tspan></text></g></g><g class="slice cursor-pointer"><path class="surface" d="M352.00442058511965,307.1713421382814L386.7566308776794,330.75701320742206A126,126 0,0,0 408.5,260.00000000000006L366.5,260A84,84 0,0,1 352.00442058511965,307.1713421382814Z" style="pointer-events: none; stroke-width: 1; fill: rgb(227, 239, 249); fill-opacity: 1; stroke: rgb(0, 0, 0); stroke-opacity: 1;"/><g class="slicetext"><text data-notex="1" class="slicetext" text-anchor="middle" x="0" y="0" style="font-family: 'Times New Roman'; font-size: 12px; fill: rgb(0, 0, 0); fill-opacity: 1; white-space: pre;" transform="translate(383.59172809493907,291.06511509661857)scale(0.8702445371582103)rotate(-72.918)"><tspan class="line" dy="0em" x="0" y="0">Transmission</tspan><tspan class="line" dy="1.3em" x="0" y="0">9.49</tspan></text></g></g><g class="slice cursor-pointer"><path class="surface" d="M408.5,260L450.5,260A168,168 0,0,0 263.95971933596616,93.02617572535851L268.5947895019746,134.7696317940189A126,126 0,0,1 408.5,260Z" style="pointer-events: none; stroke-width: 1; fill: rgb(116, 179, 216); fill-opacity: 1; stroke: rgb(0, 0, 0); stroke-opacity: 1;"/><g class="slicetext"><text data-notex="1" class="slicetext" text-anchor="middle" x="0" y="0" style="font-family: 'Times New Roman'; font-size: 12px; fill: rgb(0, 0, 0); fill-opacity: 1; white-space: pre;" transform="translate(382.42650519420613,148.36382944644473)rotate(41.831999999999994)"><tspan class="line" dy="0em" x="0" y="0">Heating</tspan><tspan class="line" dy="1.3em" x="0" y="0">26.76</tspan></text></g></g><g class="slice"><path class="surface" d="M268.5947895019746,134.7696317940189L263.95971933596616,93.02617572535851A168,168 0,0,0 183.75207761486453,124.08514494500884L208.4390582111484,158.06385870875664A126,126 0,0,1 268.5947895019746,134.7696317940189Z" style="pointer-events: none; stroke-width: 1; fill: rgb(233, 242, 251); fill-opacity: 1; stroke: rgb(0, 0, 0); stroke-opacity: 1; opacity: 1;"/><g class="slicetext"><text data-notex="1" class="slicetext" text-anchor="middle" x="0" y="0" style="font-family: 'Times New Roman'; font-size: 12px; fill: rgb(0, 0, 0); fill-opacity: 1; white-space: pre;" transform="translate(228.18962183772408,120.20153755642586)rotate(-21.168000000000006)"><tspan class="line" dy="0em" x="0" y="0">Appliances</tspan><tspan class="line" dy="1.3em" x="0" y="0">8.24</tspan></text></g></g><g class="slice cursor-pointer"><path class="surface" d="M208.4390582111484,158.06385870875664L183.75207761486453,124.08514494500884A168,168 0,0,0 121.14124304599792,213.23086964397044L161.48093228449844,224.92315223297783A126,126 0,0,1 208.4390582111484,158.06385870875664Z" style="pointer-events: none; stroke-width: 1; fill: rgb(223, 236, 247); fill-opacity: 1; stroke: rgb(0, 0, 0); stroke-opacity: 1;"/><g class="slicetext"><text data-notex="1" class="slicetext" text-anchor="middle" x="0" y="0" style="font-family: 'Times New Roman'; font-size: 12px; fill: rgb(0, 0, 0); fill-opacity: 1; white-space: pre;" transform="translate(161.17732196558612,174.7899223488725)rotate(-54.918000000000006)"><tspan class="line" dy="0em" x="0" y="0">Manufacturing</tspan><tspan class="line" dy="1.3em" x="0" y="0">10.51</tspan></text></g></g><g class="slice"><path class="surface" d="M161.48093228449844,224.92315223297783L121.14124304599792,213.23086964397044A168,168 0,0,0 114.60398489797652,265.91000108807987L156.5779886734824,264.4325008160599A126,126 0,0,1 161.48093228449844,224.92315223297783Z" style="pointer-events: none; stroke-width: 1; fill: rgb(247, 251, 255); fill-opacity: 1; stroke: rgb(0, 0, 0); stroke-opacity: 1; opacity: 1;"/><g class="slicetext"><text data-notex="1" class="slicetext" text-anchor="middle" x="0" y="0" style="font-family: 'Times New Roman'; font-size: 12px; fill: rgb(0, 0, 0); fill-opacity: 1; white-space: pre;" transform="translate(130.79223239296934,241.17370555056686)rotate(-82.92600000000004)"><tspan class="line" dy="0em" x="0" y="0">Mining</tspan><tspan class="line" dy="1.3em" x="0" y="0">5.05</tspan></text></g></g><g class="slice cursor-pointer"><path class="surface" d="M386.7566308776794,330.75701320742206L421.50884117023924,354.34268427656275A168,168 0,0,0 450.5,260.00000000000006L408.5,260.00000000000006A126,126 0,0,1 386.7566308776794,330.75701320742206Z" style="pointer-events: none; stroke-width: 1; fill: rgb(227, 239, 249); fill-opacity: 1; stroke: rgb(0, 0, 0); stroke-opacity: 1;"/><g class="slicetext"><text data-notex="1" class="slicetext" text-anchor="middle" x="0" y="0" style="font-family: 'Times New Roman'; font-size: 12px; fill: rgb(0, 0, 0); fill-opacity: 1; white-space: pre;" transform="translate(417.3493354147236,301.6103373661202)rotate(-72.918)"><tspan class="line" dy="0em" x="0" y="0">Smart Grids</tspan><tspan class="line" dy="1.3em" x="0" y="0">9.49</tspan></text></g></g><g class="slice"><path class="surface" d="M450.5,260L492.5,260A210,210 0,0,0 377.72042059294404,72.82876422349818L358.67633647435525,110.26301137879855A168,168 0,0,1 450.5,260Z" style="pointer-events: none; stroke-width: 1; fill: rgb(190, 216, 236); fill-opacity: 1; stroke: rgb(0, 0, 0); stroke-opacity: 1; opacity: 1;"/><g class="slicetext"><text data-notex="1" class="slicetext" text-anchor="middle" x="0" y="0" style="font-family: 'Times New Roman'; font-size: 12px; fill: rgb(0, 0, 0); fill-opacity: 1; white-space: pre;" transform="translate(445.348842716813,160.1357147832208)rotate(58.48199999999997)"><tspan class="line" dy="0em" x="0" y="0">Gas Heating</tspan><tspan class="line" dy="1.3em" x="0" y="0">17.51</tspan></text></g></g><g class="slice"><path class="surface" d="M358.67633647435525,110.26301137879855L377.72042059294404,72.82876422349818A210,210 0,0,0 259.3246491699577,51.282719656698134L263.95971933596616,93.02617572535851A168,168 0,0,1 358.67633647435525,110.26301137879855Z" style="pointer-events: none; stroke-width: 1; fill: rgb(229, 239, 249); fill-opacity: 1; stroke: rgb(0, 0, 0); stroke-opacity: 1; opacity: 1;"/><g class="slicetext"><text data-notex="1" class="slicetext" text-anchor="middle" x="0" y="0" style="font-family: 'Times New Roman'; font-size: 12px; fill: rgb(0, 0, 0); fill-opacity: 1; white-space: pre;" transform="translate(316.528990168255,73.01029387436498)rotate(10.313999999999965)"><tspan class="line" dy="0em" x="0" y="0">Electric Heating</tspan><tspan class="line" dy="1.3em" x="0" y="0">9.25</tspan></text></g></g><g class="slice"><path class="surface" d="M183.75207761486453,124.08514494500884L159.06509701858067,90.10643118126103A210,210 0,0,0 109.48333926585221,140.98220675712057L144.08667141268177,164.78576540569645A168,168 0,0,1 183.75207761486453,124.08514494500884Z" style="pointer-events: none; stroke-width: 1; fill: rgb(245, 250, 254); fill-opacity: 1; stroke: rgb(0, 0, 0); stroke-opacity: 1; opacity: 1;"/><g class="slicetext"><text data-notex="1" class="slicetext" text-anchor="middle" x="0" y="0" style="font-family: 'Times New Roman'; font-size: 12px; fill: rgb(0, 0, 0); fill-opacity: 1; white-space: pre;" transform="translate(140.11661981709713,121.23812002203456)scale(0.7704639275738974)rotate(-45.73799999999994)"><tspan class="line" dy="0em" x="0" y="0">Steel Production</tspan><tspan class="line" dy="1.3em" x="0" y="0">5.41</tspan></text></g></g><g class="slice"><path class="surface" d="M144.08667141268177,164.78576540569645L109.48333926585221,140.98220675712057A210,210 0,0,0 80.80155380749738,201.53858705496305L121.14124304599792,213.23086964397044A168,168 0,0,1 144.08667141268177,164.78576540569645Z" style="pointer-events: none; stroke-width: 1; fill: rgb(247, 251, 255); fill-opacity: 1; stroke: rgb(0, 0, 0); stroke-opacity: 1; opacity: 1;"/><g class="slicetext"><text data-notex="1" class="slicetext" text-anchor="middle" x="0" y="0" style="font-family: 'Times New Roman'; font-size: 12px; fill: rgb(0, 0, 0); fill-opacity: 1; white-space: pre;" transform="translate(103.35695540894164,175.30655512684592)scale(0.8563500180358297)rotate(-64.65600000000006)"><tspan class="line" dy="0em" x="0" y="0">Cement Kilns</tspan><tspan class="line" dy="1.3em" x="0" y="0">5.1</tspan></text></g></g><g class="slice"><path class="surface" d="M421.50884117023924,354.34268427656275L456.26105146279906,377.9283553457035A210,210 0,0,0 492.5,260.00000000000006L450.5,260.00000000000006A168,168 0,0,1 421.50884117023924,354.34268427656275Z" style="pointer-events: none; stroke-width: 1; fill: rgb(227, 239, 249); fill-opacity: 1; stroke: rgb(0, 0, 0); stroke-opacity: 1; opacity: 1;"/><g class="slicetext"><text data-notex="1" class="slicetext" text-anchor="middle" x="0" y="0" style="font-family: 'Times New Roman'; font-size: 12px; fill: rgb(0, 0, 0); fill-opacity: 1; white-space: pre;" transform="translate(458.7265963995324,314.3254170180256)rotate(-72.918)"><tspan class="line" dy="0em" x="0" y="0">Sensors</tspan><tspan class="line" dy="1.3em" x="0" y="0">9.49</tspan></text></g></g></g></g><g class="glimages"/><defs id="topdefs-02730b"><g class="clips"/></defs><g class="layer-above"><g class="imagelayer"/><g class="shapelayer"/></g><g class="infolayer"><g class="cbcd5b09 colorbar" transform="translate(10,50)"><rect class="cbbg" x="571.5" y="63" width="48.015625" height="295" style="fill: rgb(0, 0, 0); fill-opacity: 0; stroke: rgb(68, 68, 68); stroke-opacity: 1; stroke-width: 0;"/><g class="cbfills" transform="translate(0,93)"><rect class="cbfill gradient_filled" style="fill: url('#g02730b-cbcd5b09');" x="582" y="0" width="15" height="254"/></g><g class="cblines" transform="translate(0,93)"/><g class="cbaxis crisp" transform="translate(0,-50)"><g class="ycbcd5b09tick"><text text-anchor="start" x="600.4" y="4.199999999999999" transform="translate(0,369.37000000000006)" style="font-family: 'Times New Roman'; font-size: 12px; fill: rgb(42, 63, 95); fill-opacity: 1; white-space: pre; opacity: 1;">10</text></g><g class="ycbcd5b09tick"><text text-anchor="start" x="600.4" y="4.199999999999999" style="font-family: 'Times New Roman'; font-size: 12px; fill: rgb(42, 63, 95); fill-opacity: 1; white-space: pre; opacity: 1;" transform="translate(0,313.56000000000006)">20</text></g><g class="ycbcd5b09tick"><text text-anchor="start" x="600.4" y="4.199999999999999" style="font-family: 'Times New Roman'; font-size: 12px; fill: rgb(42, 63, 95); fill-opacity: 1; white-space: pre; opacity: 1;" transform="translate(0,257.75000000000006)">30</text></g><g class="ycbcd5b09tick"><text text-anchor="start" x="600.4" y="4.199999999999999" style="font-family: 'Times New Roman'; font-size: 12px; fill: rgb(42, 63, 95); fill-opacity: 1; white-space: pre; opacity: 1;" transform="translate(0,201.94000000000005)">40</text></g><g class="ycbcd5b09tick"><text text-anchor="start" x="600.4" y="4.199999999999999" style="font-family: 'Times New Roman'; font-size: 12px; fill: rgb(42, 63, 95); fill-opacity: 1; white-space: pre; opacity: 1;" transform="translate(0,146.13000000000005)">50</text></g></g><g class="cbtitleunshift" transform="translate(-10,-50)"><g class="cbtitle" transform="translate(-0.5,-0.5)"><text class="ycbcd5b09title" x="592.25" y="135.75" text-anchor="start" style="opacity: 1; font-family: 'Times New Roman'; font-size: 13px; fill: rgb(42, 63, 95); fill-opacity: 1; white-space: pre;">%</text></g></g><rect class="cboutline" x="582" y="93" width="15" height="254" style="stroke: rgb(68, 68, 68); stroke-opacity: 1; fill: none; stroke-width: 1;"/></g><g class="g-gtitle"><text class="gtitle" x="320" y="25" text-anchor="middle" dy="0em" style="opacity: 1; font-family: 'Times New Roman'; font-size: 16px; fill: rgb(42, 63, 95); fill-opacity: 1; white-space: pre;">Energy Distribution by Category (2020) (%)</text></g></g></svg>