<svg class="main-svg" xmlns="http://www.w3.org/2000/svg" xmlns:xlink="http://www.w3.org/1999/xlink" width="1920" height="1440" style="" viewBox="0 0 640 480"><rect x="0" y="0" width="640" height="480" style="fill: rgb(255, 255, 255); fill-opacity: 1;"/><defs id="defs-0a174b"><g class="clips"/><g class="gradients"><linearGradient x1="0" y1="1" x2="0" y2="0" gradientUnits="objectBoundingBox" id="g0a174b-cb6ad1b2"><stop offset="0%" stop-color="rgb(255, 255, 204)" stop-opacity="1"/><stop offset="12.5%" stop-color="rgb(255, 237, 160)" stop-opacity="1"/><stop offset="25%" stop-color="rgb(254, 217, 118)" stop-opacity="1"/><stop offset="37.5%" stop-color="rgb(254, 178, 76)" stop-opacity="1"/><stop offset="50%" stop-color="rgb(253, 141, 60)" stop-opacity="1"/><stop offset="62.5%" stop-color="rgb(252, 78, 42)" stop-opacity="1"/><stop offset="75%" stop-color="rgb(227, 26, 28)" stop-opacity="1"/><stop offset="87.5%" stop-color="rgb(189, 0, 38)" stop-opacity="1"/><stop offset="100%" stop-color="rgb(128, 0, 38)" stop-opacity="1"/></linearGradient></g><g class="patterns"/></defs><g class="bglayer"/><g class="layer-below"><g class="imagelayer"/><g class="shapelayer"/></g><g class="cartesianlayer"/><g class="polarlayer"/><g class="smithlayer"/><g class="ternarylayer"/><g class="geolayer"/><g class="funnelarealayer"/><g class="pielayer"/><g class="iciclelayer"/><g class="treemaplayer"/><g class="sunburstlayer"><g class="trace sunburst" stroke-linejoin="round" style="opacity: 1;"><g class="slice"><path class="surface" d="M282.5,260A0,0 0,1,0 282.5,260A0,0 0,1,0 282.5,260ZM324.5,260A42,42 0,1,1 240.5,260A42,42 0,1,1 324.5,260Z" style="pointer-events: none; stroke-width: 1; fill: rgb(255, 255, 255); fill-opacity: 1; stroke: rgb(0, 0, 0); stroke-opacity: 1;"/><g class="slicetext"><text data-notex="1" class="slicetext" text-anchor="middle" x="0" y="0" style="font-family: 'Times New Roman'; font-size: 12px; fill: rgb(0, 0, 0); fill-opacity: 1; white-space: pre;" transform="translate(282.5,264)">100</text></g></g><g class="slice cursor-pointer"><path class="surface" d="M324.5,260L366.5,260A84,84 0,1,0 200.18165140288136,276.723919523941L241.34082570144068,268.3619597619705A42,42 0,1,1 324.5,260Z" style="pointer-events: none; stroke-width: 1; fill: rgb(128, 0, 38); fill-opacity: 1; stroke: rgb(0, 0, 0); stroke-opacity: 1;"/><g class="slicetext"><text data-notex="1" class="slicetext" text-anchor="middle" x="0" y="0" style="font-family: 'Times New Roman'; font-size: 12px; fill: rgb(0, 0, 0); fill-opacity: 1; white-space: pre;" transform="translate(276.52107931658236,200.54000241775628)scale(0.8800076861931426)rotate(-5.741999999999962)"><tspan class="line" dy="0em" x="0" y="0">Energy Consumption</tspan><tspan class="line" dy="1.3em" x="0" y="0">53.19</tspan></text></g></g><g class="slice cursor-pointer"><path class="surface" d="M241.34082570144068,268.3619597619705L200.18165140288136,276.723919523941A84,84 0,0,0 300.8240322773096,341.97700800285475L291.6620161386548,300.9885040014274A42,42 0,0,1 241.34082570144068,268.3619597619705Z" style="pointer-events: none; stroke-width: 1; fill: rgb(254, 166, 71); fill-opacity: 1; stroke: rgb(0, 0, 0); stroke-opacity: 1;"/><g class="slicetext"><text data-notex="1" class="slicetext" text-anchor="middle" x="0" y="0" style="font-family: 'Times New Roman'; font-size: 12px; fill: rgb(0, 0, 0); fill-opacity: 1; white-space: pre;" transform="translate(252.76820317302256,305.5549366006642)rotate(32.95799999999997)"><tspan class="line" dy="0em" x="0" y="0">Energy Sources</tspan><tspan class="line" dy="1.3em" x="0" y="0">25.31</tspan></text></g></g><g class="slice cursor-pointer"><path class="surface" d="M291.6620161386548,300.9885040014274L300.8240322773096,341.97700800285475A84,84 0,0,0 366.5,259.99999999999994L324.5,260A42,42 0,0,1 291.6620161386548,300.9885040014274Z" style="pointer-events: none; stroke-width: 1; fill: rgb(254, 191, 90); fill-opacity: 1; stroke: rgb(0, 0, 0); stroke-opacity: 1;"/><g class="slicetext"><text data-notex="1" class="slicetext" text-anchor="middle" x="0" y="0" style="font-family: 'Times New Roman'; font-size: 12px; fill: rgb(0, 0, 0); fill-opacity: 1; white-space: pre;" transform="translate(329.20594017685573,297.41851397414086)scale(0.7346963443091717)rotate(-51.30000000000007)"><tspan class="line" dy="0em" x="0" y="0">Energy Infrastructure</tspan><tspan class="line" dy="1.3em" x="0" y="0">21.5</tspan></text></g></g><g class="slice cursor-pointer"><path class="surface" d="M366.5,260L408.5,260A126,126 0,0,0 235.74849251013157,142.99445933023182L251.3323283400877,181.99630622015454A84,84 0,0,1 366.5,260Z" style="pointer-events: none; stroke-width: 1; fill: rgb(253, 123, 55); fill-opacity: 1; stroke: rgb(0, 0, 0); stroke-opacity: 1;"/><g class="slicetext"><text data-notex="1" class="slicetext" text-anchor="middle" x="0" y="0" style="font-family: 'Times New Roman'; font-size: 12px; fill: rgb(0, 0, 0); fill-opacity: 1; white-space: pre;" transform="translate(342.2299186412207,171.2133867671918)rotate(34.110000000000014)"><tspan class="line" dy="0em" x="0" y="0">Industrial</tspan><tspan class="line" dy="1.3em" x="0" y="0">31.05</tspan></text></g></g><g class="slice cursor-pointer"><path class="surface" d="M251.3323283400877,181.99630622015454L235.74849251013157,142.99445933023182A126,126 0,0,0 159.02247710432204,285.0858792859115L200.18165140288136,276.723919523941A84,84 0,0,1 251.3323283400877,181.99630622015454Z" style="pointer-events: none; stroke-width: 1; fill: rgb(254, 186, 85); fill-opacity: 1; stroke: rgb(0, 0, 0); stroke-opacity: 1;"/><g class="slicetext"><text data-notex="1" class="slicetext" text-anchor="middle" x="0" y="0" style="font-family: 'Times New Roman'; font-size: 12px; fill: rgb(0, 0, 0); fill-opacity: 1; white-space: pre;" transform="translate(188.64572199319448,209.70268796225972)rotate(-61.63200000000006)"><tspan class="line" dy="0em" x="0" y="0">Residential</tspan><tspan class="line" dy="1.3em" x="0" y="0">22.14</tspan></text></g></g><g class="slice"><path class="surface" d="M200.18165140288136,276.723919523941L159.02247710432204,285.0858792859115A126,126 0,0,0 309.98604841596443,382.9655120042822L300.8240322773096,341.97700800285475A84,84 0,0,1 200.18165140288136,276.723919523941Z" style="pointer-events: none; stroke-width: 1; fill: rgb(254, 166, 71); fill-opacity: 1; stroke: rgb(0, 0, 0); stroke-opacity: 1; opacity: 1;"/><g class="slicetext"><text data-notex="1" class="slicetext" text-anchor="middle" x="0" y="0" style="font-family: 'Times New Roman'; font-size: 12px; fill: rgb(0, 0, 0); fill-opacity: 1; white-space: pre;" transform="translate(228.69001318257384,342.67730662585075)rotate(32.95799999999997)"><tspan class="line" dy="0em" x="0" y="0">Fossil Fuels</tspan><tspan class="line" dy="1.3em" x="0" y="0">25.31</tspan></text></g></g><g class="slice"><path class="surface" d="M300.8240322773096,341.97700800285475L309.98604841596443,382.9655120042822A126,126 0,0,0 388.5446128056831,328.0480719410386L353.196408537122,305.3653812940257A84,84 0,0,1 300.8240322773096,341.97700800285475Z" style="pointer-events: none; stroke-width: 1; fill: rgb(255, 234, 154); fill-opacity: 1; stroke: rgb(0, 0, 0); stroke-opacity: 1; opacity: 1;"/><g class="slicetext"><text data-notex="1" class="slicetext" text-anchor="middle" x="0" y="0" style="font-family: 'Times New Roman'; font-size: 12px; fill: rgb(0, 0, 0); fill-opacity: 1; white-space: pre;" transform="translate(340.06268961039876,342.34255371328777)rotate(-34.95600000000002)"><tspan class="line" dy="0em" x="0" y="0">Transmission</tspan><tspan class="line" dy="1.3em" x="0" y="0">12.42</tspan></text></g></g><g class="slice cursor-pointer"><path class="surface" d="M353.196408537122,305.3653812940257L388.5446128056831,328.0480719410386A126,126 0,0,0 408.5,260.00000000000006L366.5,260A84,84 0,0,1 353.196408537122,305.3653812940257Z" style="pointer-events: none; stroke-width: 1; fill: rgb(255, 244, 178); fill-opacity: 1; stroke: rgb(0, 0, 0); stroke-opacity: 1;"/><g class="slicetext"><text data-notex="1" class="slicetext" text-anchor="middle" x="0" y="0" style="font-family: 'Times New Roman'; font-size: 12px; fill: rgb(0, 0, 0); fill-opacity: 1; white-space: pre;" transform="translate(382.5396707420056,289.3370599269654)scale(0.9725510536007091)rotate(-73.65599999999995)"><tspan class="line" dy="0em" x="0" y="0">Generation</tspan><tspan class="line" dy="1.3em" x="0" y="0">9.08</tspan></text></g></g><g class="slice cursor-pointer"><path class="surface" d="M408.5,260L450.5,260A168,168 0,0,0 299.88580680207093,92.90202358543937L295.5393551015532,134.67651768907953A126,126 0,0,1 408.5,260Z" style="pointer-events: none; stroke-width: 1; fill: rgb(254, 179, 77); fill-opacity: 1; stroke: rgb(0, 0, 0); stroke-opacity: 1;"/><g class="slicetext"><text data-notex="1" class="slicetext" text-anchor="middle" x="0" y="0" style="font-family: 'Times New Roman'; font-size: 12px; fill: rgb(0, 0, 0); fill-opacity: 1; white-space: pre;" transform="translate(392.42737663578833,160.91667476996795)rotate(47.97000000000003)"><tspan class="line" dy="0em" x="0" y="0">Manufacturing</tspan><tspan class="line" dy="1.3em" x="0" y="0">23.35</tspan></text></g></g><g class="slice"><path class="surface" d="M295.5393551015532,134.67651768907953L299.88580680207093,92.90202358543937A168,168 0,0,0 220.1646566801754,103.9926124403091L235.74849251013154,142.99445933023185A126,126 0,0,1 295.5393551015532,134.67651768907953Z" style="pointer-events: none; stroke-width: 1; fill: rgb(255, 249, 188); fill-opacity: 1; stroke: rgb(0, 0, 0); stroke-opacity: 1; opacity: 1;"/><g class="slicetext"><text data-notex="1" class="slicetext" text-anchor="middle" x="0" y="0" style="font-family: 'Times New Roman'; font-size: 12px; fill: rgb(0, 0, 0); fill-opacity: 1; white-space: pre;" transform="translate(261.8386782844775,111.4826983711773)rotate(-7.920000000000073)"><tspan class="line" dy="0em" x="0" y="0">Mining</tspan><tspan class="line" dy="1.3em" x="0" y="0">7.7</tspan></text></g></g><g class="slice cursor-pointer"><path class="surface" d="M235.74849251013157,142.99445933023182L220.16465668017543,103.99261244030907A168,168 0,0,0 125.15961902630369,201.11023420786847L164.49471426972775,215.83267565590137A126,126 0,0,1 235.74849251013157,142.99445933023182Z" style="pointer-events: none; stroke-width: 1; fill: rgb(255, 231, 148); fill-opacity: 1; stroke: rgb(0, 0, 0); stroke-opacity: 1;"/><g class="slicetext"><text data-notex="1" class="slicetext" text-anchor="middle" x="0" y="0" style="font-family: 'Times New Roman'; font-size: 12px; fill: rgb(0, 0, 0); fill-opacity: 1; white-space: pre;" transform="translate(175.88941258336843,155.93800540850168)rotate(-45.629999999999995)"><tspan class="line" dy="0em" x="0" y="0">Appliances</tspan><tspan class="line" dy="1.3em" x="0" y="0">13.25</tspan></text></g></g><g class="slice"><path class="surface" d="M164.49471426972775,215.83267565590137L125.15961902630369,201.11023420786847A168,168 0,0,0 117.86330280576271,293.447839047882L159.02247710432204,285.0858792859115A126,126 0,0,1 164.49471426972775,215.83267565590137Z" style="pointer-events: none; stroke-width: 1; fill: rgb(255, 245, 179); fill-opacity: 1; stroke: rgb(0, 0, 0); stroke-opacity: 1; opacity: 1;"/><g class="slicetext"><text data-notex="1" class="slicetext" text-anchor="middle" x="0" y="0" style="font-family: 'Times New Roman'; font-size: 12px; fill: rgb(0, 0, 0); fill-opacity: 1; white-space: pre;" transform="translate(133.13919552194017,248.19783486571365)rotate(-85.48199999999997)"><tspan class="line" dy="0em" x="0" y="0">Heating</tspan><tspan class="line" dy="1.3em" x="0" y="0">8.89</tspan></text></g></g><g class="slice cursor-pointer"><path class="surface" d="M388.5446128056831,328.0480719410386L423.8928170742441,350.73076258805145A168,168 0,0,0 450.5,260.00000000000006L408.5,260.00000000000006A126,126 0,0,1 388.5446128056831,328.0480719410386Z" style="pointer-events: none; stroke-width: 1; fill: rgb(255, 244, 178); fill-opacity: 1; stroke: rgb(0, 0, 0); stroke-opacity: 1;"/><g class="slicetext"><text data-notex="1" class="slicetext" text-anchor="middle" x="0" y="0" style="font-family: 'Times New Roman'; font-size: 12px; fill: rgb(0, 0, 0); fill-opacity: 1; white-space: pre;" transform="translate(420.71635055972007,300.70350558612347)rotate(-73.65599999999995)"><tspan class="line" dy="0em" x="0" y="0">Thermal Plants</tspan><tspan class="line" dy="1.3em" x="0" y="0">9.08</tspan></text></g></g><g class="slice"><path class="surface" d="M450.5,260L492.5,260A210,210 0,0,0 417.8780726117942,99.46097840115075L390.80245808943533,131.5687827209206A168,168 0,0,1 450.5,260Z" style="pointer-events: none; stroke-width: 1; fill: rgb(255, 229, 144); fill-opacity: 1; stroke: rgb(0, 0, 0); stroke-opacity: 1; opacity: 1;"/><g class="slicetext"><text data-notex="1" class="slicetext" text-anchor="middle" x="0" y="0" style="font-family: 'Times New Roman'; font-size: 12px; fill: rgb(0, 0, 0); fill-opacity: 1; white-space: pre;" transform="translate(454.78514095272305,179.9182282899059)rotate(65.06999999999994)"><tspan class="line" dy="0em" x="0" y="0">Steel Production</tspan><tspan class="line" dy="1.3em" x="0" y="0">13.85</tspan></text></g></g><g class="slice"><path class="surface" d="M390.80245808943533,131.5687827209206L417.8780726117942,99.46097840115075A210,210 0,0,0 304.2322585025887,51.1275294817992L299.88580680207093,92.90202358543937A168,168 0,0,1 390.80245808943533,131.5687827209206Z" style="pointer-events: none; stroke-width: 1; fill: rgb(255, 243, 175); fill-opacity: 1; stroke: rgb(0, 0, 0); stroke-opacity: 1; opacity: 1;"/><g class="slicetext"><text data-notex="1" class="slicetext" text-anchor="middle" x="0" y="0" style="font-family: 'Times New Roman'; font-size: 12px; fill: rgb(0, 0, 0); fill-opacity: 1; white-space: pre;" transform="translate(356.973644970191,84.47188400244505)rotate(23.039999999999964)"><tspan class="line" dy="0em" x="0" y="0">Cement Kilns</tspan><tspan class="line" dy="1.3em" x="0" y="0">9.5</tspan></text></g></g><g class="slice"><path class="surface" d="M220.16465668017543,103.99261244030907L204.58082085021925,64.99076555038636A210,210 0,0,0 122.98625856356387,123.41535118121877L154.8890068508511,150.732280944975A168,168 0,0,1 220.16465668017543,103.99261244030907Z" style="pointer-events: none; stroke-width: 1; fill: rgb(255, 249, 188); fill-opacity: 1; stroke: rgb(0, 0, 0); stroke-opacity: 1; opacity: 1;"/><g class="slicetext"><text data-notex="1" class="slicetext" text-anchor="middle" x="0" y="0" style="font-family: 'Times New Roman'; font-size: 12px; fill: rgb(0, 0, 0); fill-opacity: 1; white-space: pre;" transform="translate(171.26963932391874,104.93979683901931)rotate(-35.60400000000004)"><tspan class="line" dy="0em" x="0" y="0">Refrigerators</tspan><tspan class="line" dy="1.3em" x="0" y="0">7.68</tspan></text></g></g><g class="slice"><path class="surface" d="M154.8890068508511,150.732280944975L122.98625856356387,123.41535118121877A210,210 0,0,0 85.82452378287962,186.3877927598356L125.15961902630369,201.11023420786847A168,168 0,0,1 154.8890068508511,150.732280944975Z" style="pointer-events: none; stroke-width: 1; fill: rgb(255, 255, 204); fill-opacity: 1; stroke: rgb(0, 0, 0); stroke-opacity: 1; opacity: 1;"/><g class="slicetext"><text data-notex="1" class="slicetext" text-anchor="middle" x="0" y="0" style="font-family: 'Times New Roman'; font-size: 12px; fill: rgb(0, 0, 0); fill-opacity: 1; white-space: pre;" transform="translate(110.66957033604851,158.73107095051506)scale(0.6973133352272743)rotate(-59.45399999999995)"><tspan class="line" dy="0em" x="0" y="0">Washing Machines</tspan><tspan class="line" dy="1.3em" x="0" y="0">5.57</tspan></text></g></g><g class="slice"><path class="surface" d="M423.8928170742441,350.73076258805145L459.2410213428051,373.4134532350643A210,210 0,0,0 492.5,260.00000000000006L450.5,260.00000000000006A168,168 0,0,1 423.8928170742441,350.73076258805145Z" style="pointer-events: none; stroke-width: 1; fill: rgb(255, 244, 178); fill-opacity: 1; stroke: rgb(0, 0, 0); stroke-opacity: 1; opacity: 1;"/><g class="slicetext"><text data-notex="1" class="slicetext" text-anchor="middle" x="0" y="0" style="font-family: 'Times New Roman'; font-size: 12px; fill: rgb(0, 0, 0); fill-opacity: 1; white-space: pre;" transform="translate(458.2406616413673,311.7076697817393)rotate(-73.65599999999995)"><tspan class="line" dy="0em" x="0" y="0">Gas Turbines</tspan><tspan class="line" dy="1.3em" x="0" y="0">9.08</tspan></text></g></g></g></g><g class="glimages"/><defs id="topdefs-0a174b"><g class="clips"/></defs><g class="layer-above"><g class="imagelayer"/><g class="shapelayer"/></g><g class="infolayer"><g class="cb6ad1b2 colorbar" transform="translate(10,50)"><rect class="cbbg" x="571.5" y="63" width="48.015625" height="295" style="fill: rgb(0, 0, 0); fill-opacity: 0; stroke: rgb(68, 68, 68); stroke-opacity: 1; stroke-width: 0;"/><g class="cbfills" transform="translate(0,93)"><rect class="cbfill gradient_filled" style="fill: url('#g0a174b-cb6ad1b2');" x="582" y="0" width="15" height="254"/></g><g class="cblines" transform="translate(0,93)"/><g class="cbaxis crisp" transform="translate(0,-50)"><g class="ycb6ad1b2tick"><text text-anchor="start" x="600.4" y="4.199999999999999" transform="translate(0,373.37000000000006)" style="font-family: 'Times New Roman'; font-size: 12px; fill: rgb(42, 63, 95); fill-opacity: 1; white-space: pre; opacity: 1;">10</text></g><g class="ycb6ad1b2tick"><text text-anchor="start" x="600.4" y="4.199999999999999" style="font-family: 'Times New Roman'; font-size: 12px; fill: rgb(42, 63, 95); fill-opacity: 1; white-space: pre; opacity: 1;" transform="translate(0,320.0300000000001)">20</text></g><g class="ycb6ad1b2tick"><text text-anchor="start" x="600.4" y="4.199999999999999" style="font-family: 'Times New Roman'; font-size: 12px; fill: rgb(42, 63, 95); fill-opacity: 1; white-space: pre; opacity: 1;" transform="translate(0,266.69000000000005)">30</text></g><g class="ycb6ad1b2tick"><text text-anchor="start" x="600.4" y="4.199999999999999" style="font-family: 'Times New Roman'; font-size: 12px; fill: rgb(42, 63, 95); fill-opacity: 1; white-space: pre; opacity: 1;" transform="translate(0,213.35000000000005)">40</text></g><g class="ycb6ad1b2tick"><text text-anchor="start" x="600.4" y="4.199999999999999" style="font-family: 'Times New Roman'; font-size: 12px; fill: rgb(42, 63, 95); fill-opacity: 1; white-space: pre; opacity: 1;" transform="translate(0,160.02000000000007)">50</text></g></g><g class="cbtitleunshift" transform="translate(-10,-50)"><g class="cbtitle" transform="translate(-0.5,-0.5)"><text class="ycb6ad1b2title" x="592.25" y="135.75" text-anchor="start" style="opacity: 1; font-family: 'Times New Roman'; font-size: 13px; fill: rgb(42, 63, 95); fill-opacity: 1; white-space: pre;">%</text></g></g><rect class="cboutline" x="582" y="93" width="15" height="254" style="stroke: rgb(68, 68, 68); stroke-opacity: 1; fill: none; stroke-width: 1;"/></g><g class="g-gtitle"><text class="gtitle" x="320" y="25" text-anchor="middle" dy="0em" style="opacity: 1; font-family: 'Times New Roman'; font-size: 16px; fill: rgb(42, 63, 95); fill-opacity: 1; white-space: pre;">Energy Distribution by Category (2020) (%)</text></g></g></svg>