<svg class="main-svg" xmlns="http://www.w3.org/2000/svg" xmlns:xlink="http://www.w3.org/1999/xlink" width="1920" height="1440" style="" viewBox="0 0 640 480"><rect x="0" y="0" width="640" height="480" style="fill: rgb(255, 255, 255); fill-opacity: 1;"/><defs id="defs-b46dd0"><g class="clips"/><g class="gradients"><linearGradient x1="0" y1="1" x2="0" y2="0" gradientUnits="objectBoundingBox" id="gb46dd0-cb5d2077"><stop offset="0%" stop-color="rgb(255, 245, 240)" stop-opacity="1"/><stop offset="12.5%" stop-color="rgb(254, 224, 210)" stop-opacity="1"/><stop offset="25%" stop-color="rgb(252, 187, 161)" stop-opacity="1"/><stop offset="37.5%" stop-color="rgb(252, 146, 114)" stop-opacity="1"/><stop offset="50%" stop-color="rgb(251, 106, 74)" stop-opacity="1"/><stop offset="62.5%" stop-color="rgb(239, 59, 44)" stop-opacity="1"/><stop offset="75%" stop-color="rgb(203, 24, 29)" stop-opacity="1"/><stop offset="87.5%" stop-color="rgb(165, 15, 21)" stop-opacity="1"/><stop offset="100%" stop-color="rgb(103, 0, 13)" stop-opacity="1"/></linearGradient></g><g class="patterns"/></defs><g class="bglayer"/><g class="layer-below"><g class="imagelayer"/><g class="shapelayer"/></g><g class="cartesianlayer"/><g class="polarlayer"/><g class="smithlayer"/><g class="ternarylayer"/><g class="geolayer"/><g class="funnelarealayer"/><g class="pielayer"/><g class="iciclelayer"/><g class="treemaplayer"/><g class="sunburstlayer"><g class="trace sunburst" stroke-linejoin="round" style="opacity: 1;"><g class="slice"><path class="surface" d="M282.5,260A0,0 0,1,0 282.5,260A0,0 0,1,0 282.5,260ZM324.5,260A42,42 0,1,1 240.5,260A42,42 0,1,1 324.5,260Z" style="pointer-events: none; stroke-width: 1; fill: rgb(255, 255, 255); fill-opacity: 1; stroke: rgb(0, 0, 0); stroke-opacity: 1;"/><g class="slicetext"><text data-notex="1" class="slicetext" text-anchor="middle" x="0" y="0" style="font-family: 'Times New Roman'; font-size: 12px; fill: rgb(0, 0, 0); fill-opacity: 1; white-space: pre;" transform="translate(282.5,264)">100</text></g></g><g class="slice cursor-pointer"><path class="surface" d="M324.5,260L366.5,260A84,84 0,0,0 198.89292674890754,251.88474877859844L240.69646337445377,255.94237438929923A42,42 0,0,1 324.5,260Z" style="pointer-events: none; stroke-width: 1; fill: rgb(103, 0, 13); fill-opacity: 1; stroke: rgb(0, 0, 0); stroke-opacity: 1;"/><g class="slicetext"><text data-notex="1" class="slicetext" text-anchor="middle" x="0" y="0" style="font-family: 'Times New Roman'; font-size: 12px; fill: rgb(0, 0, 0); fill-opacity: 1; white-space: pre;" transform="translate(285.4336344976402,199.41063822630568)scale(0.929729920353367)rotate(2.7719999999999345)"><tspan class="line" dy="0em" x="0" y="0">Corporate Strategy</tspan><tspan class="line" dy="1.3em" x="0" y="0">48.46</tspan></text></g></g><g class="slice cursor-pointer"><path class="surface" d="M240.69646337445377,255.94237438929923L198.89292674890754,251.88474877859844A84,84 0,0,0 300.8240322773096,341.97700800285475L291.6620161386548,300.9885040014274A42,42 0,0,1 240.69646337445377,255.94237438929923Z" style="pointer-events: none; stroke-width: 1; fill: rgb(244, 78, 56); fill-opacity: 1; stroke: rgb(0, 0, 0); stroke-opacity: 1;"/><g class="slicetext"><text data-notex="1" class="slicetext" text-anchor="middle" x="0" y="0" style="font-family: 'Times New Roman'; font-size: 12px; fill: rgb(0, 0, 0); fill-opacity: 1; white-space: pre;" transform="translate(247.39822023311157,299.28672055366945)scale(0.8431803965209909)rotate(41.47199999999998)"><tspan class="line" dy="0em" x="0" y="0">Financial Management</tspan><tspan class="line" dy="1.3em" x="0" y="0">30.04</tspan></text></g></g><g class="slice cursor-pointer"><path class="surface" d="M291.6620161386548,300.9885040014274L300.8240322773096,341.97700800285475A84,84 0,0,0 366.5,259.99999999999994L324.5,260A42,42 0,0,1 291.6620161386548,300.9885040014274Z" style="pointer-events: none; stroke-width: 1; fill: rgb(252, 145, 113); fill-opacity: 1; stroke: rgb(0, 0, 0); stroke-opacity: 1;"/><g class="slicetext"><text data-notex="1" class="slicetext" text-anchor="middle" x="0" y="0" style="font-family: 'Times New Roman'; font-size: 12px; fill: rgb(0, 0, 0); fill-opacity: 1; white-space: pre;" transform="translate(329.5507123068995,297.6947285352243)scale(0.6950199687134836)rotate(-51.30000000000007)"><tspan class="line" dy="0em" x="0" y="0">Digital Transformation</tspan><tspan class="line" dy="1.3em" x="0" y="0">21.5</tspan></text></g></g><g class="slice cursor-pointer"><path class="surface" d="M366.5,260L408.5,260A126,126 0,0,0 157.0893901233613,247.82712316789767L198.89292674890754,251.88474877859844A84,84 0,0,1 366.5,260Z" style="pointer-events: none; stroke-width: 1; fill: rgb(103, 0, 13); fill-opacity: 1; stroke: rgb(0, 0, 0); stroke-opacity: 1;"/><g class="slicetext"><text data-notex="1" class="slicetext" text-anchor="middle" x="0" y="0" style="font-family: 'Times New Roman'; font-size: 12px; fill: rgb(0, 0, 0); fill-opacity: 1; white-space: pre;" transform="translate(287.5201847378939,156.31639882210823)rotate(2.7719999999999345)"><tspan class="line" dy="0em" x="0" y="0">Innovation Strategy</tspan><tspan class="line" dy="1.3em" x="0" y="0">48.46</tspan></text></g></g><g class="slice cursor-pointer"><path class="surface" d="M198.89292674890754,251.88474877859844L157.0893901233613,247.82712316789767A126,126 0,0,0 248.87034934563275,381.42918346454127L260.0802328970885,340.9527889763608A84,84 0,0,1 198.89292674890754,251.88474877859844Z" style="pointer-events: none; stroke-width: 1; fill: rgb(252, 139, 107); fill-opacity: 1; stroke: rgb(0, 0, 0); stroke-opacity: 1;"/><g class="slicetext"><text data-notex="1" class="slicetext" text-anchor="middle" x="0" y="0" style="font-family: 'Times New Roman'; font-size: 12px; fill: rgb(0, 0, 0); fill-opacity: 1; white-space: pre;" transform="translate(203.2781633912576,314.4232337372353)rotate(55.511999999999944)"><tspan class="line" dy="0em" x="0" y="0">Investment Strategy</tspan><tspan class="line" dy="1.3em" x="0" y="0">22.24</tspan></text></g></g><g class="slice"><path class="surface" d="M260.0802328970885,340.9527889763608L248.87034934563275,381.42918346454127A126,126 0,0,0 309.98604841596443,382.9655120042822L300.8240322773096,341.97700800285475A84,84 0,0,1 260.0802328970885,340.9527889763608Z" style="pointer-events: none; stroke-width: 1; fill: rgb(254, 234, 225); fill-opacity: 1; stroke: rgb(0, 0, 0); stroke-opacity: 1; opacity: 1;"/><g class="slicetext"><text data-notex="1" class="slicetext" text-anchor="middle" x="0" y="0" style="font-family: 'Times New Roman'; font-size: 12px; fill: rgb(0, 0, 0); fill-opacity: 1; white-space: pre;" transform="translate(279.63855177884636,373.8294341774404)scale(0.47742214532161875)rotate(1.4399999999999409)"><tspan class="line" dy="0em" x="0" y="0">Budgeting &amp; Planning</tspan><tspan class="line" dy="1.3em" x="0" y="0">7.8</tspan></text></g></g><g class="slice cursor-pointer"><path class="surface" d="M300.8240322773096,341.97700800285475L309.98604841596443,382.9655120042822A126,126 0,0,0 397.91587487676884,310.5487470312573L359.4439165845125,293.69916468750483A84,84 0,0,1 300.8240322773096,341.97700800285475Z" style="pointer-events: none; stroke-width: 1; fill: rgb(252, 194, 170); fill-opacity: 1; stroke: rgb(0, 0, 0); stroke-opacity: 1;"/><g class="slicetext"><text data-notex="1" class="slicetext" text-anchor="middle" x="0" y="0" style="font-family: 'Times New Roman'; font-size: 12px; fill: rgb(0, 0, 0); fill-opacity: 1; white-space: pre;" transform="translate(344.88236980695484,335.7458711858023)rotate(-39.474000000000046)"><tspan class="line" dy="0em" x="0" y="0">Data Strategy</tspan><tspan class="line" dy="1.3em" x="0" y="0">14.93</tspan></text></g></g><g class="slice"><path class="surface" d="M359.4439165845125,293.69916468750483L397.91587487676884,310.5487470312573A126,126 0,0,0 408.5,259.99999999999994L366.5,259.99999999999994A84,84 0,0,1 359.4439165845125,293.69916468750483Z" style="pointer-events: none; stroke-width: 1; fill: rgb(255, 239, 232); fill-opacity: 1; stroke: rgb(0, 0, 0); stroke-opacity: 1; opacity: 1;"/><g class="slicetext"><text data-notex="1" class="slicetext" text-anchor="middle" x="0" y="0" style="font-family: 'Times New Roman'; font-size: 12px; fill: rgb(0, 0, 0); fill-opacity: 1; white-space: pre;" transform="translate(395.760267227788,283.7149466650131)scale(0.42146741318755776)rotate(-78.17399999999998)"><tspan class="line" dy="0em" x="0" y="0">Technology Adoption</tspan><tspan class="line" dy="1.3em" x="0" y="0">6.57</tspan></text></g></g><g class="slice cursor-pointer"><path class="surface" d="M408.5,260L450.5,260A168,168 0,0,0 115.28585349781508,243.7694975571969L157.0893901233613,247.82712316789767A126,126 0,0,1 408.5,260Z" style="pointer-events: none; stroke-width: 1; fill: rgb(103, 0, 13); fill-opacity: 1; stroke: rgb(0, 0, 0); stroke-opacity: 1;"/><g class="slicetext"><text data-notex="1" class="slicetext" text-anchor="middle" x="0" y="0" style="font-family: 'Times New Roman'; font-size: 12px; fill: rgb(0, 0, 0); fill-opacity: 1; white-space: pre;" transform="translate(289.5989627544683,113.38268182541186)rotate(2.7719999999999345)"><tspan class="line" dy="0em" x="0" y="0">Process Innovation</tspan><tspan class="line" dy="1.3em" x="0" y="0">48.46</tspan></text></g></g><g class="slice cursor-pointer"><path class="surface" d="M157.0893901233613,247.82712316789767L115.28585349781508,243.7694975571969A168,168 0,0,0 177.21227961086225,390.9140784455925L203.53420970814668,358.18555883419435A126,126 0,0,1 157.0893901233613,247.82712316789767Z" style="pointer-events: none; stroke-width: 1; fill: rgb(252, 188, 162); fill-opacity: 1; stroke: rgb(0, 0, 0); stroke-opacity: 1;"/><g class="slicetext"><text data-notex="1" class="slicetext" text-anchor="middle" x="0" y="0" style="font-family: 'Times New Roman'; font-size: 12px; fill: rgb(0, 0, 0); fill-opacity: 1; white-space: pre;" transform="translate(153.60445400772036,314.24624173720605)rotate(67.17599999999993)"><tspan class="line" dy="0em" x="0" y="0">Asset Allocation</tspan><tspan class="line" dy="1.3em" x="0" y="0">15.76</tspan></text></g></g><g class="slice"><path class="surface" d="M203.53420970814668,358.18555883419435L177.21227961086225,390.9140784455925A168,168 0,0,0 237.66046579417701,421.90557795272167L248.87034934563275,381.42918346454127A126,126 0,0,1 203.53420970814668,358.18555883419435Z" style="pointer-events: none; stroke-width: 1; fill: rgb(255, 240, 232); fill-opacity: 1; stroke: rgb(0, 0, 0); stroke-opacity: 1; opacity: 1;"/><g class="slicetext"><text data-notex="1" class="slicetext" text-anchor="middle" x="0" y="0" style="font-family: 'Times New Roman'; font-size: 12px; fill: rgb(0, 0, 0); fill-opacity: 1; white-space: pre;" transform="translate(212.5963092335195,395.86350319466317)scale(0.6545799739779309)rotate(27.144000000000005)"><tspan class="line" dy="0em" x="0" y="0">Risk Management</tspan><tspan class="line" dy="1.3em" x="0" y="0">6.48</tspan></text></g></g><g class="slice"><path class="surface" d="M309.98604841596443,382.9655120042822L319.1480645546192,423.95401600570955A168,168 0,0,0 405.47135688472315,374.4641663837642L374.72851766354233,345.84812478782317A126,126 0,0,1 309.98604841596443,382.9655120042822Z" style="pointer-events: none; stroke-width: 1; fill: rgb(254, 228, 215); fill-opacity: 1; stroke: rgb(0, 0, 0); stroke-opacity: 1; opacity: 1;"/><g class="slicetext"><text data-notex="1" class="slicetext" text-anchor="middle" x="0" y="0" style="font-family: 'Times New Roman'; font-size: 12px; fill: rgb(0, 0, 0); fill-opacity: 1; white-space: pre;" transform="translate(355.6936235876708,387.66889804523385)scale(0.8055303753647124)rotate(-29.826000000000022)"><tspan class="line" dy="0em" x="0" y="0">Business Intelligence</tspan><tspan class="line" dy="1.3em" x="0" y="0">9.57</tspan></text></g></g><g class="slice"><path class="surface" d="M374.72851766354233,345.84812478782317L405.47135688472315,374.4641663837642A168,168 0,0,0 436.3878331690251,327.39832937500967L397.91587487676884,310.5487470312573A126,126 0,0,1 374.72851766354233,345.84812478782317Z" style="pointer-events: none; stroke-width: 1; fill: rgb(255, 244, 238); fill-opacity: 1; stroke: rgb(0, 0, 0); stroke-opacity: 1; opacity: 1;"/><g class="slicetext"><text data-notex="1" class="slicetext" text-anchor="middle" x="0" y="0" style="font-family: 'Times New Roman'; font-size: 12px; fill: rgb(0, 0, 0); fill-opacity: 1; white-space: pre;" transform="translate(412.03110358544535,345.0860315377797)scale(0.5812641301616598)rotate(-56.700000000000045)"><tspan class="line" dy="0em" x="0" y="0">Data Governance</tspan><tspan class="line" dy="1.3em" x="0" y="0">5.36</tspan></text></g></g><g class="slice"><path class="surface" d="M450.5,260L492.5,260A210,210 0,0,0 213.35493856184797,61.70990826893498L227.18395084947838,101.36792661514798A168,168 0,0,1 450.5,260Z" style="pointer-events: none; stroke-width: 1; fill: rgb(243, 75, 54); fill-opacity: 1; stroke: rgb(0, 0, 0); stroke-opacity: 1; opacity: 1;"/><g class="slicetext"><text data-notex="1" class="slicetext" text-anchor="middle" x="0" y="0" style="font-family: 'Times New Roman'; font-size: 12px; fill: rgb(0, 0, 0); fill-opacity: 1; white-space: pre;" transform="translate(391.7787921815773,106.16157624867127)rotate(35.388000000000034)"><tspan class="line" dy="0em" x="0" y="0">Agile Transformation</tspan><tspan class="line" dy="1.3em" x="0" y="0">30.34</tspan></text></g></g><g class="slice"><path class="surface" d="M227.18395084947838,101.36792661514798L213.35493856184797,61.70990826893498A210,210 0,0,0 73.48231687226885,239.7118719464961L115.28585349781508,243.7694975571969A168,168 0,0,1 227.18395084947838,101.36792661514798Z" style="pointer-events: none; stroke-width: 1; fill: rgb(252, 170, 142); fill-opacity: 1; stroke: rgb(0, 0, 0); stroke-opacity: 1; opacity: 1;"/><g class="slicetext"><text data-notex="1" class="slicetext" text-anchor="middle" x="0" y="0" style="font-family: 'Times New Roman'; font-size: 12px; fill: rgb(0, 0, 0); fill-opacity: 1; white-space: pre;" transform="translate(133.8919457778922,143.43354850748497)rotate(-51.84000000000003)"><tspan class="line" dy="0em" x="0" y="0">Automation Systems</tspan><tspan class="line" dy="1.3em" x="0" y="0">18.12</tspan></text></g></g><g class="slice"><path class="surface" d="M115.28585349781508,243.7694975571969L73.48231687226885,239.7118719464961A210,210 0,0,0 79.16332446093529,312.4804380766885L119.83065956874825,301.98435046135074A168,168 0,0,1 115.28585349781508,243.7694975571969Z" style="pointer-events: none; stroke-width: 1; fill: rgb(255, 243, 237); fill-opacity: 1; stroke: rgb(0, 0, 0); stroke-opacity: 1; opacity: 1;"/><g class="slicetext"><text data-notex="1" class="slicetext" text-anchor="middle" x="0" y="0" style="font-family: 'Times New Roman'; font-size: 12px; fill: rgb(0, 0, 0); fill-opacity: 1; white-space: pre;" transform="translate(98.71503026713502,274.183444075317)rotate(85.53599999999994)"><tspan class="line" dy="0em" x="0" y="0">Equities</tspan><tspan class="line" dy="1.3em" x="0" y="0">5.56</tspan></text></g></g><g class="slice"><path class="surface" d="M119.83065956874825,301.98435046135074L79.16332446093529,312.4804380766885A210,210 0,0,0 106.25950494299988,374.18970138354655L141.5076039543999,351.3517611068372A168,168 0,0,1 119.83065956874825,301.98435046135074Z" style="pointer-events: none; stroke-width: 1; fill: rgb(255, 245, 240); fill-opacity: 1; stroke: rgb(0, 0, 0); stroke-opacity: 1; opacity: 1;"/><g class="slicetext"><text data-notex="1" class="slicetext" text-anchor="middle" x="0" y="0" style="font-family: 'Times New Roman'; font-size: 12px; fill: rgb(0, 0, 0); fill-opacity: 1; white-space: pre;" transform="translate(109.84013817926838,335.8139463541925)rotate(66.29399999999998)"><tspan class="line" dy="0em" x="0" y="0">Real Estate</tspan><tspan class="line" dy="1.3em" x="0" y="0">5.13</tspan></text></g></g><g class="slice"><path class="surface" d="M141.5076039543999,351.3517611068372L106.25950494299988,374.18970138354655A210,210 0,0,0 150.8903495135778,423.6425980569906L177.21227961086225,390.9140784455925A168,168 0,0,1 141.5076039543999,351.3517611068372Z" style="pointer-events: none; stroke-width: 1; fill: rgb(255, 245, 240); fill-opacity: 1; stroke: rgb(0, 0, 0); stroke-opacity: 1; opacity: 1;"/><g class="slicetext"><text data-notex="1" class="slicetext" text-anchor="middle" x="0" y="0" style="font-family: 'Times New Roman'; font-size: 12px; fill: rgb(0, 0, 0); fill-opacity: 1; white-space: pre;" transform="translate(145.31095450623192,383.5910214373919)rotate(47.93399999999997)"><tspan class="line" dy="0em" x="0" y="0">Bonds</tspan><tspan class="line" dy="1.3em" x="0" y="0">5.07</tspan></text></g></g></g></g><g class="glimages"/><defs id="topdefs-b46dd0"><g class="clips"/></defs><g class="layer-above"><g class="imagelayer"/><g class="shapelayer"/></g><g class="infolayer"><g class="cb5d2077 colorbar" transform="translate(10,50)"><rect class="cbbg" x="571.5" y="63" width="48.015625" height="295" style="fill: rgb(0, 0, 0); fill-opacity: 0; stroke: rgb(68, 68, 68); stroke-opacity: 1; stroke-width: 0;"/><g class="cbfills" transform="translate(0,93)"><rect class="cbfill gradient_filled" style="fill: url('#gb46dd0-cb5d2077');" x="582" y="0" width="15" height="254"/></g><g class="cblines" transform="translate(0,93)"/><g class="cbaxis crisp" transform="translate(0,-50)"><g class="ycb5d2077tick"><text text-anchor="start" x="600.4" y="4.199999999999999" transform="translate(0,368.14000000000004)" style="font-family: 'Times New Roman'; font-size: 12px; fill: rgb(42, 63, 95); fill-opacity: 1; white-space: pre; opacity: 1;">10</text></g><g class="ycb5d2077tick"><text text-anchor="start" x="600.4" y="4.199999999999999" style="font-family: 'Times New Roman'; font-size: 12px; fill: rgb(42, 63, 95); fill-opacity: 1; white-space: pre; opacity: 1;" transform="translate(0,309.6)">20</text></g><g class="ycb5d2077tick"><text text-anchor="start" x="600.4" y="4.199999999999999" style="font-family: 'Times New Roman'; font-size: 12px; fill: rgb(42, 63, 95); fill-opacity: 1; white-space: pre; opacity: 1;" transform="translate(0,251.06000000000006)">30</text></g><g class="ycb5d2077tick"><text text-anchor="start" x="600.4" y="4.199999999999999" style="font-family: 'Times New Roman'; font-size: 12px; fill: rgb(42, 63, 95); fill-opacity: 1; white-space: pre; opacity: 1;" transform="translate(0,192.52000000000007)">40</text></g></g><g class="cbtitleunshift" transform="translate(-10,-50)"><g class="cbtitle" transform="translate(-0.5,-0.5)"><text class="ycb5d2077title" x="592.25" y="135.75" text-anchor="start" style="opacity: 1; font-family: 'Times New Roman'; font-size: 13px; fill: rgb(42, 63, 95); fill-opacity: 1; white-space: pre;">%</text></g></g><rect class="cboutline" x="582" y="93" width="15" height="254" style="stroke: rgb(68, 68, 68); stroke-opacity: 1; fill: none; stroke-width: 1;"/></g><g class="g-gtitle"><text class="gtitle" x="320" y="25" text-anchor="middle" dy="0em" style="opacity: 1; font-family: 'Times New Roman'; font-size: 16px; fill: rgb(42, 63, 95); fill-opacity: 1; white-space: pre;">Business Distribution by Category (2021) (%)</text></g></g></svg>