<svg class="main-svg" xmlns="http://www.w3.org/2000/svg" xmlns:xlink="http://www.w3.org/1999/xlink" width="1920" height="1440" style="" viewBox="0 0 640 480"><rect x="0" y="0" width="640" height="480" style="fill: rgb(255, 255, 255); fill-opacity: 1;"/><defs id="defs-cbfa21"><g class="clips"/><g class="gradients"><linearGradient x1="0" y1="1" x2="0" y2="0" gradientUnits="objectBoundingBox" id="gcbfa21-cb6bfb45"><stop offset="0%" stop-color="rgb(247, 252, 245)" stop-opacity="1"/><stop offset="12.5%" stop-color="rgb(229, 245, 224)" stop-opacity="1"/><stop offset="25%" stop-color="rgb(199, 233, 192)" stop-opacity="1"/><stop offset="37.5%" stop-color="rgb(161, 217, 155)" stop-opacity="1"/><stop offset="50%" stop-color="rgb(116, 196, 118)" stop-opacity="1"/><stop offset="62.5%" stop-color="rgb(65, 171, 93)" stop-opacity="1"/><stop offset="75%" stop-color="rgb(35, 139, 69)" stop-opacity="1"/><stop offset="87.5%" stop-color="rgb(0, 109, 44)" stop-opacity="1"/><stop offset="100%" stop-color="rgb(0, 68, 27)" stop-opacity="1"/></linearGradient></g><g class="patterns"/></defs><g class="bglayer"/><g class="layer-below"><g class="imagelayer"/><g class="shapelayer"/></g><g class="cartesianlayer"/><g class="polarlayer"/><g class="smithlayer"/><g class="ternarylayer"/><g class="geolayer"/><g class="funnelarealayer"/><g class="pielayer"/><g class="iciclelayer"/><g class="treemaplayer"/><g class="sunburstlayer"><g class="trace sunburst" stroke-linejoin="round" style="opacity: 1;"><g class="slice"><path class="surface" d="M282.5,260A0,0 0,1,0 282.5,260A0,0 0,1,0 282.5,260ZM324.5,260A42,42 0,1,1 240.5,260A42,42 0,1,1 324.5,260Z" style="pointer-events: none; stroke-width: 1; fill: rgb(255, 255, 255); fill-opacity: 1; stroke: rgb(0, 0, 0); stroke-opacity: 1;"/><g class="slicetext"><text data-notex="1" class="slicetext" text-anchor="middle" x="0" y="0" style="font-family: 'Times New Roman'; font-size: 12px; fill: rgb(0, 0, 0); fill-opacity: 1; white-space: pre;" transform="translate(282.5,264)">99.99</text></g></g><g class="slice cursor-pointer"><path class="surface" d="M324.5,260L366.5,260A84,84 0,0,0 220.71377562912843,203.09250947377564L251.60688781456423,231.54625473688782A42,42 0,0,1 324.5,260Z" style="pointer-events: none; stroke-width: 1; fill: rgb(0, 68, 27); fill-opacity: 1; stroke: rgb(0, 0, 0); stroke-opacity: 1;"/><g class="slicetext"><text data-notex="1" class="slicetext" text-anchor="middle" x="0" y="0" style="font-family: 'Times New Roman'; font-size: 12px; fill: rgb(0, 0, 0); fill-opacity: 1; white-space: pre;" transform="translate(303.7261843542519,204.84355841907515)scale(0.8431803965209909)rotate(21.323132313231326)"><tspan class="line" dy="0em" x="0" y="0">Financial Management</tspan><tspan class="line" dy="1.3em" x="0" y="0">38.15</tspan></text></g></g><g class="slice cursor-pointer"><path class="surface" d="M251.60688781456423,231.54625473688782L220.71377562912843,203.09250947377564A84,84 0,0,0 252.89169964308167,338.60883251883666L267.69584982154083,299.3044162594183A42,42 0,0,1 251.60688781456423,231.54625473688782Z" style="pointer-events: none; stroke-width: 1; fill: rgb(25, 131, 62); fill-opacity: 1; stroke: rgb(0, 0, 0); stroke-opacity: 1;"/><g class="slicetext"><text data-notex="1" class="slicetext" text-anchor="middle" x="0" y="0" style="font-family: 'Times New Roman'; font-size: 12px; fill: rgb(0, 0, 0); fill-opacity: 1; white-space: pre;" transform="translate(230.36391294879556,272.37954963521753)scale(0.929729920353367)rotate(76.64266426642666)"><tspan class="line" dy="0em" x="0" y="0">Corporate Strategy</tspan><tspan class="line" dy="1.3em" x="0" y="0">31.11</tspan></text></g></g><g class="slice cursor-pointer"><path class="surface" d="M267.69584982154083,299.3044162594183L252.89169964308167,338.60883251883666A84,84 0,0,0 366.5,260L324.5,260A42,42 0,0,1 267.69584982154083,299.3044162594183Z" style="pointer-events: none; stroke-width: 1; fill: rgb(29, 134, 65); fill-opacity: 1; stroke: rgb(0, 0, 0); stroke-opacity: 1;"/><g class="slicetext"><text data-notex="1" class="slicetext" text-anchor="middle" x="0" y="0" style="font-family: 'Times New Roman'; font-size: 12px; fill: rgb(0, 0, 0); fill-opacity: 1; white-space: pre;" transform="translate(312.48652259981503,303.33759651452624)scale(0.8448793802746123)rotate(-34.68046804680466)"><tspan class="line" dy="0em" x="0" y="0">Digital Transformation</tspan><tspan class="line" dy="1.3em" x="0" y="0">30.73</tspan></text></g></g><g class="slice"><path class="surface" d="M366.5,260L408.5,260A126,126 0,0,0 189.82066344369267,174.63876421066345L220.71377562912843,203.09250947377564A84,84 0,0,1 366.5,260Z" style="pointer-events: none; stroke-width: 1; fill: rgb(0, 68, 27); fill-opacity: 1; stroke: rgb(0, 0, 0); stroke-opacity: 1; opacity: 1;"/><g class="slicetext"><text data-notex="1" class="slicetext" text-anchor="middle" x="0" y="0" style="font-family: 'Times New Roman'; font-size: 12px; fill: rgb(0, 0, 0); fill-opacity: 1; white-space: pre;" transform="translate(319.9174570362342,164.1435541010525)scale(0.9671205639769463)rotate(21.323132313231326)"><tspan class="line" dy="0em" x="0" y="0">Budgeting &amp; Planning</tspan><tspan class="line" dy="1.3em" x="0" y="0">38.15</tspan></text></g></g><g class="slice cursor-pointer"><path class="surface" d="M220.71377562912843,203.09250947377564L189.82066344369267,174.63876421066345A126,126 0,0,0 166.19941197960372,308.478585232142L204.96627465306915,292.319056821428A84,84 0,0,1 220.71377562912843,203.09250947377564Z" style="pointer-events: none; stroke-width: 1; fill: rgb(157, 215, 152); fill-opacity: 1; stroke: rgb(0, 0, 0); stroke-opacity: 1;"/><g class="slicetext"><text data-notex="1" class="slicetext" text-anchor="middle" x="0" y="0" style="font-family: 'Times New Roman'; font-size: 12px; fill: rgb(0, 0, 0); fill-opacity: 1; white-space: pre;" transform="translate(180.27480070860045,241.95838039830275)rotate(-79.99099909991003)"><tspan class="line" dy="0em" x="0" y="0">Innovation Strategy</tspan><tspan class="line" dy="1.3em" x="0" y="0">18.13</tspan></text></g></g><g class="slice cursor-pointer"><path class="surface" d="M204.96627465306915,292.319056821428L166.19941197960372,308.478585232142A126,126 0,0,0 238.08754946462247,377.91324877825497L252.89169964308167,338.60883251883666A84,84 0,0,1 204.96627465306915,292.319056821428Z" style="pointer-events: none; stroke-width: 1; fill: rgb(204, 235, 198); fill-opacity: 1; stroke: rgb(0, 0, 0); stroke-opacity: 1;"/><g class="slicetext"><text data-notex="1" class="slicetext" text-anchor="middle" x="0" y="0" style="font-family: 'Times New Roman'; font-size: 12px; fill: rgb(0, 0, 0); fill-opacity: 1; white-space: pre;" transform="translate(212.03567026633644,332.72460214648936)scale(0.9721816783216045)rotate(44.005400540053984)"><tspan class="line" dy="0em" x="0" y="0">Growth Models</tspan><tspan class="line" dy="1.3em" x="0" y="0">12.98</tspan></text></g></g><g class="slice cursor-pointer"><path class="surface" d="M252.89169964308167,338.60883251883666L238.08754946462247,377.91324877825497A126,126 0,0,0 376.5878658824532,343.80616620324247L345.22524392163547,315.87077746882835A84,84 0,0,1 252.89169964308167,338.60883251883666Z" style="pointer-events: none; stroke-width: 1; fill: rgb(146, 210, 143); fill-opacity: 1; stroke: rgb(0, 0, 0); stroke-opacity: 1;"/><g class="slicetext"><text data-notex="1" class="slicetext" text-anchor="middle" x="0" y="0" style="font-family: 'Times New Roman'; font-size: 12px; fill: rgb(0, 0, 0); fill-opacity: 1; white-space: pre;" transform="translate(305.3783330701052,352.9031781699063)scale(0.9798573122311867)rotate(-13.83438343834382)"><tspan class="line" dy="0em" x="0" y="0">Technology Adoption</tspan><tspan class="line" dy="1.3em" x="0" y="0">19.15</tspan></text></g></g><g class="slice"><path class="surface" d="M345.22524392163547,315.87077746882835L376.5878658824532,343.80616620324247A126,126 0,0,0 408.5,260.00000000000006L366.5,260A84,84 0,0,1 345.22524392163547,315.87077746882835Z" style="pointer-events: none; stroke-width: 1; fill: rgb(215, 239, 209); fill-opacity: 1; stroke: rgb(0, 0, 0); stroke-opacity: 1; opacity: 1;"/><g class="slicetext"><text data-notex="1" class="slicetext" text-anchor="middle" x="0" y="0" style="font-family: 'Times New Roman'; font-size: 12px; fill: rgb(0, 0, 0); fill-opacity: 1; white-space: pre;" transform="translate(377.8570241011066,296.3105279721878)scale(0.9975043675442201)rotate(-69.15391539153916)"><tspan class="line" dy="0em" x="0" y="0">Data Strategy</tspan><tspan class="line" dy="1.3em" x="0" y="0">11.58</tspan></text></g></g><g class="slice"><path class="surface" d="M189.82066344369267,174.63876421066345L158.92755125825687,146.18501894755124A168,168 0,0,0 115.02214154016508,246.76493574977815L156.8916061551238,250.0737018123336A126,126 0,0,1 189.82066344369267,174.63876421066345Z" style="pointer-events: none; stroke-width: 1; fill: rgb(222, 242, 216); fill-opacity: 1; stroke: rgb(0, 0, 0); stroke-opacity: 1; opacity: 1;"/><g class="slicetext"><text data-notex="1" class="slicetext" text-anchor="middle" x="0" y="0" style="font-family: 'Times New Roman'; font-size: 12px; fill: rgb(0, 0, 0); fill-opacity: 1; white-space: pre;" transform="translate(144.37109867648036,199.7036088382932)scale(0.9616702256054181)rotate(-66.41764176417644)"><tspan class="line" dy="0em" x="0" y="0">Process Innovation</tspan><tspan class="line" dy="1.3em" x="0" y="0">10.59</tspan></text></g></g><g class="slice"><path class="surface" d="M156.8916061551238,250.0737018123336L115.02214154016508,246.76493574977815A168,168 0,0,0 127.4325493061383,324.63811364285607L166.19941197960372,308.47858523214205A126,126 0,0,1 156.8916061551238,250.0737018123336Z" style="pointer-events: none; stroke-width: 1; fill: rgb(238, 249, 235); fill-opacity: 1; stroke: rgb(0, 0, 0); stroke-opacity: 1; opacity: 1;"/><g class="slicetext"><text data-notex="1" class="slicetext" text-anchor="middle" x="0" y="0" style="font-family: 'Times New Roman'; font-size: 12px; fill: rgb(0, 0, 0); fill-opacity: 1; white-space: pre;" transform="translate(133.64379924203612,283.7227528127386)scale(0.7181633364283858)rotate(80.94509450945088)"><tspan class="line" dy="0em" x="0" y="0">Product Innovation</tspan><tspan class="line" dy="1.3em" x="0" y="0">7.54</tspan></text></g></g><g class="slice"><path class="surface" d="M166.19941197960372,308.478585232142L127.43254930613827,324.63811364285596A168,168 0,0,0 173.12304832558976,387.5173809424179L200.46728624419234,355.6380357068134A126,126 0,0,1 166.19941197960372,308.478585232142Z" style="pointer-events: none; stroke-width: 1; fill: rgb(239, 249, 235); fill-opacity: 1; stroke: rgb(0, 0, 0); stroke-opacity: 1; opacity: 1;"/><g class="slicetext"><text data-notex="1" class="slicetext" text-anchor="middle" x="0" y="0" style="font-family: 'Times New Roman'; font-size: 12px; fill: rgb(0, 0, 0); fill-opacity: 1; white-space: pre;" transform="translate(160.7512566129647,348.4673292047654)scale(0.73720532957824)rotate(53.99639963996401)"><tspan class="line" dy="0em" x="0" y="0">Market Expansion</tspan><tspan class="line" dy="1.3em" x="0" y="0">7.43</tspan></text></g></g><g class="slice"><path class="surface" d="M200.46728624419234,355.6380357068134L173.12304832558976,387.5173809424179A168,168 0,0,0 223.2833992861633,417.2176650376733L238.08754946462247,377.91324877825497A126,126 0,0,1 200.46728624419234,355.6380357068134Z" style="pointer-events: none; stroke-width: 1; fill: rgb(247, 252, 245); fill-opacity: 1; stroke: rgb(0, 0, 0); stroke-opacity: 1; opacity: 1;"/><g class="slicetext"><text data-notex="1" class="slicetext" text-anchor="middle" x="0" y="0" style="font-family: 'Times New Roman'; font-size: 12px; fill: rgb(0, 0, 0); fill-opacity: 1; white-space: pre;" transform="translate(202.27649407094876,395.344843872212)scale(0.44531323043704824)rotate(30.63006300630059)"><tspan class="line" dy="0em" x="0" y="0">Mergers &amp; Acquisitions</tspan><tspan class="line" dy="1.3em" x="0" y="0">5.55</tspan></text></g></g><g class="slice cursor-pointer"><path class="surface" d="M238.08754946462247,377.91324877825497L223.2833992861633,417.2176650376733A168,168 0,0,0 407.9504878432709,371.7415549376567L376.5878658824532,343.80616620324247A126,126 0,0,1 238.08754946462247,377.91324877825497Z" style="pointer-events: none; stroke-width: 1; fill: rgb(146, 210, 143); fill-opacity: 1; stroke: rgb(0, 0, 0); stroke-opacity: 1;"/><g class="slicetext"><text data-notex="1" class="slicetext" text-anchor="middle" x="0" y="0" style="font-family: 'Times New Roman'; font-size: 12px; fill: rgb(0, 0, 0); fill-opacity: 1; white-space: pre;" transform="translate(316.1102023061002,396.4826101448074)rotate(-13.83438343834382)"><tspan class="line" dy="0em" x="0" y="0">AI Integration</tspan><tspan class="line" dy="1.3em" x="0" y="0">19.15</tspan></text></g></g><g class="slice"><path class="surface" d="M223.2833992861633,417.2176650376733L208.47924910770413,456.52208129709163A210,210 0,0,0 304.595332946717,468.8343751923369L300.1762663573736,427.0675001538695A168,168 0,0,1 223.2833992861633,417.2176650376733Z" style="pointer-events: none; stroke-width: 1; fill: rgb(239, 249, 235); fill-opacity: 1; stroke: rgb(0, 0, 0); stroke-opacity: 1; opacity: 1;"/><g class="slicetext"><text data-notex="1" class="slicetext" text-anchor="middle" x="0" y="0" style="font-family: 'Times New Roman'; font-size: 12px; fill: rgb(0, 0, 0); fill-opacity: 1; white-space: pre;" transform="translate(258.93359578331365,442.68022237056283)rotate(7.299729972997284)"><tspan class="line" dy="0em" x="0" y="0">Chatbots</tspan><tspan class="line" dy="1.3em" x="0" y="0">7.41</tspan></text></g></g><g class="slice"><path class="surface" d="M300.1762663573736,427.0675001538695L304.595332946717,468.8343751923369A210,210 0,0,0 380.62849528731977,445.6631315384034L361.0027962298558,408.53050523072267A168,168 0,0,1 300.1762663573736,427.0675001538695Z" style="pointer-events: none; stroke-width: 1; fill: rgb(245, 251, 242); fill-opacity: 1; stroke: rgb(0, 0, 0); stroke-opacity: 1; opacity: 1;"/><g class="slicetext"><text data-notex="1" class="slicetext" text-anchor="middle" x="0" y="0" style="font-family: 'Times New Roman'; font-size: 12px; fill: rgb(0, 0, 0); fill-opacity: 1; white-space: pre;" transform="translate(338.79029345729066,445.1073276592241)scale(0.7084010894035585)rotate(-16.948694869486985)"><tspan class="line" dy="0em" x="0" y="0">Predictive Analytics</tspan><tspan class="line" dy="1.3em" x="0" y="0">6.06</tspan></text></g></g><g class="slice"><path class="surface" d="M361.0027962298558,408.53050523072267L380.62849528731977,445.6631315384034A210,210 0,0,0 439.31310980408864,399.6769436720708L407.9504878432709,371.7415549376567A168,168 0,0,1 361.0027962298558,408.53050523072267Z" style="pointer-events: none; stroke-width: 1; fill: rgb(246, 252, 244); fill-opacity: 1; stroke: rgb(0, 0, 0); stroke-opacity: 1; opacity: 1;"/><g class="slicetext"><text data-notex="1" class="slicetext" text-anchor="middle" x="0" y="0" style="font-family: 'Times New Roman'; font-size: 12px; fill: rgb(0, 0, 0); fill-opacity: 1; white-space: pre;" transform="translate(402.5601993761207,413.3877014497742)scale(0.6564116120156757)rotate(-38.08280828082809)"><tspan class="line" dy="0em" x="0" y="0">AI-Powered Insights</tspan><tspan class="line" dy="1.3em" x="0" y="0">5.68</tspan></text></g></g></g></g><g class="glimages"/><defs id="topdefs-cbfa21"><g class="clips"/></defs><g class="layer-above"><g class="imagelayer"/><g class="shapelayer"/></g><g class="infolayer"><g class="cb6bfb45 colorbar" transform="translate(10,50)"><rect class="cbbg" x="571.5" y="63" width="48.015625" height="295" style="fill: rgb(0, 0, 0); fill-opacity: 0; stroke: rgb(68, 68, 68); stroke-opacity: 1; stroke-width: 0;"/><g class="cbfills" transform="translate(0,93)"><rect class="cbfill gradient_filled" style="fill: url('#gcbfa21-cb6bfb45');" x="582" y="0" width="15" height="254"/></g><g class="cblines" transform="translate(0,93)"/><g class="cbaxis crisp" transform="translate(0,-50)"><g class="ycb6bfb45tick"><text text-anchor="start" x="600.4" y="4.199999999999999" transform="translate(0,362.33000000000004)" style="font-family: 'Times New Roman'; font-size: 12px; fill: rgb(42, 63, 95); fill-opacity: 1; white-space: pre; opacity: 1;">10</text></g><g class="ycb6bfb45tick"><text text-anchor="start" x="600.4" y="4.199999999999999" style="font-family: 'Times New Roman'; font-size: 12px; fill: rgb(42, 63, 95); fill-opacity: 1; white-space: pre; opacity: 1;" transform="translate(0,323.37000000000006)">15</text></g><g class="ycb6bfb45tick"><text text-anchor="start" x="600.4" y="4.199999999999999" style="font-family: 'Times New Roman'; font-size: 12px; fill: rgb(42, 63, 95); fill-opacity: 1; white-space: pre; opacity: 1;" transform="translate(0,284.4100000000001)">20</text></g><g class="ycb6bfb45tick"><text text-anchor="start" x="600.4" y="4.199999999999999" style="font-family: 'Times New Roman'; font-size: 12px; fill: rgb(42, 63, 95); fill-opacity: 1; white-space: pre; opacity: 1;" transform="translate(0,245.46000000000004)">25</text></g><g class="ycb6bfb45tick"><text text-anchor="start" x="600.4" y="4.199999999999999" style="font-family: 'Times New Roman'; font-size: 12px; fill: rgb(42, 63, 95); fill-opacity: 1; white-space: pre; opacity: 1;" transform="translate(0,206.50000000000006)">30</text></g><g class="ycb6bfb45tick"><text text-anchor="start" x="600.4" y="4.199999999999999" style="font-family: 'Times New Roman'; font-size: 12px; fill: rgb(42, 63, 95); fill-opacity: 1; white-space: pre; opacity: 1;" transform="translate(0,167.54000000000005)">35</text></g></g><g class="cbtitleunshift" transform="translate(-10,-50)"><g class="cbtitle" transform="translate(-0.5,-0.5)"><text class="ycb6bfb45title" x="592.25" y="135.75" text-anchor="start" style="opacity: 1; font-family: 'Times New Roman'; font-size: 13px; fill: rgb(42, 63, 95); fill-opacity: 1; white-space: pre;">%</text></g></g><rect class="cboutline" x="582" y="93" width="15" height="254" style="stroke: rgb(68, 68, 68); stroke-opacity: 1; fill: none; stroke-width: 1;"/></g><g class="g-gtitle"><text class="gtitle" x="320" y="25" text-anchor="middle" dy="0em" style="opacity: 1; font-family: 'Times New Roman'; font-size: 16px; fill: rgb(42, 63, 95); fill-opacity: 1; white-space: pre;">Business Distribution by Category (2021) (%)</text></g></g></svg>