<svg class="main-svg" xmlns="http://www.w3.org/2000/svg" xmlns:xlink="http://www.w3.org/1999/xlink" width="1920" height="1440" style="" viewBox="0 0 640 480"><rect x="0" y="0" width="640" height="480" style="fill: rgb(255, 255, 255); fill-opacity: 1;"/><defs id="defs-cf44ab"><g class="clips"/><g class="gradients"><linearGradient x1="0" y1="1" x2="0" y2="0" gradientUnits="objectBoundingBox" id="gcf44ab-cb5e17d6"><stop offset="0%" stop-color="rgb(255, 245, 235)" stop-opacity="1"/><stop offset="12.5%" stop-color="rgb(254, 230, 206)" stop-opacity="1"/><stop offset="25%" stop-color="rgb(253, 208, 162)" stop-opacity="1"/><stop offset="37.5%" stop-color="rgb(253, 174, 107)" stop-opacity="1"/><stop offset="50%" stop-color="rgb(253, 141, 60)" stop-opacity="1"/><stop offset="62.5%" stop-color="rgb(241, 105, 19)" stop-opacity="1"/><stop offset="75%" stop-color="rgb(217, 72, 1)" stop-opacity="1"/><stop offset="87.5%" stop-color="rgb(166, 54, 3)" stop-opacity="1"/><stop offset="100%" stop-color="rgb(127, 39, 4)" stop-opacity="1"/></linearGradient></g><g class="patterns"/></defs><g class="bglayer"/><g class="layer-below"><g class="imagelayer"/><g class="shapelayer"/></g><g class="cartesianlayer"/><g class="polarlayer"/><g class="smithlayer"/><g class="ternarylayer"/><g class="geolayer"/><g class="funnelarealayer"/><g class="pielayer"/><g class="iciclelayer"/><g class="treemaplayer"/><g class="sunburstlayer"><g class="trace sunburst" stroke-linejoin="round" style="opacity: 1;"><g class="slice"><path class="surface" d="M282.5,260A0,0 0,1,0 282.5,260A0,0 0,1,0 282.5,260ZM335,260A52.5,52.5 0,1,1 230,260A52.5,52.5 0,1,1 335,260Z" style="pointer-events: none; stroke-width: 1; fill: rgb(255, 255, 255); fill-opacity: 1; stroke: rgb(0, 0, 0); stroke-opacity: 1;"/><g class="slicetext"><text data-notex="1" class="slicetext" text-anchor="middle" x="0" y="0" style="font-family: 'Times New Roman'; font-size: 12px; fill: rgb(0, 0, 0); fill-opacity: 1; white-space: pre;" transform="translate(282.5,264)">100</text></g></g><g class="slice cursor-pointer"><path class="surface" d="M335,260L387.5,260A105,105 0,0,0 177.64620990528798,254.4608030569342L230.07310495264397,257.2304015284671A52.5,52.5 0,0,1 335,260Z" style="pointer-events: none; stroke-width: 1; fill: rgb(127, 39, 4); fill-opacity: 1; stroke: rgb(0, 0, 0); stroke-opacity: 1;"/><g class="slicetext"><text data-notex="1" class="slicetext" text-anchor="middle" x="0" y="0" style="font-family: 'Times New Roman'; font-size: 12px; fill: rgb(0, 0, 0); fill-opacity: 1; white-space: pre;" transform="translate(284.4578265246367,185.8272777144533)rotate(1.5119999999999436)"><tspan class="line" dy="0em" x="0" y="0">Workplace Wellbeing</tspan><tspan class="line" dy="1.3em" x="0" y="0">49.16</tspan></text></g></g><g class="slice cursor-pointer"><path class="surface" d="M230.07310495264397,257.2304015284671L177.64620990528798,254.4608030569342A105,105 0,0,0 286.45746918034314,364.9253946272619L284.4787345901716,312.46269731363094A52.5,52.5 0,0,1 230.07310495264397,257.2304015284671Z" style="pointer-events: none; stroke-width: 1; fill: rgb(253, 145, 66); fill-opacity: 1; stroke: rgb(0, 0, 0); stroke-opacity: 1;"/><g class="slicetext"><text data-notex="1" class="slicetext" text-anchor="middle" x="0" y="0" style="font-family: 'Times New Roman'; font-size: 12px; fill: rgb(0, 0, 0); fill-opacity: 1; white-space: pre;" transform="translate(234.31527939328436,307.46353607522667)rotate(45.432000000000016)"><tspan class="line" dy="0em" x="0" y="0">Employee Lifecycle</tspan><tspan class="line" dy="1.3em" x="0" y="0">26.44</tspan></text></g></g><g class="slice cursor-pointer"><path class="surface" d="M284.4787345901716,312.46269731363094L286.45746918034314,364.9253946272619A105,105 0,0,0 387.5,260L335,260A52.5,52.5 0,0,1 284.4787345901716,312.46269731363094Z" style="pointer-events: none; stroke-width: 1; fill: rgb(253, 157, 83); fill-opacity: 1; stroke: rgb(0, 0, 0); stroke-opacity: 1;"/><g class="slicetext"><text data-notex="1" class="slicetext" text-anchor="middle" x="0" y="0" style="font-family: 'Times New Roman'; font-size: 12px; fill: rgb(0, 0, 0); fill-opacity: 1; white-space: pre;" transform="translate(333.70616552519834,309.7450806099774)scale(0.9302459909704758)rotate(-46.07999999999993)"><tspan class="line" dy="0em" x="0" y="0">Employee Development</tspan><tspan class="line" dy="1.3em" x="0" y="0">24.4</tspan></text></g></g><g class="slice"><path class="surface" d="M387.5,260L440,260A157.5,157.5 0,0,0 125.21931485793195,251.6912045854013L177.64620990528798,254.4608030569342A105,105 0,0,1 387.5,260Z" style="pointer-events: none; stroke-width: 1; fill: rgb(127, 39, 4); fill-opacity: 1; stroke: rgb(0, 0, 0); stroke-opacity: 1; opacity: 1;"/><g class="slicetext"><text data-notex="1" class="slicetext" text-anchor="middle" x="0" y="0" style="font-family: 'Times New Roman'; font-size: 12px; fill: rgb(0, 0, 0); fill-opacity: 1; white-space: pre;" transform="translate(285.93489158532554,129.8683175279821)rotate(1.5119999999999436)"><tspan class="line" dy="0em" x="0" y="0">Health &amp; Safety</tspan><tspan class="line" dy="1.3em" x="0" y="0">49.16</tspan></text></g></g><g class="slice"><path class="surface" d="M177.64620990528798,254.4608030569342L125.21931485793195,251.6912045854013A157.5,157.5 0,0,0 183.79276213518324,382.7319485427429L216.69517475678882,341.8212990284952A105,105 0,0,1 177.64620990528798,254.4608030569342Z" style="pointer-events: none; stroke-width: 1; fill: rgb(253, 212, 170); fill-opacity: 1; stroke: rgb(0, 0, 0); stroke-opacity: 1; opacity: 1;"/><g class="slicetext"><text data-notex="1" class="slicetext" text-anchor="middle" x="0" y="0" style="font-family: 'Times New Roman'; font-size: 12px; fill: rgb(0, 0, 0); fill-opacity: 1; white-space: pre;" transform="translate(169.07674038633533,310.33925658594353)rotate(65.91600000000005)"><tspan class="line" dy="0em" x="0" y="0">Recruitment</tspan><tspan class="line" dy="1.3em" x="0" y="0">15.06</tspan></text></g></g><g class="slice cursor-pointer"><path class="surface" d="M216.69517475678882,341.8212990284952L183.79276213518324,382.7319485427429A157.5,157.5 0,0,0 288.43620377051474,417.38809194089276L286.45746918034314,364.9253946272619A105,105 0,0,1 216.69517475678882,341.8212990284952Z" style="pointer-events: none; stroke-width: 1; fill: rgb(254, 227, 200); fill-opacity: 1; stroke: rgb(0, 0, 0); stroke-opacity: 1;"/><g class="slicetext"><text data-notex="1" class="slicetext" text-anchor="middle" x="0" y="0" style="font-family: 'Times New Roman'; font-size: 12px; fill: rgb(0, 0, 0); fill-opacity: 1; white-space: pre;" transform="translate(242.50802605604568,380.7548613591345)rotate(18.32400000000007)"><tspan class="line" dy="0em" x="0" y="0">Onboarding</tspan><tspan class="line" dy="1.3em" x="0" y="0">11.38</tspan></text></g></g><g class="slice cursor-pointer"><path class="surface" d="M286.45746918034314,364.9253946272619L288.43620377051474,417.38809194089276A157.5,157.5 0,0,0 402.2639395820049,362.2880676120039L362.3426263880033,328.1920450746693A105,105 0,0,1 286.45746918034314,364.9253946272619Z" style="pointer-events: none; stroke-width: 1; fill: rgb(254, 220, 186); fill-opacity: 1; stroke: rgb(0, 0, 0); stroke-opacity: 1;"/><g class="slicetext"><text data-notex="1" class="slicetext" text-anchor="middle" x="0" y="0" style="font-family: 'Times New Roman'; font-size: 12px; fill: rgb(0, 0, 0); fill-opacity: 1; white-space: pre;" transform="translate(338.50944113544705,376.08299091991955)rotate(-25.83000000000004)"><tspan class="line" dy="0em" x="0" y="0">Training Programs</tspan><tspan class="line" dy="1.3em" x="0" y="0">13.15</tspan></text></g></g><g class="slice cursor-pointer"><path class="surface" d="M362.3426263880033,328.1920450746693L402.2639395820049,362.2880676120039A157.5,157.5 0,0,0 440,260.00000000000006L387.5,260A105,105 0,0,1 362.3426263880033,328.1920450746693Z" style="pointer-events: none; stroke-width: 1; fill: rgb(254, 227, 201); fill-opacity: 1; stroke: rgb(0, 0, 0); stroke-opacity: 1;"/><g class="slicetext"><text data-notex="1" class="slicetext" text-anchor="middle" x="0" y="0" style="font-family: 'Times New Roman'; font-size: 12px; fill: rgb(0, 0, 0); fill-opacity: 1; white-space: pre;" transform="translate(410.69236413769886,307.54238555179984)scale(0.7140278815639548)rotate(-69.75)"><tspan class="line" dy="0em" x="0" y="0">Performance Management</tspan><tspan class="line" dy="1.3em" x="0" y="0">11.25</tspan></text></g></g><g class="slice"><path class="surface" d="M183.79276213518324,382.7319485427429L150.89034951357763,423.6425980569905A210,210 0,0,0 290.4149383606863,469.85078925452376L288.43620377051474,417.38809194089276A157.5,157.5 0,0,1 183.79276213518324,382.7319485427429Z" style="pointer-events: none; stroke-width: 1; fill: rgb(254, 227, 200); fill-opacity: 1; stroke: rgb(0, 0, 0); stroke-opacity: 1; opacity: 1;"/><g class="slicetext"><text data-notex="1" class="slicetext" text-anchor="middle" x="0" y="0" style="font-family: 'Times New Roman'; font-size: 12px; fill: rgb(0, 0, 0); fill-opacity: 1; white-space: pre;" transform="translate(226.6669289909148,428.58669588066226)rotate(18.32400000000007)"><tspan class="line" dy="0em" x="0" y="0">Mentorship</tspan><tspan class="line" dy="1.3em" x="0" y="0">11.38</tspan></text></g></g><g class="slice"><path class="surface" d="M288.43620377051474,417.38809194089276L290.4149383606863,469.85078925452376A210,210 0,0,0 391.32329046720764,439.603706676365L364.1174678504057,394.70278000727376A157.5,157.5 0,0,1 288.43620377051474,417.38809194089276Z" style="pointer-events: none; stroke-width: 1; fill: rgb(254, 237, 219); fill-opacity: 1; stroke: rgb(0, 0, 0); stroke-opacity: 1; opacity: 1;"/><g class="slicetext"><text data-notex="1" class="slicetext" text-anchor="middle" x="0" y="0" style="font-family: 'Times New Roman'; font-size: 12px; fill: rgb(0, 0, 0); fill-opacity: 1; white-space: pre;" transform="translate(335.43655228858125,437.1748816387262)rotate(-16.686000000000035)"><tspan class="line" dy="0em" x="0" y="0">Skill Workshops</tspan><tspan class="line" dy="1.3em" x="0" y="0">8.07</tspan></text></g></g><g class="slice"><path class="surface" d="M364.1174678504057,394.70278000727376L391.32329046720764,439.603706676365A210,210 0,0,0 442.1852527760065,396.38409014933853L402.2639395820049,362.2880676120039A157.5,157.5 0,0,1 364.1174678504057,394.70278000727376Z" style="pointer-events: none; stroke-width: 1; fill: rgb(255, 245, 235); fill-opacity: 1; stroke: rgb(0, 0, 0); stroke-opacity: 1; opacity: 1;"/><g class="slicetext"><text data-notex="1" class="slicetext" text-anchor="middle" x="0" y="0" style="font-family: 'Times New Roman'; font-size: 12px; fill: rgb(0, 0, 0); fill-opacity: 1; white-space: pre;" transform="translate(408.0547301735535,407.7560530826405)scale(0.7342955858738233)rotate(-40.355999999999995)"><tspan class="line" dy="0em" x="0" y="0">Online Learning</tspan><tspan class="line" dy="1.3em" x="0" y="0">5.08</tspan></text></g></g><g class="slice"><path class="surface" d="M402.2639395820049,362.2880676120039L442.1852527760065,396.38409014933853A210,210 0,0,0 480.92007475615833,328.7711708040552L431.3150560671188,311.5783781030414A157.5,157.5 0,0,1 402.2639395820049,362.2880676120039Z" style="pointer-events: none; stroke-width: 1; fill: rgb(255, 243, 230); fill-opacity: 1; stroke: rgb(0, 0, 0); stroke-opacity: 1; opacity: 1;"/><g class="slicetext"><text data-notex="1" class="slicetext" text-anchor="middle" x="0" y="0" style="font-family: 'Times New Roman'; font-size: 12px; fill: rgb(0, 0, 0); fill-opacity: 1; white-space: pre;" transform="translate(441.7499451483312,351.23283442574586)rotate(-60.19200000000001)"><tspan class="line" dy="0em" x="0" y="0">Feedback</tspan><tspan class="line" dy="1.3em" x="0" y="0">5.94</tspan></text></g></g><g class="slice"><path class="surface" d="M431.3150560671188,311.5783781030414L480.92007475615833,328.7711708040552A210,210 0,0,0 492.5,260.00000000000006L440,260.00000000000006A157.5,157.5 0,0,1 431.3150560671188,311.5783781030414Z" style="pointer-events: none; stroke-width: 1; fill: rgb(255, 244, 234); fill-opacity: 1; stroke: rgb(0, 0, 0); stroke-opacity: 1; opacity: 1;"/><g class="slicetext"><text data-notex="1" class="slicetext" text-anchor="middle" x="0" y="0" style="font-family: 'Times New Roman'; font-size: 12px; fill: rgb(0, 0, 0); fill-opacity: 1; white-space: pre;" transform="translate(469.3088016357241,291.4555057379621)scale(0.9670418430245636)rotate(-80.44200000000001)"><tspan class="line" dy="0em" x="0" y="0">Goal Setting</tspan><tspan class="line" dy="1.3em" x="0" y="0">5.31</tspan></text></g></g></g></g><g class="glimages"/><defs id="topdefs-cf44ab"><g class="clips"/></defs><g class="layer-above"><g class="imagelayer"/><g class="shapelayer"/></g><g class="infolayer"><g class="cb5e17d6 colorbar" transform="translate(10,50)"><rect class="cbbg" x="571.5" y="63" width="48.015625" height="295" style="fill: rgb(0, 0, 0); fill-opacity: 0; stroke: rgb(68, 68, 68); stroke-opacity: 1; stroke-width: 0;"/><g class="cbfills" transform="translate(0,93)"><rect class="cbfill gradient_filled" style="fill: url('#gcf44ab-cb5e17d6');" x="582" y="0" width="15" height="254"/></g><g class="cblines" transform="translate(0,93)"/><g class="cbaxis crisp" transform="translate(0,-50)"><g class="ycb5e17d6tick"><text text-anchor="start" x="600.4" y="4.199999999999999" transform="translate(0,368.6500000000001)" style="font-family: 'Times New Roman'; font-size: 12px; fill: rgb(42, 63, 95); fill-opacity: 1; white-space: pre; opacity: 1;">10</text></g><g class="ycb5e17d6tick"><text text-anchor="start" x="600.4" y="4.199999999999999" style="font-family: 'Times New Roman'; font-size: 12px; fill: rgb(42, 63, 95); fill-opacity: 1; white-space: pre; opacity: 1;" transform="translate(0,311.0300000000001)">20</text></g><g class="ycb5e17d6tick"><text text-anchor="start" x="600.4" y="4.199999999999999" style="font-family: 'Times New Roman'; font-size: 12px; fill: rgb(42, 63, 95); fill-opacity: 1; white-space: pre; opacity: 1;" transform="translate(0,253.40000000000006)">30</text></g><g class="ycb5e17d6tick"><text text-anchor="start" x="600.4" y="4.199999999999999" style="font-family: 'Times New Roman'; font-size: 12px; fill: rgb(42, 63, 95); fill-opacity: 1; white-space: pre; opacity: 1;" transform="translate(0,195.78000000000006)">40</text></g></g><g class="cbtitleunshift" transform="translate(-10,-50)"><g class="cbtitle" transform="translate(-0.5,-0.5)"><text class="ycb5e17d6title" x="592.25" y="135.75" text-anchor="start" style="opacity: 1; font-family: 'Times New Roman'; font-size: 13px; fill: rgb(42, 63, 95); fill-opacity: 1; white-space: pre;">%</text></g></g><rect class="cboutline" x="582" y="93" width="15" height="254" style="stroke: rgb(68, 68, 68); stroke-opacity: 1; fill: none; stroke-width: 1;"/></g><g class="g-gtitle"><text class="gtitle" x="320" y="25" text-anchor="middle" dy="0em" style="opacity: 1; font-family: 'Times New Roman'; font-size: 16px; fill: rgb(42, 63, 95); fill-opacity: 1; white-space: pre;">Employee Distribution by Category (2021) (%)</text></g></g></svg>