<svg class="main-svg" xmlns="http://www.w3.org/2000/svg" xmlns:xlink="http://www.w3.org/1999/xlink" width="1920" height="1440" style="" viewBox="0 0 640 480"><rect x="0" y="0" width="640" height="480" style="fill: rgb(255, 255, 255); fill-opacity: 1;"/><defs id="defs-c2e5f2"><g class="clips"/><g class="gradients"><linearGradient x1="0" y1="1" x2="0" y2="0" gradientUnits="objectBoundingBox" id="gc2e5f2-cb511e52"><stop offset="0%" stop-color="rgb(255, 245, 240)" stop-opacity="1"/><stop offset="12.5%" stop-color="rgb(254, 224, 210)" stop-opacity="1"/><stop offset="25%" stop-color="rgb(252, 187, 161)" stop-opacity="1"/><stop offset="37.5%" stop-color="rgb(252, 146, 114)" stop-opacity="1"/><stop offset="50%" stop-color="rgb(251, 106, 74)" stop-opacity="1"/><stop offset="62.5%" stop-color="rgb(239, 59, 44)" stop-opacity="1"/><stop offset="75%" stop-color="rgb(203, 24, 29)" stop-opacity="1"/><stop offset="87.5%" stop-color="rgb(165, 15, 21)" stop-opacity="1"/><stop offset="100%" stop-color="rgb(103, 0, 13)" stop-opacity="1"/></linearGradient></g><g class="patterns"/></defs><g class="bglayer"/><g class="layer-below"><g class="imagelayer"/><g class="shapelayer"/></g><g class="cartesianlayer"/><g class="polarlayer"/><g class="smithlayer"/><g class="ternarylayer"/><g class="geolayer"/><g class="funnelarealayer"/><g class="pielayer"/><g class="iciclelayer"/><g class="treemaplayer"/><g class="sunburstlayer"><g class="trace sunburst" stroke-linejoin="round" style="opacity: 1;"><g class="slice"><path class="surface" d="M282.5,260A0,0 0,1,0 282.5,260A0,0 0,1,0 282.5,260ZM324.5,260A42,42 0,1,1 240.5,260A42,42 0,1,1 324.5,260Z" style="pointer-events: none; stroke-width: 1; fill: rgb(255, 255, 255); fill-opacity: 1; stroke: rgb(0, 0, 0); stroke-opacity: 1;"/><g class="slicetext"><text data-notex="1" class="slicetext" text-anchor="middle" x="0" y="0" style="font-family: 'Times New Roman'; font-size: 12px; fill: rgb(0, 0, 0); fill-opacity: 1; white-space: pre;" transform="translate(282.5,264)">100.01</text></g></g><g class="slice cursor-pointer"><path class="surface" d="M324.5,260L366.5,260A84,84 0,0,0 210.45185658598984,216.8136013240948L246.47592829299492,238.4068006620474A42,42 0,0,1 324.5,260Z" style="pointer-events: none; stroke-width: 1; fill: rgb(103, 0, 13); fill-opacity: 1; stroke: rgb(0, 0, 0); stroke-opacity: 1;"/><g class="slicetext"><text data-notex="1" class="slicetext" text-anchor="middle" x="0" y="0" style="font-family: 'Times New Roman'; font-size: 12px; fill: rgb(0, 0, 0); fill-opacity: 1; white-space: pre;" transform="translate(297.88569943755743,203.37360592403078)scale(0.8195954923186919)rotate(15.469453054694554)"><tspan class="line" dy="0em" x="0" y="0">Employee Development</tspan><tspan class="line" dy="1.3em" x="0" y="0">41.41</tspan></text></g></g><g class="slice cursor-pointer"><path class="surface" d="M246.47592829299492,238.4068006620474L210.45185658598984,216.8136013240948A84,84 0,0,0 261.31831499643454,341.2855228217776L271.90915749821727,300.6427614108888A42,42 0,0,1 246.47592829299492,238.4068006620474Z" style="pointer-events: none; stroke-width: 1; fill: rgb(226, 46, 39); fill-opacity: 1; stroke: rgb(0, 0, 0); stroke-opacity: 1;"/><g class="slicetext"><text data-notex="1" class="slicetext" text-anchor="middle" x="0" y="0" style="font-family: 'Times New Roman'; font-size: 12px; fill: rgb(0, 0, 0); fill-opacity: 1; white-space: pre;" transform="translate(233.16155841127912,280.1625535856739)scale(0.9025686113519126)rotate(67.77222277772228)"><tspan class="line" dy="0em" x="0" y="0">Employee Lifecycle</tspan><tspan class="line" dy="1.3em" x="0" y="0">29.54</tspan></text></g></g><g class="slice cursor-pointer"><path class="surface" d="M271.90915749821727,300.6427614108888L261.31831499643454,341.2855228217776A84,84 0,0,0 366.5,260.0000000000001L324.5,260.00000000000006A42,42 0,0,1 271.90915749821727,300.6427614108888Z" style="pointer-events: none; stroke-width: 1; fill: rgb(230, 50, 40); fill-opacity: 1; stroke: rgb(0, 0, 0); stroke-opacity: 1;"/><g class="slicetext"><text data-notex="1" class="slicetext" text-anchor="middle" x="0" y="0" style="font-family: 'Times New Roman'; font-size: 12px; fill: rgb(0, 0, 0); fill-opacity: 1; white-space: pre;" transform="translate(314.90452163430666,301.9307407876783)scale(0.873203180607061)rotate(-37.69723027697228)"><tspan class="line" dy="0em" x="0" y="0">Workplace Wellbeing</tspan><tspan class="line" dy="1.3em" x="0" y="0">29.06</tspan></text></g></g><g class="slice cursor-pointer"><path class="surface" d="M366.5,260L408.5,260A126,126 0,0,0 201.90190680056534,163.14987159215923L228.76793786704354,195.43324772810615A84,84 0,0,1 366.5,260Z" style="pointer-events: none; stroke-width: 1; fill: rgb(172, 17, 23); fill-opacity: 1; stroke: rgb(0, 0, 0); stroke-opacity: 1;"/><g class="slicetext"><text data-notex="1" class="slicetext" text-anchor="middle" x="0" y="0" style="font-family: 'Times New Roman'; font-size: 12px; fill: rgb(0, 0, 0); fill-opacity: 1; white-space: pre;" transform="translate(325.34015674083213,167.92383264289995)scale(0.8934783017353978)rotate(25.11648835116489)"><tspan class="line" dy="0em" x="0" y="0">Performance Management</tspan><tspan class="line" dy="1.3em" x="0" y="0">36.05</tspan></text></g></g><g class="slice"><path class="surface" d="M228.76793786704354,195.43324772810615L201.90190680056534,163.14987159215923A126,126 0,0,0 174.42778487898477,195.22040198614218L210.45185658598984,216.8136013240948A84,84 0,0,1 228.76793786704354,195.43324772810615Z" style="pointer-events: none; stroke-width: 1; fill: rgb(255, 245, 240); fill-opacity: 1; stroke: rgb(0, 0, 0); stroke-opacity: 1; opacity: 1;"/><g class="slicetext"><text data-notex="1" class="slicetext" text-anchor="middle" x="0" y="0" style="font-family: 'Times New Roman'; font-size: 12px; fill: rgb(0, 0, 0); fill-opacity: 1; white-space: pre;" transform="translate(203.86803270203097,190.42674167661195)scale(0.44131889059318025)rotate(40.585941405859444)"><tspan class="line" dy="0em" x="0" y="0">Training Programs</tspan><tspan class="line" dy="1.3em" x="0" y="0">5.36</tspan></text></g></g><g class="slice cursor-pointer"><path class="surface" d="M210.45185658598984,216.8136013240948L174.42778487898477,195.22040198614218A126,126 0,0,0 181.8061941897318,335.7413854602885L215.37079612648787,310.49425697352564A84,84 0,0,1 210.45185658598984,216.8136013240948Z" style="pointer-events: none; stroke-width: 1; fill: rgb(252, 146, 114); fill-opacity: 1; stroke: rgb(0, 0, 0); stroke-opacity: 1;"/><g class="slicetext"><text data-notex="1" class="slicetext" text-anchor="middle" x="0" y="0" style="font-family: 'Times New Roman'; font-size: 12px; fill: rgb(0, 0, 0); fill-opacity: 1; white-space: pre;" transform="translate(184.1058325294551,264.83785737334097)rotate(86.994300569943)"><tspan class="line" dy="0em" x="0" y="0">Recruitment</tspan><tspan class="line" dy="1.3em" x="0" y="0">18.86</tspan></text></g></g><g class="slice cursor-pointer"><path class="surface" d="M215.37079612648787,310.49425697352564L181.8061941897318,335.7413854602885A126,126 0,0,0 250.72747249465178,381.92828423266644L261.31831499643454,341.2855228217776A84,84 0,0,1 215.37079612648787,310.49425697352564Z" style="pointer-events: none; stroke-width: 1; fill: rgb(254, 217, 201); fill-opacity: 1; stroke: rgb(0, 0, 0); stroke-opacity: 1;"/><g class="slicetext"><text data-notex="1" class="slicetext" text-anchor="middle" x="0" y="0" style="font-family: 'Times New Roman'; font-size: 12px; fill: rgb(0, 0, 0); fill-opacity: 1; white-space: pre;" transform="translate(225.62658650019696,344.8679704452239)rotate(33.82761723827616)"><tspan class="line" dy="0em" x="0" y="0">Onboarding</tspan><tspan class="line" dy="1.3em" x="0" y="0">10.68</tspan></text></g></g><g class="slice"><path class="surface" d="M261.31831499643454,341.2855228217776L250.72747249465178,381.92828423266644A126,126 0,0,0 408.5,260.00000000000017L366.5,260.0000000000001A84,84 0,0,1 261.31831499643454,341.2855228217776Z" style="pointer-events: none; stroke-width: 1; fill: rgb(230, 50, 40); fill-opacity: 1; stroke: rgb(0, 0, 0); stroke-opacity: 1; opacity: 1;"/><g class="slicetext"><text data-notex="1" class="slicetext" text-anchor="middle" x="0" y="0" style="font-family: 'Times New Roman'; font-size: 12px; fill: rgb(0, 0, 0); fill-opacity: 1; white-space: pre;" transform="translate(341.43738096842924,336.2636792476363)rotate(-37.69723027697228)"><tspan class="line" dy="0em" x="0" y="0">Work-Life Balance</tspan><tspan class="line" dy="1.3em" x="0" y="0">29.06</tspan></text></g></g><g class="slice cursor-pointer"><path class="surface" d="M408.5,260L450.5,260A168,168 0,0,0 301.2744461524821,93.05234301833536L296.58083461436155,134.78925726375155A126,126 0,0,1 408.5,260Z" style="pointer-events: none; stroke-width: 1; fill: rgb(251, 107, 75); fill-opacity: 1; stroke: rgb(0, 0, 0); stroke-opacity: 1;"/><g class="slicetext"><text data-notex="1" class="slicetext" text-anchor="middle" x="0" y="0" style="font-family: 'Times New Roman'; font-size: 12px; fill: rgb(0, 0, 0); fill-opacity: 1; white-space: pre;" transform="translate(393.9107045622562,160.41594836715325)rotate(48.208179182081835)"><tspan class="line" dy="0em" x="0" y="0">Feedback</tspan><tspan class="line" dy="1.3em" x="0" y="0">23.22</tspan></text></g></g><g class="slice cursor-pointer"><path class="surface" d="M296.58083461436155,134.78925726375155L301.2744461524821,93.05234301833536A168,168 0,0,0 175.03587573408706,130.86649545621236L201.9019068005653,163.1498715921593A126,126 0,0,1 296.58083461436155,134.78925726375155Z" style="pointer-events: none; stroke-width: 1; fill: rgb(253, 200, 178); fill-opacity: 1; stroke: rgb(0, 0, 0); stroke-opacity: 1;"/><g class="slicetext"><text data-notex="1" class="slicetext" text-anchor="middle" x="0" y="0" style="font-family: 'Times New Roman'; font-size: 12px; fill: rgb(0, 0, 0); fill-opacity: 1; white-space: pre;" transform="translate(239.84911682092928,117.61451275542214)rotate(-16.675332466753275)"><tspan class="line" dy="0em" x="0" y="0">Goal Setting</tspan><tspan class="line" dy="1.3em" x="0" y="0">12.83</tspan></text></g></g><g class="slice"><path class="surface" d="M174.42778487898477,195.22040198614218L138.40371317197972,173.6272026481896A168,168 0,0,0 115.66426663599506,279.744317483637L157.37319997699632,274.80823811272774A126,126 0,0,1 174.42778487898477,195.22040198614218Z" style="pointer-events: none; stroke-width: 1; fill: rgb(254, 219, 203); fill-opacity: 1; stroke: rgb(0, 0, 0); stroke-opacity: 1; opacity: 1;"/><g class="slicetext"><text data-notex="1" class="slicetext" text-anchor="middle" x="0" y="0" style="font-family: 'Times New Roman'; font-size: 12px; fill: rgb(0, 0, 0); fill-opacity: 1; white-space: pre;" transform="translate(136.90289488757625,228.80053144460206)rotate(-77.90520947905202)"><tspan class="line" dy="0em" x="0" y="0">Job Posting</tspan><tspan class="line" dy="1.3em" x="0" y="0">10.47</tspan></text></g></g><g class="slice"><path class="surface" d="M157.37319997699632,274.80823811272774L115.66426663599506,279.744317483637A168,168 0,0,0 148.24159225297575,360.98851394705133L181.8061941897318,335.7413854602885A126,126 0,0,1 157.37319997699632,274.80823811272774Z" style="pointer-events: none; stroke-width: 1; fill: rgb(254, 231, 220); fill-opacity: 1; stroke: rgb(0, 0, 0); stroke-opacity: 1; opacity: 1;"/><g class="slicetext"><text data-notex="1" class="slicetext" text-anchor="middle" x="0" y="0" style="font-family: 'Times New Roman'; font-size: 12px; fill: rgb(0, 0, 0); fill-opacity: 1; white-space: pre;" transform="translate(143.25162274263172,315.8358618217394)scale(0.7118132786274182)rotate(68.15018498150187)"><tspan class="line" dy="0em" x="0" y="0">Candidate Evaluation</tspan><tspan class="line" dy="1.3em" x="0" y="0">8.39</tspan></text></g></g><g class="slice"><path class="surface" d="M181.8061941897318,335.7413854602885L148.24159225297575,360.98851394705133A168,168 0,0,0 240.13662999286905,422.57104564355524L250.72747249465178,381.92828423266644A126,126 0,0,1 181.8061941897318,335.7413854602885Z" style="pointer-events: none; stroke-width: 1; fill: rgb(254, 217, 201); fill-opacity: 1; stroke: rgb(0, 0, 0); stroke-opacity: 1; opacity: 1;"/><g class="slicetext"><text data-notex="1" class="slicetext" text-anchor="middle" x="0" y="0" style="font-family: 'Times New Roman'; font-size: 12px; fill: rgb(0, 0, 0); fill-opacity: 1; white-space: pre;" transform="translate(203.8319338027269,377.3905117728904)rotate(33.82761723827616)"><tspan class="line" dy="0em" x="0" y="0">Mentorship</tspan><tspan class="line" dy="1.3em" x="0" y="0">10.68</tspan></text></g></g><g class="slice"><path class="surface" d="M450.5,260L492.5,260A210,210 0,0,0 455.2992228463765,140.66673312236728L420.7393782771012,164.53338649789384A168,168 0,0,1 450.5,260Z" style="pointer-events: none; stroke-width: 1; fill: rgb(254, 225, 212); fill-opacity: 1; stroke: rgb(0, 0, 0); stroke-opacity: 1; opacity: 1;"/><g class="slicetext"><text data-notex="1" class="slicetext" text-anchor="middle" x="0" y="0" style="font-family: 'Times New Roman'; font-size: 12px; fill: rgb(0, 0, 0); fill-opacity: 1; white-space: pre;" transform="translate(464.74534944109246,203.01525316269436)rotate(72.68573142685727)"><tspan class="line" dy="0em" x="0" y="0">Peer Review</tspan><tspan class="line" dy="1.3em" x="0" y="0">9.62</tspan></text></g></g><g class="slice"><path class="surface" d="M420.7393782771012,164.53338649789384L455.2992228463765,140.66673312236728A210,210 0,0,0 383.6879254290723,75.9864033627936L363.45034034325784,112.78912269023488A168,168 0,0,1 420.7393782771012,164.53338649789384Z" style="pointer-events: none; stroke-width: 1; fill: rgb(255, 236, 227); fill-opacity: 1; stroke: rgb(0, 0, 0); stroke-opacity: 1; opacity: 1;"/><g class="slicetext"><text data-notex="1" class="slicetext" text-anchor="middle" x="0" y="0" style="font-family: 'Times New Roman'; font-size: 12px; fill: rgb(0, 0, 0); fill-opacity: 1; white-space: pre;" transform="translate(410.47167325975374,118.05880926897545)rotate(42.08879112088789)"><tspan class="line" dy="0em" x="0" y="0">360 Review</tspan><tspan class="line" dy="1.3em" x="0" y="0">7.38</tspan></text></g></g><g class="slice"><path class="surface" d="M363.45034034325784,112.78912269023488L383.6879254290723,75.9864033627936A210,210 0,0,0 305.9680576906026,51.315428772919205L301.2744461524821,93.05234301833536A168,168 0,0,1 363.45034034325784,112.78912269023488Z" style="pointer-events: none; stroke-width: 1; fill: rgb(255, 241, 234); fill-opacity: 1; stroke: rgb(0, 0, 0); stroke-opacity: 1; opacity: 1;"/><g class="slicetext"><text data-notex="1" class="slicetext" text-anchor="middle" x="0" y="0" style="font-family: 'Times New Roman'; font-size: 12px; fill: rgb(0, 0, 0); fill-opacity: 1; white-space: pre;" transform="translate(342.0629721525413,71.90417359954722)scale(0.8432577624927362)rotate(17.61123887611234)"><tspan class="line" dy="0em" x="0" y="0">Manager Review</tspan><tspan class="line" dy="1.3em" x="0" y="0">6.22</tspan></text></g></g><g class="slice"><path class="surface" d="M301.2744461524821,93.05234301833536L305.9680576906026,51.315428772919205A210,210 0,0,0 209.42024524453905,63.12605696821714L224.03619619563125,102.50084557457373A168,168 0,0,1 301.2744461524821,93.05234301833536Z" style="pointer-events: none; stroke-width: 1; fill: rgb(255, 235, 226); fill-opacity: 1; stroke: rgb(0, 0, 0); stroke-opacity: 1; opacity: 1;"/><g class="slicetext"><text data-notex="1" class="slicetext" text-anchor="middle" x="0" y="0" style="font-family: 'Times New Roman'; font-size: 12px; fill: rgb(0, 0, 0); fill-opacity: 1; white-space: pre;" transform="translate(258.909606281539,68.50781873140178)rotate(-6.974302569743031)"><tspan class="line" dy="0em" x="0" y="0">SMART Goals</tspan><tspan class="line" dy="1.3em" x="0" y="0">7.44</tspan></text></g></g><g class="slice"><path class="surface" d="M224.03619619563125,102.50084557457373L209.42024524453905,63.12605696821714A210,210 0,0,0 148.16984466760883,98.58311932026547L175.03587573408706,130.86649545621236A168,168 0,0,1 224.03619619563125,102.50084557457373Z" style="pointer-events: none; stroke-width: 1; fill: rgb(255, 245, 240); fill-opacity: 1; stroke: rgb(0, 0, 0); stroke-opacity: 1; opacity: 1;"/><g class="slicetext"><text data-notex="1" class="slicetext" text-anchor="middle" x="0" y="0" style="font-family: 'Times New Roman'; font-size: 12px; fill: rgb(0, 0, 0); fill-opacity: 1; white-space: pre;" transform="translate(186.02584576855278,93.6729269547468)rotate(-30.065993400659977)"><tspan class="line" dy="0em" x="0" y="0">OKRs</tspan><tspan class="line" dy="1.3em" x="0" y="0">5.39</tspan></text></g></g></g></g><g class="glimages"/><defs id="topdefs-c2e5f2"><g class="clips"/></defs><g class="layer-above"><g class="imagelayer"/><g class="shapelayer"/></g><g class="infolayer"><g class="cb511e52 colorbar" transform="translate(10,50)"><rect class="cbbg" x="571.5" y="63" width="48.015625" height="295" style="fill: rgb(0, 0, 0); fill-opacity: 0; stroke: rgb(68, 68, 68); stroke-opacity: 1; stroke-width: 0;"/><g class="cbfills" transform="translate(0,93)"><rect class="cbfill gradient_filled" style="fill: url('#gc2e5f2-cb511e52');" x="582" y="0" width="15" height="254"/></g><g class="cblines" transform="translate(0,93)"/><g class="cbaxis crisp" transform="translate(0,-50)"><g class="ycb511e52tick"><text text-anchor="start" x="600.4" y="4.199999999999999" transform="translate(0,364.31000000000006)" style="font-family: 'Times New Roman'; font-size: 12px; fill: rgb(42, 63, 95); fill-opacity: 1; white-space: pre; opacity: 1;">10</text></g><g class="ycb511e52tick"><text text-anchor="start" x="600.4" y="4.199999999999999" style="font-family: 'Times New Roman'; font-size: 12px; fill: rgb(42, 63, 95); fill-opacity: 1; white-space: pre; opacity: 1;" transform="translate(0,329.08000000000004)">15</text></g><g class="ycb511e52tick"><text text-anchor="start" x="600.4" y="4.199999999999999" style="font-family: 'Times New Roman'; font-size: 12px; fill: rgb(42, 63, 95); fill-opacity: 1; white-space: pre; opacity: 1;" transform="translate(0,293.85)">20</text></g><g class="ycb511e52tick"><text text-anchor="start" x="600.4" y="4.199999999999999" style="font-family: 'Times New Roman'; font-size: 12px; fill: rgb(42, 63, 95); fill-opacity: 1; white-space: pre; opacity: 1;" transform="translate(0,258.62000000000006)">25</text></g><g class="ycb511e52tick"><text text-anchor="start" x="600.4" y="4.199999999999999" style="font-family: 'Times New Roman'; font-size: 12px; fill: rgb(42, 63, 95); fill-opacity: 1; white-space: pre; opacity: 1;" transform="translate(0,223.39000000000004)">30</text></g><g class="ycb511e52tick"><text text-anchor="start" x="600.4" y="4.199999999999999" style="font-family: 'Times New Roman'; font-size: 12px; fill: rgb(42, 63, 95); fill-opacity: 1; white-space: pre; opacity: 1;" transform="translate(0,188.16000000000005)">35</text></g><g class="ycb511e52tick"><text text-anchor="start" x="600.4" y="4.199999999999999" style="font-family: 'Times New Roman'; font-size: 12px; fill: rgb(42, 63, 95); fill-opacity: 1; white-space: pre; opacity: 1;" transform="translate(0,152.93000000000006)">40</text></g></g><g class="cbtitleunshift" transform="translate(-10,-50)"><g class="cbtitle" transform="translate(-0.5,-0.5)"><text class="ycb511e52title" x="592.25" y="135.75" text-anchor="start" style="opacity: 1; font-family: 'Times New Roman'; font-size: 13px; fill: rgb(42, 63, 95); fill-opacity: 1; white-space: pre;">%</text></g></g><rect class="cboutline" x="582" y="93" width="15" height="254" style="stroke: rgb(68, 68, 68); stroke-opacity: 1; fill: none; stroke-width: 1;"/></g><g class="g-gtitle"><text class="gtitle" x="320" y="25" text-anchor="middle" dy="0em" style="opacity: 1; font-family: 'Times New Roman'; font-size: 16px; fill: rgb(42, 63, 95); fill-opacity: 1; white-space: pre;">Employee Distribution by Category (2021) (%)</text></g></g></svg>