<svg class="main-svg" xmlns="http://www.w3.org/2000/svg" xmlns:xlink="http://www.w3.org/1999/xlink" width="1920" height="1440" style="" viewBox="0 0 640 480"><rect x="0" y="0" width="640" height="480" style="fill: rgb(255, 255, 255); fill-opacity: 1;"/><defs id="defs-55c92d"><g class="clips"/><g class="gradients"><linearGradient x1="0" y1="1" x2="0" y2="0" gradientUnits="objectBoundingBox" id="g55c92d-cb39e619"><stop offset="0%" stop-color="rgb(247, 252, 245)" stop-opacity="1"/><stop offset="12.5%" stop-color="rgb(229, 245, 224)" stop-opacity="1"/><stop offset="25%" stop-color="rgb(199, 233, 192)" stop-opacity="1"/><stop offset="37.5%" stop-color="rgb(161, 217, 155)" stop-opacity="1"/><stop offset="50%" stop-color="rgb(116, 196, 118)" stop-opacity="1"/><stop offset="62.5%" stop-color="rgb(65, 171, 93)" stop-opacity="1"/><stop offset="75%" stop-color="rgb(35, 139, 69)" stop-opacity="1"/><stop offset="87.5%" stop-color="rgb(0, 109, 44)" stop-opacity="1"/><stop offset="100%" stop-color="rgb(0, 68, 27)" stop-opacity="1"/></linearGradient></g><g class="patterns"/></defs><g class="bglayer"/><g class="layer-below"><g class="imagelayer"/><g class="shapelayer"/></g><g class="cartesianlayer"/><g class="polarlayer"/><g class="smithlayer"/><g class="ternarylayer"/><g class="geolayer"/><g class="funnelarealayer"/><g class="pielayer"/><g class="iciclelayer"/><g class="treemaplayer"/><g class="sunburstlayer"><g class="trace sunburst" stroke-linejoin="round" style="opacity: 1;"><g class="slice"><path class="surface" d="M282.5,260A0,0 0,1,0 282.5,260A0,0 0,1,0 282.5,260ZM324.5,260A42,42 0,1,1 240.5,260A42,42 0,1,1 324.5,260Z" style="pointer-events: none; stroke-width: 1; fill: rgb(255, 255, 255); fill-opacity: 1; stroke: rgb(0, 0, 0); stroke-opacity: 1;"/><g class="slicetext"><text data-notex="1" class="slicetext" text-anchor="middle" x="0" y="0" style="font-family: 'Times New Roman'; font-size: 12px; fill: rgb(0, 0, 0); fill-opacity: 1; white-space: pre;" transform="translate(282.5,264)">100</text></g></g><g class="slice cursor-pointer"><path class="surface" d="M324.5,260L366.5,260A84,84 0,0,0 207.70343315859424,221.77077572407308L245.10171657929712,240.88538786203654A42,42 0,0,1 324.5,260Z" style="pointer-events: none; stroke-width: 1; fill: rgb(0, 68, 27); fill-opacity: 1; stroke: rgb(0, 0, 0); stroke-opacity: 1;"/><g class="slicetext"><text data-notex="1" class="slicetext" text-anchor="middle" x="0" y="0" style="font-family: 'Times New Roman'; font-size: 12px; fill: rgb(0, 0, 0); fill-opacity: 1; white-space: pre;" transform="translate(296.55669997618753,201.6112741072843)scale(0.8964705263378435)rotate(13.536000000000058)"><tspan class="line" dy="0em" x="0" y="0">Residential Property</tspan><tspan class="line" dy="1.3em" x="0" y="0">42.48</tspan></text></g></g><g class="slice cursor-pointer"><path class="surface" d="M245.10171657929712,240.88538786203654L207.70343315859424,221.77077572407308A84,84 0,0,0 305.3771834366957,340.824714524728L293.9385917183478,300.412357262364A42,42 0,0,1 245.10171657929712,240.88538786203654Z" style="pointer-events: none; stroke-width: 1; fill: rgb(7, 115, 49); fill-opacity: 1; stroke: rgb(0, 0, 0); stroke-opacity: 1;"/><g class="slicetext"><text data-notex="1" class="slicetext" text-anchor="middle" x="0" y="0" style="font-family: 'Times New Roman'; font-size: 12px; fill: rgb(0, 0, 0); fill-opacity: 1; white-space: pre;" transform="translate(239.8756870012626,294.5452441457649)rotate(50.634000000000015)"><tspan class="line" dy="0em" x="0" y="0">Rental Market</tspan><tspan class="line" dy="1.3em" x="0" y="0">36.91</tspan></text></g></g><g class="slice cursor-pointer"><path class="surface" d="M293.9385917183478,300.412357262364L305.3771834366957,340.824714524728A84,84 0,0,0 366.5,260L324.5,260A42,42 0,0,1 293.9385917183478,300.412357262364Z" style="pointer-events: none; stroke-width: 1; fill: rgb(146, 210, 143); fill-opacity: 1; stroke: rgb(0, 0, 0); stroke-opacity: 1;"/><g class="slicetext"><text data-notex="1" class="slicetext" text-anchor="middle" x="0" y="0" style="font-family: 'Times New Roman'; font-size: 12px; fill: rgb(0, 0, 0); fill-opacity: 1; white-space: pre;" transform="translate(331.67128671759764,297.1852539893827)scale(0.6457326983028849)rotate(-52.902000000000044)"><tspan class="line" dy="0em" x="0" y="0">Commercial Real Estate</tspan><tspan class="line" dy="1.3em" x="0" y="0">20.61</tspan></text></g></g><g class="slice cursor-pointer"><path class="surface" d="M366.5,260L408.5,260A126,126 0,0,0 279.8876387430417,134.02708398761604L280.75842582869444,176.018055991744A84,84 0,0,1 366.5,260Z" style="pointer-events: none; stroke-width: 1; fill: rgb(99, 188, 110); fill-opacity: 1; stroke: rgb(0, 0, 0); stroke-opacity: 1;"/><g class="slicetext"><text data-notex="1" class="slicetext" text-anchor="middle" x="0" y="0" style="font-family: 'Times New Roman'; font-size: 12px; fill: rgb(0, 0, 0); fill-opacity: 1; white-space: pre;" transform="translate(354.54208854878704,186.21890268245815)scale(0.9790393423296554)rotate(44.40599999999995)"><tspan class="line" dy="0em" x="0" y="0">Single Family Homes</tspan><tspan class="line" dy="1.3em" x="0" y="0">25.33</tspan></text></g></g><g class="slice cursor-pointer"><path class="surface" d="M280.75842582869444,176.018055991744L279.8876387430417,134.02708398761604A126,126 0,0,0 170.30514973789133,202.65616358610964L207.70343315859424,221.77077572407308A84,84 0,0,1 280.75842582869444,176.018055991744Z" style="pointer-events: none; stroke-width: 1; fill: rgb(177, 224, 170); fill-opacity: 1; stroke: rgb(0, 0, 0); stroke-opacity: 1;"/><g class="slicetext"><text data-notex="1" class="slicetext" text-anchor="middle" x="0" y="0" style="font-family: 'Times New Roman'; font-size: 12px; fill: rgb(0, 0, 0); fill-opacity: 1; white-space: pre;" transform="translate(226.91955006966185,171.548700044153)scale(0.9575543757998324)rotate(-32.05799999999999)"><tspan class="line" dy="0em" x="0" y="0">Multi-Family Homes</tspan><tspan class="line" dy="1.3em" x="0" y="0">17.15</tspan></text></g></g><g class="slice"><path class="surface" d="M207.70343315859424,221.77077572407308L170.30514973789133,202.65616358610964A126,126 0,0,0 316.8157751550435,381.23707178709196L305.3771834366957,340.824714524728A84,84 0,0,1 207.70343315859424,221.77077572407308Z" style="pointer-events: none; stroke-width: 1; fill: rgb(7, 115, 49); fill-opacity: 1; stroke: rgb(0, 0, 0); stroke-opacity: 1; opacity: 1;"/><g class="slicetext"><text data-notex="1" class="slicetext" text-anchor="middle" x="0" y="0" style="font-family: 'Times New Roman'; font-size: 12px; fill: rgb(0, 0, 0); fill-opacity: 1; white-space: pre;" transform="translate(207.96393623154233,320.928259219112)rotate(50.634000000000015)"><tspan class="line" dy="0em" x="0" y="0">Long-Term Rentals</tspan><tspan class="line" dy="1.3em" x="0" y="0">36.91</tspan></text></g></g><g class="slice cursor-pointer"><path class="surface" d="M305.3771834366957,340.824714524728L316.8157751550435,381.23707178709196A126,126 0,0,0 398.78726823896557,308.51052716183233L360.0248454926437,292.34035144122157A84,84 0,0,1 305.3771834366957,340.824714524728Z" style="pointer-events: none; stroke-width: 1; fill: rgb(200, 233, 193); fill-opacity: 1; stroke: rgb(0, 0, 0); stroke-opacity: 1;"/><g class="slicetext"><text data-notex="1" class="slicetext" text-anchor="middle" x="0" y="0" style="font-family: 'Times New Roman'; font-size: 12px; fill: rgb(0, 0, 0); fill-opacity: 1; white-space: pre;" transform="translate(348.44922897965523,334.57985646895986)rotate(-41.57999999999993)"><tspan class="line" dy="0em" x="0" y="0">Office Buildings</tspan><tspan class="line" dy="1.3em" x="0" y="0">14.32</tspan></text></g></g><g class="slice"><path class="surface" d="M360.0248454926437,292.34035144122157L398.78726823896557,308.51052716183233A126,126 0,0,0 408.5,260.00000000000006L366.5,260A84,84 0,0,1 360.0248454926437,292.34035144122157Z" style="pointer-events: none; stroke-width: 1; fill: rgb(242, 250, 240); fill-opacity: 1; stroke: rgb(0, 0, 0); stroke-opacity: 1; opacity: 1;"/><g class="slicetext"><text data-notex="1" class="slicetext" text-anchor="middle" x="0" y="0" style="font-family: 'Times New Roman'; font-size: 12px; fill: rgb(0, 0, 0); fill-opacity: 1; white-space: pre;" transform="translate(392.6603319170555,282.15890968839847)scale(0.6138734383641727)rotate(-78.678)"><tspan class="line" dy="0em" x="0" y="0">Retail Spaces</tspan><tspan class="line" dy="1.3em" x="0" y="0">6.29</tspan></text></g></g><g class="slice cursor-pointer"><path class="surface" d="M408.5,260L450.5,260A168,168 0,0,0 352.69101268707834,107.36572554644744L335.1432595153087,145.5242941598356A126,126 0,0,1 408.5,260Z" style="pointer-events: none; stroke-width: 1; fill: rgb(169, 220, 163); fill-opacity: 1; stroke: rgb(0, 0, 0); stroke-opacity: 1;"/><g class="slicetext"><text data-notex="1" class="slicetext" text-anchor="middle" x="0" y="0" style="font-family: 'Times New Roman'; font-size: 12px; fill: rgb(0, 0, 0); fill-opacity: 1; white-space: pre;" transform="translate(408.34459524251946,179.3580048547945)rotate(57.347999999999956)"><tspan class="line" dy="0em" x="0" y="0">Detached</tspan><tspan class="line" dy="1.3em" x="0" y="0">18.14</tspan></text></g></g><g class="slice"><path class="surface" d="M335.1432595153087,145.5242941598356L352.69101268707834,107.36572554644744A168,168 0,0,0 279.0168516573889,92.03611198348804L279.88763874304163,134.02708398761604A126,126 0,0,1 335.1432595153087,145.5242941598356Z" style="pointer-events: none; stroke-width: 1; fill: rgb(239, 249, 235); fill-opacity: 1; stroke: rgb(0, 0, 0); stroke-opacity: 1; opacity: 1;"/><g class="slicetext"><text data-notex="1" class="slicetext" text-anchor="middle" x="0" y="0" style="font-family: 'Times New Roman'; font-size: 12px; fill: rgb(0, 0, 0); fill-opacity: 1; white-space: pre;" transform="translate(314.1400163515552,107.93800247522528)scale(0.8347354867845601)rotate(11.754000000000019)"><tspan class="line" dy="0em" x="0" y="0">Semi-Detached</tspan><tspan class="line" dy="1.3em" x="0" y="0">7.19</tspan></text></g></g><g class="slice"><path class="surface" d="M279.8876387430417,134.02708398761604L279.01685165738894,92.03611198348804A168,168 0,0,0 175.65696020651467,130.35215062451783L202.367720154886,162.7641129683884A126,126 0,0,1 279.8876387430417,134.02708398761604Z" style="pointer-events: none; stroke-width: 1; fill: rgb(223, 243, 218); fill-opacity: 1; stroke: rgb(0, 0, 0); stroke-opacity: 1; opacity: 1;"/><g class="slicetext"><text data-notex="1" class="slicetext" text-anchor="middle" x="0" y="0" style="font-family: 'Times New Roman'; font-size: 12px; fill: rgb(0, 0, 0); fill-opacity: 1; white-space: pre;" transform="translate(230.60172818536913,120.47319148976766)rotate(-20.340000000000032)"><tspan class="line" dy="0em" x="0" y="0">Apartments</tspan><tspan class="line" dy="1.3em" x="0" y="0">10.64</tspan></text></g></g><g class="slice"><path class="surface" d="M202.367720154886,162.7641129683884L175.65696020651467,130.35215062451783A168,168 0,0,0 132.90686631718845,183.54155144814618L170.30514973789133,202.65616358610964A126,126 0,0,1 202.367720154886,162.7641129683884Z" style="pointer-events: none; stroke-width: 1; fill: rgb(241, 250, 239); fill-opacity: 1; stroke: rgb(0, 0, 0); stroke-opacity: 1; opacity: 1;"/><g class="slicetext"><text data-notex="1" class="slicetext" text-anchor="middle" x="0" y="0" style="font-family: 'Times New Roman'; font-size: 12px; fill: rgb(0, 0, 0); fill-opacity: 1; white-space: pre;" transform="translate(165.623755111209,166.06266727847566)rotate(-51.210000000000036)"><tspan class="line" dy="0em" x="0" y="0">Duplex</tspan><tspan class="line" dy="1.3em" x="0" y="0">6.51</tspan></text></g></g><g class="slice cursor-pointer"><path class="surface" d="M316.8157751550435,381.23707178709196L328.25436687339135,421.649429049456A168,168 0,0,0 437.5496909852874,324.68070288244314L398.78726823896557,308.51052716183233A126,126 0,0,1 316.8157751550435,381.23707178709196Z" style="pointer-events: none; stroke-width: 1; fill: rgb(200, 233, 193); fill-opacity: 1; stroke: rgb(0, 0, 0); stroke-opacity: 1;"/><g class="slicetext"><text data-notex="1" class="slicetext" text-anchor="middle" x="0" y="0" style="font-family: 'Times New Roman'; font-size: 12px; fill: rgb(0, 0, 0); fill-opacity: 1; white-space: pre;" transform="translate(374.74177368642586,364.21469142083504)rotate(-41.57999999999993)"><tspan class="line" dy="0em" x="0" y="0">Downtown Offices</tspan><tspan class="line" dy="1.3em" x="0" y="0">14.32</tspan></text></g></g><g class="slice"><path class="surface" d="M450.5,260L492.5,260A210,210 0,0,0 470.14749925230035,165.7216036180189L432.6179994018403,184.5772828944151A168,168 0,0,1 450.5,260Z" style="pointer-events: none; stroke-width: 1; fill: rgb(238, 248, 234); fill-opacity: 1; stroke: rgb(0, 0, 0); stroke-opacity: 1; opacity: 1;"/><g class="slicetext"><text data-notex="1" class="slicetext" text-anchor="middle" x="0" y="0" style="font-family: 'Times New Roman'; font-size: 12px; fill: rgb(0, 0, 0); fill-opacity: 1; white-space: pre;" transform="translate(472.00386953585485,215.07045571362985)scale(0.9705323186544443)rotate(76.66200000000003)"><tspan class="line" dy="0em" x="0" y="0">Luxury Detached</tspan><tspan class="line" dy="1.3em" x="0" y="0">7.41</tspan></text></g></g><g class="slice"><path class="surface" d="M432.6179994018403,184.5772828944151L470.14749925230035,165.7216036180189A210,210 0,0,0 425.58020797970534,106.28580389409615L396.9641663837643,137.0286431152769A168,168 0,0,1 432.6179994018403,184.5772828944151Z" style="pointer-events: none; stroke-width: 1; fill: rgb(245, 251, 242); fill-opacity: 1; stroke: rgb(0, 0, 0); stroke-opacity: 1; opacity: 1;"/><g class="slicetext"><text data-notex="1" class="slicetext" text-anchor="middle" x="0" y="0" style="font-family: 'Times New Roman'; font-size: 12px; fill: rgb(0, 0, 0); fill-opacity: 1; white-space: pre;" transform="translate(442.0716432224949,140.34693004254962)scale(0.689731347427264)rotate(53.13599999999997)"><tspan class="line" dy="0em" x="0" y="0">Suburban Detached</tspan><tspan class="line" dy="1.3em" x="0" y="0">5.66</tspan></text></g></g><g class="slice"><path class="surface" d="M396.9641663837643,137.0286431152769L425.58020797970534,106.28580389409615A210,210 0,0,0 370.23876585884796,69.20715693305931L352.69101268707834,107.36572554644744A168,168 0,0,1 396.9641663837643,137.0286431152769Z" style="pointer-events: none; stroke-width: 1; fill: rgb(247, 252, 245); fill-opacity: 1; stroke: rgb(0, 0, 0); stroke-opacity: 1; opacity: 1;"/><g class="slicetext"><text data-notex="1" class="slicetext" text-anchor="middle" x="0" y="0" style="font-family: 'Times New Roman'; font-size: 12px; fill: rgb(0, 0, 0); fill-opacity: 1; white-space: pre;" transform="translate(393.51357959444823,94.30755722528778)scale(0.7387614678957185)rotate(33.822)"><tspan class="line" dy="0em" x="0" y="0">Urban Detached</tspan><tspan class="line" dy="1.3em" x="0" y="0">5.07</tspan></text></g></g><g class="slice"><path class="surface" d="M328.25436687339135,421.649429049456L339.69295859173917,462.06178631182A210,210 0,0,0 430.15034944586154,409.32975024594055L400.62027955668924,379.46380019675246A168,168 0,0,1 328.25436687339135,421.649429049456Z" style="pointer-events: none; stroke-width: 1; fill: rgb(236, 248, 232); fill-opacity: 1; stroke: rgb(0, 0, 0); stroke-opacity: 1; opacity: 1;"/><g class="slicetext"><text data-notex="1" class="slicetext" text-anchor="middle" x="0" y="0" style="font-family: 'Times New Roman'; font-size: 12px; fill: rgb(0, 0, 0); fill-opacity: 1; white-space: pre;" transform="translate(376.4200629735147,421.1120009632291)scale(0.9810496586615767)rotate(-30.24000000000001)"><tspan class="line" dy="0em" x="0" y="0">Shared Workspace</tspan><tspan class="line" dy="1.3em" x="0" y="0">8.02</tspan></text></g></g><g class="slice"><path class="surface" d="M400.62027955668924,379.46380019675246L430.15034944586154,409.32975024594055A210,210 0,0,0 476.31211373160926,340.8508786030539L437.5496909852874,324.68070288244314A168,168 0,0,1 400.62027955668924,379.46380019675246Z" style="pointer-events: none; stroke-width: 1; fill: rgb(242, 250, 239); fill-opacity: 1; stroke: rgb(0, 0, 0); stroke-opacity: 1; opacity: 1;"/><g class="slicetext"><text data-notex="1" class="slicetext" text-anchor="middle" x="0" y="0" style="font-family: 'Times New Roman'; font-size: 12px; fill: rgb(0, 0, 0); fill-opacity: 1; white-space: pre;" transform="translate(435.30884758805036,363.2066521743181)rotate(-56.01599999999996)"><tspan class="line" dy="0em" x="0" y="0">Class A</tspan><tspan class="line" dy="1.3em" x="0" y="0">6.3</tspan></text></g></g></g></g><g class="glimages"/><defs id="topdefs-55c92d"><g class="clips"/></defs><g class="layer-above"><g class="imagelayer"/><g class="shapelayer"/></g><g class="infolayer"><g class="cb39e619 colorbar" transform="translate(10,50)"><rect class="cbbg" x="571.5" y="63" width="48.015625" height="295" style="fill: rgb(0, 0, 0); fill-opacity: 0; stroke: rgb(68, 68, 68); stroke-opacity: 1; stroke-width: 0;"/><g class="cbfills" transform="translate(0,93)"><rect class="cbfill gradient_filled" style="fill: url('#g55c92d-cb39e619');" x="582" y="0" width="15" height="254"/></g><g class="cblines" transform="translate(0,93)"/><g class="cbaxis crisp" transform="translate(0,-50)"><g class="ycb39e619tick"><text text-anchor="start" x="600.4" y="4.199999999999999" transform="translate(0,363.5300000000001)" style="font-family: 'Times New Roman'; font-size: 12px; fill: rgb(42, 63, 95); fill-opacity: 1; white-space: pre; opacity: 1;">10</text></g><g class="ycb39e619tick"><text text-anchor="start" x="600.4" y="4.199999999999999" style="font-family: 'Times New Roman'; font-size: 12px; fill: rgb(42, 63, 95); fill-opacity: 1; white-space: pre; opacity: 1;" transform="translate(0,295.63000000000005)">20</text></g><g class="ycb39e619tick"><text text-anchor="start" x="600.4" y="4.199999999999999" style="font-family: 'Times New Roman'; font-size: 12px; fill: rgb(42, 63, 95); fill-opacity: 1; white-space: pre; opacity: 1;" transform="translate(0,227.73000000000008)">30</text></g><g class="ycb39e619tick"><text text-anchor="start" x="600.4" y="4.199999999999999" style="font-family: 'Times New Roman'; font-size: 12px; fill: rgb(42, 63, 95); fill-opacity: 1; white-space: pre; opacity: 1;" transform="translate(0,159.84000000000006)">40</text></g></g><g class="cbtitleunshift" transform="translate(-10,-50)"><g class="cbtitle" transform="translate(-0.5,-0.5)"><text class="ycb39e619title" x="592.25" y="135.75" text-anchor="start" style="opacity: 1; font-family: 'Times New Roman'; font-size: 13px; fill: rgb(42, 63, 95); fill-opacity: 1; white-space: pre;">%</text></g></g><rect class="cboutline" x="582" y="93" width="15" height="254" style="stroke: rgb(68, 68, 68); stroke-opacity: 1; fill: none; stroke-width: 1;"/></g><g class="g-gtitle"><text class="gtitle" x="320" y="25" text-anchor="middle" dy="0em" style="opacity: 1; font-family: 'Times New Roman'; font-size: 16px; fill: rgb(42, 63, 95); fill-opacity: 1; white-space: pre;">Housing Market Distribution by Category (2023) (%)</text></g></g></svg>