<svg class="main-svg" xmlns="http://www.w3.org/2000/svg" xmlns:xlink="http://www.w3.org/1999/xlink" width="1920" height="1440" style="" viewBox="0 0 640 480"><rect x="0" y="0" width="640" height="480" style="fill: rgb(255, 255, 255); fill-opacity: 1;"/><defs id="defs-a09138"><g class="clips"/><g class="gradients"><linearGradient x1="0" y1="1" x2="0" y2="0" gradientUnits="objectBoundingBox" id="ga09138-cb7a1e08"><stop offset="0%" stop-color="rgb(255, 245, 235)" stop-opacity="1"/><stop offset="12.5%" stop-color="rgb(254, 230, 206)" stop-opacity="1"/><stop offset="25%" stop-color="rgb(253, 208, 162)" stop-opacity="1"/><stop offset="37.5%" stop-color="rgb(253, 174, 107)" stop-opacity="1"/><stop offset="50%" stop-color="rgb(253, 141, 60)" stop-opacity="1"/><stop offset="62.5%" stop-color="rgb(241, 105, 19)" stop-opacity="1"/><stop offset="75%" stop-color="rgb(217, 72, 1)" stop-opacity="1"/><stop offset="87.5%" stop-color="rgb(166, 54, 3)" stop-opacity="1"/><stop offset="100%" stop-color="rgb(127, 39, 4)" stop-opacity="1"/></linearGradient></g><g class="patterns"/></defs><g class="bglayer"/><g class="layer-below"><g class="imagelayer"/><g class="shapelayer"/></g><g class="cartesianlayer"/><g class="polarlayer"/><g class="smithlayer"/><g class="ternarylayer"/><g class="geolayer"/><g class="funnelarealayer"/><g class="pielayer"/><g class="iciclelayer"/><g class="treemaplayer"/><g class="sunburstlayer"><g class="trace sunburst" stroke-linejoin="round" style="opacity: 1;"><g class="slice"><path class="surface" d="M282.5,260A0,0 0,1,0 282.5,260A0,0 0,1,0 282.5,260ZM324.5,260A42,42 0,1,1 240.5,260A42,42 0,1,1 324.5,260Z" style="pointer-events: none; stroke-width: 1; fill: rgb(255, 255, 255); fill-opacity: 1; stroke: rgb(0, 0, 0); stroke-opacity: 1;"/><g class="slicetext"><text data-notex="1" class="slicetext" text-anchor="middle" x="0" y="0" style="font-family: 'Times New Roman'; font-size: 12px; fill: rgb(0, 0, 0); fill-opacity: 1; white-space: pre;" transform="translate(282.5,264)">100</text></g></g><g class="slice cursor-pointer"><path class="surface" d="M324.5,260L366.5,260A84,84 0,1,0 200.77190087905356,279.40406694682207L241.63595043952677,269.702033473411A42,42 0,1,1 324.5,260Z" style="pointer-events: none; stroke-width: 1; fill: rgb(127, 39, 4); fill-opacity: 1; stroke: rgb(0, 0, 0); stroke-opacity: 1;"/><g class="slicetext"><text data-notex="1" class="slicetext" text-anchor="middle" x="0" y="0" style="font-family: 'Times New Roman'; font-size: 12px; fill: rgb(0, 0, 0); fill-opacity: 1; white-space: pre;" transform="translate(274.9090690938577,197.98828073504632)rotate(-6.677999999999997)"><tspan class="line" dy="0em" x="0" y="0">Rental Market</tspan><tspan class="line" dy="1.3em" x="0" y="0">53.71</tspan></text></g></g><g class="slice cursor-pointer"><path class="surface" d="M241.63595043952677,269.702033473411L200.77190087905356,279.40406694682207A84,84 0,0,0 308.05553665363146,340.01821384125554L295.27776832681576,300.00910692062774A42,42 0,0,1 241.63595043952677,269.702033473411Z" style="pointer-events: none; stroke-width: 1; fill: rgb(253, 159, 86); fill-opacity: 1; stroke: rgb(0, 0, 0); stroke-opacity: 1;"/><g class="slicetext"><text data-notex="1" class="slicetext" text-anchor="middle" x="0" y="0" style="font-family: 'Times New Roman'; font-size: 12px; fill: rgb(0, 0, 0); fill-opacity: 1; white-space: pre;" transform="translate(255.47007948044327,307.84144125770456)scale(0.7756827007957029)rotate(29.466000000000008)"><tspan class="line" dy="0em" x="0" y="0">Commercial Real Estate</tspan><tspan class="line" dy="1.3em" x="0" y="0">26.21</tspan></text></g></g><g class="slice cursor-pointer"><path class="surface" d="M295.27776832681576,300.00910692062774L308.05553665363146,340.01821384125554A84,84 0,0,0 366.5,259.99999999999994L324.5,260A42,42 0,0,1 295.27776832681576,300.00910692062774Z" style="pointer-events: none; stroke-width: 1; fill: rgb(253, 193, 138); fill-opacity: 1; stroke: rgb(0, 0, 0); stroke-opacity: 1;"/><g class="slicetext"><text data-notex="1" class="slicetext" text-anchor="middle" x="0" y="0" style="font-family: 'Times New Roman'; font-size: 12px; fill: rgb(0, 0, 0); fill-opacity: 1; white-space: pre;" transform="translate(331.9319889719817,296.1046058006554)scale(0.7214592205837673)rotate(-53.85600000000011)"><tspan class="line" dy="0em" x="0" y="0">Residential Property</tspan><tspan class="line" dy="1.3em" x="0" y="0">20.08</tspan></text></g></g><g class="slice cursor-pointer"><path class="surface" d="M366.5,260L408.5,260A126,126 0,0,0 172.58485014973303,198.3991896693448L209.22323343315537,218.93279311289652A84,84 0,0,1 366.5,260Z" style="pointer-events: none; stroke-width: 1; fill: rgb(215, 71, 1); fill-opacity: 1; stroke: rgb(0, 0, 0); stroke-opacity: 1;"/><g class="slicetext"><text data-notex="1" class="slicetext" text-anchor="middle" x="0" y="0" style="font-family: 'Times New Roman'; font-size: 12px; fill: rgb(0, 0, 0); fill-opacity: 1; white-space: pre;" transform="translate(308.5750423461521,159.48995761670378)rotate(14.634000000000015)"><tspan class="line" dy="0em" x="0" y="0">Short-Term Rentals</tspan><tspan class="line" dy="1.3em" x="0" y="0">41.87</tspan></text></g></g><g class="slice cursor-pointer"><path class="surface" d="M209.22323343315537,218.93279311289652L172.58485014973303,198.3991896693448A126,126 0,0,0 159.90785131858033,289.1061004202331L200.77190087905356,279.40406694682207A84,84 0,0,1 209.22323343315537,218.93279311289652Z" style="pointer-events: none; stroke-width: 1; fill: rgb(254, 228, 203); fill-opacity: 1; stroke: rgb(0, 0, 0); stroke-opacity: 1;"/><g class="slicetext"><text data-notex="1" class="slicetext" text-anchor="middle" x="0" y="0" style="font-family: 'Times New Roman'; font-size: 12px; fill: rgb(0, 0, 0); fill-opacity: 1; white-space: pre;" transform="translate(172.12781773580008,244.70739336790928)scale(0.7650296264242248)rotate(-82.04399999999998)"><tspan class="line" dy="0em" x="0" y="0">Long-Term Rentals</tspan><tspan class="line" dy="1.3em" x="0" y="0">11.84</tspan></text></g></g><g class="slice"><path class="surface" d="M200.77190087905356,279.40406694682207L159.90785131858033,289.1061004202331A126,126 0,0,0 320.8333049804472,380.0273207618833L308.05553665363146,340.01821384125554A84,84 0,0,1 200.77190087905356,279.40406694682207Z" style="pointer-events: none; stroke-width: 1; fill: rgb(253, 159, 86); fill-opacity: 1; stroke: rgb(0, 0, 0); stroke-opacity: 1; opacity: 1;"/><g class="slicetext"><text data-notex="1" class="slicetext" text-anchor="middle" x="0" y="0" style="font-family: 'Times New Roman'; font-size: 12px; fill: rgb(0, 0, 0); fill-opacity: 1; white-space: pre;" transform="translate(234.57812107996995,344.48551087256277)rotate(29.466000000000008)"><tspan class="line" dy="0em" x="0" y="0">Office Buildings</tspan><tspan class="line" dy="1.3em" x="0" y="0">26.21</tspan></text></g></g><g class="slice"><path class="surface" d="M308.05553665363146,340.01821384125554L320.8333049804472,380.0273207618833A126,126 0,0,0 400.9163058368763,303.05320559432676L361.4442038912509,288.7021370628845A84,84 0,0,1 308.05553665363146,340.01821384125554Z" style="pointer-events: none; stroke-width: 1; fill: rgb(253, 218, 183); fill-opacity: 1; stroke: rgb(0, 0, 0); stroke-opacity: 1; opacity: 1;"/><g class="slicetext"><text data-notex="1" class="slicetext" text-anchor="middle" x="0" y="0" style="font-family: 'Times New Roman'; font-size: 12px; fill: rgb(0, 0, 0); fill-opacity: 1; white-space: pre;" transform="translate(352.90553911300674,333.44835276885436)scale(0.8414921075633024)rotate(-43.865999999999985)"><tspan class="line" dy="0em" x="0" y="0">Multi-Family Homes</tspan><tspan class="line" dy="1.3em" x="0" y="0">14.53</tspan></text></g></g><g class="slice cursor-pointer"><path class="surface" d="M361.4442038912509,288.7021370628845L400.9163058368763,303.05320559432676A126,126 0,0,0 408.5,259.99999999999983L366.5,259.9999999999999A84,84 0,0,1 361.4442038912509,288.7021370628845Z" style="pointer-events: none; stroke-width: 1; fill: rgb(255, 244, 234); fill-opacity: 1; stroke: rgb(0, 0, 0); stroke-opacity: 1;"/><g class="slicetext"><text data-notex="1" class="slicetext" text-anchor="middle" x="0" y="0" style="font-family: 'Times New Roman'; font-size: 12px; fill: rgb(0, 0, 0); fill-opacity: 1; white-space: pre;" transform="translate(386.02919654310324,276.76970237579565)scale(0.3796423206086881)rotate(9.989999999999952)"><tspan class="line" dy="0em" x="0" y="0">Single Family Homes</tspan><tspan class="line" dy="1.3em" x="0" y="0">5.55</tspan></text></g></g><g class="slice cursor-pointer"><path class="surface" d="M408.5,260L450.5,260A168,168 0,0,0 175.8199648159682,130.2179901021188L202.48997361197615,162.66349257658908A126,126 0,0,1 408.5,260Z" style="pointer-events: none; stroke-width: 1; fill: rgb(239, 103, 18); fill-opacity: 1; stroke: rgb(0, 0, 0); stroke-opacity: 1;"/><g class="slicetext"><text data-notex="1" class="slicetext" text-anchor="middle" x="0" y="0" style="font-family: 'Times New Roman'; font-size: 12px; fill: rgb(0, 0, 0); fill-opacity: 1; white-space: pre;" transform="translate(346.1654450880061,124.86980458974745)rotate(25.289999999999964)"><tspan class="line" dy="0em" x="0" y="0">Platforms</tspan><tspan class="line" dy="1.3em" x="0" y="0">35.95</tspan></text></g></g><g class="slice"><path class="surface" d="M202.48997361197615,162.66349257658908L175.8199648159682,130.2179901021188A168,168 0,0,0 135.94646686631071,177.86558622579304L172.58485014973303,198.3991896693448A126,126 0,0,1 202.48997361197615,162.66349257658908Z" style="pointer-events: none; stroke-width: 1; fill: rgb(255, 243, 232); fill-opacity: 1; stroke: rgb(0, 0, 0); stroke-opacity: 1; opacity: 1;"/><g class="slicetext"><text data-notex="1" class="slicetext" text-anchor="middle" x="0" y="0" style="font-family: 'Times New Roman'; font-size: 12px; fill: rgb(0, 0, 0); fill-opacity: 1; white-space: pre;" transform="translate(161.18362761466216,158.6196389621268)scale(0.6649118943864384)rotate(-50.07600000000002)"><tspan class="line" dy="0em" x="0" y="0">Vacation Homes</tspan><tspan class="line" dy="1.3em" x="0" y="0">5.92</tspan></text></g></g><g class="slice"><path class="surface" d="M172.58485014973303,198.3991896693448L135.94646686631071,177.86558622579304A168,168 0,0,0 115.34822914714158,243.13923190499597L157.13617186035617,247.35442392874697A126,126 0,0,1 172.58485014973303,198.3991896693448Z" style="pointer-events: none; stroke-width: 1; fill: rgb(255, 242, 229); fill-opacity: 1; stroke: rgb(0, 0, 0); stroke-opacity: 1; opacity: 1;"/><g class="slicetext"><text data-notex="1" class="slicetext" text-anchor="middle" x="0" y="0" style="font-family: 'Times New Roman'; font-size: 12px; fill: rgb(0, 0, 0); fill-opacity: 1; white-space: pre;" transform="translate(135.16576899645557,213.67266446804052)scale(0.9681117512265537)rotate(-72.48599999999999)"><tspan class="line" dy="0em" x="0" y="0">Apartments</tspan><tspan class="line" dy="1.3em" x="0" y="0">6.53</tspan></text></g></g><g class="slice"><path class="surface" d="M157.13617186035617,247.35442392874697L115.34822914714158,243.13923190499597A168,168 0,0,0 119.04380175810712,298.8081338936442L159.90785131858033,289.10610042023313A126,126 0,0,1 157.13617186035617,247.35442392874697Z" style="pointer-events: none; stroke-width: 1; fill: rgb(255, 245, 235); fill-opacity: 1; stroke: rgb(0, 0, 0); stroke-opacity: 1; opacity: 1;"/><g class="slicetext"><text data-notex="1" class="slicetext" text-anchor="middle" x="0" y="0" style="font-family: 'Times New Roman'; font-size: 12px; fill: rgb(0, 0, 0); fill-opacity: 1; white-space: pre;" transform="translate(128.31960243081775,270.0302981634297)scale(0.6087346432732548)rotate(86.202)"><tspan class="line" dy="0em" x="0" y="0">Houses for Rent</tspan><tspan class="line" dy="1.3em" x="0" y="0">5.31</tspan></text></g></g><g class="slice"><path class="surface" d="M400.9163058368763,303.05320559432676L440.38840778250176,317.404274125769A168,168 0,0,0 450.5,259.9999999999997L408.5,259.99999999999983A126,126 0,0,1 400.9163058368763,303.05320559432676Z" style="pointer-events: none; stroke-width: 1; fill: rgb(255, 244, 234); fill-opacity: 1; stroke: rgb(0, 0, 0); stroke-opacity: 1; opacity: 1;"/><g class="slicetext"><text data-notex="1" class="slicetext" text-anchor="middle" x="0" y="0" style="font-family: 'Times New Roman'; font-size: 12px; fill: rgb(0, 0, 0); fill-opacity: 1; white-space: pre;" transform="translate(427.22152041975977,285.49226554759343)rotate(-80.00999999999999)"><tspan class="line" dy="0em" x="0" y="0">Detached</tspan><tspan class="line" dy="1.3em" x="0" y="0">5.55</tspan></text></g></g><g class="slice"><path class="surface" d="M450.5,260L492.5,260A210,210 0,0,0 325.86026000805185,54.52521358562228L317.18820800644147,95.62017086849784A168,168 0,0,1 450.5,260Z" style="pointer-events: none; stroke-width: 1; fill: rgb(253, 184, 123); fill-opacity: 1; stroke: rgb(0, 0, 0); stroke-opacity: 1; opacity: 1;"/><g class="slicetext"><text data-notex="1" class="slicetext" text-anchor="middle" x="0" y="0" style="font-family: 'Times New Roman'; font-size: 12px; fill: rgb(0, 0, 0); fill-opacity: 1; white-space: pre;" transform="translate(430.4216892185369,139.60320684462312)rotate(50.95799999999997)"><tspan class="line" dy="0em" x="0" y="0">Booking.com</tspan><tspan class="line" dy="1.3em" x="0" y="0">21.69</tspan></text></g></g><g class="slice"><path class="surface" d="M317.18820800644147,95.62017086849784L325.86026000805185,54.52521358562228A210,210 0,0,0 216.72863902028465,60.56547922970813L229.8829112162277,100.45238338376652A168,168 0,0,1 317.18820800644147,95.62017086849784Z" style="pointer-events: none; stroke-width: 1; fill: rgb(254, 237, 220); fill-opacity: 1; stroke: rgb(0, 0, 0); stroke-opacity: 1; opacity: 1;"/><g class="slicetext"><text data-notex="1" class="slicetext" text-anchor="middle" x="0" y="0" style="font-family: 'Times New Roman'; font-size: 12px; fill: rgb(0, 0, 0); fill-opacity: 1; white-space: pre;" transform="translate(271.777029961958,69.23301064505866)rotate(-3.1680000000000064)"><tspan class="line" dy="0em" x="0" y="0">Airbnb Listings</tspan><tspan class="line" dy="1.3em" x="0" y="0">8.38</tspan></text></g></g><g class="slice"><path class="surface" d="M229.8829112162277,100.45238338376652L216.72863902028465,60.56547922970813A210,210 0,0,0 149.14995601996023,97.7724876276485L175.8199648159682,130.2179901021188A168,168 0,0,1 229.8829112162277,100.45238338376652Z" style="pointer-events: none; stroke-width: 1; fill: rgb(255, 244, 232); fill-opacity: 1; stroke: rgb(0, 0, 0); stroke-opacity: 1; opacity: 1;"/><g class="slicetext"><text data-notex="1" class="slicetext" text-anchor="middle" x="0" y="0" style="font-family: 'Times New Roman'; font-size: 12px; fill: rgb(0, 0, 0); fill-opacity: 1; white-space: pre;" transform="translate(188.85213532318622,90.26476839910052)rotate(-28.836000000000013)"><tspan class="line" dy="0em" x="0" y="0">Vrbo Hosts</tspan><tspan class="line" dy="1.3em" x="0" y="0">5.88</tspan></text></g></g></g></g><g class="glimages"/><defs id="topdefs-a09138"><g class="clips"/></defs><g class="layer-above"><g class="imagelayer"/><g class="shapelayer"/></g><g class="infolayer"><g class="cb7a1e08 colorbar" transform="translate(10,50)"><rect class="cbbg" x="571.5" y="63" width="48.015625" height="295" style="fill: rgb(0, 0, 0); fill-opacity: 0; stroke: rgb(68, 68, 68); stroke-opacity: 1; stroke-width: 0;"/><g class="cbfills" transform="translate(0,93)"><rect class="cbfill gradient_filled" style="fill: url('#ga09138-cb7a1e08');" x="582" y="0" width="15" height="254"/></g><g class="cblines" transform="translate(0,93)"/><g class="cbaxis crisp" transform="translate(0,-50)"><g class="ycb7a1e08tick"><text text-anchor="start" x="600.4" y="4.199999999999999" transform="translate(0,372.39000000000004)" style="font-family: 'Times New Roman'; font-size: 12px; fill: rgb(42, 63, 95); fill-opacity: 1; white-space: pre; opacity: 1;">10</text></g><g class="ycb7a1e08tick"><text text-anchor="start" x="600.4" y="4.199999999999999" style="font-family: 'Times New Roman'; font-size: 12px; fill: rgb(42, 63, 95); fill-opacity: 1; white-space: pre; opacity: 1;" transform="translate(0,319.9100000000001)">20</text></g><g class="ycb7a1e08tick"><text text-anchor="start" x="600.4" y="4.199999999999999" style="font-family: 'Times New Roman'; font-size: 12px; fill: rgb(42, 63, 95); fill-opacity: 1; white-space: pre; opacity: 1;" transform="translate(0,267.43000000000006)">30</text></g><g class="ycb7a1e08tick"><text text-anchor="start" x="600.4" y="4.199999999999999" style="font-family: 'Times New Roman'; font-size: 12px; fill: rgb(42, 63, 95); fill-opacity: 1; white-space: pre; opacity: 1;" transform="translate(0,214.95000000000005)">40</text></g><g class="ycb7a1e08tick"><text text-anchor="start" x="600.4" y="4.199999999999999" style="font-family: 'Times New Roman'; font-size: 12px; fill: rgb(42, 63, 95); fill-opacity: 1; white-space: pre; opacity: 1;" transform="translate(0,162.47000000000006)">50</text></g></g><g class="cbtitleunshift" transform="translate(-10,-50)"><g class="cbtitle" transform="translate(-0.5,-0.5)"><text class="ycb7a1e08title" x="592.25" y="135.75" text-anchor="start" style="opacity: 1; font-family: 'Times New Roman'; font-size: 13px; fill: rgb(42, 63, 95); fill-opacity: 1; white-space: pre;">%</text></g></g><rect class="cboutline" x="582" y="93" width="15" height="254" style="stroke: rgb(68, 68, 68); stroke-opacity: 1; fill: none; stroke-width: 1;"/></g><g class="g-gtitle"><text class="gtitle" x="320" y="25" text-anchor="middle" dy="0em" style="opacity: 1; font-family: 'Times New Roman'; font-size: 16px; fill: rgb(42, 63, 95); fill-opacity: 1; white-space: pre;">Housing Market Distribution by Category (2023) (%)</text></g></g></svg>