<svg class="main-svg" xmlns="http://www.w3.org/2000/svg" xmlns:xlink="http://www.w3.org/1999/xlink" width="1920" height="1440" style="" viewBox="0 0 640 480"><rect x="0" y="0" width="640" height="480" style="fill: rgb(255, 255, 255); fill-opacity: 1;"/><defs id="defs-7c86d8"><g class="clips"/><g class="gradients"><linearGradient x1="0" y1="1" x2="0" y2="0" gradientUnits="objectBoundingBox" id="g7c86d8-cb6a5511"><stop offset="0%" stop-color="rgb(255, 255, 217)" stop-opacity="1"/><stop offset="12.5%" stop-color="rgb(237, 248, 177)" stop-opacity="1"/><stop offset="25%" stop-color="rgb(199, 233, 180)" stop-opacity="1"/><stop offset="37.5%" stop-color="rgb(127, 205, 187)" stop-opacity="1"/><stop offset="50%" stop-color="rgb(65, 182, 196)" stop-opacity="1"/><stop offset="62.5%" stop-color="rgb(29, 145, 192)" stop-opacity="1"/><stop offset="75%" stop-color="rgb(34, 94, 168)" stop-opacity="1"/><stop offset="87.5%" stop-color="rgb(37, 52, 148)" stop-opacity="1"/><stop offset="100%" stop-color="rgb(8, 29, 88)" stop-opacity="1"/></linearGradient></g><g class="patterns"/></defs><g class="bglayer"/><g class="layer-below"><g class="imagelayer"/><g class="shapelayer"/></g><g class="cartesianlayer"/><g class="polarlayer"/><g class="smithlayer"/><g class="ternarylayer"/><g class="geolayer"/><g class="funnelarealayer"/><g class="pielayer"/><g class="iciclelayer"/><g class="treemaplayer"/><g class="sunburstlayer"><g class="trace sunburst" stroke-linejoin="round" style="opacity: 1;"><g class="slice"><path class="surface" d="M282.5,260A0,0 0,1,0 282.5,260A0,0 0,1,0 282.5,260ZM324.5,260A42,42 0,1,1 240.5,260A42,42 0,1,1 324.5,260Z" style="pointer-events: none; stroke-width: 1; fill: rgb(255, 255, 255); fill-opacity: 1; stroke: rgb(0, 0, 0); stroke-opacity: 1;"/><g class="slicetext"><text data-notex="1" class="slicetext" text-anchor="middle" x="0" y="0" style="font-family: 'Times New Roman'; font-size: 12px; fill: rgb(0, 0, 0); fill-opacity: 1; white-space: pre;" transform="translate(282.5,264)">99.99</text></g></g><g class="slice cursor-pointer"><path class="surface" d="M324.5,260L366.5,260A84,84 0,0,0 199.4494827089531,247.40589115143447L240.97474135447655,253.70294557571725A42,42 0,0,1 324.5,260Z" style="pointer-events: none; stroke-width: 1; fill: rgb(8, 29, 88); fill-opacity: 1; stroke: rgb(0, 0, 0); stroke-opacity: 1;"/><g class="slicetext"><text data-notex="1" class="slicetext" text-anchor="middle" x="0" y="0" style="font-family: 'Times New Roman'; font-size: 12px; fill: rgb(0, 0, 0); fill-opacity: 1; white-space: pre;" transform="translate(286.91317798849065,201.46281608811134)scale(0.8209780396795036)rotate(4.311431143114305)"><tspan class="line" dy="0em" x="0" y="0">Commercial Real Estate</tspan><tspan class="line" dy="1.3em" x="0" y="0">47.6</tspan></text></g></g><g class="slice cursor-pointer"><path class="surface" d="M240.97474135447655,253.70294557571725L199.4494827089531,247.40589115143447A84,84 0,0,0 282.5395880247724,343.9999906713584L282.51979401238617,301.99999533567916A42,42 0,0,1 240.97474135447655,253.70294557571725Z" style="pointer-events: none; stroke-width: 1; fill: rgb(58, 175, 195); fill-opacity: 1; stroke: rgb(0, 0, 0); stroke-opacity: 1;"/><g class="slicetext"><text data-notex="1" class="slicetext" text-anchor="middle" x="0" y="0" style="font-family: 'Times New Roman'; font-size: 12px; fill: rgb(0, 0, 0); fill-opacity: 1; white-space: pre;" transform="translate(242.1417124277896,294.7161408554712)scale(0.8964705263378435)rotate(49.29792979297929)"><tspan class="line" dy="0em" x="0" y="0">Residential Property</tspan><tspan class="line" dy="1.3em" x="0" y="0">27.4</tspan></text></g></g><g class="slice cursor-pointer"><path class="surface" d="M282.51979401238617,301.99999533567916L282.5395880247724,343.9999906713584A84,84 0,0,0 366.5,260L324.5,260A42,42 0,0,1 282.51979401238617,301.99999533567916Z" style="pointer-events: none; stroke-width: 1; fill: rgb(81, 188, 194); fill-opacity: 1; stroke: rgb(0, 0, 0); stroke-opacity: 1;"/><g class="slicetext"><text data-notex="1" class="slicetext" text-anchor="middle" x="0" y="0" style="font-family: 'Times New Roman'; font-size: 12px; fill: rgb(0, 0, 0); fill-opacity: 1; white-space: pre;" transform="translate(321.07213880640336,299.01789409494563)rotate(-45.013501350135016)"><tspan class="line" dy="0em" x="0" y="0">Rental Market</tspan><tspan class="line" dy="1.3em" x="0" y="0">24.99</tspan></text></g></g><g class="slice"><path class="surface" d="M366.5,260L408.5,260A126,126 0,0,0 157.92422406342962,241.10883672715173L199.4494827089531,247.40589115143447A84,84 0,0,1 366.5,260Z" style="pointer-events: none; stroke-width: 1; fill: rgb(8, 29, 88); fill-opacity: 1; stroke: rgb(0, 0, 0); stroke-opacity: 1; opacity: 1;"/><g class="slicetext"><text data-notex="1" class="slicetext" text-anchor="middle" x="0" y="0" style="font-family: 'Times New Roman'; font-size: 12px; fill: rgb(0, 0, 0); fill-opacity: 1; white-space: pre;" transform="translate(290.2104815552255,155.54446046420614)rotate(4.311431143114305)"><tspan class="line" dy="0em" x="0" y="0">Office Buildings</tspan><tspan class="line" dy="1.3em" x="0" y="0">47.6</tspan></text></g></g><g class="slice cursor-pointer"><path class="surface" d="M199.4494827089531,247.40589115143447L157.92422406342962,241.10883672715173A126,126 0,0,0 193.27167827129003,348.9623886902652L223.01445218086002,319.30825912684344A84,84 0,0,1 199.4494827089531,247.40589115143447Z" style="pointer-events: none; stroke-width: 1; fill: rgb(205, 235, 180); fill-opacity: 1; stroke: rgb(0, 0, 0); stroke-opacity: 1;"/><g class="slicetext"><text data-notex="1" class="slicetext" text-anchor="middle" x="0" y="0" style="font-family: 'Times New Roman'; font-size: 12px; fill: rgb(0, 0, 0); fill-opacity: 1; white-space: pre;" transform="translate(186.06576746465316,291.4603767145525)scale(0.8373029805470275)rotate(71.85418541854187)"><tspan class="line" dy="0em" x="0" y="0">Single Family Homes</tspan><tspan class="line" dy="1.3em" x="0" y="0">14.87</tspan></text></g></g><g class="slice cursor-pointer"><path class="surface" d="M223.01445218086002,319.30825912684344L193.27167827129003,348.9623886902652A126,126 0,0,0 282.55938203715857,385.9999860070376L282.5395880247724,343.9999906713584A84,84 0,0,1 223.01445218086002,319.30825912684344Z" style="pointer-events: none; stroke-width: 1; fill: rgb(222, 242, 178); fill-opacity: 1; stroke: rgb(0, 0, 0); stroke-opacity: 1;"/><g class="slicetext"><text data-notex="1" class="slicetext" text-anchor="middle" x="0" y="0" style="font-family: 'Times New Roman'; font-size: 12px; fill: rgb(0, 0, 0); fill-opacity: 1; white-space: pre;" transform="translate(242.06879145032556,357.14868137018493)scale(0.747587097650669)rotate(22.529252925292553)"><tspan class="line" dy="0em" x="0" y="0">Multi-Family Homes</tspan><tspan class="line" dy="1.3em" x="0" y="0">12.53</tspan></text></g></g><g class="slice cursor-pointer"><path class="surface" d="M282.5395880247724,343.9999906713584L282.55938203715857,385.9999860070376A126,126 0,0,0 398.10356844248486,310.1180103691649L359.56904562832324,293.4120069127766A84,84 0,0,1 282.5395880247724,343.9999906713584Z" style="pointer-events: none; stroke-width: 1; fill: rgb(162, 219, 184); fill-opacity: 1; stroke: rgb(0, 0, 0); stroke-opacity: 1;"/><g class="slicetext"><text data-notex="1" class="slicetext" text-anchor="middle" x="0" y="0" style="font-family: 'Times New Roman'; font-size: 12px; fill: rgb(0, 0, 0); fill-opacity: 1; white-space: pre;" transform="translate(335.1861393716212,340.52315467772996)rotate(-33.2943294329433)"><tspan class="line" dy="0em" x="0" y="0">Short-Term Rentals</tspan><tspan class="line" dy="1.3em" x="0" y="0">18.48</tspan></text></g></g><g class="slice"><path class="surface" d="M359.56904562832324,293.4120069127766L398.10356844248486,310.1180103691649A126,126 0,0,0 408.5,260.00000000000006L366.5,260A84,84 0,0,1 359.56904562832324,293.4120069127766Z" style="pointer-events: none; stroke-width: 1; fill: rgb(250, 253, 207); fill-opacity: 1; stroke: rgb(0, 0, 0); stroke-opacity: 1; opacity: 1;"/><g class="slicetext"><text data-notex="1" class="slicetext" text-anchor="middle" x="0" y="0" style="font-family: 'Times New Roman'; font-size: 12px; fill: rgb(0, 0, 0); fill-opacity: 1; white-space: pre;" transform="translate(395.10880408415505,283.4404889240911)scale(0.4616062831016879)rotate(-78.28082808280828)"><tspan class="line" dy="0em" x="0" y="0">Long-Term Rentals</tspan><tspan class="line" dy="1.3em" x="0" y="0">6.51</tspan></text></g></g><g class="slice"><path class="surface" d="M157.92422406342962,241.10883672715173L116.39896541790617,234.81178230286898A168,168 0,0,0 123.81770896104095,315.1718271459909L163.48828172078072,301.3788703594932A126,126 0,0,1 157.92422406342962,241.10883672715173Z" style="pointer-events: none; stroke-width: 1; fill: rgb(246, 252, 197); fill-opacity: 1; stroke: rgb(0, 0, 0); stroke-opacity: 1; opacity: 1;"/><g class="slicetext"><text data-notex="1" class="slicetext" text-anchor="middle" x="0" y="0" style="font-family: 'Times New Roman'; font-size: 12px; fill: rgb(0, 0, 0); fill-opacity: 1; white-space: pre;" transform="translate(141.24434855196063,273.04055335157193)rotate(84.72547254725475)"><tspan class="line" dy="0em" x="0" y="0">Detached</tspan><tspan class="line" dy="1.3em" x="0" y="0">7.72</tspan></text></g></g><g class="slice"><path class="surface" d="M163.48828172078072,301.3788703594932L123.81770896104095,315.1718271459909A168,168 0,0,0 163.52890436172004,378.61651825368693L193.27167827129003,348.9623886902652A126,126 0,0,1 163.48828172078072,301.3788703594932Z" style="pointer-events: none; stroke-width: 1; fill: rgb(248, 252, 202); fill-opacity: 1; stroke: rgb(0, 0, 0); stroke-opacity: 1; opacity: 1;"/><g class="slicetext"><text data-notex="1" class="slicetext" text-anchor="middle" x="0" y="0" style="font-family: 'Times New Roman'; font-size: 12px; fill: rgb(0, 0, 0); fill-opacity: 1; white-space: pre;" transform="translate(156.14224339620736,339.0896365838872)scale(0.8308880534490746)rotate(57.956795679567904)"><tspan class="line" dy="0em" x="0" y="0">Semi-Detached</tspan><tspan class="line" dy="1.3em" x="0" y="0">7.15</tspan></text></g></g><g class="slice"><path class="surface" d="M193.27167827129003,348.9623886902652L163.52890436172004,378.61651825368693A168,168 0,0,0 229.4519296791392,419.40483755279513L242.7139472593544,379.5536281645964A126,126 0,0,1 193.27167827129003,348.9623886902652Z" style="pointer-events: none; stroke-width: 1; fill: rgb(247, 252, 200); fill-opacity: 1; stroke: rgb(0, 0, 0); stroke-opacity: 1; opacity: 1;"/><g class="slicetext"><text data-notex="1" class="slicetext" text-anchor="middle" x="0" y="0" style="font-family: 'Times New Roman'; font-size: 12px; fill: rgb(0, 0, 0); fill-opacity: 1; white-space: pre;" transform="translate(206.16654932922884,383.0600762656329)rotate(31.746174617461634)"><tspan class="line" dy="0em" x="0" y="0">Apartments</tspan><tspan class="line" dy="1.3em" x="0" y="0">7.41</tspan></text></g></g><g class="slice"><path class="surface" d="M242.7139472593544,379.5536281645964L229.4519296791392,419.40483755279513A168,168 0,0,0 282.5791760495449,427.99998134271675L282.5593820371587,385.9999860070376A126,126 0,0,1 242.7139472593544,379.5536281645964Z" style="pointer-events: none; stroke-width: 1; fill: rgb(255, 255, 217); fill-opacity: 1; stroke: rgb(0, 0, 0); stroke-opacity: 1; opacity: 1;"/><g class="slicetext"><text data-notex="1" class="slicetext" text-anchor="middle" x="0" y="0" style="font-family: 'Times New Roman'; font-size: 12px; fill: rgb(0, 0, 0); fill-opacity: 1; white-space: pre;" transform="translate(259.3361232019395,403.17770820626475)rotate(9.189918991899049)"><tspan class="line" dy="0em" x="0" y="0">Duplex</tspan><tspan class="line" dy="1.3em" x="0" y="0">5.12</tspan></text></g></g><g class="slice cursor-pointer"><path class="surface" d="M282.55938203715857,385.9999860070376L282.5791760495448,427.99998134271675A168,168 0,0,0 436.6380912566465,326.82401382555315L398.10356844248486,310.1180103691649A126,126 0,0,1 282.55938203715857,385.9999860070376Z" style="pointer-events: none; stroke-width: 1; fill: rgb(162, 219, 184); fill-opacity: 1; stroke: rgb(0, 0, 0); stroke-opacity: 1;"/><g class="slicetext"><text data-notex="1" class="slicetext" text-anchor="middle" x="0" y="0" style="font-family: 'Times New Roman'; font-size: 12px; fill: rgb(0, 0, 0); fill-opacity: 1; white-space: pre;" transform="translate(359.16268429750767,377.0318295373974)rotate(-33.2943294329433)"><tspan class="line" dy="0em" x="0" y="0">Vacation Homes</tspan><tspan class="line" dy="1.3em" x="0" y="0">18.48</tspan></text></g></g><g class="slice"><path class="surface" d="M282.5791760495448,427.99998134271675L282.59897006193097,469.9999766783959A210,210 0,0,0 366.4838045043182,452.47524667078744L349.6870436034545,413.98019733662994A168,168 0,0,1 282.5791760495448,427.99998134271675Z" style="pointer-events: none; stroke-width: 1; fill: rgb(250, 253, 206); fill-opacity: 1; stroke: rgb(0, 0, 0); stroke-opacity: 1; opacity: 1;"/><g class="slicetext"><text data-notex="1" class="slicetext" text-anchor="middle" x="0" y="0" style="font-family: 'Times New Roman'; font-size: 12px; fill: rgb(0, 0, 0); fill-opacity: 1; white-space: pre;" transform="translate(321.2083199845027,446.01837413892673)scale(0.8745189622806959)rotate(-11.80018001800181)"><tspan class="line" dy="0em" x="0" y="0">Mountain Cabins</tspan><tspan class="line" dy="1.3em" x="0" y="0">6.54</tspan></text></g></g><g class="slice"><path class="surface" d="M349.6870436034545,413.98019733662994L366.4838045043182,452.47524667078744A210,210 0,0,0 432.7431620528256,406.7207969456558L402.6945296422605,377.37663755652466A168,168 0,0,1 349.6870436034545,413.98019733662994Z" style="pointer-events: none; stroke-width: 1; fill: rgb(252, 254, 209); fill-opacity: 1; stroke: rgb(0, 0, 0); stroke-opacity: 1; opacity: 1;"/><g class="slicetext"><text data-notex="1" class="slicetext" text-anchor="middle" x="0" y="0" style="font-family: 'Times New Roman'; font-size: 12px; fill: rgb(0, 0, 0); fill-opacity: 1; white-space: pre;" transform="translate(387.49056495651035,412.633410336019)rotate(-34.6264626462646)"><tspan class="line" dy="0em" x="0" y="0">Beachfront</tspan><tspan class="line" dy="1.3em" x="0" y="0">6.14</tspan></text></g></g><g class="slice"><path class="surface" d="M402.6945296422605,377.37663755652466L432.7431620528256,406.7207969456558A210,210 0,0,0 475.1726140708081,343.53001728194147L436.6380912566465,326.82401382555315A168,168 0,0,1 402.6945296422605,377.37663755652466Z" style="pointer-events: none; stroke-width: 1; fill: rgb(253, 254, 212); fill-opacity: 1; stroke: rgb(0, 0, 0); stroke-opacity: 1; opacity: 1;"/><g class="slicetext"><text data-notex="1" class="slicetext" text-anchor="middle" x="0" y="0" style="font-family: 'Times New Roman'; font-size: 12px; fill: rgb(0, 0, 0); fill-opacity: 1; white-space: pre;" transform="translate(438.39746183816845,364.87497316220436)rotate(-56.1206120612062)"><tspan class="line" dy="0em" x="0" y="0">City Condos</tspan><tspan class="line" dy="1.3em" x="0" y="0">5.8</tspan></text></g></g></g></g><g class="glimages"/><defs id="topdefs-7c86d8"><g class="clips"/></defs><g class="layer-above"><g class="imagelayer"/><g class="shapelayer"/></g><g class="infolayer"><g class="cb6a5511 colorbar" transform="translate(10,50)"><rect class="cbbg" x="571.5" y="63" width="48.015625" height="295" style="fill: rgb(0, 0, 0); fill-opacity: 0; stroke: rgb(68, 68, 68); stroke-opacity: 1; stroke-width: 0;"/><g class="cbfills" transform="translate(0,93)"><rect class="cbfill gradient_filled" style="fill: url('#g7c86d8-cb6a5511');" x="582" y="0" width="15" height="254"/></g><g class="cblines" transform="translate(0,93)"/><g class="cbaxis crisp" transform="translate(0,-50)"><g class="ycb6a5511tick"><text text-anchor="start" x="600.4" y="4.199999999999999" transform="translate(0,367.82000000000005)" style="font-family: 'Times New Roman'; font-size: 12px; fill: rgb(42, 63, 95); fill-opacity: 1; white-space: pre; opacity: 1;">10</text></g><g class="ycb6a5511tick"><text text-anchor="start" x="600.4" y="4.199999999999999" style="font-family: 'Times New Roman'; font-size: 12px; fill: rgb(42, 63, 95); fill-opacity: 1; white-space: pre; opacity: 1;" transform="translate(0,308.0300000000001)">20</text></g><g class="ycb6a5511tick"><text text-anchor="start" x="600.4" y="4.199999999999999" style="font-family: 'Times New Roman'; font-size: 12px; fill: rgb(42, 63, 95); fill-opacity: 1; white-space: pre; opacity: 1;" transform="translate(0,248.24000000000007)">30</text></g><g class="ycb6a5511tick"><text text-anchor="start" x="600.4" y="4.199999999999999" style="font-family: 'Times New Roman'; font-size: 12px; fill: rgb(42, 63, 95); fill-opacity: 1; white-space: pre; opacity: 1;" transform="translate(0,188.44000000000005)">40</text></g></g><g class="cbtitleunshift" transform="translate(-10,-50)"><g class="cbtitle" transform="translate(-0.5,-0.5)"><text class="ycb6a5511title" x="592.25" y="135.75" text-anchor="start" style="opacity: 1; font-family: 'Times New Roman'; font-size: 13px; fill: rgb(42, 63, 95); fill-opacity: 1; white-space: pre;">%</text></g></g><rect class="cboutline" x="582" y="93" width="15" height="254" style="stroke: rgb(68, 68, 68); stroke-opacity: 1; fill: none; stroke-width: 1;"/></g><g class="g-gtitle"><text class="gtitle" x="320" y="25" text-anchor="middle" dy="0em" style="opacity: 1; font-family: 'Times New Roman'; font-size: 16px; fill: rgb(42, 63, 95); fill-opacity: 1; white-space: pre;">Housing Market Distribution by Category (2023) (%)</text></g></g></svg>