<svg class="main-svg" xmlns="http://www.w3.org/2000/svg" xmlns:xlink="http://www.w3.org/1999/xlink" width="1920" height="1440" style="" viewBox="0 0 640 480"><rect x="0" y="0" width="640" height="480" style="fill: rgb(255, 255, 255); fill-opacity: 1;"/><defs id="defs-1526b6"><g class="clips"/><g class="gradients"><linearGradient x1="0" y1="1" x2="0" y2="0" gradientUnits="objectBoundingBox" id="g1526b6-cbbd6be3"><stop offset="0%" stop-color="rgb(255, 255, 204)" stop-opacity="1"/><stop offset="12.5%" stop-color="rgb(255, 237, 160)" stop-opacity="1"/><stop offset="25%" stop-color="rgb(254, 217, 118)" stop-opacity="1"/><stop offset="37.5%" stop-color="rgb(254, 178, 76)" stop-opacity="1"/><stop offset="50%" stop-color="rgb(253, 141, 60)" stop-opacity="1"/><stop offset="62.5%" stop-color="rgb(252, 78, 42)" stop-opacity="1"/><stop offset="75%" stop-color="rgb(227, 26, 28)" stop-opacity="1"/><stop offset="87.5%" stop-color="rgb(189, 0, 38)" stop-opacity="1"/><stop offset="100%" stop-color="rgb(128, 0, 38)" stop-opacity="1"/></linearGradient></g><g class="patterns"/></defs><g class="bglayer"/><g class="layer-below"><g class="imagelayer"/><g class="shapelayer"/></g><g class="cartesianlayer"/><g class="polarlayer"/><g class="smithlayer"/><g class="ternarylayer"/><g class="geolayer"/><g class="funnelarealayer"/><g class="pielayer"/><g class="iciclelayer"/><g class="treemaplayer"/><g class="sunburstlayer"><g class="trace sunburst" stroke-linejoin="round" style="opacity: 1;"><g class="slice"><path class="surface" d="M282.5,260A0,0 0,1,0 282.5,260A0,0 0,1,0 282.5,260ZM324.5,260A42,42 0,1,1 240.5,260A42,42 0,1,1 324.5,260Z" style="pointer-events: none; stroke-width: 1; fill: rgb(255, 255, 255); fill-opacity: 1; stroke: rgb(0, 0, 0); stroke-opacity: 1;"/><g class="slicetext"><text data-notex="1" class="slicetext" text-anchor="middle" x="0" y="0" style="font-family: 'Times New Roman'; font-size: 12px; fill: rgb(0, 0, 0); fill-opacity: 1; white-space: pre;" transform="translate(282.5,264)">100</text></g></g><g class="slice cursor-pointer"><path class="surface" d="M324.5,260L366.5,260A84,84 0,0,0 210.19766973166873,217.24052107696883L246.34883486583436,238.62026053848442A42,42 0,0,1 324.5,260Z" style="pointer-events: none; stroke-width: 1; fill: rgb(128, 0, 38); fill-opacity: 1; stroke: rgb(0, 0, 0); stroke-opacity: 1;"/><g class="slicetext"><text data-notex="1" class="slicetext" text-anchor="middle" x="0" y="0" style="font-family: 'Times New Roman'; font-size: 12px; fill: rgb(0, 0, 0); fill-opacity: 1; white-space: pre;" transform="translate(298.6686402855712,199.6539095754078)rotate(15.299999999999955)"><tspan class="line" dy="0em" x="0" y="0">Rental Market</tspan><tspan class="line" dy="1.3em" x="0" y="0">41.5</tspan></text></g></g><g class="slice cursor-pointer"><path class="surface" d="M246.34883486583436,238.62026053848442L210.19766973166873,217.24052107696883A84,84 0,0,0 306.18855237561087,340.59064763573963L294.3442761878054,300.2953238178698A42,42 0,0,1 246.34883486583436,238.62026053848442Z" style="pointer-events: none; stroke-width: 1; fill: rgb(174, 0, 38); fill-opacity: 1; stroke: rgb(0, 0, 0); stroke-opacity: 1;"/><g class="slicetext"><text data-notex="1" class="slicetext" text-anchor="middle" x="0" y="0" style="font-family: 'Times New Roman'; font-size: 12px; fill: rgb(0, 0, 0); fill-opacity: 1; white-space: pre;" transform="translate(240.48713070829575,292.694351584583)scale(0.8964705263378435)rotate(52.110000000000014)"><tspan class="line" dy="0em" x="0" y="0">Residential Property</tspan><tspan class="line" dy="1.3em" x="0" y="0">38.05</tspan></text></g></g><g class="slice cursor-pointer"><path class="surface" d="M294.3442761878054,300.2953238178698L306.18855237561087,340.59064763573963A84,84 0,0,0 366.5,260L324.5,260A42,42 0,0,1 294.3442761878054,300.2953238178698Z" style="pointer-events: none; stroke-width: 1; fill: rgb(254, 164, 70); fill-opacity: 1; stroke: rgb(0, 0, 0); stroke-opacity: 1;"/><g class="slicetext"><text data-notex="1" class="slicetext" text-anchor="middle" x="0" y="0" style="font-family: 'Times New Roman'; font-size: 12px; fill: rgb(0, 0, 0); fill-opacity: 1; white-space: pre;" transform="translate(332.0085414358591,297.0505994351203)scale(0.6418703926048468)rotate(-53.190000000000055)"><tspan class="line" dy="0em" x="0" y="0">Commercial Real Estate</tspan><tspan class="line" dy="1.3em" x="0" y="0">20.45</tspan></text></g></g><g class="slice"><path class="surface" d="M366.5,260L408.5,260A126,126 0,0,0 174.0465045975031,195.86078161545325L210.19766973166873,217.24052107696883A84,84 0,0,1 366.5,260Z" style="pointer-events: none; stroke-width: 1; fill: rgb(128, 0, 38); fill-opacity: 1; stroke: rgb(0, 0, 0); stroke-opacity: 1; opacity: 1;"/><g class="slicetext"><text data-notex="1" class="slicetext" text-anchor="middle" x="0" y="0" style="font-family: 'Times New Roman'; font-size: 12px; fill: rgb(0, 0, 0); fill-opacity: 1; white-space: pre;" transform="translate(309.7415724533,159.7998344137235)rotate(15.299999999999955)"><tspan class="line" dy="0em" x="0" y="0">Short-Term Rentals</tspan><tspan class="line" dy="1.3em" x="0" y="0">41.5</tspan></text></g></g><g class="slice cursor-pointer"><path class="surface" d="M210.19766973166873,217.24052107696883L174.0465045975031,195.86078161545325A126,126 0,0,0 237.22248010325774,377.5837837118712L252.31498673550516,338.38918914124747A84,84 0,0,1 210.19766973166873,217.24052107696883Z" style="pointer-events: none; stroke-width: 1; fill: rgb(252, 80, 43); fill-opacity: 1; stroke: rgb(0, 0, 0); stroke-opacity: 1;"/><g class="slicetext"><text data-notex="1" class="slicetext" text-anchor="middle" x="0" y="0" style="font-family: 'Times New Roman'; font-size: 12px; fill: rgb(0, 0, 0); fill-opacity: 1; white-space: pre;" transform="translate(191.9574828080054,291.30492635149153)scale(0.9912063769117226)rotate(70.83000000000004)"><tspan class="line" dy="0em" x="0" y="0">Multi-Family Homes</tspan><tspan class="line" dy="1.3em" x="0" y="0">27.65</tspan></text></g></g><g class="slice cursor-pointer"><path class="surface" d="M252.31498673550516,338.38918914124747L237.22248010325774,377.5837837118712A126,126 0,0,0 318.0328285634163,380.8859714536094L306.18855237561087,340.59064763573963A84,84 0,0,1 252.31498673550516,338.38918914124747Z" style="pointer-events: none; stroke-width: 1; fill: rgb(255, 233, 152); fill-opacity: 1; stroke: rgb(0, 0, 0); stroke-opacity: 1;"/><g class="slicetext"><text data-notex="1" class="slicetext" text-anchor="middle" x="0" y="0" style="font-family: 'Times New Roman'; font-size: 12px; fill: rgb(0, 0, 0); fill-opacity: 1; white-space: pre;" transform="translate(277.93901458588874,369.10064045796423)scale(0.6258207370430379)rotate(2.340000000000032)"><tspan class="line" dy="0em" x="0" y="0">Single Family Homes</tspan><tspan class="line" dy="1.3em" x="0" y="0">10.4</tspan></text></g></g><g class="slice cursor-pointer"><path class="surface" d="M306.18855237561087,340.59064763573963L318.0328285634163,380.8859714536094A126,126 0,0,0 401.15787135652624,302.3828923639959L361.6052475710175,288.2552615759973A84,84 0,0,1 306.18855237561087,340.59064763573963Z" style="pointer-events: none; stroke-width: 1; fill: rgb(254, 210, 110); fill-opacity: 1; stroke: rgb(0, 0, 0); stroke-opacity: 1;"/><g class="slicetext"><text data-notex="1" class="slicetext" text-anchor="middle" x="0" y="0" style="font-family: 'Times New Roman'; font-size: 12px; fill: rgb(0, 0, 0); fill-opacity: 1; white-space: pre;" transform="translate(349.7709173429713,331.4705212059405)rotate(-43.36200000000008)"><tspan class="line" dy="0em" x="0" y="0">Retail Spaces</tspan><tspan class="line" dy="1.3em" x="0" y="0">14.99</tspan></text></g></g><g class="slice"><path class="surface" d="M361.6052475710175,288.2552615759973L401.15787135652624,302.3828923639959A126,126 0,0,0 408.5,260.00000000000006L366.5,260A84,84 0,0,1 361.6052475710175,288.2552615759973Z" style="pointer-events: none; stroke-width: 1; fill: rgb(255, 253, 200); fill-opacity: 1; stroke: rgb(0, 0, 0); stroke-opacity: 1; opacity: 1;"/><g class="slicetext"><text data-notex="1" class="slicetext" text-anchor="middle" x="0" y="0" style="font-family: 'Times New Roman'; font-size: 12px; fill: rgb(0, 0, 0); fill-opacity: 1; white-space: pre;" transform="translate(386.08483534888705,276.0352544897723)scale(0.4944092102586232)rotate(9.827999999999975)"><tspan class="line" dy="0em" x="0" y="0">Office Buildings</tspan><tspan class="line" dy="1.3em" x="0" y="0">5.46</tspan></text></g></g><g class="slice cursor-pointer"><path class="surface" d="M174.0465045975031,195.86078161545325L137.89533946333745,174.48104215393766A168,168 0,0,0 170.37398610984005,385.1069822556026L198.40548958238003,353.83023669170194A126,126 0,0,1 174.0465045975031,195.86078161545325Z" style="pointer-events: none; stroke-width: 1; fill: rgb(253, 152, 65); fill-opacity: 1; stroke: rgb(0, 0, 0); stroke-opacity: 1;"/><g class="slicetext"><text data-notex="1" class="slicetext" text-anchor="middle" x="0" y="0" style="font-family: 'Times New Roman'; font-size: 12px; fill: rgb(0, 0, 0); fill-opacity: 1; white-space: pre;" transform="translate(142.868232413302,281.36530097885213)rotate(81.23400000000004)"><tspan class="line" dy="0em" x="0" y="0">Apartments</tspan><tspan class="line" dy="1.3em" x="0" y="0">21.87</tspan></text></g></g><g class="slice"><path class="surface" d="M198.40548958238003,353.83023669170194L170.37398610984005,385.1069822556026A168,168 0,0,0 222.12997347101032,416.77837828249494L237.22248010325774,377.5837837118712A126,126 0,0,1 198.40548958238003,353.83023669170194Z" style="pointer-events: none; stroke-width: 1; fill: rgb(255, 252, 197); fill-opacity: 1; stroke: rgb(0, 0, 0); stroke-opacity: 1; opacity: 1;"/><g class="slicetext"><text data-notex="1" class="slicetext" text-anchor="middle" x="0" y="0" style="font-family: 'Times New Roman'; font-size: 12px; fill: rgb(0, 0, 0); fill-opacity: 1; white-space: pre;" transform="translate(207.8578092128857,381.9769497911522)rotate(31.464000000000055)"><tspan class="line" dy="0em" x="0" y="0">Duplex</tspan><tspan class="line" dy="1.3em" x="0" y="0">5.78</tspan></text></g></g><g class="slice"><path class="surface" d="M237.22248010325774,377.5837837118712L222.12997347101032,416.77837828249494A168,168 0,0,0 277.6450304044114,427.9298343661004L278.8587728033085,385.9473757745753A126,126 0,0,1 237.22248010325774,377.5837837118712Z" style="pointer-events: none; stroke-width: 1; fill: rgb(255, 254, 200); fill-opacity: 1; stroke: rgb(0, 0, 0); stroke-opacity: 1; opacity: 1;"/><g class="slicetext"><text data-notex="1" class="slicetext" text-anchor="middle" x="0" y="0" style="font-family: 'Times New Roman'; font-size: 12px; fill: rgb(0, 0, 0); fill-opacity: 1; white-space: pre;" transform="translate(252.23731574204857,410.6560781786743)scale(0.6514353962057015)rotate(11.358000000000061)"><tspan class="line" dy="0em" x="0" y="0">Semi-Detached</tspan><tspan class="line" dy="1.3em" x="0" y="0">5.39</tspan></text></g></g><g class="slice"><path class="surface" d="M278.8587728033085,385.9473757745753L277.6450304044114,427.9298343661004A168,168 0,0,0 329.87710475122174,421.1812952714792L318.0328285634163,380.8859714536094A126,126 0,0,1 278.8587728033085,385.9473757745753Z" style="pointer-events: none; stroke-width: 1; fill: rgb(255, 255, 204); fill-opacity: 1; stroke: rgb(0, 0, 0); stroke-opacity: 1; opacity: 1;"/><g class="slicetext"><text data-notex="1" class="slicetext" text-anchor="middle" x="0" y="0" style="font-family: 'Times New Roman'; font-size: 12px; fill: rgb(0, 0, 0); fill-opacity: 1; white-space: pre;" transform="translate(301.5569858706853,407.49650092671254)scale(0.9318839276163983)rotate(-7.36200000000008)"><tspan class="line" dy="0em" x="0" y="0">Detached</tspan><tspan class="line" dy="1.3em" x="0" y="0">5.01</tspan></text></g></g><g class="slice cursor-pointer"><path class="surface" d="M318.0328285634163,380.8859714536094L329.87710475122174,421.1812952714792A168,168 0,0,0 440.71049514203503,316.5105231519945L401.15787135652624,302.3828923639959A126,126 0,0,1 318.0328285634163,380.8859714536094Z" style="pointer-events: none; stroke-width: 1; fill: rgb(254, 210, 110); fill-opacity: 1; stroke: rgb(0, 0, 0); stroke-opacity: 1;"/><g class="slicetext"><text data-notex="1" class="slicetext" text-anchor="middle" x="0" y="0" style="font-family: 'Times New Roman'; font-size: 12px; fill: rgb(0, 0, 0); fill-opacity: 1; white-space: pre;" transform="translate(378.1689528300118,361.54052536980043)rotate(-43.36200000000008)"><tspan class="line" dy="0em" x="0" y="0">Shopping Centers</tspan><tspan class="line" dy="1.3em" x="0" y="0">14.99</tspan></text></g></g><g class="slice"><path class="surface" d="M137.89533946333745,174.48104215393766L101.74417432917181,153.10130269242205A210,210 0,0,0 72.70308371759381,269.2333048467516L114.66246697407504,267.3866438774013A168,168 0,0,1 137.89533946333745,174.48104215393766Z" style="pointer-events: none; stroke-width: 1; fill: rgb(255, 238, 164); fill-opacity: 1; stroke: rgb(0, 0, 0); stroke-opacity: 1; opacity: 1;"/><g class="slicetext"><text data-notex="1" class="slicetext" text-anchor="middle" x="0" y="0" style="font-family: 'Times New Roman'; font-size: 12px; fill: rgb(0, 0, 0); fill-opacity: 1; white-space: pre;" transform="translate(96.60893370138417,213.51428374508833)rotate(-75.96000000000004)"><tspan class="line" dy="0em" x="0" y="0">Low-Rise</tspan><tspan class="line" dy="1.3em" x="0" y="0">9.2</tspan></text></g></g><g class="slice"><path class="surface" d="M114.66246697407504,267.3866438774013L72.70308371759381,269.2333048467516A210,210 0,0,0 95.99134574915558,356.51177073051235L133.29307659932448,337.2094165844099A168,168 0,0,1 114.66246697407504,267.3866438774013Z" style="pointer-events: none; stroke-width: 1; fill: rgb(255, 248, 186); fill-opacity: 1; stroke: rgb(0, 0, 0); stroke-opacity: 1; opacity: 1;"/><g class="slicetext"><text data-notex="1" class="slicetext" text-anchor="middle" x="0" y="0" style="font-family: 'Times New Roman'; font-size: 12px; fill: rgb(0, 0, 0); fill-opacity: 1; white-space: pre;" transform="translate(104.80151269675156,307.41477629134386)rotate(75.06000000000006)"><tspan class="line" dy="0em" x="0" y="0">High-Rise</tspan><tspan class="line" dy="1.3em" x="0" y="0">6.9</tspan></text></g></g><g class="slice"><path class="surface" d="M133.29307659932448,337.2094165844099L95.99134574915558,356.51177073051235A210,210 0,0,0 142.34248263730007,416.38372781950324L170.37398610984005,385.1069822556026A168,168 0,0,1 133.29307659932448,337.2094165844099Z" style="pointer-events: none; stroke-width: 1; fill: rgb(255, 252, 197); fill-opacity: 1; stroke: rgb(0, 0, 0); stroke-opacity: 1; opacity: 1;"/><g class="slicetext"><text data-notex="1" class="slicetext" text-anchor="middle" x="0" y="0" style="font-family: 'Times New Roman'; font-size: 12px; fill: rgb(0, 0, 0); fill-opacity: 1; white-space: pre;" transform="translate(136.93081935481055,372.69544786637493)rotate(52.25400000000002)"><tspan class="line" dy="0em" x="0" y="0">Mid-Rise</tspan><tspan class="line" dy="1.3em" x="0" y="0">5.77</tspan></text></g></g><g class="slice"><path class="surface" d="M329.87710475122174,421.1812952714792L341.72138093902714,461.476619089349A210,210 0,0,0 434.13051869518574,405.28656441746057L403.80441495614855,376.2292515339685A168,168 0,0,1 329.87710475122174,421.1812952714792Z" style="pointer-events: none; stroke-width: 1; fill: rgb(255, 242, 172); fill-opacity: 1; stroke: rgb(0, 0, 0); stroke-opacity: 1; opacity: 1;"/><g class="slicetext"><text data-notex="1" class="slicetext" text-anchor="middle" x="0" y="0" style="font-family: 'Times New Roman'; font-size: 12px; fill: rgb(0, 0, 0); fill-opacity: 1; white-space: pre;" transform="translate(377.38107197663123,416.3554569530082)rotate(-31.30200000000002)"><tspan class="line" dy="0em" x="0" y="0">Outlet Centers</tspan><tspan class="line" dy="1.3em" x="0" y="0">8.29</tspan></text></g></g><g class="slice"><path class="surface" d="M403.80441495614855,376.2292515339685L434.13051869518574,405.28656441746057A210,210 0,0,0 480.2631189275438,330.6381539399931L440.71049514203503,316.5105231519945A168,168 0,0,1 403.80441495614855,376.2292515339685Z" style="pointer-events: none; stroke-width: 1; fill: rgb(255, 248, 188); fill-opacity: 1; stroke: rgb(0, 0, 0); stroke-opacity: 1; opacity: 1;"/><g class="slicetext"><text data-notex="1" class="slicetext" text-anchor="middle" x="0" y="0" style="font-family: 'Times New Roman'; font-size: 12px; fill: rgb(0, 0, 0); fill-opacity: 1; white-space: pre;" transform="translate(438.67812578795207,356.71069999396315)rotate(-58.28399999999999)"><tspan class="line" dy="0em" x="0" y="0">Strip Malls</tspan><tspan class="line" dy="1.3em" x="0" y="0">6.7</tspan></text></g></g></g></g><g class="glimages"/><defs id="topdefs-1526b6"><g class="clips"/></defs><g class="layer-above"><g class="imagelayer"/><g class="shapelayer"/></g><g class="infolayer"><g class="cbbd6be3 colorbar" transform="translate(10,50)"><rect class="cbbg" x="571.5" y="63" width="48.015625" height="295" style="fill: rgb(0, 0, 0); fill-opacity: 0; stroke: rgb(68, 68, 68); stroke-opacity: 1; stroke-width: 0;"/><g class="cbfills" transform="translate(0,93)"><rect class="cbfill gradient_filled" style="fill: url('#g1526b6-cbbd6be3');" x="582" y="0" width="15" height="254"/></g><g class="cblines" transform="translate(0,93)"/><g class="cbaxis crisp" transform="translate(0,-50)"><g class="ycbbd6be3tick"><text text-anchor="start" x="600.4" y="4.199999999999999" transform="translate(0,362.2700000000001)" style="font-family: 'Times New Roman'; font-size: 12px; fill: rgb(42, 63, 95); fill-opacity: 1; white-space: pre; opacity: 1;">10</text></g><g class="ycbbd6be3tick"><text text-anchor="start" x="600.4" y="4.199999999999999" style="font-family: 'Times New Roman'; font-size: 12px; fill: rgb(42, 63, 95); fill-opacity: 1; white-space: pre; opacity: 1;" transform="translate(0,327.46000000000004)">15</text></g><g class="ycbbd6be3tick"><text text-anchor="start" x="600.4" y="4.199999999999999" style="font-family: 'Times New Roman'; font-size: 12px; fill: rgb(42, 63, 95); fill-opacity: 1; white-space: pre; opacity: 1;" transform="translate(0,292.6600000000001)">20</text></g><g class="ycbbd6be3tick"><text text-anchor="start" x="600.4" y="4.199999999999999" style="font-family: 'Times New Roman'; font-size: 12px; fill: rgb(42, 63, 95); fill-opacity: 1; white-space: pre; opacity: 1;" transform="translate(0,257.85)">25</text></g><g class="ycbbd6be3tick"><text text-anchor="start" x="600.4" y="4.199999999999999" style="font-family: 'Times New Roman'; font-size: 12px; fill: rgb(42, 63, 95); fill-opacity: 1; white-space: pre; opacity: 1;" transform="translate(0,223.05000000000007)">30</text></g><g class="ycbbd6be3tick"><text text-anchor="start" x="600.4" y="4.199999999999999" style="font-family: 'Times New Roman'; font-size: 12px; fill: rgb(42, 63, 95); fill-opacity: 1; white-space: pre; opacity: 1;" transform="translate(0,188.25000000000006)">35</text></g><g class="ycbbd6be3tick"><text text-anchor="start" x="600.4" y="4.199999999999999" style="font-family: 'Times New Roman'; font-size: 12px; fill: rgb(42, 63, 95); fill-opacity: 1; white-space: pre; opacity: 1;" transform="translate(0,153.44000000000005)">40</text></g></g><g class="cbtitleunshift" transform="translate(-10,-50)"><g class="cbtitle" transform="translate(-0.5,-0.5)"><text class="ycbbd6be3title" x="592.25" y="135.75" text-anchor="start" style="opacity: 1; font-family: 'Times New Roman'; font-size: 13px; fill: rgb(42, 63, 95); fill-opacity: 1; white-space: pre;">%</text></g></g><rect class="cboutline" x="582" y="93" width="15" height="254" style="stroke: rgb(68, 68, 68); stroke-opacity: 1; fill: none; stroke-width: 1;"/></g><g class="g-gtitle"><text class="gtitle" x="320" y="25" text-anchor="middle" dy="0em" style="opacity: 1; font-family: 'Times New Roman'; font-size: 16px; fill: rgb(42, 63, 95); fill-opacity: 1; white-space: pre;">Housing Market Distribution by Category (2023) (%)</text></g></g></svg>