<svg class="main-svg" xmlns="http://www.w3.org/2000/svg" xmlns:xlink="http://www.w3.org/1999/xlink" width="1920" height="1440" style="" viewBox="0 0 640 480"><rect x="0" y="0" width="640" height="480" style="fill: rgb(255, 255, 255); fill-opacity: 1;"/><defs id="defs-5d0a11"><g class="clips"/><g class="gradients"><linearGradient x1="0" y1="1" x2="0" y2="0" gradientUnits="objectBoundingBox" id="g5d0a11-cb422270"><stop offset="0%" stop-color="rgb(247, 251, 255)" stop-opacity="1"/><stop offset="12.5%" stop-color="rgb(222, 235, 247)" stop-opacity="1"/><stop offset="25%" stop-color="rgb(198, 219, 239)" stop-opacity="1"/><stop offset="37.5%" stop-color="rgb(158, 202, 225)" stop-opacity="1"/><stop offset="50%" stop-color="rgb(107, 174, 214)" stop-opacity="1"/><stop offset="62.5%" stop-color="rgb(66, 146, 198)" stop-opacity="1"/><stop offset="75%" stop-color="rgb(33, 113, 181)" stop-opacity="1"/><stop offset="87.5%" stop-color="rgb(8, 81, 156)" stop-opacity="1"/><stop offset="100%" stop-color="rgb(8, 48, 107)" stop-opacity="1"/></linearGradient></g><g class="patterns"/></defs><g class="bglayer"/><g class="layer-below"><g class="imagelayer"/><g class="shapelayer"/></g><g class="cartesianlayer"/><g class="polarlayer"/><g class="smithlayer"/><g class="ternarylayer"/><g class="geolayer"/><g class="funnelarealayer"/><g class="pielayer"/><g class="iciclelayer"/><g class="treemaplayer"/><g class="sunburstlayer"><g class="trace sunburst" stroke-linejoin="round" style="opacity: 1;"><g class="slice"><path class="surface" d="M282.5,260A0,0 0,1,0 282.5,260A0,0 0,1,0 282.5,260ZM324.5,260A42,42 0,1,1 240.5,260A42,42 0,1,1 324.5,260Z" style="pointer-events: none; stroke-width: 1; fill: rgb(255, 255, 255); fill-opacity: 1; stroke: rgb(0, 0, 0); stroke-opacity: 1;"/><g class="slicetext"><text data-notex="1" class="slicetext" text-anchor="middle" x="0" y="0" style="font-family: 'Times New Roman'; font-size: 12px; fill: rgb(0, 0, 0); fill-opacity: 1; white-space: pre;" transform="translate(282.5,264)">100.01</text></g></g><g class="slice cursor-pointer"><path class="surface" d="M324.5,260L366.5,260A84,84 0,0,0 207.47481337156364,222.22141649865236L244.98740668578182,241.11070824932617A42,42 0,0,1 324.5,260Z" style="pointer-events: none; stroke-width: 1; fill: rgb(8, 48, 107); fill-opacity: 1; stroke: rgb(0, 0, 0); stroke-opacity: 1;"/><g class="slicetext"><text data-notex="1" class="slicetext" text-anchor="middle" x="0" y="0" style="font-family: 'Times New Roman'; font-size: 12px; fill: rgb(0, 0, 0); fill-opacity: 1; white-space: pre;" transform="translate(296.0410747177241,202.39881857537355)scale(0.8472164016420091)rotate(13.363663633636634)"><tspan class="line" dy="0em" x="0" y="0">Marketplace Platforms</tspan><tspan class="line" dy="1.3em" x="0" y="0">42.58</tspan></text></g></g><g class="slice cursor-pointer"><path class="surface" d="M244.98740668578182,241.11070824932617L207.47481337156364,222.22141649865236A84,84 0,0,0 280.7717904996005,343.9822200940338L281.6358952498002,301.9911100470169A42,42 0,0,1 244.98740668578182,241.11070824932617Z" style="pointer-events: none; stroke-width: 1; fill: rgb(41, 121, 185); fill-opacity: 1; stroke: rgb(0, 0, 0); stroke-opacity: 1;"/><g class="slicetext"><text data-notex="1" class="slicetext" text-anchor="middle" x="0" y="0" style="font-family: 'Times New Roman'; font-size: 12px; fill: rgb(0, 0, 0); fill-opacity: 1; white-space: pre;" transform="translate(236.94605194606285,287.25345403508095)scale(0.8819568172286496)rotate(58.953104689531074)"><tspan class="line" dy="0em" x="0" y="0">Payment &amp; Logistics</tspan><tspan class="line" dy="1.3em" x="0" y="0">32.1</tspan></text></g></g><g class="slice cursor-pointer"><path class="surface" d="M281.6358952498002,301.9911100470169L280.7717904996005,343.9822200940338A84,84 0,0,0 366.5,260.0000000000001L324.5,260.00000000000006A42,42 0,0,1 281.6358952498002,301.9911100470169Z" style="pointer-events: none; stroke-width: 1; fill: rgb(94, 165, 209); fill-opacity: 1; stroke: rgb(0, 0, 0); stroke-opacity: 1;"/><g class="slicetext"><text data-notex="1" class="slicetext" text-anchor="middle" x="0" y="0" style="font-family: 'Times New Roman'; font-size: 12px; fill: rgb(0, 0, 0); fill-opacity: 1; white-space: pre;" transform="translate(321.31825195839644,300.003442409863)scale(0.7877479557042314)rotate(-44.41055894410556)"><tspan class="line" dy="0em" x="0" y="0">Customer Engagement</tspan><tspan class="line" dy="1.3em" x="0" y="0">25.33</tspan></text></g></g><g class="slice cursor-pointer"><path class="surface" d="M366.5,260L408.5,260A126,126 0,0,0 210.2014526098414,156.8063953276513L234.3009684065609,191.20426355176753A84,84 0,0,1 366.5,260Z" style="pointer-events: none; stroke-width: 1; fill: rgb(25, 103, 173); fill-opacity: 1; stroke: rgb(0, 0, 0); stroke-opacity: 1;"/><g class="slicetext"><text data-notex="1" class="slicetext" text-anchor="middle" x="0" y="0" style="font-family: 'Times New Roman'; font-size: 12px; fill: rgb(0, 0, 0); fill-opacity: 1; white-space: pre;" transform="translate(330.96614051852384,166.51125882431768)rotate(27.492250774922468)"><tspan class="line" dy="0em" x="0" y="0">B2C Platforms</tspan><tspan class="line" dy="1.3em" x="0" y="0">34.73</tspan></text></g></g><g class="slice"><path class="surface" d="M234.3009684065609,191.20426355176753L210.2014526098414,156.8063953276513A126,126 0,0,0 169.96222005734546,203.33212474797853L207.47481337156364,222.22141649865236A84,84 0,0,1 234.3009684065609,191.20426355176753Z" style="pointer-events: none; stroke-width: 1; fill: rgb(232, 241, 250); fill-opacity: 1; stroke: rgb(0, 0, 0); stroke-opacity: 1; opacity: 1;"/><g class="slicetext"><text data-notex="1" class="slicetext" text-anchor="middle" x="0" y="0" style="font-family: 'Times New Roman'; font-size: 12px; fill: rgb(0, 0, 0); fill-opacity: 1; white-space: pre;" transform="translate(194.2550379466352,183.80072865202857)scale(0.5631083504425318)rotate(-49.144085591440785)"><tspan class="line" dy="0em" x="0" y="0">C2C Marketplaces</tspan><tspan class="line" dy="1.3em" x="0" y="0">7.85</tspan></text></g></g><g class="slice cursor-pointer"><path class="surface" d="M207.47481337156364,222.22141649865236L169.96222005734546,203.33212474797853A126,126 0,0,0 205.04592339338524,359.38242307881535L230.8639489289235,326.25494871921023A84,84 0,0,1 207.47481337156364,222.22141649865236Z" style="pointer-events: none; stroke-width: 1; fill: rgb(128, 185, 218); fill-opacity: 1; stroke: rgb(0, 0, 0); stroke-opacity: 1;"/><g class="slicetext"><text data-notex="1" class="slicetext" text-anchor="middle" x="0" y="0" style="font-family: 'Times New Roman'; font-size: 12px; fill: rgb(0, 0, 0); fill-opacity: 1; white-space: pre;" transform="translate(189.79729251948592,280.68785040974547)scale(0.9149425077473046)rotate(77.32926707329273)"><tspan class="line" dy="0em" x="0" y="0">Digital Payment Systems</tspan><tspan class="line" dy="1.3em" x="0" y="0">21.89</tspan></text></g></g><g class="slice cursor-pointer"><path class="surface" d="M230.8639489289235,326.25494871921023L205.04592339338524,359.38242307881535A126,126 0,0,0 279.90768574940074,385.97333014105067L280.7717904996005,343.9822200940338A84,84 0,0,1 230.8639489289235,326.25494871921023Z" style="pointer-events: none; stroke-width: 1; fill: rgb(219, 233, 246); fill-opacity: 1; stroke: rgb(0, 0, 0); stroke-opacity: 1;"/><g class="slicetext"><text data-notex="1" class="slicetext" text-anchor="middle" x="0" y="0" style="font-family: 'Times New Roman'; font-size: 12px; fill: rgb(0, 0, 0); fill-opacity: 1; white-space: pre;" transform="translate(245.67087627025876,363.68556070627005)scale(0.586034751549931)rotate(19.55504449555042)"><tspan class="line" dy="0em" x="0" y="0">Fulfillment &amp; Delivery</tspan><tspan class="line" dy="1.3em" x="0" y="0">10.21</tspan></text></g></g><g class="slice"><path class="surface" d="M280.7717904996005,343.9822200940338L279.90768574940074,385.97333014105067A126,126 0,0,0 408.5,260.00000000000017L366.5,260.0000000000001A84,84 0,0,1 280.7717904996005,343.9822200940338Z" style="pointer-events: none; stroke-width: 1; fill: rgb(94, 165, 209); fill-opacity: 1; stroke: rgb(0, 0, 0); stroke-opacity: 1; opacity: 1;"/><g class="slicetext"><text data-notex="1" class="slicetext" text-anchor="middle" x="0" y="0" style="font-family: 'Times New Roman'; font-size: 12px; fill: rgb(0, 0, 0); fill-opacity: 1; white-space: pre;" transform="translate(349.46730318439273,328.5932564365515)scale(0.9968440890910436)rotate(-44.41055894410556)"><tspan class="line" dy="0em" x="0" y="0">Marketing Strategies</tspan><tspan class="line" dy="1.3em" x="0" y="0">25.33</tspan></text></g></g><g class="slice cursor-pointer"><path class="surface" d="M408.5,260L450.5,260A168,168 0,0,0 186.10193681312182,122.40852710353505L210.2014526098414,156.8063953276513A126,126 0,0,1 408.5,260Z" style="pointer-events: none; stroke-width: 1; fill: rgb(25, 103, 173); fill-opacity: 1; stroke: rgb(0, 0, 0); stroke-opacity: 1;"/><g class="slicetext"><text data-notex="1" class="slicetext" text-anchor="middle" x="0" y="0" style="font-family: 'Times New Roman'; font-size: 12px; fill: rgb(0, 0, 0); fill-opacity: 1; white-space: pre;" transform="translate(350.31687212157436,129.30964729496287)rotate(27.492250774922468)"><tspan class="line" dy="0em" x="0" y="0">Fashion Retailers</tspan><tspan class="line" dy="1.3em" x="0" y="0">34.73</tspan></text></g></g><g class="slice"><path class="surface" d="M169.96222005734546,203.33212474797853L132.4496267431273,184.44283299730472A168,168 0,0,0 132.26022386313332,335.1798488050101L169.82016789735,316.3848866037576A126,126 0,0,1 169.96222005734546,203.33212474797853Z" style="pointer-events: none; stroke-width: 1; fill: rgb(195, 218, 238); fill-opacity: 1; stroke: rgb(0, 0, 0); stroke-opacity: 1; opacity: 1;"/><g class="slicetext"><text data-notex="1" class="slicetext" text-anchor="middle" x="0" y="0" style="font-family: 'Times New Roman'; font-size: 12px; fill: rgb(0, 0, 0); fill-opacity: 1; white-space: pre;" transform="translate(135.99906335741554,260.31592019931855)rotate(-89.92800719928005)"><tspan class="line" dy="0em" x="0" y="0">Buy Now Pay Later</tspan><tspan class="line" dy="1.3em" x="0" y="0">14.81</tspan></text></g></g><g class="slice"><path class="surface" d="M169.82016789735,316.3848866037576L132.26022386313332,335.1798488050101A168,168 0,0,0 179.22789785784698,392.50989743842047L205.04592339338524,359.38242307881535A126,126 0,0,1 169.82016789735,316.3848866037576Z" style="pointer-events: none; stroke-width: 1; fill: rgb(236, 244, 251); fill-opacity: 1; stroke: rgb(0, 0, 0); stroke-opacity: 1; opacity: 1;"/><g class="slicetext"><text data-notex="1" class="slicetext" text-anchor="middle" x="0" y="0" style="font-family: 'Times New Roman'; font-size: 12px; fill: rgb(0, 0, 0); fill-opacity: 1; white-space: pre;" transform="translate(171.44436245289418,350.77030255032395)rotate(50.6739326067393)"><tspan class="line" dy="0em" x="0" y="0">E-Wallets</tspan><tspan class="line" dy="1.3em" x="0" y="0">7.08</tspan></text></g></g><g class="slice"><path class="surface" d="M205.04592339338524,359.38242307881535L179.22789785784698,392.50989743842047A168,168 0,0,0 227.1145319446036,418.6078495166133L240.9608989584527,378.95588713746A126,126 0,0,1 205.04592339338524,359.38242307881535Z" style="pointer-events: none; stroke-width: 1; fill: rgb(246, 250, 255); fill-opacity: 1; stroke: rgb(0, 0, 0); stroke-opacity: 1; opacity: 1;"/><g class="slicetext"><text data-notex="1" class="slicetext" text-anchor="middle" x="0" y="0" style="font-family: 'Times New Roman'; font-size: 12px; fill: rgb(0, 0, 0); fill-opacity: 1; white-space: pre;" transform="translate(207.7710996974794,397.1186326716679)scale(0.5234830227298684)rotate(28.590140985901485)"><tspan class="line" dy="0em" x="0" y="0">Last-mile Delivery</tspan><tspan class="line" dy="1.3em" x="0" y="0">5.19</tspan></text></g></g><g class="slice"><path class="surface" d="M240.9608989584527,378.95588713746L227.1145319446036,418.6078495166133A168,168 0,0,0 279.043580999201,427.96444018806756L279.90768574940074,385.97333014105067A126,126 0,0,1 240.9608989584527,378.95588713746Z" style="pointer-events: none; stroke-width: 1; fill: rgb(247, 251, 255); fill-opacity: 1; stroke: rgb(0, 0, 0); stroke-opacity: 1; opacity: 1;"/><g class="slicetext"><text data-notex="1" class="slicetext" text-anchor="middle" x="0" y="0" style="font-family: 'Times New Roman'; font-size: 12px; fill: rgb(0, 0, 0); fill-opacity: 1; white-space: pre;" transform="translate(255.3818724226369,410.50552350548196)scale(0.7044553003059213)rotate(10.213978602139832)"><tspan class="line" dy="0em" x="0" y="0">Warehousing</tspan><tspan class="line" dy="1.3em" x="0" y="0">5.02</tspan></text></g></g><g class="slice"><path class="surface" d="M450.5,260L492.5,260A210,210 0,0,0 360.5648897608049,65.04904979294565L344.9519118086439,104.03923983435652A168,168 0,0,1 450.5,260Z" style="pointer-events: none; stroke-width: 1; fill: rgb(159, 203, 225); fill-opacity: 1; stroke: rgb(0, 0, 0); stroke-opacity: 1; opacity: 1;"/><g class="slicetext"><text data-notex="1" class="slicetext" text-anchor="middle" x="0" y="0" style="font-family: 'Times New Roman'; font-size: 12px; fill: rgb(0, 0, 0); fill-opacity: 1; white-space: pre;" transform="translate(439.80727655447794,153.14443870015288)rotate(55.91140885911409)"><tspan class="line" dy="0em" x="0" y="0">Ethical Apparel</tspan><tspan class="line" dy="1.3em" x="0" y="0">18.94</tspan></text></g></g><g class="slice"><path class="surface" d="M344.9519118086439,104.03923983435652L360.5648897608049,65.04904979294565A210,210 0,0,0 227.50577349805087,57.32875129547281L238.50461879844067,97.86300103637825A168,168 0,0,1 344.9519118086439,104.03923983435652Z" style="pointer-events: none; stroke-width: 1; fill: rgb(219, 233, 246); fill-opacity: 1; stroke: rgb(0, 0, 0); stroke-opacity: 1; opacity: 1;"/><g class="slicetext"><text data-notex="1" class="slicetext" text-anchor="middle" x="0" y="0" style="font-family: 'Times New Roman'; font-size: 12px; fill: rgb(0, 0, 0); fill-opacity: 1; white-space: pre;" transform="translate(293.3626534028758,69.95012196548996)rotate(3.320667933206664)"><tspan class="line" dy="0em" x="0" y="0">Luxury Brands</tspan><tspan class="line" dy="1.3em" x="0" y="0">10.28</tspan></text></g></g><g class="slice"><path class="surface" d="M238.50461879844067,97.86300103637825L227.50577349805087,57.32875129547281A210,210 0,0,0 162.0024210164023,88.01065887941883L186.10193681312182,122.40852710353505A168,168 0,0,1 238.50461879844067,97.86300103637825Z" style="pointer-events: none; stroke-width: 1; fill: rgb(244, 249, 254); fill-opacity: 1; stroke: rgb(0, 0, 0); stroke-opacity: 1; opacity: 1;"/><g class="slicetext"><text data-notex="1" class="slicetext" text-anchor="middle" x="0" y="0" style="font-family: 'Times New Roman'; font-size: 12px; fill: rgb(0, 0, 0); fill-opacity: 1; white-space: pre;" transform="translate(199.18895180553002,82.13775526938309)scale(0.9883440828853126)rotate(-25.098490150984844)"><tspan class="line" dy="0em" x="0" y="0">Fast Fashion</tspan><tspan class="line" dy="1.3em" x="0" y="0">5.51</tspan></text></g></g></g></g><g class="glimages"/><defs id="topdefs-5d0a11"><g class="clips"/></defs><g class="layer-above"><g class="imagelayer"/><g class="shapelayer"/></g><g class="infolayer"><g class="cb422270 colorbar" transform="translate(10,50)"><rect class="cbbg" x="571.5" y="63" width="48.015625" height="295" style="fill: rgb(0, 0, 0); fill-opacity: 0; stroke: rgb(68, 68, 68); stroke-opacity: 1; stroke-width: 0;"/><g class="cbfills" transform="translate(0,93)"><rect class="cbfill gradient_filled" style="fill: url('#g5d0a11-cb422270');" x="582" y="0" width="15" height="254"/></g><g class="cblines" transform="translate(0,93)"/><g class="cbaxis crisp" transform="translate(0,-50)"><g class="ycb422270tick"><text text-anchor="start" x="600.4" y="4.199999999999999" transform="translate(0,363.32000000000005)" style="font-family: 'Times New Roman'; font-size: 12px; fill: rgb(42, 63, 95); fill-opacity: 1; white-space: pre; opacity: 1;">10</text></g><g class="ycb422270tick"><text text-anchor="start" x="600.4" y="4.199999999999999" style="font-family: 'Times New Roman'; font-size: 12px; fill: rgb(42, 63, 95); fill-opacity: 1; white-space: pre; opacity: 1;" transform="translate(0,295.70000000000005)">20</text></g><g class="ycb422270tick"><text text-anchor="start" x="600.4" y="4.199999999999999" style="font-family: 'Times New Roman'; font-size: 12px; fill: rgb(42, 63, 95); fill-opacity: 1; white-space: pre; opacity: 1;" transform="translate(0,228.07000000000005)">30</text></g><g class="ycb422270tick"><text text-anchor="start" x="600.4" y="4.199999999999999" style="font-family: 'Times New Roman'; font-size: 12px; fill: rgb(42, 63, 95); fill-opacity: 1; white-space: pre; opacity: 1;" transform="translate(0,160.45000000000005)">40</text></g></g><g class="cbtitleunshift" transform="translate(-10,-50)"><g class="cbtitle" transform="translate(-0.5,-0.5)"><text class="ycb422270title" x="592.25" y="135.75" text-anchor="start" style="opacity: 1; font-family: 'Times New Roman'; font-size: 13px; fill: rgb(42, 63, 95); fill-opacity: 1; white-space: pre;">%</text></g></g><rect class="cboutline" x="582" y="93" width="15" height="254" style="stroke: rgb(68, 68, 68); stroke-opacity: 1; fill: none; stroke-width: 1;"/></g><g class="g-gtitle"><text class="gtitle" x="320" y="25" text-anchor="middle" dy="0em" style="opacity: 1; font-family: 'Times New Roman'; font-size: 16px; fill: rgb(42, 63, 95); fill-opacity: 1; white-space: pre;">E-commerce Distribution by Category (2024) (%)</text></g></g></svg>