<svg class="main-svg" xmlns="http://www.w3.org/2000/svg" xmlns:xlink="http://www.w3.org/1999/xlink" width="1920" height="1440" style="" viewBox="0 0 640 480"><rect x="0" y="0" width="640" height="480" style="fill: rgb(255, 255, 255); fill-opacity: 1;"/><defs id="defs-da94db"><g class="clips"/><g class="gradients"><linearGradient x1="0" y1="1" x2="0" y2="0" gradientUnits="objectBoundingBox" id="gda94db-cb193463"><stop offset="0%" stop-color="rgb(252, 251, 253)" stop-opacity="1"/><stop offset="12.5%" stop-color="rgb(239, 237, 245)" stop-opacity="1"/><stop offset="25%" stop-color="rgb(218, 218, 235)" stop-opacity="1"/><stop offset="37.5%" stop-color="rgb(188, 189, 220)" stop-opacity="1"/><stop offset="50%" stop-color="rgb(158, 154, 200)" stop-opacity="1"/><stop offset="62.5%" stop-color="rgb(128, 125, 186)" stop-opacity="1"/><stop offset="75%" stop-color="rgb(106, 81, 163)" stop-opacity="1"/><stop offset="87.5%" stop-color="rgb(84, 39, 143)" stop-opacity="1"/><stop offset="100%" stop-color="rgb(63, 0, 125)" stop-opacity="1"/></linearGradient></g><g class="patterns"/></defs><g class="bglayer"/><g class="layer-below"><g class="imagelayer"/><g class="shapelayer"/></g><g class="cartesianlayer"/><g class="polarlayer"/><g class="smithlayer"/><g class="ternarylayer"/><g class="geolayer"/><g class="funnelarealayer"/><g class="pielayer"/><g class="iciclelayer"/><g class="treemaplayer"/><g class="sunburstlayer"><g class="trace sunburst" stroke-linejoin="round" style="opacity: 1;"><g class="slice"><path class="surface" d="M282.5,260A0,0 0,1,0 282.5,260A0,0 0,1,0 282.5,260ZM324.5,260A42,42 0,1,1 240.5,260A42,42 0,1,1 324.5,260Z" style="pointer-events: none; stroke-width: 1; fill: rgb(255, 255, 255); fill-opacity: 1; stroke: rgb(0, 0, 0); stroke-opacity: 1;"/><g class="slicetext"><text data-notex="1" class="slicetext" text-anchor="middle" x="0" y="0" style="font-family: 'Times New Roman'; font-size: 12px; fill: rgb(0, 0, 0); fill-opacity: 1; white-space: pre;" transform="translate(282.5,264)">100</text></g></g><g class="slice cursor-pointer"><path class="surface" d="M324.5,260L366.5,260A84,84 0,1,0 198.50424468371165,260.84444588116537L240.50212234185582,260.4222229405827A42,42 0,1,1 324.5,260Z" style="pointer-events: none; stroke-width: 1; fill: rgb(63, 0, 125); fill-opacity: 1; stroke: rgb(0, 0, 0); stroke-opacity: 1;"/><g class="slicetext"><text data-notex="1" class="slicetext" text-anchor="middle" x="0" y="0" style="font-family: 'Times New Roman'; font-size: 12px; fill: rgb(0, 0, 0); fill-opacity: 1; white-space: pre;" transform="translate(282.03649868662507,198.90889502222794)scale(0.9534132692482971)rotate(-0.2880000000000109)"><tspan class="line" dy="0em" x="0" y="0">Physical Sciences</tspan><tspan class="line" dy="1.3em" x="0" y="0">50.16</tspan></text></g></g><g class="slice cursor-pointer"><path class="surface" d="M240.50212234185582,260.4222229405827L198.50424468371165,260.84444588116537A84,84 0,0,0 286.7205227271007,343.8939043549055L284.6102613635503,301.9469521774527A42,42 0,0,1 240.50212234185582,260.4222229405827Z" style="pointer-events: none; stroke-width: 1; fill: rgb(169, 166, 207); fill-opacity: 1; stroke: rgb(0, 0, 0); stroke-opacity: 1;"/><g class="slicetext"><text data-notex="1" class="slicetext" text-anchor="middle" x="0" y="0" style="font-family: 'Times New Roman'; font-size: 12px; fill: rgb(0, 0, 0); fill-opacity: 1; white-space: pre;" transform="translate(244.53367328758722,300.07761180588125)rotate(43.271999999999935)"><tspan class="line" dy="0em" x="0" y="0">Life Sciences</tspan><tspan class="line" dy="1.3em" x="0" y="0">25.64</tspan></text></g></g><g class="slice cursor-pointer"><path class="surface" d="M284.6102613635503,301.9469521774527L286.7205227271007,343.8939043549055A84,84 0,0,0 366.5,260L324.5,260A42,42 0,0,1 284.6102613635503,301.9469521774527Z" style="pointer-events: none; stroke-width: 1; fill: rgb(176, 175, 212); fill-opacity: 1; stroke: rgb(0, 0, 0); stroke-opacity: 1;"/><g class="slicetext"><text data-notex="1" class="slicetext" text-anchor="middle" x="0" y="0" style="font-family: 'Times New Roman'; font-size: 12px; fill: rgb(0, 0, 0); fill-opacity: 1; white-space: pre;" transform="translate(322.60624884273983,298.34895488531436)scale(0.9259905029716444)rotate(-46.440000000000055)"><tspan class="line" dy="0em" x="0" y="0">Applied Sciences</tspan><tspan class="line" dy="1.3em" x="0" y="0">24.2</tspan></text></g></g><g class="slice cursor-pointer"><path class="surface" d="M366.5,260L408.5,260A126,126 0,0,0 264.51134147542143,135.29070538052866L270.50756098361427,176.86047025368578A84,84 0,0,1 366.5,260Z" style="pointer-events: none; stroke-width: 1; fill: rgb(160, 156, 201); fill-opacity: 1; stroke: rgb(0, 0, 0); stroke-opacity: 1;"/><g class="slicetext"><text data-notex="1" class="slicetext" text-anchor="middle" x="0" y="0" style="font-family: 'Times New Roman'; font-size: 12px; fill: rgb(0, 0, 0); fill-opacity: 1; white-space: pre;" transform="translate(352.81945524270026,178.55895131024988)rotate(40.89599999999996)"><tspan class="line" dy="0em" x="0" y="0">Physics</tspan><tspan class="line" dy="1.3em" x="0" y="0">27.28</tspan></text></g></g><g class="slice"><path class="surface" d="M270.50756098361427,176.86047025368578L264.51134147542143,135.29070538052866A126,126 0,0,0 156.50636702556747,261.2666688217481L198.50424468371165,260.8444458811654A84,84 0,0,1 270.50756098361427,176.86047025368578Z" style="pointer-events: none; stroke-width: 1; fill: rgb(183, 184, 217); fill-opacity: 1; stroke: rgb(0, 0, 0); stroke-opacity: 1; opacity: 1;"/><g class="slicetext"><text data-notex="1" class="slicetext" text-anchor="middle" x="0" y="0" style="font-family: 'Times New Roman'; font-size: 12px; fill: rgb(0, 0, 0); fill-opacity: 1; white-space: pre;" transform="translate(201.42592127519438,190.49147184888312)rotate(-49.39200000000005)"><tspan class="line" dy="0em" x="0" y="0">Chemistry</tspan><tspan class="line" dy="1.3em" x="0" y="0">22.88</tspan></text></g></g><g class="slice cursor-pointer"><path class="surface" d="M198.50424468371165,260.84444588116537L156.50636702556747,261.26666882174806A126,126 0,0,0 197.87623948543347,353.3531957480476L226.08415965695565,322.23546383203177A84,84 0,0,1 198.50424468371165,260.84444588116537Z" style="pointer-events: none; stroke-width: 1; fill: rgb(230, 229, 241); fill-opacity: 1; stroke: rgb(0, 0, 0); stroke-opacity: 1;"/><g class="slicetext"><text data-notex="1" class="slicetext" text-anchor="middle" x="0" y="0" style="font-family: 'Times New Roman'; font-size: 12px; fill: rgb(0, 0, 0); fill-opacity: 1; white-space: pre;" transform="translate(191.7934518805582,301.29805600275137)rotate(65.80799999999999)"><tspan class="line" dy="0em" x="0" y="0">Neuroscience</tspan><tspan class="line" dy="1.3em" x="0" y="0">13.12</tspan></text></g></g><g class="slice cursor-pointer"><path class="surface" d="M226.08415965695565,322.23546383203177L197.87623948543347,353.3531957480476A126,126 0,0,0 288.830784090651,385.8408565323582L286.7205227271007,343.8939043549055A84,84 0,0,1 226.08415965695565,322.23546383203177Z" style="pointer-events: none; stroke-width: 1; fill: rgb(232, 231, 242); fill-opacity: 1; stroke: rgb(0, 0, 0); stroke-opacity: 1;"/><g class="slicetext"><text data-notex="1" class="slicetext" text-anchor="middle" x="0" y="0" style="font-family: 'Times New Roman'; font-size: 12px; fill: rgb(0, 0, 0); fill-opacity: 1; white-space: pre;" transform="translate(248.89925948456283,354.0707942092151)rotate(19.65599999999995)"><tspan class="line" dy="0em" x="0" y="0">Biology</tspan><tspan class="line" dy="1.3em" x="0" y="0">12.52</tspan></text></g></g><g class="slice"><path class="surface" d="M286.7205227271007,343.8939043549055L288.830784090651,385.8408565323582A126,126 0,0,0 408.5,260.00000000000006L366.5,260A84,84 0,0,1 286.7205227271007,343.8939043549055Z" style="pointer-events: none; stroke-width: 1; fill: rgb(176, 175, 212); fill-opacity: 1; stroke: rgb(0, 0, 0); stroke-opacity: 1; opacity: 1;"/><g class="slicetext"><text data-notex="1" class="slicetext" text-anchor="middle" x="0" y="0" style="font-family: 'Times New Roman'; font-size: 12px; fill: rgb(0, 0, 0); fill-opacity: 1; white-space: pre;" transform="translate(353.9534282850813,327.9491221891983)rotate(-46.440000000000055)"><tspan class="line" dy="0em" x="0" y="0">Engineering</tspan><tspan class="line" dy="1.3em" x="0" y="0">24.2</tspan></text></g></g><g class="slice cursor-pointer"><path class="surface" d="M408.5,260L450.5,260A168,168 0,0,0 258.51512196722854,93.72094050737152L264.51134147542143,135.29070538052866A126,126 0,0,1 408.5,260Z" style="pointer-events: none; stroke-width: 1; fill: rgb(160, 156, 201); fill-opacity: 1; stroke: rgb(0, 0, 0); stroke-opacity: 1;"/><g class="slicetext"><text data-notex="1" class="slicetext" text-anchor="middle" x="0" y="0" style="font-family: 'Times New Roman'; font-size: 12px; fill: rgb(0, 0, 0); fill-opacity: 1; white-space: pre;" transform="translate(378.74505167904636,148.62540174035098)rotate(40.89599999999996)"><tspan class="line" dy="0em" x="0" y="0">Quantum Physics</tspan><tspan class="line" dy="1.3em" x="0" y="0">27.28</tspan></text></g></g><g class="slice"><path class="surface" d="M156.50636702556747,261.26666882174806L114.5084893674233,261.68889176233074A168,168 0,0,0 136.10154685367627,342.41051459834273L172.7011601402572,321.807885948757A126,126 0,0,1 156.50636702556747,261.26666882174806Z" style="pointer-events: none; stroke-width: 1; fill: rgb(245, 244, 249); fill-opacity: 1; stroke: rgb(0, 0, 0); stroke-opacity: 1; opacity: 1;"/><g class="slicetext"><text data-notex="1" class="slicetext" text-anchor="middle" x="0" y="0" style="font-family: 'Times New Roman'; font-size: 12px; fill: rgb(0, 0, 0); fill-opacity: 1; white-space: pre;" transform="translate(139.14788934936294,298.6328000920201)scale(0.82263040790198)rotate(75.024)"><tspan class="line" dy="0em" x="0" y="0">Neural Networks</tspan><tspan class="line" dy="1.3em" x="0" y="0">8</tspan></text></g></g><g class="slice"><path class="surface" d="M172.7011601402572,321.807885948757L136.10154685367627,342.41051459834273A168,168 0,0,0 169.66831931391133,384.4709276640635L197.87623948543347,353.3531957480476A126,126 0,0,1 172.7011601402572,321.807885948757Z" style="pointer-events: none; stroke-width: 1; fill: rgb(252, 251, 253); fill-opacity: 1; stroke: rgb(0, 0, 0); stroke-opacity: 1; opacity: 1;"/><g class="slicetext"><text data-notex="1" class="slicetext" text-anchor="middle" x="0" y="0" style="font-family: 'Times New Roman'; font-size: 12px; fill: rgb(0, 0, 0); fill-opacity: 1; white-space: pre;" transform="translate(162.01627024189762,356.1533576865115)scale(0.6350172584912371)rotate(51.408000000000015)"><tspan class="line" dy="0em" x="0" y="0">Brain Function</tspan><tspan class="line" dy="1.3em" x="0" y="0">5.12</tspan></text></g></g><g class="slice"><path class="surface" d="M197.87623948543347,353.3531957480476L169.66831931391133,384.4709276640635A168,168 0,0,0 230.48476403846024,419.7448441354692L243.48857302884517,379.80863310160186A126,126 0,0,1 197.87623948543347,353.3531957480476Z" style="pointer-events: none; stroke-width: 1; fill: rgb(248, 247, 251); fill-opacity: 1; stroke: rgb(0, 0, 0); stroke-opacity: 1; opacity: 1;"/><g class="slicetext"><text data-notex="1" class="slicetext" text-anchor="middle" x="0" y="0" style="font-family: 'Times New Roman'; font-size: 12px; fill: rgb(0, 0, 0); fill-opacity: 1; white-space: pre;" transform="translate(211.19422162266696,382.93967789886284)rotate(30.114000000000033)"><tspan class="line" dy="0em" x="0" y="0">Ecology</tspan><tspan class="line" dy="1.3em" x="0" y="0">6.71</tspan></text></g></g><g class="slice"><path class="surface" d="M243.48857302884517,379.80863310160186L230.48476403846024,419.7448441354692A168,168 0,0,0 290.9410454542012,427.787808709811L288.83078409065087,385.8408565323582A126,126 0,0,1 243.48857302884517,379.80863310160186Z" style="pointer-events: none; stroke-width: 1; fill: rgb(250, 249, 252); fill-opacity: 1; stroke: rgb(0, 0, 0); stroke-opacity: 1; opacity: 1;"/><g class="slicetext"><text data-notex="1" class="slicetext" text-anchor="middle" x="0" y="0" style="font-family: 'Times New Roman'; font-size: 12px; fill: rgb(0, 0, 0); fill-opacity: 1; white-space: pre;" transform="translate(263.1665440167286,404.0790701479037)rotate(7.5779999999999745)"><tspan class="line" dy="0em" x="0" y="0">Genetics</tspan><tspan class="line" dy="1.3em" x="0" y="0">5.81</tspan></text></g></g><g class="slice"><path class="surface" d="M450.5,260L492.5,260A210,210 0,0,0 434.9496661053425,115.57320434085096L404.459732884274,144.45856347268077A168,168 0,0,1 450.5,260Z" style="pointer-events: none; stroke-width: 1; fill: rgb(234, 233, 243); fill-opacity: 1; stroke: rgb(0, 0, 0); stroke-opacity: 1; opacity: 1;"/><g class="slicetext"><text data-notex="1" class="slicetext" text-anchor="middle" x="0" y="0" style="font-family: 'Times New Roman'; font-size: 12px; fill: rgb(0, 0, 0); fill-opacity: 1; white-space: pre;" transform="translate(459.47310426351,189.11918017628673)rotate(68.274)"><tspan class="line" dy="0em" x="0" y="0">Entanglement</tspan><tspan class="line" dy="1.3em" x="0" y="0">12.07</tspan></text></g></g><g class="slice"><path class="surface" d="M404.459732884274,144.45856347268077L434.9496661053425,115.57320434085096A210,210 0,0,0 348.52192579290704,60.6482874049087L335.3175406343256,100.51862992392697A168,168 0,0,1 404.459732884274,144.45856347268077Z" style="pointer-events: none; stroke-width: 1; fill: rgb(246, 244, 249); fill-opacity: 1; stroke: rgb(0, 0, 0); stroke-opacity: 1; opacity: 1;"/><g class="slicetext"><text data-notex="1" class="slicetext" text-anchor="middle" x="0" y="0" style="font-family: 'Times New Roman'; font-size: 12px; fill: rgb(0, 0, 0); fill-opacity: 1; white-space: pre;" transform="translate(387.49177568025954,94.30089746872856)scale(0.7792608302113668)rotate(32.436000000000035)"><tspan class="line" dy="0em" x="0" y="0">Quantum Measurement</tspan><tspan class="line" dy="1.3em" x="0" y="0">7.84</tspan></text></g></g><g class="slice"><path class="surface" d="M335.3175406343256,100.51862992392697L348.52192579290704,60.6482874049087A210,210 0,0,0 252.51890245903573,52.15117563421441L258.5151219672286,93.72094050737152A168,168 0,0,1 335.3175406343256,100.51862992392697Z" style="pointer-events: none; stroke-width: 1; fill: rgb(247, 245, 250); fill-opacity: 1; stroke: rgb(0, 0, 0); stroke-opacity: 1; opacity: 1;"/><g class="slicetext"><text data-notex="1" class="slicetext" text-anchor="middle" x="0" y="0" style="font-family: 'Times New Roman'; font-size: 12px; fill: rgb(0, 0, 0); fill-opacity: 1; white-space: pre;" transform="translate(299.4362606473606,66.69934738607712)rotate(5.057999999999993)"><tspan class="line" dy="0em" x="0" y="0">Quantum Fields</tspan><tspan class="line" dy="1.3em" x="0" y="0">7.37</tspan></text></g></g></g></g><g class="glimages"/><defs id="topdefs-da94db"><g class="clips"/></defs><g class="layer-above"><g class="imagelayer"/><g class="shapelayer"/></g><g class="infolayer"><g class="cb193463 colorbar" transform="translate(10,50)"><rect class="cbbg" x="571.5" y="63" width="48.015625" height="295" style="fill: rgb(0, 0, 0); fill-opacity: 0; stroke: rgb(68, 68, 68); stroke-opacity: 1; stroke-width: 0;"/><g class="cbfills" transform="translate(0,93)"><rect class="cbfill gradient_filled" style="fill: url('#gda94db-cb193463');" x="582" y="0" width="15" height="254"/></g><g class="cblines" transform="translate(0,93)"/><g class="cbaxis crisp" transform="translate(0,-50)"><g class="ycb193463tick"><text text-anchor="start" x="600.4" y="4.199999999999999" transform="translate(0,369.48)" style="font-family: 'Times New Roman'; font-size: 12px; fill: rgb(42, 63, 95); fill-opacity: 1; white-space: pre; opacity: 1;">10</text></g><g class="ycb193463tick"><text text-anchor="start" x="600.4" y="4.199999999999999" style="font-family: 'Times New Roman'; font-size: 12px; fill: rgb(42, 63, 95); fill-opacity: 1; white-space: pre; opacity: 1;" transform="translate(0,313.09000000000003)">20</text></g><g class="ycb193463tick"><text text-anchor="start" x="600.4" y="4.199999999999999" style="font-family: 'Times New Roman'; font-size: 12px; fill: rgb(42, 63, 95); fill-opacity: 1; white-space: pre; opacity: 1;" transform="translate(0,256.69000000000005)">30</text></g><g class="ycb193463tick"><text text-anchor="start" x="600.4" y="4.199999999999999" style="font-family: 'Times New Roman'; font-size: 12px; fill: rgb(42, 63, 95); fill-opacity: 1; white-space: pre; opacity: 1;" transform="translate(0,200.30000000000007)">40</text></g><g class="ycb193463tick"><text text-anchor="start" x="600.4" y="4.199999999999999" style="font-family: 'Times New Roman'; font-size: 12px; fill: rgb(42, 63, 95); fill-opacity: 1; white-space: pre; opacity: 1;" transform="translate(0,143.90000000000006)">50</text></g></g><g class="cbtitleunshift" transform="translate(-10,-50)"><g class="cbtitle" transform="translate(-0.5,-0.5)"><text class="ycb193463title" x="592.25" y="135.75" text-anchor="start" style="opacity: 1; font-family: 'Times New Roman'; font-size: 13px; fill: rgb(42, 63, 95); fill-opacity: 1; white-space: pre;">%</text></g></g><rect class="cboutline" x="582" y="93" width="15" height="254" style="stroke: rgb(68, 68, 68); stroke-opacity: 1; fill: none; stroke-width: 1;"/></g><g class="g-gtitle"><text class="gtitle" x="320" y="25" text-anchor="middle" dy="0em" style="opacity: 1; font-family: 'Times New Roman'; font-size: 16px; fill: rgb(42, 63, 95); fill-opacity: 1; white-space: pre;">Science Distribution by Category (2021) (%)</text></g></g></svg>