<svg class="main-svg" xmlns="http://www.w3.org/2000/svg" xmlns:xlink="http://www.w3.org/1999/xlink" width="1920" height="1440" style="" viewBox="0 0 640 480"><rect x="0" y="0" width="640" height="480" style="fill: rgb(255, 255, 255); fill-opacity: 1;"/><defs id="defs-2fc03d"><g class="clips"/><g class="gradients"><linearGradient x1="0" y1="1" x2="0" y2="0" gradientUnits="objectBoundingBox" id="g2fc03d-cb7944c4"><stop offset="0%" stop-color="rgb(255, 255, 204)" stop-opacity="1"/><stop offset="12.5%" stop-color="rgb(255, 237, 160)" stop-opacity="1"/><stop offset="25%" stop-color="rgb(254, 217, 118)" stop-opacity="1"/><stop offset="37.5%" stop-color="rgb(254, 178, 76)" stop-opacity="1"/><stop offset="50%" stop-color="rgb(253, 141, 60)" stop-opacity="1"/><stop offset="62.5%" stop-color="rgb(252, 78, 42)" stop-opacity="1"/><stop offset="75%" stop-color="rgb(227, 26, 28)" stop-opacity="1"/><stop offset="87.5%" stop-color="rgb(189, 0, 38)" stop-opacity="1"/><stop offset="100%" stop-color="rgb(128, 0, 38)" stop-opacity="1"/></linearGradient></g><g class="patterns"/></defs><g class="bglayer"/><g class="layer-below"><g class="imagelayer"/><g class="shapelayer"/></g><g class="cartesianlayer"/><g class="polarlayer"/><g class="smithlayer"/><g class="ternarylayer"/><g class="geolayer"/><g class="funnelarealayer"/><g class="pielayer"/><g class="iciclelayer"/><g class="treemaplayer"/><g class="sunburstlayer"><g class="trace sunburst" stroke-linejoin="round" style="opacity: 1;"><g class="slice"><path class="surface" d="M282.5,260A0,0 0,1,0 282.5,260A0,0 0,1,0 282.5,260ZM324.5,260A42,42 0,1,1 240.5,260A42,42 0,1,1 324.5,260Z" style="pointer-events: none; stroke-width: 1; fill: rgb(255, 255, 255); fill-opacity: 1; stroke: rgb(0, 0, 0); stroke-opacity: 1;"/><g class="slicetext"><text data-notex="1" class="slicetext" text-anchor="middle" x="0" y="0" style="font-family: 'Times New Roman'; font-size: 12px; fill: rgb(0, 0, 0); fill-opacity: 1; white-space: pre;" transform="translate(282.5,264)">100</text></g></g><g class="slice cursor-pointer"><path class="surface" d="M324.5,260L366.5,260A84,84 0,0,0 220.83482538070376,202.96136187485098L251.66741269035188,231.4806809374255A42,42 0,0,1 324.5,260Z" style="pointer-events: none; stroke-width: 1; fill: rgb(128, 0, 38); fill-opacity: 1; stroke: rgb(0, 0, 0); stroke-opacity: 1;"/><g class="slicetext"><text data-notex="1" class="slicetext" text-anchor="middle" x="0" y="0" style="font-family: 'Times New Roman'; font-size: 12px; fill: rgb(0, 0, 0); fill-opacity: 1; white-space: pre;" transform="translate(304.6177776234491,203.5156580589894)scale(0.929729920353367)rotate(21.384000000000015)"><tspan class="line" dy="0em" x="0" y="0">Corporate Strategy</tspan><tspan class="line" dy="1.3em" x="0" y="0">38.12</tspan></text></g></g><g class="slice cursor-pointer"><path class="surface" d="M251.66741269035188,231.4806809374255L220.83482538070376,202.96136187485098A84,84 0,0,0 266.60446593041587,342.48231323527904L274.5522329652079,301.24115661763955A42,42 0,0,1 251.66741269035188,231.4806809374255Z" style="pointer-events: none; stroke-width: 1; fill: rgb(190, 1, 38); fill-opacity: 1; stroke: rgb(0, 0, 0); stroke-opacity: 1;"/><g class="slicetext"><text data-notex="1" class="slicetext" text-anchor="middle" x="0" y="0" style="font-family: 'Times New Roman'; font-size: 12px; fill: rgb(0, 0, 0); fill-opacity: 1; white-space: pre;" transform="translate(232.42512716456682,276.42698754489976)scale(0.8448793802746123)rotate(71.83799999999997)"><tspan class="line" dy="0em" x="0" y="0">Digital Transformation</tspan><tspan class="line" dy="1.3em" x="0" y="0">33.85</tspan></text></g></g><g class="slice cursor-pointer"><path class="surface" d="M274.5522329652079,301.24115661763955L266.60446593041587,342.48231323527904A84,84 0,0,0 366.5,259.99999999999994L324.5,260A42,42 0,0,1 274.5522329652079,301.24115661763955Z" style="pointer-events: none; stroke-width: 1; fill: rgb(238, 49, 34); fill-opacity: 1; stroke: rgb(0, 0, 0); stroke-opacity: 1;"/><g class="slicetext"><text data-notex="1" class="slicetext" text-anchor="middle" x="0" y="0" style="font-family: 'Times New Roman'; font-size: 12px; fill: rgb(0, 0, 0); fill-opacity: 1; white-space: pre;" transform="translate(315.8247285882167,300.8049484644564)scale(0.8431803965209909)rotate(-39.54600000000005)"><tspan class="line" dy="0em" x="0" y="0">Financial Management</tspan><tspan class="line" dy="1.3em" x="0" y="0">28.03</tspan></text></g></g><g class="slice cursor-pointer"><path class="surface" d="M366.5,260L408.5,260A126,126 0,0,0 325.7763384548003,141.6650578656263L311.35089230320017,181.1100385770842A84,84 0,0,1 366.5,260Z" style="pointer-events: none; stroke-width: 1; fill: rgb(254, 160, 68); fill-opacity: 1; stroke: rgb(0, 0, 0); stroke-opacity: 1;"/><g class="slicetext"><text data-notex="1" class="slicetext" text-anchor="middle" x="0" y="0" style="font-family: 'Times New Roman'; font-size: 12px; fill: rgb(0, 0, 0); fill-opacity: 1; white-space: pre;" transform="translate(368.4920681632021,199.68589159276686)rotate(55.04399999999998)"><tspan class="line" dy="0em" x="0" y="0">Growth Models</tspan><tspan class="line" dy="1.3em" x="0" y="0">19.42</tspan></text></g></g><g class="slice cursor-pointer"><path class="surface" d="M311.35089230320017,181.1100385770842L325.7763384548003,141.6650578656263A126,126 0,0,0 190.00223807105561,174.4420428122765L220.83482538070376,202.96136187485098A84,84 0,0,1 311.35089230320017,181.1100385770842Z" style="pointer-events: none; stroke-width: 1; fill: rgb(254, 167, 71); fill-opacity: 1; stroke: rgb(0, 0, 0); stroke-opacity: 1;"/><g class="slicetext"><text data-notex="1" class="slicetext" text-anchor="middle" x="0" y="0" style="font-family: 'Times New Roman'; font-size: 12px; fill: rgb(0, 0, 0); fill-opacity: 1; white-space: pre;" transform="translate(258.14036704596873,159.0936092689686)rotate(-13.572000000000003)"><tspan class="line" dy="0em" x="0" y="0">Innovation Strategy</tspan><tspan class="line" dy="1.3em" x="0" y="0">18.7</tspan></text></g></g><g class="slice"><path class="surface" d="M220.83482538070376,202.96136187485098L190.00223807105561,174.4420428122765A126,126 0,0,0 258.6566988956238,383.7234698529186L266.60446593041587,342.48231323527904A84,84 0,0,1 220.83482538070376,202.96136187485098Z" style="pointer-events: none; stroke-width: 1; fill: rgb(190, 1, 38); fill-opacity: 1; stroke: rgb(0, 0, 0); stroke-opacity: 1; opacity: 1;"/><g class="slicetext"><text data-notex="1" class="slicetext" text-anchor="middle" x="0" y="0" style="font-family: 'Times New Roman'; font-size: 12px; fill: rgb(0, 0, 0); fill-opacity: 1; white-space: pre;" transform="translate(191.58808453003982,289.82351863410577)scale(0.9798573122311867)rotate(71.83799999999997)"><tspan class="line" dy="0em" x="0" y="0">Technology Adoption</tspan><tspan class="line" dy="1.3em" x="0" y="0">33.85</tspan></text></g></g><g class="slice cursor-pointer"><path class="surface" d="M266.60446593041587,342.48231323527904L258.6566988956238,383.7234698529186A126,126 0,0,0 400.0267934768718,305.4252442485973L360.85119565124785,290.28349616573155A84,84 0,0,1 266.60446593041587,342.48231323527904Z" style="pointer-events: none; stroke-width: 1; fill: rgb(253, 132, 57); fill-opacity: 1; stroke: rgb(0, 0, 0); stroke-opacity: 1;"/><g class="slicetext"><text data-notex="1" class="slicetext" text-anchor="middle" x="0" y="0" style="font-family: 'Times New Roman'; font-size: 12px; fill: rgb(0, 0, 0); fill-opacity: 1; white-space: pre;" transform="translate(328.79020488393974,343.57853057485823)scale(0.9671205639769463)rotate(-28.980000000000018)"><tspan class="line" dy="0em" x="0" y="0">Budgeting &amp; Planning</tspan><tspan class="line" dy="1.3em" x="0" y="0">22.16</tspan></text></g></g><g class="slice"><path class="surface" d="M360.85119565124785,290.28349616573155L400.0267934768718,305.4252442485973A126,126 0,0,0 408.5,259.99999999999983L366.5,259.9999999999999A84,84 0,0,1 360.85119565124785,290.28349616573155Z" style="pointer-events: none; stroke-width: 1; fill: rgb(255, 251, 195); fill-opacity: 1; stroke: rgb(0, 0, 0); stroke-opacity: 1; opacity: 1;"/><g class="slicetext"><text data-notex="1" class="slicetext" text-anchor="middle" x="0" y="0" style="font-family: 'Times New Roman'; font-size: 12px; fill: rgb(0, 0, 0); fill-opacity: 1; white-space: pre;" transform="translate(385.9276428244264,277.69132292782297)scale(0.41369195408094894)rotate(10.565999999999917)"><tspan class="line" dy="0em" x="0" y="0">Investment Strategy</tspan><tspan class="line" dy="1.3em" x="0" y="0">5.87</tspan></text></g></g><g class="slice"><path class="surface" d="M408.5,260L450.5,260A168,168 0,0,0 418.7244095798387,161.67955332371432L384.66830718487904,186.25966499278576A126,126 0,0,1 408.5,260Z" style="pointer-events: none; stroke-width: 1; fill: rgb(255, 233, 152); fill-opacity: 1; stroke: rgb(0, 0, 0); stroke-opacity: 1; opacity: 1;"/><g class="slicetext"><text data-notex="1" class="slicetext" text-anchor="middle" x="0" y="0" style="font-family: 'Times New Roman'; font-size: 12px; fill: rgb(0, 0, 0); fill-opacity: 1; white-space: pre;" transform="translate(428.431568397143,212.7085467587176)scale(0.7465148076914164)rotate(72.09000000000003)"><tspan class="line" dy="0em" x="0" y="0">Mergers &amp; Acquisitions</tspan><tspan class="line" dy="1.3em" x="0" y="0">9.95</tspan></text></g></g><g class="slice"><path class="surface" d="M384.66830718487904,186.25966499278576L418.7244095798387,161.67955332371432A168,168 0,0,0 340.20178460640045,102.2200771541684L325.77633845480034,141.6650578656263A126,126 0,0,1 384.66830718487904,186.25966499278576Z" style="pointer-events: none; stroke-width: 1; fill: rgb(255, 235, 157); fill-opacity: 1; stroke: rgb(0, 0, 0); stroke-opacity: 1; opacity: 1;"/><g class="slicetext"><text data-notex="1" class="slicetext" text-anchor="middle" x="0" y="0" style="font-family: 'Times New Roman'; font-size: 12px; fill: rgb(0, 0, 0); fill-opacity: 1; white-space: pre;" transform="translate(374.543618776814,138.44651476913458)scale(0.9046815354618585)rotate(37.134000000000015)"><tspan class="line" dy="0em" x="0" y="0">Market Expansion</tspan><tspan class="line" dy="1.3em" x="0" y="0">9.47</tspan></text></g></g><g class="slice cursor-pointer"><path class="surface" d="M325.7763384548003,141.6650578656263L340.2017846064004,102.2200771541684A168,168 0,0,0 159.16965076140752,145.92272374970196L190.00223807105561,174.4420428122765A126,126 0,0,1 325.7763384548003,141.6650578656263Z" style="pointer-events: none; stroke-width: 1; fill: rgb(254, 167, 71); fill-opacity: 1; stroke: rgb(0, 0, 0); stroke-opacity: 1;"/><g class="slicetext"><text data-notex="1" class="slicetext" text-anchor="middle" x="0" y="0" style="font-family: 'Times New Roman'; font-size: 12px; fill: rgb(0, 0, 0); fill-opacity: 1; white-space: pre;" transform="translate(248.06280475891518,117.34870943108159)rotate(-13.572000000000003)"><tspan class="line" dy="0em" x="0" y="0">Product Innovation</tspan><tspan class="line" dy="1.3em" x="0" y="0">18.7</tspan></text></g></g><g class="slice cursor-pointer"><path class="surface" d="M258.6566988956238,383.7234698529186L250.70893186083168,424.9646264705581A168,168 0,0,0 397.34992680211946,382.61115085320665L368.6374451015896,351.95836313990503A126,126 0,0,1 258.6566988956238,383.7234698529186Z" style="pointer-events: none; stroke-width: 1; fill: rgb(254, 201, 100); fill-opacity: 1; stroke: rgb(0, 0, 0); stroke-opacity: 1;"/><g class="slicetext"><text data-notex="1" class="slicetext" text-anchor="middle" x="0" y="0" style="font-family: 'Times New Roman'; font-size: 12px; fill: rgb(0, 0, 0); fill-opacity: 1; white-space: pre;" transform="translate(320.74823083289544,392.42735200182784)rotate(-16.110000000000127)"><tspan class="line" dy="0em" x="0" y="0">Operational Forecasting</tspan><tspan class="line" dy="1.3em" x="0" y="0">15.01</tspan></text></g></g><g class="slice"><path class="surface" d="M368.6374451015896,351.95836313990503L397.34992680211946,382.61115085320665A168,168 0,0,0 439.2023913024957,320.5669923314631L400.0267934768718,305.4252442485973A126,126 0,0,1 368.6374451015896,351.95836313990503Z" style="pointer-events: none; stroke-width: 1; fill: rgb(255, 246, 181); fill-opacity: 1; stroke: rgb(0, 0, 0); stroke-opacity: 1; opacity: 1;"/><g class="slicetext"><text data-notex="1" class="slicetext" text-anchor="middle" x="0" y="0" style="font-family: 'Times New Roman'; font-size: 12px; fill: rgb(0, 0, 0); fill-opacity: 1; white-space: pre;" transform="translate(407.7569711307739,344.49325549057426)scale(0.7177983325952123)rotate(-55.99800000000005)"><tspan class="line" dy="0em" x="0" y="0">Capital Budgeting</tspan><tspan class="line" dy="1.3em" x="0" y="0">7.15</tspan></text></g></g><g class="slice"><path class="surface" d="M340.2017846064004,102.2200771541684L354.62723075800045,62.77509644271049A210,210 0,0,0 192.2514924740749,70.38141734169872L210.3011939792599,108.30513387335898A168,168 0,0,1 340.2017846064004,102.2200771541684Z" style="pointer-events: none; stroke-width: 1; fill: rgb(254, 220, 124); fill-opacity: 1; stroke: rgb(0, 0, 0); stroke-opacity: 1; opacity: 1;"/><g class="slicetext"><text data-notex="1" class="slicetext" text-anchor="middle" x="0" y="0" style="font-family: 'Times New Roman'; font-size: 12px; fill: rgb(0, 0, 0); fill-opacity: 1; white-space: pre;" transform="translate(273.6316335397074,70.68277680028545)rotate(-2.6820000000000164)"><tspan class="line" dy="0em" x="0" y="0">Rapid Prototyping</tspan><tspan class="line" dy="1.3em" x="0" y="0">12.65</tspan></text></g></g><g class="slice"><path class="surface" d="M210.3011939792599,108.30513387335898L192.2514924740749,70.38141734169872A210,210 0,0,0 128.33706345175938,117.40340468712748L159.16965076140752,145.92272374970196A168,168 0,0,1 210.3011939792599,108.30513387335898Z" style="pointer-events: none; stroke-width: 1; fill: rgb(255, 250, 193); fill-opacity: 1; stroke: rgb(0, 0, 0); stroke-opacity: 1; opacity: 1;"/><g class="slicetext"><text data-notex="1" class="slicetext" text-anchor="middle" x="0" y="0" style="font-family: 'Times New Roman'; font-size: 12px; fill: rgb(0, 0, 0); fill-opacity: 1; white-space: pre;" transform="translate(164.60673640459143,99.75410114157168)scale(0.7023629773624014)rotate(-36.341999999999985)"><tspan class="line" dy="0em" x="0" y="0">User-Centric Design</tspan><tspan class="line" dy="1.3em" x="0" y="0">6.05</tspan></text></g></g><g class="slice"><path class="surface" d="M250.70893186083168,424.9646264705581L242.76116482603962,466.2057830881976A210,210 0,0,0 308.55814543438856,468.376997426588L303.3465163475108,426.7015979412704A168,168 0,0,1 250.70893186083168,424.9646264705581Z" style="pointer-events: none; stroke-width: 1; fill: rgb(255, 255, 204); fill-opacity: 1; stroke: rgb(0, 0, 0); stroke-opacity: 1; opacity: 1;"/><g class="slicetext"><text data-notex="1" class="slicetext" text-anchor="middle" x="0" y="0" style="font-family: 'Times New Roman'; font-size: 12px; fill: rgb(0, 0, 0); fill-opacity: 1; white-space: pre;" transform="translate(276.0584923373951,455.2049354460128)scale(0.6604565935147461)rotate(1.8899999999998727)"><tspan class="line" dy="0em" x="0" y="0">Scenario Planning</tspan><tspan class="line" dy="1.3em" x="0" y="0">5.01</tspan></text></g></g><g class="slice"><path class="surface" d="M303.3465163475108,426.7015979412704L308.55814543438856,468.376997426588A210,210 0,0,0 371.6748024595824,450.12589146745495L353.8398419676659,412.100713173964A168,168 0,0,1 303.3465163475108,426.7015979412704Z" style="pointer-events: none; stroke-width: 1; fill: rgb(255, 255, 204); fill-opacity: 1; stroke: rgb(0, 0, 0); stroke-opacity: 1; opacity: 1;"/><g class="slicetext"><text data-notex="1" class="slicetext" text-anchor="middle" x="0" y="0" style="font-family: 'Times New Roman'; font-size: 12px; fill: rgb(0, 0, 0); fill-opacity: 1; white-space: pre;" transform="translate(336.0882370273151,445.77423215600214)scale(0.7676573647863698)rotate(-16.128000000000043)"><tspan class="line" dy="0em" x="0" y="0">Sales Forecasts</tspan><tspan class="line" dy="1.3em" x="0" y="0">5</tspan></text></g></g><g class="slice"><path class="surface" d="M353.8398419676659,412.100713173964L371.6748024595824,450.12589146745495A210,210 0,0,0 426.0624085026493,413.26393856650833L397.34992680211946,382.61115085320665A168,168 0,0,1 353.8398419676659,412.100713173964Z" style="pointer-events: none; stroke-width: 1; fill: rgb(255, 255, 204); fill-opacity: 1; stroke: rgb(0, 0, 0); stroke-opacity: 1; opacity: 1;"/><g class="slicetext"><text data-notex="1" class="slicetext" text-anchor="middle" x="0" y="0" style="font-family: 'Times New Roman'; font-size: 12px; fill: rgb(0, 0, 0); fill-opacity: 1; white-space: pre;" transform="translate(391.35993423765274,420.8271728635752)scale(0.7210528687446675)rotate(-34.12800000000004)"><tspan class="line" dy="0em" x="0" y="0">Cost Projections</tspan><tspan class="line" dy="1.3em" x="0" y="0">5</tspan></text></g></g></g></g><g class="glimages"/><defs id="topdefs-2fc03d"><g class="clips"/></defs><g class="layer-above"><g class="imagelayer"/><g class="shapelayer"/></g><g class="infolayer"><g class="cb7944c4 colorbar" transform="translate(10,50)"><rect class="cbbg" x="571.5" y="63" width="48.015625" height="295" style="fill: rgb(0, 0, 0); fill-opacity: 0; stroke: rgb(68, 68, 68); stroke-opacity: 1; stroke-width: 0;"/><g class="cbfills" transform="translate(0,93)"><rect class="cbfill gradient_filled" style="fill: url('#g2fc03d-cb7944c4');" x="582" y="0" width="15" height="254"/></g><g class="cblines" transform="translate(0,93)"/><g class="cbaxis crisp" transform="translate(0,-50)"><g class="ycb7944c4tick"><text text-anchor="start" x="600.4" y="4.199999999999999" transform="translate(0,397.00000000000006)" style="font-family: 'Times New Roman'; font-size: 12px; fill: rgb(42, 63, 95); fill-opacity: 1; white-space: pre; opacity: 1;">5</text></g><g class="ycb7944c4tick"><text text-anchor="start" x="600.4" y="4.199999999999999" style="font-family: 'Times New Roman'; font-size: 12px; fill: rgb(42, 63, 95); fill-opacity: 1; white-space: pre; opacity: 1;" transform="translate(0,358.6500000000001)">10</text></g><g class="ycb7944c4tick"><text text-anchor="start" x="600.4" y="4.199999999999999" style="font-family: 'Times New Roman'; font-size: 12px; fill: rgb(42, 63, 95); fill-opacity: 1; white-space: pre; opacity: 1;" transform="translate(0,320.31000000000006)">15</text></g><g class="ycb7944c4tick"><text text-anchor="start" x="600.4" y="4.199999999999999" style="font-family: 'Times New Roman'; font-size: 12px; fill: rgb(42, 63, 95); fill-opacity: 1; white-space: pre; opacity: 1;" transform="translate(0,281.96000000000004)">20</text></g><g class="ycb7944c4tick"><text text-anchor="start" x="600.4" y="4.199999999999999" style="font-family: 'Times New Roman'; font-size: 12px; fill: rgb(42, 63, 95); fill-opacity: 1; white-space: pre; opacity: 1;" transform="translate(0,243.62000000000006)">25</text></g><g class="ycb7944c4tick"><text text-anchor="start" x="600.4" y="4.199999999999999" style="font-family: 'Times New Roman'; font-size: 12px; fill: rgb(42, 63, 95); fill-opacity: 1; white-space: pre; opacity: 1;" transform="translate(0,205.27000000000007)">30</text></g><g class="ycb7944c4tick"><text text-anchor="start" x="600.4" y="4.199999999999999" style="font-family: 'Times New Roman'; font-size: 12px; fill: rgb(42, 63, 95); fill-opacity: 1; white-space: pre; opacity: 1;" transform="translate(0,166.93000000000006)">35</text></g></g><g class="cbtitleunshift" transform="translate(-10,-50)"><g class="cbtitle" transform="translate(-0.5,-0.5)"><text class="ycb7944c4title" x="592.25" y="135.75" text-anchor="start" style="opacity: 1; font-family: 'Times New Roman'; font-size: 13px; fill: rgb(42, 63, 95); fill-opacity: 1; white-space: pre;">%</text></g></g><rect class="cboutline" x="582" y="93" width="15" height="254" style="stroke: rgb(68, 68, 68); stroke-opacity: 1; fill: none; stroke-width: 1;"/></g><g class="g-gtitle"><text class="gtitle" x="320" y="25" text-anchor="middle" dy="0em" style="opacity: 1; font-family: 'Times New Roman'; font-size: 16px; fill: rgb(42, 63, 95); fill-opacity: 1; white-space: pre;">Business Distribution by Category (2021) (%)</text></g></g></svg>