<svg class="main-svg" xmlns="http://www.w3.org/2000/svg" xmlns:xlink="http://www.w3.org/1999/xlink" width="1920" height="1440" style="" viewBox="0 0 640 480"><rect x="0" y="0" width="640" height="480" style="fill: rgb(255, 255, 255); fill-opacity: 1;"/><defs id="defs-cefc01"><g class="clips"/><g class="gradients"><linearGradient x1="0" y1="1" x2="0" y2="0" gradientUnits="objectBoundingBox" id="gcefc01-cbac6a8b"><stop offset="0%" stop-color="rgb(247, 251, 255)" stop-opacity="1"/><stop offset="12.5%" stop-color="rgb(222, 235, 247)" stop-opacity="1"/><stop offset="25%" stop-color="rgb(198, 219, 239)" stop-opacity="1"/><stop offset="37.5%" stop-color="rgb(158, 202, 225)" stop-opacity="1"/><stop offset="50%" stop-color="rgb(107, 174, 214)" stop-opacity="1"/><stop offset="62.5%" stop-color="rgb(66, 146, 198)" stop-opacity="1"/><stop offset="75%" stop-color="rgb(33, 113, 181)" stop-opacity="1"/><stop offset="87.5%" stop-color="rgb(8, 81, 156)" stop-opacity="1"/><stop offset="100%" stop-color="rgb(8, 48, 107)" stop-opacity="1"/></linearGradient></g><g class="patterns"/></defs><g class="bglayer"/><g class="layer-below"><g class="imagelayer"/><g class="shapelayer"/></g><g class="cartesianlayer"/><g class="polarlayer"/><g class="smithlayer"/><g class="ternarylayer"/><g class="geolayer"/><g class="funnelarealayer"/><g class="pielayer"/><g class="iciclelayer"/><g class="treemaplayer"/><g class="sunburstlayer"><g class="trace sunburst" stroke-linejoin="round" style="opacity: 1;"><g class="slice"><path class="surface" d="M282.5,260A0,0 0,1,0 282.5,260A0,0 0,1,0 282.5,260ZM324.5,260A42,42 0,1,1 240.5,260A42,42 0,1,1 324.5,260Z" style="pointer-events: none; stroke-width: 1; fill: rgb(255, 255, 255); fill-opacity: 1; stroke: rgb(0, 0, 0); stroke-opacity: 1;"/><g class="slicetext"><text data-notex="1" class="slicetext" text-anchor="middle" x="0" y="0" style="font-family: 'Times New Roman'; font-size: 12px; fill: rgb(0, 0, 0); fill-opacity: 1; white-space: pre;" transform="translate(282.5,264)">100</text></g></g><g class="slice cursor-pointer"><path class="surface" d="M324.5,260L366.5,260A84,84 0,0,0 225.34522715869636,198.44245016686435L253.9226135793482,229.22122508343216A42,42 0,0,1 324.5,260Z" style="pointer-events: none; stroke-width: 1; fill: rgb(8, 48, 107); fill-opacity: 1; stroke: rgb(0, 0, 0); stroke-opacity: 1;"/><g class="slicetext"><text data-notex="1" class="slicetext" text-anchor="middle" x="0" y="0" style="font-family: 'Times New Roman'; font-size: 12px; fill: rgb(0, 0, 0); fill-opacity: 1; white-space: pre;" transform="translate(305.8647045547689,205.71487744161365)scale(0.8431803965209909)rotate(23.562000000000012)"><tspan class="line" dy="0em" x="0" y="0">Financial Management</tspan><tspan class="line" dy="1.3em" x="0" y="0">36.91</tspan></text></g></g><g class="slice cursor-pointer"><path class="surface" d="M253.9226135793482,229.22122508343216L225.34522715869636,198.44245016686435A84,84 0,0,0 269.56806206838013,342.99858421282096L276.0340310341901,301.4992921064105A42,42 0,0,1 253.9226135793482,229.22122508343216Z" style="pointer-events: none; stroke-width: 1; fill: rgb(8, 59, 123); fill-opacity: 1; stroke: rgb(0, 0, 0); stroke-opacity: 1;"/><g class="slicetext"><text data-notex="1" class="slicetext" text-anchor="middle" x="0" y="0" style="font-family: 'Times New Roman'; font-size: 12px; fill: rgb(0, 0, 0); fill-opacity: 1; white-space: pre;" transform="translate(232.10498650374296,275.41692005548344)scale(0.8448793802746123)rotate(72.99000000000001)"><tspan class="line" dy="0em" x="0" y="0">Digital Transformation</tspan><tspan class="line" dy="1.3em" x="0" y="0">35.63</tspan></text></g></g><g class="slice cursor-pointer"><path class="surface" d="M276.0340310341901,301.4992921064105L269.56806206838013,342.99858421282096A84,84 0,0,0 366.5,260L324.5,260A42,42 0,0,1 276.0340310341901,301.4992921064105Z" style="pointer-events: none; stroke-width: 1; fill: rgb(46, 126, 187); fill-opacity: 1; stroke: rgb(0, 0, 0); stroke-opacity: 1;"/><g class="slicetext"><text data-notex="1" class="slicetext" text-anchor="middle" x="0" y="0" style="font-family: 'Times New Roman'; font-size: 12px; fill: rgb(0, 0, 0); fill-opacity: 1; white-space: pre;" transform="translate(317.35229013855064,300.70310423395085)scale(0.929729920353367)rotate(-40.572)"><tspan class="line" dy="0em" x="0" y="0">Corporate Strategy</tspan><tspan class="line" dy="1.3em" x="0" y="0">27.46</tspan></text></g></g><g class="slice cursor-pointer"><path class="surface" d="M366.5,260L408.5,260A126,126 0,0,0 279.72933861234435,134.03046624094003L280.65289240822955,176.02031082729334A84,84 0,0,1 366.5,260Z" style="pointer-events: none; stroke-width: 1; fill: rgb(63, 143, 196); fill-opacity: 1; stroke: rgb(0, 0, 0); stroke-opacity: 1;"/><g class="slicetext"><text data-notex="1" class="slicetext" text-anchor="middle" x="0" y="0" style="font-family: 'Times New Roman'; font-size: 12px; fill: rgb(0, 0, 0); fill-opacity: 1; white-space: pre;" transform="translate(355.0329461425559,185.85417149326892)rotate(44.370000000000005)"><tspan class="line" dy="0em" x="0" y="0">Investment Strategy</tspan><tspan class="line" dy="1.3em" x="0" y="0">25.35</tspan></text></g></g><g class="slice cursor-pointer"><path class="surface" d="M280.65289240822955,176.02031082729334L279.72933861234435,134.03046624094003A126,126 0,0,0 196.7678407380445,167.66367525029654L225.34522715869633,198.44245016686438A84,84 0,0,1 280.65289240822955,176.02031082729334Z" style="pointer-events: none; stroke-width: 1; fill: rgb(207, 225, 242); fill-opacity: 1; stroke: rgb(0, 0, 0); stroke-opacity: 1;"/><g class="slicetext"><text data-notex="1" class="slicetext" text-anchor="middle" x="0" y="0" style="font-family: 'Times New Roman'; font-size: 12px; fill: rgb(0, 0, 0); fill-opacity: 1; white-space: pre;" transform="translate(240.2232554805789,155.7178885427034)scale(0.6673563143474388)rotate(-22.067999999999984)"><tspan class="line" dy="0em" x="0" y="0">Budgeting &amp; Planning</tspan><tspan class="line" dy="1.3em" x="0" y="0">11.56</tspan></text></g></g><g class="slice"><path class="surface" d="M225.34522715869636,198.44245016686435L196.76784073804453,167.6636752502965A126,126 0,0,0 263.1020931025702,384.4978763192314L269.56806206838013,342.99858421282096A84,84 0,0,1 225.34522715869636,198.44245016686435Z" style="pointer-events: none; stroke-width: 1; fill: rgb(8, 59, 123); fill-opacity: 1; stroke: rgb(0, 0, 0); stroke-opacity: 1; opacity: 1;"/><g class="slicetext"><text data-notex="1" class="slicetext" text-anchor="middle" x="0" y="0" style="font-family: 'Times New Roman'; font-size: 12px; fill: rgb(0, 0, 0); fill-opacity: 1; white-space: pre;" transform="translate(188.66525857373688,288.70606845066334)rotate(72.99000000000001)"><tspan class="line" dy="0em" x="0" y="0">Data Strategy</tspan><tspan class="line" dy="1.3em" x="0" y="0">35.63</tspan></text></g></g><g class="slice"><path class="surface" d="M269.56806206838013,342.99858421282096L263.1020931025702,384.4978763192314A126,126 0,0,0 380.43699636968756,339.2738591345458L347.791330913125,312.84923942303055A84,84 0,0,1 269.56806206838013,342.99858421282096Z" style="pointer-events: none; stroke-width: 1; fill: rgb(162, 204, 226); fill-opacity: 1; stroke: rgb(0, 0, 0); stroke-opacity: 1; opacity: 1;"/><g class="slicetext"><text data-notex="1" class="slicetext" text-anchor="middle" x="0" y="0" style="font-family: 'Times New Roman'; font-size: 12px; fill: rgb(0, 0, 0); fill-opacity: 1; white-space: pre;" transform="translate(317.38500989130404,350.9662638209593)rotate(-21.077999999999975)"><tspan class="line" dy="0em" x="0" y="0">Growth Models</tspan><tspan class="line" dy="1.3em" x="0" y="0">16.63</tspan></text></g></g><g class="slice cursor-pointer"><path class="surface" d="M347.791330913125,312.84923942303055L380.43699636968756,339.2738591345458A126,126 0,0,0 408.5,260.00000000000006L366.5,260A84,84 0,0,1 347.791330913125,312.84923942303055Z" style="pointer-events: none; stroke-width: 1; fill: rgb(212, 228, 244); fill-opacity: 1; stroke: rgb(0, 0, 0); stroke-opacity: 1;"/><g class="slicetext"><text data-notex="1" class="slicetext" text-anchor="middle" x="0" y="0" style="font-family: 'Times New Roman'; font-size: 12px; fill: rgb(0, 0, 0); fill-opacity: 1; white-space: pre;" transform="translate(383.84817033617884,295.8773258060084)scale(0.7041842080589513)rotate(-70.50599999999997)"><tspan class="line" dy="0em" x="0" y="0">Innovation Strategy</tspan><tspan class="line" dy="1.3em" x="0" y="0">10.83</tspan></text></g></g><g class="slice cursor-pointer"><path class="surface" d="M408.5,260L450.5,260A168,168 0,0,0 340.8951766111342,102.47538811806442L326.29638245835065,141.8565410885483A126,126 0,0,1 408.5,260Z" style="pointer-events: none; stroke-width: 1; fill: rgb(129, 186, 219); fill-opacity: 1; stroke: rgb(0, 0, 0); stroke-opacity: 1;"/><g class="slicetext"><text data-notex="1" class="slicetext" text-anchor="middle" x="0" y="0" style="font-family: 'Times New Roman'; font-size: 12px; fill: rgb(0, 0, 0); fill-opacity: 1; white-space: pre;" transform="translate(403.5382352334575,175.78221182346905)rotate(55.17000000000007)"><tspan class="line" dy="0em" x="0" y="0">Asset Allocation</tspan><tspan class="line" dy="1.3em" x="0" y="0">19.35</tspan></text></g></g><g class="slice"><path class="surface" d="M326.29638245835065,141.8565410885483L340.8951766111342,102.47538811806442A168,168 0,0,0 278.8057848164591,92.04062165458669L279.72933861234435,134.03046624094003A126,126 0,0,1 326.29638245835065,141.8565410885483Z" style="pointer-events: none; stroke-width: 1; fill: rgb(242, 248, 253); fill-opacity: 1; stroke: rgb(0, 0, 0); stroke-opacity: 1; opacity: 1;"/><g class="slicetext"><text data-notex="1" class="slicetext" text-anchor="middle" x="0" y="0" style="font-family: 'Times New Roman'; font-size: 12px; fill: rgb(0, 0, 0); fill-opacity: 1; white-space: pre;" transform="translate(308.583762079116,103.55527927760131)scale(0.6117633385136364)rotate(9.539999999999964)"><tspan class="line" dy="0em" x="0" y="0">Risk Management</tspan><tspan class="line" dy="1.3em" x="0" y="0">6</tspan></text></g></g><g class="slice"><path class="surface" d="M279.72933861234435,134.03046624094003L278.8057848164591,92.04062165458669A168,168 0,0,0 213.17323146458284,106.97124726236348L230.50492359843713,145.2284354467726A126,126 0,0,1 279.72933861234435,134.03046624094003Z" style="pointer-events: none; stroke-width: 1; fill: rgb(239, 246, 252); fill-opacity: 1; stroke: rgb(0, 0, 0); stroke-opacity: 1; opacity: 1;"/><g class="slicetext"><text data-notex="1" class="slicetext" text-anchor="middle" x="0" y="0" style="font-family: 'Times New Roman'; font-size: 12px; fill: rgb(0, 0, 0); fill-opacity: 1; white-space: pre;" transform="translate(247.15603873721955,104.6338094474866)scale(0.5099284689896002)rotate(-12.816000000000031)"><tspan class="line" dy="0em" x="0" y="0">Operational Forecasting</tspan><tspan class="line" dy="1.3em" x="0" y="0">6.42</tspan></text></g></g><g class="slice"><path class="surface" d="M230.50492359843713,145.2284354467726L213.17323146458284,106.97124726236348A168,168 0,0,0 168.19045431739266,136.88490033372875L196.7678407380445,167.66367525029654A126,126 0,0,1 230.50492359843713,145.2284354467726Z" style="pointer-events: none; stroke-width: 1; fill: rgb(247, 251, 255); fill-opacity: 1; stroke: rgb(0, 0, 0); stroke-opacity: 1; opacity: 1;"/><g class="slicetext"><text data-notex="1" class="slicetext" text-anchor="middle" x="0" y="0" style="font-family: 'Times New Roman'; font-size: 12px; fill: rgb(0, 0, 0); fill-opacity: 1; white-space: pre;" transform="translate(193.88259929138252,126.74122421862188)scale(0.5366959640770692)rotate(-33.624000000000024)"><tspan class="line" dy="0em" x="0" y="0">Capital Budgeting</tspan><tspan class="line" dy="1.3em" x="0" y="0">5.14</tspan></text></g></g><g class="slice cursor-pointer"><path class="surface" d="M380.43699636968756,339.2738591345458L413.08266182625005,365.69847884606105A168,168 0,0,0 450.5,260.00000000000006L408.5,260.00000000000006A126,126 0,0,1 380.43699636968756,339.2738591345458Z" style="pointer-events: none; stroke-width: 1; fill: rgb(212, 228, 244); fill-opacity: 1; stroke: rgb(0, 0, 0); stroke-opacity: 1;"/><g class="slicetext"><text data-notex="1" class="slicetext" text-anchor="middle" x="0" y="0" style="font-family: 'Times New Roman'; font-size: 12px; fill: rgb(0, 0, 0); fill-opacity: 1; white-space: pre;" transform="translate(417.2375710703137,307.697197882952)scale(0.9733103796332568)rotate(-70.50599999999997)"><tspan class="line" dy="0em" x="0" y="0">Product Innovation</tspan><tspan class="line" dy="1.3em" x="0" y="0">10.83</tspan></text></g></g><g class="slice"><path class="surface" d="M450.5,260L492.5,260A210,210 0,0,0 463.99033331039664,154.3531405346987L427.69226664831734,175.48251242775893A168,168 0,0,1 450.5,260Z" style="pointer-events: none; stroke-width: 1; fill: rgb(227, 238, 248); fill-opacity: 1; stroke: rgb(0, 0, 0); stroke-opacity: 1; opacity: 1;"/><g class="slicetext"><text data-notex="1" class="slicetext" text-anchor="middle" x="0" y="0" style="font-family: 'Times New Roman'; font-size: 12px; fill: rgb(0, 0, 0); fill-opacity: 1; white-space: pre;" transform="translate(467.7690572746893,209.83370250053983)rotate(74.89800000000002)"><tspan class="line" dy="0em" x="0" y="0">Equities</tspan><tspan class="line" dy="1.3em" x="0" y="0">8.39</tspan></text></g></g><g class="slice"><path class="surface" d="M427.69226664831734,175.48251242775893L463.99033331039664,154.3531405346987A210,210 0,0,0 416.6638003438641,98.4448246657144L389.8310402750913,130.7558597325715A168,168 0,0,1 427.69226664831734,175.48251242775893Z" style="pointer-events: none; stroke-width: 1; fill: rgb(244, 249, 254); fill-opacity: 1; stroke: rgb(0, 0, 0); stroke-opacity: 1; opacity: 1;"/><g class="slicetext"><text data-notex="1" class="slicetext" text-anchor="middle" x="0" y="0" style="font-family: 'Times New Roman'; font-size: 12px; fill: rgb(0, 0, 0); fill-opacity: 1; white-space: pre;" transform="translate(429.1367791518411,135.6566387651357)rotate(49.75199999999995)"><tspan class="line" dy="0em" x="0" y="0">Bonds</tspan><tspan class="line" dy="1.3em" x="0" y="0">5.58</tspan></text></g></g><g class="slice"><path class="surface" d="M389.8310402750913,130.7558597325715L416.6638003438641,98.4448246657144A210,210 0,0,0 355.49397076391773,63.09423514758049L340.89517661113416,102.47538811806439A168,168 0,0,1 389.8310402750913,130.7558597325715Z" style="pointer-events: none; stroke-width: 1; fill: rgb(245, 250, 255); fill-opacity: 1; stroke: rgb(0, 0, 0); stroke-opacity: 1; opacity: 1;"/><g class="slicetext"><text data-notex="1" class="slicetext" text-anchor="middle" x="0" y="0" style="font-family: 'Times New Roman'; font-size: 12px; fill: rgb(0, 0, 0); fill-opacity: 1; white-space: pre;" transform="translate(380.2578664752722,90.84208456201101)rotate(30.024)"><tspan class="line" dy="0em" x="0" y="0">Real Estate</tspan><tspan class="line" dy="1.3em" x="0" y="0">5.38</tspan></text></g></g><g class="slice"><path class="surface" d="M413.08266182625005,365.69847884606105L445.72832728281253,392.1230985575763A210,210 0,0,0 481.6433151787657,326.6478808336078L441.81465214301255,313.3183046668862A168,168 0,0,1 413.08266182625005,365.69847884606105Z" style="pointer-events: none; stroke-width: 1; fill: rgb(244, 249, 254); fill-opacity: 1; stroke: rgb(0, 0, 0); stroke-opacity: 1; opacity: 1;"/><g class="slicetext"><text data-notex="1" class="slicetext" text-anchor="middle" x="0" y="0" style="font-family: 'Times New Roman'; font-size: 12px; fill: rgb(0, 0, 0); fill-opacity: 1; white-space: pre;" transform="translate(452.0225574534624,352.9878633577012)scale(0.7348904369460902)rotate(-61.25400000000002)"><tspan class="line" dy="0em" x="0" y="0">Rapid Prototyping</tspan><tspan class="line" dy="1.3em" x="0" y="0">5.69</tspan></text></g></g><g class="slice"><path class="surface" d="M441.81465214301255,313.3183046668862L481.6433151787657,326.6478808336078A210,210 0,0,0 492.5,260.00000000000006L450.5,260.00000000000006A168,168 0,0,1 441.81465214301255,313.3183046668862Z" style="pointer-events: none; stroke-width: 1; fill: rgb(247, 251, 255); fill-opacity: 1; stroke: rgb(0, 0, 0); stroke-opacity: 1; opacity: 1;"/><g class="slicetext"><text data-notex="1" class="slicetext" text-anchor="middle" x="0" y="0" style="font-family: 'Times New Roman'; font-size: 12px; fill: rgb(0, 0, 0); fill-opacity: 1; white-space: pre;" transform="translate(474.22925984167586,291.46796501541536)scale(0.7098875534893324)rotate(-80.74800000000005)"><tspan class="line" dy="0em" x="0" y="0">R&amp;D Investment</tspan><tspan class="line" dy="1.3em" x="0" y="0">5.14</tspan></text></g></g></g></g><g class="glimages"/><defs id="topdefs-cefc01"><g class="clips"/></defs><g class="layer-above"><g class="imagelayer"/><g class="shapelayer"/></g><g class="infolayer"><g class="cbac6a8b colorbar" transform="translate(10,50)"><rect class="cbbg" x="571.5" y="63" width="48.015625" height="295" style="fill: rgb(0, 0, 0); fill-opacity: 0; stroke: rgb(68, 68, 68); stroke-opacity: 1; stroke-width: 0;"/><g class="cbfills" transform="translate(0,93)"><rect class="cbfill gradient_filled" style="fill: url('#gcefc01-cbac6a8b');" x="582" y="0" width="15" height="254"/></g><g class="cblines" transform="translate(0,93)"/><g class="cbaxis crisp" transform="translate(0,-50)"><g class="ycbac6a8btick"><text text-anchor="start" x="600.4" y="4.199999999999999" transform="translate(0,358.14000000000004)" style="font-family: 'Times New Roman'; font-size: 12px; fill: rgb(42, 63, 95); fill-opacity: 1; white-space: pre; opacity: 1;">10</text></g><g class="ycbac6a8btick"><text text-anchor="start" x="600.4" y="4.199999999999999" style="font-family: 'Times New Roman'; font-size: 12px; fill: rgb(42, 63, 95); fill-opacity: 1; white-space: pre; opacity: 1;" transform="translate(0,318.1700000000001)">15</text></g><g class="ycbac6a8btick"><text text-anchor="start" x="600.4" y="4.199999999999999" style="font-family: 'Times New Roman'; font-size: 12px; fill: rgb(42, 63, 95); fill-opacity: 1; white-space: pre; opacity: 1;" transform="translate(0,278.19000000000005)">20</text></g><g class="ycbac6a8btick"><text text-anchor="start" x="600.4" y="4.199999999999999" style="font-family: 'Times New Roman'; font-size: 12px; fill: rgb(42, 63, 95); fill-opacity: 1; white-space: pre; opacity: 1;" transform="translate(0,238.22000000000006)">25</text></g><g class="ycbac6a8btick"><text text-anchor="start" x="600.4" y="4.199999999999999" style="font-family: 'Times New Roman'; font-size: 12px; fill: rgb(42, 63, 95); fill-opacity: 1; white-space: pre; opacity: 1;" transform="translate(0,198.25000000000006)">30</text></g><g class="ycbac6a8btick"><text text-anchor="start" x="600.4" y="4.199999999999999" style="font-family: 'Times New Roman'; font-size: 12px; fill: rgb(42, 63, 95); fill-opacity: 1; white-space: pre; opacity: 1;" transform="translate(0,158.27000000000007)">35</text></g></g><g class="cbtitleunshift" transform="translate(-10,-50)"><g class="cbtitle" transform="translate(-0.5,-0.5)"><text class="ycbac6a8btitle" x="592.25" y="135.75" text-anchor="start" style="opacity: 1; font-family: 'Times New Roman'; font-size: 13px; fill: rgb(42, 63, 95); fill-opacity: 1; white-space: pre;">%</text></g></g><rect class="cboutline" x="582" y="93" width="15" height="254" style="stroke: rgb(68, 68, 68); stroke-opacity: 1; fill: none; stroke-width: 1;"/></g><g class="g-gtitle"><text class="gtitle" x="320" y="25" text-anchor="middle" dy="0em" style="opacity: 1; font-family: 'Times New Roman'; font-size: 16px; fill: rgb(42, 63, 95); fill-opacity: 1; white-space: pre;">Business Distribution by Category (2021) (%)</text></g></g></svg>