<svg class="main-svg" xmlns="http://www.w3.org/2000/svg" xmlns:xlink="http://www.w3.org/1999/xlink" width="1920" height="1440" style="" viewBox="0 0 640 480"><rect x="0" y="0" width="640" height="480" style="fill: rgb(255, 255, 255); fill-opacity: 1;"/><defs id="defs-90df97"><g class="clips"/><g class="gradients"><linearGradient x1="0" y1="1" x2="0" y2="0" gradientUnits="objectBoundingBox" id="g90df97-cb15daac"><stop offset="0%" stop-color="rgb(255, 245, 240)" stop-opacity="1"/><stop offset="12.5%" stop-color="rgb(254, 224, 210)" stop-opacity="1"/><stop offset="25%" stop-color="rgb(252, 187, 161)" stop-opacity="1"/><stop offset="37.5%" stop-color="rgb(252, 146, 114)" stop-opacity="1"/><stop offset="50%" stop-color="rgb(251, 106, 74)" stop-opacity="1"/><stop offset="62.5%" stop-color="rgb(239, 59, 44)" stop-opacity="1"/><stop offset="75%" stop-color="rgb(203, 24, 29)" stop-opacity="1"/><stop offset="87.5%" stop-color="rgb(165, 15, 21)" stop-opacity="1"/><stop offset="100%" stop-color="rgb(103, 0, 13)" stop-opacity="1"/></linearGradient></g><g class="patterns"/></defs><g class="bglayer"/><g class="layer-below"><g class="imagelayer"/><g class="shapelayer"/></g><g class="cartesianlayer"/><g class="polarlayer"/><g class="smithlayer"/><g class="ternarylayer"/><g class="geolayer"/><g class="funnelarealayer"/><g class="pielayer"/><g class="iciclelayer"/><g class="treemaplayer"/><g class="sunburstlayer"><g class="trace sunburst" stroke-linejoin="round" style="opacity: 1;"><g class="slice"><path class="surface" d="M282.5,260A0,0 0,1,0 282.5,260A0,0 0,1,0 282.5,260ZM324.5,260A42,42 0,1,1 240.5,260A42,42 0,1,1 324.5,260Z" style="pointer-events: none; stroke-width: 1; fill: rgb(255, 255, 255); fill-opacity: 1; stroke: rgb(0, 0, 0); stroke-opacity: 1;"/><g class="slicetext"><text data-notex="1" class="slicetext" text-anchor="middle" x="0" y="0" style="font-family: 'Times New Roman'; font-size: 12px; fill: rgb(0, 0, 0); fill-opacity: 1; white-space: pre;" transform="translate(282.5,264)">100.01</text></g></g><g class="slice cursor-pointer"><path class="surface" d="M324.5,260L366.5,260A84,84 0,0,0 207.78586214981567,221.60992829775313L245.14293107490784,240.80496414887656A42,42 0,0,1 324.5,260Z" style="pointer-events: none; stroke-width: 1; fill: rgb(103, 0, 13); fill-opacity: 1; stroke: rgb(0, 0, 0); stroke-opacity: 1;"/><g class="slicetext"><text data-notex="1" class="slicetext" text-anchor="middle" x="0" y="0" style="font-family: 'Times New Roman'; font-size: 12px; fill: rgb(0, 0, 0); fill-opacity: 1; white-space: pre;" transform="translate(296.3972271448899,202.54539449895628)scale(0.8438719230685033)rotate(13.597640235976428)"><tspan class="line" dy="0em" x="0" y="0">Sports Media and Tech</tspan><tspan class="line" dy="1.3em" x="0" y="0">42.45</tspan></text></g></g><g class="slice cursor-pointer"><path class="surface" d="M245.14293107490784,240.80496414887656L207.78586214981567,221.60992829775313A84,84 0,0,0 267.81250784039844,342.70597060709486L275.1562539201992,301.3529853035474A42,42 0,0,1 245.14293107490784,240.80496414887656Z" style="pointer-events: none; stroke-width: 1; fill: rgb(230, 50, 40); fill-opacity: 1; stroke: rgb(0, 0, 0); stroke-opacity: 1;"/><g class="slicetext"><text data-notex="1" class="slicetext" text-anchor="middle" x="0" y="0" style="font-family: 'Times New Roman'; font-size: 12px; fill: rgb(0, 0, 0); fill-opacity: 1; white-space: pre;" transform="translate(234.521309581657,283.6064937256191)scale(0.9189309730996433)rotate(63.63263673632639)"><tspan class="line" dy="0em" x="0" y="0">Competitive Sports</tspan><tspan class="line" dy="1.3em" x="0" y="0">29.76</tspan></text></g></g><g class="slice cursor-pointer"><path class="surface" d="M275.1562539201992,301.3529853035474L267.81250784039844,342.70597060709486A84,84 0,0,0 366.5,260.0000000000001L324.5,260.00000000000006A42,42 0,0,1 275.1562539201992,301.3529853035474Z" style="pointer-events: none; stroke-width: 1; fill: rgb(241, 67, 49); fill-opacity: 1; stroke: rgb(0, 0, 0); stroke-opacity: 1;"/><g class="slicetext"><text data-notex="1" class="slicetext" text-anchor="middle" x="0" y="0" style="font-family: 'Times New Roman'; font-size: 12px; fill: rgb(0, 0, 0); fill-opacity: 1; white-space: pre;" transform="translate(316.5133850911012,300.81223400233904)scale(0.8861455327612916)rotate(-39.96500349965004)"><tspan class="line" dy="0em" x="0" y="0">Fitness and Wellness</tspan><tspan class="line" dy="1.3em" x="0" y="0">27.8</tspan></text></g></g><g class="slice cursor-pointer"><path class="surface" d="M366.5,260L408.5,260A126,126 0,0,0 237.76285399831235,142.20955994808543L252.67523599887488,181.47303996539029A84,84 0,0,1 366.5,260Z" style="pointer-events: none; stroke-width: 1; fill: rgb(222, 42, 37); fill-opacity: 1; stroke: rgb(0, 0, 0); stroke-opacity: 1;"/><g class="slicetext"><text data-notex="1" class="slicetext" text-anchor="middle" x="0" y="0" style="font-family: 'Times New Roman'; font-size: 12px; fill: rgb(0, 0, 0); fill-opacity: 1; white-space: pre;" transform="translate(341.6871235889583,174.20831302460476)rotate(34.601539846015385)"><tspan class="line" dy="0em" x="0" y="0">Live Broadcasting</tspan><tspan class="line" dy="1.3em" x="0" y="0">30.78</tspan></text></g></g><g class="slice cursor-pointer"><path class="surface" d="M252.67523599887488,181.47303996539029L237.76285399831235,142.20955994808543A126,126 0,0,0 170.4287932247235,202.41489244662972L207.78586214981567,221.60992829775313A84,84 0,0,1 252.67523599887488,181.47303996539029Z" style="pointer-events: none; stroke-width: 1; fill: rgb(253, 211, 192); fill-opacity: 1; stroke: rgb(0, 0, 0); stroke-opacity: 1;"/><g class="slicetext"><text data-notex="1" class="slicetext" text-anchor="middle" x="0" y="0" style="font-family: 'Times New Roman'; font-size: 12px; fill: rgb(0, 0, 0); fill-opacity: 1; white-space: pre;" transform="translate(208.2172945284778,176.92170781106455)scale(0.7810904543123858)rotate(-41.80081991800819)"><tspan class="line" dy="0em" x="0" y="0">Sports Technology</tspan><tspan class="line" dy="1.3em" x="0" y="0">11.67</tspan></text></g></g><g class="slice"><path class="surface" d="M207.78586214981567,221.60992829775313L170.4287932247235,202.41489244662972A126,126 0,0,0 260.4687617605976,384.05895591064234L267.81250784039844,342.70597060709486A84,84 0,0,1 207.78586214981567,221.60992829775313Z" style="pointer-events: none; stroke-width: 1; fill: rgb(230, 50, 40); fill-opacity: 1; stroke: rgb(0, 0, 0); stroke-opacity: 1; opacity: 1;"/><g class="slicetext"><text data-notex="1" class="slicetext" text-anchor="middle" x="0" y="0" style="font-family: 'Times New Roman'; font-size: 12px; fill: rgb(0, 0, 0); fill-opacity: 1; white-space: pre;" transform="translate(194.192889190145,303.59023908063494)rotate(63.63263673632639)"><tspan class="line" dy="0em" x="0" y="0">Team Sports</tspan><tspan class="line" dy="1.3em" x="0" y="0">29.76</tspan></text></g></g><g class="slice cursor-pointer"><path class="surface" d="M267.81250784039844,342.70597060709486L260.4687617605976,384.05895591064234A126,126 0,0,0 401.2654492883269,302.0804949512461L361.67696619221795,288.05366330083075A84,84 0,0,1 267.81250784039844,342.70597060709486Z" style="pointer-events: none; stroke-width: 1; fill: rgb(251, 119, 87); fill-opacity: 1; stroke: rgb(0, 0, 0); stroke-opacity: 1;"/><g class="slicetext"><text data-notex="1" class="slicetext" text-anchor="middle" x="0" y="0" style="font-family: 'Times New Roman'; font-size: 12px; fill: rgb(0, 0, 0); fill-opacity: 1; white-space: pre;" transform="translate(331.2147687463649,343.66683142008145)rotate(-30.20997900209977)"><tspan class="line" dy="0em" x="0" y="0">Personal Training</tspan><tspan class="line" dy="1.3em" x="0" y="0">22.38</tspan></text></g></g><g class="slice"><path class="surface" d="M361.67696619221795,288.05366330083075L401.2654492883269,302.0804949512461A126,126 0,0,0 408.5,260.00000000000017L366.5,260.0000000000001A84,84 0,0,1 361.67696619221795,288.05366330083075Z" style="pointer-events: none; stroke-width: 1; fill: rgb(255, 245, 240); fill-opacity: 1; stroke: rgb(0, 0, 0); stroke-opacity: 1; opacity: 1;"/><g class="slicetext"><text data-notex="1" class="slicetext" text-anchor="middle" x="0" y="0" style="font-family: 'Times New Roman'; font-size: 12px; fill: rgb(0, 0, 0); fill-opacity: 1; white-space: pre;" transform="translate(386.0996503124754,276.1029177477774)scale(0.44245794370313885)rotate(9.755024497550266)"><tspan class="line" dy="0em" x="0" y="0">Outdoor Activities</tspan><tspan class="line" dy="1.3em" x="0" y="0">5.42</tspan></text></g></g><g class="slice cursor-pointer"><path class="surface" d="M408.5,260L450.5,260A168,168 0,0,0 357.656250628674,109.74841767408924L338.8671879715055,147.31131325556692A126,126 0,0,1 408.5,260Z" style="pointer-events: none; stroke-width: 1; fill: rgb(252, 161, 131); fill-opacity: 1; stroke: rgb(0, 0, 0); stroke-opacity: 1;"/><g class="slicetext"><text data-notex="1" class="slicetext" text-anchor="middle" x="0" y="0" style="font-family: 'Times New Roman'; font-size: 12px; fill: rgb(0, 0, 0); fill-opacity: 1; white-space: pre;" transform="translate(407.70428533868136,182.63352499685521)rotate(58.28717128287167)"><tspan class="line" dy="0em" x="0" y="0">Online Streaming</tspan><tspan class="line" dy="1.3em" x="0" y="0">17.62</tspan></text></g></g><g class="slice cursor-pointer"><path class="surface" d="M338.8671879715055,147.31131325556692L357.656250628674,109.74841767408924A168,168 0,0,0 222.8504719977498,102.94607993078057L237.76285399831235,142.20955994808543A126,126 0,0,1 338.8671879715055,147.31131325556692Z" style="pointer-events: none; stroke-width: 1; fill: rgb(253, 199, 177); fill-opacity: 1; stroke: rgb(0, 0, 0); stroke-opacity: 1;"/><g class="slicetext"><text data-notex="1" class="slicetext" text-anchor="middle" x="0" y="0" style="font-family: 'Times New Roman'; font-size: 12px; fill: rgb(0, 0, 0); fill-opacity: 1; white-space: pre;" transform="translate(289.8768548156155,113.80869124816012)rotate(2.888711128887053)"><tspan class="line" dy="0em" x="0" y="0">Television Coverage</tspan><tspan class="line" dy="1.3em" x="0" y="0">13.16</tspan></text></g></g><g class="slice"><path class="surface" d="M237.76285399831235,142.20955994808543L222.8504719977498,102.94607993078057A168,168 0,0,0 133.07172429963137,183.2198565955063L170.4287932247235,202.41489244662972A126,126 0,0,1 237.76285399831235,142.20955994808543Z" style="pointer-events: none; stroke-width: 1; fill: rgb(253, 211, 192); fill-opacity: 1; stroke: rgb(0, 0, 0); stroke-opacity: 1; opacity: 1;"/><g class="slicetext"><text data-notex="1" class="slicetext" text-anchor="middle" x="0" y="0" style="font-family: 'Times New Roman'; font-size: 12px; fill: rgb(0, 0, 0); fill-opacity: 1; white-space: pre;" transform="translate(183.91384401029734,149.98669981392223)rotate(-41.80081991800819)"><tspan class="line" dy="0em" x="0" y="0">Analytics Tools</tspan><tspan class="line" dy="1.3em" x="0" y="0">11.67</tspan></text></g></g><g class="slice"><path class="surface" d="M260.4687617605976,384.05895591064234L253.12501568079682,425.41194121418977A168,168 0,0,0 378.854837117573,397.621747424039L354.7661278381798,363.2163105680292A126,126 0,0,1 260.4687617605976,384.05895591064234Z" style="pointer-events: none; stroke-width: 1; fill: rgb(253, 204, 183); fill-opacity: 1; stroke: rgb(0, 0, 0); stroke-opacity: 1; opacity: 1;"/><g class="slicetext"><text data-notex="1" class="slicetext" text-anchor="middle" x="0" y="0" style="font-family: 'Times New Roman'; font-size: 12px; fill: rgb(0, 0, 0); fill-opacity: 1; white-space: pre;" transform="translate(312.60671686912383,396.9705293121987)rotate(-12.463753624637548)"><tspan class="line" dy="0em" x="0" y="0">Gym Workouts</tspan><tspan class="line" dy="1.3em" x="0" y="0">12.52</tspan></text></g></g><g class="slice"><path class="surface" d="M354.7661278381798,363.2163105680292L378.854837117573,397.621747424039A168,168 0,0,0 440.8539323844359,316.1073266016615L401.2654492883269,302.0804949512461A126,126 0,0,1 354.7661278381798,363.2163105680292Z" style="pointer-events: none; stroke-width: 1; fill: rgb(254, 225, 211); fill-opacity: 1; stroke: rgb(0, 0, 0); stroke-opacity: 1; opacity: 1;"/><g class="slicetext"><text data-notex="1" class="slicetext" text-anchor="middle" x="0" y="0" style="font-family: 'Times New Roman'; font-size: 12px; fill: rgb(0, 0, 0); fill-opacity: 1; white-space: pre;" transform="translate(398.9563599530076,348.5756027254566)scale(0.8366796368409536)rotate(-52.74372562743724)"><tspan class="line" dy="0em" x="0" y="0">Yoga and Meditation</tspan><tspan class="line" dy="1.3em" x="0" y="0">9.86</tspan></text></g></g><g class="slice"><path class="surface" d="M450.5,260L492.5,260A210,210 0,0,0 475.28423125593514,176.72791476696335L436.7273850047481,193.38233181357066A168,168 0,0,1 450.5,260Z" style="pointer-events: none; stroke-width: 1; fill: rgb(255, 240, 233); fill-opacity: 1; stroke: rgb(0, 0, 0); stroke-opacity: 1; opacity: 1;"/><g class="slicetext"><text data-notex="1" class="slicetext" text-anchor="middle" x="0" y="0" style="font-family: 'Times New Roman'; font-size: 12px; fill: rgb(0, 0, 0); fill-opacity: 1; white-space: pre;" transform="translate(474.6098313573299,220.12096957985915)scale(0.9231293727434943)rotate(78.3191680831917)"><tspan class="line" dy="0em" x="0" y="0">YouTube Sports</tspan><tspan class="line" dy="1.3em" x="0" y="0">6.49</tspan></text></g></g><g class="slice"><path class="surface" d="M436.7273850047481,193.38233181357066L475.28423125593514,176.72791476696335A210,210 0,0,0 433.31776934136917,113.86991941802822L403.15421547309535,143.09593553442258A168,168 0,0,1 436.7273850047481,193.38233181357066Z" style="pointer-events: none; stroke-width: 1; fill: rgb(255, 243, 237); fill-opacity: 1; stroke: rgb(0, 0, 0); stroke-opacity: 1; opacity: 1;"/><g class="slicetext"><text data-notex="1" class="slicetext" text-anchor="middle" x="0" y="0" style="font-family: 'Times New Roman'; font-size: 12px; fill: rgb(0, 0, 0); fill-opacity: 1; white-space: pre;" transform="translate(447.39678393588434,149.90844260201277)scale(0.792439236100302)rotate(56.27137286271375)"><tspan class="line" dy="0em" x="0" y="0">Twitch Coverage</tspan><tspan class="line" dy="1.3em" x="0" y="0">5.76</tspan></text></g></g><g class="slice"><path class="surface" d="M403.15421547309535,143.09593553442258L433.31776934136917,113.86991941802822A210,210 0,0,0 376.4453132858425,72.18552209261154L357.656250628674,109.74841767408924A168,168 0,0,1 403.15421547309535,143.09593553442258Z" style="pointer-events: none; stroke-width: 1; fill: rgb(255, 245, 240); fill-opacity: 1; stroke: rgb(0, 0, 0); stroke-opacity: 1; opacity: 1;"/><g class="slicetext"><text data-notex="1" class="slicetext" text-anchor="middle" x="0" y="0" style="font-family: 'Times New Roman'; font-size: 12px; fill: rgb(0, 0, 0); fill-opacity: 1; white-space: pre;" transform="translate(399.60654943015527,99.99605125047779)scale(0.8238814049344687)rotate(36.23937606239372)"><tspan class="line" dy="0em" x="0" y="0">OTT Platforms</tspan><tspan class="line" dy="1.3em" x="0" y="0">5.37</tspan></text></g></g><g class="slice"><path class="surface" d="M357.656250628674,109.74841767408924L376.4453132858425,72.18552209261154A210,210 0,0,0 278.97093970424123,50.02965510951577L279.676751763393,92.0237240876126A168,168 0,0,1 357.656250628674,109.74841767408924Z" style="pointer-events: none; stroke-width: 1; fill: rgb(255, 235, 225); fill-opacity: 1; stroke: rgb(0, 0, 0); stroke-opacity: 1; opacity: 1;"/><g class="slicetext"><text data-notex="1" class="slicetext" text-anchor="middle" x="0" y="0" style="font-family: 'Times New Roman'; font-size: 12px; fill: rgb(0, 0, 0); fill-opacity: 1; white-space: pre;" transform="translate(325.7033504601108,69.92756790159832)scale(0.9272883690387005)rotate(12.80571942805716)"><tspan class="line" dy="0em" x="0" y="0">Olympic Coverage</tspan><tspan class="line" dy="1.3em" x="0" y="0">7.65</tspan></text></g></g><g class="slice"><path class="surface" d="M279.676751763393,92.0237240876126L278.97093970424123,50.02965510951577A210,210 0,0,0 207.93808999718723,63.68259991347571L222.8504719977498,102.94607993078057A168,168 0,0,1 279.676751763393,92.0237240876126Z" style="pointer-events: none; stroke-width: 1; fill: rgb(255, 244, 239); fill-opacity: 1; stroke: rgb(0, 0, 0); stroke-opacity: 1; opacity: 1;"/><g class="slicetext"><text data-notex="1" class="slicetext" text-anchor="middle" x="0" y="0" style="font-family: 'Times New Roman'; font-size: 12px; fill: rgb(0, 0, 0); fill-opacity: 1; white-space: pre;" transform="translate(245.15921701290117,64.41842961033706)scale(0.7342639581163006)rotate(-10.879912008799124)"><tspan class="line" dy="0em" x="0" y="0">National Leagues</tspan><tspan class="line" dy="1.3em" x="0" y="0">5.51</tspan></text></g></g></g></g><g class="glimages"/><defs id="topdefs-90df97"><g class="clips"/></defs><g class="layer-above"><g class="imagelayer"/><g class="shapelayer"/></g><g class="infolayer"><g class="cb15daac colorbar" transform="translate(10,50)"><rect class="cbbg" x="571.5" y="63" width="48.015625" height="295" style="fill: rgb(0, 0, 0); fill-opacity: 0; stroke: rgb(68, 68, 68); stroke-opacity: 1; stroke-width: 0;"/><g class="cbfills" transform="translate(0,93)"><rect class="cbfill gradient_filled" style="fill: url('#g90df97-cb15daac');" x="582" y="0" width="15" height="254"/></g><g class="cblines" transform="translate(0,93)"/><g class="cbaxis crisp" transform="translate(0,-50)"><g class="ycb15daactick"><text text-anchor="start" x="600.4" y="4.199999999999999" transform="translate(0,365.2800000000001)" style="font-family: 'Times New Roman'; font-size: 12px; fill: rgb(42, 63, 95); fill-opacity: 1; white-space: pre; opacity: 1;">10</text></g><g class="ycb15daactick"><text text-anchor="start" x="600.4" y="4.199999999999999" style="font-family: 'Times New Roman'; font-size: 12px; fill: rgb(42, 63, 95); fill-opacity: 1; white-space: pre; opacity: 1;" transform="translate(0,296.7800000000001)">20</text></g><g class="ycb15daactick"><text text-anchor="start" x="600.4" y="4.199999999999999" style="font-family: 'Times New Roman'; font-size: 12px; fill: rgb(42, 63, 95); fill-opacity: 1; white-space: pre; opacity: 1;" transform="translate(0,228.28000000000006)">30</text></g><g class="ycb15daactick"><text text-anchor="start" x="600.4" y="4.199999999999999" style="font-family: 'Times New Roman'; font-size: 12px; fill: rgb(42, 63, 95); fill-opacity: 1; white-space: pre; opacity: 1;" transform="translate(0,159.78000000000006)">40</text></g></g><g class="cbtitleunshift" transform="translate(-10,-50)"><g class="cbtitle" transform="translate(-0.5,-0.5)"><text class="ycb15daactitle" x="592.25" y="135.75" text-anchor="start" style="opacity: 1; font-family: 'Times New Roman'; font-size: 13px; fill: rgb(42, 63, 95); fill-opacity: 1; white-space: pre;">%</text></g></g><rect class="cboutline" x="582" y="93" width="15" height="254" style="stroke: rgb(68, 68, 68); stroke-opacity: 1; fill: none; stroke-width: 1;"/></g><g class="g-gtitle"><text class="gtitle" x="320" y="25" text-anchor="middle" dy="0em" style="opacity: 1; font-family: 'Times New Roman'; font-size: 16px; fill: rgb(42, 63, 95); fill-opacity: 1; white-space: pre;">Sports Distribution by Category (2024) (%)</text></g></g></svg>