<svg class="main-svg" xmlns="http://www.w3.org/2000/svg" xmlns:xlink="http://www.w3.org/1999/xlink" width="1920" height="1440" style="" viewBox="0 0 640 480"><rect x="0" y="0" width="640" height="480" style="fill: rgb(255, 255, 255); fill-opacity: 1;"/><defs id="defs-d13fff"><g class="clips"/><g class="gradients"><linearGradient x1="0" y1="1" x2="0" y2="0" gradientUnits="objectBoundingBox" id="gd13fff-cb0d2367"><stop offset="0%" stop-color="rgb(247, 251, 255)" stop-opacity="1"/><stop offset="12.5%" stop-color="rgb(222, 235, 247)" stop-opacity="1"/><stop offset="25%" stop-color="rgb(198, 219, 239)" stop-opacity="1"/><stop offset="37.5%" stop-color="rgb(158, 202, 225)" stop-opacity="1"/><stop offset="50%" stop-color="rgb(107, 174, 214)" stop-opacity="1"/><stop offset="62.5%" stop-color="rgb(66, 146, 198)" stop-opacity="1"/><stop offset="75%" stop-color="rgb(33, 113, 181)" stop-opacity="1"/><stop offset="87.5%" stop-color="rgb(8, 81, 156)" stop-opacity="1"/><stop offset="100%" stop-color="rgb(8, 48, 107)" stop-opacity="1"/></linearGradient></g><g class="patterns"/></defs><g class="bglayer"/><g class="layer-below"><g class="imagelayer"/><g class="shapelayer"/></g><g class="cartesianlayer"/><g class="polarlayer"/><g class="smithlayer"/><g class="ternarylayer"/><g class="geolayer"/><g class="funnelarealayer"/><g class="pielayer"/><g class="iciclelayer"/><g class="treemaplayer"/><g class="sunburstlayer"><g class="trace sunburst" stroke-linejoin="round" style="opacity: 1;"><g class="slice"><path class="surface" d="M282.5,260A0,0 0,1,0 282.5,260A0,0 0,1,0 282.5,260ZM324.5,260A42,42 0,1,1 240.5,260A42,42 0,1,1 324.5,260Z" style="pointer-events: none; stroke-width: 1; fill: rgb(255, 255, 255); fill-opacity: 1; stroke: rgb(0, 0, 0); stroke-opacity: 1;"/><g class="slicetext"><text data-notex="1" class="slicetext" text-anchor="middle" x="0" y="0" style="font-family: 'Times New Roman'; font-size: 12px; fill: rgb(0, 0, 0); fill-opacity: 1; white-space: pre;" transform="translate(282.5,264)">100</text></g></g><g class="slice cursor-pointer"><path class="surface" d="M324.5,260L366.5,260A84,84 0,0,0 205.76933892577696,225.8180507999805L244.1346694628885,242.90902539999024A42,42 0,0,1 324.5,260Z" style="pointer-events: none; stroke-width: 1; fill: rgb(8, 48, 107); fill-opacity: 1; stroke: rgb(0, 0, 0); stroke-opacity: 1;"/><g class="slicetext"><text data-notex="1" class="slicetext" text-anchor="middle" x="0" y="0" style="font-family: 'Times New Roman'; font-size: 12px; fill: rgb(0, 0, 0); fill-opacity: 1; white-space: pre;" transform="translate(294.8650309035177,201.14644140989535)scale(0.9009690408601857)rotate(12.005999999999972)"><tspan class="line" dy="0em" x="0" y="0">Hospitality Services</tspan><tspan class="line" dy="1.3em" x="0" y="0">43.33</tspan></text></g></g><g class="slice cursor-pointer"><path class="surface" d="M244.1346694628885,242.90902539999024L205.76933892577696,225.8180507999805A84,84 0,0,0 278.64850156803715,343.9116556851823L280.5742507840186,301.95582784259113A42,42 0,0,1 244.1346694628885,242.90902539999024Z" style="pointer-events: none; stroke-width: 1; fill: rgb(55, 135, 192); fill-opacity: 1; stroke: rgb(0, 0, 0); stroke-opacity: 1;"/><g class="slicetext"><text data-notex="1" class="slicetext" text-anchor="middle" x="0" y="0" style="font-family: 'Times New Roman'; font-size: 12px; fill: rgb(0, 0, 0); fill-opacity: 1; white-space: pre;" transform="translate(236.0650882784243,288.4636100454853)rotate(58.32000000000005)"><tspan class="line" dy="0em" x="0" y="0">Travel Services</tspan><tspan class="line" dy="1.3em" x="0" y="0">30.94</tspan></text></g></g><g class="slice cursor-pointer"><path class="surface" d="M280.5742507840186,301.95582784259113L278.64850156803715,343.9116556851823A84,84 0,0,0 366.5,260L324.5,260A42,42 0,0,1 280.5742507840186,301.95582784259113Z" style="pointer-events: none; stroke-width: 1; fill: rgb(98, 168, 211); fill-opacity: 1; stroke: rgb(0, 0, 0); stroke-opacity: 1;"/><g class="slicetext"><text data-notex="1" class="slicetext" text-anchor="middle" x="0" y="0" style="font-family: 'Times New Roman'; font-size: 12px; fill: rgb(0, 0, 0); fill-opacity: 1; white-space: pre;" transform="translate(319.6711171230578,299.15104637304427)scale(0.943020423350746)rotate(-43.68599999999992)"><tspan class="line" dy="0em" x="0" y="0">Destination Types</tspan><tspan class="line" dy="1.3em" x="0" y="0">25.73</tspan></text></g></g><g class="slice cursor-pointer"><path class="surface" d="M366.5,260L408.5,260A126,126 0,0,0 167.40400838866543,208.72707619997075L205.76933892577696,225.8180507999805A84,84 0,0,1 366.5,260Z" style="pointer-events: none; stroke-width: 1; fill: rgb(8, 48, 107); fill-opacity: 1; stroke: rgb(0, 0, 0); stroke-opacity: 1;"/><g class="slicetext"><text data-notex="1" class="slicetext" text-anchor="middle" x="0" y="0" style="font-family: 'Times New Roman'; font-size: 12px; fill: rgb(0, 0, 0); fill-opacity: 1; white-space: pre;" transform="translate(304.1053987374202,157.61819624874778)rotate(12.005999999999972)"><tspan class="line" dy="0em" x="0" y="0">Lodging Options</tspan><tspan class="line" dy="1.3em" x="0" y="0">43.33</tspan></text></g></g><g class="slice cursor-pointer"><path class="surface" d="M205.76933892577696,225.8180507999805L167.40400838866543,208.72707619997075A126,126 0,0,0 226.78345929497635,373.0118006752633L245.35563952998422,335.3412004501755A84,84 0,0,1 205.76933892577696,225.8180507999805Z" style="pointer-events: none; stroke-width: 1; fill: rgb(111, 176, 215); fill-opacity: 1; stroke: rgb(0, 0, 0); stroke-opacity: 1;"/><g class="slicetext"><text data-notex="1" class="slicetext" text-anchor="middle" x="0" y="0" style="font-family: 'Times New Roman'; font-size: 12px; fill: rgb(0, 0, 0); fill-opacity: 1; white-space: pre;" transform="translate(190.17085284474024,293.1972103093758)rotate(70.12800000000004)"><tspan class="line" dy="0em" x="0" y="0">Guided Tours</tspan><tspan class="line" dy="1.3em" x="0" y="0">24.38</tspan></text></g></g><g class="slice"><path class="surface" d="M245.35563952998422,335.3412004501755L226.78345929497635,373.0118006752633A126,126 0,0,0 276.72275235205575,385.86748352777346L278.64850156803715,343.9116556851823A84,84 0,0,1 245.35563952998422,335.3412004501755Z" style="pointer-events: none; stroke-width: 1; fill: rgb(245, 250, 254); fill-opacity: 1; stroke: rgb(0, 0, 0); stroke-opacity: 1; opacity: 1;"/><g class="slicetext"><text data-notex="1" class="slicetext" text-anchor="middle" x="0" y="0" style="font-family: 'Times New Roman'; font-size: 12px; fill: rgb(0, 0, 0); fill-opacity: 1; white-space: pre;" transform="translate(254.45243815733986,368.9537931564382)scale(0.5979081341574839)rotate(14.436000000000035)"><tspan class="line" dy="0em" x="0" y="0">Transportation</tspan><tspan class="line" dy="1.3em" x="0" y="0">6.56</tspan></text></g></g><g class="slice cursor-pointer"><path class="surface" d="M278.64850156803715,343.9116556851823L276.72275235205575,385.86748352777346A126,126 0,0,0 384.991644879886,333.29026354035943L350.82776325325733,308.86017569357296A84,84 0,0,1 278.64850156803715,343.9116556851823Z" style="pointer-events: none; stroke-width: 1; fill: rgb(195, 218, 238); fill-opacity: 1; stroke: rgb(0, 0, 0); stroke-opacity: 1;"/><g class="slicetext"><text data-notex="1" class="slicetext" text-anchor="middle" x="0" y="0" style="font-family: 'Times New Roman'; font-size: 12px; fill: rgb(0, 0, 0); fill-opacity: 1; white-space: pre;" transform="translate(324.8376003269663,347.9342462158291)rotate(-25.902000000000044)"><tspan class="line" dy="0em" x="0" y="0">Urban Tourism</tspan><tspan class="line" dy="1.3em" x="0" y="0">15.85</tspan></text></g></g><g class="slice"><path class="surface" d="M350.82776325325733,308.86017569357296L384.991644879886,333.29026354035943A126,126 0,0,0 408.5,260.00000000000006L366.5,260A84,84 0,0,1 350.82776325325733,308.86017569357296Z" style="pointer-events: none; stroke-width: 1; fill: rgb(227, 238, 249); fill-opacity: 1; stroke: rgb(0, 0, 0); stroke-opacity: 1; opacity: 1;"/><g class="slicetext"><text data-notex="1" class="slicetext" text-anchor="middle" x="0" y="0" style="font-family: 'Times New Roman'; font-size: 12px; fill: rgb(0, 0, 0); fill-opacity: 1; white-space: pre;" transform="translate(384.51519620995407,292.5820540700186)scale(0.7757350911278902)rotate(-72.21600000000001)"><tspan class="line" dy="0em" x="0" y="0">Nature Tourism</tspan><tspan class="line" dy="1.3em" x="0" y="0">9.88</tspan></text></g></g><g class="slice cursor-pointer"><path class="surface" d="M408.5,260L450.5,260A168,168 0,0,0 129.03867785155393,191.63610159996102L167.40400838866543,208.72707619997075A126,126 0,0,1 408.5,260Z" style="pointer-events: none; stroke-width: 1; fill: rgb(8, 48, 107); fill-opacity: 1; stroke: rgb(0, 0, 0); stroke-opacity: 1;"/><g class="slicetext"><text data-notex="1" class="slicetext" text-anchor="middle" x="0" y="0" style="font-family: 'Times New Roman'; font-size: 12px; fill: rgb(0, 0, 0); fill-opacity: 1; white-space: pre;" transform="translate(313.1483681257633,115.09626634483494)rotate(12.005999999999972)"><tspan class="line" dy="0em" x="0" y="0">Budget Hotels</tspan><tspan class="line" dy="1.3em" x="0" y="0">43.33</tspan></text></g></g><g class="slice"><path class="surface" d="M167.40400838866543,208.72707619997075L129.03867785155393,191.63610159996102A168,168 0,0,0 135.7405036427745,341.7658255567295L172.4303777320809,321.3243691675471A126,126 0,0,1 167.40400838866543,208.72707619997075Z" style="pointer-events: none; stroke-width: 1; fill: rgb(202, 221, 240); fill-opacity: 1; stroke: rgb(0, 0, 0); stroke-opacity: 1; opacity: 1;"/><g class="slicetext"><text data-notex="1" class="slicetext" text-anchor="middle" x="0" y="0" style="font-family: 'Times New Roman'; font-size: 12px; fill: rgb(0, 0, 0); fill-opacity: 1; white-space: pre;" transform="translate(142.83371962971012,266.0705093497215)rotate(87.44399999999996)"><tspan class="line" dy="0em" x="0" y="0">Adventure Tours</tspan><tspan class="line" dy="1.3em" x="0" y="0">14.76</tspan></text></g></g><g class="slice"><path class="surface" d="M172.4303777320809,321.3243691675471L135.7405036427745,341.7658255567295A168,168 0,0,0 208.21127905996846,410.68240090035107L226.78345929497635,373.0118006752633A126,126 0,0,1 172.4303777320809,321.3243691675471Z" style="pointer-events: none; stroke-width: 1; fill: rgb(228, 239, 249); fill-opacity: 1; stroke: rgb(0, 0, 0); stroke-opacity: 1; opacity: 1;"/><g class="slicetext"><text data-notex="1" class="slicetext" text-anchor="middle" x="0" y="0" style="font-family: 'Times New Roman'; font-size: 12px; fill: rgb(0, 0, 0); fill-opacity: 1; white-space: pre;" transform="translate(184.2938853009202,363.03277202694886)rotate(43.56000000000006)"><tspan class="line" dy="0em" x="0" y="0">Cultural Tours</tspan><tspan class="line" dy="1.3em" x="0" y="0">9.62</tspan></text></g></g><g class="slice"><path class="surface" d="M276.72275235205575,385.86748352777346L274.7970031360743,427.82331137036465A168,168 0,0,0 368.2006058508697,404.4970800978133L346.7754543881523,368.37281007336A126,126 0,0,1 276.72275235205575,385.86748352777346Z" style="pointer-events: none; stroke-width: 1; fill: rgb(230, 240, 250); fill-opacity: 1; stroke: rgb(0, 0, 0); stroke-opacity: 1; opacity: 1;"/><g class="slicetext"><text data-notex="1" class="slicetext" text-anchor="middle" x="0" y="0" style="font-family: 'Times New Roman'; font-size: 12px; fill: rgb(0, 0, 0); fill-opacity: 1; white-space: pre;" transform="translate(317.3371261805025,400.19388461233746)scale(0.9839901940270291)rotate(-14.022000000000048)"><tspan class="line" dy="0em" x="0" y="0">City Landmarks</tspan><tspan class="line" dy="1.3em" x="0" y="0">9.25</tspan></text></g></g><g class="slice"><path class="surface" d="M346.7754543881523,368.37281007336L368.2006058508697,404.4970800978133A168,168 0,0,0 419.15552650651466,357.7203513871459L384.991644879886,333.29026354035943A126,126 0,0,1 346.7754543881523,368.37281007336Z" style="pointer-events: none; stroke-width: 1; fill: rgb(245, 249, 254); fill-opacity: 1; stroke: rgb(0, 0, 0); stroke-opacity: 1; opacity: 1;"/><g class="slicetext"><text data-notex="1" class="slicetext" text-anchor="middle" x="0" y="0" style="font-family: 'Times New Roman'; font-size: 12px; fill: rgb(0, 0, 0); fill-opacity: 1; white-space: pre;" transform="translate(385.68633608422186,372.56184877500556)scale(0.654157566784433)rotate(-42.55200000000002)"><tspan class="line" dy="0em" x="0" y="0">Shopping Districts</tspan><tspan class="line" dy="1.3em" x="0" y="0">6.6</tspan></text></g></g><g class="slice"><path class="surface" d="M450.5,260L492.5,260A210,210 0,0,0 360.66417339410646,65.08883562603177L345.0313387152852,104.07106850082542A168,168 0,0,1 450.5,260Z" style="pointer-events: none; stroke-width: 1; fill: rgb(168, 206, 229); fill-opacity: 1; stroke: rgb(0, 0, 0); stroke-opacity: 1; opacity: 1;"/><g class="slicetext"><text data-notex="1" class="slicetext" text-anchor="middle" x="0" y="0" style="font-family: 'Times New Roman'; font-size: 12px; fill: rgb(0, 0, 0); fill-opacity: 1; white-space: pre;" transform="translate(439.63427983833697,153.7160539923607)rotate(55.92599999999993)"><tspan class="line" dy="0em" x="0" y="0">Express Check-in</tspan><tspan class="line" dy="1.3em" x="0" y="0">18.93</tspan></text></g></g><g class="slice"><path class="surface" d="M345.0313387152852,104.07106850082542L360.66417339410646,65.08883562603177A210,210 0,0,0 137.02300581690974,108.5521734607818L166.1184046535278,138.84173876862545A168,168 0,0,1 345.0313387152852,104.07106850082542Z" style="pointer-events: none; stroke-width: 1; fill: rgb(174, 209, 231); fill-opacity: 1; stroke: rgb(0, 0, 0); stroke-opacity: 1; opacity: 1;"/><g class="slicetext"><text data-notex="1" class="slicetext" text-anchor="middle" x="0" y="0" style="font-family: 'Times New Roman'; font-size: 12px; fill: rgb(0, 0, 0); fill-opacity: 1; white-space: pre;" transform="translate(246.00300736508817,73.06423209640582)rotate(-10.998000000000047)"><tspan class="line" dy="0em" x="0" y="0">Shared Rooms</tspan><tspan class="line" dy="1.3em" x="0" y="0">18.25</tspan></text></g></g><g class="slice"><path class="surface" d="M166.1184046535278,138.84173876862545L137.02300581690974,108.5521734607818A210,210 0,0,0 90.6733473144424,174.54512699995126L129.03867785155393,191.63610159996102A168,168 0,0,1 166.1184046535278,138.84173876862545Z" style="pointer-events: none; stroke-width: 1; fill: rgb(247, 251, 255); fill-opacity: 1; stroke: rgb(0, 0, 0); stroke-opacity: 1; opacity: 1;"/><g class="slicetext"><text data-notex="1" class="slicetext" text-anchor="middle" x="0" y="0" style="font-family: 'Times New Roman'; font-size: 12px; fill: rgb(0, 0, 0); fill-opacity: 1; white-space: pre;" transform="translate(121.09713449571319,146.81343841795834)scale(0.8655867274316384)rotate(-54.918000000000006)"><tspan class="line" dy="0em" x="0" y="0">Basic Amenities</tspan><tspan class="line" dy="1.3em" x="0" y="0">6.15</tspan></text></g></g></g></g><g class="glimages"/><defs id="topdefs-d13fff"><g class="clips"/></defs><g class="layer-above"><g class="imagelayer"/><g class="shapelayer"/></g><g class="infolayer"><g class="cb0d2367 colorbar" transform="translate(10,50)"><rect class="cbbg" x="571.5" y="63" width="48.015625" height="295" style="fill: rgb(0, 0, 0); fill-opacity: 0; stroke: rgb(68, 68, 68); stroke-opacity: 1; stroke-width: 0;"/><g class="cbfills" transform="translate(0,93)"><rect class="cbfill gradient_filled" style="fill: url('#gd13fff-cb0d2367');" x="582" y="0" width="15" height="254"/></g><g class="cblines" transform="translate(0,93)"/><g class="cbaxis crisp" transform="translate(0,-50)"><g class="ycb0d2367tick"><text text-anchor="start" x="600.4" y="4.199999999999999" transform="translate(0,370.70000000000005)" style="font-family: 'Times New Roman'; font-size: 12px; fill: rgb(42, 63, 95); fill-opacity: 1; white-space: pre; opacity: 1;">10</text></g><g class="ycb0d2367tick"><text text-anchor="start" x="600.4" y="4.199999999999999" style="font-family: 'Times New Roman'; font-size: 12px; fill: rgb(42, 63, 95); fill-opacity: 1; white-space: pre; opacity: 1;" transform="translate(0,302.38000000000005)">20</text></g><g class="ycb0d2367tick"><text text-anchor="start" x="600.4" y="4.199999999999999" style="font-family: 'Times New Roman'; font-size: 12px; fill: rgb(42, 63, 95); fill-opacity: 1; white-space: pre; opacity: 1;" transform="translate(0,234.07000000000005)">30</text></g><g class="ycb0d2367tick"><text text-anchor="start" x="600.4" y="4.199999999999999" style="font-family: 'Times New Roman'; font-size: 12px; fill: rgb(42, 63, 95); fill-opacity: 1; white-space: pre; opacity: 1;" transform="translate(0,165.75000000000006)">40</text></g></g><g class="cbtitleunshift" transform="translate(-10,-50)"><g class="cbtitle" transform="translate(-0.5,-0.5)"><text class="ycb0d2367title" x="592.25" y="135.75" text-anchor="start" style="opacity: 1; font-family: 'Times New Roman'; font-size: 13px; fill: rgb(42, 63, 95); fill-opacity: 1; white-space: pre;">%</text></g></g><rect class="cboutline" x="582" y="93" width="15" height="254" style="stroke: rgb(68, 68, 68); stroke-opacity: 1; fill: none; stroke-width: 1;"/></g><g class="g-gtitle"><text class="gtitle" x="320" y="25" text-anchor="middle" dy="0em" style="opacity: 1; font-family: 'Times New Roman'; font-size: 16px; fill: rgb(42, 63, 95); fill-opacity: 1; white-space: pre;">Tourism Distribution by Category (2022) (%)</text></g></g></svg>