<svg class="main-svg" xmlns="http://www.w3.org/2000/svg" xmlns:xlink="http://www.w3.org/1999/xlink" width="1920" height="1440" style="" viewBox="0 0 640 480"><rect x="0" y="0" width="640" height="480" style="fill: rgb(255, 255, 255); fill-opacity: 1;"/><defs id="defs-e6b7cc"><g class="clips"/><g class="gradients"><linearGradient x1="0" y1="1" x2="0" y2="0" gradientUnits="objectBoundingBox" id="ge6b7cc-cbc48b26"><stop offset="0%" stop-color="rgb(255, 255, 204)" stop-opacity="1"/><stop offset="12.5%" stop-color="rgb(255, 237, 160)" stop-opacity="1"/><stop offset="25%" stop-color="rgb(254, 217, 118)" stop-opacity="1"/><stop offset="37.5%" stop-color="rgb(254, 178, 76)" stop-opacity="1"/><stop offset="50%" stop-color="rgb(253, 141, 60)" stop-opacity="1"/><stop offset="62.5%" stop-color="rgb(252, 78, 42)" stop-opacity="1"/><stop offset="75%" stop-color="rgb(227, 26, 28)" stop-opacity="1"/><stop offset="87.5%" stop-color="rgb(189, 0, 38)" stop-opacity="1"/><stop offset="100%" stop-color="rgb(128, 0, 38)" stop-opacity="1"/></linearGradient></g><g class="patterns"/></defs><g class="bglayer"/><g class="layer-below"><g class="imagelayer"/><g class="shapelayer"/></g><g class="cartesianlayer"/><g class="polarlayer"/><g class="smithlayer"/><g class="ternarylayer"/><g class="geolayer"/><g class="funnelarealayer"/><g class="pielayer"/><g class="iciclelayer"/><g class="treemaplayer"/><g class="sunburstlayer"><g class="trace sunburst" stroke-linejoin="round" style="opacity: 1;"><g class="slice"><path class="surface" d="M282.5,260A0,0 0,1,0 282.5,260A0,0 0,1,0 282.5,260ZM324.5,260A42,42 0,1,1 240.5,260A42,42 0,1,1 324.5,260Z" style="pointer-events: none; stroke-width: 1; fill: rgb(255, 255, 255); fill-opacity: 1; stroke: rgb(0, 0, 0); stroke-opacity: 1;"/><g class="slicetext"><text data-notex="1" class="slicetext" text-anchor="middle" x="0" y="0" style="font-family: 'Times New Roman'; font-size: 12px; fill: rgb(0, 0, 0); fill-opacity: 1; white-space: pre;" transform="translate(282.5,264)">100</text></g></g><g class="slice cursor-pointer"><path class="surface" d="M324.5,260L366.5,260A84,84 0,1,0 200.20273229039074,276.8273505797231L241.35136614519536,268.41367528986154A42,42 0,1,1 324.5,260Z" style="pointer-events: none; stroke-width: 1; fill: rgb(128, 0, 38); fill-opacity: 1; stroke: rgb(0, 0, 0); stroke-opacity: 1;"/><g class="slicetext"><text data-notex="1" class="slicetext" text-anchor="middle" x="0" y="0" style="font-family: 'Times New Roman'; font-size: 12px; fill: rgb(0, 0, 0); fill-opacity: 1; white-space: pre;" transform="translate(276.0875564106695,198.2582910894548)rotate(-5.77800000000002)"><tspan class="line" dy="0em" x="0" y="0">Travel Services</tspan><tspan class="line" dy="1.3em" x="0" y="0">53.21</tspan></text></g></g><g class="slice cursor-pointer"><path class="surface" d="M241.35136614519536,268.41367528986154L200.20273229039074,276.8273505797231A84,84 0,0,0 296.42183431756206,342.83829144323505L289.46091715878106,301.41914572161755A42,42 0,0,1 241.35136614519536,268.41367528986154Z" style="pointer-events: none; stroke-width: 1; fill: rgb(254, 171, 73); fill-opacity: 1; stroke: rgb(0, 0, 0); stroke-opacity: 1;"/><g class="slicetext"><text data-notex="1" class="slicetext" text-anchor="middle" x="0" y="0" style="font-family: 'Times New Roman'; font-size: 12px; fill: rgb(0, 0, 0); fill-opacity: 1; white-space: pre;" transform="translate(250.64669564989146,306.18631428939204)scale(0.8407066299270742)rotate(34.452)"><tspan class="line" dy="0em" x="0" y="0">Hospitality Services</tspan><tspan class="line" dy="1.3em" x="0" y="0">24.44</tspan></text></g></g><g class="slice cursor-pointer"><path class="surface" d="M289.46091715878106,301.41914572161755L296.42183431756206,342.83829144323505A84,84 0,0,0 366.5,260L324.5,260A42,42 0,0,1 289.46091715878106,301.41914572161755Z" style="pointer-events: none; stroke-width: 1; fill: rgb(254, 184, 83); fill-opacity: 1; stroke: rgb(0, 0, 0); stroke-opacity: 1;"/><g class="slicetext"><text data-notex="1" class="slicetext" text-anchor="middle" x="0" y="0" style="font-family: 'Times New Roman'; font-size: 12px; fill: rgb(0, 0, 0); fill-opacity: 1; white-space: pre;" transform="translate(326.5464952150987,297.45363650293746)scale(0.8524613082393429)rotate(-49.76999999999998)"><tspan class="line" dy="0em" x="0" y="0">Destination Types</tspan><tspan class="line" dy="1.3em" x="0" y="0">22.35</tspan></text></g></g><g class="slice cursor-pointer"><path class="surface" d="M366.5,260L408.5,260A126,126 0,0,0 185.87105426445578,179.1368634912221L218.0807028429705,206.0912423274814A84,84 0,0,1 366.5,260Z" style="pointer-events: none; stroke-width: 1; fill: rgb(237, 46, 33); fill-opacity: 1; stroke: rgb(0, 0, 0); stroke-opacity: 1;"/><g class="slicetext"><text data-notex="1" class="slicetext" text-anchor="middle" x="0" y="0" style="font-family: 'Times New Roman'; font-size: 12px; fill: rgb(0, 0, 0); fill-opacity: 1; white-space: pre;" transform="translate(318.4400161619708,160.57091473942612)rotate(19.96199999999999)"><tspan class="line" dy="0em" x="0" y="0">Guided Tours</tspan><tspan class="line" dy="1.3em" x="0" y="0">38.91</tspan></text></g></g><g class="slice cursor-pointer"><path class="surface" d="M218.0807028429705,206.0912423274814L185.87105426445578,179.1368634912221A126,126 0,0,0 159.05409843558613,285.2410258695846L200.20273229039074,276.82735057972303A84,84 0,0,1 218.0807028429705,206.0912423274814Z" style="pointer-events: none; stroke-width: 1; fill: rgb(255, 227, 139); fill-opacity: 1; stroke: rgb(0, 0, 0); stroke-opacity: 1;"/><g class="slicetext"><text data-notex="1" class="slicetext" text-anchor="middle" x="0" y="0" style="font-family: 'Times New Roman'; font-size: 12px; fill: rgb(0, 0, 0); fill-opacity: 1; white-space: pre;" transform="translate(179.75675729833472,234.03248902318967)rotate(-75.81600000000003)"><tspan class="line" dy="0em" x="0" y="0">Transportation</tspan><tspan class="line" dy="1.3em" x="0" y="0">14.3</tspan></text></g></g><g class="slice cursor-pointer"><path class="surface" d="M200.20273229039074,276.8273505797231L159.05409843558613,285.24102586958463A126,126 0,0,0 261.305021804429,384.20456070245274L268.37001453628596,342.80304046830184A84,84 0,0,1 200.20273229039074,276.8273505797231Z" style="pointer-events: none; stroke-width: 1; fill: rgb(254, 205, 105); fill-opacity: 1; stroke: rgb(0, 0, 0); stroke-opacity: 1;"/><g class="slicetext"><text data-notex="1" class="slicetext" text-anchor="middle" x="0" y="0" style="font-family: 'Times New Roman'; font-size: 12px; fill: rgb(0, 0, 0); fill-opacity: 1; white-space: pre;" transform="translate(215.4895901947386,328.98923560499435)rotate(44.063999999999965)"><tspan class="line" dy="0em" x="0" y="0">Dining Experiences</tspan><tspan class="line" dy="1.3em" x="0" y="0">19.1</tspan></text></g></g><g class="slice"><path class="surface" d="M268.37001453628596,342.80304046830184L261.305021804429,384.20456070245274A126,126 0,0,0 303.38275147634323,384.25743716485255L296.4218343175621,342.83829144323505A84,84 0,0,1 268.37001453628596,342.80304046830184Z" style="pointer-events: none; stroke-width: 1; fill: rgb(255, 255, 204); fill-opacity: 1; stroke: rgb(0, 0, 0); stroke-opacity: 1; opacity: 1;"/><g class="slicetext"><text data-notex="1" class="slicetext" text-anchor="middle" x="0" y="0" style="font-family: 'Times New Roman'; font-size: 12px; fill: rgb(0, 0, 0); fill-opacity: 1; white-space: pre;" transform="translate(280.52247387364974,364.96442842001096)scale(0.48509172140649714)rotate(-89.92800000000011)"><tspan class="line" dy="0em" x="0" y="0">Lodging Options</tspan><tspan class="line" dy="1.3em" x="0" y="0">5.34</tspan></text></g></g><g class="slice"><path class="surface" d="M296.42183431756206,342.83829144323505L303.3827514763431,384.2574371648526A126,126 0,0,0 408.5,260.00000000000006L366.5,260A84,84 0,0,1 296.42183431756206,342.83829144323505Z" style="pointer-events: none; stroke-width: 1; fill: rgb(254, 184, 83); fill-opacity: 1; stroke: rgb(0, 0, 0); stroke-opacity: 1; opacity: 1;"/><g class="slicetext"><text data-notex="1" class="slicetext" text-anchor="middle" x="0" y="0" style="font-family: 'Times New Roman'; font-size: 12px; fill: rgb(0, 0, 0); fill-opacity: 1; white-space: pre;" transform="translate(356.7978062845097,323.2830154172623)rotate(-49.76999999999998)"><tspan class="line" dy="0em" x="0" y="0">Urban Tourism</tspan><tspan class="line" dy="1.3em" x="0" y="0">22.35</tspan></text></g></g><g class="slice cursor-pointer"><path class="surface" d="M408.5,260L450.5,260A168,168 0,0,0 153.66140568594102,152.18248465496282L185.87105426445578,179.1368634912221A126,126 0,0,1 408.5,260Z" style="pointer-events: none; stroke-width: 1; fill: rgb(237, 46, 33); fill-opacity: 1; stroke: rgb(0, 0, 0); stroke-opacity: 1;"/><g class="slicetext"><text data-notex="1" class="slicetext" text-anchor="middle" x="0" y="0" style="font-family: 'Times New Roman'; font-size: 12px; fill: rgb(0, 0, 0); fill-opacity: 1; white-space: pre;" transform="translate(332.67022273628953,121.39291566569862)rotate(19.96199999999999)"><tspan class="line" dy="0em" x="0" y="0">Adventure Tours</tspan><tspan class="line" dy="1.3em" x="0" y="0">38.91</tspan></text></g></g><g class="slice"><path class="surface" d="M185.87105426445578,179.1368634912221L153.66140568594102,152.18248465496282A168,168 0,0,0 118.40898944784294,223.9702864850152L159.4317420858822,232.97771486376138A126,126 0,0,1 185.87105426445578,179.1368634912221Z" style="pointer-events: none; stroke-width: 1; fill: rgb(255, 248, 187); fill-opacity: 1; stroke: rgb(0, 0, 0); stroke-opacity: 1; opacity: 1;"/><g class="slicetext"><text data-notex="1" class="slicetext" text-anchor="middle" x="0" y="0" style="font-family: 'Times New Roman'; font-size: 12px; fill: rgb(0, 0, 0); fill-opacity: 1; white-space: pre;" transform="translate(147.29345423149633,193.97046491111405)rotate(-63.846000000000004)"><tspan class="line" dy="0em" x="0" y="0">Air Travel</tspan><tspan class="line" dy="1.3em" x="0" y="0">7.65</tspan></text></g></g><g class="slice"><path class="surface" d="M159.4317420858822,232.97771486376138L118.40898944784294,223.9702864850152A168,168 0,0,0 117.90546458078148,293.6547011594462L159.05409843558613,285.24102586958463A126,126 0,0,1 159.4317420858822,232.97771486376138Z" style="pointer-events: none; stroke-width: 1; fill: rgb(255, 251, 194); fill-opacity: 1; stroke: rgb(0, 0, 0); stroke-opacity: 1; opacity: 1;"/><g class="slicetext"><text data-notex="1" class="slicetext" text-anchor="middle" x="0" y="0" style="font-family: 'Times New Roman'; font-size: 12px; fill: rgb(0, 0, 0); fill-opacity: 1; white-space: pre;" transform="translate(127.68144739570785,258.88131382773423)scale(0.9238178066025172)rotate(-89.58600000000001)"><tspan class="line" dy="0em" x="0" y="0">Rail &amp; Road</tspan><tspan class="line" dy="1.3em" x="0" y="0">6.65</tspan></text></g></g><g class="slice"><path class="surface" d="M159.05409843558613,285.24102586958463L117.90546458078148,293.6547011594462A168,168 0,0,0 194.18085072697386,402.91160859667394L216.2606380452304,367.1837064475055A126,126 0,0,1 159.05409843558613,285.24102586958463Z" style="pointer-events: none; stroke-width: 1; fill: rgb(255, 231, 148); fill-opacity: 1; stroke: rgb(0, 0, 0); stroke-opacity: 1; opacity: 1;"/><g class="slicetext"><text data-notex="1" class="slicetext" text-anchor="middle" x="0" y="0" style="font-family: 'Times New Roman'; font-size: 12px; fill: rgb(0, 0, 0); fill-opacity: 1; white-space: pre;" transform="translate(167.18385103351133,340.5055167460627)rotate(55.07999999999993)"><tspan class="line" dy="0em" x="0" y="0">Local Cuisine</tspan><tspan class="line" dy="1.3em" x="0" y="0">12.98</tspan></text></g></g><g class="slice"><path class="surface" d="M216.2606380452304,367.1837064475055L194.18085072697386,402.91160859667394A168,168 0,0,0 254.24002907257196,425.6060809366037L261.305021804429,384.20456070245274A126,126 0,0,1 216.2606380452304,367.1837064475055Z" style="pointer-events: none; stroke-width: 1; fill: rgb(255, 253, 198); fill-opacity: 1; stroke: rgb(0, 0, 0); stroke-opacity: 1; opacity: 1;"/><g class="slicetext"><text data-notex="1" class="slicetext" text-anchor="middle" x="0" y="0" style="font-family: 'Times New Roman'; font-size: 12px; fill: rgb(0, 0, 0); fill-opacity: 1; white-space: pre;" transform="translate(229.96794710719814,399.02204405951613)scale(0.8995672944426223)rotate(20.699999999999932)"><tspan class="line" dy="0em" x="0" y="0">Fine Dining</tspan><tspan class="line" dy="1.3em" x="0" y="0">6.12</tspan></text></g></g><g class="slice"><path class="surface" d="M450.5,260L492.5,260A210,210 0,0,0 288.17302609708446,50.07664071165925L287.0384208776676,92.06131256932741A168,168 0,0,1 450.5,260Z" style="pointer-events: none; stroke-width: 1; fill: rgb(254, 170, 73); fill-opacity: 1; stroke: rgb(0, 0, 0); stroke-opacity: 1; opacity: 1;"/><g class="slicetext"><text data-notex="1" class="slicetext" text-anchor="middle" x="0" y="0" style="font-family: 'Times New Roman'; font-size: 12px; fill: rgb(0, 0, 0); fill-opacity: 1; white-space: pre;" transform="translate(419.89401300591004,126.26879921774085)rotate(45.774)"><tspan class="line" dy="0em" x="0" y="0">Ziplining</tspan><tspan class="line" dy="1.3em" x="0" y="0">24.57</tspan></text></g></g><g class="slice"><path class="surface" d="M287.0384208776676,92.06131256932741L288.17302609708446,50.07664071165925A210,210 0,0,0 181.44737434323685,75.91206762018837L201.6578994745895,112.72965409615071A168,168 0,0,1 287.0384208776676,92.06131256932741Z" style="pointer-events: none; stroke-width: 1; fill: rgb(255, 246, 181); fill-opacity: 1; stroke: rgb(0, 0, 0); stroke-opacity: 1; opacity: 1;"/><g class="slicetext"><text data-notex="1" class="slicetext" text-anchor="middle" x="0" y="0" style="font-family: 'Times New Roman'; font-size: 12px; fill: rgb(0, 0, 0); fill-opacity: 1; white-space: pre;" transform="translate(237.49528920279013,74.78371903796705)rotate(-13.608000000000061)"><tspan class="line" dy="0em" x="0" y="0">Desert Safaris</tspan><tspan class="line" dy="1.3em" x="0" y="0">8.42</tspan></text></g></g><g class="slice"><path class="surface" d="M201.6578994745895,112.72965409615071L181.44737434323685,75.91206762018837A210,210 0,0,0 121.45175710742623,125.22810581870357L153.66140568594096,152.18248465496288A168,168 0,0,1 201.6578994745895,112.72965409615071Z" style="pointer-events: none; stroke-width: 1; fill: rgb(255, 253, 200); fill-opacity: 1; stroke: rgb(0, 0, 0); stroke-opacity: 1; opacity: 1;"/><g class="slicetext"><text data-notex="1" class="slicetext" text-anchor="middle" x="0" y="0" style="font-family: 'Times New Roman'; font-size: 12px; fill: rgb(0, 0, 0); fill-opacity: 1; white-space: pre;" transform="translate(158.00779296944484,108.80688952507153)rotate(-39.42000000000007)"><tspan class="line" dy="0em" x="0" y="0">Rafting Trips</tspan><tspan class="line" dy="1.3em" x="0" y="0">5.92</tspan></text></g></g></g></g><g class="glimages"/><defs id="topdefs-e6b7cc"><g class="clips"/></defs><g class="layer-above"><g class="imagelayer"/><g class="shapelayer"/></g><g class="infolayer"><g class="cbc48b26 colorbar" transform="translate(10,50)"><rect class="cbbg" x="571.5" y="63" width="48.015625" height="295" style="fill: rgb(0, 0, 0); fill-opacity: 0; stroke: rgb(68, 68, 68); stroke-opacity: 1; stroke-width: 0;"/><g class="cbfills" transform="translate(0,93)"><rect class="cbfill gradient_filled" style="fill: url('#ge6b7cc-cbc48b26');" x="582" y="0" width="15" height="254"/></g><g class="cblines" transform="translate(0,93)"/><g class="cbaxis crisp" transform="translate(0,-50)"><g class="ycbc48b26tick"><text text-anchor="start" x="600.4" y="4.199999999999999" transform="translate(0,372.2700000000001)" style="font-family: 'Times New Roman'; font-size: 12px; fill: rgb(42, 63, 95); fill-opacity: 1; white-space: pre; opacity: 1;">10</text></g><g class="ycbc48b26tick"><text text-anchor="start" x="600.4" y="4.199999999999999" style="font-family: 'Times New Roman'; font-size: 12px; fill: rgb(42, 63, 95); fill-opacity: 1; white-space: pre; opacity: 1;" transform="translate(0,319.21000000000004)">20</text></g><g class="ycbc48b26tick"><text text-anchor="start" x="600.4" y="4.199999999999999" style="font-family: 'Times New Roman'; font-size: 12px; fill: rgb(42, 63, 95); fill-opacity: 1; white-space: pre; opacity: 1;" transform="translate(0,266.1500000000001)">30</text></g><g class="ycbc48b26tick"><text text-anchor="start" x="600.4" y="4.199999999999999" style="font-family: 'Times New Roman'; font-size: 12px; fill: rgb(42, 63, 95); fill-opacity: 1; white-space: pre; opacity: 1;" transform="translate(0,213.09000000000006)">40</text></g><g class="ycbc48b26tick"><text text-anchor="start" x="600.4" y="4.199999999999999" style="font-family: 'Times New Roman'; font-size: 12px; fill: rgb(42, 63, 95); fill-opacity: 1; white-space: pre; opacity: 1;" transform="translate(0,160.03000000000006)">50</text></g></g><g class="cbtitleunshift" transform="translate(-10,-50)"><g class="cbtitle" transform="translate(-0.5,-0.5)"><text class="ycbc48b26title" x="592.25" y="135.75" text-anchor="start" style="opacity: 1; font-family: 'Times New Roman'; font-size: 13px; fill: rgb(42, 63, 95); fill-opacity: 1; white-space: pre;">%</text></g></g><rect class="cboutline" x="582" y="93" width="15" height="254" style="stroke: rgb(68, 68, 68); stroke-opacity: 1; fill: none; stroke-width: 1;"/></g><g class="g-gtitle"><text class="gtitle" x="320" y="25" text-anchor="middle" dy="0em" style="opacity: 1; font-family: 'Times New Roman'; font-size: 16px; fill: rgb(42, 63, 95); fill-opacity: 1; white-space: pre;">Tourism Distribution by Category (2022) (%)</text></g></g></svg>