<svg class="main-svg" xmlns="http://www.w3.org/2000/svg" xmlns:xlink="http://www.w3.org/1999/xlink" width="1920" height="1440" style="" viewBox="0 0 640 480"><rect x="0" y="0" width="640" height="480" style="fill: rgb(255, 255, 255); fill-opacity: 1;"/><defs id="defs-2d5fa7"><g class="clips"/><g class="gradients"><linearGradient x1="0" y1="1" x2="0" y2="0" gradientUnits="objectBoundingBox" id="g2d5fa7-cb671661"><stop offset="0%" stop-color="rgb(247, 252, 245)" stop-opacity="1"/><stop offset="12.5%" stop-color="rgb(229, 245, 224)" stop-opacity="1"/><stop offset="25%" stop-color="rgb(199, 233, 192)" stop-opacity="1"/><stop offset="37.5%" stop-color="rgb(161, 217, 155)" stop-opacity="1"/><stop offset="50%" stop-color="rgb(116, 196, 118)" stop-opacity="1"/><stop offset="62.5%" stop-color="rgb(65, 171, 93)" stop-opacity="1"/><stop offset="75%" stop-color="rgb(35, 139, 69)" stop-opacity="1"/><stop offset="87.5%" stop-color="rgb(0, 109, 44)" stop-opacity="1"/><stop offset="100%" stop-color="rgb(0, 68, 27)" stop-opacity="1"/></linearGradient></g><g class="patterns"/></defs><g class="bglayer"/><g class="layer-below"><g class="imagelayer"/><g class="shapelayer"/></g><g class="cartesianlayer"/><g class="polarlayer"/><g class="smithlayer"/><g class="ternarylayer"/><g class="geolayer"/><g class="funnelarealayer"/><g class="pielayer"/><g class="iciclelayer"/><g class="treemaplayer"/><g class="sunburstlayer"><g class="trace sunburst" stroke-linejoin="round" style="opacity: 1;"><g class="slice"><path class="surface" d="M282.5,260A0,0 0,1,0 282.5,260A0,0 0,1,0 282.5,260ZM335,260A52.5,52.5 0,1,1 230,260A52.5,52.5 0,1,1 335,260Z" style="pointer-events: none; stroke-width: 1; fill: rgb(255, 255, 255); fill-opacity: 1; stroke: rgb(0, 0, 0); stroke-opacity: 1;"/><g class="slicetext"><text data-notex="1" class="slicetext" text-anchor="middle" x="0" y="0" style="font-family: 'Times New Roman'; font-size: 12px; fill: rgb(0, 0, 0); fill-opacity: 1; white-space: pre;" transform="translate(282.5,264)">100.01</text></g></g><g class="slice cursor-pointer"><path class="surface" d="M335,260L387.5,260A105,105 0,0,0 182.1117641573396,229.22335131307517L232.3058820786698,244.61167565653759A52.5,52.5 0,0,1 335,260Z" style="pointer-events: none; stroke-width: 1; fill: rgb(0, 68, 27); fill-opacity: 1; stroke: rgb(0, 0, 0); stroke-opacity: 1;"/><g class="slicetext"><text data-notex="1" class="slicetext" text-anchor="middle" x="0" y="0" style="font-family: 'Times New Roman'; font-size: 12px; fill: rgb(0, 0, 0); fill-opacity: 1; white-space: pre;" transform="translate(293.4065821969297,186.10773136014683)rotate(8.522147785221478)"><tspan class="line" dy="0em" x="0" y="0">Hospitality Services</tspan><tspan class="line" dy="1.3em" x="0" y="0">45.27</tspan></text></g></g><g class="slice cursor-pointer"><path class="surface" d="M232.3058820786698,244.61167565653759L182.1117641573396,229.22335131307517A105,105 0,0,0 296.6561248487703,364.04135778269153L289.5780624243851,312.02067889134577A52.5,52.5 0,0,1 232.3058820786698,244.61167565653759Z" style="pointer-events: none; stroke-width: 1; fill: rgb(57, 162, 86); fill-opacity: 1; stroke: rgb(0, 0, 0); stroke-opacity: 1;"/><g class="slicetext"><text data-notex="1" class="slicetext" text-anchor="middle" x="0" y="0" style="font-family: 'Times New Roman'; font-size: 12px; fill: rgb(0, 0, 0); fill-opacity: 1; white-space: pre;" transform="translate(229.7861910106463,304.57153611385263)rotate(49.64803519648035)"><tspan class="line" dy="0em" x="0" y="0">Travel Services</tspan><tspan class="line" dy="1.3em" x="0" y="0">31.89</tspan></text></g></g><g class="slice cursor-pointer"><path class="surface" d="M289.5780624243851,312.02067889134577L296.6561248487703,364.04135778269153A105,105 0,0,0 387.5,260L335,260A52.5,52.5 0,0,1 289.5780624243851,312.02067889134577Z" style="pointer-events: none; stroke-width: 1; fill: rgb(141, 208, 139); fill-opacity: 1; stroke: rgb(0, 0, 0); stroke-opacity: 1;"/><g class="slicetext"><text data-notex="1" class="slicetext" text-anchor="middle" x="0" y="0" style="font-family: 'Times New Roman'; font-size: 12px; fill: rgb(0, 0, 0); fill-opacity: 1; white-space: pre;" transform="translate(336.53252652659506,307.4067584602292)rotate(-48.87411258874113)"><tspan class="line" dy="0em" x="0" y="0">Destination Types</tspan><tspan class="line" dy="1.3em" x="0" y="0">22.85</tspan></text></g></g><g class="slice"><path class="surface" d="M387.5,260L440,260A157.5,157.5 0,0,0 203.12241937217715,123.96526291541016L229.58161291478476,169.3101752769401A105,105 0,0,1 387.5,260Z" style="pointer-events: none; stroke-width: 1; fill: rgb(47, 152, 79); fill-opacity: 1; stroke: rgb(0, 0, 0); stroke-opacity: 1; opacity: 1;"/><g class="slicetext"><text data-notex="1" class="slicetext" text-anchor="middle" x="0" y="0" style="font-family: 'Times New Roman'; font-size: 12px; fill: rgb(0, 0, 0); fill-opacity: 1; white-space: pre;" transform="translate(347.02075534994367,147.32042944113581)rotate(29.86801319868016)"><tspan class="line" dy="0em" x="0" y="0">Lodging Options</tspan><tspan class="line" dy="1.3em" x="0" y="0">33.41</tspan></text></g></g><g class="slice cursor-pointer"><path class="surface" d="M229.58161291478476,169.3101752769401L203.12241937217715,123.96526291541016A157.5,157.5 0,0,0 131.9176462360094,213.8350269696127L182.1117641573396,229.22335131307514A105,105 0,0,1 229.58161291478476,169.3101752769401Z" style="pointer-events: none; stroke-width: 1; fill: rgb(223, 243, 217); fill-opacity: 1; stroke: rgb(0, 0, 0); stroke-opacity: 1;"/><g class="slicetext"><text data-notex="1" class="slicetext" text-anchor="middle" x="0" y="0" style="font-family: 'Times New Roman'; font-size: 12px; fill: rgb(0, 0, 0); fill-opacity: 1; white-space: pre;" transform="translate(173.1422575346989,173.564018854161)scale(0.9545842070285475)rotate(-51.60983901609836)"><tspan class="line" dy="0em" x="0" y="0">Dining Experiences</tspan><tspan class="line" dy="1.3em" x="0" y="0">11.86</tspan></text></g></g><g class="slice cursor-pointer"><path class="surface" d="M182.1117641573396,229.22335131307517L131.91764623600938,213.83502696961276A157.5,157.5 0,0,0 171.85896489846562,372.0928693167457L208.7393099323104,334.72857954449717A105,105 0,0,1 182.1117641573396,229.22335131307517Z" style="pointer-events: none; stroke-width: 1; fill: rgb(187, 228, 180); fill-opacity: 1; stroke: rgb(0, 0, 0); stroke-opacity: 1;"/><g class="slicetext"><text data-notex="1" class="slicetext" text-anchor="middle" x="0" y="0" style="font-family: 'Times New Roman'; font-size: 12px; fill: rgb(0, 0, 0); fill-opacity: 1; white-space: pre;" transform="translate(163.02637638434823,290.1529074440686)rotate(75.83541645835419)"><tspan class="line" dy="0em" x="0" y="0">Transportation</tspan><tspan class="line" dy="1.3em" x="0" y="0">17.34</tspan></text></g></g><g class="slice cursor-pointer"><path class="surface" d="M208.7393099323104,334.72857954449717L171.85896489846562,372.0928693167457A157.5,157.5 0,0,0 303.7341872731554,416.0620366740373L296.6561248487703,364.04135778269153A105,105 0,0,1 208.7393099323104,334.72857954449717Z" style="pointer-events: none; stroke-width: 1; fill: rgb(206, 236, 200); fill-opacity: 1; stroke: rgb(0, 0, 0); stroke-opacity: 1;"/><g class="slicetext"><text data-notex="1" class="slicetext" text-anchor="middle" x="0" y="0" style="font-family: 'Times New Roman'; font-size: 12px; fill: rgb(0, 0, 0); fill-opacity: 1; white-space: pre;" transform="translate(243.25131035704942,377.1985578263158)rotate(18.439156084391584)"><tspan class="line" dy="0em" x="0" y="0">Guided Tours</tspan><tspan class="line" dy="1.3em" x="0" y="0">14.55</tspan></text></g></g><g class="slice"><path class="surface" d="M296.6561248487703,364.04135778269153L303.7341872731554,416.0620366740373A157.5,157.5 0,0,0 440,260.00000000000006L387.5,260A105,105 0,0,1 296.6561248487703,364.04135778269153Z" style="pointer-events: none; stroke-width: 1; fill: rgb(141, 208, 139); fill-opacity: 1; stroke: rgb(0, 0, 0); stroke-opacity: 1; opacity: 1;"/><g class="slicetext"><text data-notex="1" class="slicetext" text-anchor="middle" x="0" y="0" style="font-family: 'Times New Roman'; font-size: 12px; fill: rgb(0, 0, 0); fill-opacity: 1; white-space: pre;" transform="translate(374.8945130861129,341.1100173103373)rotate(-48.87411258874113)"><tspan class="line" dy="0em" x="0" y="0">Urban Tourism</tspan><tspan class="line" dy="1.3em" x="0" y="0">22.85</tspan></text></g></g><g class="slice"><path class="surface" d="M203.12241937217715,123.96526291541016L176.6632258295695,78.6203505538802A210,210 0,0,0 81.72352831467919,198.44670262615026L131.9176462360094,213.8350269696127A157.5,157.5 0,0,1 203.12241937217715,123.96526291541016Z" style="pointer-events: none; stroke-width: 1; fill: rgb(223, 243, 217); fill-opacity: 1; stroke: rgb(0, 0, 0); stroke-opacity: 1; opacity: 1;"/><g class="slicetext"><text data-notex="1" class="slicetext" text-anchor="middle" x="0" y="0" style="font-family: 'Times New Roman'; font-size: 12px; fill: rgb(0, 0, 0); fill-opacity: 1; white-space: pre;" transform="translate(138.00047187739875,145.51148179216824)rotate(-51.60983901609836)"><tspan class="line" dy="0em" x="0" y="0">Local Cuisine</tspan><tspan class="line" dy="1.3em" x="0" y="0">11.86</tspan></text></g></g><g class="slice"><path class="surface" d="M131.91764623600938,213.83502696961276L81.72352831467919,198.44670262615034A210,210 0,0,0 82.91925626646454,325.32630963684426L132.8144421998484,308.99473222763316A157.5,157.5 0,0,1 131.91764623600938,213.83502696961276Z" style="pointer-events: none; stroke-width: 1; fill: rgb(233, 247, 229); fill-opacity: 1; stroke: rgb(0, 0, 0); stroke-opacity: 1; opacity: 1;"/><g class="slicetext"><text data-notex="1" class="slicetext" text-anchor="middle" x="0" y="0" style="font-family: 'Times New Roman'; font-size: 12px; fill: rgb(0, 0, 0); fill-opacity: 1; white-space: pre;" transform="translate(105.29799962498167,261.66997195177976)rotate(89.46005399460057)"><tspan class="line" dy="0em" x="0" y="0">Rail &amp; Road</tspan><tspan class="line" dy="1.3em" x="0" y="0">9.77</tspan></text></g></g><g class="slice"><path class="surface" d="M132.8144421998484,308.99473222763316L82.91925626646454,325.32630963684426A210,210 0,0,0 134.9786198646208,409.45715908899433L171.85896489846562,372.0928693167457A157.5,157.5 0,0,1 132.8144421998484,308.99473222763316Z" style="pointer-events: none; stroke-width: 1; fill: rgb(241, 250, 238); fill-opacity: 1; stroke: rgb(0, 0, 0); stroke-opacity: 1; opacity: 1;"/><g class="slicetext"><text data-notex="1" class="slicetext" text-anchor="middle" x="0" y="0" style="font-family: 'Times New Roman'; font-size: 12px; fill: rgb(0, 0, 0); fill-opacity: 1; white-space: pre;" transform="translate(129.45393444590056,354.31757443950306)rotate(58.251174882511805)"><tspan class="line" dy="0em" x="0" y="0">Air Travel</tspan><tspan class="line" dy="1.3em" x="0" y="0">7.57</tspan></text></g></g><g class="slice"><path class="surface" d="M171.85896489846562,372.0928693167457L134.9786198646208,409.45715908899433A210,210 0,0,0 233.00033683349076,464.0827855219595L245.37525262511807,413.06208914146964A157.5,157.5 0,0,1 171.85896489846562,372.0928693167457Z" style="pointer-events: none; stroke-width: 1; fill: rgb(237, 248, 234); fill-opacity: 1; stroke: rgb(0, 0, 0); stroke-opacity: 1; opacity: 1;"/><g class="slicetext"><text data-notex="1" class="slicetext" text-anchor="middle" x="0" y="0" style="font-family: 'Times New Roman'; font-size: 12px; fill: rgb(0, 0, 0); fill-opacity: 1; white-space: pre;" transform="translate(193.92259441028855,418.60869093293053)rotate(29.130086991300914)"><tspan class="line" dy="0em" x="0" y="0">Cultural Tours</tspan><tspan class="line" dy="1.3em" x="0" y="0">8.61</tspan></text></g></g><g class="slice"><path class="surface" d="M245.37525262511807,413.06208914146964L233.00033683349076,464.0827855219595A210,210 0,0,0 310.8122496975405,468.08271556538307L303.7341872731554,416.0620366740373A157.5,157.5 0,0,1 245.37525262511807,413.06208914146964Z" style="pointer-events: none; stroke-width: 1; fill: rgb(247, 252, 245); fill-opacity: 1; stroke: rgb(0, 0, 0); stroke-opacity: 1; opacity: 1;"/><g class="slicetext"><text data-notex="1" class="slicetext" text-anchor="middle" x="0" y="0" style="font-family: 'Times New Roman'; font-size: 12px; fill: rgb(0, 0, 0); fill-opacity: 1; white-space: pre;" transform="translate(272.5332254720145,451.2562415456479)scale(0.8231486531747316)rotate(2.9427057294270753)"><tspan class="line" dy="0em" x="0" y="0">Adventure Tours</tspan><tspan class="line" dy="1.3em" x="0" y="0">5.94</tspan></text></g></g></g></g><g class="glimages"/><defs id="topdefs-2d5fa7"><g class="clips"/></defs><g class="layer-above"><g class="imagelayer"/><g class="shapelayer"/></g><g class="infolayer"><g class="cb671661 colorbar" transform="translate(10,50)"><rect class="cbbg" x="571.5" y="63" width="48.015625" height="295" style="fill: rgb(0, 0, 0); fill-opacity: 0; stroke: rgb(68, 68, 68); stroke-opacity: 1; stroke-width: 0;"/><g class="cbfills" transform="translate(0,93)"><rect class="cbfill gradient_filled" style="fill: url('#g2d5fa7-cb671661');" x="582" y="0" width="15" height="254"/></g><g class="cblines" transform="translate(0,93)"/><g class="cbaxis crisp" transform="translate(0,-50)"><g class="ycb671661tick"><text text-anchor="start" x="600.4" y="4.199999999999999" transform="translate(0,370.7800000000001)" style="font-family: 'Times New Roman'; font-size: 12px; fill: rgb(42, 63, 95); fill-opacity: 1; white-space: pre; opacity: 1;">10</text></g><g class="ycb671661tick"><text text-anchor="start" x="600.4" y="4.199999999999999" style="font-family: 'Times New Roman'; font-size: 12px; fill: rgb(42, 63, 95); fill-opacity: 1; white-space: pre; opacity: 1;" transform="translate(0,306.20000000000005)">20</text></g><g class="ycb671661tick"><text text-anchor="start" x="600.4" y="4.199999999999999" style="font-family: 'Times New Roman'; font-size: 12px; fill: rgb(42, 63, 95); fill-opacity: 1; white-space: pre; opacity: 1;" transform="translate(0,241.62000000000006)">30</text></g><g class="ycb671661tick"><text text-anchor="start" x="600.4" y="4.199999999999999" style="font-family: 'Times New Roman'; font-size: 12px; fill: rgb(42, 63, 95); fill-opacity: 1; white-space: pre; opacity: 1;" transform="translate(0,177.03000000000006)">40</text></g></g><g class="cbtitleunshift" transform="translate(-10,-50)"><g class="cbtitle" transform="translate(-0.5,-0.5)"><text class="ycb671661title" x="592.25" y="135.75" text-anchor="start" style="opacity: 1; font-family: 'Times New Roman'; font-size: 13px; fill: rgb(42, 63, 95); fill-opacity: 1; white-space: pre;">%</text></g></g><rect class="cboutline" x="582" y="93" width="15" height="254" style="stroke: rgb(68, 68, 68); stroke-opacity: 1; fill: none; stroke-width: 1;"/></g><g class="g-gtitle"><text class="gtitle" x="320" y="25" text-anchor="middle" dy="0em" style="opacity: 1; font-family: 'Times New Roman'; font-size: 16px; fill: rgb(42, 63, 95); fill-opacity: 1; white-space: pre;">Tourism Distribution by Category (2022) (%)</text></g></g></svg>