<svg class="main-svg" xmlns="http://www.w3.org/2000/svg" xmlns:xlink="http://www.w3.org/1999/xlink" width="1920" height="1440" style="" viewBox="0 0 640 480"><rect x="0" y="0" width="640" height="480" style="fill: rgb(255, 255, 255); fill-opacity: 1;"/><defs id="defs-b84ed6"><g class="clips"/><g class="gradients"><linearGradient x1="0" y1="1" x2="0" y2="0" gradientUnits="objectBoundingBox" id="gb84ed6-cbf6a884"><stop offset="0%" stop-color="rgb(247, 252, 245)" stop-opacity="1"/><stop offset="12.5%" stop-color="rgb(229, 245, 224)" stop-opacity="1"/><stop offset="25%" stop-color="rgb(199, 233, 192)" stop-opacity="1"/><stop offset="37.5%" stop-color="rgb(161, 217, 155)" stop-opacity="1"/><stop offset="50%" stop-color="rgb(116, 196, 118)" stop-opacity="1"/><stop offset="62.5%" stop-color="rgb(65, 171, 93)" stop-opacity="1"/><stop offset="75%" stop-color="rgb(35, 139, 69)" stop-opacity="1"/><stop offset="87.5%" stop-color="rgb(0, 109, 44)" stop-opacity="1"/><stop offset="100%" stop-color="rgb(0, 68, 27)" stop-opacity="1"/></linearGradient></g><g class="patterns"/></defs><g class="bglayer"/><g class="layer-below"><g class="imagelayer"/><g class="shapelayer"/></g><g class="cartesianlayer"/><g class="polarlayer"/><g class="smithlayer"/><g class="ternarylayer"/><g class="geolayer"/><g class="funnelarealayer"/><g class="pielayer"/><g class="iciclelayer"/><g class="treemaplayer"/><g class="sunburstlayer"><g class="trace sunburst" stroke-linejoin="round" style="opacity: 1;"><g class="slice"><path class="surface" d="M282.5,260A0,0 0,1,0 282.5,260A0,0 0,1,0 282.5,260ZM324.5,260A42,42 0,1,1 240.5,260A42,42 0,1,1 324.5,260Z" style="pointer-events: none; stroke-width: 1; fill: rgb(255, 255, 255); fill-opacity: 1; stroke: rgb(0, 0, 0); stroke-opacity: 1;"/><g class="slicetext"><text data-notex="1" class="slicetext" text-anchor="middle" x="0" y="0" style="font-family: 'Times New Roman'; font-size: 12px; fill: rgb(0, 0, 0); fill-opacity: 1; white-space: pre;" transform="translate(282.5,264)">100</text></g></g><g class="slice cursor-pointer"><path class="surface" d="M324.5,260L366.5,260A84,84 0,0,0 218.38657804286902,205.72782365754182L250.4432890214345,232.8639118287709A42,42 0,0,1 324.5,260Z" style="pointer-events: none; stroke-width: 1; fill: rgb(0, 68, 27); fill-opacity: 1; stroke: rgb(0, 0, 0); stroke-opacity: 1;"/><g class="slicetext"><text data-notex="1" class="slicetext" text-anchor="middle" x="0" y="0" style="font-family: 'Times New Roman'; font-size: 12px; fill: rgb(0, 0, 0); fill-opacity: 1; white-space: pre;" transform="translate(303.33089997324834,202.67720031668034)scale(0.9478104757495864)rotate(20.124000000000024)"><tspan class="line" dy="0em" x="0" y="0">Destination Types</tspan><tspan class="line" dy="1.3em" x="0" y="0">38.82</tspan></text></g></g><g class="slice cursor-pointer"><path class="surface" d="M250.4432890214345,232.8639118287709L218.38657804286902,205.72782365754182A84,84 0,0,0 278.1740564435957,343.88853445106076L280.3370282217978,301.9442672255304A42,42 0,0,1 250.4432890214345,232.8639118287709Z" style="pointer-events: none; stroke-width: 1; fill: rgb(0, 102, 41); fill-opacity: 1; stroke: rgb(0, 0, 0); stroke-opacity: 1;"/><g class="slicetext"><text data-notex="1" class="slicetext" text-anchor="middle" x="0" y="0" style="font-family: 'Times New Roman'; font-size: 12px; fill: rgb(0, 0, 0); fill-opacity: 1; white-space: pre;" transform="translate(233.5410574395021,281.02536450629606)scale(0.9009690408601857)rotate(66.60000000000002)"><tspan class="line" dy="0em" x="0" y="0">Hospitality Services</tspan><tspan class="line" dy="1.3em" x="0" y="0">35.36</tspan></text></g></g><g class="slice cursor-pointer"><path class="surface" d="M280.3370282217978,301.9442672255304L278.1740564435957,343.88853445106076A84,84 0,0,0 366.5,260L324.5,260A42,42 0,0,1 280.3370282217978,301.9442672255304Z" style="pointer-events: none; stroke-width: 1; fill: rgb(69, 173, 95); fill-opacity: 1; stroke: rgb(0, 0, 0); stroke-opacity: 1;"/><g class="slicetext"><text data-notex="1" class="slicetext" text-anchor="middle" x="0" y="0" style="font-family: 'Times New Roman'; font-size: 12px; fill: rgb(0, 0, 0); fill-opacity: 1; white-space: pre;" transform="translate(319.88828063735167,299.6042244513715)rotate(-43.524)"><tspan class="line" dy="0em" x="0" y="0">Travel Services</tspan><tspan class="line" dy="1.3em" x="0" y="0">25.82</tspan></text></g></g><g class="slice cursor-pointer"><path class="surface" d="M366.5,260L408.5,260A126,126 0,0,0 306.8095570592672,136.36729625385428L298.7063713728448,177.57819750256954A84,84 0,0,1 366.5,260Z" style="pointer-events: none; stroke-width: 1; fill: rgb(116, 196, 118); fill-opacity: 1; stroke: rgb(0, 0, 0); stroke-opacity: 1;"/><g class="slicetext"><text data-notex="1" class="slicetext" text-anchor="middle" x="0" y="0" style="font-family: 'Times New Roman'; font-size: 12px; fill: rgb(0, 0, 0); fill-opacity: 1; white-space: pre;" transform="translate(363.6702245832175,193.45836590651325)rotate(50.56200000000001)"><tspan class="line" dy="0em" x="0" y="0">Nature Tourism</tspan><tspan class="line" dy="1.3em" x="0" y="0">21.91</tspan></text></g></g><g class="slice cursor-pointer"><path class="surface" d="M298.7063713728448,177.57819750256954L306.8095570592672,136.36729625385428A126,126 0,0,0 186.32986706430356,178.59173548631276L218.38657804286902,205.72782365754182A84,84 0,0,1 298.7063713728448,177.57819750256954Z" style="pointer-events: none; stroke-width: 1; fill: rgb(168, 220, 162); fill-opacity: 1; stroke: rgb(0, 0, 0); stroke-opacity: 1;"/><g class="slicetext"><text data-notex="1" class="slicetext" text-anchor="middle" x="0" y="0" style="font-family: 'Times New Roman'; font-size: 12px; fill: rgb(0, 0, 0); fill-opacity: 1; white-space: pre;" transform="translate(247.39450017860054,160.82497592770872)rotate(-19.313999999999965)"><tspan class="line" dy="0em" x="0" y="0">Urban Tourism</tspan><tspan class="line" dy="1.3em" x="0" y="0">16.91</tspan></text></g></g><g class="slice cursor-pointer"><path class="surface" d="M218.38657804286902,205.72782365754182L186.32986706430356,178.59173548631276A126,126 0,0,0 180.33169281512096,333.7403350072143L214.38779521008064,309.1602233381428A84,84 0,0,1 218.38657804286902,205.72782365754182Z" style="pointer-events: none; stroke-width: 1; fill: rgb(125, 200, 125); fill-opacity: 1; stroke: rgb(0, 0, 0); stroke-opacity: 1;"/><g class="slicetext"><text data-notex="1" class="slicetext" text-anchor="middle" x="0" y="0" style="font-family: 'Times New Roman'; font-size: 12px; fill: rgb(0, 0, 0); fill-opacity: 1; white-space: pre;" transform="translate(178.78516341040734,256.16230132015227)rotate(-87.78599999999994)"><tspan class="line" dy="0em" x="0" y="0">Dining Experiences</tspan><tspan class="line" dy="1.3em" x="0" y="0">21.13</tspan></text></g></g><g class="slice"><path class="surface" d="M214.38779521008064,309.1602233381428L180.33169281512096,333.7403350072143A126,126 0,0,0 276.0110846653935,385.8328016765911L278.1740564435957,343.88853445106076A84,84 0,0,1 214.38779521008064,309.1602233381428Z" style="pointer-events: none; stroke-width: 1; fill: rgb(192, 230, 186); fill-opacity: 1; stroke: rgb(0, 0, 0); stroke-opacity: 1; opacity: 1;"/><g class="slicetext"><text data-notex="1" class="slicetext" text-anchor="middle" x="0" y="0" style="font-family: 'Times New Roman'; font-size: 12px; fill: rgb(0, 0, 0); fill-opacity: 1; white-space: pre;" transform="translate(234.57659540904007,347.68460152569475)scale(0.9833196289705304)rotate(28.565999999999917)"><tspan class="line" dy="0em" x="0" y="0">Lodging Options</tspan><tspan class="line" dy="1.3em" x="0" y="0">14.23</tspan></text></g></g><g class="slice"><path class="surface" d="M278.1740564435957,343.88853445106076L276.0110846653935,385.8328016765911A126,126 0,0,0 408.5,260.00000000000006L366.5,260A84,84 0,0,1 278.1740564435957,343.88853445106076Z" style="pointer-events: none; stroke-width: 1; fill: rgb(69, 173, 95); fill-opacity: 1; stroke: rgb(0, 0, 0); stroke-opacity: 1; opacity: 1;"/><g class="slicetext"><text data-notex="1" class="slicetext" text-anchor="middle" x="0" y="0" style="font-family: 'Times New Roman'; font-size: 12px; fill: rgb(0, 0, 0); fill-opacity: 1; white-space: pre;" transform="translate(349.94926805148936,331.2553326149059)rotate(-43.524)"><tspan class="line" dy="0em" x="0" y="0">Guided Tours</tspan><tspan class="line" dy="1.3em" x="0" y="0">25.82</tspan></text></g></g><g class="slice"><path class="surface" d="M408.5,260L450.5,260A168,168 0,0,0 390.47933352569754,131.29699486279986L363.48450014427317,163.47274614709988A126,126 0,0,1 408.5,260Z" style="pointer-events: none; stroke-width: 1; fill: rgb(195, 232, 189); fill-opacity: 1; stroke: rgb(0, 0, 0); stroke-opacity: 1; opacity: 1;"/><g class="slicetext"><text data-notex="1" class="slicetext" text-anchor="middle" x="0" y="0" style="font-family: 'Times New Roman'; font-size: 12px; fill: rgb(0, 0, 0); fill-opacity: 1; white-space: pre;" transform="translate(414.5675204553561,198.22926539695862)rotate(64.99800000000005)"><tspan class="line" dy="0em" x="0" y="0">Mountain Destinations</tspan><tspan class="line" dy="1.3em" x="0" y="0">13.89</tspan></text></g></g><g class="slice"><path class="surface" d="M363.48450014427317,163.47274614709988L390.47933352569754,131.29699486279986A168,168 0,0,0 314.91274274568957,95.15639500513905L306.80955705926715,136.36729625385428A126,126 0,0,1 363.48450014427317,163.47274614709988Z" style="pointer-events: none; stroke-width: 1; fill: rgb(234, 247, 230); fill-opacity: 1; stroke: rgb(0, 0, 0); stroke-opacity: 1; opacity: 1;"/><g class="slicetext"><text data-notex="1" class="slicetext" text-anchor="middle" x="0" y="0" style="font-family: 'Times New Roman'; font-size: 12px; fill: rgb(0, 0, 0); fill-opacity: 1; white-space: pre;" transform="translate(348.38692607892784,121.8606587123601)scale(0.9887722712637724)rotate(25.559999999999945)"><tspan class="line" dy="0em" x="0" y="0">Coastal Areas</tspan><tspan class="line" dy="1.3em" x="0" y="0">8.02</tspan></text></g></g><g class="slice"><path class="surface" d="M306.8095570592672,136.36729625385428L314.91274274568957,95.15639500513905A168,168 0,0,0 205.94757440866186,110.45493610258265L225.08568080649638,147.841202076937A126,126 0,0,1 306.8095570592672,136.36729625385428Z" style="pointer-events: none; stroke-width: 1; fill: rgb(219, 241, 214); fill-opacity: 1; stroke: rgb(0, 0, 0); stroke-opacity: 1; opacity: 1;"/><g class="slicetext"><text data-notex="1" class="slicetext" text-anchor="middle" x="0" y="0" style="font-family: 'Times New Roman'; font-size: 12px; fill: rgb(0, 0, 0); fill-opacity: 1; white-space: pre;" transform="translate(261.60462428555667,112.40709909287057)rotate(-7.991999999999962)"><tspan class="line" dy="0em" x="0" y="0">City Landmarks</tspan><tspan class="line" dy="1.3em" x="0" y="0">10.62</tspan></text></g></g><g class="slice"><path class="surface" d="M225.08568080649638,147.841202076937L205.94757440866186,110.45493610258265A168,168 0,0,0 154.27315608573807,151.45564731508364L186.32986706430356,178.59173548631276A126,126 0,0,1 225.08568080649638,147.841202076937Z" style="pointer-events: none; stroke-width: 1; fill: rgb(242, 250, 239); fill-opacity: 1; stroke: rgb(0, 0, 0); stroke-opacity: 1; opacity: 1;"/><g class="slicetext"><text data-notex="1" class="slicetext" text-anchor="middle" x="0" y="0" style="font-family: 'Times New Roman'; font-size: 12px; fill: rgb(0, 0, 0); fill-opacity: 1; white-space: pre;" transform="translate(184.08002578937914,136.1239042275046)scale(0.6271216114657527)rotate(-38.42999999999995)"><tspan class="line" dy="0em" x="0" y="0">Shopping Districts</tspan><tspan class="line" dy="1.3em" x="0" y="0">6.29</tspan></text></g></g><g class="slice cursor-pointer"><path class="surface" d="M186.32986706430356,178.59173548631276L154.27315608573807,151.45564731508364A168,168 0,0,0 146.27559042016128,358.3204466762857L180.33169281512096,333.7403350072143A126,126 0,0,1 186.32986706430356,178.59173548631276Z" style="pointer-events: none; stroke-width: 1; fill: rgb(125, 200, 125); fill-opacity: 1; stroke: rgb(0, 0, 0); stroke-opacity: 1;"/><g class="slicetext"><text data-notex="1" class="slicetext" text-anchor="middle" x="0" y="0" style="font-family: 'Times New Roman'; font-size: 12px; fill: rgb(0, 0, 0); fill-opacity: 1; white-space: pre;" transform="translate(134.36362676830493,254.27292426725415)rotate(-87.78599999999994)"><tspan class="line" dy="0em" x="0" y="0">Local Cuisine</tspan><tspan class="line" dy="1.3em" x="0" y="0">21.13</tspan></text></g></g><g class="slice"><path class="surface" d="M154.27315608573807,151.45564731508364L122.21644510717258,124.31955914385458A210,210 0,0,0 72.77866387234818,249.18514110898923L114.72293109787853,251.3481128871914A168,168 0,0,1 154.27315608573807,151.45564731508364Z" style="pointer-events: none; stroke-width: 1; fill: rgb(221, 242, 216); fill-opacity: 1; stroke: rgb(0, 0, 0); stroke-opacity: 1; opacity: 1;"/><g class="slicetext"><text data-notex="1" class="slicetext" text-anchor="middle" x="0" y="0" style="font-family: 'Times New Roman'; font-size: 12px; fill: rgb(0, 0, 0); fill-opacity: 1; white-space: pre;" transform="translate(104.70282367356916,189.6051180072189)rotate(-68.39999999999998)"><tspan class="line" dy="0em" x="0" y="0">Street Food</tspan><tspan class="line" dy="1.3em" x="0" y="0">10.36</tspan></text></g></g><g class="slice"><path class="surface" d="M114.72293109787853,251.3481128871914L72.77866387234818,249.18514110898923A210,210 0,0,0 82.3343932254079,323.51165140790596L122.36751458032631,310.80932112632473A168,168 0,0,1 114.72293109787853,251.3481128871914Z" style="pointer-events: none; stroke-width: 1; fill: rgb(244, 251, 242); fill-opacity: 1; stroke: rgb(0, 0, 0); stroke-opacity: 1; opacity: 1;"/><g class="slicetext"><text data-notex="1" class="slicetext" text-anchor="middle" x="0" y="0" style="font-family: 'Times New Roman'; font-size: 12px; fill: rgb(0, 0, 0); fill-opacity: 1; white-space: pre;" transform="translate(88.2347891292277,284.87691089476954)scale(0.5963454944841181)rotate(82.67399999999998)"><tspan class="line" dy="0em" x="0" y="0">Cultural Dining Events</tspan><tspan class="line" dy="1.3em" x="0" y="0">5.71</tspan></text></g></g><g class="slice"><path class="surface" d="M122.36751458032631,310.80932112632473L82.3343932254079,323.51165140790596A210,210 0,0,0 112.21948802520157,382.9005583453571L146.27559042016128,358.3204466762857A168,168 0,0,1 122.36751458032631,310.80932112632473Z" style="pointer-events: none; stroke-width: 1; fill: rgb(247, 252, 245); fill-opacity: 1; stroke: rgb(0, 0, 0); stroke-opacity: 1; opacity: 1;"/><g class="slicetext"><text data-notex="1" class="slicetext" text-anchor="middle" x="0" y="0" style="font-family: 'Times New Roman'; font-size: 12px; fill: rgb(0, 0, 0); fill-opacity: 1; white-space: pre;" transform="translate(105.9183614412549,348.7600204468232)scale(0.5315949594003389)rotate(63.28800000000001)"><tspan class="line" dy="0em" x="0" y="0">Traditional Restaurants</tspan><tspan class="line" dy="1.3em" x="0" y="0">5.06</tspan></text></g></g></g></g><g class="glimages"/><defs id="topdefs-b84ed6"><g class="clips"/></defs><g class="layer-above"><g class="imagelayer"/><g class="shapelayer"/></g><g class="infolayer"><g class="cbf6a884 colorbar" transform="translate(10,50)"><rect class="cbbg" x="571.5" y="63" width="48.015625" height="295" style="fill: rgb(0, 0, 0); fill-opacity: 0; stroke: rgb(68, 68, 68); stroke-opacity: 1; stroke-width: 0;"/><g class="cbfills" transform="translate(0,93)"><rect class="cbfill gradient_filled" style="fill: url('#gb84ed6-cbf6a884');" x="582" y="0" width="15" height="254"/></g><g class="cblines" transform="translate(0,93)"/><g class="cbaxis crisp" transform="translate(0,-50)"><g class="ycbf6a884tick"><text text-anchor="start" x="600.4" y="4.199999999999999" transform="translate(0,359.83000000000004)" style="font-family: 'Times New Roman'; font-size: 12px; fill: rgb(42, 63, 95); fill-opacity: 1; white-space: pre; opacity: 1;">10</text></g><g class="ycbf6a884tick"><text text-anchor="start" x="600.4" y="4.199999999999999" style="font-family: 'Times New Roman'; font-size: 12px; fill: rgb(42, 63, 95); fill-opacity: 1; white-space: pre; opacity: 1;" transform="translate(0,322.21000000000004)">15</text></g><g class="ycbf6a884tick"><text text-anchor="start" x="600.4" y="4.199999999999999" style="font-family: 'Times New Roman'; font-size: 12px; fill: rgb(42, 63, 95); fill-opacity: 1; white-space: pre; opacity: 1;" transform="translate(0,284.6)">20</text></g><g class="ycbf6a884tick"><text text-anchor="start" x="600.4" y="4.199999999999999" style="font-family: 'Times New Roman'; font-size: 12px; fill: rgb(42, 63, 95); fill-opacity: 1; white-space: pre; opacity: 1;" transform="translate(0,246.98000000000008)">25</text></g><g class="ycbf6a884tick"><text text-anchor="start" x="600.4" y="4.199999999999999" style="font-family: 'Times New Roman'; font-size: 12px; fill: rgb(42, 63, 95); fill-opacity: 1; white-space: pre; opacity: 1;" transform="translate(0,209.36000000000007)">30</text></g><g class="ycbf6a884tick"><text text-anchor="start" x="600.4" y="4.199999999999999" style="font-family: 'Times New Roman'; font-size: 12px; fill: rgb(42, 63, 95); fill-opacity: 1; white-space: pre; opacity: 1;" transform="translate(0,171.74000000000007)">35</text></g></g><g class="cbtitleunshift" transform="translate(-10,-50)"><g class="cbtitle" transform="translate(-0.5,-0.5)"><text class="ycbf6a884title" x="592.25" y="135.75" text-anchor="start" style="opacity: 1; font-family: 'Times New Roman'; font-size: 13px; fill: rgb(42, 63, 95); fill-opacity: 1; white-space: pre;">%</text></g></g><rect class="cboutline" x="582" y="93" width="15" height="254" style="stroke: rgb(68, 68, 68); stroke-opacity: 1; fill: none; stroke-width: 1;"/></g><g class="g-gtitle"><text class="gtitle" x="320" y="25" text-anchor="middle" dy="0em" style="opacity: 1; font-family: 'Times New Roman'; font-size: 16px; fill: rgb(42, 63, 95); fill-opacity: 1; white-space: pre;">Tourism Distribution by Category (2022) (%)</text></g></g></svg>