<svg class="main-svg" xmlns="http://www.w3.org/2000/svg" xmlns:xlink="http://www.w3.org/1999/xlink" width="1920" height="1440" style="" viewBox="0 0 640 480"><rect x="0" y="0" width="640" height="480" style="fill: rgb(255, 255, 255); fill-opacity: 1;"/><defs id="defs-e4e2a7"><g class="clips"/><g class="gradients"><linearGradient x1="0" y1="1" x2="0" y2="0" gradientUnits="objectBoundingBox" id="ge4e2a7-cb126ad8"><stop offset="0%" stop-color="rgb(255, 245, 240)" stop-opacity="1"/><stop offset="12.5%" stop-color="rgb(254, 224, 210)" stop-opacity="1"/><stop offset="25%" stop-color="rgb(252, 187, 161)" stop-opacity="1"/><stop offset="37.5%" stop-color="rgb(252, 146, 114)" stop-opacity="1"/><stop offset="50%" stop-color="rgb(251, 106, 74)" stop-opacity="1"/><stop offset="62.5%" stop-color="rgb(239, 59, 44)" stop-opacity="1"/><stop offset="75%" stop-color="rgb(203, 24, 29)" stop-opacity="1"/><stop offset="87.5%" stop-color="rgb(165, 15, 21)" stop-opacity="1"/><stop offset="100%" stop-color="rgb(103, 0, 13)" stop-opacity="1"/></linearGradient></g><g class="patterns"/></defs><g class="bglayer"/><g class="layer-below"><g class="imagelayer"/><g class="shapelayer"/></g><g class="cartesianlayer"/><g class="polarlayer"/><g class="smithlayer"/><g class="ternarylayer"/><g class="geolayer"/><g class="funnelarealayer"/><g class="pielayer"/><g class="iciclelayer"/><g class="treemaplayer"/><g class="sunburstlayer"><g class="trace sunburst" stroke-linejoin="round" style="opacity: 1;"><g class="slice"><path class="surface" d="M282.5,260A0,0 0,1,0 282.5,260A0,0 0,1,0 282.5,260ZM324.5,260A42,42 0,1,1 240.5,260A42,42 0,1,1 324.5,260Z" style="pointer-events: none; stroke-width: 1; fill: rgb(255, 255, 255); fill-opacity: 1; stroke: rgb(0, 0, 0); stroke-opacity: 1;"/><g class="slicetext"><text data-notex="1" class="slicetext" text-anchor="middle" x="0" y="0" style="font-family: 'Times New Roman'; font-size: 12px; fill: rgb(0, 0, 0); fill-opacity: 1; white-space: pre;" transform="translate(282.5,264)">99.99</text></g></g><g class="slice cursor-pointer"><path class="surface" d="M324.5,260L366.5,260A84,84 0,0,0 202.09860001407114,235.67686532737443L242.29930000703558,247.83843266368723A42,42 0,0,1 324.5,260Z" style="pointer-events: none; stroke-width: 1; fill: rgb(103, 0, 13); fill-opacity: 1; stroke: rgb(0, 0, 0); stroke-opacity: 1;"/><g class="slicetext"><text data-notex="1" class="slicetext" text-anchor="middle" x="0" y="0" style="font-family: 'Times New Roman'; font-size: 12px; fill: rgb(0, 0, 0); fill-opacity: 1; white-space: pre;" transform="translate(291.1012661473427,200.878078478023)scale(0.8791360264852178)rotate(8.415841584158443)"><tspan class="line" dy="0em" x="0" y="0">Freight and Logistics</tspan><tspan class="line" dy="1.3em" x="0" y="0">45.32</tspan></text></g></g><g class="slice cursor-pointer"><path class="surface" d="M242.29930000703558,247.83843266368723L202.09860001407114,235.67686532737443A84,84 0,0,0 293.80099973330186,343.23633464436017L288.15049986665093,301.61816732218006A42,42 0,0,1 242.29930000703558,247.83843266368723Z" style="pointer-events: none; stroke-width: 1; fill: rgb(228, 48, 39); fill-opacity: 1; stroke: rgb(0, 0, 0); stroke-opacity: 1;"/><g class="slicetext"><text data-notex="1" class="slicetext" text-anchor="middle" x="0" y="0" style="font-family: 'Times New Roman'; font-size: 12px; fill: rgb(0, 0, 0); fill-opacity: 1; white-space: pre;" transform="translate(240.31321323234468,295.5361626921286)rotate(49.54995499549955)"><tspan class="line" dy="0em" x="0" y="0">Air Transport</tspan><tspan class="line" dy="1.3em" x="0" y="0">31.82</tspan></text></g></g><g class="slice cursor-pointer"><path class="surface" d="M288.15049986665093,301.61816732218006L293.80099973330186,343.23633464436017A84,84 0,0,0 366.5,260L324.5,260A42,42 0,0,1 288.15049986665093,301.61816732218006Z" style="pointer-events: none; stroke-width: 1; fill: rgb(251, 125, 93); fill-opacity: 1; stroke: rgb(0, 0, 0); stroke-opacity: 1;"/><g class="slicetext"><text data-notex="1" class="slicetext" text-anchor="middle" x="0" y="0" style="font-family: 'Times New Roman'; font-size: 12px; fill: rgb(0, 0, 0); fill-opacity: 1; white-space: pre;" transform="translate(324.85234202942667,296.99073172368725)scale(0.9605486323010844)rotate(-48.865886588658896)"><tspan class="line" dy="0em" x="0" y="0">Urban Mobility</tspan><tspan class="line" dy="1.3em" x="0" y="0">22.85</tspan></text></g></g><g class="slice"><path class="surface" d="M366.5,260L408.5,260A126,126 0,0,0 161.89790002110672,223.51529799106163L202.09860001407114,235.67686532737443A84,84 0,0,1 366.5,260Z" style="pointer-events: none; stroke-width: 1; fill: rgb(103, 0, 13); fill-opacity: 1; stroke: rgb(0, 0, 0); stroke-opacity: 1; opacity: 1;"/><g class="slicetext"><text data-notex="1" class="slicetext" text-anchor="middle" x="0" y="0" style="font-family: 'Times New Roman'; font-size: 12px; fill: rgb(0, 0, 0); fill-opacity: 1; white-space: pre;" transform="translate(297.7234740495858,154.8617483074158)rotate(8.415841584158443)"><tspan class="line" dy="0em" x="0" y="0">Rail Freight</tspan><tspan class="line" dy="1.3em" x="0" y="0">45.32</tspan></text></g></g><g class="slice cursor-pointer"><path class="surface" d="M202.09860001407114,235.67686532737443L161.89790002110672,223.51529799106163A126,126 0,0,0 198.44285994377725,353.86371612912285L226.46190662918485,322.57581075274857A84,84 0,0,1 202.09860001407114,235.67686532737443Z" style="pointer-events: none; stroke-width: 1; fill: rgb(252, 164, 135); fill-opacity: 1; stroke: rgb(0, 0, 0); stroke-opacity: 1;"/><g class="slicetext"><text data-notex="1" class="slicetext" text-anchor="middle" x="0" y="0" style="font-family: 'Times New Roman'; font-size: 12px; fill: rgb(0, 0, 0); fill-opacity: 1; white-space: pre;" transform="translate(190.18198255413137,285.7132478303966)scale(0.9940204789297586)rotate(74.33843384338434)"><tspan class="line" dy="0em" x="0" y="0">Commercial Airlines</tspan><tspan class="line" dy="1.3em" x="0" y="0">18.05</tspan></text></g></g><g class="slice cursor-pointer"><path class="surface" d="M226.46190662918485,322.57581075274857L198.44285994377725,353.86371612912285A126,126 0,0,0 299.45149959995274,384.8545019665402L293.80099973330186,343.23633464436017A84,84 0,0,1 226.46190662918485,322.57581075274857Z" style="pointer-events: none; stroke-width: 1; fill: rgb(253, 198, 175); fill-opacity: 1; stroke: rgb(0, 0, 0); stroke-opacity: 1;"/><g class="slicetext"><text data-notex="1" class="slicetext" text-anchor="middle" x="0" y="0" style="font-family: 'Times New Roman'; font-size: 12px; fill: rgb(0, 0, 0); fill-opacity: 1; white-space: pre;" transform="translate(253.37221141665094,354.9365503808713)rotate(17.056705670567)"><tspan class="line" dy="0em" x="0" y="0">Air Cargo</tspan><tspan class="line" dy="1.3em" x="0" y="0">13.77</tspan></text></g></g><g class="slice cursor-pointer"><path class="surface" d="M293.80099973330186,343.23633464436017L299.45149959995274,384.8545019665402A126,126 0,0,0 397.5293076679352,311.4223528967267L359.18620511195684,294.2815685978178A84,84 0,0,1 293.80099973330186,343.23633464436017Z" style="pointer-events: none; stroke-width: 1; fill: rgb(252, 180, 152); fill-opacity: 1; stroke: rgb(0, 0, 0); stroke-opacity: 1;"/><g class="slicetext"><text data-notex="1" class="slicetext" text-anchor="middle" x="0" y="0" style="font-family: 'Times New Roman'; font-size: 12px; fill: rgb(0, 0, 0); fill-opacity: 1; white-space: pre;" transform="translate(341.134655186441,338.3139065158058)rotate(-36.8226822682268)"><tspan class="line" dy="0em" x="0" y="0">Micromobility</tspan><tspan class="line" dy="1.3em" x="0" y="0">16.16</tspan></text></g></g><g class="slice"><path class="surface" d="M359.18620511195684,294.2815685978178L397.5293076679352,311.4223528967267A126,126 0,0,0 408.5,260.00000000000006L366.5,260A84,84 0,0,1 359.18620511195684,294.2815685978178Z" style="pointer-events: none; stroke-width: 1; fill: rgb(255, 239, 231); fill-opacity: 1; stroke: rgb(0, 0, 0); stroke-opacity: 1; opacity: 1;"/><g class="slicetext"><text data-notex="1" class="slicetext" text-anchor="middle" x="0" y="0" style="font-family: 'Times New Roman'; font-size: 12px; fill: rgb(0, 0, 0); fill-opacity: 1; white-space: pre;" transform="translate(391.9165859700371,283.55837187582387)scale(0.6256538468064087)rotate(-77.9567956795679)"><tspan class="line" dy="0em" x="0" y="0">Public Transit</tspan><tspan class="line" dy="1.3em" x="0" y="0">6.69</tspan></text></g></g><g class="slice cursor-pointer"><path class="surface" d="M161.89790002110672,223.51529799106163L121.69720002814228,211.35373065474886A168,168 0,0,0 170.4238132583697,385.15162150549713L198.44285994377725,353.86371612912285A126,126 0,0,1 161.89790002110672,223.51529799106163Z" style="pointer-events: none; stroke-width: 1; fill: rgb(252, 164, 135); fill-opacity: 1; stroke: rgb(0, 0, 0); stroke-opacity: 1;"/><g class="slicetext"><text data-notex="1" class="slicetext" text-anchor="middle" x="0" y="0" style="font-family: 'Times New Roman'; font-size: 12px; fill: rgb(0, 0, 0); fill-opacity: 1; white-space: pre;" transform="translate(148.04915081123363,297.5247440116793)rotate(74.33843384338434)"><tspan class="line" dy="0em" x="0" y="0">Passenger Flights</tspan><tspan class="line" dy="1.3em" x="0" y="0">18.05</tspan></text></g></g><g class="slice"><path class="surface" d="M198.44285994377725,353.86371612912285L170.4238132583697,385.15162150549713A168,168 0,0,0 250.16174828280913,424.85823448003924L258.24631121210683,383.6436758600295A126,126 0,0,1 198.44285994377725,353.86371612912285Z" style="pointer-events: none; stroke-width: 1; fill: rgb(254, 231, 220); fill-opacity: 1; stroke: rgb(0, 0, 0); stroke-opacity: 1; opacity: 1;"/><g class="slicetext"><text data-notex="1" class="slicetext" text-anchor="middle" x="0" y="0" style="font-family: 'Times New Roman'; font-size: 12px; fill: rgb(0, 0, 0); fill-opacity: 1; white-space: pre;" transform="translate(216.15750814754722,392.93799211340485)scale(0.7866236864938638)rotate(26.4716471647165)"><tspan class="line" dy="0em" x="0" y="0">Logistics Platforms</tspan><tspan class="line" dy="1.3em" x="0" y="0">8.54</tspan></text></g></g><g class="slice"><path class="surface" d="M258.24631121210683,383.6436758600295L250.16174828280913,424.85823448003924A168,168 0,0,0 305.1019994666037,426.47266928872034L299.45149959995274,384.8545019665402A126,126 0,0,1 258.24631121210683,383.6436758600295Z" style="pointer-events: none; stroke-width: 1; fill: rgb(255, 245, 240); fill-opacity: 1; stroke: rgb(0, 0, 0); stroke-opacity: 1; opacity: 1;"/><g class="slicetext"><text data-notex="1" class="slicetext" text-anchor="middle" x="0" y="0" style="font-family: 'Times New Roman'; font-size: 12px; fill: rgb(0, 0, 0); fill-opacity: 1; white-space: pre;" transform="translate(277.8785449141905,413.6016415753222)scale(0.6569503203177036)rotate(1.6831683168317113)"><tspan class="line" dy="0em" x="0" y="0">Cargo Airlines</tspan><tspan class="line" dy="1.3em" x="0" y="0">5.23</tspan></text></g></g><g class="slice"><path class="surface" d="M299.45149959995274,384.8545019665402L305.1019994666037,426.47266928872034A168,168 0,0,0 393.19318646130273,386.37649493099286L365.51988984597705,354.7823711982446A126,126 0,0,1 299.45149959995274,384.8545019665402Z" style="pointer-events: none; stroke-width: 1; fill: rgb(254, 228, 216); fill-opacity: 1; stroke: rgb(0, 0, 0); stroke-opacity: 1; opacity: 1;"/><g class="slicetext"><text data-notex="1" class="slicetext" text-anchor="middle" x="0" y="0" style="font-family: 'Times New Roman'; font-size: 12px; fill: rgb(0, 0, 0); fill-opacity: 1; white-space: pre;" transform="translate(341.2436721730562,389.05968943530115)rotate(-24.473447344734495)"><tspan class="line" dy="0em" x="0" y="0">Bike Sharing</tspan><tspan class="line" dy="1.3em" x="0" y="0">9.3</tspan></text></g></g><g class="slice"><path class="surface" d="M365.51988984597705,354.7823711982446L393.19318646130273,386.37649493099286A168,168 0,0,0 435.8724102239137,328.5631371956356L397.5293076679352,311.4223528967267A126,126 0,0,1 365.51988984597705,354.7823711982446Z" style="pointer-events: none; stroke-width: 1; fill: rgb(255, 238, 230); fill-opacity: 1; stroke: rgb(0, 0, 0); stroke-opacity: 1; opacity: 1;"/><g class="slicetext"><text data-notex="1" class="slicetext" text-anchor="middle" x="0" y="0" style="font-family: 'Times New Roman'; font-size: 12px; fill: rgb(0, 0, 0); fill-opacity: 1; white-space: pre;" transform="translate(399.39195854517635,346.4964054777608)rotate(-53.56435643564362)"><tspan class="line" dy="0em" x="0" y="0">E-Scooters</tspan><tspan class="line" dy="1.3em" x="0" y="0">6.86</tspan></text></g></g><g class="slice"><path class="surface" d="M121.69720002814228,211.35373065474886L81.49650003517786,199.1921633184361A210,210 0,0,0 74.19785216278606,286.6498631591884L115.85828173022884,281.3198905273507A168,168 0,0,1 121.69720002814228,211.35373065474886Z" style="pointer-events: none; stroke-width: 1; fill: rgb(255, 239, 231); fill-opacity: 1; stroke: rgb(0, 0, 0); stroke-opacity: 1; opacity: 1;"/><g class="slicetext"><text data-notex="1" class="slicetext" text-anchor="middle" x="0" y="0" style="font-family: 'Times New Roman'; font-size: 12px; fill: rgb(0, 0, 0); fill-opacity: 1; white-space: pre;" transform="translate(85.64931172492807,243.69961021684122)scale(0.7743398316065352)rotate(-85.22952295229527)"><tspan class="line" dy="0em" x="0" y="0">International Routes</tspan><tspan class="line" dy="1.3em" x="0" y="0">6.7</tspan></text></g></g><g class="slice"><path class="surface" d="M115.85828173022884,281.3198905273507L74.19785216278606,286.6498631591884A210,210 0,0,0 98.19531797672357,360.65676422525695L135.05625438137886,340.5254113802056A168,168 0,0,1 115.85828173022884,281.3198905273507Z" style="pointer-events: none; stroke-width: 1; fill: rgb(255, 242, 236); fill-opacity: 1; stroke: rgb(0, 0, 0); stroke-opacity: 1; opacity: 1;"/><g class="slicetext"><text data-notex="1" class="slicetext" text-anchor="middle" x="0" y="0" style="font-family: 'Times New Roman'; font-size: 12px; fill: rgb(0, 0, 0); fill-opacity: 1; white-space: pre;" transform="translate(99.27527349441405,319.2804547757422)scale(0.7651412413274815)rotate(72.03420342034201)"><tspan class="line" dy="0em" x="0" y="0">Domestic Airlines</tspan><tspan class="line" dy="1.3em" x="0" y="0">5.93</tspan></text></g></g><g class="slice"><path class="surface" d="M135.05625438137886,340.5254113802056L98.19531797672357,360.65676422525695A210,210 0,0,0 142.4047665729621,416.4395268818714L170.4238132583697,385.15162150549713A168,168 0,0,1 135.05625438137886,340.5254113802056Z" style="pointer-events: none; stroke-width: 1; fill: rgb(255, 244, 239); fill-opacity: 1; stroke: rgb(0, 0, 0); stroke-opacity: 1; opacity: 1;"/><g class="slicetext"><text data-notex="1" class="slicetext" text-anchor="middle" x="0" y="0" style="font-family: 'Times New Roman'; font-size: 12px; fill: rgb(0, 0, 0); fill-opacity: 1; white-space: pre;" transform="translate(130.09566043274643,380.6399211544051)scale(0.6922476776277823)rotate(51.602160216021616)"><tspan class="line" dy="0em" x="0" y="0">Low-Cost Carriers</tspan><tspan class="line" dy="1.3em" x="0" y="0">5.42</tspan></text></g></g></g></g><g class="glimages"/><defs id="topdefs-e4e2a7"><g class="clips"/></defs><g class="layer-above"><g class="imagelayer"/><g class="shapelayer"/></g><g class="infolayer"><g class="cb126ad8 colorbar" transform="translate(10,50)"><rect class="cbbg" x="571.5" y="63" width="48.015625" height="295" style="fill: rgb(0, 0, 0); fill-opacity: 0; stroke: rgb(68, 68, 68); stroke-opacity: 1; stroke-width: 0;"/><g class="cbfills" transform="translate(0,93)"><rect class="cbfill gradient_filled" style="fill: url('#ge4e2a7-cb126ad8');" x="582" y="0" width="15" height="254"/></g><g class="cblines" transform="translate(0,93)"/><g class="cbaxis crisp" transform="translate(0,-50)"><g class="ycb126ad8tick"><text text-anchor="start" x="600.4" y="4.199999999999999" transform="translate(0,366.7800000000001)" style="font-family: 'Times New Roman'; font-size: 12px; fill: rgb(42, 63, 95); fill-opacity: 1; white-space: pre; opacity: 1;">10</text></g><g class="ycb126ad8tick"><text text-anchor="start" x="600.4" y="4.199999999999999" style="font-family: 'Times New Roman'; font-size: 12px; fill: rgb(42, 63, 95); fill-opacity: 1; white-space: pre; opacity: 1;" transform="translate(0,303.4200000000001)">20</text></g><g class="ycb126ad8tick"><text text-anchor="start" x="600.4" y="4.199999999999999" style="font-family: 'Times New Roman'; font-size: 12px; fill: rgb(42, 63, 95); fill-opacity: 1; white-space: pre; opacity: 1;" transform="translate(0,240.06000000000006)">30</text></g><g class="ycb126ad8tick"><text text-anchor="start" x="600.4" y="4.199999999999999" style="font-family: 'Times New Roman'; font-size: 12px; fill: rgb(42, 63, 95); fill-opacity: 1; white-space: pre; opacity: 1;" transform="translate(0,176.71000000000006)">40</text></g></g><g class="cbtitleunshift" transform="translate(-10,-50)"><g class="cbtitle" transform="translate(-0.5,-0.5)"><text class="ycb126ad8title" x="592.25" y="135.75" text-anchor="start" style="opacity: 1; font-family: 'Times New Roman'; font-size: 13px; fill: rgb(42, 63, 95); fill-opacity: 1; white-space: pre;">%</text></g></g><rect class="cboutline" x="582" y="93" width="15" height="254" style="stroke: rgb(68, 68, 68); stroke-opacity: 1; fill: none; stroke-width: 1;"/></g><g class="g-gtitle"><text class="gtitle" x="320" y="25" text-anchor="middle" dy="0em" style="opacity: 1; font-family: 'Times New Roman'; font-size: 16px; fill: rgb(42, 63, 95); fill-opacity: 1; white-space: pre;">Transportation Distribution by Category (2021) (%)</text></g></g></svg>