<svg class="main-svg" xmlns="http://www.w3.org/2000/svg" xmlns:xlink="http://www.w3.org/1999/xlink" width="1920" height="1440" style="" viewBox="0 0 640 480"><rect x="0" y="0" width="640" height="480" style="fill: rgb(255, 255, 255); fill-opacity: 1;"/><defs id="defs-99cae1"><g class="clips"/><g class="gradients"><linearGradient x1="0" y1="1" x2="0" y2="0" gradientUnits="objectBoundingBox" id="g99cae1-cbe46030"><stop offset="0%" stop-color="rgb(255, 245, 235)" stop-opacity="1"/><stop offset="12.5%" stop-color="rgb(254, 230, 206)" stop-opacity="1"/><stop offset="25%" stop-color="rgb(253, 208, 162)" stop-opacity="1"/><stop offset="37.5%" stop-color="rgb(253, 174, 107)" stop-opacity="1"/><stop offset="50%" stop-color="rgb(253, 141, 60)" stop-opacity="1"/><stop offset="62.5%" stop-color="rgb(241, 105, 19)" stop-opacity="1"/><stop offset="75%" stop-color="rgb(217, 72, 1)" stop-opacity="1"/><stop offset="87.5%" stop-color="rgb(166, 54, 3)" stop-opacity="1"/><stop offset="100%" stop-color="rgb(127, 39, 4)" stop-opacity="1"/></linearGradient></g><g class="patterns"/></defs><g class="bglayer"/><g class="layer-below"><g class="imagelayer"/><g class="shapelayer"/></g><g class="cartesianlayer"/><g class="polarlayer"/><g class="smithlayer"/><g class="ternarylayer"/><g class="geolayer"/><g class="funnelarealayer"/><g class="pielayer"/><g class="iciclelayer"/><g class="treemaplayer"/><g class="sunburstlayer"><g class="trace sunburst" stroke-linejoin="round" style="opacity: 1;"><g class="slice"><path class="surface" d="M282.5,260A0,0 0,1,0 282.5,260A0,0 0,1,0 282.5,260ZM324.5,260A42,42 0,1,1 240.5,260A42,42 0,1,1 324.5,260Z" style="pointer-events: none; stroke-width: 1; fill: rgb(255, 255, 255); fill-opacity: 1; stroke: rgb(0, 0, 0); stroke-opacity: 1;"/><g class="slicetext"><text data-notex="1" class="slicetext" text-anchor="middle" x="0" y="0" style="font-family: 'Times New Roman'; font-size: 12px; fill: rgb(0, 0, 0); fill-opacity: 1; white-space: pre;" transform="translate(282.5,264)">99.98</text></g></g><g class="slice cursor-pointer"><path class="surface" d="M324.5,260L366.5,260A84,84 0,0,0 218.1221147597514,206.04179495207995L250.3110573798757,233.02089747603998A42,42 0,0,1 324.5,260Z" style="pointer-events: none; stroke-width: 1; fill: rgb(127, 39, 4); fill-opacity: 1; stroke: rgb(0, 0, 0); stroke-opacity: 1;"/><g class="slicetext"><text data-notex="1" class="slicetext" text-anchor="middle" x="0" y="0" style="font-family: 'Times New Roman'; font-size: 12px; fill: rgb(0, 0, 0); fill-opacity: 1; white-space: pre;" transform="translate(302.78247003881853,203.80387208256553)scale(0.8791360264852178)rotate(19.98399679935983)"><tspan class="line" dy="0em" x="0" y="0">Freight and Logistics</tspan><tspan class="line" dy="1.3em" x="0" y="0">38.89</tspan></text></g></g><g class="slice cursor-pointer"><path class="surface" d="M250.3110573798757,233.02089747603998L218.1221147597514,206.04179495207995A84,84 0,0,0 275.1979080658088,343.6820139180733L278.84895403290443,301.8410069590367A42,42 0,0,1 250.3110573798757,233.02089747603998Z" style="pointer-events: none; stroke-width: 1; fill: rgb(165, 54, 3); fill-opacity: 1; stroke: rgb(0, 0, 0); stroke-opacity: 1;"/><g class="slicetext"><text data-notex="1" class="slicetext" text-anchor="middle" x="0" y="0" style="font-family: 'Times New Roman'; font-size: 12px; fill: rgb(0, 0, 0); fill-opacity: 1; white-space: pre;" transform="translate(231.42299907853283,280.8250765551891)rotate(67.47749549909975)"><tspan class="line" dy="0em" x="0" y="0">Air Transport</tspan><tspan class="line" dy="1.3em" x="0" y="0">34.71</tspan></text></g></g><g class="slice cursor-pointer"><path class="surface" d="M278.84895403290443,301.8410069590367L275.1979080658088,343.6820139180733A84,84 0,0,0 366.5,260L324.5,260A42,42 0,0,1 278.84895403290443,301.8410069590367Z" style="pointer-events: none; stroke-width: 1; fill: rgb(240, 103, 18); fill-opacity: 1; stroke: rgb(0, 0, 0); stroke-opacity: 1;"/><g class="slicetext"><text data-notex="1" class="slicetext" text-anchor="middle" x="0" y="0" style="font-family: 'Times New Roman'; font-size: 12px; fill: rgb(0, 0, 0); fill-opacity: 1; white-space: pre;" transform="translate(319.2944916707787,300.14499536885216)rotate(-42.506501300260084)"><tspan class="line" dy="0em" x="0" y="0">Urban Mobility</tspan><tspan class="line" dy="1.3em" x="0" y="0">26.38</tspan></text></g></g><g class="slice"><path class="surface" d="M366.5,260L408.5,260A126,126 0,0,0 185.93317213962715,179.06269242811993L218.1221147597514,206.04179495207995A84,84 0,0,1 366.5,260Z" style="pointer-events: none; stroke-width: 1; fill: rgb(127, 39, 4); fill-opacity: 1; stroke: rgb(0, 0, 0); stroke-opacity: 1; opacity: 1;"/><g class="slicetext"><text data-notex="1" class="slicetext" text-anchor="middle" x="0" y="0" style="font-family: 'Times New Roman'; font-size: 12px; fill: rgb(0, 0, 0); fill-opacity: 1; white-space: pre;" transform="translate(318.4979733337407,160.05025239163987)rotate(19.98399679935983)"><tspan class="line" dy="0em" x="0" y="0">Rail Freight</tspan><tspan class="line" dy="1.3em" x="0" y="0">38.89</tspan></text></g></g><g class="slice cursor-pointer"><path class="surface" d="M218.1221147597514,206.04179495207995L185.93317213962715,179.06269242811993A126,126 0,0,0 217.3636587351337,367.8575776041112L239.07577249008912,331.90505173607414A84,84 0,0,1 218.1221147597514,206.04179495207995Z" style="pointer-events: none; stroke-width: 1; fill: rgb(234, 95, 14); fill-opacity: 1; stroke: rgb(0, 0, 0); stroke-opacity: 1;"/><g class="slicetext"><text data-notex="1" class="slicetext" text-anchor="middle" x="0" y="0" style="font-family: 'Times New Roman'; font-size: 12px; fill: rgb(0, 0, 0); fill-opacity: 1; white-space: pre;" transform="translate(184.54370885960597,276.30771878572705)rotate(80.54810962192437)"><tspan class="line" dy="0em" x="0" y="0">Air Cargo</tspan><tspan class="line" dy="1.3em" x="0" y="0">27.45</tspan></text></g></g><g class="slice"><path class="surface" d="M239.07577249008912,331.90505173607414L217.3636587351337,367.8575776041112A126,126 0,0,0 271.54686209871323,385.52302087711L275.1979080658088,343.6820139180733A84,84 0,0,1 239.07577249008912,331.90505173607414Z" style="pointer-events: none; stroke-width: 1; fill: rgb(254, 237, 220); fill-opacity: 1; stroke: rgb(0, 0, 0); stroke-opacity: 1; opacity: 1;"/><g class="slicetext"><text data-notex="1" class="slicetext" text-anchor="middle" x="0" y="0" style="font-family: 'Times New Roman'; font-size: 12px; fill: rgb(0, 0, 0); fill-opacity: 1; white-space: pre;" transform="translate(246.9963276477735,368.64523872047675)scale(0.47448300875110133)rotate(18.057611522304455)"><tspan class="line" dy="0em" x="0" y="0">Commercial Airlines</tspan><tspan class="line" dy="1.3em" x="0" y="0">7.26</tspan></text></g></g><g class="slice cursor-pointer"><path class="surface" d="M275.1979080658088,343.6820139180733L271.54686209871323,385.52302087711A126,126 0,0,0 378.9140625791587,341.119224213389L346.77604171943915,314.07948280892595A84,84 0,0,1 275.1979080658088,343.6820139180733Z" style="pointer-events: none; stroke-width: 1; fill: rgb(253, 194, 139); fill-opacity: 1; stroke: rgb(0, 0, 0); stroke-opacity: 1;"/><g class="slicetext"><text data-notex="1" class="slicetext" text-anchor="middle" x="0" y="0" style="font-family: 'Times New Roman'; font-size: 12px; fill: rgb(0, 0, 0); fill-opacity: 1; white-space: pre;" transform="translate(319.63250031704786,350.6644131785352)rotate(-22.468493698739735)"><tspan class="line" dy="0em" x="0" y="0">Public Transit</tspan><tspan class="line" dy="1.3em" x="0" y="0">15.25</tspan></text></g></g><g class="slice cursor-pointer"><path class="surface" d="M346.77604171943915,314.07948280892595L378.9140625791587,341.119224213389A126,126 0,0,0 408.5,260.00000000000006L366.5,260A84,84 0,0,1 346.77604171943915,314.07948280892595Z" style="pointer-events: none; stroke-width: 1; fill: rgb(254, 220, 186); fill-opacity: 1; stroke: rgb(0, 0, 0); stroke-opacity: 1;"/><g class="slicetext"><text data-notex="1" class="slicetext" text-anchor="middle" x="0" y="0" style="font-family: 'Times New Roman'; font-size: 12px; fill: rgb(0, 0, 0); fill-opacity: 1; white-space: pre;" transform="translate(379.8816294609496,295.5171887195597)scale(0.9211313818802543)rotate(-69.96199239847965)"><tspan class="line" dy="0em" x="0" y="0">Micromobility</tspan><tspan class="line" dy="1.3em" x="0" y="0">11.13</tspan></text></g></g><g class="slice"><path class="surface" d="M185.93317213962715,179.06269242811993L153.74422951950285,152.08358990415988A168,168 0,0,0 117.35937818816956,290.8638142102041L158.64453364112717,283.1478606576531A126,126 0,0,1 185.93317213962715,179.06269242811993Z" style="pointer-events: none; stroke-width: 1; fill: rgb(253, 203, 155); fill-opacity: 1; stroke: rgb(0, 0, 0); stroke-opacity: 1; opacity: 1;"/><g class="slicetext"><text data-notex="1" class="slicetext" text-anchor="middle" x="0" y="0" style="font-family: 'Times New Roman'; font-size: 12px; fill: rgb(0, 0, 0); fill-opacity: 1; white-space: pre;" transform="translate(139.29322130018593,222.6242194367745)rotate(-75.30906181236253)"><tspan class="line" dy="0em" x="0" y="0">Cargo Airlines</tspan><tspan class="line" dy="1.3em" x="0" y="0">14.04</tspan></text></g></g><g class="slice"><path class="surface" d="M158.64453364112717,283.1478606576531L117.35937818816956,290.8638142102041A168,168 0,0,0 195.65154498017824,403.8101034721483L217.3636587351337,367.8575776041112A126,126 0,0,1 158.64453364112717,283.1478606576531Z" style="pointer-events: none; stroke-width: 1; fill: rgb(253, 208, 163); fill-opacity: 1; stroke: rgb(0, 0, 0); stroke-opacity: 1; opacity: 1;"/><g class="slicetext"><text data-notex="1" class="slicetext" text-anchor="middle" x="0" y="0" style="font-family: 'Times New Roman'; font-size: 12px; fill: rgb(0, 0, 0); fill-opacity: 1; white-space: pre;" transform="translate(168.13318810622926,339.07722109439953)rotate(55.27105421084218)"><tspan class="line" dy="0em" x="0" y="0">Logistics Platforms</tspan><tspan class="line" dy="1.3em" x="0" y="0">13.41</tspan></text></g></g><g class="slice cursor-pointer"><path class="surface" d="M271.54686209871323,385.52302087711L267.8958161316176,427.36402783614665A168,168 0,0,0 411.0520834388783,368.15896561785195L378.9140625791587,341.119224213389A126,126 0,0,1 271.54686209871323,385.52302087711Z" style="pointer-events: none; stroke-width: 1; fill: rgb(253, 194, 139); fill-opacity: 1; stroke: rgb(0, 0, 0); stroke-opacity: 1;"/><g class="slicetext"><text data-notex="1" class="slicetext" text-anchor="middle" x="0" y="0" style="font-family: 'Times New Roman'; font-size: 12px; fill: rgb(0, 0, 0); fill-opacity: 1; white-space: pre;" transform="translate(335.6060005771909,388.8381842528486)rotate(-22.468493698739735)"><tspan class="line" dy="0em" x="0" y="0">Subway Networks</tspan><tspan class="line" dy="1.3em" x="0" y="0">15.25</tspan></text></g></g><g class="slice"><path class="surface" d="M378.9140625791587,341.119224213389L411.0520834388783,368.15896561785195A168,168 0,0,0 442.0773050951965,312.5269806723608L402.1829788213974,299.3952355042706A126,126 0,0,1 378.9140625791587,341.119224213389Z" style="pointer-events: none; stroke-width: 1; fill: rgb(255, 241, 228); fill-opacity: 1; stroke: rgb(0, 0, 0); stroke-opacity: 1; opacity: 1;"/><g class="slicetext"><text data-notex="1" class="slicetext" text-anchor="middle" x="0" y="0" style="font-family: 'Times New Roman'; font-size: 12px; fill: rgb(0, 0, 0); fill-opacity: 1; white-space: pre;" transform="translate(411.29896622258786,332.0096600578536)scale(0.9591727771276373)rotate(-60.852170434086815)"><tspan class="line" dy="0em" x="0" y="0">E-Scooters</tspan><tspan class="line" dy="1.3em" x="0" y="0">6.07</tspan></text></g></g><g class="slice"><path class="surface" d="M402.1829788213974,299.3952355042706L442.0773050951965,312.5269806723608A168,168 0,0,0 450.5,260.00000000000006L408.5,260.00000000000006A126,126 0,0,1 402.1829788213974,299.3952355042706Z" style="pointer-events: none; stroke-width: 1; fill: rgb(255, 245, 235); fill-opacity: 1; stroke: rgb(0, 0, 0); stroke-opacity: 1; opacity: 1;"/><g class="slicetext"><text data-notex="1" class="slicetext" text-anchor="middle" x="0" y="0" style="font-family: 'Times New Roman'; font-size: 12px; fill: rgb(0, 0, 0); fill-opacity: 1; white-space: pre;" transform="translate(433.37661179377477,284.19304618584556)scale(0.709814606680772)rotate(-80.89017803560705)"><tspan class="line" dy="0em" x="0" y="0">Bike Sharing</tspan><tspan class="line" dy="1.3em" x="0" y="0">5.06</tspan></text></g></g><g class="slice"><path class="surface" d="M267.8958161316176,427.36402783614665L264.24477016452204,469.20503479518334A210,210 0,0,0 331.46898574898137,464.210769634503L321.6751885991851,423.36861570760243A168,168 0,0,1 267.8958161316176,427.36402783614665Z" style="pointer-events: none; stroke-width: 1; fill: rgb(255, 245, 234); fill-opacity: 1; stroke: rgb(0, 0, 0); stroke-opacity: 1; opacity: 1;"/><g class="slicetext"><text data-notex="1" class="slicetext" text-anchor="middle" x="0" y="0" style="font-family: 'Times New Roman'; font-size: 12px; fill: rgb(0, 0, 0); fill-opacity: 1; white-space: pre;" transform="translate(296.8366412657066,454.4639591033715)scale(0.6722909484979028)rotate(-4.248849769954063)"><tspan class="line" dy="0em" x="0" y="0">Monorail Systems</tspan><tspan class="line" dy="1.3em" x="0" y="0">5.13</tspan></text></g></g><g class="slice"><path class="surface" d="M321.6751885991851,423.36861570760243L331.46898574898137,464.210769634503A210,210 0,0,0 393.5354712526766,438.24456267638584L371.3283770021413,402.59565014110865A168,168 0,0,1 321.6751885991851,423.36861570760243Z" style="pointer-events: none; stroke-width: 1; fill: rgb(255, 245, 234); fill-opacity: 1; stroke: rgb(0, 0, 0); stroke-opacity: 1; opacity: 1;"/><g class="slicetext"><text data-notex="1" class="slicetext" text-anchor="middle" x="0" y="0" style="font-family: 'Times New Roman'; font-size: 12px; fill: rgb(0, 0, 0); fill-opacity: 1; white-space: pre;" transform="translate(357.4734378427207,439.78855416955065)scale(0.6835032989172859)rotate(-22.702540508101606)"><tspan class="line" dy="0em" x="0" y="0">Light Rail Transit</tspan><tspan class="line" dy="1.3em" x="0" y="0">5.12</tspan></text></g></g><g class="slice"><path class="surface" d="M371.3283770021413,402.59565014110865L393.5354712526766,438.24456267638584A210,210 0,0,0 443.1901042985979,395.1987070223149L411.0520834388783,368.15896561785195A168,168 0,0,1 371.3283770021413,402.59565014110865Z" style="pointer-events: none; stroke-width: 1; fill: rgb(255, 245, 235); fill-opacity: 1; stroke: rgb(0, 0, 0); stroke-opacity: 1; opacity: 1;"/><g class="slicetext"><text data-notex="1" class="slicetext" text-anchor="middle" x="0" y="0" style="font-family: 'Times New Roman'; font-size: 12px; fill: rgb(0, 0, 0); fill-opacity: 1; white-space: pre;" transform="translate(411.08928223851063,408.3314369332974)scale(0.606537100624499)rotate(-40.92218443688739)"><tspan class="line" dy="0em" x="0" y="0">Underground Metro</tspan><tspan class="line" dy="1.3em" x="0" y="0">5</tspan></text></g></g></g></g><g class="glimages"/><defs id="topdefs-99cae1"><g class="clips"/></defs><g class="layer-above"><g class="imagelayer"/><g class="shapelayer"/></g><g class="infolayer"><g class="cbe46030 colorbar" transform="translate(10,50)"><rect class="cbbg" x="571.5" y="63" width="48.015625" height="295" style="fill: rgb(0, 0, 0); fill-opacity: 0; stroke: rgb(68, 68, 68); stroke-opacity: 1; stroke-width: 0;"/><g class="cbfills" transform="translate(0,93)"><rect class="cbfill gradient_filled" style="fill: url('#g99cae1-cbe46030');" x="582" y="0" width="15" height="254"/></g><g class="cblines" transform="translate(0,93)"/><g class="cbaxis crisp" transform="translate(0,-50)"><g class="ycbe46030tick"><text text-anchor="start" x="600.4" y="4.199999999999999" transform="translate(0,397.00000000000006)" style="font-family: 'Times New Roman'; font-size: 12px; fill: rgb(42, 63, 95); fill-opacity: 1; white-space: pre; opacity: 1;">5</text></g><g class="ycbe46030tick"><text text-anchor="start" x="600.4" y="4.199999999999999" style="font-family: 'Times New Roman'; font-size: 12px; fill: rgb(42, 63, 95); fill-opacity: 1; white-space: pre; opacity: 1;" transform="translate(0,359.5300000000001)">10</text></g><g class="ycbe46030tick"><text text-anchor="start" x="600.4" y="4.199999999999999" style="font-family: 'Times New Roman'; font-size: 12px; fill: rgb(42, 63, 95); fill-opacity: 1; white-space: pre; opacity: 1;" transform="translate(0,322.05000000000007)">15</text></g><g class="ycbe46030tick"><text text-anchor="start" x="600.4" y="4.199999999999999" style="font-family: 'Times New Roman'; font-size: 12px; fill: rgb(42, 63, 95); fill-opacity: 1; white-space: pre; opacity: 1;" transform="translate(0,284.58000000000004)">20</text></g><g class="ycbe46030tick"><text text-anchor="start" x="600.4" y="4.199999999999999" style="font-family: 'Times New Roman'; font-size: 12px; fill: rgb(42, 63, 95); fill-opacity: 1; white-space: pre; opacity: 1;" transform="translate(0,247.10000000000005)">25</text></g><g class="ycbe46030tick"><text text-anchor="start" x="600.4" y="4.199999999999999" style="font-family: 'Times New Roman'; font-size: 12px; fill: rgb(42, 63, 95); fill-opacity: 1; white-space: pre; opacity: 1;" transform="translate(0,209.63000000000005)">30</text></g><g class="ycbe46030tick"><text text-anchor="start" x="600.4" y="4.199999999999999" style="font-family: 'Times New Roman'; font-size: 12px; fill: rgb(42, 63, 95); fill-opacity: 1; white-space: pre; opacity: 1;" transform="translate(0,172.15000000000006)">35</text></g></g><g class="cbtitleunshift" transform="translate(-10,-50)"><g class="cbtitle" transform="translate(-0.5,-0.5)"><text class="ycbe46030title" x="592.25" y="135.75" text-anchor="start" style="opacity: 1; font-family: 'Times New Roman'; font-size: 13px; fill: rgb(42, 63, 95); fill-opacity: 1; white-space: pre;">%</text></g></g><rect class="cboutline" x="582" y="93" width="15" height="254" style="stroke: rgb(68, 68, 68); stroke-opacity: 1; fill: none; stroke-width: 1;"/></g><g class="g-gtitle"><text class="gtitle" x="320" y="25" text-anchor="middle" dy="0em" style="opacity: 1; font-family: 'Times New Roman'; font-size: 16px; fill: rgb(42, 63, 95); fill-opacity: 1; white-space: pre;">Transportation Distribution by Category (2021) (%)</text></g></g></svg>