<svg class="main-svg" xmlns="http://www.w3.org/2000/svg" xmlns:xlink="http://www.w3.org/1999/xlink" width="1920" height="1440" style="" viewBox="0 0 640 480"><rect x="0" y="0" width="640" height="480" style="fill: rgb(255, 255, 255); fill-opacity: 1;"/><defs id="defs-0a835f"><g class="clips"/><g class="gradients"><linearGradient x1="0" y1="1" x2="0" y2="0" gradientUnits="objectBoundingBox" id="g0a835f-cb0256a2"><stop offset="0%" stop-color="rgb(255, 245, 235)" stop-opacity="1"/><stop offset="12.5%" stop-color="rgb(254, 230, 206)" stop-opacity="1"/><stop offset="25%" stop-color="rgb(253, 208, 162)" stop-opacity="1"/><stop offset="37.5%" stop-color="rgb(253, 174, 107)" stop-opacity="1"/><stop offset="50%" stop-color="rgb(253, 141, 60)" stop-opacity="1"/><stop offset="62.5%" stop-color="rgb(241, 105, 19)" stop-opacity="1"/><stop offset="75%" stop-color="rgb(217, 72, 1)" stop-opacity="1"/><stop offset="87.5%" stop-color="rgb(166, 54, 3)" stop-opacity="1"/><stop offset="100%" stop-color="rgb(127, 39, 4)" stop-opacity="1"/></linearGradient></g><g class="patterns"/></defs><g class="bglayer"/><g class="layer-below"><g class="imagelayer"/><g class="shapelayer"/></g><g class="cartesianlayer"/><g class="polarlayer"/><g class="smithlayer"/><g class="ternarylayer"/><g class="geolayer"/><g class="funnelarealayer"/><g class="pielayer"/><g class="iciclelayer"/><g class="treemaplayer"/><g class="sunburstlayer"><g class="trace sunburst" stroke-linejoin="round" style="opacity: 1;"><g class="slice"><path class="surface" d="M282.5,260A0,0 0,1,0 282.5,260A0,0 0,1,0 282.5,260ZM324.5,260A42,42 0,1,1 240.5,260A42,42 0,1,1 324.5,260Z" style="pointer-events: none; stroke-width: 1; fill: rgb(255, 255, 255); fill-opacity: 1; stroke: rgb(0, 0, 0); stroke-opacity: 1;"/><g class="slicetext"><text data-notex="1" class="slicetext" text-anchor="middle" x="0" y="0" style="font-family: 'Times New Roman'; font-size: 12px; fill: rgb(0, 0, 0); fill-opacity: 1; white-space: pre;" transform="translate(282.5,264)">99.99</text></g></g><g class="slice cursor-pointer"><path class="surface" d="M324.5,260L366.5,260A84,84 0,0,0 200.58722036032856,241.39095564778705L241.54361018016428,250.69547782389353A42,42 0,0,1 324.5,260Z" style="pointer-events: none; stroke-width: 1; fill: rgb(127, 39, 4); fill-opacity: 1; stroke: rgb(0, 0, 0); stroke-opacity: 1;"/><g class="slicetext"><text data-notex="1" class="slicetext" text-anchor="middle" x="0" y="0" style="font-family: 'Times New Roman'; font-size: 12px; fill: rgb(0, 0, 0); fill-opacity: 1; white-space: pre;" transform="translate(289.0159082227714,200.6120692074505)scale(0.8791360264852178)rotate(6.399639963996378)"><tspan class="line" dy="0em" x="0" y="0">Freight and Logistics</tspan><tspan class="line" dy="1.3em" x="0" y="0">46.44</tspan></text></g></g><g class="slice cursor-pointer"><path class="surface" d="M241.54361018016428,250.69547782389353L200.58722036032856,241.39095564778705A84,84 0,0,0 298.79859815729964,342.4036145936989L290.64929907864985,301.20180729684944A42,42 0,0,1 241.54361018016428,250.69547782389353Z" style="pointer-events: none; stroke-width: 1; fill: rgb(238, 100, 16); fill-opacity: 1; stroke: rgb(0, 0, 0); stroke-opacity: 1;"/><g class="slicetext"><text data-notex="1" class="slicetext" text-anchor="middle" x="0" y="0" style="font-family: 'Times New Roman'; font-size: 12px; fill: rgb(0, 0, 0); fill-opacity: 1; white-space: pre;" transform="translate(243.45622277614098,297.9610159317402)rotate(45.805580558055794)"><tspan class="line" dy="0em" x="0" y="0">Urban Mobility</tspan><tspan class="line" dy="1.3em" x="0" y="0">31.66</tspan></text></g></g><g class="slice cursor-pointer"><path class="surface" d="M290.64929907864985,301.20180729684944L298.79859815729964,342.4036145936989A84,84 0,0,0 366.5,260L324.5,260A42,42 0,0,1 290.64929907864985,301.20180729684944Z" style="pointer-events: none; stroke-width: 1; fill: rgb(253, 166, 95); fill-opacity: 1; stroke: rgb(0, 0, 0); stroke-opacity: 1;"/><g class="slicetext"><text data-notex="1" class="slicetext" text-anchor="middle" x="0" y="0" style="font-family: 'Times New Roman'; font-size: 12px; fill: rgb(0, 0, 0); fill-opacity: 1; white-space: pre;" transform="translate(325.85763052078306,296.0465535087023)rotate(-50.594059405940584)"><tspan class="line" dy="0em" x="0" y="0">Air Transport</tspan><tspan class="line" dy="1.3em" x="0" y="0">21.89</tspan></text></g></g><g class="slice"><path class="surface" d="M366.5,260L408.5,260A126,126 0,0,0 159.63083054049287,232.08643347168055L200.58722036032856,241.39095564778705A84,84 0,0,1 366.5,260Z" style="pointer-events: none; stroke-width: 1; fill: rgb(127, 39, 4); fill-opacity: 1; stroke: rgb(0, 0, 0); stroke-opacity: 1; opacity: 1;"/><g class="slicetext"><text data-notex="1" class="slicetext" text-anchor="middle" x="0" y="0" style="font-family: 'Times New Roman'; font-size: 12px; fill: rgb(0, 0, 0); fill-opacity: 1; white-space: pre;" transform="translate(293.9669365635276,154.75025699307895)rotate(6.399639963996378)"><tspan class="line" dy="0em" x="0" y="0">Road Freight</tspan><tspan class="line" dy="1.3em" x="0" y="0">46.44</tspan></text></g></g><g class="slice cursor-pointer"><path class="surface" d="M200.58722036032856,241.39095564778705L159.63083054049287,232.08643347168055A126,126 0,0,0 234.62498276808032,376.5503441652722L250.58332184538688,337.7002294435148A84,84 0,0,1 200.58722036032856,241.39095564778705Z" style="pointer-events: none; stroke-width: 1; fill: rgb(253, 163, 91); fill-opacity: 1; stroke: rgb(0, 0, 0); stroke-opacity: 1;"/><g class="slicetext"><text data-notex="1" class="slicetext" text-anchor="middle" x="0" y="0" style="font-family: 'Times New Roman'; font-size: 12px; fill: rgb(0, 0, 0); fill-opacity: 1; white-space: pre;" transform="translate(195.67060517878767,305.0749036336322)rotate(62.56525652565256)"><tspan class="line" dy="0em" x="0" y="0">Micromobility</tspan><tspan class="line" dy="1.3em" x="0" y="0">22.35</tspan></text></g></g><g class="slice cursor-pointer"><path class="surface" d="M250.58332184538688,337.7002294435148L234.62498276808032,376.5503441652722A126,126 0,0,0 306.9478972359495,383.60542189054837L298.79859815729964,342.4036145936989A84,84 0,0,1 250.58332184538688,337.7002294435148Z" style="pointer-events: none; stroke-width: 1; fill: rgb(254, 233, 211); fill-opacity: 1; stroke: rgb(0, 0, 0); stroke-opacity: 1;"/><g class="slicetext"><text data-notex="1" class="slicetext" text-anchor="middle" x="0" y="0" style="font-family: 'Times New Roman'; font-size: 12px; fill: rgb(0, 0, 0); fill-opacity: 1; white-space: pre;" transform="translate(271.86131323029065,366.2214818434489)scale(0.8201127655749173)rotate(5.571557155715482)"><tspan class="line" dy="0em" x="0" y="0">Public Transit</tspan><tspan class="line" dy="1.3em" x="0" y="0">9.31</tspan></text></g></g><g class="slice cursor-pointer"><path class="surface" d="M298.79859815729964,342.4036145936989L306.9478972359495,383.60542189054837A126,126 0,0,0 401.67973619911754,300.8924256985171L361.9531574660784,287.2616171323447A84,84 0,0,1 298.79859815729964,342.4036145936989Z" style="pointer-events: none; stroke-width: 1; fill: rgb(253, 200, 149); fill-opacity: 1; stroke: rgb(0, 0, 0); stroke-opacity: 1;"/><g class="slicetext"><text data-notex="1" class="slicetext" text-anchor="middle" x="0" y="0" style="font-family: 'Times New Roman'; font-size: 12px; fill: rgb(0, 0, 0); fill-opacity: 1; white-space: pre;" transform="translate(347.8130891339935,334.8035898453478)rotate(-41.12511251125113)"><tspan class="line" dy="0em" x="0" y="0">Air Cargo</tspan><tspan class="line" dy="1.3em" x="0" y="0">16.63</tspan></text></g></g><g class="slice"><path class="surface" d="M361.9531574660784,287.2616171323447L401.67973619911754,300.8924256985171A126,126 0,0,0 408.5,260.00000000000006L366.5,260A84,84 0,0,1 361.9531574660784,287.2616171323447Z" style="pointer-events: none; stroke-width: 1; fill: rgb(255, 244, 234); fill-opacity: 1; stroke: rgb(0, 0, 0); stroke-opacity: 1; opacity: 1;"/><g class="slicetext"><text data-notex="1" class="slicetext" text-anchor="middle" x="0" y="0" style="font-family: 'Times New Roman'; font-size: 12px; fill: rgb(0, 0, 0); fill-opacity: 1; white-space: pre;" transform="translate(386.1787741941473,275.77482166786893)scale(0.39336255237229695)rotate(9.468946894689452)"><tspan class="line" dy="0em" x="0" y="0">Commercial Airlines</tspan><tspan class="line" dy="1.3em" x="0" y="0">5.26</tspan></text></g></g><g class="slice cursor-pointer"><path class="surface" d="M159.63083054049287,232.08643347168055L118.67444072065715,222.78191129557408A168,168 0,0,0 165.48264278502995,380.54434084777307L194.73698208877244,350.40825563582985A126,126 0,0,1 159.63083054049287,232.08643347168055Z" style="pointer-events: none; stroke-width: 1; fill: rgb(253, 202, 153); fill-opacity: 1; stroke: rgb(0, 0, 0); stroke-opacity: 1;"/><g class="slicetext"><text data-notex="1" class="slicetext" text-anchor="middle" x="0" y="0" style="font-family: 'Times New Roman'; font-size: 12px; fill: rgb(0, 0, 0); fill-opacity: 1; white-space: pre;" transform="translate(146.8517237725045,300.075788748339)rotate(73.47434743474344)"><tspan class="line" dy="0em" x="0" y="0">E-Scooters</tspan><tspan class="line" dy="1.3em" x="0" y="0">16.29</tspan></text></g></g><g class="slice"><path class="surface" d="M194.73698208877244,350.40825563582985L165.48264278502995,380.54434084777307A168,168 0,0,0 218.66664369077375,415.4004588870296L234.62498276808032,376.5503441652722A126,126 0,0,1 194.73698208877244,350.40825563582985Z" style="pointer-events: none; stroke-width: 1; fill: rgb(255, 242, 229); fill-opacity: 1; stroke: rgb(0, 0, 0); stroke-opacity: 1; opacity: 1;"/><g class="slicetext"><text data-notex="1" class="slicetext" text-anchor="middle" x="0" y="0" style="font-family: 'Times New Roman'; font-size: 12px; fill: rgb(0, 0, 0); fill-opacity: 1; white-space: pre;" transform="translate(200.30040261644908,385.42140971564726)scale(0.8282905837891454)rotate(33.24032403240324)"><tspan class="line" dy="0em" x="0" y="0">Bike Sharing</tspan><tspan class="line" dy="1.3em" x="0" y="0">6.06</tspan></text></g></g><g class="slice"><path class="surface" d="M234.62498276808032,376.5503441652722L218.66664369077375,415.4004588870296A168,168 0,0,0 315.09719631459933,424.8072291873978L306.9478972359495,383.60542189054837A126,126 0,0,1 234.62498276808032,376.5503441652722Z" style="pointer-events: none; stroke-width: 1; fill: rgb(254, 233, 211); fill-opacity: 1; stroke: rgb(0, 0, 0); stroke-opacity: 1; opacity: 1;"/><g class="slicetext"><text data-notex="1" class="slicetext" text-anchor="middle" x="0" y="0" style="font-family: 'Times New Roman'; font-size: 12px; fill: rgb(0, 0, 0); fill-opacity: 1; white-space: pre;" transform="translate(268.1778677800715,405.3165754559602)scale(0.8890107914999336)rotate(5.571557155715482)"><tspan class="line" dy="0em" x="0" y="0">Subway Networks</tspan><tspan class="line" dy="1.3em" x="0" y="0">9.31</tspan></text></g></g><g class="slice"><path class="surface" d="M306.9478972359495,383.60542189054837L315.09719631459933,424.8072291873978A168,168 0,0,0 415.0448854294608,363.2271928635624L381.9086640720956,337.4203946476718A126,126 0,0,1 306.9478972359495,383.60542189054837Z" style="pointer-events: none; stroke-width: 1; fill: rgb(254, 225, 196); fill-opacity: 1; stroke: rgb(0, 0, 0); stroke-opacity: 1; opacity: 1;"/><g class="slicetext"><text data-notex="1" class="slicetext" text-anchor="middle" x="0" y="0" style="font-family: 'Times New Roman'; font-size: 12px; fill: rgb(0, 0, 0); fill-opacity: 1; white-space: pre;" transform="translate(356.80283793534,380.9093320459015)scale(0.9970902135569661)rotate(-31.63816381638162)"><tspan class="line" dy="0em" x="0" y="0">Logistics Platforms</tspan><tspan class="line" dy="1.3em" x="0" y="0">11.36</tspan></text></g></g><g class="slice"><path class="surface" d="M381.9086640720956,337.4203946476718L415.0448854294608,363.2271928635624A168,168 0,0,0 441.40631493215676,314.5232342646895L401.67973619911754,300.8924256985171A126,126 0,0,1 381.9086640720956,337.4203946476718Z" style="pointer-events: none; stroke-width: 1; fill: rgb(255, 244, 234); fill-opacity: 1; stroke: rgb(0, 0, 0); stroke-opacity: 1; opacity: 1;"/><g class="slicetext"><text data-notex="1" class="slicetext" text-anchor="middle" x="0" y="0" style="font-family: 'Times New Roman'; font-size: 12px; fill: rgb(0, 0, 0); fill-opacity: 1; white-space: pre;" transform="translate(417.4985516677976,333.1924844002745)scale(0.6613489862443291)rotate(-61.575157515751584)"><tspan class="line" dy="0em" x="0" y="0">Cargo Airlines</tspan><tspan class="line" dy="1.3em" x="0" y="0">5.27</tspan></text></g></g><g class="slice"><path class="surface" d="M118.67444072065715,222.78191129557408L77.71805090082142,213.4773891194676A210,210 0,0,0 74.56764983112168,289.39622005032226L116.15411986489735,283.5169760402578A168,168 0,0,1 118.67444072065715,222.78191129557408Z" style="pointer-events: none; stroke-width: 1; fill: rgb(255, 243, 231); fill-opacity: 1; stroke: rgb(0, 0, 0); stroke-opacity: 1; opacity: 1;"/><g class="slicetext"><text data-notex="1" class="slicetext" text-anchor="middle" x="0" y="0" style="font-family: 'Times New Roman'; font-size: 12px; fill: rgb(0, 0, 0); fill-opacity: 1; white-space: pre;" transform="translate(84.53896169458251,251.91713645362245)scale(0.8033846576602359)rotate(-87.62376237623766)"><tspan class="line" dy="0em" x="0" y="0">Safety Standards</tspan><tspan class="line" dy="1.3em" x="0" y="0">5.79</tspan></text></g></g><g class="slice"><path class="surface" d="M116.15411986489735,283.5169760402578L74.56764983112168,289.39622005032226A210,210 0,0,0 96.51415325187301,357.51545933533936L133.7113226014984,338.01236746827146A168,168 0,0,1 116.15411986489735,283.5169760402578Z" style="pointer-events: none; stroke-width: 1; fill: rgb(255, 244, 233); fill-opacity: 1; stroke: rgb(0, 0, 0); stroke-opacity: 1; opacity: 1;"/><g class="slicetext"><text data-notex="1" class="slicetext" text-anchor="middle" x="0" y="0" style="font-family: 'Times New Roman'; font-size: 12px; fill: rgb(0, 0, 0); fill-opacity: 1; white-space: pre;" transform="translate(98.68466858717632,319.0899307774182)scale(0.7616281367422434)rotate(72.14221422142214)"><tspan class="line" dy="0em" x="0" y="0">Rental Platforms</tspan><tspan class="line" dy="1.3em" x="0" y="0">5.45</tspan></text></g></g><g class="slice"><path class="surface" d="M133.7113226014984,338.01236746827146L96.51415325187301,357.51545933533936A210,210 0,0,0 136.2283034812875,410.6804260597164L165.48264278503,380.5443408477731A168,168 0,0,1 133.7113226014984,338.01236746827146Z" style="pointer-events: none; stroke-width: 1; fill: rgb(255, 245, 235); fill-opacity: 1; stroke: rgb(0, 0, 0); stroke-opacity: 1; opacity: 1;"/><g class="slicetext"><text data-notex="1" class="slicetext" text-anchor="middle" x="0" y="0" style="font-family: 'Times New Roman'; font-size: 12px; fill: rgb(0, 0, 0); fill-opacity: 1; white-space: pre;" transform="translate(128.22137515387746,375.07138943272383)scale(0.8134418092631154)rotate(53.24032403240324)"><tspan class="line" dy="0em" x="0" y="0">Parking Zones</tspan><tspan class="line" dy="1.3em" x="0" y="0">5.05</tspan></text></g></g></g></g><g class="glimages"/><defs id="topdefs-0a835f"><g class="clips"/></defs><g class="layer-above"><g class="imagelayer"/><g class="shapelayer"/></g><g class="infolayer"><g class="cb0256a2 colorbar" transform="translate(10,50)"><rect class="cbbg" x="571.5" y="63" width="48.015625" height="295" style="fill: rgb(0, 0, 0); fill-opacity: 0; stroke: rgb(68, 68, 68); stroke-opacity: 1; stroke-width: 0;"/><g class="cbfills" transform="translate(0,93)"><rect class="cbfill gradient_filled" style="fill: url('#g0a835f-cb0256a2');" x="582" y="0" width="15" height="254"/></g><g class="cblines" transform="translate(0,93)"/><g class="cbaxis crisp" transform="translate(0,-50)"><g class="ycb0256a2tick"><text text-anchor="start" x="600.4" y="4.199999999999999" transform="translate(0,366.62000000000006)" style="font-family: 'Times New Roman'; font-size: 12px; fill: rgb(42, 63, 95); fill-opacity: 1; white-space: pre; opacity: 1;">10</text></g><g class="ycb0256a2tick"><text text-anchor="start" x="600.4" y="4.199999999999999" style="font-family: 'Times New Roman'; font-size: 12px; fill: rgb(42, 63, 95); fill-opacity: 1; white-space: pre; opacity: 1;" transform="translate(0,305.26000000000005)">20</text></g><g class="ycb0256a2tick"><text text-anchor="start" x="600.4" y="4.199999999999999" style="font-family: 'Times New Roman'; font-size: 12px; fill: rgb(42, 63, 95); fill-opacity: 1; white-space: pre; opacity: 1;" transform="translate(0,243.89000000000004)">30</text></g><g class="ycb0256a2tick"><text text-anchor="start" x="600.4" y="4.199999999999999" style="font-family: 'Times New Roman'; font-size: 12px; fill: rgb(42, 63, 95); fill-opacity: 1; white-space: pre; opacity: 1;" transform="translate(0,182.52000000000007)">40</text></g></g><g class="cbtitleunshift" transform="translate(-10,-50)"><g class="cbtitle" transform="translate(-0.5,-0.5)"><text class="ycb0256a2title" x="592.25" y="135.75" text-anchor="start" style="opacity: 1; font-family: 'Times New Roman'; font-size: 13px; fill: rgb(42, 63, 95); fill-opacity: 1; white-space: pre;">%</text></g></g><rect class="cboutline" x="582" y="93" width="15" height="254" style="stroke: rgb(68, 68, 68); stroke-opacity: 1; fill: none; stroke-width: 1;"/></g><g class="g-gtitle"><text class="gtitle" x="320" y="25" text-anchor="middle" dy="0em" style="opacity: 1; font-family: 'Times New Roman'; font-size: 16px; fill: rgb(42, 63, 95); fill-opacity: 1; white-space: pre;">Transportation Distribution by Category (2021) (%)</text></g></g></svg>