<svg class="main-svg" xmlns="http://www.w3.org/2000/svg" xmlns:xlink="http://www.w3.org/1999/xlink" width="1920" height="1440" style="" viewBox="0 0 640 480"><rect x="0" y="0" width="640" height="480" style="fill: rgb(255, 255, 255); fill-opacity: 1;"/><defs id="defs-abfb36"><g class="clips"/><g class="gradients"><linearGradient x1="0" y1="1" x2="0" y2="0" gradientUnits="objectBoundingBox" id="gabfb36-cb22f49d"><stop offset="0%" stop-color="rgb(255, 245, 240)" stop-opacity="1"/><stop offset="12.5%" stop-color="rgb(254, 224, 210)" stop-opacity="1"/><stop offset="25%" stop-color="rgb(252, 187, 161)" stop-opacity="1"/><stop offset="37.5%" stop-color="rgb(252, 146, 114)" stop-opacity="1"/><stop offset="50%" stop-color="rgb(251, 106, 74)" stop-opacity="1"/><stop offset="62.5%" stop-color="rgb(239, 59, 44)" stop-opacity="1"/><stop offset="75%" stop-color="rgb(203, 24, 29)" stop-opacity="1"/><stop offset="87.5%" stop-color="rgb(165, 15, 21)" stop-opacity="1"/><stop offset="100%" stop-color="rgb(103, 0, 13)" stop-opacity="1"/></linearGradient></g><g class="patterns"/></defs><g class="bglayer"/><g class="layer-below"><g class="imagelayer"/><g class="shapelayer"/></g><g class="cartesianlayer"/><g class="polarlayer"/><g class="smithlayer"/><g class="ternarylayer"/><g class="geolayer"/><g class="funnelarealayer"/><g class="pielayer"/><g class="iciclelayer"/><g class="treemaplayer"/><g class="sunburstlayer"><g class="trace sunburst" stroke-linejoin="round" style="opacity: 1;"><g class="slice"><path class="surface" d="M282.5,260A0,0 0,1,0 282.5,260A0,0 0,1,0 282.5,260ZM324.5,260A42,42 0,1,1 240.5,260A42,42 0,1,1 324.5,260Z" style="pointer-events: none; stroke-width: 1; fill: rgb(255, 255, 255); fill-opacity: 1; stroke: rgb(0, 0, 0); stroke-opacity: 1;"/><g class="slicetext"><text data-notex="1" class="slicetext" text-anchor="middle" x="0" y="0" style="font-family: 'Times New Roman'; font-size: 12px; fill: rgb(0, 0, 0); fill-opacity: 1; white-space: pre;" transform="translate(282.5,264)">100</text></g></g><g class="slice cursor-pointer"><path class="surface" d="M324.5,260L366.5,260A84,84 0,0,0 206.67526383072902,223.85294777080088L244.5876319153645,241.92647388540044A42,42 0,0,1 324.5,260Z" style="pointer-events: none; stroke-width: 1; fill: rgb(103, 0, 13); fill-opacity: 1; stroke: rgb(0, 0, 0); stroke-opacity: 1;"/><g class="slicetext"><text data-notex="1" class="slicetext" text-anchor="middle" x="0" y="0" style="font-family: 'Times New Roman'; font-size: 12px; fill: rgb(0, 0, 0); fill-opacity: 1; white-space: pre;" transform="translate(295.5385967138139,201.69581164682293)scale(0.8791360264852178)rotate(12.744000000000028)"><tspan class="line" dy="0em" x="0" y="0">Freight and Logistics</tspan><tspan class="line" dy="1.3em" x="0" y="0">42.92</tspan></text></g></g><g class="slice cursor-pointer"><path class="surface" d="M244.5876319153645,241.92647388540044L206.67526383072902,223.85294777080088A84,84 0,0,0 266.2936286271553,342.42180249743046L274.39681431357764,301.21090124871523A42,42 0,0,1 244.5876319153645,241.92647388540044Z" style="pointer-events: none; stroke-width: 1; fill: rgb(237, 57, 43); fill-opacity: 1; stroke: rgb(0, 0, 0); stroke-opacity: 1;"/><g class="slicetext"><text data-notex="1" class="slicetext" text-anchor="middle" x="0" y="0" style="font-family: 'Times New Roman'; font-size: 12px; fill: rgb(0, 0, 0); fill-opacity: 1; white-space: pre;" transform="translate(233.8480111082962,284.463017952773)rotate(63.305999999999926)"><tspan class="line" dy="0em" x="0" y="0">Urban Mobility</tspan><tspan class="line" dy="1.3em" x="0" y="0">28.99</tspan></text></g></g><g class="slice cursor-pointer"><path class="surface" d="M274.39681431357764,301.21090124871523L266.2936286271553,342.42180249743046A84,84 0,0,0 366.5,259.99999999999994L324.5,260A42,42 0,0,1 274.39681431357764,301.21090124871523Z" style="pointer-events: none; stroke-width: 1; fill: rgb(241, 65, 48); fill-opacity: 1; stroke: rgb(0, 0, 0); stroke-opacity: 1;"/><g class="slicetext"><text data-notex="1" class="slicetext" text-anchor="middle" x="0" y="0" style="font-family: 'Times New Roman'; font-size: 12px; fill: rgb(0, 0, 0); fill-opacity: 1; white-space: pre;" transform="translate(317.28549089896745,302.8078667954723)rotate(-39.43799999999999)"><tspan class="line" dy="0em" x="0" y="0">Air Transport</tspan><tspan class="line" dy="1.3em" x="0" y="0">28.09</tspan></text></g></g><g class="slice"><path class="surface" d="M366.5,260L408.5,260A126,126 0,0,0 288.5935685580588,134.14743378767267L286.56237903870584,176.09828919178176A84,84 0,0,1 366.5,260Z" style="pointer-events: none; stroke-width: 1; fill: rgb(250, 103, 72); fill-opacity: 1; stroke: rgb(0, 0, 0); stroke-opacity: 1; opacity: 1;"/><g class="slicetext"><text data-notex="1" class="slicetext" text-anchor="middle" x="0" y="0" style="font-family: 'Times New Roman'; font-size: 12px; fill: rgb(0, 0, 0); fill-opacity: 1; white-space: pre;" transform="translate(359.18755239632236,186.4824820973062)rotate(46.38599999999997)"><tspan class="line" dy="0em" x="0" y="0">Rail Freight</tspan><tspan class="line" dy="1.3em" x="0" y="0">24.23</tspan></text></g></g><g class="slice cursor-pointer"><path class="surface" d="M286.56237903870584,176.09828919178176L288.5935685580588,134.14743378767267A126,126 0,0,0 168.76289574609353,205.77942165620135L206.67526383072902,223.85294777080088A84,84 0,0,1 286.56237903870584,176.09828919178176Z" style="pointer-events: none; stroke-width: 1; fill: rgb(252, 151, 119); fill-opacity: 1; stroke: rgb(0, 0, 0); stroke-opacity: 1;"/><g class="slicetext"><text data-notex="1" class="slicetext" text-anchor="middle" x="0" y="0" style="font-family: 'Times New Roman'; font-size: 12px; fill: rgb(0, 0, 0); fill-opacity: 1; white-space: pre;" transform="translate(227.88957384632107,169.2988401811285)rotate(-30.870000000000005)"><tspan class="line" dy="0em" x="0" y="0">Road Freight</tspan><tspan class="line" dy="1.3em" x="0" y="0">18.69</tspan></text></g></g><g class="slice cursor-pointer"><path class="surface" d="M206.67526383072902,223.85294777080088L168.76289574609353,205.77942165620135A126,126 0,0,0 175.73460071444453,326.9115051048466L211.32306714296303,304.6076700698977A84,84 0,0,1 206.67526383072902,223.85294777080088Z" style="pointer-events: none; stroke-width: 1; fill: rgb(252, 174, 146); fill-opacity: 1; stroke: rgb(0, 0, 0); stroke-opacity: 1;"/><g class="slicetext"><text data-notex="1" class="slicetext" text-anchor="middle" x="0" y="0" style="font-family: 'Times New Roman'; font-size: 12px; fill: rgb(0, 0, 0); fill-opacity: 1; white-space: pre;" transform="translate(184.6693767861108,265.29410600439365)rotate(86.7059999999999)"><tspan class="line" dy="0em" x="0" y="0">Public Transit</tspan><tspan class="line" dy="1.3em" x="0" y="0">15.99</tspan></text></g></g><g class="slice cursor-pointer"><path class="surface" d="M211.32306714296303,304.6076700698977L175.73460071444453,326.9115051048466A126,126 0,0,0 258.1904429407329,383.63270374614575L266.2936286271553,342.42180249743046A84,84 0,0,1 211.32306714296303,304.6076700698977Z" style="pointer-events: none; stroke-width: 1; fill: rgb(253, 199, 176); fill-opacity: 1; stroke: rgb(0, 0, 0); stroke-opacity: 1;"/><g class="slicetext"><text data-notex="1" class="slicetext" text-anchor="middle" x="0" y="0" style="font-family: 'Times New Roman'; font-size: 12px; fill: rgb(0, 0, 0); fill-opacity: 1; white-space: pre;" transform="translate(225.61499690287212,342.69396544457913)rotate(34.52399999999989)"><tspan class="line" dy="0em" x="0" y="0">Micromobility</tspan><tspan class="line" dy="1.3em" x="0" y="0">13</tspan></text></g></g><g class="slice"><path class="surface" d="M266.2936286271553,342.42180249743046L258.1904429407329,383.63270374614575A126,126 0,0,0 408.5,259.99999999999994L366.5,259.99999999999994A84,84 0,0,1 266.2936286271553,342.42180249743046Z" style="pointer-events: none; stroke-width: 1; fill: rgb(241, 65, 48); fill-opacity: 1; stroke: rgb(0, 0, 0); stroke-opacity: 1; opacity: 1;"/><g class="slicetext"><text data-notex="1" class="slicetext" text-anchor="middle" x="0" y="0" style="font-family: 'Times New Roman'; font-size: 12px; fill: rgb(0, 0, 0); fill-opacity: 1; white-space: pre;" transform="translate(343.2506071951853,334.11579578294635)scale(0.9940204789297586)rotate(-39.43799999999999)"><tspan class="line" dy="0em" x="0" y="0">Commercial Airlines</tspan><tspan class="line" dy="1.3em" x="0" y="0">28.09</tspan></text></g></g><g class="slice cursor-pointer"><path class="surface" d="M288.5935685580588,134.14743378767267L290.6247580774117,92.19657838356355A168,168 0,0,0 130.85052766145805,187.70589554160176L168.76289574609353,205.77942165620135A126,126 0,0,1 288.5935685580588,134.14743378767267Z" style="pointer-events: none; stroke-width: 1; fill: rgb(252, 151, 119); fill-opacity: 1; stroke: rgb(0, 0, 0); stroke-opacity: 1;"/><g class="slicetext"><text data-notex="1" class="slicetext" text-anchor="middle" x="0" y="0" style="font-family: 'Times New Roman'; font-size: 12px; fill: rgb(0, 0, 0); fill-opacity: 1; white-space: pre;" transform="translate(207.1121228701361,134.2059827211504)rotate(-30.870000000000005)"><tspan class="line" dy="0em" x="0" y="0">Highway Networks</tspan><tspan class="line" dy="1.3em" x="0" y="0">18.69</tspan></text></g></g><g class="slice"><path class="surface" d="M168.76289574609353,205.77942165620135L130.85052766145805,187.70589554160176A168,168 0,0,0 115.36954898536851,277.0708038371327L157.15216173902638,272.80310287784954A126,126 0,0,1 168.76289574609353,205.77942165620135Z" style="pointer-events: none; stroke-width: 1; fill: rgb(254, 229, 217); fill-opacity: 1; stroke: rgb(0, 0, 0); stroke-opacity: 1; opacity: 1;"/><g class="slicetext"><text data-notex="1" class="slicetext" text-anchor="middle" x="0" y="0" style="font-family: 'Times New Roman'; font-size: 12px; fill: rgb(0, 0, 0); fill-opacity: 1; white-space: pre;" transform="translate(134.1043550153928,234.45943758090039)rotate(-80.17200000000003)"><tspan class="line" dy="0em" x="0" y="0">Bus Systems</tspan><tspan class="line" dy="1.3em" x="0" y="0">8.7</tspan></text></g></g><g class="slice"><path class="surface" d="M157.15216173902638,272.80310287784954L115.36954898536851,277.0708038371327A168,168 0,0,0 140.14613428592605,349.21534013979544L175.73460071444453,326.9115051048466A126,126 0,0,1 157.15216173902638,272.80310287784954Z" style="pointer-events: none; stroke-width: 1; fill: rgb(255, 235, 226); fill-opacity: 1; stroke: rgb(0, 0, 0); stroke-opacity: 1; opacity: 1;"/><g class="slicetext"><text data-notex="1" class="slicetext" text-anchor="middle" x="0" y="0" style="font-family: 'Times New Roman'; font-size: 12px; fill: rgb(0, 0, 0); fill-opacity: 1; white-space: pre;" transform="translate(139.76067158954294,308.89559117740527)scale(0.7226177373441983)rotate(71.04599999999994)"><tspan class="line" dy="0em" x="0" y="0">Subway Networks</tspan><tspan class="line" dy="1.3em" x="0" y="0">7.29</tspan></text></g></g><g class="slice"><path class="surface" d="M175.73460071444453,326.9115051048466L140.14613428592605,349.21534013979544A168,168 0,0,0 200.64197887814424,406.7080924080666L221.10648415860817,370.03106930605A126,126 0,0,1 175.73460071444453,326.9115051048466Z" style="pointer-events: none; stroke-width: 1; fill: rgb(254, 232, 221); fill-opacity: 1; stroke: rgb(0, 0, 0); stroke-opacity: 1; opacity: 1;"/><g class="slicetext"><text data-notex="1" class="slicetext" text-anchor="middle" x="0" y="0" style="font-family: 'Times New Roman'; font-size: 12px; fill: rgb(0, 0, 0); fill-opacity: 1; white-space: pre;" transform="translate(182.758866214835,364.951039754779)rotate(43.541999999999916)"><tspan class="line" dy="0em" x="0" y="0">Bike Sharing</tspan><tspan class="line" dy="1.3em" x="0" y="0">7.99</tspan></text></g></g><g class="slice"><path class="surface" d="M221.10648415860817,370.03106930605L200.64197887814424,406.7080924080666A168,168 0,0,0 250.08725725431052,424.843604994861L258.1904429407329,383.63270374614575A126,126 0,0,1 221.10648415860817,370.03106930605Z" style="pointer-events: none; stroke-width: 1; fill: rgb(255, 245, 240); fill-opacity: 1; stroke: rgb(0, 0, 0); stroke-opacity: 1; opacity: 1;"/><g class="slicetext"><text data-notex="1" class="slicetext" text-anchor="middle" x="0" y="0" style="font-family: 'Times New Roman'; font-size: 12px; fill: rgb(0, 0, 0); fill-opacity: 1; white-space: pre;" transform="translate(230.4283578864753,401.5806773132807)scale(0.8169249472353111)rotate(20.14199999999994)"><tspan class="line" dy="0em" x="0" y="0">E-Scooters</tspan><tspan class="line" dy="1.3em" x="0" y="0">5.01</tspan></text></g></g><g class="slice"><path class="surface" d="M290.6247580774117,92.19657838356355L292.65594759676463,50.24572297945443A210,210 0,0,0 195.72136794298342,68.76854594938379L213.07709435438676,107.01483675950703A168,168 0,0,1 290.6247580774117,92.19657838356355Z" style="pointer-events: none; stroke-width: 1; fill: rgb(254, 234, 224); fill-opacity: 1; stroke: rgb(0, 0, 0); stroke-opacity: 1; opacity: 1;"/><g class="slicetext"><text data-notex="1" class="slicetext" text-anchor="middle" x="0" y="0" style="font-family: 'Times New Roman'; font-size: 12px; fill: rgb(0, 0, 0); fill-opacity: 1; white-space: pre;" transform="translate(246.11534033322624,70.46406238613284)rotate(-10.817999999999984)"><tspan class="line" dy="0em" x="0" y="0">Logistics Parks</tspan><tspan class="line" dy="1.3em" x="0" y="0">7.55</tspan></text></g></g><g class="slice"><path class="surface" d="M213.07709435438676,107.01483675950703L195.72136794298342,68.76854594938379A210,210 0,0,0 132.15333856541545,113.38526201137071L162.22267085233236,142.70820960909657A168,168 0,0,1 213.07709435438676,107.01483675950703Z" style="pointer-events: none; stroke-width: 1; fill: rgb(255, 241, 234); fill-opacity: 1; stroke: rgb(0, 0, 0); stroke-opacity: 1; opacity: 1;"/><g class="slicetext"><text data-notex="1" class="slicetext" text-anchor="middle" x="0" y="0" style="font-family: 'Times New Roman'; font-size: 12px; fill: rgb(0, 0, 0); fill-opacity: 1; white-space: pre;" transform="translate(169.98339059296444,99.99022273123279)rotate(-35.063999999999965)"><tspan class="line" dy="0em" x="0" y="0">Expressways</tspan><tspan class="line" dy="1.3em" x="0" y="0">5.92</tspan></text></g></g><g class="slice"><path class="surface" d="M162.22267085233236,142.70820960909657L132.15333856541545,113.38526201137071A210,210 0,0,0 92.93815957682256,169.63236942700212L130.85052766145805,187.7058955416017A168,168 0,0,1 162.22267085233236,142.70820960909657Z" style="pointer-events: none; stroke-width: 1; fill: rgb(255, 244, 239); fill-opacity: 1; stroke: rgb(0, 0, 0); stroke-opacity: 1; opacity: 1;"/><g class="slicetext"><text data-notex="1" class="slicetext" text-anchor="middle" x="0" y="0" style="font-family: 'Times New Roman'; font-size: 12px; fill: rgb(0, 0, 0); fill-opacity: 1; white-space: pre;" transform="translate(122.07597792757213,148.35323993380987)rotate(-55.115999999999985)"><tspan class="line" dy="0em" x="0" y="0">Toll Roads</tspan><tspan class="line" dy="1.3em" x="0" y="0">5.22</tspan></text></g></g></g></g><g class="glimages"/><defs id="topdefs-abfb36"><g class="clips"/></defs><g class="layer-above"><g class="imagelayer"/><g class="shapelayer"/></g><g class="infolayer"><g class="cb22f49d colorbar" transform="translate(10,50)"><rect class="cbbg" x="571.5" y="63" width="48.015625" height="295" style="fill: rgb(0, 0, 0); fill-opacity: 0; stroke: rgb(68, 68, 68); stroke-opacity: 1; stroke-width: 0;"/><g class="cbfills" transform="translate(0,93)"><rect class="cbfill gradient_filled" style="fill: url('#gabfb36-cb22f49d');" x="582" y="0" width="15" height="254"/></g><g class="cblines" transform="translate(0,93)"/><g class="cbaxis crisp" transform="translate(0,-50)"><g class="ycb22f49dtick"><text text-anchor="start" x="600.4" y="4.199999999999999" transform="translate(0,363.57000000000005)" style="font-family: 'Times New Roman'; font-size: 12px; fill: rgb(42, 63, 95); fill-opacity: 1; white-space: pre; opacity: 1;">10</text></g><g class="ycb22f49dtick"><text text-anchor="start" x="600.4" y="4.199999999999999" style="font-family: 'Times New Roman'; font-size: 12px; fill: rgb(42, 63, 95); fill-opacity: 1; white-space: pre; opacity: 1;" transform="translate(0,296.57000000000005)">20</text></g><g class="ycb22f49dtick"><text text-anchor="start" x="600.4" y="4.199999999999999" style="font-family: 'Times New Roman'; font-size: 12px; fill: rgb(42, 63, 95); fill-opacity: 1; white-space: pre; opacity: 1;" transform="translate(0,229.57000000000005)">30</text></g><g class="ycb22f49dtick"><text text-anchor="start" x="600.4" y="4.199999999999999" style="font-family: 'Times New Roman'; font-size: 12px; fill: rgb(42, 63, 95); fill-opacity: 1; white-space: pre; opacity: 1;" transform="translate(0,162.56000000000006)">40</text></g></g><g class="cbtitleunshift" transform="translate(-10,-50)"><g class="cbtitle" transform="translate(-0.5,-0.5)"><text class="ycb22f49dtitle" x="592.25" y="135.75" text-anchor="start" style="opacity: 1; font-family: 'Times New Roman'; font-size: 13px; fill: rgb(42, 63, 95); fill-opacity: 1; white-space: pre;">%</text></g></g><rect class="cboutline" x="582" y="93" width="15" height="254" style="stroke: rgb(68, 68, 68); stroke-opacity: 1; fill: none; stroke-width: 1;"/></g><g class="g-gtitle"><text class="gtitle" x="320" y="25" text-anchor="middle" dy="0em" style="opacity: 1; font-family: 'Times New Roman'; font-size: 16px; fill: rgb(42, 63, 95); fill-opacity: 1; white-space: pre;">Transportation Distribution by Category (2021) (%)</text></g></g></svg>