<svg class="main-svg" xmlns="http://www.w3.org/2000/svg" xmlns:xlink="http://www.w3.org/1999/xlink" width="1920" height="1440" style="" viewBox="0 0 640 480"><rect x="0" y="0" width="640" height="480" style="fill: rgb(255, 255, 255); fill-opacity: 1;"/><defs id="defs-d2bc69"><g class="clips"/><g class="gradients"><linearGradient x1="0" y1="1" x2="0" y2="0" gradientUnits="objectBoundingBox" id="gd2bc69-cb865a52"><stop offset="0%" stop-color="rgb(255, 255, 204)" stop-opacity="1"/><stop offset="12.5%" stop-color="rgb(255, 237, 160)" stop-opacity="1"/><stop offset="25%" stop-color="rgb(254, 217, 118)" stop-opacity="1"/><stop offset="37.5%" stop-color="rgb(254, 178, 76)" stop-opacity="1"/><stop offset="50%" stop-color="rgb(253, 141, 60)" stop-opacity="1"/><stop offset="62.5%" stop-color="rgb(252, 78, 42)" stop-opacity="1"/><stop offset="75%" stop-color="rgb(227, 26, 28)" stop-opacity="1"/><stop offset="87.5%" stop-color="rgb(189, 0, 38)" stop-opacity="1"/><stop offset="100%" stop-color="rgb(128, 0, 38)" stop-opacity="1"/></linearGradient></g><g class="patterns"/></defs><g class="bglayer"/><g class="layer-below"><g class="imagelayer"/><g class="shapelayer"/></g><g class="cartesianlayer"/><g class="polarlayer"/><g class="smithlayer"/><g class="ternarylayer"/><g class="geolayer"/><g class="funnelarealayer"/><g class="pielayer"/><g class="iciclelayer"/><g class="treemaplayer"/><g class="sunburstlayer"><g class="trace sunburst" stroke-linejoin="round" style="opacity: 1;"><g class="slice"><path class="surface" d="M282.5,260A0,0 0,1,0 282.5,260A0,0 0,1,0 282.5,260ZM335,260A52.5,52.5 0,1,1 230,260A52.5,52.5 0,1,1 335,260Z" style="pointer-events: none; stroke-width: 1; fill: rgb(255, 255, 255); fill-opacity: 1; stroke: rgb(0, 0, 0); stroke-opacity: 1;"/><g class="slicetext"><text data-notex="1" class="slicetext" text-anchor="middle" x="0" y="0" style="font-family: 'Times New Roman'; font-size: 12px; fill: rgb(0, 0, 0); fill-opacity: 1; white-space: pre;" transform="translate(282.5,264)">100</text></g></g><g class="slice cursor-pointer"><path class="surface" d="M335,260L387.5,260A105,105 0,0,0 204.35218330449513,189.87212575782885L243.42609165224758,224.9360628789144A52.5,52.5 0,0,1 335,260Z" style="pointer-events: none; stroke-width: 1; fill: rgb(128, 0, 38); fill-opacity: 1; stroke: rgb(0, 0, 0); stroke-opacity: 1;"/><g class="slicetext"><text data-notex="1" class="slicetext" text-anchor="middle" x="0" y="0" style="font-family: 'Times New Roman'; font-size: 12px; fill: rgb(0, 0, 0); fill-opacity: 1; white-space: pre;" transform="translate(308.85349245375835,191.17452001268776)rotate(20.951999999999998)"><tspan class="line" dy="0em" x="0" y="0">Digital Transformation</tspan><tspan class="line" dy="1.3em" x="0" y="0">38.36</tspan></text></g></g><g class="slice cursor-pointer"><path class="surface" d="M243.42609165224758,224.9360628789144L204.35218330449513,189.87212575782885A105,105 0,0,0 281.64235474244884,364.9964972968727L282.0711773712244,312.49824864843634A52.5,52.5 0,0,1 243.42609165224758,224.9360628789144Z" style="pointer-events: none; stroke-width: 1; fill: rgb(156, 0, 38); fill-opacity: 1; stroke: rgb(0, 0, 0); stroke-opacity: 1;"/><g class="slicetext"><text data-notex="1" class="slicetext" text-anchor="middle" x="0" y="0" style="font-family: 'Times New Roman'; font-size: 12px; fill: rgb(0, 0, 0); fill-opacity: 1; white-space: pre;" transform="translate(220.65624113517396,287.294400448222)rotate(66.18599999999992)"><tspan class="line" dy="0em" x="0" y="0">Corporate Strategy</tspan><tspan class="line" dy="1.3em" x="0" y="0">36.51</tspan></text></g></g><g class="slice cursor-pointer"><path class="surface" d="M282.0711773712244,312.49824864843634L281.64235474244884,364.9964972968727A105,105 0,0,0 387.5,259.99999999999994L335,259.99999999999994A52.5,52.5 0,0,1 282.0711773712244,312.49824864843634Z" style="pointer-events: none; stroke-width: 1; fill: rgb(252, 99, 48); fill-opacity: 1; stroke: rgb(0, 0, 0); stroke-opacity: 1;"/><g class="slicetext"><text data-notex="1" class="slicetext" text-anchor="middle" x="0" y="0" style="font-family: 'Times New Roman'; font-size: 12px; fill: rgb(0, 0, 0); fill-opacity: 1; white-space: pre;" transform="translate(331.52556249500907,309.89973132699686)scale(0.9895964965090489)rotate(-44.766000000000076)"><tspan class="line" dy="0em" x="0" y="0">Financial Management</tspan><tspan class="line" dy="1.3em" x="0" y="0">25.13</tspan></text></g></g><g class="slice cursor-pointer"><path class="surface" d="M387.5,260L440,260A157.5,157.5 0,0,0 301.650766378691,103.66862711819871L295.267177585794,155.7790847454658A105,105 0,0,1 387.5,260Z" style="pointer-events: none; stroke-width: 1; fill: rgb(253, 132, 57); fill-opacity: 1; stroke: rgb(0, 0, 0); stroke-opacity: 1;"/><g class="slicetext"><text data-notex="1" class="slicetext" text-anchor="middle" x="0" y="0" style="font-family: 'Times New Roman'; font-size: 12px; fill: rgb(0, 0, 0); fill-opacity: 1; white-space: pre;" transform="translate(378.4017861493534,175.12939231519888)rotate(48.49199999999996)"><tspan class="line" dy="0em" x="0" y="0">Technology Adoption</tspan><tspan class="line" dy="1.3em" x="0" y="0">23.06</tspan></text></g></g><g class="slice cursor-pointer"><path class="surface" d="M295.267177585794,155.7790847454658L301.650766378691,103.66862711819871A157.5,157.5 0,0,0 165.27827495674268,154.8081886367433L204.35218330449513,189.87212575782885A105,105 0,0,1 295.267177585794,155.7790847454658Z" style="pointer-events: none; stroke-width: 1; fill: rgb(254, 210, 110); fill-opacity: 1; stroke: rgb(0, 0, 0); stroke-opacity: 1;"/><g class="slicetext"><text data-notex="1" class="slicetext" text-anchor="middle" x="0" y="0" style="font-family: 'Times New Roman'; font-size: 12px; fill: rgb(0, 0, 0); fill-opacity: 1; white-space: pre;" transform="translate(236.42572695169204,137.13497692438366)rotate(-20.55600000000004)"><tspan class="line" dy="0em" x="0" y="0">Data Strategy</tspan><tspan class="line" dy="1.3em" x="0" y="0">15.3</tspan></text></g></g><g class="slice"><path class="surface" d="M204.35218330449513,189.87212575782885L165.27827495674268,154.8081886367433A157.5,157.5 0,0,0 281.21353211367324,417.4947459453091L281.64235474244884,364.9964972968727A105,105 0,0,1 204.35218330449513,189.87212575782885Z" style="pointer-events: none; stroke-width: 1; fill: rgb(156, 0, 38); fill-opacity: 1; stroke: rgb(0, 0, 0); stroke-opacity: 1; opacity: 1;"/><g class="slicetext"><text data-notex="1" class="slicetext" text-anchor="middle" x="0" y="0" style="font-family: 'Times New Roman'; font-size: 12px; fill: rgb(0, 0, 0); fill-opacity: 1; white-space: pre;" transform="translate(171.62269978464718,308.9350823469563)rotate(66.18599999999992)"><tspan class="line" dy="0em" x="0" y="0">Innovation Strategy</tspan><tspan class="line" dy="1.3em" x="0" y="0">36.51</tspan></text></g></g><g class="slice"><path class="surface" d="M281.64235474244884,364.9964972968727L281.21353211367324,417.4947459453091A157.5,157.5 0,0,0 403.28618216943033,361.0789206359723L363.0241214462869,327.3859470906482A105,105 0,0,1 281.64235474244884,364.9964972968727Z" style="pointer-events: none; stroke-width: 1; fill: rgb(254, 220, 124); fill-opacity: 1; stroke: rgb(0, 0, 0); stroke-opacity: 1; opacity: 1;"/><g class="slicetext"><text data-notex="1" class="slicetext" text-anchor="middle" x="0" y="0" style="font-family: 'Times New Roman'; font-size: 12px; fill: rgb(0, 0, 0); fill-opacity: 1; white-space: pre;" transform="translate(336.1096724761394,376.0006922153533)rotate(-24.804000000000087)"><tspan class="line" dy="0em" x="0" y="0">Investment Strategy</tspan><tspan class="line" dy="1.3em" x="0" y="0">14.04</tspan></text></g></g><g class="slice cursor-pointer"><path class="surface" d="M363.0241214462869,327.3859470906482L403.28618216943033,361.0789206359723A157.5,157.5 0,0,0 440,259.9999999999999L387.5,259.99999999999994A105,105 0,0,1 363.0241214462869,327.3859470906482Z" style="pointer-events: none; stroke-width: 1; fill: rgb(255, 235, 155); fill-opacity: 1; stroke: rgb(0, 0, 0); stroke-opacity: 1;"/><g class="slicetext"><text data-notex="1" class="slicetext" text-anchor="middle" x="0" y="0" style="font-family: 'Times New Roman'; font-size: 12px; fill: rgb(0, 0, 0); fill-opacity: 1; white-space: pre;" transform="translate(409.66282975881256,306.1879978259611)scale(0.814018118053246)rotate(-70.03800000000001)"><tspan class="line" dy="0em" x="0" y="0">Budgeting &amp; Planning</tspan><tspan class="line" dy="1.3em" x="0" y="0">11.09</tspan></text></g></g><g class="slice"><path class="surface" d="M440,260L492.5,260A210,210 0,0,0 418.68331611080157,100.1434880492337L384.6374870831012,140.10761603692526A157.5,157.5 0,0,1 440,260Z" style="pointer-events: none; stroke-width: 1; fill: rgb(254, 221, 126); fill-opacity: 1; stroke: rgb(0, 0, 0); stroke-opacity: 1; opacity: 1;"/><g class="slicetext"><text data-notex="1" class="slicetext" text-anchor="middle" x="0" y="0" style="font-family: 'Times New Roman'; font-size: 12px; fill: rgb(0, 0, 0); fill-opacity: 1; white-space: pre;" transform="translate(449.78659595154704,182.7523381965284)rotate(65.21399999999994)"><tspan class="line" dy="0em" x="0" y="0">AI Integration</tspan><tspan class="line" dy="1.3em" x="0" y="0">13.77</tspan></text></g></g><g class="slice"><path class="surface" d="M384.6374870831012,140.10761603692526L418.68331611080157,100.1434880492337A210,210 0,0,0 308.034355171588,51.55816949093159L301.650766378691,103.66862711819869A157.5,157.5 0,0,1 384.6374870831012,140.10761603692526Z" style="pointer-events: none; stroke-width: 1; fill: rgb(255, 243, 174); fill-opacity: 1; stroke: rgb(0, 0, 0); stroke-opacity: 1; opacity: 1;"/><g class="slicetext"><text data-notex="1" class="slicetext" text-anchor="middle" x="0" y="0" style="font-family: 'Times New Roman'; font-size: 12px; fill: rgb(0, 0, 0); fill-opacity: 1; white-space: pre;" transform="translate(359.0008237113488,85.77583299166663)rotate(23.706000000000017)"><tspan class="line" dy="0em" x="0" y="0">Cloud Computing</tspan><tspan class="line" dy="1.3em" x="0" y="0">9.29</tspan></text></g></g><g class="slice"><path class="surface" d="M301.650766378691,103.66862711819871L308.034355171588,51.55816949093162A210,210 0,0,0 196.32256652096765,68.49686697349583L217.86692489072576,116.37265023012188A157.5,157.5 0,0,1 301.650766378691,103.66862711819871Z" style="pointer-events: none; stroke-width: 1; fill: rgb(255, 246, 181); fill-opacity: 1; stroke: rgb(0, 0, 0); stroke-opacity: 1; opacity: 1;"/><g class="slicetext"><text data-notex="1" class="slicetext" text-anchor="middle" x="0" y="0" style="font-family: 'Times New Roman'; font-size: 12px; fill: rgb(0, 0, 0); fill-opacity: 1; white-space: pre;" transform="translate(253.47372524014642,68.56986939961989)scale(0.9326210109542028)rotate(-8.621999999999957)"><tspan class="line" dy="0em" x="0" y="0">Business Intelligence</tspan><tspan class="line" dy="1.3em" x="0" y="0">8.67</tspan></text></g></g><g class="slice"><path class="surface" d="M217.86692489072576,116.37265023012188L196.32256652096765,68.49686697349583A210,210 0,0,0 126.20436660899034,119.74425151565765L165.27827495674273,154.80818863674324A157.5,157.5 0,0,1 217.86692489072576,116.37265023012188Z" style="pointer-events: none; stroke-width: 1; fill: rgb(255, 255, 204); fill-opacity: 1; stroke: rgb(0, 0, 0); stroke-opacity: 1; opacity: 1;"/><g class="slicetext"><text data-notex="1" class="slicetext" text-anchor="middle" x="0" y="0" style="font-family: 'Times New Roman'; font-size: 12px; fill: rgb(0, 0, 0); fill-opacity: 1; white-space: pre;" transform="translate(166.55902031042024,101.36609381155512)scale(0.8822669476998428)rotate(-36.162000000000035)"><tspan class="line" dy="0em" x="0" y="0">Data Governance</tspan><tspan class="line" dy="1.3em" x="0" y="0">6.63</tspan></text></g></g><g class="slice"><path class="surface" d="M403.28618216943033,361.0789206359723L443.5482428925738,394.7718941812964A210,210 0,0,0 492.5,259.9999999999999L440,259.9999999999999A157.5,157.5 0,0,1 403.28618216943033,361.0789206359723Z" style="pointer-events: none; stroke-width: 1; fill: rgb(255, 235, 155); fill-opacity: 1; stroke: rgb(0, 0, 0); stroke-opacity: 1; opacity: 1;"/><g class="slicetext"><text data-notex="1" class="slicetext" text-anchor="middle" x="0" y="0" style="font-family: 'Times New Roman'; font-size: 12px; fill: rgb(0, 0, 0); fill-opacity: 1; white-space: pre;" transform="translate(453.07741314551544,321.9570137159293)rotate(-70.03800000000001)"><tspan class="line" dy="0em" x="0" y="0">Operational Forecasting</tspan><tspan class="line" dy="1.3em" x="0" y="0">11.09</tspan></text></g></g></g></g><g class="glimages"/><defs id="topdefs-d2bc69"><g class="clips"/></defs><g class="layer-above"><g class="imagelayer"/><g class="shapelayer"/></g><g class="infolayer"><g class="cb865a52 colorbar" transform="translate(10,50)"><rect class="cbbg" x="571.5" y="63" width="48.015625" height="295" style="fill: rgb(0, 0, 0); fill-opacity: 0; stroke: rgb(68, 68, 68); stroke-opacity: 1; stroke-width: 0;"/><g class="cbfills" transform="translate(0,93)"><rect class="cbfill gradient_filled" style="fill: url('#gd2bc69-cb865a52');" x="582" y="0" width="15" height="254"/></g><g class="cblines" transform="translate(0,93)"/><g class="cbaxis crisp" transform="translate(0,-50)"><g class="ycb865a52tick"><text text-anchor="start" x="600.4" y="4.199999999999999" transform="translate(0,370.0200000000001)" style="font-family: 'Times New Roman'; font-size: 12px; fill: rgb(42, 63, 95); fill-opacity: 1; white-space: pre; opacity: 1;">10</text></g><g class="ycb865a52tick"><text text-anchor="start" x="600.4" y="4.199999999999999" style="font-family: 'Times New Roman'; font-size: 12px; fill: rgb(42, 63, 95); fill-opacity: 1; white-space: pre; opacity: 1;" transform="translate(0,330.00000000000006)">15</text></g><g class="ycb865a52tick"><text text-anchor="start" x="600.4" y="4.199999999999999" style="font-family: 'Times New Roman'; font-size: 12px; fill: rgb(42, 63, 95); fill-opacity: 1; white-space: pre; opacity: 1;" transform="translate(0,289.97)">20</text></g><g class="ycb865a52tick"><text text-anchor="start" x="600.4" y="4.199999999999999" style="font-family: 'Times New Roman'; font-size: 12px; fill: rgb(42, 63, 95); fill-opacity: 1; white-space: pre; opacity: 1;" transform="translate(0,249.95000000000005)">25</text></g><g class="ycb865a52tick"><text text-anchor="start" x="600.4" y="4.199999999999999" style="font-family: 'Times New Roman'; font-size: 12px; fill: rgb(42, 63, 95); fill-opacity: 1; white-space: pre; opacity: 1;" transform="translate(0,209.92000000000007)">30</text></g><g class="ycb865a52tick"><text text-anchor="start" x="600.4" y="4.199999999999999" style="font-family: 'Times New Roman'; font-size: 12px; fill: rgb(42, 63, 95); fill-opacity: 1; white-space: pre; opacity: 1;" transform="translate(0,169.90000000000006)">35</text></g></g><g class="cbtitleunshift" transform="translate(-10,-50)"><g class="cbtitle" transform="translate(-0.5,-0.5)"><text class="ycb865a52title" x="592.25" y="135.75" text-anchor="start" style="opacity: 1; font-family: 'Times New Roman'; font-size: 13px; fill: rgb(42, 63, 95); fill-opacity: 1; white-space: pre;">%</text></g></g><rect class="cboutline" x="582" y="93" width="15" height="254" style="stroke: rgb(68, 68, 68); stroke-opacity: 1; fill: none; stroke-width: 1;"/></g><g class="g-gtitle"><text class="gtitle" x="320" y="25" text-anchor="middle" dy="0em" style="opacity: 1; font-family: 'Times New Roman'; font-size: 16px; fill: rgb(42, 63, 95); fill-opacity: 1; white-space: pre;">Business Distribution by Category (2021) (%)</text></g></g></svg>