<svg class="main-svg" xmlns="http://www.w3.org/2000/svg" xmlns:xlink="http://www.w3.org/1999/xlink" width="1920" height="1440" style="" viewBox="0 0 640 480"><rect x="0" y="0" width="640" height="480" style="fill: rgb(255, 255, 255); fill-opacity: 1;"/><defs id="defs-ef7ea7"><g class="clips"/><g class="gradients"><linearGradient x1="0" y1="1" x2="0" y2="0" gradientUnits="objectBoundingBox" id="gef7ea7-cb94dd52"><stop offset="0%" stop-color="rgb(255, 245, 235)" stop-opacity="1"/><stop offset="12.5%" stop-color="rgb(254, 230, 206)" stop-opacity="1"/><stop offset="25%" stop-color="rgb(253, 208, 162)" stop-opacity="1"/><stop offset="37.5%" stop-color="rgb(253, 174, 107)" stop-opacity="1"/><stop offset="50%" stop-color="rgb(253, 141, 60)" stop-opacity="1"/><stop offset="62.5%" stop-color="rgb(241, 105, 19)" stop-opacity="1"/><stop offset="75%" stop-color="rgb(217, 72, 1)" stop-opacity="1"/><stop offset="87.5%" stop-color="rgb(166, 54, 3)" stop-opacity="1"/><stop offset="100%" stop-color="rgb(127, 39, 4)" stop-opacity="1"/></linearGradient></g><g class="patterns"/></defs><g class="bglayer"/><g class="layer-below"><g class="imagelayer"/><g class="shapelayer"/></g><g class="cartesianlayer"/><g class="polarlayer"/><g class="smithlayer"/><g class="ternarylayer"/><g class="geolayer"/><g class="funnelarealayer"/><g class="pielayer"/><g class="iciclelayer"/><g class="treemaplayer"/><g class="sunburstlayer"><g class="trace sunburst" stroke-linejoin="round" style="opacity: 1;"><g class="slice"><path class="surface" d="M282.5,260A0,0 0,1,0 282.5,260A0,0 0,1,0 282.5,260ZM324.5,260A42,42 0,1,1 240.5,260A42,42 0,1,1 324.5,260Z" style="pointer-events: none; stroke-width: 1; fill: rgb(255, 255, 255); fill-opacity: 1; stroke: rgb(0, 0, 0); stroke-opacity: 1;"/><g class="slicetext"><text data-notex="1" class="slicetext" text-anchor="middle" x="0" y="0" style="font-family: 'Times New Roman'; font-size: 12px; fill: rgb(0, 0, 0); fill-opacity: 1; white-space: pre;" transform="translate(282.5,264)">100</text></g></g><g class="slice cursor-pointer"><path class="surface" d="M324.5,260L366.5,260A84,84 0,0,0 215.74068758047855,209.01770694375614L249.12034379023927,234.50885347187807A42,42 0,0,1 324.5,260Z" style="pointer-events: none; stroke-width: 1; fill: rgb(127, 39, 4); fill-opacity: 1; stroke: rgb(0, 0, 0); stroke-opacity: 1;"/><g class="slicetext"><text data-notex="1" class="slicetext" text-anchor="middle" x="0" y="0" style="font-family: 'Times New Roman'; font-size: 12px; fill: rgb(0, 0, 0); fill-opacity: 1; white-space: pre;" transform="translate(302.38254578240594,201.20549014932803)rotate(18.68399999999997)"><tspan class="line" dy="0em" x="0" y="0">Urban Mobility</tspan><tspan class="line" dy="1.3em" x="0" y="0">39.62</tspan></text></g></g><g class="slice cursor-pointer"><path class="surface" d="M249.12034379023927,234.50885347187807L215.74068758047855,209.01770694375614A84,84 0,0,0 293.3420915441032,343.29735320494456L287.9210457720516,301.6486766024723A42,42 0,0,1 249.12034379023927,234.50885347187807Z" style="pointer-events: none; stroke-width: 1; fill: rgb(147, 47, 3); fill-opacity: 1; stroke: rgb(0, 0, 0); stroke-opacity: 1;"/><g class="slicetext"><text data-notex="1" class="slicetext" text-anchor="middle" x="0" y="0" style="font-family: 'Times New Roman'; font-size: 12px; fill: rgb(0, 0, 0); fill-opacity: 1; white-space: pre;" transform="translate(236.49243063072902,286.4215977331022)scale(0.8791360264852178)rotate(59.976)"><tspan class="line" dy="0em" x="0" y="0">Freight and Logistics</tspan><tspan class="line" dy="1.3em" x="0" y="0">37.44</tspan></text></g></g><g class="slice cursor-pointer"><path class="surface" d="M287.9210457720516,301.6486766024723L293.3420915441032,343.29735320494456A84,84 0,0,0 366.5,260L324.5,260A42,42 0,0,1 287.9210457720516,301.6486766024723Z" style="pointer-events: none; stroke-width: 1; fill: rgb(251, 136, 54); fill-opacity: 1; stroke: rgb(0, 0, 0); stroke-opacity: 1;"/><g class="slicetext"><text data-notex="1" class="slicetext" text-anchor="middle" x="0" y="0" style="font-family: 'Times New Roman'; font-size: 12px; fill: rgb(0, 0, 0); fill-opacity: 1; white-space: pre;" transform="translate(323.89787964032774,296.7953960150405)rotate(-48.70799999999997)"><tspan class="line" dy="0em" x="0" y="0">Air Transport</tspan><tspan class="line" dy="1.3em" x="0" y="0">22.94</tspan></text></g></g><g class="slice"><path class="surface" d="M366.5,260L408.5,260A126,126 0,0,0 182.36103137071785,183.5265604156342L215.74068758047855,209.01770694375614A84,84 0,0,1 366.5,260Z" style="pointer-events: none; stroke-width: 1; fill: rgb(127, 39, 4); fill-opacity: 1; stroke: rgb(0, 0, 0); stroke-opacity: 1; opacity: 1;"/><g class="slicetext"><text data-notex="1" class="slicetext" text-anchor="middle" x="0" y="0" style="font-family: 'Times New Roman'; font-size: 12px; fill: rgb(0, 0, 0); fill-opacity: 1; white-space: pre;" transform="translate(316.2779673246626,160.11545531745102)rotate(18.68399999999997)"><tspan class="line" dy="0em" x="0" y="0">Micromobility</tspan><tspan class="line" dy="1.3em" x="0" y="0">39.62</tspan></text></g></g><g class="slice cursor-pointer"><path class="surface" d="M215.74068758047855,209.01770694375614L182.36103137071785,183.5265604156342A126,126 0,0,0 211.67749439063152,364.2121523585948L235.284996260421,329.47476823906317A84,84 0,0,1 215.74068758047855,209.01770694375614Z" style="pointer-events: none; stroke-width: 1; fill: rgb(243, 111, 26); fill-opacity: 1; stroke: rgb(0, 0, 0); stroke-opacity: 1;"/><g class="slicetext"><text data-notex="1" class="slicetext" text-anchor="middle" x="0" y="0" style="font-family: 'Times New Roman'; font-size: 12px; fill: rgb(0, 0, 0); fill-opacity: 1; white-space: pre;" transform="translate(185.4519605760602,275.40583500590515)rotate(80.78399999999999)"><tspan class="line" dy="0em" x="0" y="0">Road Freight</tspan><tspan class="line" dy="1.3em" x="0" y="0">25.88</tspan></text></g></g><g class="slice cursor-pointer"><path class="surface" d="M235.284996260421,329.47476823906317L211.67749439063152,364.2121523585948A126,126 0,0,0 298.7631373161548,384.94602980741683L293.3420915441032,343.29735320494456A84,84 0,0,1 235.284996260421,329.47476823906317Z" style="pointer-events: none; stroke-width: 1; fill: rgb(253, 219, 184); fill-opacity: 1; stroke: rgb(0, 0, 0); stroke-opacity: 1;"/><g class="slicetext"><text data-notex="1" class="slicetext" text-anchor="middle" x="0" y="0" style="font-family: 'Times New Roman'; font-size: 12px; fill: rgb(0, 0, 0); fill-opacity: 1; white-space: pre;" transform="translate(258.81425387866886,358.06726863344454)rotate(13.392000000000053)"><tspan class="line" dy="0em" x="0" y="0">Rail Freight</tspan><tspan class="line" dy="1.3em" x="0" y="0">11.56</tspan></text></g></g><g class="slice"><path class="surface" d="M293.3420915441032,343.29735320494456L298.7631373161548,384.94602980741683A126,126 0,0,0 400.14058826602644,305.1297240455029L360.9270588440176,290.08648269700194A84,84 0,0,1 293.3420915441032,343.29735320494456Z" style="pointer-events: none; stroke-width: 1; fill: rgb(253, 181, 119); fill-opacity: 1; stroke: rgb(0, 0, 0); stroke-opacity: 1; opacity: 1;"/><g class="slicetext"><text data-notex="1" class="slicetext" text-anchor="middle" x="0" y="0" style="font-family: 'Times New Roman'; font-size: 12px; fill: rgb(0, 0, 0); fill-opacity: 1; white-space: pre;" transform="translate(343.92978124730945,338.0240901381343)rotate(-38.21399999999994)"><tspan class="line" dy="0em" x="0" y="0">Air Cargo</tspan><tspan class="line" dy="1.3em" x="0" y="0">17.11</tspan></text></g></g><g class="slice cursor-pointer"><path class="surface" d="M360.9270588440176,290.08648269700194L400.14058826602644,305.1297240455029A126,126 0,0,0 408.5,260.00000000000006L366.5,260A84,84 0,0,1 360.9270588440176,290.08648269700194Z" style="pointer-events: none; stroke-width: 1; fill: rgb(255, 242, 230); fill-opacity: 1; stroke: rgb(0, 0, 0); stroke-opacity: 1;"/><g class="slicetext"><text data-notex="1" class="slicetext" text-anchor="middle" x="0" y="0" style="font-family: 'Times New Roman'; font-size: 12px; fill: rgb(0, 0, 0); fill-opacity: 1; white-space: pre;" transform="translate(385.87997710104287,277.62706871949814)scale(0.39336255237229695)rotate(10.494000000000028)"><tspan class="line" dy="0em" x="0" y="0">Commercial Airlines</tspan><tspan class="line" dy="1.3em" x="0" y="0">5.83</tspan></text></g></g><g class="slice cursor-pointer"><path class="surface" d="M182.36103137071785,183.5265604156342L148.98137516095713,158.03541388751228A168,168 0,0,0 127.73628835804695,325.3620192375236L166.4272162685352,309.0215144281427A126,126 0,0,1 182.36103137071785,183.5265604156342Z" style="pointer-events: none; stroke-width: 1; fill: rgb(253, 184, 123); fill-opacity: 1; stroke: rgb(0, 0, 0); stroke-opacity: 1;"/><g class="slicetext"><text data-notex="1" class="slicetext" text-anchor="middle" x="0" y="0" style="font-family: 'Times New Roman'; font-size: 12px; fill: rgb(0, 0, 0); fill-opacity: 1; white-space: pre;" transform="translate(136.99317405763887,241.69070166613756)rotate(-82.76400000000001)"><tspan class="line" dy="0em" x="0" y="0">Highway Networks</tspan><tspan class="line" dy="1.3em" x="0" y="0">16.74</tspan></text></g></g><g class="slice"><path class="surface" d="M166.4272162685352,309.0215144281427L127.73628835804695,325.3620192375236A168,168 0,0,0 188.069992520842,398.94953647812633L211.67749439063152,364.2121523585948A126,126 0,0,1 166.4272162685352,309.0215144281427Z" style="pointer-events: none; stroke-width: 1; fill: rgb(254, 231, 208); fill-opacity: 1; stroke: rgb(0, 0, 0); stroke-opacity: 1; opacity: 1;"/><g class="slicetext"><text data-notex="1" class="slicetext" text-anchor="middle" x="0" y="0" style="font-family: 'Times New Roman'; font-size: 12px; fill: rgb(0, 0, 0); fill-opacity: 1; white-space: pre;" transform="translate(170.81519597910963,351.3571501883493)rotate(50.652000000000044)"><tspan class="line" dy="0em" x="0" y="0">Trucking Fleets</tspan><tspan class="line" dy="1.3em" x="0" y="0">9.14</tspan></text></g></g><g class="slice"><path class="surface" d="M211.67749439063152,364.2121523585948L188.069992520842,398.94953647812633A168,168 0,0,0 251.01993914959826,425.0242581224197L258.8899543621987,383.7681935918148A126,126 0,0,1 211.67749439063152,364.2121523585948Z" style="pointer-events: none; stroke-width: 1; fill: rgb(255, 240, 225); fill-opacity: 1; stroke: rgb(0, 0, 0); stroke-opacity: 1; opacity: 1;"/><g class="slicetext"><text data-notex="1" class="slicetext" text-anchor="middle" x="0" y="0" style="font-family: 'Times New Roman'; font-size: 12px; fill: rgb(0, 0, 0); fill-opacity: 1; white-space: pre;" transform="translate(224.28164419936166,400.24901357971703)scale(0.7056666707217313)rotate(22.5)"><tspan class="line" dy="0em" x="0" y="0">Intermodal Hubs</tspan><tspan class="line" dy="1.3em" x="0" y="0">6.5</tspan></text></g></g><g class="slice"><path class="surface" d="M258.8899543621987,383.7681935918148L251.01993914959826,425.0242581224197A168,168 0,0,0 304.18418308820645,426.5947064098891L298.7631373161548,384.94602980741683A126,126 0,0,1 258.8899543621987,383.7681935918148Z" style="pointer-events: none; stroke-width: 1; fill: rgb(255, 245, 235); fill-opacity: 1; stroke: rgb(0, 0, 0); stroke-opacity: 1; opacity: 1;"/><g class="slicetext"><text data-notex="1" class="slicetext" text-anchor="middle" x="0" y="0" style="font-family: 'Times New Roman'; font-size: 12px; fill: rgb(0, 0, 0); fill-opacity: 1; white-space: pre;" transform="translate(277.86734836195564,412.6796819156173)scale(0.7127727899779793)rotate(1.6920000000000073)"><tspan class="line" dy="0em" x="0" y="0">Cargo Trains</tspan><tspan class="line" dy="1.3em" x="0" y="0">5.06</tspan></text></g></g><g class="slice"><path class="surface" d="M400.14058826602644,305.1297240455029L439.3541176880352,320.1729653940039A168,168 0,0,0 450.5,260.00000000000006L408.5,260.00000000000006A126,126 0,0,1 400.14058826602644,305.1297240455029Z" style="pointer-events: none; stroke-width: 1; fill: rgb(255, 242, 230); fill-opacity: 1; stroke: rgb(0, 0, 0); stroke-opacity: 1; opacity: 1;"/><g class="slicetext"><text data-notex="1" class="slicetext" text-anchor="middle" x="0" y="0" style="font-family: 'Times New Roman'; font-size: 12px; fill: rgb(0, 0, 0); fill-opacity: 1; white-space: pre;" transform="translate(433.8473372188536,288.13750710436756)scale(0.6192825622051196)rotate(-79.50599999999997)"><tspan class="line" dy="0em" x="0" y="0">Passenger Flights</tspan><tspan class="line" dy="1.3em" x="0" y="0">5.83</tspan></text></g></g><g class="slice"><path class="surface" d="M148.98137516095713,158.03541388751228L115.60171895119643,132.54426735939032A210,210 0,0,0 78.6143692780665,209.69443783119638L119.3914954224532,219.7555502649571A168,168 0,0,1 148.98137516095713,158.03541388751228Z" style="pointer-events: none; stroke-width: 1; fill: rgb(255, 240, 225); fill-opacity: 1; stroke: rgb(0, 0, 0); stroke-opacity: 1; opacity: 1;"/><g class="slicetext"><text data-notex="1" class="slicetext" text-anchor="middle" x="0" y="0" style="font-family: 'Times New Roman'; font-size: 12px; fill: rgb(0, 0, 0); fill-opacity: 1; white-space: pre;" transform="translate(107.6705670944315,176.37384589472245)rotate(-64.38599999999997)"><tspan class="line" dy="0em" x="0" y="0">Expressways</tspan><tspan class="line" dy="1.3em" x="0" y="0">6.53</tspan></text></g></g><g class="slice"><path class="surface" d="M119.3914954224532,219.7555502649571L78.6143692780665,209.69443783119638A210,210 0,0,0 73.20015511285374,277.13402842931305L115.06012409028298,273.7072227434504A168,168 0,0,1 119.3914954224532,219.7555502649571Z" style="pointer-events: none; stroke-width: 1; fill: rgb(255, 245, 234); fill-opacity: 1; stroke: rgb(0, 0, 0); stroke-opacity: 1; opacity: 1;"/><g class="slicetext"><text data-notex="1" class="slicetext" text-anchor="middle" x="0" y="0" style="font-family: 'Times New Roman'; font-size: 12px; fill: rgb(0, 0, 0); fill-opacity: 1; white-space: pre;" transform="translate(84.27504115120844,244.21566198259654)scale(0.7876720511897622)rotate(-85.40999999999997)"><tspan class="line" dy="0em" x="0" y="0">Logistics Parks</tspan><tspan class="line" dy="1.3em" x="0" y="0">5.15</tspan></text></g></g><g class="slice"><path class="surface" d="M115.06012409028298,273.7072227434504L73.20015511285374,277.13402842931305A210,210 0,0,0 89.04536044755866,341.7025240469045L127.73628835804695,325.3620192375236A168,168 0,0,1 115.06012409028298,273.7072227434504Z" style="pointer-events: none; stroke-width: 1; fill: rgb(255, 245, 235); fill-opacity: 1; stroke: rgb(0, 0, 0); stroke-opacity: 1; opacity: 1;"/><g class="slicetext"><text data-notex="1" class="slicetext" text-anchor="middle" x="0" y="0" style="font-family: 'Times New Roman'; font-size: 12px; fill: rgb(0, 0, 0); fill-opacity: 1; white-space: pre;" transform="translate(99.52162079083105,304.73423739400596)rotate(76.21199999999999)"><tspan class="line" dy="0em" x="0" y="0">Toll Roads</tspan><tspan class="line" dy="1.3em" x="0" y="0">5.06</tspan></text></g></g></g></g><g class="glimages"/><defs id="topdefs-ef7ea7"><g class="clips"/></defs><g class="layer-above"><g class="imagelayer"/><g class="shapelayer"/></g><g class="infolayer"><g class="cb94dd52 colorbar" transform="translate(10,50)"><rect class="cbbg" x="571.5" y="63" width="48.015625" height="295" style="fill: rgb(0, 0, 0); fill-opacity: 0; stroke: rgb(68, 68, 68); stroke-opacity: 1; stroke-width: 0;"/><g class="cbfills" transform="translate(0,93)"><rect class="cbfill gradient_filled" style="fill: url('#gef7ea7-cb94dd52');" x="582" y="0" width="15" height="254"/></g><g class="cblines" transform="translate(0,93)"/><g class="cbaxis crisp" transform="translate(0,-50)"><g class="ycb94dd52tick"><text text-anchor="start" x="600.4" y="4.199999999999999" transform="translate(0,360.69000000000005)" style="font-family: 'Times New Roman'; font-size: 12px; fill: rgb(42, 63, 95); fill-opacity: 1; white-space: pre; opacity: 1;">10</text></g><g class="ycb94dd52tick"><text text-anchor="start" x="600.4" y="4.199999999999999" style="font-family: 'Times New Roman'; font-size: 12px; fill: rgb(42, 63, 95); fill-opacity: 1; white-space: pre; opacity: 1;" transform="translate(0,323.95000000000005)">15</text></g><g class="ycb94dd52tick"><text text-anchor="start" x="600.4" y="4.199999999999999" style="font-family: 'Times New Roman'; font-size: 12px; fill: rgb(42, 63, 95); fill-opacity: 1; white-space: pre; opacity: 1;" transform="translate(0,287.20000000000005)">20</text></g><g class="ycb94dd52tick"><text text-anchor="start" x="600.4" y="4.199999999999999" style="font-family: 'Times New Roman'; font-size: 12px; fill: rgb(42, 63, 95); fill-opacity: 1; white-space: pre; opacity: 1;" transform="translate(0,250.45000000000005)">25</text></g><g class="ycb94dd52tick"><text text-anchor="start" x="600.4" y="4.199999999999999" style="font-family: 'Times New Roman'; font-size: 12px; fill: rgb(42, 63, 95); fill-opacity: 1; white-space: pre; opacity: 1;" transform="translate(0,213.70000000000005)">30</text></g><g class="ycb94dd52tick"><text text-anchor="start" x="600.4" y="4.199999999999999" style="font-family: 'Times New Roman'; font-size: 12px; fill: rgb(42, 63, 95); fill-opacity: 1; white-space: pre; opacity: 1;" transform="translate(0,176.95000000000005)">35</text></g></g><g class="cbtitleunshift" transform="translate(-10,-50)"><g class="cbtitle" transform="translate(-0.5,-0.5)"><text class="ycb94dd52title" x="592.25" y="135.75" text-anchor="start" style="opacity: 1; font-family: 'Times New Roman'; font-size: 13px; fill: rgb(42, 63, 95); fill-opacity: 1; white-space: pre;">%</text></g></g><rect class="cboutline" x="582" y="93" width="15" height="254" style="stroke: rgb(68, 68, 68); stroke-opacity: 1; fill: none; stroke-width: 1;"/></g><g class="g-gtitle"><text class="gtitle" x="320" y="25" text-anchor="middle" dy="0em" style="opacity: 1; font-family: 'Times New Roman'; font-size: 16px; fill: rgb(42, 63, 95); fill-opacity: 1; white-space: pre;">Transportation Distribution by Category (2021) (%)</text></g></g></svg>