<?xml version="1.0" encoding="utf-8" standalone="no"?>
<!DOCTYPE svg PUBLIC "-//W3C//DTD SVG 1.1//EN"
  "http://www.w3.org/Graphics/SVG/1.1/DTD/svg11.dtd">
<svg xmlns:xlink="http://www.w3.org/1999/xlink" width="494.251875pt" height="350.103437pt" viewBox="0 0 494.251875 350.103437" xmlns="http://www.w3.org/2000/svg" version="1.1">
 <metadata>
  <rdf:RDF xmlns:dc="http://purl.org/dc/elements/1.1/" xmlns:cc="http://creativecommons.org/ns#" xmlns:rdf="http://www.w3.org/1999/02/22-rdf-syntax-ns#">
   <cc:Work>
    <dc:type rdf:resource="http://purl.org/dc/dcmitype/StillImage"/>
    <dc:date>2025-06-05T23:46:15.899912</dc:date>
    <dc:format>image/svg+xml</dc:format>
    <dc:creator>
     <cc:Agent>
      <dc:title>Matplotlib v3.10.0, https://matplotlib.org/</dc:title>
     </cc:Agent>
    </dc:creator>
   </cc:Work>
  </rdf:RDF>
 </metadata>
 <defs>
  <style type="text/css">*{stroke-linejoin: round; stroke-linecap: butt}</style>
 </defs>
 <g id="figure_1">
  <g id="patch_1">
   <path d="M 0 350.103437 
L 494.251875 350.103437 
L 494.251875 0 
L 0 0 
z
" style="fill: #ffffff"/>
  </g>
  <g id="axes_1">
   <g id="patch_2">
    <path d="M 44.121875 311.92125 
L 483.551875 311.92125 
L 483.551875 36.92125 
L 44.121875 36.92125 
z
" style="fill: #ffffff"/>
   </g>
   <g id="PathCollection_1">
    <defs>
     <path id="m9516094a2d" d="M 0 2.717833 
C 0.720778 2.717833 1.412131 2.431465 1.921798 1.921798 
C 2.431465 1.412131 2.717833 0.720778 2.717833 0 
C 2.717833 -0.720778 2.431465 -1.412131 1.921798 -1.921798 
C 1.412131 -2.431465 0.720778 -2.717833 0 -2.717833 
C -0.720778 -2.717833 -1.412131 -2.431465 -1.921798 -1.921798 
C -2.431465 -1.412131 -2.717833 -0.720778 -2.717833 0 
C -2.717833 0.720778 -2.431465 1.412131 -1.921798 1.921798 
C -1.412131 2.431465 -0.720778 2.717833 0 2.717833 
z
" style="stroke: #ffffff; stroke-opacity: 0.924541; stroke-width: 0.5"/>
    </defs>
    <g clip-path="url(#pbefe086e60)">
     <use xlink:href="#m9516094a2d" x="64.095966" y="298.17125" style="fill: #b22222; fill-opacity: 0.924541; stroke: #ffffff; stroke-opacity: 0.924541; stroke-width: 0.5"/>
     <use xlink:href="#m9516094a2d" x="73.401542" y="130.42125" style="fill: #b22222; fill-opacity: 0.924541; stroke: #ffffff; stroke-opacity: 0.924541; stroke-width: 0.5"/>
     <use xlink:href="#m9516094a2d" x="82.660121" y="165.59625" style="fill: #b22222; fill-opacity: 0.924541; stroke: #ffffff; stroke-opacity: 0.924541; stroke-width: 0.5"/>
     <use xlink:href="#m9516094a2d" x="91.965697" y="170.92125" style="fill: #b22222; fill-opacity: 0.924541; stroke: #ffffff; stroke-opacity: 0.924541; stroke-width: 0.5"/>
     <use xlink:href="#m9516094a2d" x="101.271274" y="163.62125" style="fill: #b22222; fill-opacity: 0.924541; stroke: #ffffff; stroke-opacity: 0.924541; stroke-width: 0.5"/>
     <use xlink:href="#m9516094a2d" x="110.529853" y="108.09625" style="fill: #b22222; fill-opacity: 0.924541; stroke: #ffffff; stroke-opacity: 0.924541; stroke-width: 0.5"/>
     <use xlink:href="#m9516094a2d" x="119.835429" y="225.32125" style="fill: #b22222; fill-opacity: 0.924541; stroke: #ffffff; stroke-opacity: 0.924541; stroke-width: 0.5"/>
     <use xlink:href="#m9516094a2d" x="129.141005" y="181.64625" style="fill: #b22222; fill-opacity: 0.924541; stroke: #ffffff; stroke-opacity: 0.924541; stroke-width: 0.5"/>
     <use xlink:href="#m9516094a2d" x="138.399584" y="201.29625" style="fill: #b22222; fill-opacity: 0.924541; stroke: #ffffff; stroke-opacity: 0.924541; stroke-width: 0.5"/>
     <use xlink:href="#m9516094a2d" x="147.705161" y="197.34625" style="fill: #b22222; fill-opacity: 0.924541; stroke: #ffffff; stroke-opacity: 0.924541; stroke-width: 0.5"/>
     <use xlink:href="#m9516094a2d" x="157.010737" y="222.89625" style="fill: #b22222; fill-opacity: 0.924541; stroke: #ffffff; stroke-opacity: 0.924541; stroke-width: 0.5"/>
     <use xlink:href="#m9516094a2d" x="166.269316" y="49.42125" style="fill: #b22222; fill-opacity: 0.924541; stroke: #ffffff; stroke-opacity: 0.924541; stroke-width: 0.5"/>
     <use xlink:href="#m9516094a2d" x="175.574892" y="123.37125" style="fill: #b22222; fill-opacity: 0.924541; stroke: #ffffff; stroke-opacity: 0.924541; stroke-width: 0.5"/>
     <use xlink:href="#m9516094a2d" x="184.880469" y="258.04625" style="fill: #b22222; fill-opacity: 0.924541; stroke: #ffffff; stroke-opacity: 0.924541; stroke-width: 0.5"/>
     <use xlink:href="#m9516094a2d" x="194.139047" y="219.94625" style="fill: #b22222; fill-opacity: 0.924541; stroke: #ffffff; stroke-opacity: 0.924541; stroke-width: 0.5"/>
     <use xlink:href="#m9516094a2d" x="203.444624" y="196.69625" style="fill: #b22222; fill-opacity: 0.924541; stroke: #ffffff; stroke-opacity: 0.924541; stroke-width: 0.5"/>
     <use xlink:href="#m9516094a2d" x="212.7502" y="92.04625" style="fill: #b22222; fill-opacity: 0.924541; stroke: #ffffff; stroke-opacity: 0.924541; stroke-width: 0.5"/>
     <use xlink:href="#m9516094a2d" x="222.008779" y="143.79625" style="fill: #b22222; fill-opacity: 0.924541; stroke: #ffffff; stroke-opacity: 0.924541; stroke-width: 0.5"/>
     <use xlink:href="#m9516094a2d" x="231.314355" y="236.89625" style="fill: #b22222; fill-opacity: 0.924541; stroke: #ffffff; stroke-opacity: 0.924541; stroke-width: 0.5"/>
     <use xlink:href="#m9516094a2d" x="240.619932" y="299.42125" style="fill: #b22222; fill-opacity: 0.924541; stroke: #ffffff; stroke-opacity: 0.924541; stroke-width: 0.5"/>
     <use xlink:href="#m9516094a2d" x="249.87851" y="143.82125" style="fill: #b22222; fill-opacity: 0.924541; stroke: #ffffff; stroke-opacity: 0.924541; stroke-width: 0.5"/>
     <use xlink:href="#m9516094a2d" x="259.184087" y="141.57125" style="fill: #b22222; fill-opacity: 0.924541; stroke: #ffffff; stroke-opacity: 0.924541; stroke-width: 0.5"/>
     <use xlink:href="#m9516094a2d" x="268.489663" y="222.74625" style="fill: #b22222; fill-opacity: 0.924541; stroke: #ffffff; stroke-opacity: 0.924541; stroke-width: 0.5"/>
     <use xlink:href="#m9516094a2d" x="277.79524" y="85.84625" style="fill: #b22222; fill-opacity: 0.924541; stroke: #ffffff; stroke-opacity: 0.924541; stroke-width: 0.5"/>
     <use xlink:href="#m9516094a2d" x="287.053818" y="190.47125" style="fill: #b22222; fill-opacity: 0.924541; stroke: #ffffff; stroke-opacity: 0.924541; stroke-width: 0.5"/>
     <use xlink:href="#m9516094a2d" x="296.359395" y="183.77125" style="fill: #b22222; fill-opacity: 0.924541; stroke: #ffffff; stroke-opacity: 0.924541; stroke-width: 0.5"/>
     <use xlink:href="#m9516094a2d" x="305.664971" y="73.09625" style="fill: #b22222; fill-opacity: 0.924541; stroke: #ffffff; stroke-opacity: 0.924541; stroke-width: 0.5"/>
     <use xlink:href="#m9516094a2d" x="314.92355" y="159.87125" style="fill: #b22222; fill-opacity: 0.924541; stroke: #ffffff; stroke-opacity: 0.924541; stroke-width: 0.5"/>
     <use xlink:href="#m9516094a2d" x="324.229126" y="256.47125" style="fill: #b22222; fill-opacity: 0.924541; stroke: #ffffff; stroke-opacity: 0.924541; stroke-width: 0.5"/>
     <use xlink:href="#m9516094a2d" x="333.534703" y="93.54625" style="fill: #b22222; fill-opacity: 0.924541; stroke: #ffffff; stroke-opacity: 0.924541; stroke-width: 0.5"/>
     <use xlink:href="#m9516094a2d" x="342.793281" y="178.09625" style="fill: #b22222; fill-opacity: 0.924541; stroke: #ffffff; stroke-opacity: 0.924541; stroke-width: 0.5"/>
     <use xlink:href="#m9516094a2d" x="352.098858" y="235.34625" style="fill: #b22222; fill-opacity: 0.924541; stroke: #ffffff; stroke-opacity: 0.924541; stroke-width: 0.5"/>
     <use xlink:href="#m9516094a2d" x="361.404434" y="62.12125" style="fill: #b22222; fill-opacity: 0.924541; stroke: #ffffff; stroke-opacity: 0.924541; stroke-width: 0.5"/>
     <use xlink:href="#m9516094a2d" x="370.663013" y="213.34625" style="fill: #b22222; fill-opacity: 0.924541; stroke: #ffffff; stroke-opacity: 0.924541; stroke-width: 0.5"/>
     <use xlink:href="#m9516094a2d" x="379.968589" y="81.57125" style="fill: #b22222; fill-opacity: 0.924541; stroke: #ffffff; stroke-opacity: 0.924541; stroke-width: 0.5"/>
     <use xlink:href="#m9516094a2d" x="389.274166" y="188.37125" style="fill: #b22222; fill-opacity: 0.924541; stroke: #ffffff; stroke-opacity: 0.924541; stroke-width: 0.5"/>
     <use xlink:href="#m9516094a2d" x="398.532745" y="243.99625" style="fill: #b22222; fill-opacity: 0.924541; stroke: #ffffff; stroke-opacity: 0.924541; stroke-width: 0.5"/>
     <use xlink:href="#m9516094a2d" x="407.838321" y="150.34625" style="fill: #b22222; fill-opacity: 0.924541; stroke: #ffffff; stroke-opacity: 0.924541; stroke-width: 0.5"/>
     <use xlink:href="#m9516094a2d" x="417.143897" y="207.74625" style="fill: #b22222; fill-opacity: 0.924541; stroke: #ffffff; stroke-opacity: 0.924541; stroke-width: 0.5"/>
     <use xlink:href="#m9516094a2d" x="426.402476" y="215.09625" style="fill: #b22222; fill-opacity: 0.924541; stroke: #ffffff; stroke-opacity: 0.924541; stroke-width: 0.5"/>
     <use xlink:href="#m9516094a2d" x="435.708053" y="135.27125" style="fill: #b22222; fill-opacity: 0.924541; stroke: #ffffff; stroke-opacity: 0.924541; stroke-width: 0.5"/>
     <use xlink:href="#m9516094a2d" x="445.013629" y="156.62125" style="fill: #b22222; fill-opacity: 0.924541; stroke: #ffffff; stroke-opacity: 0.924541; stroke-width: 0.5"/>
     <use xlink:href="#m9516094a2d" x="454.272208" y="263.49625" style="fill: #b22222; fill-opacity: 0.924541; stroke: #ffffff; stroke-opacity: 0.924541; stroke-width: 0.5"/>
     <use xlink:href="#m9516094a2d" x="463.577784" y="154.92125" style="fill: #b22222; fill-opacity: 0.924541; stroke: #ffffff; stroke-opacity: 0.924541; stroke-width: 0.5"/>
    </g>
   </g>
   <g id="matplotlib.axis_1">
    <g id="xtick_1">
     <g id="line2d_1">
      <defs>
       <path id="mb4c2ed45c6" d="M 0 0 
L 0 3.5 
" style="stroke: #000000; stroke-width: 0.8"/>
      </defs>
      <g>
       <use xlink:href="#mb4c2ed45c6" x="134.592757" y="311.92125" style="stroke: #000000; stroke-width: 0.8"/>
      </g>
     </g>
     <g id="line2d_2">
      <defs>
       <path id="m35475f53c9" d="M 0 0 
L 0 -3.5 
" style="stroke: #000000; stroke-width: 0.8"/>
      </defs>
      <g>
       <use xlink:href="#m35475f53c9" x="134.592757" y="36.92125" style="stroke: #000000; stroke-width: 0.8"/>
      </g>
     </g>
     <g id="text_1">
      <!-- 20 -->
      <g transform="translate(129.592757 325.865) scale(0.1 -0.1)">
       <defs>
        <path id="TimesNewRomanPSMT-32" d="M 2934 816 
L 2638 0 
L 138 0 
L 138 116 
Q 1241 1122 1691 1759 
Q 2141 2397 2141 2925 
Q 2141 3328 1894 3587 
Q 1647 3847 1303 3847 
Q 991 3847 742 3664 
Q 494 3481 375 3128 
L 259 3128 
Q 338 3706 661 4015 
Q 984 4325 1469 4325 
Q 1984 4325 2329 3994 
Q 2675 3663 2675 3213 
Q 2675 2891 2525 2569 
Q 2294 2063 1775 1497 
Q 997 647 803 472 
L 1909 472 
Q 2247 472 2383 497 
Q 2519 522 2628 598 
Q 2738 675 2819 816 
L 2934 816 
z
" transform="scale(0.015625)"/>
        <path id="TimesNewRomanPSMT-30" d="M 231 2094 
Q 231 2819 450 3342 
Q 669 3866 1031 4122 
Q 1313 4325 1613 4325 
Q 2100 4325 2488 3828 
Q 2972 3213 2972 2159 
Q 2972 1422 2759 906 
Q 2547 391 2217 158 
Q 1888 -75 1581 -75 
Q 975 -75 572 641 
Q 231 1244 231 2094 
z
M 844 2016 
Q 844 1141 1059 588 
Q 1238 122 1591 122 
Q 1759 122 1940 273 
Q 2122 425 2216 781 
Q 2359 1319 2359 2297 
Q 2359 3022 2209 3506 
Q 2097 3866 1919 4016 
Q 1791 4119 1609 4119 
Q 1397 4119 1231 3928 
Q 1006 3669 925 3112 
Q 844 2556 844 2016 
z
" transform="scale(0.015625)"/>
       </defs>
       <use xlink:href="#TimesNewRomanPSMT-32"/>
       <use xlink:href="#TimesNewRomanPSMT-30" transform="translate(50 0)"/>
      </g>
     </g>
    </g>
    <g id="xtick_2">
     <g id="line2d_3">
      <g>
       <use xlink:href="#mb4c2ed45c6" x="228.588479" y="311.92125" style="stroke: #000000; stroke-width: 0.8"/>
      </g>
     </g>
     <g id="line2d_4">
      <g>
       <use xlink:href="#m35475f53c9" x="228.588479" y="36.92125" style="stroke: #000000; stroke-width: 0.8"/>
      </g>
     </g>
     <g id="text_2">
      <!-- 40 -->
      <g transform="translate(223.588479 325.865) scale(0.1 -0.1)">
       <defs>
        <path id="TimesNewRomanPSMT-34" d="M 2978 1563 
L 2978 1119 
L 2409 1119 
L 2409 0 
L 1894 0 
L 1894 1119 
L 100 1119 
L 100 1519 
L 2066 4325 
L 2409 4325 
L 2409 1563 
L 2978 1563 
z
M 1894 1563 
L 1894 3666 
L 406 1563 
L 1894 1563 
z
" transform="scale(0.015625)"/>
       </defs>
       <use xlink:href="#TimesNewRomanPSMT-34"/>
       <use xlink:href="#TimesNewRomanPSMT-30" transform="translate(50 0)"/>
      </g>
     </g>
    </g>
    <g id="xtick_3">
     <g id="line2d_5">
      <g>
       <use xlink:href="#mb4c2ed45c6" x="322.584201" y="311.92125" style="stroke: #000000; stroke-width: 0.8"/>
      </g>
     </g>
     <g id="line2d_6">
      <g>
       <use xlink:href="#m35475f53c9" x="322.584201" y="36.92125" style="stroke: #000000; stroke-width: 0.8"/>
      </g>
     </g>
     <g id="text_3">
      <!-- 60 -->
      <g transform="translate(317.584201 325.865) scale(0.1 -0.1)">
       <defs>
        <path id="TimesNewRomanPSMT-36" d="M 2869 4325 
L 2869 4209 
Q 2456 4169 2195 4045 
Q 1934 3922 1679 3669 
Q 1425 3416 1258 3105 
Q 1091 2794 978 2366 
Q 1428 2675 1881 2675 
Q 2316 2675 2634 2325 
Q 2953 1975 2953 1425 
Q 2953 894 2631 456 
Q 2244 -75 1606 -75 
Q 1172 -75 869 213 
Q 275 772 275 1663 
Q 275 2231 503 2743 
Q 731 3256 1154 3653 
Q 1578 4050 1965 4187 
Q 2353 4325 2688 4325 
L 2869 4325 
z
M 925 2138 
Q 869 1716 869 1456 
Q 869 1156 980 804 
Q 1091 453 1309 247 
Q 1469 100 1697 100 
Q 1969 100 2183 356 
Q 2397 613 2397 1088 
Q 2397 1622 2184 2012 
Q 1972 2403 1581 2403 
Q 1463 2403 1327 2353 
Q 1191 2303 925 2138 
z
" transform="scale(0.015625)"/>
       </defs>
       <use xlink:href="#TimesNewRomanPSMT-36"/>
       <use xlink:href="#TimesNewRomanPSMT-30" transform="translate(50 0)"/>
      </g>
     </g>
    </g>
    <g id="xtick_4">
     <g id="line2d_7">
      <g>
       <use xlink:href="#mb4c2ed45c6" x="416.579923" y="311.92125" style="stroke: #000000; stroke-width: 0.8"/>
      </g>
     </g>
     <g id="line2d_8">
      <g>
       <use xlink:href="#m35475f53c9" x="416.579923" y="36.92125" style="stroke: #000000; stroke-width: 0.8"/>
      </g>
     </g>
     <g id="text_4">
      <!-- 80 -->
      <g transform="translate(411.579923 325.865) scale(0.1 -0.1)">
       <defs>
        <path id="TimesNewRomanPSMT-38" d="M 1228 2134 
Q 725 2547 579 2797 
Q 434 3047 434 3316 
Q 434 3728 753 4026 
Q 1072 4325 1600 4325 
Q 2113 4325 2425 4047 
Q 2738 3769 2738 3413 
Q 2738 3175 2569 2928 
Q 2400 2681 1866 2347 
Q 2416 1922 2594 1678 
Q 2831 1359 2831 1006 
Q 2831 559 2490 242 
Q 2150 -75 1597 -75 
Q 994 -75 656 303 
Q 388 606 388 966 
Q 388 1247 577 1523 
Q 766 1800 1228 2134 
z
M 1719 2469 
Q 2094 2806 2194 3001 
Q 2294 3197 2294 3444 
Q 2294 3772 2109 3958 
Q 1925 4144 1606 4144 
Q 1288 4144 1088 3959 
Q 888 3775 888 3528 
Q 888 3366 970 3203 
Q 1053 3041 1206 2894 
L 1719 2469 
z
M 1375 2016 
Q 1116 1797 991 1539 
Q 866 1281 866 981 
Q 866 578 1086 336 
Q 1306 94 1647 94 
Q 1984 94 2187 284 
Q 2391 475 2391 747 
Q 2391 972 2272 1150 
Q 2050 1481 1375 2016 
z
" transform="scale(0.015625)"/>
       </defs>
       <use xlink:href="#TimesNewRomanPSMT-38"/>
       <use xlink:href="#TimesNewRomanPSMT-30" transform="translate(50 0)"/>
      </g>
     </g>
    </g>
    <g id="text_5">
     <!-- Commute time (minutes) -->
     <g transform="translate(203.511563 340.336562) scale(0.12 -0.12)">
      <defs>
       <path id="TimesNewRomanPSMT-43" d="M 3853 4334 
L 3950 2894 
L 3853 2894 
Q 3659 3541 3300 3825 
Q 2941 4109 2438 4109 
Q 2016 4109 1675 3895 
Q 1334 3681 1139 3212 
Q 944 2744 944 2047 
Q 944 1472 1128 1050 
Q 1313 628 1683 403 
Q 2053 178 2528 178 
Q 2941 178 3256 354 
Q 3572 531 3950 1056 
L 4047 994 
Q 3728 428 3303 165 
Q 2878 -97 2294 -97 
Q 1241 -97 663 684 
Q 231 1266 231 2053 
Q 231 2688 515 3219 
Q 800 3750 1298 4042 
Q 1797 4334 2388 4334 
Q 2847 4334 3294 4109 
Q 3425 4041 3481 4041 
Q 3566 4041 3628 4100 
Q 3709 4184 3744 4334 
L 3853 4334 
z
" transform="scale(0.015625)"/>
       <path id="TimesNewRomanPSMT-6f" d="M 1600 2947 
Q 2250 2947 2644 2453 
Q 2978 2031 2978 1484 
Q 2978 1100 2793 706 
Q 2609 313 2286 112 
Q 1963 -88 1566 -88 
Q 919 -88 538 428 
Q 216 863 216 1403 
Q 216 1797 411 2186 
Q 606 2575 925 2761 
Q 1244 2947 1600 2947 
z
M 1503 2744 
Q 1338 2744 1170 2645 
Q 1003 2547 900 2300 
Q 797 2053 797 1666 
Q 797 1041 1045 587 
Q 1294 134 1700 134 
Q 2003 134 2200 384 
Q 2397 634 2397 1244 
Q 2397 2006 2069 2444 
Q 1847 2744 1503 2744 
z
" transform="scale(0.015625)"/>
       <path id="TimesNewRomanPSMT-6d" d="M 1050 2338 
Q 1363 2650 1419 2697 
Q 1559 2816 1721 2881 
Q 1884 2947 2044 2947 
Q 2313 2947 2506 2790 
Q 2700 2634 2766 2338 
Q 3088 2713 3309 2830 
Q 3531 2947 3766 2947 
Q 3994 2947 4170 2830 
Q 4347 2713 4450 2447 
Q 4519 2266 4519 1878 
L 4519 647 
Q 4519 378 4559 278 
Q 4591 209 4675 161 
Q 4759 113 4950 113 
L 4950 0 
L 3538 0 
L 3538 113 
L 3597 113 
Q 3781 113 3884 184 
Q 3956 234 3988 344 
Q 4000 397 4000 647 
L 4000 1878 
Q 4000 2228 3916 2372 
Q 3794 2572 3525 2572 
Q 3359 2572 3192 2489 
Q 3025 2406 2788 2181 
L 2781 2147 
L 2788 2013 
L 2788 647 
Q 2788 353 2820 281 
Q 2853 209 2943 161 
Q 3034 113 3253 113 
L 3253 0 
L 1806 0 
L 1806 113 
Q 2044 113 2133 169 
Q 2222 225 2256 338 
Q 2272 391 2272 647 
L 2272 1878 
Q 2272 2228 2169 2381 
Q 2031 2581 1784 2581 
Q 1616 2581 1450 2491 
Q 1191 2353 1050 2181 
L 1050 647 
Q 1050 366 1089 281 
Q 1128 197 1204 155 
Q 1281 113 1516 113 
L 1516 0 
L 100 0 
L 100 113 
Q 297 113 375 155 
Q 453 197 493 289 
Q 534 381 534 647 
L 534 1741 
Q 534 2213 506 2350 
Q 484 2453 437 2492 
Q 391 2531 309 2531 
Q 222 2531 100 2484 
L 53 2597 
L 916 2947 
L 1050 2947 
L 1050 2338 
z
" transform="scale(0.015625)"/>
       <path id="TimesNewRomanPSMT-75" d="M 2709 2863 
L 2709 1128 
Q 2709 631 2732 520 
Q 2756 409 2807 365 
Q 2859 322 2928 322 
Q 3025 322 3147 375 
L 3191 266 
L 2334 -88 
L 2194 -88 
L 2194 519 
Q 1825 119 1631 15 
Q 1438 -88 1222 -88 
Q 981 -88 804 51 
Q 628 191 559 409 
Q 491 628 491 1028 
L 491 2306 
Q 491 2509 447 2587 
Q 403 2666 317 2708 
Q 231 2750 6 2747 
L 6 2863 
L 1009 2863 
L 1009 947 
Q 1009 547 1148 422 
Q 1288 297 1484 297 
Q 1619 297 1789 381 
Q 1959 466 2194 703 
L 2194 2325 
Q 2194 2569 2105 2655 
Q 2016 2741 1734 2747 
L 1734 2863 
L 2709 2863 
z
" transform="scale(0.015625)"/>
       <path id="TimesNewRomanPSMT-74" d="M 1031 3803 
L 1031 2863 
L 1700 2863 
L 1700 2644 
L 1031 2644 
L 1031 788 
Q 1031 509 1111 412 
Q 1191 316 1316 316 
Q 1419 316 1516 380 
Q 1613 444 1666 569 
L 1788 569 
Q 1678 263 1478 108 
Q 1278 -47 1066 -47 
Q 922 -47 784 33 
Q 647 113 581 261 
Q 516 409 516 719 
L 516 2644 
L 63 2644 
L 63 2747 
Q 234 2816 414 2980 
Q 594 3144 734 3369 
Q 806 3488 934 3803 
L 1031 3803 
z
" transform="scale(0.015625)"/>
       <path id="TimesNewRomanPSMT-65" d="M 681 1784 
Q 678 1147 991 784 
Q 1303 422 1725 422 
Q 2006 422 2214 576 
Q 2422 731 2563 1106 
L 2659 1044 
Q 2594 616 2278 264 
Q 1963 -88 1488 -88 
Q 972 -88 605 314 
Q 238 716 238 1394 
Q 238 2128 614 2539 
Q 991 2950 1559 2950 
Q 2041 2950 2350 2633 
Q 2659 2316 2659 1784 
L 681 1784 
z
M 681 1966 
L 2006 1966 
Q 1991 2241 1941 2353 
Q 1863 2528 1708 2628 
Q 1553 2728 1384 2728 
Q 1125 2728 920 2526 
Q 716 2325 681 1966 
z
" transform="scale(0.015625)"/>
       <path id="TimesNewRomanPSMT-20" transform="scale(0.015625)"/>
       <path id="TimesNewRomanPSMT-69" d="M 928 4444 
Q 1059 4444 1151 4351 
Q 1244 4259 1244 4128 
Q 1244 3997 1151 3903 
Q 1059 3809 928 3809 
Q 797 3809 703 3903 
Q 609 3997 609 4128 
Q 609 4259 701 4351 
Q 794 4444 928 4444 
z
M 1188 2947 
L 1188 647 
Q 1188 378 1227 289 
Q 1266 200 1342 156 
Q 1419 113 1622 113 
L 1622 0 
L 231 0 
L 231 113 
Q 441 113 512 153 
Q 584 194 626 287 
Q 669 381 669 647 
L 669 1750 
Q 669 2216 641 2353 
Q 619 2453 572 2492 
Q 525 2531 444 2531 
Q 356 2531 231 2484 
L 188 2597 
L 1050 2947 
L 1188 2947 
z
" transform="scale(0.015625)"/>
       <path id="TimesNewRomanPSMT-28" d="M 1988 -1253 
L 1988 -1369 
Q 1516 -1131 1200 -813 
Q 750 -359 506 256 
Q 263 872 263 1534 
Q 263 2503 741 3301 
Q 1219 4100 1988 4444 
L 1988 4313 
Q 1603 4100 1356 3731 
Q 1109 3363 987 2797 
Q 866 2231 866 1616 
Q 866 947 969 400 
Q 1050 -31 1165 -292 
Q 1281 -553 1476 -793 
Q 1672 -1034 1988 -1253 
z
" transform="scale(0.015625)"/>
       <path id="TimesNewRomanPSMT-6e" d="M 1034 2341 
Q 1538 2947 1994 2947 
Q 2228 2947 2397 2830 
Q 2566 2713 2666 2444 
Q 2734 2256 2734 1869 
L 2734 647 
Q 2734 375 2778 278 
Q 2813 200 2889 156 
Q 2966 113 3172 113 
L 3172 0 
L 1756 0 
L 1756 113 
L 1816 113 
Q 2016 113 2095 173 
Q 2175 234 2206 353 
Q 2219 400 2219 647 
L 2219 1819 
Q 2219 2209 2117 2386 
Q 2016 2563 1775 2563 
Q 1403 2563 1034 2156 
L 1034 647 
Q 1034 356 1069 288 
Q 1113 197 1189 155 
Q 1266 113 1500 113 
L 1500 0 
L 84 0 
L 84 113 
L 147 113 
Q 366 113 442 223 
Q 519 334 519 647 
L 519 1709 
Q 519 2225 495 2337 
Q 472 2450 423 2490 
Q 375 2531 294 2531 
Q 206 2531 84 2484 
L 38 2597 
L 900 2947 
L 1034 2947 
L 1034 2341 
z
" transform="scale(0.015625)"/>
       <path id="TimesNewRomanPSMT-73" d="M 2050 2947 
L 2050 1972 
L 1947 1972 
Q 1828 2431 1642 2597 
Q 1456 2763 1169 2763 
Q 950 2763 815 2647 
Q 681 2531 681 2391 
Q 681 2216 781 2091 
Q 878 1963 1175 1819 
L 1631 1597 
Q 2266 1288 2266 781 
Q 2266 391 1970 151 
Q 1675 -88 1309 -88 
Q 1047 -88 709 6 
Q 606 38 541 38 
Q 469 38 428 -44 
L 325 -44 
L 325 978 
L 428 978 
Q 516 541 762 319 
Q 1009 97 1316 97 
Q 1531 97 1667 223 
Q 1803 350 1803 528 
Q 1803 744 1651 891 
Q 1500 1038 1047 1263 
Q 594 1488 453 1669 
Q 313 1847 313 2119 
Q 313 2472 555 2709 
Q 797 2947 1181 2947 
Q 1350 2947 1591 2875 
Q 1750 2828 1803 2828 
Q 1853 2828 1881 2850 
Q 1909 2872 1947 2947 
L 2050 2947 
z
" transform="scale(0.015625)"/>
       <path id="TimesNewRomanPSMT-29" d="M 144 4313 
L 144 4444 
Q 619 4209 934 3891 
Q 1381 3434 1625 2820 
Q 1869 2206 1869 1541 
Q 1869 572 1392 -226 
Q 916 -1025 144 -1369 
L 144 -1253 
Q 528 -1038 776 -670 
Q 1025 -303 1145 264 
Q 1266 831 1266 1447 
Q 1266 2113 1163 2663 
Q 1084 3094 967 3353 
Q 850 3613 656 3853 
Q 463 4094 144 4313 
z
" transform="scale(0.015625)"/>
      </defs>
      <use xlink:href="#TimesNewRomanPSMT-43"/>
      <use xlink:href="#TimesNewRomanPSMT-6f" transform="translate(66.699219 0)"/>
      <use xlink:href="#TimesNewRomanPSMT-6d" transform="translate(116.699219 0)"/>
      <use xlink:href="#TimesNewRomanPSMT-6d" transform="translate(194.482422 0)"/>
      <use xlink:href="#TimesNewRomanPSMT-75" transform="translate(272.265625 0)"/>
      <use xlink:href="#TimesNewRomanPSMT-74" transform="translate(322.265625 0)"/>
      <use xlink:href="#TimesNewRomanPSMT-65" transform="translate(350.048828 0)"/>
      <use xlink:href="#TimesNewRomanPSMT-20" transform="translate(394.433594 0)"/>
      <use xlink:href="#TimesNewRomanPSMT-74" transform="translate(419.433594 0)"/>
      <use xlink:href="#TimesNewRomanPSMT-69" transform="translate(447.216797 0)"/>
      <use xlink:href="#TimesNewRomanPSMT-6d" transform="translate(475 0)"/>
      <use xlink:href="#TimesNewRomanPSMT-65" transform="translate(552.783203 0)"/>
      <use xlink:href="#TimesNewRomanPSMT-20" transform="translate(597.167969 0)"/>
      <use xlink:href="#TimesNewRomanPSMT-28" transform="translate(622.167969 0)"/>
      <use xlink:href="#TimesNewRomanPSMT-6d" transform="translate(655.46875 0)"/>
      <use xlink:href="#TimesNewRomanPSMT-69" transform="translate(733.251953 0)"/>
      <use xlink:href="#TimesNewRomanPSMT-6e" transform="translate(761.035156 0)"/>
      <use xlink:href="#TimesNewRomanPSMT-75" transform="translate(811.035156 0)"/>
      <use xlink:href="#TimesNewRomanPSMT-74" transform="translate(861.035156 0)"/>
      <use xlink:href="#TimesNewRomanPSMT-65" transform="translate(888.818359 0)"/>
      <use xlink:href="#TimesNewRomanPSMT-73" transform="translate(933.203125 0)"/>
      <use xlink:href="#TimesNewRomanPSMT-29" transform="translate(972.119141 0)"/>
     </g>
    </g>
   </g>
   <g id="matplotlib.axis_2">
    <g id="ytick_1">
     <g id="line2d_9">
      <defs>
       <path id="m079adfc123" d="M 0 0 
L -3.5 0 
" style="stroke: #000000; stroke-width: 0.8"/>
      </defs>
      <g>
       <use xlink:href="#m079adfc123" x="44.121875" y="274.42125" style="stroke: #000000; stroke-width: 0.8"/>
      </g>
     </g>
     <g id="line2d_10">
      <defs>
       <path id="m777bf70155" d="M 0 0 
L 3.5 0 
" style="stroke: #000000; stroke-width: 0.8"/>
      </defs>
      <g>
       <use xlink:href="#m777bf70155" x="483.551875" y="274.42125" style="stroke: #000000; stroke-width: 0.8"/>
      </g>
     </g>
     <g id="text_6">
      <!-- 60 -->
      <g transform="translate(27.121875 277.893125) scale(0.1 -0.1)">
       <use xlink:href="#TimesNewRomanPSMT-36"/>
       <use xlink:href="#TimesNewRomanPSMT-30" transform="translate(50 0)"/>
      </g>
     </g>
    </g>
    <g id="ytick_2">
     <g id="line2d_11">
      <g>
       <use xlink:href="#m079adfc123" x="44.121875" y="224.42125" style="stroke: #000000; stroke-width: 0.8"/>
      </g>
     </g>
     <g id="line2d_12">
      <g>
       <use xlink:href="#m777bf70155" x="483.551875" y="224.42125" style="stroke: #000000; stroke-width: 0.8"/>
      </g>
     </g>
     <g id="text_7">
      <!-- 80 -->
      <g transform="translate(27.121875 227.893125) scale(0.1 -0.1)">
       <use xlink:href="#TimesNewRomanPSMT-38"/>
       <use xlink:href="#TimesNewRomanPSMT-30" transform="translate(50 0)"/>
      </g>
     </g>
    </g>
    <g id="ytick_3">
     <g id="line2d_13">
      <g>
       <use xlink:href="#m079adfc123" x="44.121875" y="174.42125" style="stroke: #000000; stroke-width: 0.8"/>
      </g>
     </g>
     <g id="line2d_14">
      <g>
       <use xlink:href="#m777bf70155" x="483.551875" y="174.42125" style="stroke: #000000; stroke-width: 0.8"/>
      </g>
     </g>
     <g id="text_8">
      <!-- 100 -->
      <g transform="translate(22.121875 177.893125) scale(0.1 -0.1)">
       <defs>
        <path id="TimesNewRomanPSMT-31" d="M 750 3822 
L 1781 4325 
L 1884 4325 
L 1884 747 
Q 1884 391 1914 303 
Q 1944 216 2037 169 
Q 2131 122 2419 116 
L 2419 0 
L 825 0 
L 825 116 
Q 1125 122 1212 167 
Q 1300 213 1334 289 
Q 1369 366 1369 747 
L 1369 3034 
Q 1369 3497 1338 3628 
Q 1316 3728 1258 3775 
Q 1200 3822 1119 3822 
Q 1003 3822 797 3725 
L 750 3822 
z
" transform="scale(0.015625)"/>
       </defs>
       <use xlink:href="#TimesNewRomanPSMT-31"/>
       <use xlink:href="#TimesNewRomanPSMT-30" transform="translate(50 0)"/>
       <use xlink:href="#TimesNewRomanPSMT-30" transform="translate(100 0)"/>
      </g>
     </g>
    </g>
    <g id="ytick_4">
     <g id="line2d_15">
      <g>
       <use xlink:href="#m079adfc123" x="44.121875" y="124.42125" style="stroke: #000000; stroke-width: 0.8"/>
      </g>
     </g>
     <g id="line2d_16">
      <g>
       <use xlink:href="#m777bf70155" x="483.551875" y="124.42125" style="stroke: #000000; stroke-width: 0.8"/>
      </g>
     </g>
     <g id="text_9">
      <!-- 120 -->
      <g transform="translate(22.121875 127.893125) scale(0.1 -0.1)">
       <use xlink:href="#TimesNewRomanPSMT-31"/>
       <use xlink:href="#TimesNewRomanPSMT-32" transform="translate(50 0)"/>
       <use xlink:href="#TimesNewRomanPSMT-30" transform="translate(100 0)"/>
      </g>
     </g>
    </g>
    <g id="ytick_5">
     <g id="line2d_17">
      <g>
       <use xlink:href="#m079adfc123" x="44.121875" y="74.42125" style="stroke: #000000; stroke-width: 0.8"/>
      </g>
     </g>
     <g id="line2d_18">
      <g>
       <use xlink:href="#m777bf70155" x="483.551875" y="74.42125" style="stroke: #000000; stroke-width: 0.8"/>
      </g>
     </g>
     <g id="text_10">
      <!-- 140 -->
      <g transform="translate(22.121875 77.893125) scale(0.1 -0.1)">
       <use xlink:href="#TimesNewRomanPSMT-31"/>
       <use xlink:href="#TimesNewRomanPSMT-34" transform="translate(50 0)"/>
       <use xlink:href="#TimesNewRomanPSMT-30" transform="translate(100 0)"/>
      </g>
     </g>
    </g>
    <g id="text_11">
     <!-- Productivity (index) -->
     <g transform="translate(15.5325 222.9125) rotate(-90) scale(0.12 -0.12)">
      <defs>
       <path id="TimesNewRomanPSMT-50" d="M 1313 1984 
L 1313 750 
Q 1313 350 1400 253 
Q 1519 116 1759 116 
L 1922 116 
L 1922 0 
L 106 0 
L 106 116 
L 266 116 
Q 534 116 650 291 
Q 713 388 713 750 
L 713 3488 
Q 713 3888 628 3984 
Q 506 4122 266 4122 
L 106 4122 
L 106 4238 
L 1659 4238 
Q 2228 4238 2556 4120 
Q 2884 4003 3109 3725 
Q 3334 3447 3334 3066 
Q 3334 2547 2992 2222 
Q 2650 1897 2025 1897 
Q 1872 1897 1694 1919 
Q 1516 1941 1313 1984 
z
M 1313 2163 
Q 1478 2131 1606 2115 
Q 1734 2100 1825 2100 
Q 2150 2100 2386 2351 
Q 2622 2603 2622 3003 
Q 2622 3278 2509 3514 
Q 2397 3750 2190 3867 
Q 1984 3984 1722 3984 
Q 1563 3984 1313 3925 
L 1313 2163 
z
" transform="scale(0.015625)"/>
       <path id="TimesNewRomanPSMT-72" d="M 1038 2947 
L 1038 2303 
Q 1397 2947 1775 2947 
Q 1947 2947 2059 2842 
Q 2172 2738 2172 2600 
Q 2172 2478 2090 2393 
Q 2009 2309 1897 2309 
Q 1788 2309 1652 2417 
Q 1516 2525 1450 2525 
Q 1394 2525 1328 2463 
Q 1188 2334 1038 2041 
L 1038 669 
Q 1038 431 1097 309 
Q 1138 225 1241 169 
Q 1344 113 1538 113 
L 1538 0 
L 72 0 
L 72 113 
Q 291 113 397 181 
Q 475 231 506 341 
Q 522 394 522 644 
L 522 1753 
Q 522 2253 501 2348 
Q 481 2444 426 2487 
Q 372 2531 291 2531 
Q 194 2531 72 2484 
L 41 2597 
L 906 2947 
L 1038 2947 
z
" transform="scale(0.015625)"/>
       <path id="TimesNewRomanPSMT-64" d="M 2222 322 
Q 2013 103 1813 7 
Q 1613 -88 1381 -88 
Q 913 -88 563 304 
Q 213 697 213 1313 
Q 213 1928 600 2439 
Q 988 2950 1597 2950 
Q 1975 2950 2222 2709 
L 2222 3238 
Q 2222 3728 2198 3840 
Q 2175 3953 2125 3993 
Q 2075 4034 2000 4034 
Q 1919 4034 1784 3984 
L 1744 4094 
L 2597 4444 
L 2738 4444 
L 2738 1134 
Q 2738 631 2761 520 
Q 2784 409 2836 365 
Q 2888 322 2956 322 
Q 3041 322 3181 375 
L 3216 266 
L 2366 -88 
L 2222 -88 
L 2222 322 
z
M 2222 541 
L 2222 2016 
Q 2203 2228 2109 2403 
Q 2016 2578 1861 2667 
Q 1706 2756 1559 2756 
Q 1284 2756 1069 2509 
Q 784 2184 784 1559 
Q 784 928 1059 592 
Q 1334 256 1672 256 
Q 1956 256 2222 541 
z
" transform="scale(0.015625)"/>
       <path id="TimesNewRomanPSMT-63" d="M 2631 1088 
Q 2516 522 2178 217 
Q 1841 -88 1431 -88 
Q 944 -88 581 321 
Q 219 731 219 1428 
Q 219 2103 620 2525 
Q 1022 2947 1584 2947 
Q 2006 2947 2278 2723 
Q 2550 2500 2550 2259 
Q 2550 2141 2473 2067 
Q 2397 1994 2259 1994 
Q 2075 1994 1981 2113 
Q 1928 2178 1911 2362 
Q 1894 2547 1784 2644 
Q 1675 2738 1481 2738 
Q 1169 2738 978 2506 
Q 725 2200 725 1697 
Q 725 1184 976 792 
Q 1228 400 1656 400 
Q 1963 400 2206 609 
Q 2378 753 2541 1131 
L 2631 1088 
z
" transform="scale(0.015625)"/>
       <path id="TimesNewRomanPSMT-76" d="M 53 2863 
L 1400 2863 
L 1400 2747 
L 1313 2747 
Q 1191 2747 1127 2687 
Q 1063 2628 1063 2528 
Q 1063 2419 1128 2269 
L 1794 688 
L 2463 2328 
Q 2534 2503 2534 2594 
Q 2534 2638 2509 2666 
Q 2475 2713 2422 2730 
Q 2369 2747 2206 2747 
L 2206 2863 
L 3141 2863 
L 3141 2747 
Q 2978 2734 2916 2681 
Q 2806 2588 2719 2369 
L 1703 -88 
L 1575 -88 
L 553 2328 
Q 484 2497 421 2570 
Q 359 2644 263 2694 
Q 209 2722 53 2747 
L 53 2863 
z
" transform="scale(0.015625)"/>
       <path id="TimesNewRomanPSMT-79" d="M 38 2863 
L 1372 2863 
L 1372 2747 
L 1306 2747 
Q 1166 2747 1095 2686 
Q 1025 2625 1025 2534 
Q 1025 2413 1128 2197 
L 1825 753 
L 2466 2334 
Q 2519 2463 2519 2588 
Q 2519 2644 2497 2672 
Q 2472 2706 2419 2726 
Q 2366 2747 2231 2747 
L 2231 2863 
L 3163 2863 
L 3163 2747 
Q 3047 2734 2984 2696 
Q 2922 2659 2847 2556 
Q 2819 2513 2741 2316 
L 1575 -541 
Q 1406 -956 1132 -1168 
Q 859 -1381 606 -1381 
Q 422 -1381 303 -1275 
Q 184 -1169 184 -1031 
Q 184 -900 270 -820 
Q 356 -741 506 -741 
Q 609 -741 788 -809 
Q 913 -856 944 -856 
Q 1038 -856 1148 -759 
Q 1259 -663 1372 -384 
L 1575 113 
L 547 2272 
Q 500 2369 397 2513 
Q 319 2622 269 2659 
Q 197 2709 38 2747 
L 38 2863 
z
" transform="scale(0.015625)"/>
       <path id="TimesNewRomanPSMT-78" d="M 84 2863 
L 1431 2863 
L 1431 2747 
Q 1303 2747 1251 2703 
Q 1200 2659 1200 2588 
Q 1200 2513 1309 2356 
Q 1344 2306 1413 2200 
L 1616 1875 
L 1850 2200 
Q 2075 2509 2075 2591 
Q 2075 2656 2022 2701 
Q 1969 2747 1850 2747 
L 1850 2863 
L 2819 2863 
L 2819 2747 
Q 2666 2738 2553 2663 
Q 2400 2556 2134 2200 
L 1744 1678 
L 2456 653 
Q 2719 275 2831 198 
Q 2944 122 3122 113 
L 3122 0 
L 1772 0 
L 1772 113 
Q 1913 113 1991 175 
Q 2050 219 2050 291 
Q 2050 363 1850 653 
L 1431 1266 
L 972 653 
Q 759 369 759 316 
Q 759 241 829 180 
Q 900 119 1041 113 
L 1041 0 
L 106 0 
L 106 113 
Q 219 128 303 191 
Q 422 281 703 653 
L 1303 1450 
L 759 2238 
Q 528 2575 401 2661 
Q 275 2747 84 2747 
L 84 2863 
z
" transform="scale(0.015625)"/>
      </defs>
      <use xlink:href="#TimesNewRomanPSMT-50"/>
      <use xlink:href="#TimesNewRomanPSMT-72" transform="translate(55.615234 0)"/>
      <use xlink:href="#TimesNewRomanPSMT-6f" transform="translate(88.916016 0)"/>
      <use xlink:href="#TimesNewRomanPSMT-64" transform="translate(138.916016 0)"/>
      <use xlink:href="#TimesNewRomanPSMT-75" transform="translate(188.916016 0)"/>
      <use xlink:href="#TimesNewRomanPSMT-63" transform="translate(238.916016 0)"/>
      <use xlink:href="#TimesNewRomanPSMT-74" transform="translate(283.300781 0)"/>
      <use xlink:href="#TimesNewRomanPSMT-69" transform="translate(311.083984 0)"/>
      <use xlink:href="#TimesNewRomanPSMT-76" transform="translate(338.867188 0)"/>
      <use xlink:href="#TimesNewRomanPSMT-69" transform="translate(388.867188 0)"/>
      <use xlink:href="#TimesNewRomanPSMT-74" transform="translate(416.650391 0)"/>
      <use xlink:href="#TimesNewRomanPSMT-79" transform="translate(444.433594 0)"/>
      <use xlink:href="#TimesNewRomanPSMT-20" transform="translate(494.433594 0)"/>
      <use xlink:href="#TimesNewRomanPSMT-28" transform="translate(519.433594 0)"/>
      <use xlink:href="#TimesNewRomanPSMT-69" transform="translate(552.734375 0)"/>
      <use xlink:href="#TimesNewRomanPSMT-6e" transform="translate(580.517578 0)"/>
      <use xlink:href="#TimesNewRomanPSMT-64" transform="translate(630.517578 0)"/>
      <use xlink:href="#TimesNewRomanPSMT-65" transform="translate(680.517578 0)"/>
      <use xlink:href="#TimesNewRomanPSMT-78" transform="translate(724.902344 0)"/>
      <use xlink:href="#TimesNewRomanPSMT-29" transform="translate(774.902344 0)"/>
     </g>
    </g>
   </g>
   <g id="patch_3">
    <path d="M 44.121875 311.92125 
L 44.121875 36.92125 
" style="fill: none; stroke: #333333; stroke-width: 2; stroke-linejoin: miter; stroke-linecap: square"/>
   </g>
   <g id="patch_4">
    <path d="M 483.551875 311.92125 
L 483.551875 36.92125 
" style="fill: none; stroke: #000000; stroke-linejoin: miter; stroke-linecap: square"/>
   </g>
   <g id="patch_5">
    <path d="M 44.121875 311.92125 
L 483.551875 311.92125 
" style="fill: none; stroke: #333333; stroke-width: 2; stroke-linejoin: miter; stroke-linecap: square"/>
   </g>
   <g id="patch_6">
    <path d="M 44.121875 36.92125 
L 483.551875 36.92125 
" style="fill: none; stroke: #000000; stroke-linejoin: miter; stroke-linecap: square"/>
   </g>
   <g id="text_12">
    <!-- the Overview of Human Resources and Workplace -->
    <g transform="translate(121.845156 16.92125) scale(0.14 -0.14)">
     <defs>
      <path id="TimesNewRomanPSMT-68" d="M 1041 4444 
L 1041 2350 
Q 1388 2731 1591 2839 
Q 1794 2947 1997 2947 
Q 2241 2947 2416 2812 
Q 2591 2678 2675 2391 
Q 2734 2191 2734 1659 
L 2734 647 
Q 2734 375 2778 275 
Q 2809 200 2884 156 
Q 2959 113 3159 113 
L 3159 0 
L 1753 0 
L 1753 113 
L 1819 113 
Q 2019 113 2097 173 
Q 2175 234 2206 353 
Q 2216 403 2216 647 
L 2216 1659 
Q 2216 2128 2167 2275 
Q 2119 2422 2012 2495 
Q 1906 2569 1756 2569 
Q 1603 2569 1437 2487 
Q 1272 2406 1041 2159 
L 1041 647 
Q 1041 353 1073 281 
Q 1106 209 1195 161 
Q 1284 113 1503 113 
L 1503 0 
L 84 0 
L 84 113 
Q 275 113 384 172 
Q 447 203 484 290 
Q 522 378 522 647 
L 522 3238 
Q 522 3728 498 3840 
Q 475 3953 426 3993 
Q 378 4034 297 4034 
Q 231 4034 84 3984 
L 41 4094 
L 897 4444 
L 1041 4444 
z
" transform="scale(0.015625)"/>
      <path id="TimesNewRomanPSMT-4f" d="M 2341 4334 
Q 3166 4334 3770 3707 
Q 4375 3081 4375 2144 
Q 4375 1178 3765 540 
Q 3156 -97 2291 -97 
Q 1416 -97 820 525 
Q 225 1147 225 2134 
Q 225 3144 913 3781 
Q 1509 4334 2341 4334 
z
M 2281 4106 
Q 1713 4106 1369 3684 
Q 941 3159 941 2147 
Q 941 1109 1384 550 
Q 1725 125 2284 125 
Q 2881 125 3270 590 
Q 3659 1056 3659 2059 
Q 3659 3147 3231 3681 
Q 2888 4106 2281 4106 
z
" transform="scale(0.015625)"/>
      <path id="TimesNewRomanPSMT-77" d="M 41 2863 
L 1241 2863 
L 1241 2747 
Q 1075 2734 1023 2687 
Q 972 2641 972 2553 
Q 972 2456 1025 2319 
L 1638 672 
L 2253 2013 
L 2091 2434 
Q 2016 2622 1894 2694 
Q 1825 2738 1638 2747 
L 1638 2863 
L 3000 2863 
L 3000 2747 
Q 2775 2738 2681 2666 
Q 2619 2616 2619 2506 
Q 2619 2444 2644 2378 
L 3294 734 
L 3897 2319 
Q 3959 2488 3959 2588 
Q 3959 2647 3898 2694 
Q 3838 2741 3659 2747 
L 3659 2863 
L 4563 2863 
L 4563 2747 
Q 4291 2706 4163 2378 
L 3206 -88 
L 3078 -88 
L 2363 1741 
L 1528 -88 
L 1413 -88 
L 494 2319 
Q 403 2547 315 2626 
Q 228 2706 41 2747 
L 41 2863 
z
" transform="scale(0.015625)"/>
      <path id="TimesNewRomanPSMT-66" d="M 1319 2638 
L 1319 756 
Q 1319 356 1406 250 
Q 1522 113 1716 113 
L 1975 113 
L 1975 0 
L 266 0 
L 266 113 
L 394 113 
Q 519 113 622 175 
Q 725 238 764 344 
Q 803 450 803 756 
L 803 2638 
L 247 2638 
L 247 2863 
L 803 2863 
L 803 3050 
Q 803 3478 940 3775 
Q 1078 4072 1361 4255 
Q 1644 4438 1997 4438 
Q 2325 4438 2600 4225 
Q 2781 4084 2781 3909 
Q 2781 3816 2700 3733 
Q 2619 3650 2525 3650 
Q 2453 3650 2373 3701 
Q 2294 3753 2178 3923 
Q 2063 4094 1966 4153 
Q 1869 4213 1750 4213 
Q 1606 4213 1506 4136 
Q 1406 4059 1362 3898 
Q 1319 3738 1319 3069 
L 1319 2863 
L 2056 2863 
L 2056 2638 
L 1319 2638 
z
" transform="scale(0.015625)"/>
      <path id="TimesNewRomanPSMT-48" d="M 1316 2272 
L 3284 2272 
L 3284 3484 
Q 3284 3809 3244 3913 
Q 3213 3991 3113 4047 
Q 2978 4122 2828 4122 
L 2678 4122 
L 2678 4238 
L 4491 4238 
L 4491 4122 
L 4341 4122 
Q 4191 4122 4056 4050 
Q 3956 4000 3920 3898 
Q 3884 3797 3884 3484 
L 3884 750 
Q 3884 428 3925 325 
Q 3956 247 4053 191 
Q 4191 116 4341 116 
L 4491 116 
L 4491 0 
L 2678 0 
L 2678 116 
L 2828 116 
Q 3088 116 3206 269 
Q 3284 369 3284 750 
L 3284 2041 
L 1316 2041 
L 1316 750 
Q 1316 428 1356 325 
Q 1388 247 1488 191 
Q 1622 116 1772 116 
L 1925 116 
L 1925 0 
L 109 0 
L 109 116 
L 259 116 
Q 522 116 641 269 
Q 716 369 716 750 
L 716 3484 
Q 716 3809 675 3913 
Q 644 3991 547 4047 
Q 409 4122 259 4122 
L 109 4122 
L 109 4238 
L 1925 4238 
L 1925 4122 
L 1772 4122 
Q 1622 4122 1488 4050 
Q 1391 4000 1353 3898 
Q 1316 3797 1316 3484 
L 1316 2272 
z
" transform="scale(0.015625)"/>
      <path id="TimesNewRomanPSMT-61" d="M 1822 413 
Q 1381 72 1269 19 
Q 1100 -59 909 -59 
Q 613 -59 420 144 
Q 228 347 228 678 
Q 228 888 322 1041 
Q 450 1253 767 1440 
Q 1084 1628 1822 1897 
L 1822 2009 
Q 1822 2438 1686 2597 
Q 1550 2756 1291 2756 
Q 1094 2756 978 2650 
Q 859 2544 859 2406 
L 866 2225 
Q 866 2081 792 2003 
Q 719 1925 600 1925 
Q 484 1925 411 2006 
Q 338 2088 338 2228 
Q 338 2497 613 2722 
Q 888 2947 1384 2947 
Q 1766 2947 2009 2819 
Q 2194 2722 2281 2516 
Q 2338 2381 2338 1966 
L 2338 994 
Q 2338 584 2353 492 
Q 2369 400 2405 369 
Q 2441 338 2488 338 
Q 2538 338 2575 359 
Q 2641 400 2828 588 
L 2828 413 
Q 2478 -56 2159 -56 
Q 2006 -56 1915 50 
Q 1825 156 1822 413 
z
M 1822 616 
L 1822 1706 
Q 1350 1519 1213 1441 
Q 966 1303 859 1153 
Q 753 1003 753 825 
Q 753 600 887 451 
Q 1022 303 1197 303 
Q 1434 303 1822 616 
z
" transform="scale(0.015625)"/>
      <path id="TimesNewRomanPSMT-52" d="M 4325 0 
L 3194 0 
L 1759 1981 
Q 1600 1975 1500 1975 
Q 1459 1975 1412 1976 
Q 1366 1978 1316 1981 
L 1316 750 
Q 1316 350 1403 253 
Q 1522 116 1759 116 
L 1925 116 
L 1925 0 
L 109 0 
L 109 116 
L 269 116 
Q 538 116 653 291 
Q 719 388 719 750 
L 719 3488 
Q 719 3888 631 3984 
Q 509 4122 269 4122 
L 109 4122 
L 109 4238 
L 1653 4238 
Q 2328 4238 2648 4139 
Q 2969 4041 3192 3777 
Q 3416 3513 3416 3147 
Q 3416 2756 3161 2468 
Q 2906 2181 2372 2063 
L 3247 847 
Q 3547 428 3762 290 
Q 3978 153 4325 116 
L 4325 0 
z
M 1316 2178 
Q 1375 2178 1419 2176 
Q 1463 2175 1491 2175 
Q 2097 2175 2405 2437 
Q 2713 2700 2713 3106 
Q 2713 3503 2464 3751 
Q 2216 4000 1806 4000 
Q 1625 4000 1316 3941 
L 1316 2178 
z
" transform="scale(0.015625)"/>
      <path id="TimesNewRomanPSMT-57" d="M 5991 4238 
L 5991 4122 
Q 5825 4122 5722 4062 
Q 5619 4003 5525 3841 
Q 5463 3731 5328 3319 
L 4147 -97 
L 4022 -97 
L 3056 2613 
L 2097 -97 
L 1984 -97 
L 725 3422 
Q 584 3816 547 3888 
Q 484 4006 376 4064 
Q 269 4122 84 4122 
L 84 4238 
L 1653 4238 
L 1653 4122 
L 1578 4122 
Q 1413 4122 1325 4047 
Q 1238 3972 1238 3866 
Q 1238 3756 1375 3363 
L 2209 984 
L 2913 3006 
L 2788 3363 
L 2688 3647 
Q 2622 3803 2541 3922 
Q 2500 3981 2441 4022 
Q 2363 4078 2284 4103 
Q 2225 4122 2097 4122 
L 2097 4238 
L 3747 4238 
L 3747 4122 
L 3634 4122 
Q 3459 4122 3378 4047 
Q 3297 3972 3297 3844 
Q 3297 3684 3438 3288 
L 4250 984 
L 5056 3319 
Q 5194 3706 5194 3856 
Q 5194 3928 5148 3990 
Q 5103 4053 5034 4078 
Q 4916 4122 4725 4122 
L 4725 4238 
L 5991 4238 
z
" transform="scale(0.015625)"/>
      <path id="TimesNewRomanPSMT-6b" d="M 1047 4444 
L 1047 1597 
L 1775 2259 
Q 2006 2472 2044 2528 
Q 2069 2566 2069 2603 
Q 2069 2666 2017 2711 
Q 1966 2756 1847 2763 
L 1847 2863 
L 3091 2863 
L 3091 2763 
Q 2834 2756 2664 2684 
Q 2494 2613 2291 2428 
L 1556 1750 
L 2291 822 
Q 2597 438 2703 334 
Q 2853 188 2966 144 
Q 3044 113 3238 113 
L 3238 0 
L 1847 0 
L 1847 113 
Q 1966 116 2008 148 
Q 2050 181 2050 241 
Q 2050 313 1925 472 
L 1047 1594 
L 1047 644 
Q 1047 366 1086 278 
Q 1125 191 1197 153 
Q 1269 116 1509 113 
L 1509 0 
L 53 0 
L 53 113 
Q 272 113 381 166 
Q 447 200 481 272 
Q 528 375 528 628 
L 528 3234 
Q 528 3731 506 3842 
Q 484 3953 434 3995 
Q 384 4038 303 4038 
Q 238 4038 106 3984 
L 53 4094 
L 903 4444 
L 1047 4444 
z
" transform="scale(0.015625)"/>
      <path id="TimesNewRomanPSMT-70" d="M -6 2578 
L 875 2934 
L 994 2934 
L 994 2266 
Q 1216 2644 1439 2795 
Q 1663 2947 1909 2947 
Q 2341 2947 2628 2609 
Q 2981 2197 2981 1534 
Q 2981 794 2556 309 
Q 2206 -88 1675 -88 
Q 1444 -88 1275 -22 
Q 1150 25 994 166 
L 994 -706 
Q 994 -1000 1030 -1079 
Q 1066 -1159 1155 -1206 
Q 1244 -1253 1478 -1253 
L 1478 -1369 
L -22 -1369 
L -22 -1253 
L 56 -1253 
Q 228 -1256 350 -1188 
Q 409 -1153 442 -1076 
Q 475 -1000 475 -688 
L 475 2019 
Q 475 2297 450 2372 
Q 425 2447 370 2484 
Q 316 2522 222 2522 
Q 147 2522 31 2478 
L -6 2578 
z
M 994 2081 
L 994 1013 
Q 994 666 1022 556 
Q 1066 375 1236 237 
Q 1406 100 1666 100 
Q 1978 100 2172 344 
Q 2425 663 2425 1241 
Q 2425 1897 2138 2250 
Q 1938 2494 1663 2494 
Q 1513 2494 1366 2419 
Q 1253 2363 994 2081 
z
" transform="scale(0.015625)"/>
      <path id="TimesNewRomanPSMT-6c" d="M 1184 4444 
L 1184 647 
Q 1184 378 1223 290 
Q 1263 203 1344 158 
Q 1425 113 1647 113 
L 1647 0 
L 244 0 
L 244 113 
Q 441 113 512 153 
Q 584 194 625 287 
Q 666 381 666 647 
L 666 3247 
Q 666 3731 644 3842 
Q 622 3953 573 3993 
Q 525 4034 450 4034 
Q 369 4034 244 3984 
L 191 4094 
L 1044 4444 
L 1184 4444 
z
" transform="scale(0.015625)"/>
     </defs>
     <use xlink:href="#TimesNewRomanPSMT-74"/>
     <use xlink:href="#TimesNewRomanPSMT-68" transform="translate(27.783203 0)"/>
     <use xlink:href="#TimesNewRomanPSMT-65" transform="translate(77.783203 0)"/>
     <use xlink:href="#TimesNewRomanPSMT-20" transform="translate(122.167969 0)"/>
     <use xlink:href="#TimesNewRomanPSMT-4f" transform="translate(147.167969 0)"/>
     <use xlink:href="#TimesNewRomanPSMT-76" transform="translate(219.384766 0)"/>
     <use xlink:href="#TimesNewRomanPSMT-65" transform="translate(269.384766 0)"/>
     <use xlink:href="#TimesNewRomanPSMT-72" transform="translate(313.769531 0)"/>
     <use xlink:href="#TimesNewRomanPSMT-76" transform="translate(347.070312 0)"/>
     <use xlink:href="#TimesNewRomanPSMT-69" transform="translate(397.070312 0)"/>
     <use xlink:href="#TimesNewRomanPSMT-65" transform="translate(424.853516 0)"/>
     <use xlink:href="#TimesNewRomanPSMT-77" transform="translate(469.238281 0)"/>
     <use xlink:href="#TimesNewRomanPSMT-20" transform="translate(541.455078 0)"/>
     <use xlink:href="#TimesNewRomanPSMT-6f" transform="translate(566.455078 0)"/>
     <use xlink:href="#TimesNewRomanPSMT-66" transform="translate(616.455078 0)"/>
     <use xlink:href="#TimesNewRomanPSMT-20" transform="translate(649.755859 0)"/>
     <use xlink:href="#TimesNewRomanPSMT-48" transform="translate(674.755859 0)"/>
     <use xlink:href="#TimesNewRomanPSMT-75" transform="translate(746.972656 0)"/>
     <use xlink:href="#TimesNewRomanPSMT-6d" transform="translate(796.972656 0)"/>
     <use xlink:href="#TimesNewRomanPSMT-61" transform="translate(874.755859 0)"/>
     <use xlink:href="#TimesNewRomanPSMT-6e" transform="translate(919.140625 0)"/>
     <use xlink:href="#TimesNewRomanPSMT-20" transform="translate(969.140625 0)"/>
     <use xlink:href="#TimesNewRomanPSMT-52" transform="translate(994.140625 0)"/>
     <use xlink:href="#TimesNewRomanPSMT-65" transform="translate(1060.839844 0)"/>
     <use xlink:href="#TimesNewRomanPSMT-73" transform="translate(1105.224609 0)"/>
     <use xlink:href="#TimesNewRomanPSMT-6f" transform="translate(1144.140625 0)"/>
     <use xlink:href="#TimesNewRomanPSMT-75" transform="translate(1194.140625 0)"/>
     <use xlink:href="#TimesNewRomanPSMT-72" transform="translate(1244.140625 0)"/>
     <use xlink:href="#TimesNewRomanPSMT-63" transform="translate(1277.441406 0)"/>
     <use xlink:href="#TimesNewRomanPSMT-65" transform="translate(1321.826172 0)"/>
     <use xlink:href="#TimesNewRomanPSMT-73" transform="translate(1366.210938 0)"/>
     <use xlink:href="#TimesNewRomanPSMT-20" transform="translate(1405.126953 0)"/>
     <use xlink:href="#TimesNewRomanPSMT-61" transform="translate(1430.126953 0)"/>
     <use xlink:href="#TimesNewRomanPSMT-6e" transform="translate(1474.511719 0)"/>
     <use xlink:href="#TimesNewRomanPSMT-64" transform="translate(1524.511719 0)"/>
     <use xlink:href="#TimesNewRomanPSMT-20" transform="translate(1574.511719 0)"/>
     <use xlink:href="#TimesNewRomanPSMT-57" transform="translate(1597.761719 0)"/>
     <use xlink:href="#TimesNewRomanPSMT-6f" transform="translate(1684.146484 0)"/>
     <use xlink:href="#TimesNewRomanPSMT-72" transform="translate(1734.146484 0)"/>
     <use xlink:href="#TimesNewRomanPSMT-6b" transform="translate(1767.447266 0)"/>
     <use xlink:href="#TimesNewRomanPSMT-70" transform="translate(1817.447266 0)"/>
     <use xlink:href="#TimesNewRomanPSMT-6c" transform="translate(1867.447266 0)"/>
     <use xlink:href="#TimesNewRomanPSMT-61" transform="translate(1895.230469 0)"/>
     <use xlink:href="#TimesNewRomanPSMT-63" transform="translate(1939.615234 0)"/>
     <use xlink:href="#TimesNewRomanPSMT-65" transform="translate(1984 0)"/>
    </g>
   </g>
  </g>
 </g>
 <defs>
  <clipPath id="pbefe086e60">
   <rect x="44.121875" y="36.92125" width="439.43" height="275"/>
  </clipPath>
 </defs>
</svg>
