<?xml version="1.0" encoding="utf-8" standalone="no"?>
<!DOCTYPE svg PUBLIC "-//W3C//DTD SVG 1.1//EN"
  "http://www.w3.org/Graphics/SVG/1.1/DTD/svg11.dtd">
<svg xmlns:xlink="http://www.w3.org/1999/xlink" width="494.239375pt" height="350.167187pt" viewBox="0 0 494.239375 350.167187" xmlns="http://www.w3.org/2000/svg" version="1.1">
 <metadata>
  <rdf:RDF xmlns:dc="http://purl.org/dc/elements/1.1/" xmlns:cc="http://creativecommons.org/ns#" xmlns:rdf="http://www.w3.org/1999/02/22-rdf-syntax-ns#">
   <cc:Work>
    <dc:type rdf:resource="http://purl.org/dc/dcmitype/StillImage"/>
    <dc:date>2025-06-05T22:35:53.956389</dc:date>
    <dc:format>image/svg+xml</dc:format>
    <dc:creator>
     <cc:Agent>
      <dc:title>Matplotlib v3.10.0, https://matplotlib.org/</dc:title>
     </cc:Agent>
    </dc:creator>
   </cc:Work>
  </rdf:RDF>
 </metadata>
 <defs>
  <style type="text/css">*{stroke-linejoin: round; stroke-linecap: butt}</style>
 </defs>
 <g id="figure_1">
  <g id="patch_1">
   <path d="M 0 350.167187 
L 494.239375 350.167187 
L 494.239375 0 
L 0 0 
z
" style="fill: #ffffff"/>
  </g>
  <g id="axes_1">
   <g id="patch_2">
    <path d="M 39.099375 311.68125 
L 483.539375 311.68125 
L 483.539375 36.92125 
L 39.099375 36.92125 
z
" style="fill: #ffffff"/>
   </g>
   <g id="PathCollection_1">
    <defs>
     <path id="m8b25cc38ed" d="M 0 4.644677 
C 1.231783 4.644677 2.41328 4.155284 3.284282 3.284282 
C 4.155284 2.41328 4.644677 1.231783 4.644677 0 
C 4.644677 -1.231783 4.155284 -2.41328 3.284282 -3.284282 
C 2.41328 -4.155284 1.231783 -4.644677 0 -4.644677 
C -1.231783 -4.644677 -2.41328 -4.155284 -3.284282 -3.284282 
C -4.155284 -2.41328 -4.644677 -1.231783 -4.644677 0 
C -4.644677 1.231783 -4.155284 2.41328 -3.284282 3.284282 
C -2.41328 4.155284 -1.231783 4.644677 0 4.644677 
z
" style="stroke: #ffffff; stroke-opacity: 0.832846; stroke-width: 0.5"/>
    </defs>
    <g clip-path="url(#p7085adb9ec)">
     <use xlink:href="#m8b25cc38ed" x="59.301193" y="161.241229" style="fill: #9467bd; fill-opacity: 0.832846; stroke: #ffffff; stroke-opacity: 0.832846; stroke-width: 0.5"/>
     <use xlink:href="#m8b25cc38ed" x="63.424014" y="190.073188" style="fill: #9467bd; fill-opacity: 0.832846; stroke: #ffffff; stroke-opacity: 0.832846; stroke-width: 0.5"/>
     <use xlink:href="#m8b25cc38ed" x="67.546835" y="201.670201" style="fill: #9467bd; fill-opacity: 0.832846; stroke: #ffffff; stroke-opacity: 0.832846; stroke-width: 0.5"/>
     <use xlink:href="#m8b25cc38ed" x="71.669652" y="90.588658" style="fill: #9467bd; fill-opacity: 0.832846; stroke: #ffffff; stroke-opacity: 0.832846; stroke-width: 0.5"/>
     <use xlink:href="#m8b25cc38ed" x="75.792473" y="221.866845" style="fill: #9467bd; fill-opacity: 0.832846; stroke: #ffffff; stroke-opacity: 0.832846; stroke-width: 0.5"/>
     <use xlink:href="#m8b25cc38ed" x="79.915294" y="162.561505" style="fill: #9467bd; fill-opacity: 0.832846; stroke: #ffffff; stroke-opacity: 0.832846; stroke-width: 0.5"/>
     <use xlink:href="#m8b25cc38ed" x="84.038115" y="199.350798" style="fill: #9467bd; fill-opacity: 0.832846; stroke: #ffffff; stroke-opacity: 0.832846; stroke-width: 0.5"/>
     <use xlink:href="#m8b25cc38ed" x="88.160932" y="159.956637" style="fill: #9467bd; fill-opacity: 0.832846; stroke: #ffffff; stroke-opacity: 0.832846; stroke-width: 0.5"/>
     <use xlink:href="#m8b25cc38ed" x="92.283753" y="159.350024" style="fill: #9467bd; fill-opacity: 0.832846; stroke: #ffffff; stroke-opacity: 0.832846; stroke-width: 0.5"/>
     <use xlink:href="#m8b25cc38ed" x="96.406574" y="228.254123" style="fill: #9467bd; fill-opacity: 0.832846; stroke: #ffffff; stroke-opacity: 0.832846; stroke-width: 0.5"/>
     <use xlink:href="#m8b25cc38ed" x="100.529395" y="225.328107" style="fill: #9467bd; fill-opacity: 0.832846; stroke: #ffffff; stroke-opacity: 0.832846; stroke-width: 0.5"/>
     <use xlink:href="#m8b25cc38ed" x="104.652212" y="143.542403" style="fill: #9467bd; fill-opacity: 0.832846; stroke: #ffffff; stroke-opacity: 0.832846; stroke-width: 0.5"/>
     <use xlink:href="#m8b25cc38ed" x="108.775033" y="143.792185" style="fill: #9467bd; fill-opacity: 0.832846; stroke: #ffffff; stroke-opacity: 0.832846; stroke-width: 0.5"/>
     <use xlink:href="#m8b25cc38ed" x="112.897854" y="178.119344" style="fill: #9467bd; fill-opacity: 0.832846; stroke: #ffffff; stroke-opacity: 0.832846; stroke-width: 0.5"/>
     <use xlink:href="#m8b25cc38ed" x="117.020675" y="172.302995" style="fill: #9467bd; fill-opacity: 0.832846; stroke: #ffffff; stroke-opacity: 0.832846; stroke-width: 0.5"/>
     <use xlink:href="#m8b25cc38ed" x="121.143492" y="146.932299" style="fill: #9467bd; fill-opacity: 0.832846; stroke: #ffffff; stroke-opacity: 0.832846; stroke-width: 0.5"/>
     <use xlink:href="#m8b25cc38ed" x="125.266313" y="212.910382" style="fill: #9467bd; fill-opacity: 0.832846; stroke: #ffffff; stroke-opacity: 0.832846; stroke-width: 0.5"/>
     <use xlink:href="#m8b25cc38ed" x="129.389134" y="197.566642" style="fill: #9467bd; fill-opacity: 0.832846; stroke: #ffffff; stroke-opacity: 0.832846; stroke-width: 0.5"/>
     <use xlink:href="#m8b25cc38ed" x="133.511956" y="107.288356" style="fill: #9467bd; fill-opacity: 0.832846; stroke: #ffffff; stroke-opacity: 0.832846; stroke-width: 0.5"/>
     <use xlink:href="#m8b25cc38ed" x="137.634772" y="140.580705" style="fill: #9467bd; fill-opacity: 0.832846; stroke: #ffffff; stroke-opacity: 0.832846; stroke-width: 0.5"/>
     <use xlink:href="#m8b25cc38ed" x="141.757594" y="49.410341" style="fill: #9467bd; fill-opacity: 0.832846; stroke: #ffffff; stroke-opacity: 0.832846; stroke-width: 0.5"/>
     <use xlink:href="#m8b25cc38ed" x="145.880415" y="188.503131" style="fill: #9467bd; fill-opacity: 0.832846; stroke: #ffffff; stroke-opacity: 0.832846; stroke-width: 0.5"/>
     <use xlink:href="#m8b25cc38ed" x="150.003236" y="170.768621" style="fill: #9467bd; fill-opacity: 0.832846; stroke: #ffffff; stroke-opacity: 0.832846; stroke-width: 0.5"/>
     <use xlink:href="#m8b25cc38ed" x="154.126053" y="125.201281" style="fill: #9467bd; fill-opacity: 0.832846; stroke: #ffffff; stroke-opacity: 0.832846; stroke-width: 0.5"/>
     <use xlink:href="#m8b25cc38ed" x="158.248874" y="176.121089" style="fill: #9467bd; fill-opacity: 0.832846; stroke: #ffffff; stroke-opacity: 0.832846; stroke-width: 0.5"/>
     <use xlink:href="#m8b25cc38ed" x="162.371695" y="129.804403" style="fill: #9467bd; fill-opacity: 0.832846; stroke: #ffffff; stroke-opacity: 0.832846; stroke-width: 0.5"/>
     <use xlink:href="#m8b25cc38ed" x="166.494516" y="182.865198" style="fill: #9467bd; fill-opacity: 0.832846; stroke: #ffffff; stroke-opacity: 0.832846; stroke-width: 0.5"/>
     <use xlink:href="#m8b25cc38ed" x="170.617333" y="156.638107" style="fill: #9467bd; fill-opacity: 0.832846; stroke: #ffffff; stroke-opacity: 0.832846; stroke-width: 0.5"/>
     <use xlink:href="#m8b25cc38ed" x="174.740154" y="219.083562" style="fill: #9467bd; fill-opacity: 0.832846; stroke: #ffffff; stroke-opacity: 0.832846; stroke-width: 0.5"/>
     <use xlink:href="#m8b25cc38ed" x="178.862975" y="152.249084" style="fill: #9467bd; fill-opacity: 0.832846; stroke: #ffffff; stroke-opacity: 0.832846; stroke-width: 0.5"/>
     <use xlink:href="#m8b25cc38ed" x="182.985796" y="131.802658" style="fill: #9467bd; fill-opacity: 0.832846; stroke: #ffffff; stroke-opacity: 0.832846; stroke-width: 0.5"/>
     <use xlink:href="#m8b25cc38ed" x="187.108613" y="149.323068" style="fill: #9467bd; fill-opacity: 0.832846; stroke: #ffffff; stroke-opacity: 0.832846; stroke-width: 0.5"/>
     <use xlink:href="#m8b25cc38ed" x="191.231434" y="196.210684" style="fill: #9467bd; fill-opacity: 0.832846; stroke: #ffffff; stroke-opacity: 0.832846; stroke-width: 0.5"/>
     <use xlink:href="#m8b25cc38ed" x="195.354255" y="228.182756" style="fill: #9467bd; fill-opacity: 0.832846; stroke: #ffffff; stroke-opacity: 0.832846; stroke-width: 0.5"/>
     <use xlink:href="#m8b25cc38ed" x="199.477076" y="142.793058" style="fill: #9467bd; fill-opacity: 0.832846; stroke: #ffffff; stroke-opacity: 0.832846; stroke-width: 0.5"/>
     <use xlink:href="#m8b25cc38ed" x="203.599893" y="139.545894" style="fill: #9467bd; fill-opacity: 0.832846; stroke: #ffffff; stroke-opacity: 0.832846; stroke-width: 0.5"/>
     <use xlink:href="#m8b25cc38ed" x="207.722714" y="148.145525" style="fill: #9467bd; fill-opacity: 0.832846; stroke: #ffffff; stroke-opacity: 0.832846; stroke-width: 0.5"/>
     <use xlink:href="#m8b25cc38ed" x="211.845535" y="130.054185" style="fill: #9467bd; fill-opacity: 0.832846; stroke: #ffffff; stroke-opacity: 0.832846; stroke-width: 0.5"/>
     <use xlink:href="#m8b25cc38ed" x="215.968356" y="193.570133" style="fill: #9467bd; fill-opacity: 0.832846; stroke: #ffffff; stroke-opacity: 0.832846; stroke-width: 0.5"/>
     <use xlink:href="#m8b25cc38ed" x="220.091173" y="161.776476" style="fill: #9467bd; fill-opacity: 0.832846; stroke: #ffffff; stroke-opacity: 0.832846; stroke-width: 0.5"/>
     <use xlink:href="#m8b25cc38ed" x="224.213994" y="178.975738" style="fill: #9467bd; fill-opacity: 0.832846; stroke: #ffffff; stroke-opacity: 0.832846; stroke-width: 0.5"/>
     <use xlink:href="#m8b25cc38ed" x="228.336815" y="262.581281" style="fill: #9467bd; fill-opacity: 0.832846; stroke: #ffffff; stroke-opacity: 0.832846; stroke-width: 0.5"/>
     <use xlink:href="#m8b25cc38ed" x="232.459636" y="184.970502" style="fill: #9467bd; fill-opacity: 0.832846; stroke: #ffffff; stroke-opacity: 0.832846; stroke-width: 0.5"/>
     <use xlink:href="#m8b25cc38ed" x="236.582453" y="176.192455" style="fill: #9467bd; fill-opacity: 0.832846; stroke: #ffffff; stroke-opacity: 0.832846; stroke-width: 0.5"/>
     <use xlink:href="#m8b25cc38ed" x="240.705274" y="202.383863" style="fill: #9467bd; fill-opacity: 0.832846; stroke: #ffffff; stroke-opacity: 0.832846; stroke-width: 0.5"/>
     <use xlink:href="#m8b25cc38ed" x="244.828095" y="139.010647" style="fill: #9467bd; fill-opacity: 0.832846; stroke: #ffffff; stroke-opacity: 0.832846; stroke-width: 0.5"/>
     <use xlink:href="#m8b25cc38ed" x="248.950916" y="195.425655" style="fill: #9467bd; fill-opacity: 0.832846; stroke: #ffffff; stroke-opacity: 0.832846; stroke-width: 0.5"/>
     <use xlink:href="#m8b25cc38ed" x="253.073733" y="196.317733" style="fill: #9467bd; fill-opacity: 0.832846; stroke: #ffffff; stroke-opacity: 0.832846; stroke-width: 0.5"/>
     <use xlink:href="#m8b25cc38ed" x="257.196554" y="197.31686" style="fill: #9467bd; fill-opacity: 0.832846; stroke: #ffffff; stroke-opacity: 0.832846; stroke-width: 0.5"/>
     <use xlink:href="#m8b25cc38ed" x="261.319375" y="214.337707" style="fill: #9467bd; fill-opacity: 0.832846; stroke: #ffffff; stroke-opacity: 0.832846; stroke-width: 0.5"/>
     <use xlink:href="#m8b25cc38ed" x="265.442196" y="214.37339" style="fill: #9467bd; fill-opacity: 0.832846; stroke: #ffffff; stroke-opacity: 0.832846; stroke-width: 0.5"/>
     <use xlink:href="#m8b25cc38ed" x="269.565017" y="186.933073" style="fill: #9467bd; fill-opacity: 0.832846; stroke: #ffffff; stroke-opacity: 0.832846; stroke-width: 0.5"/>
     <use xlink:href="#m8b25cc38ed" x="273.687834" y="137.511956" style="fill: #9467bd; fill-opacity: 0.832846; stroke: #ffffff; stroke-opacity: 0.832846; stroke-width: 0.5"/>
     <use xlink:href="#m8b25cc38ed" x="277.810655" y="70.106549" style="fill: #9467bd; fill-opacity: 0.832846; stroke: #ffffff; stroke-opacity: 0.832846; stroke-width: 0.5"/>
     <use xlink:href="#m8b25cc38ed" x="281.933476" y="250.841536" style="fill: #9467bd; fill-opacity: 0.832846; stroke: #ffffff; stroke-opacity: 0.832846; stroke-width: 0.5"/>
     <use xlink:href="#m8b25cc38ed" x="286.056297" y="199.671946" style="fill: #9467bd; fill-opacity: 0.832846; stroke: #ffffff; stroke-opacity: 0.832846; stroke-width: 0.5"/>
     <use xlink:href="#m8b25cc38ed" x="290.179114" y="211.661473" style="fill: #9467bd; fill-opacity: 0.832846; stroke: #ffffff; stroke-opacity: 0.832846; stroke-width: 0.5"/>
     <use xlink:href="#m8b25cc38ed" x="294.301935" y="128.270029" style="fill: #9467bd; fill-opacity: 0.832846; stroke: #ffffff; stroke-opacity: 0.832846; stroke-width: 0.5"/>
     <use xlink:href="#m8b25cc38ed" x="298.424756" y="223.75805" style="fill: #9467bd; fill-opacity: 0.832846; stroke: #ffffff; stroke-opacity: 0.832846; stroke-width: 0.5"/>
     <use xlink:href="#m8b25cc38ed" x="302.547577" y="173.980102" style="fill: #9467bd; fill-opacity: 0.832846; stroke: #ffffff; stroke-opacity: 0.832846; stroke-width: 0.5"/>
     <use xlink:href="#m8b25cc38ed" x="306.670394" y="156.495375" style="fill: #9467bd; fill-opacity: 0.832846; stroke: #ffffff; stroke-opacity: 0.832846; stroke-width: 0.5"/>
     <use xlink:href="#m8b25cc38ed" x="310.793215" y="178.76164" style="fill: #9467bd; fill-opacity: 0.832846; stroke: #ffffff; stroke-opacity: 0.832846; stroke-width: 0.5"/>
     <use xlink:href="#m8b25cc38ed" x="314.916036" y="212.053988" style="fill: #9467bd; fill-opacity: 0.832846; stroke: #ffffff; stroke-opacity: 0.832846; stroke-width: 0.5"/>
     <use xlink:href="#m8b25cc38ed" x="319.038857" y="223.508268" style="fill: #9467bd; fill-opacity: 0.832846; stroke: #ffffff; stroke-opacity: 0.832846; stroke-width: 0.5"/>
     <use xlink:href="#m8b25cc38ed" x="323.161674" y="205.416928" style="fill: #9467bd; fill-opacity: 0.832846; stroke: #ffffff; stroke-opacity: 0.832846; stroke-width: 0.5"/>
     <use xlink:href="#m8b25cc38ed" x="327.284495" y="219.476076" style="fill: #9467bd; fill-opacity: 0.832846; stroke: #ffffff; stroke-opacity: 0.832846; stroke-width: 0.5"/>
     <use xlink:href="#m8b25cc38ed" x="331.407316" y="181.616289" style="fill: #9467bd; fill-opacity: 0.832846; stroke: #ffffff; stroke-opacity: 0.832846; stroke-width: 0.5"/>
     <use xlink:href="#m8b25cc38ed" x="335.530137" y="184.078424" style="fill: #9467bd; fill-opacity: 0.832846; stroke: #ffffff; stroke-opacity: 0.832846; stroke-width: 0.5"/>
     <use xlink:href="#m8b25cc38ed" x="339.652954" y="195.960902" style="fill: #9467bd; fill-opacity: 0.832846; stroke: #ffffff; stroke-opacity: 0.832846; stroke-width: 0.5"/>
     <use xlink:href="#m8b25cc38ed" x="343.775775" y="248.165302" style="fill: #9467bd; fill-opacity: 0.832846; stroke: #ffffff; stroke-opacity: 0.832846; stroke-width: 0.5"/>
     <use xlink:href="#m8b25cc38ed" x="347.898596" y="119.063785" style="fill: #9467bd; fill-opacity: 0.832846; stroke: #ffffff; stroke-opacity: 0.832846; stroke-width: 0.5"/>
     <use xlink:href="#m8b25cc38ed" x="352.021417" y="238.994741" style="fill: #9467bd; fill-opacity: 0.832846; stroke: #ffffff; stroke-opacity: 0.832846; stroke-width: 0.5"/>
     <use xlink:href="#m8b25cc38ed" x="356.144234" y="218.726731" style="fill: #9467bd; fill-opacity: 0.832846; stroke: #ffffff; stroke-opacity: 0.832846; stroke-width: 0.5"/>
     <use xlink:href="#m8b25cc38ed" x="360.267055" y="279.173931" style="fill: #9467bd; fill-opacity: 0.832846; stroke: #ffffff; stroke-opacity: 0.832846; stroke-width: 0.5"/>
     <use xlink:href="#m8b25cc38ed" x="364.389876" y="147.182081" style="fill: #9467bd; fill-opacity: 0.832846; stroke: #ffffff; stroke-opacity: 0.832846; stroke-width: 0.5"/>
     <use xlink:href="#m8b25cc38ed" x="368.512697" y="124.701718" style="fill: #9467bd; fill-opacity: 0.832846; stroke: #ffffff; stroke-opacity: 0.832846; stroke-width: 0.5"/>
     <use xlink:href="#m8b25cc38ed" x="372.635514" y="208.521359" style="fill: #9467bd; fill-opacity: 0.832846; stroke: #ffffff; stroke-opacity: 0.832846; stroke-width: 0.5"/>
     <use xlink:href="#m8b25cc38ed" x="376.758335" y="265.400247" style="fill: #9467bd; fill-opacity: 0.832846; stroke: #ffffff; stroke-opacity: 0.832846; stroke-width: 0.5"/>
     <use xlink:href="#m8b25cc38ed" x="380.881156" y="187.932201" style="fill: #9467bd; fill-opacity: 0.832846; stroke: #ffffff; stroke-opacity: 0.832846; stroke-width: 0.5"/>
     <use xlink:href="#m8b25cc38ed" x="385.003978" y="211.946938" style="fill: #9467bd; fill-opacity: 0.832846; stroke: #ffffff; stroke-opacity: 0.832846; stroke-width: 0.5"/>
     <use xlink:href="#m8b25cc38ed" x="389.126794" y="299.192159" style="fill: #9467bd; fill-opacity: 0.832846; stroke: #ffffff; stroke-opacity: 0.832846; stroke-width: 0.5"/>
     <use xlink:href="#m8b25cc38ed" x="393.249616" y="239.851136" style="fill: #9467bd; fill-opacity: 0.832846; stroke: #ffffff; stroke-opacity: 0.832846; stroke-width: 0.5"/>
     <use xlink:href="#m8b25cc38ed" x="397.372437" y="161.312595" style="fill: #9467bd; fill-opacity: 0.832846; stroke: #ffffff; stroke-opacity: 0.832846; stroke-width: 0.5"/>
     <use xlink:href="#m8b25cc38ed" x="401.495258" y="157.066305" style="fill: #9467bd; fill-opacity: 0.832846; stroke: #ffffff; stroke-opacity: 0.832846; stroke-width: 0.5"/>
     <use xlink:href="#m8b25cc38ed" x="405.618075" y="138.189936" style="fill: #9467bd; fill-opacity: 0.832846; stroke: #ffffff; stroke-opacity: 0.832846; stroke-width: 0.5"/>
     <use xlink:href="#m8b25cc38ed" x="409.740896" y="204.667582" style="fill: #9467bd; fill-opacity: 0.832846; stroke: #ffffff; stroke-opacity: 0.832846; stroke-width: 0.5"/>
     <use xlink:href="#m8b25cc38ed" x="413.863717" y="218.691047" style="fill: #9467bd; fill-opacity: 0.832846; stroke: #ffffff; stroke-opacity: 0.832846; stroke-width: 0.5"/>
     <use xlink:href="#m8b25cc38ed" x="417.986538" y="172.58846" style="fill: #9467bd; fill-opacity: 0.832846; stroke: #ffffff; stroke-opacity: 0.832846; stroke-width: 0.5"/>
     <use xlink:href="#m8b25cc38ed" x="422.109355" y="268.718777" style="fill: #9467bd; fill-opacity: 0.832846; stroke: #ffffff; stroke-opacity: 0.832846; stroke-width: 0.5"/>
     <use xlink:href="#m8b25cc38ed" x="426.232176" y="212.125354" style="fill: #9467bd; fill-opacity: 0.832846; stroke: #ffffff; stroke-opacity: 0.832846; stroke-width: 0.5"/>
     <use xlink:href="#m8b25cc38ed" x="430.354997" y="234.070471" style="fill: #9467bd; fill-opacity: 0.832846; stroke: #ffffff; stroke-opacity: 0.832846; stroke-width: 0.5"/>
     <use xlink:href="#m8b25cc38ed" x="434.477818" y="154.03324" style="fill: #9467bd; fill-opacity: 0.832846; stroke: #ffffff; stroke-opacity: 0.832846; stroke-width: 0.5"/>
     <use xlink:href="#m8b25cc38ed" x="438.600635" y="224.828544" style="fill: #9467bd; fill-opacity: 0.832846; stroke: #ffffff; stroke-opacity: 0.832846; stroke-width: 0.5"/>
     <use xlink:href="#m8b25cc38ed" x="442.723456" y="180.652845" style="fill: #9467bd; fill-opacity: 0.832846; stroke: #ffffff; stroke-opacity: 0.832846; stroke-width: 0.5"/>
     <use xlink:href="#m8b25cc38ed" x="446.846277" y="197.209811" style="fill: #9467bd; fill-opacity: 0.832846; stroke: #ffffff; stroke-opacity: 0.832846; stroke-width: 0.5"/>
     <use xlink:href="#m8b25cc38ed" x="450.969098" y="161.70511" style="fill: #9467bd; fill-opacity: 0.832846; stroke: #ffffff; stroke-opacity: 0.832846; stroke-width: 0.5"/>
     <use xlink:href="#m8b25cc38ed" x="455.091915" y="192.428273" style="fill: #9467bd; fill-opacity: 0.832846; stroke: #ffffff; stroke-opacity: 0.832846; stroke-width: 0.5"/>
     <use xlink:href="#m8b25cc38ed" x="459.214736" y="220.296788" style="fill: #9467bd; fill-opacity: 0.832846; stroke: #ffffff; stroke-opacity: 0.832846; stroke-width: 0.5"/>
     <use xlink:href="#m8b25cc38ed" x="463.337557" y="126.200408" style="fill: #9467bd; fill-opacity: 0.832846; stroke: #ffffff; stroke-opacity: 0.832846; stroke-width: 0.5"/>
    </g>
   </g>
   <g id="matplotlib.axis_1">
    <g id="xtick_1">
     <g id="line2d_1">
      <defs>
       <path id="mf477efb2e0" d="M 0 0 
L 0 3.5 
" style="stroke: #000000; stroke-width: 0.8"/>
      </defs>
      <g>
       <use xlink:href="#mf477efb2e0" x="58.896752" y="311.68125" style="stroke: #000000; stroke-width: 0.8"/>
      </g>
     </g>
     <g id="line2d_2">
      <defs>
       <path id="mb3504b5d55" d="M 0 0 
L 0 -3.5 
" style="stroke: #000000; stroke-width: 0.8"/>
      </defs>
      <g>
       <use xlink:href="#mb3504b5d55" x="58.896752" y="36.92125" style="stroke: #000000; stroke-width: 0.8"/>
      </g>
     </g>
     <g id="text_1">
      <!-- 0.0 -->
      <g transform="translate(52.646752 325.625) scale(0.1 -0.1)">
       <defs>
        <path id="TimesNewRomanPSMT-30" d="M 231 2094 
Q 231 2819 450 3342 
Q 669 3866 1031 4122 
Q 1313 4325 1613 4325 
Q 2100 4325 2488 3828 
Q 2972 3213 2972 2159 
Q 2972 1422 2759 906 
Q 2547 391 2217 158 
Q 1888 -75 1581 -75 
Q 975 -75 572 641 
Q 231 1244 231 2094 
z
M 844 2016 
Q 844 1141 1059 588 
Q 1238 122 1591 122 
Q 1759 122 1940 273 
Q 2122 425 2216 781 
Q 2359 1319 2359 2297 
Q 2359 3022 2209 3506 
Q 2097 3866 1919 4016 
Q 1791 4119 1609 4119 
Q 1397 4119 1231 3928 
Q 1006 3669 925 3112 
Q 844 2556 844 2016 
z
" transform="scale(0.015625)"/>
        <path id="TimesNewRomanPSMT-2e" d="M 800 606 
Q 947 606 1047 504 
Q 1147 403 1147 259 
Q 1147 116 1045 14 
Q 944 -88 800 -88 
Q 656 -88 554 14 
Q 453 116 453 259 
Q 453 406 554 506 
Q 656 606 800 606 
z
" transform="scale(0.015625)"/>
       </defs>
       <use xlink:href="#TimesNewRomanPSMT-30"/>
       <use xlink:href="#TimesNewRomanPSMT-2e" transform="translate(50 0)"/>
       <use xlink:href="#TimesNewRomanPSMT-30" transform="translate(75 0)"/>
      </g>
     </g>
    </g>
    <g id="xtick_2">
     <g id="line2d_3">
      <g>
       <use xlink:href="#mf477efb2e0" x="139.784913" y="311.68125" style="stroke: #000000; stroke-width: 0.8"/>
      </g>
     </g>
     <g id="line2d_4">
      <g>
       <use xlink:href="#mb3504b5d55" x="139.784913" y="36.92125" style="stroke: #000000; stroke-width: 0.8"/>
      </g>
     </g>
     <g id="text_2">
      <!-- 0.2 -->
      <g transform="translate(133.534913 325.625) scale(0.1 -0.1)">
       <defs>
        <path id="TimesNewRomanPSMT-32" d="M 2934 816 
L 2638 0 
L 138 0 
L 138 116 
Q 1241 1122 1691 1759 
Q 2141 2397 2141 2925 
Q 2141 3328 1894 3587 
Q 1647 3847 1303 3847 
Q 991 3847 742 3664 
Q 494 3481 375 3128 
L 259 3128 
Q 338 3706 661 4015 
Q 984 4325 1469 4325 
Q 1984 4325 2329 3994 
Q 2675 3663 2675 3213 
Q 2675 2891 2525 2569 
Q 2294 2063 1775 1497 
Q 997 647 803 472 
L 1909 472 
Q 2247 472 2383 497 
Q 2519 522 2628 598 
Q 2738 675 2819 816 
L 2934 816 
z
" transform="scale(0.015625)"/>
       </defs>
       <use xlink:href="#TimesNewRomanPSMT-30"/>
       <use xlink:href="#TimesNewRomanPSMT-2e" transform="translate(50 0)"/>
       <use xlink:href="#TimesNewRomanPSMT-32" transform="translate(75 0)"/>
      </g>
     </g>
    </g>
    <g id="xtick_3">
     <g id="line2d_5">
      <g>
       <use xlink:href="#mf477efb2e0" x="220.673074" y="311.68125" style="stroke: #000000; stroke-width: 0.8"/>
      </g>
     </g>
     <g id="line2d_6">
      <g>
       <use xlink:href="#mb3504b5d55" x="220.673074" y="36.92125" style="stroke: #000000; stroke-width: 0.8"/>
      </g>
     </g>
     <g id="text_3">
      <!-- 0.4 -->
      <g transform="translate(214.423074 325.625) scale(0.1 -0.1)">
       <defs>
        <path id="TimesNewRomanPSMT-34" d="M 2978 1563 
L 2978 1119 
L 2409 1119 
L 2409 0 
L 1894 0 
L 1894 1119 
L 100 1119 
L 100 1519 
L 2066 4325 
L 2409 4325 
L 2409 1563 
L 2978 1563 
z
M 1894 1563 
L 1894 3666 
L 406 1563 
L 1894 1563 
z
" transform="scale(0.015625)"/>
       </defs>
       <use xlink:href="#TimesNewRomanPSMT-30"/>
       <use xlink:href="#TimesNewRomanPSMT-2e" transform="translate(50 0)"/>
       <use xlink:href="#TimesNewRomanPSMT-34" transform="translate(75 0)"/>
      </g>
     </g>
    </g>
    <g id="xtick_4">
     <g id="line2d_7">
      <g>
       <use xlink:href="#mf477efb2e0" x="301.561235" y="311.68125" style="stroke: #000000; stroke-width: 0.8"/>
      </g>
     </g>
     <g id="line2d_8">
      <g>
       <use xlink:href="#mb3504b5d55" x="301.561235" y="36.92125" style="stroke: #000000; stroke-width: 0.8"/>
      </g>
     </g>
     <g id="text_4">
      <!-- 0.6 -->
      <g transform="translate(295.311235 325.625) scale(0.1 -0.1)">
       <defs>
        <path id="TimesNewRomanPSMT-36" d="M 2869 4325 
L 2869 4209 
Q 2456 4169 2195 4045 
Q 1934 3922 1679 3669 
Q 1425 3416 1258 3105 
Q 1091 2794 978 2366 
Q 1428 2675 1881 2675 
Q 2316 2675 2634 2325 
Q 2953 1975 2953 1425 
Q 2953 894 2631 456 
Q 2244 -75 1606 -75 
Q 1172 -75 869 213 
Q 275 772 275 1663 
Q 275 2231 503 2743 
Q 731 3256 1154 3653 
Q 1578 4050 1965 4187 
Q 2353 4325 2688 4325 
L 2869 4325 
z
M 925 2138 
Q 869 1716 869 1456 
Q 869 1156 980 804 
Q 1091 453 1309 247 
Q 1469 100 1697 100 
Q 1969 100 2183 356 
Q 2397 613 2397 1088 
Q 2397 1622 2184 2012 
Q 1972 2403 1581 2403 
Q 1463 2403 1327 2353 
Q 1191 2303 925 2138 
z
" transform="scale(0.015625)"/>
       </defs>
       <use xlink:href="#TimesNewRomanPSMT-30"/>
       <use xlink:href="#TimesNewRomanPSMT-2e" transform="translate(50 0)"/>
       <use xlink:href="#TimesNewRomanPSMT-36" transform="translate(75 0)"/>
      </g>
     </g>
    </g>
    <g id="xtick_5">
     <g id="line2d_9">
      <g>
       <use xlink:href="#mf477efb2e0" x="382.449396" y="311.68125" style="stroke: #000000; stroke-width: 0.8"/>
      </g>
     </g>
     <g id="line2d_10">
      <g>
       <use xlink:href="#mb3504b5d55" x="382.449396" y="36.92125" style="stroke: #000000; stroke-width: 0.8"/>
      </g>
     </g>
     <g id="text_5">
      <!-- 0.8 -->
      <g transform="translate(376.199396 325.625) scale(0.1 -0.1)">
       <defs>
        <path id="TimesNewRomanPSMT-38" d="M 1228 2134 
Q 725 2547 579 2797 
Q 434 3047 434 3316 
Q 434 3728 753 4026 
Q 1072 4325 1600 4325 
Q 2113 4325 2425 4047 
Q 2738 3769 2738 3413 
Q 2738 3175 2569 2928 
Q 2400 2681 1866 2347 
Q 2416 1922 2594 1678 
Q 2831 1359 2831 1006 
Q 2831 559 2490 242 
Q 2150 -75 1597 -75 
Q 994 -75 656 303 
Q 388 606 388 966 
Q 388 1247 577 1523 
Q 766 1800 1228 2134 
z
M 1719 2469 
Q 2094 2806 2194 3001 
Q 2294 3197 2294 3444 
Q 2294 3772 2109 3958 
Q 1925 4144 1606 4144 
Q 1288 4144 1088 3959 
Q 888 3775 888 3528 
Q 888 3366 970 3203 
Q 1053 3041 1206 2894 
L 1719 2469 
z
M 1375 2016 
Q 1116 1797 991 1539 
Q 866 1281 866 981 
Q 866 578 1086 336 
Q 1306 94 1647 94 
Q 1984 94 2187 284 
Q 2391 475 2391 747 
Q 2391 972 2272 1150 
Q 2050 1481 1375 2016 
z
" transform="scale(0.015625)"/>
       </defs>
       <use xlink:href="#TimesNewRomanPSMT-30"/>
       <use xlink:href="#TimesNewRomanPSMT-2e" transform="translate(50 0)"/>
       <use xlink:href="#TimesNewRomanPSMT-38" transform="translate(75 0)"/>
      </g>
     </g>
    </g>
    <g id="xtick_6">
     <g id="line2d_11">
      <g>
       <use xlink:href="#mf477efb2e0" x="463.337557" y="311.68125" style="stroke: #000000; stroke-width: 0.8"/>
      </g>
     </g>
     <g id="line2d_12">
      <g>
       <use xlink:href="#mb3504b5d55" x="463.337557" y="36.92125" style="stroke: #000000; stroke-width: 0.8"/>
      </g>
     </g>
     <g id="text_6">
      <!-- 1.0 -->
      <g transform="translate(457.087557 325.625) scale(0.1 -0.1)">
       <defs>
        <path id="TimesNewRomanPSMT-31" d="M 750 3822 
L 1781 4325 
L 1884 4325 
L 1884 747 
Q 1884 391 1914 303 
Q 1944 216 2037 169 
Q 2131 122 2419 116 
L 2419 0 
L 825 0 
L 825 116 
Q 1125 122 1212 167 
Q 1300 213 1334 289 
Q 1369 366 1369 747 
L 1369 3034 
Q 1369 3497 1338 3628 
Q 1316 3728 1258 3775 
Q 1200 3822 1119 3822 
Q 1003 3822 797 3725 
L 750 3822 
z
" transform="scale(0.015625)"/>
       </defs>
       <use xlink:href="#TimesNewRomanPSMT-31"/>
       <use xlink:href="#TimesNewRomanPSMT-2e" transform="translate(50 0)"/>
       <use xlink:href="#TimesNewRomanPSMT-30" transform="translate(75 0)"/>
      </g>
     </g>
    </g>
    <g id="text_7">
     <!-- Advertising spend ($) -->
     <g transform="translate(208.994687 340.377812) scale(0.12 -0.12)">
      <defs>
       <path id="TimesNewRomanPSMT-41" d="M 2928 1419 
L 1288 1419 
L 1000 750 
Q 894 503 894 381 
Q 894 284 986 211 
Q 1078 138 1384 116 
L 1384 0 
L 50 0 
L 50 116 
Q 316 163 394 238 
Q 553 388 747 847 
L 2238 4334 
L 2347 4334 
L 3822 809 
Q 4000 384 4145 257 
Q 4291 131 4550 116 
L 4550 0 
L 2878 0 
L 2878 116 
Q 3131 128 3220 200 
Q 3309 272 3309 375 
Q 3309 513 3184 809 
L 2928 1419 
z
M 2841 1650 
L 2122 3363 
L 1384 1650 
L 2841 1650 
z
" transform="scale(0.015625)"/>
       <path id="TimesNewRomanPSMT-64" d="M 2222 322 
Q 2013 103 1813 7 
Q 1613 -88 1381 -88 
Q 913 -88 563 304 
Q 213 697 213 1313 
Q 213 1928 600 2439 
Q 988 2950 1597 2950 
Q 1975 2950 2222 2709 
L 2222 3238 
Q 2222 3728 2198 3840 
Q 2175 3953 2125 3993 
Q 2075 4034 2000 4034 
Q 1919 4034 1784 3984 
L 1744 4094 
L 2597 4444 
L 2738 4444 
L 2738 1134 
Q 2738 631 2761 520 
Q 2784 409 2836 365 
Q 2888 322 2956 322 
Q 3041 322 3181 375 
L 3216 266 
L 2366 -88 
L 2222 -88 
L 2222 322 
z
M 2222 541 
L 2222 2016 
Q 2203 2228 2109 2403 
Q 2016 2578 1861 2667 
Q 1706 2756 1559 2756 
Q 1284 2756 1069 2509 
Q 784 2184 784 1559 
Q 784 928 1059 592 
Q 1334 256 1672 256 
Q 1956 256 2222 541 
z
" transform="scale(0.015625)"/>
       <path id="TimesNewRomanPSMT-76" d="M 53 2863 
L 1400 2863 
L 1400 2747 
L 1313 2747 
Q 1191 2747 1127 2687 
Q 1063 2628 1063 2528 
Q 1063 2419 1128 2269 
L 1794 688 
L 2463 2328 
Q 2534 2503 2534 2594 
Q 2534 2638 2509 2666 
Q 2475 2713 2422 2730 
Q 2369 2747 2206 2747 
L 2206 2863 
L 3141 2863 
L 3141 2747 
Q 2978 2734 2916 2681 
Q 2806 2588 2719 2369 
L 1703 -88 
L 1575 -88 
L 553 2328 
Q 484 2497 421 2570 
Q 359 2644 263 2694 
Q 209 2722 53 2747 
L 53 2863 
z
" transform="scale(0.015625)"/>
       <path id="TimesNewRomanPSMT-65" d="M 681 1784 
Q 678 1147 991 784 
Q 1303 422 1725 422 
Q 2006 422 2214 576 
Q 2422 731 2563 1106 
L 2659 1044 
Q 2594 616 2278 264 
Q 1963 -88 1488 -88 
Q 972 -88 605 314 
Q 238 716 238 1394 
Q 238 2128 614 2539 
Q 991 2950 1559 2950 
Q 2041 2950 2350 2633 
Q 2659 2316 2659 1784 
L 681 1784 
z
M 681 1966 
L 2006 1966 
Q 1991 2241 1941 2353 
Q 1863 2528 1708 2628 
Q 1553 2728 1384 2728 
Q 1125 2728 920 2526 
Q 716 2325 681 1966 
z
" transform="scale(0.015625)"/>
       <path id="TimesNewRomanPSMT-72" d="M 1038 2947 
L 1038 2303 
Q 1397 2947 1775 2947 
Q 1947 2947 2059 2842 
Q 2172 2738 2172 2600 
Q 2172 2478 2090 2393 
Q 2009 2309 1897 2309 
Q 1788 2309 1652 2417 
Q 1516 2525 1450 2525 
Q 1394 2525 1328 2463 
Q 1188 2334 1038 2041 
L 1038 669 
Q 1038 431 1097 309 
Q 1138 225 1241 169 
Q 1344 113 1538 113 
L 1538 0 
L 72 0 
L 72 113 
Q 291 113 397 181 
Q 475 231 506 341 
Q 522 394 522 644 
L 522 1753 
Q 522 2253 501 2348 
Q 481 2444 426 2487 
Q 372 2531 291 2531 
Q 194 2531 72 2484 
L 41 2597 
L 906 2947 
L 1038 2947 
z
" transform="scale(0.015625)"/>
       <path id="TimesNewRomanPSMT-74" d="M 1031 3803 
L 1031 2863 
L 1700 2863 
L 1700 2644 
L 1031 2644 
L 1031 788 
Q 1031 509 1111 412 
Q 1191 316 1316 316 
Q 1419 316 1516 380 
Q 1613 444 1666 569 
L 1788 569 
Q 1678 263 1478 108 
Q 1278 -47 1066 -47 
Q 922 -47 784 33 
Q 647 113 581 261 
Q 516 409 516 719 
L 516 2644 
L 63 2644 
L 63 2747 
Q 234 2816 414 2980 
Q 594 3144 734 3369 
Q 806 3488 934 3803 
L 1031 3803 
z
" transform="scale(0.015625)"/>
       <path id="TimesNewRomanPSMT-69" d="M 928 4444 
Q 1059 4444 1151 4351 
Q 1244 4259 1244 4128 
Q 1244 3997 1151 3903 
Q 1059 3809 928 3809 
Q 797 3809 703 3903 
Q 609 3997 609 4128 
Q 609 4259 701 4351 
Q 794 4444 928 4444 
z
M 1188 2947 
L 1188 647 
Q 1188 378 1227 289 
Q 1266 200 1342 156 
Q 1419 113 1622 113 
L 1622 0 
L 231 0 
L 231 113 
Q 441 113 512 153 
Q 584 194 626 287 
Q 669 381 669 647 
L 669 1750 
Q 669 2216 641 2353 
Q 619 2453 572 2492 
Q 525 2531 444 2531 
Q 356 2531 231 2484 
L 188 2597 
L 1050 2947 
L 1188 2947 
z
" transform="scale(0.015625)"/>
       <path id="TimesNewRomanPSMT-73" d="M 2050 2947 
L 2050 1972 
L 1947 1972 
Q 1828 2431 1642 2597 
Q 1456 2763 1169 2763 
Q 950 2763 815 2647 
Q 681 2531 681 2391 
Q 681 2216 781 2091 
Q 878 1963 1175 1819 
L 1631 1597 
Q 2266 1288 2266 781 
Q 2266 391 1970 151 
Q 1675 -88 1309 -88 
Q 1047 -88 709 6 
Q 606 38 541 38 
Q 469 38 428 -44 
L 325 -44 
L 325 978 
L 428 978 
Q 516 541 762 319 
Q 1009 97 1316 97 
Q 1531 97 1667 223 
Q 1803 350 1803 528 
Q 1803 744 1651 891 
Q 1500 1038 1047 1263 
Q 594 1488 453 1669 
Q 313 1847 313 2119 
Q 313 2472 555 2709 
Q 797 2947 1181 2947 
Q 1350 2947 1591 2875 
Q 1750 2828 1803 2828 
Q 1853 2828 1881 2850 
Q 1909 2872 1947 2947 
L 2050 2947 
z
" transform="scale(0.015625)"/>
       <path id="TimesNewRomanPSMT-6e" d="M 1034 2341 
Q 1538 2947 1994 2947 
Q 2228 2947 2397 2830 
Q 2566 2713 2666 2444 
Q 2734 2256 2734 1869 
L 2734 647 
Q 2734 375 2778 278 
Q 2813 200 2889 156 
Q 2966 113 3172 113 
L 3172 0 
L 1756 0 
L 1756 113 
L 1816 113 
Q 2016 113 2095 173 
Q 2175 234 2206 353 
Q 2219 400 2219 647 
L 2219 1819 
Q 2219 2209 2117 2386 
Q 2016 2563 1775 2563 
Q 1403 2563 1034 2156 
L 1034 647 
Q 1034 356 1069 288 
Q 1113 197 1189 155 
Q 1266 113 1500 113 
L 1500 0 
L 84 0 
L 84 113 
L 147 113 
Q 366 113 442 223 
Q 519 334 519 647 
L 519 1709 
Q 519 2225 495 2337 
Q 472 2450 423 2490 
Q 375 2531 294 2531 
Q 206 2531 84 2484 
L 38 2597 
L 900 2947 
L 1034 2947 
L 1034 2341 
z
" transform="scale(0.015625)"/>
       <path id="TimesNewRomanPSMT-67" d="M 966 1044 
Q 703 1172 562 1401 
Q 422 1631 422 1909 
Q 422 2334 742 2640 
Q 1063 2947 1563 2947 
Q 1972 2947 2272 2747 
L 2878 2747 
Q 3013 2747 3034 2739 
Q 3056 2731 3066 2713 
Q 3084 2684 3084 2613 
Q 3084 2531 3069 2500 
Q 3059 2484 3036 2475 
Q 3013 2466 2878 2466 
L 2506 2466 
Q 2681 2241 2681 1891 
Q 2681 1491 2375 1206 
Q 2069 922 1553 922 
Q 1341 922 1119 984 
Q 981 866 932 777 
Q 884 688 884 625 
Q 884 572 936 522 
Q 988 472 1138 450 
Q 1225 438 1575 428 
Q 2219 413 2409 384 
Q 2700 344 2873 169 
Q 3047 -6 3047 -263 
Q 3047 -616 2716 -925 
Q 2228 -1381 1444 -1381 
Q 841 -1381 425 -1109 
Q 191 -953 191 -784 
Q 191 -709 225 -634 
Q 278 -519 444 -313 
Q 466 -284 763 25 
Q 600 122 533 198 
Q 466 275 466 372 
Q 466 481 555 628 
Q 644 775 966 1044 
z
M 1509 2797 
Q 1278 2797 1122 2612 
Q 966 2428 966 2047 
Q 966 1553 1178 1281 
Q 1341 1075 1591 1075 
Q 1828 1075 1981 1253 
Q 2134 1431 2134 1813 
Q 2134 2309 1919 2591 
Q 1759 2797 1509 2797 
z
M 934 0 
Q 788 -159 713 -296 
Q 638 -434 638 -550 
Q 638 -700 819 -813 
Q 1131 -1006 1722 -1006 
Q 2284 -1006 2551 -807 
Q 2819 -609 2819 -384 
Q 2819 -222 2659 -153 
Q 2497 -84 2016 -72 
Q 1313 -53 934 0 
z
" transform="scale(0.015625)"/>
       <path id="TimesNewRomanPSMT-20" transform="scale(0.015625)"/>
       <path id="TimesNewRomanPSMT-70" d="M -6 2578 
L 875 2934 
L 994 2934 
L 994 2266 
Q 1216 2644 1439 2795 
Q 1663 2947 1909 2947 
Q 2341 2947 2628 2609 
Q 2981 2197 2981 1534 
Q 2981 794 2556 309 
Q 2206 -88 1675 -88 
Q 1444 -88 1275 -22 
Q 1150 25 994 166 
L 994 -706 
Q 994 -1000 1030 -1079 
Q 1066 -1159 1155 -1206 
Q 1244 -1253 1478 -1253 
L 1478 -1369 
L -22 -1369 
L -22 -1253 
L 56 -1253 
Q 228 -1256 350 -1188 
Q 409 -1153 442 -1076 
Q 475 -1000 475 -688 
L 475 2019 
Q 475 2297 450 2372 
Q 425 2447 370 2484 
Q 316 2522 222 2522 
Q 147 2522 31 2478 
L -6 2578 
z
M 994 2081 
L 994 1013 
Q 994 666 1022 556 
Q 1066 375 1236 237 
Q 1406 100 1666 100 
Q 1978 100 2172 344 
Q 2425 663 2425 1241 
Q 2425 1897 2138 2250 
Q 1938 2494 1663 2494 
Q 1513 2494 1366 2419 
Q 1253 2363 994 2081 
z
" transform="scale(0.015625)"/>
       <path id="TimesNewRomanPSMT-28" d="M 1988 -1253 
L 1988 -1369 
Q 1516 -1131 1200 -813 
Q 750 -359 506 256 
Q 263 872 263 1534 
Q 263 2503 741 3301 
Q 1219 4100 1988 4444 
L 1988 4313 
Q 1603 4100 1356 3731 
Q 1109 3363 987 2797 
Q 866 2231 866 1616 
Q 866 947 969 400 
Q 1050 -31 1165 -292 
Q 1281 -553 1476 -793 
Q 1672 -1034 1988 -1253 
z
" transform="scale(0.015625)"/>
       <path id="TimesNewRomanPSMT-24" d="M 338 1044 
L 475 1044 
Q 509 616 743 387 
Q 978 159 1444 116 
L 1444 1941 
Q 741 2375 506 2709 
Q 341 2947 341 3288 
Q 341 3672 627 3959 
Q 913 4247 1444 4306 
L 1444 4594 
L 1644 4594 
L 1644 4306 
Q 1900 4291 2075 4247 
Q 2166 4225 2675 4031 
L 2675 3097 
L 2553 3097 
Q 2513 3594 2295 3823 
Q 2078 4053 1644 4097 
L 1644 2509 
Q 2431 1959 2654 1698 
Q 2878 1438 2878 1050 
Q 2878 619 2551 290 
Q 2225 -38 1644 -88 
L 1644 -488 
L 1444 -488 
L 1444 -88 
Q 1150 -75 897 -20 
Q 644 34 338 159 
L 338 1044 
z
M 1444 2641 
L 1444 4094 
Q 1131 4056 979 3895 
Q 828 3734 828 3491 
Q 828 3263 965 3064 
Q 1103 2866 1444 2641 
z
M 1644 116 
Q 1878 156 2003 231 
Q 2178 341 2279 517 
Q 2381 694 2381 894 
Q 2381 1100 2257 1284 
Q 2134 1469 1644 1806 
L 1644 116 
z
" transform="scale(0.015625)"/>
       <path id="TimesNewRomanPSMT-29" d="M 144 4313 
L 144 4444 
Q 619 4209 934 3891 
Q 1381 3434 1625 2820 
Q 1869 2206 1869 1541 
Q 1869 572 1392 -226 
Q 916 -1025 144 -1369 
L 144 -1253 
Q 528 -1038 776 -670 
Q 1025 -303 1145 264 
Q 1266 831 1266 1447 
Q 1266 2113 1163 2663 
Q 1084 3094 967 3353 
Q 850 3613 656 3853 
Q 463 4094 144 4313 
z
" transform="scale(0.015625)"/>
      </defs>
      <use xlink:href="#TimesNewRomanPSMT-41"/>
      <use xlink:href="#TimesNewRomanPSMT-64" transform="translate(72.216797 0)"/>
      <use xlink:href="#TimesNewRomanPSMT-76" transform="translate(122.216797 0)"/>
      <use xlink:href="#TimesNewRomanPSMT-65" transform="translate(172.216797 0)"/>
      <use xlink:href="#TimesNewRomanPSMT-72" transform="translate(216.601562 0)"/>
      <use xlink:href="#TimesNewRomanPSMT-74" transform="translate(249.902344 0)"/>
      <use xlink:href="#TimesNewRomanPSMT-69" transform="translate(277.685547 0)"/>
      <use xlink:href="#TimesNewRomanPSMT-73" transform="translate(305.46875 0)"/>
      <use xlink:href="#TimesNewRomanPSMT-69" transform="translate(344.384766 0)"/>
      <use xlink:href="#TimesNewRomanPSMT-6e" transform="translate(372.167969 0)"/>
      <use xlink:href="#TimesNewRomanPSMT-67" transform="translate(422.167969 0)"/>
      <use xlink:href="#TimesNewRomanPSMT-20" transform="translate(472.167969 0)"/>
      <use xlink:href="#TimesNewRomanPSMT-73" transform="translate(497.167969 0)"/>
      <use xlink:href="#TimesNewRomanPSMT-70" transform="translate(536.083984 0)"/>
      <use xlink:href="#TimesNewRomanPSMT-65" transform="translate(586.083984 0)"/>
      <use xlink:href="#TimesNewRomanPSMT-6e" transform="translate(630.46875 0)"/>
      <use xlink:href="#TimesNewRomanPSMT-64" transform="translate(680.46875 0)"/>
      <use xlink:href="#TimesNewRomanPSMT-20" transform="translate(730.46875 0)"/>
      <use xlink:href="#TimesNewRomanPSMT-28" transform="translate(755.46875 0)"/>
      <use xlink:href="#TimesNewRomanPSMT-24" transform="translate(788.769531 0)"/>
      <use xlink:href="#TimesNewRomanPSMT-29" transform="translate(838.769531 0)"/>
     </g>
    </g>
    <g id="text_8">
     <!-- 1e6 -->
     <g transform="translate(469.100313 337.707812) scale(0.1 -0.1)">
      <use xlink:href="#TimesNewRomanPSMT-31"/>
      <use xlink:href="#TimesNewRomanPSMT-65" transform="translate(50 0)"/>
      <use xlink:href="#TimesNewRomanPSMT-36" transform="translate(94.384766 0)"/>
     </g>
    </g>
   </g>
   <g id="matplotlib.axis_2">
    <g id="ytick_1">
     <g id="line2d_13">
      <defs>
       <path id="mc0fb612993" d="M 0 0 
L -3.5 0 
" style="stroke: #000000; stroke-width: 0.8"/>
      </defs>
      <g>
       <use xlink:href="#mc0fb612993" x="39.099375" y="299.192159" style="stroke: #000000; stroke-width: 0.8"/>
      </g>
     </g>
     <g id="line2d_14">
      <defs>
       <path id="m561a639f28" d="M 0 0 
L 3.5 0 
" style="stroke: #000000; stroke-width: 0.8"/>
      </defs>
      <g>
       <use xlink:href="#m561a639f28" x="483.539375" y="299.192159" style="stroke: #000000; stroke-width: 0.8"/>
      </g>
     </g>
     <g id="text_9">
      <!-- 10 -->
      <g transform="translate(22.099375 302.664034) scale(0.1 -0.1)">
       <use xlink:href="#TimesNewRomanPSMT-31"/>
       <use xlink:href="#TimesNewRomanPSMT-30" transform="translate(50 0)"/>
      </g>
     </g>
    </g>
    <g id="ytick_2">
     <g id="line2d_15">
      <g>
       <use xlink:href="#mc0fb612993" x="39.099375" y="263.509042" style="stroke: #000000; stroke-width: 0.8"/>
      </g>
     </g>
     <g id="line2d_16">
      <g>
       <use xlink:href="#m561a639f28" x="483.539375" y="263.509042" style="stroke: #000000; stroke-width: 0.8"/>
      </g>
     </g>
     <g id="text_10">
      <!-- 20 -->
      <g transform="translate(22.099375 266.980917) scale(0.1 -0.1)">
       <use xlink:href="#TimesNewRomanPSMT-32"/>
       <use xlink:href="#TimesNewRomanPSMT-30" transform="translate(50 0)"/>
      </g>
     </g>
    </g>
    <g id="ytick_3">
     <g id="line2d_17">
      <g>
       <use xlink:href="#mc0fb612993" x="39.099375" y="227.825925" style="stroke: #000000; stroke-width: 0.8"/>
      </g>
     </g>
     <g id="line2d_18">
      <g>
       <use xlink:href="#m561a639f28" x="483.539375" y="227.825925" style="stroke: #000000; stroke-width: 0.8"/>
      </g>
     </g>
     <g id="text_11">
      <!-- 30 -->
      <g transform="translate(22.099375 231.2978) scale(0.1 -0.1)">
       <defs>
        <path id="TimesNewRomanPSMT-33" d="M 325 3431 
Q 506 3859 782 4092 
Q 1059 4325 1472 4325 
Q 1981 4325 2253 3994 
Q 2459 3747 2459 3466 
Q 2459 3003 1878 2509 
Q 2269 2356 2469 2072 
Q 2669 1788 2669 1403 
Q 2669 853 2319 450 
Q 1863 -75 997 -75 
Q 569 -75 414 31 
Q 259 138 259 259 
Q 259 350 332 419 
Q 406 488 509 488 
Q 588 488 669 463 
Q 722 447 909 348 
Q 1097 250 1169 231 
Q 1284 197 1416 197 
Q 1734 197 1970 444 
Q 2206 691 2206 1028 
Q 2206 1275 2097 1509 
Q 2016 1684 1919 1775 
Q 1784 1900 1550 2001 
Q 1316 2103 1072 2103 
L 972 2103 
L 972 2197 
Q 1219 2228 1467 2375 
Q 1716 2522 1828 2728 
Q 1941 2934 1941 3181 
Q 1941 3503 1739 3701 
Q 1538 3900 1238 3900 
Q 753 3900 428 3381 
L 325 3431 
z
" transform="scale(0.015625)"/>
       </defs>
       <use xlink:href="#TimesNewRomanPSMT-33"/>
       <use xlink:href="#TimesNewRomanPSMT-30" transform="translate(50 0)"/>
      </g>
     </g>
    </g>
    <g id="ytick_4">
     <g id="line2d_19">
      <g>
       <use xlink:href="#mc0fb612993" x="39.099375" y="192.142808" style="stroke: #000000; stroke-width: 0.8"/>
      </g>
     </g>
     <g id="line2d_20">
      <g>
       <use xlink:href="#m561a639f28" x="483.539375" y="192.142808" style="stroke: #000000; stroke-width: 0.8"/>
      </g>
     </g>
     <g id="text_12">
      <!-- 40 -->
      <g transform="translate(22.099375 195.614683) scale(0.1 -0.1)">
       <use xlink:href="#TimesNewRomanPSMT-34"/>
       <use xlink:href="#TimesNewRomanPSMT-30" transform="translate(50 0)"/>
      </g>
     </g>
    </g>
    <g id="ytick_5">
     <g id="line2d_21">
      <g>
       <use xlink:href="#mc0fb612993" x="39.099375" y="156.459692" style="stroke: #000000; stroke-width: 0.8"/>
      </g>
     </g>
     <g id="line2d_22">
      <g>
       <use xlink:href="#m561a639f28" x="483.539375" y="156.459692" style="stroke: #000000; stroke-width: 0.8"/>
      </g>
     </g>
     <g id="text_13">
      <!-- 50 -->
      <g transform="translate(22.099375 159.931567) scale(0.1 -0.1)">
       <defs>
        <path id="TimesNewRomanPSMT-35" d="M 2778 4238 
L 2534 3706 
L 1259 3706 
L 981 3138 
Q 1809 3016 2294 2522 
Q 2709 2097 2709 1522 
Q 2709 1188 2573 903 
Q 2438 619 2231 419 
Q 2025 219 1772 97 
Q 1413 -75 1034 -75 
Q 653 -75 479 54 
Q 306 184 306 341 
Q 306 428 378 495 
Q 450 563 559 563 
Q 641 563 702 538 
Q 763 513 909 409 
Q 1144 247 1384 247 
Q 1750 247 2026 523 
Q 2303 800 2303 1197 
Q 2303 1581 2056 1914 
Q 1809 2247 1375 2428 
Q 1034 2569 447 2591 
L 1259 4238 
L 2778 4238 
z
" transform="scale(0.015625)"/>
       </defs>
       <use xlink:href="#TimesNewRomanPSMT-35"/>
       <use xlink:href="#TimesNewRomanPSMT-30" transform="translate(50 0)"/>
      </g>
     </g>
    </g>
    <g id="ytick_6">
     <g id="line2d_23">
      <g>
       <use xlink:href="#mc0fb612993" x="39.099375" y="120.776575" style="stroke: #000000; stroke-width: 0.8"/>
      </g>
     </g>
     <g id="line2d_24">
      <g>
       <use xlink:href="#m561a639f28" x="483.539375" y="120.776575" style="stroke: #000000; stroke-width: 0.8"/>
      </g>
     </g>
     <g id="text_14">
      <!-- 60 -->
      <g transform="translate(22.099375 124.24845) scale(0.1 -0.1)">
       <use xlink:href="#TimesNewRomanPSMT-36"/>
       <use xlink:href="#TimesNewRomanPSMT-30" transform="translate(50 0)"/>
      </g>
     </g>
    </g>
    <g id="ytick_7">
     <g id="line2d_25">
      <g>
       <use xlink:href="#mc0fb612993" x="39.099375" y="85.093458" style="stroke: #000000; stroke-width: 0.8"/>
      </g>
     </g>
     <g id="line2d_26">
      <g>
       <use xlink:href="#m561a639f28" x="483.539375" y="85.093458" style="stroke: #000000; stroke-width: 0.8"/>
      </g>
     </g>
     <g id="text_15">
      <!-- 70 -->
      <g transform="translate(22.099375 88.565333) scale(0.1 -0.1)">
       <defs>
        <path id="TimesNewRomanPSMT-37" d="M 644 4238 
L 2916 4238 
L 2916 4119 
L 1503 -88 
L 1153 -88 
L 2419 3728 
L 1253 3728 
Q 900 3728 750 3644 
Q 488 3500 328 3200 
L 238 3234 
L 644 4238 
z
" transform="scale(0.015625)"/>
       </defs>
       <use xlink:href="#TimesNewRomanPSMT-37"/>
       <use xlink:href="#TimesNewRomanPSMT-30" transform="translate(50 0)"/>
      </g>
     </g>
    </g>
    <g id="ytick_8">
     <g id="line2d_27">
      <g>
       <use xlink:href="#mc0fb612993" x="39.099375" y="49.410341" style="stroke: #000000; stroke-width: 0.8"/>
      </g>
     </g>
     <g id="line2d_28">
      <g>
       <use xlink:href="#m561a639f28" x="483.539375" y="49.410341" style="stroke: #000000; stroke-width: 0.8"/>
      </g>
     </g>
     <g id="text_16">
      <!-- 80 -->
      <g transform="translate(22.099375 52.882216) scale(0.1 -0.1)">
       <use xlink:href="#TimesNewRomanPSMT-38"/>
       <use xlink:href="#TimesNewRomanPSMT-30" transform="translate(50 0)"/>
      </g>
     </g>
    </g>
    <g id="text_17">
     <!-- Bounce rate (%) -->
     <g transform="translate(15.5325 213.615312) rotate(-90) scale(0.12 -0.12)">
      <defs>
       <path id="TimesNewRomanPSMT-42" d="M 2956 2163 
Q 3397 2069 3616 1863 
Q 3919 1575 3919 1159 
Q 3919 844 3719 555 
Q 3519 266 3170 133 
Q 2822 0 2106 0 
L 106 0 
L 106 116 
L 266 116 
Q 531 116 647 284 
Q 719 394 719 750 
L 719 3488 
Q 719 3881 628 3984 
Q 506 4122 266 4122 
L 106 4122 
L 106 4238 
L 1938 4238 
Q 2450 4238 2759 4163 
Q 3228 4050 3475 3764 
Q 3722 3478 3722 3106 
Q 3722 2788 3528 2536 
Q 3334 2284 2956 2163 
z
M 1319 2331 
Q 1434 2309 1582 2298 
Q 1731 2288 1909 2288 
Q 2366 2288 2595 2386 
Q 2825 2484 2947 2687 
Q 3069 2891 3069 3131 
Q 3069 3503 2766 3765 
Q 2463 4028 1881 4028 
Q 1569 4028 1319 3959 
L 1319 2331 
z
M 1319 306 
Q 1681 222 2034 222 
Q 2600 222 2897 476 
Q 3194 731 3194 1106 
Q 3194 1353 3059 1581 
Q 2925 1809 2622 1940 
Q 2319 2072 1872 2072 
Q 1678 2072 1540 2065 
Q 1403 2059 1319 2044 
L 1319 306 
z
" transform="scale(0.015625)"/>
       <path id="TimesNewRomanPSMT-6f" d="M 1600 2947 
Q 2250 2947 2644 2453 
Q 2978 2031 2978 1484 
Q 2978 1100 2793 706 
Q 2609 313 2286 112 
Q 1963 -88 1566 -88 
Q 919 -88 538 428 
Q 216 863 216 1403 
Q 216 1797 411 2186 
Q 606 2575 925 2761 
Q 1244 2947 1600 2947 
z
M 1503 2744 
Q 1338 2744 1170 2645 
Q 1003 2547 900 2300 
Q 797 2053 797 1666 
Q 797 1041 1045 587 
Q 1294 134 1700 134 
Q 2003 134 2200 384 
Q 2397 634 2397 1244 
Q 2397 2006 2069 2444 
Q 1847 2744 1503 2744 
z
" transform="scale(0.015625)"/>
       <path id="TimesNewRomanPSMT-75" d="M 2709 2863 
L 2709 1128 
Q 2709 631 2732 520 
Q 2756 409 2807 365 
Q 2859 322 2928 322 
Q 3025 322 3147 375 
L 3191 266 
L 2334 -88 
L 2194 -88 
L 2194 519 
Q 1825 119 1631 15 
Q 1438 -88 1222 -88 
Q 981 -88 804 51 
Q 628 191 559 409 
Q 491 628 491 1028 
L 491 2306 
Q 491 2509 447 2587 
Q 403 2666 317 2708 
Q 231 2750 6 2747 
L 6 2863 
L 1009 2863 
L 1009 947 
Q 1009 547 1148 422 
Q 1288 297 1484 297 
Q 1619 297 1789 381 
Q 1959 466 2194 703 
L 2194 2325 
Q 2194 2569 2105 2655 
Q 2016 2741 1734 2747 
L 1734 2863 
L 2709 2863 
z
" transform="scale(0.015625)"/>
       <path id="TimesNewRomanPSMT-63" d="M 2631 1088 
Q 2516 522 2178 217 
Q 1841 -88 1431 -88 
Q 944 -88 581 321 
Q 219 731 219 1428 
Q 219 2103 620 2525 
Q 1022 2947 1584 2947 
Q 2006 2947 2278 2723 
Q 2550 2500 2550 2259 
Q 2550 2141 2473 2067 
Q 2397 1994 2259 1994 
Q 2075 1994 1981 2113 
Q 1928 2178 1911 2362 
Q 1894 2547 1784 2644 
Q 1675 2738 1481 2738 
Q 1169 2738 978 2506 
Q 725 2200 725 1697 
Q 725 1184 976 792 
Q 1228 400 1656 400 
Q 1963 400 2206 609 
Q 2378 753 2541 1131 
L 2631 1088 
z
" transform="scale(0.015625)"/>
       <path id="TimesNewRomanPSMT-61" d="M 1822 413 
Q 1381 72 1269 19 
Q 1100 -59 909 -59 
Q 613 -59 420 144 
Q 228 347 228 678 
Q 228 888 322 1041 
Q 450 1253 767 1440 
Q 1084 1628 1822 1897 
L 1822 2009 
Q 1822 2438 1686 2597 
Q 1550 2756 1291 2756 
Q 1094 2756 978 2650 
Q 859 2544 859 2406 
L 866 2225 
Q 866 2081 792 2003 
Q 719 1925 600 1925 
Q 484 1925 411 2006 
Q 338 2088 338 2228 
Q 338 2497 613 2722 
Q 888 2947 1384 2947 
Q 1766 2947 2009 2819 
Q 2194 2722 2281 2516 
Q 2338 2381 2338 1966 
L 2338 994 
Q 2338 584 2353 492 
Q 2369 400 2405 369 
Q 2441 338 2488 338 
Q 2538 338 2575 359 
Q 2641 400 2828 588 
L 2828 413 
Q 2478 -56 2159 -56 
Q 2006 -56 1915 50 
Q 1825 156 1822 413 
z
M 1822 616 
L 1822 1706 
Q 1350 1519 1213 1441 
Q 966 1303 859 1153 
Q 753 1003 753 825 
Q 753 600 887 451 
Q 1022 303 1197 303 
Q 1434 303 1822 616 
z
" transform="scale(0.015625)"/>
       <path id="TimesNewRomanPSMT-25" d="M 4350 4334 
L 1263 -175 
L 984 -175 
L 4072 4334 
L 4350 4334 
z
M 1138 4334 
Q 1559 4334 1792 3984 
Q 2025 3634 2025 3181 
Q 2025 2638 1762 2341 
Q 1500 2044 1131 2044 
Q 884 2044 678 2180 
Q 472 2316 348 2584 
Q 225 2853 225 3181 
Q 225 3509 350 3786 
Q 475 4063 692 4198 
Q 909 4334 1138 4334 
z
M 1128 4159 
Q 969 4159 845 3971 
Q 722 3784 722 3184 
Q 722 2750 791 2522 
Q 844 2350 956 2256 
Q 1022 2200 1119 2200 
Q 1269 2200 1375 2363 
Q 1531 2603 1531 3166 
Q 1531 3759 1378 4000 
Q 1278 4159 1128 4159 
z
M 4206 2103 
Q 4428 2103 4648 1962 
Q 4869 1822 4989 1553 
Q 5109 1284 5109 963 
Q 5109 409 4843 117 
Q 4578 -175 4216 -175 
Q 3988 -175 3773 -34 
Q 3559 106 3436 367 
Q 3313 628 3313 963 
Q 3313 1291 3436 1562 
Q 3559 1834 3773 1968 
Q 3988 2103 4206 2103 
z
M 4209 1938 
Q 4059 1938 3950 1769 
Q 3809 1550 3809 941 
Q 3809 381 3953 159 
Q 4059 0 4209 0 
Q 4353 0 4466 172 
Q 4616 400 4616 956 
Q 4616 1544 4466 1778 
Q 4363 1938 4209 1938 
z
" transform="scale(0.015625)"/>
      </defs>
      <use xlink:href="#TimesNewRomanPSMT-42"/>
      <use xlink:href="#TimesNewRomanPSMT-6f" transform="translate(66.699219 0)"/>
      <use xlink:href="#TimesNewRomanPSMT-75" transform="translate(116.699219 0)"/>
      <use xlink:href="#TimesNewRomanPSMT-6e" transform="translate(166.699219 0)"/>
      <use xlink:href="#TimesNewRomanPSMT-63" transform="translate(216.699219 0)"/>
      <use xlink:href="#TimesNewRomanPSMT-65" transform="translate(261.083984 0)"/>
      <use xlink:href="#TimesNewRomanPSMT-20" transform="translate(305.46875 0)"/>
      <use xlink:href="#TimesNewRomanPSMT-72" transform="translate(330.46875 0)"/>
      <use xlink:href="#TimesNewRomanPSMT-61" transform="translate(363.769531 0)"/>
      <use xlink:href="#TimesNewRomanPSMT-74" transform="translate(408.154297 0)"/>
      <use xlink:href="#TimesNewRomanPSMT-65" transform="translate(435.9375 0)"/>
      <use xlink:href="#TimesNewRomanPSMT-20" transform="translate(480.322266 0)"/>
      <use xlink:href="#TimesNewRomanPSMT-28" transform="translate(505.322266 0)"/>
      <use xlink:href="#TimesNewRomanPSMT-25" transform="translate(538.623047 0)"/>
      <use xlink:href="#TimesNewRomanPSMT-29" transform="translate(621.923828 0)"/>
     </g>
    </g>
   </g>
   <g id="patch_3">
    <path d="M 39.099375 311.68125 
L 39.099375 36.92125 
" style="fill: none; stroke: #333333; stroke-width: 2; stroke-linejoin: miter; stroke-linecap: square"/>
   </g>
   <g id="patch_4">
    <path d="M 483.539375 311.68125 
L 483.539375 36.92125 
" style="fill: none; stroke: #000000; stroke-linejoin: miter; stroke-linecap: square"/>
   </g>
   <g id="patch_5">
    <path d="M 39.099375 311.68125 
L 483.539375 311.68125 
" style="fill: none; stroke: #333333; stroke-width: 2; stroke-linejoin: miter; stroke-linecap: square"/>
   </g>
   <g id="patch_6">
    <path d="M 39.099375 36.92125 
L 483.539375 36.92125 
" style="fill: none; stroke: #000000; stroke-linejoin: miter; stroke-linecap: square"/>
   </g>
   <g id="text_18">
    <!-- the Pattern of Marketing and Sales -->
    <g transform="translate(164.315781 16.92125) scale(0.14 -0.14)">
     <defs>
      <path id="TimesNewRomanPSMT-68" d="M 1041 4444 
L 1041 2350 
Q 1388 2731 1591 2839 
Q 1794 2947 1997 2947 
Q 2241 2947 2416 2812 
Q 2591 2678 2675 2391 
Q 2734 2191 2734 1659 
L 2734 647 
Q 2734 375 2778 275 
Q 2809 200 2884 156 
Q 2959 113 3159 113 
L 3159 0 
L 1753 0 
L 1753 113 
L 1819 113 
Q 2019 113 2097 173 
Q 2175 234 2206 353 
Q 2216 403 2216 647 
L 2216 1659 
Q 2216 2128 2167 2275 
Q 2119 2422 2012 2495 
Q 1906 2569 1756 2569 
Q 1603 2569 1437 2487 
Q 1272 2406 1041 2159 
L 1041 647 
Q 1041 353 1073 281 
Q 1106 209 1195 161 
Q 1284 113 1503 113 
L 1503 0 
L 84 0 
L 84 113 
Q 275 113 384 172 
Q 447 203 484 290 
Q 522 378 522 647 
L 522 3238 
Q 522 3728 498 3840 
Q 475 3953 426 3993 
Q 378 4034 297 4034 
Q 231 4034 84 3984 
L 41 4094 
L 897 4444 
L 1041 4444 
z
" transform="scale(0.015625)"/>
      <path id="TimesNewRomanPSMT-50" d="M 1313 1984 
L 1313 750 
Q 1313 350 1400 253 
Q 1519 116 1759 116 
L 1922 116 
L 1922 0 
L 106 0 
L 106 116 
L 266 116 
Q 534 116 650 291 
Q 713 388 713 750 
L 713 3488 
Q 713 3888 628 3984 
Q 506 4122 266 4122 
L 106 4122 
L 106 4238 
L 1659 4238 
Q 2228 4238 2556 4120 
Q 2884 4003 3109 3725 
Q 3334 3447 3334 3066 
Q 3334 2547 2992 2222 
Q 2650 1897 2025 1897 
Q 1872 1897 1694 1919 
Q 1516 1941 1313 1984 
z
M 1313 2163 
Q 1478 2131 1606 2115 
Q 1734 2100 1825 2100 
Q 2150 2100 2386 2351 
Q 2622 2603 2622 3003 
Q 2622 3278 2509 3514 
Q 2397 3750 2190 3867 
Q 1984 3984 1722 3984 
Q 1563 3984 1313 3925 
L 1313 2163 
z
" transform="scale(0.015625)"/>
      <path id="TimesNewRomanPSMT-66" d="M 1319 2638 
L 1319 756 
Q 1319 356 1406 250 
Q 1522 113 1716 113 
L 1975 113 
L 1975 0 
L 266 0 
L 266 113 
L 394 113 
Q 519 113 622 175 
Q 725 238 764 344 
Q 803 450 803 756 
L 803 2638 
L 247 2638 
L 247 2863 
L 803 2863 
L 803 3050 
Q 803 3478 940 3775 
Q 1078 4072 1361 4255 
Q 1644 4438 1997 4438 
Q 2325 4438 2600 4225 
Q 2781 4084 2781 3909 
Q 2781 3816 2700 3733 
Q 2619 3650 2525 3650 
Q 2453 3650 2373 3701 
Q 2294 3753 2178 3923 
Q 2063 4094 1966 4153 
Q 1869 4213 1750 4213 
Q 1606 4213 1506 4136 
Q 1406 4059 1362 3898 
Q 1319 3738 1319 3069 
L 1319 2863 
L 2056 2863 
L 2056 2638 
L 1319 2638 
z
" transform="scale(0.015625)"/>
      <path id="TimesNewRomanPSMT-4d" d="M 2619 0 
L 981 3566 
L 981 734 
Q 981 344 1066 247 
Q 1181 116 1431 116 
L 1581 116 
L 1581 0 
L 106 0 
L 106 116 
L 256 116 
Q 525 116 638 278 
Q 706 378 706 734 
L 706 3503 
Q 706 3784 644 3909 
Q 600 4000 483 4061 
Q 366 4122 106 4122 
L 106 4238 
L 1306 4238 
L 2844 922 
L 4356 4238 
L 5556 4238 
L 5556 4122 
L 5409 4122 
Q 5138 4122 5025 3959 
Q 4956 3859 4956 3503 
L 4956 734 
Q 4956 344 5044 247 
Q 5159 116 5409 116 
L 5556 116 
L 5556 0 
L 3756 0 
L 3756 116 
L 3906 116 
Q 4178 116 4288 278 
Q 4356 378 4356 734 
L 4356 3566 
L 2722 0 
L 2619 0 
z
" transform="scale(0.015625)"/>
      <path id="TimesNewRomanPSMT-6b" d="M 1047 4444 
L 1047 1597 
L 1775 2259 
Q 2006 2472 2044 2528 
Q 2069 2566 2069 2603 
Q 2069 2666 2017 2711 
Q 1966 2756 1847 2763 
L 1847 2863 
L 3091 2863 
L 3091 2763 
Q 2834 2756 2664 2684 
Q 2494 2613 2291 2428 
L 1556 1750 
L 2291 822 
Q 2597 438 2703 334 
Q 2853 188 2966 144 
Q 3044 113 3238 113 
L 3238 0 
L 1847 0 
L 1847 113 
Q 1966 116 2008 148 
Q 2050 181 2050 241 
Q 2050 313 1925 472 
L 1047 1594 
L 1047 644 
Q 1047 366 1086 278 
Q 1125 191 1197 153 
Q 1269 116 1509 113 
L 1509 0 
L 53 0 
L 53 113 
Q 272 113 381 166 
Q 447 200 481 272 
Q 528 375 528 628 
L 528 3234 
Q 528 3731 506 3842 
Q 484 3953 434 3995 
Q 384 4038 303 4038 
Q 238 4038 106 3984 
L 53 4094 
L 903 4444 
L 1047 4444 
z
" transform="scale(0.015625)"/>
      <path id="TimesNewRomanPSMT-53" d="M 2934 4334 
L 2934 2869 
L 2819 2869 
Q 2763 3291 2617 3541 
Q 2472 3791 2203 3937 
Q 1934 4084 1647 4084 
Q 1322 4084 1109 3886 
Q 897 3688 897 3434 
Q 897 3241 1031 3081 
Q 1225 2847 1953 2456 
Q 2547 2138 2764 1967 
Q 2981 1797 3098 1565 
Q 3216 1334 3216 1081 
Q 3216 600 2842 251 
Q 2469 -97 1881 -97 
Q 1697 -97 1534 -69 
Q 1438 -53 1133 45 
Q 828 144 747 144 
Q 669 144 623 97 
Q 578 50 556 -97 
L 441 -97 
L 441 1356 
L 556 1356 
Q 638 900 775 673 
Q 913 447 1195 297 
Q 1478 147 1816 147 
Q 2206 147 2432 353 
Q 2659 559 2659 841 
Q 2659 997 2573 1156 
Q 2488 1316 2306 1453 
Q 2184 1547 1640 1851 
Q 1097 2156 867 2337 
Q 638 2519 519 2737 
Q 400 2956 400 3219 
Q 400 3675 750 4004 
Q 1100 4334 1641 4334 
Q 1978 4334 2356 4169 
Q 2531 4091 2603 4091 
Q 2684 4091 2736 4139 
Q 2788 4188 2819 4334 
L 2934 4334 
z
" transform="scale(0.015625)"/>
      <path id="TimesNewRomanPSMT-6c" d="M 1184 4444 
L 1184 647 
Q 1184 378 1223 290 
Q 1263 203 1344 158 
Q 1425 113 1647 113 
L 1647 0 
L 244 0 
L 244 113 
Q 441 113 512 153 
Q 584 194 625 287 
Q 666 381 666 647 
L 666 3247 
Q 666 3731 644 3842 
Q 622 3953 573 3993 
Q 525 4034 450 4034 
Q 369 4034 244 3984 
L 191 4094 
L 1044 4444 
L 1184 4444 
z
" transform="scale(0.015625)"/>
     </defs>
     <use xlink:href="#TimesNewRomanPSMT-74"/>
     <use xlink:href="#TimesNewRomanPSMT-68" transform="translate(27.783203 0)"/>
     <use xlink:href="#TimesNewRomanPSMT-65" transform="translate(77.783203 0)"/>
     <use xlink:href="#TimesNewRomanPSMT-20" transform="translate(122.167969 0)"/>
     <use xlink:href="#TimesNewRomanPSMT-50" transform="translate(147.167969 0)"/>
     <use xlink:href="#TimesNewRomanPSMT-61" transform="translate(202.783203 0)"/>
     <use xlink:href="#TimesNewRomanPSMT-74" transform="translate(247.167969 0)"/>
     <use xlink:href="#TimesNewRomanPSMT-74" transform="translate(274.951172 0)"/>
     <use xlink:href="#TimesNewRomanPSMT-65" transform="translate(302.734375 0)"/>
     <use xlink:href="#TimesNewRomanPSMT-72" transform="translate(347.119141 0)"/>
     <use xlink:href="#TimesNewRomanPSMT-6e" transform="translate(380.419922 0)"/>
     <use xlink:href="#TimesNewRomanPSMT-20" transform="translate(430.419922 0)"/>
     <use xlink:href="#TimesNewRomanPSMT-6f" transform="translate(455.419922 0)"/>
     <use xlink:href="#TimesNewRomanPSMT-66" transform="translate(505.419922 0)"/>
     <use xlink:href="#TimesNewRomanPSMT-20" transform="translate(538.720703 0)"/>
     <use xlink:href="#TimesNewRomanPSMT-4d" transform="translate(563.720703 0)"/>
     <use xlink:href="#TimesNewRomanPSMT-61" transform="translate(652.636719 0)"/>
     <use xlink:href="#TimesNewRomanPSMT-72" transform="translate(697.021484 0)"/>
     <use xlink:href="#TimesNewRomanPSMT-6b" transform="translate(730.322266 0)"/>
     <use xlink:href="#TimesNewRomanPSMT-65" transform="translate(780.322266 0)"/>
     <use xlink:href="#TimesNewRomanPSMT-74" transform="translate(824.707031 0)"/>
     <use xlink:href="#TimesNewRomanPSMT-69" transform="translate(852.490234 0)"/>
     <use xlink:href="#TimesNewRomanPSMT-6e" transform="translate(880.273438 0)"/>
     <use xlink:href="#TimesNewRomanPSMT-67" transform="translate(930.273438 0)"/>
     <use xlink:href="#TimesNewRomanPSMT-20" transform="translate(980.273438 0)"/>
     <use xlink:href="#TimesNewRomanPSMT-61" transform="translate(1005.273438 0)"/>
     <use xlink:href="#TimesNewRomanPSMT-6e" transform="translate(1049.658203 0)"/>
     <use xlink:href="#TimesNewRomanPSMT-64" transform="translate(1099.658203 0)"/>
     <use xlink:href="#TimesNewRomanPSMT-20" transform="translate(1149.658203 0)"/>
     <use xlink:href="#TimesNewRomanPSMT-53" transform="translate(1174.658203 0)"/>
     <use xlink:href="#TimesNewRomanPSMT-61" transform="translate(1230.273438 0)"/>
     <use xlink:href="#TimesNewRomanPSMT-6c" transform="translate(1274.658203 0)"/>
     <use xlink:href="#TimesNewRomanPSMT-65" transform="translate(1302.441406 0)"/>
     <use xlink:href="#TimesNewRomanPSMT-73" transform="translate(1346.826172 0)"/>
    </g>
   </g>
  </g>
 </g>
 <defs>
  <clipPath id="p7085adb9ec">
   <rect x="39.099375" y="36.92125" width="444.44" height="274.76"/>
  </clipPath>
 </defs>
</svg>
