<?xml version="1.0" encoding="utf-8" standalone="no"?>
<!DOCTYPE svg PUBLIC "-//W3C//DTD SVG 1.1//EN"
  "http://www.w3.org/Graphics/SVG/1.1/DTD/svg11.dtd">
<svg xmlns:xlink="http://www.w3.org/1999/xlink" width="494.251875pt" height="350.125938pt" viewBox="0 0 494.251875 350.125938" xmlns="http://www.w3.org/2000/svg" version="1.1">
 <metadata>
  <rdf:RDF xmlns:dc="http://purl.org/dc/elements/1.1/" xmlns:cc="http://creativecommons.org/ns#" xmlns:rdf="http://www.w3.org/1999/02/22-rdf-syntax-ns#">
   <cc:Work>
    <dc:type rdf:resource="http://purl.org/dc/dcmitype/StillImage"/>
    <dc:date>2025-06-05T23:47:44.092965</dc:date>
    <dc:format>image/svg+xml</dc:format>
    <dc:creator>
     <cc:Agent>
      <dc:title>Matplotlib v3.10.0, https://matplotlib.org/</dc:title>
     </cc:Agent>
    </dc:creator>
   </cc:Work>
  </rdf:RDF>
 </metadata>
 <defs>
  <style type="text/css">*{stroke-linejoin: round; stroke-linecap: butt}</style>
 </defs>
 <g id="figure_1">
  <g id="patch_1">
   <path d="M 0 350.125938 
L 494.251875 350.125938 
L 494.251875 0 
L 0 0 
z
" style="fill: #ffffff"/>
  </g>
  <g id="axes_1">
   <g id="patch_2">
    <path d="M 44.121875 311.92125 
L 483.551875 311.92125 
L 483.551875 36.92125 
L 44.121875 36.92125 
z
" style="fill: #ffffff"/>
   </g>
   <g id="PathCollection_1">
    <defs>
     <path id="m173b4c5bbb" d="M 0 3.90587 
C 1.035849 3.90587 2.029411 3.494323 2.761867 2.761867 
C 3.494323 2.029411 3.90587 1.035849 3.90587 0 
C 3.90587 -1.035849 3.494323 -2.029411 2.761867 -2.761867 
C 2.029411 -3.494323 1.035849 -3.90587 0 -3.90587 
C -1.035849 -3.90587 -2.029411 -3.494323 -2.761867 -2.761867 
C -3.494323 -2.029411 -3.90587 -1.035849 -3.90587 0 
C -3.90587 1.035849 -3.494323 2.029411 -2.761867 2.761867 
C -2.029411 3.494323 -1.035849 3.90587 0 3.90587 
z
" style="stroke: #ffffff; stroke-opacity: 0.959188; stroke-width: 0.5"/>
    </defs>
    <g clip-path="url(#p7a24c865bb)">
     <use xlink:href="#m173b4c5bbb" x="64.095966" y="126.742679" style="fill: #d2691e; fill-opacity: 0.959188; stroke: #ffffff; stroke-opacity: 0.959188; stroke-width: 0.5"/>
     <use xlink:href="#m173b4c5bbb" x="72.085602" y="166.956964" style="fill: #d2691e; fill-opacity: 0.959188; stroke: #ffffff; stroke-opacity: 0.959188; stroke-width: 0.5"/>
     <use xlink:href="#m173b4c5bbb" x="80.075239" y="97.849821" style="fill: #d2691e; fill-opacity: 0.959188; stroke: #ffffff; stroke-opacity: 0.959188; stroke-width: 0.5"/>
     <use xlink:href="#m173b4c5bbb" x="88.064875" y="155.849821" style="fill: #d2691e; fill-opacity: 0.959188; stroke: #ffffff; stroke-opacity: 0.959188; stroke-width: 0.5"/>
     <use xlink:href="#m173b4c5bbb" x="96.054511" y="124.349821" style="fill: #d2691e; fill-opacity: 0.959188; stroke: #ffffff; stroke-opacity: 0.959188; stroke-width: 0.5"/>
     <use xlink:href="#m173b4c5bbb" x="104.044148" y="145.814107" style="fill: #d2691e; fill-opacity: 0.959188; stroke: #ffffff; stroke-opacity: 0.959188; stroke-width: 0.5"/>
     <use xlink:href="#m173b4c5bbb" x="112.033784" y="116.314107" style="fill: #d2691e; fill-opacity: 0.959188; stroke: #ffffff; stroke-opacity: 0.959188; stroke-width: 0.5"/>
     <use xlink:href="#m173b4c5bbb" x="120.02342" y="130.742679" style="fill: #d2691e; fill-opacity: 0.959188; stroke: #ffffff; stroke-opacity: 0.959188; stroke-width: 0.5"/>
     <use xlink:href="#m173b4c5bbb" x="128.013057" y="198.278393" style="fill: #d2691e; fill-opacity: 0.959188; stroke: #ffffff; stroke-opacity: 0.959188; stroke-width: 0.5"/>
     <use xlink:href="#m173b4c5bbb" x="136.002693" y="86.206964" style="fill: #d2691e; fill-opacity: 0.959188; stroke: #ffffff; stroke-opacity: 0.959188; stroke-width: 0.5"/>
     <use xlink:href="#m173b4c5bbb" x="143.99233" y="186.349821" style="fill: #d2691e; fill-opacity: 0.959188; stroke: #ffffff; stroke-opacity: 0.959188; stroke-width: 0.5"/>
     <use xlink:href="#m173b4c5bbb" x="151.981966" y="175.242679" style="fill: #d2691e; fill-opacity: 0.959188; stroke: #ffffff; stroke-opacity: 0.959188; stroke-width: 0.5"/>
     <use xlink:href="#m173b4c5bbb" x="159.971602" y="84.956964" style="fill: #d2691e; fill-opacity: 0.959188; stroke: #ffffff; stroke-opacity: 0.959188; stroke-width: 0.5"/>
     <use xlink:href="#m173b4c5bbb" x="167.961239" y="94.028393" style="fill: #d2691e; fill-opacity: 0.959188; stroke: #ffffff; stroke-opacity: 0.959188; stroke-width: 0.5"/>
     <use xlink:href="#m173b4c5bbb" x="175.950875" y="49.42125" style="fill: #d2691e; fill-opacity: 0.959188; stroke: #ffffff; stroke-opacity: 0.959188; stroke-width: 0.5"/>
     <use xlink:href="#m173b4c5bbb" x="183.940511" y="167.385536" style="fill: #d2691e; fill-opacity: 0.959188; stroke: #ffffff; stroke-opacity: 0.959188; stroke-width: 0.5"/>
     <use xlink:href="#m173b4c5bbb" x="191.930148" y="104.314107" style="fill: #d2691e; fill-opacity: 0.959188; stroke: #ffffff; stroke-opacity: 0.959188; stroke-width: 0.5"/>
     <use xlink:href="#m173b4c5bbb" x="199.919784" y="108.064107" style="fill: #d2691e; fill-opacity: 0.959188; stroke: #ffffff; stroke-opacity: 0.959188; stroke-width: 0.5"/>
     <use xlink:href="#m173b4c5bbb" x="207.90942" y="76.92125" style="fill: #d2691e; fill-opacity: 0.959188; stroke: #ffffff; stroke-opacity: 0.959188; stroke-width: 0.5"/>
     <use xlink:href="#m173b4c5bbb" x="215.899057" y="121.706964" style="fill: #d2691e; fill-opacity: 0.959188; stroke: #ffffff; stroke-opacity: 0.959188; stroke-width: 0.5"/>
     <use xlink:href="#m173b4c5bbb" x="223.888693" y="167.564107" style="fill: #d2691e; fill-opacity: 0.959188; stroke: #ffffff; stroke-opacity: 0.959188; stroke-width: 0.5"/>
     <use xlink:href="#m173b4c5bbb" x="231.87833" y="207.206964" style="fill: #d2691e; fill-opacity: 0.959188; stroke: #ffffff; stroke-opacity: 0.959188; stroke-width: 0.5"/>
     <use xlink:href="#m173b4c5bbb" x="239.867966" y="169.528393" style="fill: #d2691e; fill-opacity: 0.959188; stroke: #ffffff; stroke-opacity: 0.959188; stroke-width: 0.5"/>
     <use xlink:href="#m173b4c5bbb" x="247.857602" y="116.278393" style="fill: #d2691e; fill-opacity: 0.959188; stroke: #ffffff; stroke-opacity: 0.959188; stroke-width: 0.5"/>
     <use xlink:href="#m173b4c5bbb" x="255.847239" y="135.492679" style="fill: #d2691e; fill-opacity: 0.959188; stroke: #ffffff; stroke-opacity: 0.959188; stroke-width: 0.5"/>
     <use xlink:href="#m173b4c5bbb" x="263.836875" y="254.564107" style="fill: #d2691e; fill-opacity: 0.959188; stroke: #ffffff; stroke-opacity: 0.959188; stroke-width: 0.5"/>
     <use xlink:href="#m173b4c5bbb" x="271.826511" y="179.099821" style="fill: #d2691e; fill-opacity: 0.959188; stroke: #ffffff; stroke-opacity: 0.959188; stroke-width: 0.5"/>
     <use xlink:href="#m173b4c5bbb" x="279.816148" y="233.099821" style="fill: #d2691e; fill-opacity: 0.959188; stroke: #ffffff; stroke-opacity: 0.959188; stroke-width: 0.5"/>
     <use xlink:href="#m173b4c5bbb" x="287.805784" y="196.992679" style="fill: #d2691e; fill-opacity: 0.959188; stroke: #ffffff; stroke-opacity: 0.959188; stroke-width: 0.5"/>
     <use xlink:href="#m173b4c5bbb" x="295.79542" y="244.42125" style="fill: #d2691e; fill-opacity: 0.959188; stroke: #ffffff; stroke-opacity: 0.959188; stroke-width: 0.5"/>
     <use xlink:href="#m173b4c5bbb" x="303.785057" y="192.599821" style="fill: #d2691e; fill-opacity: 0.959188; stroke: #ffffff; stroke-opacity: 0.959188; stroke-width: 0.5"/>
     <use xlink:href="#m173b4c5bbb" x="311.774693" y="143.67125" style="fill: #d2691e; fill-opacity: 0.959188; stroke: #ffffff; stroke-opacity: 0.959188; stroke-width: 0.5"/>
     <use xlink:href="#m173b4c5bbb" x="319.76433" y="152.385536" style="fill: #d2691e; fill-opacity: 0.959188; stroke: #ffffff; stroke-opacity: 0.959188; stroke-width: 0.5"/>
     <use xlink:href="#m173b4c5bbb" x="327.753966" y="132.742679" style="fill: #d2691e; fill-opacity: 0.959188; stroke: #ffffff; stroke-opacity: 0.959188; stroke-width: 0.5"/>
     <use xlink:href="#m173b4c5bbb" x="335.743602" y="133.956964" style="fill: #d2691e; fill-opacity: 0.959188; stroke: #ffffff; stroke-opacity: 0.959188; stroke-width: 0.5"/>
     <use xlink:href="#m173b4c5bbb" x="343.733239" y="299.42125" style="fill: #d2691e; fill-opacity: 0.959188; stroke: #ffffff; stroke-opacity: 0.959188; stroke-width: 0.5"/>
     <use xlink:href="#m173b4c5bbb" x="351.722875" y="226.385536" style="fill: #d2691e; fill-opacity: 0.959188; stroke: #ffffff; stroke-opacity: 0.959188; stroke-width: 0.5"/>
     <use xlink:href="#m173b4c5bbb" x="359.712511" y="213.956964" style="fill: #d2691e; fill-opacity: 0.959188; stroke: #ffffff; stroke-opacity: 0.959188; stroke-width: 0.5"/>
     <use xlink:href="#m173b4c5bbb" x="367.702148" y="204.492679" style="fill: #d2691e; fill-opacity: 0.959188; stroke: #ffffff; stroke-opacity: 0.959188; stroke-width: 0.5"/>
     <use xlink:href="#m173b4c5bbb" x="375.691784" y="200.17125" style="fill: #d2691e; fill-opacity: 0.959188; stroke: #ffffff; stroke-opacity: 0.959188; stroke-width: 0.5"/>
     <use xlink:href="#m173b4c5bbb" x="383.68142" y="212.064107" style="fill: #d2691e; fill-opacity: 0.959188; stroke: #ffffff; stroke-opacity: 0.959188; stroke-width: 0.5"/>
     <use xlink:href="#m173b4c5bbb" x="391.671057" y="157.528393" style="fill: #d2691e; fill-opacity: 0.959188; stroke: #ffffff; stroke-opacity: 0.959188; stroke-width: 0.5"/>
     <use xlink:href="#m173b4c5bbb" x="399.660693" y="135.67125" style="fill: #d2691e; fill-opacity: 0.959188; stroke: #ffffff; stroke-opacity: 0.959188; stroke-width: 0.5"/>
     <use xlink:href="#m173b4c5bbb" x="407.65033" y="298.528393" style="fill: #d2691e; fill-opacity: 0.959188; stroke: #ffffff; stroke-opacity: 0.959188; stroke-width: 0.5"/>
     <use xlink:href="#m173b4c5bbb" x="415.639966" y="131.42125" style="fill: #d2691e; fill-opacity: 0.959188; stroke: #ffffff; stroke-opacity: 0.959188; stroke-width: 0.5"/>
     <use xlink:href="#m173b4c5bbb" x="423.629602" y="201.242679" style="fill: #d2691e; fill-opacity: 0.959188; stroke: #ffffff; stroke-opacity: 0.959188; stroke-width: 0.5"/>
     <use xlink:href="#m173b4c5bbb" x="431.619239" y="184.42125" style="fill: #d2691e; fill-opacity: 0.959188; stroke: #ffffff; stroke-opacity: 0.959188; stroke-width: 0.5"/>
     <use xlink:href="#m173b4c5bbb" x="439.608875" y="188.528393" style="fill: #d2691e; fill-opacity: 0.959188; stroke: #ffffff; stroke-opacity: 0.959188; stroke-width: 0.5"/>
     <use xlink:href="#m173b4c5bbb" x="447.598511" y="265.599821" style="fill: #d2691e; fill-opacity: 0.959188; stroke: #ffffff; stroke-opacity: 0.959188; stroke-width: 0.5"/>
     <use xlink:href="#m173b4c5bbb" x="455.588148" y="289.135536" style="fill: #d2691e; fill-opacity: 0.959188; stroke: #ffffff; stroke-opacity: 0.959188; stroke-width: 0.5"/>
     <use xlink:href="#m173b4c5bbb" x="463.577784" y="176.885536" style="fill: #d2691e; fill-opacity: 0.959188; stroke: #ffffff; stroke-opacity: 0.959188; stroke-width: 0.5"/>
    </g>
   </g>
   <g id="matplotlib.axis_1">
    <g id="xtick_1">
     <g id="line2d_1">
      <defs>
       <path id="md127a892b0" d="M 0 0 
L 0 3.5 
" style="stroke: #000000; stroke-width: 0.8"/>
      </defs>
      <g>
       <use xlink:href="#md127a892b0" x="64.095966" y="311.92125" style="stroke: #000000; stroke-width: 0.8"/>
      </g>
     </g>
     <g id="line2d_2">
      <defs>
       <path id="md4ef9b36d7" d="M 0 0 
L 0 -3.5 
" style="stroke: #000000; stroke-width: 0.8"/>
      </defs>
      <g>
       <use xlink:href="#md4ef9b36d7" x="64.095966" y="36.92125" style="stroke: #000000; stroke-width: 0.8"/>
      </g>
     </g>
     <g id="text_1">
      <!-- 0 -->
      <g transform="translate(61.595966 325.865) scale(0.1 -0.1)">
       <defs>
        <path id="TimesNewRomanPSMT-30" d="M 231 2094 
Q 231 2819 450 3342 
Q 669 3866 1031 4122 
Q 1313 4325 1613 4325 
Q 2100 4325 2488 3828 
Q 2972 3213 2972 2159 
Q 2972 1422 2759 906 
Q 2547 391 2217 158 
Q 1888 -75 1581 -75 
Q 975 -75 572 641 
Q 231 1244 231 2094 
z
M 844 2016 
Q 844 1141 1059 588 
Q 1238 122 1591 122 
Q 1759 122 1940 273 
Q 2122 425 2216 781 
Q 2359 1319 2359 2297 
Q 2359 3022 2209 3506 
Q 2097 3866 1919 4016 
Q 1791 4119 1609 4119 
Q 1397 4119 1231 3928 
Q 1006 3669 925 3112 
Q 844 2556 844 2016 
z
" transform="scale(0.015625)"/>
       </defs>
       <use xlink:href="#TimesNewRomanPSMT-30"/>
      </g>
     </g>
    </g>
    <g id="xtick_2">
     <g id="line2d_3">
      <g>
       <use xlink:href="#md127a892b0" x="143.99233" y="311.92125" style="stroke: #000000; stroke-width: 0.8"/>
      </g>
     </g>
     <g id="line2d_4">
      <g>
       <use xlink:href="#md4ef9b36d7" x="143.99233" y="36.92125" style="stroke: #000000; stroke-width: 0.8"/>
      </g>
     </g>
     <g id="text_2">
      <!-- 2 -->
      <g transform="translate(141.49233 325.865) scale(0.1 -0.1)">
       <defs>
        <path id="TimesNewRomanPSMT-32" d="M 2934 816 
L 2638 0 
L 138 0 
L 138 116 
Q 1241 1122 1691 1759 
Q 2141 2397 2141 2925 
Q 2141 3328 1894 3587 
Q 1647 3847 1303 3847 
Q 991 3847 742 3664 
Q 494 3481 375 3128 
L 259 3128 
Q 338 3706 661 4015 
Q 984 4325 1469 4325 
Q 1984 4325 2329 3994 
Q 2675 3663 2675 3213 
Q 2675 2891 2525 2569 
Q 2294 2063 1775 1497 
Q 997 647 803 472 
L 1909 472 
Q 2247 472 2383 497 
Q 2519 522 2628 598 
Q 2738 675 2819 816 
L 2934 816 
z
" transform="scale(0.015625)"/>
       </defs>
       <use xlink:href="#TimesNewRomanPSMT-32"/>
      </g>
     </g>
    </g>
    <g id="xtick_3">
     <g id="line2d_5">
      <g>
       <use xlink:href="#md127a892b0" x="223.888693" y="311.92125" style="stroke: #000000; stroke-width: 0.8"/>
      </g>
     </g>
     <g id="line2d_6">
      <g>
       <use xlink:href="#md4ef9b36d7" x="223.888693" y="36.92125" style="stroke: #000000; stroke-width: 0.8"/>
      </g>
     </g>
     <g id="text_3">
      <!-- 4 -->
      <g transform="translate(221.388693 325.865) scale(0.1 -0.1)">
       <defs>
        <path id="TimesNewRomanPSMT-34" d="M 2978 1563 
L 2978 1119 
L 2409 1119 
L 2409 0 
L 1894 0 
L 1894 1119 
L 100 1119 
L 100 1519 
L 2066 4325 
L 2409 4325 
L 2409 1563 
L 2978 1563 
z
M 1894 1563 
L 1894 3666 
L 406 1563 
L 1894 1563 
z
" transform="scale(0.015625)"/>
       </defs>
       <use xlink:href="#TimesNewRomanPSMT-34"/>
      </g>
     </g>
    </g>
    <g id="xtick_4">
     <g id="line2d_7">
      <g>
       <use xlink:href="#md127a892b0" x="303.785057" y="311.92125" style="stroke: #000000; stroke-width: 0.8"/>
      </g>
     </g>
     <g id="line2d_8">
      <g>
       <use xlink:href="#md4ef9b36d7" x="303.785057" y="36.92125" style="stroke: #000000; stroke-width: 0.8"/>
      </g>
     </g>
     <g id="text_4">
      <!-- 6 -->
      <g transform="translate(301.285057 325.865) scale(0.1 -0.1)">
       <defs>
        <path id="TimesNewRomanPSMT-36" d="M 2869 4325 
L 2869 4209 
Q 2456 4169 2195 4045 
Q 1934 3922 1679 3669 
Q 1425 3416 1258 3105 
Q 1091 2794 978 2366 
Q 1428 2675 1881 2675 
Q 2316 2675 2634 2325 
Q 2953 1975 2953 1425 
Q 2953 894 2631 456 
Q 2244 -75 1606 -75 
Q 1172 -75 869 213 
Q 275 772 275 1663 
Q 275 2231 503 2743 
Q 731 3256 1154 3653 
Q 1578 4050 1965 4187 
Q 2353 4325 2688 4325 
L 2869 4325 
z
M 925 2138 
Q 869 1716 869 1456 
Q 869 1156 980 804 
Q 1091 453 1309 247 
Q 1469 100 1697 100 
Q 1969 100 2183 356 
Q 2397 613 2397 1088 
Q 2397 1622 2184 2012 
Q 1972 2403 1581 2403 
Q 1463 2403 1327 2353 
Q 1191 2303 925 2138 
z
" transform="scale(0.015625)"/>
       </defs>
       <use xlink:href="#TimesNewRomanPSMT-36"/>
      </g>
     </g>
    </g>
    <g id="xtick_5">
     <g id="line2d_9">
      <g>
       <use xlink:href="#md127a892b0" x="383.68142" y="311.92125" style="stroke: #000000; stroke-width: 0.8"/>
      </g>
     </g>
     <g id="line2d_10">
      <g>
       <use xlink:href="#md4ef9b36d7" x="383.68142" y="36.92125" style="stroke: #000000; stroke-width: 0.8"/>
      </g>
     </g>
     <g id="text_5">
      <!-- 8 -->
      <g transform="translate(381.18142 325.865) scale(0.1 -0.1)">
       <defs>
        <path id="TimesNewRomanPSMT-38" d="M 1228 2134 
Q 725 2547 579 2797 
Q 434 3047 434 3316 
Q 434 3728 753 4026 
Q 1072 4325 1600 4325 
Q 2113 4325 2425 4047 
Q 2738 3769 2738 3413 
Q 2738 3175 2569 2928 
Q 2400 2681 1866 2347 
Q 2416 1922 2594 1678 
Q 2831 1359 2831 1006 
Q 2831 559 2490 242 
Q 2150 -75 1597 -75 
Q 994 -75 656 303 
Q 388 606 388 966 
Q 388 1247 577 1523 
Q 766 1800 1228 2134 
z
M 1719 2469 
Q 2094 2806 2194 3001 
Q 2294 3197 2294 3444 
Q 2294 3772 2109 3958 
Q 1925 4144 1606 4144 
Q 1288 4144 1088 3959 
Q 888 3775 888 3528 
Q 888 3366 970 3203 
Q 1053 3041 1206 2894 
L 1719 2469 
z
M 1375 2016 
Q 1116 1797 991 1539 
Q 866 1281 866 981 
Q 866 578 1086 336 
Q 1306 94 1647 94 
Q 1984 94 2187 284 
Q 2391 475 2391 747 
Q 2391 972 2272 1150 
Q 2050 1481 1375 2016 
z
" transform="scale(0.015625)"/>
       </defs>
       <use xlink:href="#TimesNewRomanPSMT-38"/>
      </g>
     </g>
    </g>
    <g id="xtick_6">
     <g id="line2d_11">
      <g>
       <use xlink:href="#md127a892b0" x="463.577784" y="311.92125" style="stroke: #000000; stroke-width: 0.8"/>
      </g>
     </g>
     <g id="line2d_12">
      <g>
       <use xlink:href="#md4ef9b36d7" x="463.577784" y="36.92125" style="stroke: #000000; stroke-width: 0.8"/>
      </g>
     </g>
     <g id="text_6">
      <!-- 10 -->
      <g transform="translate(458.577784 325.865) scale(0.1 -0.1)">
       <defs>
        <path id="TimesNewRomanPSMT-31" d="M 750 3822 
L 1781 4325 
L 1884 4325 
L 1884 747 
Q 1884 391 1914 303 
Q 1944 216 2037 169 
Q 2131 122 2419 116 
L 2419 0 
L 825 0 
L 825 116 
Q 1125 122 1212 167 
Q 1300 213 1334 289 
Q 1369 366 1369 747 
L 1369 3034 
Q 1369 3497 1338 3628 
Q 1316 3728 1258 3775 
Q 1200 3822 1119 3822 
Q 1003 3822 797 3725 
L 750 3822 
z
" transform="scale(0.015625)"/>
       </defs>
       <use xlink:href="#TimesNewRomanPSMT-31"/>
       <use xlink:href="#TimesNewRomanPSMT-30" transform="translate(50 0)"/>
      </g>
     </g>
    </g>
    <g id="text_7">
     <!-- Seasonality index (index) -->
     <g transform="translate(202.517813 340.336563) scale(0.12 -0.12)">
      <defs>
       <path id="TimesNewRomanPSMT-53" d="M 2934 4334 
L 2934 2869 
L 2819 2869 
Q 2763 3291 2617 3541 
Q 2472 3791 2203 3937 
Q 1934 4084 1647 4084 
Q 1322 4084 1109 3886 
Q 897 3688 897 3434 
Q 897 3241 1031 3081 
Q 1225 2847 1953 2456 
Q 2547 2138 2764 1967 
Q 2981 1797 3098 1565 
Q 3216 1334 3216 1081 
Q 3216 600 2842 251 
Q 2469 -97 1881 -97 
Q 1697 -97 1534 -69 
Q 1438 -53 1133 45 
Q 828 144 747 144 
Q 669 144 623 97 
Q 578 50 556 -97 
L 441 -97 
L 441 1356 
L 556 1356 
Q 638 900 775 673 
Q 913 447 1195 297 
Q 1478 147 1816 147 
Q 2206 147 2432 353 
Q 2659 559 2659 841 
Q 2659 997 2573 1156 
Q 2488 1316 2306 1453 
Q 2184 1547 1640 1851 
Q 1097 2156 867 2337 
Q 638 2519 519 2737 
Q 400 2956 400 3219 
Q 400 3675 750 4004 
Q 1100 4334 1641 4334 
Q 1978 4334 2356 4169 
Q 2531 4091 2603 4091 
Q 2684 4091 2736 4139 
Q 2788 4188 2819 4334 
L 2934 4334 
z
" transform="scale(0.015625)"/>
       <path id="TimesNewRomanPSMT-65" d="M 681 1784 
Q 678 1147 991 784 
Q 1303 422 1725 422 
Q 2006 422 2214 576 
Q 2422 731 2563 1106 
L 2659 1044 
Q 2594 616 2278 264 
Q 1963 -88 1488 -88 
Q 972 -88 605 314 
Q 238 716 238 1394 
Q 238 2128 614 2539 
Q 991 2950 1559 2950 
Q 2041 2950 2350 2633 
Q 2659 2316 2659 1784 
L 681 1784 
z
M 681 1966 
L 2006 1966 
Q 1991 2241 1941 2353 
Q 1863 2528 1708 2628 
Q 1553 2728 1384 2728 
Q 1125 2728 920 2526 
Q 716 2325 681 1966 
z
" transform="scale(0.015625)"/>
       <path id="TimesNewRomanPSMT-61" d="M 1822 413 
Q 1381 72 1269 19 
Q 1100 -59 909 -59 
Q 613 -59 420 144 
Q 228 347 228 678 
Q 228 888 322 1041 
Q 450 1253 767 1440 
Q 1084 1628 1822 1897 
L 1822 2009 
Q 1822 2438 1686 2597 
Q 1550 2756 1291 2756 
Q 1094 2756 978 2650 
Q 859 2544 859 2406 
L 866 2225 
Q 866 2081 792 2003 
Q 719 1925 600 1925 
Q 484 1925 411 2006 
Q 338 2088 338 2228 
Q 338 2497 613 2722 
Q 888 2947 1384 2947 
Q 1766 2947 2009 2819 
Q 2194 2722 2281 2516 
Q 2338 2381 2338 1966 
L 2338 994 
Q 2338 584 2353 492 
Q 2369 400 2405 369 
Q 2441 338 2488 338 
Q 2538 338 2575 359 
Q 2641 400 2828 588 
L 2828 413 
Q 2478 -56 2159 -56 
Q 2006 -56 1915 50 
Q 1825 156 1822 413 
z
M 1822 616 
L 1822 1706 
Q 1350 1519 1213 1441 
Q 966 1303 859 1153 
Q 753 1003 753 825 
Q 753 600 887 451 
Q 1022 303 1197 303 
Q 1434 303 1822 616 
z
" transform="scale(0.015625)"/>
       <path id="TimesNewRomanPSMT-73" d="M 2050 2947 
L 2050 1972 
L 1947 1972 
Q 1828 2431 1642 2597 
Q 1456 2763 1169 2763 
Q 950 2763 815 2647 
Q 681 2531 681 2391 
Q 681 2216 781 2091 
Q 878 1963 1175 1819 
L 1631 1597 
Q 2266 1288 2266 781 
Q 2266 391 1970 151 
Q 1675 -88 1309 -88 
Q 1047 -88 709 6 
Q 606 38 541 38 
Q 469 38 428 -44 
L 325 -44 
L 325 978 
L 428 978 
Q 516 541 762 319 
Q 1009 97 1316 97 
Q 1531 97 1667 223 
Q 1803 350 1803 528 
Q 1803 744 1651 891 
Q 1500 1038 1047 1263 
Q 594 1488 453 1669 
Q 313 1847 313 2119 
Q 313 2472 555 2709 
Q 797 2947 1181 2947 
Q 1350 2947 1591 2875 
Q 1750 2828 1803 2828 
Q 1853 2828 1881 2850 
Q 1909 2872 1947 2947 
L 2050 2947 
z
" transform="scale(0.015625)"/>
       <path id="TimesNewRomanPSMT-6f" d="M 1600 2947 
Q 2250 2947 2644 2453 
Q 2978 2031 2978 1484 
Q 2978 1100 2793 706 
Q 2609 313 2286 112 
Q 1963 -88 1566 -88 
Q 919 -88 538 428 
Q 216 863 216 1403 
Q 216 1797 411 2186 
Q 606 2575 925 2761 
Q 1244 2947 1600 2947 
z
M 1503 2744 
Q 1338 2744 1170 2645 
Q 1003 2547 900 2300 
Q 797 2053 797 1666 
Q 797 1041 1045 587 
Q 1294 134 1700 134 
Q 2003 134 2200 384 
Q 2397 634 2397 1244 
Q 2397 2006 2069 2444 
Q 1847 2744 1503 2744 
z
" transform="scale(0.015625)"/>
       <path id="TimesNewRomanPSMT-6e" d="M 1034 2341 
Q 1538 2947 1994 2947 
Q 2228 2947 2397 2830 
Q 2566 2713 2666 2444 
Q 2734 2256 2734 1869 
L 2734 647 
Q 2734 375 2778 278 
Q 2813 200 2889 156 
Q 2966 113 3172 113 
L 3172 0 
L 1756 0 
L 1756 113 
L 1816 113 
Q 2016 113 2095 173 
Q 2175 234 2206 353 
Q 2219 400 2219 647 
L 2219 1819 
Q 2219 2209 2117 2386 
Q 2016 2563 1775 2563 
Q 1403 2563 1034 2156 
L 1034 647 
Q 1034 356 1069 288 
Q 1113 197 1189 155 
Q 1266 113 1500 113 
L 1500 0 
L 84 0 
L 84 113 
L 147 113 
Q 366 113 442 223 
Q 519 334 519 647 
L 519 1709 
Q 519 2225 495 2337 
Q 472 2450 423 2490 
Q 375 2531 294 2531 
Q 206 2531 84 2484 
L 38 2597 
L 900 2947 
L 1034 2947 
L 1034 2341 
z
" transform="scale(0.015625)"/>
       <path id="TimesNewRomanPSMT-6c" d="M 1184 4444 
L 1184 647 
Q 1184 378 1223 290 
Q 1263 203 1344 158 
Q 1425 113 1647 113 
L 1647 0 
L 244 0 
L 244 113 
Q 441 113 512 153 
Q 584 194 625 287 
Q 666 381 666 647 
L 666 3247 
Q 666 3731 644 3842 
Q 622 3953 573 3993 
Q 525 4034 450 4034 
Q 369 4034 244 3984 
L 191 4094 
L 1044 4444 
L 1184 4444 
z
" transform="scale(0.015625)"/>
       <path id="TimesNewRomanPSMT-69" d="M 928 4444 
Q 1059 4444 1151 4351 
Q 1244 4259 1244 4128 
Q 1244 3997 1151 3903 
Q 1059 3809 928 3809 
Q 797 3809 703 3903 
Q 609 3997 609 4128 
Q 609 4259 701 4351 
Q 794 4444 928 4444 
z
M 1188 2947 
L 1188 647 
Q 1188 378 1227 289 
Q 1266 200 1342 156 
Q 1419 113 1622 113 
L 1622 0 
L 231 0 
L 231 113 
Q 441 113 512 153 
Q 584 194 626 287 
Q 669 381 669 647 
L 669 1750 
Q 669 2216 641 2353 
Q 619 2453 572 2492 
Q 525 2531 444 2531 
Q 356 2531 231 2484 
L 188 2597 
L 1050 2947 
L 1188 2947 
z
" transform="scale(0.015625)"/>
       <path id="TimesNewRomanPSMT-74" d="M 1031 3803 
L 1031 2863 
L 1700 2863 
L 1700 2644 
L 1031 2644 
L 1031 788 
Q 1031 509 1111 412 
Q 1191 316 1316 316 
Q 1419 316 1516 380 
Q 1613 444 1666 569 
L 1788 569 
Q 1678 263 1478 108 
Q 1278 -47 1066 -47 
Q 922 -47 784 33 
Q 647 113 581 261 
Q 516 409 516 719 
L 516 2644 
L 63 2644 
L 63 2747 
Q 234 2816 414 2980 
Q 594 3144 734 3369 
Q 806 3488 934 3803 
L 1031 3803 
z
" transform="scale(0.015625)"/>
       <path id="TimesNewRomanPSMT-79" d="M 38 2863 
L 1372 2863 
L 1372 2747 
L 1306 2747 
Q 1166 2747 1095 2686 
Q 1025 2625 1025 2534 
Q 1025 2413 1128 2197 
L 1825 753 
L 2466 2334 
Q 2519 2463 2519 2588 
Q 2519 2644 2497 2672 
Q 2472 2706 2419 2726 
Q 2366 2747 2231 2747 
L 2231 2863 
L 3163 2863 
L 3163 2747 
Q 3047 2734 2984 2696 
Q 2922 2659 2847 2556 
Q 2819 2513 2741 2316 
L 1575 -541 
Q 1406 -956 1132 -1168 
Q 859 -1381 606 -1381 
Q 422 -1381 303 -1275 
Q 184 -1169 184 -1031 
Q 184 -900 270 -820 
Q 356 -741 506 -741 
Q 609 -741 788 -809 
Q 913 -856 944 -856 
Q 1038 -856 1148 -759 
Q 1259 -663 1372 -384 
L 1575 113 
L 547 2272 
Q 500 2369 397 2513 
Q 319 2622 269 2659 
Q 197 2709 38 2747 
L 38 2863 
z
" transform="scale(0.015625)"/>
       <path id="TimesNewRomanPSMT-20" transform="scale(0.015625)"/>
       <path id="TimesNewRomanPSMT-64" d="M 2222 322 
Q 2013 103 1813 7 
Q 1613 -88 1381 -88 
Q 913 -88 563 304 
Q 213 697 213 1313 
Q 213 1928 600 2439 
Q 988 2950 1597 2950 
Q 1975 2950 2222 2709 
L 2222 3238 
Q 2222 3728 2198 3840 
Q 2175 3953 2125 3993 
Q 2075 4034 2000 4034 
Q 1919 4034 1784 3984 
L 1744 4094 
L 2597 4444 
L 2738 4444 
L 2738 1134 
Q 2738 631 2761 520 
Q 2784 409 2836 365 
Q 2888 322 2956 322 
Q 3041 322 3181 375 
L 3216 266 
L 2366 -88 
L 2222 -88 
L 2222 322 
z
M 2222 541 
L 2222 2016 
Q 2203 2228 2109 2403 
Q 2016 2578 1861 2667 
Q 1706 2756 1559 2756 
Q 1284 2756 1069 2509 
Q 784 2184 784 1559 
Q 784 928 1059 592 
Q 1334 256 1672 256 
Q 1956 256 2222 541 
z
" transform="scale(0.015625)"/>
       <path id="TimesNewRomanPSMT-78" d="M 84 2863 
L 1431 2863 
L 1431 2747 
Q 1303 2747 1251 2703 
Q 1200 2659 1200 2588 
Q 1200 2513 1309 2356 
Q 1344 2306 1413 2200 
L 1616 1875 
L 1850 2200 
Q 2075 2509 2075 2591 
Q 2075 2656 2022 2701 
Q 1969 2747 1850 2747 
L 1850 2863 
L 2819 2863 
L 2819 2747 
Q 2666 2738 2553 2663 
Q 2400 2556 2134 2200 
L 1744 1678 
L 2456 653 
Q 2719 275 2831 198 
Q 2944 122 3122 113 
L 3122 0 
L 1772 0 
L 1772 113 
Q 1913 113 1991 175 
Q 2050 219 2050 291 
Q 2050 363 1850 653 
L 1431 1266 
L 972 653 
Q 759 369 759 316 
Q 759 241 829 180 
Q 900 119 1041 113 
L 1041 0 
L 106 0 
L 106 113 
Q 219 128 303 191 
Q 422 281 703 653 
L 1303 1450 
L 759 2238 
Q 528 2575 401 2661 
Q 275 2747 84 2747 
L 84 2863 
z
" transform="scale(0.015625)"/>
       <path id="TimesNewRomanPSMT-28" d="M 1988 -1253 
L 1988 -1369 
Q 1516 -1131 1200 -813 
Q 750 -359 506 256 
Q 263 872 263 1534 
Q 263 2503 741 3301 
Q 1219 4100 1988 4444 
L 1988 4313 
Q 1603 4100 1356 3731 
Q 1109 3363 987 2797 
Q 866 2231 866 1616 
Q 866 947 969 400 
Q 1050 -31 1165 -292 
Q 1281 -553 1476 -793 
Q 1672 -1034 1988 -1253 
z
" transform="scale(0.015625)"/>
       <path id="TimesNewRomanPSMT-29" d="M 144 4313 
L 144 4444 
Q 619 4209 934 3891 
Q 1381 3434 1625 2820 
Q 1869 2206 1869 1541 
Q 1869 572 1392 -226 
Q 916 -1025 144 -1369 
L 144 -1253 
Q 528 -1038 776 -670 
Q 1025 -303 1145 264 
Q 1266 831 1266 1447 
Q 1266 2113 1163 2663 
Q 1084 3094 967 3353 
Q 850 3613 656 3853 
Q 463 4094 144 4313 
z
" transform="scale(0.015625)"/>
      </defs>
      <use xlink:href="#TimesNewRomanPSMT-53"/>
      <use xlink:href="#TimesNewRomanPSMT-65" transform="translate(55.615234 0)"/>
      <use xlink:href="#TimesNewRomanPSMT-61" transform="translate(100 0)"/>
      <use xlink:href="#TimesNewRomanPSMT-73" transform="translate(144.384766 0)"/>
      <use xlink:href="#TimesNewRomanPSMT-6f" transform="translate(183.300781 0)"/>
      <use xlink:href="#TimesNewRomanPSMT-6e" transform="translate(233.300781 0)"/>
      <use xlink:href="#TimesNewRomanPSMT-61" transform="translate(283.300781 0)"/>
      <use xlink:href="#TimesNewRomanPSMT-6c" transform="translate(327.685547 0)"/>
      <use xlink:href="#TimesNewRomanPSMT-69" transform="translate(355.46875 0)"/>
      <use xlink:href="#TimesNewRomanPSMT-74" transform="translate(383.251953 0)"/>
      <use xlink:href="#TimesNewRomanPSMT-79" transform="translate(411.035156 0)"/>
      <use xlink:href="#TimesNewRomanPSMT-20" transform="translate(461.035156 0)"/>
      <use xlink:href="#TimesNewRomanPSMT-69" transform="translate(486.035156 0)"/>
      <use xlink:href="#TimesNewRomanPSMT-6e" transform="translate(513.818359 0)"/>
      <use xlink:href="#TimesNewRomanPSMT-64" transform="translate(563.818359 0)"/>
      <use xlink:href="#TimesNewRomanPSMT-65" transform="translate(613.818359 0)"/>
      <use xlink:href="#TimesNewRomanPSMT-78" transform="translate(658.203125 0)"/>
      <use xlink:href="#TimesNewRomanPSMT-20" transform="translate(708.203125 0)"/>
      <use xlink:href="#TimesNewRomanPSMT-28" transform="translate(733.203125 0)"/>
      <use xlink:href="#TimesNewRomanPSMT-69" transform="translate(766.503906 0)"/>
      <use xlink:href="#TimesNewRomanPSMT-6e" transform="translate(794.287109 0)"/>
      <use xlink:href="#TimesNewRomanPSMT-64" transform="translate(844.287109 0)"/>
      <use xlink:href="#TimesNewRomanPSMT-65" transform="translate(894.287109 0)"/>
      <use xlink:href="#TimesNewRomanPSMT-78" transform="translate(938.671875 0)"/>
      <use xlink:href="#TimesNewRomanPSMT-29" transform="translate(988.671875 0)"/>
     </g>
    </g>
   </g>
   <g id="matplotlib.axis_2">
    <g id="ytick_1">
     <g id="line2d_13">
      <defs>
       <path id="m198e4615dc" d="M 0 0 
L -3.5 0 
" style="stroke: #000000; stroke-width: 0.8"/>
      </defs>
      <g>
       <use xlink:href="#m198e4615dc" x="44.121875" y="299.42125" style="stroke: #000000; stroke-width: 0.8"/>
      </g>
     </g>
     <g id="line2d_14">
      <defs>
       <path id="m4f2f0facff" d="M 0 0 
L 3.5 0 
" style="stroke: #000000; stroke-width: 0.8"/>
      </defs>
      <g>
       <use xlink:href="#m4f2f0facff" x="483.551875" y="299.42125" style="stroke: #000000; stroke-width: 0.8"/>
      </g>
     </g>
     <g id="text_8">
      <!-- 30 -->
      <g transform="translate(27.121875 302.893125) scale(0.1 -0.1)">
       <defs>
        <path id="TimesNewRomanPSMT-33" d="M 325 3431 
Q 506 3859 782 4092 
Q 1059 4325 1472 4325 
Q 1981 4325 2253 3994 
Q 2459 3747 2459 3466 
Q 2459 3003 1878 2509 
Q 2269 2356 2469 2072 
Q 2669 1788 2669 1403 
Q 2669 853 2319 450 
Q 1863 -75 997 -75 
Q 569 -75 414 31 
Q 259 138 259 259 
Q 259 350 332 419 
Q 406 488 509 488 
Q 588 488 669 463 
Q 722 447 909 348 
Q 1097 250 1169 231 
Q 1284 197 1416 197 
Q 1734 197 1970 444 
Q 2206 691 2206 1028 
Q 2206 1275 2097 1509 
Q 2016 1684 1919 1775 
Q 1784 1900 1550 2001 
Q 1316 2103 1072 2103 
L 972 2103 
L 972 2197 
Q 1219 2228 1467 2375 
Q 1716 2522 1828 2728 
Q 1941 2934 1941 3181 
Q 1941 3503 1739 3701 
Q 1538 3900 1238 3900 
Q 753 3900 428 3381 
L 325 3431 
z
" transform="scale(0.015625)"/>
       </defs>
       <use xlink:href="#TimesNewRomanPSMT-33"/>
       <use xlink:href="#TimesNewRomanPSMT-30" transform="translate(50 0)"/>
      </g>
     </g>
    </g>
    <g id="ytick_2">
     <g id="line2d_15">
      <g>
       <use xlink:href="#m198e4615dc" x="44.121875" y="263.706964" style="stroke: #000000; stroke-width: 0.8"/>
      </g>
     </g>
     <g id="line2d_16">
      <g>
       <use xlink:href="#m4f2f0facff" x="483.551875" y="263.706964" style="stroke: #000000; stroke-width: 0.8"/>
      </g>
     </g>
     <g id="text_9">
      <!-- 40 -->
      <g transform="translate(27.121875 267.178839) scale(0.1 -0.1)">
       <use xlink:href="#TimesNewRomanPSMT-34"/>
       <use xlink:href="#TimesNewRomanPSMT-30" transform="translate(50 0)"/>
      </g>
     </g>
    </g>
    <g id="ytick_3">
     <g id="line2d_17">
      <g>
       <use xlink:href="#m198e4615dc" x="44.121875" y="227.992679" style="stroke: #000000; stroke-width: 0.8"/>
      </g>
     </g>
     <g id="line2d_18">
      <g>
       <use xlink:href="#m4f2f0facff" x="483.551875" y="227.992679" style="stroke: #000000; stroke-width: 0.8"/>
      </g>
     </g>
     <g id="text_10">
      <!-- 50 -->
      <g transform="translate(27.121875 231.464554) scale(0.1 -0.1)">
       <defs>
        <path id="TimesNewRomanPSMT-35" d="M 2778 4238 
L 2534 3706 
L 1259 3706 
L 981 3138 
Q 1809 3016 2294 2522 
Q 2709 2097 2709 1522 
Q 2709 1188 2573 903 
Q 2438 619 2231 419 
Q 2025 219 1772 97 
Q 1413 -75 1034 -75 
Q 653 -75 479 54 
Q 306 184 306 341 
Q 306 428 378 495 
Q 450 563 559 563 
Q 641 563 702 538 
Q 763 513 909 409 
Q 1144 247 1384 247 
Q 1750 247 2026 523 
Q 2303 800 2303 1197 
Q 2303 1581 2056 1914 
Q 1809 2247 1375 2428 
Q 1034 2569 447 2591 
L 1259 4238 
L 2778 4238 
z
" transform="scale(0.015625)"/>
       </defs>
       <use xlink:href="#TimesNewRomanPSMT-35"/>
       <use xlink:href="#TimesNewRomanPSMT-30" transform="translate(50 0)"/>
      </g>
     </g>
    </g>
    <g id="ytick_4">
     <g id="line2d_19">
      <g>
       <use xlink:href="#m198e4615dc" x="44.121875" y="192.278393" style="stroke: #000000; stroke-width: 0.8"/>
      </g>
     </g>
     <g id="line2d_20">
      <g>
       <use xlink:href="#m4f2f0facff" x="483.551875" y="192.278393" style="stroke: #000000; stroke-width: 0.8"/>
      </g>
     </g>
     <g id="text_11">
      <!-- 60 -->
      <g transform="translate(27.121875 195.750268) scale(0.1 -0.1)">
       <use xlink:href="#TimesNewRomanPSMT-36"/>
       <use xlink:href="#TimesNewRomanPSMT-30" transform="translate(50 0)"/>
      </g>
     </g>
    </g>
    <g id="ytick_5">
     <g id="line2d_21">
      <g>
       <use xlink:href="#m198e4615dc" x="44.121875" y="156.564107" style="stroke: #000000; stroke-width: 0.8"/>
      </g>
     </g>
     <g id="line2d_22">
      <g>
       <use xlink:href="#m4f2f0facff" x="483.551875" y="156.564107" style="stroke: #000000; stroke-width: 0.8"/>
      </g>
     </g>
     <g id="text_12">
      <!-- 70 -->
      <g transform="translate(27.121875 160.035982) scale(0.1 -0.1)">
       <defs>
        <path id="TimesNewRomanPSMT-37" d="M 644 4238 
L 2916 4238 
L 2916 4119 
L 1503 -88 
L 1153 -88 
L 2419 3728 
L 1253 3728 
Q 900 3728 750 3644 
Q 488 3500 328 3200 
L 238 3234 
L 644 4238 
z
" transform="scale(0.015625)"/>
       </defs>
       <use xlink:href="#TimesNewRomanPSMT-37"/>
       <use xlink:href="#TimesNewRomanPSMT-30" transform="translate(50 0)"/>
      </g>
     </g>
    </g>
    <g id="ytick_6">
     <g id="line2d_23">
      <g>
       <use xlink:href="#m198e4615dc" x="44.121875" y="120.849821" style="stroke: #000000; stroke-width: 0.8"/>
      </g>
     </g>
     <g id="line2d_24">
      <g>
       <use xlink:href="#m4f2f0facff" x="483.551875" y="120.849821" style="stroke: #000000; stroke-width: 0.8"/>
      </g>
     </g>
     <g id="text_13">
      <!-- 80 -->
      <g transform="translate(27.121875 124.321696) scale(0.1 -0.1)">
       <use xlink:href="#TimesNewRomanPSMT-38"/>
       <use xlink:href="#TimesNewRomanPSMT-30" transform="translate(50 0)"/>
      </g>
     </g>
    </g>
    <g id="ytick_7">
     <g id="line2d_25">
      <g>
       <use xlink:href="#m198e4615dc" x="44.121875" y="85.135536" style="stroke: #000000; stroke-width: 0.8"/>
      </g>
     </g>
     <g id="line2d_26">
      <g>
       <use xlink:href="#m4f2f0facff" x="483.551875" y="85.135536" style="stroke: #000000; stroke-width: 0.8"/>
      </g>
     </g>
     <g id="text_14">
      <!-- 90 -->
      <g transform="translate(27.121875 88.607411) scale(0.1 -0.1)">
       <defs>
        <path id="TimesNewRomanPSMT-39" d="M 338 -88 
L 338 28 
Q 744 34 1094 217 
Q 1444 400 1770 856 
Q 2097 1313 2225 1859 
Q 1734 1544 1338 1544 
Q 891 1544 572 1889 
Q 253 2234 253 2806 
Q 253 3363 572 3797 
Q 956 4325 1575 4325 
Q 2097 4325 2469 3894 
Q 2925 3359 2925 2575 
Q 2925 1869 2578 1258 
Q 2231 647 1613 244 
Q 1109 -88 516 -88 
L 338 -88 
z
M 2275 2091 
Q 2331 2497 2331 2741 
Q 2331 3044 2228 3395 
Q 2125 3747 1936 3934 
Q 1747 4122 1506 4122 
Q 1228 4122 1018 3872 
Q 809 3622 809 3128 
Q 809 2469 1088 2097 
Q 1291 1828 1588 1828 
Q 1731 1828 1928 1897 
Q 2125 1966 2275 2091 
z
" transform="scale(0.015625)"/>
       </defs>
       <use xlink:href="#TimesNewRomanPSMT-39"/>
       <use xlink:href="#TimesNewRomanPSMT-30" transform="translate(50 0)"/>
      </g>
     </g>
    </g>
    <g id="ytick_8">
     <g id="line2d_27">
      <g>
       <use xlink:href="#m198e4615dc" x="44.121875" y="49.42125" style="stroke: #000000; stroke-width: 0.8"/>
      </g>
     </g>
     <g id="line2d_28">
      <g>
       <use xlink:href="#m4f2f0facff" x="483.551875" y="49.42125" style="stroke: #000000; stroke-width: 0.8"/>
      </g>
     </g>
     <g id="text_15">
      <!-- 100 -->
      <g transform="translate(22.121875 52.893125) scale(0.1 -0.1)">
       <use xlink:href="#TimesNewRomanPSMT-31"/>
       <use xlink:href="#TimesNewRomanPSMT-30" transform="translate(50 0)"/>
       <use xlink:href="#TimesNewRomanPSMT-30" transform="translate(100 0)"/>
      </g>
     </g>
    </g>
    <g id="text_16">
     <!-- Occupancy rate (%) -->
     <g transform="translate(15.5325 222.393125) rotate(-90) scale(0.12 -0.12)">
      <defs>
       <path id="TimesNewRomanPSMT-4f" d="M 2341 4334 
Q 3166 4334 3770 3707 
Q 4375 3081 4375 2144 
Q 4375 1178 3765 540 
Q 3156 -97 2291 -97 
Q 1416 -97 820 525 
Q 225 1147 225 2134 
Q 225 3144 913 3781 
Q 1509 4334 2341 4334 
z
M 2281 4106 
Q 1713 4106 1369 3684 
Q 941 3159 941 2147 
Q 941 1109 1384 550 
Q 1725 125 2284 125 
Q 2881 125 3270 590 
Q 3659 1056 3659 2059 
Q 3659 3147 3231 3681 
Q 2888 4106 2281 4106 
z
" transform="scale(0.015625)"/>
       <path id="TimesNewRomanPSMT-63" d="M 2631 1088 
Q 2516 522 2178 217 
Q 1841 -88 1431 -88 
Q 944 -88 581 321 
Q 219 731 219 1428 
Q 219 2103 620 2525 
Q 1022 2947 1584 2947 
Q 2006 2947 2278 2723 
Q 2550 2500 2550 2259 
Q 2550 2141 2473 2067 
Q 2397 1994 2259 1994 
Q 2075 1994 1981 2113 
Q 1928 2178 1911 2362 
Q 1894 2547 1784 2644 
Q 1675 2738 1481 2738 
Q 1169 2738 978 2506 
Q 725 2200 725 1697 
Q 725 1184 976 792 
Q 1228 400 1656 400 
Q 1963 400 2206 609 
Q 2378 753 2541 1131 
L 2631 1088 
z
" transform="scale(0.015625)"/>
       <path id="TimesNewRomanPSMT-75" d="M 2709 2863 
L 2709 1128 
Q 2709 631 2732 520 
Q 2756 409 2807 365 
Q 2859 322 2928 322 
Q 3025 322 3147 375 
L 3191 266 
L 2334 -88 
L 2194 -88 
L 2194 519 
Q 1825 119 1631 15 
Q 1438 -88 1222 -88 
Q 981 -88 804 51 
Q 628 191 559 409 
Q 491 628 491 1028 
L 491 2306 
Q 491 2509 447 2587 
Q 403 2666 317 2708 
Q 231 2750 6 2747 
L 6 2863 
L 1009 2863 
L 1009 947 
Q 1009 547 1148 422 
Q 1288 297 1484 297 
Q 1619 297 1789 381 
Q 1959 466 2194 703 
L 2194 2325 
Q 2194 2569 2105 2655 
Q 2016 2741 1734 2747 
L 1734 2863 
L 2709 2863 
z
" transform="scale(0.015625)"/>
       <path id="TimesNewRomanPSMT-70" d="M -6 2578 
L 875 2934 
L 994 2934 
L 994 2266 
Q 1216 2644 1439 2795 
Q 1663 2947 1909 2947 
Q 2341 2947 2628 2609 
Q 2981 2197 2981 1534 
Q 2981 794 2556 309 
Q 2206 -88 1675 -88 
Q 1444 -88 1275 -22 
Q 1150 25 994 166 
L 994 -706 
Q 994 -1000 1030 -1079 
Q 1066 -1159 1155 -1206 
Q 1244 -1253 1478 -1253 
L 1478 -1369 
L -22 -1369 
L -22 -1253 
L 56 -1253 
Q 228 -1256 350 -1188 
Q 409 -1153 442 -1076 
Q 475 -1000 475 -688 
L 475 2019 
Q 475 2297 450 2372 
Q 425 2447 370 2484 
Q 316 2522 222 2522 
Q 147 2522 31 2478 
L -6 2578 
z
M 994 2081 
L 994 1013 
Q 994 666 1022 556 
Q 1066 375 1236 237 
Q 1406 100 1666 100 
Q 1978 100 2172 344 
Q 2425 663 2425 1241 
Q 2425 1897 2138 2250 
Q 1938 2494 1663 2494 
Q 1513 2494 1366 2419 
Q 1253 2363 994 2081 
z
" transform="scale(0.015625)"/>
       <path id="TimesNewRomanPSMT-72" d="M 1038 2947 
L 1038 2303 
Q 1397 2947 1775 2947 
Q 1947 2947 2059 2842 
Q 2172 2738 2172 2600 
Q 2172 2478 2090 2393 
Q 2009 2309 1897 2309 
Q 1788 2309 1652 2417 
Q 1516 2525 1450 2525 
Q 1394 2525 1328 2463 
Q 1188 2334 1038 2041 
L 1038 669 
Q 1038 431 1097 309 
Q 1138 225 1241 169 
Q 1344 113 1538 113 
L 1538 0 
L 72 0 
L 72 113 
Q 291 113 397 181 
Q 475 231 506 341 
Q 522 394 522 644 
L 522 1753 
Q 522 2253 501 2348 
Q 481 2444 426 2487 
Q 372 2531 291 2531 
Q 194 2531 72 2484 
L 41 2597 
L 906 2947 
L 1038 2947 
z
" transform="scale(0.015625)"/>
       <path id="TimesNewRomanPSMT-25" d="M 4350 4334 
L 1263 -175 
L 984 -175 
L 4072 4334 
L 4350 4334 
z
M 1138 4334 
Q 1559 4334 1792 3984 
Q 2025 3634 2025 3181 
Q 2025 2638 1762 2341 
Q 1500 2044 1131 2044 
Q 884 2044 678 2180 
Q 472 2316 348 2584 
Q 225 2853 225 3181 
Q 225 3509 350 3786 
Q 475 4063 692 4198 
Q 909 4334 1138 4334 
z
M 1128 4159 
Q 969 4159 845 3971 
Q 722 3784 722 3184 
Q 722 2750 791 2522 
Q 844 2350 956 2256 
Q 1022 2200 1119 2200 
Q 1269 2200 1375 2363 
Q 1531 2603 1531 3166 
Q 1531 3759 1378 4000 
Q 1278 4159 1128 4159 
z
M 4206 2103 
Q 4428 2103 4648 1962 
Q 4869 1822 4989 1553 
Q 5109 1284 5109 963 
Q 5109 409 4843 117 
Q 4578 -175 4216 -175 
Q 3988 -175 3773 -34 
Q 3559 106 3436 367 
Q 3313 628 3313 963 
Q 3313 1291 3436 1562 
Q 3559 1834 3773 1968 
Q 3988 2103 4206 2103 
z
M 4209 1938 
Q 4059 1938 3950 1769 
Q 3809 1550 3809 941 
Q 3809 381 3953 159 
Q 4059 0 4209 0 
Q 4353 0 4466 172 
Q 4616 400 4616 956 
Q 4616 1544 4466 1778 
Q 4363 1938 4209 1938 
z
" transform="scale(0.015625)"/>
      </defs>
      <use xlink:href="#TimesNewRomanPSMT-4f"/>
      <use xlink:href="#TimesNewRomanPSMT-63" transform="translate(72.216797 0)"/>
      <use xlink:href="#TimesNewRomanPSMT-63" transform="translate(116.601562 0)"/>
      <use xlink:href="#TimesNewRomanPSMT-75" transform="translate(160.986328 0)"/>
      <use xlink:href="#TimesNewRomanPSMT-70" transform="translate(210.986328 0)"/>
      <use xlink:href="#TimesNewRomanPSMT-61" transform="translate(260.986328 0)"/>
      <use xlink:href="#TimesNewRomanPSMT-6e" transform="translate(305.371094 0)"/>
      <use xlink:href="#TimesNewRomanPSMT-63" transform="translate(355.371094 0)"/>
      <use xlink:href="#TimesNewRomanPSMT-79" transform="translate(399.755859 0)"/>
      <use xlink:href="#TimesNewRomanPSMT-20" transform="translate(449.755859 0)"/>
      <use xlink:href="#TimesNewRomanPSMT-72" transform="translate(474.755859 0)"/>
      <use xlink:href="#TimesNewRomanPSMT-61" transform="translate(508.056641 0)"/>
      <use xlink:href="#TimesNewRomanPSMT-74" transform="translate(552.441406 0)"/>
      <use xlink:href="#TimesNewRomanPSMT-65" transform="translate(580.224609 0)"/>
      <use xlink:href="#TimesNewRomanPSMT-20" transform="translate(624.609375 0)"/>
      <use xlink:href="#TimesNewRomanPSMT-28" transform="translate(649.609375 0)"/>
      <use xlink:href="#TimesNewRomanPSMT-25" transform="translate(682.910156 0)"/>
      <use xlink:href="#TimesNewRomanPSMT-29" transform="translate(766.210938 0)"/>
     </g>
    </g>
   </g>
   <g id="patch_3">
    <path d="M 44.121875 311.92125 
L 44.121875 36.92125 
" style="fill: none; stroke: #333333; stroke-width: 2; stroke-linejoin: miter; stroke-linecap: square"/>
   </g>
   <g id="patch_4">
    <path d="M 483.551875 311.92125 
L 483.551875 36.92125 
" style="fill: none; stroke: #000000; stroke-linejoin: miter; stroke-linecap: square"/>
   </g>
   <g id="patch_5">
    <path d="M 44.121875 311.92125 
L 483.551875 311.92125 
" style="fill: none; stroke: #333333; stroke-width: 2; stroke-linejoin: miter; stroke-linecap: square"/>
   </g>
   <g id="patch_6">
    <path d="M 44.121875 36.92125 
L 483.551875 36.92125 
" style="fill: none; stroke: #000000; stroke-linejoin: miter; stroke-linecap: square"/>
   </g>
   <g id="text_17">
    <!-- the Trend of Tourism and Hospitality -->
    <g transform="translate(160.032344 16.92125) scale(0.14 -0.14)">
     <defs>
      <path id="TimesNewRomanPSMT-68" d="M 1041 4444 
L 1041 2350 
Q 1388 2731 1591 2839 
Q 1794 2947 1997 2947 
Q 2241 2947 2416 2812 
Q 2591 2678 2675 2391 
Q 2734 2191 2734 1659 
L 2734 647 
Q 2734 375 2778 275 
Q 2809 200 2884 156 
Q 2959 113 3159 113 
L 3159 0 
L 1753 0 
L 1753 113 
L 1819 113 
Q 2019 113 2097 173 
Q 2175 234 2206 353 
Q 2216 403 2216 647 
L 2216 1659 
Q 2216 2128 2167 2275 
Q 2119 2422 2012 2495 
Q 1906 2569 1756 2569 
Q 1603 2569 1437 2487 
Q 1272 2406 1041 2159 
L 1041 647 
Q 1041 353 1073 281 
Q 1106 209 1195 161 
Q 1284 113 1503 113 
L 1503 0 
L 84 0 
L 84 113 
Q 275 113 384 172 
Q 447 203 484 290 
Q 522 378 522 647 
L 522 3238 
Q 522 3728 498 3840 
Q 475 3953 426 3993 
Q 378 4034 297 4034 
Q 231 4034 84 3984 
L 41 4094 
L 897 4444 
L 1041 4444 
z
" transform="scale(0.015625)"/>
      <path id="TimesNewRomanPSMT-54" d="M 3703 4238 
L 3750 3244 
L 3631 3244 
Q 3597 3506 3538 3619 
Q 3441 3800 3280 3886 
Q 3119 3972 2856 3972 
L 2259 3972 
L 2259 734 
Q 2259 344 2344 247 
Q 2463 116 2709 116 
L 2856 116 
L 2856 0 
L 1059 0 
L 1059 116 
L 1209 116 
Q 1478 116 1591 278 
Q 1659 378 1659 734 
L 1659 3972 
L 1150 3972 
Q 853 3972 728 3928 
Q 566 3869 450 3700 
Q 334 3531 313 3244 
L 194 3244 
L 244 4238 
L 3703 4238 
z
" transform="scale(0.015625)"/>
      <path id="TimesNewRomanPSMT-66" d="M 1319 2638 
L 1319 756 
Q 1319 356 1406 250 
Q 1522 113 1716 113 
L 1975 113 
L 1975 0 
L 266 0 
L 266 113 
L 394 113 
Q 519 113 622 175 
Q 725 238 764 344 
Q 803 450 803 756 
L 803 2638 
L 247 2638 
L 247 2863 
L 803 2863 
L 803 3050 
Q 803 3478 940 3775 
Q 1078 4072 1361 4255 
Q 1644 4438 1997 4438 
Q 2325 4438 2600 4225 
Q 2781 4084 2781 3909 
Q 2781 3816 2700 3733 
Q 2619 3650 2525 3650 
Q 2453 3650 2373 3701 
Q 2294 3753 2178 3923 
Q 2063 4094 1966 4153 
Q 1869 4213 1750 4213 
Q 1606 4213 1506 4136 
Q 1406 4059 1362 3898 
Q 1319 3738 1319 3069 
L 1319 2863 
L 2056 2863 
L 2056 2638 
L 1319 2638 
z
" transform="scale(0.015625)"/>
      <path id="TimesNewRomanPSMT-6d" d="M 1050 2338 
Q 1363 2650 1419 2697 
Q 1559 2816 1721 2881 
Q 1884 2947 2044 2947 
Q 2313 2947 2506 2790 
Q 2700 2634 2766 2338 
Q 3088 2713 3309 2830 
Q 3531 2947 3766 2947 
Q 3994 2947 4170 2830 
Q 4347 2713 4450 2447 
Q 4519 2266 4519 1878 
L 4519 647 
Q 4519 378 4559 278 
Q 4591 209 4675 161 
Q 4759 113 4950 113 
L 4950 0 
L 3538 0 
L 3538 113 
L 3597 113 
Q 3781 113 3884 184 
Q 3956 234 3988 344 
Q 4000 397 4000 647 
L 4000 1878 
Q 4000 2228 3916 2372 
Q 3794 2572 3525 2572 
Q 3359 2572 3192 2489 
Q 3025 2406 2788 2181 
L 2781 2147 
L 2788 2013 
L 2788 647 
Q 2788 353 2820 281 
Q 2853 209 2943 161 
Q 3034 113 3253 113 
L 3253 0 
L 1806 0 
L 1806 113 
Q 2044 113 2133 169 
Q 2222 225 2256 338 
Q 2272 391 2272 647 
L 2272 1878 
Q 2272 2228 2169 2381 
Q 2031 2581 1784 2581 
Q 1616 2581 1450 2491 
Q 1191 2353 1050 2181 
L 1050 647 
Q 1050 366 1089 281 
Q 1128 197 1204 155 
Q 1281 113 1516 113 
L 1516 0 
L 100 0 
L 100 113 
Q 297 113 375 155 
Q 453 197 493 289 
Q 534 381 534 647 
L 534 1741 
Q 534 2213 506 2350 
Q 484 2453 437 2492 
Q 391 2531 309 2531 
Q 222 2531 100 2484 
L 53 2597 
L 916 2947 
L 1050 2947 
L 1050 2338 
z
" transform="scale(0.015625)"/>
      <path id="TimesNewRomanPSMT-48" d="M 1316 2272 
L 3284 2272 
L 3284 3484 
Q 3284 3809 3244 3913 
Q 3213 3991 3113 4047 
Q 2978 4122 2828 4122 
L 2678 4122 
L 2678 4238 
L 4491 4238 
L 4491 4122 
L 4341 4122 
Q 4191 4122 4056 4050 
Q 3956 4000 3920 3898 
Q 3884 3797 3884 3484 
L 3884 750 
Q 3884 428 3925 325 
Q 3956 247 4053 191 
Q 4191 116 4341 116 
L 4491 116 
L 4491 0 
L 2678 0 
L 2678 116 
L 2828 116 
Q 3088 116 3206 269 
Q 3284 369 3284 750 
L 3284 2041 
L 1316 2041 
L 1316 750 
Q 1316 428 1356 325 
Q 1388 247 1488 191 
Q 1622 116 1772 116 
L 1925 116 
L 1925 0 
L 109 0 
L 109 116 
L 259 116 
Q 522 116 641 269 
Q 716 369 716 750 
L 716 3484 
Q 716 3809 675 3913 
Q 644 3991 547 4047 
Q 409 4122 259 4122 
L 109 4122 
L 109 4238 
L 1925 4238 
L 1925 4122 
L 1772 4122 
Q 1622 4122 1488 4050 
Q 1391 4000 1353 3898 
Q 1316 3797 1316 3484 
L 1316 2272 
z
" transform="scale(0.015625)"/>
     </defs>
     <use xlink:href="#TimesNewRomanPSMT-74"/>
     <use xlink:href="#TimesNewRomanPSMT-68" transform="translate(27.783203 0)"/>
     <use xlink:href="#TimesNewRomanPSMT-65" transform="translate(77.783203 0)"/>
     <use xlink:href="#TimesNewRomanPSMT-20" transform="translate(122.167969 0)"/>
     <use xlink:href="#TimesNewRomanPSMT-54" transform="translate(145.417969 0)"/>
     <use xlink:href="#TimesNewRomanPSMT-72" transform="translate(203.001953 0)"/>
     <use xlink:href="#TimesNewRomanPSMT-65" transform="translate(236.302734 0)"/>
     <use xlink:href="#TimesNewRomanPSMT-6e" transform="translate(280.6875 0)"/>
     <use xlink:href="#TimesNewRomanPSMT-64" transform="translate(330.6875 0)"/>
     <use xlink:href="#TimesNewRomanPSMT-20" transform="translate(380.6875 0)"/>
     <use xlink:href="#TimesNewRomanPSMT-6f" transform="translate(405.6875 0)"/>
     <use xlink:href="#TimesNewRomanPSMT-66" transform="translate(455.6875 0)"/>
     <use xlink:href="#TimesNewRomanPSMT-20" transform="translate(488.988281 0)"/>
     <use xlink:href="#TimesNewRomanPSMT-54" transform="translate(512.238281 0)"/>
     <use xlink:href="#TimesNewRomanPSMT-6f" transform="translate(566.322266 0)"/>
     <use xlink:href="#TimesNewRomanPSMT-75" transform="translate(616.322266 0)"/>
     <use xlink:href="#TimesNewRomanPSMT-72" transform="translate(666.322266 0)"/>
     <use xlink:href="#TimesNewRomanPSMT-69" transform="translate(699.623047 0)"/>
     <use xlink:href="#TimesNewRomanPSMT-73" transform="translate(727.40625 0)"/>
     <use xlink:href="#TimesNewRomanPSMT-6d" transform="translate(766.322266 0)"/>
     <use xlink:href="#TimesNewRomanPSMT-20" transform="translate(844.105469 0)"/>
     <use xlink:href="#TimesNewRomanPSMT-61" transform="translate(869.105469 0)"/>
     <use xlink:href="#TimesNewRomanPSMT-6e" transform="translate(913.490234 0)"/>
     <use xlink:href="#TimesNewRomanPSMT-64" transform="translate(963.490234 0)"/>
     <use xlink:href="#TimesNewRomanPSMT-20" transform="translate(1013.490234 0)"/>
     <use xlink:href="#TimesNewRomanPSMT-48" transform="translate(1038.490234 0)"/>
     <use xlink:href="#TimesNewRomanPSMT-6f" transform="translate(1110.707031 0)"/>
     <use xlink:href="#TimesNewRomanPSMT-73" transform="translate(1160.707031 0)"/>
     <use xlink:href="#TimesNewRomanPSMT-70" transform="translate(1199.623047 0)"/>
     <use xlink:href="#TimesNewRomanPSMT-69" transform="translate(1249.623047 0)"/>
     <use xlink:href="#TimesNewRomanPSMT-74" transform="translate(1277.40625 0)"/>
     <use xlink:href="#TimesNewRomanPSMT-61" transform="translate(1305.189453 0)"/>
     <use xlink:href="#TimesNewRomanPSMT-6c" transform="translate(1349.574219 0)"/>
     <use xlink:href="#TimesNewRomanPSMT-69" transform="translate(1377.357422 0)"/>
     <use xlink:href="#TimesNewRomanPSMT-74" transform="translate(1405.140625 0)"/>
     <use xlink:href="#TimesNewRomanPSMT-79" transform="translate(1432.923828 0)"/>
    </g>
   </g>
  </g>
 </g>
 <defs>
  <clipPath id="p7a24c865bb">
   <rect x="44.121875" y="36.92125" width="439.43" height="275"/>
  </clipPath>
 </defs>
</svg>
