<?xml version="1.0" encoding="utf-8" standalone="no"?>
<!DOCTYPE svg PUBLIC "-//W3C//DTD SVG 1.1//EN"
  "http://www.w3.org/Graphics/SVG/1.1/DTD/svg11.dtd">
<svg xmlns:xlink="http://www.w3.org/1999/xlink" width="745.241905pt" height="212.255313pt" viewBox="0 0 745.241905 212.255313" xmlns="http://www.w3.org/2000/svg" version="1.1">
 <metadata>
  <rdf:RDF xmlns:dc="http://purl.org/dc/elements/1.1/" xmlns:cc="http://creativecommons.org/ns#" xmlns:rdf="http://www.w3.org/1999/02/22-rdf-syntax-ns#">
   <cc:Work>
    <dc:type rdf:resource="http://purl.org/dc/dcmitype/StillImage"/>
    <dc:date>2025-05-27T02:26:55.149919</dc:date>
    <dc:format>image/svg+xml</dc:format>
    <dc:creator>
     <cc:Agent>
      <dc:title>Matplotlib v3.10.1, https://matplotlib.org/</dc:title>
     </cc:Agent>
    </dc:creator>
   </cc:Work>
  </rdf:RDF>
 </metadata>
 <defs>
  <style type="text/css">*{stroke-linejoin: round; stroke-linecap: butt}</style>
 </defs>
 <g id="figure_1">
  <g id="patch_1">
   <path d="M 0 212.255313 
L 745.241905 212.255313 
L 745.241905 0 
L 0 0 
z
" style="fill: #ffffff"/>
  </g>
  <g id="axes_1">
   <g id="patch_2">
    <path d="M 169.705905 95.78 
L 730.541905 95.78 
L 730.541905 21.12 
L 169.705905 21.12 
L 169.705905 95.78 
z
" style="fill: none; opacity: 0"/>
   </g>
   <g id="FillBetweenPolyCollection_1">
    <defs>
     <path id="m2f61f535ff" d="M 169.705905 -138.285097 
L 169.705905 -116.475313 
L 172.524176 -116.475313 
L 175.342448 -116.475313 
L 178.160719 -116.475313 
L 180.97899 -116.475313 
L 183.797262 -116.475313 
L 186.615533 -116.475313 
L 189.433804 -116.475313 
L 192.252076 -116.475313 
L 195.070347 -116.475313 
L 197.888619 -116.475313 
L 200.70689 -116.475313 
L 203.525161 -116.475313 
L 206.343433 -116.475313 
L 209.161704 -116.475313 
L 211.979975 -116.475313 
L 214.798247 -116.475313 
L 217.616518 -116.475313 
L 220.434789 -116.475313 
L 223.253061 -116.475313 
L 226.071332 -116.475313 
L 228.889603 -116.475313 
L 231.707875 -116.475313 
L 234.526146 -116.475313 
L 237.344418 -116.475313 
L 240.162689 -116.475313 
L 242.98096 -116.475313 
L 245.799232 -116.475313 
L 248.617503 -116.475313 
L 251.435774 -116.475313 
L 254.254046 -116.475313 
L 257.072317 -116.475313 
L 259.890588 -116.475313 
L 262.70886 -116.475313 
L 265.527131 -116.475313 
L 268.345402 -116.475313 
L 271.163674 -116.475313 
L 273.981945 -116.475313 
L 276.800217 -116.475313 
L 279.618488 -116.475313 
L 282.436759 -116.475313 
L 285.255031 -116.475313 
L 288.073302 -116.475313 
L 290.891573 -116.475313 
L 293.709845 -116.475313 
L 296.528116 -116.475313 
L 299.346387 -116.475313 
L 302.164659 -116.475313 
L 304.98293 -116.475313 
L 307.801201 -116.475313 
L 310.619473 -116.475313 
L 313.437744 -116.475313 
L 316.256016 -116.475313 
L 319.074287 -116.475313 
L 321.892558 -116.475313 
L 324.71083 -116.475313 
L 327.529101 -116.475313 
L 330.347372 -116.475313 
L 333.165644 -116.475313 
L 335.983915 -116.475313 
L 338.802186 -116.475313 
L 341.620458 -116.475313 
L 344.438729 -116.475313 
L 347.257 -116.475313 
L 350.075272 -116.475313 
L 352.893543 -116.475313 
L 355.711815 -116.475313 
L 358.530086 -116.475313 
L 361.348357 -116.475313 
L 364.166629 -116.475313 
L 366.9849 -116.475313 
L 369.803171 -116.475313 
L 372.621443 -116.475313 
L 375.439714 -116.475313 
L 378.257985 -116.475313 
L 381.076257 -116.475313 
L 383.894528 -116.475313 
L 386.712799 -116.475313 
L 389.531071 -116.475313 
L 392.349342 -116.475313 
L 395.167614 -116.475313 
L 397.985885 -116.475313 
L 400.804156 -116.475313 
L 403.622428 -116.475313 
L 406.440699 -116.475313 
L 409.25897 -116.475313 
L 412.077242 -116.475313 
L 414.895513 -116.475313 
L 417.713784 -116.475313 
L 420.532056 -116.475313 
L 423.350327 -116.475313 
L 426.168598 -116.475313 
L 428.98687 -116.475313 
L 431.805141 -116.475313 
L 434.623413 -116.475313 
L 437.441684 -116.475313 
L 440.259955 -116.475313 
L 443.078227 -116.475313 
L 445.896498 -116.475313 
L 448.714769 -116.475313 
L 451.533041 -116.475313 
L 454.351312 -116.475313 
L 457.169583 -116.475313 
L 459.987855 -116.475313 
L 462.806126 -116.475313 
L 465.624397 -116.475313 
L 468.442669 -116.475313 
L 471.26094 -116.475313 
L 474.079212 -116.475313 
L 476.897483 -116.475313 
L 479.715754 -116.475313 
L 482.534026 -116.475313 
L 485.352297 -116.475313 
L 488.170568 -116.475313 
L 490.98884 -116.475313 
L 493.807111 -116.475313 
L 496.625382 -116.475313 
L 499.443654 -116.475313 
L 502.261925 -116.475313 
L 505.080196 -116.475313 
L 507.898468 -116.475313 
L 510.716739 -116.475313 
L 513.535011 -116.475313 
L 516.353282 -116.475313 
L 519.171553 -116.475313 
L 521.989825 -116.475313 
L 524.808096 -116.475313 
L 527.626367 -116.475313 
L 530.444639 -116.475313 
L 533.26291 -116.475313 
L 536.081181 -116.475313 
L 538.899453 -116.475313 
L 541.717724 -116.475313 
L 544.535995 -116.475313 
L 547.354267 -116.475313 
L 550.172538 -116.475313 
L 552.99081 -116.475313 
L 555.809081 -116.475313 
L 558.627352 -116.475313 
L 561.445624 -116.475313 
L 564.263895 -116.475313 
L 567.082166 -116.475313 
L 569.900438 -116.475313 
L 572.718709 -116.475313 
L 575.53698 -116.475313 
L 578.355252 -116.475313 
L 581.173523 -116.475313 
L 583.991794 -116.475313 
L 586.810066 -116.475313 
L 589.628337 -116.475313 
L 592.446609 -116.475313 
L 595.26488 -116.475313 
L 598.083151 -116.475313 
L 600.901423 -116.475313 
L 603.719694 -116.475313 
L 606.537965 -116.475313 
L 609.356237 -116.475313 
L 612.174508 -116.475313 
L 614.992779 -116.475313 
L 617.811051 -116.475313 
L 620.629322 -116.475313 
L 623.447593 -116.475313 
L 626.265865 -116.475313 
L 629.084136 -116.475313 
L 631.902408 -116.475313 
L 634.720679 -116.475313 
L 637.53895 -116.475313 
L 640.357222 -116.475313 
L 643.175493 -116.475313 
L 645.993764 -116.475313 
L 648.812036 -116.475313 
L 651.630307 -116.475313 
L 654.448578 -116.475313 
L 657.26685 -116.475313 
L 660.085121 -116.475313 
L 662.903392 -116.475313 
L 665.721664 -116.475313 
L 668.539935 -116.475313 
L 671.358207 -116.475313 
L 674.176478 -116.475313 
L 676.994749 -116.475313 
L 679.813021 -116.475313 
L 682.631292 -116.475313 
L 685.449563 -116.475313 
L 688.267835 -116.475313 
L 691.086106 -116.475313 
L 693.904377 -116.475313 
L 696.722649 -116.475313 
L 699.54092 -116.475313 
L 702.359191 -116.475313 
L 705.177463 -116.475313 
L 707.995734 -116.475313 
L 710.814006 -116.475313 
L 713.632277 -116.475313 
L 716.450548 -116.475313 
L 719.26882 -116.475313 
L 722.087091 -116.475313 
L 724.905362 -116.475313 
L 727.723634 -116.475313 
L 730.541905 -116.475313 
L 730.541905 -131.603304 
L 730.541905 -131.603304 
L 727.723634 -132.258949 
L 724.905362 -132.909335 
L 722.087091 -133.552252 
L 719.26882 -134.185576 
L 716.450548 -134.807291 
L 713.632277 -135.415517 
L 710.814006 -136.008527 
L 707.995734 -136.58477 
L 705.177463 -137.142884 
L 702.359191 -137.681713 
L 699.54092 -138.200313 
L 696.722649 -138.697959 
L 693.904377 -139.17415 
L 691.086106 -139.628606 
L 688.267835 -140.061262 
L 685.449563 -140.472264 
L 682.631292 -140.861956 
L 679.813021 -141.230868 
L 676.994749 -141.579702 
L 674.176478 -141.909314 
L 671.358207 -142.220699 
L 668.539935 -142.514974 
L 665.721664 -142.793358 
L 662.903392 -143.057158 
L 660.085121 -143.307756 
L 657.26685 -143.546589 
L 654.448578 -143.775145 
L 651.630307 -143.994948 
L 648.812036 -144.207553 
L 645.993764 -144.414543 
L 643.175493 -144.617521 
L 640.357222 -144.818113 
L 637.53895 -145.01797 
L 634.720679 -145.218764 
L 631.902408 -145.422197 
L 629.084136 -145.63 
L 626.265865 -145.843936 
L 623.447593 -146.065802 
L 620.629322 -146.29743 
L 617.811051 -146.540684 
L 614.992779 -146.797454 
L 612.174508 -147.069654 
L 609.356237 -147.359208 
L 606.537965 -147.668035 
L 603.719694 -147.998039 
L 600.901423 -148.351082 
L 598.083151 -148.728967 
L 595.26488 -149.13341 
L 592.446609 -149.566012 
L 589.628337 -150.028233 
L 586.810066 -150.521359 
L 583.991794 -151.046473 
L 581.173523 -151.604426 
L 578.355252 -152.195805 
L 575.53698 -152.820913 
L 572.718709 -153.479739 
L 569.900438 -154.171941 
L 567.082166 -154.896829 
L 564.263895 -155.653355 
L 561.445624 -156.440104 
L 558.627352 -157.255297 
L 555.809081 -158.09679 
L 552.99081 -158.962091 
L 550.172538 -159.84837 
L 547.354267 -160.752484 
L 544.535995 -161.670998 
L 541.717724 -162.60022 
L 538.899453 -163.536233 
L 536.081181 -164.474932 
L 533.26291 -165.412062 
L 530.444639 -166.34326 
L 527.626367 -167.2641 
L 524.808096 -168.170128 
L 521.989825 -169.056907 
L 519.171553 -169.920058 
L 516.353282 -170.755293 
L 513.535011 -171.558453 
L 510.716739 -172.325535 
L 507.898468 -173.052728 
L 505.080196 -173.736426 
L 502.261925 -174.373258 
L 499.443654 -174.960098 
L 496.625382 -175.49408 
L 493.807111 -175.972609 
L 490.98884 -176.39336 
L 488.170568 -176.75429 
L 485.352297 -177.053631 
L 482.534026 -177.289893 
L 479.715754 -177.461858 
L 476.897483 -177.568579 
L 474.079212 -177.609375 
L 471.26094 -177.583824 
L 468.442669 -177.491765 
L 465.624397 -177.333287 
L 462.806126 -177.108733 
L 459.987855 -176.818697 
L 457.169583 -176.464019 
L 454.351312 -176.045794 
L 451.533041 -175.565366 
L 448.714769 -175.024335 
L 445.896498 -174.424554 
L 443.078227 -173.76814 
L 440.259955 -173.057469 
L 437.441684 -172.295177 
L 434.623413 -171.484168 
L 431.805141 -170.627603 
L 428.98687 -169.728903 
L 426.168598 -168.791738 
L 423.350327 -167.820023 
L 420.532056 -166.817903 
L 417.713784 -165.78974 
L 414.895513 -164.740092 
L 412.077242 -163.673695 
L 409.25897 -162.595435 
L 406.440699 -161.510324 
L 403.622428 -160.423463 
L 400.804156 -159.340015 
L 397.985885 -158.265167 
L 395.167614 -157.204088 
L 392.349342 -156.161898 
L 389.531071 -155.143619 
L 386.712799 -154.154142 
L 383.894528 -153.19818 
L 381.076257 -152.280232 
L 378.257985 -151.40454 
L 375.439714 -150.575055 
L 372.621443 -149.795395 
L 369.803171 -149.068818 
L 366.9849 -148.398183 
L 364.166629 -147.785931 
L 361.348357 -147.234052 
L 358.530086 -146.744069 
L 355.711815 -146.31702 
L 352.893543 -145.953446 
L 350.075272 -145.653385 
L 347.257 -145.416366 
L 344.438729 -145.241415 
L 341.620458 -145.12706 
L 338.802186 -145.071346 
L 335.983915 -145.071852 
L 333.165644 -145.125713 
L 330.347372 -145.229653 
L 327.529101 -145.380013 
L 324.71083 -145.572792 
L 321.892558 -145.803692 
L 319.074287 -146.068157 
L 316.256016 -146.361431 
L 313.437744 -146.678603 
L 310.619473 -147.014667 
L 307.801201 -147.364576 
L 304.98293 -147.723296 
L 302.164659 -148.085865 
L 299.346387 -148.447445 
L 296.528116 -148.803378 
L 293.709845 -149.149229 
L 290.891573 -149.480838 
L 288.073302 -149.794354 
L 285.255031 -150.086276 
L 282.436759 -150.353476 
L 279.618488 -150.593226 
L 276.800217 -150.803206 
L 273.981945 -150.981519 
L 271.163674 -151.126686 
L 268.345402 -151.237639 
L 265.527131 -151.313706 
L 262.70886 -151.354592 
L 259.890588 -151.360349 
L 257.072317 -151.331344 
L 254.254046 -151.26822 
L 251.435774 -151.171859 
L 248.617503 -151.043332 
L 245.799232 -150.883859 
L 242.98096 -150.694764 
L 240.162689 -150.477424 
L 237.344418 -150.233237 
L 234.526146 -149.963571 
L 231.707875 -149.669738 
L 228.889603 -149.352958 
L 226.071332 -149.014333 
L 223.253061 -148.654834 
L 220.434789 -148.275278 
L 217.616518 -147.876331 
L 214.798247 -147.458501 
L 211.979975 -147.022147 
L 209.161704 -146.567491 
L 206.343433 -146.094636 
L 203.525161 -145.603585 
L 200.70689 -145.09427 
L 197.888619 -144.566578 
L 195.070347 -144.020386 
L 192.252076 -143.455588 
L 189.433804 -142.872132 
L 186.615533 -142.270048 
L 183.797262 -141.649476 
L 180.97899 -141.010696 
L 178.160719 -140.35415 
L 175.342448 -139.680457 
L 172.524176 -138.990434 
L 169.705905 -138.285097 
z
" style="stroke: #66c2a5"/>
    </defs>
    <g clip-path="url(#p73272092e5)">
     <use xlink:href="#m2f61f535ff" x="0" y="212.255313" style="fill: #66c2a5; fill-opacity: 0.5; stroke: #66c2a5"/>
    </g>
   </g>
   <g id="matplotlib.axis_1">
    <g id="xtick_1">
     <g id="line2d_1">
      <defs>
       <path id="mb285f50280" d="M 0 0 
L 0 3.5 
" style="stroke: #000000; stroke-width: 0.8"/>
      </defs>
      <g>
       <use xlink:href="#mb285f50280" x="169.705905" y="95.78" style="stroke: #000000; stroke-width: 0.8"/>
      </g>
     </g>
    </g>
    <g id="xtick_2">
     <g id="line2d_2">
      <g>
       <use xlink:href="#mb285f50280" x="281.873105" y="95.78" style="stroke: #000000; stroke-width: 0.8"/>
      </g>
     </g>
    </g>
    <g id="xtick_3">
     <g id="line2d_3">
      <g>
       <use xlink:href="#mb285f50280" x="394.040305" y="95.78" style="stroke: #000000; stroke-width: 0.8"/>
      </g>
     </g>
    </g>
    <g id="xtick_4">
     <g id="line2d_4">
      <g>
       <use xlink:href="#mb285f50280" x="506.207505" y="95.78" style="stroke: #000000; stroke-width: 0.8"/>
      </g>
     </g>
    </g>
    <g id="xtick_5">
     <g id="line2d_5">
      <g>
       <use xlink:href="#mb285f50280" x="618.374705" y="95.78" style="stroke: #000000; stroke-width: 0.8"/>
      </g>
     </g>
    </g>
    <g id="xtick_6">
     <g id="line2d_6">
      <g>
       <use xlink:href="#mb285f50280" x="730.541905" y="95.78" style="stroke: #000000; stroke-width: 0.8"/>
      </g>
     </g>
    </g>
   </g>
   <g id="matplotlib.axis_2"/>
   <g id="line2d_7">
    <path d="M 169.705905 73.970216 
L 180.97899 71.244616 
L 192.252076 68.799724 
L 203.525161 66.651727 
L 214.798247 64.796812 
L 223.253061 63.600479 
L 231.707875 62.585574 
L 240.162689 61.777888 
L 248.617503 61.211981 
L 257.072317 60.923969 
L 265.527131 60.941607 
L 273.981945 61.273793 
L 282.436759 61.901836 
L 290.891573 62.774475 
L 304.98293 64.532017 
L 316.256016 65.893882 
L 324.71083 66.68252 
L 330.347372 67.02566 
L 335.983915 67.183461 
L 341.620458 67.128252 
L 347.257 66.838946 
L 352.893543 66.301866 
L 358.530086 65.511244 
L 364.166629 64.469381 
L 369.803171 63.186495 
L 375.439714 61.680258 
L 381.076257 59.975081 
L 389.531071 57.111694 
L 397.985885 53.990146 
L 423.350327 44.43529 
L 431.805141 41.627709 
L 437.441684 39.960135 
L 443.078227 38.487172 
L 448.714769 37.230978 
L 454.351312 36.209518 
L 459.987855 35.436616 
L 465.624397 34.922025 
L 471.26094 34.671488 
L 476.897483 34.686733 
L 482.534026 34.965419 
L 488.170568 35.501022 
L 493.807111 36.282704 
L 499.443654 37.295215 
L 505.080196 38.518886 
L 510.716739 39.929777 
L 519.171553 42.335255 
L 527.626367 44.991213 
L 555.809081 54.158523 
L 564.263895 56.601958 
L 572.718709 58.775573 
L 581.173523 60.650887 
L 589.628337 62.227079 
L 598.083151 63.526346 
L 606.537965 64.587277 
L 617.811051 65.714629 
L 631.902408 66.833115 
L 660.085121 68.947557 
L 671.358207 70.034613 
L 679.813021 71.024444 
L 688.267835 72.19405 
L 696.722649 73.557354 
L 705.177463 75.112428 
L 716.450548 77.448021 
L 730.541905 80.652008 
L 730.541905 80.652008 
" clip-path="url(#p73272092e5)" style="fill: none; stroke: #ffffff; stroke-width: 2; stroke-linecap: square"/>
   </g>
   <g id="line2d_8">
    <path d="M 169.705905 95.78 
L 730.541905 95.78 
" style="fill: none; stroke: #000000; stroke-linecap: square"/>
   </g>
   <g id="text_1">
    <g id="patch_3">
     <path d="M 5.191875 105.200937 
L 114.778125 105.200937 
L 114.778125 86.359062 
L 5.191875 86.359062 
z
" style="fill: #ffffff; opacity: 0.5"/>
    </g>
    <!-- Quantum Computing -->
    <g transform="translate(9.151875 98.651562) scale(0.12 -0.12)">
     <defs>
      <path id="TimesNewRomanPSMT-51" d="M 2819 -47 
Q 3138 -597 3508 -856 
Q 3878 -1116 4350 -1153 
L 4350 -1253 
Q 3919 -1238 3428 -1080 
Q 2938 -922 2498 -642 
Q 2059 -363 1741 -47 
Q 1291 134 1028 338 
Q 647 641 436 1083 
Q 225 1525 225 2128 
Q 225 3078 840 3706 
Q 1456 4334 2331 4334 
Q 3163 4334 3770 3704 
Q 4378 3075 4378 2116 
Q 4378 1338 3945 750 
Q 3513 163 2819 -47 
z
M 2294 4094 
Q 1725 4094 1378 3688 
Q 941 3178 941 2128 
Q 941 1100 1384 544 
Q 1728 116 2294 116 
Q 2881 116 3241 544 
Q 3663 1050 3663 2038 
Q 3663 2797 3431 3316 
Q 3253 3716 2958 3905 
Q 2663 4094 2294 4094 
z
" transform="scale(0.015625)"/>
      <path id="TimesNewRomanPSMT-75" d="M 2709 2863 
L 2709 1128 
Q 2709 631 2732 520 
Q 2756 409 2807 365 
Q 2859 322 2928 322 
Q 3025 322 3147 375 
L 3191 266 
L 2334 -88 
L 2194 -88 
L 2194 519 
Q 1825 119 1631 15 
Q 1438 -88 1222 -88 
Q 981 -88 804 51 
Q 628 191 559 409 
Q 491 628 491 1028 
L 491 2306 
Q 491 2509 447 2587 
Q 403 2666 317 2708 
Q 231 2750 6 2747 
L 6 2863 
L 1009 2863 
L 1009 947 
Q 1009 547 1148 422 
Q 1288 297 1484 297 
Q 1619 297 1789 381 
Q 1959 466 2194 703 
L 2194 2325 
Q 2194 2569 2105 2655 
Q 2016 2741 1734 2747 
L 1734 2863 
L 2709 2863 
z
" transform="scale(0.015625)"/>
      <path id="TimesNewRomanPSMT-61" d="M 1822 413 
Q 1381 72 1269 19 
Q 1100 -59 909 -59 
Q 613 -59 420 144 
Q 228 347 228 678 
Q 228 888 322 1041 
Q 450 1253 767 1440 
Q 1084 1628 1822 1897 
L 1822 2009 
Q 1822 2438 1686 2597 
Q 1550 2756 1291 2756 
Q 1094 2756 978 2650 
Q 859 2544 859 2406 
L 866 2225 
Q 866 2081 792 2003 
Q 719 1925 600 1925 
Q 484 1925 411 2006 
Q 338 2088 338 2228 
Q 338 2497 613 2722 
Q 888 2947 1384 2947 
Q 1766 2947 2009 2819 
Q 2194 2722 2281 2516 
Q 2338 2381 2338 1966 
L 2338 994 
Q 2338 584 2353 492 
Q 2369 400 2405 369 
Q 2441 338 2488 338 
Q 2538 338 2575 359 
Q 2641 400 2828 588 
L 2828 413 
Q 2478 -56 2159 -56 
Q 2006 -56 1915 50 
Q 1825 156 1822 413 
z
M 1822 616 
L 1822 1706 
Q 1350 1519 1213 1441 
Q 966 1303 859 1153 
Q 753 1003 753 825 
Q 753 600 887 451 
Q 1022 303 1197 303 
Q 1434 303 1822 616 
z
" transform="scale(0.015625)"/>
      <path id="TimesNewRomanPSMT-6e" d="M 1034 2341 
Q 1538 2947 1994 2947 
Q 2228 2947 2397 2830 
Q 2566 2713 2666 2444 
Q 2734 2256 2734 1869 
L 2734 647 
Q 2734 375 2778 278 
Q 2813 200 2889 156 
Q 2966 113 3172 113 
L 3172 0 
L 1756 0 
L 1756 113 
L 1816 113 
Q 2016 113 2095 173 
Q 2175 234 2206 353 
Q 2219 400 2219 647 
L 2219 1819 
Q 2219 2209 2117 2386 
Q 2016 2563 1775 2563 
Q 1403 2563 1034 2156 
L 1034 647 
Q 1034 356 1069 288 
Q 1113 197 1189 155 
Q 1266 113 1500 113 
L 1500 0 
L 84 0 
L 84 113 
L 147 113 
Q 366 113 442 223 
Q 519 334 519 647 
L 519 1709 
Q 519 2225 495 2337 
Q 472 2450 423 2490 
Q 375 2531 294 2531 
Q 206 2531 84 2484 
L 38 2597 
L 900 2947 
L 1034 2947 
L 1034 2341 
z
" transform="scale(0.015625)"/>
      <path id="TimesNewRomanPSMT-74" d="M 1031 3803 
L 1031 2863 
L 1700 2863 
L 1700 2644 
L 1031 2644 
L 1031 788 
Q 1031 509 1111 412 
Q 1191 316 1316 316 
Q 1419 316 1516 380 
Q 1613 444 1666 569 
L 1788 569 
Q 1678 263 1478 108 
Q 1278 -47 1066 -47 
Q 922 -47 784 33 
Q 647 113 581 261 
Q 516 409 516 719 
L 516 2644 
L 63 2644 
L 63 2747 
Q 234 2816 414 2980 
Q 594 3144 734 3369 
Q 806 3488 934 3803 
L 1031 3803 
z
" transform="scale(0.015625)"/>
      <path id="TimesNewRomanPSMT-6d" d="M 1050 2338 
Q 1363 2650 1419 2697 
Q 1559 2816 1721 2881 
Q 1884 2947 2044 2947 
Q 2313 2947 2506 2790 
Q 2700 2634 2766 2338 
Q 3088 2713 3309 2830 
Q 3531 2947 3766 2947 
Q 3994 2947 4170 2830 
Q 4347 2713 4450 2447 
Q 4519 2266 4519 1878 
L 4519 647 
Q 4519 378 4559 278 
Q 4591 209 4675 161 
Q 4759 113 4950 113 
L 4950 0 
L 3538 0 
L 3538 113 
L 3597 113 
Q 3781 113 3884 184 
Q 3956 234 3988 344 
Q 4000 397 4000 647 
L 4000 1878 
Q 4000 2228 3916 2372 
Q 3794 2572 3525 2572 
Q 3359 2572 3192 2489 
Q 3025 2406 2788 2181 
L 2781 2147 
L 2788 2013 
L 2788 647 
Q 2788 353 2820 281 
Q 2853 209 2943 161 
Q 3034 113 3253 113 
L 3253 0 
L 1806 0 
L 1806 113 
Q 2044 113 2133 169 
Q 2222 225 2256 338 
Q 2272 391 2272 647 
L 2272 1878 
Q 2272 2228 2169 2381 
Q 2031 2581 1784 2581 
Q 1616 2581 1450 2491 
Q 1191 2353 1050 2181 
L 1050 647 
Q 1050 366 1089 281 
Q 1128 197 1204 155 
Q 1281 113 1516 113 
L 1516 0 
L 100 0 
L 100 113 
Q 297 113 375 155 
Q 453 197 493 289 
Q 534 381 534 647 
L 534 1741 
Q 534 2213 506 2350 
Q 484 2453 437 2492 
Q 391 2531 309 2531 
Q 222 2531 100 2484 
L 53 2597 
L 916 2947 
L 1050 2947 
L 1050 2338 
z
" transform="scale(0.015625)"/>
      <path id="TimesNewRomanPSMT-20" transform="scale(0.015625)"/>
      <path id="TimesNewRomanPSMT-43" d="M 3853 4334 
L 3950 2894 
L 3853 2894 
Q 3659 3541 3300 3825 
Q 2941 4109 2438 4109 
Q 2016 4109 1675 3895 
Q 1334 3681 1139 3212 
Q 944 2744 944 2047 
Q 944 1472 1128 1050 
Q 1313 628 1683 403 
Q 2053 178 2528 178 
Q 2941 178 3256 354 
Q 3572 531 3950 1056 
L 4047 994 
Q 3728 428 3303 165 
Q 2878 -97 2294 -97 
Q 1241 -97 663 684 
Q 231 1266 231 2053 
Q 231 2688 515 3219 
Q 800 3750 1298 4042 
Q 1797 4334 2388 4334 
Q 2847 4334 3294 4109 
Q 3425 4041 3481 4041 
Q 3566 4041 3628 4100 
Q 3709 4184 3744 4334 
L 3853 4334 
z
" transform="scale(0.015625)"/>
      <path id="TimesNewRomanPSMT-6f" d="M 1600 2947 
Q 2250 2947 2644 2453 
Q 2978 2031 2978 1484 
Q 2978 1100 2793 706 
Q 2609 313 2286 112 
Q 1963 -88 1566 -88 
Q 919 -88 538 428 
Q 216 863 216 1403 
Q 216 1797 411 2186 
Q 606 2575 925 2761 
Q 1244 2947 1600 2947 
z
M 1503 2744 
Q 1338 2744 1170 2645 
Q 1003 2547 900 2300 
Q 797 2053 797 1666 
Q 797 1041 1045 587 
Q 1294 134 1700 134 
Q 2003 134 2200 384 
Q 2397 634 2397 1244 
Q 2397 2006 2069 2444 
Q 1847 2744 1503 2744 
z
" transform="scale(0.015625)"/>
      <path id="TimesNewRomanPSMT-70" d="M -6 2578 
L 875 2934 
L 994 2934 
L 994 2266 
Q 1216 2644 1439 2795 
Q 1663 2947 1909 2947 
Q 2341 2947 2628 2609 
Q 2981 2197 2981 1534 
Q 2981 794 2556 309 
Q 2206 -88 1675 -88 
Q 1444 -88 1275 -22 
Q 1150 25 994 166 
L 994 -706 
Q 994 -1000 1030 -1079 
Q 1066 -1159 1155 -1206 
Q 1244 -1253 1478 -1253 
L 1478 -1369 
L -22 -1369 
L -22 -1253 
L 56 -1253 
Q 228 -1256 350 -1188 
Q 409 -1153 442 -1076 
Q 475 -1000 475 -688 
L 475 2019 
Q 475 2297 450 2372 
Q 425 2447 370 2484 
Q 316 2522 222 2522 
Q 147 2522 31 2478 
L -6 2578 
z
M 994 2081 
L 994 1013 
Q 994 666 1022 556 
Q 1066 375 1236 237 
Q 1406 100 1666 100 
Q 1978 100 2172 344 
Q 2425 663 2425 1241 
Q 2425 1897 2138 2250 
Q 1938 2494 1663 2494 
Q 1513 2494 1366 2419 
Q 1253 2363 994 2081 
z
" transform="scale(0.015625)"/>
      <path id="TimesNewRomanPSMT-69" d="M 928 4444 
Q 1059 4444 1151 4351 
Q 1244 4259 1244 4128 
Q 1244 3997 1151 3903 
Q 1059 3809 928 3809 
Q 797 3809 703 3903 
Q 609 3997 609 4128 
Q 609 4259 701 4351 
Q 794 4444 928 4444 
z
M 1188 2947 
L 1188 647 
Q 1188 378 1227 289 
Q 1266 200 1342 156 
Q 1419 113 1622 113 
L 1622 0 
L 231 0 
L 231 113 
Q 441 113 512 153 
Q 584 194 626 287 
Q 669 381 669 647 
L 669 1750 
Q 669 2216 641 2353 
Q 619 2453 572 2492 
Q 525 2531 444 2531 
Q 356 2531 231 2484 
L 188 2597 
L 1050 2947 
L 1188 2947 
z
" transform="scale(0.015625)"/>
      <path id="TimesNewRomanPSMT-67" d="M 966 1044 
Q 703 1172 562 1401 
Q 422 1631 422 1909 
Q 422 2334 742 2640 
Q 1063 2947 1563 2947 
Q 1972 2947 2272 2747 
L 2878 2747 
Q 3013 2747 3034 2739 
Q 3056 2731 3066 2713 
Q 3084 2684 3084 2613 
Q 3084 2531 3069 2500 
Q 3059 2484 3036 2475 
Q 3013 2466 2878 2466 
L 2506 2466 
Q 2681 2241 2681 1891 
Q 2681 1491 2375 1206 
Q 2069 922 1553 922 
Q 1341 922 1119 984 
Q 981 866 932 777 
Q 884 688 884 625 
Q 884 572 936 522 
Q 988 472 1138 450 
Q 1225 438 1575 428 
Q 2219 413 2409 384 
Q 2700 344 2873 169 
Q 3047 -6 3047 -263 
Q 3047 -616 2716 -925 
Q 2228 -1381 1444 -1381 
Q 841 -1381 425 -1109 
Q 191 -953 191 -784 
Q 191 -709 225 -634 
Q 278 -519 444 -313 
Q 466 -284 763 25 
Q 600 122 533 198 
Q 466 275 466 372 
Q 466 481 555 628 
Q 644 775 966 1044 
z
M 1509 2797 
Q 1278 2797 1122 2612 
Q 966 2428 966 2047 
Q 966 1553 1178 1281 
Q 1341 1075 1591 1075 
Q 1828 1075 1981 1253 
Q 2134 1431 2134 1813 
Q 2134 2309 1919 2591 
Q 1759 2797 1509 2797 
z
M 934 0 
Q 788 -159 713 -296 
Q 638 -434 638 -550 
Q 638 -700 819 -813 
Q 1131 -1006 1722 -1006 
Q 2284 -1006 2551 -807 
Q 2819 -609 2819 -384 
Q 2819 -222 2659 -153 
Q 2497 -84 2016 -72 
Q 1313 -53 934 0 
z
" transform="scale(0.015625)"/>
     </defs>
     <use xlink:href="#TimesNewRomanPSMT-51"/>
     <use xlink:href="#TimesNewRomanPSMT-75" transform="translate(72.216797 0)"/>
     <use xlink:href="#TimesNewRomanPSMT-61" transform="translate(122.216797 0)"/>
     <use xlink:href="#TimesNewRomanPSMT-6e" transform="translate(166.601562 0)"/>
     <use xlink:href="#TimesNewRomanPSMT-74" transform="translate(216.601562 0)"/>
     <use xlink:href="#TimesNewRomanPSMT-75" transform="translate(244.384766 0)"/>
     <use xlink:href="#TimesNewRomanPSMT-6d" transform="translate(294.384766 0)"/>
     <use xlink:href="#TimesNewRomanPSMT-20" transform="translate(372.167969 0)"/>
     <use xlink:href="#TimesNewRomanPSMT-43" transform="translate(397.167969 0)"/>
     <use xlink:href="#TimesNewRomanPSMT-6f" transform="translate(463.867188 0)"/>
     <use xlink:href="#TimesNewRomanPSMT-6d" transform="translate(513.867188 0)"/>
     <use xlink:href="#TimesNewRomanPSMT-70" transform="translate(591.650391 0)"/>
     <use xlink:href="#TimesNewRomanPSMT-75" transform="translate(641.650391 0)"/>
     <use xlink:href="#TimesNewRomanPSMT-74" transform="translate(691.650391 0)"/>
     <use xlink:href="#TimesNewRomanPSMT-69" transform="translate(719.433594 0)"/>
     <use xlink:href="#TimesNewRomanPSMT-6e" transform="translate(747.216797 0)"/>
     <use xlink:href="#TimesNewRomanPSMT-67" transform="translate(797.216797 0)"/>
    </g>
   </g>
  </g>
  <g id="axes_2">
   <g id="patch_4">
    <path d="M 169.705905 133.11 
L 730.541905 133.11 
L 730.541905 58.45 
L 169.705905 58.45 
L 169.705905 133.11 
z
" style="fill: none; opacity: 0"/>
   </g>
   <g id="FillBetweenPolyCollection_2">
    <defs>
     <path id="mf836d72ebd" d="M 169.705905 -93.126025 
L 169.705905 -79.145313 
L 172.524176 -79.145313 
L 175.342448 -79.145313 
L 178.160719 -79.145313 
L 180.97899 -79.145313 
L 183.797262 -79.145313 
L 186.615533 -79.145313 
L 189.433804 -79.145313 
L 192.252076 -79.145313 
L 195.070347 -79.145313 
L 197.888619 -79.145313 
L 200.70689 -79.145313 
L 203.525161 -79.145313 
L 206.343433 -79.145313 
L 209.161704 -79.145313 
L 211.979975 -79.145313 
L 214.798247 -79.145313 
L 217.616518 -79.145313 
L 220.434789 -79.145313 
L 223.253061 -79.145313 
L 226.071332 -79.145313 
L 228.889603 -79.145313 
L 231.707875 -79.145313 
L 234.526146 -79.145313 
L 237.344418 -79.145313 
L 240.162689 -79.145313 
L 242.98096 -79.145313 
L 245.799232 -79.145313 
L 248.617503 -79.145313 
L 251.435774 -79.145313 
L 254.254046 -79.145313 
L 257.072317 -79.145313 
L 259.890588 -79.145313 
L 262.70886 -79.145313 
L 265.527131 -79.145313 
L 268.345402 -79.145313 
L 271.163674 -79.145313 
L 273.981945 -79.145313 
L 276.800217 -79.145313 
L 279.618488 -79.145313 
L 282.436759 -79.145313 
L 285.255031 -79.145313 
L 288.073302 -79.145313 
L 290.891573 -79.145313 
L 293.709845 -79.145313 
L 296.528116 -79.145313 
L 299.346387 -79.145313 
L 302.164659 -79.145313 
L 304.98293 -79.145313 
L 307.801201 -79.145313 
L 310.619473 -79.145313 
L 313.437744 -79.145313 
L 316.256016 -79.145313 
L 319.074287 -79.145313 
L 321.892558 -79.145313 
L 324.71083 -79.145313 
L 327.529101 -79.145313 
L 330.347372 -79.145313 
L 333.165644 -79.145313 
L 335.983915 -79.145313 
L 338.802186 -79.145313 
L 341.620458 -79.145313 
L 344.438729 -79.145313 
L 347.257 -79.145313 
L 350.075272 -79.145313 
L 352.893543 -79.145313 
L 355.711815 -79.145313 
L 358.530086 -79.145313 
L 361.348357 -79.145313 
L 364.166629 -79.145313 
L 366.9849 -79.145313 
L 369.803171 -79.145313 
L 372.621443 -79.145313 
L 375.439714 -79.145313 
L 378.257985 -79.145313 
L 381.076257 -79.145313 
L 383.894528 -79.145313 
L 386.712799 -79.145313 
L 389.531071 -79.145313 
L 392.349342 -79.145313 
L 395.167614 -79.145313 
L 397.985885 -79.145313 
L 400.804156 -79.145313 
L 403.622428 -79.145313 
L 406.440699 -79.145313 
L 409.25897 -79.145313 
L 412.077242 -79.145313 
L 414.895513 -79.145313 
L 417.713784 -79.145313 
L 420.532056 -79.145313 
L 423.350327 -79.145313 
L 426.168598 -79.145313 
L 428.98687 -79.145313 
L 431.805141 -79.145313 
L 434.623413 -79.145313 
L 437.441684 -79.145313 
L 440.259955 -79.145313 
L 443.078227 -79.145313 
L 445.896498 -79.145313 
L 448.714769 -79.145313 
L 451.533041 -79.145313 
L 454.351312 -79.145313 
L 457.169583 -79.145313 
L 459.987855 -79.145313 
L 462.806126 -79.145313 
L 465.624397 -79.145313 
L 468.442669 -79.145313 
L 471.26094 -79.145313 
L 474.079212 -79.145313 
L 476.897483 -79.145313 
L 479.715754 -79.145313 
L 482.534026 -79.145313 
L 485.352297 -79.145313 
L 488.170568 -79.145313 
L 490.98884 -79.145313 
L 493.807111 -79.145313 
L 496.625382 -79.145313 
L 499.443654 -79.145313 
L 502.261925 -79.145313 
L 505.080196 -79.145313 
L 507.898468 -79.145313 
L 510.716739 -79.145313 
L 513.535011 -79.145313 
L 516.353282 -79.145313 
L 519.171553 -79.145313 
L 521.989825 -79.145313 
L 524.808096 -79.145313 
L 527.626367 -79.145313 
L 530.444639 -79.145313 
L 533.26291 -79.145313 
L 536.081181 -79.145313 
L 538.899453 -79.145313 
L 541.717724 -79.145313 
L 544.535995 -79.145313 
L 547.354267 -79.145313 
L 550.172538 -79.145313 
L 552.99081 -79.145313 
L 555.809081 -79.145313 
L 558.627352 -79.145313 
L 561.445624 -79.145313 
L 564.263895 -79.145313 
L 567.082166 -79.145313 
L 569.900438 -79.145313 
L 572.718709 -79.145313 
L 575.53698 -79.145313 
L 578.355252 -79.145313 
L 581.173523 -79.145313 
L 583.991794 -79.145313 
L 586.810066 -79.145313 
L 589.628337 -79.145313 
L 592.446609 -79.145313 
L 595.26488 -79.145313 
L 598.083151 -79.145313 
L 600.901423 -79.145313 
L 603.719694 -79.145313 
L 606.537965 -79.145313 
L 609.356237 -79.145313 
L 612.174508 -79.145313 
L 614.992779 -79.145313 
L 617.811051 -79.145313 
L 620.629322 -79.145313 
L 623.447593 -79.145313 
L 626.265865 -79.145313 
L 629.084136 -79.145313 
L 631.902408 -79.145313 
L 634.720679 -79.145313 
L 637.53895 -79.145313 
L 640.357222 -79.145313 
L 643.175493 -79.145313 
L 645.993764 -79.145313 
L 648.812036 -79.145313 
L 651.630307 -79.145313 
L 654.448578 -79.145313 
L 657.26685 -79.145313 
L 660.085121 -79.145313 
L 662.903392 -79.145313 
L 665.721664 -79.145313 
L 668.539935 -79.145313 
L 671.358207 -79.145313 
L 674.176478 -79.145313 
L 676.994749 -79.145313 
L 679.813021 -79.145313 
L 682.631292 -79.145313 
L 685.449563 -79.145313 
L 688.267835 -79.145313 
L 691.086106 -79.145313 
L 693.904377 -79.145313 
L 696.722649 -79.145313 
L 699.54092 -79.145313 
L 702.359191 -79.145313 
L 705.177463 -79.145313 
L 707.995734 -79.145313 
L 710.814006 -79.145313 
L 713.632277 -79.145313 
L 716.450548 -79.145313 
L 719.26882 -79.145313 
L 722.087091 -79.145313 
L 724.905362 -79.145313 
L 727.723634 -79.145313 
L 730.541905 -79.145313 
L 730.541905 -86.636719 
L 730.541905 -86.636719 
L 727.723634 -87.033374 
L 724.905362 -87.449672 
L 722.087091 -87.88761 
L 719.26882 -88.349329 
L 716.450548 -88.837094 
L 713.632277 -89.353276 
L 710.814006 -89.900321 
L 707.995734 -90.48073 
L 705.177463 -91.097023 
L 702.359191 -91.751707 
L 699.54092 -92.447247 
L 696.722649 -93.186024 
L 693.904377 -93.970302 
L 691.086106 -94.802191 
L 688.267835 -95.683608 
L 685.449563 -96.616239 
L 682.631292 -97.601506 
L 679.813021 -98.640531 
L 676.994749 -99.7341 
L 674.176478 -100.882631 
L 671.358207 -102.086148 
L 668.539935 -103.344251 
L 665.721664 -104.656095 
L 662.903392 -106.02037 
L 660.085121 -107.435282 
L 657.26685 -108.898547 
L 654.448578 -110.407382 
L 651.630307 -111.958507 
L 648.812036 -113.548145 
L 645.993764 -115.172039 
L 643.175493 -116.825465 
L 640.357222 -118.503259 
L 637.53895 -120.199843 
L 634.720679 -121.909264 
L 631.902408 -123.625237 
L 629.084136 -125.341189 
L 626.265865 -127.050316 
L 623.447593 -128.745638 
L 620.629322 -130.420064 
L 617.811051 -132.06645 
L 614.992779 -133.677672 
L 612.174508 -135.24669 
L 609.356237 -136.766614 
L 606.537965 -138.230773 
L 603.719694 -139.632774 
L 600.901423 -140.966567 
L 598.083151 -142.226494 
L 595.26488 -143.407344 
L 592.446609 -144.504393 
L 589.628337 -145.513441 
L 586.810066 -146.430844 
L 583.991794 -147.25353 
L 581.173523 -147.979016 
L 578.355252 -148.605414 
L 575.53698 -149.131426 
L 572.718709 -149.556339 
L 569.900438 -149.880005 
L 567.082166 -150.102823 
L 564.263895 -150.225711 
L 561.445624 -150.250074 
L 558.627352 -150.177773 
L 555.809081 -150.011082 
L 552.99081 -149.752657 
L 550.172538 -149.405493 
L 547.354267 -148.972885 
L 544.535995 -148.458393 
L 541.717724 -147.865805 
L 538.899453 -147.1991 
L 536.081181 -146.462421 
L 533.26291 -145.660047 
L 530.444639 -144.796365 
L 527.626367 -143.875848 
L 524.808096 -142.903042 
L 521.989825 -141.882545 
L 519.171553 -140.819 
L 516.353282 -139.717082 
L 513.535011 -138.581495 
L 510.716739 -137.416965 
L 507.898468 -136.228237 
L 505.080196 -135.020079 
L 502.261925 -133.797272 
L 499.443654 -132.564619 
L 496.625382 -131.326938 
L 493.807111 -130.089063 
L 490.98884 -128.855841 
L 488.170568 -127.632126 
L 485.352297 -126.422775 
L 482.534026 -125.232638 
L 479.715754 -124.066544 
L 476.897483 -122.929287 
L 474.079212 -121.825607 
L 471.26094 -120.76017 
L 468.442669 -119.737538 
L 465.624397 -118.762144 
L 462.806126 -117.838257 
L 459.987855 -116.969948 
L 457.169583 -116.161051 
L 454.351312 -115.415123 
L 451.533041 -114.735401 
L 448.714769 -114.124763 
L 445.896498 -113.58568 
L 443.078227 -113.120177 
L 440.259955 -112.72979 
L 437.441684 -112.415531 
L 434.623413 -112.177849 
L 431.805141 -112.016603 
L 428.98687 -111.931034 
L 426.168598 -111.919748 
L 423.350327 -111.980701 
L 420.532056 -112.1112 
L 417.713784 -112.307898 
L 414.895513 -112.566816 
L 412.077242 -112.883357 
L 409.25897 -113.252341 
L 406.440699 -113.668046 
L 403.622428 -114.124251 
L 400.804156 -114.6143 
L 397.985885 -115.131167 
L 395.167614 -115.667526 
L 392.349342 -116.215835 
L 389.531071 -116.768419 
L 386.712799 -117.31756 
L 383.894528 -117.855593 
L 381.076257 -118.374996 
L 378.257985 -118.868487 
L 375.439714 -119.32912 
L 372.621443 -119.75037 
L 369.803171 -120.126222 
L 366.9849 -120.45125 
L 364.166629 -120.720691 
L 361.348357 -120.930506 
L 358.530086 -121.077433 
L 355.711815 -121.159032 
L 352.893543 -121.173709 
L 350.075272 -121.120742 
L 347.257 -121.000273 
L 344.438729 -120.81331 
L 341.620458 -120.561692 
L 338.802186 -120.248061 
L 335.983915 -119.875808 
L 333.165644 -119.44901 
L 330.347372 -118.972361 
L 327.529101 -118.451087 
L 324.71083 -117.890854 
L 321.892558 -117.297676 
L 319.074287 -116.677806 
L 316.256016 -116.037637 
L 313.437744 -115.38359 
L 310.619473 -114.722017 
L 307.801201 -114.059089 
L 304.98293 -113.40071 
L 302.164659 -112.752415 
L 299.346387 -112.119299 
L 296.528116 -111.505934 
L 293.709845 -110.916318 
L 290.891573 -110.353816 
L 288.073302 -109.82113 
L 285.255031 -109.320268 
L 282.436759 -108.852541 
L 279.618488 -108.418561 
L 276.800217 -108.018252 
L 273.981945 -107.650886 
L 271.163674 -107.315113 
L 268.345402 -107.009009 
L 265.527131 -106.730138 
L 262.70886 -106.475608 
L 259.890588 -106.242145 
L 257.072317 -106.026165 
L 254.254046 -105.823849 
L 251.435774 -105.63122 
L 248.617503 -105.444217 
L 245.799232 -105.258774 
L 242.98096 -105.070883 
L 240.162689 -104.876667 
L 237.344418 -104.672438 
L 234.526146 -104.45475 
L 231.707875 -104.220446 
L 228.889603 -103.966699 
L 226.071332 -103.691046 
L 223.253061 -103.391406 
L 220.434789 -103.066104 
L 217.616518 -102.713874 
L 214.798247 -102.333863 
L 211.979975 -101.925627 
L 209.161704 -101.489119 
L 206.343433 -101.024673 
L 203.525161 -100.532984 
L 200.70689 -100.015082 
L 197.888619 -99.472304 
L 195.070347 -98.906266 
L 192.252076 -98.318825 
L 189.433804 -97.712053 
L 186.615533 -97.088196 
L 183.797262 -96.449646 
L 180.97899 -95.798901 
L 178.160719 -95.138539 
L 175.342448 -94.471183 
L 172.524176 -93.79947 
L 169.705905 -93.126025 
z
" style="stroke: #fc8d62"/>
    </defs>
    <g clip-path="url(#pf8dd1b5243)">
     <use xlink:href="#mf836d72ebd" x="0" y="212.255313" style="fill: #fc8d62; fill-opacity: 0.5; stroke: #fc8d62"/>
    </g>
   </g>
   <g id="matplotlib.axis_3">
    <g id="xtick_7">
     <g id="line2d_9">
      <g>
       <use xlink:href="#mb285f50280" x="169.705905" y="133.11" style="stroke: #000000; stroke-width: 0.8"/>
      </g>
     </g>
    </g>
    <g id="xtick_8">
     <g id="line2d_10">
      <g>
       <use xlink:href="#mb285f50280" x="281.873105" y="133.11" style="stroke: #000000; stroke-width: 0.8"/>
      </g>
     </g>
    </g>
    <g id="xtick_9">
     <g id="line2d_11">
      <g>
       <use xlink:href="#mb285f50280" x="394.040305" y="133.11" style="stroke: #000000; stroke-width: 0.8"/>
      </g>
     </g>
    </g>
    <g id="xtick_10">
     <g id="line2d_12">
      <g>
       <use xlink:href="#mb285f50280" x="506.207505" y="133.11" style="stroke: #000000; stroke-width: 0.8"/>
      </g>
     </g>
    </g>
    <g id="xtick_11">
     <g id="line2d_13">
      <g>
       <use xlink:href="#mb285f50280" x="618.374705" y="133.11" style="stroke: #000000; stroke-width: 0.8"/>
      </g>
     </g>
    </g>
    <g id="xtick_12">
     <g id="line2d_14">
      <g>
       <use xlink:href="#mb285f50280" x="730.541905" y="133.11" style="stroke: #000000; stroke-width: 0.8"/>
      </g>
     </g>
    </g>
   </g>
   <g id="matplotlib.axis_4"/>
   <g id="line2d_15">
    <path d="M 169.705905 119.129287 
L 186.615533 115.167116 
L 197.888619 112.783008 
L 206.343433 111.230639 
L 214.798247 109.921449 
L 223.253061 108.863906 
L 231.707875 108.034867 
L 242.98096 107.18443 
L 262.70886 105.779705 
L 271.163674 104.9402 
L 279.618488 103.836752 
L 288.073302 102.434183 
L 296.528116 100.749378 
L 307.801201 98.196223 
L 321.892558 94.957636 
L 330.347372 93.282951 
L 335.983915 92.379504 
L 341.620458 91.69362 
L 347.257 91.255039 
L 352.893543 91.081603 
L 358.530086 91.177879 
L 364.166629 91.534621 
L 369.803171 92.129091 
L 375.439714 92.926192 
L 383.894528 94.39972 
L 403.622428 98.131062 
L 409.25897 99.002971 
L 414.895513 99.688497 
L 420.532056 100.144113 
L 426.168598 100.335565 
L 431.805141 100.23871 
L 437.441684 99.839782 
L 443.078227 99.135136 
L 448.714769 98.130549 
L 454.351312 96.84019 
L 459.987855 95.285364 
L 465.624397 93.493168 
L 471.26094 91.495142 
L 479.715754 88.188768 
L 488.170568 84.623187 
L 513.535011 73.673817 
L 521.989825 70.372767 
L 527.626367 68.379464 
L 533.26291 66.595265 
L 538.899453 65.056213 
L 544.535995 63.796919 
L 550.172538 62.84982 
L 555.809081 62.244231 
L 561.445624 62.005238 
L 567.082166 62.15249 
L 572.718709 62.698974 
L 578.355252 63.649899 
L 583.991794 65.001783 
L 589.628337 66.741871 
L 595.26488 68.847969 
L 600.901423 71.288746 
L 606.537965 74.02454 
L 612.174508 77.008623 
L 620.629322 81.835249 
L 631.902408 88.630076 
L 645.993764 97.083274 
L 654.448578 101.84793 
L 660.085121 104.820031 
L 665.721664 107.599217 
L 671.358207 110.169165 
L 676.994749 112.521213 
L 682.631292 114.653806 
L 688.267835 116.571705 
L 693.904377 118.28501 
L 699.54092 119.808066 
L 705.177463 121.15829 
L 713.632277 122.902037 
L 722.087091 124.367703 
L 730.541905 125.618593 
L 730.541905 125.618593 
" clip-path="url(#pf8dd1b5243)" style="fill: none; stroke: #ffffff; stroke-width: 2; stroke-linecap: square"/>
   </g>
   <g id="line2d_16">
    <path d="M 169.705905 133.11 
L 730.541905 133.11 
" style="fill: none; stroke: #000000; stroke-linecap: square"/>
   </g>
   <g id="text_2">
    <g id="patch_5">
     <path d="M 3.24 142.530938 
L 114.778125 142.530938 
L 114.778125 123.689063 
L 3.24 123.689063 
z
" style="fill: #ffffff; opacity: 0.5"/>
    </g>
    <!-- Artificial Intelligence -->
    <g transform="translate(7.2 135.981562) scale(0.12 -0.12)">
     <defs>
      <path id="TimesNewRomanPSMT-41" d="M 2928 1419 
L 1288 1419 
L 1000 750 
Q 894 503 894 381 
Q 894 284 986 211 
Q 1078 138 1384 116 
L 1384 0 
L 50 0 
L 50 116 
Q 316 163 394 238 
Q 553 388 747 847 
L 2238 4334 
L 2347 4334 
L 3822 809 
Q 4000 384 4145 257 
Q 4291 131 4550 116 
L 4550 0 
L 2878 0 
L 2878 116 
Q 3131 128 3220 200 
Q 3309 272 3309 375 
Q 3309 513 3184 809 
L 2928 1419 
z
M 2841 1650 
L 2122 3363 
L 1384 1650 
L 2841 1650 
z
" transform="scale(0.015625)"/>
      <path id="TimesNewRomanPSMT-72" d="M 1038 2947 
L 1038 2303 
Q 1397 2947 1775 2947 
Q 1947 2947 2059 2842 
Q 2172 2738 2172 2600 
Q 2172 2478 2090 2393 
Q 2009 2309 1897 2309 
Q 1788 2309 1652 2417 
Q 1516 2525 1450 2525 
Q 1394 2525 1328 2463 
Q 1188 2334 1038 2041 
L 1038 669 
Q 1038 431 1097 309 
Q 1138 225 1241 169 
Q 1344 113 1538 113 
L 1538 0 
L 72 0 
L 72 113 
Q 291 113 397 181 
Q 475 231 506 341 
Q 522 394 522 644 
L 522 1753 
Q 522 2253 501 2348 
Q 481 2444 426 2487 
Q 372 2531 291 2531 
Q 194 2531 72 2484 
L 41 2597 
L 906 2947 
L 1038 2947 
z
" transform="scale(0.015625)"/>
      <path id="TimesNewRomanPSMT-66" d="M 1319 2638 
L 1319 756 
Q 1319 356 1406 250 
Q 1522 113 1716 113 
L 1975 113 
L 1975 0 
L 266 0 
L 266 113 
L 394 113 
Q 519 113 622 175 
Q 725 238 764 344 
Q 803 450 803 756 
L 803 2638 
L 247 2638 
L 247 2863 
L 803 2863 
L 803 3050 
Q 803 3478 940 3775 
Q 1078 4072 1361 4255 
Q 1644 4438 1997 4438 
Q 2325 4438 2600 4225 
Q 2781 4084 2781 3909 
Q 2781 3816 2700 3733 
Q 2619 3650 2525 3650 
Q 2453 3650 2373 3701 
Q 2294 3753 2178 3923 
Q 2063 4094 1966 4153 
Q 1869 4213 1750 4213 
Q 1606 4213 1506 4136 
Q 1406 4059 1362 3898 
Q 1319 3738 1319 3069 
L 1319 2863 
L 2056 2863 
L 2056 2638 
L 1319 2638 
z
" transform="scale(0.015625)"/>
      <path id="TimesNewRomanPSMT-63" d="M 2631 1088 
Q 2516 522 2178 217 
Q 1841 -88 1431 -88 
Q 944 -88 581 321 
Q 219 731 219 1428 
Q 219 2103 620 2525 
Q 1022 2947 1584 2947 
Q 2006 2947 2278 2723 
Q 2550 2500 2550 2259 
Q 2550 2141 2473 2067 
Q 2397 1994 2259 1994 
Q 2075 1994 1981 2113 
Q 1928 2178 1911 2362 
Q 1894 2547 1784 2644 
Q 1675 2738 1481 2738 
Q 1169 2738 978 2506 
Q 725 2200 725 1697 
Q 725 1184 976 792 
Q 1228 400 1656 400 
Q 1963 400 2206 609 
Q 2378 753 2541 1131 
L 2631 1088 
z
" transform="scale(0.015625)"/>
      <path id="TimesNewRomanPSMT-6c" d="M 1184 4444 
L 1184 647 
Q 1184 378 1223 290 
Q 1263 203 1344 158 
Q 1425 113 1647 113 
L 1647 0 
L 244 0 
L 244 113 
Q 441 113 512 153 
Q 584 194 625 287 
Q 666 381 666 647 
L 666 3247 
Q 666 3731 644 3842 
Q 622 3953 573 3993 
Q 525 4034 450 4034 
Q 369 4034 244 3984 
L 191 4094 
L 1044 4444 
L 1184 4444 
z
" transform="scale(0.015625)"/>
      <path id="TimesNewRomanPSMT-49" d="M 1975 116 
L 1975 0 
L 159 0 
L 159 116 
L 309 116 
Q 572 116 691 269 
Q 766 369 766 750 
L 766 3488 
Q 766 3809 725 3913 
Q 694 3991 597 4047 
Q 459 4122 309 4122 
L 159 4122 
L 159 4238 
L 1975 4238 
L 1975 4122 
L 1822 4122 
Q 1563 4122 1444 3969 
Q 1366 3869 1366 3488 
L 1366 750 
Q 1366 428 1406 325 
Q 1438 247 1538 191 
Q 1672 116 1822 116 
L 1975 116 
z
" transform="scale(0.015625)"/>
      <path id="TimesNewRomanPSMT-65" d="M 681 1784 
Q 678 1147 991 784 
Q 1303 422 1725 422 
Q 2006 422 2214 576 
Q 2422 731 2563 1106 
L 2659 1044 
Q 2594 616 2278 264 
Q 1963 -88 1488 -88 
Q 972 -88 605 314 
Q 238 716 238 1394 
Q 238 2128 614 2539 
Q 991 2950 1559 2950 
Q 2041 2950 2350 2633 
Q 2659 2316 2659 1784 
L 681 1784 
z
M 681 1966 
L 2006 1966 
Q 1991 2241 1941 2353 
Q 1863 2528 1708 2628 
Q 1553 2728 1384 2728 
Q 1125 2728 920 2526 
Q 716 2325 681 1966 
z
" transform="scale(0.015625)"/>
     </defs>
     <use xlink:href="#TimesNewRomanPSMT-41"/>
     <use xlink:href="#TimesNewRomanPSMT-72" transform="translate(72.216797 0)"/>
     <use xlink:href="#TimesNewRomanPSMT-74" transform="translate(105.517578 0)"/>
     <use xlink:href="#TimesNewRomanPSMT-69" transform="translate(133.300781 0)"/>
     <use xlink:href="#TimesNewRomanPSMT-66" transform="translate(161.083984 0)"/>
     <use xlink:href="#TimesNewRomanPSMT-69" transform="translate(194.384766 0)"/>
     <use xlink:href="#TimesNewRomanPSMT-63" transform="translate(222.167969 0)"/>
     <use xlink:href="#TimesNewRomanPSMT-69" transform="translate(266.552734 0)"/>
     <use xlink:href="#TimesNewRomanPSMT-61" transform="translate(294.335938 0)"/>
     <use xlink:href="#TimesNewRomanPSMT-6c" transform="translate(338.720703 0)"/>
     <use xlink:href="#TimesNewRomanPSMT-20" transform="translate(366.503906 0)"/>
     <use xlink:href="#TimesNewRomanPSMT-49" transform="translate(391.503906 0)"/>
     <use xlink:href="#TimesNewRomanPSMT-6e" transform="translate(424.804688 0)"/>
     <use xlink:href="#TimesNewRomanPSMT-74" transform="translate(474.804688 0)"/>
     <use xlink:href="#TimesNewRomanPSMT-65" transform="translate(502.587891 0)"/>
     <use xlink:href="#TimesNewRomanPSMT-6c" transform="translate(546.972656 0)"/>
     <use xlink:href="#TimesNewRomanPSMT-6c" transform="translate(574.755859 0)"/>
     <use xlink:href="#TimesNewRomanPSMT-69" transform="translate(602.539062 0)"/>
     <use xlink:href="#TimesNewRomanPSMT-67" transform="translate(630.322266 0)"/>
     <use xlink:href="#TimesNewRomanPSMT-65" transform="translate(680.322266 0)"/>
     <use xlink:href="#TimesNewRomanPSMT-6e" transform="translate(724.707031 0)"/>
     <use xlink:href="#TimesNewRomanPSMT-63" transform="translate(774.707031 0)"/>
     <use xlink:href="#TimesNewRomanPSMT-65" transform="translate(819.091797 0)"/>
    </g>
   </g>
  </g>
  <g id="axes_3">
   <g id="patch_6">
    <path d="M 169.705905 170.44 
L 730.541905 170.44 
L 730.541905 95.78 
L 169.705905 95.78 
L 169.705905 170.44 
z
" style="fill: none; opacity: 0"/>
   </g>
   <g id="FillBetweenPolyCollection_3">
    <defs>
     <path id="m1e27da1827" d="M 169.705905 -54.733826 
L 169.705905 -41.815313 
L 172.524176 -41.815313 
L 175.342448 -41.815313 
L 178.160719 -41.815313 
L 180.97899 -41.815313 
L 183.797262 -41.815313 
L 186.615533 -41.815313 
L 189.433804 -41.815313 
L 192.252076 -41.815313 
L 195.070347 -41.815313 
L 197.888619 -41.815313 
L 200.70689 -41.815313 
L 203.525161 -41.815313 
L 206.343433 -41.815313 
L 209.161704 -41.815313 
L 211.979975 -41.815313 
L 214.798247 -41.815313 
L 217.616518 -41.815313 
L 220.434789 -41.815313 
L 223.253061 -41.815313 
L 226.071332 -41.815313 
L 228.889603 -41.815313 
L 231.707875 -41.815313 
L 234.526146 -41.815313 
L 237.344418 -41.815313 
L 240.162689 -41.815313 
L 242.98096 -41.815313 
L 245.799232 -41.815313 
L 248.617503 -41.815313 
L 251.435774 -41.815313 
L 254.254046 -41.815313 
L 257.072317 -41.815313 
L 259.890588 -41.815313 
L 262.70886 -41.815313 
L 265.527131 -41.815313 
L 268.345402 -41.815313 
L 271.163674 -41.815313 
L 273.981945 -41.815313 
L 276.800217 -41.815313 
L 279.618488 -41.815313 
L 282.436759 -41.815313 
L 285.255031 -41.815313 
L 288.073302 -41.815313 
L 290.891573 -41.815313 
L 293.709845 -41.815313 
L 296.528116 -41.815313 
L 299.346387 -41.815313 
L 302.164659 -41.815313 
L 304.98293 -41.815313 
L 307.801201 -41.815313 
L 310.619473 -41.815313 
L 313.437744 -41.815313 
L 316.256016 -41.815313 
L 319.074287 -41.815313 
L 321.892558 -41.815313 
L 324.71083 -41.815313 
L 327.529101 -41.815313 
L 330.347372 -41.815313 
L 333.165644 -41.815313 
L 335.983915 -41.815313 
L 338.802186 -41.815313 
L 341.620458 -41.815313 
L 344.438729 -41.815313 
L 347.257 -41.815313 
L 350.075272 -41.815313 
L 352.893543 -41.815313 
L 355.711815 -41.815313 
L 358.530086 -41.815313 
L 361.348357 -41.815313 
L 364.166629 -41.815313 
L 366.9849 -41.815313 
L 369.803171 -41.815313 
L 372.621443 -41.815313 
L 375.439714 -41.815313 
L 378.257985 -41.815313 
L 381.076257 -41.815313 
L 383.894528 -41.815313 
L 386.712799 -41.815313 
L 389.531071 -41.815313 
L 392.349342 -41.815313 
L 395.167614 -41.815313 
L 397.985885 -41.815313 
L 400.804156 -41.815313 
L 403.622428 -41.815313 
L 406.440699 -41.815313 
L 409.25897 -41.815313 
L 412.077242 -41.815313 
L 414.895513 -41.815313 
L 417.713784 -41.815313 
L 420.532056 -41.815313 
L 423.350327 -41.815313 
L 426.168598 -41.815313 
L 428.98687 -41.815313 
L 431.805141 -41.815313 
L 434.623413 -41.815313 
L 437.441684 -41.815313 
L 440.259955 -41.815313 
L 443.078227 -41.815313 
L 445.896498 -41.815313 
L 448.714769 -41.815313 
L 451.533041 -41.815313 
L 454.351312 -41.815313 
L 457.169583 -41.815313 
L 459.987855 -41.815313 
L 462.806126 -41.815313 
L 465.624397 -41.815313 
L 468.442669 -41.815313 
L 471.26094 -41.815313 
L 474.079212 -41.815313 
L 476.897483 -41.815313 
L 479.715754 -41.815313 
L 482.534026 -41.815313 
L 485.352297 -41.815313 
L 488.170568 -41.815313 
L 490.98884 -41.815313 
L 493.807111 -41.815313 
L 496.625382 -41.815313 
L 499.443654 -41.815313 
L 502.261925 -41.815313 
L 505.080196 -41.815313 
L 507.898468 -41.815313 
L 510.716739 -41.815313 
L 513.535011 -41.815313 
L 516.353282 -41.815313 
L 519.171553 -41.815313 
L 521.989825 -41.815313 
L 524.808096 -41.815313 
L 527.626367 -41.815313 
L 530.444639 -41.815313 
L 533.26291 -41.815313 
L 536.081181 -41.815313 
L 538.899453 -41.815313 
L 541.717724 -41.815313 
L 544.535995 -41.815313 
L 547.354267 -41.815313 
L 550.172538 -41.815313 
L 552.99081 -41.815313 
L 555.809081 -41.815313 
L 558.627352 -41.815313 
L 561.445624 -41.815313 
L 564.263895 -41.815313 
L 567.082166 -41.815313 
L 569.900438 -41.815313 
L 572.718709 -41.815313 
L 575.53698 -41.815313 
L 578.355252 -41.815313 
L 581.173523 -41.815313 
L 583.991794 -41.815313 
L 586.810066 -41.815313 
L 589.628337 -41.815313 
L 592.446609 -41.815313 
L 595.26488 -41.815313 
L 598.083151 -41.815313 
L 600.901423 -41.815313 
L 603.719694 -41.815313 
L 606.537965 -41.815313 
L 609.356237 -41.815313 
L 612.174508 -41.815313 
L 614.992779 -41.815313 
L 617.811051 -41.815313 
L 620.629322 -41.815313 
L 623.447593 -41.815313 
L 626.265865 -41.815313 
L 629.084136 -41.815313 
L 631.902408 -41.815313 
L 634.720679 -41.815313 
L 637.53895 -41.815313 
L 640.357222 -41.815313 
L 643.175493 -41.815313 
L 645.993764 -41.815313 
L 648.812036 -41.815313 
L 651.630307 -41.815313 
L 654.448578 -41.815313 
L 657.26685 -41.815313 
L 660.085121 -41.815313 
L 662.903392 -41.815313 
L 665.721664 -41.815313 
L 668.539935 -41.815313 
L 671.358207 -41.815313 
L 674.176478 -41.815313 
L 676.994749 -41.815313 
L 679.813021 -41.815313 
L 682.631292 -41.815313 
L 685.449563 -41.815313 
L 688.267835 -41.815313 
L 691.086106 -41.815313 
L 693.904377 -41.815313 
L 696.722649 -41.815313 
L 699.54092 -41.815313 
L 702.359191 -41.815313 
L 705.177463 -41.815313 
L 707.995734 -41.815313 
L 710.814006 -41.815313 
L 713.632277 -41.815313 
L 716.450548 -41.815313 
L 719.26882 -41.815313 
L 722.087091 -41.815313 
L 724.905362 -41.815313 
L 727.723634 -41.815313 
L 730.541905 -41.815313 
L 730.541905 -51.833337 
L 730.541905 -51.833337 
L 727.723634 -52.334768 
L 724.905362 -52.844937 
L 722.087091 -53.363386 
L 719.26882 -53.889667 
L 716.450548 -54.423339 
L 713.632277 -54.963965 
L 710.814006 -55.511113 
L 707.995734 -56.064355 
L 705.177463 -56.623261 
L 702.359191 -57.187405 
L 699.54092 -57.756359 
L 696.722649 -58.329701 
L 693.904377 -58.907008 
L 691.086106 -59.487868 
L 688.267835 -60.07188 
L 685.449563 -60.658664 
L 682.631292 -61.247862 
L 679.813021 -61.839157 
L 676.994749 -62.432275 
L 674.176478 -63.026997 
L 671.358207 -63.623177 
L 668.539935 -64.220746 
L 665.721664 -64.819726 
L 662.903392 -65.420242 
L 660.085121 -66.022529 
L 657.26685 -66.62694 
L 654.448578 -67.233949 
L 651.630307 -67.844153 
L 648.812036 -68.45827 
L 645.993764 -69.077131 
L 643.175493 -69.701671 
L 640.357222 -70.33291 
L 637.53895 -70.971936 
L 634.720679 -71.619879 
L 631.902408 -72.277882 
L 629.084136 -72.947064 
L 626.265865 -73.628488 
L 623.447593 -74.323116 
L 620.629322 -75.031772 
L 617.811051 -75.755093 
L 614.992779 -76.49349 
L 612.174508 -77.247105 
L 609.356237 -78.015768 
L 606.537965 -78.798966 
L 603.719694 -79.595807 
L 600.901423 -80.404995 
L 598.083151 -81.224813 
L 595.26488 -82.05311 
L 592.446609 -82.887299 
L 589.628337 -83.724365 
L 586.810066 -84.560877 
L 583.991794 -85.393019 
L 581.173523 -86.216623 
L 578.355252 -87.027211 
L 575.53698 -87.820051 
L 572.718709 -88.590218 
L 569.900438 -89.332658 
L 567.082166 -90.042262 
L 564.263895 -90.713944 
L 561.445624 -91.342719 
L 558.627352 -91.923779 
L 555.809081 -92.452581 
L 552.99081 -92.924914 
L 550.172538 -93.336975 
L 547.354267 -93.68544 
L 544.535995 -93.967516 
L 541.717724 -94.180998 
L 538.899453 -94.324312 
L 536.081181 -94.396541 
L 533.26291 -94.397453 
L 530.444639 -94.327511 
L 527.626367 -94.187867 
L 524.808096 -93.980356 
L 521.989825 -93.707473 
L 519.171553 -93.37234 
L 516.353282 -92.978662 
L 513.535011 -92.530687 
L 510.716739 -92.03314 
L 507.898468 -91.491168 
L 505.080196 -90.910271 
L 502.261925 -90.296234 
L 499.443654 -89.655057 
L 496.625382 -88.992883 
L 493.807111 -88.315931 
L 490.98884 -87.630424 
L 488.170568 -86.942527 
L 485.352297 -86.258287 
L 482.534026 -85.583576 
L 479.715754 -84.92404 
L 476.897483 -84.285057 
L 474.079212 -83.671696 
L 471.26094 -83.088686 
L 468.442669 -82.540389 
L 465.624397 -82.03078 
L 462.806126 -81.563434 
L 459.987855 -81.141514 
L 457.169583 -80.767769 
L 454.351312 -80.444533 
L 451.533041 -80.173727 
L 448.714769 -79.956872 
L 445.896498 -79.79509 
L 443.078227 -79.689125 
L 440.259955 -79.639348 
L 437.441684 -79.645777 
L 434.623413 -79.708093 
L 431.805141 -79.825649 
L 428.98687 -79.99749 
L 426.168598 -80.222369 
L 423.350327 -80.498756 
L 420.532056 -80.824855 
L 417.713784 -81.198616 
L 414.895513 -81.617744 
L 412.077242 -82.079713 
L 409.25897 -82.581773 
L 406.440699 -83.120962 
L 403.622428 -83.694109 
L 400.804156 -84.297852 
L 397.985885 -84.928638 
L 395.167614 -85.582738 
L 392.349342 -86.256255 
L 389.531071 -86.945139 
L 386.712799 -87.645194 
L 383.894528 -88.352102 
L 381.076257 -89.061434 
L 378.257985 -89.768674 
L 375.439714 -90.469237 
L 372.621443 -91.158503 
L 369.803171 -91.831835 
L 366.9849 -92.484619 
L 364.166629 -93.11229 
L 361.348357 -93.710371 
L 358.530086 -94.274507 
L 355.711815 -94.800507 
L 352.893543 -95.284375 
L 350.075272 -95.722353 
L 347.257 -96.110958 
L 344.438729 -96.447012 
L 341.620458 -96.727682 
L 338.802186 -96.950503 
L 335.983915 -97.113406 
L 333.165644 -97.214742 
L 330.347372 -97.253293 
L 327.529101 -97.228288 
L 324.71083 -97.139405 
L 321.892558 -96.986773 
L 319.074287 -96.770964 
L 316.256016 -96.492978 
L 313.437744 -96.154229 
L 310.619473 -95.75652 
L 307.801201 -95.302014 
L 304.98293 -94.793198 
L 302.164659 -94.232851 
L 299.346387 -93.624001 
L 296.528116 -92.96988 
L 293.709845 -92.273883 
L 290.891573 -91.539523 
L 288.073302 -90.770379 
L 285.255031 -89.970061 
L 282.436759 -89.142157 
L 279.618488 -88.290198 
L 276.800217 -87.417616 
L 273.981945 -86.527712 
L 271.163674 -85.623622 
L 268.345402 -84.708293 
L 265.527131 -83.784457 
L 262.70886 -82.854619 
L 259.890588 -81.921041 
L 257.072317 -80.985737 
L 254.254046 -80.050469 
L 251.435774 -79.116753 
L 248.617503 -78.185864 
L 245.799232 -77.258847 
L 242.98096 -76.336536 
L 240.162689 -75.419567 
L 237.344418 -74.508404 
L 234.526146 -73.60336 
L 231.707875 -72.704622 
L 228.889603 -71.812277 
L 226.071332 -70.926336 
L 223.253061 -70.046763 
L 220.434789 -69.173495 
L 217.616518 -68.306468 
L 214.798247 -67.445638 
L 211.979975 -66.590997 
L 209.161704 -65.742592 
L 206.343433 -64.900538 
L 203.525161 -64.065024 
L 200.70689 -63.236328 
L 197.888619 -62.414814 
L 195.070347 -61.600938 
L 192.252076 -60.795244 
L 189.433804 -59.998361 
L 186.615533 -59.210996 
L 183.797262 -58.433928 
L 180.97899 -57.667995 
L 178.160719 -56.914085 
L 175.342448 -56.17312 
L 172.524176 -55.446048 
L 169.705905 -54.733826 
z
" style="stroke: #8da0cb"/>
    </defs>
    <g clip-path="url(#pa101b2c5f8)">
     <use xlink:href="#m1e27da1827" x="0" y="212.255313" style="fill: #8da0cb; fill-opacity: 0.5; stroke: #8da0cb"/>
    </g>
   </g>
   <g id="matplotlib.axis_5">
    <g id="xtick_13">
     <g id="line2d_17">
      <g>
       <use xlink:href="#mb285f50280" x="169.705905" y="170.44" style="stroke: #000000; stroke-width: 0.8"/>
      </g>
     </g>
     <g id="text_3">
      <!-- 0.0 -->
      <g transform="translate(162.205905 185.7725) scale(0.12 -0.12)">
       <defs>
        <path id="TimesNewRomanPSMT-30" d="M 231 2094 
Q 231 2819 450 3342 
Q 669 3866 1031 4122 
Q 1313 4325 1613 4325 
Q 2100 4325 2488 3828 
Q 2972 3213 2972 2159 
Q 2972 1422 2759 906 
Q 2547 391 2217 158 
Q 1888 -75 1581 -75 
Q 975 -75 572 641 
Q 231 1244 231 2094 
z
M 844 2016 
Q 844 1141 1059 588 
Q 1238 122 1591 122 
Q 1759 122 1940 273 
Q 2122 425 2216 781 
Q 2359 1319 2359 2297 
Q 2359 3022 2209 3506 
Q 2097 3866 1919 4016 
Q 1791 4119 1609 4119 
Q 1397 4119 1231 3928 
Q 1006 3669 925 3112 
Q 844 2556 844 2016 
z
" transform="scale(0.015625)"/>
        <path id="TimesNewRomanPSMT-2e" d="M 800 606 
Q 947 606 1047 504 
Q 1147 403 1147 259 
Q 1147 116 1045 14 
Q 944 -88 800 -88 
Q 656 -88 554 14 
Q 453 116 453 259 
Q 453 406 554 506 
Q 656 606 800 606 
z
" transform="scale(0.015625)"/>
       </defs>
       <use xlink:href="#TimesNewRomanPSMT-30"/>
       <use xlink:href="#TimesNewRomanPSMT-2e" transform="translate(50 0)"/>
       <use xlink:href="#TimesNewRomanPSMT-30" transform="translate(75 0)"/>
      </g>
     </g>
    </g>
    <g id="xtick_14">
     <g id="line2d_18">
      <g>
       <use xlink:href="#mb285f50280" x="281.873105" y="170.44" style="stroke: #000000; stroke-width: 0.8"/>
      </g>
     </g>
     <g id="text_4">
      <!-- 0.2 -->
      <g transform="translate(274.373105 185.7725) scale(0.12 -0.12)">
       <defs>
        <path id="TimesNewRomanPSMT-32" d="M 2934 816 
L 2638 0 
L 138 0 
L 138 116 
Q 1241 1122 1691 1759 
Q 2141 2397 2141 2925 
Q 2141 3328 1894 3587 
Q 1647 3847 1303 3847 
Q 991 3847 742 3664 
Q 494 3481 375 3128 
L 259 3128 
Q 338 3706 661 4015 
Q 984 4325 1469 4325 
Q 1984 4325 2329 3994 
Q 2675 3663 2675 3213 
Q 2675 2891 2525 2569 
Q 2294 2063 1775 1497 
Q 997 647 803 472 
L 1909 472 
Q 2247 472 2383 497 
Q 2519 522 2628 598 
Q 2738 675 2819 816 
L 2934 816 
z
" transform="scale(0.015625)"/>
       </defs>
       <use xlink:href="#TimesNewRomanPSMT-30"/>
       <use xlink:href="#TimesNewRomanPSMT-2e" transform="translate(50 0)"/>
       <use xlink:href="#TimesNewRomanPSMT-32" transform="translate(75 0)"/>
      </g>
     </g>
    </g>
    <g id="xtick_15">
     <g id="line2d_19">
      <g>
       <use xlink:href="#mb285f50280" x="394.040305" y="170.44" style="stroke: #000000; stroke-width: 0.8"/>
      </g>
     </g>
     <g id="text_5">
      <!-- 0.4 -->
      <g transform="translate(386.540305 185.7725) scale(0.12 -0.12)">
       <defs>
        <path id="TimesNewRomanPSMT-34" d="M 2978 1563 
L 2978 1119 
L 2409 1119 
L 2409 0 
L 1894 0 
L 1894 1119 
L 100 1119 
L 100 1519 
L 2066 4325 
L 2409 4325 
L 2409 1563 
L 2978 1563 
z
M 1894 1563 
L 1894 3666 
L 406 1563 
L 1894 1563 
z
" transform="scale(0.015625)"/>
       </defs>
       <use xlink:href="#TimesNewRomanPSMT-30"/>
       <use xlink:href="#TimesNewRomanPSMT-2e" transform="translate(50 0)"/>
       <use xlink:href="#TimesNewRomanPSMT-34" transform="translate(75 0)"/>
      </g>
     </g>
    </g>
    <g id="xtick_16">
     <g id="line2d_20">
      <g>
       <use xlink:href="#mb285f50280" x="506.207505" y="170.44" style="stroke: #000000; stroke-width: 0.8"/>
      </g>
     </g>
     <g id="text_6">
      <!-- 0.6 -->
      <g transform="translate(498.707505 185.7725) scale(0.12 -0.12)">
       <defs>
        <path id="TimesNewRomanPSMT-36" d="M 2869 4325 
L 2869 4209 
Q 2456 4169 2195 4045 
Q 1934 3922 1679 3669 
Q 1425 3416 1258 3105 
Q 1091 2794 978 2366 
Q 1428 2675 1881 2675 
Q 2316 2675 2634 2325 
Q 2953 1975 2953 1425 
Q 2953 894 2631 456 
Q 2244 -75 1606 -75 
Q 1172 -75 869 213 
Q 275 772 275 1663 
Q 275 2231 503 2743 
Q 731 3256 1154 3653 
Q 1578 4050 1965 4187 
Q 2353 4325 2688 4325 
L 2869 4325 
z
M 925 2138 
Q 869 1716 869 1456 
Q 869 1156 980 804 
Q 1091 453 1309 247 
Q 1469 100 1697 100 
Q 1969 100 2183 356 
Q 2397 613 2397 1088 
Q 2397 1622 2184 2012 
Q 1972 2403 1581 2403 
Q 1463 2403 1327 2353 
Q 1191 2303 925 2138 
z
" transform="scale(0.015625)"/>
       </defs>
       <use xlink:href="#TimesNewRomanPSMT-30"/>
       <use xlink:href="#TimesNewRomanPSMT-2e" transform="translate(50 0)"/>
       <use xlink:href="#TimesNewRomanPSMT-36" transform="translate(75 0)"/>
      </g>
     </g>
    </g>
    <g id="xtick_17">
     <g id="line2d_21">
      <g>
       <use xlink:href="#mb285f50280" x="618.374705" y="170.44" style="stroke: #000000; stroke-width: 0.8"/>
      </g>
     </g>
     <g id="text_7">
      <!-- 0.8 -->
      <g transform="translate(610.874705 185.7725) scale(0.12 -0.12)">
       <defs>
        <path id="TimesNewRomanPSMT-38" d="M 1228 2134 
Q 725 2547 579 2797 
Q 434 3047 434 3316 
Q 434 3728 753 4026 
Q 1072 4325 1600 4325 
Q 2113 4325 2425 4047 
Q 2738 3769 2738 3413 
Q 2738 3175 2569 2928 
Q 2400 2681 1866 2347 
Q 2416 1922 2594 1678 
Q 2831 1359 2831 1006 
Q 2831 559 2490 242 
Q 2150 -75 1597 -75 
Q 994 -75 656 303 
Q 388 606 388 966 
Q 388 1247 577 1523 
Q 766 1800 1228 2134 
z
M 1719 2469 
Q 2094 2806 2194 3001 
Q 2294 3197 2294 3444 
Q 2294 3772 2109 3958 
Q 1925 4144 1606 4144 
Q 1288 4144 1088 3959 
Q 888 3775 888 3528 
Q 888 3366 970 3203 
Q 1053 3041 1206 2894 
L 1719 2469 
z
M 1375 2016 
Q 1116 1797 991 1539 
Q 866 1281 866 981 
Q 866 578 1086 336 
Q 1306 94 1647 94 
Q 1984 94 2187 284 
Q 2391 475 2391 747 
Q 2391 972 2272 1150 
Q 2050 1481 1375 2016 
z
" transform="scale(0.015625)"/>
       </defs>
       <use xlink:href="#TimesNewRomanPSMT-30"/>
       <use xlink:href="#TimesNewRomanPSMT-2e" transform="translate(50 0)"/>
       <use xlink:href="#TimesNewRomanPSMT-38" transform="translate(75 0)"/>
      </g>
     </g>
    </g>
    <g id="xtick_18">
     <g id="line2d_22">
      <g>
       <use xlink:href="#mb285f50280" x="730.541905" y="170.44" style="stroke: #000000; stroke-width: 0.8"/>
      </g>
     </g>
     <g id="text_8">
      <!-- 1.0 -->
      <g transform="translate(723.041905 185.7725) scale(0.12 -0.12)">
       <defs>
        <path id="TimesNewRomanPSMT-31" d="M 750 3822 
L 1781 4325 
L 1884 4325 
L 1884 747 
Q 1884 391 1914 303 
Q 1944 216 2037 169 
Q 2131 122 2419 116 
L 2419 0 
L 825 0 
L 825 116 
Q 1125 122 1212 167 
Q 1300 213 1334 289 
Q 1369 366 1369 747 
L 1369 3034 
Q 1369 3497 1338 3628 
Q 1316 3728 1258 3775 
Q 1200 3822 1119 3822 
Q 1003 3822 797 3725 
L 750 3822 
z
" transform="scale(0.015625)"/>
       </defs>
       <use xlink:href="#TimesNewRomanPSMT-31"/>
       <use xlink:href="#TimesNewRomanPSMT-2e" transform="translate(50 0)"/>
       <use xlink:href="#TimesNewRomanPSMT-30" transform="translate(75 0)"/>
      </g>
     </g>
    </g>
    <g id="text_9">
     <!-- Value -->
     <g transform="translate(434.187967 202.060625) scale(0.14 -0.14)">
      <defs>
       <path id="TimesNewRomanPSMT-56" d="M 4544 4238 
L 4544 4122 
Q 4319 4081 4203 3978 
Q 4038 3825 3909 3509 
L 2431 -97 
L 2316 -97 
L 728 3556 
Q 606 3838 556 3900 
Q 478 3997 364 4051 
Q 250 4106 56 4122 
L 56 4238 
L 1788 4238 
L 1788 4122 
Q 1494 4094 1406 4022 
Q 1319 3950 1319 3838 
Q 1319 3681 1463 3350 
L 2541 866 
L 3541 3319 
Q 3688 3681 3688 3822 
Q 3688 3913 3597 3995 
Q 3506 4078 3291 4113 
Q 3275 4116 3238 4122 
L 3238 4238 
L 4544 4238 
z
" transform="scale(0.015625)"/>
      </defs>
      <use xlink:href="#TimesNewRomanPSMT-56"/>
      <use xlink:href="#TimesNewRomanPSMT-61" transform="translate(61.091797 0)"/>
      <use xlink:href="#TimesNewRomanPSMT-6c" transform="translate(105.476562 0)"/>
      <use xlink:href="#TimesNewRomanPSMT-75" transform="translate(133.259766 0)"/>
      <use xlink:href="#TimesNewRomanPSMT-65" transform="translate(183.259766 0)"/>
     </g>
    </g>
    <g id="text_10">
     <!-- 1e8 -->
     <g transform="translate(716.102843 198.283125) scale(0.1 -0.1)">
      <use xlink:href="#TimesNewRomanPSMT-31"/>
      <use xlink:href="#TimesNewRomanPSMT-65" transform="translate(50 0)"/>
      <use xlink:href="#TimesNewRomanPSMT-38" transform="translate(94.384766 0)"/>
     </g>
    </g>
   </g>
   <g id="matplotlib.axis_6"/>
   <g id="line2d_23">
    <path d="M 169.705905 157.521487 
L 180.97899 154.587317 
L 195.070347 150.654374 
L 211.979975 145.664315 
L 228.889603 140.443036 
L 245.799232 134.996465 
L 279.618488 123.965115 
L 288.073302 121.484933 
L 296.528116 119.285433 
L 302.164659 118.022461 
L 307.801201 116.953299 
L 313.437744 116.101084 
L 319.074287 115.484349 
L 324.71083 115.115907 
L 330.347372 115.00202 
L 335.983915 115.141906 
L 341.620458 115.52763 
L 347.257 116.144355 
L 352.893543 116.970938 
L 358.530086 117.980805 
L 366.9849 119.770694 
L 378.257985 122.486639 
L 397.985885 127.326674 
L 406.440699 129.134351 
L 412.077242 130.1756 
L 417.713784 131.056697 
L 423.350327 131.756556 
L 428.98687 132.257822 
L 434.623413 132.547219 
L 440.259955 132.615965 
L 445.896498 132.460222 
L 451.533041 132.081585 
L 457.169583 131.487543 
L 462.806126 130.691879 
L 468.442669 129.714924 
L 476.897483 127.970255 
L 488.170568 125.312785 
L 502.261925 121.959079 
L 510.716739 120.222172 
L 516.353282 119.27665 
L 521.989825 118.547839 
L 527.626367 118.067446 
L 533.26291 117.857859 
L 538.899453 117.931001 
L 544.535995 118.287797 
L 550.172538 118.918337 
L 555.809081 119.802731 
L 561.445624 120.912594 
L 567.082166 122.21305 
L 575.53698 124.435261 
L 586.810066 127.694436 
L 606.537965 133.456346 
L 617.811051 136.50022 
L 629.084136 139.308248 
L 643.175493 142.553642 
L 662.903392 146.835071 
L 693.904377 153.348305 
L 713.632277 157.291348 
L 730.541905 160.421976 
L 730.541905 160.421976 
" clip-path="url(#pa101b2c5f8)" style="fill: none; stroke: #ffffff; stroke-width: 2; stroke-linecap: square"/>
   </g>
   <g id="line2d_24">
    <path d="M 169.705905 170.44 
L 730.541905 170.44 
" style="fill: none; stroke: #000000; stroke-linecap: square"/>
   </g>
   <g id="text_11">
    <g id="patch_7">
     <path d="M 18.55125 179.849687 
L 114.778125 179.849687 
L 114.778125 161.030312 
L 18.55125 161.030312 
z
" style="fill: #ffffff; opacity: 0.5"/>
    </g>
    <!-- Space Exploration -->
    <g transform="translate(22.51125 173.322812) scale(0.12 -0.12)">
     <defs>
      <path id="TimesNewRomanPSMT-53" d="M 2934 4334 
L 2934 2869 
L 2819 2869 
Q 2763 3291 2617 3541 
Q 2472 3791 2203 3937 
Q 1934 4084 1647 4084 
Q 1322 4084 1109 3886 
Q 897 3688 897 3434 
Q 897 3241 1031 3081 
Q 1225 2847 1953 2456 
Q 2547 2138 2764 1967 
Q 2981 1797 3098 1565 
Q 3216 1334 3216 1081 
Q 3216 600 2842 251 
Q 2469 -97 1881 -97 
Q 1697 -97 1534 -69 
Q 1438 -53 1133 45 
Q 828 144 747 144 
Q 669 144 623 97 
Q 578 50 556 -97 
L 441 -97 
L 441 1356 
L 556 1356 
Q 638 900 775 673 
Q 913 447 1195 297 
Q 1478 147 1816 147 
Q 2206 147 2432 353 
Q 2659 559 2659 841 
Q 2659 997 2573 1156 
Q 2488 1316 2306 1453 
Q 2184 1547 1640 1851 
Q 1097 2156 867 2337 
Q 638 2519 519 2737 
Q 400 2956 400 3219 
Q 400 3675 750 4004 
Q 1100 4334 1641 4334 
Q 1978 4334 2356 4169 
Q 2531 4091 2603 4091 
Q 2684 4091 2736 4139 
Q 2788 4188 2819 4334 
L 2934 4334 
z
" transform="scale(0.015625)"/>
      <path id="TimesNewRomanPSMT-45" d="M 1338 4006 
L 1338 2331 
L 2269 2331 
Q 2631 2331 2753 2441 
Q 2916 2584 2934 2947 
L 3050 2947 
L 3050 1472 
L 2934 1472 
Q 2891 1781 2847 1869 
Q 2791 1978 2662 2040 
Q 2534 2103 2269 2103 
L 1338 2103 
L 1338 706 
Q 1338 425 1363 364 
Q 1388 303 1450 267 
Q 1513 231 1688 231 
L 2406 231 
Q 2766 231 2928 281 
Q 3091 331 3241 478 
Q 3434 672 3638 1063 
L 3763 1063 
L 3397 0 
L 131 0 
L 131 116 
L 281 116 
Q 431 116 566 188 
Q 666 238 702 338 
Q 738 438 738 747 
L 738 3500 
Q 738 3903 656 3997 
Q 544 4122 281 4122 
L 131 4122 
L 131 4238 
L 3397 4238 
L 3444 3309 
L 3322 3309 
Q 3256 3644 3176 3769 
Q 3097 3894 2941 3959 
Q 2816 4006 2500 4006 
L 1338 4006 
z
" transform="scale(0.015625)"/>
      <path id="TimesNewRomanPSMT-78" d="M 84 2863 
L 1431 2863 
L 1431 2747 
Q 1303 2747 1251 2703 
Q 1200 2659 1200 2588 
Q 1200 2513 1309 2356 
Q 1344 2306 1413 2200 
L 1616 1875 
L 1850 2200 
Q 2075 2509 2075 2591 
Q 2075 2656 2022 2701 
Q 1969 2747 1850 2747 
L 1850 2863 
L 2819 2863 
L 2819 2747 
Q 2666 2738 2553 2663 
Q 2400 2556 2134 2200 
L 1744 1678 
L 2456 653 
Q 2719 275 2831 198 
Q 2944 122 3122 113 
L 3122 0 
L 1772 0 
L 1772 113 
Q 1913 113 1991 175 
Q 2050 219 2050 291 
Q 2050 363 1850 653 
L 1431 1266 
L 972 653 
Q 759 369 759 316 
Q 759 241 829 180 
Q 900 119 1041 113 
L 1041 0 
L 106 0 
L 106 113 
Q 219 128 303 191 
Q 422 281 703 653 
L 1303 1450 
L 759 2238 
Q 528 2575 401 2661 
Q 275 2747 84 2747 
L 84 2863 
z
" transform="scale(0.015625)"/>
     </defs>
     <use xlink:href="#TimesNewRomanPSMT-53"/>
     <use xlink:href="#TimesNewRomanPSMT-70" transform="translate(55.615234 0)"/>
     <use xlink:href="#TimesNewRomanPSMT-61" transform="translate(105.615234 0)"/>
     <use xlink:href="#TimesNewRomanPSMT-63" transform="translate(150 0)"/>
     <use xlink:href="#TimesNewRomanPSMT-65" transform="translate(194.384766 0)"/>
     <use xlink:href="#TimesNewRomanPSMT-20" transform="translate(238.769531 0)"/>
     <use xlink:href="#TimesNewRomanPSMT-45" transform="translate(263.769531 0)"/>
     <use xlink:href="#TimesNewRomanPSMT-78" transform="translate(324.853516 0)"/>
     <use xlink:href="#TimesNewRomanPSMT-70" transform="translate(374.853516 0)"/>
     <use xlink:href="#TimesNewRomanPSMT-6c" transform="translate(424.853516 0)"/>
     <use xlink:href="#TimesNewRomanPSMT-6f" transform="translate(452.636719 0)"/>
     <use xlink:href="#TimesNewRomanPSMT-72" transform="translate(502.636719 0)"/>
     <use xlink:href="#TimesNewRomanPSMT-61" transform="translate(535.9375 0)"/>
     <use xlink:href="#TimesNewRomanPSMT-74" transform="translate(580.322266 0)"/>
     <use xlink:href="#TimesNewRomanPSMT-69" transform="translate(608.105469 0)"/>
     <use xlink:href="#TimesNewRomanPSMT-6f" transform="translate(635.888672 0)"/>
     <use xlink:href="#TimesNewRomanPSMT-6e" transform="translate(685.888672 0)"/>
    </g>
   </g>
  </g>
  <g id="text_12">
   <!-- Research Funding(USD) -->
   <g transform="translate(302.020655 18.31) scale(0.16 -0.16)">
    <defs>
     <path id="TimesNewRomanPSMT-52" d="M 4325 0 
L 3194 0 
L 1759 1981 
Q 1600 1975 1500 1975 
Q 1459 1975 1412 1976 
Q 1366 1978 1316 1981 
L 1316 750 
Q 1316 350 1403 253 
Q 1522 116 1759 116 
L 1925 116 
L 1925 0 
L 109 0 
L 109 116 
L 269 116 
Q 538 116 653 291 
Q 719 388 719 750 
L 719 3488 
Q 719 3888 631 3984 
Q 509 4122 269 4122 
L 109 4122 
L 109 4238 
L 1653 4238 
Q 2328 4238 2648 4139 
Q 2969 4041 3192 3777 
Q 3416 3513 3416 3147 
Q 3416 2756 3161 2468 
Q 2906 2181 2372 2063 
L 3247 847 
Q 3547 428 3762 290 
Q 3978 153 4325 116 
L 4325 0 
z
M 1316 2178 
Q 1375 2178 1419 2176 
Q 1463 2175 1491 2175 
Q 2097 2175 2405 2437 
Q 2713 2700 2713 3106 
Q 2713 3503 2464 3751 
Q 2216 4000 1806 4000 
Q 1625 4000 1316 3941 
L 1316 2178 
z
" transform="scale(0.015625)"/>
     <path id="TimesNewRomanPSMT-73" d="M 2050 2947 
L 2050 1972 
L 1947 1972 
Q 1828 2431 1642 2597 
Q 1456 2763 1169 2763 
Q 950 2763 815 2647 
Q 681 2531 681 2391 
Q 681 2216 781 2091 
Q 878 1963 1175 1819 
L 1631 1597 
Q 2266 1288 2266 781 
Q 2266 391 1970 151 
Q 1675 -88 1309 -88 
Q 1047 -88 709 6 
Q 606 38 541 38 
Q 469 38 428 -44 
L 325 -44 
L 325 978 
L 428 978 
Q 516 541 762 319 
Q 1009 97 1316 97 
Q 1531 97 1667 223 
Q 1803 350 1803 528 
Q 1803 744 1651 891 
Q 1500 1038 1047 1263 
Q 594 1488 453 1669 
Q 313 1847 313 2119 
Q 313 2472 555 2709 
Q 797 2947 1181 2947 
Q 1350 2947 1591 2875 
Q 1750 2828 1803 2828 
Q 1853 2828 1881 2850 
Q 1909 2872 1947 2947 
L 2050 2947 
z
" transform="scale(0.015625)"/>
     <path id="TimesNewRomanPSMT-68" d="M 1041 4444 
L 1041 2350 
Q 1388 2731 1591 2839 
Q 1794 2947 1997 2947 
Q 2241 2947 2416 2812 
Q 2591 2678 2675 2391 
Q 2734 2191 2734 1659 
L 2734 647 
Q 2734 375 2778 275 
Q 2809 200 2884 156 
Q 2959 113 3159 113 
L 3159 0 
L 1753 0 
L 1753 113 
L 1819 113 
Q 2019 113 2097 173 
Q 2175 234 2206 353 
Q 2216 403 2216 647 
L 2216 1659 
Q 2216 2128 2167 2275 
Q 2119 2422 2012 2495 
Q 1906 2569 1756 2569 
Q 1603 2569 1437 2487 
Q 1272 2406 1041 2159 
L 1041 647 
Q 1041 353 1073 281 
Q 1106 209 1195 161 
Q 1284 113 1503 113 
L 1503 0 
L 84 0 
L 84 113 
Q 275 113 384 172 
Q 447 203 484 290 
Q 522 378 522 647 
L 522 3238 
Q 522 3728 498 3840 
Q 475 3953 426 3993 
Q 378 4034 297 4034 
Q 231 4034 84 3984 
L 41 4094 
L 897 4444 
L 1041 4444 
z
" transform="scale(0.015625)"/>
     <path id="TimesNewRomanPSMT-46" d="M 1309 4006 
L 1309 2341 
L 2081 2341 
Q 2347 2341 2470 2458 
Q 2594 2575 2634 2922 
L 2750 2922 
L 2750 1488 
L 2634 1488 
Q 2631 1734 2570 1850 
Q 2509 1966 2401 2023 
Q 2294 2081 2081 2081 
L 1309 2081 
L 1309 750 
Q 1309 428 1350 325 
Q 1381 247 1481 191 
Q 1619 116 1769 116 
L 1922 116 
L 1922 0 
L 103 0 
L 103 116 
L 253 116 
Q 516 116 634 269 
Q 709 369 709 750 
L 709 3488 
Q 709 3809 669 3913 
Q 638 3991 541 4047 
Q 406 4122 253 4122 
L 103 4122 
L 103 4238 
L 3256 4238 
L 3297 3306 
L 3188 3306 
Q 3106 3603 2998 3742 
Q 2891 3881 2733 3943 
Q 2575 4006 2244 4006 
L 1309 4006 
z
" transform="scale(0.015625)"/>
     <path id="TimesNewRomanPSMT-64" d="M 2222 322 
Q 2013 103 1813 7 
Q 1613 -88 1381 -88 
Q 913 -88 563 304 
Q 213 697 213 1313 
Q 213 1928 600 2439 
Q 988 2950 1597 2950 
Q 1975 2950 2222 2709 
L 2222 3238 
Q 2222 3728 2198 3840 
Q 2175 3953 2125 3993 
Q 2075 4034 2000 4034 
Q 1919 4034 1784 3984 
L 1744 4094 
L 2597 4444 
L 2738 4444 
L 2738 1134 
Q 2738 631 2761 520 
Q 2784 409 2836 365 
Q 2888 322 2956 322 
Q 3041 322 3181 375 
L 3216 266 
L 2366 -88 
L 2222 -88 
L 2222 322 
z
M 2222 541 
L 2222 2016 
Q 2203 2228 2109 2403 
Q 2016 2578 1861 2667 
Q 1706 2756 1559 2756 
Q 1284 2756 1069 2509 
Q 784 2184 784 1559 
Q 784 928 1059 592 
Q 1334 256 1672 256 
Q 1956 256 2222 541 
z
" transform="scale(0.015625)"/>
     <path id="TimesNewRomanPSMT-28" d="M 1988 -1253 
L 1988 -1369 
Q 1516 -1131 1200 -813 
Q 750 -359 506 256 
Q 263 872 263 1534 
Q 263 2503 741 3301 
Q 1219 4100 1988 4444 
L 1988 4313 
Q 1603 4100 1356 3731 
Q 1109 3363 987 2797 
Q 866 2231 866 1616 
Q 866 947 969 400 
Q 1050 -31 1165 -292 
Q 1281 -553 1476 -793 
Q 1672 -1034 1988 -1253 
z
" transform="scale(0.015625)"/>
     <path id="TimesNewRomanPSMT-55" d="M 3053 4122 
L 3053 4238 
L 4553 4238 
L 4553 4122 
L 4394 4122 
Q 4144 4122 4009 3913 
Q 3944 3816 3944 3463 
L 3944 1744 
Q 3944 1106 3817 754 
Q 3691 403 3320 151 
Q 2950 -100 2313 -100 
Q 1619 -100 1259 140 
Q 900 381 750 788 
Q 650 1066 650 1831 
L 650 3488 
Q 650 3878 542 4000 
Q 434 4122 194 4122 
L 34 4122 
L 34 4238 
L 1866 4238 
L 1866 4122 
L 1703 4122 
Q 1441 4122 1328 3956 
Q 1250 3844 1250 3488 
L 1250 1641 
Q 1250 1394 1295 1075 
Q 1341 756 1459 578 
Q 1578 400 1801 284 
Q 2025 169 2350 169 
Q 2766 169 3094 350 
Q 3422 531 3542 814 
Q 3663 1097 3663 1772 
L 3663 3488 
Q 3663 3884 3575 3984 
Q 3453 4122 3213 4122 
L 3053 4122 
z
" transform="scale(0.015625)"/>
     <path id="TimesNewRomanPSMT-44" d="M 109 0 
L 109 116 
L 269 116 
Q 538 116 650 288 
Q 719 391 719 750 
L 719 3488 
Q 719 3884 631 3984 
Q 509 4122 269 4122 
L 109 4122 
L 109 4238 
L 1834 4238 
Q 2784 4238 3279 4022 
Q 3775 3806 4076 3303 
Q 4378 2800 4378 2141 
Q 4378 1256 3841 663 
Q 3238 0 2003 0 
L 109 0 
z
M 1319 306 
Q 1716 219 1984 219 
Q 2709 219 3187 728 
Q 3666 1238 3666 2109 
Q 3666 2988 3187 3494 
Q 2709 4000 1959 4000 
Q 1678 4000 1319 3909 
L 1319 306 
z
" transform="scale(0.015625)"/>
     <path id="TimesNewRomanPSMT-29" d="M 144 4313 
L 144 4444 
Q 619 4209 934 3891 
Q 1381 3434 1625 2820 
Q 1869 2206 1869 1541 
Q 1869 572 1392 -226 
Q 916 -1025 144 -1369 
L 144 -1253 
Q 528 -1038 776 -670 
Q 1025 -303 1145 264 
Q 1266 831 1266 1447 
Q 1266 2113 1163 2663 
Q 1084 3094 967 3353 
Q 850 3613 656 3853 
Q 463 4094 144 4313 
z
" transform="scale(0.015625)"/>
    </defs>
    <use xlink:href="#TimesNewRomanPSMT-52"/>
    <use xlink:href="#TimesNewRomanPSMT-65" transform="translate(66.699219 0)"/>
    <use xlink:href="#TimesNewRomanPSMT-73" transform="translate(111.083984 0)"/>
    <use xlink:href="#TimesNewRomanPSMT-65" transform="translate(150 0)"/>
    <use xlink:href="#TimesNewRomanPSMT-61" transform="translate(194.384766 0)"/>
    <use xlink:href="#TimesNewRomanPSMT-72" transform="translate(238.769531 0)"/>
    <use xlink:href="#TimesNewRomanPSMT-63" transform="translate(272.070312 0)"/>
    <use xlink:href="#TimesNewRomanPSMT-68" transform="translate(316.455078 0)"/>
    <use xlink:href="#TimesNewRomanPSMT-20" transform="translate(366.455078 0)"/>
    <use xlink:href="#TimesNewRomanPSMT-46" transform="translate(391.455078 0)"/>
    <use xlink:href="#TimesNewRomanPSMT-75" transform="translate(447.070312 0)"/>
    <use xlink:href="#TimesNewRomanPSMT-6e" transform="translate(497.070312 0)"/>
    <use xlink:href="#TimesNewRomanPSMT-64" transform="translate(547.070312 0)"/>
    <use xlink:href="#TimesNewRomanPSMT-69" transform="translate(597.070312 0)"/>
    <use xlink:href="#TimesNewRomanPSMT-6e" transform="translate(624.853516 0)"/>
    <use xlink:href="#TimesNewRomanPSMT-67" transform="translate(674.853516 0)"/>
    <use xlink:href="#TimesNewRomanPSMT-28" transform="translate(724.853516 0)"/>
    <use xlink:href="#TimesNewRomanPSMT-55" transform="translate(758.154297 0)"/>
    <use xlink:href="#TimesNewRomanPSMT-53" transform="translate(830.371094 0)"/>
    <use xlink:href="#TimesNewRomanPSMT-44" transform="translate(885.986328 0)"/>
    <use xlink:href="#TimesNewRomanPSMT-29" transform="translate(958.203125 0)"/>
   </g>
  </g>
 </g>
 <defs>
  <clipPath id="p73272092e5">
   <rect x="169.705905" y="21.12" width="560.836" height="74.66"/>
  </clipPath>
  <clipPath id="pf8dd1b5243">
   <rect x="169.705905" y="58.45" width="560.836" height="74.66"/>
  </clipPath>
  <clipPath id="pa101b2c5f8">
   <rect x="169.705905" y="95.78" width="560.836" height="74.66"/>
  </clipPath>
 </defs>
</svg>
