<?xml version="1.0" encoding="utf-8" standalone="no"?>
<!DOCTYPE svg PUBLIC "-//W3C//DTD SVG 1.1//EN"
  "http://www.w3.org/Graphics/SVG/1.1/DTD/svg11.dtd">
<svg xmlns:xlink="http://www.w3.org/1999/xlink" width="746.188997pt" height="280.655312pt" viewBox="0 0 746.188997 280.655312" xmlns="http://www.w3.org/2000/svg" version="1.1">
 <metadata>
  <rdf:RDF xmlns:dc="http://purl.org/dc/elements/1.1/" xmlns:cc="http://creativecommons.org/ns#" xmlns:rdf="http://www.w3.org/1999/02/22-rdf-syntax-ns#">
   <cc:Work>
    <dc:type rdf:resource="http://purl.org/dc/dcmitype/StillImage"/>
    <dc:date>2025-05-27T02:33:06.095655</dc:date>
    <dc:format>image/svg+xml</dc:format>
    <dc:creator>
     <cc:Agent>
      <dc:title>Matplotlib v3.10.1, https://matplotlib.org/</dc:title>
     </cc:Agent>
    </dc:creator>
   </cc:Work>
  </rdf:RDF>
 </metadata>
 <defs>
  <style type="text/css">*{stroke-linejoin: round; stroke-linecap: butt}</style>
 </defs>
 <g id="figure_1">
  <g id="patch_1">
   <path d="M 0 280.655312 
L 746.188997 280.655312 
L 746.188997 0 
L 0 0 
z
" style="fill: #ffffff"/>
  </g>
  <g id="axes_1">
   <g id="patch_2">
    <path d="M 168.029497 106.048 
L 731.488997 106.048 
L 731.488997 17.52 
L 168.029497 17.52 
L 168.029497 106.048 
z
" style="fill: none; opacity: 0"/>
   </g>
   <g id="FillBetweenPolyCollection_1">
    <defs>
     <path id="me9f580ada0" d="M 168.029497 -183.937927 
L 168.029497 -174.607312 
L 170.860952 -174.607312 
L 173.692407 -174.607312 
L 176.523862 -174.607312 
L 179.355317 -174.607312 
L 182.186771 -174.607312 
L 185.018226 -174.607312 
L 187.849681 -174.607312 
L 190.681136 -174.607312 
L 193.51259 -174.607312 
L 196.344045 -174.607312 
L 199.1755 -174.607312 
L 202.006955 -174.607312 
L 204.83841 -174.607312 
L 207.669864 -174.607312 
L 210.501319 -174.607312 
L 213.332774 -174.607312 
L 216.164229 -174.607312 
L 218.995683 -174.607312 
L 221.827138 -174.607312 
L 224.658593 -174.607312 
L 227.490048 -174.607312 
L 230.321503 -174.607312 
L 233.152957 -174.607312 
L 235.984412 -174.607312 
L 238.815867 -174.607312 
L 241.647322 -174.607312 
L 244.478776 -174.607312 
L 247.310231 -174.607312 
L 250.141686 -174.607312 
L 252.973141 -174.607312 
L 255.804595 -174.607312 
L 258.63605 -174.607312 
L 261.467505 -174.607312 
L 264.29896 -174.607312 
L 267.130415 -174.607312 
L 269.961869 -174.607312 
L 272.793324 -174.607312 
L 275.624779 -174.607312 
L 278.456234 -174.607312 
L 281.287688 -174.607312 
L 284.119143 -174.607312 
L 286.950598 -174.607312 
L 289.782053 -174.607312 
L 292.613508 -174.607312 
L 295.444962 -174.607312 
L 298.276417 -174.607312 
L 301.107872 -174.607312 
L 303.939327 -174.607312 
L 306.770781 -174.607312 
L 309.602236 -174.607312 
L 312.433691 -174.607312 
L 315.265146 -174.607312 
L 318.096601 -174.607312 
L 320.928055 -174.607312 
L 323.75951 -174.607312 
L 326.590965 -174.607312 
L 329.42242 -174.607312 
L 332.253874 -174.607312 
L 335.085329 -174.607312 
L 337.916784 -174.607312 
L 340.748239 -174.607312 
L 343.579693 -174.607312 
L 346.411148 -174.607312 
L 349.242603 -174.607312 
L 352.074058 -174.607312 
L 354.905513 -174.607312 
L 357.736967 -174.607312 
L 360.568422 -174.607312 
L 363.399877 -174.607312 
L 366.231332 -174.607312 
L 369.062786 -174.607312 
L 371.894241 -174.607312 
L 374.725696 -174.607312 
L 377.557151 -174.607312 
L 380.388606 -174.607312 
L 383.22006 -174.607312 
L 386.051515 -174.607312 
L 388.88297 -174.607312 
L 391.714425 -174.607312 
L 394.545879 -174.607312 
L 397.377334 -174.607312 
L 400.208789 -174.607312 
L 403.040244 -174.607312 
L 405.871699 -174.607312 
L 408.703153 -174.607312 
L 411.534608 -174.607312 
L 414.366063 -174.607312 
L 417.197518 -174.607312 
L 420.028972 -174.607312 
L 422.860427 -174.607312 
L 425.691882 -174.607312 
L 428.523337 -174.607312 
L 431.354791 -174.607312 
L 434.186246 -174.607312 
L 437.017701 -174.607312 
L 439.849156 -174.607312 
L 442.680611 -174.607312 
L 445.512065 -174.607312 
L 448.34352 -174.607312 
L 451.174975 -174.607312 
L 454.00643 -174.607312 
L 456.837884 -174.607312 
L 459.669339 -174.607312 
L 462.500794 -174.607312 
L 465.332249 -174.607312 
L 468.163704 -174.607312 
L 470.995158 -174.607312 
L 473.826613 -174.607312 
L 476.658068 -174.607312 
L 479.489523 -174.607312 
L 482.320977 -174.607312 
L 485.152432 -174.607312 
L 487.983887 -174.607312 
L 490.815342 -174.607312 
L 493.646796 -174.607312 
L 496.478251 -174.607312 
L 499.309706 -174.607312 
L 502.141161 -174.607312 
L 504.972616 -174.607312 
L 507.80407 -174.607312 
L 510.635525 -174.607312 
L 513.46698 -174.607312 
L 516.298435 -174.607312 
L 519.129889 -174.607312 
L 521.961344 -174.607312 
L 524.792799 -174.607312 
L 527.624254 -174.607312 
L 530.455709 -174.607312 
L 533.287163 -174.607312 
L 536.118618 -174.607312 
L 538.950073 -174.607312 
L 541.781528 -174.607312 
L 544.612982 -174.607312 
L 547.444437 -174.607312 
L 550.275892 -174.607312 
L 553.107347 -174.607312 
L 555.938802 -174.607312 
L 558.770256 -174.607312 
L 561.601711 -174.607312 
L 564.433166 -174.607312 
L 567.264621 -174.607312 
L 570.096075 -174.607312 
L 572.92753 -174.607312 
L 575.758985 -174.607312 
L 578.59044 -174.607312 
L 581.421894 -174.607312 
L 584.253349 -174.607312 
L 587.084804 -174.607312 
L 589.916259 -174.607312 
L 592.747714 -174.607312 
L 595.579168 -174.607312 
L 598.410623 -174.607312 
L 601.242078 -174.607312 
L 604.073533 -174.607312 
L 606.904987 -174.607312 
L 609.736442 -174.607312 
L 612.567897 -174.607312 
L 615.399352 -174.607312 
L 618.230807 -174.607312 
L 621.062261 -174.607312 
L 623.893716 -174.607312 
L 626.725171 -174.607312 
L 629.556626 -174.607312 
L 632.38808 -174.607312 
L 635.219535 -174.607312 
L 638.05099 -174.607312 
L 640.882445 -174.607312 
L 643.7139 -174.607312 
L 646.545354 -174.607312 
L 649.376809 -174.607312 
L 652.208264 -174.607312 
L 655.039719 -174.607312 
L 657.871173 -174.607312 
L 660.702628 -174.607312 
L 663.534083 -174.607312 
L 666.365538 -174.607312 
L 669.196992 -174.607312 
L 672.028447 -174.607312 
L 674.859902 -174.607312 
L 677.691357 -174.607312 
L 680.522812 -174.607312 
L 683.354266 -174.607312 
L 686.185721 -174.607312 
L 689.017176 -174.607312 
L 691.848631 -174.607312 
L 694.680085 -174.607312 
L 697.51154 -174.607312 
L 700.342995 -174.607312 
L 703.17445 -174.607312 
L 706.005905 -174.607312 
L 708.837359 -174.607312 
L 711.668814 -174.607312 
L 714.500269 -174.607312 
L 717.331724 -174.607312 
L 720.163178 -174.607312 
L 722.994633 -174.607312 
L 725.826088 -174.607312 
L 728.657543 -174.607312 
L 731.488997 -174.607312 
L 731.488997 -184.999687 
L 731.488997 -184.999687 
L 728.657543 -185.279021 
L 725.826088 -185.530555 
L 722.994633 -185.753054 
L 720.163178 -185.945612 
L 717.331724 -186.107649 
L 714.500269 -186.238906 
L 711.668814 -186.339434 
L 708.837359 -186.409576 
L 706.005905 -186.449955 
L 703.17445 -186.461449 
L 700.342995 -186.445179 
L 697.51154 -186.402486 
L 694.680085 -186.334915 
L 691.848631 -186.244202 
L 689.017176 -186.132256 
L 686.185721 -186.001148 
L 683.354266 -185.853095 
L 680.522812 -185.690453 
L 677.691357 -185.515702 
L 674.859902 -185.331428 
L 672.028447 -185.140309 
L 669.196992 -184.945093 
L 666.365538 -184.748576 
L 663.534083 -184.553573 
L 660.702628 -184.362882 
L 657.871173 -184.179253 
L 655.039719 -184.005348 
L 652.208264 -183.843697 
L 649.376809 -183.696655 
L 646.545354 -183.566366 
L 643.7139 -183.454718 
L 640.882445 -183.363309 
L 638.05099 -183.293421 
L 635.219535 -183.245995 
L 632.38808 -183.221621 
L 629.556626 -183.220537 
L 626.725171 -183.242638 
L 623.893716 -183.287501 
L 621.062261 -183.354411 
L 618.230807 -183.442417 
L 615.399352 -183.550375 
L 612.567897 -183.677018 
L 609.736442 -183.821025 
L 606.904987 -183.981086 
L 604.073533 -184.155984 
L 601.242078 -184.34466 
L 598.410623 -184.546282 
L 595.579168 -184.760303 
L 592.747714 -184.98651 
L 589.916259 -185.225064 
L 587.084804 -185.476518 
L 584.253349 -185.741833 
L 581.421894 -186.022369 
L 578.59044 -186.31987 
L 575.758985 -186.636427 
L 572.92753 -186.974441 
L 570.096075 -187.336566 
L 567.264621 -187.725653 
L 564.433166 -188.144685 
L 561.601711 -188.596713 
L 558.770256 -189.084794 
L 555.938802 -189.611931 
L 553.107347 -190.181021 
L 550.275892 -190.794814 
L 547.444437 -191.45587 
L 544.612982 -192.166544 
L 541.781528 -192.928959 
L 538.950073 -193.745006 
L 536.118618 -194.616342 
L 533.287163 -195.54439 
L 530.455709 -196.530354 
L 527.624254 -197.575218 
L 524.792799 -198.679757 
L 521.961344 -199.844534 
L 519.129889 -201.069892 
L 516.298435 -202.355936 
L 513.46698 -203.702508 
L 510.635525 -205.109144 
L 507.80407 -206.575027 
L 504.972616 -208.098922 
L 502.141161 -209.679113 
L 499.309706 -211.313325 
L 496.478251 -212.998647 
L 493.646796 -214.731459 
L 490.815342 -216.507358 
L 487.983887 -218.321101 
L 485.152432 -220.166553 
L 482.320977 -222.036667 
L 479.489523 -223.923467 
L 476.658068 -225.818072 
L 473.826613 -227.710737 
L 470.995158 -229.590929 
L 468.163704 -231.447426 
L 465.332249 -233.268444 
L 462.500794 -235.041797 
L 459.669339 -236.755074 
L 456.837884 -238.395836 
L 454.00643 -239.951833 
L 451.174975 -241.411224 
L 448.34352 -242.762811 
L 445.512065 -243.996259 
L 442.680611 -245.102321 
L 439.849156 -246.073036 
L 437.017701 -246.901916 
L 434.186246 -247.584105 
L 431.354791 -248.116503 
L 428.523337 -248.497864 
L 425.691882 -248.728842 
L 422.860427 -248.812011 
L 420.028972 -248.751834 
L 417.197518 -248.554591 
L 414.366063 -248.228267 
L 411.534608 -247.782402 
L 408.703153 -247.227896 
L 405.871699 -246.576795 
L 403.040244 -245.842035 
L 400.208789 -245.037176 
L 397.377334 -244.176109 
L 394.545879 -243.272767 
L 391.714425 -242.34082 
L 388.88297 -241.393385 
L 386.051515 -240.442751 
L 383.22006 -239.500115 
L 380.388606 -238.575356 
L 377.557151 -237.676835 
L 374.725696 -236.811236 
L 371.894241 -235.983454 
L 369.062786 -235.19653 
L 366.231332 -234.451628 
L 363.399877 -233.74807 
L 360.568422 -233.083422 
L 357.736967 -232.453618 
L 354.905513 -231.853136 
L 352.074058 -231.275214 
L 349.242603 -230.712089 
L 346.411148 -230.155276 
L 343.579693 -229.59585 
L 340.748239 -229.024749 
L 337.916784 -228.433068 
L 335.085329 -227.812348 
L 332.253874 -227.154848 
L 329.42242 -226.453787 
L 326.590965 -225.703553 
L 323.75951 -224.899879 
L 320.928055 -224.039963 
L 318.096601 -223.12255 
L 315.265146 -222.147962 
L 312.433691 -221.118077 
L 309.602236 -220.036265 
L 306.770781 -218.907274 
L 303.939327 -217.737085 
L 301.107872 -216.532723 
L 298.276417 -215.302057 
L 295.444962 -214.053564 
L 292.613508 -212.796095 
L 289.782053 -211.538636 
L 286.950598 -210.290068 
L 284.119143 -209.058946 
L 281.287688 -207.853293 
L 278.456234 -206.680422 
L 275.624779 -205.54678 
L 272.793324 -204.457833 
L 269.961869 -203.417977 
L 267.130415 -202.430485 
L 264.29896 -201.497492 
L 261.467505 -200.620009 
L 258.63605 -199.797968 
L 255.804595 -199.030288 
L 252.973141 -198.314974 
L 250.141686 -197.649226 
L 247.310231 -197.029561 
L 244.478776 -196.451949 
L 241.647322 -195.911947 
L 238.815867 -195.404837 
L 235.984412 -194.925759 
L 233.152957 -194.46983 
L 230.321503 -194.032266 
L 227.490048 -193.608475 
L 224.658593 -193.194147 
L 221.827138 -192.785326 
L 218.995683 -192.378462 
L 216.164229 -191.970452 
L 213.332774 -191.558663 
L 210.501319 -191.140946 
L 207.669864 -190.715626 
L 204.83841 -190.2815 
L 202.006955 -189.837803 
L 199.1755 -189.384186 
L 196.344045 -188.920678 
L 193.51259 -188.447648 
L 190.681136 -187.965761 
L 187.849681 -187.475939 
L 185.018226 -186.979318 
L 182.186771 -186.477209 
L 179.355317 -185.97106 
L 176.523862 -185.46242 
L 173.692407 -184.952908 
L 170.860952 -184.444185 
L 168.029497 -183.937927 
z
" style="stroke: #1b9e77"/>
    </defs>
    <g clip-path="url(#pf6a0c850c9)">
     <use xlink:href="#me9f580ada0" x="0" y="280.655312" style="fill: #1b9e77; fill-opacity: 0.5; stroke: #1b9e77"/>
    </g>
   </g>
   <g id="matplotlib.axis_1">
    <g id="xtick_1">
     <g id="line2d_1">
      <defs>
       <path id="m49effeb93b" d="M 0 0 
L 0 3.5 
" style="stroke: #000000; stroke-width: 0.8"/>
      </defs>
      <g>
       <use xlink:href="#m49effeb93b" x="168.029497" y="106.048" style="stroke: #000000; stroke-width: 0.8"/>
      </g>
     </g>
    </g>
    <g id="xtick_2">
     <g id="line2d_2">
      <g>
       <use xlink:href="#m49effeb93b" x="280.721397" y="106.048" style="stroke: #000000; stroke-width: 0.8"/>
      </g>
     </g>
    </g>
    <g id="xtick_3">
     <g id="line2d_3">
      <g>
       <use xlink:href="#m49effeb93b" x="393.413297" y="106.048" style="stroke: #000000; stroke-width: 0.8"/>
      </g>
     </g>
    </g>
    <g id="xtick_4">
     <g id="line2d_4">
      <g>
       <use xlink:href="#m49effeb93b" x="506.105197" y="106.048" style="stroke: #000000; stroke-width: 0.8"/>
      </g>
     </g>
    </g>
    <g id="xtick_5">
     <g id="line2d_5">
      <g>
       <use xlink:href="#m49effeb93b" x="618.797098" y="106.048" style="stroke: #000000; stroke-width: 0.8"/>
      </g>
     </g>
    </g>
    <g id="xtick_6">
     <g id="line2d_6">
      <g>
       <use xlink:href="#m49effeb93b" x="731.488997" y="106.048" style="stroke: #000000; stroke-width: 0.8"/>
      </g>
     </g>
    </g>
   </g>
   <g id="matplotlib.axis_2"/>
   <g id="line2d_7">
    <path d="M 168.029497 96.717385 
L 196.344045 91.734634 
L 210.501319 89.514367 
L 238.815867 85.250475 
L 247.310231 83.625751 
L 252.973141 82.340339 
L 258.63605 80.857345 
L 264.29896 79.157821 
L 269.961869 77.237336 
L 275.624779 75.108532 
L 284.119143 71.596366 
L 309.602236 60.619047 
L 315.265146 58.507351 
L 320.928055 56.61535 
L 326.590965 54.951759 
L 332.253874 53.500464 
L 340.748239 51.630563 
L 360.568422 47.57189 
L 366.231332 46.203685 
L 371.894241 44.671858 
L 380.388606 42.079956 
L 400.208789 35.618137 
L 405.871699 34.078518 
L 411.534608 32.872911 
L 414.366063 32.427045 
L 417.197518 32.100722 
L 420.028972 31.903479 
L 422.860427 31.843302 
L 425.691882 31.926471 
L 428.523337 32.157449 
L 431.354791 32.538809 
L 434.186246 33.071208 
L 437.017701 33.753397 
L 439.849156 34.582277 
L 442.680611 35.552991 
L 445.512065 36.659053 
L 451.174975 39.244088 
L 456.837884 42.259476 
L 462.500794 45.613515 
L 470.995158 51.064383 
L 490.815342 64.147954 
L 496.478251 67.656665 
L 502.141161 70.976199 
L 507.80407 74.080286 
L 513.46698 76.952804 
L 519.129889 79.585421 
L 524.792799 81.975555 
L 530.455709 84.124959 
L 536.118618 86.038971 
L 541.781528 87.726354 
L 547.444437 89.199442 
L 553.107347 90.474291 
L 558.770256 91.570518 
L 567.264621 92.929659 
L 575.758985 94.018886 
L 587.084804 95.178794 
L 598.410623 96.109031 
L 609.736442 96.834288 
L 621.062261 97.300901 
L 629.556626 97.434776 
L 638.05099 97.361892 
L 646.545354 97.088946 
L 657.871173 96.476059 
L 689.017176 94.523056 
L 697.51154 94.252827 
L 706.005905 94.205358 
L 714.500269 94.416407 
L 722.994633 94.902258 
L 731.488997 95.655625 
L 731.488997 95.655625 
" clip-path="url(#pf6a0c850c9)" style="fill: none; stroke: #ffffff; stroke-width: 2; stroke-linecap: square"/>
   </g>
   <g id="line2d_8">
    <path d="M 168.029497 106.048 
L 731.488997 106.048 
" style="fill: none; stroke: #000000; stroke-linecap: square"/>
   </g>
   <g id="text_1">
    <g id="patch_3">
     <path d="M 18.609375 115.457687 
L 112.82625 115.457687 
L 112.82625 96.638312 
L 18.609375 96.638312 
z
" style="fill: #ffffff; opacity: 0.5"/>
    </g>
    <!-- Medical Research -->
    <g transform="translate(22.569375 108.930812) scale(0.12 -0.12)">
     <defs>
      <path id="TimesNewRomanPSMT-4d" d="M 2619 0 
L 981 3566 
L 981 734 
Q 981 344 1066 247 
Q 1181 116 1431 116 
L 1581 116 
L 1581 0 
L 106 0 
L 106 116 
L 256 116 
Q 525 116 638 278 
Q 706 378 706 734 
L 706 3503 
Q 706 3784 644 3909 
Q 600 4000 483 4061 
Q 366 4122 106 4122 
L 106 4238 
L 1306 4238 
L 2844 922 
L 4356 4238 
L 5556 4238 
L 5556 4122 
L 5409 4122 
Q 5138 4122 5025 3959 
Q 4956 3859 4956 3503 
L 4956 734 
Q 4956 344 5044 247 
Q 5159 116 5409 116 
L 5556 116 
L 5556 0 
L 3756 0 
L 3756 116 
L 3906 116 
Q 4178 116 4288 278 
Q 4356 378 4356 734 
L 4356 3566 
L 2722 0 
L 2619 0 
z
" transform="scale(0.015625)"/>
      <path id="TimesNewRomanPSMT-65" d="M 681 1784 
Q 678 1147 991 784 
Q 1303 422 1725 422 
Q 2006 422 2214 576 
Q 2422 731 2563 1106 
L 2659 1044 
Q 2594 616 2278 264 
Q 1963 -88 1488 -88 
Q 972 -88 605 314 
Q 238 716 238 1394 
Q 238 2128 614 2539 
Q 991 2950 1559 2950 
Q 2041 2950 2350 2633 
Q 2659 2316 2659 1784 
L 681 1784 
z
M 681 1966 
L 2006 1966 
Q 1991 2241 1941 2353 
Q 1863 2528 1708 2628 
Q 1553 2728 1384 2728 
Q 1125 2728 920 2526 
Q 716 2325 681 1966 
z
" transform="scale(0.015625)"/>
      <path id="TimesNewRomanPSMT-64" d="M 2222 322 
Q 2013 103 1813 7 
Q 1613 -88 1381 -88 
Q 913 -88 563 304 
Q 213 697 213 1313 
Q 213 1928 600 2439 
Q 988 2950 1597 2950 
Q 1975 2950 2222 2709 
L 2222 3238 
Q 2222 3728 2198 3840 
Q 2175 3953 2125 3993 
Q 2075 4034 2000 4034 
Q 1919 4034 1784 3984 
L 1744 4094 
L 2597 4444 
L 2738 4444 
L 2738 1134 
Q 2738 631 2761 520 
Q 2784 409 2836 365 
Q 2888 322 2956 322 
Q 3041 322 3181 375 
L 3216 266 
L 2366 -88 
L 2222 -88 
L 2222 322 
z
M 2222 541 
L 2222 2016 
Q 2203 2228 2109 2403 
Q 2016 2578 1861 2667 
Q 1706 2756 1559 2756 
Q 1284 2756 1069 2509 
Q 784 2184 784 1559 
Q 784 928 1059 592 
Q 1334 256 1672 256 
Q 1956 256 2222 541 
z
" transform="scale(0.015625)"/>
      <path id="TimesNewRomanPSMT-69" d="M 928 4444 
Q 1059 4444 1151 4351 
Q 1244 4259 1244 4128 
Q 1244 3997 1151 3903 
Q 1059 3809 928 3809 
Q 797 3809 703 3903 
Q 609 3997 609 4128 
Q 609 4259 701 4351 
Q 794 4444 928 4444 
z
M 1188 2947 
L 1188 647 
Q 1188 378 1227 289 
Q 1266 200 1342 156 
Q 1419 113 1622 113 
L 1622 0 
L 231 0 
L 231 113 
Q 441 113 512 153 
Q 584 194 626 287 
Q 669 381 669 647 
L 669 1750 
Q 669 2216 641 2353 
Q 619 2453 572 2492 
Q 525 2531 444 2531 
Q 356 2531 231 2484 
L 188 2597 
L 1050 2947 
L 1188 2947 
z
" transform="scale(0.015625)"/>
      <path id="TimesNewRomanPSMT-63" d="M 2631 1088 
Q 2516 522 2178 217 
Q 1841 -88 1431 -88 
Q 944 -88 581 321 
Q 219 731 219 1428 
Q 219 2103 620 2525 
Q 1022 2947 1584 2947 
Q 2006 2947 2278 2723 
Q 2550 2500 2550 2259 
Q 2550 2141 2473 2067 
Q 2397 1994 2259 1994 
Q 2075 1994 1981 2113 
Q 1928 2178 1911 2362 
Q 1894 2547 1784 2644 
Q 1675 2738 1481 2738 
Q 1169 2738 978 2506 
Q 725 2200 725 1697 
Q 725 1184 976 792 
Q 1228 400 1656 400 
Q 1963 400 2206 609 
Q 2378 753 2541 1131 
L 2631 1088 
z
" transform="scale(0.015625)"/>
      <path id="TimesNewRomanPSMT-61" d="M 1822 413 
Q 1381 72 1269 19 
Q 1100 -59 909 -59 
Q 613 -59 420 144 
Q 228 347 228 678 
Q 228 888 322 1041 
Q 450 1253 767 1440 
Q 1084 1628 1822 1897 
L 1822 2009 
Q 1822 2438 1686 2597 
Q 1550 2756 1291 2756 
Q 1094 2756 978 2650 
Q 859 2544 859 2406 
L 866 2225 
Q 866 2081 792 2003 
Q 719 1925 600 1925 
Q 484 1925 411 2006 
Q 338 2088 338 2228 
Q 338 2497 613 2722 
Q 888 2947 1384 2947 
Q 1766 2947 2009 2819 
Q 2194 2722 2281 2516 
Q 2338 2381 2338 1966 
L 2338 994 
Q 2338 584 2353 492 
Q 2369 400 2405 369 
Q 2441 338 2488 338 
Q 2538 338 2575 359 
Q 2641 400 2828 588 
L 2828 413 
Q 2478 -56 2159 -56 
Q 2006 -56 1915 50 
Q 1825 156 1822 413 
z
M 1822 616 
L 1822 1706 
Q 1350 1519 1213 1441 
Q 966 1303 859 1153 
Q 753 1003 753 825 
Q 753 600 887 451 
Q 1022 303 1197 303 
Q 1434 303 1822 616 
z
" transform="scale(0.015625)"/>
      <path id="TimesNewRomanPSMT-6c" d="M 1184 4444 
L 1184 647 
Q 1184 378 1223 290 
Q 1263 203 1344 158 
Q 1425 113 1647 113 
L 1647 0 
L 244 0 
L 244 113 
Q 441 113 512 153 
Q 584 194 625 287 
Q 666 381 666 647 
L 666 3247 
Q 666 3731 644 3842 
Q 622 3953 573 3993 
Q 525 4034 450 4034 
Q 369 4034 244 3984 
L 191 4094 
L 1044 4444 
L 1184 4444 
z
" transform="scale(0.015625)"/>
      <path id="TimesNewRomanPSMT-20" transform="scale(0.015625)"/>
      <path id="TimesNewRomanPSMT-52" d="M 4325 0 
L 3194 0 
L 1759 1981 
Q 1600 1975 1500 1975 
Q 1459 1975 1412 1976 
Q 1366 1978 1316 1981 
L 1316 750 
Q 1316 350 1403 253 
Q 1522 116 1759 116 
L 1925 116 
L 1925 0 
L 109 0 
L 109 116 
L 269 116 
Q 538 116 653 291 
Q 719 388 719 750 
L 719 3488 
Q 719 3888 631 3984 
Q 509 4122 269 4122 
L 109 4122 
L 109 4238 
L 1653 4238 
Q 2328 4238 2648 4139 
Q 2969 4041 3192 3777 
Q 3416 3513 3416 3147 
Q 3416 2756 3161 2468 
Q 2906 2181 2372 2063 
L 3247 847 
Q 3547 428 3762 290 
Q 3978 153 4325 116 
L 4325 0 
z
M 1316 2178 
Q 1375 2178 1419 2176 
Q 1463 2175 1491 2175 
Q 2097 2175 2405 2437 
Q 2713 2700 2713 3106 
Q 2713 3503 2464 3751 
Q 2216 4000 1806 4000 
Q 1625 4000 1316 3941 
L 1316 2178 
z
" transform="scale(0.015625)"/>
      <path id="TimesNewRomanPSMT-73" d="M 2050 2947 
L 2050 1972 
L 1947 1972 
Q 1828 2431 1642 2597 
Q 1456 2763 1169 2763 
Q 950 2763 815 2647 
Q 681 2531 681 2391 
Q 681 2216 781 2091 
Q 878 1963 1175 1819 
L 1631 1597 
Q 2266 1288 2266 781 
Q 2266 391 1970 151 
Q 1675 -88 1309 -88 
Q 1047 -88 709 6 
Q 606 38 541 38 
Q 469 38 428 -44 
L 325 -44 
L 325 978 
L 428 978 
Q 516 541 762 319 
Q 1009 97 1316 97 
Q 1531 97 1667 223 
Q 1803 350 1803 528 
Q 1803 744 1651 891 
Q 1500 1038 1047 1263 
Q 594 1488 453 1669 
Q 313 1847 313 2119 
Q 313 2472 555 2709 
Q 797 2947 1181 2947 
Q 1350 2947 1591 2875 
Q 1750 2828 1803 2828 
Q 1853 2828 1881 2850 
Q 1909 2872 1947 2947 
L 2050 2947 
z
" transform="scale(0.015625)"/>
      <path id="TimesNewRomanPSMT-72" d="M 1038 2947 
L 1038 2303 
Q 1397 2947 1775 2947 
Q 1947 2947 2059 2842 
Q 2172 2738 2172 2600 
Q 2172 2478 2090 2393 
Q 2009 2309 1897 2309 
Q 1788 2309 1652 2417 
Q 1516 2525 1450 2525 
Q 1394 2525 1328 2463 
Q 1188 2334 1038 2041 
L 1038 669 
Q 1038 431 1097 309 
Q 1138 225 1241 169 
Q 1344 113 1538 113 
L 1538 0 
L 72 0 
L 72 113 
Q 291 113 397 181 
Q 475 231 506 341 
Q 522 394 522 644 
L 522 1753 
Q 522 2253 501 2348 
Q 481 2444 426 2487 
Q 372 2531 291 2531 
Q 194 2531 72 2484 
L 41 2597 
L 906 2947 
L 1038 2947 
z
" transform="scale(0.015625)"/>
      <path id="TimesNewRomanPSMT-68" d="M 1041 4444 
L 1041 2350 
Q 1388 2731 1591 2839 
Q 1794 2947 1997 2947 
Q 2241 2947 2416 2812 
Q 2591 2678 2675 2391 
Q 2734 2191 2734 1659 
L 2734 647 
Q 2734 375 2778 275 
Q 2809 200 2884 156 
Q 2959 113 3159 113 
L 3159 0 
L 1753 0 
L 1753 113 
L 1819 113 
Q 2019 113 2097 173 
Q 2175 234 2206 353 
Q 2216 403 2216 647 
L 2216 1659 
Q 2216 2128 2167 2275 
Q 2119 2422 2012 2495 
Q 1906 2569 1756 2569 
Q 1603 2569 1437 2487 
Q 1272 2406 1041 2159 
L 1041 647 
Q 1041 353 1073 281 
Q 1106 209 1195 161 
Q 1284 113 1503 113 
L 1503 0 
L 84 0 
L 84 113 
Q 275 113 384 172 
Q 447 203 484 290 
Q 522 378 522 647 
L 522 3238 
Q 522 3728 498 3840 
Q 475 3953 426 3993 
Q 378 4034 297 4034 
Q 231 4034 84 3984 
L 41 4094 
L 897 4444 
L 1041 4444 
z
" transform="scale(0.015625)"/>
     </defs>
     <use xlink:href="#TimesNewRomanPSMT-4d"/>
     <use xlink:href="#TimesNewRomanPSMT-65" transform="translate(88.916016 0)"/>
     <use xlink:href="#TimesNewRomanPSMT-64" transform="translate(133.300781 0)"/>
     <use xlink:href="#TimesNewRomanPSMT-69" transform="translate(183.300781 0)"/>
     <use xlink:href="#TimesNewRomanPSMT-63" transform="translate(211.083984 0)"/>
     <use xlink:href="#TimesNewRomanPSMT-61" transform="translate(255.46875 0)"/>
     <use xlink:href="#TimesNewRomanPSMT-6c" transform="translate(299.853516 0)"/>
     <use xlink:href="#TimesNewRomanPSMT-20" transform="translate(327.636719 0)"/>
     <use xlink:href="#TimesNewRomanPSMT-52" transform="translate(352.636719 0)"/>
     <use xlink:href="#TimesNewRomanPSMT-65" transform="translate(419.335938 0)"/>
     <use xlink:href="#TimesNewRomanPSMT-73" transform="translate(463.720703 0)"/>
     <use xlink:href="#TimesNewRomanPSMT-65" transform="translate(502.636719 0)"/>
     <use xlink:href="#TimesNewRomanPSMT-61" transform="translate(547.021484 0)"/>
     <use xlink:href="#TimesNewRomanPSMT-72" transform="translate(591.40625 0)"/>
     <use xlink:href="#TimesNewRomanPSMT-63" transform="translate(624.707031 0)"/>
     <use xlink:href="#TimesNewRomanPSMT-68" transform="translate(669.091797 0)"/>
    </g>
   </g>
  </g>
  <g id="axes_2">
   <g id="patch_4">
    <path d="M 168.029497 150.312 
L 731.488997 150.312 
L 731.488997 61.784 
L 168.029497 61.784 
L 168.029497 150.312 
z
" style="fill: none; opacity: 0"/>
   </g>
   <g id="FillBetweenPolyCollection_2">
    <defs>
     <path id="m4dc9b6d9ab" d="M 168.029497 -146.269929 
L 168.029497 -130.343312 
L 170.860952 -130.343312 
L 173.692407 -130.343312 
L 176.523862 -130.343312 
L 179.355317 -130.343312 
L 182.186771 -130.343312 
L 185.018226 -130.343312 
L 187.849681 -130.343312 
L 190.681136 -130.343312 
L 193.51259 -130.343312 
L 196.344045 -130.343312 
L 199.1755 -130.343312 
L 202.006955 -130.343312 
L 204.83841 -130.343312 
L 207.669864 -130.343312 
L 210.501319 -130.343312 
L 213.332774 -130.343312 
L 216.164229 -130.343312 
L 218.995683 -130.343312 
L 221.827138 -130.343312 
L 224.658593 -130.343312 
L 227.490048 -130.343312 
L 230.321503 -130.343312 
L 233.152957 -130.343312 
L 235.984412 -130.343312 
L 238.815867 -130.343312 
L 241.647322 -130.343312 
L 244.478776 -130.343312 
L 247.310231 -130.343312 
L 250.141686 -130.343312 
L 252.973141 -130.343312 
L 255.804595 -130.343312 
L 258.63605 -130.343312 
L 261.467505 -130.343312 
L 264.29896 -130.343312 
L 267.130415 -130.343312 
L 269.961869 -130.343312 
L 272.793324 -130.343312 
L 275.624779 -130.343312 
L 278.456234 -130.343312 
L 281.287688 -130.343312 
L 284.119143 -130.343312 
L 286.950598 -130.343312 
L 289.782053 -130.343312 
L 292.613508 -130.343312 
L 295.444962 -130.343312 
L 298.276417 -130.343312 
L 301.107872 -130.343312 
L 303.939327 -130.343312 
L 306.770781 -130.343312 
L 309.602236 -130.343312 
L 312.433691 -130.343312 
L 315.265146 -130.343312 
L 318.096601 -130.343312 
L 320.928055 -130.343312 
L 323.75951 -130.343312 
L 326.590965 -130.343312 
L 329.42242 -130.343312 
L 332.253874 -130.343312 
L 335.085329 -130.343312 
L 337.916784 -130.343312 
L 340.748239 -130.343312 
L 343.579693 -130.343312 
L 346.411148 -130.343312 
L 349.242603 -130.343312 
L 352.074058 -130.343312 
L 354.905513 -130.343312 
L 357.736967 -130.343312 
L 360.568422 -130.343312 
L 363.399877 -130.343312 
L 366.231332 -130.343312 
L 369.062786 -130.343312 
L 371.894241 -130.343312 
L 374.725696 -130.343312 
L 377.557151 -130.343312 
L 380.388606 -130.343312 
L 383.22006 -130.343312 
L 386.051515 -130.343312 
L 388.88297 -130.343312 
L 391.714425 -130.343312 
L 394.545879 -130.343312 
L 397.377334 -130.343312 
L 400.208789 -130.343312 
L 403.040244 -130.343312 
L 405.871699 -130.343312 
L 408.703153 -130.343312 
L 411.534608 -130.343312 
L 414.366063 -130.343312 
L 417.197518 -130.343312 
L 420.028972 -130.343312 
L 422.860427 -130.343312 
L 425.691882 -130.343312 
L 428.523337 -130.343312 
L 431.354791 -130.343312 
L 434.186246 -130.343312 
L 437.017701 -130.343312 
L 439.849156 -130.343312 
L 442.680611 -130.343312 
L 445.512065 -130.343312 
L 448.34352 -130.343312 
L 451.174975 -130.343312 
L 454.00643 -130.343312 
L 456.837884 -130.343312 
L 459.669339 -130.343312 
L 462.500794 -130.343312 
L 465.332249 -130.343312 
L 468.163704 -130.343312 
L 470.995158 -130.343312 
L 473.826613 -130.343312 
L 476.658068 -130.343312 
L 479.489523 -130.343312 
L 482.320977 -130.343312 
L 485.152432 -130.343312 
L 487.983887 -130.343312 
L 490.815342 -130.343312 
L 493.646796 -130.343312 
L 496.478251 -130.343312 
L 499.309706 -130.343312 
L 502.141161 -130.343312 
L 504.972616 -130.343312 
L 507.80407 -130.343312 
L 510.635525 -130.343312 
L 513.46698 -130.343312 
L 516.298435 -130.343312 
L 519.129889 -130.343312 
L 521.961344 -130.343312 
L 524.792799 -130.343312 
L 527.624254 -130.343312 
L 530.455709 -130.343312 
L 533.287163 -130.343312 
L 536.118618 -130.343312 
L 538.950073 -130.343312 
L 541.781528 -130.343312 
L 544.612982 -130.343312 
L 547.444437 -130.343312 
L 550.275892 -130.343312 
L 553.107347 -130.343312 
L 555.938802 -130.343312 
L 558.770256 -130.343312 
L 561.601711 -130.343312 
L 564.433166 -130.343312 
L 567.264621 -130.343312 
L 570.096075 -130.343312 
L 572.92753 -130.343312 
L 575.758985 -130.343312 
L 578.59044 -130.343312 
L 581.421894 -130.343312 
L 584.253349 -130.343312 
L 587.084804 -130.343312 
L 589.916259 -130.343312 
L 592.747714 -130.343312 
L 595.579168 -130.343312 
L 598.410623 -130.343312 
L 601.242078 -130.343312 
L 604.073533 -130.343312 
L 606.904987 -130.343312 
L 609.736442 -130.343312 
L 612.567897 -130.343312 
L 615.399352 -130.343312 
L 618.230807 -130.343312 
L 621.062261 -130.343312 
L 623.893716 -130.343312 
L 626.725171 -130.343312 
L 629.556626 -130.343312 
L 632.38808 -130.343312 
L 635.219535 -130.343312 
L 638.05099 -130.343312 
L 640.882445 -130.343312 
L 643.7139 -130.343312 
L 646.545354 -130.343312 
L 649.376809 -130.343312 
L 652.208264 -130.343312 
L 655.039719 -130.343312 
L 657.871173 -130.343312 
L 660.702628 -130.343312 
L 663.534083 -130.343312 
L 666.365538 -130.343312 
L 669.196992 -130.343312 
L 672.028447 -130.343312 
L 674.859902 -130.343312 
L 677.691357 -130.343312 
L 680.522812 -130.343312 
L 683.354266 -130.343312 
L 686.185721 -130.343312 
L 689.017176 -130.343312 
L 691.848631 -130.343312 
L 694.680085 -130.343312 
L 697.51154 -130.343312 
L 700.342995 -130.343312 
L 703.17445 -130.343312 
L 706.005905 -130.343312 
L 708.837359 -130.343312 
L 711.668814 -130.343312 
L 714.500269 -130.343312 
L 717.331724 -130.343312 
L 720.163178 -130.343312 
L 722.994633 -130.343312 
L 725.826088 -130.343312 
L 728.657543 -130.343312 
L 731.488997 -130.343312 
L 731.488997 -152.739951 
L 731.488997 -152.739951 
L 728.657543 -153.625125 
L 725.826088 -154.502551 
L 722.994633 -155.36933 
L 720.163178 -156.222582 
L 717.331724 -157.059463 
L 714.500269 -157.877189 
L 711.668814 -158.673053 
L 708.837359 -159.444446 
L 706.005905 -160.188872 
L 703.17445 -160.903973 
L 700.342995 -161.587538 
L 697.51154 -162.237522 
L 694.680085 -162.85206 
L 691.848631 -163.429481 
L 689.017176 -163.968316 
L 686.185721 -164.46731 
L 683.354266 -164.925431 
L 680.522812 -165.341877 
L 677.691357 -165.716078 
L 674.859902 -166.047702 
L 672.028447 -166.33666 
L 669.196992 -166.5831 
L 666.365538 -166.787413 
L 663.534083 -166.950224 
L 660.702628 -167.072393 
L 657.871173 -167.155009 
L 655.039719 -167.199379 
L 652.208264 -167.207025 
L 649.376809 -167.179671 
L 646.545354 -167.119231 
L 643.7139 -167.0278 
L 640.882445 -166.907638 
L 638.05099 -166.761152 
L 635.219535 -166.590885 
L 632.38808 -166.399494 
L 629.556626 -166.189731 
L 626.725171 -165.964425 
L 623.893716 -165.726458 
L 621.062261 -165.478747 
L 618.230807 -165.224214 
L 615.399352 -164.965769 
L 612.567897 -164.706281 
L 609.736442 -164.448558 
L 606.904987 -164.195318 
L 604.073533 -163.949167 
L 601.242078 -163.712574 
L 598.410623 -163.487851 
L 595.579168 -163.277125 
L 592.747714 -163.082325 
L 589.916259 -162.905158 
L 587.084804 -162.747091 
L 584.253349 -162.609344 
L 581.421894 -162.49287 
L 578.59044 -162.398352 
L 575.758985 -162.326194 
L 572.92753 -162.276522 
L 570.096075 -162.249181 
L 567.264621 -162.243744 
L 564.433166 -162.259518 
L 561.601711 -162.295558 
L 558.770256 -162.350681 
L 555.938802 -162.423485 
L 553.107347 -162.512371 
L 550.275892 -162.615569 
L 547.444437 -162.731162 
L 544.612982 -162.857118 
L 541.781528 -162.991319 
L 538.950073 -163.131593 
L 536.118618 -163.275744 
L 533.287163 -163.421584 
L 530.455709 -163.566968 
L 527.624254 -163.709816 
L 524.792799 -163.848146 
L 521.961344 -163.980101 
L 519.129889 -164.103964 
L 516.298435 -164.218185 
L 513.46698 -164.321394 
L 510.635525 -164.412411 
L 507.80407 -164.490259 
L 504.972616 -164.554163 
L 502.141161 -164.603556 
L 499.309706 -164.63807 
L 496.478251 -164.657531 
L 493.646796 -164.661949 
L 490.815342 -164.651505 
L 487.983887 -164.626532 
L 485.152432 -164.587498 
L 482.320977 -164.534985 
L 479.489523 -164.469671 
L 476.658068 -164.392305 
L 473.826613 -164.303684 
L 470.995158 -164.204636 
L 468.163704 -164.095998 
L 465.332249 -163.978596 
L 462.500794 -163.853228 
L 459.669339 -163.720653 
L 456.837884 -163.581574 
L 454.00643 -163.436633 
L 451.174975 -163.286403 
L 448.34352 -163.131382 
L 445.512065 -162.971995 
L 442.680611 -162.808597 
L 439.849156 -162.641472 
L 437.017701 -162.470846 
L 434.186246 -162.296891 
L 431.354791 -162.119736 
L 428.523337 -161.939481 
L 425.691882 -161.756205 
L 422.860427 -161.569981 
L 420.028972 -161.380889 
L 417.197518 -161.189026 
L 414.366063 -160.99452 
L 411.534608 -160.797538 
L 408.703153 -160.598298 
L 405.871699 -160.397072 
L 403.040244 -160.194198 
L 400.208789 -159.990079 
L 397.377334 -159.785188 
L 394.545879 -159.580066 
L 391.714425 -159.375324 
L 388.88297 -159.171635 
L 386.051515 -158.969733 
L 383.22006 -158.770407 
L 380.388606 -158.574488 
L 377.557151 -158.382846 
L 374.725696 -158.196379 
L 371.894241 -158.015999 
L 369.062786 -157.842626 
L 366.231332 -157.677177 
L 363.399877 -157.520549 
L 360.568422 -157.373616 
L 357.736967 -157.237212 
L 354.905513 -157.112127 
L 352.074058 -156.999089 
L 349.242603 -156.898764 
L 346.411148 -156.811741 
L 343.579693 -156.738527 
L 340.748239 -156.679538 
L 337.916784 -156.635094 
L 335.085329 -156.605415 
L 332.253874 -156.590609 
L 329.42242 -156.590676 
L 326.590965 -156.605497 
L 323.75951 -156.634837 
L 320.928055 -156.678334 
L 318.096601 -156.735508 
L 315.265146 -156.805748 
L 312.433691 -156.88832 
L 309.602236 -156.982365 
L 306.770781 -157.086895 
L 303.939327 -157.200802 
L 301.107872 -157.322856 
L 298.276417 -157.451713 
L 295.444962 -157.585914 
L 292.613508 -157.723896 
L 289.782053 -157.863998 
L 286.950598 -158.00447 
L 284.119143 -158.143482 
L 281.287688 -158.279134 
L 278.456234 -158.409473 
L 275.624779 -158.532502 
L 272.793324 -158.646196 
L 269.961869 -158.748519 
L 267.130415 -158.837441 
L 264.29896 -158.910952 
L 261.467505 -158.967084 
L 258.63605 -159.003923 
L 255.804595 -159.019635 
L 252.973141 -159.012478 
L 250.141686 -158.980821 
L 247.310231 -158.92316 
L 244.478776 -158.838136 
L 241.647322 -158.724545 
L 238.815867 -158.581356 
L 235.984412 -158.40772 
L 233.152957 -158.202979 
L 230.321503 -157.966675 
L 227.490048 -157.698554 
L 224.658593 -157.398572 
L 221.827138 -157.066892 
L 218.995683 -156.703889 
L 216.164229 -156.310142 
L 213.332774 -155.886428 
L 210.501319 -155.433721 
L 207.669864 -154.953176 
L 204.83841 -154.446121 
L 202.006955 -153.914045 
L 199.1755 -153.358583 
L 196.344045 -152.781499 
L 193.51259 -152.184676 
L 190.681136 -151.570091 
L 187.849681 -150.939804 
L 185.018226 -150.295938 
L 182.186771 -149.64066 
L 179.355317 -148.976165 
L 176.523862 -148.304659 
L 173.692407 -147.62834 
L 170.860952 -146.949384 
L 168.029497 -146.269929 
z
" style="stroke: #d95f02"/>
    </defs>
    <g clip-path="url(#pbc2994c7fa)">
     <use xlink:href="#m4dc9b6d9ab" x="0" y="280.655312" style="fill: #d95f02; fill-opacity: 0.5; stroke: #d95f02"/>
    </g>
   </g>
   <g id="matplotlib.axis_3">
    <g id="xtick_7">
     <g id="line2d_9">
      <g>
       <use xlink:href="#m49effeb93b" x="168.029497" y="150.312" style="stroke: #000000; stroke-width: 0.8"/>
      </g>
     </g>
    </g>
    <g id="xtick_8">
     <g id="line2d_10">
      <g>
       <use xlink:href="#m49effeb93b" x="280.721397" y="150.312" style="stroke: #000000; stroke-width: 0.8"/>
      </g>
     </g>
    </g>
    <g id="xtick_9">
     <g id="line2d_11">
      <g>
       <use xlink:href="#m49effeb93b" x="393.413297" y="150.312" style="stroke: #000000; stroke-width: 0.8"/>
      </g>
     </g>
    </g>
    <g id="xtick_10">
     <g id="line2d_12">
      <g>
       <use xlink:href="#m49effeb93b" x="506.105197" y="150.312" style="stroke: #000000; stroke-width: 0.8"/>
      </g>
     </g>
    </g>
    <g id="xtick_11">
     <g id="line2d_13">
      <g>
       <use xlink:href="#m49effeb93b" x="618.797098" y="150.312" style="stroke: #000000; stroke-width: 0.8"/>
      </g>
     </g>
    </g>
    <g id="xtick_12">
     <g id="line2d_14">
      <g>
       <use xlink:href="#m49effeb93b" x="731.488997" y="150.312" style="stroke: #000000; stroke-width: 0.8"/>
      </g>
     </g>
    </g>
   </g>
   <g id="matplotlib.axis_4"/>
   <g id="line2d_15">
    <path d="M 168.029497 134.385384 
L 187.849681 129.715508 
L 199.1755 127.29673 
L 207.669864 125.702137 
L 216.164229 124.345171 
L 224.658593 123.256741 
L 233.152957 122.452333 
L 241.647322 121.930768 
L 250.141686 121.674491 
L 258.63605 121.651389 
L 269.961869 121.906793 
L 284.119143 122.511831 
L 309.602236 123.672948 
L 320.928055 123.976978 
L 332.253874 124.064703 
L 343.579693 123.916786 
L 354.905513 123.543186 
L 369.062786 122.812686 
L 386.051515 121.685579 
L 434.186246 118.358422 
L 456.837884 117.073738 
L 470.995158 116.450676 
L 482.320977 116.120327 
L 493.646796 115.993363 
L 504.972616 116.101149 
L 516.298435 116.437127 
L 530.455709 117.088345 
L 553.107347 118.142941 
L 564.433166 118.395794 
L 572.92753 118.378791 
L 581.421894 118.162442 
L 589.916259 117.750155 
L 601.242078 116.942738 
L 621.062261 115.176566 
L 632.38808 114.255819 
L 640.882445 113.747675 
L 649.376809 113.475642 
L 657.871173 113.500304 
L 663.534083 113.705089 
L 669.196992 114.072212 
L 674.859902 114.60761 
L 680.522812 115.313435 
L 686.185721 116.188003 
L 691.848631 117.225832 
L 700.342995 119.067775 
L 708.837359 121.210867 
L 717.331724 123.59585 
L 728.657543 127.030187 
L 731.488997 127.915362 
L 731.488997 127.915362 
" clip-path="url(#pbc2994c7fa)" style="fill: none; stroke: #ffffff; stroke-width: 2; stroke-linecap: square"/>
   </g>
   <g id="line2d_16">
    <path d="M 168.029497 150.312 
L 731.488997 150.312 
" style="fill: none; stroke: #000000; stroke-linecap: square"/>
   </g>
   <g id="text_2">
    <g id="patch_5">
     <path d="M 16.599375 159.721687 
L 112.82625 159.721687 
L 112.82625 140.902312 
L 16.599375 140.902312 
z
" style="fill: #ffffff; opacity: 0.5"/>
    </g>
    <!-- Space Exploration -->
    <g transform="translate(20.559375 153.194812) scale(0.12 -0.12)">
     <defs>
      <path id="TimesNewRomanPSMT-53" d="M 2934 4334 
L 2934 2869 
L 2819 2869 
Q 2763 3291 2617 3541 
Q 2472 3791 2203 3937 
Q 1934 4084 1647 4084 
Q 1322 4084 1109 3886 
Q 897 3688 897 3434 
Q 897 3241 1031 3081 
Q 1225 2847 1953 2456 
Q 2547 2138 2764 1967 
Q 2981 1797 3098 1565 
Q 3216 1334 3216 1081 
Q 3216 600 2842 251 
Q 2469 -97 1881 -97 
Q 1697 -97 1534 -69 
Q 1438 -53 1133 45 
Q 828 144 747 144 
Q 669 144 623 97 
Q 578 50 556 -97 
L 441 -97 
L 441 1356 
L 556 1356 
Q 638 900 775 673 
Q 913 447 1195 297 
Q 1478 147 1816 147 
Q 2206 147 2432 353 
Q 2659 559 2659 841 
Q 2659 997 2573 1156 
Q 2488 1316 2306 1453 
Q 2184 1547 1640 1851 
Q 1097 2156 867 2337 
Q 638 2519 519 2737 
Q 400 2956 400 3219 
Q 400 3675 750 4004 
Q 1100 4334 1641 4334 
Q 1978 4334 2356 4169 
Q 2531 4091 2603 4091 
Q 2684 4091 2736 4139 
Q 2788 4188 2819 4334 
L 2934 4334 
z
" transform="scale(0.015625)"/>
      <path id="TimesNewRomanPSMT-70" d="M -6 2578 
L 875 2934 
L 994 2934 
L 994 2266 
Q 1216 2644 1439 2795 
Q 1663 2947 1909 2947 
Q 2341 2947 2628 2609 
Q 2981 2197 2981 1534 
Q 2981 794 2556 309 
Q 2206 -88 1675 -88 
Q 1444 -88 1275 -22 
Q 1150 25 994 166 
L 994 -706 
Q 994 -1000 1030 -1079 
Q 1066 -1159 1155 -1206 
Q 1244 -1253 1478 -1253 
L 1478 -1369 
L -22 -1369 
L -22 -1253 
L 56 -1253 
Q 228 -1256 350 -1188 
Q 409 -1153 442 -1076 
Q 475 -1000 475 -688 
L 475 2019 
Q 475 2297 450 2372 
Q 425 2447 370 2484 
Q 316 2522 222 2522 
Q 147 2522 31 2478 
L -6 2578 
z
M 994 2081 
L 994 1013 
Q 994 666 1022 556 
Q 1066 375 1236 237 
Q 1406 100 1666 100 
Q 1978 100 2172 344 
Q 2425 663 2425 1241 
Q 2425 1897 2138 2250 
Q 1938 2494 1663 2494 
Q 1513 2494 1366 2419 
Q 1253 2363 994 2081 
z
" transform="scale(0.015625)"/>
      <path id="TimesNewRomanPSMT-45" d="M 1338 4006 
L 1338 2331 
L 2269 2331 
Q 2631 2331 2753 2441 
Q 2916 2584 2934 2947 
L 3050 2947 
L 3050 1472 
L 2934 1472 
Q 2891 1781 2847 1869 
Q 2791 1978 2662 2040 
Q 2534 2103 2269 2103 
L 1338 2103 
L 1338 706 
Q 1338 425 1363 364 
Q 1388 303 1450 267 
Q 1513 231 1688 231 
L 2406 231 
Q 2766 231 2928 281 
Q 3091 331 3241 478 
Q 3434 672 3638 1063 
L 3763 1063 
L 3397 0 
L 131 0 
L 131 116 
L 281 116 
Q 431 116 566 188 
Q 666 238 702 338 
Q 738 438 738 747 
L 738 3500 
Q 738 3903 656 3997 
Q 544 4122 281 4122 
L 131 4122 
L 131 4238 
L 3397 4238 
L 3444 3309 
L 3322 3309 
Q 3256 3644 3176 3769 
Q 3097 3894 2941 3959 
Q 2816 4006 2500 4006 
L 1338 4006 
z
" transform="scale(0.015625)"/>
      <path id="TimesNewRomanPSMT-78" d="M 84 2863 
L 1431 2863 
L 1431 2747 
Q 1303 2747 1251 2703 
Q 1200 2659 1200 2588 
Q 1200 2513 1309 2356 
Q 1344 2306 1413 2200 
L 1616 1875 
L 1850 2200 
Q 2075 2509 2075 2591 
Q 2075 2656 2022 2701 
Q 1969 2747 1850 2747 
L 1850 2863 
L 2819 2863 
L 2819 2747 
Q 2666 2738 2553 2663 
Q 2400 2556 2134 2200 
L 1744 1678 
L 2456 653 
Q 2719 275 2831 198 
Q 2944 122 3122 113 
L 3122 0 
L 1772 0 
L 1772 113 
Q 1913 113 1991 175 
Q 2050 219 2050 291 
Q 2050 363 1850 653 
L 1431 1266 
L 972 653 
Q 759 369 759 316 
Q 759 241 829 180 
Q 900 119 1041 113 
L 1041 0 
L 106 0 
L 106 113 
Q 219 128 303 191 
Q 422 281 703 653 
L 1303 1450 
L 759 2238 
Q 528 2575 401 2661 
Q 275 2747 84 2747 
L 84 2863 
z
" transform="scale(0.015625)"/>
      <path id="TimesNewRomanPSMT-6f" d="M 1600 2947 
Q 2250 2947 2644 2453 
Q 2978 2031 2978 1484 
Q 2978 1100 2793 706 
Q 2609 313 2286 112 
Q 1963 -88 1566 -88 
Q 919 -88 538 428 
Q 216 863 216 1403 
Q 216 1797 411 2186 
Q 606 2575 925 2761 
Q 1244 2947 1600 2947 
z
M 1503 2744 
Q 1338 2744 1170 2645 
Q 1003 2547 900 2300 
Q 797 2053 797 1666 
Q 797 1041 1045 587 
Q 1294 134 1700 134 
Q 2003 134 2200 384 
Q 2397 634 2397 1244 
Q 2397 2006 2069 2444 
Q 1847 2744 1503 2744 
z
" transform="scale(0.015625)"/>
      <path id="TimesNewRomanPSMT-74" d="M 1031 3803 
L 1031 2863 
L 1700 2863 
L 1700 2644 
L 1031 2644 
L 1031 788 
Q 1031 509 1111 412 
Q 1191 316 1316 316 
Q 1419 316 1516 380 
Q 1613 444 1666 569 
L 1788 569 
Q 1678 263 1478 108 
Q 1278 -47 1066 -47 
Q 922 -47 784 33 
Q 647 113 581 261 
Q 516 409 516 719 
L 516 2644 
L 63 2644 
L 63 2747 
Q 234 2816 414 2980 
Q 594 3144 734 3369 
Q 806 3488 934 3803 
L 1031 3803 
z
" transform="scale(0.015625)"/>
      <path id="TimesNewRomanPSMT-6e" d="M 1034 2341 
Q 1538 2947 1994 2947 
Q 2228 2947 2397 2830 
Q 2566 2713 2666 2444 
Q 2734 2256 2734 1869 
L 2734 647 
Q 2734 375 2778 278 
Q 2813 200 2889 156 
Q 2966 113 3172 113 
L 3172 0 
L 1756 0 
L 1756 113 
L 1816 113 
Q 2016 113 2095 173 
Q 2175 234 2206 353 
Q 2219 400 2219 647 
L 2219 1819 
Q 2219 2209 2117 2386 
Q 2016 2563 1775 2563 
Q 1403 2563 1034 2156 
L 1034 647 
Q 1034 356 1069 288 
Q 1113 197 1189 155 
Q 1266 113 1500 113 
L 1500 0 
L 84 0 
L 84 113 
L 147 113 
Q 366 113 442 223 
Q 519 334 519 647 
L 519 1709 
Q 519 2225 495 2337 
Q 472 2450 423 2490 
Q 375 2531 294 2531 
Q 206 2531 84 2484 
L 38 2597 
L 900 2947 
L 1034 2947 
L 1034 2341 
z
" transform="scale(0.015625)"/>
     </defs>
     <use xlink:href="#TimesNewRomanPSMT-53"/>
     <use xlink:href="#TimesNewRomanPSMT-70" transform="translate(55.615234 0)"/>
     <use xlink:href="#TimesNewRomanPSMT-61" transform="translate(105.615234 0)"/>
     <use xlink:href="#TimesNewRomanPSMT-63" transform="translate(150 0)"/>
     <use xlink:href="#TimesNewRomanPSMT-65" transform="translate(194.384766 0)"/>
     <use xlink:href="#TimesNewRomanPSMT-20" transform="translate(238.769531 0)"/>
     <use xlink:href="#TimesNewRomanPSMT-45" transform="translate(263.769531 0)"/>
     <use xlink:href="#TimesNewRomanPSMT-78" transform="translate(324.853516 0)"/>
     <use xlink:href="#TimesNewRomanPSMT-70" transform="translate(374.853516 0)"/>
     <use xlink:href="#TimesNewRomanPSMT-6c" transform="translate(424.853516 0)"/>
     <use xlink:href="#TimesNewRomanPSMT-6f" transform="translate(452.636719 0)"/>
     <use xlink:href="#TimesNewRomanPSMT-72" transform="translate(502.636719 0)"/>
     <use xlink:href="#TimesNewRomanPSMT-61" transform="translate(535.9375 0)"/>
     <use xlink:href="#TimesNewRomanPSMT-74" transform="translate(580.322266 0)"/>
     <use xlink:href="#TimesNewRomanPSMT-69" transform="translate(608.105469 0)"/>
     <use xlink:href="#TimesNewRomanPSMT-6f" transform="translate(635.888672 0)"/>
     <use xlink:href="#TimesNewRomanPSMT-6e" transform="translate(685.888672 0)"/>
    </g>
   </g>
  </g>
  <g id="axes_3">
   <g id="patch_6">
    <path d="M 168.029497 194.576 
L 731.488997 194.576 
L 731.488997 106.048 
L 168.029497 106.048 
L 168.029497 194.576 
z
" style="fill: none; opacity: 0"/>
   </g>
   <g id="FillBetweenPolyCollection_3">
    <defs>
     <path id="m2c77b055dc" d="M 168.029497 -150.350129 
L 168.029497 -86.079312 
L 170.860952 -86.079312 
L 173.692407 -86.079312 
L 176.523862 -86.079312 
L 179.355317 -86.079312 
L 182.186771 -86.079312 
L 185.018226 -86.079312 
L 187.849681 -86.079312 
L 190.681136 -86.079312 
L 193.51259 -86.079312 
L 196.344045 -86.079312 
L 199.1755 -86.079312 
L 202.006955 -86.079312 
L 204.83841 -86.079312 
L 207.669864 -86.079312 
L 210.501319 -86.079312 
L 213.332774 -86.079312 
L 216.164229 -86.079312 
L 218.995683 -86.079312 
L 221.827138 -86.079312 
L 224.658593 -86.079312 
L 227.490048 -86.079312 
L 230.321503 -86.079312 
L 233.152957 -86.079312 
L 235.984412 -86.079312 
L 238.815867 -86.079312 
L 241.647322 -86.079312 
L 244.478776 -86.079312 
L 247.310231 -86.079312 
L 250.141686 -86.079312 
L 252.973141 -86.079312 
L 255.804595 -86.079312 
L 258.63605 -86.079312 
L 261.467505 -86.079312 
L 264.29896 -86.079312 
L 267.130415 -86.079312 
L 269.961869 -86.079312 
L 272.793324 -86.079312 
L 275.624779 -86.079312 
L 278.456234 -86.079312 
L 281.287688 -86.079312 
L 284.119143 -86.079312 
L 286.950598 -86.079312 
L 289.782053 -86.079312 
L 292.613508 -86.079312 
L 295.444962 -86.079312 
L 298.276417 -86.079312 
L 301.107872 -86.079312 
L 303.939327 -86.079312 
L 306.770781 -86.079312 
L 309.602236 -86.079312 
L 312.433691 -86.079312 
L 315.265146 -86.079312 
L 318.096601 -86.079312 
L 320.928055 -86.079312 
L 323.75951 -86.079312 
L 326.590965 -86.079312 
L 329.42242 -86.079312 
L 332.253874 -86.079312 
L 335.085329 -86.079312 
L 337.916784 -86.079312 
L 340.748239 -86.079312 
L 343.579693 -86.079312 
L 346.411148 -86.079312 
L 349.242603 -86.079312 
L 352.074058 -86.079312 
L 354.905513 -86.079312 
L 357.736967 -86.079312 
L 360.568422 -86.079312 
L 363.399877 -86.079312 
L 366.231332 -86.079312 
L 369.062786 -86.079312 
L 371.894241 -86.079312 
L 374.725696 -86.079312 
L 377.557151 -86.079312 
L 380.388606 -86.079312 
L 383.22006 -86.079312 
L 386.051515 -86.079312 
L 388.88297 -86.079312 
L 391.714425 -86.079312 
L 394.545879 -86.079312 
L 397.377334 -86.079312 
L 400.208789 -86.079312 
L 403.040244 -86.079312 
L 405.871699 -86.079312 
L 408.703153 -86.079312 
L 411.534608 -86.079312 
L 414.366063 -86.079312 
L 417.197518 -86.079312 
L 420.028972 -86.079312 
L 422.860427 -86.079312 
L 425.691882 -86.079312 
L 428.523337 -86.079312 
L 431.354791 -86.079312 
L 434.186246 -86.079312 
L 437.017701 -86.079312 
L 439.849156 -86.079312 
L 442.680611 -86.079312 
L 445.512065 -86.079312 
L 448.34352 -86.079312 
L 451.174975 -86.079312 
L 454.00643 -86.079312 
L 456.837884 -86.079312 
L 459.669339 -86.079312 
L 462.500794 -86.079312 
L 465.332249 -86.079312 
L 468.163704 -86.079312 
L 470.995158 -86.079312 
L 473.826613 -86.079312 
L 476.658068 -86.079312 
L 479.489523 -86.079312 
L 482.320977 -86.079312 
L 485.152432 -86.079312 
L 487.983887 -86.079312 
L 490.815342 -86.079312 
L 493.646796 -86.079312 
L 496.478251 -86.079312 
L 499.309706 -86.079312 
L 502.141161 -86.079312 
L 504.972616 -86.079312 
L 507.80407 -86.079312 
L 510.635525 -86.079312 
L 513.46698 -86.079312 
L 516.298435 -86.079312 
L 519.129889 -86.079312 
L 521.961344 -86.079312 
L 524.792799 -86.079312 
L 527.624254 -86.079312 
L 530.455709 -86.079312 
L 533.287163 -86.079312 
L 536.118618 -86.079312 
L 538.950073 -86.079312 
L 541.781528 -86.079312 
L 544.612982 -86.079312 
L 547.444437 -86.079312 
L 550.275892 -86.079312 
L 553.107347 -86.079312 
L 555.938802 -86.079312 
L 558.770256 -86.079312 
L 561.601711 -86.079312 
L 564.433166 -86.079312 
L 567.264621 -86.079312 
L 570.096075 -86.079312 
L 572.92753 -86.079312 
L 575.758985 -86.079312 
L 578.59044 -86.079312 
L 581.421894 -86.079312 
L 584.253349 -86.079312 
L 587.084804 -86.079312 
L 589.916259 -86.079312 
L 592.747714 -86.079312 
L 595.579168 -86.079312 
L 598.410623 -86.079312 
L 601.242078 -86.079312 
L 604.073533 -86.079312 
L 606.904987 -86.079312 
L 609.736442 -86.079312 
L 612.567897 -86.079312 
L 615.399352 -86.079312 
L 618.230807 -86.079312 
L 621.062261 -86.079312 
L 623.893716 -86.079312 
L 626.725171 -86.079312 
L 629.556626 -86.079312 
L 632.38808 -86.079312 
L 635.219535 -86.079312 
L 638.05099 -86.079312 
L 640.882445 -86.079312 
L 643.7139 -86.079312 
L 646.545354 -86.079312 
L 649.376809 -86.079312 
L 652.208264 -86.079312 
L 655.039719 -86.079312 
L 657.871173 -86.079312 
L 660.702628 -86.079312 
L 663.534083 -86.079312 
L 666.365538 -86.079312 
L 669.196992 -86.079312 
L 672.028447 -86.079312 
L 674.859902 -86.079312 
L 677.691357 -86.079312 
L 680.522812 -86.079312 
L 683.354266 -86.079312 
L 686.185721 -86.079312 
L 689.017176 -86.079312 
L 691.848631 -86.079312 
L 694.680085 -86.079312 
L 697.51154 -86.079312 
L 700.342995 -86.079312 
L 703.17445 -86.079312 
L 706.005905 -86.079312 
L 708.837359 -86.079312 
L 711.668814 -86.079312 
L 714.500269 -86.079312 
L 717.331724 -86.079312 
L 720.163178 -86.079312 
L 722.994633 -86.079312 
L 725.826088 -86.079312 
L 728.657543 -86.079312 
L 731.488997 -86.079312 
L 731.488997 -96.668716 
L 731.488997 -96.668716 
L 728.657543 -96.96314 
L 725.826088 -97.244938 
L 722.994633 -97.513116 
L 720.163178 -97.766773 
L 717.331724 -98.005113 
L 714.500269 -98.227445 
L 711.668814 -98.433191 
L 708.837359 -98.62189 
L 706.005905 -98.793199 
L 703.17445 -98.946892 
L 700.342995 -99.082861 
L 697.51154 -99.201116 
L 694.680085 -99.301776 
L 691.848631 -99.385069 
L 689.017176 -99.451327 
L 686.185721 -99.500977 
L 683.354266 -99.534538 
L 680.522812 -99.552607 
L 677.691357 -99.55586 
L 674.859902 -99.545036 
L 672.028447 -99.520932 
L 669.196992 -99.484395 
L 666.365538 -99.436313 
L 663.534083 -99.377606 
L 660.702628 -99.309218 
L 657.871173 -99.232111 
L 655.039719 -99.147254 
L 652.208264 -99.055622 
L 649.376809 -98.958183 
L 646.545354 -98.855895 
L 643.7139 -98.749701 
L 640.882445 -98.640521 
L 638.05099 -98.529251 
L 635.219535 -98.416755 
L 632.38808 -98.303864 
L 629.556626 -98.191368 
L 626.725171 -98.08002 
L 623.893716 -97.970526 
L 621.062261 -97.863546 
L 618.230807 -97.759694 
L 615.399352 -97.65953 
L 612.567897 -97.563566 
L 609.736442 -97.472259 
L 606.904987 -97.386015 
L 604.073533 -97.305186 
L 601.242078 -97.230071 
L 598.410623 -97.160916 
L 595.579168 -97.097914 
L 592.747714 -97.041212 
L 589.916259 -96.990903 
L 587.084804 -96.947037 
L 584.253349 -96.909617 
L 581.421894 -96.878605 
L 578.59044 -96.853926 
L 575.758985 -96.835465 
L 572.92753 -96.823077 
L 570.096075 -96.816588 
L 567.264621 -96.815796 
L 564.433166 -96.820479 
L 561.601711 -96.830393 
L 558.770256 -96.845284 
L 555.938802 -96.86488 
L 553.107347 -96.888903 
L 550.275892 -96.917071 
L 547.444437 -96.949095 
L 544.612982 -96.984688 
L 541.781528 -97.023565 
L 538.950073 -97.065445 
L 536.118618 -97.110053 
L 533.287163 -97.157121 
L 530.455709 -97.206391 
L 527.624254 -97.257617 
L 524.792799 -97.310561 
L 521.961344 -97.365003 
L 519.129889 -97.420733 
L 516.298435 -97.477557 
L 513.46698 -97.535297 
L 510.635525 -97.59379 
L 507.80407 -97.652891 
L 504.972616 -97.712473 
L 502.141161 -97.772426 
L 499.309706 -97.832661 
L 496.478251 -97.893107 
L 493.646796 -97.953714 
L 490.815342 -98.014451 
L 487.983887 -98.07531 
L 485.152432 -98.136301 
L 482.320977 -98.197456 
L 479.489523 -98.258829 
L 476.658068 -98.32049 
L 473.826613 -98.382533 
L 470.995158 -98.445064 
L 468.163704 -98.508209 
L 465.332249 -98.572108 
L 462.500794 -98.636913 
L 459.669339 -98.702788 
L 456.837884 -98.769903 
L 454.00643 -98.838436 
L 451.174975 -98.908567 
L 448.34352 -98.980478 
L 445.512065 -99.05435 
L 442.680611 -99.130359 
L 439.849156 -99.20868 
L 437.017701 -99.289481 
L 434.186246 -99.372924 
L 431.354791 -99.459166 
L 428.523337 -99.548364 
L 425.691882 -99.64067 
L 422.860427 -99.736242 
L 420.028972 -99.835244 
L 417.197518 -99.937854 
L 414.366063 -100.044274 
L 411.534608 -100.154731 
L 408.703153 -100.269496 
L 405.871699 -100.388889 
L 403.040244 -100.513292 
L 400.208789 -100.643164 
L 397.377334 -100.779051 
L 394.545879 -100.921603 
L 391.714425 -101.071586 
L 388.88297 -101.229897 
L 386.051515 -101.397577 
L 383.22006 -101.575824 
L 380.388606 -101.766005 
L 377.557151 -101.969665 
L 374.725696 -102.188534 
L 371.894241 -102.424537 
L 369.062786 -102.679791 
L 366.231332 -102.956612 
L 363.399877 -103.257504 
L 360.568422 -103.585162 
L 357.736967 -103.94245 
L 354.905513 -104.332397 
L 352.074058 -104.75817 
L 349.242603 -105.223056 
L 346.411148 -105.730431 
L 343.579693 -106.283733 
L 340.748239 -106.88642 
L 337.916784 -107.541937 
L 335.085329 -108.253668 
L 332.253874 -109.024892 
L 329.42242 -109.858734 
L 326.590965 -110.758112 
L 323.75951 -111.725687 
L 320.928055 -112.763803 
L 318.096601 -113.87444 
L 315.265146 -115.059154 
L 312.433691 -116.319025 
L 309.602236 -117.654609 
L 306.770781 -119.065886 
L 303.939327 -120.552216 
L 301.107872 -122.1123 
L 298.276417 -123.744143 
L 295.444962 -125.445024 
L 292.613508 -127.211478 
L 289.782053 -129.039275 
L 286.950598 -130.923415 
L 284.119143 -132.858131 
L 281.287688 -134.836898 
L 278.456234 -136.852449 
L 275.624779 -138.896809 
L 272.793324 -140.961332 
L 269.961869 -143.036746 
L 267.130415 -145.113212 
L 264.29896 -147.18039 
L 261.467505 -149.227513 
L 258.63605 -151.243471 
L 255.804595 -153.216895 
L 252.973141 -155.136261 
L 250.141686 -156.989981 
L 247.310231 -158.766516 
L 244.478776 -160.454479 
L 241.647322 -162.042743 
L 238.815867 -163.520554 
L 235.984412 -164.877639 
L 233.152957 -166.104305 
L 230.321503 -167.191548 
L 227.490048 -168.131144 
L 224.658593 -168.915738 
L 221.827138 -169.538926 
L 218.995683 -169.995327 
L 216.164229 -170.280638 
L 213.332774 -170.391693 
L 210.501319 -170.326492 
L 207.669864 -170.084228 
L 204.83841 -169.665302 
L 202.006955 -169.071315 
L 199.1755 -168.305059 
L 196.344045 -167.370485 
L 193.51259 -166.272661 
L 190.681136 -165.017724 
L 187.849681 -163.61281 
L 185.018226 -162.065981 
L 182.186771 -160.386141 
L 179.355317 -158.582942 
L 176.523862 -156.666688 
L 173.692407 -154.648225 
L 170.860952 -152.538836 
L 168.029497 -150.350129 
z
" style="stroke: #7570b3"/>
    </defs>
    <g clip-path="url(#pdf08d364ed)">
     <use xlink:href="#m2c77b055dc" x="0" y="280.655312" style="fill: #7570b3; fill-opacity: 0.5; stroke: #7570b3"/>
    </g>
   </g>
   <g id="matplotlib.axis_5">
    <g id="xtick_13">
     <g id="line2d_17">
      <g>
       <use xlink:href="#m49effeb93b" x="168.029497" y="194.576" style="stroke: #000000; stroke-width: 0.8"/>
      </g>
     </g>
    </g>
    <g id="xtick_14">
     <g id="line2d_18">
      <g>
       <use xlink:href="#m49effeb93b" x="280.721397" y="194.576" style="stroke: #000000; stroke-width: 0.8"/>
      </g>
     </g>
    </g>
    <g id="xtick_15">
     <g id="line2d_19">
      <g>
       <use xlink:href="#m49effeb93b" x="393.413297" y="194.576" style="stroke: #000000; stroke-width: 0.8"/>
      </g>
     </g>
    </g>
    <g id="xtick_16">
     <g id="line2d_20">
      <g>
       <use xlink:href="#m49effeb93b" x="506.105197" y="194.576" style="stroke: #000000; stroke-width: 0.8"/>
      </g>
     </g>
    </g>
    <g id="xtick_17">
     <g id="line2d_21">
      <g>
       <use xlink:href="#m49effeb93b" x="618.797098" y="194.576" style="stroke: #000000; stroke-width: 0.8"/>
      </g>
     </g>
    </g>
    <g id="xtick_18">
     <g id="line2d_22">
      <g>
       <use xlink:href="#m49effeb93b" x="731.488997" y="194.576" style="stroke: #000000; stroke-width: 0.8"/>
      </g>
     </g>
    </g>
   </g>
   <g id="matplotlib.axis_6"/>
   <g id="line2d_23">
    <path d="M 168.029497 130.305183 
L 173.692407 126.007088 
L 179.355317 122.07237 
L 185.018226 118.589332 
L 187.849681 117.042502 
L 190.681136 115.637588 
L 193.51259 114.382651 
L 196.344045 113.284828 
L 199.1755 112.350253 
L 202.006955 111.583997 
L 204.83841 110.990011 
L 207.669864 110.571084 
L 210.501319 110.32882 
L 213.332774 110.263619 
L 216.164229 110.374674 
L 218.995683 110.659986 
L 221.827138 111.116386 
L 224.658593 111.739575 
L 227.490048 112.524169 
L 230.321503 113.463764 
L 233.152957 114.551007 
L 235.984412 115.777674 
L 241.647322 118.61257 
L 247.310231 121.888796 
L 252.973141 125.519052 
L 258.63605 129.411842 
L 267.130415 135.542101 
L 281.287688 145.818415 
L 286.950598 149.731898 
L 292.613508 153.443834 
L 298.276417 156.91117 
L 303.939327 160.103096 
L 309.602236 163.000703 
L 315.265146 165.596159 
L 320.928055 167.891509 
L 326.590965 169.8972 
L 332.253874 171.630421 
L 337.916784 173.113376 
L 343.579693 174.37158 
L 349.242603 175.432257 
L 354.905513 176.322915 
L 363.399877 177.397808 
L 371.894241 178.230776 
L 383.22006 179.079488 
L 397.377334 179.876261 
L 417.197518 180.717458 
L 439.849156 181.446632 
L 470.995158 182.210249 
L 536.118618 183.54526 
L 558.770256 183.810029 
L 575.758985 183.819848 
L 592.747714 183.614101 
L 609.736442 183.183053 
L 632.38808 182.351449 
L 657.871173 181.423202 
L 672.028447 181.13438 
L 683.354266 181.120775 
L 694.680085 181.353537 
L 706.005905 181.862114 
L 717.331724 182.650199 
L 728.657543 183.692173 
L 731.488997 183.986597 
L 731.488997 183.986597 
" clip-path="url(#pdf08d364ed)" style="fill: none; stroke: #ffffff; stroke-width: 2; stroke-linecap: square"/>
   </g>
   <g id="line2d_24">
    <path d="M 168.029497 194.576 
L 731.488997 194.576 
" style="fill: none; stroke: #000000; stroke-linecap: square"/>
   </g>
   <g id="text_3">
    <g id="patch_7">
     <path d="M 34.246875 203.996937 
L 112.82625 203.996937 
L 112.82625 185.155062 
L 34.246875 185.155062 
z
" style="fill: #ffffff; opacity: 0.5"/>
    </g>
    <!-- Biotechnology -->
    <g transform="translate(38.206875 197.447562) scale(0.12 -0.12)">
     <defs>
      <path id="TimesNewRomanPSMT-42" d="M 2956 2163 
Q 3397 2069 3616 1863 
Q 3919 1575 3919 1159 
Q 3919 844 3719 555 
Q 3519 266 3170 133 
Q 2822 0 2106 0 
L 106 0 
L 106 116 
L 266 116 
Q 531 116 647 284 
Q 719 394 719 750 
L 719 3488 
Q 719 3881 628 3984 
Q 506 4122 266 4122 
L 106 4122 
L 106 4238 
L 1938 4238 
Q 2450 4238 2759 4163 
Q 3228 4050 3475 3764 
Q 3722 3478 3722 3106 
Q 3722 2788 3528 2536 
Q 3334 2284 2956 2163 
z
M 1319 2331 
Q 1434 2309 1582 2298 
Q 1731 2288 1909 2288 
Q 2366 2288 2595 2386 
Q 2825 2484 2947 2687 
Q 3069 2891 3069 3131 
Q 3069 3503 2766 3765 
Q 2463 4028 1881 4028 
Q 1569 4028 1319 3959 
L 1319 2331 
z
M 1319 306 
Q 1681 222 2034 222 
Q 2600 222 2897 476 
Q 3194 731 3194 1106 
Q 3194 1353 3059 1581 
Q 2925 1809 2622 1940 
Q 2319 2072 1872 2072 
Q 1678 2072 1540 2065 
Q 1403 2059 1319 2044 
L 1319 306 
z
" transform="scale(0.015625)"/>
      <path id="TimesNewRomanPSMT-67" d="M 966 1044 
Q 703 1172 562 1401 
Q 422 1631 422 1909 
Q 422 2334 742 2640 
Q 1063 2947 1563 2947 
Q 1972 2947 2272 2747 
L 2878 2747 
Q 3013 2747 3034 2739 
Q 3056 2731 3066 2713 
Q 3084 2684 3084 2613 
Q 3084 2531 3069 2500 
Q 3059 2484 3036 2475 
Q 3013 2466 2878 2466 
L 2506 2466 
Q 2681 2241 2681 1891 
Q 2681 1491 2375 1206 
Q 2069 922 1553 922 
Q 1341 922 1119 984 
Q 981 866 932 777 
Q 884 688 884 625 
Q 884 572 936 522 
Q 988 472 1138 450 
Q 1225 438 1575 428 
Q 2219 413 2409 384 
Q 2700 344 2873 169 
Q 3047 -6 3047 -263 
Q 3047 -616 2716 -925 
Q 2228 -1381 1444 -1381 
Q 841 -1381 425 -1109 
Q 191 -953 191 -784 
Q 191 -709 225 -634 
Q 278 -519 444 -313 
Q 466 -284 763 25 
Q 600 122 533 198 
Q 466 275 466 372 
Q 466 481 555 628 
Q 644 775 966 1044 
z
M 1509 2797 
Q 1278 2797 1122 2612 
Q 966 2428 966 2047 
Q 966 1553 1178 1281 
Q 1341 1075 1591 1075 
Q 1828 1075 1981 1253 
Q 2134 1431 2134 1813 
Q 2134 2309 1919 2591 
Q 1759 2797 1509 2797 
z
M 934 0 
Q 788 -159 713 -296 
Q 638 -434 638 -550 
Q 638 -700 819 -813 
Q 1131 -1006 1722 -1006 
Q 2284 -1006 2551 -807 
Q 2819 -609 2819 -384 
Q 2819 -222 2659 -153 
Q 2497 -84 2016 -72 
Q 1313 -53 934 0 
z
" transform="scale(0.015625)"/>
      <path id="TimesNewRomanPSMT-79" d="M 38 2863 
L 1372 2863 
L 1372 2747 
L 1306 2747 
Q 1166 2747 1095 2686 
Q 1025 2625 1025 2534 
Q 1025 2413 1128 2197 
L 1825 753 
L 2466 2334 
Q 2519 2463 2519 2588 
Q 2519 2644 2497 2672 
Q 2472 2706 2419 2726 
Q 2366 2747 2231 2747 
L 2231 2863 
L 3163 2863 
L 3163 2747 
Q 3047 2734 2984 2696 
Q 2922 2659 2847 2556 
Q 2819 2513 2741 2316 
L 1575 -541 
Q 1406 -956 1132 -1168 
Q 859 -1381 606 -1381 
Q 422 -1381 303 -1275 
Q 184 -1169 184 -1031 
Q 184 -900 270 -820 
Q 356 -741 506 -741 
Q 609 -741 788 -809 
Q 913 -856 944 -856 
Q 1038 -856 1148 -759 
Q 1259 -663 1372 -384 
L 1575 113 
L 547 2272 
Q 500 2369 397 2513 
Q 319 2622 269 2659 
Q 197 2709 38 2747 
L 38 2863 
z
" transform="scale(0.015625)"/>
     </defs>
     <use xlink:href="#TimesNewRomanPSMT-42"/>
     <use xlink:href="#TimesNewRomanPSMT-69" transform="translate(66.699219 0)"/>
     <use xlink:href="#TimesNewRomanPSMT-6f" transform="translate(94.482422 0)"/>
     <use xlink:href="#TimesNewRomanPSMT-74" transform="translate(144.482422 0)"/>
     <use xlink:href="#TimesNewRomanPSMT-65" transform="translate(172.265625 0)"/>
     <use xlink:href="#TimesNewRomanPSMT-63" transform="translate(216.650391 0)"/>
     <use xlink:href="#TimesNewRomanPSMT-68" transform="translate(261.035156 0)"/>
     <use xlink:href="#TimesNewRomanPSMT-6e" transform="translate(311.035156 0)"/>
     <use xlink:href="#TimesNewRomanPSMT-6f" transform="translate(361.035156 0)"/>
     <use xlink:href="#TimesNewRomanPSMT-6c" transform="translate(411.035156 0)"/>
     <use xlink:href="#TimesNewRomanPSMT-6f" transform="translate(438.818359 0)"/>
     <use xlink:href="#TimesNewRomanPSMT-67" transform="translate(488.818359 0)"/>
     <use xlink:href="#TimesNewRomanPSMT-79" transform="translate(538.818359 0)"/>
    </g>
   </g>
  </g>
  <g id="axes_4">
   <g id="patch_8">
    <path d="M 168.029497 238.84 
L 731.488997 238.84 
L 731.488997 150.312 
L 168.029497 150.312 
L 168.029497 238.84 
z
" style="fill: none; opacity: 0"/>
   </g>
   <g id="FillBetweenPolyCollection_4">
    <defs>
     <path id="mee3e808cd0" d="M 168.029497 -58.156617 
L 168.029497 -41.815313 
L 170.860952 -41.815313 
L 173.692407 -41.815313 
L 176.523862 -41.815313 
L 179.355317 -41.815313 
L 182.186771 -41.815313 
L 185.018226 -41.815313 
L 187.849681 -41.815313 
L 190.681136 -41.815313 
L 193.51259 -41.815313 
L 196.344045 -41.815313 
L 199.1755 -41.815313 
L 202.006955 -41.815313 
L 204.83841 -41.815313 
L 207.669864 -41.815313 
L 210.501319 -41.815313 
L 213.332774 -41.815313 
L 216.164229 -41.815313 
L 218.995683 -41.815313 
L 221.827138 -41.815313 
L 224.658593 -41.815313 
L 227.490048 -41.815313 
L 230.321503 -41.815313 
L 233.152957 -41.815313 
L 235.984412 -41.815313 
L 238.815867 -41.815313 
L 241.647322 -41.815313 
L 244.478776 -41.815313 
L 247.310231 -41.815313 
L 250.141686 -41.815313 
L 252.973141 -41.815313 
L 255.804595 -41.815313 
L 258.63605 -41.815313 
L 261.467505 -41.815313 
L 264.29896 -41.815313 
L 267.130415 -41.815313 
L 269.961869 -41.815313 
L 272.793324 -41.815313 
L 275.624779 -41.815313 
L 278.456234 -41.815313 
L 281.287688 -41.815313 
L 284.119143 -41.815313 
L 286.950598 -41.815313 
L 289.782053 -41.815313 
L 292.613508 -41.815313 
L 295.444962 -41.815313 
L 298.276417 -41.815313 
L 301.107872 -41.815313 
L 303.939327 -41.815313 
L 306.770781 -41.815313 
L 309.602236 -41.815313 
L 312.433691 -41.815313 
L 315.265146 -41.815313 
L 318.096601 -41.815313 
L 320.928055 -41.815313 
L 323.75951 -41.815313 
L 326.590965 -41.815313 
L 329.42242 -41.815313 
L 332.253874 -41.815313 
L 335.085329 -41.815313 
L 337.916784 -41.815313 
L 340.748239 -41.815313 
L 343.579693 -41.815313 
L 346.411148 -41.815313 
L 349.242603 -41.815313 
L 352.074058 -41.815313 
L 354.905513 -41.815313 
L 357.736967 -41.815313 
L 360.568422 -41.815313 
L 363.399877 -41.815313 
L 366.231332 -41.815313 
L 369.062786 -41.815313 
L 371.894241 -41.815313 
L 374.725696 -41.815313 
L 377.557151 -41.815313 
L 380.388606 -41.815313 
L 383.22006 -41.815313 
L 386.051515 -41.815313 
L 388.88297 -41.815313 
L 391.714425 -41.815313 
L 394.545879 -41.815313 
L 397.377334 -41.815313 
L 400.208789 -41.815313 
L 403.040244 -41.815313 
L 405.871699 -41.815313 
L 408.703153 -41.815313 
L 411.534608 -41.815313 
L 414.366063 -41.815313 
L 417.197518 -41.815313 
L 420.028972 -41.815313 
L 422.860427 -41.815313 
L 425.691882 -41.815313 
L 428.523337 -41.815313 
L 431.354791 -41.815313 
L 434.186246 -41.815313 
L 437.017701 -41.815313 
L 439.849156 -41.815313 
L 442.680611 -41.815313 
L 445.512065 -41.815313 
L 448.34352 -41.815313 
L 451.174975 -41.815313 
L 454.00643 -41.815313 
L 456.837884 -41.815313 
L 459.669339 -41.815313 
L 462.500794 -41.815313 
L 465.332249 -41.815313 
L 468.163704 -41.815313 
L 470.995158 -41.815313 
L 473.826613 -41.815313 
L 476.658068 -41.815313 
L 479.489523 -41.815313 
L 482.320977 -41.815313 
L 485.152432 -41.815313 
L 487.983887 -41.815313 
L 490.815342 -41.815313 
L 493.646796 -41.815313 
L 496.478251 -41.815313 
L 499.309706 -41.815313 
L 502.141161 -41.815313 
L 504.972616 -41.815313 
L 507.80407 -41.815313 
L 510.635525 -41.815313 
L 513.46698 -41.815313 
L 516.298435 -41.815313 
L 519.129889 -41.815313 
L 521.961344 -41.815313 
L 524.792799 -41.815313 
L 527.624254 -41.815313 
L 530.455709 -41.815313 
L 533.287163 -41.815313 
L 536.118618 -41.815313 
L 538.950073 -41.815313 
L 541.781528 -41.815313 
L 544.612982 -41.815313 
L 547.444437 -41.815313 
L 550.275892 -41.815313 
L 553.107347 -41.815313 
L 555.938802 -41.815313 
L 558.770256 -41.815313 
L 561.601711 -41.815313 
L 564.433166 -41.815313 
L 567.264621 -41.815313 
L 570.096075 -41.815313 
L 572.92753 -41.815313 
L 575.758985 -41.815313 
L 578.59044 -41.815313 
L 581.421894 -41.815313 
L 584.253349 -41.815313 
L 587.084804 -41.815313 
L 589.916259 -41.815313 
L 592.747714 -41.815313 
L 595.579168 -41.815313 
L 598.410623 -41.815313 
L 601.242078 -41.815313 
L 604.073533 -41.815313 
L 606.904987 -41.815313 
L 609.736442 -41.815313 
L 612.567897 -41.815313 
L 615.399352 -41.815313 
L 618.230807 -41.815313 
L 621.062261 -41.815313 
L 623.893716 -41.815313 
L 626.725171 -41.815313 
L 629.556626 -41.815313 
L 632.38808 -41.815313 
L 635.219535 -41.815313 
L 638.05099 -41.815313 
L 640.882445 -41.815313 
L 643.7139 -41.815313 
L 646.545354 -41.815313 
L 649.376809 -41.815313 
L 652.208264 -41.815313 
L 655.039719 -41.815313 
L 657.871173 -41.815313 
L 660.702628 -41.815313 
L 663.534083 -41.815313 
L 666.365538 -41.815313 
L 669.196992 -41.815313 
L 672.028447 -41.815313 
L 674.859902 -41.815313 
L 677.691357 -41.815313 
L 680.522812 -41.815313 
L 683.354266 -41.815313 
L 686.185721 -41.815313 
L 689.017176 -41.815313 
L 691.848631 -41.815313 
L 694.680085 -41.815313 
L 697.51154 -41.815313 
L 700.342995 -41.815313 
L 703.17445 -41.815313 
L 706.005905 -41.815313 
L 708.837359 -41.815313 
L 711.668814 -41.815313 
L 714.500269 -41.815313 
L 717.331724 -41.815313 
L 720.163178 -41.815313 
L 722.994633 -41.815313 
L 725.826088 -41.815313 
L 728.657543 -41.815313 
L 731.488997 -41.815313 
L 731.488997 -64.495501 
L 731.488997 -64.495501 
L 728.657543 -65.147477 
L 725.826088 -65.782563 
L 722.994633 -66.399337 
L 720.163178 -66.996502 
L 717.331724 -67.5729 
L 714.500269 -68.12751 
L 711.668814 -68.659459 
L 708.837359 -69.168016 
L 706.005905 -69.652598 
L 703.17445 -70.112768 
L 700.342995 -70.548231 
L 697.51154 -70.958833 
L 694.680085 -71.344558 
L 691.848631 -71.70552 
L 689.017176 -72.041963 
L 686.185721 -72.354248 
L 683.354266 -72.642856 
L 680.522812 -72.908375 
L 677.691357 -73.151494 
L 674.859902 -73.372999 
L 672.028447 -73.573766 
L 669.196992 -73.754752 
L 666.365538 -73.91699 
L 663.534083 -74.061579 
L 660.702628 -74.189684 
L 657.871173 -74.302522 
L 655.039719 -74.401356 
L 652.208264 -74.487491 
L 649.376809 -74.562263 
L 646.545354 -74.627034 
L 643.7139 -74.68318 
L 640.882445 -74.732086 
L 638.05099 -74.775133 
L 635.219535 -74.813696 
L 632.38808 -74.849124 
L 629.556626 -74.88274 
L 626.725171 -74.915825 
L 623.893716 -74.949608 
L 621.062261 -74.985258 
L 618.230807 -75.023872 
L 615.399352 -75.066466 
L 612.567897 -75.113963 
L 609.736442 -75.167186 
L 606.904987 -75.226847 
L 604.073533 -75.293542 
L 601.242078 -75.367741 
L 598.410623 -75.449782 
L 595.579168 -75.539868 
L 592.747714 -75.638063 
L 589.916259 -75.744288 
L 587.084804 -75.858323 
L 584.253349 -75.979803 
L 581.421894 -76.108228 
L 578.59044 -76.242957 
L 575.758985 -76.383223 
L 572.92753 -76.528132 
L 570.096075 -76.676675 
L 567.264621 -76.827738 
L 564.433166 -76.98011 
L 561.601711 -77.132495 
L 558.770256 -77.283526 
L 555.938802 -77.431777 
L 553.107347 -77.575777 
L 550.275892 -77.714025 
L 547.444437 -77.845004 
L 544.612982 -77.967194 
L 541.781528 -78.079087 
L 538.950073 -78.179204 
L 536.118618 -78.266105 
L 533.287163 -78.338404 
L 530.455709 -78.394783 
L 527.624254 -78.434 
L 524.792799 -78.454904 
L 521.961344 -78.456445 
L 519.129889 -78.43768 
L 516.298435 -78.397784 
L 513.46698 -78.336057 
L 510.635525 -78.251929 
L 507.80407 -78.144967 
L 504.972616 -78.014876 
L 502.141161 -77.861504 
L 499.309706 -77.684844 
L 496.478251 -77.485034 
L 493.646796 -77.262356 
L 490.815342 -77.017236 
L 487.983887 -76.750241 
L 485.152432 -76.462077 
L 482.320977 -76.153582 
L 479.489523 -75.825726 
L 476.658068 -75.4796 
L 473.826613 -75.116412 
L 470.995158 -74.737482 
L 468.163704 -74.34423 
L 465.332249 -73.938172 
L 462.500794 -73.520908 
L 459.669339 -73.094114 
L 456.837884 -72.659534 
L 454.00643 -72.218967 
L 451.174975 -71.77426 
L 448.34352 -71.327293 
L 445.512065 -70.879976 
L 442.680611 -70.434232 
L 439.849156 -69.991987 
L 437.017701 -69.555164 
L 434.186246 -69.125667 
L 431.354791 -68.705374 
L 428.523337 -68.296127 
L 425.691882 -67.89972 
L 422.860427 -67.51789 
L 420.028972 -67.152309 
L 417.197518 -66.804573 
L 414.366063 -66.476195 
L 411.534608 -66.168596 
L 408.703153 -65.883099 
L 405.871699 -65.620918 
L 403.040244 -65.383158 
L 400.208789 -65.1708 
L 397.377334 -64.984707 
L 394.545879 -64.825608 
L 391.714425 -64.694103 
L 388.88297 -64.590656 
L 386.051515 -64.515593 
L 383.22006 -64.469101 
L 380.388606 -64.451228 
L 377.557151 -64.461882 
L 374.725696 -64.500834 
L 371.894241 -64.567716 
L 369.062786 -64.662029 
L 366.231332 -64.783142 
L 363.399877 -64.930298 
L 360.568422 -65.102618 
L 357.736967 -65.299107 
L 354.905513 -65.518659 
L 352.074058 -65.760063 
L 349.242603 -66.022012 
L 346.411148 -66.303105 
L 343.579693 -66.60186 
L 340.748239 -66.916713 
L 337.916784 -67.246035 
L 335.085329 -67.588131 
L 332.253874 -67.941248 
L 329.42242 -68.303587 
L 326.590965 -68.673302 
L 323.75951 -69.048513 
L 320.928055 -69.427305 
L 318.096601 -69.807741 
L 315.265146 -70.187863 
L 312.433691 -70.565697 
L 309.602236 -70.939262 
L 306.770781 -71.306572 
L 303.939327 -71.665643 
L 301.107872 -72.014496 
L 298.276417 -72.351166 
L 295.444962 -72.673705 
L 292.613508 -72.980191 
L 289.782053 -73.268728 
L 286.950598 -73.537463 
L 284.119143 -73.784585 
L 281.287688 -74.008334 
L 278.456234 -74.207015 
L 275.624779 -74.378998 
L 272.793324 -74.522735 
L 269.961869 -74.636765 
L 267.130415 -74.719723 
L 264.29896 -74.770355 
L 261.467505 -74.78752 
L 258.63605 -74.770207 
L 255.804595 -74.717539 
L 252.973141 -74.628786 
L 250.141686 -74.503368 
L 247.310231 -74.34087 
L 244.478776 -74.14104 
L 241.647322 -73.9038 
L 238.815867 -73.629249 
L 235.984412 -73.317664 
L 233.152957 -72.969504 
L 230.321503 -72.585407 
L 227.490048 -72.16619 
L 224.658593 -71.712845 
L 221.827138 -71.226533 
L 218.995683 -70.708579 
L 216.164229 -70.160463 
L 213.332774 -69.583807 
L 210.501319 -68.980371 
L 207.669864 -68.352034 
L 204.83841 -67.700783 
L 202.006955 -67.028701 
L 199.1755 -66.337947 
L 196.344045 -65.630744 
L 193.51259 -64.909364 
L 190.681136 -64.176108 
L 187.849681 -63.433293 
L 185.018226 -62.683234 
L 182.186771 -61.928233 
L 179.355317 -61.170557 
L 176.523862 -60.412429 
L 173.692407 -59.656015 
L 170.860952 -58.903407 
L 168.029497 -58.156617 
z
" style="stroke: #e7298a"/>
    </defs>
    <g clip-path="url(#p387a86cc0d)">
     <use xlink:href="#mee3e808cd0" x="0" y="280.655312" style="fill: #e7298a; fill-opacity: 0.5; stroke: #e7298a"/>
    </g>
   </g>
   <g id="matplotlib.axis_7">
    <g id="xtick_19">
     <g id="line2d_25">
      <g>
       <use xlink:href="#m49effeb93b" x="168.029497" y="238.84" style="stroke: #000000; stroke-width: 0.8"/>
      </g>
     </g>
     <g id="text_4">
      <!-- 0.0 -->
      <g transform="translate(160.529497 254.1725) scale(0.12 -0.12)">
       <defs>
        <path id="TimesNewRomanPSMT-30" d="M 231 2094 
Q 231 2819 450 3342 
Q 669 3866 1031 4122 
Q 1313 4325 1613 4325 
Q 2100 4325 2488 3828 
Q 2972 3213 2972 2159 
Q 2972 1422 2759 906 
Q 2547 391 2217 158 
Q 1888 -75 1581 -75 
Q 975 -75 572 641 
Q 231 1244 231 2094 
z
M 844 2016 
Q 844 1141 1059 588 
Q 1238 122 1591 122 
Q 1759 122 1940 273 
Q 2122 425 2216 781 
Q 2359 1319 2359 2297 
Q 2359 3022 2209 3506 
Q 2097 3866 1919 4016 
Q 1791 4119 1609 4119 
Q 1397 4119 1231 3928 
Q 1006 3669 925 3112 
Q 844 2556 844 2016 
z
" transform="scale(0.015625)"/>
        <path id="TimesNewRomanPSMT-2e" d="M 800 606 
Q 947 606 1047 504 
Q 1147 403 1147 259 
Q 1147 116 1045 14 
Q 944 -88 800 -88 
Q 656 -88 554 14 
Q 453 116 453 259 
Q 453 406 554 506 
Q 656 606 800 606 
z
" transform="scale(0.015625)"/>
       </defs>
       <use xlink:href="#TimesNewRomanPSMT-30"/>
       <use xlink:href="#TimesNewRomanPSMT-2e" transform="translate(50 0)"/>
       <use xlink:href="#TimesNewRomanPSMT-30" transform="translate(75 0)"/>
      </g>
     </g>
    </g>
    <g id="xtick_20">
     <g id="line2d_26">
      <g>
       <use xlink:href="#m49effeb93b" x="280.721397" y="238.84" style="stroke: #000000; stroke-width: 0.8"/>
      </g>
     </g>
     <g id="text_5">
      <!-- 0.2 -->
      <g transform="translate(273.221397 254.1725) scale(0.12 -0.12)">
       <defs>
        <path id="TimesNewRomanPSMT-32" d="M 2934 816 
L 2638 0 
L 138 0 
L 138 116 
Q 1241 1122 1691 1759 
Q 2141 2397 2141 2925 
Q 2141 3328 1894 3587 
Q 1647 3847 1303 3847 
Q 991 3847 742 3664 
Q 494 3481 375 3128 
L 259 3128 
Q 338 3706 661 4015 
Q 984 4325 1469 4325 
Q 1984 4325 2329 3994 
Q 2675 3663 2675 3213 
Q 2675 2891 2525 2569 
Q 2294 2063 1775 1497 
Q 997 647 803 472 
L 1909 472 
Q 2247 472 2383 497 
Q 2519 522 2628 598 
Q 2738 675 2819 816 
L 2934 816 
z
" transform="scale(0.015625)"/>
       </defs>
       <use xlink:href="#TimesNewRomanPSMT-30"/>
       <use xlink:href="#TimesNewRomanPSMT-2e" transform="translate(50 0)"/>
       <use xlink:href="#TimesNewRomanPSMT-32" transform="translate(75 0)"/>
      </g>
     </g>
    </g>
    <g id="xtick_21">
     <g id="line2d_27">
      <g>
       <use xlink:href="#m49effeb93b" x="393.413297" y="238.84" style="stroke: #000000; stroke-width: 0.8"/>
      </g>
     </g>
     <g id="text_6">
      <!-- 0.4 -->
      <g transform="translate(385.913297 254.1725) scale(0.12 -0.12)">
       <defs>
        <path id="TimesNewRomanPSMT-34" d="M 2978 1563 
L 2978 1119 
L 2409 1119 
L 2409 0 
L 1894 0 
L 1894 1119 
L 100 1119 
L 100 1519 
L 2066 4325 
L 2409 4325 
L 2409 1563 
L 2978 1563 
z
M 1894 1563 
L 1894 3666 
L 406 1563 
L 1894 1563 
z
" transform="scale(0.015625)"/>
       </defs>
       <use xlink:href="#TimesNewRomanPSMT-30"/>
       <use xlink:href="#TimesNewRomanPSMT-2e" transform="translate(50 0)"/>
       <use xlink:href="#TimesNewRomanPSMT-34" transform="translate(75 0)"/>
      </g>
     </g>
    </g>
    <g id="xtick_22">
     <g id="line2d_28">
      <g>
       <use xlink:href="#m49effeb93b" x="506.105197" y="238.84" style="stroke: #000000; stroke-width: 0.8"/>
      </g>
     </g>
     <g id="text_7">
      <!-- 0.6 -->
      <g transform="translate(498.605197 254.1725) scale(0.12 -0.12)">
       <defs>
        <path id="TimesNewRomanPSMT-36" d="M 2869 4325 
L 2869 4209 
Q 2456 4169 2195 4045 
Q 1934 3922 1679 3669 
Q 1425 3416 1258 3105 
Q 1091 2794 978 2366 
Q 1428 2675 1881 2675 
Q 2316 2675 2634 2325 
Q 2953 1975 2953 1425 
Q 2953 894 2631 456 
Q 2244 -75 1606 -75 
Q 1172 -75 869 213 
Q 275 772 275 1663 
Q 275 2231 503 2743 
Q 731 3256 1154 3653 
Q 1578 4050 1965 4187 
Q 2353 4325 2688 4325 
L 2869 4325 
z
M 925 2138 
Q 869 1716 869 1456 
Q 869 1156 980 804 
Q 1091 453 1309 247 
Q 1469 100 1697 100 
Q 1969 100 2183 356 
Q 2397 613 2397 1088 
Q 2397 1622 2184 2012 
Q 1972 2403 1581 2403 
Q 1463 2403 1327 2353 
Q 1191 2303 925 2138 
z
" transform="scale(0.015625)"/>
       </defs>
       <use xlink:href="#TimesNewRomanPSMT-30"/>
       <use xlink:href="#TimesNewRomanPSMT-2e" transform="translate(50 0)"/>
       <use xlink:href="#TimesNewRomanPSMT-36" transform="translate(75 0)"/>
      </g>
     </g>
    </g>
    <g id="xtick_23">
     <g id="line2d_29">
      <g>
       <use xlink:href="#m49effeb93b" x="618.797098" y="238.84" style="stroke: #000000; stroke-width: 0.8"/>
      </g>
     </g>
     <g id="text_8">
      <!-- 0.8 -->
      <g transform="translate(611.297098 254.1725) scale(0.12 -0.12)">
       <defs>
        <path id="TimesNewRomanPSMT-38" d="M 1228 2134 
Q 725 2547 579 2797 
Q 434 3047 434 3316 
Q 434 3728 753 4026 
Q 1072 4325 1600 4325 
Q 2113 4325 2425 4047 
Q 2738 3769 2738 3413 
Q 2738 3175 2569 2928 
Q 2400 2681 1866 2347 
Q 2416 1922 2594 1678 
Q 2831 1359 2831 1006 
Q 2831 559 2490 242 
Q 2150 -75 1597 -75 
Q 994 -75 656 303 
Q 388 606 388 966 
Q 388 1247 577 1523 
Q 766 1800 1228 2134 
z
M 1719 2469 
Q 2094 2806 2194 3001 
Q 2294 3197 2294 3444 
Q 2294 3772 2109 3958 
Q 1925 4144 1606 4144 
Q 1288 4144 1088 3959 
Q 888 3775 888 3528 
Q 888 3366 970 3203 
Q 1053 3041 1206 2894 
L 1719 2469 
z
M 1375 2016 
Q 1116 1797 991 1539 
Q 866 1281 866 981 
Q 866 578 1086 336 
Q 1306 94 1647 94 
Q 1984 94 2187 284 
Q 2391 475 2391 747 
Q 2391 972 2272 1150 
Q 2050 1481 1375 2016 
z
" transform="scale(0.015625)"/>
       </defs>
       <use xlink:href="#TimesNewRomanPSMT-30"/>
       <use xlink:href="#TimesNewRomanPSMT-2e" transform="translate(50 0)"/>
       <use xlink:href="#TimesNewRomanPSMT-38" transform="translate(75 0)"/>
      </g>
     </g>
    </g>
    <g id="xtick_24">
     <g id="line2d_30">
      <g>
       <use xlink:href="#m49effeb93b" x="731.488997" y="238.84" style="stroke: #000000; stroke-width: 0.8"/>
      </g>
     </g>
     <g id="text_9">
      <!-- 1.0 -->
      <g transform="translate(723.988997 254.1725) scale(0.12 -0.12)">
       <defs>
        <path id="TimesNewRomanPSMT-31" d="M 750 3822 
L 1781 4325 
L 1884 4325 
L 1884 747 
Q 1884 391 1914 303 
Q 1944 216 2037 169 
Q 2131 122 2419 116 
L 2419 0 
L 825 0 
L 825 116 
Q 1125 122 1212 167 
Q 1300 213 1334 289 
Q 1369 366 1369 747 
L 1369 3034 
Q 1369 3497 1338 3628 
Q 1316 3728 1258 3775 
Q 1200 3822 1119 3822 
Q 1003 3822 797 3725 
L 750 3822 
z
" transform="scale(0.015625)"/>
       </defs>
       <use xlink:href="#TimesNewRomanPSMT-31"/>
       <use xlink:href="#TimesNewRomanPSMT-2e" transform="translate(50 0)"/>
       <use xlink:href="#TimesNewRomanPSMT-30" transform="translate(75 0)"/>
      </g>
     </g>
    </g>
    <g id="text_10">
     <!-- Value -->
     <g transform="translate(433.82331 270.460625) scale(0.14 -0.14)">
      <defs>
       <path id="TimesNewRomanPSMT-56" d="M 4544 4238 
L 4544 4122 
Q 4319 4081 4203 3978 
Q 4038 3825 3909 3509 
L 2431 -97 
L 2316 -97 
L 728 3556 
Q 606 3838 556 3900 
Q 478 3997 364 4051 
Q 250 4106 56 4122 
L 56 4238 
L 1788 4238 
L 1788 4122 
Q 1494 4094 1406 4022 
Q 1319 3950 1319 3838 
Q 1319 3681 1463 3350 
L 2541 866 
L 3541 3319 
Q 3688 3681 3688 3822 
Q 3688 3913 3597 3995 
Q 3506 4078 3291 4113 
Q 3275 4116 3238 4122 
L 3238 4238 
L 4544 4238 
z
" transform="scale(0.015625)"/>
       <path id="TimesNewRomanPSMT-75" d="M 2709 2863 
L 2709 1128 
Q 2709 631 2732 520 
Q 2756 409 2807 365 
Q 2859 322 2928 322 
Q 3025 322 3147 375 
L 3191 266 
L 2334 -88 
L 2194 -88 
L 2194 519 
Q 1825 119 1631 15 
Q 1438 -88 1222 -88 
Q 981 -88 804 51 
Q 628 191 559 409 
Q 491 628 491 1028 
L 491 2306 
Q 491 2509 447 2587 
Q 403 2666 317 2708 
Q 231 2750 6 2747 
L 6 2863 
L 1009 2863 
L 1009 947 
Q 1009 547 1148 422 
Q 1288 297 1484 297 
Q 1619 297 1789 381 
Q 1959 466 2194 703 
L 2194 2325 
Q 2194 2569 2105 2655 
Q 2016 2741 1734 2747 
L 1734 2863 
L 2709 2863 
z
" transform="scale(0.015625)"/>
      </defs>
      <use xlink:href="#TimesNewRomanPSMT-56"/>
      <use xlink:href="#TimesNewRomanPSMT-61" transform="translate(61.091797 0)"/>
      <use xlink:href="#TimesNewRomanPSMT-6c" transform="translate(105.476562 0)"/>
      <use xlink:href="#TimesNewRomanPSMT-75" transform="translate(133.259766 0)"/>
      <use xlink:href="#TimesNewRomanPSMT-65" transform="translate(183.259766 0)"/>
     </g>
    </g>
    <g id="text_11">
     <!-- 1e8 -->
     <g transform="translate(717.049935 266.683125) scale(0.1 -0.1)">
      <use xlink:href="#TimesNewRomanPSMT-31"/>
      <use xlink:href="#TimesNewRomanPSMT-65" transform="translate(50 0)"/>
      <use xlink:href="#TimesNewRomanPSMT-38" transform="translate(94.384766 0)"/>
     </g>
    </g>
   </g>
   <g id="matplotlib.axis_8"/>
   <g id="line2d_31">
    <path d="M 168.029497 222.498696 
L 202.006955 213.626612 
L 210.501319 211.674941 
L 218.995683 209.946733 
L 227.490048 208.489123 
L 235.984412 207.337649 
L 244.478776 206.514273 
L 250.141686 206.151944 
L 258.63605 205.885106 
L 267.130415 205.935589 
L 275.624779 206.276314 
L 284.119143 206.870728 
L 292.613508 207.675122 
L 303.939327 208.98967 
L 323.75951 211.6068 
L 337.916784 213.409277 
L 349.242603 214.6333 
L 357.736967 215.356205 
L 366.231332 215.87217 
L 374.725696 216.154479 
L 383.22006 216.186212 
L 391.714425 215.96121 
L 400.208789 215.484512 
L 408.703153 214.772214 
L 417.197518 213.85074 
L 428.523337 212.359185 
L 442.680611 210.221081 
L 468.163704 206.311083 
L 479.489523 204.829586 
L 487.983887 203.905071 
L 496.478251 203.170279 
L 504.972616 202.640437 
L 513.46698 202.319255 
L 521.961344 202.198867 
L 530.455709 202.26053 
L 541.781528 202.576226 
L 555.938802 203.223536 
L 589.916259 204.911024 
L 604.073533 205.36177 
L 621.062261 205.670055 
L 652.208264 206.167822 
L 663.534083 206.593733 
L 674.859902 207.282313 
L 683.354266 208.012456 
L 691.848631 208.949792 
L 700.342995 210.107081 
L 708.837359 211.487297 
L 717.331724 213.082413 
L 725.826088 214.872749 
L 731.488997 216.159812 
L 731.488997 216.159812 
" clip-path="url(#p387a86cc0d)" style="fill: none; stroke: #ffffff; stroke-width: 2; stroke-linecap: square"/>
   </g>
   <g id="line2d_32">
    <path d="M 168.029497 238.84 
L 731.488997 238.84 
" style="fill: none; stroke: #000000; stroke-linecap: square"/>
   </g>
   <g id="text_12">
    <g id="patch_9">
     <path d="M 3.24 248.260937 
L 112.82625 248.260937 
L 112.82625 229.419062 
L 3.24 229.419062 
z
" style="fill: #ffffff; opacity: 0.5"/>
    </g>
    <!-- Quantum Computing -->
    <g transform="translate(7.2 241.711562) scale(0.12 -0.12)">
     <defs>
      <path id="TimesNewRomanPSMT-51" d="M 2819 -47 
Q 3138 -597 3508 -856 
Q 3878 -1116 4350 -1153 
L 4350 -1253 
Q 3919 -1238 3428 -1080 
Q 2938 -922 2498 -642 
Q 2059 -363 1741 -47 
Q 1291 134 1028 338 
Q 647 641 436 1083 
Q 225 1525 225 2128 
Q 225 3078 840 3706 
Q 1456 4334 2331 4334 
Q 3163 4334 3770 3704 
Q 4378 3075 4378 2116 
Q 4378 1338 3945 750 
Q 3513 163 2819 -47 
z
M 2294 4094 
Q 1725 4094 1378 3688 
Q 941 3178 941 2128 
Q 941 1100 1384 544 
Q 1728 116 2294 116 
Q 2881 116 3241 544 
Q 3663 1050 3663 2038 
Q 3663 2797 3431 3316 
Q 3253 3716 2958 3905 
Q 2663 4094 2294 4094 
z
" transform="scale(0.015625)"/>
      <path id="TimesNewRomanPSMT-6d" d="M 1050 2338 
Q 1363 2650 1419 2697 
Q 1559 2816 1721 2881 
Q 1884 2947 2044 2947 
Q 2313 2947 2506 2790 
Q 2700 2634 2766 2338 
Q 3088 2713 3309 2830 
Q 3531 2947 3766 2947 
Q 3994 2947 4170 2830 
Q 4347 2713 4450 2447 
Q 4519 2266 4519 1878 
L 4519 647 
Q 4519 378 4559 278 
Q 4591 209 4675 161 
Q 4759 113 4950 113 
L 4950 0 
L 3538 0 
L 3538 113 
L 3597 113 
Q 3781 113 3884 184 
Q 3956 234 3988 344 
Q 4000 397 4000 647 
L 4000 1878 
Q 4000 2228 3916 2372 
Q 3794 2572 3525 2572 
Q 3359 2572 3192 2489 
Q 3025 2406 2788 2181 
L 2781 2147 
L 2788 2013 
L 2788 647 
Q 2788 353 2820 281 
Q 2853 209 2943 161 
Q 3034 113 3253 113 
L 3253 0 
L 1806 0 
L 1806 113 
Q 2044 113 2133 169 
Q 2222 225 2256 338 
Q 2272 391 2272 647 
L 2272 1878 
Q 2272 2228 2169 2381 
Q 2031 2581 1784 2581 
Q 1616 2581 1450 2491 
Q 1191 2353 1050 2181 
L 1050 647 
Q 1050 366 1089 281 
Q 1128 197 1204 155 
Q 1281 113 1516 113 
L 1516 0 
L 100 0 
L 100 113 
Q 297 113 375 155 
Q 453 197 493 289 
Q 534 381 534 647 
L 534 1741 
Q 534 2213 506 2350 
Q 484 2453 437 2492 
Q 391 2531 309 2531 
Q 222 2531 100 2484 
L 53 2597 
L 916 2947 
L 1050 2947 
L 1050 2338 
z
" transform="scale(0.015625)"/>
      <path id="TimesNewRomanPSMT-43" d="M 3853 4334 
L 3950 2894 
L 3853 2894 
Q 3659 3541 3300 3825 
Q 2941 4109 2438 4109 
Q 2016 4109 1675 3895 
Q 1334 3681 1139 3212 
Q 944 2744 944 2047 
Q 944 1472 1128 1050 
Q 1313 628 1683 403 
Q 2053 178 2528 178 
Q 2941 178 3256 354 
Q 3572 531 3950 1056 
L 4047 994 
Q 3728 428 3303 165 
Q 2878 -97 2294 -97 
Q 1241 -97 663 684 
Q 231 1266 231 2053 
Q 231 2688 515 3219 
Q 800 3750 1298 4042 
Q 1797 4334 2388 4334 
Q 2847 4334 3294 4109 
Q 3425 4041 3481 4041 
Q 3566 4041 3628 4100 
Q 3709 4184 3744 4334 
L 3853 4334 
z
" transform="scale(0.015625)"/>
     </defs>
     <use xlink:href="#TimesNewRomanPSMT-51"/>
     <use xlink:href="#TimesNewRomanPSMT-75" transform="translate(72.216797 0)"/>
     <use xlink:href="#TimesNewRomanPSMT-61" transform="translate(122.216797 0)"/>
     <use xlink:href="#TimesNewRomanPSMT-6e" transform="translate(166.601562 0)"/>
     <use xlink:href="#TimesNewRomanPSMT-74" transform="translate(216.601562 0)"/>
     <use xlink:href="#TimesNewRomanPSMT-75" transform="translate(244.384766 0)"/>
     <use xlink:href="#TimesNewRomanPSMT-6d" transform="translate(294.384766 0)"/>
     <use xlink:href="#TimesNewRomanPSMT-20" transform="translate(372.167969 0)"/>
     <use xlink:href="#TimesNewRomanPSMT-43" transform="translate(397.167969 0)"/>
     <use xlink:href="#TimesNewRomanPSMT-6f" transform="translate(463.867188 0)"/>
     <use xlink:href="#TimesNewRomanPSMT-6d" transform="translate(513.867188 0)"/>
     <use xlink:href="#TimesNewRomanPSMT-70" transform="translate(591.650391 0)"/>
     <use xlink:href="#TimesNewRomanPSMT-75" transform="translate(641.650391 0)"/>
     <use xlink:href="#TimesNewRomanPSMT-74" transform="translate(691.650391 0)"/>
     <use xlink:href="#TimesNewRomanPSMT-69" transform="translate(719.433594 0)"/>
     <use xlink:href="#TimesNewRomanPSMT-6e" transform="translate(747.216797 0)"/>
     <use xlink:href="#TimesNewRomanPSMT-67" transform="translate(797.216797 0)"/>
    </g>
   </g>
  </g>
  <g id="text_13">
   <!-- Research Funding(USD) -->
   <g transform="translate(302.967747 18.31) scale(0.16 -0.16)">
    <defs>
     <path id="TimesNewRomanPSMT-46" d="M 1309 4006 
L 1309 2341 
L 2081 2341 
Q 2347 2341 2470 2458 
Q 2594 2575 2634 2922 
L 2750 2922 
L 2750 1488 
L 2634 1488 
Q 2631 1734 2570 1850 
Q 2509 1966 2401 2023 
Q 2294 2081 2081 2081 
L 1309 2081 
L 1309 750 
Q 1309 428 1350 325 
Q 1381 247 1481 191 
Q 1619 116 1769 116 
L 1922 116 
L 1922 0 
L 103 0 
L 103 116 
L 253 116 
Q 516 116 634 269 
Q 709 369 709 750 
L 709 3488 
Q 709 3809 669 3913 
Q 638 3991 541 4047 
Q 406 4122 253 4122 
L 103 4122 
L 103 4238 
L 3256 4238 
L 3297 3306 
L 3188 3306 
Q 3106 3603 2998 3742 
Q 2891 3881 2733 3943 
Q 2575 4006 2244 4006 
L 1309 4006 
z
" transform="scale(0.015625)"/>
     <path id="TimesNewRomanPSMT-28" d="M 1988 -1253 
L 1988 -1369 
Q 1516 -1131 1200 -813 
Q 750 -359 506 256 
Q 263 872 263 1534 
Q 263 2503 741 3301 
Q 1219 4100 1988 4444 
L 1988 4313 
Q 1603 4100 1356 3731 
Q 1109 3363 987 2797 
Q 866 2231 866 1616 
Q 866 947 969 400 
Q 1050 -31 1165 -292 
Q 1281 -553 1476 -793 
Q 1672 -1034 1988 -1253 
z
" transform="scale(0.015625)"/>
     <path id="TimesNewRomanPSMT-55" d="M 3053 4122 
L 3053 4238 
L 4553 4238 
L 4553 4122 
L 4394 4122 
Q 4144 4122 4009 3913 
Q 3944 3816 3944 3463 
L 3944 1744 
Q 3944 1106 3817 754 
Q 3691 403 3320 151 
Q 2950 -100 2313 -100 
Q 1619 -100 1259 140 
Q 900 381 750 788 
Q 650 1066 650 1831 
L 650 3488 
Q 650 3878 542 4000 
Q 434 4122 194 4122 
L 34 4122 
L 34 4238 
L 1866 4238 
L 1866 4122 
L 1703 4122 
Q 1441 4122 1328 3956 
Q 1250 3844 1250 3488 
L 1250 1641 
Q 1250 1394 1295 1075 
Q 1341 756 1459 578 
Q 1578 400 1801 284 
Q 2025 169 2350 169 
Q 2766 169 3094 350 
Q 3422 531 3542 814 
Q 3663 1097 3663 1772 
L 3663 3488 
Q 3663 3884 3575 3984 
Q 3453 4122 3213 4122 
L 3053 4122 
z
" transform="scale(0.015625)"/>
     <path id="TimesNewRomanPSMT-44" d="M 109 0 
L 109 116 
L 269 116 
Q 538 116 650 288 
Q 719 391 719 750 
L 719 3488 
Q 719 3884 631 3984 
Q 509 4122 269 4122 
L 109 4122 
L 109 4238 
L 1834 4238 
Q 2784 4238 3279 4022 
Q 3775 3806 4076 3303 
Q 4378 2800 4378 2141 
Q 4378 1256 3841 663 
Q 3238 0 2003 0 
L 109 0 
z
M 1319 306 
Q 1716 219 1984 219 
Q 2709 219 3187 728 
Q 3666 1238 3666 2109 
Q 3666 2988 3187 3494 
Q 2709 4000 1959 4000 
Q 1678 4000 1319 3909 
L 1319 306 
z
" transform="scale(0.015625)"/>
     <path id="TimesNewRomanPSMT-29" d="M 144 4313 
L 144 4444 
Q 619 4209 934 3891 
Q 1381 3434 1625 2820 
Q 1869 2206 1869 1541 
Q 1869 572 1392 -226 
Q 916 -1025 144 -1369 
L 144 -1253 
Q 528 -1038 776 -670 
Q 1025 -303 1145 264 
Q 1266 831 1266 1447 
Q 1266 2113 1163 2663 
Q 1084 3094 967 3353 
Q 850 3613 656 3853 
Q 463 4094 144 4313 
z
" transform="scale(0.015625)"/>
    </defs>
    <use xlink:href="#TimesNewRomanPSMT-52"/>
    <use xlink:href="#TimesNewRomanPSMT-65" transform="translate(66.699219 0)"/>
    <use xlink:href="#TimesNewRomanPSMT-73" transform="translate(111.083984 0)"/>
    <use xlink:href="#TimesNewRomanPSMT-65" transform="translate(150 0)"/>
    <use xlink:href="#TimesNewRomanPSMT-61" transform="translate(194.384766 0)"/>
    <use xlink:href="#TimesNewRomanPSMT-72" transform="translate(238.769531 0)"/>
    <use xlink:href="#TimesNewRomanPSMT-63" transform="translate(272.070312 0)"/>
    <use xlink:href="#TimesNewRomanPSMT-68" transform="translate(316.455078 0)"/>
    <use xlink:href="#TimesNewRomanPSMT-20" transform="translate(366.455078 0)"/>
    <use xlink:href="#TimesNewRomanPSMT-46" transform="translate(391.455078 0)"/>
    <use xlink:href="#TimesNewRomanPSMT-75" transform="translate(447.070312 0)"/>
    <use xlink:href="#TimesNewRomanPSMT-6e" transform="translate(497.070312 0)"/>
    <use xlink:href="#TimesNewRomanPSMT-64" transform="translate(547.070312 0)"/>
    <use xlink:href="#TimesNewRomanPSMT-69" transform="translate(597.070312 0)"/>
    <use xlink:href="#TimesNewRomanPSMT-6e" transform="translate(624.853516 0)"/>
    <use xlink:href="#TimesNewRomanPSMT-67" transform="translate(674.853516 0)"/>
    <use xlink:href="#TimesNewRomanPSMT-28" transform="translate(724.853516 0)"/>
    <use xlink:href="#TimesNewRomanPSMT-55" transform="translate(758.154297 0)"/>
    <use xlink:href="#TimesNewRomanPSMT-53" transform="translate(830.371094 0)"/>
    <use xlink:href="#TimesNewRomanPSMT-44" transform="translate(885.986328 0)"/>
    <use xlink:href="#TimesNewRomanPSMT-29" transform="translate(958.203125 0)"/>
   </g>
  </g>
 </g>
 <defs>
  <clipPath id="pf6a0c850c9">
   <rect x="168.029497" y="17.52" width="563.4595" height="88.528"/>
  </clipPath>
  <clipPath id="pbc2994c7fa">
   <rect x="168.029497" y="61.784" width="563.4595" height="88.528"/>
  </clipPath>
  <clipPath id="pdf08d364ed">
   <rect x="168.029497" y="106.048" width="563.4595" height="88.528"/>
  </clipPath>
  <clipPath id="p387a86cc0d">
   <rect x="168.029497" y="150.312" width="563.4595" height="88.528"/>
  </clipPath>
 </defs>
</svg>
