<?xml version="1.0" encoding="utf-8" standalone="no"?>
<!DOCTYPE svg PUBLIC "-//W3C//DTD SVG 1.1//EN"
  "http://www.w3.org/Graphics/SVG/1.1/DTD/svg11.dtd">
<svg xmlns:xlink="http://www.w3.org/1999/xlink" width="750.40705pt" height="280.655312pt" viewBox="0 0 750.40705 280.655312" xmlns="http://www.w3.org/2000/svg" version="1.1">
 <metadata>
  <rdf:RDF xmlns:dc="http://purl.org/dc/elements/1.1/" xmlns:cc="http://creativecommons.org/ns#" xmlns:rdf="http://www.w3.org/1999/02/22-rdf-syntax-ns#">
   <cc:Work>
    <dc:type rdf:resource="http://purl.org/dc/dcmitype/StillImage"/>
    <dc:date>2025-05-30T16:28:59.878410</dc:date>
    <dc:format>image/svg+xml</dc:format>
    <dc:creator>
     <cc:Agent>
      <dc:title>Matplotlib v3.10.1, https://matplotlib.org/</dc:title>
     </cc:Agent>
    </dc:creator>
   </cc:Work>
  </rdf:RDF>
 </metadata>
 <defs>
  <style type="text/css">*{stroke-linejoin: round; stroke-linecap: butt}</style>
 </defs>
 <g id="figure_1">
  <g id="patch_1">
   <path d="M -0 280.655312 
L 750.40705 280.655312 
L 750.40705 0 
L -0 0 
z
" style="fill: #ffffff"/>
  </g>
  <g id="axes_1">
   <g id="patch_2">
    <path d="M 121.37205 106.048 
L 737.20705 106.048 
L 737.20705 17.52 
L 121.37205 17.52 
L 121.37205 106.048 
z
" style="fill: none; opacity: 0"/>
   </g>
   <g id="FillBetweenPolyCollection_1">
    <defs>
     <path id="mbea826a694" d="M 121.37205 -201.834855 
L 121.37205 -174.607312 
L 124.466698 -174.607312 
L 127.561346 -174.607312 
L 130.655995 -174.607312 
L 133.750643 -174.607312 
L 136.845291 -174.607312 
L 139.939939 -174.607312 
L 143.034588 -174.607312 
L 146.129236 -174.607312 
L 149.223884 -174.607312 
L 152.318532 -174.607312 
L 155.413181 -174.607312 
L 158.507829 -174.607312 
L 161.602477 -174.607312 
L 164.697125 -174.607312 
L 167.791774 -174.607312 
L 170.886422 -174.607312 
L 173.98107 -174.607312 
L 177.075718 -174.607312 
L 180.170367 -174.607312 
L 183.265015 -174.607312 
L 186.359663 -174.607312 
L 189.454311 -174.607312 
L 192.54896 -174.607312 
L 195.643608 -174.607312 
L 198.738256 -174.607312 
L 201.832904 -174.607312 
L 204.927553 -174.607312 
L 208.022201 -174.607312 
L 211.116849 -174.607312 
L 214.211497 -174.607312 
L 217.306145 -174.607312 
L 220.400794 -174.607312 
L 223.495442 -174.607312 
L 226.59009 -174.607312 
L 229.684738 -174.607312 
L 232.779387 -174.607312 
L 235.874035 -174.607312 
L 238.968683 -174.607312 
L 242.063331 -174.607312 
L 245.15798 -174.607312 
L 248.252628 -174.607312 
L 251.347276 -174.607312 
L 254.441924 -174.607312 
L 257.536573 -174.607312 
L 260.631221 -174.607312 
L 263.725869 -174.607312 
L 266.820517 -174.607312 
L 269.915166 -174.607312 
L 273.009814 -174.607312 
L 276.104462 -174.607312 
L 279.19911 -174.607312 
L 282.293759 -174.607312 
L 285.388407 -174.607312 
L 288.483055 -174.607312 
L 291.577703 -174.607312 
L 294.672352 -174.607312 
L 297.767 -174.607312 
L 300.861648 -174.607312 
L 303.956296 -174.607312 
L 307.050944 -174.607312 
L 310.145593 -174.607312 
L 313.240241 -174.607312 
L 316.334889 -174.607312 
L 319.429537 -174.607312 
L 322.524186 -174.607312 
L 325.618834 -174.607312 
L 328.713482 -174.607312 
L 331.80813 -174.607312 
L 334.902779 -174.607312 
L 337.997427 -174.607312 
L 341.092075 -174.607312 
L 344.186723 -174.607312 
L 347.281372 -174.607312 
L 350.37602 -174.607312 
L 353.470668 -174.607312 
L 356.565316 -174.607312 
L 359.659965 -174.607312 
L 362.754613 -174.607312 
L 365.849261 -174.607312 
L 368.943909 -174.607312 
L 372.038558 -174.607312 
L 375.133206 -174.607312 
L 378.227854 -174.607312 
L 381.322502 -174.607312 
L 384.417151 -174.607312 
L 387.511799 -174.607312 
L 390.606447 -174.607312 
L 393.701095 -174.607312 
L 396.795743 -174.607312 
L 399.890392 -174.607312 
L 402.98504 -174.607312 
L 406.079688 -174.607312 
L 409.174336 -174.607312 
L 412.268985 -174.607312 
L 415.363633 -174.607312 
L 418.458281 -174.607312 
L 421.552929 -174.607312 
L 424.647578 -174.607312 
L 427.742226 -174.607312 
L 430.836874 -174.607312 
L 433.931522 -174.607312 
L 437.026171 -174.607312 
L 440.120819 -174.607312 
L 443.215467 -174.607312 
L 446.310115 -174.607312 
L 449.404764 -174.607312 
L 452.499412 -174.607312 
L 455.59406 -174.607312 
L 458.688708 -174.607312 
L 461.783357 -174.607312 
L 464.878005 -174.607312 
L 467.972653 -174.607312 
L 471.067301 -174.607312 
L 474.161949 -174.607312 
L 477.256598 -174.607312 
L 480.351246 -174.607312 
L 483.445894 -174.607312 
L 486.540542 -174.607312 
L 489.635191 -174.607312 
L 492.729839 -174.607312 
L 495.824487 -174.607312 
L 498.919135 -174.607312 
L 502.013784 -174.607312 
L 505.108432 -174.607312 
L 508.20308 -174.607312 
L 511.297728 -174.607312 
L 514.392377 -174.607312 
L 517.487025 -174.607312 
L 520.581673 -174.607312 
L 523.676321 -174.607312 
L 526.77097 -174.607312 
L 529.865618 -174.607312 
L 532.960266 -174.607312 
L 536.054914 -174.607312 
L 539.149563 -174.607312 
L 542.244211 -174.607312 
L 545.338859 -174.607312 
L 548.433507 -174.607312 
L 551.528156 -174.607312 
L 554.622804 -174.607312 
L 557.717452 -174.607312 
L 560.8121 -174.607312 
L 563.906748 -174.607312 
L 567.001397 -174.607312 
L 570.096045 -174.607312 
L 573.190693 -174.607312 
L 576.285341 -174.607312 
L 579.37999 -174.607312 
L 582.474638 -174.607312 
L 585.569286 -174.607312 
L 588.663934 -174.607312 
L 591.758583 -174.607312 
L 594.853231 -174.607312 
L 597.947879 -174.607312 
L 601.042527 -174.607312 
L 604.137176 -174.607312 
L 607.231824 -174.607312 
L 610.326472 -174.607312 
L 613.42112 -174.607312 
L 616.515769 -174.607312 
L 619.610417 -174.607312 
L 622.705065 -174.607312 
L 625.799713 -174.607312 
L 628.894362 -174.607312 
L 631.98901 -174.607312 
L 635.083658 -174.607312 
L 638.178306 -174.607312 
L 641.272955 -174.607312 
L 644.367603 -174.607312 
L 647.462251 -174.607312 
L 650.556899 -174.607312 
L 653.651547 -174.607312 
L 656.746196 -174.607312 
L 659.840844 -174.607312 
L 662.935492 -174.607312 
L 666.03014 -174.607312 
L 669.124789 -174.607312 
L 672.219437 -174.607312 
L 675.314085 -174.607312 
L 678.408733 -174.607312 
L 681.503382 -174.607312 
L 684.59803 -174.607312 
L 687.692678 -174.607312 
L 690.787326 -174.607312 
L 693.881975 -174.607312 
L 696.976623 -174.607312 
L 700.071271 -174.607312 
L 703.165919 -174.607312 
L 706.260568 -174.607312 
L 709.355216 -174.607312 
L 712.449864 -174.607312 
L 715.544512 -174.607312 
L 718.639161 -174.607312 
L 721.733809 -174.607312 
L 724.828457 -174.607312 
L 727.923105 -174.607312 
L 731.017754 -174.607312 
L 734.112402 -174.607312 
L 737.20705 -174.607312 
L 737.20705 -189.470601 
L 737.20705 -189.470601 
L 734.112402 -190.000373 
L 731.017754 -190.514 
L 727.923105 -191.009896 
L 724.828457 -191.48672 
L 721.733809 -191.943396 
L 718.639161 -192.379124 
L 715.544512 -192.793389 
L 712.449864 -193.185967 
L 709.355216 -193.556921 
L 706.260568 -193.906595 
L 703.165919 -194.235603 
L 700.071271 -194.544816 
L 696.976623 -194.835339 
L 693.881975 -195.108491 
L 690.787326 -195.365779 
L 687.692678 -195.608869 
L 684.59803 -195.839559 
L 681.503382 -196.059746 
L 678.408733 -196.271396 
L 675.314085 -196.476513 
L 672.219437 -196.677112 
L 669.124789 -196.875186 
L 666.03014 -197.072684 
L 662.935492 -197.27148 
L 659.840844 -197.47336 
L 656.746196 -197.679994 
L 653.651547 -197.892926 
L 650.556899 -198.113556 
L 647.462251 -198.343136 
L 644.367603 -198.582757 
L 641.272955 -198.83335 
L 638.178306 -199.095684 
L 635.083658 -199.370367 
L 631.98901 -199.657856 
L 628.894362 -199.95846 
L 625.799713 -200.272351 
L 622.705065 -200.599581 
L 619.610417 -200.940092 
L 616.515769 -201.293734 
L 613.42112 -201.660283 
L 610.326472 -202.039457 
L 607.231824 -202.43094 
L 604.137176 -202.8344 
L 601.042527 -203.249508 
L 597.947879 -203.675962 
L 594.853231 -204.113504 
L 591.758583 -204.561941 
L 588.663934 -205.021165 
L 585.569286 -205.491168 
L 582.474638 -205.972062 
L 579.37999 -206.464091 
L 576.285341 -206.967645 
L 573.190693 -207.483271 
L 570.096045 -208.011684 
L 567.001397 -208.55377 
L 563.906748 -209.110591 
L 560.8121 -209.683387 
L 557.717452 -210.273573 
L 554.622804 -210.882732 
L 551.528156 -211.512609 
L 548.433507 -212.165095 
L 545.338859 -212.842214 
L 542.244211 -213.546097 
L 539.149563 -214.278964 
L 536.054914 -215.043087 
L 532.960266 -215.840764 
L 529.865618 -216.674273 
L 526.77097 -217.545836 
L 523.676321 -218.457569 
L 520.581673 -219.411429 
L 517.487025 -220.409165 
L 514.392377 -221.452256 
L 511.297728 -222.541854 
L 508.20308 -223.678723 
L 505.108432 -224.863175 
L 502.013784 -226.095014 
L 498.919135 -227.373475 
L 495.824487 -228.697169 
L 492.729839 -230.064034 
L 489.635191 -231.471295 
L 486.540542 -232.915425 
L 483.445894 -234.392123 
L 480.351246 -235.896302 
L 477.256598 -237.422086 
L 474.161949 -238.962825 
L 471.067301 -240.511121 
L 467.972653 -242.058875 
L 464.878005 -243.597341 
L 461.783357 -245.117203 
L 458.688708 -246.608665 
L 455.59406 -248.061549 
L 452.499412 -249.465417 
L 449.404764 -250.809692 
L 446.310115 -252.083795 
L 443.215467 -253.277285 
L 440.120819 -254.380006 
L 437.026171 -255.382231 
L 433.931522 -256.274806 
L 430.836874 -257.049286 
L 427.742226 -257.698066 
L 424.647578 -258.214501 
L 421.552929 -258.593004 
L 418.458281 -258.82914 
L 415.363633 -258.919693 
L 412.268985 -258.862714 
L 409.174336 -258.657546 
L 406.079688 -258.304839 
L 402.98504 -257.806523 
L 399.890392 -257.165777 
L 396.795743 -256.386968 
L 393.701095 -255.475577 
L 390.606447 -254.438098 
L 387.511799 -253.281934 
L 384.417151 -252.015274 
L 381.322502 -250.64696 
L 378.227854 -249.186351 
L 375.133206 -247.643186 
L 372.038558 -246.027436 
L 368.943909 -244.349175 
L 365.849261 -242.618444 
L 362.754613 -240.845134 
L 359.659965 -239.03887 
L 356.565316 -237.208914 
L 353.470668 -235.364086 
L 350.37602 -233.512693 
L 347.281372 -231.662478 
L 344.186723 -229.820586 
L 341.092075 -227.993547 
L 337.997427 -226.187271 
L 334.902779 -224.407063 
L 331.80813 -222.657643 
L 328.713482 -220.943186 
L 325.618834 -219.267361 
L 322.524186 -217.633392 
L 319.429537 -216.044104 
L 316.334889 -214.501992 
L 313.240241 -213.009273 
L 310.145593 -211.567945 
L 307.050944 -210.179845 
L 303.956296 -208.84669 
L 300.861648 -207.570126 
L 297.767 -206.351754 
L 294.672352 -205.193159 
L 291.577703 -204.095922 
L 288.483055 -203.061626 
L 285.388407 -202.091855 
L 282.293759 -201.188173 
L 279.19911 -200.352113 
L 276.104462 -199.585139 
L 273.009814 -198.888618 
L 269.915166 -198.263779 
L 266.820517 -197.711673 
L 263.725869 -197.233126 
L 260.631221 -196.828698 
L 257.536573 -196.498639 
L 254.441924 -196.242851 
L 251.347276 -196.060851 
L 248.252628 -195.951743 
L 245.15798 -195.914188 
L 242.063331 -195.946389 
L 238.968683 -196.04608 
L 235.874035 -196.210519 
L 232.779387 -196.436494 
L 229.684738 -196.72033 
L 226.59009 -197.057907 
L 223.495442 -197.444683 
L 220.400794 -197.875726 
L 217.306145 -198.345741 
L 214.211497 -198.849115 
L 211.116849 -199.379957 
L 208.022201 -199.932143 
L 204.927553 -200.499365 
L 201.832904 -201.07518 
L 198.738256 -201.653063 
L 195.643608 -202.226457 
L 192.54896 -202.788825 
L 189.454311 -203.333705 
L 186.359663 -203.854762 
L 183.265015 -204.345835 
L 180.170367 -204.800995 
L 177.075718 -205.214586 
L 173.98107 -205.581283 
L 170.886422 -205.896129 
L 167.791774 -206.154587 
L 164.697125 -206.352576 
L 161.602477 -206.486515 
L 158.507829 -206.553354 
L 155.413181 -206.550611 
L 152.318532 -206.476392 
L 149.223884 -206.329419 
L 146.129236 -206.109045 
L 143.034588 -205.81526 
L 139.939939 -205.448698 
L 136.845291 -205.010632 
L 133.750643 -204.502963 
L 130.655995 -203.928195 
L 127.561346 -203.289416 
L 124.466698 -202.590258 
L 121.37205 -201.834855 
z
" style="stroke: #a6cee3"/>
    </defs>
    <g clip-path="url(#p0edc739307)">
     <use xlink:href="#mbea826a694" x="0" y="280.655312" style="fill: #a6cee3; fill-opacity: 0.5; stroke: #a6cee3"/>
    </g>
   </g>
   <g id="matplotlib.axis_1">
    <g id="xtick_1">
     <g id="line2d_1">
      <defs>
       <path id="m3d7b838fd3" d="M 0 0 
L 0 3.5 
" style="stroke: #000000; stroke-width: 0.8"/>
      </defs>
      <g>
       <use xlink:href="#m3d7b838fd3" x="121.37205" y="106.048" style="stroke: #000000; stroke-width: 0.8"/>
      </g>
     </g>
    </g>
    <g id="xtick_2">
     <g id="line2d_2">
      <g>
       <use xlink:href="#m3d7b838fd3" x="244.53905" y="106.048" style="stroke: #000000; stroke-width: 0.8"/>
      </g>
     </g>
    </g>
    <g id="xtick_3">
     <g id="line2d_3">
      <g>
       <use xlink:href="#m3d7b838fd3" x="367.70605" y="106.048" style="stroke: #000000; stroke-width: 0.8"/>
      </g>
     </g>
    </g>
    <g id="xtick_4">
     <g id="line2d_4">
      <g>
       <use xlink:href="#m3d7b838fd3" x="490.87305" y="106.048" style="stroke: #000000; stroke-width: 0.8"/>
      </g>
     </g>
    </g>
    <g id="xtick_5">
     <g id="line2d_5">
      <g>
       <use xlink:href="#m3d7b838fd3" x="614.04005" y="106.048" style="stroke: #000000; stroke-width: 0.8"/>
      </g>
     </g>
    </g>
    <g id="xtick_6">
     <g id="line2d_6">
      <g>
       <use xlink:href="#m3d7b838fd3" x="737.20705" y="106.048" style="stroke: #000000; stroke-width: 0.8"/>
      </g>
     </g>
    </g>
   </g>
   <g id="matplotlib.axis_2"/>
   <g id="line2d_7">
    <path d="M 121.37205 78.820458 
L 127.561346 77.365896 
L 133.750643 76.15235 
L 139.939939 75.206615 
L 146.129236 74.546268 
L 152.318532 74.178921 
L 158.507829 74.101958 
L 164.697125 74.302736 
L 170.886422 74.759183 
L 177.075718 75.440726 
L 183.265015 76.309477 
L 192.54896 77.866488 
L 217.306145 82.309571 
L 223.495442 83.210629 
L 229.684738 83.934983 
L 235.874035 84.444793 
L 242.063331 84.708924 
L 248.252628 84.70357 
L 254.441924 84.412462 
L 260.631221 83.826615 
L 266.820517 82.943639 
L 273.009814 81.766695 
L 279.19911 80.3032 
L 285.388407 78.563458 
L 291.577703 76.559391 
L 297.767 74.303559 
L 303.956296 71.808622 
L 310.145593 69.087367 
L 316.334889 66.15332 
L 322.524186 63.021921 
L 331.80813 57.997669 
L 341.092075 52.661766 
L 368.943909 36.306138 
L 375.133206 33.012127 
L 381.322502 30.008353 
L 387.511799 27.373378 
L 390.606447 26.217215 
L 393.701095 25.179736 
L 396.795743 24.268344 
L 399.890392 23.489536 
L 402.98504 22.84879 
L 406.079688 22.350474 
L 409.174336 21.997766 
L 412.268985 21.792599 
L 415.363633 21.735619 
L 418.458281 21.826172 
L 421.552929 22.062309 
L 424.647578 22.440812 
L 427.742226 22.957246 
L 430.836874 23.606027 
L 433.931522 24.380507 
L 440.120819 26.275307 
L 446.310115 28.571518 
L 452.499412 31.189895 
L 458.688708 34.046648 
L 467.972653 38.596437 
L 483.445894 46.263189 
L 492.729839 50.591278 
L 498.919135 53.281837 
L 505.108432 55.792137 
L 511.297728 58.113459 
L 517.487025 60.246148 
L 523.676321 62.197744 
L 529.865618 63.981039 
L 539.149563 66.376349 
L 548.433507 68.490217 
L 557.717452 70.38174 
L 570.096045 72.643629 
L 582.474638 74.68325 
L 597.947879 76.979351 
L 610.326472 78.615856 
L 622.705065 80.055731 
L 635.083658 81.284945 
L 647.462251 82.312177 
L 666.03014 83.582629 
L 687.692678 85.046443 
L 700.071271 86.110497 
L 709.355216 87.098391 
L 718.639161 88.276189 
L 727.923105 89.645417 
L 737.20705 91.184711 
L 737.20705 91.184711 
" clip-path="url(#p0edc739307)" style="fill: none; stroke: #ffffff; stroke-width: 2; stroke-linecap: square"/>
   </g>
   <g id="line2d_8">
    <path d="M 121.37205 106.048 
L 737.20705 106.048 
" style="fill: none; stroke: #000000; stroke-linecap: square"/>
   </g>
   <g id="text_1">
    <g id="patch_3">
     <path d="M 16.093125 115.457687 
L 60.669375 115.457687 
L 60.669375 96.638312 
L 16.093125 96.638312 
z
" style="fill: #ffffff; opacity: 0.5"/>
    </g>
    <!-- Chirper -->
    <g transform="translate(20.053125 108.930812) scale(0.12 -0.12)">
     <defs>
      <path id="TimesNewRomanPSMT-43" d="M 3853 4334 
L 3950 2894 
L 3853 2894 
Q 3659 3541 3300 3825 
Q 2941 4109 2438 4109 
Q 2016 4109 1675 3895 
Q 1334 3681 1139 3212 
Q 944 2744 944 2047 
Q 944 1472 1128 1050 
Q 1313 628 1683 403 
Q 2053 178 2528 178 
Q 2941 178 3256 354 
Q 3572 531 3950 1056 
L 4047 994 
Q 3728 428 3303 165 
Q 2878 -97 2294 -97 
Q 1241 -97 663 684 
Q 231 1266 231 2053 
Q 231 2688 515 3219 
Q 800 3750 1298 4042 
Q 1797 4334 2388 4334 
Q 2847 4334 3294 4109 
Q 3425 4041 3481 4041 
Q 3566 4041 3628 4100 
Q 3709 4184 3744 4334 
L 3853 4334 
z
" transform="scale(0.015625)"/>
      <path id="TimesNewRomanPSMT-68" d="M 1041 4444 
L 1041 2350 
Q 1388 2731 1591 2839 
Q 1794 2947 1997 2947 
Q 2241 2947 2416 2812 
Q 2591 2678 2675 2391 
Q 2734 2191 2734 1659 
L 2734 647 
Q 2734 375 2778 275 
Q 2809 200 2884 156 
Q 2959 113 3159 113 
L 3159 0 
L 1753 0 
L 1753 113 
L 1819 113 
Q 2019 113 2097 173 
Q 2175 234 2206 353 
Q 2216 403 2216 647 
L 2216 1659 
Q 2216 2128 2167 2275 
Q 2119 2422 2012 2495 
Q 1906 2569 1756 2569 
Q 1603 2569 1437 2487 
Q 1272 2406 1041 2159 
L 1041 647 
Q 1041 353 1073 281 
Q 1106 209 1195 161 
Q 1284 113 1503 113 
L 1503 0 
L 84 0 
L 84 113 
Q 275 113 384 172 
Q 447 203 484 290 
Q 522 378 522 647 
L 522 3238 
Q 522 3728 498 3840 
Q 475 3953 426 3993 
Q 378 4034 297 4034 
Q 231 4034 84 3984 
L 41 4094 
L 897 4444 
L 1041 4444 
z
" transform="scale(0.015625)"/>
      <path id="TimesNewRomanPSMT-69" d="M 928 4444 
Q 1059 4444 1151 4351 
Q 1244 4259 1244 4128 
Q 1244 3997 1151 3903 
Q 1059 3809 928 3809 
Q 797 3809 703 3903 
Q 609 3997 609 4128 
Q 609 4259 701 4351 
Q 794 4444 928 4444 
z
M 1188 2947 
L 1188 647 
Q 1188 378 1227 289 
Q 1266 200 1342 156 
Q 1419 113 1622 113 
L 1622 0 
L 231 0 
L 231 113 
Q 441 113 512 153 
Q 584 194 626 287 
Q 669 381 669 647 
L 669 1750 
Q 669 2216 641 2353 
Q 619 2453 572 2492 
Q 525 2531 444 2531 
Q 356 2531 231 2484 
L 188 2597 
L 1050 2947 
L 1188 2947 
z
" transform="scale(0.015625)"/>
      <path id="TimesNewRomanPSMT-72" d="M 1038 2947 
L 1038 2303 
Q 1397 2947 1775 2947 
Q 1947 2947 2059 2842 
Q 2172 2738 2172 2600 
Q 2172 2478 2090 2393 
Q 2009 2309 1897 2309 
Q 1788 2309 1652 2417 
Q 1516 2525 1450 2525 
Q 1394 2525 1328 2463 
Q 1188 2334 1038 2041 
L 1038 669 
Q 1038 431 1097 309 
Q 1138 225 1241 169 
Q 1344 113 1538 113 
L 1538 0 
L 72 0 
L 72 113 
Q 291 113 397 181 
Q 475 231 506 341 
Q 522 394 522 644 
L 522 1753 
Q 522 2253 501 2348 
Q 481 2444 426 2487 
Q 372 2531 291 2531 
Q 194 2531 72 2484 
L 41 2597 
L 906 2947 
L 1038 2947 
z
" transform="scale(0.015625)"/>
      <path id="TimesNewRomanPSMT-70" d="M -6 2578 
L 875 2934 
L 994 2934 
L 994 2266 
Q 1216 2644 1439 2795 
Q 1663 2947 1909 2947 
Q 2341 2947 2628 2609 
Q 2981 2197 2981 1534 
Q 2981 794 2556 309 
Q 2206 -88 1675 -88 
Q 1444 -88 1275 -22 
Q 1150 25 994 166 
L 994 -706 
Q 994 -1000 1030 -1079 
Q 1066 -1159 1155 -1206 
Q 1244 -1253 1478 -1253 
L 1478 -1369 
L -22 -1369 
L -22 -1253 
L 56 -1253 
Q 228 -1256 350 -1188 
Q 409 -1153 442 -1076 
Q 475 -1000 475 -688 
L 475 2019 
Q 475 2297 450 2372 
Q 425 2447 370 2484 
Q 316 2522 222 2522 
Q 147 2522 31 2478 
L -6 2578 
z
M 994 2081 
L 994 1013 
Q 994 666 1022 556 
Q 1066 375 1236 237 
Q 1406 100 1666 100 
Q 1978 100 2172 344 
Q 2425 663 2425 1241 
Q 2425 1897 2138 2250 
Q 1938 2494 1663 2494 
Q 1513 2494 1366 2419 
Q 1253 2363 994 2081 
z
" transform="scale(0.015625)"/>
      <path id="TimesNewRomanPSMT-65" d="M 681 1784 
Q 678 1147 991 784 
Q 1303 422 1725 422 
Q 2006 422 2214 576 
Q 2422 731 2563 1106 
L 2659 1044 
Q 2594 616 2278 264 
Q 1963 -88 1488 -88 
Q 972 -88 605 314 
Q 238 716 238 1394 
Q 238 2128 614 2539 
Q 991 2950 1559 2950 
Q 2041 2950 2350 2633 
Q 2659 2316 2659 1784 
L 681 1784 
z
M 681 1966 
L 2006 1966 
Q 1991 2241 1941 2353 
Q 1863 2528 1708 2628 
Q 1553 2728 1384 2728 
Q 1125 2728 920 2526 
Q 716 2325 681 1966 
z
" transform="scale(0.015625)"/>
     </defs>
     <use xlink:href="#TimesNewRomanPSMT-43"/>
     <use xlink:href="#TimesNewRomanPSMT-68" transform="translate(66.699219 0)"/>
     <use xlink:href="#TimesNewRomanPSMT-69" transform="translate(116.699219 0)"/>
     <use xlink:href="#TimesNewRomanPSMT-72" transform="translate(144.482422 0)"/>
     <use xlink:href="#TimesNewRomanPSMT-70" transform="translate(177.783203 0)"/>
     <use xlink:href="#TimesNewRomanPSMT-65" transform="translate(227.783203 0)"/>
     <use xlink:href="#TimesNewRomanPSMT-72" transform="translate(272.167969 0)"/>
    </g>
   </g>
  </g>
  <g id="axes_2">
   <g id="patch_4">
    <path d="M 121.37205 150.312 
L 737.20705 150.312 
L 737.20705 61.784 
L 121.37205 61.784 
L 121.37205 150.312 
z
" style="fill: none; opacity: 0"/>
   </g>
   <g id="FillBetweenPolyCollection_2">
    <defs>
     <path id="m861d0d26dd" d="M 121.37205 -157.026003 
L 121.37205 -130.343312 
L 124.466698 -130.343312 
L 127.561346 -130.343312 
L 130.655995 -130.343312 
L 133.750643 -130.343312 
L 136.845291 -130.343312 
L 139.939939 -130.343312 
L 143.034588 -130.343312 
L 146.129236 -130.343312 
L 149.223884 -130.343312 
L 152.318532 -130.343312 
L 155.413181 -130.343312 
L 158.507829 -130.343312 
L 161.602477 -130.343312 
L 164.697125 -130.343312 
L 167.791774 -130.343312 
L 170.886422 -130.343312 
L 173.98107 -130.343312 
L 177.075718 -130.343312 
L 180.170367 -130.343312 
L 183.265015 -130.343312 
L 186.359663 -130.343312 
L 189.454311 -130.343312 
L 192.54896 -130.343312 
L 195.643608 -130.343312 
L 198.738256 -130.343312 
L 201.832904 -130.343312 
L 204.927553 -130.343312 
L 208.022201 -130.343312 
L 211.116849 -130.343312 
L 214.211497 -130.343312 
L 217.306145 -130.343312 
L 220.400794 -130.343312 
L 223.495442 -130.343312 
L 226.59009 -130.343312 
L 229.684738 -130.343312 
L 232.779387 -130.343312 
L 235.874035 -130.343312 
L 238.968683 -130.343312 
L 242.063331 -130.343312 
L 245.15798 -130.343312 
L 248.252628 -130.343312 
L 251.347276 -130.343312 
L 254.441924 -130.343312 
L 257.536573 -130.343312 
L 260.631221 -130.343312 
L 263.725869 -130.343312 
L 266.820517 -130.343312 
L 269.915166 -130.343312 
L 273.009814 -130.343312 
L 276.104462 -130.343312 
L 279.19911 -130.343312 
L 282.293759 -130.343312 
L 285.388407 -130.343312 
L 288.483055 -130.343312 
L 291.577703 -130.343312 
L 294.672352 -130.343312 
L 297.767 -130.343312 
L 300.861648 -130.343312 
L 303.956296 -130.343312 
L 307.050944 -130.343312 
L 310.145593 -130.343312 
L 313.240241 -130.343312 
L 316.334889 -130.343312 
L 319.429537 -130.343312 
L 322.524186 -130.343312 
L 325.618834 -130.343312 
L 328.713482 -130.343312 
L 331.80813 -130.343312 
L 334.902779 -130.343312 
L 337.997427 -130.343312 
L 341.092075 -130.343312 
L 344.186723 -130.343312 
L 347.281372 -130.343312 
L 350.37602 -130.343312 
L 353.470668 -130.343312 
L 356.565316 -130.343312 
L 359.659965 -130.343312 
L 362.754613 -130.343312 
L 365.849261 -130.343312 
L 368.943909 -130.343312 
L 372.038558 -130.343312 
L 375.133206 -130.343312 
L 378.227854 -130.343312 
L 381.322502 -130.343312 
L 384.417151 -130.343312 
L 387.511799 -130.343312 
L 390.606447 -130.343312 
L 393.701095 -130.343312 
L 396.795743 -130.343312 
L 399.890392 -130.343312 
L 402.98504 -130.343312 
L 406.079688 -130.343312 
L 409.174336 -130.343312 
L 412.268985 -130.343312 
L 415.363633 -130.343312 
L 418.458281 -130.343312 
L 421.552929 -130.343312 
L 424.647578 -130.343312 
L 427.742226 -130.343312 
L 430.836874 -130.343312 
L 433.931522 -130.343312 
L 437.026171 -130.343312 
L 440.120819 -130.343312 
L 443.215467 -130.343312 
L 446.310115 -130.343312 
L 449.404764 -130.343312 
L 452.499412 -130.343312 
L 455.59406 -130.343312 
L 458.688708 -130.343312 
L 461.783357 -130.343312 
L 464.878005 -130.343312 
L 467.972653 -130.343312 
L 471.067301 -130.343312 
L 474.161949 -130.343312 
L 477.256598 -130.343312 
L 480.351246 -130.343312 
L 483.445894 -130.343312 
L 486.540542 -130.343312 
L 489.635191 -130.343312 
L 492.729839 -130.343312 
L 495.824487 -130.343312 
L 498.919135 -130.343312 
L 502.013784 -130.343312 
L 505.108432 -130.343312 
L 508.20308 -130.343312 
L 511.297728 -130.343312 
L 514.392377 -130.343312 
L 517.487025 -130.343312 
L 520.581673 -130.343312 
L 523.676321 -130.343312 
L 526.77097 -130.343312 
L 529.865618 -130.343312 
L 532.960266 -130.343312 
L 536.054914 -130.343312 
L 539.149563 -130.343312 
L 542.244211 -130.343312 
L 545.338859 -130.343312 
L 548.433507 -130.343312 
L 551.528156 -130.343312 
L 554.622804 -130.343312 
L 557.717452 -130.343312 
L 560.8121 -130.343312 
L 563.906748 -130.343312 
L 567.001397 -130.343312 
L 570.096045 -130.343312 
L 573.190693 -130.343312 
L 576.285341 -130.343312 
L 579.37999 -130.343312 
L 582.474638 -130.343312 
L 585.569286 -130.343312 
L 588.663934 -130.343312 
L 591.758583 -130.343312 
L 594.853231 -130.343312 
L 597.947879 -130.343312 
L 601.042527 -130.343312 
L 604.137176 -130.343312 
L 607.231824 -130.343312 
L 610.326472 -130.343312 
L 613.42112 -130.343312 
L 616.515769 -130.343312 
L 619.610417 -130.343312 
L 622.705065 -130.343312 
L 625.799713 -130.343312 
L 628.894362 -130.343312 
L 631.98901 -130.343312 
L 635.083658 -130.343312 
L 638.178306 -130.343312 
L 641.272955 -130.343312 
L 644.367603 -130.343312 
L 647.462251 -130.343312 
L 650.556899 -130.343312 
L 653.651547 -130.343312 
L 656.746196 -130.343312 
L 659.840844 -130.343312 
L 662.935492 -130.343312 
L 666.03014 -130.343312 
L 669.124789 -130.343312 
L 672.219437 -130.343312 
L 675.314085 -130.343312 
L 678.408733 -130.343312 
L 681.503382 -130.343312 
L 684.59803 -130.343312 
L 687.692678 -130.343312 
L 690.787326 -130.343312 
L 693.881975 -130.343312 
L 696.976623 -130.343312 
L 700.071271 -130.343312 
L 703.165919 -130.343312 
L 706.260568 -130.343312 
L 709.355216 -130.343312 
L 712.449864 -130.343312 
L 715.544512 -130.343312 
L 718.639161 -130.343312 
L 721.733809 -130.343312 
L 724.828457 -130.343312 
L 727.923105 -130.343312 
L 731.017754 -130.343312 
L 734.112402 -130.343312 
L 737.20705 -130.343312 
L 737.20705 -162.857181 
L 737.20705 -162.857181 
L 734.112402 -163.92035 
L 731.017754 -164.968062 
L 727.923105 -165.997407 
L 724.828457 -167.005537 
L 721.733809 -167.989683 
L 718.639161 -168.947175 
L 715.544512 -169.875457 
L 712.449864 -170.772103 
L 709.355216 -171.634832 
L 706.260568 -172.461524 
L 703.165919 -173.25023 
L 700.071271 -173.999186 
L 696.976623 -174.706822 
L 693.881975 -175.371769 
L 690.787326 -175.992868 
L 687.692678 -176.569173 
L 684.59803 -177.099956 
L 681.503382 -177.584708 
L 678.408733 -178.02314 
L 675.314085 -178.415179 
L 672.219437 -178.760964 
L 669.124789 -179.060844 
L 666.03014 -179.315369 
L 662.935492 -179.52528 
L 659.840844 -179.691501 
L 656.746196 -179.815129 
L 653.651547 -179.897419 
L 650.556899 -179.93977 
L 647.462251 -179.943713 
L 644.367603 -179.910894 
L 641.272955 -179.843058 
L 638.178306 -179.742036 
L 635.083658 -179.609723 
L 631.98901 -179.448066 
L 628.894362 -179.259045 
L 625.799713 -179.044656 
L 622.705065 -178.806901 
L 619.610417 -178.547766 
L 616.515769 -178.26921 
L 613.42112 -177.973152 
L 610.326472 -177.661456 
L 607.231824 -177.335924 
L 604.137176 -176.998283 
L 601.042527 -176.650177 
L 597.947879 -176.293161 
L 594.853231 -175.928694 
L 591.758583 -175.558136 
L 588.663934 -175.182742 
L 585.569286 -174.803665 
L 582.474638 -174.421954 
L 579.37999 -174.038553 
L 576.285341 -173.654308 
L 573.190693 -173.269965 
L 570.096045 -172.88618 
L 567.001397 -172.503522 
L 563.906748 -172.122477 
L 560.8121 -171.743458 
L 557.717452 -171.366813 
L 554.622804 -170.992829 
L 551.528156 -170.621742 
L 548.433507 -170.253745 
L 545.338859 -169.888993 
L 542.244211 -169.527618 
L 539.149563 -169.169725 
L 536.054914 -168.815409 
L 532.960266 -168.464754 
L 529.865618 -168.117845 
L 526.77097 -167.774767 
L 523.676321 -167.435611 
L 520.581673 -167.100481 
L 517.487025 -166.769492 
L 514.392377 -166.442773 
L 511.297728 -166.120471 
L 508.20308 -165.802748 
L 505.108432 -165.489782 
L 502.013784 -165.181767 
L 498.919135 -164.878908 
L 495.824487 -164.581424 
L 492.729839 -164.289543 
L 489.635191 -164.003498 
L 486.540542 -163.723526 
L 483.445894 -163.449865 
L 480.351246 -163.182748 
L 477.256598 -162.922405 
L 474.161949 -162.669054 
L 471.067301 -162.422902 
L 467.972653 -162.184142 
L 464.878005 -161.952949 
L 461.783357 -161.729481 
L 458.688708 -161.513876 
L 455.59406 -161.30625 
L 452.499412 -161.106702 
L 449.404764 -160.915307 
L 446.310115 -160.732124 
L 443.215467 -160.557193 
L 440.120819 -160.390541 
L 437.026171 -160.232181 
L 433.931522 -160.082117 
L 430.836874 -159.940351 
L 427.742226 -159.806881 
L 424.647578 -159.681713 
L 421.552929 -159.564858 
L 418.458281 -159.456346 
L 415.363633 -159.356223 
L 412.268985 -159.264563 
L 409.174336 -159.181468 
L 406.079688 -159.107077 
L 402.98504 -159.041569 
L 399.890392 -158.985167 
L 396.795743 -158.938141 
L 393.701095 -158.900814 
L 390.606447 -158.873559 
L 387.511799 -158.856808 
L 384.417151 -158.851045 
L 381.322502 -158.856808 
L 378.227854 -158.874689 
L 375.133206 -158.905329 
L 372.038558 -158.949416 
L 368.943909 -159.007677 
L 365.849261 -159.080872 
L 362.754613 -159.16979 
L 359.659965 -159.275236 
L 356.565316 -159.398022 
L 353.470668 -159.538959 
L 350.37602 -159.69884 
L 347.281372 -159.878433 
L 344.186723 -160.078466 
L 341.092075 -160.299612 
L 337.997427 -160.542475 
L 334.902779 -160.80758 
L 331.80813 -161.095354 
L 328.713482 -161.406115 
L 325.618834 -161.74006 
L 322.524186 -162.097249 
L 319.429537 -162.477596 
L 316.334889 -162.880855 
L 313.240241 -163.306616 
L 310.145593 -163.754292 
L 307.050944 -164.223113 
L 303.956296 -164.712121 
L 300.861648 -165.22017 
L 297.767 -165.74592 
L 294.672352 -166.287838 
L 291.577703 -166.844202 
L 288.483055 -167.413106 
L 285.388407 -167.992461 
L 282.293759 -168.580011 
L 279.19911 -169.173335 
L 276.104462 -169.769865 
L 273.009814 -170.366893 
L 269.915166 -170.961595 
L 266.820517 -171.551036 
L 263.725869 -172.1322 
L 260.631221 -172.701998 
L 257.536573 -173.257293 
L 254.441924 -173.794924 
L 251.347276 -174.311717 
L 248.252628 -174.804519 
L 245.15798 -175.270208 
L 242.063331 -175.705723 
L 238.968683 -176.108083 
L 235.874035 -176.474406 
L 232.779387 -176.801933 
L 229.684738 -177.088045 
L 226.59009 -177.330283 
L 223.495442 -177.526366 
L 220.400794 -177.674209 
L 217.306145 -177.771933 
L 214.211497 -177.817885 
L 211.116849 -177.810648 
L 208.022201 -177.749048 
L 204.927553 -177.632168 
L 201.832904 -177.459351 
L 198.738256 -177.230208 
L 195.643608 -176.944619 
L 192.54896 -176.602734 
L 189.454311 -176.204974 
L 186.359663 -175.752026 
L 183.265015 -175.244842 
L 180.170367 -174.684629 
L 177.075718 -174.072842 
L 173.98107 -173.411176 
L 170.886422 -172.701551 
L 167.791774 -171.946102 
L 164.697125 -171.147164 
L 161.602477 -170.307253 
L 158.507829 -169.429056 
L 155.413181 -168.515406 
L 152.318532 -167.569265 
L 149.223884 -166.59371 
L 146.129236 -165.591904 
L 143.034588 -164.567084 
L 139.939939 -163.522534 
L 136.845291 -162.461569 
L 133.750643 -161.387511 
L 130.655995 -160.303671 
L 127.561346 -159.213331 
L 124.466698 -158.119721 
L 121.37205 -157.026003 
z
" style="stroke: #1f78b4"/>
    </defs>
    <g clip-path="url(#p6572febb97)">
     <use xlink:href="#m861d0d26dd" x="0" y="280.655312" style="fill: #1f78b4; fill-opacity: 0.5; stroke: #1f78b4"/>
    </g>
   </g>
   <g id="matplotlib.axis_3">
    <g id="xtick_7">
     <g id="line2d_9">
      <g>
       <use xlink:href="#m3d7b838fd3" x="121.37205" y="150.312" style="stroke: #000000; stroke-width: 0.8"/>
      </g>
     </g>
    </g>
    <g id="xtick_8">
     <g id="line2d_10">
      <g>
       <use xlink:href="#m3d7b838fd3" x="244.53905" y="150.312" style="stroke: #000000; stroke-width: 0.8"/>
      </g>
     </g>
    </g>
    <g id="xtick_9">
     <g id="line2d_11">
      <g>
       <use xlink:href="#m3d7b838fd3" x="367.70605" y="150.312" style="stroke: #000000; stroke-width: 0.8"/>
      </g>
     </g>
    </g>
    <g id="xtick_10">
     <g id="line2d_12">
      <g>
       <use xlink:href="#m3d7b838fd3" x="490.87305" y="150.312" style="stroke: #000000; stroke-width: 0.8"/>
      </g>
     </g>
    </g>
    <g id="xtick_11">
     <g id="line2d_13">
      <g>
       <use xlink:href="#m3d7b838fd3" x="614.04005" y="150.312" style="stroke: #000000; stroke-width: 0.8"/>
      </g>
     </g>
    </g>
    <g id="xtick_12">
     <g id="line2d_14">
      <g>
       <use xlink:href="#m3d7b838fd3" x="737.20705" y="150.312" style="stroke: #000000; stroke-width: 0.8"/>
      </g>
     </g>
    </g>
   </g>
   <g id="matplotlib.axis_4"/>
   <g id="line2d_15">
    <path d="M 121.37205 123.62931 
L 143.034588 116.088229 
L 152.318532 113.086047 
L 161.602477 110.348059 
L 167.791774 108.70921 
L 173.98107 107.244137 
L 180.170367 105.970684 
L 186.359663 104.903287 
L 192.54896 104.052579 
L 198.738256 103.425104 
L 204.927553 103.023145 
L 211.116849 102.844665 
L 217.306145 102.88338 
L 223.495442 103.128946 
L 229.684738 103.567268 
L 235.874035 104.180907 
L 245.15798 105.385105 
L 254.441924 106.860389 
L 266.820517 109.104276 
L 297.767 114.909393 
L 310.145593 116.901021 
L 319.429537 118.177717 
L 328.713482 119.249197 
L 337.997427 120.112837 
L 347.281372 120.776879 
L 356.565316 121.25729 
L 368.943909 121.647636 
L 381.322502 121.798505 
L 396.795743 121.717171 
L 412.268985 121.39075 
L 427.742226 120.848431 
L 443.215467 120.098119 
L 458.688708 119.141437 
L 474.161949 117.986258 
L 492.729839 116.36577 
L 514.392377 114.212539 
L 536.054914 111.839904 
L 560.8121 108.911854 
L 607.231824 103.319389 
L 619.610417 102.107546 
L 628.894362 101.396268 
L 638.178306 100.913276 
L 647.462251 100.7116 
L 653.651547 100.757893 
L 659.840844 100.963811 
L 666.03014 101.339944 
L 672.219437 101.894348 
L 678.408733 102.632172 
L 684.59803 103.555357 
L 690.787326 104.662445 
L 696.976623 105.94849 
L 703.165919 107.405083 
L 712.449864 109.88321 
L 721.733809 112.66563 
L 731.017754 115.68725 
L 737.20705 117.798132 
L 737.20705 117.798132 
" clip-path="url(#p6572febb97)" style="fill: none; stroke: #ffffff; stroke-width: 2; stroke-linecap: square"/>
   </g>
   <g id="line2d_16">
    <path d="M 121.37205 150.312 
L 737.20705 150.312 
" style="fill: none; stroke: #000000; stroke-linecap: square"/>
   </g>
   <g id="text_2">
    <g id="patch_5">
     <path d="M 9.470625 159.721687 
L 60.669375 159.721687 
L 60.669375 140.902312 
L 9.470625 140.902312 
z
" style="fill: #ffffff; opacity: 0.5"/>
    </g>
    <!-- ClipVibe -->
    <g transform="translate(13.430625 153.194812) scale(0.12 -0.12)">
     <defs>
      <path id="TimesNewRomanPSMT-6c" d="M 1184 4444 
L 1184 647 
Q 1184 378 1223 290 
Q 1263 203 1344 158 
Q 1425 113 1647 113 
L 1647 0 
L 244 0 
L 244 113 
Q 441 113 512 153 
Q 584 194 625 287 
Q 666 381 666 647 
L 666 3247 
Q 666 3731 644 3842 
Q 622 3953 573 3993 
Q 525 4034 450 4034 
Q 369 4034 244 3984 
L 191 4094 
L 1044 4444 
L 1184 4444 
z
" transform="scale(0.015625)"/>
      <path id="TimesNewRomanPSMT-56" d="M 4544 4238 
L 4544 4122 
Q 4319 4081 4203 3978 
Q 4038 3825 3909 3509 
L 2431 -97 
L 2316 -97 
L 728 3556 
Q 606 3838 556 3900 
Q 478 3997 364 4051 
Q 250 4106 56 4122 
L 56 4238 
L 1788 4238 
L 1788 4122 
Q 1494 4094 1406 4022 
Q 1319 3950 1319 3838 
Q 1319 3681 1463 3350 
L 2541 866 
L 3541 3319 
Q 3688 3681 3688 3822 
Q 3688 3913 3597 3995 
Q 3506 4078 3291 4113 
Q 3275 4116 3238 4122 
L 3238 4238 
L 4544 4238 
z
" transform="scale(0.015625)"/>
      <path id="TimesNewRomanPSMT-62" d="M 984 2369 
Q 1400 2947 1881 2947 
Q 2322 2947 2650 2570 
Q 2978 2194 2978 1541 
Q 2978 778 2472 313 
Q 2038 -88 1503 -88 
Q 1253 -88 995 3 
Q 738 94 469 275 
L 469 3241 
Q 469 3728 445 3840 
Q 422 3953 372 3993 
Q 322 4034 247 4034 
Q 159 4034 28 3984 
L -16 4094 
L 844 4444 
L 984 4444 
L 984 2369 
z
M 984 2169 
L 984 456 
Q 1144 300 1314 220 
Q 1484 141 1663 141 
Q 1947 141 2192 453 
Q 2438 766 2438 1363 
Q 2438 1913 2192 2208 
Q 1947 2503 1634 2503 
Q 1469 2503 1303 2419 
Q 1178 2356 984 2169 
z
" transform="scale(0.015625)"/>
     </defs>
     <use xlink:href="#TimesNewRomanPSMT-43"/>
     <use xlink:href="#TimesNewRomanPSMT-6c" transform="translate(66.699219 0)"/>
     <use xlink:href="#TimesNewRomanPSMT-69" transform="translate(94.482422 0)"/>
     <use xlink:href="#TimesNewRomanPSMT-70" transform="translate(122.265625 0)"/>
     <use xlink:href="#TimesNewRomanPSMT-56" transform="translate(172.265625 0)"/>
     <use xlink:href="#TimesNewRomanPSMT-69" transform="translate(238.482422 0)"/>
     <use xlink:href="#TimesNewRomanPSMT-62" transform="translate(266.265625 0)"/>
     <use xlink:href="#TimesNewRomanPSMT-65" transform="translate(316.265625 0)"/>
    </g>
   </g>
  </g>
  <g id="axes_3">
   <g id="patch_6">
    <path d="M 121.37205 194.576 
L 737.20705 194.576 
L 737.20705 106.048 
L 121.37205 106.048 
L 121.37205 194.576 
z
" style="fill: none; opacity: 0"/>
   </g>
   <g id="FillBetweenPolyCollection_3">
    <defs>
     <path id="m58f5da6708" d="M 121.37205 -118.881695 
L 121.37205 -86.079312 
L 124.466698 -86.079312 
L 127.561346 -86.079312 
L 130.655995 -86.079312 
L 133.750643 -86.079312 
L 136.845291 -86.079312 
L 139.939939 -86.079312 
L 143.034588 -86.079312 
L 146.129236 -86.079312 
L 149.223884 -86.079312 
L 152.318532 -86.079312 
L 155.413181 -86.079312 
L 158.507829 -86.079312 
L 161.602477 -86.079312 
L 164.697125 -86.079312 
L 167.791774 -86.079312 
L 170.886422 -86.079312 
L 173.98107 -86.079312 
L 177.075718 -86.079312 
L 180.170367 -86.079312 
L 183.265015 -86.079312 
L 186.359663 -86.079312 
L 189.454311 -86.079312 
L 192.54896 -86.079312 
L 195.643608 -86.079312 
L 198.738256 -86.079312 
L 201.832904 -86.079312 
L 204.927553 -86.079312 
L 208.022201 -86.079312 
L 211.116849 -86.079312 
L 214.211497 -86.079312 
L 217.306145 -86.079312 
L 220.400794 -86.079312 
L 223.495442 -86.079312 
L 226.59009 -86.079312 
L 229.684738 -86.079312 
L 232.779387 -86.079312 
L 235.874035 -86.079312 
L 238.968683 -86.079312 
L 242.063331 -86.079312 
L 245.15798 -86.079312 
L 248.252628 -86.079312 
L 251.347276 -86.079312 
L 254.441924 -86.079312 
L 257.536573 -86.079312 
L 260.631221 -86.079312 
L 263.725869 -86.079312 
L 266.820517 -86.079312 
L 269.915166 -86.079312 
L 273.009814 -86.079312 
L 276.104462 -86.079312 
L 279.19911 -86.079312 
L 282.293759 -86.079312 
L 285.388407 -86.079312 
L 288.483055 -86.079312 
L 291.577703 -86.079312 
L 294.672352 -86.079312 
L 297.767 -86.079312 
L 300.861648 -86.079312 
L 303.956296 -86.079312 
L 307.050944 -86.079312 
L 310.145593 -86.079312 
L 313.240241 -86.079312 
L 316.334889 -86.079312 
L 319.429537 -86.079312 
L 322.524186 -86.079312 
L 325.618834 -86.079312 
L 328.713482 -86.079312 
L 331.80813 -86.079312 
L 334.902779 -86.079312 
L 337.997427 -86.079312 
L 341.092075 -86.079312 
L 344.186723 -86.079312 
L 347.281372 -86.079312 
L 350.37602 -86.079312 
L 353.470668 -86.079312 
L 356.565316 -86.079312 
L 359.659965 -86.079312 
L 362.754613 -86.079312 
L 365.849261 -86.079312 
L 368.943909 -86.079312 
L 372.038558 -86.079312 
L 375.133206 -86.079312 
L 378.227854 -86.079312 
L 381.322502 -86.079312 
L 384.417151 -86.079312 
L 387.511799 -86.079312 
L 390.606447 -86.079312 
L 393.701095 -86.079312 
L 396.795743 -86.079312 
L 399.890392 -86.079312 
L 402.98504 -86.079312 
L 406.079688 -86.079312 
L 409.174336 -86.079312 
L 412.268985 -86.079312 
L 415.363633 -86.079312 
L 418.458281 -86.079312 
L 421.552929 -86.079312 
L 424.647578 -86.079312 
L 427.742226 -86.079312 
L 430.836874 -86.079312 
L 433.931522 -86.079312 
L 437.026171 -86.079312 
L 440.120819 -86.079312 
L 443.215467 -86.079312 
L 446.310115 -86.079312 
L 449.404764 -86.079312 
L 452.499412 -86.079312 
L 455.59406 -86.079312 
L 458.688708 -86.079312 
L 461.783357 -86.079312 
L 464.878005 -86.079312 
L 467.972653 -86.079312 
L 471.067301 -86.079312 
L 474.161949 -86.079312 
L 477.256598 -86.079312 
L 480.351246 -86.079312 
L 483.445894 -86.079312 
L 486.540542 -86.079312 
L 489.635191 -86.079312 
L 492.729839 -86.079312 
L 495.824487 -86.079312 
L 498.919135 -86.079312 
L 502.013784 -86.079312 
L 505.108432 -86.079312 
L 508.20308 -86.079312 
L 511.297728 -86.079312 
L 514.392377 -86.079312 
L 517.487025 -86.079312 
L 520.581673 -86.079312 
L 523.676321 -86.079312 
L 526.77097 -86.079312 
L 529.865618 -86.079312 
L 532.960266 -86.079312 
L 536.054914 -86.079312 
L 539.149563 -86.079312 
L 542.244211 -86.079312 
L 545.338859 -86.079312 
L 548.433507 -86.079312 
L 551.528156 -86.079312 
L 554.622804 -86.079312 
L 557.717452 -86.079312 
L 560.8121 -86.079312 
L 563.906748 -86.079312 
L 567.001397 -86.079312 
L 570.096045 -86.079312 
L 573.190693 -86.079312 
L 576.285341 -86.079312 
L 579.37999 -86.079312 
L 582.474638 -86.079312 
L 585.569286 -86.079312 
L 588.663934 -86.079312 
L 591.758583 -86.079312 
L 594.853231 -86.079312 
L 597.947879 -86.079312 
L 601.042527 -86.079312 
L 604.137176 -86.079312 
L 607.231824 -86.079312 
L 610.326472 -86.079312 
L 613.42112 -86.079312 
L 616.515769 -86.079312 
L 619.610417 -86.079312 
L 622.705065 -86.079312 
L 625.799713 -86.079312 
L 628.894362 -86.079312 
L 631.98901 -86.079312 
L 635.083658 -86.079312 
L 638.178306 -86.079312 
L 641.272955 -86.079312 
L 644.367603 -86.079312 
L 647.462251 -86.079312 
L 650.556899 -86.079312 
L 653.651547 -86.079312 
L 656.746196 -86.079312 
L 659.840844 -86.079312 
L 662.935492 -86.079312 
L 666.03014 -86.079312 
L 669.124789 -86.079312 
L 672.219437 -86.079312 
L 675.314085 -86.079312 
L 678.408733 -86.079312 
L 681.503382 -86.079312 
L 684.59803 -86.079312 
L 687.692678 -86.079312 
L 690.787326 -86.079312 
L 693.881975 -86.079312 
L 696.976623 -86.079312 
L 700.071271 -86.079312 
L 703.165919 -86.079312 
L 706.260568 -86.079312 
L 709.355216 -86.079312 
L 712.449864 -86.079312 
L 715.544512 -86.079312 
L 718.639161 -86.079312 
L 721.733809 -86.079312 
L 724.828457 -86.079312 
L 727.923105 -86.079312 
L 731.017754 -86.079312 
L 734.112402 -86.079312 
L 737.20705 -86.079312 
L 737.20705 -116.398896 
L 737.20705 -116.398896 
L 734.112402 -117.52815 
L 731.017754 -118.644316 
L 727.923105 -119.743427 
L 724.828457 -120.821525 
L 721.733809 -121.874696 
L 718.639161 -122.899101 
L 715.544512 -123.891007 
L 712.449864 -124.846818 
L 709.355216 -125.763113 
L 706.260568 -126.636666 
L 703.165919 -127.464487 
L 700.071271 -128.243838 
L 696.976623 -128.972267 
L 693.881975 -129.647625 
L 690.787326 -130.26809 
L 687.692678 -130.832178 
L 684.59803 -131.338764 
L 681.503382 -131.787083 
L 678.408733 -132.176743 
L 675.314085 -132.507724 
L 672.219437 -132.780375 
L 669.124789 -132.995411 
L 666.03014 -133.153901 
L 662.935492 -133.257258 
L 659.840844 -133.307215 
L 656.746196 -133.305814 
L 653.651547 -133.255375 
L 650.556899 -133.158473 
L 647.462251 -133.01791 
L 644.367603 -132.836683 
L 641.272955 -132.617949 
L 638.178306 -132.364999 
L 635.083658 -132.081215 
L 631.98901 -131.770042 
L 628.894362 -131.434949 
L 625.799713 -131.079397 
L 622.705065 -130.706808 
L 619.610417 -130.32053 
L 616.515769 -129.92381 
L 613.42112 -129.519766 
L 610.326472 -129.11136 
L 607.231824 -128.701381 
L 604.137176 -128.292418 
L 601.042527 -127.886851 
L 597.947879 -127.486833 
L 594.853231 -127.094285 
L 591.758583 -126.710883 
L 588.663934 -126.33806 
L 585.569286 -125.977005 
L 582.474638 -125.628665 
L 579.37999 -125.293748 
L 576.285341 -124.972737 
L 573.190693 -124.665896 
L 570.096045 -124.373286 
L 567.001397 -124.094776 
L 563.906748 -123.830064 
L 560.8121 -123.578687 
L 557.717452 -123.340049 
L 554.622804 -123.11343 
L 551.528156 -122.898012 
L 548.433507 -122.692897 
L 545.338859 -122.497122 
L 542.244211 -122.309682 
L 539.149563 -122.129546 
L 536.054914 -121.955673 
L 532.960266 -121.787028 
L 529.865618 -121.622601 
L 526.77097 -121.461411 
L 523.676321 -121.302527 
L 520.581673 -121.145073 
L 517.487025 -120.988241 
L 514.392377 -120.831295 
L 511.297728 -120.673577 
L 508.20308 -120.514517 
L 505.108432 -120.35363 
L 502.013784 -120.190523 
L 498.919135 -120.024895 
L 495.824487 -119.856534 
L 492.729839 -119.685321 
L 489.635191 -119.511228 
L 486.540542 -119.334309 
L 483.445894 -119.154706 
L 480.351246 -118.972641 
L 477.256598 -118.788411 
L 474.161949 -118.602386 
L 471.067301 -118.415002 
L 467.972653 -118.226759 
L 464.878005 -118.038213 
L 461.783357 -117.849973 
L 458.688708 -117.662692 
L 455.59406 -117.477065 
L 452.499412 -117.293821 
L 449.404764 -117.113719 
L 446.310115 -116.93754 
L 443.215467 -116.766083 
L 440.120819 -116.600156 
L 437.026171 -116.440575 
L 433.931522 -116.288152 
L 430.836874 -116.143694 
L 427.742226 -116.007995 
L 424.647578 -115.88183 
L 421.552929 -115.765949 
L 418.458281 -115.661074 
L 415.363633 -115.56789 
L 412.268985 -115.487043 
L 409.174336 -115.419135 
L 406.079688 -115.364717 
L 402.98504 -115.324291 
L 399.890392 -115.2983 
L 396.795743 -115.28713 
L 393.701095 -115.291109 
L 390.606447 -115.310499 
L 387.511799 -115.345503 
L 384.417151 -115.396262 
L 381.322502 -115.462854 
L 378.227854 -115.545299 
L 375.133206 -115.643559 
L 372.038558 -115.757541 
L 368.943909 -115.887103 
L 365.849261 -116.032054 
L 362.754613 -116.192163 
L 359.659965 -116.367162 
L 356.565316 -116.556749 
L 353.470668 -116.760598 
L 350.37602 -116.978364 
L 347.281372 -117.209683 
L 344.186723 -117.454186 
L 341.092075 -117.711499 
L 337.997427 -117.981246 
L 334.902779 -118.263059 
L 331.80813 -118.556578 
L 328.713482 -118.861453 
L 325.618834 -119.177348 
L 322.524186 -119.503942 
L 319.429537 -119.840928 
L 316.334889 -120.188013 
L 313.240241 -120.544913 
L 310.145593 -120.911355 
L 307.050944 -121.287068 
L 303.956296 -121.67178 
L 300.861648 -122.065212 
L 297.767 -122.467069 
L 294.672352 -122.877032 
L 291.577703 -123.294752 
L 288.483055 -123.719836 
L 285.388407 -124.151842 
L 282.293759 -124.590265 
L 279.19911 -125.03453 
L 276.104462 -125.483979 
L 273.009814 -125.937863 
L 269.915166 -126.395331 
L 266.820517 -126.855424 
L 263.725869 -127.317067 
L 260.631221 -127.77906 
L 257.536573 -128.240075 
L 254.441924 -128.69865 
L 251.347276 -129.153192 
L 248.252628 -129.601972 
L 245.15798 -130.043126 
L 242.063331 -130.474663 
L 238.968683 -130.894471 
L 235.874035 -131.300318 
L 232.779387 -131.68987 
L 229.684738 -132.060701 
L 226.59009 -132.410305 
L 223.495442 -132.736114 
L 220.400794 -133.035517 
L 217.306145 -133.30588 
L 214.211497 -133.544565 
L 211.116849 -133.748955 
L 208.022201 -133.916479 
L 204.927553 -134.044632 
L 201.832904 -134.131003 
L 198.738256 -134.173301 
L 195.643608 -134.169377 
L 192.54896 -134.117252 
L 189.454311 -134.015137 
L 186.359663 -133.861455 
L 183.265015 -133.654867 
L 180.170367 -133.394286 
L 177.075718 -133.078894 
L 173.98107 -132.708161 
L 170.886422 -132.28185 
L 167.791774 -131.800033 
L 164.697125 -131.263092 
L 161.602477 -130.671724 
L 158.507829 -130.026941 
L 155.413181 -129.330066 
L 152.318532 -128.582727 
L 149.223884 -127.786847 
L 146.129236 -126.944629 
L 143.034588 -126.058546 
L 139.939939 -125.131316 
L 136.845291 -124.165885 
L 133.750643 -123.165404 
L 130.655995 -122.133203 
L 127.561346 -121.072764 
L 124.466698 -119.987693 
L 121.37205 -118.881695 
z
" style="stroke: #b2df8a"/>
    </defs>
    <g clip-path="url(#p7154cf17bc)">
     <use xlink:href="#m58f5da6708" x="0" y="280.655312" style="fill: #b2df8a; fill-opacity: 0.5; stroke: #b2df8a"/>
    </g>
   </g>
   <g id="matplotlib.axis_5">
    <g id="xtick_13">
     <g id="line2d_17">
      <g>
       <use xlink:href="#m3d7b838fd3" x="121.37205" y="194.576" style="stroke: #000000; stroke-width: 0.8"/>
      </g>
     </g>
    </g>
    <g id="xtick_14">
     <g id="line2d_18">
      <g>
       <use xlink:href="#m3d7b838fd3" x="244.53905" y="194.576" style="stroke: #000000; stroke-width: 0.8"/>
      </g>
     </g>
    </g>
    <g id="xtick_15">
     <g id="line2d_19">
      <g>
       <use xlink:href="#m3d7b838fd3" x="367.70605" y="194.576" style="stroke: #000000; stroke-width: 0.8"/>
      </g>
     </g>
    </g>
    <g id="xtick_16">
     <g id="line2d_20">
      <g>
       <use xlink:href="#m3d7b838fd3" x="490.87305" y="194.576" style="stroke: #000000; stroke-width: 0.8"/>
      </g>
     </g>
    </g>
    <g id="xtick_17">
     <g id="line2d_21">
      <g>
       <use xlink:href="#m3d7b838fd3" x="614.04005" y="194.576" style="stroke: #000000; stroke-width: 0.8"/>
      </g>
     </g>
    </g>
    <g id="xtick_18">
     <g id="line2d_22">
      <g>
       <use xlink:href="#m3d7b838fd3" x="737.20705" y="194.576" style="stroke: #000000; stroke-width: 0.8"/>
      </g>
     </g>
    </g>
   </g>
   <g id="matplotlib.axis_6"/>
   <g id="line2d_23">
    <path d="M 121.37205 161.773618 
L 130.655995 158.52211 
L 139.939939 155.523997 
L 146.129236 153.710683 
L 152.318532 152.072585 
L 158.507829 150.628372 
L 164.697125 149.392221 
L 170.886422 148.373462 
L 177.075718 147.576418 
L 183.265015 147.000445 
L 189.454311 146.640176 
L 195.643608 146.485935 
L 201.832904 146.52431 
L 208.022201 146.738833 
L 217.306145 147.349433 
L 226.59009 148.245008 
L 235.874035 149.354995 
L 248.252628 151.053341 
L 300.861648 158.5901 
L 316.334889 160.4673 
L 331.80813 162.098735 
L 344.186723 163.201126 
L 356.565316 164.098564 
L 368.943909 164.76821 
L 381.322502 165.192459 
L 393.701095 165.364204 
L 406.079688 165.290595 
L 418.458281 164.994238 
L 433.931522 164.367161 
L 452.499412 163.361492 
L 511.297728 159.981735 
L 545.338859 158.15819 
L 560.8121 157.076625 
L 573.190693 155.989416 
L 585.569286 154.678307 
L 601.042527 152.768462 
L 628.894362 149.220364 
L 638.178306 148.290313 
L 647.462251 147.637402 
L 653.651547 147.399938 
L 659.840844 147.348097 
L 666.03014 147.501411 
L 672.219437 147.874938 
L 678.408733 148.478569 
L 684.59803 149.316549 
L 690.787326 150.387223 
L 696.976623 151.683046 
L 703.165919 153.190826 
L 709.355216 154.8922 
L 718.639161 157.756211 
L 727.923105 160.911886 
L 737.20705 164.256417 
L 737.20705 164.256417 
" clip-path="url(#p7154cf17bc)" style="fill: none; stroke: #ffffff; stroke-width: 2; stroke-linecap: square"/>
   </g>
   <g id="line2d_24">
    <path d="M 121.37205 194.576 
L 737.20705 194.576 
" style="fill: none; stroke: #000000; stroke-linecap: square"/>
   </g>
   <g id="text_3">
    <g id="patch_7">
     <path d="M 3.24 203.985687 
L 60.669375 203.985687 
L 60.669375 185.166312 
L 3.24 185.166312 
z
" style="fill: #ffffff; opacity: 0.5"/>
    </g>
    <!-- ViewTube -->
    <g transform="translate(7.2 197.458812) scale(0.12 -0.12)">
     <defs>
      <path id="TimesNewRomanPSMT-77" d="M 41 2863 
L 1241 2863 
L 1241 2747 
Q 1075 2734 1023 2687 
Q 972 2641 972 2553 
Q 972 2456 1025 2319 
L 1638 672 
L 2253 2013 
L 2091 2434 
Q 2016 2622 1894 2694 
Q 1825 2738 1638 2747 
L 1638 2863 
L 3000 2863 
L 3000 2747 
Q 2775 2738 2681 2666 
Q 2619 2616 2619 2506 
Q 2619 2444 2644 2378 
L 3294 734 
L 3897 2319 
Q 3959 2488 3959 2588 
Q 3959 2647 3898 2694 
Q 3838 2741 3659 2747 
L 3659 2863 
L 4563 2863 
L 4563 2747 
Q 4291 2706 4163 2378 
L 3206 -88 
L 3078 -88 
L 2363 1741 
L 1528 -88 
L 1413 -88 
L 494 2319 
Q 403 2547 315 2626 
Q 228 2706 41 2747 
L 41 2863 
z
" transform="scale(0.015625)"/>
      <path id="TimesNewRomanPSMT-54" d="M 3703 4238 
L 3750 3244 
L 3631 3244 
Q 3597 3506 3538 3619 
Q 3441 3800 3280 3886 
Q 3119 3972 2856 3972 
L 2259 3972 
L 2259 734 
Q 2259 344 2344 247 
Q 2463 116 2709 116 
L 2856 116 
L 2856 0 
L 1059 0 
L 1059 116 
L 1209 116 
Q 1478 116 1591 278 
Q 1659 378 1659 734 
L 1659 3972 
L 1150 3972 
Q 853 3972 728 3928 
Q 566 3869 450 3700 
Q 334 3531 313 3244 
L 194 3244 
L 244 4238 
L 3703 4238 
z
" transform="scale(0.015625)"/>
      <path id="TimesNewRomanPSMT-75" d="M 2709 2863 
L 2709 1128 
Q 2709 631 2732 520 
Q 2756 409 2807 365 
Q 2859 322 2928 322 
Q 3025 322 3147 375 
L 3191 266 
L 2334 -88 
L 2194 -88 
L 2194 519 
Q 1825 119 1631 15 
Q 1438 -88 1222 -88 
Q 981 -88 804 51 
Q 628 191 559 409 
Q 491 628 491 1028 
L 491 2306 
Q 491 2509 447 2587 
Q 403 2666 317 2708 
Q 231 2750 6 2747 
L 6 2863 
L 1009 2863 
L 1009 947 
Q 1009 547 1148 422 
Q 1288 297 1484 297 
Q 1619 297 1789 381 
Q 1959 466 2194 703 
L 2194 2325 
Q 2194 2569 2105 2655 
Q 2016 2741 1734 2747 
L 1734 2863 
L 2709 2863 
z
" transform="scale(0.015625)"/>
     </defs>
     <use xlink:href="#TimesNewRomanPSMT-56"/>
     <use xlink:href="#TimesNewRomanPSMT-69" transform="translate(66.216797 0)"/>
     <use xlink:href="#TimesNewRomanPSMT-65" transform="translate(94 0)"/>
     <use xlink:href="#TimesNewRomanPSMT-77" transform="translate(138.384766 0)"/>
     <use xlink:href="#TimesNewRomanPSMT-54" transform="translate(210.601562 0)"/>
     <use xlink:href="#TimesNewRomanPSMT-75" transform="translate(268.185547 0)"/>
     <use xlink:href="#TimesNewRomanPSMT-62" transform="translate(318.185547 0)"/>
     <use xlink:href="#TimesNewRomanPSMT-65" transform="translate(368.185547 0)"/>
    </g>
   </g>
  </g>
  <g id="axes_4">
   <g id="patch_8">
    <path d="M 121.37205 238.84 
L 737.20705 238.84 
L 737.20705 150.312 
L 121.37205 150.312 
L 121.37205 238.84 
z
" style="fill: none; opacity: 0"/>
   </g>
   <g id="FillBetweenPolyCollection_4">
    <defs>
     <path id="m158761bd76" d="M 121.37205 -51.689992 
L 121.37205 -41.815313 
L 124.466698 -41.815313 
L 127.561346 -41.815313 
L 130.655995 -41.815313 
L 133.750643 -41.815313 
L 136.845291 -41.815313 
L 139.939939 -41.815313 
L 143.034588 -41.815313 
L 146.129236 -41.815313 
L 149.223884 -41.815313 
L 152.318532 -41.815313 
L 155.413181 -41.815313 
L 158.507829 -41.815313 
L 161.602477 -41.815313 
L 164.697125 -41.815313 
L 167.791774 -41.815313 
L 170.886422 -41.815313 
L 173.98107 -41.815313 
L 177.075718 -41.815313 
L 180.170367 -41.815313 
L 183.265015 -41.815313 
L 186.359663 -41.815313 
L 189.454311 -41.815313 
L 192.54896 -41.815313 
L 195.643608 -41.815313 
L 198.738256 -41.815313 
L 201.832904 -41.815313 
L 204.927553 -41.815313 
L 208.022201 -41.815313 
L 211.116849 -41.815313 
L 214.211497 -41.815313 
L 217.306145 -41.815313 
L 220.400794 -41.815313 
L 223.495442 -41.815313 
L 226.59009 -41.815313 
L 229.684738 -41.815313 
L 232.779387 -41.815313 
L 235.874035 -41.815313 
L 238.968683 -41.815313 
L 242.063331 -41.815313 
L 245.15798 -41.815313 
L 248.252628 -41.815313 
L 251.347276 -41.815313 
L 254.441924 -41.815313 
L 257.536573 -41.815313 
L 260.631221 -41.815313 
L 263.725869 -41.815313 
L 266.820517 -41.815313 
L 269.915166 -41.815313 
L 273.009814 -41.815313 
L 276.104462 -41.815313 
L 279.19911 -41.815313 
L 282.293759 -41.815313 
L 285.388407 -41.815313 
L 288.483055 -41.815313 
L 291.577703 -41.815313 
L 294.672352 -41.815313 
L 297.767 -41.815313 
L 300.861648 -41.815313 
L 303.956296 -41.815313 
L 307.050944 -41.815313 
L 310.145593 -41.815313 
L 313.240241 -41.815313 
L 316.334889 -41.815313 
L 319.429537 -41.815313 
L 322.524186 -41.815313 
L 325.618834 -41.815313 
L 328.713482 -41.815313 
L 331.80813 -41.815313 
L 334.902779 -41.815313 
L 337.997427 -41.815313 
L 341.092075 -41.815313 
L 344.186723 -41.815313 
L 347.281372 -41.815313 
L 350.37602 -41.815313 
L 353.470668 -41.815313 
L 356.565316 -41.815313 
L 359.659965 -41.815313 
L 362.754613 -41.815313 
L 365.849261 -41.815313 
L 368.943909 -41.815313 
L 372.038558 -41.815313 
L 375.133206 -41.815313 
L 378.227854 -41.815313 
L 381.322502 -41.815313 
L 384.417151 -41.815313 
L 387.511799 -41.815313 
L 390.606447 -41.815313 
L 393.701095 -41.815313 
L 396.795743 -41.815313 
L 399.890392 -41.815313 
L 402.98504 -41.815313 
L 406.079688 -41.815313 
L 409.174336 -41.815313 
L 412.268985 -41.815313 
L 415.363633 -41.815313 
L 418.458281 -41.815313 
L 421.552929 -41.815313 
L 424.647578 -41.815313 
L 427.742226 -41.815313 
L 430.836874 -41.815313 
L 433.931522 -41.815313 
L 437.026171 -41.815313 
L 440.120819 -41.815313 
L 443.215467 -41.815313 
L 446.310115 -41.815313 
L 449.404764 -41.815313 
L 452.499412 -41.815313 
L 455.59406 -41.815313 
L 458.688708 -41.815313 
L 461.783357 -41.815313 
L 464.878005 -41.815313 
L 467.972653 -41.815313 
L 471.067301 -41.815313 
L 474.161949 -41.815313 
L 477.256598 -41.815313 
L 480.351246 -41.815313 
L 483.445894 -41.815313 
L 486.540542 -41.815313 
L 489.635191 -41.815313 
L 492.729839 -41.815313 
L 495.824487 -41.815313 
L 498.919135 -41.815313 
L 502.013784 -41.815313 
L 505.108432 -41.815313 
L 508.20308 -41.815313 
L 511.297728 -41.815313 
L 514.392377 -41.815313 
L 517.487025 -41.815313 
L 520.581673 -41.815313 
L 523.676321 -41.815313 
L 526.77097 -41.815313 
L 529.865618 -41.815313 
L 532.960266 -41.815313 
L 536.054914 -41.815313 
L 539.149563 -41.815313 
L 542.244211 -41.815313 
L 545.338859 -41.815313 
L 548.433507 -41.815313 
L 551.528156 -41.815313 
L 554.622804 -41.815313 
L 557.717452 -41.815313 
L 560.8121 -41.815313 
L 563.906748 -41.815313 
L 567.001397 -41.815313 
L 570.096045 -41.815313 
L 573.190693 -41.815313 
L 576.285341 -41.815313 
L 579.37999 -41.815313 
L 582.474638 -41.815313 
L 585.569286 -41.815313 
L 588.663934 -41.815313 
L 591.758583 -41.815313 
L 594.853231 -41.815313 
L 597.947879 -41.815313 
L 601.042527 -41.815313 
L 604.137176 -41.815313 
L 607.231824 -41.815313 
L 610.326472 -41.815313 
L 613.42112 -41.815313 
L 616.515769 -41.815313 
L 619.610417 -41.815313 
L 622.705065 -41.815313 
L 625.799713 -41.815313 
L 628.894362 -41.815313 
L 631.98901 -41.815313 
L 635.083658 -41.815313 
L 638.178306 -41.815313 
L 641.272955 -41.815313 
L 644.367603 -41.815313 
L 647.462251 -41.815313 
L 650.556899 -41.815313 
L 653.651547 -41.815313 
L 656.746196 -41.815313 
L 659.840844 -41.815313 
L 662.935492 -41.815313 
L 666.03014 -41.815313 
L 669.124789 -41.815313 
L 672.219437 -41.815313 
L 675.314085 -41.815313 
L 678.408733 -41.815313 
L 681.503382 -41.815313 
L 684.59803 -41.815313 
L 687.692678 -41.815313 
L 690.787326 -41.815313 
L 693.881975 -41.815313 
L 696.976623 -41.815313 
L 700.071271 -41.815313 
L 703.165919 -41.815313 
L 706.260568 -41.815313 
L 709.355216 -41.815313 
L 712.449864 -41.815313 
L 715.544512 -41.815313 
L 718.639161 -41.815313 
L 721.733809 -41.815313 
L 724.828457 -41.815313 
L 727.923105 -41.815313 
L 731.017754 -41.815313 
L 734.112402 -41.815313 
L 737.20705 -41.815313 
L 737.20705 -70.379136 
L 737.20705 -70.379136 
L 734.112402 -72.041518 
L 731.017754 -73.728709 
L 727.923105 -75.435171 
L 724.828457 -77.155089 
L 721.733809 -78.882421 
L 718.639161 -80.610942 
L 715.544512 -82.334298 
L 712.449864 -84.046052 
L 709.355216 -85.739745 
L 706.260568 -87.408941 
L 703.165919 -89.047288 
L 700.071271 -90.648564 
L 696.976623 -92.20673 
L 693.881975 -93.715977 
L 690.787326 -95.170773 
L 687.692678 -96.565904 
L 684.59803 -97.896513 
L 681.503382 -99.158134 
L 678.408733 -100.346728 
L 675.314085 -101.458701 
L 672.219437 -102.490938 
L 669.124789 -103.440811 
L 666.03014 -104.3062 
L 662.935492 -105.085499 
L 659.840844 -105.777624 
L 656.746196 -106.38201 
L 653.651547 -106.898614 
L 650.556899 -107.327901 
L 647.462251 -107.670837 
L 644.367603 -107.928875 
L 641.272955 -108.103931 
L 638.178306 -108.198367 
L 635.083658 -108.214964 
L 631.98901 -108.156892 
L 628.894362 -108.027679 
L 625.799713 -107.831181 
L 622.705065 -107.57154 
L 619.610417 -107.253152 
L 616.515769 -106.880625 
L 613.42112 -106.458738 
L 610.326472 -105.992404 
L 607.231824 -105.486625 
L 604.137176 -104.946453 
L 601.042527 -104.376951 
L 597.947879 -103.783148 
L 594.853231 -103.170006 
L 591.758583 -102.54238 
L 588.663934 -101.904982 
L 585.569286 -101.262348 
L 582.474638 -100.618805 
L 579.37999 -99.978444 
L 576.285341 -99.345089 
L 573.190693 -98.722277 
L 570.096045 -98.113231 
L 567.001397 -97.520846 
L 563.906748 -96.947671 
L 560.8121 -96.395898 
L 557.717452 -95.867351 
L 554.622804 -95.363483 
L 551.528156 -94.885377 
L 548.433507 -94.433744 
L 545.338859 -94.008937 
L 542.244211 -93.610959 
L 539.149563 -93.239484 
L 536.054914 -92.893875 
L 532.960266 -92.573213 
L 529.865618 -92.276326 
L 526.77097 -92.001828 
L 523.676321 -91.748152 
L 520.581673 -91.513599 
L 517.487025 -91.296376 
L 514.392377 -91.094647 
L 511.297728 -90.90658 
L 508.20308 -90.730393 
L 505.108432 -90.564398 
L 502.013784 -90.407049 
L 498.919135 -90.256979 
L 495.824487 -90.113036 
L 492.729839 -89.974313 
L 489.635191 -89.840169 
L 486.540542 -89.710249 
L 483.445894 -89.584487 
L 480.351246 -89.463106 
L 477.256598 -89.346607 
L 474.161949 -89.235753 
L 471.067301 -89.131536 
L 467.972653 -89.035145 
L 464.878005 -88.947918 
L 461.783357 -88.871298 
L 458.688708 -88.806769 
L 455.59406 -88.755804 
L 452.499412 -88.719797 
L 449.404764 -88.700002 
L 446.310115 -88.697473 
L 443.215467 -88.712998 
L 440.120819 -88.747047 
L 437.026171 -88.799722 
L 433.931522 -88.870714 
L 430.836874 -88.959265 
L 427.742226 -89.064148 
L 424.647578 -89.183652 
L 421.552929 -89.315575 
L 418.458281 -89.457241 
L 415.363633 -89.605513 
L 412.268985 -89.756828 
L 409.174336 -89.907241 
L 406.079688 -90.05248 
L 402.98504 -90.188002 
L 399.890392 -90.309073 
L 396.795743 -90.410836 
L 393.701095 -90.4884 
L 390.606447 -90.53692 
L 387.511799 -90.551683 
L 384.417151 -90.528199 
L 381.322502 -90.462273 
L 378.227854 -90.350093 
L 375.133206 -90.188297 
L 372.038558 -89.974035 
L 368.943909 -89.705027 
L 365.849261 -89.379607 
L 362.754613 -88.996753 
L 359.659965 -88.556111 
L 356.565316 -88.058005 
L 353.470668 -87.503427 
L 350.37602 -86.89403 
L 347.281372 -86.232096 
L 344.186723 -85.520497 
L 341.092075 -84.762653 
L 337.997427 -83.962468 
L 334.902779 -83.124274 
L 331.80813 -82.252756 
L 328.713482 -81.352884 
L 325.618834 -80.429833 
L 322.524186 -79.488906 
L 319.429537 -78.535462 
L 316.334889 -77.574836 
L 313.240241 -76.612276 
L 310.145593 -75.652867 
L 307.050944 -74.701478 
L 303.956296 -73.762708 
L 300.861648 -72.840831 
L 297.767 -71.939767 
L 294.672352 -71.063042 
L 291.577703 -70.21377 
L 288.483055 -69.39463 
L 285.388407 -68.607864 
L 282.293759 -67.855271 
L 279.19911 -67.138213 
L 276.104462 -66.457627 
L 273.009814 -65.814037 
L 269.915166 -65.207578 
L 266.820517 -64.638019 
L 263.725869 -64.104791 
L 260.631221 -63.607019 
L 257.536573 -63.143547 
L 254.441924 -62.712981 
L 251.347276 -62.313714 
L 248.252628 -61.943964 
L 245.15798 -61.601806 
L 242.063331 -61.285204 
L 238.968683 -60.992044 
L 235.874035 -60.72016 
L 232.779387 -60.467363 
L 229.684738 -60.231468 
L 226.59009 -60.010312 
L 223.495442 -59.801781 
L 220.400794 -59.60382 
L 217.306145 -59.414454 
L 214.211497 -59.231799 
L 211.116849 -59.05407 
L 208.022201 -58.879587 
L 204.927553 -58.706785 
L 201.832904 -58.53421 
L 198.738256 -58.360525 
L 195.643608 -58.184504 
L 192.54896 -58.005033 
L 189.454311 -57.821104 
L 186.359663 -57.631812 
L 183.265015 -57.436347 
L 180.170367 -57.233991 
L 177.075718 -57.024113 
L 173.98107 -56.806162 
L 170.886422 -56.579666 
L 167.791774 -56.344224 
L 164.697125 -56.09951 
L 161.602477 -55.845265 
L 158.507829 -55.581301 
L 155.413181 -55.3075 
L 152.318532 -55.023817 
L 149.223884 -54.730279 
L 146.129236 -54.426993 
L 143.034588 -54.114143 
L 139.939939 -53.791998 
L 136.845291 -53.460913 
L 133.750643 -53.121329 
L 130.655995 -52.773779 
L 127.561346 -52.418885 
L 124.466698 -52.057357 
L 121.37205 -51.689992 
z
" style="stroke: #33a02c"/>
    </defs>
    <g clip-path="url(#p2ae201cef5)">
     <use xlink:href="#m158761bd76" x="0" y="280.655312" style="fill: #33a02c; fill-opacity: 0.5; stroke: #33a02c"/>
    </g>
   </g>
   <g id="matplotlib.axis_7">
    <g id="xtick_19">
     <g id="line2d_25">
      <g>
       <use xlink:href="#m3d7b838fd3" x="121.37205" y="238.84" style="stroke: #000000; stroke-width: 0.8"/>
      </g>
     </g>
     <g id="text_4">
      <!-- 0 -->
      <g transform="translate(118.37205 254.1725) scale(0.12 -0.12)">
       <defs>
        <path id="TimesNewRomanPSMT-30" d="M 231 2094 
Q 231 2819 450 3342 
Q 669 3866 1031 4122 
Q 1313 4325 1613 4325 
Q 2100 4325 2488 3828 
Q 2972 3213 2972 2159 
Q 2972 1422 2759 906 
Q 2547 391 2217 158 
Q 1888 -75 1581 -75 
Q 975 -75 572 641 
Q 231 1244 231 2094 
z
M 844 2016 
Q 844 1141 1059 588 
Q 1238 122 1591 122 
Q 1759 122 1940 273 
Q 2122 425 2216 781 
Q 2359 1319 2359 2297 
Q 2359 3022 2209 3506 
Q 2097 3866 1919 4016 
Q 1791 4119 1609 4119 
Q 1397 4119 1231 3928 
Q 1006 3669 925 3112 
Q 844 2556 844 2016 
z
" transform="scale(0.015625)"/>
       </defs>
       <use xlink:href="#TimesNewRomanPSMT-30"/>
      </g>
     </g>
    </g>
    <g id="xtick_20">
     <g id="line2d_26">
      <g>
       <use xlink:href="#m3d7b838fd3" x="244.53905" y="238.84" style="stroke: #000000; stroke-width: 0.8"/>
      </g>
     </g>
     <g id="text_5">
      <!-- 2 -->
      <g transform="translate(241.53905 254.1725) scale(0.12 -0.12)">
       <defs>
        <path id="TimesNewRomanPSMT-32" d="M 2934 816 
L 2638 0 
L 138 0 
L 138 116 
Q 1241 1122 1691 1759 
Q 2141 2397 2141 2925 
Q 2141 3328 1894 3587 
Q 1647 3847 1303 3847 
Q 991 3847 742 3664 
Q 494 3481 375 3128 
L 259 3128 
Q 338 3706 661 4015 
Q 984 4325 1469 4325 
Q 1984 4325 2329 3994 
Q 2675 3663 2675 3213 
Q 2675 2891 2525 2569 
Q 2294 2063 1775 1497 
Q 997 647 803 472 
L 1909 472 
Q 2247 472 2383 497 
Q 2519 522 2628 598 
Q 2738 675 2819 816 
L 2934 816 
z
" transform="scale(0.015625)"/>
       </defs>
       <use xlink:href="#TimesNewRomanPSMT-32"/>
      </g>
     </g>
    </g>
    <g id="xtick_21">
     <g id="line2d_27">
      <g>
       <use xlink:href="#m3d7b838fd3" x="367.70605" y="238.84" style="stroke: #000000; stroke-width: 0.8"/>
      </g>
     </g>
     <g id="text_6">
      <!-- 4 -->
      <g transform="translate(364.70605 254.1725) scale(0.12 -0.12)">
       <defs>
        <path id="TimesNewRomanPSMT-34" d="M 2978 1563 
L 2978 1119 
L 2409 1119 
L 2409 0 
L 1894 0 
L 1894 1119 
L 100 1119 
L 100 1519 
L 2066 4325 
L 2409 4325 
L 2409 1563 
L 2978 1563 
z
M 1894 1563 
L 1894 3666 
L 406 1563 
L 1894 1563 
z
" transform="scale(0.015625)"/>
       </defs>
       <use xlink:href="#TimesNewRomanPSMT-34"/>
      </g>
     </g>
    </g>
    <g id="xtick_22">
     <g id="line2d_28">
      <g>
       <use xlink:href="#m3d7b838fd3" x="490.87305" y="238.84" style="stroke: #000000; stroke-width: 0.8"/>
      </g>
     </g>
     <g id="text_7">
      <!-- 6 -->
      <g transform="translate(487.87305 254.1725) scale(0.12 -0.12)">
       <defs>
        <path id="TimesNewRomanPSMT-36" d="M 2869 4325 
L 2869 4209 
Q 2456 4169 2195 4045 
Q 1934 3922 1679 3669 
Q 1425 3416 1258 3105 
Q 1091 2794 978 2366 
Q 1428 2675 1881 2675 
Q 2316 2675 2634 2325 
Q 2953 1975 2953 1425 
Q 2953 894 2631 456 
Q 2244 -75 1606 -75 
Q 1172 -75 869 213 
Q 275 772 275 1663 
Q 275 2231 503 2743 
Q 731 3256 1154 3653 
Q 1578 4050 1965 4187 
Q 2353 4325 2688 4325 
L 2869 4325 
z
M 925 2138 
Q 869 1716 869 1456 
Q 869 1156 980 804 
Q 1091 453 1309 247 
Q 1469 100 1697 100 
Q 1969 100 2183 356 
Q 2397 613 2397 1088 
Q 2397 1622 2184 2012 
Q 1972 2403 1581 2403 
Q 1463 2403 1327 2353 
Q 1191 2303 925 2138 
z
" transform="scale(0.015625)"/>
       </defs>
       <use xlink:href="#TimesNewRomanPSMT-36"/>
      </g>
     </g>
    </g>
    <g id="xtick_23">
     <g id="line2d_29">
      <g>
       <use xlink:href="#m3d7b838fd3" x="614.04005" y="238.84" style="stroke: #000000; stroke-width: 0.8"/>
      </g>
     </g>
     <g id="text_8">
      <!-- 8 -->
      <g transform="translate(611.04005 254.1725) scale(0.12 -0.12)">
       <defs>
        <path id="TimesNewRomanPSMT-38" d="M 1228 2134 
Q 725 2547 579 2797 
Q 434 3047 434 3316 
Q 434 3728 753 4026 
Q 1072 4325 1600 4325 
Q 2113 4325 2425 4047 
Q 2738 3769 2738 3413 
Q 2738 3175 2569 2928 
Q 2400 2681 1866 2347 
Q 2416 1922 2594 1678 
Q 2831 1359 2831 1006 
Q 2831 559 2490 242 
Q 2150 -75 1597 -75 
Q 994 -75 656 303 
Q 388 606 388 966 
Q 388 1247 577 1523 
Q 766 1800 1228 2134 
z
M 1719 2469 
Q 2094 2806 2194 3001 
Q 2294 3197 2294 3444 
Q 2294 3772 2109 3958 
Q 1925 4144 1606 4144 
Q 1288 4144 1088 3959 
Q 888 3775 888 3528 
Q 888 3366 970 3203 
Q 1053 3041 1206 2894 
L 1719 2469 
z
M 1375 2016 
Q 1116 1797 991 1539 
Q 866 1281 866 981 
Q 866 578 1086 336 
Q 1306 94 1647 94 
Q 1984 94 2187 284 
Q 2391 475 2391 747 
Q 2391 972 2272 1150 
Q 2050 1481 1375 2016 
z
" transform="scale(0.015625)"/>
       </defs>
       <use xlink:href="#TimesNewRomanPSMT-38"/>
      </g>
     </g>
    </g>
    <g id="xtick_24">
     <g id="line2d_30">
      <g>
       <use xlink:href="#m3d7b838fd3" x="737.20705" y="238.84" style="stroke: #000000; stroke-width: 0.8"/>
      </g>
     </g>
     <g id="text_9">
      <!-- 10 -->
      <g transform="translate(731.20705 254.1725) scale(0.12 -0.12)">
       <defs>
        <path id="TimesNewRomanPSMT-31" d="M 750 3822 
L 1781 4325 
L 1884 4325 
L 1884 747 
Q 1884 391 1914 303 
Q 1944 216 2037 169 
Q 2131 122 2419 116 
L 2419 0 
L 825 0 
L 825 116 
Q 1125 122 1212 167 
Q 1300 213 1334 289 
Q 1369 366 1369 747 
L 1369 3034 
Q 1369 3497 1338 3628 
Q 1316 3728 1258 3775 
Q 1200 3822 1119 3822 
Q 1003 3822 797 3725 
L 750 3822 
z
" transform="scale(0.015625)"/>
       </defs>
       <use xlink:href="#TimesNewRomanPSMT-31"/>
       <use xlink:href="#TimesNewRomanPSMT-30" transform="translate(50 0)"/>
      </g>
     </g>
    </g>
    <g id="text_10">
     <!-- Value -->
     <g transform="translate(413.353612 270.460625) scale(0.14 -0.14)">
      <defs>
       <path id="TimesNewRomanPSMT-61" d="M 1822 413 
Q 1381 72 1269 19 
Q 1100 -59 909 -59 
Q 613 -59 420 144 
Q 228 347 228 678 
Q 228 888 322 1041 
Q 450 1253 767 1440 
Q 1084 1628 1822 1897 
L 1822 2009 
Q 1822 2438 1686 2597 
Q 1550 2756 1291 2756 
Q 1094 2756 978 2650 
Q 859 2544 859 2406 
L 866 2225 
Q 866 2081 792 2003 
Q 719 1925 600 1925 
Q 484 1925 411 2006 
Q 338 2088 338 2228 
Q 338 2497 613 2722 
Q 888 2947 1384 2947 
Q 1766 2947 2009 2819 
Q 2194 2722 2281 2516 
Q 2338 2381 2338 1966 
L 2338 994 
Q 2338 584 2353 492 
Q 2369 400 2405 369 
Q 2441 338 2488 338 
Q 2538 338 2575 359 
Q 2641 400 2828 588 
L 2828 413 
Q 2478 -56 2159 -56 
Q 2006 -56 1915 50 
Q 1825 156 1822 413 
z
M 1822 616 
L 1822 1706 
Q 1350 1519 1213 1441 
Q 966 1303 859 1153 
Q 753 1003 753 825 
Q 753 600 887 451 
Q 1022 303 1197 303 
Q 1434 303 1822 616 
z
" transform="scale(0.015625)"/>
      </defs>
      <use xlink:href="#TimesNewRomanPSMT-56"/>
      <use xlink:href="#TimesNewRomanPSMT-61" transform="translate(61.091797 0)"/>
      <use xlink:href="#TimesNewRomanPSMT-6c" transform="translate(105.476562 0)"/>
      <use xlink:href="#TimesNewRomanPSMT-75" transform="translate(133.259766 0)"/>
      <use xlink:href="#TimesNewRomanPSMT-65" transform="translate(183.259766 0)"/>
     </g>
    </g>
   </g>
   <g id="matplotlib.axis_8"/>
   <g id="line2d_31">
    <path d="M 121.37205 228.965321 
L 139.939939 226.863314 
L 155.413181 225.347812 
L 170.886422 224.075647 
L 186.359663 223.0235 
L 235.874035 219.935153 
L 245.15798 219.053507 
L 254.441924 217.942331 
L 263.725869 216.550521 
L 273.009814 214.841276 
L 282.293759 212.800042 
L 291.577703 210.441543 
L 300.861648 207.814481 
L 313.240241 204.043037 
L 328.713482 199.302428 
L 337.997427 196.692845 
L 344.186723 195.134815 
L 350.37602 193.761282 
L 356.565316 192.597308 
L 362.754613 191.65856 
L 368.943909 190.950285 
L 375.133206 190.467016 
L 381.322502 190.19304 
L 387.511799 190.103629 
L 396.795743 190.244476 
L 409.174336 190.748071 
L 430.836874 191.696048 
L 443.215467 191.942315 
L 455.59406 191.899509 
L 467.972653 191.620168 
L 486.540542 190.945063 
L 508.20308 189.92492 
L 520.581673 189.141714 
L 529.865618 188.378986 
L 539.149563 187.415828 
L 548.433507 186.221569 
L 557.717452 184.787961 
L 567.001397 183.134466 
L 579.37999 180.676869 
L 601.042527 176.278362 
L 610.326472 174.662909 
L 616.515769 173.774688 
L 622.705065 173.083772 
L 628.894362 172.627633 
L 635.083658 172.440348 
L 641.272955 172.551382 
L 647.462251 172.984475 
L 653.651547 173.756699 
L 659.840844 174.877689 
L 666.03014 176.349112 
L 672.219437 178.164374 
L 678.408733 180.308585 
L 684.59803 182.7588 
L 690.787326 185.484539 
L 696.976623 188.448583 
L 706.260568 193.246371 
L 718.639161 200.04437 
L 734.112402 208.613794 
L 737.20705 210.276176 
L 737.20705 210.276176 
" clip-path="url(#p2ae201cef5)" style="fill: none; stroke: #ffffff; stroke-width: 2; stroke-linecap: square"/>
   </g>
   <g id="line2d_32">
    <path d="M 121.37205 238.84 
L 737.20705 238.84 
" style="fill: none; stroke: #000000; stroke-linecap: square"/>
   </g>
   <g id="text_11">
    <g id="patch_9">
     <path d="M 8.745 248.249687 
L 60.669375 248.249687 
L 60.669375 229.430312 
L 8.745 229.430312 
z
" style="fill: #ffffff; opacity: 0.5"/>
    </g>
    <!-- GhostPic -->
    <g transform="translate(12.705 241.722812) scale(0.12 -0.12)">
     <defs>
      <path id="TimesNewRomanPSMT-47" d="M 3928 4334 
L 4038 2997 
L 3928 2997 
Q 3763 3497 3500 3750 
Q 3122 4116 2528 4116 
Q 1719 4116 1297 3475 
Q 944 2934 944 2188 
Q 944 1581 1178 1081 
Q 1413 581 1792 348 
Q 2172 116 2572 116 
Q 2806 116 3025 175 
Q 3244 234 3447 350 
L 3447 1575 
Q 3447 1894 3398 1992 
Q 3350 2091 3248 2142 
Q 3147 2194 2891 2194 
L 2891 2313 
L 4531 2313 
L 4531 2194 
L 4453 2194 
Q 4209 2194 4119 2031 
Q 4056 1916 4056 1575 
L 4056 278 
Q 3697 84 3347 -6 
Q 2997 -97 2569 -97 
Q 1341 -97 703 691 
Q 225 1281 225 2053 
Q 225 2613 494 3125 
Q 813 3734 1369 4063 
Q 1834 4334 2469 4334 
Q 2700 4334 2889 4296 
Q 3078 4259 3425 4131 
Q 3600 4066 3659 4066 
Q 3719 4066 3761 4120 
Q 3803 4175 3813 4334 
L 3928 4334 
z
" transform="scale(0.015625)"/>
      <path id="TimesNewRomanPSMT-6f" d="M 1600 2947 
Q 2250 2947 2644 2453 
Q 2978 2031 2978 1484 
Q 2978 1100 2793 706 
Q 2609 313 2286 112 
Q 1963 -88 1566 -88 
Q 919 -88 538 428 
Q 216 863 216 1403 
Q 216 1797 411 2186 
Q 606 2575 925 2761 
Q 1244 2947 1600 2947 
z
M 1503 2744 
Q 1338 2744 1170 2645 
Q 1003 2547 900 2300 
Q 797 2053 797 1666 
Q 797 1041 1045 587 
Q 1294 134 1700 134 
Q 2003 134 2200 384 
Q 2397 634 2397 1244 
Q 2397 2006 2069 2444 
Q 1847 2744 1503 2744 
z
" transform="scale(0.015625)"/>
      <path id="TimesNewRomanPSMT-73" d="M 2050 2947 
L 2050 1972 
L 1947 1972 
Q 1828 2431 1642 2597 
Q 1456 2763 1169 2763 
Q 950 2763 815 2647 
Q 681 2531 681 2391 
Q 681 2216 781 2091 
Q 878 1963 1175 1819 
L 1631 1597 
Q 2266 1288 2266 781 
Q 2266 391 1970 151 
Q 1675 -88 1309 -88 
Q 1047 -88 709 6 
Q 606 38 541 38 
Q 469 38 428 -44 
L 325 -44 
L 325 978 
L 428 978 
Q 516 541 762 319 
Q 1009 97 1316 97 
Q 1531 97 1667 223 
Q 1803 350 1803 528 
Q 1803 744 1651 891 
Q 1500 1038 1047 1263 
Q 594 1488 453 1669 
Q 313 1847 313 2119 
Q 313 2472 555 2709 
Q 797 2947 1181 2947 
Q 1350 2947 1591 2875 
Q 1750 2828 1803 2828 
Q 1853 2828 1881 2850 
Q 1909 2872 1947 2947 
L 2050 2947 
z
" transform="scale(0.015625)"/>
      <path id="TimesNewRomanPSMT-74" d="M 1031 3803 
L 1031 2863 
L 1700 2863 
L 1700 2644 
L 1031 2644 
L 1031 788 
Q 1031 509 1111 412 
Q 1191 316 1316 316 
Q 1419 316 1516 380 
Q 1613 444 1666 569 
L 1788 569 
Q 1678 263 1478 108 
Q 1278 -47 1066 -47 
Q 922 -47 784 33 
Q 647 113 581 261 
Q 516 409 516 719 
L 516 2644 
L 63 2644 
L 63 2747 
Q 234 2816 414 2980 
Q 594 3144 734 3369 
Q 806 3488 934 3803 
L 1031 3803 
z
" transform="scale(0.015625)"/>
      <path id="TimesNewRomanPSMT-50" d="M 1313 1984 
L 1313 750 
Q 1313 350 1400 253 
Q 1519 116 1759 116 
L 1922 116 
L 1922 0 
L 106 0 
L 106 116 
L 266 116 
Q 534 116 650 291 
Q 713 388 713 750 
L 713 3488 
Q 713 3888 628 3984 
Q 506 4122 266 4122 
L 106 4122 
L 106 4238 
L 1659 4238 
Q 2228 4238 2556 4120 
Q 2884 4003 3109 3725 
Q 3334 3447 3334 3066 
Q 3334 2547 2992 2222 
Q 2650 1897 2025 1897 
Q 1872 1897 1694 1919 
Q 1516 1941 1313 1984 
z
M 1313 2163 
Q 1478 2131 1606 2115 
Q 1734 2100 1825 2100 
Q 2150 2100 2386 2351 
Q 2622 2603 2622 3003 
Q 2622 3278 2509 3514 
Q 2397 3750 2190 3867 
Q 1984 3984 1722 3984 
Q 1563 3984 1313 3925 
L 1313 2163 
z
" transform="scale(0.015625)"/>
      <path id="TimesNewRomanPSMT-63" d="M 2631 1088 
Q 2516 522 2178 217 
Q 1841 -88 1431 -88 
Q 944 -88 581 321 
Q 219 731 219 1428 
Q 219 2103 620 2525 
Q 1022 2947 1584 2947 
Q 2006 2947 2278 2723 
Q 2550 2500 2550 2259 
Q 2550 2141 2473 2067 
Q 2397 1994 2259 1994 
Q 2075 1994 1981 2113 
Q 1928 2178 1911 2362 
Q 1894 2547 1784 2644 
Q 1675 2738 1481 2738 
Q 1169 2738 978 2506 
Q 725 2200 725 1697 
Q 725 1184 976 792 
Q 1228 400 1656 400 
Q 1963 400 2206 609 
Q 2378 753 2541 1131 
L 2631 1088 
z
" transform="scale(0.015625)"/>
     </defs>
     <use xlink:href="#TimesNewRomanPSMT-47"/>
     <use xlink:href="#TimesNewRomanPSMT-68" transform="translate(72.216797 0)"/>
     <use xlink:href="#TimesNewRomanPSMT-6f" transform="translate(122.216797 0)"/>
     <use xlink:href="#TimesNewRomanPSMT-73" transform="translate(172.216797 0)"/>
     <use xlink:href="#TimesNewRomanPSMT-74" transform="translate(211.132812 0)"/>
     <use xlink:href="#TimesNewRomanPSMT-50" transform="translate(238.916016 0)"/>
     <use xlink:href="#TimesNewRomanPSMT-69" transform="translate(294.53125 0)"/>
     <use xlink:href="#TimesNewRomanPSMT-63" transform="translate(322.314453 0)"/>
    </g>
   </g>
  </g>
  <g id="text_12">
   <!-- Social Media Usage Time(hours/day) -->
   <g transform="translate(268.23705 18.31) scale(0.16 -0.16)">
    <defs>
     <path id="TimesNewRomanPSMT-53" d="M 2934 4334 
L 2934 2869 
L 2819 2869 
Q 2763 3291 2617 3541 
Q 2472 3791 2203 3937 
Q 1934 4084 1647 4084 
Q 1322 4084 1109 3886 
Q 897 3688 897 3434 
Q 897 3241 1031 3081 
Q 1225 2847 1953 2456 
Q 2547 2138 2764 1967 
Q 2981 1797 3098 1565 
Q 3216 1334 3216 1081 
Q 3216 600 2842 251 
Q 2469 -97 1881 -97 
Q 1697 -97 1534 -69 
Q 1438 -53 1133 45 
Q 828 144 747 144 
Q 669 144 623 97 
Q 578 50 556 -97 
L 441 -97 
L 441 1356 
L 556 1356 
Q 638 900 775 673 
Q 913 447 1195 297 
Q 1478 147 1816 147 
Q 2206 147 2432 353 
Q 2659 559 2659 841 
Q 2659 997 2573 1156 
Q 2488 1316 2306 1453 
Q 2184 1547 1640 1851 
Q 1097 2156 867 2337 
Q 638 2519 519 2737 
Q 400 2956 400 3219 
Q 400 3675 750 4004 
Q 1100 4334 1641 4334 
Q 1978 4334 2356 4169 
Q 2531 4091 2603 4091 
Q 2684 4091 2736 4139 
Q 2788 4188 2819 4334 
L 2934 4334 
z
" transform="scale(0.015625)"/>
     <path id="TimesNewRomanPSMT-20" transform="scale(0.015625)"/>
     <path id="TimesNewRomanPSMT-4d" d="M 2619 0 
L 981 3566 
L 981 734 
Q 981 344 1066 247 
Q 1181 116 1431 116 
L 1581 116 
L 1581 0 
L 106 0 
L 106 116 
L 256 116 
Q 525 116 638 278 
Q 706 378 706 734 
L 706 3503 
Q 706 3784 644 3909 
Q 600 4000 483 4061 
Q 366 4122 106 4122 
L 106 4238 
L 1306 4238 
L 2844 922 
L 4356 4238 
L 5556 4238 
L 5556 4122 
L 5409 4122 
Q 5138 4122 5025 3959 
Q 4956 3859 4956 3503 
L 4956 734 
Q 4956 344 5044 247 
Q 5159 116 5409 116 
L 5556 116 
L 5556 0 
L 3756 0 
L 3756 116 
L 3906 116 
Q 4178 116 4288 278 
Q 4356 378 4356 734 
L 4356 3566 
L 2722 0 
L 2619 0 
z
" transform="scale(0.015625)"/>
     <path id="TimesNewRomanPSMT-64" d="M 2222 322 
Q 2013 103 1813 7 
Q 1613 -88 1381 -88 
Q 913 -88 563 304 
Q 213 697 213 1313 
Q 213 1928 600 2439 
Q 988 2950 1597 2950 
Q 1975 2950 2222 2709 
L 2222 3238 
Q 2222 3728 2198 3840 
Q 2175 3953 2125 3993 
Q 2075 4034 2000 4034 
Q 1919 4034 1784 3984 
L 1744 4094 
L 2597 4444 
L 2738 4444 
L 2738 1134 
Q 2738 631 2761 520 
Q 2784 409 2836 365 
Q 2888 322 2956 322 
Q 3041 322 3181 375 
L 3216 266 
L 2366 -88 
L 2222 -88 
L 2222 322 
z
M 2222 541 
L 2222 2016 
Q 2203 2228 2109 2403 
Q 2016 2578 1861 2667 
Q 1706 2756 1559 2756 
Q 1284 2756 1069 2509 
Q 784 2184 784 1559 
Q 784 928 1059 592 
Q 1334 256 1672 256 
Q 1956 256 2222 541 
z
" transform="scale(0.015625)"/>
     <path id="TimesNewRomanPSMT-55" d="M 3053 4122 
L 3053 4238 
L 4553 4238 
L 4553 4122 
L 4394 4122 
Q 4144 4122 4009 3913 
Q 3944 3816 3944 3463 
L 3944 1744 
Q 3944 1106 3817 754 
Q 3691 403 3320 151 
Q 2950 -100 2313 -100 
Q 1619 -100 1259 140 
Q 900 381 750 788 
Q 650 1066 650 1831 
L 650 3488 
Q 650 3878 542 4000 
Q 434 4122 194 4122 
L 34 4122 
L 34 4238 
L 1866 4238 
L 1866 4122 
L 1703 4122 
Q 1441 4122 1328 3956 
Q 1250 3844 1250 3488 
L 1250 1641 
Q 1250 1394 1295 1075 
Q 1341 756 1459 578 
Q 1578 400 1801 284 
Q 2025 169 2350 169 
Q 2766 169 3094 350 
Q 3422 531 3542 814 
Q 3663 1097 3663 1772 
L 3663 3488 
Q 3663 3884 3575 3984 
Q 3453 4122 3213 4122 
L 3053 4122 
z
" transform="scale(0.015625)"/>
     <path id="TimesNewRomanPSMT-67" d="M 966 1044 
Q 703 1172 562 1401 
Q 422 1631 422 1909 
Q 422 2334 742 2640 
Q 1063 2947 1563 2947 
Q 1972 2947 2272 2747 
L 2878 2747 
Q 3013 2747 3034 2739 
Q 3056 2731 3066 2713 
Q 3084 2684 3084 2613 
Q 3084 2531 3069 2500 
Q 3059 2484 3036 2475 
Q 3013 2466 2878 2466 
L 2506 2466 
Q 2681 2241 2681 1891 
Q 2681 1491 2375 1206 
Q 2069 922 1553 922 
Q 1341 922 1119 984 
Q 981 866 932 777 
Q 884 688 884 625 
Q 884 572 936 522 
Q 988 472 1138 450 
Q 1225 438 1575 428 
Q 2219 413 2409 384 
Q 2700 344 2873 169 
Q 3047 -6 3047 -263 
Q 3047 -616 2716 -925 
Q 2228 -1381 1444 -1381 
Q 841 -1381 425 -1109 
Q 191 -953 191 -784 
Q 191 -709 225 -634 
Q 278 -519 444 -313 
Q 466 -284 763 25 
Q 600 122 533 198 
Q 466 275 466 372 
Q 466 481 555 628 
Q 644 775 966 1044 
z
M 1509 2797 
Q 1278 2797 1122 2612 
Q 966 2428 966 2047 
Q 966 1553 1178 1281 
Q 1341 1075 1591 1075 
Q 1828 1075 1981 1253 
Q 2134 1431 2134 1813 
Q 2134 2309 1919 2591 
Q 1759 2797 1509 2797 
z
M 934 0 
Q 788 -159 713 -296 
Q 638 -434 638 -550 
Q 638 -700 819 -813 
Q 1131 -1006 1722 -1006 
Q 2284 -1006 2551 -807 
Q 2819 -609 2819 -384 
Q 2819 -222 2659 -153 
Q 2497 -84 2016 -72 
Q 1313 -53 934 0 
z
" transform="scale(0.015625)"/>
     <path id="TimesNewRomanPSMT-6d" d="M 1050 2338 
Q 1363 2650 1419 2697 
Q 1559 2816 1721 2881 
Q 1884 2947 2044 2947 
Q 2313 2947 2506 2790 
Q 2700 2634 2766 2338 
Q 3088 2713 3309 2830 
Q 3531 2947 3766 2947 
Q 3994 2947 4170 2830 
Q 4347 2713 4450 2447 
Q 4519 2266 4519 1878 
L 4519 647 
Q 4519 378 4559 278 
Q 4591 209 4675 161 
Q 4759 113 4950 113 
L 4950 0 
L 3538 0 
L 3538 113 
L 3597 113 
Q 3781 113 3884 184 
Q 3956 234 3988 344 
Q 4000 397 4000 647 
L 4000 1878 
Q 4000 2228 3916 2372 
Q 3794 2572 3525 2572 
Q 3359 2572 3192 2489 
Q 3025 2406 2788 2181 
L 2781 2147 
L 2788 2013 
L 2788 647 
Q 2788 353 2820 281 
Q 2853 209 2943 161 
Q 3034 113 3253 113 
L 3253 0 
L 1806 0 
L 1806 113 
Q 2044 113 2133 169 
Q 2222 225 2256 338 
Q 2272 391 2272 647 
L 2272 1878 
Q 2272 2228 2169 2381 
Q 2031 2581 1784 2581 
Q 1616 2581 1450 2491 
Q 1191 2353 1050 2181 
L 1050 647 
Q 1050 366 1089 281 
Q 1128 197 1204 155 
Q 1281 113 1516 113 
L 1516 0 
L 100 0 
L 100 113 
Q 297 113 375 155 
Q 453 197 493 289 
Q 534 381 534 647 
L 534 1741 
Q 534 2213 506 2350 
Q 484 2453 437 2492 
Q 391 2531 309 2531 
Q 222 2531 100 2484 
L 53 2597 
L 916 2947 
L 1050 2947 
L 1050 2338 
z
" transform="scale(0.015625)"/>
     <path id="TimesNewRomanPSMT-28" d="M 1988 -1253 
L 1988 -1369 
Q 1516 -1131 1200 -813 
Q 750 -359 506 256 
Q 263 872 263 1534 
Q 263 2503 741 3301 
Q 1219 4100 1988 4444 
L 1988 4313 
Q 1603 4100 1356 3731 
Q 1109 3363 987 2797 
Q 866 2231 866 1616 
Q 866 947 969 400 
Q 1050 -31 1165 -292 
Q 1281 -553 1476 -793 
Q 1672 -1034 1988 -1253 
z
" transform="scale(0.015625)"/>
     <path id="TimesNewRomanPSMT-2f" d="M 1794 4444 
L 259 -88 
L 9 -88 
L 1544 4444 
L 1794 4444 
z
" transform="scale(0.015625)"/>
     <path id="TimesNewRomanPSMT-79" d="M 38 2863 
L 1372 2863 
L 1372 2747 
L 1306 2747 
Q 1166 2747 1095 2686 
Q 1025 2625 1025 2534 
Q 1025 2413 1128 2197 
L 1825 753 
L 2466 2334 
Q 2519 2463 2519 2588 
Q 2519 2644 2497 2672 
Q 2472 2706 2419 2726 
Q 2366 2747 2231 2747 
L 2231 2863 
L 3163 2863 
L 3163 2747 
Q 3047 2734 2984 2696 
Q 2922 2659 2847 2556 
Q 2819 2513 2741 2316 
L 1575 -541 
Q 1406 -956 1132 -1168 
Q 859 -1381 606 -1381 
Q 422 -1381 303 -1275 
Q 184 -1169 184 -1031 
Q 184 -900 270 -820 
Q 356 -741 506 -741 
Q 609 -741 788 -809 
Q 913 -856 944 -856 
Q 1038 -856 1148 -759 
Q 1259 -663 1372 -384 
L 1575 113 
L 547 2272 
Q 500 2369 397 2513 
Q 319 2622 269 2659 
Q 197 2709 38 2747 
L 38 2863 
z
" transform="scale(0.015625)"/>
     <path id="TimesNewRomanPSMT-29" d="M 144 4313 
L 144 4444 
Q 619 4209 934 3891 
Q 1381 3434 1625 2820 
Q 1869 2206 1869 1541 
Q 1869 572 1392 -226 
Q 916 -1025 144 -1369 
L 144 -1253 
Q 528 -1038 776 -670 
Q 1025 -303 1145 264 
Q 1266 831 1266 1447 
Q 1266 2113 1163 2663 
Q 1084 3094 967 3353 
Q 850 3613 656 3853 
Q 463 4094 144 4313 
z
" transform="scale(0.015625)"/>
    </defs>
    <use xlink:href="#TimesNewRomanPSMT-53"/>
    <use xlink:href="#TimesNewRomanPSMT-6f" transform="translate(55.615234 0)"/>
    <use xlink:href="#TimesNewRomanPSMT-63" transform="translate(105.615234 0)"/>
    <use xlink:href="#TimesNewRomanPSMT-69" transform="translate(150 0)"/>
    <use xlink:href="#TimesNewRomanPSMT-61" transform="translate(177.783203 0)"/>
    <use xlink:href="#TimesNewRomanPSMT-6c" transform="translate(222.167969 0)"/>
    <use xlink:href="#TimesNewRomanPSMT-20" transform="translate(249.951172 0)"/>
    <use xlink:href="#TimesNewRomanPSMT-4d" transform="translate(274.951172 0)"/>
    <use xlink:href="#TimesNewRomanPSMT-65" transform="translate(363.867188 0)"/>
    <use xlink:href="#TimesNewRomanPSMT-64" transform="translate(408.251953 0)"/>
    <use xlink:href="#TimesNewRomanPSMT-69" transform="translate(458.251953 0)"/>
    <use xlink:href="#TimesNewRomanPSMT-61" transform="translate(486.035156 0)"/>
    <use xlink:href="#TimesNewRomanPSMT-20" transform="translate(530.419922 0)"/>
    <use xlink:href="#TimesNewRomanPSMT-55" transform="translate(555.419922 0)"/>
    <use xlink:href="#TimesNewRomanPSMT-73" transform="translate(627.636719 0)"/>
    <use xlink:href="#TimesNewRomanPSMT-61" transform="translate(666.552734 0)"/>
    <use xlink:href="#TimesNewRomanPSMT-67" transform="translate(710.9375 0)"/>
    <use xlink:href="#TimesNewRomanPSMT-65" transform="translate(760.9375 0)"/>
    <use xlink:href="#TimesNewRomanPSMT-20" transform="translate(805.322266 0)"/>
    <use xlink:href="#TimesNewRomanPSMT-54" transform="translate(828.572266 0)"/>
    <use xlink:href="#TimesNewRomanPSMT-69" transform="translate(886.15625 0)"/>
    <use xlink:href="#TimesNewRomanPSMT-6d" transform="translate(913.939453 0)"/>
    <use xlink:href="#TimesNewRomanPSMT-65" transform="translate(991.722656 0)"/>
    <use xlink:href="#TimesNewRomanPSMT-28" transform="translate(1036.107422 0)"/>
    <use xlink:href="#TimesNewRomanPSMT-68" transform="translate(1069.408203 0)"/>
    <use xlink:href="#TimesNewRomanPSMT-6f" transform="translate(1119.408203 0)"/>
    <use xlink:href="#TimesNewRomanPSMT-75" transform="translate(1169.408203 0)"/>
    <use xlink:href="#TimesNewRomanPSMT-72" transform="translate(1219.408203 0)"/>
    <use xlink:href="#TimesNewRomanPSMT-73" transform="translate(1252.708984 0)"/>
    <use xlink:href="#TimesNewRomanPSMT-2f" transform="translate(1291.625 0)"/>
    <use xlink:href="#TimesNewRomanPSMT-64" transform="translate(1319.408203 0)"/>
    <use xlink:href="#TimesNewRomanPSMT-61" transform="translate(1369.408203 0)"/>
    <use xlink:href="#TimesNewRomanPSMT-79" transform="translate(1413.792969 0)"/>
    <use xlink:href="#TimesNewRomanPSMT-29" transform="translate(1463.792969 0)"/>
   </g>
  </g>
 </g>
 <defs>
  <clipPath id="p0edc739307">
   <rect x="121.37205" y="17.52" width="615.835" height="88.528"/>
  </clipPath>
  <clipPath id="p6572febb97">
   <rect x="121.37205" y="61.784" width="615.835" height="88.528"/>
  </clipPath>
  <clipPath id="p7154cf17bc">
   <rect x="121.37205" y="106.048" width="615.835" height="88.528"/>
  </clipPath>
  <clipPath id="p2ae201cef5">
   <rect x="121.37205" y="150.312" width="615.835" height="88.528"/>
  </clipPath>
 </defs>
</svg>
