<?xml version="1.0" encoding="utf-8" standalone="no"?>
<!DOCTYPE svg PUBLIC "-//W3C//DTD SVG 1.1//EN"
  "http://www.w3.org/Graphics/SVG/1.1/DTD/svg11.dtd">
<svg xmlns:xlink="http://www.w3.org/1999/xlink" width="750.68551pt" height="280.655312pt" viewBox="0 0 750.68551 280.655312" xmlns="http://www.w3.org/2000/svg" version="1.1">
 <metadata>
  <rdf:RDF xmlns:dc="http://purl.org/dc/elements/1.1/" xmlns:cc="http://creativecommons.org/ns#" xmlns:rdf="http://www.w3.org/1999/02/22-rdf-syntax-ns#">
   <cc:Work>
    <dc:type rdf:resource="http://purl.org/dc/dcmitype/StillImage"/>
    <dc:date>2025-05-30T16:48:10.789243</dc:date>
    <dc:format>image/svg+xml</dc:format>
    <dc:creator>
     <cc:Agent>
      <dc:title>Matplotlib v3.10.1, https://matplotlib.org/</dc:title>
     </cc:Agent>
    </dc:creator>
   </cc:Work>
  </rdf:RDF>
 </metadata>
 <defs>
  <style type="text/css">*{stroke-linejoin: round; stroke-linecap: butt}</style>
 </defs>
 <g id="figure_1">
  <g id="patch_1">
   <path d="M 0 280.655312 
L 750.68551 280.655312 
L 750.68551 0 
L 0 0 
z
" style="fill: #ffffff"/>
  </g>
  <g id="axes_1">
   <g id="patch_2">
    <path d="M 121.39851 106.048 
L 737.48551 106.048 
L 737.48551 17.52 
L 121.39851 17.52 
L 121.39851 106.048 
z
" style="fill: none; opacity: 0"/>
   </g>
   <g id="FillBetweenPolyCollection_1">
    <defs>
     <path id="m86793a198a" d="M 121.39851 -199.27749 
L 121.39851 -174.607312 
L 124.494425 -174.607312 
L 127.590339 -174.607312 
L 130.686254 -174.607312 
L 133.782168 -174.607312 
L 136.878083 -174.607312 
L 139.973997 -174.607312 
L 143.069912 -174.607312 
L 146.165827 -174.607312 
L 149.261741 -174.607312 
L 152.357656 -174.607312 
L 155.45357 -174.607312 
L 158.549485 -174.607312 
L 161.645399 -174.607312 
L 164.741314 -174.607312 
L 167.837229 -174.607312 
L 170.933143 -174.607312 
L 174.029058 -174.607312 
L 177.124972 -174.607312 
L 180.220887 -174.607312 
L 183.316801 -174.607312 
L 186.412716 -174.607312 
L 189.508631 -174.607312 
L 192.604545 -174.607312 
L 195.70046 -174.607312 
L 198.796374 -174.607312 
L 201.892289 -174.607312 
L 204.988203 -174.607312 
L 208.084118 -174.607312 
L 211.180033 -174.607312 
L 214.275947 -174.607312 
L 217.371862 -174.607312 
L 220.467776 -174.607312 
L 223.563691 -174.607312 
L 226.659605 -174.607312 
L 229.75552 -174.607312 
L 232.851435 -174.607312 
L 235.947349 -174.607312 
L 239.043264 -174.607312 
L 242.139178 -174.607312 
L 245.235093 -174.607312 
L 248.331007 -174.607312 
L 251.426922 -174.607312 
L 254.522837 -174.607312 
L 257.618751 -174.607312 
L 260.714666 -174.607312 
L 263.81058 -174.607312 
L 266.906495 -174.607312 
L 270.002409 -174.607312 
L 273.098324 -174.607312 
L 276.194239 -174.607312 
L 279.290153 -174.607312 
L 282.386068 -174.607312 
L 285.481982 -174.607312 
L 288.577897 -174.607312 
L 291.673812 -174.607312 
L 294.769726 -174.607312 
L 297.865641 -174.607312 
L 300.961555 -174.607312 
L 304.05747 -174.607312 
L 307.153384 -174.607312 
L 310.249299 -174.607312 
L 313.345214 -174.607312 
L 316.441128 -174.607312 
L 319.537043 -174.607312 
L 322.632957 -174.607312 
L 325.728872 -174.607312 
L 328.824786 -174.607312 
L 331.920701 -174.607312 
L 335.016616 -174.607312 
L 338.11253 -174.607312 
L 341.208445 -174.607312 
L 344.304359 -174.607312 
L 347.400274 -174.607312 
L 350.496188 -174.607312 
L 353.592103 -174.607312 
L 356.688018 -174.607312 
L 359.783932 -174.607312 
L 362.879847 -174.607312 
L 365.975761 -174.607312 
L 369.071676 -174.607312 
L 372.16759 -174.607312 
L 375.263505 -174.607312 
L 378.35942 -174.607312 
L 381.455334 -174.607312 
L 384.551249 -174.607312 
L 387.647163 -174.607312 
L 390.743078 -174.607312 
L 393.838992 -174.607312 
L 396.934907 -174.607312 
L 400.030822 -174.607312 
L 403.126736 -174.607312 
L 406.222651 -174.607312 
L 409.318565 -174.607312 
L 412.41448 -174.607312 
L 415.510394 -174.607312 
L 418.606309 -174.607312 
L 421.702224 -174.607312 
L 424.798138 -174.607312 
L 427.894053 -174.607312 
L 430.989967 -174.607312 
L 434.085882 -174.607312 
L 437.181796 -174.607312 
L 440.277711 -174.607312 
L 443.373626 -174.607312 
L 446.46954 -174.607312 
L 449.565455 -174.607312 
L 452.661369 -174.607312 
L 455.757284 -174.607312 
L 458.853198 -174.607312 
L 461.949113 -174.607312 
L 465.045028 -174.607312 
L 468.140942 -174.607312 
L 471.236857 -174.607312 
L 474.332771 -174.607312 
L 477.428686 -174.607312 
L 480.5246 -174.607312 
L 483.620515 -174.607312 
L 486.71643 -174.607312 
L 489.812344 -174.607312 
L 492.908259 -174.607312 
L 496.004173 -174.607312 
L 499.100088 -174.607312 
L 502.196002 -174.607312 
L 505.291917 -174.607312 
L 508.387832 -174.607312 
L 511.483746 -174.607312 
L 514.579661 -174.607312 
L 517.675575 -174.607312 
L 520.77149 -174.607312 
L 523.867404 -174.607312 
L 526.963319 -174.607312 
L 530.059234 -174.607312 
L 533.155148 -174.607312 
L 536.251063 -174.607312 
L 539.346977 -174.607312 
L 542.442892 -174.607312 
L 545.538806 -174.607312 
L 548.634721 -174.607312 
L 551.730636 -174.607312 
L 554.82655 -174.607312 
L 557.922465 -174.607312 
L 561.018379 -174.607312 
L 564.114294 -174.607312 
L 567.210208 -174.607312 
L 570.306123 -174.607312 
L 573.402038 -174.607312 
L 576.497952 -174.607312 
L 579.593867 -174.607312 
L 582.689781 -174.607312 
L 585.785696 -174.607312 
L 588.881611 -174.607312 
L 591.977525 -174.607312 
L 595.07344 -174.607312 
L 598.169354 -174.607312 
L 601.265269 -174.607312 
L 604.361183 -174.607312 
L 607.457098 -174.607312 
L 610.553013 -174.607312 
L 613.648927 -174.607312 
L 616.744842 -174.607312 
L 619.840756 -174.607312 
L 622.936671 -174.607312 
L 626.032585 -174.607312 
L 629.1285 -174.607312 
L 632.224415 -174.607312 
L 635.320329 -174.607312 
L 638.416244 -174.607312 
L 641.512158 -174.607312 
L 644.608073 -174.607312 
L 647.703987 -174.607312 
L 650.799902 -174.607312 
L 653.895817 -174.607312 
L 656.991731 -174.607312 
L 660.087646 -174.607312 
L 663.18356 -174.607312 
L 666.279475 -174.607312 
L 669.375389 -174.607312 
L 672.471304 -174.607312 
L 675.567219 -174.607312 
L 678.663133 -174.607312 
L 681.759048 -174.607312 
L 684.854962 -174.607312 
L 687.950877 -174.607312 
L 691.046791 -174.607312 
L 694.142706 -174.607312 
L 697.238621 -174.607312 
L 700.334535 -174.607312 
L 703.43045 -174.607312 
L 706.526364 -174.607312 
L 709.622279 -174.607312 
L 712.718193 -174.607312 
L 715.814108 -174.607312 
L 718.910023 -174.607312 
L 722.005937 -174.607312 
L 725.101852 -174.607312 
L 728.197766 -174.607312 
L 731.293681 -174.607312 
L 734.389595 -174.607312 
L 737.48551 -174.607312 
L 737.48551 -181.326851 
L 737.48551 -181.326851 
L 734.389595 -181.658437 
L 731.293681 -181.997612 
L 728.197766 -182.344141 
L 725.101852 -182.69775 
L 722.005937 -183.058123 
L 718.910023 -183.424898 
L 715.814108 -183.79766 
L 712.718193 -184.175945 
L 709.622279 -184.559231 
L 706.526364 -184.946941 
L 703.43045 -185.338441 
L 700.334535 -185.733041 
L 697.238621 -186.129999 
L 694.142706 -186.528518 
L 691.046791 -186.927755 
L 687.950877 -187.326824 
L 684.854962 -187.724801 
L 681.759048 -188.120726 
L 678.663133 -188.513618 
L 675.567219 -188.902471 
L 672.471304 -189.286269 
L 669.375389 -189.663988 
L 666.279475 -190.034604 
L 663.18356 -190.3971 
L 660.087646 -190.75047 
L 656.991731 -191.093726 
L 653.895817 -191.425902 
L 650.799902 -191.746061 
L 647.703987 -192.053296 
L 644.608073 -192.346738 
L 641.512158 -192.625557 
L 638.416244 -192.888968 
L 635.320329 -193.136234 
L 632.224415 -193.366673 
L 629.1285 -193.57966 
L 626.032585 -193.774634 
L 622.936671 -193.951105 
L 619.840756 -194.108659 
L 616.744842 -194.246968 
L 613.648927 -194.365798 
L 610.553013 -194.465016 
L 607.457098 -194.544602 
L 604.361183 -194.604658 
L 601.265269 -194.645418 
L 598.169354 -194.667256 
L 595.07344 -194.670699 
L 591.977525 -194.65643 
L 588.881611 -194.625299 
L 585.785696 -194.578326 
L 582.689781 -194.516704 
L 579.593867 -194.4418 
L 576.497952 -194.355154 
L 573.402038 -194.25847 
L 570.306123 -194.153614 
L 567.210208 -194.042596 
L 564.114294 -193.927558 
L 561.018379 -193.810758 
L 557.922465 -193.694546 
L 554.82655 -193.58134 
L 551.730636 -193.473601 
L 548.634721 -193.373805 
L 545.538806 -193.284411 
L 542.442892 -193.20783 
L 539.346977 -193.146397 
L 536.251063 -193.102335 
L 533.155148 -193.077727 
L 530.059234 -193.074487 
L 526.963319 -193.094333 
L 523.867404 -193.138765 
L 520.77149 -193.209041 
L 517.675575 -193.306163 
L 514.579661 -193.430866 
L 511.483746 -193.583606 
L 508.387832 -193.76456 
L 505.291917 -193.973629 
L 502.196002 -194.210442 
L 499.100088 -194.474371 
L 496.004173 -194.764544 
L 492.908259 -195.079869 
L 489.812344 -195.419057 
L 486.71643 -195.780649 
L 483.620515 -196.163046 
L 480.5246 -196.564542 
L 477.428686 -196.983357 
L 474.332771 -197.417672 
L 471.236857 -197.86566 
L 468.140942 -198.325516 
L 465.045028 -198.795492 
L 461.949113 -199.273921 
L 458.853198 -199.759241 
L 455.757284 -200.250015 
L 452.661369 -200.744946 
L 449.565455 -201.24289 
L 446.46954 -201.742856 
L 443.373626 -202.244015 
L 440.277711 -202.745687 
L 437.181796 -203.247341 
L 434.085882 -203.748573 
L 430.989967 -204.249094 
L 427.894053 -204.74871 
L 424.798138 -205.247294 
L 421.702224 -205.744765 
L 418.606309 -206.241063 
L 415.510394 -206.736118 
L 412.41448 -207.229829 
L 409.318565 -207.722038 
L 406.222651 -208.212511 
L 403.126736 -208.700915 
L 400.030822 -209.18681 
L 396.934907 -209.669634 
L 393.838992 -210.148702 
L 390.743078 -210.6232 
L 387.647163 -211.092194 
L 384.551249 -211.554641 
L 381.455334 -212.009396 
L 378.35942 -212.455238 
L 375.263505 -212.890887 
L 372.16759 -213.31503 
L 369.071676 -213.726349 
L 365.975761 -214.123548 
L 362.879847 -214.505381 
L 359.783932 -214.87068 
L 356.688018 -215.218381 
L 353.592103 -215.547546 
L 350.496188 -215.857385 
L 347.400274 -216.147274 
L 344.304359 -216.416759 
L 341.208445 -216.665574 
L 338.11253 -216.89363 
L 335.016616 -217.101024 
L 331.920701 -217.28802 
L 328.824786 -217.455042 
L 325.728872 -217.602652 
L 322.632957 -217.731536 
L 319.537043 -217.84247 
L 316.441128 -217.936304 
L 313.345214 -218.013929 
L 310.249299 -218.076253 
L 307.153384 -218.124171 
L 304.05747 -218.158549 
L 300.961555 -218.180192 
L 297.865641 -218.189834 
L 294.769726 -218.18812 
L 291.673812 -218.175596 
L 288.577897 -218.152705 
L 285.481982 -218.119785 
L 282.386068 -218.077074 
L 279.290153 -218.024718 
L 276.194239 -217.96278 
L 273.098324 -217.891261 
L 270.002409 -217.81011 
L 266.906495 -217.719248 
L 263.81058 -217.618585 
L 260.714666 -217.50804 
L 257.618751 -217.387558 
L 254.522837 -217.257123 
L 251.426922 -217.116776 
L 248.331007 -216.966615 
L 245.235093 -216.806807 
L 242.139178 -216.637583 
L 239.043264 -216.459233 
L 235.947349 -216.272096 
L 232.851435 -216.076545 
L 229.75552 -215.872969 
L 226.659605 -215.661746 
L 223.563691 -215.443224 
L 220.467776 -215.217689 
L 217.371862 -214.985338 
L 214.275947 -214.746252 
L 211.180033 -214.500369 
L 208.084118 -214.247462 
L 204.988203 -213.987118 
L 201.892289 -213.71872 
L 198.796374 -213.441445 
L 195.70046 -213.154252 
L 192.604545 -212.855892 
L 189.508631 -212.544916 
L 186.412716 -212.219692 
L 183.316801 -211.878429 
L 180.220887 -211.519213 
L 177.124972 -211.140036 
L 174.029058 -210.738847 
L 170.933143 -210.313589 
L 167.837229 -209.862257 
L 164.741314 -209.382941 
L 161.645399 -208.873882 
L 158.549485 -208.333519 
L 155.45357 -207.760539 
L 152.357656 -207.153918 
L 149.261741 -206.512962 
L 146.165827 -205.83734 
L 143.069912 -205.127109 
L 139.973997 -204.382731 
L 136.878083 -203.605089 
L 133.782168 -202.795482 
L 130.686254 -201.955623 
L 127.590339 -201.087623 
L 124.494425 -200.193968 
L 121.39851 -199.27749 
z
" style="stroke: #7b9ff9"/>
    </defs>
    <g clip-path="url(#pf3bb00bd31)">
     <use xlink:href="#m86793a198a" x="0" y="280.655312" style="fill: #7b9ff9; fill-opacity: 0.5; stroke: #7b9ff9"/>
    </g>
   </g>
   <g id="matplotlib.axis_1">
    <g id="xtick_1">
     <g id="line2d_1">
      <defs>
       <path id="m89e7c2092d" d="M 0 0 
L 0 3.5 
" style="stroke: #000000; stroke-width: 0.8"/>
      </defs>
      <g>
       <use xlink:href="#m89e7c2092d" x="121.39851" y="106.048" style="stroke: #000000; stroke-width: 0.8"/>
      </g>
     </g>
    </g>
    <g id="xtick_2">
     <g id="line2d_2">
      <g>
       <use xlink:href="#m89e7c2092d" x="244.61591" y="106.048" style="stroke: #000000; stroke-width: 0.8"/>
      </g>
     </g>
    </g>
    <g id="xtick_3">
     <g id="line2d_3">
      <g>
       <use xlink:href="#m89e7c2092d" x="367.83331" y="106.048" style="stroke: #000000; stroke-width: 0.8"/>
      </g>
     </g>
    </g>
    <g id="xtick_4">
     <g id="line2d_4">
      <g>
       <use xlink:href="#m89e7c2092d" x="491.05071" y="106.048" style="stroke: #000000; stroke-width: 0.8"/>
      </g>
     </g>
    </g>
    <g id="xtick_5">
     <g id="line2d_5">
      <g>
       <use xlink:href="#m89e7c2092d" x="614.26811" y="106.048" style="stroke: #000000; stroke-width: 0.8"/>
      </g>
     </g>
    </g>
    <g id="xtick_6">
     <g id="line2d_6">
      <g>
       <use xlink:href="#m89e7c2092d" x="737.48551" y="106.048" style="stroke: #000000; stroke-width: 0.8"/>
      </g>
     </g>
    </g>
   </g>
   <g id="matplotlib.axis_2"/>
   <g id="line2d_7">
    <path d="M 121.39851 81.377822 
L 130.686254 78.699689 
L 139.973997 76.272581 
L 149.261741 74.142351 
L 158.549485 72.321794 
L 167.837229 70.793055 
L 177.124972 69.515276 
L 189.508631 68.110396 
L 201.892289 66.936592 
L 220.467776 65.437624 
L 235.947349 64.383217 
L 251.426922 63.538537 
L 266.906495 62.936065 
L 282.386068 62.578238 
L 297.865641 62.465479 
L 310.249299 62.57906 
L 322.632957 62.923777 
L 331.920701 63.367292 
L 341.208445 63.989739 
L 350.496188 64.797927 
L 359.783932 65.784632 
L 372.16759 67.340283 
L 387.647163 69.563118 
L 412.41448 73.425483 
L 474.332771 83.23764 
L 486.71643 84.874664 
L 496.004173 85.890769 
L 505.291917 86.681684 
L 514.579661 87.224446 
L 523.867404 87.516548 
L 533.155148 87.577586 
L 545.538806 87.370902 
L 564.114294 86.727755 
L 582.689781 86.138609 
L 595.07344 85.984614 
L 604.361183 86.050655 
L 613.648927 86.289515 
L 622.936671 86.704208 
L 635.320329 87.519078 
L 647.703987 88.602016 
L 660.087646 89.904842 
L 675.567219 91.752842 
L 731.293681 98.657701 
L 737.48551 99.328461 
L 737.48551 99.328461 
" clip-path="url(#pf3bb00bd31)" style="fill: none; stroke: #ffffff; stroke-width: 2; stroke-linecap: square"/>
   </g>
   <g id="line2d_8">
    <path d="M 121.39851 106.048 
L 737.48551 106.048 
" style="fill: none; stroke: #000000; stroke-linecap: square"/>
   </g>
   <g id="text_1">
    <g id="patch_3">
     <path d="M 7.4325 115.457687 
L 60.669375 115.457687 
L 60.669375 96.638312 
L 7.4325 96.638312 
z
" style="fill: #ffffff; opacity: 0.5"/>
    </g>
    <!-- FaceLink -->
    <g transform="translate(11.3925 108.930812) scale(0.12 -0.12)">
     <defs>
      <path id="TimesNewRomanPSMT-46" d="M 1309 4006 
L 1309 2341 
L 2081 2341 
Q 2347 2341 2470 2458 
Q 2594 2575 2634 2922 
L 2750 2922 
L 2750 1488 
L 2634 1488 
Q 2631 1734 2570 1850 
Q 2509 1966 2401 2023 
Q 2294 2081 2081 2081 
L 1309 2081 
L 1309 750 
Q 1309 428 1350 325 
Q 1381 247 1481 191 
Q 1619 116 1769 116 
L 1922 116 
L 1922 0 
L 103 0 
L 103 116 
L 253 116 
Q 516 116 634 269 
Q 709 369 709 750 
L 709 3488 
Q 709 3809 669 3913 
Q 638 3991 541 4047 
Q 406 4122 253 4122 
L 103 4122 
L 103 4238 
L 3256 4238 
L 3297 3306 
L 3188 3306 
Q 3106 3603 2998 3742 
Q 2891 3881 2733 3943 
Q 2575 4006 2244 4006 
L 1309 4006 
z
" transform="scale(0.015625)"/>
      <path id="TimesNewRomanPSMT-61" d="M 1822 413 
Q 1381 72 1269 19 
Q 1100 -59 909 -59 
Q 613 -59 420 144 
Q 228 347 228 678 
Q 228 888 322 1041 
Q 450 1253 767 1440 
Q 1084 1628 1822 1897 
L 1822 2009 
Q 1822 2438 1686 2597 
Q 1550 2756 1291 2756 
Q 1094 2756 978 2650 
Q 859 2544 859 2406 
L 866 2225 
Q 866 2081 792 2003 
Q 719 1925 600 1925 
Q 484 1925 411 2006 
Q 338 2088 338 2228 
Q 338 2497 613 2722 
Q 888 2947 1384 2947 
Q 1766 2947 2009 2819 
Q 2194 2722 2281 2516 
Q 2338 2381 2338 1966 
L 2338 994 
Q 2338 584 2353 492 
Q 2369 400 2405 369 
Q 2441 338 2488 338 
Q 2538 338 2575 359 
Q 2641 400 2828 588 
L 2828 413 
Q 2478 -56 2159 -56 
Q 2006 -56 1915 50 
Q 1825 156 1822 413 
z
M 1822 616 
L 1822 1706 
Q 1350 1519 1213 1441 
Q 966 1303 859 1153 
Q 753 1003 753 825 
Q 753 600 887 451 
Q 1022 303 1197 303 
Q 1434 303 1822 616 
z
" transform="scale(0.015625)"/>
      <path id="TimesNewRomanPSMT-63" d="M 2631 1088 
Q 2516 522 2178 217 
Q 1841 -88 1431 -88 
Q 944 -88 581 321 
Q 219 731 219 1428 
Q 219 2103 620 2525 
Q 1022 2947 1584 2947 
Q 2006 2947 2278 2723 
Q 2550 2500 2550 2259 
Q 2550 2141 2473 2067 
Q 2397 1994 2259 1994 
Q 2075 1994 1981 2113 
Q 1928 2178 1911 2362 
Q 1894 2547 1784 2644 
Q 1675 2738 1481 2738 
Q 1169 2738 978 2506 
Q 725 2200 725 1697 
Q 725 1184 976 792 
Q 1228 400 1656 400 
Q 1963 400 2206 609 
Q 2378 753 2541 1131 
L 2631 1088 
z
" transform="scale(0.015625)"/>
      <path id="TimesNewRomanPSMT-65" d="M 681 1784 
Q 678 1147 991 784 
Q 1303 422 1725 422 
Q 2006 422 2214 576 
Q 2422 731 2563 1106 
L 2659 1044 
Q 2594 616 2278 264 
Q 1963 -88 1488 -88 
Q 972 -88 605 314 
Q 238 716 238 1394 
Q 238 2128 614 2539 
Q 991 2950 1559 2950 
Q 2041 2950 2350 2633 
Q 2659 2316 2659 1784 
L 681 1784 
z
M 681 1966 
L 2006 1966 
Q 1991 2241 1941 2353 
Q 1863 2528 1708 2628 
Q 1553 2728 1384 2728 
Q 1125 2728 920 2526 
Q 716 2325 681 1966 
z
" transform="scale(0.015625)"/>
      <path id="TimesNewRomanPSMT-4c" d="M 3669 1172 
L 3772 1150 
L 3409 0 
L 128 0 
L 128 116 
L 288 116 
Q 556 116 672 291 
Q 738 391 738 753 
L 738 3488 
Q 738 3884 650 3984 
Q 528 4122 288 4122 
L 128 4122 
L 128 4238 
L 2047 4238 
L 2047 4122 
Q 1709 4125 1573 4059 
Q 1438 3994 1388 3894 
Q 1338 3794 1338 3416 
L 1338 753 
Q 1338 494 1388 397 
Q 1425 331 1503 300 
Q 1581 269 1991 269 
L 2300 269 
Q 2788 269 2984 341 
Q 3181 413 3343 595 
Q 3506 778 3669 1172 
z
" transform="scale(0.015625)"/>
      <path id="TimesNewRomanPSMT-69" d="M 928 4444 
Q 1059 4444 1151 4351 
Q 1244 4259 1244 4128 
Q 1244 3997 1151 3903 
Q 1059 3809 928 3809 
Q 797 3809 703 3903 
Q 609 3997 609 4128 
Q 609 4259 701 4351 
Q 794 4444 928 4444 
z
M 1188 2947 
L 1188 647 
Q 1188 378 1227 289 
Q 1266 200 1342 156 
Q 1419 113 1622 113 
L 1622 0 
L 231 0 
L 231 113 
Q 441 113 512 153 
Q 584 194 626 287 
Q 669 381 669 647 
L 669 1750 
Q 669 2216 641 2353 
Q 619 2453 572 2492 
Q 525 2531 444 2531 
Q 356 2531 231 2484 
L 188 2597 
L 1050 2947 
L 1188 2947 
z
" transform="scale(0.015625)"/>
      <path id="TimesNewRomanPSMT-6e" d="M 1034 2341 
Q 1538 2947 1994 2947 
Q 2228 2947 2397 2830 
Q 2566 2713 2666 2444 
Q 2734 2256 2734 1869 
L 2734 647 
Q 2734 375 2778 278 
Q 2813 200 2889 156 
Q 2966 113 3172 113 
L 3172 0 
L 1756 0 
L 1756 113 
L 1816 113 
Q 2016 113 2095 173 
Q 2175 234 2206 353 
Q 2219 400 2219 647 
L 2219 1819 
Q 2219 2209 2117 2386 
Q 2016 2563 1775 2563 
Q 1403 2563 1034 2156 
L 1034 647 
Q 1034 356 1069 288 
Q 1113 197 1189 155 
Q 1266 113 1500 113 
L 1500 0 
L 84 0 
L 84 113 
L 147 113 
Q 366 113 442 223 
Q 519 334 519 647 
L 519 1709 
Q 519 2225 495 2337 
Q 472 2450 423 2490 
Q 375 2531 294 2531 
Q 206 2531 84 2484 
L 38 2597 
L 900 2947 
L 1034 2947 
L 1034 2341 
z
" transform="scale(0.015625)"/>
      <path id="TimesNewRomanPSMT-6b" d="M 1047 4444 
L 1047 1597 
L 1775 2259 
Q 2006 2472 2044 2528 
Q 2069 2566 2069 2603 
Q 2069 2666 2017 2711 
Q 1966 2756 1847 2763 
L 1847 2863 
L 3091 2863 
L 3091 2763 
Q 2834 2756 2664 2684 
Q 2494 2613 2291 2428 
L 1556 1750 
L 2291 822 
Q 2597 438 2703 334 
Q 2853 188 2966 144 
Q 3044 113 3238 113 
L 3238 0 
L 1847 0 
L 1847 113 
Q 1966 116 2008 148 
Q 2050 181 2050 241 
Q 2050 313 1925 472 
L 1047 1594 
L 1047 644 
Q 1047 366 1086 278 
Q 1125 191 1197 153 
Q 1269 116 1509 113 
L 1509 0 
L 53 0 
L 53 113 
Q 272 113 381 166 
Q 447 200 481 272 
Q 528 375 528 628 
L 528 3234 
Q 528 3731 506 3842 
Q 484 3953 434 3995 
Q 384 4038 303 4038 
Q 238 4038 106 3984 
L 53 4094 
L 903 4444 
L 1047 4444 
z
" transform="scale(0.015625)"/>
     </defs>
     <use xlink:href="#TimesNewRomanPSMT-46"/>
     <use xlink:href="#TimesNewRomanPSMT-61" transform="translate(55.615234 0)"/>
     <use xlink:href="#TimesNewRomanPSMT-63" transform="translate(100 0)"/>
     <use xlink:href="#TimesNewRomanPSMT-65" transform="translate(144.384766 0)"/>
     <use xlink:href="#TimesNewRomanPSMT-4c" transform="translate(188.769531 0)"/>
     <use xlink:href="#TimesNewRomanPSMT-69" transform="translate(249.853516 0)"/>
     <use xlink:href="#TimesNewRomanPSMT-6e" transform="translate(277.636719 0)"/>
     <use xlink:href="#TimesNewRomanPSMT-6b" transform="translate(327.636719 0)"/>
    </g>
   </g>
  </g>
  <g id="axes_2">
   <g id="patch_4">
    <path d="M 121.39851 150.312 
L 737.48551 150.312 
L 737.48551 61.784 
L 121.39851 61.784 
L 121.39851 150.312 
z
" style="fill: none; opacity: 0"/>
   </g>
   <g id="FillBetweenPolyCollection_2">
    <defs>
     <path id="m5a370fcd65" d="M 121.39851 -182.964418 
L 121.39851 -130.343312 
L 124.494425 -130.343312 
L 127.590339 -130.343312 
L 130.686254 -130.343312 
L 133.782168 -130.343312 
L 136.878083 -130.343312 
L 139.973997 -130.343312 
L 143.069912 -130.343312 
L 146.165827 -130.343312 
L 149.261741 -130.343312 
L 152.357656 -130.343312 
L 155.45357 -130.343312 
L 158.549485 -130.343312 
L 161.645399 -130.343312 
L 164.741314 -130.343312 
L 167.837229 -130.343312 
L 170.933143 -130.343312 
L 174.029058 -130.343312 
L 177.124972 -130.343312 
L 180.220887 -130.343312 
L 183.316801 -130.343312 
L 186.412716 -130.343312 
L 189.508631 -130.343312 
L 192.604545 -130.343312 
L 195.70046 -130.343312 
L 198.796374 -130.343312 
L 201.892289 -130.343312 
L 204.988203 -130.343312 
L 208.084118 -130.343312 
L 211.180033 -130.343312 
L 214.275947 -130.343312 
L 217.371862 -130.343312 
L 220.467776 -130.343312 
L 223.563691 -130.343312 
L 226.659605 -130.343312 
L 229.75552 -130.343312 
L 232.851435 -130.343312 
L 235.947349 -130.343312 
L 239.043264 -130.343312 
L 242.139178 -130.343312 
L 245.235093 -130.343312 
L 248.331007 -130.343312 
L 251.426922 -130.343312 
L 254.522837 -130.343312 
L 257.618751 -130.343312 
L 260.714666 -130.343312 
L 263.81058 -130.343312 
L 266.906495 -130.343312 
L 270.002409 -130.343312 
L 273.098324 -130.343312 
L 276.194239 -130.343312 
L 279.290153 -130.343312 
L 282.386068 -130.343312 
L 285.481982 -130.343312 
L 288.577897 -130.343312 
L 291.673812 -130.343312 
L 294.769726 -130.343312 
L 297.865641 -130.343312 
L 300.961555 -130.343312 
L 304.05747 -130.343312 
L 307.153384 -130.343312 
L 310.249299 -130.343312 
L 313.345214 -130.343312 
L 316.441128 -130.343312 
L 319.537043 -130.343312 
L 322.632957 -130.343312 
L 325.728872 -130.343312 
L 328.824786 -130.343312 
L 331.920701 -130.343312 
L 335.016616 -130.343312 
L 338.11253 -130.343312 
L 341.208445 -130.343312 
L 344.304359 -130.343312 
L 347.400274 -130.343312 
L 350.496188 -130.343312 
L 353.592103 -130.343312 
L 356.688018 -130.343312 
L 359.783932 -130.343312 
L 362.879847 -130.343312 
L 365.975761 -130.343312 
L 369.071676 -130.343312 
L 372.16759 -130.343312 
L 375.263505 -130.343312 
L 378.35942 -130.343312 
L 381.455334 -130.343312 
L 384.551249 -130.343312 
L 387.647163 -130.343312 
L 390.743078 -130.343312 
L 393.838992 -130.343312 
L 396.934907 -130.343312 
L 400.030822 -130.343312 
L 403.126736 -130.343312 
L 406.222651 -130.343312 
L 409.318565 -130.343312 
L 412.41448 -130.343312 
L 415.510394 -130.343312 
L 418.606309 -130.343312 
L 421.702224 -130.343312 
L 424.798138 -130.343312 
L 427.894053 -130.343312 
L 430.989967 -130.343312 
L 434.085882 -130.343312 
L 437.181796 -130.343312 
L 440.277711 -130.343312 
L 443.373626 -130.343312 
L 446.46954 -130.343312 
L 449.565455 -130.343312 
L 452.661369 -130.343312 
L 455.757284 -130.343312 
L 458.853198 -130.343312 
L 461.949113 -130.343312 
L 465.045028 -130.343312 
L 468.140942 -130.343312 
L 471.236857 -130.343312 
L 474.332771 -130.343312 
L 477.428686 -130.343312 
L 480.5246 -130.343312 
L 483.620515 -130.343312 
L 486.71643 -130.343312 
L 489.812344 -130.343312 
L 492.908259 -130.343312 
L 496.004173 -130.343312 
L 499.100088 -130.343312 
L 502.196002 -130.343312 
L 505.291917 -130.343312 
L 508.387832 -130.343312 
L 511.483746 -130.343312 
L 514.579661 -130.343312 
L 517.675575 -130.343312 
L 520.77149 -130.343312 
L 523.867404 -130.343312 
L 526.963319 -130.343312 
L 530.059234 -130.343312 
L 533.155148 -130.343312 
L 536.251063 -130.343312 
L 539.346977 -130.343312 
L 542.442892 -130.343312 
L 545.538806 -130.343312 
L 548.634721 -130.343312 
L 551.730636 -130.343312 
L 554.82655 -130.343312 
L 557.922465 -130.343312 
L 561.018379 -130.343312 
L 564.114294 -130.343312 
L 567.210208 -130.343312 
L 570.306123 -130.343312 
L 573.402038 -130.343312 
L 576.497952 -130.343312 
L 579.593867 -130.343312 
L 582.689781 -130.343312 
L 585.785696 -130.343312 
L 588.881611 -130.343312 
L 591.977525 -130.343312 
L 595.07344 -130.343312 
L 598.169354 -130.343312 
L 601.265269 -130.343312 
L 604.361183 -130.343312 
L 607.457098 -130.343312 
L 610.553013 -130.343312 
L 613.648927 -130.343312 
L 616.744842 -130.343312 
L 619.840756 -130.343312 
L 622.936671 -130.343312 
L 626.032585 -130.343312 
L 629.1285 -130.343312 
L 632.224415 -130.343312 
L 635.320329 -130.343312 
L 638.416244 -130.343312 
L 641.512158 -130.343312 
L 644.608073 -130.343312 
L 647.703987 -130.343312 
L 650.799902 -130.343312 
L 653.895817 -130.343312 
L 656.991731 -130.343312 
L 660.087646 -130.343312 
L 663.18356 -130.343312 
L 666.279475 -130.343312 
L 669.375389 -130.343312 
L 672.471304 -130.343312 
L 675.567219 -130.343312 
L 678.663133 -130.343312 
L 681.759048 -130.343312 
L 684.854962 -130.343312 
L 687.950877 -130.343312 
L 691.046791 -130.343312 
L 694.142706 -130.343312 
L 697.238621 -130.343312 
L 700.334535 -130.343312 
L 703.43045 -130.343312 
L 706.526364 -130.343312 
L 709.622279 -130.343312 
L 712.718193 -130.343312 
L 715.814108 -130.343312 
L 718.910023 -130.343312 
L 722.005937 -130.343312 
L 725.101852 -130.343312 
L 728.197766 -130.343312 
L 731.293681 -130.343312 
L 734.389595 -130.343312 
L 737.48551 -130.343312 
L 737.48551 -136.26305 
L 737.48551 -136.26305 
L 734.389595 -136.460795 
L 731.293681 -136.656061 
L 728.197766 -136.848869 
L 725.101852 -137.039322 
L 722.005937 -137.227608 
L 718.910023 -137.41399 
L 715.814108 -137.598802 
L 712.718193 -137.782435 
L 709.622279 -137.965331 
L 706.526364 -138.147969 
L 703.43045 -138.330846 
L 700.334535 -138.51447 
L 697.238621 -138.699336 
L 694.142706 -138.885915 
L 691.046791 -139.074633 
L 687.950877 -139.265857 
L 684.854962 -139.45988 
L 681.759048 -139.656902 
L 678.663133 -139.857021 
L 675.567219 -140.060219 
L 672.471304 -140.266354 
L 669.375389 -140.47515 
L 666.279475 -140.686197 
L 663.18356 -140.898944 
L 660.087646 -141.112704 
L 656.991731 -141.326657 
L 653.895817 -141.539858 
L 650.799902 -141.751244 
L 647.703987 -141.959652 
L 644.608073 -142.163828 
L 641.512158 -142.362452 
L 638.416244 -142.554151 
L 635.320329 -142.737526 
L 632.224415 -142.91117 
L 629.1285 -143.073695 
L 626.032585 -143.223756 
L 622.936671 -143.360069 
L 619.840756 -143.481441 
L 616.744842 -143.58679 
L 613.648927 -143.675164 
L 610.553013 -143.745757 
L 607.457098 -143.797935 
L 604.361183 -143.831236 
L 601.265269 -143.845393 
L 598.169354 -143.840334 
L 595.07344 -143.816189 
L 591.977525 -143.773288 
L 588.881611 -143.712164 
L 585.785696 -143.63354 
L 582.689781 -143.538327 
L 579.593867 -143.427606 
L 576.497952 -143.302614 
L 573.402038 -143.164731 
L 570.306123 -143.015456 
L 567.210208 -142.856385 
L 564.114294 -142.689194 
L 561.018379 -142.515609 
L 557.922465 -142.337389 
L 554.82655 -142.156296 
L 551.730636 -141.974076 
L 548.634721 -141.792438 
L 545.538806 -141.613029 
L 542.442892 -141.437418 
L 539.346977 -141.26708 
L 536.251063 -141.103378 
L 533.155148 -140.947556 
L 530.059234 -140.800725 
L 526.963319 -140.663857 
L 523.867404 -140.537783 
L 520.77149 -140.423192 
L 517.675575 -140.320629 
L 514.579661 -140.230501 
L 511.483746 -140.153082 
L 508.387832 -140.088519 
L 505.291917 -140.036845 
L 502.196002 -139.997985 
L 499.100088 -139.971771 
L 496.004173 -139.957949 
L 492.908259 -139.956197 
L 489.812344 -139.966132 
L 486.71643 -139.987323 
L 483.620515 -140.019305 
L 480.5246 -140.061583 
L 477.428686 -140.113648 
L 474.332771 -140.174979 
L 471.236857 -140.245052 
L 468.140942 -140.323347 
L 465.045028 -140.409347 
L 461.949113 -140.502547 
L 458.853198 -140.60245 
L 455.757284 -140.708573 
L 452.661369 -140.820441 
L 449.565455 -140.937592 
L 446.46954 -141.059571 
L 443.373626 -141.185935 
L 440.277711 -141.316246 
L 437.181796 -141.450073 
L 434.085882 -141.586993 
L 430.989967 -141.72659 
L 427.894053 -141.868458 
L 424.798138 -142.012203 
L 421.702224 -142.15745 
L 418.606309 -142.303842 
L 415.510394 -142.451053 
L 412.41448 -142.598793 
L 409.318565 -142.746817 
L 406.222651 -142.894936 
L 403.126736 -143.043026 
L 400.030822 -143.191042 
L 396.934907 -143.339031 
L 393.838992 -143.487141 
L 390.743078 -143.635635 
L 387.647163 -143.784907 
L 384.551249 -143.935488 
L 381.455334 -144.088064 
L 378.35942 -144.24348 
L 375.263505 -144.402755 
L 372.16759 -144.567085 
L 369.071676 -144.737853 
L 365.975761 -144.916632 
L 362.879847 -145.10519 
L 359.783932 -145.305487 
L 356.688018 -145.519676 
L 353.592103 -145.750102 
L 350.496188 -145.999291 
L 347.400274 -146.269947 
L 344.304359 -146.564939 
L 341.208445 -146.887289 
L 338.11253 -147.240159 
L 335.016616 -147.62683 
L 331.920701 -148.050684 
L 328.824786 -148.515183 
L 325.728872 -149.023841 
L 322.632957 -149.5802 
L 319.537043 -150.187796 
L 316.441128 -150.850131 
L 313.345214 -151.570631 
L 310.249299 -152.352614 
L 307.153384 -153.199244 
L 304.05747 -154.113493 
L 300.961555 -155.098088 
L 297.865641 -156.155469 
L 294.769726 -157.287735 
L 291.673812 -158.496592 
L 288.577897 -159.783303 
L 285.481982 -161.148629 
L 282.386068 -162.592779 
L 279.290153 -164.115359 
L 276.194239 -165.715315 
L 273.098324 -167.390887 
L 270.002409 -169.139568 
L 266.906495 -170.958061 
L 263.81058 -172.842244 
L 260.714666 -174.787149 
L 257.618751 -176.78694 
L 254.522837 -178.834908 
L 251.426922 -180.923474 
L 248.331007 -183.044203 
L 245.235093 -185.187832 
L 242.139178 -187.34431 
L 239.043264 -189.502856 
L 235.947349 -191.652019 
L 232.851435 -193.779769 
L 229.75552 -195.873585 
L 226.659605 -197.920562 
L 223.563691 -199.907533 
L 220.467776 -201.821192 
L 217.371862 -203.648234 
L 214.275947 -205.375494 
L 211.180033 -206.990096 
L 208.084118 -208.4796 
L 204.988203 -209.832151 
L 201.892289 -211.036621 
L 198.796374 -212.082753 
L 195.70046 -212.961288 
L 192.604545 -213.66409 
L 189.508631 -214.184248 
L 186.412716 -214.516178 
L 183.316801 -214.655693 
L 180.220887 -214.600067 
L 177.124972 -214.348072 
L 174.029058 -213.9 
L 170.933143 -213.257667 
L 167.837229 -212.424386 
L 164.741314 -211.404934 
L 161.645399 -210.205493 
L 158.549485 -208.83357 
L 155.45357 -207.297909 
L 152.357656 -205.60838 
L 149.261741 -203.775863 
L 146.165827 -201.812114 
L 143.069912 -199.729628 
L 139.973997 -197.541493 
L 136.878083 -195.261244 
L 133.782168 -192.902709 
L 130.686254 -190.479863 
L 127.590339 -188.006684 
L 124.494425 -185.497013 
L 121.39851 -182.964418 
z
" style="stroke: #c0d4f5"/>
    </defs>
    <g clip-path="url(#p16e00be746)">
     <use xlink:href="#m5a370fcd65" x="0" y="280.655312" style="fill: #c0d4f5; fill-opacity: 0.5; stroke: #c0d4f5"/>
    </g>
   </g>
   <g id="matplotlib.axis_3">
    <g id="xtick_7">
     <g id="line2d_9">
      <g>
       <use xlink:href="#m89e7c2092d" x="121.39851" y="150.312" style="stroke: #000000; stroke-width: 0.8"/>
      </g>
     </g>
    </g>
    <g id="xtick_8">
     <g id="line2d_10">
      <g>
       <use xlink:href="#m89e7c2092d" x="244.61591" y="150.312" style="stroke: #000000; stroke-width: 0.8"/>
      </g>
     </g>
    </g>
    <g id="xtick_9">
     <g id="line2d_11">
      <g>
       <use xlink:href="#m89e7c2092d" x="367.83331" y="150.312" style="stroke: #000000; stroke-width: 0.8"/>
      </g>
     </g>
    </g>
    <g id="xtick_10">
     <g id="line2d_12">
      <g>
       <use xlink:href="#m89e7c2092d" x="491.05071" y="150.312" style="stroke: #000000; stroke-width: 0.8"/>
      </g>
     </g>
    </g>
    <g id="xtick_11">
     <g id="line2d_13">
      <g>
       <use xlink:href="#m89e7c2092d" x="614.26811" y="150.312" style="stroke: #000000; stroke-width: 0.8"/>
      </g>
     </g>
    </g>
    <g id="xtick_12">
     <g id="line2d_14">
      <g>
       <use xlink:href="#m89e7c2092d" x="737.48551" y="150.312" style="stroke: #000000; stroke-width: 0.8"/>
      </g>
     </g>
    </g>
   </g>
   <g id="matplotlib.axis_4"/>
   <g id="line2d_15">
    <path d="M 121.39851 97.690895 
L 130.686254 90.17545 
L 136.878083 85.394068 
L 143.069912 80.925685 
L 149.261741 76.87945 
L 152.357656 75.046933 
L 155.45357 73.357404 
L 158.549485 71.821742 
L 161.645399 70.449819 
L 164.741314 69.250378 
L 167.837229 68.230927 
L 170.933143 67.397646 
L 174.029058 66.755312 
L 177.124972 66.307241 
L 180.220887 66.055245 
L 183.316801 65.999619 
L 186.412716 66.139134 
L 189.508631 66.471064 
L 192.604545 66.991223 
L 195.70046 67.694024 
L 198.796374 68.572559 
L 201.892289 69.618691 
L 204.988203 70.823162 
L 208.084118 72.175712 
L 211.180033 73.665216 
L 217.371862 77.007079 
L 223.563691 80.74778 
L 229.75552 84.781728 
L 239.043264 91.152457 
L 254.522837 101.820405 
L 260.714666 105.868164 
L 266.906495 109.697252 
L 273.098324 113.264426 
L 279.290153 116.539953 
L 285.481982 119.506684 
L 291.673812 122.15872 
L 297.865641 124.499843 
L 304.05747 126.54182 
L 310.249299 128.302699 
L 316.441128 129.805182 
L 322.632957 131.075113 
L 328.824786 132.14013 
L 335.016616 133.028483 
L 344.304359 134.090374 
L 353.592103 134.905211 
L 365.975761 135.73868 
L 384.551249 136.719824 
L 440.277711 139.339067 
L 461.949113 140.152765 
L 477.428686 140.541664 
L 492.908259 140.699116 
L 505.291917 140.618468 
L 517.675575 140.334683 
L 530.059234 139.854588 
L 548.634721 138.862875 
L 573.402038 137.490581 
L 585.785696 137.021772 
L 598.169354 136.814978 
L 607.457098 136.857378 
L 619.840756 137.173871 
L 632.224415 137.744143 
L 647.703987 138.695661 
L 700.334535 142.140842 
L 737.48551 144.392263 
L 737.48551 144.392263 
" clip-path="url(#p16e00be746)" style="fill: none; stroke: #ffffff; stroke-width: 2; stroke-linecap: square"/>
   </g>
   <g id="line2d_16">
    <path d="M 121.39851 150.312 
L 737.48551 150.312 
" style="fill: none; stroke: #000000; stroke-linecap: square"/>
   </g>
   <g id="text_2">
    <g id="patch_5">
     <path d="M 9.470625 159.721687 
L 60.669375 159.721687 
L 60.669375 140.902312 
L 9.470625 140.902312 
z
" style="fill: #ffffff; opacity: 0.5"/>
    </g>
    <!-- ClipVibe -->
    <g transform="translate(13.430625 153.194812) scale(0.12 -0.12)">
     <defs>
      <path id="TimesNewRomanPSMT-43" d="M 3853 4334 
L 3950 2894 
L 3853 2894 
Q 3659 3541 3300 3825 
Q 2941 4109 2438 4109 
Q 2016 4109 1675 3895 
Q 1334 3681 1139 3212 
Q 944 2744 944 2047 
Q 944 1472 1128 1050 
Q 1313 628 1683 403 
Q 2053 178 2528 178 
Q 2941 178 3256 354 
Q 3572 531 3950 1056 
L 4047 994 
Q 3728 428 3303 165 
Q 2878 -97 2294 -97 
Q 1241 -97 663 684 
Q 231 1266 231 2053 
Q 231 2688 515 3219 
Q 800 3750 1298 4042 
Q 1797 4334 2388 4334 
Q 2847 4334 3294 4109 
Q 3425 4041 3481 4041 
Q 3566 4041 3628 4100 
Q 3709 4184 3744 4334 
L 3853 4334 
z
" transform="scale(0.015625)"/>
      <path id="TimesNewRomanPSMT-6c" d="M 1184 4444 
L 1184 647 
Q 1184 378 1223 290 
Q 1263 203 1344 158 
Q 1425 113 1647 113 
L 1647 0 
L 244 0 
L 244 113 
Q 441 113 512 153 
Q 584 194 625 287 
Q 666 381 666 647 
L 666 3247 
Q 666 3731 644 3842 
Q 622 3953 573 3993 
Q 525 4034 450 4034 
Q 369 4034 244 3984 
L 191 4094 
L 1044 4444 
L 1184 4444 
z
" transform="scale(0.015625)"/>
      <path id="TimesNewRomanPSMT-70" d="M -6 2578 
L 875 2934 
L 994 2934 
L 994 2266 
Q 1216 2644 1439 2795 
Q 1663 2947 1909 2947 
Q 2341 2947 2628 2609 
Q 2981 2197 2981 1534 
Q 2981 794 2556 309 
Q 2206 -88 1675 -88 
Q 1444 -88 1275 -22 
Q 1150 25 994 166 
L 994 -706 
Q 994 -1000 1030 -1079 
Q 1066 -1159 1155 -1206 
Q 1244 -1253 1478 -1253 
L 1478 -1369 
L -22 -1369 
L -22 -1253 
L 56 -1253 
Q 228 -1256 350 -1188 
Q 409 -1153 442 -1076 
Q 475 -1000 475 -688 
L 475 2019 
Q 475 2297 450 2372 
Q 425 2447 370 2484 
Q 316 2522 222 2522 
Q 147 2522 31 2478 
L -6 2578 
z
M 994 2081 
L 994 1013 
Q 994 666 1022 556 
Q 1066 375 1236 237 
Q 1406 100 1666 100 
Q 1978 100 2172 344 
Q 2425 663 2425 1241 
Q 2425 1897 2138 2250 
Q 1938 2494 1663 2494 
Q 1513 2494 1366 2419 
Q 1253 2363 994 2081 
z
" transform="scale(0.015625)"/>
      <path id="TimesNewRomanPSMT-56" d="M 4544 4238 
L 4544 4122 
Q 4319 4081 4203 3978 
Q 4038 3825 3909 3509 
L 2431 -97 
L 2316 -97 
L 728 3556 
Q 606 3838 556 3900 
Q 478 3997 364 4051 
Q 250 4106 56 4122 
L 56 4238 
L 1788 4238 
L 1788 4122 
Q 1494 4094 1406 4022 
Q 1319 3950 1319 3838 
Q 1319 3681 1463 3350 
L 2541 866 
L 3541 3319 
Q 3688 3681 3688 3822 
Q 3688 3913 3597 3995 
Q 3506 4078 3291 4113 
Q 3275 4116 3238 4122 
L 3238 4238 
L 4544 4238 
z
" transform="scale(0.015625)"/>
      <path id="TimesNewRomanPSMT-62" d="M 984 2369 
Q 1400 2947 1881 2947 
Q 2322 2947 2650 2570 
Q 2978 2194 2978 1541 
Q 2978 778 2472 313 
Q 2038 -88 1503 -88 
Q 1253 -88 995 3 
Q 738 94 469 275 
L 469 3241 
Q 469 3728 445 3840 
Q 422 3953 372 3993 
Q 322 4034 247 4034 
Q 159 4034 28 3984 
L -16 4094 
L 844 4444 
L 984 4444 
L 984 2369 
z
M 984 2169 
L 984 456 
Q 1144 300 1314 220 
Q 1484 141 1663 141 
Q 1947 141 2192 453 
Q 2438 766 2438 1363 
Q 2438 1913 2192 2208 
Q 1947 2503 1634 2503 
Q 1469 2503 1303 2419 
Q 1178 2356 984 2169 
z
" transform="scale(0.015625)"/>
     </defs>
     <use xlink:href="#TimesNewRomanPSMT-43"/>
     <use xlink:href="#TimesNewRomanPSMT-6c" transform="translate(66.699219 0)"/>
     <use xlink:href="#TimesNewRomanPSMT-69" transform="translate(94.482422 0)"/>
     <use xlink:href="#TimesNewRomanPSMT-70" transform="translate(122.265625 0)"/>
     <use xlink:href="#TimesNewRomanPSMT-56" transform="translate(172.265625 0)"/>
     <use xlink:href="#TimesNewRomanPSMT-69" transform="translate(238.482422 0)"/>
     <use xlink:href="#TimesNewRomanPSMT-62" transform="translate(266.265625 0)"/>
     <use xlink:href="#TimesNewRomanPSMT-65" transform="translate(316.265625 0)"/>
    </g>
   </g>
  </g>
  <g id="axes_3">
   <g id="patch_6">
    <path d="M 121.39851 194.576 
L 737.48551 194.576 
L 737.48551 106.048 
L 121.39851 106.048 
L 121.39851 194.576 
z
" style="fill: none; opacity: 0"/>
   </g>
   <g id="FillBetweenPolyCollection_3">
    <defs>
     <path id="m8008d91c0c" d="M 121.39851 -127.341723 
L 121.39851 -86.079312 
L 124.494425 -86.079312 
L 127.590339 -86.079312 
L 130.686254 -86.079312 
L 133.782168 -86.079312 
L 136.878083 -86.079312 
L 139.973997 -86.079312 
L 143.069912 -86.079312 
L 146.165827 -86.079312 
L 149.261741 -86.079312 
L 152.357656 -86.079312 
L 155.45357 -86.079312 
L 158.549485 -86.079312 
L 161.645399 -86.079312 
L 164.741314 -86.079312 
L 167.837229 -86.079312 
L 170.933143 -86.079312 
L 174.029058 -86.079312 
L 177.124972 -86.079312 
L 180.220887 -86.079312 
L 183.316801 -86.079312 
L 186.412716 -86.079312 
L 189.508631 -86.079312 
L 192.604545 -86.079312 
L 195.70046 -86.079312 
L 198.796374 -86.079312 
L 201.892289 -86.079312 
L 204.988203 -86.079312 
L 208.084118 -86.079312 
L 211.180033 -86.079312 
L 214.275947 -86.079312 
L 217.371862 -86.079312 
L 220.467776 -86.079312 
L 223.563691 -86.079312 
L 226.659605 -86.079312 
L 229.75552 -86.079312 
L 232.851435 -86.079312 
L 235.947349 -86.079312 
L 239.043264 -86.079312 
L 242.139178 -86.079312 
L 245.235093 -86.079312 
L 248.331007 -86.079312 
L 251.426922 -86.079312 
L 254.522837 -86.079312 
L 257.618751 -86.079312 
L 260.714666 -86.079312 
L 263.81058 -86.079312 
L 266.906495 -86.079312 
L 270.002409 -86.079312 
L 273.098324 -86.079312 
L 276.194239 -86.079312 
L 279.290153 -86.079312 
L 282.386068 -86.079312 
L 285.481982 -86.079312 
L 288.577897 -86.079312 
L 291.673812 -86.079312 
L 294.769726 -86.079312 
L 297.865641 -86.079312 
L 300.961555 -86.079312 
L 304.05747 -86.079312 
L 307.153384 -86.079312 
L 310.249299 -86.079312 
L 313.345214 -86.079312 
L 316.441128 -86.079312 
L 319.537043 -86.079312 
L 322.632957 -86.079312 
L 325.728872 -86.079312 
L 328.824786 -86.079312 
L 331.920701 -86.079312 
L 335.016616 -86.079312 
L 338.11253 -86.079312 
L 341.208445 -86.079312 
L 344.304359 -86.079312 
L 347.400274 -86.079312 
L 350.496188 -86.079312 
L 353.592103 -86.079312 
L 356.688018 -86.079312 
L 359.783932 -86.079312 
L 362.879847 -86.079312 
L 365.975761 -86.079312 
L 369.071676 -86.079312 
L 372.16759 -86.079312 
L 375.263505 -86.079312 
L 378.35942 -86.079312 
L 381.455334 -86.079312 
L 384.551249 -86.079312 
L 387.647163 -86.079312 
L 390.743078 -86.079312 
L 393.838992 -86.079312 
L 396.934907 -86.079312 
L 400.030822 -86.079312 
L 403.126736 -86.079312 
L 406.222651 -86.079312 
L 409.318565 -86.079312 
L 412.41448 -86.079312 
L 415.510394 -86.079312 
L 418.606309 -86.079312 
L 421.702224 -86.079312 
L 424.798138 -86.079312 
L 427.894053 -86.079312 
L 430.989967 -86.079312 
L 434.085882 -86.079312 
L 437.181796 -86.079312 
L 440.277711 -86.079312 
L 443.373626 -86.079312 
L 446.46954 -86.079312 
L 449.565455 -86.079312 
L 452.661369 -86.079312 
L 455.757284 -86.079312 
L 458.853198 -86.079312 
L 461.949113 -86.079312 
L 465.045028 -86.079312 
L 468.140942 -86.079312 
L 471.236857 -86.079312 
L 474.332771 -86.079312 
L 477.428686 -86.079312 
L 480.5246 -86.079312 
L 483.620515 -86.079312 
L 486.71643 -86.079312 
L 489.812344 -86.079312 
L 492.908259 -86.079312 
L 496.004173 -86.079312 
L 499.100088 -86.079312 
L 502.196002 -86.079312 
L 505.291917 -86.079312 
L 508.387832 -86.079312 
L 511.483746 -86.079312 
L 514.579661 -86.079312 
L 517.675575 -86.079312 
L 520.77149 -86.079312 
L 523.867404 -86.079312 
L 526.963319 -86.079312 
L 530.059234 -86.079312 
L 533.155148 -86.079312 
L 536.251063 -86.079312 
L 539.346977 -86.079312 
L 542.442892 -86.079312 
L 545.538806 -86.079312 
L 548.634721 -86.079312 
L 551.730636 -86.079312 
L 554.82655 -86.079312 
L 557.922465 -86.079312 
L 561.018379 -86.079312 
L 564.114294 -86.079312 
L 567.210208 -86.079312 
L 570.306123 -86.079312 
L 573.402038 -86.079312 
L 576.497952 -86.079312 
L 579.593867 -86.079312 
L 582.689781 -86.079312 
L 585.785696 -86.079312 
L 588.881611 -86.079312 
L 591.977525 -86.079312 
L 595.07344 -86.079312 
L 598.169354 -86.079312 
L 601.265269 -86.079312 
L 604.361183 -86.079312 
L 607.457098 -86.079312 
L 610.553013 -86.079312 
L 613.648927 -86.079312 
L 616.744842 -86.079312 
L 619.840756 -86.079312 
L 622.936671 -86.079312 
L 626.032585 -86.079312 
L 629.1285 -86.079312 
L 632.224415 -86.079312 
L 635.320329 -86.079312 
L 638.416244 -86.079312 
L 641.512158 -86.079312 
L 644.608073 -86.079312 
L 647.703987 -86.079312 
L 650.799902 -86.079312 
L 653.895817 -86.079312 
L 656.991731 -86.079312 
L 660.087646 -86.079312 
L 663.18356 -86.079312 
L 666.279475 -86.079312 
L 669.375389 -86.079312 
L 672.471304 -86.079312 
L 675.567219 -86.079312 
L 678.663133 -86.079312 
L 681.759048 -86.079312 
L 684.854962 -86.079312 
L 687.950877 -86.079312 
L 691.046791 -86.079312 
L 694.142706 -86.079312 
L 697.238621 -86.079312 
L 700.334535 -86.079312 
L 703.43045 -86.079312 
L 706.526364 -86.079312 
L 709.622279 -86.079312 
L 712.718193 -86.079312 
L 715.814108 -86.079312 
L 718.910023 -86.079312 
L 722.005937 -86.079312 
L 725.101852 -86.079312 
L 728.197766 -86.079312 
L 731.293681 -86.079312 
L 734.389595 -86.079312 
L 737.48551 -86.079312 
L 737.48551 -97.825783 
L 737.48551 -97.825783 
L 734.389595 -98.009691 
L 731.293681 -98.173994 
L 728.197766 -98.318604 
L 725.101852 -98.443614 
L 722.005937 -98.549298 
L 718.910023 -98.636097 
L 715.814108 -98.704614 
L 712.718193 -98.755604 
L 709.622279 -98.789952 
L 706.526364 -98.808666 
L 703.43045 -98.812853 
L 700.334535 -98.803703 
L 697.238621 -98.78247 
L 694.142706 -98.750452 
L 691.046791 -98.70897 
L 687.950877 -98.659347 
L 684.854962 -98.602895 
L 681.759048 -98.54089 
L 678.663133 -98.474561 
L 675.567219 -98.405074 
L 672.471304 -98.333517 
L 669.375389 -98.260892 
L 666.279475 -98.188104 
L 663.18356 -98.115956 
L 660.087646 -98.045144 
L 656.991731 -97.976256 
L 653.895817 -97.909772 
L 650.799902 -97.846065 
L 647.703987 -97.785405 
L 644.608073 -97.727969 
L 641.512158 -97.673841 
L 638.416244 -97.623027 
L 635.320329 -97.575461 
L 632.224415 -97.531016 
L 629.1285 -97.489514 
L 626.032585 -97.450738 
L 622.936671 -97.414439 
L 619.840756 -97.380352 
L 616.744842 -97.348201 
L 613.648927 -97.317707 
L 610.553013 -97.288602 
L 607.457098 -97.26063 
L 604.361183 -97.233556 
L 601.265269 -97.207169 
L 598.169354 -97.181287 
L 595.07344 -97.155759 
L 591.977525 -97.130466 
L 588.881611 -97.105319 
L 585.785696 -97.080262 
L 582.689781 -97.055268 
L 579.593867 -97.030337 
L 576.497952 -97.005491 
L 573.402038 -96.980773 
L 570.306123 -96.956243 
L 567.210208 -96.931971 
L 564.114294 -96.908035 
L 561.018379 -96.884516 
L 557.922465 -96.861496 
L 554.82655 -96.839052 
L 551.730636 -96.817254 
L 548.634721 -96.796162 
L 545.538806 -96.775827 
L 542.442892 -96.756282 
L 539.346977 -96.737551 
L 536.251063 -96.719643 
L 533.155148 -96.702551 
L 530.059234 -96.686258 
L 526.963319 -96.670738 
L 523.867404 -96.655955 
L 520.77149 -96.641867 
L 517.675575 -96.628432 
L 514.579661 -96.615607 
L 511.483746 -96.603356 
L 508.387832 -96.591651 
L 505.291917 -96.580479 
L 502.196002 -96.569841 
L 499.100088 -96.559763 
L 496.004173 -96.550295 
L 492.908259 -96.541517 
L 489.812344 -96.533542 
L 486.71643 -96.526519 
L 483.620515 -96.520638 
L 480.5246 -96.516132 
L 477.428686 -96.513277 
L 474.332771 -96.512399 
L 471.236857 -96.513869 
L 468.140942 -96.518108 
L 465.045028 -96.525589 
L 461.949113 -96.536829 
L 458.853198 -96.552397 
L 455.757284 -96.572906 
L 452.661369 -96.599014 
L 449.565455 -96.63142 
L 446.46954 -96.670859 
L 443.373626 -96.718099 
L 440.277711 -96.773938 
L 437.181796 -96.839194 
L 434.085882 -96.914702 
L 430.989967 -97.001309 
L 427.894053 -97.099864 
L 424.798138 -97.211213 
L 421.702224 -97.336195 
L 418.606309 -97.475629 
L 415.510394 -97.630314 
L 412.41448 -97.801021 
L 409.318565 -97.988487 
L 406.222651 -98.193412 
L 403.126736 -98.416455 
L 400.030822 -98.658232 
L 396.934907 -98.919317 
L 393.838992 -99.200241 
L 390.743078 -99.501491 
L 387.647163 -99.823521 
L 384.551249 -100.166749 
L 381.455334 -100.53157 
L 378.35942 -100.918359 
L 375.263505 -101.327483 
L 372.16759 -101.75931 
L 369.071676 -102.21422 
L 365.975761 -102.692616 
L 362.879847 -103.194934 
L 359.783932 -103.721658 
L 356.688018 -104.273328 
L 353.592103 -104.850546 
L 350.496188 -105.453994 
L 347.400274 -106.084427 
L 344.304359 -106.742687 
L 341.208445 -107.4297 
L 338.11253 -108.146473 
L 335.016616 -108.894089 
L 331.920701 -109.673698 
L 328.824786 -110.486504 
L 325.728872 -111.333747 
L 322.632957 -112.21668 
L 319.537043 -113.136547 
L 316.441128 -114.094552 
L 313.345214 -115.091824 
L 310.249299 -116.129386 
L 307.153384 -117.208109 
L 304.05747 -118.32868 
L 300.961555 -119.491552 
L 297.865641 -120.696905 
L 294.769726 -121.944601 
L 291.673812 -123.234141 
L 288.577897 -124.564628 
L 285.481982 -125.934724 
L 282.386068 -127.34262 
L 279.290153 -128.786003 
L 276.194239 -130.262033 
L 273.098324 -131.767323 
L 270.002409 -133.297929 
L 266.906495 -134.849345 
L 263.81058 -136.416504 
L 260.714666 -137.993793 
L 257.618751 -139.575073 
L 254.522837 -141.153706 
L 251.426922 -142.722596 
L 248.331007 -144.27423 
L 245.235093 -145.800737 
L 242.139178 -147.293948 
L 239.043264 -148.745464 
L 235.947349 -150.146731 
L 232.851435 -151.489121 
L 229.75552 -152.764013 
L 226.659605 -153.962883 
L 223.563691 -155.07739 
L 220.467776 -156.099468 
L 217.371862 -157.021412 
L 214.275947 -157.835965 
L 211.180033 -158.536401 
L 208.084118 -159.116603 
L 204.988203 -159.571137 
L 201.892289 -159.895314 
L 198.796374 -160.08525 
L 195.70046 -160.137914 
L 192.604545 -160.05117 
L 189.508631 -159.823799 
L 186.412716 -159.455526 
L 183.316801 -158.947021 
L 180.220887 -158.299899 
L 177.124972 -157.516704 
L 174.029058 -156.600887 
L 170.933143 -155.556768 
L 167.837229 -154.389493 
L 164.741314 -153.104982 
L 161.645399 -151.709864 
L 158.549485 -150.211412 
L 155.45357 -148.617464 
L 152.357656 -146.93635 
L 149.261741 -145.176803 
L 146.165827 -143.347874 
L 143.069912 -141.458847 
L 139.973997 -139.519149 
L 136.878083 -137.538267 
L 133.782168 -135.525657 
L 130.686254 -133.49067 
L 127.590339 -131.442469 
L 124.494425 -129.389959 
L 121.39851 -127.341723 
z
" style="stroke: #f2cbb7"/>
    </defs>
    <g clip-path="url(#p536948a617)">
     <use xlink:href="#m8008d91c0c" x="0" y="280.655312" style="fill: #f2cbb7; fill-opacity: 0.5; stroke: #f2cbb7"/>
    </g>
   </g>
   <g id="matplotlib.axis_5">
    <g id="xtick_13">
     <g id="line2d_17">
      <g>
       <use xlink:href="#m89e7c2092d" x="121.39851" y="194.576" style="stroke: #000000; stroke-width: 0.8"/>
      </g>
     </g>
    </g>
    <g id="xtick_14">
     <g id="line2d_18">
      <g>
       <use xlink:href="#m89e7c2092d" x="244.61591" y="194.576" style="stroke: #000000; stroke-width: 0.8"/>
      </g>
     </g>
    </g>
    <g id="xtick_15">
     <g id="line2d_19">
      <g>
       <use xlink:href="#m89e7c2092d" x="367.83331" y="194.576" style="stroke: #000000; stroke-width: 0.8"/>
      </g>
     </g>
    </g>
    <g id="xtick_16">
     <g id="line2d_20">
      <g>
       <use xlink:href="#m89e7c2092d" x="491.05071" y="194.576" style="stroke: #000000; stroke-width: 0.8"/>
      </g>
     </g>
    </g>
    <g id="xtick_17">
     <g id="line2d_21">
      <g>
       <use xlink:href="#m89e7c2092d" x="614.26811" y="194.576" style="stroke: #000000; stroke-width: 0.8"/>
      </g>
     </g>
    </g>
    <g id="xtick_18">
     <g id="line2d_22">
      <g>
       <use xlink:href="#m89e7c2092d" x="737.48551" y="194.576" style="stroke: #000000; stroke-width: 0.8"/>
      </g>
     </g>
    </g>
   </g>
   <g id="matplotlib.axis_6"/>
   <g id="line2d_23">
    <path d="M 121.39851 153.31359 
L 139.973997 141.136163 
L 146.165827 137.307439 
L 152.357656 133.718962 
L 158.549485 130.443901 
L 164.741314 127.55033 
L 170.933143 125.098545 
L 174.029058 124.054426 
L 177.124972 123.138609 
L 180.220887 122.355414 
L 183.316801 121.708292 
L 186.412716 121.199786 
L 189.508631 120.831513 
L 192.604545 120.604143 
L 195.70046 120.517398 
L 198.796374 120.570063 
L 201.892289 120.759999 
L 204.988203 121.084176 
L 208.084118 121.538709 
L 211.180033 122.118912 
L 214.275947 122.819348 
L 220.467776 124.555845 
L 226.659605 126.69243 
L 232.851435 129.166191 
L 239.043264 131.909848 
L 248.331007 136.381083 
L 279.290153 151.869309 
L 288.577897 156.090684 
L 294.769726 158.710711 
L 300.961555 161.16376 
L 307.153384 163.447203 
L 313.345214 165.563488 
L 322.632957 168.438632 
L 331.920701 170.981615 
L 341.208445 173.225613 
L 350.496188 175.201319 
L 359.783932 176.933654 
L 369.071676 178.441092 
L 378.35942 179.736954 
L 387.647163 180.831792 
L 396.934907 181.735995 
L 406.222651 182.461901 
L 418.606309 183.179684 
L 430.989967 183.654004 
L 446.46954 183.984454 
L 465.045028 184.129724 
L 496.004173 184.105017 
L 554.82655 183.816261 
L 626.032585 183.204575 
L 653.895817 182.74554 
L 700.334535 181.85161 
L 712.718193 181.899709 
L 725.101852 182.211698 
L 734.389595 182.645622 
L 737.48551 182.82953 
L 737.48551 182.82953 
" clip-path="url(#p536948a617)" style="fill: none; stroke: #ffffff; stroke-width: 2; stroke-linecap: square"/>
   </g>
   <g id="line2d_24">
    <path d="M 121.39851 194.576 
L 737.48551 194.576 
" style="fill: none; stroke: #000000; stroke-linecap: square"/>
   </g>
   <g id="text_3">
    <g id="patch_7">
     <path d="M 3.24 203.985687 
L 60.669375 203.985687 
L 60.669375 185.166312 
L 3.24 185.166312 
z
" style="fill: #ffffff; opacity: 0.5"/>
    </g>
    <!-- ViewTube -->
    <g transform="translate(7.2 197.458812) scale(0.12 -0.12)">
     <defs>
      <path id="TimesNewRomanPSMT-77" d="M 41 2863 
L 1241 2863 
L 1241 2747 
Q 1075 2734 1023 2687 
Q 972 2641 972 2553 
Q 972 2456 1025 2319 
L 1638 672 
L 2253 2013 
L 2091 2434 
Q 2016 2622 1894 2694 
Q 1825 2738 1638 2747 
L 1638 2863 
L 3000 2863 
L 3000 2747 
Q 2775 2738 2681 2666 
Q 2619 2616 2619 2506 
Q 2619 2444 2644 2378 
L 3294 734 
L 3897 2319 
Q 3959 2488 3959 2588 
Q 3959 2647 3898 2694 
Q 3838 2741 3659 2747 
L 3659 2863 
L 4563 2863 
L 4563 2747 
Q 4291 2706 4163 2378 
L 3206 -88 
L 3078 -88 
L 2363 1741 
L 1528 -88 
L 1413 -88 
L 494 2319 
Q 403 2547 315 2626 
Q 228 2706 41 2747 
L 41 2863 
z
" transform="scale(0.015625)"/>
      <path id="TimesNewRomanPSMT-54" d="M 3703 4238 
L 3750 3244 
L 3631 3244 
Q 3597 3506 3538 3619 
Q 3441 3800 3280 3886 
Q 3119 3972 2856 3972 
L 2259 3972 
L 2259 734 
Q 2259 344 2344 247 
Q 2463 116 2709 116 
L 2856 116 
L 2856 0 
L 1059 0 
L 1059 116 
L 1209 116 
Q 1478 116 1591 278 
Q 1659 378 1659 734 
L 1659 3972 
L 1150 3972 
Q 853 3972 728 3928 
Q 566 3869 450 3700 
Q 334 3531 313 3244 
L 194 3244 
L 244 4238 
L 3703 4238 
z
" transform="scale(0.015625)"/>
      <path id="TimesNewRomanPSMT-75" d="M 2709 2863 
L 2709 1128 
Q 2709 631 2732 520 
Q 2756 409 2807 365 
Q 2859 322 2928 322 
Q 3025 322 3147 375 
L 3191 266 
L 2334 -88 
L 2194 -88 
L 2194 519 
Q 1825 119 1631 15 
Q 1438 -88 1222 -88 
Q 981 -88 804 51 
Q 628 191 559 409 
Q 491 628 491 1028 
L 491 2306 
Q 491 2509 447 2587 
Q 403 2666 317 2708 
Q 231 2750 6 2747 
L 6 2863 
L 1009 2863 
L 1009 947 
Q 1009 547 1148 422 
Q 1288 297 1484 297 
Q 1619 297 1789 381 
Q 1959 466 2194 703 
L 2194 2325 
Q 2194 2569 2105 2655 
Q 2016 2741 1734 2747 
L 1734 2863 
L 2709 2863 
z
" transform="scale(0.015625)"/>
     </defs>
     <use xlink:href="#TimesNewRomanPSMT-56"/>
     <use xlink:href="#TimesNewRomanPSMT-69" transform="translate(66.216797 0)"/>
     <use xlink:href="#TimesNewRomanPSMT-65" transform="translate(94 0)"/>
     <use xlink:href="#TimesNewRomanPSMT-77" transform="translate(138.384766 0)"/>
     <use xlink:href="#TimesNewRomanPSMT-54" transform="translate(210.601562 0)"/>
     <use xlink:href="#TimesNewRomanPSMT-75" transform="translate(268.185547 0)"/>
     <use xlink:href="#TimesNewRomanPSMT-62" transform="translate(318.185547 0)"/>
     <use xlink:href="#TimesNewRomanPSMT-65" transform="translate(368.185547 0)"/>
    </g>
   </g>
  </g>
  <g id="axes_4">
   <g id="patch_8">
    <path d="M 121.39851 238.84 
L 737.48551 238.84 
L 737.48551 150.312 
L 121.39851 150.312 
L 121.39851 238.84 
z
" style="fill: none; opacity: 0"/>
   </g>
   <g id="FillBetweenPolyCollection_4">
    <defs>
     <path id="m01a1be3695" d="M 121.39851 -92.252926 
L 121.39851 -41.815313 
L 124.494425 -41.815313 
L 127.590339 -41.815313 
L 130.686254 -41.815313 
L 133.782168 -41.815313 
L 136.878083 -41.815313 
L 139.973997 -41.815313 
L 143.069912 -41.815313 
L 146.165827 -41.815313 
L 149.261741 -41.815313 
L 152.357656 -41.815313 
L 155.45357 -41.815313 
L 158.549485 -41.815313 
L 161.645399 -41.815313 
L 164.741314 -41.815313 
L 167.837229 -41.815313 
L 170.933143 -41.815313 
L 174.029058 -41.815313 
L 177.124972 -41.815313 
L 180.220887 -41.815313 
L 183.316801 -41.815313 
L 186.412716 -41.815313 
L 189.508631 -41.815313 
L 192.604545 -41.815313 
L 195.70046 -41.815313 
L 198.796374 -41.815313 
L 201.892289 -41.815313 
L 204.988203 -41.815313 
L 208.084118 -41.815313 
L 211.180033 -41.815313 
L 214.275947 -41.815313 
L 217.371862 -41.815313 
L 220.467776 -41.815313 
L 223.563691 -41.815313 
L 226.659605 -41.815313 
L 229.75552 -41.815313 
L 232.851435 -41.815313 
L 235.947349 -41.815313 
L 239.043264 -41.815313 
L 242.139178 -41.815313 
L 245.235093 -41.815313 
L 248.331007 -41.815313 
L 251.426922 -41.815313 
L 254.522837 -41.815313 
L 257.618751 -41.815313 
L 260.714666 -41.815313 
L 263.81058 -41.815313 
L 266.906495 -41.815313 
L 270.002409 -41.815313 
L 273.098324 -41.815313 
L 276.194239 -41.815313 
L 279.290153 -41.815313 
L 282.386068 -41.815313 
L 285.481982 -41.815313 
L 288.577897 -41.815313 
L 291.673812 -41.815313 
L 294.769726 -41.815313 
L 297.865641 -41.815313 
L 300.961555 -41.815313 
L 304.05747 -41.815313 
L 307.153384 -41.815313 
L 310.249299 -41.815313 
L 313.345214 -41.815313 
L 316.441128 -41.815313 
L 319.537043 -41.815313 
L 322.632957 -41.815313 
L 325.728872 -41.815313 
L 328.824786 -41.815313 
L 331.920701 -41.815313 
L 335.016616 -41.815313 
L 338.11253 -41.815313 
L 341.208445 -41.815313 
L 344.304359 -41.815313 
L 347.400274 -41.815313 
L 350.496188 -41.815313 
L 353.592103 -41.815313 
L 356.688018 -41.815313 
L 359.783932 -41.815313 
L 362.879847 -41.815313 
L 365.975761 -41.815313 
L 369.071676 -41.815313 
L 372.16759 -41.815313 
L 375.263505 -41.815313 
L 378.35942 -41.815313 
L 381.455334 -41.815313 
L 384.551249 -41.815313 
L 387.647163 -41.815313 
L 390.743078 -41.815313 
L 393.838992 -41.815313 
L 396.934907 -41.815313 
L 400.030822 -41.815313 
L 403.126736 -41.815313 
L 406.222651 -41.815313 
L 409.318565 -41.815313 
L 412.41448 -41.815313 
L 415.510394 -41.815313 
L 418.606309 -41.815313 
L 421.702224 -41.815313 
L 424.798138 -41.815313 
L 427.894053 -41.815313 
L 430.989967 -41.815313 
L 434.085882 -41.815313 
L 437.181796 -41.815313 
L 440.277711 -41.815313 
L 443.373626 -41.815313 
L 446.46954 -41.815313 
L 449.565455 -41.815313 
L 452.661369 -41.815313 
L 455.757284 -41.815313 
L 458.853198 -41.815313 
L 461.949113 -41.815313 
L 465.045028 -41.815313 
L 468.140942 -41.815313 
L 471.236857 -41.815313 
L 474.332771 -41.815313 
L 477.428686 -41.815313 
L 480.5246 -41.815313 
L 483.620515 -41.815313 
L 486.71643 -41.815313 
L 489.812344 -41.815313 
L 492.908259 -41.815313 
L 496.004173 -41.815313 
L 499.100088 -41.815313 
L 502.196002 -41.815313 
L 505.291917 -41.815313 
L 508.387832 -41.815313 
L 511.483746 -41.815313 
L 514.579661 -41.815313 
L 517.675575 -41.815313 
L 520.77149 -41.815313 
L 523.867404 -41.815313 
L 526.963319 -41.815313 
L 530.059234 -41.815313 
L 533.155148 -41.815313 
L 536.251063 -41.815313 
L 539.346977 -41.815313 
L 542.442892 -41.815313 
L 545.538806 -41.815313 
L 548.634721 -41.815313 
L 551.730636 -41.815313 
L 554.82655 -41.815313 
L 557.922465 -41.815313 
L 561.018379 -41.815313 
L 564.114294 -41.815313 
L 567.210208 -41.815313 
L 570.306123 -41.815313 
L 573.402038 -41.815313 
L 576.497952 -41.815313 
L 579.593867 -41.815313 
L 582.689781 -41.815313 
L 585.785696 -41.815313 
L 588.881611 -41.815313 
L 591.977525 -41.815313 
L 595.07344 -41.815313 
L 598.169354 -41.815313 
L 601.265269 -41.815313 
L 604.361183 -41.815313 
L 607.457098 -41.815313 
L 610.553013 -41.815313 
L 613.648927 -41.815313 
L 616.744842 -41.815313 
L 619.840756 -41.815313 
L 622.936671 -41.815313 
L 626.032585 -41.815313 
L 629.1285 -41.815313 
L 632.224415 -41.815313 
L 635.320329 -41.815313 
L 638.416244 -41.815313 
L 641.512158 -41.815313 
L 644.608073 -41.815313 
L 647.703987 -41.815313 
L 650.799902 -41.815313 
L 653.895817 -41.815313 
L 656.991731 -41.815313 
L 660.087646 -41.815313 
L 663.18356 -41.815313 
L 666.279475 -41.815313 
L 669.375389 -41.815313 
L 672.471304 -41.815313 
L 675.567219 -41.815313 
L 678.663133 -41.815313 
L 681.759048 -41.815313 
L 684.854962 -41.815313 
L 687.950877 -41.815313 
L 691.046791 -41.815313 
L 694.142706 -41.815313 
L 697.238621 -41.815313 
L 700.334535 -41.815313 
L 703.43045 -41.815313 
L 706.526364 -41.815313 
L 709.622279 -41.815313 
L 712.718193 -41.815313 
L 715.814108 -41.815313 
L 718.910023 -41.815313 
L 722.005937 -41.815313 
L 725.101852 -41.815313 
L 728.197766 -41.815313 
L 731.293681 -41.815313 
L 734.389595 -41.815313 
L 737.48551 -41.815313 
L 737.48551 -50.430864 
L 737.48551 -50.430864 
L 734.389595 -50.78285 
L 731.293681 -51.133103 
L 728.197766 -51.480423 
L 725.101852 -51.823582 
L 722.005937 -52.161329 
L 718.910023 -52.492398 
L 715.814108 -52.815517 
L 712.718193 -53.129416 
L 709.622279 -53.432836 
L 706.526364 -53.724542 
L 703.43045 -54.00333 
L 700.334535 -54.26804 
L 697.238621 -54.517569 
L 694.142706 -54.750879 
L 691.046791 -54.967013 
L 687.950877 -55.165103 
L 684.854962 -55.344382 
L 681.759048 -55.504198 
L 678.663133 -55.644018 
L 675.567219 -55.763441 
L 672.471304 -55.862205 
L 669.375389 -55.940194 
L 666.279475 -55.99744 
L 663.18356 -56.034127 
L 660.087646 -56.050594 
L 656.991731 -56.047332 
L 653.895817 -56.024979 
L 650.799902 -55.98432 
L 647.703987 -55.926273 
L 644.608073 -55.851886 
L 641.512158 -55.762321 
L 638.416244 -55.658843 
L 635.320329 -55.542802 
L 632.224415 -55.415622 
L 629.1285 -55.27878 
L 626.032585 -55.133787 
L 622.936671 -54.982172 
L 619.840756 -54.825462 
L 616.744842 -54.665162 
L 613.648927 -54.502739 
L 610.553013 -54.339603 
L 607.457098 -54.17709 
L 604.361183 -54.016449 
L 601.265269 -53.858828 
L 598.169354 -53.705262 
L 595.07344 -53.556665 
L 591.977525 -53.413823 
L 588.881611 -53.277388 
L 585.785696 -53.147878 
L 582.689781 -53.025675 
L 579.593867 -52.911031 
L 576.497952 -52.804068 
L 573.402038 -52.704791 
L 570.306123 -52.61309 
L 567.210208 -52.528758 
L 564.114294 -52.451495 
L 561.018379 -52.38093 
L 557.922465 -52.316626 
L 554.82655 -52.258102 
L 551.730636 -52.204844 
L 548.634721 -52.156321 
L 545.538806 -52.112001 
L 542.442892 -52.07136 
L 539.346977 -52.033903 
L 536.251063 -51.999167 
L 533.155148 -51.96674 
L 530.059234 -51.936265 
L 526.963319 -51.907448 
L 523.867404 -51.880068 
L 520.77149 -51.853976 
L 517.675575 -51.829101 
L 514.579661 -51.805449 
L 511.483746 -51.783102 
L 508.387832 -51.762216 
L 505.291917 -51.743016 
L 502.196002 -51.725789 
L 499.100088 -51.710881 
L 496.004173 -51.698684 
L 492.908259 -51.68963 
L 489.812344 -51.68418 
L 486.71643 -51.682814 
L 483.620515 -51.68602 
L 480.5246 -51.694286 
L 477.428686 -51.708084 
L 474.332771 -51.727864 
L 471.236857 -51.754044 
L 468.140942 -51.787 
L 465.045028 -51.827056 
L 461.949113 -51.874482 
L 458.853198 -51.929484 
L 455.757284 -51.992201 
L 452.661369 -52.062701 
L 449.565455 -52.140981 
L 446.46954 -52.226967 
L 443.373626 -52.320515 
L 440.277711 -52.421415 
L 437.181796 -52.529395 
L 434.085882 -52.644132 
L 430.989967 -52.765254 
L 427.894053 -52.892358 
L 424.798138 -53.025014 
L 421.702224 -53.162784 
L 418.606309 -53.305231 
L 415.510394 -53.451937 
L 412.41448 -53.602519 
L 409.318565 -53.756642 
L 406.222651 -53.914041 
L 403.126736 -54.074531 
L 400.030822 -54.238027 
L 396.934907 -54.40456 
L 393.838992 -54.574289 
L 390.743078 -54.747519 
L 387.647163 -54.924708 
L 384.551249 -55.10648 
L 381.455334 -55.293636 
L 378.35942 -55.487157 
L 375.263505 -55.688209 
L 372.16759 -55.898146 
L 369.071676 -56.11851 
L 365.975761 -56.351025 
L 362.879847 -56.597593 
L 359.783932 -56.860284 
L 356.688018 -57.141329 
L 353.592103 -57.4431 
L 350.496188 -57.768099 
L 347.400274 -58.118936 
L 344.304359 -58.498315 
L 341.208445 -58.909003 
L 338.11253 -59.353814 
L 335.016616 -59.835578 
L 331.920701 -60.357119 
L 328.824786 -60.921225 
L 325.728872 -61.530618 
L 322.632957 -62.187928 
L 319.537043 -62.895664 
L 316.441128 -63.656179 
L 313.345214 -64.471645 
L 310.249299 -65.344019 
L 307.153384 -66.275016 
L 304.05747 -67.266076 
L 300.961555 -68.318336 
L 297.865641 -69.4326 
L 294.769726 -70.609311 
L 291.673812 -71.848522 
L 288.577897 -73.149869 
L 285.481982 -74.512546 
L 282.386068 -75.93528 
L 279.290153 -77.416307 
L 276.194239 -78.953354 
L 273.098324 -80.543617 
L 270.002409 -82.183753 
L 266.906495 -83.869859 
L 263.81058 -85.597472 
L 260.714666 -87.361561 
L 257.618751 -89.156533 
L 254.522837 -90.976237 
L 251.426922 -92.813977 
L 248.331007 -94.662536 
L 245.235093 -96.514197 
L 242.139178 -98.360783 
L 239.043264 -100.193691 
L 235.947349 -102.003947 
L 232.851435 -103.782258 
L 229.75552 -105.519078 
L 226.659605 -107.204674 
L 223.563691 -108.829207 
L 220.467776 -110.382809 
L 217.371862 -111.855675 
L 214.275947 -113.238149 
L 211.180033 -114.520823 
L 208.084118 -115.694626 
L 204.988203 -116.750925 
L 201.892289 -117.681617 
L 198.796374 -118.479222 
L 195.70046 -119.13697 
L 192.604545 -119.648883 
L 189.508631 -120.009853 
L 186.412716 -120.215709 
L 183.316801 -120.263272 
L 180.220887 -120.150408 
L 177.124972 -119.876059 
L 174.029058 -119.440268 
L 170.933143 -118.844194 
L 167.837229 -118.090102 
L 164.741314 -117.181356 
L 161.645399 -116.122385 
L 158.549485 -114.918643 
L 155.45357 -113.576554 
L 152.357656 -112.10345 
L 149.261741 -110.507494 
L 146.165827 -108.797592 
L 143.069912 -106.983305 
L 139.973997 -105.074747 
L 136.878083 -103.08248 
L 133.782168 -101.017408 
L 130.686254 -98.890664 
L 127.590339 -96.713506 
L 124.494425 -94.497201 
L 121.39851 -92.252926 
z
" style="stroke: #ee8468"/>
    </defs>
    <g clip-path="url(#p9c2d9429cd)">
     <use xlink:href="#m01a1be3695" x="0" y="280.655312" style="fill: #ee8468; fill-opacity: 0.5; stroke: #ee8468"/>
    </g>
   </g>
   <g id="matplotlib.axis_7">
    <g id="xtick_19">
     <g id="line2d_25">
      <g>
       <use xlink:href="#m89e7c2092d" x="121.39851" y="238.84" style="stroke: #000000; stroke-width: 0.8"/>
      </g>
     </g>
     <g id="text_4">
      <!-- 0 -->
      <g transform="translate(118.39851 254.1725) scale(0.12 -0.12)">
       <defs>
        <path id="TimesNewRomanPSMT-30" d="M 231 2094 
Q 231 2819 450 3342 
Q 669 3866 1031 4122 
Q 1313 4325 1613 4325 
Q 2100 4325 2488 3828 
Q 2972 3213 2972 2159 
Q 2972 1422 2759 906 
Q 2547 391 2217 158 
Q 1888 -75 1581 -75 
Q 975 -75 572 641 
Q 231 1244 231 2094 
z
M 844 2016 
Q 844 1141 1059 588 
Q 1238 122 1591 122 
Q 1759 122 1940 273 
Q 2122 425 2216 781 
Q 2359 1319 2359 2297 
Q 2359 3022 2209 3506 
Q 2097 3866 1919 4016 
Q 1791 4119 1609 4119 
Q 1397 4119 1231 3928 
Q 1006 3669 925 3112 
Q 844 2556 844 2016 
z
" transform="scale(0.015625)"/>
       </defs>
       <use xlink:href="#TimesNewRomanPSMT-30"/>
      </g>
     </g>
    </g>
    <g id="xtick_20">
     <g id="line2d_26">
      <g>
       <use xlink:href="#m89e7c2092d" x="244.61591" y="238.84" style="stroke: #000000; stroke-width: 0.8"/>
      </g>
     </g>
     <g id="text_5">
      <!-- 2 -->
      <g transform="translate(241.61591 254.1725) scale(0.12 -0.12)">
       <defs>
        <path id="TimesNewRomanPSMT-32" d="M 2934 816 
L 2638 0 
L 138 0 
L 138 116 
Q 1241 1122 1691 1759 
Q 2141 2397 2141 2925 
Q 2141 3328 1894 3587 
Q 1647 3847 1303 3847 
Q 991 3847 742 3664 
Q 494 3481 375 3128 
L 259 3128 
Q 338 3706 661 4015 
Q 984 4325 1469 4325 
Q 1984 4325 2329 3994 
Q 2675 3663 2675 3213 
Q 2675 2891 2525 2569 
Q 2294 2063 1775 1497 
Q 997 647 803 472 
L 1909 472 
Q 2247 472 2383 497 
Q 2519 522 2628 598 
Q 2738 675 2819 816 
L 2934 816 
z
" transform="scale(0.015625)"/>
       </defs>
       <use xlink:href="#TimesNewRomanPSMT-32"/>
      </g>
     </g>
    </g>
    <g id="xtick_21">
     <g id="line2d_27">
      <g>
       <use xlink:href="#m89e7c2092d" x="367.83331" y="238.84" style="stroke: #000000; stroke-width: 0.8"/>
      </g>
     </g>
     <g id="text_6">
      <!-- 4 -->
      <g transform="translate(364.83331 254.1725) scale(0.12 -0.12)">
       <defs>
        <path id="TimesNewRomanPSMT-34" d="M 2978 1563 
L 2978 1119 
L 2409 1119 
L 2409 0 
L 1894 0 
L 1894 1119 
L 100 1119 
L 100 1519 
L 2066 4325 
L 2409 4325 
L 2409 1563 
L 2978 1563 
z
M 1894 1563 
L 1894 3666 
L 406 1563 
L 1894 1563 
z
" transform="scale(0.015625)"/>
       </defs>
       <use xlink:href="#TimesNewRomanPSMT-34"/>
      </g>
     </g>
    </g>
    <g id="xtick_22">
     <g id="line2d_28">
      <g>
       <use xlink:href="#m89e7c2092d" x="491.05071" y="238.84" style="stroke: #000000; stroke-width: 0.8"/>
      </g>
     </g>
     <g id="text_7">
      <!-- 6 -->
      <g transform="translate(488.05071 254.1725) scale(0.12 -0.12)">
       <defs>
        <path id="TimesNewRomanPSMT-36" d="M 2869 4325 
L 2869 4209 
Q 2456 4169 2195 4045 
Q 1934 3922 1679 3669 
Q 1425 3416 1258 3105 
Q 1091 2794 978 2366 
Q 1428 2675 1881 2675 
Q 2316 2675 2634 2325 
Q 2953 1975 2953 1425 
Q 2953 894 2631 456 
Q 2244 -75 1606 -75 
Q 1172 -75 869 213 
Q 275 772 275 1663 
Q 275 2231 503 2743 
Q 731 3256 1154 3653 
Q 1578 4050 1965 4187 
Q 2353 4325 2688 4325 
L 2869 4325 
z
M 925 2138 
Q 869 1716 869 1456 
Q 869 1156 980 804 
Q 1091 453 1309 247 
Q 1469 100 1697 100 
Q 1969 100 2183 356 
Q 2397 613 2397 1088 
Q 2397 1622 2184 2012 
Q 1972 2403 1581 2403 
Q 1463 2403 1327 2353 
Q 1191 2303 925 2138 
z
" transform="scale(0.015625)"/>
       </defs>
       <use xlink:href="#TimesNewRomanPSMT-36"/>
      </g>
     </g>
    </g>
    <g id="xtick_23">
     <g id="line2d_29">
      <g>
       <use xlink:href="#m89e7c2092d" x="614.26811" y="238.84" style="stroke: #000000; stroke-width: 0.8"/>
      </g>
     </g>
     <g id="text_8">
      <!-- 8 -->
      <g transform="translate(611.26811 254.1725) scale(0.12 -0.12)">
       <defs>
        <path id="TimesNewRomanPSMT-38" d="M 1228 2134 
Q 725 2547 579 2797 
Q 434 3047 434 3316 
Q 434 3728 753 4026 
Q 1072 4325 1600 4325 
Q 2113 4325 2425 4047 
Q 2738 3769 2738 3413 
Q 2738 3175 2569 2928 
Q 2400 2681 1866 2347 
Q 2416 1922 2594 1678 
Q 2831 1359 2831 1006 
Q 2831 559 2490 242 
Q 2150 -75 1597 -75 
Q 994 -75 656 303 
Q 388 606 388 966 
Q 388 1247 577 1523 
Q 766 1800 1228 2134 
z
M 1719 2469 
Q 2094 2806 2194 3001 
Q 2294 3197 2294 3444 
Q 2294 3772 2109 3958 
Q 1925 4144 1606 4144 
Q 1288 4144 1088 3959 
Q 888 3775 888 3528 
Q 888 3366 970 3203 
Q 1053 3041 1206 2894 
L 1719 2469 
z
M 1375 2016 
Q 1116 1797 991 1539 
Q 866 1281 866 981 
Q 866 578 1086 336 
Q 1306 94 1647 94 
Q 1984 94 2187 284 
Q 2391 475 2391 747 
Q 2391 972 2272 1150 
Q 2050 1481 1375 2016 
z
" transform="scale(0.015625)"/>
       </defs>
       <use xlink:href="#TimesNewRomanPSMT-38"/>
      </g>
     </g>
    </g>
    <g id="xtick_24">
     <g id="line2d_30">
      <g>
       <use xlink:href="#m89e7c2092d" x="737.48551" y="238.84" style="stroke: #000000; stroke-width: 0.8"/>
      </g>
     </g>
     <g id="text_9">
      <!-- 10 -->
      <g transform="translate(731.48551 254.1725) scale(0.12 -0.12)">
       <defs>
        <path id="TimesNewRomanPSMT-31" d="M 750 3822 
L 1781 4325 
L 1884 4325 
L 1884 747 
Q 1884 391 1914 303 
Q 1944 216 2037 169 
Q 2131 122 2419 116 
L 2419 0 
L 825 0 
L 825 116 
Q 1125 122 1212 167 
Q 1300 213 1334 289 
Q 1369 366 1369 747 
L 1369 3034 
Q 1369 3497 1338 3628 
Q 1316 3728 1258 3775 
Q 1200 3822 1119 3822 
Q 1003 3822 797 3725 
L 750 3822 
z
" transform="scale(0.015625)"/>
       </defs>
       <use xlink:href="#TimesNewRomanPSMT-31"/>
       <use xlink:href="#TimesNewRomanPSMT-30" transform="translate(50 0)"/>
      </g>
     </g>
    </g>
    <g id="text_10">
     <!-- Value -->
     <g transform="translate(413.506073 270.460625) scale(0.14 -0.14)">
      <use xlink:href="#TimesNewRomanPSMT-56"/>
      <use xlink:href="#TimesNewRomanPSMT-61" transform="translate(61.091797 0)"/>
      <use xlink:href="#TimesNewRomanPSMT-6c" transform="translate(105.476562 0)"/>
      <use xlink:href="#TimesNewRomanPSMT-75" transform="translate(133.259766 0)"/>
      <use xlink:href="#TimesNewRomanPSMT-65" transform="translate(183.259766 0)"/>
     </g>
    </g>
   </g>
   <g id="matplotlib.axis_8"/>
   <g id="line2d_31">
    <path d="M 121.39851 188.402386 
L 130.686254 181.764648 
L 136.878083 177.572832 
L 143.069912 173.672008 
L 149.261741 170.147819 
L 155.45357 167.078759 
L 158.549485 165.73667 
L 161.645399 164.532927 
L 164.741314 163.473956 
L 167.837229 162.56521 
L 170.933143 161.811119 
L 174.029058 161.215044 
L 177.124972 160.779254 
L 180.220887 160.504904 
L 183.316801 160.39204 
L 186.412716 160.439604 
L 189.508631 160.64546 
L 192.604545 161.00643 
L 195.70046 161.518343 
L 198.796374 162.17609 
L 201.892289 162.973695 
L 204.988203 163.904387 
L 208.084118 164.960687 
L 214.275947 167.417163 
L 220.467776 170.272504 
L 226.659605 173.450638 
L 232.851435 176.873054 
L 242.139178 182.29453 
L 260.714666 193.293751 
L 270.002409 198.47156 
L 276.194239 201.701959 
L 282.386068 204.720032 
L 288.577897 207.505443 
L 294.769726 210.046002 
L 300.961555 212.336977 
L 307.153384 214.380296 
L 313.345214 216.183667 
L 319.537043 217.759648 
L 325.728872 219.124695 
L 331.920701 220.298193 
L 338.11253 221.301499 
L 347.400274 222.536376 
L 356.688018 223.513984 
L 369.071676 224.536802 
L 384.551249 225.548832 
L 409.318565 226.89867 
L 430.989967 227.890058 
L 449.565455 228.514331 
L 465.045028 228.828257 
L 483.620515 228.969292 
L 508.387832 228.893096 
L 545.538806 228.543312 
L 567.210208 228.126555 
L 582.689781 227.629638 
L 601.265269 226.796484 
L 638.416244 224.99647 
L 650.799902 224.670993 
L 660.087646 224.604718 
L 669.375389 224.715118 
L 678.663133 225.011295 
L 687.950877 225.49021 
L 700.334535 226.387273 
L 712.718193 227.525897 
L 728.197766 229.174889 
L 737.48551 230.224449 
L 737.48551 230.224449 
" clip-path="url(#p9c2d9429cd)" style="fill: none; stroke: #ffffff; stroke-width: 2; stroke-linecap: square"/>
   </g>
   <g id="line2d_32">
    <path d="M 121.39851 238.84 
L 737.48551 238.84 
" style="fill: none; stroke: #000000; stroke-linecap: square"/>
   </g>
   <g id="text_11">
    <g id="patch_9">
     <path d="M 16.093125 248.249687 
L 60.669375 248.249687 
L 60.669375 229.430312 
L 16.093125 229.430312 
z
" style="fill: #ffffff; opacity: 0.5"/>
    </g>
    <!-- Chirper -->
    <g transform="translate(20.053125 241.722812) scale(0.12 -0.12)">
     <defs>
      <path id="TimesNewRomanPSMT-68" d="M 1041 4444 
L 1041 2350 
Q 1388 2731 1591 2839 
Q 1794 2947 1997 2947 
Q 2241 2947 2416 2812 
Q 2591 2678 2675 2391 
Q 2734 2191 2734 1659 
L 2734 647 
Q 2734 375 2778 275 
Q 2809 200 2884 156 
Q 2959 113 3159 113 
L 3159 0 
L 1753 0 
L 1753 113 
L 1819 113 
Q 2019 113 2097 173 
Q 2175 234 2206 353 
Q 2216 403 2216 647 
L 2216 1659 
Q 2216 2128 2167 2275 
Q 2119 2422 2012 2495 
Q 1906 2569 1756 2569 
Q 1603 2569 1437 2487 
Q 1272 2406 1041 2159 
L 1041 647 
Q 1041 353 1073 281 
Q 1106 209 1195 161 
Q 1284 113 1503 113 
L 1503 0 
L 84 0 
L 84 113 
Q 275 113 384 172 
Q 447 203 484 290 
Q 522 378 522 647 
L 522 3238 
Q 522 3728 498 3840 
Q 475 3953 426 3993 
Q 378 4034 297 4034 
Q 231 4034 84 3984 
L 41 4094 
L 897 4444 
L 1041 4444 
z
" transform="scale(0.015625)"/>
      <path id="TimesNewRomanPSMT-72" d="M 1038 2947 
L 1038 2303 
Q 1397 2947 1775 2947 
Q 1947 2947 2059 2842 
Q 2172 2738 2172 2600 
Q 2172 2478 2090 2393 
Q 2009 2309 1897 2309 
Q 1788 2309 1652 2417 
Q 1516 2525 1450 2525 
Q 1394 2525 1328 2463 
Q 1188 2334 1038 2041 
L 1038 669 
Q 1038 431 1097 309 
Q 1138 225 1241 169 
Q 1344 113 1538 113 
L 1538 0 
L 72 0 
L 72 113 
Q 291 113 397 181 
Q 475 231 506 341 
Q 522 394 522 644 
L 522 1753 
Q 522 2253 501 2348 
Q 481 2444 426 2487 
Q 372 2531 291 2531 
Q 194 2531 72 2484 
L 41 2597 
L 906 2947 
L 1038 2947 
z
" transform="scale(0.015625)"/>
     </defs>
     <use xlink:href="#TimesNewRomanPSMT-43"/>
     <use xlink:href="#TimesNewRomanPSMT-68" transform="translate(66.699219 0)"/>
     <use xlink:href="#TimesNewRomanPSMT-69" transform="translate(116.699219 0)"/>
     <use xlink:href="#TimesNewRomanPSMT-72" transform="translate(144.482422 0)"/>
     <use xlink:href="#TimesNewRomanPSMT-70" transform="translate(177.783203 0)"/>
     <use xlink:href="#TimesNewRomanPSMT-65" transform="translate(227.783203 0)"/>
     <use xlink:href="#TimesNewRomanPSMT-72" transform="translate(272.167969 0)"/>
    </g>
   </g>
  </g>
  <g id="text_12">
   <!-- Social Media Usage Time(hours/day) -->
   <g transform="translate(268.51551 18.31) scale(0.16 -0.16)">
    <defs>
     <path id="TimesNewRomanPSMT-53" d="M 2934 4334 
L 2934 2869 
L 2819 2869 
Q 2763 3291 2617 3541 
Q 2472 3791 2203 3937 
Q 1934 4084 1647 4084 
Q 1322 4084 1109 3886 
Q 897 3688 897 3434 
Q 897 3241 1031 3081 
Q 1225 2847 1953 2456 
Q 2547 2138 2764 1967 
Q 2981 1797 3098 1565 
Q 3216 1334 3216 1081 
Q 3216 600 2842 251 
Q 2469 -97 1881 -97 
Q 1697 -97 1534 -69 
Q 1438 -53 1133 45 
Q 828 144 747 144 
Q 669 144 623 97 
Q 578 50 556 -97 
L 441 -97 
L 441 1356 
L 556 1356 
Q 638 900 775 673 
Q 913 447 1195 297 
Q 1478 147 1816 147 
Q 2206 147 2432 353 
Q 2659 559 2659 841 
Q 2659 997 2573 1156 
Q 2488 1316 2306 1453 
Q 2184 1547 1640 1851 
Q 1097 2156 867 2337 
Q 638 2519 519 2737 
Q 400 2956 400 3219 
Q 400 3675 750 4004 
Q 1100 4334 1641 4334 
Q 1978 4334 2356 4169 
Q 2531 4091 2603 4091 
Q 2684 4091 2736 4139 
Q 2788 4188 2819 4334 
L 2934 4334 
z
" transform="scale(0.015625)"/>
     <path id="TimesNewRomanPSMT-6f" d="M 1600 2947 
Q 2250 2947 2644 2453 
Q 2978 2031 2978 1484 
Q 2978 1100 2793 706 
Q 2609 313 2286 112 
Q 1963 -88 1566 -88 
Q 919 -88 538 428 
Q 216 863 216 1403 
Q 216 1797 411 2186 
Q 606 2575 925 2761 
Q 1244 2947 1600 2947 
z
M 1503 2744 
Q 1338 2744 1170 2645 
Q 1003 2547 900 2300 
Q 797 2053 797 1666 
Q 797 1041 1045 587 
Q 1294 134 1700 134 
Q 2003 134 2200 384 
Q 2397 634 2397 1244 
Q 2397 2006 2069 2444 
Q 1847 2744 1503 2744 
z
" transform="scale(0.015625)"/>
     <path id="TimesNewRomanPSMT-20" transform="scale(0.015625)"/>
     <path id="TimesNewRomanPSMT-4d" d="M 2619 0 
L 981 3566 
L 981 734 
Q 981 344 1066 247 
Q 1181 116 1431 116 
L 1581 116 
L 1581 0 
L 106 0 
L 106 116 
L 256 116 
Q 525 116 638 278 
Q 706 378 706 734 
L 706 3503 
Q 706 3784 644 3909 
Q 600 4000 483 4061 
Q 366 4122 106 4122 
L 106 4238 
L 1306 4238 
L 2844 922 
L 4356 4238 
L 5556 4238 
L 5556 4122 
L 5409 4122 
Q 5138 4122 5025 3959 
Q 4956 3859 4956 3503 
L 4956 734 
Q 4956 344 5044 247 
Q 5159 116 5409 116 
L 5556 116 
L 5556 0 
L 3756 0 
L 3756 116 
L 3906 116 
Q 4178 116 4288 278 
Q 4356 378 4356 734 
L 4356 3566 
L 2722 0 
L 2619 0 
z
" transform="scale(0.015625)"/>
     <path id="TimesNewRomanPSMT-64" d="M 2222 322 
Q 2013 103 1813 7 
Q 1613 -88 1381 -88 
Q 913 -88 563 304 
Q 213 697 213 1313 
Q 213 1928 600 2439 
Q 988 2950 1597 2950 
Q 1975 2950 2222 2709 
L 2222 3238 
Q 2222 3728 2198 3840 
Q 2175 3953 2125 3993 
Q 2075 4034 2000 4034 
Q 1919 4034 1784 3984 
L 1744 4094 
L 2597 4444 
L 2738 4444 
L 2738 1134 
Q 2738 631 2761 520 
Q 2784 409 2836 365 
Q 2888 322 2956 322 
Q 3041 322 3181 375 
L 3216 266 
L 2366 -88 
L 2222 -88 
L 2222 322 
z
M 2222 541 
L 2222 2016 
Q 2203 2228 2109 2403 
Q 2016 2578 1861 2667 
Q 1706 2756 1559 2756 
Q 1284 2756 1069 2509 
Q 784 2184 784 1559 
Q 784 928 1059 592 
Q 1334 256 1672 256 
Q 1956 256 2222 541 
z
" transform="scale(0.015625)"/>
     <path id="TimesNewRomanPSMT-55" d="M 3053 4122 
L 3053 4238 
L 4553 4238 
L 4553 4122 
L 4394 4122 
Q 4144 4122 4009 3913 
Q 3944 3816 3944 3463 
L 3944 1744 
Q 3944 1106 3817 754 
Q 3691 403 3320 151 
Q 2950 -100 2313 -100 
Q 1619 -100 1259 140 
Q 900 381 750 788 
Q 650 1066 650 1831 
L 650 3488 
Q 650 3878 542 4000 
Q 434 4122 194 4122 
L 34 4122 
L 34 4238 
L 1866 4238 
L 1866 4122 
L 1703 4122 
Q 1441 4122 1328 3956 
Q 1250 3844 1250 3488 
L 1250 1641 
Q 1250 1394 1295 1075 
Q 1341 756 1459 578 
Q 1578 400 1801 284 
Q 2025 169 2350 169 
Q 2766 169 3094 350 
Q 3422 531 3542 814 
Q 3663 1097 3663 1772 
L 3663 3488 
Q 3663 3884 3575 3984 
Q 3453 4122 3213 4122 
L 3053 4122 
z
" transform="scale(0.015625)"/>
     <path id="TimesNewRomanPSMT-73" d="M 2050 2947 
L 2050 1972 
L 1947 1972 
Q 1828 2431 1642 2597 
Q 1456 2763 1169 2763 
Q 950 2763 815 2647 
Q 681 2531 681 2391 
Q 681 2216 781 2091 
Q 878 1963 1175 1819 
L 1631 1597 
Q 2266 1288 2266 781 
Q 2266 391 1970 151 
Q 1675 -88 1309 -88 
Q 1047 -88 709 6 
Q 606 38 541 38 
Q 469 38 428 -44 
L 325 -44 
L 325 978 
L 428 978 
Q 516 541 762 319 
Q 1009 97 1316 97 
Q 1531 97 1667 223 
Q 1803 350 1803 528 
Q 1803 744 1651 891 
Q 1500 1038 1047 1263 
Q 594 1488 453 1669 
Q 313 1847 313 2119 
Q 313 2472 555 2709 
Q 797 2947 1181 2947 
Q 1350 2947 1591 2875 
Q 1750 2828 1803 2828 
Q 1853 2828 1881 2850 
Q 1909 2872 1947 2947 
L 2050 2947 
z
" transform="scale(0.015625)"/>
     <path id="TimesNewRomanPSMT-67" d="M 966 1044 
Q 703 1172 562 1401 
Q 422 1631 422 1909 
Q 422 2334 742 2640 
Q 1063 2947 1563 2947 
Q 1972 2947 2272 2747 
L 2878 2747 
Q 3013 2747 3034 2739 
Q 3056 2731 3066 2713 
Q 3084 2684 3084 2613 
Q 3084 2531 3069 2500 
Q 3059 2484 3036 2475 
Q 3013 2466 2878 2466 
L 2506 2466 
Q 2681 2241 2681 1891 
Q 2681 1491 2375 1206 
Q 2069 922 1553 922 
Q 1341 922 1119 984 
Q 981 866 932 777 
Q 884 688 884 625 
Q 884 572 936 522 
Q 988 472 1138 450 
Q 1225 438 1575 428 
Q 2219 413 2409 384 
Q 2700 344 2873 169 
Q 3047 -6 3047 -263 
Q 3047 -616 2716 -925 
Q 2228 -1381 1444 -1381 
Q 841 -1381 425 -1109 
Q 191 -953 191 -784 
Q 191 -709 225 -634 
Q 278 -519 444 -313 
Q 466 -284 763 25 
Q 600 122 533 198 
Q 466 275 466 372 
Q 466 481 555 628 
Q 644 775 966 1044 
z
M 1509 2797 
Q 1278 2797 1122 2612 
Q 966 2428 966 2047 
Q 966 1553 1178 1281 
Q 1341 1075 1591 1075 
Q 1828 1075 1981 1253 
Q 2134 1431 2134 1813 
Q 2134 2309 1919 2591 
Q 1759 2797 1509 2797 
z
M 934 0 
Q 788 -159 713 -296 
Q 638 -434 638 -550 
Q 638 -700 819 -813 
Q 1131 -1006 1722 -1006 
Q 2284 -1006 2551 -807 
Q 2819 -609 2819 -384 
Q 2819 -222 2659 -153 
Q 2497 -84 2016 -72 
Q 1313 -53 934 0 
z
" transform="scale(0.015625)"/>
     <path id="TimesNewRomanPSMT-6d" d="M 1050 2338 
Q 1363 2650 1419 2697 
Q 1559 2816 1721 2881 
Q 1884 2947 2044 2947 
Q 2313 2947 2506 2790 
Q 2700 2634 2766 2338 
Q 3088 2713 3309 2830 
Q 3531 2947 3766 2947 
Q 3994 2947 4170 2830 
Q 4347 2713 4450 2447 
Q 4519 2266 4519 1878 
L 4519 647 
Q 4519 378 4559 278 
Q 4591 209 4675 161 
Q 4759 113 4950 113 
L 4950 0 
L 3538 0 
L 3538 113 
L 3597 113 
Q 3781 113 3884 184 
Q 3956 234 3988 344 
Q 4000 397 4000 647 
L 4000 1878 
Q 4000 2228 3916 2372 
Q 3794 2572 3525 2572 
Q 3359 2572 3192 2489 
Q 3025 2406 2788 2181 
L 2781 2147 
L 2788 2013 
L 2788 647 
Q 2788 353 2820 281 
Q 2853 209 2943 161 
Q 3034 113 3253 113 
L 3253 0 
L 1806 0 
L 1806 113 
Q 2044 113 2133 169 
Q 2222 225 2256 338 
Q 2272 391 2272 647 
L 2272 1878 
Q 2272 2228 2169 2381 
Q 2031 2581 1784 2581 
Q 1616 2581 1450 2491 
Q 1191 2353 1050 2181 
L 1050 647 
Q 1050 366 1089 281 
Q 1128 197 1204 155 
Q 1281 113 1516 113 
L 1516 0 
L 100 0 
L 100 113 
Q 297 113 375 155 
Q 453 197 493 289 
Q 534 381 534 647 
L 534 1741 
Q 534 2213 506 2350 
Q 484 2453 437 2492 
Q 391 2531 309 2531 
Q 222 2531 100 2484 
L 53 2597 
L 916 2947 
L 1050 2947 
L 1050 2338 
z
" transform="scale(0.015625)"/>
     <path id="TimesNewRomanPSMT-28" d="M 1988 -1253 
L 1988 -1369 
Q 1516 -1131 1200 -813 
Q 750 -359 506 256 
Q 263 872 263 1534 
Q 263 2503 741 3301 
Q 1219 4100 1988 4444 
L 1988 4313 
Q 1603 4100 1356 3731 
Q 1109 3363 987 2797 
Q 866 2231 866 1616 
Q 866 947 969 400 
Q 1050 -31 1165 -292 
Q 1281 -553 1476 -793 
Q 1672 -1034 1988 -1253 
z
" transform="scale(0.015625)"/>
     <path id="TimesNewRomanPSMT-2f" d="M 1794 4444 
L 259 -88 
L 9 -88 
L 1544 4444 
L 1794 4444 
z
" transform="scale(0.015625)"/>
     <path id="TimesNewRomanPSMT-79" d="M 38 2863 
L 1372 2863 
L 1372 2747 
L 1306 2747 
Q 1166 2747 1095 2686 
Q 1025 2625 1025 2534 
Q 1025 2413 1128 2197 
L 1825 753 
L 2466 2334 
Q 2519 2463 2519 2588 
Q 2519 2644 2497 2672 
Q 2472 2706 2419 2726 
Q 2366 2747 2231 2747 
L 2231 2863 
L 3163 2863 
L 3163 2747 
Q 3047 2734 2984 2696 
Q 2922 2659 2847 2556 
Q 2819 2513 2741 2316 
L 1575 -541 
Q 1406 -956 1132 -1168 
Q 859 -1381 606 -1381 
Q 422 -1381 303 -1275 
Q 184 -1169 184 -1031 
Q 184 -900 270 -820 
Q 356 -741 506 -741 
Q 609 -741 788 -809 
Q 913 -856 944 -856 
Q 1038 -856 1148 -759 
Q 1259 -663 1372 -384 
L 1575 113 
L 547 2272 
Q 500 2369 397 2513 
Q 319 2622 269 2659 
Q 197 2709 38 2747 
L 38 2863 
z
" transform="scale(0.015625)"/>
     <path id="TimesNewRomanPSMT-29" d="M 144 4313 
L 144 4444 
Q 619 4209 934 3891 
Q 1381 3434 1625 2820 
Q 1869 2206 1869 1541 
Q 1869 572 1392 -226 
Q 916 -1025 144 -1369 
L 144 -1253 
Q 528 -1038 776 -670 
Q 1025 -303 1145 264 
Q 1266 831 1266 1447 
Q 1266 2113 1163 2663 
Q 1084 3094 967 3353 
Q 850 3613 656 3853 
Q 463 4094 144 4313 
z
" transform="scale(0.015625)"/>
    </defs>
    <use xlink:href="#TimesNewRomanPSMT-53"/>
    <use xlink:href="#TimesNewRomanPSMT-6f" transform="translate(55.615234 0)"/>
    <use xlink:href="#TimesNewRomanPSMT-63" transform="translate(105.615234 0)"/>
    <use xlink:href="#TimesNewRomanPSMT-69" transform="translate(150 0)"/>
    <use xlink:href="#TimesNewRomanPSMT-61" transform="translate(177.783203 0)"/>
    <use xlink:href="#TimesNewRomanPSMT-6c" transform="translate(222.167969 0)"/>
    <use xlink:href="#TimesNewRomanPSMT-20" transform="translate(249.951172 0)"/>
    <use xlink:href="#TimesNewRomanPSMT-4d" transform="translate(274.951172 0)"/>
    <use xlink:href="#TimesNewRomanPSMT-65" transform="translate(363.867188 0)"/>
    <use xlink:href="#TimesNewRomanPSMT-64" transform="translate(408.251953 0)"/>
    <use xlink:href="#TimesNewRomanPSMT-69" transform="translate(458.251953 0)"/>
    <use xlink:href="#TimesNewRomanPSMT-61" transform="translate(486.035156 0)"/>
    <use xlink:href="#TimesNewRomanPSMT-20" transform="translate(530.419922 0)"/>
    <use xlink:href="#TimesNewRomanPSMT-55" transform="translate(555.419922 0)"/>
    <use xlink:href="#TimesNewRomanPSMT-73" transform="translate(627.636719 0)"/>
    <use xlink:href="#TimesNewRomanPSMT-61" transform="translate(666.552734 0)"/>
    <use xlink:href="#TimesNewRomanPSMT-67" transform="translate(710.9375 0)"/>
    <use xlink:href="#TimesNewRomanPSMT-65" transform="translate(760.9375 0)"/>
    <use xlink:href="#TimesNewRomanPSMT-20" transform="translate(805.322266 0)"/>
    <use xlink:href="#TimesNewRomanPSMT-54" transform="translate(828.572266 0)"/>
    <use xlink:href="#TimesNewRomanPSMT-69" transform="translate(886.15625 0)"/>
    <use xlink:href="#TimesNewRomanPSMT-6d" transform="translate(913.939453 0)"/>
    <use xlink:href="#TimesNewRomanPSMT-65" transform="translate(991.722656 0)"/>
    <use xlink:href="#TimesNewRomanPSMT-28" transform="translate(1036.107422 0)"/>
    <use xlink:href="#TimesNewRomanPSMT-68" transform="translate(1069.408203 0)"/>
    <use xlink:href="#TimesNewRomanPSMT-6f" transform="translate(1119.408203 0)"/>
    <use xlink:href="#TimesNewRomanPSMT-75" transform="translate(1169.408203 0)"/>
    <use xlink:href="#TimesNewRomanPSMT-72" transform="translate(1219.408203 0)"/>
    <use xlink:href="#TimesNewRomanPSMT-73" transform="translate(1252.708984 0)"/>
    <use xlink:href="#TimesNewRomanPSMT-2f" transform="translate(1291.625 0)"/>
    <use xlink:href="#TimesNewRomanPSMT-64" transform="translate(1319.408203 0)"/>
    <use xlink:href="#TimesNewRomanPSMT-61" transform="translate(1369.408203 0)"/>
    <use xlink:href="#TimesNewRomanPSMT-79" transform="translate(1413.792969 0)"/>
    <use xlink:href="#TimesNewRomanPSMT-29" transform="translate(1463.792969 0)"/>
   </g>
  </g>
 </g>
 <defs>
  <clipPath id="pf3bb00bd31">
   <rect x="121.39851" y="17.52" width="616.087" height="88.528"/>
  </clipPath>
  <clipPath id="p16e00be746">
   <rect x="121.39851" y="61.784" width="616.087" height="88.528"/>
  </clipPath>
  <clipPath id="p536948a617">
   <rect x="121.39851" y="106.048" width="616.087" height="88.528"/>
  </clipPath>
  <clipPath id="p9c2d9429cd">
   <rect x="121.39851" y="150.312" width="616.087" height="88.528"/>
  </clipPath>
 </defs>
</svg>
