<?xml version="1.0" encoding="utf-8" standalone="no"?>
<!DOCTYPE svg PUBLIC "-//W3C//DTD SVG 1.1//EN"
  "http://www.w3.org/Graphics/SVG/1.1/DTD/svg11.dtd">
<svg xmlns:xlink="http://www.w3.org/1999/xlink" width="759.437148pt" height="212.255313pt" viewBox="0 0 759.437148 212.255313" xmlns="http://www.w3.org/2000/svg" version="1.1">
 <metadata>
  <rdf:RDF xmlns:dc="http://purl.org/dc/elements/1.1/" xmlns:cc="http://creativecommons.org/ns#" xmlns:rdf="http://www.w3.org/1999/02/22-rdf-syntax-ns#">
   <cc:Work>
    <dc:type rdf:resource="http://purl.org/dc/dcmitype/StillImage"/>
    <dc:date>2025-05-30T16:59:26.449993</dc:date>
    <dc:format>image/svg+xml</dc:format>
    <dc:creator>
     <cc:Agent>
      <dc:title>Matplotlib v3.10.1, https://matplotlib.org/</dc:title>
     </cc:Agent>
    </dc:creator>
   </cc:Work>
  </rdf:RDF>
 </metadata>
 <defs>
  <style type="text/css">*{stroke-linejoin: round; stroke-linecap: butt}</style>
 </defs>
 <g id="figure_1">
  <g id="patch_1">
   <path d="M 0 212.255313 
L 759.437148 212.255313 
L 759.437148 0 
L 0 0 
z
" style="fill: #ffffff"/>
  </g>
  <g id="axes_1">
   <g id="patch_2">
    <path d="M 127.247647 95.78 
L 737.237147 95.78 
L 737.237147 21.12 
L 127.247647 21.12 
L 127.247647 95.78 
z
" style="fill: none; opacity: 0"/>
   </g>
   <g id="FillBetweenPolyCollection_1">
    <defs>
     <path id="mec93cef20e" d="M 127.247647 -121.621152 
L 127.247647 -116.475313 
L 130.312921 -116.475313 
L 133.378195 -116.475313 
L 136.443469 -116.475313 
L 139.508743 -116.475313 
L 142.574017 -116.475313 
L 145.639291 -116.475313 
L 148.704565 -116.475313 
L 151.769838 -116.475313 
L 154.835112 -116.475313 
L 157.900386 -116.475313 
L 160.96566 -116.475313 
L 164.030934 -116.475313 
L 167.096208 -116.475313 
L 170.161482 -116.475313 
L 173.226756 -116.475313 
L 176.292029 -116.475313 
L 179.357303 -116.475313 
L 182.422577 -116.475313 
L 185.487851 -116.475313 
L 188.553125 -116.475313 
L 191.618399 -116.475313 
L 194.683673 -116.475313 
L 197.748946 -116.475313 
L 200.81422 -116.475313 
L 203.879494 -116.475313 
L 206.944768 -116.475313 
L 210.010042 -116.475313 
L 213.075316 -116.475313 
L 216.14059 -116.475313 
L 219.205864 -116.475313 
L 222.271137 -116.475313 
L 225.336411 -116.475313 
L 228.401685 -116.475313 
L 231.466959 -116.475313 
L 234.532233 -116.475313 
L 237.597507 -116.475313 
L 240.662781 -116.475313 
L 243.728055 -116.475313 
L 246.793328 -116.475313 
L 249.858602 -116.475313 
L 252.923876 -116.475313 
L 255.98915 -116.475313 
L 259.054424 -116.475313 
L 262.119698 -116.475313 
L 265.184972 -116.475313 
L 268.250245 -116.475313 
L 271.315519 -116.475313 
L 274.380793 -116.475313 
L 277.446067 -116.475313 
L 280.511341 -116.475313 
L 283.576615 -116.475313 
L 286.641889 -116.475313 
L 289.707163 -116.475313 
L 292.772436 -116.475313 
L 295.83771 -116.475313 
L 298.902984 -116.475313 
L 301.968258 -116.475313 
L 305.033532 -116.475313 
L 308.098806 -116.475313 
L 311.16408 -116.475313 
L 314.229354 -116.475313 
L 317.294627 -116.475313 
L 320.359901 -116.475313 
L 323.425175 -116.475313 
L 326.490449 -116.475313 
L 329.555723 -116.475313 
L 332.620997 -116.475313 
L 335.686271 -116.475313 
L 338.751544 -116.475313 
L 341.816818 -116.475313 
L 344.882092 -116.475313 
L 347.947366 -116.475313 
L 351.01264 -116.475313 
L 354.077914 -116.475313 
L 357.143188 -116.475313 
L 360.208462 -116.475313 
L 363.273735 -116.475313 
L 366.339009 -116.475313 
L 369.404283 -116.475313 
L 372.469557 -116.475313 
L 375.534831 -116.475313 
L 378.600105 -116.475313 
L 381.665379 -116.475313 
L 384.730653 -116.475313 
L 387.795926 -116.475313 
L 390.8612 -116.475313 
L 393.926474 -116.475313 
L 396.991748 -116.475313 
L 400.057022 -116.475313 
L 403.122296 -116.475313 
L 406.18757 -116.475313 
L 409.252843 -116.475313 
L 412.318117 -116.475313 
L 415.383391 -116.475313 
L 418.448665 -116.475313 
L 421.513939 -116.475313 
L 424.579213 -116.475313 
L 427.644487 -116.475313 
L 430.709761 -116.475313 
L 433.775034 -116.475313 
L 436.840308 -116.475313 
L 439.905582 -116.475313 
L 442.970856 -116.475313 
L 446.03613 -116.475313 
L 449.101404 -116.475313 
L 452.166678 -116.475313 
L 455.231952 -116.475313 
L 458.297225 -116.475313 
L 461.362499 -116.475313 
L 464.427773 -116.475313 
L 467.493047 -116.475313 
L 470.558321 -116.475313 
L 473.623595 -116.475313 
L 476.688869 -116.475313 
L 479.754142 -116.475313 
L 482.819416 -116.475313 
L 485.88469 -116.475313 
L 488.949964 -116.475313 
L 492.015238 -116.475313 
L 495.080512 -116.475313 
L 498.145786 -116.475313 
L 501.21106 -116.475313 
L 504.276333 -116.475313 
L 507.341607 -116.475313 
L 510.406881 -116.475313 
L 513.472155 -116.475313 
L 516.537429 -116.475313 
L 519.602703 -116.475313 
L 522.667977 -116.475313 
L 525.733251 -116.475313 
L 528.798524 -116.475313 
L 531.863798 -116.475313 
L 534.929072 -116.475313 
L 537.994346 -116.475313 
L 541.05962 -116.475313 
L 544.124894 -116.475313 
L 547.190168 -116.475313 
L 550.255441 -116.475313 
L 553.320715 -116.475313 
L 556.385989 -116.475313 
L 559.451263 -116.475313 
L 562.516537 -116.475313 
L 565.581811 -116.475313 
L 568.647085 -116.475313 
L 571.712359 -116.475313 
L 574.777632 -116.475313 
L 577.842906 -116.475313 
L 580.90818 -116.475313 
L 583.973454 -116.475313 
L 587.038728 -116.475313 
L 590.104002 -116.475313 
L 593.169276 -116.475313 
L 596.23455 -116.475313 
L 599.299823 -116.475313 
L 602.365097 -116.475313 
L 605.430371 -116.475313 
L 608.495645 -116.475313 
L 611.560919 -116.475313 
L 614.626193 -116.475313 
L 617.691467 -116.475313 
L 620.75674 -116.475313 
L 623.822014 -116.475313 
L 626.887288 -116.475313 
L 629.952562 -116.475313 
L 633.017836 -116.475313 
L 636.08311 -116.475313 
L 639.148384 -116.475313 
L 642.213658 -116.475313 
L 645.278931 -116.475313 
L 648.344205 -116.475313 
L 651.409479 -116.475313 
L 654.474753 -116.475313 
L 657.540027 -116.475313 
L 660.605301 -116.475313 
L 663.670575 -116.475313 
L 666.735849 -116.475313 
L 669.801122 -116.475313 
L 672.866396 -116.475313 
L 675.93167 -116.475313 
L 678.996944 -116.475313 
L 682.062218 -116.475313 
L 685.127492 -116.475313 
L 688.192766 -116.475313 
L 691.258039 -116.475313 
L 694.323313 -116.475313 
L 697.388587 -116.475313 
L 700.453861 -116.475313 
L 703.519135 -116.475313 
L 706.584409 -116.475313 
L 709.649683 -116.475313 
L 712.714957 -116.475313 
L 715.78023 -116.475313 
L 718.845504 -116.475313 
L 721.910778 -116.475313 
L 724.976052 -116.475313 
L 728.041326 -116.475313 
L 731.1066 -116.475313 
L 734.171874 -116.475313 
L 737.237147 -116.475313 
L 737.237147 -130.511961 
L 737.237147 -130.511961 
L 734.171874 -131.179327 
L 731.1066 -131.850019 
L 728.041326 -132.523716 
L 724.976052 -133.200314 
L 721.910778 -133.879921 
L 718.845504 -134.562841 
L 715.78023 -135.249563 
L 712.714957 -135.940732 
L 709.649683 -136.63713 
L 706.584409 -137.339641 
L 703.519135 -138.049224 
L 700.453861 -138.766881 
L 697.388587 -139.493622 
L 694.323313 -140.230436 
L 691.258039 -140.978258 
L 688.192766 -141.737941 
L 685.127492 -142.510224 
L 682.062218 -143.295715 
L 678.996944 -144.094857 
L 675.93167 -144.907916 
L 672.866396 -145.734958 
L 669.801122 -146.575833 
L 666.735849 -147.430165 
L 663.670575 -148.297331 
L 660.605301 -149.176463 
L 657.540027 -150.066429 
L 654.474753 -150.965836 
L 651.409479 -151.873019 
L 648.344205 -152.786045 
L 645.278931 -153.702713 
L 642.213658 -154.620558 
L 639.148384 -155.536858 
L 636.08311 -156.448644 
L 633.017836 -157.35272 
L 629.952562 -158.245674 
L 626.887288 -159.123909 
L 623.822014 -159.983666 
L 620.75674 -160.821059 
L 617.691467 -161.632108 
L 614.626193 -162.412785 
L 611.560919 -163.159055 
L 608.495645 -163.866923 
L 605.430371 -164.532487 
L 602.365097 -165.151993 
L 599.299823 -165.721881 
L 596.23455 -166.238847 
L 593.169276 -166.699894 
L 590.104002 -167.102382 
L 587.038728 -167.444077 
L 583.973454 -167.723202 
L 580.90818 -167.938468 
L 577.842906 -168.089116 
L 574.777632 -168.174943 
L 571.712359 -168.196318 
L 568.647085 -168.1542 
L 565.581811 -168.050136 
L 562.516537 -167.886258 
L 559.451263 -167.665262 
L 556.385989 -167.390385 
L 553.320715 -167.065372 
L 550.255441 -166.694423 
L 547.190168 -166.282145 
L 544.124894 -165.833491 
L 541.05962 -165.353685 
L 537.994346 -164.848152 
L 534.929072 -164.322437 
L 531.863798 -163.78212 
L 528.798524 -163.232732 
L 525.733251 -162.679671 
L 522.667977 -162.128115 
L 519.602703 -161.58294 
L 516.537429 -161.048646 
L 513.472155 -160.529282 
L 510.406881 -160.028382 
L 507.341607 -159.548909 
L 504.276333 -159.093202 
L 501.21106 -158.662945 
L 498.145786 -158.259135 
L 495.080512 -157.882064 
L 492.015238 -157.53132 
L 488.949964 -157.205786 
L 485.88469 -156.903663 
L 482.819416 -156.622498 
L 479.754142 -156.359224 
L 476.688869 -156.110213 
L 473.623595 -155.871335 
L 470.558321 -155.638032 
L 467.493047 -155.405392 
L 464.427773 -155.168241 
L 461.362499 -154.921232 
L 458.297225 -154.658938 
L 455.231952 -154.375958 
L 452.166678 -154.067012 
L 449.101404 -153.727042 
L 446.03613 -153.351311 
L 442.970856 -152.935489 
L 439.905582 -152.475745 
L 436.840308 -151.968821 
L 433.775034 -151.4121 
L 430.709761 -150.803659 
L 427.644487 -150.142317 
L 424.579213 -149.427656 
L 421.513939 -148.66004 
L 418.448665 -147.840615 
L 415.383391 -146.971286 
L 412.318117 -146.054696 
L 409.252843 -145.094174 
L 406.18757 -144.09368 
L 403.122296 -143.057742 
L 400.057022 -141.991374 
L 396.991748 -140.899991 
L 393.926474 -139.789326 
L 390.8612 -138.665331 
L 387.795926 -137.534086 
L 384.730653 -136.401711 
L 381.665379 -135.274272 
L 378.600105 -134.157702 
L 375.534831 -133.057727 
L 372.469557 -131.979793 
L 369.404283 -130.929013 
L 366.339009 -129.910117 
L 363.273735 -128.927416 
L 360.208462 -127.984774 
L 357.143188 -127.085593 
L 354.077914 -126.232806 
L 351.01264 -125.42888 
L 347.947366 -124.675826 
L 344.882092 -123.975219 
L 341.816818 -123.328219 
L 338.751544 -122.7356 
L 335.686271 -122.197781 
L 332.620997 -121.71486 
L 329.555723 -121.286644 
L 326.490449 -120.912679 
L 323.425175 -120.592288 
L 320.359901 -120.324589 
L 317.294627 -120.108522 
L 314.229354 -119.942869 
L 311.16408 -119.826267 
L 308.098806 -119.757219 
L 305.033532 -119.734099 
L 301.968258 -119.755153 
L 298.902984 -119.818501 
L 295.83771 -119.922126 
L 292.772436 -120.063874 
L 289.707163 -120.241443 
L 286.641889 -120.452374 
L 283.576615 -120.694048 
L 280.511341 -120.963681 
L 277.446067 -121.258319 
L 274.380793 -121.574845 
L 271.315519 -121.909985 
L 268.250245 -122.260319 
L 265.184972 -122.622297 
L 262.119698 -122.99227 
L 259.054424 -123.366508 
L 255.98915 -123.741244 
L 252.923876 -124.112705 
L 249.858602 -124.477161 
L 246.793328 -124.830962 
L 243.728055 -125.170594 
L 240.662781 -125.492718 
L 237.597507 -125.79422 
L 234.532233 -126.072255 
L 231.466959 -126.324286 
L 228.401685 -126.548121 
L 225.336411 -126.741939 
L 222.271137 -126.904315 
L 219.205864 -127.034238 
L 216.14059 -127.13111 
L 213.075316 -127.194751 
L 210.010042 -127.225388 
L 206.944768 -127.223632 
L 203.879494 -127.190459 
L 200.81422 -127.127174 
L 197.748946 -127.035372 
L 194.683673 -126.916895 
L 191.618399 -126.773789 
L 188.553125 -126.608249 
L 185.487851 -126.422575 
L 182.422577 -126.219117 
L 179.357303 -126.000235 
L 176.292029 -125.768247 
L 173.226756 -125.525395 
L 170.161482 -125.273808 
L 167.096208 -125.015472 
L 164.030934 -124.752206 
L 160.96566 -124.485649 
L 157.900386 -124.217247 
L 154.835112 -123.94825 
L 151.769838 -123.679714 
L 148.704565 -123.412513 
L 145.639291 -123.147345 
L 142.574017 -122.884752 
L 139.508743 -122.625143 
L 136.443469 -122.368809 
L 133.378195 -122.115952 
L 130.312921 -121.866704 
L 127.247647 -121.621152 
z
" style="stroke: #f77189"/>
    </defs>
    <g clip-path="url(#p374863eab0)">
     <use xlink:href="#mec93cef20e" x="0" y="212.255313" style="fill: #f77189; fill-opacity: 0.5; stroke: #f77189"/>
    </g>
   </g>
   <g id="matplotlib.axis_1">
    <g id="xtick_1">
     <g id="line2d_1">
      <defs>
       <path id="m8400f06f87" d="M 0 0 
L 0 3.5 
" style="stroke: #000000; stroke-width: 0.8"/>
      </defs>
      <g>
       <use xlink:href="#m8400f06f87" x="127.247647" y="95.78" style="stroke: #000000; stroke-width: 0.8"/>
      </g>
     </g>
    </g>
    <g id="xtick_2">
     <g id="line2d_2">
      <g>
       <use xlink:href="#m8400f06f87" x="249.245547" y="95.78" style="stroke: #000000; stroke-width: 0.8"/>
      </g>
     </g>
    </g>
    <g id="xtick_3">
     <g id="line2d_3">
      <g>
       <use xlink:href="#m8400f06f87" x="371.243448" y="95.78" style="stroke: #000000; stroke-width: 0.8"/>
      </g>
     </g>
    </g>
    <g id="xtick_4">
     <g id="line2d_4">
      <g>
       <use xlink:href="#m8400f06f87" x="493.241348" y="95.78" style="stroke: #000000; stroke-width: 0.8"/>
      </g>
     </g>
    </g>
    <g id="xtick_5">
     <g id="line2d_5">
      <g>
       <use xlink:href="#m8400f06f87" x="615.239248" y="95.78" style="stroke: #000000; stroke-width: 0.8"/>
      </g>
     </g>
    </g>
    <g id="xtick_6">
     <g id="line2d_6">
      <g>
       <use xlink:href="#m8400f06f87" x="737.237147" y="95.78" style="stroke: #000000; stroke-width: 0.8"/>
      </g>
     </g>
    </g>
   </g>
   <g id="matplotlib.axis_2"/>
   <g id="line2d_7">
    <path d="M 127.247647 90.634161 
L 151.769838 88.575598 
L 179.357303 86.255078 
L 191.618399 85.481523 
L 200.81422 85.128139 
L 210.010042 85.029925 
L 219.205864 85.221075 
L 228.401685 85.707192 
L 237.597507 86.461093 
L 249.858602 87.778152 
L 277.446067 90.996994 
L 286.641889 91.802939 
L 295.83771 92.333187 
L 301.968258 92.50016 
L 308.098806 92.498094 
L 314.229354 92.312444 
L 320.359901 91.930724 
L 326.490449 91.342633 
L 332.620997 90.540452 
L 338.751544 89.519713 
L 344.882092 88.280094 
L 351.01264 86.826433 
L 357.143188 85.16972 
L 363.273735 83.327897 
L 372.469557 80.27552 
L 384.730653 75.853602 
L 400.057022 70.263939 
L 409.252843 67.161139 
L 415.383391 65.284026 
L 421.513939 63.595272 
L 427.644487 62.112996 
L 433.775034 60.843213 
L 439.905582 59.779568 
L 446.03613 58.904002 
L 455.231952 57.879355 
L 467.493047 56.84992 
L 485.88469 55.351649 
L 495.080512 54.373248 
L 504.276333 53.162111 
L 513.472155 51.72603 
L 528.798524 49.02258 
L 541.05962 46.901628 
L 550.255441 45.56089 
L 556.385989 44.864927 
L 562.516537 44.369055 
L 568.647085 44.101113 
L 574.777632 44.08037 
L 580.90818 44.316845 
L 587.038728 44.811235 
L 593.169276 45.555419 
L 599.299823 46.533432 
L 605.430371 47.722825 
L 611.560919 49.096258 
L 620.75674 51.434254 
L 629.952562 54.009639 
L 648.344205 59.469267 
L 663.670575 63.957981 
L 675.93167 67.347397 
L 688.192766 70.517372 
L 703.519135 74.206088 
L 721.910778 78.375392 
L 737.237147 81.743352 
L 737.237147 81.743352 
" clip-path="url(#p374863eab0)" style="fill: none; stroke: #ffffff; stroke-width: 2; stroke-linecap: square"/>
   </g>
   <g id="line2d_8">
    <path d="M 127.247647 95.78 
L 737.237147 95.78 
" style="fill: none; stroke: #000000; stroke-linecap: square"/>
   </g>
   <g id="text_1">
    <g id="patch_3">
     <path d="M 25.905 105.200937 
L 67.15875 105.200937 
L 67.15875 86.359062 
L 25.905 86.359062 
z
" style="fill: #ffffff; opacity: 0.5"/>
    </g>
    <!-- Dining -->
    <g transform="translate(29.865 98.651562) scale(0.12 -0.12)">
     <defs>
      <path id="TimesNewRomanPSMT-44" d="M 109 0 
L 109 116 
L 269 116 
Q 538 116 650 288 
Q 719 391 719 750 
L 719 3488 
Q 719 3884 631 3984 
Q 509 4122 269 4122 
L 109 4122 
L 109 4238 
L 1834 4238 
Q 2784 4238 3279 4022 
Q 3775 3806 4076 3303 
Q 4378 2800 4378 2141 
Q 4378 1256 3841 663 
Q 3238 0 2003 0 
L 109 0 
z
M 1319 306 
Q 1716 219 1984 219 
Q 2709 219 3187 728 
Q 3666 1238 3666 2109 
Q 3666 2988 3187 3494 
Q 2709 4000 1959 4000 
Q 1678 4000 1319 3909 
L 1319 306 
z
" transform="scale(0.015625)"/>
      <path id="TimesNewRomanPSMT-69" d="M 928 4444 
Q 1059 4444 1151 4351 
Q 1244 4259 1244 4128 
Q 1244 3997 1151 3903 
Q 1059 3809 928 3809 
Q 797 3809 703 3903 
Q 609 3997 609 4128 
Q 609 4259 701 4351 
Q 794 4444 928 4444 
z
M 1188 2947 
L 1188 647 
Q 1188 378 1227 289 
Q 1266 200 1342 156 
Q 1419 113 1622 113 
L 1622 0 
L 231 0 
L 231 113 
Q 441 113 512 153 
Q 584 194 626 287 
Q 669 381 669 647 
L 669 1750 
Q 669 2216 641 2353 
Q 619 2453 572 2492 
Q 525 2531 444 2531 
Q 356 2531 231 2484 
L 188 2597 
L 1050 2947 
L 1188 2947 
z
" transform="scale(0.015625)"/>
      <path id="TimesNewRomanPSMT-6e" d="M 1034 2341 
Q 1538 2947 1994 2947 
Q 2228 2947 2397 2830 
Q 2566 2713 2666 2444 
Q 2734 2256 2734 1869 
L 2734 647 
Q 2734 375 2778 278 
Q 2813 200 2889 156 
Q 2966 113 3172 113 
L 3172 0 
L 1756 0 
L 1756 113 
L 1816 113 
Q 2016 113 2095 173 
Q 2175 234 2206 353 
Q 2219 400 2219 647 
L 2219 1819 
Q 2219 2209 2117 2386 
Q 2016 2563 1775 2563 
Q 1403 2563 1034 2156 
L 1034 647 
Q 1034 356 1069 288 
Q 1113 197 1189 155 
Q 1266 113 1500 113 
L 1500 0 
L 84 0 
L 84 113 
L 147 113 
Q 366 113 442 223 
Q 519 334 519 647 
L 519 1709 
Q 519 2225 495 2337 
Q 472 2450 423 2490 
Q 375 2531 294 2531 
Q 206 2531 84 2484 
L 38 2597 
L 900 2947 
L 1034 2947 
L 1034 2341 
z
" transform="scale(0.015625)"/>
      <path id="TimesNewRomanPSMT-67" d="M 966 1044 
Q 703 1172 562 1401 
Q 422 1631 422 1909 
Q 422 2334 742 2640 
Q 1063 2947 1563 2947 
Q 1972 2947 2272 2747 
L 2878 2747 
Q 3013 2747 3034 2739 
Q 3056 2731 3066 2713 
Q 3084 2684 3084 2613 
Q 3084 2531 3069 2500 
Q 3059 2484 3036 2475 
Q 3013 2466 2878 2466 
L 2506 2466 
Q 2681 2241 2681 1891 
Q 2681 1491 2375 1206 
Q 2069 922 1553 922 
Q 1341 922 1119 984 
Q 981 866 932 777 
Q 884 688 884 625 
Q 884 572 936 522 
Q 988 472 1138 450 
Q 1225 438 1575 428 
Q 2219 413 2409 384 
Q 2700 344 2873 169 
Q 3047 -6 3047 -263 
Q 3047 -616 2716 -925 
Q 2228 -1381 1444 -1381 
Q 841 -1381 425 -1109 
Q 191 -953 191 -784 
Q 191 -709 225 -634 
Q 278 -519 444 -313 
Q 466 -284 763 25 
Q 600 122 533 198 
Q 466 275 466 372 
Q 466 481 555 628 
Q 644 775 966 1044 
z
M 1509 2797 
Q 1278 2797 1122 2612 
Q 966 2428 966 2047 
Q 966 1553 1178 1281 
Q 1341 1075 1591 1075 
Q 1828 1075 1981 1253 
Q 2134 1431 2134 1813 
Q 2134 2309 1919 2591 
Q 1759 2797 1509 2797 
z
M 934 0 
Q 788 -159 713 -296 
Q 638 -434 638 -550 
Q 638 -700 819 -813 
Q 1131 -1006 1722 -1006 
Q 2284 -1006 2551 -807 
Q 2819 -609 2819 -384 
Q 2819 -222 2659 -153 
Q 2497 -84 2016 -72 
Q 1313 -53 934 0 
z
" transform="scale(0.015625)"/>
     </defs>
     <use xlink:href="#TimesNewRomanPSMT-44"/>
     <use xlink:href="#TimesNewRomanPSMT-69" transform="translate(72.216797 0)"/>
     <use xlink:href="#TimesNewRomanPSMT-6e" transform="translate(100 0)"/>
     <use xlink:href="#TimesNewRomanPSMT-69" transform="translate(150 0)"/>
     <use xlink:href="#TimesNewRomanPSMT-6e" transform="translate(177.783203 0)"/>
     <use xlink:href="#TimesNewRomanPSMT-67" transform="translate(227.783203 0)"/>
    </g>
   </g>
  </g>
  <g id="axes_2">
   <g id="patch_4">
    <path d="M 127.247647 133.11 
L 737.237147 133.11 
L 737.237147 58.45 
L 127.247647 58.45 
L 127.247647 133.11 
z
" style="fill: none; opacity: 0"/>
   </g>
   <g id="FillBetweenPolyCollection_2">
    <defs>
     <path id="m00450c5abe" d="M 127.247647 -128.767665 
L 127.247647 -79.145313 
L 130.312921 -79.145313 
L 133.378195 -79.145313 
L 136.443469 -79.145313 
L 139.508743 -79.145313 
L 142.574017 -79.145313 
L 145.639291 -79.145313 
L 148.704565 -79.145313 
L 151.769838 -79.145313 
L 154.835112 -79.145313 
L 157.900386 -79.145313 
L 160.96566 -79.145313 
L 164.030934 -79.145313 
L 167.096208 -79.145313 
L 170.161482 -79.145313 
L 173.226756 -79.145313 
L 176.292029 -79.145313 
L 179.357303 -79.145313 
L 182.422577 -79.145313 
L 185.487851 -79.145313 
L 188.553125 -79.145313 
L 191.618399 -79.145313 
L 194.683673 -79.145313 
L 197.748946 -79.145313 
L 200.81422 -79.145313 
L 203.879494 -79.145313 
L 206.944768 -79.145313 
L 210.010042 -79.145313 
L 213.075316 -79.145313 
L 216.14059 -79.145313 
L 219.205864 -79.145313 
L 222.271137 -79.145313 
L 225.336411 -79.145313 
L 228.401685 -79.145313 
L 231.466959 -79.145313 
L 234.532233 -79.145313 
L 237.597507 -79.145313 
L 240.662781 -79.145313 
L 243.728055 -79.145313 
L 246.793328 -79.145313 
L 249.858602 -79.145313 
L 252.923876 -79.145313 
L 255.98915 -79.145313 
L 259.054424 -79.145313 
L 262.119698 -79.145313 
L 265.184972 -79.145313 
L 268.250245 -79.145313 
L 271.315519 -79.145313 
L 274.380793 -79.145313 
L 277.446067 -79.145313 
L 280.511341 -79.145313 
L 283.576615 -79.145313 
L 286.641889 -79.145313 
L 289.707163 -79.145313 
L 292.772436 -79.145313 
L 295.83771 -79.145313 
L 298.902984 -79.145313 
L 301.968258 -79.145313 
L 305.033532 -79.145313 
L 308.098806 -79.145313 
L 311.16408 -79.145313 
L 314.229354 -79.145313 
L 317.294627 -79.145313 
L 320.359901 -79.145313 
L 323.425175 -79.145313 
L 326.490449 -79.145313 
L 329.555723 -79.145313 
L 332.620997 -79.145313 
L 335.686271 -79.145313 
L 338.751544 -79.145313 
L 341.816818 -79.145313 
L 344.882092 -79.145313 
L 347.947366 -79.145313 
L 351.01264 -79.145313 
L 354.077914 -79.145313 
L 357.143188 -79.145313 
L 360.208462 -79.145313 
L 363.273735 -79.145313 
L 366.339009 -79.145313 
L 369.404283 -79.145313 
L 372.469557 -79.145313 
L 375.534831 -79.145313 
L 378.600105 -79.145313 
L 381.665379 -79.145313 
L 384.730653 -79.145313 
L 387.795926 -79.145313 
L 390.8612 -79.145313 
L 393.926474 -79.145313 
L 396.991748 -79.145313 
L 400.057022 -79.145313 
L 403.122296 -79.145313 
L 406.18757 -79.145313 
L 409.252843 -79.145313 
L 412.318117 -79.145313 
L 415.383391 -79.145313 
L 418.448665 -79.145313 
L 421.513939 -79.145313 
L 424.579213 -79.145313 
L 427.644487 -79.145313 
L 430.709761 -79.145313 
L 433.775034 -79.145313 
L 436.840308 -79.145313 
L 439.905582 -79.145313 
L 442.970856 -79.145313 
L 446.03613 -79.145313 
L 449.101404 -79.145313 
L 452.166678 -79.145313 
L 455.231952 -79.145313 
L 458.297225 -79.145313 
L 461.362499 -79.145313 
L 464.427773 -79.145313 
L 467.493047 -79.145313 
L 470.558321 -79.145313 
L 473.623595 -79.145313 
L 476.688869 -79.145313 
L 479.754142 -79.145313 
L 482.819416 -79.145313 
L 485.88469 -79.145313 
L 488.949964 -79.145313 
L 492.015238 -79.145313 
L 495.080512 -79.145313 
L 498.145786 -79.145313 
L 501.21106 -79.145313 
L 504.276333 -79.145313 
L 507.341607 -79.145313 
L 510.406881 -79.145313 
L 513.472155 -79.145313 
L 516.537429 -79.145313 
L 519.602703 -79.145313 
L 522.667977 -79.145313 
L 525.733251 -79.145313 
L 528.798524 -79.145313 
L 531.863798 -79.145313 
L 534.929072 -79.145313 
L 537.994346 -79.145313 
L 541.05962 -79.145313 
L 544.124894 -79.145313 
L 547.190168 -79.145313 
L 550.255441 -79.145313 
L 553.320715 -79.145313 
L 556.385989 -79.145313 
L 559.451263 -79.145313 
L 562.516537 -79.145313 
L 565.581811 -79.145313 
L 568.647085 -79.145313 
L 571.712359 -79.145313 
L 574.777632 -79.145313 
L 577.842906 -79.145313 
L 580.90818 -79.145313 
L 583.973454 -79.145313 
L 587.038728 -79.145313 
L 590.104002 -79.145313 
L 593.169276 -79.145313 
L 596.23455 -79.145313 
L 599.299823 -79.145313 
L 602.365097 -79.145313 
L 605.430371 -79.145313 
L 608.495645 -79.145313 
L 611.560919 -79.145313 
L 614.626193 -79.145313 
L 617.691467 -79.145313 
L 620.75674 -79.145313 
L 623.822014 -79.145313 
L 626.887288 -79.145313 
L 629.952562 -79.145313 
L 633.017836 -79.145313 
L 636.08311 -79.145313 
L 639.148384 -79.145313 
L 642.213658 -79.145313 
L 645.278931 -79.145313 
L 648.344205 -79.145313 
L 651.409479 -79.145313 
L 654.474753 -79.145313 
L 657.540027 -79.145313 
L 660.605301 -79.145313 
L 663.670575 -79.145313 
L 666.735849 -79.145313 
L 669.801122 -79.145313 
L 672.866396 -79.145313 
L 675.93167 -79.145313 
L 678.996944 -79.145313 
L 682.062218 -79.145313 
L 685.127492 -79.145313 
L 688.192766 -79.145313 
L 691.258039 -79.145313 
L 694.323313 -79.145313 
L 697.388587 -79.145313 
L 700.453861 -79.145313 
L 703.519135 -79.145313 
L 706.584409 -79.145313 
L 709.649683 -79.145313 
L 712.714957 -79.145313 
L 715.78023 -79.145313 
L 718.845504 -79.145313 
L 721.910778 -79.145313 
L 724.976052 -79.145313 
L 728.041326 -79.145313 
L 731.1066 -79.145313 
L 734.171874 -79.145313 
L 737.237147 -79.145313 
L 737.237147 -85.228287 
L 737.237147 -85.228287 
L 734.171874 -85.47897 
L 731.1066 -85.729927 
L 728.041326 -85.980598 
L 724.976052 -86.230424 
L 721.910778 -86.478851 
L 718.845504 -86.725335 
L 715.78023 -86.969341 
L 712.714957 -87.210349 
L 709.649683 -87.447853 
L 706.584409 -87.681364 
L 703.519135 -87.910414 
L 700.453861 -88.134553 
L 697.388587 -88.353352 
L 694.323313 -88.566403 
L 691.258039 -88.77332 
L 688.192766 -88.973736 
L 685.127492 -89.167307 
L 682.062218 -89.353705 
L 678.996944 -89.532621 
L 675.93167 -89.703763 
L 672.866396 -89.866853 
L 669.801122 -90.021624 
L 666.735849 -90.167823 
L 663.670575 -90.305204 
L 660.605301 -90.433529 
L 657.540027 -90.552566 
L 654.474753 -90.662087 
L 651.409479 -90.761871 
L 648.344205 -90.851696 
L 645.278931 -90.931348 
L 642.213658 -91.000616 
L 639.148384 -91.059294 
L 636.08311 -91.107187 
L 633.017836 -91.144108 
L 629.952562 -91.169886 
L 626.887288 -91.184368 
L 623.822014 -91.187424 
L 620.75674 -91.178952 
L 617.691467 -91.158884 
L 614.626193 -91.127191 
L 611.560919 -91.083892 
L 608.495645 -91.029056 
L 605.430371 -90.962812 
L 602.365097 -90.885352 
L 599.299823 -90.796938 
L 596.23455 -90.697905 
L 593.169276 -90.58867 
L 590.104002 -90.469727 
L 587.038728 -90.341655 
L 583.973454 -90.205117 
L 580.90818 -90.060858 
L 577.842906 -89.909705 
L 574.777632 -89.75256 
L 571.712359 -89.590396 
L 568.647085 -89.424251 
L 565.581811 -89.255219 
L 562.516537 -89.084437 
L 559.451263 -88.913076 
L 556.385989 -88.74233 
L 553.320715 -88.573396 
L 550.255441 -88.407466 
L 547.190168 -88.245709 
L 544.124894 -88.089254 
L 541.05962 -87.939177 
L 537.994346 -87.796483 
L 534.929072 -87.662096 
L 531.863798 -87.536839 
L 528.798524 -87.421426 
L 525.733251 -87.31645 
L 522.667977 -87.222374 
L 519.602703 -87.139522 
L 516.537429 -87.068075 
L 513.472155 -87.008069 
L 510.406881 -86.959394 
L 507.341607 -86.921796 
L 504.276333 -86.894881 
L 501.21106 -86.878124 
L 498.145786 -86.870878 
L 495.080512 -86.872382 
L 492.015238 -86.881783 
L 488.949964 -86.898141 
L 485.88469 -86.920453 
L 482.819416 -86.94767 
L 479.754142 -86.978714 
L 476.688869 -87.012497 
L 473.623595 -87.047944 
L 470.558321 -87.084007 
L 467.493047 -87.119687 
L 464.427773 -87.15405 
L 461.362499 -87.186245 
L 458.297225 -87.215516 
L 455.231952 -87.241215 
L 452.166678 -87.262816 
L 449.101404 -87.27992 
L 446.03613 -87.292263 
L 442.970856 -87.299718 
L 439.905582 -87.302301 
L 436.840308 -87.300167 
L 433.775034 -87.293608 
L 430.709761 -87.283048 
L 427.644487 -87.269038 
L 424.579213 -87.252249 
L 421.513939 -87.233457 
L 418.448665 -87.213542 
L 415.383391 -87.193469 
L 412.318117 -87.17428 
L 409.252843 -87.157085 
L 406.18757 -87.143045 
L 403.122296 -87.133369 
L 400.057022 -87.129297 
L 396.991748 -87.132096 
L 393.926474 -87.143052 
L 390.8612 -87.163459 
L 387.795926 -87.194623 
L 384.730653 -87.237849 
L 381.665379 -87.294448 
L 378.600105 -87.365732 
L 375.534831 -87.453014 
L 372.469557 -87.557619 
L 369.404283 -87.680878 
L 366.339009 -87.824139 
L 363.273735 -87.988774 
L 360.208462 -88.17618 
L 357.143188 -88.38779 
L 354.077914 -88.625081 
L 351.01264 -88.889574 
L 347.947366 -89.182844 
L 344.882092 -89.506526 
L 341.816818 -89.862313 
L 338.751544 -90.251959 
L 335.686271 -90.677279 
L 332.620997 -91.140143 
L 329.555723 -91.642474 
L 326.490449 -92.186232 
L 323.425175 -92.773407 
L 320.359901 -93.405999 
L 317.294627 -94.086003 
L 314.229354 -94.81538 
L 311.16408 -95.596038 
L 308.098806 -96.429795 
L 305.033532 -97.318352 
L 301.968258 -98.263253 
L 298.902984 -99.26585 
L 295.83771 -100.327261 
L 292.772436 -101.44833 
L 289.707163 -102.62958 
L 286.641889 -103.871175 
L 283.576615 -105.172875 
L 280.511341 -106.533994 
L 277.446067 -107.953363 
L 274.380793 -109.42929 
L 271.315519 -110.95953 
L 268.250245 -112.541256 
L 265.184972 -114.171034 
L 262.119698 -115.844812 
L 259.054424 -117.557904 
L 255.98915 -119.30499 
L 252.923876 -121.080126 
L 249.858602 -122.876752 
L 246.793328 -124.687722 
L 243.728055 -126.505332 
L 240.662781 -128.321365 
L 237.597507 -130.127141 
L 234.532233 -131.913575 
L 231.466959 -133.67125 
L 228.401685 -135.390487 
L 225.336411 -137.061431 
L 222.271137 -138.674137 
L 219.205864 -140.218668 
L 216.14059 -141.685185 
L 213.075316 -143.064053 
L 210.010042 -144.345937 
L 206.944768 -145.521903 
L 203.879494 -146.583517 
L 200.81422 -147.522936 
L 197.748946 -148.333003 
L 194.683673 -149.007323 
L 191.618399 -149.540346 
L 188.553125 -149.927428 
L 185.487851 -150.164893 
L 182.422577 -150.250074 
L 179.357303 -150.181352 
L 176.292029 -149.958176 
L 173.226756 -149.581073 
L 170.161482 -149.051647 
L 167.096208 -148.372565 
L 164.030934 -147.547526 
L 160.96566 -146.581221 
L 157.900386 -145.479287 
L 154.835112 -144.248243 
L 151.769838 -142.895417 
L 148.704565 -141.428873 
L 145.639291 -139.857316 
L 142.574017 -138.190008 
L 139.508743 -136.436666 
L 136.443469 -134.607364 
L 133.378195 -132.712433 
L 130.312921 -130.762354 
L 127.247647 -128.767665 
z
" style="stroke: #50b131"/>
    </defs>
    <g clip-path="url(#pfb5761f194)">
     <use xlink:href="#m00450c5abe" x="0" y="212.255313" style="fill: #50b131; fill-opacity: 0.5; stroke: #50b131"/>
    </g>
   </g>
   <g id="matplotlib.axis_3">
    <g id="xtick_7">
     <g id="line2d_9">
      <g>
       <use xlink:href="#m8400f06f87" x="127.247647" y="133.11" style="stroke: #000000; stroke-width: 0.8"/>
      </g>
     </g>
    </g>
    <g id="xtick_8">
     <g id="line2d_10">
      <g>
       <use xlink:href="#m8400f06f87" x="249.245547" y="133.11" style="stroke: #000000; stroke-width: 0.8"/>
      </g>
     </g>
    </g>
    <g id="xtick_9">
     <g id="line2d_11">
      <g>
       <use xlink:href="#m8400f06f87" x="371.243448" y="133.11" style="stroke: #000000; stroke-width: 0.8"/>
      </g>
     </g>
    </g>
    <g id="xtick_10">
     <g id="line2d_12">
      <g>
       <use xlink:href="#m8400f06f87" x="493.241348" y="133.11" style="stroke: #000000; stroke-width: 0.8"/>
      </g>
     </g>
    </g>
    <g id="xtick_11">
     <g id="line2d_13">
      <g>
       <use xlink:href="#m8400f06f87" x="615.239248" y="133.11" style="stroke: #000000; stroke-width: 0.8"/>
      </g>
     </g>
    </g>
    <g id="xtick_12">
     <g id="line2d_14">
      <g>
       <use xlink:href="#m8400f06f87" x="737.237147" y="133.11" style="stroke: #000000; stroke-width: 0.8"/>
      </g>
     </g>
    </g>
   </g>
   <g id="matplotlib.axis_4"/>
   <g id="line2d_15">
    <path d="M 127.247647 83.487648 
L 133.378195 79.54288 
L 139.508743 75.818646 
L 145.639291 72.397997 
L 151.769838 69.359895 
L 154.835112 68.00707 
L 157.900386 66.776026 
L 160.96566 65.674092 
L 164.030934 64.707787 
L 167.096208 63.882747 
L 170.161482 63.203665 
L 173.226756 62.67424 
L 176.292029 62.297137 
L 179.357303 62.07396 
L 182.422577 62.005238 
L 185.487851 62.090419 
L 188.553125 62.327884 
L 191.618399 62.714967 
L 194.683673 63.24799 
L 197.748946 63.92231 
L 200.81422 64.732376 
L 203.879494 65.671796 
L 210.010042 67.909375 
L 216.14059 70.570127 
L 222.271137 73.581175 
L 228.401685 76.864825 
L 237.597507 82.128172 
L 259.054424 94.697409 
L 268.250245 99.714057 
L 274.380793 102.826022 
L 280.511341 105.721318 
L 286.641889 108.384138 
L 292.772436 110.806983 
L 298.902984 112.989463 
L 305.033532 114.936961 
L 311.16408 116.659275 
L 317.294627 118.16931 
L 323.425175 119.481906 
L 329.555723 120.612838 
L 335.686271 121.578034 
L 344.882092 122.748786 
L 354.077914 123.630232 
L 363.273735 124.266539 
L 372.469557 124.697694 
L 384.730653 125.017463 
L 400.057022 125.126016 
L 427.644487 124.986274 
L 449.101404 124.975392 
L 473.623595 125.207369 
L 498.145786 125.384435 
L 513.472155 125.247243 
L 525.733251 124.938862 
L 541.05962 124.316136 
L 562.516537 123.170876 
L 587.038728 121.913658 
L 602.365097 121.36996 
L 614.626193 121.128121 
L 626.887288 121.070944 
L 639.148384 121.196018 
L 654.474753 121.593225 
L 669.801122 122.233688 
L 685.127492 123.088005 
L 703.519135 124.344898 
L 728.041326 126.274714 
L 737.237147 127.027026 
L 737.237147 127.027026 
" clip-path="url(#pfb5761f194)" style="fill: none; stroke: #ffffff; stroke-width: 2; stroke-linecap: square"/>
   </g>
   <g id="line2d_16">
    <path d="M 127.247647 133.11 
L 737.237147 133.11 
" style="fill: none; stroke: #000000; stroke-linecap: square"/>
   </g>
   <g id="text_2">
    <g id="patch_5">
     <path d="M 15.915 142.530938 
L 67.15875 142.530938 
L 67.15875 123.689063 
L 15.915 123.689063 
z
" style="fill: #ffffff; opacity: 0.5"/>
    </g>
    <!-- Nightlife -->
    <g transform="translate(19.875 135.981562) scale(0.12 -0.12)">
     <defs>
      <path id="TimesNewRomanPSMT-4e" d="M -84 4238 
L 1066 4238 
L 3656 1059 
L 3656 3503 
Q 3656 3894 3569 3991 
Q 3453 4122 3203 4122 
L 3056 4122 
L 3056 4238 
L 4531 4238 
L 4531 4122 
L 4381 4122 
Q 4113 4122 4000 3959 
Q 3931 3859 3931 3503 
L 3931 -69 
L 3819 -69 
L 1025 3344 
L 1025 734 
Q 1025 344 1109 247 
Q 1228 116 1475 116 
L 1625 116 
L 1625 0 
L 150 0 
L 150 116 
L 297 116 
Q 569 116 681 278 
Q 750 378 750 734 
L 750 3681 
Q 566 3897 470 3965 
Q 375 4034 191 4094 
Q 100 4122 -84 4122 
L -84 4238 
z
" transform="scale(0.015625)"/>
      <path id="TimesNewRomanPSMT-68" d="M 1041 4444 
L 1041 2350 
Q 1388 2731 1591 2839 
Q 1794 2947 1997 2947 
Q 2241 2947 2416 2812 
Q 2591 2678 2675 2391 
Q 2734 2191 2734 1659 
L 2734 647 
Q 2734 375 2778 275 
Q 2809 200 2884 156 
Q 2959 113 3159 113 
L 3159 0 
L 1753 0 
L 1753 113 
L 1819 113 
Q 2019 113 2097 173 
Q 2175 234 2206 353 
Q 2216 403 2216 647 
L 2216 1659 
Q 2216 2128 2167 2275 
Q 2119 2422 2012 2495 
Q 1906 2569 1756 2569 
Q 1603 2569 1437 2487 
Q 1272 2406 1041 2159 
L 1041 647 
Q 1041 353 1073 281 
Q 1106 209 1195 161 
Q 1284 113 1503 113 
L 1503 0 
L 84 0 
L 84 113 
Q 275 113 384 172 
Q 447 203 484 290 
Q 522 378 522 647 
L 522 3238 
Q 522 3728 498 3840 
Q 475 3953 426 3993 
Q 378 4034 297 4034 
Q 231 4034 84 3984 
L 41 4094 
L 897 4444 
L 1041 4444 
z
" transform="scale(0.015625)"/>
      <path id="TimesNewRomanPSMT-74" d="M 1031 3803 
L 1031 2863 
L 1700 2863 
L 1700 2644 
L 1031 2644 
L 1031 788 
Q 1031 509 1111 412 
Q 1191 316 1316 316 
Q 1419 316 1516 380 
Q 1613 444 1666 569 
L 1788 569 
Q 1678 263 1478 108 
Q 1278 -47 1066 -47 
Q 922 -47 784 33 
Q 647 113 581 261 
Q 516 409 516 719 
L 516 2644 
L 63 2644 
L 63 2747 
Q 234 2816 414 2980 
Q 594 3144 734 3369 
Q 806 3488 934 3803 
L 1031 3803 
z
" transform="scale(0.015625)"/>
      <path id="TimesNewRomanPSMT-6c" d="M 1184 4444 
L 1184 647 
Q 1184 378 1223 290 
Q 1263 203 1344 158 
Q 1425 113 1647 113 
L 1647 0 
L 244 0 
L 244 113 
Q 441 113 512 153 
Q 584 194 625 287 
Q 666 381 666 647 
L 666 3247 
Q 666 3731 644 3842 
Q 622 3953 573 3993 
Q 525 4034 450 4034 
Q 369 4034 244 3984 
L 191 4094 
L 1044 4444 
L 1184 4444 
z
" transform="scale(0.015625)"/>
      <path id="TimesNewRomanPSMT-66" d="M 1319 2638 
L 1319 756 
Q 1319 356 1406 250 
Q 1522 113 1716 113 
L 1975 113 
L 1975 0 
L 266 0 
L 266 113 
L 394 113 
Q 519 113 622 175 
Q 725 238 764 344 
Q 803 450 803 756 
L 803 2638 
L 247 2638 
L 247 2863 
L 803 2863 
L 803 3050 
Q 803 3478 940 3775 
Q 1078 4072 1361 4255 
Q 1644 4438 1997 4438 
Q 2325 4438 2600 4225 
Q 2781 4084 2781 3909 
Q 2781 3816 2700 3733 
Q 2619 3650 2525 3650 
Q 2453 3650 2373 3701 
Q 2294 3753 2178 3923 
Q 2063 4094 1966 4153 
Q 1869 4213 1750 4213 
Q 1606 4213 1506 4136 
Q 1406 4059 1362 3898 
Q 1319 3738 1319 3069 
L 1319 2863 
L 2056 2863 
L 2056 2638 
L 1319 2638 
z
" transform="scale(0.015625)"/>
      <path id="TimesNewRomanPSMT-65" d="M 681 1784 
Q 678 1147 991 784 
Q 1303 422 1725 422 
Q 2006 422 2214 576 
Q 2422 731 2563 1106 
L 2659 1044 
Q 2594 616 2278 264 
Q 1963 -88 1488 -88 
Q 972 -88 605 314 
Q 238 716 238 1394 
Q 238 2128 614 2539 
Q 991 2950 1559 2950 
Q 2041 2950 2350 2633 
Q 2659 2316 2659 1784 
L 681 1784 
z
M 681 1966 
L 2006 1966 
Q 1991 2241 1941 2353 
Q 1863 2528 1708 2628 
Q 1553 2728 1384 2728 
Q 1125 2728 920 2526 
Q 716 2325 681 1966 
z
" transform="scale(0.015625)"/>
     </defs>
     <use xlink:href="#TimesNewRomanPSMT-4e"/>
     <use xlink:href="#TimesNewRomanPSMT-69" transform="translate(72.216797 0)"/>
     <use xlink:href="#TimesNewRomanPSMT-67" transform="translate(100 0)"/>
     <use xlink:href="#TimesNewRomanPSMT-68" transform="translate(150 0)"/>
     <use xlink:href="#TimesNewRomanPSMT-74" transform="translate(200 0)"/>
     <use xlink:href="#TimesNewRomanPSMT-6c" transform="translate(227.783203 0)"/>
     <use xlink:href="#TimesNewRomanPSMT-69" transform="translate(255.566406 0)"/>
     <use xlink:href="#TimesNewRomanPSMT-66" transform="translate(283.349609 0)"/>
     <use xlink:href="#TimesNewRomanPSMT-65" transform="translate(316.650391 0)"/>
    </g>
   </g>
  </g>
  <g id="axes_3">
   <g id="patch_6">
    <path d="M 127.247647 170.44 
L 737.237147 170.44 
L 737.237147 95.78 
L 127.247647 95.78 
L 127.247647 170.44 
z
" style="fill: none; opacity: 0"/>
   </g>
   <g id="FillBetweenPolyCollection_3">
    <defs>
     <path id="mac3a8df775" d="M 127.247647 -50.656436 
L 127.247647 -41.815313 
L 130.312921 -41.815313 
L 133.378195 -41.815313 
L 136.443469 -41.815313 
L 139.508743 -41.815313 
L 142.574017 -41.815313 
L 145.639291 -41.815313 
L 148.704565 -41.815313 
L 151.769838 -41.815313 
L 154.835112 -41.815313 
L 157.900386 -41.815313 
L 160.96566 -41.815313 
L 164.030934 -41.815313 
L 167.096208 -41.815313 
L 170.161482 -41.815313 
L 173.226756 -41.815313 
L 176.292029 -41.815313 
L 179.357303 -41.815313 
L 182.422577 -41.815313 
L 185.487851 -41.815313 
L 188.553125 -41.815313 
L 191.618399 -41.815313 
L 194.683673 -41.815313 
L 197.748946 -41.815313 
L 200.81422 -41.815313 
L 203.879494 -41.815313 
L 206.944768 -41.815313 
L 210.010042 -41.815313 
L 213.075316 -41.815313 
L 216.14059 -41.815313 
L 219.205864 -41.815313 
L 222.271137 -41.815313 
L 225.336411 -41.815313 
L 228.401685 -41.815313 
L 231.466959 -41.815313 
L 234.532233 -41.815313 
L 237.597507 -41.815313 
L 240.662781 -41.815313 
L 243.728055 -41.815313 
L 246.793328 -41.815313 
L 249.858602 -41.815313 
L 252.923876 -41.815313 
L 255.98915 -41.815313 
L 259.054424 -41.815313 
L 262.119698 -41.815313 
L 265.184972 -41.815313 
L 268.250245 -41.815313 
L 271.315519 -41.815313 
L 274.380793 -41.815313 
L 277.446067 -41.815313 
L 280.511341 -41.815313 
L 283.576615 -41.815313 
L 286.641889 -41.815313 
L 289.707163 -41.815313 
L 292.772436 -41.815313 
L 295.83771 -41.815313 
L 298.902984 -41.815313 
L 301.968258 -41.815313 
L 305.033532 -41.815313 
L 308.098806 -41.815313 
L 311.16408 -41.815313 
L 314.229354 -41.815313 
L 317.294627 -41.815313 
L 320.359901 -41.815313 
L 323.425175 -41.815313 
L 326.490449 -41.815313 
L 329.555723 -41.815313 
L 332.620997 -41.815313 
L 335.686271 -41.815313 
L 338.751544 -41.815313 
L 341.816818 -41.815313 
L 344.882092 -41.815313 
L 347.947366 -41.815313 
L 351.01264 -41.815313 
L 354.077914 -41.815313 
L 357.143188 -41.815313 
L 360.208462 -41.815313 
L 363.273735 -41.815313 
L 366.339009 -41.815313 
L 369.404283 -41.815313 
L 372.469557 -41.815313 
L 375.534831 -41.815313 
L 378.600105 -41.815313 
L 381.665379 -41.815313 
L 384.730653 -41.815313 
L 387.795926 -41.815313 
L 390.8612 -41.815313 
L 393.926474 -41.815313 
L 396.991748 -41.815313 
L 400.057022 -41.815313 
L 403.122296 -41.815313 
L 406.18757 -41.815313 
L 409.252843 -41.815313 
L 412.318117 -41.815313 
L 415.383391 -41.815313 
L 418.448665 -41.815313 
L 421.513939 -41.815313 
L 424.579213 -41.815313 
L 427.644487 -41.815313 
L 430.709761 -41.815313 
L 433.775034 -41.815313 
L 436.840308 -41.815313 
L 439.905582 -41.815313 
L 442.970856 -41.815313 
L 446.03613 -41.815313 
L 449.101404 -41.815313 
L 452.166678 -41.815313 
L 455.231952 -41.815313 
L 458.297225 -41.815313 
L 461.362499 -41.815313 
L 464.427773 -41.815313 
L 467.493047 -41.815313 
L 470.558321 -41.815313 
L 473.623595 -41.815313 
L 476.688869 -41.815313 
L 479.754142 -41.815313 
L 482.819416 -41.815313 
L 485.88469 -41.815313 
L 488.949964 -41.815313 
L 492.015238 -41.815313 
L 495.080512 -41.815313 
L 498.145786 -41.815313 
L 501.21106 -41.815313 
L 504.276333 -41.815313 
L 507.341607 -41.815313 
L 510.406881 -41.815313 
L 513.472155 -41.815313 
L 516.537429 -41.815313 
L 519.602703 -41.815313 
L 522.667977 -41.815313 
L 525.733251 -41.815313 
L 528.798524 -41.815313 
L 531.863798 -41.815313 
L 534.929072 -41.815313 
L 537.994346 -41.815313 
L 541.05962 -41.815313 
L 544.124894 -41.815313 
L 547.190168 -41.815313 
L 550.255441 -41.815313 
L 553.320715 -41.815313 
L 556.385989 -41.815313 
L 559.451263 -41.815313 
L 562.516537 -41.815313 
L 565.581811 -41.815313 
L 568.647085 -41.815313 
L 571.712359 -41.815313 
L 574.777632 -41.815313 
L 577.842906 -41.815313 
L 580.90818 -41.815313 
L 583.973454 -41.815313 
L 587.038728 -41.815313 
L 590.104002 -41.815313 
L 593.169276 -41.815313 
L 596.23455 -41.815313 
L 599.299823 -41.815313 
L 602.365097 -41.815313 
L 605.430371 -41.815313 
L 608.495645 -41.815313 
L 611.560919 -41.815313 
L 614.626193 -41.815313 
L 617.691467 -41.815313 
L 620.75674 -41.815313 
L 623.822014 -41.815313 
L 626.887288 -41.815313 
L 629.952562 -41.815313 
L 633.017836 -41.815313 
L 636.08311 -41.815313 
L 639.148384 -41.815313 
L 642.213658 -41.815313 
L 645.278931 -41.815313 
L 648.344205 -41.815313 
L 651.409479 -41.815313 
L 654.474753 -41.815313 
L 657.540027 -41.815313 
L 660.605301 -41.815313 
L 663.670575 -41.815313 
L 666.735849 -41.815313 
L 669.801122 -41.815313 
L 672.866396 -41.815313 
L 675.93167 -41.815313 
L 678.996944 -41.815313 
L 682.062218 -41.815313 
L 685.127492 -41.815313 
L 688.192766 -41.815313 
L 691.258039 -41.815313 
L 694.323313 -41.815313 
L 697.388587 -41.815313 
L 700.453861 -41.815313 
L 703.519135 -41.815313 
L 706.584409 -41.815313 
L 709.649683 -41.815313 
L 712.714957 -41.815313 
L 715.78023 -41.815313 
L 718.845504 -41.815313 
L 721.910778 -41.815313 
L 724.976052 -41.815313 
L 728.041326 -41.815313 
L 731.1066 -41.815313 
L 734.171874 -41.815313 
L 737.237147 -41.815313 
L 737.237147 -49.065303 
L 737.237147 -49.065303 
L 734.171874 -49.261792 
L 731.1066 -49.447632 
L 728.041326 -49.623222 
L 724.976052 -49.789132 
L 721.910778 -49.946066 
L 718.845504 -50.094828 
L 715.78023 -50.236279 
L 712.714957 -50.371293 
L 709.649683 -50.500715 
L 706.584409 -50.625323 
L 703.519135 -50.745783 
L 700.453861 -50.862623 
L 697.388587 -50.976203 
L 694.323313 -51.086699 
L 691.258039 -51.194092 
L 688.192766 -51.298165 
L 685.127492 -51.398511 
L 682.062218 -51.494551 
L 678.996944 -51.585556 
L 675.93167 -51.670679 
L 672.866396 -51.748989 
L 669.801122 -51.819513 
L 666.735849 -51.881279 
L 663.670575 -51.93336 
L 660.605301 -51.974913 
L 657.540027 -52.005222 
L 654.474753 -52.023729 
L 651.409479 -52.030067 
L 648.344205 -52.02408 
L 645.278931 -52.005837 
L 642.213658 -51.975639 
L 639.148384 -51.934019 
L 636.08311 -51.88173 
L 633.017836 -51.819729 
L 629.952562 -51.749156 
L 626.887288 -51.671302 
L 623.822014 -51.587579 
L 620.75674 -51.499485 
L 617.691467 -51.408567 
L 614.626193 -51.316387 
L 611.560919 -51.224488 
L 608.495645 -51.134362 
L 605.430371 -51.047429 
L 602.365097 -50.96501 
L 599.299823 -50.888315 
L 596.23455 -50.818436 
L 593.169276 -50.756342 
L 590.104002 -50.702886 
L 587.038728 -50.658811 
L 583.973454 -50.624773 
L 580.90818 -50.601353 
L 577.842906 -50.589088 
L 574.777632 -50.588498 
L 571.712359 -50.600114 
L 568.647085 -50.624509 
L 565.581811 -50.662333 
L 562.516537 -50.714342 
L 559.451263 -50.781427 
L 556.385989 -50.864643 
L 553.320715 -50.965233 
L 550.255441 -51.084649 
L 547.190168 -51.224569 
L 544.124894 -51.386911 
L 541.05962 -51.57384 
L 537.994346 -51.787771 
L 534.929072 -52.031364 
L 531.863798 -52.307519 
L 528.798524 -52.619357 
L 525.733251 -52.970199 
L 522.667977 -53.363538 
L 519.602703 -53.803001 
L 516.537429 -54.292307 
L 513.472155 -54.835215 
L 510.406881 -55.435468 
L 507.341607 -56.096723 
L 504.276333 -56.822486 
L 501.21106 -57.616026 
L 498.145786 -58.4803 
L 495.080512 -59.417861 
L 492.015238 -60.430769 
L 488.949964 -61.520504 
L 485.88469 -62.687876 
L 482.819416 -63.932939 
L 479.754142 -65.254912 
L 476.688869 -66.652109 
L 473.623595 -68.121875 
L 470.558321 -69.660542 
L 467.493047 -71.263393 
L 464.427773 -72.924648 
L 461.362499 -74.637467 
L 458.297225 -76.393974 
L 455.231952 -78.185299 
L 452.166678 -80.001647 
L 449.101404 -81.832387 
L 446.03613 -83.666153 
L 442.970856 -85.490978 
L 439.905582 -87.294438 
L 436.840308 -89.063806 
L 433.775034 -90.786231 
L 430.709761 -92.448915 
L 427.644487 -94.039297 
L 424.579213 -95.545244 
L 421.513939 -96.955233 
L 418.448665 -98.25853 
L 415.383391 -99.445354 
L 412.318117 -100.507033 
L 409.252843 -101.436137 
L 406.18757 -102.22659 
L 403.122296 -102.873762 
L 400.057022 -103.374531 
L 396.991748 -103.727321 
L 393.926474 -103.932111 
L 390.8612 -103.990414 
L 387.795926 -103.90523 
L 384.730653 -103.680974 
L 381.665379 -103.323379 
L 378.600105 -102.839372 
L 375.534831 -102.236937 
L 372.469557 -101.524962 
L 369.404283 -100.71307 
L 366.339009 -99.811444 
L 363.273735 -98.830654 
L 360.208462 -97.781471 
L 357.143188 -96.674704 
L 354.077914 -95.521031 
L 351.01264 -94.330847 
L 347.947366 -93.114134 
L 344.882092 -91.880338 
L 341.816818 -90.638277 
L 338.751544 -89.396064 
L 335.686271 -88.161054 
L 332.620997 -86.939818 
L 329.555723 -85.738131 
L 326.490449 -84.560988 
L 323.425175 -83.412635 
L 320.359901 -82.296614 
L 317.294627 -81.215824 
L 314.229354 -80.172591 
L 311.16408 -79.168742 
L 308.098806 -78.205682 
L 305.033532 -77.28447 
L 301.968258 -76.40589 
L 298.902984 -75.570513 
L 295.83771 -74.778751 
L 292.772436 -74.030897 
L 289.707163 -73.32715 
L 286.641889 -72.667631 
L 283.576615 -72.052378 
L 280.511341 -71.481333 
L 277.446067 -70.954315 
L 274.380793 -70.470983 
L 271.315519 -70.030793 
L 268.250245 -69.632951 
L 265.184972 -69.276361 
L 262.119698 -68.959582 
L 259.054424 -68.680782 
L 255.98915 -68.43771 
L 252.923876 -68.227669 
L 249.858602 -68.047512 
L 246.793328 -67.893641 
L 243.728055 -67.762034 
L 240.662781 -67.648281 
L 237.597507 -67.547632 
L 234.532233 -67.455071 
L 231.466959 -67.365392 
L 228.401685 -67.273287 
L 225.336411 -67.173448 
L 222.271137 -67.060665 
L 219.205864 -66.929932 
L 216.14059 -66.776547 
L 213.075316 -66.596204 
L 210.010042 -66.385087 
L 206.944768 -66.13994 
L 203.879494 -65.858129 
L 200.81422 -65.537693 
L 197.748946 -65.177368 
L 194.683673 -64.776605 
L 191.618399 -64.335561 
L 188.553125 -63.855077 
L 185.487851 -63.336647 
L 182.422577 -62.782357 
L 179.357303 -62.194831 
L 176.292029 -61.57715 
L 173.226756 -60.932778 
L 170.161482 -60.265472 
L 167.096208 -59.579199 
L 164.030934 -58.878051 
L 160.96566 -58.166156 
L 157.900386 -57.447608 
L 154.835112 -56.726392 
L 151.769838 -56.006323 
L 148.704565 -55.290994 
L 145.639291 -54.58373 
L 142.574017 -53.887564 
L 139.508743 -53.205204 
L 136.443469 -52.53903 
L 133.378195 -51.891088 
L 130.312921 -51.263091 
L 127.247647 -50.656436 
z
" style="stroke: #3ba3ec"/>
    </defs>
    <g clip-path="url(#p0c13fe06a7)">
     <use xlink:href="#mac3a8df775" x="0" y="212.255313" style="fill: #3ba3ec; fill-opacity: 0.5; stroke: #3ba3ec"/>
    </g>
   </g>
   <g id="matplotlib.axis_5">
    <g id="xtick_13">
     <g id="line2d_17">
      <g>
       <use xlink:href="#m8400f06f87" x="127.247647" y="170.44" style="stroke: #000000; stroke-width: 0.8"/>
      </g>
     </g>
     <g id="text_3">
      <!-- 0 -->
      <g transform="translate(124.247647 185.7725) scale(0.12 -0.12)">
       <defs>
        <path id="TimesNewRomanPSMT-30" d="M 231 2094 
Q 231 2819 450 3342 
Q 669 3866 1031 4122 
Q 1313 4325 1613 4325 
Q 2100 4325 2488 3828 
Q 2972 3213 2972 2159 
Q 2972 1422 2759 906 
Q 2547 391 2217 158 
Q 1888 -75 1581 -75 
Q 975 -75 572 641 
Q 231 1244 231 2094 
z
M 844 2016 
Q 844 1141 1059 588 
Q 1238 122 1591 122 
Q 1759 122 1940 273 
Q 2122 425 2216 781 
Q 2359 1319 2359 2297 
Q 2359 3022 2209 3506 
Q 2097 3866 1919 4016 
Q 1791 4119 1609 4119 
Q 1397 4119 1231 3928 
Q 1006 3669 925 3112 
Q 844 2556 844 2016 
z
" transform="scale(0.015625)"/>
       </defs>
       <use xlink:href="#TimesNewRomanPSMT-30"/>
      </g>
     </g>
    </g>
    <g id="xtick_14">
     <g id="line2d_18">
      <g>
       <use xlink:href="#m8400f06f87" x="249.245547" y="170.44" style="stroke: #000000; stroke-width: 0.8"/>
      </g>
     </g>
     <g id="text_4">
      <!-- 2000 -->
      <g transform="translate(237.245547 185.7725) scale(0.12 -0.12)">
       <defs>
        <path id="TimesNewRomanPSMT-32" d="M 2934 816 
L 2638 0 
L 138 0 
L 138 116 
Q 1241 1122 1691 1759 
Q 2141 2397 2141 2925 
Q 2141 3328 1894 3587 
Q 1647 3847 1303 3847 
Q 991 3847 742 3664 
Q 494 3481 375 3128 
L 259 3128 
Q 338 3706 661 4015 
Q 984 4325 1469 4325 
Q 1984 4325 2329 3994 
Q 2675 3663 2675 3213 
Q 2675 2891 2525 2569 
Q 2294 2063 1775 1497 
Q 997 647 803 472 
L 1909 472 
Q 2247 472 2383 497 
Q 2519 522 2628 598 
Q 2738 675 2819 816 
L 2934 816 
z
" transform="scale(0.015625)"/>
       </defs>
       <use xlink:href="#TimesNewRomanPSMT-32"/>
       <use xlink:href="#TimesNewRomanPSMT-30" transform="translate(50 0)"/>
       <use xlink:href="#TimesNewRomanPSMT-30" transform="translate(100 0)"/>
       <use xlink:href="#TimesNewRomanPSMT-30" transform="translate(150 0)"/>
      </g>
     </g>
    </g>
    <g id="xtick_15">
     <g id="line2d_19">
      <g>
       <use xlink:href="#m8400f06f87" x="371.243448" y="170.44" style="stroke: #000000; stroke-width: 0.8"/>
      </g>
     </g>
     <g id="text_5">
      <!-- 4000 -->
      <g transform="translate(359.243448 185.7725) scale(0.12 -0.12)">
       <defs>
        <path id="TimesNewRomanPSMT-34" d="M 2978 1563 
L 2978 1119 
L 2409 1119 
L 2409 0 
L 1894 0 
L 1894 1119 
L 100 1119 
L 100 1519 
L 2066 4325 
L 2409 4325 
L 2409 1563 
L 2978 1563 
z
M 1894 1563 
L 1894 3666 
L 406 1563 
L 1894 1563 
z
" transform="scale(0.015625)"/>
       </defs>
       <use xlink:href="#TimesNewRomanPSMT-34"/>
       <use xlink:href="#TimesNewRomanPSMT-30" transform="translate(50 0)"/>
       <use xlink:href="#TimesNewRomanPSMT-30" transform="translate(100 0)"/>
       <use xlink:href="#TimesNewRomanPSMT-30" transform="translate(150 0)"/>
      </g>
     </g>
    </g>
    <g id="xtick_16">
     <g id="line2d_20">
      <g>
       <use xlink:href="#m8400f06f87" x="493.241348" y="170.44" style="stroke: #000000; stroke-width: 0.8"/>
      </g>
     </g>
     <g id="text_6">
      <!-- 6000 -->
      <g transform="translate(481.241348 185.7725) scale(0.12 -0.12)">
       <defs>
        <path id="TimesNewRomanPSMT-36" d="M 2869 4325 
L 2869 4209 
Q 2456 4169 2195 4045 
Q 1934 3922 1679 3669 
Q 1425 3416 1258 3105 
Q 1091 2794 978 2366 
Q 1428 2675 1881 2675 
Q 2316 2675 2634 2325 
Q 2953 1975 2953 1425 
Q 2953 894 2631 456 
Q 2244 -75 1606 -75 
Q 1172 -75 869 213 
Q 275 772 275 1663 
Q 275 2231 503 2743 
Q 731 3256 1154 3653 
Q 1578 4050 1965 4187 
Q 2353 4325 2688 4325 
L 2869 4325 
z
M 925 2138 
Q 869 1716 869 1456 
Q 869 1156 980 804 
Q 1091 453 1309 247 
Q 1469 100 1697 100 
Q 1969 100 2183 356 
Q 2397 613 2397 1088 
Q 2397 1622 2184 2012 
Q 1972 2403 1581 2403 
Q 1463 2403 1327 2353 
Q 1191 2303 925 2138 
z
" transform="scale(0.015625)"/>
       </defs>
       <use xlink:href="#TimesNewRomanPSMT-36"/>
       <use xlink:href="#TimesNewRomanPSMT-30" transform="translate(50 0)"/>
       <use xlink:href="#TimesNewRomanPSMT-30" transform="translate(100 0)"/>
       <use xlink:href="#TimesNewRomanPSMT-30" transform="translate(150 0)"/>
      </g>
     </g>
    </g>
    <g id="xtick_17">
     <g id="line2d_21">
      <g>
       <use xlink:href="#m8400f06f87" x="615.239248" y="170.44" style="stroke: #000000; stroke-width: 0.8"/>
      </g>
     </g>
     <g id="text_7">
      <!-- 8000 -->
      <g transform="translate(603.239248 185.7725) scale(0.12 -0.12)">
       <defs>
        <path id="TimesNewRomanPSMT-38" d="M 1228 2134 
Q 725 2547 579 2797 
Q 434 3047 434 3316 
Q 434 3728 753 4026 
Q 1072 4325 1600 4325 
Q 2113 4325 2425 4047 
Q 2738 3769 2738 3413 
Q 2738 3175 2569 2928 
Q 2400 2681 1866 2347 
Q 2416 1922 2594 1678 
Q 2831 1359 2831 1006 
Q 2831 559 2490 242 
Q 2150 -75 1597 -75 
Q 994 -75 656 303 
Q 388 606 388 966 
Q 388 1247 577 1523 
Q 766 1800 1228 2134 
z
M 1719 2469 
Q 2094 2806 2194 3001 
Q 2294 3197 2294 3444 
Q 2294 3772 2109 3958 
Q 1925 4144 1606 4144 
Q 1288 4144 1088 3959 
Q 888 3775 888 3528 
Q 888 3366 970 3203 
Q 1053 3041 1206 2894 
L 1719 2469 
z
M 1375 2016 
Q 1116 1797 991 1539 
Q 866 1281 866 981 
Q 866 578 1086 336 
Q 1306 94 1647 94 
Q 1984 94 2187 284 
Q 2391 475 2391 747 
Q 2391 972 2272 1150 
Q 2050 1481 1375 2016 
z
" transform="scale(0.015625)"/>
       </defs>
       <use xlink:href="#TimesNewRomanPSMT-38"/>
       <use xlink:href="#TimesNewRomanPSMT-30" transform="translate(50 0)"/>
       <use xlink:href="#TimesNewRomanPSMT-30" transform="translate(100 0)"/>
       <use xlink:href="#TimesNewRomanPSMT-30" transform="translate(150 0)"/>
      </g>
     </g>
    </g>
    <g id="xtick_18">
     <g id="line2d_22">
      <g>
       <use xlink:href="#m8400f06f87" x="737.237147" y="170.44" style="stroke: #000000; stroke-width: 0.8"/>
      </g>
     </g>
     <g id="text_8">
      <!-- 10000 -->
      <g transform="translate(722.237147 185.7725) scale(0.12 -0.12)">
       <defs>
        <path id="TimesNewRomanPSMT-31" d="M 750 3822 
L 1781 4325 
L 1884 4325 
L 1884 747 
Q 1884 391 1914 303 
Q 1944 216 2037 169 
Q 2131 122 2419 116 
L 2419 0 
L 825 0 
L 825 116 
Q 1125 122 1212 167 
Q 1300 213 1334 289 
Q 1369 366 1369 747 
L 1369 3034 
Q 1369 3497 1338 3628 
Q 1316 3728 1258 3775 
Q 1200 3822 1119 3822 
Q 1003 3822 797 3725 
L 750 3822 
z
" transform="scale(0.015625)"/>
       </defs>
       <use xlink:href="#TimesNewRomanPSMT-31"/>
       <use xlink:href="#TimesNewRomanPSMT-30" transform="translate(50 0)"/>
       <use xlink:href="#TimesNewRomanPSMT-30" transform="translate(100 0)"/>
       <use xlink:href="#TimesNewRomanPSMT-30" transform="translate(150 0)"/>
       <use xlink:href="#TimesNewRomanPSMT-30" transform="translate(200 0)"/>
      </g>
     </g>
    </g>
    <g id="text_9">
     <!-- Value -->
     <g transform="translate(416.30646 202.060625) scale(0.14 -0.14)">
      <defs>
       <path id="TimesNewRomanPSMT-56" d="M 4544 4238 
L 4544 4122 
Q 4319 4081 4203 3978 
Q 4038 3825 3909 3509 
L 2431 -97 
L 2316 -97 
L 728 3556 
Q 606 3838 556 3900 
Q 478 3997 364 4051 
Q 250 4106 56 4122 
L 56 4238 
L 1788 4238 
L 1788 4122 
Q 1494 4094 1406 4022 
Q 1319 3950 1319 3838 
Q 1319 3681 1463 3350 
L 2541 866 
L 3541 3319 
Q 3688 3681 3688 3822 
Q 3688 3913 3597 3995 
Q 3506 4078 3291 4113 
Q 3275 4116 3238 4122 
L 3238 4238 
L 4544 4238 
z
" transform="scale(0.015625)"/>
       <path id="TimesNewRomanPSMT-61" d="M 1822 413 
Q 1381 72 1269 19 
Q 1100 -59 909 -59 
Q 613 -59 420 144 
Q 228 347 228 678 
Q 228 888 322 1041 
Q 450 1253 767 1440 
Q 1084 1628 1822 1897 
L 1822 2009 
Q 1822 2438 1686 2597 
Q 1550 2756 1291 2756 
Q 1094 2756 978 2650 
Q 859 2544 859 2406 
L 866 2225 
Q 866 2081 792 2003 
Q 719 1925 600 1925 
Q 484 1925 411 2006 
Q 338 2088 338 2228 
Q 338 2497 613 2722 
Q 888 2947 1384 2947 
Q 1766 2947 2009 2819 
Q 2194 2722 2281 2516 
Q 2338 2381 2338 1966 
L 2338 994 
Q 2338 584 2353 492 
Q 2369 400 2405 369 
Q 2441 338 2488 338 
Q 2538 338 2575 359 
Q 2641 400 2828 588 
L 2828 413 
Q 2478 -56 2159 -56 
Q 2006 -56 1915 50 
Q 1825 156 1822 413 
z
M 1822 616 
L 1822 1706 
Q 1350 1519 1213 1441 
Q 966 1303 859 1153 
Q 753 1003 753 825 
Q 753 600 887 451 
Q 1022 303 1197 303 
Q 1434 303 1822 616 
z
" transform="scale(0.015625)"/>
       <path id="TimesNewRomanPSMT-75" d="M 2709 2863 
L 2709 1128 
Q 2709 631 2732 520 
Q 2756 409 2807 365 
Q 2859 322 2928 322 
Q 3025 322 3147 375 
L 3191 266 
L 2334 -88 
L 2194 -88 
L 2194 519 
Q 1825 119 1631 15 
Q 1438 -88 1222 -88 
Q 981 -88 804 51 
Q 628 191 559 409 
Q 491 628 491 1028 
L 491 2306 
Q 491 2509 447 2587 
Q 403 2666 317 2708 
Q 231 2750 6 2747 
L 6 2863 
L 1009 2863 
L 1009 947 
Q 1009 547 1148 422 
Q 1288 297 1484 297 
Q 1619 297 1789 381 
Q 1959 466 2194 703 
L 2194 2325 
Q 2194 2569 2105 2655 
Q 2016 2741 1734 2747 
L 1734 2863 
L 2709 2863 
z
" transform="scale(0.015625)"/>
      </defs>
      <use xlink:href="#TimesNewRomanPSMT-56"/>
      <use xlink:href="#TimesNewRomanPSMT-61" transform="translate(61.091797 0)"/>
      <use xlink:href="#TimesNewRomanPSMT-6c" transform="translate(105.476562 0)"/>
      <use xlink:href="#TimesNewRomanPSMT-75" transform="translate(133.259766 0)"/>
      <use xlink:href="#TimesNewRomanPSMT-65" transform="translate(183.259766 0)"/>
     </g>
    </g>
   </g>
   <g id="matplotlib.axis_6"/>
   <g id="line2d_23">
    <path d="M 127.247647 161.598876 
L 136.443469 159.716282 
L 148.704565 156.964319 
L 173.226756 151.322535 
L 182.422577 149.472955 
L 191.618399 147.919752 
L 197.748946 147.077944 
L 203.879494 146.397183 
L 213.075316 145.659108 
L 222.271137 145.194647 
L 252.923876 144.027643 
L 262.119698 143.295731 
L 268.250245 142.622361 
L 274.380793 141.78433 
L 280.511341 140.77398 
L 286.641889 139.587682 
L 292.772436 138.224416 
L 298.902984 136.6848 
L 305.033532 134.970843 
L 311.16408 133.086571 
L 320.359901 129.958699 
L 329.555723 126.517182 
L 341.816818 121.617035 
L 354.077914 116.734282 
L 360.208462 114.473841 
L 366.339009 112.443868 
L 372.469557 110.730351 
L 378.600105 109.415941 
L 381.665379 108.931933 
L 384.730653 108.574338 
L 387.795926 108.350083 
L 390.8612 108.264899 
L 393.926474 108.323201 
L 396.991748 108.527991 
L 400.057022 108.880781 
L 403.122296 109.381551 
L 406.18757 110.028723 
L 409.252843 110.819176 
L 412.318117 111.74828 
L 415.383391 112.809959 
L 421.513939 115.300079 
L 427.644487 118.216016 
L 433.775034 121.469081 
L 439.905582 124.960875 
L 464.427773 139.330664 
L 470.558321 142.59477 
L 476.688869 145.603204 
L 482.819416 148.322374 
L 488.949964 150.734809 
L 495.080512 152.837452 
L 501.21106 154.639286 
L 507.341607 156.158589 
L 513.472155 157.420098 
L 519.602703 158.452312 
L 525.733251 159.285113 
L 531.863798 159.947793 
L 541.05962 160.681472 
L 550.255441 161.170663 
L 562.516537 161.540971 
L 574.777632 161.666814 
L 587.038728 161.596501 
L 602.365097 161.290303 
L 642.213658 160.279673 
L 654.474753 160.231584 
L 666.735849 160.374033 
L 682.062218 160.760761 
L 706.584409 161.62999 
L 724.976052 162.46618 
L 737.237147 163.190009 
L 737.237147 163.190009 
" clip-path="url(#p0c13fe06a7)" style="fill: none; stroke: #ffffff; stroke-width: 2; stroke-linecap: square"/>
   </g>
   <g id="line2d_24">
    <path d="M 127.247647 170.44 
L 737.237147 170.44 
" style="fill: none; stroke: #000000; stroke-linecap: square"/>
   </g>
   <g id="text_10">
    <g id="patch_7">
     <path d="M 3.24 179.860938 
L 67.15875 179.860938 
L 67.15875 161.019062 
L 3.24 161.019062 
z
" style="fill: #ffffff; opacity: 0.5"/>
    </g>
    <!-- Sightseeing -->
    <g transform="translate(7.2 173.311562) scale(0.12 -0.12)">
     <defs>
      <path id="TimesNewRomanPSMT-53" d="M 2934 4334 
L 2934 2869 
L 2819 2869 
Q 2763 3291 2617 3541 
Q 2472 3791 2203 3937 
Q 1934 4084 1647 4084 
Q 1322 4084 1109 3886 
Q 897 3688 897 3434 
Q 897 3241 1031 3081 
Q 1225 2847 1953 2456 
Q 2547 2138 2764 1967 
Q 2981 1797 3098 1565 
Q 3216 1334 3216 1081 
Q 3216 600 2842 251 
Q 2469 -97 1881 -97 
Q 1697 -97 1534 -69 
Q 1438 -53 1133 45 
Q 828 144 747 144 
Q 669 144 623 97 
Q 578 50 556 -97 
L 441 -97 
L 441 1356 
L 556 1356 
Q 638 900 775 673 
Q 913 447 1195 297 
Q 1478 147 1816 147 
Q 2206 147 2432 353 
Q 2659 559 2659 841 
Q 2659 997 2573 1156 
Q 2488 1316 2306 1453 
Q 2184 1547 1640 1851 
Q 1097 2156 867 2337 
Q 638 2519 519 2737 
Q 400 2956 400 3219 
Q 400 3675 750 4004 
Q 1100 4334 1641 4334 
Q 1978 4334 2356 4169 
Q 2531 4091 2603 4091 
Q 2684 4091 2736 4139 
Q 2788 4188 2819 4334 
L 2934 4334 
z
" transform="scale(0.015625)"/>
      <path id="TimesNewRomanPSMT-73" d="M 2050 2947 
L 2050 1972 
L 1947 1972 
Q 1828 2431 1642 2597 
Q 1456 2763 1169 2763 
Q 950 2763 815 2647 
Q 681 2531 681 2391 
Q 681 2216 781 2091 
Q 878 1963 1175 1819 
L 1631 1597 
Q 2266 1288 2266 781 
Q 2266 391 1970 151 
Q 1675 -88 1309 -88 
Q 1047 -88 709 6 
Q 606 38 541 38 
Q 469 38 428 -44 
L 325 -44 
L 325 978 
L 428 978 
Q 516 541 762 319 
Q 1009 97 1316 97 
Q 1531 97 1667 223 
Q 1803 350 1803 528 
Q 1803 744 1651 891 
Q 1500 1038 1047 1263 
Q 594 1488 453 1669 
Q 313 1847 313 2119 
Q 313 2472 555 2709 
Q 797 2947 1181 2947 
Q 1350 2947 1591 2875 
Q 1750 2828 1803 2828 
Q 1853 2828 1881 2850 
Q 1909 2872 1947 2947 
L 2050 2947 
z
" transform="scale(0.015625)"/>
     </defs>
     <use xlink:href="#TimesNewRomanPSMT-53"/>
     <use xlink:href="#TimesNewRomanPSMT-69" transform="translate(55.615234 0)"/>
     <use xlink:href="#TimesNewRomanPSMT-67" transform="translate(83.398438 0)"/>
     <use xlink:href="#TimesNewRomanPSMT-68" transform="translate(133.398438 0)"/>
     <use xlink:href="#TimesNewRomanPSMT-74" transform="translate(183.398438 0)"/>
     <use xlink:href="#TimesNewRomanPSMT-73" transform="translate(211.181641 0)"/>
     <use xlink:href="#TimesNewRomanPSMT-65" transform="translate(250.097656 0)"/>
     <use xlink:href="#TimesNewRomanPSMT-65" transform="translate(294.482422 0)"/>
     <use xlink:href="#TimesNewRomanPSMT-69" transform="translate(338.867188 0)"/>
     <use xlink:href="#TimesNewRomanPSMT-6e" transform="translate(366.650391 0)"/>
     <use xlink:href="#TimesNewRomanPSMT-67" transform="translate(416.650391 0)"/>
    </g>
   </g>
  </g>
  <g id="text_11">
   <!-- Tourism Spending(USD) -->
   <g transform="translate(307.934647 18.31) scale(0.16 -0.16)">
    <defs>
     <path id="TimesNewRomanPSMT-54" d="M 3703 4238 
L 3750 3244 
L 3631 3244 
Q 3597 3506 3538 3619 
Q 3441 3800 3280 3886 
Q 3119 3972 2856 3972 
L 2259 3972 
L 2259 734 
Q 2259 344 2344 247 
Q 2463 116 2709 116 
L 2856 116 
L 2856 0 
L 1059 0 
L 1059 116 
L 1209 116 
Q 1478 116 1591 278 
Q 1659 378 1659 734 
L 1659 3972 
L 1150 3972 
Q 853 3972 728 3928 
Q 566 3869 450 3700 
Q 334 3531 313 3244 
L 194 3244 
L 244 4238 
L 3703 4238 
z
" transform="scale(0.015625)"/>
     <path id="TimesNewRomanPSMT-6f" d="M 1600 2947 
Q 2250 2947 2644 2453 
Q 2978 2031 2978 1484 
Q 2978 1100 2793 706 
Q 2609 313 2286 112 
Q 1963 -88 1566 -88 
Q 919 -88 538 428 
Q 216 863 216 1403 
Q 216 1797 411 2186 
Q 606 2575 925 2761 
Q 1244 2947 1600 2947 
z
M 1503 2744 
Q 1338 2744 1170 2645 
Q 1003 2547 900 2300 
Q 797 2053 797 1666 
Q 797 1041 1045 587 
Q 1294 134 1700 134 
Q 2003 134 2200 384 
Q 2397 634 2397 1244 
Q 2397 2006 2069 2444 
Q 1847 2744 1503 2744 
z
" transform="scale(0.015625)"/>
     <path id="TimesNewRomanPSMT-72" d="M 1038 2947 
L 1038 2303 
Q 1397 2947 1775 2947 
Q 1947 2947 2059 2842 
Q 2172 2738 2172 2600 
Q 2172 2478 2090 2393 
Q 2009 2309 1897 2309 
Q 1788 2309 1652 2417 
Q 1516 2525 1450 2525 
Q 1394 2525 1328 2463 
Q 1188 2334 1038 2041 
L 1038 669 
Q 1038 431 1097 309 
Q 1138 225 1241 169 
Q 1344 113 1538 113 
L 1538 0 
L 72 0 
L 72 113 
Q 291 113 397 181 
Q 475 231 506 341 
Q 522 394 522 644 
L 522 1753 
Q 522 2253 501 2348 
Q 481 2444 426 2487 
Q 372 2531 291 2531 
Q 194 2531 72 2484 
L 41 2597 
L 906 2947 
L 1038 2947 
z
" transform="scale(0.015625)"/>
     <path id="TimesNewRomanPSMT-6d" d="M 1050 2338 
Q 1363 2650 1419 2697 
Q 1559 2816 1721 2881 
Q 1884 2947 2044 2947 
Q 2313 2947 2506 2790 
Q 2700 2634 2766 2338 
Q 3088 2713 3309 2830 
Q 3531 2947 3766 2947 
Q 3994 2947 4170 2830 
Q 4347 2713 4450 2447 
Q 4519 2266 4519 1878 
L 4519 647 
Q 4519 378 4559 278 
Q 4591 209 4675 161 
Q 4759 113 4950 113 
L 4950 0 
L 3538 0 
L 3538 113 
L 3597 113 
Q 3781 113 3884 184 
Q 3956 234 3988 344 
Q 4000 397 4000 647 
L 4000 1878 
Q 4000 2228 3916 2372 
Q 3794 2572 3525 2572 
Q 3359 2572 3192 2489 
Q 3025 2406 2788 2181 
L 2781 2147 
L 2788 2013 
L 2788 647 
Q 2788 353 2820 281 
Q 2853 209 2943 161 
Q 3034 113 3253 113 
L 3253 0 
L 1806 0 
L 1806 113 
Q 2044 113 2133 169 
Q 2222 225 2256 338 
Q 2272 391 2272 647 
L 2272 1878 
Q 2272 2228 2169 2381 
Q 2031 2581 1784 2581 
Q 1616 2581 1450 2491 
Q 1191 2353 1050 2181 
L 1050 647 
Q 1050 366 1089 281 
Q 1128 197 1204 155 
Q 1281 113 1516 113 
L 1516 0 
L 100 0 
L 100 113 
Q 297 113 375 155 
Q 453 197 493 289 
Q 534 381 534 647 
L 534 1741 
Q 534 2213 506 2350 
Q 484 2453 437 2492 
Q 391 2531 309 2531 
Q 222 2531 100 2484 
L 53 2597 
L 916 2947 
L 1050 2947 
L 1050 2338 
z
" transform="scale(0.015625)"/>
     <path id="TimesNewRomanPSMT-20" transform="scale(0.015625)"/>
     <path id="TimesNewRomanPSMT-70" d="M -6 2578 
L 875 2934 
L 994 2934 
L 994 2266 
Q 1216 2644 1439 2795 
Q 1663 2947 1909 2947 
Q 2341 2947 2628 2609 
Q 2981 2197 2981 1534 
Q 2981 794 2556 309 
Q 2206 -88 1675 -88 
Q 1444 -88 1275 -22 
Q 1150 25 994 166 
L 994 -706 
Q 994 -1000 1030 -1079 
Q 1066 -1159 1155 -1206 
Q 1244 -1253 1478 -1253 
L 1478 -1369 
L -22 -1369 
L -22 -1253 
L 56 -1253 
Q 228 -1256 350 -1188 
Q 409 -1153 442 -1076 
Q 475 -1000 475 -688 
L 475 2019 
Q 475 2297 450 2372 
Q 425 2447 370 2484 
Q 316 2522 222 2522 
Q 147 2522 31 2478 
L -6 2578 
z
M 994 2081 
L 994 1013 
Q 994 666 1022 556 
Q 1066 375 1236 237 
Q 1406 100 1666 100 
Q 1978 100 2172 344 
Q 2425 663 2425 1241 
Q 2425 1897 2138 2250 
Q 1938 2494 1663 2494 
Q 1513 2494 1366 2419 
Q 1253 2363 994 2081 
z
" transform="scale(0.015625)"/>
     <path id="TimesNewRomanPSMT-64" d="M 2222 322 
Q 2013 103 1813 7 
Q 1613 -88 1381 -88 
Q 913 -88 563 304 
Q 213 697 213 1313 
Q 213 1928 600 2439 
Q 988 2950 1597 2950 
Q 1975 2950 2222 2709 
L 2222 3238 
Q 2222 3728 2198 3840 
Q 2175 3953 2125 3993 
Q 2075 4034 2000 4034 
Q 1919 4034 1784 3984 
L 1744 4094 
L 2597 4444 
L 2738 4444 
L 2738 1134 
Q 2738 631 2761 520 
Q 2784 409 2836 365 
Q 2888 322 2956 322 
Q 3041 322 3181 375 
L 3216 266 
L 2366 -88 
L 2222 -88 
L 2222 322 
z
M 2222 541 
L 2222 2016 
Q 2203 2228 2109 2403 
Q 2016 2578 1861 2667 
Q 1706 2756 1559 2756 
Q 1284 2756 1069 2509 
Q 784 2184 784 1559 
Q 784 928 1059 592 
Q 1334 256 1672 256 
Q 1956 256 2222 541 
z
" transform="scale(0.015625)"/>
     <path id="TimesNewRomanPSMT-28" d="M 1988 -1253 
L 1988 -1369 
Q 1516 -1131 1200 -813 
Q 750 -359 506 256 
Q 263 872 263 1534 
Q 263 2503 741 3301 
Q 1219 4100 1988 4444 
L 1988 4313 
Q 1603 4100 1356 3731 
Q 1109 3363 987 2797 
Q 866 2231 866 1616 
Q 866 947 969 400 
Q 1050 -31 1165 -292 
Q 1281 -553 1476 -793 
Q 1672 -1034 1988 -1253 
z
" transform="scale(0.015625)"/>
     <path id="TimesNewRomanPSMT-55" d="M 3053 4122 
L 3053 4238 
L 4553 4238 
L 4553 4122 
L 4394 4122 
Q 4144 4122 4009 3913 
Q 3944 3816 3944 3463 
L 3944 1744 
Q 3944 1106 3817 754 
Q 3691 403 3320 151 
Q 2950 -100 2313 -100 
Q 1619 -100 1259 140 
Q 900 381 750 788 
Q 650 1066 650 1831 
L 650 3488 
Q 650 3878 542 4000 
Q 434 4122 194 4122 
L 34 4122 
L 34 4238 
L 1866 4238 
L 1866 4122 
L 1703 4122 
Q 1441 4122 1328 3956 
Q 1250 3844 1250 3488 
L 1250 1641 
Q 1250 1394 1295 1075 
Q 1341 756 1459 578 
Q 1578 400 1801 284 
Q 2025 169 2350 169 
Q 2766 169 3094 350 
Q 3422 531 3542 814 
Q 3663 1097 3663 1772 
L 3663 3488 
Q 3663 3884 3575 3984 
Q 3453 4122 3213 4122 
L 3053 4122 
z
" transform="scale(0.015625)"/>
     <path id="TimesNewRomanPSMT-29" d="M 144 4313 
L 144 4444 
Q 619 4209 934 3891 
Q 1381 3434 1625 2820 
Q 1869 2206 1869 1541 
Q 1869 572 1392 -226 
Q 916 -1025 144 -1369 
L 144 -1253 
Q 528 -1038 776 -670 
Q 1025 -303 1145 264 
Q 1266 831 1266 1447 
Q 1266 2113 1163 2663 
Q 1084 3094 967 3353 
Q 850 3613 656 3853 
Q 463 4094 144 4313 
z
" transform="scale(0.015625)"/>
    </defs>
    <use xlink:href="#TimesNewRomanPSMT-54"/>
    <use xlink:href="#TimesNewRomanPSMT-6f" transform="translate(54.083984 0)"/>
    <use xlink:href="#TimesNewRomanPSMT-75" transform="translate(104.083984 0)"/>
    <use xlink:href="#TimesNewRomanPSMT-72" transform="translate(154.083984 0)"/>
    <use xlink:href="#TimesNewRomanPSMT-69" transform="translate(187.384766 0)"/>
    <use xlink:href="#TimesNewRomanPSMT-73" transform="translate(215.167969 0)"/>
    <use xlink:href="#TimesNewRomanPSMT-6d" transform="translate(254.083984 0)"/>
    <use xlink:href="#TimesNewRomanPSMT-20" transform="translate(331.867188 0)"/>
    <use xlink:href="#TimesNewRomanPSMT-53" transform="translate(356.867188 0)"/>
    <use xlink:href="#TimesNewRomanPSMT-70" transform="translate(412.482422 0)"/>
    <use xlink:href="#TimesNewRomanPSMT-65" transform="translate(462.482422 0)"/>
    <use xlink:href="#TimesNewRomanPSMT-6e" transform="translate(506.867188 0)"/>
    <use xlink:href="#TimesNewRomanPSMT-64" transform="translate(556.867188 0)"/>
    <use xlink:href="#TimesNewRomanPSMT-69" transform="translate(606.867188 0)"/>
    <use xlink:href="#TimesNewRomanPSMT-6e" transform="translate(634.650391 0)"/>
    <use xlink:href="#TimesNewRomanPSMT-67" transform="translate(684.650391 0)"/>
    <use xlink:href="#TimesNewRomanPSMT-28" transform="translate(734.650391 0)"/>
    <use xlink:href="#TimesNewRomanPSMT-55" transform="translate(767.951172 0)"/>
    <use xlink:href="#TimesNewRomanPSMT-53" transform="translate(840.167969 0)"/>
    <use xlink:href="#TimesNewRomanPSMT-44" transform="translate(895.783203 0)"/>
    <use xlink:href="#TimesNewRomanPSMT-29" transform="translate(968 0)"/>
   </g>
  </g>
 </g>
 <defs>
  <clipPath id="p374863eab0">
   <rect x="127.247647" y="21.12" width="609.9895" height="74.66"/>
  </clipPath>
  <clipPath id="pfb5761f194">
   <rect x="127.247647" y="58.45" width="609.9895" height="74.66"/>
  </clipPath>
  <clipPath id="p0c13fe06a7">
   <rect x="127.247647" y="95.78" width="609.9895" height="74.66"/>
  </clipPath>
 </defs>
</svg>
