<?xml version="1.0" encoding="utf-8" standalone="no"?>
<!DOCTYPE svg PUBLIC "-//W3C//DTD SVG 1.1//EN"
  "http://www.w3.org/Graphics/SVG/1.1/DTD/svg11.dtd">
<svg xmlns:xlink="http://www.w3.org/1999/xlink" width="759.838922pt" height="280.655312pt" viewBox="0 0 759.838922 280.655312" xmlns="http://www.w3.org/2000/svg" version="1.1">
 <metadata>
  <rdf:RDF xmlns:dc="http://purl.org/dc/elements/1.1/" xmlns:cc="http://creativecommons.org/ns#" xmlns:rdf="http://www.w3.org/1999/02/22-rdf-syntax-ns#">
   <cc:Work>
    <dc:type rdf:resource="http://purl.org/dc/dcmitype/StillImage"/>
    <dc:date>2025-05-26T21:34:09.196469</dc:date>
    <dc:format>image/svg+xml</dc:format>
    <dc:creator>
     <cc:Agent>
      <dc:title>Matplotlib v3.10.1, https://matplotlib.org/</dc:title>
     </cc:Agent>
    </dc:creator>
   </cc:Work>
  </rdf:RDF>
 </metadata>
 <defs>
  <style type="text/css">*{stroke-linejoin: round; stroke-linecap: butt}</style>
 </defs>
 <g id="figure_1">
  <g id="patch_1">
   <path d="M 0 280.655312 
L 759.838922 280.655312 
L 759.838922 0 
L 0 0 
z
" style="fill: #ffffff"/>
  </g>
  <g id="axes_1">
   <g id="patch_2">
    <path d="M 139.769422 106.048 
L 734.638922 106.048 
L 734.638922 17.52 
L 139.769422 17.52 
L 139.769422 106.048 
z
" style="fill: none; opacity: 0"/>
   </g>
   <g id="FillBetweenPolyCollection_1">
    <defs>
     <path id="m255cfa9be6" d="M 139.769422 -236.22264 
L 139.769422 -174.607312 
L 142.758716 -174.607312 
L 145.74801 -174.607312 
L 148.737304 -174.607312 
L 151.726598 -174.607312 
L 154.715892 -174.607312 
L 157.705186 -174.607312 
L 160.69448 -174.607312 
L 163.683774 -174.607312 
L 166.673068 -174.607312 
L 169.662362 -174.607312 
L 172.651656 -174.607312 
L 175.64095 -174.607312 
L 178.630244 -174.607312 
L 181.619538 -174.607312 
L 184.608832 -174.607312 
L 187.598126 -174.607312 
L 190.58742 -174.607312 
L 193.576714 -174.607312 
L 196.566008 -174.607312 
L 199.555302 -174.607312 
L 202.544596 -174.607312 
L 205.53389 -174.607312 
L 208.523184 -174.607312 
L 211.512478 -174.607312 
L 214.501772 -174.607312 
L 217.491066 -174.607312 
L 220.48036 -174.607312 
L 223.469654 -174.607312 
L 226.458948 -174.607312 
L 229.448242 -174.607312 
L 232.437536 -174.607312 
L 235.42683 -174.607312 
L 238.416124 -174.607312 
L 241.405417 -174.607312 
L 244.394711 -174.607312 
L 247.384005 -174.607312 
L 250.373299 -174.607312 
L 253.362593 -174.607312 
L 256.351887 -174.607312 
L 259.341181 -174.607312 
L 262.330475 -174.607312 
L 265.319769 -174.607312 
L 268.309063 -174.607312 
L 271.298357 -174.607312 
L 274.287651 -174.607312 
L 277.276945 -174.607312 
L 280.266239 -174.607312 
L 283.255533 -174.607312 
L 286.244827 -174.607312 
L 289.234121 -174.607312 
L 292.223415 -174.607312 
L 295.212709 -174.607312 
L 298.202003 -174.607312 
L 301.191297 -174.607312 
L 304.180591 -174.607312 
L 307.169885 -174.607312 
L 310.159179 -174.607312 
L 313.148473 -174.607312 
L 316.137767 -174.607312 
L 319.127061 -174.607312 
L 322.116355 -174.607312 
L 325.105649 -174.607312 
L 328.094943 -174.607312 
L 331.084237 -174.607312 
L 334.073531 -174.607312 
L 337.062825 -174.607312 
L 340.052118 -174.607312 
L 343.041412 -174.607312 
L 346.030706 -174.607312 
L 349.02 -174.607312 
L 352.009294 -174.607312 
L 354.998588 -174.607312 
L 357.987882 -174.607312 
L 360.977176 -174.607312 
L 363.96647 -174.607312 
L 366.955764 -174.607312 
L 369.945058 -174.607312 
L 372.934352 -174.607312 
L 375.923646 -174.607312 
L 378.91294 -174.607312 
L 381.902234 -174.607312 
L 384.891528 -174.607312 
L 387.880822 -174.607312 
L 390.870116 -174.607312 
L 393.85941 -174.607312 
L 396.848704 -174.607312 
L 399.837998 -174.607312 
L 402.827292 -174.607312 
L 405.816586 -174.607312 
L 408.80588 -174.607312 
L 411.795174 -174.607312 
L 414.784468 -174.607312 
L 417.773762 -174.607312 
L 420.763056 -174.607312 
L 423.75235 -174.607312 
L 426.741644 -174.607312 
L 429.730938 -174.607312 
L 432.720232 -174.607312 
L 435.709526 -174.607312 
L 438.698819 -174.607312 
L 441.688113 -174.607312 
L 444.677407 -174.607312 
L 447.666701 -174.607312 
L 450.655995 -174.607312 
L 453.645289 -174.607312 
L 456.634583 -174.607312 
L 459.623877 -174.607312 
L 462.613171 -174.607312 
L 465.602465 -174.607312 
L 468.591759 -174.607312 
L 471.581053 -174.607312 
L 474.570347 -174.607312 
L 477.559641 -174.607312 
L 480.548935 -174.607312 
L 483.538229 -174.607312 
L 486.527523 -174.607312 
L 489.516817 -174.607312 
L 492.506111 -174.607312 
L 495.495405 -174.607312 
L 498.484699 -174.607312 
L 501.473993 -174.607312 
L 504.463287 -174.607312 
L 507.452581 -174.607312 
L 510.441875 -174.607312 
L 513.431169 -174.607312 
L 516.420463 -174.607312 
L 519.409757 -174.607312 
L 522.399051 -174.607312 
L 525.388345 -174.607312 
L 528.377639 -174.607312 
L 531.366933 -174.607312 
L 534.356227 -174.607312 
L 537.34552 -174.607312 
L 540.334814 -174.607312 
L 543.324108 -174.607312 
L 546.313402 -174.607312 
L 549.302696 -174.607312 
L 552.29199 -174.607312 
L 555.281284 -174.607312 
L 558.270578 -174.607312 
L 561.259872 -174.607312 
L 564.249166 -174.607312 
L 567.23846 -174.607312 
L 570.227754 -174.607312 
L 573.217048 -174.607312 
L 576.206342 -174.607312 
L 579.195636 -174.607312 
L 582.18493 -174.607312 
L 585.174224 -174.607312 
L 588.163518 -174.607312 
L 591.152812 -174.607312 
L 594.142106 -174.607312 
L 597.1314 -174.607312 
L 600.120694 -174.607312 
L 603.109988 -174.607312 
L 606.099282 -174.607312 
L 609.088576 -174.607312 
L 612.07787 -174.607312 
L 615.067164 -174.607312 
L 618.056458 -174.607312 
L 621.045752 -174.607312 
L 624.035046 -174.607312 
L 627.02434 -174.607312 
L 630.013634 -174.607312 
L 633.002928 -174.607312 
L 635.992221 -174.607312 
L 638.981515 -174.607312 
L 641.970809 -174.607312 
L 644.960103 -174.607312 
L 647.949397 -174.607312 
L 650.938691 -174.607312 
L 653.927985 -174.607312 
L 656.917279 -174.607312 
L 659.906573 -174.607312 
L 662.895867 -174.607312 
L 665.885161 -174.607312 
L 668.874455 -174.607312 
L 671.863749 -174.607312 
L 674.853043 -174.607312 
L 677.842337 -174.607312 
L 680.831631 -174.607312 
L 683.820925 -174.607312 
L 686.810219 -174.607312 
L 689.799513 -174.607312 
L 692.788807 -174.607312 
L 695.778101 -174.607312 
L 698.767395 -174.607312 
L 701.756689 -174.607312 
L 704.745983 -174.607312 
L 707.735277 -174.607312 
L 710.724571 -174.607312 
L 713.713865 -174.607312 
L 716.703159 -174.607312 
L 719.692453 -174.607312 
L 722.681747 -174.607312 
L 725.671041 -174.607312 
L 728.660335 -174.607312 
L 731.649629 -174.607312 
L 734.638922 -174.607312 
L 734.638922 -181.372663 
L 734.638922 -181.372663 
L 731.649629 -181.610306 
L 728.660335 -181.843171 
L 725.671041 -182.070594 
L 722.681747 -182.291966 
L 719.692453 -182.50674 
L 716.703159 -182.714437 
L 713.713865 -182.914647 
L 710.724571 -183.107037 
L 707.735277 -183.291348 
L 704.745983 -183.467398 
L 701.756689 -183.635082 
L 698.767395 -183.794365 
L 695.778101 -183.945287 
L 692.788807 -184.087949 
L 689.799513 -184.222515 
L 686.810219 -184.349201 
L 683.820925 -184.468269 
L 680.831631 -184.580021 
L 677.842337 -184.684787 
L 674.853043 -184.782917 
L 671.863749 -184.874776 
L 668.874455 -184.960732 
L 665.885161 -185.041146 
L 662.895867 -185.11637 
L 659.906573 -185.186736 
L 656.917279 -185.252552 
L 653.927985 -185.314094 
L 650.938691 -185.371606 
L 647.949397 -185.425297 
L 644.960103 -185.475334 
L 641.970809 -185.52185 
L 638.981515 -185.56494 
L 635.992221 -185.604661 
L 633.002928 -185.641043 
L 630.013634 -185.674082 
L 627.02434 -185.703755 
L 624.035046 -185.730016 
L 621.045752 -185.752808 
L 618.056458 -185.772064 
L 615.067164 -185.787716 
L 612.07787 -185.799695 
L 609.088576 -185.807943 
L 606.099282 -185.812409 
L 603.109988 -185.813057 
L 600.120694 -185.80987 
L 597.1314 -185.802848 
L 594.142106 -185.792012 
L 591.152812 -185.777404 
L 588.163518 -185.759083 
L 585.174224 -185.73713 
L 582.18493 -185.711642 
L 579.195636 -185.682732 
L 576.206342 -185.650525 
L 573.217048 -185.615159 
L 570.227754 -185.576777 
L 567.23846 -185.535532 
L 564.249166 -185.49158 
L 561.259872 -185.445081 
L 558.270578 -185.396198 
L 555.281284 -185.345097 
L 552.29199 -185.291947 
L 549.302696 -185.236924 
L 546.313402 -185.18021 
L 543.324108 -185.121999 
L 540.334814 -185.062496 
L 537.34552 -185.001926 
L 534.356227 -184.940535 
L 531.366933 -184.878593 
L 528.377639 -184.816401 
L 525.388345 -184.754294 
L 522.399051 -184.692643 
L 519.409757 -184.631859 
L 516.420463 -184.572393 
L 513.431169 -184.514741 
L 510.441875 -184.459437 
L 507.452581 -184.407058 
L 504.463287 -184.358217 
L 501.473993 -184.31356 
L 498.484699 -184.273759 
L 495.495405 -184.239505 
L 492.506111 -184.211504 
L 489.516817 -184.19046 
L 486.527523 -184.177069 
L 483.538229 -184.172007 
L 480.548935 -184.175916 
L 477.559641 -184.189395 
L 474.570347 -184.212983 
L 471.581053 -184.247149 
L 468.591759 -184.292282 
L 465.602465 -184.348676 
L 462.613171 -184.416521 
L 459.623877 -184.495898 
L 456.634583 -184.586764 
L 453.645289 -184.688956 
L 450.655995 -184.802182 
L 447.666701 -184.926021 
L 444.677407 -185.059924 
L 441.688113 -185.203222 
L 438.698819 -185.355126 
L 435.709526 -185.514741 
L 432.720232 -185.681075 
L 429.730938 -185.853055 
L 426.741644 -186.029539 
L 423.75235 -186.209336 
L 420.763056 -186.391228 
L 417.773762 -186.573985 
L 414.784468 -186.756393 
L 411.795174 -186.937272 
L 408.80588 -187.115504 
L 405.816586 -187.29005 
L 402.827292 -187.459979 
L 399.837998 -187.624486 
L 396.848704 -187.782913 
L 393.85941 -187.934774 
L 390.870116 -188.079765 
L 387.880822 -188.217787 
L 384.891528 -188.348958 
L 381.902234 -188.473622 
L 378.91294 -188.592366 
L 375.923646 -188.706021 
L 372.934352 -188.815668 
L 369.945058 -188.922644 
L 366.955764 -189.028542 
L 363.96647 -189.135206 
L 360.977176 -189.244732 
L 357.987882 -189.35946 
L 354.998588 -189.481966 
L 352.009294 -189.615058 
L 349.02 -189.761759 
L 346.030706 -189.9253 
L 343.041412 -190.109107 
L 340.052118 -190.31678 
L 337.062825 -190.552084 
L 334.073531 -190.818928 
L 331.084237 -191.12134 
L 328.094943 -191.463456 
L 325.105649 -191.849482 
L 322.116355 -192.283679 
L 319.127061 -192.770325 
L 316.137767 -193.313686 
L 313.148473 -193.917976 
L 310.159179 -194.587322 
L 307.169885 -195.325715 
L 304.180591 -196.136965 
L 301.191297 -197.024647 
L 298.202003 -197.99205 
L 295.212709 -199.042112 
L 292.223415 -200.177365 
L 289.234121 -201.399866 
L 286.244827 -202.711132 
L 283.255533 -204.112074 
L 280.266239 -205.602933 
L 277.276945 -207.183211 
L 274.287651 -208.851611 
L 271.298357 -210.60598 
L 268.309063 -212.443255 
L 265.319769 -214.359422 
L 262.330475 -216.349476 
L 259.341181 -218.407402 
L 256.351887 -220.526153 
L 253.362593 -222.697659 
L 250.373299 -224.912836 
L 247.384005 -227.161619 
L 244.394711 -229.433003 
L 241.405417 -231.715112 
L 238.416124 -233.995272 
L 235.42683 -236.26011 
L 232.437536 -238.49566 
L 229.448242 -240.687494 
L 226.458948 -242.820855 
L 223.469654 -244.880809 
L 220.48036 -246.852405 
L 217.491066 -248.720841 
L 214.501772 -250.471636 
L 211.512478 -252.090799 
L 208.523184 -253.565007 
L 205.53389 -254.88177 
L 202.544596 -256.029592 
L 199.555302 -256.99812 
L 196.566008 -257.778289 
L 193.576714 -258.362439 
L 190.58742 -258.744423 
L 187.598126 -258.919693 
L 184.608832 -258.885365 
L 181.619538 -258.640261 
L 178.630244 -258.184928 
L 175.64095 -257.521632 
L 172.651656 -256.654333 
L 169.662362 -255.588631 
L 166.673068 -254.331693 
L 163.683774 -252.892159 
L 160.69448 -251.280029 
L 157.705186 -249.506536 
L 154.715892 -247.583998 
L 151.726598 -245.525665 
L 148.737304 -243.345554 
L 145.74801 -241.05828 
L 142.758716 -238.67888 
L 139.769422 -236.22264 
z
" style="stroke: #414487"/>
    </defs>
    <g clip-path="url(#p80eaba9222)">
     <use xlink:href="#m255cfa9be6" x="0" y="280.655312" style="fill: #414487; fill-opacity: 0.5; stroke: #414487"/>
    </g>
   </g>
   <g id="matplotlib.axis_1">
    <g id="xtick_1">
     <g id="line2d_1">
      <defs>
       <path id="m1e28f02751" d="M 0 0 
L 0 3.5 
" style="stroke: #000000; stroke-width: 0.8"/>
      </defs>
      <g>
       <use xlink:href="#m1e28f02751" x="139.769422" y="106.048" style="stroke: #000000; stroke-width: 0.8"/>
      </g>
     </g>
    </g>
    <g id="xtick_2">
     <g id="line2d_2">
      <g>
       <use xlink:href="#m1e28f02751" x="258.743322" y="106.048" style="stroke: #000000; stroke-width: 0.8"/>
      </g>
     </g>
    </g>
    <g id="xtick_3">
     <g id="line2d_3">
      <g>
       <use xlink:href="#m1e28f02751" x="377.717222" y="106.048" style="stroke: #000000; stroke-width: 0.8"/>
      </g>
     </g>
    </g>
    <g id="xtick_4">
     <g id="line2d_4">
      <g>
       <use xlink:href="#m1e28f02751" x="496.691123" y="106.048" style="stroke: #000000; stroke-width: 0.8"/>
      </g>
     </g>
    </g>
    <g id="xtick_5">
     <g id="line2d_5">
      <g>
       <use xlink:href="#m1e28f02751" x="615.665022" y="106.048" style="stroke: #000000; stroke-width: 0.8"/>
      </g>
     </g>
    </g>
    <g id="xtick_6">
     <g id="line2d_6">
      <g>
       <use xlink:href="#m1e28f02751" x="734.638922" y="106.048" style="stroke: #000000; stroke-width: 0.8"/>
      </g>
     </g>
    </g>
   </g>
   <g id="matplotlib.axis_2"/>
   <g id="line2d_7">
    <path d="M 139.769422 44.432672 
L 145.74801 39.597032 
L 151.726598 35.129648 
L 154.715892 33.071315 
L 157.705186 31.148777 
L 160.69448 29.375283 
L 163.683774 27.763154 
L 166.673068 26.32362 
L 169.662362 25.066681 
L 172.651656 24.000979 
L 175.64095 23.133681 
L 178.630244 22.470385 
L 181.619538 22.015051 
L 184.608832 21.769947 
L 187.598126 21.735619 
L 190.58742 21.910889 
L 193.576714 22.292873 
L 196.566008 22.877023 
L 199.555302 23.657192 
L 202.544596 24.625721 
L 205.53389 25.773542 
L 208.523184 27.090305 
L 211.512478 28.564514 
L 214.501772 30.183677 
L 220.48036 33.802907 
L 226.458948 37.834458 
L 232.437536 42.159652 
L 244.394711 51.222309 
L 253.362593 57.957653 
L 259.341181 62.247911 
L 265.319769 66.295891 
L 271.298357 70.049333 
L 277.276945 73.472101 
L 283.255533 76.543238 
L 289.234121 79.255447 
L 295.212709 81.6132 
L 301.191297 83.630665 
L 307.169885 85.329597 
L 313.148473 86.737336 
L 319.127061 87.884987 
L 325.105649 88.80583 
L 331.084237 89.533972 
L 340.052118 90.338532 
L 349.02 90.893554 
L 363.96647 91.520106 
L 390.870116 92.575547 
L 408.80588 93.539809 
L 444.677407 95.595388 
L 459.623877 96.159415 
L 471.581053 96.408163 
L 486.527523 96.478243 
L 504.463287 96.297095 
L 537.34552 95.653386 
L 570.227754 95.078535 
L 594.142106 94.8633 
L 618.056458 94.883249 
L 641.970809 95.133462 
L 665.885161 95.614167 
L 683.820925 96.187043 
L 698.767395 96.860947 
L 713.713865 97.740665 
L 731.649629 99.045007 
L 734.638922 99.282649 
L 734.638922 99.282649 
" clip-path="url(#p80eaba9222)" style="fill: none; stroke: #ffffff; stroke-width: 2; stroke-linecap: square"/>
   </g>
   <g id="line2d_8">
    <path d="M 139.769422 106.048 
L 734.638922 106.048 
" style="fill: none; stroke: #000000; stroke-linecap: square"/>
   </g>
   <g id="text_1">
    <g id="patch_3">
     <path d="M 17.679375 115.457687 
L 81.268125 115.457687 
L 81.268125 96.638312 
L 17.679375 96.638312 
z
" style="fill: #ffffff; opacity: 0.5"/>
    </g>
    <!-- Soft Drinks -->
    <g transform="translate(21.639375 108.930812) scale(0.12 -0.12)">
     <defs>
      <path id="TimesNewRomanPSMT-53" d="M 2934 4334 
L 2934 2869 
L 2819 2869 
Q 2763 3291 2617 3541 
Q 2472 3791 2203 3937 
Q 1934 4084 1647 4084 
Q 1322 4084 1109 3886 
Q 897 3688 897 3434 
Q 897 3241 1031 3081 
Q 1225 2847 1953 2456 
Q 2547 2138 2764 1967 
Q 2981 1797 3098 1565 
Q 3216 1334 3216 1081 
Q 3216 600 2842 251 
Q 2469 -97 1881 -97 
Q 1697 -97 1534 -69 
Q 1438 -53 1133 45 
Q 828 144 747 144 
Q 669 144 623 97 
Q 578 50 556 -97 
L 441 -97 
L 441 1356 
L 556 1356 
Q 638 900 775 673 
Q 913 447 1195 297 
Q 1478 147 1816 147 
Q 2206 147 2432 353 
Q 2659 559 2659 841 
Q 2659 997 2573 1156 
Q 2488 1316 2306 1453 
Q 2184 1547 1640 1851 
Q 1097 2156 867 2337 
Q 638 2519 519 2737 
Q 400 2956 400 3219 
Q 400 3675 750 4004 
Q 1100 4334 1641 4334 
Q 1978 4334 2356 4169 
Q 2531 4091 2603 4091 
Q 2684 4091 2736 4139 
Q 2788 4188 2819 4334 
L 2934 4334 
z
" transform="scale(0.015625)"/>
      <path id="TimesNewRomanPSMT-6f" d="M 1600 2947 
Q 2250 2947 2644 2453 
Q 2978 2031 2978 1484 
Q 2978 1100 2793 706 
Q 2609 313 2286 112 
Q 1963 -88 1566 -88 
Q 919 -88 538 428 
Q 216 863 216 1403 
Q 216 1797 411 2186 
Q 606 2575 925 2761 
Q 1244 2947 1600 2947 
z
M 1503 2744 
Q 1338 2744 1170 2645 
Q 1003 2547 900 2300 
Q 797 2053 797 1666 
Q 797 1041 1045 587 
Q 1294 134 1700 134 
Q 2003 134 2200 384 
Q 2397 634 2397 1244 
Q 2397 2006 2069 2444 
Q 1847 2744 1503 2744 
z
" transform="scale(0.015625)"/>
      <path id="TimesNewRomanPSMT-66" d="M 1319 2638 
L 1319 756 
Q 1319 356 1406 250 
Q 1522 113 1716 113 
L 1975 113 
L 1975 0 
L 266 0 
L 266 113 
L 394 113 
Q 519 113 622 175 
Q 725 238 764 344 
Q 803 450 803 756 
L 803 2638 
L 247 2638 
L 247 2863 
L 803 2863 
L 803 3050 
Q 803 3478 940 3775 
Q 1078 4072 1361 4255 
Q 1644 4438 1997 4438 
Q 2325 4438 2600 4225 
Q 2781 4084 2781 3909 
Q 2781 3816 2700 3733 
Q 2619 3650 2525 3650 
Q 2453 3650 2373 3701 
Q 2294 3753 2178 3923 
Q 2063 4094 1966 4153 
Q 1869 4213 1750 4213 
Q 1606 4213 1506 4136 
Q 1406 4059 1362 3898 
Q 1319 3738 1319 3069 
L 1319 2863 
L 2056 2863 
L 2056 2638 
L 1319 2638 
z
" transform="scale(0.015625)"/>
      <path id="TimesNewRomanPSMT-74" d="M 1031 3803 
L 1031 2863 
L 1700 2863 
L 1700 2644 
L 1031 2644 
L 1031 788 
Q 1031 509 1111 412 
Q 1191 316 1316 316 
Q 1419 316 1516 380 
Q 1613 444 1666 569 
L 1788 569 
Q 1678 263 1478 108 
Q 1278 -47 1066 -47 
Q 922 -47 784 33 
Q 647 113 581 261 
Q 516 409 516 719 
L 516 2644 
L 63 2644 
L 63 2747 
Q 234 2816 414 2980 
Q 594 3144 734 3369 
Q 806 3488 934 3803 
L 1031 3803 
z
" transform="scale(0.015625)"/>
      <path id="TimesNewRomanPSMT-20" transform="scale(0.015625)"/>
      <path id="TimesNewRomanPSMT-44" d="M 109 0 
L 109 116 
L 269 116 
Q 538 116 650 288 
Q 719 391 719 750 
L 719 3488 
Q 719 3884 631 3984 
Q 509 4122 269 4122 
L 109 4122 
L 109 4238 
L 1834 4238 
Q 2784 4238 3279 4022 
Q 3775 3806 4076 3303 
Q 4378 2800 4378 2141 
Q 4378 1256 3841 663 
Q 3238 0 2003 0 
L 109 0 
z
M 1319 306 
Q 1716 219 1984 219 
Q 2709 219 3187 728 
Q 3666 1238 3666 2109 
Q 3666 2988 3187 3494 
Q 2709 4000 1959 4000 
Q 1678 4000 1319 3909 
L 1319 306 
z
" transform="scale(0.015625)"/>
      <path id="TimesNewRomanPSMT-72" d="M 1038 2947 
L 1038 2303 
Q 1397 2947 1775 2947 
Q 1947 2947 2059 2842 
Q 2172 2738 2172 2600 
Q 2172 2478 2090 2393 
Q 2009 2309 1897 2309 
Q 1788 2309 1652 2417 
Q 1516 2525 1450 2525 
Q 1394 2525 1328 2463 
Q 1188 2334 1038 2041 
L 1038 669 
Q 1038 431 1097 309 
Q 1138 225 1241 169 
Q 1344 113 1538 113 
L 1538 0 
L 72 0 
L 72 113 
Q 291 113 397 181 
Q 475 231 506 341 
Q 522 394 522 644 
L 522 1753 
Q 522 2253 501 2348 
Q 481 2444 426 2487 
Q 372 2531 291 2531 
Q 194 2531 72 2484 
L 41 2597 
L 906 2947 
L 1038 2947 
z
" transform="scale(0.015625)"/>
      <path id="TimesNewRomanPSMT-69" d="M 928 4444 
Q 1059 4444 1151 4351 
Q 1244 4259 1244 4128 
Q 1244 3997 1151 3903 
Q 1059 3809 928 3809 
Q 797 3809 703 3903 
Q 609 3997 609 4128 
Q 609 4259 701 4351 
Q 794 4444 928 4444 
z
M 1188 2947 
L 1188 647 
Q 1188 378 1227 289 
Q 1266 200 1342 156 
Q 1419 113 1622 113 
L 1622 0 
L 231 0 
L 231 113 
Q 441 113 512 153 
Q 584 194 626 287 
Q 669 381 669 647 
L 669 1750 
Q 669 2216 641 2353 
Q 619 2453 572 2492 
Q 525 2531 444 2531 
Q 356 2531 231 2484 
L 188 2597 
L 1050 2947 
L 1188 2947 
z
" transform="scale(0.015625)"/>
      <path id="TimesNewRomanPSMT-6e" d="M 1034 2341 
Q 1538 2947 1994 2947 
Q 2228 2947 2397 2830 
Q 2566 2713 2666 2444 
Q 2734 2256 2734 1869 
L 2734 647 
Q 2734 375 2778 278 
Q 2813 200 2889 156 
Q 2966 113 3172 113 
L 3172 0 
L 1756 0 
L 1756 113 
L 1816 113 
Q 2016 113 2095 173 
Q 2175 234 2206 353 
Q 2219 400 2219 647 
L 2219 1819 
Q 2219 2209 2117 2386 
Q 2016 2563 1775 2563 
Q 1403 2563 1034 2156 
L 1034 647 
Q 1034 356 1069 288 
Q 1113 197 1189 155 
Q 1266 113 1500 113 
L 1500 0 
L 84 0 
L 84 113 
L 147 113 
Q 366 113 442 223 
Q 519 334 519 647 
L 519 1709 
Q 519 2225 495 2337 
Q 472 2450 423 2490 
Q 375 2531 294 2531 
Q 206 2531 84 2484 
L 38 2597 
L 900 2947 
L 1034 2947 
L 1034 2341 
z
" transform="scale(0.015625)"/>
      <path id="TimesNewRomanPSMT-6b" d="M 1047 4444 
L 1047 1597 
L 1775 2259 
Q 2006 2472 2044 2528 
Q 2069 2566 2069 2603 
Q 2069 2666 2017 2711 
Q 1966 2756 1847 2763 
L 1847 2863 
L 3091 2863 
L 3091 2763 
Q 2834 2756 2664 2684 
Q 2494 2613 2291 2428 
L 1556 1750 
L 2291 822 
Q 2597 438 2703 334 
Q 2853 188 2966 144 
Q 3044 113 3238 113 
L 3238 0 
L 1847 0 
L 1847 113 
Q 1966 116 2008 148 
Q 2050 181 2050 241 
Q 2050 313 1925 472 
L 1047 1594 
L 1047 644 
Q 1047 366 1086 278 
Q 1125 191 1197 153 
Q 1269 116 1509 113 
L 1509 0 
L 53 0 
L 53 113 
Q 272 113 381 166 
Q 447 200 481 272 
Q 528 375 528 628 
L 528 3234 
Q 528 3731 506 3842 
Q 484 3953 434 3995 
Q 384 4038 303 4038 
Q 238 4038 106 3984 
L 53 4094 
L 903 4444 
L 1047 4444 
z
" transform="scale(0.015625)"/>
      <path id="TimesNewRomanPSMT-73" d="M 2050 2947 
L 2050 1972 
L 1947 1972 
Q 1828 2431 1642 2597 
Q 1456 2763 1169 2763 
Q 950 2763 815 2647 
Q 681 2531 681 2391 
Q 681 2216 781 2091 
Q 878 1963 1175 1819 
L 1631 1597 
Q 2266 1288 2266 781 
Q 2266 391 1970 151 
Q 1675 -88 1309 -88 
Q 1047 -88 709 6 
Q 606 38 541 38 
Q 469 38 428 -44 
L 325 -44 
L 325 978 
L 428 978 
Q 516 541 762 319 
Q 1009 97 1316 97 
Q 1531 97 1667 223 
Q 1803 350 1803 528 
Q 1803 744 1651 891 
Q 1500 1038 1047 1263 
Q 594 1488 453 1669 
Q 313 1847 313 2119 
Q 313 2472 555 2709 
Q 797 2947 1181 2947 
Q 1350 2947 1591 2875 
Q 1750 2828 1803 2828 
Q 1853 2828 1881 2850 
Q 1909 2872 1947 2947 
L 2050 2947 
z
" transform="scale(0.015625)"/>
     </defs>
     <use xlink:href="#TimesNewRomanPSMT-53"/>
     <use xlink:href="#TimesNewRomanPSMT-6f" transform="translate(55.615234 0)"/>
     <use xlink:href="#TimesNewRomanPSMT-66" transform="translate(105.615234 0)"/>
     <use xlink:href="#TimesNewRomanPSMT-74" transform="translate(138.916016 0)"/>
     <use xlink:href="#TimesNewRomanPSMT-20" transform="translate(166.699219 0)"/>
     <use xlink:href="#TimesNewRomanPSMT-44" transform="translate(191.699219 0)"/>
     <use xlink:href="#TimesNewRomanPSMT-72" transform="translate(263.916016 0)"/>
     <use xlink:href="#TimesNewRomanPSMT-69" transform="translate(297.216797 0)"/>
     <use xlink:href="#TimesNewRomanPSMT-6e" transform="translate(325 0)"/>
     <use xlink:href="#TimesNewRomanPSMT-6b" transform="translate(375 0)"/>
     <use xlink:href="#TimesNewRomanPSMT-73" transform="translate(425 0)"/>
    </g>
   </g>
  </g>
  <g id="axes_2">
   <g id="patch_4">
    <path d="M 139.769422 150.312 
L 734.638922 150.312 
L 734.638922 61.784 
L 139.769422 61.784 
L 139.769422 150.312 
z
" style="fill: none; opacity: 0"/>
   </g>
   <g id="FillBetweenPolyCollection_2">
    <defs>
     <path id="m0feb0b3994" d="M 139.769422 -183.809797 
L 139.769422 -130.343312 
L 142.758716 -130.343312 
L 145.74801 -130.343312 
L 148.737304 -130.343312 
L 151.726598 -130.343312 
L 154.715892 -130.343312 
L 157.705186 -130.343312 
L 160.69448 -130.343312 
L 163.683774 -130.343312 
L 166.673068 -130.343312 
L 169.662362 -130.343312 
L 172.651656 -130.343312 
L 175.64095 -130.343312 
L 178.630244 -130.343312 
L 181.619538 -130.343312 
L 184.608832 -130.343312 
L 187.598126 -130.343312 
L 190.58742 -130.343312 
L 193.576714 -130.343312 
L 196.566008 -130.343312 
L 199.555302 -130.343312 
L 202.544596 -130.343312 
L 205.53389 -130.343312 
L 208.523184 -130.343312 
L 211.512478 -130.343312 
L 214.501772 -130.343312 
L 217.491066 -130.343312 
L 220.48036 -130.343312 
L 223.469654 -130.343312 
L 226.458948 -130.343312 
L 229.448242 -130.343312 
L 232.437536 -130.343312 
L 235.42683 -130.343312 
L 238.416124 -130.343312 
L 241.405417 -130.343312 
L 244.394711 -130.343312 
L 247.384005 -130.343312 
L 250.373299 -130.343312 
L 253.362593 -130.343312 
L 256.351887 -130.343312 
L 259.341181 -130.343312 
L 262.330475 -130.343312 
L 265.319769 -130.343312 
L 268.309063 -130.343312 
L 271.298357 -130.343312 
L 274.287651 -130.343312 
L 277.276945 -130.343312 
L 280.266239 -130.343312 
L 283.255533 -130.343312 
L 286.244827 -130.343312 
L 289.234121 -130.343312 
L 292.223415 -130.343312 
L 295.212709 -130.343312 
L 298.202003 -130.343312 
L 301.191297 -130.343312 
L 304.180591 -130.343312 
L 307.169885 -130.343312 
L 310.159179 -130.343312 
L 313.148473 -130.343312 
L 316.137767 -130.343312 
L 319.127061 -130.343312 
L 322.116355 -130.343312 
L 325.105649 -130.343312 
L 328.094943 -130.343312 
L 331.084237 -130.343312 
L 334.073531 -130.343312 
L 337.062825 -130.343312 
L 340.052118 -130.343312 
L 343.041412 -130.343312 
L 346.030706 -130.343312 
L 349.02 -130.343312 
L 352.009294 -130.343312 
L 354.998588 -130.343312 
L 357.987882 -130.343312 
L 360.977176 -130.343312 
L 363.96647 -130.343312 
L 366.955764 -130.343312 
L 369.945058 -130.343312 
L 372.934352 -130.343312 
L 375.923646 -130.343312 
L 378.91294 -130.343312 
L 381.902234 -130.343312 
L 384.891528 -130.343312 
L 387.880822 -130.343312 
L 390.870116 -130.343312 
L 393.85941 -130.343312 
L 396.848704 -130.343312 
L 399.837998 -130.343312 
L 402.827292 -130.343312 
L 405.816586 -130.343312 
L 408.80588 -130.343312 
L 411.795174 -130.343312 
L 414.784468 -130.343312 
L 417.773762 -130.343312 
L 420.763056 -130.343312 
L 423.75235 -130.343312 
L 426.741644 -130.343312 
L 429.730938 -130.343312 
L 432.720232 -130.343312 
L 435.709526 -130.343312 
L 438.698819 -130.343312 
L 441.688113 -130.343312 
L 444.677407 -130.343312 
L 447.666701 -130.343312 
L 450.655995 -130.343312 
L 453.645289 -130.343312 
L 456.634583 -130.343312 
L 459.623877 -130.343312 
L 462.613171 -130.343312 
L 465.602465 -130.343312 
L 468.591759 -130.343312 
L 471.581053 -130.343312 
L 474.570347 -130.343312 
L 477.559641 -130.343312 
L 480.548935 -130.343312 
L 483.538229 -130.343312 
L 486.527523 -130.343312 
L 489.516817 -130.343312 
L 492.506111 -130.343312 
L 495.495405 -130.343312 
L 498.484699 -130.343312 
L 501.473993 -130.343312 
L 504.463287 -130.343312 
L 507.452581 -130.343312 
L 510.441875 -130.343312 
L 513.431169 -130.343312 
L 516.420463 -130.343312 
L 519.409757 -130.343312 
L 522.399051 -130.343312 
L 525.388345 -130.343312 
L 528.377639 -130.343312 
L 531.366933 -130.343312 
L 534.356227 -130.343312 
L 537.34552 -130.343312 
L 540.334814 -130.343312 
L 543.324108 -130.343312 
L 546.313402 -130.343312 
L 549.302696 -130.343312 
L 552.29199 -130.343312 
L 555.281284 -130.343312 
L 558.270578 -130.343312 
L 561.259872 -130.343312 
L 564.249166 -130.343312 
L 567.23846 -130.343312 
L 570.227754 -130.343312 
L 573.217048 -130.343312 
L 576.206342 -130.343312 
L 579.195636 -130.343312 
L 582.18493 -130.343312 
L 585.174224 -130.343312 
L 588.163518 -130.343312 
L 591.152812 -130.343312 
L 594.142106 -130.343312 
L 597.1314 -130.343312 
L 600.120694 -130.343312 
L 603.109988 -130.343312 
L 606.099282 -130.343312 
L 609.088576 -130.343312 
L 612.07787 -130.343312 
L 615.067164 -130.343312 
L 618.056458 -130.343312 
L 621.045752 -130.343312 
L 624.035046 -130.343312 
L 627.02434 -130.343312 
L 630.013634 -130.343312 
L 633.002928 -130.343312 
L 635.992221 -130.343312 
L 638.981515 -130.343312 
L 641.970809 -130.343312 
L 644.960103 -130.343312 
L 647.949397 -130.343312 
L 650.938691 -130.343312 
L 653.927985 -130.343312 
L 656.917279 -130.343312 
L 659.906573 -130.343312 
L 662.895867 -130.343312 
L 665.885161 -130.343312 
L 668.874455 -130.343312 
L 671.863749 -130.343312 
L 674.853043 -130.343312 
L 677.842337 -130.343312 
L 680.831631 -130.343312 
L 683.820925 -130.343312 
L 686.810219 -130.343312 
L 689.799513 -130.343312 
L 692.788807 -130.343312 
L 695.778101 -130.343312 
L 698.767395 -130.343312 
L 701.756689 -130.343312 
L 704.745983 -130.343312 
L 707.735277 -130.343312 
L 710.724571 -130.343312 
L 713.713865 -130.343312 
L 716.703159 -130.343312 
L 719.692453 -130.343312 
L 722.681747 -130.343312 
L 725.671041 -130.343312 
L 728.660335 -130.343312 
L 731.649629 -130.343312 
L 734.638922 -130.343312 
L 734.638922 -139.042433 
L 734.638922 -139.042433 
L 731.649629 -139.304697 
L 728.660335 -139.562963 
L 725.671041 -139.816992 
L 722.681747 -140.066583 
L 719.692453 -140.311575 
L 716.703159 -140.551836 
L 713.713865 -140.787259 
L 710.724571 -141.017752 
L 707.735277 -141.243228 
L 704.745983 -141.463602 
L 701.756689 -141.678774 
L 698.767395 -141.888629 
L 695.778101 -142.093021 
L 692.788807 -142.291769 
L 689.799513 -142.48465 
L 686.810219 -142.671393 
L 683.820925 -142.851676 
L 680.831631 -143.025119 
L 677.842337 -143.191289 
L 674.853043 -143.349696 
L 671.863749 -143.499796 
L 668.874455 -143.640997 
L 665.885161 -143.772663 
L 662.895867 -143.894122 
L 659.906573 -144.004676 
L 656.917279 -144.103609 
L 653.927985 -144.190202 
L 650.938691 -144.263741 
L 647.949397 -144.323536 
L 644.960103 -144.36893 
L 641.970809 -144.399313 
L 638.981515 -144.414138 
L 635.992221 -144.412933 
L 633.002928 -144.395311 
L 630.013634 -144.360986 
L 627.02434 -144.309779 
L 624.035046 -144.241625 
L 621.045752 -144.156588 
L 618.056458 -144.054854 
L 615.067164 -143.936746 
L 612.07787 -143.802716 
L 609.088576 -143.653347 
L 606.099282 -143.489353 
L 603.109988 -143.311569 
L 600.120694 -143.120947 
L 597.1314 -142.918546 
L 594.142106 -142.705526 
L 591.152812 -142.48313 
L 588.163518 -142.252676 
L 585.174224 -142.015545 
L 582.18493 -141.773162 
L 579.195636 -141.526985 
L 576.206342 -141.278491 
L 573.217048 -141.029159 
L 570.227754 -140.780461 
L 567.23846 -140.533841 
L 564.249166 -140.290709 
L 561.259872 -140.052427 
L 558.270578 -139.820297 
L 555.281284 -139.595554 
L 552.29199 -139.379354 
L 549.302696 -139.172772 
L 546.313402 -138.976792 
L 543.324108 -138.792302 
L 540.334814 -138.620097 
L 537.34552 -138.460868 
L 534.356227 -138.31521 
L 531.366933 -138.183615 
L 528.377639 -138.066476 
L 525.388345 -137.964092 
L 522.399051 -137.876663 
L 519.409757 -137.8043 
L 516.420463 -137.747027 
L 513.431169 -137.70478 
L 510.441875 -137.67742 
L 507.452581 -137.66473 
L 504.463287 -137.666423 
L 501.473993 -137.682146 
L 498.484699 -137.711484 
L 495.495405 -137.753966 
L 492.506111 -137.809068 
L 489.516817 -137.876218 
L 486.527523 -137.954802 
L 483.538229 -138.044166 
L 480.548935 -138.143623 
L 477.559641 -138.252457 
L 474.570347 -138.369924 
L 471.581053 -138.495264 
L 468.591759 -138.6277 
L 465.602465 -138.766446 
L 462.613171 -138.910709 
L 459.623877 -139.059699 
L 456.634583 -139.212633 
L 453.645289 -139.368739 
L 450.655995 -139.527263 
L 447.666701 -139.687477 
L 444.677407 -139.848685 
L 441.688113 -140.010225 
L 438.698819 -140.171482 
L 435.709526 -140.331892 
L 432.720232 -140.490945 
L 429.730938 -140.648198 
L 426.741644 -140.803276 
L 423.75235 -140.955882 
L 420.763056 -141.105801 
L 417.773762 -141.252907 
L 414.784468 -141.397168 
L 411.795174 -141.538654 
L 408.80588 -141.677539 
L 405.816586 -141.814111 
L 402.827292 -141.948774 
L 399.837998 -142.082052 
L 396.848704 -142.214599 
L 393.85941 -142.347199 
L 390.870116 -142.480773 
L 387.880822 -142.616383 
L 384.891528 -142.755235 
L 381.902234 -142.898686 
L 378.91294 -143.048245 
L 375.923646 -143.205573 
L 372.934352 -143.372494 
L 369.945058 -143.550986 
L 366.955764 -143.743189 
L 363.96647 -143.951401 
L 360.977176 -144.178077 
L 357.987882 -144.425823 
L 354.998588 -144.697392 
L 352.009294 -144.995674 
L 349.02 -145.323689 
L 346.030706 -145.684569 
L 343.041412 -146.081544 
L 340.052118 -146.517923 
L 337.062825 -146.997071 
L 334.073531 -147.52238 
L 331.084237 -148.097243 
L 328.094943 -148.725019 
L 325.105649 -149.408997 
L 322.116355 -150.152353 
L 319.127061 -150.958112 
L 316.137767 -151.829096 
L 313.148473 -152.767882 
L 310.159179 -153.776748 
L 307.169885 -154.857622 
L 304.180591 -156.01203 
L 301.191297 -157.241046 
L 298.202003 -158.54524 
L 295.212709 -159.924625 
L 292.223415 -161.378619 
L 289.234121 -162.905992 
L 286.244827 -164.504835 
L 283.255533 -166.172524 
L 280.266239 -167.905691 
L 277.276945 -169.700211 
L 274.287651 -171.551183 
L 271.298357 -173.452933 
L 268.309063 -175.399015 
L 265.319769 -177.382234 
L 262.330475 -179.394665 
L 259.341181 -181.427696 
L 256.351887 -183.47207 
L 253.362593 -185.517947 
L 250.373299 -187.554967 
L 247.384005 -189.572329 
L 244.394711 -191.558873 
L 241.405417 -193.50318 
L 238.416124 -195.393666 
L 235.42683 -197.218687 
L 232.437536 -198.966656 
L 229.448242 -200.626151 
L 226.458948 -202.186029 
L 223.469654 -203.635546 
L 220.48036 -204.964464 
L 217.491066 -206.163167 
L 214.501772 -207.222761 
L 211.512478 -208.135174 
L 208.523184 -208.893248 
L 205.53389 -209.490819 
L 202.544596 -209.922789 
L 199.555302 -210.185181 
L 196.566008 -210.27519 
L 193.576714 -210.191216 
L 190.58742 -209.932878 
L 187.598126 -209.501025 
L 184.608832 -208.897724 
L 181.619538 -208.126236 
L 178.630244 -207.19098 
L 175.64095 -206.097485 
L 172.651656 -204.852325 
L 169.662362 -203.463046 
L 166.673068 -201.938081 
L 163.683774 -200.286662 
L 160.69448 -198.518715 
L 157.705186 -196.644754 
L 154.715892 -194.675777 
L 151.726598 -192.623146 
L 148.737304 -190.498476 
L 145.74801 -188.31352 
L 142.758716 -186.080061 
L 139.769422 -183.809797 
z
" style="stroke: #2a788e"/>
    </defs>
    <g clip-path="url(#p204dc85838)">
     <use xlink:href="#m0feb0b3994" x="0" y="280.655312" style="fill: #2a788e; fill-opacity: 0.5; stroke: #2a788e"/>
    </g>
   </g>
   <g id="matplotlib.axis_3">
    <g id="xtick_7">
     <g id="line2d_9">
      <g>
       <use xlink:href="#m1e28f02751" x="139.769422" y="150.312" style="stroke: #000000; stroke-width: 0.8"/>
      </g>
     </g>
    </g>
    <g id="xtick_8">
     <g id="line2d_10">
      <g>
       <use xlink:href="#m1e28f02751" x="258.743322" y="150.312" style="stroke: #000000; stroke-width: 0.8"/>
      </g>
     </g>
    </g>
    <g id="xtick_9">
     <g id="line2d_11">
      <g>
       <use xlink:href="#m1e28f02751" x="377.717222" y="150.312" style="stroke: #000000; stroke-width: 0.8"/>
      </g>
     </g>
    </g>
    <g id="xtick_10">
     <g id="line2d_12">
      <g>
       <use xlink:href="#m1e28f02751" x="496.691123" y="150.312" style="stroke: #000000; stroke-width: 0.8"/>
      </g>
     </g>
    </g>
    <g id="xtick_11">
     <g id="line2d_13">
      <g>
       <use xlink:href="#m1e28f02751" x="615.665022" y="150.312" style="stroke: #000000; stroke-width: 0.8"/>
      </g>
     </g>
    </g>
    <g id="xtick_12">
     <g id="line2d_14">
      <g>
       <use xlink:href="#m1e28f02751" x="734.638922" y="150.312" style="stroke: #000000; stroke-width: 0.8"/>
      </g>
     </g>
    </g>
   </g>
   <g id="matplotlib.axis_4"/>
   <g id="line2d_15">
    <path d="M 139.769422 96.845515 
L 148.737304 90.156837 
L 154.715892 85.979535 
L 160.69448 82.136598 
L 166.673068 78.717231 
L 169.662362 77.192267 
L 172.651656 75.802987 
L 175.64095 74.557827 
L 178.630244 73.464332 
L 181.619538 72.529077 
L 184.608832 71.757589 
L 187.598126 71.154287 
L 190.58742 70.722434 
L 193.576714 70.464097 
L 196.566008 70.380122 
L 199.555302 70.470132 
L 202.544596 70.732524 
L 205.53389 71.164493 
L 208.523184 71.762065 
L 211.512478 72.520139 
L 214.501772 73.432552 
L 217.491066 74.492145 
L 220.48036 75.690848 
L 226.458948 78.469283 
L 232.437536 81.688656 
L 238.416124 85.261647 
L 244.394711 89.096439 
L 253.362593 95.137365 
L 268.309063 105.256297 
L 274.287651 109.104129 
L 280.266239 112.749621 
L 286.244827 116.150477 
L 292.223415 119.276694 
L 298.202003 122.110073 
L 304.180591 124.643283 
L 310.159179 126.878564 
L 316.137767 128.826216 
L 322.116355 130.502959 
L 328.094943 131.930293 
L 334.073531 133.132933 
L 340.052118 134.137389 
L 346.030706 134.970744 
L 354.998588 135.957921 
L 363.96647 136.703911 
L 375.923646 137.449739 
L 396.848704 138.440714 
L 429.730938 140.007115 
L 474.570347 142.285388 
L 489.516817 142.779094 
L 501.473993 142.973166 
L 513.431169 142.950532 
L 525.388345 142.691221 
L 537.34552 142.194444 
L 549.302696 141.48254 
L 564.249166 140.364604 
L 600.120694 137.534366 
L 612.07787 136.852597 
L 624.035046 136.413687 
L 635.992221 136.24238 
L 647.949397 136.331776 
L 659.906573 136.650637 
L 674.853043 137.305617 
L 692.788807 138.363543 
L 710.724571 139.637561 
L 731.649629 141.350616 
L 734.638922 141.612879 
L 734.638922 141.612879 
" clip-path="url(#p204dc85838)" style="fill: none; stroke: #ffffff; stroke-width: 2; stroke-linecap: square"/>
   </g>
   <g id="line2d_16">
    <path d="M 139.769422 150.312 
L 734.638922 150.312 
" style="fill: none; stroke: #000000; stroke-linecap: square"/>
   </g>
   <g id="text_2">
    <g id="patch_5">
     <path d="M 6.875625 159.721687 
L 81.268125 159.721687 
L 81.268125 140.902312 
L 6.875625 140.902312 
z
" style="fill: #ffffff; opacity: 0.5"/>
    </g>
    <!-- Bottled Water -->
    <g transform="translate(10.835625 153.194812) scale(0.12 -0.12)">
     <defs>
      <path id="TimesNewRomanPSMT-42" d="M 2956 2163 
Q 3397 2069 3616 1863 
Q 3919 1575 3919 1159 
Q 3919 844 3719 555 
Q 3519 266 3170 133 
Q 2822 0 2106 0 
L 106 0 
L 106 116 
L 266 116 
Q 531 116 647 284 
Q 719 394 719 750 
L 719 3488 
Q 719 3881 628 3984 
Q 506 4122 266 4122 
L 106 4122 
L 106 4238 
L 1938 4238 
Q 2450 4238 2759 4163 
Q 3228 4050 3475 3764 
Q 3722 3478 3722 3106 
Q 3722 2788 3528 2536 
Q 3334 2284 2956 2163 
z
M 1319 2331 
Q 1434 2309 1582 2298 
Q 1731 2288 1909 2288 
Q 2366 2288 2595 2386 
Q 2825 2484 2947 2687 
Q 3069 2891 3069 3131 
Q 3069 3503 2766 3765 
Q 2463 4028 1881 4028 
Q 1569 4028 1319 3959 
L 1319 2331 
z
M 1319 306 
Q 1681 222 2034 222 
Q 2600 222 2897 476 
Q 3194 731 3194 1106 
Q 3194 1353 3059 1581 
Q 2925 1809 2622 1940 
Q 2319 2072 1872 2072 
Q 1678 2072 1540 2065 
Q 1403 2059 1319 2044 
L 1319 306 
z
" transform="scale(0.015625)"/>
      <path id="TimesNewRomanPSMT-6c" d="M 1184 4444 
L 1184 647 
Q 1184 378 1223 290 
Q 1263 203 1344 158 
Q 1425 113 1647 113 
L 1647 0 
L 244 0 
L 244 113 
Q 441 113 512 153 
Q 584 194 625 287 
Q 666 381 666 647 
L 666 3247 
Q 666 3731 644 3842 
Q 622 3953 573 3993 
Q 525 4034 450 4034 
Q 369 4034 244 3984 
L 191 4094 
L 1044 4444 
L 1184 4444 
z
" transform="scale(0.015625)"/>
      <path id="TimesNewRomanPSMT-65" d="M 681 1784 
Q 678 1147 991 784 
Q 1303 422 1725 422 
Q 2006 422 2214 576 
Q 2422 731 2563 1106 
L 2659 1044 
Q 2594 616 2278 264 
Q 1963 -88 1488 -88 
Q 972 -88 605 314 
Q 238 716 238 1394 
Q 238 2128 614 2539 
Q 991 2950 1559 2950 
Q 2041 2950 2350 2633 
Q 2659 2316 2659 1784 
L 681 1784 
z
M 681 1966 
L 2006 1966 
Q 1991 2241 1941 2353 
Q 1863 2528 1708 2628 
Q 1553 2728 1384 2728 
Q 1125 2728 920 2526 
Q 716 2325 681 1966 
z
" transform="scale(0.015625)"/>
      <path id="TimesNewRomanPSMT-64" d="M 2222 322 
Q 2013 103 1813 7 
Q 1613 -88 1381 -88 
Q 913 -88 563 304 
Q 213 697 213 1313 
Q 213 1928 600 2439 
Q 988 2950 1597 2950 
Q 1975 2950 2222 2709 
L 2222 3238 
Q 2222 3728 2198 3840 
Q 2175 3953 2125 3993 
Q 2075 4034 2000 4034 
Q 1919 4034 1784 3984 
L 1744 4094 
L 2597 4444 
L 2738 4444 
L 2738 1134 
Q 2738 631 2761 520 
Q 2784 409 2836 365 
Q 2888 322 2956 322 
Q 3041 322 3181 375 
L 3216 266 
L 2366 -88 
L 2222 -88 
L 2222 322 
z
M 2222 541 
L 2222 2016 
Q 2203 2228 2109 2403 
Q 2016 2578 1861 2667 
Q 1706 2756 1559 2756 
Q 1284 2756 1069 2509 
Q 784 2184 784 1559 
Q 784 928 1059 592 
Q 1334 256 1672 256 
Q 1956 256 2222 541 
z
" transform="scale(0.015625)"/>
      <path id="TimesNewRomanPSMT-57" d="M 5991 4238 
L 5991 4122 
Q 5825 4122 5722 4062 
Q 5619 4003 5525 3841 
Q 5463 3731 5328 3319 
L 4147 -97 
L 4022 -97 
L 3056 2613 
L 2097 -97 
L 1984 -97 
L 725 3422 
Q 584 3816 547 3888 
Q 484 4006 376 4064 
Q 269 4122 84 4122 
L 84 4238 
L 1653 4238 
L 1653 4122 
L 1578 4122 
Q 1413 4122 1325 4047 
Q 1238 3972 1238 3866 
Q 1238 3756 1375 3363 
L 2209 984 
L 2913 3006 
L 2788 3363 
L 2688 3647 
Q 2622 3803 2541 3922 
Q 2500 3981 2441 4022 
Q 2363 4078 2284 4103 
Q 2225 4122 2097 4122 
L 2097 4238 
L 3747 4238 
L 3747 4122 
L 3634 4122 
Q 3459 4122 3378 4047 
Q 3297 3972 3297 3844 
Q 3297 3684 3438 3288 
L 4250 984 
L 5056 3319 
Q 5194 3706 5194 3856 
Q 5194 3928 5148 3990 
Q 5103 4053 5034 4078 
Q 4916 4122 4725 4122 
L 4725 4238 
L 5991 4238 
z
" transform="scale(0.015625)"/>
      <path id="TimesNewRomanPSMT-61" d="M 1822 413 
Q 1381 72 1269 19 
Q 1100 -59 909 -59 
Q 613 -59 420 144 
Q 228 347 228 678 
Q 228 888 322 1041 
Q 450 1253 767 1440 
Q 1084 1628 1822 1897 
L 1822 2009 
Q 1822 2438 1686 2597 
Q 1550 2756 1291 2756 
Q 1094 2756 978 2650 
Q 859 2544 859 2406 
L 866 2225 
Q 866 2081 792 2003 
Q 719 1925 600 1925 
Q 484 1925 411 2006 
Q 338 2088 338 2228 
Q 338 2497 613 2722 
Q 888 2947 1384 2947 
Q 1766 2947 2009 2819 
Q 2194 2722 2281 2516 
Q 2338 2381 2338 1966 
L 2338 994 
Q 2338 584 2353 492 
Q 2369 400 2405 369 
Q 2441 338 2488 338 
Q 2538 338 2575 359 
Q 2641 400 2828 588 
L 2828 413 
Q 2478 -56 2159 -56 
Q 2006 -56 1915 50 
Q 1825 156 1822 413 
z
M 1822 616 
L 1822 1706 
Q 1350 1519 1213 1441 
Q 966 1303 859 1153 
Q 753 1003 753 825 
Q 753 600 887 451 
Q 1022 303 1197 303 
Q 1434 303 1822 616 
z
" transform="scale(0.015625)"/>
     </defs>
     <use xlink:href="#TimesNewRomanPSMT-42"/>
     <use xlink:href="#TimesNewRomanPSMT-6f" transform="translate(66.699219 0)"/>
     <use xlink:href="#TimesNewRomanPSMT-74" transform="translate(116.699219 0)"/>
     <use xlink:href="#TimesNewRomanPSMT-74" transform="translate(144.482422 0)"/>
     <use xlink:href="#TimesNewRomanPSMT-6c" transform="translate(172.265625 0)"/>
     <use xlink:href="#TimesNewRomanPSMT-65" transform="translate(200.048828 0)"/>
     <use xlink:href="#TimesNewRomanPSMT-64" transform="translate(244.433594 0)"/>
     <use xlink:href="#TimesNewRomanPSMT-20" transform="translate(294.433594 0)"/>
     <use xlink:href="#TimesNewRomanPSMT-57" transform="translate(317.683594 0)"/>
     <use xlink:href="#TimesNewRomanPSMT-61" transform="translate(404.068359 0)"/>
     <use xlink:href="#TimesNewRomanPSMT-74" transform="translate(448.453125 0)"/>
     <use xlink:href="#TimesNewRomanPSMT-65" transform="translate(476.236328 0)"/>
     <use xlink:href="#TimesNewRomanPSMT-72" transform="translate(520.621094 0)"/>
    </g>
   </g>
  </g>
  <g id="axes_3">
   <g id="patch_6">
    <path d="M 139.769422 194.576 
L 734.638922 194.576 
L 734.638922 106.048 
L 139.769422 106.048 
L 139.769422 194.576 
z
" style="fill: none; opacity: 0"/>
   </g>
   <g id="FillBetweenPolyCollection_3">
    <defs>
     <path id="m9f4f44bb17" d="M 139.769422 -143.362781 
L 139.769422 -86.079312 
L 142.758716 -86.079312 
L 145.74801 -86.079312 
L 148.737304 -86.079312 
L 151.726598 -86.079312 
L 154.715892 -86.079312 
L 157.705186 -86.079312 
L 160.69448 -86.079312 
L 163.683774 -86.079312 
L 166.673068 -86.079312 
L 169.662362 -86.079312 
L 172.651656 -86.079312 
L 175.64095 -86.079312 
L 178.630244 -86.079312 
L 181.619538 -86.079312 
L 184.608832 -86.079312 
L 187.598126 -86.079312 
L 190.58742 -86.079312 
L 193.576714 -86.079312 
L 196.566008 -86.079312 
L 199.555302 -86.079312 
L 202.544596 -86.079312 
L 205.53389 -86.079312 
L 208.523184 -86.079312 
L 211.512478 -86.079312 
L 214.501772 -86.079312 
L 217.491066 -86.079312 
L 220.48036 -86.079312 
L 223.469654 -86.079312 
L 226.458948 -86.079312 
L 229.448242 -86.079312 
L 232.437536 -86.079312 
L 235.42683 -86.079312 
L 238.416124 -86.079312 
L 241.405417 -86.079312 
L 244.394711 -86.079312 
L 247.384005 -86.079312 
L 250.373299 -86.079312 
L 253.362593 -86.079312 
L 256.351887 -86.079312 
L 259.341181 -86.079312 
L 262.330475 -86.079312 
L 265.319769 -86.079312 
L 268.309063 -86.079312 
L 271.298357 -86.079312 
L 274.287651 -86.079312 
L 277.276945 -86.079312 
L 280.266239 -86.079312 
L 283.255533 -86.079312 
L 286.244827 -86.079312 
L 289.234121 -86.079312 
L 292.223415 -86.079312 
L 295.212709 -86.079312 
L 298.202003 -86.079312 
L 301.191297 -86.079312 
L 304.180591 -86.079312 
L 307.169885 -86.079312 
L 310.159179 -86.079312 
L 313.148473 -86.079312 
L 316.137767 -86.079312 
L 319.127061 -86.079312 
L 322.116355 -86.079312 
L 325.105649 -86.079312 
L 328.094943 -86.079312 
L 331.084237 -86.079312 
L 334.073531 -86.079312 
L 337.062825 -86.079312 
L 340.052118 -86.079312 
L 343.041412 -86.079312 
L 346.030706 -86.079312 
L 349.02 -86.079312 
L 352.009294 -86.079312 
L 354.998588 -86.079312 
L 357.987882 -86.079312 
L 360.977176 -86.079312 
L 363.96647 -86.079312 
L 366.955764 -86.079312 
L 369.945058 -86.079312 
L 372.934352 -86.079312 
L 375.923646 -86.079312 
L 378.91294 -86.079312 
L 381.902234 -86.079312 
L 384.891528 -86.079312 
L 387.880822 -86.079312 
L 390.870116 -86.079312 
L 393.85941 -86.079312 
L 396.848704 -86.079312 
L 399.837998 -86.079312 
L 402.827292 -86.079312 
L 405.816586 -86.079312 
L 408.80588 -86.079312 
L 411.795174 -86.079312 
L 414.784468 -86.079312 
L 417.773762 -86.079312 
L 420.763056 -86.079312 
L 423.75235 -86.079312 
L 426.741644 -86.079312 
L 429.730938 -86.079312 
L 432.720232 -86.079312 
L 435.709526 -86.079312 
L 438.698819 -86.079312 
L 441.688113 -86.079312 
L 444.677407 -86.079312 
L 447.666701 -86.079312 
L 450.655995 -86.079312 
L 453.645289 -86.079312 
L 456.634583 -86.079312 
L 459.623877 -86.079312 
L 462.613171 -86.079312 
L 465.602465 -86.079312 
L 468.591759 -86.079312 
L 471.581053 -86.079312 
L 474.570347 -86.079312 
L 477.559641 -86.079312 
L 480.548935 -86.079312 
L 483.538229 -86.079312 
L 486.527523 -86.079312 
L 489.516817 -86.079312 
L 492.506111 -86.079312 
L 495.495405 -86.079312 
L 498.484699 -86.079312 
L 501.473993 -86.079312 
L 504.463287 -86.079312 
L 507.452581 -86.079312 
L 510.441875 -86.079312 
L 513.431169 -86.079312 
L 516.420463 -86.079312 
L 519.409757 -86.079312 
L 522.399051 -86.079312 
L 525.388345 -86.079312 
L 528.377639 -86.079312 
L 531.366933 -86.079312 
L 534.356227 -86.079312 
L 537.34552 -86.079312 
L 540.334814 -86.079312 
L 543.324108 -86.079312 
L 546.313402 -86.079312 
L 549.302696 -86.079312 
L 552.29199 -86.079312 
L 555.281284 -86.079312 
L 558.270578 -86.079312 
L 561.259872 -86.079312 
L 564.249166 -86.079312 
L 567.23846 -86.079312 
L 570.227754 -86.079312 
L 573.217048 -86.079312 
L 576.206342 -86.079312 
L 579.195636 -86.079312 
L 582.18493 -86.079312 
L 585.174224 -86.079312 
L 588.163518 -86.079312 
L 591.152812 -86.079312 
L 594.142106 -86.079312 
L 597.1314 -86.079312 
L 600.120694 -86.079312 
L 603.109988 -86.079312 
L 606.099282 -86.079312 
L 609.088576 -86.079312 
L 612.07787 -86.079312 
L 615.067164 -86.079312 
L 618.056458 -86.079312 
L 621.045752 -86.079312 
L 624.035046 -86.079312 
L 627.02434 -86.079312 
L 630.013634 -86.079312 
L 633.002928 -86.079312 
L 635.992221 -86.079312 
L 638.981515 -86.079312 
L 641.970809 -86.079312 
L 644.960103 -86.079312 
L 647.949397 -86.079312 
L 650.938691 -86.079312 
L 653.927985 -86.079312 
L 656.917279 -86.079312 
L 659.906573 -86.079312 
L 662.895867 -86.079312 
L 665.885161 -86.079312 
L 668.874455 -86.079312 
L 671.863749 -86.079312 
L 674.853043 -86.079312 
L 677.842337 -86.079312 
L 680.831631 -86.079312 
L 683.820925 -86.079312 
L 686.810219 -86.079312 
L 689.799513 -86.079312 
L 692.788807 -86.079312 
L 695.778101 -86.079312 
L 698.767395 -86.079312 
L 701.756689 -86.079312 
L 704.745983 -86.079312 
L 707.735277 -86.079312 
L 710.724571 -86.079312 
L 713.713865 -86.079312 
L 716.703159 -86.079312 
L 719.692453 -86.079312 
L 722.681747 -86.079312 
L 725.671041 -86.079312 
L 728.660335 -86.079312 
L 731.649629 -86.079312 
L 734.638922 -86.079312 
L 734.638922 -94.456366 
L 734.638922 -94.456366 
L 731.649629 -94.735963 
L 728.660335 -95.010916 
L 725.671041 -95.28054 
L 722.681747 -95.544183 
L 719.692453 -95.801221 
L 716.703159 -96.051067 
L 713.713865 -96.293164 
L 710.724571 -96.526994 
L 707.735277 -96.752072 
L 704.745983 -96.967951 
L 701.756689 -97.174219 
L 698.767395 -97.370503 
L 695.778101 -97.556463 
L 692.788807 -97.731799 
L 689.799513 -97.896248 
L 686.810219 -98.049584 
L 683.820925 -98.19162 
L 680.831631 -98.322208 
L 677.842337 -98.441239 
L 674.853043 -98.548646 
L 671.863749 -98.644405 
L 668.874455 -98.728534 
L 665.885161 -98.801096 
L 662.895867 -98.8622 
L 659.906573 -98.912001 
L 656.917279 -98.950698 
L 653.927985 -98.978542 
L 650.938691 -98.995826 
L 647.949397 -99.00289 
L 644.960103 -99.000119 
L 641.970809 -98.987939 
L 638.981515 -98.966817 
L 635.992221 -98.937253 
L 633.002928 -98.899781 
L 630.013634 -98.854963 
L 627.02434 -98.803379 
L 624.035046 -98.745629 
L 621.045752 -98.682319 
L 618.056458 -98.61406 
L 615.067164 -98.541457 
L 612.07787 -98.465107 
L 609.088576 -98.385586 
L 606.099282 -98.303447 
L 603.109988 -98.21921 
L 600.120694 -98.13336 
L 597.1314 -98.04634 
L 594.142106 -97.958542 
L 591.152812 -97.870312 
L 588.163518 -97.781939 
L 585.174224 -97.693657 
L 582.18493 -97.605644 
L 579.195636 -97.51802 
L 576.206342 -97.430852 
L 573.217048 -97.344151 
L 570.227754 -97.257879 
L 567.23846 -97.171953 
L 564.249166 -97.086248 
L 561.259872 -97.000603 
L 558.270578 -96.914829 
L 555.281284 -96.828715 
L 552.29199 -96.742033 
L 549.302696 -96.654552 
L 546.313402 -96.566037 
L 543.324108 -96.476263 
L 540.334814 -96.385022 
L 537.34552 -96.292127 
L 534.356227 -96.197423 
L 531.366933 -96.100791 
L 528.377639 -96.002155 
L 525.388345 -95.901488 
L 522.399051 -95.798816 
L 519.409757 -95.694221 
L 516.420463 -95.587847 
L 513.431169 -95.4799 
L 510.441875 -95.370649 
L 507.452581 -95.26043 
L 504.463287 -95.149642 
L 501.473993 -95.038745 
L 498.484699 -94.928265 
L 495.495405 -94.81878 
L 492.506111 -94.710926 
L 489.516817 -94.605388 
L 486.527523 -94.502893 
L 483.538229 -94.40421 
L 480.548935 -94.310136 
L 477.559641 -94.221495 
L 474.570347 -94.139124 
L 471.581053 -94.063874 
L 468.591759 -93.996591 
L 465.602465 -93.938116 
L 462.613171 -93.889272 
L 459.623877 -93.850857 
L 456.634583 -93.823633 
L 453.645289 -93.808321 
L 450.655995 -93.805593 
L 447.666701 -93.816059 
L 444.677407 -93.840267 
L 441.688113 -93.878694 
L 438.698819 -93.93174 
L 435.709526 -93.999723 
L 432.720232 -94.082879 
L 429.730938 -94.181356 
L 426.741644 -94.295217 
L 423.75235 -94.424435 
L 420.763056 -94.568901 
L 417.773762 -94.728426 
L 414.784468 -94.902741 
L 411.795174 -95.091511 
L 408.80588 -95.29434 
L 405.816586 -95.510777 
L 402.827292 -95.740335 
L 399.837998 -95.982498 
L 396.848704 -96.236739 
L 393.85941 -96.50253 
L 390.870116 -96.779365 
L 387.880822 -97.066776 
L 384.891528 -97.364348 
L 381.902234 -97.671741 
L 378.91294 -97.988709 
L 375.923646 -98.315118 
L 372.934352 -98.650965 
L 369.945058 -98.996397 
L 366.955764 -99.351728 
L 363.96647 -99.717452 
L 360.977176 -100.094263 
L 357.987882 -100.483062 
L 354.998588 -100.884966 
L 352.009294 -101.301319 
L 349.02 -101.733694 
L 346.030706 -102.183889 
L 343.041412 -102.653931 
L 340.052118 -103.14606 
L 337.062825 -103.662723 
L 334.073531 -104.206556 
L 331.084237 -104.780362 
L 328.094943 -105.387087 
L 325.105649 -106.029788 
L 322.116355 -106.7116 
L 319.127061 -107.435699 
L 316.137767 -108.205253 
L 313.148473 -109.023384 
L 310.159179 -109.893108 
L 307.169885 -110.817292 
L 304.180591 -111.798591 
L 301.191297 -112.839396 
L 298.202003 -113.941773 
L 295.212709 -115.107408 
L 292.223415 -116.337547 
L 289.234121 -117.632941 
L 286.244827 -118.993794 
L 283.255533 -120.419713 
L 280.266239 -121.909659 
L 277.276945 -123.461913 
L 274.287651 -125.074036 
L 271.298357 -126.742845 
L 268.309063 -128.464394 
L 265.319769 -130.233965 
L 262.330475 -132.046063 
L 259.341181 -133.894428 
L 256.351887 -135.772054 
L 253.362593 -137.671218 
L 250.373299 -139.58352 
L 247.384005 -141.499931 
L 244.394711 -143.410862 
L 241.405417 -145.306225 
L 238.416124 -147.17552 
L 235.42683 -149.007921 
L 232.437536 -150.792374 
L 229.448242 -152.517696 
L 226.458948 -154.172687 
L 223.469654 -155.746241 
L 220.48036 -157.227458 
L 217.491066 -158.605761 
L 214.501772 -159.87101 
L 211.512478 -161.013613 
L 208.523184 -162.024636 
L 205.53389 -162.895901 
L 202.544596 -163.620082 
L 199.555302 -164.190794 
L 196.566008 -164.602665 
L 193.576714 -164.851404 
L 190.58742 -164.933847 
L 187.598126 -164.848006 
L 184.608832 -164.593085 
L 181.619538 -164.169496 
L 178.630244 -163.578857 
L 175.64095 -162.823972 
L 172.651656 -161.908801 
L 169.662362 -160.838416 
L 166.673068 -159.618942 
L 163.683774 -158.257491 
L 160.69448 -156.762081 
L 157.705186 -155.141546 
L 154.715892 -153.40544 
L 151.726598 -151.563934 
L 148.737304 -149.627708 
L 145.74801 -147.607839 
L 142.758716 -145.515686 
L 139.769422 -143.362781 
z
" style="stroke: #22a884"/>
    </defs>
    <g clip-path="url(#pd4c680786c)">
     <use xlink:href="#m9f4f44bb17" x="0" y="280.655312" style="fill: #22a884; fill-opacity: 0.5; stroke: #22a884"/>
    </g>
   </g>
   <g id="matplotlib.axis_5">
    <g id="xtick_13">
     <g id="line2d_17">
      <g>
       <use xlink:href="#m1e28f02751" x="139.769422" y="194.576" style="stroke: #000000; stroke-width: 0.8"/>
      </g>
     </g>
    </g>
    <g id="xtick_14">
     <g id="line2d_18">
      <g>
       <use xlink:href="#m1e28f02751" x="258.743322" y="194.576" style="stroke: #000000; stroke-width: 0.8"/>
      </g>
     </g>
    </g>
    <g id="xtick_15">
     <g id="line2d_19">
      <g>
       <use xlink:href="#m1e28f02751" x="377.717222" y="194.576" style="stroke: #000000; stroke-width: 0.8"/>
      </g>
     </g>
    </g>
    <g id="xtick_16">
     <g id="line2d_20">
      <g>
       <use xlink:href="#m1e28f02751" x="496.691123" y="194.576" style="stroke: #000000; stroke-width: 0.8"/>
      </g>
     </g>
    </g>
    <g id="xtick_17">
     <g id="line2d_21">
      <g>
       <use xlink:href="#m1e28f02751" x="615.665022" y="194.576" style="stroke: #000000; stroke-width: 0.8"/>
      </g>
     </g>
    </g>
    <g id="xtick_18">
     <g id="line2d_22">
      <g>
       <use xlink:href="#m1e28f02751" x="734.638922" y="194.576" style="stroke: #000000; stroke-width: 0.8"/>
      </g>
     </g>
    </g>
   </g>
   <g id="matplotlib.axis_6"/>
   <g id="line2d_23">
    <path d="M 139.769422 137.292532 
L 145.74801 133.047474 
L 151.726598 129.091379 
L 157.705186 125.513767 
L 163.683774 122.397821 
L 166.673068 121.036371 
L 169.662362 119.816897 
L 172.651656 118.746511 
L 175.64095 117.83134 
L 178.630244 117.076455 
L 181.619538 116.485816 
L 184.608832 116.062228 
L 187.598126 115.807307 
L 190.58742 115.721465 
L 193.576714 115.803909 
L 196.566008 116.052647 
L 199.555302 116.464519 
L 202.544596 117.035231 
L 205.53389 117.759412 
L 208.523184 118.630676 
L 211.512478 119.641699 
L 214.501772 120.784303 
L 220.48036 123.427855 
L 226.458948 126.482625 
L 232.437536 129.862939 
L 238.416124 133.479793 
L 250.373299 141.071793 
L 262.330475 148.60925 
L 268.309063 152.190918 
L 274.287651 155.581277 
L 280.266239 158.745653 
L 286.244827 161.661519 
L 292.223415 164.317766 
L 298.202003 166.713539 
L 304.180591 168.856721 
L 310.159179 170.762204 
L 316.137767 172.450059 
L 322.116355 173.943712 
L 328.094943 175.268226 
L 337.062825 176.992589 
L 346.030706 178.471423 
L 357.987882 180.172251 
L 372.934352 182.004347 
L 387.880822 183.588537 
L 402.827292 184.914977 
L 414.784468 185.752572 
L 426.741644 186.360096 
L 438.698819 186.723572 
L 450.655995 186.84972 
L 462.613171 186.76604 
L 477.559641 186.433818 
L 501.473993 185.616567 
L 540.334814 184.270291 
L 612.07787 182.190205 
L 633.002928 181.755531 
L 647.949397 181.652423 
L 662.895867 181.793112 
L 674.853043 182.106667 
L 686.810219 182.605728 
L 701.756689 183.481093 
L 716.703159 184.604246 
L 734.638922 186.198947 
L 734.638922 186.198947 
" clip-path="url(#pd4c680786c)" style="fill: none; stroke: #ffffff; stroke-width: 2; stroke-linecap: square"/>
   </g>
   <g id="line2d_24">
    <path d="M 139.769422 194.576 
L 734.638922 194.576 
" style="fill: none; stroke: #000000; stroke-linecap: square"/>
   </g>
   <g id="text_3">
    <g id="patch_7">
     <path d="M 20.694375 203.985687 
L 81.268125 203.985687 
L 81.268125 185.166312 
L 20.694375 185.166312 
z
" style="fill: #ffffff; opacity: 0.5"/>
    </g>
    <!-- Kombucha -->
    <g transform="translate(24.654375 197.458812) scale(0.12 -0.12)">
     <defs>
      <path id="TimesNewRomanPSMT-4b" d="M 1913 2350 
L 3475 797 
Q 3859 413 4131 273 
Q 4403 134 4675 116 
L 4675 0 
L 2659 0 
L 2659 116 
Q 2841 116 2920 177 
Q 3000 238 3000 313 
Q 3000 388 2970 447 
Q 2941 506 2775 669 
L 1313 2116 
L 1313 750 
Q 1313 428 1353 325 
Q 1384 247 1484 191 
Q 1619 116 1769 116 
L 1913 116 
L 1913 0 
L 106 0 
L 106 116 
L 256 116 
Q 519 116 638 269 
Q 713 369 713 750 
L 713 3488 
Q 713 3809 672 3916 
Q 641 3991 544 4047 
Q 406 4122 256 4122 
L 106 4122 
L 106 4238 
L 1913 4238 
L 1913 4122 
L 1769 4122 
Q 1622 4122 1484 4050 
Q 1388 4000 1350 3900 
Q 1313 3800 1313 3488 
L 1313 2191 
Q 1375 2250 1741 2588 
Q 2669 3438 2863 3722 
Q 2947 3847 2947 3941 
Q 2947 4013 2881 4067 
Q 2816 4122 2659 4122 
L 2563 4122 
L 2563 4238 
L 4119 4238 
L 4119 4122 
Q 3981 4119 3868 4084 
Q 3756 4050 3593 3951 
Q 3431 3853 3194 3634 
Q 3125 3572 2559 2994 
L 1913 2350 
z
" transform="scale(0.015625)"/>
      <path id="TimesNewRomanPSMT-6d" d="M 1050 2338 
Q 1363 2650 1419 2697 
Q 1559 2816 1721 2881 
Q 1884 2947 2044 2947 
Q 2313 2947 2506 2790 
Q 2700 2634 2766 2338 
Q 3088 2713 3309 2830 
Q 3531 2947 3766 2947 
Q 3994 2947 4170 2830 
Q 4347 2713 4450 2447 
Q 4519 2266 4519 1878 
L 4519 647 
Q 4519 378 4559 278 
Q 4591 209 4675 161 
Q 4759 113 4950 113 
L 4950 0 
L 3538 0 
L 3538 113 
L 3597 113 
Q 3781 113 3884 184 
Q 3956 234 3988 344 
Q 4000 397 4000 647 
L 4000 1878 
Q 4000 2228 3916 2372 
Q 3794 2572 3525 2572 
Q 3359 2572 3192 2489 
Q 3025 2406 2788 2181 
L 2781 2147 
L 2788 2013 
L 2788 647 
Q 2788 353 2820 281 
Q 2853 209 2943 161 
Q 3034 113 3253 113 
L 3253 0 
L 1806 0 
L 1806 113 
Q 2044 113 2133 169 
Q 2222 225 2256 338 
Q 2272 391 2272 647 
L 2272 1878 
Q 2272 2228 2169 2381 
Q 2031 2581 1784 2581 
Q 1616 2581 1450 2491 
Q 1191 2353 1050 2181 
L 1050 647 
Q 1050 366 1089 281 
Q 1128 197 1204 155 
Q 1281 113 1516 113 
L 1516 0 
L 100 0 
L 100 113 
Q 297 113 375 155 
Q 453 197 493 289 
Q 534 381 534 647 
L 534 1741 
Q 534 2213 506 2350 
Q 484 2453 437 2492 
Q 391 2531 309 2531 
Q 222 2531 100 2484 
L 53 2597 
L 916 2947 
L 1050 2947 
L 1050 2338 
z
" transform="scale(0.015625)"/>
      <path id="TimesNewRomanPSMT-62" d="M 984 2369 
Q 1400 2947 1881 2947 
Q 2322 2947 2650 2570 
Q 2978 2194 2978 1541 
Q 2978 778 2472 313 
Q 2038 -88 1503 -88 
Q 1253 -88 995 3 
Q 738 94 469 275 
L 469 3241 
Q 469 3728 445 3840 
Q 422 3953 372 3993 
Q 322 4034 247 4034 
Q 159 4034 28 3984 
L -16 4094 
L 844 4444 
L 984 4444 
L 984 2369 
z
M 984 2169 
L 984 456 
Q 1144 300 1314 220 
Q 1484 141 1663 141 
Q 1947 141 2192 453 
Q 2438 766 2438 1363 
Q 2438 1913 2192 2208 
Q 1947 2503 1634 2503 
Q 1469 2503 1303 2419 
Q 1178 2356 984 2169 
z
" transform="scale(0.015625)"/>
      <path id="TimesNewRomanPSMT-75" d="M 2709 2863 
L 2709 1128 
Q 2709 631 2732 520 
Q 2756 409 2807 365 
Q 2859 322 2928 322 
Q 3025 322 3147 375 
L 3191 266 
L 2334 -88 
L 2194 -88 
L 2194 519 
Q 1825 119 1631 15 
Q 1438 -88 1222 -88 
Q 981 -88 804 51 
Q 628 191 559 409 
Q 491 628 491 1028 
L 491 2306 
Q 491 2509 447 2587 
Q 403 2666 317 2708 
Q 231 2750 6 2747 
L 6 2863 
L 1009 2863 
L 1009 947 
Q 1009 547 1148 422 
Q 1288 297 1484 297 
Q 1619 297 1789 381 
Q 1959 466 2194 703 
L 2194 2325 
Q 2194 2569 2105 2655 
Q 2016 2741 1734 2747 
L 1734 2863 
L 2709 2863 
z
" transform="scale(0.015625)"/>
      <path id="TimesNewRomanPSMT-63" d="M 2631 1088 
Q 2516 522 2178 217 
Q 1841 -88 1431 -88 
Q 944 -88 581 321 
Q 219 731 219 1428 
Q 219 2103 620 2525 
Q 1022 2947 1584 2947 
Q 2006 2947 2278 2723 
Q 2550 2500 2550 2259 
Q 2550 2141 2473 2067 
Q 2397 1994 2259 1994 
Q 2075 1994 1981 2113 
Q 1928 2178 1911 2362 
Q 1894 2547 1784 2644 
Q 1675 2738 1481 2738 
Q 1169 2738 978 2506 
Q 725 2200 725 1697 
Q 725 1184 976 792 
Q 1228 400 1656 400 
Q 1963 400 2206 609 
Q 2378 753 2541 1131 
L 2631 1088 
z
" transform="scale(0.015625)"/>
      <path id="TimesNewRomanPSMT-68" d="M 1041 4444 
L 1041 2350 
Q 1388 2731 1591 2839 
Q 1794 2947 1997 2947 
Q 2241 2947 2416 2812 
Q 2591 2678 2675 2391 
Q 2734 2191 2734 1659 
L 2734 647 
Q 2734 375 2778 275 
Q 2809 200 2884 156 
Q 2959 113 3159 113 
L 3159 0 
L 1753 0 
L 1753 113 
L 1819 113 
Q 2019 113 2097 173 
Q 2175 234 2206 353 
Q 2216 403 2216 647 
L 2216 1659 
Q 2216 2128 2167 2275 
Q 2119 2422 2012 2495 
Q 1906 2569 1756 2569 
Q 1603 2569 1437 2487 
Q 1272 2406 1041 2159 
L 1041 647 
Q 1041 353 1073 281 
Q 1106 209 1195 161 
Q 1284 113 1503 113 
L 1503 0 
L 84 0 
L 84 113 
Q 275 113 384 172 
Q 447 203 484 290 
Q 522 378 522 647 
L 522 3238 
Q 522 3728 498 3840 
Q 475 3953 426 3993 
Q 378 4034 297 4034 
Q 231 4034 84 3984 
L 41 4094 
L 897 4444 
L 1041 4444 
z
" transform="scale(0.015625)"/>
     </defs>
     <use xlink:href="#TimesNewRomanPSMT-4b"/>
     <use xlink:href="#TimesNewRomanPSMT-6f" transform="translate(72.216797 0)"/>
     <use xlink:href="#TimesNewRomanPSMT-6d" transform="translate(122.216797 0)"/>
     <use xlink:href="#TimesNewRomanPSMT-62" transform="translate(200 0)"/>
     <use xlink:href="#TimesNewRomanPSMT-75" transform="translate(250 0)"/>
     <use xlink:href="#TimesNewRomanPSMT-63" transform="translate(300 0)"/>
     <use xlink:href="#TimesNewRomanPSMT-68" transform="translate(344.384766 0)"/>
     <use xlink:href="#TimesNewRomanPSMT-61" transform="translate(394.384766 0)"/>
    </g>
   </g>
  </g>
  <g id="axes_4">
   <g id="patch_8">
    <path d="M 139.769422 238.84 
L 734.638922 238.84 
L 734.638922 150.312 
L 139.769422 150.312 
L 139.769422 238.84 
z
" style="fill: none; opacity: 0"/>
   </g>
   <g id="FillBetweenPolyCollection_4">
    <defs>
     <path id="mfebb250bcc" d="M 139.769422 -57.939154 
L 139.769422 -41.815313 
L 142.758716 -41.815313 
L 145.74801 -41.815313 
L 148.737304 -41.815313 
L 151.726598 -41.815313 
L 154.715892 -41.815313 
L 157.705186 -41.815313 
L 160.69448 -41.815313 
L 163.683774 -41.815313 
L 166.673068 -41.815313 
L 169.662362 -41.815313 
L 172.651656 -41.815313 
L 175.64095 -41.815313 
L 178.630244 -41.815313 
L 181.619538 -41.815313 
L 184.608832 -41.815313 
L 187.598126 -41.815313 
L 190.58742 -41.815313 
L 193.576714 -41.815313 
L 196.566008 -41.815313 
L 199.555302 -41.815313 
L 202.544596 -41.815313 
L 205.53389 -41.815313 
L 208.523184 -41.815313 
L 211.512478 -41.815313 
L 214.501772 -41.815313 
L 217.491066 -41.815313 
L 220.48036 -41.815313 
L 223.469654 -41.815313 
L 226.458948 -41.815313 
L 229.448242 -41.815313 
L 232.437536 -41.815313 
L 235.42683 -41.815313 
L 238.416124 -41.815313 
L 241.405417 -41.815313 
L 244.394711 -41.815313 
L 247.384005 -41.815313 
L 250.373299 -41.815313 
L 253.362593 -41.815313 
L 256.351887 -41.815313 
L 259.341181 -41.815313 
L 262.330475 -41.815313 
L 265.319769 -41.815313 
L 268.309063 -41.815313 
L 271.298357 -41.815313 
L 274.287651 -41.815313 
L 277.276945 -41.815313 
L 280.266239 -41.815313 
L 283.255533 -41.815313 
L 286.244827 -41.815313 
L 289.234121 -41.815313 
L 292.223415 -41.815313 
L 295.212709 -41.815313 
L 298.202003 -41.815313 
L 301.191297 -41.815313 
L 304.180591 -41.815313 
L 307.169885 -41.815313 
L 310.159179 -41.815313 
L 313.148473 -41.815313 
L 316.137767 -41.815313 
L 319.127061 -41.815313 
L 322.116355 -41.815313 
L 325.105649 -41.815313 
L 328.094943 -41.815313 
L 331.084237 -41.815313 
L 334.073531 -41.815313 
L 337.062825 -41.815313 
L 340.052118 -41.815313 
L 343.041412 -41.815313 
L 346.030706 -41.815313 
L 349.02 -41.815313 
L 352.009294 -41.815313 
L 354.998588 -41.815313 
L 357.987882 -41.815313 
L 360.977176 -41.815313 
L 363.96647 -41.815313 
L 366.955764 -41.815313 
L 369.945058 -41.815313 
L 372.934352 -41.815313 
L 375.923646 -41.815313 
L 378.91294 -41.815313 
L 381.902234 -41.815313 
L 384.891528 -41.815313 
L 387.880822 -41.815313 
L 390.870116 -41.815313 
L 393.85941 -41.815313 
L 396.848704 -41.815313 
L 399.837998 -41.815313 
L 402.827292 -41.815313 
L 405.816586 -41.815313 
L 408.80588 -41.815313 
L 411.795174 -41.815313 
L 414.784468 -41.815313 
L 417.773762 -41.815313 
L 420.763056 -41.815313 
L 423.75235 -41.815313 
L 426.741644 -41.815313 
L 429.730938 -41.815313 
L 432.720232 -41.815313 
L 435.709526 -41.815313 
L 438.698819 -41.815313 
L 441.688113 -41.815313 
L 444.677407 -41.815313 
L 447.666701 -41.815313 
L 450.655995 -41.815313 
L 453.645289 -41.815313 
L 456.634583 -41.815313 
L 459.623877 -41.815313 
L 462.613171 -41.815313 
L 465.602465 -41.815313 
L 468.591759 -41.815313 
L 471.581053 -41.815313 
L 474.570347 -41.815313 
L 477.559641 -41.815313 
L 480.548935 -41.815313 
L 483.538229 -41.815313 
L 486.527523 -41.815313 
L 489.516817 -41.815313 
L 492.506111 -41.815313 
L 495.495405 -41.815313 
L 498.484699 -41.815313 
L 501.473993 -41.815313 
L 504.463287 -41.815313 
L 507.452581 -41.815313 
L 510.441875 -41.815313 
L 513.431169 -41.815313 
L 516.420463 -41.815313 
L 519.409757 -41.815313 
L 522.399051 -41.815313 
L 525.388345 -41.815313 
L 528.377639 -41.815313 
L 531.366933 -41.815313 
L 534.356227 -41.815313 
L 537.34552 -41.815313 
L 540.334814 -41.815313 
L 543.324108 -41.815313 
L 546.313402 -41.815313 
L 549.302696 -41.815313 
L 552.29199 -41.815313 
L 555.281284 -41.815313 
L 558.270578 -41.815313 
L 561.259872 -41.815313 
L 564.249166 -41.815313 
L 567.23846 -41.815313 
L 570.227754 -41.815313 
L 573.217048 -41.815313 
L 576.206342 -41.815313 
L 579.195636 -41.815313 
L 582.18493 -41.815313 
L 585.174224 -41.815313 
L 588.163518 -41.815313 
L 591.152812 -41.815313 
L 594.142106 -41.815313 
L 597.1314 -41.815313 
L 600.120694 -41.815313 
L 603.109988 -41.815313 
L 606.099282 -41.815313 
L 609.088576 -41.815313 
L 612.07787 -41.815313 
L 615.067164 -41.815313 
L 618.056458 -41.815313 
L 621.045752 -41.815313 
L 624.035046 -41.815313 
L 627.02434 -41.815313 
L 630.013634 -41.815313 
L 633.002928 -41.815313 
L 635.992221 -41.815313 
L 638.981515 -41.815313 
L 641.970809 -41.815313 
L 644.960103 -41.815313 
L 647.949397 -41.815313 
L 650.938691 -41.815313 
L 653.927985 -41.815313 
L 656.917279 -41.815313 
L 659.906573 -41.815313 
L 662.895867 -41.815313 
L 665.885161 -41.815313 
L 668.874455 -41.815313 
L 671.863749 -41.815313 
L 674.853043 -41.815313 
L 677.842337 -41.815313 
L 680.831631 -41.815313 
L 683.820925 -41.815313 
L 686.810219 -41.815313 
L 689.799513 -41.815313 
L 692.788807 -41.815313 
L 695.778101 -41.815313 
L 698.767395 -41.815313 
L 701.756689 -41.815313 
L 704.745983 -41.815313 
L 707.735277 -41.815313 
L 710.724571 -41.815313 
L 713.713865 -41.815313 
L 716.703159 -41.815313 
L 719.692453 -41.815313 
L 722.681747 -41.815313 
L 725.671041 -41.815313 
L 728.660335 -41.815313 
L 731.649629 -41.815313 
L 734.638922 -41.815313 
L 734.638922 -64.227333 
L 734.638922 -64.227333 
L 731.649629 -65.227782 
L 728.660335 -66.225902 
L 725.671041 -67.217903 
L 722.681747 -68.199924 
L 719.692453 -69.168066 
L 716.703159 -70.118429 
L 713.713865 -71.047142 
L 710.724571 -71.950398 
L 707.735277 -72.824496 
L 704.745983 -73.665868 
L 701.756689 -74.471119 
L 698.767395 -75.237057 
L 695.778101 -75.960724 
L 692.788807 -76.639427 
L 689.799513 -77.270762 
L 686.810219 -77.852637 
L 683.820925 -78.383292 
L 680.831631 -78.861317 
L 677.842337 -79.285657 
L 674.853043 -79.655627 
L 671.863749 -79.970911 
L 668.874455 -80.231559 
L 665.885161 -80.437988 
L 662.895867 -80.590966 
L 659.906573 -80.691602 
L 656.917279 -80.741327 
L 653.927985 -80.741873 
L 650.938691 -80.695251 
L 647.949397 -80.603723 
L 644.960103 -80.469773 
L 641.970809 -80.296077 
L 638.981515 -80.08547 
L 635.992221 -79.840917 
L 633.002928 -79.565474 
L 630.013634 -79.262261 
L 627.02434 -78.934425 
L 624.035046 -78.585114 
L 621.045752 -78.217444 
L 618.056458 -77.834471 
L 615.067164 -77.439168 
L 612.07787 -77.034401 
L 609.088576 -76.622907 
L 606.099282 -76.207277 
L 603.109988 -75.789945 
L 600.120694 -75.373169 
L 597.1314 -74.959028 
L 594.142106 -74.549414 
L 591.152812 -74.146026 
L 588.163518 -73.750374 
L 585.174224 -73.363777 
L 582.18493 -72.987367 
L 579.195636 -72.622097 
L 576.206342 -72.268745 
L 573.217048 -71.927924 
L 570.227754 -71.600094 
L 567.23846 -71.285569 
L 564.249166 -70.984533 
L 561.259872 -70.697045 
L 558.270578 -70.42306 
L 555.281284 -70.162432 
L 552.29199 -69.914933 
L 549.302696 -69.680259 
L 546.313402 -69.458045 
L 543.324108 -69.247873 
L 540.334814 -69.04928 
L 537.34552 -68.861773 
L 534.356227 -68.68483 
L 531.366933 -68.517913 
L 528.377639 -68.36047 
L 525.388345 -68.211946 
L 522.399051 -68.071781 
L 519.409757 -67.939423 
L 516.420463 -67.814325 
L 513.431169 -67.695952 
L 510.441875 -67.583781 
L 507.452581 -67.477308 
L 504.463287 -67.376042 
L 501.473993 -67.279516 
L 498.484699 -67.187281 
L 495.495405 -67.098908 
L 492.506111 -67.013994 
L 489.516817 -66.932155 
L 486.527523 -66.853032 
L 483.538229 -66.776289 
L 480.548935 -66.701612 
L 477.559641 -66.628713 
L 474.570347 -66.557325 
L 471.581053 -66.487206 
L 468.591759 -66.418137 
L 465.602465 -66.349923 
L 462.613171 -66.282389 
L 459.623877 -66.215388 
L 456.634583 -66.148791 
L 453.645289 -66.082495 
L 450.655995 -66.016419 
L 447.666701 -65.950504 
L 444.677407 -65.884716 
L 441.688113 -65.819044 
L 438.698819 -65.753497 
L 435.709526 -65.688113 
L 432.720232 -65.622949 
L 429.730938 -65.558091 
L 426.741644 -65.493648 
L 423.75235 -65.429753 
L 420.763056 -65.366565 
L 417.773762 -65.304271 
L 414.784468 -65.243081 
L 411.795174 -65.183232 
L 408.80588 -65.124985 
L 405.816586 -65.068627 
L 402.827292 -65.014467 
L 399.837998 -64.962838 
L 396.848704 -64.914089 
L 393.85941 -64.868592 
L 390.870116 -64.826729 
L 387.880822 -64.788896 
L 384.891528 -64.755494 
L 381.902234 -64.72693 
L 378.91294 -64.703607 
L 375.923646 -64.685919 
L 372.934352 -64.67425 
L 369.945058 -64.668961 
L 366.955764 -64.67039 
L 363.96647 -64.678841 
L 360.977176 -64.69458 
L 357.987882 -64.717829 
L 354.998588 -64.748756 
L 352.009294 -64.787475 
L 349.02 -64.834036 
L 346.030706 -64.888426 
L 343.041412 -64.950557 
L 340.052118 -65.020272 
L 337.062825 -65.097337 
L 334.073531 -65.181444 
L 331.084237 -65.272208 
L 328.094943 -65.369171 
L 325.105649 -65.471805 
L 322.116355 -65.579514 
L 319.127061 -65.691638 
L 316.137767 -65.807464 
L 313.148473 -65.926225 
L 310.159179 -66.047116 
L 307.169885 -66.169296 
L 304.180591 -66.291899 
L 301.191297 -66.414045 
L 298.202003 -66.534845 
L 295.212709 -66.653414 
L 292.223415 -66.768878 
L 289.234121 -66.880381 
L 286.244827 -66.987098 
L 283.255533 -67.088234 
L 280.266239 -67.183037 
L 277.276945 -67.2708 
L 274.287651 -67.350864 
L 271.298357 -67.422622 
L 268.309063 -67.48552 
L 265.319769 -67.539056 
L 262.330475 -67.58278 
L 259.341181 -67.616289 
L 256.351887 -67.639228 
L 253.362593 -67.651282 
L 250.373299 -67.652171 
L 247.384005 -67.641647 
L 244.394711 -67.619483 
L 241.405417 -67.585472 
L 238.416124 -67.539417 
L 235.42683 -67.481124 
L 232.437536 -67.410401 
L 229.448242 -67.327047 
L 226.458948 -67.230852 
L 223.469654 -67.121592 
L 220.48036 -66.999027 
L 217.491066 -66.862898 
L 214.501772 -66.712931 
L 211.512478 -66.548836 
L 208.523184 -66.370308 
L 205.53389 -66.177035 
L 202.544596 -65.968703 
L 199.555302 -65.744997 
L 196.566008 -65.505616 
L 193.576714 -65.250275 
L 190.58742 -64.978718 
L 187.598126 -64.690724 
L 184.608832 -64.386119 
L 181.619538 -64.064783 
L 178.630244 -63.726664 
L 175.64095 -63.371779 
L 172.651656 -63.000229 
L 169.662362 -62.612204 
L 166.673068 -62.207988 
L 163.683774 -61.787964 
L 160.69448 -61.35262 
L 157.705186 -60.90255 
L 154.715892 -60.43845 
L 151.726598 -59.961127 
L 148.737304 -59.471485 
L 145.74801 -58.97053 
L 142.758716 -58.459359 
L 139.769422 -57.939154 
z
" style="stroke: #7ad151"/>
    </defs>
    <g clip-path="url(#p34ec0e59ec)">
     <use xlink:href="#mfebb250bcc" x="0" y="280.655312" style="fill: #7ad151; fill-opacity: 0.5; stroke: #7ad151"/>
    </g>
   </g>
   <g id="matplotlib.axis_7">
    <g id="xtick_19">
     <g id="line2d_25">
      <g>
       <use xlink:href="#m1e28f02751" x="139.769422" y="238.84" style="stroke: #000000; stroke-width: 0.8"/>
      </g>
     </g>
     <g id="text_4">
      <!-- 0 -->
      <g transform="translate(136.769422 254.1725) scale(0.12 -0.12)">
       <defs>
        <path id="TimesNewRomanPSMT-30" d="M 231 2094 
Q 231 2819 450 3342 
Q 669 3866 1031 4122 
Q 1313 4325 1613 4325 
Q 2100 4325 2488 3828 
Q 2972 3213 2972 2159 
Q 2972 1422 2759 906 
Q 2547 391 2217 158 
Q 1888 -75 1581 -75 
Q 975 -75 572 641 
Q 231 1244 231 2094 
z
M 844 2016 
Q 844 1141 1059 588 
Q 1238 122 1591 122 
Q 1759 122 1940 273 
Q 2122 425 2216 781 
Q 2359 1319 2359 2297 
Q 2359 3022 2209 3506 
Q 2097 3866 1919 4016 
Q 1791 4119 1609 4119 
Q 1397 4119 1231 3928 
Q 1006 3669 925 3112 
Q 844 2556 844 2016 
z
" transform="scale(0.015625)"/>
       </defs>
       <use xlink:href="#TimesNewRomanPSMT-30"/>
      </g>
     </g>
    </g>
    <g id="xtick_20">
     <g id="line2d_26">
      <g>
       <use xlink:href="#m1e28f02751" x="258.743322" y="238.84" style="stroke: #000000; stroke-width: 0.8"/>
      </g>
     </g>
     <g id="text_5">
      <!-- 20000 -->
      <g transform="translate(243.743322 254.1725) scale(0.12 -0.12)">
       <defs>
        <path id="TimesNewRomanPSMT-32" d="M 2934 816 
L 2638 0 
L 138 0 
L 138 116 
Q 1241 1122 1691 1759 
Q 2141 2397 2141 2925 
Q 2141 3328 1894 3587 
Q 1647 3847 1303 3847 
Q 991 3847 742 3664 
Q 494 3481 375 3128 
L 259 3128 
Q 338 3706 661 4015 
Q 984 4325 1469 4325 
Q 1984 4325 2329 3994 
Q 2675 3663 2675 3213 
Q 2675 2891 2525 2569 
Q 2294 2063 1775 1497 
Q 997 647 803 472 
L 1909 472 
Q 2247 472 2383 497 
Q 2519 522 2628 598 
Q 2738 675 2819 816 
L 2934 816 
z
" transform="scale(0.015625)"/>
       </defs>
       <use xlink:href="#TimesNewRomanPSMT-32"/>
       <use xlink:href="#TimesNewRomanPSMT-30" transform="translate(50 0)"/>
       <use xlink:href="#TimesNewRomanPSMT-30" transform="translate(100 0)"/>
       <use xlink:href="#TimesNewRomanPSMT-30" transform="translate(150 0)"/>
       <use xlink:href="#TimesNewRomanPSMT-30" transform="translate(200 0)"/>
      </g>
     </g>
    </g>
    <g id="xtick_21">
     <g id="line2d_27">
      <g>
       <use xlink:href="#m1e28f02751" x="377.717222" y="238.84" style="stroke: #000000; stroke-width: 0.8"/>
      </g>
     </g>
     <g id="text_6">
      <!-- 40000 -->
      <g transform="translate(362.717222 254.1725) scale(0.12 -0.12)">
       <defs>
        <path id="TimesNewRomanPSMT-34" d="M 2978 1563 
L 2978 1119 
L 2409 1119 
L 2409 0 
L 1894 0 
L 1894 1119 
L 100 1119 
L 100 1519 
L 2066 4325 
L 2409 4325 
L 2409 1563 
L 2978 1563 
z
M 1894 1563 
L 1894 3666 
L 406 1563 
L 1894 1563 
z
" transform="scale(0.015625)"/>
       </defs>
       <use xlink:href="#TimesNewRomanPSMT-34"/>
       <use xlink:href="#TimesNewRomanPSMT-30" transform="translate(50 0)"/>
       <use xlink:href="#TimesNewRomanPSMT-30" transform="translate(100 0)"/>
       <use xlink:href="#TimesNewRomanPSMT-30" transform="translate(150 0)"/>
       <use xlink:href="#TimesNewRomanPSMT-30" transform="translate(200 0)"/>
      </g>
     </g>
    </g>
    <g id="xtick_22">
     <g id="line2d_28">
      <g>
       <use xlink:href="#m1e28f02751" x="496.691123" y="238.84" style="stroke: #000000; stroke-width: 0.8"/>
      </g>
     </g>
     <g id="text_7">
      <!-- 60000 -->
      <g transform="translate(481.691123 254.1725) scale(0.12 -0.12)">
       <defs>
        <path id="TimesNewRomanPSMT-36" d="M 2869 4325 
L 2869 4209 
Q 2456 4169 2195 4045 
Q 1934 3922 1679 3669 
Q 1425 3416 1258 3105 
Q 1091 2794 978 2366 
Q 1428 2675 1881 2675 
Q 2316 2675 2634 2325 
Q 2953 1975 2953 1425 
Q 2953 894 2631 456 
Q 2244 -75 1606 -75 
Q 1172 -75 869 213 
Q 275 772 275 1663 
Q 275 2231 503 2743 
Q 731 3256 1154 3653 
Q 1578 4050 1965 4187 
Q 2353 4325 2688 4325 
L 2869 4325 
z
M 925 2138 
Q 869 1716 869 1456 
Q 869 1156 980 804 
Q 1091 453 1309 247 
Q 1469 100 1697 100 
Q 1969 100 2183 356 
Q 2397 613 2397 1088 
Q 2397 1622 2184 2012 
Q 1972 2403 1581 2403 
Q 1463 2403 1327 2353 
Q 1191 2303 925 2138 
z
" transform="scale(0.015625)"/>
       </defs>
       <use xlink:href="#TimesNewRomanPSMT-36"/>
       <use xlink:href="#TimesNewRomanPSMT-30" transform="translate(50 0)"/>
       <use xlink:href="#TimesNewRomanPSMT-30" transform="translate(100 0)"/>
       <use xlink:href="#TimesNewRomanPSMT-30" transform="translate(150 0)"/>
       <use xlink:href="#TimesNewRomanPSMT-30" transform="translate(200 0)"/>
      </g>
     </g>
    </g>
    <g id="xtick_23">
     <g id="line2d_29">
      <g>
       <use xlink:href="#m1e28f02751" x="615.665022" y="238.84" style="stroke: #000000; stroke-width: 0.8"/>
      </g>
     </g>
     <g id="text_8">
      <!-- 80000 -->
      <g transform="translate(600.665022 254.1725) scale(0.12 -0.12)">
       <defs>
        <path id="TimesNewRomanPSMT-38" d="M 1228 2134 
Q 725 2547 579 2797 
Q 434 3047 434 3316 
Q 434 3728 753 4026 
Q 1072 4325 1600 4325 
Q 2113 4325 2425 4047 
Q 2738 3769 2738 3413 
Q 2738 3175 2569 2928 
Q 2400 2681 1866 2347 
Q 2416 1922 2594 1678 
Q 2831 1359 2831 1006 
Q 2831 559 2490 242 
Q 2150 -75 1597 -75 
Q 994 -75 656 303 
Q 388 606 388 966 
Q 388 1247 577 1523 
Q 766 1800 1228 2134 
z
M 1719 2469 
Q 2094 2806 2194 3001 
Q 2294 3197 2294 3444 
Q 2294 3772 2109 3958 
Q 1925 4144 1606 4144 
Q 1288 4144 1088 3959 
Q 888 3775 888 3528 
Q 888 3366 970 3203 
Q 1053 3041 1206 2894 
L 1719 2469 
z
M 1375 2016 
Q 1116 1797 991 1539 
Q 866 1281 866 981 
Q 866 578 1086 336 
Q 1306 94 1647 94 
Q 1984 94 2187 284 
Q 2391 475 2391 747 
Q 2391 972 2272 1150 
Q 2050 1481 1375 2016 
z
" transform="scale(0.015625)"/>
       </defs>
       <use xlink:href="#TimesNewRomanPSMT-38"/>
       <use xlink:href="#TimesNewRomanPSMT-30" transform="translate(50 0)"/>
       <use xlink:href="#TimesNewRomanPSMT-30" transform="translate(100 0)"/>
       <use xlink:href="#TimesNewRomanPSMT-30" transform="translate(150 0)"/>
       <use xlink:href="#TimesNewRomanPSMT-30" transform="translate(200 0)"/>
      </g>
     </g>
    </g>
    <g id="xtick_24">
     <g id="line2d_30">
      <g>
       <use xlink:href="#m1e28f02751" x="734.638922" y="238.84" style="stroke: #000000; stroke-width: 0.8"/>
      </g>
     </g>
     <g id="text_9">
      <!-- 100000 -->
      <g transform="translate(716.638922 254.1725) scale(0.12 -0.12)">
       <defs>
        <path id="TimesNewRomanPSMT-31" d="M 750 3822 
L 1781 4325 
L 1884 4325 
L 1884 747 
Q 1884 391 1914 303 
Q 1944 216 2037 169 
Q 2131 122 2419 116 
L 2419 0 
L 825 0 
L 825 116 
Q 1125 122 1212 167 
Q 1300 213 1334 289 
Q 1369 366 1369 747 
L 1369 3034 
Q 1369 3497 1338 3628 
Q 1316 3728 1258 3775 
Q 1200 3822 1119 3822 
Q 1003 3822 797 3725 
L 750 3822 
z
" transform="scale(0.015625)"/>
       </defs>
       <use xlink:href="#TimesNewRomanPSMT-31"/>
       <use xlink:href="#TimesNewRomanPSMT-30" transform="translate(50 0)"/>
       <use xlink:href="#TimesNewRomanPSMT-30" transform="translate(100 0)"/>
       <use xlink:href="#TimesNewRomanPSMT-30" transform="translate(150 0)"/>
       <use xlink:href="#TimesNewRomanPSMT-30" transform="translate(200 0)"/>
       <use xlink:href="#TimesNewRomanPSMT-30" transform="translate(250 0)"/>
      </g>
     </g>
    </g>
    <g id="text_10">
     <!-- Value -->
     <g transform="translate(421.268235 270.460625) scale(0.14 -0.14)">
      <defs>
       <path id="TimesNewRomanPSMT-56" d="M 4544 4238 
L 4544 4122 
Q 4319 4081 4203 3978 
Q 4038 3825 3909 3509 
L 2431 -97 
L 2316 -97 
L 728 3556 
Q 606 3838 556 3900 
Q 478 3997 364 4051 
Q 250 4106 56 4122 
L 56 4238 
L 1788 4238 
L 1788 4122 
Q 1494 4094 1406 4022 
Q 1319 3950 1319 3838 
Q 1319 3681 1463 3350 
L 2541 866 
L 3541 3319 
Q 3688 3681 3688 3822 
Q 3688 3913 3597 3995 
Q 3506 4078 3291 4113 
Q 3275 4116 3238 4122 
L 3238 4238 
L 4544 4238 
z
" transform="scale(0.015625)"/>
      </defs>
      <use xlink:href="#TimesNewRomanPSMT-56"/>
      <use xlink:href="#TimesNewRomanPSMT-61" transform="translate(61.091797 0)"/>
      <use xlink:href="#TimesNewRomanPSMT-6c" transform="translate(105.476562 0)"/>
      <use xlink:href="#TimesNewRomanPSMT-75" transform="translate(133.259766 0)"/>
      <use xlink:href="#TimesNewRomanPSMT-65" transform="translate(183.259766 0)"/>
     </g>
    </g>
   </g>
   <g id="matplotlib.axis_8"/>
   <g id="line2d_31">
    <path d="M 139.769422 222.716158 
L 154.715892 220.216862 
L 166.673068 218.447325 
L 178.630244 216.928649 
L 190.58742 215.676595 
L 202.544596 214.68661 
L 214.501772 213.942381 
L 226.458948 213.424461 
L 238.416124 213.115896 
L 250.373299 213.003141 
L 265.319769 213.116256 
L 280.266239 213.472276 
L 301.191297 214.241268 
L 334.073531 215.473869 
L 352.009294 215.867838 
L 366.955764 215.984923 
L 384.891528 215.899818 
L 408.80588 215.530328 
L 462.613171 214.372923 
L 498.484699 213.468032 
L 519.409757 212.71589 
L 534.356227 211.970482 
L 549.302696 210.975053 
L 561.259872 209.958267 
L 573.217048 208.727389 
L 585.174224 207.291536 
L 603.109988 204.865367 
L 621.045752 202.437869 
L 630.013634 201.393052 
L 638.981515 200.569842 
L 644.960103 200.18554 
L 650.938691 199.960061 
L 656.917279 199.913986 
L 662.895867 200.064346 
L 668.874455 200.423753 
L 674.853043 200.999685 
L 680.831631 201.793996 
L 686.810219 202.802676 
L 692.788807 204.015886 
L 698.767395 205.418256 
L 704.745983 206.989444 
L 713.713865 209.608171 
L 725.671041 213.437409 
L 734.638922 216.42798 
L 734.638922 216.42798 
" clip-path="url(#p34ec0e59ec)" style="fill: none; stroke: #ffffff; stroke-width: 2; stroke-linecap: square"/>
   </g>
   <g id="line2d_32">
    <path d="M 139.769422 238.84 
L 734.638922 238.84 
" style="fill: none; stroke: #000000; stroke-linecap: square"/>
   </g>
   <g id="text_11">
    <g id="patch_9">
     <path d="M 3.24 248.260937 
L 81.268125 248.260937 
L 81.268125 229.419062 
L 3.24 229.419062 
z
" style="fill: #ffffff; opacity: 0.5"/>
    </g>
    <!-- Energy Drinks -->
    <g transform="translate(7.2 241.711562) scale(0.12 -0.12)">
     <defs>
      <path id="TimesNewRomanPSMT-45" d="M 1338 4006 
L 1338 2331 
L 2269 2331 
Q 2631 2331 2753 2441 
Q 2916 2584 2934 2947 
L 3050 2947 
L 3050 1472 
L 2934 1472 
Q 2891 1781 2847 1869 
Q 2791 1978 2662 2040 
Q 2534 2103 2269 2103 
L 1338 2103 
L 1338 706 
Q 1338 425 1363 364 
Q 1388 303 1450 267 
Q 1513 231 1688 231 
L 2406 231 
Q 2766 231 2928 281 
Q 3091 331 3241 478 
Q 3434 672 3638 1063 
L 3763 1063 
L 3397 0 
L 131 0 
L 131 116 
L 281 116 
Q 431 116 566 188 
Q 666 238 702 338 
Q 738 438 738 747 
L 738 3500 
Q 738 3903 656 3997 
Q 544 4122 281 4122 
L 131 4122 
L 131 4238 
L 3397 4238 
L 3444 3309 
L 3322 3309 
Q 3256 3644 3176 3769 
Q 3097 3894 2941 3959 
Q 2816 4006 2500 4006 
L 1338 4006 
z
" transform="scale(0.015625)"/>
      <path id="TimesNewRomanPSMT-67" d="M 966 1044 
Q 703 1172 562 1401 
Q 422 1631 422 1909 
Q 422 2334 742 2640 
Q 1063 2947 1563 2947 
Q 1972 2947 2272 2747 
L 2878 2747 
Q 3013 2747 3034 2739 
Q 3056 2731 3066 2713 
Q 3084 2684 3084 2613 
Q 3084 2531 3069 2500 
Q 3059 2484 3036 2475 
Q 3013 2466 2878 2466 
L 2506 2466 
Q 2681 2241 2681 1891 
Q 2681 1491 2375 1206 
Q 2069 922 1553 922 
Q 1341 922 1119 984 
Q 981 866 932 777 
Q 884 688 884 625 
Q 884 572 936 522 
Q 988 472 1138 450 
Q 1225 438 1575 428 
Q 2219 413 2409 384 
Q 2700 344 2873 169 
Q 3047 -6 3047 -263 
Q 3047 -616 2716 -925 
Q 2228 -1381 1444 -1381 
Q 841 -1381 425 -1109 
Q 191 -953 191 -784 
Q 191 -709 225 -634 
Q 278 -519 444 -313 
Q 466 -284 763 25 
Q 600 122 533 198 
Q 466 275 466 372 
Q 466 481 555 628 
Q 644 775 966 1044 
z
M 1509 2797 
Q 1278 2797 1122 2612 
Q 966 2428 966 2047 
Q 966 1553 1178 1281 
Q 1341 1075 1591 1075 
Q 1828 1075 1981 1253 
Q 2134 1431 2134 1813 
Q 2134 2309 1919 2591 
Q 1759 2797 1509 2797 
z
M 934 0 
Q 788 -159 713 -296 
Q 638 -434 638 -550 
Q 638 -700 819 -813 
Q 1131 -1006 1722 -1006 
Q 2284 -1006 2551 -807 
Q 2819 -609 2819 -384 
Q 2819 -222 2659 -153 
Q 2497 -84 2016 -72 
Q 1313 -53 934 0 
z
" transform="scale(0.015625)"/>
      <path id="TimesNewRomanPSMT-79" d="M 38 2863 
L 1372 2863 
L 1372 2747 
L 1306 2747 
Q 1166 2747 1095 2686 
Q 1025 2625 1025 2534 
Q 1025 2413 1128 2197 
L 1825 753 
L 2466 2334 
Q 2519 2463 2519 2588 
Q 2519 2644 2497 2672 
Q 2472 2706 2419 2726 
Q 2366 2747 2231 2747 
L 2231 2863 
L 3163 2863 
L 3163 2747 
Q 3047 2734 2984 2696 
Q 2922 2659 2847 2556 
Q 2819 2513 2741 2316 
L 1575 -541 
Q 1406 -956 1132 -1168 
Q 859 -1381 606 -1381 
Q 422 -1381 303 -1275 
Q 184 -1169 184 -1031 
Q 184 -900 270 -820 
Q 356 -741 506 -741 
Q 609 -741 788 -809 
Q 913 -856 944 -856 
Q 1038 -856 1148 -759 
Q 1259 -663 1372 -384 
L 1575 113 
L 547 2272 
Q 500 2369 397 2513 
Q 319 2622 269 2659 
Q 197 2709 38 2747 
L 38 2863 
z
" transform="scale(0.015625)"/>
     </defs>
     <use xlink:href="#TimesNewRomanPSMT-45"/>
     <use xlink:href="#TimesNewRomanPSMT-6e" transform="translate(61.083984 0)"/>
     <use xlink:href="#TimesNewRomanPSMT-65" transform="translate(111.083984 0)"/>
     <use xlink:href="#TimesNewRomanPSMT-72" transform="translate(155.46875 0)"/>
     <use xlink:href="#TimesNewRomanPSMT-67" transform="translate(187.019531 0)"/>
     <use xlink:href="#TimesNewRomanPSMT-79" transform="translate(237.019531 0)"/>
     <use xlink:href="#TimesNewRomanPSMT-20" transform="translate(287.019531 0)"/>
     <use xlink:href="#TimesNewRomanPSMT-44" transform="translate(312.019531 0)"/>
     <use xlink:href="#TimesNewRomanPSMT-72" transform="translate(384.236328 0)"/>
     <use xlink:href="#TimesNewRomanPSMT-69" transform="translate(417.537109 0)"/>
     <use xlink:href="#TimesNewRomanPSMT-6e" transform="translate(445.320312 0)"/>
     <use xlink:href="#TimesNewRomanPSMT-6b" transform="translate(495.320312 0)"/>
     <use xlink:href="#TimesNewRomanPSMT-73" transform="translate(545.320312 0)"/>
    </g>
   </g>
  </g>
  <g id="text_12">
   <!-- Beverage Sales(bottles) -->
   <g transform="translate(309.686422 18.31) scale(0.16 -0.16)">
    <defs>
     <path id="TimesNewRomanPSMT-76" d="M 53 2863 
L 1400 2863 
L 1400 2747 
L 1313 2747 
Q 1191 2747 1127 2687 
Q 1063 2628 1063 2528 
Q 1063 2419 1128 2269 
L 1794 688 
L 2463 2328 
Q 2534 2503 2534 2594 
Q 2534 2638 2509 2666 
Q 2475 2713 2422 2730 
Q 2369 2747 2206 2747 
L 2206 2863 
L 3141 2863 
L 3141 2747 
Q 2978 2734 2916 2681 
Q 2806 2588 2719 2369 
L 1703 -88 
L 1575 -88 
L 553 2328 
Q 484 2497 421 2570 
Q 359 2644 263 2694 
Q 209 2722 53 2747 
L 53 2863 
z
" transform="scale(0.015625)"/>
     <path id="TimesNewRomanPSMT-28" d="M 1988 -1253 
L 1988 -1369 
Q 1516 -1131 1200 -813 
Q 750 -359 506 256 
Q 263 872 263 1534 
Q 263 2503 741 3301 
Q 1219 4100 1988 4444 
L 1988 4313 
Q 1603 4100 1356 3731 
Q 1109 3363 987 2797 
Q 866 2231 866 1616 
Q 866 947 969 400 
Q 1050 -31 1165 -292 
Q 1281 -553 1476 -793 
Q 1672 -1034 1988 -1253 
z
" transform="scale(0.015625)"/>
     <path id="TimesNewRomanPSMT-29" d="M 144 4313 
L 144 4444 
Q 619 4209 934 3891 
Q 1381 3434 1625 2820 
Q 1869 2206 1869 1541 
Q 1869 572 1392 -226 
Q 916 -1025 144 -1369 
L 144 -1253 
Q 528 -1038 776 -670 
Q 1025 -303 1145 264 
Q 1266 831 1266 1447 
Q 1266 2113 1163 2663 
Q 1084 3094 967 3353 
Q 850 3613 656 3853 
Q 463 4094 144 4313 
z
" transform="scale(0.015625)"/>
    </defs>
    <use xlink:href="#TimesNewRomanPSMT-42"/>
    <use xlink:href="#TimesNewRomanPSMT-65" transform="translate(66.699219 0)"/>
    <use xlink:href="#TimesNewRomanPSMT-76" transform="translate(111.083984 0)"/>
    <use xlink:href="#TimesNewRomanPSMT-65" transform="translate(161.083984 0)"/>
    <use xlink:href="#TimesNewRomanPSMT-72" transform="translate(205.46875 0)"/>
    <use xlink:href="#TimesNewRomanPSMT-61" transform="translate(238.769531 0)"/>
    <use xlink:href="#TimesNewRomanPSMT-67" transform="translate(283.154297 0)"/>
    <use xlink:href="#TimesNewRomanPSMT-65" transform="translate(333.154297 0)"/>
    <use xlink:href="#TimesNewRomanPSMT-20" transform="translate(377.539062 0)"/>
    <use xlink:href="#TimesNewRomanPSMT-53" transform="translate(402.539062 0)"/>
    <use xlink:href="#TimesNewRomanPSMT-61" transform="translate(458.154297 0)"/>
    <use xlink:href="#TimesNewRomanPSMT-6c" transform="translate(502.539062 0)"/>
    <use xlink:href="#TimesNewRomanPSMT-65" transform="translate(530.322266 0)"/>
    <use xlink:href="#TimesNewRomanPSMT-73" transform="translate(574.707031 0)"/>
    <use xlink:href="#TimesNewRomanPSMT-28" transform="translate(613.623047 0)"/>
    <use xlink:href="#TimesNewRomanPSMT-62" transform="translate(646.923828 0)"/>
    <use xlink:href="#TimesNewRomanPSMT-6f" transform="translate(696.923828 0)"/>
    <use xlink:href="#TimesNewRomanPSMT-74" transform="translate(746.923828 0)"/>
    <use xlink:href="#TimesNewRomanPSMT-74" transform="translate(774.707031 0)"/>
    <use xlink:href="#TimesNewRomanPSMT-6c" transform="translate(802.490234 0)"/>
    <use xlink:href="#TimesNewRomanPSMT-65" transform="translate(830.273438 0)"/>
    <use xlink:href="#TimesNewRomanPSMT-73" transform="translate(874.658203 0)"/>
    <use xlink:href="#TimesNewRomanPSMT-29" transform="translate(913.574219 0)"/>
   </g>
  </g>
 </g>
 <defs>
  <clipPath id="p80eaba9222">
   <rect x="139.769422" y="17.52" width="594.8695" height="88.528"/>
  </clipPath>
  <clipPath id="p204dc85838">
   <rect x="139.769422" y="61.784" width="594.8695" height="88.528"/>
  </clipPath>
  <clipPath id="pd4c680786c">
   <rect x="139.769422" y="106.048" width="594.8695" height="88.528"/>
  </clipPath>
  <clipPath id="p34ec0e59ec">
   <rect x="139.769422" y="150.312" width="594.8695" height="88.528"/>
  </clipPath>
 </defs>
</svg>
