<?xml version="1.0" encoding="utf-8" standalone="no"?>
<!DOCTYPE svg PUBLIC "-//W3C//DTD SVG 1.1//EN"
  "http://www.w3.org/Graphics/SVG/1.1/DTD/svg11.dtd">
<svg xmlns:xlink="http://www.w3.org/1999/xlink" width="747.337547pt" height="212.255313pt" viewBox="0 0 747.337547 212.255313" xmlns="http://www.w3.org/2000/svg" version="1.1">
 <metadata>
  <rdf:RDF xmlns:dc="http://purl.org/dc/elements/1.1/" xmlns:cc="http://creativecommons.org/ns#" xmlns:rdf="http://www.w3.org/1999/02/22-rdf-syntax-ns#">
   <cc:Work>
    <dc:type rdf:resource="http://purl.org/dc/dcmitype/StillImage"/>
    <dc:date>2025-05-26T21:44:00.715529</dc:date>
    <dc:format>image/svg+xml</dc:format>
    <dc:creator>
     <cc:Agent>
      <dc:title>Matplotlib v3.10.1, https://matplotlib.org/</dc:title>
     </cc:Agent>
    </dc:creator>
   </cc:Work>
  </rdf:RDF>
 </metadata>
 <defs>
  <style type="text/css">*{stroke-linejoin: round; stroke-linecap: butt}</style>
 </defs>
 <g id="figure_1">
  <g id="patch_1">
   <path d="M 0 212.255313 
L 747.337547 212.255313 
L 747.337547 0 
L 0 0 
z
" style="fill: #ffffff"/>
  </g>
  <g id="axes_1">
   <g id="patch_2">
    <path d="M 174.293048 95.78 
L 731.137547 95.78 
L 731.137547 21.12 
L 174.293048 21.12 
L 174.293048 95.78 
z
" style="fill: none; opacity: 0"/>
   </g>
   <g id="FillBetweenPolyCollection_1">
    <defs>
     <path id="m2734e07383" d="M 174.293048 -122.771442 
L 174.293048 -116.475313 
L 177.091261 -116.475313 
L 179.889475 -116.475313 
L 182.687688 -116.475313 
L 185.485902 -116.475313 
L 188.284115 -116.475313 
L 191.082329 -116.475313 
L 193.880542 -116.475313 
L 196.678756 -116.475313 
L 199.47697 -116.475313 
L 202.275183 -116.475313 
L 205.073397 -116.475313 
L 207.87161 -116.475313 
L 210.669824 -116.475313 
L 213.468037 -116.475313 
L 216.266251 -116.475313 
L 219.064465 -116.475313 
L 221.862678 -116.475313 
L 224.660892 -116.475313 
L 227.459105 -116.475313 
L 230.257319 -116.475313 
L 233.055532 -116.475313 
L 235.853746 -116.475313 
L 238.65196 -116.475313 
L 241.450173 -116.475313 
L 244.248387 -116.475313 
L 247.0466 -116.475313 
L 249.844814 -116.475313 
L 252.643027 -116.475313 
L 255.441241 -116.475313 
L 258.239455 -116.475313 
L 261.037668 -116.475313 
L 263.835882 -116.475313 
L 266.634095 -116.475313 
L 269.432309 -116.475313 
L 272.230522 -116.475313 
L 275.028736 -116.475313 
L 277.82695 -116.475313 
L 280.625163 -116.475313 
L 283.423377 -116.475313 
L 286.22159 -116.475313 
L 289.019804 -116.475313 
L 291.818017 -116.475313 
L 294.616231 -116.475313 
L 297.414444 -116.475313 
L 300.212658 -116.475313 
L 303.010872 -116.475313 
L 305.809085 -116.475313 
L 308.607299 -116.475313 
L 311.405512 -116.475313 
L 314.203726 -116.475313 
L 317.001939 -116.475313 
L 319.800153 -116.475313 
L 322.598367 -116.475313 
L 325.39658 -116.475313 
L 328.194794 -116.475313 
L 330.993007 -116.475313 
L 333.791221 -116.475313 
L 336.589434 -116.475313 
L 339.387648 -116.475313 
L 342.185862 -116.475313 
L 344.984075 -116.475313 
L 347.782289 -116.475313 
L 350.580502 -116.475313 
L 353.378716 -116.475313 
L 356.176929 -116.475313 
L 358.975143 -116.475313 
L 361.773357 -116.475313 
L 364.57157 -116.475313 
L 367.369784 -116.475313 
L 370.167997 -116.475313 
L 372.966211 -116.475313 
L 375.764424 -116.475313 
L 378.562638 -116.475313 
L 381.360852 -116.475313 
L 384.159065 -116.475313 
L 386.957279 -116.475313 
L 389.755492 -116.475313 
L 392.553706 -116.475313 
L 395.351919 -116.475313 
L 398.150133 -116.475313 
L 400.948346 -116.475313 
L 403.74656 -116.475313 
L 406.544774 -116.475313 
L 409.342987 -116.475313 
L 412.141201 -116.475313 
L 414.939414 -116.475313 
L 417.737628 -116.475313 
L 420.535841 -116.475313 
L 423.334055 -116.475313 
L 426.132269 -116.475313 
L 428.930482 -116.475313 
L 431.728696 -116.475313 
L 434.526909 -116.475313 
L 437.325123 -116.475313 
L 440.123336 -116.475313 
L 442.92155 -116.475313 
L 445.719764 -116.475313 
L 448.517977 -116.475313 
L 451.316191 -116.475313 
L 454.114404 -116.475313 
L 456.912618 -116.475313 
L 459.710831 -116.475313 
L 462.509045 -116.475313 
L 465.307259 -116.475313 
L 468.105472 -116.475313 
L 470.903686 -116.475313 
L 473.701899 -116.475313 
L 476.500113 -116.475313 
L 479.298326 -116.475313 
L 482.09654 -116.475313 
L 484.894754 -116.475313 
L 487.692967 -116.475313 
L 490.491181 -116.475313 
L 493.289394 -116.475313 
L 496.087608 -116.475313 
L 498.885821 -116.475313 
L 501.684035 -116.475313 
L 504.482249 -116.475313 
L 507.280462 -116.475313 
L 510.078676 -116.475313 
L 512.876889 -116.475313 
L 515.675103 -116.475313 
L 518.473316 -116.475313 
L 521.27153 -116.475313 
L 524.069743 -116.475313 
L 526.867957 -116.475313 
L 529.666171 -116.475313 
L 532.464384 -116.475313 
L 535.262598 -116.475313 
L 538.060811 -116.475313 
L 540.859025 -116.475313 
L 543.657238 -116.475313 
L 546.455452 -116.475313 
L 549.253666 -116.475313 
L 552.051879 -116.475313 
L 554.850093 -116.475313 
L 557.648306 -116.475313 
L 560.44652 -116.475313 
L 563.244733 -116.475313 
L 566.042947 -116.475313 
L 568.841161 -116.475313 
L 571.639374 -116.475313 
L 574.437588 -116.475313 
L 577.235801 -116.475313 
L 580.034015 -116.475313 
L 582.832228 -116.475313 
L 585.630442 -116.475313 
L 588.428656 -116.475313 
L 591.226869 -116.475313 
L 594.025083 -116.475313 
L 596.823296 -116.475313 
L 599.62151 -116.475313 
L 602.419723 -116.475313 
L 605.217937 -116.475313 
L 608.016151 -116.475313 
L 610.814364 -116.475313 
L 613.612578 -116.475313 
L 616.410791 -116.475313 
L 619.209005 -116.475313 
L 622.007218 -116.475313 
L 624.805432 -116.475313 
L 627.603645 -116.475313 
L 630.401859 -116.475313 
L 633.200073 -116.475313 
L 635.998286 -116.475313 
L 638.7965 -116.475313 
L 641.594713 -116.475313 
L 644.392927 -116.475313 
L 647.19114 -116.475313 
L 649.989354 -116.475313 
L 652.787568 -116.475313 
L 655.585781 -116.475313 
L 658.383995 -116.475313 
L 661.182208 -116.475313 
L 663.980422 -116.475313 
L 666.778635 -116.475313 
L 669.576849 -116.475313 
L 672.375063 -116.475313 
L 675.173276 -116.475313 
L 677.97149 -116.475313 
L 680.769703 -116.475313 
L 683.567917 -116.475313 
L 686.36613 -116.475313 
L 689.164344 -116.475313 
L 691.962558 -116.475313 
L 694.760771 -116.475313 
L 697.558985 -116.475313 
L 700.357198 -116.475313 
L 703.155412 -116.475313 
L 705.953625 -116.475313 
L 708.751839 -116.475313 
L 711.550053 -116.475313 
L 714.348266 -116.475313 
L 717.14648 -116.475313 
L 719.944693 -116.475313 
L 722.742907 -116.475313 
L 725.54112 -116.475313 
L 728.339334 -116.475313 
L 731.137547 -116.475313 
L 731.137547 -120.096445 
L 731.137547 -120.096445 
L 728.339334 -120.152041 
L 725.54112 -120.199382 
L 722.742907 -120.24045 
L 719.944693 -120.277678 
L 717.14648 -120.313917 
L 714.348266 -120.35241 
L 711.550053 -120.396747 
L 708.751839 -120.45082 
L 705.953625 -120.518768 
L 703.155412 -120.604928 
L 700.357198 -120.713777 
L 697.558985 -120.849882 
L 694.760771 -121.017847 
L 691.962558 -121.222268 
L 689.164344 -121.467687 
L 686.36613 -121.758555 
L 683.567917 -122.099198 
L 680.769703 -122.493776 
L 677.97149 -122.946257 
L 675.173276 -123.460381 
L 672.375063 -124.039624 
L 669.576849 -124.687155 
L 666.778635 -125.405792 
L 663.980422 -126.197948 
L 661.182208 -127.065564 
L 658.383995 -128.010041 
L 655.585781 -129.032156 
L 652.787568 -130.131979 
L 649.989354 -131.308776 
L 647.19114 -132.560918 
L 644.392927 -133.885787 
L 641.594713 -135.279695 
L 638.7965 -136.737803 
L 635.998286 -138.254073 
L 633.200073 -139.821231 
L 630.401859 -141.430759 
L 627.603645 -143.072928 
L 624.805432 -144.736855 
L 622.007218 -146.410609 
L 619.209005 -148.081349 
L 616.410791 -149.735507 
L 613.612578 -151.359003 
L 610.814364 -152.937498 
L 608.016151 -154.456667 
L 605.217937 -155.902502 
L 602.419723 -157.261615 
L 599.62151 -158.521553 
L 596.823296 -159.6711 
L 594.025083 -160.700558 
L 591.226869 -161.602009 
L 588.428656 -162.369523 
L 585.630442 -162.99934 
L 582.832228 -163.489978 
L 580.034015 -163.8423 
L 577.235801 -164.059512 
L 574.437588 -164.147097 
L 571.639374 -164.112697 
L 568.841161 -163.965934 
L 566.042947 -163.718178 
L 563.244733 -163.382281 
L 560.44652 -162.972268 
L 557.648306 -162.503009 
L 554.850093 -161.989878 
L 552.051879 -161.448411 
L 549.253666 -160.89397 
L 546.455452 -160.341428 
L 543.657238 -159.804882 
L 540.859025 -159.2974 
L 538.060811 -158.83081 
L 535.262598 -158.415535 
L 532.464384 -158.060475 
L 529.666171 -157.772933 
L 526.867957 -157.558593 
L 524.069743 -157.421536 
L 521.27153 -157.364293 
L 518.473316 -157.38793 
L 515.675103 -157.492159 
L 512.876889 -157.67546 
L 510.078676 -157.935219 
L 507.280462 -158.267861 
L 504.482249 -158.668984 
L 501.684035 -159.133475 
L 498.885821 -159.65562 
L 496.087608 -160.229189 
L 493.289394 -160.847507 
L 490.491181 -161.503504 
L 487.692967 -162.189753 
L 484.894754 -162.898485 
L 482.09654 -163.621612 
L 479.298326 -164.35073 
L 476.500113 -165.077137 
L 473.701899 -165.791852 
L 470.903686 -166.485655 
L 468.105472 -167.149137 
L 465.307259 -167.77278 
L 462.509045 -168.347051 
L 459.710831 -168.862531 
L 456.912618 -169.310054 
L 454.114404 -169.680874 
L 451.316191 -169.966837 
L 448.517977 -170.160567 
L 445.719764 -170.255647 
L 442.92155 -170.246793 
L 440.123336 -170.130007 
L 437.325123 -169.902711 
L 434.526909 -169.563848 
L 431.728696 -169.113936 
L 428.930482 -168.555096 
L 426.132269 -167.891021 
L 423.334055 -167.126909 
L 420.535841 -166.269352 
L 417.737628 -165.326188 
L 414.939414 -164.306311 
L 412.141201 -163.219473 
L 409.342987 -162.076049 
L 406.544774 -160.886806 
L 403.74656 -159.662669 
L 400.948346 -158.414489 
L 398.150133 -157.152839 
L 395.351919 -155.887814 
L 392.553706 -154.628876 
L 389.755492 -153.384718 
L 386.957279 -152.163156 
L 384.159065 -150.971065 
L 381.360852 -149.81433 
L 378.562638 -148.697832 
L 375.764424 -147.625451 
L 372.966211 -146.600096 
L 370.167997 -145.623736 
L 367.369784 -144.697452 
L 364.57157 -143.821492 
L 361.773357 -142.995324 
L 358.975143 -142.217698 
L 356.176929 -141.486703 
L 353.378716 -140.799823 
L 350.580502 -140.153998 
L 347.782289 -139.545681 
L 344.984075 -138.9709 
L 342.185862 -138.425327 
L 339.387648 -137.904346 
L 336.589434 -137.40314 
L 333.791221 -136.916768 
L 330.993007 -136.440271 
L 328.194794 -135.968764 
L 325.39658 -135.497546 
L 322.598367 -135.022208 
L 319.800153 -134.53874 
L 317.001939 -134.04363 
L 314.203726 -133.533962 
L 311.405512 -133.007495 
L 308.607299 -132.462731 
L 305.809085 -131.89896 
L 303.010872 -131.316288 
L 300.212658 -130.71564 
L 297.414444 -130.098741 
L 294.616231 -129.468077 
L 291.818017 -128.826827 
L 289.019804 -128.178787 
L 286.22159 -127.528267 
L 283.423377 -126.879988 
L 280.625163 -126.238955 
L 277.82695 -125.610337 
L 275.028736 -124.999346 
L 272.230522 -124.411109 
L 269.432309 -123.850556 
L 266.634095 -123.322313 
L 263.835882 -122.830605 
L 261.037668 -122.379175 
L 258.239455 -121.971213 
L 255.441241 -121.609302 
L 252.643027 -121.295374 
L 249.844814 -121.030685 
L 247.0466 -120.815801 
L 244.248387 -120.650589 
L 241.450173 -120.534232 
L 238.65196 -120.465243 
L 235.853746 -120.441493 
L 233.055532 -120.460245 
L 230.257319 -120.518202 
L 227.459105 -120.611553 
L 224.660892 -120.736037 
L 221.862678 -120.887002 
L 219.064465 -121.05948 
L 216.266251 -121.248266 
L 213.468037 -121.447997 
L 210.669824 -121.653243 
L 207.87161 -121.858596 
L 205.073397 -122.058761 
L 202.275183 -122.248651 
L 199.47697 -122.423476 
L 196.678756 -122.578828 
L 193.880542 -122.710764 
L 191.082329 -122.815873 
L 188.284115 -122.891336 
L 185.485902 -122.934974 
L 182.687688 -122.945282 
L 179.889475 -122.921439 
L 177.091261 -122.863313 
L 174.293048 -122.771442 
z
" style="stroke: #a6cee3"/>
    </defs>
    <g clip-path="url(#p6712eb93fd)">
     <use xlink:href="#m2734e07383" x="0" y="212.255313" style="fill: #a6cee3; fill-opacity: 0.5; stroke: #a6cee3"/>
    </g>
   </g>
   <g id="matplotlib.axis_1">
    <g id="xtick_1">
     <g id="line2d_1">
      <defs>
       <path id="m8f8d56e90b" d="M 0 0 
L 0 3.5 
" style="stroke: #000000; stroke-width: 0.8"/>
      </defs>
      <g>
       <use xlink:href="#m8f8d56e90b" x="174.293048" y="95.78" style="stroke: #000000; stroke-width: 0.8"/>
      </g>
     </g>
    </g>
    <g id="xtick_2">
     <g id="line2d_2">
      <g>
       <use xlink:href="#m8f8d56e90b" x="285.661947" y="95.78" style="stroke: #000000; stroke-width: 0.8"/>
      </g>
     </g>
    </g>
    <g id="xtick_3">
     <g id="line2d_3">
      <g>
       <use xlink:href="#m8f8d56e90b" x="397.030847" y="95.78" style="stroke: #000000; stroke-width: 0.8"/>
      </g>
     </g>
    </g>
    <g id="xtick_4">
     <g id="line2d_4">
      <g>
       <use xlink:href="#m8f8d56e90b" x="508.399747" y="95.78" style="stroke: #000000; stroke-width: 0.8"/>
      </g>
     </g>
    </g>
    <g id="xtick_5">
     <g id="line2d_5">
      <g>
       <use xlink:href="#m8f8d56e90b" x="619.768648" y="95.78" style="stroke: #000000; stroke-width: 0.8"/>
      </g>
     </g>
    </g>
    <g id="xtick_6">
     <g id="line2d_6">
      <g>
       <use xlink:href="#m8f8d56e90b" x="731.137547" y="95.78" style="stroke: #000000; stroke-width: 0.8"/>
      </g>
     </g>
    </g>
   </g>
   <g id="matplotlib.axis_2"/>
   <g id="line2d_7">
    <path d="M 174.293048 89.483871 
L 182.687688 89.31003 
L 191.082329 89.43944 
L 199.47697 89.831837 
L 213.468037 90.807316 
L 224.660892 91.519276 
L 233.055532 91.795068 
L 238.65196 91.790069 
L 244.248387 91.604723 
L 249.844814 91.224627 
L 255.441241 90.646011 
L 261.037668 89.876138 
L 266.634095 88.933 
L 275.028736 87.255966 
L 286.22159 84.727045 
L 300.212658 81.539673 
L 311.405512 79.247817 
L 322.598367 77.233104 
L 342.185862 73.829986 
L 350.580502 72.101314 
L 356.176929 70.76861 
L 361.773357 69.259989 
L 367.369784 67.557861 
L 372.966211 65.655217 
L 378.562638 63.557481 
L 386.957279 60.092156 
L 398.150133 55.102474 
L 406.544774 51.368507 
L 412.141201 49.03584 
L 417.737628 46.929125 
L 423.334055 45.128404 
L 428.930482 43.700216 
L 434.526909 42.691465 
L 440.123336 42.125306 
L 445.719764 41.999665 
L 451.316191 42.288476 
L 456.912618 42.945258 
L 462.509045 43.908261 
L 468.105472 45.106175 
L 476.500113 47.178176 
L 490.491181 50.751808 
L 496.087608 52.026124 
L 501.684035 53.121837 
L 507.280462 53.987451 
L 512.876889 54.579853 
L 518.473316 54.867382 
L 524.069743 54.833776 
L 529.666171 54.48238 
L 535.262598 53.839777 
L 540.859025 52.957913 
L 549.253666 51.361342 
L 557.648306 49.752304 
L 563.244733 48.873031 
L 568.841161 48.289379 
L 571.639374 48.142615 
L 574.437588 48.108216 
L 577.235801 48.195801 
L 580.034015 48.413012 
L 582.832228 48.765335 
L 585.630442 49.255973 
L 588.428656 49.885789 
L 591.226869 50.653304 
L 594.025083 51.554754 
L 596.823296 52.584213 
L 602.419723 54.993698 
L 608.016151 57.798645 
L 613.612578 60.896309 
L 624.805432 67.518458 
L 633.200073 72.434082 
L 638.7965 75.517509 
L 644.392927 78.369525 
L 649.989354 80.946537 
L 655.585781 83.223156 
L 661.182208 85.189748 
L 666.778635 86.84952 
L 672.375063 88.215689 
L 677.97149 89.309055 
L 683.567917 90.156115 
L 689.164344 90.787626 
L 694.760771 91.237465 
L 703.155412 91.650384 
L 714.348266 91.902903 
L 731.137547 92.158867 
L 731.137547 92.158867 
" clip-path="url(#p6712eb93fd)" style="fill: none; stroke: #ffffff; stroke-width: 2; stroke-linecap: square"/>
   </g>
   <g id="line2d_8">
    <path d="M 174.293048 95.78 
L 731.137547 95.78 
" style="fill: none; stroke: #000000; stroke-linecap: square"/>
   </g>
   <g id="text_1">
    <g id="patch_3">
     <path d="M 30.87 105.189687 
L 119.784375 105.189687 
L 119.784375 86.370312 
L 30.87 86.370312 
z
" style="fill: #ffffff; opacity: 0.5"/>
    </g>
    <!-- Premium Brands -->
    <g transform="translate(34.83 98.662813) scale(0.12 -0.12)">
     <defs>
      <path id="TimesNewRomanPSMT-50" d="M 1313 1984 
L 1313 750 
Q 1313 350 1400 253 
Q 1519 116 1759 116 
L 1922 116 
L 1922 0 
L 106 0 
L 106 116 
L 266 116 
Q 534 116 650 291 
Q 713 388 713 750 
L 713 3488 
Q 713 3888 628 3984 
Q 506 4122 266 4122 
L 106 4122 
L 106 4238 
L 1659 4238 
Q 2228 4238 2556 4120 
Q 2884 4003 3109 3725 
Q 3334 3447 3334 3066 
Q 3334 2547 2992 2222 
Q 2650 1897 2025 1897 
Q 1872 1897 1694 1919 
Q 1516 1941 1313 1984 
z
M 1313 2163 
Q 1478 2131 1606 2115 
Q 1734 2100 1825 2100 
Q 2150 2100 2386 2351 
Q 2622 2603 2622 3003 
Q 2622 3278 2509 3514 
Q 2397 3750 2190 3867 
Q 1984 3984 1722 3984 
Q 1563 3984 1313 3925 
L 1313 2163 
z
" transform="scale(0.015625)"/>
      <path id="TimesNewRomanPSMT-72" d="M 1038 2947 
L 1038 2303 
Q 1397 2947 1775 2947 
Q 1947 2947 2059 2842 
Q 2172 2738 2172 2600 
Q 2172 2478 2090 2393 
Q 2009 2309 1897 2309 
Q 1788 2309 1652 2417 
Q 1516 2525 1450 2525 
Q 1394 2525 1328 2463 
Q 1188 2334 1038 2041 
L 1038 669 
Q 1038 431 1097 309 
Q 1138 225 1241 169 
Q 1344 113 1538 113 
L 1538 0 
L 72 0 
L 72 113 
Q 291 113 397 181 
Q 475 231 506 341 
Q 522 394 522 644 
L 522 1753 
Q 522 2253 501 2348 
Q 481 2444 426 2487 
Q 372 2531 291 2531 
Q 194 2531 72 2484 
L 41 2597 
L 906 2947 
L 1038 2947 
z
" transform="scale(0.015625)"/>
      <path id="TimesNewRomanPSMT-65" d="M 681 1784 
Q 678 1147 991 784 
Q 1303 422 1725 422 
Q 2006 422 2214 576 
Q 2422 731 2563 1106 
L 2659 1044 
Q 2594 616 2278 264 
Q 1963 -88 1488 -88 
Q 972 -88 605 314 
Q 238 716 238 1394 
Q 238 2128 614 2539 
Q 991 2950 1559 2950 
Q 2041 2950 2350 2633 
Q 2659 2316 2659 1784 
L 681 1784 
z
M 681 1966 
L 2006 1966 
Q 1991 2241 1941 2353 
Q 1863 2528 1708 2628 
Q 1553 2728 1384 2728 
Q 1125 2728 920 2526 
Q 716 2325 681 1966 
z
" transform="scale(0.015625)"/>
      <path id="TimesNewRomanPSMT-6d" d="M 1050 2338 
Q 1363 2650 1419 2697 
Q 1559 2816 1721 2881 
Q 1884 2947 2044 2947 
Q 2313 2947 2506 2790 
Q 2700 2634 2766 2338 
Q 3088 2713 3309 2830 
Q 3531 2947 3766 2947 
Q 3994 2947 4170 2830 
Q 4347 2713 4450 2447 
Q 4519 2266 4519 1878 
L 4519 647 
Q 4519 378 4559 278 
Q 4591 209 4675 161 
Q 4759 113 4950 113 
L 4950 0 
L 3538 0 
L 3538 113 
L 3597 113 
Q 3781 113 3884 184 
Q 3956 234 3988 344 
Q 4000 397 4000 647 
L 4000 1878 
Q 4000 2228 3916 2372 
Q 3794 2572 3525 2572 
Q 3359 2572 3192 2489 
Q 3025 2406 2788 2181 
L 2781 2147 
L 2788 2013 
L 2788 647 
Q 2788 353 2820 281 
Q 2853 209 2943 161 
Q 3034 113 3253 113 
L 3253 0 
L 1806 0 
L 1806 113 
Q 2044 113 2133 169 
Q 2222 225 2256 338 
Q 2272 391 2272 647 
L 2272 1878 
Q 2272 2228 2169 2381 
Q 2031 2581 1784 2581 
Q 1616 2581 1450 2491 
Q 1191 2353 1050 2181 
L 1050 647 
Q 1050 366 1089 281 
Q 1128 197 1204 155 
Q 1281 113 1516 113 
L 1516 0 
L 100 0 
L 100 113 
Q 297 113 375 155 
Q 453 197 493 289 
Q 534 381 534 647 
L 534 1741 
Q 534 2213 506 2350 
Q 484 2453 437 2492 
Q 391 2531 309 2531 
Q 222 2531 100 2484 
L 53 2597 
L 916 2947 
L 1050 2947 
L 1050 2338 
z
" transform="scale(0.015625)"/>
      <path id="TimesNewRomanPSMT-69" d="M 928 4444 
Q 1059 4444 1151 4351 
Q 1244 4259 1244 4128 
Q 1244 3997 1151 3903 
Q 1059 3809 928 3809 
Q 797 3809 703 3903 
Q 609 3997 609 4128 
Q 609 4259 701 4351 
Q 794 4444 928 4444 
z
M 1188 2947 
L 1188 647 
Q 1188 378 1227 289 
Q 1266 200 1342 156 
Q 1419 113 1622 113 
L 1622 0 
L 231 0 
L 231 113 
Q 441 113 512 153 
Q 584 194 626 287 
Q 669 381 669 647 
L 669 1750 
Q 669 2216 641 2353 
Q 619 2453 572 2492 
Q 525 2531 444 2531 
Q 356 2531 231 2484 
L 188 2597 
L 1050 2947 
L 1188 2947 
z
" transform="scale(0.015625)"/>
      <path id="TimesNewRomanPSMT-75" d="M 2709 2863 
L 2709 1128 
Q 2709 631 2732 520 
Q 2756 409 2807 365 
Q 2859 322 2928 322 
Q 3025 322 3147 375 
L 3191 266 
L 2334 -88 
L 2194 -88 
L 2194 519 
Q 1825 119 1631 15 
Q 1438 -88 1222 -88 
Q 981 -88 804 51 
Q 628 191 559 409 
Q 491 628 491 1028 
L 491 2306 
Q 491 2509 447 2587 
Q 403 2666 317 2708 
Q 231 2750 6 2747 
L 6 2863 
L 1009 2863 
L 1009 947 
Q 1009 547 1148 422 
Q 1288 297 1484 297 
Q 1619 297 1789 381 
Q 1959 466 2194 703 
L 2194 2325 
Q 2194 2569 2105 2655 
Q 2016 2741 1734 2747 
L 1734 2863 
L 2709 2863 
z
" transform="scale(0.015625)"/>
      <path id="TimesNewRomanPSMT-20" transform="scale(0.015625)"/>
      <path id="TimesNewRomanPSMT-42" d="M 2956 2163 
Q 3397 2069 3616 1863 
Q 3919 1575 3919 1159 
Q 3919 844 3719 555 
Q 3519 266 3170 133 
Q 2822 0 2106 0 
L 106 0 
L 106 116 
L 266 116 
Q 531 116 647 284 
Q 719 394 719 750 
L 719 3488 
Q 719 3881 628 3984 
Q 506 4122 266 4122 
L 106 4122 
L 106 4238 
L 1938 4238 
Q 2450 4238 2759 4163 
Q 3228 4050 3475 3764 
Q 3722 3478 3722 3106 
Q 3722 2788 3528 2536 
Q 3334 2284 2956 2163 
z
M 1319 2331 
Q 1434 2309 1582 2298 
Q 1731 2288 1909 2288 
Q 2366 2288 2595 2386 
Q 2825 2484 2947 2687 
Q 3069 2891 3069 3131 
Q 3069 3503 2766 3765 
Q 2463 4028 1881 4028 
Q 1569 4028 1319 3959 
L 1319 2331 
z
M 1319 306 
Q 1681 222 2034 222 
Q 2600 222 2897 476 
Q 3194 731 3194 1106 
Q 3194 1353 3059 1581 
Q 2925 1809 2622 1940 
Q 2319 2072 1872 2072 
Q 1678 2072 1540 2065 
Q 1403 2059 1319 2044 
L 1319 306 
z
" transform="scale(0.015625)"/>
      <path id="TimesNewRomanPSMT-61" d="M 1822 413 
Q 1381 72 1269 19 
Q 1100 -59 909 -59 
Q 613 -59 420 144 
Q 228 347 228 678 
Q 228 888 322 1041 
Q 450 1253 767 1440 
Q 1084 1628 1822 1897 
L 1822 2009 
Q 1822 2438 1686 2597 
Q 1550 2756 1291 2756 
Q 1094 2756 978 2650 
Q 859 2544 859 2406 
L 866 2225 
Q 866 2081 792 2003 
Q 719 1925 600 1925 
Q 484 1925 411 2006 
Q 338 2088 338 2228 
Q 338 2497 613 2722 
Q 888 2947 1384 2947 
Q 1766 2947 2009 2819 
Q 2194 2722 2281 2516 
Q 2338 2381 2338 1966 
L 2338 994 
Q 2338 584 2353 492 
Q 2369 400 2405 369 
Q 2441 338 2488 338 
Q 2538 338 2575 359 
Q 2641 400 2828 588 
L 2828 413 
Q 2478 -56 2159 -56 
Q 2006 -56 1915 50 
Q 1825 156 1822 413 
z
M 1822 616 
L 1822 1706 
Q 1350 1519 1213 1441 
Q 966 1303 859 1153 
Q 753 1003 753 825 
Q 753 600 887 451 
Q 1022 303 1197 303 
Q 1434 303 1822 616 
z
" transform="scale(0.015625)"/>
      <path id="TimesNewRomanPSMT-6e" d="M 1034 2341 
Q 1538 2947 1994 2947 
Q 2228 2947 2397 2830 
Q 2566 2713 2666 2444 
Q 2734 2256 2734 1869 
L 2734 647 
Q 2734 375 2778 278 
Q 2813 200 2889 156 
Q 2966 113 3172 113 
L 3172 0 
L 1756 0 
L 1756 113 
L 1816 113 
Q 2016 113 2095 173 
Q 2175 234 2206 353 
Q 2219 400 2219 647 
L 2219 1819 
Q 2219 2209 2117 2386 
Q 2016 2563 1775 2563 
Q 1403 2563 1034 2156 
L 1034 647 
Q 1034 356 1069 288 
Q 1113 197 1189 155 
Q 1266 113 1500 113 
L 1500 0 
L 84 0 
L 84 113 
L 147 113 
Q 366 113 442 223 
Q 519 334 519 647 
L 519 1709 
Q 519 2225 495 2337 
Q 472 2450 423 2490 
Q 375 2531 294 2531 
Q 206 2531 84 2484 
L 38 2597 
L 900 2947 
L 1034 2947 
L 1034 2341 
z
" transform="scale(0.015625)"/>
      <path id="TimesNewRomanPSMT-64" d="M 2222 322 
Q 2013 103 1813 7 
Q 1613 -88 1381 -88 
Q 913 -88 563 304 
Q 213 697 213 1313 
Q 213 1928 600 2439 
Q 988 2950 1597 2950 
Q 1975 2950 2222 2709 
L 2222 3238 
Q 2222 3728 2198 3840 
Q 2175 3953 2125 3993 
Q 2075 4034 2000 4034 
Q 1919 4034 1784 3984 
L 1744 4094 
L 2597 4444 
L 2738 4444 
L 2738 1134 
Q 2738 631 2761 520 
Q 2784 409 2836 365 
Q 2888 322 2956 322 
Q 3041 322 3181 375 
L 3216 266 
L 2366 -88 
L 2222 -88 
L 2222 322 
z
M 2222 541 
L 2222 2016 
Q 2203 2228 2109 2403 
Q 2016 2578 1861 2667 
Q 1706 2756 1559 2756 
Q 1284 2756 1069 2509 
Q 784 2184 784 1559 
Q 784 928 1059 592 
Q 1334 256 1672 256 
Q 1956 256 2222 541 
z
" transform="scale(0.015625)"/>
      <path id="TimesNewRomanPSMT-73" d="M 2050 2947 
L 2050 1972 
L 1947 1972 
Q 1828 2431 1642 2597 
Q 1456 2763 1169 2763 
Q 950 2763 815 2647 
Q 681 2531 681 2391 
Q 681 2216 781 2091 
Q 878 1963 1175 1819 
L 1631 1597 
Q 2266 1288 2266 781 
Q 2266 391 1970 151 
Q 1675 -88 1309 -88 
Q 1047 -88 709 6 
Q 606 38 541 38 
Q 469 38 428 -44 
L 325 -44 
L 325 978 
L 428 978 
Q 516 541 762 319 
Q 1009 97 1316 97 
Q 1531 97 1667 223 
Q 1803 350 1803 528 
Q 1803 744 1651 891 
Q 1500 1038 1047 1263 
Q 594 1488 453 1669 
Q 313 1847 313 2119 
Q 313 2472 555 2709 
Q 797 2947 1181 2947 
Q 1350 2947 1591 2875 
Q 1750 2828 1803 2828 
Q 1853 2828 1881 2850 
Q 1909 2872 1947 2947 
L 2050 2947 
z
" transform="scale(0.015625)"/>
     </defs>
     <use xlink:href="#TimesNewRomanPSMT-50"/>
     <use xlink:href="#TimesNewRomanPSMT-72" transform="translate(55.615234 0)"/>
     <use xlink:href="#TimesNewRomanPSMT-65" transform="translate(88.916016 0)"/>
     <use xlink:href="#TimesNewRomanPSMT-6d" transform="translate(133.300781 0)"/>
     <use xlink:href="#TimesNewRomanPSMT-69" transform="translate(211.083984 0)"/>
     <use xlink:href="#TimesNewRomanPSMT-75" transform="translate(238.867188 0)"/>
     <use xlink:href="#TimesNewRomanPSMT-6d" transform="translate(288.867188 0)"/>
     <use xlink:href="#TimesNewRomanPSMT-20" transform="translate(366.650391 0)"/>
     <use xlink:href="#TimesNewRomanPSMT-42" transform="translate(391.650391 0)"/>
     <use xlink:href="#TimesNewRomanPSMT-72" transform="translate(458.349609 0)"/>
     <use xlink:href="#TimesNewRomanPSMT-61" transform="translate(491.650391 0)"/>
     <use xlink:href="#TimesNewRomanPSMT-6e" transform="translate(536.035156 0)"/>
     <use xlink:href="#TimesNewRomanPSMT-64" transform="translate(586.035156 0)"/>
     <use xlink:href="#TimesNewRomanPSMT-73" transform="translate(636.035156 0)"/>
    </g>
   </g>
  </g>
  <g id="axes_2">
   <g id="patch_4">
    <path d="M 174.293048 133.11 
L 731.137547 133.11 
L 731.137547 58.45 
L 174.293048 58.45 
L 174.293048 133.11 
z
" style="fill: none; opacity: 0"/>
   </g>
   <g id="FillBetweenPolyCollection_2">
    <defs>
     <path id="m5e3850268e" d="M 174.293048 -93.088618 
L 174.293048 -79.145313 
L 177.091261 -79.145313 
L 179.889475 -79.145313 
L 182.687688 -79.145313 
L 185.485902 -79.145313 
L 188.284115 -79.145313 
L 191.082329 -79.145313 
L 193.880542 -79.145313 
L 196.678756 -79.145313 
L 199.47697 -79.145313 
L 202.275183 -79.145313 
L 205.073397 -79.145313 
L 207.87161 -79.145313 
L 210.669824 -79.145313 
L 213.468037 -79.145313 
L 216.266251 -79.145313 
L 219.064465 -79.145313 
L 221.862678 -79.145313 
L 224.660892 -79.145313 
L 227.459105 -79.145313 
L 230.257319 -79.145313 
L 233.055532 -79.145313 
L 235.853746 -79.145313 
L 238.65196 -79.145313 
L 241.450173 -79.145313 
L 244.248387 -79.145313 
L 247.0466 -79.145313 
L 249.844814 -79.145313 
L 252.643027 -79.145313 
L 255.441241 -79.145313 
L 258.239455 -79.145313 
L 261.037668 -79.145313 
L 263.835882 -79.145313 
L 266.634095 -79.145313 
L 269.432309 -79.145313 
L 272.230522 -79.145313 
L 275.028736 -79.145313 
L 277.82695 -79.145313 
L 280.625163 -79.145313 
L 283.423377 -79.145313 
L 286.22159 -79.145313 
L 289.019804 -79.145313 
L 291.818017 -79.145313 
L 294.616231 -79.145313 
L 297.414444 -79.145313 
L 300.212658 -79.145313 
L 303.010872 -79.145313 
L 305.809085 -79.145313 
L 308.607299 -79.145313 
L 311.405512 -79.145313 
L 314.203726 -79.145313 
L 317.001939 -79.145313 
L 319.800153 -79.145313 
L 322.598367 -79.145313 
L 325.39658 -79.145313 
L 328.194794 -79.145313 
L 330.993007 -79.145313 
L 333.791221 -79.145313 
L 336.589434 -79.145313 
L 339.387648 -79.145313 
L 342.185862 -79.145313 
L 344.984075 -79.145313 
L 347.782289 -79.145313 
L 350.580502 -79.145313 
L 353.378716 -79.145313 
L 356.176929 -79.145313 
L 358.975143 -79.145313 
L 361.773357 -79.145313 
L 364.57157 -79.145313 
L 367.369784 -79.145313 
L 370.167997 -79.145313 
L 372.966211 -79.145313 
L 375.764424 -79.145313 
L 378.562638 -79.145313 
L 381.360852 -79.145313 
L 384.159065 -79.145313 
L 386.957279 -79.145313 
L 389.755492 -79.145313 
L 392.553706 -79.145313 
L 395.351919 -79.145313 
L 398.150133 -79.145313 
L 400.948346 -79.145313 
L 403.74656 -79.145313 
L 406.544774 -79.145313 
L 409.342987 -79.145313 
L 412.141201 -79.145313 
L 414.939414 -79.145313 
L 417.737628 -79.145313 
L 420.535841 -79.145313 
L 423.334055 -79.145313 
L 426.132269 -79.145313 
L 428.930482 -79.145313 
L 431.728696 -79.145313 
L 434.526909 -79.145313 
L 437.325123 -79.145313 
L 440.123336 -79.145313 
L 442.92155 -79.145313 
L 445.719764 -79.145313 
L 448.517977 -79.145313 
L 451.316191 -79.145313 
L 454.114404 -79.145313 
L 456.912618 -79.145313 
L 459.710831 -79.145313 
L 462.509045 -79.145313 
L 465.307259 -79.145313 
L 468.105472 -79.145313 
L 470.903686 -79.145313 
L 473.701899 -79.145313 
L 476.500113 -79.145313 
L 479.298326 -79.145313 
L 482.09654 -79.145313 
L 484.894754 -79.145313 
L 487.692967 -79.145313 
L 490.491181 -79.145313 
L 493.289394 -79.145313 
L 496.087608 -79.145313 
L 498.885821 -79.145313 
L 501.684035 -79.145313 
L 504.482249 -79.145313 
L 507.280462 -79.145313 
L 510.078676 -79.145313 
L 512.876889 -79.145313 
L 515.675103 -79.145313 
L 518.473316 -79.145313 
L 521.27153 -79.145313 
L 524.069743 -79.145313 
L 526.867957 -79.145313 
L 529.666171 -79.145313 
L 532.464384 -79.145313 
L 535.262598 -79.145313 
L 538.060811 -79.145313 
L 540.859025 -79.145313 
L 543.657238 -79.145313 
L 546.455452 -79.145313 
L 549.253666 -79.145313 
L 552.051879 -79.145313 
L 554.850093 -79.145313 
L 557.648306 -79.145313 
L 560.44652 -79.145313 
L 563.244733 -79.145313 
L 566.042947 -79.145313 
L 568.841161 -79.145313 
L 571.639374 -79.145313 
L 574.437588 -79.145313 
L 577.235801 -79.145313 
L 580.034015 -79.145313 
L 582.832228 -79.145313 
L 585.630442 -79.145313 
L 588.428656 -79.145313 
L 591.226869 -79.145313 
L 594.025083 -79.145313 
L 596.823296 -79.145313 
L 599.62151 -79.145313 
L 602.419723 -79.145313 
L 605.217937 -79.145313 
L 608.016151 -79.145313 
L 610.814364 -79.145313 
L 613.612578 -79.145313 
L 616.410791 -79.145313 
L 619.209005 -79.145313 
L 622.007218 -79.145313 
L 624.805432 -79.145313 
L 627.603645 -79.145313 
L 630.401859 -79.145313 
L 633.200073 -79.145313 
L 635.998286 -79.145313 
L 638.7965 -79.145313 
L 641.594713 -79.145313 
L 644.392927 -79.145313 
L 647.19114 -79.145313 
L 649.989354 -79.145313 
L 652.787568 -79.145313 
L 655.585781 -79.145313 
L 658.383995 -79.145313 
L 661.182208 -79.145313 
L 663.980422 -79.145313 
L 666.778635 -79.145313 
L 669.576849 -79.145313 
L 672.375063 -79.145313 
L 675.173276 -79.145313 
L 677.97149 -79.145313 
L 680.769703 -79.145313 
L 683.567917 -79.145313 
L 686.36613 -79.145313 
L 689.164344 -79.145313 
L 691.962558 -79.145313 
L 694.760771 -79.145313 
L 697.558985 -79.145313 
L 700.357198 -79.145313 
L 703.155412 -79.145313 
L 705.953625 -79.145313 
L 708.751839 -79.145313 
L 711.550053 -79.145313 
L 714.348266 -79.145313 
L 717.14648 -79.145313 
L 719.944693 -79.145313 
L 722.742907 -79.145313 
L 725.54112 -79.145313 
L 728.339334 -79.145313 
L 731.137547 -79.145313 
L 731.137547 -92.698044 
L 731.137547 -92.698044 
L 728.339334 -93.439133 
L 725.54112 -94.195922 
L 722.742907 -94.966682 
L 719.944693 -95.74952 
L 717.14648 -96.54239 
L 714.348266 -97.343098 
L 711.550053 -98.149312 
L 708.751839 -98.958576 
L 705.953625 -99.768323 
L 703.155412 -100.575894 
L 700.357198 -101.37855 
L 697.558985 -102.1735 
L 694.760771 -102.957917 
L 691.962558 -103.728965 
L 689.164344 -104.483818 
L 686.36613 -105.219692 
L 683.567917 -105.933864 
L 680.769703 -106.623703 
L 677.97149 -107.286693 
L 675.173276 -107.92046 
L 672.375063 -108.522795 
L 669.576849 -109.091679 
L 666.778635 -109.625303 
L 663.980422 -110.122089 
L 661.182208 -110.580708 
L 658.383995 -111.000095 
L 655.585781 -111.379458 
L 652.787568 -111.718294 
L 649.989354 -112.016386 
L 647.19114 -112.273815 
L 644.392927 -112.49095 
L 641.594713 -112.66845 
L 638.7965 -112.807255 
L 635.998286 -112.908569 
L 633.200073 -112.973853 
L 630.401859 -113.004802 
L 627.603645 -113.003325 
L 624.805432 -112.971523 
L 622.007218 -112.911664 
L 619.209005 -112.82615 
L 616.410791 -112.717494 
L 613.612578 -112.588288 
L 610.814364 -112.44117 
L 608.016151 -112.278793 
L 605.217937 -112.103796 
L 602.419723 -111.918774 
L 599.62151 -111.726243 
L 596.823296 -111.528618 
L 594.025083 -111.328185 
L 591.226869 -111.127075 
L 588.428656 -110.927243 
L 585.630442 -110.730452 
L 582.832228 -110.538252 
L 580.034015 -110.351969 
L 577.235801 -110.172699 
L 574.437588 -110.001294 
L 571.639374 -109.838365 
L 568.841161 -109.684281 
L 566.042947 -109.539168 
L 563.244733 -109.402922 
L 560.44652 -109.275213 
L 557.648306 -109.1555 
L 554.850093 -109.043046 
L 552.051879 -108.936933 
L 549.253666 -108.836082 
L 546.455452 -108.739277 
L 543.657238 -108.64518 
L 540.859025 -108.552362 
L 538.060811 -108.459324 
L 535.262598 -108.364522 
L 532.464384 -108.266391 
L 529.666171 -108.16337 
L 526.867957 -108.05393 
L 524.069743 -107.936589 
L 521.27153 -107.809945 
L 518.473316 -107.67269 
L 515.675103 -107.523631 
L 512.876889 -107.361708 
L 510.078676 -107.186013 
L 507.280462 -106.995801 
L 504.482249 -106.790501 
L 501.684035 -106.569728 
L 498.885821 -106.333289 
L 496.087608 -106.081189 
L 493.289394 -105.81363 
L 490.491181 -105.531017 
L 487.692967 -105.233948 
L 484.894754 -104.923216 
L 482.09654 -104.5998 
L 479.298326 -104.264854 
L 476.500113 -103.919699 
L 473.701899 -103.565811 
L 470.903686 -103.204803 
L 468.105472 -102.838413 
L 465.307259 -102.468485 
L 462.509045 -102.096953 
L 459.710831 -101.725821 
L 456.912618 -101.357142 
L 454.114404 -100.993003 
L 451.316191 -100.635497 
L 448.517977 -100.286713 
L 445.719764 -99.948704 
L 442.92155 -99.62348 
L 440.123336 -99.312978 
L 437.325123 -99.01905 
L 434.526909 -98.743444 
L 431.728696 -98.487786 
L 428.930482 -98.253568 
L 426.132269 -98.04213 
L 423.334055 -97.854651 
L 420.535841 -97.692136 
L 417.737628 -97.55541 
L 414.939414 -97.445107 
L 412.141201 -97.361667 
L 409.342987 -97.305332 
L 406.544774 -97.276144 
L 403.74656 -97.273949 
L 400.948346 -97.298395 
L 398.150133 -97.348938 
L 395.351919 -97.424852 
L 392.553706 -97.525234 
L 389.755492 -97.649017 
L 386.957279 -97.794979 
L 384.159065 -97.961762 
L 381.360852 -98.147883 
L 378.562638 -98.351754 
L 375.764424 -98.571697 
L 372.966211 -98.805965 
L 370.167997 -99.05276 
L 367.369784 -99.310255 
L 364.57157 -99.576608 
L 361.773357 -99.849991 
L 358.975143 -100.128599 
L 356.176929 -100.410675 
L 353.378716 -100.694523 
L 350.580502 -100.978529 
L 347.782289 -101.261166 
L 344.984075 -101.541017 
L 342.185862 -101.816776 
L 339.387648 -102.087258 
L 336.589434 -102.351409 
L 333.791221 -102.608299 
L 330.993007 -102.857132 
L 328.194794 -103.097237 
L 325.39658 -103.328062 
L 322.598367 -103.549172 
L 319.800153 -103.760235 
L 317.001939 -103.96101 
L 314.203726 -104.151333 
L 311.405512 -104.331106 
L 308.607299 -104.500274 
L 305.809085 -104.658815 
L 303.010872 -104.806716 
L 300.212658 -104.94396 
L 297.414444 -105.070511 
L 294.616231 -105.186291 
L 291.818017 -105.291173 
L 289.019804 -105.384965 
L 286.22159 -105.467397 
L 283.423377 -105.538119 
L 280.625163 -105.596689 
L 277.82695 -105.642571 
L 275.028736 -105.67514 
L 272.230522 -105.693677 
L 269.432309 -105.697379 
L 266.634095 -105.68537 
L 263.835882 -105.656705 
L 261.037668 -105.610389 
L 258.239455 -105.545392 
L 255.441241 -105.460665 
L 252.643027 -105.355161 
L 249.844814 -105.227852 
L 247.0466 -105.077754 
L 244.248387 -104.903946 
L 241.450173 -104.705589 
L 238.65196 -104.481949 
L 235.853746 -104.232415 
L 233.055532 -103.956515 
L 230.257319 -103.653934 
L 227.459105 -103.324525 
L 224.660892 -102.968319 
L 221.862678 -102.585539 
L 219.064465 -102.176597 
L 216.266251 -101.742102 
L 213.468037 -101.282856 
L 210.669824 -100.799855 
L 207.87161 -100.294275 
L 205.073397 -99.767469 
L 202.275183 -99.220954 
L 199.47697 -98.656394 
L 196.678756 -98.075586 
L 193.880542 -97.480443 
L 191.082329 -96.872973 
L 188.284115 -96.255259 
L 185.485902 -95.62944 
L 182.687688 -94.997688 
L 179.889475 -94.362188 
L 177.091261 -93.725115 
L 174.293048 -93.088618 
z
" style="stroke: #1f78b4"/>
    </defs>
    <g clip-path="url(#pa2902d382f)">
     <use xlink:href="#m5e3850268e" x="0" y="212.255313" style="fill: #1f78b4; fill-opacity: 0.5; stroke: #1f78b4"/>
    </g>
   </g>
   <g id="matplotlib.axis_3">
    <g id="xtick_7">
     <g id="line2d_9">
      <g>
       <use xlink:href="#m8f8d56e90b" x="174.293048" y="133.11" style="stroke: #000000; stroke-width: 0.8"/>
      </g>
     </g>
    </g>
    <g id="xtick_8">
     <g id="line2d_10">
      <g>
       <use xlink:href="#m8f8d56e90b" x="285.661947" y="133.11" style="stroke: #000000; stroke-width: 0.8"/>
      </g>
     </g>
    </g>
    <g id="xtick_9">
     <g id="line2d_11">
      <g>
       <use xlink:href="#m8f8d56e90b" x="397.030847" y="133.11" style="stroke: #000000; stroke-width: 0.8"/>
      </g>
     </g>
    </g>
    <g id="xtick_10">
     <g id="line2d_12">
      <g>
       <use xlink:href="#m8f8d56e90b" x="508.399747" y="133.11" style="stroke: #000000; stroke-width: 0.8"/>
      </g>
     </g>
    </g>
    <g id="xtick_11">
     <g id="line2d_13">
      <g>
       <use xlink:href="#m8f8d56e90b" x="619.768648" y="133.11" style="stroke: #000000; stroke-width: 0.8"/>
      </g>
     </g>
    </g>
    <g id="xtick_12">
     <g id="line2d_14">
      <g>
       <use xlink:href="#m8f8d56e90b" x="731.137547" y="133.11" style="stroke: #000000; stroke-width: 0.8"/>
      </g>
     </g>
    </g>
   </g>
   <g id="matplotlib.axis_4"/>
   <g id="line2d_15">
    <path d="M 174.293048 119.166695 
L 196.678756 114.179727 
L 207.87161 111.961038 
L 216.266251 110.513211 
L 224.660892 109.286993 
L 233.055532 108.298797 
L 241.450173 107.549724 
L 249.844814 107.027461 
L 258.239455 106.70992 
L 269.432309 106.557933 
L 280.625163 106.658624 
L 291.818017 106.964139 
L 305.809085 107.596498 
L 319.800153 108.495077 
L 333.791221 109.647013 
L 350.580502 111.276784 
L 372.966211 113.449348 
L 384.159065 114.293551 
L 392.553706 114.730078 
L 400.948346 114.956918 
L 409.342987 114.949981 
L 417.737628 114.699902 
L 426.132269 114.213183 
L 434.526909 113.511869 
L 445.719764 112.306608 
L 459.710831 110.529492 
L 482.09654 107.655513 
L 493.289394 106.441682 
L 504.482249 105.464812 
L 515.675103 104.731682 
L 529.666171 104.091942 
L 568.841161 102.571032 
L 582.832228 101.717061 
L 613.612578 99.667024 
L 622.007218 99.343649 
L 630.401859 99.250511 
L 638.7965 99.448058 
L 644.392927 99.764363 
L 649.989354 100.238926 
L 655.585781 100.875854 
L 661.182208 101.674604 
L 666.778635 102.630009 
L 675.173276 104.334852 
L 683.567917 106.321449 
L 691.962558 108.526348 
L 705.953625 112.486989 
L 725.54112 118.05939 
L 731.137547 119.557268 
L 731.137547 119.557268 
" clip-path="url(#pa2902d382f)" style="fill: none; stroke: #ffffff; stroke-width: 2; stroke-linecap: square"/>
   </g>
   <g id="line2d_16">
    <path d="M 174.293048 133.11 
L 731.137547 133.11 
" style="fill: none; stroke: #000000; stroke-linecap: square"/>
   </g>
   <g id="text_2">
    <g id="patch_5">
     <path d="M 20.878125 142.519688 
L 119.784375 142.519688 
L 119.784375 123.700312 
L 20.878125 123.700312 
z
" style="fill: #ffffff; opacity: 0.5"/>
    </g>
    <!-- Ethical Consumers -->
    <g transform="translate(24.838125 135.992813) scale(0.12 -0.12)">
     <defs>
      <path id="TimesNewRomanPSMT-45" d="M 1338 4006 
L 1338 2331 
L 2269 2331 
Q 2631 2331 2753 2441 
Q 2916 2584 2934 2947 
L 3050 2947 
L 3050 1472 
L 2934 1472 
Q 2891 1781 2847 1869 
Q 2791 1978 2662 2040 
Q 2534 2103 2269 2103 
L 1338 2103 
L 1338 706 
Q 1338 425 1363 364 
Q 1388 303 1450 267 
Q 1513 231 1688 231 
L 2406 231 
Q 2766 231 2928 281 
Q 3091 331 3241 478 
Q 3434 672 3638 1063 
L 3763 1063 
L 3397 0 
L 131 0 
L 131 116 
L 281 116 
Q 431 116 566 188 
Q 666 238 702 338 
Q 738 438 738 747 
L 738 3500 
Q 738 3903 656 3997 
Q 544 4122 281 4122 
L 131 4122 
L 131 4238 
L 3397 4238 
L 3444 3309 
L 3322 3309 
Q 3256 3644 3176 3769 
Q 3097 3894 2941 3959 
Q 2816 4006 2500 4006 
L 1338 4006 
z
" transform="scale(0.015625)"/>
      <path id="TimesNewRomanPSMT-74" d="M 1031 3803 
L 1031 2863 
L 1700 2863 
L 1700 2644 
L 1031 2644 
L 1031 788 
Q 1031 509 1111 412 
Q 1191 316 1316 316 
Q 1419 316 1516 380 
Q 1613 444 1666 569 
L 1788 569 
Q 1678 263 1478 108 
Q 1278 -47 1066 -47 
Q 922 -47 784 33 
Q 647 113 581 261 
Q 516 409 516 719 
L 516 2644 
L 63 2644 
L 63 2747 
Q 234 2816 414 2980 
Q 594 3144 734 3369 
Q 806 3488 934 3803 
L 1031 3803 
z
" transform="scale(0.015625)"/>
      <path id="TimesNewRomanPSMT-68" d="M 1041 4444 
L 1041 2350 
Q 1388 2731 1591 2839 
Q 1794 2947 1997 2947 
Q 2241 2947 2416 2812 
Q 2591 2678 2675 2391 
Q 2734 2191 2734 1659 
L 2734 647 
Q 2734 375 2778 275 
Q 2809 200 2884 156 
Q 2959 113 3159 113 
L 3159 0 
L 1753 0 
L 1753 113 
L 1819 113 
Q 2019 113 2097 173 
Q 2175 234 2206 353 
Q 2216 403 2216 647 
L 2216 1659 
Q 2216 2128 2167 2275 
Q 2119 2422 2012 2495 
Q 1906 2569 1756 2569 
Q 1603 2569 1437 2487 
Q 1272 2406 1041 2159 
L 1041 647 
Q 1041 353 1073 281 
Q 1106 209 1195 161 
Q 1284 113 1503 113 
L 1503 0 
L 84 0 
L 84 113 
Q 275 113 384 172 
Q 447 203 484 290 
Q 522 378 522 647 
L 522 3238 
Q 522 3728 498 3840 
Q 475 3953 426 3993 
Q 378 4034 297 4034 
Q 231 4034 84 3984 
L 41 4094 
L 897 4444 
L 1041 4444 
z
" transform="scale(0.015625)"/>
      <path id="TimesNewRomanPSMT-63" d="M 2631 1088 
Q 2516 522 2178 217 
Q 1841 -88 1431 -88 
Q 944 -88 581 321 
Q 219 731 219 1428 
Q 219 2103 620 2525 
Q 1022 2947 1584 2947 
Q 2006 2947 2278 2723 
Q 2550 2500 2550 2259 
Q 2550 2141 2473 2067 
Q 2397 1994 2259 1994 
Q 2075 1994 1981 2113 
Q 1928 2178 1911 2362 
Q 1894 2547 1784 2644 
Q 1675 2738 1481 2738 
Q 1169 2738 978 2506 
Q 725 2200 725 1697 
Q 725 1184 976 792 
Q 1228 400 1656 400 
Q 1963 400 2206 609 
Q 2378 753 2541 1131 
L 2631 1088 
z
" transform="scale(0.015625)"/>
      <path id="TimesNewRomanPSMT-6c" d="M 1184 4444 
L 1184 647 
Q 1184 378 1223 290 
Q 1263 203 1344 158 
Q 1425 113 1647 113 
L 1647 0 
L 244 0 
L 244 113 
Q 441 113 512 153 
Q 584 194 625 287 
Q 666 381 666 647 
L 666 3247 
Q 666 3731 644 3842 
Q 622 3953 573 3993 
Q 525 4034 450 4034 
Q 369 4034 244 3984 
L 191 4094 
L 1044 4444 
L 1184 4444 
z
" transform="scale(0.015625)"/>
      <path id="TimesNewRomanPSMT-43" d="M 3853 4334 
L 3950 2894 
L 3853 2894 
Q 3659 3541 3300 3825 
Q 2941 4109 2438 4109 
Q 2016 4109 1675 3895 
Q 1334 3681 1139 3212 
Q 944 2744 944 2047 
Q 944 1472 1128 1050 
Q 1313 628 1683 403 
Q 2053 178 2528 178 
Q 2941 178 3256 354 
Q 3572 531 3950 1056 
L 4047 994 
Q 3728 428 3303 165 
Q 2878 -97 2294 -97 
Q 1241 -97 663 684 
Q 231 1266 231 2053 
Q 231 2688 515 3219 
Q 800 3750 1298 4042 
Q 1797 4334 2388 4334 
Q 2847 4334 3294 4109 
Q 3425 4041 3481 4041 
Q 3566 4041 3628 4100 
Q 3709 4184 3744 4334 
L 3853 4334 
z
" transform="scale(0.015625)"/>
      <path id="TimesNewRomanPSMT-6f" d="M 1600 2947 
Q 2250 2947 2644 2453 
Q 2978 2031 2978 1484 
Q 2978 1100 2793 706 
Q 2609 313 2286 112 
Q 1963 -88 1566 -88 
Q 919 -88 538 428 
Q 216 863 216 1403 
Q 216 1797 411 2186 
Q 606 2575 925 2761 
Q 1244 2947 1600 2947 
z
M 1503 2744 
Q 1338 2744 1170 2645 
Q 1003 2547 900 2300 
Q 797 2053 797 1666 
Q 797 1041 1045 587 
Q 1294 134 1700 134 
Q 2003 134 2200 384 
Q 2397 634 2397 1244 
Q 2397 2006 2069 2444 
Q 1847 2744 1503 2744 
z
" transform="scale(0.015625)"/>
     </defs>
     <use xlink:href="#TimesNewRomanPSMT-45"/>
     <use xlink:href="#TimesNewRomanPSMT-74" transform="translate(61.083984 0)"/>
     <use xlink:href="#TimesNewRomanPSMT-68" transform="translate(88.867188 0)"/>
     <use xlink:href="#TimesNewRomanPSMT-69" transform="translate(138.867188 0)"/>
     <use xlink:href="#TimesNewRomanPSMT-63" transform="translate(166.650391 0)"/>
     <use xlink:href="#TimesNewRomanPSMT-61" transform="translate(211.035156 0)"/>
     <use xlink:href="#TimesNewRomanPSMT-6c" transform="translate(255.419922 0)"/>
     <use xlink:href="#TimesNewRomanPSMT-20" transform="translate(283.203125 0)"/>
     <use xlink:href="#TimesNewRomanPSMT-43" transform="translate(308.203125 0)"/>
     <use xlink:href="#TimesNewRomanPSMT-6f" transform="translate(374.902344 0)"/>
     <use xlink:href="#TimesNewRomanPSMT-6e" transform="translate(424.902344 0)"/>
     <use xlink:href="#TimesNewRomanPSMT-73" transform="translate(474.902344 0)"/>
     <use xlink:href="#TimesNewRomanPSMT-75" transform="translate(513.818359 0)"/>
     <use xlink:href="#TimesNewRomanPSMT-6d" transform="translate(563.818359 0)"/>
     <use xlink:href="#TimesNewRomanPSMT-65" transform="translate(641.601562 0)"/>
     <use xlink:href="#TimesNewRomanPSMT-72" transform="translate(685.986328 0)"/>
     <use xlink:href="#TimesNewRomanPSMT-73" transform="translate(719.287109 0)"/>
    </g>
   </g>
  </g>
  <g id="axes_3">
   <g id="patch_6">
    <path d="M 174.293048 170.44 
L 731.137547 170.44 
L 731.137547 95.78 
L 174.293048 95.78 
L 174.293048 170.44 
z
" style="fill: none; opacity: 0"/>
   </g>
   <g id="FillBetweenPolyCollection_3">
    <defs>
     <path id="m0241ff248f" d="M 174.293048 -94.299378 
L 174.293048 -41.815313 
L 177.091261 -41.815313 
L 179.889475 -41.815313 
L 182.687688 -41.815313 
L 185.485902 -41.815313 
L 188.284115 -41.815313 
L 191.082329 -41.815313 
L 193.880542 -41.815313 
L 196.678756 -41.815313 
L 199.47697 -41.815313 
L 202.275183 -41.815313 
L 205.073397 -41.815313 
L 207.87161 -41.815313 
L 210.669824 -41.815313 
L 213.468037 -41.815313 
L 216.266251 -41.815313 
L 219.064465 -41.815313 
L 221.862678 -41.815313 
L 224.660892 -41.815313 
L 227.459105 -41.815313 
L 230.257319 -41.815313 
L 233.055532 -41.815313 
L 235.853746 -41.815313 
L 238.65196 -41.815313 
L 241.450173 -41.815313 
L 244.248387 -41.815313 
L 247.0466 -41.815313 
L 249.844814 -41.815313 
L 252.643027 -41.815313 
L 255.441241 -41.815313 
L 258.239455 -41.815313 
L 261.037668 -41.815313 
L 263.835882 -41.815313 
L 266.634095 -41.815313 
L 269.432309 -41.815313 
L 272.230522 -41.815313 
L 275.028736 -41.815313 
L 277.82695 -41.815313 
L 280.625163 -41.815313 
L 283.423377 -41.815313 
L 286.22159 -41.815313 
L 289.019804 -41.815313 
L 291.818017 -41.815313 
L 294.616231 -41.815313 
L 297.414444 -41.815313 
L 300.212658 -41.815313 
L 303.010872 -41.815313 
L 305.809085 -41.815313 
L 308.607299 -41.815313 
L 311.405512 -41.815313 
L 314.203726 -41.815313 
L 317.001939 -41.815313 
L 319.800153 -41.815313 
L 322.598367 -41.815313 
L 325.39658 -41.815313 
L 328.194794 -41.815313 
L 330.993007 -41.815313 
L 333.791221 -41.815313 
L 336.589434 -41.815313 
L 339.387648 -41.815313 
L 342.185862 -41.815313 
L 344.984075 -41.815313 
L 347.782289 -41.815313 
L 350.580502 -41.815313 
L 353.378716 -41.815313 
L 356.176929 -41.815313 
L 358.975143 -41.815313 
L 361.773357 -41.815313 
L 364.57157 -41.815313 
L 367.369784 -41.815313 
L 370.167997 -41.815313 
L 372.966211 -41.815313 
L 375.764424 -41.815313 
L 378.562638 -41.815313 
L 381.360852 -41.815313 
L 384.159065 -41.815313 
L 386.957279 -41.815313 
L 389.755492 -41.815313 
L 392.553706 -41.815313 
L 395.351919 -41.815313 
L 398.150133 -41.815313 
L 400.948346 -41.815313 
L 403.74656 -41.815313 
L 406.544774 -41.815313 
L 409.342987 -41.815313 
L 412.141201 -41.815313 
L 414.939414 -41.815313 
L 417.737628 -41.815313 
L 420.535841 -41.815313 
L 423.334055 -41.815313 
L 426.132269 -41.815313 
L 428.930482 -41.815313 
L 431.728696 -41.815313 
L 434.526909 -41.815313 
L 437.325123 -41.815313 
L 440.123336 -41.815313 
L 442.92155 -41.815313 
L 445.719764 -41.815313 
L 448.517977 -41.815313 
L 451.316191 -41.815313 
L 454.114404 -41.815313 
L 456.912618 -41.815313 
L 459.710831 -41.815313 
L 462.509045 -41.815313 
L 465.307259 -41.815313 
L 468.105472 -41.815313 
L 470.903686 -41.815313 
L 473.701899 -41.815313 
L 476.500113 -41.815313 
L 479.298326 -41.815313 
L 482.09654 -41.815313 
L 484.894754 -41.815313 
L 487.692967 -41.815313 
L 490.491181 -41.815313 
L 493.289394 -41.815313 
L 496.087608 -41.815313 
L 498.885821 -41.815313 
L 501.684035 -41.815313 
L 504.482249 -41.815313 
L 507.280462 -41.815313 
L 510.078676 -41.815313 
L 512.876889 -41.815313 
L 515.675103 -41.815313 
L 518.473316 -41.815313 
L 521.27153 -41.815313 
L 524.069743 -41.815313 
L 526.867957 -41.815313 
L 529.666171 -41.815313 
L 532.464384 -41.815313 
L 535.262598 -41.815313 
L 538.060811 -41.815313 
L 540.859025 -41.815313 
L 543.657238 -41.815313 
L 546.455452 -41.815313 
L 549.253666 -41.815313 
L 552.051879 -41.815313 
L 554.850093 -41.815313 
L 557.648306 -41.815313 
L 560.44652 -41.815313 
L 563.244733 -41.815313 
L 566.042947 -41.815313 
L 568.841161 -41.815313 
L 571.639374 -41.815313 
L 574.437588 -41.815313 
L 577.235801 -41.815313 
L 580.034015 -41.815313 
L 582.832228 -41.815313 
L 585.630442 -41.815313 
L 588.428656 -41.815313 
L 591.226869 -41.815313 
L 594.025083 -41.815313 
L 596.823296 -41.815313 
L 599.62151 -41.815313 
L 602.419723 -41.815313 
L 605.217937 -41.815313 
L 608.016151 -41.815313 
L 610.814364 -41.815313 
L 613.612578 -41.815313 
L 616.410791 -41.815313 
L 619.209005 -41.815313 
L 622.007218 -41.815313 
L 624.805432 -41.815313 
L 627.603645 -41.815313 
L 630.401859 -41.815313 
L 633.200073 -41.815313 
L 635.998286 -41.815313 
L 638.7965 -41.815313 
L 641.594713 -41.815313 
L 644.392927 -41.815313 
L 647.19114 -41.815313 
L 649.989354 -41.815313 
L 652.787568 -41.815313 
L 655.585781 -41.815313 
L 658.383995 -41.815313 
L 661.182208 -41.815313 
L 663.980422 -41.815313 
L 666.778635 -41.815313 
L 669.576849 -41.815313 
L 672.375063 -41.815313 
L 675.173276 -41.815313 
L 677.97149 -41.815313 
L 680.769703 -41.815313 
L 683.567917 -41.815313 
L 686.36613 -41.815313 
L 689.164344 -41.815313 
L 691.962558 -41.815313 
L 694.760771 -41.815313 
L 697.558985 -41.815313 
L 700.357198 -41.815313 
L 703.155412 -41.815313 
L 705.953625 -41.815313 
L 708.751839 -41.815313 
L 711.550053 -41.815313 
L 714.348266 -41.815313 
L 717.14648 -41.815313 
L 719.944693 -41.815313 
L 722.742907 -41.815313 
L 725.54112 -41.815313 
L 728.339334 -41.815313 
L 731.137547 -41.815313 
L 731.137547 -50.38627 
L 731.137547 -50.38627 
L 728.339334 -50.66747 
L 725.54112 -50.938669 
L 722.742907 -51.198586 
L 719.944693 -51.445998 
L 717.14648 -51.679757 
L 714.348266 -51.898798 
L 711.550053 -52.10215 
L 708.751839 -52.288946 
L 705.953625 -52.458434 
L 703.155412 -52.609981 
L 700.357198 -52.743083 
L 697.558985 -52.857367 
L 694.760771 -52.952592 
L 691.962558 -53.028658 
L 689.164344 -53.085599 
L 686.36613 -53.123584 
L 683.567917 -53.142915 
L 680.769703 -53.144024 
L 677.97149 -53.127463 
L 675.173276 -53.093902 
L 672.375063 -53.044118 
L 669.576849 -52.978989 
L 666.778635 -52.899482 
L 663.980422 -52.806644 
L 661.182208 -52.70159 
L 658.383995 -52.585495 
L 655.585781 -52.459578 
L 652.787568 -52.325095 
L 649.989354 -52.183326 
L 647.19114 -52.035562 
L 644.392927 -51.883097 
L 641.594713 -51.727216 
L 638.7965 -51.569184 
L 635.998286 -51.410241 
L 633.200073 -51.251586 
L 630.401859 -51.094376 
L 627.603645 -50.939711 
L 624.805432 -50.788636 
L 622.007218 -50.642126 
L 619.209005 -50.501087 
L 616.410791 -50.366348 
L 613.612578 -50.238659 
L 610.814364 -50.118685 
L 608.016151 -50.007005 
L 605.217937 -49.904113 
L 602.419723 -49.810409 
L 599.62151 -49.726206 
L 596.823296 -49.651725 
L 594.025083 -49.587099 
L 591.226869 -49.53237 
L 588.428656 -49.487493 
L 585.630442 -49.452337 
L 582.832228 -49.426688 
L 580.034015 -49.410252 
L 577.235801 -49.402659 
L 574.437588 -49.403463 
L 571.639374 -49.412153 
L 568.841161 -49.428151 
L 566.042947 -49.450824 
L 563.244733 -49.479484 
L 560.44652 -49.513395 
L 557.648306 -49.551785 
L 554.850093 -49.593847 
L 552.051879 -49.638746 
L 549.253666 -49.685635 
L 546.455452 -49.733651 
L 543.657238 -49.781934 
L 540.859025 -49.829632 
L 538.060811 -49.875907 
L 535.262598 -49.919948 
L 532.464384 -49.960979 
L 529.666171 -49.998269 
L 526.867957 -50.031139 
L 524.069743 -50.058975 
L 521.27153 -50.081231 
L 518.473316 -50.097443 
L 515.675103 -50.107235 
L 512.876889 -50.110324 
L 510.078676 -50.106532 
L 507.280462 -50.095786 
L 504.482249 -50.078125 
L 501.684035 -50.053706 
L 498.885821 -50.022801 
L 496.087608 -49.985805 
L 493.289394 -49.94323 
L 490.491181 -49.895707 
L 487.692967 -49.84398 
L 484.894754 -49.788903 
L 482.09654 -49.731434 
L 479.298326 -49.672624 
L 476.500113 -49.613614 
L 473.701899 -49.555618 
L 470.903686 -49.499914 
L 468.105472 -49.44783 
L 465.307259 -49.400732 
L 462.509045 -49.360005 
L 459.710831 -49.327043 
L 456.912618 -49.303229 
L 454.114404 -49.28992 
L 451.316191 -49.288433 
L 448.517977 -49.300028 
L 445.719764 -49.325893 
L 442.92155 -49.367131 
L 440.123336 -49.424749 
L 437.325123 -49.499643 
L 434.526909 -49.592593 
L 431.728696 -49.704252 
L 428.930482 -49.835141 
L 426.132269 -49.985648 
L 423.334055 -50.156022 
L 420.535841 -50.34638 
L 417.737628 -50.556706 
L 414.939414 -50.786861 
L 412.141201 -51.036587 
L 409.342987 -51.305523 
L 406.544774 -51.593213 
L 403.74656 -51.899126 
L 400.948346 -52.22267 
L 398.150133 -52.563211 
L 395.351919 -52.920095 
L 392.553706 -53.292669 
L 389.755492 -53.680302 
L 386.957279 -54.082411 
L 384.159065 -54.498481 
L 381.360852 -54.928089 
L 378.562638 -55.370926 
L 375.764424 -55.826822 
L 372.966211 -56.29576 
L 370.167997 -56.777897 
L 367.369784 -57.273583 
L 364.57157 -57.783368 
L 361.773357 -58.308018 
L 358.975143 -58.848515 
L 356.176929 -59.406068 
L 353.378716 -59.982104 
L 350.580502 -60.578266 
L 347.782289 -61.196401 
L 344.984075 -61.838546 
L 342.185862 -62.506904 
L 339.387648 -63.203821 
L 336.589434 -63.931754 
L 333.791221 -64.693233 
L 330.993007 -65.490826 
L 328.194794 -66.327087 
L 325.39658 -67.204509 
L 322.598367 -68.125474 
L 319.800153 -69.092191 
L 317.001939 -70.106645 
L 314.203726 -71.170532 
L 311.405512 -72.285198 
L 308.607299 -73.451587 
L 305.809085 -74.670172 
L 303.010872 -75.940909 
L 300.212658 -77.263177 
L 297.414444 -78.635736 
L 294.616231 -80.056682 
L 291.818017 -81.523418 
L 289.019804 -83.032618 
L 286.22159 -84.580221 
L 283.423377 -86.161414 
L 280.625163 -87.770638 
L 277.82695 -89.401606 
L 275.028736 -91.047319 
L 272.230522 -92.700112 
L 269.432309 -94.351697 
L 266.634095 -95.993225 
L 263.835882 -97.615353 
L 261.037668 -99.208331 
L 258.239455 -100.762088 
L 255.441241 -102.266331 
L 252.643027 -103.710651 
L 249.844814 -105.084636 
L 247.0466 -106.377982 
L 244.248387 -107.580618 
L 241.450173 -108.682816 
L 238.65196 -109.675313 
L 235.853746 -110.549422 
L 233.055532 -111.297146 
L 230.257319 -111.91127 
L 227.459105 -112.385467 
L 224.660892 -112.714369 
L 221.862678 -112.89365 
L 219.064465 -112.920074 
L 216.266251 -112.791552 
L 213.468037 -112.507164 
L 210.669824 -112.067178 
L 207.87161 -111.473051 
L 205.073397 -110.727416 
L 202.275183 -109.834049 
L 199.47697 -108.797827 
L 196.678756 -107.624669 
L 193.880542 -106.321469 
L 191.082329 -104.89601 
L 188.284115 -103.356876 
L 185.485902 -101.713351 
L 182.687688 -99.97531 
L 179.889475 -98.153111 
L 177.091261 -96.257476 
L 174.293048 -94.299378 
z
" style="stroke: #b2df8a"/>
    </defs>
    <g clip-path="url(#pf937041d7b)">
     <use xlink:href="#m0241ff248f" x="0" y="212.255313" style="fill: #b2df8a; fill-opacity: 0.5; stroke: #b2df8a"/>
    </g>
   </g>
   <g id="matplotlib.axis_5">
    <g id="xtick_13">
     <g id="line2d_17">
      <g>
       <use xlink:href="#m8f8d56e90b" x="174.293048" y="170.44" style="stroke: #000000; stroke-width: 0.8"/>
      </g>
     </g>
     <g id="text_3">
      <!-- 0 -->
      <g transform="translate(171.293048 185.7725) scale(0.12 -0.12)">
       <defs>
        <path id="TimesNewRomanPSMT-30" d="M 231 2094 
Q 231 2819 450 3342 
Q 669 3866 1031 4122 
Q 1313 4325 1613 4325 
Q 2100 4325 2488 3828 
Q 2972 3213 2972 2159 
Q 2972 1422 2759 906 
Q 2547 391 2217 158 
Q 1888 -75 1581 -75 
Q 975 -75 572 641 
Q 231 1244 231 2094 
z
M 844 2016 
Q 844 1141 1059 588 
Q 1238 122 1591 122 
Q 1759 122 1940 273 
Q 2122 425 2216 781 
Q 2359 1319 2359 2297 
Q 2359 3022 2209 3506 
Q 2097 3866 1919 4016 
Q 1791 4119 1609 4119 
Q 1397 4119 1231 3928 
Q 1006 3669 925 3112 
Q 844 2556 844 2016 
z
" transform="scale(0.015625)"/>
       </defs>
       <use xlink:href="#TimesNewRomanPSMT-30"/>
      </g>
     </g>
    </g>
    <g id="xtick_14">
     <g id="line2d_18">
      <g>
       <use xlink:href="#m8f8d56e90b" x="285.661947" y="170.44" style="stroke: #000000; stroke-width: 0.8"/>
      </g>
     </g>
     <g id="text_4">
      <!-- 20 -->
      <g transform="translate(279.661947 185.7725) scale(0.12 -0.12)">
       <defs>
        <path id="TimesNewRomanPSMT-32" d="M 2934 816 
L 2638 0 
L 138 0 
L 138 116 
Q 1241 1122 1691 1759 
Q 2141 2397 2141 2925 
Q 2141 3328 1894 3587 
Q 1647 3847 1303 3847 
Q 991 3847 742 3664 
Q 494 3481 375 3128 
L 259 3128 
Q 338 3706 661 4015 
Q 984 4325 1469 4325 
Q 1984 4325 2329 3994 
Q 2675 3663 2675 3213 
Q 2675 2891 2525 2569 
Q 2294 2063 1775 1497 
Q 997 647 803 472 
L 1909 472 
Q 2247 472 2383 497 
Q 2519 522 2628 598 
Q 2738 675 2819 816 
L 2934 816 
z
" transform="scale(0.015625)"/>
       </defs>
       <use xlink:href="#TimesNewRomanPSMT-32"/>
       <use xlink:href="#TimesNewRomanPSMT-30" transform="translate(50 0)"/>
      </g>
     </g>
    </g>
    <g id="xtick_15">
     <g id="line2d_19">
      <g>
       <use xlink:href="#m8f8d56e90b" x="397.030847" y="170.44" style="stroke: #000000; stroke-width: 0.8"/>
      </g>
     </g>
     <g id="text_5">
      <!-- 40 -->
      <g transform="translate(391.030847 185.7725) scale(0.12 -0.12)">
       <defs>
        <path id="TimesNewRomanPSMT-34" d="M 2978 1563 
L 2978 1119 
L 2409 1119 
L 2409 0 
L 1894 0 
L 1894 1119 
L 100 1119 
L 100 1519 
L 2066 4325 
L 2409 4325 
L 2409 1563 
L 2978 1563 
z
M 1894 1563 
L 1894 3666 
L 406 1563 
L 1894 1563 
z
" transform="scale(0.015625)"/>
       </defs>
       <use xlink:href="#TimesNewRomanPSMT-34"/>
       <use xlink:href="#TimesNewRomanPSMT-30" transform="translate(50 0)"/>
      </g>
     </g>
    </g>
    <g id="xtick_16">
     <g id="line2d_20">
      <g>
       <use xlink:href="#m8f8d56e90b" x="508.399747" y="170.44" style="stroke: #000000; stroke-width: 0.8"/>
      </g>
     </g>
     <g id="text_6">
      <!-- 60 -->
      <g transform="translate(502.399747 185.7725) scale(0.12 -0.12)">
       <defs>
        <path id="TimesNewRomanPSMT-36" d="M 2869 4325 
L 2869 4209 
Q 2456 4169 2195 4045 
Q 1934 3922 1679 3669 
Q 1425 3416 1258 3105 
Q 1091 2794 978 2366 
Q 1428 2675 1881 2675 
Q 2316 2675 2634 2325 
Q 2953 1975 2953 1425 
Q 2953 894 2631 456 
Q 2244 -75 1606 -75 
Q 1172 -75 869 213 
Q 275 772 275 1663 
Q 275 2231 503 2743 
Q 731 3256 1154 3653 
Q 1578 4050 1965 4187 
Q 2353 4325 2688 4325 
L 2869 4325 
z
M 925 2138 
Q 869 1716 869 1456 
Q 869 1156 980 804 
Q 1091 453 1309 247 
Q 1469 100 1697 100 
Q 1969 100 2183 356 
Q 2397 613 2397 1088 
Q 2397 1622 2184 2012 
Q 1972 2403 1581 2403 
Q 1463 2403 1327 2353 
Q 1191 2303 925 2138 
z
" transform="scale(0.015625)"/>
       </defs>
       <use xlink:href="#TimesNewRomanPSMT-36"/>
       <use xlink:href="#TimesNewRomanPSMT-30" transform="translate(50 0)"/>
      </g>
     </g>
    </g>
    <g id="xtick_17">
     <g id="line2d_21">
      <g>
       <use xlink:href="#m8f8d56e90b" x="619.768648" y="170.44" style="stroke: #000000; stroke-width: 0.8"/>
      </g>
     </g>
     <g id="text_7">
      <!-- 80 -->
      <g transform="translate(613.768648 185.7725) scale(0.12 -0.12)">
       <defs>
        <path id="TimesNewRomanPSMT-38" d="M 1228 2134 
Q 725 2547 579 2797 
Q 434 3047 434 3316 
Q 434 3728 753 4026 
Q 1072 4325 1600 4325 
Q 2113 4325 2425 4047 
Q 2738 3769 2738 3413 
Q 2738 3175 2569 2928 
Q 2400 2681 1866 2347 
Q 2416 1922 2594 1678 
Q 2831 1359 2831 1006 
Q 2831 559 2490 242 
Q 2150 -75 1597 -75 
Q 994 -75 656 303 
Q 388 606 388 966 
Q 388 1247 577 1523 
Q 766 1800 1228 2134 
z
M 1719 2469 
Q 2094 2806 2194 3001 
Q 2294 3197 2294 3444 
Q 2294 3772 2109 3958 
Q 1925 4144 1606 4144 
Q 1288 4144 1088 3959 
Q 888 3775 888 3528 
Q 888 3366 970 3203 
Q 1053 3041 1206 2894 
L 1719 2469 
z
M 1375 2016 
Q 1116 1797 991 1539 
Q 866 1281 866 981 
Q 866 578 1086 336 
Q 1306 94 1647 94 
Q 1984 94 2187 284 
Q 2391 475 2391 747 
Q 2391 972 2272 1150 
Q 2050 1481 1375 2016 
z
" transform="scale(0.015625)"/>
       </defs>
       <use xlink:href="#TimesNewRomanPSMT-38"/>
       <use xlink:href="#TimesNewRomanPSMT-30" transform="translate(50 0)"/>
      </g>
     </g>
    </g>
    <g id="xtick_18">
     <g id="line2d_22">
      <g>
       <use xlink:href="#m8f8d56e90b" x="731.137547" y="170.44" style="stroke: #000000; stroke-width: 0.8"/>
      </g>
     </g>
     <g id="text_8">
      <!-- 100 -->
      <g transform="translate(722.137547 185.7725) scale(0.12 -0.12)">
       <defs>
        <path id="TimesNewRomanPSMT-31" d="M 750 3822 
L 1781 4325 
L 1884 4325 
L 1884 747 
Q 1884 391 1914 303 
Q 1944 216 2037 169 
Q 2131 122 2419 116 
L 2419 0 
L 825 0 
L 825 116 
Q 1125 122 1212 167 
Q 1300 213 1334 289 
Q 1369 366 1369 747 
L 1369 3034 
Q 1369 3497 1338 3628 
Q 1316 3728 1258 3775 
Q 1200 3822 1119 3822 
Q 1003 3822 797 3725 
L 750 3822 
z
" transform="scale(0.015625)"/>
       </defs>
       <use xlink:href="#TimesNewRomanPSMT-31"/>
       <use xlink:href="#TimesNewRomanPSMT-30" transform="translate(50 0)"/>
       <use xlink:href="#TimesNewRomanPSMT-30" transform="translate(100 0)"/>
      </g>
     </g>
    </g>
    <g id="text_9">
     <!-- Value -->
     <g transform="translate(436.77936 202.060625) scale(0.14 -0.14)">
      <defs>
       <path id="TimesNewRomanPSMT-56" d="M 4544 4238 
L 4544 4122 
Q 4319 4081 4203 3978 
Q 4038 3825 3909 3509 
L 2431 -97 
L 2316 -97 
L 728 3556 
Q 606 3838 556 3900 
Q 478 3997 364 4051 
Q 250 4106 56 4122 
L 56 4238 
L 1788 4238 
L 1788 4122 
Q 1494 4094 1406 4022 
Q 1319 3950 1319 3838 
Q 1319 3681 1463 3350 
L 2541 866 
L 3541 3319 
Q 3688 3681 3688 3822 
Q 3688 3913 3597 3995 
Q 3506 4078 3291 4113 
Q 3275 4116 3238 4122 
L 3238 4238 
L 4544 4238 
z
" transform="scale(0.015625)"/>
      </defs>
      <use xlink:href="#TimesNewRomanPSMT-56"/>
      <use xlink:href="#TimesNewRomanPSMT-61" transform="translate(61.091797 0)"/>
      <use xlink:href="#TimesNewRomanPSMT-6c" transform="translate(105.476562 0)"/>
      <use xlink:href="#TimesNewRomanPSMT-75" transform="translate(133.259766 0)"/>
      <use xlink:href="#TimesNewRomanPSMT-65" transform="translate(183.259766 0)"/>
     </g>
    </g>
   </g>
   <g id="matplotlib.axis_6"/>
   <g id="line2d_23">
    <path d="M 174.293048 117.955935 
L 179.889475 114.102201 
L 185.485902 110.541961 
L 191.082329 107.359303 
L 196.678756 104.630644 
L 199.47697 103.457486 
L 202.275183 102.421263 
L 205.073397 101.527896 
L 207.87161 100.782261 
L 210.669824 100.188135 
L 213.468037 99.748149 
L 216.266251 99.46376 
L 219.064465 99.335238 
L 221.862678 99.361663 
L 224.660892 99.540943 
L 227.459105 99.869846 
L 230.257319 100.344042 
L 233.055532 100.958167 
L 235.853746 101.70589 
L 238.65196 102.58 
L 244.248387 104.674694 
L 249.844814 107.170677 
L 255.441241 109.988981 
L 261.037668 113.046981 
L 269.432309 117.903615 
L 283.423377 126.093899 
L 291.818017 130.731895 
L 297.414444 133.619577 
L 303.010872 136.314403 
L 308.607299 138.803726 
L 314.203726 141.084781 
L 319.800153 143.163121 
L 325.39658 145.050803 
L 330.993007 146.764486 
L 339.387648 149.051492 
L 347.782289 151.058911 
L 356.176929 152.849245 
L 367.369784 154.981729 
L 378.562638 156.884386 
L 389.755492 158.57501 
L 400.948346 160.032643 
L 412.141201 161.218725 
L 420.535841 161.908933 
L 428.930482 162.420171 
L 437.325123 162.755669 
L 448.517977 162.955284 
L 459.710831 162.928269 
L 476.500113 162.641698 
L 501.684035 162.201607 
L 518.473316 162.15787 
L 538.060811 162.379406 
L 571.639374 162.84316 
L 585.630442 162.802976 
L 599.62151 162.529107 
L 613.612578 162.016653 
L 630.401859 161.160937 
L 658.383995 159.669818 
L 669.576849 159.276323 
L 680.769703 159.111289 
L 691.962558 159.226654 
L 700.357198 159.512229 
L 711.550053 160.153163 
L 722.742907 161.056727 
L 731.137547 161.869043 
L 731.137547 161.869043 
" clip-path="url(#pf937041d7b)" style="fill: none; stroke: #ffffff; stroke-width: 2; stroke-linecap: square"/>
   </g>
   <g id="line2d_24">
    <path d="M 174.293048 170.44 
L 731.137547 170.44 
" style="fill: none; stroke: #000000; stroke-linecap: square"/>
   </g>
   <g id="text_10">
    <g id="patch_7">
     <path d="M 3.24 179.849687 
L 119.784375 179.849687 
L 119.784375 161.030312 
L 3.24 161.030312 
z
" style="fill: #ffffff; opacity: 0.5"/>
    </g>
    <!-- Convenience-Oriented -->
    <g transform="translate(7.2 173.322812) scale(0.12 -0.12)">
     <defs>
      <path id="TimesNewRomanPSMT-76" d="M 53 2863 
L 1400 2863 
L 1400 2747 
L 1313 2747 
Q 1191 2747 1127 2687 
Q 1063 2628 1063 2528 
Q 1063 2419 1128 2269 
L 1794 688 
L 2463 2328 
Q 2534 2503 2534 2594 
Q 2534 2638 2509 2666 
Q 2475 2713 2422 2730 
Q 2369 2747 2206 2747 
L 2206 2863 
L 3141 2863 
L 3141 2747 
Q 2978 2734 2916 2681 
Q 2806 2588 2719 2369 
L 1703 -88 
L 1575 -88 
L 553 2328 
Q 484 2497 421 2570 
Q 359 2644 263 2694 
Q 209 2722 53 2747 
L 53 2863 
z
" transform="scale(0.015625)"/>
      <path id="TimesNewRomanPSMT-2d" d="M 259 1672 
L 1875 1672 
L 1875 1200 
L 259 1200 
L 259 1672 
z
" transform="scale(0.015625)"/>
      <path id="TimesNewRomanPSMT-4f" d="M 2341 4334 
Q 3166 4334 3770 3707 
Q 4375 3081 4375 2144 
Q 4375 1178 3765 540 
Q 3156 -97 2291 -97 
Q 1416 -97 820 525 
Q 225 1147 225 2134 
Q 225 3144 913 3781 
Q 1509 4334 2341 4334 
z
M 2281 4106 
Q 1713 4106 1369 3684 
Q 941 3159 941 2147 
Q 941 1109 1384 550 
Q 1725 125 2284 125 
Q 2881 125 3270 590 
Q 3659 1056 3659 2059 
Q 3659 3147 3231 3681 
Q 2888 4106 2281 4106 
z
" transform="scale(0.015625)"/>
     </defs>
     <use xlink:href="#TimesNewRomanPSMT-43"/>
     <use xlink:href="#TimesNewRomanPSMT-6f" transform="translate(66.699219 0)"/>
     <use xlink:href="#TimesNewRomanPSMT-6e" transform="translate(116.699219 0)"/>
     <use xlink:href="#TimesNewRomanPSMT-76" transform="translate(166.699219 0)"/>
     <use xlink:href="#TimesNewRomanPSMT-65" transform="translate(216.699219 0)"/>
     <use xlink:href="#TimesNewRomanPSMT-6e" transform="translate(261.083984 0)"/>
     <use xlink:href="#TimesNewRomanPSMT-69" transform="translate(311.083984 0)"/>
     <use xlink:href="#TimesNewRomanPSMT-65" transform="translate(338.867188 0)"/>
     <use xlink:href="#TimesNewRomanPSMT-6e" transform="translate(383.251953 0)"/>
     <use xlink:href="#TimesNewRomanPSMT-63" transform="translate(433.251953 0)"/>
     <use xlink:href="#TimesNewRomanPSMT-65" transform="translate(477.636719 0)"/>
     <use xlink:href="#TimesNewRomanPSMT-2d" transform="translate(522.021484 0)"/>
     <use xlink:href="#TimesNewRomanPSMT-4f" transform="translate(555.322266 0)"/>
     <use xlink:href="#TimesNewRomanPSMT-72" transform="translate(627.539062 0)"/>
     <use xlink:href="#TimesNewRomanPSMT-69" transform="translate(660.839844 0)"/>
     <use xlink:href="#TimesNewRomanPSMT-65" transform="translate(688.623047 0)"/>
     <use xlink:href="#TimesNewRomanPSMT-6e" transform="translate(733.007812 0)"/>
     <use xlink:href="#TimesNewRomanPSMT-74" transform="translate(783.007812 0)"/>
     <use xlink:href="#TimesNewRomanPSMT-65" transform="translate(810.791016 0)"/>
     <use xlink:href="#TimesNewRomanPSMT-64" transform="translate(855.175781 0)"/>
    </g>
   </g>
  </g>
  <g id="text_11">
   <!-- Consumer Preferences(%) -->
   <g transform="translate(297.748797 18.31) scale(0.16 -0.16)">
    <defs>
     <path id="TimesNewRomanPSMT-66" d="M 1319 2638 
L 1319 756 
Q 1319 356 1406 250 
Q 1522 113 1716 113 
L 1975 113 
L 1975 0 
L 266 0 
L 266 113 
L 394 113 
Q 519 113 622 175 
Q 725 238 764 344 
Q 803 450 803 756 
L 803 2638 
L 247 2638 
L 247 2863 
L 803 2863 
L 803 3050 
Q 803 3478 940 3775 
Q 1078 4072 1361 4255 
Q 1644 4438 1997 4438 
Q 2325 4438 2600 4225 
Q 2781 4084 2781 3909 
Q 2781 3816 2700 3733 
Q 2619 3650 2525 3650 
Q 2453 3650 2373 3701 
Q 2294 3753 2178 3923 
Q 2063 4094 1966 4153 
Q 1869 4213 1750 4213 
Q 1606 4213 1506 4136 
Q 1406 4059 1362 3898 
Q 1319 3738 1319 3069 
L 1319 2863 
L 2056 2863 
L 2056 2638 
L 1319 2638 
z
" transform="scale(0.015625)"/>
     <path id="TimesNewRomanPSMT-28" d="M 1988 -1253 
L 1988 -1369 
Q 1516 -1131 1200 -813 
Q 750 -359 506 256 
Q 263 872 263 1534 
Q 263 2503 741 3301 
Q 1219 4100 1988 4444 
L 1988 4313 
Q 1603 4100 1356 3731 
Q 1109 3363 987 2797 
Q 866 2231 866 1616 
Q 866 947 969 400 
Q 1050 -31 1165 -292 
Q 1281 -553 1476 -793 
Q 1672 -1034 1988 -1253 
z
" transform="scale(0.015625)"/>
     <path id="TimesNewRomanPSMT-25" d="M 4350 4334 
L 1263 -175 
L 984 -175 
L 4072 4334 
L 4350 4334 
z
M 1138 4334 
Q 1559 4334 1792 3984 
Q 2025 3634 2025 3181 
Q 2025 2638 1762 2341 
Q 1500 2044 1131 2044 
Q 884 2044 678 2180 
Q 472 2316 348 2584 
Q 225 2853 225 3181 
Q 225 3509 350 3786 
Q 475 4063 692 4198 
Q 909 4334 1138 4334 
z
M 1128 4159 
Q 969 4159 845 3971 
Q 722 3784 722 3184 
Q 722 2750 791 2522 
Q 844 2350 956 2256 
Q 1022 2200 1119 2200 
Q 1269 2200 1375 2363 
Q 1531 2603 1531 3166 
Q 1531 3759 1378 4000 
Q 1278 4159 1128 4159 
z
M 4206 2103 
Q 4428 2103 4648 1962 
Q 4869 1822 4989 1553 
Q 5109 1284 5109 963 
Q 5109 409 4843 117 
Q 4578 -175 4216 -175 
Q 3988 -175 3773 -34 
Q 3559 106 3436 367 
Q 3313 628 3313 963 
Q 3313 1291 3436 1562 
Q 3559 1834 3773 1968 
Q 3988 2103 4206 2103 
z
M 4209 1938 
Q 4059 1938 3950 1769 
Q 3809 1550 3809 941 
Q 3809 381 3953 159 
Q 4059 0 4209 0 
Q 4353 0 4466 172 
Q 4616 400 4616 956 
Q 4616 1544 4466 1778 
Q 4363 1938 4209 1938 
z
" transform="scale(0.015625)"/>
     <path id="TimesNewRomanPSMT-29" d="M 144 4313 
L 144 4444 
Q 619 4209 934 3891 
Q 1381 3434 1625 2820 
Q 1869 2206 1869 1541 
Q 1869 572 1392 -226 
Q 916 -1025 144 -1369 
L 144 -1253 
Q 528 -1038 776 -670 
Q 1025 -303 1145 264 
Q 1266 831 1266 1447 
Q 1266 2113 1163 2663 
Q 1084 3094 967 3353 
Q 850 3613 656 3853 
Q 463 4094 144 4313 
z
" transform="scale(0.015625)"/>
    </defs>
    <use xlink:href="#TimesNewRomanPSMT-43"/>
    <use xlink:href="#TimesNewRomanPSMT-6f" transform="translate(66.699219 0)"/>
    <use xlink:href="#TimesNewRomanPSMT-6e" transform="translate(116.699219 0)"/>
    <use xlink:href="#TimesNewRomanPSMT-73" transform="translate(166.699219 0)"/>
    <use xlink:href="#TimesNewRomanPSMT-75" transform="translate(205.615234 0)"/>
    <use xlink:href="#TimesNewRomanPSMT-6d" transform="translate(255.615234 0)"/>
    <use xlink:href="#TimesNewRomanPSMT-65" transform="translate(333.398438 0)"/>
    <use xlink:href="#TimesNewRomanPSMT-72" transform="translate(377.783203 0)"/>
    <use xlink:href="#TimesNewRomanPSMT-20" transform="translate(411.083984 0)"/>
    <use xlink:href="#TimesNewRomanPSMT-50" transform="translate(436.083984 0)"/>
    <use xlink:href="#TimesNewRomanPSMT-72" transform="translate(491.699219 0)"/>
    <use xlink:href="#TimesNewRomanPSMT-65" transform="translate(525 0)"/>
    <use xlink:href="#TimesNewRomanPSMT-66" transform="translate(569.384766 0)"/>
    <use xlink:href="#TimesNewRomanPSMT-65" transform="translate(602.685547 0)"/>
    <use xlink:href="#TimesNewRomanPSMT-72" transform="translate(647.070312 0)"/>
    <use xlink:href="#TimesNewRomanPSMT-65" transform="translate(680.371094 0)"/>
    <use xlink:href="#TimesNewRomanPSMT-6e" transform="translate(724.755859 0)"/>
    <use xlink:href="#TimesNewRomanPSMT-63" transform="translate(774.755859 0)"/>
    <use xlink:href="#TimesNewRomanPSMT-65" transform="translate(819.140625 0)"/>
    <use xlink:href="#TimesNewRomanPSMT-73" transform="translate(863.525391 0)"/>
    <use xlink:href="#TimesNewRomanPSMT-28" transform="translate(902.441406 0)"/>
    <use xlink:href="#TimesNewRomanPSMT-25" transform="translate(935.742188 0)"/>
    <use xlink:href="#TimesNewRomanPSMT-29" transform="translate(1019.042969 0)"/>
   </g>
  </g>
 </g>
 <defs>
  <clipPath id="p6712eb93fd">
   <rect x="174.293048" y="21.12" width="556.8445" height="74.66"/>
  </clipPath>
  <clipPath id="pa2902d382f">
   <rect x="174.293048" y="58.45" width="556.8445" height="74.66"/>
  </clipPath>
  <clipPath id="pf937041d7b">
   <rect x="174.293048" y="95.78" width="556.8445" height="74.66"/>
  </clipPath>
 </defs>
</svg>
