<?xml version="1.0" encoding="utf-8" standalone="no"?>
<!DOCTYPE svg PUBLIC "-//W3C//DTD SVG 1.1//EN"
  "http://www.w3.org/Graphics/SVG/1.1/DTD/svg11.dtd">
<svg xmlns:xlink="http://www.w3.org/1999/xlink" width="746.972747pt" height="212.255313pt" viewBox="0 0 746.972747 212.255313" xmlns="http://www.w3.org/2000/svg" version="1.1">
 <metadata>
  <rdf:RDF xmlns:dc="http://purl.org/dc/elements/1.1/" xmlns:cc="http://creativecommons.org/ns#" xmlns:rdf="http://www.w3.org/1999/02/22-rdf-syntax-ns#">
   <cc:Work>
    <dc:type rdf:resource="http://purl.org/dc/dcmitype/StillImage"/>
    <dc:date>2025-05-26T21:45:50.407739</dc:date>
    <dc:format>image/svg+xml</dc:format>
    <dc:creator>
     <cc:Agent>
      <dc:title>Matplotlib v3.10.1, https://matplotlib.org/</dc:title>
     </cc:Agent>
    </dc:creator>
   </cc:Work>
  </rdf:RDF>
 </metadata>
 <defs>
  <style type="text/css">*{stroke-linejoin: round; stroke-linecap: butt}</style>
 </defs>
 <g id="figure_1">
  <g id="patch_1">
   <path d="M 0 212.255313 
L 746.972747 212.255313 
L 746.972747 0 
L 0 0 
z
" style="fill: #ffffff"/>
  </g>
  <g id="axes_1">
   <g id="patch_2">
    <path d="M 177.438247 95.78 
L 730.772748 95.78 
L 730.772748 21.12 
L 177.438247 21.12 
L 177.438247 95.78 
z
" style="fill: none; opacity: 0"/>
   </g>
   <g id="FillBetweenPolyCollection_1">
    <defs>
     <path id="m89d0091199" d="M 177.438247 -119.960904 
L 177.438247 -116.475313 
L 180.218823 -116.475313 
L 182.999398 -116.475313 
L 185.779974 -116.475313 
L 188.560549 -116.475313 
L 191.341124 -116.475313 
L 194.1217 -116.475313 
L 196.902275 -116.475313 
L 199.682851 -116.475313 
L 202.463426 -116.475313 
L 205.244001 -116.475313 
L 208.024577 -116.475313 
L 210.805152 -116.475313 
L 213.585727 -116.475313 
L 216.366303 -116.475313 
L 219.146878 -116.475313 
L 221.927454 -116.475313 
L 224.708029 -116.475313 
L 227.488604 -116.475313 
L 230.26918 -116.475313 
L 233.049755 -116.475313 
L 235.83033 -116.475313 
L 238.610906 -116.475313 
L 241.391481 -116.475313 
L 244.172057 -116.475313 
L 246.952632 -116.475313 
L 249.733207 -116.475313 
L 252.513783 -116.475313 
L 255.294358 -116.475313 
L 258.074933 -116.475313 
L 260.855509 -116.475313 
L 263.636084 -116.475313 
L 266.41666 -116.475313 
L 269.197235 -116.475313 
L 271.97781 -116.475313 
L 274.758386 -116.475313 
L 277.538961 -116.475313 
L 280.319536 -116.475313 
L 283.100112 -116.475313 
L 285.880687 -116.475313 
L 288.661263 -116.475313 
L 291.441838 -116.475313 
L 294.222413 -116.475313 
L 297.002989 -116.475313 
L 299.783564 -116.475313 
L 302.564139 -116.475313 
L 305.344715 -116.475313 
L 308.12529 -116.475313 
L 310.905866 -116.475313 
L 313.686441 -116.475313 
L 316.467016 -116.475313 
L 319.247592 -116.475313 
L 322.028167 -116.475313 
L 324.808742 -116.475313 
L 327.589318 -116.475313 
L 330.369893 -116.475313 
L 333.150469 -116.475313 
L 335.931044 -116.475313 
L 338.711619 -116.475313 
L 341.492195 -116.475313 
L 344.27277 -116.475313 
L 347.053345 -116.475313 
L 349.833921 -116.475313 
L 352.614496 -116.475313 
L 355.395072 -116.475313 
L 358.175647 -116.475313 
L 360.956222 -116.475313 
L 363.736798 -116.475313 
L 366.517373 -116.475313 
L 369.297949 -116.475313 
L 372.078524 -116.475313 
L 374.859099 -116.475313 
L 377.639675 -116.475313 
L 380.42025 -116.475313 
L 383.200825 -116.475313 
L 385.981401 -116.475313 
L 388.761976 -116.475313 
L 391.542552 -116.475313 
L 394.323127 -116.475313 
L 397.103702 -116.475313 
L 399.884278 -116.475313 
L 402.664853 -116.475313 
L 405.445428 -116.475313 
L 408.226004 -116.475313 
L 411.006579 -116.475313 
L 413.787155 -116.475313 
L 416.56773 -116.475313 
L 419.348305 -116.475313 
L 422.128881 -116.475313 
L 424.909456 -116.475313 
L 427.690031 -116.475313 
L 430.470607 -116.475313 
L 433.251182 -116.475313 
L 436.031758 -116.475313 
L 438.812333 -116.475313 
L 441.592908 -116.475313 
L 444.373484 -116.475313 
L 447.154059 -116.475313 
L 449.934634 -116.475313 
L 452.71521 -116.475313 
L 455.495785 -116.475313 
L 458.276361 -116.475313 
L 461.056936 -116.475313 
L 463.837511 -116.475313 
L 466.618087 -116.475313 
L 469.398662 -116.475313 
L 472.179237 -116.475313 
L 474.959813 -116.475313 
L 477.740388 -116.475313 
L 480.520964 -116.475313 
L 483.301539 -116.475313 
L 486.082114 -116.475313 
L 488.86269 -116.475313 
L 491.643265 -116.475313 
L 494.42384 -116.475313 
L 497.204416 -116.475313 
L 499.984991 -116.475313 
L 502.765567 -116.475313 
L 505.546142 -116.475313 
L 508.326717 -116.475313 
L 511.107293 -116.475313 
L 513.887868 -116.475313 
L 516.668443 -116.475313 
L 519.449019 -116.475313 
L 522.229594 -116.475313 
L 525.01017 -116.475313 
L 527.790745 -116.475313 
L 530.57132 -116.475313 
L 533.351896 -116.475313 
L 536.132471 -116.475313 
L 538.913046 -116.475313 
L 541.693622 -116.475313 
L 544.474197 -116.475313 
L 547.254773 -116.475313 
L 550.035348 -116.475313 
L 552.815923 -116.475313 
L 555.596499 -116.475313 
L 558.377074 -116.475313 
L 561.15765 -116.475313 
L 563.938225 -116.475313 
L 566.7188 -116.475313 
L 569.499376 -116.475313 
L 572.279951 -116.475313 
L 575.060526 -116.475313 
L 577.841102 -116.475313 
L 580.621677 -116.475313 
L 583.402253 -116.475313 
L 586.182828 -116.475313 
L 588.963403 -116.475313 
L 591.743979 -116.475313 
L 594.524554 -116.475313 
L 597.305129 -116.475313 
L 600.085705 -116.475313 
L 602.86628 -116.475313 
L 605.646856 -116.475313 
L 608.427431 -116.475313 
L 611.208006 -116.475313 
L 613.988582 -116.475313 
L 616.769157 -116.475313 
L 619.549732 -116.475313 
L 622.330308 -116.475313 
L 625.110883 -116.475313 
L 627.891459 -116.475313 
L 630.672034 -116.475313 
L 633.452609 -116.475313 
L 636.233185 -116.475313 
L 639.01376 -116.475313 
L 641.794335 -116.475313 
L 644.574911 -116.475313 
L 647.355486 -116.475313 
L 650.136062 -116.475313 
L 652.916637 -116.475313 
L 655.697212 -116.475313 
L 658.477788 -116.475313 
L 661.258363 -116.475313 
L 664.038938 -116.475313 
L 666.819514 -116.475313 
L 669.600089 -116.475313 
L 672.380665 -116.475313 
L 675.16124 -116.475313 
L 677.941815 -116.475313 
L 680.722391 -116.475313 
L 683.502966 -116.475313 
L 686.283541 -116.475313 
L 689.064117 -116.475313 
L 691.844692 -116.475313 
L 694.625268 -116.475313 
L 697.405843 -116.475313 
L 700.186418 -116.475313 
L 702.966994 -116.475313 
L 705.747569 -116.475313 
L 708.528144 -116.475313 
L 711.30872 -116.475313 
L 714.089295 -116.475313 
L 716.869871 -116.475313 
L 719.650446 -116.475313 
L 722.431021 -116.475313 
L 725.211597 -116.475313 
L 727.992172 -116.475313 
L 730.772748 -116.475313 
L 730.772748 -126.504027 
L 730.772748 -126.504027 
L 727.992172 -126.759872 
L 725.211597 -127.003652 
L 722.431021 -127.23603 
L 719.650446 -127.457883 
L 716.869871 -127.67027 
L 714.089295 -127.874395 
L 711.30872 -128.071569 
L 708.528144 -128.263171 
L 705.747569 -128.450604 
L 702.966994 -128.635259 
L 700.186418 -128.818471 
L 697.405843 -129.001493 
L 694.625268 -129.185458 
L 691.844692 -129.371363 
L 689.064117 -129.560045 
L 686.283541 -129.752177 
L 683.502966 -129.948259 
L 680.722391 -130.148628 
L 677.941815 -130.353463 
L 675.16124 -130.562805 
L 672.380665 -130.776577 
L 669.600089 -130.994611 
L 666.819514 -131.216674 
L 664.038938 -131.442501 
L 661.258363 -131.671823 
L 658.477788 -131.904397 
L 655.697212 -132.140034 
L 652.916637 -132.378618 
L 650.136062 -132.620129 
L 647.355486 -132.864654 
L 644.574911 -133.112396 
L 641.794335 -133.363674 
L 639.01376 -133.618918 
L 636.233185 -133.878662 
L 633.452609 -134.14352 
L 630.672034 -134.414174 
L 627.891459 -134.69134 
L 625.110883 -134.975748 
L 622.330308 -135.268104 
L 619.549732 -135.569063 
L 616.769157 -135.879199 
L 613.988582 -136.198974 
L 611.208006 -136.528713 
L 608.427431 -136.868583 
L 605.646856 -137.218573 
L 602.86628 -137.578486 
L 600.085705 -137.947932 
L 597.305129 -138.326328 
L 594.524554 -138.712907 
L 591.743979 -139.106733 
L 588.963403 -139.506723 
L 586.182828 -139.911666 
L 583.402253 -140.320264 
L 580.621677 -140.731158 
L 577.841102 -141.142969 
L 575.060526 -141.554337 
L 572.279951 -141.963958 
L 569.499376 -142.370621 
L 566.7188 -142.773241 
L 563.938225 -143.170892 
L 561.15765 -143.56283 
L 558.377074 -143.948511 
L 555.596499 -144.327601 
L 552.815923 -144.699983 
L 550.035348 -145.065745 
L 547.254773 -145.425176 
L 544.474197 -145.778736 
L 541.693622 -146.127033 
L 538.913046 -146.470784 
L 536.132471 -146.810776 
L 533.351896 -147.147822 
L 530.57132 -147.482711 
L 527.790745 -147.816162 
L 525.01017 -148.148775 
L 522.229594 -148.480985 
L 519.449019 -148.813025 
L 516.668443 -149.144889 
L 513.887868 -149.476308 
L 511.107293 -149.806726 
L 508.326717 -150.135303 
L 505.546142 -150.460904 
L 502.765567 -150.782124 
L 499.984991 -151.097303 
L 497.204416 -151.404564 
L 494.42384 -151.701853 
L 491.643265 -151.986992 
L 488.86269 -152.257734 
L 486.082114 -152.511824 
L 483.301539 -152.747065 
L 480.520964 -152.961382 
L 477.740388 -153.152882 
L 474.959813 -153.319918 
L 472.179237 -153.461138 
L 469.398662 -153.575532 
L 466.618087 -153.662469 
L 463.837511 -153.721722 
L 461.056936 -153.753484 
L 458.276361 -153.758369 
L 455.495785 -153.737404 
L 452.71521 -153.692005 
L 449.934634 -153.62395 
L 447.154059 -153.535333 
L 444.373484 -153.428514 
L 441.592908 -153.306063 
L 438.812333 -153.170697 
L 436.031758 -153.025215 
L 433.251182 -152.872431 
L 430.470607 -152.715112 
L 427.690031 -152.555913 
L 424.909456 -152.397325 
L 422.128881 -152.241623 
L 419.348305 -152.090824 
L 416.56773 -151.946658 
L 413.787155 -151.810544 
L 411.006579 -151.683576 
L 408.226004 -151.566523 
L 405.445428 -151.45983 
L 402.664853 -151.363642 
L 399.884278 -151.277816 
L 397.103702 -151.201957 
L 394.323127 -151.135445 
L 391.542552 -151.077474 
L 388.761976 -151.027086 
L 385.981401 -150.983208 
L 383.200825 -150.944684 
L 380.42025 -150.910309 
L 377.639675 -150.87885 
L 374.859099 -150.849069 
L 372.078524 -150.819739 
L 369.297949 -150.789651 
L 366.517373 -150.757613 
L 363.736798 -150.722453 
L 360.956222 -150.683006 
L 358.175647 -150.638104 
L 355.395072 -150.586557 
L 352.614496 -150.527139 
L 349.833921 -150.458571 
L 347.053345 -150.379501 
L 344.27277 -150.28849 
L 341.492195 -150.184002 
L 338.711619 -150.064399 
L 335.931044 -149.927936 
L 333.150469 -149.77277 
L 330.369893 -149.596969 
L 327.589318 -149.398533 
L 324.808742 -149.175418 
L 322.028167 -148.925568 
L 319.247592 -148.646952 
L 316.467016 -148.337605 
L 313.686441 -147.995676 
L 310.905866 -147.619473 
L 308.12529 -147.207515 
L 305.344715 -146.758578 
L 302.564139 -146.271741 
L 299.783564 -145.746431 
L 297.002989 -145.182459 
L 294.222413 -144.580054 
L 291.441838 -143.939884 
L 288.661263 -143.263074 
L 285.880687 -142.551213 
L 283.100112 -141.80635 
L 280.319536 -141.030983 
L 277.538961 -140.228035 
L 274.758386 -139.400826 
L 271.97781 -138.553026 
L 269.197235 -137.688614 
L 266.41666 -136.811817 
L 263.636084 -135.92705 
L 260.855509 -135.038853 
L 258.074933 -134.151817 
L 255.294358 -133.27052 
L 252.513783 -132.399451 
L 249.733207 -131.542947 
L 246.952632 -130.705126 
L 244.172057 -129.889829 
L 241.391481 -129.100562 
L 238.610906 -128.340453 
L 235.83033 -127.612212 
L 233.049755 -126.918101 
L 230.26918 -126.259912 
L 227.488604 -125.638958 
L 224.708029 -125.056069 
L 221.927454 -124.511601 
L 219.146878 -124.00545 
L 216.366303 -123.537078 
L 213.585727 -123.105543 
L 210.805152 -122.709538 
L 208.024577 -122.347434 
L 205.244001 -122.017325 
L 202.463426 -121.717081 
L 199.682851 -121.444397 
L 196.902275 -121.196848 
L 194.1217 -120.971937 
L 191.341124 -120.767146 
L 188.560549 -120.579982 
L 185.779974 -120.408022 
L 182.999398 -120.248946 
L 180.218823 -120.100577 
L 177.438247 -119.960904 
z
" style="stroke: #a6cee3"/>
    </defs>
    <g clip-path="url(#p721ad6c686)">
     <use xlink:href="#m89d0091199" x="0" y="212.255313" style="fill: #a6cee3; fill-opacity: 0.5; stroke: #a6cee3"/>
    </g>
   </g>
   <g id="matplotlib.axis_1">
    <g id="xtick_1">
     <g id="line2d_1">
      <defs>
       <path id="mc5cf76986b" d="M 0 0 
L 0 3.5 
" style="stroke: #000000; stroke-width: 0.8"/>
      </defs>
      <g>
       <use xlink:href="#mc5cf76986b" x="177.438247" y="95.78" style="stroke: #000000; stroke-width: 0.8"/>
      </g>
     </g>
    </g>
    <g id="xtick_2">
     <g id="line2d_2">
      <g>
       <use xlink:href="#mc5cf76986b" x="288.105147" y="95.78" style="stroke: #000000; stroke-width: 0.8"/>
      </g>
     </g>
    </g>
    <g id="xtick_3">
     <g id="line2d_3">
      <g>
       <use xlink:href="#mc5cf76986b" x="398.772047" y="95.78" style="stroke: #000000; stroke-width: 0.8"/>
      </g>
     </g>
    </g>
    <g id="xtick_4">
     <g id="line2d_4">
      <g>
       <use xlink:href="#mc5cf76986b" x="509.438948" y="95.78" style="stroke: #000000; stroke-width: 0.8"/>
      </g>
     </g>
    </g>
    <g id="xtick_5">
     <g id="line2d_5">
      <g>
       <use xlink:href="#mc5cf76986b" x="620.105847" y="95.78" style="stroke: #000000; stroke-width: 0.8"/>
      </g>
     </g>
    </g>
    <g id="xtick_6">
     <g id="line2d_6">
      <g>
       <use xlink:href="#mc5cf76986b" x="730.772748" y="95.78" style="stroke: #000000; stroke-width: 0.8"/>
      </g>
     </g>
    </g>
   </g>
   <g id="matplotlib.axis_2"/>
   <g id="line2d_7">
    <path d="M 177.438247 92.294409 
L 191.341124 91.488166 
L 199.682851 90.810915 
L 208.024577 89.907878 
L 216.366303 88.718234 
L 221.927454 87.743712 
L 227.488604 86.616355 
L 235.83033 84.6431 
L 244.172057 82.365483 
L 252.513783 79.855862 
L 280.319536 71.22433 
L 288.661263 68.992238 
L 297.002989 67.072853 
L 302.564139 65.983572 
L 310.905866 64.635839 
L 319.247592 63.608361 
L 327.589318 62.85678 
L 335.931044 62.327377 
L 347.053345 61.875812 
L 360.956222 61.572306 
L 402.664853 60.891671 
L 416.56773 60.308654 
L 449.934634 58.631363 
L 458.276361 58.496943 
L 466.618087 58.592843 
L 474.959813 58.935394 
L 483.301539 59.508247 
L 494.42384 60.553459 
L 511.107293 62.448586 
L 547.254773 66.830136 
L 563.938225 69.08442 
L 608.427431 75.38673 
L 622.330308 76.987209 
L 639.01376 78.636394 
L 661.258363 80.583489 
L 683.502966 82.307053 
L 730.772748 85.751286 
L 730.772748 85.751286 
" clip-path="url(#p721ad6c686)" style="fill: none; stroke: #ffffff; stroke-width: 2; stroke-linecap: square"/>
   </g>
   <g id="line2d_8">
    <path d="M 177.438247 95.78 
L 730.772748 95.78 
" style="fill: none; stroke: #000000; stroke-linecap: square"/>
   </g>
   <g id="text_1">
    <g id="patch_3">
     <path d="M 3.24 105.200937 
L 123.298125 105.200937 
L 123.298125 86.359062 
L 3.24 86.359062 
z
" style="fill: #ffffff; opacity: 0.5"/>
    </g>
    <!-- Tech-savvy Consumers -->
    <g transform="translate(7.2 98.651562) scale(0.12 -0.12)">
     <defs>
      <path id="TimesNewRomanPSMT-54" d="M 3703 4238 
L 3750 3244 
L 3631 3244 
Q 3597 3506 3538 3619 
Q 3441 3800 3280 3886 
Q 3119 3972 2856 3972 
L 2259 3972 
L 2259 734 
Q 2259 344 2344 247 
Q 2463 116 2709 116 
L 2856 116 
L 2856 0 
L 1059 0 
L 1059 116 
L 1209 116 
Q 1478 116 1591 278 
Q 1659 378 1659 734 
L 1659 3972 
L 1150 3972 
Q 853 3972 728 3928 
Q 566 3869 450 3700 
Q 334 3531 313 3244 
L 194 3244 
L 244 4238 
L 3703 4238 
z
" transform="scale(0.015625)"/>
      <path id="TimesNewRomanPSMT-65" d="M 681 1784 
Q 678 1147 991 784 
Q 1303 422 1725 422 
Q 2006 422 2214 576 
Q 2422 731 2563 1106 
L 2659 1044 
Q 2594 616 2278 264 
Q 1963 -88 1488 -88 
Q 972 -88 605 314 
Q 238 716 238 1394 
Q 238 2128 614 2539 
Q 991 2950 1559 2950 
Q 2041 2950 2350 2633 
Q 2659 2316 2659 1784 
L 681 1784 
z
M 681 1966 
L 2006 1966 
Q 1991 2241 1941 2353 
Q 1863 2528 1708 2628 
Q 1553 2728 1384 2728 
Q 1125 2728 920 2526 
Q 716 2325 681 1966 
z
" transform="scale(0.015625)"/>
      <path id="TimesNewRomanPSMT-63" d="M 2631 1088 
Q 2516 522 2178 217 
Q 1841 -88 1431 -88 
Q 944 -88 581 321 
Q 219 731 219 1428 
Q 219 2103 620 2525 
Q 1022 2947 1584 2947 
Q 2006 2947 2278 2723 
Q 2550 2500 2550 2259 
Q 2550 2141 2473 2067 
Q 2397 1994 2259 1994 
Q 2075 1994 1981 2113 
Q 1928 2178 1911 2362 
Q 1894 2547 1784 2644 
Q 1675 2738 1481 2738 
Q 1169 2738 978 2506 
Q 725 2200 725 1697 
Q 725 1184 976 792 
Q 1228 400 1656 400 
Q 1963 400 2206 609 
Q 2378 753 2541 1131 
L 2631 1088 
z
" transform="scale(0.015625)"/>
      <path id="TimesNewRomanPSMT-68" d="M 1041 4444 
L 1041 2350 
Q 1388 2731 1591 2839 
Q 1794 2947 1997 2947 
Q 2241 2947 2416 2812 
Q 2591 2678 2675 2391 
Q 2734 2191 2734 1659 
L 2734 647 
Q 2734 375 2778 275 
Q 2809 200 2884 156 
Q 2959 113 3159 113 
L 3159 0 
L 1753 0 
L 1753 113 
L 1819 113 
Q 2019 113 2097 173 
Q 2175 234 2206 353 
Q 2216 403 2216 647 
L 2216 1659 
Q 2216 2128 2167 2275 
Q 2119 2422 2012 2495 
Q 1906 2569 1756 2569 
Q 1603 2569 1437 2487 
Q 1272 2406 1041 2159 
L 1041 647 
Q 1041 353 1073 281 
Q 1106 209 1195 161 
Q 1284 113 1503 113 
L 1503 0 
L 84 0 
L 84 113 
Q 275 113 384 172 
Q 447 203 484 290 
Q 522 378 522 647 
L 522 3238 
Q 522 3728 498 3840 
Q 475 3953 426 3993 
Q 378 4034 297 4034 
Q 231 4034 84 3984 
L 41 4094 
L 897 4444 
L 1041 4444 
z
" transform="scale(0.015625)"/>
      <path id="TimesNewRomanPSMT-2d" d="M 259 1672 
L 1875 1672 
L 1875 1200 
L 259 1200 
L 259 1672 
z
" transform="scale(0.015625)"/>
      <path id="TimesNewRomanPSMT-73" d="M 2050 2947 
L 2050 1972 
L 1947 1972 
Q 1828 2431 1642 2597 
Q 1456 2763 1169 2763 
Q 950 2763 815 2647 
Q 681 2531 681 2391 
Q 681 2216 781 2091 
Q 878 1963 1175 1819 
L 1631 1597 
Q 2266 1288 2266 781 
Q 2266 391 1970 151 
Q 1675 -88 1309 -88 
Q 1047 -88 709 6 
Q 606 38 541 38 
Q 469 38 428 -44 
L 325 -44 
L 325 978 
L 428 978 
Q 516 541 762 319 
Q 1009 97 1316 97 
Q 1531 97 1667 223 
Q 1803 350 1803 528 
Q 1803 744 1651 891 
Q 1500 1038 1047 1263 
Q 594 1488 453 1669 
Q 313 1847 313 2119 
Q 313 2472 555 2709 
Q 797 2947 1181 2947 
Q 1350 2947 1591 2875 
Q 1750 2828 1803 2828 
Q 1853 2828 1881 2850 
Q 1909 2872 1947 2947 
L 2050 2947 
z
" transform="scale(0.015625)"/>
      <path id="TimesNewRomanPSMT-61" d="M 1822 413 
Q 1381 72 1269 19 
Q 1100 -59 909 -59 
Q 613 -59 420 144 
Q 228 347 228 678 
Q 228 888 322 1041 
Q 450 1253 767 1440 
Q 1084 1628 1822 1897 
L 1822 2009 
Q 1822 2438 1686 2597 
Q 1550 2756 1291 2756 
Q 1094 2756 978 2650 
Q 859 2544 859 2406 
L 866 2225 
Q 866 2081 792 2003 
Q 719 1925 600 1925 
Q 484 1925 411 2006 
Q 338 2088 338 2228 
Q 338 2497 613 2722 
Q 888 2947 1384 2947 
Q 1766 2947 2009 2819 
Q 2194 2722 2281 2516 
Q 2338 2381 2338 1966 
L 2338 994 
Q 2338 584 2353 492 
Q 2369 400 2405 369 
Q 2441 338 2488 338 
Q 2538 338 2575 359 
Q 2641 400 2828 588 
L 2828 413 
Q 2478 -56 2159 -56 
Q 2006 -56 1915 50 
Q 1825 156 1822 413 
z
M 1822 616 
L 1822 1706 
Q 1350 1519 1213 1441 
Q 966 1303 859 1153 
Q 753 1003 753 825 
Q 753 600 887 451 
Q 1022 303 1197 303 
Q 1434 303 1822 616 
z
" transform="scale(0.015625)"/>
      <path id="TimesNewRomanPSMT-76" d="M 53 2863 
L 1400 2863 
L 1400 2747 
L 1313 2747 
Q 1191 2747 1127 2687 
Q 1063 2628 1063 2528 
Q 1063 2419 1128 2269 
L 1794 688 
L 2463 2328 
Q 2534 2503 2534 2594 
Q 2534 2638 2509 2666 
Q 2475 2713 2422 2730 
Q 2369 2747 2206 2747 
L 2206 2863 
L 3141 2863 
L 3141 2747 
Q 2978 2734 2916 2681 
Q 2806 2588 2719 2369 
L 1703 -88 
L 1575 -88 
L 553 2328 
Q 484 2497 421 2570 
Q 359 2644 263 2694 
Q 209 2722 53 2747 
L 53 2863 
z
" transform="scale(0.015625)"/>
      <path id="TimesNewRomanPSMT-79" d="M 38 2863 
L 1372 2863 
L 1372 2747 
L 1306 2747 
Q 1166 2747 1095 2686 
Q 1025 2625 1025 2534 
Q 1025 2413 1128 2197 
L 1825 753 
L 2466 2334 
Q 2519 2463 2519 2588 
Q 2519 2644 2497 2672 
Q 2472 2706 2419 2726 
Q 2366 2747 2231 2747 
L 2231 2863 
L 3163 2863 
L 3163 2747 
Q 3047 2734 2984 2696 
Q 2922 2659 2847 2556 
Q 2819 2513 2741 2316 
L 1575 -541 
Q 1406 -956 1132 -1168 
Q 859 -1381 606 -1381 
Q 422 -1381 303 -1275 
Q 184 -1169 184 -1031 
Q 184 -900 270 -820 
Q 356 -741 506 -741 
Q 609 -741 788 -809 
Q 913 -856 944 -856 
Q 1038 -856 1148 -759 
Q 1259 -663 1372 -384 
L 1575 113 
L 547 2272 
Q 500 2369 397 2513 
Q 319 2622 269 2659 
Q 197 2709 38 2747 
L 38 2863 
z
" transform="scale(0.015625)"/>
      <path id="TimesNewRomanPSMT-20" transform="scale(0.015625)"/>
      <path id="TimesNewRomanPSMT-43" d="M 3853 4334 
L 3950 2894 
L 3853 2894 
Q 3659 3541 3300 3825 
Q 2941 4109 2438 4109 
Q 2016 4109 1675 3895 
Q 1334 3681 1139 3212 
Q 944 2744 944 2047 
Q 944 1472 1128 1050 
Q 1313 628 1683 403 
Q 2053 178 2528 178 
Q 2941 178 3256 354 
Q 3572 531 3950 1056 
L 4047 994 
Q 3728 428 3303 165 
Q 2878 -97 2294 -97 
Q 1241 -97 663 684 
Q 231 1266 231 2053 
Q 231 2688 515 3219 
Q 800 3750 1298 4042 
Q 1797 4334 2388 4334 
Q 2847 4334 3294 4109 
Q 3425 4041 3481 4041 
Q 3566 4041 3628 4100 
Q 3709 4184 3744 4334 
L 3853 4334 
z
" transform="scale(0.015625)"/>
      <path id="TimesNewRomanPSMT-6f" d="M 1600 2947 
Q 2250 2947 2644 2453 
Q 2978 2031 2978 1484 
Q 2978 1100 2793 706 
Q 2609 313 2286 112 
Q 1963 -88 1566 -88 
Q 919 -88 538 428 
Q 216 863 216 1403 
Q 216 1797 411 2186 
Q 606 2575 925 2761 
Q 1244 2947 1600 2947 
z
M 1503 2744 
Q 1338 2744 1170 2645 
Q 1003 2547 900 2300 
Q 797 2053 797 1666 
Q 797 1041 1045 587 
Q 1294 134 1700 134 
Q 2003 134 2200 384 
Q 2397 634 2397 1244 
Q 2397 2006 2069 2444 
Q 1847 2744 1503 2744 
z
" transform="scale(0.015625)"/>
      <path id="TimesNewRomanPSMT-6e" d="M 1034 2341 
Q 1538 2947 1994 2947 
Q 2228 2947 2397 2830 
Q 2566 2713 2666 2444 
Q 2734 2256 2734 1869 
L 2734 647 
Q 2734 375 2778 278 
Q 2813 200 2889 156 
Q 2966 113 3172 113 
L 3172 0 
L 1756 0 
L 1756 113 
L 1816 113 
Q 2016 113 2095 173 
Q 2175 234 2206 353 
Q 2219 400 2219 647 
L 2219 1819 
Q 2219 2209 2117 2386 
Q 2016 2563 1775 2563 
Q 1403 2563 1034 2156 
L 1034 647 
Q 1034 356 1069 288 
Q 1113 197 1189 155 
Q 1266 113 1500 113 
L 1500 0 
L 84 0 
L 84 113 
L 147 113 
Q 366 113 442 223 
Q 519 334 519 647 
L 519 1709 
Q 519 2225 495 2337 
Q 472 2450 423 2490 
Q 375 2531 294 2531 
Q 206 2531 84 2484 
L 38 2597 
L 900 2947 
L 1034 2947 
L 1034 2341 
z
" transform="scale(0.015625)"/>
      <path id="TimesNewRomanPSMT-75" d="M 2709 2863 
L 2709 1128 
Q 2709 631 2732 520 
Q 2756 409 2807 365 
Q 2859 322 2928 322 
Q 3025 322 3147 375 
L 3191 266 
L 2334 -88 
L 2194 -88 
L 2194 519 
Q 1825 119 1631 15 
Q 1438 -88 1222 -88 
Q 981 -88 804 51 
Q 628 191 559 409 
Q 491 628 491 1028 
L 491 2306 
Q 491 2509 447 2587 
Q 403 2666 317 2708 
Q 231 2750 6 2747 
L 6 2863 
L 1009 2863 
L 1009 947 
Q 1009 547 1148 422 
Q 1288 297 1484 297 
Q 1619 297 1789 381 
Q 1959 466 2194 703 
L 2194 2325 
Q 2194 2569 2105 2655 
Q 2016 2741 1734 2747 
L 1734 2863 
L 2709 2863 
z
" transform="scale(0.015625)"/>
      <path id="TimesNewRomanPSMT-6d" d="M 1050 2338 
Q 1363 2650 1419 2697 
Q 1559 2816 1721 2881 
Q 1884 2947 2044 2947 
Q 2313 2947 2506 2790 
Q 2700 2634 2766 2338 
Q 3088 2713 3309 2830 
Q 3531 2947 3766 2947 
Q 3994 2947 4170 2830 
Q 4347 2713 4450 2447 
Q 4519 2266 4519 1878 
L 4519 647 
Q 4519 378 4559 278 
Q 4591 209 4675 161 
Q 4759 113 4950 113 
L 4950 0 
L 3538 0 
L 3538 113 
L 3597 113 
Q 3781 113 3884 184 
Q 3956 234 3988 344 
Q 4000 397 4000 647 
L 4000 1878 
Q 4000 2228 3916 2372 
Q 3794 2572 3525 2572 
Q 3359 2572 3192 2489 
Q 3025 2406 2788 2181 
L 2781 2147 
L 2788 2013 
L 2788 647 
Q 2788 353 2820 281 
Q 2853 209 2943 161 
Q 3034 113 3253 113 
L 3253 0 
L 1806 0 
L 1806 113 
Q 2044 113 2133 169 
Q 2222 225 2256 338 
Q 2272 391 2272 647 
L 2272 1878 
Q 2272 2228 2169 2381 
Q 2031 2581 1784 2581 
Q 1616 2581 1450 2491 
Q 1191 2353 1050 2181 
L 1050 647 
Q 1050 366 1089 281 
Q 1128 197 1204 155 
Q 1281 113 1516 113 
L 1516 0 
L 100 0 
L 100 113 
Q 297 113 375 155 
Q 453 197 493 289 
Q 534 381 534 647 
L 534 1741 
Q 534 2213 506 2350 
Q 484 2453 437 2492 
Q 391 2531 309 2531 
Q 222 2531 100 2484 
L 53 2597 
L 916 2947 
L 1050 2947 
L 1050 2338 
z
" transform="scale(0.015625)"/>
      <path id="TimesNewRomanPSMT-72" d="M 1038 2947 
L 1038 2303 
Q 1397 2947 1775 2947 
Q 1947 2947 2059 2842 
Q 2172 2738 2172 2600 
Q 2172 2478 2090 2393 
Q 2009 2309 1897 2309 
Q 1788 2309 1652 2417 
Q 1516 2525 1450 2525 
Q 1394 2525 1328 2463 
Q 1188 2334 1038 2041 
L 1038 669 
Q 1038 431 1097 309 
Q 1138 225 1241 169 
Q 1344 113 1538 113 
L 1538 0 
L 72 0 
L 72 113 
Q 291 113 397 181 
Q 475 231 506 341 
Q 522 394 522 644 
L 522 1753 
Q 522 2253 501 2348 
Q 481 2444 426 2487 
Q 372 2531 291 2531 
Q 194 2531 72 2484 
L 41 2597 
L 906 2947 
L 1038 2947 
z
" transform="scale(0.015625)"/>
     </defs>
     <use xlink:href="#TimesNewRomanPSMT-54"/>
     <use xlink:href="#TimesNewRomanPSMT-65" transform="translate(54.083984 0)"/>
     <use xlink:href="#TimesNewRomanPSMT-63" transform="translate(98.46875 0)"/>
     <use xlink:href="#TimesNewRomanPSMT-68" transform="translate(142.853516 0)"/>
     <use xlink:href="#TimesNewRomanPSMT-2d" transform="translate(192.853516 0)"/>
     <use xlink:href="#TimesNewRomanPSMT-73" transform="translate(226.154297 0)"/>
     <use xlink:href="#TimesNewRomanPSMT-61" transform="translate(265.070312 0)"/>
     <use xlink:href="#TimesNewRomanPSMT-76" transform="translate(309.455078 0)"/>
     <use xlink:href="#TimesNewRomanPSMT-76" transform="translate(359.455078 0)"/>
     <use xlink:href="#TimesNewRomanPSMT-79" transform="translate(409.455078 0)"/>
     <use xlink:href="#TimesNewRomanPSMT-20" transform="translate(459.455078 0)"/>
     <use xlink:href="#TimesNewRomanPSMT-43" transform="translate(484.455078 0)"/>
     <use xlink:href="#TimesNewRomanPSMT-6f" transform="translate(551.154297 0)"/>
     <use xlink:href="#TimesNewRomanPSMT-6e" transform="translate(601.154297 0)"/>
     <use xlink:href="#TimesNewRomanPSMT-73" transform="translate(651.154297 0)"/>
     <use xlink:href="#TimesNewRomanPSMT-75" transform="translate(690.070312 0)"/>
     <use xlink:href="#TimesNewRomanPSMT-6d" transform="translate(740.070312 0)"/>
     <use xlink:href="#TimesNewRomanPSMT-65" transform="translate(817.853516 0)"/>
     <use xlink:href="#TimesNewRomanPSMT-72" transform="translate(862.238281 0)"/>
     <use xlink:href="#TimesNewRomanPSMT-73" transform="translate(895.539062 0)"/>
    </g>
   </g>
  </g>
  <g id="axes_2">
   <g id="patch_4">
    <path d="M 177.438247 133.11 
L 730.772748 133.11 
L 730.772748 58.45 
L 177.438247 58.45 
L 177.438247 133.11 
z
" style="fill: none; opacity: 0"/>
   </g>
   <g id="FillBetweenPolyCollection_2">
    <defs>
     <path id="m42a51d1116" d="M 177.438247 -100.68883 
L 177.438247 -79.145313 
L 180.218823 -79.145313 
L 182.999398 -79.145313 
L 185.779974 -79.145313 
L 188.560549 -79.145313 
L 191.341124 -79.145313 
L 194.1217 -79.145313 
L 196.902275 -79.145313 
L 199.682851 -79.145313 
L 202.463426 -79.145313 
L 205.244001 -79.145313 
L 208.024577 -79.145313 
L 210.805152 -79.145313 
L 213.585727 -79.145313 
L 216.366303 -79.145313 
L 219.146878 -79.145313 
L 221.927454 -79.145313 
L 224.708029 -79.145313 
L 227.488604 -79.145313 
L 230.26918 -79.145313 
L 233.049755 -79.145313 
L 235.83033 -79.145313 
L 238.610906 -79.145313 
L 241.391481 -79.145313 
L 244.172057 -79.145313 
L 246.952632 -79.145313 
L 249.733207 -79.145313 
L 252.513783 -79.145313 
L 255.294358 -79.145313 
L 258.074933 -79.145313 
L 260.855509 -79.145313 
L 263.636084 -79.145313 
L 266.41666 -79.145313 
L 269.197235 -79.145313 
L 271.97781 -79.145313 
L 274.758386 -79.145313 
L 277.538961 -79.145313 
L 280.319536 -79.145313 
L 283.100112 -79.145313 
L 285.880687 -79.145313 
L 288.661263 -79.145313 
L 291.441838 -79.145313 
L 294.222413 -79.145313 
L 297.002989 -79.145313 
L 299.783564 -79.145313 
L 302.564139 -79.145313 
L 305.344715 -79.145313 
L 308.12529 -79.145313 
L 310.905866 -79.145313 
L 313.686441 -79.145313 
L 316.467016 -79.145313 
L 319.247592 -79.145313 
L 322.028167 -79.145313 
L 324.808742 -79.145313 
L 327.589318 -79.145313 
L 330.369893 -79.145313 
L 333.150469 -79.145313 
L 335.931044 -79.145313 
L 338.711619 -79.145313 
L 341.492195 -79.145313 
L 344.27277 -79.145313 
L 347.053345 -79.145313 
L 349.833921 -79.145313 
L 352.614496 -79.145313 
L 355.395072 -79.145313 
L 358.175647 -79.145313 
L 360.956222 -79.145313 
L 363.736798 -79.145313 
L 366.517373 -79.145313 
L 369.297949 -79.145313 
L 372.078524 -79.145313 
L 374.859099 -79.145313 
L 377.639675 -79.145313 
L 380.42025 -79.145313 
L 383.200825 -79.145313 
L 385.981401 -79.145313 
L 388.761976 -79.145313 
L 391.542552 -79.145313 
L 394.323127 -79.145313 
L 397.103702 -79.145313 
L 399.884278 -79.145313 
L 402.664853 -79.145313 
L 405.445428 -79.145313 
L 408.226004 -79.145313 
L 411.006579 -79.145313 
L 413.787155 -79.145313 
L 416.56773 -79.145313 
L 419.348305 -79.145313 
L 422.128881 -79.145313 
L 424.909456 -79.145313 
L 427.690031 -79.145313 
L 430.470607 -79.145313 
L 433.251182 -79.145313 
L 436.031758 -79.145313 
L 438.812333 -79.145313 
L 441.592908 -79.145313 
L 444.373484 -79.145313 
L 447.154059 -79.145313 
L 449.934634 -79.145313 
L 452.71521 -79.145313 
L 455.495785 -79.145313 
L 458.276361 -79.145313 
L 461.056936 -79.145313 
L 463.837511 -79.145313 
L 466.618087 -79.145313 
L 469.398662 -79.145313 
L 472.179237 -79.145313 
L 474.959813 -79.145313 
L 477.740388 -79.145313 
L 480.520964 -79.145313 
L 483.301539 -79.145313 
L 486.082114 -79.145313 
L 488.86269 -79.145313 
L 491.643265 -79.145313 
L 494.42384 -79.145313 
L 497.204416 -79.145313 
L 499.984991 -79.145313 
L 502.765567 -79.145313 
L 505.546142 -79.145313 
L 508.326717 -79.145313 
L 511.107293 -79.145313 
L 513.887868 -79.145313 
L 516.668443 -79.145313 
L 519.449019 -79.145313 
L 522.229594 -79.145313 
L 525.01017 -79.145313 
L 527.790745 -79.145313 
L 530.57132 -79.145313 
L 533.351896 -79.145313 
L 536.132471 -79.145313 
L 538.913046 -79.145313 
L 541.693622 -79.145313 
L 544.474197 -79.145313 
L 547.254773 -79.145313 
L 550.035348 -79.145313 
L 552.815923 -79.145313 
L 555.596499 -79.145313 
L 558.377074 -79.145313 
L 561.15765 -79.145313 
L 563.938225 -79.145313 
L 566.7188 -79.145313 
L 569.499376 -79.145313 
L 572.279951 -79.145313 
L 575.060526 -79.145313 
L 577.841102 -79.145313 
L 580.621677 -79.145313 
L 583.402253 -79.145313 
L 586.182828 -79.145313 
L 588.963403 -79.145313 
L 591.743979 -79.145313 
L 594.524554 -79.145313 
L 597.305129 -79.145313 
L 600.085705 -79.145313 
L 602.86628 -79.145313 
L 605.646856 -79.145313 
L 608.427431 -79.145313 
L 611.208006 -79.145313 
L 613.988582 -79.145313 
L 616.769157 -79.145313 
L 619.549732 -79.145313 
L 622.330308 -79.145313 
L 625.110883 -79.145313 
L 627.891459 -79.145313 
L 630.672034 -79.145313 
L 633.452609 -79.145313 
L 636.233185 -79.145313 
L 639.01376 -79.145313 
L 641.794335 -79.145313 
L 644.574911 -79.145313 
L 647.355486 -79.145313 
L 650.136062 -79.145313 
L 652.916637 -79.145313 
L 655.697212 -79.145313 
L 658.477788 -79.145313 
L 661.258363 -79.145313 
L 664.038938 -79.145313 
L 666.819514 -79.145313 
L 669.600089 -79.145313 
L 672.380665 -79.145313 
L 675.16124 -79.145313 
L 677.941815 -79.145313 
L 680.722391 -79.145313 
L 683.502966 -79.145313 
L 686.283541 -79.145313 
L 689.064117 -79.145313 
L 691.844692 -79.145313 
L 694.625268 -79.145313 
L 697.405843 -79.145313 
L 700.186418 -79.145313 
L 702.966994 -79.145313 
L 705.747569 -79.145313 
L 708.528144 -79.145313 
L 711.30872 -79.145313 
L 714.089295 -79.145313 
L 716.869871 -79.145313 
L 719.650446 -79.145313 
L 722.431021 -79.145313 
L 725.211597 -79.145313 
L 727.992172 -79.145313 
L 730.772748 -79.145313 
L 730.772748 -99.769958 
L 730.772748 -99.769958 
L 727.992172 -100.330847 
L 725.211597 -100.877387 
L 722.431021 -101.407993 
L 719.650446 -101.92113 
L 716.869871 -102.415325 
L 714.089295 -102.889171 
L 711.30872 -103.341338 
L 708.528144 -103.770578 
L 705.747569 -104.175732 
L 702.966994 -104.555733 
L 700.186418 -104.909614 
L 697.405843 -105.236509 
L 694.625268 -105.535658 
L 691.844692 -105.806407 
L 689.064117 -106.048212 
L 686.283541 -106.260635 
L 683.502966 -106.443351 
L 680.722391 -106.596138 
L 677.941815 -106.718884 
L 675.16124 -106.811578 
L 672.380665 -106.87431 
L 669.600089 -106.90727 
L 666.819514 -106.910737 
L 664.038938 -106.885083 
L 661.258363 -106.830762 
L 658.477788 -106.748308 
L 655.697212 -106.63833 
L 652.916637 -106.501505 
L 650.136062 -106.338574 
L 647.355486 -106.150339 
L 644.574911 -105.937651 
L 641.794335 -105.701413 
L 639.01376 -105.442569 
L 636.233185 -105.162103 
L 633.452609 -104.861032 
L 630.672034 -104.540401 
L 627.891459 -104.201283 
L 625.110883 -103.84477 
L 622.330308 -103.471975 
L 619.549732 -103.084022 
L 616.769157 -102.682049 
L 613.988582 -102.267202 
L 611.208006 -101.840633 
L 608.427431 -101.403497 
L 605.646856 -100.956953 
L 602.86628 -100.502158 
L 600.085705 -100.040266 
L 597.305129 -99.572428 
L 594.524554 -99.099791 
L 591.743979 -98.623492 
L 588.963403 -98.144661 
L 586.182828 -97.664419 
L 583.402253 -97.183873 
L 580.621677 -96.70412 
L 577.841102 -96.22624 
L 575.060526 -95.751301 
L 572.279951 -95.280349 
L 569.499376 -94.814415 
L 566.7188 -94.354509 
L 563.938225 -93.90162 
L 561.15765 -93.456712 
L 558.377074 -93.020725 
L 555.596499 -92.594576 
L 552.815923 -92.179148 
L 550.035348 -91.7753 
L 547.254773 -91.383858 
L 544.474197 -91.005615 
L 541.693622 -90.641331 
L 538.913046 -90.291729 
L 536.132471 -89.957498 
L 533.351896 -89.639286 
L 530.57132 -89.337703 
L 527.790745 -89.053318 
L 525.01017 -88.786658 
L 522.229594 -88.538207 
L 519.449019 -88.308406 
L 516.668443 -88.097649 
L 513.887868 -87.906288 
L 511.107293 -87.734625 
L 508.326717 -87.582917 
L 505.546142 -87.451375 
L 502.765567 -87.34016 
L 499.984991 -87.249385 
L 497.204416 -87.179119 
L 494.42384 -87.129378 
L 491.643265 -87.100134 
L 488.86269 -87.091311 
L 486.082114 -87.102786 
L 483.301539 -87.134389 
L 480.520964 -87.185908 
L 477.740388 -87.257084 
L 474.959813 -87.347617 
L 472.179237 -87.457166 
L 469.398662 -87.58535 
L 466.618087 -87.731751 
L 463.837511 -87.895916 
L 461.056936 -88.077357 
L 458.276361 -88.275558 
L 455.495785 -88.489974 
L 452.71521 -88.720035 
L 449.934634 -88.96515 
L 447.154059 -89.224708 
L 444.373484 -89.498084 
L 441.592908 -89.784638 
L 438.812333 -90.083726 
L 436.031758 -90.394696 
L 433.251182 -90.716894 
L 430.470607 -91.04967 
L 427.690031 -91.392377 
L 424.909456 -91.744378 
L 422.128881 -92.10505 
L 419.348305 -92.47378 
L 416.56773 -92.849976 
L 413.787155 -93.233066 
L 411.006579 -93.6225 
L 408.226004 -94.017752 
L 405.445428 -94.418324 
L 402.664853 -94.823743 
L 399.884278 -95.233565 
L 397.103702 -95.647377 
L 394.323127 -96.064792 
L 391.542552 -96.485453 
L 388.761976 -96.90903 
L 385.981401 -97.33522 
L 383.200825 -97.763744 
L 380.42025 -98.194347 
L 377.639675 -98.626791 
L 374.859099 -99.060859 
L 372.078524 -99.496347 
L 369.297949 -99.933058 
L 366.517373 -100.370807 
L 363.736798 -100.809405 
L 360.956222 -101.248667 
L 358.175647 -101.688396 
L 355.395072 -102.128387 
L 352.614496 -102.568417 
L 349.833921 -103.008244 
L 347.053345 -103.447597 
L 344.27277 -103.886178 
L 341.492195 -104.323652 
L 338.711619 -104.759646 
L 335.931044 -105.193743 
L 333.150469 -105.62548 
L 330.369893 -106.054344 
L 327.589318 -106.479768 
L 324.808742 -106.901132 
L 322.028167 -107.317756 
L 319.247592 -107.728905 
L 316.467016 -108.133784 
L 313.686441 -108.531539 
L 310.905866 -108.921261 
L 308.12529 -109.301982 
L 305.344715 -109.672682 
L 302.564139 -110.03229 
L 299.783564 -110.379688 
L 297.002989 -110.713718 
L 294.222413 -111.033183 
L 291.441838 -111.336855 
L 288.661263 -111.623483 
L 285.880687 -111.891799 
L 283.100112 -112.140526 
L 280.319536 -112.368386 
L 277.538961 -112.574111 
L 274.758386 -112.756447 
L 271.97781 -112.914172 
L 269.197235 -113.046097 
L 266.41666 -113.15108 
L 263.636084 -113.228037 
L 260.855509 -113.27595 
L 258.074933 -113.293877 
L 255.294358 -113.280958 
L 252.513783 -113.236431 
L 249.733207 -113.159636 
L 246.952632 -113.05002 
L 244.172057 -112.907152 
L 241.391481 -112.73072 
L 238.610906 -112.520545 
L 235.83033 -112.27658 
L 233.049755 -111.998917 
L 230.26918 -111.687786 
L 227.488604 -111.34356 
L 224.708029 -110.966753 
L 221.927454 -110.558021 
L 219.146878 -110.11816 
L 216.366303 -109.6481 
L 213.585727 -109.148905 
L 210.805152 -108.621766 
L 208.024577 -108.067993 
L 205.244001 -107.489012 
L 202.463426 -106.886351 
L 199.682851 -106.261639 
L 196.902275 -105.616587 
L 194.1217 -104.952985 
L 191.341124 -104.272688 
L 188.560549 -103.577606 
L 185.779974 -102.869689 
L 182.999398 -102.150919 
L 180.218823 -101.423298 
L 177.438247 -100.68883 
z
" style="stroke: #1f78b4"/>
    </defs>
    <g clip-path="url(#p526b727e4b)">
     <use xlink:href="#m42a51d1116" x="0" y="212.255313" style="fill: #1f78b4; fill-opacity: 0.5; stroke: #1f78b4"/>
    </g>
   </g>
   <g id="matplotlib.axis_3">
    <g id="xtick_7">
     <g id="line2d_9">
      <g>
       <use xlink:href="#mc5cf76986b" x="177.438247" y="133.11" style="stroke: #000000; stroke-width: 0.8"/>
      </g>
     </g>
    </g>
    <g id="xtick_8">
     <g id="line2d_10">
      <g>
       <use xlink:href="#mc5cf76986b" x="288.105147" y="133.11" style="stroke: #000000; stroke-width: 0.8"/>
      </g>
     </g>
    </g>
    <g id="xtick_9">
     <g id="line2d_11">
      <g>
       <use xlink:href="#mc5cf76986b" x="398.772047" y="133.11" style="stroke: #000000; stroke-width: 0.8"/>
      </g>
     </g>
    </g>
    <g id="xtick_10">
     <g id="line2d_12">
      <g>
       <use xlink:href="#mc5cf76986b" x="509.438948" y="133.11" style="stroke: #000000; stroke-width: 0.8"/>
      </g>
     </g>
    </g>
    <g id="xtick_11">
     <g id="line2d_13">
      <g>
       <use xlink:href="#mc5cf76986b" x="620.105847" y="133.11" style="stroke: #000000; stroke-width: 0.8"/>
      </g>
     </g>
    </g>
    <g id="xtick_12">
     <g id="line2d_14">
      <g>
       <use xlink:href="#mc5cf76986b" x="730.772748" y="133.11" style="stroke: #000000; stroke-width: 0.8"/>
      </g>
     </g>
    </g>
   </g>
   <g id="matplotlib.axis_4"/>
   <g id="line2d_15">
    <path d="M 177.438247 111.566482 
L 191.341124 107.982624 
L 202.463426 105.368961 
L 210.805152 103.633546 
L 219.146878 102.137153 
L 227.488604 100.911753 
L 235.83033 99.978732 
L 244.172057 99.348161 
L 252.513783 99.018881 
L 260.855509 98.979362 
L 269.197235 99.209216 
L 277.538961 99.681202 
L 285.880687 100.363514 
L 297.002989 101.541594 
L 308.12529 102.953331 
L 322.028167 104.937557 
L 344.27277 108.369134 
L 397.103702 116.607935 
L 416.56773 119.405337 
L 430.470607 121.205643 
L 441.592908 122.470674 
L 452.71521 123.535277 
L 463.837511 124.359397 
L 474.959813 124.907695 
L 483.301539 125.120923 
L 491.643265 125.155178 
L 499.984991 125.005927 
L 508.326717 124.672395 
L 516.668443 124.157663 
L 525.01017 123.468655 
L 536.132471 122.297815 
L 547.254773 120.871454 
L 558.377074 119.234587 
L 572.279951 116.974964 
L 613.988582 109.98811 
L 625.110883 108.410542 
L 636.233185 107.093209 
L 644.574911 106.317662 
L 652.916637 105.753808 
L 661.258363 105.42455 
L 669.600089 105.348043 
L 677.941815 105.536429 
L 686.283541 105.994677 
L 694.625268 106.719655 
L 702.966994 107.69958 
L 711.30872 108.913975 
L 719.650446 110.334182 
L 730.772748 112.485354 
L 730.772748 112.485354 
" clip-path="url(#p526b727e4b)" style="fill: none; stroke: #ffffff; stroke-width: 2; stroke-linecap: square"/>
   </g>
   <g id="line2d_16">
    <path d="M 177.438247 133.11 
L 730.772748 133.11 
" style="fill: none; stroke: #000000; stroke-linecap: square"/>
   </g>
   <g id="text_2">
    <g id="patch_5">
     <path d="M 29.2725 142.530938 
L 123.298125 142.530938 
L 123.298125 123.689063 
L 29.2725 123.689063 
z
" style="fill: #ffffff; opacity: 0.5"/>
    </g>
    <!-- Organic Shoppers -->
    <g transform="translate(33.2325 135.981562) scale(0.12 -0.12)">
     <defs>
      <path id="TimesNewRomanPSMT-4f" d="M 2341 4334 
Q 3166 4334 3770 3707 
Q 4375 3081 4375 2144 
Q 4375 1178 3765 540 
Q 3156 -97 2291 -97 
Q 1416 -97 820 525 
Q 225 1147 225 2134 
Q 225 3144 913 3781 
Q 1509 4334 2341 4334 
z
M 2281 4106 
Q 1713 4106 1369 3684 
Q 941 3159 941 2147 
Q 941 1109 1384 550 
Q 1725 125 2284 125 
Q 2881 125 3270 590 
Q 3659 1056 3659 2059 
Q 3659 3147 3231 3681 
Q 2888 4106 2281 4106 
z
" transform="scale(0.015625)"/>
      <path id="TimesNewRomanPSMT-67" d="M 966 1044 
Q 703 1172 562 1401 
Q 422 1631 422 1909 
Q 422 2334 742 2640 
Q 1063 2947 1563 2947 
Q 1972 2947 2272 2747 
L 2878 2747 
Q 3013 2747 3034 2739 
Q 3056 2731 3066 2713 
Q 3084 2684 3084 2613 
Q 3084 2531 3069 2500 
Q 3059 2484 3036 2475 
Q 3013 2466 2878 2466 
L 2506 2466 
Q 2681 2241 2681 1891 
Q 2681 1491 2375 1206 
Q 2069 922 1553 922 
Q 1341 922 1119 984 
Q 981 866 932 777 
Q 884 688 884 625 
Q 884 572 936 522 
Q 988 472 1138 450 
Q 1225 438 1575 428 
Q 2219 413 2409 384 
Q 2700 344 2873 169 
Q 3047 -6 3047 -263 
Q 3047 -616 2716 -925 
Q 2228 -1381 1444 -1381 
Q 841 -1381 425 -1109 
Q 191 -953 191 -784 
Q 191 -709 225 -634 
Q 278 -519 444 -313 
Q 466 -284 763 25 
Q 600 122 533 198 
Q 466 275 466 372 
Q 466 481 555 628 
Q 644 775 966 1044 
z
M 1509 2797 
Q 1278 2797 1122 2612 
Q 966 2428 966 2047 
Q 966 1553 1178 1281 
Q 1341 1075 1591 1075 
Q 1828 1075 1981 1253 
Q 2134 1431 2134 1813 
Q 2134 2309 1919 2591 
Q 1759 2797 1509 2797 
z
M 934 0 
Q 788 -159 713 -296 
Q 638 -434 638 -550 
Q 638 -700 819 -813 
Q 1131 -1006 1722 -1006 
Q 2284 -1006 2551 -807 
Q 2819 -609 2819 -384 
Q 2819 -222 2659 -153 
Q 2497 -84 2016 -72 
Q 1313 -53 934 0 
z
" transform="scale(0.015625)"/>
      <path id="TimesNewRomanPSMT-69" d="M 928 4444 
Q 1059 4444 1151 4351 
Q 1244 4259 1244 4128 
Q 1244 3997 1151 3903 
Q 1059 3809 928 3809 
Q 797 3809 703 3903 
Q 609 3997 609 4128 
Q 609 4259 701 4351 
Q 794 4444 928 4444 
z
M 1188 2947 
L 1188 647 
Q 1188 378 1227 289 
Q 1266 200 1342 156 
Q 1419 113 1622 113 
L 1622 0 
L 231 0 
L 231 113 
Q 441 113 512 153 
Q 584 194 626 287 
Q 669 381 669 647 
L 669 1750 
Q 669 2216 641 2353 
Q 619 2453 572 2492 
Q 525 2531 444 2531 
Q 356 2531 231 2484 
L 188 2597 
L 1050 2947 
L 1188 2947 
z
" transform="scale(0.015625)"/>
      <path id="TimesNewRomanPSMT-53" d="M 2934 4334 
L 2934 2869 
L 2819 2869 
Q 2763 3291 2617 3541 
Q 2472 3791 2203 3937 
Q 1934 4084 1647 4084 
Q 1322 4084 1109 3886 
Q 897 3688 897 3434 
Q 897 3241 1031 3081 
Q 1225 2847 1953 2456 
Q 2547 2138 2764 1967 
Q 2981 1797 3098 1565 
Q 3216 1334 3216 1081 
Q 3216 600 2842 251 
Q 2469 -97 1881 -97 
Q 1697 -97 1534 -69 
Q 1438 -53 1133 45 
Q 828 144 747 144 
Q 669 144 623 97 
Q 578 50 556 -97 
L 441 -97 
L 441 1356 
L 556 1356 
Q 638 900 775 673 
Q 913 447 1195 297 
Q 1478 147 1816 147 
Q 2206 147 2432 353 
Q 2659 559 2659 841 
Q 2659 997 2573 1156 
Q 2488 1316 2306 1453 
Q 2184 1547 1640 1851 
Q 1097 2156 867 2337 
Q 638 2519 519 2737 
Q 400 2956 400 3219 
Q 400 3675 750 4004 
Q 1100 4334 1641 4334 
Q 1978 4334 2356 4169 
Q 2531 4091 2603 4091 
Q 2684 4091 2736 4139 
Q 2788 4188 2819 4334 
L 2934 4334 
z
" transform="scale(0.015625)"/>
      <path id="TimesNewRomanPSMT-70" d="M -6 2578 
L 875 2934 
L 994 2934 
L 994 2266 
Q 1216 2644 1439 2795 
Q 1663 2947 1909 2947 
Q 2341 2947 2628 2609 
Q 2981 2197 2981 1534 
Q 2981 794 2556 309 
Q 2206 -88 1675 -88 
Q 1444 -88 1275 -22 
Q 1150 25 994 166 
L 994 -706 
Q 994 -1000 1030 -1079 
Q 1066 -1159 1155 -1206 
Q 1244 -1253 1478 -1253 
L 1478 -1369 
L -22 -1369 
L -22 -1253 
L 56 -1253 
Q 228 -1256 350 -1188 
Q 409 -1153 442 -1076 
Q 475 -1000 475 -688 
L 475 2019 
Q 475 2297 450 2372 
Q 425 2447 370 2484 
Q 316 2522 222 2522 
Q 147 2522 31 2478 
L -6 2578 
z
M 994 2081 
L 994 1013 
Q 994 666 1022 556 
Q 1066 375 1236 237 
Q 1406 100 1666 100 
Q 1978 100 2172 344 
Q 2425 663 2425 1241 
Q 2425 1897 2138 2250 
Q 1938 2494 1663 2494 
Q 1513 2494 1366 2419 
Q 1253 2363 994 2081 
z
" transform="scale(0.015625)"/>
     </defs>
     <use xlink:href="#TimesNewRomanPSMT-4f"/>
     <use xlink:href="#TimesNewRomanPSMT-72" transform="translate(72.216797 0)"/>
     <use xlink:href="#TimesNewRomanPSMT-67" transform="translate(103.767578 0)"/>
     <use xlink:href="#TimesNewRomanPSMT-61" transform="translate(153.767578 0)"/>
     <use xlink:href="#TimesNewRomanPSMT-6e" transform="translate(198.152344 0)"/>
     <use xlink:href="#TimesNewRomanPSMT-69" transform="translate(248.152344 0)"/>
     <use xlink:href="#TimesNewRomanPSMT-63" transform="translate(275.935547 0)"/>
     <use xlink:href="#TimesNewRomanPSMT-20" transform="translate(320.320312 0)"/>
     <use xlink:href="#TimesNewRomanPSMT-53" transform="translate(345.320312 0)"/>
     <use xlink:href="#TimesNewRomanPSMT-68" transform="translate(400.935547 0)"/>
     <use xlink:href="#TimesNewRomanPSMT-6f" transform="translate(450.935547 0)"/>
     <use xlink:href="#TimesNewRomanPSMT-70" transform="translate(500.935547 0)"/>
     <use xlink:href="#TimesNewRomanPSMT-70" transform="translate(550.935547 0)"/>
     <use xlink:href="#TimesNewRomanPSMT-65" transform="translate(600.935547 0)"/>
     <use xlink:href="#TimesNewRomanPSMT-72" transform="translate(645.320312 0)"/>
     <use xlink:href="#TimesNewRomanPSMT-73" transform="translate(678.621094 0)"/>
    </g>
   </g>
  </g>
  <g id="axes_3">
   <g id="patch_6">
    <path d="M 177.438247 170.44 
L 730.772748 170.44 
L 730.772748 95.78 
L 177.438247 95.78 
L 177.438247 170.44 
z
" style="fill: none; opacity: 0"/>
   </g>
   <g id="FillBetweenPolyCollection_3">
    <defs>
     <path id="me5a96d6439" d="M 177.438247 -73.909906 
L 177.438247 -41.815313 
L 180.218823 -41.815313 
L 182.999398 -41.815313 
L 185.779974 -41.815313 
L 188.560549 -41.815313 
L 191.341124 -41.815313 
L 194.1217 -41.815313 
L 196.902275 -41.815313 
L 199.682851 -41.815313 
L 202.463426 -41.815313 
L 205.244001 -41.815313 
L 208.024577 -41.815313 
L 210.805152 -41.815313 
L 213.585727 -41.815313 
L 216.366303 -41.815313 
L 219.146878 -41.815313 
L 221.927454 -41.815313 
L 224.708029 -41.815313 
L 227.488604 -41.815313 
L 230.26918 -41.815313 
L 233.049755 -41.815313 
L 235.83033 -41.815313 
L 238.610906 -41.815313 
L 241.391481 -41.815313 
L 244.172057 -41.815313 
L 246.952632 -41.815313 
L 249.733207 -41.815313 
L 252.513783 -41.815313 
L 255.294358 -41.815313 
L 258.074933 -41.815313 
L 260.855509 -41.815313 
L 263.636084 -41.815313 
L 266.41666 -41.815313 
L 269.197235 -41.815313 
L 271.97781 -41.815313 
L 274.758386 -41.815313 
L 277.538961 -41.815313 
L 280.319536 -41.815313 
L 283.100112 -41.815313 
L 285.880687 -41.815313 
L 288.661263 -41.815313 
L 291.441838 -41.815313 
L 294.222413 -41.815313 
L 297.002989 -41.815313 
L 299.783564 -41.815313 
L 302.564139 -41.815313 
L 305.344715 -41.815313 
L 308.12529 -41.815313 
L 310.905866 -41.815313 
L 313.686441 -41.815313 
L 316.467016 -41.815313 
L 319.247592 -41.815313 
L 322.028167 -41.815313 
L 324.808742 -41.815313 
L 327.589318 -41.815313 
L 330.369893 -41.815313 
L 333.150469 -41.815313 
L 335.931044 -41.815313 
L 338.711619 -41.815313 
L 341.492195 -41.815313 
L 344.27277 -41.815313 
L 347.053345 -41.815313 
L 349.833921 -41.815313 
L 352.614496 -41.815313 
L 355.395072 -41.815313 
L 358.175647 -41.815313 
L 360.956222 -41.815313 
L 363.736798 -41.815313 
L 366.517373 -41.815313 
L 369.297949 -41.815313 
L 372.078524 -41.815313 
L 374.859099 -41.815313 
L 377.639675 -41.815313 
L 380.42025 -41.815313 
L 383.200825 -41.815313 
L 385.981401 -41.815313 
L 388.761976 -41.815313 
L 391.542552 -41.815313 
L 394.323127 -41.815313 
L 397.103702 -41.815313 
L 399.884278 -41.815313 
L 402.664853 -41.815313 
L 405.445428 -41.815313 
L 408.226004 -41.815313 
L 411.006579 -41.815313 
L 413.787155 -41.815313 
L 416.56773 -41.815313 
L 419.348305 -41.815313 
L 422.128881 -41.815313 
L 424.909456 -41.815313 
L 427.690031 -41.815313 
L 430.470607 -41.815313 
L 433.251182 -41.815313 
L 436.031758 -41.815313 
L 438.812333 -41.815313 
L 441.592908 -41.815313 
L 444.373484 -41.815313 
L 447.154059 -41.815313 
L 449.934634 -41.815313 
L 452.71521 -41.815313 
L 455.495785 -41.815313 
L 458.276361 -41.815313 
L 461.056936 -41.815313 
L 463.837511 -41.815313 
L 466.618087 -41.815313 
L 469.398662 -41.815313 
L 472.179237 -41.815313 
L 474.959813 -41.815313 
L 477.740388 -41.815313 
L 480.520964 -41.815313 
L 483.301539 -41.815313 
L 486.082114 -41.815313 
L 488.86269 -41.815313 
L 491.643265 -41.815313 
L 494.42384 -41.815313 
L 497.204416 -41.815313 
L 499.984991 -41.815313 
L 502.765567 -41.815313 
L 505.546142 -41.815313 
L 508.326717 -41.815313 
L 511.107293 -41.815313 
L 513.887868 -41.815313 
L 516.668443 -41.815313 
L 519.449019 -41.815313 
L 522.229594 -41.815313 
L 525.01017 -41.815313 
L 527.790745 -41.815313 
L 530.57132 -41.815313 
L 533.351896 -41.815313 
L 536.132471 -41.815313 
L 538.913046 -41.815313 
L 541.693622 -41.815313 
L 544.474197 -41.815313 
L 547.254773 -41.815313 
L 550.035348 -41.815313 
L 552.815923 -41.815313 
L 555.596499 -41.815313 
L 558.377074 -41.815313 
L 561.15765 -41.815313 
L 563.938225 -41.815313 
L 566.7188 -41.815313 
L 569.499376 -41.815313 
L 572.279951 -41.815313 
L 575.060526 -41.815313 
L 577.841102 -41.815313 
L 580.621677 -41.815313 
L 583.402253 -41.815313 
L 586.182828 -41.815313 
L 588.963403 -41.815313 
L 591.743979 -41.815313 
L 594.524554 -41.815313 
L 597.305129 -41.815313 
L 600.085705 -41.815313 
L 602.86628 -41.815313 
L 605.646856 -41.815313 
L 608.427431 -41.815313 
L 611.208006 -41.815313 
L 613.988582 -41.815313 
L 616.769157 -41.815313 
L 619.549732 -41.815313 
L 622.330308 -41.815313 
L 625.110883 -41.815313 
L 627.891459 -41.815313 
L 630.672034 -41.815313 
L 633.452609 -41.815313 
L 636.233185 -41.815313 
L 639.01376 -41.815313 
L 641.794335 -41.815313 
L 644.574911 -41.815313 
L 647.355486 -41.815313 
L 650.136062 -41.815313 
L 652.916637 -41.815313 
L 655.697212 -41.815313 
L 658.477788 -41.815313 
L 661.258363 -41.815313 
L 664.038938 -41.815313 
L 666.819514 -41.815313 
L 669.600089 -41.815313 
L 672.380665 -41.815313 
L 675.16124 -41.815313 
L 677.941815 -41.815313 
L 680.722391 -41.815313 
L 683.502966 -41.815313 
L 686.283541 -41.815313 
L 689.064117 -41.815313 
L 691.844692 -41.815313 
L 694.625268 -41.815313 
L 697.405843 -41.815313 
L 700.186418 -41.815313 
L 702.966994 -41.815313 
L 705.747569 -41.815313 
L 708.528144 -41.815313 
L 711.30872 -41.815313 
L 714.089295 -41.815313 
L 716.869871 -41.815313 
L 719.650446 -41.815313 
L 722.431021 -41.815313 
L 725.211597 -41.815313 
L 727.992172 -41.815313 
L 730.772748 -41.815313 
L 730.772748 -49.597712 
L 730.772748 -49.597712 
L 727.992172 -49.830536 
L 725.211597 -50.055843 
L 722.431021 -50.272931 
L 719.650446 -50.481143 
L 716.869871 -50.679871 
L 714.089295 -50.868561 
L 711.30872 -51.046711 
L 708.528144 -51.213875 
L 705.747569 -51.369667 
L 702.966994 -51.51376 
L 700.186418 -51.645887 
L 697.405843 -51.765844 
L 694.625268 -51.87349 
L 691.844692 -51.968749 
L 689.064117 -52.051608 
L 686.283541 -52.12212 
L 683.502966 -52.180407 
L 680.722391 -52.226654 
L 677.941815 -52.261114 
L 675.16124 -52.284107 
L 672.380665 -52.296019 
L 669.600089 -52.297302 
L 666.819514 -52.288471 
L 664.038938 -52.270104 
L 661.258363 -52.242838 
L 658.477788 -52.207367 
L 655.697212 -52.16444 
L 652.916637 -52.114852 
L 650.136062 -52.059443 
L 647.355486 -51.999087 
L 644.574911 -51.934693 
L 641.794335 -51.867189 
L 639.01376 -51.79752 
L 636.233185 -51.726636 
L 633.452609 -51.655485 
L 630.672034 -51.585001 
L 627.891459 -51.516097 
L 625.110883 -51.449655 
L 622.330308 -51.386515 
L 619.549732 -51.327467 
L 616.769157 -51.273241 
L 613.988582 -51.2245 
L 611.208006 -51.181833 
L 608.427431 -51.145747 
L 605.646856 -51.116662 
L 602.86628 -51.094908 
L 600.085705 -51.08072 
L 597.305129 -51.074238 
L 594.524554 -51.075506 
L 591.743979 -51.084474 
L 588.963403 -51.100999 
L 586.182828 -51.124848 
L 583.402253 -51.155706 
L 580.621677 -51.193181 
L 577.841102 -51.236808 
L 575.060526 -51.286064 
L 572.279951 -51.340367 
L 569.499376 -51.399097 
L 566.7188 -51.461594 
L 563.938225 -51.527176 
L 561.15765 -51.595146 
L 558.377074 -51.664801 
L 555.596499 -51.735442 
L 552.815923 -51.806381 
L 550.035348 -51.876953 
L 547.254773 -51.946516 
L 544.474197 -52.014463 
L 541.693622 -52.080226 
L 538.913046 -52.143275 
L 536.132471 -52.203128 
L 533.351896 -52.259347 
L 530.57132 -52.31154 
L 527.790745 -52.359362 
L 525.01017 -52.402513 
L 522.229594 -52.440733 
L 519.449019 -52.473805 
L 516.668443 -52.501547 
L 513.887868 -52.52381 
L 511.107293 -52.540474 
L 508.326717 -52.551445 
L 505.546142 -52.556653 
L 502.765567 -52.556046 
L 499.984991 -52.549589 
L 497.204416 -52.537263 
L 494.42384 -52.519063 
L 491.643265 -52.494998 
L 488.86269 -52.465093 
L 486.082114 -52.429387 
L 483.301539 -52.387941 
L 480.520964 -52.340836 
L 477.740388 -52.288182 
L 474.959813 -52.230119 
L 472.179237 -52.166824 
L 469.398662 -52.09852 
L 466.618087 -52.025476 
L 463.837511 -51.94802 
L 461.056936 -51.86654 
L 458.276361 -51.781494 
L 455.495785 -51.693416 
L 452.71521 -51.602918 
L 449.934634 -51.510698 
L 447.154059 -51.417545 
L 444.373484 -51.324338 
L 441.592908 -51.232055 
L 438.812333 -51.141771 
L 436.031758 -51.054658 
L 433.251182 -50.971988 
L 430.470607 -50.895134 
L 427.690031 -50.825565 
L 424.909456 -50.764846 
L 422.128881 -50.714638 
L 419.348305 -50.676693 
L 416.56773 -50.652853 
L 413.787155 -50.64505 
L 411.006579 -50.655296 
L 408.226004 -50.685688 
L 405.445428 -50.738401 
L 402.664853 -50.815688 
L 399.884278 -50.919873 
L 397.103702 -51.053353 
L 394.323127 -51.218589 
L 391.542552 -51.418108 
L 388.761976 -51.654491 
L 385.981401 -51.930373 
L 383.200825 -52.248429 
L 380.42025 -52.611371 
L 377.639675 -53.02193 
L 374.859099 -53.482844 
L 372.078524 -53.996839 
L 369.297949 -54.56661 
L 366.517373 -55.194797 
L 363.736798 -55.883952 
L 360.956222 -56.636512 
L 358.175647 -57.454762 
L 355.395072 -58.340794 
L 352.614496 -59.296464 
L 349.833921 -60.323348 
L 347.053345 -61.42269 
L 344.27277 -62.595354 
L 341.492195 -63.841768 
L 338.711619 -65.161875 
L 335.931044 -66.55508 
L 333.150469 -68.020197 
L 330.369893 -69.555405 
L 327.589318 -71.158204 
L 324.808742 -72.825375 
L 322.028167 -74.55295 
L 319.247592 -76.336188 
L 316.467016 -78.169562 
L 313.686441 -80.046754 
L 310.905866 -81.960659 
L 308.12529 -83.903409 
L 305.344715 -85.866397 
L 302.564139 -87.840327 
L 299.783564 -89.815264 
L 297.002989 -91.780707 
L 294.222413 -93.725669 
L 291.441838 -95.638767 
L 288.661263 -97.508326 
L 285.880687 -99.322492 
L 283.100112 -101.069351 
L 280.319536 -102.737053 
L 277.538961 -104.313942 
L 274.758386 -105.788691 
L 271.97781 -107.150431 
L 269.197235 -108.388881 
L 266.41666 -109.494473 
L 263.636084 -110.458473 
L 260.855509 -111.273088 
L 258.074933 -111.93157 
L 255.294358 -112.428297 
L 252.513783 -112.758851 
L 249.733207 -112.920074 
L 246.952632 -112.91011 
L 244.172057 -112.728427 
L 241.391481 -112.37583 
L 238.610906 -111.854442 
L 235.83033 -111.167683 
L 233.049755 -110.320223 
L 230.26918 -109.31792 
L 227.488604 -108.167745 
L 224.708029 -106.877695 
L 221.927454 -105.45669 
L 219.146878 -103.914467 
L 216.366303 -102.261455 
L 213.585727 -100.508656 
L 210.805152 -98.667515 
L 208.024577 -96.749789 
L 205.244001 -94.767421 
L 202.463426 -92.732409 
L 199.682851 -90.656683 
L 196.902275 -88.551991 
L 194.1217 -86.429787 
L 191.341124 -84.301129 
L 188.560549 -82.176591 
L 185.779974 -80.066179 
L 182.999398 -77.979265 
L 180.218823 -75.924527 
L 177.438247 -73.909906 
z
" style="stroke: #b2df8a"/>
    </defs>
    <g clip-path="url(#pf972be539d)">
     <use xlink:href="#me5a96d6439" x="0" y="212.255313" style="fill: #b2df8a; fill-opacity: 0.5; stroke: #b2df8a"/>
    </g>
   </g>
   <g id="matplotlib.axis_5">
    <g id="xtick_13">
     <g id="line2d_17">
      <g>
       <use xlink:href="#mc5cf76986b" x="177.438247" y="170.44" style="stroke: #000000; stroke-width: 0.8"/>
      </g>
     </g>
     <g id="text_3">
      <!-- 0 -->
      <g transform="translate(174.438247 185.7725) scale(0.12 -0.12)">
       <defs>
        <path id="TimesNewRomanPSMT-30" d="M 231 2094 
Q 231 2819 450 3342 
Q 669 3866 1031 4122 
Q 1313 4325 1613 4325 
Q 2100 4325 2488 3828 
Q 2972 3213 2972 2159 
Q 2972 1422 2759 906 
Q 2547 391 2217 158 
Q 1888 -75 1581 -75 
Q 975 -75 572 641 
Q 231 1244 231 2094 
z
M 844 2016 
Q 844 1141 1059 588 
Q 1238 122 1591 122 
Q 1759 122 1940 273 
Q 2122 425 2216 781 
Q 2359 1319 2359 2297 
Q 2359 3022 2209 3506 
Q 2097 3866 1919 4016 
Q 1791 4119 1609 4119 
Q 1397 4119 1231 3928 
Q 1006 3669 925 3112 
Q 844 2556 844 2016 
z
" transform="scale(0.015625)"/>
       </defs>
       <use xlink:href="#TimesNewRomanPSMT-30"/>
      </g>
     </g>
    </g>
    <g id="xtick_14">
     <g id="line2d_18">
      <g>
       <use xlink:href="#mc5cf76986b" x="288.105147" y="170.44" style="stroke: #000000; stroke-width: 0.8"/>
      </g>
     </g>
     <g id="text_4">
      <!-- 20 -->
      <g transform="translate(282.105147 185.7725) scale(0.12 -0.12)">
       <defs>
        <path id="TimesNewRomanPSMT-32" d="M 2934 816 
L 2638 0 
L 138 0 
L 138 116 
Q 1241 1122 1691 1759 
Q 2141 2397 2141 2925 
Q 2141 3328 1894 3587 
Q 1647 3847 1303 3847 
Q 991 3847 742 3664 
Q 494 3481 375 3128 
L 259 3128 
Q 338 3706 661 4015 
Q 984 4325 1469 4325 
Q 1984 4325 2329 3994 
Q 2675 3663 2675 3213 
Q 2675 2891 2525 2569 
Q 2294 2063 1775 1497 
Q 997 647 803 472 
L 1909 472 
Q 2247 472 2383 497 
Q 2519 522 2628 598 
Q 2738 675 2819 816 
L 2934 816 
z
" transform="scale(0.015625)"/>
       </defs>
       <use xlink:href="#TimesNewRomanPSMT-32"/>
       <use xlink:href="#TimesNewRomanPSMT-30" transform="translate(50 0)"/>
      </g>
     </g>
    </g>
    <g id="xtick_15">
     <g id="line2d_19">
      <g>
       <use xlink:href="#mc5cf76986b" x="398.772047" y="170.44" style="stroke: #000000; stroke-width: 0.8"/>
      </g>
     </g>
     <g id="text_5">
      <!-- 40 -->
      <g transform="translate(392.772047 185.7725) scale(0.12 -0.12)">
       <defs>
        <path id="TimesNewRomanPSMT-34" d="M 2978 1563 
L 2978 1119 
L 2409 1119 
L 2409 0 
L 1894 0 
L 1894 1119 
L 100 1119 
L 100 1519 
L 2066 4325 
L 2409 4325 
L 2409 1563 
L 2978 1563 
z
M 1894 1563 
L 1894 3666 
L 406 1563 
L 1894 1563 
z
" transform="scale(0.015625)"/>
       </defs>
       <use xlink:href="#TimesNewRomanPSMT-34"/>
       <use xlink:href="#TimesNewRomanPSMT-30" transform="translate(50 0)"/>
      </g>
     </g>
    </g>
    <g id="xtick_16">
     <g id="line2d_20">
      <g>
       <use xlink:href="#mc5cf76986b" x="509.438948" y="170.44" style="stroke: #000000; stroke-width: 0.8"/>
      </g>
     </g>
     <g id="text_6">
      <!-- 60 -->
      <g transform="translate(503.438948 185.7725) scale(0.12 -0.12)">
       <defs>
        <path id="TimesNewRomanPSMT-36" d="M 2869 4325 
L 2869 4209 
Q 2456 4169 2195 4045 
Q 1934 3922 1679 3669 
Q 1425 3416 1258 3105 
Q 1091 2794 978 2366 
Q 1428 2675 1881 2675 
Q 2316 2675 2634 2325 
Q 2953 1975 2953 1425 
Q 2953 894 2631 456 
Q 2244 -75 1606 -75 
Q 1172 -75 869 213 
Q 275 772 275 1663 
Q 275 2231 503 2743 
Q 731 3256 1154 3653 
Q 1578 4050 1965 4187 
Q 2353 4325 2688 4325 
L 2869 4325 
z
M 925 2138 
Q 869 1716 869 1456 
Q 869 1156 980 804 
Q 1091 453 1309 247 
Q 1469 100 1697 100 
Q 1969 100 2183 356 
Q 2397 613 2397 1088 
Q 2397 1622 2184 2012 
Q 1972 2403 1581 2403 
Q 1463 2403 1327 2353 
Q 1191 2303 925 2138 
z
" transform="scale(0.015625)"/>
       </defs>
       <use xlink:href="#TimesNewRomanPSMT-36"/>
       <use xlink:href="#TimesNewRomanPSMT-30" transform="translate(50 0)"/>
      </g>
     </g>
    </g>
    <g id="xtick_17">
     <g id="line2d_21">
      <g>
       <use xlink:href="#mc5cf76986b" x="620.105847" y="170.44" style="stroke: #000000; stroke-width: 0.8"/>
      </g>
     </g>
     <g id="text_7">
      <!-- 80 -->
      <g transform="translate(614.105847 185.7725) scale(0.12 -0.12)">
       <defs>
        <path id="TimesNewRomanPSMT-38" d="M 1228 2134 
Q 725 2547 579 2797 
Q 434 3047 434 3316 
Q 434 3728 753 4026 
Q 1072 4325 1600 4325 
Q 2113 4325 2425 4047 
Q 2738 3769 2738 3413 
Q 2738 3175 2569 2928 
Q 2400 2681 1866 2347 
Q 2416 1922 2594 1678 
Q 2831 1359 2831 1006 
Q 2831 559 2490 242 
Q 2150 -75 1597 -75 
Q 994 -75 656 303 
Q 388 606 388 966 
Q 388 1247 577 1523 
Q 766 1800 1228 2134 
z
M 1719 2469 
Q 2094 2806 2194 3001 
Q 2294 3197 2294 3444 
Q 2294 3772 2109 3958 
Q 1925 4144 1606 4144 
Q 1288 4144 1088 3959 
Q 888 3775 888 3528 
Q 888 3366 970 3203 
Q 1053 3041 1206 2894 
L 1719 2469 
z
M 1375 2016 
Q 1116 1797 991 1539 
Q 866 1281 866 981 
Q 866 578 1086 336 
Q 1306 94 1647 94 
Q 1984 94 2187 284 
Q 2391 475 2391 747 
Q 2391 972 2272 1150 
Q 2050 1481 1375 2016 
z
" transform="scale(0.015625)"/>
       </defs>
       <use xlink:href="#TimesNewRomanPSMT-38"/>
       <use xlink:href="#TimesNewRomanPSMT-30" transform="translate(50 0)"/>
      </g>
     </g>
    </g>
    <g id="xtick_18">
     <g id="line2d_22">
      <g>
       <use xlink:href="#mc5cf76986b" x="730.772748" y="170.44" style="stroke: #000000; stroke-width: 0.8"/>
      </g>
     </g>
     <g id="text_8">
      <!-- 100 -->
      <g transform="translate(721.772748 185.7725) scale(0.12 -0.12)">
       <defs>
        <path id="TimesNewRomanPSMT-31" d="M 750 3822 
L 1781 4325 
L 1884 4325 
L 1884 747 
Q 1884 391 1914 303 
Q 1944 216 2037 169 
Q 2131 122 2419 116 
L 2419 0 
L 825 0 
L 825 116 
Q 1125 122 1212 167 
Q 1300 213 1334 289 
Q 1369 366 1369 747 
L 1369 3034 
Q 1369 3497 1338 3628 
Q 1316 3728 1258 3775 
Q 1200 3822 1119 3822 
Q 1003 3822 797 3725 
L 750 3822 
z
" transform="scale(0.015625)"/>
       </defs>
       <use xlink:href="#TimesNewRomanPSMT-31"/>
       <use xlink:href="#TimesNewRomanPSMT-30" transform="translate(50 0)"/>
       <use xlink:href="#TimesNewRomanPSMT-30" transform="translate(100 0)"/>
      </g>
     </g>
    </g>
    <g id="text_9">
     <!-- Value -->
     <g transform="translate(438.16956 202.060625) scale(0.14 -0.14)">
      <defs>
       <path id="TimesNewRomanPSMT-56" d="M 4544 4238 
L 4544 4122 
Q 4319 4081 4203 3978 
Q 4038 3825 3909 3509 
L 2431 -97 
L 2316 -97 
L 728 3556 
Q 606 3838 556 3900 
Q 478 3997 364 4051 
Q 250 4106 56 4122 
L 56 4238 
L 1788 4238 
L 1788 4122 
Q 1494 4094 1406 4022 
Q 1319 3950 1319 3838 
Q 1319 3681 1463 3350 
L 2541 866 
L 3541 3319 
Q 3688 3681 3688 3822 
Q 3688 3913 3597 3995 
Q 3506 4078 3291 4113 
Q 3275 4116 3238 4122 
L 3238 4238 
L 4544 4238 
z
" transform="scale(0.015625)"/>
       <path id="TimesNewRomanPSMT-6c" d="M 1184 4444 
L 1184 647 
Q 1184 378 1223 290 
Q 1263 203 1344 158 
Q 1425 113 1647 113 
L 1647 0 
L 244 0 
L 244 113 
Q 441 113 512 153 
Q 584 194 625 287 
Q 666 381 666 647 
L 666 3247 
Q 666 3731 644 3842 
Q 622 3953 573 3993 
Q 525 4034 450 4034 
Q 369 4034 244 3984 
L 191 4094 
L 1044 4444 
L 1184 4444 
z
" transform="scale(0.015625)"/>
      </defs>
      <use xlink:href="#TimesNewRomanPSMT-56"/>
      <use xlink:href="#TimesNewRomanPSMT-61" transform="translate(61.091797 0)"/>
      <use xlink:href="#TimesNewRomanPSMT-6c" transform="translate(105.476562 0)"/>
      <use xlink:href="#TimesNewRomanPSMT-75" transform="translate(133.259766 0)"/>
      <use xlink:href="#TimesNewRomanPSMT-65" transform="translate(183.259766 0)"/>
     </g>
    </g>
   </g>
   <g id="matplotlib.axis_6"/>
   <g id="line2d_23">
    <path d="M 177.438247 138.345406 
L 185.779974 132.189133 
L 205.244001 117.487891 
L 210.805152 113.587798 
L 216.366303 109.993857 
L 221.927454 106.798622 
L 224.708029 105.377618 
L 227.488604 104.087568 
L 230.26918 102.937393 
L 233.049755 101.935089 
L 235.83033 101.087629 
L 238.610906 100.400871 
L 241.391481 99.879483 
L 244.172057 99.526885 
L 246.952632 99.345203 
L 249.733207 99.335238 
L 252.513783 99.496461 
L 255.294358 99.827015 
L 258.074933 100.323742 
L 260.855509 100.982224 
L 263.636084 101.79684 
L 266.41666 102.76084 
L 269.197235 103.866432 
L 271.97781 105.104881 
L 277.538961 107.94137 
L 283.100112 111.185961 
L 288.661263 114.746987 
L 297.002989 120.474605 
L 313.686441 132.208559 
L 319.247592 135.919125 
L 324.808742 139.429937 
L 330.369893 142.699907 
L 335.931044 145.700233 
L 341.492195 148.413545 
L 347.053345 150.832622 
L 352.614496 152.958848 
L 358.175647 154.80055 
L 363.736798 156.371361 
L 369.297949 157.688702 
L 374.859099 158.772469 
L 380.42025 159.643941 
L 385.981401 160.32494 
L 391.542552 160.837205 
L 399.884278 161.335439 
L 408.226004 161.569625 
L 416.56773 161.602459 
L 427.690031 161.429748 
L 447.154059 160.837768 
L 472.179237 160.088488 
L 488.86269 159.79022 
L 505.546142 159.698659 
L 522.229594 159.814579 
L 541.693622 160.175087 
L 586.182828 161.130465 
L 600.085705 161.174593 
L 616.769157 160.982071 
L 641.794335 160.388123 
L 661.258363 160.012475 
L 675.16124 159.971205 
L 686.283541 160.133192 
L 697.405843 160.489468 
L 708.528144 161.041438 
L 722.431021 161.982381 
L 730.772748 162.657601 
L 730.772748 162.657601 
" clip-path="url(#pf972be539d)" style="fill: none; stroke: #ffffff; stroke-width: 2; stroke-linecap: square"/>
   </g>
   <g id="line2d_24">
    <path d="M 177.438247 170.44 
L 730.772748 170.44 
" style="fill: none; stroke: #000000; stroke-linecap: square"/>
   </g>
   <g id="text_10">
    <g id="patch_7">
     <path d="M 24.391875 179.849687 
L 123.298125 179.849687 
L 123.298125 161.030312 
L 24.391875 161.030312 
z
" style="fill: #ffffff; opacity: 0.5"/>
    </g>
    <!-- Ethical Consumers -->
    <g transform="translate(28.351875 173.322812) scale(0.12 -0.12)">
     <defs>
      <path id="TimesNewRomanPSMT-45" d="M 1338 4006 
L 1338 2331 
L 2269 2331 
Q 2631 2331 2753 2441 
Q 2916 2584 2934 2947 
L 3050 2947 
L 3050 1472 
L 2934 1472 
Q 2891 1781 2847 1869 
Q 2791 1978 2662 2040 
Q 2534 2103 2269 2103 
L 1338 2103 
L 1338 706 
Q 1338 425 1363 364 
Q 1388 303 1450 267 
Q 1513 231 1688 231 
L 2406 231 
Q 2766 231 2928 281 
Q 3091 331 3241 478 
Q 3434 672 3638 1063 
L 3763 1063 
L 3397 0 
L 131 0 
L 131 116 
L 281 116 
Q 431 116 566 188 
Q 666 238 702 338 
Q 738 438 738 747 
L 738 3500 
Q 738 3903 656 3997 
Q 544 4122 281 4122 
L 131 4122 
L 131 4238 
L 3397 4238 
L 3444 3309 
L 3322 3309 
Q 3256 3644 3176 3769 
Q 3097 3894 2941 3959 
Q 2816 4006 2500 4006 
L 1338 4006 
z
" transform="scale(0.015625)"/>
      <path id="TimesNewRomanPSMT-74" d="M 1031 3803 
L 1031 2863 
L 1700 2863 
L 1700 2644 
L 1031 2644 
L 1031 788 
Q 1031 509 1111 412 
Q 1191 316 1316 316 
Q 1419 316 1516 380 
Q 1613 444 1666 569 
L 1788 569 
Q 1678 263 1478 108 
Q 1278 -47 1066 -47 
Q 922 -47 784 33 
Q 647 113 581 261 
Q 516 409 516 719 
L 516 2644 
L 63 2644 
L 63 2747 
Q 234 2816 414 2980 
Q 594 3144 734 3369 
Q 806 3488 934 3803 
L 1031 3803 
z
" transform="scale(0.015625)"/>
     </defs>
     <use xlink:href="#TimesNewRomanPSMT-45"/>
     <use xlink:href="#TimesNewRomanPSMT-74" transform="translate(61.083984 0)"/>
     <use xlink:href="#TimesNewRomanPSMT-68" transform="translate(88.867188 0)"/>
     <use xlink:href="#TimesNewRomanPSMT-69" transform="translate(138.867188 0)"/>
     <use xlink:href="#TimesNewRomanPSMT-63" transform="translate(166.650391 0)"/>
     <use xlink:href="#TimesNewRomanPSMT-61" transform="translate(211.035156 0)"/>
     <use xlink:href="#TimesNewRomanPSMT-6c" transform="translate(255.419922 0)"/>
     <use xlink:href="#TimesNewRomanPSMT-20" transform="translate(283.203125 0)"/>
     <use xlink:href="#TimesNewRomanPSMT-43" transform="translate(308.203125 0)"/>
     <use xlink:href="#TimesNewRomanPSMT-6f" transform="translate(374.902344 0)"/>
     <use xlink:href="#TimesNewRomanPSMT-6e" transform="translate(424.902344 0)"/>
     <use xlink:href="#TimesNewRomanPSMT-73" transform="translate(474.902344 0)"/>
     <use xlink:href="#TimesNewRomanPSMT-75" transform="translate(513.818359 0)"/>
     <use xlink:href="#TimesNewRomanPSMT-6d" transform="translate(563.818359 0)"/>
     <use xlink:href="#TimesNewRomanPSMT-65" transform="translate(641.601562 0)"/>
     <use xlink:href="#TimesNewRomanPSMT-72" transform="translate(685.986328 0)"/>
     <use xlink:href="#TimesNewRomanPSMT-73" transform="translate(719.287109 0)"/>
    </g>
   </g>
  </g>
  <g id="text_11">
   <!-- Consumer Preferences(%) -->
   <g transform="translate(297.383997 18.31) scale(0.16 -0.16)">
    <defs>
     <path id="TimesNewRomanPSMT-50" d="M 1313 1984 
L 1313 750 
Q 1313 350 1400 253 
Q 1519 116 1759 116 
L 1922 116 
L 1922 0 
L 106 0 
L 106 116 
L 266 116 
Q 534 116 650 291 
Q 713 388 713 750 
L 713 3488 
Q 713 3888 628 3984 
Q 506 4122 266 4122 
L 106 4122 
L 106 4238 
L 1659 4238 
Q 2228 4238 2556 4120 
Q 2884 4003 3109 3725 
Q 3334 3447 3334 3066 
Q 3334 2547 2992 2222 
Q 2650 1897 2025 1897 
Q 1872 1897 1694 1919 
Q 1516 1941 1313 1984 
z
M 1313 2163 
Q 1478 2131 1606 2115 
Q 1734 2100 1825 2100 
Q 2150 2100 2386 2351 
Q 2622 2603 2622 3003 
Q 2622 3278 2509 3514 
Q 2397 3750 2190 3867 
Q 1984 3984 1722 3984 
Q 1563 3984 1313 3925 
L 1313 2163 
z
" transform="scale(0.015625)"/>
     <path id="TimesNewRomanPSMT-66" d="M 1319 2638 
L 1319 756 
Q 1319 356 1406 250 
Q 1522 113 1716 113 
L 1975 113 
L 1975 0 
L 266 0 
L 266 113 
L 394 113 
Q 519 113 622 175 
Q 725 238 764 344 
Q 803 450 803 756 
L 803 2638 
L 247 2638 
L 247 2863 
L 803 2863 
L 803 3050 
Q 803 3478 940 3775 
Q 1078 4072 1361 4255 
Q 1644 4438 1997 4438 
Q 2325 4438 2600 4225 
Q 2781 4084 2781 3909 
Q 2781 3816 2700 3733 
Q 2619 3650 2525 3650 
Q 2453 3650 2373 3701 
Q 2294 3753 2178 3923 
Q 2063 4094 1966 4153 
Q 1869 4213 1750 4213 
Q 1606 4213 1506 4136 
Q 1406 4059 1362 3898 
Q 1319 3738 1319 3069 
L 1319 2863 
L 2056 2863 
L 2056 2638 
L 1319 2638 
z
" transform="scale(0.015625)"/>
     <path id="TimesNewRomanPSMT-28" d="M 1988 -1253 
L 1988 -1369 
Q 1516 -1131 1200 -813 
Q 750 -359 506 256 
Q 263 872 263 1534 
Q 263 2503 741 3301 
Q 1219 4100 1988 4444 
L 1988 4313 
Q 1603 4100 1356 3731 
Q 1109 3363 987 2797 
Q 866 2231 866 1616 
Q 866 947 969 400 
Q 1050 -31 1165 -292 
Q 1281 -553 1476 -793 
Q 1672 -1034 1988 -1253 
z
" transform="scale(0.015625)"/>
     <path id="TimesNewRomanPSMT-25" d="M 4350 4334 
L 1263 -175 
L 984 -175 
L 4072 4334 
L 4350 4334 
z
M 1138 4334 
Q 1559 4334 1792 3984 
Q 2025 3634 2025 3181 
Q 2025 2638 1762 2341 
Q 1500 2044 1131 2044 
Q 884 2044 678 2180 
Q 472 2316 348 2584 
Q 225 2853 225 3181 
Q 225 3509 350 3786 
Q 475 4063 692 4198 
Q 909 4334 1138 4334 
z
M 1128 4159 
Q 969 4159 845 3971 
Q 722 3784 722 3184 
Q 722 2750 791 2522 
Q 844 2350 956 2256 
Q 1022 2200 1119 2200 
Q 1269 2200 1375 2363 
Q 1531 2603 1531 3166 
Q 1531 3759 1378 4000 
Q 1278 4159 1128 4159 
z
M 4206 2103 
Q 4428 2103 4648 1962 
Q 4869 1822 4989 1553 
Q 5109 1284 5109 963 
Q 5109 409 4843 117 
Q 4578 -175 4216 -175 
Q 3988 -175 3773 -34 
Q 3559 106 3436 367 
Q 3313 628 3313 963 
Q 3313 1291 3436 1562 
Q 3559 1834 3773 1968 
Q 3988 2103 4206 2103 
z
M 4209 1938 
Q 4059 1938 3950 1769 
Q 3809 1550 3809 941 
Q 3809 381 3953 159 
Q 4059 0 4209 0 
Q 4353 0 4466 172 
Q 4616 400 4616 956 
Q 4616 1544 4466 1778 
Q 4363 1938 4209 1938 
z
" transform="scale(0.015625)"/>
     <path id="TimesNewRomanPSMT-29" d="M 144 4313 
L 144 4444 
Q 619 4209 934 3891 
Q 1381 3434 1625 2820 
Q 1869 2206 1869 1541 
Q 1869 572 1392 -226 
Q 916 -1025 144 -1369 
L 144 -1253 
Q 528 -1038 776 -670 
Q 1025 -303 1145 264 
Q 1266 831 1266 1447 
Q 1266 2113 1163 2663 
Q 1084 3094 967 3353 
Q 850 3613 656 3853 
Q 463 4094 144 4313 
z
" transform="scale(0.015625)"/>
    </defs>
    <use xlink:href="#TimesNewRomanPSMT-43"/>
    <use xlink:href="#TimesNewRomanPSMT-6f" transform="translate(66.699219 0)"/>
    <use xlink:href="#TimesNewRomanPSMT-6e" transform="translate(116.699219 0)"/>
    <use xlink:href="#TimesNewRomanPSMT-73" transform="translate(166.699219 0)"/>
    <use xlink:href="#TimesNewRomanPSMT-75" transform="translate(205.615234 0)"/>
    <use xlink:href="#TimesNewRomanPSMT-6d" transform="translate(255.615234 0)"/>
    <use xlink:href="#TimesNewRomanPSMT-65" transform="translate(333.398438 0)"/>
    <use xlink:href="#TimesNewRomanPSMT-72" transform="translate(377.783203 0)"/>
    <use xlink:href="#TimesNewRomanPSMT-20" transform="translate(411.083984 0)"/>
    <use xlink:href="#TimesNewRomanPSMT-50" transform="translate(436.083984 0)"/>
    <use xlink:href="#TimesNewRomanPSMT-72" transform="translate(491.699219 0)"/>
    <use xlink:href="#TimesNewRomanPSMT-65" transform="translate(525 0)"/>
    <use xlink:href="#TimesNewRomanPSMT-66" transform="translate(569.384766 0)"/>
    <use xlink:href="#TimesNewRomanPSMT-65" transform="translate(602.685547 0)"/>
    <use xlink:href="#TimesNewRomanPSMT-72" transform="translate(647.070312 0)"/>
    <use xlink:href="#TimesNewRomanPSMT-65" transform="translate(680.371094 0)"/>
    <use xlink:href="#TimesNewRomanPSMT-6e" transform="translate(724.755859 0)"/>
    <use xlink:href="#TimesNewRomanPSMT-63" transform="translate(774.755859 0)"/>
    <use xlink:href="#TimesNewRomanPSMT-65" transform="translate(819.140625 0)"/>
    <use xlink:href="#TimesNewRomanPSMT-73" transform="translate(863.525391 0)"/>
    <use xlink:href="#TimesNewRomanPSMT-28" transform="translate(902.441406 0)"/>
    <use xlink:href="#TimesNewRomanPSMT-25" transform="translate(935.742188 0)"/>
    <use xlink:href="#TimesNewRomanPSMT-29" transform="translate(1019.042969 0)"/>
   </g>
  </g>
 </g>
 <defs>
  <clipPath id="p721ad6c686">
   <rect x="177.438247" y="21.12" width="553.3345" height="74.66"/>
  </clipPath>
  <clipPath id="p526b727e4b">
   <rect x="177.438247" y="58.45" width="553.3345" height="74.66"/>
  </clipPath>
  <clipPath id="pf972be539d">
   <rect x="177.438247" y="95.78" width="553.3345" height="74.66"/>
  </clipPath>
 </defs>
</svg>
