<?xml version="1.0" encoding="utf-8" standalone="no"?>
<!DOCTYPE svg PUBLIC "-//W3C//DTD SVG 1.1//EN"
  "http://www.w3.org/Graphics/SVG/1.1/DTD/svg11.dtd">
<svg xmlns:xlink="http://www.w3.org/1999/xlink" width="749.017585pt" height="212.255313pt" viewBox="0 0 749.017585 212.255313" xmlns="http://www.w3.org/2000/svg" version="1.1">
 <metadata>
  <rdf:RDF xmlns:dc="http://purl.org/dc/elements/1.1/" xmlns:cc="http://creativecommons.org/ns#" xmlns:rdf="http://www.w3.org/1999/02/22-rdf-syntax-ns#">
   <cc:Work>
    <dc:type rdf:resource="http://purl.org/dc/dcmitype/StillImage"/>
    <dc:date>2025-05-26T21:50:19.087971</dc:date>
    <dc:format>image/svg+xml</dc:format>
    <dc:creator>
     <cc:Agent>
      <dc:title>Matplotlib v3.10.1, https://matplotlib.org/</dc:title>
     </cc:Agent>
    </dc:creator>
   </cc:Work>
  </rdf:RDF>
 </metadata>
 <defs>
  <style type="text/css">*{stroke-linejoin: round; stroke-linecap: butt}</style>
 </defs>
 <g id="figure_1">
  <g id="patch_1">
   <path d="M 0 212.255313 
L 749.017585 212.255313 
L 749.017585 0 
L 0 0 
z
" style="fill: #ffffff"/>
  </g>
  <g id="axes_1">
   <g id="patch_2">
    <path d="M 158.490585 95.78 
L 732.817585 95.78 
L 732.817585 21.12 
L 158.490585 21.12 
L 158.490585 95.78 
z
" style="fill: none; opacity: 0"/>
   </g>
   <g id="FillBetweenPolyCollection_1">
    <defs>
     <path id="m01e2f250e3" d="M 158.490585 -141.492021 
L 158.490585 -116.475313 
L 161.37665 -116.475313 
L 164.262716 -116.475313 
L 167.148781 -116.475313 
L 170.034846 -116.475313 
L 172.920912 -116.475313 
L 175.806977 -116.475313 
L 178.693042 -116.475313 
L 181.579108 -116.475313 
L 184.465173 -116.475313 
L 187.351238 -116.475313 
L 190.237304 -116.475313 
L 193.123369 -116.475313 
L 196.009434 -116.475313 
L 198.8955 -116.475313 
L 201.781565 -116.475313 
L 204.66763 -116.475313 
L 207.553696 -116.475313 
L 210.439761 -116.475313 
L 213.325826 -116.475313 
L 216.211892 -116.475313 
L 219.097957 -116.475313 
L 221.984022 -116.475313 
L 224.870088 -116.475313 
L 227.756153 -116.475313 
L 230.642218 -116.475313 
L 233.528283 -116.475313 
L 236.414349 -116.475313 
L 239.300414 -116.475313 
L 242.186479 -116.475313 
L 245.072545 -116.475313 
L 247.95861 -116.475313 
L 250.844675 -116.475313 
L 253.730741 -116.475313 
L 256.616806 -116.475313 
L 259.502871 -116.475313 
L 262.388937 -116.475313 
L 265.275002 -116.475313 
L 268.161067 -116.475313 
L 271.047133 -116.475313 
L 273.933198 -116.475313 
L 276.819263 -116.475313 
L 279.705329 -116.475313 
L 282.591394 -116.475313 
L 285.477459 -116.475313 
L 288.363525 -116.475313 
L 291.24959 -116.475313 
L 294.135655 -116.475313 
L 297.021721 -116.475313 
L 299.907786 -116.475313 
L 302.793851 -116.475313 
L 305.679917 -116.475313 
L 308.565982 -116.475313 
L 311.452047 -116.475313 
L 314.338113 -116.475313 
L 317.224178 -116.475313 
L 320.110243 -116.475313 
L 322.996309 -116.475313 
L 325.882374 -116.475313 
L 328.768439 -116.475313 
L 331.654505 -116.475313 
L 334.54057 -116.475313 
L 337.426635 -116.475313 
L 340.312701 -116.475313 
L 343.198766 -116.475313 
L 346.084831 -116.475313 
L 348.970897 -116.475313 
L 351.856962 -116.475313 
L 354.743027 -116.475313 
L 357.629093 -116.475313 
L 360.515158 -116.475313 
L 363.401223 -116.475313 
L 366.287289 -116.475313 
L 369.173354 -116.475313 
L 372.059419 -116.475313 
L 374.945484 -116.475313 
L 377.83155 -116.475313 
L 380.717615 -116.475313 
L 383.60368 -116.475313 
L 386.489746 -116.475313 
L 389.375811 -116.475313 
L 392.261876 -116.475313 
L 395.147942 -116.475313 
L 398.034007 -116.475313 
L 400.920072 -116.475313 
L 403.806138 -116.475313 
L 406.692203 -116.475313 
L 409.578268 -116.475313 
L 412.464334 -116.475313 
L 415.350399 -116.475313 
L 418.236464 -116.475313 
L 421.12253 -116.475313 
L 424.008595 -116.475313 
L 426.89466 -116.475313 
L 429.780726 -116.475313 
L 432.666791 -116.475313 
L 435.552856 -116.475313 
L 438.438922 -116.475313 
L 441.324987 -116.475313 
L 444.211052 -116.475313 
L 447.097118 -116.475313 
L 449.983183 -116.475313 
L 452.869248 -116.475313 
L 455.755314 -116.475313 
L 458.641379 -116.475313 
L 461.527444 -116.475313 
L 464.41351 -116.475313 
L 467.299575 -116.475313 
L 470.18564 -116.475313 
L 473.071706 -116.475313 
L 475.957771 -116.475313 
L 478.843836 -116.475313 
L 481.729902 -116.475313 
L 484.615967 -116.475313 
L 487.502032 -116.475313 
L 490.388098 -116.475313 
L 493.274163 -116.475313 
L 496.160228 -116.475313 
L 499.046294 -116.475313 
L 501.932359 -116.475313 
L 504.818424 -116.475313 
L 507.70449 -116.475313 
L 510.590555 -116.475313 
L 513.47662 -116.475313 
L 516.362686 -116.475313 
L 519.248751 -116.475313 
L 522.134816 -116.475313 
L 525.020881 -116.475313 
L 527.906947 -116.475313 
L 530.793012 -116.475313 
L 533.679077 -116.475313 
L 536.565143 -116.475313 
L 539.451208 -116.475313 
L 542.337273 -116.475313 
L 545.223339 -116.475313 
L 548.109404 -116.475313 
L 550.995469 -116.475313 
L 553.881535 -116.475313 
L 556.7676 -116.475313 
L 559.653665 -116.475313 
L 562.539731 -116.475313 
L 565.425796 -116.475313 
L 568.311861 -116.475313 
L 571.197927 -116.475313 
L 574.083992 -116.475313 
L 576.970057 -116.475313 
L 579.856123 -116.475313 
L 582.742188 -116.475313 
L 585.628253 -116.475313 
L 588.514319 -116.475313 
L 591.400384 -116.475313 
L 594.286449 -116.475313 
L 597.172515 -116.475313 
L 600.05858 -116.475313 
L 602.944645 -116.475313 
L 605.830711 -116.475313 
L 608.716776 -116.475313 
L 611.602841 -116.475313 
L 614.488907 -116.475313 
L 617.374972 -116.475313 
L 620.261037 -116.475313 
L 623.147103 -116.475313 
L 626.033168 -116.475313 
L 628.919233 -116.475313 
L 631.805299 -116.475313 
L 634.691364 -116.475313 
L 637.577429 -116.475313 
L 640.463495 -116.475313 
L 643.34956 -116.475313 
L 646.235625 -116.475313 
L 649.121691 -116.475313 
L 652.007756 -116.475313 
L 654.893821 -116.475313 
L 657.779887 -116.475313 
L 660.665952 -116.475313 
L 663.552017 -116.475313 
L 666.438082 -116.475313 
L 669.324148 -116.475313 
L 672.210213 -116.475313 
L 675.096278 -116.475313 
L 677.982344 -116.475313 
L 680.868409 -116.475313 
L 683.754474 -116.475313 
L 686.64054 -116.475313 
L 689.526605 -116.475313 
L 692.41267 -116.475313 
L 695.298736 -116.475313 
L 698.184801 -116.475313 
L 701.070866 -116.475313 
L 703.956932 -116.475313 
L 706.842997 -116.475313 
L 709.729062 -116.475313 
L 712.615128 -116.475313 
L 715.501193 -116.475313 
L 718.387258 -116.475313 
L 721.273324 -116.475313 
L 724.159389 -116.475313 
L 727.045454 -116.475313 
L 729.93152 -116.475313 
L 732.817585 -116.475313 
L 732.817585 -148.787476 
L 732.817585 -148.787476 
L 729.93152 -149.801425 
L 727.045454 -150.792482 
L 724.159389 -151.757616 
L 721.273324 -152.693954 
L 718.387258 -153.5988 
L 715.501193 -154.469661 
L 712.615128 -155.304272 
L 709.729062 -156.100609 
L 706.842997 -156.85691 
L 703.956932 -157.571689 
L 701.070866 -158.243745 
L 698.184801 -158.872172 
L 695.298736 -159.456361 
L 692.41267 -159.996001 
L 689.526605 -160.491079 
L 686.64054 -160.941867 
L 683.754474 -161.348921 
L 680.868409 -161.71306 
L 677.982344 -162.035352 
L 675.096278 -162.317095 
L 672.210213 -162.559794 
L 669.324148 -162.765137 
L 666.438082 -162.934965 
L 663.552017 -163.071247 
L 660.665952 -163.176048 
L 657.779887 -163.251497 
L 654.893821 -163.299759 
L 652.007756 -163.323 
L 649.121691 -163.323359 
L 646.235625 -163.302917 
L 643.34956 -163.263669 
L 640.463495 -163.207499 
L 637.577429 -163.136153 
L 634.691364 -163.051221 
L 631.805299 -162.954116 
L 628.919233 -162.846062 
L 626.033168 -162.72808 
L 623.147103 -162.600982 
L 620.261037 -162.465369 
L 617.374972 -162.321625 
L 614.488907 -162.16993 
L 611.602841 -162.010262 
L 608.716776 -161.842409 
L 605.830711 -161.665989 
L 602.944645 -161.480463 
L 600.05858 -161.285161 
L 597.172515 -161.079305 
L 594.286449 -160.862034 
L 591.400384 -160.632432 
L 588.514319 -160.38956 
L 585.628253 -160.132486 
L 582.742188 -159.860312 
L 579.856123 -159.572207 
L 576.970057 -159.267435 
L 574.083992 -158.945385 
L 571.197927 -158.605594 
L 568.311861 -158.247772 
L 565.425796 -157.871824 
L 562.539731 -157.477866 
L 559.653665 -157.066242 
L 556.7676 -156.637532 
L 553.881535 -156.192559 
L 550.995469 -155.732394 
L 548.109404 -155.258352 
L 545.223339 -154.771985 
L 542.337273 -154.275075 
L 539.451208 -153.769619 
L 536.565143 -153.257807 
L 533.679077 -152.742008 
L 530.793012 -152.224735 
L 527.906947 -151.708626 
L 525.020881 -151.196409 
L 522.134816 -150.690868 
L 519.248751 -150.194811 
L 516.362686 -149.711034 
L 513.47662 -149.242285 
L 510.590555 -148.791227 
L 507.70449 -148.360404 
L 504.818424 -147.952205 
L 501.932359 -147.568832 
L 499.046294 -147.212269 
L 496.160228 -146.884254 
L 493.274163 -146.586255 
L 490.388098 -146.319447 
L 487.502032 -146.084695 
L 484.615967 -145.882541 
L 481.729902 -145.713194 
L 478.843836 -145.576527 
L 475.957771 -145.472074 
L 473.071706 -145.399037 
L 470.18564 -145.356298 
L 467.299575 -145.342425 
L 464.41351 -145.355701 
L 461.527444 -145.394137 
L 458.641379 -145.455505 
L 455.755314 -145.537364 
L 452.869248 -145.637096 
L 449.983183 -145.75194 
L 447.097118 -145.87903 
L 444.211052 -146.015435 
L 441.324987 -146.158201 
L 438.438922 -146.304388 
L 435.552856 -146.451116 
L 432.666791 -146.595602 
L 429.780726 -146.7352 
L 426.89466 -146.867438 
L 424.008595 -146.990052 
L 421.12253 -147.101022 
L 418.236464 -147.198593 
L 415.350399 -147.281307 
L 412.464334 -147.34802 
L 409.578268 -147.397917 
L 406.692203 -147.430525 
L 403.806138 -147.445722 
L 400.920072 -147.443734 
L 398.034007 -147.425132 
L 395.147942 -147.390826 
L 392.261876 -147.342052 
L 389.375811 -147.280351 
L 386.489746 -147.207547 
L 383.60368 -147.125724 
L 380.717615 -147.037193 
L 377.83155 -146.944459 
L 374.945484 -146.850188 
L 372.059419 -146.757164 
L 369.173354 -146.668253 
L 366.287289 -146.586361 
L 363.401223 -146.514394 
L 360.515158 -146.455214 
L 357.629093 -146.411601 
L 354.743027 -146.386214 
L 351.856962 -146.381551 
L 348.970897 -146.399918 
L 346.084831 -146.443393 
L 343.198766 -146.513798 
L 340.312701 -146.612675 
L 337.426635 -146.74126 
L 334.54057 -146.900472 
L 331.654505 -147.090891 
L 328.768439 -147.312756 
L 325.882374 -147.565953 
L 322.996309 -147.850022 
L 320.110243 -148.164152 
L 317.224178 -148.507194 
L 314.338113 -148.877671 
L 311.452047 -149.273789 
L 308.565982 -149.69346 
L 305.679917 -150.134318 
L 302.793851 -150.593744 
L 299.907786 -151.068893 
L 297.021721 -151.556717 
L 294.135655 -152.053996 
L 291.24959 -152.557365 
L 288.363525 -153.063348 
L 285.477459 -153.568383 
L 282.591394 -154.068854 
L 279.705329 -154.56112 
L 276.819263 -155.041546 
L 273.933198 -155.506525 
L 271.047133 -155.952512 
L 268.161067 -156.376042 
L 265.275002 -156.773758 
L 262.388937 -157.142431 
L 259.502871 -157.478982 
L 256.616806 -157.780498 
L 253.730741 -158.044252 
L 250.844675 -158.267715 
L 247.95861 -158.448571 
L 245.072545 -158.584728 
L 242.186479 -158.67433 
L 239.300414 -158.71576 
L 236.414349 -158.707653 
L 233.528283 -158.648897 
L 230.642218 -158.538638 
L 227.756153 -158.376283 
L 224.870088 -158.161502 
L 221.984022 -157.894223 
L 219.097957 -157.574636 
L 216.211892 -157.203188 
L 213.325826 -156.780575 
L 210.439761 -156.307742 
L 207.553696 -155.785874 
L 204.66763 -155.216388 
L 201.781565 -154.600922 
L 198.8955 -153.941326 
L 196.009434 -153.239651 
L 193.123369 -152.498134 
L 190.237304 -151.719185 
L 187.351238 -150.905372 
L 184.465173 -150.059402 
L 181.579108 -149.184109 
L 178.693042 -148.28243 
L 175.806977 -147.357391 
L 172.920912 -146.412084 
L 170.034846 -145.44965 
L 167.148781 -144.473259 
L 164.262716 -143.486086 
L 161.37665 -142.491296 
L 158.490585 -141.492021 
z
" style="stroke: #8db0fe"/>
    </defs>
    <g clip-path="url(#p6612069a3a)">
     <use xlink:href="#m01e2f250e3" x="0" y="212.255313" style="fill: #8db0fe; fill-opacity: 0.5; stroke: #8db0fe"/>
    </g>
   </g>
   <g id="matplotlib.axis_1">
    <g id="xtick_1">
     <g id="line2d_1">
      <defs>
       <path id="ma4f6c2b40b" d="M 0 0 
L 0 3.5 
" style="stroke: #000000; stroke-width: 0.8"/>
      </defs>
      <g>
       <use xlink:href="#ma4f6c2b40b" x="158.490585" y="95.78" style="stroke: #000000; stroke-width: 0.8"/>
      </g>
     </g>
    </g>
    <g id="xtick_2">
     <g id="line2d_2">
      <g>
       <use xlink:href="#ma4f6c2b40b" x="273.355985" y="95.78" style="stroke: #000000; stroke-width: 0.8"/>
      </g>
     </g>
    </g>
    <g id="xtick_3">
     <g id="line2d_3">
      <g>
       <use xlink:href="#ma4f6c2b40b" x="388.221385" y="95.78" style="stroke: #000000; stroke-width: 0.8"/>
      </g>
     </g>
    </g>
    <g id="xtick_4">
     <g id="line2d_4">
      <g>
       <use xlink:href="#ma4f6c2b40b" x="503.086785" y="95.78" style="stroke: #000000; stroke-width: 0.8"/>
      </g>
     </g>
    </g>
    <g id="xtick_5">
     <g id="line2d_5">
      <g>
       <use xlink:href="#ma4f6c2b40b" x="617.952185" y="95.78" style="stroke: #000000; stroke-width: 0.8"/>
      </g>
     </g>
    </g>
    <g id="xtick_6">
     <g id="line2d_6">
      <g>
       <use xlink:href="#ma4f6c2b40b" x="732.817585" y="95.78" style="stroke: #000000; stroke-width: 0.8"/>
      </g>
     </g>
    </g>
   </g>
   <g id="matplotlib.axis_2"/>
   <g id="line2d_7">
    <path d="M 158.490585 70.763291 
L 172.920912 65.843229 
L 181.579108 63.071204 
L 190.237304 60.536128 
L 198.8955 58.313987 
L 204.66763 57.038924 
L 210.439761 55.947571 
L 216.211892 55.052125 
L 221.984022 54.361089 
L 227.756153 53.879029 
L 233.528283 53.606416 
L 239.300414 53.539552 
L 245.072545 53.670584 
L 250.844675 53.987598 
L 256.616806 54.474815 
L 265.275002 55.481555 
L 273.933198 56.748787 
L 285.477459 58.68693 
L 305.679917 62.120995 
L 314.338113 63.377642 
L 322.996309 64.405291 
L 331.654505 65.164421 
L 340.312701 65.642638 
L 348.970897 65.855394 
L 357.629093 65.843711 
L 369.173354 65.58706 
L 395.147942 64.864486 
L 406.692203 64.824787 
L 418.236464 65.056719 
L 429.780726 65.520113 
L 455.755314 66.717949 
L 464.41351 66.899612 
L 473.071706 66.856275 
L 481.729902 66.542118 
L 490.388098 65.935866 
L 499.046294 65.043044 
L 507.70449 63.894908 
L 519.248751 62.060502 
L 559.653665 55.18907 
L 571.197927 53.649718 
L 582.742188 52.395001 
L 594.286449 51.393279 
L 608.716776 50.412904 
L 623.147103 49.65433 
L 637.577429 49.119159 
L 649.121691 48.931954 
L 657.779887 49.003816 
L 666.438082 49.320348 
L 675.096278 49.938218 
L 680.868409 50.542253 
L 686.64054 51.313445 
L 692.41267 52.259311 
L 698.184801 53.38314 
L 703.956932 54.683624 
L 709.729062 56.154704 
L 718.387258 58.656513 
L 727.045454 61.462831 
L 732.817585 63.467837 
L 732.817585 63.467837 
" clip-path="url(#p6612069a3a)" style="fill: none; stroke: #ffffff; stroke-width: 2; stroke-linecap: square"/>
   </g>
   <g id="line2d_8">
    <path d="M 158.490585 95.78 
L 732.817585 95.78 
" style="fill: none; stroke: #000000; stroke-linecap: square"/>
   </g>
   <g id="text_1">
    <g id="patch_3">
     <path d="M 8.120625 105.200937 
L 102.14625 105.200937 
L 102.14625 86.359062 
L 8.120625 86.359062 
z
" style="fill: #ffffff; opacity: 0.5"/>
    </g>
    <!-- Organic Shoppers -->
    <g transform="translate(12.080625 98.651562) scale(0.12 -0.12)">
     <defs>
      <path id="TimesNewRomanPSMT-4f" d="M 2341 4334 
Q 3166 4334 3770 3707 
Q 4375 3081 4375 2144 
Q 4375 1178 3765 540 
Q 3156 -97 2291 -97 
Q 1416 -97 820 525 
Q 225 1147 225 2134 
Q 225 3144 913 3781 
Q 1509 4334 2341 4334 
z
M 2281 4106 
Q 1713 4106 1369 3684 
Q 941 3159 941 2147 
Q 941 1109 1384 550 
Q 1725 125 2284 125 
Q 2881 125 3270 590 
Q 3659 1056 3659 2059 
Q 3659 3147 3231 3681 
Q 2888 4106 2281 4106 
z
" transform="scale(0.015625)"/>
      <path id="TimesNewRomanPSMT-72" d="M 1038 2947 
L 1038 2303 
Q 1397 2947 1775 2947 
Q 1947 2947 2059 2842 
Q 2172 2738 2172 2600 
Q 2172 2478 2090 2393 
Q 2009 2309 1897 2309 
Q 1788 2309 1652 2417 
Q 1516 2525 1450 2525 
Q 1394 2525 1328 2463 
Q 1188 2334 1038 2041 
L 1038 669 
Q 1038 431 1097 309 
Q 1138 225 1241 169 
Q 1344 113 1538 113 
L 1538 0 
L 72 0 
L 72 113 
Q 291 113 397 181 
Q 475 231 506 341 
Q 522 394 522 644 
L 522 1753 
Q 522 2253 501 2348 
Q 481 2444 426 2487 
Q 372 2531 291 2531 
Q 194 2531 72 2484 
L 41 2597 
L 906 2947 
L 1038 2947 
z
" transform="scale(0.015625)"/>
      <path id="TimesNewRomanPSMT-67" d="M 966 1044 
Q 703 1172 562 1401 
Q 422 1631 422 1909 
Q 422 2334 742 2640 
Q 1063 2947 1563 2947 
Q 1972 2947 2272 2747 
L 2878 2747 
Q 3013 2747 3034 2739 
Q 3056 2731 3066 2713 
Q 3084 2684 3084 2613 
Q 3084 2531 3069 2500 
Q 3059 2484 3036 2475 
Q 3013 2466 2878 2466 
L 2506 2466 
Q 2681 2241 2681 1891 
Q 2681 1491 2375 1206 
Q 2069 922 1553 922 
Q 1341 922 1119 984 
Q 981 866 932 777 
Q 884 688 884 625 
Q 884 572 936 522 
Q 988 472 1138 450 
Q 1225 438 1575 428 
Q 2219 413 2409 384 
Q 2700 344 2873 169 
Q 3047 -6 3047 -263 
Q 3047 -616 2716 -925 
Q 2228 -1381 1444 -1381 
Q 841 -1381 425 -1109 
Q 191 -953 191 -784 
Q 191 -709 225 -634 
Q 278 -519 444 -313 
Q 466 -284 763 25 
Q 600 122 533 198 
Q 466 275 466 372 
Q 466 481 555 628 
Q 644 775 966 1044 
z
M 1509 2797 
Q 1278 2797 1122 2612 
Q 966 2428 966 2047 
Q 966 1553 1178 1281 
Q 1341 1075 1591 1075 
Q 1828 1075 1981 1253 
Q 2134 1431 2134 1813 
Q 2134 2309 1919 2591 
Q 1759 2797 1509 2797 
z
M 934 0 
Q 788 -159 713 -296 
Q 638 -434 638 -550 
Q 638 -700 819 -813 
Q 1131 -1006 1722 -1006 
Q 2284 -1006 2551 -807 
Q 2819 -609 2819 -384 
Q 2819 -222 2659 -153 
Q 2497 -84 2016 -72 
Q 1313 -53 934 0 
z
" transform="scale(0.015625)"/>
      <path id="TimesNewRomanPSMT-61" d="M 1822 413 
Q 1381 72 1269 19 
Q 1100 -59 909 -59 
Q 613 -59 420 144 
Q 228 347 228 678 
Q 228 888 322 1041 
Q 450 1253 767 1440 
Q 1084 1628 1822 1897 
L 1822 2009 
Q 1822 2438 1686 2597 
Q 1550 2756 1291 2756 
Q 1094 2756 978 2650 
Q 859 2544 859 2406 
L 866 2225 
Q 866 2081 792 2003 
Q 719 1925 600 1925 
Q 484 1925 411 2006 
Q 338 2088 338 2228 
Q 338 2497 613 2722 
Q 888 2947 1384 2947 
Q 1766 2947 2009 2819 
Q 2194 2722 2281 2516 
Q 2338 2381 2338 1966 
L 2338 994 
Q 2338 584 2353 492 
Q 2369 400 2405 369 
Q 2441 338 2488 338 
Q 2538 338 2575 359 
Q 2641 400 2828 588 
L 2828 413 
Q 2478 -56 2159 -56 
Q 2006 -56 1915 50 
Q 1825 156 1822 413 
z
M 1822 616 
L 1822 1706 
Q 1350 1519 1213 1441 
Q 966 1303 859 1153 
Q 753 1003 753 825 
Q 753 600 887 451 
Q 1022 303 1197 303 
Q 1434 303 1822 616 
z
" transform="scale(0.015625)"/>
      <path id="TimesNewRomanPSMT-6e" d="M 1034 2341 
Q 1538 2947 1994 2947 
Q 2228 2947 2397 2830 
Q 2566 2713 2666 2444 
Q 2734 2256 2734 1869 
L 2734 647 
Q 2734 375 2778 278 
Q 2813 200 2889 156 
Q 2966 113 3172 113 
L 3172 0 
L 1756 0 
L 1756 113 
L 1816 113 
Q 2016 113 2095 173 
Q 2175 234 2206 353 
Q 2219 400 2219 647 
L 2219 1819 
Q 2219 2209 2117 2386 
Q 2016 2563 1775 2563 
Q 1403 2563 1034 2156 
L 1034 647 
Q 1034 356 1069 288 
Q 1113 197 1189 155 
Q 1266 113 1500 113 
L 1500 0 
L 84 0 
L 84 113 
L 147 113 
Q 366 113 442 223 
Q 519 334 519 647 
L 519 1709 
Q 519 2225 495 2337 
Q 472 2450 423 2490 
Q 375 2531 294 2531 
Q 206 2531 84 2484 
L 38 2597 
L 900 2947 
L 1034 2947 
L 1034 2341 
z
" transform="scale(0.015625)"/>
      <path id="TimesNewRomanPSMT-69" d="M 928 4444 
Q 1059 4444 1151 4351 
Q 1244 4259 1244 4128 
Q 1244 3997 1151 3903 
Q 1059 3809 928 3809 
Q 797 3809 703 3903 
Q 609 3997 609 4128 
Q 609 4259 701 4351 
Q 794 4444 928 4444 
z
M 1188 2947 
L 1188 647 
Q 1188 378 1227 289 
Q 1266 200 1342 156 
Q 1419 113 1622 113 
L 1622 0 
L 231 0 
L 231 113 
Q 441 113 512 153 
Q 584 194 626 287 
Q 669 381 669 647 
L 669 1750 
Q 669 2216 641 2353 
Q 619 2453 572 2492 
Q 525 2531 444 2531 
Q 356 2531 231 2484 
L 188 2597 
L 1050 2947 
L 1188 2947 
z
" transform="scale(0.015625)"/>
      <path id="TimesNewRomanPSMT-63" d="M 2631 1088 
Q 2516 522 2178 217 
Q 1841 -88 1431 -88 
Q 944 -88 581 321 
Q 219 731 219 1428 
Q 219 2103 620 2525 
Q 1022 2947 1584 2947 
Q 2006 2947 2278 2723 
Q 2550 2500 2550 2259 
Q 2550 2141 2473 2067 
Q 2397 1994 2259 1994 
Q 2075 1994 1981 2113 
Q 1928 2178 1911 2362 
Q 1894 2547 1784 2644 
Q 1675 2738 1481 2738 
Q 1169 2738 978 2506 
Q 725 2200 725 1697 
Q 725 1184 976 792 
Q 1228 400 1656 400 
Q 1963 400 2206 609 
Q 2378 753 2541 1131 
L 2631 1088 
z
" transform="scale(0.015625)"/>
      <path id="TimesNewRomanPSMT-20" transform="scale(0.015625)"/>
      <path id="TimesNewRomanPSMT-53" d="M 2934 4334 
L 2934 2869 
L 2819 2869 
Q 2763 3291 2617 3541 
Q 2472 3791 2203 3937 
Q 1934 4084 1647 4084 
Q 1322 4084 1109 3886 
Q 897 3688 897 3434 
Q 897 3241 1031 3081 
Q 1225 2847 1953 2456 
Q 2547 2138 2764 1967 
Q 2981 1797 3098 1565 
Q 3216 1334 3216 1081 
Q 3216 600 2842 251 
Q 2469 -97 1881 -97 
Q 1697 -97 1534 -69 
Q 1438 -53 1133 45 
Q 828 144 747 144 
Q 669 144 623 97 
Q 578 50 556 -97 
L 441 -97 
L 441 1356 
L 556 1356 
Q 638 900 775 673 
Q 913 447 1195 297 
Q 1478 147 1816 147 
Q 2206 147 2432 353 
Q 2659 559 2659 841 
Q 2659 997 2573 1156 
Q 2488 1316 2306 1453 
Q 2184 1547 1640 1851 
Q 1097 2156 867 2337 
Q 638 2519 519 2737 
Q 400 2956 400 3219 
Q 400 3675 750 4004 
Q 1100 4334 1641 4334 
Q 1978 4334 2356 4169 
Q 2531 4091 2603 4091 
Q 2684 4091 2736 4139 
Q 2788 4188 2819 4334 
L 2934 4334 
z
" transform="scale(0.015625)"/>
      <path id="TimesNewRomanPSMT-68" d="M 1041 4444 
L 1041 2350 
Q 1388 2731 1591 2839 
Q 1794 2947 1997 2947 
Q 2241 2947 2416 2812 
Q 2591 2678 2675 2391 
Q 2734 2191 2734 1659 
L 2734 647 
Q 2734 375 2778 275 
Q 2809 200 2884 156 
Q 2959 113 3159 113 
L 3159 0 
L 1753 0 
L 1753 113 
L 1819 113 
Q 2019 113 2097 173 
Q 2175 234 2206 353 
Q 2216 403 2216 647 
L 2216 1659 
Q 2216 2128 2167 2275 
Q 2119 2422 2012 2495 
Q 1906 2569 1756 2569 
Q 1603 2569 1437 2487 
Q 1272 2406 1041 2159 
L 1041 647 
Q 1041 353 1073 281 
Q 1106 209 1195 161 
Q 1284 113 1503 113 
L 1503 0 
L 84 0 
L 84 113 
Q 275 113 384 172 
Q 447 203 484 290 
Q 522 378 522 647 
L 522 3238 
Q 522 3728 498 3840 
Q 475 3953 426 3993 
Q 378 4034 297 4034 
Q 231 4034 84 3984 
L 41 4094 
L 897 4444 
L 1041 4444 
z
" transform="scale(0.015625)"/>
      <path id="TimesNewRomanPSMT-6f" d="M 1600 2947 
Q 2250 2947 2644 2453 
Q 2978 2031 2978 1484 
Q 2978 1100 2793 706 
Q 2609 313 2286 112 
Q 1963 -88 1566 -88 
Q 919 -88 538 428 
Q 216 863 216 1403 
Q 216 1797 411 2186 
Q 606 2575 925 2761 
Q 1244 2947 1600 2947 
z
M 1503 2744 
Q 1338 2744 1170 2645 
Q 1003 2547 900 2300 
Q 797 2053 797 1666 
Q 797 1041 1045 587 
Q 1294 134 1700 134 
Q 2003 134 2200 384 
Q 2397 634 2397 1244 
Q 2397 2006 2069 2444 
Q 1847 2744 1503 2744 
z
" transform="scale(0.015625)"/>
      <path id="TimesNewRomanPSMT-70" d="M -6 2578 
L 875 2934 
L 994 2934 
L 994 2266 
Q 1216 2644 1439 2795 
Q 1663 2947 1909 2947 
Q 2341 2947 2628 2609 
Q 2981 2197 2981 1534 
Q 2981 794 2556 309 
Q 2206 -88 1675 -88 
Q 1444 -88 1275 -22 
Q 1150 25 994 166 
L 994 -706 
Q 994 -1000 1030 -1079 
Q 1066 -1159 1155 -1206 
Q 1244 -1253 1478 -1253 
L 1478 -1369 
L -22 -1369 
L -22 -1253 
L 56 -1253 
Q 228 -1256 350 -1188 
Q 409 -1153 442 -1076 
Q 475 -1000 475 -688 
L 475 2019 
Q 475 2297 450 2372 
Q 425 2447 370 2484 
Q 316 2522 222 2522 
Q 147 2522 31 2478 
L -6 2578 
z
M 994 2081 
L 994 1013 
Q 994 666 1022 556 
Q 1066 375 1236 237 
Q 1406 100 1666 100 
Q 1978 100 2172 344 
Q 2425 663 2425 1241 
Q 2425 1897 2138 2250 
Q 1938 2494 1663 2494 
Q 1513 2494 1366 2419 
Q 1253 2363 994 2081 
z
" transform="scale(0.015625)"/>
      <path id="TimesNewRomanPSMT-65" d="M 681 1784 
Q 678 1147 991 784 
Q 1303 422 1725 422 
Q 2006 422 2214 576 
Q 2422 731 2563 1106 
L 2659 1044 
Q 2594 616 2278 264 
Q 1963 -88 1488 -88 
Q 972 -88 605 314 
Q 238 716 238 1394 
Q 238 2128 614 2539 
Q 991 2950 1559 2950 
Q 2041 2950 2350 2633 
Q 2659 2316 2659 1784 
L 681 1784 
z
M 681 1966 
L 2006 1966 
Q 1991 2241 1941 2353 
Q 1863 2528 1708 2628 
Q 1553 2728 1384 2728 
Q 1125 2728 920 2526 
Q 716 2325 681 1966 
z
" transform="scale(0.015625)"/>
      <path id="TimesNewRomanPSMT-73" d="M 2050 2947 
L 2050 1972 
L 1947 1972 
Q 1828 2431 1642 2597 
Q 1456 2763 1169 2763 
Q 950 2763 815 2647 
Q 681 2531 681 2391 
Q 681 2216 781 2091 
Q 878 1963 1175 1819 
L 1631 1597 
Q 2266 1288 2266 781 
Q 2266 391 1970 151 
Q 1675 -88 1309 -88 
Q 1047 -88 709 6 
Q 606 38 541 38 
Q 469 38 428 -44 
L 325 -44 
L 325 978 
L 428 978 
Q 516 541 762 319 
Q 1009 97 1316 97 
Q 1531 97 1667 223 
Q 1803 350 1803 528 
Q 1803 744 1651 891 
Q 1500 1038 1047 1263 
Q 594 1488 453 1669 
Q 313 1847 313 2119 
Q 313 2472 555 2709 
Q 797 2947 1181 2947 
Q 1350 2947 1591 2875 
Q 1750 2828 1803 2828 
Q 1853 2828 1881 2850 
Q 1909 2872 1947 2947 
L 2050 2947 
z
" transform="scale(0.015625)"/>
     </defs>
     <use xlink:href="#TimesNewRomanPSMT-4f"/>
     <use xlink:href="#TimesNewRomanPSMT-72" transform="translate(72.216797 0)"/>
     <use xlink:href="#TimesNewRomanPSMT-67" transform="translate(103.767578 0)"/>
     <use xlink:href="#TimesNewRomanPSMT-61" transform="translate(153.767578 0)"/>
     <use xlink:href="#TimesNewRomanPSMT-6e" transform="translate(198.152344 0)"/>
     <use xlink:href="#TimesNewRomanPSMT-69" transform="translate(248.152344 0)"/>
     <use xlink:href="#TimesNewRomanPSMT-63" transform="translate(275.935547 0)"/>
     <use xlink:href="#TimesNewRomanPSMT-20" transform="translate(320.320312 0)"/>
     <use xlink:href="#TimesNewRomanPSMT-53" transform="translate(345.320312 0)"/>
     <use xlink:href="#TimesNewRomanPSMT-68" transform="translate(400.935547 0)"/>
     <use xlink:href="#TimesNewRomanPSMT-6f" transform="translate(450.935547 0)"/>
     <use xlink:href="#TimesNewRomanPSMT-70" transform="translate(500.935547 0)"/>
     <use xlink:href="#TimesNewRomanPSMT-70" transform="translate(550.935547 0)"/>
     <use xlink:href="#TimesNewRomanPSMT-65" transform="translate(600.935547 0)"/>
     <use xlink:href="#TimesNewRomanPSMT-72" transform="translate(645.320312 0)"/>
     <use xlink:href="#TimesNewRomanPSMT-73" transform="translate(678.621094 0)"/>
    </g>
   </g>
  </g>
  <g id="axes_2">
   <g id="patch_4">
    <path d="M 158.490585 133.11 
L 732.817585 133.11 
L 732.817585 58.45 
L 158.490585 58.45 
L 158.490585 133.11 
z
" style="fill: none; opacity: 0"/>
   </g>
   <g id="FillBetweenPolyCollection_2">
    <defs>
     <path id="mf55eacbb51" d="M 158.490585 -104.061732 
L 158.490585 -79.145313 
L 161.37665 -79.145313 
L 164.262716 -79.145313 
L 167.148781 -79.145313 
L 170.034846 -79.145313 
L 172.920912 -79.145313 
L 175.806977 -79.145313 
L 178.693042 -79.145313 
L 181.579108 -79.145313 
L 184.465173 -79.145313 
L 187.351238 -79.145313 
L 190.237304 -79.145313 
L 193.123369 -79.145313 
L 196.009434 -79.145313 
L 198.8955 -79.145313 
L 201.781565 -79.145313 
L 204.66763 -79.145313 
L 207.553696 -79.145313 
L 210.439761 -79.145313 
L 213.325826 -79.145313 
L 216.211892 -79.145313 
L 219.097957 -79.145313 
L 221.984022 -79.145313 
L 224.870088 -79.145313 
L 227.756153 -79.145313 
L 230.642218 -79.145313 
L 233.528283 -79.145313 
L 236.414349 -79.145313 
L 239.300414 -79.145313 
L 242.186479 -79.145313 
L 245.072545 -79.145313 
L 247.95861 -79.145313 
L 250.844675 -79.145313 
L 253.730741 -79.145313 
L 256.616806 -79.145313 
L 259.502871 -79.145313 
L 262.388937 -79.145313 
L 265.275002 -79.145313 
L 268.161067 -79.145313 
L 271.047133 -79.145313 
L 273.933198 -79.145313 
L 276.819263 -79.145313 
L 279.705329 -79.145313 
L 282.591394 -79.145313 
L 285.477459 -79.145313 
L 288.363525 -79.145313 
L 291.24959 -79.145313 
L 294.135655 -79.145313 
L 297.021721 -79.145313 
L 299.907786 -79.145313 
L 302.793851 -79.145313 
L 305.679917 -79.145313 
L 308.565982 -79.145313 
L 311.452047 -79.145313 
L 314.338113 -79.145313 
L 317.224178 -79.145313 
L 320.110243 -79.145313 
L 322.996309 -79.145313 
L 325.882374 -79.145313 
L 328.768439 -79.145313 
L 331.654505 -79.145313 
L 334.54057 -79.145313 
L 337.426635 -79.145313 
L 340.312701 -79.145313 
L 343.198766 -79.145313 
L 346.084831 -79.145313 
L 348.970897 -79.145313 
L 351.856962 -79.145313 
L 354.743027 -79.145313 
L 357.629093 -79.145313 
L 360.515158 -79.145313 
L 363.401223 -79.145313 
L 366.287289 -79.145313 
L 369.173354 -79.145313 
L 372.059419 -79.145313 
L 374.945484 -79.145313 
L 377.83155 -79.145313 
L 380.717615 -79.145313 
L 383.60368 -79.145313 
L 386.489746 -79.145313 
L 389.375811 -79.145313 
L 392.261876 -79.145313 
L 395.147942 -79.145313 
L 398.034007 -79.145313 
L 400.920072 -79.145313 
L 403.806138 -79.145313 
L 406.692203 -79.145313 
L 409.578268 -79.145313 
L 412.464334 -79.145313 
L 415.350399 -79.145313 
L 418.236464 -79.145313 
L 421.12253 -79.145313 
L 424.008595 -79.145313 
L 426.89466 -79.145313 
L 429.780726 -79.145313 
L 432.666791 -79.145313 
L 435.552856 -79.145313 
L 438.438922 -79.145313 
L 441.324987 -79.145313 
L 444.211052 -79.145313 
L 447.097118 -79.145313 
L 449.983183 -79.145313 
L 452.869248 -79.145313 
L 455.755314 -79.145313 
L 458.641379 -79.145313 
L 461.527444 -79.145313 
L 464.41351 -79.145313 
L 467.299575 -79.145313 
L 470.18564 -79.145313 
L 473.071706 -79.145313 
L 475.957771 -79.145313 
L 478.843836 -79.145313 
L 481.729902 -79.145313 
L 484.615967 -79.145313 
L 487.502032 -79.145313 
L 490.388098 -79.145313 
L 493.274163 -79.145313 
L 496.160228 -79.145313 
L 499.046294 -79.145313 
L 501.932359 -79.145313 
L 504.818424 -79.145313 
L 507.70449 -79.145313 
L 510.590555 -79.145313 
L 513.47662 -79.145313 
L 516.362686 -79.145313 
L 519.248751 -79.145313 
L 522.134816 -79.145313 
L 525.020881 -79.145313 
L 527.906947 -79.145313 
L 530.793012 -79.145313 
L 533.679077 -79.145313 
L 536.565143 -79.145313 
L 539.451208 -79.145313 
L 542.337273 -79.145313 
L 545.223339 -79.145313 
L 548.109404 -79.145313 
L 550.995469 -79.145313 
L 553.881535 -79.145313 
L 556.7676 -79.145313 
L 559.653665 -79.145313 
L 562.539731 -79.145313 
L 565.425796 -79.145313 
L 568.311861 -79.145313 
L 571.197927 -79.145313 
L 574.083992 -79.145313 
L 576.970057 -79.145313 
L 579.856123 -79.145313 
L 582.742188 -79.145313 
L 585.628253 -79.145313 
L 588.514319 -79.145313 
L 591.400384 -79.145313 
L 594.286449 -79.145313 
L 597.172515 -79.145313 
L 600.05858 -79.145313 
L 602.944645 -79.145313 
L 605.830711 -79.145313 
L 608.716776 -79.145313 
L 611.602841 -79.145313 
L 614.488907 -79.145313 
L 617.374972 -79.145313 
L 620.261037 -79.145313 
L 623.147103 -79.145313 
L 626.033168 -79.145313 
L 628.919233 -79.145313 
L 631.805299 -79.145313 
L 634.691364 -79.145313 
L 637.577429 -79.145313 
L 640.463495 -79.145313 
L 643.34956 -79.145313 
L 646.235625 -79.145313 
L 649.121691 -79.145313 
L 652.007756 -79.145313 
L 654.893821 -79.145313 
L 657.779887 -79.145313 
L 660.665952 -79.145313 
L 663.552017 -79.145313 
L 666.438082 -79.145313 
L 669.324148 -79.145313 
L 672.210213 -79.145313 
L 675.096278 -79.145313 
L 677.982344 -79.145313 
L 680.868409 -79.145313 
L 683.754474 -79.145313 
L 686.64054 -79.145313 
L 689.526605 -79.145313 
L 692.41267 -79.145313 
L 695.298736 -79.145313 
L 698.184801 -79.145313 
L 701.070866 -79.145313 
L 703.956932 -79.145313 
L 706.842997 -79.145313 
L 709.729062 -79.145313 
L 712.615128 -79.145313 
L 715.501193 -79.145313 
L 718.387258 -79.145313 
L 721.273324 -79.145313 
L 724.159389 -79.145313 
L 727.045454 -79.145313 
L 729.93152 -79.145313 
L 732.817585 -79.145313 
L 732.817585 -113.081719 
L 732.817585 -113.081719 
L 729.93152 -114.168787 
L 727.045454 -115.230624 
L 724.159389 -116.26354 
L 721.273324 -117.263966 
L 718.387258 -118.228485 
L 715.501193 -119.153858 
L 712.615128 -120.037052 
L 709.729062 -120.875259 
L 706.842997 -121.665923 
L 703.956932 -122.406757 
L 701.070866 -123.095761 
L 698.184801 -123.731232 
L 695.298736 -124.311783 
L 692.41267 -124.836342 
L 689.526605 -125.304163 
L 686.64054 -125.714823 
L 683.754474 -126.068226 
L 680.868409 -126.364591 
L 677.982344 -126.604451 
L 675.096278 -126.788636 
L 672.210213 -126.918265 
L 669.324148 -126.994729 
L 666.438082 -127.019667 
L 663.552017 -126.994955 
L 660.665952 -126.922677 
L 657.779887 -126.805104 
L 654.893821 -126.644673 
L 652.007756 -126.443954 
L 649.121691 -126.205633 
L 646.235625 -125.932481 
L 643.34956 -125.62733 
L 640.463495 -125.293049 
L 637.577429 -124.932518 
L 634.691364 -124.548606 
L 631.805299 -124.144148 
L 628.919233 -123.721926 
L 626.033168 -123.284649 
L 623.147103 -122.834937 
L 620.261037 -122.375303 
L 617.374972 -121.908144 
L 614.488907 -121.435725 
L 611.602841 -120.960176 
L 608.716776 -120.483478 
L 605.830711 -120.007465 
L 602.944645 -119.533814 
L 600.05858 -119.064049 
L 597.172515 -118.599542 
L 594.286449 -118.141512 
L 591.400384 -117.691029 
L 588.514319 -117.249026 
L 585.628253 -116.816296 
L 582.742188 -116.393508 
L 579.856123 -115.981213 
L 576.970057 -115.579851 
L 574.083992 -115.189764 
L 571.197927 -114.811207 
L 568.311861 -114.444356 
L 565.425796 -114.089321 
L 562.539731 -113.746155 
L 559.653665 -113.414867 
L 556.7676 -113.095428 
L 553.881535 -112.787783 
L 550.995469 -112.49186 
L 548.109404 -112.207574 
L 545.223339 -111.93484 
L 542.337273 -111.673572 
L 539.451208 -111.423694 
L 536.565143 -111.185139 
L 533.679077 -110.957854 
L 530.793012 -110.741803 
L 527.906947 -110.536963 
L 525.020881 -110.343327 
L 522.134816 -110.160901 
L 519.248751 -109.989702 
L 516.362686 -109.829753 
L 513.47662 -109.681083 
L 510.590555 -109.543716 
L 507.70449 -109.41767 
L 504.818424 -109.302952 
L 501.932359 -109.19955 
L 499.046294 -109.107425 
L 496.160228 -109.026512 
L 493.274163 -108.95671 
L 490.388098 -108.897874 
L 487.502032 -108.849819 
L 484.615967 -108.812306 
L 481.729902 -108.78505 
L 478.843836 -108.767706 
L 475.957771 -108.759878 
L 473.071706 -108.761112 
L 470.18564 -108.770902 
L 467.299575 -108.788688 
L 464.41351 -108.81386 
L 461.527444 -108.845767 
L 458.641379 -108.883716 
L 455.755314 -108.92698 
L 452.869248 -108.97481 
L 449.983183 -109.026439 
L 447.097118 -109.081089 
L 444.211052 -109.137987 
L 441.324987 -109.19637 
L 438.438922 -109.255498 
L 435.552856 -109.314663 
L 432.666791 -109.3732 
L 429.780726 -109.430499 
L 426.89466 -109.486014 
L 424.008595 -109.539271 
L 421.12253 -109.58988 
L 418.236464 -109.637543 
L 415.350399 -109.682059 
L 412.464334 -109.723333 
L 409.578268 -109.76138 
L 406.692203 -109.796329 
L 403.806138 -109.828427 
L 400.920072 -109.858036 
L 398.034007 -109.885639 
L 395.147942 -109.911835 
L 392.261876 -109.937335 
L 389.375811 -109.962958 
L 386.489746 -109.989628 
L 383.60368 -110.018359 
L 380.717615 -110.050255 
L 377.83155 -110.086491 
L 374.945484 -110.128307 
L 372.059419 -110.176993 
L 369.173354 -110.233876 
L 366.287289 -110.300303 
L 363.401223 -110.377626 
L 360.515158 -110.467187 
L 357.629093 -110.570301 
L 354.743027 -110.688234 
L 351.856962 -110.822192 
L 348.970897 -110.973299 
L 346.084831 -111.142581 
L 343.198766 -111.33095 
L 340.312701 -111.539183 
L 337.426635 -111.767913 
L 334.54057 -112.017607 
L 331.654505 -112.288558 
L 328.768439 -112.580868 
L 325.882374 -112.894439 
L 322.996309 -113.228964 
L 320.110243 -113.583915 
L 317.224178 -113.958544 
L 314.338113 -114.351872 
L 311.452047 -114.762692 
L 308.565982 -115.189564 
L 305.679917 -115.630825 
L 302.793851 -116.084587 
L 299.907786 -116.548746 
L 297.021721 -117.020994 
L 294.135655 -117.498828 
L 291.24959 -117.979562 
L 288.363525 -118.46035 
L 285.477459 -118.938196 
L 282.591394 -119.409979 
L 279.705329 -119.872473 
L 276.819263 -120.322371 
L 273.933198 -120.756309 
L 271.047133 -121.170893 
L 268.161067 -121.562722 
L 265.275002 -121.928423 
L 262.388937 -122.26467 
L 259.502871 -122.568219 
L 256.616806 -122.83593 
L 253.730741 -123.064801 
L 250.844675 -123.251986 
L 247.95861 -123.394828 
L 245.072545 -123.49088 
L 242.186479 -123.537927 
L 239.300414 -123.534007 
L 236.414349 -123.47743 
L 233.528283 -123.366795 
L 230.642218 -123.201003 
L 227.756153 -122.979265 
L 224.870088 -122.701116 
L 221.984022 -122.366417 
L 219.097957 -121.975356 
L 216.211892 -121.528452 
L 213.325826 -121.026545 
L 210.439761 -120.470795 
L 207.553696 -119.862669 
L 204.66763 -119.203933 
L 201.781565 -118.49663 
L 198.8955 -117.74307 
L 196.009434 -116.945806 
L 193.123369 -116.107614 
L 190.237304 -115.23147 
L 187.351238 -114.320525 
L 184.465173 -113.378078 
L 181.579108 -112.40755 
L 178.693042 -111.412459 
L 175.806977 -110.396389 
L 172.920912 -109.362963 
L 170.034846 -108.315816 
L 167.148781 -107.258572 
L 164.262716 -106.194813 
L 161.37665 -105.128056 
L 158.490585 -104.061732 
z
" style="stroke: #dddcdc"/>
    </defs>
    <g clip-path="url(#p14f3604a62)">
     <use xlink:href="#mf55eacbb51" x="0" y="212.255313" style="fill: #dddcdc; fill-opacity: 0.5; stroke: #dddcdc"/>
    </g>
   </g>
   <g id="matplotlib.axis_3">
    <g id="xtick_7">
     <g id="line2d_9">
      <g>
       <use xlink:href="#ma4f6c2b40b" x="158.490585" y="133.11" style="stroke: #000000; stroke-width: 0.8"/>
      </g>
     </g>
    </g>
    <g id="xtick_8">
     <g id="line2d_10">
      <g>
       <use xlink:href="#ma4f6c2b40b" x="273.355985" y="133.11" style="stroke: #000000; stroke-width: 0.8"/>
      </g>
     </g>
    </g>
    <g id="xtick_9">
     <g id="line2d_11">
      <g>
       <use xlink:href="#ma4f6c2b40b" x="388.221385" y="133.11" style="stroke: #000000; stroke-width: 0.8"/>
      </g>
     </g>
    </g>
    <g id="xtick_10">
     <g id="line2d_12">
      <g>
       <use xlink:href="#ma4f6c2b40b" x="503.086785" y="133.11" style="stroke: #000000; stroke-width: 0.8"/>
      </g>
     </g>
    </g>
    <g id="xtick_11">
     <g id="line2d_13">
      <g>
       <use xlink:href="#ma4f6c2b40b" x="617.952185" y="133.11" style="stroke: #000000; stroke-width: 0.8"/>
      </g>
     </g>
    </g>
    <g id="xtick_12">
     <g id="line2d_14">
      <g>
       <use xlink:href="#ma4f6c2b40b" x="732.817585" y="133.11" style="stroke: #000000; stroke-width: 0.8"/>
      </g>
     </g>
    </g>
   </g>
   <g id="matplotlib.axis_4"/>
   <g id="line2d_15">
    <path d="M 158.490585 108.193581 
L 178.693042 100.842853 
L 187.351238 97.934788 
L 196.009434 95.309507 
L 201.781565 93.758682 
L 207.553696 92.392643 
L 213.325826 91.228768 
L 219.097957 90.279956 
L 224.870088 89.554196 
L 230.642218 89.05431 
L 236.414349 88.777882 
L 242.186479 88.717386 
L 247.95861 88.860484 
L 253.730741 89.190512 
L 259.502871 89.687094 
L 268.161067 90.69259 
L 276.819263 91.932941 
L 291.24959 94.27575 
L 308.565982 97.065748 
L 320.110243 98.671397 
L 328.768439 99.674444 
L 337.426635 100.487399 
L 346.084831 101.112731 
L 357.629093 101.685012 
L 369.173354 102.021436 
L 386.489746 102.265685 
L 424.008595 102.716042 
L 470.18564 103.484411 
L 484.615967 103.443006 
L 499.046294 103.147887 
L 510.590555 102.711597 
L 522.134816 102.094412 
L 533.679077 101.297458 
L 545.223339 100.320473 
L 556.7676 99.159885 
L 568.311861 97.810957 
L 579.856123 96.274099 
L 594.286449 94.113801 
L 620.261037 89.88001 
L 631.805299 88.111165 
L 640.463495 86.962263 
L 649.121691 86.049679 
L 654.893821 85.61064 
L 660.665952 85.332636 
L 666.438082 85.235645 
L 672.210213 85.337047 
L 677.982344 85.650862 
L 683.754474 86.187087 
L 689.526605 86.95115 
L 695.298736 87.943529 
L 701.070866 89.159552 
L 706.842997 90.589389 
L 712.615128 92.218261 
L 718.387258 94.026828 
L 727.045454 97.024688 
L 732.817585 99.173594 
L 732.817585 99.173594 
" clip-path="url(#p14f3604a62)" style="fill: none; stroke: #ffffff; stroke-width: 2; stroke-linecap: square"/>
   </g>
   <g id="line2d_16">
    <path d="M 158.490585 133.11 
L 732.817585 133.11 
" style="fill: none; stroke: #000000; stroke-linecap: square"/>
   </g>
   <g id="text_2">
    <g id="patch_5">
     <path d="M 11.895 142.530938 
L 102.14625 142.530938 
L 102.14625 123.689063 
L 11.895 123.689063 
z
" style="fill: #ffffff; opacity: 0.5"/>
    </g>
    <!-- Budget Shoppers -->
    <g transform="translate(15.855 135.981562) scale(0.12 -0.12)">
     <defs>
      <path id="TimesNewRomanPSMT-42" d="M 2956 2163 
Q 3397 2069 3616 1863 
Q 3919 1575 3919 1159 
Q 3919 844 3719 555 
Q 3519 266 3170 133 
Q 2822 0 2106 0 
L 106 0 
L 106 116 
L 266 116 
Q 531 116 647 284 
Q 719 394 719 750 
L 719 3488 
Q 719 3881 628 3984 
Q 506 4122 266 4122 
L 106 4122 
L 106 4238 
L 1938 4238 
Q 2450 4238 2759 4163 
Q 3228 4050 3475 3764 
Q 3722 3478 3722 3106 
Q 3722 2788 3528 2536 
Q 3334 2284 2956 2163 
z
M 1319 2331 
Q 1434 2309 1582 2298 
Q 1731 2288 1909 2288 
Q 2366 2288 2595 2386 
Q 2825 2484 2947 2687 
Q 3069 2891 3069 3131 
Q 3069 3503 2766 3765 
Q 2463 4028 1881 4028 
Q 1569 4028 1319 3959 
L 1319 2331 
z
M 1319 306 
Q 1681 222 2034 222 
Q 2600 222 2897 476 
Q 3194 731 3194 1106 
Q 3194 1353 3059 1581 
Q 2925 1809 2622 1940 
Q 2319 2072 1872 2072 
Q 1678 2072 1540 2065 
Q 1403 2059 1319 2044 
L 1319 306 
z
" transform="scale(0.015625)"/>
      <path id="TimesNewRomanPSMT-75" d="M 2709 2863 
L 2709 1128 
Q 2709 631 2732 520 
Q 2756 409 2807 365 
Q 2859 322 2928 322 
Q 3025 322 3147 375 
L 3191 266 
L 2334 -88 
L 2194 -88 
L 2194 519 
Q 1825 119 1631 15 
Q 1438 -88 1222 -88 
Q 981 -88 804 51 
Q 628 191 559 409 
Q 491 628 491 1028 
L 491 2306 
Q 491 2509 447 2587 
Q 403 2666 317 2708 
Q 231 2750 6 2747 
L 6 2863 
L 1009 2863 
L 1009 947 
Q 1009 547 1148 422 
Q 1288 297 1484 297 
Q 1619 297 1789 381 
Q 1959 466 2194 703 
L 2194 2325 
Q 2194 2569 2105 2655 
Q 2016 2741 1734 2747 
L 1734 2863 
L 2709 2863 
z
" transform="scale(0.015625)"/>
      <path id="TimesNewRomanPSMT-64" d="M 2222 322 
Q 2013 103 1813 7 
Q 1613 -88 1381 -88 
Q 913 -88 563 304 
Q 213 697 213 1313 
Q 213 1928 600 2439 
Q 988 2950 1597 2950 
Q 1975 2950 2222 2709 
L 2222 3238 
Q 2222 3728 2198 3840 
Q 2175 3953 2125 3993 
Q 2075 4034 2000 4034 
Q 1919 4034 1784 3984 
L 1744 4094 
L 2597 4444 
L 2738 4444 
L 2738 1134 
Q 2738 631 2761 520 
Q 2784 409 2836 365 
Q 2888 322 2956 322 
Q 3041 322 3181 375 
L 3216 266 
L 2366 -88 
L 2222 -88 
L 2222 322 
z
M 2222 541 
L 2222 2016 
Q 2203 2228 2109 2403 
Q 2016 2578 1861 2667 
Q 1706 2756 1559 2756 
Q 1284 2756 1069 2509 
Q 784 2184 784 1559 
Q 784 928 1059 592 
Q 1334 256 1672 256 
Q 1956 256 2222 541 
z
" transform="scale(0.015625)"/>
      <path id="TimesNewRomanPSMT-74" d="M 1031 3803 
L 1031 2863 
L 1700 2863 
L 1700 2644 
L 1031 2644 
L 1031 788 
Q 1031 509 1111 412 
Q 1191 316 1316 316 
Q 1419 316 1516 380 
Q 1613 444 1666 569 
L 1788 569 
Q 1678 263 1478 108 
Q 1278 -47 1066 -47 
Q 922 -47 784 33 
Q 647 113 581 261 
Q 516 409 516 719 
L 516 2644 
L 63 2644 
L 63 2747 
Q 234 2816 414 2980 
Q 594 3144 734 3369 
Q 806 3488 934 3803 
L 1031 3803 
z
" transform="scale(0.015625)"/>
     </defs>
     <use xlink:href="#TimesNewRomanPSMT-42"/>
     <use xlink:href="#TimesNewRomanPSMT-75" transform="translate(66.699219 0)"/>
     <use xlink:href="#TimesNewRomanPSMT-64" transform="translate(116.699219 0)"/>
     <use xlink:href="#TimesNewRomanPSMT-67" transform="translate(166.699219 0)"/>
     <use xlink:href="#TimesNewRomanPSMT-65" transform="translate(216.699219 0)"/>
     <use xlink:href="#TimesNewRomanPSMT-74" transform="translate(261.083984 0)"/>
     <use xlink:href="#TimesNewRomanPSMT-20" transform="translate(288.867188 0)"/>
     <use xlink:href="#TimesNewRomanPSMT-53" transform="translate(313.867188 0)"/>
     <use xlink:href="#TimesNewRomanPSMT-68" transform="translate(369.482422 0)"/>
     <use xlink:href="#TimesNewRomanPSMT-6f" transform="translate(419.482422 0)"/>
     <use xlink:href="#TimesNewRomanPSMT-70" transform="translate(469.482422 0)"/>
     <use xlink:href="#TimesNewRomanPSMT-70" transform="translate(519.482422 0)"/>
     <use xlink:href="#TimesNewRomanPSMT-65" transform="translate(569.482422 0)"/>
     <use xlink:href="#TimesNewRomanPSMT-72" transform="translate(613.867188 0)"/>
     <use xlink:href="#TimesNewRomanPSMT-73" transform="translate(647.167969 0)"/>
    </g>
   </g>
  </g>
  <g id="axes_3">
   <g id="patch_6">
    <path d="M 158.490585 170.44 
L 732.817585 170.44 
L 732.817585 95.78 
L 158.490585 95.78 
L 158.490585 170.44 
z
" style="fill: none; opacity: 0"/>
   </g>
   <g id="FillBetweenPolyCollection_3">
    <defs>
     <path id="m81129b3e04" d="M 158.490585 -59.773286 
L 158.490585 -41.815313 
L 161.37665 -41.815313 
L 164.262716 -41.815313 
L 167.148781 -41.815313 
L 170.034846 -41.815313 
L 172.920912 -41.815313 
L 175.806977 -41.815313 
L 178.693042 -41.815313 
L 181.579108 -41.815313 
L 184.465173 -41.815313 
L 187.351238 -41.815313 
L 190.237304 -41.815313 
L 193.123369 -41.815313 
L 196.009434 -41.815313 
L 198.8955 -41.815313 
L 201.781565 -41.815313 
L 204.66763 -41.815313 
L 207.553696 -41.815313 
L 210.439761 -41.815313 
L 213.325826 -41.815313 
L 216.211892 -41.815313 
L 219.097957 -41.815313 
L 221.984022 -41.815313 
L 224.870088 -41.815313 
L 227.756153 -41.815313 
L 230.642218 -41.815313 
L 233.528283 -41.815313 
L 236.414349 -41.815313 
L 239.300414 -41.815313 
L 242.186479 -41.815313 
L 245.072545 -41.815313 
L 247.95861 -41.815313 
L 250.844675 -41.815313 
L 253.730741 -41.815313 
L 256.616806 -41.815313 
L 259.502871 -41.815313 
L 262.388937 -41.815313 
L 265.275002 -41.815313 
L 268.161067 -41.815313 
L 271.047133 -41.815313 
L 273.933198 -41.815313 
L 276.819263 -41.815313 
L 279.705329 -41.815313 
L 282.591394 -41.815313 
L 285.477459 -41.815313 
L 288.363525 -41.815313 
L 291.24959 -41.815313 
L 294.135655 -41.815313 
L 297.021721 -41.815313 
L 299.907786 -41.815313 
L 302.793851 -41.815313 
L 305.679917 -41.815313 
L 308.565982 -41.815313 
L 311.452047 -41.815313 
L 314.338113 -41.815313 
L 317.224178 -41.815313 
L 320.110243 -41.815313 
L 322.996309 -41.815313 
L 325.882374 -41.815313 
L 328.768439 -41.815313 
L 331.654505 -41.815313 
L 334.54057 -41.815313 
L 337.426635 -41.815313 
L 340.312701 -41.815313 
L 343.198766 -41.815313 
L 346.084831 -41.815313 
L 348.970897 -41.815313 
L 351.856962 -41.815313 
L 354.743027 -41.815313 
L 357.629093 -41.815313 
L 360.515158 -41.815313 
L 363.401223 -41.815313 
L 366.287289 -41.815313 
L 369.173354 -41.815313 
L 372.059419 -41.815313 
L 374.945484 -41.815313 
L 377.83155 -41.815313 
L 380.717615 -41.815313 
L 383.60368 -41.815313 
L 386.489746 -41.815313 
L 389.375811 -41.815313 
L 392.261876 -41.815313 
L 395.147942 -41.815313 
L 398.034007 -41.815313 
L 400.920072 -41.815313 
L 403.806138 -41.815313 
L 406.692203 -41.815313 
L 409.578268 -41.815313 
L 412.464334 -41.815313 
L 415.350399 -41.815313 
L 418.236464 -41.815313 
L 421.12253 -41.815313 
L 424.008595 -41.815313 
L 426.89466 -41.815313 
L 429.780726 -41.815313 
L 432.666791 -41.815313 
L 435.552856 -41.815313 
L 438.438922 -41.815313 
L 441.324987 -41.815313 
L 444.211052 -41.815313 
L 447.097118 -41.815313 
L 449.983183 -41.815313 
L 452.869248 -41.815313 
L 455.755314 -41.815313 
L 458.641379 -41.815313 
L 461.527444 -41.815313 
L 464.41351 -41.815313 
L 467.299575 -41.815313 
L 470.18564 -41.815313 
L 473.071706 -41.815313 
L 475.957771 -41.815313 
L 478.843836 -41.815313 
L 481.729902 -41.815313 
L 484.615967 -41.815313 
L 487.502032 -41.815313 
L 490.388098 -41.815313 
L 493.274163 -41.815313 
L 496.160228 -41.815313 
L 499.046294 -41.815313 
L 501.932359 -41.815313 
L 504.818424 -41.815313 
L 507.70449 -41.815313 
L 510.590555 -41.815313 
L 513.47662 -41.815313 
L 516.362686 -41.815313 
L 519.248751 -41.815313 
L 522.134816 -41.815313 
L 525.020881 -41.815313 
L 527.906947 -41.815313 
L 530.793012 -41.815313 
L 533.679077 -41.815313 
L 536.565143 -41.815313 
L 539.451208 -41.815313 
L 542.337273 -41.815313 
L 545.223339 -41.815313 
L 548.109404 -41.815313 
L 550.995469 -41.815313 
L 553.881535 -41.815313 
L 556.7676 -41.815313 
L 559.653665 -41.815313 
L 562.539731 -41.815313 
L 565.425796 -41.815313 
L 568.311861 -41.815313 
L 571.197927 -41.815313 
L 574.083992 -41.815313 
L 576.970057 -41.815313 
L 579.856123 -41.815313 
L 582.742188 -41.815313 
L 585.628253 -41.815313 
L 588.514319 -41.815313 
L 591.400384 -41.815313 
L 594.286449 -41.815313 
L 597.172515 -41.815313 
L 600.05858 -41.815313 
L 602.944645 -41.815313 
L 605.830711 -41.815313 
L 608.716776 -41.815313 
L 611.602841 -41.815313 
L 614.488907 -41.815313 
L 617.374972 -41.815313 
L 620.261037 -41.815313 
L 623.147103 -41.815313 
L 626.033168 -41.815313 
L 628.919233 -41.815313 
L 631.805299 -41.815313 
L 634.691364 -41.815313 
L 637.577429 -41.815313 
L 640.463495 -41.815313 
L 643.34956 -41.815313 
L 646.235625 -41.815313 
L 649.121691 -41.815313 
L 652.007756 -41.815313 
L 654.893821 -41.815313 
L 657.779887 -41.815313 
L 660.665952 -41.815313 
L 663.552017 -41.815313 
L 666.438082 -41.815313 
L 669.324148 -41.815313 
L 672.210213 -41.815313 
L 675.096278 -41.815313 
L 677.982344 -41.815313 
L 680.868409 -41.815313 
L 683.754474 -41.815313 
L 686.64054 -41.815313 
L 689.526605 -41.815313 
L 692.41267 -41.815313 
L 695.298736 -41.815313 
L 698.184801 -41.815313 
L 701.070866 -41.815313 
L 703.956932 -41.815313 
L 706.842997 -41.815313 
L 709.729062 -41.815313 
L 712.615128 -41.815313 
L 715.501193 -41.815313 
L 718.387258 -41.815313 
L 721.273324 -41.815313 
L 724.159389 -41.815313 
L 727.045454 -41.815313 
L 729.93152 -41.815313 
L 732.817585 -41.815313 
L 732.817585 -63.220414 
L 732.817585 -63.220414 
L 729.93152 -63.697906 
L 727.045454 -64.140805 
L 724.159389 -64.54807 
L 721.273324 -64.918974 
L 718.387258 -65.253092 
L 715.501193 -65.550295 
L 712.615128 -65.810728 
L 709.729062 -66.034786 
L 706.842997 -66.223097 
L 703.956932 -66.376481 
L 701.070866 -66.495932 
L 698.184801 -66.582575 
L 695.298736 -66.637643 
L 692.41267 -66.66244 
L 689.526605 -66.658315 
L 686.64054 -66.626634 
L 683.754474 -66.568754 
L 680.868409 -66.486007 
L 677.982344 -66.379682 
L 675.096278 -66.251012 
L 672.210213 -66.101171 
L 669.324148 -65.931267 
L 666.438082 -65.742347 
L 663.552017 -65.535403 
L 660.665952 -65.311379 
L 657.779887 -65.071187 
L 654.893821 -64.81572 
L 652.007756 -64.545868 
L 649.121691 -64.262535 
L 646.235625 -63.966659 
L 643.34956 -63.659228 
L 640.463495 -63.341293 
L 637.577429 -63.013987 
L 634.691364 -62.678529 
L 631.805299 -62.336241 
L 628.919233 -61.988546 
L 626.033168 -61.636973 
L 623.147103 -61.283159 
L 620.261037 -60.928836 
L 617.374972 -60.57583 
L 614.488907 -60.226047 
L 611.602841 -59.881462 
L 608.716776 -59.544099 
L 605.830711 -59.216017 
L 602.944645 -58.899293 
L 600.05858 -58.596 
L 597.172515 -58.308188 
L 594.286449 -58.037872 
L 591.400384 -57.787005 
L 588.514319 -57.557471 
L 585.628253 -57.351068 
L 582.742188 -57.169496 
L 579.856123 -57.014347 
L 576.970057 -56.8871 
L 574.083992 -56.789118 
L 571.197927 -56.72164 
L 568.311861 -56.685789 
L 565.425796 -56.68257 
L 562.539731 -56.712874 
L 559.653665 -56.777486 
L 556.7676 -56.877088 
L 553.881535 -57.012272 
L 550.995469 -57.183539 
L 548.109404 -57.391313 
L 545.223339 -57.635945 
L 542.337273 -57.917718 
L 539.451208 -58.236849 
L 536.565143 -58.593496 
L 533.679077 -58.987756 
L 530.793012 -59.419661 
L 527.906947 -59.889178 
L 525.020881 -60.396203 
L 522.134816 -60.940552 
L 519.248751 -61.521954 
L 516.362686 -62.140038 
L 513.47662 -62.794328 
L 510.590555 -63.484222 
L 507.70449 -64.208989 
L 504.818424 -64.967752 
L 501.932359 -65.759483 
L 499.046294 -66.582989 
L 496.160228 -67.43691 
L 493.274163 -68.319712 
L 490.388098 -69.22969 
L 487.502032 -70.164967 
L 484.615967 -71.123504 
L 481.729902 -72.103106 
L 478.843836 -73.10144 
L 475.957771 -74.116054 
L 473.071706 -75.144395 
L 470.18564 -76.183837 
L 467.299575 -77.231709 
L 464.41351 -78.285328 
L 461.527444 -79.342027 
L 458.641379 -80.399193 
L 455.755314 -81.454298 
L 452.869248 -82.504934 
L 449.983183 -83.548843 
L 447.097118 -84.583949 
L 444.211052 -85.608379 
L 441.324987 -86.620488 
L 438.438922 -87.618877 
L 435.552856 -88.602398 
L 432.666791 -89.570166 
L 429.780726 -90.521552 
L 426.89466 -91.456179 
L 424.008595 -92.373908 
L 421.12253 -93.274814 
L 418.236464 -94.159161 
L 415.350399 -95.027375 
L 412.464334 -95.88 
L 409.578268 -96.717666 
L 406.692203 -97.54104 
L 403.806138 -98.350788 
L 400.920072 -99.147529 
L 398.034007 -99.931789 
L 395.147942 -100.703965 
L 392.261876 -101.464285 
L 389.375811 -102.212775 
L 386.489746 -102.949232 
L 383.60368 -103.6732 
L 380.717615 -104.383959 
L 377.83155 -105.080514 
L 374.945484 -105.761599 
L 372.059419 -106.425679 
L 369.173354 -107.07097 
L 366.287289 -107.69546 
L 363.401223 -108.296933 
L 360.515158 -108.873009 
L 357.629093 -109.421177 
L 354.743027 -109.93884 
L 351.856962 -110.423357 
L 348.970897 -110.872089 
L 346.084831 -111.282447 
L 343.198766 -111.651929 
L 340.312701 -111.978169 
L 337.426635 -112.258968 
L 334.54057 -112.492333 
L 331.654505 -112.6765 
L 328.768439 -112.809959 
L 325.882374 -112.891471 
L 322.996309 -112.920074 
L 320.110243 -112.895091 
L 317.224178 -112.816123 
L 314.338113 -112.683041 
L 311.452047 -112.495975 
L 308.565982 -112.255292 
L 305.679917 -111.961576 
L 302.793851 -111.615604 
L 299.907786 -111.218317 
L 297.021721 -110.770794 
L 294.135655 -110.274226 
L 291.24959 -109.729887 
L 288.363525 -109.13911 
L 285.477459 -108.503268 
L 282.591394 -107.823753 
L 279.705329 -107.101961 
L 276.819263 -106.339279 
L 273.933198 -105.537083 
L 271.047133 -104.696729 
L 268.161067 -103.819555 
L 265.275002 -102.906886 
L 262.388937 -101.96004 
L 259.502871 -100.980336 
L 256.616806 -99.969108 
L 253.730741 -98.927713 
L 250.844675 -97.857549 
L 247.95861 -96.760061 
L 245.072545 -95.63676 
L 242.186479 -94.489227 
L 239.300414 -93.319126 
L 236.414349 -92.128205 
L 233.528283 -90.918305 
L 230.642218 -89.691357 
L 227.756153 -88.449382 
L 224.870088 -87.194481 
L 221.984022 -85.928832 
L 219.097957 -84.654677 
L 216.211892 -83.374308 
L 213.325826 -82.090055 
L 210.439761 -80.804265 
L 207.553696 -79.519291 
L 204.66763 -78.237466 
L 201.781565 -76.961095 
L 198.8955 -75.692428 
L 196.009434 -74.433653 
L 193.123369 -73.186873 
L 190.237304 -71.954097 
L 187.351238 -70.737227 
L 184.465173 -69.53805 
L 181.579108 -68.35823 
L 178.693042 -67.199302 
L 175.806977 -66.062668 
L 172.920912 -64.949602 
L 170.034846 -63.861243 
L 167.148781 -62.798604 
L 164.262716 -61.762572 
L 161.37665 -60.753914 
L 158.490585 -59.773286 
z
" style="stroke: #f4987a"/>
    </defs>
    <g clip-path="url(#pe91ce1e07f)">
     <use xlink:href="#m81129b3e04" x="0" y="212.255313" style="fill: #f4987a; fill-opacity: 0.5; stroke: #f4987a"/>
    </g>
   </g>
   <g id="matplotlib.axis_5">
    <g id="xtick_13">
     <g id="line2d_17">
      <g>
       <use xlink:href="#ma4f6c2b40b" x="158.490585" y="170.44" style="stroke: #000000; stroke-width: 0.8"/>
      </g>
     </g>
     <g id="text_3">
      <!-- 0 -->
      <g transform="translate(155.490585 185.7725) scale(0.12 -0.12)">
       <defs>
        <path id="TimesNewRomanPSMT-30" d="M 231 2094 
Q 231 2819 450 3342 
Q 669 3866 1031 4122 
Q 1313 4325 1613 4325 
Q 2100 4325 2488 3828 
Q 2972 3213 2972 2159 
Q 2972 1422 2759 906 
Q 2547 391 2217 158 
Q 1888 -75 1581 -75 
Q 975 -75 572 641 
Q 231 1244 231 2094 
z
M 844 2016 
Q 844 1141 1059 588 
Q 1238 122 1591 122 
Q 1759 122 1940 273 
Q 2122 425 2216 781 
Q 2359 1319 2359 2297 
Q 2359 3022 2209 3506 
Q 2097 3866 1919 4016 
Q 1791 4119 1609 4119 
Q 1397 4119 1231 3928 
Q 1006 3669 925 3112 
Q 844 2556 844 2016 
z
" transform="scale(0.015625)"/>
       </defs>
       <use xlink:href="#TimesNewRomanPSMT-30"/>
      </g>
     </g>
    </g>
    <g id="xtick_14">
     <g id="line2d_18">
      <g>
       <use xlink:href="#ma4f6c2b40b" x="273.355985" y="170.44" style="stroke: #000000; stroke-width: 0.8"/>
      </g>
     </g>
     <g id="text_4">
      <!-- 20 -->
      <g transform="translate(267.355985 185.7725) scale(0.12 -0.12)">
       <defs>
        <path id="TimesNewRomanPSMT-32" d="M 2934 816 
L 2638 0 
L 138 0 
L 138 116 
Q 1241 1122 1691 1759 
Q 2141 2397 2141 2925 
Q 2141 3328 1894 3587 
Q 1647 3847 1303 3847 
Q 991 3847 742 3664 
Q 494 3481 375 3128 
L 259 3128 
Q 338 3706 661 4015 
Q 984 4325 1469 4325 
Q 1984 4325 2329 3994 
Q 2675 3663 2675 3213 
Q 2675 2891 2525 2569 
Q 2294 2063 1775 1497 
Q 997 647 803 472 
L 1909 472 
Q 2247 472 2383 497 
Q 2519 522 2628 598 
Q 2738 675 2819 816 
L 2934 816 
z
" transform="scale(0.015625)"/>
       </defs>
       <use xlink:href="#TimesNewRomanPSMT-32"/>
       <use xlink:href="#TimesNewRomanPSMT-30" transform="translate(50 0)"/>
      </g>
     </g>
    </g>
    <g id="xtick_15">
     <g id="line2d_19">
      <g>
       <use xlink:href="#ma4f6c2b40b" x="388.221385" y="170.44" style="stroke: #000000; stroke-width: 0.8"/>
      </g>
     </g>
     <g id="text_5">
      <!-- 40 -->
      <g transform="translate(382.221385 185.7725) scale(0.12 -0.12)">
       <defs>
        <path id="TimesNewRomanPSMT-34" d="M 2978 1563 
L 2978 1119 
L 2409 1119 
L 2409 0 
L 1894 0 
L 1894 1119 
L 100 1119 
L 100 1519 
L 2066 4325 
L 2409 4325 
L 2409 1563 
L 2978 1563 
z
M 1894 1563 
L 1894 3666 
L 406 1563 
L 1894 1563 
z
" transform="scale(0.015625)"/>
       </defs>
       <use xlink:href="#TimesNewRomanPSMT-34"/>
       <use xlink:href="#TimesNewRomanPSMT-30" transform="translate(50 0)"/>
      </g>
     </g>
    </g>
    <g id="xtick_16">
     <g id="line2d_20">
      <g>
       <use xlink:href="#ma4f6c2b40b" x="503.086785" y="170.44" style="stroke: #000000; stroke-width: 0.8"/>
      </g>
     </g>
     <g id="text_6">
      <!-- 60 -->
      <g transform="translate(497.086785 185.7725) scale(0.12 -0.12)">
       <defs>
        <path id="TimesNewRomanPSMT-36" d="M 2869 4325 
L 2869 4209 
Q 2456 4169 2195 4045 
Q 1934 3922 1679 3669 
Q 1425 3416 1258 3105 
Q 1091 2794 978 2366 
Q 1428 2675 1881 2675 
Q 2316 2675 2634 2325 
Q 2953 1975 2953 1425 
Q 2953 894 2631 456 
Q 2244 -75 1606 -75 
Q 1172 -75 869 213 
Q 275 772 275 1663 
Q 275 2231 503 2743 
Q 731 3256 1154 3653 
Q 1578 4050 1965 4187 
Q 2353 4325 2688 4325 
L 2869 4325 
z
M 925 2138 
Q 869 1716 869 1456 
Q 869 1156 980 804 
Q 1091 453 1309 247 
Q 1469 100 1697 100 
Q 1969 100 2183 356 
Q 2397 613 2397 1088 
Q 2397 1622 2184 2012 
Q 1972 2403 1581 2403 
Q 1463 2403 1327 2353 
Q 1191 2303 925 2138 
z
" transform="scale(0.015625)"/>
       </defs>
       <use xlink:href="#TimesNewRomanPSMT-36"/>
       <use xlink:href="#TimesNewRomanPSMT-30" transform="translate(50 0)"/>
      </g>
     </g>
    </g>
    <g id="xtick_17">
     <g id="line2d_21">
      <g>
       <use xlink:href="#ma4f6c2b40b" x="617.952185" y="170.44" style="stroke: #000000; stroke-width: 0.8"/>
      </g>
     </g>
     <g id="text_7">
      <!-- 80 -->
      <g transform="translate(611.952185 185.7725) scale(0.12 -0.12)">
       <defs>
        <path id="TimesNewRomanPSMT-38" d="M 1228 2134 
Q 725 2547 579 2797 
Q 434 3047 434 3316 
Q 434 3728 753 4026 
Q 1072 4325 1600 4325 
Q 2113 4325 2425 4047 
Q 2738 3769 2738 3413 
Q 2738 3175 2569 2928 
Q 2400 2681 1866 2347 
Q 2416 1922 2594 1678 
Q 2831 1359 2831 1006 
Q 2831 559 2490 242 
Q 2150 -75 1597 -75 
Q 994 -75 656 303 
Q 388 606 388 966 
Q 388 1247 577 1523 
Q 766 1800 1228 2134 
z
M 1719 2469 
Q 2094 2806 2194 3001 
Q 2294 3197 2294 3444 
Q 2294 3772 2109 3958 
Q 1925 4144 1606 4144 
Q 1288 4144 1088 3959 
Q 888 3775 888 3528 
Q 888 3366 970 3203 
Q 1053 3041 1206 2894 
L 1719 2469 
z
M 1375 2016 
Q 1116 1797 991 1539 
Q 866 1281 866 981 
Q 866 578 1086 336 
Q 1306 94 1647 94 
Q 1984 94 2187 284 
Q 2391 475 2391 747 
Q 2391 972 2272 1150 
Q 2050 1481 1375 2016 
z
" transform="scale(0.015625)"/>
       </defs>
       <use xlink:href="#TimesNewRomanPSMT-38"/>
       <use xlink:href="#TimesNewRomanPSMT-30" transform="translate(50 0)"/>
      </g>
     </g>
    </g>
    <g id="xtick_18">
     <g id="line2d_22">
      <g>
       <use xlink:href="#ma4f6c2b40b" x="732.817585" y="170.44" style="stroke: #000000; stroke-width: 0.8"/>
      </g>
     </g>
     <g id="text_8">
      <!-- 100 -->
      <g transform="translate(723.817585 185.7725) scale(0.12 -0.12)">
       <defs>
        <path id="TimesNewRomanPSMT-31" d="M 750 3822 
L 1781 4325 
L 1884 4325 
L 1884 747 
Q 1884 391 1914 303 
Q 1944 216 2037 169 
Q 2131 122 2419 116 
L 2419 0 
L 825 0 
L 825 116 
Q 1125 122 1212 167 
Q 1300 213 1334 289 
Q 1369 366 1369 747 
L 1369 3034 
Q 1369 3497 1338 3628 
Q 1316 3728 1258 3775 
Q 1200 3822 1119 3822 
Q 1003 3822 797 3725 
L 750 3822 
z
" transform="scale(0.015625)"/>
       </defs>
       <use xlink:href="#TimesNewRomanPSMT-31"/>
       <use xlink:href="#TimesNewRomanPSMT-30" transform="translate(50 0)"/>
       <use xlink:href="#TimesNewRomanPSMT-30" transform="translate(100 0)"/>
      </g>
     </g>
    </g>
    <g id="text_9">
     <!-- Value -->
     <g transform="translate(429.718147 202.060625) scale(0.14 -0.14)">
      <defs>
       <path id="TimesNewRomanPSMT-56" d="M 4544 4238 
L 4544 4122 
Q 4319 4081 4203 3978 
Q 4038 3825 3909 3509 
L 2431 -97 
L 2316 -97 
L 728 3556 
Q 606 3838 556 3900 
Q 478 3997 364 4051 
Q 250 4106 56 4122 
L 56 4238 
L 1788 4238 
L 1788 4122 
Q 1494 4094 1406 4022 
Q 1319 3950 1319 3838 
Q 1319 3681 1463 3350 
L 2541 866 
L 3541 3319 
Q 3688 3681 3688 3822 
Q 3688 3913 3597 3995 
Q 3506 4078 3291 4113 
Q 3275 4116 3238 4122 
L 3238 4238 
L 4544 4238 
z
" transform="scale(0.015625)"/>
       <path id="TimesNewRomanPSMT-6c" d="M 1184 4444 
L 1184 647 
Q 1184 378 1223 290 
Q 1263 203 1344 158 
Q 1425 113 1647 113 
L 1647 0 
L 244 0 
L 244 113 
Q 441 113 512 153 
Q 584 194 625 287 
Q 666 381 666 647 
L 666 3247 
Q 666 3731 644 3842 
Q 622 3953 573 3993 
Q 525 4034 450 4034 
Q 369 4034 244 3984 
L 191 4094 
L 1044 4444 
L 1184 4444 
z
" transform="scale(0.015625)"/>
      </defs>
      <use xlink:href="#TimesNewRomanPSMT-56"/>
      <use xlink:href="#TimesNewRomanPSMT-61" transform="translate(61.091797 0)"/>
      <use xlink:href="#TimesNewRomanPSMT-6c" transform="translate(105.476562 0)"/>
      <use xlink:href="#TimesNewRomanPSMT-75" transform="translate(133.259766 0)"/>
      <use xlink:href="#TimesNewRomanPSMT-65" transform="translate(183.259766 0)"/>
     </g>
    </g>
   </g>
   <g id="matplotlib.axis_6"/>
   <g id="line2d_23">
    <path d="M 158.490585 152.482027 
L 167.148781 149.456708 
L 175.806977 146.192644 
L 184.465173 142.717262 
L 196.009434 137.821659 
L 213.325826 130.165257 
L 230.642218 122.563955 
L 242.186479 117.766085 
L 250.844675 114.397764 
L 259.502871 111.274976 
L 268.161067 108.435757 
L 276.819263 105.916033 
L 282.591394 104.43156 
L 288.363525 103.116203 
L 294.135655 101.981086 
L 299.907786 101.036995 
L 305.679917 100.293737 
L 311.452047 99.759338 
L 317.224178 99.43919 
L 322.996309 99.335238 
L 328.768439 99.445354 
L 334.54057 99.76298 
L 340.312701 100.277143 
L 346.084831 100.972866 
L 351.856962 101.831956 
L 360.515158 103.382303 
L 369.173354 105.184342 
L 380.717615 107.871354 
L 392.261876 110.791027 
L 403.806138 113.904524 
L 415.350399 117.227938 
L 426.89466 120.799133 
L 438.438922 124.636435 
L 449.983183 128.706469 
L 484.615967 141.131809 
L 493.274163 143.9356 
L 501.932359 146.495829 
L 510.590555 148.77109 
L 519.248751 150.733359 
L 527.906947 152.366135 
L 533.679077 153.267557 
L 539.451208 154.018464 
L 545.223339 154.619367 
L 553.881535 155.243041 
L 562.539731 155.542439 
L 571.197927 155.533673 
L 579.856123 155.240965 
L 588.514319 154.697841 
L 597.172515 153.947124 
L 608.716776 152.711214 
L 652.007756 147.709445 
L 663.552017 146.71991 
L 672.210213 146.154142 
L 680.868409 145.769306 
L 689.526605 145.596997 
L 698.184801 145.672737 
L 706.842997 146.032216 
L 715.501193 146.705017 
L 724.159389 147.707242 
L 732.817585 149.034898 
L 732.817585 149.034898 
" clip-path="url(#pe91ce1e07f)" style="fill: none; stroke: #ffffff; stroke-width: 2; stroke-linecap: square"/>
   </g>
   <g id="line2d_24">
    <path d="M 158.490585 170.44 
L 732.817585 170.44 
" style="fill: none; stroke: #000000; stroke-linecap: square"/>
   </g>
   <g id="text_10">
    <g id="patch_7">
     <path d="M 3.24 179.849687 
L 102.14625 179.849687 
L 102.14625 161.030312 
L 3.24 161.030312 
z
" style="fill: #ffffff; opacity: 0.5"/>
    </g>
    <!-- Ethical Consumers -->
    <g transform="translate(7.2 173.322812) scale(0.12 -0.12)">
     <defs>
      <path id="TimesNewRomanPSMT-45" d="M 1338 4006 
L 1338 2331 
L 2269 2331 
Q 2631 2331 2753 2441 
Q 2916 2584 2934 2947 
L 3050 2947 
L 3050 1472 
L 2934 1472 
Q 2891 1781 2847 1869 
Q 2791 1978 2662 2040 
Q 2534 2103 2269 2103 
L 1338 2103 
L 1338 706 
Q 1338 425 1363 364 
Q 1388 303 1450 267 
Q 1513 231 1688 231 
L 2406 231 
Q 2766 231 2928 281 
Q 3091 331 3241 478 
Q 3434 672 3638 1063 
L 3763 1063 
L 3397 0 
L 131 0 
L 131 116 
L 281 116 
Q 431 116 566 188 
Q 666 238 702 338 
Q 738 438 738 747 
L 738 3500 
Q 738 3903 656 3997 
Q 544 4122 281 4122 
L 131 4122 
L 131 4238 
L 3397 4238 
L 3444 3309 
L 3322 3309 
Q 3256 3644 3176 3769 
Q 3097 3894 2941 3959 
Q 2816 4006 2500 4006 
L 1338 4006 
z
" transform="scale(0.015625)"/>
      <path id="TimesNewRomanPSMT-43" d="M 3853 4334 
L 3950 2894 
L 3853 2894 
Q 3659 3541 3300 3825 
Q 2941 4109 2438 4109 
Q 2016 4109 1675 3895 
Q 1334 3681 1139 3212 
Q 944 2744 944 2047 
Q 944 1472 1128 1050 
Q 1313 628 1683 403 
Q 2053 178 2528 178 
Q 2941 178 3256 354 
Q 3572 531 3950 1056 
L 4047 994 
Q 3728 428 3303 165 
Q 2878 -97 2294 -97 
Q 1241 -97 663 684 
Q 231 1266 231 2053 
Q 231 2688 515 3219 
Q 800 3750 1298 4042 
Q 1797 4334 2388 4334 
Q 2847 4334 3294 4109 
Q 3425 4041 3481 4041 
Q 3566 4041 3628 4100 
Q 3709 4184 3744 4334 
L 3853 4334 
z
" transform="scale(0.015625)"/>
      <path id="TimesNewRomanPSMT-6d" d="M 1050 2338 
Q 1363 2650 1419 2697 
Q 1559 2816 1721 2881 
Q 1884 2947 2044 2947 
Q 2313 2947 2506 2790 
Q 2700 2634 2766 2338 
Q 3088 2713 3309 2830 
Q 3531 2947 3766 2947 
Q 3994 2947 4170 2830 
Q 4347 2713 4450 2447 
Q 4519 2266 4519 1878 
L 4519 647 
Q 4519 378 4559 278 
Q 4591 209 4675 161 
Q 4759 113 4950 113 
L 4950 0 
L 3538 0 
L 3538 113 
L 3597 113 
Q 3781 113 3884 184 
Q 3956 234 3988 344 
Q 4000 397 4000 647 
L 4000 1878 
Q 4000 2228 3916 2372 
Q 3794 2572 3525 2572 
Q 3359 2572 3192 2489 
Q 3025 2406 2788 2181 
L 2781 2147 
L 2788 2013 
L 2788 647 
Q 2788 353 2820 281 
Q 2853 209 2943 161 
Q 3034 113 3253 113 
L 3253 0 
L 1806 0 
L 1806 113 
Q 2044 113 2133 169 
Q 2222 225 2256 338 
Q 2272 391 2272 647 
L 2272 1878 
Q 2272 2228 2169 2381 
Q 2031 2581 1784 2581 
Q 1616 2581 1450 2491 
Q 1191 2353 1050 2181 
L 1050 647 
Q 1050 366 1089 281 
Q 1128 197 1204 155 
Q 1281 113 1516 113 
L 1516 0 
L 100 0 
L 100 113 
Q 297 113 375 155 
Q 453 197 493 289 
Q 534 381 534 647 
L 534 1741 
Q 534 2213 506 2350 
Q 484 2453 437 2492 
Q 391 2531 309 2531 
Q 222 2531 100 2484 
L 53 2597 
L 916 2947 
L 1050 2947 
L 1050 2338 
z
" transform="scale(0.015625)"/>
     </defs>
     <use xlink:href="#TimesNewRomanPSMT-45"/>
     <use xlink:href="#TimesNewRomanPSMT-74" transform="translate(61.083984 0)"/>
     <use xlink:href="#TimesNewRomanPSMT-68" transform="translate(88.867188 0)"/>
     <use xlink:href="#TimesNewRomanPSMT-69" transform="translate(138.867188 0)"/>
     <use xlink:href="#TimesNewRomanPSMT-63" transform="translate(166.650391 0)"/>
     <use xlink:href="#TimesNewRomanPSMT-61" transform="translate(211.035156 0)"/>
     <use xlink:href="#TimesNewRomanPSMT-6c" transform="translate(255.419922 0)"/>
     <use xlink:href="#TimesNewRomanPSMT-20" transform="translate(283.203125 0)"/>
     <use xlink:href="#TimesNewRomanPSMT-43" transform="translate(308.203125 0)"/>
     <use xlink:href="#TimesNewRomanPSMT-6f" transform="translate(374.902344 0)"/>
     <use xlink:href="#TimesNewRomanPSMT-6e" transform="translate(424.902344 0)"/>
     <use xlink:href="#TimesNewRomanPSMT-73" transform="translate(474.902344 0)"/>
     <use xlink:href="#TimesNewRomanPSMT-75" transform="translate(513.818359 0)"/>
     <use xlink:href="#TimesNewRomanPSMT-6d" transform="translate(563.818359 0)"/>
     <use xlink:href="#TimesNewRomanPSMT-65" transform="translate(641.601562 0)"/>
     <use xlink:href="#TimesNewRomanPSMT-72" transform="translate(685.986328 0)"/>
     <use xlink:href="#TimesNewRomanPSMT-73" transform="translate(719.287109 0)"/>
    </g>
   </g>
  </g>
  <g id="text_11">
   <!-- Consumer Preferences(%) -->
   <g transform="translate(299.428835 18.31) scale(0.16 -0.16)">
    <defs>
     <path id="TimesNewRomanPSMT-50" d="M 1313 1984 
L 1313 750 
Q 1313 350 1400 253 
Q 1519 116 1759 116 
L 1922 116 
L 1922 0 
L 106 0 
L 106 116 
L 266 116 
Q 534 116 650 291 
Q 713 388 713 750 
L 713 3488 
Q 713 3888 628 3984 
Q 506 4122 266 4122 
L 106 4122 
L 106 4238 
L 1659 4238 
Q 2228 4238 2556 4120 
Q 2884 4003 3109 3725 
Q 3334 3447 3334 3066 
Q 3334 2547 2992 2222 
Q 2650 1897 2025 1897 
Q 1872 1897 1694 1919 
Q 1516 1941 1313 1984 
z
M 1313 2163 
Q 1478 2131 1606 2115 
Q 1734 2100 1825 2100 
Q 2150 2100 2386 2351 
Q 2622 2603 2622 3003 
Q 2622 3278 2509 3514 
Q 2397 3750 2190 3867 
Q 1984 3984 1722 3984 
Q 1563 3984 1313 3925 
L 1313 2163 
z
" transform="scale(0.015625)"/>
     <path id="TimesNewRomanPSMT-66" d="M 1319 2638 
L 1319 756 
Q 1319 356 1406 250 
Q 1522 113 1716 113 
L 1975 113 
L 1975 0 
L 266 0 
L 266 113 
L 394 113 
Q 519 113 622 175 
Q 725 238 764 344 
Q 803 450 803 756 
L 803 2638 
L 247 2638 
L 247 2863 
L 803 2863 
L 803 3050 
Q 803 3478 940 3775 
Q 1078 4072 1361 4255 
Q 1644 4438 1997 4438 
Q 2325 4438 2600 4225 
Q 2781 4084 2781 3909 
Q 2781 3816 2700 3733 
Q 2619 3650 2525 3650 
Q 2453 3650 2373 3701 
Q 2294 3753 2178 3923 
Q 2063 4094 1966 4153 
Q 1869 4213 1750 4213 
Q 1606 4213 1506 4136 
Q 1406 4059 1362 3898 
Q 1319 3738 1319 3069 
L 1319 2863 
L 2056 2863 
L 2056 2638 
L 1319 2638 
z
" transform="scale(0.015625)"/>
     <path id="TimesNewRomanPSMT-28" d="M 1988 -1253 
L 1988 -1369 
Q 1516 -1131 1200 -813 
Q 750 -359 506 256 
Q 263 872 263 1534 
Q 263 2503 741 3301 
Q 1219 4100 1988 4444 
L 1988 4313 
Q 1603 4100 1356 3731 
Q 1109 3363 987 2797 
Q 866 2231 866 1616 
Q 866 947 969 400 
Q 1050 -31 1165 -292 
Q 1281 -553 1476 -793 
Q 1672 -1034 1988 -1253 
z
" transform="scale(0.015625)"/>
     <path id="TimesNewRomanPSMT-25" d="M 4350 4334 
L 1263 -175 
L 984 -175 
L 4072 4334 
L 4350 4334 
z
M 1138 4334 
Q 1559 4334 1792 3984 
Q 2025 3634 2025 3181 
Q 2025 2638 1762 2341 
Q 1500 2044 1131 2044 
Q 884 2044 678 2180 
Q 472 2316 348 2584 
Q 225 2853 225 3181 
Q 225 3509 350 3786 
Q 475 4063 692 4198 
Q 909 4334 1138 4334 
z
M 1128 4159 
Q 969 4159 845 3971 
Q 722 3784 722 3184 
Q 722 2750 791 2522 
Q 844 2350 956 2256 
Q 1022 2200 1119 2200 
Q 1269 2200 1375 2363 
Q 1531 2603 1531 3166 
Q 1531 3759 1378 4000 
Q 1278 4159 1128 4159 
z
M 4206 2103 
Q 4428 2103 4648 1962 
Q 4869 1822 4989 1553 
Q 5109 1284 5109 963 
Q 5109 409 4843 117 
Q 4578 -175 4216 -175 
Q 3988 -175 3773 -34 
Q 3559 106 3436 367 
Q 3313 628 3313 963 
Q 3313 1291 3436 1562 
Q 3559 1834 3773 1968 
Q 3988 2103 4206 2103 
z
M 4209 1938 
Q 4059 1938 3950 1769 
Q 3809 1550 3809 941 
Q 3809 381 3953 159 
Q 4059 0 4209 0 
Q 4353 0 4466 172 
Q 4616 400 4616 956 
Q 4616 1544 4466 1778 
Q 4363 1938 4209 1938 
z
" transform="scale(0.015625)"/>
     <path id="TimesNewRomanPSMT-29" d="M 144 4313 
L 144 4444 
Q 619 4209 934 3891 
Q 1381 3434 1625 2820 
Q 1869 2206 1869 1541 
Q 1869 572 1392 -226 
Q 916 -1025 144 -1369 
L 144 -1253 
Q 528 -1038 776 -670 
Q 1025 -303 1145 264 
Q 1266 831 1266 1447 
Q 1266 2113 1163 2663 
Q 1084 3094 967 3353 
Q 850 3613 656 3853 
Q 463 4094 144 4313 
z
" transform="scale(0.015625)"/>
    </defs>
    <use xlink:href="#TimesNewRomanPSMT-43"/>
    <use xlink:href="#TimesNewRomanPSMT-6f" transform="translate(66.699219 0)"/>
    <use xlink:href="#TimesNewRomanPSMT-6e" transform="translate(116.699219 0)"/>
    <use xlink:href="#TimesNewRomanPSMT-73" transform="translate(166.699219 0)"/>
    <use xlink:href="#TimesNewRomanPSMT-75" transform="translate(205.615234 0)"/>
    <use xlink:href="#TimesNewRomanPSMT-6d" transform="translate(255.615234 0)"/>
    <use xlink:href="#TimesNewRomanPSMT-65" transform="translate(333.398438 0)"/>
    <use xlink:href="#TimesNewRomanPSMT-72" transform="translate(377.783203 0)"/>
    <use xlink:href="#TimesNewRomanPSMT-20" transform="translate(411.083984 0)"/>
    <use xlink:href="#TimesNewRomanPSMT-50" transform="translate(436.083984 0)"/>
    <use xlink:href="#TimesNewRomanPSMT-72" transform="translate(491.699219 0)"/>
    <use xlink:href="#TimesNewRomanPSMT-65" transform="translate(525 0)"/>
    <use xlink:href="#TimesNewRomanPSMT-66" transform="translate(569.384766 0)"/>
    <use xlink:href="#TimesNewRomanPSMT-65" transform="translate(602.685547 0)"/>
    <use xlink:href="#TimesNewRomanPSMT-72" transform="translate(647.070312 0)"/>
    <use xlink:href="#TimesNewRomanPSMT-65" transform="translate(680.371094 0)"/>
    <use xlink:href="#TimesNewRomanPSMT-6e" transform="translate(724.755859 0)"/>
    <use xlink:href="#TimesNewRomanPSMT-63" transform="translate(774.755859 0)"/>
    <use xlink:href="#TimesNewRomanPSMT-65" transform="translate(819.140625 0)"/>
    <use xlink:href="#TimesNewRomanPSMT-73" transform="translate(863.525391 0)"/>
    <use xlink:href="#TimesNewRomanPSMT-28" transform="translate(902.441406 0)"/>
    <use xlink:href="#TimesNewRomanPSMT-25" transform="translate(935.742188 0)"/>
    <use xlink:href="#TimesNewRomanPSMT-29" transform="translate(1019.042969 0)"/>
   </g>
  </g>
 </g>
 <defs>
  <clipPath id="p6612069a3a">
   <rect x="158.490585" y="21.12" width="574.327" height="74.66"/>
  </clipPath>
  <clipPath id="p14f3604a62">
   <rect x="158.490585" y="58.45" width="574.327" height="74.66"/>
  </clipPath>
  <clipPath id="pe91ce1e07f">
   <rect x="158.490585" y="95.78" width="574.327" height="74.66"/>
  </clipPath>
 </defs>
</svg>
