<?xml version="1.0" encoding="utf-8" standalone="no"?>
<!DOCTYPE svg PUBLIC "-//W3C//DTD SVG 1.1//EN"
  "http://www.w3.org/Graphics/SVG/1.1/DTD/svg11.dtd">
<svg xmlns:xlink="http://www.w3.org/1999/xlink" width="749.651972pt" height="280.655312pt" viewBox="0 0 749.651972 280.655312" xmlns="http://www.w3.org/2000/svg" version="1.1">
 <metadata>
  <rdf:RDF xmlns:dc="http://purl.org/dc/elements/1.1/" xmlns:cc="http://creativecommons.org/ns#" xmlns:rdf="http://www.w3.org/1999/02/22-rdf-syntax-ns#">
   <cc:Work>
    <dc:type rdf:resource="http://purl.org/dc/dcmitype/StillImage"/>
    <dc:date>2025-05-26T22:53:45.718228</dc:date>
    <dc:format>image/svg+xml</dc:format>
    <dc:creator>
     <cc:Agent>
      <dc:title>Matplotlib v3.10.1, https://matplotlib.org/</dc:title>
     </cc:Agent>
    </dc:creator>
   </cc:Work>
  </rdf:RDF>
 </metadata>
 <defs>
  <style type="text/css">*{stroke-linejoin: round; stroke-linecap: butt}</style>
 </defs>
 <g id="figure_1">
  <g id="patch_1">
   <path d="M 0 280.655312 
L 749.651972 280.655312 
L 749.651972 0 
L 0 0 
z
" style="fill: #ffffff"/>
  </g>
  <g id="axes_1">
   <g id="patch_2">
    <path d="M 155.547472 106.048 
L 733.451973 106.048 
L 733.451973 17.52 
L 155.547472 17.52 
L 155.547472 106.048 
z
" style="fill: none; opacity: 0"/>
   </g>
   <g id="FillBetweenPolyCollection_1">
    <defs>
     <path id="m279ae03045" d="M 155.547472 -214.215136 
L 155.547472 -174.607312 
L 158.451515 -174.607312 
L 161.355558 -174.607312 
L 164.259601 -174.607312 
L 167.163643 -174.607312 
L 170.067686 -174.607312 
L 172.971729 -174.607312 
L 175.875771 -174.607312 
L 178.779814 -174.607312 
L 181.683857 -174.607312 
L 184.5879 -174.607312 
L 187.491942 -174.607312 
L 190.395985 -174.607312 
L 193.300028 -174.607312 
L 196.20407 -174.607312 
L 199.108113 -174.607312 
L 202.012156 -174.607312 
L 204.916199 -174.607312 
L 207.820241 -174.607312 
L 210.724284 -174.607312 
L 213.628327 -174.607312 
L 216.532369 -174.607312 
L 219.436412 -174.607312 
L 222.340455 -174.607312 
L 225.244498 -174.607312 
L 228.14854 -174.607312 
L 231.052583 -174.607312 
L 233.956626 -174.607312 
L 236.860668 -174.607312 
L 239.764711 -174.607312 
L 242.668754 -174.607312 
L 245.572797 -174.607312 
L 248.476839 -174.607312 
L 251.380882 -174.607312 
L 254.284925 -174.607312 
L 257.188967 -174.607312 
L 260.09301 -174.607312 
L 262.997053 -174.607312 
L 265.901096 -174.607312 
L 268.805138 -174.607312 
L 271.709181 -174.607312 
L 274.613224 -174.607312 
L 277.517266 -174.607312 
L 280.421309 -174.607312 
L 283.325352 -174.607312 
L 286.229395 -174.607312 
L 289.133437 -174.607312 
L 292.03748 -174.607312 
L 294.941523 -174.607312 
L 297.845565 -174.607312 
L 300.749608 -174.607312 
L 303.653651 -174.607312 
L 306.557694 -174.607312 
L 309.461736 -174.607312 
L 312.365779 -174.607312 
L 315.269822 -174.607312 
L 318.173864 -174.607312 
L 321.077907 -174.607312 
L 323.98195 -174.607312 
L 326.885993 -174.607312 
L 329.790035 -174.607312 
L 332.694078 -174.607312 
L 335.598121 -174.607312 
L 338.502163 -174.607312 
L 341.406206 -174.607312 
L 344.310249 -174.607312 
L 347.214292 -174.607312 
L 350.118334 -174.607312 
L 353.022377 -174.607312 
L 355.92642 -174.607312 
L 358.830462 -174.607312 
L 361.734505 -174.607312 
L 364.638548 -174.607312 
L 367.542591 -174.607312 
L 370.446633 -174.607312 
L 373.350676 -174.607312 
L 376.254719 -174.607312 
L 379.158761 -174.607312 
L 382.062804 -174.607312 
L 384.966847 -174.607312 
L 387.87089 -174.607312 
L 390.774932 -174.607312 
L 393.678975 -174.607312 
L 396.583018 -174.607312 
L 399.48706 -174.607312 
L 402.391103 -174.607312 
L 405.295146 -174.607312 
L 408.199189 -174.607312 
L 411.103231 -174.607312 
L 414.007274 -174.607312 
L 416.911317 -174.607312 
L 419.815359 -174.607312 
L 422.719402 -174.607312 
L 425.623445 -174.607312 
L 428.527488 -174.607312 
L 431.43153 -174.607312 
L 434.335573 -174.607312 
L 437.239616 -174.607312 
L 440.143658 -174.607312 
L 443.047701 -174.607312 
L 445.951744 -174.607312 
L 448.855787 -174.607312 
L 451.759829 -174.607312 
L 454.663872 -174.607312 
L 457.567915 -174.607312 
L 460.471957 -174.607312 
L 463.376 -174.607312 
L 466.280043 -174.607312 
L 469.184086 -174.607312 
L 472.088128 -174.607312 
L 474.992171 -174.607312 
L 477.896214 -174.607312 
L 480.800256 -174.607312 
L 483.704299 -174.607312 
L 486.608342 -174.607312 
L 489.512385 -174.607312 
L 492.416427 -174.607312 
L 495.32047 -174.607312 
L 498.224513 -174.607312 
L 501.128555 -174.607312 
L 504.032598 -174.607312 
L 506.936641 -174.607312 
L 509.840684 -174.607312 
L 512.744726 -174.607312 
L 515.648769 -174.607312 
L 518.552812 -174.607312 
L 521.456854 -174.607312 
L 524.360897 -174.607312 
L 527.26494 -174.607312 
L 530.168983 -174.607312 
L 533.073025 -174.607312 
L 535.977068 -174.607312 
L 538.881111 -174.607312 
L 541.785153 -174.607312 
L 544.689196 -174.607312 
L 547.593239 -174.607312 
L 550.497282 -174.607312 
L 553.401324 -174.607312 
L 556.305367 -174.607312 
L 559.20941 -174.607312 
L 562.113452 -174.607312 
L 565.017495 -174.607312 
L 567.921538 -174.607312 
L 570.825581 -174.607312 
L 573.729623 -174.607312 
L 576.633666 -174.607312 
L 579.537709 -174.607312 
L 582.441751 -174.607312 
L 585.345794 -174.607312 
L 588.249837 -174.607312 
L 591.15388 -174.607312 
L 594.057922 -174.607312 
L 596.961965 -174.607312 
L 599.866008 -174.607312 
L 602.77005 -174.607312 
L 605.674093 -174.607312 
L 608.578136 -174.607312 
L 611.482179 -174.607312 
L 614.386221 -174.607312 
L 617.290264 -174.607312 
L 620.194307 -174.607312 
L 623.098349 -174.607312 
L 626.002392 -174.607312 
L 628.906435 -174.607312 
L 631.810478 -174.607312 
L 634.71452 -174.607312 
L 637.618563 -174.607312 
L 640.522606 -174.607312 
L 643.426648 -174.607312 
L 646.330691 -174.607312 
L 649.234734 -174.607312 
L 652.138777 -174.607312 
L 655.042819 -174.607312 
L 657.946862 -174.607312 
L 660.850905 -174.607312 
L 663.754947 -174.607312 
L 666.65899 -174.607312 
L 669.563033 -174.607312 
L 672.467076 -174.607312 
L 675.371118 -174.607312 
L 678.275161 -174.607312 
L 681.179204 -174.607312 
L 684.083246 -174.607312 
L 686.987289 -174.607312 
L 689.891332 -174.607312 
L 692.795375 -174.607312 
L 695.699417 -174.607312 
L 698.60346 -174.607312 
L 701.507503 -174.607312 
L 704.411545 -174.607312 
L 707.315588 -174.607312 
L 710.219631 -174.607312 
L 713.123674 -174.607312 
L 716.027716 -174.607312 
L 718.931759 -174.607312 
L 721.835802 -174.607312 
L 724.739844 -174.607312 
L 727.643887 -174.607312 
L 730.54793 -174.607312 
L 733.451973 -174.607312 
L 733.451973 -181.612232 
L 733.451973 -181.612232 
L 730.54793 -181.876221 
L 727.643887 -182.135038 
L 724.739844 -182.3877 
L 721.835802 -182.633265 
L 718.931759 -182.870845 
L 716.027716 -183.099614 
L 713.123674 -183.31882 
L 710.219631 -183.527789 
L 707.315588 -183.725941 
L 704.411545 -183.912792 
L 701.507503 -184.087958 
L 698.60346 -184.251167 
L 695.699417 -184.402255 
L 692.795375 -184.541174 
L 689.891332 -184.667989 
L 686.987289 -184.782875 
L 684.083246 -184.88612 
L 681.179204 -184.978116 
L 678.275161 -185.059357 
L 675.371118 -185.130429 
L 672.467076 -185.192004 
L 669.563033 -185.24483 
L 666.65899 -185.289722 
L 663.754947 -185.32755 
L 660.850905 -185.359231 
L 657.946862 -185.385715 
L 655.042819 -185.407973 
L 652.138777 -185.426992 
L 649.234734 -185.443755 
L 646.330691 -185.459241 
L 643.426648 -185.47441 
L 640.522606 -185.490193 
L 637.618563 -185.507491 
L 634.71452 -185.527163 
L 631.810478 -185.550022 
L 628.906435 -185.576831 
L 626.002392 -185.608298 
L 623.098349 -185.645075 
L 620.194307 -185.687752 
L 617.290264 -185.736858 
L 614.386221 -185.792857 
L 611.482179 -185.856149 
L 608.578136 -185.927066 
L 605.674093 -186.005872 
L 602.77005 -186.09276 
L 599.866008 -186.187849 
L 596.961965 -186.291183 
L 594.057922 -186.402727 
L 591.15388 -186.522364 
L 588.249837 -186.64989 
L 585.345794 -186.785011 
L 582.441751 -186.927341 
L 579.537709 -187.076395 
L 576.633666 -187.231587 
L 573.729623 -187.392228 
L 570.825581 -187.557525 
L 567.921538 -187.726579 
L 565.017495 -187.898388 
L 562.113452 -188.071848 
L 559.20941 -188.245756 
L 556.305367 -188.418822 
L 553.401324 -188.589673 
L 550.497282 -188.756862 
L 547.593239 -188.918889 
L 544.689196 -189.074204 
L 541.785153 -189.221234 
L 538.881111 -189.358394 
L 535.977068 -189.48411 
L 533.073025 -189.596839 
L 530.168983 -189.695087 
L 527.26494 -189.777434 
L 524.360897 -189.84255 
L 521.456854 -189.889221 
L 518.552812 -189.916364 
L 515.648769 -189.923047 
L 512.744726 -189.908502 
L 509.840684 -189.872142 
L 506.936641 -189.813571 
L 504.032598 -189.732592 
L 501.128555 -189.629216 
L 498.224513 -189.503659 
L 495.32047 -189.356352 
L 492.416427 -189.187928 
L 489.512385 -188.999227 
L 486.608342 -188.79128 
L 483.704299 -188.565304 
L 480.800256 -188.32269 
L 477.896214 -188.064986 
L 474.992171 -187.793888 
L 472.088128 -187.511217 
L 469.184086 -187.218906 
L 466.280043 -186.918985 
L 463.376 -186.613558 
L 460.471957 -186.304789 
L 457.567915 -185.994883 
L 454.663872 -185.686075 
L 451.759829 -185.380605 
L 448.855787 -185.080715 
L 445.951744 -184.788624 
L 443.047701 -184.506525 
L 440.143658 -184.236569 
L 437.239616 -183.980858 
L 434.335573 -183.741435 
L 431.43153 -183.520278 
L 428.527488 -183.319297 
L 425.623445 -183.140327 
L 422.719402 -182.98513 
L 419.815359 -182.855389 
L 416.911317 -182.752715 
L 414.007274 -182.678646 
L 411.103231 -182.634654 
L 408.199189 -182.622147 
L 405.295146 -182.64248 
L 402.391103 -182.696962 
L 399.48706 -182.786867 
L 396.583018 -182.913445 
L 393.678975 -183.077936 
L 390.774932 -183.28158 
L 387.87089 -183.525637 
L 384.966847 -183.811396 
L 382.062804 -184.140191 
L 379.158761 -184.513416 
L 376.254719 -184.932537 
L 373.350676 -185.399101 
L 370.446633 -185.914749 
L 367.542591 -186.481216 
L 364.638548 -187.100339 
L 361.734505 -187.774054 
L 358.830462 -188.504384 
L 355.92642 -189.293437 
L 353.022377 -190.143378 
L 350.118334 -191.056415 
L 347.214292 -192.034761 
L 344.310249 -193.080603 
L 341.406206 -194.196053 
L 338.502163 -195.383105 
L 335.598121 -196.643575 
L 332.694078 -197.97904 
L 329.790035 -199.390776 
L 326.885993 -200.879686 
L 323.98195 -202.446227 
L 321.077907 -204.090342 
L 318.173864 -205.811383 
L 315.269822 -207.608043 
L 312.365779 -209.47829 
L 309.461736 -211.419303 
L 306.557694 -213.427421 
L 303.653651 -215.498094 
L 300.749608 -217.625854 
L 297.845565 -219.804289 
L 294.941523 -222.026036 
L 292.03748 -224.282786 
L 289.133437 -226.565309 
L 286.229395 -228.86349 
L 283.325352 -231.166385 
L 280.421309 -233.462293 
L 277.517266 -235.738846 
L 274.613224 -237.983108 
L 271.709181 -240.181699 
L 268.805138 -242.320924 
L 265.901096 -244.386911 
L 262.997053 -246.365771 
L 260.09301 -248.243748 
L 257.188967 -250.007385 
L 254.284925 -251.643684 
L 251.380882 -253.140273 
L 248.476839 -254.485557 
L 245.572797 -255.668873 
L 242.668754 -256.680626 
L 239.764711 -257.512418 
L 236.860668 -258.15716 
L 233.956626 -258.609167 
L 231.052583 -258.864235 
L 228.14854 -258.919693 
L 225.244498 -258.774444 
L 222.340455 -258.428972 
L 219.436412 -257.885336 
L 216.532369 -257.147139 
L 213.628327 -256.219476 
L 210.724284 -255.108863 
L 207.820241 -253.823146 
L 204.916199 -252.371398 
L 202.012156 -250.763795 
L 199.108113 -249.01149 
L 196.20407 -247.126461 
L 193.300028 -245.121374 
L 190.395985 -243.009421 
L 187.491942 -240.804173 
L 184.5879 -238.51942 
L 181.683857 -236.169026 
L 178.779814 -233.766782 
L 175.875771 -231.326272 
L 172.971729 -228.860743 
L 170.067686 -226.38299 
L 167.163643 -223.905253 
L 164.259601 -221.439128 
L 161.355558 -218.995482 
L 158.451515 -216.584402 
L 155.547472 -214.215136 
z
" style="stroke: #66c2a5"/>
    </defs>
    <g clip-path="url(#pa52bace586)">
     <use xlink:href="#m279ae03045" x="0" y="280.655312" style="fill: #66c2a5; fill-opacity: 0.5; stroke: #66c2a5"/>
    </g>
   </g>
   <g id="matplotlib.axis_1">
    <g id="xtick_1">
     <g id="line2d_1">
      <defs>
       <path id="m5643211933" d="M 0 0 
L 0 3.5 
" style="stroke: #000000; stroke-width: 0.8"/>
      </defs>
      <g>
       <use xlink:href="#m5643211933" x="155.547472" y="106.048" style="stroke: #000000; stroke-width: 0.8"/>
      </g>
     </g>
    </g>
    <g id="xtick_2">
     <g id="line2d_2">
      <g>
       <use xlink:href="#m5643211933" x="271.128372" y="106.048" style="stroke: #000000; stroke-width: 0.8"/>
      </g>
     </g>
    </g>
    <g id="xtick_3">
     <g id="line2d_3">
      <g>
       <use xlink:href="#m5643211933" x="386.709272" y="106.048" style="stroke: #000000; stroke-width: 0.8"/>
      </g>
     </g>
    </g>
    <g id="xtick_4">
     <g id="line2d_4">
      <g>
       <use xlink:href="#m5643211933" x="502.290173" y="106.048" style="stroke: #000000; stroke-width: 0.8"/>
      </g>
     </g>
    </g>
    <g id="xtick_5">
     <g id="line2d_5">
      <g>
       <use xlink:href="#m5643211933" x="617.871073" y="106.048" style="stroke: #000000; stroke-width: 0.8"/>
      </g>
     </g>
    </g>
    <g id="xtick_6">
     <g id="line2d_6">
      <g>
       <use xlink:href="#m5643211933" x="733.451973" y="106.048" style="stroke: #000000; stroke-width: 0.8"/>
      </g>
     </g>
    </g>
   </g>
   <g id="matplotlib.axis_2"/>
   <g id="line2d_7">
    <path d="M 155.547472 66.440177 
L 164.259601 59.216185 
L 181.683857 44.486286 
L 187.491942 39.851139 
L 193.300028 35.533939 
L 199.108113 31.643823 
L 202.012156 29.891517 
L 204.916199 28.283915 
L 207.820241 26.832167 
L 210.724284 25.54645 
L 213.628327 24.435836 
L 216.532369 23.508173 
L 219.436412 22.769976 
L 222.340455 22.22634 
L 225.244498 21.880868 
L 228.14854 21.735619 
L 231.052583 21.791078 
L 233.956626 22.046145 
L 236.860668 22.498153 
L 239.764711 23.142895 
L 242.668754 23.974687 
L 245.572797 24.98644 
L 248.476839 26.169755 
L 251.380882 27.51504 
L 254.284925 29.011628 
L 260.09301 32.411564 
L 265.901096 36.268401 
L 271.709181 40.473613 
L 280.421309 47.193019 
L 297.845565 60.851023 
L 303.653651 65.157218 
L 309.461736 69.236009 
L 315.269822 73.047269 
L 321.077907 76.564971 
L 326.885993 79.775627 
L 332.694078 82.676272 
L 338.502163 85.272208 
L 344.310249 87.57471 
L 350.118334 89.598897 
L 355.92642 91.361876 
L 361.734505 92.881259 
L 367.542591 94.174097 
L 373.350676 95.256211 
L 379.158761 96.141896 
L 384.966847 96.843917 
L 390.774932 97.373732 
L 396.583018 97.741868 
L 405.295146 98.012832 
L 414.007274 97.976666 
L 422.719402 97.670183 
L 431.43153 97.135034 
L 443.047701 96.148787 
L 460.471957 94.350524 
L 477.896214 92.590326 
L 489.512385 91.656086 
L 498.224513 91.151653 
L 506.936641 90.841741 
L 515.648769 90.732265 
L 524.360897 90.812763 
L 535.977068 91.171202 
L 550.497282 91.89845 
L 591.15388 94.132949 
L 605.674093 94.64944 
L 620.194307 94.96756 
L 640.522606 95.16512 
L 669.563033 95.410483 
L 684.083246 95.769193 
L 695.699417 96.253057 
L 707.315588 96.929371 
L 721.835802 98.022047 
L 733.451973 99.043081 
L 733.451973 99.043081 
" clip-path="url(#pa52bace586)" style="fill: none; stroke: #ffffff; stroke-width: 2; stroke-linecap: square"/>
   </g>
   <g id="line2d_8">
    <path d="M 155.547472 106.048 
L 733.451973 106.048 
" style="fill: none; stroke: #000000; stroke-linecap: square"/>
   </g>
   <g id="text_1">
    <g id="patch_3">
     <path d="M 17.248125 115.457687 
L 98.8275 115.457687 
L 98.8275 96.638312 
L 17.248125 96.638312 
z
" style="fill: #ffffff; opacity: 0.5"/>
    </g>
    <!-- Return Policies -->
    <g transform="translate(21.208125 108.930812) scale(0.12 -0.12)">
     <defs>
      <path id="TimesNewRomanPSMT-52" d="M 4325 0 
L 3194 0 
L 1759 1981 
Q 1600 1975 1500 1975 
Q 1459 1975 1412 1976 
Q 1366 1978 1316 1981 
L 1316 750 
Q 1316 350 1403 253 
Q 1522 116 1759 116 
L 1925 116 
L 1925 0 
L 109 0 
L 109 116 
L 269 116 
Q 538 116 653 291 
Q 719 388 719 750 
L 719 3488 
Q 719 3888 631 3984 
Q 509 4122 269 4122 
L 109 4122 
L 109 4238 
L 1653 4238 
Q 2328 4238 2648 4139 
Q 2969 4041 3192 3777 
Q 3416 3513 3416 3147 
Q 3416 2756 3161 2468 
Q 2906 2181 2372 2063 
L 3247 847 
Q 3547 428 3762 290 
Q 3978 153 4325 116 
L 4325 0 
z
M 1316 2178 
Q 1375 2178 1419 2176 
Q 1463 2175 1491 2175 
Q 2097 2175 2405 2437 
Q 2713 2700 2713 3106 
Q 2713 3503 2464 3751 
Q 2216 4000 1806 4000 
Q 1625 4000 1316 3941 
L 1316 2178 
z
" transform="scale(0.015625)"/>
      <path id="TimesNewRomanPSMT-65" d="M 681 1784 
Q 678 1147 991 784 
Q 1303 422 1725 422 
Q 2006 422 2214 576 
Q 2422 731 2563 1106 
L 2659 1044 
Q 2594 616 2278 264 
Q 1963 -88 1488 -88 
Q 972 -88 605 314 
Q 238 716 238 1394 
Q 238 2128 614 2539 
Q 991 2950 1559 2950 
Q 2041 2950 2350 2633 
Q 2659 2316 2659 1784 
L 681 1784 
z
M 681 1966 
L 2006 1966 
Q 1991 2241 1941 2353 
Q 1863 2528 1708 2628 
Q 1553 2728 1384 2728 
Q 1125 2728 920 2526 
Q 716 2325 681 1966 
z
" transform="scale(0.015625)"/>
      <path id="TimesNewRomanPSMT-74" d="M 1031 3803 
L 1031 2863 
L 1700 2863 
L 1700 2644 
L 1031 2644 
L 1031 788 
Q 1031 509 1111 412 
Q 1191 316 1316 316 
Q 1419 316 1516 380 
Q 1613 444 1666 569 
L 1788 569 
Q 1678 263 1478 108 
Q 1278 -47 1066 -47 
Q 922 -47 784 33 
Q 647 113 581 261 
Q 516 409 516 719 
L 516 2644 
L 63 2644 
L 63 2747 
Q 234 2816 414 2980 
Q 594 3144 734 3369 
Q 806 3488 934 3803 
L 1031 3803 
z
" transform="scale(0.015625)"/>
      <path id="TimesNewRomanPSMT-75" d="M 2709 2863 
L 2709 1128 
Q 2709 631 2732 520 
Q 2756 409 2807 365 
Q 2859 322 2928 322 
Q 3025 322 3147 375 
L 3191 266 
L 2334 -88 
L 2194 -88 
L 2194 519 
Q 1825 119 1631 15 
Q 1438 -88 1222 -88 
Q 981 -88 804 51 
Q 628 191 559 409 
Q 491 628 491 1028 
L 491 2306 
Q 491 2509 447 2587 
Q 403 2666 317 2708 
Q 231 2750 6 2747 
L 6 2863 
L 1009 2863 
L 1009 947 
Q 1009 547 1148 422 
Q 1288 297 1484 297 
Q 1619 297 1789 381 
Q 1959 466 2194 703 
L 2194 2325 
Q 2194 2569 2105 2655 
Q 2016 2741 1734 2747 
L 1734 2863 
L 2709 2863 
z
" transform="scale(0.015625)"/>
      <path id="TimesNewRomanPSMT-72" d="M 1038 2947 
L 1038 2303 
Q 1397 2947 1775 2947 
Q 1947 2947 2059 2842 
Q 2172 2738 2172 2600 
Q 2172 2478 2090 2393 
Q 2009 2309 1897 2309 
Q 1788 2309 1652 2417 
Q 1516 2525 1450 2525 
Q 1394 2525 1328 2463 
Q 1188 2334 1038 2041 
L 1038 669 
Q 1038 431 1097 309 
Q 1138 225 1241 169 
Q 1344 113 1538 113 
L 1538 0 
L 72 0 
L 72 113 
Q 291 113 397 181 
Q 475 231 506 341 
Q 522 394 522 644 
L 522 1753 
Q 522 2253 501 2348 
Q 481 2444 426 2487 
Q 372 2531 291 2531 
Q 194 2531 72 2484 
L 41 2597 
L 906 2947 
L 1038 2947 
z
" transform="scale(0.015625)"/>
      <path id="TimesNewRomanPSMT-6e" d="M 1034 2341 
Q 1538 2947 1994 2947 
Q 2228 2947 2397 2830 
Q 2566 2713 2666 2444 
Q 2734 2256 2734 1869 
L 2734 647 
Q 2734 375 2778 278 
Q 2813 200 2889 156 
Q 2966 113 3172 113 
L 3172 0 
L 1756 0 
L 1756 113 
L 1816 113 
Q 2016 113 2095 173 
Q 2175 234 2206 353 
Q 2219 400 2219 647 
L 2219 1819 
Q 2219 2209 2117 2386 
Q 2016 2563 1775 2563 
Q 1403 2563 1034 2156 
L 1034 647 
Q 1034 356 1069 288 
Q 1113 197 1189 155 
Q 1266 113 1500 113 
L 1500 0 
L 84 0 
L 84 113 
L 147 113 
Q 366 113 442 223 
Q 519 334 519 647 
L 519 1709 
Q 519 2225 495 2337 
Q 472 2450 423 2490 
Q 375 2531 294 2531 
Q 206 2531 84 2484 
L 38 2597 
L 900 2947 
L 1034 2947 
L 1034 2341 
z
" transform="scale(0.015625)"/>
      <path id="TimesNewRomanPSMT-20" transform="scale(0.015625)"/>
      <path id="TimesNewRomanPSMT-50" d="M 1313 1984 
L 1313 750 
Q 1313 350 1400 253 
Q 1519 116 1759 116 
L 1922 116 
L 1922 0 
L 106 0 
L 106 116 
L 266 116 
Q 534 116 650 291 
Q 713 388 713 750 
L 713 3488 
Q 713 3888 628 3984 
Q 506 4122 266 4122 
L 106 4122 
L 106 4238 
L 1659 4238 
Q 2228 4238 2556 4120 
Q 2884 4003 3109 3725 
Q 3334 3447 3334 3066 
Q 3334 2547 2992 2222 
Q 2650 1897 2025 1897 
Q 1872 1897 1694 1919 
Q 1516 1941 1313 1984 
z
M 1313 2163 
Q 1478 2131 1606 2115 
Q 1734 2100 1825 2100 
Q 2150 2100 2386 2351 
Q 2622 2603 2622 3003 
Q 2622 3278 2509 3514 
Q 2397 3750 2190 3867 
Q 1984 3984 1722 3984 
Q 1563 3984 1313 3925 
L 1313 2163 
z
" transform="scale(0.015625)"/>
      <path id="TimesNewRomanPSMT-6f" d="M 1600 2947 
Q 2250 2947 2644 2453 
Q 2978 2031 2978 1484 
Q 2978 1100 2793 706 
Q 2609 313 2286 112 
Q 1963 -88 1566 -88 
Q 919 -88 538 428 
Q 216 863 216 1403 
Q 216 1797 411 2186 
Q 606 2575 925 2761 
Q 1244 2947 1600 2947 
z
M 1503 2744 
Q 1338 2744 1170 2645 
Q 1003 2547 900 2300 
Q 797 2053 797 1666 
Q 797 1041 1045 587 
Q 1294 134 1700 134 
Q 2003 134 2200 384 
Q 2397 634 2397 1244 
Q 2397 2006 2069 2444 
Q 1847 2744 1503 2744 
z
" transform="scale(0.015625)"/>
      <path id="TimesNewRomanPSMT-6c" d="M 1184 4444 
L 1184 647 
Q 1184 378 1223 290 
Q 1263 203 1344 158 
Q 1425 113 1647 113 
L 1647 0 
L 244 0 
L 244 113 
Q 441 113 512 153 
Q 584 194 625 287 
Q 666 381 666 647 
L 666 3247 
Q 666 3731 644 3842 
Q 622 3953 573 3993 
Q 525 4034 450 4034 
Q 369 4034 244 3984 
L 191 4094 
L 1044 4444 
L 1184 4444 
z
" transform="scale(0.015625)"/>
      <path id="TimesNewRomanPSMT-69" d="M 928 4444 
Q 1059 4444 1151 4351 
Q 1244 4259 1244 4128 
Q 1244 3997 1151 3903 
Q 1059 3809 928 3809 
Q 797 3809 703 3903 
Q 609 3997 609 4128 
Q 609 4259 701 4351 
Q 794 4444 928 4444 
z
M 1188 2947 
L 1188 647 
Q 1188 378 1227 289 
Q 1266 200 1342 156 
Q 1419 113 1622 113 
L 1622 0 
L 231 0 
L 231 113 
Q 441 113 512 153 
Q 584 194 626 287 
Q 669 381 669 647 
L 669 1750 
Q 669 2216 641 2353 
Q 619 2453 572 2492 
Q 525 2531 444 2531 
Q 356 2531 231 2484 
L 188 2597 
L 1050 2947 
L 1188 2947 
z
" transform="scale(0.015625)"/>
      <path id="TimesNewRomanPSMT-63" d="M 2631 1088 
Q 2516 522 2178 217 
Q 1841 -88 1431 -88 
Q 944 -88 581 321 
Q 219 731 219 1428 
Q 219 2103 620 2525 
Q 1022 2947 1584 2947 
Q 2006 2947 2278 2723 
Q 2550 2500 2550 2259 
Q 2550 2141 2473 2067 
Q 2397 1994 2259 1994 
Q 2075 1994 1981 2113 
Q 1928 2178 1911 2362 
Q 1894 2547 1784 2644 
Q 1675 2738 1481 2738 
Q 1169 2738 978 2506 
Q 725 2200 725 1697 
Q 725 1184 976 792 
Q 1228 400 1656 400 
Q 1963 400 2206 609 
Q 2378 753 2541 1131 
L 2631 1088 
z
" transform="scale(0.015625)"/>
      <path id="TimesNewRomanPSMT-73" d="M 2050 2947 
L 2050 1972 
L 1947 1972 
Q 1828 2431 1642 2597 
Q 1456 2763 1169 2763 
Q 950 2763 815 2647 
Q 681 2531 681 2391 
Q 681 2216 781 2091 
Q 878 1963 1175 1819 
L 1631 1597 
Q 2266 1288 2266 781 
Q 2266 391 1970 151 
Q 1675 -88 1309 -88 
Q 1047 -88 709 6 
Q 606 38 541 38 
Q 469 38 428 -44 
L 325 -44 
L 325 978 
L 428 978 
Q 516 541 762 319 
Q 1009 97 1316 97 
Q 1531 97 1667 223 
Q 1803 350 1803 528 
Q 1803 744 1651 891 
Q 1500 1038 1047 1263 
Q 594 1488 453 1669 
Q 313 1847 313 2119 
Q 313 2472 555 2709 
Q 797 2947 1181 2947 
Q 1350 2947 1591 2875 
Q 1750 2828 1803 2828 
Q 1853 2828 1881 2850 
Q 1909 2872 1947 2947 
L 2050 2947 
z
" transform="scale(0.015625)"/>
     </defs>
     <use xlink:href="#TimesNewRomanPSMT-52"/>
     <use xlink:href="#TimesNewRomanPSMT-65" transform="translate(66.699219 0)"/>
     <use xlink:href="#TimesNewRomanPSMT-74" transform="translate(111.083984 0)"/>
     <use xlink:href="#TimesNewRomanPSMT-75" transform="translate(138.867188 0)"/>
     <use xlink:href="#TimesNewRomanPSMT-72" transform="translate(188.867188 0)"/>
     <use xlink:href="#TimesNewRomanPSMT-6e" transform="translate(222.167969 0)"/>
     <use xlink:href="#TimesNewRomanPSMT-20" transform="translate(272.167969 0)"/>
     <use xlink:href="#TimesNewRomanPSMT-50" transform="translate(297.167969 0)"/>
     <use xlink:href="#TimesNewRomanPSMT-6f" transform="translate(352.783203 0)"/>
     <use xlink:href="#TimesNewRomanPSMT-6c" transform="translate(402.783203 0)"/>
     <use xlink:href="#TimesNewRomanPSMT-69" transform="translate(430.566406 0)"/>
     <use xlink:href="#TimesNewRomanPSMT-63" transform="translate(458.349609 0)"/>
     <use xlink:href="#TimesNewRomanPSMT-69" transform="translate(502.734375 0)"/>
     <use xlink:href="#TimesNewRomanPSMT-65" transform="translate(530.517578 0)"/>
     <use xlink:href="#TimesNewRomanPSMT-73" transform="translate(574.902344 0)"/>
    </g>
   </g>
  </g>
  <g id="axes_2">
   <g id="patch_4">
    <path d="M 155.547472 150.312 
L 733.451973 150.312 
L 733.451973 61.784 
L 155.547472 61.784 
L 155.547472 150.312 
z
" style="fill: none; opacity: 0"/>
   </g>
   <g id="FillBetweenPolyCollection_2">
    <defs>
     <path id="m41ce0b3dbf" d="M 155.547472 -140.666807 
L 155.547472 -130.343312 
L 158.451515 -130.343312 
L 161.355558 -130.343312 
L 164.259601 -130.343312 
L 167.163643 -130.343312 
L 170.067686 -130.343312 
L 172.971729 -130.343312 
L 175.875771 -130.343312 
L 178.779814 -130.343312 
L 181.683857 -130.343312 
L 184.5879 -130.343312 
L 187.491942 -130.343312 
L 190.395985 -130.343312 
L 193.300028 -130.343312 
L 196.20407 -130.343312 
L 199.108113 -130.343312 
L 202.012156 -130.343312 
L 204.916199 -130.343312 
L 207.820241 -130.343312 
L 210.724284 -130.343312 
L 213.628327 -130.343312 
L 216.532369 -130.343312 
L 219.436412 -130.343312 
L 222.340455 -130.343312 
L 225.244498 -130.343312 
L 228.14854 -130.343312 
L 231.052583 -130.343312 
L 233.956626 -130.343312 
L 236.860668 -130.343312 
L 239.764711 -130.343312 
L 242.668754 -130.343312 
L 245.572797 -130.343312 
L 248.476839 -130.343312 
L 251.380882 -130.343312 
L 254.284925 -130.343312 
L 257.188967 -130.343312 
L 260.09301 -130.343312 
L 262.997053 -130.343312 
L 265.901096 -130.343312 
L 268.805138 -130.343312 
L 271.709181 -130.343312 
L 274.613224 -130.343312 
L 277.517266 -130.343312 
L 280.421309 -130.343312 
L 283.325352 -130.343312 
L 286.229395 -130.343312 
L 289.133437 -130.343312 
L 292.03748 -130.343312 
L 294.941523 -130.343312 
L 297.845565 -130.343312 
L 300.749608 -130.343312 
L 303.653651 -130.343312 
L 306.557694 -130.343312 
L 309.461736 -130.343312 
L 312.365779 -130.343312 
L 315.269822 -130.343312 
L 318.173864 -130.343312 
L 321.077907 -130.343312 
L 323.98195 -130.343312 
L 326.885993 -130.343312 
L 329.790035 -130.343312 
L 332.694078 -130.343312 
L 335.598121 -130.343312 
L 338.502163 -130.343312 
L 341.406206 -130.343312 
L 344.310249 -130.343312 
L 347.214292 -130.343312 
L 350.118334 -130.343312 
L 353.022377 -130.343312 
L 355.92642 -130.343312 
L 358.830462 -130.343312 
L 361.734505 -130.343312 
L 364.638548 -130.343312 
L 367.542591 -130.343312 
L 370.446633 -130.343312 
L 373.350676 -130.343312 
L 376.254719 -130.343312 
L 379.158761 -130.343312 
L 382.062804 -130.343312 
L 384.966847 -130.343312 
L 387.87089 -130.343312 
L 390.774932 -130.343312 
L 393.678975 -130.343312 
L 396.583018 -130.343312 
L 399.48706 -130.343312 
L 402.391103 -130.343312 
L 405.295146 -130.343312 
L 408.199189 -130.343312 
L 411.103231 -130.343312 
L 414.007274 -130.343312 
L 416.911317 -130.343312 
L 419.815359 -130.343312 
L 422.719402 -130.343312 
L 425.623445 -130.343312 
L 428.527488 -130.343312 
L 431.43153 -130.343312 
L 434.335573 -130.343312 
L 437.239616 -130.343312 
L 440.143658 -130.343312 
L 443.047701 -130.343312 
L 445.951744 -130.343312 
L 448.855787 -130.343312 
L 451.759829 -130.343312 
L 454.663872 -130.343312 
L 457.567915 -130.343312 
L 460.471957 -130.343312 
L 463.376 -130.343312 
L 466.280043 -130.343312 
L 469.184086 -130.343312 
L 472.088128 -130.343312 
L 474.992171 -130.343312 
L 477.896214 -130.343312 
L 480.800256 -130.343312 
L 483.704299 -130.343312 
L 486.608342 -130.343312 
L 489.512385 -130.343312 
L 492.416427 -130.343312 
L 495.32047 -130.343312 
L 498.224513 -130.343312 
L 501.128555 -130.343312 
L 504.032598 -130.343312 
L 506.936641 -130.343312 
L 509.840684 -130.343312 
L 512.744726 -130.343312 
L 515.648769 -130.343312 
L 518.552812 -130.343312 
L 521.456854 -130.343312 
L 524.360897 -130.343312 
L 527.26494 -130.343312 
L 530.168983 -130.343312 
L 533.073025 -130.343312 
L 535.977068 -130.343312 
L 538.881111 -130.343312 
L 541.785153 -130.343312 
L 544.689196 -130.343312 
L 547.593239 -130.343312 
L 550.497282 -130.343312 
L 553.401324 -130.343312 
L 556.305367 -130.343312 
L 559.20941 -130.343312 
L 562.113452 -130.343312 
L 565.017495 -130.343312 
L 567.921538 -130.343312 
L 570.825581 -130.343312 
L 573.729623 -130.343312 
L 576.633666 -130.343312 
L 579.537709 -130.343312 
L 582.441751 -130.343312 
L 585.345794 -130.343312 
L 588.249837 -130.343312 
L 591.15388 -130.343312 
L 594.057922 -130.343312 
L 596.961965 -130.343312 
L 599.866008 -130.343312 
L 602.77005 -130.343312 
L 605.674093 -130.343312 
L 608.578136 -130.343312 
L 611.482179 -130.343312 
L 614.386221 -130.343312 
L 617.290264 -130.343312 
L 620.194307 -130.343312 
L 623.098349 -130.343312 
L 626.002392 -130.343312 
L 628.906435 -130.343312 
L 631.810478 -130.343312 
L 634.71452 -130.343312 
L 637.618563 -130.343312 
L 640.522606 -130.343312 
L 643.426648 -130.343312 
L 646.330691 -130.343312 
L 649.234734 -130.343312 
L 652.138777 -130.343312 
L 655.042819 -130.343312 
L 657.946862 -130.343312 
L 660.850905 -130.343312 
L 663.754947 -130.343312 
L 666.65899 -130.343312 
L 669.563033 -130.343312 
L 672.467076 -130.343312 
L 675.371118 -130.343312 
L 678.275161 -130.343312 
L 681.179204 -130.343312 
L 684.083246 -130.343312 
L 686.987289 -130.343312 
L 689.891332 -130.343312 
L 692.795375 -130.343312 
L 695.699417 -130.343312 
L 698.60346 -130.343312 
L 701.507503 -130.343312 
L 704.411545 -130.343312 
L 707.315588 -130.343312 
L 710.219631 -130.343312 
L 713.123674 -130.343312 
L 716.027716 -130.343312 
L 718.931759 -130.343312 
L 721.835802 -130.343312 
L 724.739844 -130.343312 
L 727.643887 -130.343312 
L 730.54793 -130.343312 
L 733.451973 -130.343312 
L 733.451973 -150.807692 
L 733.451973 -150.807692 
L 730.54793 -151.447158 
L 727.643887 -152.065121 
L 724.739844 -152.659348 
L 721.835802 -153.227797 
L 718.931759 -153.768646 
L 716.027716 -154.280313 
L 713.123674 -154.761472 
L 710.219631 -155.211077 
L 707.315588 -155.628365 
L 704.411545 -156.012876 
L 701.507503 -156.364449 
L 698.60346 -156.683229 
L 695.699417 -156.969664 
L 692.795375 -157.224498 
L 689.891332 -157.448761 
L 686.987289 -157.643753 
L 684.083246 -157.811032 
L 681.179204 -157.952388 
L 678.275161 -158.069822 
L 675.371118 -158.165518 
L 672.467076 -158.241815 
L 669.563033 -158.301178 
L 666.65899 -158.346164 
L 663.754947 -158.379388 
L 660.850905 -158.403492 
L 657.946862 -158.421111 
L 655.042819 -158.434838 
L 652.138777 -158.447193 
L 649.234734 -158.460589 
L 646.330691 -158.477308 
L 643.426648 -158.499466 
L 640.522606 -158.528994 
L 637.618563 -158.567611 
L 634.71452 -158.616804 
L 631.810478 -158.677815 
L 628.906435 -158.751622 
L 626.002392 -158.838932 
L 623.098349 -158.94017 
L 620.194307 -159.055483 
L 617.290264 -159.184731 
L 614.386221 -159.327495 
L 611.482179 -159.483086 
L 608.578136 -159.650549 
L 605.674093 -159.828681 
L 602.77005 -160.016044 
L 599.866008 -160.210989 
L 596.961965 -160.411669 
L 594.057922 -160.616072 
L 591.15388 -160.822039 
L 588.249837 -161.027299 
L 585.345794 -161.229489 
L 582.441751 -161.426191 
L 579.537709 -161.614961 
L 576.633666 -161.793357 
L 573.729623 -161.958972 
L 570.825581 -162.109464 
L 567.921538 -162.242584 
L 565.017495 -162.356207 
L 562.113452 -162.448354 
L 559.20941 -162.517221 
L 556.305367 -162.561201 
L 553.401324 -162.578899 
L 550.497282 -162.569154 
L 547.593239 -162.531051 
L 544.689196 -162.463931 
L 541.785153 -162.367399 
L 538.881111 -162.241327 
L 535.977068 -162.085855 
L 533.073025 -161.901389 
L 530.168983 -161.68859 
L 527.26494 -161.448371 
L 524.360897 -161.181876 
L 521.456854 -160.890473 
L 518.552812 -160.575729 
L 515.648769 -160.239393 
L 512.744726 -159.883374 
L 509.840684 -159.509719 
L 506.936641 -159.120583 
L 504.032598 -158.718214 
L 501.128555 -158.304917 
L 498.224513 -157.88304 
L 495.32047 -157.454945 
L 492.416427 -157.022987 
L 489.512385 -156.589494 
L 486.608342 -156.156746 
L 483.704299 -155.726964 
L 480.800256 -155.302289 
L 477.896214 -154.884776 
L 474.992171 -154.476383 
L 472.088128 -154.078963 
L 469.184086 -153.694264 
L 466.280043 -153.323926 
L 463.376 -152.969482 
L 460.471957 -152.63236 
L 457.567915 -152.313893 
L 454.663872 -152.015319 
L 451.759829 -151.737795 
L 448.855787 -151.482401 
L 445.951744 -151.25015 
L 443.047701 -151.042001 
L 440.143658 -150.858861 
L 437.239616 -150.701599 
L 434.335573 -150.571046 
L 431.43153 -150.468009 
L 428.527488 -150.393266 
L 425.623445 -150.347574 
L 422.719402 -150.331665 
L 419.815359 -150.346244 
L 416.911317 -150.391986 
L 414.007274 -150.469527 
L 411.103231 -150.579456 
L 408.199189 -150.722301 
L 405.295146 -150.898521 
L 402.391103 -151.108487 
L 399.48706 -151.352467 
L 396.583018 -151.630609 
L 393.678975 -151.942925 
L 390.774932 -152.289271 
L 387.87089 -152.669332 
L 384.966847 -153.082602 
L 382.062804 -153.528369 
L 379.158761 -154.005702 
L 376.254719 -154.513438 
L 373.350676 -155.05017 
L 370.446633 -155.61424 
L 367.542591 -156.203733 
L 364.638548 -156.816479 
L 361.734505 -157.450048 
L 358.830462 -158.101759 
L 355.92642 -158.76869 
L 353.022377 -159.447685 
L 350.118334 -160.135373 
L 347.214292 -160.828185 
L 344.310249 -161.522381 
L 341.406206 -162.214069 
L 338.502163 -162.899238 
L 335.598121 -163.57379 
L 332.694078 -164.233568 
L 329.790035 -164.874397 
L 326.885993 -165.492117 
L 323.98195 -166.082624 
L 321.077907 -166.641904 
L 318.173864 -167.166074 
L 315.269822 -167.651417 
L 312.365779 -168.094421 
L 309.461736 -168.491812 
L 306.557694 -168.840586 
L 303.653651 -169.13804 
L 300.749608 -169.3818 
L 297.845565 -169.569842 
L 294.941523 -169.700513 
L 292.03748 -169.772546 
L 289.133437 -169.785074 
L 286.229395 -169.737631 
L 283.325352 -169.63016 
L 280.421309 -169.46301 
L 277.517266 -169.236923 
L 274.613224 -168.95303 
L 271.709181 -168.61283 
L 268.805138 -168.218173 
L 265.901096 -167.771234 
L 262.997053 -167.274488 
L 260.09301 -166.730678 
L 257.188967 -166.142783 
L 254.284925 -165.513985 
L 251.380882 -164.84763 
L 248.476839 -164.147194 
L 245.572797 -163.416244 
L 242.668754 -162.658399 
L 239.764711 -161.8773 
L 236.860668 -161.076565 
L 233.956626 -160.259765 
L 231.052583 -159.430386 
L 228.14854 -158.591803 
L 225.244498 -157.747253 
L 222.340455 -156.899812 
L 219.436412 -156.052376 
L 216.532369 -155.207646 
L 213.628327 -154.368109 
L 210.724284 -153.53604 
L 207.820241 -152.713485 
L 204.916199 -151.902267 
L 202.012156 -151.103982 
L 199.108113 -150.320008 
L 196.20407 -149.551507 
L 193.300028 -148.799436 
L 190.395985 -148.064559 
L 187.491942 -147.347463 
L 184.5879 -146.648564 
L 181.683857 -145.968134 
L 178.779814 -145.306307 
L 175.875771 -144.663104 
L 172.971729 -144.038444 
L 170.067686 -143.432164 
L 167.163643 -142.844032 
L 164.259601 -142.273764 
L 161.355558 -141.721038 
L 158.451515 -141.185506 
L 155.547472 -140.666807 
z
" style="stroke: #fc8d62"/>
    </defs>
    <g clip-path="url(#p74a7f75395)">
     <use xlink:href="#m41ce0b3dbf" x="0" y="280.655312" style="fill: #fc8d62; fill-opacity: 0.5; stroke: #fc8d62"/>
    </g>
   </g>
   <g id="matplotlib.axis_3">
    <g id="xtick_7">
     <g id="line2d_9">
      <g>
       <use xlink:href="#m5643211933" x="155.547472" y="150.312" style="stroke: #000000; stroke-width: 0.8"/>
      </g>
     </g>
    </g>
    <g id="xtick_8">
     <g id="line2d_10">
      <g>
       <use xlink:href="#m5643211933" x="271.128372" y="150.312" style="stroke: #000000; stroke-width: 0.8"/>
      </g>
     </g>
    </g>
    <g id="xtick_9">
     <g id="line2d_11">
      <g>
       <use xlink:href="#m5643211933" x="386.709272" y="150.312" style="stroke: #000000; stroke-width: 0.8"/>
      </g>
     </g>
    </g>
    <g id="xtick_10">
     <g id="line2d_12">
      <g>
       <use xlink:href="#m5643211933" x="502.290173" y="150.312" style="stroke: #000000; stroke-width: 0.8"/>
      </g>
     </g>
    </g>
    <g id="xtick_11">
     <g id="line2d_13">
      <g>
       <use xlink:href="#m5643211933" x="617.871073" y="150.312" style="stroke: #000000; stroke-width: 0.8"/>
      </g>
     </g>
    </g>
    <g id="xtick_12">
     <g id="line2d_14">
      <g>
       <use xlink:href="#m5643211933" x="733.451973" y="150.312" style="stroke: #000000; stroke-width: 0.8"/>
      </g>
     </g>
    </g>
   </g>
   <g id="matplotlib.axis_4"/>
   <g id="line2d_15">
    <path d="M 155.547472 139.988506 
L 167.163643 137.811281 
L 178.779814 135.349005 
L 190.395985 132.590753 
L 202.012156 129.55133 
L 216.532369 125.447667 
L 239.764711 118.778013 
L 248.476839 116.508118 
L 257.188967 114.512529 
L 262.997053 113.380824 
L 268.805138 112.43714 
L 274.613224 111.702283 
L 280.421309 111.192303 
L 286.229395 110.917682 
L 292.03748 110.882766 
L 297.845565 111.08547 
L 303.653651 111.517272 
L 309.461736 112.163501 
L 315.269822 113.003895 
L 321.077907 114.013408 
L 329.790035 115.780916 
L 341.406206 118.441244 
L 361.734505 123.205265 
L 370.446633 125.041073 
L 379.158761 126.64961 
L 387.87089 127.985981 
L 396.583018 129.024704 
L 405.295146 129.756791 
L 414.007274 130.185785 
L 422.719402 130.323648 
L 431.43153 130.187304 
L 440.143658 129.796451 
L 448.855787 129.172912 
L 457.567915 128.341419 
L 469.184086 126.961048 
L 483.704299 124.928348 
L 509.840684 121.145594 
L 518.552812 120.079584 
L 527.26494 119.206942 
L 535.977068 118.569458 
L 544.689196 118.191382 
L 553.401324 118.076413 
L 562.113452 118.206959 
L 570.825581 118.545848 
L 582.441751 119.229121 
L 614.386221 121.327817 
L 626.002392 121.816381 
L 637.618563 122.087702 
L 655.042819 122.220474 
L 672.467076 122.413497 
L 681.179204 122.702925 
L 689.891332 123.206552 
L 698.60346 123.972083 
L 707.315588 125.026947 
L 716.027716 126.375 
L 724.739844 127.995965 
L 733.451973 129.847621 
L 733.451973 129.847621 
" clip-path="url(#p74a7f75395)" style="fill: none; stroke: #ffffff; stroke-width: 2; stroke-linecap: square"/>
   </g>
   <g id="line2d_16">
    <path d="M 155.547472 150.312 
L 733.451973 150.312 
" style="fill: none; stroke: #000000; stroke-linecap: square"/>
   </g>
   <g id="text_2">
    <g id="patch_5">
     <path d="M 3.24 159.721687 
L 98.8275 159.721687 
L 98.8275 140.902312 
L 3.24 140.902312 
z
" style="fill: #ffffff; opacity: 0.5"/>
    </g>
    <!-- Customer Support -->
    <g transform="translate(7.2 153.194812) scale(0.12 -0.12)">
     <defs>
      <path id="TimesNewRomanPSMT-43" d="M 3853 4334 
L 3950 2894 
L 3853 2894 
Q 3659 3541 3300 3825 
Q 2941 4109 2438 4109 
Q 2016 4109 1675 3895 
Q 1334 3681 1139 3212 
Q 944 2744 944 2047 
Q 944 1472 1128 1050 
Q 1313 628 1683 403 
Q 2053 178 2528 178 
Q 2941 178 3256 354 
Q 3572 531 3950 1056 
L 4047 994 
Q 3728 428 3303 165 
Q 2878 -97 2294 -97 
Q 1241 -97 663 684 
Q 231 1266 231 2053 
Q 231 2688 515 3219 
Q 800 3750 1298 4042 
Q 1797 4334 2388 4334 
Q 2847 4334 3294 4109 
Q 3425 4041 3481 4041 
Q 3566 4041 3628 4100 
Q 3709 4184 3744 4334 
L 3853 4334 
z
" transform="scale(0.015625)"/>
      <path id="TimesNewRomanPSMT-6d" d="M 1050 2338 
Q 1363 2650 1419 2697 
Q 1559 2816 1721 2881 
Q 1884 2947 2044 2947 
Q 2313 2947 2506 2790 
Q 2700 2634 2766 2338 
Q 3088 2713 3309 2830 
Q 3531 2947 3766 2947 
Q 3994 2947 4170 2830 
Q 4347 2713 4450 2447 
Q 4519 2266 4519 1878 
L 4519 647 
Q 4519 378 4559 278 
Q 4591 209 4675 161 
Q 4759 113 4950 113 
L 4950 0 
L 3538 0 
L 3538 113 
L 3597 113 
Q 3781 113 3884 184 
Q 3956 234 3988 344 
Q 4000 397 4000 647 
L 4000 1878 
Q 4000 2228 3916 2372 
Q 3794 2572 3525 2572 
Q 3359 2572 3192 2489 
Q 3025 2406 2788 2181 
L 2781 2147 
L 2788 2013 
L 2788 647 
Q 2788 353 2820 281 
Q 2853 209 2943 161 
Q 3034 113 3253 113 
L 3253 0 
L 1806 0 
L 1806 113 
Q 2044 113 2133 169 
Q 2222 225 2256 338 
Q 2272 391 2272 647 
L 2272 1878 
Q 2272 2228 2169 2381 
Q 2031 2581 1784 2581 
Q 1616 2581 1450 2491 
Q 1191 2353 1050 2181 
L 1050 647 
Q 1050 366 1089 281 
Q 1128 197 1204 155 
Q 1281 113 1516 113 
L 1516 0 
L 100 0 
L 100 113 
Q 297 113 375 155 
Q 453 197 493 289 
Q 534 381 534 647 
L 534 1741 
Q 534 2213 506 2350 
Q 484 2453 437 2492 
Q 391 2531 309 2531 
Q 222 2531 100 2484 
L 53 2597 
L 916 2947 
L 1050 2947 
L 1050 2338 
z
" transform="scale(0.015625)"/>
      <path id="TimesNewRomanPSMT-53" d="M 2934 4334 
L 2934 2869 
L 2819 2869 
Q 2763 3291 2617 3541 
Q 2472 3791 2203 3937 
Q 1934 4084 1647 4084 
Q 1322 4084 1109 3886 
Q 897 3688 897 3434 
Q 897 3241 1031 3081 
Q 1225 2847 1953 2456 
Q 2547 2138 2764 1967 
Q 2981 1797 3098 1565 
Q 3216 1334 3216 1081 
Q 3216 600 2842 251 
Q 2469 -97 1881 -97 
Q 1697 -97 1534 -69 
Q 1438 -53 1133 45 
Q 828 144 747 144 
Q 669 144 623 97 
Q 578 50 556 -97 
L 441 -97 
L 441 1356 
L 556 1356 
Q 638 900 775 673 
Q 913 447 1195 297 
Q 1478 147 1816 147 
Q 2206 147 2432 353 
Q 2659 559 2659 841 
Q 2659 997 2573 1156 
Q 2488 1316 2306 1453 
Q 2184 1547 1640 1851 
Q 1097 2156 867 2337 
Q 638 2519 519 2737 
Q 400 2956 400 3219 
Q 400 3675 750 4004 
Q 1100 4334 1641 4334 
Q 1978 4334 2356 4169 
Q 2531 4091 2603 4091 
Q 2684 4091 2736 4139 
Q 2788 4188 2819 4334 
L 2934 4334 
z
" transform="scale(0.015625)"/>
      <path id="TimesNewRomanPSMT-70" d="M -6 2578 
L 875 2934 
L 994 2934 
L 994 2266 
Q 1216 2644 1439 2795 
Q 1663 2947 1909 2947 
Q 2341 2947 2628 2609 
Q 2981 2197 2981 1534 
Q 2981 794 2556 309 
Q 2206 -88 1675 -88 
Q 1444 -88 1275 -22 
Q 1150 25 994 166 
L 994 -706 
Q 994 -1000 1030 -1079 
Q 1066 -1159 1155 -1206 
Q 1244 -1253 1478 -1253 
L 1478 -1369 
L -22 -1369 
L -22 -1253 
L 56 -1253 
Q 228 -1256 350 -1188 
Q 409 -1153 442 -1076 
Q 475 -1000 475 -688 
L 475 2019 
Q 475 2297 450 2372 
Q 425 2447 370 2484 
Q 316 2522 222 2522 
Q 147 2522 31 2478 
L -6 2578 
z
M 994 2081 
L 994 1013 
Q 994 666 1022 556 
Q 1066 375 1236 237 
Q 1406 100 1666 100 
Q 1978 100 2172 344 
Q 2425 663 2425 1241 
Q 2425 1897 2138 2250 
Q 1938 2494 1663 2494 
Q 1513 2494 1366 2419 
Q 1253 2363 994 2081 
z
" transform="scale(0.015625)"/>
     </defs>
     <use xlink:href="#TimesNewRomanPSMT-43"/>
     <use xlink:href="#TimesNewRomanPSMT-75" transform="translate(66.699219 0)"/>
     <use xlink:href="#TimesNewRomanPSMT-73" transform="translate(116.699219 0)"/>
     <use xlink:href="#TimesNewRomanPSMT-74" transform="translate(155.615234 0)"/>
     <use xlink:href="#TimesNewRomanPSMT-6f" transform="translate(183.398438 0)"/>
     <use xlink:href="#TimesNewRomanPSMT-6d" transform="translate(233.398438 0)"/>
     <use xlink:href="#TimesNewRomanPSMT-65" transform="translate(311.181641 0)"/>
     <use xlink:href="#TimesNewRomanPSMT-72" transform="translate(355.566406 0)"/>
     <use xlink:href="#TimesNewRomanPSMT-20" transform="translate(388.867188 0)"/>
     <use xlink:href="#TimesNewRomanPSMT-53" transform="translate(413.867188 0)"/>
     <use xlink:href="#TimesNewRomanPSMT-75" transform="translate(469.482422 0)"/>
     <use xlink:href="#TimesNewRomanPSMT-70" transform="translate(519.482422 0)"/>
     <use xlink:href="#TimesNewRomanPSMT-70" transform="translate(569.482422 0)"/>
     <use xlink:href="#TimesNewRomanPSMT-6f" transform="translate(619.482422 0)"/>
     <use xlink:href="#TimesNewRomanPSMT-72" transform="translate(669.482422 0)"/>
     <use xlink:href="#TimesNewRomanPSMT-74" transform="translate(702.783203 0)"/>
    </g>
   </g>
  </g>
  <g id="axes_3">
   <g id="patch_6">
    <path d="M 155.547472 194.576 
L 733.451973 194.576 
L 733.451973 106.048 
L 155.547472 106.048 
L 155.547472 194.576 
z
" style="fill: none; opacity: 0"/>
   </g>
   <g id="FillBetweenPolyCollection_3">
    <defs>
     <path id="mb9e8e66810" d="M 155.547472 -143.902651 
L 155.547472 -86.079312 
L 158.451515 -86.079312 
L 161.355558 -86.079312 
L 164.259601 -86.079312 
L 167.163643 -86.079312 
L 170.067686 -86.079312 
L 172.971729 -86.079312 
L 175.875771 -86.079312 
L 178.779814 -86.079312 
L 181.683857 -86.079312 
L 184.5879 -86.079312 
L 187.491942 -86.079312 
L 190.395985 -86.079312 
L 193.300028 -86.079312 
L 196.20407 -86.079312 
L 199.108113 -86.079312 
L 202.012156 -86.079312 
L 204.916199 -86.079312 
L 207.820241 -86.079312 
L 210.724284 -86.079312 
L 213.628327 -86.079312 
L 216.532369 -86.079312 
L 219.436412 -86.079312 
L 222.340455 -86.079312 
L 225.244498 -86.079312 
L 228.14854 -86.079312 
L 231.052583 -86.079312 
L 233.956626 -86.079312 
L 236.860668 -86.079312 
L 239.764711 -86.079312 
L 242.668754 -86.079312 
L 245.572797 -86.079312 
L 248.476839 -86.079312 
L 251.380882 -86.079312 
L 254.284925 -86.079312 
L 257.188967 -86.079312 
L 260.09301 -86.079312 
L 262.997053 -86.079312 
L 265.901096 -86.079312 
L 268.805138 -86.079312 
L 271.709181 -86.079312 
L 274.613224 -86.079312 
L 277.517266 -86.079312 
L 280.421309 -86.079312 
L 283.325352 -86.079312 
L 286.229395 -86.079312 
L 289.133437 -86.079312 
L 292.03748 -86.079312 
L 294.941523 -86.079312 
L 297.845565 -86.079312 
L 300.749608 -86.079312 
L 303.653651 -86.079312 
L 306.557694 -86.079312 
L 309.461736 -86.079312 
L 312.365779 -86.079312 
L 315.269822 -86.079312 
L 318.173864 -86.079312 
L 321.077907 -86.079312 
L 323.98195 -86.079312 
L 326.885993 -86.079312 
L 329.790035 -86.079312 
L 332.694078 -86.079312 
L 335.598121 -86.079312 
L 338.502163 -86.079312 
L 341.406206 -86.079312 
L 344.310249 -86.079312 
L 347.214292 -86.079312 
L 350.118334 -86.079312 
L 353.022377 -86.079312 
L 355.92642 -86.079312 
L 358.830462 -86.079312 
L 361.734505 -86.079312 
L 364.638548 -86.079312 
L 367.542591 -86.079312 
L 370.446633 -86.079312 
L 373.350676 -86.079312 
L 376.254719 -86.079312 
L 379.158761 -86.079312 
L 382.062804 -86.079312 
L 384.966847 -86.079312 
L 387.87089 -86.079312 
L 390.774932 -86.079312 
L 393.678975 -86.079312 
L 396.583018 -86.079312 
L 399.48706 -86.079312 
L 402.391103 -86.079312 
L 405.295146 -86.079312 
L 408.199189 -86.079312 
L 411.103231 -86.079312 
L 414.007274 -86.079312 
L 416.911317 -86.079312 
L 419.815359 -86.079312 
L 422.719402 -86.079312 
L 425.623445 -86.079312 
L 428.527488 -86.079312 
L 431.43153 -86.079312 
L 434.335573 -86.079312 
L 437.239616 -86.079312 
L 440.143658 -86.079312 
L 443.047701 -86.079312 
L 445.951744 -86.079312 
L 448.855787 -86.079312 
L 451.759829 -86.079312 
L 454.663872 -86.079312 
L 457.567915 -86.079312 
L 460.471957 -86.079312 
L 463.376 -86.079312 
L 466.280043 -86.079312 
L 469.184086 -86.079312 
L 472.088128 -86.079312 
L 474.992171 -86.079312 
L 477.896214 -86.079312 
L 480.800256 -86.079312 
L 483.704299 -86.079312 
L 486.608342 -86.079312 
L 489.512385 -86.079312 
L 492.416427 -86.079312 
L 495.32047 -86.079312 
L 498.224513 -86.079312 
L 501.128555 -86.079312 
L 504.032598 -86.079312 
L 506.936641 -86.079312 
L 509.840684 -86.079312 
L 512.744726 -86.079312 
L 515.648769 -86.079312 
L 518.552812 -86.079312 
L 521.456854 -86.079312 
L 524.360897 -86.079312 
L 527.26494 -86.079312 
L 530.168983 -86.079312 
L 533.073025 -86.079312 
L 535.977068 -86.079312 
L 538.881111 -86.079312 
L 541.785153 -86.079312 
L 544.689196 -86.079312 
L 547.593239 -86.079312 
L 550.497282 -86.079312 
L 553.401324 -86.079312 
L 556.305367 -86.079312 
L 559.20941 -86.079312 
L 562.113452 -86.079312 
L 565.017495 -86.079312 
L 567.921538 -86.079312 
L 570.825581 -86.079312 
L 573.729623 -86.079312 
L 576.633666 -86.079312 
L 579.537709 -86.079312 
L 582.441751 -86.079312 
L 585.345794 -86.079312 
L 588.249837 -86.079312 
L 591.15388 -86.079312 
L 594.057922 -86.079312 
L 596.961965 -86.079312 
L 599.866008 -86.079312 
L 602.77005 -86.079312 
L 605.674093 -86.079312 
L 608.578136 -86.079312 
L 611.482179 -86.079312 
L 614.386221 -86.079312 
L 617.290264 -86.079312 
L 620.194307 -86.079312 
L 623.098349 -86.079312 
L 626.002392 -86.079312 
L 628.906435 -86.079312 
L 631.810478 -86.079312 
L 634.71452 -86.079312 
L 637.618563 -86.079312 
L 640.522606 -86.079312 
L 643.426648 -86.079312 
L 646.330691 -86.079312 
L 649.234734 -86.079312 
L 652.138777 -86.079312 
L 655.042819 -86.079312 
L 657.946862 -86.079312 
L 660.850905 -86.079312 
L 663.754947 -86.079312 
L 666.65899 -86.079312 
L 669.563033 -86.079312 
L 672.467076 -86.079312 
L 675.371118 -86.079312 
L 678.275161 -86.079312 
L 681.179204 -86.079312 
L 684.083246 -86.079312 
L 686.987289 -86.079312 
L 689.891332 -86.079312 
L 692.795375 -86.079312 
L 695.699417 -86.079312 
L 698.60346 -86.079312 
L 701.507503 -86.079312 
L 704.411545 -86.079312 
L 707.315588 -86.079312 
L 710.219631 -86.079312 
L 713.123674 -86.079312 
L 716.027716 -86.079312 
L 718.931759 -86.079312 
L 721.835802 -86.079312 
L 724.739844 -86.079312 
L 727.643887 -86.079312 
L 730.54793 -86.079312 
L 733.451973 -86.079312 
L 733.451973 -95.592335 
L 733.451973 -95.592335 
L 730.54793 -95.966446 
L 727.643887 -96.334492 
L 724.739844 -96.694755 
L 721.835802 -97.045506 
L 718.931759 -97.385025 
L 716.027716 -97.711619 
L 713.123674 -98.023634 
L 710.219631 -98.319476 
L 707.315588 -98.59763 
L 704.411545 -98.85667 
L 701.507503 -99.095285 
L 698.60346 -99.312287 
L 695.699417 -99.506629 
L 692.795375 -99.677421 
L 689.891332 -99.823937 
L 686.987289 -99.945627 
L 684.083246 -100.042129 
L 681.179204 -100.11327 
L 678.275161 -100.15907 
L 675.371118 -100.179746 
L 672.467076 -100.175709 
L 669.563033 -100.147559 
L 666.65899 -100.09608 
L 663.754947 -100.022229 
L 660.850905 -99.927127 
L 657.946862 -99.81204 
L 655.042819 -99.678371 
L 652.138777 -99.527635 
L 649.234734 -99.361443 
L 646.330691 -99.181482 
L 643.426648 -98.989493 
L 640.522606 -98.78725 
L 637.618563 -98.576538 
L 634.71452 -98.359132 
L 631.810478 -98.136775 
L 628.906435 -97.911161 
L 626.002392 -97.683914 
L 623.098349 -97.456576 
L 620.194307 -97.230586 
L 617.290264 -97.007275 
L 614.386221 -96.787851 
L 611.482179 -96.573393 
L 608.578136 -96.364846 
L 605.674093 -96.16302 
L 602.77005 -95.96859 
L 599.866008 -95.782096 
L 596.961965 -95.60395 
L 594.057922 -95.434444 
L 591.15388 -95.273755 
L 588.249837 -95.121957 
L 585.345794 -94.979031 
L 582.441751 -94.844879 
L 579.537709 -94.719335 
L 576.633666 -94.602176 
L 573.729623 -94.493139 
L 570.825581 -94.391926 
L 567.921538 -94.298221 
L 565.017495 -94.2117 
L 562.113452 -94.132034 
L 559.20941 -94.058905 
L 556.305367 -93.992006 
L 553.401324 -93.931049 
L 550.497282 -93.875765 
L 547.593239 -93.825913 
L 544.689196 -93.78127 
L 541.785153 -93.741639 
L 538.881111 -93.706844 
L 535.977068 -93.676727 
L 533.073025 -93.651143 
L 530.168983 -93.629962 
L 527.26494 -93.613058 
L 524.360897 -93.600309 
L 521.456854 -93.591593 
L 518.552812 -93.586783 
L 515.648769 -93.585746 
L 512.744726 -93.588341 
L 509.840684 -93.594416 
L 506.936641 -93.603811 
L 504.032598 -93.616356 
L 501.128555 -93.631877 
L 498.224513 -93.650193 
L 495.32047 -93.671126 
L 492.416427 -93.694502 
L 489.512385 -93.720158 
L 486.608342 -93.747945 
L 483.704299 -93.77774 
L 480.800256 -93.809447 
L 477.896214 -93.843003 
L 474.992171 -93.87839 
L 472.088128 -93.915633 
L 469.184086 -93.95481 
L 466.280043 -93.996053 
L 463.376 -94.039556 
L 460.471957 -94.085571 
L 457.567915 -94.134411 
L 454.663872 -94.186454 
L 451.759829 -94.242137 
L 448.855787 -94.301956 
L 445.951744 -94.36646 
L 443.047701 -94.436251 
L 440.143658 -94.511974 
L 437.239616 -94.594314 
L 434.335573 -94.683989 
L 431.43153 -94.781743 
L 428.527488 -94.888335 
L 425.623445 -95.004537 
L 422.719402 -95.131123 
L 419.815359 -95.268867 
L 416.911317 -95.418527 
L 414.007274 -95.580851 
L 411.103231 -95.756562 
L 408.199189 -95.946361 
L 405.295146 -96.150919 
L 402.391103 -96.370879 
L 399.48706 -96.606855 
L 396.583018 -96.859429 
L 393.678975 -97.129159 
L 390.774932 -97.416577 
L 387.87089 -97.722198 
L 384.966847 -98.046522 
L 382.062804 -98.390044 
L 379.158761 -98.753263 
L 376.254719 -99.136685 
L 373.350676 -99.540841 
L 370.446633 -99.966289 
L 367.542591 -100.413631 
L 364.638548 -100.883517 
L 361.734505 -101.376662 
L 358.830462 -101.893849 
L 355.92642 -102.435943 
L 353.022377 -103.003894 
L 350.118334 -103.598744 
L 347.214292 -104.221634 
L 344.310249 -104.8738 
L 341.406206 -105.55658 
L 338.502163 -106.271399 
L 335.598121 -107.019775 
L 332.694078 -107.803297 
L 329.790035 -108.623618 
L 326.885993 -109.482434 
L 323.98195 -110.381464 
L 321.077907 -111.322421 
L 318.173864 -112.306984 
L 315.269822 -113.336765 
L 312.365779 -114.413269 
L 309.461736 -115.537854 
L 306.557694 -116.71169 
L 303.653651 -117.935706 
L 300.749608 -119.210551 
L 297.845565 -120.536538 
L 294.941523 -121.913596 
L 292.03748 -123.341223 
L 289.133437 -124.818436 
L 286.229395 -126.343731 
L 283.325352 -127.915034 
L 280.421309 -129.529673 
L 277.517266 -131.184341 
L 274.613224 -132.875074 
L 271.709181 -134.597234 
L 268.805138 -136.345502 
L 265.901096 -138.113878 
L 262.997053 -139.895694 
L 260.09301 -141.683633 
L 257.188967 -143.469766 
L 254.284925 -145.24559 
L 251.380882 -147.002089 
L 248.476839 -148.729792 
L 245.572797 -150.418854 
L 242.668754 -152.05914 
L 239.764711 -153.640315 
L 236.860668 -155.151949 
L 233.956626 -156.583619 
L 231.052583 -157.925025 
L 228.14854 -159.166102 
L 225.244498 -160.297137 
L 222.340455 -161.308882 
L 219.436412 -162.192668 
L 216.532369 -162.940517 
L 213.628327 -163.545238 
L 210.724284 -164.000527 
L 207.820241 -164.30105 
L 204.916199 -164.442518 
L 202.012156 -164.421748 
L 199.108113 -164.236714 
L 196.20407 -163.886579 
L 193.300028 -163.371715 
L 190.395985 -162.693707 
L 187.491942 -161.855343 
L 184.5879 -160.860587 
L 181.683857 -159.714535 
L 178.779814 -158.423364 
L 175.875771 -156.994261 
L 172.971729 -155.435342 
L 170.067686 -153.755561 
L 167.163643 -151.964612 
L 164.259601 -150.072817 
L 161.355558 -148.091018 
L 158.451515 -146.030456 
L 155.547472 -143.902651 
z
" style="stroke: #8da0cb"/>
    </defs>
    <g clip-path="url(#pec96f91f03)">
     <use xlink:href="#mb9e8e66810" x="0" y="280.655312" style="fill: #8da0cb; fill-opacity: 0.5; stroke: #8da0cb"/>
    </g>
   </g>
   <g id="matplotlib.axis_5">
    <g id="xtick_13">
     <g id="line2d_17">
      <g>
       <use xlink:href="#m5643211933" x="155.547472" y="194.576" style="stroke: #000000; stroke-width: 0.8"/>
      </g>
     </g>
    </g>
    <g id="xtick_14">
     <g id="line2d_18">
      <g>
       <use xlink:href="#m5643211933" x="271.128372" y="194.576" style="stroke: #000000; stroke-width: 0.8"/>
      </g>
     </g>
    </g>
    <g id="xtick_15">
     <g id="line2d_19">
      <g>
       <use xlink:href="#m5643211933" x="386.709272" y="194.576" style="stroke: #000000; stroke-width: 0.8"/>
      </g>
     </g>
    </g>
    <g id="xtick_16">
     <g id="line2d_20">
      <g>
       <use xlink:href="#m5643211933" x="502.290173" y="194.576" style="stroke: #000000; stroke-width: 0.8"/>
      </g>
     </g>
    </g>
    <g id="xtick_17">
     <g id="line2d_21">
      <g>
       <use xlink:href="#m5643211933" x="617.871073" y="194.576" style="stroke: #000000; stroke-width: 0.8"/>
      </g>
     </g>
    </g>
    <g id="xtick_18">
     <g id="line2d_22">
      <g>
       <use xlink:href="#m5643211933" x="733.451973" y="194.576" style="stroke: #000000; stroke-width: 0.8"/>
      </g>
     </g>
    </g>
   </g>
   <g id="matplotlib.axis_6"/>
   <g id="line2d_23">
    <path d="M 155.547472 136.752661 
L 161.355558 132.564294 
L 167.163643 128.690701 
L 172.971729 125.21997 
L 175.875771 123.661051 
L 178.779814 122.231948 
L 181.683857 120.940777 
L 184.5879 119.794726 
L 187.491942 118.79997 
L 190.395985 117.961606 
L 193.300028 117.283598 
L 196.20407 116.768733 
L 199.108113 116.418598 
L 202.012156 116.233564 
L 204.916199 116.212794 
L 207.820241 116.354262 
L 210.724284 116.654785 
L 213.628327 117.110074 
L 216.532369 117.714795 
L 219.436412 118.462644 
L 222.340455 119.346431 
L 225.244498 120.358176 
L 231.052583 122.730287 
L 236.860668 125.503364 
L 242.668754 128.596172 
L 248.476839 131.925521 
L 257.188967 137.185546 
L 274.613224 147.780239 
L 283.325352 152.740278 
L 289.133437 155.836876 
L 294.941523 158.741717 
L 300.749608 161.444761 
L 306.557694 163.943623 
L 312.365779 166.242044 
L 318.173864 168.348328 
L 323.98195 170.273848 
L 329.790035 172.031695 
L 338.502163 174.383913 
L 347.214292 176.433679 
L 355.92642 178.219369 
L 364.638548 179.771795 
L 373.350676 181.114471 
L 382.062804 182.265268 
L 390.774932 183.238735 
L 402.391103 184.284433 
L 414.007274 185.074462 
L 425.623445 185.650776 
L 440.143658 186.143339 
L 460.471957 186.569742 
L 489.512385 186.935155 
L 515.648769 187.069566 
L 535.977068 186.978586 
L 556.305367 186.663306 
L 573.729623 186.162174 
L 588.249837 185.533356 
L 602.77005 184.686723 
L 620.194307 183.424726 
L 646.330691 181.473831 
L 657.946862 180.843272 
L 666.65899 180.559232 
L 675.371118 180.475566 
L 684.083246 180.613183 
L 692.795375 180.977891 
L 701.507503 181.560028 
L 710.219631 182.335836 
L 721.835802 183.609806 
L 733.451973 185.062977 
L 733.451973 185.062977 
" clip-path="url(#pec96f91f03)" style="fill: none; stroke: #ffffff; stroke-width: 2; stroke-linecap: square"/>
   </g>
   <g id="line2d_24">
    <path d="M 155.547472 194.576 
L 733.451973 194.576 
" style="fill: none; stroke: #000000; stroke-linecap: square"/>
   </g>
   <g id="text_3">
    <g id="patch_7">
     <path d="M 4.588125 203.996937 
L 98.8275 203.996937 
L 98.8275 185.155062 
L 4.588125 185.155062 
z
" style="fill: #ffffff; opacity: 0.5"/>
    </g>
    <!-- Loyalty Programs -->
    <g transform="translate(8.548125 197.447562) scale(0.12 -0.12)">
     <defs>
      <path id="TimesNewRomanPSMT-4c" d="M 3669 1172 
L 3772 1150 
L 3409 0 
L 128 0 
L 128 116 
L 288 116 
Q 556 116 672 291 
Q 738 391 738 753 
L 738 3488 
Q 738 3884 650 3984 
Q 528 4122 288 4122 
L 128 4122 
L 128 4238 
L 2047 4238 
L 2047 4122 
Q 1709 4125 1573 4059 
Q 1438 3994 1388 3894 
Q 1338 3794 1338 3416 
L 1338 753 
Q 1338 494 1388 397 
Q 1425 331 1503 300 
Q 1581 269 1991 269 
L 2300 269 
Q 2788 269 2984 341 
Q 3181 413 3343 595 
Q 3506 778 3669 1172 
z
" transform="scale(0.015625)"/>
      <path id="TimesNewRomanPSMT-79" d="M 38 2863 
L 1372 2863 
L 1372 2747 
L 1306 2747 
Q 1166 2747 1095 2686 
Q 1025 2625 1025 2534 
Q 1025 2413 1128 2197 
L 1825 753 
L 2466 2334 
Q 2519 2463 2519 2588 
Q 2519 2644 2497 2672 
Q 2472 2706 2419 2726 
Q 2366 2747 2231 2747 
L 2231 2863 
L 3163 2863 
L 3163 2747 
Q 3047 2734 2984 2696 
Q 2922 2659 2847 2556 
Q 2819 2513 2741 2316 
L 1575 -541 
Q 1406 -956 1132 -1168 
Q 859 -1381 606 -1381 
Q 422 -1381 303 -1275 
Q 184 -1169 184 -1031 
Q 184 -900 270 -820 
Q 356 -741 506 -741 
Q 609 -741 788 -809 
Q 913 -856 944 -856 
Q 1038 -856 1148 -759 
Q 1259 -663 1372 -384 
L 1575 113 
L 547 2272 
Q 500 2369 397 2513 
Q 319 2622 269 2659 
Q 197 2709 38 2747 
L 38 2863 
z
" transform="scale(0.015625)"/>
      <path id="TimesNewRomanPSMT-61" d="M 1822 413 
Q 1381 72 1269 19 
Q 1100 -59 909 -59 
Q 613 -59 420 144 
Q 228 347 228 678 
Q 228 888 322 1041 
Q 450 1253 767 1440 
Q 1084 1628 1822 1897 
L 1822 2009 
Q 1822 2438 1686 2597 
Q 1550 2756 1291 2756 
Q 1094 2756 978 2650 
Q 859 2544 859 2406 
L 866 2225 
Q 866 2081 792 2003 
Q 719 1925 600 1925 
Q 484 1925 411 2006 
Q 338 2088 338 2228 
Q 338 2497 613 2722 
Q 888 2947 1384 2947 
Q 1766 2947 2009 2819 
Q 2194 2722 2281 2516 
Q 2338 2381 2338 1966 
L 2338 994 
Q 2338 584 2353 492 
Q 2369 400 2405 369 
Q 2441 338 2488 338 
Q 2538 338 2575 359 
Q 2641 400 2828 588 
L 2828 413 
Q 2478 -56 2159 -56 
Q 2006 -56 1915 50 
Q 1825 156 1822 413 
z
M 1822 616 
L 1822 1706 
Q 1350 1519 1213 1441 
Q 966 1303 859 1153 
Q 753 1003 753 825 
Q 753 600 887 451 
Q 1022 303 1197 303 
Q 1434 303 1822 616 
z
" transform="scale(0.015625)"/>
      <path id="TimesNewRomanPSMT-67" d="M 966 1044 
Q 703 1172 562 1401 
Q 422 1631 422 1909 
Q 422 2334 742 2640 
Q 1063 2947 1563 2947 
Q 1972 2947 2272 2747 
L 2878 2747 
Q 3013 2747 3034 2739 
Q 3056 2731 3066 2713 
Q 3084 2684 3084 2613 
Q 3084 2531 3069 2500 
Q 3059 2484 3036 2475 
Q 3013 2466 2878 2466 
L 2506 2466 
Q 2681 2241 2681 1891 
Q 2681 1491 2375 1206 
Q 2069 922 1553 922 
Q 1341 922 1119 984 
Q 981 866 932 777 
Q 884 688 884 625 
Q 884 572 936 522 
Q 988 472 1138 450 
Q 1225 438 1575 428 
Q 2219 413 2409 384 
Q 2700 344 2873 169 
Q 3047 -6 3047 -263 
Q 3047 -616 2716 -925 
Q 2228 -1381 1444 -1381 
Q 841 -1381 425 -1109 
Q 191 -953 191 -784 
Q 191 -709 225 -634 
Q 278 -519 444 -313 
Q 466 -284 763 25 
Q 600 122 533 198 
Q 466 275 466 372 
Q 466 481 555 628 
Q 644 775 966 1044 
z
M 1509 2797 
Q 1278 2797 1122 2612 
Q 966 2428 966 2047 
Q 966 1553 1178 1281 
Q 1341 1075 1591 1075 
Q 1828 1075 1981 1253 
Q 2134 1431 2134 1813 
Q 2134 2309 1919 2591 
Q 1759 2797 1509 2797 
z
M 934 0 
Q 788 -159 713 -296 
Q 638 -434 638 -550 
Q 638 -700 819 -813 
Q 1131 -1006 1722 -1006 
Q 2284 -1006 2551 -807 
Q 2819 -609 2819 -384 
Q 2819 -222 2659 -153 
Q 2497 -84 2016 -72 
Q 1313 -53 934 0 
z
" transform="scale(0.015625)"/>
     </defs>
     <use xlink:href="#TimesNewRomanPSMT-4c"/>
     <use xlink:href="#TimesNewRomanPSMT-6f" transform="translate(61.083984 0)"/>
     <use xlink:href="#TimesNewRomanPSMT-79" transform="translate(111.083984 0)"/>
     <use xlink:href="#TimesNewRomanPSMT-61" transform="translate(161.083984 0)"/>
     <use xlink:href="#TimesNewRomanPSMT-6c" transform="translate(205.46875 0)"/>
     <use xlink:href="#TimesNewRomanPSMT-74" transform="translate(233.251953 0)"/>
     <use xlink:href="#TimesNewRomanPSMT-79" transform="translate(261.035156 0)"/>
     <use xlink:href="#TimesNewRomanPSMT-20" transform="translate(311.035156 0)"/>
     <use xlink:href="#TimesNewRomanPSMT-50" transform="translate(336.035156 0)"/>
     <use xlink:href="#TimesNewRomanPSMT-72" transform="translate(391.650391 0)"/>
     <use xlink:href="#TimesNewRomanPSMT-6f" transform="translate(424.951172 0)"/>
     <use xlink:href="#TimesNewRomanPSMT-67" transform="translate(474.951172 0)"/>
     <use xlink:href="#TimesNewRomanPSMT-72" transform="translate(524.951172 0)"/>
     <use xlink:href="#TimesNewRomanPSMT-61" transform="translate(558.251953 0)"/>
     <use xlink:href="#TimesNewRomanPSMT-6d" transform="translate(602.636719 0)"/>
     <use xlink:href="#TimesNewRomanPSMT-73" transform="translate(680.419922 0)"/>
    </g>
   </g>
  </g>
  <g id="axes_4">
   <g id="patch_8">
    <path d="M 155.547472 238.84 
L 733.451973 238.84 
L 733.451973 150.312 
L 155.547472 150.312 
L 155.547472 238.84 
z
" style="fill: none; opacity: 0"/>
   </g>
   <g id="FillBetweenPolyCollection_4">
    <defs>
     <path id="m62eaa414c0" d="M 155.547472 -81.06596 
L 155.547472 -41.815313 
L 158.451515 -41.815313 
L 161.355558 -41.815313 
L 164.259601 -41.815313 
L 167.163643 -41.815313 
L 170.067686 -41.815313 
L 172.971729 -41.815313 
L 175.875771 -41.815313 
L 178.779814 -41.815313 
L 181.683857 -41.815313 
L 184.5879 -41.815313 
L 187.491942 -41.815313 
L 190.395985 -41.815313 
L 193.300028 -41.815313 
L 196.20407 -41.815313 
L 199.108113 -41.815313 
L 202.012156 -41.815313 
L 204.916199 -41.815313 
L 207.820241 -41.815313 
L 210.724284 -41.815313 
L 213.628327 -41.815313 
L 216.532369 -41.815313 
L 219.436412 -41.815313 
L 222.340455 -41.815313 
L 225.244498 -41.815313 
L 228.14854 -41.815313 
L 231.052583 -41.815313 
L 233.956626 -41.815313 
L 236.860668 -41.815313 
L 239.764711 -41.815313 
L 242.668754 -41.815313 
L 245.572797 -41.815313 
L 248.476839 -41.815313 
L 251.380882 -41.815313 
L 254.284925 -41.815313 
L 257.188967 -41.815313 
L 260.09301 -41.815313 
L 262.997053 -41.815313 
L 265.901096 -41.815313 
L 268.805138 -41.815313 
L 271.709181 -41.815313 
L 274.613224 -41.815313 
L 277.517266 -41.815313 
L 280.421309 -41.815313 
L 283.325352 -41.815313 
L 286.229395 -41.815313 
L 289.133437 -41.815313 
L 292.03748 -41.815313 
L 294.941523 -41.815313 
L 297.845565 -41.815313 
L 300.749608 -41.815313 
L 303.653651 -41.815313 
L 306.557694 -41.815313 
L 309.461736 -41.815313 
L 312.365779 -41.815313 
L 315.269822 -41.815313 
L 318.173864 -41.815313 
L 321.077907 -41.815313 
L 323.98195 -41.815313 
L 326.885993 -41.815313 
L 329.790035 -41.815313 
L 332.694078 -41.815313 
L 335.598121 -41.815313 
L 338.502163 -41.815313 
L 341.406206 -41.815313 
L 344.310249 -41.815313 
L 347.214292 -41.815313 
L 350.118334 -41.815313 
L 353.022377 -41.815313 
L 355.92642 -41.815313 
L 358.830462 -41.815313 
L 361.734505 -41.815313 
L 364.638548 -41.815313 
L 367.542591 -41.815313 
L 370.446633 -41.815313 
L 373.350676 -41.815313 
L 376.254719 -41.815313 
L 379.158761 -41.815313 
L 382.062804 -41.815313 
L 384.966847 -41.815313 
L 387.87089 -41.815313 
L 390.774932 -41.815313 
L 393.678975 -41.815313 
L 396.583018 -41.815313 
L 399.48706 -41.815313 
L 402.391103 -41.815313 
L 405.295146 -41.815313 
L 408.199189 -41.815313 
L 411.103231 -41.815313 
L 414.007274 -41.815313 
L 416.911317 -41.815313 
L 419.815359 -41.815313 
L 422.719402 -41.815313 
L 425.623445 -41.815313 
L 428.527488 -41.815313 
L 431.43153 -41.815313 
L 434.335573 -41.815313 
L 437.239616 -41.815313 
L 440.143658 -41.815313 
L 443.047701 -41.815313 
L 445.951744 -41.815313 
L 448.855787 -41.815313 
L 451.759829 -41.815313 
L 454.663872 -41.815313 
L 457.567915 -41.815313 
L 460.471957 -41.815313 
L 463.376 -41.815313 
L 466.280043 -41.815313 
L 469.184086 -41.815313 
L 472.088128 -41.815313 
L 474.992171 -41.815313 
L 477.896214 -41.815313 
L 480.800256 -41.815313 
L 483.704299 -41.815313 
L 486.608342 -41.815313 
L 489.512385 -41.815313 
L 492.416427 -41.815313 
L 495.32047 -41.815313 
L 498.224513 -41.815313 
L 501.128555 -41.815313 
L 504.032598 -41.815313 
L 506.936641 -41.815313 
L 509.840684 -41.815313 
L 512.744726 -41.815313 
L 515.648769 -41.815313 
L 518.552812 -41.815313 
L 521.456854 -41.815313 
L 524.360897 -41.815313 
L 527.26494 -41.815313 
L 530.168983 -41.815313 
L 533.073025 -41.815313 
L 535.977068 -41.815313 
L 538.881111 -41.815313 
L 541.785153 -41.815313 
L 544.689196 -41.815313 
L 547.593239 -41.815313 
L 550.497282 -41.815313 
L 553.401324 -41.815313 
L 556.305367 -41.815313 
L 559.20941 -41.815313 
L 562.113452 -41.815313 
L 565.017495 -41.815313 
L 567.921538 -41.815313 
L 570.825581 -41.815313 
L 573.729623 -41.815313 
L 576.633666 -41.815313 
L 579.537709 -41.815313 
L 582.441751 -41.815313 
L 585.345794 -41.815313 
L 588.249837 -41.815313 
L 591.15388 -41.815313 
L 594.057922 -41.815313 
L 596.961965 -41.815313 
L 599.866008 -41.815313 
L 602.77005 -41.815313 
L 605.674093 -41.815313 
L 608.578136 -41.815313 
L 611.482179 -41.815313 
L 614.386221 -41.815313 
L 617.290264 -41.815313 
L 620.194307 -41.815313 
L 623.098349 -41.815313 
L 626.002392 -41.815313 
L 628.906435 -41.815313 
L 631.810478 -41.815313 
L 634.71452 -41.815313 
L 637.618563 -41.815313 
L 640.522606 -41.815313 
L 643.426648 -41.815313 
L 646.330691 -41.815313 
L 649.234734 -41.815313 
L 652.138777 -41.815313 
L 655.042819 -41.815313 
L 657.946862 -41.815313 
L 660.850905 -41.815313 
L 663.754947 -41.815313 
L 666.65899 -41.815313 
L 669.563033 -41.815313 
L 672.467076 -41.815313 
L 675.371118 -41.815313 
L 678.275161 -41.815313 
L 681.179204 -41.815313 
L 684.083246 -41.815313 
L 686.987289 -41.815313 
L 689.891332 -41.815313 
L 692.795375 -41.815313 
L 695.699417 -41.815313 
L 698.60346 -41.815313 
L 701.507503 -41.815313 
L 704.411545 -41.815313 
L 707.315588 -41.815313 
L 710.219631 -41.815313 
L 713.123674 -41.815313 
L 716.027716 -41.815313 
L 718.931759 -41.815313 
L 721.835802 -41.815313 
L 724.739844 -41.815313 
L 727.643887 -41.815313 
L 730.54793 -41.815313 
L 733.451973 -41.815313 
L 733.451973 -50.695083 
L 733.451973 -50.695083 
L 730.54793 -51.019049 
L 727.643887 -51.335188 
L 724.739844 -51.642334 
L 721.835802 -51.939412 
L 718.931759 -52.225449 
L 716.027716 -52.49959 
L 713.123674 -52.761103 
L 710.219631 -53.00939 
L 707.315588 -53.243992 
L 704.411545 -53.464591 
L 701.507503 -53.671009 
L 698.60346 -53.863208 
L 695.699417 -54.041281 
L 692.795375 -54.205445 
L 689.891332 -54.356028 
L 686.987289 -54.493456 
L 684.083246 -54.618238 
L 681.179204 -54.730946 
L 678.275161 -54.832198 
L 675.371118 -54.922637 
L 672.467076 -55.002909 
L 669.563033 -55.073646 
L 666.65899 -55.135442 
L 663.754947 -55.188839 
L 660.850905 -55.234308 
L 657.946862 -55.272232 
L 655.042819 -55.3029 
L 652.138777 -55.326491 
L 649.234734 -55.343077 
L 646.330691 -55.35261 
L 643.426648 -55.354933 
L 640.522606 -55.349782 
L 637.618563 -55.336791 
L 634.71452 -55.315511 
L 631.810478 -55.285419 
L 628.906435 -55.24594 
L 626.002392 -55.196467 
L 623.098349 -55.13638 
L 620.194307 -55.065074 
L 617.290264 -54.981979 
L 614.386221 -54.886588 
L 611.482179 -54.778478 
L 608.578136 -54.657333 
L 605.674093 -54.522963 
L 602.77005 -54.375326 
L 599.866008 -54.21454 
L 596.961965 -54.040896 
L 594.057922 -53.854866 
L 591.15388 -53.657108 
L 588.249837 -53.448468 
L 585.345794 -53.229972 
L 582.441751 -53.002822 
L 579.537709 -52.768386 
L 576.633666 -52.528175 
L 573.729623 -52.283835 
L 570.825581 -52.037118 
L 567.921538 -51.789858 
L 565.017495 -51.543949 
L 562.113452 -51.301315 
L 559.20941 -51.063882 
L 556.305367 -50.833549 
L 553.401324 -50.612157 
L 550.497282 -50.401468 
L 547.593239 -50.203131 
L 544.689196 -50.018663 
L 541.785153 -49.849423 
L 538.881111 -49.696596 
L 535.977068 -49.561172 
L 533.073025 -49.443939 
L 530.168983 -49.345465 
L 527.26494 -49.266102 
L 524.360897 -49.205973 
L 521.456854 -49.16498 
L 518.552812 -49.142807 
L 515.648769 -49.138927 
L 512.744726 -49.152613 
L 509.840684 -49.182954 
L 506.936641 -49.22887 
L 504.032598 -49.289133 
L 501.128555 -49.362388 
L 498.224513 -49.447172 
L 495.32047 -49.541945 
L 492.416427 -49.64511 
L 489.512385 -49.755042 
L 486.608342 -49.870111 
L 483.704299 -49.988708 
L 480.800256 -50.109274 
L 477.896214 -50.230321 
L 474.992171 -50.350454 
L 472.088128 -50.468398 
L 469.184086 -50.583013 
L 466.280043 -50.693316 
L 463.376 -50.798495 
L 460.471957 -50.897926 
L 457.567915 -50.991184 
L 454.663872 -51.078051 
L 451.759829 -51.158529 
L 448.855787 -51.232838 
L 445.951744 -51.301427 
L 443.047701 -51.364967 
L 440.143658 -51.424356 
L 437.239616 -51.480711 
L 434.335573 -51.535365 
L 431.43153 -51.589857 
L 428.527488 -51.645927 
L 425.623445 -51.705499 
L 422.719402 -51.770675 
L 419.815359 -51.843714 
L 416.911317 -51.927024 
L 414.007274 -52.023142 
L 411.103231 -52.134715 
L 408.199189 -52.264487 
L 405.295146 -52.415277 
L 402.391103 -52.58996 
L 399.48706 -52.791451 
L 396.583018 -53.022682 
L 393.678975 -53.286581 
L 390.774932 -53.586057 
L 387.87089 -53.923978 
L 384.966847 -54.303152 
L 382.062804 -54.726307 
L 379.158761 -55.196074 
L 376.254719 -55.714966 
L 373.350676 -56.285365 
L 370.446633 -56.909502 
L 367.542591 -57.589438 
L 364.638548 -58.32705 
L 361.734505 -59.124018 
L 358.830462 -59.981803 
L 355.92642 -60.901637 
L 353.022377 -61.884504 
L 350.118334 -62.93113 
L 347.214292 -64.041962 
L 344.310249 -65.217159 
L 341.406206 -66.456574 
L 338.502163 -67.759738 
L 335.598121 -69.12585 
L 332.694078 -70.553756 
L 329.790035 -72.041939 
L 326.885993 -73.5885 
L 323.98195 -75.191148 
L 321.077907 -76.847182 
L 318.173864 -78.553481 
L 315.269822 -80.306493 
L 312.365779 -82.102222 
L 309.461736 -83.936222 
L 306.557694 -85.80359 
L 303.653651 -87.698969 
L 300.749608 -89.616543 
L 297.845565 -91.550047 
L 294.941523 -93.492775 
L 292.03748 -95.437599 
L 289.133437 -97.376987 
L 286.229395 -99.303034 
L 283.325352 -101.207492 
L 280.421309 -103.081816 
L 277.517266 -104.917205 
L 274.613224 -106.704661 
L 271.709181 -108.435047 
L 268.805138 -110.099151 
L 265.901096 -111.687764 
L 262.997053 -113.191749 
L 260.09301 -114.602126 
L 257.188967 -115.910154 
L 254.284925 -117.107416 
L 251.380882 -118.185908 
L 248.476839 -119.138119 
L 245.572797 -119.95712 
L 242.668754 -120.63664 
L 239.764711 -121.171148 
L 236.860668 -121.555914 
L 233.956626 -121.787081 
L 231.052583 -121.861713 
L 228.14854 -121.777843 
L 225.244498 -121.534504 
L 222.340455 -121.13176 
L 219.436412 -120.570709 
L 216.532369 -119.853487 
L 213.628327 -118.983258 
L 210.724284 -117.964185 
L 207.820241 -116.801398 
L 204.916199 -115.500943 
L 202.012156 -114.069726 
L 199.108113 -112.515445 
L 196.20407 -110.846514 
L 193.300028 -109.071977 
L 190.395985 -107.20142 
L 187.491942 -105.244874 
L 184.5879 -103.212717 
L 181.683857 -101.115575 
L 178.779814 -98.964218 
L 175.875771 -96.769462 
L 172.971729 -94.542073 
L 170.067686 -92.292666 
L 167.163643 -90.031622 
L 164.259601 -87.769004 
L 161.355558 -85.514476 
L 158.451515 -83.277238 
L 155.547472 -81.06596 
z
" style="stroke: #e78ac3"/>
    </defs>
    <g clip-path="url(#p715376ebb9)">
     <use xlink:href="#m62eaa414c0" x="0" y="280.655312" style="fill: #e78ac3; fill-opacity: 0.5; stroke: #e78ac3"/>
    </g>
   </g>
   <g id="matplotlib.axis_7">
    <g id="xtick_19">
     <g id="line2d_25">
      <g>
       <use xlink:href="#m5643211933" x="155.547472" y="238.84" style="stroke: #000000; stroke-width: 0.8"/>
      </g>
     </g>
     <g id="text_4">
      <!-- 0 -->
      <g transform="translate(152.547472 254.1725) scale(0.12 -0.12)">
       <defs>
        <path id="TimesNewRomanPSMT-30" d="M 231 2094 
Q 231 2819 450 3342 
Q 669 3866 1031 4122 
Q 1313 4325 1613 4325 
Q 2100 4325 2488 3828 
Q 2972 3213 2972 2159 
Q 2972 1422 2759 906 
Q 2547 391 2217 158 
Q 1888 -75 1581 -75 
Q 975 -75 572 641 
Q 231 1244 231 2094 
z
M 844 2016 
Q 844 1141 1059 588 
Q 1238 122 1591 122 
Q 1759 122 1940 273 
Q 2122 425 2216 781 
Q 2359 1319 2359 2297 
Q 2359 3022 2209 3506 
Q 2097 3866 1919 4016 
Q 1791 4119 1609 4119 
Q 1397 4119 1231 3928 
Q 1006 3669 925 3112 
Q 844 2556 844 2016 
z
" transform="scale(0.015625)"/>
       </defs>
       <use xlink:href="#TimesNewRomanPSMT-30"/>
      </g>
     </g>
    </g>
    <g id="xtick_20">
     <g id="line2d_26">
      <g>
       <use xlink:href="#m5643211933" x="271.128372" y="238.84" style="stroke: #000000; stroke-width: 0.8"/>
      </g>
     </g>
     <g id="text_5">
      <!-- 20 -->
      <g transform="translate(265.128372 254.1725) scale(0.12 -0.12)">
       <defs>
        <path id="TimesNewRomanPSMT-32" d="M 2934 816 
L 2638 0 
L 138 0 
L 138 116 
Q 1241 1122 1691 1759 
Q 2141 2397 2141 2925 
Q 2141 3328 1894 3587 
Q 1647 3847 1303 3847 
Q 991 3847 742 3664 
Q 494 3481 375 3128 
L 259 3128 
Q 338 3706 661 4015 
Q 984 4325 1469 4325 
Q 1984 4325 2329 3994 
Q 2675 3663 2675 3213 
Q 2675 2891 2525 2569 
Q 2294 2063 1775 1497 
Q 997 647 803 472 
L 1909 472 
Q 2247 472 2383 497 
Q 2519 522 2628 598 
Q 2738 675 2819 816 
L 2934 816 
z
" transform="scale(0.015625)"/>
       </defs>
       <use xlink:href="#TimesNewRomanPSMT-32"/>
       <use xlink:href="#TimesNewRomanPSMT-30" transform="translate(50 0)"/>
      </g>
     </g>
    </g>
    <g id="xtick_21">
     <g id="line2d_27">
      <g>
       <use xlink:href="#m5643211933" x="386.709272" y="238.84" style="stroke: #000000; stroke-width: 0.8"/>
      </g>
     </g>
     <g id="text_6">
      <!-- 40 -->
      <g transform="translate(380.709272 254.1725) scale(0.12 -0.12)">
       <defs>
        <path id="TimesNewRomanPSMT-34" d="M 2978 1563 
L 2978 1119 
L 2409 1119 
L 2409 0 
L 1894 0 
L 1894 1119 
L 100 1119 
L 100 1519 
L 2066 4325 
L 2409 4325 
L 2409 1563 
L 2978 1563 
z
M 1894 1563 
L 1894 3666 
L 406 1563 
L 1894 1563 
z
" transform="scale(0.015625)"/>
       </defs>
       <use xlink:href="#TimesNewRomanPSMT-34"/>
       <use xlink:href="#TimesNewRomanPSMT-30" transform="translate(50 0)"/>
      </g>
     </g>
    </g>
    <g id="xtick_22">
     <g id="line2d_28">
      <g>
       <use xlink:href="#m5643211933" x="502.290173" y="238.84" style="stroke: #000000; stroke-width: 0.8"/>
      </g>
     </g>
     <g id="text_7">
      <!-- 60 -->
      <g transform="translate(496.290173 254.1725) scale(0.12 -0.12)">
       <defs>
        <path id="TimesNewRomanPSMT-36" d="M 2869 4325 
L 2869 4209 
Q 2456 4169 2195 4045 
Q 1934 3922 1679 3669 
Q 1425 3416 1258 3105 
Q 1091 2794 978 2366 
Q 1428 2675 1881 2675 
Q 2316 2675 2634 2325 
Q 2953 1975 2953 1425 
Q 2953 894 2631 456 
Q 2244 -75 1606 -75 
Q 1172 -75 869 213 
Q 275 772 275 1663 
Q 275 2231 503 2743 
Q 731 3256 1154 3653 
Q 1578 4050 1965 4187 
Q 2353 4325 2688 4325 
L 2869 4325 
z
M 925 2138 
Q 869 1716 869 1456 
Q 869 1156 980 804 
Q 1091 453 1309 247 
Q 1469 100 1697 100 
Q 1969 100 2183 356 
Q 2397 613 2397 1088 
Q 2397 1622 2184 2012 
Q 1972 2403 1581 2403 
Q 1463 2403 1327 2353 
Q 1191 2303 925 2138 
z
" transform="scale(0.015625)"/>
       </defs>
       <use xlink:href="#TimesNewRomanPSMT-36"/>
       <use xlink:href="#TimesNewRomanPSMT-30" transform="translate(50 0)"/>
      </g>
     </g>
    </g>
    <g id="xtick_23">
     <g id="line2d_29">
      <g>
       <use xlink:href="#m5643211933" x="617.871073" y="238.84" style="stroke: #000000; stroke-width: 0.8"/>
      </g>
     </g>
     <g id="text_8">
      <!-- 80 -->
      <g transform="translate(611.871073 254.1725) scale(0.12 -0.12)">
       <defs>
        <path id="TimesNewRomanPSMT-38" d="M 1228 2134 
Q 725 2547 579 2797 
Q 434 3047 434 3316 
Q 434 3728 753 4026 
Q 1072 4325 1600 4325 
Q 2113 4325 2425 4047 
Q 2738 3769 2738 3413 
Q 2738 3175 2569 2928 
Q 2400 2681 1866 2347 
Q 2416 1922 2594 1678 
Q 2831 1359 2831 1006 
Q 2831 559 2490 242 
Q 2150 -75 1597 -75 
Q 994 -75 656 303 
Q 388 606 388 966 
Q 388 1247 577 1523 
Q 766 1800 1228 2134 
z
M 1719 2469 
Q 2094 2806 2194 3001 
Q 2294 3197 2294 3444 
Q 2294 3772 2109 3958 
Q 1925 4144 1606 4144 
Q 1288 4144 1088 3959 
Q 888 3775 888 3528 
Q 888 3366 970 3203 
Q 1053 3041 1206 2894 
L 1719 2469 
z
M 1375 2016 
Q 1116 1797 991 1539 
Q 866 1281 866 981 
Q 866 578 1086 336 
Q 1306 94 1647 94 
Q 1984 94 2187 284 
Q 2391 475 2391 747 
Q 2391 972 2272 1150 
Q 2050 1481 1375 2016 
z
" transform="scale(0.015625)"/>
       </defs>
       <use xlink:href="#TimesNewRomanPSMT-38"/>
       <use xlink:href="#TimesNewRomanPSMT-30" transform="translate(50 0)"/>
      </g>
     </g>
    </g>
    <g id="xtick_24">
     <g id="line2d_30">
      <g>
       <use xlink:href="#m5643211933" x="733.451973" y="238.84" style="stroke: #000000; stroke-width: 0.8"/>
      </g>
     </g>
     <g id="text_9">
      <!-- 100 -->
      <g transform="translate(724.451973 254.1725) scale(0.12 -0.12)">
       <defs>
        <path id="TimesNewRomanPSMT-31" d="M 750 3822 
L 1781 4325 
L 1884 4325 
L 1884 747 
Q 1884 391 1914 303 
Q 1944 216 2037 169 
Q 2131 122 2419 116 
L 2419 0 
L 825 0 
L 825 116 
Q 1125 122 1212 167 
Q 1300 213 1334 289 
Q 1369 366 1369 747 
L 1369 3034 
Q 1369 3497 1338 3628 
Q 1316 3728 1258 3775 
Q 1200 3822 1119 3822 
Q 1003 3822 797 3725 
L 750 3822 
z
" transform="scale(0.015625)"/>
       </defs>
       <use xlink:href="#TimesNewRomanPSMT-31"/>
       <use xlink:href="#TimesNewRomanPSMT-30" transform="translate(50 0)"/>
       <use xlink:href="#TimesNewRomanPSMT-30" transform="translate(100 0)"/>
      </g>
     </g>
    </g>
    <g id="text_10">
     <!-- Value -->
     <g transform="translate(428.563785 270.460625) scale(0.14 -0.14)">
      <defs>
       <path id="TimesNewRomanPSMT-56" d="M 4544 4238 
L 4544 4122 
Q 4319 4081 4203 3978 
Q 4038 3825 3909 3509 
L 2431 -97 
L 2316 -97 
L 728 3556 
Q 606 3838 556 3900 
Q 478 3997 364 4051 
Q 250 4106 56 4122 
L 56 4238 
L 1788 4238 
L 1788 4122 
Q 1494 4094 1406 4022 
Q 1319 3950 1319 3838 
Q 1319 3681 1463 3350 
L 2541 866 
L 3541 3319 
Q 3688 3681 3688 3822 
Q 3688 3913 3597 3995 
Q 3506 4078 3291 4113 
Q 3275 4116 3238 4122 
L 3238 4238 
L 4544 4238 
z
" transform="scale(0.015625)"/>
      </defs>
      <use xlink:href="#TimesNewRomanPSMT-56"/>
      <use xlink:href="#TimesNewRomanPSMT-61" transform="translate(61.091797 0)"/>
      <use xlink:href="#TimesNewRomanPSMT-6c" transform="translate(105.476562 0)"/>
      <use xlink:href="#TimesNewRomanPSMT-75" transform="translate(133.259766 0)"/>
      <use xlink:href="#TimesNewRomanPSMT-65" transform="translate(183.259766 0)"/>
     </g>
    </g>
   </g>
   <g id="matplotlib.axis_8"/>
   <g id="line2d_31">
    <path d="M 155.547472 199.589352 
L 167.163643 190.62369 
L 178.779814 181.691095 
L 184.5879 177.442596 
L 190.395985 173.453892 
L 196.20407 169.808798 
L 202.012156 166.585587 
L 204.916199 165.15437 
L 207.820241 163.853915 
L 210.724284 162.691127 
L 213.628327 161.672055 
L 216.532369 160.801826 
L 219.436412 160.084604 
L 222.340455 159.523552 
L 225.244498 159.120808 
L 228.14854 158.87747 
L 231.052583 158.793599 
L 233.956626 158.868231 
L 236.860668 159.099398 
L 239.764711 159.484165 
L 242.668754 160.018672 
L 245.572797 160.698193 
L 248.476839 161.517193 
L 251.380882 162.469404 
L 254.284925 163.547896 
L 260.09301 166.053187 
L 265.901096 168.967548 
L 271.709181 172.220266 
L 277.517266 175.738107 
L 286.229395 181.352279 
L 309.461736 196.719091 
L 318.173864 202.101831 
L 323.98195 205.464165 
L 329.790035 208.613373 
L 335.598121 211.529462 
L 341.406206 214.198739 
L 347.214292 216.613351 
L 353.022377 218.770808 
L 358.830462 220.673509 
L 364.638548 222.328262 
L 370.446633 223.745811 
L 376.254719 224.940347 
L 382.062804 225.929005 
L 387.87089 226.731334 
L 393.678975 227.368732 
L 402.391103 228.065352 
L 411.103231 228.520598 
L 422.719402 228.884638 
L 466.280043 229.961996 
L 506.936641 231.426442 
L 518.552812 231.512505 
L 527.26494 231.389211 
L 535.977068 231.09414 
L 547.593239 230.452181 
L 562.113452 229.353997 
L 591.15388 226.998204 
L 602.77005 226.279987 
L 614.386221 225.768724 
L 626.002392 225.458846 
L 640.522606 225.305531 
L 657.946862 225.383081 
L 672.467076 225.652403 
L 686.987289 226.161857 
L 698.60346 226.792105 
L 710.219631 227.645922 
L 721.835802 228.715901 
L 733.451973 229.96023 
L 733.451973 229.96023 
" clip-path="url(#p715376ebb9)" style="fill: none; stroke: #ffffff; stroke-width: 2; stroke-linecap: square"/>
   </g>
   <g id="line2d_32">
    <path d="M 155.547472 238.84 
L 733.451973 238.84 
" style="fill: none; stroke: #000000; stroke-linecap: square"/>
   </g>
   <g id="text_11">
    <g id="patch_9">
     <path d="M 19.92 248.260937 
L 98.8275 248.260937 
L 98.8275 229.419062 
L 19.92 229.419062 
z
" style="fill: #ffffff; opacity: 0.5"/>
    </g>
    <!-- Product Range -->
    <g transform="translate(23.88 241.711562) scale(0.12 -0.12)">
     <defs>
      <path id="TimesNewRomanPSMT-64" d="M 2222 322 
Q 2013 103 1813 7 
Q 1613 -88 1381 -88 
Q 913 -88 563 304 
Q 213 697 213 1313 
Q 213 1928 600 2439 
Q 988 2950 1597 2950 
Q 1975 2950 2222 2709 
L 2222 3238 
Q 2222 3728 2198 3840 
Q 2175 3953 2125 3993 
Q 2075 4034 2000 4034 
Q 1919 4034 1784 3984 
L 1744 4094 
L 2597 4444 
L 2738 4444 
L 2738 1134 
Q 2738 631 2761 520 
Q 2784 409 2836 365 
Q 2888 322 2956 322 
Q 3041 322 3181 375 
L 3216 266 
L 2366 -88 
L 2222 -88 
L 2222 322 
z
M 2222 541 
L 2222 2016 
Q 2203 2228 2109 2403 
Q 2016 2578 1861 2667 
Q 1706 2756 1559 2756 
Q 1284 2756 1069 2509 
Q 784 2184 784 1559 
Q 784 928 1059 592 
Q 1334 256 1672 256 
Q 1956 256 2222 541 
z
" transform="scale(0.015625)"/>
     </defs>
     <use xlink:href="#TimesNewRomanPSMT-50"/>
     <use xlink:href="#TimesNewRomanPSMT-72" transform="translate(55.615234 0)"/>
     <use xlink:href="#TimesNewRomanPSMT-6f" transform="translate(88.916016 0)"/>
     <use xlink:href="#TimesNewRomanPSMT-64" transform="translate(138.916016 0)"/>
     <use xlink:href="#TimesNewRomanPSMT-75" transform="translate(188.916016 0)"/>
     <use xlink:href="#TimesNewRomanPSMT-63" transform="translate(238.916016 0)"/>
     <use xlink:href="#TimesNewRomanPSMT-74" transform="translate(283.300781 0)"/>
     <use xlink:href="#TimesNewRomanPSMT-20" transform="translate(311.083984 0)"/>
     <use xlink:href="#TimesNewRomanPSMT-52" transform="translate(336.083984 0)"/>
     <use xlink:href="#TimesNewRomanPSMT-61" transform="translate(402.783203 0)"/>
     <use xlink:href="#TimesNewRomanPSMT-6e" transform="translate(447.167969 0)"/>
     <use xlink:href="#TimesNewRomanPSMT-67" transform="translate(497.167969 0)"/>
     <use xlink:href="#TimesNewRomanPSMT-65" transform="translate(547.167969 0)"/>
    </g>
   </g>
  </g>
  <g id="text_12">
   <!-- Customer Satisfaction(%) -->
   <g transform="translate(301.380722 18.31) scale(0.16 -0.16)">
    <defs>
     <path id="TimesNewRomanPSMT-66" d="M 1319 2638 
L 1319 756 
Q 1319 356 1406 250 
Q 1522 113 1716 113 
L 1975 113 
L 1975 0 
L 266 0 
L 266 113 
L 394 113 
Q 519 113 622 175 
Q 725 238 764 344 
Q 803 450 803 756 
L 803 2638 
L 247 2638 
L 247 2863 
L 803 2863 
L 803 3050 
Q 803 3478 940 3775 
Q 1078 4072 1361 4255 
Q 1644 4438 1997 4438 
Q 2325 4438 2600 4225 
Q 2781 4084 2781 3909 
Q 2781 3816 2700 3733 
Q 2619 3650 2525 3650 
Q 2453 3650 2373 3701 
Q 2294 3753 2178 3923 
Q 2063 4094 1966 4153 
Q 1869 4213 1750 4213 
Q 1606 4213 1506 4136 
Q 1406 4059 1362 3898 
Q 1319 3738 1319 3069 
L 1319 2863 
L 2056 2863 
L 2056 2638 
L 1319 2638 
z
" transform="scale(0.015625)"/>
     <path id="TimesNewRomanPSMT-28" d="M 1988 -1253 
L 1988 -1369 
Q 1516 -1131 1200 -813 
Q 750 -359 506 256 
Q 263 872 263 1534 
Q 263 2503 741 3301 
Q 1219 4100 1988 4444 
L 1988 4313 
Q 1603 4100 1356 3731 
Q 1109 3363 987 2797 
Q 866 2231 866 1616 
Q 866 947 969 400 
Q 1050 -31 1165 -292 
Q 1281 -553 1476 -793 
Q 1672 -1034 1988 -1253 
z
" transform="scale(0.015625)"/>
     <path id="TimesNewRomanPSMT-25" d="M 4350 4334 
L 1263 -175 
L 984 -175 
L 4072 4334 
L 4350 4334 
z
M 1138 4334 
Q 1559 4334 1792 3984 
Q 2025 3634 2025 3181 
Q 2025 2638 1762 2341 
Q 1500 2044 1131 2044 
Q 884 2044 678 2180 
Q 472 2316 348 2584 
Q 225 2853 225 3181 
Q 225 3509 350 3786 
Q 475 4063 692 4198 
Q 909 4334 1138 4334 
z
M 1128 4159 
Q 969 4159 845 3971 
Q 722 3784 722 3184 
Q 722 2750 791 2522 
Q 844 2350 956 2256 
Q 1022 2200 1119 2200 
Q 1269 2200 1375 2363 
Q 1531 2603 1531 3166 
Q 1531 3759 1378 4000 
Q 1278 4159 1128 4159 
z
M 4206 2103 
Q 4428 2103 4648 1962 
Q 4869 1822 4989 1553 
Q 5109 1284 5109 963 
Q 5109 409 4843 117 
Q 4578 -175 4216 -175 
Q 3988 -175 3773 -34 
Q 3559 106 3436 367 
Q 3313 628 3313 963 
Q 3313 1291 3436 1562 
Q 3559 1834 3773 1968 
Q 3988 2103 4206 2103 
z
M 4209 1938 
Q 4059 1938 3950 1769 
Q 3809 1550 3809 941 
Q 3809 381 3953 159 
Q 4059 0 4209 0 
Q 4353 0 4466 172 
Q 4616 400 4616 956 
Q 4616 1544 4466 1778 
Q 4363 1938 4209 1938 
z
" transform="scale(0.015625)"/>
     <path id="TimesNewRomanPSMT-29" d="M 144 4313 
L 144 4444 
Q 619 4209 934 3891 
Q 1381 3434 1625 2820 
Q 1869 2206 1869 1541 
Q 1869 572 1392 -226 
Q 916 -1025 144 -1369 
L 144 -1253 
Q 528 -1038 776 -670 
Q 1025 -303 1145 264 
Q 1266 831 1266 1447 
Q 1266 2113 1163 2663 
Q 1084 3094 967 3353 
Q 850 3613 656 3853 
Q 463 4094 144 4313 
z
" transform="scale(0.015625)"/>
    </defs>
    <use xlink:href="#TimesNewRomanPSMT-43"/>
    <use xlink:href="#TimesNewRomanPSMT-75" transform="translate(66.699219 0)"/>
    <use xlink:href="#TimesNewRomanPSMT-73" transform="translate(116.699219 0)"/>
    <use xlink:href="#TimesNewRomanPSMT-74" transform="translate(155.615234 0)"/>
    <use xlink:href="#TimesNewRomanPSMT-6f" transform="translate(183.398438 0)"/>
    <use xlink:href="#TimesNewRomanPSMT-6d" transform="translate(233.398438 0)"/>
    <use xlink:href="#TimesNewRomanPSMT-65" transform="translate(311.181641 0)"/>
    <use xlink:href="#TimesNewRomanPSMT-72" transform="translate(355.566406 0)"/>
    <use xlink:href="#TimesNewRomanPSMT-20" transform="translate(388.867188 0)"/>
    <use xlink:href="#TimesNewRomanPSMT-53" transform="translate(413.867188 0)"/>
    <use xlink:href="#TimesNewRomanPSMT-61" transform="translate(469.482422 0)"/>
    <use xlink:href="#TimesNewRomanPSMT-74" transform="translate(513.867188 0)"/>
    <use xlink:href="#TimesNewRomanPSMT-69" transform="translate(541.650391 0)"/>
    <use xlink:href="#TimesNewRomanPSMT-73" transform="translate(569.433594 0)"/>
    <use xlink:href="#TimesNewRomanPSMT-66" transform="translate(608.349609 0)"/>
    <use xlink:href="#TimesNewRomanPSMT-61" transform="translate(641.650391 0)"/>
    <use xlink:href="#TimesNewRomanPSMT-63" transform="translate(686.035156 0)"/>
    <use xlink:href="#TimesNewRomanPSMT-74" transform="translate(730.419922 0)"/>
    <use xlink:href="#TimesNewRomanPSMT-69" transform="translate(758.203125 0)"/>
    <use xlink:href="#TimesNewRomanPSMT-6f" transform="translate(785.986328 0)"/>
    <use xlink:href="#TimesNewRomanPSMT-6e" transform="translate(835.986328 0)"/>
    <use xlink:href="#TimesNewRomanPSMT-28" transform="translate(885.986328 0)"/>
    <use xlink:href="#TimesNewRomanPSMT-25" transform="translate(919.287109 0)"/>
    <use xlink:href="#TimesNewRomanPSMT-29" transform="translate(1002.587891 0)"/>
   </g>
  </g>
 </g>
 <defs>
  <clipPath id="pa52bace586">
   <rect x="155.547472" y="17.52" width="577.9045" height="88.528"/>
  </clipPath>
  <clipPath id="p74a7f75395">
   <rect x="155.547472" y="61.784" width="577.9045" height="88.528"/>
  </clipPath>
  <clipPath id="pec96f91f03">
   <rect x="155.547472" y="106.048" width="577.9045" height="88.528"/>
  </clipPath>
  <clipPath id="p715376ebb9">
   <rect x="155.547472" y="150.312" width="577.9045" height="88.528"/>
  </clipPath>
 </defs>
</svg>
