<?xml version="1.0" encoding="utf-8" standalone="no"?>
<!DOCTYPE svg PUBLIC "-//W3C//DTD SVG 1.1//EN"
  "http://www.w3.org/Graphics/SVG/1.1/DTD/svg11.dtd">
<svg xmlns:xlink="http://www.w3.org/1999/xlink" width="748.896122pt" height="280.655312pt" viewBox="0 0 748.896122 280.655312" xmlns="http://www.w3.org/2000/svg" version="1.1">
 <metadata>
  <rdf:RDF xmlns:dc="http://purl.org/dc/elements/1.1/" xmlns:cc="http://creativecommons.org/ns#" xmlns:rdf="http://www.w3.org/1999/02/22-rdf-syntax-ns#">
   <cc:Work>
    <dc:type rdf:resource="http://purl.org/dc/dcmitype/StillImage"/>
    <dc:date>2025-05-26T23:41:55.020305</dc:date>
    <dc:format>image/svg+xml</dc:format>
    <dc:creator>
     <cc:Agent>
      <dc:title>Matplotlib v3.10.1, https://matplotlib.org/</dc:title>
     </cc:Agent>
    </dc:creator>
   </cc:Work>
  </rdf:RDF>
 </metadata>
 <defs>
  <style type="text/css">*{stroke-linejoin: round; stroke-linecap: butt}</style>
 </defs>
 <g id="figure_1">
  <g id="patch_1">
   <path d="M -0 280.655312 
L 748.896122 280.655312 
L 748.896122 0 
L -0 0 
z
" style="fill: #ffffff"/>
  </g>
  <g id="axes_1">
   <g id="patch_2">
    <path d="M 161.811622 106.048 
L 732.696123 106.048 
L 732.696123 17.52 
L 161.811622 17.52 
L 161.811622 106.048 
z
" style="fill: none; opacity: 0"/>
   </g>
   <g id="FillBetweenPolyCollection_1">
    <defs>
     <path id="m4a8753bb1e" d="M 161.811622 -230.652311 
L 161.811622 -174.607312 
L 164.680389 -174.607312 
L 167.549155 -174.607312 
L 170.417921 -174.607312 
L 173.286688 -174.607312 
L 176.155454 -174.607312 
L 179.02422 -174.607312 
L 181.892987 -174.607312 
L 184.761753 -174.607312 
L 187.630519 -174.607312 
L 190.499286 -174.607312 
L 193.368052 -174.607312 
L 196.236818 -174.607312 
L 199.105585 -174.607312 
L 201.974351 -174.607312 
L 204.843117 -174.607312 
L 207.711884 -174.607312 
L 210.58065 -174.607312 
L 213.449416 -174.607312 
L 216.318183 -174.607312 
L 219.186949 -174.607312 
L 222.055715 -174.607312 
L 224.924482 -174.607312 
L 227.793248 -174.607312 
L 230.662014 -174.607312 
L 233.530781 -174.607312 
L 236.399547 -174.607312 
L 239.268313 -174.607312 
L 242.13708 -174.607312 
L 245.005846 -174.607312 
L 247.874612 -174.607312 
L 250.743379 -174.607312 
L 253.612145 -174.607312 
L 256.480911 -174.607312 
L 259.349678 -174.607312 
L 262.218444 -174.607312 
L 265.08721 -174.607312 
L 267.955977 -174.607312 
L 270.824743 -174.607312 
L 273.693509 -174.607312 
L 276.562276 -174.607312 
L 279.431042 -174.607312 
L 282.299808 -174.607312 
L 285.168575 -174.607312 
L 288.037341 -174.607312 
L 290.906107 -174.607312 
L 293.774874 -174.607312 
L 296.64364 -174.607312 
L 299.512406 -174.607312 
L 302.381173 -174.607312 
L 305.249939 -174.607312 
L 308.118705 -174.607312 
L 310.987472 -174.607312 
L 313.856238 -174.607312 
L 316.725004 -174.607312 
L 319.593771 -174.607312 
L 322.462537 -174.607312 
L 325.331303 -174.607312 
L 328.20007 -174.607312 
L 331.068836 -174.607312 
L 333.937602 -174.607312 
L 336.806369 -174.607312 
L 339.675135 -174.607312 
L 342.543901 -174.607312 
L 345.412668 -174.607312 
L 348.281434 -174.607312 
L 351.1502 -174.607312 
L 354.018967 -174.607312 
L 356.887733 -174.607312 
L 359.756499 -174.607312 
L 362.625266 -174.607312 
L 365.494032 -174.607312 
L 368.362798 -174.607312 
L 371.231565 -174.607312 
L 374.100331 -174.607312 
L 376.969097 -174.607312 
L 379.837864 -174.607312 
L 382.70663 -174.607312 
L 385.575396 -174.607312 
L 388.444163 -174.607312 
L 391.312929 -174.607312 
L 394.181695 -174.607312 
L 397.050462 -174.607312 
L 399.919228 -174.607312 
L 402.787994 -174.607312 
L 405.656761 -174.607312 
L 408.525527 -174.607312 
L 411.394293 -174.607312 
L 414.26306 -174.607312 
L 417.131826 -174.607312 
L 420.000592 -174.607312 
L 422.869359 -174.607312 
L 425.738125 -174.607312 
L 428.606891 -174.607312 
L 431.475658 -174.607312 
L 434.344424 -174.607312 
L 437.21319 -174.607312 
L 440.081957 -174.607312 
L 442.950723 -174.607312 
L 445.819489 -174.607312 
L 448.688256 -174.607312 
L 451.557022 -174.607312 
L 454.425788 -174.607312 
L 457.294555 -174.607312 
L 460.163321 -174.607312 
L 463.032087 -174.607312 
L 465.900854 -174.607312 
L 468.76962 -174.607312 
L 471.638386 -174.607312 
L 474.507153 -174.607312 
L 477.375919 -174.607312 
L 480.244685 -174.607312 
L 483.113452 -174.607312 
L 485.982218 -174.607312 
L 488.850984 -174.607312 
L 491.719751 -174.607312 
L 494.588517 -174.607312 
L 497.457283 -174.607312 
L 500.32605 -174.607312 
L 503.194816 -174.607312 
L 506.063582 -174.607312 
L 508.932349 -174.607312 
L 511.801115 -174.607312 
L 514.669881 -174.607312 
L 517.538648 -174.607312 
L 520.407414 -174.607312 
L 523.27618 -174.607312 
L 526.144947 -174.607312 
L 529.013713 -174.607312 
L 531.882479 -174.607312 
L 534.751246 -174.607312 
L 537.620012 -174.607312 
L 540.488778 -174.607312 
L 543.357545 -174.607312 
L 546.226311 -174.607312 
L 549.095077 -174.607312 
L 551.963844 -174.607312 
L 554.83261 -174.607312 
L 557.701376 -174.607312 
L 560.570143 -174.607312 
L 563.438909 -174.607312 
L 566.307675 -174.607312 
L 569.176442 -174.607312 
L 572.045208 -174.607312 
L 574.913974 -174.607312 
L 577.782741 -174.607312 
L 580.651507 -174.607312 
L 583.520273 -174.607312 
L 586.38904 -174.607312 
L 589.257806 -174.607312 
L 592.126572 -174.607312 
L 594.995339 -174.607312 
L 597.864105 -174.607312 
L 600.732871 -174.607312 
L 603.601638 -174.607312 
L 606.470404 -174.607312 
L 609.33917 -174.607312 
L 612.207937 -174.607312 
L 615.076703 -174.607312 
L 617.945469 -174.607312 
L 620.814236 -174.607312 
L 623.683002 -174.607312 
L 626.551768 -174.607312 
L 629.420535 -174.607312 
L 632.289301 -174.607312 
L 635.158067 -174.607312 
L 638.026834 -174.607312 
L 640.8956 -174.607312 
L 643.764366 -174.607312 
L 646.633133 -174.607312 
L 649.501899 -174.607312 
L 652.370665 -174.607312 
L 655.239432 -174.607312 
L 658.108198 -174.607312 
L 660.976964 -174.607312 
L 663.845731 -174.607312 
L 666.714497 -174.607312 
L 669.583263 -174.607312 
L 672.45203 -174.607312 
L 675.320796 -174.607312 
L 678.189562 -174.607312 
L 681.058329 -174.607312 
L 683.927095 -174.607312 
L 686.795861 -174.607312 
L 689.664628 -174.607312 
L 692.533394 -174.607312 
L 695.40216 -174.607312 
L 698.270927 -174.607312 
L 701.139693 -174.607312 
L 704.008459 -174.607312 
L 706.877226 -174.607312 
L 709.745992 -174.607312 
L 712.614758 -174.607312 
L 715.483525 -174.607312 
L 718.352291 -174.607312 
L 721.221057 -174.607312 
L 724.089824 -174.607312 
L 726.95859 -174.607312 
L 729.827356 -174.607312 
L 732.696123 -174.607312 
L 732.696123 -185.341644 
L 732.696123 -185.341644 
L 729.827356 -185.781813 
L 726.95859 -186.217548 
L 724.089824 -186.646971 
L 721.221057 -187.068169 
L 718.352291 -187.479204 
L 715.483525 -187.878132 
L 712.614758 -188.263018 
L 709.745992 -188.63195 
L 706.877226 -188.983059 
L 704.008459 -189.314532 
L 701.139693 -189.624635 
L 698.270927 -189.911723 
L 695.40216 -190.174264 
L 692.533394 -190.410851 
L 689.664628 -190.620216 
L 686.795861 -190.801251 
L 683.927095 -190.953014 
L 681.058329 -191.074747 
L 678.189562 -191.165883 
L 675.320796 -191.226053 
L 672.45203 -191.255098 
L 669.583263 -191.253069 
L 666.714497 -191.22023 
L 663.845731 -191.157058 
L 660.976964 -191.064244 
L 658.108198 -190.942682 
L 655.239432 -190.793466 
L 652.370665 -190.617882 
L 649.501899 -190.417391 
L 646.633133 -190.193622 
L 643.764366 -189.948349 
L 640.8956 -189.683482 
L 638.026834 -189.401042 
L 635.158067 -189.103143 
L 632.289301 -188.79197 
L 629.420535 -188.469761 
L 626.551768 -188.138781 
L 623.683002 -187.8013 
L 620.814236 -187.459574 
L 617.945469 -187.115822 
L 615.076703 -186.772202 
L 612.207937 -186.430799 
L 609.33917 -186.093599 
L 606.470404 -185.762479 
L 603.601638 -185.439187 
L 600.732871 -185.125332 
L 597.864105 -184.822374 
L 594.995339 -184.531614 
L 592.126572 -184.254188 
L 589.257806 -183.991066 
L 586.38904 -183.743047 
L 583.520273 -183.510763 
L 580.651507 -183.294681 
L 577.782741 -183.095108 
L 574.913974 -182.9122 
L 572.045208 -182.74597 
L 569.176442 -182.596299 
L 566.307675 -182.462948 
L 563.438909 -182.345571 
L 560.570143 -182.243732 
L 557.701376 -182.156914 
L 554.83261 -182.084539 
L 551.963844 -182.02598 
L 549.095077 -181.980578 
L 546.226311 -181.947655 
L 543.357545 -181.926528 
L 540.488778 -181.916519 
L 537.620012 -181.916973 
L 534.751246 -181.927262 
L 531.882479 -181.946795 
L 529.013713 -181.975027 
L 526.144947 -182.011465 
L 523.27618 -182.055669 
L 520.407414 -182.107257 
L 517.538648 -182.165906 
L 514.669881 -182.231348 
L 511.801115 -182.303369 
L 508.932349 -182.381809 
L 506.063582 -182.466551 
L 503.194816 -182.557518 
L 500.32605 -182.654666 
L 497.457283 -182.757975 
L 494.588517 -182.867443 
L 491.719751 -182.983073 
L 488.850984 -183.10487 
L 485.982218 -183.232828 
L 483.113452 -183.366922 
L 480.244685 -183.507103 
L 477.375919 -183.653289 
L 474.507153 -183.805358 
L 471.638386 -183.963145 
L 468.76962 -184.126438 
L 465.900854 -184.294973 
L 463.032087 -184.468436 
L 460.163321 -184.646462 
L 457.294555 -184.828637 
L 454.425788 -185.014503 
L 451.557022 -185.203564 
L 448.688256 -185.395289 
L 445.819489 -185.589128 
L 442.950723 -185.784514 
L 440.081957 -185.980882 
L 437.21319 -186.177679 
L 434.344424 -186.374375 
L 431.475658 -186.570487 
L 428.606891 -186.765586 
L 425.738125 -186.95932 
L 422.869359 -187.151429 
L 420.000592 -187.341761 
L 417.131826 -187.530294 
L 414.26306 -187.717147 
L 411.394293 -187.902601 
L 408.525527 -188.087112 
L 405.656761 -188.271328 
L 402.787994 -188.456098 
L 399.919228 -188.642485 
L 397.050462 -188.831775 
L 394.181695 -189.025486 
L 391.312929 -189.225365 
L 388.444163 -189.4334 
L 385.575396 -189.651808 
L 382.70663 -189.883036 
L 379.837864 -190.129755 
L 376.969097 -190.394843 
L 374.100331 -190.681373 
L 371.231565 -190.992598 
L 368.362798 -191.331923 
L 365.494032 -191.702887 
L 362.625266 -192.109129 
L 359.756499 -192.554362 
L 356.887733 -193.042332 
L 354.018967 -193.576789 
L 351.1502 -194.161441 
L 348.281434 -194.799917 
L 345.412668 -195.49572 
L 342.543901 -196.252186 
L 339.675135 -197.072435 
L 336.806369 -197.959326 
L 333.937602 -198.915411 
L 331.068836 -199.942886 
L 328.20007 -201.043552 
L 325.331303 -202.218764 
L 322.462537 -203.469393 
L 319.593771 -204.795784 
L 316.725004 -206.197722 
L 313.856238 -207.674397 
L 310.987472 -209.224375 
L 308.118705 -210.845573 
L 305.249939 -212.535239 
L 302.381173 -214.289937 
L 299.512406 -216.105542 
L 296.64364 -217.977235 
L 293.774874 -219.899504 
L 290.906107 -221.866163 
L 288.037341 -223.870366 
L 285.168575 -225.904631 
L 282.299808 -227.960879 
L 279.431042 -230.03047 
L 276.562276 -232.104252 
L 273.693509 -234.172619 
L 270.824743 -236.22557 
L 267.955977 -238.252781 
L 265.08721 -240.243677 
L 262.218444 -242.187514 
L 259.349678 -244.073465 
L 256.480911 -245.890705 
L 253.612145 -247.62851 
L 250.743379 -249.276342 
L 247.874612 -250.823954 
L 245.005846 -252.261477 
L 242.13708 -253.579517 
L 239.268313 -254.769246 
L 236.399547 -255.822491 
L 233.530781 -256.731811 
L 230.662014 -257.490581 
L 227.793248 -258.093055 
L 224.924482 -258.534431 
L 222.055715 -258.810901 
L 219.186949 -258.919693 
L 216.318183 -258.859107 
L 213.449416 -258.62853 
L 210.58065 -258.228446 
L 207.711884 -257.660437 
L 204.843117 -256.927166 
L 201.974351 -256.032353 
L 199.105585 -254.980736 
L 196.236818 -253.778025 
L 193.368052 -252.430844 
L 190.499286 -250.946665 
L 187.630519 -249.333733 
L 184.761753 -247.600984 
L 181.892987 -245.757953 
L 179.02422 -243.814688 
L 176.155454 -241.781649 
L 173.286688 -239.669607 
L 170.417921 -237.489551 
L 167.549155 -235.252583 
L 164.680389 -232.969822 
L 161.811622 -230.652311 
z
" style="stroke: #1b9e77"/>
    </defs>
    <g clip-path="url(#p7e89ba41e7)">
     <use xlink:href="#m4a8753bb1e" x="0" y="280.655312" style="fill: #1b9e77; fill-opacity: 0.5; stroke: #1b9e77"/>
    </g>
   </g>
   <g id="matplotlib.axis_1">
    <g id="xtick_1">
     <g id="line2d_1">
      <defs>
       <path id="m30eaf99312" d="M 0 0 
L 0 3.5 
" style="stroke: #000000; stroke-width: 0.8"/>
      </defs>
      <g>
       <use xlink:href="#m30eaf99312" x="161.811622" y="106.048" style="stroke: #000000; stroke-width: 0.8"/>
      </g>
     </g>
    </g>
    <g id="xtick_2">
     <g id="line2d_2">
      <g>
       <use xlink:href="#m30eaf99312" x="275.988522" y="106.048" style="stroke: #000000; stroke-width: 0.8"/>
      </g>
     </g>
    </g>
    <g id="xtick_3">
     <g id="line2d_3">
      <g>
       <use xlink:href="#m30eaf99312" x="390.165422" y="106.048" style="stroke: #000000; stroke-width: 0.8"/>
      </g>
     </g>
    </g>
    <g id="xtick_4">
     <g id="line2d_4">
      <g>
       <use xlink:href="#m30eaf99312" x="504.342323" y="106.048" style="stroke: #000000; stroke-width: 0.8"/>
      </g>
     </g>
    </g>
    <g id="xtick_5">
     <g id="line2d_5">
      <g>
       <use xlink:href="#m30eaf99312" x="618.519223" y="106.048" style="stroke: #000000; stroke-width: 0.8"/>
      </g>
     </g>
    </g>
    <g id="xtick_6">
     <g id="line2d_6">
      <g>
       <use xlink:href="#m30eaf99312" x="732.696123" y="106.048" style="stroke: #000000; stroke-width: 0.8"/>
      </g>
     </g>
    </g>
   </g>
   <g id="matplotlib.axis_2"/>
   <g id="line2d_7">
    <path d="M 161.811622 50.003001 
L 170.417921 43.165762 
L 176.155454 38.873664 
L 181.892987 34.897359 
L 187.630519 31.321579 
L 190.499286 29.708647 
L 193.368052 28.224469 
L 196.236818 26.877288 
L 199.105585 25.674577 
L 201.974351 24.622959 
L 204.843117 23.728146 
L 207.711884 22.994876 
L 210.58065 22.426867 
L 213.449416 22.026783 
L 216.318183 21.796205 
L 219.186949 21.735619 
L 222.055715 21.844412 
L 224.924482 22.120882 
L 227.793248 22.562257 
L 230.662014 23.164731 
L 233.530781 23.923501 
L 236.399547 24.832822 
L 239.268313 25.886066 
L 242.13708 27.075796 
L 247.874612 29.831358 
L 253.612145 33.026803 
L 259.349678 36.581848 
L 265.08721 40.411636 
L 273.693509 46.482694 
L 290.906107 58.789149 
L 296.64364 62.678078 
L 302.381173 66.365375 
L 308.118705 69.809739 
L 313.856238 72.980915 
L 319.593771 75.859529 
L 325.331303 78.436548 
L 331.068836 80.712426 
L 336.806369 82.695986 
L 342.543901 84.403126 
L 348.281434 85.855396 
L 354.018967 87.078524 
L 359.756499 88.100951 
L 365.494032 88.952425 
L 374.100331 89.973939 
L 382.70663 90.772276 
L 397.050462 91.823537 
L 474.507153 96.849954 
L 491.719751 97.672239 
L 508.932349 98.273503 
L 526.144947 98.643848 
L 540.488778 98.738793 
L 551.963844 98.629333 
L 563.438909 98.309741 
L 574.913974 97.743113 
L 586.38904 96.912265 
L 597.864105 95.832939 
L 612.207937 94.224514 
L 638.026834 91.25427 
L 646.633133 90.461691 
L 655.239432 89.861846 
L 663.845731 89.498254 
L 672.45203 89.400214 
L 681.058329 89.580565 
L 689.664628 90.035096 
L 698.270927 90.743589 
L 706.877226 91.672254 
L 718.352291 93.176109 
L 732.696123 95.313669 
L 732.696123 95.313669 
" clip-path="url(#p7e89ba41e7)" style="fill: none; stroke: #ffffff; stroke-width: 2; stroke-linecap: square"/>
   </g>
   <g id="line2d_8">
    <path d="M 161.811622 106.048 
L 732.696123 106.048 
" style="fill: none; stroke: #000000; stroke-linecap: square"/>
   </g>
   <g id="text_1">
    <g id="patch_3">
     <path d="M 26.270625 115.457687 
L 105.82875 115.457687 
L 105.82875 96.638312 
L 26.270625 96.638312 
z
" style="fill: #ffffff; opacity: 0.5"/>
    </g>
    <!-- Career Growth -->
    <g transform="translate(30.230625 108.930812) scale(0.12 -0.12)">
     <defs>
      <path id="TimesNewRomanPSMT-43" d="M 3853 4334 
L 3950 2894 
L 3853 2894 
Q 3659 3541 3300 3825 
Q 2941 4109 2438 4109 
Q 2016 4109 1675 3895 
Q 1334 3681 1139 3212 
Q 944 2744 944 2047 
Q 944 1472 1128 1050 
Q 1313 628 1683 403 
Q 2053 178 2528 178 
Q 2941 178 3256 354 
Q 3572 531 3950 1056 
L 4047 994 
Q 3728 428 3303 165 
Q 2878 -97 2294 -97 
Q 1241 -97 663 684 
Q 231 1266 231 2053 
Q 231 2688 515 3219 
Q 800 3750 1298 4042 
Q 1797 4334 2388 4334 
Q 2847 4334 3294 4109 
Q 3425 4041 3481 4041 
Q 3566 4041 3628 4100 
Q 3709 4184 3744 4334 
L 3853 4334 
z
" transform="scale(0.015625)"/>
      <path id="TimesNewRomanPSMT-61" d="M 1822 413 
Q 1381 72 1269 19 
Q 1100 -59 909 -59 
Q 613 -59 420 144 
Q 228 347 228 678 
Q 228 888 322 1041 
Q 450 1253 767 1440 
Q 1084 1628 1822 1897 
L 1822 2009 
Q 1822 2438 1686 2597 
Q 1550 2756 1291 2756 
Q 1094 2756 978 2650 
Q 859 2544 859 2406 
L 866 2225 
Q 866 2081 792 2003 
Q 719 1925 600 1925 
Q 484 1925 411 2006 
Q 338 2088 338 2228 
Q 338 2497 613 2722 
Q 888 2947 1384 2947 
Q 1766 2947 2009 2819 
Q 2194 2722 2281 2516 
Q 2338 2381 2338 1966 
L 2338 994 
Q 2338 584 2353 492 
Q 2369 400 2405 369 
Q 2441 338 2488 338 
Q 2538 338 2575 359 
Q 2641 400 2828 588 
L 2828 413 
Q 2478 -56 2159 -56 
Q 2006 -56 1915 50 
Q 1825 156 1822 413 
z
M 1822 616 
L 1822 1706 
Q 1350 1519 1213 1441 
Q 966 1303 859 1153 
Q 753 1003 753 825 
Q 753 600 887 451 
Q 1022 303 1197 303 
Q 1434 303 1822 616 
z
" transform="scale(0.015625)"/>
      <path id="TimesNewRomanPSMT-72" d="M 1038 2947 
L 1038 2303 
Q 1397 2947 1775 2947 
Q 1947 2947 2059 2842 
Q 2172 2738 2172 2600 
Q 2172 2478 2090 2393 
Q 2009 2309 1897 2309 
Q 1788 2309 1652 2417 
Q 1516 2525 1450 2525 
Q 1394 2525 1328 2463 
Q 1188 2334 1038 2041 
L 1038 669 
Q 1038 431 1097 309 
Q 1138 225 1241 169 
Q 1344 113 1538 113 
L 1538 0 
L 72 0 
L 72 113 
Q 291 113 397 181 
Q 475 231 506 341 
Q 522 394 522 644 
L 522 1753 
Q 522 2253 501 2348 
Q 481 2444 426 2487 
Q 372 2531 291 2531 
Q 194 2531 72 2484 
L 41 2597 
L 906 2947 
L 1038 2947 
z
" transform="scale(0.015625)"/>
      <path id="TimesNewRomanPSMT-65" d="M 681 1784 
Q 678 1147 991 784 
Q 1303 422 1725 422 
Q 2006 422 2214 576 
Q 2422 731 2563 1106 
L 2659 1044 
Q 2594 616 2278 264 
Q 1963 -88 1488 -88 
Q 972 -88 605 314 
Q 238 716 238 1394 
Q 238 2128 614 2539 
Q 991 2950 1559 2950 
Q 2041 2950 2350 2633 
Q 2659 2316 2659 1784 
L 681 1784 
z
M 681 1966 
L 2006 1966 
Q 1991 2241 1941 2353 
Q 1863 2528 1708 2628 
Q 1553 2728 1384 2728 
Q 1125 2728 920 2526 
Q 716 2325 681 1966 
z
" transform="scale(0.015625)"/>
      <path id="TimesNewRomanPSMT-20" transform="scale(0.015625)"/>
      <path id="TimesNewRomanPSMT-47" d="M 3928 4334 
L 4038 2997 
L 3928 2997 
Q 3763 3497 3500 3750 
Q 3122 4116 2528 4116 
Q 1719 4116 1297 3475 
Q 944 2934 944 2188 
Q 944 1581 1178 1081 
Q 1413 581 1792 348 
Q 2172 116 2572 116 
Q 2806 116 3025 175 
Q 3244 234 3447 350 
L 3447 1575 
Q 3447 1894 3398 1992 
Q 3350 2091 3248 2142 
Q 3147 2194 2891 2194 
L 2891 2313 
L 4531 2313 
L 4531 2194 
L 4453 2194 
Q 4209 2194 4119 2031 
Q 4056 1916 4056 1575 
L 4056 278 
Q 3697 84 3347 -6 
Q 2997 -97 2569 -97 
Q 1341 -97 703 691 
Q 225 1281 225 2053 
Q 225 2613 494 3125 
Q 813 3734 1369 4063 
Q 1834 4334 2469 4334 
Q 2700 4334 2889 4296 
Q 3078 4259 3425 4131 
Q 3600 4066 3659 4066 
Q 3719 4066 3761 4120 
Q 3803 4175 3813 4334 
L 3928 4334 
z
" transform="scale(0.015625)"/>
      <path id="TimesNewRomanPSMT-6f" d="M 1600 2947 
Q 2250 2947 2644 2453 
Q 2978 2031 2978 1484 
Q 2978 1100 2793 706 
Q 2609 313 2286 112 
Q 1963 -88 1566 -88 
Q 919 -88 538 428 
Q 216 863 216 1403 
Q 216 1797 411 2186 
Q 606 2575 925 2761 
Q 1244 2947 1600 2947 
z
M 1503 2744 
Q 1338 2744 1170 2645 
Q 1003 2547 900 2300 
Q 797 2053 797 1666 
Q 797 1041 1045 587 
Q 1294 134 1700 134 
Q 2003 134 2200 384 
Q 2397 634 2397 1244 
Q 2397 2006 2069 2444 
Q 1847 2744 1503 2744 
z
" transform="scale(0.015625)"/>
      <path id="TimesNewRomanPSMT-77" d="M 41 2863 
L 1241 2863 
L 1241 2747 
Q 1075 2734 1023 2687 
Q 972 2641 972 2553 
Q 972 2456 1025 2319 
L 1638 672 
L 2253 2013 
L 2091 2434 
Q 2016 2622 1894 2694 
Q 1825 2738 1638 2747 
L 1638 2863 
L 3000 2863 
L 3000 2747 
Q 2775 2738 2681 2666 
Q 2619 2616 2619 2506 
Q 2619 2444 2644 2378 
L 3294 734 
L 3897 2319 
Q 3959 2488 3959 2588 
Q 3959 2647 3898 2694 
Q 3838 2741 3659 2747 
L 3659 2863 
L 4563 2863 
L 4563 2747 
Q 4291 2706 4163 2378 
L 3206 -88 
L 3078 -88 
L 2363 1741 
L 1528 -88 
L 1413 -88 
L 494 2319 
Q 403 2547 315 2626 
Q 228 2706 41 2747 
L 41 2863 
z
" transform="scale(0.015625)"/>
      <path id="TimesNewRomanPSMT-74" d="M 1031 3803 
L 1031 2863 
L 1700 2863 
L 1700 2644 
L 1031 2644 
L 1031 788 
Q 1031 509 1111 412 
Q 1191 316 1316 316 
Q 1419 316 1516 380 
Q 1613 444 1666 569 
L 1788 569 
Q 1678 263 1478 108 
Q 1278 -47 1066 -47 
Q 922 -47 784 33 
Q 647 113 581 261 
Q 516 409 516 719 
L 516 2644 
L 63 2644 
L 63 2747 
Q 234 2816 414 2980 
Q 594 3144 734 3369 
Q 806 3488 934 3803 
L 1031 3803 
z
" transform="scale(0.015625)"/>
      <path id="TimesNewRomanPSMT-68" d="M 1041 4444 
L 1041 2350 
Q 1388 2731 1591 2839 
Q 1794 2947 1997 2947 
Q 2241 2947 2416 2812 
Q 2591 2678 2675 2391 
Q 2734 2191 2734 1659 
L 2734 647 
Q 2734 375 2778 275 
Q 2809 200 2884 156 
Q 2959 113 3159 113 
L 3159 0 
L 1753 0 
L 1753 113 
L 1819 113 
Q 2019 113 2097 173 
Q 2175 234 2206 353 
Q 2216 403 2216 647 
L 2216 1659 
Q 2216 2128 2167 2275 
Q 2119 2422 2012 2495 
Q 1906 2569 1756 2569 
Q 1603 2569 1437 2487 
Q 1272 2406 1041 2159 
L 1041 647 
Q 1041 353 1073 281 
Q 1106 209 1195 161 
Q 1284 113 1503 113 
L 1503 0 
L 84 0 
L 84 113 
Q 275 113 384 172 
Q 447 203 484 290 
Q 522 378 522 647 
L 522 3238 
Q 522 3728 498 3840 
Q 475 3953 426 3993 
Q 378 4034 297 4034 
Q 231 4034 84 3984 
L 41 4094 
L 897 4444 
L 1041 4444 
z
" transform="scale(0.015625)"/>
     </defs>
     <use xlink:href="#TimesNewRomanPSMT-43"/>
     <use xlink:href="#TimesNewRomanPSMT-61" transform="translate(66.699219 0)"/>
     <use xlink:href="#TimesNewRomanPSMT-72" transform="translate(111.083984 0)"/>
     <use xlink:href="#TimesNewRomanPSMT-65" transform="translate(144.384766 0)"/>
     <use xlink:href="#TimesNewRomanPSMT-65" transform="translate(188.769531 0)"/>
     <use xlink:href="#TimesNewRomanPSMT-72" transform="translate(233.154297 0)"/>
     <use xlink:href="#TimesNewRomanPSMT-20" transform="translate(266.455078 0)"/>
     <use xlink:href="#TimesNewRomanPSMT-47" transform="translate(291.455078 0)"/>
     <use xlink:href="#TimesNewRomanPSMT-72" transform="translate(363.671875 0)"/>
     <use xlink:href="#TimesNewRomanPSMT-6f" transform="translate(396.972656 0)"/>
     <use xlink:href="#TimesNewRomanPSMT-77" transform="translate(446.972656 0)"/>
     <use xlink:href="#TimesNewRomanPSMT-74" transform="translate(519.189453 0)"/>
     <use xlink:href="#TimesNewRomanPSMT-68" transform="translate(546.972656 0)"/>
    </g>
   </g>
  </g>
  <g id="axes_2">
   <g id="patch_4">
    <path d="M 161.811622 150.312 
L 732.696123 150.312 
L 732.696123 61.784 
L 161.811622 61.784 
L 161.811622 150.312 
z
" style="fill: none; opacity: 0"/>
   </g>
   <g id="FillBetweenPolyCollection_2">
    <defs>
     <path id="mf82a106355" d="M 161.811622 -145.181784 
L 161.811622 -130.343312 
L 164.680389 -130.343312 
L 167.549155 -130.343312 
L 170.417921 -130.343312 
L 173.286688 -130.343312 
L 176.155454 -130.343312 
L 179.02422 -130.343312 
L 181.892987 -130.343312 
L 184.761753 -130.343312 
L 187.630519 -130.343312 
L 190.499286 -130.343312 
L 193.368052 -130.343312 
L 196.236818 -130.343312 
L 199.105585 -130.343312 
L 201.974351 -130.343312 
L 204.843117 -130.343312 
L 207.711884 -130.343312 
L 210.58065 -130.343312 
L 213.449416 -130.343312 
L 216.318183 -130.343312 
L 219.186949 -130.343312 
L 222.055715 -130.343312 
L 224.924482 -130.343312 
L 227.793248 -130.343312 
L 230.662014 -130.343312 
L 233.530781 -130.343312 
L 236.399547 -130.343312 
L 239.268313 -130.343312 
L 242.13708 -130.343312 
L 245.005846 -130.343312 
L 247.874612 -130.343312 
L 250.743379 -130.343312 
L 253.612145 -130.343312 
L 256.480911 -130.343312 
L 259.349678 -130.343312 
L 262.218444 -130.343312 
L 265.08721 -130.343312 
L 267.955977 -130.343312 
L 270.824743 -130.343312 
L 273.693509 -130.343312 
L 276.562276 -130.343312 
L 279.431042 -130.343312 
L 282.299808 -130.343312 
L 285.168575 -130.343312 
L 288.037341 -130.343312 
L 290.906107 -130.343312 
L 293.774874 -130.343312 
L 296.64364 -130.343312 
L 299.512406 -130.343312 
L 302.381173 -130.343312 
L 305.249939 -130.343312 
L 308.118705 -130.343312 
L 310.987472 -130.343312 
L 313.856238 -130.343312 
L 316.725004 -130.343312 
L 319.593771 -130.343312 
L 322.462537 -130.343312 
L 325.331303 -130.343312 
L 328.20007 -130.343312 
L 331.068836 -130.343312 
L 333.937602 -130.343312 
L 336.806369 -130.343312 
L 339.675135 -130.343312 
L 342.543901 -130.343312 
L 345.412668 -130.343312 
L 348.281434 -130.343312 
L 351.1502 -130.343312 
L 354.018967 -130.343312 
L 356.887733 -130.343312 
L 359.756499 -130.343312 
L 362.625266 -130.343312 
L 365.494032 -130.343312 
L 368.362798 -130.343312 
L 371.231565 -130.343312 
L 374.100331 -130.343312 
L 376.969097 -130.343312 
L 379.837864 -130.343312 
L 382.70663 -130.343312 
L 385.575396 -130.343312 
L 388.444163 -130.343312 
L 391.312929 -130.343312 
L 394.181695 -130.343312 
L 397.050462 -130.343312 
L 399.919228 -130.343312 
L 402.787994 -130.343312 
L 405.656761 -130.343312 
L 408.525527 -130.343312 
L 411.394293 -130.343312 
L 414.26306 -130.343312 
L 417.131826 -130.343312 
L 420.000592 -130.343312 
L 422.869359 -130.343312 
L 425.738125 -130.343312 
L 428.606891 -130.343312 
L 431.475658 -130.343312 
L 434.344424 -130.343312 
L 437.21319 -130.343312 
L 440.081957 -130.343312 
L 442.950723 -130.343312 
L 445.819489 -130.343312 
L 448.688256 -130.343312 
L 451.557022 -130.343312 
L 454.425788 -130.343312 
L 457.294555 -130.343312 
L 460.163321 -130.343312 
L 463.032087 -130.343312 
L 465.900854 -130.343312 
L 468.76962 -130.343312 
L 471.638386 -130.343312 
L 474.507153 -130.343312 
L 477.375919 -130.343312 
L 480.244685 -130.343312 
L 483.113452 -130.343312 
L 485.982218 -130.343312 
L 488.850984 -130.343312 
L 491.719751 -130.343312 
L 494.588517 -130.343312 
L 497.457283 -130.343312 
L 500.32605 -130.343312 
L 503.194816 -130.343312 
L 506.063582 -130.343312 
L 508.932349 -130.343312 
L 511.801115 -130.343312 
L 514.669881 -130.343312 
L 517.538648 -130.343312 
L 520.407414 -130.343312 
L 523.27618 -130.343312 
L 526.144947 -130.343312 
L 529.013713 -130.343312 
L 531.882479 -130.343312 
L 534.751246 -130.343312 
L 537.620012 -130.343312 
L 540.488778 -130.343312 
L 543.357545 -130.343312 
L 546.226311 -130.343312 
L 549.095077 -130.343312 
L 551.963844 -130.343312 
L 554.83261 -130.343312 
L 557.701376 -130.343312 
L 560.570143 -130.343312 
L 563.438909 -130.343312 
L 566.307675 -130.343312 
L 569.176442 -130.343312 
L 572.045208 -130.343312 
L 574.913974 -130.343312 
L 577.782741 -130.343312 
L 580.651507 -130.343312 
L 583.520273 -130.343312 
L 586.38904 -130.343312 
L 589.257806 -130.343312 
L 592.126572 -130.343312 
L 594.995339 -130.343312 
L 597.864105 -130.343312 
L 600.732871 -130.343312 
L 603.601638 -130.343312 
L 606.470404 -130.343312 
L 609.33917 -130.343312 
L 612.207937 -130.343312 
L 615.076703 -130.343312 
L 617.945469 -130.343312 
L 620.814236 -130.343312 
L 623.683002 -130.343312 
L 626.551768 -130.343312 
L 629.420535 -130.343312 
L 632.289301 -130.343312 
L 635.158067 -130.343312 
L 638.026834 -130.343312 
L 640.8956 -130.343312 
L 643.764366 -130.343312 
L 646.633133 -130.343312 
L 649.501899 -130.343312 
L 652.370665 -130.343312 
L 655.239432 -130.343312 
L 658.108198 -130.343312 
L 660.976964 -130.343312 
L 663.845731 -130.343312 
L 666.714497 -130.343312 
L 669.583263 -130.343312 
L 672.45203 -130.343312 
L 675.320796 -130.343312 
L 678.189562 -130.343312 
L 681.058329 -130.343312 
L 683.927095 -130.343312 
L 686.795861 -130.343312 
L 689.664628 -130.343312 
L 692.533394 -130.343312 
L 695.40216 -130.343312 
L 698.270927 -130.343312 
L 701.139693 -130.343312 
L 704.008459 -130.343312 
L 706.877226 -130.343312 
L 709.745992 -130.343312 
L 712.614758 -130.343312 
L 715.483525 -130.343312 
L 718.352291 -130.343312 
L 721.221057 -130.343312 
L 724.089824 -130.343312 
L 726.95859 -130.343312 
L 729.827356 -130.343312 
L 732.696123 -130.343312 
L 732.696123 -147.139742 
L 732.696123 -147.139742 
L 729.827356 -147.688984 
L 726.95859 -148.218388 
L 724.089824 -148.726083 
L 721.221057 -149.210451 
L 718.352291 -149.670151 
L 715.483525 -150.104144 
L 712.614758 -150.511708 
L 709.745992 -150.892455 
L 706.877226 -151.24634 
L 704.008459 -151.57366 
L 701.139693 -151.875058 
L 698.270927 -152.151507 
L 695.40216 -152.404304 
L 692.533394 -152.635046 
L 689.664628 -152.845608 
L 686.795861 -153.03811 
L 683.927095 -153.214888 
L 681.058329 -153.378453 
L 678.189562 -153.53145 
L 675.320796 -153.676619 
L 672.45203 -153.816743 
L 669.583263 -153.95461 
L 666.714497 -154.092963 
L 663.845731 -154.234454 
L 660.976964 -154.381605 
L 658.108198 -154.536766 
L 655.239432 -154.702078 
L 652.370665 -154.879438 
L 649.501899 -155.070476 
L 646.633133 -155.276527 
L 643.764366 -155.498616 
L 640.8956 -155.737445 
L 638.026834 -155.993393 
L 635.158067 -156.266507 
L 632.289301 -156.556521 
L 629.420535 -156.862857 
L 626.551768 -157.184653 
L 623.683002 -157.52078 
L 620.814236 -157.869872 
L 617.945469 -158.230358 
L 615.076703 -158.600497 
L 612.207937 -158.978412 
L 609.33917 -159.362131 
L 606.470404 -159.749627 
L 603.601638 -160.138852 
L 600.732871 -160.52778 
L 597.864105 -160.914438 
L 594.995339 -161.296941 
L 592.126572 -161.673523 
L 589.257806 -162.042558 
L 586.38904 -162.402586 
L 583.520273 -162.752328 
L 580.651507 -163.090697 
L 577.782741 -163.416804 
L 574.913974 -163.729962 
L 572.045208 -164.029678 
L 569.176442 -164.315652 
L 566.307675 -164.587758 
L 563.438909 -164.846031 
L 560.570143 -165.09065 
L 557.701376 -165.321911 
L 554.83261 -165.540209 
L 551.963844 -165.74601 
L 549.095077 -165.93983 
L 546.226311 -166.122204 
L 543.357545 -166.293667 
L 540.488778 -166.454732 
L 537.620012 -166.605869 
L 534.751246 -166.747486 
L 531.882479 -166.879919 
L 529.013713 -167.003417 
L 526.144947 -167.118141 
L 523.27618 -167.224153 
L 520.407414 -167.321421 
L 517.538648 -167.409824 
L 514.669881 -167.489155 
L 511.801115 -167.559135 
L 508.932349 -167.619422 
L 506.063582 -167.669629 
L 503.194816 -167.70934 
L 500.32605 -167.738125 
L 497.457283 -167.755561 
L 494.588517 -167.761251 
L 491.719751 -167.754836 
L 488.850984 -167.736018 
L 485.982218 -167.704573 
L 483.113452 -167.660362 
L 480.244685 -167.603345 
L 477.375919 -167.533586 
L 474.507153 -167.451265 
L 471.638386 -167.356676 
L 468.76962 -167.250229 
L 465.900854 -167.132449 
L 463.032087 -167.003969 
L 460.163321 -166.865529 
L 457.294555 -166.71796 
L 454.425788 -166.562178 
L 451.557022 -166.399169 
L 448.688256 -166.229981 
L 445.819489 -166.055705 
L 442.950723 -165.877463 
L 440.081957 -165.696394 
L 437.21319 -165.513643 
L 434.344424 -165.330341 
L 431.475658 -165.147601 
L 428.606891 -164.9665 
L 425.738125 -164.788072 
L 422.869359 -164.6133 
L 420.000592 -164.443105 
L 417.131826 -164.278342 
L 414.26306 -164.119795 
L 411.394293 -163.968171 
L 408.525527 -163.824101 
L 405.656761 -163.688132 
L 402.787994 -163.560731 
L 399.919228 -163.442283 
L 397.050462 -163.333088 
L 394.181695 -163.233368 
L 391.312929 -163.143259 
L 388.444163 -163.06282 
L 385.575396 -162.992027 
L 382.70663 -162.930782 
L 379.837864 -162.878906 
L 376.969097 -162.836148 
L 374.100331 -162.802183 
L 371.231565 -162.776614 
L 368.362798 -162.758976 
L 365.494032 -162.748742 
L 362.625266 -162.74532 
L 359.756499 -162.748064 
L 356.887733 -162.756276 
L 354.018967 -162.769216 
L 351.1502 -162.786102 
L 348.281434 -162.806125 
L 345.412668 -162.828455 
L 342.543901 -162.852249 
L 339.675135 -162.876661 
L 336.806369 -162.900855 
L 333.937602 -162.924009 
L 331.068836 -162.945331 
L 328.20007 -162.964065 
L 325.331303 -162.979498 
L 322.462537 -162.990971 
L 319.593771 -162.997884 
L 316.725004 -162.999698 
L 313.856238 -162.995941 
L 310.987472 -162.986205 
L 308.118705 -162.97015 
L 305.249939 -162.947494 
L 302.381173 -162.918014 
L 299.512406 -162.881532 
L 296.64364 -162.83791 
L 293.774874 -162.787036 
L 290.906107 -162.728814 
L 288.037341 -162.663148 
L 285.168575 -162.589928 
L 282.299808 -162.509017 
L 279.431042 -162.420239 
L 276.562276 -162.32336 
L 273.693509 -162.21808 
L 270.824743 -162.104024 
L 267.955977 -161.98073 
L 265.08721 -161.847647 
L 262.218444 -161.70413 
L 259.349678 -161.549441 
L 256.480911 -161.382754 
L 253.612145 -161.203159 
L 250.743379 -161.009672 
L 247.874612 -160.801251 
L 245.005846 -160.576809 
L 242.13708 -160.335232 
L 239.268313 -160.075402 
L 236.399547 -159.796214 
L 233.530781 -159.496605 
L 230.662014 -159.175576 
L 227.793248 -158.83221 
L 224.924482 -158.465707 
L 222.055715 -158.075393 
L 219.186949 -157.660752 
L 216.318183 -157.221437 
L 213.449416 -156.757288 
L 210.58065 -156.268346 
L 207.711884 -155.754863 
L 204.843117 -155.217306 
L 201.974351 -154.656361 
L 199.105585 -154.072932 
L 196.236818 -153.468135 
L 193.368052 -152.843291 
L 190.499286 -152.199915 
L 187.630519 -151.539699 
L 184.761753 -150.864497 
L 181.892987 -150.176304 
L 179.02422 -149.477234 
L 176.155454 -148.769496 
L 173.286688 -148.055373 
L 170.417921 -147.337194 
L 167.549155 -146.617309 
L 164.680389 -145.898065 
L 161.811622 -145.181784 
z
" style="stroke: #d95f02"/>
    </defs>
    <g clip-path="url(#p571824a6e6)">
     <use xlink:href="#mf82a106355" x="0" y="280.655312" style="fill: #d95f02; fill-opacity: 0.5; stroke: #d95f02"/>
    </g>
   </g>
   <g id="matplotlib.axis_3">
    <g id="xtick_7">
     <g id="line2d_9">
      <g>
       <use xlink:href="#m30eaf99312" x="161.811622" y="150.312" style="stroke: #000000; stroke-width: 0.8"/>
      </g>
     </g>
    </g>
    <g id="xtick_8">
     <g id="line2d_10">
      <g>
       <use xlink:href="#m30eaf99312" x="275.988522" y="150.312" style="stroke: #000000; stroke-width: 0.8"/>
      </g>
     </g>
    </g>
    <g id="xtick_9">
     <g id="line2d_11">
      <g>
       <use xlink:href="#m30eaf99312" x="390.165422" y="150.312" style="stroke: #000000; stroke-width: 0.8"/>
      </g>
     </g>
    </g>
    <g id="xtick_10">
     <g id="line2d_12">
      <g>
       <use xlink:href="#m30eaf99312" x="504.342323" y="150.312" style="stroke: #000000; stroke-width: 0.8"/>
      </g>
     </g>
    </g>
    <g id="xtick_11">
     <g id="line2d_13">
      <g>
       <use xlink:href="#m30eaf99312" x="618.519223" y="150.312" style="stroke: #000000; stroke-width: 0.8"/>
      </g>
     </g>
    </g>
    <g id="xtick_12">
     <g id="line2d_14">
      <g>
       <use xlink:href="#m30eaf99312" x="732.696123" y="150.312" style="stroke: #000000; stroke-width: 0.8"/>
      </g>
     </g>
    </g>
   </g>
   <g id="matplotlib.axis_4"/>
   <g id="line2d_15">
    <path d="M 161.811622 135.473529 
L 187.630519 129.115614 
L 199.105585 126.582381 
L 207.711884 124.900449 
L 216.318183 123.433876 
L 224.924482 122.189606 
L 233.530781 121.158707 
L 242.13708 120.32008 
L 253.612145 119.452154 
L 265.08721 118.807666 
L 279.431042 118.235073 
L 293.774874 117.868276 
L 310.987472 117.669108 
L 331.068836 117.709981 
L 368.362798 117.896336 
L 382.70663 117.724531 
L 397.050462 117.322224 
L 411.394293 116.687141 
L 428.606891 115.688813 
L 460.163321 113.789783 
L 474.507153 113.204047 
L 485.982218 112.950739 
L 497.457283 112.899751 
L 511.801115 113.096178 
L 526.144947 113.537172 
L 540.488778 114.20058 
L 554.83261 115.115104 
L 566.307675 116.067554 
L 577.782741 117.238508 
L 589.257806 118.612755 
L 612.207937 121.676901 
L 626.551768 123.47066 
L 638.026834 124.66192 
L 649.501899 125.584836 
L 660.976964 126.273708 
L 689.664628 127.809704 
L 698.270927 128.503806 
L 706.877226 129.408972 
L 715.483525 130.551168 
L 724.089824 131.929229 
L 732.696123 133.515571 
L 732.696123 133.515571 
" clip-path="url(#p571824a6e6)" style="fill: none; stroke: #ffffff; stroke-width: 2; stroke-linecap: square"/>
   </g>
   <g id="line2d_16">
    <path d="M 161.811622 150.312 
L 732.696123 150.312 
" style="fill: none; stroke: #000000; stroke-linecap: square"/>
   </g>
   <g id="text_2">
    <g id="patch_5">
     <path d="M 28.57875 159.721687 
L 105.82875 159.721687 
L 105.82875 140.902312 
L 28.57875 140.902312 
z
" style="fill: #ffffff; opacity: 0.5"/>
    </g>
    <!-- Compensation -->
    <g transform="translate(32.53875 153.194812) scale(0.12 -0.12)">
     <defs>
      <path id="TimesNewRomanPSMT-6d" d="M 1050 2338 
Q 1363 2650 1419 2697 
Q 1559 2816 1721 2881 
Q 1884 2947 2044 2947 
Q 2313 2947 2506 2790 
Q 2700 2634 2766 2338 
Q 3088 2713 3309 2830 
Q 3531 2947 3766 2947 
Q 3994 2947 4170 2830 
Q 4347 2713 4450 2447 
Q 4519 2266 4519 1878 
L 4519 647 
Q 4519 378 4559 278 
Q 4591 209 4675 161 
Q 4759 113 4950 113 
L 4950 0 
L 3538 0 
L 3538 113 
L 3597 113 
Q 3781 113 3884 184 
Q 3956 234 3988 344 
Q 4000 397 4000 647 
L 4000 1878 
Q 4000 2228 3916 2372 
Q 3794 2572 3525 2572 
Q 3359 2572 3192 2489 
Q 3025 2406 2788 2181 
L 2781 2147 
L 2788 2013 
L 2788 647 
Q 2788 353 2820 281 
Q 2853 209 2943 161 
Q 3034 113 3253 113 
L 3253 0 
L 1806 0 
L 1806 113 
Q 2044 113 2133 169 
Q 2222 225 2256 338 
Q 2272 391 2272 647 
L 2272 1878 
Q 2272 2228 2169 2381 
Q 2031 2581 1784 2581 
Q 1616 2581 1450 2491 
Q 1191 2353 1050 2181 
L 1050 647 
Q 1050 366 1089 281 
Q 1128 197 1204 155 
Q 1281 113 1516 113 
L 1516 0 
L 100 0 
L 100 113 
Q 297 113 375 155 
Q 453 197 493 289 
Q 534 381 534 647 
L 534 1741 
Q 534 2213 506 2350 
Q 484 2453 437 2492 
Q 391 2531 309 2531 
Q 222 2531 100 2484 
L 53 2597 
L 916 2947 
L 1050 2947 
L 1050 2338 
z
" transform="scale(0.015625)"/>
      <path id="TimesNewRomanPSMT-70" d="M -6 2578 
L 875 2934 
L 994 2934 
L 994 2266 
Q 1216 2644 1439 2795 
Q 1663 2947 1909 2947 
Q 2341 2947 2628 2609 
Q 2981 2197 2981 1534 
Q 2981 794 2556 309 
Q 2206 -88 1675 -88 
Q 1444 -88 1275 -22 
Q 1150 25 994 166 
L 994 -706 
Q 994 -1000 1030 -1079 
Q 1066 -1159 1155 -1206 
Q 1244 -1253 1478 -1253 
L 1478 -1369 
L -22 -1369 
L -22 -1253 
L 56 -1253 
Q 228 -1256 350 -1188 
Q 409 -1153 442 -1076 
Q 475 -1000 475 -688 
L 475 2019 
Q 475 2297 450 2372 
Q 425 2447 370 2484 
Q 316 2522 222 2522 
Q 147 2522 31 2478 
L -6 2578 
z
M 994 2081 
L 994 1013 
Q 994 666 1022 556 
Q 1066 375 1236 237 
Q 1406 100 1666 100 
Q 1978 100 2172 344 
Q 2425 663 2425 1241 
Q 2425 1897 2138 2250 
Q 1938 2494 1663 2494 
Q 1513 2494 1366 2419 
Q 1253 2363 994 2081 
z
" transform="scale(0.015625)"/>
      <path id="TimesNewRomanPSMT-6e" d="M 1034 2341 
Q 1538 2947 1994 2947 
Q 2228 2947 2397 2830 
Q 2566 2713 2666 2444 
Q 2734 2256 2734 1869 
L 2734 647 
Q 2734 375 2778 278 
Q 2813 200 2889 156 
Q 2966 113 3172 113 
L 3172 0 
L 1756 0 
L 1756 113 
L 1816 113 
Q 2016 113 2095 173 
Q 2175 234 2206 353 
Q 2219 400 2219 647 
L 2219 1819 
Q 2219 2209 2117 2386 
Q 2016 2563 1775 2563 
Q 1403 2563 1034 2156 
L 1034 647 
Q 1034 356 1069 288 
Q 1113 197 1189 155 
Q 1266 113 1500 113 
L 1500 0 
L 84 0 
L 84 113 
L 147 113 
Q 366 113 442 223 
Q 519 334 519 647 
L 519 1709 
Q 519 2225 495 2337 
Q 472 2450 423 2490 
Q 375 2531 294 2531 
Q 206 2531 84 2484 
L 38 2597 
L 900 2947 
L 1034 2947 
L 1034 2341 
z
" transform="scale(0.015625)"/>
      <path id="TimesNewRomanPSMT-73" d="M 2050 2947 
L 2050 1972 
L 1947 1972 
Q 1828 2431 1642 2597 
Q 1456 2763 1169 2763 
Q 950 2763 815 2647 
Q 681 2531 681 2391 
Q 681 2216 781 2091 
Q 878 1963 1175 1819 
L 1631 1597 
Q 2266 1288 2266 781 
Q 2266 391 1970 151 
Q 1675 -88 1309 -88 
Q 1047 -88 709 6 
Q 606 38 541 38 
Q 469 38 428 -44 
L 325 -44 
L 325 978 
L 428 978 
Q 516 541 762 319 
Q 1009 97 1316 97 
Q 1531 97 1667 223 
Q 1803 350 1803 528 
Q 1803 744 1651 891 
Q 1500 1038 1047 1263 
Q 594 1488 453 1669 
Q 313 1847 313 2119 
Q 313 2472 555 2709 
Q 797 2947 1181 2947 
Q 1350 2947 1591 2875 
Q 1750 2828 1803 2828 
Q 1853 2828 1881 2850 
Q 1909 2872 1947 2947 
L 2050 2947 
z
" transform="scale(0.015625)"/>
      <path id="TimesNewRomanPSMT-69" d="M 928 4444 
Q 1059 4444 1151 4351 
Q 1244 4259 1244 4128 
Q 1244 3997 1151 3903 
Q 1059 3809 928 3809 
Q 797 3809 703 3903 
Q 609 3997 609 4128 
Q 609 4259 701 4351 
Q 794 4444 928 4444 
z
M 1188 2947 
L 1188 647 
Q 1188 378 1227 289 
Q 1266 200 1342 156 
Q 1419 113 1622 113 
L 1622 0 
L 231 0 
L 231 113 
Q 441 113 512 153 
Q 584 194 626 287 
Q 669 381 669 647 
L 669 1750 
Q 669 2216 641 2353 
Q 619 2453 572 2492 
Q 525 2531 444 2531 
Q 356 2531 231 2484 
L 188 2597 
L 1050 2947 
L 1188 2947 
z
" transform="scale(0.015625)"/>
     </defs>
     <use xlink:href="#TimesNewRomanPSMT-43"/>
     <use xlink:href="#TimesNewRomanPSMT-6f" transform="translate(66.699219 0)"/>
     <use xlink:href="#TimesNewRomanPSMT-6d" transform="translate(116.699219 0)"/>
     <use xlink:href="#TimesNewRomanPSMT-70" transform="translate(194.482422 0)"/>
     <use xlink:href="#TimesNewRomanPSMT-65" transform="translate(244.482422 0)"/>
     <use xlink:href="#TimesNewRomanPSMT-6e" transform="translate(288.867188 0)"/>
     <use xlink:href="#TimesNewRomanPSMT-73" transform="translate(338.867188 0)"/>
     <use xlink:href="#TimesNewRomanPSMT-61" transform="translate(377.783203 0)"/>
     <use xlink:href="#TimesNewRomanPSMT-74" transform="translate(422.167969 0)"/>
     <use xlink:href="#TimesNewRomanPSMT-69" transform="translate(449.951172 0)"/>
     <use xlink:href="#TimesNewRomanPSMT-6f" transform="translate(477.734375 0)"/>
     <use xlink:href="#TimesNewRomanPSMT-6e" transform="translate(527.734375 0)"/>
    </g>
   </g>
  </g>
  <g id="axes_3">
   <g id="patch_6">
    <path d="M 161.811622 194.576 
L 732.696123 194.576 
L 732.696123 106.048 
L 161.811622 106.048 
L 161.811622 194.576 
z
" style="fill: none; opacity: 0"/>
   </g>
   <g id="FillBetweenPolyCollection_3">
    <defs>
     <path id="m640965b4b4" d="M 161.811622 -150.04156 
L 161.811622 -86.079312 
L 164.680389 -86.079312 
L 167.549155 -86.079312 
L 170.417921 -86.079312 
L 173.286688 -86.079312 
L 176.155454 -86.079312 
L 179.02422 -86.079312 
L 181.892987 -86.079312 
L 184.761753 -86.079312 
L 187.630519 -86.079312 
L 190.499286 -86.079312 
L 193.368052 -86.079312 
L 196.236818 -86.079312 
L 199.105585 -86.079312 
L 201.974351 -86.079312 
L 204.843117 -86.079312 
L 207.711884 -86.079312 
L 210.58065 -86.079312 
L 213.449416 -86.079312 
L 216.318183 -86.079312 
L 219.186949 -86.079312 
L 222.055715 -86.079312 
L 224.924482 -86.079312 
L 227.793248 -86.079312 
L 230.662014 -86.079312 
L 233.530781 -86.079312 
L 236.399547 -86.079312 
L 239.268313 -86.079312 
L 242.13708 -86.079312 
L 245.005846 -86.079312 
L 247.874612 -86.079312 
L 250.743379 -86.079312 
L 253.612145 -86.079312 
L 256.480911 -86.079312 
L 259.349678 -86.079312 
L 262.218444 -86.079312 
L 265.08721 -86.079312 
L 267.955977 -86.079312 
L 270.824743 -86.079312 
L 273.693509 -86.079312 
L 276.562276 -86.079312 
L 279.431042 -86.079312 
L 282.299808 -86.079312 
L 285.168575 -86.079312 
L 288.037341 -86.079312 
L 290.906107 -86.079312 
L 293.774874 -86.079312 
L 296.64364 -86.079312 
L 299.512406 -86.079312 
L 302.381173 -86.079312 
L 305.249939 -86.079312 
L 308.118705 -86.079312 
L 310.987472 -86.079312 
L 313.856238 -86.079312 
L 316.725004 -86.079312 
L 319.593771 -86.079312 
L 322.462537 -86.079312 
L 325.331303 -86.079312 
L 328.20007 -86.079312 
L 331.068836 -86.079312 
L 333.937602 -86.079312 
L 336.806369 -86.079312 
L 339.675135 -86.079312 
L 342.543901 -86.079312 
L 345.412668 -86.079312 
L 348.281434 -86.079312 
L 351.1502 -86.079312 
L 354.018967 -86.079312 
L 356.887733 -86.079312 
L 359.756499 -86.079312 
L 362.625266 -86.079312 
L 365.494032 -86.079312 
L 368.362798 -86.079312 
L 371.231565 -86.079312 
L 374.100331 -86.079312 
L 376.969097 -86.079312 
L 379.837864 -86.079312 
L 382.70663 -86.079312 
L 385.575396 -86.079312 
L 388.444163 -86.079312 
L 391.312929 -86.079312 
L 394.181695 -86.079312 
L 397.050462 -86.079312 
L 399.919228 -86.079312 
L 402.787994 -86.079312 
L 405.656761 -86.079312 
L 408.525527 -86.079312 
L 411.394293 -86.079312 
L 414.26306 -86.079312 
L 417.131826 -86.079312 
L 420.000592 -86.079312 
L 422.869359 -86.079312 
L 425.738125 -86.079312 
L 428.606891 -86.079312 
L 431.475658 -86.079312 
L 434.344424 -86.079312 
L 437.21319 -86.079312 
L 440.081957 -86.079312 
L 442.950723 -86.079312 
L 445.819489 -86.079312 
L 448.688256 -86.079312 
L 451.557022 -86.079312 
L 454.425788 -86.079312 
L 457.294555 -86.079312 
L 460.163321 -86.079312 
L 463.032087 -86.079312 
L 465.900854 -86.079312 
L 468.76962 -86.079312 
L 471.638386 -86.079312 
L 474.507153 -86.079312 
L 477.375919 -86.079312 
L 480.244685 -86.079312 
L 483.113452 -86.079312 
L 485.982218 -86.079312 
L 488.850984 -86.079312 
L 491.719751 -86.079312 
L 494.588517 -86.079312 
L 497.457283 -86.079312 
L 500.32605 -86.079312 
L 503.194816 -86.079312 
L 506.063582 -86.079312 
L 508.932349 -86.079312 
L 511.801115 -86.079312 
L 514.669881 -86.079312 
L 517.538648 -86.079312 
L 520.407414 -86.079312 
L 523.27618 -86.079312 
L 526.144947 -86.079312 
L 529.013713 -86.079312 
L 531.882479 -86.079312 
L 534.751246 -86.079312 
L 537.620012 -86.079312 
L 540.488778 -86.079312 
L 543.357545 -86.079312 
L 546.226311 -86.079312 
L 549.095077 -86.079312 
L 551.963844 -86.079312 
L 554.83261 -86.079312 
L 557.701376 -86.079312 
L 560.570143 -86.079312 
L 563.438909 -86.079312 
L 566.307675 -86.079312 
L 569.176442 -86.079312 
L 572.045208 -86.079312 
L 574.913974 -86.079312 
L 577.782741 -86.079312 
L 580.651507 -86.079312 
L 583.520273 -86.079312 
L 586.38904 -86.079312 
L 589.257806 -86.079312 
L 592.126572 -86.079312 
L 594.995339 -86.079312 
L 597.864105 -86.079312 
L 600.732871 -86.079312 
L 603.601638 -86.079312 
L 606.470404 -86.079312 
L 609.33917 -86.079312 
L 612.207937 -86.079312 
L 615.076703 -86.079312 
L 617.945469 -86.079312 
L 620.814236 -86.079312 
L 623.683002 -86.079312 
L 626.551768 -86.079312 
L 629.420535 -86.079312 
L 632.289301 -86.079312 
L 635.158067 -86.079312 
L 638.026834 -86.079312 
L 640.8956 -86.079312 
L 643.764366 -86.079312 
L 646.633133 -86.079312 
L 649.501899 -86.079312 
L 652.370665 -86.079312 
L 655.239432 -86.079312 
L 658.108198 -86.079312 
L 660.976964 -86.079312 
L 663.845731 -86.079312 
L 666.714497 -86.079312 
L 669.583263 -86.079312 
L 672.45203 -86.079312 
L 675.320796 -86.079312 
L 678.189562 -86.079312 
L 681.058329 -86.079312 
L 683.927095 -86.079312 
L 686.795861 -86.079312 
L 689.664628 -86.079312 
L 692.533394 -86.079312 
L 695.40216 -86.079312 
L 698.270927 -86.079312 
L 701.139693 -86.079312 
L 704.008459 -86.079312 
L 706.877226 -86.079312 
L 709.745992 -86.079312 
L 712.614758 -86.079312 
L 715.483525 -86.079312 
L 718.352291 -86.079312 
L 721.221057 -86.079312 
L 724.089824 -86.079312 
L 726.95859 -86.079312 
L 729.827356 -86.079312 
L 732.696123 -86.079312 
L 732.696123 -97.387146 
L 732.696123 -97.387146 
L 729.827356 -97.616318 
L 726.95859 -97.827642 
L 724.089824 -98.02038 
L 721.221057 -98.193935 
L 718.352291 -98.347856 
L 715.483525 -98.481842 
L 712.614758 -98.595746 
L 709.745992 -98.689577 
L 706.877226 -98.7635 
L 704.008459 -98.817832 
L 701.139693 -98.853038 
L 698.270927 -98.869728 
L 695.40216 -98.868649 
L 692.533394 -98.850674 
L 689.664628 -98.816794 
L 686.795861 -98.76811 
L 683.927095 -98.705812 
L 681.058329 -98.631177 
L 678.189562 -98.545545 
L 675.320796 -98.450313 
L 672.45203 -98.346912 
L 669.583263 -98.2368 
L 666.714497 -98.121441 
L 663.845731 -98.002293 
L 660.976964 -97.880795 
L 658.108198 -97.758347 
L 655.239432 -97.636305 
L 652.370665 -97.515962 
L 649.501899 -97.398538 
L 646.633133 -97.285174 
L 643.764366 -97.176914 
L 640.8956 -97.074707 
L 638.026834 -96.979393 
L 635.158067 -96.8917 
L 632.289301 -96.81224 
L 629.420535 -96.741507 
L 626.551768 -96.679876 
L 623.683002 -96.6276 
L 620.814236 -96.584817 
L 617.945469 -96.551548 
L 615.076703 -96.527703 
L 612.207937 -96.513086 
L 609.33917 -96.507402 
L 606.470404 -96.510261 
L 603.601638 -96.521189 
L 600.732871 -96.539636 
L 597.864105 -96.564984 
L 594.995339 -96.596555 
L 592.126572 -96.633627 
L 589.257806 -96.675437 
L 586.38904 -96.721195 
L 583.520273 -96.770093 
L 580.651507 -96.821316 
L 577.782741 -96.87405 
L 574.913974 -96.927494 
L 572.045208 -96.980866 
L 569.176442 -97.033413 
L 566.307675 -97.084419 
L 563.438909 -97.133214 
L 560.570143 -97.179175 
L 557.701376 -97.221739 
L 554.83261 -97.260402 
L 551.963844 -97.29473 
L 549.095077 -97.324354 
L 546.226311 -97.348981 
L 543.357545 -97.36839 
L 540.488778 -97.382437 
L 537.620012 -97.391053 
L 534.751246 -97.394243 
L 531.882479 -97.392088 
L 529.013713 -97.384739 
L 526.144947 -97.372415 
L 523.27618 -97.355403 
L 520.407414 -97.334048 
L 517.538648 -97.308751 
L 514.669881 -97.279965 
L 511.801115 -97.248186 
L 508.932349 -97.213947 
L 506.063582 -97.177812 
L 503.194816 -97.140369 
L 500.32605 -97.10222 
L 497.457283 -97.063977 
L 494.588517 -97.026251 
L 491.719751 -96.989646 
L 488.850984 -96.95475 
L 485.982218 -96.922131 
L 483.113452 -96.892326 
L 480.244685 -96.865839 
L 477.375919 -96.843131 
L 474.507153 -96.824619 
L 471.638386 -96.810669 
L 468.76962 -96.801598 
L 465.900854 -96.797663 
L 463.032087 -96.79907 
L 460.163321 -96.805969 
L 457.294555 -96.818453 
L 454.425788 -96.836567 
L 451.557022 -96.860308 
L 448.688256 -96.88963 
L 445.819489 -96.92445 
L 442.950723 -96.964657 
L 440.081957 -97.010117 
L 437.21319 -97.060686 
L 434.344424 -97.116217 
L 431.475658 -97.176571 
L 428.606891 -97.241628 
L 425.738125 -97.311298 
L 422.869359 -97.385536 
L 420.000592 -97.464348 
L 417.131826 -97.547809 
L 414.26306 -97.636067 
L 411.394293 -97.729364 
L 408.525527 -97.828037 
L 405.656761 -97.932534 
L 402.787994 -98.043422 
L 399.919228 -98.161396 
L 397.050462 -98.287284 
L 394.181695 -98.422055 
L 391.312929 -98.566825 
L 388.444163 -98.722861 
L 385.575396 -98.891578 
L 382.70663 -99.07455 
L 379.837864 -99.273496 
L 376.969097 -99.490291 
L 374.100331 -99.726951 
L 371.231565 -99.985631 
L 368.362798 -100.268618 
L 365.494032 -100.578318 
L 362.625266 -100.917248 
L 359.756499 -101.288014 
L 356.887733 -101.693302 
L 354.018967 -102.135857 
L 351.1502 -102.618459 
L 348.281434 -103.143904 
L 345.412668 -103.714977 
L 342.543901 -104.334427 
L 339.675135 -105.004936 
L 336.806369 -105.729088 
L 333.937602 -106.509339 
L 331.068836 -107.347983 
L 328.20007 -108.247116 
L 325.331303 -109.208604 
L 322.462537 -110.234044 
L 319.593771 -111.32473 
L 316.725004 -112.481617 
L 313.856238 -113.705287 
L 310.987472 -114.995916 
L 308.118705 -116.353239 
L 305.249939 -117.776526 
L 302.381173 -119.264548 
L 299.512406 -120.81556 
L 296.64364 -122.427273 
L 293.774874 -124.096845 
L 290.906107 -125.820863 
L 288.037341 -127.595339 
L 285.168575 -129.415706 
L 282.299808 -131.276821 
L 279.431042 -133.172979 
L 276.562276 -135.097921 
L 273.693509 -137.044859 
L 270.824743 -139.006503 
L 267.955977 -140.975097 
L 265.08721 -142.942452 
L 262.218444 -144.899999 
L 259.349678 -146.838836 
L 256.480911 -148.749787 
L 253.612145 -150.623462 
L 250.743379 -152.450327 
L 247.874612 -154.220769 
L 245.005846 -155.925175 
L 242.13708 -157.554006 
L 239.268313 -159.097877 
L 236.399547 -160.547634 
L 233.530781 -161.894437 
L 230.662014 -163.129837 
L 227.793248 -164.245858 
L 224.924482 -165.235065 
L 222.055715 -166.090645 
L 219.186949 -166.806467 
L 216.318183 -167.377149 
L 213.449416 -167.798114 
L 210.58065 -168.065638 
L 207.711884 -168.176894 
L 204.843117 -168.129986 
L 201.974351 -167.923973 
L 199.105585 -167.558887 
L 196.236818 -167.035736 
L 193.368052 -166.356504 
L 190.499286 -165.524139 
L 187.630519 -164.542527 
L 184.761753 -163.416459 
L 181.892987 -162.151595 
L 179.02422 -160.754408 
L 176.155454 -159.232129 
L 173.286688 -157.592679 
L 170.417921 -155.844597 
L 167.549155 -153.996964 
L 164.680389 -152.059316 
L 161.811622 -150.04156 
z
" style="stroke: #7570b3"/>
    </defs>
    <g clip-path="url(#pf8f25fc41b)">
     <use xlink:href="#m640965b4b4" x="0" y="280.655312" style="fill: #7570b3; fill-opacity: 0.5; stroke: #7570b3"/>
    </g>
   </g>
   <g id="matplotlib.axis_5">
    <g id="xtick_13">
     <g id="line2d_17">
      <g>
       <use xlink:href="#m30eaf99312" x="161.811622" y="194.576" style="stroke: #000000; stroke-width: 0.8"/>
      </g>
     </g>
    </g>
    <g id="xtick_14">
     <g id="line2d_18">
      <g>
       <use xlink:href="#m30eaf99312" x="275.988522" y="194.576" style="stroke: #000000; stroke-width: 0.8"/>
      </g>
     </g>
    </g>
    <g id="xtick_15">
     <g id="line2d_19">
      <g>
       <use xlink:href="#m30eaf99312" x="390.165422" y="194.576" style="stroke: #000000; stroke-width: 0.8"/>
      </g>
     </g>
    </g>
    <g id="xtick_16">
     <g id="line2d_20">
      <g>
       <use xlink:href="#m30eaf99312" x="504.342323" y="194.576" style="stroke: #000000; stroke-width: 0.8"/>
      </g>
     </g>
    </g>
    <g id="xtick_17">
     <g id="line2d_21">
      <g>
       <use xlink:href="#m30eaf99312" x="618.519223" y="194.576" style="stroke: #000000; stroke-width: 0.8"/>
      </g>
     </g>
    </g>
    <g id="xtick_18">
     <g id="line2d_22">
      <g>
       <use xlink:href="#m30eaf99312" x="732.696123" y="194.576" style="stroke: #000000; stroke-width: 0.8"/>
      </g>
     </g>
    </g>
   </g>
   <g id="matplotlib.axis_6"/>
   <g id="line2d_23">
    <path d="M 161.811622 130.613753 
L 167.549155 126.658348 
L 173.286688 123.062634 
L 179.02422 119.900904 
L 181.892987 118.503718 
L 184.761753 117.238853 
L 187.630519 116.112786 
L 190.499286 115.131173 
L 193.368052 114.298808 
L 196.236818 113.619577 
L 199.105585 113.096426 
L 201.974351 112.731339 
L 204.843117 112.525326 
L 207.711884 112.478419 
L 210.58065 112.589675 
L 213.449416 112.857199 
L 216.318183 113.278163 
L 219.186949 113.848845 
L 222.055715 114.564667 
L 224.924482 115.420247 
L 227.793248 116.409455 
L 230.662014 117.525475 
L 236.399547 120.107679 
L 242.13708 123.101306 
L 247.874612 126.434543 
L 253.612145 130.03185 
L 262.218444 135.755314 
L 282.299808 149.378491 
L 290.906107 154.834449 
L 296.64364 158.228039 
L 302.381173 161.390764 
L 308.118705 164.302073 
L 313.856238 166.950026 
L 319.593771 169.330583 
L 325.331303 171.446708 
L 331.068836 173.30733 
L 336.806369 174.926225 
L 342.543901 176.320885 
L 348.281434 177.511409 
L 354.018967 178.519456 
L 362.625266 179.738065 
L 371.231565 180.669682 
L 379.837864 181.381816 
L 391.312929 182.088487 
L 405.656761 182.722779 
L 425.738125 183.344014 
L 445.819489 183.730862 
L 463.032087 183.856242 
L 483.113452 183.762986 
L 540.488778 183.272875 
L 560.570143 183.476138 
L 609.33917 184.14791 
L 623.683002 184.027712 
L 638.026834 183.675919 
L 655.239432 183.019007 
L 681.058329 182.024136 
L 692.533394 181.804639 
L 704.008459 181.837481 
L 712.614758 182.059567 
L 721.221057 182.461377 
L 729.827356 183.038995 
L 732.696123 183.268166 
L 732.696123 183.268166 
" clip-path="url(#pf8f25fc41b)" style="fill: none; stroke: #ffffff; stroke-width: 2; stroke-linecap: square"/>
   </g>
   <g id="line2d_24">
    <path d="M 161.811622 194.576 
L 732.696123 194.576 
" style="fill: none; stroke: #000000; stroke-linecap: square"/>
   </g>
   <g id="text_3">
    <g id="patch_7">
     <path d="M 3.24 203.985687 
L 105.82875 203.985687 
L 105.82875 185.166312 
L 3.24 185.166312 
z
" style="fill: #ffffff; opacity: 0.5"/>
    </g>
    <!-- Workplace Benefits -->
    <g transform="translate(7.2 197.458812) scale(0.12 -0.12)">
     <defs>
      <path id="TimesNewRomanPSMT-57" d="M 5991 4238 
L 5991 4122 
Q 5825 4122 5722 4062 
Q 5619 4003 5525 3841 
Q 5463 3731 5328 3319 
L 4147 -97 
L 4022 -97 
L 3056 2613 
L 2097 -97 
L 1984 -97 
L 725 3422 
Q 584 3816 547 3888 
Q 484 4006 376 4064 
Q 269 4122 84 4122 
L 84 4238 
L 1653 4238 
L 1653 4122 
L 1578 4122 
Q 1413 4122 1325 4047 
Q 1238 3972 1238 3866 
Q 1238 3756 1375 3363 
L 2209 984 
L 2913 3006 
L 2788 3363 
L 2688 3647 
Q 2622 3803 2541 3922 
Q 2500 3981 2441 4022 
Q 2363 4078 2284 4103 
Q 2225 4122 2097 4122 
L 2097 4238 
L 3747 4238 
L 3747 4122 
L 3634 4122 
Q 3459 4122 3378 4047 
Q 3297 3972 3297 3844 
Q 3297 3684 3438 3288 
L 4250 984 
L 5056 3319 
Q 5194 3706 5194 3856 
Q 5194 3928 5148 3990 
Q 5103 4053 5034 4078 
Q 4916 4122 4725 4122 
L 4725 4238 
L 5991 4238 
z
" transform="scale(0.015625)"/>
      <path id="TimesNewRomanPSMT-6b" d="M 1047 4444 
L 1047 1597 
L 1775 2259 
Q 2006 2472 2044 2528 
Q 2069 2566 2069 2603 
Q 2069 2666 2017 2711 
Q 1966 2756 1847 2763 
L 1847 2863 
L 3091 2863 
L 3091 2763 
Q 2834 2756 2664 2684 
Q 2494 2613 2291 2428 
L 1556 1750 
L 2291 822 
Q 2597 438 2703 334 
Q 2853 188 2966 144 
Q 3044 113 3238 113 
L 3238 0 
L 1847 0 
L 1847 113 
Q 1966 116 2008 148 
Q 2050 181 2050 241 
Q 2050 313 1925 472 
L 1047 1594 
L 1047 644 
Q 1047 366 1086 278 
Q 1125 191 1197 153 
Q 1269 116 1509 113 
L 1509 0 
L 53 0 
L 53 113 
Q 272 113 381 166 
Q 447 200 481 272 
Q 528 375 528 628 
L 528 3234 
Q 528 3731 506 3842 
Q 484 3953 434 3995 
Q 384 4038 303 4038 
Q 238 4038 106 3984 
L 53 4094 
L 903 4444 
L 1047 4444 
z
" transform="scale(0.015625)"/>
      <path id="TimesNewRomanPSMT-6c" d="M 1184 4444 
L 1184 647 
Q 1184 378 1223 290 
Q 1263 203 1344 158 
Q 1425 113 1647 113 
L 1647 0 
L 244 0 
L 244 113 
Q 441 113 512 153 
Q 584 194 625 287 
Q 666 381 666 647 
L 666 3247 
Q 666 3731 644 3842 
Q 622 3953 573 3993 
Q 525 4034 450 4034 
Q 369 4034 244 3984 
L 191 4094 
L 1044 4444 
L 1184 4444 
z
" transform="scale(0.015625)"/>
      <path id="TimesNewRomanPSMT-63" d="M 2631 1088 
Q 2516 522 2178 217 
Q 1841 -88 1431 -88 
Q 944 -88 581 321 
Q 219 731 219 1428 
Q 219 2103 620 2525 
Q 1022 2947 1584 2947 
Q 2006 2947 2278 2723 
Q 2550 2500 2550 2259 
Q 2550 2141 2473 2067 
Q 2397 1994 2259 1994 
Q 2075 1994 1981 2113 
Q 1928 2178 1911 2362 
Q 1894 2547 1784 2644 
Q 1675 2738 1481 2738 
Q 1169 2738 978 2506 
Q 725 2200 725 1697 
Q 725 1184 976 792 
Q 1228 400 1656 400 
Q 1963 400 2206 609 
Q 2378 753 2541 1131 
L 2631 1088 
z
" transform="scale(0.015625)"/>
      <path id="TimesNewRomanPSMT-42" d="M 2956 2163 
Q 3397 2069 3616 1863 
Q 3919 1575 3919 1159 
Q 3919 844 3719 555 
Q 3519 266 3170 133 
Q 2822 0 2106 0 
L 106 0 
L 106 116 
L 266 116 
Q 531 116 647 284 
Q 719 394 719 750 
L 719 3488 
Q 719 3881 628 3984 
Q 506 4122 266 4122 
L 106 4122 
L 106 4238 
L 1938 4238 
Q 2450 4238 2759 4163 
Q 3228 4050 3475 3764 
Q 3722 3478 3722 3106 
Q 3722 2788 3528 2536 
Q 3334 2284 2956 2163 
z
M 1319 2331 
Q 1434 2309 1582 2298 
Q 1731 2288 1909 2288 
Q 2366 2288 2595 2386 
Q 2825 2484 2947 2687 
Q 3069 2891 3069 3131 
Q 3069 3503 2766 3765 
Q 2463 4028 1881 4028 
Q 1569 4028 1319 3959 
L 1319 2331 
z
M 1319 306 
Q 1681 222 2034 222 
Q 2600 222 2897 476 
Q 3194 731 3194 1106 
Q 3194 1353 3059 1581 
Q 2925 1809 2622 1940 
Q 2319 2072 1872 2072 
Q 1678 2072 1540 2065 
Q 1403 2059 1319 2044 
L 1319 306 
z
" transform="scale(0.015625)"/>
      <path id="TimesNewRomanPSMT-66" d="M 1319 2638 
L 1319 756 
Q 1319 356 1406 250 
Q 1522 113 1716 113 
L 1975 113 
L 1975 0 
L 266 0 
L 266 113 
L 394 113 
Q 519 113 622 175 
Q 725 238 764 344 
Q 803 450 803 756 
L 803 2638 
L 247 2638 
L 247 2863 
L 803 2863 
L 803 3050 
Q 803 3478 940 3775 
Q 1078 4072 1361 4255 
Q 1644 4438 1997 4438 
Q 2325 4438 2600 4225 
Q 2781 4084 2781 3909 
Q 2781 3816 2700 3733 
Q 2619 3650 2525 3650 
Q 2453 3650 2373 3701 
Q 2294 3753 2178 3923 
Q 2063 4094 1966 4153 
Q 1869 4213 1750 4213 
Q 1606 4213 1506 4136 
Q 1406 4059 1362 3898 
Q 1319 3738 1319 3069 
L 1319 2863 
L 2056 2863 
L 2056 2638 
L 1319 2638 
z
" transform="scale(0.015625)"/>
     </defs>
     <use xlink:href="#TimesNewRomanPSMT-57"/>
     <use xlink:href="#TimesNewRomanPSMT-6f" transform="translate(86.384766 0)"/>
     <use xlink:href="#TimesNewRomanPSMT-72" transform="translate(136.384766 0)"/>
     <use xlink:href="#TimesNewRomanPSMT-6b" transform="translate(169.685547 0)"/>
     <use xlink:href="#TimesNewRomanPSMT-70" transform="translate(219.685547 0)"/>
     <use xlink:href="#TimesNewRomanPSMT-6c" transform="translate(269.685547 0)"/>
     <use xlink:href="#TimesNewRomanPSMT-61" transform="translate(297.46875 0)"/>
     <use xlink:href="#TimesNewRomanPSMT-63" transform="translate(341.853516 0)"/>
     <use xlink:href="#TimesNewRomanPSMT-65" transform="translate(386.238281 0)"/>
     <use xlink:href="#TimesNewRomanPSMT-20" transform="translate(430.623047 0)"/>
     <use xlink:href="#TimesNewRomanPSMT-42" transform="translate(455.623047 0)"/>
     <use xlink:href="#TimesNewRomanPSMT-65" transform="translate(522.322266 0)"/>
     <use xlink:href="#TimesNewRomanPSMT-6e" transform="translate(566.707031 0)"/>
     <use xlink:href="#TimesNewRomanPSMT-65" transform="translate(616.707031 0)"/>
     <use xlink:href="#TimesNewRomanPSMT-66" transform="translate(661.091797 0)"/>
     <use xlink:href="#TimesNewRomanPSMT-69" transform="translate(694.392578 0)"/>
     <use xlink:href="#TimesNewRomanPSMT-74" transform="translate(722.175781 0)"/>
     <use xlink:href="#TimesNewRomanPSMT-73" transform="translate(749.958984 0)"/>
    </g>
   </g>
  </g>
  <g id="axes_4">
   <g id="patch_8">
    <path d="M 161.811622 238.84 
L 732.696123 238.84 
L 732.696123 150.312 
L 161.811622 150.312 
L 161.811622 238.84 
z
" style="fill: none; opacity: 0"/>
   </g>
   <g id="FillBetweenPolyCollection_4">
    <defs>
     <path id="mb11149cfd3" d="M 161.811622 -65.052587 
L 161.811622 -41.815313 
L 164.680389 -41.815313 
L 167.549155 -41.815313 
L 170.417921 -41.815313 
L 173.286688 -41.815313 
L 176.155454 -41.815313 
L 179.02422 -41.815313 
L 181.892987 -41.815313 
L 184.761753 -41.815313 
L 187.630519 -41.815313 
L 190.499286 -41.815313 
L 193.368052 -41.815313 
L 196.236818 -41.815313 
L 199.105585 -41.815313 
L 201.974351 -41.815313 
L 204.843117 -41.815313 
L 207.711884 -41.815313 
L 210.58065 -41.815313 
L 213.449416 -41.815313 
L 216.318183 -41.815313 
L 219.186949 -41.815313 
L 222.055715 -41.815313 
L 224.924482 -41.815313 
L 227.793248 -41.815313 
L 230.662014 -41.815313 
L 233.530781 -41.815313 
L 236.399547 -41.815313 
L 239.268313 -41.815313 
L 242.13708 -41.815313 
L 245.005846 -41.815313 
L 247.874612 -41.815313 
L 250.743379 -41.815313 
L 253.612145 -41.815313 
L 256.480911 -41.815313 
L 259.349678 -41.815313 
L 262.218444 -41.815313 
L 265.08721 -41.815313 
L 267.955977 -41.815313 
L 270.824743 -41.815313 
L 273.693509 -41.815313 
L 276.562276 -41.815313 
L 279.431042 -41.815313 
L 282.299808 -41.815313 
L 285.168575 -41.815313 
L 288.037341 -41.815313 
L 290.906107 -41.815313 
L 293.774874 -41.815313 
L 296.64364 -41.815313 
L 299.512406 -41.815313 
L 302.381173 -41.815313 
L 305.249939 -41.815313 
L 308.118705 -41.815313 
L 310.987472 -41.815313 
L 313.856238 -41.815313 
L 316.725004 -41.815313 
L 319.593771 -41.815313 
L 322.462537 -41.815313 
L 325.331303 -41.815313 
L 328.20007 -41.815313 
L 331.068836 -41.815313 
L 333.937602 -41.815313 
L 336.806369 -41.815313 
L 339.675135 -41.815313 
L 342.543901 -41.815313 
L 345.412668 -41.815313 
L 348.281434 -41.815313 
L 351.1502 -41.815313 
L 354.018967 -41.815313 
L 356.887733 -41.815313 
L 359.756499 -41.815313 
L 362.625266 -41.815313 
L 365.494032 -41.815313 
L 368.362798 -41.815313 
L 371.231565 -41.815313 
L 374.100331 -41.815313 
L 376.969097 -41.815313 
L 379.837864 -41.815313 
L 382.70663 -41.815313 
L 385.575396 -41.815313 
L 388.444163 -41.815313 
L 391.312929 -41.815313 
L 394.181695 -41.815313 
L 397.050462 -41.815313 
L 399.919228 -41.815313 
L 402.787994 -41.815313 
L 405.656761 -41.815313 
L 408.525527 -41.815313 
L 411.394293 -41.815313 
L 414.26306 -41.815313 
L 417.131826 -41.815313 
L 420.000592 -41.815313 
L 422.869359 -41.815313 
L 425.738125 -41.815313 
L 428.606891 -41.815313 
L 431.475658 -41.815313 
L 434.344424 -41.815313 
L 437.21319 -41.815313 
L 440.081957 -41.815313 
L 442.950723 -41.815313 
L 445.819489 -41.815313 
L 448.688256 -41.815313 
L 451.557022 -41.815313 
L 454.425788 -41.815313 
L 457.294555 -41.815313 
L 460.163321 -41.815313 
L 463.032087 -41.815313 
L 465.900854 -41.815313 
L 468.76962 -41.815313 
L 471.638386 -41.815313 
L 474.507153 -41.815313 
L 477.375919 -41.815313 
L 480.244685 -41.815313 
L 483.113452 -41.815313 
L 485.982218 -41.815313 
L 488.850984 -41.815313 
L 491.719751 -41.815313 
L 494.588517 -41.815313 
L 497.457283 -41.815313 
L 500.32605 -41.815313 
L 503.194816 -41.815313 
L 506.063582 -41.815313 
L 508.932349 -41.815313 
L 511.801115 -41.815313 
L 514.669881 -41.815313 
L 517.538648 -41.815313 
L 520.407414 -41.815313 
L 523.27618 -41.815313 
L 526.144947 -41.815313 
L 529.013713 -41.815313 
L 531.882479 -41.815313 
L 534.751246 -41.815313 
L 537.620012 -41.815313 
L 540.488778 -41.815313 
L 543.357545 -41.815313 
L 546.226311 -41.815313 
L 549.095077 -41.815313 
L 551.963844 -41.815313 
L 554.83261 -41.815313 
L 557.701376 -41.815313 
L 560.570143 -41.815313 
L 563.438909 -41.815313 
L 566.307675 -41.815313 
L 569.176442 -41.815313 
L 572.045208 -41.815313 
L 574.913974 -41.815313 
L 577.782741 -41.815313 
L 580.651507 -41.815313 
L 583.520273 -41.815313 
L 586.38904 -41.815313 
L 589.257806 -41.815313 
L 592.126572 -41.815313 
L 594.995339 -41.815313 
L 597.864105 -41.815313 
L 600.732871 -41.815313 
L 603.601638 -41.815313 
L 606.470404 -41.815313 
L 609.33917 -41.815313 
L 612.207937 -41.815313 
L 615.076703 -41.815313 
L 617.945469 -41.815313 
L 620.814236 -41.815313 
L 623.683002 -41.815313 
L 626.551768 -41.815313 
L 629.420535 -41.815313 
L 632.289301 -41.815313 
L 635.158067 -41.815313 
L 638.026834 -41.815313 
L 640.8956 -41.815313 
L 643.764366 -41.815313 
L 646.633133 -41.815313 
L 649.501899 -41.815313 
L 652.370665 -41.815313 
L 655.239432 -41.815313 
L 658.108198 -41.815313 
L 660.976964 -41.815313 
L 663.845731 -41.815313 
L 666.714497 -41.815313 
L 669.583263 -41.815313 
L 672.45203 -41.815313 
L 675.320796 -41.815313 
L 678.189562 -41.815313 
L 681.058329 -41.815313 
L 683.927095 -41.815313 
L 686.795861 -41.815313 
L 689.664628 -41.815313 
L 692.533394 -41.815313 
L 695.40216 -41.815313 
L 698.270927 -41.815313 
L 701.139693 -41.815313 
L 704.008459 -41.815313 
L 706.877226 -41.815313 
L 709.745992 -41.815313 
L 712.614758 -41.815313 
L 715.483525 -41.815313 
L 718.352291 -41.815313 
L 721.221057 -41.815313 
L 724.089824 -41.815313 
L 726.95859 -41.815313 
L 729.827356 -41.815313 
L 732.696123 -41.815313 
L 732.696123 -70.248689 
L 732.696123 -70.248689 
L 729.827356 -71.011553 
L 726.95859 -71.751421 
L 724.089824 -72.466064 
L 721.221057 -73.153365 
L 718.352291 -73.811337 
L 715.483525 -74.438131 
L 712.614758 -75.032054 
L 709.745992 -75.591578 
L 706.877226 -76.115353 
L 704.008459 -76.602213 
L 701.139693 -77.051184 
L 698.270927 -77.46149 
L 695.40216 -77.832558 
L 692.533394 -78.164016 
L 689.664628 -78.455699 
L 686.795861 -78.707643 
L 683.927095 -78.920084 
L 681.058329 -79.093451 
L 678.189562 -79.228363 
L 675.320796 -79.325617 
L 672.45203 -79.386178 
L 669.583263 -79.411173 
L 666.714497 -79.401872 
L 663.845731 -79.35968 
L 660.976964 -79.28612 
L 658.108198 -79.182818 
L 655.239432 -79.051488 
L 652.370665 -78.893918 
L 649.501899 -78.71195 
L 646.633133 -78.507466 
L 643.764366 -78.282372 
L 640.8956 -78.038586 
L 638.026834 -77.778016 
L 635.158067 -77.502552 
L 632.289301 -77.214051 
L 629.420535 -76.914324 
L 626.551768 -76.605128 
L 623.683002 -76.288153 
L 620.814236 -75.965015 
L 617.945469 -75.63725 
L 615.076703 -75.306308 
L 612.207937 -74.973549 
L 609.33917 -74.640241 
L 606.470404 -74.307556 
L 603.601638 -73.976575 
L 600.732871 -73.648284 
L 597.864105 -73.323581 
L 594.995339 -73.003275 
L 592.126572 -72.688094 
L 589.257806 -72.378687 
L 586.38904 -72.075631 
L 583.520273 -71.779436 
L 580.651507 -71.49055 
L 577.782741 -71.209367 
L 574.913974 -70.93623 
L 572.045208 -70.67144 
L 569.176442 -70.415257 
L 566.307675 -70.167908 
L 563.438909 -69.929588 
L 560.570143 -69.700465 
L 557.701376 -69.480683 
L 554.83261 -69.27036 
L 551.963844 -69.069593 
L 549.095077 -68.878455 
L 546.226311 -68.696996 
L 543.357545 -68.525242 
L 540.488778 -68.363188 
L 537.620012 -68.210801 
L 534.751246 -68.068016 
L 531.882479 -67.93473 
L 529.013713 -67.8108 
L 526.144947 -67.696041 
L 523.27618 -67.59022 
L 520.407414 -67.493056 
L 517.538648 -67.404213 
L 514.669881 -67.323306 
L 511.801115 -67.249893 
L 508.932349 -67.183475 
L 506.063582 -67.123504 
L 503.194816 -67.069375 
L 500.32605 -67.020437 
L 497.457283 -66.975992 
L 494.588517 -66.935304 
L 491.719751 -66.8976 
L 488.850984 -66.862082 
L 485.982218 -66.827935 
L 483.113452 -66.794332 
L 480.244685 -66.760448 
L 477.375919 -66.725466 
L 474.507153 -66.688592 
L 471.638386 -66.649062 
L 468.76962 -66.606155 
L 465.900854 -66.5592 
L 463.032087 -66.507593 
L 460.163321 -66.450797 
L 457.294555 -66.388358 
L 454.425788 -66.31991 
L 451.557022 -66.245179 
L 448.688256 -66.163993 
L 445.819489 -66.076281 
L 442.950723 -65.982077 
L 440.081957 -65.88152 
L 437.21319 -65.774855 
L 434.344424 -65.662426 
L 431.475658 -65.544676 
L 428.606891 -65.422138 
L 425.738125 -65.295431 
L 422.869359 -65.165247 
L 420.000592 -65.032344 
L 417.131826 -64.897539 
L 414.26306 -64.761688 
L 411.394293 -64.625681 
L 408.525527 -64.49043 
L 405.656761 -64.35685 
L 402.787994 -64.225855 
L 399.919228 -64.098342 
L 397.050462 -63.97518 
L 394.181695 -63.857201 
L 391.312929 -63.745191 
L 388.444163 -63.63988 
L 385.575396 -63.541938 
L 382.70663 -63.451968 
L 379.837864 -63.370502 
L 376.969097 -63.298001 
L 374.100331 -63.234852 
L 371.231565 -63.181371 
L 368.362798 -63.137802 
L 365.494032 -63.104326 
L 362.625266 -63.08106 
L 359.756499 -63.068068 
L 356.887733 -63.065365 
L 354.018967 -63.072926 
L 351.1502 -63.090693 
L 348.281434 -63.118583 
L 345.412668 -63.156497 
L 342.543901 -63.204326 
L 339.675135 -63.261961 
L 336.806369 -63.329298 
L 333.937602 -63.406243 
L 331.068836 -63.492717 
L 328.20007 -63.588659 
L 325.331303 -63.694027 
L 322.462537 -63.808801 
L 319.593771 -63.932976 
L 316.725004 -64.066565 
L 313.856238 -64.20959 
L 310.987472 -64.362077 
L 308.118705 -64.524051 
L 305.249939 -64.695522 
L 302.381173 -64.87648 
L 299.512406 -65.066881 
L 296.64364 -65.266637 
L 293.774874 -65.475605 
L 290.906107 -65.693571 
L 288.037341 -65.920243 
L 285.168575 -66.155235 
L 282.299808 -66.398061 
L 279.431042 -66.648122 
L 276.562276 -66.904697 
L 273.693509 -67.166939 
L 270.824743 -67.433868 
L 267.955977 -67.704366 
L 265.08721 -67.977181 
L 262.218444 -68.250924 
L 259.349678 -68.524071 
L 256.480911 -68.794974 
L 253.612145 -69.061867 
L 250.743379 -69.322872 
L 247.874612 -69.576018 
L 245.005846 -69.819254 
L 242.13708 -70.050464 
L 239.268313 -70.267485 
L 236.399547 -70.468131 
L 233.530781 -70.650208 
L 230.662014 -70.811542 
L 227.793248 -70.949996 
L 224.924482 -71.063499 
L 222.055715 -71.150061 
L 219.186949 -71.207802 
L 216.318183 -71.234972 
L 213.449416 -71.229966 
L 210.58065 -71.191353 
L 207.711884 -71.117883 
L 204.843117 -71.00851 
L 201.974351 -70.862403 
L 199.105585 -70.678957 
L 196.236818 -70.4578 
L 193.368052 -70.198801 
L 190.499286 -69.902074 
L 187.630519 -69.567977 
L 184.761753 -69.19711 
L 181.892987 -68.790312 
L 179.02422 -68.34865 
L 176.155454 -67.873416 
L 173.286688 -67.366107 
L 170.417921 -66.828418 
L 167.549155 -66.262222 
L 164.680389 -65.669552 
L 161.811622 -65.052587 
z
" style="stroke: #e7298a"/>
    </defs>
    <g clip-path="url(#pce882b35ac)">
     <use xlink:href="#mb11149cfd3" x="0" y="280.655312" style="fill: #e7298a; fill-opacity: 0.5; stroke: #e7298a"/>
    </g>
   </g>
   <g id="matplotlib.axis_7">
    <g id="xtick_19">
     <g id="line2d_25">
      <g>
       <use xlink:href="#m30eaf99312" x="161.811622" y="238.84" style="stroke: #000000; stroke-width: 0.8"/>
      </g>
     </g>
     <g id="text_4">
      <!-- 0 -->
      <g transform="translate(158.811622 254.1725) scale(0.12 -0.12)">
       <defs>
        <path id="TimesNewRomanPSMT-30" d="M 231 2094 
Q 231 2819 450 3342 
Q 669 3866 1031 4122 
Q 1313 4325 1613 4325 
Q 2100 4325 2488 3828 
Q 2972 3213 2972 2159 
Q 2972 1422 2759 906 
Q 2547 391 2217 158 
Q 1888 -75 1581 -75 
Q 975 -75 572 641 
Q 231 1244 231 2094 
z
M 844 2016 
Q 844 1141 1059 588 
Q 1238 122 1591 122 
Q 1759 122 1940 273 
Q 2122 425 2216 781 
Q 2359 1319 2359 2297 
Q 2359 3022 2209 3506 
Q 2097 3866 1919 4016 
Q 1791 4119 1609 4119 
Q 1397 4119 1231 3928 
Q 1006 3669 925 3112 
Q 844 2556 844 2016 
z
" transform="scale(0.015625)"/>
       </defs>
       <use xlink:href="#TimesNewRomanPSMT-30"/>
      </g>
     </g>
    </g>
    <g id="xtick_20">
     <g id="line2d_26">
      <g>
       <use xlink:href="#m30eaf99312" x="275.988522" y="238.84" style="stroke: #000000; stroke-width: 0.8"/>
      </g>
     </g>
     <g id="text_5">
      <!-- 20 -->
      <g transform="translate(269.988522 254.1725) scale(0.12 -0.12)">
       <defs>
        <path id="TimesNewRomanPSMT-32" d="M 2934 816 
L 2638 0 
L 138 0 
L 138 116 
Q 1241 1122 1691 1759 
Q 2141 2397 2141 2925 
Q 2141 3328 1894 3587 
Q 1647 3847 1303 3847 
Q 991 3847 742 3664 
Q 494 3481 375 3128 
L 259 3128 
Q 338 3706 661 4015 
Q 984 4325 1469 4325 
Q 1984 4325 2329 3994 
Q 2675 3663 2675 3213 
Q 2675 2891 2525 2569 
Q 2294 2063 1775 1497 
Q 997 647 803 472 
L 1909 472 
Q 2247 472 2383 497 
Q 2519 522 2628 598 
Q 2738 675 2819 816 
L 2934 816 
z
" transform="scale(0.015625)"/>
       </defs>
       <use xlink:href="#TimesNewRomanPSMT-32"/>
       <use xlink:href="#TimesNewRomanPSMT-30" transform="translate(50 0)"/>
      </g>
     </g>
    </g>
    <g id="xtick_21">
     <g id="line2d_27">
      <g>
       <use xlink:href="#m30eaf99312" x="390.165422" y="238.84" style="stroke: #000000; stroke-width: 0.8"/>
      </g>
     </g>
     <g id="text_6">
      <!-- 40 -->
      <g transform="translate(384.165422 254.1725) scale(0.12 -0.12)">
       <defs>
        <path id="TimesNewRomanPSMT-34" d="M 2978 1563 
L 2978 1119 
L 2409 1119 
L 2409 0 
L 1894 0 
L 1894 1119 
L 100 1119 
L 100 1519 
L 2066 4325 
L 2409 4325 
L 2409 1563 
L 2978 1563 
z
M 1894 1563 
L 1894 3666 
L 406 1563 
L 1894 1563 
z
" transform="scale(0.015625)"/>
       </defs>
       <use xlink:href="#TimesNewRomanPSMT-34"/>
       <use xlink:href="#TimesNewRomanPSMT-30" transform="translate(50 0)"/>
      </g>
     </g>
    </g>
    <g id="xtick_22">
     <g id="line2d_28">
      <g>
       <use xlink:href="#m30eaf99312" x="504.342323" y="238.84" style="stroke: #000000; stroke-width: 0.8"/>
      </g>
     </g>
     <g id="text_7">
      <!-- 60 -->
      <g transform="translate(498.342323 254.1725) scale(0.12 -0.12)">
       <defs>
        <path id="TimesNewRomanPSMT-36" d="M 2869 4325 
L 2869 4209 
Q 2456 4169 2195 4045 
Q 1934 3922 1679 3669 
Q 1425 3416 1258 3105 
Q 1091 2794 978 2366 
Q 1428 2675 1881 2675 
Q 2316 2675 2634 2325 
Q 2953 1975 2953 1425 
Q 2953 894 2631 456 
Q 2244 -75 1606 -75 
Q 1172 -75 869 213 
Q 275 772 275 1663 
Q 275 2231 503 2743 
Q 731 3256 1154 3653 
Q 1578 4050 1965 4187 
Q 2353 4325 2688 4325 
L 2869 4325 
z
M 925 2138 
Q 869 1716 869 1456 
Q 869 1156 980 804 
Q 1091 453 1309 247 
Q 1469 100 1697 100 
Q 1969 100 2183 356 
Q 2397 613 2397 1088 
Q 2397 1622 2184 2012 
Q 1972 2403 1581 2403 
Q 1463 2403 1327 2353 
Q 1191 2303 925 2138 
z
" transform="scale(0.015625)"/>
       </defs>
       <use xlink:href="#TimesNewRomanPSMT-36"/>
       <use xlink:href="#TimesNewRomanPSMT-30" transform="translate(50 0)"/>
      </g>
     </g>
    </g>
    <g id="xtick_23">
     <g id="line2d_29">
      <g>
       <use xlink:href="#m30eaf99312" x="618.519223" y="238.84" style="stroke: #000000; stroke-width: 0.8"/>
      </g>
     </g>
     <g id="text_8">
      <!-- 80 -->
      <g transform="translate(612.519223 254.1725) scale(0.12 -0.12)">
       <defs>
        <path id="TimesNewRomanPSMT-38" d="M 1228 2134 
Q 725 2547 579 2797 
Q 434 3047 434 3316 
Q 434 3728 753 4026 
Q 1072 4325 1600 4325 
Q 2113 4325 2425 4047 
Q 2738 3769 2738 3413 
Q 2738 3175 2569 2928 
Q 2400 2681 1866 2347 
Q 2416 1922 2594 1678 
Q 2831 1359 2831 1006 
Q 2831 559 2490 242 
Q 2150 -75 1597 -75 
Q 994 -75 656 303 
Q 388 606 388 966 
Q 388 1247 577 1523 
Q 766 1800 1228 2134 
z
M 1719 2469 
Q 2094 2806 2194 3001 
Q 2294 3197 2294 3444 
Q 2294 3772 2109 3958 
Q 1925 4144 1606 4144 
Q 1288 4144 1088 3959 
Q 888 3775 888 3528 
Q 888 3366 970 3203 
Q 1053 3041 1206 2894 
L 1719 2469 
z
M 1375 2016 
Q 1116 1797 991 1539 
Q 866 1281 866 981 
Q 866 578 1086 336 
Q 1306 94 1647 94 
Q 1984 94 2187 284 
Q 2391 475 2391 747 
Q 2391 972 2272 1150 
Q 2050 1481 1375 2016 
z
" transform="scale(0.015625)"/>
       </defs>
       <use xlink:href="#TimesNewRomanPSMT-38"/>
       <use xlink:href="#TimesNewRomanPSMT-30" transform="translate(50 0)"/>
      </g>
     </g>
    </g>
    <g id="xtick_24">
     <g id="line2d_30">
      <g>
       <use xlink:href="#m30eaf99312" x="732.696123" y="238.84" style="stroke: #000000; stroke-width: 0.8"/>
      </g>
     </g>
     <g id="text_9">
      <!-- 100 -->
      <g transform="translate(723.696123 254.1725) scale(0.12 -0.12)">
       <defs>
        <path id="TimesNewRomanPSMT-31" d="M 750 3822 
L 1781 4325 
L 1884 4325 
L 1884 747 
Q 1884 391 1914 303 
Q 1944 216 2037 169 
Q 2131 122 2419 116 
L 2419 0 
L 825 0 
L 825 116 
Q 1125 122 1212 167 
Q 1300 213 1334 289 
Q 1369 366 1369 747 
L 1369 3034 
Q 1369 3497 1338 3628 
Q 1316 3728 1258 3775 
Q 1200 3822 1119 3822 
Q 1003 3822 797 3725 
L 750 3822 
z
" transform="scale(0.015625)"/>
       </defs>
       <use xlink:href="#TimesNewRomanPSMT-31"/>
       <use xlink:href="#TimesNewRomanPSMT-30" transform="translate(50 0)"/>
       <use xlink:href="#TimesNewRomanPSMT-30" transform="translate(100 0)"/>
      </g>
     </g>
    </g>
    <g id="text_10">
     <!-- Value -->
     <g transform="translate(431.317935 270.460625) scale(0.14 -0.14)">
      <defs>
       <path id="TimesNewRomanPSMT-56" d="M 4544 4238 
L 4544 4122 
Q 4319 4081 4203 3978 
Q 4038 3825 3909 3509 
L 2431 -97 
L 2316 -97 
L 728 3556 
Q 606 3838 556 3900 
Q 478 3997 364 4051 
Q 250 4106 56 4122 
L 56 4238 
L 1788 4238 
L 1788 4122 
Q 1494 4094 1406 4022 
Q 1319 3950 1319 3838 
Q 1319 3681 1463 3350 
L 2541 866 
L 3541 3319 
Q 3688 3681 3688 3822 
Q 3688 3913 3597 3995 
Q 3506 4078 3291 4113 
Q 3275 4116 3238 4122 
L 3238 4238 
L 4544 4238 
z
" transform="scale(0.015625)"/>
       <path id="TimesNewRomanPSMT-75" d="M 2709 2863 
L 2709 1128 
Q 2709 631 2732 520 
Q 2756 409 2807 365 
Q 2859 322 2928 322 
Q 3025 322 3147 375 
L 3191 266 
L 2334 -88 
L 2194 -88 
L 2194 519 
Q 1825 119 1631 15 
Q 1438 -88 1222 -88 
Q 981 -88 804 51 
Q 628 191 559 409 
Q 491 628 491 1028 
L 491 2306 
Q 491 2509 447 2587 
Q 403 2666 317 2708 
Q 231 2750 6 2747 
L 6 2863 
L 1009 2863 
L 1009 947 
Q 1009 547 1148 422 
Q 1288 297 1484 297 
Q 1619 297 1789 381 
Q 1959 466 2194 703 
L 2194 2325 
Q 2194 2569 2105 2655 
Q 2016 2741 1734 2747 
L 1734 2863 
L 2709 2863 
z
" transform="scale(0.015625)"/>
      </defs>
      <use xlink:href="#TimesNewRomanPSMT-56"/>
      <use xlink:href="#TimesNewRomanPSMT-61" transform="translate(61.091797 0)"/>
      <use xlink:href="#TimesNewRomanPSMT-6c" transform="translate(105.476562 0)"/>
      <use xlink:href="#TimesNewRomanPSMT-75" transform="translate(133.259766 0)"/>
      <use xlink:href="#TimesNewRomanPSMT-65" transform="translate(183.259766 0)"/>
     </g>
    </g>
   </g>
   <g id="matplotlib.axis_8"/>
   <g id="line2d_31">
    <path d="M 161.811622 215.602726 
L 170.417921 213.826894 
L 179.02422 212.306662 
L 187.630519 211.087335 
L 193.368052 210.456512 
L 199.105585 209.976356 
L 204.843117 209.646802 
L 213.449416 209.425346 
L 222.055715 209.505252 
L 230.662014 209.843771 
L 239.268313 210.387827 
L 250.743379 211.332441 
L 293.774874 215.179707 
L 308.118705 216.131262 
L 322.462537 216.846512 
L 336.806369 217.326014 
L 351.1502 217.564619 
L 365.494032 217.550987 
L 379.837864 217.28481 
L 394.181695 216.798112 
L 417.131826 215.757774 
L 440.081957 214.773792 
L 457.294555 214.266954 
L 477.375919 213.929846 
L 511.801115 213.40542 
L 526.144947 212.959271 
L 540.488778 212.292125 
L 554.83261 211.384953 
L 569.176442 210.240055 
L 583.520273 208.875876 
L 600.732871 207.007028 
L 635.158067 203.152761 
L 646.633133 202.147847 
L 655.239432 201.603824 
L 663.845731 201.295633 
L 672.45203 201.269134 
L 681.058329 201.561861 
L 686.795861 201.94767 
L 692.533394 202.491297 
L 698.270927 203.193822 
L 704.008459 204.053099 
L 712.614758 205.623259 
L 721.221057 207.501947 
L 729.827356 209.643759 
L 732.696123 210.406624 
L 732.696123 210.406624 
" clip-path="url(#pce882b35ac)" style="fill: none; stroke: #ffffff; stroke-width: 2; stroke-linecap: square"/>
   </g>
   <g id="line2d_32">
    <path d="M 161.811622 238.84 
L 732.696123 238.84 
" style="fill: none; stroke: #000000; stroke-linecap: square"/>
   </g>
   <g id="text_11">
    <g id="patch_9">
     <path d="M 5.919375 248.249687 
L 105.82875 248.249687 
L 105.82875 229.430312 
L 5.919375 229.430312 
z
" style="fill: #ffffff; opacity: 0.5"/>
    </g>
    <!-- Work-Life Balance -->
    <g transform="translate(9.879375 241.722812) scale(0.12 -0.12)">
     <defs>
      <path id="TimesNewRomanPSMT-2d" d="M 259 1672 
L 1875 1672 
L 1875 1200 
L 259 1200 
L 259 1672 
z
" transform="scale(0.015625)"/>
      <path id="TimesNewRomanPSMT-4c" d="M 3669 1172 
L 3772 1150 
L 3409 0 
L 128 0 
L 128 116 
L 288 116 
Q 556 116 672 291 
Q 738 391 738 753 
L 738 3488 
Q 738 3884 650 3984 
Q 528 4122 288 4122 
L 128 4122 
L 128 4238 
L 2047 4238 
L 2047 4122 
Q 1709 4125 1573 4059 
Q 1438 3994 1388 3894 
Q 1338 3794 1338 3416 
L 1338 753 
Q 1338 494 1388 397 
Q 1425 331 1503 300 
Q 1581 269 1991 269 
L 2300 269 
Q 2788 269 2984 341 
Q 3181 413 3343 595 
Q 3506 778 3669 1172 
z
" transform="scale(0.015625)"/>
     </defs>
     <use xlink:href="#TimesNewRomanPSMT-57"/>
     <use xlink:href="#TimesNewRomanPSMT-6f" transform="translate(86.384766 0)"/>
     <use xlink:href="#TimesNewRomanPSMT-72" transform="translate(136.384766 0)"/>
     <use xlink:href="#TimesNewRomanPSMT-6b" transform="translate(169.685547 0)"/>
     <use xlink:href="#TimesNewRomanPSMT-2d" transform="translate(219.685547 0)"/>
     <use xlink:href="#TimesNewRomanPSMT-4c" transform="translate(252.986328 0)"/>
     <use xlink:href="#TimesNewRomanPSMT-69" transform="translate(314.070312 0)"/>
     <use xlink:href="#TimesNewRomanPSMT-66" transform="translate(341.853516 0)"/>
     <use xlink:href="#TimesNewRomanPSMT-65" transform="translate(375.154297 0)"/>
     <use xlink:href="#TimesNewRomanPSMT-20" transform="translate(419.539062 0)"/>
     <use xlink:href="#TimesNewRomanPSMT-42" transform="translate(444.539062 0)"/>
     <use xlink:href="#TimesNewRomanPSMT-61" transform="translate(511.238281 0)"/>
     <use xlink:href="#TimesNewRomanPSMT-6c" transform="translate(555.623047 0)"/>
     <use xlink:href="#TimesNewRomanPSMT-61" transform="translate(583.40625 0)"/>
     <use xlink:href="#TimesNewRomanPSMT-6e" transform="translate(627.791016 0)"/>
     <use xlink:href="#TimesNewRomanPSMT-63" transform="translate(677.791016 0)"/>
     <use xlink:href="#TimesNewRomanPSMT-65" transform="translate(722.175781 0)"/>
    </g>
   </g>
  </g>
  <g id="text_12">
   <!-- Employee Satisfaction(%) -->
   <g transform="translate(299.301122 18.31) scale(0.16 -0.16)">
    <defs>
     <path id="TimesNewRomanPSMT-45" d="M 1338 4006 
L 1338 2331 
L 2269 2331 
Q 2631 2331 2753 2441 
Q 2916 2584 2934 2947 
L 3050 2947 
L 3050 1472 
L 2934 1472 
Q 2891 1781 2847 1869 
Q 2791 1978 2662 2040 
Q 2534 2103 2269 2103 
L 1338 2103 
L 1338 706 
Q 1338 425 1363 364 
Q 1388 303 1450 267 
Q 1513 231 1688 231 
L 2406 231 
Q 2766 231 2928 281 
Q 3091 331 3241 478 
Q 3434 672 3638 1063 
L 3763 1063 
L 3397 0 
L 131 0 
L 131 116 
L 281 116 
Q 431 116 566 188 
Q 666 238 702 338 
Q 738 438 738 747 
L 738 3500 
Q 738 3903 656 3997 
Q 544 4122 281 4122 
L 131 4122 
L 131 4238 
L 3397 4238 
L 3444 3309 
L 3322 3309 
Q 3256 3644 3176 3769 
Q 3097 3894 2941 3959 
Q 2816 4006 2500 4006 
L 1338 4006 
z
" transform="scale(0.015625)"/>
     <path id="TimesNewRomanPSMT-79" d="M 38 2863 
L 1372 2863 
L 1372 2747 
L 1306 2747 
Q 1166 2747 1095 2686 
Q 1025 2625 1025 2534 
Q 1025 2413 1128 2197 
L 1825 753 
L 2466 2334 
Q 2519 2463 2519 2588 
Q 2519 2644 2497 2672 
Q 2472 2706 2419 2726 
Q 2366 2747 2231 2747 
L 2231 2863 
L 3163 2863 
L 3163 2747 
Q 3047 2734 2984 2696 
Q 2922 2659 2847 2556 
Q 2819 2513 2741 2316 
L 1575 -541 
Q 1406 -956 1132 -1168 
Q 859 -1381 606 -1381 
Q 422 -1381 303 -1275 
Q 184 -1169 184 -1031 
Q 184 -900 270 -820 
Q 356 -741 506 -741 
Q 609 -741 788 -809 
Q 913 -856 944 -856 
Q 1038 -856 1148 -759 
Q 1259 -663 1372 -384 
L 1575 113 
L 547 2272 
Q 500 2369 397 2513 
Q 319 2622 269 2659 
Q 197 2709 38 2747 
L 38 2863 
z
" transform="scale(0.015625)"/>
     <path id="TimesNewRomanPSMT-53" d="M 2934 4334 
L 2934 2869 
L 2819 2869 
Q 2763 3291 2617 3541 
Q 2472 3791 2203 3937 
Q 1934 4084 1647 4084 
Q 1322 4084 1109 3886 
Q 897 3688 897 3434 
Q 897 3241 1031 3081 
Q 1225 2847 1953 2456 
Q 2547 2138 2764 1967 
Q 2981 1797 3098 1565 
Q 3216 1334 3216 1081 
Q 3216 600 2842 251 
Q 2469 -97 1881 -97 
Q 1697 -97 1534 -69 
Q 1438 -53 1133 45 
Q 828 144 747 144 
Q 669 144 623 97 
Q 578 50 556 -97 
L 441 -97 
L 441 1356 
L 556 1356 
Q 638 900 775 673 
Q 913 447 1195 297 
Q 1478 147 1816 147 
Q 2206 147 2432 353 
Q 2659 559 2659 841 
Q 2659 997 2573 1156 
Q 2488 1316 2306 1453 
Q 2184 1547 1640 1851 
Q 1097 2156 867 2337 
Q 638 2519 519 2737 
Q 400 2956 400 3219 
Q 400 3675 750 4004 
Q 1100 4334 1641 4334 
Q 1978 4334 2356 4169 
Q 2531 4091 2603 4091 
Q 2684 4091 2736 4139 
Q 2788 4188 2819 4334 
L 2934 4334 
z
" transform="scale(0.015625)"/>
     <path id="TimesNewRomanPSMT-28" d="M 1988 -1253 
L 1988 -1369 
Q 1516 -1131 1200 -813 
Q 750 -359 506 256 
Q 263 872 263 1534 
Q 263 2503 741 3301 
Q 1219 4100 1988 4444 
L 1988 4313 
Q 1603 4100 1356 3731 
Q 1109 3363 987 2797 
Q 866 2231 866 1616 
Q 866 947 969 400 
Q 1050 -31 1165 -292 
Q 1281 -553 1476 -793 
Q 1672 -1034 1988 -1253 
z
" transform="scale(0.015625)"/>
     <path id="TimesNewRomanPSMT-25" d="M 4350 4334 
L 1263 -175 
L 984 -175 
L 4072 4334 
L 4350 4334 
z
M 1138 4334 
Q 1559 4334 1792 3984 
Q 2025 3634 2025 3181 
Q 2025 2638 1762 2341 
Q 1500 2044 1131 2044 
Q 884 2044 678 2180 
Q 472 2316 348 2584 
Q 225 2853 225 3181 
Q 225 3509 350 3786 
Q 475 4063 692 4198 
Q 909 4334 1138 4334 
z
M 1128 4159 
Q 969 4159 845 3971 
Q 722 3784 722 3184 
Q 722 2750 791 2522 
Q 844 2350 956 2256 
Q 1022 2200 1119 2200 
Q 1269 2200 1375 2363 
Q 1531 2603 1531 3166 
Q 1531 3759 1378 4000 
Q 1278 4159 1128 4159 
z
M 4206 2103 
Q 4428 2103 4648 1962 
Q 4869 1822 4989 1553 
Q 5109 1284 5109 963 
Q 5109 409 4843 117 
Q 4578 -175 4216 -175 
Q 3988 -175 3773 -34 
Q 3559 106 3436 367 
Q 3313 628 3313 963 
Q 3313 1291 3436 1562 
Q 3559 1834 3773 1968 
Q 3988 2103 4206 2103 
z
M 4209 1938 
Q 4059 1938 3950 1769 
Q 3809 1550 3809 941 
Q 3809 381 3953 159 
Q 4059 0 4209 0 
Q 4353 0 4466 172 
Q 4616 400 4616 956 
Q 4616 1544 4466 1778 
Q 4363 1938 4209 1938 
z
" transform="scale(0.015625)"/>
     <path id="TimesNewRomanPSMT-29" d="M 144 4313 
L 144 4444 
Q 619 4209 934 3891 
Q 1381 3434 1625 2820 
Q 1869 2206 1869 1541 
Q 1869 572 1392 -226 
Q 916 -1025 144 -1369 
L 144 -1253 
Q 528 -1038 776 -670 
Q 1025 -303 1145 264 
Q 1266 831 1266 1447 
Q 1266 2113 1163 2663 
Q 1084 3094 967 3353 
Q 850 3613 656 3853 
Q 463 4094 144 4313 
z
" transform="scale(0.015625)"/>
    </defs>
    <use xlink:href="#TimesNewRomanPSMT-45"/>
    <use xlink:href="#TimesNewRomanPSMT-6d" transform="translate(61.083984 0)"/>
    <use xlink:href="#TimesNewRomanPSMT-70" transform="translate(138.867188 0)"/>
    <use xlink:href="#TimesNewRomanPSMT-6c" transform="translate(188.867188 0)"/>
    <use xlink:href="#TimesNewRomanPSMT-6f" transform="translate(216.650391 0)"/>
    <use xlink:href="#TimesNewRomanPSMT-79" transform="translate(266.650391 0)"/>
    <use xlink:href="#TimesNewRomanPSMT-65" transform="translate(316.650391 0)"/>
    <use xlink:href="#TimesNewRomanPSMT-65" transform="translate(361.035156 0)"/>
    <use xlink:href="#TimesNewRomanPSMT-20" transform="translate(405.419922 0)"/>
    <use xlink:href="#TimesNewRomanPSMT-53" transform="translate(430.419922 0)"/>
    <use xlink:href="#TimesNewRomanPSMT-61" transform="translate(486.035156 0)"/>
    <use xlink:href="#TimesNewRomanPSMT-74" transform="translate(530.419922 0)"/>
    <use xlink:href="#TimesNewRomanPSMT-69" transform="translate(558.203125 0)"/>
    <use xlink:href="#TimesNewRomanPSMT-73" transform="translate(585.986328 0)"/>
    <use xlink:href="#TimesNewRomanPSMT-66" transform="translate(624.902344 0)"/>
    <use xlink:href="#TimesNewRomanPSMT-61" transform="translate(658.203125 0)"/>
    <use xlink:href="#TimesNewRomanPSMT-63" transform="translate(702.587891 0)"/>
    <use xlink:href="#TimesNewRomanPSMT-74" transform="translate(746.972656 0)"/>
    <use xlink:href="#TimesNewRomanPSMT-69" transform="translate(774.755859 0)"/>
    <use xlink:href="#TimesNewRomanPSMT-6f" transform="translate(802.539062 0)"/>
    <use xlink:href="#TimesNewRomanPSMT-6e" transform="translate(852.539062 0)"/>
    <use xlink:href="#TimesNewRomanPSMT-28" transform="translate(902.539062 0)"/>
    <use xlink:href="#TimesNewRomanPSMT-25" transform="translate(935.839844 0)"/>
    <use xlink:href="#TimesNewRomanPSMT-29" transform="translate(1019.140625 0)"/>
   </g>
  </g>
 </g>
 <defs>
  <clipPath id="p7e89ba41e7">
   <rect x="161.811622" y="17.52" width="570.8845" height="88.528"/>
  </clipPath>
  <clipPath id="p571824a6e6">
   <rect x="161.811622" y="61.784" width="570.8845" height="88.528"/>
  </clipPath>
  <clipPath id="pf8f25fc41b">
   <rect x="161.811622" y="106.048" width="570.8845" height="88.528"/>
  </clipPath>
  <clipPath id="pce882b35ac">
   <rect x="161.811622" y="150.312" width="570.8845" height="88.528"/>
  </clipPath>
 </defs>
</svg>
