<?xml version="1.0" encoding="utf-8" standalone="no"?>
<!DOCTYPE svg PUBLIC "-//W3C//DTD SVG 1.1//EN"
  "http://www.w3.org/Graphics/SVG/1.1/DTD/svg11.dtd">
<svg xmlns:xlink="http://www.w3.org/1999/xlink" width="741.665305pt" height="212.255313pt" viewBox="0 0 741.665305 212.255313" xmlns="http://www.w3.org/2000/svg" version="1.1">
 <metadata>
  <rdf:RDF xmlns:dc="http://purl.org/dc/elements/1.1/" xmlns:cc="http://creativecommons.org/ns#" xmlns:rdf="http://www.w3.org/1999/02/22-rdf-syntax-ns#">
   <cc:Work>
    <dc:type rdf:resource="http://purl.org/dc/dcmitype/StillImage"/>
    <dc:date>2025-05-27T01:45:33.613102</dc:date>
    <dc:format>image/svg+xml</dc:format>
    <dc:creator>
     <cc:Agent>
      <dc:title>Matplotlib v3.10.1, https://matplotlib.org/</dc:title>
     </cc:Agent>
    </dc:creator>
   </cc:Work>
  </rdf:RDF>
 </metadata>
 <defs>
  <style type="text/css">*{stroke-linejoin: round; stroke-linecap: butt}</style>
 </defs>
 <g id="figure_1">
  <g id="patch_1">
   <path d="M 0 212.255313 
L 741.665305 212.255313 
L 741.665305 0 
L 0 0 
z
" style="fill: #ffffff"/>
  </g>
  <g id="axes_1">
   <g id="patch_2">
    <path d="M 201.049305 95.78 
L 726.965305 95.78 
L 726.965305 21.12 
L 201.049305 21.12 
L 201.049305 95.78 
z
" style="fill: none; opacity: 0"/>
   </g>
   <g id="FillBetweenPolyCollection_1">
    <defs>
     <path id="m1d4649c7c3" d="M 201.049305 -155.679691 
L 201.049305 -116.475313 
L 203.692099 -116.475313 
L 206.334893 -116.475313 
L 208.977687 -116.475313 
L 211.620481 -116.475313 
L 214.263275 -116.475313 
L 216.906069 -116.475313 
L 219.548863 -116.475313 
L 222.191657 -116.475313 
L 224.834451 -116.475313 
L 227.477245 -116.475313 
L 230.120039 -116.475313 
L 232.762833 -116.475313 
L 235.405627 -116.475313 
L 238.048421 -116.475313 
L 240.691215 -116.475313 
L 243.334009 -116.475313 
L 245.976802 -116.475313 
L 248.619596 -116.475313 
L 251.26239 -116.475313 
L 253.905184 -116.475313 
L 256.547978 -116.475313 
L 259.190772 -116.475313 
L 261.833566 -116.475313 
L 264.47636 -116.475313 
L 267.119154 -116.475313 
L 269.761948 -116.475313 
L 272.404742 -116.475313 
L 275.047536 -116.475313 
L 277.69033 -116.475313 
L 280.333124 -116.475313 
L 282.975918 -116.475313 
L 285.618712 -116.475313 
L 288.261506 -116.475313 
L 290.9043 -116.475313 
L 293.547094 -116.475313 
L 296.189888 -116.475313 
L 298.832682 -116.475313 
L 301.475476 -116.475313 
L 304.11827 -116.475313 
L 306.761064 -116.475313 
L 309.403858 -116.475313 
L 312.046652 -116.475313 
L 314.689446 -116.475313 
L 317.33224 -116.475313 
L 319.975034 -116.475313 
L 322.617828 -116.475313 
L 325.260622 -116.475313 
L 327.903416 -116.475313 
L 330.54621 -116.475313 
L 333.189003 -116.475313 
L 335.831797 -116.475313 
L 338.474591 -116.475313 
L 341.117385 -116.475313 
L 343.760179 -116.475313 
L 346.402973 -116.475313 
L 349.045767 -116.475313 
L 351.688561 -116.475313 
L 354.331355 -116.475313 
L 356.974149 -116.475313 
L 359.616943 -116.475313 
L 362.259737 -116.475313 
L 364.902531 -116.475313 
L 367.545325 -116.475313 
L 370.188119 -116.475313 
L 372.830913 -116.475313 
L 375.473707 -116.475313 
L 378.116501 -116.475313 
L 380.759295 -116.475313 
L 383.402089 -116.475313 
L 386.044883 -116.475313 
L 388.687677 -116.475313 
L 391.330471 -116.475313 
L 393.973265 -116.475313 
L 396.616059 -116.475313 
L 399.258853 -116.475313 
L 401.901647 -116.475313 
L 404.544441 -116.475313 
L 407.187235 -116.475313 
L 409.830029 -116.475313 
L 412.472823 -116.475313 
L 415.115617 -116.475313 
L 417.758411 -116.475313 
L 420.401204 -116.475313 
L 423.043998 -116.475313 
L 425.686792 -116.475313 
L 428.329586 -116.475313 
L 430.97238 -116.475313 
L 433.615174 -116.475313 
L 436.257968 -116.475313 
L 438.900762 -116.475313 
L 441.543556 -116.475313 
L 444.18635 -116.475313 
L 446.829144 -116.475313 
L 449.471938 -116.475313 
L 452.114732 -116.475313 
L 454.757526 -116.475313 
L 457.40032 -116.475313 
L 460.043114 -116.475313 
L 462.685908 -116.475313 
L 465.328702 -116.475313 
L 467.971496 -116.475313 
L 470.61429 -116.475313 
L 473.257084 -116.475313 
L 475.899878 -116.475313 
L 478.542672 -116.475313 
L 481.185466 -116.475313 
L 483.82826 -116.475313 
L 486.471054 -116.475313 
L 489.113848 -116.475313 
L 491.756642 -116.475313 
L 494.399436 -116.475313 
L 497.04223 -116.475313 
L 499.685024 -116.475313 
L 502.327818 -116.475313 
L 504.970612 -116.475313 
L 507.613406 -116.475313 
L 510.256199 -116.475313 
L 512.898993 -116.475313 
L 515.541787 -116.475313 
L 518.184581 -116.475313 
L 520.827375 -116.475313 
L 523.470169 -116.475313 
L 526.112963 -116.475313 
L 528.755757 -116.475313 
L 531.398551 -116.475313 
L 534.041345 -116.475313 
L 536.684139 -116.475313 
L 539.326933 -116.475313 
L 541.969727 -116.475313 
L 544.612521 -116.475313 
L 547.255315 -116.475313 
L 549.898109 -116.475313 
L 552.540903 -116.475313 
L 555.183697 -116.475313 
L 557.826491 -116.475313 
L 560.469285 -116.475313 
L 563.112079 -116.475313 
L 565.754873 -116.475313 
L 568.397667 -116.475313 
L 571.040461 -116.475313 
L 573.683255 -116.475313 
L 576.326049 -116.475313 
L 578.968843 -116.475313 
L 581.611637 -116.475313 
L 584.254431 -116.475313 
L 586.897225 -116.475313 
L 589.540019 -116.475313 
L 592.182813 -116.475313 
L 594.825607 -116.475313 
L 597.4684 -116.475313 
L 600.111194 -116.475313 
L 602.753988 -116.475313 
L 605.396782 -116.475313 
L 608.039576 -116.475313 
L 610.68237 -116.475313 
L 613.325164 -116.475313 
L 615.967958 -116.475313 
L 618.610752 -116.475313 
L 621.253546 -116.475313 
L 623.89634 -116.475313 
L 626.539134 -116.475313 
L 629.181928 -116.475313 
L 631.824722 -116.475313 
L 634.467516 -116.475313 
L 637.11031 -116.475313 
L 639.753104 -116.475313 
L 642.395898 -116.475313 
L 645.038692 -116.475313 
L 647.681486 -116.475313 
L 650.32428 -116.475313 
L 652.967074 -116.475313 
L 655.609868 -116.475313 
L 658.252662 -116.475313 
L 660.895456 -116.475313 
L 663.53825 -116.475313 
L 666.181044 -116.475313 
L 668.823838 -116.475313 
L 671.466632 -116.475313 
L 674.109426 -116.475313 
L 676.75222 -116.475313 
L 679.395014 -116.475313 
L 682.037808 -116.475313 
L 684.680601 -116.475313 
L 687.323395 -116.475313 
L 689.966189 -116.475313 
L 692.608983 -116.475313 
L 695.251777 -116.475313 
L 697.894571 -116.475313 
L 700.537365 -116.475313 
L 703.180159 -116.475313 
L 705.822953 -116.475313 
L 708.465747 -116.475313 
L 711.108541 -116.475313 
L 713.751335 -116.475313 
L 716.394129 -116.475313 
L 719.036923 -116.475313 
L 721.679717 -116.475313 
L 724.322511 -116.475313 
L 726.965305 -116.475313 
L 726.965305 -147.703352 
L 726.965305 -147.703352 
L 724.322511 -148.860824 
L 721.679717 -150.015515 
L 719.036923 -151.164551 
L 716.394129 -152.305022 
L 713.751335 -153.433995 
L 711.108541 -154.548532 
L 708.465747 -155.645696 
L 705.822953 -156.722575 
L 703.180159 -157.776289 
L 700.537365 -158.804007 
L 697.894571 -159.802961 
L 695.251777 -160.770461 
L 692.608983 -161.703907 
L 689.966189 -162.600802 
L 687.323395 -163.458767 
L 684.680601 -164.27555 
L 682.037808 -165.049042 
L 679.395014 -165.777283 
L 676.75222 -166.458478 
L 674.109426 -167.091 
L 671.466632 -167.673406 
L 668.823838 -168.204439 
L 666.181044 -168.683037 
L 663.53825 -169.108341 
L 660.895456 -169.479696 
L 658.252662 -169.79666 
L 655.609868 -170.058999 
L 652.967074 -170.266697 
L 650.32428 -170.419952 
L 647.681486 -170.519174 
L 645.038692 -170.564986 
L 642.395898 -170.55822 
L 639.753104 -170.499911 
L 637.11031 -170.391292 
L 634.467516 -170.233788 
L 631.824722 -170.029004 
L 629.181928 -169.778722 
L 626.539134 -169.484885 
L 623.89634 -169.149586 
L 621.253546 -168.77506 
L 618.610752 -168.363662 
L 615.967958 -167.917863 
L 613.325164 -167.440225 
L 610.68237 -166.933393 
L 608.039576 -166.400071 
L 605.396782 -165.843015 
L 602.753988 -165.265006 
L 600.111194 -164.668839 
L 597.4684 -164.057306 
L 594.825607 -163.433176 
L 592.182813 -162.799181 
L 589.540019 -162.157998 
L 586.897225 -161.512235 
L 584.254431 -160.864418 
L 581.611637 -160.216973 
L 578.968843 -159.572217 
L 576.326049 -158.932344 
L 573.683255 -158.299417 
L 571.040461 -157.675357 
L 568.397667 -157.061939 
L 565.754873 -156.460781 
L 563.112079 -155.873344 
L 560.469285 -155.300927 
L 557.826491 -154.744668 
L 555.183697 -154.205542 
L 552.540903 -153.684363 
L 549.898109 -153.181792 
L 547.255315 -152.698335 
L 544.612521 -152.234355 
L 541.969727 -151.790077 
L 539.326933 -151.365599 
L 536.684139 -150.960897 
L 534.041345 -150.575842 
L 531.398551 -150.210206 
L 528.755757 -149.863676 
L 526.112963 -149.535866 
L 523.470169 -149.226331 
L 520.827375 -148.934576 
L 518.184581 -148.66007 
L 515.541787 -148.402259 
L 512.898993 -148.160575 
L 510.256199 -147.934449 
L 507.613406 -147.723317 
L 504.970612 -147.526635 
L 502.327818 -147.343881 
L 499.685024 -147.174566 
L 497.04223 -147.018237 
L 494.399436 -146.874483 
L 491.756642 -146.742937 
L 489.113848 -146.623279 
L 486.471054 -146.515234 
L 483.82826 -146.418575 
L 481.185466 -146.333119 
L 478.542672 -146.258724 
L 475.899878 -146.195284 
L 473.257084 -146.142729 
L 470.61429 -146.101013 
L 467.971496 -146.070112 
L 465.328702 -146.050015 
L 462.685908 -146.040718 
L 460.043114 -146.042219 
L 457.40032 -146.054505 
L 454.757526 -146.077549 
L 452.114732 -146.111303 
L 449.471938 -146.155691 
L 446.829144 -146.210602 
L 444.18635 -146.275886 
L 441.543556 -146.351348 
L 438.900762 -146.436748 
L 436.257968 -146.531795 
L 433.615174 -146.636147 
L 430.97238 -146.74941 
L 428.329586 -146.87114 
L 425.686792 -147.000844 
L 423.043998 -147.137983 
L 420.401204 -147.281979 
L 417.758411 -147.432215 
L 415.115617 -147.588047 
L 412.472823 -147.748806 
L 409.830029 -147.91381 
L 407.187235 -148.082374 
L 404.544441 -148.253812 
L 401.901647 -148.427455 
L 399.258853 -148.602658 
L 396.616059 -148.778809 
L 393.973265 -148.95534 
L 391.330471 -149.131738 
L 388.687677 -149.307553 
L 386.044883 -149.482408 
L 383.402089 -149.656006 
L 380.759295 -149.82814 
L 378.116501 -149.998696 
L 375.473707 -150.16766 
L 372.830913 -150.335121 
L 370.188119 -150.501272 
L 367.545325 -150.666414 
L 364.902531 -150.830951 
L 362.259737 -150.99539 
L 359.616943 -151.160334 
L 356.974149 -151.326478 
L 354.331355 -151.494597 
L 351.688561 -151.665543 
L 349.045767 -151.840224 
L 346.402973 -152.019599 
L 343.760179 -152.204659 
L 341.117385 -152.396411 
L 338.474591 -152.595862 
L 335.831797 -152.804 
L 333.189003 -153.021776 
L 330.54621 -153.250083 
L 327.903416 -153.489736 
L 325.260622 -153.741455 
L 322.617828 -154.005842 
L 319.975034 -154.283362 
L 317.33224 -154.574329 
L 314.689446 -154.878883 
L 312.046652 -155.196979 
L 309.403858 -155.528371 
L 306.761064 -155.872598 
L 304.11827 -156.228978 
L 301.475476 -156.596599 
L 298.832682 -156.97431 
L 296.189888 -157.360726 
L 293.547094 -157.754223 
L 290.9043 -158.152941 
L 288.261506 -158.554797 
L 285.618712 -158.957486 
L 282.975918 -159.358502 
L 280.333124 -159.755147 
L 277.69033 -160.144553 
L 275.047536 -160.5237 
L 272.404742 -160.889444 
L 269.761948 -161.238539 
L 267.119154 -161.567668 
L 264.47636 -161.873467 
L 261.833566 -162.152564 
L 259.190772 -162.401604 
L 256.547978 -162.617284 
L 253.905184 -162.796387 
L 251.26239 -162.935812 
L 248.619596 -163.032609 
L 245.976802 -163.084008 
L 243.334009 -163.087451 
L 240.691215 -163.040615 
L 238.048421 -162.941446 
L 235.405627 -162.788174 
L 232.762833 -162.579339 
L 230.120039 -162.31381 
L 227.477245 -161.990793 
L 224.834451 -161.609849 
L 222.191657 -161.170898 
L 219.548863 -160.674223 
L 216.906069 -160.120469 
L 214.263275 -159.510646 
L 211.620481 -158.84611 
L 208.977687 -158.128565 
L 206.334893 -157.360039 
L 203.692099 -156.542871 
L 201.049305 -155.679691 
z
" style="stroke: #8db0fe"/>
    </defs>
    <g clip-path="url(#p24bffe4d9a)">
     <use xlink:href="#m1d4649c7c3" x="0" y="212.255313" style="fill: #8db0fe; fill-opacity: 0.5; stroke: #8db0fe"/>
    </g>
   </g>
   <g id="matplotlib.axis_1">
    <g id="xtick_1">
     <g id="line2d_1">
      <defs>
       <path id="mfc2ed099c8" d="M 0 0 
L 0 3.5 
" style="stroke: #000000; stroke-width: 0.8"/>
      </defs>
      <g>
       <use xlink:href="#mfc2ed099c8" x="201.049305" y="95.78" style="stroke: #000000; stroke-width: 0.8"/>
      </g>
     </g>
    </g>
    <g id="xtick_2">
     <g id="line2d_2">
      <g>
       <use xlink:href="#mfc2ed099c8" x="306.232505" y="95.78" style="stroke: #000000; stroke-width: 0.8"/>
      </g>
     </g>
    </g>
    <g id="xtick_3">
     <g id="line2d_3">
      <g>
       <use xlink:href="#mfc2ed099c8" x="411.415705" y="95.78" style="stroke: #000000; stroke-width: 0.8"/>
      </g>
     </g>
    </g>
    <g id="xtick_4">
     <g id="line2d_4">
      <g>
       <use xlink:href="#mfc2ed099c8" x="516.598905" y="95.78" style="stroke: #000000; stroke-width: 0.8"/>
      </g>
     </g>
    </g>
    <g id="xtick_5">
     <g id="line2d_5">
      <g>
       <use xlink:href="#mfc2ed099c8" x="621.782105" y="95.78" style="stroke: #000000; stroke-width: 0.8"/>
      </g>
     </g>
    </g>
    <g id="xtick_6">
     <g id="line2d_6">
      <g>
       <use xlink:href="#mfc2ed099c8" x="726.965305" y="95.78" style="stroke: #000000; stroke-width: 0.8"/>
      </g>
     </g>
    </g>
   </g>
   <g id="matplotlib.axis_2"/>
   <g id="line2d_7">
    <path d="M 201.049305 56.575622 
L 206.334893 54.895274 
L 211.620481 53.409202 
L 216.906069 52.134843 
L 222.191657 51.084414 
L 227.477245 50.264519 
L 232.762833 49.675973 
L 238.048421 49.313867 
L 243.334009 49.167862 
L 248.619596 49.222704 
L 253.905184 49.458926 
L 261.833566 50.102748 
L 269.761948 51.016773 
L 280.333124 52.500165 
L 306.761064 56.382715 
L 317.33224 57.680983 
L 327.903416 58.765576 
L 341.117385 59.858902 
L 359.616943 61.094978 
L 407.187235 64.172939 
L 425.686792 65.254469 
L 438.900762 65.818564 
L 452.114732 66.144009 
L 465.328702 66.205298 
L 478.542672 65.996589 
L 489.113848 65.632034 
L 499.685024 65.080747 
L 510.256199 64.320864 
L 520.827375 63.320737 
L 531.398551 62.045107 
L 539.326933 60.889714 
L 547.255315 59.556978 
L 557.826491 57.510645 
L 568.397667 55.193374 
L 581.611637 52.038339 
L 600.111194 47.586473 
L 608.039576 45.855241 
L 615.967958 44.337449 
L 623.89634 43.105726 
L 629.181928 42.47659 
L 634.467516 42.021525 
L 639.753104 41.755401 
L 645.038692 41.690326 
L 650.32428 41.835361 
L 655.609868 42.196314 
L 660.895456 42.775616 
L 666.181044 43.572276 
L 671.466632 44.581907 
L 676.75222 45.796835 
L 682.037808 47.20627 
L 687.323395 48.796545 
L 695.251777 51.484851 
L 703.180159 54.479023 
L 711.108541 57.706781 
L 724.322511 63.394488 
L 726.965305 64.55196 
L 726.965305 64.55196 
" clip-path="url(#p24bffe4d9a)" style="fill: none; stroke: #ffffff; stroke-width: 2; stroke-linecap: square"/>
   </g>
   <g id="line2d_8">
    <path d="M 201.049305 95.78 
L 726.965305 95.78 
" style="fill: none; stroke: #000000; stroke-linecap: square"/>
   </g>
   <g id="text_1">
    <g id="patch_3">
     <path d="M 54.215625 105.189687 
L 149.788125 105.189687 
L 149.788125 86.370312 
L 54.215625 86.370312 
z
" style="fill: #ffffff; opacity: 0.5"/>
    </g>
    <!-- Coastal Properties -->
    <g transform="translate(58.175625 98.662813) scale(0.12 -0.12)">
     <defs>
      <path id="TimesNewRomanPSMT-43" d="M 3853 4334 
L 3950 2894 
L 3853 2894 
Q 3659 3541 3300 3825 
Q 2941 4109 2438 4109 
Q 2016 4109 1675 3895 
Q 1334 3681 1139 3212 
Q 944 2744 944 2047 
Q 944 1472 1128 1050 
Q 1313 628 1683 403 
Q 2053 178 2528 178 
Q 2941 178 3256 354 
Q 3572 531 3950 1056 
L 4047 994 
Q 3728 428 3303 165 
Q 2878 -97 2294 -97 
Q 1241 -97 663 684 
Q 231 1266 231 2053 
Q 231 2688 515 3219 
Q 800 3750 1298 4042 
Q 1797 4334 2388 4334 
Q 2847 4334 3294 4109 
Q 3425 4041 3481 4041 
Q 3566 4041 3628 4100 
Q 3709 4184 3744 4334 
L 3853 4334 
z
" transform="scale(0.015625)"/>
      <path id="TimesNewRomanPSMT-6f" d="M 1600 2947 
Q 2250 2947 2644 2453 
Q 2978 2031 2978 1484 
Q 2978 1100 2793 706 
Q 2609 313 2286 112 
Q 1963 -88 1566 -88 
Q 919 -88 538 428 
Q 216 863 216 1403 
Q 216 1797 411 2186 
Q 606 2575 925 2761 
Q 1244 2947 1600 2947 
z
M 1503 2744 
Q 1338 2744 1170 2645 
Q 1003 2547 900 2300 
Q 797 2053 797 1666 
Q 797 1041 1045 587 
Q 1294 134 1700 134 
Q 2003 134 2200 384 
Q 2397 634 2397 1244 
Q 2397 2006 2069 2444 
Q 1847 2744 1503 2744 
z
" transform="scale(0.015625)"/>
      <path id="TimesNewRomanPSMT-61" d="M 1822 413 
Q 1381 72 1269 19 
Q 1100 -59 909 -59 
Q 613 -59 420 144 
Q 228 347 228 678 
Q 228 888 322 1041 
Q 450 1253 767 1440 
Q 1084 1628 1822 1897 
L 1822 2009 
Q 1822 2438 1686 2597 
Q 1550 2756 1291 2756 
Q 1094 2756 978 2650 
Q 859 2544 859 2406 
L 866 2225 
Q 866 2081 792 2003 
Q 719 1925 600 1925 
Q 484 1925 411 2006 
Q 338 2088 338 2228 
Q 338 2497 613 2722 
Q 888 2947 1384 2947 
Q 1766 2947 2009 2819 
Q 2194 2722 2281 2516 
Q 2338 2381 2338 1966 
L 2338 994 
Q 2338 584 2353 492 
Q 2369 400 2405 369 
Q 2441 338 2488 338 
Q 2538 338 2575 359 
Q 2641 400 2828 588 
L 2828 413 
Q 2478 -56 2159 -56 
Q 2006 -56 1915 50 
Q 1825 156 1822 413 
z
M 1822 616 
L 1822 1706 
Q 1350 1519 1213 1441 
Q 966 1303 859 1153 
Q 753 1003 753 825 
Q 753 600 887 451 
Q 1022 303 1197 303 
Q 1434 303 1822 616 
z
" transform="scale(0.015625)"/>
      <path id="TimesNewRomanPSMT-73" d="M 2050 2947 
L 2050 1972 
L 1947 1972 
Q 1828 2431 1642 2597 
Q 1456 2763 1169 2763 
Q 950 2763 815 2647 
Q 681 2531 681 2391 
Q 681 2216 781 2091 
Q 878 1963 1175 1819 
L 1631 1597 
Q 2266 1288 2266 781 
Q 2266 391 1970 151 
Q 1675 -88 1309 -88 
Q 1047 -88 709 6 
Q 606 38 541 38 
Q 469 38 428 -44 
L 325 -44 
L 325 978 
L 428 978 
Q 516 541 762 319 
Q 1009 97 1316 97 
Q 1531 97 1667 223 
Q 1803 350 1803 528 
Q 1803 744 1651 891 
Q 1500 1038 1047 1263 
Q 594 1488 453 1669 
Q 313 1847 313 2119 
Q 313 2472 555 2709 
Q 797 2947 1181 2947 
Q 1350 2947 1591 2875 
Q 1750 2828 1803 2828 
Q 1853 2828 1881 2850 
Q 1909 2872 1947 2947 
L 2050 2947 
z
" transform="scale(0.015625)"/>
      <path id="TimesNewRomanPSMT-74" d="M 1031 3803 
L 1031 2863 
L 1700 2863 
L 1700 2644 
L 1031 2644 
L 1031 788 
Q 1031 509 1111 412 
Q 1191 316 1316 316 
Q 1419 316 1516 380 
Q 1613 444 1666 569 
L 1788 569 
Q 1678 263 1478 108 
Q 1278 -47 1066 -47 
Q 922 -47 784 33 
Q 647 113 581 261 
Q 516 409 516 719 
L 516 2644 
L 63 2644 
L 63 2747 
Q 234 2816 414 2980 
Q 594 3144 734 3369 
Q 806 3488 934 3803 
L 1031 3803 
z
" transform="scale(0.015625)"/>
      <path id="TimesNewRomanPSMT-6c" d="M 1184 4444 
L 1184 647 
Q 1184 378 1223 290 
Q 1263 203 1344 158 
Q 1425 113 1647 113 
L 1647 0 
L 244 0 
L 244 113 
Q 441 113 512 153 
Q 584 194 625 287 
Q 666 381 666 647 
L 666 3247 
Q 666 3731 644 3842 
Q 622 3953 573 3993 
Q 525 4034 450 4034 
Q 369 4034 244 3984 
L 191 4094 
L 1044 4444 
L 1184 4444 
z
" transform="scale(0.015625)"/>
      <path id="TimesNewRomanPSMT-20" transform="scale(0.015625)"/>
      <path id="TimesNewRomanPSMT-50" d="M 1313 1984 
L 1313 750 
Q 1313 350 1400 253 
Q 1519 116 1759 116 
L 1922 116 
L 1922 0 
L 106 0 
L 106 116 
L 266 116 
Q 534 116 650 291 
Q 713 388 713 750 
L 713 3488 
Q 713 3888 628 3984 
Q 506 4122 266 4122 
L 106 4122 
L 106 4238 
L 1659 4238 
Q 2228 4238 2556 4120 
Q 2884 4003 3109 3725 
Q 3334 3447 3334 3066 
Q 3334 2547 2992 2222 
Q 2650 1897 2025 1897 
Q 1872 1897 1694 1919 
Q 1516 1941 1313 1984 
z
M 1313 2163 
Q 1478 2131 1606 2115 
Q 1734 2100 1825 2100 
Q 2150 2100 2386 2351 
Q 2622 2603 2622 3003 
Q 2622 3278 2509 3514 
Q 2397 3750 2190 3867 
Q 1984 3984 1722 3984 
Q 1563 3984 1313 3925 
L 1313 2163 
z
" transform="scale(0.015625)"/>
      <path id="TimesNewRomanPSMT-72" d="M 1038 2947 
L 1038 2303 
Q 1397 2947 1775 2947 
Q 1947 2947 2059 2842 
Q 2172 2738 2172 2600 
Q 2172 2478 2090 2393 
Q 2009 2309 1897 2309 
Q 1788 2309 1652 2417 
Q 1516 2525 1450 2525 
Q 1394 2525 1328 2463 
Q 1188 2334 1038 2041 
L 1038 669 
Q 1038 431 1097 309 
Q 1138 225 1241 169 
Q 1344 113 1538 113 
L 1538 0 
L 72 0 
L 72 113 
Q 291 113 397 181 
Q 475 231 506 341 
Q 522 394 522 644 
L 522 1753 
Q 522 2253 501 2348 
Q 481 2444 426 2487 
Q 372 2531 291 2531 
Q 194 2531 72 2484 
L 41 2597 
L 906 2947 
L 1038 2947 
z
" transform="scale(0.015625)"/>
      <path id="TimesNewRomanPSMT-70" d="M -6 2578 
L 875 2934 
L 994 2934 
L 994 2266 
Q 1216 2644 1439 2795 
Q 1663 2947 1909 2947 
Q 2341 2947 2628 2609 
Q 2981 2197 2981 1534 
Q 2981 794 2556 309 
Q 2206 -88 1675 -88 
Q 1444 -88 1275 -22 
Q 1150 25 994 166 
L 994 -706 
Q 994 -1000 1030 -1079 
Q 1066 -1159 1155 -1206 
Q 1244 -1253 1478 -1253 
L 1478 -1369 
L -22 -1369 
L -22 -1253 
L 56 -1253 
Q 228 -1256 350 -1188 
Q 409 -1153 442 -1076 
Q 475 -1000 475 -688 
L 475 2019 
Q 475 2297 450 2372 
Q 425 2447 370 2484 
Q 316 2522 222 2522 
Q 147 2522 31 2478 
L -6 2578 
z
M 994 2081 
L 994 1013 
Q 994 666 1022 556 
Q 1066 375 1236 237 
Q 1406 100 1666 100 
Q 1978 100 2172 344 
Q 2425 663 2425 1241 
Q 2425 1897 2138 2250 
Q 1938 2494 1663 2494 
Q 1513 2494 1366 2419 
Q 1253 2363 994 2081 
z
" transform="scale(0.015625)"/>
      <path id="TimesNewRomanPSMT-65" d="M 681 1784 
Q 678 1147 991 784 
Q 1303 422 1725 422 
Q 2006 422 2214 576 
Q 2422 731 2563 1106 
L 2659 1044 
Q 2594 616 2278 264 
Q 1963 -88 1488 -88 
Q 972 -88 605 314 
Q 238 716 238 1394 
Q 238 2128 614 2539 
Q 991 2950 1559 2950 
Q 2041 2950 2350 2633 
Q 2659 2316 2659 1784 
L 681 1784 
z
M 681 1966 
L 2006 1966 
Q 1991 2241 1941 2353 
Q 1863 2528 1708 2628 
Q 1553 2728 1384 2728 
Q 1125 2728 920 2526 
Q 716 2325 681 1966 
z
" transform="scale(0.015625)"/>
      <path id="TimesNewRomanPSMT-69" d="M 928 4444 
Q 1059 4444 1151 4351 
Q 1244 4259 1244 4128 
Q 1244 3997 1151 3903 
Q 1059 3809 928 3809 
Q 797 3809 703 3903 
Q 609 3997 609 4128 
Q 609 4259 701 4351 
Q 794 4444 928 4444 
z
M 1188 2947 
L 1188 647 
Q 1188 378 1227 289 
Q 1266 200 1342 156 
Q 1419 113 1622 113 
L 1622 0 
L 231 0 
L 231 113 
Q 441 113 512 153 
Q 584 194 626 287 
Q 669 381 669 647 
L 669 1750 
Q 669 2216 641 2353 
Q 619 2453 572 2492 
Q 525 2531 444 2531 
Q 356 2531 231 2484 
L 188 2597 
L 1050 2947 
L 1188 2947 
z
" transform="scale(0.015625)"/>
     </defs>
     <use xlink:href="#TimesNewRomanPSMT-43"/>
     <use xlink:href="#TimesNewRomanPSMT-6f" transform="translate(66.699219 0)"/>
     <use xlink:href="#TimesNewRomanPSMT-61" transform="translate(116.699219 0)"/>
     <use xlink:href="#TimesNewRomanPSMT-73" transform="translate(161.083984 0)"/>
     <use xlink:href="#TimesNewRomanPSMT-74" transform="translate(200 0)"/>
     <use xlink:href="#TimesNewRomanPSMT-61" transform="translate(227.783203 0)"/>
     <use xlink:href="#TimesNewRomanPSMT-6c" transform="translate(272.167969 0)"/>
     <use xlink:href="#TimesNewRomanPSMT-20" transform="translate(299.951172 0)"/>
     <use xlink:href="#TimesNewRomanPSMT-50" transform="translate(324.951172 0)"/>
     <use xlink:href="#TimesNewRomanPSMT-72" transform="translate(380.566406 0)"/>
     <use xlink:href="#TimesNewRomanPSMT-6f" transform="translate(413.867188 0)"/>
     <use xlink:href="#TimesNewRomanPSMT-70" transform="translate(463.867188 0)"/>
     <use xlink:href="#TimesNewRomanPSMT-65" transform="translate(513.867188 0)"/>
     <use xlink:href="#TimesNewRomanPSMT-72" transform="translate(558.251953 0)"/>
     <use xlink:href="#TimesNewRomanPSMT-74" transform="translate(591.552734 0)"/>
     <use xlink:href="#TimesNewRomanPSMT-69" transform="translate(619.335938 0)"/>
     <use xlink:href="#TimesNewRomanPSMT-65" transform="translate(647.119141 0)"/>
     <use xlink:href="#TimesNewRomanPSMT-73" transform="translate(691.503906 0)"/>
    </g>
   </g>
  </g>
  <g id="axes_2">
   <g id="patch_4">
    <path d="M 201.049305 133.11 
L 726.965305 133.11 
L 726.965305 58.45 
L 201.049305 58.45 
L 201.049305 133.11 
z
" style="fill: none; opacity: 0"/>
   </g>
   <g id="FillBetweenPolyCollection_2">
    <defs>
     <path id="m5a2a7b379f" d="M 201.049305 -107.81757 
L 201.049305 -79.145313 
L 203.692099 -79.145313 
L 206.334893 -79.145313 
L 208.977687 -79.145313 
L 211.620481 -79.145313 
L 214.263275 -79.145313 
L 216.906069 -79.145313 
L 219.548863 -79.145313 
L 222.191657 -79.145313 
L 224.834451 -79.145313 
L 227.477245 -79.145313 
L 230.120039 -79.145313 
L 232.762833 -79.145313 
L 235.405627 -79.145313 
L 238.048421 -79.145313 
L 240.691215 -79.145313 
L 243.334009 -79.145313 
L 245.976802 -79.145313 
L 248.619596 -79.145313 
L 251.26239 -79.145313 
L 253.905184 -79.145313 
L 256.547978 -79.145313 
L 259.190772 -79.145313 
L 261.833566 -79.145313 
L 264.47636 -79.145313 
L 267.119154 -79.145313 
L 269.761948 -79.145313 
L 272.404742 -79.145313 
L 275.047536 -79.145313 
L 277.69033 -79.145313 
L 280.333124 -79.145313 
L 282.975918 -79.145313 
L 285.618712 -79.145313 
L 288.261506 -79.145313 
L 290.9043 -79.145313 
L 293.547094 -79.145313 
L 296.189888 -79.145313 
L 298.832682 -79.145313 
L 301.475476 -79.145313 
L 304.11827 -79.145313 
L 306.761064 -79.145313 
L 309.403858 -79.145313 
L 312.046652 -79.145313 
L 314.689446 -79.145313 
L 317.33224 -79.145313 
L 319.975034 -79.145313 
L 322.617828 -79.145313 
L 325.260622 -79.145313 
L 327.903416 -79.145313 
L 330.54621 -79.145313 
L 333.189003 -79.145313 
L 335.831797 -79.145313 
L 338.474591 -79.145313 
L 341.117385 -79.145313 
L 343.760179 -79.145313 
L 346.402973 -79.145313 
L 349.045767 -79.145313 
L 351.688561 -79.145313 
L 354.331355 -79.145313 
L 356.974149 -79.145313 
L 359.616943 -79.145313 
L 362.259737 -79.145313 
L 364.902531 -79.145313 
L 367.545325 -79.145313 
L 370.188119 -79.145313 
L 372.830913 -79.145313 
L 375.473707 -79.145313 
L 378.116501 -79.145313 
L 380.759295 -79.145313 
L 383.402089 -79.145313 
L 386.044883 -79.145313 
L 388.687677 -79.145313 
L 391.330471 -79.145313 
L 393.973265 -79.145313 
L 396.616059 -79.145313 
L 399.258853 -79.145313 
L 401.901647 -79.145313 
L 404.544441 -79.145313 
L 407.187235 -79.145313 
L 409.830029 -79.145313 
L 412.472823 -79.145313 
L 415.115617 -79.145313 
L 417.758411 -79.145313 
L 420.401204 -79.145313 
L 423.043998 -79.145313 
L 425.686792 -79.145313 
L 428.329586 -79.145313 
L 430.97238 -79.145313 
L 433.615174 -79.145313 
L 436.257968 -79.145313 
L 438.900762 -79.145313 
L 441.543556 -79.145313 
L 444.18635 -79.145313 
L 446.829144 -79.145313 
L 449.471938 -79.145313 
L 452.114732 -79.145313 
L 454.757526 -79.145313 
L 457.40032 -79.145313 
L 460.043114 -79.145313 
L 462.685908 -79.145313 
L 465.328702 -79.145313 
L 467.971496 -79.145313 
L 470.61429 -79.145313 
L 473.257084 -79.145313 
L 475.899878 -79.145313 
L 478.542672 -79.145313 
L 481.185466 -79.145313 
L 483.82826 -79.145313 
L 486.471054 -79.145313 
L 489.113848 -79.145313 
L 491.756642 -79.145313 
L 494.399436 -79.145313 
L 497.04223 -79.145313 
L 499.685024 -79.145313 
L 502.327818 -79.145313 
L 504.970612 -79.145313 
L 507.613406 -79.145313 
L 510.256199 -79.145313 
L 512.898993 -79.145313 
L 515.541787 -79.145313 
L 518.184581 -79.145313 
L 520.827375 -79.145313 
L 523.470169 -79.145313 
L 526.112963 -79.145313 
L 528.755757 -79.145313 
L 531.398551 -79.145313 
L 534.041345 -79.145313 
L 536.684139 -79.145313 
L 539.326933 -79.145313 
L 541.969727 -79.145313 
L 544.612521 -79.145313 
L 547.255315 -79.145313 
L 549.898109 -79.145313 
L 552.540903 -79.145313 
L 555.183697 -79.145313 
L 557.826491 -79.145313 
L 560.469285 -79.145313 
L 563.112079 -79.145313 
L 565.754873 -79.145313 
L 568.397667 -79.145313 
L 571.040461 -79.145313 
L 573.683255 -79.145313 
L 576.326049 -79.145313 
L 578.968843 -79.145313 
L 581.611637 -79.145313 
L 584.254431 -79.145313 
L 586.897225 -79.145313 
L 589.540019 -79.145313 
L 592.182813 -79.145313 
L 594.825607 -79.145313 
L 597.4684 -79.145313 
L 600.111194 -79.145313 
L 602.753988 -79.145313 
L 605.396782 -79.145313 
L 608.039576 -79.145313 
L 610.68237 -79.145313 
L 613.325164 -79.145313 
L 615.967958 -79.145313 
L 618.610752 -79.145313 
L 621.253546 -79.145313 
L 623.89634 -79.145313 
L 626.539134 -79.145313 
L 629.181928 -79.145313 
L 631.824722 -79.145313 
L 634.467516 -79.145313 
L 637.11031 -79.145313 
L 639.753104 -79.145313 
L 642.395898 -79.145313 
L 645.038692 -79.145313 
L 647.681486 -79.145313 
L 650.32428 -79.145313 
L 652.967074 -79.145313 
L 655.609868 -79.145313 
L 658.252662 -79.145313 
L 660.895456 -79.145313 
L 663.53825 -79.145313 
L 666.181044 -79.145313 
L 668.823838 -79.145313 
L 671.466632 -79.145313 
L 674.109426 -79.145313 
L 676.75222 -79.145313 
L 679.395014 -79.145313 
L 682.037808 -79.145313 
L 684.680601 -79.145313 
L 687.323395 -79.145313 
L 689.966189 -79.145313 
L 692.608983 -79.145313 
L 695.251777 -79.145313 
L 697.894571 -79.145313 
L 700.537365 -79.145313 
L 703.180159 -79.145313 
L 705.822953 -79.145313 
L 708.465747 -79.145313 
L 711.108541 -79.145313 
L 713.751335 -79.145313 
L 716.394129 -79.145313 
L 719.036923 -79.145313 
L 721.679717 -79.145313 
L 724.322511 -79.145313 
L 726.965305 -79.145313 
L 726.965305 -106.105632 
L 726.965305 -106.105632 
L 724.322511 -107.371381 
L 721.679717 -108.646171 
L 719.036923 -109.926241 
L 716.394129 -111.20769 
L 713.751335 -112.486498 
L 711.108541 -113.758557 
L 708.465747 -115.019699 
L 705.822953 -116.265722 
L 703.180159 -117.492424 
L 700.537365 -118.695634 
L 697.894571 -119.871241 
L 695.251777 -121.015229 
L 692.608983 -122.123709 
L 689.966189 -123.192943 
L 687.323395 -124.21938 
L 684.680601 -125.199678 
L 682.037808 -126.130735 
L 679.395014 -127.009706 
L 676.75222 -127.834028 
L 674.109426 -128.601439 
L 671.466632 -129.309986 
L 668.823838 -129.958043 
L 666.181044 -130.544319 
L 663.53825 -131.067857 
L 660.895456 -131.528042 
L 658.252662 -131.924594 
L 655.609868 -132.257567 
L 652.967074 -132.527334 
L 650.32428 -132.734582 
L 647.681486 -132.880292 
L 645.038692 -132.965724 
L 642.395898 -132.992398 
L 639.753104 -132.962069 
L 637.11031 -132.876708 
L 634.467516 -132.738476 
L 631.824722 -132.549695 
L 629.181928 -132.31283 
L 626.539134 -132.030455 
L 623.89634 -131.705233 
L 621.253546 -131.339888 
L 618.610752 -130.937183 
L 615.967958 -130.4999 
L 613.325164 -130.030812 
L 610.68237 -129.532674 
L 608.039576 -129.0082 
L 605.396782 -128.460052 
L 602.753988 -127.890827 
L 600.111194 -127.303048 
L 597.4684 -126.699162 
L 594.825607 -126.08153 
L 592.182813 -125.452428 
L 589.540019 -124.814052 
L 586.897225 -124.168513 
L 584.254431 -123.517851 
L 581.611637 -122.864034 
L 578.968843 -122.208969 
L 576.326049 -121.554513 
L 573.683255 -120.902475 
L 571.040461 -120.254633 
L 568.397667 -119.612741 
L 565.754873 -118.978534 
L 563.112079 -118.35374 
L 560.469285 -117.740084 
L 557.826491 -117.139295 
L 555.183697 -116.553106 
L 552.540903 -115.983258 
L 549.898109 -115.431497 
L 547.255315 -114.899571 
L 544.612521 -114.389225 
L 541.969727 -113.902192 
L 539.326933 -113.44018 
L 536.684139 -113.004864 
L 534.041345 -112.597869 
L 531.398551 -112.220753 
L 528.755757 -111.87499 
L 526.112963 -111.561951 
L 523.470169 -111.282882 
L 520.827375 -111.038889 
L 518.184581 -110.830915 
L 515.541787 -110.659719 
L 512.898993 -110.525862 
L 510.256199 -110.429686 
L 507.613406 -110.371303 
L 504.970612 -110.350579 
L 502.327818 -110.367125 
L 499.685024 -110.420291 
L 497.04223 -110.50916 
L 494.399436 -110.63255 
L 491.756642 -110.789016 
L 489.113848 -110.976855 
L 486.471054 -111.194119 
L 483.82826 -111.438627 
L 481.185466 -111.707985 
L 478.542672 -111.999604 
L 475.899878 -112.310726 
L 473.257084 -112.63845 
L 470.61429 -112.97976 
L 467.971496 -113.33156 
L 465.328702 -113.690702 
L 462.685908 -114.054025 
L 460.043114 -114.418386 
L 457.40032 -114.780696 
L 454.757526 -115.137957 
L 452.114732 -115.487294 
L 449.471938 -115.825987 
L 446.829144 -116.151506 
L 444.18635 -116.461536 
L 441.543556 -116.754008 
L 438.900762 -117.02712 
L 436.257968 -117.27936 
L 433.615174 -117.509523 
L 430.97238 -117.716724 
L 428.329586 -117.900412 
L 425.686792 -118.060374 
L 423.043998 -118.196738 
L 420.401204 -118.309976 
L 417.758411 -118.400892 
L 415.115617 -118.470622 
L 412.472823 -118.520614 
L 409.830029 -118.552618 
L 407.187235 -118.568664 
L 404.544441 -118.57104 
L 401.901647 -118.562266 
L 399.258853 -118.545068 
L 396.616059 -118.522346 
L 393.973265 -118.497139 
L 391.330471 -118.472595 
L 388.687677 -118.45193 
L 386.044883 -118.438394 
L 383.402089 -118.435229 
L 380.759295 -118.445633 
L 378.116501 -118.47272 
L 375.473707 -118.519479 
L 372.830913 -118.588736 
L 370.188119 -118.683117 
L 367.545325 -118.805014 
L 364.902531 -118.956544 
L 362.259737 -119.139524 
L 359.616943 -119.355434 
L 356.974149 -119.605397 
L 354.331355 -119.89015 
L 351.688561 -120.210024 
L 349.045767 -120.564931 
L 346.402973 -120.954352 
L 343.760179 -121.377323 
L 341.117385 -121.832441 
L 338.474591 -122.317861 
L 335.831797 -122.831302 
L 333.189003 -123.370064 
L 330.54621 -123.931038 
L 327.903416 -124.510735 
L 325.260622 -125.105306 
L 322.617828 -125.710578 
L 319.975034 -126.322084 
L 317.33224 -126.935109 
L 314.689446 -127.544724 
L 312.046652 -128.14584 
L 309.403858 -128.733247 
L 306.761064 -129.301672 
L 304.11827 -129.845823 
L 301.475476 -130.360444 
L 298.832682 -130.840366 
L 296.189888 -131.280557 
L 293.547094 -131.676171 
L 290.9043 -132.022597 
L 288.261506 -132.315502 
L 285.618712 -132.550873 
L 282.975918 -132.725057 
L 280.333124 -132.834791 
L 277.69033 -132.877237 
L 275.047536 -132.850002 
L 272.404742 -132.75116 
L 269.761948 -132.579266 
L 267.119154 -132.333365 
L 264.47636 -132.012999 
L 261.833566 -131.618199 
L 259.190772 -131.149485 
L 256.547978 -130.607853 
L 253.905184 -129.994759 
L 251.26239 -129.312096 
L 248.619596 -128.562177 
L 245.976802 -127.747699 
L 243.334009 -126.871719 
L 240.691215 -125.93762 
L 238.048421 -124.949073 
L 235.405627 -123.910001 
L 232.762833 -122.824544 
L 230.120039 -121.697018 
L 227.477245 -120.531879 
L 224.834451 -119.333681 
L 222.191657 -118.107042 
L 219.548863 -116.856605 
L 216.906069 -115.587007 
L 214.263275 -114.30284 
L 211.620481 -113.008625 
L 208.977687 -111.708779 
L 206.334893 -110.407593 
L 203.692099 -109.109203 
L 201.049305 -107.81757 
z
" style="stroke: #dddcdc"/>
    </defs>
    <g clip-path="url(#p7ec212a24e)">
     <use xlink:href="#m5a2a7b379f" x="0" y="212.255313" style="fill: #dddcdc; fill-opacity: 0.5; stroke: #dddcdc"/>
    </g>
   </g>
   <g id="matplotlib.axis_3">
    <g id="xtick_7">
     <g id="line2d_9">
      <g>
       <use xlink:href="#mfc2ed099c8" x="201.049305" y="133.11" style="stroke: #000000; stroke-width: 0.8"/>
      </g>
     </g>
    </g>
    <g id="xtick_8">
     <g id="line2d_10">
      <g>
       <use xlink:href="#mfc2ed099c8" x="306.232505" y="133.11" style="stroke: #000000; stroke-width: 0.8"/>
      </g>
     </g>
    </g>
    <g id="xtick_9">
     <g id="line2d_11">
      <g>
       <use xlink:href="#mfc2ed099c8" x="411.415705" y="133.11" style="stroke: #000000; stroke-width: 0.8"/>
      </g>
     </g>
    </g>
    <g id="xtick_10">
     <g id="line2d_12">
      <g>
       <use xlink:href="#mfc2ed099c8" x="516.598905" y="133.11" style="stroke: #000000; stroke-width: 0.8"/>
      </g>
     </g>
    </g>
    <g id="xtick_11">
     <g id="line2d_13">
      <g>
       <use xlink:href="#mfc2ed099c8" x="621.782105" y="133.11" style="stroke: #000000; stroke-width: 0.8"/>
      </g>
     </g>
    </g>
    <g id="xtick_12">
     <g id="line2d_14">
      <g>
       <use xlink:href="#mfc2ed099c8" x="726.965305" y="133.11" style="stroke: #000000; stroke-width: 0.8"/>
      </g>
     </g>
    </g>
   </g>
   <g id="matplotlib.axis_4"/>
   <g id="line2d_15">
    <path d="M 201.049305 104.437742 
L 224.834451 92.921632 
L 232.762833 89.430769 
L 238.048421 87.30624 
L 243.334009 85.383593 
L 248.619596 83.693136 
L 253.905184 82.260554 
L 259.190772 81.105827 
L 264.47636 80.242314 
L 269.761948 79.676047 
L 275.047536 79.405311 
L 280.333124 79.420522 
L 285.618712 79.704439 
L 290.9043 80.232715 
L 296.189888 80.974756 
L 301.475476 81.894869 
L 309.403858 83.522065 
L 338.474591 89.937452 
L 346.402973 91.300961 
L 354.331355 92.365163 
L 362.259737 93.115789 
L 370.188119 93.572195 
L 378.116501 93.782592 
L 388.687677 93.803383 
L 409.830029 93.702694 
L 417.758411 93.85442 
L 425.686792 94.194939 
L 433.615174 94.74579 
L 441.543556 95.501304 
L 452.114732 96.768019 
L 481.185466 100.547327 
L 489.113848 101.278457 
L 497.04223 101.746153 
L 504.970612 101.904734 
L 510.256199 101.825626 
L 515.541787 101.595593 
L 523.470169 100.972431 
L 531.398551 100.034559 
L 539.326933 98.815133 
L 547.255315 97.355741 
L 557.826491 95.116017 
L 571.040461 92.000679 
L 600.111194 84.952264 
L 608.039576 83.247112 
L 615.967958 81.755413 
L 623.89634 80.55008 
L 629.181928 79.942482 
L 634.467516 79.516837 
L 639.753104 79.293244 
L 645.038692 79.289588 
L 650.32428 79.52073 
L 655.609868 79.997746 
L 660.895456 80.727271 
L 666.181044 81.710994 
L 671.466632 82.945327 
L 676.75222 84.421284 
L 682.037808 86.124578 
L 687.323395 88.035933 
L 692.608983 90.131604 
L 700.537365 93.559679 
L 708.465747 97.235613 
L 726.965305 106.149681 
L 726.965305 106.149681 
" clip-path="url(#p7ec212a24e)" style="fill: none; stroke: #ffffff; stroke-width: 2; stroke-linecap: square"/>
   </g>
   <g id="line2d_16">
    <path d="M 201.049305 133.11 
L 726.965305 133.11 
" style="fill: none; stroke: #000000; stroke-linecap: square"/>
   </g>
   <g id="text_2">
    <g id="patch_5">
     <path d="M 49.55625 142.530938 
L 149.788125 142.530938 
L 149.788125 123.689063 
L 49.55625 123.689063 
z
" style="fill: #ffffff; opacity: 0.5"/>
    </g>
    <!-- Luxury Residences -->
    <g transform="translate(53.51625 135.981562) scale(0.12 -0.12)">
     <defs>
      <path id="TimesNewRomanPSMT-4c" d="M 3669 1172 
L 3772 1150 
L 3409 0 
L 128 0 
L 128 116 
L 288 116 
Q 556 116 672 291 
Q 738 391 738 753 
L 738 3488 
Q 738 3884 650 3984 
Q 528 4122 288 4122 
L 128 4122 
L 128 4238 
L 2047 4238 
L 2047 4122 
Q 1709 4125 1573 4059 
Q 1438 3994 1388 3894 
Q 1338 3794 1338 3416 
L 1338 753 
Q 1338 494 1388 397 
Q 1425 331 1503 300 
Q 1581 269 1991 269 
L 2300 269 
Q 2788 269 2984 341 
Q 3181 413 3343 595 
Q 3506 778 3669 1172 
z
" transform="scale(0.015625)"/>
      <path id="TimesNewRomanPSMT-75" d="M 2709 2863 
L 2709 1128 
Q 2709 631 2732 520 
Q 2756 409 2807 365 
Q 2859 322 2928 322 
Q 3025 322 3147 375 
L 3191 266 
L 2334 -88 
L 2194 -88 
L 2194 519 
Q 1825 119 1631 15 
Q 1438 -88 1222 -88 
Q 981 -88 804 51 
Q 628 191 559 409 
Q 491 628 491 1028 
L 491 2306 
Q 491 2509 447 2587 
Q 403 2666 317 2708 
Q 231 2750 6 2747 
L 6 2863 
L 1009 2863 
L 1009 947 
Q 1009 547 1148 422 
Q 1288 297 1484 297 
Q 1619 297 1789 381 
Q 1959 466 2194 703 
L 2194 2325 
Q 2194 2569 2105 2655 
Q 2016 2741 1734 2747 
L 1734 2863 
L 2709 2863 
z
" transform="scale(0.015625)"/>
      <path id="TimesNewRomanPSMT-78" d="M 84 2863 
L 1431 2863 
L 1431 2747 
Q 1303 2747 1251 2703 
Q 1200 2659 1200 2588 
Q 1200 2513 1309 2356 
Q 1344 2306 1413 2200 
L 1616 1875 
L 1850 2200 
Q 2075 2509 2075 2591 
Q 2075 2656 2022 2701 
Q 1969 2747 1850 2747 
L 1850 2863 
L 2819 2863 
L 2819 2747 
Q 2666 2738 2553 2663 
Q 2400 2556 2134 2200 
L 1744 1678 
L 2456 653 
Q 2719 275 2831 198 
Q 2944 122 3122 113 
L 3122 0 
L 1772 0 
L 1772 113 
Q 1913 113 1991 175 
Q 2050 219 2050 291 
Q 2050 363 1850 653 
L 1431 1266 
L 972 653 
Q 759 369 759 316 
Q 759 241 829 180 
Q 900 119 1041 113 
L 1041 0 
L 106 0 
L 106 113 
Q 219 128 303 191 
Q 422 281 703 653 
L 1303 1450 
L 759 2238 
Q 528 2575 401 2661 
Q 275 2747 84 2747 
L 84 2863 
z
" transform="scale(0.015625)"/>
      <path id="TimesNewRomanPSMT-79" d="M 38 2863 
L 1372 2863 
L 1372 2747 
L 1306 2747 
Q 1166 2747 1095 2686 
Q 1025 2625 1025 2534 
Q 1025 2413 1128 2197 
L 1825 753 
L 2466 2334 
Q 2519 2463 2519 2588 
Q 2519 2644 2497 2672 
Q 2472 2706 2419 2726 
Q 2366 2747 2231 2747 
L 2231 2863 
L 3163 2863 
L 3163 2747 
Q 3047 2734 2984 2696 
Q 2922 2659 2847 2556 
Q 2819 2513 2741 2316 
L 1575 -541 
Q 1406 -956 1132 -1168 
Q 859 -1381 606 -1381 
Q 422 -1381 303 -1275 
Q 184 -1169 184 -1031 
Q 184 -900 270 -820 
Q 356 -741 506 -741 
Q 609 -741 788 -809 
Q 913 -856 944 -856 
Q 1038 -856 1148 -759 
Q 1259 -663 1372 -384 
L 1575 113 
L 547 2272 
Q 500 2369 397 2513 
Q 319 2622 269 2659 
Q 197 2709 38 2747 
L 38 2863 
z
" transform="scale(0.015625)"/>
      <path id="TimesNewRomanPSMT-52" d="M 4325 0 
L 3194 0 
L 1759 1981 
Q 1600 1975 1500 1975 
Q 1459 1975 1412 1976 
Q 1366 1978 1316 1981 
L 1316 750 
Q 1316 350 1403 253 
Q 1522 116 1759 116 
L 1925 116 
L 1925 0 
L 109 0 
L 109 116 
L 269 116 
Q 538 116 653 291 
Q 719 388 719 750 
L 719 3488 
Q 719 3888 631 3984 
Q 509 4122 269 4122 
L 109 4122 
L 109 4238 
L 1653 4238 
Q 2328 4238 2648 4139 
Q 2969 4041 3192 3777 
Q 3416 3513 3416 3147 
Q 3416 2756 3161 2468 
Q 2906 2181 2372 2063 
L 3247 847 
Q 3547 428 3762 290 
Q 3978 153 4325 116 
L 4325 0 
z
M 1316 2178 
Q 1375 2178 1419 2176 
Q 1463 2175 1491 2175 
Q 2097 2175 2405 2437 
Q 2713 2700 2713 3106 
Q 2713 3503 2464 3751 
Q 2216 4000 1806 4000 
Q 1625 4000 1316 3941 
L 1316 2178 
z
" transform="scale(0.015625)"/>
      <path id="TimesNewRomanPSMT-64" d="M 2222 322 
Q 2013 103 1813 7 
Q 1613 -88 1381 -88 
Q 913 -88 563 304 
Q 213 697 213 1313 
Q 213 1928 600 2439 
Q 988 2950 1597 2950 
Q 1975 2950 2222 2709 
L 2222 3238 
Q 2222 3728 2198 3840 
Q 2175 3953 2125 3993 
Q 2075 4034 2000 4034 
Q 1919 4034 1784 3984 
L 1744 4094 
L 2597 4444 
L 2738 4444 
L 2738 1134 
Q 2738 631 2761 520 
Q 2784 409 2836 365 
Q 2888 322 2956 322 
Q 3041 322 3181 375 
L 3216 266 
L 2366 -88 
L 2222 -88 
L 2222 322 
z
M 2222 541 
L 2222 2016 
Q 2203 2228 2109 2403 
Q 2016 2578 1861 2667 
Q 1706 2756 1559 2756 
Q 1284 2756 1069 2509 
Q 784 2184 784 1559 
Q 784 928 1059 592 
Q 1334 256 1672 256 
Q 1956 256 2222 541 
z
" transform="scale(0.015625)"/>
      <path id="TimesNewRomanPSMT-6e" d="M 1034 2341 
Q 1538 2947 1994 2947 
Q 2228 2947 2397 2830 
Q 2566 2713 2666 2444 
Q 2734 2256 2734 1869 
L 2734 647 
Q 2734 375 2778 278 
Q 2813 200 2889 156 
Q 2966 113 3172 113 
L 3172 0 
L 1756 0 
L 1756 113 
L 1816 113 
Q 2016 113 2095 173 
Q 2175 234 2206 353 
Q 2219 400 2219 647 
L 2219 1819 
Q 2219 2209 2117 2386 
Q 2016 2563 1775 2563 
Q 1403 2563 1034 2156 
L 1034 647 
Q 1034 356 1069 288 
Q 1113 197 1189 155 
Q 1266 113 1500 113 
L 1500 0 
L 84 0 
L 84 113 
L 147 113 
Q 366 113 442 223 
Q 519 334 519 647 
L 519 1709 
Q 519 2225 495 2337 
Q 472 2450 423 2490 
Q 375 2531 294 2531 
Q 206 2531 84 2484 
L 38 2597 
L 900 2947 
L 1034 2947 
L 1034 2341 
z
" transform="scale(0.015625)"/>
      <path id="TimesNewRomanPSMT-63" d="M 2631 1088 
Q 2516 522 2178 217 
Q 1841 -88 1431 -88 
Q 944 -88 581 321 
Q 219 731 219 1428 
Q 219 2103 620 2525 
Q 1022 2947 1584 2947 
Q 2006 2947 2278 2723 
Q 2550 2500 2550 2259 
Q 2550 2141 2473 2067 
Q 2397 1994 2259 1994 
Q 2075 1994 1981 2113 
Q 1928 2178 1911 2362 
Q 1894 2547 1784 2644 
Q 1675 2738 1481 2738 
Q 1169 2738 978 2506 
Q 725 2200 725 1697 
Q 725 1184 976 792 
Q 1228 400 1656 400 
Q 1963 400 2206 609 
Q 2378 753 2541 1131 
L 2631 1088 
z
" transform="scale(0.015625)"/>
     </defs>
     <use xlink:href="#TimesNewRomanPSMT-4c"/>
     <use xlink:href="#TimesNewRomanPSMT-75" transform="translate(61.083984 0)"/>
     <use xlink:href="#TimesNewRomanPSMT-78" transform="translate(111.083984 0)"/>
     <use xlink:href="#TimesNewRomanPSMT-75" transform="translate(161.083984 0)"/>
     <use xlink:href="#TimesNewRomanPSMT-72" transform="translate(211.083984 0)"/>
     <use xlink:href="#TimesNewRomanPSMT-79" transform="translate(244.384766 0)"/>
     <use xlink:href="#TimesNewRomanPSMT-20" transform="translate(294.384766 0)"/>
     <use xlink:href="#TimesNewRomanPSMT-52" transform="translate(319.384766 0)"/>
     <use xlink:href="#TimesNewRomanPSMT-65" transform="translate(386.083984 0)"/>
     <use xlink:href="#TimesNewRomanPSMT-73" transform="translate(430.46875 0)"/>
     <use xlink:href="#TimesNewRomanPSMT-69" transform="translate(469.384766 0)"/>
     <use xlink:href="#TimesNewRomanPSMT-64" transform="translate(497.167969 0)"/>
     <use xlink:href="#TimesNewRomanPSMT-65" transform="translate(547.167969 0)"/>
     <use xlink:href="#TimesNewRomanPSMT-6e" transform="translate(591.552734 0)"/>
     <use xlink:href="#TimesNewRomanPSMT-63" transform="translate(641.552734 0)"/>
     <use xlink:href="#TimesNewRomanPSMT-65" transform="translate(685.9375 0)"/>
     <use xlink:href="#TimesNewRomanPSMT-73" transform="translate(730.322266 0)"/>
    </g>
   </g>
  </g>
  <g id="axes_3">
   <g id="patch_6">
    <path d="M 201.049305 170.44 
L 726.965305 170.44 
L 726.965305 95.78 
L 201.049305 95.78 
L 201.049305 170.44 
z
" style="fill: none; opacity: 0"/>
   </g>
   <g id="FillBetweenPolyCollection_3">
    <defs>
     <path id="m095706e653" d="M 201.049305 -59.092354 
L 201.049305 -41.815313 
L 203.692099 -41.815313 
L 206.334893 -41.815313 
L 208.977687 -41.815313 
L 211.620481 -41.815313 
L 214.263275 -41.815313 
L 216.906069 -41.815313 
L 219.548863 -41.815313 
L 222.191657 -41.815313 
L 224.834451 -41.815313 
L 227.477245 -41.815313 
L 230.120039 -41.815313 
L 232.762833 -41.815313 
L 235.405627 -41.815313 
L 238.048421 -41.815313 
L 240.691215 -41.815313 
L 243.334009 -41.815313 
L 245.976802 -41.815313 
L 248.619596 -41.815313 
L 251.26239 -41.815313 
L 253.905184 -41.815313 
L 256.547978 -41.815313 
L 259.190772 -41.815313 
L 261.833566 -41.815313 
L 264.47636 -41.815313 
L 267.119154 -41.815313 
L 269.761948 -41.815313 
L 272.404742 -41.815313 
L 275.047536 -41.815313 
L 277.69033 -41.815313 
L 280.333124 -41.815313 
L 282.975918 -41.815313 
L 285.618712 -41.815313 
L 288.261506 -41.815313 
L 290.9043 -41.815313 
L 293.547094 -41.815313 
L 296.189888 -41.815313 
L 298.832682 -41.815313 
L 301.475476 -41.815313 
L 304.11827 -41.815313 
L 306.761064 -41.815313 
L 309.403858 -41.815313 
L 312.046652 -41.815313 
L 314.689446 -41.815313 
L 317.33224 -41.815313 
L 319.975034 -41.815313 
L 322.617828 -41.815313 
L 325.260622 -41.815313 
L 327.903416 -41.815313 
L 330.54621 -41.815313 
L 333.189003 -41.815313 
L 335.831797 -41.815313 
L 338.474591 -41.815313 
L 341.117385 -41.815313 
L 343.760179 -41.815313 
L 346.402973 -41.815313 
L 349.045767 -41.815313 
L 351.688561 -41.815313 
L 354.331355 -41.815313 
L 356.974149 -41.815313 
L 359.616943 -41.815313 
L 362.259737 -41.815313 
L 364.902531 -41.815313 
L 367.545325 -41.815313 
L 370.188119 -41.815313 
L 372.830913 -41.815313 
L 375.473707 -41.815313 
L 378.116501 -41.815313 
L 380.759295 -41.815313 
L 383.402089 -41.815313 
L 386.044883 -41.815313 
L 388.687677 -41.815313 
L 391.330471 -41.815313 
L 393.973265 -41.815313 
L 396.616059 -41.815313 
L 399.258853 -41.815313 
L 401.901647 -41.815313 
L 404.544441 -41.815313 
L 407.187235 -41.815313 
L 409.830029 -41.815313 
L 412.472823 -41.815313 
L 415.115617 -41.815313 
L 417.758411 -41.815313 
L 420.401204 -41.815313 
L 423.043998 -41.815313 
L 425.686792 -41.815313 
L 428.329586 -41.815313 
L 430.97238 -41.815313 
L 433.615174 -41.815313 
L 436.257968 -41.815313 
L 438.900762 -41.815313 
L 441.543556 -41.815313 
L 444.18635 -41.815313 
L 446.829144 -41.815313 
L 449.471938 -41.815313 
L 452.114732 -41.815313 
L 454.757526 -41.815313 
L 457.40032 -41.815313 
L 460.043114 -41.815313 
L 462.685908 -41.815313 
L 465.328702 -41.815313 
L 467.971496 -41.815313 
L 470.61429 -41.815313 
L 473.257084 -41.815313 
L 475.899878 -41.815313 
L 478.542672 -41.815313 
L 481.185466 -41.815313 
L 483.82826 -41.815313 
L 486.471054 -41.815313 
L 489.113848 -41.815313 
L 491.756642 -41.815313 
L 494.399436 -41.815313 
L 497.04223 -41.815313 
L 499.685024 -41.815313 
L 502.327818 -41.815313 
L 504.970612 -41.815313 
L 507.613406 -41.815313 
L 510.256199 -41.815313 
L 512.898993 -41.815313 
L 515.541787 -41.815313 
L 518.184581 -41.815313 
L 520.827375 -41.815313 
L 523.470169 -41.815313 
L 526.112963 -41.815313 
L 528.755757 -41.815313 
L 531.398551 -41.815313 
L 534.041345 -41.815313 
L 536.684139 -41.815313 
L 539.326933 -41.815313 
L 541.969727 -41.815313 
L 544.612521 -41.815313 
L 547.255315 -41.815313 
L 549.898109 -41.815313 
L 552.540903 -41.815313 
L 555.183697 -41.815313 
L 557.826491 -41.815313 
L 560.469285 -41.815313 
L 563.112079 -41.815313 
L 565.754873 -41.815313 
L 568.397667 -41.815313 
L 571.040461 -41.815313 
L 573.683255 -41.815313 
L 576.326049 -41.815313 
L 578.968843 -41.815313 
L 581.611637 -41.815313 
L 584.254431 -41.815313 
L 586.897225 -41.815313 
L 589.540019 -41.815313 
L 592.182813 -41.815313 
L 594.825607 -41.815313 
L 597.4684 -41.815313 
L 600.111194 -41.815313 
L 602.753988 -41.815313 
L 605.396782 -41.815313 
L 608.039576 -41.815313 
L 610.68237 -41.815313 
L 613.325164 -41.815313 
L 615.967958 -41.815313 
L 618.610752 -41.815313 
L 621.253546 -41.815313 
L 623.89634 -41.815313 
L 626.539134 -41.815313 
L 629.181928 -41.815313 
L 631.824722 -41.815313 
L 634.467516 -41.815313 
L 637.11031 -41.815313 
L 639.753104 -41.815313 
L 642.395898 -41.815313 
L 645.038692 -41.815313 
L 647.681486 -41.815313 
L 650.32428 -41.815313 
L 652.967074 -41.815313 
L 655.609868 -41.815313 
L 658.252662 -41.815313 
L 660.895456 -41.815313 
L 663.53825 -41.815313 
L 666.181044 -41.815313 
L 668.823838 -41.815313 
L 671.466632 -41.815313 
L 674.109426 -41.815313 
L 676.75222 -41.815313 
L 679.395014 -41.815313 
L 682.037808 -41.815313 
L 684.680601 -41.815313 
L 687.323395 -41.815313 
L 689.966189 -41.815313 
L 692.608983 -41.815313 
L 695.251777 -41.815313 
L 697.894571 -41.815313 
L 700.537365 -41.815313 
L 703.180159 -41.815313 
L 705.822953 -41.815313 
L 708.465747 -41.815313 
L 711.108541 -41.815313 
L 713.751335 -41.815313 
L 716.394129 -41.815313 
L 719.036923 -41.815313 
L 721.679717 -41.815313 
L 724.322511 -41.815313 
L 726.965305 -41.815313 
L 726.965305 -59.295581 
L 726.965305 -59.295581 
L 724.322511 -60.243726 
L 721.679717 -61.215326 
L 719.036923 -62.209182 
L 716.394129 -63.223984 
L 713.751335 -64.258307 
L 711.108541 -65.310611 
L 708.465747 -66.379242 
L 705.822953 -67.46243 
L 703.180159 -68.558287 
L 700.537365 -69.66481 
L 697.894571 -70.779875 
L 695.251777 -71.901242 
L 692.608983 -73.026554 
L 689.966189 -74.153336 
L 687.323395 -75.278998 
L 684.680601 -76.400841 
L 682.037808 -77.516055 
L 679.395014 -78.621728 
L 676.75222 -79.714856 
L 674.109426 -80.792345 
L 671.466632 -81.851028 
L 668.823838 -82.887675 
L 666.181044 -83.899008 
L 663.53825 -84.88172 
L 660.895456 -85.832494 
L 658.252662 -86.74802 
L 655.609868 -87.625028 
L 652.967074 -88.460302 
L 650.32428 -89.250714 
L 647.681486 -89.993252 
L 645.038692 -90.685043 
L 642.395898 -91.323387 
L 639.753104 -91.905782 
L 637.11031 -92.429956 
L 634.467516 -92.89389 
L 631.824722 -93.295849 
L 629.181928 -93.634397 
L 626.539134 -93.908426 
L 623.89634 -94.117168 
L 621.253546 -94.260211 
L 618.610752 -94.337512 
L 615.967958 -94.349396 
L 613.325164 -94.296568 
L 610.68237 -94.180101 
L 608.039576 -94.001437 
L 605.396782 -93.762372 
L 602.753988 -93.465041 
L 600.111194 -93.111901 
L 597.4684 -92.705707 
L 594.825607 -92.249486 
L 592.182813 -91.746512 
L 589.540019 -91.200269 
L 586.897225 -90.614423 
L 584.254431 -89.992789 
L 581.611637 -89.339293 
L 578.968843 -88.657939 
L 576.326049 -87.952777 
L 573.683255 -87.227865 
L 571.040461 -86.487241 
L 568.397667 -85.734892 
L 565.754873 -84.974723 
L 563.112079 -84.210533 
L 560.469285 -83.445993 
L 557.826491 -82.684622 
L 555.183697 -81.929769 
L 552.540903 -81.184603 
L 549.898109 -80.452096 
L 547.255315 -79.735014 
L 544.612521 -79.035913 
L 541.969727 -78.357133 
L 539.326933 -77.700798 
L 536.684139 -77.068819 
L 534.041345 -76.462892 
L 531.398551 -75.884508 
L 528.755757 -75.334962 
L 526.112963 -74.815357 
L 523.470169 -74.326617 
L 520.827375 -73.869502 
L 518.184581 -73.444617 
L 515.541787 -73.05243 
L 512.898993 -72.693284 
L 510.256199 -72.367418 
L 507.613406 -72.074979 
L 504.970612 -71.816041 
L 502.327818 -71.590622 
L 499.685024 -71.398704 
L 497.04223 -71.240246 
L 494.399436 -71.115202 
L 491.756642 -71.023538 
L 489.113848 -70.965248 
L 486.471054 -70.940364 
L 483.82826 -70.948972 
L 481.185466 -70.991218 
L 478.542672 -71.067322 
L 475.899878 -71.177579 
L 473.257084 -71.322364 
L 470.61429 -71.502132 
L 467.971496 -71.717416 
L 465.328702 -71.96882 
L 462.685908 -72.257012 
L 460.043114 -72.582708 
L 457.40032 -72.94666 
L 454.757526 -73.349634 
L 452.114732 -73.792394 
L 449.471938 -74.275673 
L 446.829144 -74.800147 
L 444.18635 -75.366412 
L 441.543556 -75.974952 
L 438.900762 -76.626108 
L 436.257968 -77.320055 
L 433.615174 -78.056766 
L 430.97238 -78.835991 
L 428.329586 -79.657228 
L 425.686792 -80.519704 
L 423.043998 -81.422356 
L 420.401204 -82.363811 
L 417.758411 -83.342383 
L 415.115617 -84.356061 
L 412.472823 -85.402511 
L 409.830029 -86.479077 
L 407.187235 -87.582793 
L 404.544441 -88.710396 
L 401.901647 -89.858341 
L 399.258853 -91.022828 
L 396.616059 -92.199826 
L 393.973265 -93.385103 
L 391.330471 -94.574258 
L 388.687677 -95.762755 
L 386.044883 -96.945958 
L 383.402089 -98.119165 
L 380.759295 -99.277645 
L 378.116501 -100.416672 
L 375.473707 -101.531555 
L 372.830913 -102.617669 
L 370.188119 -103.670484 
L 367.545325 -104.685588 
L 364.902531 -105.658706 
L 362.259737 -106.585725 
L 359.616943 -107.4627 
L 356.974149 -108.285875 
L 354.331355 -109.051684 
L 351.688561 -109.756765 
L 349.045767 -110.397963 
L 346.402973 -110.97233 
L 343.760179 -111.477137 
L 341.117385 -111.909869 
L 338.474591 -112.268231 
L 335.831797 -112.550153 
L 333.189003 -112.753797 
L 330.54621 -112.877557 
L 327.903416 -112.920074 
L 325.260622 -112.880242 
L 322.617828 -112.757218 
L 319.975034 -112.55044 
L 317.33224 -112.259634 
L 314.689446 -111.884832 
L 312.046652 -111.426384 
L 309.403858 -110.884975 
L 306.761064 -110.261632 
L 304.11827 -109.55774 
L 301.475476 -108.775046 
L 298.832682 -107.915665 
L 296.189888 -106.982081 
L 293.547094 -105.977147 
L 290.9043 -104.904069 
L 288.261506 -103.766402 
L 285.618712 -102.568025 
L 282.975918 -101.313123 
L 280.333124 -100.006156 
L 277.69033 -98.651825 
L 275.047536 -97.255039 
L 272.404742 -95.820872 
L 269.761948 -94.354518 
L 267.119154 -92.861248 
L 264.47636 -91.346361 
L 261.833566 -89.815135 
L 259.190772 -88.272784 
L 256.547978 -86.724407 
L 253.905184 -85.17495 
L 251.26239 -83.629158 
L 248.619596 -82.091547 
L 245.976802 -80.566362 
L 243.334009 -79.057557 
L 240.691215 -77.56877 
L 238.048421 -76.103306 
L 235.405627 -74.664123 
L 232.762833 -73.253833 
L 230.120039 -71.874697 
L 227.477245 -70.52863 
L 224.834451 -69.217214 
L 222.191657 -67.941709 
L 219.548863 -66.703073 
L 216.906069 -65.50198 
L 214.263275 -64.338849 
L 211.620481 -63.213862 
L 208.977687 -62.126997 
L 206.334893 -61.07805 
L 203.692099 -60.066664 
L 201.049305 -59.092354 
z
" style="stroke: #f4987a"/>
    </defs>
    <g clip-path="url(#pbd09a119ad)">
     <use xlink:href="#m095706e653" x="0" y="212.255313" style="fill: #f4987a; fill-opacity: 0.5; stroke: #f4987a"/>
    </g>
   </g>
   <g id="matplotlib.axis_5">
    <g id="xtick_13">
     <g id="line2d_17">
      <g>
       <use xlink:href="#mfc2ed099c8" x="201.049305" y="170.44" style="stroke: #000000; stroke-width: 0.8"/>
      </g>
     </g>
     <g id="text_3">
      <!-- 0.0 -->
      <g transform="translate(193.549305 185.7725) scale(0.12 -0.12)">
       <defs>
        <path id="TimesNewRomanPSMT-30" d="M 231 2094 
Q 231 2819 450 3342 
Q 669 3866 1031 4122 
Q 1313 4325 1613 4325 
Q 2100 4325 2488 3828 
Q 2972 3213 2972 2159 
Q 2972 1422 2759 906 
Q 2547 391 2217 158 
Q 1888 -75 1581 -75 
Q 975 -75 572 641 
Q 231 1244 231 2094 
z
M 844 2016 
Q 844 1141 1059 588 
Q 1238 122 1591 122 
Q 1759 122 1940 273 
Q 2122 425 2216 781 
Q 2359 1319 2359 2297 
Q 2359 3022 2209 3506 
Q 2097 3866 1919 4016 
Q 1791 4119 1609 4119 
Q 1397 4119 1231 3928 
Q 1006 3669 925 3112 
Q 844 2556 844 2016 
z
" transform="scale(0.015625)"/>
        <path id="TimesNewRomanPSMT-2e" d="M 800 606 
Q 947 606 1047 504 
Q 1147 403 1147 259 
Q 1147 116 1045 14 
Q 944 -88 800 -88 
Q 656 -88 554 14 
Q 453 116 453 259 
Q 453 406 554 506 
Q 656 606 800 606 
z
" transform="scale(0.015625)"/>
       </defs>
       <use xlink:href="#TimesNewRomanPSMT-30"/>
       <use xlink:href="#TimesNewRomanPSMT-2e" transform="translate(50 0)"/>
       <use xlink:href="#TimesNewRomanPSMT-30" transform="translate(75 0)"/>
      </g>
     </g>
    </g>
    <g id="xtick_14">
     <g id="line2d_18">
      <g>
       <use xlink:href="#mfc2ed099c8" x="306.232505" y="170.44" style="stroke: #000000; stroke-width: 0.8"/>
      </g>
     </g>
     <g id="text_4">
      <!-- 0.2 -->
      <g transform="translate(298.732505 185.7725) scale(0.12 -0.12)">
       <defs>
        <path id="TimesNewRomanPSMT-32" d="M 2934 816 
L 2638 0 
L 138 0 
L 138 116 
Q 1241 1122 1691 1759 
Q 2141 2397 2141 2925 
Q 2141 3328 1894 3587 
Q 1647 3847 1303 3847 
Q 991 3847 742 3664 
Q 494 3481 375 3128 
L 259 3128 
Q 338 3706 661 4015 
Q 984 4325 1469 4325 
Q 1984 4325 2329 3994 
Q 2675 3663 2675 3213 
Q 2675 2891 2525 2569 
Q 2294 2063 1775 1497 
Q 997 647 803 472 
L 1909 472 
Q 2247 472 2383 497 
Q 2519 522 2628 598 
Q 2738 675 2819 816 
L 2934 816 
z
" transform="scale(0.015625)"/>
       </defs>
       <use xlink:href="#TimesNewRomanPSMT-30"/>
       <use xlink:href="#TimesNewRomanPSMT-2e" transform="translate(50 0)"/>
       <use xlink:href="#TimesNewRomanPSMT-32" transform="translate(75 0)"/>
      </g>
     </g>
    </g>
    <g id="xtick_15">
     <g id="line2d_19">
      <g>
       <use xlink:href="#mfc2ed099c8" x="411.415705" y="170.44" style="stroke: #000000; stroke-width: 0.8"/>
      </g>
     </g>
     <g id="text_5">
      <!-- 0.4 -->
      <g transform="translate(403.915705 185.7725) scale(0.12 -0.12)">
       <defs>
        <path id="TimesNewRomanPSMT-34" d="M 2978 1563 
L 2978 1119 
L 2409 1119 
L 2409 0 
L 1894 0 
L 1894 1119 
L 100 1119 
L 100 1519 
L 2066 4325 
L 2409 4325 
L 2409 1563 
L 2978 1563 
z
M 1894 1563 
L 1894 3666 
L 406 1563 
L 1894 1563 
z
" transform="scale(0.015625)"/>
       </defs>
       <use xlink:href="#TimesNewRomanPSMT-30"/>
       <use xlink:href="#TimesNewRomanPSMT-2e" transform="translate(50 0)"/>
       <use xlink:href="#TimesNewRomanPSMT-34" transform="translate(75 0)"/>
      </g>
     </g>
    </g>
    <g id="xtick_16">
     <g id="line2d_20">
      <g>
       <use xlink:href="#mfc2ed099c8" x="516.598905" y="170.44" style="stroke: #000000; stroke-width: 0.8"/>
      </g>
     </g>
     <g id="text_6">
      <!-- 0.6 -->
      <g transform="translate(509.098905 185.7725) scale(0.12 -0.12)">
       <defs>
        <path id="TimesNewRomanPSMT-36" d="M 2869 4325 
L 2869 4209 
Q 2456 4169 2195 4045 
Q 1934 3922 1679 3669 
Q 1425 3416 1258 3105 
Q 1091 2794 978 2366 
Q 1428 2675 1881 2675 
Q 2316 2675 2634 2325 
Q 2953 1975 2953 1425 
Q 2953 894 2631 456 
Q 2244 -75 1606 -75 
Q 1172 -75 869 213 
Q 275 772 275 1663 
Q 275 2231 503 2743 
Q 731 3256 1154 3653 
Q 1578 4050 1965 4187 
Q 2353 4325 2688 4325 
L 2869 4325 
z
M 925 2138 
Q 869 1716 869 1456 
Q 869 1156 980 804 
Q 1091 453 1309 247 
Q 1469 100 1697 100 
Q 1969 100 2183 356 
Q 2397 613 2397 1088 
Q 2397 1622 2184 2012 
Q 1972 2403 1581 2403 
Q 1463 2403 1327 2353 
Q 1191 2303 925 2138 
z
" transform="scale(0.015625)"/>
       </defs>
       <use xlink:href="#TimesNewRomanPSMT-30"/>
       <use xlink:href="#TimesNewRomanPSMT-2e" transform="translate(50 0)"/>
       <use xlink:href="#TimesNewRomanPSMT-36" transform="translate(75 0)"/>
      </g>
     </g>
    </g>
    <g id="xtick_17">
     <g id="line2d_21">
      <g>
       <use xlink:href="#mfc2ed099c8" x="621.782105" y="170.44" style="stroke: #000000; stroke-width: 0.8"/>
      </g>
     </g>
     <g id="text_7">
      <!-- 0.8 -->
      <g transform="translate(614.282105 185.7725) scale(0.12 -0.12)">
       <defs>
        <path id="TimesNewRomanPSMT-38" d="M 1228 2134 
Q 725 2547 579 2797 
Q 434 3047 434 3316 
Q 434 3728 753 4026 
Q 1072 4325 1600 4325 
Q 2113 4325 2425 4047 
Q 2738 3769 2738 3413 
Q 2738 3175 2569 2928 
Q 2400 2681 1866 2347 
Q 2416 1922 2594 1678 
Q 2831 1359 2831 1006 
Q 2831 559 2490 242 
Q 2150 -75 1597 -75 
Q 994 -75 656 303 
Q 388 606 388 966 
Q 388 1247 577 1523 
Q 766 1800 1228 2134 
z
M 1719 2469 
Q 2094 2806 2194 3001 
Q 2294 3197 2294 3444 
Q 2294 3772 2109 3958 
Q 1925 4144 1606 4144 
Q 1288 4144 1088 3959 
Q 888 3775 888 3528 
Q 888 3366 970 3203 
Q 1053 3041 1206 2894 
L 1719 2469 
z
M 1375 2016 
Q 1116 1797 991 1539 
Q 866 1281 866 981 
Q 866 578 1086 336 
Q 1306 94 1647 94 
Q 1984 94 2187 284 
Q 2391 475 2391 747 
Q 2391 972 2272 1150 
Q 2050 1481 1375 2016 
z
" transform="scale(0.015625)"/>
       </defs>
       <use xlink:href="#TimesNewRomanPSMT-30"/>
       <use xlink:href="#TimesNewRomanPSMT-2e" transform="translate(50 0)"/>
       <use xlink:href="#TimesNewRomanPSMT-38" transform="translate(75 0)"/>
      </g>
     </g>
    </g>
    <g id="xtick_18">
     <g id="line2d_22">
      <g>
       <use xlink:href="#mfc2ed099c8" x="726.965305" y="170.44" style="stroke: #000000; stroke-width: 0.8"/>
      </g>
     </g>
     <g id="text_8">
      <!-- 1.0 -->
      <g transform="translate(719.465305 185.7725) scale(0.12 -0.12)">
       <defs>
        <path id="TimesNewRomanPSMT-31" d="M 750 3822 
L 1781 4325 
L 1884 4325 
L 1884 747 
Q 1884 391 1914 303 
Q 1944 216 2037 169 
Q 2131 122 2419 116 
L 2419 0 
L 825 0 
L 825 116 
Q 1125 122 1212 167 
Q 1300 213 1334 289 
Q 1369 366 1369 747 
L 1369 3034 
Q 1369 3497 1338 3628 
Q 1316 3728 1258 3775 
Q 1200 3822 1119 3822 
Q 1003 3822 797 3725 
L 750 3822 
z
" transform="scale(0.015625)"/>
       </defs>
       <use xlink:href="#TimesNewRomanPSMT-31"/>
       <use xlink:href="#TimesNewRomanPSMT-2e" transform="translate(50 0)"/>
       <use xlink:href="#TimesNewRomanPSMT-30" transform="translate(75 0)"/>
      </g>
     </g>
    </g>
    <g id="text_9">
     <!-- Value -->
     <g transform="translate(448.071367 202.060625) scale(0.14 -0.14)">
      <defs>
       <path id="TimesNewRomanPSMT-56" d="M 4544 4238 
L 4544 4122 
Q 4319 4081 4203 3978 
Q 4038 3825 3909 3509 
L 2431 -97 
L 2316 -97 
L 728 3556 
Q 606 3838 556 3900 
Q 478 3997 364 4051 
Q 250 4106 56 4122 
L 56 4238 
L 1788 4238 
L 1788 4122 
Q 1494 4094 1406 4022 
Q 1319 3950 1319 3838 
Q 1319 3681 1463 3350 
L 2541 866 
L 3541 3319 
Q 3688 3681 3688 3822 
Q 3688 3913 3597 3995 
Q 3506 4078 3291 4113 
Q 3275 4116 3238 4122 
L 3238 4238 
L 4544 4238 
z
" transform="scale(0.015625)"/>
      </defs>
      <use xlink:href="#TimesNewRomanPSMT-56"/>
      <use xlink:href="#TimesNewRomanPSMT-61" transform="translate(61.091797 0)"/>
      <use xlink:href="#TimesNewRomanPSMT-6c" transform="translate(105.476562 0)"/>
      <use xlink:href="#TimesNewRomanPSMT-75" transform="translate(133.259766 0)"/>
      <use xlink:href="#TimesNewRomanPSMT-65" transform="translate(183.259766 0)"/>
     </g>
    </g>
    <g id="text_10">
     <!-- 1e6 -->
     <g transform="translate(712.526242 198.283125) scale(0.1 -0.1)">
      <use xlink:href="#TimesNewRomanPSMT-31"/>
      <use xlink:href="#TimesNewRomanPSMT-65" transform="translate(50 0)"/>
      <use xlink:href="#TimesNewRomanPSMT-36" transform="translate(94.384766 0)"/>
     </g>
    </g>
   </g>
   <g id="matplotlib.axis_6"/>
   <g id="line2d_23">
    <path d="M 201.049305 153.162959 
L 208.977687 150.128315 
L 216.906069 146.753332 
L 224.834451 143.038098 
L 232.762833 139.001479 
L 240.691215 134.686542 
L 251.26239 128.626154 
L 269.761948 117.900794 
L 277.69033 113.603488 
L 282.975918 110.942189 
L 288.261506 108.488911 
L 293.547094 106.278166 
L 298.832682 104.339648 
L 304.11827 102.697573 
L 309.403858 101.370338 
L 314.689446 100.370481 
L 319.975034 99.704872 
L 325.260622 99.375071 
L 330.54621 99.377755 
L 335.831797 99.705159 
L 341.117385 100.345444 
L 346.402973 101.282982 
L 351.688561 102.498547 
L 356.974149 103.969438 
L 362.259737 105.669588 
L 367.545325 107.569725 
L 375.473707 110.723757 
L 383.402089 114.136148 
L 409.830029 125.776236 
L 417.758411 128.91293 
L 425.686792 131.735608 
L 430.97238 133.419322 
L 436.257968 134.935257 
L 441.543556 136.280361 
L 446.829144 137.455166 
L 452.114732 138.462918 
L 457.40032 139.308653 
L 462.685908 139.9983 
L 470.61429 140.753181 
L 478.542672 141.187991 
L 486.471054 141.314948 
L 494.399436 141.140111 
L 502.327818 140.66469 
L 510.256199 139.887894 
L 518.184581 138.810696 
L 526.112963 137.439956 
L 534.041345 135.792421 
L 541.969727 133.89818 
L 552.540903 131.070709 
L 581.611637 122.91602 
L 589.540019 121.055044 
L 594.825607 120.005826 
L 600.111194 119.143412 
L 605.396782 118.49294 
L 610.68237 118.075211 
L 615.967958 117.905916 
L 621.253546 117.995101 
L 626.539134 118.346886 
L 631.824722 118.959464 
L 637.11031 119.825357 
L 642.395898 120.931926 
L 647.681486 122.26206 
L 652.967074 123.795011 
L 658.252662 125.507292 
L 666.181044 128.356304 
L 674.109426 131.462967 
L 684.680601 135.854472 
L 708.465747 145.87607 
L 719.036923 150.04613 
L 726.965305 152.959731 
L 726.965305 152.959731 
" clip-path="url(#pbd09a119ad)" style="fill: none; stroke: #ffffff; stroke-width: 2; stroke-linecap: square"/>
   </g>
   <g id="line2d_24">
    <path d="M 201.049305 170.44 
L 726.965305 170.44 
" style="fill: none; stroke: #000000; stroke-linecap: square"/>
   </g>
   <g id="text_11">
    <g id="patch_7">
     <path d="M 3.24 179.849687 
L 149.788125 179.849687 
L 149.788125 161.030312 
L 3.24 161.030312 
z
" style="fill: #ffffff; opacity: 0.5"/>
    </g>
    <!-- Urban Redevelopment Areas -->
    <g transform="translate(7.2 173.322812) scale(0.12 -0.12)">
     <defs>
      <path id="TimesNewRomanPSMT-55" d="M 3053 4122 
L 3053 4238 
L 4553 4238 
L 4553 4122 
L 4394 4122 
Q 4144 4122 4009 3913 
Q 3944 3816 3944 3463 
L 3944 1744 
Q 3944 1106 3817 754 
Q 3691 403 3320 151 
Q 2950 -100 2313 -100 
Q 1619 -100 1259 140 
Q 900 381 750 788 
Q 650 1066 650 1831 
L 650 3488 
Q 650 3878 542 4000 
Q 434 4122 194 4122 
L 34 4122 
L 34 4238 
L 1866 4238 
L 1866 4122 
L 1703 4122 
Q 1441 4122 1328 3956 
Q 1250 3844 1250 3488 
L 1250 1641 
Q 1250 1394 1295 1075 
Q 1341 756 1459 578 
Q 1578 400 1801 284 
Q 2025 169 2350 169 
Q 2766 169 3094 350 
Q 3422 531 3542 814 
Q 3663 1097 3663 1772 
L 3663 3488 
Q 3663 3884 3575 3984 
Q 3453 4122 3213 4122 
L 3053 4122 
z
" transform="scale(0.015625)"/>
      <path id="TimesNewRomanPSMT-62" d="M 984 2369 
Q 1400 2947 1881 2947 
Q 2322 2947 2650 2570 
Q 2978 2194 2978 1541 
Q 2978 778 2472 313 
Q 2038 -88 1503 -88 
Q 1253 -88 995 3 
Q 738 94 469 275 
L 469 3241 
Q 469 3728 445 3840 
Q 422 3953 372 3993 
Q 322 4034 247 4034 
Q 159 4034 28 3984 
L -16 4094 
L 844 4444 
L 984 4444 
L 984 2369 
z
M 984 2169 
L 984 456 
Q 1144 300 1314 220 
Q 1484 141 1663 141 
Q 1947 141 2192 453 
Q 2438 766 2438 1363 
Q 2438 1913 2192 2208 
Q 1947 2503 1634 2503 
Q 1469 2503 1303 2419 
Q 1178 2356 984 2169 
z
" transform="scale(0.015625)"/>
      <path id="TimesNewRomanPSMT-76" d="M 53 2863 
L 1400 2863 
L 1400 2747 
L 1313 2747 
Q 1191 2747 1127 2687 
Q 1063 2628 1063 2528 
Q 1063 2419 1128 2269 
L 1794 688 
L 2463 2328 
Q 2534 2503 2534 2594 
Q 2534 2638 2509 2666 
Q 2475 2713 2422 2730 
Q 2369 2747 2206 2747 
L 2206 2863 
L 3141 2863 
L 3141 2747 
Q 2978 2734 2916 2681 
Q 2806 2588 2719 2369 
L 1703 -88 
L 1575 -88 
L 553 2328 
Q 484 2497 421 2570 
Q 359 2644 263 2694 
Q 209 2722 53 2747 
L 53 2863 
z
" transform="scale(0.015625)"/>
      <path id="TimesNewRomanPSMT-6d" d="M 1050 2338 
Q 1363 2650 1419 2697 
Q 1559 2816 1721 2881 
Q 1884 2947 2044 2947 
Q 2313 2947 2506 2790 
Q 2700 2634 2766 2338 
Q 3088 2713 3309 2830 
Q 3531 2947 3766 2947 
Q 3994 2947 4170 2830 
Q 4347 2713 4450 2447 
Q 4519 2266 4519 1878 
L 4519 647 
Q 4519 378 4559 278 
Q 4591 209 4675 161 
Q 4759 113 4950 113 
L 4950 0 
L 3538 0 
L 3538 113 
L 3597 113 
Q 3781 113 3884 184 
Q 3956 234 3988 344 
Q 4000 397 4000 647 
L 4000 1878 
Q 4000 2228 3916 2372 
Q 3794 2572 3525 2572 
Q 3359 2572 3192 2489 
Q 3025 2406 2788 2181 
L 2781 2147 
L 2788 2013 
L 2788 647 
Q 2788 353 2820 281 
Q 2853 209 2943 161 
Q 3034 113 3253 113 
L 3253 0 
L 1806 0 
L 1806 113 
Q 2044 113 2133 169 
Q 2222 225 2256 338 
Q 2272 391 2272 647 
L 2272 1878 
Q 2272 2228 2169 2381 
Q 2031 2581 1784 2581 
Q 1616 2581 1450 2491 
Q 1191 2353 1050 2181 
L 1050 647 
Q 1050 366 1089 281 
Q 1128 197 1204 155 
Q 1281 113 1516 113 
L 1516 0 
L 100 0 
L 100 113 
Q 297 113 375 155 
Q 453 197 493 289 
Q 534 381 534 647 
L 534 1741 
Q 534 2213 506 2350 
Q 484 2453 437 2492 
Q 391 2531 309 2531 
Q 222 2531 100 2484 
L 53 2597 
L 916 2947 
L 1050 2947 
L 1050 2338 
z
" transform="scale(0.015625)"/>
      <path id="TimesNewRomanPSMT-41" d="M 2928 1419 
L 1288 1419 
L 1000 750 
Q 894 503 894 381 
Q 894 284 986 211 
Q 1078 138 1384 116 
L 1384 0 
L 50 0 
L 50 116 
Q 316 163 394 238 
Q 553 388 747 847 
L 2238 4334 
L 2347 4334 
L 3822 809 
Q 4000 384 4145 257 
Q 4291 131 4550 116 
L 4550 0 
L 2878 0 
L 2878 116 
Q 3131 128 3220 200 
Q 3309 272 3309 375 
Q 3309 513 3184 809 
L 2928 1419 
z
M 2841 1650 
L 2122 3363 
L 1384 1650 
L 2841 1650 
z
" transform="scale(0.015625)"/>
     </defs>
     <use xlink:href="#TimesNewRomanPSMT-55"/>
     <use xlink:href="#TimesNewRomanPSMT-72" transform="translate(72.216797 0)"/>
     <use xlink:href="#TimesNewRomanPSMT-62" transform="translate(105.517578 0)"/>
     <use xlink:href="#TimesNewRomanPSMT-61" transform="translate(155.517578 0)"/>
     <use xlink:href="#TimesNewRomanPSMT-6e" transform="translate(199.902344 0)"/>
     <use xlink:href="#TimesNewRomanPSMT-20" transform="translate(249.902344 0)"/>
     <use xlink:href="#TimesNewRomanPSMT-52" transform="translate(274.902344 0)"/>
     <use xlink:href="#TimesNewRomanPSMT-65" transform="translate(341.601562 0)"/>
     <use xlink:href="#TimesNewRomanPSMT-64" transform="translate(385.986328 0)"/>
     <use xlink:href="#TimesNewRomanPSMT-65" transform="translate(435.986328 0)"/>
     <use xlink:href="#TimesNewRomanPSMT-76" transform="translate(480.371094 0)"/>
     <use xlink:href="#TimesNewRomanPSMT-65" transform="translate(530.371094 0)"/>
     <use xlink:href="#TimesNewRomanPSMT-6c" transform="translate(574.755859 0)"/>
     <use xlink:href="#TimesNewRomanPSMT-6f" transform="translate(602.539062 0)"/>
     <use xlink:href="#TimesNewRomanPSMT-70" transform="translate(652.539062 0)"/>
     <use xlink:href="#TimesNewRomanPSMT-6d" transform="translate(702.539062 0)"/>
     <use xlink:href="#TimesNewRomanPSMT-65" transform="translate(780.322266 0)"/>
     <use xlink:href="#TimesNewRomanPSMT-6e" transform="translate(824.707031 0)"/>
     <use xlink:href="#TimesNewRomanPSMT-74" transform="translate(874.707031 0)"/>
     <use xlink:href="#TimesNewRomanPSMT-20" transform="translate(902.490234 0)"/>
     <use xlink:href="#TimesNewRomanPSMT-41" transform="translate(921.990234 0)"/>
     <use xlink:href="#TimesNewRomanPSMT-72" transform="translate(994.207031 0)"/>
     <use xlink:href="#TimesNewRomanPSMT-65" transform="translate(1027.507812 0)"/>
     <use xlink:href="#TimesNewRomanPSMT-61" transform="translate(1071.892578 0)"/>
     <use xlink:href="#TimesNewRomanPSMT-73" transform="translate(1116.277344 0)"/>
    </g>
   </g>
  </g>
  <g id="text_12">
   <!-- Housing Price Fluctuation(USD/square foot) -->
   <g transform="translate(234.452805 18.31) scale(0.16 -0.16)">
    <defs>
     <path id="TimesNewRomanPSMT-48" d="M 1316 2272 
L 3284 2272 
L 3284 3484 
Q 3284 3809 3244 3913 
Q 3213 3991 3113 4047 
Q 2978 4122 2828 4122 
L 2678 4122 
L 2678 4238 
L 4491 4238 
L 4491 4122 
L 4341 4122 
Q 4191 4122 4056 4050 
Q 3956 4000 3920 3898 
Q 3884 3797 3884 3484 
L 3884 750 
Q 3884 428 3925 325 
Q 3956 247 4053 191 
Q 4191 116 4341 116 
L 4491 116 
L 4491 0 
L 2678 0 
L 2678 116 
L 2828 116 
Q 3088 116 3206 269 
Q 3284 369 3284 750 
L 3284 2041 
L 1316 2041 
L 1316 750 
Q 1316 428 1356 325 
Q 1388 247 1488 191 
Q 1622 116 1772 116 
L 1925 116 
L 1925 0 
L 109 0 
L 109 116 
L 259 116 
Q 522 116 641 269 
Q 716 369 716 750 
L 716 3484 
Q 716 3809 675 3913 
Q 644 3991 547 4047 
Q 409 4122 259 4122 
L 109 4122 
L 109 4238 
L 1925 4238 
L 1925 4122 
L 1772 4122 
Q 1622 4122 1488 4050 
Q 1391 4000 1353 3898 
Q 1316 3797 1316 3484 
L 1316 2272 
z
" transform="scale(0.015625)"/>
     <path id="TimesNewRomanPSMT-67" d="M 966 1044 
Q 703 1172 562 1401 
Q 422 1631 422 1909 
Q 422 2334 742 2640 
Q 1063 2947 1563 2947 
Q 1972 2947 2272 2747 
L 2878 2747 
Q 3013 2747 3034 2739 
Q 3056 2731 3066 2713 
Q 3084 2684 3084 2613 
Q 3084 2531 3069 2500 
Q 3059 2484 3036 2475 
Q 3013 2466 2878 2466 
L 2506 2466 
Q 2681 2241 2681 1891 
Q 2681 1491 2375 1206 
Q 2069 922 1553 922 
Q 1341 922 1119 984 
Q 981 866 932 777 
Q 884 688 884 625 
Q 884 572 936 522 
Q 988 472 1138 450 
Q 1225 438 1575 428 
Q 2219 413 2409 384 
Q 2700 344 2873 169 
Q 3047 -6 3047 -263 
Q 3047 -616 2716 -925 
Q 2228 -1381 1444 -1381 
Q 841 -1381 425 -1109 
Q 191 -953 191 -784 
Q 191 -709 225 -634 
Q 278 -519 444 -313 
Q 466 -284 763 25 
Q 600 122 533 198 
Q 466 275 466 372 
Q 466 481 555 628 
Q 644 775 966 1044 
z
M 1509 2797 
Q 1278 2797 1122 2612 
Q 966 2428 966 2047 
Q 966 1553 1178 1281 
Q 1341 1075 1591 1075 
Q 1828 1075 1981 1253 
Q 2134 1431 2134 1813 
Q 2134 2309 1919 2591 
Q 1759 2797 1509 2797 
z
M 934 0 
Q 788 -159 713 -296 
Q 638 -434 638 -550 
Q 638 -700 819 -813 
Q 1131 -1006 1722 -1006 
Q 2284 -1006 2551 -807 
Q 2819 -609 2819 -384 
Q 2819 -222 2659 -153 
Q 2497 -84 2016 -72 
Q 1313 -53 934 0 
z
" transform="scale(0.015625)"/>
     <path id="TimesNewRomanPSMT-46" d="M 1309 4006 
L 1309 2341 
L 2081 2341 
Q 2347 2341 2470 2458 
Q 2594 2575 2634 2922 
L 2750 2922 
L 2750 1488 
L 2634 1488 
Q 2631 1734 2570 1850 
Q 2509 1966 2401 2023 
Q 2294 2081 2081 2081 
L 1309 2081 
L 1309 750 
Q 1309 428 1350 325 
Q 1381 247 1481 191 
Q 1619 116 1769 116 
L 1922 116 
L 1922 0 
L 103 0 
L 103 116 
L 253 116 
Q 516 116 634 269 
Q 709 369 709 750 
L 709 3488 
Q 709 3809 669 3913 
Q 638 3991 541 4047 
Q 406 4122 253 4122 
L 103 4122 
L 103 4238 
L 3256 4238 
L 3297 3306 
L 3188 3306 
Q 3106 3603 2998 3742 
Q 2891 3881 2733 3943 
Q 2575 4006 2244 4006 
L 1309 4006 
z
" transform="scale(0.015625)"/>
     <path id="TimesNewRomanPSMT-28" d="M 1988 -1253 
L 1988 -1369 
Q 1516 -1131 1200 -813 
Q 750 -359 506 256 
Q 263 872 263 1534 
Q 263 2503 741 3301 
Q 1219 4100 1988 4444 
L 1988 4313 
Q 1603 4100 1356 3731 
Q 1109 3363 987 2797 
Q 866 2231 866 1616 
Q 866 947 969 400 
Q 1050 -31 1165 -292 
Q 1281 -553 1476 -793 
Q 1672 -1034 1988 -1253 
z
" transform="scale(0.015625)"/>
     <path id="TimesNewRomanPSMT-53" d="M 2934 4334 
L 2934 2869 
L 2819 2869 
Q 2763 3291 2617 3541 
Q 2472 3791 2203 3937 
Q 1934 4084 1647 4084 
Q 1322 4084 1109 3886 
Q 897 3688 897 3434 
Q 897 3241 1031 3081 
Q 1225 2847 1953 2456 
Q 2547 2138 2764 1967 
Q 2981 1797 3098 1565 
Q 3216 1334 3216 1081 
Q 3216 600 2842 251 
Q 2469 -97 1881 -97 
Q 1697 -97 1534 -69 
Q 1438 -53 1133 45 
Q 828 144 747 144 
Q 669 144 623 97 
Q 578 50 556 -97 
L 441 -97 
L 441 1356 
L 556 1356 
Q 638 900 775 673 
Q 913 447 1195 297 
Q 1478 147 1816 147 
Q 2206 147 2432 353 
Q 2659 559 2659 841 
Q 2659 997 2573 1156 
Q 2488 1316 2306 1453 
Q 2184 1547 1640 1851 
Q 1097 2156 867 2337 
Q 638 2519 519 2737 
Q 400 2956 400 3219 
Q 400 3675 750 4004 
Q 1100 4334 1641 4334 
Q 1978 4334 2356 4169 
Q 2531 4091 2603 4091 
Q 2684 4091 2736 4139 
Q 2788 4188 2819 4334 
L 2934 4334 
z
" transform="scale(0.015625)"/>
     <path id="TimesNewRomanPSMT-44" d="M 109 0 
L 109 116 
L 269 116 
Q 538 116 650 288 
Q 719 391 719 750 
L 719 3488 
Q 719 3884 631 3984 
Q 509 4122 269 4122 
L 109 4122 
L 109 4238 
L 1834 4238 
Q 2784 4238 3279 4022 
Q 3775 3806 4076 3303 
Q 4378 2800 4378 2141 
Q 4378 1256 3841 663 
Q 3238 0 2003 0 
L 109 0 
z
M 1319 306 
Q 1716 219 1984 219 
Q 2709 219 3187 728 
Q 3666 1238 3666 2109 
Q 3666 2988 3187 3494 
Q 2709 4000 1959 4000 
Q 1678 4000 1319 3909 
L 1319 306 
z
" transform="scale(0.015625)"/>
     <path id="TimesNewRomanPSMT-2f" d="M 1794 4444 
L 259 -88 
L 9 -88 
L 1544 4444 
L 1794 4444 
z
" transform="scale(0.015625)"/>
     <path id="TimesNewRomanPSMT-71" d="M 2734 2947 
L 2734 -734 
Q 2734 -1009 2771 -1087 
Q 2809 -1166 2889 -1209 
Q 2969 -1253 3200 -1253 
L 3200 -1369 
L 1756 -1369 
L 1756 -1253 
L 1816 -1253 
Q 1991 -1253 2081 -1203 
Q 2144 -1169 2181 -1080 
Q 2219 -991 2219 -734 
L 2219 497 
Q 1934 159 1721 35 
Q 1509 -88 1281 -88 
Q 866 -88 539 290 
Q 213 669 213 1303 
Q 213 2031 644 2489 
Q 1075 2947 1684 2947 
Q 1863 2947 2013 2897 
Q 2163 2847 2281 2747 
Q 2463 2834 2628 2947 
L 2734 2947 
z
M 2219 694 
L 2219 2038 
Q 2219 2272 2158 2406 
Q 2097 2541 1940 2634 
Q 1784 2728 1588 2728 
Q 1238 2728 988 2431 
Q 738 2134 738 1531 
Q 738 953 992 653 
Q 1247 353 1606 353 
Q 1791 353 1934 433 
Q 2078 513 2219 694 
z
" transform="scale(0.015625)"/>
     <path id="TimesNewRomanPSMT-66" d="M 1319 2638 
L 1319 756 
Q 1319 356 1406 250 
Q 1522 113 1716 113 
L 1975 113 
L 1975 0 
L 266 0 
L 266 113 
L 394 113 
Q 519 113 622 175 
Q 725 238 764 344 
Q 803 450 803 756 
L 803 2638 
L 247 2638 
L 247 2863 
L 803 2863 
L 803 3050 
Q 803 3478 940 3775 
Q 1078 4072 1361 4255 
Q 1644 4438 1997 4438 
Q 2325 4438 2600 4225 
Q 2781 4084 2781 3909 
Q 2781 3816 2700 3733 
Q 2619 3650 2525 3650 
Q 2453 3650 2373 3701 
Q 2294 3753 2178 3923 
Q 2063 4094 1966 4153 
Q 1869 4213 1750 4213 
Q 1606 4213 1506 4136 
Q 1406 4059 1362 3898 
Q 1319 3738 1319 3069 
L 1319 2863 
L 2056 2863 
L 2056 2638 
L 1319 2638 
z
" transform="scale(0.015625)"/>
     <path id="TimesNewRomanPSMT-29" d="M 144 4313 
L 144 4444 
Q 619 4209 934 3891 
Q 1381 3434 1625 2820 
Q 1869 2206 1869 1541 
Q 1869 572 1392 -226 
Q 916 -1025 144 -1369 
L 144 -1253 
Q 528 -1038 776 -670 
Q 1025 -303 1145 264 
Q 1266 831 1266 1447 
Q 1266 2113 1163 2663 
Q 1084 3094 967 3353 
Q 850 3613 656 3853 
Q 463 4094 144 4313 
z
" transform="scale(0.015625)"/>
    </defs>
    <use xlink:href="#TimesNewRomanPSMT-48"/>
    <use xlink:href="#TimesNewRomanPSMT-6f" transform="translate(72.216797 0)"/>
    <use xlink:href="#TimesNewRomanPSMT-75" transform="translate(122.216797 0)"/>
    <use xlink:href="#TimesNewRomanPSMT-73" transform="translate(172.216797 0)"/>
    <use xlink:href="#TimesNewRomanPSMT-69" transform="translate(211.132812 0)"/>
    <use xlink:href="#TimesNewRomanPSMT-6e" transform="translate(238.916016 0)"/>
    <use xlink:href="#TimesNewRomanPSMT-67" transform="translate(288.916016 0)"/>
    <use xlink:href="#TimesNewRomanPSMT-20" transform="translate(338.916016 0)"/>
    <use xlink:href="#TimesNewRomanPSMT-50" transform="translate(363.916016 0)"/>
    <use xlink:href="#TimesNewRomanPSMT-72" transform="translate(419.53125 0)"/>
    <use xlink:href="#TimesNewRomanPSMT-69" transform="translate(452.832031 0)"/>
    <use xlink:href="#TimesNewRomanPSMT-63" transform="translate(480.615234 0)"/>
    <use xlink:href="#TimesNewRomanPSMT-65" transform="translate(525 0)"/>
    <use xlink:href="#TimesNewRomanPSMT-20" transform="translate(569.384766 0)"/>
    <use xlink:href="#TimesNewRomanPSMT-46" transform="translate(594.384766 0)"/>
    <use xlink:href="#TimesNewRomanPSMT-6c" transform="translate(650 0)"/>
    <use xlink:href="#TimesNewRomanPSMT-75" transform="translate(677.783203 0)"/>
    <use xlink:href="#TimesNewRomanPSMT-63" transform="translate(727.783203 0)"/>
    <use xlink:href="#TimesNewRomanPSMT-74" transform="translate(772.167969 0)"/>
    <use xlink:href="#TimesNewRomanPSMT-75" transform="translate(799.951172 0)"/>
    <use xlink:href="#TimesNewRomanPSMT-61" transform="translate(849.951172 0)"/>
    <use xlink:href="#TimesNewRomanPSMT-74" transform="translate(894.335938 0)"/>
    <use xlink:href="#TimesNewRomanPSMT-69" transform="translate(922.119141 0)"/>
    <use xlink:href="#TimesNewRomanPSMT-6f" transform="translate(949.902344 0)"/>
    <use xlink:href="#TimesNewRomanPSMT-6e" transform="translate(999.902344 0)"/>
    <use xlink:href="#TimesNewRomanPSMT-28" transform="translate(1049.902344 0)"/>
    <use xlink:href="#TimesNewRomanPSMT-55" transform="translate(1083.203125 0)"/>
    <use xlink:href="#TimesNewRomanPSMT-53" transform="translate(1155.419922 0)"/>
    <use xlink:href="#TimesNewRomanPSMT-44" transform="translate(1211.035156 0)"/>
    <use xlink:href="#TimesNewRomanPSMT-2f" transform="translate(1283.251953 0)"/>
    <use xlink:href="#TimesNewRomanPSMT-73" transform="translate(1311.035156 0)"/>
    <use xlink:href="#TimesNewRomanPSMT-71" transform="translate(1349.951172 0)"/>
    <use xlink:href="#TimesNewRomanPSMT-75" transform="translate(1399.951172 0)"/>
    <use xlink:href="#TimesNewRomanPSMT-61" transform="translate(1449.951172 0)"/>
    <use xlink:href="#TimesNewRomanPSMT-72" transform="translate(1494.335938 0)"/>
    <use xlink:href="#TimesNewRomanPSMT-65" transform="translate(1527.636719 0)"/>
    <use xlink:href="#TimesNewRomanPSMT-20" transform="translate(1572.021484 0)"/>
    <use xlink:href="#TimesNewRomanPSMT-66" transform="translate(1597.021484 0)"/>
    <use xlink:href="#TimesNewRomanPSMT-6f" transform="translate(1630.322266 0)"/>
    <use xlink:href="#TimesNewRomanPSMT-6f" transform="translate(1680.322266 0)"/>
    <use xlink:href="#TimesNewRomanPSMT-74" transform="translate(1730.322266 0)"/>
    <use xlink:href="#TimesNewRomanPSMT-29" transform="translate(1758.105469 0)"/>
   </g>
  </g>
 </g>
 <defs>
  <clipPath id="p24bffe4d9a">
   <rect x="201.049305" y="21.12" width="525.916" height="74.66"/>
  </clipPath>
  <clipPath id="p7ec212a24e">
   <rect x="201.049305" y="58.45" width="525.916" height="74.66"/>
  </clipPath>
  <clipPath id="pbd09a119ad">
   <rect x="201.049305" y="95.78" width="525.916" height="74.66"/>
  </clipPath>
 </defs>
</svg>
