<?xml version="1.0" encoding="utf-8" standalone="no"?>
<!DOCTYPE svg PUBLIC "-//W3C//DTD SVG 1.1//EN"
  "http://www.w3.org/Graphics/SVG/1.1/DTD/svg11.dtd">
<svg xmlns:xlink="http://www.w3.org/1999/xlink" width="575.405427pt" height="363.785279pt" viewBox="0 0 575.405427 363.785279" xmlns="http://www.w3.org/2000/svg" version="1.1">
 <metadata>
  <rdf:RDF xmlns:dc="http://purl.org/dc/elements/1.1/" xmlns:cc="http://creativecommons.org/ns#" xmlns:rdf="http://www.w3.org/1999/02/22-rdf-syntax-ns#">
   <cc:Work>
    <dc:type rdf:resource="http://purl.org/dc/dcmitype/StillImage"/>
    <dc:date>2025-05-30T23:44:38.324143</dc:date>
    <dc:format>image/svg+xml</dc:format>
    <dc:creator>
     <cc:Agent>
      <dc:title>Matplotlib v3.10.3, https://matplotlib.org/</dc:title>
     </cc:Agent>
    </dc:creator>
   </cc:Work>
  </rdf:RDF>
 </metadata>
 <defs>
  <style type="text/css">*{stroke-linejoin: round; stroke-linecap: butt}</style>
 </defs>
 <g id="figure_1">
  <g id="patch_1">
   <path d="M 0 363.785279 
L 575.405427 363.785279 
L 575.405427 0 
L 0 0 
z
" style="fill: #ffffff"/>
  </g>
  <g id="axes_1">
   <g id="patch_2">
    <path d="M 10.091927 314.12125 
L 398.891927 314.12125 
L 398.891927 36.92125 
L 10.091927 36.92125 
z
" style="fill: #ffffff"/>
   </g>
   <g id="FillBetweenPolyCollection_1">
    <path d="M 27.764654 200.062606 
L 27.764654 223.550479 
L 29.540807 223.314042 
L 31.316961 223.159656 
L 33.093114 223.080213 
L 34.869268 223.068609 
L 36.645421 223.117738 
L 38.421575 223.220493 
L 40.197728 223.36977 
L 41.973882 223.558463 
L 43.750035 223.779466 
L 45.526189 224.025672 
L 47.302342 224.289977 
L 49.078496 224.565275 
L 50.854649 224.84446 
L 52.630803 225.120427 
L 54.406956 225.386069 
L 56.18311 225.63428 
L 57.959263 225.857956 
L 59.735417 226.049991 
L 61.51157 226.203278 
L 63.287724 226.310712 
L 65.063877 226.365189 
L 66.840031 226.363512 
L 68.616184 226.315853 
L 70.392338 226.235234 
L 72.168491 226.134678 
L 73.944645 226.027206 
L 75.720798 225.925842 
L 77.496952 225.843607 
L 79.273105 225.793525 
L 81.049259 225.788618 
L 82.825412 225.841908 
L 84.601566 225.965688 
L 86.377719 226.160369 
L 88.153873 226.416694 
L 89.930026 226.725126 
L 91.70618 227.076129 
L 93.482333 227.460164 
L 95.258487 227.867696 
L 97.03464 228.289186 
L 98.810794 228.715098 
L 100.586947 229.135895 
L 102.363101 229.542041 
L 104.139254 229.926167 
L 105.915408 230.28724 
L 107.691561 230.625377 
L 109.467715 230.940699 
L 111.243868 231.233324 
L 113.020022 231.503371 
L 114.796175 231.750961 
L 116.572329 231.976211 
L 118.348482 232.179241 
L 120.124636 232.36017 
L 121.900789 232.519504 
L 123.676943 232.662856 
L 125.453096 232.799462 
L 127.22925 232.938632 
L 129.005403 233.089676 
L 130.781557 233.261905 
L 132.55771 233.46463 
L 134.333864 233.707161 
L 136.110017 233.998809 
L 137.886171 234.348885 
L 139.662324 234.766681 
L 141.438478 235.25413 
L 143.214631 235.794672 
L 144.990785 236.368888 
L 146.766938 236.957359 
L 148.543092 237.540665 
L 150.319245 238.099387 
L 152.095399 238.614105 
L 153.871552 239.0654 
L 155.647706 239.433853 
L 157.423859 239.700044 
L 159.200013 239.846565 
L 160.976166 239.877941 
L 162.75232 239.812204 
L 164.528473 239.667582 
L 166.304627 239.462304 
L 168.08078 239.214597 
L 169.856934 238.94269 
L 171.633087 238.664811 
L 173.409241 238.399189 
L 175.185394 238.164051 
L 176.961547 237.9776 
L 178.737701 237.853092 
L 180.513854 237.793076 
L 182.290008 237.798697 
L 184.066161 237.871101 
L 185.842315 238.011435 
L 187.618468 238.220843 
L 189.394622 238.500473 
L 191.170775 238.851471 
L 192.946929 239.274982 
L 194.723082 239.772152 
L 196.499236 240.343223 
L 198.275389 240.980197 
L 200.051543 241.670682 
L 201.827696 242.402241 
L 203.60385 243.162442 
L 205.380003 243.938848 
L 207.156157 244.719025 
L 208.93231 245.490539 
L 210.708464 246.240955 
L 212.484617 246.957838 
L 214.260771 247.628777 
L 216.036924 248.243999 
L 217.813078 248.798664 
L 219.589231 249.288474 
L 221.365385 249.709135 
L 223.141538 250.056349 
L 224.917692 250.325819 
L 226.693845 250.51325 
L 228.469999 250.614344 
L 230.246152 250.624806 
L 232.022306 250.540338 
L 233.798459 250.359534 
L 235.574613 250.103075 
L 237.350766 249.801841 
L 239.12692 249.486765 
L 240.903073 249.188781 
L 242.679227 248.938822 
L 244.45538 248.767823 
L 246.231534 248.706715 
L 248.007687 248.786434 
L 249.783841 249.037913 
L 251.559994 249.491714 
L 253.336148 250.153102 
L 255.112301 250.986239 
L 256.888455 251.951519 
L 258.664608 253.00934 
L 260.440762 254.120098 
L 262.216915 255.244189 
L 263.993069 256.342009 
L 265.769222 257.373955 
L 267.545376 258.300421 
L 269.321529 259.081806 
L 271.097683 259.685122 
L 272.873836 260.120189 
L 274.64999 260.413854 
L 276.426143 260.59301 
L 278.202297 260.684548 
L 279.97845 260.71536 
L 281.754604 260.712338 
L 283.530757 260.702374 
L 285.306911 260.71236 
L 287.083064 260.769188 
L 288.859218 260.899428 
L 290.635371 261.11443 
L 292.411525 261.404055 
L 294.187678 261.756544 
L 295.963832 262.160134 
L 297.739985 262.603064 
L 299.516139 263.073574 
L 301.292292 263.559902 
L 303.068446 264.050286 
L 304.844599 264.532966 
L 306.620753 264.99618 
L 308.396906 265.430485 
L 310.17306 265.839173 
L 311.949213 266.22989 
L 313.725367 266.610285 
L 315.50152 266.988008 
L 317.277674 267.370709 
L 319.053827 267.766036 
L 320.829981 268.181639 
L 322.606134 268.625168 
L 324.382288 269.104272 
L 326.158441 269.626416 
L 327.934595 270.192668 
L 329.710748 270.796241 
L 331.486902 271.429863 
L 333.263055 272.086265 
L 335.039209 272.758174 
L 336.815362 273.438319 
L 338.591516 274.119431 
L 340.367669 274.794237 
L 342.143823 275.455466 
L 343.919976 276.095848 
L 345.696129 276.709885 
L 347.472283 277.300388 
L 349.248436 277.878463 
L 351.02459 278.449784 
L 352.800743 279.000983 
L 354.576897 279.539191 
L 356.35305 280.083383 
L 358.129204 280.642777 
L 359.905357 281.215337 
L 361.681511 281.806303 
L 363.457664 282.42092 
L 365.233818 283.06443 
L 367.009971 283.742075 
L 368.786125 284.459099 
L 370.562278 285.220744 
L 372.338432 286.032252 
L 374.114585 286.898868 
L 375.890739 287.825833 
L 377.666892 288.818389 
L 379.443046 289.881781 
L 381.219199 291.02125 
L 381.219199 245.3863 
L 381.219199 245.3863 
L 379.443046 244.785973 
L 377.666892 244.163332 
L 375.890739 243.521171 
L 374.114585 242.862282 
L 372.338432 242.189459 
L 370.562278 241.505494 
L 368.786125 240.813181 
L 367.009971 240.115313 
L 365.233818 239.414683 
L 363.457664 238.714083 
L 361.681511 238.016308 
L 359.905357 237.324149 
L 358.129204 236.6404 
L 356.35305 235.967855 
L 354.576897 235.316586 
L 352.800743 234.685411 
L 351.02459 234.06339 
L 349.248436 233.451429 
L 347.472283 232.870932 
L 345.696129 232.324259 
L 343.919976 231.808341 
L 342.143823 231.324111 
L 340.367669 230.866149 
L 338.591516 230.427679 
L 336.815362 230.001925 
L 335.039209 229.582112 
L 333.263055 229.161464 
L 331.486902 228.733204 
L 329.710748 228.290558 
L 327.934595 227.826748 
L 326.158441 227.335 
L 324.382288 226.809035 
L 322.606134 226.250684 
L 320.829981 225.668374 
L 319.053827 225.070723 
L 317.277674 224.466349 
L 315.50152 223.863873 
L 313.725367 223.271912 
L 311.949213 222.699084 
L 310.17306 222.154009 
L 308.396906 221.645306 
L 306.620753 221.181589 
L 304.844599 220.76873 
L 303.068446 220.404559 
L 301.292292 220.085449 
L 299.516139 219.807769 
L 297.739985 219.567889 
L 295.963832 219.362181 
L 294.187678 219.187013 
L 292.411525 219.038758 
L 290.635371 218.913785 
L 288.859218 218.808464 
L 287.083064 218.718968 
L 285.306911 218.638841 
L 283.530757 218.559771 
L 281.754604 218.473401 
L 279.97845 218.371379 
L 278.202297 218.245351 
L 276.426143 218.086961 
L 274.64999 217.887858 
L 272.873836 217.639685 
L 271.097683 217.33409 
L 269.321529 216.962733 
L 267.545376 216.52322 
L 265.769222 216.028092 
L 263.993069 215.492201 
L 262.216915 214.930401 
L 260.440762 214.357543 
L 258.664608 213.788479 
L 256.888455 213.238062 
L 255.112301 212.721144 
L 253.336148 212.252576 
L 251.559994 211.847211 
L 249.783841 211.518723 
L 248.007687 211.267917 
L 246.231534 211.087679 
L 244.45538 210.970779 
L 242.679227 210.909985 
L 240.903073 210.898069 
L 239.12692 210.9278 
L 237.350766 210.991946 
L 235.574613 211.083279 
L 233.798459 211.194566 
L 232.022306 211.318573 
L 230.246152 211.446899 
L 228.469999 211.568623 
L 226.693845 211.672495 
L 224.917692 211.747266 
L 223.141538 211.781684 
L 221.365385 211.764501 
L 219.589231 211.684465 
L 217.813078 211.530327 
L 216.036924 211.290836 
L 214.260771 210.954743 
L 212.484617 210.512958 
L 210.708464 209.97605 
L 208.93231 209.365079 
L 207.156157 208.701207 
L 205.380003 208.005594 
L 203.60385 207.299398 
L 201.827696 206.60378 
L 200.051543 205.9399 
L 198.275389 205.328918 
L 196.499236 204.791994 
L 194.723082 204.350199 
L 192.946929 204.015081 
L 191.170775 203.780356 
L 189.394622 203.637776 
L 187.618468 203.579093 
L 185.842315 203.596062 
L 184.066161 203.680434 
L 182.290008 203.823963 
L 180.513854 204.018402 
L 178.737701 204.255503 
L 176.961547 204.52702 
L 175.185394 204.824506 
L 173.409241 205.137991 
L 171.633087 205.4568 
L 169.856934 205.770256 
L 168.08078 206.067681 
L 166.304627 206.338397 
L 164.528473 206.571727 
L 162.75232 206.756992 
L 160.976166 206.883515 
L 159.200013 206.940618 
L 157.423859 206.917739 
L 155.647706 206.812253 
L 153.871552 206.634425 
L 152.095399 206.395704 
L 150.319245 206.107537 
L 148.543092 205.781372 
L 146.766938 205.428656 
L 144.990785 205.060837 
L 143.214631 204.689363 
L 141.438478 204.325682 
L 139.662324 203.98124 
L 137.886171 203.666149 
L 136.110017 203.381878 
L 134.333864 203.126458 
L 132.55771 202.897908 
L 130.781557 202.694251 
L 129.005403 202.513508 
L 127.22925 202.353701 
L 125.453096 202.212849 
L 123.676943 202.088976 
L 121.900789 201.980101 
L 120.124636 201.884232 
L 118.348482 201.79869 
L 116.572329 201.719827 
L 114.796175 201.643924 
L 113.020022 201.56726 
L 111.243868 201.486114 
L 109.467715 201.396767 
L 107.691561 201.295499 
L 105.915408 201.178588 
L 104.139254 201.042314 
L 102.363101 200.882958 
L 100.586947 200.6983 
L 98.810794 200.494376 
L 97.03464 200.28004 
L 95.258487 200.06415 
L 93.482333 199.855564 
L 91.70618 199.66314 
L 89.930026 199.495735 
L 88.153873 199.362207 
L 86.377719 199.271414 
L 84.601566 199.232213 
L 82.825412 199.253192 
L 81.049259 199.333588 
L 79.273105 199.461152 
L 77.496952 199.622929 
L 75.720798 199.805963 
L 73.944645 199.997297 
L 72.168491 200.183978 
L 70.392338 200.353048 
L 68.616184 200.491553 
L 66.840031 200.586537 
L 65.063877 200.625044 
L 63.287724 200.597322 
L 61.51157 200.508622 
L 59.735417 200.368586 
L 57.959263 200.186857 
L 56.18311 199.973079 
L 54.406956 199.736895 
L 52.630803 199.487947 
L 50.854649 199.235879 
L 49.078496 198.990333 
L 47.302342 198.760953 
L 45.526189 198.557381 
L 43.750035 198.389262 
L 41.973882 198.266236 
L 40.197728 198.197949 
L 38.421575 198.194042 
L 36.645421 198.264159 
L 34.869268 198.417943 
L 33.093114 198.665036 
L 31.316961 199.015083 
L 29.540807 199.477725 
L 27.764654 200.062606 
z
" clip-path="url(#p07c0c662cb)" style="fill: #1f77b4"/>
   </g>
   <g id="FillBetweenPolyCollection_2">
    <path d="M 27.764654 175.808563 
L 27.764654 200.062606 
L 29.540807 199.477725 
L 31.316961 199.015083 
L 33.093114 198.665036 
L 34.869268 198.417943 
L 36.645421 198.264159 
L 38.421575 198.194042 
L 40.197728 198.197949 
L 41.973882 198.266236 
L 43.750035 198.389262 
L 45.526189 198.557381 
L 47.302342 198.760953 
L 49.078496 198.990333 
L 50.854649 199.235879 
L 52.630803 199.487947 
L 54.406956 199.736895 
L 56.18311 199.973079 
L 57.959263 200.186857 
L 59.735417 200.368586 
L 61.51157 200.508622 
L 63.287724 200.597322 
L 65.063877 200.625044 
L 66.840031 200.586537 
L 68.616184 200.491553 
L 70.392338 200.353048 
L 72.168491 200.183978 
L 73.944645 199.997297 
L 75.720798 199.805963 
L 77.496952 199.622929 
L 79.273105 199.461152 
L 81.049259 199.333588 
L 82.825412 199.253192 
L 84.601566 199.232213 
L 86.377719 199.271414 
L 88.153873 199.362207 
L 89.930026 199.495735 
L 91.70618 199.66314 
L 93.482333 199.855564 
L 95.258487 200.06415 
L 97.03464 200.28004 
L 98.810794 200.494376 
L 100.586947 200.6983 
L 102.363101 200.882958 
L 104.139254 201.042314 
L 105.915408 201.178588 
L 107.691561 201.295499 
L 109.467715 201.396767 
L 111.243868 201.486114 
L 113.020022 201.56726 
L 114.796175 201.643924 
L 116.572329 201.719827 
L 118.348482 201.79869 
L 120.124636 201.884232 
L 121.900789 201.980101 
L 123.676943 202.088976 
L 125.453096 202.212849 
L 127.22925 202.353701 
L 129.005403 202.513508 
L 130.781557 202.694251 
L 132.55771 202.897908 
L 134.333864 203.126458 
L 136.110017 203.381878 
L 137.886171 203.666149 
L 139.662324 203.98124 
L 141.438478 204.325682 
L 143.214631 204.689363 
L 144.990785 205.060837 
L 146.766938 205.428656 
L 148.543092 205.781372 
L 150.319245 206.107537 
L 152.095399 206.395704 
L 153.871552 206.634425 
L 155.647706 206.812253 
L 157.423859 206.917739 
L 159.200013 206.940618 
L 160.976166 206.883515 
L 162.75232 206.756992 
L 164.528473 206.571727 
L 166.304627 206.338397 
L 168.08078 206.067681 
L 169.856934 205.770256 
L 171.633087 205.4568 
L 173.409241 205.137991 
L 175.185394 204.824506 
L 176.961547 204.52702 
L 178.737701 204.255503 
L 180.513854 204.018402 
L 182.290008 203.823963 
L 184.066161 203.680434 
L 185.842315 203.596062 
L 187.618468 203.579093 
L 189.394622 203.637776 
L 191.170775 203.780356 
L 192.946929 204.015081 
L 194.723082 204.350199 
L 196.499236 204.791994 
L 198.275389 205.328918 
L 200.051543 205.9399 
L 201.827696 206.60378 
L 203.60385 207.299398 
L 205.380003 208.005594 
L 207.156157 208.701207 
L 208.93231 209.365079 
L 210.708464 209.97605 
L 212.484617 210.512958 
L 214.260771 210.954743 
L 216.036924 211.290836 
L 217.813078 211.530327 
L 219.589231 211.684465 
L 221.365385 211.764501 
L 223.141538 211.781684 
L 224.917692 211.747266 
L 226.693845 211.672495 
L 228.469999 211.568623 
L 230.246152 211.446899 
L 232.022306 211.318573 
L 233.798459 211.194566 
L 235.574613 211.083279 
L 237.350766 210.991946 
L 239.12692 210.9278 
L 240.903073 210.898069 
L 242.679227 210.909985 
L 244.45538 210.970779 
L 246.231534 211.087679 
L 248.007687 211.267917 
L 249.783841 211.518723 
L 251.559994 211.847211 
L 253.336148 212.252576 
L 255.112301 212.721144 
L 256.888455 213.238062 
L 258.664608 213.788479 
L 260.440762 214.357543 
L 262.216915 214.930401 
L 263.993069 215.492201 
L 265.769222 216.028092 
L 267.545376 216.52322 
L 269.321529 216.962733 
L 271.097683 217.33409 
L 272.873836 217.639685 
L 274.64999 217.887858 
L 276.426143 218.086961 
L 278.202297 218.245351 
L 279.97845 218.371379 
L 281.754604 218.473401 
L 283.530757 218.559771 
L 285.306911 218.638841 
L 287.083064 218.718968 
L 288.859218 218.808464 
L 290.635371 218.913785 
L 292.411525 219.038758 
L 294.187678 219.187013 
L 295.963832 219.362181 
L 297.739985 219.567889 
L 299.516139 219.807769 
L 301.292292 220.085449 
L 303.068446 220.404559 
L 304.844599 220.76873 
L 306.620753 221.181589 
L 308.396906 221.645306 
L 310.17306 222.154009 
L 311.949213 222.699084 
L 313.725367 223.271912 
L 315.50152 223.863873 
L 317.277674 224.466349 
L 319.053827 225.070723 
L 320.829981 225.668374 
L 322.606134 226.250684 
L 324.382288 226.809035 
L 326.158441 227.335 
L 327.934595 227.826748 
L 329.710748 228.290558 
L 331.486902 228.733204 
L 333.263055 229.161464 
L 335.039209 229.582112 
L 336.815362 230.001925 
L 338.591516 230.427679 
L 340.367669 230.866149 
L 342.143823 231.324111 
L 343.919976 231.808341 
L 345.696129 232.324259 
L 347.472283 232.870932 
L 349.248436 233.451429 
L 351.02459 234.06339 
L 352.800743 234.685411 
L 354.576897 235.316586 
L 356.35305 235.967855 
L 358.129204 236.6404 
L 359.905357 237.324149 
L 361.681511 238.016308 
L 363.457664 238.714083 
L 365.233818 239.414683 
L 367.009971 240.115313 
L 368.786125 240.813181 
L 370.562278 241.505494 
L 372.338432 242.189459 
L 374.114585 242.862282 
L 375.890739 243.521171 
L 377.666892 244.163332 
L 379.443046 244.785973 
L 381.219199 245.3863 
L 381.219199 96.605827 
L 381.219199 96.605827 
L 379.443046 97.374103 
L 377.666892 98.147142 
L 375.890739 98.923841 
L 374.114585 99.7031 
L 372.338432 100.483816 
L 370.562278 101.264888 
L 368.786125 102.045214 
L 367.009971 102.823692 
L 365.233818 103.59922 
L 363.457664 104.370697 
L 361.681511 105.137022 
L 359.905357 105.897092 
L 358.129204 106.649805 
L 356.35305 107.39406 
L 354.576897 108.136036 
L 352.800743 108.870655 
L 351.02459 109.583083 
L 349.248436 110.27033 
L 347.472283 110.949906 
L 345.696129 111.620276 
L 343.919976 112.274477 
L 342.143823 112.911196 
L 340.367669 113.528405 
L 338.591516 114.123924 
L 336.815362 114.695571 
L 335.039209 115.241166 
L 333.263055 115.758527 
L 331.486902 116.245473 
L 329.710748 116.699825 
L 327.934595 117.1194 
L 326.158441 117.502017 
L 324.382288 117.845935 
L 322.606134 118.156559 
L 320.829981 118.445107 
L 319.053827 118.72297 
L 317.277674 119.001535 
L 315.50152 119.29219 
L 313.725367 119.606325 
L 311.949213 119.955328 
L 310.17306 120.350586 
L 308.396906 120.80349 
L 306.620753 121.325422 
L 304.844599 121.922089 
L 303.068446 122.582585 
L 301.292292 123.292983 
L 299.516139 124.039355 
L 297.739985 124.807773 
L 295.963832 125.584311 
L 294.187678 126.35504 
L 292.411525 127.106032 
L 290.635371 127.823361 
L 288.859218 128.493098 
L 287.083064 129.102113 
L 285.306911 129.647833 
L 283.530757 130.135161 
L 281.754604 130.569157 
L 279.97845 130.954884 
L 278.202297 131.297401 
L 276.426143 131.601772 
L 274.64999 131.873057 
L 272.873836 132.116317 
L 271.097683 132.336614 
L 269.321529 132.539011 
L 267.545376 132.729613 
L 265.769222 132.91714 
L 263.993069 133.110716 
L 262.216915 133.319466 
L 260.440762 133.552512 
L 258.664608 133.818979 
L 256.888455 134.127992 
L 255.112301 134.488675 
L 253.336148 134.910151 
L 251.559994 135.401545 
L 249.783841 135.970761 
L 248.007687 136.61238 
L 246.231534 137.312785 
L 244.45538 138.058238 
L 242.679227 138.835002 
L 240.903073 139.629338 
L 239.12692 140.42751 
L 237.350766 141.215778 
L 235.574613 141.980406 
L 233.798459 142.707656 
L 232.022306 143.383816 
L 230.246152 144.000092 
L 228.469999 144.558345 
L 226.693845 145.061826 
L 224.917692 145.51379 
L 223.141538 145.917488 
L 221.365385 146.276173 
L 219.589231 146.593099 
L 217.813078 146.871517 
L 216.036924 147.114682 
L 214.260771 147.325846 
L 212.484617 147.508481 
L 210.708464 147.668053 
L 208.93231 147.811093 
L 207.156157 147.94414 
L 205.380003 148.073735 
L 203.60385 148.206419 
L 201.827696 148.348732 
L 200.051543 148.507213 
L 198.275389 148.688405 
L 196.499236 148.898846 
L 194.723082 149.145048 
L 192.946929 149.430382 
L 191.170775 149.752338 
L 189.394622 150.107758 
L 187.618468 150.493485 
L 185.842315 150.906362 
L 184.066161 151.343231 
L 182.290008 151.800936 
L 180.513854 152.276319 
L 178.737701 152.766223 
L 176.961547 153.267491 
L 175.185394 153.776842 
L 173.409241 154.29005 
L 171.633087 154.802453 
L 169.856934 155.309387 
L 168.08078 155.806187 
L 166.304627 156.288188 
L 164.528473 156.750727 
L 162.75232 157.189138 
L 160.976166 157.598758 
L 159.200013 157.974922 
L 157.423859 158.313005 
L 155.647706 158.611108 
L 153.871552 158.871761 
L 152.095399 159.097899 
L 150.319245 159.292456 
L 148.543092 159.458368 
L 146.766938 159.598569 
L 144.990785 159.715993 
L 143.214631 159.813577 
L 141.438478 159.894255 
L 139.662324 159.960962 
L 137.886171 160.01698 
L 136.110017 160.067841 
L 134.333864 160.119971 
L 132.55771 160.179799 
L 130.781557 160.253753 
L 129.005403 160.348262 
L 127.22925 160.469754 
L 125.453096 160.624658 
L 123.676943 160.819402 
L 121.900789 161.060415 
L 120.124636 161.353995 
L 118.348482 161.700284 
L 116.572329 162.090732 
L 114.796175 162.516134 
L 113.020022 162.967282 
L 111.243868 163.434972 
L 109.467715 163.909996 
L 107.691561 164.383148 
L 105.915408 164.845223 
L 104.139254 165.287013 
L 102.363101 165.699313 
L 100.586947 166.074599 
L 98.810794 166.414598 
L 97.03464 166.724194 
L 95.258487 167.008279 
L 93.482333 167.271742 
L 91.70618 167.519471 
L 89.930026 167.756357 
L 88.153873 167.987289 
L 86.377719 168.217156 
L 84.601566 168.450849 
L 82.825412 168.69317 
L 81.049259 168.945983 
L 79.273105 169.207535 
L 77.496952 169.475853 
L 75.720798 169.748961 
L 73.944645 170.024885 
L 72.168491 170.301652 
L 70.392338 170.577285 
L 68.616184 170.849812 
L 66.840031 171.117258 
L 65.063877 171.377648 
L 63.287724 171.629386 
L 61.51157 171.872648 
L 59.735417 172.10813 
L 57.959263 172.336526 
L 56.18311 172.558531 
L 54.406956 172.774841 
L 52.630803 172.98615 
L 50.854649 173.193153 
L 49.078496 173.396545 
L 47.302342 173.597021 
L 45.526189 173.795276 
L 43.750035 173.992005 
L 41.973882 174.187903 
L 40.197728 174.383665 
L 38.421575 174.579985 
L 36.645421 174.77756 
L 34.869268 174.977083 
L 33.093114 175.17925 
L 31.316961 175.384756 
L 29.540807 175.594295 
L 27.764654 175.808563 
z
" clip-path="url(#p07c0c662cb)" style="fill: #aec7e8"/>
   </g>
   <g id="FillBetweenPolyCollection_3">
    <path d="M 27.764654 153.302345 
L 27.764654 175.808563 
L 29.540807 175.594295 
L 31.316961 175.384756 
L 33.093114 175.17925 
L 34.869268 174.977083 
L 36.645421 174.77756 
L 38.421575 174.579985 
L 40.197728 174.383665 
L 41.973882 174.187903 
L 43.750035 173.992005 
L 45.526189 173.795276 
L 47.302342 173.597021 
L 49.078496 173.396545 
L 50.854649 173.193153 
L 52.630803 172.98615 
L 54.406956 172.774841 
L 56.18311 172.558531 
L 57.959263 172.336526 
L 59.735417 172.10813 
L 61.51157 171.872648 
L 63.287724 171.629386 
L 65.063877 171.377648 
L 66.840031 171.117258 
L 68.616184 170.849812 
L 70.392338 170.577285 
L 72.168491 170.301652 
L 73.944645 170.024885 
L 75.720798 169.748961 
L 77.496952 169.475853 
L 79.273105 169.207535 
L 81.049259 168.945983 
L 82.825412 168.69317 
L 84.601566 168.450849 
L 86.377719 168.217156 
L 88.153873 167.987289 
L 89.930026 167.756357 
L 91.70618 167.519471 
L 93.482333 167.271742 
L 95.258487 167.008279 
L 97.03464 166.724194 
L 98.810794 166.414598 
L 100.586947 166.074599 
L 102.363101 165.699313 
L 104.139254 165.287013 
L 105.915408 164.845223 
L 107.691561 164.383148 
L 109.467715 163.909996 
L 111.243868 163.434972 
L 113.020022 162.967282 
L 114.796175 162.516134 
L 116.572329 162.090732 
L 118.348482 161.700284 
L 120.124636 161.353995 
L 121.900789 161.060415 
L 123.676943 160.819402 
L 125.453096 160.624658 
L 127.22925 160.469754 
L 129.005403 160.348262 
L 130.781557 160.253753 
L 132.55771 160.179799 
L 134.333864 160.119971 
L 136.110017 160.067841 
L 137.886171 160.01698 
L 139.662324 159.960962 
L 141.438478 159.894255 
L 143.214631 159.813577 
L 144.990785 159.715993 
L 146.766938 159.598569 
L 148.543092 159.458368 
L 150.319245 159.292456 
L 152.095399 159.097899 
L 153.871552 158.871761 
L 155.647706 158.611108 
L 157.423859 158.313005 
L 159.200013 157.974922 
L 160.976166 157.598758 
L 162.75232 157.189138 
L 164.528473 156.750727 
L 166.304627 156.288188 
L 168.08078 155.806187 
L 169.856934 155.309387 
L 171.633087 154.802453 
L 173.409241 154.29005 
L 175.185394 153.776842 
L 176.961547 153.267491 
L 178.737701 152.766223 
L 180.513854 152.276319 
L 182.290008 151.800936 
L 184.066161 151.343231 
L 185.842315 150.906362 
L 187.618468 150.493485 
L 189.394622 150.107758 
L 191.170775 149.752338 
L 192.946929 149.430382 
L 194.723082 149.145048 
L 196.499236 148.898846 
L 198.275389 148.688405 
L 200.051543 148.507213 
L 201.827696 148.348732 
L 203.60385 148.206419 
L 205.380003 148.073735 
L 207.156157 147.94414 
L 208.93231 147.811093 
L 210.708464 147.668053 
L 212.484617 147.508481 
L 214.260771 147.325846 
L 216.036924 147.114682 
L 217.813078 146.871517 
L 219.589231 146.593099 
L 221.365385 146.276173 
L 223.141538 145.917488 
L 224.917692 145.51379 
L 226.693845 145.061826 
L 228.469999 144.558345 
L 230.246152 144.000092 
L 232.022306 143.383816 
L 233.798459 142.707656 
L 235.574613 141.980406 
L 237.350766 141.215778 
L 239.12692 140.42751 
L 240.903073 139.629338 
L 242.679227 138.835002 
L 244.45538 138.058238 
L 246.231534 137.312785 
L 248.007687 136.61238 
L 249.783841 135.970761 
L 251.559994 135.401545 
L 253.336148 134.910151 
L 255.112301 134.488675 
L 256.888455 134.127992 
L 258.664608 133.818979 
L 260.440762 133.552512 
L 262.216915 133.319466 
L 263.993069 133.110716 
L 265.769222 132.91714 
L 267.545376 132.729613 
L 269.321529 132.539011 
L 271.097683 132.336614 
L 272.873836 132.116317 
L 274.64999 131.873057 
L 276.426143 131.601772 
L 278.202297 131.297401 
L 279.97845 130.954884 
L 281.754604 130.569157 
L 283.530757 130.135161 
L 285.306911 129.647833 
L 287.083064 129.102113 
L 288.859218 128.493098 
L 290.635371 127.823361 
L 292.411525 127.106032 
L 294.187678 126.35504 
L 295.963832 125.584311 
L 297.739985 124.807773 
L 299.516139 124.039355 
L 301.292292 123.292983 
L 303.068446 122.582585 
L 304.844599 121.922089 
L 306.620753 121.325422 
L 308.396906 120.80349 
L 310.17306 120.350586 
L 311.949213 119.955328 
L 313.725367 119.606325 
L 315.50152 119.29219 
L 317.277674 119.001535 
L 319.053827 118.72297 
L 320.829981 118.445107 
L 322.606134 118.156559 
L 324.382288 117.845935 
L 326.158441 117.502017 
L 327.934595 117.1194 
L 329.710748 116.699825 
L 331.486902 116.245473 
L 333.263055 115.758527 
L 335.039209 115.241166 
L 336.815362 114.695571 
L 338.591516 114.123924 
L 340.367669 113.528405 
L 342.143823 112.911196 
L 343.919976 112.274477 
L 345.696129 111.620276 
L 347.472283 110.949906 
L 349.248436 110.27033 
L 351.02459 109.583083 
L 352.800743 108.870655 
L 354.576897 108.136036 
L 356.35305 107.39406 
L 358.129204 106.649805 
L 359.905357 105.897092 
L 361.681511 105.137022 
L 363.457664 104.370697 
L 365.233818 103.59922 
L 367.009971 102.823692 
L 368.786125 102.045214 
L 370.562278 101.264888 
L 372.338432 100.483816 
L 374.114585 99.7031 
L 375.890739 98.923841 
L 377.666892 98.147142 
L 379.443046 97.374103 
L 381.219199 96.605827 
L 381.219199 96.366399 
L 381.219199 96.366399 
L 379.443046 97.015809 
L 377.666892 97.705736 
L 375.890739 98.431303 
L 374.114585 99.187635 
L 372.338432 99.969857 
L 370.562278 100.773092 
L 368.786125 101.592465 
L 367.009971 102.423099 
L 365.233818 103.26012 
L 363.457664 104.098652 
L 361.681511 104.933818 
L 359.905357 105.760744 
L 358.129204 106.574552 
L 356.35305 107.370369 
L 354.576897 108.136036 
L 352.800743 108.870655 
L 351.02459 109.583083 
L 349.248436 110.27033 
L 347.472283 110.908912 
L 345.696129 111.494383 
L 343.919976 112.027731 
L 342.143823 112.50628 
L 340.367669 112.934862 
L 338.591516 113.319913 
L 336.815362 113.667871 
L 335.039209 113.985171 
L 333.263055 114.27825 
L 331.486902 114.553544 
L 329.710748 114.81749 
L 327.934595 115.076523 
L 326.158441 115.337081 
L 324.382288 115.605527 
L 322.606134 115.887048 
L 320.829981 116.18587 
L 319.053827 116.506193 
L 317.277674 116.852217 
L 315.50152 117.228141 
L 313.725367 117.638165 
L 311.949213 118.086488 
L 310.17306 118.57731 
L 308.396906 119.11483 
L 306.620753 119.703244 
L 304.844599 120.342461 
L 303.068446 121.019842 
L 301.292292 121.720469 
L 299.516139 122.429422 
L 297.739985 123.13178 
L 295.963832 123.812625 
L 294.187678 124.457036 
L 292.411525 125.050093 
L 290.635371 125.576877 
L 288.859218 126.022468 
L 287.083064 126.373379 
L 285.306911 126.635105 
L 283.530757 126.826579 
L 281.754604 126.967022 
L 279.97845 127.075653 
L 278.202297 127.171692 
L 276.426143 127.274359 
L 274.64999 127.402874 
L 272.873836 127.576456 
L 271.097683 127.814324 
L 269.321529 128.135672 
L 267.545376 128.549294 
L 265.769222 129.037846 
L 263.993069 129.579941 
L 262.216915 130.154194 
L 260.440762 130.73922 
L 258.664608 131.313633 
L 256.888455 131.856047 
L 255.112301 132.345077 
L 253.336148 132.759337 
L 251.559994 133.077442 
L 249.783841 133.280156 
L 248.007687 133.371699 
L 246.231534 133.370732 
L 244.45538 133.296129 
L 242.679227 133.166761 
L 240.903073 133.0015 
L 239.12692 132.819219 
L 237.350766 132.638791 
L 235.574613 132.479086 
L 233.798459 132.358978 
L 232.022306 132.297304 
L 230.246152 132.306345 
L 228.469999 132.384181 
L 226.693845 132.527035 
L 224.917692 132.73113 
L 223.141538 132.992688 
L 221.365385 133.307932 
L 219.589231 133.673084 
L 217.813078 134.084367 
L 216.036924 134.538004 
L 214.260771 135.030216 
L 212.484617 135.556966 
L 210.708464 136.111835 
L 208.93231 136.687131 
L 207.156157 137.275156 
L 205.380003 137.868207 
L 203.60385 138.458583 
L 201.827696 139.038584 
L 200.051543 139.600507 
L 198.275389 140.136651 
L 196.499236 140.639316 
L 194.723082 141.100815 
L 192.946929 141.51513 
L 191.170775 141.879365 
L 189.394622 142.190968 
L 187.618468 142.447385 
L 185.842315 142.646064 
L 184.066161 142.784451 
L 182.290008 142.859996 
L 180.513854 142.870143 
L 178.737701 142.812342 
L 176.961547 142.684039 
L 175.185394 142.484596 
L 173.409241 142.228008 
L 171.633087 141.935028 
L 169.856934 141.626443 
L 168.08078 141.323042 
L 166.304627 141.045611 
L 164.528473 140.814939 
L 162.75232 140.651815 
L 160.976166 140.577025 
L 159.200013 140.611358 
L 157.423859 140.775364 
L 155.647706 141.073411 
L 153.871552 141.483574 
L 152.095399 141.981519 
L 150.319245 142.542913 
L 148.543092 143.143423 
L 146.766938 143.758713 
L 144.990785 144.364452 
L 143.214631 144.936305 
L 141.438478 145.449938 
L 139.662324 145.881019 
L 137.886171 146.209056 
L 136.110017 146.438415 
L 134.333864 146.58335 
L 132.55771 146.658141 
L 130.781557 146.677067 
L 129.005403 146.654408 
L 127.22925 146.604443 
L 125.453096 146.541454 
L 123.676943 146.479718 
L 121.900789 146.433516 
L 120.124636 146.416997 
L 118.348482 146.438109 
L 116.572329 146.49605 
L 114.796175 146.589355 
L 113.020022 146.71656 
L 111.243868 146.876202 
L 109.467715 147.066816 
L 107.691561 147.286938 
L 105.915408 147.535103 
L 104.139254 147.809848 
L 102.363101 148.109709 
L 100.586947 148.432031 
L 98.810794 148.767628 
L 97.03464 149.105076 
L 95.258487 149.432953 
L 93.482333 149.739833 
L 91.70618 150.014294 
L 89.930026 150.244911 
L 88.153873 150.420261 
L 86.377719 150.528919 
L 84.601566 150.559462 
L 82.825412 150.500851 
L 81.049259 150.35531 
L 79.273105 150.141365 
L 77.496952 149.878544 
L 75.720798 149.586373 
L 73.944645 149.28438 
L 72.168491 148.992092 
L 70.392338 148.729036 
L 68.616184 148.51474 
L 66.840031 148.36873 
L 65.063877 148.310534 
L 63.287724 148.355178 
L 61.51157 148.496602 
L 59.735417 148.722572 
L 57.959263 149.020857 
L 56.18311 149.379224 
L 54.406956 149.78544 
L 52.630803 150.227273 
L 50.854649 150.692489 
L 49.078496 151.168856 
L 47.302342 151.644142 
L 45.526189 152.106113 
L 43.750035 152.542537 
L 41.973882 152.941182 
L 40.197728 153.289814 
L 38.421575 153.576201 
L 36.645421 153.78811 
L 34.869268 153.913309 
L 33.093114 153.939564 
L 31.316961 153.854644 
L 29.540807 153.646315 
L 27.764654 153.302345 
z
" clip-path="url(#p07c0c662cb)" style="fill: #ff7f0e"/>
   </g>
   <g id="FillBetweenPolyCollection_4">
    <path d="M 27.764654 127.492021 
L 27.764654 153.302345 
L 29.540807 153.646315 
L 31.316961 153.854644 
L 33.093114 153.939564 
L 34.869268 153.913309 
L 36.645421 153.78811 
L 38.421575 153.576201 
L 40.197728 153.289814 
L 41.973882 152.941182 
L 43.750035 152.542537 
L 45.526189 152.106113 
L 47.302342 151.644142 
L 49.078496 151.168856 
L 50.854649 150.692489 
L 52.630803 150.227273 
L 54.406956 149.78544 
L 56.18311 149.379224 
L 57.959263 149.020857 
L 59.735417 148.722572 
L 61.51157 148.496602 
L 63.287724 148.355178 
L 65.063877 148.310534 
L 66.840031 148.36873 
L 68.616184 148.51474 
L 70.392338 148.729036 
L 72.168491 148.992092 
L 73.944645 149.28438 
L 75.720798 149.586373 
L 77.496952 149.878544 
L 79.273105 150.141365 
L 81.049259 150.35531 
L 82.825412 150.500851 
L 84.601566 150.559462 
L 86.377719 150.528919 
L 88.153873 150.420261 
L 89.930026 150.244911 
L 91.70618 150.014294 
L 93.482333 149.739833 
L 95.258487 149.432953 
L 97.03464 149.105076 
L 98.810794 148.767628 
L 100.586947 148.432031 
L 102.363101 148.109709 
L 104.139254 147.809848 
L 105.915408 147.535103 
L 107.691561 147.286938 
L 109.467715 147.066816 
L 111.243868 146.876202 
L 113.020022 146.71656 
L 114.796175 146.589355 
L 116.572329 146.49605 
L 118.348482 146.438109 
L 120.124636 146.416997 
L 121.900789 146.433516 
L 123.676943 146.479718 
L 125.453096 146.541454 
L 127.22925 146.604443 
L 129.005403 146.654408 
L 130.781557 146.677067 
L 132.55771 146.658141 
L 134.333864 146.58335 
L 136.110017 146.438415 
L 137.886171 146.209056 
L 139.662324 145.881019 
L 141.438478 145.449938 
L 143.214631 144.936305 
L 144.990785 144.364452 
L 146.766938 143.758713 
L 148.543092 143.143423 
L 150.319245 142.542913 
L 152.095399 141.981519 
L 153.871552 141.483574 
L 155.647706 141.073411 
L 157.423859 140.775364 
L 159.200013 140.611358 
L 160.976166 140.577025 
L 162.75232 140.651815 
L 164.528473 140.814939 
L 166.304627 141.045611 
L 168.08078 141.323042 
L 169.856934 141.626443 
L 171.633087 141.935028 
L 173.409241 142.228008 
L 175.185394 142.484596 
L 176.961547 142.684039 
L 178.737701 142.812342 
L 180.513854 142.870143 
L 182.290008 142.859996 
L 184.066161 142.784451 
L 185.842315 142.646064 
L 187.618468 142.447385 
L 189.394622 142.190968 
L 191.170775 141.879365 
L 192.946929 141.51513 
L 194.723082 141.100815 
L 196.499236 140.639316 
L 198.275389 140.136651 
L 200.051543 139.600507 
L 201.827696 139.038584 
L 203.60385 138.458583 
L 205.380003 137.868207 
L 207.156157 137.275156 
L 208.93231 136.687131 
L 210.708464 136.111835 
L 212.484617 135.556966 
L 214.260771 135.030216 
L 216.036924 134.538004 
L 217.813078 134.084367 
L 219.589231 133.673084 
L 221.365385 133.307932 
L 223.141538 132.992688 
L 224.917692 132.73113 
L 226.693845 132.527035 
L 228.469999 132.384181 
L 230.246152 132.306345 
L 232.022306 132.297304 
L 233.798459 132.358978 
L 235.574613 132.479086 
L 237.350766 132.638791 
L 239.12692 132.819219 
L 240.903073 133.0015 
L 242.679227 133.166761 
L 244.45538 133.296129 
L 246.231534 133.370732 
L 248.007687 133.371699 
L 249.783841 133.280156 
L 251.559994 133.077442 
L 253.336148 132.759337 
L 255.112301 132.345077 
L 256.888455 131.856047 
L 258.664608 131.313633 
L 260.440762 130.73922 
L 262.216915 130.154194 
L 263.993069 129.579941 
L 265.769222 129.037846 
L 267.545376 128.549294 
L 269.321529 128.135672 
L 271.097683 127.814324 
L 272.873836 127.576456 
L 274.64999 127.402874 
L 276.426143 127.274359 
L 278.202297 127.171692 
L 279.97845 127.075653 
L 281.754604 126.967022 
L 283.530757 126.826579 
L 285.306911 126.635105 
L 287.083064 126.373379 
L 288.859218 126.022468 
L 290.635371 125.576877 
L 292.411525 125.050093 
L 294.187678 124.457036 
L 295.963832 123.812625 
L 297.739985 123.13178 
L 299.516139 122.429422 
L 301.292292 121.720469 
L 303.068446 121.019842 
L 304.844599 120.342461 
L 306.620753 119.703244 
L 308.396906 119.11483 
L 310.17306 118.57731 
L 311.949213 118.086488 
L 313.725367 117.638165 
L 315.50152 117.228141 
L 317.277674 116.852217 
L 319.053827 116.506193 
L 320.829981 116.18587 
L 322.606134 115.887048 
L 324.382288 115.605527 
L 326.158441 115.337081 
L 327.934595 115.076523 
L 329.710748 114.81749 
L 331.486902 114.553544 
L 333.263055 114.27825 
L 335.039209 113.985171 
L 336.815362 113.667871 
L 338.591516 113.319913 
L 340.367669 112.934862 
L 342.143823 112.50628 
L 343.919976 112.027731 
L 345.696129 111.494383 
L 347.472283 110.908912 
L 349.248436 110.27033 
L 351.02459 109.583083 
L 352.800743 108.870655 
L 354.576897 108.136036 
L 356.35305 107.370369 
L 358.129204 106.574552 
L 359.905357 105.760744 
L 361.681511 104.933818 
L 363.457664 104.098652 
L 365.233818 103.26012 
L 367.009971 102.423099 
L 368.786125 101.592465 
L 370.562278 100.773092 
L 372.338432 99.969857 
L 374.114585 99.187635 
L 375.890739 98.431303 
L 377.666892 97.705736 
L 379.443046 97.015809 
L 381.219199 96.366399 
L 381.219199 60.02125 
L 381.219199 60.02125 
L 379.443046 61.160719 
L 377.666892 62.224111 
L 375.890739 63.216667 
L 374.114585 64.143632 
L 372.338432 65.010248 
L 370.562278 65.821756 
L 368.786125 66.583401 
L 367.009971 67.300425 
L 365.233818 67.97807 
L 363.457664 68.62158 
L 361.681511 69.236197 
L 359.905357 69.827163 
L 358.129204 70.399723 
L 356.35305 70.959117 
L 354.576897 71.503309 
L 352.800743 72.041517 
L 351.02459 72.592716 
L 349.248436 73.164037 
L 347.472283 73.742112 
L 345.696129 74.332615 
L 343.919976 74.946652 
L 342.143823 75.587034 
L 340.367669 76.248263 
L 338.591516 76.923069 
L 336.815362 77.604181 
L 335.039209 78.284326 
L 333.263055 78.956235 
L 331.486902 79.612637 
L 329.710748 80.246259 
L 327.934595 80.849832 
L 326.158441 81.416084 
L 324.382288 81.938228 
L 322.606134 82.417332 
L 320.829981 82.860861 
L 319.053827 83.276464 
L 317.277674 83.671791 
L 315.50152 84.054492 
L 313.725367 84.432215 
L 311.949213 84.81261 
L 310.17306 85.203327 
L 308.396906 85.612015 
L 306.620753 86.04632 
L 304.844599 86.509534 
L 303.068446 86.992214 
L 301.292292 87.482598 
L 299.516139 87.968926 
L 297.739985 88.439436 
L 295.963832 88.882366 
L 294.187678 89.285956 
L 292.411525 89.638445 
L 290.635371 89.92807 
L 288.859218 90.143072 
L 287.083064 90.273312 
L 285.306911 90.33014 
L 283.530757 90.340126 
L 281.754604 90.330162 
L 279.97845 90.32714 
L 278.202297 90.357952 
L 276.426143 90.44949 
L 274.64999 90.628646 
L 272.873836 90.922311 
L 271.097683 91.357378 
L 269.321529 91.960694 
L 267.545376 92.742079 
L 265.769222 93.668545 
L 263.993069 94.700491 
L 262.216915 95.798311 
L 260.440762 96.922402 
L 258.664608 98.03316 
L 256.888455 99.090981 
L 255.112301 100.056261 
L 253.336148 100.889398 
L 251.559994 101.550786 
L 249.783841 102.004587 
L 248.007687 102.256066 
L 246.231534 102.335785 
L 244.45538 102.274677 
L 242.679227 102.103678 
L 240.903073 101.853719 
L 239.12692 101.555735 
L 237.350766 101.240659 
L 235.574613 100.939425 
L 233.798459 100.682966 
L 232.022306 100.502162 
L 230.246152 100.417694 
L 228.469999 100.428156 
L 226.693845 100.52925 
L 224.917692 100.716681 
L 223.141538 100.986151 
L 221.365385 101.333365 
L 219.589231 101.754026 
L 217.813078 102.243836 
L 216.036924 102.798501 
L 214.260771 103.413723 
L 212.484617 104.084662 
L 210.708464 104.801545 
L 208.93231 105.551961 
L 207.156157 106.323475 
L 205.380003 107.103652 
L 203.60385 107.880058 
L 201.827696 108.640259 
L 200.051543 109.371818 
L 198.275389 110.062303 
L 196.499236 110.699277 
L 194.723082 111.270348 
L 192.946929 111.767518 
L 191.170775 112.191029 
L 189.394622 112.542027 
L 187.618468 112.821657 
L 185.842315 113.031065 
L 184.066161 113.171399 
L 182.290008 113.243803 
L 180.513854 113.249424 
L 178.737701 113.189408 
L 176.961547 113.0649 
L 175.185394 112.878449 
L 173.409241 112.643311 
L 171.633087 112.377689 
L 169.856934 112.09981 
L 168.08078 111.827903 
L 166.304627 111.580196 
L 164.528473 111.374918 
L 162.75232 111.230296 
L 160.976166 111.164559 
L 159.200013 111.195935 
L 157.423859 111.342456 
L 155.647706 111.608647 
L 153.871552 111.9771 
L 152.095399 112.428395 
L 150.319245 112.943113 
L 148.543092 113.501835 
L 146.766938 114.085141 
L 144.990785 114.673612 
L 143.214631 115.247828 
L 141.438478 115.78837 
L 139.662324 116.275819 
L 137.886171 116.693615 
L 136.110017 117.043691 
L 134.333864 117.335339 
L 132.55771 117.57787 
L 130.781557 117.780595 
L 129.005403 117.952824 
L 127.22925 118.103868 
L 125.453096 118.243038 
L 123.676943 118.379644 
L 121.900789 118.522996 
L 120.124636 118.68233 
L 118.348482 118.863259 
L 116.572329 119.066289 
L 114.796175 119.291539 
L 113.020022 119.539129 
L 111.243868 119.809176 
L 109.467715 120.101801 
L 107.691561 120.417123 
L 105.915408 120.75526 
L 104.139254 121.116333 
L 102.363101 121.500459 
L 100.586947 121.906605 
L 98.810794 122.327402 
L 97.03464 122.753314 
L 95.258487 123.174804 
L 93.482333 123.582336 
L 91.70618 123.966371 
L 89.930026 124.317374 
L 88.153873 124.625806 
L 86.377719 124.882131 
L 84.601566 125.076812 
L 82.825412 125.200592 
L 81.049259 125.253882 
L 79.273105 125.248975 
L 77.496952 125.198893 
L 75.720798 125.116658 
L 73.944645 125.015294 
L 72.168491 124.907822 
L 70.392338 124.807266 
L 68.616184 124.726647 
L 66.840031 124.678988 
L 65.063877 124.677311 
L 63.287724 124.731788 
L 61.51157 124.839222 
L 59.735417 124.992509 
L 57.959263 125.184544 
L 56.18311 125.40822 
L 54.406956 125.656431 
L 52.630803 125.922073 
L 50.854649 126.19804 
L 49.078496 126.477225 
L 47.302342 126.752523 
L 45.526189 127.016828 
L 43.750035 127.263034 
L 41.973882 127.484037 
L 40.197728 127.67273 
L 38.421575 127.822007 
L 36.645421 127.924762 
L 34.869268 127.973891 
L 33.093114 127.962287 
L 31.316961 127.882844 
L 29.540807 127.728458 
L 27.764654 127.492021 
z
" clip-path="url(#p07c0c662cb)" style="fill: #ffbb78"/>
   </g>
   <g id="matplotlib.axis_1">
    <g id="xtick_1">
     <g id="line2d_1">
      <defs>
       <path id="mf08293db92" d="M 0 0 
L 0 3.5 
" style="stroke: #000000; stroke-width: 0.8"/>
      </defs>
      <g>
       <use xlink:href="#mf08293db92" x="27.764654" y="314.12125" style="stroke: #000000; stroke-width: 0.8"/>
      </g>
     </g>
     <g id="text_1">
      <!-- 2005 -->
      <g transform="translate(12.109973 340.173358) rotate(-45) scale(0.1 -0.1)">
       <defs>
        <path id="TimesNewRomanPSMT-32" d="M 2934 816 
L 2638 0 
L 138 0 
L 138 116 
Q 1241 1122 1691 1759 
Q 2141 2397 2141 2925 
Q 2141 3328 1894 3587 
Q 1647 3847 1303 3847 
Q 991 3847 742 3664 
Q 494 3481 375 3128 
L 259 3128 
Q 338 3706 661 4015 
Q 984 4325 1469 4325 
Q 1984 4325 2329 3994 
Q 2675 3663 2675 3213 
Q 2675 2891 2525 2569 
Q 2294 2063 1775 1497 
Q 997 647 803 472 
L 1909 472 
Q 2247 472 2383 497 
Q 2519 522 2628 598 
Q 2738 675 2819 816 
L 2934 816 
z
" transform="scale(0.015625)"/>
        <path id="TimesNewRomanPSMT-30" d="M 231 2094 
Q 231 2819 450 3342 
Q 669 3866 1031 4122 
Q 1313 4325 1613 4325 
Q 2100 4325 2488 3828 
Q 2972 3213 2972 2159 
Q 2972 1422 2759 906 
Q 2547 391 2217 158 
Q 1888 -75 1581 -75 
Q 975 -75 572 641 
Q 231 1244 231 2094 
z
M 844 2016 
Q 844 1141 1059 588 
Q 1238 122 1591 122 
Q 1759 122 1940 273 
Q 2122 425 2216 781 
Q 2359 1319 2359 2297 
Q 2359 3022 2209 3506 
Q 2097 3866 1919 4016 
Q 1791 4119 1609 4119 
Q 1397 4119 1231 3928 
Q 1006 3669 925 3112 
Q 844 2556 844 2016 
z
" transform="scale(0.015625)"/>
        <path id="TimesNewRomanPSMT-35" d="M 2778 4238 
L 2534 3706 
L 1259 3706 
L 981 3138 
Q 1809 3016 2294 2522 
Q 2709 2097 2709 1522 
Q 2709 1188 2573 903 
Q 2438 619 2231 419 
Q 2025 219 1772 97 
Q 1413 -75 1034 -75 
Q 653 -75 479 54 
Q 306 184 306 341 
Q 306 428 378 495 
Q 450 563 559 563 
Q 641 563 702 538 
Q 763 513 909 409 
Q 1144 247 1384 247 
Q 1750 247 2026 523 
Q 2303 800 2303 1197 
Q 2303 1581 2056 1914 
Q 1809 2247 1375 2428 
Q 1034 2569 447 2591 
L 1259 4238 
L 2778 4238 
z
" transform="scale(0.015625)"/>
       </defs>
       <use xlink:href="#TimesNewRomanPSMT-32"/>
       <use xlink:href="#TimesNewRomanPSMT-30" transform="translate(50 0)"/>
       <use xlink:href="#TimesNewRomanPSMT-30" transform="translate(100 0)"/>
       <use xlink:href="#TimesNewRomanPSMT-35" transform="translate(150 0)"/>
      </g>
     </g>
    </g>
    <g id="xtick_2">
     <g id="line2d_2">
      <g>
       <use xlink:href="#mf08293db92" x="64.970396" y="314.12125" style="stroke: #000000; stroke-width: 0.8"/>
      </g>
     </g>
     <g id="text_2">
      <!-- 2007 -->
      <g transform="translate(49.315714 340.173358) rotate(-45) scale(0.1 -0.1)">
       <defs>
        <path id="TimesNewRomanPSMT-37" d="M 644 4238 
L 2916 4238 
L 2916 4119 
L 1503 -88 
L 1153 -88 
L 2419 3728 
L 1253 3728 
Q 900 3728 750 3644 
Q 488 3500 328 3200 
L 238 3234 
L 644 4238 
z
" transform="scale(0.015625)"/>
       </defs>
       <use xlink:href="#TimesNewRomanPSMT-32"/>
       <use xlink:href="#TimesNewRomanPSMT-30" transform="translate(50 0)"/>
       <use xlink:href="#TimesNewRomanPSMT-30" transform="translate(100 0)"/>
       <use xlink:href="#TimesNewRomanPSMT-37" transform="translate(150 0)"/>
      </g>
     </g>
    </g>
    <g id="xtick_3">
     <g id="line2d_3">
      <g>
       <use xlink:href="#mf08293db92" x="102.176137" y="314.12125" style="stroke: #000000; stroke-width: 0.8"/>
      </g>
     </g>
     <g id="text_3">
      <!-- 2009 -->
      <g transform="translate(86.521456 340.173358) rotate(-45) scale(0.1 -0.1)">
       <defs>
        <path id="TimesNewRomanPSMT-39" d="M 338 -88 
L 338 28 
Q 744 34 1094 217 
Q 1444 400 1770 856 
Q 2097 1313 2225 1859 
Q 1734 1544 1338 1544 
Q 891 1544 572 1889 
Q 253 2234 253 2806 
Q 253 3363 572 3797 
Q 956 4325 1575 4325 
Q 2097 4325 2469 3894 
Q 2925 3359 2925 2575 
Q 2925 1869 2578 1258 
Q 2231 647 1613 244 
Q 1109 -88 516 -88 
L 338 -88 
z
M 2275 2091 
Q 2331 2497 2331 2741 
Q 2331 3044 2228 3395 
Q 2125 3747 1936 3934 
Q 1747 4122 1506 4122 
Q 1228 4122 1018 3872 
Q 809 3622 809 3128 
Q 809 2469 1088 2097 
Q 1291 1828 1588 1828 
Q 1731 1828 1928 1897 
Q 2125 1966 2275 2091 
z
" transform="scale(0.015625)"/>
       </defs>
       <use xlink:href="#TimesNewRomanPSMT-32"/>
       <use xlink:href="#TimesNewRomanPSMT-30" transform="translate(50 0)"/>
       <use xlink:href="#TimesNewRomanPSMT-30" transform="translate(100 0)"/>
       <use xlink:href="#TimesNewRomanPSMT-39" transform="translate(150 0)"/>
      </g>
     </g>
    </g>
    <g id="xtick_4">
     <g id="line2d_4">
      <g>
       <use xlink:href="#mf08293db92" x="139.381879" y="314.12125" style="stroke: #000000; stroke-width: 0.8"/>
      </g>
     </g>
     <g id="text_4">
      <!-- 2011 -->
      <g transform="translate(123.992363 339.908193) rotate(-45) scale(0.1 -0.1)">
       <defs>
        <path id="TimesNewRomanPSMT-31" d="M 750 3822 
L 1781 4325 
L 1884 4325 
L 1884 747 
Q 1884 391 1914 303 
Q 1944 216 2037 169 
Q 2131 122 2419 116 
L 2419 0 
L 825 0 
L 825 116 
Q 1125 122 1212 167 
Q 1300 213 1334 289 
Q 1369 366 1369 747 
L 1369 3034 
Q 1369 3497 1338 3628 
Q 1316 3728 1258 3775 
Q 1200 3822 1119 3822 
Q 1003 3822 797 3725 
L 750 3822 
z
" transform="scale(0.015625)"/>
       </defs>
       <use xlink:href="#TimesNewRomanPSMT-32"/>
       <use xlink:href="#TimesNewRomanPSMT-30" transform="translate(50 0)"/>
       <use xlink:href="#TimesNewRomanPSMT-31" transform="translate(100 0)"/>
       <use xlink:href="#TimesNewRomanPSMT-31" transform="translate(146.25 0)"/>
      </g>
     </g>
    </g>
    <g id="xtick_5">
     <g id="line2d_5">
      <g>
       <use xlink:href="#mf08293db92" x="176.58762" y="314.12125" style="stroke: #000000; stroke-width: 0.8"/>
      </g>
     </g>
     <g id="text_5">
      <!-- 2013 -->
      <g transform="translate(160.932939 340.173358) rotate(-45) scale(0.1 -0.1)">
       <defs>
        <path id="TimesNewRomanPSMT-33" d="M 325 3431 
Q 506 3859 782 4092 
Q 1059 4325 1472 4325 
Q 1981 4325 2253 3994 
Q 2459 3747 2459 3466 
Q 2459 3003 1878 2509 
Q 2269 2356 2469 2072 
Q 2669 1788 2669 1403 
Q 2669 853 2319 450 
Q 1863 -75 997 -75 
Q 569 -75 414 31 
Q 259 138 259 259 
Q 259 350 332 419 
Q 406 488 509 488 
Q 588 488 669 463 
Q 722 447 909 348 
Q 1097 250 1169 231 
Q 1284 197 1416 197 
Q 1734 197 1970 444 
Q 2206 691 2206 1028 
Q 2206 1275 2097 1509 
Q 2016 1684 1919 1775 
Q 1784 1900 1550 2001 
Q 1316 2103 1072 2103 
L 972 2103 
L 972 2197 
Q 1219 2228 1467 2375 
Q 1716 2522 1828 2728 
Q 1941 2934 1941 3181 
Q 1941 3503 1739 3701 
Q 1538 3900 1238 3900 
Q 753 3900 428 3381 
L 325 3431 
z
" transform="scale(0.015625)"/>
       </defs>
       <use xlink:href="#TimesNewRomanPSMT-32"/>
       <use xlink:href="#TimesNewRomanPSMT-30" transform="translate(50 0)"/>
       <use xlink:href="#TimesNewRomanPSMT-31" transform="translate(100 0)"/>
       <use xlink:href="#TimesNewRomanPSMT-33" transform="translate(150 0)"/>
      </g>
     </g>
    </g>
    <g id="xtick_6">
     <g id="line2d_6">
      <g>
       <use xlink:href="#mf08293db92" x="213.793362" y="314.12125" style="stroke: #000000; stroke-width: 0.8"/>
      </g>
     </g>
     <g id="text_6">
      <!-- 2015 -->
      <g transform="translate(198.138681 340.173358) rotate(-45) scale(0.1 -0.1)">
       <use xlink:href="#TimesNewRomanPSMT-32"/>
       <use xlink:href="#TimesNewRomanPSMT-30" transform="translate(50 0)"/>
       <use xlink:href="#TimesNewRomanPSMT-31" transform="translate(100 0)"/>
       <use xlink:href="#TimesNewRomanPSMT-35" transform="translate(150 0)"/>
      </g>
     </g>
    </g>
    <g id="xtick_7">
     <g id="line2d_7">
      <g>
       <use xlink:href="#mf08293db92" x="250.999104" y="314.12125" style="stroke: #000000; stroke-width: 0.8"/>
      </g>
     </g>
     <g id="text_7">
      <!-- 2017 -->
      <g transform="translate(235.344422 340.173358) rotate(-45) scale(0.1 -0.1)">
       <use xlink:href="#TimesNewRomanPSMT-32"/>
       <use xlink:href="#TimesNewRomanPSMT-30" transform="translate(50 0)"/>
       <use xlink:href="#TimesNewRomanPSMT-31" transform="translate(100 0)"/>
       <use xlink:href="#TimesNewRomanPSMT-37" transform="translate(150 0)"/>
      </g>
     </g>
    </g>
    <g id="xtick_8">
     <g id="line2d_8">
      <g>
       <use xlink:href="#mf08293db92" x="288.204845" y="314.12125" style="stroke: #000000; stroke-width: 0.8"/>
      </g>
     </g>
     <g id="text_8">
      <!-- 2019 -->
      <g transform="translate(272.550164 340.173358) rotate(-45) scale(0.1 -0.1)">
       <use xlink:href="#TimesNewRomanPSMT-32"/>
       <use xlink:href="#TimesNewRomanPSMT-30" transform="translate(50 0)"/>
       <use xlink:href="#TimesNewRomanPSMT-31" transform="translate(100 0)"/>
       <use xlink:href="#TimesNewRomanPSMT-39" transform="translate(150 0)"/>
      </g>
     </g>
    </g>
    <g id="xtick_9">
     <g id="line2d_9">
      <g>
       <use xlink:href="#mf08293db92" x="325.410587" y="314.12125" style="stroke: #000000; stroke-width: 0.8"/>
      </g>
     </g>
     <g id="text_9">
      <!-- 2021 -->
      <g transform="translate(309.755906 340.173358) rotate(-45) scale(0.1 -0.1)">
       <use xlink:href="#TimesNewRomanPSMT-32"/>
       <use xlink:href="#TimesNewRomanPSMT-30" transform="translate(50 0)"/>
       <use xlink:href="#TimesNewRomanPSMT-32" transform="translate(100 0)"/>
       <use xlink:href="#TimesNewRomanPSMT-31" transform="translate(150 0)"/>
      </g>
     </g>
    </g>
    <g id="xtick_10">
     <g id="line2d_10">
      <g>
       <use xlink:href="#mf08293db92" x="362.616329" y="314.12125" style="stroke: #000000; stroke-width: 0.8"/>
      </g>
     </g>
     <g id="text_10">
      <!-- 2023 -->
      <g transform="translate(346.961647 340.173358) rotate(-45) scale(0.1 -0.1)">
       <use xlink:href="#TimesNewRomanPSMT-32"/>
       <use xlink:href="#TimesNewRomanPSMT-30" transform="translate(50 0)"/>
       <use xlink:href="#TimesNewRomanPSMT-32" transform="translate(100 0)"/>
       <use xlink:href="#TimesNewRomanPSMT-33" transform="translate(150 0)"/>
      </g>
     </g>
    </g>
    <g id="text_11">
     <!-- Year -->
     <g transform="translate(193.434114 354.018404) scale(0.12 -0.12)">
      <defs>
       <path id="TimesNewRomanPSMT-59" d="M 3050 4238 
L 4528 4238 
L 4528 4122 
L 4447 4122 
Q 4366 4122 4209 4050 
Q 4053 3978 3925 3843 
Q 3797 3709 3609 3406 
L 2588 1797 
L 2588 734 
Q 2588 344 2675 247 
Q 2794 116 3050 116 
L 3188 116 
L 3188 0 
L 1388 0 
L 1388 116 
L 1538 116 
Q 1806 116 1919 278 
Q 1988 378 1988 734 
L 1988 1738 
L 825 3513 
Q 619 3825 545 3903 
Q 472 3981 241 4091 
Q 178 4122 59 4122 
L 59 4238 
L 1872 4238 
L 1872 4122 
L 1778 4122 
Q 1631 4122 1507 4053 
Q 1384 3984 1384 3847 
Q 1384 3734 1575 3441 
L 2459 2075 
L 3291 3381 
Q 3478 3675 3478 3819 
Q 3478 3906 3433 3975 
Q 3388 4044 3303 4083 
Q 3219 4122 3050 4122 
L 3050 4238 
z
" transform="scale(0.015625)"/>
       <path id="TimesNewRomanPSMT-65" d="M 681 1784 
Q 678 1147 991 784 
Q 1303 422 1725 422 
Q 2006 422 2214 576 
Q 2422 731 2563 1106 
L 2659 1044 
Q 2594 616 2278 264 
Q 1963 -88 1488 -88 
Q 972 -88 605 314 
Q 238 716 238 1394 
Q 238 2128 614 2539 
Q 991 2950 1559 2950 
Q 2041 2950 2350 2633 
Q 2659 2316 2659 1784 
L 681 1784 
z
M 681 1966 
L 2006 1966 
Q 1991 2241 1941 2353 
Q 1863 2528 1708 2628 
Q 1553 2728 1384 2728 
Q 1125 2728 920 2526 
Q 716 2325 681 1966 
z
" transform="scale(0.015625)"/>
       <path id="TimesNewRomanPSMT-61" d="M 1822 413 
Q 1381 72 1269 19 
Q 1100 -59 909 -59 
Q 613 -59 420 144 
Q 228 347 228 678 
Q 228 888 322 1041 
Q 450 1253 767 1440 
Q 1084 1628 1822 1897 
L 1822 2009 
Q 1822 2438 1686 2597 
Q 1550 2756 1291 2756 
Q 1094 2756 978 2650 
Q 859 2544 859 2406 
L 866 2225 
Q 866 2081 792 2003 
Q 719 1925 600 1925 
Q 484 1925 411 2006 
Q 338 2088 338 2228 
Q 338 2497 613 2722 
Q 888 2947 1384 2947 
Q 1766 2947 2009 2819 
Q 2194 2722 2281 2516 
Q 2338 2381 2338 1966 
L 2338 994 
Q 2338 584 2353 492 
Q 2369 400 2405 369 
Q 2441 338 2488 338 
Q 2538 338 2575 359 
Q 2641 400 2828 588 
L 2828 413 
Q 2478 -56 2159 -56 
Q 2006 -56 1915 50 
Q 1825 156 1822 413 
z
M 1822 616 
L 1822 1706 
Q 1350 1519 1213 1441 
Q 966 1303 859 1153 
Q 753 1003 753 825 
Q 753 600 887 451 
Q 1022 303 1197 303 
Q 1434 303 1822 616 
z
" transform="scale(0.015625)"/>
       <path id="TimesNewRomanPSMT-72" d="M 1038 2947 
L 1038 2303 
Q 1397 2947 1775 2947 
Q 1947 2947 2059 2842 
Q 2172 2738 2172 2600 
Q 2172 2478 2090 2393 
Q 2009 2309 1897 2309 
Q 1788 2309 1652 2417 
Q 1516 2525 1450 2525 
Q 1394 2525 1328 2463 
Q 1188 2334 1038 2041 
L 1038 669 
Q 1038 431 1097 309 
Q 1138 225 1241 169 
Q 1344 113 1538 113 
L 1538 0 
L 72 0 
L 72 113 
Q 291 113 397 181 
Q 475 231 506 341 
Q 522 394 522 644 
L 522 1753 
Q 522 2253 501 2348 
Q 481 2444 426 2487 
Q 372 2531 291 2531 
Q 194 2531 72 2484 
L 41 2597 
L 906 2947 
L 1038 2947 
z
" transform="scale(0.015625)"/>
      </defs>
      <use xlink:href="#TimesNewRomanPSMT-59"/>
      <use xlink:href="#TimesNewRomanPSMT-65" transform="translate(62.216797 0)"/>
      <use xlink:href="#TimesNewRomanPSMT-61" transform="translate(106.601562 0)"/>
      <use xlink:href="#TimesNewRomanPSMT-72" transform="translate(150.986328 0)"/>
     </g>
    </g>
   </g>
   <g id="patch_3">
    <path d="M 10.091927 314.12125 
L 10.091927 36.92125 
" style="fill: none; stroke: #000000; stroke-width: 0.8; stroke-linejoin: miter; stroke-linecap: square"/>
   </g>
   <g id="patch_4">
    <path d="M 398.891927 314.12125 
L 398.891927 36.92125 
" style="fill: none; stroke: #000000; stroke-width: 0.8; stroke-linejoin: miter; stroke-linecap: square"/>
   </g>
   <g id="patch_5">
    <path d="M 10.091927 314.12125 
L 398.891927 314.12125 
" style="fill: none; stroke: #000000; stroke-width: 0.8; stroke-linejoin: miter; stroke-linecap: square"/>
   </g>
   <g id="patch_6">
    <path d="M 10.091927 36.92125 
L 398.891927 36.92125 
" style="fill: none; stroke: #000000; stroke-width: 0.8; stroke-linejoin: miter; stroke-linecap: square"/>
   </g>
   <g id="text_12">
    <!-- Alumni Giving Rate from 2005 to 2024 (%)  -->
    <g transform="translate(79.285989 16.92125) scale(0.14 -0.14)">
     <defs>
      <path id="TimesNewRomanPSMT-41" d="M 2928 1419 
L 1288 1419 
L 1000 750 
Q 894 503 894 381 
Q 894 284 986 211 
Q 1078 138 1384 116 
L 1384 0 
L 50 0 
L 50 116 
Q 316 163 394 238 
Q 553 388 747 847 
L 2238 4334 
L 2347 4334 
L 3822 809 
Q 4000 384 4145 257 
Q 4291 131 4550 116 
L 4550 0 
L 2878 0 
L 2878 116 
Q 3131 128 3220 200 
Q 3309 272 3309 375 
Q 3309 513 3184 809 
L 2928 1419 
z
M 2841 1650 
L 2122 3363 
L 1384 1650 
L 2841 1650 
z
" transform="scale(0.015625)"/>
      <path id="TimesNewRomanPSMT-6c" d="M 1184 4444 
L 1184 647 
Q 1184 378 1223 290 
Q 1263 203 1344 158 
Q 1425 113 1647 113 
L 1647 0 
L 244 0 
L 244 113 
Q 441 113 512 153 
Q 584 194 625 287 
Q 666 381 666 647 
L 666 3247 
Q 666 3731 644 3842 
Q 622 3953 573 3993 
Q 525 4034 450 4034 
Q 369 4034 244 3984 
L 191 4094 
L 1044 4444 
L 1184 4444 
z
" transform="scale(0.015625)"/>
      <path id="TimesNewRomanPSMT-75" d="M 2709 2863 
L 2709 1128 
Q 2709 631 2732 520 
Q 2756 409 2807 365 
Q 2859 322 2928 322 
Q 3025 322 3147 375 
L 3191 266 
L 2334 -88 
L 2194 -88 
L 2194 519 
Q 1825 119 1631 15 
Q 1438 -88 1222 -88 
Q 981 -88 804 51 
Q 628 191 559 409 
Q 491 628 491 1028 
L 491 2306 
Q 491 2509 447 2587 
Q 403 2666 317 2708 
Q 231 2750 6 2747 
L 6 2863 
L 1009 2863 
L 1009 947 
Q 1009 547 1148 422 
Q 1288 297 1484 297 
Q 1619 297 1789 381 
Q 1959 466 2194 703 
L 2194 2325 
Q 2194 2569 2105 2655 
Q 2016 2741 1734 2747 
L 1734 2863 
L 2709 2863 
z
" transform="scale(0.015625)"/>
      <path id="TimesNewRomanPSMT-6d" d="M 1050 2338 
Q 1363 2650 1419 2697 
Q 1559 2816 1721 2881 
Q 1884 2947 2044 2947 
Q 2313 2947 2506 2790 
Q 2700 2634 2766 2338 
Q 3088 2713 3309 2830 
Q 3531 2947 3766 2947 
Q 3994 2947 4170 2830 
Q 4347 2713 4450 2447 
Q 4519 2266 4519 1878 
L 4519 647 
Q 4519 378 4559 278 
Q 4591 209 4675 161 
Q 4759 113 4950 113 
L 4950 0 
L 3538 0 
L 3538 113 
L 3597 113 
Q 3781 113 3884 184 
Q 3956 234 3988 344 
Q 4000 397 4000 647 
L 4000 1878 
Q 4000 2228 3916 2372 
Q 3794 2572 3525 2572 
Q 3359 2572 3192 2489 
Q 3025 2406 2788 2181 
L 2781 2147 
L 2788 2013 
L 2788 647 
Q 2788 353 2820 281 
Q 2853 209 2943 161 
Q 3034 113 3253 113 
L 3253 0 
L 1806 0 
L 1806 113 
Q 2044 113 2133 169 
Q 2222 225 2256 338 
Q 2272 391 2272 647 
L 2272 1878 
Q 2272 2228 2169 2381 
Q 2031 2581 1784 2581 
Q 1616 2581 1450 2491 
Q 1191 2353 1050 2181 
L 1050 647 
Q 1050 366 1089 281 
Q 1128 197 1204 155 
Q 1281 113 1516 113 
L 1516 0 
L 100 0 
L 100 113 
Q 297 113 375 155 
Q 453 197 493 289 
Q 534 381 534 647 
L 534 1741 
Q 534 2213 506 2350 
Q 484 2453 437 2492 
Q 391 2531 309 2531 
Q 222 2531 100 2484 
L 53 2597 
L 916 2947 
L 1050 2947 
L 1050 2338 
z
" transform="scale(0.015625)"/>
      <path id="TimesNewRomanPSMT-6e" d="M 1034 2341 
Q 1538 2947 1994 2947 
Q 2228 2947 2397 2830 
Q 2566 2713 2666 2444 
Q 2734 2256 2734 1869 
L 2734 647 
Q 2734 375 2778 278 
Q 2813 200 2889 156 
Q 2966 113 3172 113 
L 3172 0 
L 1756 0 
L 1756 113 
L 1816 113 
Q 2016 113 2095 173 
Q 2175 234 2206 353 
Q 2219 400 2219 647 
L 2219 1819 
Q 2219 2209 2117 2386 
Q 2016 2563 1775 2563 
Q 1403 2563 1034 2156 
L 1034 647 
Q 1034 356 1069 288 
Q 1113 197 1189 155 
Q 1266 113 1500 113 
L 1500 0 
L 84 0 
L 84 113 
L 147 113 
Q 366 113 442 223 
Q 519 334 519 647 
L 519 1709 
Q 519 2225 495 2337 
Q 472 2450 423 2490 
Q 375 2531 294 2531 
Q 206 2531 84 2484 
L 38 2597 
L 900 2947 
L 1034 2947 
L 1034 2341 
z
" transform="scale(0.015625)"/>
      <path id="TimesNewRomanPSMT-69" d="M 928 4444 
Q 1059 4444 1151 4351 
Q 1244 4259 1244 4128 
Q 1244 3997 1151 3903 
Q 1059 3809 928 3809 
Q 797 3809 703 3903 
Q 609 3997 609 4128 
Q 609 4259 701 4351 
Q 794 4444 928 4444 
z
M 1188 2947 
L 1188 647 
Q 1188 378 1227 289 
Q 1266 200 1342 156 
Q 1419 113 1622 113 
L 1622 0 
L 231 0 
L 231 113 
Q 441 113 512 153 
Q 584 194 626 287 
Q 669 381 669 647 
L 669 1750 
Q 669 2216 641 2353 
Q 619 2453 572 2492 
Q 525 2531 444 2531 
Q 356 2531 231 2484 
L 188 2597 
L 1050 2947 
L 1188 2947 
z
" transform="scale(0.015625)"/>
      <path id="TimesNewRomanPSMT-20" transform="scale(0.015625)"/>
      <path id="TimesNewRomanPSMT-47" d="M 3928 4334 
L 4038 2997 
L 3928 2997 
Q 3763 3497 3500 3750 
Q 3122 4116 2528 4116 
Q 1719 4116 1297 3475 
Q 944 2934 944 2188 
Q 944 1581 1178 1081 
Q 1413 581 1792 348 
Q 2172 116 2572 116 
Q 2806 116 3025 175 
Q 3244 234 3447 350 
L 3447 1575 
Q 3447 1894 3398 1992 
Q 3350 2091 3248 2142 
Q 3147 2194 2891 2194 
L 2891 2313 
L 4531 2313 
L 4531 2194 
L 4453 2194 
Q 4209 2194 4119 2031 
Q 4056 1916 4056 1575 
L 4056 278 
Q 3697 84 3347 -6 
Q 2997 -97 2569 -97 
Q 1341 -97 703 691 
Q 225 1281 225 2053 
Q 225 2613 494 3125 
Q 813 3734 1369 4063 
Q 1834 4334 2469 4334 
Q 2700 4334 2889 4296 
Q 3078 4259 3425 4131 
Q 3600 4066 3659 4066 
Q 3719 4066 3761 4120 
Q 3803 4175 3813 4334 
L 3928 4334 
z
" transform="scale(0.015625)"/>
      <path id="TimesNewRomanPSMT-76" d="M 53 2863 
L 1400 2863 
L 1400 2747 
L 1313 2747 
Q 1191 2747 1127 2687 
Q 1063 2628 1063 2528 
Q 1063 2419 1128 2269 
L 1794 688 
L 2463 2328 
Q 2534 2503 2534 2594 
Q 2534 2638 2509 2666 
Q 2475 2713 2422 2730 
Q 2369 2747 2206 2747 
L 2206 2863 
L 3141 2863 
L 3141 2747 
Q 2978 2734 2916 2681 
Q 2806 2588 2719 2369 
L 1703 -88 
L 1575 -88 
L 553 2328 
Q 484 2497 421 2570 
Q 359 2644 263 2694 
Q 209 2722 53 2747 
L 53 2863 
z
" transform="scale(0.015625)"/>
      <path id="TimesNewRomanPSMT-67" d="M 966 1044 
Q 703 1172 562 1401 
Q 422 1631 422 1909 
Q 422 2334 742 2640 
Q 1063 2947 1563 2947 
Q 1972 2947 2272 2747 
L 2878 2747 
Q 3013 2747 3034 2739 
Q 3056 2731 3066 2713 
Q 3084 2684 3084 2613 
Q 3084 2531 3069 2500 
Q 3059 2484 3036 2475 
Q 3013 2466 2878 2466 
L 2506 2466 
Q 2681 2241 2681 1891 
Q 2681 1491 2375 1206 
Q 2069 922 1553 922 
Q 1341 922 1119 984 
Q 981 866 932 777 
Q 884 688 884 625 
Q 884 572 936 522 
Q 988 472 1138 450 
Q 1225 438 1575 428 
Q 2219 413 2409 384 
Q 2700 344 2873 169 
Q 3047 -6 3047 -263 
Q 3047 -616 2716 -925 
Q 2228 -1381 1444 -1381 
Q 841 -1381 425 -1109 
Q 191 -953 191 -784 
Q 191 -709 225 -634 
Q 278 -519 444 -313 
Q 466 -284 763 25 
Q 600 122 533 198 
Q 466 275 466 372 
Q 466 481 555 628 
Q 644 775 966 1044 
z
M 1509 2797 
Q 1278 2797 1122 2612 
Q 966 2428 966 2047 
Q 966 1553 1178 1281 
Q 1341 1075 1591 1075 
Q 1828 1075 1981 1253 
Q 2134 1431 2134 1813 
Q 2134 2309 1919 2591 
Q 1759 2797 1509 2797 
z
M 934 0 
Q 788 -159 713 -296 
Q 638 -434 638 -550 
Q 638 -700 819 -813 
Q 1131 -1006 1722 -1006 
Q 2284 -1006 2551 -807 
Q 2819 -609 2819 -384 
Q 2819 -222 2659 -153 
Q 2497 -84 2016 -72 
Q 1313 -53 934 0 
z
" transform="scale(0.015625)"/>
      <path id="TimesNewRomanPSMT-52" d="M 4325 0 
L 3194 0 
L 1759 1981 
Q 1600 1975 1500 1975 
Q 1459 1975 1412 1976 
Q 1366 1978 1316 1981 
L 1316 750 
Q 1316 350 1403 253 
Q 1522 116 1759 116 
L 1925 116 
L 1925 0 
L 109 0 
L 109 116 
L 269 116 
Q 538 116 653 291 
Q 719 388 719 750 
L 719 3488 
Q 719 3888 631 3984 
Q 509 4122 269 4122 
L 109 4122 
L 109 4238 
L 1653 4238 
Q 2328 4238 2648 4139 
Q 2969 4041 3192 3777 
Q 3416 3513 3416 3147 
Q 3416 2756 3161 2468 
Q 2906 2181 2372 2063 
L 3247 847 
Q 3547 428 3762 290 
Q 3978 153 4325 116 
L 4325 0 
z
M 1316 2178 
Q 1375 2178 1419 2176 
Q 1463 2175 1491 2175 
Q 2097 2175 2405 2437 
Q 2713 2700 2713 3106 
Q 2713 3503 2464 3751 
Q 2216 4000 1806 4000 
Q 1625 4000 1316 3941 
L 1316 2178 
z
" transform="scale(0.015625)"/>
      <path id="TimesNewRomanPSMT-74" d="M 1031 3803 
L 1031 2863 
L 1700 2863 
L 1700 2644 
L 1031 2644 
L 1031 788 
Q 1031 509 1111 412 
Q 1191 316 1316 316 
Q 1419 316 1516 380 
Q 1613 444 1666 569 
L 1788 569 
Q 1678 263 1478 108 
Q 1278 -47 1066 -47 
Q 922 -47 784 33 
Q 647 113 581 261 
Q 516 409 516 719 
L 516 2644 
L 63 2644 
L 63 2747 
Q 234 2816 414 2980 
Q 594 3144 734 3369 
Q 806 3488 934 3803 
L 1031 3803 
z
" transform="scale(0.015625)"/>
      <path id="TimesNewRomanPSMT-66" d="M 1319 2638 
L 1319 756 
Q 1319 356 1406 250 
Q 1522 113 1716 113 
L 1975 113 
L 1975 0 
L 266 0 
L 266 113 
L 394 113 
Q 519 113 622 175 
Q 725 238 764 344 
Q 803 450 803 756 
L 803 2638 
L 247 2638 
L 247 2863 
L 803 2863 
L 803 3050 
Q 803 3478 940 3775 
Q 1078 4072 1361 4255 
Q 1644 4438 1997 4438 
Q 2325 4438 2600 4225 
Q 2781 4084 2781 3909 
Q 2781 3816 2700 3733 
Q 2619 3650 2525 3650 
Q 2453 3650 2373 3701 
Q 2294 3753 2178 3923 
Q 2063 4094 1966 4153 
Q 1869 4213 1750 4213 
Q 1606 4213 1506 4136 
Q 1406 4059 1362 3898 
Q 1319 3738 1319 3069 
L 1319 2863 
L 2056 2863 
L 2056 2638 
L 1319 2638 
z
" transform="scale(0.015625)"/>
      <path id="TimesNewRomanPSMT-6f" d="M 1600 2947 
Q 2250 2947 2644 2453 
Q 2978 2031 2978 1484 
Q 2978 1100 2793 706 
Q 2609 313 2286 112 
Q 1963 -88 1566 -88 
Q 919 -88 538 428 
Q 216 863 216 1403 
Q 216 1797 411 2186 
Q 606 2575 925 2761 
Q 1244 2947 1600 2947 
z
M 1503 2744 
Q 1338 2744 1170 2645 
Q 1003 2547 900 2300 
Q 797 2053 797 1666 
Q 797 1041 1045 587 
Q 1294 134 1700 134 
Q 2003 134 2200 384 
Q 2397 634 2397 1244 
Q 2397 2006 2069 2444 
Q 1847 2744 1503 2744 
z
" transform="scale(0.015625)"/>
      <path id="TimesNewRomanPSMT-34" d="M 2978 1563 
L 2978 1119 
L 2409 1119 
L 2409 0 
L 1894 0 
L 1894 1119 
L 100 1119 
L 100 1519 
L 2066 4325 
L 2409 4325 
L 2409 1563 
L 2978 1563 
z
M 1894 1563 
L 1894 3666 
L 406 1563 
L 1894 1563 
z
" transform="scale(0.015625)"/>
      <path id="TimesNewRomanPSMT-28" d="M 1988 -1253 
L 1988 -1369 
Q 1516 -1131 1200 -813 
Q 750 -359 506 256 
Q 263 872 263 1534 
Q 263 2503 741 3301 
Q 1219 4100 1988 4444 
L 1988 4313 
Q 1603 4100 1356 3731 
Q 1109 3363 987 2797 
Q 866 2231 866 1616 
Q 866 947 969 400 
Q 1050 -31 1165 -292 
Q 1281 -553 1476 -793 
Q 1672 -1034 1988 -1253 
z
" transform="scale(0.015625)"/>
      <path id="TimesNewRomanPSMT-25" d="M 4350 4334 
L 1263 -175 
L 984 -175 
L 4072 4334 
L 4350 4334 
z
M 1138 4334 
Q 1559 4334 1792 3984 
Q 2025 3634 2025 3181 
Q 2025 2638 1762 2341 
Q 1500 2044 1131 2044 
Q 884 2044 678 2180 
Q 472 2316 348 2584 
Q 225 2853 225 3181 
Q 225 3509 350 3786 
Q 475 4063 692 4198 
Q 909 4334 1138 4334 
z
M 1128 4159 
Q 969 4159 845 3971 
Q 722 3784 722 3184 
Q 722 2750 791 2522 
Q 844 2350 956 2256 
Q 1022 2200 1119 2200 
Q 1269 2200 1375 2363 
Q 1531 2603 1531 3166 
Q 1531 3759 1378 4000 
Q 1278 4159 1128 4159 
z
M 4206 2103 
Q 4428 2103 4648 1962 
Q 4869 1822 4989 1553 
Q 5109 1284 5109 963 
Q 5109 409 4843 117 
Q 4578 -175 4216 -175 
Q 3988 -175 3773 -34 
Q 3559 106 3436 367 
Q 3313 628 3313 963 
Q 3313 1291 3436 1562 
Q 3559 1834 3773 1968 
Q 3988 2103 4206 2103 
z
M 4209 1938 
Q 4059 1938 3950 1769 
Q 3809 1550 3809 941 
Q 3809 381 3953 159 
Q 4059 0 4209 0 
Q 4353 0 4466 172 
Q 4616 400 4616 956 
Q 4616 1544 4466 1778 
Q 4363 1938 4209 1938 
z
" transform="scale(0.015625)"/>
      <path id="TimesNewRomanPSMT-29" d="M 144 4313 
L 144 4444 
Q 619 4209 934 3891 
Q 1381 3434 1625 2820 
Q 1869 2206 1869 1541 
Q 1869 572 1392 -226 
Q 916 -1025 144 -1369 
L 144 -1253 
Q 528 -1038 776 -670 
Q 1025 -303 1145 264 
Q 1266 831 1266 1447 
Q 1266 2113 1163 2663 
Q 1084 3094 967 3353 
Q 850 3613 656 3853 
Q 463 4094 144 4313 
z
" transform="scale(0.015625)"/>
     </defs>
     <use xlink:href="#TimesNewRomanPSMT-41"/>
     <use xlink:href="#TimesNewRomanPSMT-6c" transform="translate(72.216797 0)"/>
     <use xlink:href="#TimesNewRomanPSMT-75" transform="translate(100 0)"/>
     <use xlink:href="#TimesNewRomanPSMT-6d" transform="translate(150 0)"/>
     <use xlink:href="#TimesNewRomanPSMT-6e" transform="translate(227.783203 0)"/>
     <use xlink:href="#TimesNewRomanPSMT-69" transform="translate(277.783203 0)"/>
     <use xlink:href="#TimesNewRomanPSMT-20" transform="translate(305.566406 0)"/>
     <use xlink:href="#TimesNewRomanPSMT-47" transform="translate(330.566406 0)"/>
     <use xlink:href="#TimesNewRomanPSMT-69" transform="translate(402.783203 0)"/>
     <use xlink:href="#TimesNewRomanPSMT-76" transform="translate(430.566406 0)"/>
     <use xlink:href="#TimesNewRomanPSMT-69" transform="translate(480.566406 0)"/>
     <use xlink:href="#TimesNewRomanPSMT-6e" transform="translate(508.349609 0)"/>
     <use xlink:href="#TimesNewRomanPSMT-67" transform="translate(558.349609 0)"/>
     <use xlink:href="#TimesNewRomanPSMT-20" transform="translate(608.349609 0)"/>
     <use xlink:href="#TimesNewRomanPSMT-52" transform="translate(633.349609 0)"/>
     <use xlink:href="#TimesNewRomanPSMT-61" transform="translate(700.048828 0)"/>
     <use xlink:href="#TimesNewRomanPSMT-74" transform="translate(744.433594 0)"/>
     <use xlink:href="#TimesNewRomanPSMT-65" transform="translate(772.216797 0)"/>
     <use xlink:href="#TimesNewRomanPSMT-20" transform="translate(816.601562 0)"/>
     <use xlink:href="#TimesNewRomanPSMT-66" transform="translate(841.601562 0)"/>
     <use xlink:href="#TimesNewRomanPSMT-72" transform="translate(874.902344 0)"/>
     <use xlink:href="#TimesNewRomanPSMT-6f" transform="translate(908.203125 0)"/>
     <use xlink:href="#TimesNewRomanPSMT-6d" transform="translate(958.203125 0)"/>
     <use xlink:href="#TimesNewRomanPSMT-20" transform="translate(1035.986328 0)"/>
     <use xlink:href="#TimesNewRomanPSMT-32" transform="translate(1060.986328 0)"/>
     <use xlink:href="#TimesNewRomanPSMT-30" transform="translate(1110.986328 0)"/>
     <use xlink:href="#TimesNewRomanPSMT-30" transform="translate(1160.986328 0)"/>
     <use xlink:href="#TimesNewRomanPSMT-35" transform="translate(1210.986328 0)"/>
     <use xlink:href="#TimesNewRomanPSMT-20" transform="translate(1260.986328 0)"/>
     <use xlink:href="#TimesNewRomanPSMT-74" transform="translate(1285.986328 0)"/>
     <use xlink:href="#TimesNewRomanPSMT-6f" transform="translate(1313.769531 0)"/>
     <use xlink:href="#TimesNewRomanPSMT-20" transform="translate(1363.769531 0)"/>
     <use xlink:href="#TimesNewRomanPSMT-32" transform="translate(1388.769531 0)"/>
     <use xlink:href="#TimesNewRomanPSMT-30" transform="translate(1438.769531 0)"/>
     <use xlink:href="#TimesNewRomanPSMT-32" transform="translate(1488.769531 0)"/>
     <use xlink:href="#TimesNewRomanPSMT-34" transform="translate(1538.769531 0)"/>
     <use xlink:href="#TimesNewRomanPSMT-20" transform="translate(1588.769531 0)"/>
     <use xlink:href="#TimesNewRomanPSMT-28" transform="translate(1613.769531 0)"/>
     <use xlink:href="#TimesNewRomanPSMT-25" transform="translate(1647.070312 0)"/>
     <use xlink:href="#TimesNewRomanPSMT-29" transform="translate(1730.371094 0)"/>
     <use xlink:href="#TimesNewRomanPSMT-20" transform="translate(1763.671875 0)"/>
    </g>
   </g>
   <g id="legend_1">
    <g id="patch_7">
     <path d="M 415.667927 156.705625 
L 435.667927 156.705625 
L 435.667927 149.705625 
L 415.667927 149.705625 
z
" style="fill: #1f77b4"/>
    </g>
    <g id="text_13">
     <!-- Meridian Academy Patrons -->
     <g transform="translate(443.667927 156.705625) scale(0.1 -0.1)">
      <defs>
       <path id="TimesNewRomanPSMT-4d" d="M 2619 0 
L 981 3566 
L 981 734 
Q 981 344 1066 247 
Q 1181 116 1431 116 
L 1581 116 
L 1581 0 
L 106 0 
L 106 116 
L 256 116 
Q 525 116 638 278 
Q 706 378 706 734 
L 706 3503 
Q 706 3784 644 3909 
Q 600 4000 483 4061 
Q 366 4122 106 4122 
L 106 4238 
L 1306 4238 
L 2844 922 
L 4356 4238 
L 5556 4238 
L 5556 4122 
L 5409 4122 
Q 5138 4122 5025 3959 
Q 4956 3859 4956 3503 
L 4956 734 
Q 4956 344 5044 247 
Q 5159 116 5409 116 
L 5556 116 
L 5556 0 
L 3756 0 
L 3756 116 
L 3906 116 
Q 4178 116 4288 278 
Q 4356 378 4356 734 
L 4356 3566 
L 2722 0 
L 2619 0 
z
" transform="scale(0.015625)"/>
       <path id="TimesNewRomanPSMT-64" d="M 2222 322 
Q 2013 103 1813 7 
Q 1613 -88 1381 -88 
Q 913 -88 563 304 
Q 213 697 213 1313 
Q 213 1928 600 2439 
Q 988 2950 1597 2950 
Q 1975 2950 2222 2709 
L 2222 3238 
Q 2222 3728 2198 3840 
Q 2175 3953 2125 3993 
Q 2075 4034 2000 4034 
Q 1919 4034 1784 3984 
L 1744 4094 
L 2597 4444 
L 2738 4444 
L 2738 1134 
Q 2738 631 2761 520 
Q 2784 409 2836 365 
Q 2888 322 2956 322 
Q 3041 322 3181 375 
L 3216 266 
L 2366 -88 
L 2222 -88 
L 2222 322 
z
M 2222 541 
L 2222 2016 
Q 2203 2228 2109 2403 
Q 2016 2578 1861 2667 
Q 1706 2756 1559 2756 
Q 1284 2756 1069 2509 
Q 784 2184 784 1559 
Q 784 928 1059 592 
Q 1334 256 1672 256 
Q 1956 256 2222 541 
z
" transform="scale(0.015625)"/>
       <path id="TimesNewRomanPSMT-63" d="M 2631 1088 
Q 2516 522 2178 217 
Q 1841 -88 1431 -88 
Q 944 -88 581 321 
Q 219 731 219 1428 
Q 219 2103 620 2525 
Q 1022 2947 1584 2947 
Q 2006 2947 2278 2723 
Q 2550 2500 2550 2259 
Q 2550 2141 2473 2067 
Q 2397 1994 2259 1994 
Q 2075 1994 1981 2113 
Q 1928 2178 1911 2362 
Q 1894 2547 1784 2644 
Q 1675 2738 1481 2738 
Q 1169 2738 978 2506 
Q 725 2200 725 1697 
Q 725 1184 976 792 
Q 1228 400 1656 400 
Q 1963 400 2206 609 
Q 2378 753 2541 1131 
L 2631 1088 
z
" transform="scale(0.015625)"/>
       <path id="TimesNewRomanPSMT-79" d="M 38 2863 
L 1372 2863 
L 1372 2747 
L 1306 2747 
Q 1166 2747 1095 2686 
Q 1025 2625 1025 2534 
Q 1025 2413 1128 2197 
L 1825 753 
L 2466 2334 
Q 2519 2463 2519 2588 
Q 2519 2644 2497 2672 
Q 2472 2706 2419 2726 
Q 2366 2747 2231 2747 
L 2231 2863 
L 3163 2863 
L 3163 2747 
Q 3047 2734 2984 2696 
Q 2922 2659 2847 2556 
Q 2819 2513 2741 2316 
L 1575 -541 
Q 1406 -956 1132 -1168 
Q 859 -1381 606 -1381 
Q 422 -1381 303 -1275 
Q 184 -1169 184 -1031 
Q 184 -900 270 -820 
Q 356 -741 506 -741 
Q 609 -741 788 -809 
Q 913 -856 944 -856 
Q 1038 -856 1148 -759 
Q 1259 -663 1372 -384 
L 1575 113 
L 547 2272 
Q 500 2369 397 2513 
Q 319 2622 269 2659 
Q 197 2709 38 2747 
L 38 2863 
z
" transform="scale(0.015625)"/>
       <path id="TimesNewRomanPSMT-50" d="M 1313 1984 
L 1313 750 
Q 1313 350 1400 253 
Q 1519 116 1759 116 
L 1922 116 
L 1922 0 
L 106 0 
L 106 116 
L 266 116 
Q 534 116 650 291 
Q 713 388 713 750 
L 713 3488 
Q 713 3888 628 3984 
Q 506 4122 266 4122 
L 106 4122 
L 106 4238 
L 1659 4238 
Q 2228 4238 2556 4120 
Q 2884 4003 3109 3725 
Q 3334 3447 3334 3066 
Q 3334 2547 2992 2222 
Q 2650 1897 2025 1897 
Q 1872 1897 1694 1919 
Q 1516 1941 1313 1984 
z
M 1313 2163 
Q 1478 2131 1606 2115 
Q 1734 2100 1825 2100 
Q 2150 2100 2386 2351 
Q 2622 2603 2622 3003 
Q 2622 3278 2509 3514 
Q 2397 3750 2190 3867 
Q 1984 3984 1722 3984 
Q 1563 3984 1313 3925 
L 1313 2163 
z
" transform="scale(0.015625)"/>
       <path id="TimesNewRomanPSMT-73" d="M 2050 2947 
L 2050 1972 
L 1947 1972 
Q 1828 2431 1642 2597 
Q 1456 2763 1169 2763 
Q 950 2763 815 2647 
Q 681 2531 681 2391 
Q 681 2216 781 2091 
Q 878 1963 1175 1819 
L 1631 1597 
Q 2266 1288 2266 781 
Q 2266 391 1970 151 
Q 1675 -88 1309 -88 
Q 1047 -88 709 6 
Q 606 38 541 38 
Q 469 38 428 -44 
L 325 -44 
L 325 978 
L 428 978 
Q 516 541 762 319 
Q 1009 97 1316 97 
Q 1531 97 1667 223 
Q 1803 350 1803 528 
Q 1803 744 1651 891 
Q 1500 1038 1047 1263 
Q 594 1488 453 1669 
Q 313 1847 313 2119 
Q 313 2472 555 2709 
Q 797 2947 1181 2947 
Q 1350 2947 1591 2875 
Q 1750 2828 1803 2828 
Q 1853 2828 1881 2850 
Q 1909 2872 1947 2947 
L 2050 2947 
z
" transform="scale(0.015625)"/>
      </defs>
      <use xlink:href="#TimesNewRomanPSMT-4d"/>
      <use xlink:href="#TimesNewRomanPSMT-65" transform="translate(88.916016 0)"/>
      <use xlink:href="#TimesNewRomanPSMT-72" transform="translate(133.300781 0)"/>
      <use xlink:href="#TimesNewRomanPSMT-69" transform="translate(166.601562 0)"/>
      <use xlink:href="#TimesNewRomanPSMT-64" transform="translate(194.384766 0)"/>
      <use xlink:href="#TimesNewRomanPSMT-69" transform="translate(244.384766 0)"/>
      <use xlink:href="#TimesNewRomanPSMT-61" transform="translate(272.167969 0)"/>
      <use xlink:href="#TimesNewRomanPSMT-6e" transform="translate(316.552734 0)"/>
      <use xlink:href="#TimesNewRomanPSMT-20" transform="translate(366.552734 0)"/>
      <use xlink:href="#TimesNewRomanPSMT-41" transform="translate(386.052734 0)"/>
      <use xlink:href="#TimesNewRomanPSMT-63" transform="translate(458.269531 0)"/>
      <use xlink:href="#TimesNewRomanPSMT-61" transform="translate(502.654297 0)"/>
      <use xlink:href="#TimesNewRomanPSMT-64" transform="translate(547.039062 0)"/>
      <use xlink:href="#TimesNewRomanPSMT-65" transform="translate(597.039062 0)"/>
      <use xlink:href="#TimesNewRomanPSMT-6d" transform="translate(641.423828 0)"/>
      <use xlink:href="#TimesNewRomanPSMT-79" transform="translate(719.207031 0)"/>
      <use xlink:href="#TimesNewRomanPSMT-20" transform="translate(769.207031 0)"/>
      <use xlink:href="#TimesNewRomanPSMT-50" transform="translate(794.207031 0)"/>
      <use xlink:href="#TimesNewRomanPSMT-61" transform="translate(849.822266 0)"/>
      <use xlink:href="#TimesNewRomanPSMT-74" transform="translate(894.207031 0)"/>
      <use xlink:href="#TimesNewRomanPSMT-72" transform="translate(921.990234 0)"/>
      <use xlink:href="#TimesNewRomanPSMT-6f" transform="translate(955.291016 0)"/>
      <use xlink:href="#TimesNewRomanPSMT-6e" transform="translate(1005.291016 0)"/>
      <use xlink:href="#TimesNewRomanPSMT-73" transform="translate(1055.291016 0)"/>
     </g>
    </g>
    <g id="patch_8">
     <path d="M 415.667927 170.863437 
L 435.667927 170.863437 
L 435.667927 163.863437 
L 415.667927 163.863437 
z
" style="fill: #aec7e8"/>
    </g>
    <g id="text_14">
     <!-- Silverhaven Polytechnic Fund -->
     <g transform="translate(443.667927 170.863437) scale(0.1 -0.1)">
      <defs>
       <path id="TimesNewRomanPSMT-53" d="M 2934 4334 
L 2934 2869 
L 2819 2869 
Q 2763 3291 2617 3541 
Q 2472 3791 2203 3937 
Q 1934 4084 1647 4084 
Q 1322 4084 1109 3886 
Q 897 3688 897 3434 
Q 897 3241 1031 3081 
Q 1225 2847 1953 2456 
Q 2547 2138 2764 1967 
Q 2981 1797 3098 1565 
Q 3216 1334 3216 1081 
Q 3216 600 2842 251 
Q 2469 -97 1881 -97 
Q 1697 -97 1534 -69 
Q 1438 -53 1133 45 
Q 828 144 747 144 
Q 669 144 623 97 
Q 578 50 556 -97 
L 441 -97 
L 441 1356 
L 556 1356 
Q 638 900 775 673 
Q 913 447 1195 297 
Q 1478 147 1816 147 
Q 2206 147 2432 353 
Q 2659 559 2659 841 
Q 2659 997 2573 1156 
Q 2488 1316 2306 1453 
Q 2184 1547 1640 1851 
Q 1097 2156 867 2337 
Q 638 2519 519 2737 
Q 400 2956 400 3219 
Q 400 3675 750 4004 
Q 1100 4334 1641 4334 
Q 1978 4334 2356 4169 
Q 2531 4091 2603 4091 
Q 2684 4091 2736 4139 
Q 2788 4188 2819 4334 
L 2934 4334 
z
" transform="scale(0.015625)"/>
       <path id="TimesNewRomanPSMT-68" d="M 1041 4444 
L 1041 2350 
Q 1388 2731 1591 2839 
Q 1794 2947 1997 2947 
Q 2241 2947 2416 2812 
Q 2591 2678 2675 2391 
Q 2734 2191 2734 1659 
L 2734 647 
Q 2734 375 2778 275 
Q 2809 200 2884 156 
Q 2959 113 3159 113 
L 3159 0 
L 1753 0 
L 1753 113 
L 1819 113 
Q 2019 113 2097 173 
Q 2175 234 2206 353 
Q 2216 403 2216 647 
L 2216 1659 
Q 2216 2128 2167 2275 
Q 2119 2422 2012 2495 
Q 1906 2569 1756 2569 
Q 1603 2569 1437 2487 
Q 1272 2406 1041 2159 
L 1041 647 
Q 1041 353 1073 281 
Q 1106 209 1195 161 
Q 1284 113 1503 113 
L 1503 0 
L 84 0 
L 84 113 
Q 275 113 384 172 
Q 447 203 484 290 
Q 522 378 522 647 
L 522 3238 
Q 522 3728 498 3840 
Q 475 3953 426 3993 
Q 378 4034 297 4034 
Q 231 4034 84 3984 
L 41 4094 
L 897 4444 
L 1041 4444 
z
" transform="scale(0.015625)"/>
       <path id="TimesNewRomanPSMT-46" d="M 1309 4006 
L 1309 2341 
L 2081 2341 
Q 2347 2341 2470 2458 
Q 2594 2575 2634 2922 
L 2750 2922 
L 2750 1488 
L 2634 1488 
Q 2631 1734 2570 1850 
Q 2509 1966 2401 2023 
Q 2294 2081 2081 2081 
L 1309 2081 
L 1309 750 
Q 1309 428 1350 325 
Q 1381 247 1481 191 
Q 1619 116 1769 116 
L 1922 116 
L 1922 0 
L 103 0 
L 103 116 
L 253 116 
Q 516 116 634 269 
Q 709 369 709 750 
L 709 3488 
Q 709 3809 669 3913 
Q 638 3991 541 4047 
Q 406 4122 253 4122 
L 103 4122 
L 103 4238 
L 3256 4238 
L 3297 3306 
L 3188 3306 
Q 3106 3603 2998 3742 
Q 2891 3881 2733 3943 
Q 2575 4006 2244 4006 
L 1309 4006 
z
" transform="scale(0.015625)"/>
      </defs>
      <use xlink:href="#TimesNewRomanPSMT-53"/>
      <use xlink:href="#TimesNewRomanPSMT-69" transform="translate(55.615234 0)"/>
      <use xlink:href="#TimesNewRomanPSMT-6c" transform="translate(83.398438 0)"/>
      <use xlink:href="#TimesNewRomanPSMT-76" transform="translate(111.181641 0)"/>
      <use xlink:href="#TimesNewRomanPSMT-65" transform="translate(161.181641 0)"/>
      <use xlink:href="#TimesNewRomanPSMT-72" transform="translate(205.566406 0)"/>
      <use xlink:href="#TimesNewRomanPSMT-68" transform="translate(238.867188 0)"/>
      <use xlink:href="#TimesNewRomanPSMT-61" transform="translate(288.867188 0)"/>
      <use xlink:href="#TimesNewRomanPSMT-76" transform="translate(333.251953 0)"/>
      <use xlink:href="#TimesNewRomanPSMT-65" transform="translate(383.251953 0)"/>
      <use xlink:href="#TimesNewRomanPSMT-6e" transform="translate(427.636719 0)"/>
      <use xlink:href="#TimesNewRomanPSMT-20" transform="translate(477.636719 0)"/>
      <use xlink:href="#TimesNewRomanPSMT-50" transform="translate(502.636719 0)"/>
      <use xlink:href="#TimesNewRomanPSMT-6f" transform="translate(558.251953 0)"/>
      <use xlink:href="#TimesNewRomanPSMT-6c" transform="translate(608.251953 0)"/>
      <use xlink:href="#TimesNewRomanPSMT-79" transform="translate(636.035156 0)"/>
      <use xlink:href="#TimesNewRomanPSMT-74" transform="translate(686.035156 0)"/>
      <use xlink:href="#TimesNewRomanPSMT-65" transform="translate(713.818359 0)"/>
      <use xlink:href="#TimesNewRomanPSMT-63" transform="translate(758.203125 0)"/>
      <use xlink:href="#TimesNewRomanPSMT-68" transform="translate(802.587891 0)"/>
      <use xlink:href="#TimesNewRomanPSMT-6e" transform="translate(852.587891 0)"/>
      <use xlink:href="#TimesNewRomanPSMT-69" transform="translate(902.587891 0)"/>
      <use xlink:href="#TimesNewRomanPSMT-63" transform="translate(930.371094 0)"/>
      <use xlink:href="#TimesNewRomanPSMT-20" transform="translate(974.755859 0)"/>
      <use xlink:href="#TimesNewRomanPSMT-46" transform="translate(999.755859 0)"/>
      <use xlink:href="#TimesNewRomanPSMT-75" transform="translate(1055.371094 0)"/>
      <use xlink:href="#TimesNewRomanPSMT-6e" transform="translate(1105.371094 0)"/>
      <use xlink:href="#TimesNewRomanPSMT-64" transform="translate(1155.371094 0)"/>
     </g>
    </g>
    <g id="patch_9">
     <path d="M 415.667927 185.02125 
L 435.667927 185.02125 
L 435.667927 178.02125 
L 415.667927 178.02125 
z
" style="fill: #ff7f0e"/>
    </g>
    <g id="text_15">
     <!-- Celestial College Graduates -->
     <g transform="translate(443.667927 185.02125) scale(0.1 -0.1)">
      <defs>
       <path id="TimesNewRomanPSMT-43" d="M 3853 4334 
L 3950 2894 
L 3853 2894 
Q 3659 3541 3300 3825 
Q 2941 4109 2438 4109 
Q 2016 4109 1675 3895 
Q 1334 3681 1139 3212 
Q 944 2744 944 2047 
Q 944 1472 1128 1050 
Q 1313 628 1683 403 
Q 2053 178 2528 178 
Q 2941 178 3256 354 
Q 3572 531 3950 1056 
L 4047 994 
Q 3728 428 3303 165 
Q 2878 -97 2294 -97 
Q 1241 -97 663 684 
Q 231 1266 231 2053 
Q 231 2688 515 3219 
Q 800 3750 1298 4042 
Q 1797 4334 2388 4334 
Q 2847 4334 3294 4109 
Q 3425 4041 3481 4041 
Q 3566 4041 3628 4100 
Q 3709 4184 3744 4334 
L 3853 4334 
z
" transform="scale(0.015625)"/>
      </defs>
      <use xlink:href="#TimesNewRomanPSMT-43"/>
      <use xlink:href="#TimesNewRomanPSMT-65" transform="translate(66.699219 0)"/>
      <use xlink:href="#TimesNewRomanPSMT-6c" transform="translate(111.083984 0)"/>
      <use xlink:href="#TimesNewRomanPSMT-65" transform="translate(138.867188 0)"/>
      <use xlink:href="#TimesNewRomanPSMT-73" transform="translate(183.251953 0)"/>
      <use xlink:href="#TimesNewRomanPSMT-74" transform="translate(222.167969 0)"/>
      <use xlink:href="#TimesNewRomanPSMT-69" transform="translate(249.951172 0)"/>
      <use xlink:href="#TimesNewRomanPSMT-61" transform="translate(277.734375 0)"/>
      <use xlink:href="#TimesNewRomanPSMT-6c" transform="translate(322.119141 0)"/>
      <use xlink:href="#TimesNewRomanPSMT-20" transform="translate(349.902344 0)"/>
      <use xlink:href="#TimesNewRomanPSMT-43" transform="translate(374.902344 0)"/>
      <use xlink:href="#TimesNewRomanPSMT-6f" transform="translate(441.601562 0)"/>
      <use xlink:href="#TimesNewRomanPSMT-6c" transform="translate(491.601562 0)"/>
      <use xlink:href="#TimesNewRomanPSMT-6c" transform="translate(519.384766 0)"/>
      <use xlink:href="#TimesNewRomanPSMT-65" transform="translate(547.167969 0)"/>
      <use xlink:href="#TimesNewRomanPSMT-67" transform="translate(591.552734 0)"/>
      <use xlink:href="#TimesNewRomanPSMT-65" transform="translate(641.552734 0)"/>
      <use xlink:href="#TimesNewRomanPSMT-20" transform="translate(685.9375 0)"/>
      <use xlink:href="#TimesNewRomanPSMT-47" transform="translate(710.9375 0)"/>
      <use xlink:href="#TimesNewRomanPSMT-72" transform="translate(783.154297 0)"/>
      <use xlink:href="#TimesNewRomanPSMT-61" transform="translate(816.455078 0)"/>
      <use xlink:href="#TimesNewRomanPSMT-64" transform="translate(860.839844 0)"/>
      <use xlink:href="#TimesNewRomanPSMT-75" transform="translate(910.839844 0)"/>
      <use xlink:href="#TimesNewRomanPSMT-61" transform="translate(960.839844 0)"/>
      <use xlink:href="#TimesNewRomanPSMT-74" transform="translate(1005.224609 0)"/>
      <use xlink:href="#TimesNewRomanPSMT-65" transform="translate(1033.007812 0)"/>
      <use xlink:href="#TimesNewRomanPSMT-73" transform="translate(1077.392578 0)"/>
     </g>
    </g>
    <g id="patch_10">
     <path d="M 415.667927 199.179062 
L 435.667927 199.179062 
L 435.667927 192.179062 
L 415.667927 192.179062 
z
" style="fill: #ffbb78"/>
    </g>
    <g id="text_16">
     <!-- Aethelgard Arts Circle -->
     <g transform="translate(443.667927 199.179062) scale(0.1 -0.1)">
      <use xlink:href="#TimesNewRomanPSMT-41"/>
      <use xlink:href="#TimesNewRomanPSMT-65" transform="translate(72.216797 0)"/>
      <use xlink:href="#TimesNewRomanPSMT-74" transform="translate(116.601562 0)"/>
      <use xlink:href="#TimesNewRomanPSMT-68" transform="translate(144.384766 0)"/>
      <use xlink:href="#TimesNewRomanPSMT-65" transform="translate(194.384766 0)"/>
      <use xlink:href="#TimesNewRomanPSMT-6c" transform="translate(238.769531 0)"/>
      <use xlink:href="#TimesNewRomanPSMT-67" transform="translate(266.552734 0)"/>
      <use xlink:href="#TimesNewRomanPSMT-61" transform="translate(316.552734 0)"/>
      <use xlink:href="#TimesNewRomanPSMT-72" transform="translate(360.9375 0)"/>
      <use xlink:href="#TimesNewRomanPSMT-64" transform="translate(394.238281 0)"/>
      <use xlink:href="#TimesNewRomanPSMT-20" transform="translate(444.238281 0)"/>
      <use xlink:href="#TimesNewRomanPSMT-41" transform="translate(463.738281 0)"/>
      <use xlink:href="#TimesNewRomanPSMT-72" transform="translate(535.955078 0)"/>
      <use xlink:href="#TimesNewRomanPSMT-74" transform="translate(569.255859 0)"/>
      <use xlink:href="#TimesNewRomanPSMT-73" transform="translate(597.039062 0)"/>
      <use xlink:href="#TimesNewRomanPSMT-20" transform="translate(635.955078 0)"/>
      <use xlink:href="#TimesNewRomanPSMT-43" transform="translate(660.955078 0)"/>
      <use xlink:href="#TimesNewRomanPSMT-69" transform="translate(727.654297 0)"/>
      <use xlink:href="#TimesNewRomanPSMT-72" transform="translate(755.4375 0)"/>
      <use xlink:href="#TimesNewRomanPSMT-63" transform="translate(788.738281 0)"/>
      <use xlink:href="#TimesNewRomanPSMT-6c" transform="translate(833.123047 0)"/>
      <use xlink:href="#TimesNewRomanPSMT-65" transform="translate(860.90625 0)"/>
     </g>
    </g>
   </g>
  </g>
 </g>
 <defs>
  <clipPath id="p07c0c662cb">
   <rect x="10.091927" y="36.92125" width="388.8" height="277.2"/>
  </clipPath>
 </defs>
</svg>
