<?xml version="1.0" encoding="utf-8" standalone="no"?>
<!DOCTYPE svg PUBLIC "-//W3C//DTD SVG 1.1//EN"
  "http://www.w3.org/Graphics/SVG/1.1/DTD/svg11.dtd">
<svg xmlns:xlink="http://www.w3.org/1999/xlink" width="559.572614pt" height="363.785279pt" viewBox="0 0 559.572614 363.785279" xmlns="http://www.w3.org/2000/svg" version="1.1">
 <metadata>
  <rdf:RDF xmlns:dc="http://purl.org/dc/elements/1.1/" xmlns:cc="http://creativecommons.org/ns#" xmlns:rdf="http://www.w3.org/1999/02/22-rdf-syntax-ns#">
   <cc:Work>
    <dc:type rdf:resource="http://purl.org/dc/dcmitype/StillImage"/>
    <dc:date>2025-05-30T23:45:00.793371</dc:date>
    <dc:format>image/svg+xml</dc:format>
    <dc:creator>
     <cc:Agent>
      <dc:title>Matplotlib v3.10.3, https://matplotlib.org/</dc:title>
     </cc:Agent>
    </dc:creator>
   </cc:Work>
  </rdf:RDF>
 </metadata>
 <defs>
  <style type="text/css">*{stroke-linejoin: round; stroke-linecap: butt}</style>
 </defs>
 <g id="figure_1">
  <g id="patch_1">
   <path d="M 0 363.785279 
L 559.572614 363.785279 
L 559.572614 0 
L 0 0 
z
" style="fill: #ffffff"/>
  </g>
  <g id="axes_1">
   <g id="patch_2">
    <path d="M 10.091927 314.12125 
L 398.891927 314.12125 
L 398.891927 36.92125 
L 10.091927 36.92125 
z
" style="fill: #ffffff"/>
   </g>
   <g id="FillBetweenPolyCollection_1">
    <path d="M 27.764654 203.145211 
L 27.764654 264.759674 
L 29.18415 264.253312 
L 30.603646 263.756877 
L 32.023142 263.271862 
L 33.442639 262.799761 
L 34.862135 262.342065 
L 36.281631 261.90027 
L 37.701127 261.475869 
L 39.120623 261.070354 
L 40.540119 260.685219 
L 41.959616 260.321958 
L 43.379112 259.982065 
L 44.798608 259.667031 
L 46.218104 259.378352 
L 47.6376 259.117519 
L 49.057096 258.886028 
L 50.476593 258.68537 
L 51.896089 258.51704 
L 53.315585 258.382531 
L 54.735081 258.283336 
L 56.154577 258.220948 
L 57.574073 258.196857 
L 58.99357 258.211933 
L 60.413066 258.265853 
L 61.832562 258.358154 
L 63.252058 258.488373 
L 64.671554 258.656048 
L 66.09105 258.860717 
L 67.510547 259.101917 
L 68.930043 259.379187 
L 70.349539 259.692063 
L 71.769035 260.040084 
L 73.188531 260.421477 
L 74.608027 260.826815 
L 76.027524 261.243902 
L 77.44702 261.66054 
L 78.866516 262.064527 
L 80.286012 262.443665 
L 81.705508 262.785752 
L 83.125004 263.078591 
L 84.544501 263.30998 
L 85.963997 263.46772 
L 87.383493 263.540183 
L 88.802989 263.528876 
L 90.222485 263.448445 
L 91.641981 263.314107 
L 93.061478 263.141078 
L 94.480974 262.944575 
L 95.90047 262.739816 
L 97.319966 262.542015 
L 98.739462 262.366391 
L 100.158958 262.228159 
L 101.578455 262.142528 
L 102.997951 262.1183 
L 104.417447 262.146584 
L 105.836943 262.215458 
L 107.256439 262.312999 
L 108.675935 262.427285 
L 110.095432 262.546395 
L 111.514928 262.658406 
L 112.934424 262.751397 
L 114.35392 262.813445 
L 115.773416 262.832628 
L 117.192912 262.79863 
L 118.612409 262.715114 
L 120.031905 262.592942 
L 121.451401 262.443032 
L 122.870897 262.276304 
L 124.290393 262.10368 
L 125.709889 261.936079 
L 127.129386 261.78442 
L 128.548882 261.659625 
L 129.968378 261.572613 
L 131.387874 261.534138 
L 132.80737 261.547433 
L 134.226866 261.605293 
L 135.646363 261.699746 
L 137.065859 261.822818 
L 138.485355 261.966538 
L 139.904851 262.122932 
L 141.324347 262.284026 
L 142.743843 262.441849 
L 144.16334 262.588428 
L 145.582836 262.715789 
L 147.002332 262.818064 
L 148.421828 262.897797 
L 149.841324 262.959639 
L 151.26082 263.008237 
L 152.680317 263.048242 
L 154.099813 263.084303 
L 155.519309 263.121068 
L 156.938805 263.163187 
L 158.358301 263.215309 
L 159.777797 263.282084 
L 161.197294 263.367869 
L 162.61679 263.473079 
L 164.036286 263.595287 
L 165.455782 263.732001 
L 166.875278 263.880731 
L 168.294774 264.038986 
L 169.714271 264.204276 
L 171.133767 264.37411 
L 172.553263 264.545997 
L 173.972759 264.717446 
L 175.392255 264.885992 
L 176.811751 265.052239 
L 178.231248 265.222755 
L 179.650744 265.404791 
L 181.07024 265.605598 
L 182.489736 265.832429 
L 183.909232 266.092534 
L 185.328728 266.393166 
L 186.748225 266.741576 
L 188.167721 267.145016 
L 189.587217 267.610738 
L 191.006713 268.142935 
L 192.426209 268.727944 
L 193.845705 269.34564 
L 195.265202 269.975888 
L 196.684698 270.598552 
L 198.104194 271.193497 
L 199.52369 271.740588 
L 200.943186 272.219691 
L 202.362682 272.61067 
L 203.782179 272.893391 
L 205.201675 273.04864 
L 206.621171 273.078429 
L 208.040667 273.005992 
L 209.460163 272.855485 
L 210.879659 272.651067 
L 212.299156 272.416893 
L 213.718652 272.17712 
L 215.138148 271.955905 
L 216.557644 271.777406 
L 217.97714 271.665779 
L 219.396636 271.645165 
L 220.816133 271.728785 
L 222.235629 271.899681 
L 223.655125 272.135731 
L 225.074621 272.414811 
L 226.494117 272.714796 
L 227.913613 273.013564 
L 229.33311 273.28899 
L 230.752606 273.518951 
L 232.172102 273.681323 
L 233.591598 273.753983 
L 235.011094 273.717434 
L 236.43059 273.575044 
L 237.850087 273.341953 
L 239.269583 273.033401 
L 240.689079 272.664624 
L 242.108575 272.250861 
L 243.528071 271.807351 
L 244.947567 271.34933 
L 246.367064 270.892039 
L 247.78656 270.450714 
L 249.206056 270.040578 
L 250.625552 269.676141 
L 252.045048 269.370928 
L 253.464544 269.138388 
L 254.884041 268.991971 
L 256.303537 268.945129 
L 257.723033 269.011312 
L 259.142529 269.20397 
L 260.562025 269.536554 
L 261.981521 270.022514 
L 263.401018 270.6753 
L 264.820514 271.499173 
L 266.24001 272.461631 
L 267.659506 273.520982 
L 269.079002 274.635532 
L 270.498498 275.763591 
L 271.917995 276.863465 
L 273.337491 277.893463 
L 274.756987 278.811893 
L 276.176483 279.577061 
L 277.595979 280.147276 
L 279.015475 280.484002 
L 280.434972 280.59156 
L 281.854468 280.505156 
L 283.273964 280.260677 
L 284.69346 279.894011 
L 286.112956 279.441047 
L 287.532452 278.937672 
L 288.951949 278.419773 
L 290.371445 277.923239 
L 291.790941 277.483958 
L 293.210437 277.137708 
L 294.629933 276.907131 
L 296.049429 276.789349 
L 297.468926 276.778553 
L 298.888422 276.868933 
L 300.307918 277.054682 
L 301.727414 277.32999 
L 303.14691 277.689048 
L 304.566406 278.126047 
L 305.985903 278.635179 
L 307.405399 279.210633 
L 308.824895 279.845515 
L 310.244391 280.526587 
L 311.663887 281.238312 
L 313.083383 281.965152 
L 314.50288 282.691569 
L 315.922376 283.402026 
L 317.341872 284.080983 
L 318.761368 284.712902 
L 320.180864 285.282246 
L 321.60036 285.773475 
L 323.019857 286.171637 
L 324.439353 286.475261 
L 325.858849 286.696353 
L 327.278345 286.847505 
L 328.697841 286.941313 
L 330.117337 286.990368 
L 331.536834 287.007263 
L 332.95633 287.004593 
L 334.375826 286.994949 
L 335.795322 286.990926 
L 337.214818 287.005112 
L 338.634314 287.046643 
L 340.053811 287.115121 
L 341.473307 287.208513 
L 342.892803 287.324788 
L 344.312299 287.461914 
L 345.731795 287.617858 
L 347.151291 287.790589 
L 348.570788 287.978074 
L 349.990284 288.178282 
L 351.40978 288.389181 
L 352.829276 288.60868 
L 354.248772 288.834184 
L 355.668268 289.062837 
L 357.087765 289.29178 
L 358.507261 289.518154 
L 359.926757 289.739102 
L 361.346253 289.951764 
L 362.765749 290.153283 
L 364.185245 290.340799 
L 365.604742 290.511455 
L 367.024238 290.662393 
L 368.443734 290.790752 
L 369.86323 290.893677 
L 371.282726 290.968306 
L 372.702222 291.011784 
L 374.121719 291.02125 
L 375.541215 290.993847 
L 376.960711 290.926716 
L 378.380207 290.816998 
L 379.799703 290.661836 
L 381.219199 290.458371 
L 381.219199 283.358172 
L 381.219199 283.358172 
L 379.799703 283.765196 
L 378.380207 284.10197 
L 376.960711 284.372942 
L 375.541215 284.582563 
L 374.121719 284.735281 
L 372.702222 284.835547 
L 371.282726 284.887808 
L 369.86323 284.896516 
L 368.443734 284.866119 
L 367.024238 284.801067 
L 365.604742 284.705809 
L 364.185245 284.584795 
L 362.765749 284.442474 
L 361.346253 284.283295 
L 359.926757 284.111708 
L 358.507261 283.932163 
L 357.087765 283.749108 
L 355.668268 283.566994 
L 354.248772 283.390269 
L 352.829276 283.223383 
L 351.40978 283.070747 
L 349.990284 282.932175 
L 348.570788 282.798548 
L 347.151291 282.659722 
L 345.731795 282.505553 
L 344.312299 282.325897 
L 342.892803 282.11061 
L 341.473307 281.849547 
L 340.053811 281.532564 
L 338.634314 281.149518 
L 337.214818 280.690263 
L 335.795322 280.147901 
L 334.375826 279.534481 
L 332.95633 278.868911 
L 331.536834 278.170109 
L 330.117337 277.456992 
L 328.697841 276.748478 
L 327.278345 276.063484 
L 325.858849 275.420927 
L 324.439353 274.839726 
L 323.019857 274.338798 
L 321.60036 273.936345 
L 320.180864 273.634117 
L 318.761368 273.417415 
L 317.341872 273.27082 
L 315.922376 273.178918 
L 314.50288 273.126291 
L 313.083383 273.097524 
L 311.663887 273.0772 
L 310.244391 273.049903 
L 308.824895 273.000216 
L 307.405399 272.912731 
L 305.985903 272.7772 
L 304.566406 272.597638 
L 303.14691 272.380504 
L 301.727414 272.132255 
L 300.307918 271.859347 
L 298.888422 271.56824 
L 297.468926 271.265389 
L 296.049429 270.957253 
L 294.629933 270.650289 
L 293.210437 270.350954 
L 291.790941 270.064909 
L 290.371445 269.790871 
L 288.951949 269.523981 
L 287.532452 269.259354 
L 286.112956 268.992102 
L 284.69346 268.717337 
L 283.273964 268.430174 
L 281.854468 268.125724 
L 280.434972 267.799102 
L 279.015475 267.445418 
L 277.595979 267.059897 
L 276.176483 266.64271 
L 274.756987 266.200896 
L 273.337491 265.742001 
L 271.917995 265.27357 
L 270.498498 264.803148 
L 269.079002 264.338281 
L 267.659506 263.886515 
L 266.24001 263.455395 
L 264.820514 263.052465 
L 263.401018 262.685273 
L 261.981521 262.35967 
L 260.562025 262.074744 
L 259.142529 261.827888 
L 257.723033 261.616496 
L 256.303537 261.437962 
L 254.884041 261.289681 
L 253.464544 261.169045 
L 252.045048 261.073451 
L 250.625552 261.00029 
L 249.206056 260.946958 
L 247.78656 260.910519 
L 246.367064 260.883563 
L 244.947567 260.855457 
L 243.528071 260.815496 
L 242.108575 260.752975 
L 240.689079 260.657189 
L 239.269583 260.517433 
L 237.850087 260.323003 
L 236.43059 260.063193 
L 235.011094 259.727299 
L 233.591598 259.304701 
L 232.172102 258.795133 
L 230.752606 258.218439 
L 229.33311 257.59677 
L 227.913613 256.952281 
L 226.494117 256.307123 
L 225.074621 255.68345 
L 223.655125 255.103415 
L 222.235629 254.58917 
L 220.816133 254.162868 
L 219.396636 253.846662 
L 217.97714 253.657581 
L 216.557644 253.582731 
L 215.138148 253.598384 
L 213.718652 253.6808 
L 212.299156 253.806239 
L 210.879659 253.950959 
L 209.460163 254.09122 
L 208.040667 254.20328 
L 206.621171 254.263399 
L 205.201675 254.247836 
L 203.782179 254.133639 
L 202.362682 253.916004 
L 200.943186 253.608276 
L 199.52369 253.224585 
L 198.104194 252.779066 
L 196.684698 252.285852 
L 195.265202 251.759074 
L 193.845705 251.212866 
L 192.426209 250.661361 
L 191.006713 250.118691 
L 189.587217 249.598985 
L 188.167721 249.113547 
L 186.748225 248.665873 
L 185.328728 248.258122 
L 183.909232 247.892454 
L 182.489736 247.571029 
L 181.07024 247.296006 
L 179.650744 247.069545 
L 178.231248 246.893805 
L 176.811751 246.770946 
L 175.392255 246.703128 
L 173.972759 246.690863 
L 172.553263 246.720335 
L 171.133767 246.77035 
L 169.714271 246.81965 
L 168.294774 246.84698 
L 166.875278 246.831083 
L 165.455782 246.750705 
L 164.036286 246.584588 
L 162.61679 246.311477 
L 161.197294 245.910116 
L 159.777797 245.359662 
L 158.358301 244.658043 
L 156.938805 243.829229 
L 155.519309 242.899105 
L 154.099813 241.893561 
L 152.680317 240.838483 
L 151.26082 239.75976 
L 149.841324 238.683278 
L 148.421828 237.634925 
L 147.002332 236.640589 
L 145.582836 235.726157 
L 144.16334 234.91352 
L 142.743843 234.208579 
L 141.324347 233.613238 
L 139.904851 233.129403 
L 138.485355 232.758978 
L 137.065859 232.503866 
L 135.646363 232.365974 
L 134.226866 232.347204 
L 132.80737 232.449462 
L 131.387874 232.674652 
L 129.968378 233.023012 
L 128.548882 233.472142 
L 127.129386 233.983331 
L 125.709889 234.517507 
L 124.290393 235.035599 
L 122.870897 235.498534 
L 121.451401 235.86724 
L 120.031905 236.102646 
L 118.612409 236.16568 
L 117.192912 236.01727 
L 115.773416 235.618582 
L 114.35392 234.959616 
L 112.934424 234.086371 
L 111.514928 233.051278 
L 110.095432 231.906772 
L 108.675935 230.705283 
L 107.256439 229.499244 
L 105.836943 228.341088 
L 104.417447 227.283246 
L 102.997951 226.378152 
L 101.578455 225.678238 
L 100.158958 225.225109 
L 98.739462 224.997147 
L 97.319966 224.949849 
L 95.90047 225.038682 
L 94.480974 225.21911 
L 93.061478 225.446599 
L 91.641981 225.676615 
L 90.222485 225.864624 
L 88.802989 225.966091 
L 87.383493 225.936482 
L 85.963997 225.732739 
L 84.544501 225.345769 
L 83.125004 224.80044 
L 81.705508 224.123098 
L 80.286012 223.34009 
L 78.866516 222.477761 
L 77.44702 221.562457 
L 76.027524 220.620525 
L 74.608027 219.67831 
L 73.188531 218.762158 
L 71.769035 217.898405 
L 70.349539 217.106055 
L 68.930043 216.383853 
L 67.510547 215.727075 
L 66.09105 215.130999 
L 64.671554 214.5909 
L 63.252058 214.102056 
L 61.832562 213.659742 
L 60.413066 213.259236 
L 58.99357 212.895813 
L 57.574073 212.564751 
L 56.154577 212.261252 
L 54.735081 211.979869 
L 53.315585 211.714822 
L 51.896089 211.460329 
L 50.476593 211.210607 
L 49.057096 210.959873 
L 47.6376 210.702345 
L 46.218104 210.432239 
L 44.798608 210.143774 
L 43.379112 209.831166 
L 41.959616 209.488633 
L 40.540119 209.110391 
L 39.120623 208.690659 
L 37.701127 208.223654 
L 36.281631 207.703592 
L 34.862135 207.124692 
L 33.442639 206.48117 
L 32.023142 205.767243 
L 30.603646 204.97713 
L 29.18415 204.105046 
L 27.764654 203.145211 
z
" clip-path="url(#p52477b23c1)" style="fill: #1f77b4"/>
   </g>
   <g id="FillBetweenPolyCollection_2">
    <path d="M 27.764654 142.24121 
L 27.764654 203.145211 
L 29.18415 204.105046 
L 30.603646 204.97713 
L 32.023142 205.767243 
L 33.442639 206.48117 
L 34.862135 207.124692 
L 36.281631 207.703592 
L 37.701127 208.223654 
L 39.120623 208.690659 
L 40.540119 209.110391 
L 41.959616 209.488633 
L 43.379112 209.831166 
L 44.798608 210.143774 
L 46.218104 210.432239 
L 47.6376 210.702345 
L 49.057096 210.959873 
L 50.476593 211.210607 
L 51.896089 211.460329 
L 53.315585 211.714822 
L 54.735081 211.979869 
L 56.154577 212.261252 
L 57.574073 212.564751 
L 58.99357 212.895813 
L 60.413066 213.259236 
L 61.832562 213.659742 
L 63.252058 214.102056 
L 64.671554 214.5909 
L 66.09105 215.130999 
L 67.510547 215.727075 
L 68.930043 216.383853 
L 70.349539 217.106055 
L 71.769035 217.898405 
L 73.188531 218.762158 
L 74.608027 219.67831 
L 76.027524 220.620525 
L 77.44702 221.562457 
L 78.866516 222.477761 
L 80.286012 223.34009 
L 81.705508 224.123098 
L 83.125004 224.80044 
L 84.544501 225.345769 
L 85.963997 225.732739 
L 87.383493 225.936482 
L 88.802989 225.966091 
L 90.222485 225.864624 
L 91.641981 225.676615 
L 93.061478 225.446599 
L 94.480974 225.21911 
L 95.90047 225.038682 
L 97.319966 224.949849 
L 98.739462 224.997147 
L 100.158958 225.225109 
L 101.578455 225.678238 
L 102.997951 226.378152 
L 104.417447 227.283246 
L 105.836943 228.341088 
L 107.256439 229.499244 
L 108.675935 230.705283 
L 110.095432 231.906772 
L 111.514928 233.051278 
L 112.934424 234.086371 
L 114.35392 234.959616 
L 115.773416 235.618582 
L 117.192912 236.01727 
L 118.612409 236.16568 
L 120.031905 236.102646 
L 121.451401 235.86724 
L 122.870897 235.498534 
L 124.290393 235.035599 
L 125.709889 234.517507 
L 127.129386 233.983331 
L 128.548882 233.472142 
L 129.968378 233.023012 
L 131.387874 232.674652 
L 132.80737 232.449462 
L 134.226866 232.347204 
L 135.646363 232.365974 
L 137.065859 232.503866 
L 138.485355 232.758978 
L 139.904851 233.129403 
L 141.324347 233.613238 
L 142.743843 234.208579 
L 144.16334 234.91352 
L 145.582836 235.726157 
L 147.002332 236.640589 
L 148.421828 237.634925 
L 149.841324 238.683278 
L 151.26082 239.75976 
L 152.680317 240.838483 
L 154.099813 241.893561 
L 155.519309 242.899105 
L 156.938805 243.829229 
L 158.358301 244.658043 
L 159.777797 245.359662 
L 161.197294 245.910116 
L 162.61679 246.311477 
L 164.036286 246.584588 
L 165.455782 246.750705 
L 166.875278 246.831083 
L 168.294774 246.84698 
L 169.714271 246.81965 
L 171.133767 246.77035 
L 172.553263 246.720335 
L 173.972759 246.690863 
L 175.392255 246.703128 
L 176.811751 246.770946 
L 178.231248 246.893805 
L 179.650744 247.069545 
L 181.07024 247.296006 
L 182.489736 247.571029 
L 183.909232 247.892454 
L 185.328728 248.258122 
L 186.748225 248.665873 
L 188.167721 249.113547 
L 189.587217 249.598985 
L 191.006713 250.118691 
L 192.426209 250.661361 
L 193.845705 251.212866 
L 195.265202 251.759074 
L 196.684698 252.285852 
L 198.104194 252.779066 
L 199.52369 253.224585 
L 200.943186 253.608276 
L 202.362682 253.916004 
L 203.782179 254.133639 
L 205.201675 254.247836 
L 206.621171 254.263399 
L 208.040667 254.20328 
L 209.460163 254.09122 
L 210.879659 253.950959 
L 212.299156 253.806239 
L 213.718652 253.6808 
L 215.138148 253.598384 
L 216.557644 253.582731 
L 217.97714 253.657581 
L 219.396636 253.846662 
L 220.816133 254.162868 
L 222.235629 254.58917 
L 223.655125 255.103415 
L 225.074621 255.68345 
L 226.494117 256.307123 
L 227.913613 256.952281 
L 229.33311 257.59677 
L 230.752606 258.218439 
L 232.172102 258.795133 
L 233.591598 259.304701 
L 235.011094 259.727299 
L 236.43059 260.063193 
L 237.850087 260.323003 
L 239.269583 260.517433 
L 240.689079 260.657189 
L 242.108575 260.752975 
L 243.528071 260.815496 
L 244.947567 260.855457 
L 246.367064 260.883563 
L 247.78656 260.910519 
L 249.206056 260.946958 
L 250.625552 261.00029 
L 252.045048 261.073451 
L 253.464544 261.169045 
L 254.884041 261.289681 
L 256.303537 261.437962 
L 257.723033 261.616496 
L 259.142529 261.827888 
L 260.562025 262.074744 
L 261.981521 262.35967 
L 263.401018 262.685273 
L 264.820514 263.052465 
L 266.24001 263.455395 
L 267.659506 263.886515 
L 269.079002 264.338281 
L 270.498498 264.803148 
L 271.917995 265.27357 
L 273.337491 265.742001 
L 274.756987 266.200896 
L 276.176483 266.64271 
L 277.595979 267.059897 
L 279.015475 267.445418 
L 280.434972 267.799102 
L 281.854468 268.125724 
L 283.273964 268.430174 
L 284.69346 268.717337 
L 286.112956 268.992102 
L 287.532452 269.259354 
L 288.951949 269.523981 
L 290.371445 269.790871 
L 291.790941 270.064909 
L 293.210437 270.350954 
L 294.629933 270.650289 
L 296.049429 270.957253 
L 297.468926 271.265389 
L 298.888422 271.56824 
L 300.307918 271.859347 
L 301.727414 272.132255 
L 303.14691 272.380504 
L 304.566406 272.597638 
L 305.985903 272.7772 
L 307.405399 272.912731 
L 308.824895 273.000216 
L 310.244391 273.049903 
L 311.663887 273.0772 
L 313.083383 273.097524 
L 314.50288 273.126291 
L 315.922376 273.178918 
L 317.341872 273.27082 
L 318.761368 273.417415 
L 320.180864 273.634117 
L 321.60036 273.936345 
L 323.019857 274.338798 
L 324.439353 274.839726 
L 325.858849 275.420927 
L 327.278345 276.063484 
L 328.697841 276.748478 
L 330.117337 277.456992 
L 331.536834 278.170109 
L 332.95633 278.868911 
L 334.375826 279.534481 
L 335.795322 280.147901 
L 337.214818 280.690263 
L 338.634314 281.149518 
L 340.053811 281.532564 
L 341.473307 281.849547 
L 342.892803 282.11061 
L 344.312299 282.325897 
L 345.731795 282.505553 
L 347.151291 282.659722 
L 348.570788 282.798548 
L 349.990284 282.932175 
L 351.40978 283.070747 
L 352.829276 283.223383 
L 354.248772 283.390269 
L 355.668268 283.566994 
L 357.087765 283.749108 
L 358.507261 283.932163 
L 359.926757 284.111708 
L 361.346253 284.283295 
L 362.765749 284.442474 
L 364.185245 284.584795 
L 365.604742 284.705809 
L 367.024238 284.801067 
L 368.443734 284.866119 
L 369.86323 284.896516 
L 371.282726 284.887808 
L 372.702222 284.835547 
L 374.121719 284.735281 
L 375.541215 284.582563 
L 376.960711 284.372942 
L 378.380207 284.10197 
L 379.799703 283.765196 
L 381.219199 283.358172 
L 381.219199 160.158988 
L 381.219199 160.158988 
L 379.799703 160.44231 
L 378.380207 160.596923 
L 376.960711 160.635825 
L 375.541215 160.572015 
L 374.121719 160.418492 
L 372.702222 160.188256 
L 371.282726 159.894304 
L 369.86323 159.549637 
L 368.443734 159.167253 
L 367.024238 158.760151 
L 365.604742 158.341331 
L 364.185245 157.92379 
L 362.765749 157.520528 
L 361.346253 157.144544 
L 359.926757 156.808837 
L 358.507261 156.526406 
L 357.087765 156.310249 
L 355.668268 156.173367 
L 354.248772 156.128757 
L 352.829276 156.189419 
L 351.40978 156.368236 
L 349.990284 156.664081 
L 348.570788 157.04862 
L 347.151291 157.49039 
L 345.731795 157.957932 
L 344.312299 158.419782 
L 342.892803 158.844481 
L 341.473307 159.200567 
L 340.053811 159.456578 
L 338.634314 159.581053 
L 337.214818 159.542531 
L 335.795322 159.317064 
L 334.375826 158.924578 
L 332.95633 158.40088 
L 331.536834 157.7818 
L 330.117337 157.103167 
L 328.697841 156.400809 
L 327.278345 155.710556 
L 325.858849 155.068237 
L 324.439353 154.509681 
L 323.019857 154.070717 
L 321.60036 153.786015 
L 320.180864 153.663598 
L 318.761368 153.684838 
L 317.341872 153.829948 
L 315.922376 154.079143 
L 314.50288 154.412637 
L 313.083383 154.810645 
L 311.663887 155.253379 
L 310.244391 155.721054 
L 308.824895 156.193885 
L 307.405399 156.652092 
L 305.985903 157.081083 
L 304.566406 157.480601 
L 303.14691 157.852837 
L 301.727414 158.199988 
L 300.307918 158.524248 
L 298.888422 158.82781 
L 297.468926 159.11287 
L 296.049429 159.381621 
L 294.629933 159.636259 
L 293.210437 159.878978 
L 291.790941 160.111599 
L 290.371445 160.332702 
L 288.951949 160.539198 
L 287.532452 160.727981 
L 286.112956 160.895949 
L 284.69346 161.039998 
L 283.273964 161.157023 
L 281.854468 161.243921 
L 280.434972 161.297589 
L 279.015475 161.314922 
L 277.595979 161.292968 
L 276.176483 161.235678 
L 274.756987 161.156574 
L 273.337491 161.069885 
L 271.917995 160.989841 
L 270.498498 160.93067 
L 269.079002 160.906602 
L 267.659506 160.931865 
L 266.24001 161.020689 
L 264.820514 161.187301 
L 263.401018 161.445932 
L 261.981521 161.80366 
L 260.562025 162.238962 
L 259.142529 162.723165 
L 257.723033 163.227596 
L 256.303537 163.723581 
L 254.884041 164.182447 
L 253.464544 164.575521 
L 252.045048 164.874131 
L 250.625552 165.049601 
L 249.206056 165.07326 
L 247.78656 164.918824 
L 246.367064 164.592439 
L 244.947567 164.123626 
L 243.528071 163.542422 
L 242.108575 162.878863 
L 240.689079 162.162987 
L 239.269583 161.424829 
L 237.850087 160.694426 
L 236.43059 160.001816 
L 235.011094 159.377034 
L 233.591598 158.850005 
L 232.172102 158.437105 
L 230.752606 158.1284 
L 229.33311 157.91093 
L 227.913613 157.771735 
L 226.494117 157.697859 
L 225.074621 157.67634 
L 223.655125 157.694221 
L 222.235629 157.738543 
L 220.816133 157.796346 
L 219.396636 157.854673 
L 217.97714 157.902268 
L 216.557644 157.93783 
L 215.138148 157.963664 
L 213.718652 157.982075 
L 212.299156 157.995372 
L 210.879659 158.005862 
L 209.460163 158.015852 
L 208.040667 158.02765 
L 206.621171 158.043562 
L 205.201675 158.065898 
L 203.782179 158.096808 
L 202.362682 158.134895 
L 200.943186 158.175206 
L 199.52369 158.212633 
L 198.104194 158.24207 
L 196.684698 158.25841 
L 195.265202 158.256548 
L 193.845705 158.231375 
L 192.426209 158.177785 
L 191.006713 158.090671 
L 189.587217 157.964936 
L 188.167721 157.801402 
L 186.748225 157.617256 
L 185.328728 157.432487 
L 183.909232 157.267083 
L 182.489736 157.141032 
L 181.07024 157.074324 
L 179.650744 157.086946 
L 178.231248 157.198886 
L 176.811751 157.430134 
L 175.392255 157.800678 
L 173.972759 158.326319 
L 172.553263 158.98642 
L 171.133767 159.741579 
L 169.714271 160.552242 
L 168.294774 161.378852 
L 166.875278 162.181855 
L 165.455782 162.921693 
L 164.036286 163.558812 
L 162.61679 164.053656 
L 161.197294 164.36667 
L 159.777797 164.458956 
L 158.358301 164.321478 
L 156.938805 163.98663 
L 155.519309 163.489858 
L 154.099813 162.866609 
L 152.680317 162.15233 
L 151.26082 161.382466 
L 149.841324 160.592464 
L 148.421828 159.817771 
L 147.002332 159.093833 
L 145.582836 158.456095 
L 144.16334 157.93363 
L 142.743843 157.53 
L 141.324347 157.242397 
L 139.904851 157.068008 
L 138.485355 157.004023 
L 137.065859 157.047632 
L 135.646363 157.196022 
L 134.226866 157.446383 
L 132.80737 157.795905 
L 131.387874 158.241776 
L 129.968378 158.77993 
L 128.548882 159.389265 
L 127.129386 160.036396 
L 125.709889 160.687672 
L 124.290393 161.309439 
L 122.870897 161.868043 
L 121.451401 162.329831 
L 120.031905 162.661149 
L 118.612409 162.828344 
L 117.192912 162.797763 
L 115.773416 162.53594 
L 114.35392 162.032149 
L 112.934424 161.319825 
L 111.514928 160.437477 
L 110.095432 159.423617 
L 108.675935 158.316752 
L 107.256439 157.155393 
L 105.836943 155.97805 
L 104.417447 154.823232 
L 102.997951 153.729448 
L 101.578455 152.735209 
L 100.158958 151.874161 
L 98.739462 151.151558 
L 97.319966 150.562376 
L 95.90047 150.101575 
L 94.480974 149.764117 
L 93.061478 149.544963 
L 91.641981 149.439076 
L 90.222485 149.441415 
L 88.802989 149.546943 
L 87.383493 149.75062 
L 85.963997 150.047091 
L 84.544501 150.423692 
L 83.125004 150.860448 
L 81.705508 151.337072 
L 80.286012 151.833271 
L 78.866516 152.328757 
L 77.44702 152.803239 
L 76.027524 153.236426 
L 74.608027 153.60803 
L 73.188531 153.897758 
L 71.769035 154.085335 
L 70.349539 154.159633 
L 68.930043 154.13481 
L 67.510547 154.029351 
L 66.09105 153.861744 
L 64.671554 153.650474 
L 63.252058 153.414028 
L 61.832562 153.170892 
L 60.413066 152.939553 
L 58.99357 152.738496 
L 57.574073 152.586209 
L 56.154577 152.498761 
L 54.735081 152.471201 
L 53.315585 152.487752 
L 51.896089 152.532549 
L 50.476593 152.589723 
L 49.057096 152.643411 
L 47.6376 152.677745 
L 46.218104 152.676859 
L 44.798608 152.624886 
L 43.379112 152.505962 
L 41.959616 152.304219 
L 40.540119 152.003791 
L 39.120623 151.588813 
L 37.701127 151.043418 
L 36.281631 150.351739 
L 34.862135 149.49791 
L 33.442639 148.466067 
L 32.023142 147.240341 
L 30.603646 145.804867 
L 29.18415 144.143779 
L 27.764654 142.24121 
z
" clip-path="url(#p52477b23c1)" style="fill: #aec7e8"/>
   </g>
   <g id="FillBetweenPolyCollection_3">
    <path d="M 27.764654 86.282826 
L 27.764654 142.24121 
L 29.18415 144.143779 
L 30.603646 145.804867 
L 32.023142 147.240341 
L 33.442639 148.466067 
L 34.862135 149.49791 
L 36.281631 150.351739 
L 37.701127 151.043418 
L 39.120623 151.588813 
L 40.540119 152.003791 
L 41.959616 152.304219 
L 43.379112 152.505962 
L 44.798608 152.624886 
L 46.218104 152.676859 
L 47.6376 152.677745 
L 49.057096 152.643411 
L 50.476593 152.589723 
L 51.896089 152.532549 
L 53.315585 152.487752 
L 54.735081 152.471201 
L 56.154577 152.498761 
L 57.574073 152.586209 
L 58.99357 152.738496 
L 60.413066 152.939553 
L 61.832562 153.170892 
L 63.252058 153.414028 
L 64.671554 153.650474 
L 66.09105 153.861744 
L 67.510547 154.029351 
L 68.930043 154.13481 
L 70.349539 154.159633 
L 71.769035 154.085335 
L 73.188531 153.897758 
L 74.608027 153.60803 
L 76.027524 153.236426 
L 77.44702 152.803239 
L 78.866516 152.328757 
L 80.286012 151.833271 
L 81.705508 151.337072 
L 83.125004 150.860448 
L 84.544501 150.423692 
L 85.963997 150.047091 
L 87.383493 149.75062 
L 88.802989 149.546943 
L 90.222485 149.441415 
L 91.641981 149.439076 
L 93.061478 149.544963 
L 94.480974 149.764117 
L 95.90047 150.101575 
L 97.319966 150.562376 
L 98.739462 151.151558 
L 100.158958 151.874161 
L 101.578455 152.735209 
L 102.997951 153.729448 
L 104.417447 154.823232 
L 105.836943 155.97805 
L 107.256439 157.155393 
L 108.675935 158.316752 
L 110.095432 159.423617 
L 111.514928 160.437477 
L 112.934424 161.319825 
L 114.35392 162.032149 
L 115.773416 162.53594 
L 117.192912 162.797763 
L 118.612409 162.828344 
L 120.031905 162.661149 
L 121.451401 162.329831 
L 122.870897 161.868043 
L 124.290393 161.309439 
L 125.709889 160.687672 
L 127.129386 160.036396 
L 128.548882 159.389265 
L 129.968378 158.77993 
L 131.387874 158.241776 
L 132.80737 157.795905 
L 134.226866 157.446383 
L 135.646363 157.196022 
L 137.065859 157.047632 
L 138.485355 157.004023 
L 139.904851 157.068008 
L 141.324347 157.242397 
L 142.743843 157.53 
L 144.16334 157.93363 
L 145.582836 158.456095 
L 147.002332 159.093833 
L 148.421828 159.817771 
L 149.841324 160.592464 
L 151.26082 161.382466 
L 152.680317 162.15233 
L 154.099813 162.866609 
L 155.519309 163.489858 
L 156.938805 163.98663 
L 158.358301 164.321478 
L 159.777797 164.458956 
L 161.197294 164.36667 
L 162.61679 164.053656 
L 164.036286 163.558812 
L 165.455782 162.921693 
L 166.875278 162.181855 
L 168.294774 161.378852 
L 169.714271 160.552242 
L 171.133767 159.741579 
L 172.553263 158.98642 
L 173.972759 158.326319 
L 175.392255 157.800678 
L 176.811751 157.430134 
L 178.231248 157.198886 
L 179.650744 157.086946 
L 181.07024 157.074324 
L 182.489736 157.141032 
L 183.909232 157.267083 
L 185.328728 157.432487 
L 186.748225 157.617256 
L 188.167721 157.801402 
L 189.587217 157.964936 
L 191.006713 158.090671 
L 192.426209 158.177785 
L 193.845705 158.231375 
L 195.265202 158.256548 
L 196.684698 158.25841 
L 198.104194 158.24207 
L 199.52369 158.212633 
L 200.943186 158.175206 
L 202.362682 158.134895 
L 203.782179 158.096808 
L 205.201675 158.065898 
L 206.621171 158.043562 
L 208.040667 158.02765 
L 209.460163 158.015852 
L 210.879659 158.005862 
L 212.299156 157.995372 
L 213.718652 157.982075 
L 215.138148 157.963664 
L 216.557644 157.93783 
L 217.97714 157.902268 
L 219.396636 157.854673 
L 220.816133 157.796346 
L 222.235629 157.738543 
L 223.655125 157.694221 
L 225.074621 157.67634 
L 226.494117 157.697859 
L 227.913613 157.771735 
L 229.33311 157.91093 
L 230.752606 158.1284 
L 232.172102 158.437105 
L 233.591598 158.850005 
L 235.011094 159.377034 
L 236.43059 160.001816 
L 237.850087 160.694426 
L 239.269583 161.424829 
L 240.689079 162.162987 
L 242.108575 162.878863 
L 243.528071 163.542422 
L 244.947567 164.123626 
L 246.367064 164.592439 
L 247.78656 164.918824 
L 249.206056 165.07326 
L 250.625552 165.049601 
L 252.045048 164.874131 
L 253.464544 164.575521 
L 254.884041 164.182447 
L 256.303537 163.723581 
L 257.723033 163.227596 
L 259.142529 162.723165 
L 260.562025 162.238962 
L 261.981521 161.80366 
L 263.401018 161.445932 
L 264.820514 161.187301 
L 266.24001 161.020689 
L 267.659506 160.931865 
L 269.079002 160.906602 
L 270.498498 160.93067 
L 271.917995 160.989841 
L 273.337491 161.069885 
L 274.756987 161.156574 
L 276.176483 161.235678 
L 277.595979 161.292968 
L 279.015475 161.314922 
L 280.434972 161.297589 
L 281.854468 161.243921 
L 283.273964 161.157023 
L 284.69346 161.039998 
L 286.112956 160.895949 
L 287.532452 160.727981 
L 288.951949 160.539198 
L 290.371445 160.332702 
L 291.790941 160.111599 
L 293.210437 159.878978 
L 294.629933 159.636259 
L 296.049429 159.381621 
L 297.468926 159.11287 
L 298.888422 158.82781 
L 300.307918 158.524248 
L 301.727414 158.199988 
L 303.14691 157.852837 
L 304.566406 157.480601 
L 305.985903 157.081083 
L 307.405399 156.652092 
L 308.824895 156.193885 
L 310.244391 155.721054 
L 311.663887 155.253379 
L 313.083383 154.810645 
L 314.50288 154.412637 
L 315.922376 154.079143 
L 317.341872 153.829948 
L 318.761368 153.684838 
L 320.180864 153.663598 
L 321.60036 153.786015 
L 323.019857 154.070717 
L 324.439353 154.509681 
L 325.858849 155.068237 
L 327.278345 155.710556 
L 328.697841 156.400809 
L 330.117337 157.103167 
L 331.536834 157.7818 
L 332.95633 158.40088 
L 334.375826 158.924578 
L 335.795322 159.317064 
L 337.214818 159.542531 
L 338.634314 159.581053 
L 340.053811 159.456578 
L 341.473307 159.200567 
L 342.892803 158.844481 
L 344.312299 158.419782 
L 345.731795 157.957932 
L 347.151291 157.49039 
L 348.570788 157.04862 
L 349.990284 156.664081 
L 351.40978 156.368236 
L 352.829276 156.189419 
L 354.248772 156.128757 
L 355.668268 156.173367 
L 357.087765 156.310249 
L 358.507261 156.526406 
L 359.926757 156.808837 
L 361.346253 157.144544 
L 362.765749 157.520528 
L 364.185245 157.92379 
L 365.604742 158.341331 
L 367.024238 158.760151 
L 368.443734 159.167253 
L 369.86323 159.549637 
L 371.282726 159.894304 
L 372.702222 160.188256 
L 374.121719 160.418492 
L 375.541215 160.572015 
L 376.960711 160.635825 
L 378.380207 160.596923 
L 379.799703 160.44231 
L 381.219199 160.158988 
L 381.219199 60.584129 
L 381.219199 60.584129 
L 379.799703 60.380664 
L 378.380207 60.225502 
L 376.960711 60.115784 
L 375.541215 60.048653 
L 374.121719 60.02125 
L 372.702222 60.030716 
L 371.282726 60.074194 
L 369.86323 60.148823 
L 368.443734 60.251748 
L 367.024238 60.380107 
L 365.604742 60.531045 
L 364.185245 60.701701 
L 362.765749 60.889217 
L 361.346253 61.090736 
L 359.926757 61.303398 
L 358.507261 61.524346 
L 357.087765 61.75072 
L 355.668268 61.979663 
L 354.248772 62.208316 
L 352.829276 62.43382 
L 351.40978 62.653319 
L 349.990284 62.864218 
L 348.570788 63.064426 
L 347.151291 63.251911 
L 345.731795 63.424642 
L 344.312299 63.580586 
L 342.892803 63.717712 
L 341.473307 63.833987 
L 340.053811 63.927379 
L 338.634314 63.995857 
L 337.214818 64.037388 
L 335.795322 64.051574 
L 334.375826 64.047551 
L 332.95633 64.037907 
L 331.536834 64.035237 
L 330.117337 64.052132 
L 328.697841 64.101187 
L 327.278345 64.194995 
L 325.858849 64.346147 
L 324.439353 64.567239 
L 323.019857 64.870863 
L 321.60036 65.269025 
L 320.180864 65.760254 
L 318.761368 66.329598 
L 317.341872 66.961517 
L 315.922376 67.640474 
L 314.50288 68.350931 
L 313.083383 69.077348 
L 311.663887 69.804188 
L 310.244391 70.515913 
L 308.824895 71.196985 
L 307.405399 71.831867 
L 305.985903 72.407321 
L 304.566406 72.916453 
L 303.14691 73.353452 
L 301.727414 73.71251 
L 300.307918 73.987818 
L 298.888422 74.173567 
L 297.468926 74.263947 
L 296.049429 74.253151 
L 294.629933 74.135369 
L 293.210437 73.904792 
L 291.790941 73.558542 
L 290.371445 73.119261 
L 288.951949 72.622727 
L 287.532452 72.104828 
L 286.112956 71.601453 
L 284.69346 71.148489 
L 283.273964 70.781823 
L 281.854468 70.537344 
L 280.434972 70.45094 
L 279.015475 70.558498 
L 277.595979 70.895224 
L 276.176483 71.465439 
L 274.756987 72.230607 
L 273.337491 73.149037 
L 271.917995 74.179035 
L 270.498498 75.278909 
L 269.079002 76.406968 
L 267.659506 77.521518 
L 266.24001 78.580869 
L 264.820514 79.543327 
L 263.401018 80.3672 
L 261.981521 81.019986 
L 260.562025 81.505946 
L 259.142529 81.83853 
L 257.723033 82.031188 
L 256.303537 82.097371 
L 254.884041 82.050529 
L 253.464544 81.904112 
L 252.045048 81.671572 
L 250.625552 81.366359 
L 249.206056 81.001922 
L 247.78656 80.591786 
L 246.367064 80.150461 
L 244.947567 79.69317 
L 243.528071 79.235149 
L 242.108575 78.791639 
L 240.689079 78.377876 
L 239.269583 78.009099 
L 237.850087 77.700547 
L 236.43059 77.467456 
L 235.011094 77.325066 
L 233.591598 77.288517 
L 232.172102 77.361177 
L 230.752606 77.523549 
L 229.33311 77.75351 
L 227.913613 78.028936 
L 226.494117 78.327704 
L 225.074621 78.627689 
L 223.655125 78.906769 
L 222.235629 79.142819 
L 220.816133 79.313715 
L 219.396636 79.397335 
L 217.97714 79.376721 
L 216.557644 79.265094 
L 215.138148 79.086595 
L 213.718652 78.86538 
L 212.299156 78.625607 
L 210.879659 78.391433 
L 209.460163 78.187015 
L 208.040667 78.036508 
L 206.621171 77.964071 
L 205.201675 77.99386 
L 203.782179 78.149109 
L 202.362682 78.43183 
L 200.943186 78.822809 
L 199.52369 79.301912 
L 198.104194 79.849003 
L 196.684698 80.443948 
L 195.265202 81.066612 
L 193.845705 81.69686 
L 192.426209 82.314556 
L 191.006713 82.899565 
L 189.587217 83.431762 
L 188.167721 83.897484 
L 186.748225 84.300924 
L 185.328728 84.649334 
L 183.909232 84.949966 
L 182.489736 85.210071 
L 181.07024 85.436902 
L 179.650744 85.637709 
L 178.231248 85.819745 
L 176.811751 85.990261 
L 175.392255 86.156508 
L 173.972759 86.325054 
L 172.553263 86.496503 
L 171.133767 86.66839 
L 169.714271 86.838224 
L 168.294774 87.003514 
L 166.875278 87.161769 
L 165.455782 87.310499 
L 164.036286 87.447213 
L 162.61679 87.569421 
L 161.197294 87.674631 
L 159.777797 87.760416 
L 158.358301 87.827191 
L 156.938805 87.879313 
L 155.519309 87.921432 
L 154.099813 87.958197 
L 152.680317 87.994258 
L 151.26082 88.034263 
L 149.841324 88.082861 
L 148.421828 88.144703 
L 147.002332 88.224436 
L 145.582836 88.326711 
L 144.16334 88.454072 
L 142.743843 88.600651 
L 141.324347 88.758474 
L 139.904851 88.919568 
L 138.485355 89.075962 
L 137.065859 89.219682 
L 135.646363 89.342754 
L 134.226866 89.437207 
L 132.80737 89.495067 
L 131.387874 89.508362 
L 129.968378 89.469887 
L 128.548882 89.382875 
L 127.129386 89.25808 
L 125.709889 89.106421 
L 124.290393 88.93882 
L 122.870897 88.766196 
L 121.451401 88.599468 
L 120.031905 88.449558 
L 118.612409 88.327386 
L 117.192912 88.24387 
L 115.773416 88.209872 
L 114.35392 88.229055 
L 112.934424 88.291103 
L 111.514928 88.384094 
L 110.095432 88.496105 
L 108.675935 88.615215 
L 107.256439 88.729501 
L 105.836943 88.827042 
L 104.417447 88.895916 
L 102.997951 88.9242 
L 101.578455 88.899972 
L 100.158958 88.814341 
L 98.739462 88.676109 
L 97.319966 88.500485 
L 95.90047 88.302684 
L 94.480974 88.097925 
L 93.061478 87.901422 
L 91.641981 87.728393 
L 90.222485 87.594055 
L 88.802989 87.513624 
L 87.383493 87.502317 
L 85.963997 87.57478 
L 84.544501 87.73252 
L 83.125004 87.963909 
L 81.705508 88.256748 
L 80.286012 88.598835 
L 78.866516 88.977973 
L 77.44702 89.38196 
L 76.027524 89.798598 
L 74.608027 90.215685 
L 73.188531 90.621023 
L 71.769035 91.002416 
L 70.349539 91.350437 
L 68.930043 91.663313 
L 67.510547 91.940583 
L 66.09105 92.181783 
L 64.671554 92.386452 
L 63.252058 92.554127 
L 61.832562 92.684346 
L 60.413066 92.776647 
L 58.99357 92.830567 
L 57.574073 92.845643 
L 56.154577 92.821552 
L 54.735081 92.759164 
L 53.315585 92.659969 
L 51.896089 92.52546 
L 50.476593 92.35713 
L 49.057096 92.156472 
L 47.6376 91.924981 
L 46.218104 91.664148 
L 44.798608 91.375469 
L 43.379112 91.060435 
L 41.959616 90.720542 
L 40.540119 90.357281 
L 39.120623 89.972146 
L 37.701127 89.566631 
L 36.281631 89.14223 
L 34.862135 88.700435 
L 33.442639 88.242739 
L 32.023142 87.770638 
L 30.603646 87.285623 
L 29.18415 86.789188 
L 27.764654 86.282826 
z
" clip-path="url(#p52477b23c1)" style="fill: #ff7f0e"/>
   </g>
   <g id="matplotlib.axis_1">
    <g id="xtick_1">
     <g id="line2d_1">
      <defs>
       <path id="m2c0d2f6a5d" d="M 0 0 
L 0 3.5 
" style="stroke: #000000; stroke-width: 0.8"/>
      </defs>
      <g>
       <use xlink:href="#m2c0d2f6a5d" x="27.764654" y="314.12125" style="stroke: #000000; stroke-width: 0.8"/>
      </g>
     </g>
     <g id="text_1">
      <!-- 1958 -->
      <g transform="translate(12.109973 340.173358) rotate(-45) scale(0.1 -0.1)">
       <defs>
        <path id="TimesNewRomanPSMT-31" d="M 750 3822 
L 1781 4325 
L 1884 4325 
L 1884 747 
Q 1884 391 1914 303 
Q 1944 216 2037 169 
Q 2131 122 2419 116 
L 2419 0 
L 825 0 
L 825 116 
Q 1125 122 1212 167 
Q 1300 213 1334 289 
Q 1369 366 1369 747 
L 1369 3034 
Q 1369 3497 1338 3628 
Q 1316 3728 1258 3775 
Q 1200 3822 1119 3822 
Q 1003 3822 797 3725 
L 750 3822 
z
" transform="scale(0.015625)"/>
        <path id="TimesNewRomanPSMT-39" d="M 338 -88 
L 338 28 
Q 744 34 1094 217 
Q 1444 400 1770 856 
Q 2097 1313 2225 1859 
Q 1734 1544 1338 1544 
Q 891 1544 572 1889 
Q 253 2234 253 2806 
Q 253 3363 572 3797 
Q 956 4325 1575 4325 
Q 2097 4325 2469 3894 
Q 2925 3359 2925 2575 
Q 2925 1869 2578 1258 
Q 2231 647 1613 244 
Q 1109 -88 516 -88 
L 338 -88 
z
M 2275 2091 
Q 2331 2497 2331 2741 
Q 2331 3044 2228 3395 
Q 2125 3747 1936 3934 
Q 1747 4122 1506 4122 
Q 1228 4122 1018 3872 
Q 809 3622 809 3128 
Q 809 2469 1088 2097 
Q 1291 1828 1588 1828 
Q 1731 1828 1928 1897 
Q 2125 1966 2275 2091 
z
" transform="scale(0.015625)"/>
        <path id="TimesNewRomanPSMT-35" d="M 2778 4238 
L 2534 3706 
L 1259 3706 
L 981 3138 
Q 1809 3016 2294 2522 
Q 2709 2097 2709 1522 
Q 2709 1188 2573 903 
Q 2438 619 2231 419 
Q 2025 219 1772 97 
Q 1413 -75 1034 -75 
Q 653 -75 479 54 
Q 306 184 306 341 
Q 306 428 378 495 
Q 450 563 559 563 
Q 641 563 702 538 
Q 763 513 909 409 
Q 1144 247 1384 247 
Q 1750 247 2026 523 
Q 2303 800 2303 1197 
Q 2303 1581 2056 1914 
Q 1809 2247 1375 2428 
Q 1034 2569 447 2591 
L 1259 4238 
L 2778 4238 
z
" transform="scale(0.015625)"/>
        <path id="TimesNewRomanPSMT-38" d="M 1228 2134 
Q 725 2547 579 2797 
Q 434 3047 434 3316 
Q 434 3728 753 4026 
Q 1072 4325 1600 4325 
Q 2113 4325 2425 4047 
Q 2738 3769 2738 3413 
Q 2738 3175 2569 2928 
Q 2400 2681 1866 2347 
Q 2416 1922 2594 1678 
Q 2831 1359 2831 1006 
Q 2831 559 2490 242 
Q 2150 -75 1597 -75 
Q 994 -75 656 303 
Q 388 606 388 966 
Q 388 1247 577 1523 
Q 766 1800 1228 2134 
z
M 1719 2469 
Q 2094 2806 2194 3001 
Q 2294 3197 2294 3444 
Q 2294 3772 2109 3958 
Q 1925 4144 1606 4144 
Q 1288 4144 1088 3959 
Q 888 3775 888 3528 
Q 888 3366 970 3203 
Q 1053 3041 1206 2894 
L 1719 2469 
z
M 1375 2016 
Q 1116 1797 991 1539 
Q 866 1281 866 981 
Q 866 578 1086 336 
Q 1306 94 1647 94 
Q 1984 94 2187 284 
Q 2391 475 2391 747 
Q 2391 972 2272 1150 
Q 2050 1481 1375 2016 
z
" transform="scale(0.015625)"/>
       </defs>
       <use xlink:href="#TimesNewRomanPSMT-31"/>
       <use xlink:href="#TimesNewRomanPSMT-39" transform="translate(50 0)"/>
       <use xlink:href="#TimesNewRomanPSMT-35" transform="translate(100 0)"/>
       <use xlink:href="#TimesNewRomanPSMT-38" transform="translate(150 0)"/>
      </g>
     </g>
    </g>
    <g id="xtick_2">
     <g id="line2d_2">
      <g>
       <use xlink:href="#m2c0d2f6a5d" x="57.219199" y="314.12125" style="stroke: #000000; stroke-width: 0.8"/>
      </g>
     </g>
     <g id="text_2">
      <!-- 1960 -->
      <g transform="translate(41.564518 340.173358) rotate(-45) scale(0.1 -0.1)">
       <defs>
        <path id="TimesNewRomanPSMT-36" d="M 2869 4325 
L 2869 4209 
Q 2456 4169 2195 4045 
Q 1934 3922 1679 3669 
Q 1425 3416 1258 3105 
Q 1091 2794 978 2366 
Q 1428 2675 1881 2675 
Q 2316 2675 2634 2325 
Q 2953 1975 2953 1425 
Q 2953 894 2631 456 
Q 2244 -75 1606 -75 
Q 1172 -75 869 213 
Q 275 772 275 1663 
Q 275 2231 503 2743 
Q 731 3256 1154 3653 
Q 1578 4050 1965 4187 
Q 2353 4325 2688 4325 
L 2869 4325 
z
M 925 2138 
Q 869 1716 869 1456 
Q 869 1156 980 804 
Q 1091 453 1309 247 
Q 1469 100 1697 100 
Q 1969 100 2183 356 
Q 2397 613 2397 1088 
Q 2397 1622 2184 2012 
Q 1972 2403 1581 2403 
Q 1463 2403 1327 2353 
Q 1191 2303 925 2138 
z
" transform="scale(0.015625)"/>
        <path id="TimesNewRomanPSMT-30" d="M 231 2094 
Q 231 2819 450 3342 
Q 669 3866 1031 4122 
Q 1313 4325 1613 4325 
Q 2100 4325 2488 3828 
Q 2972 3213 2972 2159 
Q 2972 1422 2759 906 
Q 2547 391 2217 158 
Q 1888 -75 1581 -75 
Q 975 -75 572 641 
Q 231 1244 231 2094 
z
M 844 2016 
Q 844 1141 1059 588 
Q 1238 122 1591 122 
Q 1759 122 1940 273 
Q 2122 425 2216 781 
Q 2359 1319 2359 2297 
Q 2359 3022 2209 3506 
Q 2097 3866 1919 4016 
Q 1791 4119 1609 4119 
Q 1397 4119 1231 3928 
Q 1006 3669 925 3112 
Q 844 2556 844 2016 
z
" transform="scale(0.015625)"/>
       </defs>
       <use xlink:href="#TimesNewRomanPSMT-31"/>
       <use xlink:href="#TimesNewRomanPSMT-39" transform="translate(50 0)"/>
       <use xlink:href="#TimesNewRomanPSMT-36" transform="translate(100 0)"/>
       <use xlink:href="#TimesNewRomanPSMT-30" transform="translate(150 0)"/>
      </g>
     </g>
    </g>
    <g id="xtick_3">
     <g id="line2d_3">
      <g>
       <use xlink:href="#m2c0d2f6a5d" x="86.673745" y="314.12125" style="stroke: #000000; stroke-width: 0.8"/>
      </g>
     </g>
     <g id="text_3">
      <!-- 1962 -->
      <g transform="translate(71.019064 340.173358) rotate(-45) scale(0.1 -0.1)">
       <defs>
        <path id="TimesNewRomanPSMT-32" d="M 2934 816 
L 2638 0 
L 138 0 
L 138 116 
Q 1241 1122 1691 1759 
Q 2141 2397 2141 2925 
Q 2141 3328 1894 3587 
Q 1647 3847 1303 3847 
Q 991 3847 742 3664 
Q 494 3481 375 3128 
L 259 3128 
Q 338 3706 661 4015 
Q 984 4325 1469 4325 
Q 1984 4325 2329 3994 
Q 2675 3663 2675 3213 
Q 2675 2891 2525 2569 
Q 2294 2063 1775 1497 
Q 997 647 803 472 
L 1909 472 
Q 2247 472 2383 497 
Q 2519 522 2628 598 
Q 2738 675 2819 816 
L 2934 816 
z
" transform="scale(0.015625)"/>
       </defs>
       <use xlink:href="#TimesNewRomanPSMT-31"/>
       <use xlink:href="#TimesNewRomanPSMT-39" transform="translate(50 0)"/>
       <use xlink:href="#TimesNewRomanPSMT-36" transform="translate(100 0)"/>
       <use xlink:href="#TimesNewRomanPSMT-32" transform="translate(150 0)"/>
      </g>
     </g>
    </g>
    <g id="xtick_4">
     <g id="line2d_4">
      <g>
       <use xlink:href="#m2c0d2f6a5d" x="116.12829" y="314.12125" style="stroke: #000000; stroke-width: 0.8"/>
      </g>
     </g>
     <g id="text_4">
      <!-- 1964 -->
      <g transform="translate(100.473609 340.173358) rotate(-45) scale(0.1 -0.1)">
       <defs>
        <path id="TimesNewRomanPSMT-34" d="M 2978 1563 
L 2978 1119 
L 2409 1119 
L 2409 0 
L 1894 0 
L 1894 1119 
L 100 1119 
L 100 1519 
L 2066 4325 
L 2409 4325 
L 2409 1563 
L 2978 1563 
z
M 1894 1563 
L 1894 3666 
L 406 1563 
L 1894 1563 
z
" transform="scale(0.015625)"/>
       </defs>
       <use xlink:href="#TimesNewRomanPSMT-31"/>
       <use xlink:href="#TimesNewRomanPSMT-39" transform="translate(50 0)"/>
       <use xlink:href="#TimesNewRomanPSMT-36" transform="translate(100 0)"/>
       <use xlink:href="#TimesNewRomanPSMT-34" transform="translate(150 0)"/>
      </g>
     </g>
    </g>
    <g id="xtick_5">
     <g id="line2d_5">
      <g>
       <use xlink:href="#m2c0d2f6a5d" x="145.582836" y="314.12125" style="stroke: #000000; stroke-width: 0.8"/>
      </g>
     </g>
     <g id="text_5">
      <!-- 1966 -->
      <g transform="translate(129.928155 340.173358) rotate(-45) scale(0.1 -0.1)">
       <use xlink:href="#TimesNewRomanPSMT-31"/>
       <use xlink:href="#TimesNewRomanPSMT-39" transform="translate(50 0)"/>
       <use xlink:href="#TimesNewRomanPSMT-36" transform="translate(100 0)"/>
       <use xlink:href="#TimesNewRomanPSMT-36" transform="translate(150 0)"/>
      </g>
     </g>
    </g>
    <g id="xtick_6">
     <g id="line2d_6">
      <g>
       <use xlink:href="#m2c0d2f6a5d" x="175.037381" y="314.12125" style="stroke: #000000; stroke-width: 0.8"/>
      </g>
     </g>
     <g id="text_6">
      <!-- 1968 -->
      <g transform="translate(159.3827 340.173358) rotate(-45) scale(0.1 -0.1)">
       <use xlink:href="#TimesNewRomanPSMT-31"/>
       <use xlink:href="#TimesNewRomanPSMT-39" transform="translate(50 0)"/>
       <use xlink:href="#TimesNewRomanPSMT-36" transform="translate(100 0)"/>
       <use xlink:href="#TimesNewRomanPSMT-38" transform="translate(150 0)"/>
      </g>
     </g>
    </g>
    <g id="xtick_7">
     <g id="line2d_7">
      <g>
       <use xlink:href="#m2c0d2f6a5d" x="204.491927" y="314.12125" style="stroke: #000000; stroke-width: 0.8"/>
      </g>
     </g>
     <g id="text_7">
      <!-- 1970 -->
      <g transform="translate(188.837245 340.173358) rotate(-45) scale(0.1 -0.1)">
       <defs>
        <path id="TimesNewRomanPSMT-37" d="M 644 4238 
L 2916 4238 
L 2916 4119 
L 1503 -88 
L 1153 -88 
L 2419 3728 
L 1253 3728 
Q 900 3728 750 3644 
Q 488 3500 328 3200 
L 238 3234 
L 644 4238 
z
" transform="scale(0.015625)"/>
       </defs>
       <use xlink:href="#TimesNewRomanPSMT-31"/>
       <use xlink:href="#TimesNewRomanPSMT-39" transform="translate(50 0)"/>
       <use xlink:href="#TimesNewRomanPSMT-37" transform="translate(100 0)"/>
       <use xlink:href="#TimesNewRomanPSMT-30" transform="translate(150 0)"/>
      </g>
     </g>
    </g>
    <g id="xtick_8">
     <g id="line2d_8">
      <g>
       <use xlink:href="#m2c0d2f6a5d" x="233.946472" y="314.12125" style="stroke: #000000; stroke-width: 0.8"/>
      </g>
     </g>
     <g id="text_8">
      <!-- 1972 -->
      <g transform="translate(218.291791 340.173358) rotate(-45) scale(0.1 -0.1)">
       <use xlink:href="#TimesNewRomanPSMT-31"/>
       <use xlink:href="#TimesNewRomanPSMT-39" transform="translate(50 0)"/>
       <use xlink:href="#TimesNewRomanPSMT-37" transform="translate(100 0)"/>
       <use xlink:href="#TimesNewRomanPSMT-32" transform="translate(150 0)"/>
      </g>
     </g>
    </g>
    <g id="xtick_9">
     <g id="line2d_9">
      <g>
       <use xlink:href="#m2c0d2f6a5d" x="263.401018" y="314.12125" style="stroke: #000000; stroke-width: 0.8"/>
      </g>
     </g>
     <g id="text_9">
      <!-- 1974 -->
      <g transform="translate(247.746336 340.173358) rotate(-45) scale(0.1 -0.1)">
       <use xlink:href="#TimesNewRomanPSMT-31"/>
       <use xlink:href="#TimesNewRomanPSMT-39" transform="translate(50 0)"/>
       <use xlink:href="#TimesNewRomanPSMT-37" transform="translate(100 0)"/>
       <use xlink:href="#TimesNewRomanPSMT-34" transform="translate(150 0)"/>
      </g>
     </g>
    </g>
    <g id="xtick_10">
     <g id="line2d_10">
      <g>
       <use xlink:href="#m2c0d2f6a5d" x="292.855563" y="314.12125" style="stroke: #000000; stroke-width: 0.8"/>
      </g>
     </g>
     <g id="text_10">
      <!-- 1976 -->
      <g transform="translate(277.200882 340.173358) rotate(-45) scale(0.1 -0.1)">
       <use xlink:href="#TimesNewRomanPSMT-31"/>
       <use xlink:href="#TimesNewRomanPSMT-39" transform="translate(50 0)"/>
       <use xlink:href="#TimesNewRomanPSMT-37" transform="translate(100 0)"/>
       <use xlink:href="#TimesNewRomanPSMT-36" transform="translate(150 0)"/>
      </g>
     </g>
    </g>
    <g id="xtick_11">
     <g id="line2d_11">
      <g>
       <use xlink:href="#m2c0d2f6a5d" x="322.310108" y="314.12125" style="stroke: #000000; stroke-width: 0.8"/>
      </g>
     </g>
     <g id="text_11">
      <!-- 1978 -->
      <g transform="translate(306.655427 340.173358) rotate(-45) scale(0.1 -0.1)">
       <use xlink:href="#TimesNewRomanPSMT-31"/>
       <use xlink:href="#TimesNewRomanPSMT-39" transform="translate(50 0)"/>
       <use xlink:href="#TimesNewRomanPSMT-37" transform="translate(100 0)"/>
       <use xlink:href="#TimesNewRomanPSMT-38" transform="translate(150 0)"/>
      </g>
     </g>
    </g>
    <g id="xtick_12">
     <g id="line2d_12">
      <g>
       <use xlink:href="#m2c0d2f6a5d" x="351.764654" y="314.12125" style="stroke: #000000; stroke-width: 0.8"/>
      </g>
     </g>
     <g id="text_12">
      <!-- 1980 -->
      <g transform="translate(336.109973 340.173358) rotate(-45) scale(0.1 -0.1)">
       <use xlink:href="#TimesNewRomanPSMT-31"/>
       <use xlink:href="#TimesNewRomanPSMT-39" transform="translate(50 0)"/>
       <use xlink:href="#TimesNewRomanPSMT-38" transform="translate(100 0)"/>
       <use xlink:href="#TimesNewRomanPSMT-30" transform="translate(150 0)"/>
      </g>
     </g>
    </g>
    <g id="xtick_13">
     <g id="line2d_13">
      <g>
       <use xlink:href="#m2c0d2f6a5d" x="381.219199" y="314.12125" style="stroke: #000000; stroke-width: 0.8"/>
      </g>
     </g>
     <g id="text_13">
      <!-- 1982 -->
      <g transform="translate(365.564518 340.173358) rotate(-45) scale(0.1 -0.1)">
       <use xlink:href="#TimesNewRomanPSMT-31"/>
       <use xlink:href="#TimesNewRomanPSMT-39" transform="translate(50 0)"/>
       <use xlink:href="#TimesNewRomanPSMT-38" transform="translate(100 0)"/>
       <use xlink:href="#TimesNewRomanPSMT-32" transform="translate(150 0)"/>
      </g>
     </g>
    </g>
    <g id="text_14">
     <!-- Year -->
     <g transform="translate(193.434114 354.018404) scale(0.12 -0.12)">
      <defs>
       <path id="TimesNewRomanPSMT-59" d="M 3050 4238 
L 4528 4238 
L 4528 4122 
L 4447 4122 
Q 4366 4122 4209 4050 
Q 4053 3978 3925 3843 
Q 3797 3709 3609 3406 
L 2588 1797 
L 2588 734 
Q 2588 344 2675 247 
Q 2794 116 3050 116 
L 3188 116 
L 3188 0 
L 1388 0 
L 1388 116 
L 1538 116 
Q 1806 116 1919 278 
Q 1988 378 1988 734 
L 1988 1738 
L 825 3513 
Q 619 3825 545 3903 
Q 472 3981 241 4091 
Q 178 4122 59 4122 
L 59 4238 
L 1872 4238 
L 1872 4122 
L 1778 4122 
Q 1631 4122 1507 4053 
Q 1384 3984 1384 3847 
Q 1384 3734 1575 3441 
L 2459 2075 
L 3291 3381 
Q 3478 3675 3478 3819 
Q 3478 3906 3433 3975 
Q 3388 4044 3303 4083 
Q 3219 4122 3050 4122 
L 3050 4238 
z
" transform="scale(0.015625)"/>
       <path id="TimesNewRomanPSMT-65" d="M 681 1784 
Q 678 1147 991 784 
Q 1303 422 1725 422 
Q 2006 422 2214 576 
Q 2422 731 2563 1106 
L 2659 1044 
Q 2594 616 2278 264 
Q 1963 -88 1488 -88 
Q 972 -88 605 314 
Q 238 716 238 1394 
Q 238 2128 614 2539 
Q 991 2950 1559 2950 
Q 2041 2950 2350 2633 
Q 2659 2316 2659 1784 
L 681 1784 
z
M 681 1966 
L 2006 1966 
Q 1991 2241 1941 2353 
Q 1863 2528 1708 2628 
Q 1553 2728 1384 2728 
Q 1125 2728 920 2526 
Q 716 2325 681 1966 
z
" transform="scale(0.015625)"/>
       <path id="TimesNewRomanPSMT-61" d="M 1822 413 
Q 1381 72 1269 19 
Q 1100 -59 909 -59 
Q 613 -59 420 144 
Q 228 347 228 678 
Q 228 888 322 1041 
Q 450 1253 767 1440 
Q 1084 1628 1822 1897 
L 1822 2009 
Q 1822 2438 1686 2597 
Q 1550 2756 1291 2756 
Q 1094 2756 978 2650 
Q 859 2544 859 2406 
L 866 2225 
Q 866 2081 792 2003 
Q 719 1925 600 1925 
Q 484 1925 411 2006 
Q 338 2088 338 2228 
Q 338 2497 613 2722 
Q 888 2947 1384 2947 
Q 1766 2947 2009 2819 
Q 2194 2722 2281 2516 
Q 2338 2381 2338 1966 
L 2338 994 
Q 2338 584 2353 492 
Q 2369 400 2405 369 
Q 2441 338 2488 338 
Q 2538 338 2575 359 
Q 2641 400 2828 588 
L 2828 413 
Q 2478 -56 2159 -56 
Q 2006 -56 1915 50 
Q 1825 156 1822 413 
z
M 1822 616 
L 1822 1706 
Q 1350 1519 1213 1441 
Q 966 1303 859 1153 
Q 753 1003 753 825 
Q 753 600 887 451 
Q 1022 303 1197 303 
Q 1434 303 1822 616 
z
" transform="scale(0.015625)"/>
       <path id="TimesNewRomanPSMT-72" d="M 1038 2947 
L 1038 2303 
Q 1397 2947 1775 2947 
Q 1947 2947 2059 2842 
Q 2172 2738 2172 2600 
Q 2172 2478 2090 2393 
Q 2009 2309 1897 2309 
Q 1788 2309 1652 2417 
Q 1516 2525 1450 2525 
Q 1394 2525 1328 2463 
Q 1188 2334 1038 2041 
L 1038 669 
Q 1038 431 1097 309 
Q 1138 225 1241 169 
Q 1344 113 1538 113 
L 1538 0 
L 72 0 
L 72 113 
Q 291 113 397 181 
Q 475 231 506 341 
Q 522 394 522 644 
L 522 1753 
Q 522 2253 501 2348 
Q 481 2444 426 2487 
Q 372 2531 291 2531 
Q 194 2531 72 2484 
L 41 2597 
L 906 2947 
L 1038 2947 
z
" transform="scale(0.015625)"/>
      </defs>
      <use xlink:href="#TimesNewRomanPSMT-59"/>
      <use xlink:href="#TimesNewRomanPSMT-65" transform="translate(62.216797 0)"/>
      <use xlink:href="#TimesNewRomanPSMT-61" transform="translate(106.601562 0)"/>
      <use xlink:href="#TimesNewRomanPSMT-72" transform="translate(150.986328 0)"/>
     </g>
    </g>
   </g>
   <g id="patch_3">
    <path d="M 10.091927 314.12125 
L 10.091927 36.92125 
" style="fill: none; stroke: #000000; stroke-width: 0.8; stroke-linejoin: miter; stroke-linecap: square"/>
   </g>
   <g id="patch_4">
    <path d="M 398.891927 314.12125 
L 398.891927 36.92125 
" style="fill: none; stroke: #000000; stroke-width: 0.8; stroke-linejoin: miter; stroke-linecap: square"/>
   </g>
   <g id="patch_5">
    <path d="M 10.091927 314.12125 
L 398.891927 314.12125 
" style="fill: none; stroke: #000000; stroke-width: 0.8; stroke-linejoin: miter; stroke-linecap: square"/>
   </g>
   <g id="patch_6">
    <path d="M 10.091927 36.92125 
L 398.891927 36.92125 
" style="fill: none; stroke: #000000; stroke-width: 0.8; stroke-linejoin: miter; stroke-linecap: square"/>
   </g>
   <g id="text_15">
    <!-- Student Enrollment from 1958 to 1982 (students)  -->
    <g transform="translate(64.701927 16.92125) scale(0.14 -0.14)">
     <defs>
      <path id="TimesNewRomanPSMT-53" d="M 2934 4334 
L 2934 2869 
L 2819 2869 
Q 2763 3291 2617 3541 
Q 2472 3791 2203 3937 
Q 1934 4084 1647 4084 
Q 1322 4084 1109 3886 
Q 897 3688 897 3434 
Q 897 3241 1031 3081 
Q 1225 2847 1953 2456 
Q 2547 2138 2764 1967 
Q 2981 1797 3098 1565 
Q 3216 1334 3216 1081 
Q 3216 600 2842 251 
Q 2469 -97 1881 -97 
Q 1697 -97 1534 -69 
Q 1438 -53 1133 45 
Q 828 144 747 144 
Q 669 144 623 97 
Q 578 50 556 -97 
L 441 -97 
L 441 1356 
L 556 1356 
Q 638 900 775 673 
Q 913 447 1195 297 
Q 1478 147 1816 147 
Q 2206 147 2432 353 
Q 2659 559 2659 841 
Q 2659 997 2573 1156 
Q 2488 1316 2306 1453 
Q 2184 1547 1640 1851 
Q 1097 2156 867 2337 
Q 638 2519 519 2737 
Q 400 2956 400 3219 
Q 400 3675 750 4004 
Q 1100 4334 1641 4334 
Q 1978 4334 2356 4169 
Q 2531 4091 2603 4091 
Q 2684 4091 2736 4139 
Q 2788 4188 2819 4334 
L 2934 4334 
z
" transform="scale(0.015625)"/>
      <path id="TimesNewRomanPSMT-74" d="M 1031 3803 
L 1031 2863 
L 1700 2863 
L 1700 2644 
L 1031 2644 
L 1031 788 
Q 1031 509 1111 412 
Q 1191 316 1316 316 
Q 1419 316 1516 380 
Q 1613 444 1666 569 
L 1788 569 
Q 1678 263 1478 108 
Q 1278 -47 1066 -47 
Q 922 -47 784 33 
Q 647 113 581 261 
Q 516 409 516 719 
L 516 2644 
L 63 2644 
L 63 2747 
Q 234 2816 414 2980 
Q 594 3144 734 3369 
Q 806 3488 934 3803 
L 1031 3803 
z
" transform="scale(0.015625)"/>
      <path id="TimesNewRomanPSMT-75" d="M 2709 2863 
L 2709 1128 
Q 2709 631 2732 520 
Q 2756 409 2807 365 
Q 2859 322 2928 322 
Q 3025 322 3147 375 
L 3191 266 
L 2334 -88 
L 2194 -88 
L 2194 519 
Q 1825 119 1631 15 
Q 1438 -88 1222 -88 
Q 981 -88 804 51 
Q 628 191 559 409 
Q 491 628 491 1028 
L 491 2306 
Q 491 2509 447 2587 
Q 403 2666 317 2708 
Q 231 2750 6 2747 
L 6 2863 
L 1009 2863 
L 1009 947 
Q 1009 547 1148 422 
Q 1288 297 1484 297 
Q 1619 297 1789 381 
Q 1959 466 2194 703 
L 2194 2325 
Q 2194 2569 2105 2655 
Q 2016 2741 1734 2747 
L 1734 2863 
L 2709 2863 
z
" transform="scale(0.015625)"/>
      <path id="TimesNewRomanPSMT-64" d="M 2222 322 
Q 2013 103 1813 7 
Q 1613 -88 1381 -88 
Q 913 -88 563 304 
Q 213 697 213 1313 
Q 213 1928 600 2439 
Q 988 2950 1597 2950 
Q 1975 2950 2222 2709 
L 2222 3238 
Q 2222 3728 2198 3840 
Q 2175 3953 2125 3993 
Q 2075 4034 2000 4034 
Q 1919 4034 1784 3984 
L 1744 4094 
L 2597 4444 
L 2738 4444 
L 2738 1134 
Q 2738 631 2761 520 
Q 2784 409 2836 365 
Q 2888 322 2956 322 
Q 3041 322 3181 375 
L 3216 266 
L 2366 -88 
L 2222 -88 
L 2222 322 
z
M 2222 541 
L 2222 2016 
Q 2203 2228 2109 2403 
Q 2016 2578 1861 2667 
Q 1706 2756 1559 2756 
Q 1284 2756 1069 2509 
Q 784 2184 784 1559 
Q 784 928 1059 592 
Q 1334 256 1672 256 
Q 1956 256 2222 541 
z
" transform="scale(0.015625)"/>
      <path id="TimesNewRomanPSMT-6e" d="M 1034 2341 
Q 1538 2947 1994 2947 
Q 2228 2947 2397 2830 
Q 2566 2713 2666 2444 
Q 2734 2256 2734 1869 
L 2734 647 
Q 2734 375 2778 278 
Q 2813 200 2889 156 
Q 2966 113 3172 113 
L 3172 0 
L 1756 0 
L 1756 113 
L 1816 113 
Q 2016 113 2095 173 
Q 2175 234 2206 353 
Q 2219 400 2219 647 
L 2219 1819 
Q 2219 2209 2117 2386 
Q 2016 2563 1775 2563 
Q 1403 2563 1034 2156 
L 1034 647 
Q 1034 356 1069 288 
Q 1113 197 1189 155 
Q 1266 113 1500 113 
L 1500 0 
L 84 0 
L 84 113 
L 147 113 
Q 366 113 442 223 
Q 519 334 519 647 
L 519 1709 
Q 519 2225 495 2337 
Q 472 2450 423 2490 
Q 375 2531 294 2531 
Q 206 2531 84 2484 
L 38 2597 
L 900 2947 
L 1034 2947 
L 1034 2341 
z
" transform="scale(0.015625)"/>
      <path id="TimesNewRomanPSMT-20" transform="scale(0.015625)"/>
      <path id="TimesNewRomanPSMT-45" d="M 1338 4006 
L 1338 2331 
L 2269 2331 
Q 2631 2331 2753 2441 
Q 2916 2584 2934 2947 
L 3050 2947 
L 3050 1472 
L 2934 1472 
Q 2891 1781 2847 1869 
Q 2791 1978 2662 2040 
Q 2534 2103 2269 2103 
L 1338 2103 
L 1338 706 
Q 1338 425 1363 364 
Q 1388 303 1450 267 
Q 1513 231 1688 231 
L 2406 231 
Q 2766 231 2928 281 
Q 3091 331 3241 478 
Q 3434 672 3638 1063 
L 3763 1063 
L 3397 0 
L 131 0 
L 131 116 
L 281 116 
Q 431 116 566 188 
Q 666 238 702 338 
Q 738 438 738 747 
L 738 3500 
Q 738 3903 656 3997 
Q 544 4122 281 4122 
L 131 4122 
L 131 4238 
L 3397 4238 
L 3444 3309 
L 3322 3309 
Q 3256 3644 3176 3769 
Q 3097 3894 2941 3959 
Q 2816 4006 2500 4006 
L 1338 4006 
z
" transform="scale(0.015625)"/>
      <path id="TimesNewRomanPSMT-6f" d="M 1600 2947 
Q 2250 2947 2644 2453 
Q 2978 2031 2978 1484 
Q 2978 1100 2793 706 
Q 2609 313 2286 112 
Q 1963 -88 1566 -88 
Q 919 -88 538 428 
Q 216 863 216 1403 
Q 216 1797 411 2186 
Q 606 2575 925 2761 
Q 1244 2947 1600 2947 
z
M 1503 2744 
Q 1338 2744 1170 2645 
Q 1003 2547 900 2300 
Q 797 2053 797 1666 
Q 797 1041 1045 587 
Q 1294 134 1700 134 
Q 2003 134 2200 384 
Q 2397 634 2397 1244 
Q 2397 2006 2069 2444 
Q 1847 2744 1503 2744 
z
" transform="scale(0.015625)"/>
      <path id="TimesNewRomanPSMT-6c" d="M 1184 4444 
L 1184 647 
Q 1184 378 1223 290 
Q 1263 203 1344 158 
Q 1425 113 1647 113 
L 1647 0 
L 244 0 
L 244 113 
Q 441 113 512 153 
Q 584 194 625 287 
Q 666 381 666 647 
L 666 3247 
Q 666 3731 644 3842 
Q 622 3953 573 3993 
Q 525 4034 450 4034 
Q 369 4034 244 3984 
L 191 4094 
L 1044 4444 
L 1184 4444 
z
" transform="scale(0.015625)"/>
      <path id="TimesNewRomanPSMT-6d" d="M 1050 2338 
Q 1363 2650 1419 2697 
Q 1559 2816 1721 2881 
Q 1884 2947 2044 2947 
Q 2313 2947 2506 2790 
Q 2700 2634 2766 2338 
Q 3088 2713 3309 2830 
Q 3531 2947 3766 2947 
Q 3994 2947 4170 2830 
Q 4347 2713 4450 2447 
Q 4519 2266 4519 1878 
L 4519 647 
Q 4519 378 4559 278 
Q 4591 209 4675 161 
Q 4759 113 4950 113 
L 4950 0 
L 3538 0 
L 3538 113 
L 3597 113 
Q 3781 113 3884 184 
Q 3956 234 3988 344 
Q 4000 397 4000 647 
L 4000 1878 
Q 4000 2228 3916 2372 
Q 3794 2572 3525 2572 
Q 3359 2572 3192 2489 
Q 3025 2406 2788 2181 
L 2781 2147 
L 2788 2013 
L 2788 647 
Q 2788 353 2820 281 
Q 2853 209 2943 161 
Q 3034 113 3253 113 
L 3253 0 
L 1806 0 
L 1806 113 
Q 2044 113 2133 169 
Q 2222 225 2256 338 
Q 2272 391 2272 647 
L 2272 1878 
Q 2272 2228 2169 2381 
Q 2031 2581 1784 2581 
Q 1616 2581 1450 2491 
Q 1191 2353 1050 2181 
L 1050 647 
Q 1050 366 1089 281 
Q 1128 197 1204 155 
Q 1281 113 1516 113 
L 1516 0 
L 100 0 
L 100 113 
Q 297 113 375 155 
Q 453 197 493 289 
Q 534 381 534 647 
L 534 1741 
Q 534 2213 506 2350 
Q 484 2453 437 2492 
Q 391 2531 309 2531 
Q 222 2531 100 2484 
L 53 2597 
L 916 2947 
L 1050 2947 
L 1050 2338 
z
" transform="scale(0.015625)"/>
      <path id="TimesNewRomanPSMT-66" d="M 1319 2638 
L 1319 756 
Q 1319 356 1406 250 
Q 1522 113 1716 113 
L 1975 113 
L 1975 0 
L 266 0 
L 266 113 
L 394 113 
Q 519 113 622 175 
Q 725 238 764 344 
Q 803 450 803 756 
L 803 2638 
L 247 2638 
L 247 2863 
L 803 2863 
L 803 3050 
Q 803 3478 940 3775 
Q 1078 4072 1361 4255 
Q 1644 4438 1997 4438 
Q 2325 4438 2600 4225 
Q 2781 4084 2781 3909 
Q 2781 3816 2700 3733 
Q 2619 3650 2525 3650 
Q 2453 3650 2373 3701 
Q 2294 3753 2178 3923 
Q 2063 4094 1966 4153 
Q 1869 4213 1750 4213 
Q 1606 4213 1506 4136 
Q 1406 4059 1362 3898 
Q 1319 3738 1319 3069 
L 1319 2863 
L 2056 2863 
L 2056 2638 
L 1319 2638 
z
" transform="scale(0.015625)"/>
      <path id="TimesNewRomanPSMT-28" d="M 1988 -1253 
L 1988 -1369 
Q 1516 -1131 1200 -813 
Q 750 -359 506 256 
Q 263 872 263 1534 
Q 263 2503 741 3301 
Q 1219 4100 1988 4444 
L 1988 4313 
Q 1603 4100 1356 3731 
Q 1109 3363 987 2797 
Q 866 2231 866 1616 
Q 866 947 969 400 
Q 1050 -31 1165 -292 
Q 1281 -553 1476 -793 
Q 1672 -1034 1988 -1253 
z
" transform="scale(0.015625)"/>
      <path id="TimesNewRomanPSMT-73" d="M 2050 2947 
L 2050 1972 
L 1947 1972 
Q 1828 2431 1642 2597 
Q 1456 2763 1169 2763 
Q 950 2763 815 2647 
Q 681 2531 681 2391 
Q 681 2216 781 2091 
Q 878 1963 1175 1819 
L 1631 1597 
Q 2266 1288 2266 781 
Q 2266 391 1970 151 
Q 1675 -88 1309 -88 
Q 1047 -88 709 6 
Q 606 38 541 38 
Q 469 38 428 -44 
L 325 -44 
L 325 978 
L 428 978 
Q 516 541 762 319 
Q 1009 97 1316 97 
Q 1531 97 1667 223 
Q 1803 350 1803 528 
Q 1803 744 1651 891 
Q 1500 1038 1047 1263 
Q 594 1488 453 1669 
Q 313 1847 313 2119 
Q 313 2472 555 2709 
Q 797 2947 1181 2947 
Q 1350 2947 1591 2875 
Q 1750 2828 1803 2828 
Q 1853 2828 1881 2850 
Q 1909 2872 1947 2947 
L 2050 2947 
z
" transform="scale(0.015625)"/>
      <path id="TimesNewRomanPSMT-29" d="M 144 4313 
L 144 4444 
Q 619 4209 934 3891 
Q 1381 3434 1625 2820 
Q 1869 2206 1869 1541 
Q 1869 572 1392 -226 
Q 916 -1025 144 -1369 
L 144 -1253 
Q 528 -1038 776 -670 
Q 1025 -303 1145 264 
Q 1266 831 1266 1447 
Q 1266 2113 1163 2663 
Q 1084 3094 967 3353 
Q 850 3613 656 3853 
Q 463 4094 144 4313 
z
" transform="scale(0.015625)"/>
     </defs>
     <use xlink:href="#TimesNewRomanPSMT-53"/>
     <use xlink:href="#TimesNewRomanPSMT-74" transform="translate(55.615234 0)"/>
     <use xlink:href="#TimesNewRomanPSMT-75" transform="translate(83.398438 0)"/>
     <use xlink:href="#TimesNewRomanPSMT-64" transform="translate(133.398438 0)"/>
     <use xlink:href="#TimesNewRomanPSMT-65" transform="translate(183.398438 0)"/>
     <use xlink:href="#TimesNewRomanPSMT-6e" transform="translate(227.783203 0)"/>
     <use xlink:href="#TimesNewRomanPSMT-74" transform="translate(277.783203 0)"/>
     <use xlink:href="#TimesNewRomanPSMT-20" transform="translate(305.566406 0)"/>
     <use xlink:href="#TimesNewRomanPSMT-45" transform="translate(330.566406 0)"/>
     <use xlink:href="#TimesNewRomanPSMT-6e" transform="translate(391.650391 0)"/>
     <use xlink:href="#TimesNewRomanPSMT-72" transform="translate(441.650391 0)"/>
     <use xlink:href="#TimesNewRomanPSMT-6f" transform="translate(474.951172 0)"/>
     <use xlink:href="#TimesNewRomanPSMT-6c" transform="translate(524.951172 0)"/>
     <use xlink:href="#TimesNewRomanPSMT-6c" transform="translate(552.734375 0)"/>
     <use xlink:href="#TimesNewRomanPSMT-6d" transform="translate(580.517578 0)"/>
     <use xlink:href="#TimesNewRomanPSMT-65" transform="translate(658.300781 0)"/>
     <use xlink:href="#TimesNewRomanPSMT-6e" transform="translate(702.685547 0)"/>
     <use xlink:href="#TimesNewRomanPSMT-74" transform="translate(752.685547 0)"/>
     <use xlink:href="#TimesNewRomanPSMT-20" transform="translate(780.46875 0)"/>
     <use xlink:href="#TimesNewRomanPSMT-66" transform="translate(805.46875 0)"/>
     <use xlink:href="#TimesNewRomanPSMT-72" transform="translate(838.769531 0)"/>
     <use xlink:href="#TimesNewRomanPSMT-6f" transform="translate(872.070312 0)"/>
     <use xlink:href="#TimesNewRomanPSMT-6d" transform="translate(922.070312 0)"/>
     <use xlink:href="#TimesNewRomanPSMT-20" transform="translate(999.853516 0)"/>
     <use xlink:href="#TimesNewRomanPSMT-31" transform="translate(1024.853516 0)"/>
     <use xlink:href="#TimesNewRomanPSMT-39" transform="translate(1074.853516 0)"/>
     <use xlink:href="#TimesNewRomanPSMT-35" transform="translate(1124.853516 0)"/>
     <use xlink:href="#TimesNewRomanPSMT-38" transform="translate(1174.853516 0)"/>
     <use xlink:href="#TimesNewRomanPSMT-20" transform="translate(1224.853516 0)"/>
     <use xlink:href="#TimesNewRomanPSMT-74" transform="translate(1249.853516 0)"/>
     <use xlink:href="#TimesNewRomanPSMT-6f" transform="translate(1277.636719 0)"/>
     <use xlink:href="#TimesNewRomanPSMT-20" transform="translate(1327.636719 0)"/>
     <use xlink:href="#TimesNewRomanPSMT-31" transform="translate(1352.636719 0)"/>
     <use xlink:href="#TimesNewRomanPSMT-39" transform="translate(1402.636719 0)"/>
     <use xlink:href="#TimesNewRomanPSMT-38" transform="translate(1452.636719 0)"/>
     <use xlink:href="#TimesNewRomanPSMT-32" transform="translate(1502.636719 0)"/>
     <use xlink:href="#TimesNewRomanPSMT-20" transform="translate(1552.636719 0)"/>
     <use xlink:href="#TimesNewRomanPSMT-28" transform="translate(1577.636719 0)"/>
     <use xlink:href="#TimesNewRomanPSMT-73" transform="translate(1610.9375 0)"/>
     <use xlink:href="#TimesNewRomanPSMT-74" transform="translate(1649.853516 0)"/>
     <use xlink:href="#TimesNewRomanPSMT-75" transform="translate(1677.636719 0)"/>
     <use xlink:href="#TimesNewRomanPSMT-64" transform="translate(1727.636719 0)"/>
     <use xlink:href="#TimesNewRomanPSMT-65" transform="translate(1777.636719 0)"/>
     <use xlink:href="#TimesNewRomanPSMT-6e" transform="translate(1822.021484 0)"/>
     <use xlink:href="#TimesNewRomanPSMT-74" transform="translate(1872.021484 0)"/>
     <use xlink:href="#TimesNewRomanPSMT-73" transform="translate(1899.804688 0)"/>
     <use xlink:href="#TimesNewRomanPSMT-29" transform="translate(1938.720703 0)"/>
     <use xlink:href="#TimesNewRomanPSMT-20" transform="translate(1972.021484 0)"/>
    </g>
   </g>
   <g id="legend_1">
    <g id="patch_7">
     <path d="M 415.667927 163.793906 
L 435.667927 163.793906 
L 435.667927 156.793906 
L 415.667927 156.793906 
z
" style="fill: #1f77b4"/>
    </g>
    <g id="text_16">
     <!-- Arcane University -->
     <g transform="translate(443.667927 163.793906) scale(0.1 -0.1)">
      <defs>
       <path id="TimesNewRomanPSMT-41" d="M 2928 1419 
L 1288 1419 
L 1000 750 
Q 894 503 894 381 
Q 894 284 986 211 
Q 1078 138 1384 116 
L 1384 0 
L 50 0 
L 50 116 
Q 316 163 394 238 
Q 553 388 747 847 
L 2238 4334 
L 2347 4334 
L 3822 809 
Q 4000 384 4145 257 
Q 4291 131 4550 116 
L 4550 0 
L 2878 0 
L 2878 116 
Q 3131 128 3220 200 
Q 3309 272 3309 375 
Q 3309 513 3184 809 
L 2928 1419 
z
M 2841 1650 
L 2122 3363 
L 1384 1650 
L 2841 1650 
z
" transform="scale(0.015625)"/>
       <path id="TimesNewRomanPSMT-63" d="M 2631 1088 
Q 2516 522 2178 217 
Q 1841 -88 1431 -88 
Q 944 -88 581 321 
Q 219 731 219 1428 
Q 219 2103 620 2525 
Q 1022 2947 1584 2947 
Q 2006 2947 2278 2723 
Q 2550 2500 2550 2259 
Q 2550 2141 2473 2067 
Q 2397 1994 2259 1994 
Q 2075 1994 1981 2113 
Q 1928 2178 1911 2362 
Q 1894 2547 1784 2644 
Q 1675 2738 1481 2738 
Q 1169 2738 978 2506 
Q 725 2200 725 1697 
Q 725 1184 976 792 
Q 1228 400 1656 400 
Q 1963 400 2206 609 
Q 2378 753 2541 1131 
L 2631 1088 
z
" transform="scale(0.015625)"/>
       <path id="TimesNewRomanPSMT-55" d="M 3053 4122 
L 3053 4238 
L 4553 4238 
L 4553 4122 
L 4394 4122 
Q 4144 4122 4009 3913 
Q 3944 3816 3944 3463 
L 3944 1744 
Q 3944 1106 3817 754 
Q 3691 403 3320 151 
Q 2950 -100 2313 -100 
Q 1619 -100 1259 140 
Q 900 381 750 788 
Q 650 1066 650 1831 
L 650 3488 
Q 650 3878 542 4000 
Q 434 4122 194 4122 
L 34 4122 
L 34 4238 
L 1866 4238 
L 1866 4122 
L 1703 4122 
Q 1441 4122 1328 3956 
Q 1250 3844 1250 3488 
L 1250 1641 
Q 1250 1394 1295 1075 
Q 1341 756 1459 578 
Q 1578 400 1801 284 
Q 2025 169 2350 169 
Q 2766 169 3094 350 
Q 3422 531 3542 814 
Q 3663 1097 3663 1772 
L 3663 3488 
Q 3663 3884 3575 3984 
Q 3453 4122 3213 4122 
L 3053 4122 
z
" transform="scale(0.015625)"/>
       <path id="TimesNewRomanPSMT-69" d="M 928 4444 
Q 1059 4444 1151 4351 
Q 1244 4259 1244 4128 
Q 1244 3997 1151 3903 
Q 1059 3809 928 3809 
Q 797 3809 703 3903 
Q 609 3997 609 4128 
Q 609 4259 701 4351 
Q 794 4444 928 4444 
z
M 1188 2947 
L 1188 647 
Q 1188 378 1227 289 
Q 1266 200 1342 156 
Q 1419 113 1622 113 
L 1622 0 
L 231 0 
L 231 113 
Q 441 113 512 153 
Q 584 194 626 287 
Q 669 381 669 647 
L 669 1750 
Q 669 2216 641 2353 
Q 619 2453 572 2492 
Q 525 2531 444 2531 
Q 356 2531 231 2484 
L 188 2597 
L 1050 2947 
L 1188 2947 
z
" transform="scale(0.015625)"/>
       <path id="TimesNewRomanPSMT-76" d="M 53 2863 
L 1400 2863 
L 1400 2747 
L 1313 2747 
Q 1191 2747 1127 2687 
Q 1063 2628 1063 2528 
Q 1063 2419 1128 2269 
L 1794 688 
L 2463 2328 
Q 2534 2503 2534 2594 
Q 2534 2638 2509 2666 
Q 2475 2713 2422 2730 
Q 2369 2747 2206 2747 
L 2206 2863 
L 3141 2863 
L 3141 2747 
Q 2978 2734 2916 2681 
Q 2806 2588 2719 2369 
L 1703 -88 
L 1575 -88 
L 553 2328 
Q 484 2497 421 2570 
Q 359 2644 263 2694 
Q 209 2722 53 2747 
L 53 2863 
z
" transform="scale(0.015625)"/>
       <path id="TimesNewRomanPSMT-79" d="M 38 2863 
L 1372 2863 
L 1372 2747 
L 1306 2747 
Q 1166 2747 1095 2686 
Q 1025 2625 1025 2534 
Q 1025 2413 1128 2197 
L 1825 753 
L 2466 2334 
Q 2519 2463 2519 2588 
Q 2519 2644 2497 2672 
Q 2472 2706 2419 2726 
Q 2366 2747 2231 2747 
L 2231 2863 
L 3163 2863 
L 3163 2747 
Q 3047 2734 2984 2696 
Q 2922 2659 2847 2556 
Q 2819 2513 2741 2316 
L 1575 -541 
Q 1406 -956 1132 -1168 
Q 859 -1381 606 -1381 
Q 422 -1381 303 -1275 
Q 184 -1169 184 -1031 
Q 184 -900 270 -820 
Q 356 -741 506 -741 
Q 609 -741 788 -809 
Q 913 -856 944 -856 
Q 1038 -856 1148 -759 
Q 1259 -663 1372 -384 
L 1575 113 
L 547 2272 
Q 500 2369 397 2513 
Q 319 2622 269 2659 
Q 197 2709 38 2747 
L 38 2863 
z
" transform="scale(0.015625)"/>
      </defs>
      <use xlink:href="#TimesNewRomanPSMT-41"/>
      <use xlink:href="#TimesNewRomanPSMT-72" transform="translate(72.216797 0)"/>
      <use xlink:href="#TimesNewRomanPSMT-63" transform="translate(105.517578 0)"/>
      <use xlink:href="#TimesNewRomanPSMT-61" transform="translate(149.902344 0)"/>
      <use xlink:href="#TimesNewRomanPSMT-6e" transform="translate(194.287109 0)"/>
      <use xlink:href="#TimesNewRomanPSMT-65" transform="translate(244.287109 0)"/>
      <use xlink:href="#TimesNewRomanPSMT-20" transform="translate(288.671875 0)"/>
      <use xlink:href="#TimesNewRomanPSMT-55" transform="translate(313.671875 0)"/>
      <use xlink:href="#TimesNewRomanPSMT-6e" transform="translate(385.888672 0)"/>
      <use xlink:href="#TimesNewRomanPSMT-69" transform="translate(435.888672 0)"/>
      <use xlink:href="#TimesNewRomanPSMT-76" transform="translate(463.671875 0)"/>
      <use xlink:href="#TimesNewRomanPSMT-65" transform="translate(513.671875 0)"/>
      <use xlink:href="#TimesNewRomanPSMT-72" transform="translate(558.056641 0)"/>
      <use xlink:href="#TimesNewRomanPSMT-73" transform="translate(591.357422 0)"/>
      <use xlink:href="#TimesNewRomanPSMT-69" transform="translate(630.273438 0)"/>
      <use xlink:href="#TimesNewRomanPSMT-74" transform="translate(658.056641 0)"/>
      <use xlink:href="#TimesNewRomanPSMT-79" transform="translate(685.839844 0)"/>
     </g>
    </g>
    <g id="patch_8">
     <path d="M 415.667927 177.951719 
L 435.667927 177.951719 
L 435.667927 170.951719 
L 415.667927 170.951719 
z
" style="fill: #aec7e8"/>
    </g>
    <g id="text_17">
     <!-- Aethelgard School of Arts -->
     <g transform="translate(443.667927 177.951719) scale(0.1 -0.1)">
      <defs>
       <path id="TimesNewRomanPSMT-68" d="M 1041 4444 
L 1041 2350 
Q 1388 2731 1591 2839 
Q 1794 2947 1997 2947 
Q 2241 2947 2416 2812 
Q 2591 2678 2675 2391 
Q 2734 2191 2734 1659 
L 2734 647 
Q 2734 375 2778 275 
Q 2809 200 2884 156 
Q 2959 113 3159 113 
L 3159 0 
L 1753 0 
L 1753 113 
L 1819 113 
Q 2019 113 2097 173 
Q 2175 234 2206 353 
Q 2216 403 2216 647 
L 2216 1659 
Q 2216 2128 2167 2275 
Q 2119 2422 2012 2495 
Q 1906 2569 1756 2569 
Q 1603 2569 1437 2487 
Q 1272 2406 1041 2159 
L 1041 647 
Q 1041 353 1073 281 
Q 1106 209 1195 161 
Q 1284 113 1503 113 
L 1503 0 
L 84 0 
L 84 113 
Q 275 113 384 172 
Q 447 203 484 290 
Q 522 378 522 647 
L 522 3238 
Q 522 3728 498 3840 
Q 475 3953 426 3993 
Q 378 4034 297 4034 
Q 231 4034 84 3984 
L 41 4094 
L 897 4444 
L 1041 4444 
z
" transform="scale(0.015625)"/>
       <path id="TimesNewRomanPSMT-67" d="M 966 1044 
Q 703 1172 562 1401 
Q 422 1631 422 1909 
Q 422 2334 742 2640 
Q 1063 2947 1563 2947 
Q 1972 2947 2272 2747 
L 2878 2747 
Q 3013 2747 3034 2739 
Q 3056 2731 3066 2713 
Q 3084 2684 3084 2613 
Q 3084 2531 3069 2500 
Q 3059 2484 3036 2475 
Q 3013 2466 2878 2466 
L 2506 2466 
Q 2681 2241 2681 1891 
Q 2681 1491 2375 1206 
Q 2069 922 1553 922 
Q 1341 922 1119 984 
Q 981 866 932 777 
Q 884 688 884 625 
Q 884 572 936 522 
Q 988 472 1138 450 
Q 1225 438 1575 428 
Q 2219 413 2409 384 
Q 2700 344 2873 169 
Q 3047 -6 3047 -263 
Q 3047 -616 2716 -925 
Q 2228 -1381 1444 -1381 
Q 841 -1381 425 -1109 
Q 191 -953 191 -784 
Q 191 -709 225 -634 
Q 278 -519 444 -313 
Q 466 -284 763 25 
Q 600 122 533 198 
Q 466 275 466 372 
Q 466 481 555 628 
Q 644 775 966 1044 
z
M 1509 2797 
Q 1278 2797 1122 2612 
Q 966 2428 966 2047 
Q 966 1553 1178 1281 
Q 1341 1075 1591 1075 
Q 1828 1075 1981 1253 
Q 2134 1431 2134 1813 
Q 2134 2309 1919 2591 
Q 1759 2797 1509 2797 
z
M 934 0 
Q 788 -159 713 -296 
Q 638 -434 638 -550 
Q 638 -700 819 -813 
Q 1131 -1006 1722 -1006 
Q 2284 -1006 2551 -807 
Q 2819 -609 2819 -384 
Q 2819 -222 2659 -153 
Q 2497 -84 2016 -72 
Q 1313 -53 934 0 
z
" transform="scale(0.015625)"/>
      </defs>
      <use xlink:href="#TimesNewRomanPSMT-41"/>
      <use xlink:href="#TimesNewRomanPSMT-65" transform="translate(72.216797 0)"/>
      <use xlink:href="#TimesNewRomanPSMT-74" transform="translate(116.601562 0)"/>
      <use xlink:href="#TimesNewRomanPSMT-68" transform="translate(144.384766 0)"/>
      <use xlink:href="#TimesNewRomanPSMT-65" transform="translate(194.384766 0)"/>
      <use xlink:href="#TimesNewRomanPSMT-6c" transform="translate(238.769531 0)"/>
      <use xlink:href="#TimesNewRomanPSMT-67" transform="translate(266.552734 0)"/>
      <use xlink:href="#TimesNewRomanPSMT-61" transform="translate(316.552734 0)"/>
      <use xlink:href="#TimesNewRomanPSMT-72" transform="translate(360.9375 0)"/>
      <use xlink:href="#TimesNewRomanPSMT-64" transform="translate(394.238281 0)"/>
      <use xlink:href="#TimesNewRomanPSMT-20" transform="translate(444.238281 0)"/>
      <use xlink:href="#TimesNewRomanPSMT-53" transform="translate(469.238281 0)"/>
      <use xlink:href="#TimesNewRomanPSMT-63" transform="translate(524.853516 0)"/>
      <use xlink:href="#TimesNewRomanPSMT-68" transform="translate(569.238281 0)"/>
      <use xlink:href="#TimesNewRomanPSMT-6f" transform="translate(619.238281 0)"/>
      <use xlink:href="#TimesNewRomanPSMT-6f" transform="translate(669.238281 0)"/>
      <use xlink:href="#TimesNewRomanPSMT-6c" transform="translate(719.238281 0)"/>
      <use xlink:href="#TimesNewRomanPSMT-20" transform="translate(747.021484 0)"/>
      <use xlink:href="#TimesNewRomanPSMT-6f" transform="translate(772.021484 0)"/>
      <use xlink:href="#TimesNewRomanPSMT-66" transform="translate(822.021484 0)"/>
      <use xlink:href="#TimesNewRomanPSMT-20" transform="translate(855.322266 0)"/>
      <use xlink:href="#TimesNewRomanPSMT-41" transform="translate(874.822266 0)"/>
      <use xlink:href="#TimesNewRomanPSMT-72" transform="translate(947.039062 0)"/>
      <use xlink:href="#TimesNewRomanPSMT-74" transform="translate(980.339844 0)"/>
      <use xlink:href="#TimesNewRomanPSMT-73" transform="translate(1008.123047 0)"/>
     </g>
    </g>
    <g id="patch_9">
     <path d="M 415.667927 192.109531 
L 435.667927 192.109531 
L 435.667927 185.109531 
L 415.667927 185.109531 
z
" style="fill: #ff7f0e"/>
    </g>
    <g id="text_18">
     <!-- Borealis Graduate School -->
     <g transform="translate(443.667927 192.109531) scale(0.1 -0.1)">
      <defs>
       <path id="TimesNewRomanPSMT-42" d="M 2956 2163 
Q 3397 2069 3616 1863 
Q 3919 1575 3919 1159 
Q 3919 844 3719 555 
Q 3519 266 3170 133 
Q 2822 0 2106 0 
L 106 0 
L 106 116 
L 266 116 
Q 531 116 647 284 
Q 719 394 719 750 
L 719 3488 
Q 719 3881 628 3984 
Q 506 4122 266 4122 
L 106 4122 
L 106 4238 
L 1938 4238 
Q 2450 4238 2759 4163 
Q 3228 4050 3475 3764 
Q 3722 3478 3722 3106 
Q 3722 2788 3528 2536 
Q 3334 2284 2956 2163 
z
M 1319 2331 
Q 1434 2309 1582 2298 
Q 1731 2288 1909 2288 
Q 2366 2288 2595 2386 
Q 2825 2484 2947 2687 
Q 3069 2891 3069 3131 
Q 3069 3503 2766 3765 
Q 2463 4028 1881 4028 
Q 1569 4028 1319 3959 
L 1319 2331 
z
M 1319 306 
Q 1681 222 2034 222 
Q 2600 222 2897 476 
Q 3194 731 3194 1106 
Q 3194 1353 3059 1581 
Q 2925 1809 2622 1940 
Q 2319 2072 1872 2072 
Q 1678 2072 1540 2065 
Q 1403 2059 1319 2044 
L 1319 306 
z
" transform="scale(0.015625)"/>
       <path id="TimesNewRomanPSMT-47" d="M 3928 4334 
L 4038 2997 
L 3928 2997 
Q 3763 3497 3500 3750 
Q 3122 4116 2528 4116 
Q 1719 4116 1297 3475 
Q 944 2934 944 2188 
Q 944 1581 1178 1081 
Q 1413 581 1792 348 
Q 2172 116 2572 116 
Q 2806 116 3025 175 
Q 3244 234 3447 350 
L 3447 1575 
Q 3447 1894 3398 1992 
Q 3350 2091 3248 2142 
Q 3147 2194 2891 2194 
L 2891 2313 
L 4531 2313 
L 4531 2194 
L 4453 2194 
Q 4209 2194 4119 2031 
Q 4056 1916 4056 1575 
L 4056 278 
Q 3697 84 3347 -6 
Q 2997 -97 2569 -97 
Q 1341 -97 703 691 
Q 225 1281 225 2053 
Q 225 2613 494 3125 
Q 813 3734 1369 4063 
Q 1834 4334 2469 4334 
Q 2700 4334 2889 4296 
Q 3078 4259 3425 4131 
Q 3600 4066 3659 4066 
Q 3719 4066 3761 4120 
Q 3803 4175 3813 4334 
L 3928 4334 
z
" transform="scale(0.015625)"/>
      </defs>
      <use xlink:href="#TimesNewRomanPSMT-42"/>
      <use xlink:href="#TimesNewRomanPSMT-6f" transform="translate(66.699219 0)"/>
      <use xlink:href="#TimesNewRomanPSMT-72" transform="translate(116.699219 0)"/>
      <use xlink:href="#TimesNewRomanPSMT-65" transform="translate(150 0)"/>
      <use xlink:href="#TimesNewRomanPSMT-61" transform="translate(194.384766 0)"/>
      <use xlink:href="#TimesNewRomanPSMT-6c" transform="translate(238.769531 0)"/>
      <use xlink:href="#TimesNewRomanPSMT-69" transform="translate(266.552734 0)"/>
      <use xlink:href="#TimesNewRomanPSMT-73" transform="translate(294.335938 0)"/>
      <use xlink:href="#TimesNewRomanPSMT-20" transform="translate(333.251953 0)"/>
      <use xlink:href="#TimesNewRomanPSMT-47" transform="translate(358.251953 0)"/>
      <use xlink:href="#TimesNewRomanPSMT-72" transform="translate(430.46875 0)"/>
      <use xlink:href="#TimesNewRomanPSMT-61" transform="translate(463.769531 0)"/>
      <use xlink:href="#TimesNewRomanPSMT-64" transform="translate(508.154297 0)"/>
      <use xlink:href="#TimesNewRomanPSMT-75" transform="translate(558.154297 0)"/>
      <use xlink:href="#TimesNewRomanPSMT-61" transform="translate(608.154297 0)"/>
      <use xlink:href="#TimesNewRomanPSMT-74" transform="translate(652.539062 0)"/>
      <use xlink:href="#TimesNewRomanPSMT-65" transform="translate(680.322266 0)"/>
      <use xlink:href="#TimesNewRomanPSMT-20" transform="translate(724.707031 0)"/>
      <use xlink:href="#TimesNewRomanPSMT-53" transform="translate(749.707031 0)"/>
      <use xlink:href="#TimesNewRomanPSMT-63" transform="translate(805.322266 0)"/>
      <use xlink:href="#TimesNewRomanPSMT-68" transform="translate(849.707031 0)"/>
      <use xlink:href="#TimesNewRomanPSMT-6f" transform="translate(899.707031 0)"/>
      <use xlink:href="#TimesNewRomanPSMT-6f" transform="translate(949.707031 0)"/>
      <use xlink:href="#TimesNewRomanPSMT-6c" transform="translate(999.707031 0)"/>
     </g>
    </g>
   </g>
  </g>
 </g>
 <defs>
  <clipPath id="p52477b23c1">
   <rect x="10.091927" y="36.92125" width="388.8" height="277.2"/>
  </clipPath>
 </defs>
</svg>
