<?xml version="1.0" encoding="utf-8" standalone="no"?>
<!DOCTYPE svg PUBLIC "-//W3C//DTD SVG 1.1//EN"
  "http://www.w3.org/Graphics/SVG/1.1/DTD/svg11.dtd">
<svg xmlns:xlink="http://www.w3.org/1999/xlink" width="546.524177pt" height="363.785279pt" viewBox="0 0 546.524177 363.785279" xmlns="http://www.w3.org/2000/svg" version="1.1">
 <metadata>
  <rdf:RDF xmlns:dc="http://purl.org/dc/elements/1.1/" xmlns:cc="http://creativecommons.org/ns#" xmlns:rdf="http://www.w3.org/1999/02/22-rdf-syntax-ns#">
   <cc:Work>
    <dc:type rdf:resource="http://purl.org/dc/dcmitype/StillImage"/>
    <dc:date>2025-05-30T23:53:45.865312</dc:date>
    <dc:format>image/svg+xml</dc:format>
    <dc:creator>
     <cc:Agent>
      <dc:title>Matplotlib v3.10.3, https://matplotlib.org/</dc:title>
     </cc:Agent>
    </dc:creator>
   </cc:Work>
  </rdf:RDF>
 </metadata>
 <defs>
  <style type="text/css">*{stroke-linejoin: round; stroke-linecap: butt}</style>
 </defs>
 <g id="figure_1">
  <g id="patch_1">
   <path d="M 0 363.785279 
L 546.524177 363.785279 
L 546.524177 0 
L 0 0 
z
" style="fill: #ffffff"/>
  </g>
  <g id="axes_1">
   <g id="patch_2">
    <path d="M 10.091927 314.12125 
L 398.891927 314.12125 
L 398.891927 36.92125 
L 10.091927 36.92125 
z
" style="fill: #ffffff"/>
   </g>
   <g id="FillBetweenPolyCollection_1">
    <path d="M 27.764654 243.099215 
L 27.764654 279.16959 
L 30.307492 281.301032 
L 32.850331 283.193345 
L 35.393169 284.855879 
L 37.936008 286.297982 
L 40.478846 287.529005 
L 43.021685 288.558296 
L 45.564523 289.395205 
L 48.107362 290.049082 
L 50.6502 290.529275 
L 53.193038 290.845135 
L 55.735877 291.00601 
L 58.278715 291.02125 
L 60.821554 290.900205 
L 63.364392 290.652223 
L 65.907231 290.286655 
L 68.450069 289.81285 
L 70.992908 289.240157 
L 73.535746 288.577925 
L 76.078585 287.835504 
L 78.621423 287.022244 
L 81.164262 286.147493 
L 83.7071 285.22039 
L 86.249938 284.247092 
L 88.792777 283.231554 
L 91.335615 282.177678 
L 93.878454 281.089367 
L 96.421292 279.970525 
L 98.964131 278.825053 
L 101.506969 277.656855 
L 104.049808 276.469834 
L 106.592646 275.267891 
L 109.135485 274.054931 
L 111.678323 272.8355 
L 114.221161 271.617398 
L 116.764 270.409444 
L 119.306838 269.220461 
L 121.849677 268.059268 
L 124.392515 266.934688 
L 126.935354 265.855541 
L 129.478192 264.830648 
L 132.021031 263.868832 
L 134.563869 262.978912 
L 137.106708 262.169687 
L 139.649546 261.576674 
L 142.192384 261.088968 
L 144.735223 260.610294 
L 147.278061 260.150567 
L 149.8209 259.7197 
L 152.363738 259.327606 
L 154.906577 258.984201 
L 157.449415 258.699397 
L 159.992254 258.52359 
L 162.535092 258.482188 
L 165.077931 258.505363 
L 167.620769 258.592468 
L 170.163607 258.744229 
L 172.706446 258.961425 
L 175.249284 259.244832 
L 177.792123 259.595227 
L 180.334961 260.013387 
L 182.8778 260.500089 
L 185.420638 261.05611 
L 187.963477 261.682228 
L 190.506315 262.379219 
L 193.049154 263.147925 
L 195.591992 263.989603 
L 198.134831 264.905673 
L 200.677669 265.897553 
L 203.220507 266.966663 
L 205.763346 268.114425 
L 208.306184 269.342256 
L 210.849023 270.651578 
L 213.391861 272.043809 
L 215.9347 273.52037 
L 218.477538 275.082653 
L 221.020377 276.72063 
L 223.563215 278.395237 
L 226.106054 280.062862 
L 228.648892 281.679893 
L 231.19173 283.20272 
L 233.734569 284.58773 
L 236.277407 285.791311 
L 238.820246 286.769853 
L 241.363084 287.479744 
L 243.905923 287.877371 
L 246.448761 287.920667 
L 248.9916 287.610404 
L 251.534438 286.994714 
L 254.077277 286.124183 
L 256.620115 285.049394 
L 259.162953 283.820934 
L 261.705792 282.489386 
L 264.24863 281.105336 
L 266.791469 279.719368 
L 269.334307 278.382066 
L 271.877146 277.144016 
L 274.419984 276.052406 
L 276.962823 275.126687 
L 279.505661 274.372769 
L 282.0485 273.796467 
L 284.591338 273.403599 
L 287.134176 273.19998 
L 289.677015 273.191427 
L 292.219853 273.383756 
L 294.762692 273.782784 
L 297.30553 274.394899 
L 299.848369 275.224197 
L 302.391207 276.264681 
L 304.934046 277.465057 
L 307.476884 278.766076 
L 310.019723 280.108485 
L 312.562561 281.433036 
L 315.1054 282.680478 
L 317.648238 283.79156 
L 320.191076 284.707031 
L 322.733915 285.367642 
L 325.276753 285.714141 
L 327.819592 285.688357 
L 330.36243 285.278097 
L 332.905269 284.533369 
L 335.448107 283.508597 
L 337.990946 282.258206 
L 340.533784 280.836618 
L 343.076623 279.298258 
L 345.619461 277.697549 
L 348.162299 276.088916 
L 350.705138 274.526781 
L 353.247976 273.06557 
L 355.790815 271.759705 
L 358.333653 270.66361 
L 360.876492 269.83171 
L 363.41933 269.318427 
L 365.962169 269.178186 
L 368.505007 269.465411 
L 371.047846 270.234526 
L 373.590684 271.539953 
L 376.133522 273.436117 
L 378.676361 275.977443 
L 381.219199 279.218352 
L 381.219199 244.38794 
L 381.219199 244.38794 
L 378.676361 245.030244 
L 376.133522 245.699056 
L 373.590684 246.385157 
L 371.047846 247.079325 
L 368.505007 247.77234 
L 365.962169 248.45498 
L 363.41933 249.118026 
L 360.876492 249.752256 
L 358.333653 250.348449 
L 355.790815 250.897385 
L 353.247976 251.389844 
L 350.705138 251.816603 
L 348.162299 252.168443 
L 345.619461 252.436143 
L 343.076623 252.610482 
L 340.533784 252.682239 
L 337.990946 252.642194 
L 335.448107 252.481125 
L 332.905269 252.189813 
L 330.36243 251.759035 
L 327.819592 251.179572 
L 325.276753 250.443765 
L 322.733915 249.565965 
L 320.191076 248.576793 
L 317.648238 247.507251 
L 315.1054 246.388342 
L 312.562561 245.251067 
L 310.019723 244.126429 
L 307.476884 243.045431 
L 304.934046 242.039075 
L 302.391207 241.138362 
L 299.848369 240.374296 
L 297.30553 239.773868 
L 294.762692 239.338682 
L 292.219853 239.066507 
L 289.677015 238.952822 
L 287.134176 238.993677 
L 284.591338 239.185124 
L 282.0485 239.523213 
L 279.505661 240.003996 
L 276.962823 240.623523 
L 274.419984 241.377845 
L 271.877146 242.26296 
L 269.334307 243.267044 
L 266.791469 244.362251 
L 264.24863 245.518777 
L 261.705792 246.706816 
L 259.162953 247.89656 
L 256.620115 249.058206 
L 254.077277 250.161946 
L 251.534438 251.177975 
L 248.9916 252.076487 
L 246.448761 252.827676 
L 243.905923 253.402452 
L 241.363084 253.785541 
L 238.820246 253.97417 
L 236.277407 253.966015 
L 233.734569 253.758752 
L 231.19173 253.350058 
L 228.648892 252.737609 
L 226.106054 251.91908 
L 223.563215 250.892149 
L 221.020377 249.654492 
L 218.477538 248.203784 
L 215.9347 246.542421 
L 213.391861 244.702924 
L 210.849023 242.729665 
L 208.306184 240.667047 
L 205.763346 238.559468 
L 203.220507 236.451331 
L 200.677669 234.387034 
L 198.134831 232.410979 
L 195.591992 230.567567 
L 193.049154 228.901198 
L 190.506315 227.456233 
L 187.963477 226.260451 
L 185.420638 225.299474 
L 182.8778 224.55232 
L 180.334961 223.998008 
L 177.792123 223.615556 
L 175.249284 223.383985 
L 172.706446 223.282312 
L 170.163607 223.289557 
L 167.620769 223.384738 
L 165.077931 223.546874 
L 162.535092 223.755298 
L 159.992254 223.998066 
L 157.449415 224.340531 
L 154.906577 224.753236 
L 152.363738 225.181734 
L 149.8209 225.61206 
L 147.278061 226.030248 
L 144.735223 226.422332 
L 142.192384 226.774349 
L 139.649546 227.072332 
L 137.106708 227.408505 
L 134.563869 227.892791 
L 132.021031 228.413758 
L 129.478192 228.998936 
L 126.935354 229.675913 
L 124.392515 230.472276 
L 121.849677 231.415616 
L 119.306838 232.533519 
L 116.764 233.853574 
L 114.221161 235.403371 
L 111.678323 237.210497 
L 109.135485 239.302532 
L 106.592646 241.685206 
L 104.049808 244.29476 
L 101.506969 247.053657 
L 98.964131 249.884357 
L 96.421292 252.709322 
L 93.878454 255.451014 
L 91.335615 258.031893 
L 88.792777 260.37442 
L 86.249938 262.401059 
L 83.7071 264.034269 
L 81.164262 265.197673 
L 78.621423 265.864432 
L 76.078585 266.074721 
L 73.535746 265.87347 
L 70.992908 265.305611 
L 68.450069 264.416075 
L 65.907231 263.249793 
L 63.364392 261.851695 
L 60.821554 260.266714 
L 58.278715 258.539781 
L 55.735877 256.715826 
L 53.193038 254.839781 
L 50.6502 252.956576 
L 48.107362 251.111144 
L 45.564523 249.348415 
L 43.021685 247.71332 
L 40.478846 246.25079 
L 37.936008 245.005757 
L 35.393169 244.023152 
L 32.850331 243.347906 
L 30.307492 243.02495 
L 27.764654 243.099215 
z
" clip-path="url(#p44d333c48f)" style="fill: #1f77b4"/>
   </g>
   <g id="FillBetweenPolyCollection_2">
    <path d="M 27.764654 208.245583 
L 27.764654 243.099215 
L 30.307492 243.02495 
L 32.850331 243.347906 
L 35.393169 244.023152 
L 37.936008 245.005757 
L 40.478846 246.25079 
L 43.021685 247.71332 
L 45.564523 249.348415 
L 48.107362 251.111144 
L 50.6502 252.956576 
L 53.193038 254.839781 
L 55.735877 256.715826 
L 58.278715 258.539781 
L 60.821554 260.266714 
L 63.364392 261.851695 
L 65.907231 263.249793 
L 68.450069 264.416075 
L 70.992908 265.305611 
L 73.535746 265.87347 
L 76.078585 266.074721 
L 78.621423 265.864432 
L 81.164262 265.197673 
L 83.7071 264.034269 
L 86.249938 262.401059 
L 88.792777 260.37442 
L 91.335615 258.031893 
L 93.878454 255.451014 
L 96.421292 252.709322 
L 98.964131 249.884357 
L 101.506969 247.053657 
L 104.049808 244.29476 
L 106.592646 241.685206 
L 109.135485 239.302532 
L 111.678323 237.210497 
L 114.221161 235.403371 
L 116.764 233.853574 
L 119.306838 232.533519 
L 121.849677 231.415616 
L 124.392515 230.472276 
L 126.935354 229.675913 
L 129.478192 228.998936 
L 132.021031 228.413758 
L 134.563869 227.892791 
L 137.106708 227.408505 
L 139.649546 227.072332 
L 142.192384 226.774349 
L 144.735223 226.422332 
L 147.278061 226.030248 
L 149.8209 225.61206 
L 152.363738 225.181734 
L 154.906577 224.753236 
L 157.449415 224.340531 
L 159.992254 223.998066 
L 162.535092 223.755298 
L 165.077931 223.546874 
L 167.620769 223.384738 
L 170.163607 223.289557 
L 172.706446 223.282312 
L 175.249284 223.383985 
L 177.792123 223.615556 
L 180.334961 223.998008 
L 182.8778 224.55232 
L 185.420638 225.299474 
L 187.963477 226.260451 
L 190.506315 227.456233 
L 193.049154 228.901198 
L 195.591992 230.567567 
L 198.134831 232.410979 
L 200.677669 234.387034 
L 203.220507 236.451331 
L 205.763346 238.559468 
L 208.306184 240.667047 
L 210.849023 242.729665 
L 213.391861 244.702924 
L 215.9347 246.542421 
L 218.477538 248.203784 
L 221.020377 249.654492 
L 223.563215 250.892149 
L 226.106054 251.91908 
L 228.648892 252.737609 
L 231.19173 253.350058 
L 233.734569 253.758752 
L 236.277407 253.966015 
L 238.820246 253.97417 
L 241.363084 253.785541 
L 243.905923 253.402452 
L 246.448761 252.827676 
L 248.9916 252.076487 
L 251.534438 251.177975 
L 254.077277 250.161946 
L 256.620115 249.058206 
L 259.162953 247.89656 
L 261.705792 246.706816 
L 264.24863 245.518777 
L 266.791469 244.362251 
L 269.334307 243.267044 
L 271.877146 242.26296 
L 274.419984 241.377845 
L 276.962823 240.623523 
L 279.505661 240.003996 
L 282.0485 239.523213 
L 284.591338 239.185124 
L 287.134176 238.993677 
L 289.677015 238.952822 
L 292.219853 239.066507 
L 294.762692 239.338682 
L 297.30553 239.773868 
L 299.848369 240.374296 
L 302.391207 241.138362 
L 304.934046 242.039075 
L 307.476884 243.045431 
L 310.019723 244.126429 
L 312.562561 245.251067 
L 315.1054 246.388342 
L 317.648238 247.507251 
L 320.191076 248.576793 
L 322.733915 249.565965 
L 325.276753 250.443765 
L 327.819592 251.179572 
L 330.36243 251.759035 
L 332.905269 252.189813 
L 335.448107 252.481125 
L 337.990946 252.642194 
L 340.533784 252.682239 
L 343.076623 252.610482 
L 345.619461 252.436143 
L 348.162299 252.168443 
L 350.705138 251.816603 
L 353.247976 251.389844 
L 355.790815 250.897385 
L 358.333653 250.348449 
L 360.876492 249.752256 
L 363.41933 249.118026 
L 365.962169 248.45498 
L 368.505007 247.77234 
L 371.047846 247.079325 
L 373.590684 246.385157 
L 376.133522 245.699056 
L 378.676361 245.030244 
L 381.219199 244.38794 
L 381.219199 214.703141 
L 381.219199 214.703141 
L 378.676361 214.316556 
L 376.133522 213.957522 
L 373.590684 213.622642 
L 371.047846 213.308518 
L 368.505007 213.011752 
L 365.962169 212.728945 
L 363.41933 212.456701 
L 360.876492 212.19162 
L 358.333653 211.930306 
L 355.790815 211.669359 
L 353.247976 211.405383 
L 350.705138 211.134979 
L 348.162299 210.854749 
L 345.619461 210.561295 
L 343.076623 210.25122 
L 340.533784 209.921124 
L 337.990946 209.567612 
L 335.448107 209.187283 
L 332.905269 208.776741 
L 330.36243 208.332587 
L 327.819592 207.851424 
L 325.276753 207.330904 
L 322.733915 206.78347 
L 320.191076 206.2325 
L 317.648238 205.701629 
L 315.1054 205.214491 
L 312.562561 204.794721 
L 310.019723 204.465953 
L 307.476884 204.251822 
L 304.934046 204.175962 
L 302.391207 204.262008 
L 299.848369 204.533593 
L 297.30553 205.008681 
L 294.762692 205.671462 
L 292.219853 206.499658 
L 289.677015 207.468698 
L 287.134176 208.554584 
L 284.591338 209.733319 
L 282.0485 210.980904 
L 279.505661 212.273342 
L 276.962823 213.586634 
L 274.419984 214.896782 
L 271.877146 216.1798 
L 269.334307 217.413431 
L 266.791469 218.578954 
L 264.24863 219.658084 
L 261.705792 220.632537 
L 259.162953 221.484026 
L 256.620115 222.194265 
L 254.077277 222.74497 
L 251.534438 223.117853 
L 248.9916 223.294631 
L 246.448761 223.257018 
L 243.905923 222.987427 
L 241.363084 222.481813 
L 238.820246 221.748375 
L 236.277407 220.795752 
L 233.734569 219.632583 
L 231.19173 218.26751 
L 228.648892 216.709171 
L 226.106054 214.966207 
L 223.563215 213.047258 
L 221.020377 210.960962 
L 218.477538 208.715961 
L 215.9347 206.325104 
L 213.391861 203.828135 
L 210.849023 201.275371 
L 208.306184 198.717157 
L 205.763346 196.203835 
L 203.220507 193.78575 
L 200.677669 191.513246 
L 198.134831 189.436665 
L 195.591992 187.606353 
L 193.049154 186.072653 
L 190.506315 184.885858 
L 187.963477 184.075336 
L 185.420638 183.617249 
L 182.8778 183.479425 
L 180.334961 183.629695 
L 177.792123 184.035887 
L 175.249284 184.665833 
L 172.706446 185.48736 
L 170.163607 186.468299 
L 167.620769 187.576479 
L 165.077931 188.779729 
L 162.535092 190.046108 
L 159.992254 191.350007 
L 157.449415 192.740477 
L 154.906577 194.17162 
L 152.363738 195.572548 
L 149.8209 196.912855 
L 147.278061 198.162135 
L 144.735223 199.289985 
L 142.192384 200.265997 
L 139.649546 201.059767 
L 137.106708 201.747077 
L 134.563869 202.423576 
L 132.021031 202.981257 
L 129.478192 203.459712 
L 126.935354 203.898651 
L 124.392515 204.337786 
L 121.849677 204.816828 
L 119.306838 205.375486 
L 116.764 206.053473 
L 114.221161 206.890499 
L 111.678323 207.926275 
L 109.135485 209.200503 
L 106.592646 210.73013 
L 104.049808 212.459742 
L 101.506969 214.319573 
L 98.964131 216.239857 
L 96.421292 218.150829 
L 93.878454 219.982722 
L 91.335615 221.665772 
L 88.792777 223.130212 
L 86.249938 224.306277 
L 83.7071 225.124202 
L 81.164262 225.515365 
L 78.621423 225.460024 
L 76.078585 225.004552 
L 73.535746 224.200018 
L 70.992908 223.097488 
L 68.450069 221.74803 
L 65.907231 220.202711 
L 63.364392 218.5126 
L 60.821554 216.728763 
L 58.278715 214.902269 
L 55.735877 213.084184 
L 53.193038 211.325576 
L 50.6502 209.677512 
L 48.107362 208.191061 
L 45.564523 206.917289 
L 43.021685 205.907264 
L 40.478846 205.212054 
L 37.936008 204.882725 
L 35.393169 204.970347 
L 32.850331 205.525985 
L 30.307492 206.600708 
L 27.764654 208.245583 
z
" clip-path="url(#p44d333c48f)" style="fill: #aec7e8"/>
   </g>
   <g id="FillBetweenPolyCollection_3">
    <path d="M 27.764654 174.687642 
L 27.764654 208.245583 
L 30.307492 206.600708 
L 32.850331 205.525985 
L 35.393169 204.970347 
L 37.936008 204.882725 
L 40.478846 205.212054 
L 43.021685 205.907264 
L 45.564523 206.917289 
L 48.107362 208.191061 
L 50.6502 209.677512 
L 53.193038 211.325576 
L 55.735877 213.084184 
L 58.278715 214.902269 
L 60.821554 216.728763 
L 63.364392 218.5126 
L 65.907231 220.202711 
L 68.450069 221.74803 
L 70.992908 223.097488 
L 73.535746 224.200018 
L 76.078585 225.004552 
L 78.621423 225.460024 
L 81.164262 225.515365 
L 83.7071 225.124202 
L 86.249938 224.306277 
L 88.792777 223.130212 
L 91.335615 221.665772 
L 93.878454 219.982722 
L 96.421292 218.150829 
L 98.964131 216.239857 
L 101.506969 214.319573 
L 104.049808 212.459742 
L 106.592646 210.73013 
L 109.135485 209.200503 
L 111.678323 207.926275 
L 114.221161 206.890499 
L 116.764 206.053473 
L 119.306838 205.375486 
L 121.849677 204.816828 
L 124.392515 204.337786 
L 126.935354 203.898651 
L 129.478192 203.459712 
L 132.021031 202.981257 
L 134.563869 202.423576 
L 137.106708 201.747077 
L 139.649546 201.059767 
L 142.192384 200.265997 
L 144.735223 199.289985 
L 147.278061 198.162135 
L 149.8209 196.912855 
L 152.363738 195.572548 
L 154.906577 194.17162 
L 157.449415 192.740477 
L 159.992254 191.350007 
L 162.535092 190.046108 
L 165.077931 188.779729 
L 167.620769 187.576479 
L 170.163607 186.468299 
L 172.706446 185.48736 
L 175.249284 184.665833 
L 177.792123 184.035887 
L 180.334961 183.629695 
L 182.8778 183.479425 
L 185.420638 183.617249 
L 187.963477 184.075336 
L 190.506315 184.885858 
L 193.049154 186.072653 
L 195.591992 187.606353 
L 198.134831 189.436665 
L 200.677669 191.513246 
L 203.220507 193.78575 
L 205.763346 196.203835 
L 208.306184 198.717157 
L 210.849023 201.275371 
L 213.391861 203.828135 
L 215.9347 206.325104 
L 218.477538 208.715961 
L 221.020377 210.960962 
L 223.563215 213.047258 
L 226.106054 214.966207 
L 228.648892 216.709171 
L 231.19173 218.26751 
L 233.734569 219.632583 
L 236.277407 220.795752 
L 238.820246 221.748375 
L 241.363084 222.481813 
L 243.905923 222.987427 
L 246.448761 223.257018 
L 248.9916 223.294631 
L 251.534438 223.117853 
L 254.077277 222.74497 
L 256.620115 222.194265 
L 259.162953 221.484026 
L 261.705792 220.632537 
L 264.24863 219.658084 
L 266.791469 218.578954 
L 269.334307 217.413431 
L 271.877146 216.1798 
L 274.419984 214.896782 
L 276.962823 213.586634 
L 279.505661 212.273342 
L 282.0485 210.980904 
L 284.591338 209.733319 
L 287.134176 208.554584 
L 289.677015 207.468698 
L 292.219853 206.499658 
L 294.762692 205.671462 
L 297.30553 205.008681 
L 299.848369 204.533593 
L 302.391207 204.262008 
L 304.934046 204.175962 
L 307.476884 204.251822 
L 310.019723 204.465953 
L 312.562561 204.794721 
L 315.1054 205.214491 
L 317.648238 205.701629 
L 320.191076 206.2325 
L 322.733915 206.78347 
L 325.276753 207.330904 
L 327.819592 207.851424 
L 330.36243 208.332587 
L 332.905269 208.776741 
L 335.448107 209.187283 
L 337.990946 209.567612 
L 340.533784 209.921124 
L 343.076623 210.25122 
L 345.619461 210.561295 
L 348.162299 210.854749 
L 350.705138 211.134979 
L 353.247976 211.405383 
L 355.790815 211.669359 
L 358.333653 211.930306 
L 360.876492 212.19162 
L 363.41933 212.456701 
L 365.962169 212.728945 
L 368.505007 213.011752 
L 371.047846 213.308518 
L 373.590684 213.622642 
L 376.133522 213.957522 
L 378.676361 214.316556 
L 381.219199 214.703141 
L 381.219199 168.262592 
L 381.219199 168.262592 
L 378.676361 167.876009 
L 376.133522 167.516978 
L 373.590684 167.182099 
L 371.047846 166.867975 
L 368.505007 166.571209 
L 365.962169 166.288402 
L 363.41933 166.016157 
L 360.876492 165.751075 
L 358.333653 165.489759 
L 355.790815 165.228811 
L 353.247976 164.964833 
L 350.705138 164.694428 
L 348.162299 164.414196 
L 345.619461 164.120741 
L 343.076623 163.810665 
L 340.533784 163.480569 
L 337.990946 163.127056 
L 335.448107 162.746728 
L 332.905269 162.336187 
L 330.36243 161.892035 
L 327.819592 161.410874 
L 325.276753 160.890357 
L 322.733915 160.342927 
L 320.191076 159.791961 
L 317.648238 159.261094 
L 315.1054 158.773959 
L 312.562561 158.354192 
L 310.019723 158.025425 
L 307.476884 157.811293 
L 304.934046 157.735429 
L 302.391207 157.821469 
L 299.848369 158.093045 
L 297.30553 158.56812 
L 294.762692 159.230887 
L 292.219853 160.059067 
L 289.677015 161.028093 
L 287.134176 162.113968 
L 284.591338 163.292696 
L 282.0485 164.54028 
L 279.505661 165.832723 
L 276.962823 167.146031 
L 274.419984 168.456205 
L 271.877146 169.739261 
L 269.334307 170.972941 
L 266.791469 172.13852 
L 264.24863 173.217706 
L 261.705792 174.192209 
L 259.162953 175.043736 
L 256.620115 175.753996 
L 254.077277 176.304697 
L 251.534438 176.677549 
L 248.9916 176.854258 
L 246.448761 176.816535 
L 243.905923 176.546788 
L 241.363084 176.04098 
L 238.820246 175.307331 
L 236.277407 174.354503 
L 233.734569 173.191159 
L 231.19173 171.825961 
L 228.648892 170.26757 
L 226.106054 168.524649 
L 223.563215 166.60586 
L 221.020377 164.519864 
L 218.477538 162.275325 
L 215.9347 159.885104 
L 213.391861 157.388887 
L 210.849023 154.83691 
L 208.306184 152.279433 
L 205.763346 149.766718 
L 203.220507 147.349025 
L 200.677669 145.076615 
L 198.134831 142.999748 
L 195.591992 141.168686 
L 193.049154 139.633689 
L 190.506315 138.444968 
L 187.963477 137.631908 
L 185.420638 137.17094 
L 182.8778 137.030203 
L 180.334961 137.177836 
L 177.792123 137.581979 
L 175.249284 138.21077 
L 172.706446 139.03235 
L 170.163607 140.014857 
L 167.620769 141.126431 
L 165.077931 142.33521 
L 162.535092 143.609539 
L 159.992254 144.923427 
L 157.449415 146.324809 
L 154.906577 147.76663 
L 152.363738 149.176847 
L 149.8209 150.523898 
L 147.278061 151.776222 
L 144.735223 152.902258 
L 142.192384 153.870445 
L 139.649546 154.649221 
L 137.106708 155.313213 
L 134.563869 155.95733 
L 132.021031 156.47621 
L 129.478192 156.91375 
L 126.935354 157.313973 
L 124.392515 157.720904 
L 121.849677 158.178566 
L 119.306838 158.730984 
L 116.764 159.422183 
L 114.221161 160.296187 
L 111.678323 161.39702 
L 109.135485 162.768697 
L 106.592646 164.431317 
L 104.049808 166.328915 
L 101.506969 168.390444 
L 98.964131 170.544859 
L 96.421292 172.721111 
L 93.878454 174.848153 
L 91.335615 176.854938 
L 88.792777 178.670419 
L 86.249938 180.223548 
L 83.7071 181.44328 
L 81.164262 182.259697 
L 78.621423 182.65117 
L 76.078585 182.661387 
L 73.535746 182.33867 
L 70.992908 181.731345 
L 68.450069 180.887735 
L 65.907231 179.856165 
L 63.364392 178.684957 
L 60.821554 177.422437 
L 58.278715 176.116928 
L 55.735877 174.816755 
L 53.193038 173.57024 
L 50.6502 172.425709 
L 48.107362 171.431486 
L 45.564523 170.635894 
L 43.021685 170.087257 
L 40.478846 169.833899 
L 37.936008 169.924145 
L 35.393169 170.406318 
L 32.850331 171.328743 
L 30.307492 172.739743 
L 27.764654 174.687642 
z
" clip-path="url(#p44d333c48f)" style="fill: #ff7f0e"/>
   </g>
   <g id="FillBetweenPolyCollection_4">
    <path d="M 27.764654 141.296887 
L 27.764654 174.687642 
L 30.307492 172.739743 
L 32.850331 171.328743 
L 35.393169 170.406318 
L 37.936008 169.924145 
L 40.478846 169.833899 
L 43.021685 170.087257 
L 45.564523 170.635894 
L 48.107362 171.431486 
L 50.6502 172.425709 
L 53.193038 173.57024 
L 55.735877 174.816755 
L 58.278715 176.116928 
L 60.821554 177.422437 
L 63.364392 178.684957 
L 65.907231 179.856165 
L 68.450069 180.887735 
L 70.992908 181.731345 
L 73.535746 182.33867 
L 76.078585 182.661387 
L 78.621423 182.65117 
L 81.164262 182.259697 
L 83.7071 181.44328 
L 86.249938 180.223548 
L 88.792777 178.670419 
L 91.335615 176.854938 
L 93.878454 174.848153 
L 96.421292 172.721111 
L 98.964131 170.544859 
L 101.506969 168.390444 
L 104.049808 166.328915 
L 106.592646 164.431317 
L 109.135485 162.768697 
L 111.678323 161.39702 
L 114.221161 160.296187 
L 116.764 159.422183 
L 119.306838 158.730984 
L 121.849677 158.178566 
L 124.392515 157.720904 
L 126.935354 157.313973 
L 129.478192 156.91375 
L 132.021031 156.47621 
L 134.563869 155.95733 
L 137.106708 155.313213 
L 139.649546 154.649221 
L 142.192384 153.870445 
L 144.735223 152.902258 
L 147.278061 151.776222 
L 149.8209 150.523898 
L 152.363738 149.176847 
L 154.906577 147.76663 
L 157.449415 146.324809 
L 159.992254 144.923427 
L 162.535092 143.609539 
L 165.077931 142.33521 
L 167.620769 141.126431 
L 170.163607 140.014857 
L 172.706446 139.03235 
L 175.249284 138.21077 
L 177.792123 137.581979 
L 180.334961 137.177836 
L 182.8778 137.030203 
L 185.420638 137.17094 
L 187.963477 137.631908 
L 190.506315 138.444968 
L 193.049154 139.633689 
L 195.591992 141.168686 
L 198.134831 142.999748 
L 200.677669 145.076615 
L 203.220507 147.349025 
L 205.763346 149.766718 
L 208.306184 152.279433 
L 210.849023 154.83691 
L 213.391861 157.388887 
L 215.9347 159.885104 
L 218.477538 162.275325 
L 221.020377 164.519864 
L 223.563215 166.60586 
L 226.106054 168.524649 
L 228.648892 170.26757 
L 231.19173 171.825961 
L 233.734569 173.191159 
L 236.277407 174.354503 
L 238.820246 175.307331 
L 241.363084 176.04098 
L 243.905923 176.546788 
L 246.448761 176.816535 
L 248.9916 176.854258 
L 251.534438 176.677549 
L 254.077277 176.304697 
L 256.620115 175.753996 
L 259.162953 175.043736 
L 261.705792 174.192209 
L 264.24863 173.217706 
L 266.791469 172.13852 
L 269.334307 170.972941 
L 271.877146 169.739261 
L 274.419984 168.456205 
L 276.962823 167.146031 
L 279.505661 165.832723 
L 282.0485 164.54028 
L 284.591338 163.292696 
L 287.134176 162.113968 
L 289.677015 161.028093 
L 292.219853 160.059067 
L 294.762692 159.230887 
L 297.30553 158.56812 
L 299.848369 158.093045 
L 302.391207 157.821469 
L 304.934046 157.735429 
L 307.476884 157.811293 
L 310.019723 158.025425 
L 312.562561 158.354192 
L 315.1054 158.773959 
L 317.648238 159.261094 
L 320.191076 159.791961 
L 322.733915 160.342927 
L 325.276753 160.890357 
L 327.819592 161.410874 
L 330.36243 161.892035 
L 332.905269 162.336187 
L 335.448107 162.746728 
L 337.990946 163.127056 
L 340.533784 163.480569 
L 343.076623 163.810665 
L 345.619461 164.120741 
L 348.162299 164.414196 
L 350.705138 164.694428 
L 353.247976 164.964833 
L 355.790815 165.228811 
L 358.333653 165.489759 
L 360.876492 165.751075 
L 363.41933 166.016157 
L 365.962169 166.288402 
L 368.505007 166.571209 
L 371.047846 166.867975 
L 373.590684 167.182099 
L 376.133522 167.516978 
L 378.676361 167.876009 
L 381.219199 168.262592 
L 381.219199 147.550107 
L 381.219199 147.550107 
L 378.676361 151.401623 
L 376.133522 154.74024 
L 373.590684 157.582898 
L 371.047846 159.946536 
L 368.505007 161.848094 
L 365.962169 163.304512 
L 363.41933 164.332729 
L 360.876492 164.949686 
L 358.333653 165.172321 
L 355.790815 165.017576 
L 353.247976 164.502388 
L 350.705138 163.643699 
L 348.162299 162.458448 
L 345.619461 160.963575 
L 343.076623 159.176018 
L 340.533784 157.112719 
L 337.990946 154.790617 
L 335.448107 152.226651 
L 332.905269 149.437762 
L 330.36243 146.440888 
L 327.819592 143.25297 
L 325.276753 139.893155 
L 322.733915 136.411695 
L 320.191076 132.88183 
L 317.648238 129.377344 
L 315.1054 125.972017 
L 312.562561 122.739632 
L 310.019723 119.75397 
L 307.476884 117.088813 
L 304.934046 114.817942 
L 302.391207 113.015139 
L 299.848369 111.754186 
L 297.30553 111.090514 
L 294.762692 110.981855 
L 292.219853 111.359367 
L 289.677015 112.151911 
L 287.134176 113.28892 
L 284.591338 114.699825 
L 282.0485 116.314059 
L 279.505661 118.061055 
L 276.962823 119.870244 
L 274.419984 121.671059 
L 271.877146 123.393123 
L 269.334307 124.994326 
L 266.791469 126.49044 
L 264.24863 127.904326 
L 261.705792 129.258843 
L 259.162953 130.576852 
L 256.620115 131.881214 
L 254.077277 133.194789 
L 251.534438 134.540437 
L 248.9916 135.941019 
L 246.448761 137.419394 
L 243.905923 138.996551 
L 241.363084 140.65728 
L 238.820246 142.353632 
L 236.277407 144.036482 
L 233.734569 145.656699 
L 231.19173 147.165158 
L 228.648892 148.512729 
L 226.106054 149.650286 
L 223.563215 150.528701 
L 221.020377 151.098845 
L 218.477538 151.311592 
L 215.9347 151.128275 
L 213.391861 150.577046 
L 210.849023 149.712331 
L 208.306184 148.588624 
L 205.763346 147.260414 
L 203.220507 145.782194 
L 200.677669 144.208454 
L 198.134831 142.593685 
L 195.591992 140.992379 
L 193.049154 139.459028 
L 190.506315 138.048071 
L 187.963477 136.793063 
L 185.420638 135.674445 
L 182.8778 134.664342 
L 180.334961 133.734881 
L 177.792123 132.858186 
L 175.249284 132.006382 
L 172.706446 131.151596 
L 170.163607 130.265952 
L 167.620769 129.321576 
L 165.077931 128.290593 
L 162.535092 127.146168 
L 159.992254 125.890314 
L 157.449415 124.624594 
L 154.906577 123.356911 
L 152.363738 122.070176 
L 149.8209 120.787786 
L 147.278061 119.533136 
L 144.735223 118.32962 
L 142.192384 117.200633 
L 139.649546 116.169571 
L 137.106708 115.366017 
L 134.563869 114.932029 
L 132.021031 114.74564 
L 129.478192 114.803005 
L 126.935354 115.100197 
L 124.392515 115.633292 
L 121.849677 116.398363 
L 119.306838 117.391484 
L 116.764 118.608728 
L 114.221161 120.046171 
L 111.678323 121.699886 
L 109.135485 123.565943 
L 106.592646 125.629351 
L 104.049808 127.839953 
L 101.506969 130.140613 
L 98.964131 132.474198 
L 96.421292 134.783573 
L 93.878454 137.011605 
L 91.335615 139.101158 
L 88.792777 140.995099 
L 86.249938 142.636294 
L 83.7071 143.967609 
L 81.164262 144.932852 
L 78.621423 145.516055 
L 76.078585 145.755667 
L 73.535746 145.693996 
L 70.992908 145.37335 
L 68.450069 144.83604 
L 65.907231 144.124374 
L 63.364392 143.280661 
L 60.821554 142.34721 
L 58.278715 141.366331 
L 55.735877 140.380333 
L 53.193038 139.431525 
L 50.6502 138.562216 
L 48.107362 137.814714 
L 45.564523 137.23133 
L 43.021685 136.854372 
L 40.478846 136.72615 
L 37.936008 136.888972 
L 35.393169 137.385147 
L 32.850331 138.256986 
L 30.307492 139.546796 
L 27.764654 141.296887 
z
" clip-path="url(#p44d333c48f)" style="fill: #ffbb78"/>
   </g>
   <g id="FillBetweenPolyCollection_5">
    <path d="M 27.764654 106.094951 
L 27.764654 141.296887 
L 30.307492 139.546796 
L 32.850331 138.256986 
L 35.393169 137.385147 
L 37.936008 136.888972 
L 40.478846 136.72615 
L 43.021685 136.854372 
L 45.564523 137.23133 
L 48.107362 137.814714 
L 50.6502 138.562216 
L 53.193038 139.431525 
L 55.735877 140.380333 
L 58.278715 141.366331 
L 60.821554 142.34721 
L 63.364392 143.280661 
L 65.907231 144.124374 
L 68.450069 144.83604 
L 70.992908 145.37335 
L 73.535746 145.693996 
L 76.078585 145.755667 
L 78.621423 145.516055 
L 81.164262 144.932852 
L 83.7071 143.967609 
L 86.249938 142.636294 
L 88.792777 140.995099 
L 91.335615 139.101158 
L 93.878454 137.011605 
L 96.421292 134.783573 
L 98.964131 132.474198 
L 101.506969 130.140613 
L 104.049808 127.839953 
L 106.592646 125.629351 
L 109.135485 123.565943 
L 111.678323 121.699886 
L 114.221161 120.046171 
L 116.764 118.608728 
L 119.306838 117.391484 
L 121.849677 116.398363 
L 124.392515 115.633292 
L 126.935354 115.100197 
L 129.478192 114.803005 
L 132.021031 114.74564 
L 134.563869 114.932029 
L 137.106708 115.366017 
L 139.649546 116.169571 
L 142.192384 117.200633 
L 144.735223 118.32962 
L 147.278061 119.533136 
L 149.8209 120.787786 
L 152.363738 122.070176 
L 154.906577 123.356911 
L 157.449415 124.624594 
L 159.992254 125.890314 
L 162.535092 127.146168 
L 165.077931 128.290593 
L 167.620769 129.321576 
L 170.163607 130.265952 
L 172.706446 131.151596 
L 175.249284 132.006382 
L 177.792123 132.858186 
L 180.334961 133.734881 
L 182.8778 134.664342 
L 185.420638 135.674445 
L 187.963477 136.793063 
L 190.506315 138.048071 
L 193.049154 139.459028 
L 195.591992 140.992379 
L 198.134831 142.593685 
L 200.677669 144.208454 
L 203.220507 145.782194 
L 205.763346 147.260414 
L 208.306184 148.588624 
L 210.849023 149.712331 
L 213.391861 150.577046 
L 215.9347 151.128275 
L 218.477538 151.311592 
L 221.020377 151.098845 
L 223.563215 150.528701 
L 226.106054 149.650286 
L 228.648892 148.512729 
L 231.19173 147.165158 
L 233.734569 145.656699 
L 236.277407 144.036482 
L 238.820246 142.353632 
L 241.363084 140.65728 
L 243.905923 138.996551 
L 246.448761 137.419394 
L 248.9916 135.941019 
L 251.534438 134.540437 
L 254.077277 133.194789 
L 256.620115 131.881214 
L 259.162953 130.576852 
L 261.705792 129.258843 
L 264.24863 127.904326 
L 266.791469 126.49044 
L 269.334307 124.994326 
L 271.877146 123.393123 
L 274.419984 121.671059 
L 276.962823 119.870244 
L 279.505661 118.061055 
L 282.0485 116.314059 
L 284.591338 114.699825 
L 287.134176 113.28892 
L 289.677015 112.151911 
L 292.219853 111.359367 
L 294.762692 110.981855 
L 297.30553 111.090514 
L 299.848369 111.754186 
L 302.391207 113.015139 
L 304.934046 114.817942 
L 307.476884 117.088813 
L 310.019723 119.75397 
L 312.562561 122.739632 
L 315.1054 125.972017 
L 317.648238 129.377344 
L 320.191076 132.88183 
L 322.733915 136.411695 
L 325.276753 139.893155 
L 327.819592 143.25297 
L 330.36243 146.440888 
L 332.905269 149.437762 
L 335.448107 152.226651 
L 337.990946 154.790617 
L 340.533784 157.112719 
L 343.076623 159.176018 
L 345.619461 160.963575 
L 348.162299 162.458448 
L 350.705138 163.643699 
L 353.247976 164.502388 
L 355.790815 165.017576 
L 358.333653 165.172321 
L 360.876492 164.949686 
L 363.41933 164.332729 
L 365.962169 163.304512 
L 368.505007 161.848094 
L 371.047846 159.946536 
L 373.590684 157.582898 
L 376.133522 154.74024 
L 378.676361 151.401623 
L 381.219199 147.550107 
L 381.219199 118.264697 
L 381.219199 118.264697 
L 378.676361 120.985838 
L 376.133522 123.208484 
L 373.590684 124.954675 
L 371.047846 126.246447 
L 368.505007 127.105838 
L 365.962169 127.554885 
L 363.41933 127.615628 
L 360.876492 127.310102 
L 358.333653 126.660346 
L 355.790815 125.688398 
L 353.247976 124.416295 
L 350.705138 122.866075 
L 348.162299 121.059776 
L 345.619461 119.019435 
L 343.076623 116.76709 
L 340.533784 114.324778 
L 337.990946 111.714538 
L 335.448107 108.958407 
L 332.905269 106.078423 
L 330.36243 103.096623 
L 327.819592 100.035045 
L 325.276753 96.917449 
L 322.733915 93.791835 
L 320.191076 90.724131 
L 317.648238 87.780681 
L 315.1054 85.027831 
L 312.562561 82.531925 
L 310.019723 80.35931 
L 307.476884 78.576329 
L 304.934046 77.249329 
L 302.391207 76.444655 
L 299.848369 76.228652 
L 297.30553 76.647601 
L 294.762692 77.641444 
L 292.219853 79.120832 
L 289.677015 80.994116 
L 287.134176 83.170219 
L 284.591338 85.558067 
L 282.0485 88.066581 
L 279.505661 90.604687 
L 276.962823 93.081306 
L 274.419984 95.405364 
L 271.877146 97.486043 
L 269.334307 99.270949 
L 266.791469 100.786371 
L 264.24863 102.068234 
L 261.705792 103.152461 
L 259.162953 104.074975 
L 256.620115 104.871701 
L 254.077277 105.578562 
L 251.534438 106.231482 
L 248.9916 106.866385 
L 246.448761 107.519194 
L 243.905923 108.223877 
L 241.363084 108.976591 
L 238.820246 109.739297 
L 236.277407 110.472722 
L 233.734569 111.137595 
L 231.19173 111.694642 
L 228.648892 112.104591 
L 226.106054 112.328171 
L 223.563215 112.326109 
L 221.020377 112.059133 
L 218.477538 111.48797 
L 215.9347 110.583427 
L 213.391861 109.380672 
L 210.849023 107.940188 
L 208.306184 106.322518 
L 205.763346 104.588203 
L 203.220507 102.797787 
L 200.677669 101.011812 
L 198.134831 99.290821 
L 195.591992 97.695356 
L 193.049154 96.285961 
L 190.506315 95.123118 
L 187.963477 94.241987 
L 185.420638 93.61335 
L 182.8778 93.197905 
L 180.334961 92.956352 
L 177.792123 92.84939 
L 175.249284 92.837718 
L 172.706446 92.882036 
L 170.163607 92.943042 
L 167.620769 92.981436 
L 165.077931 92.957918 
L 162.535092 92.834191 
L 159.992254 92.599874 
L 157.449415 92.343103 
L 154.906577 92.058299 
L 152.363738 91.714894 
L 149.8209 91.3228 
L 147.278061 90.891933 
L 144.735223 90.432206 
L 142.192384 89.953532 
L 139.649546 89.465826 
L 137.106708 89.08519 
L 134.563869 88.941655 
L 132.021031 88.91311 
L 129.478192 89.001369 
L 126.935354 89.208202 
L 124.392515 89.535382 
L 121.849677 89.984679 
L 119.306838 90.557865 
L 116.764 91.256711 
L 114.221161 92.08299 
L 111.678323 93.038471 
L 109.135485 94.124923 
L 106.592646 95.334839 
L 104.049808 96.631219 
L 101.506969 97.971213 
L 98.964131 99.31197 
L 96.421292 100.610641 
L 93.878454 101.824375 
L 91.335615 102.910324 
L 88.792777 103.825636 
L 86.249938 104.527462 
L 83.7071 104.972953 
L 81.164262 105.120089 
L 78.621423 104.962316 
L 76.078585 104.541057 
L 73.535746 103.901138 
L 70.992908 103.087388 
L 68.450069 102.144633 
L 65.907231 101.1177 
L 63.364392 100.051417 
L 60.821554 98.990611 
L 58.278715 97.980109 
L 55.735877 97.064739 
L 53.193038 96.289328 
L 50.6502 95.698703 
L 48.107362 95.337691 
L 45.564523 95.25112 
L 43.021685 95.483817 
L 40.478846 96.080609 
L 37.936008 97.086323 
L 35.393169 98.545788 
L 32.850331 100.503829 
L 30.307492 103.005274 
L 27.764654 106.094951 
z
" clip-path="url(#p44d333c48f)" style="fill: #2ca02c"/>
   </g>
   <g id="FillBetweenPolyCollection_6">
    <path d="M 27.764654 71.87291 
L 27.764654 106.094951 
L 30.307492 103.005274 
L 32.850331 100.503829 
L 35.393169 98.545788 
L 37.936008 97.086323 
L 40.478846 96.080609 
L 43.021685 95.483817 
L 45.564523 95.25112 
L 48.107362 95.337691 
L 50.6502 95.698703 
L 53.193038 96.289328 
L 55.735877 97.064739 
L 58.278715 97.980109 
L 60.821554 98.990611 
L 63.364392 100.051417 
L 65.907231 101.1177 
L 68.450069 102.144633 
L 70.992908 103.087388 
L 73.535746 103.901138 
L 76.078585 104.541057 
L 78.621423 104.962316 
L 81.164262 105.120089 
L 83.7071 104.972953 
L 86.249938 104.527462 
L 88.792777 103.825636 
L 91.335615 102.910324 
L 93.878454 101.824375 
L 96.421292 100.610641 
L 98.964131 99.31197 
L 101.506969 97.971213 
L 104.049808 96.631219 
L 106.592646 95.334839 
L 109.135485 94.124923 
L 111.678323 93.038471 
L 114.221161 92.08299 
L 116.764 91.256711 
L 119.306838 90.557865 
L 121.849677 89.984679 
L 124.392515 89.535382 
L 126.935354 89.208202 
L 129.478192 89.001369 
L 132.021031 88.91311 
L 134.563869 88.941655 
L 137.106708 89.08519 
L 139.649546 89.465826 
L 142.192384 89.953532 
L 144.735223 90.432206 
L 147.278061 90.891933 
L 149.8209 91.3228 
L 152.363738 91.714894 
L 154.906577 92.058299 
L 157.449415 92.343103 
L 159.992254 92.599874 
L 162.535092 92.834191 
L 165.077931 92.957918 
L 167.620769 92.981436 
L 170.163607 92.943042 
L 172.706446 92.882036 
L 175.249284 92.837718 
L 177.792123 92.84939 
L 180.334961 92.956352 
L 182.8778 93.197905 
L 185.420638 93.61335 
L 187.963477 94.241987 
L 190.506315 95.123118 
L 193.049154 96.285961 
L 195.591992 97.695356 
L 198.134831 99.290821 
L 200.677669 101.011812 
L 203.220507 102.797787 
L 205.763346 104.588203 
L 208.306184 106.322518 
L 210.849023 107.940188 
L 213.391861 109.380672 
L 215.9347 110.583427 
L 218.477538 111.48797 
L 221.020377 112.059133 
L 223.563215 112.326109 
L 226.106054 112.328171 
L 228.648892 112.104591 
L 231.19173 111.694642 
L 233.734569 111.137595 
L 236.277407 110.472722 
L 238.820246 109.739297 
L 241.363084 108.976591 
L 243.905923 108.223877 
L 246.448761 107.519194 
L 248.9916 106.866385 
L 251.534438 106.231482 
L 254.077277 105.578562 
L 256.620115 104.871701 
L 259.162953 104.074975 
L 261.705792 103.152461 
L 264.24863 102.068234 
L 266.791469 100.786371 
L 269.334307 99.270949 
L 271.877146 97.486043 
L 274.419984 95.405364 
L 276.962823 93.081306 
L 279.505661 90.604687 
L 282.0485 88.066581 
L 284.591338 85.558067 
L 287.134176 83.170219 
L 289.677015 80.994116 
L 292.219853 79.120832 
L 294.762692 77.641444 
L 297.30553 76.647601 
L 299.848369 76.228652 
L 302.391207 76.444655 
L 304.934046 77.249329 
L 307.476884 78.576329 
L 310.019723 80.35931 
L 312.562561 82.531925 
L 315.1054 85.027831 
L 317.648238 87.780681 
L 320.191076 90.724131 
L 322.733915 93.791835 
L 325.276753 96.917449 
L 327.819592 100.035045 
L 330.36243 103.096623 
L 332.905269 106.078423 
L 335.448107 108.958407 
L 337.990946 111.714538 
L 340.533784 114.324778 
L 343.076623 116.76709 
L 345.619461 119.019435 
L 348.162299 121.059776 
L 350.705138 122.866075 
L 353.247976 124.416295 
L 355.790815 125.688398 
L 358.333653 126.660346 
L 360.876492 127.310102 
L 363.41933 127.615628 
L 365.962169 127.554885 
L 368.505007 127.105838 
L 371.047846 126.246447 
L 373.590684 124.954675 
L 376.133522 123.208484 
L 378.676361 120.985838 
L 381.219199 118.264697 
L 381.219199 71.824148 
L 381.219199 71.824148 
L 378.676361 75.065057 
L 376.133522 77.606383 
L 373.590684 79.502547 
L 371.047846 80.807974 
L 368.505007 81.577089 
L 365.962169 81.864314 
L 363.41933 81.724073 
L 360.876492 81.21079 
L 358.333653 80.37889 
L 355.790815 79.282795 
L 353.247976 77.97693 
L 350.705138 76.515719 
L 348.162299 74.953584 
L 345.619461 73.344951 
L 343.076623 71.744242 
L 340.533784 70.205882 
L 337.990946 68.784294 
L 335.448107 67.533903 
L 332.905269 66.509131 
L 330.36243 65.764403 
L 327.819592 65.354143 
L 325.276753 65.328359 
L 322.733915 65.674858 
L 320.191076 66.335469 
L 317.648238 67.25094 
L 315.1054 68.362022 
L 312.562561 69.609464 
L 310.019723 70.934015 
L 307.476884 72.276424 
L 304.934046 73.577443 
L 302.391207 74.777819 
L 299.848369 75.818303 
L 297.30553 76.647601 
L 294.762692 77.259716 
L 292.219853 77.658744 
L 289.677015 77.851073 
L 287.134176 77.84252 
L 284.591338 77.638901 
L 282.0485 77.246033 
L 279.505661 76.669731 
L 276.962823 75.915813 
L 274.419984 74.990094 
L 271.877146 73.898484 
L 269.334307 72.660434 
L 266.791469 71.323132 
L 264.24863 69.937164 
L 261.705792 68.553114 
L 259.162953 67.221566 
L 256.620115 65.993106 
L 254.077277 64.918317 
L 251.534438 64.047786 
L 248.9916 63.432096 
L 246.448761 63.121833 
L 243.905923 63.165129 
L 241.363084 63.562756 
L 238.820246 64.272647 
L 236.277407 65.251189 
L 233.734569 66.45477 
L 231.19173 67.83978 
L 228.648892 69.362607 
L 226.106054 70.979638 
L 223.563215 72.647263 
L 221.020377 74.32187 
L 218.477538 75.959847 
L 215.9347 77.52213 
L 213.391861 78.998691 
L 210.849023 80.390922 
L 208.306184 81.700244 
L 205.763346 82.928075 
L 203.220507 84.075837 
L 200.677669 85.144947 
L 198.134831 86.136827 
L 195.591992 87.052897 
L 193.049154 87.894575 
L 190.506315 88.663281 
L 187.963477 89.360272 
L 185.420638 89.98639 
L 182.8778 90.542411 
L 180.334961 91.029113 
L 177.792123 91.447273 
L 175.249284 91.797668 
L 172.706446 92.081075 
L 170.163607 92.298271 
L 167.620769 92.450032 
L 165.077931 92.537137 
L 162.535092 92.560312 
L 159.992254 92.51891 
L 157.449415 92.343103 
L 154.906577 92.058299 
L 152.363738 91.714894 
L 149.8209 91.3228 
L 147.278061 90.891933 
L 144.735223 90.432206 
L 142.192384 89.953532 
L 139.649546 89.465826 
L 137.106708 88.872813 
L 134.563869 88.063588 
L 132.021031 87.173668 
L 129.478192 86.211852 
L 126.935354 85.186959 
L 124.392515 84.107812 
L 121.849677 82.983232 
L 119.306838 81.822039 
L 116.764 80.633056 
L 114.221161 79.425102 
L 111.678323 78.207 
L 109.135485 76.987569 
L 106.592646 75.774609 
L 104.049808 74.572666 
L 101.506969 73.385645 
L 98.964131 72.217447 
L 96.421292 71.071975 
L 93.878454 69.953133 
L 91.335615 68.864822 
L 88.792777 67.810946 
L 86.249938 66.795408 
L 83.7071 65.82211 
L 81.164262 64.895007 
L 78.621423 64.020256 
L 76.078585 63.206996 
L 73.535746 62.464575 
L 70.992908 61.802343 
L 68.450069 61.22965 
L 65.907231 60.755845 
L 63.364392 60.390277 
L 60.821554 60.142295 
L 58.278715 60.02125 
L 55.735877 60.03649 
L 53.193038 60.197365 
L 50.6502 60.513225 
L 48.107362 60.993418 
L 45.564523 61.647295 
L 43.021685 62.484204 
L 40.478846 63.513495 
L 37.936008 64.744518 
L 35.393169 66.186621 
L 32.850331 67.849155 
L 30.307492 69.741468 
L 27.764654 71.87291 
z
" clip-path="url(#p44d333c48f)" style="fill: #98df8a"/>
   </g>
   <g id="matplotlib.axis_1">
    <g id="xtick_1">
     <g id="line2d_1">
      <defs>
       <path id="m9ece04bf8d" d="M 0 0 
L 0 3.5 
" style="stroke: #000000; stroke-width: 0.8"/>
      </defs>
      <g>
       <use xlink:href="#m9ece04bf8d" x="27.764654" y="314.12125" style="stroke: #000000; stroke-width: 0.8"/>
      </g>
     </g>
     <g id="text_1">
      <!-- 1953 -->
      <g transform="translate(12.109973 340.173358) rotate(-45) scale(0.1 -0.1)">
       <defs>
        <path id="TimesNewRomanPSMT-31" d="M 750 3822 
L 1781 4325 
L 1884 4325 
L 1884 747 
Q 1884 391 1914 303 
Q 1944 216 2037 169 
Q 2131 122 2419 116 
L 2419 0 
L 825 0 
L 825 116 
Q 1125 122 1212 167 
Q 1300 213 1334 289 
Q 1369 366 1369 747 
L 1369 3034 
Q 1369 3497 1338 3628 
Q 1316 3728 1258 3775 
Q 1200 3822 1119 3822 
Q 1003 3822 797 3725 
L 750 3822 
z
" transform="scale(0.015625)"/>
        <path id="TimesNewRomanPSMT-39" d="M 338 -88 
L 338 28 
Q 744 34 1094 217 
Q 1444 400 1770 856 
Q 2097 1313 2225 1859 
Q 1734 1544 1338 1544 
Q 891 1544 572 1889 
Q 253 2234 253 2806 
Q 253 3363 572 3797 
Q 956 4325 1575 4325 
Q 2097 4325 2469 3894 
Q 2925 3359 2925 2575 
Q 2925 1869 2578 1258 
Q 2231 647 1613 244 
Q 1109 -88 516 -88 
L 338 -88 
z
M 2275 2091 
Q 2331 2497 2331 2741 
Q 2331 3044 2228 3395 
Q 2125 3747 1936 3934 
Q 1747 4122 1506 4122 
Q 1228 4122 1018 3872 
Q 809 3622 809 3128 
Q 809 2469 1088 2097 
Q 1291 1828 1588 1828 
Q 1731 1828 1928 1897 
Q 2125 1966 2275 2091 
z
" transform="scale(0.015625)"/>
        <path id="TimesNewRomanPSMT-35" d="M 2778 4238 
L 2534 3706 
L 1259 3706 
L 981 3138 
Q 1809 3016 2294 2522 
Q 2709 2097 2709 1522 
Q 2709 1188 2573 903 
Q 2438 619 2231 419 
Q 2025 219 1772 97 
Q 1413 -75 1034 -75 
Q 653 -75 479 54 
Q 306 184 306 341 
Q 306 428 378 495 
Q 450 563 559 563 
Q 641 563 702 538 
Q 763 513 909 409 
Q 1144 247 1384 247 
Q 1750 247 2026 523 
Q 2303 800 2303 1197 
Q 2303 1581 2056 1914 
Q 1809 2247 1375 2428 
Q 1034 2569 447 2591 
L 1259 4238 
L 2778 4238 
z
" transform="scale(0.015625)"/>
        <path id="TimesNewRomanPSMT-33" d="M 325 3431 
Q 506 3859 782 4092 
Q 1059 4325 1472 4325 
Q 1981 4325 2253 3994 
Q 2459 3747 2459 3466 
Q 2459 3003 1878 2509 
Q 2269 2356 2469 2072 
Q 2669 1788 2669 1403 
Q 2669 853 2319 450 
Q 1863 -75 997 -75 
Q 569 -75 414 31 
Q 259 138 259 259 
Q 259 350 332 419 
Q 406 488 509 488 
Q 588 488 669 463 
Q 722 447 909 348 
Q 1097 250 1169 231 
Q 1284 197 1416 197 
Q 1734 197 1970 444 
Q 2206 691 2206 1028 
Q 2206 1275 2097 1509 
Q 2016 1684 1919 1775 
Q 1784 1900 1550 2001 
Q 1316 2103 1072 2103 
L 972 2103 
L 972 2197 
Q 1219 2228 1467 2375 
Q 1716 2522 1828 2728 
Q 1941 2934 1941 3181 
Q 1941 3503 1739 3701 
Q 1538 3900 1238 3900 
Q 753 3900 428 3381 
L 325 3431 
z
" transform="scale(0.015625)"/>
       </defs>
       <use xlink:href="#TimesNewRomanPSMT-31"/>
       <use xlink:href="#TimesNewRomanPSMT-39" transform="translate(50 0)"/>
       <use xlink:href="#TimesNewRomanPSMT-35" transform="translate(100 0)"/>
       <use xlink:href="#TimesNewRomanPSMT-33" transform="translate(150 0)"/>
      </g>
     </g>
    </g>
    <g id="xtick_2">
     <g id="line2d_2">
      <g>
       <use xlink:href="#m9ece04bf8d" x="54.953465" y="314.12125" style="stroke: #000000; stroke-width: 0.8"/>
      </g>
     </g>
     <g id="text_2">
      <!-- 1954 -->
      <g transform="translate(39.298784 340.173358) rotate(-45) scale(0.1 -0.1)">
       <defs>
        <path id="TimesNewRomanPSMT-34" d="M 2978 1563 
L 2978 1119 
L 2409 1119 
L 2409 0 
L 1894 0 
L 1894 1119 
L 100 1119 
L 100 1519 
L 2066 4325 
L 2409 4325 
L 2409 1563 
L 2978 1563 
z
M 1894 1563 
L 1894 3666 
L 406 1563 
L 1894 1563 
z
" transform="scale(0.015625)"/>
       </defs>
       <use xlink:href="#TimesNewRomanPSMT-31"/>
       <use xlink:href="#TimesNewRomanPSMT-39" transform="translate(50 0)"/>
       <use xlink:href="#TimesNewRomanPSMT-35" transform="translate(100 0)"/>
       <use xlink:href="#TimesNewRomanPSMT-34" transform="translate(150 0)"/>
      </g>
     </g>
    </g>
    <g id="xtick_3">
     <g id="line2d_3">
      <g>
       <use xlink:href="#m9ece04bf8d" x="82.142276" y="314.12125" style="stroke: #000000; stroke-width: 0.8"/>
      </g>
     </g>
     <g id="text_3">
      <!-- 1955 -->
      <g transform="translate(66.487595 340.173358) rotate(-45) scale(0.1 -0.1)">
       <use xlink:href="#TimesNewRomanPSMT-31"/>
       <use xlink:href="#TimesNewRomanPSMT-39" transform="translate(50 0)"/>
       <use xlink:href="#TimesNewRomanPSMT-35" transform="translate(100 0)"/>
       <use xlink:href="#TimesNewRomanPSMT-35" transform="translate(150 0)"/>
      </g>
     </g>
    </g>
    <g id="xtick_4">
     <g id="line2d_4">
      <g>
       <use xlink:href="#m9ece04bf8d" x="109.331088" y="314.12125" style="stroke: #000000; stroke-width: 0.8"/>
      </g>
     </g>
     <g id="text_4">
      <!-- 1956 -->
      <g transform="translate(93.676406 340.173358) rotate(-45) scale(0.1 -0.1)">
       <defs>
        <path id="TimesNewRomanPSMT-36" d="M 2869 4325 
L 2869 4209 
Q 2456 4169 2195 4045 
Q 1934 3922 1679 3669 
Q 1425 3416 1258 3105 
Q 1091 2794 978 2366 
Q 1428 2675 1881 2675 
Q 2316 2675 2634 2325 
Q 2953 1975 2953 1425 
Q 2953 894 2631 456 
Q 2244 -75 1606 -75 
Q 1172 -75 869 213 
Q 275 772 275 1663 
Q 275 2231 503 2743 
Q 731 3256 1154 3653 
Q 1578 4050 1965 4187 
Q 2353 4325 2688 4325 
L 2869 4325 
z
M 925 2138 
Q 869 1716 869 1456 
Q 869 1156 980 804 
Q 1091 453 1309 247 
Q 1469 100 1697 100 
Q 1969 100 2183 356 
Q 2397 613 2397 1088 
Q 2397 1622 2184 2012 
Q 1972 2403 1581 2403 
Q 1463 2403 1327 2353 
Q 1191 2303 925 2138 
z
" transform="scale(0.015625)"/>
       </defs>
       <use xlink:href="#TimesNewRomanPSMT-31"/>
       <use xlink:href="#TimesNewRomanPSMT-39" transform="translate(50 0)"/>
       <use xlink:href="#TimesNewRomanPSMT-35" transform="translate(100 0)"/>
       <use xlink:href="#TimesNewRomanPSMT-36" transform="translate(150 0)"/>
      </g>
     </g>
    </g>
    <g id="xtick_5">
     <g id="line2d_5">
      <g>
       <use xlink:href="#m9ece04bf8d" x="136.519899" y="314.12125" style="stroke: #000000; stroke-width: 0.8"/>
      </g>
     </g>
     <g id="text_5">
      <!-- 1957 -->
      <g transform="translate(120.865217 340.173358) rotate(-45) scale(0.1 -0.1)">
       <defs>
        <path id="TimesNewRomanPSMT-37" d="M 644 4238 
L 2916 4238 
L 2916 4119 
L 1503 -88 
L 1153 -88 
L 2419 3728 
L 1253 3728 
Q 900 3728 750 3644 
Q 488 3500 328 3200 
L 238 3234 
L 644 4238 
z
" transform="scale(0.015625)"/>
       </defs>
       <use xlink:href="#TimesNewRomanPSMT-31"/>
       <use xlink:href="#TimesNewRomanPSMT-39" transform="translate(50 0)"/>
       <use xlink:href="#TimesNewRomanPSMT-35" transform="translate(100 0)"/>
       <use xlink:href="#TimesNewRomanPSMT-37" transform="translate(150 0)"/>
      </g>
     </g>
    </g>
    <g id="xtick_6">
     <g id="line2d_6">
      <g>
       <use xlink:href="#m9ece04bf8d" x="163.70871" y="314.12125" style="stroke: #000000; stroke-width: 0.8"/>
      </g>
     </g>
     <g id="text_6">
      <!-- 1958 -->
      <g transform="translate(148.054029 340.173358) rotate(-45) scale(0.1 -0.1)">
       <defs>
        <path id="TimesNewRomanPSMT-38" d="M 1228 2134 
Q 725 2547 579 2797 
Q 434 3047 434 3316 
Q 434 3728 753 4026 
Q 1072 4325 1600 4325 
Q 2113 4325 2425 4047 
Q 2738 3769 2738 3413 
Q 2738 3175 2569 2928 
Q 2400 2681 1866 2347 
Q 2416 1922 2594 1678 
Q 2831 1359 2831 1006 
Q 2831 559 2490 242 
Q 2150 -75 1597 -75 
Q 994 -75 656 303 
Q 388 606 388 966 
Q 388 1247 577 1523 
Q 766 1800 1228 2134 
z
M 1719 2469 
Q 2094 2806 2194 3001 
Q 2294 3197 2294 3444 
Q 2294 3772 2109 3958 
Q 1925 4144 1606 4144 
Q 1288 4144 1088 3959 
Q 888 3775 888 3528 
Q 888 3366 970 3203 
Q 1053 3041 1206 2894 
L 1719 2469 
z
M 1375 2016 
Q 1116 1797 991 1539 
Q 866 1281 866 981 
Q 866 578 1086 336 
Q 1306 94 1647 94 
Q 1984 94 2187 284 
Q 2391 475 2391 747 
Q 2391 972 2272 1150 
Q 2050 1481 1375 2016 
z
" transform="scale(0.015625)"/>
       </defs>
       <use xlink:href="#TimesNewRomanPSMT-31"/>
       <use xlink:href="#TimesNewRomanPSMT-39" transform="translate(50 0)"/>
       <use xlink:href="#TimesNewRomanPSMT-35" transform="translate(100 0)"/>
       <use xlink:href="#TimesNewRomanPSMT-38" transform="translate(150 0)"/>
      </g>
     </g>
    </g>
    <g id="xtick_7">
     <g id="line2d_7">
      <g>
       <use xlink:href="#m9ece04bf8d" x="190.897521" y="314.12125" style="stroke: #000000; stroke-width: 0.8"/>
      </g>
     </g>
     <g id="text_7">
      <!-- 1959 -->
      <g transform="translate(175.24284 340.173358) rotate(-45) scale(0.1 -0.1)">
       <use xlink:href="#TimesNewRomanPSMT-31"/>
       <use xlink:href="#TimesNewRomanPSMT-39" transform="translate(50 0)"/>
       <use xlink:href="#TimesNewRomanPSMT-35" transform="translate(100 0)"/>
       <use xlink:href="#TimesNewRomanPSMT-39" transform="translate(150 0)"/>
      </g>
     </g>
    </g>
    <g id="xtick_8">
     <g id="line2d_8">
      <g>
       <use xlink:href="#m9ece04bf8d" x="218.086332" y="314.12125" style="stroke: #000000; stroke-width: 0.8"/>
      </g>
     </g>
     <g id="text_8">
      <!-- 1960 -->
      <g transform="translate(202.431651 340.173358) rotate(-45) scale(0.1 -0.1)">
       <defs>
        <path id="TimesNewRomanPSMT-30" d="M 231 2094 
Q 231 2819 450 3342 
Q 669 3866 1031 4122 
Q 1313 4325 1613 4325 
Q 2100 4325 2488 3828 
Q 2972 3213 2972 2159 
Q 2972 1422 2759 906 
Q 2547 391 2217 158 
Q 1888 -75 1581 -75 
Q 975 -75 572 641 
Q 231 1244 231 2094 
z
M 844 2016 
Q 844 1141 1059 588 
Q 1238 122 1591 122 
Q 1759 122 1940 273 
Q 2122 425 2216 781 
Q 2359 1319 2359 2297 
Q 2359 3022 2209 3506 
Q 2097 3866 1919 4016 
Q 1791 4119 1609 4119 
Q 1397 4119 1231 3928 
Q 1006 3669 925 3112 
Q 844 2556 844 2016 
z
" transform="scale(0.015625)"/>
       </defs>
       <use xlink:href="#TimesNewRomanPSMT-31"/>
       <use xlink:href="#TimesNewRomanPSMT-39" transform="translate(50 0)"/>
       <use xlink:href="#TimesNewRomanPSMT-36" transform="translate(100 0)"/>
       <use xlink:href="#TimesNewRomanPSMT-30" transform="translate(150 0)"/>
      </g>
     </g>
    </g>
    <g id="xtick_9">
     <g id="line2d_9">
      <g>
       <use xlink:href="#m9ece04bf8d" x="245.275143" y="314.12125" style="stroke: #000000; stroke-width: 0.8"/>
      </g>
     </g>
     <g id="text_9">
      <!-- 1961 -->
      <g transform="translate(229.620462 340.173358) rotate(-45) scale(0.1 -0.1)">
       <use xlink:href="#TimesNewRomanPSMT-31"/>
       <use xlink:href="#TimesNewRomanPSMT-39" transform="translate(50 0)"/>
       <use xlink:href="#TimesNewRomanPSMT-36" transform="translate(100 0)"/>
       <use xlink:href="#TimesNewRomanPSMT-31" transform="translate(150 0)"/>
      </g>
     </g>
    </g>
    <g id="xtick_10">
     <g id="line2d_10">
      <g>
       <use xlink:href="#m9ece04bf8d" x="272.463955" y="314.12125" style="stroke: #000000; stroke-width: 0.8"/>
      </g>
     </g>
     <g id="text_10">
      <!-- 1962 -->
      <g transform="translate(256.809273 340.173358) rotate(-45) scale(0.1 -0.1)">
       <defs>
        <path id="TimesNewRomanPSMT-32" d="M 2934 816 
L 2638 0 
L 138 0 
L 138 116 
Q 1241 1122 1691 1759 
Q 2141 2397 2141 2925 
Q 2141 3328 1894 3587 
Q 1647 3847 1303 3847 
Q 991 3847 742 3664 
Q 494 3481 375 3128 
L 259 3128 
Q 338 3706 661 4015 
Q 984 4325 1469 4325 
Q 1984 4325 2329 3994 
Q 2675 3663 2675 3213 
Q 2675 2891 2525 2569 
Q 2294 2063 1775 1497 
Q 997 647 803 472 
L 1909 472 
Q 2247 472 2383 497 
Q 2519 522 2628 598 
Q 2738 675 2819 816 
L 2934 816 
z
" transform="scale(0.015625)"/>
       </defs>
       <use xlink:href="#TimesNewRomanPSMT-31"/>
       <use xlink:href="#TimesNewRomanPSMT-39" transform="translate(50 0)"/>
       <use xlink:href="#TimesNewRomanPSMT-36" transform="translate(100 0)"/>
       <use xlink:href="#TimesNewRomanPSMT-32" transform="translate(150 0)"/>
      </g>
     </g>
    </g>
    <g id="xtick_11">
     <g id="line2d_11">
      <g>
       <use xlink:href="#m9ece04bf8d" x="299.652766" y="314.12125" style="stroke: #000000; stroke-width: 0.8"/>
      </g>
     </g>
     <g id="text_11">
      <!-- 1963 -->
      <g transform="translate(283.998085 340.173358) rotate(-45) scale(0.1 -0.1)">
       <use xlink:href="#TimesNewRomanPSMT-31"/>
       <use xlink:href="#TimesNewRomanPSMT-39" transform="translate(50 0)"/>
       <use xlink:href="#TimesNewRomanPSMT-36" transform="translate(100 0)"/>
       <use xlink:href="#TimesNewRomanPSMT-33" transform="translate(150 0)"/>
      </g>
     </g>
    </g>
    <g id="xtick_12">
     <g id="line2d_12">
      <g>
       <use xlink:href="#m9ece04bf8d" x="326.841577" y="314.12125" style="stroke: #000000; stroke-width: 0.8"/>
      </g>
     </g>
     <g id="text_12">
      <!-- 1964 -->
      <g transform="translate(311.186896 340.173358) rotate(-45) scale(0.1 -0.1)">
       <use xlink:href="#TimesNewRomanPSMT-31"/>
       <use xlink:href="#TimesNewRomanPSMT-39" transform="translate(50 0)"/>
       <use xlink:href="#TimesNewRomanPSMT-36" transform="translate(100 0)"/>
       <use xlink:href="#TimesNewRomanPSMT-34" transform="translate(150 0)"/>
      </g>
     </g>
    </g>
    <g id="xtick_13">
     <g id="line2d_13">
      <g>
       <use xlink:href="#m9ece04bf8d" x="354.030388" y="314.12125" style="stroke: #000000; stroke-width: 0.8"/>
      </g>
     </g>
     <g id="text_13">
      <!-- 1965 -->
      <g transform="translate(338.375707 340.173358) rotate(-45) scale(0.1 -0.1)">
       <use xlink:href="#TimesNewRomanPSMT-31"/>
       <use xlink:href="#TimesNewRomanPSMT-39" transform="translate(50 0)"/>
       <use xlink:href="#TimesNewRomanPSMT-36" transform="translate(100 0)"/>
       <use xlink:href="#TimesNewRomanPSMT-35" transform="translate(150 0)"/>
      </g>
     </g>
    </g>
    <g id="xtick_14">
     <g id="line2d_14">
      <g>
       <use xlink:href="#m9ece04bf8d" x="381.219199" y="314.12125" style="stroke: #000000; stroke-width: 0.8"/>
      </g>
     </g>
     <g id="text_14">
      <!-- 1966 -->
      <g transform="translate(365.564518 340.173358) rotate(-45) scale(0.1 -0.1)">
       <use xlink:href="#TimesNewRomanPSMT-31"/>
       <use xlink:href="#TimesNewRomanPSMT-39" transform="translate(50 0)"/>
       <use xlink:href="#TimesNewRomanPSMT-36" transform="translate(100 0)"/>
       <use xlink:href="#TimesNewRomanPSMT-36" transform="translate(150 0)"/>
      </g>
     </g>
    </g>
    <g id="text_15">
     <!-- Year -->
     <g transform="translate(193.434114 354.018404) scale(0.12 -0.12)">
      <defs>
       <path id="TimesNewRomanPSMT-59" d="M 3050 4238 
L 4528 4238 
L 4528 4122 
L 4447 4122 
Q 4366 4122 4209 4050 
Q 4053 3978 3925 3843 
Q 3797 3709 3609 3406 
L 2588 1797 
L 2588 734 
Q 2588 344 2675 247 
Q 2794 116 3050 116 
L 3188 116 
L 3188 0 
L 1388 0 
L 1388 116 
L 1538 116 
Q 1806 116 1919 278 
Q 1988 378 1988 734 
L 1988 1738 
L 825 3513 
Q 619 3825 545 3903 
Q 472 3981 241 4091 
Q 178 4122 59 4122 
L 59 4238 
L 1872 4238 
L 1872 4122 
L 1778 4122 
Q 1631 4122 1507 4053 
Q 1384 3984 1384 3847 
Q 1384 3734 1575 3441 
L 2459 2075 
L 3291 3381 
Q 3478 3675 3478 3819 
Q 3478 3906 3433 3975 
Q 3388 4044 3303 4083 
Q 3219 4122 3050 4122 
L 3050 4238 
z
" transform="scale(0.015625)"/>
       <path id="TimesNewRomanPSMT-65" d="M 681 1784 
Q 678 1147 991 784 
Q 1303 422 1725 422 
Q 2006 422 2214 576 
Q 2422 731 2563 1106 
L 2659 1044 
Q 2594 616 2278 264 
Q 1963 -88 1488 -88 
Q 972 -88 605 314 
Q 238 716 238 1394 
Q 238 2128 614 2539 
Q 991 2950 1559 2950 
Q 2041 2950 2350 2633 
Q 2659 2316 2659 1784 
L 681 1784 
z
M 681 1966 
L 2006 1966 
Q 1991 2241 1941 2353 
Q 1863 2528 1708 2628 
Q 1553 2728 1384 2728 
Q 1125 2728 920 2526 
Q 716 2325 681 1966 
z
" transform="scale(0.015625)"/>
       <path id="TimesNewRomanPSMT-61" d="M 1822 413 
Q 1381 72 1269 19 
Q 1100 -59 909 -59 
Q 613 -59 420 144 
Q 228 347 228 678 
Q 228 888 322 1041 
Q 450 1253 767 1440 
Q 1084 1628 1822 1897 
L 1822 2009 
Q 1822 2438 1686 2597 
Q 1550 2756 1291 2756 
Q 1094 2756 978 2650 
Q 859 2544 859 2406 
L 866 2225 
Q 866 2081 792 2003 
Q 719 1925 600 1925 
Q 484 1925 411 2006 
Q 338 2088 338 2228 
Q 338 2497 613 2722 
Q 888 2947 1384 2947 
Q 1766 2947 2009 2819 
Q 2194 2722 2281 2516 
Q 2338 2381 2338 1966 
L 2338 994 
Q 2338 584 2353 492 
Q 2369 400 2405 369 
Q 2441 338 2488 338 
Q 2538 338 2575 359 
Q 2641 400 2828 588 
L 2828 413 
Q 2478 -56 2159 -56 
Q 2006 -56 1915 50 
Q 1825 156 1822 413 
z
M 1822 616 
L 1822 1706 
Q 1350 1519 1213 1441 
Q 966 1303 859 1153 
Q 753 1003 753 825 
Q 753 600 887 451 
Q 1022 303 1197 303 
Q 1434 303 1822 616 
z
" transform="scale(0.015625)"/>
       <path id="TimesNewRomanPSMT-72" d="M 1038 2947 
L 1038 2303 
Q 1397 2947 1775 2947 
Q 1947 2947 2059 2842 
Q 2172 2738 2172 2600 
Q 2172 2478 2090 2393 
Q 2009 2309 1897 2309 
Q 1788 2309 1652 2417 
Q 1516 2525 1450 2525 
Q 1394 2525 1328 2463 
Q 1188 2334 1038 2041 
L 1038 669 
Q 1038 431 1097 309 
Q 1138 225 1241 169 
Q 1344 113 1538 113 
L 1538 0 
L 72 0 
L 72 113 
Q 291 113 397 181 
Q 475 231 506 341 
Q 522 394 522 644 
L 522 1753 
Q 522 2253 501 2348 
Q 481 2444 426 2487 
Q 372 2531 291 2531 
Q 194 2531 72 2484 
L 41 2597 
L 906 2947 
L 1038 2947 
z
" transform="scale(0.015625)"/>
      </defs>
      <use xlink:href="#TimesNewRomanPSMT-59"/>
      <use xlink:href="#TimesNewRomanPSMT-65" transform="translate(62.216797 0)"/>
      <use xlink:href="#TimesNewRomanPSMT-61" transform="translate(106.601562 0)"/>
      <use xlink:href="#TimesNewRomanPSMT-72" transform="translate(150.986328 0)"/>
     </g>
    </g>
   </g>
   <g id="patch_3">
    <path d="M 10.091927 314.12125 
L 10.091927 36.92125 
" style="fill: none; stroke: #000000; stroke-width: 0.8; stroke-linejoin: miter; stroke-linecap: square"/>
   </g>
   <g id="patch_4">
    <path d="M 398.891927 314.12125 
L 398.891927 36.92125 
" style="fill: none; stroke: #000000; stroke-width: 0.8; stroke-linejoin: miter; stroke-linecap: square"/>
   </g>
   <g id="patch_5">
    <path d="M 10.091927 314.12125 
L 398.891927 314.12125 
" style="fill: none; stroke: #000000; stroke-width: 0.8; stroke-linejoin: miter; stroke-linecap: square"/>
   </g>
   <g id="patch_6">
    <path d="M 10.091927 36.92125 
L 398.891927 36.92125 
" style="fill: none; stroke: #000000; stroke-width: 0.8; stroke-linejoin: miter; stroke-linecap: square"/>
   </g>
   <g id="text_16">
    <!-- Vaccination Rate from 1953 to 1966 (%)  -->
    <g transform="translate(88.830052 16.92125) scale(0.14 -0.14)">
     <defs>
      <path id="TimesNewRomanPSMT-56" d="M 4544 4238 
L 4544 4122 
Q 4319 4081 4203 3978 
Q 4038 3825 3909 3509 
L 2431 -97 
L 2316 -97 
L 728 3556 
Q 606 3838 556 3900 
Q 478 3997 364 4051 
Q 250 4106 56 4122 
L 56 4238 
L 1788 4238 
L 1788 4122 
Q 1494 4094 1406 4022 
Q 1319 3950 1319 3838 
Q 1319 3681 1463 3350 
L 2541 866 
L 3541 3319 
Q 3688 3681 3688 3822 
Q 3688 3913 3597 3995 
Q 3506 4078 3291 4113 
Q 3275 4116 3238 4122 
L 3238 4238 
L 4544 4238 
z
" transform="scale(0.015625)"/>
      <path id="TimesNewRomanPSMT-63" d="M 2631 1088 
Q 2516 522 2178 217 
Q 1841 -88 1431 -88 
Q 944 -88 581 321 
Q 219 731 219 1428 
Q 219 2103 620 2525 
Q 1022 2947 1584 2947 
Q 2006 2947 2278 2723 
Q 2550 2500 2550 2259 
Q 2550 2141 2473 2067 
Q 2397 1994 2259 1994 
Q 2075 1994 1981 2113 
Q 1928 2178 1911 2362 
Q 1894 2547 1784 2644 
Q 1675 2738 1481 2738 
Q 1169 2738 978 2506 
Q 725 2200 725 1697 
Q 725 1184 976 792 
Q 1228 400 1656 400 
Q 1963 400 2206 609 
Q 2378 753 2541 1131 
L 2631 1088 
z
" transform="scale(0.015625)"/>
      <path id="TimesNewRomanPSMT-69" d="M 928 4444 
Q 1059 4444 1151 4351 
Q 1244 4259 1244 4128 
Q 1244 3997 1151 3903 
Q 1059 3809 928 3809 
Q 797 3809 703 3903 
Q 609 3997 609 4128 
Q 609 4259 701 4351 
Q 794 4444 928 4444 
z
M 1188 2947 
L 1188 647 
Q 1188 378 1227 289 
Q 1266 200 1342 156 
Q 1419 113 1622 113 
L 1622 0 
L 231 0 
L 231 113 
Q 441 113 512 153 
Q 584 194 626 287 
Q 669 381 669 647 
L 669 1750 
Q 669 2216 641 2353 
Q 619 2453 572 2492 
Q 525 2531 444 2531 
Q 356 2531 231 2484 
L 188 2597 
L 1050 2947 
L 1188 2947 
z
" transform="scale(0.015625)"/>
      <path id="TimesNewRomanPSMT-6e" d="M 1034 2341 
Q 1538 2947 1994 2947 
Q 2228 2947 2397 2830 
Q 2566 2713 2666 2444 
Q 2734 2256 2734 1869 
L 2734 647 
Q 2734 375 2778 278 
Q 2813 200 2889 156 
Q 2966 113 3172 113 
L 3172 0 
L 1756 0 
L 1756 113 
L 1816 113 
Q 2016 113 2095 173 
Q 2175 234 2206 353 
Q 2219 400 2219 647 
L 2219 1819 
Q 2219 2209 2117 2386 
Q 2016 2563 1775 2563 
Q 1403 2563 1034 2156 
L 1034 647 
Q 1034 356 1069 288 
Q 1113 197 1189 155 
Q 1266 113 1500 113 
L 1500 0 
L 84 0 
L 84 113 
L 147 113 
Q 366 113 442 223 
Q 519 334 519 647 
L 519 1709 
Q 519 2225 495 2337 
Q 472 2450 423 2490 
Q 375 2531 294 2531 
Q 206 2531 84 2484 
L 38 2597 
L 900 2947 
L 1034 2947 
L 1034 2341 
z
" transform="scale(0.015625)"/>
      <path id="TimesNewRomanPSMT-74" d="M 1031 3803 
L 1031 2863 
L 1700 2863 
L 1700 2644 
L 1031 2644 
L 1031 788 
Q 1031 509 1111 412 
Q 1191 316 1316 316 
Q 1419 316 1516 380 
Q 1613 444 1666 569 
L 1788 569 
Q 1678 263 1478 108 
Q 1278 -47 1066 -47 
Q 922 -47 784 33 
Q 647 113 581 261 
Q 516 409 516 719 
L 516 2644 
L 63 2644 
L 63 2747 
Q 234 2816 414 2980 
Q 594 3144 734 3369 
Q 806 3488 934 3803 
L 1031 3803 
z
" transform="scale(0.015625)"/>
      <path id="TimesNewRomanPSMT-6f" d="M 1600 2947 
Q 2250 2947 2644 2453 
Q 2978 2031 2978 1484 
Q 2978 1100 2793 706 
Q 2609 313 2286 112 
Q 1963 -88 1566 -88 
Q 919 -88 538 428 
Q 216 863 216 1403 
Q 216 1797 411 2186 
Q 606 2575 925 2761 
Q 1244 2947 1600 2947 
z
M 1503 2744 
Q 1338 2744 1170 2645 
Q 1003 2547 900 2300 
Q 797 2053 797 1666 
Q 797 1041 1045 587 
Q 1294 134 1700 134 
Q 2003 134 2200 384 
Q 2397 634 2397 1244 
Q 2397 2006 2069 2444 
Q 1847 2744 1503 2744 
z
" transform="scale(0.015625)"/>
      <path id="TimesNewRomanPSMT-20" transform="scale(0.015625)"/>
      <path id="TimesNewRomanPSMT-52" d="M 4325 0 
L 3194 0 
L 1759 1981 
Q 1600 1975 1500 1975 
Q 1459 1975 1412 1976 
Q 1366 1978 1316 1981 
L 1316 750 
Q 1316 350 1403 253 
Q 1522 116 1759 116 
L 1925 116 
L 1925 0 
L 109 0 
L 109 116 
L 269 116 
Q 538 116 653 291 
Q 719 388 719 750 
L 719 3488 
Q 719 3888 631 3984 
Q 509 4122 269 4122 
L 109 4122 
L 109 4238 
L 1653 4238 
Q 2328 4238 2648 4139 
Q 2969 4041 3192 3777 
Q 3416 3513 3416 3147 
Q 3416 2756 3161 2468 
Q 2906 2181 2372 2063 
L 3247 847 
Q 3547 428 3762 290 
Q 3978 153 4325 116 
L 4325 0 
z
M 1316 2178 
Q 1375 2178 1419 2176 
Q 1463 2175 1491 2175 
Q 2097 2175 2405 2437 
Q 2713 2700 2713 3106 
Q 2713 3503 2464 3751 
Q 2216 4000 1806 4000 
Q 1625 4000 1316 3941 
L 1316 2178 
z
" transform="scale(0.015625)"/>
      <path id="TimesNewRomanPSMT-66" d="M 1319 2638 
L 1319 756 
Q 1319 356 1406 250 
Q 1522 113 1716 113 
L 1975 113 
L 1975 0 
L 266 0 
L 266 113 
L 394 113 
Q 519 113 622 175 
Q 725 238 764 344 
Q 803 450 803 756 
L 803 2638 
L 247 2638 
L 247 2863 
L 803 2863 
L 803 3050 
Q 803 3478 940 3775 
Q 1078 4072 1361 4255 
Q 1644 4438 1997 4438 
Q 2325 4438 2600 4225 
Q 2781 4084 2781 3909 
Q 2781 3816 2700 3733 
Q 2619 3650 2525 3650 
Q 2453 3650 2373 3701 
Q 2294 3753 2178 3923 
Q 2063 4094 1966 4153 
Q 1869 4213 1750 4213 
Q 1606 4213 1506 4136 
Q 1406 4059 1362 3898 
Q 1319 3738 1319 3069 
L 1319 2863 
L 2056 2863 
L 2056 2638 
L 1319 2638 
z
" transform="scale(0.015625)"/>
      <path id="TimesNewRomanPSMT-6d" d="M 1050 2338 
Q 1363 2650 1419 2697 
Q 1559 2816 1721 2881 
Q 1884 2947 2044 2947 
Q 2313 2947 2506 2790 
Q 2700 2634 2766 2338 
Q 3088 2713 3309 2830 
Q 3531 2947 3766 2947 
Q 3994 2947 4170 2830 
Q 4347 2713 4450 2447 
Q 4519 2266 4519 1878 
L 4519 647 
Q 4519 378 4559 278 
Q 4591 209 4675 161 
Q 4759 113 4950 113 
L 4950 0 
L 3538 0 
L 3538 113 
L 3597 113 
Q 3781 113 3884 184 
Q 3956 234 3988 344 
Q 4000 397 4000 647 
L 4000 1878 
Q 4000 2228 3916 2372 
Q 3794 2572 3525 2572 
Q 3359 2572 3192 2489 
Q 3025 2406 2788 2181 
L 2781 2147 
L 2788 2013 
L 2788 647 
Q 2788 353 2820 281 
Q 2853 209 2943 161 
Q 3034 113 3253 113 
L 3253 0 
L 1806 0 
L 1806 113 
Q 2044 113 2133 169 
Q 2222 225 2256 338 
Q 2272 391 2272 647 
L 2272 1878 
Q 2272 2228 2169 2381 
Q 2031 2581 1784 2581 
Q 1616 2581 1450 2491 
Q 1191 2353 1050 2181 
L 1050 647 
Q 1050 366 1089 281 
Q 1128 197 1204 155 
Q 1281 113 1516 113 
L 1516 0 
L 100 0 
L 100 113 
Q 297 113 375 155 
Q 453 197 493 289 
Q 534 381 534 647 
L 534 1741 
Q 534 2213 506 2350 
Q 484 2453 437 2492 
Q 391 2531 309 2531 
Q 222 2531 100 2484 
L 53 2597 
L 916 2947 
L 1050 2947 
L 1050 2338 
z
" transform="scale(0.015625)"/>
      <path id="TimesNewRomanPSMT-28" d="M 1988 -1253 
L 1988 -1369 
Q 1516 -1131 1200 -813 
Q 750 -359 506 256 
Q 263 872 263 1534 
Q 263 2503 741 3301 
Q 1219 4100 1988 4444 
L 1988 4313 
Q 1603 4100 1356 3731 
Q 1109 3363 987 2797 
Q 866 2231 866 1616 
Q 866 947 969 400 
Q 1050 -31 1165 -292 
Q 1281 -553 1476 -793 
Q 1672 -1034 1988 -1253 
z
" transform="scale(0.015625)"/>
      <path id="TimesNewRomanPSMT-25" d="M 4350 4334 
L 1263 -175 
L 984 -175 
L 4072 4334 
L 4350 4334 
z
M 1138 4334 
Q 1559 4334 1792 3984 
Q 2025 3634 2025 3181 
Q 2025 2638 1762 2341 
Q 1500 2044 1131 2044 
Q 884 2044 678 2180 
Q 472 2316 348 2584 
Q 225 2853 225 3181 
Q 225 3509 350 3786 
Q 475 4063 692 4198 
Q 909 4334 1138 4334 
z
M 1128 4159 
Q 969 4159 845 3971 
Q 722 3784 722 3184 
Q 722 2750 791 2522 
Q 844 2350 956 2256 
Q 1022 2200 1119 2200 
Q 1269 2200 1375 2363 
Q 1531 2603 1531 3166 
Q 1531 3759 1378 4000 
Q 1278 4159 1128 4159 
z
M 4206 2103 
Q 4428 2103 4648 1962 
Q 4869 1822 4989 1553 
Q 5109 1284 5109 963 
Q 5109 409 4843 117 
Q 4578 -175 4216 -175 
Q 3988 -175 3773 -34 
Q 3559 106 3436 367 
Q 3313 628 3313 963 
Q 3313 1291 3436 1562 
Q 3559 1834 3773 1968 
Q 3988 2103 4206 2103 
z
M 4209 1938 
Q 4059 1938 3950 1769 
Q 3809 1550 3809 941 
Q 3809 381 3953 159 
Q 4059 0 4209 0 
Q 4353 0 4466 172 
Q 4616 400 4616 956 
Q 4616 1544 4466 1778 
Q 4363 1938 4209 1938 
z
" transform="scale(0.015625)"/>
      <path id="TimesNewRomanPSMT-29" d="M 144 4313 
L 144 4444 
Q 619 4209 934 3891 
Q 1381 3434 1625 2820 
Q 1869 2206 1869 1541 
Q 1869 572 1392 -226 
Q 916 -1025 144 -1369 
L 144 -1253 
Q 528 -1038 776 -670 
Q 1025 -303 1145 264 
Q 1266 831 1266 1447 
Q 1266 2113 1163 2663 
Q 1084 3094 967 3353 
Q 850 3613 656 3853 
Q 463 4094 144 4313 
z
" transform="scale(0.015625)"/>
     </defs>
     <use xlink:href="#TimesNewRomanPSMT-56"/>
     <use xlink:href="#TimesNewRomanPSMT-61" transform="translate(61.091797 0)"/>
     <use xlink:href="#TimesNewRomanPSMT-63" transform="translate(105.476562 0)"/>
     <use xlink:href="#TimesNewRomanPSMT-63" transform="translate(149.861328 0)"/>
     <use xlink:href="#TimesNewRomanPSMT-69" transform="translate(194.246094 0)"/>
     <use xlink:href="#TimesNewRomanPSMT-6e" transform="translate(222.029297 0)"/>
     <use xlink:href="#TimesNewRomanPSMT-61" transform="translate(272.029297 0)"/>
     <use xlink:href="#TimesNewRomanPSMT-74" transform="translate(316.414062 0)"/>
     <use xlink:href="#TimesNewRomanPSMT-69" transform="translate(344.197266 0)"/>
     <use xlink:href="#TimesNewRomanPSMT-6f" transform="translate(371.980469 0)"/>
     <use xlink:href="#TimesNewRomanPSMT-6e" transform="translate(421.980469 0)"/>
     <use xlink:href="#TimesNewRomanPSMT-20" transform="translate(471.980469 0)"/>
     <use xlink:href="#TimesNewRomanPSMT-52" transform="translate(496.980469 0)"/>
     <use xlink:href="#TimesNewRomanPSMT-61" transform="translate(563.679688 0)"/>
     <use xlink:href="#TimesNewRomanPSMT-74" transform="translate(608.064453 0)"/>
     <use xlink:href="#TimesNewRomanPSMT-65" transform="translate(635.847656 0)"/>
     <use xlink:href="#TimesNewRomanPSMT-20" transform="translate(680.232422 0)"/>
     <use xlink:href="#TimesNewRomanPSMT-66" transform="translate(705.232422 0)"/>
     <use xlink:href="#TimesNewRomanPSMT-72" transform="translate(738.533203 0)"/>
     <use xlink:href="#TimesNewRomanPSMT-6f" transform="translate(771.833984 0)"/>
     <use xlink:href="#TimesNewRomanPSMT-6d" transform="translate(821.833984 0)"/>
     <use xlink:href="#TimesNewRomanPSMT-20" transform="translate(899.617188 0)"/>
     <use xlink:href="#TimesNewRomanPSMT-31" transform="translate(924.617188 0)"/>
     <use xlink:href="#TimesNewRomanPSMT-39" transform="translate(974.617188 0)"/>
     <use xlink:href="#TimesNewRomanPSMT-35" transform="translate(1024.617188 0)"/>
     <use xlink:href="#TimesNewRomanPSMT-33" transform="translate(1074.617188 0)"/>
     <use xlink:href="#TimesNewRomanPSMT-20" transform="translate(1124.617188 0)"/>
     <use xlink:href="#TimesNewRomanPSMT-74" transform="translate(1149.617188 0)"/>
     <use xlink:href="#TimesNewRomanPSMT-6f" transform="translate(1177.400391 0)"/>
     <use xlink:href="#TimesNewRomanPSMT-20" transform="translate(1227.400391 0)"/>
     <use xlink:href="#TimesNewRomanPSMT-31" transform="translate(1252.400391 0)"/>
     <use xlink:href="#TimesNewRomanPSMT-39" transform="translate(1302.400391 0)"/>
     <use xlink:href="#TimesNewRomanPSMT-36" transform="translate(1352.400391 0)"/>
     <use xlink:href="#TimesNewRomanPSMT-36" transform="translate(1402.400391 0)"/>
     <use xlink:href="#TimesNewRomanPSMT-20" transform="translate(1452.400391 0)"/>
     <use xlink:href="#TimesNewRomanPSMT-28" transform="translate(1477.400391 0)"/>
     <use xlink:href="#TimesNewRomanPSMT-25" transform="translate(1510.701172 0)"/>
     <use xlink:href="#TimesNewRomanPSMT-29" transform="translate(1594.001953 0)"/>
     <use xlink:href="#TimesNewRomanPSMT-20" transform="translate(1627.302734 0)"/>
    </g>
   </g>
   <g id="legend_1">
    <g id="patch_7">
     <path d="M 415.667927 142.594687 
L 435.667927 142.594687 
L 435.667927 135.594687 
L 415.667927 135.594687 
z
" style="fill: #1f77b4"/>
    </g>
    <g id="text_17">
     <!-- Stellar City Core -->
     <g transform="translate(443.667927 142.594687) scale(0.1 -0.1)">
      <defs>
       <path id="TimesNewRomanPSMT-53" d="M 2934 4334 
L 2934 2869 
L 2819 2869 
Q 2763 3291 2617 3541 
Q 2472 3791 2203 3937 
Q 1934 4084 1647 4084 
Q 1322 4084 1109 3886 
Q 897 3688 897 3434 
Q 897 3241 1031 3081 
Q 1225 2847 1953 2456 
Q 2547 2138 2764 1967 
Q 2981 1797 3098 1565 
Q 3216 1334 3216 1081 
Q 3216 600 2842 251 
Q 2469 -97 1881 -97 
Q 1697 -97 1534 -69 
Q 1438 -53 1133 45 
Q 828 144 747 144 
Q 669 144 623 97 
Q 578 50 556 -97 
L 441 -97 
L 441 1356 
L 556 1356 
Q 638 900 775 673 
Q 913 447 1195 297 
Q 1478 147 1816 147 
Q 2206 147 2432 353 
Q 2659 559 2659 841 
Q 2659 997 2573 1156 
Q 2488 1316 2306 1453 
Q 2184 1547 1640 1851 
Q 1097 2156 867 2337 
Q 638 2519 519 2737 
Q 400 2956 400 3219 
Q 400 3675 750 4004 
Q 1100 4334 1641 4334 
Q 1978 4334 2356 4169 
Q 2531 4091 2603 4091 
Q 2684 4091 2736 4139 
Q 2788 4188 2819 4334 
L 2934 4334 
z
" transform="scale(0.015625)"/>
       <path id="TimesNewRomanPSMT-6c" d="M 1184 4444 
L 1184 647 
Q 1184 378 1223 290 
Q 1263 203 1344 158 
Q 1425 113 1647 113 
L 1647 0 
L 244 0 
L 244 113 
Q 441 113 512 153 
Q 584 194 625 287 
Q 666 381 666 647 
L 666 3247 
Q 666 3731 644 3842 
Q 622 3953 573 3993 
Q 525 4034 450 4034 
Q 369 4034 244 3984 
L 191 4094 
L 1044 4444 
L 1184 4444 
z
" transform="scale(0.015625)"/>
       <path id="TimesNewRomanPSMT-43" d="M 3853 4334 
L 3950 2894 
L 3853 2894 
Q 3659 3541 3300 3825 
Q 2941 4109 2438 4109 
Q 2016 4109 1675 3895 
Q 1334 3681 1139 3212 
Q 944 2744 944 2047 
Q 944 1472 1128 1050 
Q 1313 628 1683 403 
Q 2053 178 2528 178 
Q 2941 178 3256 354 
Q 3572 531 3950 1056 
L 4047 994 
Q 3728 428 3303 165 
Q 2878 -97 2294 -97 
Q 1241 -97 663 684 
Q 231 1266 231 2053 
Q 231 2688 515 3219 
Q 800 3750 1298 4042 
Q 1797 4334 2388 4334 
Q 2847 4334 3294 4109 
Q 3425 4041 3481 4041 
Q 3566 4041 3628 4100 
Q 3709 4184 3744 4334 
L 3853 4334 
z
" transform="scale(0.015625)"/>
       <path id="TimesNewRomanPSMT-79" d="M 38 2863 
L 1372 2863 
L 1372 2747 
L 1306 2747 
Q 1166 2747 1095 2686 
Q 1025 2625 1025 2534 
Q 1025 2413 1128 2197 
L 1825 753 
L 2466 2334 
Q 2519 2463 2519 2588 
Q 2519 2644 2497 2672 
Q 2472 2706 2419 2726 
Q 2366 2747 2231 2747 
L 2231 2863 
L 3163 2863 
L 3163 2747 
Q 3047 2734 2984 2696 
Q 2922 2659 2847 2556 
Q 2819 2513 2741 2316 
L 1575 -541 
Q 1406 -956 1132 -1168 
Q 859 -1381 606 -1381 
Q 422 -1381 303 -1275 
Q 184 -1169 184 -1031 
Q 184 -900 270 -820 
Q 356 -741 506 -741 
Q 609 -741 788 -809 
Q 913 -856 944 -856 
Q 1038 -856 1148 -759 
Q 1259 -663 1372 -384 
L 1575 113 
L 547 2272 
Q 500 2369 397 2513 
Q 319 2622 269 2659 
Q 197 2709 38 2747 
L 38 2863 
z
" transform="scale(0.015625)"/>
      </defs>
      <use xlink:href="#TimesNewRomanPSMT-53"/>
      <use xlink:href="#TimesNewRomanPSMT-74" transform="translate(55.615234 0)"/>
      <use xlink:href="#TimesNewRomanPSMT-65" transform="translate(83.398438 0)"/>
      <use xlink:href="#TimesNewRomanPSMT-6c" transform="translate(127.783203 0)"/>
      <use xlink:href="#TimesNewRomanPSMT-6c" transform="translate(155.566406 0)"/>
      <use xlink:href="#TimesNewRomanPSMT-61" transform="translate(183.349609 0)"/>
      <use xlink:href="#TimesNewRomanPSMT-72" transform="translate(227.734375 0)"/>
      <use xlink:href="#TimesNewRomanPSMT-20" transform="translate(261.035156 0)"/>
      <use xlink:href="#TimesNewRomanPSMT-43" transform="translate(286.035156 0)"/>
      <use xlink:href="#TimesNewRomanPSMT-69" transform="translate(352.734375 0)"/>
      <use xlink:href="#TimesNewRomanPSMT-74" transform="translate(380.517578 0)"/>
      <use xlink:href="#TimesNewRomanPSMT-79" transform="translate(408.300781 0)"/>
      <use xlink:href="#TimesNewRomanPSMT-20" transform="translate(458.300781 0)"/>
      <use xlink:href="#TimesNewRomanPSMT-43" transform="translate(483.300781 0)"/>
      <use xlink:href="#TimesNewRomanPSMT-6f" transform="translate(550 0)"/>
      <use xlink:href="#TimesNewRomanPSMT-72" transform="translate(600 0)"/>
      <use xlink:href="#TimesNewRomanPSMT-65" transform="translate(633.300781 0)"/>
     </g>
    </g>
    <g id="patch_8">
     <path d="M 415.667927 156.7525 
L 435.667927 156.7525 
L 435.667927 149.7525 
L 415.667927 149.7525 
z
" style="fill: #aec7e8"/>
    </g>
    <g id="text_18">
     <!-- Azure Enclave -->
     <g transform="translate(443.667927 156.7525) scale(0.1 -0.1)">
      <defs>
       <path id="TimesNewRomanPSMT-41" d="M 2928 1419 
L 1288 1419 
L 1000 750 
Q 894 503 894 381 
Q 894 284 986 211 
Q 1078 138 1384 116 
L 1384 0 
L 50 0 
L 50 116 
Q 316 163 394 238 
Q 553 388 747 847 
L 2238 4334 
L 2347 4334 
L 3822 809 
Q 4000 384 4145 257 
Q 4291 131 4550 116 
L 4550 0 
L 2878 0 
L 2878 116 
Q 3131 128 3220 200 
Q 3309 272 3309 375 
Q 3309 513 3184 809 
L 2928 1419 
z
M 2841 1650 
L 2122 3363 
L 1384 1650 
L 2841 1650 
z
" transform="scale(0.015625)"/>
       <path id="TimesNewRomanPSMT-7a" d="M 2688 878 
L 2653 0 
L 128 0 
L 128 113 
L 2028 2644 
L 1091 2644 
Q 788 2644 694 2605 
Q 600 2566 541 2456 
Q 456 2300 444 2069 
L 319 2069 
L 338 2863 
L 2738 2863 
L 2738 2747 
L 819 209 
L 1863 209 
Q 2191 209 2308 264 
Q 2425 319 2497 456 
Q 2547 556 2581 878 
L 2688 878 
z
" transform="scale(0.015625)"/>
       <path id="TimesNewRomanPSMT-75" d="M 2709 2863 
L 2709 1128 
Q 2709 631 2732 520 
Q 2756 409 2807 365 
Q 2859 322 2928 322 
Q 3025 322 3147 375 
L 3191 266 
L 2334 -88 
L 2194 -88 
L 2194 519 
Q 1825 119 1631 15 
Q 1438 -88 1222 -88 
Q 981 -88 804 51 
Q 628 191 559 409 
Q 491 628 491 1028 
L 491 2306 
Q 491 2509 447 2587 
Q 403 2666 317 2708 
Q 231 2750 6 2747 
L 6 2863 
L 1009 2863 
L 1009 947 
Q 1009 547 1148 422 
Q 1288 297 1484 297 
Q 1619 297 1789 381 
Q 1959 466 2194 703 
L 2194 2325 
Q 2194 2569 2105 2655 
Q 2016 2741 1734 2747 
L 1734 2863 
L 2709 2863 
z
" transform="scale(0.015625)"/>
       <path id="TimesNewRomanPSMT-45" d="M 1338 4006 
L 1338 2331 
L 2269 2331 
Q 2631 2331 2753 2441 
Q 2916 2584 2934 2947 
L 3050 2947 
L 3050 1472 
L 2934 1472 
Q 2891 1781 2847 1869 
Q 2791 1978 2662 2040 
Q 2534 2103 2269 2103 
L 1338 2103 
L 1338 706 
Q 1338 425 1363 364 
Q 1388 303 1450 267 
Q 1513 231 1688 231 
L 2406 231 
Q 2766 231 2928 281 
Q 3091 331 3241 478 
Q 3434 672 3638 1063 
L 3763 1063 
L 3397 0 
L 131 0 
L 131 116 
L 281 116 
Q 431 116 566 188 
Q 666 238 702 338 
Q 738 438 738 747 
L 738 3500 
Q 738 3903 656 3997 
Q 544 4122 281 4122 
L 131 4122 
L 131 4238 
L 3397 4238 
L 3444 3309 
L 3322 3309 
Q 3256 3644 3176 3769 
Q 3097 3894 2941 3959 
Q 2816 4006 2500 4006 
L 1338 4006 
z
" transform="scale(0.015625)"/>
       <path id="TimesNewRomanPSMT-76" d="M 53 2863 
L 1400 2863 
L 1400 2747 
L 1313 2747 
Q 1191 2747 1127 2687 
Q 1063 2628 1063 2528 
Q 1063 2419 1128 2269 
L 1794 688 
L 2463 2328 
Q 2534 2503 2534 2594 
Q 2534 2638 2509 2666 
Q 2475 2713 2422 2730 
Q 2369 2747 2206 2747 
L 2206 2863 
L 3141 2863 
L 3141 2747 
Q 2978 2734 2916 2681 
Q 2806 2588 2719 2369 
L 1703 -88 
L 1575 -88 
L 553 2328 
Q 484 2497 421 2570 
Q 359 2644 263 2694 
Q 209 2722 53 2747 
L 53 2863 
z
" transform="scale(0.015625)"/>
      </defs>
      <use xlink:href="#TimesNewRomanPSMT-41"/>
      <use xlink:href="#TimesNewRomanPSMT-7a" transform="translate(72.216797 0)"/>
      <use xlink:href="#TimesNewRomanPSMT-75" transform="translate(116.601562 0)"/>
      <use xlink:href="#TimesNewRomanPSMT-72" transform="translate(166.601562 0)"/>
      <use xlink:href="#TimesNewRomanPSMT-65" transform="translate(199.902344 0)"/>
      <use xlink:href="#TimesNewRomanPSMT-20" transform="translate(244.287109 0)"/>
      <use xlink:href="#TimesNewRomanPSMT-45" transform="translate(269.287109 0)"/>
      <use xlink:href="#TimesNewRomanPSMT-6e" transform="translate(330.371094 0)"/>
      <use xlink:href="#TimesNewRomanPSMT-63" transform="translate(380.371094 0)"/>
      <use xlink:href="#TimesNewRomanPSMT-6c" transform="translate(424.755859 0)"/>
      <use xlink:href="#TimesNewRomanPSMT-61" transform="translate(452.539062 0)"/>
      <use xlink:href="#TimesNewRomanPSMT-76" transform="translate(496.923828 0)"/>
      <use xlink:href="#TimesNewRomanPSMT-65" transform="translate(546.923828 0)"/>
     </g>
    </g>
    <g id="patch_9">
     <path d="M 415.667927 170.891562 
L 435.667927 170.891562 
L 435.667927 163.891562 
L 415.667927 163.891562 
z
" style="fill: #ff7f0e"/>
    </g>
    <g id="text_19">
     <!-- Sector Beta -->
     <g transform="translate(443.667927 170.891562) scale(0.1 -0.1)">
      <defs>
       <path id="TimesNewRomanPSMT-42" d="M 2956 2163 
Q 3397 2069 3616 1863 
Q 3919 1575 3919 1159 
Q 3919 844 3719 555 
Q 3519 266 3170 133 
Q 2822 0 2106 0 
L 106 0 
L 106 116 
L 266 116 
Q 531 116 647 284 
Q 719 394 719 750 
L 719 3488 
Q 719 3881 628 3984 
Q 506 4122 266 4122 
L 106 4122 
L 106 4238 
L 1938 4238 
Q 2450 4238 2759 4163 
Q 3228 4050 3475 3764 
Q 3722 3478 3722 3106 
Q 3722 2788 3528 2536 
Q 3334 2284 2956 2163 
z
M 1319 2331 
Q 1434 2309 1582 2298 
Q 1731 2288 1909 2288 
Q 2366 2288 2595 2386 
Q 2825 2484 2947 2687 
Q 3069 2891 3069 3131 
Q 3069 3503 2766 3765 
Q 2463 4028 1881 4028 
Q 1569 4028 1319 3959 
L 1319 2331 
z
M 1319 306 
Q 1681 222 2034 222 
Q 2600 222 2897 476 
Q 3194 731 3194 1106 
Q 3194 1353 3059 1581 
Q 2925 1809 2622 1940 
Q 2319 2072 1872 2072 
Q 1678 2072 1540 2065 
Q 1403 2059 1319 2044 
L 1319 306 
z
" transform="scale(0.015625)"/>
      </defs>
      <use xlink:href="#TimesNewRomanPSMT-53"/>
      <use xlink:href="#TimesNewRomanPSMT-65" transform="translate(55.615234 0)"/>
      <use xlink:href="#TimesNewRomanPSMT-63" transform="translate(100 0)"/>
      <use xlink:href="#TimesNewRomanPSMT-74" transform="translate(144.384766 0)"/>
      <use xlink:href="#TimesNewRomanPSMT-6f" transform="translate(172.167969 0)"/>
      <use xlink:href="#TimesNewRomanPSMT-72" transform="translate(222.167969 0)"/>
      <use xlink:href="#TimesNewRomanPSMT-20" transform="translate(255.46875 0)"/>
      <use xlink:href="#TimesNewRomanPSMT-42" transform="translate(280.46875 0)"/>
      <use xlink:href="#TimesNewRomanPSMT-65" transform="translate(347.167969 0)"/>
      <use xlink:href="#TimesNewRomanPSMT-74" transform="translate(391.552734 0)"/>
      <use xlink:href="#TimesNewRomanPSMT-61" transform="translate(419.335938 0)"/>
     </g>
    </g>
    <g id="patch_10">
     <path d="M 415.667927 185.030625 
L 435.667927 185.030625 
L 435.667927 178.030625 
L 415.667927 178.030625 
z
" style="fill: #ffbb78"/>
    </g>
    <g id="text_20">
     <!-- Crimson Quarter -->
     <g transform="translate(443.667927 185.030625) scale(0.1 -0.1)">
      <defs>
       <path id="TimesNewRomanPSMT-73" d="M 2050 2947 
L 2050 1972 
L 1947 1972 
Q 1828 2431 1642 2597 
Q 1456 2763 1169 2763 
Q 950 2763 815 2647 
Q 681 2531 681 2391 
Q 681 2216 781 2091 
Q 878 1963 1175 1819 
L 1631 1597 
Q 2266 1288 2266 781 
Q 2266 391 1970 151 
Q 1675 -88 1309 -88 
Q 1047 -88 709 6 
Q 606 38 541 38 
Q 469 38 428 -44 
L 325 -44 
L 325 978 
L 428 978 
Q 516 541 762 319 
Q 1009 97 1316 97 
Q 1531 97 1667 223 
Q 1803 350 1803 528 
Q 1803 744 1651 891 
Q 1500 1038 1047 1263 
Q 594 1488 453 1669 
Q 313 1847 313 2119 
Q 313 2472 555 2709 
Q 797 2947 1181 2947 
Q 1350 2947 1591 2875 
Q 1750 2828 1803 2828 
Q 1853 2828 1881 2850 
Q 1909 2872 1947 2947 
L 2050 2947 
z
" transform="scale(0.015625)"/>
       <path id="TimesNewRomanPSMT-51" d="M 2819 -47 
Q 3138 -597 3508 -856 
Q 3878 -1116 4350 -1153 
L 4350 -1253 
Q 3919 -1238 3428 -1080 
Q 2938 -922 2498 -642 
Q 2059 -363 1741 -47 
Q 1291 134 1028 338 
Q 647 641 436 1083 
Q 225 1525 225 2128 
Q 225 3078 840 3706 
Q 1456 4334 2331 4334 
Q 3163 4334 3770 3704 
Q 4378 3075 4378 2116 
Q 4378 1338 3945 750 
Q 3513 163 2819 -47 
z
M 2294 4094 
Q 1725 4094 1378 3688 
Q 941 3178 941 2128 
Q 941 1100 1384 544 
Q 1728 116 2294 116 
Q 2881 116 3241 544 
Q 3663 1050 3663 2038 
Q 3663 2797 3431 3316 
Q 3253 3716 2958 3905 
Q 2663 4094 2294 4094 
z
" transform="scale(0.015625)"/>
      </defs>
      <use xlink:href="#TimesNewRomanPSMT-43"/>
      <use xlink:href="#TimesNewRomanPSMT-72" transform="translate(66.699219 0)"/>
      <use xlink:href="#TimesNewRomanPSMT-69" transform="translate(100 0)"/>
      <use xlink:href="#TimesNewRomanPSMT-6d" transform="translate(127.783203 0)"/>
      <use xlink:href="#TimesNewRomanPSMT-73" transform="translate(205.566406 0)"/>
      <use xlink:href="#TimesNewRomanPSMT-6f" transform="translate(244.482422 0)"/>
      <use xlink:href="#TimesNewRomanPSMT-6e" transform="translate(294.482422 0)"/>
      <use xlink:href="#TimesNewRomanPSMT-20" transform="translate(344.482422 0)"/>
      <use xlink:href="#TimesNewRomanPSMT-51" transform="translate(369.482422 0)"/>
      <use xlink:href="#TimesNewRomanPSMT-75" transform="translate(441.699219 0)"/>
      <use xlink:href="#TimesNewRomanPSMT-61" transform="translate(491.699219 0)"/>
      <use xlink:href="#TimesNewRomanPSMT-72" transform="translate(536.083984 0)"/>
      <use xlink:href="#TimesNewRomanPSMT-74" transform="translate(569.384766 0)"/>
      <use xlink:href="#TimesNewRomanPSMT-65" transform="translate(597.167969 0)"/>
      <use xlink:href="#TimesNewRomanPSMT-72" transform="translate(641.552734 0)"/>
     </g>
    </g>
    <g id="patch_11">
     <path d="M 415.667927 199.169687 
L 435.667927 199.169687 
L 435.667927 192.169687 
L 415.667927 192.169687 
z
" style="fill: #2ca02c"/>
    </g>
    <g id="text_21">
     <!-- Outer Rim Settlements -->
     <g transform="translate(443.667927 199.169687) scale(0.1 -0.1)">
      <defs>
       <path id="TimesNewRomanPSMT-4f" d="M 2341 4334 
Q 3166 4334 3770 3707 
Q 4375 3081 4375 2144 
Q 4375 1178 3765 540 
Q 3156 -97 2291 -97 
Q 1416 -97 820 525 
Q 225 1147 225 2134 
Q 225 3144 913 3781 
Q 1509 4334 2341 4334 
z
M 2281 4106 
Q 1713 4106 1369 3684 
Q 941 3159 941 2147 
Q 941 1109 1384 550 
Q 1725 125 2284 125 
Q 2881 125 3270 590 
Q 3659 1056 3659 2059 
Q 3659 3147 3231 3681 
Q 2888 4106 2281 4106 
z
" transform="scale(0.015625)"/>
      </defs>
      <use xlink:href="#TimesNewRomanPSMT-4f"/>
      <use xlink:href="#TimesNewRomanPSMT-75" transform="translate(72.216797 0)"/>
      <use xlink:href="#TimesNewRomanPSMT-74" transform="translate(122.216797 0)"/>
      <use xlink:href="#TimesNewRomanPSMT-65" transform="translate(150 0)"/>
      <use xlink:href="#TimesNewRomanPSMT-72" transform="translate(194.384766 0)"/>
      <use xlink:href="#TimesNewRomanPSMT-20" transform="translate(227.685547 0)"/>
      <use xlink:href="#TimesNewRomanPSMT-52" transform="translate(252.685547 0)"/>
      <use xlink:href="#TimesNewRomanPSMT-69" transform="translate(319.384766 0)"/>
      <use xlink:href="#TimesNewRomanPSMT-6d" transform="translate(347.167969 0)"/>
      <use xlink:href="#TimesNewRomanPSMT-20" transform="translate(424.951172 0)"/>
      <use xlink:href="#TimesNewRomanPSMT-53" transform="translate(449.951172 0)"/>
      <use xlink:href="#TimesNewRomanPSMT-65" transform="translate(505.566406 0)"/>
      <use xlink:href="#TimesNewRomanPSMT-74" transform="translate(549.951172 0)"/>
      <use xlink:href="#TimesNewRomanPSMT-74" transform="translate(577.734375 0)"/>
      <use xlink:href="#TimesNewRomanPSMT-6c" transform="translate(605.517578 0)"/>
      <use xlink:href="#TimesNewRomanPSMT-65" transform="translate(633.300781 0)"/>
      <use xlink:href="#TimesNewRomanPSMT-6d" transform="translate(677.685547 0)"/>
      <use xlink:href="#TimesNewRomanPSMT-65" transform="translate(755.46875 0)"/>
      <use xlink:href="#TimesNewRomanPSMT-6e" transform="translate(799.853516 0)"/>
      <use xlink:href="#TimesNewRomanPSMT-74" transform="translate(849.853516 0)"/>
      <use xlink:href="#TimesNewRomanPSMT-73" transform="translate(877.636719 0)"/>
     </g>
    </g>
    <g id="patch_12">
     <path d="M 415.667927 213.30875 
L 435.667927 213.30875 
L 435.667927 206.30875 
L 415.667927 206.30875 
z
" style="fill: #98df8a"/>
    </g>
    <g id="text_22">
     <!-- Verdant Ward -->
     <g transform="translate(443.667927 213.30875) scale(0.1 -0.1)">
      <defs>
       <path id="TimesNewRomanPSMT-64" d="M 2222 322 
Q 2013 103 1813 7 
Q 1613 -88 1381 -88 
Q 913 -88 563 304 
Q 213 697 213 1313 
Q 213 1928 600 2439 
Q 988 2950 1597 2950 
Q 1975 2950 2222 2709 
L 2222 3238 
Q 2222 3728 2198 3840 
Q 2175 3953 2125 3993 
Q 2075 4034 2000 4034 
Q 1919 4034 1784 3984 
L 1744 4094 
L 2597 4444 
L 2738 4444 
L 2738 1134 
Q 2738 631 2761 520 
Q 2784 409 2836 365 
Q 2888 322 2956 322 
Q 3041 322 3181 375 
L 3216 266 
L 2366 -88 
L 2222 -88 
L 2222 322 
z
M 2222 541 
L 2222 2016 
Q 2203 2228 2109 2403 
Q 2016 2578 1861 2667 
Q 1706 2756 1559 2756 
Q 1284 2756 1069 2509 
Q 784 2184 784 1559 
Q 784 928 1059 592 
Q 1334 256 1672 256 
Q 1956 256 2222 541 
z
" transform="scale(0.015625)"/>
       <path id="TimesNewRomanPSMT-57" d="M 5991 4238 
L 5991 4122 
Q 5825 4122 5722 4062 
Q 5619 4003 5525 3841 
Q 5463 3731 5328 3319 
L 4147 -97 
L 4022 -97 
L 3056 2613 
L 2097 -97 
L 1984 -97 
L 725 3422 
Q 584 3816 547 3888 
Q 484 4006 376 4064 
Q 269 4122 84 4122 
L 84 4238 
L 1653 4238 
L 1653 4122 
L 1578 4122 
Q 1413 4122 1325 4047 
Q 1238 3972 1238 3866 
Q 1238 3756 1375 3363 
L 2209 984 
L 2913 3006 
L 2788 3363 
L 2688 3647 
Q 2622 3803 2541 3922 
Q 2500 3981 2441 4022 
Q 2363 4078 2284 4103 
Q 2225 4122 2097 4122 
L 2097 4238 
L 3747 4238 
L 3747 4122 
L 3634 4122 
Q 3459 4122 3378 4047 
Q 3297 3972 3297 3844 
Q 3297 3684 3438 3288 
L 4250 984 
L 5056 3319 
Q 5194 3706 5194 3856 
Q 5194 3928 5148 3990 
Q 5103 4053 5034 4078 
Q 4916 4122 4725 4122 
L 4725 4238 
L 5991 4238 
z
" transform="scale(0.015625)"/>
      </defs>
      <use xlink:href="#TimesNewRomanPSMT-56"/>
      <use xlink:href="#TimesNewRomanPSMT-65" transform="translate(61.091797 0)"/>
      <use xlink:href="#TimesNewRomanPSMT-72" transform="translate(105.476562 0)"/>
      <use xlink:href="#TimesNewRomanPSMT-64" transform="translate(138.777344 0)"/>
      <use xlink:href="#TimesNewRomanPSMT-61" transform="translate(188.777344 0)"/>
      <use xlink:href="#TimesNewRomanPSMT-6e" transform="translate(233.162109 0)"/>
      <use xlink:href="#TimesNewRomanPSMT-74" transform="translate(283.162109 0)"/>
      <use xlink:href="#TimesNewRomanPSMT-20" transform="translate(310.945312 0)"/>
      <use xlink:href="#TimesNewRomanPSMT-57" transform="translate(334.195312 0)"/>
      <use xlink:href="#TimesNewRomanPSMT-61" transform="translate(420.580078 0)"/>
      <use xlink:href="#TimesNewRomanPSMT-72" transform="translate(464.964844 0)"/>
      <use xlink:href="#TimesNewRomanPSMT-64" transform="translate(498.265625 0)"/>
     </g>
    </g>
   </g>
  </g>
 </g>
 <defs>
  <clipPath id="p44d333c48f">
   <rect x="10.091927" y="36.92125" width="388.8" height="277.2"/>
  </clipPath>
 </defs>
</svg>
