<?xml version="1.0" encoding="utf-8" standalone="no"?>
<!DOCTYPE svg PUBLIC "-//W3C//DTD SVG 1.1//EN"
  "http://www.w3.org/Graphics/SVG/1.1/DTD/svg11.dtd">
<svg xmlns:xlink="http://www.w3.org/1999/xlink" width="545.400739pt" height="364.113404pt" viewBox="0 0 545.400739 364.113404" xmlns="http://www.w3.org/2000/svg" version="1.1">
 <metadata>
  <rdf:RDF xmlns:dc="http://purl.org/dc/elements/1.1/" xmlns:cc="http://creativecommons.org/ns#" xmlns:rdf="http://www.w3.org/1999/02/22-rdf-syntax-ns#">
   <cc:Work>
    <dc:type rdf:resource="http://purl.org/dc/dcmitype/StillImage"/>
    <dc:date>2025-05-30T23:55:05.063050</dc:date>
    <dc:format>image/svg+xml</dc:format>
    <dc:creator>
     <cc:Agent>
      <dc:title>Matplotlib v3.10.3, https://matplotlib.org/</dc:title>
     </cc:Agent>
    </dc:creator>
   </cc:Work>
  </rdf:RDF>
 </metadata>
 <defs>
  <style type="text/css">*{stroke-linejoin: round; stroke-linecap: butt}</style>
 </defs>
 <g id="figure_1">
  <g id="patch_1">
   <path d="M 0 364.113404 
L 545.400739 364.113404 
L 545.400739 0 
L 0 0 
z
" style="fill: #ffffff"/>
  </g>
  <g id="axes_1">
   <g id="patch_2">
    <path d="M 10.091927 314.449375 
L 398.891927 314.449375 
L 398.891927 37.249375 
L 10.091927 37.249375 
z
" style="fill: #ffffff"/>
   </g>
   <g id="FillBetweenPolyCollection_1">
    <path d="M 27.764654 174.735185 
L 27.764654 217.744108 
L 29.031516 218.071201 
L 30.298378 218.478889 
L 31.56524 218.956309 
L 32.832103 219.492598 
L 34.098965 220.076892 
L 35.365827 220.698329 
L 36.632689 221.346045 
L 37.899551 222.009179 
L 39.166413 222.676865 
L 40.433276 223.338242 
L 41.700138 223.982447 
L 42.967 224.598616 
L 44.233862 225.175886 
L 45.500724 225.703394 
L 46.767586 226.170278 
L 48.034449 226.565673 
L 49.301311 226.878718 
L 50.568173 227.098549 
L 51.835035 227.214303 
L 53.101897 227.215116 
L 54.36876 227.090431 
L 55.635622 226.847929 
L 56.902484 226.523569 
L 58.169346 226.15574 
L 59.436208 225.782832 
L 60.70307 225.443234 
L 61.969933 225.175338 
L 63.236795 225.017533 
L 64.503657 225.008208 
L 65.770519 225.185753 
L 67.037381 225.588559 
L 68.304243 226.239603 
L 69.571106 227.10021 
L 70.837968 228.116293 
L 72.10483 229.233766 
L 73.371692 230.398542 
L 74.638554 231.556533 
L 75.905416 232.653654 
L 77.172279 233.635816 
L 78.439141 234.448934 
L 79.706003 235.03892 
L 80.972865 235.356396 
L 82.239727 235.406716 
L 83.506589 235.230547 
L 84.773452 234.869145 
L 86.040314 234.363765 
L 87.307176 233.755663 
L 88.574038 233.086093 
L 89.8409 232.396312 
L 91.107762 231.727574 
L 92.374625 231.121135 
L 93.641487 230.61796 
L 94.908349 230.241641 
L 96.175211 229.988834 
L 97.442073 229.853882 
L 98.708935 229.831126 
L 99.975798 229.914906 
L 101.24266 230.099565 
L 102.509522 230.379444 
L 103.776384 230.748884 
L 105.043246 231.202227 
L 106.310108 231.733814 
L 107.576971 232.336689 
L 108.843833 232.998707 
L 110.110695 233.706428 
L 111.377557 234.446408 
L 112.644419 235.205207 
L 113.911282 235.969383 
L 115.178144 236.725493 
L 116.445006 237.460097 
L 117.711868 238.159752 
L 118.97873 238.811016 
L 120.245592 239.401296 
L 121.512455 239.927849 
L 122.779317 240.394285 
L 124.046179 240.804324 
L 125.313041 241.161683 
L 126.579903 241.470082 
L 127.846765 241.733237 
L 129.113628 241.954868 
L 130.38049 242.138691 
L 131.647352 242.288427 
L 132.914214 242.40783 
L 134.181076 242.502937 
L 135.447938 242.58332 
L 136.714801 242.658856 
L 137.981663 242.739419 
L 139.248525 242.834886 
L 140.515387 242.955132 
L 141.782249 243.110033 
L 143.049111 243.309465 
L 144.315974 243.563304 
L 145.582836 243.881425 
L 146.849698 244.269105 
L 148.11656 244.713222 
L 149.383422 245.196056 
L 150.650284 245.699886 
L 151.917147 246.206989 
L 153.184009 246.699647 
L 154.450871 247.160137 
L 155.717733 247.57074 
L 156.984595 247.913733 
L 158.251457 248.171396 
L 159.51832 248.327778 
L 160.785182 248.387513 
L 162.052044 248.368512 
L 163.318906 248.288908 
L 164.585768 248.166833 
L 165.85263 248.020422 
L 167.119493 247.867807 
L 168.386355 247.727121 
L 169.653217 247.616498 
L 170.920079 247.55407 
L 172.186941 247.557867 
L 173.453803 247.639699 
L 174.720666 247.801732 
L 175.987528 248.045307 
L 177.25439 248.371762 
L 178.521252 248.782436 
L 179.788114 249.278667 
L 181.054977 249.861794 
L 182.321839 250.533157 
L 183.588701 251.294095 
L 184.855563 252.145945 
L 186.122425 253.083852 
L 187.389287 254.07818 
L 188.65615 255.093101 
L 189.923012 256.092783 
L 191.189874 257.041396 
L 192.456736 257.903112 
L 193.723598 258.642099 
L 194.99046 259.222527 
L 196.257323 259.608567 
L 197.524185 259.764389 
L 198.791047 259.658398 
L 200.057909 259.308249 
L 201.324771 258.763366 
L 202.591633 258.073706 
L 203.858496 257.289222 
L 205.125358 256.459872 
L 206.39222 255.635608 
L 207.659082 254.866388 
L 208.925944 254.202166 
L 210.192806 253.692898 
L 211.459669 253.388 
L 212.726531 253.304611 
L 213.993393 253.409839 
L 215.260255 253.666487 
L 216.527117 254.037359 
L 217.793979 254.485257 
L 219.060842 254.972986 
L 220.327704 255.463348 
L 221.594566 255.919148 
L 222.861428 256.303188 
L 224.12829 256.578273 
L 225.395152 256.719137 
L 226.662015 256.74825 
L 227.928877 256.700012 
L 229.195739 256.608824 
L 230.462601 256.509087 
L 231.729463 256.435202 
L 232.996325 256.421569 
L 234.263188 256.50259 
L 235.53005 256.712665 
L 236.796912 257.086195 
L 238.063774 257.653886 
L 239.330636 258.403491 
L 240.597499 259.29505 
L 241.864361 260.288142 
L 243.131223 261.342344 
L 244.398085 262.417236 
L 245.664947 263.472397 
L 246.931809 264.467404 
L 248.198672 265.361836 
L 249.465534 266.115273 
L 250.732396 266.68769 
L 251.999258 267.062943 
L 253.26612 267.261897 
L 254.532982 267.308604 
L 255.799845 267.227113 
L 257.066707 267.041475 
L 258.333569 266.775741 
L 259.600431 266.45396 
L 260.867293 266.100183 
L 262.134155 265.73846 
L 263.401018 265.392842 
L 264.66788 265.083755 
L 265.934742 264.817135 
L 267.201604 264.595293 
L 268.468466 264.42054 
L 269.735328 264.295188 
L 271.002191 264.22155 
L 272.269053 264.201935 
L 273.535915 264.238657 
L 274.802777 264.334025 
L 276.069639 264.490353 
L 277.336501 264.709304 
L 278.603364 264.985013 
L 279.870226 265.306755 
L 281.137088 265.663727 
L 282.40395 266.045125 
L 283.670812 266.440143 
L 284.937674 266.837979 
L 286.204537 267.227827 
L 287.471399 267.598883 
L 288.738261 267.940344 
L 290.005123 268.241513 
L 291.271985 268.498255 
L 292.538847 268.716596 
L 293.80571 268.90344 
L 295.072572 269.065689 
L 296.339434 269.210245 
L 297.606296 269.344011 
L 298.873158 269.473889 
L 300.140021 269.606781 
L 301.406883 269.749591 
L 302.673745 269.90922 
L 303.940607 270.091793 
L 305.207469 270.300329 
L 306.474331 270.537067 
L 307.741194 270.804248 
L 309.008056 271.104112 
L 310.274918 271.438899 
L 311.54178 271.81085 
L 312.808642 272.222205 
L 314.075504 272.675204 
L 315.342367 273.172087 
L 316.609229 273.714497 
L 317.876091 274.29712 
L 319.142953 274.910155 
L 320.409815 275.543727 
L 321.676677 276.187961 
L 322.94354 276.83298 
L 324.210402 277.46891 
L 325.477264 278.085875 
L 326.744126 278.673999 
L 328.010988 279.223407 
L 329.27785 279.724275 
L 330.544713 280.169886 
L 331.811575 280.558335 
L 333.078437 280.888132 
L 334.345299 281.157788 
L 335.612161 281.365813 
L 336.879023 281.510717 
L 338.145886 281.59101 
L 339.412748 281.605202 
L 340.67961 281.551804 
L 341.946472 281.429325 
L 343.213334 281.240106 
L 344.480196 281.001809 
L 345.747059 280.735925 
L 347.013921 280.463945 
L 348.280783 280.207362 
L 349.547645 279.987667 
L 350.814507 279.826352 
L 352.081369 279.744908 
L 353.348232 279.764827 
L 354.615094 279.9076 
L 355.881956 280.192751 
L 357.148818 280.616917 
L 358.41568 281.161968 
L 359.682542 281.809531 
L 360.949405 282.541231 
L 362.216267 283.338693 
L 363.483129 284.183543 
L 364.749991 285.057407 
L 366.016853 285.941909 
L 367.283716 286.818675 
L 368.550578 287.669331 
L 369.81744 288.475503 
L 371.084302 289.218814 
L 372.351164 289.880892 
L 373.618026 290.443362 
L 374.884889 290.887849 
L 376.151751 291.195978 
L 377.418613 291.349375 
L 378.685475 291.329666 
L 379.952337 291.118475 
L 381.219199 290.697429 
L 381.219199 207.539804 
L 381.219199 207.539804 
L 379.952337 207.978376 
L 378.685475 208.286314 
L 377.418613 208.474687 
L 376.151751 208.554562 
L 374.884889 208.537008 
L 373.618026 208.433091 
L 372.351164 208.25388 
L 371.084302 208.010442 
L 369.81744 207.713845 
L 368.550578 207.375157 
L 367.283716 207.005446 
L 366.016853 206.61578 
L 364.749991 206.217226 
L 363.483129 205.820852 
L 362.216267 205.437725 
L 360.949405 205.078915 
L 359.682542 204.755487 
L 358.41568 204.478511 
L 357.148818 204.259054 
L 355.881956 204.108184 
L 354.615094 204.036805 
L 353.348232 204.046008 
L 352.081369 204.121677 
L 350.814507 204.248385 
L 349.547645 204.410705 
L 348.280783 204.593213 
L 347.013921 204.780483 
L 345.747059 204.957087 
L 344.480196 205.107601 
L 343.213334 205.216599 
L 341.946472 205.268653 
L 340.67961 205.251596 
L 339.412748 205.166283 
L 338.145886 205.016828 
L 336.879023 204.807344 
L 335.612161 204.541944 
L 334.345299 204.224742 
L 333.078437 203.85985 
L 331.811575 203.451382 
L 330.544713 203.003451 
L 329.27785 202.52017 
L 328.010988 202.005815 
L 326.744126 201.466552 
L 325.477264 200.90977 
L 324.210402 200.342874 
L 322.94354 199.773272 
L 321.676677 199.208372 
L 320.409815 198.65558 
L 319.142953 198.122304 
L 317.876091 197.615951 
L 316.609229 197.143929 
L 315.342367 196.713626 
L 314.075504 196.331432 
L 312.808642 196.002178 
L 311.54178 195.730563 
L 310.274918 195.521285 
L 309.008056 195.379043 
L 307.741194 195.308536 
L 306.474331 195.314462 
L 305.207469 195.40152 
L 303.940607 195.574408 
L 302.673745 195.837824 
L 301.406883 196.191306 
L 300.140021 196.613739 
L 298.873158 197.078847 
L 297.606296 197.560354 
L 296.339434 198.031983 
L 295.072572 198.46746 
L 293.80571 198.840507 
L 292.538847 199.124848 
L 291.271985 199.294207 
L 290.005123 199.322309 
L 288.738261 199.186014 
L 287.471399 198.898671 
L 286.204537 198.497161 
L 284.937674 198.018763 
L 283.670812 197.500753 
L 282.40395 196.980406 
L 281.137088 196.495 
L 279.870226 196.081812 
L 278.603364 195.778117 
L 277.336501 195.621191 
L 276.069639 195.64782 
L 274.802777 195.865206 
L 273.535915 196.234707 
L 272.269053 196.713734 
L 271.002191 197.259701 
L 269.735328 197.83002 
L 268.468466 198.382104 
L 267.201604 198.873365 
L 265.934742 199.261216 
L 264.66788 199.50307 
L 263.401018 199.556339 
L 262.134155 199.390626 
L 260.867293 199.024302 
L 259.600431 198.487926 
L 258.333569 197.812059 
L 257.066707 197.027261 
L 255.799845 196.164093 
L 254.532982 195.253115 
L 253.26612 194.324888 
L 251.999258 193.409971 
L 250.732396 192.538925 
L 249.465534 191.74088 
L 248.198672 191.028326 
L 246.931809 190.40302 
L 245.664947 189.86654 
L 244.398085 189.420464 
L 243.131223 189.066368 
L 241.864361 188.805831 
L 240.597499 188.640431 
L 239.330636 188.571745 
L 238.063774 188.601352 
L 236.796912 188.730714 
L 235.53005 188.954499 
L 234.263188 189.256835 
L 232.996325 189.620941 
L 231.729463 190.03004 
L 230.462601 190.467354 
L 229.195739 190.916102 
L 227.928877 191.359508 
L 226.662015 191.780792 
L 225.395152 192.163175 
L 224.12829 192.489879 
L 222.861428 192.748236 
L 221.594566 192.942023 
L 220.327704 193.079129 
L 219.060842 193.167441 
L 217.793979 193.214847 
L 216.527117 193.229236 
L 215.260255 193.218495 
L 213.993393 193.190513 
L 212.726531 193.153177 
L 211.459669 193.114376 
L 210.192806 193.081281 
L 208.925944 193.052724 
L 207.659082 193.022161 
L 206.39222 192.982955 
L 205.125358 192.928473 
L 203.858496 192.852078 
L 202.591633 192.747135 
L 201.324771 192.607009 
L 200.057909 192.425064 
L 198.791047 192.194666 
L 197.524185 191.909291 
L 196.257323 191.569166 
L 194.99046 191.184981 
L 193.723598 190.768322 
L 192.456736 190.33078 
L 191.189874 189.883942 
L 189.923012 189.439397 
L 188.65615 189.008733 
L 187.389287 188.60354 
L 186.122425 188.235405 
L 184.855563 187.915917 
L 183.588701 187.654157 
L 182.321839 187.449178 
L 181.054977 187.297524 
L 179.788114 187.19574 
L 178.521252 187.140371 
L 177.25439 187.127962 
L 175.987528 187.155057 
L 174.720666 187.218201 
L 173.453803 187.313939 
L 172.186941 187.438815 
L 170.920079 187.589162 
L 169.653217 187.758819 
L 168.386355 187.940023 
L 167.119493 188.124984 
L 165.85263 188.305909 
L 164.585768 188.475008 
L 163.318906 188.624491 
L 162.052044 188.746565 
L 160.785182 188.833441 
L 159.51832 188.877327 
L 158.251457 188.870504 
L 156.984595 188.809534 
L 155.717733 188.69762 
L 154.450871 188.538534 
L 153.184009 188.336048 
L 151.917147 188.093934 
L 150.650284 187.815966 
L 149.383422 187.505916 
L 148.11656 187.167556 
L 146.849698 186.804658 
L 145.582836 186.420996 
L 144.315974 186.020559 
L 143.049111 185.608209 
L 141.782249 185.189026 
L 140.515387 184.768088 
L 139.248525 184.350474 
L 137.981663 183.941265 
L 136.714801 183.545539 
L 135.447938 183.168375 
L 134.181076 182.814853 
L 132.914214 182.490052 
L 131.647352 182.198831 
L 130.38049 181.943502 
L 129.113628 181.72473 
L 127.846765 181.543154 
L 126.579903 181.399411 
L 125.313041 181.29414 
L 124.046179 181.227979 
L 122.779317 181.201567 
L 121.512455 181.215542 
L 120.245592 181.270542 
L 118.97873 181.367104 
L 117.711868 181.499685 
L 116.445006 181.653316 
L 115.178144 181.812219 
L 113.911282 181.960614 
L 112.644419 182.082724 
L 111.377557 182.162769 
L 110.110695 182.184971 
L 108.843833 182.13355 
L 107.576971 181.992728 
L 106.310108 181.746726 
L 105.043246 181.38814 
L 103.776384 180.943069 
L 102.509522 180.445985 
L 101.24266 179.931362 
L 99.975798 179.433673 
L 98.708935 178.987391 
L 97.442073 178.62699 
L 96.175211 178.386943 
L 94.908349 178.301722 
L 93.641487 178.405802 
L 92.374625 178.729205 
L 91.107762 179.250223 
L 89.8409 179.913771 
L 88.574038 180.66421 
L 87.307176 181.445899 
L 86.040314 182.203198 
L 84.773452 182.880467 
L 83.506589 183.422065 
L 82.239727 183.772353 
L 80.972865 183.875689 
L 79.706003 183.677152 
L 78.439141 183.164854 
L 77.172279 182.393619 
L 75.905416 181.424005 
L 74.638554 180.316573 
L 73.371692 179.131882 
L 72.10483 177.930493 
L 70.837968 176.772965 
L 69.571106 175.719858 
L 68.304243 174.831732 
L 67.037381 174.169147 
L 65.770519 173.775636 
L 64.503657 173.626624 
L 63.236795 173.680507 
L 61.969933 173.895685 
L 60.70307 174.230555 
L 59.436208 174.643514 
L 58.169346 175.09296 
L 56.902484 175.537291 
L 55.635622 175.934904 
L 54.36876 176.244198 
L 53.101897 176.426458 
L 51.835035 176.476562 
L 50.568173 176.411052 
L 49.301311 176.246837 
L 48.034449 176.000821 
L 46.767586 175.689911 
L 45.500724 175.331014 
L 44.233862 174.941034 
L 42.967 174.536879 
L 41.700138 174.135455 
L 40.433276 173.753668 
L 39.166413 173.408424 
L 37.899551 173.116629 
L 36.632689 172.89519 
L 35.365827 172.761012 
L 34.098965 172.731002 
L 32.832103 172.822066 
L 31.56524 173.05111 
L 30.298378 173.43504 
L 29.031516 173.990763 
L 27.764654 174.735185 
z
" clip-path="url(#p9345306942)" style="fill: #1f77b4"/>
   </g>
   <g id="FillBetweenPolyCollection_2">
    <path d="M 27.764654 133.954642 
L 27.764654 174.735185 
L 29.031516 173.990763 
L 30.298378 173.43504 
L 31.56524 173.05111 
L 32.832103 172.822066 
L 34.098965 172.731002 
L 35.365827 172.761012 
L 36.632689 172.89519 
L 37.899551 173.116629 
L 39.166413 173.408424 
L 40.433276 173.753668 
L 41.700138 174.135455 
L 42.967 174.536879 
L 44.233862 174.941034 
L 45.500724 175.331014 
L 46.767586 175.689911 
L 48.034449 176.000821 
L 49.301311 176.246837 
L 50.568173 176.411052 
L 51.835035 176.476562 
L 53.101897 176.426458 
L 54.36876 176.244198 
L 55.635622 175.934904 
L 56.902484 175.537291 
L 58.169346 175.09296 
L 59.436208 174.643514 
L 60.70307 174.230555 
L 61.969933 173.895685 
L 63.236795 173.680507 
L 64.503657 173.626624 
L 65.770519 173.775636 
L 67.037381 174.169147 
L 68.304243 174.831732 
L 69.571106 175.719858 
L 70.837968 176.772965 
L 72.10483 177.930493 
L 73.371692 179.131882 
L 74.638554 180.316573 
L 75.905416 181.424005 
L 77.172279 182.393619 
L 78.439141 183.164854 
L 79.706003 183.677152 
L 80.972865 183.875689 
L 82.239727 183.772353 
L 83.506589 183.422065 
L 84.773452 182.880467 
L 86.040314 182.203198 
L 87.307176 181.445899 
L 88.574038 180.66421 
L 89.8409 179.913771 
L 91.107762 179.250223 
L 92.374625 178.729205 
L 93.641487 178.405802 
L 94.908349 178.301722 
L 96.175211 178.386943 
L 97.442073 178.62699 
L 98.708935 178.987391 
L 99.975798 179.433673 
L 101.24266 179.931362 
L 102.509522 180.445985 
L 103.776384 180.943069 
L 105.043246 181.38814 
L 106.310108 181.746726 
L 107.576971 181.992728 
L 108.843833 182.13355 
L 110.110695 182.184971 
L 111.377557 182.162769 
L 112.644419 182.082724 
L 113.911282 181.960614 
L 115.178144 181.812219 
L 116.445006 181.653316 
L 117.711868 181.499685 
L 118.97873 181.367104 
L 120.245592 181.270542 
L 121.512455 181.215542 
L 122.779317 181.201567 
L 124.046179 181.227979 
L 125.313041 181.29414 
L 126.579903 181.399411 
L 127.846765 181.543154 
L 129.113628 181.72473 
L 130.38049 181.943502 
L 131.647352 182.198831 
L 132.914214 182.490052 
L 134.181076 182.814853 
L 135.447938 183.168375 
L 136.714801 183.545539 
L 137.981663 183.941265 
L 139.248525 184.350474 
L 140.515387 184.768088 
L 141.782249 185.189026 
L 143.049111 185.608209 
L 144.315974 186.020559 
L 145.582836 186.420996 
L 146.849698 186.804658 
L 148.11656 187.167556 
L 149.383422 187.505916 
L 150.650284 187.815966 
L 151.917147 188.093934 
L 153.184009 188.336048 
L 154.450871 188.538534 
L 155.717733 188.69762 
L 156.984595 188.809534 
L 158.251457 188.870504 
L 159.51832 188.877327 
L 160.785182 188.833441 
L 162.052044 188.746565 
L 163.318906 188.624491 
L 164.585768 188.475008 
L 165.85263 188.305909 
L 167.119493 188.124984 
L 168.386355 187.940023 
L 169.653217 187.758819 
L 170.920079 187.589162 
L 172.186941 187.438815 
L 173.453803 187.313939 
L 174.720666 187.218201 
L 175.987528 187.155057 
L 177.25439 187.127962 
L 178.521252 187.140371 
L 179.788114 187.19574 
L 181.054977 187.297524 
L 182.321839 187.449178 
L 183.588701 187.654157 
L 184.855563 187.915917 
L 186.122425 188.235405 
L 187.389287 188.60354 
L 188.65615 189.008733 
L 189.923012 189.439397 
L 191.189874 189.883942 
L 192.456736 190.33078 
L 193.723598 190.768322 
L 194.99046 191.184981 
L 196.257323 191.569166 
L 197.524185 191.909291 
L 198.791047 192.194666 
L 200.057909 192.425064 
L 201.324771 192.607009 
L 202.591633 192.747135 
L 203.858496 192.852078 
L 205.125358 192.928473 
L 206.39222 192.982955 
L 207.659082 193.022161 
L 208.925944 193.052724 
L 210.192806 193.081281 
L 211.459669 193.114376 
L 212.726531 193.153177 
L 213.993393 193.190513 
L 215.260255 193.218495 
L 216.527117 193.229236 
L 217.793979 193.214847 
L 219.060842 193.167441 
L 220.327704 193.079129 
L 221.594566 192.942023 
L 222.861428 192.748236 
L 224.12829 192.489879 
L 225.395152 192.163175 
L 226.662015 191.780792 
L 227.928877 191.359508 
L 229.195739 190.916102 
L 230.462601 190.467354 
L 231.729463 190.03004 
L 232.996325 189.620941 
L 234.263188 189.256835 
L 235.53005 188.954499 
L 236.796912 188.730714 
L 238.063774 188.601352 
L 239.330636 188.571745 
L 240.597499 188.640431 
L 241.864361 188.805831 
L 243.131223 189.066368 
L 244.398085 189.420464 
L 245.664947 189.86654 
L 246.931809 190.40302 
L 248.198672 191.028326 
L 249.465534 191.74088 
L 250.732396 192.538925 
L 251.999258 193.409971 
L 253.26612 194.324888 
L 254.532982 195.253115 
L 255.799845 196.164093 
L 257.066707 197.027261 
L 258.333569 197.812059 
L 259.600431 198.487926 
L 260.867293 199.024302 
L 262.134155 199.390626 
L 263.401018 199.556339 
L 264.66788 199.50307 
L 265.934742 199.261216 
L 267.201604 198.873365 
L 268.468466 198.382104 
L 269.735328 197.83002 
L 271.002191 197.259701 
L 272.269053 196.713734 
L 273.535915 196.234707 
L 274.802777 195.865206 
L 276.069639 195.64782 
L 277.336501 195.621191 
L 278.603364 195.778117 
L 279.870226 196.081812 
L 281.137088 196.495 
L 282.40395 196.980406 
L 283.670812 197.500753 
L 284.937674 198.018763 
L 286.204537 198.497161 
L 287.471399 198.898671 
L 288.738261 199.186014 
L 290.005123 199.322309 
L 291.271985 199.294207 
L 292.538847 199.124848 
L 293.80571 198.840507 
L 295.072572 198.46746 
L 296.339434 198.031983 
L 297.606296 197.560354 
L 298.873158 197.078847 
L 300.140021 196.613739 
L 301.406883 196.191306 
L 302.673745 195.837824 
L 303.940607 195.574408 
L 305.207469 195.40152 
L 306.474331 195.314462 
L 307.741194 195.308536 
L 309.008056 195.379043 
L 310.274918 195.521285 
L 311.54178 195.730563 
L 312.808642 196.002178 
L 314.075504 196.331432 
L 315.342367 196.713626 
L 316.609229 197.143929 
L 317.876091 197.615951 
L 319.142953 198.122304 
L 320.409815 198.65558 
L 321.676677 199.208372 
L 322.94354 199.773272 
L 324.210402 200.342874 
L 325.477264 200.90977 
L 326.744126 201.466552 
L 328.010988 202.005815 
L 329.27785 202.52017 
L 330.544713 203.003451 
L 331.811575 203.451382 
L 333.078437 203.85985 
L 334.345299 204.224742 
L 335.612161 204.541944 
L 336.879023 204.807344 
L 338.145886 205.016828 
L 339.412748 205.166283 
L 340.67961 205.251596 
L 341.946472 205.268653 
L 343.213334 205.216599 
L 344.480196 205.107601 
L 345.747059 204.957087 
L 347.013921 204.780483 
L 348.280783 204.593213 
L 349.547645 204.410705 
L 350.814507 204.248385 
L 352.081369 204.121677 
L 353.348232 204.046008 
L 354.615094 204.036805 
L 355.881956 204.108184 
L 357.148818 204.259054 
L 358.41568 204.478511 
L 359.682542 204.755487 
L 360.949405 205.078915 
L 362.216267 205.437725 
L 363.483129 205.820852 
L 364.749991 206.217226 
L 366.016853 206.61578 
L 367.283716 207.005446 
L 368.550578 207.375157 
L 369.81744 207.713845 
L 371.084302 208.010442 
L 372.351164 208.25388 
L 373.618026 208.433091 
L 374.884889 208.537008 
L 376.151751 208.554562 
L 377.418613 208.474687 
L 378.685475 208.286314 
L 379.952337 207.978376 
L 381.219199 207.539804 
L 381.219199 61.001321 
L 381.219199 61.001321 
L 379.952337 60.580275 
L 378.685475 60.369084 
L 377.418613 60.349375 
L 376.151751 60.502772 
L 374.884889 60.810901 
L 373.618026 61.255388 
L 372.351164 61.817858 
L 371.084302 62.479936 
L 369.81744 63.223247 
L 368.550578 64.029419 
L 367.283716 64.880075 
L 366.016853 65.756841 
L 364.749991 66.641343 
L 363.483129 67.515207 
L 362.216267 68.360057 
L 360.949405 69.157519 
L 359.682542 69.889219 
L 358.41568 70.536782 
L 357.148818 71.081833 
L 355.881956 71.505999 
L 354.615094 71.79115 
L 353.348232 71.933923 
L 352.081369 71.953842 
L 350.814507 71.872398 
L 349.547645 71.711083 
L 348.280783 71.491388 
L 347.013921 71.234805 
L 345.747059 70.962825 
L 344.480196 70.696941 
L 343.213334 70.458644 
L 341.946472 70.269425 
L 340.67961 70.146946 
L 339.412748 70.093548 
L 338.145886 70.10774 
L 336.879023 70.188033 
L 335.612161 70.332937 
L 334.345299 70.540962 
L 333.078437 70.810618 
L 331.811575 71.140415 
L 330.544713 71.528864 
L 329.27785 71.974475 
L 328.010988 72.475343 
L 326.744126 73.024751 
L 325.477264 73.612875 
L 324.210402 74.22984 
L 322.94354 74.86577 
L 321.676677 75.510789 
L 320.409815 76.155023 
L 319.142953 76.788595 
L 317.876091 77.40163 
L 316.609229 77.984253 
L 315.342367 78.526663 
L 314.075504 79.023546 
L 312.808642 79.476545 
L 311.54178 79.8879 
L 310.274918 80.259851 
L 309.008056 80.594638 
L 307.741194 80.894502 
L 306.474331 81.161683 
L 305.207469 81.398421 
L 303.940607 81.606957 
L 302.673745 81.78953 
L 301.406883 81.949159 
L 300.140021 82.091969 
L 298.873158 82.224861 
L 297.606296 82.354739 
L 296.339434 82.488505 
L 295.072572 82.633061 
L 293.80571 82.79531 
L 292.538847 82.982154 
L 291.271985 83.200495 
L 290.005123 83.457237 
L 288.738261 83.758406 
L 287.471399 84.099867 
L 286.204537 84.470923 
L 284.937674 84.860771 
L 283.670812 85.258607 
L 282.40395 85.653625 
L 281.137088 86.035023 
L 279.870226 86.391995 
L 278.603364 86.713737 
L 277.336501 86.989446 
L 276.069639 87.208397 
L 274.802777 87.364725 
L 273.535915 87.460093 
L 272.269053 87.496815 
L 271.002191 87.4772 
L 269.735328 87.403562 
L 268.468466 87.27821 
L 267.201604 87.103457 
L 265.934742 86.881615 
L 264.66788 86.614995 
L 263.401018 86.305908 
L 262.134155 85.96029 
L 260.867293 85.598567 
L 259.600431 85.24479 
L 258.333569 84.923009 
L 257.066707 84.657275 
L 255.799845 84.471637 
L 254.532982 84.390146 
L 253.26612 84.436853 
L 251.999258 84.635807 
L 250.732396 85.01106 
L 249.465534 85.583477 
L 248.198672 86.336914 
L 246.931809 87.231346 
L 245.664947 88.226353 
L 244.398085 89.281514 
L 243.131223 90.356406 
L 241.864361 91.410608 
L 240.597499 92.4037 
L 239.330636 93.295259 
L 238.063774 94.044864 
L 236.796912 94.612555 
L 235.53005 94.986085 
L 234.263188 95.19616 
L 232.996325 95.277181 
L 231.729463 95.263548 
L 230.462601 95.189663 
L 229.195739 95.089926 
L 227.928877 94.998738 
L 226.662015 94.9505 
L 225.395152 94.979613 
L 224.12829 95.120477 
L 222.861428 95.395562 
L 221.594566 95.779602 
L 220.327704 96.235402 
L 219.060842 96.725764 
L 217.793979 97.213493 
L 216.527117 97.661391 
L 215.260255 98.032263 
L 213.993393 98.288911 
L 212.726531 98.394139 
L 211.459669 98.31075 
L 210.192806 98.005852 
L 208.925944 97.496584 
L 207.659082 96.832362 
L 206.39222 96.063142 
L 205.125358 95.238878 
L 203.858496 94.409528 
L 202.591633 93.625044 
L 201.324771 92.935384 
L 200.057909 92.390501 
L 198.791047 92.040352 
L 197.524185 91.934361 
L 196.257323 92.090183 
L 194.99046 92.476223 
L 193.723598 93.056651 
L 192.456736 93.795638 
L 191.189874 94.657354 
L 189.923012 95.605967 
L 188.65615 96.605649 
L 187.389287 97.62057 
L 186.122425 98.614898 
L 184.855563 99.552805 
L 183.588701 100.404655 
L 182.321839 101.165593 
L 181.054977 101.836956 
L 179.788114 102.420083 
L 178.521252 102.916314 
L 177.25439 103.326988 
L 175.987528 103.653443 
L 174.720666 103.897018 
L 173.453803 104.059051 
L 172.186941 104.140883 
L 170.920079 104.14468 
L 169.653217 104.082252 
L 168.386355 103.971629 
L 167.119493 103.830943 
L 165.85263 103.678328 
L 164.585768 103.531917 
L 163.318906 103.409842 
L 162.052044 103.330238 
L 160.785182 103.311237 
L 159.51832 103.370972 
L 158.251457 103.527354 
L 156.984595 103.785017 
L 155.717733 104.12801 
L 154.450871 104.538613 
L 153.184009 104.999103 
L 151.917147 105.491761 
L 150.650284 105.998864 
L 149.383422 106.502694 
L 148.11656 106.985528 
L 146.849698 107.429645 
L 145.582836 107.817325 
L 144.315974 108.135446 
L 143.049111 108.389285 
L 141.782249 108.588717 
L 140.515387 108.743618 
L 139.248525 108.863864 
L 137.981663 108.959331 
L 136.714801 109.039894 
L 135.447938 109.11543 
L 134.181076 109.195813 
L 132.914214 109.29092 
L 131.647352 109.410323 
L 130.38049 109.560059 
L 129.113628 109.743882 
L 127.846765 109.965513 
L 126.579903 110.228668 
L 125.313041 110.537067 
L 124.046179 110.894426 
L 122.779317 111.304465 
L 121.512455 111.770901 
L 120.245592 112.297454 
L 118.97873 112.887734 
L 117.711868 113.538998 
L 116.445006 114.238653 
L 115.178144 114.973257 
L 113.911282 115.729367 
L 112.644419 116.493543 
L 111.377557 117.252342 
L 110.110695 117.992322 
L 108.843833 118.700043 
L 107.576971 119.362061 
L 106.310108 119.964936 
L 105.043246 120.496523 
L 103.776384 120.949866 
L 102.509522 121.319306 
L 101.24266 121.599185 
L 99.975798 121.783844 
L 98.708935 121.867624 
L 97.442073 121.844868 
L 96.175211 121.709916 
L 94.908349 121.457109 
L 93.641487 121.08079 
L 92.374625 120.577615 
L 91.107762 119.971176 
L 89.8409 119.302438 
L 88.574038 118.612657 
L 87.307176 117.943087 
L 86.040314 117.334985 
L 84.773452 116.829605 
L 83.506589 116.468203 
L 82.239727 116.292034 
L 80.972865 116.342354 
L 79.706003 116.65983 
L 78.439141 117.249816 
L 77.172279 118.062934 
L 75.905416 119.045096 
L 74.638554 120.142217 
L 73.371692 121.300208 
L 72.10483 122.464984 
L 70.837968 123.582457 
L 69.571106 124.59854 
L 68.304243 125.459147 
L 67.037381 126.110191 
L 65.770519 126.512997 
L 64.503657 126.690542 
L 63.236795 126.681217 
L 61.969933 126.523412 
L 60.70307 126.255516 
L 59.436208 125.915918 
L 58.169346 125.54301 
L 56.902484 125.175181 
L 55.635622 124.850821 
L 54.36876 124.608319 
L 53.101897 124.483634 
L 51.835035 124.484447 
L 50.568173 124.600201 
L 49.301311 124.820032 
L 48.034449 125.133077 
L 46.767586 125.528472 
L 45.500724 125.995356 
L 44.233862 126.522864 
L 42.967 127.100134 
L 41.700138 127.716303 
L 40.433276 128.360508 
L 39.166413 129.021885 
L 37.899551 129.689571 
L 36.632689 130.352705 
L 35.365827 131.000421 
L 34.098965 131.621858 
L 32.832103 132.206152 
L 31.56524 132.742441 
L 30.298378 133.219861 
L 29.031516 133.627549 
L 27.764654 133.954642 
z
" clip-path="url(#p9345306942)" style="fill: #aec7e8"/>
   </g>
   <g id="matplotlib.axis_1">
    <g id="xtick_1">
     <g id="line2d_1">
      <defs>
       <path id="mdc90efa954" d="M 0 0 
L 0 3.5 
" style="stroke: #000000; stroke-width: 0.8"/>
      </defs>
      <g>
       <use xlink:href="#mdc90efa954" x="27.764654" y="314.449375" style="stroke: #000000; stroke-width: 0.8"/>
      </g>
     </g>
     <g id="text_1">
      <!-- 1975 -->
      <g transform="translate(12.109973 340.501483) rotate(-45) scale(0.1 -0.1)">
       <defs>
        <path id="TimesNewRomanPSMT-31" d="M 750 3822 
L 1781 4325 
L 1884 4325 
L 1884 747 
Q 1884 391 1914 303 
Q 1944 216 2037 169 
Q 2131 122 2419 116 
L 2419 0 
L 825 0 
L 825 116 
Q 1125 122 1212 167 
Q 1300 213 1334 289 
Q 1369 366 1369 747 
L 1369 3034 
Q 1369 3497 1338 3628 
Q 1316 3728 1258 3775 
Q 1200 3822 1119 3822 
Q 1003 3822 797 3725 
L 750 3822 
z
" transform="scale(0.015625)"/>
        <path id="TimesNewRomanPSMT-39" d="M 338 -88 
L 338 28 
Q 744 34 1094 217 
Q 1444 400 1770 856 
Q 2097 1313 2225 1859 
Q 1734 1544 1338 1544 
Q 891 1544 572 1889 
Q 253 2234 253 2806 
Q 253 3363 572 3797 
Q 956 4325 1575 4325 
Q 2097 4325 2469 3894 
Q 2925 3359 2925 2575 
Q 2925 1869 2578 1258 
Q 2231 647 1613 244 
Q 1109 -88 516 -88 
L 338 -88 
z
M 2275 2091 
Q 2331 2497 2331 2741 
Q 2331 3044 2228 3395 
Q 2125 3747 1936 3934 
Q 1747 4122 1506 4122 
Q 1228 4122 1018 3872 
Q 809 3622 809 3128 
Q 809 2469 1088 2097 
Q 1291 1828 1588 1828 
Q 1731 1828 1928 1897 
Q 2125 1966 2275 2091 
z
" transform="scale(0.015625)"/>
        <path id="TimesNewRomanPSMT-37" d="M 644 4238 
L 2916 4238 
L 2916 4119 
L 1503 -88 
L 1153 -88 
L 2419 3728 
L 1253 3728 
Q 900 3728 750 3644 
Q 488 3500 328 3200 
L 238 3234 
L 644 4238 
z
" transform="scale(0.015625)"/>
        <path id="TimesNewRomanPSMT-35" d="M 2778 4238 
L 2534 3706 
L 1259 3706 
L 981 3138 
Q 1809 3016 2294 2522 
Q 2709 2097 2709 1522 
Q 2709 1188 2573 903 
Q 2438 619 2231 419 
Q 2025 219 1772 97 
Q 1413 -75 1034 -75 
Q 653 -75 479 54 
Q 306 184 306 341 
Q 306 428 378 495 
Q 450 563 559 563 
Q 641 563 702 538 
Q 763 513 909 409 
Q 1144 247 1384 247 
Q 1750 247 2026 523 
Q 2303 800 2303 1197 
Q 2303 1581 2056 1914 
Q 1809 2247 1375 2428 
Q 1034 2569 447 2591 
L 1259 4238 
L 2778 4238 
z
" transform="scale(0.015625)"/>
       </defs>
       <use xlink:href="#TimesNewRomanPSMT-31"/>
       <use xlink:href="#TimesNewRomanPSMT-39" transform="translate(50 0)"/>
       <use xlink:href="#TimesNewRomanPSMT-37" transform="translate(100 0)"/>
       <use xlink:href="#TimesNewRomanPSMT-35" transform="translate(150 0)"/>
      </g>
     </g>
    </g>
    <g id="xtick_2">
     <g id="line2d_2">
      <g>
       <use xlink:href="#mdc90efa954" x="53.946472" y="314.449375" style="stroke: #000000; stroke-width: 0.8"/>
      </g>
     </g>
     <g id="text_2">
      <!-- 1977 -->
      <g transform="translate(38.291791 340.501483) rotate(-45) scale(0.1 -0.1)">
       <use xlink:href="#TimesNewRomanPSMT-31"/>
       <use xlink:href="#TimesNewRomanPSMT-39" transform="translate(50 0)"/>
       <use xlink:href="#TimesNewRomanPSMT-37" transform="translate(100 0)"/>
       <use xlink:href="#TimesNewRomanPSMT-37" transform="translate(150 0)"/>
      </g>
     </g>
    </g>
    <g id="xtick_3">
     <g id="line2d_3">
      <g>
       <use xlink:href="#mdc90efa954" x="80.12829" y="314.449375" style="stroke: #000000; stroke-width: 0.8"/>
      </g>
     </g>
     <g id="text_3">
      <!-- 1979 -->
      <g transform="translate(64.473609 340.501483) rotate(-45) scale(0.1 -0.1)">
       <use xlink:href="#TimesNewRomanPSMT-31"/>
       <use xlink:href="#TimesNewRomanPSMT-39" transform="translate(50 0)"/>
       <use xlink:href="#TimesNewRomanPSMT-37" transform="translate(100 0)"/>
       <use xlink:href="#TimesNewRomanPSMT-39" transform="translate(150 0)"/>
      </g>
     </g>
    </g>
    <g id="xtick_4">
     <g id="line2d_4">
      <g>
       <use xlink:href="#mdc90efa954" x="106.310108" y="314.449375" style="stroke: #000000; stroke-width: 0.8"/>
      </g>
     </g>
     <g id="text_4">
      <!-- 1981 -->
      <g transform="translate(90.655427 340.501483) rotate(-45) scale(0.1 -0.1)">
       <defs>
        <path id="TimesNewRomanPSMT-38" d="M 1228 2134 
Q 725 2547 579 2797 
Q 434 3047 434 3316 
Q 434 3728 753 4026 
Q 1072 4325 1600 4325 
Q 2113 4325 2425 4047 
Q 2738 3769 2738 3413 
Q 2738 3175 2569 2928 
Q 2400 2681 1866 2347 
Q 2416 1922 2594 1678 
Q 2831 1359 2831 1006 
Q 2831 559 2490 242 
Q 2150 -75 1597 -75 
Q 994 -75 656 303 
Q 388 606 388 966 
Q 388 1247 577 1523 
Q 766 1800 1228 2134 
z
M 1719 2469 
Q 2094 2806 2194 3001 
Q 2294 3197 2294 3444 
Q 2294 3772 2109 3958 
Q 1925 4144 1606 4144 
Q 1288 4144 1088 3959 
Q 888 3775 888 3528 
Q 888 3366 970 3203 
Q 1053 3041 1206 2894 
L 1719 2469 
z
M 1375 2016 
Q 1116 1797 991 1539 
Q 866 1281 866 981 
Q 866 578 1086 336 
Q 1306 94 1647 94 
Q 1984 94 2187 284 
Q 2391 475 2391 747 
Q 2391 972 2272 1150 
Q 2050 1481 1375 2016 
z
" transform="scale(0.015625)"/>
       </defs>
       <use xlink:href="#TimesNewRomanPSMT-31"/>
       <use xlink:href="#TimesNewRomanPSMT-39" transform="translate(50 0)"/>
       <use xlink:href="#TimesNewRomanPSMT-38" transform="translate(100 0)"/>
       <use xlink:href="#TimesNewRomanPSMT-31" transform="translate(150 0)"/>
      </g>
     </g>
    </g>
    <g id="xtick_5">
     <g id="line2d_5">
      <g>
       <use xlink:href="#mdc90efa954" x="132.491927" y="314.449375" style="stroke: #000000; stroke-width: 0.8"/>
      </g>
     </g>
     <g id="text_5">
      <!-- 1983 -->
      <g transform="translate(116.837245 340.501483) rotate(-45) scale(0.1 -0.1)">
       <defs>
        <path id="TimesNewRomanPSMT-33" d="M 325 3431 
Q 506 3859 782 4092 
Q 1059 4325 1472 4325 
Q 1981 4325 2253 3994 
Q 2459 3747 2459 3466 
Q 2459 3003 1878 2509 
Q 2269 2356 2469 2072 
Q 2669 1788 2669 1403 
Q 2669 853 2319 450 
Q 1863 -75 997 -75 
Q 569 -75 414 31 
Q 259 138 259 259 
Q 259 350 332 419 
Q 406 488 509 488 
Q 588 488 669 463 
Q 722 447 909 348 
Q 1097 250 1169 231 
Q 1284 197 1416 197 
Q 1734 197 1970 444 
Q 2206 691 2206 1028 
Q 2206 1275 2097 1509 
Q 2016 1684 1919 1775 
Q 1784 1900 1550 2001 
Q 1316 2103 1072 2103 
L 972 2103 
L 972 2197 
Q 1219 2228 1467 2375 
Q 1716 2522 1828 2728 
Q 1941 2934 1941 3181 
Q 1941 3503 1739 3701 
Q 1538 3900 1238 3900 
Q 753 3900 428 3381 
L 325 3431 
z
" transform="scale(0.015625)"/>
       </defs>
       <use xlink:href="#TimesNewRomanPSMT-31"/>
       <use xlink:href="#TimesNewRomanPSMT-39" transform="translate(50 0)"/>
       <use xlink:href="#TimesNewRomanPSMT-38" transform="translate(100 0)"/>
       <use xlink:href="#TimesNewRomanPSMT-33" transform="translate(150 0)"/>
      </g>
     </g>
    </g>
    <g id="xtick_6">
     <g id="line2d_6">
      <g>
       <use xlink:href="#mdc90efa954" x="158.673745" y="314.449375" style="stroke: #000000; stroke-width: 0.8"/>
      </g>
     </g>
     <g id="text_6">
      <!-- 1985 -->
      <g transform="translate(143.019064 340.501483) rotate(-45) scale(0.1 -0.1)">
       <use xlink:href="#TimesNewRomanPSMT-31"/>
       <use xlink:href="#TimesNewRomanPSMT-39" transform="translate(50 0)"/>
       <use xlink:href="#TimesNewRomanPSMT-38" transform="translate(100 0)"/>
       <use xlink:href="#TimesNewRomanPSMT-35" transform="translate(150 0)"/>
      </g>
     </g>
    </g>
    <g id="xtick_7">
     <g id="line2d_7">
      <g>
       <use xlink:href="#mdc90efa954" x="184.855563" y="314.449375" style="stroke: #000000; stroke-width: 0.8"/>
      </g>
     </g>
     <g id="text_7">
      <!-- 1987 -->
      <g transform="translate(169.200882 340.501483) rotate(-45) scale(0.1 -0.1)">
       <use xlink:href="#TimesNewRomanPSMT-31"/>
       <use xlink:href="#TimesNewRomanPSMT-39" transform="translate(50 0)"/>
       <use xlink:href="#TimesNewRomanPSMT-38" transform="translate(100 0)"/>
       <use xlink:href="#TimesNewRomanPSMT-37" transform="translate(150 0)"/>
      </g>
     </g>
    </g>
    <g id="xtick_8">
     <g id="line2d_8">
      <g>
       <use xlink:href="#mdc90efa954" x="211.037381" y="314.449375" style="stroke: #000000; stroke-width: 0.8"/>
      </g>
     </g>
     <g id="text_8">
      <!-- 1989 -->
      <g transform="translate(195.3827 340.501483) rotate(-45) scale(0.1 -0.1)">
       <use xlink:href="#TimesNewRomanPSMT-31"/>
       <use xlink:href="#TimesNewRomanPSMT-39" transform="translate(50 0)"/>
       <use xlink:href="#TimesNewRomanPSMT-38" transform="translate(100 0)"/>
       <use xlink:href="#TimesNewRomanPSMT-39" transform="translate(150 0)"/>
      </g>
     </g>
    </g>
    <g id="xtick_9">
     <g id="line2d_9">
      <g>
       <use xlink:href="#mdc90efa954" x="237.219199" y="314.449375" style="stroke: #000000; stroke-width: 0.8"/>
      </g>
     </g>
     <g id="text_9">
      <!-- 1991 -->
      <g transform="translate(221.564518 340.501483) rotate(-45) scale(0.1 -0.1)">
       <use xlink:href="#TimesNewRomanPSMT-31"/>
       <use xlink:href="#TimesNewRomanPSMT-39" transform="translate(50 0)"/>
       <use xlink:href="#TimesNewRomanPSMT-39" transform="translate(100 0)"/>
       <use xlink:href="#TimesNewRomanPSMT-31" transform="translate(150 0)"/>
      </g>
     </g>
    </g>
    <g id="xtick_10">
     <g id="line2d_10">
      <g>
       <use xlink:href="#mdc90efa954" x="263.401018" y="314.449375" style="stroke: #000000; stroke-width: 0.8"/>
      </g>
     </g>
     <g id="text_10">
      <!-- 1993 -->
      <g transform="translate(247.746336 340.501483) rotate(-45) scale(0.1 -0.1)">
       <use xlink:href="#TimesNewRomanPSMT-31"/>
       <use xlink:href="#TimesNewRomanPSMT-39" transform="translate(50 0)"/>
       <use xlink:href="#TimesNewRomanPSMT-39" transform="translate(100 0)"/>
       <use xlink:href="#TimesNewRomanPSMT-33" transform="translate(150 0)"/>
      </g>
     </g>
    </g>
    <g id="xtick_11">
     <g id="line2d_11">
      <g>
       <use xlink:href="#mdc90efa954" x="289.582836" y="314.449375" style="stroke: #000000; stroke-width: 0.8"/>
      </g>
     </g>
     <g id="text_11">
      <!-- 1995 -->
      <g transform="translate(273.928155 340.501483) rotate(-45) scale(0.1 -0.1)">
       <use xlink:href="#TimesNewRomanPSMT-31"/>
       <use xlink:href="#TimesNewRomanPSMT-39" transform="translate(50 0)"/>
       <use xlink:href="#TimesNewRomanPSMT-39" transform="translate(100 0)"/>
       <use xlink:href="#TimesNewRomanPSMT-35" transform="translate(150 0)"/>
      </g>
     </g>
    </g>
    <g id="xtick_12">
     <g id="line2d_12">
      <g>
       <use xlink:href="#mdc90efa954" x="315.764654" y="314.449375" style="stroke: #000000; stroke-width: 0.8"/>
      </g>
     </g>
     <g id="text_12">
      <!-- 1997 -->
      <g transform="translate(300.109973 340.501483) rotate(-45) scale(0.1 -0.1)">
       <use xlink:href="#TimesNewRomanPSMT-31"/>
       <use xlink:href="#TimesNewRomanPSMT-39" transform="translate(50 0)"/>
       <use xlink:href="#TimesNewRomanPSMT-39" transform="translate(100 0)"/>
       <use xlink:href="#TimesNewRomanPSMT-37" transform="translate(150 0)"/>
      </g>
     </g>
    </g>
    <g id="xtick_13">
     <g id="line2d_13">
      <g>
       <use xlink:href="#mdc90efa954" x="341.946472" y="314.449375" style="stroke: #000000; stroke-width: 0.8"/>
      </g>
     </g>
     <g id="text_13">
      <!-- 1999 -->
      <g transform="translate(326.291791 340.501483) rotate(-45) scale(0.1 -0.1)">
       <use xlink:href="#TimesNewRomanPSMT-31"/>
       <use xlink:href="#TimesNewRomanPSMT-39" transform="translate(50 0)"/>
       <use xlink:href="#TimesNewRomanPSMT-39" transform="translate(100 0)"/>
       <use xlink:href="#TimesNewRomanPSMT-39" transform="translate(150 0)"/>
      </g>
     </g>
    </g>
    <g id="xtick_14">
     <g id="line2d_14">
      <g>
       <use xlink:href="#mdc90efa954" x="368.12829" y="314.449375" style="stroke: #000000; stroke-width: 0.8"/>
      </g>
     </g>
     <g id="text_14">
      <!-- 2001 -->
      <g transform="translate(352.473609 340.501483) rotate(-45) scale(0.1 -0.1)">
       <defs>
        <path id="TimesNewRomanPSMT-32" d="M 2934 816 
L 2638 0 
L 138 0 
L 138 116 
Q 1241 1122 1691 1759 
Q 2141 2397 2141 2925 
Q 2141 3328 1894 3587 
Q 1647 3847 1303 3847 
Q 991 3847 742 3664 
Q 494 3481 375 3128 
L 259 3128 
Q 338 3706 661 4015 
Q 984 4325 1469 4325 
Q 1984 4325 2329 3994 
Q 2675 3663 2675 3213 
Q 2675 2891 2525 2569 
Q 2294 2063 1775 1497 
Q 997 647 803 472 
L 1909 472 
Q 2247 472 2383 497 
Q 2519 522 2628 598 
Q 2738 675 2819 816 
L 2934 816 
z
" transform="scale(0.015625)"/>
        <path id="TimesNewRomanPSMT-30" d="M 231 2094 
Q 231 2819 450 3342 
Q 669 3866 1031 4122 
Q 1313 4325 1613 4325 
Q 2100 4325 2488 3828 
Q 2972 3213 2972 2159 
Q 2972 1422 2759 906 
Q 2547 391 2217 158 
Q 1888 -75 1581 -75 
Q 975 -75 572 641 
Q 231 1244 231 2094 
z
M 844 2016 
Q 844 1141 1059 588 
Q 1238 122 1591 122 
Q 1759 122 1940 273 
Q 2122 425 2216 781 
Q 2359 1319 2359 2297 
Q 2359 3022 2209 3506 
Q 2097 3866 1919 4016 
Q 1791 4119 1609 4119 
Q 1397 4119 1231 3928 
Q 1006 3669 925 3112 
Q 844 2556 844 2016 
z
" transform="scale(0.015625)"/>
       </defs>
       <use xlink:href="#TimesNewRomanPSMT-32"/>
       <use xlink:href="#TimesNewRomanPSMT-30" transform="translate(50 0)"/>
       <use xlink:href="#TimesNewRomanPSMT-30" transform="translate(100 0)"/>
       <use xlink:href="#TimesNewRomanPSMT-31" transform="translate(150 0)"/>
      </g>
     </g>
    </g>
    <g id="text_15">
     <!-- Year -->
     <g transform="translate(193.434114 354.346529) scale(0.12 -0.12)">
      <defs>
       <path id="TimesNewRomanPSMT-59" d="M 3050 4238 
L 4528 4238 
L 4528 4122 
L 4447 4122 
Q 4366 4122 4209 4050 
Q 4053 3978 3925 3843 
Q 3797 3709 3609 3406 
L 2588 1797 
L 2588 734 
Q 2588 344 2675 247 
Q 2794 116 3050 116 
L 3188 116 
L 3188 0 
L 1388 0 
L 1388 116 
L 1538 116 
Q 1806 116 1919 278 
Q 1988 378 1988 734 
L 1988 1738 
L 825 3513 
Q 619 3825 545 3903 
Q 472 3981 241 4091 
Q 178 4122 59 4122 
L 59 4238 
L 1872 4238 
L 1872 4122 
L 1778 4122 
Q 1631 4122 1507 4053 
Q 1384 3984 1384 3847 
Q 1384 3734 1575 3441 
L 2459 2075 
L 3291 3381 
Q 3478 3675 3478 3819 
Q 3478 3906 3433 3975 
Q 3388 4044 3303 4083 
Q 3219 4122 3050 4122 
L 3050 4238 
z
" transform="scale(0.015625)"/>
       <path id="TimesNewRomanPSMT-65" d="M 681 1784 
Q 678 1147 991 784 
Q 1303 422 1725 422 
Q 2006 422 2214 576 
Q 2422 731 2563 1106 
L 2659 1044 
Q 2594 616 2278 264 
Q 1963 -88 1488 -88 
Q 972 -88 605 314 
Q 238 716 238 1394 
Q 238 2128 614 2539 
Q 991 2950 1559 2950 
Q 2041 2950 2350 2633 
Q 2659 2316 2659 1784 
L 681 1784 
z
M 681 1966 
L 2006 1966 
Q 1991 2241 1941 2353 
Q 1863 2528 1708 2628 
Q 1553 2728 1384 2728 
Q 1125 2728 920 2526 
Q 716 2325 681 1966 
z
" transform="scale(0.015625)"/>
       <path id="TimesNewRomanPSMT-61" d="M 1822 413 
Q 1381 72 1269 19 
Q 1100 -59 909 -59 
Q 613 -59 420 144 
Q 228 347 228 678 
Q 228 888 322 1041 
Q 450 1253 767 1440 
Q 1084 1628 1822 1897 
L 1822 2009 
Q 1822 2438 1686 2597 
Q 1550 2756 1291 2756 
Q 1094 2756 978 2650 
Q 859 2544 859 2406 
L 866 2225 
Q 866 2081 792 2003 
Q 719 1925 600 1925 
Q 484 1925 411 2006 
Q 338 2088 338 2228 
Q 338 2497 613 2722 
Q 888 2947 1384 2947 
Q 1766 2947 2009 2819 
Q 2194 2722 2281 2516 
Q 2338 2381 2338 1966 
L 2338 994 
Q 2338 584 2353 492 
Q 2369 400 2405 369 
Q 2441 338 2488 338 
Q 2538 338 2575 359 
Q 2641 400 2828 588 
L 2828 413 
Q 2478 -56 2159 -56 
Q 2006 -56 1915 50 
Q 1825 156 1822 413 
z
M 1822 616 
L 1822 1706 
Q 1350 1519 1213 1441 
Q 966 1303 859 1153 
Q 753 1003 753 825 
Q 753 600 887 451 
Q 1022 303 1197 303 
Q 1434 303 1822 616 
z
" transform="scale(0.015625)"/>
       <path id="TimesNewRomanPSMT-72" d="M 1038 2947 
L 1038 2303 
Q 1397 2947 1775 2947 
Q 1947 2947 2059 2842 
Q 2172 2738 2172 2600 
Q 2172 2478 2090 2393 
Q 2009 2309 1897 2309 
Q 1788 2309 1652 2417 
Q 1516 2525 1450 2525 
Q 1394 2525 1328 2463 
Q 1188 2334 1038 2041 
L 1038 669 
Q 1038 431 1097 309 
Q 1138 225 1241 169 
Q 1344 113 1538 113 
L 1538 0 
L 72 0 
L 72 113 
Q 291 113 397 181 
Q 475 231 506 341 
Q 522 394 522 644 
L 522 1753 
Q 522 2253 501 2348 
Q 481 2444 426 2487 
Q 372 2531 291 2531 
Q 194 2531 72 2484 
L 41 2597 
L 906 2947 
L 1038 2947 
z
" transform="scale(0.015625)"/>
      </defs>
      <use xlink:href="#TimesNewRomanPSMT-59"/>
      <use xlink:href="#TimesNewRomanPSMT-65" transform="translate(62.216797 0)"/>
      <use xlink:href="#TimesNewRomanPSMT-61" transform="translate(106.601562 0)"/>
      <use xlink:href="#TimesNewRomanPSMT-72" transform="translate(150.986328 0)"/>
     </g>
    </g>
   </g>
   <g id="patch_3">
    <path d="M 10.091927 314.449375 
L 10.091927 37.249375 
" style="fill: none; stroke: #000000; stroke-width: 0.8; stroke-linejoin: miter; stroke-linecap: square"/>
   </g>
   <g id="patch_4">
    <path d="M 398.891927 314.449375 
L 398.891927 37.249375 
" style="fill: none; stroke: #000000; stroke-width: 0.8; stroke-linejoin: miter; stroke-linecap: square"/>
   </g>
   <g id="patch_5">
    <path d="M 10.091927 314.449375 
L 398.891927 314.449375 
" style="fill: none; stroke: #000000; stroke-width: 0.8; stroke-linejoin: miter; stroke-linecap: square"/>
   </g>
   <g id="patch_6">
    <path d="M 10.091927 37.249375 
L 398.891927 37.249375 
" style="fill: none; stroke: #000000; stroke-width: 0.8; stroke-linejoin: miter; stroke-linecap: square"/>
   </g>
   <g id="text_16">
    <!-- Average Treatment Cost from 1975 to 2002 ($)  -->
    <g transform="translate(70.85427 17.249375) scale(0.14 -0.14)">
     <defs>
      <path id="TimesNewRomanPSMT-41" d="M 2928 1419 
L 1288 1419 
L 1000 750 
Q 894 503 894 381 
Q 894 284 986 211 
Q 1078 138 1384 116 
L 1384 0 
L 50 0 
L 50 116 
Q 316 163 394 238 
Q 553 388 747 847 
L 2238 4334 
L 2347 4334 
L 3822 809 
Q 4000 384 4145 257 
Q 4291 131 4550 116 
L 4550 0 
L 2878 0 
L 2878 116 
Q 3131 128 3220 200 
Q 3309 272 3309 375 
Q 3309 513 3184 809 
L 2928 1419 
z
M 2841 1650 
L 2122 3363 
L 1384 1650 
L 2841 1650 
z
" transform="scale(0.015625)"/>
      <path id="TimesNewRomanPSMT-76" d="M 53 2863 
L 1400 2863 
L 1400 2747 
L 1313 2747 
Q 1191 2747 1127 2687 
Q 1063 2628 1063 2528 
Q 1063 2419 1128 2269 
L 1794 688 
L 2463 2328 
Q 2534 2503 2534 2594 
Q 2534 2638 2509 2666 
Q 2475 2713 2422 2730 
Q 2369 2747 2206 2747 
L 2206 2863 
L 3141 2863 
L 3141 2747 
Q 2978 2734 2916 2681 
Q 2806 2588 2719 2369 
L 1703 -88 
L 1575 -88 
L 553 2328 
Q 484 2497 421 2570 
Q 359 2644 263 2694 
Q 209 2722 53 2747 
L 53 2863 
z
" transform="scale(0.015625)"/>
      <path id="TimesNewRomanPSMT-67" d="M 966 1044 
Q 703 1172 562 1401 
Q 422 1631 422 1909 
Q 422 2334 742 2640 
Q 1063 2947 1563 2947 
Q 1972 2947 2272 2747 
L 2878 2747 
Q 3013 2747 3034 2739 
Q 3056 2731 3066 2713 
Q 3084 2684 3084 2613 
Q 3084 2531 3069 2500 
Q 3059 2484 3036 2475 
Q 3013 2466 2878 2466 
L 2506 2466 
Q 2681 2241 2681 1891 
Q 2681 1491 2375 1206 
Q 2069 922 1553 922 
Q 1341 922 1119 984 
Q 981 866 932 777 
Q 884 688 884 625 
Q 884 572 936 522 
Q 988 472 1138 450 
Q 1225 438 1575 428 
Q 2219 413 2409 384 
Q 2700 344 2873 169 
Q 3047 -6 3047 -263 
Q 3047 -616 2716 -925 
Q 2228 -1381 1444 -1381 
Q 841 -1381 425 -1109 
Q 191 -953 191 -784 
Q 191 -709 225 -634 
Q 278 -519 444 -313 
Q 466 -284 763 25 
Q 600 122 533 198 
Q 466 275 466 372 
Q 466 481 555 628 
Q 644 775 966 1044 
z
M 1509 2797 
Q 1278 2797 1122 2612 
Q 966 2428 966 2047 
Q 966 1553 1178 1281 
Q 1341 1075 1591 1075 
Q 1828 1075 1981 1253 
Q 2134 1431 2134 1813 
Q 2134 2309 1919 2591 
Q 1759 2797 1509 2797 
z
M 934 0 
Q 788 -159 713 -296 
Q 638 -434 638 -550 
Q 638 -700 819 -813 
Q 1131 -1006 1722 -1006 
Q 2284 -1006 2551 -807 
Q 2819 -609 2819 -384 
Q 2819 -222 2659 -153 
Q 2497 -84 2016 -72 
Q 1313 -53 934 0 
z
" transform="scale(0.015625)"/>
      <path id="TimesNewRomanPSMT-20" transform="scale(0.015625)"/>
      <path id="TimesNewRomanPSMT-54" d="M 3703 4238 
L 3750 3244 
L 3631 3244 
Q 3597 3506 3538 3619 
Q 3441 3800 3280 3886 
Q 3119 3972 2856 3972 
L 2259 3972 
L 2259 734 
Q 2259 344 2344 247 
Q 2463 116 2709 116 
L 2856 116 
L 2856 0 
L 1059 0 
L 1059 116 
L 1209 116 
Q 1478 116 1591 278 
Q 1659 378 1659 734 
L 1659 3972 
L 1150 3972 
Q 853 3972 728 3928 
Q 566 3869 450 3700 
Q 334 3531 313 3244 
L 194 3244 
L 244 4238 
L 3703 4238 
z
" transform="scale(0.015625)"/>
      <path id="TimesNewRomanPSMT-74" d="M 1031 3803 
L 1031 2863 
L 1700 2863 
L 1700 2644 
L 1031 2644 
L 1031 788 
Q 1031 509 1111 412 
Q 1191 316 1316 316 
Q 1419 316 1516 380 
Q 1613 444 1666 569 
L 1788 569 
Q 1678 263 1478 108 
Q 1278 -47 1066 -47 
Q 922 -47 784 33 
Q 647 113 581 261 
Q 516 409 516 719 
L 516 2644 
L 63 2644 
L 63 2747 
Q 234 2816 414 2980 
Q 594 3144 734 3369 
Q 806 3488 934 3803 
L 1031 3803 
z
" transform="scale(0.015625)"/>
      <path id="TimesNewRomanPSMT-6d" d="M 1050 2338 
Q 1363 2650 1419 2697 
Q 1559 2816 1721 2881 
Q 1884 2947 2044 2947 
Q 2313 2947 2506 2790 
Q 2700 2634 2766 2338 
Q 3088 2713 3309 2830 
Q 3531 2947 3766 2947 
Q 3994 2947 4170 2830 
Q 4347 2713 4450 2447 
Q 4519 2266 4519 1878 
L 4519 647 
Q 4519 378 4559 278 
Q 4591 209 4675 161 
Q 4759 113 4950 113 
L 4950 0 
L 3538 0 
L 3538 113 
L 3597 113 
Q 3781 113 3884 184 
Q 3956 234 3988 344 
Q 4000 397 4000 647 
L 4000 1878 
Q 4000 2228 3916 2372 
Q 3794 2572 3525 2572 
Q 3359 2572 3192 2489 
Q 3025 2406 2788 2181 
L 2781 2147 
L 2788 2013 
L 2788 647 
Q 2788 353 2820 281 
Q 2853 209 2943 161 
Q 3034 113 3253 113 
L 3253 0 
L 1806 0 
L 1806 113 
Q 2044 113 2133 169 
Q 2222 225 2256 338 
Q 2272 391 2272 647 
L 2272 1878 
Q 2272 2228 2169 2381 
Q 2031 2581 1784 2581 
Q 1616 2581 1450 2491 
Q 1191 2353 1050 2181 
L 1050 647 
Q 1050 366 1089 281 
Q 1128 197 1204 155 
Q 1281 113 1516 113 
L 1516 0 
L 100 0 
L 100 113 
Q 297 113 375 155 
Q 453 197 493 289 
Q 534 381 534 647 
L 534 1741 
Q 534 2213 506 2350 
Q 484 2453 437 2492 
Q 391 2531 309 2531 
Q 222 2531 100 2484 
L 53 2597 
L 916 2947 
L 1050 2947 
L 1050 2338 
z
" transform="scale(0.015625)"/>
      <path id="TimesNewRomanPSMT-6e" d="M 1034 2341 
Q 1538 2947 1994 2947 
Q 2228 2947 2397 2830 
Q 2566 2713 2666 2444 
Q 2734 2256 2734 1869 
L 2734 647 
Q 2734 375 2778 278 
Q 2813 200 2889 156 
Q 2966 113 3172 113 
L 3172 0 
L 1756 0 
L 1756 113 
L 1816 113 
Q 2016 113 2095 173 
Q 2175 234 2206 353 
Q 2219 400 2219 647 
L 2219 1819 
Q 2219 2209 2117 2386 
Q 2016 2563 1775 2563 
Q 1403 2563 1034 2156 
L 1034 647 
Q 1034 356 1069 288 
Q 1113 197 1189 155 
Q 1266 113 1500 113 
L 1500 0 
L 84 0 
L 84 113 
L 147 113 
Q 366 113 442 223 
Q 519 334 519 647 
L 519 1709 
Q 519 2225 495 2337 
Q 472 2450 423 2490 
Q 375 2531 294 2531 
Q 206 2531 84 2484 
L 38 2597 
L 900 2947 
L 1034 2947 
L 1034 2341 
z
" transform="scale(0.015625)"/>
      <path id="TimesNewRomanPSMT-43" d="M 3853 4334 
L 3950 2894 
L 3853 2894 
Q 3659 3541 3300 3825 
Q 2941 4109 2438 4109 
Q 2016 4109 1675 3895 
Q 1334 3681 1139 3212 
Q 944 2744 944 2047 
Q 944 1472 1128 1050 
Q 1313 628 1683 403 
Q 2053 178 2528 178 
Q 2941 178 3256 354 
Q 3572 531 3950 1056 
L 4047 994 
Q 3728 428 3303 165 
Q 2878 -97 2294 -97 
Q 1241 -97 663 684 
Q 231 1266 231 2053 
Q 231 2688 515 3219 
Q 800 3750 1298 4042 
Q 1797 4334 2388 4334 
Q 2847 4334 3294 4109 
Q 3425 4041 3481 4041 
Q 3566 4041 3628 4100 
Q 3709 4184 3744 4334 
L 3853 4334 
z
" transform="scale(0.015625)"/>
      <path id="TimesNewRomanPSMT-6f" d="M 1600 2947 
Q 2250 2947 2644 2453 
Q 2978 2031 2978 1484 
Q 2978 1100 2793 706 
Q 2609 313 2286 112 
Q 1963 -88 1566 -88 
Q 919 -88 538 428 
Q 216 863 216 1403 
Q 216 1797 411 2186 
Q 606 2575 925 2761 
Q 1244 2947 1600 2947 
z
M 1503 2744 
Q 1338 2744 1170 2645 
Q 1003 2547 900 2300 
Q 797 2053 797 1666 
Q 797 1041 1045 587 
Q 1294 134 1700 134 
Q 2003 134 2200 384 
Q 2397 634 2397 1244 
Q 2397 2006 2069 2444 
Q 1847 2744 1503 2744 
z
" transform="scale(0.015625)"/>
      <path id="TimesNewRomanPSMT-73" d="M 2050 2947 
L 2050 1972 
L 1947 1972 
Q 1828 2431 1642 2597 
Q 1456 2763 1169 2763 
Q 950 2763 815 2647 
Q 681 2531 681 2391 
Q 681 2216 781 2091 
Q 878 1963 1175 1819 
L 1631 1597 
Q 2266 1288 2266 781 
Q 2266 391 1970 151 
Q 1675 -88 1309 -88 
Q 1047 -88 709 6 
Q 606 38 541 38 
Q 469 38 428 -44 
L 325 -44 
L 325 978 
L 428 978 
Q 516 541 762 319 
Q 1009 97 1316 97 
Q 1531 97 1667 223 
Q 1803 350 1803 528 
Q 1803 744 1651 891 
Q 1500 1038 1047 1263 
Q 594 1488 453 1669 
Q 313 1847 313 2119 
Q 313 2472 555 2709 
Q 797 2947 1181 2947 
Q 1350 2947 1591 2875 
Q 1750 2828 1803 2828 
Q 1853 2828 1881 2850 
Q 1909 2872 1947 2947 
L 2050 2947 
z
" transform="scale(0.015625)"/>
      <path id="TimesNewRomanPSMT-66" d="M 1319 2638 
L 1319 756 
Q 1319 356 1406 250 
Q 1522 113 1716 113 
L 1975 113 
L 1975 0 
L 266 0 
L 266 113 
L 394 113 
Q 519 113 622 175 
Q 725 238 764 344 
Q 803 450 803 756 
L 803 2638 
L 247 2638 
L 247 2863 
L 803 2863 
L 803 3050 
Q 803 3478 940 3775 
Q 1078 4072 1361 4255 
Q 1644 4438 1997 4438 
Q 2325 4438 2600 4225 
Q 2781 4084 2781 3909 
Q 2781 3816 2700 3733 
Q 2619 3650 2525 3650 
Q 2453 3650 2373 3701 
Q 2294 3753 2178 3923 
Q 2063 4094 1966 4153 
Q 1869 4213 1750 4213 
Q 1606 4213 1506 4136 
Q 1406 4059 1362 3898 
Q 1319 3738 1319 3069 
L 1319 2863 
L 2056 2863 
L 2056 2638 
L 1319 2638 
z
" transform="scale(0.015625)"/>
      <path id="TimesNewRomanPSMT-28" d="M 1988 -1253 
L 1988 -1369 
Q 1516 -1131 1200 -813 
Q 750 -359 506 256 
Q 263 872 263 1534 
Q 263 2503 741 3301 
Q 1219 4100 1988 4444 
L 1988 4313 
Q 1603 4100 1356 3731 
Q 1109 3363 987 2797 
Q 866 2231 866 1616 
Q 866 947 969 400 
Q 1050 -31 1165 -292 
Q 1281 -553 1476 -793 
Q 1672 -1034 1988 -1253 
z
" transform="scale(0.015625)"/>
      <path id="TimesNewRomanPSMT-24" d="M 338 1044 
L 475 1044 
Q 509 616 743 387 
Q 978 159 1444 116 
L 1444 1941 
Q 741 2375 506 2709 
Q 341 2947 341 3288 
Q 341 3672 627 3959 
Q 913 4247 1444 4306 
L 1444 4594 
L 1644 4594 
L 1644 4306 
Q 1900 4291 2075 4247 
Q 2166 4225 2675 4031 
L 2675 3097 
L 2553 3097 
Q 2513 3594 2295 3823 
Q 2078 4053 1644 4097 
L 1644 2509 
Q 2431 1959 2654 1698 
Q 2878 1438 2878 1050 
Q 2878 619 2551 290 
Q 2225 -38 1644 -88 
L 1644 -488 
L 1444 -488 
L 1444 -88 
Q 1150 -75 897 -20 
Q 644 34 338 159 
L 338 1044 
z
M 1444 2641 
L 1444 4094 
Q 1131 4056 979 3895 
Q 828 3734 828 3491 
Q 828 3263 965 3064 
Q 1103 2866 1444 2641 
z
M 1644 116 
Q 1878 156 2003 231 
Q 2178 341 2279 517 
Q 2381 694 2381 894 
Q 2381 1100 2257 1284 
Q 2134 1469 1644 1806 
L 1644 116 
z
" transform="scale(0.015625)"/>
      <path id="TimesNewRomanPSMT-29" d="M 144 4313 
L 144 4444 
Q 619 4209 934 3891 
Q 1381 3434 1625 2820 
Q 1869 2206 1869 1541 
Q 1869 572 1392 -226 
Q 916 -1025 144 -1369 
L 144 -1253 
Q 528 -1038 776 -670 
Q 1025 -303 1145 264 
Q 1266 831 1266 1447 
Q 1266 2113 1163 2663 
Q 1084 3094 967 3353 
Q 850 3613 656 3853 
Q 463 4094 144 4313 
z
" transform="scale(0.015625)"/>
     </defs>
     <use xlink:href="#TimesNewRomanPSMT-41"/>
     <use xlink:href="#TimesNewRomanPSMT-76" transform="translate(64.841797 0)"/>
     <use xlink:href="#TimesNewRomanPSMT-65" transform="translate(114.841797 0)"/>
     <use xlink:href="#TimesNewRomanPSMT-72" transform="translate(159.226562 0)"/>
     <use xlink:href="#TimesNewRomanPSMT-61" transform="translate(192.527344 0)"/>
     <use xlink:href="#TimesNewRomanPSMT-67" transform="translate(236.912109 0)"/>
     <use xlink:href="#TimesNewRomanPSMT-65" transform="translate(286.912109 0)"/>
     <use xlink:href="#TimesNewRomanPSMT-20" transform="translate(331.296875 0)"/>
     <use xlink:href="#TimesNewRomanPSMT-54" transform="translate(354.546875 0)"/>
     <use xlink:href="#TimesNewRomanPSMT-72" transform="translate(412.130859 0)"/>
     <use xlink:href="#TimesNewRomanPSMT-65" transform="translate(445.431641 0)"/>
     <use xlink:href="#TimesNewRomanPSMT-61" transform="translate(489.816406 0)"/>
     <use xlink:href="#TimesNewRomanPSMT-74" transform="translate(534.201172 0)"/>
     <use xlink:href="#TimesNewRomanPSMT-6d" transform="translate(561.984375 0)"/>
     <use xlink:href="#TimesNewRomanPSMT-65" transform="translate(639.767578 0)"/>
     <use xlink:href="#TimesNewRomanPSMT-6e" transform="translate(684.152344 0)"/>
     <use xlink:href="#TimesNewRomanPSMT-74" transform="translate(734.152344 0)"/>
     <use xlink:href="#TimesNewRomanPSMT-20" transform="translate(761.935547 0)"/>
     <use xlink:href="#TimesNewRomanPSMT-43" transform="translate(786.935547 0)"/>
     <use xlink:href="#TimesNewRomanPSMT-6f" transform="translate(853.634766 0)"/>
     <use xlink:href="#TimesNewRomanPSMT-73" transform="translate(903.634766 0)"/>
     <use xlink:href="#TimesNewRomanPSMT-74" transform="translate(942.550781 0)"/>
     <use xlink:href="#TimesNewRomanPSMT-20" transform="translate(970.333984 0)"/>
     <use xlink:href="#TimesNewRomanPSMT-66" transform="translate(995.333984 0)"/>
     <use xlink:href="#TimesNewRomanPSMT-72" transform="translate(1028.634766 0)"/>
     <use xlink:href="#TimesNewRomanPSMT-6f" transform="translate(1061.935547 0)"/>
     <use xlink:href="#TimesNewRomanPSMT-6d" transform="translate(1111.935547 0)"/>
     <use xlink:href="#TimesNewRomanPSMT-20" transform="translate(1189.71875 0)"/>
     <use xlink:href="#TimesNewRomanPSMT-31" transform="translate(1214.71875 0)"/>
     <use xlink:href="#TimesNewRomanPSMT-39" transform="translate(1264.71875 0)"/>
     <use xlink:href="#TimesNewRomanPSMT-37" transform="translate(1314.71875 0)"/>
     <use xlink:href="#TimesNewRomanPSMT-35" transform="translate(1364.71875 0)"/>
     <use xlink:href="#TimesNewRomanPSMT-20" transform="translate(1414.71875 0)"/>
     <use xlink:href="#TimesNewRomanPSMT-74" transform="translate(1439.71875 0)"/>
     <use xlink:href="#TimesNewRomanPSMT-6f" transform="translate(1467.501953 0)"/>
     <use xlink:href="#TimesNewRomanPSMT-20" transform="translate(1517.501953 0)"/>
     <use xlink:href="#TimesNewRomanPSMT-32" transform="translate(1542.501953 0)"/>
     <use xlink:href="#TimesNewRomanPSMT-30" transform="translate(1592.501953 0)"/>
     <use xlink:href="#TimesNewRomanPSMT-30" transform="translate(1642.501953 0)"/>
     <use xlink:href="#TimesNewRomanPSMT-32" transform="translate(1692.501953 0)"/>
     <use xlink:href="#TimesNewRomanPSMT-20" transform="translate(1742.501953 0)"/>
     <use xlink:href="#TimesNewRomanPSMT-28" transform="translate(1767.501953 0)"/>
     <use xlink:href="#TimesNewRomanPSMT-24" transform="translate(1800.802734 0)"/>
     <use xlink:href="#TimesNewRomanPSMT-29" transform="translate(1850.802734 0)"/>
     <use xlink:href="#TimesNewRomanPSMT-20" transform="translate(1884.103516 0)"/>
    </g>
   </g>
   <g id="legend_1">
    <g id="patch_7">
     <path d="M 415.667927 171.191562 
L 435.667927 171.191562 
L 435.667927 164.191562 
L 415.667927 164.191562 
z
" style="fill: #1f77b4"/>
    </g>
    <g id="text_17">
     <!-- Emergency Procedure -->
     <g transform="translate(443.667927 171.191562) scale(0.1 -0.1)">
      <defs>
       <path id="TimesNewRomanPSMT-45" d="M 1338 4006 
L 1338 2331 
L 2269 2331 
Q 2631 2331 2753 2441 
Q 2916 2584 2934 2947 
L 3050 2947 
L 3050 1472 
L 2934 1472 
Q 2891 1781 2847 1869 
Q 2791 1978 2662 2040 
Q 2534 2103 2269 2103 
L 1338 2103 
L 1338 706 
Q 1338 425 1363 364 
Q 1388 303 1450 267 
Q 1513 231 1688 231 
L 2406 231 
Q 2766 231 2928 281 
Q 3091 331 3241 478 
Q 3434 672 3638 1063 
L 3763 1063 
L 3397 0 
L 131 0 
L 131 116 
L 281 116 
Q 431 116 566 188 
Q 666 238 702 338 
Q 738 438 738 747 
L 738 3500 
Q 738 3903 656 3997 
Q 544 4122 281 4122 
L 131 4122 
L 131 4238 
L 3397 4238 
L 3444 3309 
L 3322 3309 
Q 3256 3644 3176 3769 
Q 3097 3894 2941 3959 
Q 2816 4006 2500 4006 
L 1338 4006 
z
" transform="scale(0.015625)"/>
       <path id="TimesNewRomanPSMT-63" d="M 2631 1088 
Q 2516 522 2178 217 
Q 1841 -88 1431 -88 
Q 944 -88 581 321 
Q 219 731 219 1428 
Q 219 2103 620 2525 
Q 1022 2947 1584 2947 
Q 2006 2947 2278 2723 
Q 2550 2500 2550 2259 
Q 2550 2141 2473 2067 
Q 2397 1994 2259 1994 
Q 2075 1994 1981 2113 
Q 1928 2178 1911 2362 
Q 1894 2547 1784 2644 
Q 1675 2738 1481 2738 
Q 1169 2738 978 2506 
Q 725 2200 725 1697 
Q 725 1184 976 792 
Q 1228 400 1656 400 
Q 1963 400 2206 609 
Q 2378 753 2541 1131 
L 2631 1088 
z
" transform="scale(0.015625)"/>
       <path id="TimesNewRomanPSMT-79" d="M 38 2863 
L 1372 2863 
L 1372 2747 
L 1306 2747 
Q 1166 2747 1095 2686 
Q 1025 2625 1025 2534 
Q 1025 2413 1128 2197 
L 1825 753 
L 2466 2334 
Q 2519 2463 2519 2588 
Q 2519 2644 2497 2672 
Q 2472 2706 2419 2726 
Q 2366 2747 2231 2747 
L 2231 2863 
L 3163 2863 
L 3163 2747 
Q 3047 2734 2984 2696 
Q 2922 2659 2847 2556 
Q 2819 2513 2741 2316 
L 1575 -541 
Q 1406 -956 1132 -1168 
Q 859 -1381 606 -1381 
Q 422 -1381 303 -1275 
Q 184 -1169 184 -1031 
Q 184 -900 270 -820 
Q 356 -741 506 -741 
Q 609 -741 788 -809 
Q 913 -856 944 -856 
Q 1038 -856 1148 -759 
Q 1259 -663 1372 -384 
L 1575 113 
L 547 2272 
Q 500 2369 397 2513 
Q 319 2622 269 2659 
Q 197 2709 38 2747 
L 38 2863 
z
" transform="scale(0.015625)"/>
       <path id="TimesNewRomanPSMT-50" d="M 1313 1984 
L 1313 750 
Q 1313 350 1400 253 
Q 1519 116 1759 116 
L 1922 116 
L 1922 0 
L 106 0 
L 106 116 
L 266 116 
Q 534 116 650 291 
Q 713 388 713 750 
L 713 3488 
Q 713 3888 628 3984 
Q 506 4122 266 4122 
L 106 4122 
L 106 4238 
L 1659 4238 
Q 2228 4238 2556 4120 
Q 2884 4003 3109 3725 
Q 3334 3447 3334 3066 
Q 3334 2547 2992 2222 
Q 2650 1897 2025 1897 
Q 1872 1897 1694 1919 
Q 1516 1941 1313 1984 
z
M 1313 2163 
Q 1478 2131 1606 2115 
Q 1734 2100 1825 2100 
Q 2150 2100 2386 2351 
Q 2622 2603 2622 3003 
Q 2622 3278 2509 3514 
Q 2397 3750 2190 3867 
Q 1984 3984 1722 3984 
Q 1563 3984 1313 3925 
L 1313 2163 
z
" transform="scale(0.015625)"/>
       <path id="TimesNewRomanPSMT-64" d="M 2222 322 
Q 2013 103 1813 7 
Q 1613 -88 1381 -88 
Q 913 -88 563 304 
Q 213 697 213 1313 
Q 213 1928 600 2439 
Q 988 2950 1597 2950 
Q 1975 2950 2222 2709 
L 2222 3238 
Q 2222 3728 2198 3840 
Q 2175 3953 2125 3993 
Q 2075 4034 2000 4034 
Q 1919 4034 1784 3984 
L 1744 4094 
L 2597 4444 
L 2738 4444 
L 2738 1134 
Q 2738 631 2761 520 
Q 2784 409 2836 365 
Q 2888 322 2956 322 
Q 3041 322 3181 375 
L 3216 266 
L 2366 -88 
L 2222 -88 
L 2222 322 
z
M 2222 541 
L 2222 2016 
Q 2203 2228 2109 2403 
Q 2016 2578 1861 2667 
Q 1706 2756 1559 2756 
Q 1284 2756 1069 2509 
Q 784 2184 784 1559 
Q 784 928 1059 592 
Q 1334 256 1672 256 
Q 1956 256 2222 541 
z
" transform="scale(0.015625)"/>
       <path id="TimesNewRomanPSMT-75" d="M 2709 2863 
L 2709 1128 
Q 2709 631 2732 520 
Q 2756 409 2807 365 
Q 2859 322 2928 322 
Q 3025 322 3147 375 
L 3191 266 
L 2334 -88 
L 2194 -88 
L 2194 519 
Q 1825 119 1631 15 
Q 1438 -88 1222 -88 
Q 981 -88 804 51 
Q 628 191 559 409 
Q 491 628 491 1028 
L 491 2306 
Q 491 2509 447 2587 
Q 403 2666 317 2708 
Q 231 2750 6 2747 
L 6 2863 
L 1009 2863 
L 1009 947 
Q 1009 547 1148 422 
Q 1288 297 1484 297 
Q 1619 297 1789 381 
Q 1959 466 2194 703 
L 2194 2325 
Q 2194 2569 2105 2655 
Q 2016 2741 1734 2747 
L 1734 2863 
L 2709 2863 
z
" transform="scale(0.015625)"/>
      </defs>
      <use xlink:href="#TimesNewRomanPSMT-45"/>
      <use xlink:href="#TimesNewRomanPSMT-6d" transform="translate(61.083984 0)"/>
      <use xlink:href="#TimesNewRomanPSMT-65" transform="translate(138.867188 0)"/>
      <use xlink:href="#TimesNewRomanPSMT-72" transform="translate(183.251953 0)"/>
      <use xlink:href="#TimesNewRomanPSMT-67" transform="translate(214.802734 0)"/>
      <use xlink:href="#TimesNewRomanPSMT-65" transform="translate(264.802734 0)"/>
      <use xlink:href="#TimesNewRomanPSMT-6e" transform="translate(309.1875 0)"/>
      <use xlink:href="#TimesNewRomanPSMT-63" transform="translate(359.1875 0)"/>
      <use xlink:href="#TimesNewRomanPSMT-79" transform="translate(403.572266 0)"/>
      <use xlink:href="#TimesNewRomanPSMT-20" transform="translate(453.572266 0)"/>
      <use xlink:href="#TimesNewRomanPSMT-50" transform="translate(478.572266 0)"/>
      <use xlink:href="#TimesNewRomanPSMT-72" transform="translate(534.1875 0)"/>
      <use xlink:href="#TimesNewRomanPSMT-6f" transform="translate(567.488281 0)"/>
      <use xlink:href="#TimesNewRomanPSMT-63" transform="translate(617.488281 0)"/>
      <use xlink:href="#TimesNewRomanPSMT-65" transform="translate(661.873047 0)"/>
      <use xlink:href="#TimesNewRomanPSMT-64" transform="translate(706.257812 0)"/>
      <use xlink:href="#TimesNewRomanPSMT-75" transform="translate(756.257812 0)"/>
      <use xlink:href="#TimesNewRomanPSMT-72" transform="translate(806.257812 0)"/>
      <use xlink:href="#TimesNewRomanPSMT-65" transform="translate(839.558594 0)"/>
     </g>
    </g>
    <g id="patch_8">
     <path d="M 415.667927 185.349375 
L 435.667927 185.349375 
L 435.667927 178.349375 
L 415.667927 178.349375 
z
" style="fill: #aec7e8"/>
    </g>
    <g id="text_18">
     <!-- Chronic Care Program -->
     <g transform="translate(443.667927 185.349375) scale(0.1 -0.1)">
      <defs>
       <path id="TimesNewRomanPSMT-68" d="M 1041 4444 
L 1041 2350 
Q 1388 2731 1591 2839 
Q 1794 2947 1997 2947 
Q 2241 2947 2416 2812 
Q 2591 2678 2675 2391 
Q 2734 2191 2734 1659 
L 2734 647 
Q 2734 375 2778 275 
Q 2809 200 2884 156 
Q 2959 113 3159 113 
L 3159 0 
L 1753 0 
L 1753 113 
L 1819 113 
Q 2019 113 2097 173 
Q 2175 234 2206 353 
Q 2216 403 2216 647 
L 2216 1659 
Q 2216 2128 2167 2275 
Q 2119 2422 2012 2495 
Q 1906 2569 1756 2569 
Q 1603 2569 1437 2487 
Q 1272 2406 1041 2159 
L 1041 647 
Q 1041 353 1073 281 
Q 1106 209 1195 161 
Q 1284 113 1503 113 
L 1503 0 
L 84 0 
L 84 113 
Q 275 113 384 172 
Q 447 203 484 290 
Q 522 378 522 647 
L 522 3238 
Q 522 3728 498 3840 
Q 475 3953 426 3993 
Q 378 4034 297 4034 
Q 231 4034 84 3984 
L 41 4094 
L 897 4444 
L 1041 4444 
z
" transform="scale(0.015625)"/>
       <path id="TimesNewRomanPSMT-69" d="M 928 4444 
Q 1059 4444 1151 4351 
Q 1244 4259 1244 4128 
Q 1244 3997 1151 3903 
Q 1059 3809 928 3809 
Q 797 3809 703 3903 
Q 609 3997 609 4128 
Q 609 4259 701 4351 
Q 794 4444 928 4444 
z
M 1188 2947 
L 1188 647 
Q 1188 378 1227 289 
Q 1266 200 1342 156 
Q 1419 113 1622 113 
L 1622 0 
L 231 0 
L 231 113 
Q 441 113 512 153 
Q 584 194 626 287 
Q 669 381 669 647 
L 669 1750 
Q 669 2216 641 2353 
Q 619 2453 572 2492 
Q 525 2531 444 2531 
Q 356 2531 231 2484 
L 188 2597 
L 1050 2947 
L 1188 2947 
z
" transform="scale(0.015625)"/>
      </defs>
      <use xlink:href="#TimesNewRomanPSMT-43"/>
      <use xlink:href="#TimesNewRomanPSMT-68" transform="translate(66.699219 0)"/>
      <use xlink:href="#TimesNewRomanPSMT-72" transform="translate(116.699219 0)"/>
      <use xlink:href="#TimesNewRomanPSMT-6f" transform="translate(150 0)"/>
      <use xlink:href="#TimesNewRomanPSMT-6e" transform="translate(200 0)"/>
      <use xlink:href="#TimesNewRomanPSMT-69" transform="translate(250 0)"/>
      <use xlink:href="#TimesNewRomanPSMT-63" transform="translate(277.783203 0)"/>
      <use xlink:href="#TimesNewRomanPSMT-20" transform="translate(322.167969 0)"/>
      <use xlink:href="#TimesNewRomanPSMT-43" transform="translate(347.167969 0)"/>
      <use xlink:href="#TimesNewRomanPSMT-61" transform="translate(413.867188 0)"/>
      <use xlink:href="#TimesNewRomanPSMT-72" transform="translate(458.251953 0)"/>
      <use xlink:href="#TimesNewRomanPSMT-65" transform="translate(491.552734 0)"/>
      <use xlink:href="#TimesNewRomanPSMT-20" transform="translate(535.9375 0)"/>
      <use xlink:href="#TimesNewRomanPSMT-50" transform="translate(560.9375 0)"/>
      <use xlink:href="#TimesNewRomanPSMT-72" transform="translate(616.552734 0)"/>
      <use xlink:href="#TimesNewRomanPSMT-6f" transform="translate(649.853516 0)"/>
      <use xlink:href="#TimesNewRomanPSMT-67" transform="translate(699.853516 0)"/>
      <use xlink:href="#TimesNewRomanPSMT-72" transform="translate(749.853516 0)"/>
      <use xlink:href="#TimesNewRomanPSMT-61" transform="translate(783.154297 0)"/>
      <use xlink:href="#TimesNewRomanPSMT-6d" transform="translate(827.539062 0)"/>
     </g>
    </g>
   </g>
  </g>
 </g>
 <defs>
  <clipPath id="p9345306942">
   <rect x="10.091927" y="37.249375" width="388.8" height="277.2"/>
  </clipPath>
 </defs>
</svg>
