<?xml version="1.0" encoding="utf-8" standalone="no"?>
<!DOCTYPE svg PUBLIC "-//W3C//DTD SVG 1.1//EN"
  "http://www.w3.org/Graphics/SVG/1.1/DTD/svg11.dtd">
<svg xmlns:xlink="http://www.w3.org/1999/xlink" width="526.260114pt" height="363.785279pt" viewBox="0 0 526.260114 363.785279" xmlns="http://www.w3.org/2000/svg" version="1.1">
 <metadata>
  <rdf:RDF xmlns:dc="http://purl.org/dc/elements/1.1/" xmlns:cc="http://creativecommons.org/ns#" xmlns:rdf="http://www.w3.org/1999/02/22-rdf-syntax-ns#">
   <cc:Work>
    <dc:type rdf:resource="http://purl.org/dc/dcmitype/StillImage"/>
    <dc:date>2025-05-30T23:57:22.592880</dc:date>
    <dc:format>image/svg+xml</dc:format>
    <dc:creator>
     <cc:Agent>
      <dc:title>Matplotlib v3.10.3, https://matplotlib.org/</dc:title>
     </cc:Agent>
    </dc:creator>
   </cc:Work>
  </rdf:RDF>
 </metadata>
 <defs>
  <style type="text/css">*{stroke-linejoin: round; stroke-linecap: butt}</style>
 </defs>
 <g id="figure_1">
  <g id="patch_1">
   <path d="M 0 363.785279 
L 526.260114 363.785279 
L 526.260114 0 
L 0 0 
z
" style="fill: #ffffff"/>
  </g>
  <g id="axes_1">
   <g id="patch_2">
    <path d="M 10.091927 314.12125 
L 398.891927 314.12125 
L 398.891927 36.92125 
L 10.091927 36.92125 
z
" style="fill: #ffffff"/>
   </g>
   <g id="FillBetweenPolyCollection_1">
    <path d="M 27.764654 186.109453 
L 27.764654 200.608723 
L 29.73926 200.394257 
L 31.713867 200.305278 
L 33.688473 200.330381 
L 35.66308 200.458159 
L 37.637686 200.677208 
L 39.612292 200.976119 
L 41.586899 201.343489 
L 43.561505 201.767911 
L 45.536112 202.237978 
L 47.510718 202.742286 
L 49.485324 203.269428 
L 51.459931 203.807998 
L 53.434537 204.346591 
L 55.409144 204.8738 
L 57.38375 205.37822 
L 59.358356 205.848445 
L 61.332963 206.273068 
L 63.307569 206.640684 
L 65.282176 206.939888 
L 67.256782 207.159272 
L 69.231388 207.287431 
L 71.205995 207.317679 
L 73.180601 207.265856 
L 75.155208 207.154516 
L 77.129814 207.006216 
L 79.10442 206.843512 
L 81.079027 206.68896 
L 83.053633 206.565115 
L 85.02824 206.494535 
L 87.002846 206.499775 
L 88.977452 206.603392 
L 90.952059 206.827489 
L 92.926665 207.177778 
L 94.901272 207.639324 
L 96.875878 208.195874 
L 98.850484 208.831177 
L 100.825091 209.528979 
L 102.799697 210.27303 
L 104.774304 211.047077 
L 106.74891 211.834868 
L 108.723516 212.620151 
L 110.698123 213.386674 
L 112.672729 214.119767 
L 114.647335 214.813798 
L 116.621942 215.466333 
L 118.596548 216.074945 
L 120.571155 216.637205 
L 122.545761 217.150685 
L 124.520367 217.612957 
L 126.494974 218.021593 
L 128.46958 218.374164 
L 130.444187 218.668242 
L 132.418793 218.901514 
L 134.393399 219.077672 
L 136.368006 219.209244 
L 138.342612 219.309464 
L 140.317219 219.391569 
L 142.291825 219.468792 
L 144.266431 219.554369 
L 146.241038 219.661536 
L 148.215644 219.803526 
L 150.190251 219.993576 
L 152.164857 220.244919 
L 154.139463 220.568301 
L 156.11407 220.95738 
L 158.088676 221.398653 
L 160.063283 221.878589 
L 162.037889 222.383659 
L 164.012495 222.900334 
L 165.987102 223.415083 
L 167.961708 223.914377 
L 169.936315 224.384687 
L 171.910921 224.812483 
L 173.885527 225.184349 
L 175.860134 225.49609 
L 177.83474 225.75939 
L 179.809347 225.987505 
L 181.783953 226.193689 
L 183.758559 226.391199 
L 185.733166 226.593288 
L 187.707772 226.813212 
L 189.682379 227.064226 
L 191.656985 227.359585 
L 193.631591 227.712544 
L 195.606198 228.134522 
L 197.580804 228.621729 
L 199.555411 229.162852 
L 201.530017 229.746522 
L 203.504623 230.361374 
L 205.47923 230.996041 
L 207.453836 231.639156 
L 209.428443 232.279352 
L 211.403049 232.905264 
L 213.377655 233.505523 
L 215.352262 234.068802 
L 217.326868 234.589059 
L 219.301475 235.070951 
L 221.276081 235.520424 
L 223.250687 235.943424 
L 225.225294 236.345897 
L 227.1999 236.733791 
L 229.174507 237.113049 
L 231.149113 237.489621 
L 233.123719 237.86945 
L 235.098326 238.258484 
L 237.072932 238.662141 
L 239.047539 239.080497 
L 241.022145 239.510524 
L 242.996751 239.94916 
L 244.971358 240.39334 
L 246.945964 240.839999 
L 248.920571 241.286073 
L 250.895177 241.728498 
L 252.869783 242.164209 
L 254.84439 242.590142 
L 256.818996 243.003245 
L 258.793603 243.403803 
L 260.768209 243.800064 
L 262.742815 244.201436 
L 264.717422 244.617328 
L 266.692028 245.057148 
L 268.666635 245.530305 
L 270.641241 246.046207 
L 272.615847 246.614262 
L 274.590454 247.243879 
L 276.56506 247.944467 
L 278.539667 248.72407 
L 280.514273 249.573701 
L 282.488879 250.472795 
L 284.463486 251.400567 
L 286.438092 252.336229 
L 288.412699 253.258996 
L 290.387305 254.148082 
L 292.361911 254.9827 
L 294.336518 255.742064 
L 296.311124 256.405388 
L 298.285731 256.951899 
L 300.260337 257.371781 
L 302.234943 257.686151 
L 304.20955 257.921542 
L 306.184156 258.104485 
L 308.158763 258.261514 
L 310.133369 258.419161 
L 312.107975 258.60396 
L 314.082582 258.842444 
L 316.057188 259.161144 
L 318.031795 259.586595 
L 320.006401 260.143896 
L 321.981007 260.835686 
L 323.955614 261.646772 
L 325.93022 262.561468 
L 327.904827 263.564087 
L 329.879433 264.638943 
L 331.854039 265.770351 
L 333.828646 266.942626 
L 335.803252 268.14008 
L 337.777859 269.347029 
L 339.752465 270.547786 
L 341.727071 271.729775 
L 343.701678 272.890844 
L 345.676284 274.031028 
L 347.650891 275.15036 
L 349.625497 276.248874 
L 351.600103 277.326603 
L 353.57471 278.383581 
L 355.549316 279.419842 
L 357.523923 280.435419 
L 359.498529 281.430346 
L 361.473135 282.404656 
L 363.447742 283.358383 
L 365.422348 284.291561 
L 367.396955 285.204224 
L 369.371561 286.096405 
L 371.346167 286.968137 
L 373.320774 287.819454 
L 375.29538 288.650391 
L 377.269987 289.46098 
L 379.244593 290.251255 
L 381.219199 291.02125 
L 381.219199 244.004084 
L 381.219199 244.004084 
L 379.244593 242.693977 
L 377.269987 241.528521 
L 375.29538 240.496386 
L 373.320774 239.586244 
L 371.346167 238.786765 
L 369.371561 238.08662 
L 367.396955 237.474479 
L 365.422348 236.939014 
L 363.447742 236.468895 
L 361.473135 236.052793 
L 359.498529 235.679379 
L 357.523923 235.337323 
L 355.549316 235.015296 
L 353.57471 234.701969 
L 351.600103 234.386013 
L 349.625497 234.056099 
L 347.650891 233.700897 
L 345.676284 233.309077 
L 343.701678 232.869312 
L 341.727071 232.370271 
L 339.752465 231.800625 
L 337.777859 231.153262 
L 335.803252 230.441194 
L 333.828646 229.683434 
L 331.854039 228.898996 
L 329.879433 228.106893 
L 327.904827 227.326139 
L 325.93022 226.575746 
L 323.955614 225.87473 
L 321.981007 225.242102 
L 320.006401 224.696877 
L 318.031795 224.25756 
L 316.057188 223.924242 
L 314.082582 223.67382 
L 312.107975 223.481709 
L 310.133369 223.323326 
L 308.158763 223.174089 
L 306.184156 223.009415 
L 304.20955 222.804719 
L 302.234943 222.53542 
L 300.260337 222.176934 
L 298.285731 221.704678 
L 296.311124 221.099542 
L 294.336518 220.373668 
L 292.361911 219.550268 
L 290.387305 218.652568 
L 288.412699 217.703795 
L 286.438092 216.727174 
L 284.463486 215.745932 
L 282.488879 214.783295 
L 280.514273 213.862488 
L 278.539667 213.006739 
L 276.56506 212.239042 
L 274.590454 211.570355 
L 272.615847 210.993925 
L 270.641241 210.501582 
L 268.666635 210.085153 
L 266.692028 209.73647 
L 264.717422 209.447361 
L 262.742815 209.209655 
L 260.768209 209.015181 
L 258.793603 208.855769 
L 256.818996 208.723249 
L 254.84439 208.609356 
L 252.869783 208.5052 
L 250.895177 208.401621 
L 248.920571 208.289463 
L 246.945964 208.159566 
L 244.971358 208.002774 
L 242.996751 207.809927 
L 241.022145 207.571868 
L 239.047539 207.279438 
L 237.072932 206.92348 
L 235.098326 206.494942 
L 233.123719 205.993476 
L 231.149113 205.433723 
L 229.174507 204.831804 
L 227.1999 204.203841 
L 225.225294 203.565955 
L 223.250687 202.93427 
L 221.276081 202.324906 
L 219.301475 201.753985 
L 217.326868 201.23763 
L 215.352262 200.791962 
L 213.377655 200.43088 
L 211.403049 200.149858 
L 209.428443 199.935261 
L 207.453836 199.773387 
L 205.47923 199.650535 
L 203.504623 199.553004 
L 201.530017 199.467093 
L 199.555411 199.379101 
L 197.580804 199.275327 
L 195.606198 199.14207 
L 193.631591 198.965678 
L 191.656985 198.739495 
L 189.682379 198.47101 
L 187.707772 198.169418 
L 185.733166 197.843915 
L 183.758559 197.503696 
L 181.783953 197.157958 
L 179.809347 196.815895 
L 177.83474 196.486704 
L 175.860134 196.179579 
L 173.885527 195.903717 
L 171.910921 195.667387 
L 169.936315 195.469492 
L 167.961708 195.303494 
L 165.987102 195.162791 
L 164.012495 195.040779 
L 162.037889 194.930854 
L 160.063283 194.826414 
L 158.088676 194.720855 
L 156.11407 194.607573 
L 154.139463 194.479965 
L 152.164857 194.331435 
L 150.190251 194.157435 
L 148.215644 193.958303 
L 146.241038 193.735088 
L 144.266431 193.488842 
L 142.291825 193.220612 
L 140.317219 192.931451 
L 138.342612 192.622407 
L 136.368006 192.29453 
L 134.393399 191.948871 
L 132.418793 191.586479 
L 130.444187 191.208768 
L 128.46958 190.821689 
L 126.494974 190.434275 
L 124.520367 190.055621 
L 122.545761 189.694821 
L 120.571155 189.360968 
L 118.596548 189.063157 
L 116.621942 188.810481 
L 114.647335 188.612034 
L 112.672729 188.47691 
L 110.698123 188.414196 
L 108.723516 188.427752 
L 106.74891 188.506679 
L 104.774304 188.637495 
L 102.799697 188.806718 
L 100.825091 189.000863 
L 98.850484 189.206449 
L 96.875878 189.409993 
L 94.901272 189.598011 
L 92.926665 189.757022 
L 90.952059 189.873542 
L 88.977452 189.934681 
L 87.002846 189.936841 
L 85.02824 189.883802 
L 83.053633 189.779548 
L 81.079027 189.628063 
L 79.10442 189.433328 
L 77.129814 189.199328 
L 75.155208 188.930047 
L 73.180601 188.629466 
L 71.205995 188.301571 
L 69.231388 187.950344 
L 67.256782 187.58026 
L 65.282176 187.197444 
L 63.307569 186.808364 
L 61.332963 186.419492 
L 59.358356 186.037297 
L 57.38375 185.668247 
L 55.409144 185.318814 
L 53.434537 184.995466 
L 51.459931 184.704673 
L 49.485324 184.452906 
L 47.510718 184.246634 
L 45.536112 184.092325 
L 43.561505 183.996452 
L 41.586899 183.965481 
L 39.612292 184.005885 
L 37.637686 184.124132 
L 35.66308 184.326691 
L 33.688473 184.620033 
L 31.713867 185.010628 
L 29.73926 185.504945 
L 27.764654 186.109453 
z
" clip-path="url(#p9d87e31204)" style="fill: #1f77b4"/>
   </g>
   <g id="FillBetweenPolyCollection_2">
    <path d="M 27.764654 167.910037 
L 27.764654 186.109453 
L 29.73926 185.504945 
L 31.713867 185.010628 
L 33.688473 184.620033 
L 35.66308 184.326691 
L 37.637686 184.124132 
L 39.612292 184.005885 
L 41.586899 183.965481 
L 43.561505 183.996452 
L 45.536112 184.092325 
L 47.510718 184.246634 
L 49.485324 184.452906 
L 51.459931 184.704673 
L 53.434537 184.995466 
L 55.409144 185.318814 
L 57.38375 185.668247 
L 59.358356 186.037297 
L 61.332963 186.419492 
L 63.307569 186.808364 
L 65.282176 187.197444 
L 67.256782 187.58026 
L 69.231388 187.950344 
L 71.205995 188.301571 
L 73.180601 188.629466 
L 75.155208 188.930047 
L 77.129814 189.199328 
L 79.10442 189.433328 
L 81.079027 189.628063 
L 83.053633 189.779548 
L 85.02824 189.883802 
L 87.002846 189.936841 
L 88.977452 189.934681 
L 90.952059 189.873542 
L 92.926665 189.757022 
L 94.901272 189.598011 
L 96.875878 189.409993 
L 98.850484 189.206449 
L 100.825091 189.000863 
L 102.799697 188.806718 
L 104.774304 188.637495 
L 106.74891 188.506679 
L 108.723516 188.427752 
L 110.698123 188.414196 
L 112.672729 188.47691 
L 114.647335 188.612034 
L 116.621942 188.810481 
L 118.596548 189.063157 
L 120.571155 189.360968 
L 122.545761 189.694821 
L 124.520367 190.055621 
L 126.494974 190.434275 
L 128.46958 190.821689 
L 130.444187 191.208768 
L 132.418793 191.586479 
L 134.393399 191.948871 
L 136.368006 192.29453 
L 138.342612 192.622407 
L 140.317219 192.931451 
L 142.291825 193.220612 
L 144.266431 193.488842 
L 146.241038 193.735088 
L 148.215644 193.958303 
L 150.190251 194.157435 
L 152.164857 194.331435 
L 154.139463 194.479965 
L 156.11407 194.607573 
L 158.088676 194.720855 
L 160.063283 194.826414 
L 162.037889 194.930854 
L 164.012495 195.040779 
L 165.987102 195.162791 
L 167.961708 195.303494 
L 169.936315 195.469492 
L 171.910921 195.667387 
L 173.885527 195.903717 
L 175.860134 196.179579 
L 177.83474 196.486704 
L 179.809347 196.815895 
L 181.783953 197.157958 
L 183.758559 197.503696 
L 185.733166 197.843915 
L 187.707772 198.169418 
L 189.682379 198.47101 
L 191.656985 198.739495 
L 193.631591 198.965678 
L 195.606198 199.14207 
L 197.580804 199.275327 
L 199.555411 199.379101 
L 201.530017 199.467093 
L 203.504623 199.553004 
L 205.47923 199.650535 
L 207.453836 199.773387 
L 209.428443 199.935261 
L 211.403049 200.149858 
L 213.377655 200.43088 
L 215.352262 200.791962 
L 217.326868 201.23763 
L 219.301475 201.753985 
L 221.276081 202.324906 
L 223.250687 202.93427 
L 225.225294 203.565955 
L 227.1999 204.203841 
L 229.174507 204.831804 
L 231.149113 205.433723 
L 233.123719 205.993476 
L 235.098326 206.494942 
L 237.072932 206.92348 
L 239.047539 207.279438 
L 241.022145 207.571868 
L 242.996751 207.809927 
L 244.971358 208.002774 
L 246.945964 208.159566 
L 248.920571 208.289463 
L 250.895177 208.401621 
L 252.869783 208.5052 
L 254.84439 208.609356 
L 256.818996 208.723249 
L 258.793603 208.855769 
L 260.768209 209.015181 
L 262.742815 209.209655 
L 264.717422 209.447361 
L 266.692028 209.73647 
L 268.666635 210.085153 
L 270.641241 210.501582 
L 272.615847 210.993925 
L 274.590454 211.570355 
L 276.56506 212.239042 
L 278.539667 213.006739 
L 280.514273 213.862488 
L 282.488879 214.783295 
L 284.463486 215.745932 
L 286.438092 216.727174 
L 288.412699 217.703795 
L 290.387305 218.652568 
L 292.361911 219.550268 
L 294.336518 220.373668 
L 296.311124 221.099542 
L 298.285731 221.704678 
L 300.260337 222.176934 
L 302.234943 222.53542 
L 304.20955 222.804719 
L 306.184156 223.009415 
L 308.158763 223.174089 
L 310.133369 223.323326 
L 312.107975 223.481709 
L 314.082582 223.67382 
L 316.057188 223.924242 
L 318.031795 224.25756 
L 320.006401 224.696877 
L 321.981007 225.242102 
L 323.955614 225.87473 
L 325.93022 226.575746 
L 327.904827 227.326139 
L 329.879433 228.106893 
L 331.854039 228.898996 
L 333.828646 229.683434 
L 335.803252 230.441194 
L 337.777859 231.153262 
L 339.752465 231.800625 
L 341.727071 232.370271 
L 343.701678 232.869312 
L 345.676284 233.309077 
L 347.650891 233.700897 
L 349.625497 234.056099 
L 351.600103 234.386013 
L 353.57471 234.701969 
L 355.549316 235.015296 
L 357.523923 235.337323 
L 359.498529 235.679379 
L 361.473135 236.052793 
L 363.447742 236.468895 
L 365.422348 236.939014 
L 367.396955 237.474479 
L 369.371561 238.08662 
L 371.346167 238.786765 
L 373.320774 239.586244 
L 375.29538 240.496386 
L 377.269987 241.528521 
L 379.244593 242.693977 
L 381.219199 244.004084 
L 381.219199 151.175012 
L 381.219199 151.175012 
L 379.244593 151.410338 
L 377.269987 151.638128 
L 375.29538 151.860012 
L 373.320774 152.077618 
L 371.346167 152.292577 
L 369.371561 152.506517 
L 367.396955 152.721067 
L 365.422348 152.937858 
L 363.447742 153.158518 
L 361.473135 153.384676 
L 359.498529 153.617962 
L 357.523923 153.860004 
L 355.549316 154.112433 
L 353.57471 154.376878 
L 351.600103 154.654967 
L 349.625497 154.94833 
L 347.650891 155.258596 
L 345.676284 155.587395 
L 343.701678 155.936356 
L 341.727071 156.307108 
L 339.752465 156.70128 
L 337.777859 157.118193 
L 335.803252 157.54614 
L 333.828646 157.970132 
L 331.854039 158.375177 
L 329.879433 158.746283 
L 327.904827 159.06846 
L 325.93022 159.326715 
L 323.955614 159.506057 
L 321.981007 159.591494 
L 320.006401 159.568036 
L 318.031795 159.42117 
L 316.057188 159.153778 
L 314.082582 158.790648 
L 312.107975 158.357967 
L 310.133369 157.881922 
L 308.158763 157.388698 
L 306.184156 156.904481 
L 304.20955 156.455457 
L 302.234943 156.067814 
L 300.260337 155.767735 
L 298.285731 155.581409 
L 296.311124 155.52946 
L 294.336518 155.600763 
L 292.361911 155.772948 
L 290.387305 156.023627 
L 288.412699 156.330416 
L 286.438092 156.670928 
L 284.463486 157.022778 
L 282.488879 157.363579 
L 280.514273 157.670946 
L 278.539667 157.922494 
L 276.56506 158.096128 
L 274.590454 158.185031 
L 272.615847 158.204858 
L 270.641241 158.173063 
L 268.666635 158.107102 
L 266.692028 158.024428 
L 264.717422 157.942496 
L 262.742815 157.87876 
L 260.768209 157.850675 
L 258.793603 157.875695 
L 256.818996 157.971274 
L 254.84439 158.151626 
L 252.869783 158.408747 
L 250.895177 158.725311 
L 248.920571 159.083962 
L 246.945964 159.467345 
L 244.971358 159.858101 
L 242.996751 160.238875 
L 241.022145 160.59231 
L 239.047539 160.90105 
L 237.072932 161.147738 
L 235.098326 161.315156 
L 233.123719 161.397372 
L 231.149113 161.407887 
L 229.174507 161.362124 
L 227.1999 161.275507 
L 225.225294 161.163457 
L 223.250687 161.0414 
L 221.276081 160.924756 
L 219.301475 160.828951 
L 217.326868 160.769406 
L 215.352262 160.761544 
L 213.377655 160.818622 
L 211.403049 160.935916 
L 209.428443 161.099819 
L 207.453836 161.296659 
L 205.47923 161.512763 
L 203.504623 161.73446 
L 201.530017 161.948077 
L 199.555411 162.139942 
L 197.580804 162.296383 
L 195.606198 162.403728 
L 193.631591 162.448362 
L 191.656985 162.424724 
L 189.682379 162.343538 
L 187.707772 162.217495 
L 185.733166 162.059285 
L 183.758559 161.881598 
L 181.783953 161.697124 
L 179.809347 161.518553 
L 177.83474 161.358574 
L 175.860134 161.229879 
L 173.885527 161.145157 
L 171.910921 161.115835 
L 169.936315 161.140578 
L 167.961708 161.210636 
L 165.987102 161.317168 
L 164.012495 161.451334 
L 162.037889 161.604295 
L 160.063283 161.767209 
L 158.088676 161.931237 
L 156.11407 162.087538 
L 154.139463 162.227272 
L 152.164857 162.341611 
L 150.190251 162.425153 
L 148.215644 162.48067 
L 146.241038 162.512125 
L 144.266431 162.523481 
L 142.291825 162.518702 
L 140.317219 162.50175 
L 138.342612 162.476589 
L 136.368006 162.447182 
L 134.393399 162.417492 
L 132.418793 162.391483 
L 130.444187 162.373135 
L 128.46958 162.366671 
L 126.494974 162.376473 
L 124.520367 162.406927 
L 122.545761 162.462418 
L 120.571155 162.547333 
L 118.596548 162.666057 
L 116.621942 162.822976 
L 114.647335 163.022477 
L 112.672729 163.268945 
L 110.698123 163.566761 
L 108.723516 163.915807 
L 106.74891 164.303274 
L 104.774304 164.714129 
L 102.799697 165.133339 
L 100.825091 165.54587 
L 98.850484 165.936689 
L 96.875878 166.290763 
L 94.901272 166.593059 
L 92.926665 166.828544 
L 90.952059 166.982184 
L 88.977452 167.040032 
L 87.002846 167.005185 
L 85.02824 166.894268 
L 83.053633 166.724282 
L 81.079027 166.512224 
L 79.10442 166.275095 
L 77.129814 166.029893 
L 75.155208 165.793618 
L 73.180601 165.583268 
L 71.205995 165.415844 
L 69.231388 165.308342 
L 67.256782 165.272798 
L 65.282176 165.304585 
L 63.307569 165.395591 
L 61.332963 165.537701 
L 59.358356 165.722801 
L 57.38375 165.942777 
L 55.409144 166.189515 
L 53.434537 166.454901 
L 51.459931 166.730822 
L 49.485324 167.009162 
L 47.510718 167.281809 
L 45.536112 167.540648 
L 43.561505 167.777565 
L 41.586899 167.984447 
L 39.612292 168.153178 
L 37.637686 168.275646 
L 35.66308 168.343736 
L 33.688473 168.349334 
L 31.713867 168.284326 
L 29.73926 168.140599 
L 27.764654 167.910037 
z
" clip-path="url(#p9d87e31204)" style="fill: #aec7e8"/>
   </g>
   <g id="FillBetweenPolyCollection_3">
    <path d="M 27.764654 150.433777 
L 27.764654 167.910037 
L 29.73926 168.140599 
L 31.713867 168.284326 
L 33.688473 168.349334 
L 35.66308 168.343736 
L 37.637686 168.275646 
L 39.612292 168.153178 
L 41.586899 167.984447 
L 43.561505 167.777565 
L 45.536112 167.540648 
L 47.510718 167.281809 
L 49.485324 167.009162 
L 51.459931 166.730822 
L 53.434537 166.454901 
L 55.409144 166.189515 
L 57.38375 165.942777 
L 59.358356 165.722801 
L 61.332963 165.537701 
L 63.307569 165.395591 
L 65.282176 165.304585 
L 67.256782 165.272798 
L 69.231388 165.308342 
L 71.205995 165.415844 
L 73.180601 165.583268 
L 75.155208 165.793618 
L 77.129814 166.029893 
L 79.10442 166.275095 
L 81.079027 166.512224 
L 83.053633 166.724282 
L 85.02824 166.894268 
L 87.002846 167.005185 
L 88.977452 167.040032 
L 90.952059 166.982184 
L 92.926665 166.828544 
L 94.901272 166.593059 
L 96.875878 166.290763 
L 98.850484 165.936689 
L 100.825091 165.54587 
L 102.799697 165.133339 
L 104.774304 164.714129 
L 106.74891 164.303274 
L 108.723516 163.915807 
L 110.698123 163.566761 
L 112.672729 163.268945 
L 114.647335 163.022477 
L 116.621942 162.822976 
L 118.596548 162.666057 
L 120.571155 162.547333 
L 122.545761 162.462418 
L 124.520367 162.406927 
L 126.494974 162.376473 
L 128.46958 162.366671 
L 130.444187 162.373135 
L 132.418793 162.391483 
L 134.393399 162.417492 
L 136.368006 162.447182 
L 138.342612 162.476589 
L 140.317219 162.50175 
L 142.291825 162.518702 
L 144.266431 162.523481 
L 146.241038 162.512125 
L 148.215644 162.48067 
L 150.190251 162.425153 
L 152.164857 162.341611 
L 154.139463 162.227272 
L 156.11407 162.087538 
L 158.088676 161.931237 
L 160.063283 161.767209 
L 162.037889 161.604295 
L 164.012495 161.451334 
L 165.987102 161.317168 
L 167.961708 161.210636 
L 169.936315 161.140578 
L 171.910921 161.115835 
L 173.885527 161.145157 
L 175.860134 161.229879 
L 177.83474 161.358574 
L 179.809347 161.518553 
L 181.783953 161.697124 
L 183.758559 161.881598 
L 185.733166 162.059285 
L 187.707772 162.217495 
L 189.682379 162.343538 
L 191.656985 162.424724 
L 193.631591 162.448362 
L 195.606198 162.403728 
L 197.580804 162.296383 
L 199.555411 162.139942 
L 201.530017 161.948077 
L 203.504623 161.73446 
L 205.47923 161.512763 
L 207.453836 161.296659 
L 209.428443 161.099819 
L 211.403049 160.935916 
L 213.377655 160.818622 
L 215.352262 160.761544 
L 217.326868 160.769406 
L 219.301475 160.828951 
L 221.276081 160.924756 
L 223.250687 161.0414 
L 225.225294 161.163457 
L 227.1999 161.275507 
L 229.174507 161.362124 
L 231.149113 161.407887 
L 233.123719 161.397372 
L 235.098326 161.315156 
L 237.072932 161.147738 
L 239.047539 160.90105 
L 241.022145 160.59231 
L 242.996751 160.238875 
L 244.971358 159.858101 
L 246.945964 159.467345 
L 248.920571 159.083962 
L 250.895177 158.725311 
L 252.869783 158.408747 
L 254.84439 158.151626 
L 256.818996 157.971274 
L 258.793603 157.875695 
L 260.768209 157.850675 
L 262.742815 157.87876 
L 264.717422 157.942496 
L 266.692028 158.024428 
L 268.666635 158.107102 
L 270.641241 158.173063 
L 272.615847 158.204858 
L 274.590454 158.185031 
L 276.56506 158.096128 
L 278.539667 157.922494 
L 280.514273 157.670946 
L 282.488879 157.363579 
L 284.463486 157.022778 
L 286.438092 156.670928 
L 288.412699 156.330416 
L 290.387305 156.023627 
L 292.361911 155.772948 
L 294.336518 155.600763 
L 296.311124 155.52946 
L 298.285731 155.581409 
L 300.260337 155.767735 
L 302.234943 156.067814 
L 304.20955 156.455457 
L 306.184156 156.904481 
L 308.158763 157.388698 
L 310.133369 157.881922 
L 312.107975 158.357967 
L 314.082582 158.790648 
L 316.057188 159.153778 
L 318.031795 159.42117 
L 320.006401 159.568036 
L 321.981007 159.591494 
L 323.955614 159.506057 
L 325.93022 159.326715 
L 327.904827 159.06846 
L 329.879433 158.746283 
L 331.854039 158.375177 
L 333.828646 157.970132 
L 335.803252 157.54614 
L 337.777859 157.118193 
L 339.752465 156.70128 
L 341.727071 156.307108 
L 343.701678 155.936356 
L 345.676284 155.587395 
L 347.650891 155.258596 
L 349.625497 154.94833 
L 351.600103 154.654967 
L 353.57471 154.376878 
L 355.549316 154.112433 
L 357.523923 153.860004 
L 359.498529 153.617962 
L 361.473135 153.384676 
L 363.447742 153.158518 
L 365.422348 152.937858 
L 367.396955 152.721067 
L 369.371561 152.506517 
L 371.346167 152.292577 
L 373.320774 152.077618 
L 375.29538 151.860012 
L 377.269987 151.638128 
L 379.244593 151.410338 
L 381.219199 151.175012 
L 381.219199 60.02125 
L 381.219199 60.02125 
L 379.244593 60.791245 
L 377.269987 61.58152 
L 375.29538 62.392109 
L 373.320774 63.223046 
L 371.346167 64.074363 
L 369.371561 64.946095 
L 367.396955 65.838276 
L 365.422348 66.750939 
L 363.447742 67.684117 
L 361.473135 68.637844 
L 359.498529 69.612154 
L 357.523923 70.607081 
L 355.549316 71.622658 
L 353.57471 72.658919 
L 351.600103 73.715897 
L 349.625497 74.793626 
L 347.650891 75.89214 
L 345.676284 77.011472 
L 343.701678 78.151656 
L 341.727071 79.312725 
L 339.752465 80.494714 
L 337.777859 81.695471 
L 335.803252 82.90242 
L 333.828646 84.099874 
L 331.854039 85.272149 
L 329.879433 86.403557 
L 327.904827 87.478413 
L 325.93022 88.481032 
L 323.955614 89.395728 
L 321.981007 90.206814 
L 320.006401 90.898604 
L 318.031795 91.455905 
L 316.057188 91.881356 
L 314.082582 92.200056 
L 312.107975 92.43854 
L 310.133369 92.623339 
L 308.158763 92.780986 
L 306.184156 92.938015 
L 304.20955 93.120958 
L 302.234943 93.356349 
L 300.260337 93.670719 
L 298.285731 94.090601 
L 296.311124 94.637112 
L 294.336518 95.300436 
L 292.361911 96.0598 
L 290.387305 96.894418 
L 288.412699 97.783504 
L 286.438092 98.706271 
L 284.463486 99.641933 
L 282.488879 100.569705 
L 280.514273 101.468799 
L 278.539667 102.31843 
L 276.56506 103.098033 
L 274.590454 103.798621 
L 272.615847 104.428238 
L 270.641241 104.996293 
L 268.666635 105.512195 
L 266.692028 105.985352 
L 264.717422 106.425172 
L 262.742815 106.841064 
L 260.768209 107.242436 
L 258.793603 107.638697 
L 256.818996 108.039255 
L 254.84439 108.452358 
L 252.869783 108.878291 
L 250.895177 109.314002 
L 248.920571 109.756427 
L 246.945964 110.202501 
L 244.971358 110.64916 
L 242.996751 111.09334 
L 241.022145 111.531976 
L 239.047539 111.962003 
L 237.072932 112.380359 
L 235.098326 112.784016 
L 233.123719 113.17305 
L 231.149113 113.552879 
L 229.174507 113.929451 
L 227.1999 114.308709 
L 225.225294 114.696603 
L 223.250687 115.099076 
L 221.276081 115.522076 
L 219.301475 115.971549 
L 217.326868 116.453441 
L 215.352262 116.973698 
L 213.377655 117.536977 
L 211.403049 118.137236 
L 209.428443 118.763148 
L 207.453836 119.403344 
L 205.47923 120.046459 
L 203.504623 120.681126 
L 201.530017 121.295978 
L 199.555411 121.879648 
L 197.580804 122.420771 
L 195.606198 122.907978 
L 193.631591 123.329956 
L 191.656985 123.682915 
L 189.682379 123.978274 
L 187.707772 124.229288 
L 185.733166 124.449212 
L 183.758559 124.651301 
L 181.783953 124.848811 
L 179.809347 125.054995 
L 177.83474 125.28311 
L 175.860134 125.54641 
L 173.885527 125.858151 
L 171.910921 126.230017 
L 169.936315 126.657813 
L 167.961708 127.128123 
L 165.987102 127.627417 
L 164.012495 128.142166 
L 162.037889 128.658841 
L 160.063283 129.163911 
L 158.088676 129.643847 
L 156.11407 130.08512 
L 154.139463 130.474199 
L 152.164857 130.797581 
L 150.190251 131.048924 
L 148.215644 131.238974 
L 146.241038 131.380964 
L 144.266431 131.488131 
L 142.291825 131.573708 
L 140.317219 131.650931 
L 138.342612 131.733036 
L 136.368006 131.833256 
L 134.393399 131.964828 
L 132.418793 132.140986 
L 130.444187 132.374258 
L 128.46958 132.668336 
L 126.494974 133.020907 
L 124.520367 133.429543 
L 122.545761 133.891815 
L 120.571155 134.405295 
L 118.596548 134.967555 
L 116.621942 135.576167 
L 114.647335 136.228702 
L 112.672729 136.922733 
L 110.698123 137.655826 
L 108.723516 138.422349 
L 106.74891 139.207632 
L 104.774304 139.995423 
L 102.799697 140.76947 
L 100.825091 141.513521 
L 98.850484 142.211323 
L 96.875878 142.846626 
L 94.901272 143.403176 
L 92.926665 143.864722 
L 90.952059 144.215011 
L 88.977452 144.439108 
L 87.002846 144.542725 
L 85.02824 144.547965 
L 83.053633 144.477385 
L 81.079027 144.35354 
L 79.10442 144.198988 
L 77.129814 144.036284 
L 75.155208 143.887984 
L 73.180601 143.776644 
L 71.205995 143.724821 
L 69.231388 143.755069 
L 67.256782 143.883228 
L 65.282176 144.102612 
L 63.307569 144.401816 
L 61.332963 144.769432 
L 59.358356 145.194055 
L 57.38375 145.66428 
L 55.409144 146.1687 
L 53.434537 146.695909 
L 51.459931 147.234502 
L 49.485324 147.773072 
L 47.510718 148.300214 
L 45.536112 148.804522 
L 43.561505 149.274589 
L 41.586899 149.699011 
L 39.612292 150.066381 
L 37.637686 150.365292 
L 35.66308 150.584341 
L 33.688473 150.712119 
L 31.713867 150.737222 
L 29.73926 150.648243 
L 27.764654 150.433777 
z
" clip-path="url(#p9d87e31204)" style="fill: #ff7f0e"/>
   </g>
   <g id="matplotlib.axis_1">
    <g id="xtick_1">
     <g id="line2d_1">
      <defs>
       <path id="m453c72ebfa" d="M 0 0 
L 0 3.5 
" style="stroke: #000000; stroke-width: 0.8"/>
      </defs>
      <g>
       <use xlink:href="#m453c72ebfa" x="27.764654" y="314.12125" style="stroke: #000000; stroke-width: 0.8"/>
      </g>
     </g>
     <g id="text_1">
      <!-- 1999 -->
      <g transform="translate(12.109973 340.173358) rotate(-45) scale(0.1 -0.1)">
       <defs>
        <path id="TimesNewRomanPSMT-31" d="M 750 3822 
L 1781 4325 
L 1884 4325 
L 1884 747 
Q 1884 391 1914 303 
Q 1944 216 2037 169 
Q 2131 122 2419 116 
L 2419 0 
L 825 0 
L 825 116 
Q 1125 122 1212 167 
Q 1300 213 1334 289 
Q 1369 366 1369 747 
L 1369 3034 
Q 1369 3497 1338 3628 
Q 1316 3728 1258 3775 
Q 1200 3822 1119 3822 
Q 1003 3822 797 3725 
L 750 3822 
z
" transform="scale(0.015625)"/>
        <path id="TimesNewRomanPSMT-39" d="M 338 -88 
L 338 28 
Q 744 34 1094 217 
Q 1444 400 1770 856 
Q 2097 1313 2225 1859 
Q 1734 1544 1338 1544 
Q 891 1544 572 1889 
Q 253 2234 253 2806 
Q 253 3363 572 3797 
Q 956 4325 1575 4325 
Q 2097 4325 2469 3894 
Q 2925 3359 2925 2575 
Q 2925 1869 2578 1258 
Q 2231 647 1613 244 
Q 1109 -88 516 -88 
L 338 -88 
z
M 2275 2091 
Q 2331 2497 2331 2741 
Q 2331 3044 2228 3395 
Q 2125 3747 1936 3934 
Q 1747 4122 1506 4122 
Q 1228 4122 1018 3872 
Q 809 3622 809 3128 
Q 809 2469 1088 2097 
Q 1291 1828 1588 1828 
Q 1731 1828 1928 1897 
Q 2125 1966 2275 2091 
z
" transform="scale(0.015625)"/>
       </defs>
       <use xlink:href="#TimesNewRomanPSMT-31"/>
       <use xlink:href="#TimesNewRomanPSMT-39" transform="translate(50 0)"/>
       <use xlink:href="#TimesNewRomanPSMT-39" transform="translate(100 0)"/>
       <use xlink:href="#TimesNewRomanPSMT-39" transform="translate(150 0)"/>
      </g>
     </g>
    </g>
    <g id="xtick_2">
     <g id="line2d_2">
      <g>
       <use xlink:href="#m453c72ebfa" x="48.556098" y="314.12125" style="stroke: #000000; stroke-width: 0.8"/>
      </g>
     </g>
     <g id="text_2">
      <!-- 2000 -->
      <g transform="translate(32.901417 340.173358) rotate(-45) scale(0.1 -0.1)">
       <defs>
        <path id="TimesNewRomanPSMT-32" d="M 2934 816 
L 2638 0 
L 138 0 
L 138 116 
Q 1241 1122 1691 1759 
Q 2141 2397 2141 2925 
Q 2141 3328 1894 3587 
Q 1647 3847 1303 3847 
Q 991 3847 742 3664 
Q 494 3481 375 3128 
L 259 3128 
Q 338 3706 661 4015 
Q 984 4325 1469 4325 
Q 1984 4325 2329 3994 
Q 2675 3663 2675 3213 
Q 2675 2891 2525 2569 
Q 2294 2063 1775 1497 
Q 997 647 803 472 
L 1909 472 
Q 2247 472 2383 497 
Q 2519 522 2628 598 
Q 2738 675 2819 816 
L 2934 816 
z
" transform="scale(0.015625)"/>
        <path id="TimesNewRomanPSMT-30" d="M 231 2094 
Q 231 2819 450 3342 
Q 669 3866 1031 4122 
Q 1313 4325 1613 4325 
Q 2100 4325 2488 3828 
Q 2972 3213 2972 2159 
Q 2972 1422 2759 906 
Q 2547 391 2217 158 
Q 1888 -75 1581 -75 
Q 975 -75 572 641 
Q 231 1244 231 2094 
z
M 844 2016 
Q 844 1141 1059 588 
Q 1238 122 1591 122 
Q 1759 122 1940 273 
Q 2122 425 2216 781 
Q 2359 1319 2359 2297 
Q 2359 3022 2209 3506 
Q 2097 3866 1919 4016 
Q 1791 4119 1609 4119 
Q 1397 4119 1231 3928 
Q 1006 3669 925 3112 
Q 844 2556 844 2016 
z
" transform="scale(0.015625)"/>
       </defs>
       <use xlink:href="#TimesNewRomanPSMT-32"/>
       <use xlink:href="#TimesNewRomanPSMT-30" transform="translate(50 0)"/>
       <use xlink:href="#TimesNewRomanPSMT-30" transform="translate(100 0)"/>
       <use xlink:href="#TimesNewRomanPSMT-30" transform="translate(150 0)"/>
      </g>
     </g>
    </g>
    <g id="xtick_3">
     <g id="line2d_3">
      <g>
       <use xlink:href="#m453c72ebfa" x="69.347542" y="314.12125" style="stroke: #000000; stroke-width: 0.8"/>
      </g>
     </g>
     <g id="text_3">
      <!-- 2001 -->
      <g transform="translate(53.69286 340.173358) rotate(-45) scale(0.1 -0.1)">
       <use xlink:href="#TimesNewRomanPSMT-32"/>
       <use xlink:href="#TimesNewRomanPSMT-30" transform="translate(50 0)"/>
       <use xlink:href="#TimesNewRomanPSMT-30" transform="translate(100 0)"/>
       <use xlink:href="#TimesNewRomanPSMT-31" transform="translate(150 0)"/>
      </g>
     </g>
    </g>
    <g id="xtick_4">
     <g id="line2d_4">
      <g>
       <use xlink:href="#m453c72ebfa" x="90.138985" y="314.12125" style="stroke: #000000; stroke-width: 0.8"/>
      </g>
     </g>
     <g id="text_4">
      <!-- 2002 -->
      <g transform="translate(74.484304 340.173358) rotate(-45) scale(0.1 -0.1)">
       <use xlink:href="#TimesNewRomanPSMT-32"/>
       <use xlink:href="#TimesNewRomanPSMT-30" transform="translate(50 0)"/>
       <use xlink:href="#TimesNewRomanPSMT-30" transform="translate(100 0)"/>
       <use xlink:href="#TimesNewRomanPSMT-32" transform="translate(150 0)"/>
      </g>
     </g>
    </g>
    <g id="xtick_5">
     <g id="line2d_5">
      <g>
       <use xlink:href="#m453c72ebfa" x="110.930429" y="314.12125" style="stroke: #000000; stroke-width: 0.8"/>
      </g>
     </g>
     <g id="text_5">
      <!-- 2003 -->
      <g transform="translate(95.275748 340.173358) rotate(-45) scale(0.1 -0.1)">
       <defs>
        <path id="TimesNewRomanPSMT-33" d="M 325 3431 
Q 506 3859 782 4092 
Q 1059 4325 1472 4325 
Q 1981 4325 2253 3994 
Q 2459 3747 2459 3466 
Q 2459 3003 1878 2509 
Q 2269 2356 2469 2072 
Q 2669 1788 2669 1403 
Q 2669 853 2319 450 
Q 1863 -75 997 -75 
Q 569 -75 414 31 
Q 259 138 259 259 
Q 259 350 332 419 
Q 406 488 509 488 
Q 588 488 669 463 
Q 722 447 909 348 
Q 1097 250 1169 231 
Q 1284 197 1416 197 
Q 1734 197 1970 444 
Q 2206 691 2206 1028 
Q 2206 1275 2097 1509 
Q 2016 1684 1919 1775 
Q 1784 1900 1550 2001 
Q 1316 2103 1072 2103 
L 972 2103 
L 972 2197 
Q 1219 2228 1467 2375 
Q 1716 2522 1828 2728 
Q 1941 2934 1941 3181 
Q 1941 3503 1739 3701 
Q 1538 3900 1238 3900 
Q 753 3900 428 3381 
L 325 3431 
z
" transform="scale(0.015625)"/>
       </defs>
       <use xlink:href="#TimesNewRomanPSMT-32"/>
       <use xlink:href="#TimesNewRomanPSMT-30" transform="translate(50 0)"/>
       <use xlink:href="#TimesNewRomanPSMT-30" transform="translate(100 0)"/>
       <use xlink:href="#TimesNewRomanPSMT-33" transform="translate(150 0)"/>
      </g>
     </g>
    </g>
    <g id="xtick_6">
     <g id="line2d_6">
      <g>
       <use xlink:href="#m453c72ebfa" x="131.721873" y="314.12125" style="stroke: #000000; stroke-width: 0.8"/>
      </g>
     </g>
     <g id="text_6">
      <!-- 2004 -->
      <g transform="translate(116.067192 340.173358) rotate(-45) scale(0.1 -0.1)">
       <defs>
        <path id="TimesNewRomanPSMT-34" d="M 2978 1563 
L 2978 1119 
L 2409 1119 
L 2409 0 
L 1894 0 
L 1894 1119 
L 100 1119 
L 100 1519 
L 2066 4325 
L 2409 4325 
L 2409 1563 
L 2978 1563 
z
M 1894 1563 
L 1894 3666 
L 406 1563 
L 1894 1563 
z
" transform="scale(0.015625)"/>
       </defs>
       <use xlink:href="#TimesNewRomanPSMT-32"/>
       <use xlink:href="#TimesNewRomanPSMT-30" transform="translate(50 0)"/>
       <use xlink:href="#TimesNewRomanPSMT-30" transform="translate(100 0)"/>
       <use xlink:href="#TimesNewRomanPSMT-34" transform="translate(150 0)"/>
      </g>
     </g>
    </g>
    <g id="xtick_7">
     <g id="line2d_7">
      <g>
       <use xlink:href="#m453c72ebfa" x="152.513317" y="314.12125" style="stroke: #000000; stroke-width: 0.8"/>
      </g>
     </g>
     <g id="text_7">
      <!-- 2005 -->
      <g transform="translate(136.858636 340.173358) rotate(-45) scale(0.1 -0.1)">
       <defs>
        <path id="TimesNewRomanPSMT-35" d="M 2778 4238 
L 2534 3706 
L 1259 3706 
L 981 3138 
Q 1809 3016 2294 2522 
Q 2709 2097 2709 1522 
Q 2709 1188 2573 903 
Q 2438 619 2231 419 
Q 2025 219 1772 97 
Q 1413 -75 1034 -75 
Q 653 -75 479 54 
Q 306 184 306 341 
Q 306 428 378 495 
Q 450 563 559 563 
Q 641 563 702 538 
Q 763 513 909 409 
Q 1144 247 1384 247 
Q 1750 247 2026 523 
Q 2303 800 2303 1197 
Q 2303 1581 2056 1914 
Q 1809 2247 1375 2428 
Q 1034 2569 447 2591 
L 1259 4238 
L 2778 4238 
z
" transform="scale(0.015625)"/>
       </defs>
       <use xlink:href="#TimesNewRomanPSMT-32"/>
       <use xlink:href="#TimesNewRomanPSMT-30" transform="translate(50 0)"/>
       <use xlink:href="#TimesNewRomanPSMT-30" transform="translate(100 0)"/>
       <use xlink:href="#TimesNewRomanPSMT-35" transform="translate(150 0)"/>
      </g>
     </g>
    </g>
    <g id="xtick_8">
     <g id="line2d_8">
      <g>
       <use xlink:href="#m453c72ebfa" x="173.304761" y="314.12125" style="stroke: #000000; stroke-width: 0.8"/>
      </g>
     </g>
     <g id="text_8">
      <!-- 2006 -->
      <g transform="translate(157.65008 340.173358) rotate(-45) scale(0.1 -0.1)">
       <defs>
        <path id="TimesNewRomanPSMT-36" d="M 2869 4325 
L 2869 4209 
Q 2456 4169 2195 4045 
Q 1934 3922 1679 3669 
Q 1425 3416 1258 3105 
Q 1091 2794 978 2366 
Q 1428 2675 1881 2675 
Q 2316 2675 2634 2325 
Q 2953 1975 2953 1425 
Q 2953 894 2631 456 
Q 2244 -75 1606 -75 
Q 1172 -75 869 213 
Q 275 772 275 1663 
Q 275 2231 503 2743 
Q 731 3256 1154 3653 
Q 1578 4050 1965 4187 
Q 2353 4325 2688 4325 
L 2869 4325 
z
M 925 2138 
Q 869 1716 869 1456 
Q 869 1156 980 804 
Q 1091 453 1309 247 
Q 1469 100 1697 100 
Q 1969 100 2183 356 
Q 2397 613 2397 1088 
Q 2397 1622 2184 2012 
Q 1972 2403 1581 2403 
Q 1463 2403 1327 2353 
Q 1191 2303 925 2138 
z
" transform="scale(0.015625)"/>
       </defs>
       <use xlink:href="#TimesNewRomanPSMT-32"/>
       <use xlink:href="#TimesNewRomanPSMT-30" transform="translate(50 0)"/>
       <use xlink:href="#TimesNewRomanPSMT-30" transform="translate(100 0)"/>
       <use xlink:href="#TimesNewRomanPSMT-36" transform="translate(150 0)"/>
      </g>
     </g>
    </g>
    <g id="xtick_9">
     <g id="line2d_9">
      <g>
       <use xlink:href="#m453c72ebfa" x="194.096205" y="314.12125" style="stroke: #000000; stroke-width: 0.8"/>
      </g>
     </g>
     <g id="text_9">
      <!-- 2007 -->
      <g transform="translate(178.441524 340.173358) rotate(-45) scale(0.1 -0.1)">
       <defs>
        <path id="TimesNewRomanPSMT-37" d="M 644 4238 
L 2916 4238 
L 2916 4119 
L 1503 -88 
L 1153 -88 
L 2419 3728 
L 1253 3728 
Q 900 3728 750 3644 
Q 488 3500 328 3200 
L 238 3234 
L 644 4238 
z
" transform="scale(0.015625)"/>
       </defs>
       <use xlink:href="#TimesNewRomanPSMT-32"/>
       <use xlink:href="#TimesNewRomanPSMT-30" transform="translate(50 0)"/>
       <use xlink:href="#TimesNewRomanPSMT-30" transform="translate(100 0)"/>
       <use xlink:href="#TimesNewRomanPSMT-37" transform="translate(150 0)"/>
      </g>
     </g>
    </g>
    <g id="xtick_10">
     <g id="line2d_10">
      <g>
       <use xlink:href="#m453c72ebfa" x="214.887649" y="314.12125" style="stroke: #000000; stroke-width: 0.8"/>
      </g>
     </g>
     <g id="text_10">
      <!-- 2008 -->
      <g transform="translate(199.232967 340.173358) rotate(-45) scale(0.1 -0.1)">
       <defs>
        <path id="TimesNewRomanPSMT-38" d="M 1228 2134 
Q 725 2547 579 2797 
Q 434 3047 434 3316 
Q 434 3728 753 4026 
Q 1072 4325 1600 4325 
Q 2113 4325 2425 4047 
Q 2738 3769 2738 3413 
Q 2738 3175 2569 2928 
Q 2400 2681 1866 2347 
Q 2416 1922 2594 1678 
Q 2831 1359 2831 1006 
Q 2831 559 2490 242 
Q 2150 -75 1597 -75 
Q 994 -75 656 303 
Q 388 606 388 966 
Q 388 1247 577 1523 
Q 766 1800 1228 2134 
z
M 1719 2469 
Q 2094 2806 2194 3001 
Q 2294 3197 2294 3444 
Q 2294 3772 2109 3958 
Q 1925 4144 1606 4144 
Q 1288 4144 1088 3959 
Q 888 3775 888 3528 
Q 888 3366 970 3203 
Q 1053 3041 1206 2894 
L 1719 2469 
z
M 1375 2016 
Q 1116 1797 991 1539 
Q 866 1281 866 981 
Q 866 578 1086 336 
Q 1306 94 1647 94 
Q 1984 94 2187 284 
Q 2391 475 2391 747 
Q 2391 972 2272 1150 
Q 2050 1481 1375 2016 
z
" transform="scale(0.015625)"/>
       </defs>
       <use xlink:href="#TimesNewRomanPSMT-32"/>
       <use xlink:href="#TimesNewRomanPSMT-30" transform="translate(50 0)"/>
       <use xlink:href="#TimesNewRomanPSMT-30" transform="translate(100 0)"/>
       <use xlink:href="#TimesNewRomanPSMT-38" transform="translate(150 0)"/>
      </g>
     </g>
    </g>
    <g id="xtick_11">
     <g id="line2d_11">
      <g>
       <use xlink:href="#m453c72ebfa" x="235.679092" y="314.12125" style="stroke: #000000; stroke-width: 0.8"/>
      </g>
     </g>
     <g id="text_11">
      <!-- 2009 -->
      <g transform="translate(220.024411 340.173358) rotate(-45) scale(0.1 -0.1)">
       <use xlink:href="#TimesNewRomanPSMT-32"/>
       <use xlink:href="#TimesNewRomanPSMT-30" transform="translate(50 0)"/>
       <use xlink:href="#TimesNewRomanPSMT-30" transform="translate(100 0)"/>
       <use xlink:href="#TimesNewRomanPSMT-39" transform="translate(150 0)"/>
      </g>
     </g>
    </g>
    <g id="xtick_12">
     <g id="line2d_12">
      <g>
       <use xlink:href="#m453c72ebfa" x="256.470536" y="314.12125" style="stroke: #000000; stroke-width: 0.8"/>
      </g>
     </g>
     <g id="text_12">
      <!-- 2010 -->
      <g transform="translate(240.815855 340.173358) rotate(-45) scale(0.1 -0.1)">
       <use xlink:href="#TimesNewRomanPSMT-32"/>
       <use xlink:href="#TimesNewRomanPSMT-30" transform="translate(50 0)"/>
       <use xlink:href="#TimesNewRomanPSMT-31" transform="translate(100 0)"/>
       <use xlink:href="#TimesNewRomanPSMT-30" transform="translate(150 0)"/>
      </g>
     </g>
    </g>
    <g id="xtick_13">
     <g id="line2d_13">
      <g>
       <use xlink:href="#m453c72ebfa" x="277.26198" y="314.12125" style="stroke: #000000; stroke-width: 0.8"/>
      </g>
     </g>
     <g id="text_13">
      <!-- 2011 -->
      <g transform="translate(261.872464 339.908193) rotate(-45) scale(0.1 -0.1)">
       <use xlink:href="#TimesNewRomanPSMT-32"/>
       <use xlink:href="#TimesNewRomanPSMT-30" transform="translate(50 0)"/>
       <use xlink:href="#TimesNewRomanPSMT-31" transform="translate(100 0)"/>
       <use xlink:href="#TimesNewRomanPSMT-31" transform="translate(146.25 0)"/>
      </g>
     </g>
    </g>
    <g id="xtick_14">
     <g id="line2d_14">
      <g>
       <use xlink:href="#m453c72ebfa" x="298.053424" y="314.12125" style="stroke: #000000; stroke-width: 0.8"/>
      </g>
     </g>
     <g id="text_14">
      <!-- 2012 -->
      <g transform="translate(282.398743 340.173358) rotate(-45) scale(0.1 -0.1)">
       <use xlink:href="#TimesNewRomanPSMT-32"/>
       <use xlink:href="#TimesNewRomanPSMT-30" transform="translate(50 0)"/>
       <use xlink:href="#TimesNewRomanPSMT-31" transform="translate(100 0)"/>
       <use xlink:href="#TimesNewRomanPSMT-32" transform="translate(150 0)"/>
      </g>
     </g>
    </g>
    <g id="xtick_15">
     <g id="line2d_15">
      <g>
       <use xlink:href="#m453c72ebfa" x="318.844868" y="314.12125" style="stroke: #000000; stroke-width: 0.8"/>
      </g>
     </g>
     <g id="text_15">
      <!-- 2013 -->
      <g transform="translate(303.190187 340.173358) rotate(-45) scale(0.1 -0.1)">
       <use xlink:href="#TimesNewRomanPSMT-32"/>
       <use xlink:href="#TimesNewRomanPSMT-30" transform="translate(50 0)"/>
       <use xlink:href="#TimesNewRomanPSMT-31" transform="translate(100 0)"/>
       <use xlink:href="#TimesNewRomanPSMT-33" transform="translate(150 0)"/>
      </g>
     </g>
    </g>
    <g id="xtick_16">
     <g id="line2d_16">
      <g>
       <use xlink:href="#m453c72ebfa" x="339.636312" y="314.12125" style="stroke: #000000; stroke-width: 0.8"/>
      </g>
     </g>
     <g id="text_16">
      <!-- 2014 -->
      <g transform="translate(323.98163 340.173358) rotate(-45) scale(0.1 -0.1)">
       <use xlink:href="#TimesNewRomanPSMT-32"/>
       <use xlink:href="#TimesNewRomanPSMT-30" transform="translate(50 0)"/>
       <use xlink:href="#TimesNewRomanPSMT-31" transform="translate(100 0)"/>
       <use xlink:href="#TimesNewRomanPSMT-34" transform="translate(150 0)"/>
      </g>
     </g>
    </g>
    <g id="xtick_17">
     <g id="line2d_17">
      <g>
       <use xlink:href="#m453c72ebfa" x="360.427756" y="314.12125" style="stroke: #000000; stroke-width: 0.8"/>
      </g>
     </g>
     <g id="text_17">
      <!-- 2015 -->
      <g transform="translate(344.773074 340.173358) rotate(-45) scale(0.1 -0.1)">
       <use xlink:href="#TimesNewRomanPSMT-32"/>
       <use xlink:href="#TimesNewRomanPSMT-30" transform="translate(50 0)"/>
       <use xlink:href="#TimesNewRomanPSMT-31" transform="translate(100 0)"/>
       <use xlink:href="#TimesNewRomanPSMT-35" transform="translate(150 0)"/>
      </g>
     </g>
    </g>
    <g id="xtick_18">
     <g id="line2d_18">
      <g>
       <use xlink:href="#m453c72ebfa" x="381.219199" y="314.12125" style="stroke: #000000; stroke-width: 0.8"/>
      </g>
     </g>
     <g id="text_18">
      <!-- 2016 -->
      <g transform="translate(365.564518 340.173358) rotate(-45) scale(0.1 -0.1)">
       <use xlink:href="#TimesNewRomanPSMT-32"/>
       <use xlink:href="#TimesNewRomanPSMT-30" transform="translate(50 0)"/>
       <use xlink:href="#TimesNewRomanPSMT-31" transform="translate(100 0)"/>
       <use xlink:href="#TimesNewRomanPSMT-36" transform="translate(150 0)"/>
      </g>
     </g>
    </g>
    <g id="text_19">
     <!-- Year -->
     <g transform="translate(193.434114 354.018404) scale(0.12 -0.12)">
      <defs>
       <path id="TimesNewRomanPSMT-59" d="M 3050 4238 
L 4528 4238 
L 4528 4122 
L 4447 4122 
Q 4366 4122 4209 4050 
Q 4053 3978 3925 3843 
Q 3797 3709 3609 3406 
L 2588 1797 
L 2588 734 
Q 2588 344 2675 247 
Q 2794 116 3050 116 
L 3188 116 
L 3188 0 
L 1388 0 
L 1388 116 
L 1538 116 
Q 1806 116 1919 278 
Q 1988 378 1988 734 
L 1988 1738 
L 825 3513 
Q 619 3825 545 3903 
Q 472 3981 241 4091 
Q 178 4122 59 4122 
L 59 4238 
L 1872 4238 
L 1872 4122 
L 1778 4122 
Q 1631 4122 1507 4053 
Q 1384 3984 1384 3847 
Q 1384 3734 1575 3441 
L 2459 2075 
L 3291 3381 
Q 3478 3675 3478 3819 
Q 3478 3906 3433 3975 
Q 3388 4044 3303 4083 
Q 3219 4122 3050 4122 
L 3050 4238 
z
" transform="scale(0.015625)"/>
       <path id="TimesNewRomanPSMT-65" d="M 681 1784 
Q 678 1147 991 784 
Q 1303 422 1725 422 
Q 2006 422 2214 576 
Q 2422 731 2563 1106 
L 2659 1044 
Q 2594 616 2278 264 
Q 1963 -88 1488 -88 
Q 972 -88 605 314 
Q 238 716 238 1394 
Q 238 2128 614 2539 
Q 991 2950 1559 2950 
Q 2041 2950 2350 2633 
Q 2659 2316 2659 1784 
L 681 1784 
z
M 681 1966 
L 2006 1966 
Q 1991 2241 1941 2353 
Q 1863 2528 1708 2628 
Q 1553 2728 1384 2728 
Q 1125 2728 920 2526 
Q 716 2325 681 1966 
z
" transform="scale(0.015625)"/>
       <path id="TimesNewRomanPSMT-61" d="M 1822 413 
Q 1381 72 1269 19 
Q 1100 -59 909 -59 
Q 613 -59 420 144 
Q 228 347 228 678 
Q 228 888 322 1041 
Q 450 1253 767 1440 
Q 1084 1628 1822 1897 
L 1822 2009 
Q 1822 2438 1686 2597 
Q 1550 2756 1291 2756 
Q 1094 2756 978 2650 
Q 859 2544 859 2406 
L 866 2225 
Q 866 2081 792 2003 
Q 719 1925 600 1925 
Q 484 1925 411 2006 
Q 338 2088 338 2228 
Q 338 2497 613 2722 
Q 888 2947 1384 2947 
Q 1766 2947 2009 2819 
Q 2194 2722 2281 2516 
Q 2338 2381 2338 1966 
L 2338 994 
Q 2338 584 2353 492 
Q 2369 400 2405 369 
Q 2441 338 2488 338 
Q 2538 338 2575 359 
Q 2641 400 2828 588 
L 2828 413 
Q 2478 -56 2159 -56 
Q 2006 -56 1915 50 
Q 1825 156 1822 413 
z
M 1822 616 
L 1822 1706 
Q 1350 1519 1213 1441 
Q 966 1303 859 1153 
Q 753 1003 753 825 
Q 753 600 887 451 
Q 1022 303 1197 303 
Q 1434 303 1822 616 
z
" transform="scale(0.015625)"/>
       <path id="TimesNewRomanPSMT-72" d="M 1038 2947 
L 1038 2303 
Q 1397 2947 1775 2947 
Q 1947 2947 2059 2842 
Q 2172 2738 2172 2600 
Q 2172 2478 2090 2393 
Q 2009 2309 1897 2309 
Q 1788 2309 1652 2417 
Q 1516 2525 1450 2525 
Q 1394 2525 1328 2463 
Q 1188 2334 1038 2041 
L 1038 669 
Q 1038 431 1097 309 
Q 1138 225 1241 169 
Q 1344 113 1538 113 
L 1538 0 
L 72 0 
L 72 113 
Q 291 113 397 181 
Q 475 231 506 341 
Q 522 394 522 644 
L 522 1753 
Q 522 2253 501 2348 
Q 481 2444 426 2487 
Q 372 2531 291 2531 
Q 194 2531 72 2484 
L 41 2597 
L 906 2947 
L 1038 2947 
z
" transform="scale(0.015625)"/>
      </defs>
      <use xlink:href="#TimesNewRomanPSMT-59"/>
      <use xlink:href="#TimesNewRomanPSMT-65" transform="translate(62.216797 0)"/>
      <use xlink:href="#TimesNewRomanPSMT-61" transform="translate(106.601562 0)"/>
      <use xlink:href="#TimesNewRomanPSMT-72" transform="translate(150.986328 0)"/>
     </g>
    </g>
   </g>
   <g id="patch_3">
    <path d="M 10.091927 314.12125 
L 10.091927 36.92125 
" style="fill: none; stroke: #000000; stroke-width: 0.8; stroke-linejoin: miter; stroke-linecap: square"/>
   </g>
   <g id="patch_4">
    <path d="M 398.891927 314.12125 
L 398.891927 36.92125 
" style="fill: none; stroke: #000000; stroke-width: 0.8; stroke-linejoin: miter; stroke-linecap: square"/>
   </g>
   <g id="patch_5">
    <path d="M 10.091927 314.12125 
L 398.891927 314.12125 
" style="fill: none; stroke: #000000; stroke-width: 0.8; stroke-linejoin: miter; stroke-linecap: square"/>
   </g>
   <g id="patch_6">
    <path d="M 10.091927 36.92125 
L 398.891927 36.92125 
" style="fill: none; stroke: #000000; stroke-width: 0.8; stroke-linejoin: miter; stroke-linecap: square"/>
   </g>
   <g id="text_20">
    <!-- Turnover Rate from 1999 to 2016 (%)  -->
    <g transform="translate(96.070677 16.92125) scale(0.14 -0.14)">
     <defs>
      <path id="TimesNewRomanPSMT-54" d="M 3703 4238 
L 3750 3244 
L 3631 3244 
Q 3597 3506 3538 3619 
Q 3441 3800 3280 3886 
Q 3119 3972 2856 3972 
L 2259 3972 
L 2259 734 
Q 2259 344 2344 247 
Q 2463 116 2709 116 
L 2856 116 
L 2856 0 
L 1059 0 
L 1059 116 
L 1209 116 
Q 1478 116 1591 278 
Q 1659 378 1659 734 
L 1659 3972 
L 1150 3972 
Q 853 3972 728 3928 
Q 566 3869 450 3700 
Q 334 3531 313 3244 
L 194 3244 
L 244 4238 
L 3703 4238 
z
" transform="scale(0.015625)"/>
      <path id="TimesNewRomanPSMT-75" d="M 2709 2863 
L 2709 1128 
Q 2709 631 2732 520 
Q 2756 409 2807 365 
Q 2859 322 2928 322 
Q 3025 322 3147 375 
L 3191 266 
L 2334 -88 
L 2194 -88 
L 2194 519 
Q 1825 119 1631 15 
Q 1438 -88 1222 -88 
Q 981 -88 804 51 
Q 628 191 559 409 
Q 491 628 491 1028 
L 491 2306 
Q 491 2509 447 2587 
Q 403 2666 317 2708 
Q 231 2750 6 2747 
L 6 2863 
L 1009 2863 
L 1009 947 
Q 1009 547 1148 422 
Q 1288 297 1484 297 
Q 1619 297 1789 381 
Q 1959 466 2194 703 
L 2194 2325 
Q 2194 2569 2105 2655 
Q 2016 2741 1734 2747 
L 1734 2863 
L 2709 2863 
z
" transform="scale(0.015625)"/>
      <path id="TimesNewRomanPSMT-6e" d="M 1034 2341 
Q 1538 2947 1994 2947 
Q 2228 2947 2397 2830 
Q 2566 2713 2666 2444 
Q 2734 2256 2734 1869 
L 2734 647 
Q 2734 375 2778 278 
Q 2813 200 2889 156 
Q 2966 113 3172 113 
L 3172 0 
L 1756 0 
L 1756 113 
L 1816 113 
Q 2016 113 2095 173 
Q 2175 234 2206 353 
Q 2219 400 2219 647 
L 2219 1819 
Q 2219 2209 2117 2386 
Q 2016 2563 1775 2563 
Q 1403 2563 1034 2156 
L 1034 647 
Q 1034 356 1069 288 
Q 1113 197 1189 155 
Q 1266 113 1500 113 
L 1500 0 
L 84 0 
L 84 113 
L 147 113 
Q 366 113 442 223 
Q 519 334 519 647 
L 519 1709 
Q 519 2225 495 2337 
Q 472 2450 423 2490 
Q 375 2531 294 2531 
Q 206 2531 84 2484 
L 38 2597 
L 900 2947 
L 1034 2947 
L 1034 2341 
z
" transform="scale(0.015625)"/>
      <path id="TimesNewRomanPSMT-6f" d="M 1600 2947 
Q 2250 2947 2644 2453 
Q 2978 2031 2978 1484 
Q 2978 1100 2793 706 
Q 2609 313 2286 112 
Q 1963 -88 1566 -88 
Q 919 -88 538 428 
Q 216 863 216 1403 
Q 216 1797 411 2186 
Q 606 2575 925 2761 
Q 1244 2947 1600 2947 
z
M 1503 2744 
Q 1338 2744 1170 2645 
Q 1003 2547 900 2300 
Q 797 2053 797 1666 
Q 797 1041 1045 587 
Q 1294 134 1700 134 
Q 2003 134 2200 384 
Q 2397 634 2397 1244 
Q 2397 2006 2069 2444 
Q 1847 2744 1503 2744 
z
" transform="scale(0.015625)"/>
      <path id="TimesNewRomanPSMT-76" d="M 53 2863 
L 1400 2863 
L 1400 2747 
L 1313 2747 
Q 1191 2747 1127 2687 
Q 1063 2628 1063 2528 
Q 1063 2419 1128 2269 
L 1794 688 
L 2463 2328 
Q 2534 2503 2534 2594 
Q 2534 2638 2509 2666 
Q 2475 2713 2422 2730 
Q 2369 2747 2206 2747 
L 2206 2863 
L 3141 2863 
L 3141 2747 
Q 2978 2734 2916 2681 
Q 2806 2588 2719 2369 
L 1703 -88 
L 1575 -88 
L 553 2328 
Q 484 2497 421 2570 
Q 359 2644 263 2694 
Q 209 2722 53 2747 
L 53 2863 
z
" transform="scale(0.015625)"/>
      <path id="TimesNewRomanPSMT-20" transform="scale(0.015625)"/>
      <path id="TimesNewRomanPSMT-52" d="M 4325 0 
L 3194 0 
L 1759 1981 
Q 1600 1975 1500 1975 
Q 1459 1975 1412 1976 
Q 1366 1978 1316 1981 
L 1316 750 
Q 1316 350 1403 253 
Q 1522 116 1759 116 
L 1925 116 
L 1925 0 
L 109 0 
L 109 116 
L 269 116 
Q 538 116 653 291 
Q 719 388 719 750 
L 719 3488 
Q 719 3888 631 3984 
Q 509 4122 269 4122 
L 109 4122 
L 109 4238 
L 1653 4238 
Q 2328 4238 2648 4139 
Q 2969 4041 3192 3777 
Q 3416 3513 3416 3147 
Q 3416 2756 3161 2468 
Q 2906 2181 2372 2063 
L 3247 847 
Q 3547 428 3762 290 
Q 3978 153 4325 116 
L 4325 0 
z
M 1316 2178 
Q 1375 2178 1419 2176 
Q 1463 2175 1491 2175 
Q 2097 2175 2405 2437 
Q 2713 2700 2713 3106 
Q 2713 3503 2464 3751 
Q 2216 4000 1806 4000 
Q 1625 4000 1316 3941 
L 1316 2178 
z
" transform="scale(0.015625)"/>
      <path id="TimesNewRomanPSMT-74" d="M 1031 3803 
L 1031 2863 
L 1700 2863 
L 1700 2644 
L 1031 2644 
L 1031 788 
Q 1031 509 1111 412 
Q 1191 316 1316 316 
Q 1419 316 1516 380 
Q 1613 444 1666 569 
L 1788 569 
Q 1678 263 1478 108 
Q 1278 -47 1066 -47 
Q 922 -47 784 33 
Q 647 113 581 261 
Q 516 409 516 719 
L 516 2644 
L 63 2644 
L 63 2747 
Q 234 2816 414 2980 
Q 594 3144 734 3369 
Q 806 3488 934 3803 
L 1031 3803 
z
" transform="scale(0.015625)"/>
      <path id="TimesNewRomanPSMT-66" d="M 1319 2638 
L 1319 756 
Q 1319 356 1406 250 
Q 1522 113 1716 113 
L 1975 113 
L 1975 0 
L 266 0 
L 266 113 
L 394 113 
Q 519 113 622 175 
Q 725 238 764 344 
Q 803 450 803 756 
L 803 2638 
L 247 2638 
L 247 2863 
L 803 2863 
L 803 3050 
Q 803 3478 940 3775 
Q 1078 4072 1361 4255 
Q 1644 4438 1997 4438 
Q 2325 4438 2600 4225 
Q 2781 4084 2781 3909 
Q 2781 3816 2700 3733 
Q 2619 3650 2525 3650 
Q 2453 3650 2373 3701 
Q 2294 3753 2178 3923 
Q 2063 4094 1966 4153 
Q 1869 4213 1750 4213 
Q 1606 4213 1506 4136 
Q 1406 4059 1362 3898 
Q 1319 3738 1319 3069 
L 1319 2863 
L 2056 2863 
L 2056 2638 
L 1319 2638 
z
" transform="scale(0.015625)"/>
      <path id="TimesNewRomanPSMT-6d" d="M 1050 2338 
Q 1363 2650 1419 2697 
Q 1559 2816 1721 2881 
Q 1884 2947 2044 2947 
Q 2313 2947 2506 2790 
Q 2700 2634 2766 2338 
Q 3088 2713 3309 2830 
Q 3531 2947 3766 2947 
Q 3994 2947 4170 2830 
Q 4347 2713 4450 2447 
Q 4519 2266 4519 1878 
L 4519 647 
Q 4519 378 4559 278 
Q 4591 209 4675 161 
Q 4759 113 4950 113 
L 4950 0 
L 3538 0 
L 3538 113 
L 3597 113 
Q 3781 113 3884 184 
Q 3956 234 3988 344 
Q 4000 397 4000 647 
L 4000 1878 
Q 4000 2228 3916 2372 
Q 3794 2572 3525 2572 
Q 3359 2572 3192 2489 
Q 3025 2406 2788 2181 
L 2781 2147 
L 2788 2013 
L 2788 647 
Q 2788 353 2820 281 
Q 2853 209 2943 161 
Q 3034 113 3253 113 
L 3253 0 
L 1806 0 
L 1806 113 
Q 2044 113 2133 169 
Q 2222 225 2256 338 
Q 2272 391 2272 647 
L 2272 1878 
Q 2272 2228 2169 2381 
Q 2031 2581 1784 2581 
Q 1616 2581 1450 2491 
Q 1191 2353 1050 2181 
L 1050 647 
Q 1050 366 1089 281 
Q 1128 197 1204 155 
Q 1281 113 1516 113 
L 1516 0 
L 100 0 
L 100 113 
Q 297 113 375 155 
Q 453 197 493 289 
Q 534 381 534 647 
L 534 1741 
Q 534 2213 506 2350 
Q 484 2453 437 2492 
Q 391 2531 309 2531 
Q 222 2531 100 2484 
L 53 2597 
L 916 2947 
L 1050 2947 
L 1050 2338 
z
" transform="scale(0.015625)"/>
      <path id="TimesNewRomanPSMT-28" d="M 1988 -1253 
L 1988 -1369 
Q 1516 -1131 1200 -813 
Q 750 -359 506 256 
Q 263 872 263 1534 
Q 263 2503 741 3301 
Q 1219 4100 1988 4444 
L 1988 4313 
Q 1603 4100 1356 3731 
Q 1109 3363 987 2797 
Q 866 2231 866 1616 
Q 866 947 969 400 
Q 1050 -31 1165 -292 
Q 1281 -553 1476 -793 
Q 1672 -1034 1988 -1253 
z
" transform="scale(0.015625)"/>
      <path id="TimesNewRomanPSMT-25" d="M 4350 4334 
L 1263 -175 
L 984 -175 
L 4072 4334 
L 4350 4334 
z
M 1138 4334 
Q 1559 4334 1792 3984 
Q 2025 3634 2025 3181 
Q 2025 2638 1762 2341 
Q 1500 2044 1131 2044 
Q 884 2044 678 2180 
Q 472 2316 348 2584 
Q 225 2853 225 3181 
Q 225 3509 350 3786 
Q 475 4063 692 4198 
Q 909 4334 1138 4334 
z
M 1128 4159 
Q 969 4159 845 3971 
Q 722 3784 722 3184 
Q 722 2750 791 2522 
Q 844 2350 956 2256 
Q 1022 2200 1119 2200 
Q 1269 2200 1375 2363 
Q 1531 2603 1531 3166 
Q 1531 3759 1378 4000 
Q 1278 4159 1128 4159 
z
M 4206 2103 
Q 4428 2103 4648 1962 
Q 4869 1822 4989 1553 
Q 5109 1284 5109 963 
Q 5109 409 4843 117 
Q 4578 -175 4216 -175 
Q 3988 -175 3773 -34 
Q 3559 106 3436 367 
Q 3313 628 3313 963 
Q 3313 1291 3436 1562 
Q 3559 1834 3773 1968 
Q 3988 2103 4206 2103 
z
M 4209 1938 
Q 4059 1938 3950 1769 
Q 3809 1550 3809 941 
Q 3809 381 3953 159 
Q 4059 0 4209 0 
Q 4353 0 4466 172 
Q 4616 400 4616 956 
Q 4616 1544 4466 1778 
Q 4363 1938 4209 1938 
z
" transform="scale(0.015625)"/>
      <path id="TimesNewRomanPSMT-29" d="M 144 4313 
L 144 4444 
Q 619 4209 934 3891 
Q 1381 3434 1625 2820 
Q 1869 2206 1869 1541 
Q 1869 572 1392 -226 
Q 916 -1025 144 -1369 
L 144 -1253 
Q 528 -1038 776 -670 
Q 1025 -303 1145 264 
Q 1266 831 1266 1447 
Q 1266 2113 1163 2663 
Q 1084 3094 967 3353 
Q 850 3613 656 3853 
Q 463 4094 144 4313 
z
" transform="scale(0.015625)"/>
     </defs>
     <use xlink:href="#TimesNewRomanPSMT-54"/>
     <use xlink:href="#TimesNewRomanPSMT-75" transform="translate(57.583984 0)"/>
     <use xlink:href="#TimesNewRomanPSMT-72" transform="translate(107.583984 0)"/>
     <use xlink:href="#TimesNewRomanPSMT-6e" transform="translate(140.884766 0)"/>
     <use xlink:href="#TimesNewRomanPSMT-6f" transform="translate(190.884766 0)"/>
     <use xlink:href="#TimesNewRomanPSMT-76" transform="translate(240.884766 0)"/>
     <use xlink:href="#TimesNewRomanPSMT-65" transform="translate(290.884766 0)"/>
     <use xlink:href="#TimesNewRomanPSMT-72" transform="translate(335.269531 0)"/>
     <use xlink:href="#TimesNewRomanPSMT-20" transform="translate(368.570312 0)"/>
     <use xlink:href="#TimesNewRomanPSMT-52" transform="translate(393.570312 0)"/>
     <use xlink:href="#TimesNewRomanPSMT-61" transform="translate(460.269531 0)"/>
     <use xlink:href="#TimesNewRomanPSMT-74" transform="translate(504.654297 0)"/>
     <use xlink:href="#TimesNewRomanPSMT-65" transform="translate(532.4375 0)"/>
     <use xlink:href="#TimesNewRomanPSMT-20" transform="translate(576.822266 0)"/>
     <use xlink:href="#TimesNewRomanPSMT-66" transform="translate(601.822266 0)"/>
     <use xlink:href="#TimesNewRomanPSMT-72" transform="translate(635.123047 0)"/>
     <use xlink:href="#TimesNewRomanPSMT-6f" transform="translate(668.423828 0)"/>
     <use xlink:href="#TimesNewRomanPSMT-6d" transform="translate(718.423828 0)"/>
     <use xlink:href="#TimesNewRomanPSMT-20" transform="translate(796.207031 0)"/>
     <use xlink:href="#TimesNewRomanPSMT-31" transform="translate(821.207031 0)"/>
     <use xlink:href="#TimesNewRomanPSMT-39" transform="translate(871.207031 0)"/>
     <use xlink:href="#TimesNewRomanPSMT-39" transform="translate(921.207031 0)"/>
     <use xlink:href="#TimesNewRomanPSMT-39" transform="translate(971.207031 0)"/>
     <use xlink:href="#TimesNewRomanPSMT-20" transform="translate(1021.207031 0)"/>
     <use xlink:href="#TimesNewRomanPSMT-74" transform="translate(1046.207031 0)"/>
     <use xlink:href="#TimesNewRomanPSMT-6f" transform="translate(1073.990234 0)"/>
     <use xlink:href="#TimesNewRomanPSMT-20" transform="translate(1123.990234 0)"/>
     <use xlink:href="#TimesNewRomanPSMT-32" transform="translate(1148.990234 0)"/>
     <use xlink:href="#TimesNewRomanPSMT-30" transform="translate(1198.990234 0)"/>
     <use xlink:href="#TimesNewRomanPSMT-31" transform="translate(1248.990234 0)"/>
     <use xlink:href="#TimesNewRomanPSMT-36" transform="translate(1298.990234 0)"/>
     <use xlink:href="#TimesNewRomanPSMT-20" transform="translate(1348.990234 0)"/>
     <use xlink:href="#TimesNewRomanPSMT-28" transform="translate(1373.990234 0)"/>
     <use xlink:href="#TimesNewRomanPSMT-25" transform="translate(1407.291016 0)"/>
     <use xlink:href="#TimesNewRomanPSMT-29" transform="translate(1490.591797 0)"/>
     <use xlink:href="#TimesNewRomanPSMT-20" transform="translate(1523.892578 0)"/>
    </g>
   </g>
   <g id="legend_1">
    <g id="patch_7">
     <path d="M 415.667927 163.803281 
L 435.667927 163.803281 
L 435.667927 156.803281 
L 415.667927 156.803281 
z
" style="fill: #1f77b4"/>
    </g>
    <g id="text_21">
     <!-- Lumina Solutions -->
     <g transform="translate(443.667927 163.803281) scale(0.1 -0.1)">
      <defs>
       <path id="TimesNewRomanPSMT-4c" d="M 3669 1172 
L 3772 1150 
L 3409 0 
L 128 0 
L 128 116 
L 288 116 
Q 556 116 672 291 
Q 738 391 738 753 
L 738 3488 
Q 738 3884 650 3984 
Q 528 4122 288 4122 
L 128 4122 
L 128 4238 
L 2047 4238 
L 2047 4122 
Q 1709 4125 1573 4059 
Q 1438 3994 1388 3894 
Q 1338 3794 1338 3416 
L 1338 753 
Q 1338 494 1388 397 
Q 1425 331 1503 300 
Q 1581 269 1991 269 
L 2300 269 
Q 2788 269 2984 341 
Q 3181 413 3343 595 
Q 3506 778 3669 1172 
z
" transform="scale(0.015625)"/>
       <path id="TimesNewRomanPSMT-69" d="M 928 4444 
Q 1059 4444 1151 4351 
Q 1244 4259 1244 4128 
Q 1244 3997 1151 3903 
Q 1059 3809 928 3809 
Q 797 3809 703 3903 
Q 609 3997 609 4128 
Q 609 4259 701 4351 
Q 794 4444 928 4444 
z
M 1188 2947 
L 1188 647 
Q 1188 378 1227 289 
Q 1266 200 1342 156 
Q 1419 113 1622 113 
L 1622 0 
L 231 0 
L 231 113 
Q 441 113 512 153 
Q 584 194 626 287 
Q 669 381 669 647 
L 669 1750 
Q 669 2216 641 2353 
Q 619 2453 572 2492 
Q 525 2531 444 2531 
Q 356 2531 231 2484 
L 188 2597 
L 1050 2947 
L 1188 2947 
z
" transform="scale(0.015625)"/>
       <path id="TimesNewRomanPSMT-53" d="M 2934 4334 
L 2934 2869 
L 2819 2869 
Q 2763 3291 2617 3541 
Q 2472 3791 2203 3937 
Q 1934 4084 1647 4084 
Q 1322 4084 1109 3886 
Q 897 3688 897 3434 
Q 897 3241 1031 3081 
Q 1225 2847 1953 2456 
Q 2547 2138 2764 1967 
Q 2981 1797 3098 1565 
Q 3216 1334 3216 1081 
Q 3216 600 2842 251 
Q 2469 -97 1881 -97 
Q 1697 -97 1534 -69 
Q 1438 -53 1133 45 
Q 828 144 747 144 
Q 669 144 623 97 
Q 578 50 556 -97 
L 441 -97 
L 441 1356 
L 556 1356 
Q 638 900 775 673 
Q 913 447 1195 297 
Q 1478 147 1816 147 
Q 2206 147 2432 353 
Q 2659 559 2659 841 
Q 2659 997 2573 1156 
Q 2488 1316 2306 1453 
Q 2184 1547 1640 1851 
Q 1097 2156 867 2337 
Q 638 2519 519 2737 
Q 400 2956 400 3219 
Q 400 3675 750 4004 
Q 1100 4334 1641 4334 
Q 1978 4334 2356 4169 
Q 2531 4091 2603 4091 
Q 2684 4091 2736 4139 
Q 2788 4188 2819 4334 
L 2934 4334 
z
" transform="scale(0.015625)"/>
       <path id="TimesNewRomanPSMT-6c" d="M 1184 4444 
L 1184 647 
Q 1184 378 1223 290 
Q 1263 203 1344 158 
Q 1425 113 1647 113 
L 1647 0 
L 244 0 
L 244 113 
Q 441 113 512 153 
Q 584 194 625 287 
Q 666 381 666 647 
L 666 3247 
Q 666 3731 644 3842 
Q 622 3953 573 3993 
Q 525 4034 450 4034 
Q 369 4034 244 3984 
L 191 4094 
L 1044 4444 
L 1184 4444 
z
" transform="scale(0.015625)"/>
       <path id="TimesNewRomanPSMT-73" d="M 2050 2947 
L 2050 1972 
L 1947 1972 
Q 1828 2431 1642 2597 
Q 1456 2763 1169 2763 
Q 950 2763 815 2647 
Q 681 2531 681 2391 
Q 681 2216 781 2091 
Q 878 1963 1175 1819 
L 1631 1597 
Q 2266 1288 2266 781 
Q 2266 391 1970 151 
Q 1675 -88 1309 -88 
Q 1047 -88 709 6 
Q 606 38 541 38 
Q 469 38 428 -44 
L 325 -44 
L 325 978 
L 428 978 
Q 516 541 762 319 
Q 1009 97 1316 97 
Q 1531 97 1667 223 
Q 1803 350 1803 528 
Q 1803 744 1651 891 
Q 1500 1038 1047 1263 
Q 594 1488 453 1669 
Q 313 1847 313 2119 
Q 313 2472 555 2709 
Q 797 2947 1181 2947 
Q 1350 2947 1591 2875 
Q 1750 2828 1803 2828 
Q 1853 2828 1881 2850 
Q 1909 2872 1947 2947 
L 2050 2947 
z
" transform="scale(0.015625)"/>
      </defs>
      <use xlink:href="#TimesNewRomanPSMT-4c"/>
      <use xlink:href="#TimesNewRomanPSMT-75" transform="translate(61.083984 0)"/>
      <use xlink:href="#TimesNewRomanPSMT-6d" transform="translate(111.083984 0)"/>
      <use xlink:href="#TimesNewRomanPSMT-69" transform="translate(188.867188 0)"/>
      <use xlink:href="#TimesNewRomanPSMT-6e" transform="translate(216.650391 0)"/>
      <use xlink:href="#TimesNewRomanPSMT-61" transform="translate(266.650391 0)"/>
      <use xlink:href="#TimesNewRomanPSMT-20" transform="translate(311.035156 0)"/>
      <use xlink:href="#TimesNewRomanPSMT-53" transform="translate(336.035156 0)"/>
      <use xlink:href="#TimesNewRomanPSMT-6f" transform="translate(391.650391 0)"/>
      <use xlink:href="#TimesNewRomanPSMT-6c" transform="translate(441.650391 0)"/>
      <use xlink:href="#TimesNewRomanPSMT-75" transform="translate(469.433594 0)"/>
      <use xlink:href="#TimesNewRomanPSMT-74" transform="translate(519.433594 0)"/>
      <use xlink:href="#TimesNewRomanPSMT-69" transform="translate(547.216797 0)"/>
      <use xlink:href="#TimesNewRomanPSMT-6f" transform="translate(575 0)"/>
      <use xlink:href="#TimesNewRomanPSMT-6e" transform="translate(625 0)"/>
      <use xlink:href="#TimesNewRomanPSMT-73" transform="translate(675 0)"/>
     </g>
    </g>
    <g id="patch_8">
     <path d="M 415.667927 177.942344 
L 435.667927 177.942344 
L 435.667927 170.942344 
L 415.667927 170.942344 
z
" style="fill: #aec7e8"/>
    </g>
    <g id="text_22">
     <!-- Skyward Systems -->
     <g transform="translate(443.667927 177.942344) scale(0.1 -0.1)">
      <defs>
       <path id="TimesNewRomanPSMT-6b" d="M 1047 4444 
L 1047 1597 
L 1775 2259 
Q 2006 2472 2044 2528 
Q 2069 2566 2069 2603 
Q 2069 2666 2017 2711 
Q 1966 2756 1847 2763 
L 1847 2863 
L 3091 2863 
L 3091 2763 
Q 2834 2756 2664 2684 
Q 2494 2613 2291 2428 
L 1556 1750 
L 2291 822 
Q 2597 438 2703 334 
Q 2853 188 2966 144 
Q 3044 113 3238 113 
L 3238 0 
L 1847 0 
L 1847 113 
Q 1966 116 2008 148 
Q 2050 181 2050 241 
Q 2050 313 1925 472 
L 1047 1594 
L 1047 644 
Q 1047 366 1086 278 
Q 1125 191 1197 153 
Q 1269 116 1509 113 
L 1509 0 
L 53 0 
L 53 113 
Q 272 113 381 166 
Q 447 200 481 272 
Q 528 375 528 628 
L 528 3234 
Q 528 3731 506 3842 
Q 484 3953 434 3995 
Q 384 4038 303 4038 
Q 238 4038 106 3984 
L 53 4094 
L 903 4444 
L 1047 4444 
z
" transform="scale(0.015625)"/>
       <path id="TimesNewRomanPSMT-79" d="M 38 2863 
L 1372 2863 
L 1372 2747 
L 1306 2747 
Q 1166 2747 1095 2686 
Q 1025 2625 1025 2534 
Q 1025 2413 1128 2197 
L 1825 753 
L 2466 2334 
Q 2519 2463 2519 2588 
Q 2519 2644 2497 2672 
Q 2472 2706 2419 2726 
Q 2366 2747 2231 2747 
L 2231 2863 
L 3163 2863 
L 3163 2747 
Q 3047 2734 2984 2696 
Q 2922 2659 2847 2556 
Q 2819 2513 2741 2316 
L 1575 -541 
Q 1406 -956 1132 -1168 
Q 859 -1381 606 -1381 
Q 422 -1381 303 -1275 
Q 184 -1169 184 -1031 
Q 184 -900 270 -820 
Q 356 -741 506 -741 
Q 609 -741 788 -809 
Q 913 -856 944 -856 
Q 1038 -856 1148 -759 
Q 1259 -663 1372 -384 
L 1575 113 
L 547 2272 
Q 500 2369 397 2513 
Q 319 2622 269 2659 
Q 197 2709 38 2747 
L 38 2863 
z
" transform="scale(0.015625)"/>
       <path id="TimesNewRomanPSMT-77" d="M 41 2863 
L 1241 2863 
L 1241 2747 
Q 1075 2734 1023 2687 
Q 972 2641 972 2553 
Q 972 2456 1025 2319 
L 1638 672 
L 2253 2013 
L 2091 2434 
Q 2016 2622 1894 2694 
Q 1825 2738 1638 2747 
L 1638 2863 
L 3000 2863 
L 3000 2747 
Q 2775 2738 2681 2666 
Q 2619 2616 2619 2506 
Q 2619 2444 2644 2378 
L 3294 734 
L 3897 2319 
Q 3959 2488 3959 2588 
Q 3959 2647 3898 2694 
Q 3838 2741 3659 2747 
L 3659 2863 
L 4563 2863 
L 4563 2747 
Q 4291 2706 4163 2378 
L 3206 -88 
L 3078 -88 
L 2363 1741 
L 1528 -88 
L 1413 -88 
L 494 2319 
Q 403 2547 315 2626 
Q 228 2706 41 2747 
L 41 2863 
z
" transform="scale(0.015625)"/>
       <path id="TimesNewRomanPSMT-64" d="M 2222 322 
Q 2013 103 1813 7 
Q 1613 -88 1381 -88 
Q 913 -88 563 304 
Q 213 697 213 1313 
Q 213 1928 600 2439 
Q 988 2950 1597 2950 
Q 1975 2950 2222 2709 
L 2222 3238 
Q 2222 3728 2198 3840 
Q 2175 3953 2125 3993 
Q 2075 4034 2000 4034 
Q 1919 4034 1784 3984 
L 1744 4094 
L 2597 4444 
L 2738 4444 
L 2738 1134 
Q 2738 631 2761 520 
Q 2784 409 2836 365 
Q 2888 322 2956 322 
Q 3041 322 3181 375 
L 3216 266 
L 2366 -88 
L 2222 -88 
L 2222 322 
z
M 2222 541 
L 2222 2016 
Q 2203 2228 2109 2403 
Q 2016 2578 1861 2667 
Q 1706 2756 1559 2756 
Q 1284 2756 1069 2509 
Q 784 2184 784 1559 
Q 784 928 1059 592 
Q 1334 256 1672 256 
Q 1956 256 2222 541 
z
" transform="scale(0.015625)"/>
      </defs>
      <use xlink:href="#TimesNewRomanPSMT-53"/>
      <use xlink:href="#TimesNewRomanPSMT-6b" transform="translate(55.615234 0)"/>
      <use xlink:href="#TimesNewRomanPSMT-79" transform="translate(105.615234 0)"/>
      <use xlink:href="#TimesNewRomanPSMT-77" transform="translate(155.615234 0)"/>
      <use xlink:href="#TimesNewRomanPSMT-61" transform="translate(227.832031 0)"/>
      <use xlink:href="#TimesNewRomanPSMT-72" transform="translate(272.216797 0)"/>
      <use xlink:href="#TimesNewRomanPSMT-64" transform="translate(305.517578 0)"/>
      <use xlink:href="#TimesNewRomanPSMT-20" transform="translate(355.517578 0)"/>
      <use xlink:href="#TimesNewRomanPSMT-53" transform="translate(380.517578 0)"/>
      <use xlink:href="#TimesNewRomanPSMT-79" transform="translate(436.132812 0)"/>
      <use xlink:href="#TimesNewRomanPSMT-73" transform="translate(486.132812 0)"/>
      <use xlink:href="#TimesNewRomanPSMT-74" transform="translate(525.048828 0)"/>
      <use xlink:href="#TimesNewRomanPSMT-65" transform="translate(552.832031 0)"/>
      <use xlink:href="#TimesNewRomanPSMT-6d" transform="translate(597.216797 0)"/>
      <use xlink:href="#TimesNewRomanPSMT-73" transform="translate(675 0)"/>
     </g>
    </g>
    <g id="patch_9">
     <path d="M 415.667927 192.100156 
L 435.667927 192.100156 
L 435.667927 185.100156 
L 415.667927 185.100156 
z
" style="fill: #ff7f0e"/>
    </g>
    <g id="text_23">
     <!-- Verdant Ventures -->
     <g transform="translate(443.667927 192.100156) scale(0.1 -0.1)">
      <defs>
       <path id="TimesNewRomanPSMT-56" d="M 4544 4238 
L 4544 4122 
Q 4319 4081 4203 3978 
Q 4038 3825 3909 3509 
L 2431 -97 
L 2316 -97 
L 728 3556 
Q 606 3838 556 3900 
Q 478 3997 364 4051 
Q 250 4106 56 4122 
L 56 4238 
L 1788 4238 
L 1788 4122 
Q 1494 4094 1406 4022 
Q 1319 3950 1319 3838 
Q 1319 3681 1463 3350 
L 2541 866 
L 3541 3319 
Q 3688 3681 3688 3822 
Q 3688 3913 3597 3995 
Q 3506 4078 3291 4113 
Q 3275 4116 3238 4122 
L 3238 4238 
L 4544 4238 
z
" transform="scale(0.015625)"/>
      </defs>
      <use xlink:href="#TimesNewRomanPSMT-56"/>
      <use xlink:href="#TimesNewRomanPSMT-65" transform="translate(61.091797 0)"/>
      <use xlink:href="#TimesNewRomanPSMT-72" transform="translate(105.476562 0)"/>
      <use xlink:href="#TimesNewRomanPSMT-64" transform="translate(138.777344 0)"/>
      <use xlink:href="#TimesNewRomanPSMT-61" transform="translate(188.777344 0)"/>
      <use xlink:href="#TimesNewRomanPSMT-6e" transform="translate(233.162109 0)"/>
      <use xlink:href="#TimesNewRomanPSMT-74" transform="translate(283.162109 0)"/>
      <use xlink:href="#TimesNewRomanPSMT-20" transform="translate(310.945312 0)"/>
      <use xlink:href="#TimesNewRomanPSMT-56" transform="translate(334.195312 0)"/>
      <use xlink:href="#TimesNewRomanPSMT-65" transform="translate(395.287109 0)"/>
      <use xlink:href="#TimesNewRomanPSMT-6e" transform="translate(439.671875 0)"/>
      <use xlink:href="#TimesNewRomanPSMT-74" transform="translate(489.671875 0)"/>
      <use xlink:href="#TimesNewRomanPSMT-75" transform="translate(517.455078 0)"/>
      <use xlink:href="#TimesNewRomanPSMT-72" transform="translate(567.455078 0)"/>
      <use xlink:href="#TimesNewRomanPSMT-65" transform="translate(600.755859 0)"/>
      <use xlink:href="#TimesNewRomanPSMT-73" transform="translate(645.140625 0)"/>
     </g>
    </g>
   </g>
  </g>
 </g>
 <defs>
  <clipPath id="p9d87e31204">
   <rect x="10.091927" y="36.92125" width="388.8" height="277.2"/>
  </clipPath>
 </defs>
</svg>
