<?xml version="1.0" encoding="utf-8" standalone="no"?>
<!DOCTYPE svg PUBLIC "-//W3C//DTD SVG 1.1//EN"
  "http://www.w3.org/Graphics/SVG/1.1/DTD/svg11.dtd">
<svg xmlns:xlink="http://www.w3.org/1999/xlink" width="520.138239pt" height="363.785279pt" viewBox="0 0 520.138239 363.785279" xmlns="http://www.w3.org/2000/svg" version="1.1">
 <metadata>
  <rdf:RDF xmlns:dc="http://purl.org/dc/elements/1.1/" xmlns:cc="http://creativecommons.org/ns#" xmlns:rdf="http://www.w3.org/1999/02/22-rdf-syntax-ns#">
   <cc:Work>
    <dc:type rdf:resource="http://purl.org/dc/dcmitype/StillImage"/>
    <dc:date>2025-05-30T23:58:42.869604</dc:date>
    <dc:format>image/svg+xml</dc:format>
    <dc:creator>
     <cc:Agent>
      <dc:title>Matplotlib v3.10.3, https://matplotlib.org/</dc:title>
     </cc:Agent>
    </dc:creator>
   </cc:Work>
  </rdf:RDF>
 </metadata>
 <defs>
  <style type="text/css">*{stroke-linejoin: round; stroke-linecap: butt}</style>
 </defs>
 <g id="figure_1">
  <g id="patch_1">
   <path d="M 0 363.785279 
L 520.138239 363.785279 
L 520.138239 0 
L 0 0 
z
" style="fill: #ffffff"/>
  </g>
  <g id="axes_1">
   <g id="patch_2">
    <path d="M 10.091927 314.12125 
L 398.891927 314.12125 
L 398.891927 36.92125 
L 10.091927 36.92125 
z
" style="fill: #ffffff"/>
   </g>
   <g id="FillBetweenPolyCollection_1">
    <path d="M 27.764654 191.910302 
L 27.764654 208.797477 
L 29.129343 209.035455 
L 30.494033 209.227662 
L 31.858722 209.379337 
L 33.223411 209.49572 
L 34.588101 209.582053 
L 35.95279 209.643577 
L 37.317479 209.685531 
L 38.682169 209.713156 
L 40.046858 209.731693 
L 41.411548 209.746383 
L 42.776237 209.762466 
L 44.140926 209.785183 
L 45.505616 209.819774 
L 46.870305 209.87148 
L 48.234994 209.945542 
L 49.599684 210.0472 
L 50.964373 210.181695 
L 52.329062 210.354267 
L 53.693752 210.570157 
L 55.058441 210.834606 
L 56.423131 211.152775 
L 57.78782 211.522607 
L 59.152509 211.929128 
L 60.517199 212.356022 
L 61.881888 212.786974 
L 63.246577 213.205668 
L 64.611267 213.59579 
L 65.975956 213.941022 
L 67.340646 214.225051 
L 68.705335 214.43156 
L 70.070024 214.544234 
L 71.434714 214.549273 
L 72.799403 214.44568 
L 74.164092 214.236521 
L 75.528782 213.924862 
L 76.893471 213.51377 
L 78.25816 213.006314 
L 79.62285 212.405559 
L 80.987539 211.714574 
L 82.352229 210.936425 
L 83.716918 210.07418 
L 85.081607 209.13147 
L 86.446297 208.121862 
L 87.810986 207.067419 
L 89.175675 205.99048 
L 90.540365 204.91338 
L 91.905054 203.858456 
L 93.269743 202.848045 
L 94.634433 201.904484 
L 95.999122 201.05011 
L 97.363812 200.30726 
L 98.728501 199.698235 
L 100.09319 199.430671 
L 101.45788 199.24006 
L 102.822569 199.11183 
L 104.187258 199.058713 
L 105.551948 199.093437 
L 106.916637 199.228735 
L 108.281326 199.477336 
L 109.646016 199.85197 
L 111.010705 200.426633 
L 112.375395 201.114909 
L 113.740084 201.906047 
L 115.104773 202.81065 
L 116.469463 203.859711 
L 117.834152 204.961297 
L 119.198841 206.075359 
L 120.563531 207.161851 
L 121.92822 208.180724 
L 123.292909 209.09193 
L 124.657599 209.85542 
L 126.022288 210.431148 
L 127.386978 211.077289 
L 128.751667 211.681059 
L 130.116356 212.207422 
L 131.481046 212.681365 
L 132.845735 213.127872 
L 134.210424 213.571928 
L 135.575114 214.038521 
L 136.939803 214.552633 
L 138.304492 215.139253 
L 139.669182 215.823363 
L 141.033871 216.629935 
L 142.398561 217.570748 
L 143.76325 218.620611 
L 145.127939 219.747907 
L 146.492629 220.921015 
L 147.857318 222.108317 
L 149.222007 223.278193 
L 150.586697 224.399025 
L 151.951386 225.439194 
L 153.316075 226.367079 
L 154.680765 227.151063 
L 156.045454 227.763115 
L 157.410144 228.205426 
L 158.774833 228.495323 
L 160.139522 228.650247 
L 161.504212 228.687638 
L 162.868901 228.624937 
L 164.23359 228.479585 
L 165.59828 228.269023 
L 166.962969 228.010691 
L 168.327658 227.72203 
L 169.692348 227.42029 
L 171.057037 227.115305 
L 172.421727 226.807274 
L 173.786416 226.495756 
L 175.151105 226.180307 
L 176.515795 225.860482 
L 177.880484 225.535839 
L 179.245173 225.205935 
L 180.609863 224.870325 
L 181.974552 224.528567 
L 183.339242 224.180217 
L 184.703931 223.82587 
L 186.06862 223.469803 
L 187.43331 223.117111 
L 188.797999 222.772888 
L 190.162688 222.442227 
L 191.527378 222.130224 
L 192.892067 221.841973 
L 194.256756 221.582567 
L 195.621446 221.357101 
L 196.986135 221.170669 
L 198.350825 221.028406 
L 199.715514 220.935911 
L 201.080203 220.899065 
L 202.444893 220.923759 
L 203.809582 221.015879 
L 205.174271 221.181313 
L 206.538961 221.42595 
L 207.90365 221.755679 
L 209.268339 222.176386 
L 210.633029 222.69396 
L 211.997718 223.314151 
L 213.362408 224.033591 
L 214.727097 224.834263 
L 216.091786 225.696828 
L 217.456476 226.601947 
L 218.821165 227.530281 
L 220.185854 228.462492 
L 221.550544 229.379241 
L 222.915233 230.261188 
L 224.279922 231.088995 
L 225.644612 231.843324 
L 227.009301 232.507045 
L 228.373991 233.073001 
L 229.73868 233.536842 
L 231.103369 233.894219 
L 232.468059 234.140785 
L 233.832748 234.272191 
L 235.197437 234.284088 
L 236.562127 234.172127 
L 237.926816 233.93196 
L 239.291505 233.559237 
L 240.656195 233.05072 
L 242.020884 232.483832 
L 243.385574 231.808037 
L 244.750263 231.035861 
L 246.114952 230.197701 
L 247.479642 229.323953 
L 248.844331 228.445014 
L 250.20902 227.59128 
L 251.57371 226.793149 
L 252.938399 226.126008 
L 254.303088 225.580244 
L 255.667778 225.17414 
L 257.032467 224.928074 
L 258.397157 224.861947 
L 259.761846 224.995659 
L 261.126535 225.34911 
L 262.491225 225.942199 
L 263.855914 226.794827 
L 265.220603 227.926894 
L 266.585293 229.3583 
L 267.949982 231.108945 
L 269.314671 233.188916 
L 270.679361 235.551872 
L 272.04405 238.131345 
L 273.40874 240.860837 
L 274.773429 243.673853 
L 276.138118 246.503898 
L 277.502808 249.284477 
L 278.867497 251.949093 
L 280.232186 254.431252 
L 281.596876 256.664458 
L 282.961565 258.584422 
L 284.326254 260.173169 
L 285.690944 261.456675 
L 287.055633 262.462656 
L 288.420323 263.218826 
L 289.785012 263.752901 
L 291.149701 264.092595 
L 292.514391 264.265623 
L 293.87908 264.299699 
L 295.243769 264.222539 
L 296.608459 264.061844 
L 297.973148 263.840355 
L 299.337838 263.568425 
L 300.702527 263.254502 
L 302.067216 262.907033 
L 303.431906 262.534466 
L 304.796595 262.14525 
L 306.161284 261.747832 
L 307.525974 261.350661 
L 308.890663 260.962184 
L 310.255352 260.59085 
L 311.620042 260.245311 
L 312.984731 259.935721 
L 314.349421 259.672913 
L 315.71411 259.467718 
L 317.078799 259.330972 
L 318.443489 259.273506 
L 319.808178 259.306156 
L 321.172867 259.439754 
L 322.537557 259.685134 
L 323.902246 260.053129 
L 325.266935 260.593745 
L 326.631625 261.453413 
L 327.996314 262.346617 
L 329.361004 263.244677 
L 330.725693 264.118912 
L 332.090382 264.940645 
L 333.455072 265.681194 
L 334.819761 266.31188 
L 336.18445 266.804024 
L 337.54914 267.128946 
L 338.913829 267.361611 
L 340.278518 267.556828 
L 341.643208 267.614042 
L 343.007897 267.573501 
L 344.372587 267.47545 
L 345.737276 267.360139 
L 347.101965 267.267813 
L 348.466655 267.23872 
L 349.831344 267.313107 
L 351.196033 267.531221 
L 352.560723 267.933309 
L 353.925412 268.555455 
L 355.290101 269.39362 
L 356.654791 270.421348 
L 358.01948 271.611936 
L 359.38417 272.938682 
L 360.748859 274.374884 
L 362.113548 275.893839 
L 363.478238 277.468845 
L 364.842927 279.0732 
L 366.207616 280.680202 
L 367.572306 282.263147 
L 368.936995 283.795334 
L 370.301684 285.25006 
L 371.666374 286.600623 
L 373.031063 287.820321 
L 374.395753 288.882452 
L 375.760442 289.760312 
L 377.125131 290.4272 
L 378.489821 290.856414 
L 379.85451 291.02125 
L 381.219199 290.895007 
L 381.219199 111.686644 
L 381.219199 111.686644 
L 379.85451 113.048821 
L 378.489821 114.175157 
L 377.125131 115.087066 
L 375.760442 115.805964 
L 374.395753 116.353264 
L 373.031063 116.750382 
L 371.666374 117.018733 
L 370.301684 117.179731 
L 368.936995 117.254791 
L 367.572306 117.265328 
L 366.207616 117.232756 
L 364.842927 117.17849 
L 363.478238 117.123945 
L 362.113548 117.090536 
L 360.748859 117.099677 
L 359.38417 117.172783 
L 358.01948 117.331269 
L 356.654791 117.596549 
L 355.290101 117.990039 
L 353.925412 118.533153 
L 352.560723 119.247113 
L 351.196033 120.135439 
L 349.831344 121.169979 
L 348.466655 122.319296 
L 347.101965 123.551948 
L 345.737276 124.836497 
L 344.372587 126.141503 
L 343.007897 127.435527 
L 341.643208 128.687129 
L 340.278518 129.864871 
L 338.913829 130.937311 
L 337.54914 132.011359 
L 336.18445 133.026066 
L 334.819761 133.896359 
L 333.455072 134.640812 
L 332.090382 135.277998 
L 330.725693 135.826488 
L 329.361004 136.304857 
L 327.996314 136.731675 
L 326.631625 137.125517 
L 325.266935 137.504954 
L 323.902246 138.145835 
L 322.537557 138.899797 
L 321.172867 139.721515 
L 319.808178 140.605052 
L 318.443489 141.544467 
L 317.078799 142.533823 
L 315.71411 143.567179 
L 314.349421 144.638598 
L 312.984731 145.742139 
L 311.620042 146.871864 
L 310.255352 148.021839 
L 308.890663 149.187241 
L 307.525974 150.365717 
L 306.161284 151.555255 
L 304.796595 152.753839 
L 303.431906 153.959453 
L 302.067216 155.170084 
L 300.702527 156.383716 
L 299.337838 157.598334 
L 297.973148 158.811923 
L 296.608459 160.022468 
L 295.243769 161.224426 
L 293.87908 162.389279 
L 292.514391 163.479313 
L 291.149701 164.456791 
L 289.785012 165.283975 
L 288.420323 165.923127 
L 287.055633 166.33651 
L 285.690944 166.486386 
L 284.326254 166.335017 
L 282.961565 165.844665 
L 281.596876 164.97962 
L 280.232186 163.755473 
L 278.867497 162.241865 
L 277.502808 160.511014 
L 276.138118 158.63514 
L 274.773429 156.686459 
L 273.40874 154.737192 
L 272.04405 152.859555 
L 270.679361 151.125767 
L 269.314671 149.608048 
L 267.949982 148.378585 
L 266.585293 147.486238 
L 265.220603 146.914465 
L 263.855914 146.635352 
L 262.491225 146.620985 
L 261.126535 146.843451 
L 259.761846 147.274835 
L 258.397157 147.887222 
L 257.032467 148.6527 
L 255.667778 149.543353 
L 254.303088 150.531268 
L 252.938399 151.589613 
L 251.57371 152.706801 
L 250.20902 153.905729 
L 248.844331 155.124337 
L 247.479642 156.34556 
L 246.114952 157.552334 
L 244.750263 158.727591 
L 243.385574 159.854267 
L 242.020884 160.915295 
L 240.656195 161.911482 
L 239.291505 162.906467 
L 237.926816 163.827153 
L 236.562127 164.669703 
L 235.197437 165.430626 
L 233.832748 166.106431 
L 232.468059 166.693627 
L 231.103369 167.188723 
L 229.73868 167.588228 
L 228.373991 167.888651 
L 227.009301 168.086501 
L 225.644612 168.178288 
L 224.279922 168.165205 
L 222.915233 168.065062 
L 221.550544 167.899356 
L 220.185854 167.689583 
L 218.821165 167.457239 
L 217.456476 167.223821 
L 216.091786 167.010823 
L 214.727097 166.839743 
L 213.362408 166.732076 
L 211.997718 166.709318 
L 210.633029 166.790987 
L 209.268339 166.974677 
L 207.90365 167.244334 
L 206.538961 167.583698 
L 205.174271 167.976508 
L 203.809582 168.406504 
L 202.444893 168.857425 
L 201.080203 169.313012 
L 199.715514 169.757005 
L 198.350825 170.173142 
L 196.986135 170.545357 
L 195.621446 170.870356 
L 194.256756 171.165362 
L 192.892067 171.449451 
L 191.527378 171.741698 
L 190.162688 172.06118 
L 188.797999 172.426971 
L 187.43331 172.858148 
L 186.06862 173.373785 
L 184.703931 173.992959 
L 183.339242 174.734745 
L 181.974552 175.611243 
L 180.609863 176.603092 
L 179.245173 177.682064 
L 177.880484 178.819932 
L 176.515795 179.988468 
L 175.151105 181.159442 
L 173.786416 182.304629 
L 172.421727 183.395798 
L 171.057037 184.404723 
L 169.692348 185.303175 
L 168.327658 186.064131 
L 166.962969 186.678609 
L 165.59828 187.151511 
L 164.23359 187.488098 
L 162.868901 187.693629 
L 161.504212 187.773364 
L 160.139522 187.732564 
L 158.774833 187.57649 
L 157.410144 187.3104 
L 156.045454 186.939556 
L 154.680765 186.469249 
L 153.316075 185.909127 
L 151.951386 185.277527 
L 150.586697 184.593819 
L 149.222007 183.877373 
L 147.857318 183.147559 
L 146.492629 182.423747 
L 145.127939 181.725307 
L 143.76325 181.071609 
L 142.398561 180.482024 
L 141.033871 179.97592 
L 139.669182 179.568451 
L 138.304492 179.250511 
L 136.939803 179.004341 
L 135.575114 178.812171 
L 134.210424 178.656233 
L 132.845735 178.518757 
L 131.481046 178.381974 
L 130.116356 178.228114 
L 128.751667 178.039407 
L 127.386978 177.798085 
L 126.022288 177.546021 
L 124.657599 177.394901 
L 123.292909 177.077919 
L 121.92822 176.626196 
L 120.563531 176.070852 
L 119.198841 175.443009 
L 117.834152 174.773786 
L 116.469463 174.094304 
L 115.104773 173.435685 
L 113.740084 172.880934 
L 112.375395 172.390141 
L 111.010705 171.948153 
L 109.646016 171.572071 
L 108.281326 171.356338 
L 106.916637 171.234984 
L 105.551948 171.203304 
L 104.187258 171.256594 
L 102.822569 171.390149 
L 101.45788 171.599266 
L 100.09319 171.87924 
L 98.728501 172.252667 
L 97.363812 172.991247 
L 95.999122 173.888357 
L 94.634433 174.919943 
L 93.269743 176.0619 
L 91.905054 177.290125 
L 90.540365 178.580514 
L 89.175675 179.908963 
L 87.810986 181.251369 
L 86.446297 182.583628 
L 85.081607 183.881635 
L 83.716918 185.121556 
L 82.352229 186.287871 
L 80.987539 187.374789 
L 79.62285 188.377071 
L 78.25816 189.289478 
L 76.893471 190.106771 
L 75.528782 190.82371 
L 74.164092 191.435057 
L 72.799403 191.935573 
L 71.434714 192.320018 
L 70.070024 192.583156 
L 68.705335 192.724757 
L 67.340646 192.760374 
L 65.975956 192.708658 
L 64.611267 192.588261 
L 63.246577 192.417837 
L 61.881888 192.216038 
L 60.517199 192.001515 
L 59.152509 191.792922 
L 57.78782 191.60891 
L 56.423131 191.468132 
L 55.058441 191.387578 
L 53.693752 191.368223 
L 52.329062 191.402092 
L 50.964373 191.481112 
L 49.599684 191.597212 
L 48.234994 191.742317 
L 46.870305 191.908357 
L 45.505616 192.087258 
L 44.140926 192.270947 
L 42.776237 192.451352 
L 41.411548 192.6204 
L 40.046858 192.77002 
L 38.682169 192.892137 
L 37.317479 192.978681 
L 35.95279 193.021577 
L 34.588101 193.012753 
L 33.223411 192.944138 
L 31.858722 192.807658 
L 30.494033 192.59524 
L 29.129343 192.298812 
L 27.764654 191.910302 
z
" clip-path="url(#p44d40a64ee)" style="fill: #1f77b4"/>
   </g>
   <g id="FillBetweenPolyCollection_2">
    <path d="M 27.764654 175.10476 
L 27.764654 191.910302 
L 29.129343 192.298812 
L 30.494033 192.59524 
L 31.858722 192.807658 
L 33.223411 192.944138 
L 34.588101 193.012753 
L 35.95279 193.021577 
L 37.317479 192.978681 
L 38.682169 192.892137 
L 40.046858 192.77002 
L 41.411548 192.6204 
L 42.776237 192.451352 
L 44.140926 192.270947 
L 45.505616 192.087258 
L 46.870305 191.908357 
L 48.234994 191.742317 
L 49.599684 191.597212 
L 50.964373 191.481112 
L 52.329062 191.402092 
L 53.693752 191.368223 
L 55.058441 191.387578 
L 56.423131 191.468132 
L 57.78782 191.60891 
L 59.152509 191.792922 
L 60.517199 192.001515 
L 61.881888 192.216038 
L 63.246577 192.417837 
L 64.611267 192.588261 
L 65.975956 192.708658 
L 67.340646 192.760374 
L 68.705335 192.724757 
L 70.070024 192.583156 
L 71.434714 192.320018 
L 72.799403 191.935573 
L 74.164092 191.435057 
L 75.528782 190.82371 
L 76.893471 190.106771 
L 78.25816 189.289478 
L 79.62285 188.377071 
L 80.987539 187.374789 
L 82.352229 186.287871 
L 83.716918 185.121556 
L 85.081607 183.881635 
L 86.446297 182.583628 
L 87.810986 181.251369 
L 89.175675 179.908963 
L 90.540365 178.580514 
L 91.905054 177.290125 
L 93.269743 176.0619 
L 94.634433 174.919943 
L 95.999122 173.888357 
L 97.363812 172.991247 
L 98.728501 172.252667 
L 100.09319 171.87924 
L 101.45788 171.599266 
L 102.822569 171.390149 
L 104.187258 171.256594 
L 105.551948 171.203304 
L 106.916637 171.234984 
L 108.281326 171.356338 
L 109.646016 171.572071 
L 111.010705 171.948153 
L 112.375395 172.390141 
L 113.740084 172.880934 
L 115.104773 173.435685 
L 116.469463 174.094304 
L 117.834152 174.773786 
L 119.198841 175.443009 
L 120.563531 176.070852 
L 121.92822 176.626196 
L 123.292909 177.077919 
L 124.657599 177.394901 
L 126.022288 177.546021 
L 127.386978 177.798085 
L 128.751667 178.039407 
L 130.116356 178.228114 
L 131.481046 178.381974 
L 132.845735 178.518757 
L 134.210424 178.656233 
L 135.575114 178.812171 
L 136.939803 179.004341 
L 138.304492 179.250511 
L 139.669182 179.568451 
L 141.033871 179.97592 
L 142.398561 180.482024 
L 143.76325 181.071609 
L 145.127939 181.725307 
L 146.492629 182.423747 
L 147.857318 183.147559 
L 149.222007 183.877373 
L 150.586697 184.593819 
L 151.951386 185.277527 
L 153.316075 185.909127 
L 154.680765 186.469249 
L 156.045454 186.939556 
L 157.410144 187.3104 
L 158.774833 187.57649 
L 160.139522 187.732564 
L 161.504212 187.773364 
L 162.868901 187.693629 
L 164.23359 187.488098 
L 165.59828 187.151511 
L 166.962969 186.678609 
L 168.327658 186.064131 
L 169.692348 185.303175 
L 171.057037 184.404723 
L 172.421727 183.395798 
L 173.786416 182.304629 
L 175.151105 181.159442 
L 176.515795 179.988468 
L 177.880484 178.819932 
L 179.245173 177.682064 
L 180.609863 176.603092 
L 181.974552 175.611243 
L 183.339242 174.734745 
L 184.703931 173.992959 
L 186.06862 173.373785 
L 187.43331 172.858148 
L 188.797999 172.426971 
L 190.162688 172.06118 
L 191.527378 171.741698 
L 192.892067 171.449451 
L 194.256756 171.165362 
L 195.621446 170.870356 
L 196.986135 170.545357 
L 198.350825 170.173142 
L 199.715514 169.757005 
L 201.080203 169.313012 
L 202.444893 168.857425 
L 203.809582 168.406504 
L 205.174271 167.976508 
L 206.538961 167.583698 
L 207.90365 167.244334 
L 209.268339 166.974677 
L 210.633029 166.790987 
L 211.997718 166.709318 
L 213.362408 166.732076 
L 214.727097 166.839743 
L 216.091786 167.010823 
L 217.456476 167.223821 
L 218.821165 167.457239 
L 220.185854 167.689583 
L 221.550544 167.899356 
L 222.915233 168.065062 
L 224.279922 168.165205 
L 225.644612 168.178288 
L 227.009301 168.086501 
L 228.373991 167.888651 
L 229.73868 167.588228 
L 231.103369 167.188723 
L 232.468059 166.693627 
L 233.832748 166.106431 
L 235.197437 165.430626 
L 236.562127 164.669703 
L 237.926816 163.827153 
L 239.291505 162.906467 
L 240.656195 161.911482 
L 242.020884 160.915295 
L 243.385574 159.854267 
L 244.750263 158.727591 
L 246.114952 157.552334 
L 247.479642 156.34556 
L 248.844331 155.124337 
L 250.20902 153.905729 
L 251.57371 152.706801 
L 252.938399 151.589613 
L 254.303088 150.531268 
L 255.667778 149.543353 
L 257.032467 148.6527 
L 258.397157 147.887222 
L 259.761846 147.274835 
L 261.126535 146.843451 
L 262.491225 146.620985 
L 263.855914 146.635352 
L 265.220603 146.914465 
L 266.585293 147.486238 
L 267.949982 148.378585 
L 269.314671 149.608048 
L 270.679361 151.125767 
L 272.04405 152.859555 
L 273.40874 154.737192 
L 274.773429 156.686459 
L 276.138118 158.63514 
L 277.502808 160.511014 
L 278.867497 162.241865 
L 280.232186 163.755473 
L 281.596876 164.97962 
L 282.961565 165.844665 
L 284.326254 166.335017 
L 285.690944 166.486386 
L 287.055633 166.33651 
L 288.420323 165.923127 
L 289.785012 165.283975 
L 291.149701 164.456791 
L 292.514391 163.479313 
L 293.87908 162.389279 
L 295.243769 161.224426 
L 296.608459 160.022468 
L 297.973148 158.811923 
L 299.337838 157.598334 
L 300.702527 156.383716 
L 302.067216 155.170084 
L 303.431906 153.959453 
L 304.796595 152.753839 
L 306.161284 151.555255 
L 307.525974 150.365717 
L 308.890663 149.187241 
L 310.255352 148.021839 
L 311.620042 146.871864 
L 312.984731 145.742139 
L 314.349421 144.638598 
L 315.71411 143.567179 
L 317.078799 142.533823 
L 318.443489 141.544467 
L 319.808178 140.605052 
L 321.172867 139.721515 
L 322.537557 138.899797 
L 323.902246 138.145835 
L 325.266935 137.504954 
L 326.631625 137.125517 
L 327.996314 136.731675 
L 329.361004 136.304857 
L 330.725693 135.826488 
L 332.090382 135.277998 
L 333.455072 134.640812 
L 334.819761 133.896359 
L 336.18445 133.026066 
L 337.54914 132.011359 
L 338.913829 130.937311 
L 340.278518 129.864871 
L 341.643208 128.687129 
L 343.007897 127.435527 
L 344.372587 126.141503 
L 345.737276 124.836497 
L 347.101965 123.551948 
L 348.466655 122.319296 
L 349.831344 121.169979 
L 351.196033 120.135439 
L 352.560723 119.247113 
L 353.925412 118.533153 
L 355.290101 117.990039 
L 356.654791 117.596549 
L 358.01948 117.331269 
L 359.38417 117.172783 
L 360.748859 117.099677 
L 362.113548 117.090536 
L 363.478238 117.123945 
L 364.842927 117.17849 
L 366.207616 117.232756 
L 367.572306 117.265328 
L 368.936995 117.254791 
L 370.301684 117.179731 
L 371.666374 117.018733 
L 373.031063 116.750382 
L 374.395753 116.353264 
L 375.760442 115.805964 
L 377.125131 115.087066 
L 378.489821 114.175157 
L 379.85451 113.048821 
L 381.219199 111.686644 
L 381.219199 78.589342 
L 381.219199 78.589342 
L 379.85451 78.360253 
L 378.489821 78.360029 
L 377.125131 78.578763 
L 375.760442 79.006551 
L 374.395753 79.633485 
L 373.031063 80.449661 
L 371.666374 81.445171 
L 370.301684 82.610111 
L 368.936995 83.934575 
L 367.572306 85.408656 
L 366.207616 87.02245 
L 364.842927 88.766049 
L 363.478238 90.629548 
L 362.113548 92.603042 
L 360.748859 94.676625 
L 359.38417 96.84039 
L 358.01948 99.084432 
L 356.654791 101.398844 
L 355.290101 103.773722 
L 353.925412 106.199159 
L 352.560723 108.665196 
L 351.196033 111.156967 
L 349.831344 113.650826 
L 348.466655 116.122217 
L 347.101965 118.546581 
L 345.737276 120.899363 
L 344.372587 123.156004 
L 343.007897 125.291949 
L 341.643208 127.28264 
L 340.278518 129.10352 
L 338.913829 130.730031 
L 337.54914 132.011359 
L 336.18445 133.026066 
L 334.819761 133.896359 
L 333.455072 134.640812 
L 332.090382 135.277998 
L 330.725693 135.826488 
L 329.361004 136.304857 
L 327.996314 136.731675 
L 326.631625 137.125517 
L 325.266935 137.504954 
L 323.902246 137.63001 
L 322.537557 137.662485 
L 321.172867 137.641959 
L 319.808178 137.568006 
L 318.443489 137.440205 
L 317.078799 137.25813 
L 315.71411 137.02136 
L 314.349421 136.729469 
L 312.984731 136.382036 
L 311.620042 135.978635 
L 310.255352 135.518874 
L 308.890663 135.008724 
L 307.525974 134.468358 
L 306.161284 133.91987 
L 304.796595 133.385354 
L 303.431906 132.886904 
L 302.067216 132.446615 
L 300.702527 132.086581 
L 299.337838 131.828895 
L 297.973148 131.695652 
L 296.608459 131.708947 
L 295.243769 131.88631 
L 293.87908 132.21557 
L 292.514391 132.672665 
L 291.149701 133.233501 
L 289.785012 133.873984 
L 288.420323 134.570022 
L 287.055633 135.297521 
L 285.690944 136.032387 
L 284.326254 136.750528 
L 282.961565 137.427849 
L 281.596876 138.040936 
L 280.232186 138.583553 
L 278.867497 139.067561 
L 277.502808 139.505685 
L 276.138118 139.910648 
L 274.773429 140.295177 
L 273.40874 140.671996 
L 272.04405 141.053828 
L 270.679361 141.453399 
L 269.314671 141.883434 
L 267.949982 142.356653 
L 266.585293 142.883185 
L 265.220603 143.465889 
L 263.855914 144.106362 
L 262.491225 144.806199 
L 261.126535 145.566996 
L 259.761846 146.390347 
L 258.397157 147.27785 
L 257.032467 148.231099 
L 255.667778 149.251691 
L 254.303088 150.34122 
L 252.938399 151.499629 
L 251.57371 152.706801 
L 250.20902 153.905729 
L 248.844331 155.124337 
L 247.479642 156.34556 
L 246.114952 157.552334 
L 244.750263 158.727591 
L 243.385574 159.854267 
L 242.020884 160.915295 
L 240.656195 161.875739 
L 239.291505 162.638029 
L 237.926816 163.249153 
L 236.562127 163.697006 
L 235.197437 163.969813 
L 233.832748 164.055798 
L 232.468059 163.943188 
L 231.103369 163.620208 
L 229.73868 163.075084 
L 228.373991 162.29604 
L 227.009301 161.271303 
L 225.644612 159.989099 
L 224.279922 158.451833 
L 222.915233 156.712227 
L 221.550544 154.834159 
L 220.185854 152.881506 
L 218.821165 150.918145 
L 217.456476 149.007952 
L 216.091786 147.214806 
L 214.727097 145.602582 
L 213.362408 144.235159 
L 211.997718 143.176413 
L 210.633029 142.484223 
L 209.268339 142.150005 
L 207.90365 142.1238 
L 206.538961 142.355022 
L 205.174271 142.793086 
L 203.809582 143.387408 
L 202.444893 144.087402 
L 201.080203 144.842483 
L 199.715514 145.602067 
L 198.350825 146.315568 
L 196.986135 146.932832 
L 195.621446 147.432199 
L 194.256756 147.837784 
L 192.892067 148.177829 
L 191.527378 148.48058 
L 190.162688 148.774279 
L 188.797999 149.087172 
L 187.43331 149.447502 
L 186.06862 149.883514 
L 184.703931 150.423452 
L 183.339242 151.095559 
L 181.974552 151.919278 
L 180.609863 152.874351 
L 179.245173 153.929329 
L 177.880484 155.052766 
L 176.515795 156.213213 
L 175.151105 157.379223 
L 173.786416 158.519349 
L 172.421727 159.602141 
L 171.057037 160.596153 
L 169.692348 161.469937 
L 168.327658 162.193695 
L 166.962969 162.762322 
L 165.59828 163.189719 
L 164.23359 163.490278 
L 162.868901 163.67839 
L 161.504212 163.768446 
L 160.139522 163.774838 
L 158.774833 163.711955 
L 157.410144 163.59419 
L 156.045454 163.435933 
L 154.680765 163.251599 
L 153.316075 163.058728 
L 151.951386 162.881097 
L 150.586697 162.743228 
L 149.222007 162.669638 
L 147.857318 162.684847 
L 146.492629 162.813376 
L 145.127939 163.079743 
L 143.76325 163.508469 
L 142.398561 164.124072 
L 141.033871 164.951072 
L 139.669182 166.004776 
L 138.304492 167.247517 
L 136.939803 168.622727 
L 135.575114 170.073816 
L 134.210424 171.544193 
L 132.845735 172.977269 
L 131.481046 174.316453 
L 130.116356 175.505154 
L 128.751667 176.486783 
L 127.386978 177.20475 
L 126.022288 177.546021 
L 124.657599 177.394901 
L 123.292909 177.077919 
L 121.92822 176.626196 
L 120.563531 176.070852 
L 119.198841 175.443009 
L 117.834152 174.773786 
L 116.469463 174.094304 
L 115.104773 173.435685 
L 113.740084 172.777164 
L 112.375395 172.220842 
L 111.010705 171.825622 
L 109.646016 171.572071 
L 108.281326 171.356338 
L 106.916637 171.234984 
L 105.551948 171.203304 
L 104.187258 171.256594 
L 102.822569 171.390149 
L 101.45788 171.599266 
L 100.09319 171.87924 
L 98.728501 172.198064 
L 97.363812 172.274019 
L 95.999122 172.299187 
L 94.634433 172.281056 
L 93.269743 172.227153 
L 91.905054 172.145006 
L 90.540365 172.042142 
L 89.175675 171.926088 
L 87.810986 171.804372 
L 86.446297 171.684521 
L 85.081607 171.574062 
L 83.716918 171.480429 
L 82.352229 171.408156 
L 80.987539 171.358381 
L 79.62285 171.332051 
L 78.25816 171.330113 
L 76.893471 171.353513 
L 75.528782 171.4032 
L 74.164092 171.480119 
L 72.799403 171.585217 
L 71.434714 171.719441 
L 70.070024 171.883737 
L 68.705335 172.077632 
L 67.340646 172.296182 
L 65.975956 172.533562 
L 64.611267 172.783949 
L 63.246577 173.041519 
L 61.881888 173.300448 
L 60.517199 173.554913 
L 59.152509 173.799089 
L 57.78782 174.027153 
L 56.423131 174.233282 
L 55.058441 174.412151 
L 53.693752 174.563257 
L 52.329062 174.688789 
L 50.964373 174.790966 
L 49.599684 174.872008 
L 48.234994 174.934132 
L 46.870305 174.979558 
L 45.505616 175.010504 
L 44.140926 175.02919 
L 42.776237 175.037834 
L 41.411548 175.038655 
L 40.046858 175.033872 
L 38.682169 175.025705 
L 37.317479 175.01637 
L 35.95279 175.008089 
L 34.588101 175.003079 
L 33.223411 175.003559 
L 31.858722 175.011748 
L 30.494033 175.029866 
L 29.129343 175.06013 
L 27.764654 175.10476 
z
" clip-path="url(#p44d40a64ee)" style="fill: #aec7e8"/>
   </g>
   <g id="FillBetweenPolyCollection_3">
    <path d="M 27.764654 158.30888 
L 27.764654 175.10476 
L 29.129343 175.06013 
L 30.494033 175.029866 
L 31.858722 175.011748 
L 33.223411 175.003559 
L 34.588101 175.003079 
L 35.95279 175.008089 
L 37.317479 175.01637 
L 38.682169 175.025705 
L 40.046858 175.033872 
L 41.411548 175.038655 
L 42.776237 175.037834 
L 44.140926 175.02919 
L 45.505616 175.010504 
L 46.870305 174.979558 
L 48.234994 174.934132 
L 49.599684 174.872008 
L 50.964373 174.790966 
L 52.329062 174.688789 
L 53.693752 174.563257 
L 55.058441 174.412151 
L 56.423131 174.233282 
L 57.78782 174.027153 
L 59.152509 173.799089 
L 60.517199 173.554913 
L 61.881888 173.300448 
L 63.246577 173.041519 
L 64.611267 172.783949 
L 65.975956 172.533562 
L 67.340646 172.296182 
L 68.705335 172.077632 
L 70.070024 171.883737 
L 71.434714 171.719441 
L 72.799403 171.585217 
L 74.164092 171.480119 
L 75.528782 171.4032 
L 76.893471 171.353513 
L 78.25816 171.330113 
L 79.62285 171.332051 
L 80.987539 171.358381 
L 82.352229 171.408156 
L 83.716918 171.480429 
L 85.081607 171.574062 
L 86.446297 171.684521 
L 87.810986 171.804372 
L 89.175675 171.926088 
L 90.540365 172.042142 
L 91.905054 172.145006 
L 93.269743 172.227153 
L 94.634433 172.281056 
L 95.999122 172.299187 
L 97.363812 172.274019 
L 98.728501 172.198064 
L 100.09319 171.87924 
L 101.45788 171.599266 
L 102.822569 171.390149 
L 104.187258 171.256594 
L 105.551948 171.203304 
L 106.916637 171.234984 
L 108.281326 171.356338 
L 109.646016 171.572071 
L 111.010705 171.825622 
L 112.375395 172.220842 
L 113.740084 172.777164 
L 115.104773 173.435685 
L 116.469463 174.094304 
L 117.834152 174.773786 
L 119.198841 175.443009 
L 120.563531 176.070852 
L 121.92822 176.626196 
L 123.292909 177.077919 
L 124.657599 177.394901 
L 126.022288 177.546021 
L 127.386978 177.20475 
L 128.751667 176.486783 
L 130.116356 175.505154 
L 131.481046 174.316453 
L 132.845735 172.977269 
L 134.210424 171.544193 
L 135.575114 170.073816 
L 136.939803 168.622727 
L 138.304492 167.247517 
L 139.669182 166.004776 
L 141.033871 164.951072 
L 142.398561 164.124072 
L 143.76325 163.508469 
L 145.127939 163.079743 
L 146.492629 162.813376 
L 147.857318 162.684847 
L 149.222007 162.669638 
L 150.586697 162.743228 
L 151.951386 162.881097 
L 153.316075 163.058728 
L 154.680765 163.251599 
L 156.045454 163.435933 
L 157.410144 163.59419 
L 158.774833 163.711955 
L 160.139522 163.774838 
L 161.504212 163.768446 
L 162.868901 163.67839 
L 164.23359 163.490278 
L 165.59828 163.189719 
L 166.962969 162.762322 
L 168.327658 162.193695 
L 169.692348 161.469937 
L 171.057037 160.596153 
L 172.421727 159.602141 
L 173.786416 158.519349 
L 175.151105 157.379223 
L 176.515795 156.213213 
L 177.880484 155.052766 
L 179.245173 153.929329 
L 180.609863 152.874351 
L 181.974552 151.919278 
L 183.339242 151.095559 
L 184.703931 150.423452 
L 186.06862 149.883514 
L 187.43331 149.447502 
L 188.797999 149.087172 
L 190.162688 148.774279 
L 191.527378 148.48058 
L 192.892067 148.177829 
L 194.256756 147.837784 
L 195.621446 147.432199 
L 196.986135 146.932832 
L 198.350825 146.315568 
L 199.715514 145.602067 
L 201.080203 144.842483 
L 202.444893 144.087402 
L 203.809582 143.387408 
L 205.174271 142.793086 
L 206.538961 142.355022 
L 207.90365 142.1238 
L 209.268339 142.150005 
L 210.633029 142.484223 
L 211.997718 143.176413 
L 213.362408 144.235159 
L 214.727097 145.602582 
L 216.091786 147.214806 
L 217.456476 149.007952 
L 218.821165 150.918145 
L 220.185854 152.881506 
L 221.550544 154.834159 
L 222.915233 156.712227 
L 224.279922 158.451833 
L 225.644612 159.989099 
L 227.009301 161.271303 
L 228.373991 162.29604 
L 229.73868 163.075084 
L 231.103369 163.620208 
L 232.468059 163.943188 
L 233.832748 164.055798 
L 235.197437 163.969813 
L 236.562127 163.697006 
L 237.926816 163.249153 
L 239.291505 162.638029 
L 240.656195 161.875739 
L 242.020884 160.915295 
L 243.385574 159.854267 
L 244.750263 158.727591 
L 246.114952 157.552334 
L 247.479642 156.34556 
L 248.844331 155.124337 
L 250.20902 153.905729 
L 251.57371 152.706801 
L 252.938399 151.499629 
L 254.303088 150.34122 
L 255.667778 149.251691 
L 257.032467 148.231099 
L 258.397157 147.27785 
L 259.761846 146.390347 
L 261.126535 145.566996 
L 262.491225 144.806199 
L 263.855914 144.106362 
L 265.220603 143.465889 
L 266.585293 142.883185 
L 267.949982 142.356653 
L 269.314671 141.883434 
L 270.679361 141.453399 
L 272.04405 141.053828 
L 273.40874 140.671996 
L 274.773429 140.295177 
L 276.138118 139.910648 
L 277.502808 139.505685 
L 278.867497 139.067561 
L 280.232186 138.583553 
L 281.596876 138.040936 
L 282.961565 137.427849 
L 284.326254 136.750528 
L 285.690944 136.032387 
L 287.055633 135.297521 
L 288.420323 134.570022 
L 289.785012 133.873984 
L 291.149701 133.233501 
L 292.514391 132.672665 
L 293.87908 132.21557 
L 295.243769 131.88631 
L 296.608459 131.708947 
L 297.973148 131.695652 
L 299.337838 131.828895 
L 300.702527 132.086581 
L 302.067216 132.446615 
L 303.431906 132.886904 
L 304.796595 133.385354 
L 306.161284 133.91987 
L 307.525974 134.468358 
L 308.890663 135.008724 
L 310.255352 135.518874 
L 311.620042 135.978635 
L 312.984731 136.382036 
L 314.349421 136.729469 
L 315.71411 137.02136 
L 317.078799 137.25813 
L 318.443489 137.440205 
L 319.808178 137.568006 
L 321.172867 137.641959 
L 322.537557 137.662485 
L 323.902246 137.63001 
L 325.266935 137.504954 
L 326.631625 137.125517 
L 327.996314 136.731675 
L 329.361004 136.304857 
L 330.725693 135.826488 
L 332.090382 135.277998 
L 333.455072 134.640812 
L 334.819761 133.896359 
L 336.18445 133.026066 
L 337.54914 132.011359 
L 338.913829 130.730031 
L 340.278518 129.10352 
L 341.643208 127.28264 
L 343.007897 125.291949 
L 344.372587 123.156004 
L 345.737276 120.899363 
L 347.101965 118.546581 
L 348.466655 116.122217 
L 349.831344 113.650826 
L 351.196033 111.156967 
L 352.560723 108.665196 
L 353.925412 106.199159 
L 355.290101 103.773722 
L 356.654791 101.398844 
L 358.01948 99.084432 
L 359.38417 96.84039 
L 360.748859 94.676625 
L 362.113548 92.603042 
L 363.478238 90.629548 
L 364.842927 88.766049 
L 366.207616 87.02245 
L 367.572306 85.408656 
L 368.936995 83.934575 
L 370.301684 82.610111 
L 371.666374 81.445171 
L 373.031063 80.449661 
L 374.395753 79.633485 
L 375.760442 79.006551 
L 377.125131 78.578763 
L 378.489821 78.360029 
L 379.85451 78.360253 
L 381.219199 78.589342 
L 381.219199 78.422746 
L 381.219199 78.422746 
L 379.85451 78.003353 
L 378.489821 77.903064 
L 377.125131 78.094181 
L 375.760442 78.54901 
L 374.395753 79.239853 
L 373.031063 80.139016 
L 371.666374 81.218801 
L 370.301684 82.451513 
L 368.936995 83.809456 
L 367.572306 85.264934 
L 366.207616 86.79025 
L 364.842927 88.357708 
L 363.478238 89.939613 
L 362.113548 91.508269 
L 360.748859 93.035979 
L 359.38417 94.495047 
L 358.01948 95.857777 
L 356.654791 97.096473 
L 355.290101 98.18344 
L 353.925412 99.090981 
L 352.560723 99.791622 
L 351.196033 100.278323 
L 349.831344 100.580597 
L 348.466655 100.731755 
L 347.101965 100.765107 
L 345.737276 100.713963 
L 344.372587 100.611633 
L 343.007897 100.491427 
L 341.643208 100.386655 
L 340.278518 100.330627 
L 338.913829 100.356653 
L 337.54914 100.360254 
L 336.18445 100.407641 
L 334.819761 100.590048 
L 333.455072 100.895065 
L 332.090382 101.310283 
L 330.725693 101.823291 
L 329.361004 102.421681 
L 327.996314 103.093042 
L 326.631625 103.824964 
L 325.266935 104.605039 
L 323.902246 105.16303 
L 322.537557 105.643215 
L 321.172867 106.07854 
L 319.808178 106.462299 
L 318.443489 106.787788 
L 317.078799 107.048301 
L 315.71411 107.237131 
L 314.349421 107.347575 
L 312.984731 107.372926 
L 311.620042 107.306479 
L 310.255352 107.141564 
L 308.890663 106.87922 
L 307.525974 106.537677 
L 306.161284 106.137494 
L 304.796595 105.699229 
L 303.431906 105.243439 
L 302.067216 104.790682 
L 300.702527 104.361517 
L 299.337838 103.9765 
L 297.973148 103.656191 
L 296.608459 103.421148 
L 295.243769 103.291521 
L 293.87908 103.284825 
L 292.514391 103.417514 
L 291.149701 103.706041 
L 289.785012 104.166858 
L 288.420323 104.816419 
L 287.055633 105.671176 
L 285.690944 106.747582 
L 284.326254 108.06209 
L 282.961565 109.631151 
L 281.596876 111.469948 
L 280.232186 113.561484 
L 278.867497 115.854858 
L 277.502808 118.297555 
L 276.138118 120.837059 
L 274.773429 123.420853 
L 273.40874 125.996422 
L 272.04405 128.51125 
L 270.679361 130.91282 
L 269.314671 133.148617 
L 267.949982 135.166143 
L 266.585293 136.926715 
L 265.220603 138.430386 
L 263.855914 139.683946 
L 262.491225 140.694182 
L 261.126535 141.467882 
L 259.761846 142.011834 
L 258.397157 142.332828 
L 257.032467 142.43765 
L 255.667778 142.33309 
L 254.303088 142.025935 
L 252.938399 141.525447 
L 251.57371 140.855571 
L 250.20902 140.020764 
L 248.844331 139.110547 
L 247.479642 138.169451 
L 246.114952 137.242004 
L 244.750263 136.372736 
L 243.385574 135.606177 
L 242.020884 134.986856 
L 240.656195 134.541431 
L 239.291505 134.232955 
L 237.926816 134.131221 
L 236.562127 134.197798 
L 235.197437 134.391303 
L 233.832748 134.670353 
L 232.468059 134.993566 
L 231.103369 135.31956 
L 229.73868 135.606953 
L 228.373991 135.814362 
L 227.009301 135.900404 
L 225.644612 135.823698 
L 224.279922 135.560731 
L 222.915233 135.151395 
L 221.550544 134.649637 
L 220.185854 134.109405 
L 218.821165 133.584647 
L 217.456476 133.129312 
L 216.091786 132.797348 
L 214.727097 132.642702 
L 213.362408 132.719324 
L 211.997718 133.08116 
L 210.633029 133.775832 
L 209.268339 134.780857 
L 207.90365 136.030109 
L 206.538961 137.456802 
L 205.174271 138.99415 
L 203.809582 140.575367 
L 202.444893 142.133669 
L 201.080203 143.602268 
L 199.715514 144.91438 
L 198.350825 146.00322 
L 196.986135 146.802578 
L 195.621446 147.284511 
L 194.256756 147.482532 
L 192.892067 147.435705 
L 191.527378 147.183091 
L 190.162688 146.763751 
L 188.797999 146.216749 
L 187.43331 145.581147 
L 186.06862 144.896006 
L 184.703931 144.200388 
L 183.339242 143.533355 
L 181.974552 142.927843 
L 180.609863 142.389145 
L 179.245173 141.914769 
L 177.880484 141.50222 
L 176.515795 141.149002 
L 175.151105 140.852623 
L 173.786416 140.610588 
L 172.421727 140.420401 
L 171.057037 140.27957 
L 169.692348 140.1856 
L 168.327658 140.135785 
L 166.962969 140.124283 
L 165.59828 140.142833 
L 164.23359 140.18311 
L 162.868901 140.236791 
L 161.504212 140.295554 
L 160.139522 140.351075 
L 158.774833 140.39503 
L 157.410144 140.419096 
L 156.045454 140.414951 
L 154.680765 140.374349 
L 153.316075 140.299604 
L 151.951386 140.214112 
L 150.586697 140.143768 
L 149.222007 140.114471 
L 147.857318 140.152117 
L 146.492629 140.282604 
L 145.127939 140.531831 
L 143.76325 140.925692 
L 142.398561 141.490088 
L 141.033871 142.250914 
L 139.669182 143.226975 
L 138.304492 144.396295 
L 136.939803 145.722347 
L 135.575114 147.168585 
L 134.210424 148.698465 
L 132.845735 150.275442 
L 131.481046 151.86297 
L 130.116356 153.424507 
L 128.751667 154.923505 
L 127.386978 156.323421 
L 126.022288 157.530038 
L 124.657599 158.420648 
L 123.292909 159.290263 
L 121.92822 160.137516 
L 120.563531 160.961038 
L 119.198841 161.759465 
L 117.834152 162.531428 
L 116.469463 163.27556 
L 115.104773 163.990494 
L 113.740084 164.622979 
L 112.375395 165.242649 
L 111.010705 165.883522 
L 109.646016 166.520231 
L 108.281326 167.045899 
L 106.916637 167.514064 
L 105.551948 167.916995 
L 104.187258 168.246965 
L 102.822569 168.496243 
L 101.45788 168.6571 
L 100.09319 168.721808 
L 98.728501 168.655336 
L 97.363812 168.175369 
L 95.999122 167.49135 
L 94.634433 166.636178 
L 93.269743 165.642827 
L 91.905054 164.544273 
L 90.540365 163.37349 
L 89.175675 162.163454 
L 87.810986 160.94714 
L 86.446297 159.757523 
L 85.081607 158.627577 
L 83.716918 157.589799 
L 82.352229 156.661788 
L 80.987539 155.843722 
L 79.62285 155.134787 
L 78.25816 154.534174 
L 76.893471 154.041069 
L 75.528782 153.654661 
L 74.164092 153.374139 
L 72.799403 153.198691 
L 71.434714 153.127504 
L 70.070024 153.159767 
L 68.705335 153.291665 
L 67.340646 153.50993 
L 65.975956 153.799439 
L 64.611267 154.145063 
L 63.246577 154.53168 
L 61.881888 154.944162 
L 60.517199 155.367384 
L 59.152509 155.786222 
L 57.78782 156.185548 
L 56.423131 156.550239 
L 55.058441 156.86638 
L 53.693752 157.131735 
L 52.329062 157.350592 
L 50.964373 157.52731 
L 49.599684 157.66625 
L 48.234994 157.77177 
L 46.870305 157.848232 
L 45.505616 157.899993 
L 44.140926 157.931415 
L 42.776237 157.946856 
L 41.411548 157.950677 
L 40.046858 157.947236 
L 38.682169 157.940895 
L 37.317479 157.936012 
L 35.95279 157.936947 
L 34.588101 157.94806 
L 33.223411 157.97371 
L 31.858722 158.018258 
L 30.494033 158.086062 
L 29.129343 158.181483 
L 27.764654 158.30888 
z
" clip-path="url(#p44d40a64ee)" style="fill: #ff7f0e"/>
   </g>
   <g id="FillBetweenPolyCollection_4">
    <path d="M 27.764654 142.245023 
L 27.764654 158.30888 
L 29.129343 158.181483 
L 30.494033 158.086062 
L 31.858722 158.018258 
L 33.223411 157.97371 
L 34.588101 157.94806 
L 35.95279 157.936947 
L 37.317479 157.936012 
L 38.682169 157.940895 
L 40.046858 157.947236 
L 41.411548 157.950677 
L 42.776237 157.946856 
L 44.140926 157.931415 
L 45.505616 157.899993 
L 46.870305 157.848232 
L 48.234994 157.77177 
L 49.599684 157.66625 
L 50.964373 157.52731 
L 52.329062 157.350592 
L 53.693752 157.131735 
L 55.058441 156.86638 
L 56.423131 156.550239 
L 57.78782 156.185548 
L 59.152509 155.786222 
L 60.517199 155.367384 
L 61.881888 154.944162 
L 63.246577 154.53168 
L 64.611267 154.145063 
L 65.975956 153.799439 
L 67.340646 153.50993 
L 68.705335 153.291665 
L 70.070024 153.159767 
L 71.434714 153.127504 
L 72.799403 153.198691 
L 74.164092 153.374139 
L 75.528782 153.654661 
L 76.893471 154.041069 
L 78.25816 154.534174 
L 79.62285 155.134787 
L 80.987539 155.843722 
L 82.352229 156.661788 
L 83.716918 157.589799 
L 85.081607 158.627577 
L 86.446297 159.757523 
L 87.810986 160.94714 
L 89.175675 162.163454 
L 90.540365 163.37349 
L 91.905054 164.544273 
L 93.269743 165.642827 
L 94.634433 166.636178 
L 95.999122 167.49135 
L 97.363812 168.175369 
L 98.728501 168.655336 
L 100.09319 168.721808 
L 101.45788 168.6571 
L 102.822569 168.496243 
L 104.187258 168.246965 
L 105.551948 167.916995 
L 106.916637 167.514064 
L 108.281326 167.045899 
L 109.646016 166.520231 
L 111.010705 165.883522 
L 112.375395 165.242649 
L 113.740084 164.622979 
L 115.104773 163.990494 
L 116.469463 163.27556 
L 117.834152 162.531428 
L 119.198841 161.759465 
L 120.563531 160.961038 
L 121.92822 160.137516 
L 123.292909 159.290263 
L 124.657599 158.420648 
L 126.022288 157.530038 
L 127.386978 156.323421 
L 128.751667 154.923505 
L 130.116356 153.424507 
L 131.481046 151.86297 
L 132.845735 150.275442 
L 134.210424 148.698465 
L 135.575114 147.168585 
L 136.939803 145.722347 
L 138.304492 144.396295 
L 139.669182 143.226975 
L 141.033871 142.250914 
L 142.398561 141.490088 
L 143.76325 140.925692 
L 145.127939 140.531831 
L 146.492629 140.282604 
L 147.857318 140.152117 
L 149.222007 140.114471 
L 150.586697 140.143768 
L 151.951386 140.214112 
L 153.316075 140.299604 
L 154.680765 140.374349 
L 156.045454 140.414951 
L 157.410144 140.419096 
L 158.774833 140.39503 
L 160.139522 140.351075 
L 161.504212 140.295554 
L 162.868901 140.236791 
L 164.23359 140.18311 
L 165.59828 140.142833 
L 166.962969 140.124283 
L 168.327658 140.135785 
L 169.692348 140.1856 
L 171.057037 140.27957 
L 172.421727 140.420401 
L 173.786416 140.610588 
L 175.151105 140.852623 
L 176.515795 141.149002 
L 177.880484 141.50222 
L 179.245173 141.914769 
L 180.609863 142.389145 
L 181.974552 142.927843 
L 183.339242 143.533355 
L 184.703931 144.200388 
L 186.06862 144.896006 
L 187.43331 145.581147 
L 188.797999 146.216749 
L 190.162688 146.763751 
L 191.527378 147.183091 
L 192.892067 147.435705 
L 194.256756 147.482532 
L 195.621446 147.284511 
L 196.986135 146.802578 
L 198.350825 146.00322 
L 199.715514 144.91438 
L 201.080203 143.602268 
L 202.444893 142.133669 
L 203.809582 140.575367 
L 205.174271 138.99415 
L 206.538961 137.456802 
L 207.90365 136.030109 
L 209.268339 134.780857 
L 210.633029 133.775832 
L 211.997718 133.08116 
L 213.362408 132.719324 
L 214.727097 132.642702 
L 216.091786 132.797348 
L 217.456476 133.129312 
L 218.821165 133.584647 
L 220.185854 134.109405 
L 221.550544 134.649637 
L 222.915233 135.151395 
L 224.279922 135.560731 
L 225.644612 135.823698 
L 227.009301 135.900404 
L 228.373991 135.814362 
L 229.73868 135.606953 
L 231.103369 135.31956 
L 232.468059 134.993566 
L 233.832748 134.670353 
L 235.197437 134.391303 
L 236.562127 134.197798 
L 237.926816 134.131221 
L 239.291505 134.232955 
L 240.656195 134.541431 
L 242.020884 134.986856 
L 243.385574 135.606177 
L 244.750263 136.372736 
L 246.114952 137.242004 
L 247.479642 138.169451 
L 248.844331 139.110547 
L 250.20902 140.020764 
L 251.57371 140.855571 
L 252.938399 141.525447 
L 254.303088 142.025935 
L 255.667778 142.33309 
L 257.032467 142.43765 
L 258.397157 142.332828 
L 259.761846 142.011834 
L 261.126535 141.467882 
L 262.491225 140.694182 
L 263.855914 139.683946 
L 265.220603 138.430386 
L 266.585293 136.926715 
L 267.949982 135.166143 
L 269.314671 133.148617 
L 270.679361 130.91282 
L 272.04405 128.51125 
L 273.40874 125.996422 
L 274.773429 123.420853 
L 276.138118 120.837059 
L 277.502808 118.297555 
L 278.867497 115.854858 
L 280.232186 113.561484 
L 281.596876 111.469948 
L 282.961565 109.631151 
L 284.326254 108.06209 
L 285.690944 106.747582 
L 287.055633 105.671176 
L 288.420323 104.816419 
L 289.785012 104.166858 
L 291.149701 103.706041 
L 292.514391 103.417514 
L 293.87908 103.284825 
L 295.243769 103.291521 
L 296.608459 103.421148 
L 297.973148 103.656191 
L 299.337838 103.9765 
L 300.702527 104.361517 
L 302.067216 104.790682 
L 303.431906 105.243439 
L 304.796595 105.699229 
L 306.161284 106.137494 
L 307.525974 106.537677 
L 308.890663 106.87922 
L 310.255352 107.141564 
L 311.620042 107.306479 
L 312.984731 107.372926 
L 314.349421 107.347575 
L 315.71411 107.237131 
L 317.078799 107.048301 
L 318.443489 106.787788 
L 319.808178 106.462299 
L 321.172867 106.07854 
L 322.537557 105.643215 
L 323.902246 105.16303 
L 325.266935 104.605039 
L 326.631625 103.824964 
L 327.996314 103.093042 
L 329.361004 102.421681 
L 330.725693 101.823291 
L 332.090382 101.310283 
L 333.455072 100.895065 
L 334.819761 100.590048 
L 336.18445 100.407641 
L 337.54914 100.360254 
L 338.913829 100.356653 
L 340.278518 100.330627 
L 341.643208 100.386655 
L 343.007897 100.491427 
L 344.372587 100.611633 
L 345.737276 100.713963 
L 347.101965 100.765107 
L 348.466655 100.731755 
L 349.831344 100.580597 
L 351.196033 100.278323 
L 352.560723 99.791622 
L 353.925412 99.090981 
L 355.290101 98.18344 
L 356.654791 97.096473 
L 358.01948 95.857777 
L 359.38417 94.495047 
L 360.748859 93.035979 
L 362.113548 91.508269 
L 363.478238 89.939613 
L 364.842927 88.357708 
L 366.207616 86.79025 
L 367.572306 85.264934 
L 368.936995 83.809456 
L 370.301684 82.451513 
L 371.666374 81.218801 
L 373.031063 80.139016 
L 374.395753 79.239853 
L 375.760442 78.54901 
L 377.125131 78.094181 
L 378.489821 77.903064 
L 379.85451 78.003353 
L 381.219199 78.422746 
L 381.219199 60.147493 
L 381.219199 60.147493 
L 379.85451 60.02125 
L 378.489821 60.186086 
L 377.125131 60.6153 
L 375.760442 61.282188 
L 374.395753 62.160048 
L 373.031063 63.222179 
L 371.666374 64.441877 
L 370.301684 65.79244 
L 368.936995 67.247166 
L 367.572306 68.779353 
L 366.207616 70.362298 
L 364.842927 71.9693 
L 363.478238 73.573655 
L 362.113548 75.148661 
L 360.748859 76.667616 
L 359.38417 78.103818 
L 358.01948 79.430564 
L 356.654791 80.621152 
L 355.290101 81.64888 
L 353.925412 82.487045 
L 352.560723 83.109191 
L 351.196033 83.511279 
L 349.831344 83.729393 
L 348.466655 83.80378 
L 347.101965 83.774687 
L 345.737276 83.682361 
L 344.372587 83.56705 
L 343.007897 83.468999 
L 341.643208 83.428458 
L 340.278518 83.485672 
L 338.913829 83.680889 
L 337.54914 83.913554 
L 336.18445 84.238476 
L 334.819761 84.73062 
L 333.455072 85.361306 
L 332.090382 86.101855 
L 330.725693 86.923588 
L 329.361004 87.797823 
L 327.996314 88.695883 
L 326.631625 89.589087 
L 325.266935 90.448755 
L 323.902246 90.989371 
L 322.537557 91.357366 
L 321.172867 91.602746 
L 319.808178 91.736344 
L 318.443489 91.768994 
L 317.078799 91.711528 
L 315.71411 91.574782 
L 314.349421 91.369587 
L 312.984731 91.106779 
L 311.620042 90.797189 
L 310.255352 90.45165 
L 308.890663 90.080316 
L 307.525974 89.691839 
L 306.161284 89.294668 
L 304.796595 88.89725 
L 303.431906 88.508034 
L 302.067216 88.135467 
L 300.702527 87.787998 
L 299.337838 87.474075 
L 297.973148 87.202145 
L 296.608459 86.980656 
L 295.243769 86.819961 
L 293.87908 86.742801 
L 292.514391 86.776877 
L 291.149701 86.949905 
L 289.785012 87.289599 
L 288.420323 87.823674 
L 287.055633 88.579844 
L 285.690944 89.585825 
L 284.326254 90.869331 
L 282.961565 92.458078 
L 281.596876 94.378042 
L 280.232186 96.611248 
L 278.867497 99.093407 
L 277.502808 101.758023 
L 276.138118 104.538602 
L 274.773429 107.368647 
L 273.40874 110.181663 
L 272.04405 112.911155 
L 270.679361 115.490628 
L 269.314671 117.853584 
L 267.949982 119.933555 
L 266.585293 121.6842 
L 265.220603 123.115606 
L 263.855914 124.247673 
L 262.491225 125.100301 
L 261.126535 125.69339 
L 259.761846 126.046841 
L 258.397157 126.180553 
L 257.032467 126.114426 
L 255.667778 125.86836 
L 254.303088 125.462256 
L 252.938399 124.916492 
L 251.57371 124.249351 
L 250.20902 123.45122 
L 248.844331 122.597486 
L 247.479642 121.718547 
L 246.114952 120.844799 
L 244.750263 120.006639 
L 243.385574 119.234463 
L 242.020884 118.558668 
L 240.656195 117.99178 
L 239.291505 117.483263 
L 237.926816 117.11054 
L 236.562127 116.870373 
L 235.197437 116.758412 
L 233.832748 116.770309 
L 232.468059 116.901715 
L 231.103369 117.148281 
L 229.73868 117.505658 
L 228.373991 117.969499 
L 227.009301 118.535455 
L 225.644612 119.199176 
L 224.279922 119.953505 
L 222.915233 120.781312 
L 221.550544 121.663259 
L 220.185854 122.580008 
L 218.821165 123.512219 
L 217.456476 124.440553 
L 216.091786 125.345672 
L 214.727097 126.208237 
L 213.362408 127.008909 
L 211.997718 127.728349 
L 210.633029 128.34854 
L 209.268339 128.866114 
L 207.90365 129.286821 
L 206.538961 129.61655 
L 205.174271 129.861187 
L 203.809582 130.026621 
L 202.444893 130.118741 
L 201.080203 130.143435 
L 199.715514 130.106589 
L 198.350825 130.014094 
L 196.986135 129.871831 
L 195.621446 129.685399 
L 194.256756 129.459933 
L 192.892067 129.200527 
L 191.527378 128.912276 
L 190.162688 128.600273 
L 188.797999 128.269612 
L 187.43331 127.925389 
L 186.06862 127.572697 
L 184.703931 127.21663 
L 183.339242 126.862283 
L 181.974552 126.513933 
L 180.609863 126.172175 
L 179.245173 125.836565 
L 177.880484 125.506661 
L 176.515795 125.182018 
L 175.151105 124.862193 
L 173.786416 124.546744 
L 172.421727 124.235226 
L 171.057037 123.927195 
L 169.692348 123.62221 
L 168.327658 123.32047 
L 166.962969 123.031809 
L 165.59828 122.773477 
L 164.23359 122.562915 
L 162.868901 122.417563 
L 161.504212 122.354862 
L 160.139522 122.392253 
L 158.774833 122.547177 
L 157.410144 122.837074 
L 156.045454 123.279385 
L 154.680765 123.891437 
L 153.316075 124.675421 
L 151.951386 125.603306 
L 150.586697 126.643475 
L 149.222007 127.764307 
L 147.857318 128.934183 
L 146.492629 130.121485 
L 145.127939 131.294593 
L 143.76325 132.421889 
L 142.398561 133.471752 
L 141.033871 134.412565 
L 139.669182 135.219137 
L 138.304492 135.903247 
L 136.939803 136.489867 
L 135.575114 137.003979 
L 134.210424 137.470572 
L 132.845735 137.914628 
L 131.481046 138.361135 
L 130.116356 138.835078 
L 128.751667 139.361441 
L 127.386978 139.965211 
L 126.022288 140.611352 
L 124.657599 141.18708 
L 123.292909 141.95057 
L 121.92822 142.861776 
L 120.563531 143.880649 
L 119.198841 144.967141 
L 117.834152 146.081203 
L 116.469463 147.182789 
L 115.104773 148.23185 
L 113.740084 149.136453 
L 112.375395 149.927591 
L 111.010705 150.615867 
L 109.646016 151.19053 
L 108.281326 151.565164 
L 106.916637 151.813765 
L 105.551948 151.949063 
L 104.187258 151.983787 
L 102.822569 151.93067 
L 101.45788 151.80244 
L 100.09319 151.611829 
L 98.728501 151.344265 
L 97.363812 150.73524 
L 95.999122 149.99239 
L 94.634433 149.138016 
L 93.269743 148.194455 
L 91.905054 147.184044 
L 90.540365 146.12912 
L 89.175675 145.05202 
L 87.810986 143.975081 
L 86.446297 142.920638 
L 85.081607 141.91103 
L 83.716918 140.96832 
L 82.352229 140.106075 
L 80.987539 139.327926 
L 79.62285 138.636941 
L 78.25816 138.036186 
L 76.893471 137.52873 
L 75.528782 137.117638 
L 74.164092 136.805979 
L 72.799403 136.59682 
L 71.434714 136.493227 
L 70.070024 136.498266 
L 68.705335 136.61094 
L 67.340646 136.817449 
L 65.975956 137.101478 
L 64.611267 137.44671 
L 63.246577 137.836832 
L 61.881888 138.255526 
L 60.517199 138.686478 
L 59.152509 139.113372 
L 57.78782 139.519893 
L 56.423131 139.889725 
L 55.058441 140.207894 
L 53.693752 140.472343 
L 52.329062 140.688233 
L 50.964373 140.860805 
L 49.599684 140.9953 
L 48.234994 141.096958 
L 46.870305 141.17102 
L 45.505616 141.222726 
L 44.140926 141.257317 
L 42.776237 141.280034 
L 41.411548 141.296117 
L 40.046858 141.310807 
L 38.682169 141.329344 
L 37.317479 141.356969 
L 35.95279 141.398923 
L 34.588101 141.460447 
L 33.223411 141.54678 
L 31.858722 141.663163 
L 30.494033 141.814838 
L 29.129343 142.007045 
L 27.764654 142.245023 
z
" clip-path="url(#p44d40a64ee)" style="fill: #ffbb78"/>
   </g>
   <g id="matplotlib.axis_1">
    <g id="xtick_1">
     <g id="line2d_1">
      <defs>
       <path id="m8e2c13f60b" d="M 0 0 
L 0 3.5 
" style="stroke: #000000; stroke-width: 0.8"/>
      </defs>
      <g>
       <use xlink:href="#m8e2c13f60b" x="27.764654" y="314.12125" style="stroke: #000000; stroke-width: 0.8"/>
      </g>
     </g>
     <g id="text_1">
      <!-- 1971 -->
      <g transform="translate(12.109973 340.173358) rotate(-45) scale(0.1 -0.1)">
       <defs>
        <path id="TimesNewRomanPSMT-31" d="M 750 3822 
L 1781 4325 
L 1884 4325 
L 1884 747 
Q 1884 391 1914 303 
Q 1944 216 2037 169 
Q 2131 122 2419 116 
L 2419 0 
L 825 0 
L 825 116 
Q 1125 122 1212 167 
Q 1300 213 1334 289 
Q 1369 366 1369 747 
L 1369 3034 
Q 1369 3497 1338 3628 
Q 1316 3728 1258 3775 
Q 1200 3822 1119 3822 
Q 1003 3822 797 3725 
L 750 3822 
z
" transform="scale(0.015625)"/>
        <path id="TimesNewRomanPSMT-39" d="M 338 -88 
L 338 28 
Q 744 34 1094 217 
Q 1444 400 1770 856 
Q 2097 1313 2225 1859 
Q 1734 1544 1338 1544 
Q 891 1544 572 1889 
Q 253 2234 253 2806 
Q 253 3363 572 3797 
Q 956 4325 1575 4325 
Q 2097 4325 2469 3894 
Q 2925 3359 2925 2575 
Q 2925 1869 2578 1258 
Q 2231 647 1613 244 
Q 1109 -88 516 -88 
L 338 -88 
z
M 2275 2091 
Q 2331 2497 2331 2741 
Q 2331 3044 2228 3395 
Q 2125 3747 1936 3934 
Q 1747 4122 1506 4122 
Q 1228 4122 1018 3872 
Q 809 3622 809 3128 
Q 809 2469 1088 2097 
Q 1291 1828 1588 1828 
Q 1731 1828 1928 1897 
Q 2125 1966 2275 2091 
z
" transform="scale(0.015625)"/>
        <path id="TimesNewRomanPSMT-37" d="M 644 4238 
L 2916 4238 
L 2916 4119 
L 1503 -88 
L 1153 -88 
L 2419 3728 
L 1253 3728 
Q 900 3728 750 3644 
Q 488 3500 328 3200 
L 238 3234 
L 644 4238 
z
" transform="scale(0.015625)"/>
       </defs>
       <use xlink:href="#TimesNewRomanPSMT-31"/>
       <use xlink:href="#TimesNewRomanPSMT-39" transform="translate(50 0)"/>
       <use xlink:href="#TimesNewRomanPSMT-37" transform="translate(100 0)"/>
       <use xlink:href="#TimesNewRomanPSMT-31" transform="translate(150 0)"/>
      </g>
     </g>
    </g>
    <g id="xtick_2">
     <g id="line2d_2">
      <g>
       <use xlink:href="#m8e2c13f60b" x="56.041018" y="314.12125" style="stroke: #000000; stroke-width: 0.8"/>
      </g>
     </g>
     <g id="text_2">
      <!-- 1973 -->
      <g transform="translate(40.386336 340.173358) rotate(-45) scale(0.1 -0.1)">
       <defs>
        <path id="TimesNewRomanPSMT-33" d="M 325 3431 
Q 506 3859 782 4092 
Q 1059 4325 1472 4325 
Q 1981 4325 2253 3994 
Q 2459 3747 2459 3466 
Q 2459 3003 1878 2509 
Q 2269 2356 2469 2072 
Q 2669 1788 2669 1403 
Q 2669 853 2319 450 
Q 1863 -75 997 -75 
Q 569 -75 414 31 
Q 259 138 259 259 
Q 259 350 332 419 
Q 406 488 509 488 
Q 588 488 669 463 
Q 722 447 909 348 
Q 1097 250 1169 231 
Q 1284 197 1416 197 
Q 1734 197 1970 444 
Q 2206 691 2206 1028 
Q 2206 1275 2097 1509 
Q 2016 1684 1919 1775 
Q 1784 1900 1550 2001 
Q 1316 2103 1072 2103 
L 972 2103 
L 972 2197 
Q 1219 2228 1467 2375 
Q 1716 2522 1828 2728 
Q 1941 2934 1941 3181 
Q 1941 3503 1739 3701 
Q 1538 3900 1238 3900 
Q 753 3900 428 3381 
L 325 3431 
z
" transform="scale(0.015625)"/>
       </defs>
       <use xlink:href="#TimesNewRomanPSMT-31"/>
       <use xlink:href="#TimesNewRomanPSMT-39" transform="translate(50 0)"/>
       <use xlink:href="#TimesNewRomanPSMT-37" transform="translate(100 0)"/>
       <use xlink:href="#TimesNewRomanPSMT-33" transform="translate(150 0)"/>
      </g>
     </g>
    </g>
    <g id="xtick_3">
     <g id="line2d_3">
      <g>
       <use xlink:href="#m8e2c13f60b" x="84.317381" y="314.12125" style="stroke: #000000; stroke-width: 0.8"/>
      </g>
     </g>
     <g id="text_3">
      <!-- 1975 -->
      <g transform="translate(68.6627 340.173358) rotate(-45) scale(0.1 -0.1)">
       <defs>
        <path id="TimesNewRomanPSMT-35" d="M 2778 4238 
L 2534 3706 
L 1259 3706 
L 981 3138 
Q 1809 3016 2294 2522 
Q 2709 2097 2709 1522 
Q 2709 1188 2573 903 
Q 2438 619 2231 419 
Q 2025 219 1772 97 
Q 1413 -75 1034 -75 
Q 653 -75 479 54 
Q 306 184 306 341 
Q 306 428 378 495 
Q 450 563 559 563 
Q 641 563 702 538 
Q 763 513 909 409 
Q 1144 247 1384 247 
Q 1750 247 2026 523 
Q 2303 800 2303 1197 
Q 2303 1581 2056 1914 
Q 1809 2247 1375 2428 
Q 1034 2569 447 2591 
L 1259 4238 
L 2778 4238 
z
" transform="scale(0.015625)"/>
       </defs>
       <use xlink:href="#TimesNewRomanPSMT-31"/>
       <use xlink:href="#TimesNewRomanPSMT-39" transform="translate(50 0)"/>
       <use xlink:href="#TimesNewRomanPSMT-37" transform="translate(100 0)"/>
       <use xlink:href="#TimesNewRomanPSMT-35" transform="translate(150 0)"/>
      </g>
     </g>
    </g>
    <g id="xtick_4">
     <g id="line2d_4">
      <g>
       <use xlink:href="#m8e2c13f60b" x="112.593745" y="314.12125" style="stroke: #000000; stroke-width: 0.8"/>
      </g>
     </g>
     <g id="text_4">
      <!-- 1977 -->
      <g transform="translate(96.939064 340.173358) rotate(-45) scale(0.1 -0.1)">
       <use xlink:href="#TimesNewRomanPSMT-31"/>
       <use xlink:href="#TimesNewRomanPSMT-39" transform="translate(50 0)"/>
       <use xlink:href="#TimesNewRomanPSMT-37" transform="translate(100 0)"/>
       <use xlink:href="#TimesNewRomanPSMT-37" transform="translate(150 0)"/>
      </g>
     </g>
    </g>
    <g id="xtick_5">
     <g id="line2d_5">
      <g>
       <use xlink:href="#m8e2c13f60b" x="140.870108" y="314.12125" style="stroke: #000000; stroke-width: 0.8"/>
      </g>
     </g>
     <g id="text_5">
      <!-- 1979 -->
      <g transform="translate(125.215427 340.173358) rotate(-45) scale(0.1 -0.1)">
       <use xlink:href="#TimesNewRomanPSMT-31"/>
       <use xlink:href="#TimesNewRomanPSMT-39" transform="translate(50 0)"/>
       <use xlink:href="#TimesNewRomanPSMT-37" transform="translate(100 0)"/>
       <use xlink:href="#TimesNewRomanPSMT-39" transform="translate(150 0)"/>
      </g>
     </g>
    </g>
    <g id="xtick_6">
     <g id="line2d_6">
      <g>
       <use xlink:href="#m8e2c13f60b" x="169.146472" y="314.12125" style="stroke: #000000; stroke-width: 0.8"/>
      </g>
     </g>
     <g id="text_6">
      <!-- 1981 -->
      <g transform="translate(153.491791 340.173358) rotate(-45) scale(0.1 -0.1)">
       <defs>
        <path id="TimesNewRomanPSMT-38" d="M 1228 2134 
Q 725 2547 579 2797 
Q 434 3047 434 3316 
Q 434 3728 753 4026 
Q 1072 4325 1600 4325 
Q 2113 4325 2425 4047 
Q 2738 3769 2738 3413 
Q 2738 3175 2569 2928 
Q 2400 2681 1866 2347 
Q 2416 1922 2594 1678 
Q 2831 1359 2831 1006 
Q 2831 559 2490 242 
Q 2150 -75 1597 -75 
Q 994 -75 656 303 
Q 388 606 388 966 
Q 388 1247 577 1523 
Q 766 1800 1228 2134 
z
M 1719 2469 
Q 2094 2806 2194 3001 
Q 2294 3197 2294 3444 
Q 2294 3772 2109 3958 
Q 1925 4144 1606 4144 
Q 1288 4144 1088 3959 
Q 888 3775 888 3528 
Q 888 3366 970 3203 
Q 1053 3041 1206 2894 
L 1719 2469 
z
M 1375 2016 
Q 1116 1797 991 1539 
Q 866 1281 866 981 
Q 866 578 1086 336 
Q 1306 94 1647 94 
Q 1984 94 2187 284 
Q 2391 475 2391 747 
Q 2391 972 2272 1150 
Q 2050 1481 1375 2016 
z
" transform="scale(0.015625)"/>
       </defs>
       <use xlink:href="#TimesNewRomanPSMT-31"/>
       <use xlink:href="#TimesNewRomanPSMT-39" transform="translate(50 0)"/>
       <use xlink:href="#TimesNewRomanPSMT-38" transform="translate(100 0)"/>
       <use xlink:href="#TimesNewRomanPSMT-31" transform="translate(150 0)"/>
      </g>
     </g>
    </g>
    <g id="xtick_7">
     <g id="line2d_7">
      <g>
       <use xlink:href="#m8e2c13f60b" x="197.422836" y="314.12125" style="stroke: #000000; stroke-width: 0.8"/>
      </g>
     </g>
     <g id="text_7">
      <!-- 1983 -->
      <g transform="translate(181.768155 340.173358) rotate(-45) scale(0.1 -0.1)">
       <use xlink:href="#TimesNewRomanPSMT-31"/>
       <use xlink:href="#TimesNewRomanPSMT-39" transform="translate(50 0)"/>
       <use xlink:href="#TimesNewRomanPSMT-38" transform="translate(100 0)"/>
       <use xlink:href="#TimesNewRomanPSMT-33" transform="translate(150 0)"/>
      </g>
     </g>
    </g>
    <g id="xtick_8">
     <g id="line2d_8">
      <g>
       <use xlink:href="#m8e2c13f60b" x="225.699199" y="314.12125" style="stroke: #000000; stroke-width: 0.8"/>
      </g>
     </g>
     <g id="text_8">
      <!-- 1985 -->
      <g transform="translate(210.044518 340.173358) rotate(-45) scale(0.1 -0.1)">
       <use xlink:href="#TimesNewRomanPSMT-31"/>
       <use xlink:href="#TimesNewRomanPSMT-39" transform="translate(50 0)"/>
       <use xlink:href="#TimesNewRomanPSMT-38" transform="translate(100 0)"/>
       <use xlink:href="#TimesNewRomanPSMT-35" transform="translate(150 0)"/>
      </g>
     </g>
    </g>
    <g id="xtick_9">
     <g id="line2d_9">
      <g>
       <use xlink:href="#m8e2c13f60b" x="253.975563" y="314.12125" style="stroke: #000000; stroke-width: 0.8"/>
      </g>
     </g>
     <g id="text_9">
      <!-- 1987 -->
      <g transform="translate(238.320882 340.173358) rotate(-45) scale(0.1 -0.1)">
       <use xlink:href="#TimesNewRomanPSMT-31"/>
       <use xlink:href="#TimesNewRomanPSMT-39" transform="translate(50 0)"/>
       <use xlink:href="#TimesNewRomanPSMT-38" transform="translate(100 0)"/>
       <use xlink:href="#TimesNewRomanPSMT-37" transform="translate(150 0)"/>
      </g>
     </g>
    </g>
    <g id="xtick_10">
     <g id="line2d_10">
      <g>
       <use xlink:href="#m8e2c13f60b" x="282.251927" y="314.12125" style="stroke: #000000; stroke-width: 0.8"/>
      </g>
     </g>
     <g id="text_10">
      <!-- 1989 -->
      <g transform="translate(266.597245 340.173358) rotate(-45) scale(0.1 -0.1)">
       <use xlink:href="#TimesNewRomanPSMT-31"/>
       <use xlink:href="#TimesNewRomanPSMT-39" transform="translate(50 0)"/>
       <use xlink:href="#TimesNewRomanPSMT-38" transform="translate(100 0)"/>
       <use xlink:href="#TimesNewRomanPSMT-39" transform="translate(150 0)"/>
      </g>
     </g>
    </g>
    <g id="xtick_11">
     <g id="line2d_11">
      <g>
       <use xlink:href="#m8e2c13f60b" x="310.52829" y="314.12125" style="stroke: #000000; stroke-width: 0.8"/>
      </g>
     </g>
     <g id="text_11">
      <!-- 1991 -->
      <g transform="translate(294.873609 340.173358) rotate(-45) scale(0.1 -0.1)">
       <use xlink:href="#TimesNewRomanPSMT-31"/>
       <use xlink:href="#TimesNewRomanPSMT-39" transform="translate(50 0)"/>
       <use xlink:href="#TimesNewRomanPSMT-39" transform="translate(100 0)"/>
       <use xlink:href="#TimesNewRomanPSMT-31" transform="translate(150 0)"/>
      </g>
     </g>
    </g>
    <g id="xtick_12">
     <g id="line2d_12">
      <g>
       <use xlink:href="#m8e2c13f60b" x="338.804654" y="314.12125" style="stroke: #000000; stroke-width: 0.8"/>
      </g>
     </g>
     <g id="text_12">
      <!-- 1993 -->
      <g transform="translate(323.149973 340.173358) rotate(-45) scale(0.1 -0.1)">
       <use xlink:href="#TimesNewRomanPSMT-31"/>
       <use xlink:href="#TimesNewRomanPSMT-39" transform="translate(50 0)"/>
       <use xlink:href="#TimesNewRomanPSMT-39" transform="translate(100 0)"/>
       <use xlink:href="#TimesNewRomanPSMT-33" transform="translate(150 0)"/>
      </g>
     </g>
    </g>
    <g id="xtick_13">
     <g id="line2d_13">
      <g>
       <use xlink:href="#m8e2c13f60b" x="367.081018" y="314.12125" style="stroke: #000000; stroke-width: 0.8"/>
      </g>
     </g>
     <g id="text_13">
      <!-- 1995 -->
      <g transform="translate(351.426336 340.173358) rotate(-45) scale(0.1 -0.1)">
       <use xlink:href="#TimesNewRomanPSMT-31"/>
       <use xlink:href="#TimesNewRomanPSMT-39" transform="translate(50 0)"/>
       <use xlink:href="#TimesNewRomanPSMT-39" transform="translate(100 0)"/>
       <use xlink:href="#TimesNewRomanPSMT-35" transform="translate(150 0)"/>
      </g>
     </g>
    </g>
    <g id="text_14">
     <!-- Year -->
     <g transform="translate(193.434114 354.018404) scale(0.12 -0.12)">
      <defs>
       <path id="TimesNewRomanPSMT-59" d="M 3050 4238 
L 4528 4238 
L 4528 4122 
L 4447 4122 
Q 4366 4122 4209 4050 
Q 4053 3978 3925 3843 
Q 3797 3709 3609 3406 
L 2588 1797 
L 2588 734 
Q 2588 344 2675 247 
Q 2794 116 3050 116 
L 3188 116 
L 3188 0 
L 1388 0 
L 1388 116 
L 1538 116 
Q 1806 116 1919 278 
Q 1988 378 1988 734 
L 1988 1738 
L 825 3513 
Q 619 3825 545 3903 
Q 472 3981 241 4091 
Q 178 4122 59 4122 
L 59 4238 
L 1872 4238 
L 1872 4122 
L 1778 4122 
Q 1631 4122 1507 4053 
Q 1384 3984 1384 3847 
Q 1384 3734 1575 3441 
L 2459 2075 
L 3291 3381 
Q 3478 3675 3478 3819 
Q 3478 3906 3433 3975 
Q 3388 4044 3303 4083 
Q 3219 4122 3050 4122 
L 3050 4238 
z
" transform="scale(0.015625)"/>
       <path id="TimesNewRomanPSMT-65" d="M 681 1784 
Q 678 1147 991 784 
Q 1303 422 1725 422 
Q 2006 422 2214 576 
Q 2422 731 2563 1106 
L 2659 1044 
Q 2594 616 2278 264 
Q 1963 -88 1488 -88 
Q 972 -88 605 314 
Q 238 716 238 1394 
Q 238 2128 614 2539 
Q 991 2950 1559 2950 
Q 2041 2950 2350 2633 
Q 2659 2316 2659 1784 
L 681 1784 
z
M 681 1966 
L 2006 1966 
Q 1991 2241 1941 2353 
Q 1863 2528 1708 2628 
Q 1553 2728 1384 2728 
Q 1125 2728 920 2526 
Q 716 2325 681 1966 
z
" transform="scale(0.015625)"/>
       <path id="TimesNewRomanPSMT-61" d="M 1822 413 
Q 1381 72 1269 19 
Q 1100 -59 909 -59 
Q 613 -59 420 144 
Q 228 347 228 678 
Q 228 888 322 1041 
Q 450 1253 767 1440 
Q 1084 1628 1822 1897 
L 1822 2009 
Q 1822 2438 1686 2597 
Q 1550 2756 1291 2756 
Q 1094 2756 978 2650 
Q 859 2544 859 2406 
L 866 2225 
Q 866 2081 792 2003 
Q 719 1925 600 1925 
Q 484 1925 411 2006 
Q 338 2088 338 2228 
Q 338 2497 613 2722 
Q 888 2947 1384 2947 
Q 1766 2947 2009 2819 
Q 2194 2722 2281 2516 
Q 2338 2381 2338 1966 
L 2338 994 
Q 2338 584 2353 492 
Q 2369 400 2405 369 
Q 2441 338 2488 338 
Q 2538 338 2575 359 
Q 2641 400 2828 588 
L 2828 413 
Q 2478 -56 2159 -56 
Q 2006 -56 1915 50 
Q 1825 156 1822 413 
z
M 1822 616 
L 1822 1706 
Q 1350 1519 1213 1441 
Q 966 1303 859 1153 
Q 753 1003 753 825 
Q 753 600 887 451 
Q 1022 303 1197 303 
Q 1434 303 1822 616 
z
" transform="scale(0.015625)"/>
       <path id="TimesNewRomanPSMT-72" d="M 1038 2947 
L 1038 2303 
Q 1397 2947 1775 2947 
Q 1947 2947 2059 2842 
Q 2172 2738 2172 2600 
Q 2172 2478 2090 2393 
Q 2009 2309 1897 2309 
Q 1788 2309 1652 2417 
Q 1516 2525 1450 2525 
Q 1394 2525 1328 2463 
Q 1188 2334 1038 2041 
L 1038 669 
Q 1038 431 1097 309 
Q 1138 225 1241 169 
Q 1344 113 1538 113 
L 1538 0 
L 72 0 
L 72 113 
Q 291 113 397 181 
Q 475 231 506 341 
Q 522 394 522 644 
L 522 1753 
Q 522 2253 501 2348 
Q 481 2444 426 2487 
Q 372 2531 291 2531 
Q 194 2531 72 2484 
L 41 2597 
L 906 2947 
L 1038 2947 
z
" transform="scale(0.015625)"/>
      </defs>
      <use xlink:href="#TimesNewRomanPSMT-59"/>
      <use xlink:href="#TimesNewRomanPSMT-65" transform="translate(62.216797 0)"/>
      <use xlink:href="#TimesNewRomanPSMT-61" transform="translate(106.601562 0)"/>
      <use xlink:href="#TimesNewRomanPSMT-72" transform="translate(150.986328 0)"/>
     </g>
    </g>
   </g>
   <g id="patch_3">
    <path d="M 10.091927 314.12125 
L 10.091927 36.92125 
" style="fill: none; stroke: #000000; stroke-width: 0.8; stroke-linejoin: miter; stroke-linecap: square"/>
   </g>
   <g id="patch_4">
    <path d="M 398.891927 314.12125 
L 398.891927 36.92125 
" style="fill: none; stroke: #000000; stroke-width: 0.8; stroke-linejoin: miter; stroke-linecap: square"/>
   </g>
   <g id="patch_5">
    <path d="M 10.091927 314.12125 
L 398.891927 314.12125 
" style="fill: none; stroke: #000000; stroke-width: 0.8; stroke-linejoin: miter; stroke-linecap: square"/>
   </g>
   <g id="patch_6">
    <path d="M 10.091927 36.92125 
L 398.891927 36.92125 
" style="fill: none; stroke: #000000; stroke-width: 0.8; stroke-linejoin: miter; stroke-linecap: square"/>
   </g>
   <g id="text_15">
    <!-- Construction Starts from 1971 to 1996 (units/year)  -->
    <g transform="translate(60.814739 16.92125) scale(0.14 -0.14)">
     <defs>
      <path id="TimesNewRomanPSMT-43" d="M 3853 4334 
L 3950 2894 
L 3853 2894 
Q 3659 3541 3300 3825 
Q 2941 4109 2438 4109 
Q 2016 4109 1675 3895 
Q 1334 3681 1139 3212 
Q 944 2744 944 2047 
Q 944 1472 1128 1050 
Q 1313 628 1683 403 
Q 2053 178 2528 178 
Q 2941 178 3256 354 
Q 3572 531 3950 1056 
L 4047 994 
Q 3728 428 3303 165 
Q 2878 -97 2294 -97 
Q 1241 -97 663 684 
Q 231 1266 231 2053 
Q 231 2688 515 3219 
Q 800 3750 1298 4042 
Q 1797 4334 2388 4334 
Q 2847 4334 3294 4109 
Q 3425 4041 3481 4041 
Q 3566 4041 3628 4100 
Q 3709 4184 3744 4334 
L 3853 4334 
z
" transform="scale(0.015625)"/>
      <path id="TimesNewRomanPSMT-6f" d="M 1600 2947 
Q 2250 2947 2644 2453 
Q 2978 2031 2978 1484 
Q 2978 1100 2793 706 
Q 2609 313 2286 112 
Q 1963 -88 1566 -88 
Q 919 -88 538 428 
Q 216 863 216 1403 
Q 216 1797 411 2186 
Q 606 2575 925 2761 
Q 1244 2947 1600 2947 
z
M 1503 2744 
Q 1338 2744 1170 2645 
Q 1003 2547 900 2300 
Q 797 2053 797 1666 
Q 797 1041 1045 587 
Q 1294 134 1700 134 
Q 2003 134 2200 384 
Q 2397 634 2397 1244 
Q 2397 2006 2069 2444 
Q 1847 2744 1503 2744 
z
" transform="scale(0.015625)"/>
      <path id="TimesNewRomanPSMT-6e" d="M 1034 2341 
Q 1538 2947 1994 2947 
Q 2228 2947 2397 2830 
Q 2566 2713 2666 2444 
Q 2734 2256 2734 1869 
L 2734 647 
Q 2734 375 2778 278 
Q 2813 200 2889 156 
Q 2966 113 3172 113 
L 3172 0 
L 1756 0 
L 1756 113 
L 1816 113 
Q 2016 113 2095 173 
Q 2175 234 2206 353 
Q 2219 400 2219 647 
L 2219 1819 
Q 2219 2209 2117 2386 
Q 2016 2563 1775 2563 
Q 1403 2563 1034 2156 
L 1034 647 
Q 1034 356 1069 288 
Q 1113 197 1189 155 
Q 1266 113 1500 113 
L 1500 0 
L 84 0 
L 84 113 
L 147 113 
Q 366 113 442 223 
Q 519 334 519 647 
L 519 1709 
Q 519 2225 495 2337 
Q 472 2450 423 2490 
Q 375 2531 294 2531 
Q 206 2531 84 2484 
L 38 2597 
L 900 2947 
L 1034 2947 
L 1034 2341 
z
" transform="scale(0.015625)"/>
      <path id="TimesNewRomanPSMT-73" d="M 2050 2947 
L 2050 1972 
L 1947 1972 
Q 1828 2431 1642 2597 
Q 1456 2763 1169 2763 
Q 950 2763 815 2647 
Q 681 2531 681 2391 
Q 681 2216 781 2091 
Q 878 1963 1175 1819 
L 1631 1597 
Q 2266 1288 2266 781 
Q 2266 391 1970 151 
Q 1675 -88 1309 -88 
Q 1047 -88 709 6 
Q 606 38 541 38 
Q 469 38 428 -44 
L 325 -44 
L 325 978 
L 428 978 
Q 516 541 762 319 
Q 1009 97 1316 97 
Q 1531 97 1667 223 
Q 1803 350 1803 528 
Q 1803 744 1651 891 
Q 1500 1038 1047 1263 
Q 594 1488 453 1669 
Q 313 1847 313 2119 
Q 313 2472 555 2709 
Q 797 2947 1181 2947 
Q 1350 2947 1591 2875 
Q 1750 2828 1803 2828 
Q 1853 2828 1881 2850 
Q 1909 2872 1947 2947 
L 2050 2947 
z
" transform="scale(0.015625)"/>
      <path id="TimesNewRomanPSMT-74" d="M 1031 3803 
L 1031 2863 
L 1700 2863 
L 1700 2644 
L 1031 2644 
L 1031 788 
Q 1031 509 1111 412 
Q 1191 316 1316 316 
Q 1419 316 1516 380 
Q 1613 444 1666 569 
L 1788 569 
Q 1678 263 1478 108 
Q 1278 -47 1066 -47 
Q 922 -47 784 33 
Q 647 113 581 261 
Q 516 409 516 719 
L 516 2644 
L 63 2644 
L 63 2747 
Q 234 2816 414 2980 
Q 594 3144 734 3369 
Q 806 3488 934 3803 
L 1031 3803 
z
" transform="scale(0.015625)"/>
      <path id="TimesNewRomanPSMT-75" d="M 2709 2863 
L 2709 1128 
Q 2709 631 2732 520 
Q 2756 409 2807 365 
Q 2859 322 2928 322 
Q 3025 322 3147 375 
L 3191 266 
L 2334 -88 
L 2194 -88 
L 2194 519 
Q 1825 119 1631 15 
Q 1438 -88 1222 -88 
Q 981 -88 804 51 
Q 628 191 559 409 
Q 491 628 491 1028 
L 491 2306 
Q 491 2509 447 2587 
Q 403 2666 317 2708 
Q 231 2750 6 2747 
L 6 2863 
L 1009 2863 
L 1009 947 
Q 1009 547 1148 422 
Q 1288 297 1484 297 
Q 1619 297 1789 381 
Q 1959 466 2194 703 
L 2194 2325 
Q 2194 2569 2105 2655 
Q 2016 2741 1734 2747 
L 1734 2863 
L 2709 2863 
z
" transform="scale(0.015625)"/>
      <path id="TimesNewRomanPSMT-63" d="M 2631 1088 
Q 2516 522 2178 217 
Q 1841 -88 1431 -88 
Q 944 -88 581 321 
Q 219 731 219 1428 
Q 219 2103 620 2525 
Q 1022 2947 1584 2947 
Q 2006 2947 2278 2723 
Q 2550 2500 2550 2259 
Q 2550 2141 2473 2067 
Q 2397 1994 2259 1994 
Q 2075 1994 1981 2113 
Q 1928 2178 1911 2362 
Q 1894 2547 1784 2644 
Q 1675 2738 1481 2738 
Q 1169 2738 978 2506 
Q 725 2200 725 1697 
Q 725 1184 976 792 
Q 1228 400 1656 400 
Q 1963 400 2206 609 
Q 2378 753 2541 1131 
L 2631 1088 
z
" transform="scale(0.015625)"/>
      <path id="TimesNewRomanPSMT-69" d="M 928 4444 
Q 1059 4444 1151 4351 
Q 1244 4259 1244 4128 
Q 1244 3997 1151 3903 
Q 1059 3809 928 3809 
Q 797 3809 703 3903 
Q 609 3997 609 4128 
Q 609 4259 701 4351 
Q 794 4444 928 4444 
z
M 1188 2947 
L 1188 647 
Q 1188 378 1227 289 
Q 1266 200 1342 156 
Q 1419 113 1622 113 
L 1622 0 
L 231 0 
L 231 113 
Q 441 113 512 153 
Q 584 194 626 287 
Q 669 381 669 647 
L 669 1750 
Q 669 2216 641 2353 
Q 619 2453 572 2492 
Q 525 2531 444 2531 
Q 356 2531 231 2484 
L 188 2597 
L 1050 2947 
L 1188 2947 
z
" transform="scale(0.015625)"/>
      <path id="TimesNewRomanPSMT-20" transform="scale(0.015625)"/>
      <path id="TimesNewRomanPSMT-53" d="M 2934 4334 
L 2934 2869 
L 2819 2869 
Q 2763 3291 2617 3541 
Q 2472 3791 2203 3937 
Q 1934 4084 1647 4084 
Q 1322 4084 1109 3886 
Q 897 3688 897 3434 
Q 897 3241 1031 3081 
Q 1225 2847 1953 2456 
Q 2547 2138 2764 1967 
Q 2981 1797 3098 1565 
Q 3216 1334 3216 1081 
Q 3216 600 2842 251 
Q 2469 -97 1881 -97 
Q 1697 -97 1534 -69 
Q 1438 -53 1133 45 
Q 828 144 747 144 
Q 669 144 623 97 
Q 578 50 556 -97 
L 441 -97 
L 441 1356 
L 556 1356 
Q 638 900 775 673 
Q 913 447 1195 297 
Q 1478 147 1816 147 
Q 2206 147 2432 353 
Q 2659 559 2659 841 
Q 2659 997 2573 1156 
Q 2488 1316 2306 1453 
Q 2184 1547 1640 1851 
Q 1097 2156 867 2337 
Q 638 2519 519 2737 
Q 400 2956 400 3219 
Q 400 3675 750 4004 
Q 1100 4334 1641 4334 
Q 1978 4334 2356 4169 
Q 2531 4091 2603 4091 
Q 2684 4091 2736 4139 
Q 2788 4188 2819 4334 
L 2934 4334 
z
" transform="scale(0.015625)"/>
      <path id="TimesNewRomanPSMT-66" d="M 1319 2638 
L 1319 756 
Q 1319 356 1406 250 
Q 1522 113 1716 113 
L 1975 113 
L 1975 0 
L 266 0 
L 266 113 
L 394 113 
Q 519 113 622 175 
Q 725 238 764 344 
Q 803 450 803 756 
L 803 2638 
L 247 2638 
L 247 2863 
L 803 2863 
L 803 3050 
Q 803 3478 940 3775 
Q 1078 4072 1361 4255 
Q 1644 4438 1997 4438 
Q 2325 4438 2600 4225 
Q 2781 4084 2781 3909 
Q 2781 3816 2700 3733 
Q 2619 3650 2525 3650 
Q 2453 3650 2373 3701 
Q 2294 3753 2178 3923 
Q 2063 4094 1966 4153 
Q 1869 4213 1750 4213 
Q 1606 4213 1506 4136 
Q 1406 4059 1362 3898 
Q 1319 3738 1319 3069 
L 1319 2863 
L 2056 2863 
L 2056 2638 
L 1319 2638 
z
" transform="scale(0.015625)"/>
      <path id="TimesNewRomanPSMT-6d" d="M 1050 2338 
Q 1363 2650 1419 2697 
Q 1559 2816 1721 2881 
Q 1884 2947 2044 2947 
Q 2313 2947 2506 2790 
Q 2700 2634 2766 2338 
Q 3088 2713 3309 2830 
Q 3531 2947 3766 2947 
Q 3994 2947 4170 2830 
Q 4347 2713 4450 2447 
Q 4519 2266 4519 1878 
L 4519 647 
Q 4519 378 4559 278 
Q 4591 209 4675 161 
Q 4759 113 4950 113 
L 4950 0 
L 3538 0 
L 3538 113 
L 3597 113 
Q 3781 113 3884 184 
Q 3956 234 3988 344 
Q 4000 397 4000 647 
L 4000 1878 
Q 4000 2228 3916 2372 
Q 3794 2572 3525 2572 
Q 3359 2572 3192 2489 
Q 3025 2406 2788 2181 
L 2781 2147 
L 2788 2013 
L 2788 647 
Q 2788 353 2820 281 
Q 2853 209 2943 161 
Q 3034 113 3253 113 
L 3253 0 
L 1806 0 
L 1806 113 
Q 2044 113 2133 169 
Q 2222 225 2256 338 
Q 2272 391 2272 647 
L 2272 1878 
Q 2272 2228 2169 2381 
Q 2031 2581 1784 2581 
Q 1616 2581 1450 2491 
Q 1191 2353 1050 2181 
L 1050 647 
Q 1050 366 1089 281 
Q 1128 197 1204 155 
Q 1281 113 1516 113 
L 1516 0 
L 100 0 
L 100 113 
Q 297 113 375 155 
Q 453 197 493 289 
Q 534 381 534 647 
L 534 1741 
Q 534 2213 506 2350 
Q 484 2453 437 2492 
Q 391 2531 309 2531 
Q 222 2531 100 2484 
L 53 2597 
L 916 2947 
L 1050 2947 
L 1050 2338 
z
" transform="scale(0.015625)"/>
      <path id="TimesNewRomanPSMT-36" d="M 2869 4325 
L 2869 4209 
Q 2456 4169 2195 4045 
Q 1934 3922 1679 3669 
Q 1425 3416 1258 3105 
Q 1091 2794 978 2366 
Q 1428 2675 1881 2675 
Q 2316 2675 2634 2325 
Q 2953 1975 2953 1425 
Q 2953 894 2631 456 
Q 2244 -75 1606 -75 
Q 1172 -75 869 213 
Q 275 772 275 1663 
Q 275 2231 503 2743 
Q 731 3256 1154 3653 
Q 1578 4050 1965 4187 
Q 2353 4325 2688 4325 
L 2869 4325 
z
M 925 2138 
Q 869 1716 869 1456 
Q 869 1156 980 804 
Q 1091 453 1309 247 
Q 1469 100 1697 100 
Q 1969 100 2183 356 
Q 2397 613 2397 1088 
Q 2397 1622 2184 2012 
Q 1972 2403 1581 2403 
Q 1463 2403 1327 2353 
Q 1191 2303 925 2138 
z
" transform="scale(0.015625)"/>
      <path id="TimesNewRomanPSMT-28" d="M 1988 -1253 
L 1988 -1369 
Q 1516 -1131 1200 -813 
Q 750 -359 506 256 
Q 263 872 263 1534 
Q 263 2503 741 3301 
Q 1219 4100 1988 4444 
L 1988 4313 
Q 1603 4100 1356 3731 
Q 1109 3363 987 2797 
Q 866 2231 866 1616 
Q 866 947 969 400 
Q 1050 -31 1165 -292 
Q 1281 -553 1476 -793 
Q 1672 -1034 1988 -1253 
z
" transform="scale(0.015625)"/>
      <path id="TimesNewRomanPSMT-2f" d="M 1794 4444 
L 259 -88 
L 9 -88 
L 1544 4444 
L 1794 4444 
z
" transform="scale(0.015625)"/>
      <path id="TimesNewRomanPSMT-79" d="M 38 2863 
L 1372 2863 
L 1372 2747 
L 1306 2747 
Q 1166 2747 1095 2686 
Q 1025 2625 1025 2534 
Q 1025 2413 1128 2197 
L 1825 753 
L 2466 2334 
Q 2519 2463 2519 2588 
Q 2519 2644 2497 2672 
Q 2472 2706 2419 2726 
Q 2366 2747 2231 2747 
L 2231 2863 
L 3163 2863 
L 3163 2747 
Q 3047 2734 2984 2696 
Q 2922 2659 2847 2556 
Q 2819 2513 2741 2316 
L 1575 -541 
Q 1406 -956 1132 -1168 
Q 859 -1381 606 -1381 
Q 422 -1381 303 -1275 
Q 184 -1169 184 -1031 
Q 184 -900 270 -820 
Q 356 -741 506 -741 
Q 609 -741 788 -809 
Q 913 -856 944 -856 
Q 1038 -856 1148 -759 
Q 1259 -663 1372 -384 
L 1575 113 
L 547 2272 
Q 500 2369 397 2513 
Q 319 2622 269 2659 
Q 197 2709 38 2747 
L 38 2863 
z
" transform="scale(0.015625)"/>
      <path id="TimesNewRomanPSMT-29" d="M 144 4313 
L 144 4444 
Q 619 4209 934 3891 
Q 1381 3434 1625 2820 
Q 1869 2206 1869 1541 
Q 1869 572 1392 -226 
Q 916 -1025 144 -1369 
L 144 -1253 
Q 528 -1038 776 -670 
Q 1025 -303 1145 264 
Q 1266 831 1266 1447 
Q 1266 2113 1163 2663 
Q 1084 3094 967 3353 
Q 850 3613 656 3853 
Q 463 4094 144 4313 
z
" transform="scale(0.015625)"/>
     </defs>
     <use xlink:href="#TimesNewRomanPSMT-43"/>
     <use xlink:href="#TimesNewRomanPSMT-6f" transform="translate(66.699219 0)"/>
     <use xlink:href="#TimesNewRomanPSMT-6e" transform="translate(116.699219 0)"/>
     <use xlink:href="#TimesNewRomanPSMT-73" transform="translate(166.699219 0)"/>
     <use xlink:href="#TimesNewRomanPSMT-74" transform="translate(205.615234 0)"/>
     <use xlink:href="#TimesNewRomanPSMT-72" transform="translate(233.398438 0)"/>
     <use xlink:href="#TimesNewRomanPSMT-75" transform="translate(266.699219 0)"/>
     <use xlink:href="#TimesNewRomanPSMT-63" transform="translate(316.699219 0)"/>
     <use xlink:href="#TimesNewRomanPSMT-74" transform="translate(361.083984 0)"/>
     <use xlink:href="#TimesNewRomanPSMT-69" transform="translate(388.867188 0)"/>
     <use xlink:href="#TimesNewRomanPSMT-6f" transform="translate(416.650391 0)"/>
     <use xlink:href="#TimesNewRomanPSMT-6e" transform="translate(466.650391 0)"/>
     <use xlink:href="#TimesNewRomanPSMT-20" transform="translate(516.650391 0)"/>
     <use xlink:href="#TimesNewRomanPSMT-53" transform="translate(541.650391 0)"/>
     <use xlink:href="#TimesNewRomanPSMT-74" transform="translate(597.265625 0)"/>
     <use xlink:href="#TimesNewRomanPSMT-61" transform="translate(625.048828 0)"/>
     <use xlink:href="#TimesNewRomanPSMT-72" transform="translate(669.433594 0)"/>
     <use xlink:href="#TimesNewRomanPSMT-74" transform="translate(702.734375 0)"/>
     <use xlink:href="#TimesNewRomanPSMT-73" transform="translate(730.517578 0)"/>
     <use xlink:href="#TimesNewRomanPSMT-20" transform="translate(769.433594 0)"/>
     <use xlink:href="#TimesNewRomanPSMT-66" transform="translate(794.433594 0)"/>
     <use xlink:href="#TimesNewRomanPSMT-72" transform="translate(827.734375 0)"/>
     <use xlink:href="#TimesNewRomanPSMT-6f" transform="translate(861.035156 0)"/>
     <use xlink:href="#TimesNewRomanPSMT-6d" transform="translate(911.035156 0)"/>
     <use xlink:href="#TimesNewRomanPSMT-20" transform="translate(988.818359 0)"/>
     <use xlink:href="#TimesNewRomanPSMT-31" transform="translate(1013.818359 0)"/>
     <use xlink:href="#TimesNewRomanPSMT-39" transform="translate(1063.818359 0)"/>
     <use xlink:href="#TimesNewRomanPSMT-37" transform="translate(1113.818359 0)"/>
     <use xlink:href="#TimesNewRomanPSMT-31" transform="translate(1163.818359 0)"/>
     <use xlink:href="#TimesNewRomanPSMT-20" transform="translate(1213.818359 0)"/>
     <use xlink:href="#TimesNewRomanPSMT-74" transform="translate(1238.818359 0)"/>
     <use xlink:href="#TimesNewRomanPSMT-6f" transform="translate(1266.601562 0)"/>
     <use xlink:href="#TimesNewRomanPSMT-20" transform="translate(1316.601562 0)"/>
     <use xlink:href="#TimesNewRomanPSMT-31" transform="translate(1341.601562 0)"/>
     <use xlink:href="#TimesNewRomanPSMT-39" transform="translate(1391.601562 0)"/>
     <use xlink:href="#TimesNewRomanPSMT-39" transform="translate(1441.601562 0)"/>
     <use xlink:href="#TimesNewRomanPSMT-36" transform="translate(1491.601562 0)"/>
     <use xlink:href="#TimesNewRomanPSMT-20" transform="translate(1541.601562 0)"/>
     <use xlink:href="#TimesNewRomanPSMT-28" transform="translate(1566.601562 0)"/>
     <use xlink:href="#TimesNewRomanPSMT-75" transform="translate(1599.902344 0)"/>
     <use xlink:href="#TimesNewRomanPSMT-6e" transform="translate(1649.902344 0)"/>
     <use xlink:href="#TimesNewRomanPSMT-69" transform="translate(1699.902344 0)"/>
     <use xlink:href="#TimesNewRomanPSMT-74" transform="translate(1727.685547 0)"/>
     <use xlink:href="#TimesNewRomanPSMT-73" transform="translate(1755.46875 0)"/>
     <use xlink:href="#TimesNewRomanPSMT-2f" transform="translate(1794.384766 0)"/>
     <use xlink:href="#TimesNewRomanPSMT-79" transform="translate(1822.167969 0)"/>
     <use xlink:href="#TimesNewRomanPSMT-65" transform="translate(1872.167969 0)"/>
     <use xlink:href="#TimesNewRomanPSMT-61" transform="translate(1916.552734 0)"/>
     <use xlink:href="#TimesNewRomanPSMT-72" transform="translate(1960.9375 0)"/>
     <use xlink:href="#TimesNewRomanPSMT-29" transform="translate(1994.238281 0)"/>
     <use xlink:href="#TimesNewRomanPSMT-20" transform="translate(2027.539062 0)"/>
    </g>
   </g>
   <g id="legend_1">
    <g id="patch_7">
     <path d="M 415.667927 156.743125 
L 435.667927 156.743125 
L 435.667927 149.743125 
L 415.667927 149.743125 
z
" style="fill: #1f77b4"/>
    </g>
    <g id="text_16">
     <!-- Azure Coast -->
     <g transform="translate(443.667927 156.743125) scale(0.1 -0.1)">
      <defs>
       <path id="TimesNewRomanPSMT-41" d="M 2928 1419 
L 1288 1419 
L 1000 750 
Q 894 503 894 381 
Q 894 284 986 211 
Q 1078 138 1384 116 
L 1384 0 
L 50 0 
L 50 116 
Q 316 163 394 238 
Q 553 388 747 847 
L 2238 4334 
L 2347 4334 
L 3822 809 
Q 4000 384 4145 257 
Q 4291 131 4550 116 
L 4550 0 
L 2878 0 
L 2878 116 
Q 3131 128 3220 200 
Q 3309 272 3309 375 
Q 3309 513 3184 809 
L 2928 1419 
z
M 2841 1650 
L 2122 3363 
L 1384 1650 
L 2841 1650 
z
" transform="scale(0.015625)"/>
       <path id="TimesNewRomanPSMT-7a" d="M 2688 878 
L 2653 0 
L 128 0 
L 128 113 
L 2028 2644 
L 1091 2644 
Q 788 2644 694 2605 
Q 600 2566 541 2456 
Q 456 2300 444 2069 
L 319 2069 
L 338 2863 
L 2738 2863 
L 2738 2747 
L 819 209 
L 1863 209 
Q 2191 209 2308 264 
Q 2425 319 2497 456 
Q 2547 556 2581 878 
L 2688 878 
z
" transform="scale(0.015625)"/>
      </defs>
      <use xlink:href="#TimesNewRomanPSMT-41"/>
      <use xlink:href="#TimesNewRomanPSMT-7a" transform="translate(72.216797 0)"/>
      <use xlink:href="#TimesNewRomanPSMT-75" transform="translate(116.601562 0)"/>
      <use xlink:href="#TimesNewRomanPSMT-72" transform="translate(166.601562 0)"/>
      <use xlink:href="#TimesNewRomanPSMT-65" transform="translate(199.902344 0)"/>
      <use xlink:href="#TimesNewRomanPSMT-20" transform="translate(244.287109 0)"/>
      <use xlink:href="#TimesNewRomanPSMT-43" transform="translate(269.287109 0)"/>
      <use xlink:href="#TimesNewRomanPSMT-6f" transform="translate(335.986328 0)"/>
      <use xlink:href="#TimesNewRomanPSMT-61" transform="translate(385.986328 0)"/>
      <use xlink:href="#TimesNewRomanPSMT-73" transform="translate(430.371094 0)"/>
      <use xlink:href="#TimesNewRomanPSMT-74" transform="translate(469.287109 0)"/>
     </g>
    </g>
    <g id="patch_8">
     <path d="M 415.667927 170.882187 
L 435.667927 170.882187 
L 435.667927 163.882187 
L 415.667927 163.882187 
z
" style="fill: #aec7e8"/>
    </g>
    <g id="text_17">
     <!-- Sunstone Desert -->
     <g transform="translate(443.667927 170.882187) scale(0.1 -0.1)">
      <defs>
       <path id="TimesNewRomanPSMT-44" d="M 109 0 
L 109 116 
L 269 116 
Q 538 116 650 288 
Q 719 391 719 750 
L 719 3488 
Q 719 3884 631 3984 
Q 509 4122 269 4122 
L 109 4122 
L 109 4238 
L 1834 4238 
Q 2784 4238 3279 4022 
Q 3775 3806 4076 3303 
Q 4378 2800 4378 2141 
Q 4378 1256 3841 663 
Q 3238 0 2003 0 
L 109 0 
z
M 1319 306 
Q 1716 219 1984 219 
Q 2709 219 3187 728 
Q 3666 1238 3666 2109 
Q 3666 2988 3187 3494 
Q 2709 4000 1959 4000 
Q 1678 4000 1319 3909 
L 1319 306 
z
" transform="scale(0.015625)"/>
      </defs>
      <use xlink:href="#TimesNewRomanPSMT-53"/>
      <use xlink:href="#TimesNewRomanPSMT-75" transform="translate(55.615234 0)"/>
      <use xlink:href="#TimesNewRomanPSMT-6e" transform="translate(105.615234 0)"/>
      <use xlink:href="#TimesNewRomanPSMT-73" transform="translate(155.615234 0)"/>
      <use xlink:href="#TimesNewRomanPSMT-74" transform="translate(194.53125 0)"/>
      <use xlink:href="#TimesNewRomanPSMT-6f" transform="translate(222.314453 0)"/>
      <use xlink:href="#TimesNewRomanPSMT-6e" transform="translate(272.314453 0)"/>
      <use xlink:href="#TimesNewRomanPSMT-65" transform="translate(322.314453 0)"/>
      <use xlink:href="#TimesNewRomanPSMT-20" transform="translate(366.699219 0)"/>
      <use xlink:href="#TimesNewRomanPSMT-44" transform="translate(391.699219 0)"/>
      <use xlink:href="#TimesNewRomanPSMT-65" transform="translate(463.916016 0)"/>
      <use xlink:href="#TimesNewRomanPSMT-73" transform="translate(508.300781 0)"/>
      <use xlink:href="#TimesNewRomanPSMT-65" transform="translate(547.216797 0)"/>
      <use xlink:href="#TimesNewRomanPSMT-72" transform="translate(591.601562 0)"/>
      <use xlink:href="#TimesNewRomanPSMT-74" transform="translate(624.902344 0)"/>
     </g>
    </g>
    <g id="patch_9">
     <path d="M 415.667927 185.02125 
L 435.667927 185.02125 
L 435.667927 178.02125 
L 415.667927 178.02125 
z
" style="fill: #ff7f0e"/>
    </g>
    <g id="text_18">
     <!-- Veridian Plains -->
     <g transform="translate(443.667927 185.02125) scale(0.1 -0.1)">
      <defs>
       <path id="TimesNewRomanPSMT-56" d="M 4544 4238 
L 4544 4122 
Q 4319 4081 4203 3978 
Q 4038 3825 3909 3509 
L 2431 -97 
L 2316 -97 
L 728 3556 
Q 606 3838 556 3900 
Q 478 3997 364 4051 
Q 250 4106 56 4122 
L 56 4238 
L 1788 4238 
L 1788 4122 
Q 1494 4094 1406 4022 
Q 1319 3950 1319 3838 
Q 1319 3681 1463 3350 
L 2541 866 
L 3541 3319 
Q 3688 3681 3688 3822 
Q 3688 3913 3597 3995 
Q 3506 4078 3291 4113 
Q 3275 4116 3238 4122 
L 3238 4238 
L 4544 4238 
z
" transform="scale(0.015625)"/>
       <path id="TimesNewRomanPSMT-64" d="M 2222 322 
Q 2013 103 1813 7 
Q 1613 -88 1381 -88 
Q 913 -88 563 304 
Q 213 697 213 1313 
Q 213 1928 600 2439 
Q 988 2950 1597 2950 
Q 1975 2950 2222 2709 
L 2222 3238 
Q 2222 3728 2198 3840 
Q 2175 3953 2125 3993 
Q 2075 4034 2000 4034 
Q 1919 4034 1784 3984 
L 1744 4094 
L 2597 4444 
L 2738 4444 
L 2738 1134 
Q 2738 631 2761 520 
Q 2784 409 2836 365 
Q 2888 322 2956 322 
Q 3041 322 3181 375 
L 3216 266 
L 2366 -88 
L 2222 -88 
L 2222 322 
z
M 2222 541 
L 2222 2016 
Q 2203 2228 2109 2403 
Q 2016 2578 1861 2667 
Q 1706 2756 1559 2756 
Q 1284 2756 1069 2509 
Q 784 2184 784 1559 
Q 784 928 1059 592 
Q 1334 256 1672 256 
Q 1956 256 2222 541 
z
" transform="scale(0.015625)"/>
       <path id="TimesNewRomanPSMT-50" d="M 1313 1984 
L 1313 750 
Q 1313 350 1400 253 
Q 1519 116 1759 116 
L 1922 116 
L 1922 0 
L 106 0 
L 106 116 
L 266 116 
Q 534 116 650 291 
Q 713 388 713 750 
L 713 3488 
Q 713 3888 628 3984 
Q 506 4122 266 4122 
L 106 4122 
L 106 4238 
L 1659 4238 
Q 2228 4238 2556 4120 
Q 2884 4003 3109 3725 
Q 3334 3447 3334 3066 
Q 3334 2547 2992 2222 
Q 2650 1897 2025 1897 
Q 1872 1897 1694 1919 
Q 1516 1941 1313 1984 
z
M 1313 2163 
Q 1478 2131 1606 2115 
Q 1734 2100 1825 2100 
Q 2150 2100 2386 2351 
Q 2622 2603 2622 3003 
Q 2622 3278 2509 3514 
Q 2397 3750 2190 3867 
Q 1984 3984 1722 3984 
Q 1563 3984 1313 3925 
L 1313 2163 
z
" transform="scale(0.015625)"/>
       <path id="TimesNewRomanPSMT-6c" d="M 1184 4444 
L 1184 647 
Q 1184 378 1223 290 
Q 1263 203 1344 158 
Q 1425 113 1647 113 
L 1647 0 
L 244 0 
L 244 113 
Q 441 113 512 153 
Q 584 194 625 287 
Q 666 381 666 647 
L 666 3247 
Q 666 3731 644 3842 
Q 622 3953 573 3993 
Q 525 4034 450 4034 
Q 369 4034 244 3984 
L 191 4094 
L 1044 4444 
L 1184 4444 
z
" transform="scale(0.015625)"/>
      </defs>
      <use xlink:href="#TimesNewRomanPSMT-56"/>
      <use xlink:href="#TimesNewRomanPSMT-65" transform="translate(61.091797 0)"/>
      <use xlink:href="#TimesNewRomanPSMT-72" transform="translate(105.476562 0)"/>
      <use xlink:href="#TimesNewRomanPSMT-69" transform="translate(138.777344 0)"/>
      <use xlink:href="#TimesNewRomanPSMT-64" transform="translate(166.560547 0)"/>
      <use xlink:href="#TimesNewRomanPSMT-69" transform="translate(216.560547 0)"/>
      <use xlink:href="#TimesNewRomanPSMT-61" transform="translate(244.34375 0)"/>
      <use xlink:href="#TimesNewRomanPSMT-6e" transform="translate(288.728516 0)"/>
      <use xlink:href="#TimesNewRomanPSMT-20" transform="translate(338.728516 0)"/>
      <use xlink:href="#TimesNewRomanPSMT-50" transform="translate(363.728516 0)"/>
      <use xlink:href="#TimesNewRomanPSMT-6c" transform="translate(419.34375 0)"/>
      <use xlink:href="#TimesNewRomanPSMT-61" transform="translate(447.126953 0)"/>
      <use xlink:href="#TimesNewRomanPSMT-69" transform="translate(491.511719 0)"/>
      <use xlink:href="#TimesNewRomanPSMT-6e" transform="translate(519.294922 0)"/>
      <use xlink:href="#TimesNewRomanPSMT-73" transform="translate(569.294922 0)"/>
     </g>
    </g>
    <g id="patch_10">
     <path d="M 415.667927 199.160312 
L 435.667927 199.160312 
L 435.667927 192.160312 
L 415.667927 192.160312 
z
" style="fill: #ffbb78"/>
    </g>
    <g id="text_19">
     <!-- Golden Delta -->
     <g transform="translate(443.667927 199.160312) scale(0.1 -0.1)">
      <defs>
       <path id="TimesNewRomanPSMT-47" d="M 3928 4334 
L 4038 2997 
L 3928 2997 
Q 3763 3497 3500 3750 
Q 3122 4116 2528 4116 
Q 1719 4116 1297 3475 
Q 944 2934 944 2188 
Q 944 1581 1178 1081 
Q 1413 581 1792 348 
Q 2172 116 2572 116 
Q 2806 116 3025 175 
Q 3244 234 3447 350 
L 3447 1575 
Q 3447 1894 3398 1992 
Q 3350 2091 3248 2142 
Q 3147 2194 2891 2194 
L 2891 2313 
L 4531 2313 
L 4531 2194 
L 4453 2194 
Q 4209 2194 4119 2031 
Q 4056 1916 4056 1575 
L 4056 278 
Q 3697 84 3347 -6 
Q 2997 -97 2569 -97 
Q 1341 -97 703 691 
Q 225 1281 225 2053 
Q 225 2613 494 3125 
Q 813 3734 1369 4063 
Q 1834 4334 2469 4334 
Q 2700 4334 2889 4296 
Q 3078 4259 3425 4131 
Q 3600 4066 3659 4066 
Q 3719 4066 3761 4120 
Q 3803 4175 3813 4334 
L 3928 4334 
z
" transform="scale(0.015625)"/>
      </defs>
      <use xlink:href="#TimesNewRomanPSMT-47"/>
      <use xlink:href="#TimesNewRomanPSMT-6f" transform="translate(72.216797 0)"/>
      <use xlink:href="#TimesNewRomanPSMT-6c" transform="translate(122.216797 0)"/>
      <use xlink:href="#TimesNewRomanPSMT-64" transform="translate(150 0)"/>
      <use xlink:href="#TimesNewRomanPSMT-65" transform="translate(200 0)"/>
      <use xlink:href="#TimesNewRomanPSMT-6e" transform="translate(244.384766 0)"/>
      <use xlink:href="#TimesNewRomanPSMT-20" transform="translate(294.384766 0)"/>
      <use xlink:href="#TimesNewRomanPSMT-44" transform="translate(319.384766 0)"/>
      <use xlink:href="#TimesNewRomanPSMT-65" transform="translate(391.601562 0)"/>
      <use xlink:href="#TimesNewRomanPSMT-6c" transform="translate(435.986328 0)"/>
      <use xlink:href="#TimesNewRomanPSMT-74" transform="translate(463.769531 0)"/>
      <use xlink:href="#TimesNewRomanPSMT-61" transform="translate(491.552734 0)"/>
     </g>
    </g>
   </g>
  </g>
 </g>
 <defs>
  <clipPath id="p44d40a64ee">
   <rect x="10.091927" y="36.92125" width="388.8" height="277.2"/>
  </clipPath>
 </defs>
</svg>
