<?xml version="1.0" encoding="utf-8" standalone="no"?>
<!DOCTYPE svg PUBLIC "-//W3C//DTD SVG 1.1//EN"
  "http://www.w3.org/Graphics/SVG/1.1/DTD/svg11.dtd">
<svg xmlns:xlink="http://www.w3.org/1999/xlink" width="539.864802pt" height="363.785279pt" viewBox="0 0 539.864802 363.785279" xmlns="http://www.w3.org/2000/svg" version="1.1">
 <metadata>
  <rdf:RDF xmlns:dc="http://purl.org/dc/elements/1.1/" xmlns:cc="http://creativecommons.org/ns#" xmlns:rdf="http://www.w3.org/1999/02/22-rdf-syntax-ns#">
   <cc:Work>
    <dc:type rdf:resource="http://purl.org/dc/dcmitype/StillImage"/>
    <dc:date>2025-05-31T00:03:09.716179</dc:date>
    <dc:format>image/svg+xml</dc:format>
    <dc:creator>
     <cc:Agent>
      <dc:title>Matplotlib v3.10.3, https://matplotlib.org/</dc:title>
     </cc:Agent>
    </dc:creator>
   </cc:Work>
  </rdf:RDF>
 </metadata>
 <defs>
  <style type="text/css">*{stroke-linejoin: round; stroke-linecap: butt}</style>
 </defs>
 <g id="figure_1">
  <g id="patch_1">
   <path d="M 0 363.785279 
L 539.864802 363.785279 
L 539.864802 0 
L 0 0 
z
" style="fill: #ffffff"/>
  </g>
  <g id="axes_1">
   <g id="patch_2">
    <path d="M 10.091927 314.12125 
L 398.891927 314.12125 
L 398.891927 36.92125 
L 10.091927 36.92125 
z
" style="fill: #ffffff"/>
   </g>
   <g id="FillBetweenPolyCollection_1">
    <path d="M 27.764654 207.414736 
L 27.764654 240.175565 
L 29.987638 240.985952 
L 32.210623 241.551963 
L 34.433608 241.894345 
L 36.656592 242.033844 
L 38.879577 241.991206 
L 41.102561 241.787176 
L 43.325546 241.442502 
L 45.54853 240.977928 
L 47.771515 240.414202 
L 49.9945 239.772069 
L 52.217484 239.072274 
L 54.440469 238.335565 
L 56.663453 237.582688 
L 58.886438 236.834387 
L 61.109422 236.11141 
L 63.332407 235.434502 
L 65.555391 234.82441 
L 67.778376 234.301879 
L 70.001361 233.887656 
L 72.224345 233.602486 
L 74.44733 233.467115 
L 76.670314 233.499392 
L 78.893299 233.695743 
L 81.116283 234.04299 
L 83.339268 234.527916 
L 85.562253 235.137298 
L 87.785237 235.857916 
L 90.008222 236.676551 
L 92.231206 237.57998 
L 94.454191 238.554984 
L 96.677175 239.588342 
L 98.90016 240.666831 
L 101.123145 241.776746 
L 103.346129 242.903304 
L 105.569114 244.031575 
L 107.792098 245.14663 
L 110.015083 246.233541 
L 112.238067 247.277379 
L 114.461052 248.263215 
L 116.684036 249.176119 
L 118.907021 250.001163 
L 121.130006 250.723419 
L 123.35299 251.32876 
L 125.575975 251.815087 
L 127.798959 252.189555 
L 130.021944 252.459561 
L 132.244928 252.632498 
L 134.467913 252.715761 
L 136.690898 252.716746 
L 138.913882 252.642846 
L 141.136867 252.501457 
L 143.359851 252.299974 
L 145.582836 252.04579 
L 147.80582 251.747039 
L 150.028805 251.414798 
L 152.251789 251.060885 
L 154.474774 250.697115 
L 156.697759 250.335305 
L 158.920743 249.98727 
L 161.143728 249.664828 
L 163.366712 249.379794 
L 165.589697 249.143985 
L 167.812681 248.969216 
L 170.035666 248.867276 
L 172.258651 248.848839 
L 174.481635 248.923137 
L 176.70462 249.099303 
L 178.927604 249.386472 
L 181.150589 249.793778 
L 183.373573 250.330356 
L 185.596558 251.005338 
L 187.819542 251.82786 
L 190.042527 252.807056 
L 192.265512 253.952059 
L 194.488496 255.265586 
L 196.711481 256.702917 
L 198.934465 258.198072 
L 201.15745 259.684972 
L 203.380434 261.097535 
L 205.603419 262.369681 
L 207.826404 263.435331 
L 210.049388 264.228404 
L 212.272373 264.682819 
L 214.495357 264.732497 
L 216.718342 264.311606 
L 218.941326 263.407228 
L 221.164311 262.124497 
L 223.387295 260.584521 
L 225.61028 258.908408 
L 227.833265 257.217265 
L 230.056249 255.632201 
L 232.279234 254.274322 
L 234.502218 253.264736 
L 236.725203 252.724552 
L 238.948187 252.774878 
L 241.171172 253.527862 
L 243.394157 254.961619 
L 245.617141 256.951083 
L 247.840126 259.368532 
L 250.06311 262.086246 
L 252.286095 264.976503 
L 254.509079 267.911583 
L 256.732064 270.763765 
L 258.955048 273.405327 
L 261.178033 275.708549 
L 263.401018 277.54571 
L 265.624002 278.822406 
L 267.846987 279.5775 
L 270.069971 279.883174 
L 272.292956 279.811607 
L 274.51594 279.434981 
L 276.738925 278.825476 
L 278.96191 278.055273 
L 281.184894 277.196552 
L 283.407879 276.321494 
L 285.630863 275.50228 
L 287.853848 274.810122 
L 290.076832 274.278608 
L 292.299817 273.892445 
L 294.522801 273.633075 
L 296.745786 273.48194 
L 298.968771 273.420482 
L 301.191755 273.430144 
L 303.41474 273.492366 
L 305.637724 273.588591 
L 307.860709 273.70026 
L 310.083693 273.808816 
L 312.306678 273.898503 
L 314.529663 273.97428 
L 316.752647 274.050389 
L 318.975632 274.141115 
L 321.198616 274.260747 
L 323.421601 274.423568 
L 325.644585 274.643867 
L 327.86757 274.935929 
L 330.090554 275.314039 
L 332.313539 275.792486 
L 334.536524 276.385511 
L 336.759508 277.098378 
L 338.982493 277.916309 
L 341.205477 278.821816 
L 343.428462 279.79741 
L 345.651446 280.825602 
L 347.874431 281.888905 
L 350.097416 282.969828 
L 352.3204 284.050884 
L 354.543385 285.114584 
L 356.766369 286.14344 
L 358.989354 287.119963 
L 361.212338 288.026664 
L 363.435323 288.846054 
L 365.658307 289.560645 
L 367.881292 290.152949 
L 370.104277 290.605477 
L 372.327261 290.90074 
L 374.550246 291.02125 
L 376.77323 290.949518 
L 378.996215 290.668055 
L 381.219199 290.159373 
L 381.219199 231.179967 
L 381.219199 231.179967 
L 378.996215 232.143395 
L 376.77323 232.926538 
L 374.550246 233.544015 
L 372.327261 234.010448 
L 370.104277 234.34046 
L 367.881292 234.548671 
L 365.658307 234.649704 
L 363.435323 234.658179 
L 361.212338 234.588718 
L 358.989354 234.455942 
L 356.766369 234.274474 
L 354.543385 234.058934 
L 352.3204 233.823945 
L 350.097416 233.584127 
L 347.874431 233.354102 
L 345.651446 233.148492 
L 343.428462 232.981918 
L 341.205477 232.869002 
L 338.982493 232.824365 
L 336.759508 232.862629 
L 334.536524 232.998415 
L 332.313539 233.242182 
L 330.090554 233.573627 
L 327.86757 233.958657 
L 325.644585 234.363114 
L 323.421601 234.752843 
L 321.198616 235.093685 
L 318.975632 235.351483 
L 316.752647 235.492081 
L 314.529663 235.481321 
L 312.306678 235.285045 
L 310.083693 234.869208 
L 307.860709 234.22319 
L 305.637724 233.388645 
L 303.41474 232.414298 
L 301.191755 231.348875 
L 298.968771 230.241101 
L 296.745786 229.139702 
L 294.522801 228.093404 
L 292.299817 227.150932 
L 290.076832 226.361011 
L 287.853848 225.772368 
L 285.630863 225.430186 
L 283.407879 225.326667 
L 281.184894 225.413222 
L 278.96191 225.640214 
L 276.738925 225.958008 
L 274.51594 226.316965 
L 272.292956 226.667451 
L 270.069971 226.959827 
L 267.846987 227.144457 
L 265.624002 227.171705 
L 263.401018 226.991933 
L 261.178033 226.571958 
L 258.955048 225.944401 
L 256.732064 225.158337 
L 254.509079 224.262841 
L 252.286095 223.306988 
L 250.06311 222.339851 
L 247.840126 221.410506 
L 245.617141 220.568026 
L 243.394157 219.861488 
L 241.171172 219.339965 
L 238.948187 219.051493 
L 236.725203 219.003735 
L 234.502218 219.151911 
L 232.279234 219.447732 
L 230.056249 219.842913 
L 227.833265 220.289166 
L 225.61028 220.738203 
L 223.387295 221.141739 
L 221.164311 221.451487 
L 218.941326 221.619158 
L 216.718342 221.596468 
L 214.495357 221.342381 
L 212.272373 220.869468 
L 210.049388 220.214326 
L 207.826404 219.413665 
L 205.603419 218.504195 
L 203.380434 217.522626 
L 201.15745 216.505666 
L 198.934465 215.490028 
L 196.711481 214.512419 
L 194.488496 213.609551 
L 192.265512 212.818065 
L 190.042527 212.160296 
L 187.819542 211.626652 
L 185.596558 211.203223 
L 183.373573 210.876098 
L 181.150589 210.631368 
L 178.927604 210.455121 
L 176.70462 210.333447 
L 174.481635 210.252436 
L 172.258651 210.198178 
L 170.035666 210.156761 
L 167.812681 210.115072 
L 165.589697 210.071903 
L 163.366712 210.035215 
L 161.143728 210.013202 
L 158.920743 210.01406 
L 156.697759 210.045985 
L 154.474774 210.117173 
L 152.251789 210.235818 
L 150.028805 210.410117 
L 147.80582 210.648264 
L 145.582836 210.958456 
L 143.359851 211.343191 
L 141.136867 211.782178 
L 138.913882 212.24943 
L 136.690898 212.718959 
L 134.467913 213.164778 
L 132.244928 213.560898 
L 130.021944 213.881332 
L 127.798959 214.100093 
L 125.575975 214.191192 
L 123.35299 214.128643 
L 121.130006 213.886989 
L 118.907021 213.461439 
L 116.684036 212.874045 
L 114.461052 212.148654 
L 112.238067 211.309112 
L 110.015083 210.379267 
L 107.792098 209.382964 
L 105.569114 208.344051 
L 103.346129 207.286374 
L 101.123145 206.23378 
L 98.90016 205.210116 
L 96.677175 204.238398 
L 94.454191 203.335507 
L 92.231206 202.515578 
L 90.008222 201.792729 
L 87.785237 201.181081 
L 85.562253 200.694752 
L 83.339268 200.347862 
L 81.116283 200.154531 
L 78.893299 200.128879 
L 76.670314 200.285026 
L 74.44733 200.63703 
L 72.224345 201.186337 
L 70.001361 201.906241 
L 67.778376 202.766229 
L 65.555391 203.735786 
L 63.332407 204.7844 
L 61.109422 205.881557 
L 58.886438 206.996742 
L 56.663453 208.099443 
L 54.440469 209.159145 
L 52.217484 210.145336 
L 49.9945 211.0275 
L 47.771515 211.775126 
L 45.54853 212.357699 
L 43.325546 212.744705 
L 41.102561 212.90563 
L 38.879577 212.809962 
L 36.656592 212.427187 
L 34.433608 211.72679 
L 32.210623 210.678258 
L 29.987638 209.251078 
L 27.764654 207.414736 
z
" clip-path="url(#p8bc60564eb)" style="fill: #1f77b4"/>
   </g>
   <g id="FillBetweenPolyCollection_2">
    <path d="M 27.764654 172.869655 
L 27.764654 207.414736 
L 29.987638 209.251078 
L 32.210623 210.678258 
L 34.433608 211.72679 
L 36.656592 212.427187 
L 38.879577 212.809962 
L 41.102561 212.90563 
L 43.325546 212.744705 
L 45.54853 212.357699 
L 47.771515 211.775126 
L 49.9945 211.0275 
L 52.217484 210.145336 
L 54.440469 209.159145 
L 56.663453 208.099443 
L 58.886438 206.996742 
L 61.109422 205.881557 
L 63.332407 204.7844 
L 65.555391 203.735786 
L 67.778376 202.766229 
L 70.001361 201.906241 
L 72.224345 201.186337 
L 74.44733 200.63703 
L 76.670314 200.285026 
L 78.893299 200.128879 
L 81.116283 200.154531 
L 83.339268 200.347862 
L 85.562253 200.694752 
L 87.785237 201.181081 
L 90.008222 201.792729 
L 92.231206 202.515578 
L 94.454191 203.335507 
L 96.677175 204.238398 
L 98.90016 205.210116 
L 101.123145 206.23378 
L 103.346129 207.286374 
L 105.569114 208.344051 
L 107.792098 209.382964 
L 110.015083 210.379267 
L 112.238067 211.309112 
L 114.461052 212.148654 
L 116.684036 212.874045 
L 118.907021 213.461439 
L 121.130006 213.886989 
L 123.35299 214.128643 
L 125.575975 214.191192 
L 127.798959 214.100093 
L 130.021944 213.881332 
L 132.244928 213.560898 
L 134.467913 213.164778 
L 136.690898 212.718959 
L 138.913882 212.24943 
L 141.136867 211.782178 
L 143.359851 211.343191 
L 145.582836 210.958456 
L 147.80582 210.648264 
L 150.028805 210.410117 
L 152.251789 210.235818 
L 154.474774 210.117173 
L 156.697759 210.045985 
L 158.920743 210.01406 
L 161.143728 210.013202 
L 163.366712 210.035215 
L 165.589697 210.071903 
L 167.812681 210.115072 
L 170.035666 210.156761 
L 172.258651 210.198178 
L 174.481635 210.252436 
L 176.70462 210.333447 
L 178.927604 210.455121 
L 181.150589 210.631368 
L 183.373573 210.876098 
L 185.596558 211.203223 
L 187.819542 211.626652 
L 190.042527 212.160296 
L 192.265512 212.818065 
L 194.488496 213.609551 
L 196.711481 214.512419 
L 198.934465 215.490028 
L 201.15745 216.505666 
L 203.380434 217.522626 
L 205.603419 218.504195 
L 207.826404 219.413665 
L 210.049388 220.214326 
L 212.272373 220.869468 
L 214.495357 221.342381 
L 216.718342 221.596468 
L 218.941326 221.619158 
L 221.164311 221.451487 
L 223.387295 221.141739 
L 225.61028 220.738203 
L 227.833265 220.289166 
L 230.056249 219.842913 
L 232.279234 219.447732 
L 234.502218 219.151911 
L 236.725203 219.003735 
L 238.948187 219.051493 
L 241.171172 219.339965 
L 243.394157 219.861488 
L 245.617141 220.568026 
L 247.840126 221.410506 
L 250.06311 222.339851 
L 252.286095 223.306988 
L 254.509079 224.262841 
L 256.732064 225.158337 
L 258.955048 225.944401 
L 261.178033 226.571958 
L 263.401018 226.991933 
L 265.624002 227.171705 
L 267.846987 227.144457 
L 270.069971 226.959827 
L 272.292956 226.667451 
L 274.51594 226.316965 
L 276.738925 225.958008 
L 278.96191 225.640214 
L 281.184894 225.413222 
L 283.407879 225.326667 
L 285.630863 225.430186 
L 287.853848 225.772368 
L 290.076832 226.361011 
L 292.299817 227.150932 
L 294.522801 228.093404 
L 296.745786 229.139702 
L 298.968771 230.241101 
L 301.191755 231.348875 
L 303.41474 232.414298 
L 305.637724 233.388645 
L 307.860709 234.22319 
L 310.083693 234.869208 
L 312.306678 235.285045 
L 314.529663 235.481321 
L 316.752647 235.492081 
L 318.975632 235.351483 
L 321.198616 235.093685 
L 323.421601 234.752843 
L 325.644585 234.363114 
L 327.86757 233.958657 
L 330.090554 233.573627 
L 332.313539 233.242182 
L 334.536524 232.998415 
L 336.759508 232.862629 
L 338.982493 232.824365 
L 341.205477 232.869002 
L 343.428462 232.981918 
L 345.651446 233.148492 
L 347.874431 233.354102 
L 350.097416 233.584127 
L 352.3204 233.823945 
L 354.543385 234.058934 
L 356.766369 234.274474 
L 358.989354 234.455942 
L 361.212338 234.588718 
L 363.435323 234.658179 
L 365.658307 234.649704 
L 367.881292 234.548671 
L 370.104277 234.34046 
L 372.327261 234.010448 
L 374.550246 233.544015 
L 376.77323 232.926538 
L 378.996215 232.143395 
L 381.219199 231.179967 
L 381.219199 191.034321 
L 381.219199 191.034321 
L 378.996215 188.801894 
L 376.77323 186.957828 
L 374.550246 185.473501 
L 372.327261 184.320289 
L 370.104277 183.469571 
L 367.881292 182.892723 
L 365.658307 182.561123 
L 363.435323 182.446149 
L 361.212338 182.519178 
L 358.989354 182.751588 
L 356.766369 183.114755 
L 354.543385 183.580058 
L 352.3204 184.118874 
L 350.097416 184.70258 
L 347.874431 185.302554 
L 345.651446 185.890174 
L 343.428462 186.436816 
L 341.205477 186.913858 
L 338.982493 187.292678 
L 336.759508 187.544653 
L 334.536524 187.641161 
L 332.313539 187.557943 
L 330.090554 187.302991 
L 327.86757 186.898755 
L 325.644585 186.367749 
L 323.421601 185.732492 
L 321.198616 185.015498 
L 318.975632 184.239284 
L 316.752647 183.426367 
L 314.529663 182.599263 
L 312.306678 181.780489 
L 310.083693 180.992536 
L 307.860709 180.252975 
L 305.637724 179.56839 
L 303.41474 178.943878 
L 301.191755 178.384536 
L 298.968771 177.895463 
L 296.745786 177.481754 
L 294.522801 177.148509 
L 292.299817 176.900824 
L 290.076832 176.743797 
L 287.853848 176.682525 
L 285.630863 176.721178 
L 283.407879 176.850036 
L 281.184894 177.048691 
L 278.96191 177.296459 
L 276.738925 177.572654 
L 274.51594 177.856592 
L 272.292956 178.127588 
L 270.069971 178.364959 
L 267.846987 178.548019 
L 265.624002 178.656084 
L 263.401018 178.66847 
L 261.178033 178.572869 
L 258.955048 178.390481 
L 256.732064 178.150883 
L 254.509079 177.88365 
L 252.286095 177.618361 
L 250.06311 177.384592 
L 247.840126 177.211919 
L 245.617141 177.129919 
L 243.394157 177.168169 
L 241.171172 177.356247 
L 238.948187 177.72285 
L 236.725203 178.262569 
L 234.502218 178.925687 
L 232.279234 179.659522 
L 230.056249 180.411397 
L 227.833265 181.12863 
L 225.61028 181.758542 
L 223.387295 182.248453 
L 221.164311 182.545685 
L 218.941326 182.597556 
L 216.718342 182.351388 
L 214.495357 181.763906 
L 212.272373 180.861356 
L 210.049388 179.70114 
L 207.826404 178.340807 
L 205.603419 176.837907 
L 203.380434 175.249989 
L 201.15745 173.634603 
L 198.934465 172.049298 
L 196.711481 170.551625 
L 194.488496 169.199131 
L 192.265512 168.049266 
L 190.042527 167.137918 
L 187.819542 166.452875 
L 185.596558 165.975416 
L 183.373573 165.68682 
L 181.150589 165.568367 
L 178.927604 165.601337 
L 176.70462 165.767007 
L 174.481635 166.046659 
L 172.258651 166.42157 
L 170.035666 166.873021 
L 167.812681 167.382672 
L 165.589697 167.937886 
L 163.366712 168.530415 
L 161.143728 169.152126 
L 158.920743 169.794883 
L 156.697759 170.450552 
L 154.474774 171.110998 
L 152.251789 171.768088 
L 150.028805 172.413687 
L 147.80582 173.039661 
L 145.582836 173.637874 
L 143.359851 174.200292 
L 141.136867 174.719273 
L 138.913882 175.187277 
L 136.690898 175.596761 
L 134.467913 175.940184 
L 132.244928 176.210004 
L 130.021944 176.398679 
L 127.798959 176.498668 
L 125.575975 176.50243 
L 123.35299 176.402421 
L 121.130006 176.19134 
L 118.907021 175.87116 
L 116.684036 175.455907 
L 114.461052 174.960413 
L 112.238067 174.399508 
L 110.015083 173.788023 
L 107.792098 173.14079 
L 105.569114 172.47264 
L 103.346129 171.798404 
L 101.123145 171.132912 
L 98.90016 170.490996 
L 96.677175 169.887652 
L 94.454191 169.339087 
L 92.231206 168.862055 
L 90.008222 168.473309 
L 87.785237 168.189606 
L 85.562253 168.027701 
L 83.339268 168.004347 
L 81.116283 168.1363 
L 78.893299 168.440316 
L 76.670314 168.933148 
L 74.44733 169.631478 
L 72.224345 170.536218 
L 70.001361 171.613097 
L 67.778376 172.823085 
L 65.555391 174.127151 
L 63.332407 175.486265 
L 61.109422 176.861396 
L 58.886438 178.213513 
L 56.663453 179.503587 
L 54.440469 180.692586 
L 52.217484 181.74148 
L 49.9945 182.611239 
L 47.771515 183.262832 
L 45.54853 183.657228 
L 43.325546 183.755397 
L 41.102561 183.518308 
L 38.879577 182.906932 
L 36.656592 181.882236 
L 34.433608 180.405191 
L 32.210623 178.436766 
L 29.987638 175.937931 
L 27.764654 172.869655 
z
" clip-path="url(#p8bc60564eb)" style="fill: #aec7e8"/>
   </g>
   <g id="FillBetweenPolyCollection_3">
    <path d="M 27.764654 141.298326 
L 27.764654 172.869655 
L 29.987638 175.937931 
L 32.210623 178.436766 
L 34.433608 180.405191 
L 36.656592 181.882236 
L 38.879577 182.906932 
L 41.102561 183.518308 
L 43.325546 183.755397 
L 45.54853 183.657228 
L 47.771515 183.262832 
L 49.9945 182.611239 
L 52.217484 181.74148 
L 54.440469 180.692586 
L 56.663453 179.503587 
L 58.886438 178.213513 
L 61.109422 176.861396 
L 63.332407 175.486265 
L 65.555391 174.127151 
L 67.778376 172.823085 
L 70.001361 171.613097 
L 72.224345 170.536218 
L 74.44733 169.631478 
L 76.670314 168.933148 
L 78.893299 168.440316 
L 81.116283 168.1363 
L 83.339268 168.004347 
L 85.562253 168.027701 
L 87.785237 168.189606 
L 90.008222 168.473309 
L 92.231206 168.862055 
L 94.454191 169.339087 
L 96.677175 169.887652 
L 98.90016 170.490996 
L 101.123145 171.132912 
L 103.346129 171.798404 
L 105.569114 172.47264 
L 107.792098 173.14079 
L 110.015083 173.788023 
L 112.238067 174.399508 
L 114.461052 174.960413 
L 116.684036 175.455907 
L 118.907021 175.87116 
L 121.130006 176.19134 
L 123.35299 176.402421 
L 125.575975 176.50243 
L 127.798959 176.498668 
L 130.021944 176.398679 
L 132.244928 176.210004 
L 134.467913 175.940184 
L 136.690898 175.596761 
L 138.913882 175.187277 
L 141.136867 174.719273 
L 143.359851 174.200292 
L 145.582836 173.637874 
L 147.80582 173.039661 
L 150.028805 172.413687 
L 152.251789 171.768088 
L 154.474774 171.110998 
L 156.697759 170.450552 
L 158.920743 169.794883 
L 161.143728 169.152126 
L 163.366712 168.530415 
L 165.589697 167.937886 
L 167.812681 167.382672 
L 170.035666 166.873021 
L 172.258651 166.42157 
L 174.481635 166.046659 
L 176.70462 165.767007 
L 178.927604 165.601337 
L 181.150589 165.568367 
L 183.373573 165.68682 
L 185.596558 165.975416 
L 187.819542 166.452875 
L 190.042527 167.137918 
L 192.265512 168.049266 
L 194.488496 169.199131 
L 196.711481 170.551625 
L 198.934465 172.049298 
L 201.15745 173.634603 
L 203.380434 175.249989 
L 205.603419 176.837907 
L 207.826404 178.340807 
L 210.049388 179.70114 
L 212.272373 180.861356 
L 214.495357 181.763906 
L 216.718342 182.351388 
L 218.941326 182.597556 
L 221.164311 182.545685 
L 223.387295 182.248453 
L 225.61028 181.758542 
L 227.833265 181.12863 
L 230.056249 180.411397 
L 232.279234 179.659522 
L 234.502218 178.925687 
L 236.725203 178.262569 
L 238.948187 177.72285 
L 241.171172 177.356247 
L 243.394157 177.168169 
L 245.617141 177.129919 
L 247.840126 177.211919 
L 250.06311 177.384592 
L 252.286095 177.618361 
L 254.509079 177.88365 
L 256.732064 178.150883 
L 258.955048 178.390481 
L 261.178033 178.572869 
L 263.401018 178.66847 
L 265.624002 178.656084 
L 267.846987 178.548019 
L 270.069971 178.364959 
L 272.292956 178.127588 
L 274.51594 177.856592 
L 276.738925 177.572654 
L 278.96191 177.296459 
L 281.184894 177.048691 
L 283.407879 176.850036 
L 285.630863 176.721178 
L 287.853848 176.682525 
L 290.076832 176.743797 
L 292.299817 176.900824 
L 294.522801 177.148509 
L 296.745786 177.481754 
L 298.968771 177.895463 
L 301.191755 178.384536 
L 303.41474 178.943878 
L 305.637724 179.56839 
L 307.860709 180.252975 
L 310.083693 180.992536 
L 312.306678 181.780489 
L 314.529663 182.599263 
L 316.752647 183.426367 
L 318.975632 184.239284 
L 321.198616 185.015498 
L 323.421601 185.732492 
L 325.644585 186.367749 
L 327.86757 186.898755 
L 330.090554 187.302991 
L 332.313539 187.557943 
L 334.536524 187.641161 
L 336.759508 187.544653 
L 338.982493 187.292678 
L 341.205477 186.913858 
L 343.428462 186.436816 
L 345.651446 185.890174 
L 347.874431 185.302554 
L 350.097416 184.70258 
L 352.3204 184.118874 
L 354.543385 183.580058 
L 356.766369 183.114755 
L 358.989354 182.751588 
L 361.212338 182.519178 
L 363.435323 182.446149 
L 365.658307 182.561123 
L 367.881292 182.892723 
L 370.104277 183.469571 
L 372.327261 184.320289 
L 374.550246 185.473501 
L 376.77323 186.957828 
L 378.996215 188.801894 
L 381.219199 191.034321 
L 381.219199 61.180502 
L 381.219199 61.180502 
L 378.996215 62.873263 
L 376.77323 64.458586 
L 374.550246 65.940978 
L 372.327261 67.324945 
L 370.104277 68.614992 
L 367.881292 69.815626 
L 365.658307 70.931352 
L 363.435323 71.966676 
L 361.212338 72.926104 
L 358.989354 73.814142 
L 356.766369 74.635295 
L 354.543385 75.394071 
L 352.3204 76.094974 
L 350.097416 76.74251 
L 347.874431 77.341185 
L 345.651446 77.895506 
L 343.428462 78.409977 
L 341.205477 78.889105 
L 338.982493 79.337396 
L 336.759508 79.759355 
L 334.536524 80.159489 
L 332.313539 80.542383 
L 330.090554 80.913207 
L 327.86757 81.277396 
L 325.644585 81.640384 
L 323.421601 82.007607 
L 321.198616 82.384499 
L 318.975632 82.776496 
L 316.752647 83.189033 
L 314.529663 83.627545 
L 312.306678 84.097466 
L 310.083693 84.604204 
L 307.860709 85.147139 
L 305.637724 85.712205 
L 303.41474 86.283519 
L 301.191755 86.845196 
L 298.968771 87.381353 
L 296.745786 87.876104 
L 294.522801 88.313566 
L 292.299817 88.677855 
L 290.076832 88.953085 
L 287.853848 89.123374 
L 285.630863 89.1748 
L 283.407879 89.122802 
L 281.184894 89.005428 
L 278.96191 88.861303 
L 276.738925 88.729054 
L 274.51594 88.647308 
L 272.292956 88.654691 
L 270.069971 88.78983 
L 267.846987 89.091352 
L 265.624002 89.597882 
L 263.401018 90.348049 
L 261.178033 91.36677 
L 258.955048 92.624136 
L 256.732064 94.076527 
L 254.509079 95.680326 
L 252.286095 97.391914 
L 250.06311 99.167673 
L 247.840126 100.963984 
L 245.617141 102.73723 
L 243.394157 104.443791 
L 241.171172 106.040049 
L 238.948187 107.482927 
L 236.725203 108.75034 
L 234.502218 109.847476 
L 232.279234 110.781346 
L 230.056249 111.558961 
L 227.833265 112.187332 
L 225.61028 112.673469 
L 223.387295 113.024385 
L 221.164311 113.247088 
L 218.941326 113.34859 
L 216.718342 113.335903 
L 214.495357 113.217556 
L 212.272373 113.013305 
L 210.049388 112.747942 
L 207.826404 112.446279 
L 205.603419 112.133129 
L 203.380434 111.833305 
L 201.15745 111.571621 
L 198.934465 111.372889 
L 196.711481 111.261924 
L 194.488496 111.263537 
L 192.265512 111.402478 
L 190.042527 111.689663 
L 187.819542 112.105149 
L 185.596558 112.624817 
L 183.373573 113.22455 
L 181.150589 113.880229 
L 178.927604 114.567735 
L 176.70462 115.262952 
L 174.481635 115.941759 
L 172.258651 116.58004 
L 170.035666 117.153675 
L 167.812681 117.640224 
L 165.589697 118.042342 
L 163.366712 118.382006 
L 161.143728 118.681687 
L 158.920743 118.963859 
L 156.697759 119.250994 
L 154.474774 119.565565 
L 152.251789 119.930045 
L 150.028805 120.366905 
L 147.80582 120.898619 
L 145.582836 121.547659 
L 143.359851 122.329468 
L 141.136867 123.231371 
L 138.913882 124.23366 
L 136.690898 125.316631 
L 134.467913 126.460577 
L 132.244928 127.645792 
L 130.021944 128.852571 
L 127.798959 130.061207 
L 125.575975 131.251995 
L 123.35299 132.40523 
L 121.130006 133.501349 
L 118.907021 134.526448 
L 116.684036 135.473966 
L 114.461052 136.337834 
L 112.238067 137.111981 
L 110.015083 137.79034 
L 107.792098 138.366839 
L 105.569114 138.835409 
L 103.346129 139.189981 
L 101.123145 139.424486 
L 98.90016 139.532853 
L 96.677175 139.512358 
L 94.454191 139.384993 
L 92.231206 139.183829 
L 90.008222 138.941987 
L 87.785237 138.692592 
L 85.562253 138.468767 
L 83.339268 138.303633 
L 81.116283 138.230314 
L 78.893299 138.281933 
L 76.670314 138.491612 
L 74.44733 138.892384 
L 72.224345 139.497906 
L 70.001361 140.278615 
L 67.778376 141.199097 
L 65.555391 142.22394 
L 63.332407 143.31773 
L 61.109422 144.445055 
L 58.886438 145.570502 
L 56.663453 146.658658 
L 54.440469 147.67411 
L 52.217484 148.581445 
L 49.9945 149.34525 
L 47.771515 149.930112 
L 45.54853 150.300619 
L 43.325546 150.421358 
L 41.102561 150.256915 
L 38.879577 149.771877 
L 36.656592 148.930833 
L 34.433608 147.698369 
L 32.210623 146.039071 
L 29.987638 143.917528 
L 27.764654 141.298326 
z
" clip-path="url(#p8bc60564eb)" style="fill: #ff7f0e"/>
   </g>
   <g id="FillBetweenPolyCollection_4">
    <path d="M 27.764654 110.866935 
L 27.764654 141.298326 
L 29.987638 143.917528 
L 32.210623 146.039071 
L 34.433608 147.698369 
L 36.656592 148.930833 
L 38.879577 149.771877 
L 41.102561 150.256915 
L 43.325546 150.421358 
L 45.54853 150.300619 
L 47.771515 149.930112 
L 49.9945 149.34525 
L 52.217484 148.581445 
L 54.440469 147.67411 
L 56.663453 146.658658 
L 58.886438 145.570502 
L 61.109422 144.445055 
L 63.332407 143.31773 
L 65.555391 142.22394 
L 67.778376 141.199097 
L 70.001361 140.278615 
L 72.224345 139.497906 
L 74.44733 138.892384 
L 76.670314 138.491612 
L 78.893299 138.281933 
L 81.116283 138.230314 
L 83.339268 138.303633 
L 85.562253 138.468767 
L 87.785237 138.692592 
L 90.008222 138.941987 
L 92.231206 139.183829 
L 94.454191 139.384993 
L 96.677175 139.512358 
L 98.90016 139.532853 
L 101.123145 139.424486 
L 103.346129 139.189981 
L 105.569114 138.835409 
L 107.792098 138.366839 
L 110.015083 137.79034 
L 112.238067 137.111981 
L 114.461052 136.337834 
L 116.684036 135.473966 
L 118.907021 134.526448 
L 121.130006 133.501349 
L 123.35299 132.40523 
L 125.575975 131.251995 
L 127.798959 130.061207 
L 130.021944 128.852571 
L 132.244928 127.645792 
L 134.467913 126.460577 
L 136.690898 125.316631 
L 138.913882 124.23366 
L 141.136867 123.231371 
L 143.359851 122.329468 
L 145.582836 121.547659 
L 147.80582 120.898619 
L 150.028805 120.366905 
L 152.251789 119.930045 
L 154.474774 119.565565 
L 156.697759 119.250994 
L 158.920743 118.963859 
L 161.143728 118.681687 
L 163.366712 118.382006 
L 165.589697 118.042342 
L 167.812681 117.640224 
L 170.035666 117.153675 
L 172.258651 116.58004 
L 174.481635 115.941759 
L 176.70462 115.262952 
L 178.927604 114.567735 
L 181.150589 113.880229 
L 183.373573 113.22455 
L 185.596558 112.624817 
L 187.819542 112.105149 
L 190.042527 111.689663 
L 192.265512 111.402478 
L 194.488496 111.263537 
L 196.711481 111.261924 
L 198.934465 111.372889 
L 201.15745 111.571621 
L 203.380434 111.833305 
L 205.603419 112.133129 
L 207.826404 112.446279 
L 210.049388 112.747942 
L 212.272373 113.013305 
L 214.495357 113.217556 
L 216.718342 113.335903 
L 218.941326 113.34859 
L 221.164311 113.247088 
L 223.387295 113.024385 
L 225.61028 112.673469 
L 227.833265 112.187332 
L 230.056249 111.558961 
L 232.279234 110.781346 
L 234.502218 109.847476 
L 236.725203 108.75034 
L 238.948187 107.482927 
L 241.171172 106.040049 
L 243.394157 104.443791 
L 245.617141 102.73723 
L 247.840126 100.963984 
L 250.06311 99.167673 
L 252.286095 97.391914 
L 254.509079 95.680326 
L 256.732064 94.076527 
L 258.955048 92.624136 
L 261.178033 91.36677 
L 263.401018 90.348049 
L 265.624002 89.597882 
L 267.846987 89.091352 
L 270.069971 88.78983 
L 272.292956 88.654691 
L 274.51594 88.647308 
L 276.738925 88.729054 
L 278.96191 88.861303 
L 281.184894 89.005428 
L 283.407879 89.122802 
L 285.630863 89.1748 
L 287.853848 89.123374 
L 290.076832 88.953085 
L 292.299817 88.677855 
L 294.522801 88.313566 
L 296.745786 87.876104 
L 298.968771 87.381353 
L 301.191755 86.845196 
L 303.41474 86.283519 
L 305.637724 85.712205 
L 307.860709 85.147139 
L 310.083693 84.604204 
L 312.306678 84.097466 
L 314.529663 83.627545 
L 316.752647 83.189033 
L 318.975632 82.776496 
L 321.198616 82.384499 
L 323.421601 82.007607 
L 325.644585 81.640384 
L 327.86757 81.277396 
L 330.090554 80.913207 
L 332.313539 80.542383 
L 334.536524 80.159489 
L 336.759508 79.759355 
L 338.982493 79.337396 
L 341.205477 78.889105 
L 343.428462 78.409977 
L 345.651446 77.895506 
L 347.874431 77.341185 
L 350.097416 76.74251 
L 352.3204 76.094974 
L 354.543385 75.394071 
L 356.766369 74.635295 
L 358.989354 73.814142 
L 361.212338 72.926104 
L 363.435323 71.966676 
L 365.658307 70.931352 
L 367.881292 69.815626 
L 370.104277 68.614992 
L 372.327261 67.324945 
L 374.550246 65.940978 
L 376.77323 64.458586 
L 378.996215 62.873263 
L 381.219199 61.180502 
L 381.219199 60.883127 
L 381.219199 60.883127 
L 378.996215 60.374445 
L 376.77323 60.092982 
L 374.550246 60.02125 
L 372.327261 60.14176 
L 370.104277 60.437023 
L 367.881292 60.889551 
L 365.658307 61.481855 
L 363.435323 62.196446 
L 361.212338 63.015836 
L 358.989354 63.922537 
L 356.766369 64.89906 
L 354.543385 65.927916 
L 352.3204 66.991616 
L 350.097416 68.072672 
L 347.874431 69.153595 
L 345.651446 70.216898 
L 343.428462 71.24509 
L 341.205477 72.220684 
L 338.982493 73.126191 
L 336.759508 73.944122 
L 334.536524 74.656989 
L 332.313539 75.250014 
L 330.090554 75.728461 
L 327.86757 76.106571 
L 325.644585 76.398633 
L 323.421601 76.618932 
L 321.198616 76.781753 
L 318.975632 76.901385 
L 316.752647 76.992111 
L 314.529663 77.06822 
L 312.306678 77.143997 
L 310.083693 77.233684 
L 307.860709 77.34224 
L 305.637724 77.453909 
L 303.41474 77.550134 
L 301.191755 77.612356 
L 298.968771 77.622018 
L 296.745786 77.56056 
L 294.522801 77.409425 
L 292.299817 77.150055 
L 290.076832 76.763892 
L 287.853848 76.232378 
L 285.630863 75.54022 
L 283.407879 74.721006 
L 281.184894 73.845948 
L 278.96191 72.987227 
L 276.738925 72.217024 
L 274.51594 71.607519 
L 272.292956 71.230893 
L 270.069971 71.159326 
L 267.846987 71.465 
L 265.624002 72.220094 
L 263.401018 73.49679 
L 261.178033 75.333951 
L 258.955048 77.637173 
L 256.732064 80.278735 
L 254.509079 83.130917 
L 252.286095 86.065997 
L 250.06311 88.956254 
L 247.840126 91.673968 
L 245.617141 94.091417 
L 243.394157 96.080881 
L 241.171172 97.514638 
L 238.948187 98.267622 
L 236.725203 98.317948 
L 234.502218 97.777764 
L 232.279234 96.768178 
L 230.056249 95.410299 
L 227.833265 93.825235 
L 225.61028 92.134092 
L 223.387295 90.457979 
L 221.164311 88.918003 
L 218.941326 87.635272 
L 216.718342 86.730894 
L 214.495357 86.310003 
L 212.272373 86.359681 
L 210.049388 86.814096 
L 207.826404 87.607169 
L 205.603419 88.672819 
L 203.380434 89.944965 
L 201.15745 91.357528 
L 198.934465 92.844428 
L 196.711481 94.339583 
L 194.488496 95.776914 
L 192.265512 97.090441 
L 190.042527 98.235444 
L 187.819542 99.21464 
L 185.596558 100.037162 
L 183.373573 100.712144 
L 181.150589 101.248722 
L 178.927604 101.656028 
L 176.70462 101.943197 
L 174.481635 102.119363 
L 172.258651 102.193661 
L 170.035666 102.175224 
L 167.812681 102.073284 
L 165.589697 101.898515 
L 163.366712 101.662706 
L 161.143728 101.377672 
L 158.920743 101.05523 
L 156.697759 100.707195 
L 154.474774 100.345385 
L 152.251789 99.981615 
L 150.028805 99.627702 
L 147.80582 99.295461 
L 145.582836 98.99671 
L 143.359851 98.742526 
L 141.136867 98.541043 
L 138.913882 98.399654 
L 136.690898 98.325754 
L 134.467913 98.326739 
L 132.244928 98.410002 
L 130.021944 98.582939 
L 127.798959 98.852945 
L 125.575975 99.227413 
L 123.35299 99.71374 
L 121.130006 100.319081 
L 118.907021 101.041337 
L 116.684036 101.866381 
L 114.461052 102.779285 
L 112.238067 103.765121 
L 110.015083 104.808959 
L 107.792098 105.89587 
L 105.569114 107.010925 
L 103.346129 108.139196 
L 101.123145 109.265754 
L 98.90016 110.375669 
L 96.677175 111.454158 
L 94.454191 112.487516 
L 92.231206 113.46252 
L 90.008222 114.365949 
L 87.785237 115.184584 
L 85.562253 115.905202 
L 83.339268 116.514584 
L 81.116283 116.99951 
L 78.893299 117.346757 
L 76.670314 117.543108 
L 74.44733 117.575385 
L 72.224345 117.440014 
L 70.001361 117.154844 
L 67.778376 116.740621 
L 65.555391 116.21809 
L 63.332407 115.607998 
L 61.109422 114.93109 
L 58.886438 114.208113 
L 56.663453 113.459812 
L 54.440469 112.706935 
L 52.217484 111.970226 
L 49.9945 111.270431 
L 47.771515 110.628298 
L 45.54853 110.064572 
L 43.325546 109.599998 
L 41.102561 109.255324 
L 38.879577 109.051294 
L 36.656592 109.008656 
L 34.433608 109.148155 
L 32.210623 109.490537 
L 29.987638 110.056548 
L 27.764654 110.866935 
z
" clip-path="url(#p8bc60564eb)" style="fill: #ffbb78"/>
   </g>
   <g id="matplotlib.axis_1">
    <g id="xtick_1">
     <g id="line2d_1">
      <defs>
       <path id="m1ce4aaa454" d="M 0 0 
L 0 3.5 
" style="stroke: #000000; stroke-width: 0.8"/>
      </defs>
      <g>
       <use xlink:href="#m1ce4aaa454" x="27.764654" y="314.12125" style="stroke: #000000; stroke-width: 0.8"/>
      </g>
     </g>
     <g id="text_1">
      <!-- 1998 -->
      <g transform="translate(12.109973 340.173358) rotate(-45) scale(0.1 -0.1)">
       <defs>
        <path id="TimesNewRomanPSMT-31" d="M 750 3822 
L 1781 4325 
L 1884 4325 
L 1884 747 
Q 1884 391 1914 303 
Q 1944 216 2037 169 
Q 2131 122 2419 116 
L 2419 0 
L 825 0 
L 825 116 
Q 1125 122 1212 167 
Q 1300 213 1334 289 
Q 1369 366 1369 747 
L 1369 3034 
Q 1369 3497 1338 3628 
Q 1316 3728 1258 3775 
Q 1200 3822 1119 3822 
Q 1003 3822 797 3725 
L 750 3822 
z
" transform="scale(0.015625)"/>
        <path id="TimesNewRomanPSMT-39" d="M 338 -88 
L 338 28 
Q 744 34 1094 217 
Q 1444 400 1770 856 
Q 2097 1313 2225 1859 
Q 1734 1544 1338 1544 
Q 891 1544 572 1889 
Q 253 2234 253 2806 
Q 253 3363 572 3797 
Q 956 4325 1575 4325 
Q 2097 4325 2469 3894 
Q 2925 3359 2925 2575 
Q 2925 1869 2578 1258 
Q 2231 647 1613 244 
Q 1109 -88 516 -88 
L 338 -88 
z
M 2275 2091 
Q 2331 2497 2331 2741 
Q 2331 3044 2228 3395 
Q 2125 3747 1936 3934 
Q 1747 4122 1506 4122 
Q 1228 4122 1018 3872 
Q 809 3622 809 3128 
Q 809 2469 1088 2097 
Q 1291 1828 1588 1828 
Q 1731 1828 1928 1897 
Q 2125 1966 2275 2091 
z
" transform="scale(0.015625)"/>
        <path id="TimesNewRomanPSMT-38" d="M 1228 2134 
Q 725 2547 579 2797 
Q 434 3047 434 3316 
Q 434 3728 753 4026 
Q 1072 4325 1600 4325 
Q 2113 4325 2425 4047 
Q 2738 3769 2738 3413 
Q 2738 3175 2569 2928 
Q 2400 2681 1866 2347 
Q 2416 1922 2594 1678 
Q 2831 1359 2831 1006 
Q 2831 559 2490 242 
Q 2150 -75 1597 -75 
Q 994 -75 656 303 
Q 388 606 388 966 
Q 388 1247 577 1523 
Q 766 1800 1228 2134 
z
M 1719 2469 
Q 2094 2806 2194 3001 
Q 2294 3197 2294 3444 
Q 2294 3772 2109 3958 
Q 1925 4144 1606 4144 
Q 1288 4144 1088 3959 
Q 888 3775 888 3528 
Q 888 3366 970 3203 
Q 1053 3041 1206 2894 
L 1719 2469 
z
M 1375 2016 
Q 1116 1797 991 1539 
Q 866 1281 866 981 
Q 866 578 1086 336 
Q 1306 94 1647 94 
Q 1984 94 2187 284 
Q 2391 475 2391 747 
Q 2391 972 2272 1150 
Q 2050 1481 1375 2016 
z
" transform="scale(0.015625)"/>
       </defs>
       <use xlink:href="#TimesNewRomanPSMT-31"/>
       <use xlink:href="#TimesNewRomanPSMT-39" transform="translate(50 0)"/>
       <use xlink:href="#TimesNewRomanPSMT-39" transform="translate(100 0)"/>
       <use xlink:href="#TimesNewRomanPSMT-38" transform="translate(150 0)"/>
      </g>
     </g>
    </g>
    <g id="xtick_2">
     <g id="line2d_2">
      <g>
       <use xlink:href="#m1ce4aaa454" x="51.32829" y="314.12125" style="stroke: #000000; stroke-width: 0.8"/>
      </g>
     </g>
     <g id="text_2">
      <!-- 1999 -->
      <g transform="translate(35.673609 340.173358) rotate(-45) scale(0.1 -0.1)">
       <use xlink:href="#TimesNewRomanPSMT-31"/>
       <use xlink:href="#TimesNewRomanPSMT-39" transform="translate(50 0)"/>
       <use xlink:href="#TimesNewRomanPSMT-39" transform="translate(100 0)"/>
       <use xlink:href="#TimesNewRomanPSMT-39" transform="translate(150 0)"/>
      </g>
     </g>
    </g>
    <g id="xtick_3">
     <g id="line2d_3">
      <g>
       <use xlink:href="#m1ce4aaa454" x="74.891927" y="314.12125" style="stroke: #000000; stroke-width: 0.8"/>
      </g>
     </g>
     <g id="text_3">
      <!-- 2000 -->
      <g transform="translate(59.237245 340.173358) rotate(-45) scale(0.1 -0.1)">
       <defs>
        <path id="TimesNewRomanPSMT-32" d="M 2934 816 
L 2638 0 
L 138 0 
L 138 116 
Q 1241 1122 1691 1759 
Q 2141 2397 2141 2925 
Q 2141 3328 1894 3587 
Q 1647 3847 1303 3847 
Q 991 3847 742 3664 
Q 494 3481 375 3128 
L 259 3128 
Q 338 3706 661 4015 
Q 984 4325 1469 4325 
Q 1984 4325 2329 3994 
Q 2675 3663 2675 3213 
Q 2675 2891 2525 2569 
Q 2294 2063 1775 1497 
Q 997 647 803 472 
L 1909 472 
Q 2247 472 2383 497 
Q 2519 522 2628 598 
Q 2738 675 2819 816 
L 2934 816 
z
" transform="scale(0.015625)"/>
        <path id="TimesNewRomanPSMT-30" d="M 231 2094 
Q 231 2819 450 3342 
Q 669 3866 1031 4122 
Q 1313 4325 1613 4325 
Q 2100 4325 2488 3828 
Q 2972 3213 2972 2159 
Q 2972 1422 2759 906 
Q 2547 391 2217 158 
Q 1888 -75 1581 -75 
Q 975 -75 572 641 
Q 231 1244 231 2094 
z
M 844 2016 
Q 844 1141 1059 588 
Q 1238 122 1591 122 
Q 1759 122 1940 273 
Q 2122 425 2216 781 
Q 2359 1319 2359 2297 
Q 2359 3022 2209 3506 
Q 2097 3866 1919 4016 
Q 1791 4119 1609 4119 
Q 1397 4119 1231 3928 
Q 1006 3669 925 3112 
Q 844 2556 844 2016 
z
" transform="scale(0.015625)"/>
       </defs>
       <use xlink:href="#TimesNewRomanPSMT-32"/>
       <use xlink:href="#TimesNewRomanPSMT-30" transform="translate(50 0)"/>
       <use xlink:href="#TimesNewRomanPSMT-30" transform="translate(100 0)"/>
       <use xlink:href="#TimesNewRomanPSMT-30" transform="translate(150 0)"/>
      </g>
     </g>
    </g>
    <g id="xtick_4">
     <g id="line2d_4">
      <g>
       <use xlink:href="#m1ce4aaa454" x="98.455563" y="314.12125" style="stroke: #000000; stroke-width: 0.8"/>
      </g>
     </g>
     <g id="text_4">
      <!-- 2001 -->
      <g transform="translate(82.800882 340.173358) rotate(-45) scale(0.1 -0.1)">
       <use xlink:href="#TimesNewRomanPSMT-32"/>
       <use xlink:href="#TimesNewRomanPSMT-30" transform="translate(50 0)"/>
       <use xlink:href="#TimesNewRomanPSMT-30" transform="translate(100 0)"/>
       <use xlink:href="#TimesNewRomanPSMT-31" transform="translate(150 0)"/>
      </g>
     </g>
    </g>
    <g id="xtick_5">
     <g id="line2d_5">
      <g>
       <use xlink:href="#m1ce4aaa454" x="122.019199" y="314.12125" style="stroke: #000000; stroke-width: 0.8"/>
      </g>
     </g>
     <g id="text_5">
      <!-- 2002 -->
      <g transform="translate(106.364518 340.173358) rotate(-45) scale(0.1 -0.1)">
       <use xlink:href="#TimesNewRomanPSMT-32"/>
       <use xlink:href="#TimesNewRomanPSMT-30" transform="translate(50 0)"/>
       <use xlink:href="#TimesNewRomanPSMT-30" transform="translate(100 0)"/>
       <use xlink:href="#TimesNewRomanPSMT-32" transform="translate(150 0)"/>
      </g>
     </g>
    </g>
    <g id="xtick_6">
     <g id="line2d_6">
      <g>
       <use xlink:href="#m1ce4aaa454" x="145.582836" y="314.12125" style="stroke: #000000; stroke-width: 0.8"/>
      </g>
     </g>
     <g id="text_6">
      <!-- 2003 -->
      <g transform="translate(129.928155 340.173358) rotate(-45) scale(0.1 -0.1)">
       <defs>
        <path id="TimesNewRomanPSMT-33" d="M 325 3431 
Q 506 3859 782 4092 
Q 1059 4325 1472 4325 
Q 1981 4325 2253 3994 
Q 2459 3747 2459 3466 
Q 2459 3003 1878 2509 
Q 2269 2356 2469 2072 
Q 2669 1788 2669 1403 
Q 2669 853 2319 450 
Q 1863 -75 997 -75 
Q 569 -75 414 31 
Q 259 138 259 259 
Q 259 350 332 419 
Q 406 488 509 488 
Q 588 488 669 463 
Q 722 447 909 348 
Q 1097 250 1169 231 
Q 1284 197 1416 197 
Q 1734 197 1970 444 
Q 2206 691 2206 1028 
Q 2206 1275 2097 1509 
Q 2016 1684 1919 1775 
Q 1784 1900 1550 2001 
Q 1316 2103 1072 2103 
L 972 2103 
L 972 2197 
Q 1219 2228 1467 2375 
Q 1716 2522 1828 2728 
Q 1941 2934 1941 3181 
Q 1941 3503 1739 3701 
Q 1538 3900 1238 3900 
Q 753 3900 428 3381 
L 325 3431 
z
" transform="scale(0.015625)"/>
       </defs>
       <use xlink:href="#TimesNewRomanPSMT-32"/>
       <use xlink:href="#TimesNewRomanPSMT-30" transform="translate(50 0)"/>
       <use xlink:href="#TimesNewRomanPSMT-30" transform="translate(100 0)"/>
       <use xlink:href="#TimesNewRomanPSMT-33" transform="translate(150 0)"/>
      </g>
     </g>
    </g>
    <g id="xtick_7">
     <g id="line2d_7">
      <g>
       <use xlink:href="#m1ce4aaa454" x="169.146472" y="314.12125" style="stroke: #000000; stroke-width: 0.8"/>
      </g>
     </g>
     <g id="text_7">
      <!-- 2004 -->
      <g transform="translate(153.491791 340.173358) rotate(-45) scale(0.1 -0.1)">
       <defs>
        <path id="TimesNewRomanPSMT-34" d="M 2978 1563 
L 2978 1119 
L 2409 1119 
L 2409 0 
L 1894 0 
L 1894 1119 
L 100 1119 
L 100 1519 
L 2066 4325 
L 2409 4325 
L 2409 1563 
L 2978 1563 
z
M 1894 1563 
L 1894 3666 
L 406 1563 
L 1894 1563 
z
" transform="scale(0.015625)"/>
       </defs>
       <use xlink:href="#TimesNewRomanPSMT-32"/>
       <use xlink:href="#TimesNewRomanPSMT-30" transform="translate(50 0)"/>
       <use xlink:href="#TimesNewRomanPSMT-30" transform="translate(100 0)"/>
       <use xlink:href="#TimesNewRomanPSMT-34" transform="translate(150 0)"/>
      </g>
     </g>
    </g>
    <g id="xtick_8">
     <g id="line2d_8">
      <g>
       <use xlink:href="#m1ce4aaa454" x="192.710108" y="314.12125" style="stroke: #000000; stroke-width: 0.8"/>
      </g>
     </g>
     <g id="text_8">
      <!-- 2005 -->
      <g transform="translate(177.055427 340.173358) rotate(-45) scale(0.1 -0.1)">
       <defs>
        <path id="TimesNewRomanPSMT-35" d="M 2778 4238 
L 2534 3706 
L 1259 3706 
L 981 3138 
Q 1809 3016 2294 2522 
Q 2709 2097 2709 1522 
Q 2709 1188 2573 903 
Q 2438 619 2231 419 
Q 2025 219 1772 97 
Q 1413 -75 1034 -75 
Q 653 -75 479 54 
Q 306 184 306 341 
Q 306 428 378 495 
Q 450 563 559 563 
Q 641 563 702 538 
Q 763 513 909 409 
Q 1144 247 1384 247 
Q 1750 247 2026 523 
Q 2303 800 2303 1197 
Q 2303 1581 2056 1914 
Q 1809 2247 1375 2428 
Q 1034 2569 447 2591 
L 1259 4238 
L 2778 4238 
z
" transform="scale(0.015625)"/>
       </defs>
       <use xlink:href="#TimesNewRomanPSMT-32"/>
       <use xlink:href="#TimesNewRomanPSMT-30" transform="translate(50 0)"/>
       <use xlink:href="#TimesNewRomanPSMT-30" transform="translate(100 0)"/>
       <use xlink:href="#TimesNewRomanPSMT-35" transform="translate(150 0)"/>
      </g>
     </g>
    </g>
    <g id="xtick_9">
     <g id="line2d_9">
      <g>
       <use xlink:href="#m1ce4aaa454" x="216.273745" y="314.12125" style="stroke: #000000; stroke-width: 0.8"/>
      </g>
     </g>
     <g id="text_9">
      <!-- 2006 -->
      <g transform="translate(200.619064 340.173358) rotate(-45) scale(0.1 -0.1)">
       <defs>
        <path id="TimesNewRomanPSMT-36" d="M 2869 4325 
L 2869 4209 
Q 2456 4169 2195 4045 
Q 1934 3922 1679 3669 
Q 1425 3416 1258 3105 
Q 1091 2794 978 2366 
Q 1428 2675 1881 2675 
Q 2316 2675 2634 2325 
Q 2953 1975 2953 1425 
Q 2953 894 2631 456 
Q 2244 -75 1606 -75 
Q 1172 -75 869 213 
Q 275 772 275 1663 
Q 275 2231 503 2743 
Q 731 3256 1154 3653 
Q 1578 4050 1965 4187 
Q 2353 4325 2688 4325 
L 2869 4325 
z
M 925 2138 
Q 869 1716 869 1456 
Q 869 1156 980 804 
Q 1091 453 1309 247 
Q 1469 100 1697 100 
Q 1969 100 2183 356 
Q 2397 613 2397 1088 
Q 2397 1622 2184 2012 
Q 1972 2403 1581 2403 
Q 1463 2403 1327 2353 
Q 1191 2303 925 2138 
z
" transform="scale(0.015625)"/>
       </defs>
       <use xlink:href="#TimesNewRomanPSMT-32"/>
       <use xlink:href="#TimesNewRomanPSMT-30" transform="translate(50 0)"/>
       <use xlink:href="#TimesNewRomanPSMT-30" transform="translate(100 0)"/>
       <use xlink:href="#TimesNewRomanPSMT-36" transform="translate(150 0)"/>
      </g>
     </g>
    </g>
    <g id="xtick_10">
     <g id="line2d_10">
      <g>
       <use xlink:href="#m1ce4aaa454" x="239.837381" y="314.12125" style="stroke: #000000; stroke-width: 0.8"/>
      </g>
     </g>
     <g id="text_10">
      <!-- 2007 -->
      <g transform="translate(224.1827 340.173358) rotate(-45) scale(0.1 -0.1)">
       <defs>
        <path id="TimesNewRomanPSMT-37" d="M 644 4238 
L 2916 4238 
L 2916 4119 
L 1503 -88 
L 1153 -88 
L 2419 3728 
L 1253 3728 
Q 900 3728 750 3644 
Q 488 3500 328 3200 
L 238 3234 
L 644 4238 
z
" transform="scale(0.015625)"/>
       </defs>
       <use xlink:href="#TimesNewRomanPSMT-32"/>
       <use xlink:href="#TimesNewRomanPSMT-30" transform="translate(50 0)"/>
       <use xlink:href="#TimesNewRomanPSMT-30" transform="translate(100 0)"/>
       <use xlink:href="#TimesNewRomanPSMT-37" transform="translate(150 0)"/>
      </g>
     </g>
    </g>
    <g id="xtick_11">
     <g id="line2d_11">
      <g>
       <use xlink:href="#m1ce4aaa454" x="263.401018" y="314.12125" style="stroke: #000000; stroke-width: 0.8"/>
      </g>
     </g>
     <g id="text_11">
      <!-- 2008 -->
      <g transform="translate(247.746336 340.173358) rotate(-45) scale(0.1 -0.1)">
       <use xlink:href="#TimesNewRomanPSMT-32"/>
       <use xlink:href="#TimesNewRomanPSMT-30" transform="translate(50 0)"/>
       <use xlink:href="#TimesNewRomanPSMT-30" transform="translate(100 0)"/>
       <use xlink:href="#TimesNewRomanPSMT-38" transform="translate(150 0)"/>
      </g>
     </g>
    </g>
    <g id="xtick_12">
     <g id="line2d_12">
      <g>
       <use xlink:href="#m1ce4aaa454" x="286.964654" y="314.12125" style="stroke: #000000; stroke-width: 0.8"/>
      </g>
     </g>
     <g id="text_12">
      <!-- 2009 -->
      <g transform="translate(271.309973 340.173358) rotate(-45) scale(0.1 -0.1)">
       <use xlink:href="#TimesNewRomanPSMT-32"/>
       <use xlink:href="#TimesNewRomanPSMT-30" transform="translate(50 0)"/>
       <use xlink:href="#TimesNewRomanPSMT-30" transform="translate(100 0)"/>
       <use xlink:href="#TimesNewRomanPSMT-39" transform="translate(150 0)"/>
      </g>
     </g>
    </g>
    <g id="xtick_13">
     <g id="line2d_13">
      <g>
       <use xlink:href="#m1ce4aaa454" x="310.52829" y="314.12125" style="stroke: #000000; stroke-width: 0.8"/>
      </g>
     </g>
     <g id="text_13">
      <!-- 2010 -->
      <g transform="translate(294.873609 340.173358) rotate(-45) scale(0.1 -0.1)">
       <use xlink:href="#TimesNewRomanPSMT-32"/>
       <use xlink:href="#TimesNewRomanPSMT-30" transform="translate(50 0)"/>
       <use xlink:href="#TimesNewRomanPSMT-31" transform="translate(100 0)"/>
       <use xlink:href="#TimesNewRomanPSMT-30" transform="translate(150 0)"/>
      </g>
     </g>
    </g>
    <g id="xtick_14">
     <g id="line2d_14">
      <g>
       <use xlink:href="#m1ce4aaa454" x="334.091927" y="314.12125" style="stroke: #000000; stroke-width: 0.8"/>
      </g>
     </g>
     <g id="text_14">
      <!-- 2011 -->
      <g transform="translate(318.70241 339.908193) rotate(-45) scale(0.1 -0.1)">
       <use xlink:href="#TimesNewRomanPSMT-32"/>
       <use xlink:href="#TimesNewRomanPSMT-30" transform="translate(50 0)"/>
       <use xlink:href="#TimesNewRomanPSMT-31" transform="translate(100 0)"/>
       <use xlink:href="#TimesNewRomanPSMT-31" transform="translate(146.25 0)"/>
      </g>
     </g>
    </g>
    <g id="xtick_15">
     <g id="line2d_15">
      <g>
       <use xlink:href="#m1ce4aaa454" x="357.655563" y="314.12125" style="stroke: #000000; stroke-width: 0.8"/>
      </g>
     </g>
     <g id="text_15">
      <!-- 2012 -->
      <g transform="translate(342.000882 340.173358) rotate(-45) scale(0.1 -0.1)">
       <use xlink:href="#TimesNewRomanPSMT-32"/>
       <use xlink:href="#TimesNewRomanPSMT-30" transform="translate(50 0)"/>
       <use xlink:href="#TimesNewRomanPSMT-31" transform="translate(100 0)"/>
       <use xlink:href="#TimesNewRomanPSMT-32" transform="translate(150 0)"/>
      </g>
     </g>
    </g>
    <g id="xtick_16">
     <g id="line2d_16">
      <g>
       <use xlink:href="#m1ce4aaa454" x="381.219199" y="314.12125" style="stroke: #000000; stroke-width: 0.8"/>
      </g>
     </g>
     <g id="text_16">
      <!-- 2013 -->
      <g transform="translate(365.564518 340.173358) rotate(-45) scale(0.1 -0.1)">
       <use xlink:href="#TimesNewRomanPSMT-32"/>
       <use xlink:href="#TimesNewRomanPSMT-30" transform="translate(50 0)"/>
       <use xlink:href="#TimesNewRomanPSMT-31" transform="translate(100 0)"/>
       <use xlink:href="#TimesNewRomanPSMT-33" transform="translate(150 0)"/>
      </g>
     </g>
    </g>
    <g id="text_17">
     <!-- Year -->
     <g transform="translate(193.434114 354.018404) scale(0.12 -0.12)">
      <defs>
       <path id="TimesNewRomanPSMT-59" d="M 3050 4238 
L 4528 4238 
L 4528 4122 
L 4447 4122 
Q 4366 4122 4209 4050 
Q 4053 3978 3925 3843 
Q 3797 3709 3609 3406 
L 2588 1797 
L 2588 734 
Q 2588 344 2675 247 
Q 2794 116 3050 116 
L 3188 116 
L 3188 0 
L 1388 0 
L 1388 116 
L 1538 116 
Q 1806 116 1919 278 
Q 1988 378 1988 734 
L 1988 1738 
L 825 3513 
Q 619 3825 545 3903 
Q 472 3981 241 4091 
Q 178 4122 59 4122 
L 59 4238 
L 1872 4238 
L 1872 4122 
L 1778 4122 
Q 1631 4122 1507 4053 
Q 1384 3984 1384 3847 
Q 1384 3734 1575 3441 
L 2459 2075 
L 3291 3381 
Q 3478 3675 3478 3819 
Q 3478 3906 3433 3975 
Q 3388 4044 3303 4083 
Q 3219 4122 3050 4122 
L 3050 4238 
z
" transform="scale(0.015625)"/>
       <path id="TimesNewRomanPSMT-65" d="M 681 1784 
Q 678 1147 991 784 
Q 1303 422 1725 422 
Q 2006 422 2214 576 
Q 2422 731 2563 1106 
L 2659 1044 
Q 2594 616 2278 264 
Q 1963 -88 1488 -88 
Q 972 -88 605 314 
Q 238 716 238 1394 
Q 238 2128 614 2539 
Q 991 2950 1559 2950 
Q 2041 2950 2350 2633 
Q 2659 2316 2659 1784 
L 681 1784 
z
M 681 1966 
L 2006 1966 
Q 1991 2241 1941 2353 
Q 1863 2528 1708 2628 
Q 1553 2728 1384 2728 
Q 1125 2728 920 2526 
Q 716 2325 681 1966 
z
" transform="scale(0.015625)"/>
       <path id="TimesNewRomanPSMT-61" d="M 1822 413 
Q 1381 72 1269 19 
Q 1100 -59 909 -59 
Q 613 -59 420 144 
Q 228 347 228 678 
Q 228 888 322 1041 
Q 450 1253 767 1440 
Q 1084 1628 1822 1897 
L 1822 2009 
Q 1822 2438 1686 2597 
Q 1550 2756 1291 2756 
Q 1094 2756 978 2650 
Q 859 2544 859 2406 
L 866 2225 
Q 866 2081 792 2003 
Q 719 1925 600 1925 
Q 484 1925 411 2006 
Q 338 2088 338 2228 
Q 338 2497 613 2722 
Q 888 2947 1384 2947 
Q 1766 2947 2009 2819 
Q 2194 2722 2281 2516 
Q 2338 2381 2338 1966 
L 2338 994 
Q 2338 584 2353 492 
Q 2369 400 2405 369 
Q 2441 338 2488 338 
Q 2538 338 2575 359 
Q 2641 400 2828 588 
L 2828 413 
Q 2478 -56 2159 -56 
Q 2006 -56 1915 50 
Q 1825 156 1822 413 
z
M 1822 616 
L 1822 1706 
Q 1350 1519 1213 1441 
Q 966 1303 859 1153 
Q 753 1003 753 825 
Q 753 600 887 451 
Q 1022 303 1197 303 
Q 1434 303 1822 616 
z
" transform="scale(0.015625)"/>
       <path id="TimesNewRomanPSMT-72" d="M 1038 2947 
L 1038 2303 
Q 1397 2947 1775 2947 
Q 1947 2947 2059 2842 
Q 2172 2738 2172 2600 
Q 2172 2478 2090 2393 
Q 2009 2309 1897 2309 
Q 1788 2309 1652 2417 
Q 1516 2525 1450 2525 
Q 1394 2525 1328 2463 
Q 1188 2334 1038 2041 
L 1038 669 
Q 1038 431 1097 309 
Q 1138 225 1241 169 
Q 1344 113 1538 113 
L 1538 0 
L 72 0 
L 72 113 
Q 291 113 397 181 
Q 475 231 506 341 
Q 522 394 522 644 
L 522 1753 
Q 522 2253 501 2348 
Q 481 2444 426 2487 
Q 372 2531 291 2531 
Q 194 2531 72 2484 
L 41 2597 
L 906 2947 
L 1038 2947 
z
" transform="scale(0.015625)"/>
      </defs>
      <use xlink:href="#TimesNewRomanPSMT-59"/>
      <use xlink:href="#TimesNewRomanPSMT-65" transform="translate(62.216797 0)"/>
      <use xlink:href="#TimesNewRomanPSMT-61" transform="translate(106.601562 0)"/>
      <use xlink:href="#TimesNewRomanPSMT-72" transform="translate(150.986328 0)"/>
     </g>
    </g>
   </g>
   <g id="patch_3">
    <path d="M 10.091927 314.12125 
L 10.091927 36.92125 
" style="fill: none; stroke: #000000; stroke-width: 0.8; stroke-linejoin: miter; stroke-linecap: square"/>
   </g>
   <g id="patch_4">
    <path d="M 398.891927 314.12125 
L 398.891927 36.92125 
" style="fill: none; stroke: #000000; stroke-width: 0.8; stroke-linejoin: miter; stroke-linecap: square"/>
   </g>
   <g id="patch_5">
    <path d="M 10.091927 314.12125 
L 398.891927 314.12125 
" style="fill: none; stroke: #000000; stroke-width: 0.8; stroke-linejoin: miter; stroke-linecap: square"/>
   </g>
   <g id="patch_6">
    <path d="M 10.091927 36.92125 
L 398.891927 36.92125 
" style="fill: none; stroke: #000000; stroke-width: 0.8; stroke-linejoin: miter; stroke-linecap: square"/>
   </g>
   <g id="text_18">
    <!-- Inventory Turnover from 1998 to 2013 (times/year)  -->
    <g transform="translate(58.482864 16.92125) scale(0.14 -0.14)">
     <defs>
      <path id="TimesNewRomanPSMT-49" d="M 1975 116 
L 1975 0 
L 159 0 
L 159 116 
L 309 116 
Q 572 116 691 269 
Q 766 369 766 750 
L 766 3488 
Q 766 3809 725 3913 
Q 694 3991 597 4047 
Q 459 4122 309 4122 
L 159 4122 
L 159 4238 
L 1975 4238 
L 1975 4122 
L 1822 4122 
Q 1563 4122 1444 3969 
Q 1366 3869 1366 3488 
L 1366 750 
Q 1366 428 1406 325 
Q 1438 247 1538 191 
Q 1672 116 1822 116 
L 1975 116 
z
" transform="scale(0.015625)"/>
      <path id="TimesNewRomanPSMT-6e" d="M 1034 2341 
Q 1538 2947 1994 2947 
Q 2228 2947 2397 2830 
Q 2566 2713 2666 2444 
Q 2734 2256 2734 1869 
L 2734 647 
Q 2734 375 2778 278 
Q 2813 200 2889 156 
Q 2966 113 3172 113 
L 3172 0 
L 1756 0 
L 1756 113 
L 1816 113 
Q 2016 113 2095 173 
Q 2175 234 2206 353 
Q 2219 400 2219 647 
L 2219 1819 
Q 2219 2209 2117 2386 
Q 2016 2563 1775 2563 
Q 1403 2563 1034 2156 
L 1034 647 
Q 1034 356 1069 288 
Q 1113 197 1189 155 
Q 1266 113 1500 113 
L 1500 0 
L 84 0 
L 84 113 
L 147 113 
Q 366 113 442 223 
Q 519 334 519 647 
L 519 1709 
Q 519 2225 495 2337 
Q 472 2450 423 2490 
Q 375 2531 294 2531 
Q 206 2531 84 2484 
L 38 2597 
L 900 2947 
L 1034 2947 
L 1034 2341 
z
" transform="scale(0.015625)"/>
      <path id="TimesNewRomanPSMT-76" d="M 53 2863 
L 1400 2863 
L 1400 2747 
L 1313 2747 
Q 1191 2747 1127 2687 
Q 1063 2628 1063 2528 
Q 1063 2419 1128 2269 
L 1794 688 
L 2463 2328 
Q 2534 2503 2534 2594 
Q 2534 2638 2509 2666 
Q 2475 2713 2422 2730 
Q 2369 2747 2206 2747 
L 2206 2863 
L 3141 2863 
L 3141 2747 
Q 2978 2734 2916 2681 
Q 2806 2588 2719 2369 
L 1703 -88 
L 1575 -88 
L 553 2328 
Q 484 2497 421 2570 
Q 359 2644 263 2694 
Q 209 2722 53 2747 
L 53 2863 
z
" transform="scale(0.015625)"/>
      <path id="TimesNewRomanPSMT-74" d="M 1031 3803 
L 1031 2863 
L 1700 2863 
L 1700 2644 
L 1031 2644 
L 1031 788 
Q 1031 509 1111 412 
Q 1191 316 1316 316 
Q 1419 316 1516 380 
Q 1613 444 1666 569 
L 1788 569 
Q 1678 263 1478 108 
Q 1278 -47 1066 -47 
Q 922 -47 784 33 
Q 647 113 581 261 
Q 516 409 516 719 
L 516 2644 
L 63 2644 
L 63 2747 
Q 234 2816 414 2980 
Q 594 3144 734 3369 
Q 806 3488 934 3803 
L 1031 3803 
z
" transform="scale(0.015625)"/>
      <path id="TimesNewRomanPSMT-6f" d="M 1600 2947 
Q 2250 2947 2644 2453 
Q 2978 2031 2978 1484 
Q 2978 1100 2793 706 
Q 2609 313 2286 112 
Q 1963 -88 1566 -88 
Q 919 -88 538 428 
Q 216 863 216 1403 
Q 216 1797 411 2186 
Q 606 2575 925 2761 
Q 1244 2947 1600 2947 
z
M 1503 2744 
Q 1338 2744 1170 2645 
Q 1003 2547 900 2300 
Q 797 2053 797 1666 
Q 797 1041 1045 587 
Q 1294 134 1700 134 
Q 2003 134 2200 384 
Q 2397 634 2397 1244 
Q 2397 2006 2069 2444 
Q 1847 2744 1503 2744 
z
" transform="scale(0.015625)"/>
      <path id="TimesNewRomanPSMT-79" d="M 38 2863 
L 1372 2863 
L 1372 2747 
L 1306 2747 
Q 1166 2747 1095 2686 
Q 1025 2625 1025 2534 
Q 1025 2413 1128 2197 
L 1825 753 
L 2466 2334 
Q 2519 2463 2519 2588 
Q 2519 2644 2497 2672 
Q 2472 2706 2419 2726 
Q 2366 2747 2231 2747 
L 2231 2863 
L 3163 2863 
L 3163 2747 
Q 3047 2734 2984 2696 
Q 2922 2659 2847 2556 
Q 2819 2513 2741 2316 
L 1575 -541 
Q 1406 -956 1132 -1168 
Q 859 -1381 606 -1381 
Q 422 -1381 303 -1275 
Q 184 -1169 184 -1031 
Q 184 -900 270 -820 
Q 356 -741 506 -741 
Q 609 -741 788 -809 
Q 913 -856 944 -856 
Q 1038 -856 1148 -759 
Q 1259 -663 1372 -384 
L 1575 113 
L 547 2272 
Q 500 2369 397 2513 
Q 319 2622 269 2659 
Q 197 2709 38 2747 
L 38 2863 
z
" transform="scale(0.015625)"/>
      <path id="TimesNewRomanPSMT-20" transform="scale(0.015625)"/>
      <path id="TimesNewRomanPSMT-54" d="M 3703 4238 
L 3750 3244 
L 3631 3244 
Q 3597 3506 3538 3619 
Q 3441 3800 3280 3886 
Q 3119 3972 2856 3972 
L 2259 3972 
L 2259 734 
Q 2259 344 2344 247 
Q 2463 116 2709 116 
L 2856 116 
L 2856 0 
L 1059 0 
L 1059 116 
L 1209 116 
Q 1478 116 1591 278 
Q 1659 378 1659 734 
L 1659 3972 
L 1150 3972 
Q 853 3972 728 3928 
Q 566 3869 450 3700 
Q 334 3531 313 3244 
L 194 3244 
L 244 4238 
L 3703 4238 
z
" transform="scale(0.015625)"/>
      <path id="TimesNewRomanPSMT-75" d="M 2709 2863 
L 2709 1128 
Q 2709 631 2732 520 
Q 2756 409 2807 365 
Q 2859 322 2928 322 
Q 3025 322 3147 375 
L 3191 266 
L 2334 -88 
L 2194 -88 
L 2194 519 
Q 1825 119 1631 15 
Q 1438 -88 1222 -88 
Q 981 -88 804 51 
Q 628 191 559 409 
Q 491 628 491 1028 
L 491 2306 
Q 491 2509 447 2587 
Q 403 2666 317 2708 
Q 231 2750 6 2747 
L 6 2863 
L 1009 2863 
L 1009 947 
Q 1009 547 1148 422 
Q 1288 297 1484 297 
Q 1619 297 1789 381 
Q 1959 466 2194 703 
L 2194 2325 
Q 2194 2569 2105 2655 
Q 2016 2741 1734 2747 
L 1734 2863 
L 2709 2863 
z
" transform="scale(0.015625)"/>
      <path id="TimesNewRomanPSMT-66" d="M 1319 2638 
L 1319 756 
Q 1319 356 1406 250 
Q 1522 113 1716 113 
L 1975 113 
L 1975 0 
L 266 0 
L 266 113 
L 394 113 
Q 519 113 622 175 
Q 725 238 764 344 
Q 803 450 803 756 
L 803 2638 
L 247 2638 
L 247 2863 
L 803 2863 
L 803 3050 
Q 803 3478 940 3775 
Q 1078 4072 1361 4255 
Q 1644 4438 1997 4438 
Q 2325 4438 2600 4225 
Q 2781 4084 2781 3909 
Q 2781 3816 2700 3733 
Q 2619 3650 2525 3650 
Q 2453 3650 2373 3701 
Q 2294 3753 2178 3923 
Q 2063 4094 1966 4153 
Q 1869 4213 1750 4213 
Q 1606 4213 1506 4136 
Q 1406 4059 1362 3898 
Q 1319 3738 1319 3069 
L 1319 2863 
L 2056 2863 
L 2056 2638 
L 1319 2638 
z
" transform="scale(0.015625)"/>
      <path id="TimesNewRomanPSMT-6d" d="M 1050 2338 
Q 1363 2650 1419 2697 
Q 1559 2816 1721 2881 
Q 1884 2947 2044 2947 
Q 2313 2947 2506 2790 
Q 2700 2634 2766 2338 
Q 3088 2713 3309 2830 
Q 3531 2947 3766 2947 
Q 3994 2947 4170 2830 
Q 4347 2713 4450 2447 
Q 4519 2266 4519 1878 
L 4519 647 
Q 4519 378 4559 278 
Q 4591 209 4675 161 
Q 4759 113 4950 113 
L 4950 0 
L 3538 0 
L 3538 113 
L 3597 113 
Q 3781 113 3884 184 
Q 3956 234 3988 344 
Q 4000 397 4000 647 
L 4000 1878 
Q 4000 2228 3916 2372 
Q 3794 2572 3525 2572 
Q 3359 2572 3192 2489 
Q 3025 2406 2788 2181 
L 2781 2147 
L 2788 2013 
L 2788 647 
Q 2788 353 2820 281 
Q 2853 209 2943 161 
Q 3034 113 3253 113 
L 3253 0 
L 1806 0 
L 1806 113 
Q 2044 113 2133 169 
Q 2222 225 2256 338 
Q 2272 391 2272 647 
L 2272 1878 
Q 2272 2228 2169 2381 
Q 2031 2581 1784 2581 
Q 1616 2581 1450 2491 
Q 1191 2353 1050 2181 
L 1050 647 
Q 1050 366 1089 281 
Q 1128 197 1204 155 
Q 1281 113 1516 113 
L 1516 0 
L 100 0 
L 100 113 
Q 297 113 375 155 
Q 453 197 493 289 
Q 534 381 534 647 
L 534 1741 
Q 534 2213 506 2350 
Q 484 2453 437 2492 
Q 391 2531 309 2531 
Q 222 2531 100 2484 
L 53 2597 
L 916 2947 
L 1050 2947 
L 1050 2338 
z
" transform="scale(0.015625)"/>
      <path id="TimesNewRomanPSMT-28" d="M 1988 -1253 
L 1988 -1369 
Q 1516 -1131 1200 -813 
Q 750 -359 506 256 
Q 263 872 263 1534 
Q 263 2503 741 3301 
Q 1219 4100 1988 4444 
L 1988 4313 
Q 1603 4100 1356 3731 
Q 1109 3363 987 2797 
Q 866 2231 866 1616 
Q 866 947 969 400 
Q 1050 -31 1165 -292 
Q 1281 -553 1476 -793 
Q 1672 -1034 1988 -1253 
z
" transform="scale(0.015625)"/>
      <path id="TimesNewRomanPSMT-69" d="M 928 4444 
Q 1059 4444 1151 4351 
Q 1244 4259 1244 4128 
Q 1244 3997 1151 3903 
Q 1059 3809 928 3809 
Q 797 3809 703 3903 
Q 609 3997 609 4128 
Q 609 4259 701 4351 
Q 794 4444 928 4444 
z
M 1188 2947 
L 1188 647 
Q 1188 378 1227 289 
Q 1266 200 1342 156 
Q 1419 113 1622 113 
L 1622 0 
L 231 0 
L 231 113 
Q 441 113 512 153 
Q 584 194 626 287 
Q 669 381 669 647 
L 669 1750 
Q 669 2216 641 2353 
Q 619 2453 572 2492 
Q 525 2531 444 2531 
Q 356 2531 231 2484 
L 188 2597 
L 1050 2947 
L 1188 2947 
z
" transform="scale(0.015625)"/>
      <path id="TimesNewRomanPSMT-73" d="M 2050 2947 
L 2050 1972 
L 1947 1972 
Q 1828 2431 1642 2597 
Q 1456 2763 1169 2763 
Q 950 2763 815 2647 
Q 681 2531 681 2391 
Q 681 2216 781 2091 
Q 878 1963 1175 1819 
L 1631 1597 
Q 2266 1288 2266 781 
Q 2266 391 1970 151 
Q 1675 -88 1309 -88 
Q 1047 -88 709 6 
Q 606 38 541 38 
Q 469 38 428 -44 
L 325 -44 
L 325 978 
L 428 978 
Q 516 541 762 319 
Q 1009 97 1316 97 
Q 1531 97 1667 223 
Q 1803 350 1803 528 
Q 1803 744 1651 891 
Q 1500 1038 1047 1263 
Q 594 1488 453 1669 
Q 313 1847 313 2119 
Q 313 2472 555 2709 
Q 797 2947 1181 2947 
Q 1350 2947 1591 2875 
Q 1750 2828 1803 2828 
Q 1853 2828 1881 2850 
Q 1909 2872 1947 2947 
L 2050 2947 
z
" transform="scale(0.015625)"/>
      <path id="TimesNewRomanPSMT-2f" d="M 1794 4444 
L 259 -88 
L 9 -88 
L 1544 4444 
L 1794 4444 
z
" transform="scale(0.015625)"/>
      <path id="TimesNewRomanPSMT-29" d="M 144 4313 
L 144 4444 
Q 619 4209 934 3891 
Q 1381 3434 1625 2820 
Q 1869 2206 1869 1541 
Q 1869 572 1392 -226 
Q 916 -1025 144 -1369 
L 144 -1253 
Q 528 -1038 776 -670 
Q 1025 -303 1145 264 
Q 1266 831 1266 1447 
Q 1266 2113 1163 2663 
Q 1084 3094 967 3353 
Q 850 3613 656 3853 
Q 463 4094 144 4313 
z
" transform="scale(0.015625)"/>
     </defs>
     <use xlink:href="#TimesNewRomanPSMT-49"/>
     <use xlink:href="#TimesNewRomanPSMT-6e" transform="translate(33.300781 0)"/>
     <use xlink:href="#TimesNewRomanPSMT-76" transform="translate(83.300781 0)"/>
     <use xlink:href="#TimesNewRomanPSMT-65" transform="translate(133.300781 0)"/>
     <use xlink:href="#TimesNewRomanPSMT-6e" transform="translate(177.685547 0)"/>
     <use xlink:href="#TimesNewRomanPSMT-74" transform="translate(227.685547 0)"/>
     <use xlink:href="#TimesNewRomanPSMT-6f" transform="translate(255.46875 0)"/>
     <use xlink:href="#TimesNewRomanPSMT-72" transform="translate(305.46875 0)"/>
     <use xlink:href="#TimesNewRomanPSMT-79" transform="translate(338.769531 0)"/>
     <use xlink:href="#TimesNewRomanPSMT-20" transform="translate(388.769531 0)"/>
     <use xlink:href="#TimesNewRomanPSMT-54" transform="translate(412.019531 0)"/>
     <use xlink:href="#TimesNewRomanPSMT-75" transform="translate(469.603516 0)"/>
     <use xlink:href="#TimesNewRomanPSMT-72" transform="translate(519.603516 0)"/>
     <use xlink:href="#TimesNewRomanPSMT-6e" transform="translate(552.904297 0)"/>
     <use xlink:href="#TimesNewRomanPSMT-6f" transform="translate(602.904297 0)"/>
     <use xlink:href="#TimesNewRomanPSMT-76" transform="translate(652.904297 0)"/>
     <use xlink:href="#TimesNewRomanPSMT-65" transform="translate(702.904297 0)"/>
     <use xlink:href="#TimesNewRomanPSMT-72" transform="translate(747.289062 0)"/>
     <use xlink:href="#TimesNewRomanPSMT-20" transform="translate(780.589844 0)"/>
     <use xlink:href="#TimesNewRomanPSMT-66" transform="translate(805.589844 0)"/>
     <use xlink:href="#TimesNewRomanPSMT-72" transform="translate(838.890625 0)"/>
     <use xlink:href="#TimesNewRomanPSMT-6f" transform="translate(872.191406 0)"/>
     <use xlink:href="#TimesNewRomanPSMT-6d" transform="translate(922.191406 0)"/>
     <use xlink:href="#TimesNewRomanPSMT-20" transform="translate(999.974609 0)"/>
     <use xlink:href="#TimesNewRomanPSMT-31" transform="translate(1024.974609 0)"/>
     <use xlink:href="#TimesNewRomanPSMT-39" transform="translate(1074.974609 0)"/>
     <use xlink:href="#TimesNewRomanPSMT-39" transform="translate(1124.974609 0)"/>
     <use xlink:href="#TimesNewRomanPSMT-38" transform="translate(1174.974609 0)"/>
     <use xlink:href="#TimesNewRomanPSMT-20" transform="translate(1224.974609 0)"/>
     <use xlink:href="#TimesNewRomanPSMT-74" transform="translate(1249.974609 0)"/>
     <use xlink:href="#TimesNewRomanPSMT-6f" transform="translate(1277.757812 0)"/>
     <use xlink:href="#TimesNewRomanPSMT-20" transform="translate(1327.757812 0)"/>
     <use xlink:href="#TimesNewRomanPSMT-32" transform="translate(1352.757812 0)"/>
     <use xlink:href="#TimesNewRomanPSMT-30" transform="translate(1402.757812 0)"/>
     <use xlink:href="#TimesNewRomanPSMT-31" transform="translate(1452.757812 0)"/>
     <use xlink:href="#TimesNewRomanPSMT-33" transform="translate(1502.757812 0)"/>
     <use xlink:href="#TimesNewRomanPSMT-20" transform="translate(1552.757812 0)"/>
     <use xlink:href="#TimesNewRomanPSMT-28" transform="translate(1577.757812 0)"/>
     <use xlink:href="#TimesNewRomanPSMT-74" transform="translate(1611.058594 0)"/>
     <use xlink:href="#TimesNewRomanPSMT-69" transform="translate(1638.841797 0)"/>
     <use xlink:href="#TimesNewRomanPSMT-6d" transform="translate(1666.625 0)"/>
     <use xlink:href="#TimesNewRomanPSMT-65" transform="translate(1744.408203 0)"/>
     <use xlink:href="#TimesNewRomanPSMT-73" transform="translate(1788.792969 0)"/>
     <use xlink:href="#TimesNewRomanPSMT-2f" transform="translate(1827.708984 0)"/>
     <use xlink:href="#TimesNewRomanPSMT-79" transform="translate(1855.492188 0)"/>
     <use xlink:href="#TimesNewRomanPSMT-65" transform="translate(1905.492188 0)"/>
     <use xlink:href="#TimesNewRomanPSMT-61" transform="translate(1949.876953 0)"/>
     <use xlink:href="#TimesNewRomanPSMT-72" transform="translate(1994.261719 0)"/>
     <use xlink:href="#TimesNewRomanPSMT-29" transform="translate(2027.5625 0)"/>
     <use xlink:href="#TimesNewRomanPSMT-20" transform="translate(2060.863281 0)"/>
    </g>
   </g>
   <g id="legend_1">
    <g id="patch_7">
     <path d="M 415.667927 156.743125 
L 435.667927 156.743125 
L 435.667927 149.743125 
L 415.667927 149.743125 
z
" style="fill: #1f77b4"/>
    </g>
    <g id="text_19">
     <!-- QuickDeliver Hubs -->
     <g transform="translate(443.667927 156.743125) scale(0.1 -0.1)">
      <defs>
       <path id="TimesNewRomanPSMT-51" d="M 2819 -47 
Q 3138 -597 3508 -856 
Q 3878 -1116 4350 -1153 
L 4350 -1253 
Q 3919 -1238 3428 -1080 
Q 2938 -922 2498 -642 
Q 2059 -363 1741 -47 
Q 1291 134 1028 338 
Q 647 641 436 1083 
Q 225 1525 225 2128 
Q 225 3078 840 3706 
Q 1456 4334 2331 4334 
Q 3163 4334 3770 3704 
Q 4378 3075 4378 2116 
Q 4378 1338 3945 750 
Q 3513 163 2819 -47 
z
M 2294 4094 
Q 1725 4094 1378 3688 
Q 941 3178 941 2128 
Q 941 1100 1384 544 
Q 1728 116 2294 116 
Q 2881 116 3241 544 
Q 3663 1050 3663 2038 
Q 3663 2797 3431 3316 
Q 3253 3716 2958 3905 
Q 2663 4094 2294 4094 
z
" transform="scale(0.015625)"/>
       <path id="TimesNewRomanPSMT-63" d="M 2631 1088 
Q 2516 522 2178 217 
Q 1841 -88 1431 -88 
Q 944 -88 581 321 
Q 219 731 219 1428 
Q 219 2103 620 2525 
Q 1022 2947 1584 2947 
Q 2006 2947 2278 2723 
Q 2550 2500 2550 2259 
Q 2550 2141 2473 2067 
Q 2397 1994 2259 1994 
Q 2075 1994 1981 2113 
Q 1928 2178 1911 2362 
Q 1894 2547 1784 2644 
Q 1675 2738 1481 2738 
Q 1169 2738 978 2506 
Q 725 2200 725 1697 
Q 725 1184 976 792 
Q 1228 400 1656 400 
Q 1963 400 2206 609 
Q 2378 753 2541 1131 
L 2631 1088 
z
" transform="scale(0.015625)"/>
       <path id="TimesNewRomanPSMT-6b" d="M 1047 4444 
L 1047 1597 
L 1775 2259 
Q 2006 2472 2044 2528 
Q 2069 2566 2069 2603 
Q 2069 2666 2017 2711 
Q 1966 2756 1847 2763 
L 1847 2863 
L 3091 2863 
L 3091 2763 
Q 2834 2756 2664 2684 
Q 2494 2613 2291 2428 
L 1556 1750 
L 2291 822 
Q 2597 438 2703 334 
Q 2853 188 2966 144 
Q 3044 113 3238 113 
L 3238 0 
L 1847 0 
L 1847 113 
Q 1966 116 2008 148 
Q 2050 181 2050 241 
Q 2050 313 1925 472 
L 1047 1594 
L 1047 644 
Q 1047 366 1086 278 
Q 1125 191 1197 153 
Q 1269 116 1509 113 
L 1509 0 
L 53 0 
L 53 113 
Q 272 113 381 166 
Q 447 200 481 272 
Q 528 375 528 628 
L 528 3234 
Q 528 3731 506 3842 
Q 484 3953 434 3995 
Q 384 4038 303 4038 
Q 238 4038 106 3984 
L 53 4094 
L 903 4444 
L 1047 4444 
z
" transform="scale(0.015625)"/>
       <path id="TimesNewRomanPSMT-44" d="M 109 0 
L 109 116 
L 269 116 
Q 538 116 650 288 
Q 719 391 719 750 
L 719 3488 
Q 719 3884 631 3984 
Q 509 4122 269 4122 
L 109 4122 
L 109 4238 
L 1834 4238 
Q 2784 4238 3279 4022 
Q 3775 3806 4076 3303 
Q 4378 2800 4378 2141 
Q 4378 1256 3841 663 
Q 3238 0 2003 0 
L 109 0 
z
M 1319 306 
Q 1716 219 1984 219 
Q 2709 219 3187 728 
Q 3666 1238 3666 2109 
Q 3666 2988 3187 3494 
Q 2709 4000 1959 4000 
Q 1678 4000 1319 3909 
L 1319 306 
z
" transform="scale(0.015625)"/>
       <path id="TimesNewRomanPSMT-6c" d="M 1184 4444 
L 1184 647 
Q 1184 378 1223 290 
Q 1263 203 1344 158 
Q 1425 113 1647 113 
L 1647 0 
L 244 0 
L 244 113 
Q 441 113 512 153 
Q 584 194 625 287 
Q 666 381 666 647 
L 666 3247 
Q 666 3731 644 3842 
Q 622 3953 573 3993 
Q 525 4034 450 4034 
Q 369 4034 244 3984 
L 191 4094 
L 1044 4444 
L 1184 4444 
z
" transform="scale(0.015625)"/>
       <path id="TimesNewRomanPSMT-48" d="M 1316 2272 
L 3284 2272 
L 3284 3484 
Q 3284 3809 3244 3913 
Q 3213 3991 3113 4047 
Q 2978 4122 2828 4122 
L 2678 4122 
L 2678 4238 
L 4491 4238 
L 4491 4122 
L 4341 4122 
Q 4191 4122 4056 4050 
Q 3956 4000 3920 3898 
Q 3884 3797 3884 3484 
L 3884 750 
Q 3884 428 3925 325 
Q 3956 247 4053 191 
Q 4191 116 4341 116 
L 4491 116 
L 4491 0 
L 2678 0 
L 2678 116 
L 2828 116 
Q 3088 116 3206 269 
Q 3284 369 3284 750 
L 3284 2041 
L 1316 2041 
L 1316 750 
Q 1316 428 1356 325 
Q 1388 247 1488 191 
Q 1622 116 1772 116 
L 1925 116 
L 1925 0 
L 109 0 
L 109 116 
L 259 116 
Q 522 116 641 269 
Q 716 369 716 750 
L 716 3484 
Q 716 3809 675 3913 
Q 644 3991 547 4047 
Q 409 4122 259 4122 
L 109 4122 
L 109 4238 
L 1925 4238 
L 1925 4122 
L 1772 4122 
Q 1622 4122 1488 4050 
Q 1391 4000 1353 3898 
Q 1316 3797 1316 3484 
L 1316 2272 
z
" transform="scale(0.015625)"/>
       <path id="TimesNewRomanPSMT-62" d="M 984 2369 
Q 1400 2947 1881 2947 
Q 2322 2947 2650 2570 
Q 2978 2194 2978 1541 
Q 2978 778 2472 313 
Q 2038 -88 1503 -88 
Q 1253 -88 995 3 
Q 738 94 469 275 
L 469 3241 
Q 469 3728 445 3840 
Q 422 3953 372 3993 
Q 322 4034 247 4034 
Q 159 4034 28 3984 
L -16 4094 
L 844 4444 
L 984 4444 
L 984 2369 
z
M 984 2169 
L 984 456 
Q 1144 300 1314 220 
Q 1484 141 1663 141 
Q 1947 141 2192 453 
Q 2438 766 2438 1363 
Q 2438 1913 2192 2208 
Q 1947 2503 1634 2503 
Q 1469 2503 1303 2419 
Q 1178 2356 984 2169 
z
" transform="scale(0.015625)"/>
      </defs>
      <use xlink:href="#TimesNewRomanPSMT-51"/>
      <use xlink:href="#TimesNewRomanPSMT-75" transform="translate(72.216797 0)"/>
      <use xlink:href="#TimesNewRomanPSMT-69" transform="translate(122.216797 0)"/>
      <use xlink:href="#TimesNewRomanPSMT-63" transform="translate(150 0)"/>
      <use xlink:href="#TimesNewRomanPSMT-6b" transform="translate(194.384766 0)"/>
      <use xlink:href="#TimesNewRomanPSMT-44" transform="translate(244.384766 0)"/>
      <use xlink:href="#TimesNewRomanPSMT-65" transform="translate(316.601562 0)"/>
      <use xlink:href="#TimesNewRomanPSMT-6c" transform="translate(360.986328 0)"/>
      <use xlink:href="#TimesNewRomanPSMT-69" transform="translate(388.769531 0)"/>
      <use xlink:href="#TimesNewRomanPSMT-76" transform="translate(416.552734 0)"/>
      <use xlink:href="#TimesNewRomanPSMT-65" transform="translate(466.552734 0)"/>
      <use xlink:href="#TimesNewRomanPSMT-72" transform="translate(510.9375 0)"/>
      <use xlink:href="#TimesNewRomanPSMT-20" transform="translate(544.238281 0)"/>
      <use xlink:href="#TimesNewRomanPSMT-48" transform="translate(569.238281 0)"/>
      <use xlink:href="#TimesNewRomanPSMT-75" transform="translate(641.455078 0)"/>
      <use xlink:href="#TimesNewRomanPSMT-62" transform="translate(691.455078 0)"/>
      <use xlink:href="#TimesNewRomanPSMT-73" transform="translate(741.455078 0)"/>
     </g>
    </g>
    <g id="patch_8">
     <path d="M 415.667927 170.882187 
L 435.667927 170.882187 
L 435.667927 163.882187 
L 415.667927 163.882187 
z
" style="fill: #aec7e8"/>
    </g>
    <g id="text_20">
     <!-- Bulk Goods Centers -->
     <g transform="translate(443.667927 170.882187) scale(0.1 -0.1)">
      <defs>
       <path id="TimesNewRomanPSMT-42" d="M 2956 2163 
Q 3397 2069 3616 1863 
Q 3919 1575 3919 1159 
Q 3919 844 3719 555 
Q 3519 266 3170 133 
Q 2822 0 2106 0 
L 106 0 
L 106 116 
L 266 116 
Q 531 116 647 284 
Q 719 394 719 750 
L 719 3488 
Q 719 3881 628 3984 
Q 506 4122 266 4122 
L 106 4122 
L 106 4238 
L 1938 4238 
Q 2450 4238 2759 4163 
Q 3228 4050 3475 3764 
Q 3722 3478 3722 3106 
Q 3722 2788 3528 2536 
Q 3334 2284 2956 2163 
z
M 1319 2331 
Q 1434 2309 1582 2298 
Q 1731 2288 1909 2288 
Q 2366 2288 2595 2386 
Q 2825 2484 2947 2687 
Q 3069 2891 3069 3131 
Q 3069 3503 2766 3765 
Q 2463 4028 1881 4028 
Q 1569 4028 1319 3959 
L 1319 2331 
z
M 1319 306 
Q 1681 222 2034 222 
Q 2600 222 2897 476 
Q 3194 731 3194 1106 
Q 3194 1353 3059 1581 
Q 2925 1809 2622 1940 
Q 2319 2072 1872 2072 
Q 1678 2072 1540 2065 
Q 1403 2059 1319 2044 
L 1319 306 
z
" transform="scale(0.015625)"/>
       <path id="TimesNewRomanPSMT-47" d="M 3928 4334 
L 4038 2997 
L 3928 2997 
Q 3763 3497 3500 3750 
Q 3122 4116 2528 4116 
Q 1719 4116 1297 3475 
Q 944 2934 944 2188 
Q 944 1581 1178 1081 
Q 1413 581 1792 348 
Q 2172 116 2572 116 
Q 2806 116 3025 175 
Q 3244 234 3447 350 
L 3447 1575 
Q 3447 1894 3398 1992 
Q 3350 2091 3248 2142 
Q 3147 2194 2891 2194 
L 2891 2313 
L 4531 2313 
L 4531 2194 
L 4453 2194 
Q 4209 2194 4119 2031 
Q 4056 1916 4056 1575 
L 4056 278 
Q 3697 84 3347 -6 
Q 2997 -97 2569 -97 
Q 1341 -97 703 691 
Q 225 1281 225 2053 
Q 225 2613 494 3125 
Q 813 3734 1369 4063 
Q 1834 4334 2469 4334 
Q 2700 4334 2889 4296 
Q 3078 4259 3425 4131 
Q 3600 4066 3659 4066 
Q 3719 4066 3761 4120 
Q 3803 4175 3813 4334 
L 3928 4334 
z
" transform="scale(0.015625)"/>
       <path id="TimesNewRomanPSMT-64" d="M 2222 322 
Q 2013 103 1813 7 
Q 1613 -88 1381 -88 
Q 913 -88 563 304 
Q 213 697 213 1313 
Q 213 1928 600 2439 
Q 988 2950 1597 2950 
Q 1975 2950 2222 2709 
L 2222 3238 
Q 2222 3728 2198 3840 
Q 2175 3953 2125 3993 
Q 2075 4034 2000 4034 
Q 1919 4034 1784 3984 
L 1744 4094 
L 2597 4444 
L 2738 4444 
L 2738 1134 
Q 2738 631 2761 520 
Q 2784 409 2836 365 
Q 2888 322 2956 322 
Q 3041 322 3181 375 
L 3216 266 
L 2366 -88 
L 2222 -88 
L 2222 322 
z
M 2222 541 
L 2222 2016 
Q 2203 2228 2109 2403 
Q 2016 2578 1861 2667 
Q 1706 2756 1559 2756 
Q 1284 2756 1069 2509 
Q 784 2184 784 1559 
Q 784 928 1059 592 
Q 1334 256 1672 256 
Q 1956 256 2222 541 
z
" transform="scale(0.015625)"/>
       <path id="TimesNewRomanPSMT-43" d="M 3853 4334 
L 3950 2894 
L 3853 2894 
Q 3659 3541 3300 3825 
Q 2941 4109 2438 4109 
Q 2016 4109 1675 3895 
Q 1334 3681 1139 3212 
Q 944 2744 944 2047 
Q 944 1472 1128 1050 
Q 1313 628 1683 403 
Q 2053 178 2528 178 
Q 2941 178 3256 354 
Q 3572 531 3950 1056 
L 4047 994 
Q 3728 428 3303 165 
Q 2878 -97 2294 -97 
Q 1241 -97 663 684 
Q 231 1266 231 2053 
Q 231 2688 515 3219 
Q 800 3750 1298 4042 
Q 1797 4334 2388 4334 
Q 2847 4334 3294 4109 
Q 3425 4041 3481 4041 
Q 3566 4041 3628 4100 
Q 3709 4184 3744 4334 
L 3853 4334 
z
" transform="scale(0.015625)"/>
      </defs>
      <use xlink:href="#TimesNewRomanPSMT-42"/>
      <use xlink:href="#TimesNewRomanPSMT-75" transform="translate(66.699219 0)"/>
      <use xlink:href="#TimesNewRomanPSMT-6c" transform="translate(116.699219 0)"/>
      <use xlink:href="#TimesNewRomanPSMT-6b" transform="translate(144.482422 0)"/>
      <use xlink:href="#TimesNewRomanPSMT-20" transform="translate(194.482422 0)"/>
      <use xlink:href="#TimesNewRomanPSMT-47" transform="translate(219.482422 0)"/>
      <use xlink:href="#TimesNewRomanPSMT-6f" transform="translate(291.699219 0)"/>
      <use xlink:href="#TimesNewRomanPSMT-6f" transform="translate(341.699219 0)"/>
      <use xlink:href="#TimesNewRomanPSMT-64" transform="translate(391.699219 0)"/>
      <use xlink:href="#TimesNewRomanPSMT-73" transform="translate(441.699219 0)"/>
      <use xlink:href="#TimesNewRomanPSMT-20" transform="translate(480.615234 0)"/>
      <use xlink:href="#TimesNewRomanPSMT-43" transform="translate(505.615234 0)"/>
      <use xlink:href="#TimesNewRomanPSMT-65" transform="translate(572.314453 0)"/>
      <use xlink:href="#TimesNewRomanPSMT-6e" transform="translate(616.699219 0)"/>
      <use xlink:href="#TimesNewRomanPSMT-74" transform="translate(666.699219 0)"/>
      <use xlink:href="#TimesNewRomanPSMT-65" transform="translate(694.482422 0)"/>
      <use xlink:href="#TimesNewRomanPSMT-72" transform="translate(738.867188 0)"/>
      <use xlink:href="#TimesNewRomanPSMT-73" transform="translate(772.167969 0)"/>
     </g>
    </g>
    <g id="patch_9">
     <path d="M 415.667927 185.02125 
L 435.667927 185.02125 
L 435.667927 178.02125 
L 415.667927 178.02125 
z
" style="fill: #ff7f0e"/>
    </g>
    <g id="text_21">
     <!-- Cold Chain Facilities -->
     <g transform="translate(443.667927 185.02125) scale(0.1 -0.1)">
      <defs>
       <path id="TimesNewRomanPSMT-68" d="M 1041 4444 
L 1041 2350 
Q 1388 2731 1591 2839 
Q 1794 2947 1997 2947 
Q 2241 2947 2416 2812 
Q 2591 2678 2675 2391 
Q 2734 2191 2734 1659 
L 2734 647 
Q 2734 375 2778 275 
Q 2809 200 2884 156 
Q 2959 113 3159 113 
L 3159 0 
L 1753 0 
L 1753 113 
L 1819 113 
Q 2019 113 2097 173 
Q 2175 234 2206 353 
Q 2216 403 2216 647 
L 2216 1659 
Q 2216 2128 2167 2275 
Q 2119 2422 2012 2495 
Q 1906 2569 1756 2569 
Q 1603 2569 1437 2487 
Q 1272 2406 1041 2159 
L 1041 647 
Q 1041 353 1073 281 
Q 1106 209 1195 161 
Q 1284 113 1503 113 
L 1503 0 
L 84 0 
L 84 113 
Q 275 113 384 172 
Q 447 203 484 290 
Q 522 378 522 647 
L 522 3238 
Q 522 3728 498 3840 
Q 475 3953 426 3993 
Q 378 4034 297 4034 
Q 231 4034 84 3984 
L 41 4094 
L 897 4444 
L 1041 4444 
z
" transform="scale(0.015625)"/>
       <path id="TimesNewRomanPSMT-46" d="M 1309 4006 
L 1309 2341 
L 2081 2341 
Q 2347 2341 2470 2458 
Q 2594 2575 2634 2922 
L 2750 2922 
L 2750 1488 
L 2634 1488 
Q 2631 1734 2570 1850 
Q 2509 1966 2401 2023 
Q 2294 2081 2081 2081 
L 1309 2081 
L 1309 750 
Q 1309 428 1350 325 
Q 1381 247 1481 191 
Q 1619 116 1769 116 
L 1922 116 
L 1922 0 
L 103 0 
L 103 116 
L 253 116 
Q 516 116 634 269 
Q 709 369 709 750 
L 709 3488 
Q 709 3809 669 3913 
Q 638 3991 541 4047 
Q 406 4122 253 4122 
L 103 4122 
L 103 4238 
L 3256 4238 
L 3297 3306 
L 3188 3306 
Q 3106 3603 2998 3742 
Q 2891 3881 2733 3943 
Q 2575 4006 2244 4006 
L 1309 4006 
z
" transform="scale(0.015625)"/>
      </defs>
      <use xlink:href="#TimesNewRomanPSMT-43"/>
      <use xlink:href="#TimesNewRomanPSMT-6f" transform="translate(66.699219 0)"/>
      <use xlink:href="#TimesNewRomanPSMT-6c" transform="translate(116.699219 0)"/>
      <use xlink:href="#TimesNewRomanPSMT-64" transform="translate(144.482422 0)"/>
      <use xlink:href="#TimesNewRomanPSMT-20" transform="translate(194.482422 0)"/>
      <use xlink:href="#TimesNewRomanPSMT-43" transform="translate(219.482422 0)"/>
      <use xlink:href="#TimesNewRomanPSMT-68" transform="translate(286.181641 0)"/>
      <use xlink:href="#TimesNewRomanPSMT-61" transform="translate(336.181641 0)"/>
      <use xlink:href="#TimesNewRomanPSMT-69" transform="translate(380.566406 0)"/>
      <use xlink:href="#TimesNewRomanPSMT-6e" transform="translate(408.349609 0)"/>
      <use xlink:href="#TimesNewRomanPSMT-20" transform="translate(458.349609 0)"/>
      <use xlink:href="#TimesNewRomanPSMT-46" transform="translate(483.349609 0)"/>
      <use xlink:href="#TimesNewRomanPSMT-61" transform="translate(538.964844 0)"/>
      <use xlink:href="#TimesNewRomanPSMT-63" transform="translate(583.349609 0)"/>
      <use xlink:href="#TimesNewRomanPSMT-69" transform="translate(627.734375 0)"/>
      <use xlink:href="#TimesNewRomanPSMT-6c" transform="translate(655.517578 0)"/>
      <use xlink:href="#TimesNewRomanPSMT-69" transform="translate(683.300781 0)"/>
      <use xlink:href="#TimesNewRomanPSMT-74" transform="translate(711.083984 0)"/>
      <use xlink:href="#TimesNewRomanPSMT-69" transform="translate(738.867188 0)"/>
      <use xlink:href="#TimesNewRomanPSMT-65" transform="translate(766.650391 0)"/>
      <use xlink:href="#TimesNewRomanPSMT-73" transform="translate(811.035156 0)"/>
     </g>
    </g>
    <g id="patch_10">
     <path d="M 415.667927 199.160312 
L 435.667927 199.160312 
L 435.667927 192.160312 
L 415.667927 192.160312 
z
" style="fill: #ffbb78"/>
    </g>
    <g id="text_22">
     <!-- Tech Distribution -->
     <g transform="translate(443.667927 199.160312) scale(0.1 -0.1)">
      <use xlink:href="#TimesNewRomanPSMT-54"/>
      <use xlink:href="#TimesNewRomanPSMT-65" transform="translate(54.083984 0)"/>
      <use xlink:href="#TimesNewRomanPSMT-63" transform="translate(98.46875 0)"/>
      <use xlink:href="#TimesNewRomanPSMT-68" transform="translate(142.853516 0)"/>
      <use xlink:href="#TimesNewRomanPSMT-20" transform="translate(192.853516 0)"/>
      <use xlink:href="#TimesNewRomanPSMT-44" transform="translate(217.853516 0)"/>
      <use xlink:href="#TimesNewRomanPSMT-69" transform="translate(290.070312 0)"/>
      <use xlink:href="#TimesNewRomanPSMT-73" transform="translate(317.853516 0)"/>
      <use xlink:href="#TimesNewRomanPSMT-74" transform="translate(356.769531 0)"/>
      <use xlink:href="#TimesNewRomanPSMT-72" transform="translate(384.552734 0)"/>
      <use xlink:href="#TimesNewRomanPSMT-69" transform="translate(417.853516 0)"/>
      <use xlink:href="#TimesNewRomanPSMT-62" transform="translate(445.636719 0)"/>
      <use xlink:href="#TimesNewRomanPSMT-75" transform="translate(495.636719 0)"/>
      <use xlink:href="#TimesNewRomanPSMT-74" transform="translate(545.636719 0)"/>
      <use xlink:href="#TimesNewRomanPSMT-69" transform="translate(573.419922 0)"/>
      <use xlink:href="#TimesNewRomanPSMT-6f" transform="translate(601.203125 0)"/>
      <use xlink:href="#TimesNewRomanPSMT-6e" transform="translate(651.203125 0)"/>
     </g>
    </g>
   </g>
  </g>
 </g>
 <defs>
  <clipPath id="p8bc60564eb">
   <rect x="10.091927" y="36.92125" width="388.8" height="277.2"/>
  </clipPath>
 </defs>
</svg>
