<?xml version="1.0" encoding="utf-8" standalone="no"?>
<!DOCTYPE svg PUBLIC "-//W3C//DTD SVG 1.1//EN"
  "http://www.w3.org/Graphics/SVG/1.1/DTD/svg11.dtd">
<svg xmlns:xlink="http://www.w3.org/1999/xlink" width="534.006989pt" height="363.785279pt" viewBox="0 0 534.006989 363.785279" xmlns="http://www.w3.org/2000/svg" version="1.1">
 <metadata>
  <rdf:RDF xmlns:dc="http://purl.org/dc/elements/1.1/" xmlns:cc="http://creativecommons.org/ns#" xmlns:rdf="http://www.w3.org/1999/02/22-rdf-syntax-ns#">
   <cc:Work>
    <dc:type rdf:resource="http://purl.org/dc/dcmitype/StillImage"/>
    <dc:date>2025-05-31T00:04:14.678715</dc:date>
    <dc:format>image/svg+xml</dc:format>
    <dc:creator>
     <cc:Agent>
      <dc:title>Matplotlib v3.10.3, https://matplotlib.org/</dc:title>
     </cc:Agent>
    </dc:creator>
   </cc:Work>
  </rdf:RDF>
 </metadata>
 <defs>
  <style type="text/css">*{stroke-linejoin: round; stroke-linecap: butt}</style>
 </defs>
 <g id="figure_1">
  <g id="patch_1">
   <path d="M 0 363.785279 
L 534.006989 363.785279 
L 534.006989 0 
L 0 0 
z
" style="fill: #ffffff"/>
  </g>
  <g id="axes_1">
   <g id="patch_2">
    <path d="M 10.091927 314.12125 
L 398.891927 314.12125 
L 398.891927 36.92125 
L 10.091927 36.92125 
z
" style="fill: #ffffff"/>
   </g>
   <g id="FillBetweenPolyCollection_1">
    <path d="M 27.764654 184.407294 
L 27.764654 274.05268 
L 29.031516 272.37877 
L 30.298378 271.381677 
L 31.56524 270.992215 
L 32.832103 271.141202 
L 34.098965 271.759454 
L 35.365827 272.777787 
L 36.632689 274.127018 
L 37.899551 275.737962 
L 39.166413 277.541437 
L 40.433276 279.468257 
L 41.700138 281.449241 
L 42.967 283.415203 
L 44.233862 285.296961 
L 45.500724 287.02533 
L 46.767586 288.531127 
L 48.034449 289.745169 
L 49.301311 290.598271 
L 50.568173 291.02125 
L 51.835035 290.944922 
L 53.101897 290.300104 
L 54.36876 289.018869 
L 55.635622 287.108747 
L 56.902484 284.694225 
L 58.169346 281.909849 
L 59.436208 278.890167 
L 60.70307 275.769725 
L 61.969933 272.683072 
L 63.236795 269.764753 
L 64.503657 267.149315 
L 65.770519 264.971307 
L 67.037381 263.365275 
L 68.304243 262.426716 
L 69.571106 262.094925 
L 70.837968 262.270148 
L 72.10483 262.85263 
L 73.371692 263.742618 
L 74.638554 264.840355 
L 75.905416 266.046089 
L 77.172279 267.260064 
L 78.439141 268.382526 
L 79.706003 269.31372 
L 80.972865 269.962222 
L 82.239727 270.333454 
L 83.506589 270.495315 
L 84.773452 270.516749 
L 86.040314 270.466697 
L 87.307176 270.414102 
L 88.574038 270.427907 
L 89.8409 270.577053 
L 91.107762 270.930483 
L 92.374625 271.557139 
L 93.641487 272.524902 
L 94.908349 273.837965 
L 96.175211 275.401808 
L 97.442073 277.113418 
L 98.708935 278.869781 
L 99.975798 280.567885 
L 101.24266 282.104718 
L 102.509522 283.377265 
L 103.776384 284.282514 
L 105.043246 284.717453 
L 106.310108 284.579069 
L 107.576971 283.796222 
L 108.843833 282.425271 
L 110.110695 280.554448 
L 111.377557 278.271986 
L 112.644419 275.666116 
L 113.911282 272.825071 
L 115.178144 269.837083 
L 116.445006 266.790384 
L 117.711868 263.773207 
L 118.97873 260.873784 
L 120.245592 258.177203 
L 121.512455 255.732013 
L 122.779317 253.563185 
L 124.046179 251.695299 
L 125.313041 250.152934 
L 126.579903 248.960669 
L 127.846765 248.143085 
L 129.113628 247.72476 
L 130.38049 247.730273 
L 131.647352 248.184205 
L 132.914214 249.110414 
L 134.181076 250.489514 
L 135.447938 252.235094 
L 136.714801 254.254975 
L 137.981663 256.456979 
L 139.248525 258.748927 
L 140.515387 261.038642 
L 141.782249 263.233945 
L 143.049111 265.242657 
L 144.315974 266.972601 
L 145.582836 268.331597 
L 146.849698 269.252956 
L 148.11656 269.771935 
L 149.383422 269.949281 
L 150.650284 269.845738 
L 151.917147 269.522052 
L 153.184009 269.03897 
L 154.450871 268.457236 
L 155.717733 267.837596 
L 156.984595 267.240797 
L 158.251457 266.727583 
L 159.51832 266.353813 
L 160.785182 266.11854 
L 162.052044 265.984163 
L 163.318906 265.912474 
L 164.585768 265.865262 
L 165.85263 265.804319 
L 167.119493 265.691433 
L 168.386355 265.488395 
L 169.653217 265.156996 
L 170.920079 264.659027 
L 172.186941 263.956859 
L 173.453803 263.04783 
L 174.720666 261.983474 
L 175.987528 260.819983 
L 177.25439 259.613553 
L 178.521252 258.420377 
L 179.788114 257.296651 
L 181.054977 256.298567 
L 182.321839 255.482322 
L 183.588701 254.904108 
L 184.855563 254.62012 
L 186.122425 254.667293 
L 187.389287 255.005526 
L 188.65615 255.575455 
L 189.923012 256.317721 
L 191.189874 257.17296 
L 192.456736 258.081812 
L 193.723598 258.984915 
L 194.99046 259.822908 
L 196.257323 260.536428 
L 197.524185 261.066115 
L 198.791047 261.357153 
L 200.057909 261.40758 
L 201.324771 261.24953 
L 202.591633 260.915708 
L 203.858496 260.438817 
L 205.125358 259.851561 
L 206.39222 259.186644 
L 207.659082 258.476769 
L 208.925944 257.75464 
L 210.192806 257.052962 
L 211.459669 256.404183 
L 212.726531 255.825548 
L 213.993393 255.310726 
L 215.260255 254.851362 
L 216.527117 254.439098 
L 217.793979 254.065579 
L 219.060842 253.722448 
L 220.327704 253.401347 
L 221.594566 253.093921 
L 222.861428 252.791812 
L 224.12829 252.486665 
L 225.395152 252.175502 
L 226.662015 251.87687 
L 227.928877 251.614693 
L 229.195739 251.412898 
L 230.462601 251.295411 
L 231.729463 251.286156 
L 232.996325 251.409059 
L 234.263188 251.688047 
L 235.53005 252.147044 
L 236.796912 252.809977 
L 238.063774 253.695872 
L 239.330636 254.766805 
L 240.597499 255.948108 
L 241.864361 257.164503 
L 243.131223 258.34071 
L 244.398085 259.401449 
L 245.664947 260.271441 
L 246.931809 260.875407 
L 248.198672 261.138068 
L 249.465534 260.984143 
L 250.732396 260.339568 
L 251.999258 259.203077 
L 253.26612 257.686246 
L 254.532982 255.910358 
L 255.799845 253.996698 
L 257.066707 252.066548 
L 258.333569 250.241191 
L 259.600431 248.64191 
L 260.867293 247.38999 
L 262.134155 246.606712 
L 263.401018 246.413361 
L 264.66788 246.890128 
L 265.934742 247.952844 
L 267.201604 249.533447 
L 268.468466 251.419128 
L 269.735328 253.457918 
L 271.002191 255.557955 
L 272.269053 257.671488 
L 273.535915 259.6194 
L 274.802777 261.276429 
L 276.069639 262.517314 
L 277.336501 263.227096 
L 278.603364 263.410572 
L 279.870226 263.149807 
L 281.137088 262.52815 
L 282.40395 261.628951 
L 283.670812 260.535561 
L 284.937674 259.331331 
L 286.204537 258.09961 
L 287.471399 256.92375 
L 288.738261 255.8871 
L 290.005123 255.072279 
L 291.271985 254.518004 
L 292.538847 254.194943 
L 293.80571 254.067912 
L 295.072572 254.101726 
L 296.339434 254.261201 
L 297.606296 254.51115 
L 298.873158 254.816391 
L 300.140021 255.141737 
L 301.406883 255.452004 
L 302.673745 255.712006 
L 303.940607 255.895614 
L 305.207469 256.01291 
L 306.474331 256.083031 
L 307.741194 256.125114 
L 309.008056 256.158295 
L 310.274918 256.201712 
L 311.54178 256.274501 
L 312.808642 256.395799 
L 314.075504 256.584743 
L 315.342367 256.86047 
L 316.609229 257.240286 
L 317.876091 257.720211 
L 319.142953 258.282534 
L 320.409815 258.909313 
L 321.676677 259.582608 
L 322.94354 260.284479 
L 324.210402 260.996985 
L 325.477264 261.702184 
L 326.744126 262.382137 
L 328.010988 263.018903 
L 329.27785 263.594664 
L 330.544713 264.099054 
L 331.811575 264.533249 
L 333.078437 264.89942 
L 334.345299 265.199737 
L 335.612161 265.436371 
L 336.879023 265.611492 
L 338.145886 265.72727 
L 339.412748 265.785876 
L 340.67961 265.78948 
L 341.946472 265.740254 
L 343.213334 265.640727 
L 344.480196 265.494873 
L 345.747059 265.307026 
L 347.013921 265.08152 
L 348.280783 264.822688 
L 349.547645 264.534864 
L 350.814507 264.222383 
L 352.081369 263.889578 
L 353.348232 263.540783 
L 354.615094 263.180331 
L 355.881956 262.812905 
L 357.148818 262.447235 
L 358.41568 262.094665 
L 359.682542 261.766578 
L 360.949405 261.474362 
L 362.216267 261.229403 
L 363.483129 261.043086 
L 364.749991 260.926798 
L 366.016853 260.891924 
L 367.283716 260.94985 
L 368.550578 261.111962 
L 369.81744 261.389646 
L 371.084302 261.794288 
L 372.351164 262.337274 
L 373.618026 263.02999 
L 374.884889 263.883822 
L 376.151751 264.910156 
L 377.418613 266.120377 
L 378.685475 267.525872 
L 379.952337 269.138026 
L 381.219199 270.968226 
L 381.219199 269.961879 
L 381.219199 269.961879 
L 379.952337 268.13174 
L 378.685475 266.519628 
L 377.418613 265.114159 
L 376.151751 263.903949 
L 374.884889 262.877614 
L 373.618026 262.02377 
L 372.351164 261.331033 
L 371.084302 260.78802 
L 369.81744 260.383346 
L 368.550578 260.105627 
L 367.283716 259.943479 
L 366.016853 259.885519 
L 364.749991 259.920362 
L 363.483129 260.036626 
L 362.216267 260.222924 
L 360.949405 260.467875 
L 359.682542 260.760093 
L 358.41568 261.088195 
L 357.148818 261.440797 
L 355.881956 261.806515 
L 354.615094 262.174009 
L 353.348232 262.534545 
L 352.081369 262.883432 
L 350.814507 263.216326 
L 349.547645 263.528884 
L 348.280783 263.816761 
L 347.013921 264.075614 
L 345.747059 264.301099 
L 344.480196 264.488872 
L 343.213334 264.634589 
L 341.946472 264.733907 
L 340.67961 264.78285 
L 339.412748 264.778917 
L 338.145886 264.719976 
L 336.879023 264.603894 
L 335.612161 264.428539 
L 334.345299 264.191778 
L 333.078437 263.891479 
L 331.811575 263.525509 
L 330.544713 263.091736 
L 329.27785 262.588027 
L 328.010988 262.013233 
L 326.744126 261.37765 
L 325.477264 260.698953 
L 324.210402 259.99494 
L 322.94354 259.283411 
L 321.676677 258.582165 
L 320.409815 257.909001 
L 319.142953 257.281717 
L 317.876091 256.718112 
L 316.609229 256.235987 
L 315.342367 255.852914 
L 314.075504 255.572984 
L 312.808642 255.379387 
L 311.54178 255.253515 
L 310.274918 255.176761 
L 309.008056 255.130516 
L 307.741194 255.096172 
L 306.474331 255.055123 
L 305.207469 254.98876 
L 303.940607 254.878474 
L 302.673745 254.70566 
L 301.406883 254.460343 
L 300.140021 254.1671 
L 298.873158 253.859141 
L 297.606296 253.569675 
L 296.339434 253.331915 
L 295.072572 253.179069 
L 293.80571 253.144349 
L 292.538847 253.260965 
L 291.271985 253.562128 
L 290.005123 254.081048 
L 288.738261 254.845544 
L 287.471399 255.820749 
L 286.204537 256.931355 
L 284.937674 258.10138 
L 283.670812 259.254841 
L 282.40395 260.315756 
L 281.137088 261.208143 
L 279.870226 261.85602 
L 278.603364 262.183405 
L 277.336501 262.114315 
L 276.069639 261.57384 
L 274.802777 260.551422 
L 273.535915 259.136242 
L 272.269053 257.426066 
L 271.002191 255.518655 
L 269.735328 253.457918 
L 268.468466 251.419128 
L 267.201604 249.533447 
L 265.934742 247.871934 
L 264.66788 246.444801 
L 263.401018 245.407014 
L 262.134155 244.828331 
L 260.867293 244.666493 
L 259.600431 244.851238 
L 258.333569 245.312302 
L 257.066707 245.979423 
L 255.799845 246.782336 
L 254.532982 247.650779 
L 253.26612 248.514489 
L 251.999258 249.303203 
L 250.732396 249.946657 
L 249.465534 250.379241 
L 248.198672 250.589437 
L 246.931809 250.600624 
L 245.664947 250.436761 
L 244.398085 250.121809 
L 243.131223 249.679728 
L 241.864361 249.13448 
L 240.597499 248.510024 
L 239.330636 247.830321 
L 238.063774 247.119331 
L 236.796912 246.400906 
L 235.53005 245.692344 
L 234.263188 245.000791 
L 232.996325 244.332517 
L 231.729463 243.693793 
L 230.462601 243.09089 
L 229.195739 242.530079 
L 227.928877 242.01763 
L 226.662015 241.559815 
L 225.395152 241.162903 
L 224.12829 240.833167 
L 222.861428 240.573134 
L 221.594566 240.370365 
L 220.327704 240.208678 
L 219.060842 240.071891 
L 217.793979 239.943822 
L 216.527117 239.808289 
L 215.260255 239.649109 
L 213.993393 239.450102 
L 212.726531 239.195084 
L 211.459669 238.867875 
L 210.192806 238.454142 
L 208.925944 237.961072 
L 207.659082 237.409734 
L 206.39222 236.821426 
L 205.125358 236.217448 
L 203.858496 235.6191 
L 202.591633 235.047682 
L 201.324771 234.524493 
L 200.057909 234.070832 
L 198.791047 233.707998 
L 197.524185 233.45698 
L 196.257323 233.319965 
L 194.99046 233.27001 
L 193.723598 233.277663 
L 192.456736 233.313475 
L 191.189874 233.347994 
L 189.923012 233.35177 
L 188.65615 233.295351 
L 187.389287 233.149288 
L 186.122425 232.884129 
L 184.855563 232.470424 
L 183.588701 231.886375 
L 182.321839 231.140798 
L 181.054977 230.250164 
L 179.788114 229.230941 
L 178.521252 228.099599 
L 177.25439 226.872609 
L 175.987528 225.566439 
L 174.720666 224.197559 
L 173.453803 222.782439 
L 172.186941 221.337548 
L 170.920079 219.879712 
L 169.653217 218.429901 
L 168.386355 217.011756 
L 167.119493 215.648965 
L 165.85263 214.365213 
L 164.585768 213.184188 
L 163.318906 212.129575 
L 162.052044 211.225062 
L 160.785182 210.494335 
L 159.51832 209.961081 
L 158.251457 209.648661 
L 156.984595 209.560872 
L 155.717733 209.671194 
L 154.450871 209.950496 
L 153.184009 210.369648 
L 151.917147 210.899521 
L 150.650284 211.510983 
L 149.383422 212.174906 
L 148.11656 212.862158 
L 146.849698 213.54361 
L 145.582836 214.190131 
L 144.315974 214.774966 
L 143.049111 215.28085 
L 141.782249 215.692892 
L 140.515387 215.996203 
L 139.248525 216.175891 
L 137.981663 216.217067 
L 136.714801 216.10484 
L 135.447938 215.82432 
L 134.181076 215.360616 
L 132.914214 214.698838 
L 131.647352 213.825812 
L 130.38049 212.748323 
L 129.113628 211.486033 
L 127.846765 210.058819 
L 126.579903 208.486557 
L 125.313041 206.789123 
L 124.046179 204.986394 
L 122.779317 203.098246 
L 121.512455 201.144556 
L 120.245592 199.145199 
L 118.97873 197.120261 
L 117.711868 195.102386 
L 116.445006 193.143679 
L 115.178144 191.29792 
L 113.911282 189.61889 
L 112.644419 188.160369 
L 111.377557 186.976136 
L 110.110695 186.119973 
L 108.843833 185.64566 
L 107.576971 185.606976 
L 106.310108 186.057703 
L 105.043246 187.025343 
L 103.776384 188.432294 
L 102.509522 190.174679 
L 101.24266 192.148618 
L 99.975798 194.250232 
L 98.708935 196.375643 
L 97.442073 198.420973 
L 96.175211 200.282341 
L 94.908349 201.855871 
L 93.641487 203.037682 
L 92.374625 203.733492 
L 91.107762 203.960573 
L 89.8409 203.808165 
L 88.574038 203.366709 
L 87.307176 202.726644 
L 86.040314 201.978412 
L 84.773452 201.212452 
L 83.506589 200.519206 
L 82.239727 199.989114 
L 80.972865 199.712615 
L 79.706003 199.778962 
L 78.439141 200.206017 
L 77.172279 200.900997 
L 75.905416 201.761599 
L 74.638554 202.685519 
L 73.371692 203.570456 
L 72.10483 204.314107 
L 70.837968 204.814168 
L 69.571106 204.968337 
L 68.304243 204.674312 
L 67.037381 203.82979 
L 65.770519 202.368571 
L 64.503657 200.368874 
L 63.236795 197.94502 
L 61.969933 195.211332 
L 60.70307 192.28213 
L 59.436208 189.271736 
L 58.169346 186.294473 
L 56.902484 183.464662 
L 55.635622 180.896625 
L 54.36876 178.704683 
L 53.101897 176.995182 
L 51.835035 175.781749 
L 50.568173 175.018192 
L 49.301311 174.657322 
L 48.034449 174.651949 
L 46.767586 174.954885 
L 45.500724 175.518939 
L 44.233862 176.296924 
L 42.967 177.24165 
L 41.700138 178.305927 
L 40.433276 179.442567 
L 39.166413 180.60438 
L 37.899551 181.744178 
L 36.632689 182.814771 
L 35.365827 183.768969 
L 34.098965 184.559585 
L 32.832103 185.139428 
L 31.56524 185.461309 
L 30.298378 185.47804 
L 29.031516 185.142431 
L 27.764654 184.407294 
z
" clip-path="url(#p3df5457890)" style="fill: #1f77b4"/>
   </g>
   <g id="FillBetweenPolyCollection_2">
    <path d="M 27.764654 76.98982 
L 27.764654 184.407294 
L 29.031516 185.142431 
L 30.298378 185.47804 
L 31.56524 185.461309 
L 32.832103 185.139428 
L 34.098965 184.559585 
L 35.365827 183.768969 
L 36.632689 182.814771 
L 37.899551 181.744178 
L 39.166413 180.60438 
L 40.433276 179.442567 
L 41.700138 178.305927 
L 42.967 177.24165 
L 44.233862 176.296924 
L 45.500724 175.518939 
L 46.767586 174.954885 
L 48.034449 174.651949 
L 49.301311 174.657322 
L 50.568173 175.018192 
L 51.835035 175.781749 
L 53.101897 176.995182 
L 54.36876 178.704683 
L 55.635622 180.896625 
L 56.902484 183.464662 
L 58.169346 186.294473 
L 59.436208 189.271736 
L 60.70307 192.28213 
L 61.969933 195.211332 
L 63.236795 197.94502 
L 64.503657 200.368874 
L 65.770519 202.368571 
L 67.037381 203.82979 
L 68.304243 204.674312 
L 69.571106 204.968337 
L 70.837968 204.814168 
L 72.10483 204.314107 
L 73.371692 203.570456 
L 74.638554 202.685519 
L 75.905416 201.761599 
L 77.172279 200.900997 
L 78.439141 200.206017 
L 79.706003 199.778962 
L 80.972865 199.712615 
L 82.239727 199.989114 
L 83.506589 200.519206 
L 84.773452 201.212452 
L 86.040314 201.978412 
L 87.307176 202.726644 
L 88.574038 203.366709 
L 89.8409 203.808165 
L 91.107762 203.960573 
L 92.374625 203.733492 
L 93.641487 203.037682 
L 94.908349 201.855871 
L 96.175211 200.282341 
L 97.442073 198.420973 
L 98.708935 196.375643 
L 99.975798 194.250232 
L 101.24266 192.148618 
L 102.509522 190.174679 
L 103.776384 188.432294 
L 105.043246 187.025343 
L 106.310108 186.057703 
L 107.576971 185.606976 
L 108.843833 185.64566 
L 110.110695 186.119973 
L 111.377557 186.976136 
L 112.644419 188.160369 
L 113.911282 189.61889 
L 115.178144 191.29792 
L 116.445006 193.143679 
L 117.711868 195.102386 
L 118.97873 197.120261 
L 120.245592 199.145199 
L 121.512455 201.144556 
L 122.779317 203.098246 
L 124.046179 204.986394 
L 125.313041 206.789123 
L 126.579903 208.486557 
L 127.846765 210.058819 
L 129.113628 211.486033 
L 130.38049 212.748323 
L 131.647352 213.825812 
L 132.914214 214.698838 
L 134.181076 215.360616 
L 135.447938 215.82432 
L 136.714801 216.10484 
L 137.981663 216.217067 
L 139.248525 216.175891 
L 140.515387 215.996203 
L 141.782249 215.692892 
L 143.049111 215.28085 
L 144.315974 214.774966 
L 145.582836 214.190131 
L 146.849698 213.54361 
L 148.11656 212.862158 
L 149.383422 212.174906 
L 150.650284 211.510983 
L 151.917147 210.899521 
L 153.184009 210.369648 
L 154.450871 209.950496 
L 155.717733 209.671194 
L 156.984595 209.560872 
L 158.251457 209.648661 
L 159.51832 209.961081 
L 160.785182 210.494335 
L 162.052044 211.225062 
L 163.318906 212.129575 
L 164.585768 213.184188 
L 165.85263 214.365213 
L 167.119493 215.648965 
L 168.386355 217.011756 
L 169.653217 218.429901 
L 170.920079 219.879712 
L 172.186941 221.337548 
L 173.453803 222.782439 
L 174.720666 224.197559 
L 175.987528 225.566439 
L 177.25439 226.872609 
L 178.521252 228.099599 
L 179.788114 229.230941 
L 181.054977 230.250164 
L 182.321839 231.140798 
L 183.588701 231.886375 
L 184.855563 232.470424 
L 186.122425 232.884129 
L 187.389287 233.149288 
L 188.65615 233.295351 
L 189.923012 233.35177 
L 191.189874 233.347994 
L 192.456736 233.313475 
L 193.723598 233.277663 
L 194.99046 233.27001 
L 196.257323 233.319965 
L 197.524185 233.45698 
L 198.791047 233.707998 
L 200.057909 234.070832 
L 201.324771 234.524493 
L 202.591633 235.047682 
L 203.858496 235.6191 
L 205.125358 236.217448 
L 206.39222 236.821426 
L 207.659082 237.409734 
L 208.925944 237.961072 
L 210.192806 238.454142 
L 211.459669 238.867875 
L 212.726531 239.195084 
L 213.993393 239.450102 
L 215.260255 239.649109 
L 216.527117 239.808289 
L 217.793979 239.943822 
L 219.060842 240.071891 
L 220.327704 240.208678 
L 221.594566 240.370365 
L 222.861428 240.573134 
L 224.12829 240.833167 
L 225.395152 241.162903 
L 226.662015 241.559815 
L 227.928877 242.01763 
L 229.195739 242.530079 
L 230.462601 243.09089 
L 231.729463 243.693793 
L 232.996325 244.332517 
L 234.263188 245.000791 
L 235.53005 245.692344 
L 236.796912 246.400906 
L 238.063774 247.119331 
L 239.330636 247.830321 
L 240.597499 248.510024 
L 241.864361 249.13448 
L 243.131223 249.679728 
L 244.398085 250.121809 
L 245.664947 250.436761 
L 246.931809 250.600624 
L 248.198672 250.589437 
L 249.465534 250.379241 
L 250.732396 249.946657 
L 251.999258 249.303203 
L 253.26612 248.514489 
L 254.532982 247.650779 
L 255.799845 246.782336 
L 257.066707 245.979423 
L 258.333569 245.312302 
L 259.600431 244.851238 
L 260.867293 244.666493 
L 262.134155 244.828331 
L 263.401018 245.407014 
L 264.66788 246.444801 
L 265.934742 247.871934 
L 267.201604 249.533447 
L 268.468466 251.419128 
L 269.735328 253.457918 
L 271.002191 255.518655 
L 272.269053 257.426066 
L 273.535915 259.136242 
L 274.802777 260.551422 
L 276.069639 261.57384 
L 277.336501 262.114315 
L 278.603364 262.183405 
L 279.870226 261.85602 
L 281.137088 261.208143 
L 282.40395 260.315756 
L 283.670812 259.254841 
L 284.937674 258.10138 
L 286.204537 256.931355 
L 287.471399 255.820749 
L 288.738261 254.845544 
L 290.005123 254.081048 
L 291.271985 253.562128 
L 292.538847 253.260965 
L 293.80571 253.144349 
L 295.072572 253.179069 
L 296.339434 253.331915 
L 297.606296 253.569675 
L 298.873158 253.859141 
L 300.140021 254.1671 
L 301.406883 254.460343 
L 302.673745 254.70566 
L 303.940607 254.878474 
L 305.207469 254.98876 
L 306.474331 255.055123 
L 307.741194 255.096172 
L 309.008056 255.130516 
L 310.274918 255.176761 
L 311.54178 255.253515 
L 312.808642 255.379387 
L 314.075504 255.572984 
L 315.342367 255.852914 
L 316.609229 256.235987 
L 317.876091 256.718112 
L 319.142953 257.281717 
L 320.409815 257.909001 
L 321.676677 258.582165 
L 322.94354 259.283411 
L 324.210402 259.99494 
L 325.477264 260.698953 
L 326.744126 261.37765 
L 328.010988 262.013233 
L 329.27785 262.588027 
L 330.544713 263.091736 
L 331.811575 263.525509 
L 333.078437 263.891479 
L 334.345299 264.191778 
L 335.612161 264.428539 
L 336.879023 264.603894 
L 338.145886 264.719976 
L 339.412748 264.778917 
L 340.67961 264.78285 
L 341.946472 264.733907 
L 343.213334 264.634589 
L 344.480196 264.488872 
L 345.747059 264.301099 
L 347.013921 264.075614 
L 348.280783 263.816761 
L 349.547645 263.528884 
L 350.814507 263.216326 
L 352.081369 262.883432 
L 353.348232 262.534545 
L 354.615094 262.174009 
L 355.881956 261.806515 
L 357.148818 261.440797 
L 358.41568 261.088195 
L 359.682542 260.760093 
L 360.949405 260.467875 
L 362.216267 260.222924 
L 363.483129 260.036626 
L 364.749991 259.920362 
L 366.016853 259.885519 
L 367.283716 259.943479 
L 368.550578 260.105627 
L 369.81744 260.383346 
L 371.084302 260.78802 
L 372.351164 261.331033 
L 373.618026 262.02377 
L 374.884889 262.877614 
L 376.151751 263.903949 
L 377.418613 265.114159 
L 378.685475 266.519628 
L 379.952337 268.13174 
L 381.219199 269.961879 
L 381.219199 80.074274 
L 381.219199 80.074274 
L 379.952337 81.904474 
L 378.685475 83.516628 
L 377.418613 84.922123 
L 376.151751 86.132344 
L 374.884889 87.158678 
L 373.618026 88.01251 
L 372.351164 88.705226 
L 371.084302 89.248212 
L 369.81744 89.652854 
L 368.550578 89.930538 
L 367.283716 90.09265 
L 366.016853 90.150576 
L 364.749991 90.115702 
L 363.483129 89.999414 
L 362.216267 89.813097 
L 360.949405 89.568138 
L 359.682542 89.275922 
L 358.41568 88.947835 
L 357.148818 88.595265 
L 355.881956 88.229595 
L 354.615094 87.862169 
L 353.348232 87.501717 
L 352.081369 87.152922 
L 350.814507 86.820117 
L 349.547645 86.507636 
L 348.280783 86.219812 
L 347.013921 85.96098 
L 345.747059 85.735474 
L 344.480196 85.547627 
L 343.213334 85.401773 
L 341.946472 85.302246 
L 340.67961 85.25302 
L 339.412748 85.256624 
L 338.145886 85.31523 
L 336.879023 85.431008 
L 335.612161 85.606129 
L 334.345299 85.842763 
L 333.078437 86.14308 
L 331.811575 86.509251 
L 330.544713 86.943446 
L 329.27785 87.447836 
L 328.010988 88.023597 
L 326.744126 88.660363 
L 325.477264 89.340316 
L 324.210402 90.045515 
L 322.94354 90.758021 
L 321.676677 91.459892 
L 320.409815 92.133187 
L 319.142953 92.759966 
L 317.876091 93.322289 
L 316.609229 93.802214 
L 315.342367 94.18203 
L 314.075504 94.457757 
L 312.808642 94.646701 
L 311.54178 94.767999 
L 310.274918 94.840788 
L 309.008056 94.884205 
L 307.741194 94.917386 
L 306.474331 94.959469 
L 305.207469 95.02959 
L 303.940607 95.146886 
L 302.673745 95.330494 
L 301.406883 95.590496 
L 300.140021 95.900763 
L 298.873158 96.226109 
L 297.606296 96.53135 
L 296.339434 96.781299 
L 295.072572 96.940774 
L 293.80571 96.974588 
L 292.538847 96.847557 
L 291.271985 96.524496 
L 290.005123 95.970221 
L 288.738261 95.1554 
L 287.471399 94.11875 
L 286.204537 92.94289 
L 284.937674 91.711169 
L 283.670812 90.506939 
L 282.40395 89.413549 
L 281.137088 88.51435 
L 279.870226 87.892693 
L 278.603364 87.631928 
L 277.336501 87.815404 
L 276.069639 88.525186 
L 274.802777 89.766071 
L 273.535915 91.4231 
L 272.269053 93.371012 
L 271.002191 95.484545 
L 269.735328 97.584582 
L 268.468466 99.623372 
L 267.201604 101.509053 
L 265.934742 103.089656 
L 264.66788 104.152372 
L 263.401018 104.629139 
L 262.134155 104.435788 
L 260.867293 103.65251 
L 259.600431 102.40059 
L 258.333569 100.801309 
L 257.066707 98.975952 
L 255.799845 97.045802 
L 254.532982 95.132142 
L 253.26612 93.356254 
L 251.999258 91.839423 
L 250.732396 90.702932 
L 249.465534 90.058357 
L 248.198672 89.904432 
L 246.931809 90.167093 
L 245.664947 90.771059 
L 244.398085 91.641051 
L 243.131223 92.70179 
L 241.864361 93.877997 
L 240.597499 95.094392 
L 239.330636 96.275695 
L 238.063774 97.346628 
L 236.796912 98.232523 
L 235.53005 98.895456 
L 234.263188 99.354453 
L 232.996325 99.633441 
L 231.729463 99.756344 
L 230.462601 99.747089 
L 229.195739 99.629602 
L 227.928877 99.427807 
L 226.662015 99.16563 
L 225.395152 98.866998 
L 224.12829 98.555835 
L 222.861428 98.250688 
L 221.594566 97.948579 
L 220.327704 97.641153 
L 219.060842 97.320052 
L 217.793979 96.976921 
L 216.527117 96.603402 
L 215.260255 96.191138 
L 213.993393 95.731774 
L 212.726531 95.216952 
L 211.459669 94.638317 
L 210.192806 93.989538 
L 208.925944 93.28786 
L 207.659082 92.565731 
L 206.39222 91.855856 
L 205.125358 91.190939 
L 203.858496 90.603683 
L 202.591633 90.126792 
L 201.324771 89.79297 
L 200.057909 89.63492 
L 198.791047 89.685347 
L 197.524185 89.976385 
L 196.257323 90.506072 
L 194.99046 91.219592 
L 193.723598 92.057585 
L 192.456736 92.960688 
L 191.189874 93.86954 
L 189.923012 94.724779 
L 188.65615 95.467045 
L 187.389287 96.036974 
L 186.122425 96.375207 
L 184.855563 96.42238 
L 183.588701 96.138392 
L 182.321839 95.560178 
L 181.054977 94.743933 
L 179.788114 93.745849 
L 178.521252 92.622123 
L 177.25439 91.428947 
L 175.987528 90.222517 
L 174.720666 89.059026 
L 173.453803 87.99467 
L 172.186941 87.085641 
L 170.920079 86.383473 
L 169.653217 85.885504 
L 168.386355 85.554105 
L 167.119493 85.351067 
L 165.85263 85.238181 
L 164.585768 85.177238 
L 163.318906 85.130026 
L 162.052044 85.058337 
L 160.785182 84.92396 
L 159.51832 84.688687 
L 158.251457 84.314917 
L 156.984595 83.801703 
L 155.717733 83.204904 
L 154.450871 82.585264 
L 153.184009 82.00353 
L 151.917147 81.520448 
L 150.650284 81.196762 
L 149.383422 81.093219 
L 148.11656 81.270565 
L 146.849698 81.789544 
L 145.582836 82.710903 
L 144.315974 84.069899 
L 143.049111 85.799843 
L 141.782249 87.808555 
L 140.515387 90.003858 
L 139.248525 92.293573 
L 137.981663 94.585521 
L 136.714801 96.787525 
L 135.447938 98.807406 
L 134.181076 100.552986 
L 132.914214 101.932086 
L 131.647352 102.858295 
L 130.38049 103.312227 
L 129.113628 103.31774 
L 127.846765 102.899415 
L 126.579903 102.081831 
L 125.313041 100.889566 
L 124.046179 99.347201 
L 122.779317 97.479315 
L 121.512455 95.310487 
L 120.245592 92.865297 
L 118.97873 90.168716 
L 117.711868 87.269293 
L 116.445006 84.252116 
L 115.178144 81.205417 
L 113.911282 78.217429 
L 112.644419 75.376384 
L 111.377557 72.770514 
L 110.110695 70.488052 
L 108.843833 68.617229 
L 107.576971 67.246278 
L 106.310108 66.463431 
L 105.043246 66.325047 
L 103.776384 66.759986 
L 102.509522 67.665235 
L 101.24266 68.937782 
L 99.975798 70.474615 
L 98.708935 72.172719 
L 97.442073 73.929082 
L 96.175211 75.640692 
L 94.908349 77.204535 
L 93.641487 78.517598 
L 92.374625 79.485361 
L 91.107762 80.112017 
L 89.8409 80.465447 
L 88.574038 80.614593 
L 87.307176 80.628398 
L 86.040314 80.575803 
L 84.773452 80.525751 
L 83.506589 80.547185 
L 82.239727 80.709046 
L 80.972865 81.080278 
L 79.706003 81.72878 
L 78.439141 82.659974 
L 77.172279 83.782436 
L 75.905416 84.996411 
L 74.638554 86.202145 
L 73.371692 87.299882 
L 72.10483 88.18987 
L 70.837968 88.772352 
L 69.571106 88.947575 
L 68.304243 88.615784 
L 67.037381 87.677225 
L 65.770519 86.071193 
L 64.503657 83.893185 
L 63.236795 81.277747 
L 61.969933 78.359428 
L 60.70307 75.272775 
L 59.436208 72.152333 
L 58.169346 69.132651 
L 56.902484 66.348275 
L 55.635622 63.933753 
L 54.36876 62.023631 
L 53.101897 60.742396 
L 51.835035 60.097578 
L 50.568173 60.02125 
L 49.301311 60.444229 
L 48.034449 61.297331 
L 46.767586 62.511373 
L 45.500724 64.01717 
L 44.233862 65.745539 
L 42.967 67.627297 
L 41.700138 69.593259 
L 40.433276 71.574243 
L 39.166413 73.501063 
L 37.899551 75.304538 
L 36.632689 76.915482 
L 35.365827 78.264713 
L 34.098965 79.283046 
L 32.832103 79.901298 
L 31.56524 80.050285 
L 30.298378 79.660823 
L 29.031516 78.66373 
L 27.764654 76.98982 
z
" clip-path="url(#p3df5457890)" style="fill: #aec7e8"/>
   </g>
   <g id="matplotlib.axis_1">
    <g id="xtick_1">
     <g id="line2d_1">
      <defs>
       <path id="mb0cb0163ae" d="M 0 0 
L 0 3.5 
" style="stroke: #000000; stroke-width: 0.8"/>
      </defs>
      <g>
       <use xlink:href="#mb0cb0163ae" x="27.764654" y="314.12125" style="stroke: #000000; stroke-width: 0.8"/>
      </g>
     </g>
     <g id="text_1">
      <!-- 1959 -->
      <g transform="translate(12.109973 340.173358) rotate(-45) scale(0.1 -0.1)">
       <defs>
        <path id="TimesNewRomanPSMT-31" d="M 750 3822 
L 1781 4325 
L 1884 4325 
L 1884 747 
Q 1884 391 1914 303 
Q 1944 216 2037 169 
Q 2131 122 2419 116 
L 2419 0 
L 825 0 
L 825 116 
Q 1125 122 1212 167 
Q 1300 213 1334 289 
Q 1369 366 1369 747 
L 1369 3034 
Q 1369 3497 1338 3628 
Q 1316 3728 1258 3775 
Q 1200 3822 1119 3822 
Q 1003 3822 797 3725 
L 750 3822 
z
" transform="scale(0.015625)"/>
        <path id="TimesNewRomanPSMT-39" d="M 338 -88 
L 338 28 
Q 744 34 1094 217 
Q 1444 400 1770 856 
Q 2097 1313 2225 1859 
Q 1734 1544 1338 1544 
Q 891 1544 572 1889 
Q 253 2234 253 2806 
Q 253 3363 572 3797 
Q 956 4325 1575 4325 
Q 2097 4325 2469 3894 
Q 2925 3359 2925 2575 
Q 2925 1869 2578 1258 
Q 2231 647 1613 244 
Q 1109 -88 516 -88 
L 338 -88 
z
M 2275 2091 
Q 2331 2497 2331 2741 
Q 2331 3044 2228 3395 
Q 2125 3747 1936 3934 
Q 1747 4122 1506 4122 
Q 1228 4122 1018 3872 
Q 809 3622 809 3128 
Q 809 2469 1088 2097 
Q 1291 1828 1588 1828 
Q 1731 1828 1928 1897 
Q 2125 1966 2275 2091 
z
" transform="scale(0.015625)"/>
        <path id="TimesNewRomanPSMT-35" d="M 2778 4238 
L 2534 3706 
L 1259 3706 
L 981 3138 
Q 1809 3016 2294 2522 
Q 2709 2097 2709 1522 
Q 2709 1188 2573 903 
Q 2438 619 2231 419 
Q 2025 219 1772 97 
Q 1413 -75 1034 -75 
Q 653 -75 479 54 
Q 306 184 306 341 
Q 306 428 378 495 
Q 450 563 559 563 
Q 641 563 702 538 
Q 763 513 909 409 
Q 1144 247 1384 247 
Q 1750 247 2026 523 
Q 2303 800 2303 1197 
Q 2303 1581 2056 1914 
Q 1809 2247 1375 2428 
Q 1034 2569 447 2591 
L 1259 4238 
L 2778 4238 
z
" transform="scale(0.015625)"/>
       </defs>
       <use xlink:href="#TimesNewRomanPSMT-31"/>
       <use xlink:href="#TimesNewRomanPSMT-39" transform="translate(50 0)"/>
       <use xlink:href="#TimesNewRomanPSMT-35" transform="translate(100 0)"/>
       <use xlink:href="#TimesNewRomanPSMT-39" transform="translate(150 0)"/>
      </g>
     </g>
    </g>
    <g id="xtick_2">
     <g id="line2d_2">
      <g>
       <use xlink:href="#mb0cb0163ae" x="53.946472" y="314.12125" style="stroke: #000000; stroke-width: 0.8"/>
      </g>
     </g>
     <g id="text_2">
      <!-- 1961 -->
      <g transform="translate(38.291791 340.173358) rotate(-45) scale(0.1 -0.1)">
       <defs>
        <path id="TimesNewRomanPSMT-36" d="M 2869 4325 
L 2869 4209 
Q 2456 4169 2195 4045 
Q 1934 3922 1679 3669 
Q 1425 3416 1258 3105 
Q 1091 2794 978 2366 
Q 1428 2675 1881 2675 
Q 2316 2675 2634 2325 
Q 2953 1975 2953 1425 
Q 2953 894 2631 456 
Q 2244 -75 1606 -75 
Q 1172 -75 869 213 
Q 275 772 275 1663 
Q 275 2231 503 2743 
Q 731 3256 1154 3653 
Q 1578 4050 1965 4187 
Q 2353 4325 2688 4325 
L 2869 4325 
z
M 925 2138 
Q 869 1716 869 1456 
Q 869 1156 980 804 
Q 1091 453 1309 247 
Q 1469 100 1697 100 
Q 1969 100 2183 356 
Q 2397 613 2397 1088 
Q 2397 1622 2184 2012 
Q 1972 2403 1581 2403 
Q 1463 2403 1327 2353 
Q 1191 2303 925 2138 
z
" transform="scale(0.015625)"/>
       </defs>
       <use xlink:href="#TimesNewRomanPSMT-31"/>
       <use xlink:href="#TimesNewRomanPSMT-39" transform="translate(50 0)"/>
       <use xlink:href="#TimesNewRomanPSMT-36" transform="translate(100 0)"/>
       <use xlink:href="#TimesNewRomanPSMT-31" transform="translate(150 0)"/>
      </g>
     </g>
    </g>
    <g id="xtick_3">
     <g id="line2d_3">
      <g>
       <use xlink:href="#mb0cb0163ae" x="80.12829" y="314.12125" style="stroke: #000000; stroke-width: 0.8"/>
      </g>
     </g>
     <g id="text_3">
      <!-- 1963 -->
      <g transform="translate(64.473609 340.173358) rotate(-45) scale(0.1 -0.1)">
       <defs>
        <path id="TimesNewRomanPSMT-33" d="M 325 3431 
Q 506 3859 782 4092 
Q 1059 4325 1472 4325 
Q 1981 4325 2253 3994 
Q 2459 3747 2459 3466 
Q 2459 3003 1878 2509 
Q 2269 2356 2469 2072 
Q 2669 1788 2669 1403 
Q 2669 853 2319 450 
Q 1863 -75 997 -75 
Q 569 -75 414 31 
Q 259 138 259 259 
Q 259 350 332 419 
Q 406 488 509 488 
Q 588 488 669 463 
Q 722 447 909 348 
Q 1097 250 1169 231 
Q 1284 197 1416 197 
Q 1734 197 1970 444 
Q 2206 691 2206 1028 
Q 2206 1275 2097 1509 
Q 2016 1684 1919 1775 
Q 1784 1900 1550 2001 
Q 1316 2103 1072 2103 
L 972 2103 
L 972 2197 
Q 1219 2228 1467 2375 
Q 1716 2522 1828 2728 
Q 1941 2934 1941 3181 
Q 1941 3503 1739 3701 
Q 1538 3900 1238 3900 
Q 753 3900 428 3381 
L 325 3431 
z
" transform="scale(0.015625)"/>
       </defs>
       <use xlink:href="#TimesNewRomanPSMT-31"/>
       <use xlink:href="#TimesNewRomanPSMT-39" transform="translate(50 0)"/>
       <use xlink:href="#TimesNewRomanPSMT-36" transform="translate(100 0)"/>
       <use xlink:href="#TimesNewRomanPSMT-33" transform="translate(150 0)"/>
      </g>
     </g>
    </g>
    <g id="xtick_4">
     <g id="line2d_4">
      <g>
       <use xlink:href="#mb0cb0163ae" x="106.310108" y="314.12125" style="stroke: #000000; stroke-width: 0.8"/>
      </g>
     </g>
     <g id="text_4">
      <!-- 1965 -->
      <g transform="translate(90.655427 340.173358) rotate(-45) scale(0.1 -0.1)">
       <use xlink:href="#TimesNewRomanPSMT-31"/>
       <use xlink:href="#TimesNewRomanPSMT-39" transform="translate(50 0)"/>
       <use xlink:href="#TimesNewRomanPSMT-36" transform="translate(100 0)"/>
       <use xlink:href="#TimesNewRomanPSMT-35" transform="translate(150 0)"/>
      </g>
     </g>
    </g>
    <g id="xtick_5">
     <g id="line2d_5">
      <g>
       <use xlink:href="#mb0cb0163ae" x="132.491927" y="314.12125" style="stroke: #000000; stroke-width: 0.8"/>
      </g>
     </g>
     <g id="text_5">
      <!-- 1967 -->
      <g transform="translate(116.837245 340.173358) rotate(-45) scale(0.1 -0.1)">
       <defs>
        <path id="TimesNewRomanPSMT-37" d="M 644 4238 
L 2916 4238 
L 2916 4119 
L 1503 -88 
L 1153 -88 
L 2419 3728 
L 1253 3728 
Q 900 3728 750 3644 
Q 488 3500 328 3200 
L 238 3234 
L 644 4238 
z
" transform="scale(0.015625)"/>
       </defs>
       <use xlink:href="#TimesNewRomanPSMT-31"/>
       <use xlink:href="#TimesNewRomanPSMT-39" transform="translate(50 0)"/>
       <use xlink:href="#TimesNewRomanPSMT-36" transform="translate(100 0)"/>
       <use xlink:href="#TimesNewRomanPSMT-37" transform="translate(150 0)"/>
      </g>
     </g>
    </g>
    <g id="xtick_6">
     <g id="line2d_6">
      <g>
       <use xlink:href="#mb0cb0163ae" x="158.673745" y="314.12125" style="stroke: #000000; stroke-width: 0.8"/>
      </g>
     </g>
     <g id="text_6">
      <!-- 1969 -->
      <g transform="translate(143.019064 340.173358) rotate(-45) scale(0.1 -0.1)">
       <use xlink:href="#TimesNewRomanPSMT-31"/>
       <use xlink:href="#TimesNewRomanPSMT-39" transform="translate(50 0)"/>
       <use xlink:href="#TimesNewRomanPSMT-36" transform="translate(100 0)"/>
       <use xlink:href="#TimesNewRomanPSMT-39" transform="translate(150 0)"/>
      </g>
     </g>
    </g>
    <g id="xtick_7">
     <g id="line2d_7">
      <g>
       <use xlink:href="#mb0cb0163ae" x="184.855563" y="314.12125" style="stroke: #000000; stroke-width: 0.8"/>
      </g>
     </g>
     <g id="text_7">
      <!-- 1971 -->
      <g transform="translate(169.200882 340.173358) rotate(-45) scale(0.1 -0.1)">
       <use xlink:href="#TimesNewRomanPSMT-31"/>
       <use xlink:href="#TimesNewRomanPSMT-39" transform="translate(50 0)"/>
       <use xlink:href="#TimesNewRomanPSMT-37" transform="translate(100 0)"/>
       <use xlink:href="#TimesNewRomanPSMT-31" transform="translate(150 0)"/>
      </g>
     </g>
    </g>
    <g id="xtick_8">
     <g id="line2d_8">
      <g>
       <use xlink:href="#mb0cb0163ae" x="211.037381" y="314.12125" style="stroke: #000000; stroke-width: 0.8"/>
      </g>
     </g>
     <g id="text_8">
      <!-- 1973 -->
      <g transform="translate(195.3827 340.173358) rotate(-45) scale(0.1 -0.1)">
       <use xlink:href="#TimesNewRomanPSMT-31"/>
       <use xlink:href="#TimesNewRomanPSMT-39" transform="translate(50 0)"/>
       <use xlink:href="#TimesNewRomanPSMT-37" transform="translate(100 0)"/>
       <use xlink:href="#TimesNewRomanPSMT-33" transform="translate(150 0)"/>
      </g>
     </g>
    </g>
    <g id="xtick_9">
     <g id="line2d_9">
      <g>
       <use xlink:href="#mb0cb0163ae" x="237.219199" y="314.12125" style="stroke: #000000; stroke-width: 0.8"/>
      </g>
     </g>
     <g id="text_9">
      <!-- 1975 -->
      <g transform="translate(221.564518 340.173358) rotate(-45) scale(0.1 -0.1)">
       <use xlink:href="#TimesNewRomanPSMT-31"/>
       <use xlink:href="#TimesNewRomanPSMT-39" transform="translate(50 0)"/>
       <use xlink:href="#TimesNewRomanPSMT-37" transform="translate(100 0)"/>
       <use xlink:href="#TimesNewRomanPSMT-35" transform="translate(150 0)"/>
      </g>
     </g>
    </g>
    <g id="xtick_10">
     <g id="line2d_10">
      <g>
       <use xlink:href="#mb0cb0163ae" x="263.401018" y="314.12125" style="stroke: #000000; stroke-width: 0.8"/>
      </g>
     </g>
     <g id="text_10">
      <!-- 1977 -->
      <g transform="translate(247.746336 340.173358) rotate(-45) scale(0.1 -0.1)">
       <use xlink:href="#TimesNewRomanPSMT-31"/>
       <use xlink:href="#TimesNewRomanPSMT-39" transform="translate(50 0)"/>
       <use xlink:href="#TimesNewRomanPSMT-37" transform="translate(100 0)"/>
       <use xlink:href="#TimesNewRomanPSMT-37" transform="translate(150 0)"/>
      </g>
     </g>
    </g>
    <g id="xtick_11">
     <g id="line2d_11">
      <g>
       <use xlink:href="#mb0cb0163ae" x="289.582836" y="314.12125" style="stroke: #000000; stroke-width: 0.8"/>
      </g>
     </g>
     <g id="text_11">
      <!-- 1979 -->
      <g transform="translate(273.928155 340.173358) rotate(-45) scale(0.1 -0.1)">
       <use xlink:href="#TimesNewRomanPSMT-31"/>
       <use xlink:href="#TimesNewRomanPSMT-39" transform="translate(50 0)"/>
       <use xlink:href="#TimesNewRomanPSMT-37" transform="translate(100 0)"/>
       <use xlink:href="#TimesNewRomanPSMT-39" transform="translate(150 0)"/>
      </g>
     </g>
    </g>
    <g id="xtick_12">
     <g id="line2d_12">
      <g>
       <use xlink:href="#mb0cb0163ae" x="315.764654" y="314.12125" style="stroke: #000000; stroke-width: 0.8"/>
      </g>
     </g>
     <g id="text_12">
      <!-- 1981 -->
      <g transform="translate(300.109973 340.173358) rotate(-45) scale(0.1 -0.1)">
       <defs>
        <path id="TimesNewRomanPSMT-38" d="M 1228 2134 
Q 725 2547 579 2797 
Q 434 3047 434 3316 
Q 434 3728 753 4026 
Q 1072 4325 1600 4325 
Q 2113 4325 2425 4047 
Q 2738 3769 2738 3413 
Q 2738 3175 2569 2928 
Q 2400 2681 1866 2347 
Q 2416 1922 2594 1678 
Q 2831 1359 2831 1006 
Q 2831 559 2490 242 
Q 2150 -75 1597 -75 
Q 994 -75 656 303 
Q 388 606 388 966 
Q 388 1247 577 1523 
Q 766 1800 1228 2134 
z
M 1719 2469 
Q 2094 2806 2194 3001 
Q 2294 3197 2294 3444 
Q 2294 3772 2109 3958 
Q 1925 4144 1606 4144 
Q 1288 4144 1088 3959 
Q 888 3775 888 3528 
Q 888 3366 970 3203 
Q 1053 3041 1206 2894 
L 1719 2469 
z
M 1375 2016 
Q 1116 1797 991 1539 
Q 866 1281 866 981 
Q 866 578 1086 336 
Q 1306 94 1647 94 
Q 1984 94 2187 284 
Q 2391 475 2391 747 
Q 2391 972 2272 1150 
Q 2050 1481 1375 2016 
z
" transform="scale(0.015625)"/>
       </defs>
       <use xlink:href="#TimesNewRomanPSMT-31"/>
       <use xlink:href="#TimesNewRomanPSMT-39" transform="translate(50 0)"/>
       <use xlink:href="#TimesNewRomanPSMT-38" transform="translate(100 0)"/>
       <use xlink:href="#TimesNewRomanPSMT-31" transform="translate(150 0)"/>
      </g>
     </g>
    </g>
    <g id="xtick_13">
     <g id="line2d_13">
      <g>
       <use xlink:href="#mb0cb0163ae" x="341.946472" y="314.12125" style="stroke: #000000; stroke-width: 0.8"/>
      </g>
     </g>
     <g id="text_13">
      <!-- 1983 -->
      <g transform="translate(326.291791 340.173358) rotate(-45) scale(0.1 -0.1)">
       <use xlink:href="#TimesNewRomanPSMT-31"/>
       <use xlink:href="#TimesNewRomanPSMT-39" transform="translate(50 0)"/>
       <use xlink:href="#TimesNewRomanPSMT-38" transform="translate(100 0)"/>
       <use xlink:href="#TimesNewRomanPSMT-33" transform="translate(150 0)"/>
      </g>
     </g>
    </g>
    <g id="xtick_14">
     <g id="line2d_14">
      <g>
       <use xlink:href="#mb0cb0163ae" x="368.12829" y="314.12125" style="stroke: #000000; stroke-width: 0.8"/>
      </g>
     </g>
     <g id="text_14">
      <!-- 1985 -->
      <g transform="translate(352.473609 340.173358) rotate(-45) scale(0.1 -0.1)">
       <use xlink:href="#TimesNewRomanPSMT-31"/>
       <use xlink:href="#TimesNewRomanPSMT-39" transform="translate(50 0)"/>
       <use xlink:href="#TimesNewRomanPSMT-38" transform="translate(100 0)"/>
       <use xlink:href="#TimesNewRomanPSMT-35" transform="translate(150 0)"/>
      </g>
     </g>
    </g>
    <g id="text_15">
     <!-- Year -->
     <g transform="translate(193.434114 354.018404) scale(0.12 -0.12)">
      <defs>
       <path id="TimesNewRomanPSMT-59" d="M 3050 4238 
L 4528 4238 
L 4528 4122 
L 4447 4122 
Q 4366 4122 4209 4050 
Q 4053 3978 3925 3843 
Q 3797 3709 3609 3406 
L 2588 1797 
L 2588 734 
Q 2588 344 2675 247 
Q 2794 116 3050 116 
L 3188 116 
L 3188 0 
L 1388 0 
L 1388 116 
L 1538 116 
Q 1806 116 1919 278 
Q 1988 378 1988 734 
L 1988 1738 
L 825 3513 
Q 619 3825 545 3903 
Q 472 3981 241 4091 
Q 178 4122 59 4122 
L 59 4238 
L 1872 4238 
L 1872 4122 
L 1778 4122 
Q 1631 4122 1507 4053 
Q 1384 3984 1384 3847 
Q 1384 3734 1575 3441 
L 2459 2075 
L 3291 3381 
Q 3478 3675 3478 3819 
Q 3478 3906 3433 3975 
Q 3388 4044 3303 4083 
Q 3219 4122 3050 4122 
L 3050 4238 
z
" transform="scale(0.015625)"/>
       <path id="TimesNewRomanPSMT-65" d="M 681 1784 
Q 678 1147 991 784 
Q 1303 422 1725 422 
Q 2006 422 2214 576 
Q 2422 731 2563 1106 
L 2659 1044 
Q 2594 616 2278 264 
Q 1963 -88 1488 -88 
Q 972 -88 605 314 
Q 238 716 238 1394 
Q 238 2128 614 2539 
Q 991 2950 1559 2950 
Q 2041 2950 2350 2633 
Q 2659 2316 2659 1784 
L 681 1784 
z
M 681 1966 
L 2006 1966 
Q 1991 2241 1941 2353 
Q 1863 2528 1708 2628 
Q 1553 2728 1384 2728 
Q 1125 2728 920 2526 
Q 716 2325 681 1966 
z
" transform="scale(0.015625)"/>
       <path id="TimesNewRomanPSMT-61" d="M 1822 413 
Q 1381 72 1269 19 
Q 1100 -59 909 -59 
Q 613 -59 420 144 
Q 228 347 228 678 
Q 228 888 322 1041 
Q 450 1253 767 1440 
Q 1084 1628 1822 1897 
L 1822 2009 
Q 1822 2438 1686 2597 
Q 1550 2756 1291 2756 
Q 1094 2756 978 2650 
Q 859 2544 859 2406 
L 866 2225 
Q 866 2081 792 2003 
Q 719 1925 600 1925 
Q 484 1925 411 2006 
Q 338 2088 338 2228 
Q 338 2497 613 2722 
Q 888 2947 1384 2947 
Q 1766 2947 2009 2819 
Q 2194 2722 2281 2516 
Q 2338 2381 2338 1966 
L 2338 994 
Q 2338 584 2353 492 
Q 2369 400 2405 369 
Q 2441 338 2488 338 
Q 2538 338 2575 359 
Q 2641 400 2828 588 
L 2828 413 
Q 2478 -56 2159 -56 
Q 2006 -56 1915 50 
Q 1825 156 1822 413 
z
M 1822 616 
L 1822 1706 
Q 1350 1519 1213 1441 
Q 966 1303 859 1153 
Q 753 1003 753 825 
Q 753 600 887 451 
Q 1022 303 1197 303 
Q 1434 303 1822 616 
z
" transform="scale(0.015625)"/>
       <path id="TimesNewRomanPSMT-72" d="M 1038 2947 
L 1038 2303 
Q 1397 2947 1775 2947 
Q 1947 2947 2059 2842 
Q 2172 2738 2172 2600 
Q 2172 2478 2090 2393 
Q 2009 2309 1897 2309 
Q 1788 2309 1652 2417 
Q 1516 2525 1450 2525 
Q 1394 2525 1328 2463 
Q 1188 2334 1038 2041 
L 1038 669 
Q 1038 431 1097 309 
Q 1138 225 1241 169 
Q 1344 113 1538 113 
L 1538 0 
L 72 0 
L 72 113 
Q 291 113 397 181 
Q 475 231 506 341 
Q 522 394 522 644 
L 522 1753 
Q 522 2253 501 2348 
Q 481 2444 426 2487 
Q 372 2531 291 2531 
Q 194 2531 72 2484 
L 41 2597 
L 906 2947 
L 1038 2947 
z
" transform="scale(0.015625)"/>
      </defs>
      <use xlink:href="#TimesNewRomanPSMT-59"/>
      <use xlink:href="#TimesNewRomanPSMT-65" transform="translate(62.216797 0)"/>
      <use xlink:href="#TimesNewRomanPSMT-61" transform="translate(106.601562 0)"/>
      <use xlink:href="#TimesNewRomanPSMT-72" transform="translate(150.986328 0)"/>
     </g>
    </g>
   </g>
   <g id="patch_3">
    <path d="M 10.091927 314.12125 
L 10.091927 36.92125 
" style="fill: none; stroke: #000000; stroke-width: 0.8; stroke-linejoin: miter; stroke-linecap: square"/>
   </g>
   <g id="patch_4">
    <path d="M 398.891927 314.12125 
L 398.891927 36.92125 
" style="fill: none; stroke: #000000; stroke-width: 0.8; stroke-linejoin: miter; stroke-linecap: square"/>
   </g>
   <g id="patch_5">
    <path d="M 10.091927 314.12125 
L 398.891927 314.12125 
" style="fill: none; stroke: #000000; stroke-width: 0.8; stroke-linejoin: miter; stroke-linecap: square"/>
   </g>
   <g id="patch_6">
    <path d="M 10.091927 36.92125 
L 398.891927 36.92125 
" style="fill: none; stroke: #000000; stroke-width: 0.8; stroke-linejoin: miter; stroke-linecap: square"/>
   </g>
   <g id="text_16">
    <!-- Publication Count from 1959 to 1986 (papers)  -->
    <g transform="translate(73.259427 16.92125) scale(0.14 -0.14)">
     <defs>
      <path id="TimesNewRomanPSMT-50" d="M 1313 1984 
L 1313 750 
Q 1313 350 1400 253 
Q 1519 116 1759 116 
L 1922 116 
L 1922 0 
L 106 0 
L 106 116 
L 266 116 
Q 534 116 650 291 
Q 713 388 713 750 
L 713 3488 
Q 713 3888 628 3984 
Q 506 4122 266 4122 
L 106 4122 
L 106 4238 
L 1659 4238 
Q 2228 4238 2556 4120 
Q 2884 4003 3109 3725 
Q 3334 3447 3334 3066 
Q 3334 2547 2992 2222 
Q 2650 1897 2025 1897 
Q 1872 1897 1694 1919 
Q 1516 1941 1313 1984 
z
M 1313 2163 
Q 1478 2131 1606 2115 
Q 1734 2100 1825 2100 
Q 2150 2100 2386 2351 
Q 2622 2603 2622 3003 
Q 2622 3278 2509 3514 
Q 2397 3750 2190 3867 
Q 1984 3984 1722 3984 
Q 1563 3984 1313 3925 
L 1313 2163 
z
" transform="scale(0.015625)"/>
      <path id="TimesNewRomanPSMT-75" d="M 2709 2863 
L 2709 1128 
Q 2709 631 2732 520 
Q 2756 409 2807 365 
Q 2859 322 2928 322 
Q 3025 322 3147 375 
L 3191 266 
L 2334 -88 
L 2194 -88 
L 2194 519 
Q 1825 119 1631 15 
Q 1438 -88 1222 -88 
Q 981 -88 804 51 
Q 628 191 559 409 
Q 491 628 491 1028 
L 491 2306 
Q 491 2509 447 2587 
Q 403 2666 317 2708 
Q 231 2750 6 2747 
L 6 2863 
L 1009 2863 
L 1009 947 
Q 1009 547 1148 422 
Q 1288 297 1484 297 
Q 1619 297 1789 381 
Q 1959 466 2194 703 
L 2194 2325 
Q 2194 2569 2105 2655 
Q 2016 2741 1734 2747 
L 1734 2863 
L 2709 2863 
z
" transform="scale(0.015625)"/>
      <path id="TimesNewRomanPSMT-62" d="M 984 2369 
Q 1400 2947 1881 2947 
Q 2322 2947 2650 2570 
Q 2978 2194 2978 1541 
Q 2978 778 2472 313 
Q 2038 -88 1503 -88 
Q 1253 -88 995 3 
Q 738 94 469 275 
L 469 3241 
Q 469 3728 445 3840 
Q 422 3953 372 3993 
Q 322 4034 247 4034 
Q 159 4034 28 3984 
L -16 4094 
L 844 4444 
L 984 4444 
L 984 2369 
z
M 984 2169 
L 984 456 
Q 1144 300 1314 220 
Q 1484 141 1663 141 
Q 1947 141 2192 453 
Q 2438 766 2438 1363 
Q 2438 1913 2192 2208 
Q 1947 2503 1634 2503 
Q 1469 2503 1303 2419 
Q 1178 2356 984 2169 
z
" transform="scale(0.015625)"/>
      <path id="TimesNewRomanPSMT-6c" d="M 1184 4444 
L 1184 647 
Q 1184 378 1223 290 
Q 1263 203 1344 158 
Q 1425 113 1647 113 
L 1647 0 
L 244 0 
L 244 113 
Q 441 113 512 153 
Q 584 194 625 287 
Q 666 381 666 647 
L 666 3247 
Q 666 3731 644 3842 
Q 622 3953 573 3993 
Q 525 4034 450 4034 
Q 369 4034 244 3984 
L 191 4094 
L 1044 4444 
L 1184 4444 
z
" transform="scale(0.015625)"/>
      <path id="TimesNewRomanPSMT-69" d="M 928 4444 
Q 1059 4444 1151 4351 
Q 1244 4259 1244 4128 
Q 1244 3997 1151 3903 
Q 1059 3809 928 3809 
Q 797 3809 703 3903 
Q 609 3997 609 4128 
Q 609 4259 701 4351 
Q 794 4444 928 4444 
z
M 1188 2947 
L 1188 647 
Q 1188 378 1227 289 
Q 1266 200 1342 156 
Q 1419 113 1622 113 
L 1622 0 
L 231 0 
L 231 113 
Q 441 113 512 153 
Q 584 194 626 287 
Q 669 381 669 647 
L 669 1750 
Q 669 2216 641 2353 
Q 619 2453 572 2492 
Q 525 2531 444 2531 
Q 356 2531 231 2484 
L 188 2597 
L 1050 2947 
L 1188 2947 
z
" transform="scale(0.015625)"/>
      <path id="TimesNewRomanPSMT-63" d="M 2631 1088 
Q 2516 522 2178 217 
Q 1841 -88 1431 -88 
Q 944 -88 581 321 
Q 219 731 219 1428 
Q 219 2103 620 2525 
Q 1022 2947 1584 2947 
Q 2006 2947 2278 2723 
Q 2550 2500 2550 2259 
Q 2550 2141 2473 2067 
Q 2397 1994 2259 1994 
Q 2075 1994 1981 2113 
Q 1928 2178 1911 2362 
Q 1894 2547 1784 2644 
Q 1675 2738 1481 2738 
Q 1169 2738 978 2506 
Q 725 2200 725 1697 
Q 725 1184 976 792 
Q 1228 400 1656 400 
Q 1963 400 2206 609 
Q 2378 753 2541 1131 
L 2631 1088 
z
" transform="scale(0.015625)"/>
      <path id="TimesNewRomanPSMT-74" d="M 1031 3803 
L 1031 2863 
L 1700 2863 
L 1700 2644 
L 1031 2644 
L 1031 788 
Q 1031 509 1111 412 
Q 1191 316 1316 316 
Q 1419 316 1516 380 
Q 1613 444 1666 569 
L 1788 569 
Q 1678 263 1478 108 
Q 1278 -47 1066 -47 
Q 922 -47 784 33 
Q 647 113 581 261 
Q 516 409 516 719 
L 516 2644 
L 63 2644 
L 63 2747 
Q 234 2816 414 2980 
Q 594 3144 734 3369 
Q 806 3488 934 3803 
L 1031 3803 
z
" transform="scale(0.015625)"/>
      <path id="TimesNewRomanPSMT-6f" d="M 1600 2947 
Q 2250 2947 2644 2453 
Q 2978 2031 2978 1484 
Q 2978 1100 2793 706 
Q 2609 313 2286 112 
Q 1963 -88 1566 -88 
Q 919 -88 538 428 
Q 216 863 216 1403 
Q 216 1797 411 2186 
Q 606 2575 925 2761 
Q 1244 2947 1600 2947 
z
M 1503 2744 
Q 1338 2744 1170 2645 
Q 1003 2547 900 2300 
Q 797 2053 797 1666 
Q 797 1041 1045 587 
Q 1294 134 1700 134 
Q 2003 134 2200 384 
Q 2397 634 2397 1244 
Q 2397 2006 2069 2444 
Q 1847 2744 1503 2744 
z
" transform="scale(0.015625)"/>
      <path id="TimesNewRomanPSMT-6e" d="M 1034 2341 
Q 1538 2947 1994 2947 
Q 2228 2947 2397 2830 
Q 2566 2713 2666 2444 
Q 2734 2256 2734 1869 
L 2734 647 
Q 2734 375 2778 278 
Q 2813 200 2889 156 
Q 2966 113 3172 113 
L 3172 0 
L 1756 0 
L 1756 113 
L 1816 113 
Q 2016 113 2095 173 
Q 2175 234 2206 353 
Q 2219 400 2219 647 
L 2219 1819 
Q 2219 2209 2117 2386 
Q 2016 2563 1775 2563 
Q 1403 2563 1034 2156 
L 1034 647 
Q 1034 356 1069 288 
Q 1113 197 1189 155 
Q 1266 113 1500 113 
L 1500 0 
L 84 0 
L 84 113 
L 147 113 
Q 366 113 442 223 
Q 519 334 519 647 
L 519 1709 
Q 519 2225 495 2337 
Q 472 2450 423 2490 
Q 375 2531 294 2531 
Q 206 2531 84 2484 
L 38 2597 
L 900 2947 
L 1034 2947 
L 1034 2341 
z
" transform="scale(0.015625)"/>
      <path id="TimesNewRomanPSMT-20" transform="scale(0.015625)"/>
      <path id="TimesNewRomanPSMT-43" d="M 3853 4334 
L 3950 2894 
L 3853 2894 
Q 3659 3541 3300 3825 
Q 2941 4109 2438 4109 
Q 2016 4109 1675 3895 
Q 1334 3681 1139 3212 
Q 944 2744 944 2047 
Q 944 1472 1128 1050 
Q 1313 628 1683 403 
Q 2053 178 2528 178 
Q 2941 178 3256 354 
Q 3572 531 3950 1056 
L 4047 994 
Q 3728 428 3303 165 
Q 2878 -97 2294 -97 
Q 1241 -97 663 684 
Q 231 1266 231 2053 
Q 231 2688 515 3219 
Q 800 3750 1298 4042 
Q 1797 4334 2388 4334 
Q 2847 4334 3294 4109 
Q 3425 4041 3481 4041 
Q 3566 4041 3628 4100 
Q 3709 4184 3744 4334 
L 3853 4334 
z
" transform="scale(0.015625)"/>
      <path id="TimesNewRomanPSMT-66" d="M 1319 2638 
L 1319 756 
Q 1319 356 1406 250 
Q 1522 113 1716 113 
L 1975 113 
L 1975 0 
L 266 0 
L 266 113 
L 394 113 
Q 519 113 622 175 
Q 725 238 764 344 
Q 803 450 803 756 
L 803 2638 
L 247 2638 
L 247 2863 
L 803 2863 
L 803 3050 
Q 803 3478 940 3775 
Q 1078 4072 1361 4255 
Q 1644 4438 1997 4438 
Q 2325 4438 2600 4225 
Q 2781 4084 2781 3909 
Q 2781 3816 2700 3733 
Q 2619 3650 2525 3650 
Q 2453 3650 2373 3701 
Q 2294 3753 2178 3923 
Q 2063 4094 1966 4153 
Q 1869 4213 1750 4213 
Q 1606 4213 1506 4136 
Q 1406 4059 1362 3898 
Q 1319 3738 1319 3069 
L 1319 2863 
L 2056 2863 
L 2056 2638 
L 1319 2638 
z
" transform="scale(0.015625)"/>
      <path id="TimesNewRomanPSMT-6d" d="M 1050 2338 
Q 1363 2650 1419 2697 
Q 1559 2816 1721 2881 
Q 1884 2947 2044 2947 
Q 2313 2947 2506 2790 
Q 2700 2634 2766 2338 
Q 3088 2713 3309 2830 
Q 3531 2947 3766 2947 
Q 3994 2947 4170 2830 
Q 4347 2713 4450 2447 
Q 4519 2266 4519 1878 
L 4519 647 
Q 4519 378 4559 278 
Q 4591 209 4675 161 
Q 4759 113 4950 113 
L 4950 0 
L 3538 0 
L 3538 113 
L 3597 113 
Q 3781 113 3884 184 
Q 3956 234 3988 344 
Q 4000 397 4000 647 
L 4000 1878 
Q 4000 2228 3916 2372 
Q 3794 2572 3525 2572 
Q 3359 2572 3192 2489 
Q 3025 2406 2788 2181 
L 2781 2147 
L 2788 2013 
L 2788 647 
Q 2788 353 2820 281 
Q 2853 209 2943 161 
Q 3034 113 3253 113 
L 3253 0 
L 1806 0 
L 1806 113 
Q 2044 113 2133 169 
Q 2222 225 2256 338 
Q 2272 391 2272 647 
L 2272 1878 
Q 2272 2228 2169 2381 
Q 2031 2581 1784 2581 
Q 1616 2581 1450 2491 
Q 1191 2353 1050 2181 
L 1050 647 
Q 1050 366 1089 281 
Q 1128 197 1204 155 
Q 1281 113 1516 113 
L 1516 0 
L 100 0 
L 100 113 
Q 297 113 375 155 
Q 453 197 493 289 
Q 534 381 534 647 
L 534 1741 
Q 534 2213 506 2350 
Q 484 2453 437 2492 
Q 391 2531 309 2531 
Q 222 2531 100 2484 
L 53 2597 
L 916 2947 
L 1050 2947 
L 1050 2338 
z
" transform="scale(0.015625)"/>
      <path id="TimesNewRomanPSMT-28" d="M 1988 -1253 
L 1988 -1369 
Q 1516 -1131 1200 -813 
Q 750 -359 506 256 
Q 263 872 263 1534 
Q 263 2503 741 3301 
Q 1219 4100 1988 4444 
L 1988 4313 
Q 1603 4100 1356 3731 
Q 1109 3363 987 2797 
Q 866 2231 866 1616 
Q 866 947 969 400 
Q 1050 -31 1165 -292 
Q 1281 -553 1476 -793 
Q 1672 -1034 1988 -1253 
z
" transform="scale(0.015625)"/>
      <path id="TimesNewRomanPSMT-70" d="M -6 2578 
L 875 2934 
L 994 2934 
L 994 2266 
Q 1216 2644 1439 2795 
Q 1663 2947 1909 2947 
Q 2341 2947 2628 2609 
Q 2981 2197 2981 1534 
Q 2981 794 2556 309 
Q 2206 -88 1675 -88 
Q 1444 -88 1275 -22 
Q 1150 25 994 166 
L 994 -706 
Q 994 -1000 1030 -1079 
Q 1066 -1159 1155 -1206 
Q 1244 -1253 1478 -1253 
L 1478 -1369 
L -22 -1369 
L -22 -1253 
L 56 -1253 
Q 228 -1256 350 -1188 
Q 409 -1153 442 -1076 
Q 475 -1000 475 -688 
L 475 2019 
Q 475 2297 450 2372 
Q 425 2447 370 2484 
Q 316 2522 222 2522 
Q 147 2522 31 2478 
L -6 2578 
z
M 994 2081 
L 994 1013 
Q 994 666 1022 556 
Q 1066 375 1236 237 
Q 1406 100 1666 100 
Q 1978 100 2172 344 
Q 2425 663 2425 1241 
Q 2425 1897 2138 2250 
Q 1938 2494 1663 2494 
Q 1513 2494 1366 2419 
Q 1253 2363 994 2081 
z
" transform="scale(0.015625)"/>
      <path id="TimesNewRomanPSMT-73" d="M 2050 2947 
L 2050 1972 
L 1947 1972 
Q 1828 2431 1642 2597 
Q 1456 2763 1169 2763 
Q 950 2763 815 2647 
Q 681 2531 681 2391 
Q 681 2216 781 2091 
Q 878 1963 1175 1819 
L 1631 1597 
Q 2266 1288 2266 781 
Q 2266 391 1970 151 
Q 1675 -88 1309 -88 
Q 1047 -88 709 6 
Q 606 38 541 38 
Q 469 38 428 -44 
L 325 -44 
L 325 978 
L 428 978 
Q 516 541 762 319 
Q 1009 97 1316 97 
Q 1531 97 1667 223 
Q 1803 350 1803 528 
Q 1803 744 1651 891 
Q 1500 1038 1047 1263 
Q 594 1488 453 1669 
Q 313 1847 313 2119 
Q 313 2472 555 2709 
Q 797 2947 1181 2947 
Q 1350 2947 1591 2875 
Q 1750 2828 1803 2828 
Q 1853 2828 1881 2850 
Q 1909 2872 1947 2947 
L 2050 2947 
z
" transform="scale(0.015625)"/>
      <path id="TimesNewRomanPSMT-29" d="M 144 4313 
L 144 4444 
Q 619 4209 934 3891 
Q 1381 3434 1625 2820 
Q 1869 2206 1869 1541 
Q 1869 572 1392 -226 
Q 916 -1025 144 -1369 
L 144 -1253 
Q 528 -1038 776 -670 
Q 1025 -303 1145 264 
Q 1266 831 1266 1447 
Q 1266 2113 1163 2663 
Q 1084 3094 967 3353 
Q 850 3613 656 3853 
Q 463 4094 144 4313 
z
" transform="scale(0.015625)"/>
     </defs>
     <use xlink:href="#TimesNewRomanPSMT-50"/>
     <use xlink:href="#TimesNewRomanPSMT-75" transform="translate(55.615234 0)"/>
     <use xlink:href="#TimesNewRomanPSMT-62" transform="translate(105.615234 0)"/>
     <use xlink:href="#TimesNewRomanPSMT-6c" transform="translate(155.615234 0)"/>
     <use xlink:href="#TimesNewRomanPSMT-69" transform="translate(183.398438 0)"/>
     <use xlink:href="#TimesNewRomanPSMT-63" transform="translate(211.181641 0)"/>
     <use xlink:href="#TimesNewRomanPSMT-61" transform="translate(255.566406 0)"/>
     <use xlink:href="#TimesNewRomanPSMT-74" transform="translate(299.951172 0)"/>
     <use xlink:href="#TimesNewRomanPSMT-69" transform="translate(327.734375 0)"/>
     <use xlink:href="#TimesNewRomanPSMT-6f" transform="translate(355.517578 0)"/>
     <use xlink:href="#TimesNewRomanPSMT-6e" transform="translate(405.517578 0)"/>
     <use xlink:href="#TimesNewRomanPSMT-20" transform="translate(455.517578 0)"/>
     <use xlink:href="#TimesNewRomanPSMT-43" transform="translate(480.517578 0)"/>
     <use xlink:href="#TimesNewRomanPSMT-6f" transform="translate(547.216797 0)"/>
     <use xlink:href="#TimesNewRomanPSMT-75" transform="translate(597.216797 0)"/>
     <use xlink:href="#TimesNewRomanPSMT-6e" transform="translate(647.216797 0)"/>
     <use xlink:href="#TimesNewRomanPSMT-74" transform="translate(697.216797 0)"/>
     <use xlink:href="#TimesNewRomanPSMT-20" transform="translate(725 0)"/>
     <use xlink:href="#TimesNewRomanPSMT-66" transform="translate(750 0)"/>
     <use xlink:href="#TimesNewRomanPSMT-72" transform="translate(783.300781 0)"/>
     <use xlink:href="#TimesNewRomanPSMT-6f" transform="translate(816.601562 0)"/>
     <use xlink:href="#TimesNewRomanPSMT-6d" transform="translate(866.601562 0)"/>
     <use xlink:href="#TimesNewRomanPSMT-20" transform="translate(944.384766 0)"/>
     <use xlink:href="#TimesNewRomanPSMT-31" transform="translate(969.384766 0)"/>
     <use xlink:href="#TimesNewRomanPSMT-39" transform="translate(1019.384766 0)"/>
     <use xlink:href="#TimesNewRomanPSMT-35" transform="translate(1069.384766 0)"/>
     <use xlink:href="#TimesNewRomanPSMT-39" transform="translate(1119.384766 0)"/>
     <use xlink:href="#TimesNewRomanPSMT-20" transform="translate(1169.384766 0)"/>
     <use xlink:href="#TimesNewRomanPSMT-74" transform="translate(1194.384766 0)"/>
     <use xlink:href="#TimesNewRomanPSMT-6f" transform="translate(1222.167969 0)"/>
     <use xlink:href="#TimesNewRomanPSMT-20" transform="translate(1272.167969 0)"/>
     <use xlink:href="#TimesNewRomanPSMT-31" transform="translate(1297.167969 0)"/>
     <use xlink:href="#TimesNewRomanPSMT-39" transform="translate(1347.167969 0)"/>
     <use xlink:href="#TimesNewRomanPSMT-38" transform="translate(1397.167969 0)"/>
     <use xlink:href="#TimesNewRomanPSMT-36" transform="translate(1447.167969 0)"/>
     <use xlink:href="#TimesNewRomanPSMT-20" transform="translate(1497.167969 0)"/>
     <use xlink:href="#TimesNewRomanPSMT-28" transform="translate(1522.167969 0)"/>
     <use xlink:href="#TimesNewRomanPSMT-70" transform="translate(1555.46875 0)"/>
     <use xlink:href="#TimesNewRomanPSMT-61" transform="translate(1605.46875 0)"/>
     <use xlink:href="#TimesNewRomanPSMT-70" transform="translate(1649.853516 0)"/>
     <use xlink:href="#TimesNewRomanPSMT-65" transform="translate(1699.853516 0)"/>
     <use xlink:href="#TimesNewRomanPSMT-72" transform="translate(1744.238281 0)"/>
     <use xlink:href="#TimesNewRomanPSMT-73" transform="translate(1777.539062 0)"/>
     <use xlink:href="#TimesNewRomanPSMT-29" transform="translate(1816.455078 0)"/>
     <use xlink:href="#TimesNewRomanPSMT-20" transform="translate(1849.755859 0)"/>
    </g>
   </g>
   <g id="legend_1">
    <g id="patch_7">
     <path d="M 415.667927 170.872812 
L 435.667927 170.872812 
L 435.667927 163.872812 
L 415.667927 163.872812 
z
" style="fill: #1f77b4"/>
    </g>
    <g id="text_17">
     <!-- Luminara Academy -->
     <g transform="translate(443.667927 170.872812) scale(0.1 -0.1)">
      <defs>
       <path id="TimesNewRomanPSMT-4c" d="M 3669 1172 
L 3772 1150 
L 3409 0 
L 128 0 
L 128 116 
L 288 116 
Q 556 116 672 291 
Q 738 391 738 753 
L 738 3488 
Q 738 3884 650 3984 
Q 528 4122 288 4122 
L 128 4122 
L 128 4238 
L 2047 4238 
L 2047 4122 
Q 1709 4125 1573 4059 
Q 1438 3994 1388 3894 
Q 1338 3794 1338 3416 
L 1338 753 
Q 1338 494 1388 397 
Q 1425 331 1503 300 
Q 1581 269 1991 269 
L 2300 269 
Q 2788 269 2984 341 
Q 3181 413 3343 595 
Q 3506 778 3669 1172 
z
" transform="scale(0.015625)"/>
       <path id="TimesNewRomanPSMT-41" d="M 2928 1419 
L 1288 1419 
L 1000 750 
Q 894 503 894 381 
Q 894 284 986 211 
Q 1078 138 1384 116 
L 1384 0 
L 50 0 
L 50 116 
Q 316 163 394 238 
Q 553 388 747 847 
L 2238 4334 
L 2347 4334 
L 3822 809 
Q 4000 384 4145 257 
Q 4291 131 4550 116 
L 4550 0 
L 2878 0 
L 2878 116 
Q 3131 128 3220 200 
Q 3309 272 3309 375 
Q 3309 513 3184 809 
L 2928 1419 
z
M 2841 1650 
L 2122 3363 
L 1384 1650 
L 2841 1650 
z
" transform="scale(0.015625)"/>
       <path id="TimesNewRomanPSMT-64" d="M 2222 322 
Q 2013 103 1813 7 
Q 1613 -88 1381 -88 
Q 913 -88 563 304 
Q 213 697 213 1313 
Q 213 1928 600 2439 
Q 988 2950 1597 2950 
Q 1975 2950 2222 2709 
L 2222 3238 
Q 2222 3728 2198 3840 
Q 2175 3953 2125 3993 
Q 2075 4034 2000 4034 
Q 1919 4034 1784 3984 
L 1744 4094 
L 2597 4444 
L 2738 4444 
L 2738 1134 
Q 2738 631 2761 520 
Q 2784 409 2836 365 
Q 2888 322 2956 322 
Q 3041 322 3181 375 
L 3216 266 
L 2366 -88 
L 2222 -88 
L 2222 322 
z
M 2222 541 
L 2222 2016 
Q 2203 2228 2109 2403 
Q 2016 2578 1861 2667 
Q 1706 2756 1559 2756 
Q 1284 2756 1069 2509 
Q 784 2184 784 1559 
Q 784 928 1059 592 
Q 1334 256 1672 256 
Q 1956 256 2222 541 
z
" transform="scale(0.015625)"/>
       <path id="TimesNewRomanPSMT-79" d="M 38 2863 
L 1372 2863 
L 1372 2747 
L 1306 2747 
Q 1166 2747 1095 2686 
Q 1025 2625 1025 2534 
Q 1025 2413 1128 2197 
L 1825 753 
L 2466 2334 
Q 2519 2463 2519 2588 
Q 2519 2644 2497 2672 
Q 2472 2706 2419 2726 
Q 2366 2747 2231 2747 
L 2231 2863 
L 3163 2863 
L 3163 2747 
Q 3047 2734 2984 2696 
Q 2922 2659 2847 2556 
Q 2819 2513 2741 2316 
L 1575 -541 
Q 1406 -956 1132 -1168 
Q 859 -1381 606 -1381 
Q 422 -1381 303 -1275 
Q 184 -1169 184 -1031 
Q 184 -900 270 -820 
Q 356 -741 506 -741 
Q 609 -741 788 -809 
Q 913 -856 944 -856 
Q 1038 -856 1148 -759 
Q 1259 -663 1372 -384 
L 1575 113 
L 547 2272 
Q 500 2369 397 2513 
Q 319 2622 269 2659 
Q 197 2709 38 2747 
L 38 2863 
z
" transform="scale(0.015625)"/>
      </defs>
      <use xlink:href="#TimesNewRomanPSMT-4c"/>
      <use xlink:href="#TimesNewRomanPSMT-75" transform="translate(61.083984 0)"/>
      <use xlink:href="#TimesNewRomanPSMT-6d" transform="translate(111.083984 0)"/>
      <use xlink:href="#TimesNewRomanPSMT-69" transform="translate(188.867188 0)"/>
      <use xlink:href="#TimesNewRomanPSMT-6e" transform="translate(216.650391 0)"/>
      <use xlink:href="#TimesNewRomanPSMT-61" transform="translate(266.650391 0)"/>
      <use xlink:href="#TimesNewRomanPSMT-72" transform="translate(311.035156 0)"/>
      <use xlink:href="#TimesNewRomanPSMT-61" transform="translate(344.335938 0)"/>
      <use xlink:href="#TimesNewRomanPSMT-20" transform="translate(388.720703 0)"/>
      <use xlink:href="#TimesNewRomanPSMT-41" transform="translate(408.220703 0)"/>
      <use xlink:href="#TimesNewRomanPSMT-63" transform="translate(480.4375 0)"/>
      <use xlink:href="#TimesNewRomanPSMT-61" transform="translate(524.822266 0)"/>
      <use xlink:href="#TimesNewRomanPSMT-64" transform="translate(569.207031 0)"/>
      <use xlink:href="#TimesNewRomanPSMT-65" transform="translate(619.207031 0)"/>
      <use xlink:href="#TimesNewRomanPSMT-6d" transform="translate(663.591797 0)"/>
      <use xlink:href="#TimesNewRomanPSMT-79" transform="translate(741.375 0)"/>
     </g>
    </g>
    <g id="patch_8">
     <path d="M 415.667927 185.030625 
L 435.667927 185.030625 
L 435.667927 178.030625 
L 415.667927 178.030625 
z
" style="fill: #aec7e8"/>
    </g>
    <g id="text_18">
     <!-- Nova Institute -->
     <g transform="translate(443.667927 185.030625) scale(0.1 -0.1)">
      <defs>
       <path id="TimesNewRomanPSMT-4e" d="M -84 4238 
L 1066 4238 
L 3656 1059 
L 3656 3503 
Q 3656 3894 3569 3991 
Q 3453 4122 3203 4122 
L 3056 4122 
L 3056 4238 
L 4531 4238 
L 4531 4122 
L 4381 4122 
Q 4113 4122 4000 3959 
Q 3931 3859 3931 3503 
L 3931 -69 
L 3819 -69 
L 1025 3344 
L 1025 734 
Q 1025 344 1109 247 
Q 1228 116 1475 116 
L 1625 116 
L 1625 0 
L 150 0 
L 150 116 
L 297 116 
Q 569 116 681 278 
Q 750 378 750 734 
L 750 3681 
Q 566 3897 470 3965 
Q 375 4034 191 4094 
Q 100 4122 -84 4122 
L -84 4238 
z
" transform="scale(0.015625)"/>
       <path id="TimesNewRomanPSMT-76" d="M 53 2863 
L 1400 2863 
L 1400 2747 
L 1313 2747 
Q 1191 2747 1127 2687 
Q 1063 2628 1063 2528 
Q 1063 2419 1128 2269 
L 1794 688 
L 2463 2328 
Q 2534 2503 2534 2594 
Q 2534 2638 2509 2666 
Q 2475 2713 2422 2730 
Q 2369 2747 2206 2747 
L 2206 2863 
L 3141 2863 
L 3141 2747 
Q 2978 2734 2916 2681 
Q 2806 2588 2719 2369 
L 1703 -88 
L 1575 -88 
L 553 2328 
Q 484 2497 421 2570 
Q 359 2644 263 2694 
Q 209 2722 53 2747 
L 53 2863 
z
" transform="scale(0.015625)"/>
       <path id="TimesNewRomanPSMT-49" d="M 1975 116 
L 1975 0 
L 159 0 
L 159 116 
L 309 116 
Q 572 116 691 269 
Q 766 369 766 750 
L 766 3488 
Q 766 3809 725 3913 
Q 694 3991 597 4047 
Q 459 4122 309 4122 
L 159 4122 
L 159 4238 
L 1975 4238 
L 1975 4122 
L 1822 4122 
Q 1563 4122 1444 3969 
Q 1366 3869 1366 3488 
L 1366 750 
Q 1366 428 1406 325 
Q 1438 247 1538 191 
Q 1672 116 1822 116 
L 1975 116 
z
" transform="scale(0.015625)"/>
      </defs>
      <use xlink:href="#TimesNewRomanPSMT-4e"/>
      <use xlink:href="#TimesNewRomanPSMT-6f" transform="translate(72.216797 0)"/>
      <use xlink:href="#TimesNewRomanPSMT-76" transform="translate(122.216797 0)"/>
      <use xlink:href="#TimesNewRomanPSMT-61" transform="translate(172.216797 0)"/>
      <use xlink:href="#TimesNewRomanPSMT-20" transform="translate(216.601562 0)"/>
      <use xlink:href="#TimesNewRomanPSMT-49" transform="translate(241.601562 0)"/>
      <use xlink:href="#TimesNewRomanPSMT-6e" transform="translate(274.902344 0)"/>
      <use xlink:href="#TimesNewRomanPSMT-73" transform="translate(324.902344 0)"/>
      <use xlink:href="#TimesNewRomanPSMT-74" transform="translate(363.818359 0)"/>
      <use xlink:href="#TimesNewRomanPSMT-69" transform="translate(391.601562 0)"/>
      <use xlink:href="#TimesNewRomanPSMT-74" transform="translate(419.384766 0)"/>
      <use xlink:href="#TimesNewRomanPSMT-75" transform="translate(447.167969 0)"/>
      <use xlink:href="#TimesNewRomanPSMT-74" transform="translate(497.167969 0)"/>
      <use xlink:href="#TimesNewRomanPSMT-65" transform="translate(524.951172 0)"/>
     </g>
    </g>
   </g>
  </g>
 </g>
 <defs>
  <clipPath id="p3df5457890">
   <rect x="10.091927" y="36.92125" width="388.8" height="277.2"/>
  </clipPath>
 </defs>
</svg>
