<?xml version="1.0" encoding="utf-8" standalone="no"?>
<!DOCTYPE svg PUBLIC "-//W3C//DTD SVG 1.1//EN"
  "http://www.w3.org/Graphics/SVG/1.1/DTD/svg11.dtd">
<svg xmlns:xlink="http://www.w3.org/1999/xlink" width="534.027302pt" height="363.785279pt" viewBox="0 0 534.027302 363.785279" xmlns="http://www.w3.org/2000/svg" version="1.1">
 <metadata>
  <rdf:RDF xmlns:dc="http://purl.org/dc/elements/1.1/" xmlns:cc="http://creativecommons.org/ns#" xmlns:rdf="http://www.w3.org/1999/02/22-rdf-syntax-ns#">
   <cc:Work>
    <dc:type rdf:resource="http://purl.org/dc/dcmitype/StillImage"/>
    <dc:date>2025-05-31T00:06:16.756916</dc:date>
    <dc:format>image/svg+xml</dc:format>
    <dc:creator>
     <cc:Agent>
      <dc:title>Matplotlib v3.10.3, https://matplotlib.org/</dc:title>
     </cc:Agent>
    </dc:creator>
   </cc:Work>
  </rdf:RDF>
 </metadata>
 <defs>
  <style type="text/css">*{stroke-linejoin: round; stroke-linecap: butt}</style>
 </defs>
 <g id="figure_1">
  <g id="patch_1">
   <path d="M 0 363.785279 
L 534.027302 363.785279 
L 534.027302 0 
L 0 0 
z
" style="fill: #ffffff"/>
  </g>
  <g id="axes_1">
   <g id="patch_2">
    <path d="M 10.091927 314.12125 
L 398.891927 314.12125 
L 398.891927 36.92125 
L 10.091927 36.92125 
z
" style="fill: #ffffff"/>
   </g>
   <g id="FillBetweenPolyCollection_1">
    <path d="M 27.764654 204.818675 
L 27.764654 259.016555 
L 30.504612 258.848255 
L 33.244569 259.025043 
L 35.984527 259.511282 
L 38.724485 260.271336 
L 41.464443 261.269568 
L 44.2044 262.470343 
L 46.944358 263.838024 
L 49.684316 265.336974 
L 52.424273 266.931559 
L 55.164231 268.586141 
L 57.904189 270.265084 
L 60.644147 271.932752 
L 63.384104 273.553509 
L 66.124062 275.091718 
L 68.86402 276.511744 
L 71.603977 277.777949 
L 74.343935 278.854699 
L 77.083893 279.706356 
L 79.823851 280.297284 
L 82.563808 280.591848 
L 85.303766 280.55441 
L 88.043724 280.151226 
L 90.783681 279.392025 
L 93.523639 278.330015 
L 96.263597 277.020295 
L 99.003555 275.517962 
L 101.743512 273.878114 
L 104.48347 272.155849 
L 107.223428 270.406265 
L 109.963385 268.684459 
L 112.703343 267.04553 
L 115.443301 265.544575 
L 118.183259 264.233535 
L 120.923216 263.136858 
L 123.663174 262.264842 
L 126.403132 261.627665 
L 129.143089 261.235507 
L 131.883047 261.098546 
L 134.623005 261.226961 
L 137.362963 261.630932 
L 140.10292 262.320638 
L 142.842878 263.306258 
L 145.582836 264.597971 
L 148.322793 266.192085 
L 151.062751 268.029423 
L 153.802709 270.036937 
L 156.542667 272.141579 
L 159.282624 274.270301 
L 162.022582 276.350056 
L 164.76254 278.307795 
L 167.502497 280.07047 
L 170.242455 281.565033 
L 172.982413 282.718437 
L 175.722371 283.458012 
L 178.462328 283.756894 
L 181.202286 283.677178 
L 183.942244 283.291184 
L 186.682202 282.671227 
L 189.422159 281.889626 
L 192.162117 281.018698 
L 194.902075 280.130759 
L 197.642032 279.298128 
L 200.38199 278.593122 
L 203.121948 278.088058 
L 205.861906 277.852652 
L 208.601863 277.896773 
L 211.341821 278.170445 
L 214.081779 278.621089 
L 216.821736 279.196126 
L 219.561694 279.842979 
L 222.301652 280.509068 
L 225.04161 281.141816 
L 227.781567 281.688643 
L 230.521525 282.096972 
L 233.261483 282.314224 
L 236.00144 282.295632 
L 238.741398 282.06443 
L 241.481356 281.678859 
L 244.221314 281.197455 
L 246.961271 280.678749 
L 249.701229 280.181274 
L 252.441187 279.763564 
L 255.181144 279.484151 
L 257.921102 279.401569 
L 260.66106 279.57435 
L 263.401018 280.061028 
L 266.140975 280.894533 
L 268.880933 282.005388 
L 271.620891 283.298513 
L 274.360848 284.678828 
L 277.100806 286.051254 
L 279.840764 287.320711 
L 282.580722 288.392119 
L 285.320679 289.170399 
L 288.060637 289.560471 
L 290.800595 289.467255 
L 293.540552 288.79625 
L 296.28051 287.522869 
L 299.020468 285.758312 
L 301.760426 283.629382 
L 304.500383 281.262879 
L 307.240341 278.785606 
L 309.980299 276.324363 
L 312.720256 274.005953 
L 315.460214 271.957177 
L 318.200172 270.304836 
L 320.94013 269.175732 
L 323.680087 268.692144 
L 326.420045 268.872343 
L 329.160003 269.630589 
L 331.89996 270.876622 
L 334.639918 272.520179 
L 337.379876 274.471 
L 340.119834 276.638824 
L 342.859791 278.933389 
L 345.599749 281.264434 
L 348.339707 283.541698 
L 351.079665 285.67492 
L 353.819622 287.573838 
L 356.55958 289.148191 
L 359.299538 290.307718 
L 362.039495 290.962158 
L 364.779453 291.02125 
L 367.519411 290.394732 
L 370.259369 288.992343 
L 372.999326 286.723822 
L 375.739284 283.498908 
L 378.479242 279.22734 
L 381.219199 273.818855 
L 381.219199 194.979264 
L 381.219199 194.979264 
L 378.479242 201.608951 
L 375.739284 206.891145 
L 372.999326 210.927737 
L 370.259369 213.820617 
L 367.519411 215.671676 
L 364.779453 216.582804 
L 362.039495 216.655892 
L 359.299538 215.992832 
L 356.55958 214.695513 
L 353.819622 212.865826 
L 351.079665 210.605662 
L 348.339707 208.016912 
L 345.599749 205.201466 
L 342.859791 202.261215 
L 340.119834 199.29805 
L 337.379876 196.413861 
L 334.639918 193.710539 
L 331.89996 191.289974 
L 329.160003 189.254058 
L 326.420045 187.704681 
L 323.680087 186.743734 
L 320.94013 186.468662 
L 318.200172 186.874685 
L 315.460214 187.854793 
L 312.720256 189.297533 
L 309.980299 191.091453 
L 307.240341 193.125098 
L 304.500383 195.287015 
L 301.760426 197.465751 
L 299.020468 199.549852 
L 296.28051 201.427866 
L 293.540552 202.988338 
L 290.800595 204.132187 
L 288.060637 204.868001 
L 285.320679 205.259809 
L 282.580722 205.372099 
L 279.840764 205.269357 
L 277.100806 205.01607 
L 274.360848 204.676725 
L 271.620891 204.31581 
L 268.880933 203.997811 
L 266.140975 203.787215 
L 263.401018 203.74851 
L 260.66106 203.928179 
L 257.921102 204.300695 
L 255.181144 204.82253 
L 252.441187 205.450153 
L 249.701229 206.140034 
L 246.961271 206.848645 
L 244.221314 207.532455 
L 241.481356 208.147934 
L 238.741398 208.651554 
L 236.00144 208.999784 
L 233.261483 209.149312 
L 230.521525 209.083023 
L 227.781567 208.83469 
L 225.04161 208.443929 
L 222.301652 207.950358 
L 219.561694 207.393593 
L 216.821736 206.813253 
L 214.081779 206.248953 
L 211.341821 205.740312 
L 208.601863 205.326947 
L 205.861906 205.048474 
L 203.121948 204.943132 
L 200.38199 205.017412 
L 197.642032 205.246066 
L 194.902075 205.602461 
L 192.162117 206.059968 
L 189.422159 206.591955 
L 186.682202 207.171793 
L 183.942244 207.772849 
L 181.202286 208.368495 
L 178.462328 208.932098 
L 175.722371 209.437029 
L 172.982413 209.857851 
L 170.242455 210.179521 
L 167.502497 210.392349 
L 164.76254 210.48669 
L 162.022582 210.452896 
L 159.282624 210.281322 
L 156.542667 209.962321 
L 153.802709 209.486247 
L 151.062751 208.843455 
L 148.322793 208.024297 
L 145.582836 207.019128 
L 142.842878 205.83086 
L 140.10292 204.512639 
L 137.362963 203.130171 
L 134.623005 201.749159 
L 131.883047 200.43531 
L 129.143089 199.254327 
L 126.403132 198.271916 
L 123.663174 197.553781 
L 120.923216 197.165628 
L 118.183259 197.173161 
L 115.443301 197.641685 
L 112.703343 198.588049 
L 109.963385 199.934999 
L 107.223428 201.594465 
L 104.48347 203.47838 
L 101.743512 205.498677 
L 99.003555 207.567287 
L 96.263597 209.596142 
L 93.523639 211.497175 
L 90.783681 213.182317 
L 88.043724 214.563501 
L 85.303766 215.555363 
L 82.563808 216.134741 
L 79.823851 216.340675 
L 77.083893 216.21491 
L 74.343935 215.799188 
L 71.603977 215.135254 
L 68.86402 214.264853 
L 66.124062 213.229728 
L 63.384104 212.071623 
L 60.644147 210.832283 
L 57.904189 209.553451 
L 55.164231 208.276872 
L 52.424273 207.04429 
L 49.684316 205.897449 
L 46.944358 204.878092 
L 44.2044 204.027964 
L 41.464443 203.38881 
L 38.724485 203.002372 
L 35.984527 202.910396 
L 33.244569 203.154625 
L 30.504612 203.776803 
L 27.764654 204.818675 
z
" clip-path="url(#pd0f7afcf4d)" style="fill: #1f77b4"/>
   </g>
   <g id="FillBetweenPolyCollection_2">
    <path d="M 27.764654 155.3519 
L 27.764654 204.818675 
L 30.504612 203.776803 
L 33.244569 203.154625 
L 35.984527 202.910396 
L 38.724485 203.002372 
L 41.464443 203.38881 
L 44.2044 204.027964 
L 46.944358 204.878092 
L 49.684316 205.897449 
L 52.424273 207.04429 
L 55.164231 208.276872 
L 57.904189 209.553451 
L 60.644147 210.832283 
L 63.384104 212.071623 
L 66.124062 213.229728 
L 68.86402 214.264853 
L 71.603977 215.135254 
L 74.343935 215.799188 
L 77.083893 216.21491 
L 79.823851 216.340675 
L 82.563808 216.134741 
L 85.303766 215.555363 
L 88.043724 214.563501 
L 90.783681 213.182317 
L 93.523639 211.497175 
L 96.263597 209.596142 
L 99.003555 207.567287 
L 101.743512 205.498677 
L 104.48347 203.47838 
L 107.223428 201.594465 
L 109.963385 199.934999 
L 112.703343 198.588049 
L 115.443301 197.641685 
L 118.183259 197.173161 
L 120.923216 197.165628 
L 123.663174 197.553781 
L 126.403132 198.271916 
L 129.143089 199.254327 
L 131.883047 200.43531 
L 134.623005 201.749159 
L 137.362963 203.130171 
L 140.10292 204.512639 
L 142.842878 205.83086 
L 145.582836 207.019128 
L 148.322793 208.024297 
L 151.062751 208.843455 
L 153.802709 209.486247 
L 156.542667 209.962321 
L 159.282624 210.281322 
L 162.022582 210.452896 
L 164.76254 210.48669 
L 167.502497 210.392349 
L 170.242455 210.179521 
L 172.982413 209.857851 
L 175.722371 209.437029 
L 178.462328 208.932098 
L 181.202286 208.368495 
L 183.942244 207.772849 
L 186.682202 207.171793 
L 189.422159 206.591955 
L 192.162117 206.059968 
L 194.902075 205.602461 
L 197.642032 205.246066 
L 200.38199 205.017412 
L 203.121948 204.943132 
L 205.861906 205.048474 
L 208.601863 205.326947 
L 211.341821 205.740312 
L 214.081779 206.248953 
L 216.821736 206.813253 
L 219.561694 207.393593 
L 222.301652 207.950358 
L 225.04161 208.443929 
L 227.781567 208.83469 
L 230.521525 209.083023 
L 233.261483 209.149312 
L 236.00144 208.999784 
L 238.741398 208.651554 
L 241.481356 208.147934 
L 244.221314 207.532455 
L 246.961271 206.848645 
L 249.701229 206.140034 
L 252.441187 205.450153 
L 255.181144 204.82253 
L 257.921102 204.300695 
L 260.66106 203.928179 
L 263.401018 203.74851 
L 266.140975 203.787215 
L 268.880933 203.997811 
L 271.620891 204.31581 
L 274.360848 204.676725 
L 277.100806 205.01607 
L 279.840764 205.269357 
L 282.580722 205.372099 
L 285.320679 205.259809 
L 288.060637 204.868001 
L 290.800595 204.132187 
L 293.540552 202.988338 
L 296.28051 201.427866 
L 299.020468 199.549852 
L 301.760426 197.465751 
L 304.500383 195.287015 
L 307.240341 193.125098 
L 309.980299 191.091453 
L 312.720256 189.297533 
L 315.460214 187.854793 
L 318.200172 186.874685 
L 320.94013 186.468662 
L 323.680087 186.743734 
L 326.420045 187.704681 
L 329.160003 189.254058 
L 331.89996 191.289974 
L 334.639918 193.710539 
L 337.379876 196.413861 
L 340.119834 199.29805 
L 342.859791 202.261215 
L 345.599749 205.201466 
L 348.339707 208.016912 
L 351.079665 210.605662 
L 353.819622 212.865826 
L 356.55958 214.695513 
L 359.299538 215.992832 
L 362.039495 216.655892 
L 364.779453 216.582804 
L 367.519411 215.671676 
L 370.259369 213.820617 
L 372.999326 210.927737 
L 375.739284 206.891145 
L 378.479242 201.608951 
L 381.219199 194.979264 
L 381.219199 186.727505 
L 381.219199 186.727505 
L 378.479242 189.637761 
L 375.739284 191.961683 
L 372.999326 193.738246 
L 370.259369 195.006423 
L 367.519411 195.805191 
L 364.779453 196.173525 
L 362.039495 196.150399 
L 359.299538 195.774788 
L 356.55958 195.085669 
L 353.819622 194.122014 
L 351.079665 192.922801 
L 348.339707 191.527004 
L 345.599749 189.973597 
L 342.859791 188.301557 
L 340.119834 186.549857 
L 337.379876 184.757474 
L 334.639918 182.963381 
L 331.89996 181.206555 
L 329.160003 179.525971 
L 326.420045 177.960602 
L 323.680087 176.549426 
L 320.94013 175.33024 
L 318.200172 174.313805 
L 315.460214 173.483841 
L 312.720256 172.822894 
L 309.980299 172.313508 
L 307.240341 171.938229 
L 304.500383 171.679601 
L 301.760426 171.52017 
L 299.020468 171.442479 
L 296.28051 171.429075 
L 293.540552 171.462502 
L 290.800595 171.525625 
L 288.060637 171.604087 
L 285.320679 171.684962 
L 282.580722 171.755338 
L 279.840764 171.8023 
L 277.100806 171.812935 
L 274.360848 171.77433 
L 271.620891 171.673571 
L 268.880933 171.497745 
L 266.140975 171.233937 
L 263.401018 170.869235 
L 260.66106 170.394922 
L 257.921102 169.819074 
L 255.181144 169.153963 
L 252.441187 168.411861 
L 249.701229 167.605041 
L 246.961271 166.745776 
L 244.221314 165.846338 
L 241.481356 164.918999 
L 238.741398 163.976033 
L 236.00144 163.029712 
L 233.261483 162.09232 
L 230.521525 161.177617 
L 227.781567 160.302226 
L 225.04161 159.4831 
L 222.301652 158.737191 
L 219.561694 158.081453 
L 216.821736 157.532836 
L 214.081779 157.108294 
L 211.341821 156.82478 
L 208.601863 156.699245 
L 205.861906 156.748643 
L 203.121948 156.988892 
L 200.38199 157.412168 
L 197.642032 157.986896 
L 194.902075 158.68047 
L 192.162117 159.460286 
L 189.422159 160.293737 
L 186.682202 161.148217 
L 183.942244 161.991122 
L 181.202286 162.789844 
L 178.462328 163.511779 
L 175.722371 164.124321 
L 172.982413 164.596671 
L 170.242455 164.913758 
L 167.502497 165.068611 
L 164.76254 165.054326 
L 162.022582 164.863996 
L 159.282624 164.490716 
L 156.542667 163.927583 
L 153.802709 163.16769 
L 151.062751 162.204133 
L 148.322793 161.030007 
L 145.582836 159.638406 
L 142.842878 158.035052 
L 140.10292 156.276167 
L 137.362963 154.4306 
L 134.623005 152.567201 
L 131.883047 150.754816 
L 129.143089 149.062296 
L 126.403132 147.558489 
L 123.663174 146.312244 
L 120.923216 145.392409 
L 118.183259 144.867833 
L 115.443301 144.806974 
L 112.703343 145.230877 
L 109.963385 146.068515 
L 107.223428 147.238279 
L 104.48347 148.658559 
L 101.743512 150.247749 
L 99.003555 151.92424 
L 96.263597 153.606423 
L 93.523639 155.212691 
L 90.783681 156.661434 
L 88.043724 157.871045 
L 85.303766 158.762388 
L 82.563808 159.313182 
L 79.823851 159.558007 
L 77.083893 159.533912 
L 74.343935 159.277947 
L 71.603977 158.827163 
L 68.86402 158.218608 
L 66.124062 157.489334 
L 63.384104 156.676389 
L 60.644147 155.816825 
L 57.904189 154.947691 
L 55.164231 154.106037 
L 52.424273 153.328913 
L 49.684316 152.653369 
L 46.944358 152.116456 
L 44.2044 151.755222 
L 41.464443 151.606718 
L 38.724485 151.707995 
L 35.984527 152.096101 
L 33.244569 152.808087 
L 30.504612 153.881004 
L 27.764654 155.3519 
z
" clip-path="url(#pd0f7afcf4d)" style="fill: #aec7e8"/>
   </g>
   <g id="FillBetweenPolyCollection_3">
    <path d="M 27.764654 92.025945 
L 27.764654 155.3519 
L 30.504612 153.881004 
L 33.244569 152.808087 
L 35.984527 152.096101 
L 38.724485 151.707995 
L 41.464443 151.606718 
L 44.2044 151.755222 
L 46.944358 152.116456 
L 49.684316 152.653369 
L 52.424273 153.328913 
L 55.164231 154.106037 
L 57.904189 154.947691 
L 60.644147 155.816825 
L 63.384104 156.676389 
L 66.124062 157.489334 
L 68.86402 158.218608 
L 71.603977 158.827163 
L 74.343935 159.277947 
L 77.083893 159.533912 
L 79.823851 159.558007 
L 82.563808 159.313182 
L 85.303766 158.762388 
L 88.043724 157.871045 
L 90.783681 156.661434 
L 93.523639 155.212691 
L 96.263597 153.606423 
L 99.003555 151.92424 
L 101.743512 150.247749 
L 104.48347 148.658559 
L 107.223428 147.238279 
L 109.963385 146.068515 
L 112.703343 145.230877 
L 115.443301 144.806974 
L 118.183259 144.867833 
L 120.923216 145.392409 
L 123.663174 146.312244 
L 126.403132 147.558489 
L 129.143089 149.062296 
L 131.883047 150.754816 
L 134.623005 152.567201 
L 137.362963 154.4306 
L 140.10292 156.276167 
L 142.842878 158.035052 
L 145.582836 159.638406 
L 148.322793 161.030007 
L 151.062751 162.204133 
L 153.802709 163.16769 
L 156.542667 163.927583 
L 159.282624 164.490716 
L 162.022582 164.863996 
L 164.76254 165.054326 
L 167.502497 165.068611 
L 170.242455 164.913758 
L 172.982413 164.596671 
L 175.722371 164.124321 
L 178.462328 163.511779 
L 181.202286 162.789844 
L 183.942244 161.991122 
L 186.682202 161.148217 
L 189.422159 160.293737 
L 192.162117 159.460286 
L 194.902075 158.68047 
L 197.642032 157.986896 
L 200.38199 157.412168 
L 203.121948 156.988892 
L 205.861906 156.748643 
L 208.601863 156.699245 
L 211.341821 156.82478 
L 214.081779 157.108294 
L 216.821736 157.532836 
L 219.561694 158.081453 
L 222.301652 158.737191 
L 225.04161 159.4831 
L 227.781567 160.302226 
L 230.521525 161.177617 
L 233.261483 162.09232 
L 236.00144 163.029712 
L 238.741398 163.976033 
L 241.481356 164.918999 
L 244.221314 165.846338 
L 246.961271 166.745776 
L 249.701229 167.605041 
L 252.441187 168.411861 
L 255.181144 169.153963 
L 257.921102 169.819074 
L 260.66106 170.394922 
L 263.401018 170.869235 
L 266.140975 171.233937 
L 268.880933 171.497745 
L 271.620891 171.673571 
L 274.360848 171.77433 
L 277.100806 171.812935 
L 279.840764 171.8023 
L 282.580722 171.755338 
L 285.320679 171.684962 
L 288.060637 171.604087 
L 290.800595 171.525625 
L 293.540552 171.462502 
L 296.28051 171.429075 
L 299.020468 171.442479 
L 301.760426 171.52017 
L 304.500383 171.679601 
L 307.240341 171.938229 
L 309.980299 172.313508 
L 312.720256 172.822894 
L 315.460214 173.483841 
L 318.200172 174.313805 
L 320.94013 175.33024 
L 323.680087 176.549426 
L 326.420045 177.960602 
L 329.160003 179.525971 
L 331.89996 181.206555 
L 334.639918 182.963381 
L 337.379876 184.757474 
L 340.119834 186.549857 
L 342.859791 188.301557 
L 345.599749 189.973597 
L 348.339707 191.527004 
L 351.079665 192.922801 
L 353.819622 194.122014 
L 356.55958 195.085669 
L 359.299538 195.774788 
L 362.039495 196.150399 
L 364.779453 196.173525 
L 367.519411 195.805191 
L 370.259369 195.006423 
L 372.999326 193.738246 
L 375.739284 191.961683 
L 378.479242 189.637761 
L 381.219199 186.727505 
L 381.219199 77.223645 
L 381.219199 77.223645 
L 378.479242 71.81516 
L 375.739284 67.543592 
L 372.999326 64.318678 
L 370.259369 62.050157 
L 367.519411 60.647768 
L 364.779453 60.02125 
L 362.039495 60.080342 
L 359.299538 60.734782 
L 356.55958 61.894309 
L 353.819622 63.468662 
L 351.079665 65.36758 
L 348.339707 67.500802 
L 345.599749 69.778066 
L 342.859791 72.109111 
L 340.119834 74.403676 
L 337.379876 76.5715 
L 334.639918 78.522321 
L 331.89996 80.165878 
L 329.160003 81.411911 
L 326.420045 82.170157 
L 323.680087 82.350356 
L 320.94013 81.866768 
L 318.200172 80.737664 
L 315.460214 79.085323 
L 312.720256 77.036547 
L 309.980299 74.718137 
L 307.240341 72.256894 
L 304.500383 69.779621 
L 301.760426 67.413118 
L 299.020468 65.284188 
L 296.28051 63.519631 
L 293.540552 62.24625 
L 290.800595 61.575245 
L 288.060637 61.482029 
L 285.320679 61.872101 
L 282.580722 62.650381 
L 279.840764 63.721789 
L 277.100806 64.991246 
L 274.360848 66.363672 
L 271.620891 67.743987 
L 268.880933 69.037112 
L 266.140975 70.147967 
L 263.401018 70.981472 
L 260.66106 71.46815 
L 257.921102 71.640931 
L 255.181144 71.558349 
L 252.441187 71.278936 
L 249.701229 70.861226 
L 246.961271 70.363751 
L 244.221314 69.845045 
L 241.481356 69.363641 
L 238.741398 68.97807 
L 236.00144 68.746868 
L 233.261483 68.728276 
L 230.521525 68.945528 
L 227.781567 69.353857 
L 225.04161 69.900684 
L 222.301652 70.533432 
L 219.561694 71.199521 
L 216.821736 71.846374 
L 214.081779 72.421411 
L 211.341821 72.872055 
L 208.601863 73.145727 
L 205.861906 73.189848 
L 203.121948 72.954442 
L 200.38199 72.449378 
L 197.642032 71.744372 
L 194.902075 70.911741 
L 192.162117 70.023802 
L 189.422159 69.152874 
L 186.682202 68.371273 
L 183.942244 67.751316 
L 181.202286 67.365322 
L 178.462328 67.285606 
L 175.722371 67.584488 
L 172.982413 68.324063 
L 170.242455 69.477467 
L 167.502497 70.97203 
L 164.76254 72.734705 
L 162.022582 74.692444 
L 159.282624 76.772199 
L 156.542667 78.900921 
L 153.802709 81.005563 
L 151.062751 83.013077 
L 148.322793 84.850415 
L 145.582836 86.444529 
L 142.842878 87.736242 
L 140.10292 88.721862 
L 137.362963 89.411568 
L 134.623005 89.815539 
L 131.883047 89.943954 
L 129.143089 89.806993 
L 126.403132 89.414835 
L 123.663174 88.777658 
L 120.923216 87.905642 
L 118.183259 86.808965 
L 115.443301 85.497925 
L 112.703343 83.99697 
L 109.963385 82.358041 
L 107.223428 80.636235 
L 104.48347 78.886651 
L 101.743512 77.164386 
L 99.003555 75.524538 
L 96.263597 74.022205 
L 93.523639 72.712485 
L 90.783681 71.650475 
L 88.043724 70.891274 
L 85.303766 70.48809 
L 82.563808 70.450652 
L 79.823851 70.745216 
L 77.083893 71.336144 
L 74.343935 72.187801 
L 71.603977 73.264551 
L 68.86402 74.530756 
L 66.124062 75.950782 
L 63.384104 77.488991 
L 60.644147 79.109748 
L 57.904189 80.777416 
L 55.164231 82.456359 
L 52.424273 84.110941 
L 49.684316 85.705526 
L 46.944358 87.204476 
L 44.2044 88.572157 
L 41.464443 89.772932 
L 38.724485 90.771164 
L 35.984527 91.531218 
L 33.244569 92.017457 
L 30.504612 92.194245 
L 27.764654 92.025945 
z
" clip-path="url(#pd0f7afcf4d)" style="fill: #ff7f0e"/>
   </g>
   <g id="matplotlib.axis_1">
    <g id="xtick_1">
     <g id="line2d_1">
      <defs>
       <path id="mc978819673" d="M 0 0 
L 0 3.5 
" style="stroke: #000000; stroke-width: 0.8"/>
      </defs>
      <g>
       <use xlink:href="#mc978819673" x="27.764654" y="314.12125" style="stroke: #000000; stroke-width: 0.8"/>
      </g>
     </g>
     <g id="text_1">
      <!-- 1979 -->
      <g transform="translate(12.109973 340.173358) rotate(-45) scale(0.1 -0.1)">
       <defs>
        <path id="TimesNewRomanPSMT-31" d="M 750 3822 
L 1781 4325 
L 1884 4325 
L 1884 747 
Q 1884 391 1914 303 
Q 1944 216 2037 169 
Q 2131 122 2419 116 
L 2419 0 
L 825 0 
L 825 116 
Q 1125 122 1212 167 
Q 1300 213 1334 289 
Q 1369 366 1369 747 
L 1369 3034 
Q 1369 3497 1338 3628 
Q 1316 3728 1258 3775 
Q 1200 3822 1119 3822 
Q 1003 3822 797 3725 
L 750 3822 
z
" transform="scale(0.015625)"/>
        <path id="TimesNewRomanPSMT-39" d="M 338 -88 
L 338 28 
Q 744 34 1094 217 
Q 1444 400 1770 856 
Q 2097 1313 2225 1859 
Q 1734 1544 1338 1544 
Q 891 1544 572 1889 
Q 253 2234 253 2806 
Q 253 3363 572 3797 
Q 956 4325 1575 4325 
Q 2097 4325 2469 3894 
Q 2925 3359 2925 2575 
Q 2925 1869 2578 1258 
Q 2231 647 1613 244 
Q 1109 -88 516 -88 
L 338 -88 
z
M 2275 2091 
Q 2331 2497 2331 2741 
Q 2331 3044 2228 3395 
Q 2125 3747 1936 3934 
Q 1747 4122 1506 4122 
Q 1228 4122 1018 3872 
Q 809 3622 809 3128 
Q 809 2469 1088 2097 
Q 1291 1828 1588 1828 
Q 1731 1828 1928 1897 
Q 2125 1966 2275 2091 
z
" transform="scale(0.015625)"/>
        <path id="TimesNewRomanPSMT-37" d="M 644 4238 
L 2916 4238 
L 2916 4119 
L 1503 -88 
L 1153 -88 
L 2419 3728 
L 1253 3728 
Q 900 3728 750 3644 
Q 488 3500 328 3200 
L 238 3234 
L 644 4238 
z
" transform="scale(0.015625)"/>
       </defs>
       <use xlink:href="#TimesNewRomanPSMT-31"/>
       <use xlink:href="#TimesNewRomanPSMT-39" transform="translate(50 0)"/>
       <use xlink:href="#TimesNewRomanPSMT-37" transform="translate(100 0)"/>
       <use xlink:href="#TimesNewRomanPSMT-39" transform="translate(150 0)"/>
      </g>
     </g>
    </g>
    <g id="xtick_2">
     <g id="line2d_2">
      <g>
       <use xlink:href="#mc978819673" x="57.219199" y="314.12125" style="stroke: #000000; stroke-width: 0.8"/>
      </g>
     </g>
     <g id="text_2">
      <!-- 1980 -->
      <g transform="translate(41.564518 340.173358) rotate(-45) scale(0.1 -0.1)">
       <defs>
        <path id="TimesNewRomanPSMT-38" d="M 1228 2134 
Q 725 2547 579 2797 
Q 434 3047 434 3316 
Q 434 3728 753 4026 
Q 1072 4325 1600 4325 
Q 2113 4325 2425 4047 
Q 2738 3769 2738 3413 
Q 2738 3175 2569 2928 
Q 2400 2681 1866 2347 
Q 2416 1922 2594 1678 
Q 2831 1359 2831 1006 
Q 2831 559 2490 242 
Q 2150 -75 1597 -75 
Q 994 -75 656 303 
Q 388 606 388 966 
Q 388 1247 577 1523 
Q 766 1800 1228 2134 
z
M 1719 2469 
Q 2094 2806 2194 3001 
Q 2294 3197 2294 3444 
Q 2294 3772 2109 3958 
Q 1925 4144 1606 4144 
Q 1288 4144 1088 3959 
Q 888 3775 888 3528 
Q 888 3366 970 3203 
Q 1053 3041 1206 2894 
L 1719 2469 
z
M 1375 2016 
Q 1116 1797 991 1539 
Q 866 1281 866 981 
Q 866 578 1086 336 
Q 1306 94 1647 94 
Q 1984 94 2187 284 
Q 2391 475 2391 747 
Q 2391 972 2272 1150 
Q 2050 1481 1375 2016 
z
" transform="scale(0.015625)"/>
        <path id="TimesNewRomanPSMT-30" d="M 231 2094 
Q 231 2819 450 3342 
Q 669 3866 1031 4122 
Q 1313 4325 1613 4325 
Q 2100 4325 2488 3828 
Q 2972 3213 2972 2159 
Q 2972 1422 2759 906 
Q 2547 391 2217 158 
Q 1888 -75 1581 -75 
Q 975 -75 572 641 
Q 231 1244 231 2094 
z
M 844 2016 
Q 844 1141 1059 588 
Q 1238 122 1591 122 
Q 1759 122 1940 273 
Q 2122 425 2216 781 
Q 2359 1319 2359 2297 
Q 2359 3022 2209 3506 
Q 2097 3866 1919 4016 
Q 1791 4119 1609 4119 
Q 1397 4119 1231 3928 
Q 1006 3669 925 3112 
Q 844 2556 844 2016 
z
" transform="scale(0.015625)"/>
       </defs>
       <use xlink:href="#TimesNewRomanPSMT-31"/>
       <use xlink:href="#TimesNewRomanPSMT-39" transform="translate(50 0)"/>
       <use xlink:href="#TimesNewRomanPSMT-38" transform="translate(100 0)"/>
       <use xlink:href="#TimesNewRomanPSMT-30" transform="translate(150 0)"/>
      </g>
     </g>
    </g>
    <g id="xtick_3">
     <g id="line2d_3">
      <g>
       <use xlink:href="#mc978819673" x="86.673745" y="314.12125" style="stroke: #000000; stroke-width: 0.8"/>
      </g>
     </g>
     <g id="text_3">
      <!-- 1981 -->
      <g transform="translate(71.019064 340.173358) rotate(-45) scale(0.1 -0.1)">
       <use xlink:href="#TimesNewRomanPSMT-31"/>
       <use xlink:href="#TimesNewRomanPSMT-39" transform="translate(50 0)"/>
       <use xlink:href="#TimesNewRomanPSMT-38" transform="translate(100 0)"/>
       <use xlink:href="#TimesNewRomanPSMT-31" transform="translate(150 0)"/>
      </g>
     </g>
    </g>
    <g id="xtick_4">
     <g id="line2d_4">
      <g>
       <use xlink:href="#mc978819673" x="116.12829" y="314.12125" style="stroke: #000000; stroke-width: 0.8"/>
      </g>
     </g>
     <g id="text_4">
      <!-- 1982 -->
      <g transform="translate(100.473609 340.173358) rotate(-45) scale(0.1 -0.1)">
       <defs>
        <path id="TimesNewRomanPSMT-32" d="M 2934 816 
L 2638 0 
L 138 0 
L 138 116 
Q 1241 1122 1691 1759 
Q 2141 2397 2141 2925 
Q 2141 3328 1894 3587 
Q 1647 3847 1303 3847 
Q 991 3847 742 3664 
Q 494 3481 375 3128 
L 259 3128 
Q 338 3706 661 4015 
Q 984 4325 1469 4325 
Q 1984 4325 2329 3994 
Q 2675 3663 2675 3213 
Q 2675 2891 2525 2569 
Q 2294 2063 1775 1497 
Q 997 647 803 472 
L 1909 472 
Q 2247 472 2383 497 
Q 2519 522 2628 598 
Q 2738 675 2819 816 
L 2934 816 
z
" transform="scale(0.015625)"/>
       </defs>
       <use xlink:href="#TimesNewRomanPSMT-31"/>
       <use xlink:href="#TimesNewRomanPSMT-39" transform="translate(50 0)"/>
       <use xlink:href="#TimesNewRomanPSMT-38" transform="translate(100 0)"/>
       <use xlink:href="#TimesNewRomanPSMT-32" transform="translate(150 0)"/>
      </g>
     </g>
    </g>
    <g id="xtick_5">
     <g id="line2d_5">
      <g>
       <use xlink:href="#mc978819673" x="145.582836" y="314.12125" style="stroke: #000000; stroke-width: 0.8"/>
      </g>
     </g>
     <g id="text_5">
      <!-- 1983 -->
      <g transform="translate(129.928155 340.173358) rotate(-45) scale(0.1 -0.1)">
       <defs>
        <path id="TimesNewRomanPSMT-33" d="M 325 3431 
Q 506 3859 782 4092 
Q 1059 4325 1472 4325 
Q 1981 4325 2253 3994 
Q 2459 3747 2459 3466 
Q 2459 3003 1878 2509 
Q 2269 2356 2469 2072 
Q 2669 1788 2669 1403 
Q 2669 853 2319 450 
Q 1863 -75 997 -75 
Q 569 -75 414 31 
Q 259 138 259 259 
Q 259 350 332 419 
Q 406 488 509 488 
Q 588 488 669 463 
Q 722 447 909 348 
Q 1097 250 1169 231 
Q 1284 197 1416 197 
Q 1734 197 1970 444 
Q 2206 691 2206 1028 
Q 2206 1275 2097 1509 
Q 2016 1684 1919 1775 
Q 1784 1900 1550 2001 
Q 1316 2103 1072 2103 
L 972 2103 
L 972 2197 
Q 1219 2228 1467 2375 
Q 1716 2522 1828 2728 
Q 1941 2934 1941 3181 
Q 1941 3503 1739 3701 
Q 1538 3900 1238 3900 
Q 753 3900 428 3381 
L 325 3431 
z
" transform="scale(0.015625)"/>
       </defs>
       <use xlink:href="#TimesNewRomanPSMT-31"/>
       <use xlink:href="#TimesNewRomanPSMT-39" transform="translate(50 0)"/>
       <use xlink:href="#TimesNewRomanPSMT-38" transform="translate(100 0)"/>
       <use xlink:href="#TimesNewRomanPSMT-33" transform="translate(150 0)"/>
      </g>
     </g>
    </g>
    <g id="xtick_6">
     <g id="line2d_6">
      <g>
       <use xlink:href="#mc978819673" x="175.037381" y="314.12125" style="stroke: #000000; stroke-width: 0.8"/>
      </g>
     </g>
     <g id="text_6">
      <!-- 1984 -->
      <g transform="translate(159.3827 340.173358) rotate(-45) scale(0.1 -0.1)">
       <defs>
        <path id="TimesNewRomanPSMT-34" d="M 2978 1563 
L 2978 1119 
L 2409 1119 
L 2409 0 
L 1894 0 
L 1894 1119 
L 100 1119 
L 100 1519 
L 2066 4325 
L 2409 4325 
L 2409 1563 
L 2978 1563 
z
M 1894 1563 
L 1894 3666 
L 406 1563 
L 1894 1563 
z
" transform="scale(0.015625)"/>
       </defs>
       <use xlink:href="#TimesNewRomanPSMT-31"/>
       <use xlink:href="#TimesNewRomanPSMT-39" transform="translate(50 0)"/>
       <use xlink:href="#TimesNewRomanPSMT-38" transform="translate(100 0)"/>
       <use xlink:href="#TimesNewRomanPSMT-34" transform="translate(150 0)"/>
      </g>
     </g>
    </g>
    <g id="xtick_7">
     <g id="line2d_7">
      <g>
       <use xlink:href="#mc978819673" x="204.491927" y="314.12125" style="stroke: #000000; stroke-width: 0.8"/>
      </g>
     </g>
     <g id="text_7">
      <!-- 1985 -->
      <g transform="translate(188.837245 340.173358) rotate(-45) scale(0.1 -0.1)">
       <defs>
        <path id="TimesNewRomanPSMT-35" d="M 2778 4238 
L 2534 3706 
L 1259 3706 
L 981 3138 
Q 1809 3016 2294 2522 
Q 2709 2097 2709 1522 
Q 2709 1188 2573 903 
Q 2438 619 2231 419 
Q 2025 219 1772 97 
Q 1413 -75 1034 -75 
Q 653 -75 479 54 
Q 306 184 306 341 
Q 306 428 378 495 
Q 450 563 559 563 
Q 641 563 702 538 
Q 763 513 909 409 
Q 1144 247 1384 247 
Q 1750 247 2026 523 
Q 2303 800 2303 1197 
Q 2303 1581 2056 1914 
Q 1809 2247 1375 2428 
Q 1034 2569 447 2591 
L 1259 4238 
L 2778 4238 
z
" transform="scale(0.015625)"/>
       </defs>
       <use xlink:href="#TimesNewRomanPSMT-31"/>
       <use xlink:href="#TimesNewRomanPSMT-39" transform="translate(50 0)"/>
       <use xlink:href="#TimesNewRomanPSMT-38" transform="translate(100 0)"/>
       <use xlink:href="#TimesNewRomanPSMT-35" transform="translate(150 0)"/>
      </g>
     </g>
    </g>
    <g id="xtick_8">
     <g id="line2d_8">
      <g>
       <use xlink:href="#mc978819673" x="233.946472" y="314.12125" style="stroke: #000000; stroke-width: 0.8"/>
      </g>
     </g>
     <g id="text_8">
      <!-- 1986 -->
      <g transform="translate(218.291791 340.173358) rotate(-45) scale(0.1 -0.1)">
       <defs>
        <path id="TimesNewRomanPSMT-36" d="M 2869 4325 
L 2869 4209 
Q 2456 4169 2195 4045 
Q 1934 3922 1679 3669 
Q 1425 3416 1258 3105 
Q 1091 2794 978 2366 
Q 1428 2675 1881 2675 
Q 2316 2675 2634 2325 
Q 2953 1975 2953 1425 
Q 2953 894 2631 456 
Q 2244 -75 1606 -75 
Q 1172 -75 869 213 
Q 275 772 275 1663 
Q 275 2231 503 2743 
Q 731 3256 1154 3653 
Q 1578 4050 1965 4187 
Q 2353 4325 2688 4325 
L 2869 4325 
z
M 925 2138 
Q 869 1716 869 1456 
Q 869 1156 980 804 
Q 1091 453 1309 247 
Q 1469 100 1697 100 
Q 1969 100 2183 356 
Q 2397 613 2397 1088 
Q 2397 1622 2184 2012 
Q 1972 2403 1581 2403 
Q 1463 2403 1327 2353 
Q 1191 2303 925 2138 
z
" transform="scale(0.015625)"/>
       </defs>
       <use xlink:href="#TimesNewRomanPSMT-31"/>
       <use xlink:href="#TimesNewRomanPSMT-39" transform="translate(50 0)"/>
       <use xlink:href="#TimesNewRomanPSMT-38" transform="translate(100 0)"/>
       <use xlink:href="#TimesNewRomanPSMT-36" transform="translate(150 0)"/>
      </g>
     </g>
    </g>
    <g id="xtick_9">
     <g id="line2d_9">
      <g>
       <use xlink:href="#mc978819673" x="263.401018" y="314.12125" style="stroke: #000000; stroke-width: 0.8"/>
      </g>
     </g>
     <g id="text_9">
      <!-- 1987 -->
      <g transform="translate(247.746336 340.173358) rotate(-45) scale(0.1 -0.1)">
       <use xlink:href="#TimesNewRomanPSMT-31"/>
       <use xlink:href="#TimesNewRomanPSMT-39" transform="translate(50 0)"/>
       <use xlink:href="#TimesNewRomanPSMT-38" transform="translate(100 0)"/>
       <use xlink:href="#TimesNewRomanPSMT-37" transform="translate(150 0)"/>
      </g>
     </g>
    </g>
    <g id="xtick_10">
     <g id="line2d_10">
      <g>
       <use xlink:href="#mc978819673" x="292.855563" y="314.12125" style="stroke: #000000; stroke-width: 0.8"/>
      </g>
     </g>
     <g id="text_10">
      <!-- 1988 -->
      <g transform="translate(277.200882 340.173358) rotate(-45) scale(0.1 -0.1)">
       <use xlink:href="#TimesNewRomanPSMT-31"/>
       <use xlink:href="#TimesNewRomanPSMT-39" transform="translate(50 0)"/>
       <use xlink:href="#TimesNewRomanPSMT-38" transform="translate(100 0)"/>
       <use xlink:href="#TimesNewRomanPSMT-38" transform="translate(150 0)"/>
      </g>
     </g>
    </g>
    <g id="xtick_11">
     <g id="line2d_11">
      <g>
       <use xlink:href="#mc978819673" x="322.310108" y="314.12125" style="stroke: #000000; stroke-width: 0.8"/>
      </g>
     </g>
     <g id="text_11">
      <!-- 1989 -->
      <g transform="translate(306.655427 340.173358) rotate(-45) scale(0.1 -0.1)">
       <use xlink:href="#TimesNewRomanPSMT-31"/>
       <use xlink:href="#TimesNewRomanPSMT-39" transform="translate(50 0)"/>
       <use xlink:href="#TimesNewRomanPSMT-38" transform="translate(100 0)"/>
       <use xlink:href="#TimesNewRomanPSMT-39" transform="translate(150 0)"/>
      </g>
     </g>
    </g>
    <g id="xtick_12">
     <g id="line2d_12">
      <g>
       <use xlink:href="#mc978819673" x="351.764654" y="314.12125" style="stroke: #000000; stroke-width: 0.8"/>
      </g>
     </g>
     <g id="text_12">
      <!-- 1990 -->
      <g transform="translate(336.109973 340.173358) rotate(-45) scale(0.1 -0.1)">
       <use xlink:href="#TimesNewRomanPSMT-31"/>
       <use xlink:href="#TimesNewRomanPSMT-39" transform="translate(50 0)"/>
       <use xlink:href="#TimesNewRomanPSMT-39" transform="translate(100 0)"/>
       <use xlink:href="#TimesNewRomanPSMT-30" transform="translate(150 0)"/>
      </g>
     </g>
    </g>
    <g id="xtick_13">
     <g id="line2d_13">
      <g>
       <use xlink:href="#mc978819673" x="381.219199" y="314.12125" style="stroke: #000000; stroke-width: 0.8"/>
      </g>
     </g>
     <g id="text_13">
      <!-- 1991 -->
      <g transform="translate(365.564518 340.173358) rotate(-45) scale(0.1 -0.1)">
       <use xlink:href="#TimesNewRomanPSMT-31"/>
       <use xlink:href="#TimesNewRomanPSMT-39" transform="translate(50 0)"/>
       <use xlink:href="#TimesNewRomanPSMT-39" transform="translate(100 0)"/>
       <use xlink:href="#TimesNewRomanPSMT-31" transform="translate(150 0)"/>
      </g>
     </g>
    </g>
    <g id="text_14">
     <!-- Year -->
     <g transform="translate(193.434114 354.018404) scale(0.12 -0.12)">
      <defs>
       <path id="TimesNewRomanPSMT-59" d="M 3050 4238 
L 4528 4238 
L 4528 4122 
L 4447 4122 
Q 4366 4122 4209 4050 
Q 4053 3978 3925 3843 
Q 3797 3709 3609 3406 
L 2588 1797 
L 2588 734 
Q 2588 344 2675 247 
Q 2794 116 3050 116 
L 3188 116 
L 3188 0 
L 1388 0 
L 1388 116 
L 1538 116 
Q 1806 116 1919 278 
Q 1988 378 1988 734 
L 1988 1738 
L 825 3513 
Q 619 3825 545 3903 
Q 472 3981 241 4091 
Q 178 4122 59 4122 
L 59 4238 
L 1872 4238 
L 1872 4122 
L 1778 4122 
Q 1631 4122 1507 4053 
Q 1384 3984 1384 3847 
Q 1384 3734 1575 3441 
L 2459 2075 
L 3291 3381 
Q 3478 3675 3478 3819 
Q 3478 3906 3433 3975 
Q 3388 4044 3303 4083 
Q 3219 4122 3050 4122 
L 3050 4238 
z
" transform="scale(0.015625)"/>
       <path id="TimesNewRomanPSMT-65" d="M 681 1784 
Q 678 1147 991 784 
Q 1303 422 1725 422 
Q 2006 422 2214 576 
Q 2422 731 2563 1106 
L 2659 1044 
Q 2594 616 2278 264 
Q 1963 -88 1488 -88 
Q 972 -88 605 314 
Q 238 716 238 1394 
Q 238 2128 614 2539 
Q 991 2950 1559 2950 
Q 2041 2950 2350 2633 
Q 2659 2316 2659 1784 
L 681 1784 
z
M 681 1966 
L 2006 1966 
Q 1991 2241 1941 2353 
Q 1863 2528 1708 2628 
Q 1553 2728 1384 2728 
Q 1125 2728 920 2526 
Q 716 2325 681 1966 
z
" transform="scale(0.015625)"/>
       <path id="TimesNewRomanPSMT-61" d="M 1822 413 
Q 1381 72 1269 19 
Q 1100 -59 909 -59 
Q 613 -59 420 144 
Q 228 347 228 678 
Q 228 888 322 1041 
Q 450 1253 767 1440 
Q 1084 1628 1822 1897 
L 1822 2009 
Q 1822 2438 1686 2597 
Q 1550 2756 1291 2756 
Q 1094 2756 978 2650 
Q 859 2544 859 2406 
L 866 2225 
Q 866 2081 792 2003 
Q 719 1925 600 1925 
Q 484 1925 411 2006 
Q 338 2088 338 2228 
Q 338 2497 613 2722 
Q 888 2947 1384 2947 
Q 1766 2947 2009 2819 
Q 2194 2722 2281 2516 
Q 2338 2381 2338 1966 
L 2338 994 
Q 2338 584 2353 492 
Q 2369 400 2405 369 
Q 2441 338 2488 338 
Q 2538 338 2575 359 
Q 2641 400 2828 588 
L 2828 413 
Q 2478 -56 2159 -56 
Q 2006 -56 1915 50 
Q 1825 156 1822 413 
z
M 1822 616 
L 1822 1706 
Q 1350 1519 1213 1441 
Q 966 1303 859 1153 
Q 753 1003 753 825 
Q 753 600 887 451 
Q 1022 303 1197 303 
Q 1434 303 1822 616 
z
" transform="scale(0.015625)"/>
       <path id="TimesNewRomanPSMT-72" d="M 1038 2947 
L 1038 2303 
Q 1397 2947 1775 2947 
Q 1947 2947 2059 2842 
Q 2172 2738 2172 2600 
Q 2172 2478 2090 2393 
Q 2009 2309 1897 2309 
Q 1788 2309 1652 2417 
Q 1516 2525 1450 2525 
Q 1394 2525 1328 2463 
Q 1188 2334 1038 2041 
L 1038 669 
Q 1038 431 1097 309 
Q 1138 225 1241 169 
Q 1344 113 1538 113 
L 1538 0 
L 72 0 
L 72 113 
Q 291 113 397 181 
Q 475 231 506 341 
Q 522 394 522 644 
L 522 1753 
Q 522 2253 501 2348 
Q 481 2444 426 2487 
Q 372 2531 291 2531 
Q 194 2531 72 2484 
L 41 2597 
L 906 2947 
L 1038 2947 
z
" transform="scale(0.015625)"/>
      </defs>
      <use xlink:href="#TimesNewRomanPSMT-59"/>
      <use xlink:href="#TimesNewRomanPSMT-65" transform="translate(62.216797 0)"/>
      <use xlink:href="#TimesNewRomanPSMT-61" transform="translate(106.601562 0)"/>
      <use xlink:href="#TimesNewRomanPSMT-72" transform="translate(150.986328 0)"/>
     </g>
    </g>
   </g>
   <g id="patch_3">
    <path d="M 10.091927 314.12125 
L 10.091927 36.92125 
" style="fill: none; stroke: #000000; stroke-width: 0.8; stroke-linejoin: miter; stroke-linecap: square"/>
   </g>
   <g id="patch_4">
    <path d="M 398.891927 314.12125 
L 398.891927 36.92125 
" style="fill: none; stroke: #000000; stroke-width: 0.8; stroke-linejoin: miter; stroke-linecap: square"/>
   </g>
   <g id="patch_5">
    <path d="M 10.091927 314.12125 
L 398.891927 314.12125 
" style="fill: none; stroke: #000000; stroke-width: 0.8; stroke-linejoin: miter; stroke-linecap: square"/>
   </g>
   <g id="patch_6">
    <path d="M 10.091927 36.92125 
L 398.891927 36.92125 
" style="fill: none; stroke: #000000; stroke-width: 0.8; stroke-linejoin: miter; stroke-linecap: square"/>
   </g>
   <g id="text_15">
    <!-- Patent Applications from 1979 to 1991 (applications)  -->
    <g transform="translate(53.819114 16.92125) scale(0.14 -0.14)">
     <defs>
      <path id="TimesNewRomanPSMT-50" d="M 1313 1984 
L 1313 750 
Q 1313 350 1400 253 
Q 1519 116 1759 116 
L 1922 116 
L 1922 0 
L 106 0 
L 106 116 
L 266 116 
Q 534 116 650 291 
Q 713 388 713 750 
L 713 3488 
Q 713 3888 628 3984 
Q 506 4122 266 4122 
L 106 4122 
L 106 4238 
L 1659 4238 
Q 2228 4238 2556 4120 
Q 2884 4003 3109 3725 
Q 3334 3447 3334 3066 
Q 3334 2547 2992 2222 
Q 2650 1897 2025 1897 
Q 1872 1897 1694 1919 
Q 1516 1941 1313 1984 
z
M 1313 2163 
Q 1478 2131 1606 2115 
Q 1734 2100 1825 2100 
Q 2150 2100 2386 2351 
Q 2622 2603 2622 3003 
Q 2622 3278 2509 3514 
Q 2397 3750 2190 3867 
Q 1984 3984 1722 3984 
Q 1563 3984 1313 3925 
L 1313 2163 
z
" transform="scale(0.015625)"/>
      <path id="TimesNewRomanPSMT-74" d="M 1031 3803 
L 1031 2863 
L 1700 2863 
L 1700 2644 
L 1031 2644 
L 1031 788 
Q 1031 509 1111 412 
Q 1191 316 1316 316 
Q 1419 316 1516 380 
Q 1613 444 1666 569 
L 1788 569 
Q 1678 263 1478 108 
Q 1278 -47 1066 -47 
Q 922 -47 784 33 
Q 647 113 581 261 
Q 516 409 516 719 
L 516 2644 
L 63 2644 
L 63 2747 
Q 234 2816 414 2980 
Q 594 3144 734 3369 
Q 806 3488 934 3803 
L 1031 3803 
z
" transform="scale(0.015625)"/>
      <path id="TimesNewRomanPSMT-6e" d="M 1034 2341 
Q 1538 2947 1994 2947 
Q 2228 2947 2397 2830 
Q 2566 2713 2666 2444 
Q 2734 2256 2734 1869 
L 2734 647 
Q 2734 375 2778 278 
Q 2813 200 2889 156 
Q 2966 113 3172 113 
L 3172 0 
L 1756 0 
L 1756 113 
L 1816 113 
Q 2016 113 2095 173 
Q 2175 234 2206 353 
Q 2219 400 2219 647 
L 2219 1819 
Q 2219 2209 2117 2386 
Q 2016 2563 1775 2563 
Q 1403 2563 1034 2156 
L 1034 647 
Q 1034 356 1069 288 
Q 1113 197 1189 155 
Q 1266 113 1500 113 
L 1500 0 
L 84 0 
L 84 113 
L 147 113 
Q 366 113 442 223 
Q 519 334 519 647 
L 519 1709 
Q 519 2225 495 2337 
Q 472 2450 423 2490 
Q 375 2531 294 2531 
Q 206 2531 84 2484 
L 38 2597 
L 900 2947 
L 1034 2947 
L 1034 2341 
z
" transform="scale(0.015625)"/>
      <path id="TimesNewRomanPSMT-20" transform="scale(0.015625)"/>
      <path id="TimesNewRomanPSMT-41" d="M 2928 1419 
L 1288 1419 
L 1000 750 
Q 894 503 894 381 
Q 894 284 986 211 
Q 1078 138 1384 116 
L 1384 0 
L 50 0 
L 50 116 
Q 316 163 394 238 
Q 553 388 747 847 
L 2238 4334 
L 2347 4334 
L 3822 809 
Q 4000 384 4145 257 
Q 4291 131 4550 116 
L 4550 0 
L 2878 0 
L 2878 116 
Q 3131 128 3220 200 
Q 3309 272 3309 375 
Q 3309 513 3184 809 
L 2928 1419 
z
M 2841 1650 
L 2122 3363 
L 1384 1650 
L 2841 1650 
z
" transform="scale(0.015625)"/>
      <path id="TimesNewRomanPSMT-70" d="M -6 2578 
L 875 2934 
L 994 2934 
L 994 2266 
Q 1216 2644 1439 2795 
Q 1663 2947 1909 2947 
Q 2341 2947 2628 2609 
Q 2981 2197 2981 1534 
Q 2981 794 2556 309 
Q 2206 -88 1675 -88 
Q 1444 -88 1275 -22 
Q 1150 25 994 166 
L 994 -706 
Q 994 -1000 1030 -1079 
Q 1066 -1159 1155 -1206 
Q 1244 -1253 1478 -1253 
L 1478 -1369 
L -22 -1369 
L -22 -1253 
L 56 -1253 
Q 228 -1256 350 -1188 
Q 409 -1153 442 -1076 
Q 475 -1000 475 -688 
L 475 2019 
Q 475 2297 450 2372 
Q 425 2447 370 2484 
Q 316 2522 222 2522 
Q 147 2522 31 2478 
L -6 2578 
z
M 994 2081 
L 994 1013 
Q 994 666 1022 556 
Q 1066 375 1236 237 
Q 1406 100 1666 100 
Q 1978 100 2172 344 
Q 2425 663 2425 1241 
Q 2425 1897 2138 2250 
Q 1938 2494 1663 2494 
Q 1513 2494 1366 2419 
Q 1253 2363 994 2081 
z
" transform="scale(0.015625)"/>
      <path id="TimesNewRomanPSMT-6c" d="M 1184 4444 
L 1184 647 
Q 1184 378 1223 290 
Q 1263 203 1344 158 
Q 1425 113 1647 113 
L 1647 0 
L 244 0 
L 244 113 
Q 441 113 512 153 
Q 584 194 625 287 
Q 666 381 666 647 
L 666 3247 
Q 666 3731 644 3842 
Q 622 3953 573 3993 
Q 525 4034 450 4034 
Q 369 4034 244 3984 
L 191 4094 
L 1044 4444 
L 1184 4444 
z
" transform="scale(0.015625)"/>
      <path id="TimesNewRomanPSMT-69" d="M 928 4444 
Q 1059 4444 1151 4351 
Q 1244 4259 1244 4128 
Q 1244 3997 1151 3903 
Q 1059 3809 928 3809 
Q 797 3809 703 3903 
Q 609 3997 609 4128 
Q 609 4259 701 4351 
Q 794 4444 928 4444 
z
M 1188 2947 
L 1188 647 
Q 1188 378 1227 289 
Q 1266 200 1342 156 
Q 1419 113 1622 113 
L 1622 0 
L 231 0 
L 231 113 
Q 441 113 512 153 
Q 584 194 626 287 
Q 669 381 669 647 
L 669 1750 
Q 669 2216 641 2353 
Q 619 2453 572 2492 
Q 525 2531 444 2531 
Q 356 2531 231 2484 
L 188 2597 
L 1050 2947 
L 1188 2947 
z
" transform="scale(0.015625)"/>
      <path id="TimesNewRomanPSMT-63" d="M 2631 1088 
Q 2516 522 2178 217 
Q 1841 -88 1431 -88 
Q 944 -88 581 321 
Q 219 731 219 1428 
Q 219 2103 620 2525 
Q 1022 2947 1584 2947 
Q 2006 2947 2278 2723 
Q 2550 2500 2550 2259 
Q 2550 2141 2473 2067 
Q 2397 1994 2259 1994 
Q 2075 1994 1981 2113 
Q 1928 2178 1911 2362 
Q 1894 2547 1784 2644 
Q 1675 2738 1481 2738 
Q 1169 2738 978 2506 
Q 725 2200 725 1697 
Q 725 1184 976 792 
Q 1228 400 1656 400 
Q 1963 400 2206 609 
Q 2378 753 2541 1131 
L 2631 1088 
z
" transform="scale(0.015625)"/>
      <path id="TimesNewRomanPSMT-6f" d="M 1600 2947 
Q 2250 2947 2644 2453 
Q 2978 2031 2978 1484 
Q 2978 1100 2793 706 
Q 2609 313 2286 112 
Q 1963 -88 1566 -88 
Q 919 -88 538 428 
Q 216 863 216 1403 
Q 216 1797 411 2186 
Q 606 2575 925 2761 
Q 1244 2947 1600 2947 
z
M 1503 2744 
Q 1338 2744 1170 2645 
Q 1003 2547 900 2300 
Q 797 2053 797 1666 
Q 797 1041 1045 587 
Q 1294 134 1700 134 
Q 2003 134 2200 384 
Q 2397 634 2397 1244 
Q 2397 2006 2069 2444 
Q 1847 2744 1503 2744 
z
" transform="scale(0.015625)"/>
      <path id="TimesNewRomanPSMT-73" d="M 2050 2947 
L 2050 1972 
L 1947 1972 
Q 1828 2431 1642 2597 
Q 1456 2763 1169 2763 
Q 950 2763 815 2647 
Q 681 2531 681 2391 
Q 681 2216 781 2091 
Q 878 1963 1175 1819 
L 1631 1597 
Q 2266 1288 2266 781 
Q 2266 391 1970 151 
Q 1675 -88 1309 -88 
Q 1047 -88 709 6 
Q 606 38 541 38 
Q 469 38 428 -44 
L 325 -44 
L 325 978 
L 428 978 
Q 516 541 762 319 
Q 1009 97 1316 97 
Q 1531 97 1667 223 
Q 1803 350 1803 528 
Q 1803 744 1651 891 
Q 1500 1038 1047 1263 
Q 594 1488 453 1669 
Q 313 1847 313 2119 
Q 313 2472 555 2709 
Q 797 2947 1181 2947 
Q 1350 2947 1591 2875 
Q 1750 2828 1803 2828 
Q 1853 2828 1881 2850 
Q 1909 2872 1947 2947 
L 2050 2947 
z
" transform="scale(0.015625)"/>
      <path id="TimesNewRomanPSMT-66" d="M 1319 2638 
L 1319 756 
Q 1319 356 1406 250 
Q 1522 113 1716 113 
L 1975 113 
L 1975 0 
L 266 0 
L 266 113 
L 394 113 
Q 519 113 622 175 
Q 725 238 764 344 
Q 803 450 803 756 
L 803 2638 
L 247 2638 
L 247 2863 
L 803 2863 
L 803 3050 
Q 803 3478 940 3775 
Q 1078 4072 1361 4255 
Q 1644 4438 1997 4438 
Q 2325 4438 2600 4225 
Q 2781 4084 2781 3909 
Q 2781 3816 2700 3733 
Q 2619 3650 2525 3650 
Q 2453 3650 2373 3701 
Q 2294 3753 2178 3923 
Q 2063 4094 1966 4153 
Q 1869 4213 1750 4213 
Q 1606 4213 1506 4136 
Q 1406 4059 1362 3898 
Q 1319 3738 1319 3069 
L 1319 2863 
L 2056 2863 
L 2056 2638 
L 1319 2638 
z
" transform="scale(0.015625)"/>
      <path id="TimesNewRomanPSMT-6d" d="M 1050 2338 
Q 1363 2650 1419 2697 
Q 1559 2816 1721 2881 
Q 1884 2947 2044 2947 
Q 2313 2947 2506 2790 
Q 2700 2634 2766 2338 
Q 3088 2713 3309 2830 
Q 3531 2947 3766 2947 
Q 3994 2947 4170 2830 
Q 4347 2713 4450 2447 
Q 4519 2266 4519 1878 
L 4519 647 
Q 4519 378 4559 278 
Q 4591 209 4675 161 
Q 4759 113 4950 113 
L 4950 0 
L 3538 0 
L 3538 113 
L 3597 113 
Q 3781 113 3884 184 
Q 3956 234 3988 344 
Q 4000 397 4000 647 
L 4000 1878 
Q 4000 2228 3916 2372 
Q 3794 2572 3525 2572 
Q 3359 2572 3192 2489 
Q 3025 2406 2788 2181 
L 2781 2147 
L 2788 2013 
L 2788 647 
Q 2788 353 2820 281 
Q 2853 209 2943 161 
Q 3034 113 3253 113 
L 3253 0 
L 1806 0 
L 1806 113 
Q 2044 113 2133 169 
Q 2222 225 2256 338 
Q 2272 391 2272 647 
L 2272 1878 
Q 2272 2228 2169 2381 
Q 2031 2581 1784 2581 
Q 1616 2581 1450 2491 
Q 1191 2353 1050 2181 
L 1050 647 
Q 1050 366 1089 281 
Q 1128 197 1204 155 
Q 1281 113 1516 113 
L 1516 0 
L 100 0 
L 100 113 
Q 297 113 375 155 
Q 453 197 493 289 
Q 534 381 534 647 
L 534 1741 
Q 534 2213 506 2350 
Q 484 2453 437 2492 
Q 391 2531 309 2531 
Q 222 2531 100 2484 
L 53 2597 
L 916 2947 
L 1050 2947 
L 1050 2338 
z
" transform="scale(0.015625)"/>
      <path id="TimesNewRomanPSMT-28" d="M 1988 -1253 
L 1988 -1369 
Q 1516 -1131 1200 -813 
Q 750 -359 506 256 
Q 263 872 263 1534 
Q 263 2503 741 3301 
Q 1219 4100 1988 4444 
L 1988 4313 
Q 1603 4100 1356 3731 
Q 1109 3363 987 2797 
Q 866 2231 866 1616 
Q 866 947 969 400 
Q 1050 -31 1165 -292 
Q 1281 -553 1476 -793 
Q 1672 -1034 1988 -1253 
z
" transform="scale(0.015625)"/>
      <path id="TimesNewRomanPSMT-29" d="M 144 4313 
L 144 4444 
Q 619 4209 934 3891 
Q 1381 3434 1625 2820 
Q 1869 2206 1869 1541 
Q 1869 572 1392 -226 
Q 916 -1025 144 -1369 
L 144 -1253 
Q 528 -1038 776 -670 
Q 1025 -303 1145 264 
Q 1266 831 1266 1447 
Q 1266 2113 1163 2663 
Q 1084 3094 967 3353 
Q 850 3613 656 3853 
Q 463 4094 144 4313 
z
" transform="scale(0.015625)"/>
     </defs>
     <use xlink:href="#TimesNewRomanPSMT-50"/>
     <use xlink:href="#TimesNewRomanPSMT-61" transform="translate(55.615234 0)"/>
     <use xlink:href="#TimesNewRomanPSMT-74" transform="translate(100 0)"/>
     <use xlink:href="#TimesNewRomanPSMT-65" transform="translate(127.783203 0)"/>
     <use xlink:href="#TimesNewRomanPSMT-6e" transform="translate(172.167969 0)"/>
     <use xlink:href="#TimesNewRomanPSMT-74" transform="translate(222.167969 0)"/>
     <use xlink:href="#TimesNewRomanPSMT-20" transform="translate(249.951172 0)"/>
     <use xlink:href="#TimesNewRomanPSMT-41" transform="translate(269.451172 0)"/>
     <use xlink:href="#TimesNewRomanPSMT-70" transform="translate(341.667969 0)"/>
     <use xlink:href="#TimesNewRomanPSMT-70" transform="translate(391.667969 0)"/>
     <use xlink:href="#TimesNewRomanPSMT-6c" transform="translate(441.667969 0)"/>
     <use xlink:href="#TimesNewRomanPSMT-69" transform="translate(469.451172 0)"/>
     <use xlink:href="#TimesNewRomanPSMT-63" transform="translate(497.234375 0)"/>
     <use xlink:href="#TimesNewRomanPSMT-61" transform="translate(541.619141 0)"/>
     <use xlink:href="#TimesNewRomanPSMT-74" transform="translate(586.003906 0)"/>
     <use xlink:href="#TimesNewRomanPSMT-69" transform="translate(613.787109 0)"/>
     <use xlink:href="#TimesNewRomanPSMT-6f" transform="translate(641.570312 0)"/>
     <use xlink:href="#TimesNewRomanPSMT-6e" transform="translate(691.570312 0)"/>
     <use xlink:href="#TimesNewRomanPSMT-73" transform="translate(741.570312 0)"/>
     <use xlink:href="#TimesNewRomanPSMT-20" transform="translate(780.486328 0)"/>
     <use xlink:href="#TimesNewRomanPSMT-66" transform="translate(805.486328 0)"/>
     <use xlink:href="#TimesNewRomanPSMT-72" transform="translate(838.787109 0)"/>
     <use xlink:href="#TimesNewRomanPSMT-6f" transform="translate(872.087891 0)"/>
     <use xlink:href="#TimesNewRomanPSMT-6d" transform="translate(922.087891 0)"/>
     <use xlink:href="#TimesNewRomanPSMT-20" transform="translate(999.871094 0)"/>
     <use xlink:href="#TimesNewRomanPSMT-31" transform="translate(1024.871094 0)"/>
     <use xlink:href="#TimesNewRomanPSMT-39" transform="translate(1074.871094 0)"/>
     <use xlink:href="#TimesNewRomanPSMT-37" transform="translate(1124.871094 0)"/>
     <use xlink:href="#TimesNewRomanPSMT-39" transform="translate(1174.871094 0)"/>
     <use xlink:href="#TimesNewRomanPSMT-20" transform="translate(1224.871094 0)"/>
     <use xlink:href="#TimesNewRomanPSMT-74" transform="translate(1249.871094 0)"/>
     <use xlink:href="#TimesNewRomanPSMT-6f" transform="translate(1277.654297 0)"/>
     <use xlink:href="#TimesNewRomanPSMT-20" transform="translate(1327.654297 0)"/>
     <use xlink:href="#TimesNewRomanPSMT-31" transform="translate(1352.654297 0)"/>
     <use xlink:href="#TimesNewRomanPSMT-39" transform="translate(1402.654297 0)"/>
     <use xlink:href="#TimesNewRomanPSMT-39" transform="translate(1452.654297 0)"/>
     <use xlink:href="#TimesNewRomanPSMT-31" transform="translate(1502.654297 0)"/>
     <use xlink:href="#TimesNewRomanPSMT-20" transform="translate(1552.654297 0)"/>
     <use xlink:href="#TimesNewRomanPSMT-28" transform="translate(1577.654297 0)"/>
     <use xlink:href="#TimesNewRomanPSMT-61" transform="translate(1610.955078 0)"/>
     <use xlink:href="#TimesNewRomanPSMT-70" transform="translate(1655.339844 0)"/>
     <use xlink:href="#TimesNewRomanPSMT-70" transform="translate(1705.339844 0)"/>
     <use xlink:href="#TimesNewRomanPSMT-6c" transform="translate(1755.339844 0)"/>
     <use xlink:href="#TimesNewRomanPSMT-69" transform="translate(1783.123047 0)"/>
     <use xlink:href="#TimesNewRomanPSMT-63" transform="translate(1810.90625 0)"/>
     <use xlink:href="#TimesNewRomanPSMT-61" transform="translate(1855.291016 0)"/>
     <use xlink:href="#TimesNewRomanPSMT-74" transform="translate(1899.675781 0)"/>
     <use xlink:href="#TimesNewRomanPSMT-69" transform="translate(1927.458984 0)"/>
     <use xlink:href="#TimesNewRomanPSMT-6f" transform="translate(1955.242188 0)"/>
     <use xlink:href="#TimesNewRomanPSMT-6e" transform="translate(2005.242188 0)"/>
     <use xlink:href="#TimesNewRomanPSMT-73" transform="translate(2055.242188 0)"/>
     <use xlink:href="#TimesNewRomanPSMT-29" transform="translate(2094.158203 0)"/>
     <use xlink:href="#TimesNewRomanPSMT-20" transform="translate(2127.458984 0)"/>
    </g>
   </g>
   <g id="legend_1">
    <g id="patch_7">
     <path d="M 415.667927 163.793906 
L 435.667927 163.793906 
L 435.667927 156.793906 
L 415.667927 156.793906 
z
" style="fill: #1f77b4"/>
    </g>
    <g id="text_16">
     <!-- Oracle Systems -->
     <g transform="translate(443.667927 163.793906) scale(0.1 -0.1)">
      <defs>
       <path id="TimesNewRomanPSMT-4f" d="M 2341 4334 
Q 3166 4334 3770 3707 
Q 4375 3081 4375 2144 
Q 4375 1178 3765 540 
Q 3156 -97 2291 -97 
Q 1416 -97 820 525 
Q 225 1147 225 2134 
Q 225 3144 913 3781 
Q 1509 4334 2341 4334 
z
M 2281 4106 
Q 1713 4106 1369 3684 
Q 941 3159 941 2147 
Q 941 1109 1384 550 
Q 1725 125 2284 125 
Q 2881 125 3270 590 
Q 3659 1056 3659 2059 
Q 3659 3147 3231 3681 
Q 2888 4106 2281 4106 
z
" transform="scale(0.015625)"/>
       <path id="TimesNewRomanPSMT-53" d="M 2934 4334 
L 2934 2869 
L 2819 2869 
Q 2763 3291 2617 3541 
Q 2472 3791 2203 3937 
Q 1934 4084 1647 4084 
Q 1322 4084 1109 3886 
Q 897 3688 897 3434 
Q 897 3241 1031 3081 
Q 1225 2847 1953 2456 
Q 2547 2138 2764 1967 
Q 2981 1797 3098 1565 
Q 3216 1334 3216 1081 
Q 3216 600 2842 251 
Q 2469 -97 1881 -97 
Q 1697 -97 1534 -69 
Q 1438 -53 1133 45 
Q 828 144 747 144 
Q 669 144 623 97 
Q 578 50 556 -97 
L 441 -97 
L 441 1356 
L 556 1356 
Q 638 900 775 673 
Q 913 447 1195 297 
Q 1478 147 1816 147 
Q 2206 147 2432 353 
Q 2659 559 2659 841 
Q 2659 997 2573 1156 
Q 2488 1316 2306 1453 
Q 2184 1547 1640 1851 
Q 1097 2156 867 2337 
Q 638 2519 519 2737 
Q 400 2956 400 3219 
Q 400 3675 750 4004 
Q 1100 4334 1641 4334 
Q 1978 4334 2356 4169 
Q 2531 4091 2603 4091 
Q 2684 4091 2736 4139 
Q 2788 4188 2819 4334 
L 2934 4334 
z
" transform="scale(0.015625)"/>
       <path id="TimesNewRomanPSMT-79" d="M 38 2863 
L 1372 2863 
L 1372 2747 
L 1306 2747 
Q 1166 2747 1095 2686 
Q 1025 2625 1025 2534 
Q 1025 2413 1128 2197 
L 1825 753 
L 2466 2334 
Q 2519 2463 2519 2588 
Q 2519 2644 2497 2672 
Q 2472 2706 2419 2726 
Q 2366 2747 2231 2747 
L 2231 2863 
L 3163 2863 
L 3163 2747 
Q 3047 2734 2984 2696 
Q 2922 2659 2847 2556 
Q 2819 2513 2741 2316 
L 1575 -541 
Q 1406 -956 1132 -1168 
Q 859 -1381 606 -1381 
Q 422 -1381 303 -1275 
Q 184 -1169 184 -1031 
Q 184 -900 270 -820 
Q 356 -741 506 -741 
Q 609 -741 788 -809 
Q 913 -856 944 -856 
Q 1038 -856 1148 -759 
Q 1259 -663 1372 -384 
L 1575 113 
L 547 2272 
Q 500 2369 397 2513 
Q 319 2622 269 2659 
Q 197 2709 38 2747 
L 38 2863 
z
" transform="scale(0.015625)"/>
      </defs>
      <use xlink:href="#TimesNewRomanPSMT-4f"/>
      <use xlink:href="#TimesNewRomanPSMT-72" transform="translate(72.216797 0)"/>
      <use xlink:href="#TimesNewRomanPSMT-61" transform="translate(105.517578 0)"/>
      <use xlink:href="#TimesNewRomanPSMT-63" transform="translate(149.902344 0)"/>
      <use xlink:href="#TimesNewRomanPSMT-6c" transform="translate(194.287109 0)"/>
      <use xlink:href="#TimesNewRomanPSMT-65" transform="translate(222.070312 0)"/>
      <use xlink:href="#TimesNewRomanPSMT-20" transform="translate(266.455078 0)"/>
      <use xlink:href="#TimesNewRomanPSMT-53" transform="translate(291.455078 0)"/>
      <use xlink:href="#TimesNewRomanPSMT-79" transform="translate(347.070312 0)"/>
      <use xlink:href="#TimesNewRomanPSMT-73" transform="translate(397.070312 0)"/>
      <use xlink:href="#TimesNewRomanPSMT-74" transform="translate(435.986328 0)"/>
      <use xlink:href="#TimesNewRomanPSMT-65" transform="translate(463.769531 0)"/>
      <use xlink:href="#TimesNewRomanPSMT-6d" transform="translate(508.154297 0)"/>
      <use xlink:href="#TimesNewRomanPSMT-73" transform="translate(585.9375 0)"/>
     </g>
    </g>
    <g id="patch_8">
     <path d="M 415.667927 177.951719 
L 435.667927 177.951719 
L 435.667927 170.951719 
L 415.667927 170.951719 
z
" style="fill: #aec7e8"/>
    </g>
    <g id="text_17">
     <!-- Echo Dynamics -->
     <g transform="translate(443.667927 177.951719) scale(0.1 -0.1)">
      <defs>
       <path id="TimesNewRomanPSMT-45" d="M 1338 4006 
L 1338 2331 
L 2269 2331 
Q 2631 2331 2753 2441 
Q 2916 2584 2934 2947 
L 3050 2947 
L 3050 1472 
L 2934 1472 
Q 2891 1781 2847 1869 
Q 2791 1978 2662 2040 
Q 2534 2103 2269 2103 
L 1338 2103 
L 1338 706 
Q 1338 425 1363 364 
Q 1388 303 1450 267 
Q 1513 231 1688 231 
L 2406 231 
Q 2766 231 2928 281 
Q 3091 331 3241 478 
Q 3434 672 3638 1063 
L 3763 1063 
L 3397 0 
L 131 0 
L 131 116 
L 281 116 
Q 431 116 566 188 
Q 666 238 702 338 
Q 738 438 738 747 
L 738 3500 
Q 738 3903 656 3997 
Q 544 4122 281 4122 
L 131 4122 
L 131 4238 
L 3397 4238 
L 3444 3309 
L 3322 3309 
Q 3256 3644 3176 3769 
Q 3097 3894 2941 3959 
Q 2816 4006 2500 4006 
L 1338 4006 
z
" transform="scale(0.015625)"/>
       <path id="TimesNewRomanPSMT-68" d="M 1041 4444 
L 1041 2350 
Q 1388 2731 1591 2839 
Q 1794 2947 1997 2947 
Q 2241 2947 2416 2812 
Q 2591 2678 2675 2391 
Q 2734 2191 2734 1659 
L 2734 647 
Q 2734 375 2778 275 
Q 2809 200 2884 156 
Q 2959 113 3159 113 
L 3159 0 
L 1753 0 
L 1753 113 
L 1819 113 
Q 2019 113 2097 173 
Q 2175 234 2206 353 
Q 2216 403 2216 647 
L 2216 1659 
Q 2216 2128 2167 2275 
Q 2119 2422 2012 2495 
Q 1906 2569 1756 2569 
Q 1603 2569 1437 2487 
Q 1272 2406 1041 2159 
L 1041 647 
Q 1041 353 1073 281 
Q 1106 209 1195 161 
Q 1284 113 1503 113 
L 1503 0 
L 84 0 
L 84 113 
Q 275 113 384 172 
Q 447 203 484 290 
Q 522 378 522 647 
L 522 3238 
Q 522 3728 498 3840 
Q 475 3953 426 3993 
Q 378 4034 297 4034 
Q 231 4034 84 3984 
L 41 4094 
L 897 4444 
L 1041 4444 
z
" transform="scale(0.015625)"/>
       <path id="TimesNewRomanPSMT-44" d="M 109 0 
L 109 116 
L 269 116 
Q 538 116 650 288 
Q 719 391 719 750 
L 719 3488 
Q 719 3884 631 3984 
Q 509 4122 269 4122 
L 109 4122 
L 109 4238 
L 1834 4238 
Q 2784 4238 3279 4022 
Q 3775 3806 4076 3303 
Q 4378 2800 4378 2141 
Q 4378 1256 3841 663 
Q 3238 0 2003 0 
L 109 0 
z
M 1319 306 
Q 1716 219 1984 219 
Q 2709 219 3187 728 
Q 3666 1238 3666 2109 
Q 3666 2988 3187 3494 
Q 2709 4000 1959 4000 
Q 1678 4000 1319 3909 
L 1319 306 
z
" transform="scale(0.015625)"/>
      </defs>
      <use xlink:href="#TimesNewRomanPSMT-45"/>
      <use xlink:href="#TimesNewRomanPSMT-63" transform="translate(61.083984 0)"/>
      <use xlink:href="#TimesNewRomanPSMT-68" transform="translate(105.46875 0)"/>
      <use xlink:href="#TimesNewRomanPSMT-6f" transform="translate(155.46875 0)"/>
      <use xlink:href="#TimesNewRomanPSMT-20" transform="translate(205.46875 0)"/>
      <use xlink:href="#TimesNewRomanPSMT-44" transform="translate(230.46875 0)"/>
      <use xlink:href="#TimesNewRomanPSMT-79" transform="translate(302.685547 0)"/>
      <use xlink:href="#TimesNewRomanPSMT-6e" transform="translate(352.685547 0)"/>
      <use xlink:href="#TimesNewRomanPSMT-61" transform="translate(402.685547 0)"/>
      <use xlink:href="#TimesNewRomanPSMT-6d" transform="translate(447.070312 0)"/>
      <use xlink:href="#TimesNewRomanPSMT-69" transform="translate(524.853516 0)"/>
      <use xlink:href="#TimesNewRomanPSMT-63" transform="translate(552.636719 0)"/>
      <use xlink:href="#TimesNewRomanPSMT-73" transform="translate(597.021484 0)"/>
     </g>
    </g>
    <g id="patch_9">
     <path d="M 415.667927 192.109531 
L 435.667927 192.109531 
L 435.667927 185.109531 
L 415.667927 185.109531 
z
" style="fill: #ff7f0e"/>
    </g>
    <g id="text_18">
     <!-- Luminara Solutions -->
     <g transform="translate(443.667927 192.109531) scale(0.1 -0.1)">
      <defs>
       <path id="TimesNewRomanPSMT-4c" d="M 3669 1172 
L 3772 1150 
L 3409 0 
L 128 0 
L 128 116 
L 288 116 
Q 556 116 672 291 
Q 738 391 738 753 
L 738 3488 
Q 738 3884 650 3984 
Q 528 4122 288 4122 
L 128 4122 
L 128 4238 
L 2047 4238 
L 2047 4122 
Q 1709 4125 1573 4059 
Q 1438 3994 1388 3894 
Q 1338 3794 1338 3416 
L 1338 753 
Q 1338 494 1388 397 
Q 1425 331 1503 300 
Q 1581 269 1991 269 
L 2300 269 
Q 2788 269 2984 341 
Q 3181 413 3343 595 
Q 3506 778 3669 1172 
z
" transform="scale(0.015625)"/>
       <path id="TimesNewRomanPSMT-75" d="M 2709 2863 
L 2709 1128 
Q 2709 631 2732 520 
Q 2756 409 2807 365 
Q 2859 322 2928 322 
Q 3025 322 3147 375 
L 3191 266 
L 2334 -88 
L 2194 -88 
L 2194 519 
Q 1825 119 1631 15 
Q 1438 -88 1222 -88 
Q 981 -88 804 51 
Q 628 191 559 409 
Q 491 628 491 1028 
L 491 2306 
Q 491 2509 447 2587 
Q 403 2666 317 2708 
Q 231 2750 6 2747 
L 6 2863 
L 1009 2863 
L 1009 947 
Q 1009 547 1148 422 
Q 1288 297 1484 297 
Q 1619 297 1789 381 
Q 1959 466 2194 703 
L 2194 2325 
Q 2194 2569 2105 2655 
Q 2016 2741 1734 2747 
L 1734 2863 
L 2709 2863 
z
" transform="scale(0.015625)"/>
      </defs>
      <use xlink:href="#TimesNewRomanPSMT-4c"/>
      <use xlink:href="#TimesNewRomanPSMT-75" transform="translate(61.083984 0)"/>
      <use xlink:href="#TimesNewRomanPSMT-6d" transform="translate(111.083984 0)"/>
      <use xlink:href="#TimesNewRomanPSMT-69" transform="translate(188.867188 0)"/>
      <use xlink:href="#TimesNewRomanPSMT-6e" transform="translate(216.650391 0)"/>
      <use xlink:href="#TimesNewRomanPSMT-61" transform="translate(266.650391 0)"/>
      <use xlink:href="#TimesNewRomanPSMT-72" transform="translate(311.035156 0)"/>
      <use xlink:href="#TimesNewRomanPSMT-61" transform="translate(344.335938 0)"/>
      <use xlink:href="#TimesNewRomanPSMT-20" transform="translate(388.720703 0)"/>
      <use xlink:href="#TimesNewRomanPSMT-53" transform="translate(413.720703 0)"/>
      <use xlink:href="#TimesNewRomanPSMT-6f" transform="translate(469.335938 0)"/>
      <use xlink:href="#TimesNewRomanPSMT-6c" transform="translate(519.335938 0)"/>
      <use xlink:href="#TimesNewRomanPSMT-75" transform="translate(547.119141 0)"/>
      <use xlink:href="#TimesNewRomanPSMT-74" transform="translate(597.119141 0)"/>
      <use xlink:href="#TimesNewRomanPSMT-69" transform="translate(624.902344 0)"/>
      <use xlink:href="#TimesNewRomanPSMT-6f" transform="translate(652.685547 0)"/>
      <use xlink:href="#TimesNewRomanPSMT-6e" transform="translate(702.685547 0)"/>
      <use xlink:href="#TimesNewRomanPSMT-73" transform="translate(752.685547 0)"/>
     </g>
    </g>
   </g>
  </g>
 </g>
 <defs>
  <clipPath id="pd0f7afcf4d">
   <rect x="10.091927" y="36.92125" width="388.8" height="277.2"/>
  </clipPath>
 </defs>
</svg>
