<?xml version="1.0" encoding="utf-8" standalone="no"?>
<!DOCTYPE svg PUBLIC "-//W3C//DTD SVG 1.1//EN"
  "http://www.w3.org/Graphics/SVG/1.1/DTD/svg11.dtd">
<svg xmlns:xlink="http://www.w3.org/1999/xlink" width="518.467927pt" height="363.785279pt" viewBox="0 0 518.467927 363.785279" xmlns="http://www.w3.org/2000/svg" version="1.1">
 <metadata>
  <rdf:RDF xmlns:dc="http://purl.org/dc/elements/1.1/" xmlns:cc="http://creativecommons.org/ns#" xmlns:rdf="http://www.w3.org/1999/02/22-rdf-syntax-ns#">
   <cc:Work>
    <dc:type rdf:resource="http://purl.org/dc/dcmitype/StillImage"/>
    <dc:date>2025-05-31T00:06:22.000107</dc:date>
    <dc:format>image/svg+xml</dc:format>
    <dc:creator>
     <cc:Agent>
      <dc:title>Matplotlib v3.10.3, https://matplotlib.org/</dc:title>
     </cc:Agent>
    </dc:creator>
   </cc:Work>
  </rdf:RDF>
 </metadata>
 <defs>
  <style type="text/css">*{stroke-linejoin: round; stroke-linecap: butt}</style>
 </defs>
 <g id="figure_1">
  <g id="patch_1">
   <path d="M 0 363.785279 
L 518.467927 363.785279 
L 518.467927 0 
L 0 0 
z
" style="fill: #ffffff"/>
  </g>
  <g id="axes_1">
   <g id="patch_2">
    <path d="M 10.091927 314.12125 
L 398.891927 314.12125 
L 398.891927 36.92125 
L 10.091927 36.92125 
z
" style="fill: #ffffff"/>
   </g>
   <g id="FillBetweenPolyCollection_1">
    <path d="M 27.764654 189.068356 
L 27.764654 211.258148 
L 29.243543 211.784687 
L 30.722433 212.199429 
L 32.201322 212.509998 
L 33.680211 212.724016 
L 35.1591 212.849107 
L 36.63799 212.892894 
L 38.116879 212.862999 
L 39.595768 212.767047 
L 41.074658 212.612658 
L 42.553547 212.407458 
L 44.032436 212.159068 
L 45.511326 211.875112 
L 46.990215 211.563213 
L 48.469104 211.230994 
L 49.947994 210.886078 
L 51.426883 210.536087 
L 52.905772 210.188646 
L 54.384662 209.851377 
L 55.863551 209.531902 
L 57.34244 209.237846 
L 58.821329 208.976818 
L 60.300219 208.754377 
L 61.779108 208.571715 
L 63.257997 208.429465 
L 64.736887 208.328261 
L 66.215776 208.268738 
L 67.694665 208.251529 
L 69.173555 208.277267 
L 70.652444 208.346588 
L 72.131333 208.460125 
L 73.610223 208.618511 
L 75.089112 208.821818 
L 76.568001 209.066291 
L 78.046891 209.346583 
L 79.52578 209.65734 
L 81.004669 209.993208 
L 82.483558 210.348834 
L 83.962448 210.718865 
L 85.441337 211.097949 
L 86.920226 211.48073 
L 88.399116 211.861857 
L 89.878005 212.235698 
L 91.356894 212.587787 
L 92.835784 212.893177 
L 94.314673 213.126314 
L 95.793562 213.261643 
L 97.272452 213.27361 
L 98.751341 213.136661 
L 100.23023 212.825241 
L 101.70912 212.313796 
L 103.188009 211.576771 
L 104.666898 210.588614 
L 106.145787 209.343808 
L 107.624677 207.907198 
L 109.103566 206.359066 
L 110.582455 204.779696 
L 112.061345 203.249369 
L 113.540234 201.848368 
L 115.019123 200.656977 
L 116.498013 199.755477 
L 117.976902 199.224151 
L 119.455791 199.143281 
L 120.934681 199.584966 
L 122.41357 200.52097 
L 123.892459 201.855777 
L 125.371348 203.49263 
L 126.850238 205.334771 
L 128.329127 207.285444 
L 129.808016 209.247889 
L 131.286906 211.125351 
L 132.765795 212.821071 
L 134.244684 214.238292 
L 135.723574 215.280712 
L 137.202463 215.901621 
L 138.681352 216.147801 
L 140.160242 216.076388 
L 141.639131 215.744521 
L 143.11802 215.209337 
L 144.59691 214.527973 
L 146.075799 213.757568 
L 147.554688 212.955259 
L 149.033577 212.178184 
L 150.512467 211.48348 
L 151.991356 210.921451 
L 153.470245 210.501815 
L 154.949135 210.219369 
L 156.428024 210.068886 
L 157.906913 210.045138 
L 159.385803 210.1429 
L 160.864692 210.356944 
L 162.343581 210.682043 
L 163.822471 211.112971 
L 165.30136 211.6445 
L 166.780249 212.271137 
L 168.259139 212.980584 
L 169.738028 213.753338 
L 171.216917 214.569553 
L 172.695806 215.409381 
L 174.174696 216.252976 
L 175.653585 217.080488 
L 177.132474 217.872073 
L 178.611364 218.607881 
L 180.090253 219.268065 
L 181.569142 219.832782 
L 183.048032 220.289205 
L 184.526921 220.646169 
L 186.00581 220.916675 
L 187.4847 221.113727 
L 188.963589 221.250326 
L 190.442478 221.339475 
L 191.921368 221.394176 
L 193.400257 221.427432 
L 194.879146 221.452244 
L 196.358035 221.481615 
L 197.836925 221.528001 
L 199.315814 221.598115 
L 200.794703 221.695247 
L 202.273593 221.822639 
L 203.752482 221.983535 
L 205.231371 222.181178 
L 206.710261 222.418811 
L 208.18915 222.699677 
L 209.668039 223.027018 
L 211.146929 223.404078 
L 212.625818 223.834053 
L 214.104707 224.31656 
L 215.583596 224.84523 
L 217.062486 225.413117 
L 218.541375 226.013281 
L 220.020264 226.638776 
L 221.499154 227.28266 
L 222.978043 227.937991 
L 224.456932 228.597824 
L 225.935822 229.255217 
L 227.414711 229.903226 
L 228.8936 230.535343 
L 230.37249 231.147309 
L 231.851379 231.7356 
L 233.330268 232.29669 
L 234.809158 232.827051 
L 236.288047 233.323159 
L 237.766936 233.781486 
L 239.245825 234.198508 
L 240.724715 234.570698 
L 242.203604 234.89453 
L 243.682493 235.16664 
L 245.161383 235.387028 
L 246.640272 235.558875 
L 248.119161 235.685484 
L 249.598051 235.77016 
L 251.07694 235.816208 
L 252.555829 235.826932 
L 254.034719 235.805636 
L 255.513608 235.755626 
L 256.992497 235.680204 
L 258.471387 235.582682 
L 259.950276 235.470283 
L 261.429165 235.360869 
L 262.908054 235.274093 
L 264.386944 235.229611 
L 265.865833 235.247075 
L 267.344722 235.34614 
L 268.823612 235.546461 
L 270.302501 235.867691 
L 271.78139 236.329483 
L 273.26028 236.951494 
L 274.739169 237.749839 
L 276.218058 238.708715 
L 277.696948 239.795386 
L 279.175837 240.976958 
L 280.654726 242.220538 
L 282.133616 243.493235 
L 283.612505 244.762156 
L 285.091394 245.994408 
L 286.570283 247.157099 
L 288.049173 248.217336 
L 289.528062 249.142586 
L 291.006951 249.919824 
L 292.485841 250.565114 
L 293.96473 251.096894 
L 295.443619 251.533602 
L 296.922509 251.893674 
L 298.401398 252.195549 
L 299.880287 252.457664 
L 301.359177 252.698456 
L 302.838066 252.936363 
L 304.316955 253.189822 
L 305.795845 253.474344 
L 307.274734 253.792097 
L 308.753623 254.14145 
L 310.232512 254.520771 
L 311.711402 254.92843 
L 313.190291 255.362796 
L 314.66918 255.822236 
L 316.14807 256.30512 
L 317.626959 256.809817 
L 319.105848 257.334695 
L 320.584738 257.878162 
L 322.063627 258.439278 
L 323.542516 259.017659 
L 325.021406 259.612935 
L 326.500295 260.22474 
L 327.979184 260.852704 
L 329.458073 261.496459 
L 330.936963 262.155636 
L 332.415852 262.829868 
L 333.894741 263.518787 
L 335.373631 264.222015 
L 336.85252 264.936828 
L 338.331409 265.654863 
L 339.810299 266.366924 
L 341.289188 267.063818 
L 342.768077 267.736352 
L 344.246967 268.37533 
L 345.725856 268.97156 
L 347.204745 269.515848 
L 348.683635 269.999 
L 350.162524 270.411821 
L 351.641413 270.747493 
L 353.120302 271.01776 
L 354.599192 271.243102 
L 356.078081 271.444048 
L 357.55697 271.641129 
L 359.03586 271.854875 
L 360.514749 272.105815 
L 361.993638 272.41448 
L 363.472528 272.801399 
L 364.951417 273.287104 
L 366.430306 273.892123 
L 367.909196 274.636987 
L 369.388085 275.542227 
L 370.866974 276.628371 
L 372.345864 277.915951 
L 373.824753 279.425496 
L 375.303642 281.177536 
L 376.782531 283.192601 
L 378.261421 285.491222 
L 379.74031 288.093928 
L 381.219199 291.02125 
L 381.219199 268.256372 
L 381.219199 268.256372 
L 379.74031 270.149352 
L 378.261421 271.510007 
L 376.782531 272.376844 
L 375.303642 272.788367 
L 373.824753 272.783081 
L 372.345864 272.399492 
L 370.866974 271.676105 
L 369.388085 270.651425 
L 367.909196 269.363958 
L 366.430306 267.852209 
L 364.951417 266.154684 
L 363.472528 264.309887 
L 361.993638 262.356324 
L 360.514749 260.3325 
L 359.03586 258.276921 
L 357.55697 256.228092 
L 356.078081 254.224518 
L 354.599192 252.304704 
L 353.120302 250.507156 
L 351.641413 248.870379 
L 350.162524 247.432766 
L 348.683635 246.21341 
L 347.204745 245.190382 
L 345.725856 244.336508 
L 344.246967 243.624612 
L 342.768077 243.02752 
L 341.289188 242.518057 
L 339.810299 242.069048 
L 338.331409 241.653317 
L 336.85252 241.243691 
L 335.373631 240.812995 
L 333.894741 240.33746 
L 332.415852 239.816497 
L 330.936963 239.259167 
L 329.458073 238.674562 
L 327.979184 238.071777 
L 326.500295 237.459904 
L 325.021406 236.848036 
L 323.542516 236.245265 
L 322.063627 235.660686 
L 320.584738 235.103391 
L 319.105848 234.58226 
L 317.626959 234.099339 
L 316.14807 233.648576 
L 314.66918 233.223449 
L 313.190291 232.817436 
L 311.711402 232.424013 
L 310.232512 232.036659 
L 308.753623 231.64885 
L 307.274734 231.254065 
L 305.795845 230.845781 
L 304.316955 230.417475 
L 302.838066 229.9655 
L 301.359177 229.496301 
L 299.880287 229.018539 
L 298.401398 228.540876 
L 296.922509 228.07197 
L 295.443619 227.620484 
L 293.96473 227.195077 
L 292.485841 226.80441 
L 291.006951 226.457144 
L 289.528062 226.16194 
L 288.049173 225.926041 
L 286.570283 225.739334 
L 285.091394 225.580061 
L 283.612505 225.426252 
L 282.133616 225.255935 
L 280.654726 225.047141 
L 279.175837 224.777899 
L 277.696948 224.426237 
L 276.218058 223.970184 
L 274.739169 223.38777 
L 273.26028 222.657197 
L 271.78139 221.775535 
L 270.302501 220.775418 
L 268.823612 219.693422 
L 267.344722 218.566124 
L 265.865833 217.430098 
L 264.386944 216.321921 
L 262.908054 215.278168 
L 261.429165 214.335415 
L 259.950276 213.530237 
L 258.471387 212.89921 
L 256.992497 212.47053 
L 255.513608 212.222628 
L 254.034719 212.115638 
L 252.555829 212.109665 
L 251.07694 212.164815 
L 249.598051 212.241192 
L 248.119161 212.298903 
L 246.640272 212.298051 
L 245.161383 212.198744 
L 243.682493 211.961085 
L 242.203604 211.546523 
L 240.724715 210.950759 
L 239.245825 210.205752 
L 237.766936 209.345201 
L 236.288047 208.402806 
L 234.809158 207.412267 
L 233.330268 206.407283 
L 231.851379 205.421554 
L 230.37249 204.48878 
L 228.8936 203.64266 
L 227.414711 202.916888 
L 225.935822 202.334233 
L 224.456932 201.883733 
L 222.978043 201.547938 
L 221.499154 201.309395 
L 220.020264 201.150656 
L 218.541375 201.054269 
L 217.062486 201.002783 
L 215.583596 200.978747 
L 214.104707 200.964711 
L 212.625818 200.943224 
L 211.146929 200.897766 
L 209.668039 200.821565 
L 208.18915 200.713672 
L 206.710261 200.573213 
L 205.231371 200.399315 
L 203.752482 200.191107 
L 202.273593 199.947715 
L 200.794703 199.668266 
L 199.315814 199.351888 
L 197.836925 198.997708 
L 196.358035 198.604972 
L 194.879146 198.181825 
L 193.400257 197.751319 
L 191.921368 197.337929 
L 190.442478 196.96613 
L 188.963589 196.660396 
L 187.4847 196.445202 
L 186.00581 196.345022 
L 184.526921 196.384331 
L 183.048032 196.587604 
L 181.569142 196.979315 
L 180.090253 197.573093 
L 178.611364 198.326183 
L 177.132474 199.177572 
L 175.653585 200.066233 
L 174.174696 200.931141 
L 172.695806 201.711272 
L 171.216917 202.345601 
L 169.738028 202.773102 
L 168.259139 202.932751 
L 166.780249 202.763523 
L 165.30136 202.20766 
L 163.822471 201.275412 
L 162.343581 200.041284 
L 160.864692 198.582298 
L 159.385803 196.975478 
L 157.906913 195.297845 
L 156.428024 193.626423 
L 154.949135 192.038234 
L 153.470245 190.610301 
L 151.991356 189.419646 
L 150.512467 188.543245 
L 149.033577 188.027864 
L 147.554688 187.838107 
L 146.075799 187.924742 
L 144.59691 188.238539 
L 143.11802 188.730267 
L 141.639131 189.350692 
L 140.160242 190.050585 
L 138.681352 190.780714 
L 137.202463 191.491848 
L 135.723574 192.134755 
L 134.244684 192.663993 
L 132.765795 193.068331 
L 131.286906 193.354685 
L 129.808016 193.530134 
L 128.329127 193.601763 
L 126.850238 193.576651 
L 125.371348 193.461881 
L 123.892459 193.264534 
L 122.41357 192.991692 
L 120.934681 192.650438 
L 119.455791 192.247908 
L 117.976902 191.794273 
L 116.498013 191.304226 
L 115.019123 190.79283 
L 113.540234 190.275148 
L 112.061345 189.766241 
L 110.582455 189.281172 
L 109.103566 188.835003 
L 107.624677 188.442797 
L 106.145787 188.119616 
L 104.666898 187.880522 
L 103.188009 187.736746 
L 101.70912 187.68206 
L 100.23023 187.705259 
L 98.751341 187.795143 
L 97.272452 187.940508 
L 95.793562 188.130151 
L 94.314673 188.352871 
L 92.835784 188.597464 
L 91.356894 188.852728 
L 89.878005 189.107461 
L 88.399116 189.350623 
L 86.920226 189.574016 
L 85.441337 189.771829 
L 83.962448 189.938331 
L 82.483558 190.067787 
L 81.004669 190.154465 
L 79.52578 190.192631 
L 78.046891 190.176552 
L 76.568001 190.100495 
L 75.089112 189.958726 
L 73.610223 189.745533 
L 72.131333 189.461376 
L 70.652444 189.121535 
L 69.173555 188.743474 
L 67.694665 188.344653 
L 66.215776 187.942534 
L 64.736887 187.554579 
L 63.257997 187.198249 
L 61.779108 186.891005 
L 60.300219 186.650309 
L 58.821329 186.493623 
L 57.34244 186.436034 
L 55.863551 186.474066 
L 54.384662 186.595511 
L 52.905772 186.788107 
L 51.426883 187.039594 
L 49.947994 187.337714 
L 48.469104 187.670204 
L 46.990215 188.024806 
L 45.511326 188.389258 
L 44.032436 188.751302 
L 42.553547 189.098675 
L 41.074658 189.41912 
L 39.595768 189.700374 
L 38.116879 189.930179 
L 36.63799 190.096273 
L 35.1591 190.186397 
L 33.680211 190.188291 
L 32.201322 190.089693 
L 30.722433 189.878345 
L 29.243543 189.541986 
L 27.764654 189.068356 
z
" clip-path="url(#paba0a464c4)" style="fill: #1f77b4"/>
   </g>
   <g id="FillBetweenPolyCollection_2">
    <path d="M 27.764654 162.626039 
L 27.764654 189.068356 
L 29.243543 189.541986 
L 30.722433 189.878345 
L 32.201322 190.089693 
L 33.680211 190.188291 
L 35.1591 190.186397 
L 36.63799 190.096273 
L 38.116879 189.930179 
L 39.595768 189.700374 
L 41.074658 189.41912 
L 42.553547 189.098675 
L 44.032436 188.751302 
L 45.511326 188.389258 
L 46.990215 188.024806 
L 48.469104 187.670204 
L 49.947994 187.337714 
L 51.426883 187.039594 
L 52.905772 186.788107 
L 54.384662 186.595511 
L 55.863551 186.474066 
L 57.34244 186.436034 
L 58.821329 186.493623 
L 60.300219 186.650309 
L 61.779108 186.891005 
L 63.257997 187.198249 
L 64.736887 187.554579 
L 66.215776 187.942534 
L 67.694665 188.344653 
L 69.173555 188.743474 
L 70.652444 189.121535 
L 72.131333 189.461376 
L 73.610223 189.745533 
L 75.089112 189.958726 
L 76.568001 190.100495 
L 78.046891 190.176552 
L 79.52578 190.192631 
L 81.004669 190.154465 
L 82.483558 190.067787 
L 83.962448 189.938331 
L 85.441337 189.771829 
L 86.920226 189.574016 
L 88.399116 189.350623 
L 89.878005 189.107461 
L 91.356894 188.852728 
L 92.835784 188.597464 
L 94.314673 188.352871 
L 95.793562 188.130151 
L 97.272452 187.940508 
L 98.751341 187.795143 
L 100.23023 187.705259 
L 101.70912 187.68206 
L 103.188009 187.736746 
L 104.666898 187.880522 
L 106.145787 188.119616 
L 107.624677 188.442797 
L 109.103566 188.835003 
L 110.582455 189.281172 
L 112.061345 189.766241 
L 113.540234 190.275148 
L 115.019123 190.79283 
L 116.498013 191.304226 
L 117.976902 191.794273 
L 119.455791 192.247908 
L 120.934681 192.650438 
L 122.41357 192.991692 
L 123.892459 193.264534 
L 125.371348 193.461881 
L 126.850238 193.576651 
L 128.329127 193.601763 
L 129.808016 193.530134 
L 131.286906 193.354685 
L 132.765795 193.068331 
L 134.244684 192.663993 
L 135.723574 192.134755 
L 137.202463 191.491848 
L 138.681352 190.780714 
L 140.160242 190.050585 
L 141.639131 189.350692 
L 143.11802 188.730267 
L 144.59691 188.238539 
L 146.075799 187.924742 
L 147.554688 187.838107 
L 149.033577 188.027864 
L 150.512467 188.543245 
L 151.991356 189.419646 
L 153.470245 190.610301 
L 154.949135 192.038234 
L 156.428024 193.626423 
L 157.906913 195.297845 
L 159.385803 196.975478 
L 160.864692 198.582298 
L 162.343581 200.041284 
L 163.822471 201.275412 
L 165.30136 202.20766 
L 166.780249 202.763523 
L 168.259139 202.932751 
L 169.738028 202.773102 
L 171.216917 202.345601 
L 172.695806 201.711272 
L 174.174696 200.931141 
L 175.653585 200.066233 
L 177.132474 199.177572 
L 178.611364 198.326183 
L 180.090253 197.573093 
L 181.569142 196.979315 
L 183.048032 196.587604 
L 184.526921 196.384331 
L 186.00581 196.345022 
L 187.4847 196.445202 
L 188.963589 196.660396 
L 190.442478 196.96613 
L 191.921368 197.337929 
L 193.400257 197.751319 
L 194.879146 198.181825 
L 196.358035 198.604972 
L 197.836925 198.997708 
L 199.315814 199.351888 
L 200.794703 199.668266 
L 202.273593 199.947715 
L 203.752482 200.191107 
L 205.231371 200.399315 
L 206.710261 200.573213 
L 208.18915 200.713672 
L 209.668039 200.821565 
L 211.146929 200.897766 
L 212.625818 200.943224 
L 214.104707 200.964711 
L 215.583596 200.978747 
L 217.062486 201.002783 
L 218.541375 201.054269 
L 220.020264 201.150656 
L 221.499154 201.309395 
L 222.978043 201.547938 
L 224.456932 201.883733 
L 225.935822 202.334233 
L 227.414711 202.916888 
L 228.8936 203.64266 
L 230.37249 204.48878 
L 231.851379 205.421554 
L 233.330268 206.407283 
L 234.809158 207.412267 
L 236.288047 208.402806 
L 237.766936 209.345201 
L 239.245825 210.205752 
L 240.724715 210.950759 
L 242.203604 211.546523 
L 243.682493 211.961085 
L 245.161383 212.198744 
L 246.640272 212.298051 
L 248.119161 212.298903 
L 249.598051 212.241192 
L 251.07694 212.164815 
L 252.555829 212.109665 
L 254.034719 212.115638 
L 255.513608 212.222628 
L 256.992497 212.47053 
L 258.471387 212.89921 
L 259.950276 213.530237 
L 261.429165 214.335415 
L 262.908054 215.278168 
L 264.386944 216.321921 
L 265.865833 217.430098 
L 267.344722 218.566124 
L 268.823612 219.693422 
L 270.302501 220.775418 
L 271.78139 221.775535 
L 273.26028 222.657197 
L 274.739169 223.38777 
L 276.218058 223.970184 
L 277.696948 224.426237 
L 279.175837 224.777899 
L 280.654726 225.047141 
L 282.133616 225.255935 
L 283.612505 225.426252 
L 285.091394 225.580061 
L 286.570283 225.739334 
L 288.049173 225.926041 
L 289.528062 226.16194 
L 291.006951 226.457144 
L 292.485841 226.80441 
L 293.96473 227.195077 
L 295.443619 227.620484 
L 296.922509 228.07197 
L 298.401398 228.540876 
L 299.880287 229.018539 
L 301.359177 229.496301 
L 302.838066 229.9655 
L 304.316955 230.417475 
L 305.795845 230.845781 
L 307.274734 231.254065 
L 308.753623 231.64885 
L 310.232512 232.036659 
L 311.711402 232.424013 
L 313.190291 232.817436 
L 314.66918 233.223449 
L 316.14807 233.648576 
L 317.626959 234.099339 
L 319.105848 234.58226 
L 320.584738 235.103391 
L 322.063627 235.660686 
L 323.542516 236.245265 
L 325.021406 236.848036 
L 326.500295 237.459904 
L 327.979184 238.071777 
L 329.458073 238.674562 
L 330.936963 239.259167 
L 332.415852 239.816497 
L 333.894741 240.33746 
L 335.373631 240.812995 
L 336.85252 241.243691 
L 338.331409 241.653317 
L 339.810299 242.069048 
L 341.289188 242.518057 
L 342.768077 243.02752 
L 344.246967 243.624612 
L 345.725856 244.336508 
L 347.204745 245.190382 
L 348.683635 246.21341 
L 350.162524 247.432766 
L 351.641413 248.870379 
L 353.120302 250.507156 
L 354.599192 252.304704 
L 356.078081 254.224518 
L 357.55697 256.228092 
L 359.03586 258.276921 
L 360.514749 260.3325 
L 361.993638 262.356324 
L 363.472528 264.309887 
L 364.951417 266.154684 
L 366.430306 267.852209 
L 367.909196 269.363958 
L 369.388085 270.651425 
L 370.866974 271.676105 
L 372.345864 272.399492 
L 373.824753 272.783081 
L 375.303642 272.788367 
L 376.782531 272.376844 
L 378.261421 271.510007 
L 379.74031 270.149352 
L 381.219199 268.256372 
L 381.219199 265.256553 
L 381.219199 265.256553 
L 379.74031 266.536044 
L 378.261421 267.433295 
L 376.782531 267.974553 
L 375.303642 268.186066 
L 373.824753 268.094083 
L 372.345864 267.724852 
L 370.866974 267.10462 
L 369.388085 266.259637 
L 367.909196 265.21615 
L 366.430306 264.000407 
L 364.951417 262.638658 
L 363.472528 261.157149 
L 361.993638 259.582129 
L 360.514749 257.939847 
L 359.03586 256.25655 
L 357.55697 254.558487 
L 356.078081 252.871906 
L 354.599192 251.223055 
L 353.120302 249.638183 
L 351.641413 248.143537 
L 350.162524 246.765301 
L 348.683635 245.518578 
L 347.204745 244.394919 
L 345.725856 243.382862 
L 344.246967 242.470946 
L 342.768077 241.64771 
L 341.289188 240.901692 
L 339.810299 240.221432 
L 338.331409 239.595467 
L 336.85252 239.012336 
L 335.373631 238.460578 
L 333.894741 237.929504 
L 332.415852 237.41368 
L 330.936963 236.90986 
L 329.458073 236.414806 
L 327.979184 235.925279 
L 326.500295 235.43804 
L 325.021406 234.949851 
L 323.542516 234.457473 
L 322.063627 233.957667 
L 320.584738 233.447195 
L 319.105848 232.922822 
L 317.626959 232.381404 
L 316.14807 231.819913 
L 314.66918 231.235324 
L 313.190291 230.624614 
L 311.711402 229.984758 
L 310.232512 229.312733 
L 308.753623 228.605515 
L 307.274734 227.860079 
L 305.795845 227.073404 
L 304.316955 226.242464 
L 302.838066 225.369287 
L 301.359177 224.473636 
L 299.880287 223.579166 
L 298.401398 222.709532 
L 296.922509 221.888388 
L 295.443619 221.13939 
L 293.96473 220.486192 
L 292.485841 219.952448 
L 291.006951 219.561814 
L 289.528062 219.337944 
L 288.049173 219.301135 
L 286.570283 219.430515 
L 285.091394 219.677609 
L 283.612505 219.993429 
L 282.133616 220.32899 
L 280.654726 220.635305 
L 279.175837 220.863388 
L 277.696948 220.964253 
L 276.218058 220.888913 
L 274.739169 220.588383 
L 273.26028 220.013986 
L 271.78139 219.150816 
L 270.302501 218.047624 
L 268.823612 216.760216 
L 267.344722 215.344397 
L 265.865833 213.855971 
L 264.386944 212.350744 
L 262.908054 210.88452 
L 261.429165 209.513105 
L 259.950276 208.292303 
L 258.471387 207.277919 
L 256.992497 206.515492 
L 255.513608 205.98959 
L 254.034719 205.662367 
L 252.555829 205.495938 
L 251.07694 205.452421 
L 249.598051 205.493933 
L 248.119161 205.582592 
L 246.640272 205.680514 
L 245.161383 205.749816 
L 243.682493 205.752616 
L 242.203604 205.651931 
L 240.724715 205.433757 
L 239.245825 205.108407 
L 237.766936 204.687364 
L 236.288047 204.182113 
L 234.809158 203.604135 
L 233.330268 202.964914 
L 231.851379 202.275933 
L 230.37249 201.548674 
L 228.8936 200.794621 
L 227.414711 200.025258 
L 225.935822 199.25233 
L 224.456932 198.488399 
L 222.978043 197.746183 
L 221.499154 197.0384 
L 220.020264 196.377767 
L 218.541375 195.777004 
L 217.062486 195.248827 
L 215.583596 194.805954 
L 214.104707 194.461104 
L 212.625818 194.226994 
L 211.146929 194.114191 
L 209.668039 194.110706 
L 208.18915 194.19109 
L 206.710261 194.329712 
L 205.231371 194.500941 
L 203.752482 194.679148 
L 202.273593 194.838701 
L 200.794703 194.95397 
L 199.315814 194.999324 
L 197.836925 194.949133 
L 196.358035 194.778015 
L 194.879146 194.4791 
L 193.400257 194.076534 
L 191.921368 193.597424 
L 190.442478 193.068873 
L 188.963589 192.517988 
L 187.4847 191.971874 
L 186.00581 191.457637 
L 184.526921 191.002381 
L 183.048032 190.633213 
L 181.569142 190.377237 
L 180.090253 190.254698 
L 178.611364 190.250171 
L 177.132474 190.33668 
L 175.653585 190.487241 
L 174.174696 190.674873 
L 172.695806 190.872592 
L 171.216917 191.053415 
L 169.738028 191.19036 
L 168.259139 191.256444 
L 166.780249 191.224684 
L 165.30136 191.068964 
L 163.822471 190.781204 
L 162.343581 190.370367 
L 160.864692 189.846083 
L 159.385803 189.217982 
L 157.906913 188.495695 
L 156.428024 187.688851 
L 154.949135 186.80708 
L 153.470245 185.860014 
L 151.991356 184.857281 
L 150.512467 183.808522 
L 149.033577 182.729573 
L 147.554688 181.653124 
L 146.075799 180.614703 
L 144.59691 179.649838 
L 143.11802 178.794057 
L 141.639131 178.082887 
L 140.160242 177.551858 
L 138.681352 177.236496 
L 137.202463 177.172329 
L 135.723574 177.394887 
L 134.244684 177.932472 
L 132.765795 178.748186 
L 131.286906 179.770541 
L 129.808016 180.927731 
L 128.329127 182.147952 
L 126.850238 183.359397 
L 125.371348 184.490263 
L 123.892459 185.468742 
L 122.41357 186.223031 
L 120.934681 186.681323 
L 119.455791 186.772732 
L 117.976902 186.476086 
L 116.498013 185.844355 
L 115.019123 184.93656 
L 113.540234 183.811718 
L 112.061345 182.528849 
L 110.582455 181.14697 
L 109.103566 179.725102 
L 107.624677 178.322262 
L 106.145787 176.99747 
L 104.666898 175.809744 
L 103.188009 174.806512 
L 101.70912 173.982366 
L 100.23023 173.316854 
L 98.751341 172.789523 
L 97.272452 172.379921 
L 95.793562 172.067593 
L 94.314673 171.832087 
L 92.835784 171.652951 
L 91.356894 171.50973 
L 89.878005 171.381972 
L 88.399116 171.249989 
L 86.920226 171.107293 
L 85.441337 170.958527 
L 83.962448 170.808682 
L 82.483558 170.662749 
L 81.004669 170.525721 
L 79.52578 170.402589 
L 78.046891 170.298344 
L 76.568001 170.217977 
L 75.089112 170.166481 
L 73.610223 170.148832 
L 72.131333 170.165673 
L 70.652444 170.20724 
L 69.173555 170.262237 
L 67.694665 170.319368 
L 66.215776 170.36734 
L 64.736887 170.394856 
L 63.257997 170.390622 
L 61.779108 170.343342 
L 60.300219 170.24172 
L 58.821329 170.074463 
L 57.34244 169.831942 
L 55.863551 169.517566 
L 54.384662 169.14088 
L 52.905772 168.711463 
L 51.426883 168.238895 
L 49.947994 167.732754 
L 48.469104 167.202621 
L 46.990215 166.658075 
L 45.511326 166.108695 
L 44.032436 165.564061 
L 42.553547 165.033752 
L 41.074658 164.527348 
L 39.595768 164.054428 
L 38.116879 163.624572 
L 36.63799 163.247359 
L 35.1591 162.932369 
L 33.680211 162.689181 
L 32.201322 162.527374 
L 30.722433 162.456529 
L 29.243543 162.486224 
L 27.764654 162.626039 
z
" clip-path="url(#paba0a464c4)" style="fill: #aec7e8"/>
   </g>
   <g id="FillBetweenPolyCollection_3">
    <path d="M 27.764654 139.784352 
L 27.764654 162.626039 
L 29.243543 162.486224 
L 30.722433 162.456529 
L 32.201322 162.527374 
L 33.680211 162.689181 
L 35.1591 162.932369 
L 36.63799 163.247359 
L 38.116879 163.624572 
L 39.595768 164.054428 
L 41.074658 164.527348 
L 42.553547 165.033752 
L 44.032436 165.564061 
L 45.511326 166.108695 
L 46.990215 166.658075 
L 48.469104 167.202621 
L 49.947994 167.732754 
L 51.426883 168.238895 
L 52.905772 168.711463 
L 54.384662 169.14088 
L 55.863551 169.517566 
L 57.34244 169.831942 
L 58.821329 170.074463 
L 60.300219 170.24172 
L 61.779108 170.343342 
L 63.257997 170.390622 
L 64.736887 170.394856 
L 66.215776 170.36734 
L 67.694665 170.319368 
L 69.173555 170.262237 
L 70.652444 170.20724 
L 72.131333 170.165673 
L 73.610223 170.148832 
L 75.089112 170.166481 
L 76.568001 170.217977 
L 78.046891 170.298344 
L 79.52578 170.402589 
L 81.004669 170.525721 
L 82.483558 170.662749 
L 83.962448 170.808682 
L 85.441337 170.958527 
L 86.920226 171.107293 
L 88.399116 171.249989 
L 89.878005 171.381972 
L 91.356894 171.50973 
L 92.835784 171.652951 
L 94.314673 171.832087 
L 95.793562 172.067593 
L 97.272452 172.379921 
L 98.751341 172.789523 
L 100.23023 173.316854 
L 101.70912 173.982366 
L 103.188009 174.806512 
L 104.666898 175.809744 
L 106.145787 176.99747 
L 107.624677 178.322262 
L 109.103566 179.725102 
L 110.582455 181.14697 
L 112.061345 182.528849 
L 113.540234 183.811718 
L 115.019123 184.93656 
L 116.498013 185.844355 
L 117.976902 186.476086 
L 119.455791 186.772732 
L 120.934681 186.681323 
L 122.41357 186.223031 
L 123.892459 185.468742 
L 125.371348 184.490263 
L 126.850238 183.359397 
L 128.329127 182.147952 
L 129.808016 180.927731 
L 131.286906 179.770541 
L 132.765795 178.748186 
L 134.244684 177.932472 
L 135.723574 177.394887 
L 137.202463 177.172329 
L 138.681352 177.236496 
L 140.160242 177.551858 
L 141.639131 178.082887 
L 143.11802 178.794057 
L 144.59691 179.649838 
L 146.075799 180.614703 
L 147.554688 181.653124 
L 149.033577 182.729573 
L 150.512467 183.808522 
L 151.991356 184.857281 
L 153.470245 185.860014 
L 154.949135 186.80708 
L 156.428024 187.688851 
L 157.906913 188.495695 
L 159.385803 189.217982 
L 160.864692 189.846083 
L 162.343581 190.370367 
L 163.822471 190.781204 
L 165.30136 191.068964 
L 166.780249 191.224684 
L 168.259139 191.256444 
L 169.738028 191.19036 
L 171.216917 191.053415 
L 172.695806 190.872592 
L 174.174696 190.674873 
L 175.653585 190.487241 
L 177.132474 190.33668 
L 178.611364 190.250171 
L 180.090253 190.254698 
L 181.569142 190.377237 
L 183.048032 190.633213 
L 184.526921 191.002381 
L 186.00581 191.457637 
L 187.4847 191.971874 
L 188.963589 192.517988 
L 190.442478 193.068873 
L 191.921368 193.597424 
L 193.400257 194.076534 
L 194.879146 194.4791 
L 196.358035 194.778015 
L 197.836925 194.949133 
L 199.315814 194.999324 
L 200.794703 194.95397 
L 202.273593 194.838701 
L 203.752482 194.679148 
L 205.231371 194.500941 
L 206.710261 194.329712 
L 208.18915 194.19109 
L 209.668039 194.110706 
L 211.146929 194.114191 
L 212.625818 194.226994 
L 214.104707 194.461104 
L 215.583596 194.805954 
L 217.062486 195.248827 
L 218.541375 195.777004 
L 220.020264 196.377767 
L 221.499154 197.0384 
L 222.978043 197.746183 
L 224.456932 198.488399 
L 225.935822 199.25233 
L 227.414711 200.025258 
L 228.8936 200.794621 
L 230.37249 201.548674 
L 231.851379 202.275933 
L 233.330268 202.964914 
L 234.809158 203.604135 
L 236.288047 204.182113 
L 237.766936 204.687364 
L 239.245825 205.108407 
L 240.724715 205.433757 
L 242.203604 205.651931 
L 243.682493 205.752616 
L 245.161383 205.749816 
L 246.640272 205.680514 
L 248.119161 205.582592 
L 249.598051 205.493933 
L 251.07694 205.452421 
L 252.555829 205.495938 
L 254.034719 205.662367 
L 255.513608 205.98959 
L 256.992497 206.515492 
L 258.471387 207.277919 
L 259.950276 208.292303 
L 261.429165 209.513105 
L 262.908054 210.88452 
L 264.386944 212.350744 
L 265.865833 213.855971 
L 267.344722 215.344397 
L 268.823612 216.760216 
L 270.302501 218.047624 
L 271.78139 219.150816 
L 273.26028 220.013986 
L 274.739169 220.588383 
L 276.218058 220.888913 
L 277.696948 220.964253 
L 279.175837 220.863388 
L 280.654726 220.635305 
L 282.133616 220.32899 
L 283.612505 219.993429 
L 285.091394 219.677609 
L 286.570283 219.430515 
L 288.049173 219.301135 
L 289.528062 219.337944 
L 291.006951 219.561814 
L 292.485841 219.952448 
L 293.96473 220.486192 
L 295.443619 221.13939 
L 296.922509 221.888388 
L 298.401398 222.709532 
L 299.880287 223.579166 
L 301.359177 224.473636 
L 302.838066 225.369287 
L 304.316955 226.242464 
L 305.795845 227.073404 
L 307.274734 227.860079 
L 308.753623 228.605515 
L 310.232512 229.312733 
L 311.711402 229.984758 
L 313.190291 230.624614 
L 314.66918 231.235324 
L 316.14807 231.819913 
L 317.626959 232.381404 
L 319.105848 232.922822 
L 320.584738 233.447195 
L 322.063627 233.957667 
L 323.542516 234.457473 
L 325.021406 234.949851 
L 326.500295 235.43804 
L 327.979184 235.925279 
L 329.458073 236.414806 
L 330.936963 236.90986 
L 332.415852 237.41368 
L 333.894741 237.929504 
L 335.373631 238.460578 
L 336.85252 239.012336 
L 338.331409 239.595467 
L 339.810299 240.221432 
L 341.289188 240.901692 
L 342.768077 241.64771 
L 344.246967 242.470946 
L 345.725856 243.382862 
L 347.204745 244.394919 
L 348.683635 245.518578 
L 350.162524 246.765301 
L 351.641413 248.143537 
L 353.120302 249.638183 
L 354.599192 251.223055 
L 356.078081 252.871906 
L 357.55697 254.558487 
L 359.03586 256.25655 
L 360.514749 257.939847 
L 361.993638 259.582129 
L 363.472528 261.157149 
L 364.951417 262.638658 
L 366.430306 264.000407 
L 367.909196 265.21615 
L 369.388085 266.259637 
L 370.866974 267.10462 
L 372.345864 267.724852 
L 373.824753 268.094083 
L 375.303642 268.186066 
L 376.782531 267.974553 
L 378.261421 267.433295 
L 379.74031 266.536044 
L 381.219199 265.256553 
L 381.219199 60.02125 
L 381.219199 60.02125 
L 379.74031 62.948572 
L 378.261421 65.551278 
L 376.782531 67.849899 
L 375.303642 69.864964 
L 373.824753 71.617004 
L 372.345864 73.126549 
L 370.866974 74.414129 
L 369.388085 75.500273 
L 367.909196 76.405513 
L 366.430306 77.150377 
L 364.951417 77.755396 
L 363.472528 78.241101 
L 361.993638 78.62802 
L 360.514749 78.936685 
L 359.03586 79.187625 
L 357.55697 79.401371 
L 356.078081 79.598452 
L 354.599192 79.799398 
L 353.120302 80.02474 
L 351.641413 80.295007 
L 350.162524 80.630679 
L 348.683635 81.0435 
L 347.204745 81.526652 
L 345.725856 82.07094 
L 344.246967 82.66717 
L 342.768077 83.306148 
L 341.289188 83.978682 
L 339.810299 84.675576 
L 338.331409 85.387637 
L 336.85252 86.105672 
L 335.373631 86.820485 
L 333.894741 87.523713 
L 332.415852 88.212632 
L 330.936963 88.886864 
L 329.458073 89.546041 
L 327.979184 90.189796 
L 326.500295 90.81776 
L 325.021406 91.429565 
L 323.542516 92.024841 
L 322.063627 92.603222 
L 320.584738 93.164338 
L 319.105848 93.707805 
L 317.626959 94.232683 
L 316.14807 94.73738 
L 314.66918 95.220264 
L 313.190291 95.679704 
L 311.711402 96.11407 
L 310.232512 96.521729 
L 308.753623 96.90105 
L 307.274734 97.250403 
L 305.795845 97.568156 
L 304.316955 97.852678 
L 302.838066 98.106137 
L 301.359177 98.344044 
L 299.880287 98.584836 
L 298.401398 98.846951 
L 296.922509 99.148826 
L 295.443619 99.508898 
L 293.96473 99.945606 
L 292.485841 100.477386 
L 291.006951 101.122676 
L 289.528062 101.899914 
L 288.049173 102.825164 
L 286.570283 103.885401 
L 285.091394 105.048092 
L 283.612505 106.280344 
L 282.133616 107.549265 
L 280.654726 108.821962 
L 279.175837 110.065542 
L 277.696948 111.247114 
L 276.218058 112.333785 
L 274.739169 113.292661 
L 273.26028 114.091006 
L 271.78139 114.713017 
L 270.302501 115.174809 
L 268.823612 115.496039 
L 267.344722 115.69636 
L 265.865833 115.795425 
L 264.386944 115.812889 
L 262.908054 115.768407 
L 261.429165 115.681631 
L 259.950276 115.572217 
L 258.471387 115.459818 
L 256.992497 115.362296 
L 255.513608 115.286874 
L 254.034719 115.236864 
L 252.555829 115.215568 
L 251.07694 115.226292 
L 249.598051 115.27234 
L 248.119161 115.357016 
L 246.640272 115.483625 
L 245.161383 115.655472 
L 243.682493 115.87586 
L 242.203604 116.14797 
L 240.724715 116.471802 
L 239.245825 116.843992 
L 237.766936 117.261014 
L 236.288047 117.719341 
L 234.809158 118.215449 
L 233.330268 118.74581 
L 231.851379 119.3069 
L 230.37249 119.895191 
L 228.8936 120.507157 
L 227.414711 121.139274 
L 225.935822 121.787283 
L 224.456932 122.444676 
L 222.978043 123.104509 
L 221.499154 123.75984 
L 220.020264 124.403724 
L 218.541375 125.029219 
L 217.062486 125.629383 
L 215.583596 126.19727 
L 214.104707 126.72594 
L 212.625818 127.208447 
L 211.146929 127.638422 
L 209.668039 128.015482 
L 208.18915 128.342823 
L 206.710261 128.623689 
L 205.231371 128.861322 
L 203.752482 129.058965 
L 202.273593 129.219861 
L 200.794703 129.347253 
L 199.315814 129.444385 
L 197.836925 129.514499 
L 196.358035 129.560885 
L 194.879146 129.590256 
L 193.400257 129.615068 
L 191.921368 129.648324 
L 190.442478 129.703025 
L 188.963589 129.792174 
L 187.4847 129.928773 
L 186.00581 130.125825 
L 184.526921 130.396331 
L 183.048032 130.753295 
L 181.569142 131.209718 
L 180.090253 131.774435 
L 178.611364 132.434619 
L 177.132474 133.170427 
L 175.653585 133.962012 
L 174.174696 134.789524 
L 172.695806 135.633119 
L 171.216917 136.472947 
L 169.738028 137.289162 
L 168.259139 138.061916 
L 166.780249 138.771363 
L 165.30136 139.398 
L 163.822471 139.929529 
L 162.343581 140.360457 
L 160.864692 140.685556 
L 159.385803 140.8996 
L 157.906913 140.997362 
L 156.428024 140.973614 
L 154.949135 140.823131 
L 153.470245 140.540685 
L 151.991356 140.121049 
L 150.512467 139.55902 
L 149.033577 138.864316 
L 147.554688 138.087241 
L 146.075799 137.284932 
L 144.59691 136.514527 
L 143.11802 135.833163 
L 141.639131 135.297979 
L 140.160242 134.966112 
L 138.681352 134.894699 
L 137.202463 135.140879 
L 135.723574 135.761788 
L 134.244684 136.804208 
L 132.765795 138.221429 
L 131.286906 139.917149 
L 129.808016 141.794611 
L 128.329127 143.757056 
L 126.850238 145.707729 
L 125.371348 147.54987 
L 123.892459 149.186723 
L 122.41357 150.52153 
L 120.934681 151.457534 
L 119.455791 151.899219 
L 117.976902 151.818349 
L 116.498013 151.287023 
L 115.019123 150.385523 
L 113.540234 149.194132 
L 112.061345 147.793131 
L 110.582455 146.262804 
L 109.103566 144.683434 
L 107.624677 143.135302 
L 106.145787 141.698692 
L 104.666898 140.453886 
L 103.188009 139.465729 
L 101.70912 138.728704 
L 100.23023 138.217259 
L 98.751341 137.905839 
L 97.272452 137.76889 
L 95.793562 137.780857 
L 94.314673 137.916186 
L 92.835784 138.149323 
L 91.356894 138.454713 
L 89.878005 138.806802 
L 88.399116 139.180643 
L 86.920226 139.56177 
L 85.441337 139.944551 
L 83.962448 140.323635 
L 82.483558 140.693666 
L 81.004669 141.049292 
L 79.52578 141.38516 
L 78.046891 141.695917 
L 76.568001 141.976209 
L 75.089112 142.220682 
L 73.610223 142.423989 
L 72.131333 142.582375 
L 70.652444 142.695912 
L 69.173555 142.765233 
L 67.694665 142.790971 
L 66.215776 142.773762 
L 64.736887 142.714239 
L 63.257997 142.613035 
L 61.779108 142.470785 
L 60.300219 142.288123 
L 58.821329 142.065682 
L 57.34244 141.804654 
L 55.863551 141.510598 
L 54.384662 141.191123 
L 52.905772 140.853854 
L 51.426883 140.506413 
L 49.947994 140.156422 
L 48.469104 139.811506 
L 46.990215 139.479287 
L 45.511326 139.167388 
L 44.032436 138.883432 
L 42.553547 138.635042 
L 41.074658 138.429842 
L 39.595768 138.275453 
L 38.116879 138.179501 
L 36.63799 138.149606 
L 35.1591 138.193393 
L 33.680211 138.318484 
L 32.201322 138.532502 
L 30.722433 138.843071 
L 29.243543 139.257813 
L 27.764654 139.784352 
z
" clip-path="url(#paba0a464c4)" style="fill: #ff7f0e"/>
   </g>
   <g id="matplotlib.axis_1">
    <g id="xtick_1">
     <g id="line2d_1">
      <defs>
       <path id="mf6e61508c9" d="M 0 0 
L 0 3.5 
" style="stroke: #000000; stroke-width: 0.8"/>
      </defs>
      <g>
       <use xlink:href="#mf6e61508c9" x="27.764654" y="314.12125" style="stroke: #000000; stroke-width: 0.8"/>
      </g>
     </g>
     <g id="text_1">
      <!-- 1998 -->
      <g transform="translate(12.109973 340.173358) rotate(-45) scale(0.1 -0.1)">
       <defs>
        <path id="TimesNewRomanPSMT-31" d="M 750 3822 
L 1781 4325 
L 1884 4325 
L 1884 747 
Q 1884 391 1914 303 
Q 1944 216 2037 169 
Q 2131 122 2419 116 
L 2419 0 
L 825 0 
L 825 116 
Q 1125 122 1212 167 
Q 1300 213 1334 289 
Q 1369 366 1369 747 
L 1369 3034 
Q 1369 3497 1338 3628 
Q 1316 3728 1258 3775 
Q 1200 3822 1119 3822 
Q 1003 3822 797 3725 
L 750 3822 
z
" transform="scale(0.015625)"/>
        <path id="TimesNewRomanPSMT-39" d="M 338 -88 
L 338 28 
Q 744 34 1094 217 
Q 1444 400 1770 856 
Q 2097 1313 2225 1859 
Q 1734 1544 1338 1544 
Q 891 1544 572 1889 
Q 253 2234 253 2806 
Q 253 3363 572 3797 
Q 956 4325 1575 4325 
Q 2097 4325 2469 3894 
Q 2925 3359 2925 2575 
Q 2925 1869 2578 1258 
Q 2231 647 1613 244 
Q 1109 -88 516 -88 
L 338 -88 
z
M 2275 2091 
Q 2331 2497 2331 2741 
Q 2331 3044 2228 3395 
Q 2125 3747 1936 3934 
Q 1747 4122 1506 4122 
Q 1228 4122 1018 3872 
Q 809 3622 809 3128 
Q 809 2469 1088 2097 
Q 1291 1828 1588 1828 
Q 1731 1828 1928 1897 
Q 2125 1966 2275 2091 
z
" transform="scale(0.015625)"/>
        <path id="TimesNewRomanPSMT-38" d="M 1228 2134 
Q 725 2547 579 2797 
Q 434 3047 434 3316 
Q 434 3728 753 4026 
Q 1072 4325 1600 4325 
Q 2113 4325 2425 4047 
Q 2738 3769 2738 3413 
Q 2738 3175 2569 2928 
Q 2400 2681 1866 2347 
Q 2416 1922 2594 1678 
Q 2831 1359 2831 1006 
Q 2831 559 2490 242 
Q 2150 -75 1597 -75 
Q 994 -75 656 303 
Q 388 606 388 966 
Q 388 1247 577 1523 
Q 766 1800 1228 2134 
z
M 1719 2469 
Q 2094 2806 2194 3001 
Q 2294 3197 2294 3444 
Q 2294 3772 2109 3958 
Q 1925 4144 1606 4144 
Q 1288 4144 1088 3959 
Q 888 3775 888 3528 
Q 888 3366 970 3203 
Q 1053 3041 1206 2894 
L 1719 2469 
z
M 1375 2016 
Q 1116 1797 991 1539 
Q 866 1281 866 981 
Q 866 578 1086 336 
Q 1306 94 1647 94 
Q 1984 94 2187 284 
Q 2391 475 2391 747 
Q 2391 972 2272 1150 
Q 2050 1481 1375 2016 
z
" transform="scale(0.015625)"/>
       </defs>
       <use xlink:href="#TimesNewRomanPSMT-31"/>
       <use xlink:href="#TimesNewRomanPSMT-39" transform="translate(50 0)"/>
       <use xlink:href="#TimesNewRomanPSMT-39" transform="translate(100 0)"/>
       <use xlink:href="#TimesNewRomanPSMT-38" transform="translate(150 0)"/>
      </g>
     </g>
    </g>
    <g id="xtick_2">
     <g id="line2d_2">
      <g>
       <use xlink:href="#mf6e61508c9" x="58.499832" y="314.12125" style="stroke: #000000; stroke-width: 0.8"/>
      </g>
     </g>
     <g id="text_2">
      <!-- 2000 -->
      <g transform="translate(42.845151 340.173358) rotate(-45) scale(0.1 -0.1)">
       <defs>
        <path id="TimesNewRomanPSMT-32" d="M 2934 816 
L 2638 0 
L 138 0 
L 138 116 
Q 1241 1122 1691 1759 
Q 2141 2397 2141 2925 
Q 2141 3328 1894 3587 
Q 1647 3847 1303 3847 
Q 991 3847 742 3664 
Q 494 3481 375 3128 
L 259 3128 
Q 338 3706 661 4015 
Q 984 4325 1469 4325 
Q 1984 4325 2329 3994 
Q 2675 3663 2675 3213 
Q 2675 2891 2525 2569 
Q 2294 2063 1775 1497 
Q 997 647 803 472 
L 1909 472 
Q 2247 472 2383 497 
Q 2519 522 2628 598 
Q 2738 675 2819 816 
L 2934 816 
z
" transform="scale(0.015625)"/>
        <path id="TimesNewRomanPSMT-30" d="M 231 2094 
Q 231 2819 450 3342 
Q 669 3866 1031 4122 
Q 1313 4325 1613 4325 
Q 2100 4325 2488 3828 
Q 2972 3213 2972 2159 
Q 2972 1422 2759 906 
Q 2547 391 2217 158 
Q 1888 -75 1581 -75 
Q 975 -75 572 641 
Q 231 1244 231 2094 
z
M 844 2016 
Q 844 1141 1059 588 
Q 1238 122 1591 122 
Q 1759 122 1940 273 
Q 2122 425 2216 781 
Q 2359 1319 2359 2297 
Q 2359 3022 2209 3506 
Q 2097 3866 1919 4016 
Q 1791 4119 1609 4119 
Q 1397 4119 1231 3928 
Q 1006 3669 925 3112 
Q 844 2556 844 2016 
z
" transform="scale(0.015625)"/>
       </defs>
       <use xlink:href="#TimesNewRomanPSMT-32"/>
       <use xlink:href="#TimesNewRomanPSMT-30" transform="translate(50 0)"/>
       <use xlink:href="#TimesNewRomanPSMT-30" transform="translate(100 0)"/>
       <use xlink:href="#TimesNewRomanPSMT-30" transform="translate(150 0)"/>
      </g>
     </g>
    </g>
    <g id="xtick_3">
     <g id="line2d_3">
      <g>
       <use xlink:href="#mf6e61508c9" x="89.23501" y="314.12125" style="stroke: #000000; stroke-width: 0.8"/>
      </g>
     </g>
     <g id="text_3">
      <!-- 2002 -->
      <g transform="translate(73.580328 340.173358) rotate(-45) scale(0.1 -0.1)">
       <use xlink:href="#TimesNewRomanPSMT-32"/>
       <use xlink:href="#TimesNewRomanPSMT-30" transform="translate(50 0)"/>
       <use xlink:href="#TimesNewRomanPSMT-30" transform="translate(100 0)"/>
       <use xlink:href="#TimesNewRomanPSMT-32" transform="translate(150 0)"/>
      </g>
     </g>
    </g>
    <g id="xtick_4">
     <g id="line2d_4">
      <g>
       <use xlink:href="#mf6e61508c9" x="119.970188" y="314.12125" style="stroke: #000000; stroke-width: 0.8"/>
      </g>
     </g>
     <g id="text_4">
      <!-- 2004 -->
      <g transform="translate(104.315506 340.173358) rotate(-45) scale(0.1 -0.1)">
       <defs>
        <path id="TimesNewRomanPSMT-34" d="M 2978 1563 
L 2978 1119 
L 2409 1119 
L 2409 0 
L 1894 0 
L 1894 1119 
L 100 1119 
L 100 1519 
L 2066 4325 
L 2409 4325 
L 2409 1563 
L 2978 1563 
z
M 1894 1563 
L 1894 3666 
L 406 1563 
L 1894 1563 
z
" transform="scale(0.015625)"/>
       </defs>
       <use xlink:href="#TimesNewRomanPSMT-32"/>
       <use xlink:href="#TimesNewRomanPSMT-30" transform="translate(50 0)"/>
       <use xlink:href="#TimesNewRomanPSMT-30" transform="translate(100 0)"/>
       <use xlink:href="#TimesNewRomanPSMT-34" transform="translate(150 0)"/>
      </g>
     </g>
    </g>
    <g id="xtick_5">
     <g id="line2d_5">
      <g>
       <use xlink:href="#mf6e61508c9" x="150.705365" y="314.12125" style="stroke: #000000; stroke-width: 0.8"/>
      </g>
     </g>
     <g id="text_5">
      <!-- 2006 -->
      <g transform="translate(135.050684 340.173358) rotate(-45) scale(0.1 -0.1)">
       <defs>
        <path id="TimesNewRomanPSMT-36" d="M 2869 4325 
L 2869 4209 
Q 2456 4169 2195 4045 
Q 1934 3922 1679 3669 
Q 1425 3416 1258 3105 
Q 1091 2794 978 2366 
Q 1428 2675 1881 2675 
Q 2316 2675 2634 2325 
Q 2953 1975 2953 1425 
Q 2953 894 2631 456 
Q 2244 -75 1606 -75 
Q 1172 -75 869 213 
Q 275 772 275 1663 
Q 275 2231 503 2743 
Q 731 3256 1154 3653 
Q 1578 4050 1965 4187 
Q 2353 4325 2688 4325 
L 2869 4325 
z
M 925 2138 
Q 869 1716 869 1456 
Q 869 1156 980 804 
Q 1091 453 1309 247 
Q 1469 100 1697 100 
Q 1969 100 2183 356 
Q 2397 613 2397 1088 
Q 2397 1622 2184 2012 
Q 1972 2403 1581 2403 
Q 1463 2403 1327 2353 
Q 1191 2303 925 2138 
z
" transform="scale(0.015625)"/>
       </defs>
       <use xlink:href="#TimesNewRomanPSMT-32"/>
       <use xlink:href="#TimesNewRomanPSMT-30" transform="translate(50 0)"/>
       <use xlink:href="#TimesNewRomanPSMT-30" transform="translate(100 0)"/>
       <use xlink:href="#TimesNewRomanPSMT-36" transform="translate(150 0)"/>
      </g>
     </g>
    </g>
    <g id="xtick_6">
     <g id="line2d_6">
      <g>
       <use xlink:href="#mf6e61508c9" x="181.440543" y="314.12125" style="stroke: #000000; stroke-width: 0.8"/>
      </g>
     </g>
     <g id="text_6">
      <!-- 2008 -->
      <g transform="translate(165.785862 340.173358) rotate(-45) scale(0.1 -0.1)">
       <use xlink:href="#TimesNewRomanPSMT-32"/>
       <use xlink:href="#TimesNewRomanPSMT-30" transform="translate(50 0)"/>
       <use xlink:href="#TimesNewRomanPSMT-30" transform="translate(100 0)"/>
       <use xlink:href="#TimesNewRomanPSMT-38" transform="translate(150 0)"/>
      </g>
     </g>
    </g>
    <g id="xtick_7">
     <g id="line2d_7">
      <g>
       <use xlink:href="#mf6e61508c9" x="212.175721" y="314.12125" style="stroke: #000000; stroke-width: 0.8"/>
      </g>
     </g>
     <g id="text_7">
      <!-- 2010 -->
      <g transform="translate(196.52104 340.173358) rotate(-45) scale(0.1 -0.1)">
       <use xlink:href="#TimesNewRomanPSMT-32"/>
       <use xlink:href="#TimesNewRomanPSMT-30" transform="translate(50 0)"/>
       <use xlink:href="#TimesNewRomanPSMT-31" transform="translate(100 0)"/>
       <use xlink:href="#TimesNewRomanPSMT-30" transform="translate(150 0)"/>
      </g>
     </g>
    </g>
    <g id="xtick_8">
     <g id="line2d_8">
      <g>
       <use xlink:href="#mf6e61508c9" x="242.910899" y="314.12125" style="stroke: #000000; stroke-width: 0.8"/>
      </g>
     </g>
     <g id="text_8">
      <!-- 2012 -->
      <g transform="translate(227.256218 340.173358) rotate(-45) scale(0.1 -0.1)">
       <use xlink:href="#TimesNewRomanPSMT-32"/>
       <use xlink:href="#TimesNewRomanPSMT-30" transform="translate(50 0)"/>
       <use xlink:href="#TimesNewRomanPSMT-31" transform="translate(100 0)"/>
       <use xlink:href="#TimesNewRomanPSMT-32" transform="translate(150 0)"/>
      </g>
     </g>
    </g>
    <g id="xtick_9">
     <g id="line2d_9">
      <g>
       <use xlink:href="#mf6e61508c9" x="273.646077" y="314.12125" style="stroke: #000000; stroke-width: 0.8"/>
      </g>
     </g>
     <g id="text_9">
      <!-- 2014 -->
      <g transform="translate(257.991396 340.173358) rotate(-45) scale(0.1 -0.1)">
       <use xlink:href="#TimesNewRomanPSMT-32"/>
       <use xlink:href="#TimesNewRomanPSMT-30" transform="translate(50 0)"/>
       <use xlink:href="#TimesNewRomanPSMT-31" transform="translate(100 0)"/>
       <use xlink:href="#TimesNewRomanPSMT-34" transform="translate(150 0)"/>
      </g>
     </g>
    </g>
    <g id="xtick_10">
     <g id="line2d_10">
      <g>
       <use xlink:href="#mf6e61508c9" x="304.381255" y="314.12125" style="stroke: #000000; stroke-width: 0.8"/>
      </g>
     </g>
     <g id="text_10">
      <!-- 2016 -->
      <g transform="translate(288.726574 340.173358) rotate(-45) scale(0.1 -0.1)">
       <use xlink:href="#TimesNewRomanPSMT-32"/>
       <use xlink:href="#TimesNewRomanPSMT-30" transform="translate(50 0)"/>
       <use xlink:href="#TimesNewRomanPSMT-31" transform="translate(100 0)"/>
       <use xlink:href="#TimesNewRomanPSMT-36" transform="translate(150 0)"/>
      </g>
     </g>
    </g>
    <g id="xtick_11">
     <g id="line2d_11">
      <g>
       <use xlink:href="#mf6e61508c9" x="335.116433" y="314.12125" style="stroke: #000000; stroke-width: 0.8"/>
      </g>
     </g>
     <g id="text_11">
      <!-- 2018 -->
      <g transform="translate(319.461751 340.173358) rotate(-45) scale(0.1 -0.1)">
       <use xlink:href="#TimesNewRomanPSMT-32"/>
       <use xlink:href="#TimesNewRomanPSMT-30" transform="translate(50 0)"/>
       <use xlink:href="#TimesNewRomanPSMT-31" transform="translate(100 0)"/>
       <use xlink:href="#TimesNewRomanPSMT-38" transform="translate(150 0)"/>
      </g>
     </g>
    </g>
    <g id="xtick_12">
     <g id="line2d_12">
      <g>
       <use xlink:href="#mf6e61508c9" x="365.85161" y="314.12125" style="stroke: #000000; stroke-width: 0.8"/>
      </g>
     </g>
     <g id="text_12">
      <!-- 2020 -->
      <g transform="translate(350.196929 340.173358) rotate(-45) scale(0.1 -0.1)">
       <use xlink:href="#TimesNewRomanPSMT-32"/>
       <use xlink:href="#TimesNewRomanPSMT-30" transform="translate(50 0)"/>
       <use xlink:href="#TimesNewRomanPSMT-32" transform="translate(100 0)"/>
       <use xlink:href="#TimesNewRomanPSMT-30" transform="translate(150 0)"/>
      </g>
     </g>
    </g>
    <g id="text_13">
     <!-- Year -->
     <g transform="translate(193.434114 354.018404) scale(0.12 -0.12)">
      <defs>
       <path id="TimesNewRomanPSMT-59" d="M 3050 4238 
L 4528 4238 
L 4528 4122 
L 4447 4122 
Q 4366 4122 4209 4050 
Q 4053 3978 3925 3843 
Q 3797 3709 3609 3406 
L 2588 1797 
L 2588 734 
Q 2588 344 2675 247 
Q 2794 116 3050 116 
L 3188 116 
L 3188 0 
L 1388 0 
L 1388 116 
L 1538 116 
Q 1806 116 1919 278 
Q 1988 378 1988 734 
L 1988 1738 
L 825 3513 
Q 619 3825 545 3903 
Q 472 3981 241 4091 
Q 178 4122 59 4122 
L 59 4238 
L 1872 4238 
L 1872 4122 
L 1778 4122 
Q 1631 4122 1507 4053 
Q 1384 3984 1384 3847 
Q 1384 3734 1575 3441 
L 2459 2075 
L 3291 3381 
Q 3478 3675 3478 3819 
Q 3478 3906 3433 3975 
Q 3388 4044 3303 4083 
Q 3219 4122 3050 4122 
L 3050 4238 
z
" transform="scale(0.015625)"/>
       <path id="TimesNewRomanPSMT-65" d="M 681 1784 
Q 678 1147 991 784 
Q 1303 422 1725 422 
Q 2006 422 2214 576 
Q 2422 731 2563 1106 
L 2659 1044 
Q 2594 616 2278 264 
Q 1963 -88 1488 -88 
Q 972 -88 605 314 
Q 238 716 238 1394 
Q 238 2128 614 2539 
Q 991 2950 1559 2950 
Q 2041 2950 2350 2633 
Q 2659 2316 2659 1784 
L 681 1784 
z
M 681 1966 
L 2006 1966 
Q 1991 2241 1941 2353 
Q 1863 2528 1708 2628 
Q 1553 2728 1384 2728 
Q 1125 2728 920 2526 
Q 716 2325 681 1966 
z
" transform="scale(0.015625)"/>
       <path id="TimesNewRomanPSMT-61" d="M 1822 413 
Q 1381 72 1269 19 
Q 1100 -59 909 -59 
Q 613 -59 420 144 
Q 228 347 228 678 
Q 228 888 322 1041 
Q 450 1253 767 1440 
Q 1084 1628 1822 1897 
L 1822 2009 
Q 1822 2438 1686 2597 
Q 1550 2756 1291 2756 
Q 1094 2756 978 2650 
Q 859 2544 859 2406 
L 866 2225 
Q 866 2081 792 2003 
Q 719 1925 600 1925 
Q 484 1925 411 2006 
Q 338 2088 338 2228 
Q 338 2497 613 2722 
Q 888 2947 1384 2947 
Q 1766 2947 2009 2819 
Q 2194 2722 2281 2516 
Q 2338 2381 2338 1966 
L 2338 994 
Q 2338 584 2353 492 
Q 2369 400 2405 369 
Q 2441 338 2488 338 
Q 2538 338 2575 359 
Q 2641 400 2828 588 
L 2828 413 
Q 2478 -56 2159 -56 
Q 2006 -56 1915 50 
Q 1825 156 1822 413 
z
M 1822 616 
L 1822 1706 
Q 1350 1519 1213 1441 
Q 966 1303 859 1153 
Q 753 1003 753 825 
Q 753 600 887 451 
Q 1022 303 1197 303 
Q 1434 303 1822 616 
z
" transform="scale(0.015625)"/>
       <path id="TimesNewRomanPSMT-72" d="M 1038 2947 
L 1038 2303 
Q 1397 2947 1775 2947 
Q 1947 2947 2059 2842 
Q 2172 2738 2172 2600 
Q 2172 2478 2090 2393 
Q 2009 2309 1897 2309 
Q 1788 2309 1652 2417 
Q 1516 2525 1450 2525 
Q 1394 2525 1328 2463 
Q 1188 2334 1038 2041 
L 1038 669 
Q 1038 431 1097 309 
Q 1138 225 1241 169 
Q 1344 113 1538 113 
L 1538 0 
L 72 0 
L 72 113 
Q 291 113 397 181 
Q 475 231 506 341 
Q 522 394 522 644 
L 522 1753 
Q 522 2253 501 2348 
Q 481 2444 426 2487 
Q 372 2531 291 2531 
Q 194 2531 72 2484 
L 41 2597 
L 906 2947 
L 1038 2947 
z
" transform="scale(0.015625)"/>
      </defs>
      <use xlink:href="#TimesNewRomanPSMT-59"/>
      <use xlink:href="#TimesNewRomanPSMT-65" transform="translate(62.216797 0)"/>
      <use xlink:href="#TimesNewRomanPSMT-61" transform="translate(106.601562 0)"/>
      <use xlink:href="#TimesNewRomanPSMT-72" transform="translate(150.986328 0)"/>
     </g>
    </g>
   </g>
   <g id="patch_3">
    <path d="M 10.091927 314.12125 
L 10.091927 36.92125 
" style="fill: none; stroke: #000000; stroke-width: 0.8; stroke-linejoin: miter; stroke-linecap: square"/>
   </g>
   <g id="patch_4">
    <path d="M 398.891927 314.12125 
L 398.891927 36.92125 
" style="fill: none; stroke: #000000; stroke-width: 0.8; stroke-linejoin: miter; stroke-linecap: square"/>
   </g>
   <g id="patch_5">
    <path d="M 10.091927 314.12125 
L 398.891927 314.12125 
" style="fill: none; stroke: #000000; stroke-width: 0.8; stroke-linejoin: miter; stroke-linecap: square"/>
   </g>
   <g id="patch_6">
    <path d="M 10.091927 36.92125 
L 398.891927 36.92125 
" style="fill: none; stroke: #000000; stroke-width: 0.8; stroke-linejoin: miter; stroke-linecap: square"/>
   </g>
   <g id="text_14">
    <!-- Patent Applications from 1998 to 2021 (applications)  -->
    <g transform="translate(53.819114 16.92125) scale(0.14 -0.14)">
     <defs>
      <path id="TimesNewRomanPSMT-50" d="M 1313 1984 
L 1313 750 
Q 1313 350 1400 253 
Q 1519 116 1759 116 
L 1922 116 
L 1922 0 
L 106 0 
L 106 116 
L 266 116 
Q 534 116 650 291 
Q 713 388 713 750 
L 713 3488 
Q 713 3888 628 3984 
Q 506 4122 266 4122 
L 106 4122 
L 106 4238 
L 1659 4238 
Q 2228 4238 2556 4120 
Q 2884 4003 3109 3725 
Q 3334 3447 3334 3066 
Q 3334 2547 2992 2222 
Q 2650 1897 2025 1897 
Q 1872 1897 1694 1919 
Q 1516 1941 1313 1984 
z
M 1313 2163 
Q 1478 2131 1606 2115 
Q 1734 2100 1825 2100 
Q 2150 2100 2386 2351 
Q 2622 2603 2622 3003 
Q 2622 3278 2509 3514 
Q 2397 3750 2190 3867 
Q 1984 3984 1722 3984 
Q 1563 3984 1313 3925 
L 1313 2163 
z
" transform="scale(0.015625)"/>
      <path id="TimesNewRomanPSMT-74" d="M 1031 3803 
L 1031 2863 
L 1700 2863 
L 1700 2644 
L 1031 2644 
L 1031 788 
Q 1031 509 1111 412 
Q 1191 316 1316 316 
Q 1419 316 1516 380 
Q 1613 444 1666 569 
L 1788 569 
Q 1678 263 1478 108 
Q 1278 -47 1066 -47 
Q 922 -47 784 33 
Q 647 113 581 261 
Q 516 409 516 719 
L 516 2644 
L 63 2644 
L 63 2747 
Q 234 2816 414 2980 
Q 594 3144 734 3369 
Q 806 3488 934 3803 
L 1031 3803 
z
" transform="scale(0.015625)"/>
      <path id="TimesNewRomanPSMT-6e" d="M 1034 2341 
Q 1538 2947 1994 2947 
Q 2228 2947 2397 2830 
Q 2566 2713 2666 2444 
Q 2734 2256 2734 1869 
L 2734 647 
Q 2734 375 2778 278 
Q 2813 200 2889 156 
Q 2966 113 3172 113 
L 3172 0 
L 1756 0 
L 1756 113 
L 1816 113 
Q 2016 113 2095 173 
Q 2175 234 2206 353 
Q 2219 400 2219 647 
L 2219 1819 
Q 2219 2209 2117 2386 
Q 2016 2563 1775 2563 
Q 1403 2563 1034 2156 
L 1034 647 
Q 1034 356 1069 288 
Q 1113 197 1189 155 
Q 1266 113 1500 113 
L 1500 0 
L 84 0 
L 84 113 
L 147 113 
Q 366 113 442 223 
Q 519 334 519 647 
L 519 1709 
Q 519 2225 495 2337 
Q 472 2450 423 2490 
Q 375 2531 294 2531 
Q 206 2531 84 2484 
L 38 2597 
L 900 2947 
L 1034 2947 
L 1034 2341 
z
" transform="scale(0.015625)"/>
      <path id="TimesNewRomanPSMT-20" transform="scale(0.015625)"/>
      <path id="TimesNewRomanPSMT-41" d="M 2928 1419 
L 1288 1419 
L 1000 750 
Q 894 503 894 381 
Q 894 284 986 211 
Q 1078 138 1384 116 
L 1384 0 
L 50 0 
L 50 116 
Q 316 163 394 238 
Q 553 388 747 847 
L 2238 4334 
L 2347 4334 
L 3822 809 
Q 4000 384 4145 257 
Q 4291 131 4550 116 
L 4550 0 
L 2878 0 
L 2878 116 
Q 3131 128 3220 200 
Q 3309 272 3309 375 
Q 3309 513 3184 809 
L 2928 1419 
z
M 2841 1650 
L 2122 3363 
L 1384 1650 
L 2841 1650 
z
" transform="scale(0.015625)"/>
      <path id="TimesNewRomanPSMT-70" d="M -6 2578 
L 875 2934 
L 994 2934 
L 994 2266 
Q 1216 2644 1439 2795 
Q 1663 2947 1909 2947 
Q 2341 2947 2628 2609 
Q 2981 2197 2981 1534 
Q 2981 794 2556 309 
Q 2206 -88 1675 -88 
Q 1444 -88 1275 -22 
Q 1150 25 994 166 
L 994 -706 
Q 994 -1000 1030 -1079 
Q 1066 -1159 1155 -1206 
Q 1244 -1253 1478 -1253 
L 1478 -1369 
L -22 -1369 
L -22 -1253 
L 56 -1253 
Q 228 -1256 350 -1188 
Q 409 -1153 442 -1076 
Q 475 -1000 475 -688 
L 475 2019 
Q 475 2297 450 2372 
Q 425 2447 370 2484 
Q 316 2522 222 2522 
Q 147 2522 31 2478 
L -6 2578 
z
M 994 2081 
L 994 1013 
Q 994 666 1022 556 
Q 1066 375 1236 237 
Q 1406 100 1666 100 
Q 1978 100 2172 344 
Q 2425 663 2425 1241 
Q 2425 1897 2138 2250 
Q 1938 2494 1663 2494 
Q 1513 2494 1366 2419 
Q 1253 2363 994 2081 
z
" transform="scale(0.015625)"/>
      <path id="TimesNewRomanPSMT-6c" d="M 1184 4444 
L 1184 647 
Q 1184 378 1223 290 
Q 1263 203 1344 158 
Q 1425 113 1647 113 
L 1647 0 
L 244 0 
L 244 113 
Q 441 113 512 153 
Q 584 194 625 287 
Q 666 381 666 647 
L 666 3247 
Q 666 3731 644 3842 
Q 622 3953 573 3993 
Q 525 4034 450 4034 
Q 369 4034 244 3984 
L 191 4094 
L 1044 4444 
L 1184 4444 
z
" transform="scale(0.015625)"/>
      <path id="TimesNewRomanPSMT-69" d="M 928 4444 
Q 1059 4444 1151 4351 
Q 1244 4259 1244 4128 
Q 1244 3997 1151 3903 
Q 1059 3809 928 3809 
Q 797 3809 703 3903 
Q 609 3997 609 4128 
Q 609 4259 701 4351 
Q 794 4444 928 4444 
z
M 1188 2947 
L 1188 647 
Q 1188 378 1227 289 
Q 1266 200 1342 156 
Q 1419 113 1622 113 
L 1622 0 
L 231 0 
L 231 113 
Q 441 113 512 153 
Q 584 194 626 287 
Q 669 381 669 647 
L 669 1750 
Q 669 2216 641 2353 
Q 619 2453 572 2492 
Q 525 2531 444 2531 
Q 356 2531 231 2484 
L 188 2597 
L 1050 2947 
L 1188 2947 
z
" transform="scale(0.015625)"/>
      <path id="TimesNewRomanPSMT-63" d="M 2631 1088 
Q 2516 522 2178 217 
Q 1841 -88 1431 -88 
Q 944 -88 581 321 
Q 219 731 219 1428 
Q 219 2103 620 2525 
Q 1022 2947 1584 2947 
Q 2006 2947 2278 2723 
Q 2550 2500 2550 2259 
Q 2550 2141 2473 2067 
Q 2397 1994 2259 1994 
Q 2075 1994 1981 2113 
Q 1928 2178 1911 2362 
Q 1894 2547 1784 2644 
Q 1675 2738 1481 2738 
Q 1169 2738 978 2506 
Q 725 2200 725 1697 
Q 725 1184 976 792 
Q 1228 400 1656 400 
Q 1963 400 2206 609 
Q 2378 753 2541 1131 
L 2631 1088 
z
" transform="scale(0.015625)"/>
      <path id="TimesNewRomanPSMT-6f" d="M 1600 2947 
Q 2250 2947 2644 2453 
Q 2978 2031 2978 1484 
Q 2978 1100 2793 706 
Q 2609 313 2286 112 
Q 1963 -88 1566 -88 
Q 919 -88 538 428 
Q 216 863 216 1403 
Q 216 1797 411 2186 
Q 606 2575 925 2761 
Q 1244 2947 1600 2947 
z
M 1503 2744 
Q 1338 2744 1170 2645 
Q 1003 2547 900 2300 
Q 797 2053 797 1666 
Q 797 1041 1045 587 
Q 1294 134 1700 134 
Q 2003 134 2200 384 
Q 2397 634 2397 1244 
Q 2397 2006 2069 2444 
Q 1847 2744 1503 2744 
z
" transform="scale(0.015625)"/>
      <path id="TimesNewRomanPSMT-73" d="M 2050 2947 
L 2050 1972 
L 1947 1972 
Q 1828 2431 1642 2597 
Q 1456 2763 1169 2763 
Q 950 2763 815 2647 
Q 681 2531 681 2391 
Q 681 2216 781 2091 
Q 878 1963 1175 1819 
L 1631 1597 
Q 2266 1288 2266 781 
Q 2266 391 1970 151 
Q 1675 -88 1309 -88 
Q 1047 -88 709 6 
Q 606 38 541 38 
Q 469 38 428 -44 
L 325 -44 
L 325 978 
L 428 978 
Q 516 541 762 319 
Q 1009 97 1316 97 
Q 1531 97 1667 223 
Q 1803 350 1803 528 
Q 1803 744 1651 891 
Q 1500 1038 1047 1263 
Q 594 1488 453 1669 
Q 313 1847 313 2119 
Q 313 2472 555 2709 
Q 797 2947 1181 2947 
Q 1350 2947 1591 2875 
Q 1750 2828 1803 2828 
Q 1853 2828 1881 2850 
Q 1909 2872 1947 2947 
L 2050 2947 
z
" transform="scale(0.015625)"/>
      <path id="TimesNewRomanPSMT-66" d="M 1319 2638 
L 1319 756 
Q 1319 356 1406 250 
Q 1522 113 1716 113 
L 1975 113 
L 1975 0 
L 266 0 
L 266 113 
L 394 113 
Q 519 113 622 175 
Q 725 238 764 344 
Q 803 450 803 756 
L 803 2638 
L 247 2638 
L 247 2863 
L 803 2863 
L 803 3050 
Q 803 3478 940 3775 
Q 1078 4072 1361 4255 
Q 1644 4438 1997 4438 
Q 2325 4438 2600 4225 
Q 2781 4084 2781 3909 
Q 2781 3816 2700 3733 
Q 2619 3650 2525 3650 
Q 2453 3650 2373 3701 
Q 2294 3753 2178 3923 
Q 2063 4094 1966 4153 
Q 1869 4213 1750 4213 
Q 1606 4213 1506 4136 
Q 1406 4059 1362 3898 
Q 1319 3738 1319 3069 
L 1319 2863 
L 2056 2863 
L 2056 2638 
L 1319 2638 
z
" transform="scale(0.015625)"/>
      <path id="TimesNewRomanPSMT-6d" d="M 1050 2338 
Q 1363 2650 1419 2697 
Q 1559 2816 1721 2881 
Q 1884 2947 2044 2947 
Q 2313 2947 2506 2790 
Q 2700 2634 2766 2338 
Q 3088 2713 3309 2830 
Q 3531 2947 3766 2947 
Q 3994 2947 4170 2830 
Q 4347 2713 4450 2447 
Q 4519 2266 4519 1878 
L 4519 647 
Q 4519 378 4559 278 
Q 4591 209 4675 161 
Q 4759 113 4950 113 
L 4950 0 
L 3538 0 
L 3538 113 
L 3597 113 
Q 3781 113 3884 184 
Q 3956 234 3988 344 
Q 4000 397 4000 647 
L 4000 1878 
Q 4000 2228 3916 2372 
Q 3794 2572 3525 2572 
Q 3359 2572 3192 2489 
Q 3025 2406 2788 2181 
L 2781 2147 
L 2788 2013 
L 2788 647 
Q 2788 353 2820 281 
Q 2853 209 2943 161 
Q 3034 113 3253 113 
L 3253 0 
L 1806 0 
L 1806 113 
Q 2044 113 2133 169 
Q 2222 225 2256 338 
Q 2272 391 2272 647 
L 2272 1878 
Q 2272 2228 2169 2381 
Q 2031 2581 1784 2581 
Q 1616 2581 1450 2491 
Q 1191 2353 1050 2181 
L 1050 647 
Q 1050 366 1089 281 
Q 1128 197 1204 155 
Q 1281 113 1516 113 
L 1516 0 
L 100 0 
L 100 113 
Q 297 113 375 155 
Q 453 197 493 289 
Q 534 381 534 647 
L 534 1741 
Q 534 2213 506 2350 
Q 484 2453 437 2492 
Q 391 2531 309 2531 
Q 222 2531 100 2484 
L 53 2597 
L 916 2947 
L 1050 2947 
L 1050 2338 
z
" transform="scale(0.015625)"/>
      <path id="TimesNewRomanPSMT-28" d="M 1988 -1253 
L 1988 -1369 
Q 1516 -1131 1200 -813 
Q 750 -359 506 256 
Q 263 872 263 1534 
Q 263 2503 741 3301 
Q 1219 4100 1988 4444 
L 1988 4313 
Q 1603 4100 1356 3731 
Q 1109 3363 987 2797 
Q 866 2231 866 1616 
Q 866 947 969 400 
Q 1050 -31 1165 -292 
Q 1281 -553 1476 -793 
Q 1672 -1034 1988 -1253 
z
" transform="scale(0.015625)"/>
      <path id="TimesNewRomanPSMT-29" d="M 144 4313 
L 144 4444 
Q 619 4209 934 3891 
Q 1381 3434 1625 2820 
Q 1869 2206 1869 1541 
Q 1869 572 1392 -226 
Q 916 -1025 144 -1369 
L 144 -1253 
Q 528 -1038 776 -670 
Q 1025 -303 1145 264 
Q 1266 831 1266 1447 
Q 1266 2113 1163 2663 
Q 1084 3094 967 3353 
Q 850 3613 656 3853 
Q 463 4094 144 4313 
z
" transform="scale(0.015625)"/>
     </defs>
     <use xlink:href="#TimesNewRomanPSMT-50"/>
     <use xlink:href="#TimesNewRomanPSMT-61" transform="translate(55.615234 0)"/>
     <use xlink:href="#TimesNewRomanPSMT-74" transform="translate(100 0)"/>
     <use xlink:href="#TimesNewRomanPSMT-65" transform="translate(127.783203 0)"/>
     <use xlink:href="#TimesNewRomanPSMT-6e" transform="translate(172.167969 0)"/>
     <use xlink:href="#TimesNewRomanPSMT-74" transform="translate(222.167969 0)"/>
     <use xlink:href="#TimesNewRomanPSMT-20" transform="translate(249.951172 0)"/>
     <use xlink:href="#TimesNewRomanPSMT-41" transform="translate(269.451172 0)"/>
     <use xlink:href="#TimesNewRomanPSMT-70" transform="translate(341.667969 0)"/>
     <use xlink:href="#TimesNewRomanPSMT-70" transform="translate(391.667969 0)"/>
     <use xlink:href="#TimesNewRomanPSMT-6c" transform="translate(441.667969 0)"/>
     <use xlink:href="#TimesNewRomanPSMT-69" transform="translate(469.451172 0)"/>
     <use xlink:href="#TimesNewRomanPSMT-63" transform="translate(497.234375 0)"/>
     <use xlink:href="#TimesNewRomanPSMT-61" transform="translate(541.619141 0)"/>
     <use xlink:href="#TimesNewRomanPSMT-74" transform="translate(586.003906 0)"/>
     <use xlink:href="#TimesNewRomanPSMT-69" transform="translate(613.787109 0)"/>
     <use xlink:href="#TimesNewRomanPSMT-6f" transform="translate(641.570312 0)"/>
     <use xlink:href="#TimesNewRomanPSMT-6e" transform="translate(691.570312 0)"/>
     <use xlink:href="#TimesNewRomanPSMT-73" transform="translate(741.570312 0)"/>
     <use xlink:href="#TimesNewRomanPSMT-20" transform="translate(780.486328 0)"/>
     <use xlink:href="#TimesNewRomanPSMT-66" transform="translate(805.486328 0)"/>
     <use xlink:href="#TimesNewRomanPSMT-72" transform="translate(838.787109 0)"/>
     <use xlink:href="#TimesNewRomanPSMT-6f" transform="translate(872.087891 0)"/>
     <use xlink:href="#TimesNewRomanPSMT-6d" transform="translate(922.087891 0)"/>
     <use xlink:href="#TimesNewRomanPSMT-20" transform="translate(999.871094 0)"/>
     <use xlink:href="#TimesNewRomanPSMT-31" transform="translate(1024.871094 0)"/>
     <use xlink:href="#TimesNewRomanPSMT-39" transform="translate(1074.871094 0)"/>
     <use xlink:href="#TimesNewRomanPSMT-39" transform="translate(1124.871094 0)"/>
     <use xlink:href="#TimesNewRomanPSMT-38" transform="translate(1174.871094 0)"/>
     <use xlink:href="#TimesNewRomanPSMT-20" transform="translate(1224.871094 0)"/>
     <use xlink:href="#TimesNewRomanPSMT-74" transform="translate(1249.871094 0)"/>
     <use xlink:href="#TimesNewRomanPSMT-6f" transform="translate(1277.654297 0)"/>
     <use xlink:href="#TimesNewRomanPSMT-20" transform="translate(1327.654297 0)"/>
     <use xlink:href="#TimesNewRomanPSMT-32" transform="translate(1352.654297 0)"/>
     <use xlink:href="#TimesNewRomanPSMT-30" transform="translate(1402.654297 0)"/>
     <use xlink:href="#TimesNewRomanPSMT-32" transform="translate(1452.654297 0)"/>
     <use xlink:href="#TimesNewRomanPSMT-31" transform="translate(1502.654297 0)"/>
     <use xlink:href="#TimesNewRomanPSMT-20" transform="translate(1552.654297 0)"/>
     <use xlink:href="#TimesNewRomanPSMT-28" transform="translate(1577.654297 0)"/>
     <use xlink:href="#TimesNewRomanPSMT-61" transform="translate(1610.955078 0)"/>
     <use xlink:href="#TimesNewRomanPSMT-70" transform="translate(1655.339844 0)"/>
     <use xlink:href="#TimesNewRomanPSMT-70" transform="translate(1705.339844 0)"/>
     <use xlink:href="#TimesNewRomanPSMT-6c" transform="translate(1755.339844 0)"/>
     <use xlink:href="#TimesNewRomanPSMT-69" transform="translate(1783.123047 0)"/>
     <use xlink:href="#TimesNewRomanPSMT-63" transform="translate(1810.90625 0)"/>
     <use xlink:href="#TimesNewRomanPSMT-61" transform="translate(1855.291016 0)"/>
     <use xlink:href="#TimesNewRomanPSMT-74" transform="translate(1899.675781 0)"/>
     <use xlink:href="#TimesNewRomanPSMT-69" transform="translate(1927.458984 0)"/>
     <use xlink:href="#TimesNewRomanPSMT-6f" transform="translate(1955.242188 0)"/>
     <use xlink:href="#TimesNewRomanPSMT-6e" transform="translate(2005.242188 0)"/>
     <use xlink:href="#TimesNewRomanPSMT-73" transform="translate(2055.242188 0)"/>
     <use xlink:href="#TimesNewRomanPSMT-29" transform="translate(2094.158203 0)"/>
     <use xlink:href="#TimesNewRomanPSMT-20" transform="translate(2127.458984 0)"/>
    </g>
   </g>
   <g id="legend_1">
    <g id="patch_7">
     <path d="M 415.667927 163.803281 
L 435.667927 163.803281 
L 435.667927 156.803281 
L 415.667927 156.803281 
z
" style="fill: #1f77b4"/>
    </g>
    <g id="text_15">
     <!-- Crimson Group -->
     <g transform="translate(443.667927 163.803281) scale(0.1 -0.1)">
      <defs>
       <path id="TimesNewRomanPSMT-43" d="M 3853 4334 
L 3950 2894 
L 3853 2894 
Q 3659 3541 3300 3825 
Q 2941 4109 2438 4109 
Q 2016 4109 1675 3895 
Q 1334 3681 1139 3212 
Q 944 2744 944 2047 
Q 944 1472 1128 1050 
Q 1313 628 1683 403 
Q 2053 178 2528 178 
Q 2941 178 3256 354 
Q 3572 531 3950 1056 
L 4047 994 
Q 3728 428 3303 165 
Q 2878 -97 2294 -97 
Q 1241 -97 663 684 
Q 231 1266 231 2053 
Q 231 2688 515 3219 
Q 800 3750 1298 4042 
Q 1797 4334 2388 4334 
Q 2847 4334 3294 4109 
Q 3425 4041 3481 4041 
Q 3566 4041 3628 4100 
Q 3709 4184 3744 4334 
L 3853 4334 
z
" transform="scale(0.015625)"/>
       <path id="TimesNewRomanPSMT-47" d="M 3928 4334 
L 4038 2997 
L 3928 2997 
Q 3763 3497 3500 3750 
Q 3122 4116 2528 4116 
Q 1719 4116 1297 3475 
Q 944 2934 944 2188 
Q 944 1581 1178 1081 
Q 1413 581 1792 348 
Q 2172 116 2572 116 
Q 2806 116 3025 175 
Q 3244 234 3447 350 
L 3447 1575 
Q 3447 1894 3398 1992 
Q 3350 2091 3248 2142 
Q 3147 2194 2891 2194 
L 2891 2313 
L 4531 2313 
L 4531 2194 
L 4453 2194 
Q 4209 2194 4119 2031 
Q 4056 1916 4056 1575 
L 4056 278 
Q 3697 84 3347 -6 
Q 2997 -97 2569 -97 
Q 1341 -97 703 691 
Q 225 1281 225 2053 
Q 225 2613 494 3125 
Q 813 3734 1369 4063 
Q 1834 4334 2469 4334 
Q 2700 4334 2889 4296 
Q 3078 4259 3425 4131 
Q 3600 4066 3659 4066 
Q 3719 4066 3761 4120 
Q 3803 4175 3813 4334 
L 3928 4334 
z
" transform="scale(0.015625)"/>
       <path id="TimesNewRomanPSMT-75" d="M 2709 2863 
L 2709 1128 
Q 2709 631 2732 520 
Q 2756 409 2807 365 
Q 2859 322 2928 322 
Q 3025 322 3147 375 
L 3191 266 
L 2334 -88 
L 2194 -88 
L 2194 519 
Q 1825 119 1631 15 
Q 1438 -88 1222 -88 
Q 981 -88 804 51 
Q 628 191 559 409 
Q 491 628 491 1028 
L 491 2306 
Q 491 2509 447 2587 
Q 403 2666 317 2708 
Q 231 2750 6 2747 
L 6 2863 
L 1009 2863 
L 1009 947 
Q 1009 547 1148 422 
Q 1288 297 1484 297 
Q 1619 297 1789 381 
Q 1959 466 2194 703 
L 2194 2325 
Q 2194 2569 2105 2655 
Q 2016 2741 1734 2747 
L 1734 2863 
L 2709 2863 
z
" transform="scale(0.015625)"/>
      </defs>
      <use xlink:href="#TimesNewRomanPSMT-43"/>
      <use xlink:href="#TimesNewRomanPSMT-72" transform="translate(66.699219 0)"/>
      <use xlink:href="#TimesNewRomanPSMT-69" transform="translate(100 0)"/>
      <use xlink:href="#TimesNewRomanPSMT-6d" transform="translate(127.783203 0)"/>
      <use xlink:href="#TimesNewRomanPSMT-73" transform="translate(205.566406 0)"/>
      <use xlink:href="#TimesNewRomanPSMT-6f" transform="translate(244.482422 0)"/>
      <use xlink:href="#TimesNewRomanPSMT-6e" transform="translate(294.482422 0)"/>
      <use xlink:href="#TimesNewRomanPSMT-20" transform="translate(344.482422 0)"/>
      <use xlink:href="#TimesNewRomanPSMT-47" transform="translate(369.482422 0)"/>
      <use xlink:href="#TimesNewRomanPSMT-72" transform="translate(441.699219 0)"/>
      <use xlink:href="#TimesNewRomanPSMT-6f" transform="translate(475 0)"/>
      <use xlink:href="#TimesNewRomanPSMT-75" transform="translate(525 0)"/>
      <use xlink:href="#TimesNewRomanPSMT-70" transform="translate(575 0)"/>
     </g>
    </g>
    <g id="patch_8">
     <path d="M 415.667927 177.942344 
L 435.667927 177.942344 
L 435.667927 170.942344 
L 415.667927 170.942344 
z
" style="fill: #aec7e8"/>
    </g>
    <g id="text_16">
     <!-- Oracle Systems -->
     <g transform="translate(443.667927 177.942344) scale(0.1 -0.1)">
      <defs>
       <path id="TimesNewRomanPSMT-4f" d="M 2341 4334 
Q 3166 4334 3770 3707 
Q 4375 3081 4375 2144 
Q 4375 1178 3765 540 
Q 3156 -97 2291 -97 
Q 1416 -97 820 525 
Q 225 1147 225 2134 
Q 225 3144 913 3781 
Q 1509 4334 2341 4334 
z
M 2281 4106 
Q 1713 4106 1369 3684 
Q 941 3159 941 2147 
Q 941 1109 1384 550 
Q 1725 125 2284 125 
Q 2881 125 3270 590 
Q 3659 1056 3659 2059 
Q 3659 3147 3231 3681 
Q 2888 4106 2281 4106 
z
" transform="scale(0.015625)"/>
       <path id="TimesNewRomanPSMT-53" d="M 2934 4334 
L 2934 2869 
L 2819 2869 
Q 2763 3291 2617 3541 
Q 2472 3791 2203 3937 
Q 1934 4084 1647 4084 
Q 1322 4084 1109 3886 
Q 897 3688 897 3434 
Q 897 3241 1031 3081 
Q 1225 2847 1953 2456 
Q 2547 2138 2764 1967 
Q 2981 1797 3098 1565 
Q 3216 1334 3216 1081 
Q 3216 600 2842 251 
Q 2469 -97 1881 -97 
Q 1697 -97 1534 -69 
Q 1438 -53 1133 45 
Q 828 144 747 144 
Q 669 144 623 97 
Q 578 50 556 -97 
L 441 -97 
L 441 1356 
L 556 1356 
Q 638 900 775 673 
Q 913 447 1195 297 
Q 1478 147 1816 147 
Q 2206 147 2432 353 
Q 2659 559 2659 841 
Q 2659 997 2573 1156 
Q 2488 1316 2306 1453 
Q 2184 1547 1640 1851 
Q 1097 2156 867 2337 
Q 638 2519 519 2737 
Q 400 2956 400 3219 
Q 400 3675 750 4004 
Q 1100 4334 1641 4334 
Q 1978 4334 2356 4169 
Q 2531 4091 2603 4091 
Q 2684 4091 2736 4139 
Q 2788 4188 2819 4334 
L 2934 4334 
z
" transform="scale(0.015625)"/>
       <path id="TimesNewRomanPSMT-79" d="M 38 2863 
L 1372 2863 
L 1372 2747 
L 1306 2747 
Q 1166 2747 1095 2686 
Q 1025 2625 1025 2534 
Q 1025 2413 1128 2197 
L 1825 753 
L 2466 2334 
Q 2519 2463 2519 2588 
Q 2519 2644 2497 2672 
Q 2472 2706 2419 2726 
Q 2366 2747 2231 2747 
L 2231 2863 
L 3163 2863 
L 3163 2747 
Q 3047 2734 2984 2696 
Q 2922 2659 2847 2556 
Q 2819 2513 2741 2316 
L 1575 -541 
Q 1406 -956 1132 -1168 
Q 859 -1381 606 -1381 
Q 422 -1381 303 -1275 
Q 184 -1169 184 -1031 
Q 184 -900 270 -820 
Q 356 -741 506 -741 
Q 609 -741 788 -809 
Q 913 -856 944 -856 
Q 1038 -856 1148 -759 
Q 1259 -663 1372 -384 
L 1575 113 
L 547 2272 
Q 500 2369 397 2513 
Q 319 2622 269 2659 
Q 197 2709 38 2747 
L 38 2863 
z
" transform="scale(0.015625)"/>
      </defs>
      <use xlink:href="#TimesNewRomanPSMT-4f"/>
      <use xlink:href="#TimesNewRomanPSMT-72" transform="translate(72.216797 0)"/>
      <use xlink:href="#TimesNewRomanPSMT-61" transform="translate(105.517578 0)"/>
      <use xlink:href="#TimesNewRomanPSMT-63" transform="translate(149.902344 0)"/>
      <use xlink:href="#TimesNewRomanPSMT-6c" transform="translate(194.287109 0)"/>
      <use xlink:href="#TimesNewRomanPSMT-65" transform="translate(222.070312 0)"/>
      <use xlink:href="#TimesNewRomanPSMT-20" transform="translate(266.455078 0)"/>
      <use xlink:href="#TimesNewRomanPSMT-53" transform="translate(291.455078 0)"/>
      <use xlink:href="#TimesNewRomanPSMT-79" transform="translate(347.070312 0)"/>
      <use xlink:href="#TimesNewRomanPSMT-73" transform="translate(397.070312 0)"/>
      <use xlink:href="#TimesNewRomanPSMT-74" transform="translate(435.986328 0)"/>
      <use xlink:href="#TimesNewRomanPSMT-65" transform="translate(463.769531 0)"/>
      <use xlink:href="#TimesNewRomanPSMT-6d" transform="translate(508.154297 0)"/>
      <use xlink:href="#TimesNewRomanPSMT-73" transform="translate(585.9375 0)"/>
     </g>
    </g>
    <g id="patch_9">
     <path d="M 415.667927 192.100156 
L 435.667927 192.100156 
L 435.667927 185.100156 
L 415.667927 185.100156 
z
" style="fill: #ff7f0e"/>
    </g>
    <g id="text_17">
     <!-- Nova Industries -->
     <g transform="translate(443.667927 192.100156) scale(0.1 -0.1)">
      <defs>
       <path id="TimesNewRomanPSMT-4e" d="M -84 4238 
L 1066 4238 
L 3656 1059 
L 3656 3503 
Q 3656 3894 3569 3991 
Q 3453 4122 3203 4122 
L 3056 4122 
L 3056 4238 
L 4531 4238 
L 4531 4122 
L 4381 4122 
Q 4113 4122 4000 3959 
Q 3931 3859 3931 3503 
L 3931 -69 
L 3819 -69 
L 1025 3344 
L 1025 734 
Q 1025 344 1109 247 
Q 1228 116 1475 116 
L 1625 116 
L 1625 0 
L 150 0 
L 150 116 
L 297 116 
Q 569 116 681 278 
Q 750 378 750 734 
L 750 3681 
Q 566 3897 470 3965 
Q 375 4034 191 4094 
Q 100 4122 -84 4122 
L -84 4238 
z
" transform="scale(0.015625)"/>
       <path id="TimesNewRomanPSMT-76" d="M 53 2863 
L 1400 2863 
L 1400 2747 
L 1313 2747 
Q 1191 2747 1127 2687 
Q 1063 2628 1063 2528 
Q 1063 2419 1128 2269 
L 1794 688 
L 2463 2328 
Q 2534 2503 2534 2594 
Q 2534 2638 2509 2666 
Q 2475 2713 2422 2730 
Q 2369 2747 2206 2747 
L 2206 2863 
L 3141 2863 
L 3141 2747 
Q 2978 2734 2916 2681 
Q 2806 2588 2719 2369 
L 1703 -88 
L 1575 -88 
L 553 2328 
Q 484 2497 421 2570 
Q 359 2644 263 2694 
Q 209 2722 53 2747 
L 53 2863 
z
" transform="scale(0.015625)"/>
       <path id="TimesNewRomanPSMT-49" d="M 1975 116 
L 1975 0 
L 159 0 
L 159 116 
L 309 116 
Q 572 116 691 269 
Q 766 369 766 750 
L 766 3488 
Q 766 3809 725 3913 
Q 694 3991 597 4047 
Q 459 4122 309 4122 
L 159 4122 
L 159 4238 
L 1975 4238 
L 1975 4122 
L 1822 4122 
Q 1563 4122 1444 3969 
Q 1366 3869 1366 3488 
L 1366 750 
Q 1366 428 1406 325 
Q 1438 247 1538 191 
Q 1672 116 1822 116 
L 1975 116 
z
" transform="scale(0.015625)"/>
       <path id="TimesNewRomanPSMT-64" d="M 2222 322 
Q 2013 103 1813 7 
Q 1613 -88 1381 -88 
Q 913 -88 563 304 
Q 213 697 213 1313 
Q 213 1928 600 2439 
Q 988 2950 1597 2950 
Q 1975 2950 2222 2709 
L 2222 3238 
Q 2222 3728 2198 3840 
Q 2175 3953 2125 3993 
Q 2075 4034 2000 4034 
Q 1919 4034 1784 3984 
L 1744 4094 
L 2597 4444 
L 2738 4444 
L 2738 1134 
Q 2738 631 2761 520 
Q 2784 409 2836 365 
Q 2888 322 2956 322 
Q 3041 322 3181 375 
L 3216 266 
L 2366 -88 
L 2222 -88 
L 2222 322 
z
M 2222 541 
L 2222 2016 
Q 2203 2228 2109 2403 
Q 2016 2578 1861 2667 
Q 1706 2756 1559 2756 
Q 1284 2756 1069 2509 
Q 784 2184 784 1559 
Q 784 928 1059 592 
Q 1334 256 1672 256 
Q 1956 256 2222 541 
z
" transform="scale(0.015625)"/>
      </defs>
      <use xlink:href="#TimesNewRomanPSMT-4e"/>
      <use xlink:href="#TimesNewRomanPSMT-6f" transform="translate(72.216797 0)"/>
      <use xlink:href="#TimesNewRomanPSMT-76" transform="translate(122.216797 0)"/>
      <use xlink:href="#TimesNewRomanPSMT-61" transform="translate(172.216797 0)"/>
      <use xlink:href="#TimesNewRomanPSMT-20" transform="translate(216.601562 0)"/>
      <use xlink:href="#TimesNewRomanPSMT-49" transform="translate(241.601562 0)"/>
      <use xlink:href="#TimesNewRomanPSMT-6e" transform="translate(274.902344 0)"/>
      <use xlink:href="#TimesNewRomanPSMT-64" transform="translate(324.902344 0)"/>
      <use xlink:href="#TimesNewRomanPSMT-75" transform="translate(374.902344 0)"/>
      <use xlink:href="#TimesNewRomanPSMT-73" transform="translate(424.902344 0)"/>
      <use xlink:href="#TimesNewRomanPSMT-74" transform="translate(463.818359 0)"/>
      <use xlink:href="#TimesNewRomanPSMT-72" transform="translate(491.601562 0)"/>
      <use xlink:href="#TimesNewRomanPSMT-69" transform="translate(524.902344 0)"/>
      <use xlink:href="#TimesNewRomanPSMT-65" transform="translate(552.685547 0)"/>
      <use xlink:href="#TimesNewRomanPSMT-73" transform="translate(597.070312 0)"/>
     </g>
    </g>
   </g>
  </g>
 </g>
 <defs>
  <clipPath id="paba0a464c4">
   <rect x="10.091927" y="36.92125" width="388.8" height="277.2"/>
  </clipPath>
 </defs>
</svg>
