<?xml version="1.0" encoding="utf-8" standalone="no"?>
<!DOCTYPE svg PUBLIC "-//W3C//DTD SVG 1.1//EN"
  "http://www.w3.org/Graphics/SVG/1.1/DTD/svg11.dtd">
<svg xmlns:xlink="http://www.w3.org/1999/xlink" width="543.463239pt" height="363.785279pt" viewBox="0 0 543.463239 363.785279" xmlns="http://www.w3.org/2000/svg" version="1.1">
 <metadata>
  <rdf:RDF xmlns:dc="http://purl.org/dc/elements/1.1/" xmlns:cc="http://creativecommons.org/ns#" xmlns:rdf="http://www.w3.org/1999/02/22-rdf-syntax-ns#">
   <cc:Work>
    <dc:type rdf:resource="http://purl.org/dc/dcmitype/StillImage"/>
    <dc:date>2025-05-31T00:11:23.924886</dc:date>
    <dc:format>image/svg+xml</dc:format>
    <dc:creator>
     <cc:Agent>
      <dc:title>Matplotlib v3.10.3, https://matplotlib.org/</dc:title>
     </cc:Agent>
    </dc:creator>
   </cc:Work>
  </rdf:RDF>
 </metadata>
 <defs>
  <style type="text/css">*{stroke-linejoin: round; stroke-linecap: butt}</style>
 </defs>
 <g id="figure_1">
  <g id="patch_1">
   <path d="M 0 363.785279 
L 543.463239 363.785279 
L 543.463239 0 
L 0 0 
z
" style="fill: #ffffff"/>
  </g>
  <g id="axes_1">
   <g id="patch_2">
    <path d="M 10.091927 314.12125 
L 398.891927 314.12125 
L 398.891927 36.92125 
L 10.091927 36.92125 
z
" style="fill: #ffffff"/>
   </g>
   <g id="FillBetweenPolyCollection_1">
    <path d="M 27.764654 240.388939 
L 27.764654 278.829051 
L 31.334902 278.640571 
L 34.90515 278.724229 
L 38.475398 279.040812 
L 42.045646 279.551105 
L 45.615894 280.215896 
L 49.186142 280.995972 
L 52.756389 281.852118 
L 56.326637 282.745122 
L 59.896885 283.63577 
L 63.467133 284.484849 
L 67.037381 285.253145 
L 70.607629 285.901446 
L 74.177877 286.390537 
L 77.748125 286.681206 
L 81.318373 286.734239 
L 84.888621 286.510423 
L 88.458869 285.970544 
L 92.029117 285.075389 
L 95.599365 283.785744 
L 99.169613 282.062397 
L 102.739861 279.866134 
L 106.310108 277.157741 
L 109.880356 273.928704 
L 113.450604 270.293301 
L 117.020852 266.396507 
L 120.5911 262.3833 
L 124.161348 258.398655 
L 127.731596 254.587549 
L 131.301844 251.094958 
L 134.872092 248.065859 
L 138.44234 245.645227 
L 142.012588 243.97804 
L 145.582836 243.209273 
L 149.153084 243.437628 
L 152.723332 244.576705 
L 156.29358 246.49383 
L 159.863827 249.056327 
L 163.434075 252.131523 
L 167.004323 255.586743 
L 170.574571 259.289311 
L 174.144819 263.106553 
L 177.715067 266.905795 
L 181.285315 270.554362 
L 184.855563 273.91958 
L 188.425811 276.895763 
L 191.996059 279.485188 
L 195.566307 281.717121 
L 199.136555 283.620829 
L 202.706803 285.225578 
L 206.277051 286.560634 
L 209.847299 287.655264 
L 213.417546 288.538733 
L 216.987794 289.240309 
L 220.558042 289.789257 
L 224.12829 290.214845 
L 227.698538 290.542374 
L 231.268786 290.781293 
L 234.839034 290.937089 
L 238.409282 291.015246 
L 241.97953 291.02125 
L 245.549778 290.960587 
L 249.120026 290.838741 
L 252.690274 290.661199 
L 256.260522 290.433445 
L 259.83077 290.160966 
L 263.401018 289.849246 
L 266.971266 289.497304 
L 270.541513 289.078293 
L 274.111761 288.558898 
L 277.682009 287.905804 
L 281.252257 287.085696 
L 284.822505 286.06526 
L 288.392753 284.811181 
L 291.963001 283.290144 
L 295.533249 281.468835 
L 299.103497 279.31394 
L 302.673745 276.792143 
L 306.243993 273.890895 
L 309.814241 270.680711 
L 313.384489 267.252871 
L 316.954737 263.698655 
L 320.524985 260.109342 
L 324.095232 256.576214 
L 327.66548 253.190549 
L 331.235728 250.043629 
L 334.805976 247.226732 
L 338.376224 244.83114 
L 341.946472 242.948131 
L 345.51672 242.703852 
L 349.086968 242.995927 
L 352.657216 243.594119 
L 356.227464 244.52933 
L 359.797712 245.832465 
L 363.36796 247.534428 
L 366.938208 251.786946 
L 370.508456 257.29069 
L 374.078704 264.128539 
L 377.648951 272.391772 
L 381.219199 282.171669 
L 381.219199 262.533786 
L 381.219199 262.533786 
L 377.648951 247.925406 
L 374.078704 235.699728 
L 370.508456 225.701833 
L 366.938208 217.7768 
L 363.36796 211.77811 
L 359.797712 208.94145 
L 356.227464 207.051454 
L 352.657216 206.013577 
L 349.086968 205.733274 
L 345.51672 206.116 
L 341.946472 207.328353 
L 338.376224 210.409069 
L 334.805976 214.16836 
L 331.235728 218.451307 
L 327.66548 223.102988 
L 324.095232 227.968482 
L 320.524985 232.89287 
L 316.954737 237.721231 
L 313.384489 242.298644 
L 309.814241 246.470187 
L 306.243993 250.080942 
L 302.673745 252.975986 
L 299.103497 255.044389 
L 295.533249 256.351176 
L 291.963001 257.005362 
L 288.392753 257.115961 
L 284.822505 256.791989 
L 281.252257 256.142458 
L 277.682009 255.276386 
L 274.111761 254.302785 
L 270.541513 253.330671 
L 266.971266 252.469058 
L 263.401018 251.826961 
L 259.83077 251.488198 
L 256.260522 251.435799 
L 252.690274 251.627598 
L 249.120026 252.021428 
L 245.549778 252.575122 
L 241.97953 253.246514 
L 238.409282 253.993438 
L 234.839034 254.773727 
L 231.268786 255.545214 
L 227.698538 256.265733 
L 224.12829 256.893117 
L 220.558042 257.383492 
L 216.987794 257.686147 
L 213.417546 257.748666 
L 209.847299 257.518629 
L 206.277051 256.94362 
L 202.706803 255.971219 
L 199.136555 254.54901 
L 195.566307 252.624575 
L 191.996059 250.145495 
L 188.425811 247.059353 
L 184.855563 243.31373 
L 181.285315 238.895264 
L 177.715067 233.946812 
L 174.144819 228.650288 
L 170.574571 223.187602 
L 167.004323 217.740669 
L 163.434075 212.4914 
L 159.863827 207.621708 
L 156.29358 203.313505 
L 152.723332 199.748705 
L 149.153084 197.109219 
L 145.582836 195.576961 
L 142.012588 195.274173 
L 138.44234 196.084425 
L 134.872092 197.831618 
L 131.301844 200.339651 
L 127.731596 203.432426 
L 124.161348 206.933841 
L 120.5911 210.667798 
L 117.020852 214.458196 
L 113.450604 218.128936 
L 109.880356 221.503919 
L 106.310108 224.407044 
L 102.739861 226.7024 
L 99.169613 228.414826 
L 95.599365 229.609347 
L 92.029117 230.350991 
L 88.458869 230.704785 
L 84.888621 230.735755 
L 81.318373 230.508927 
L 77.748125 230.089329 
L 74.177877 229.541986 
L 70.607629 228.931926 
L 67.037381 228.324175 
L 63.467133 227.78376 
L 59.896885 227.375708 
L 56.326637 227.165044 
L 52.756389 227.216797 
L 49.186142 227.595991 
L 45.615894 228.367655 
L 42.045646 229.596814 
L 38.475398 231.348495 
L 34.90515 233.687725 
L 31.334902 236.679531 
L 27.764654 240.388939 
z
" clip-path="url(#p5c5d5730d6)" style="fill: #1f77b4"/>
   </g>
   <g id="FillBetweenPolyCollection_2">
    <path d="M 27.764654 186.280303 
L 27.764654 240.388939 
L 31.334902 236.679531 
L 34.90515 233.687725 
L 38.475398 231.348495 
L 42.045646 229.596814 
L 45.615894 228.367655 
L 49.186142 227.595991 
L 52.756389 227.216797 
L 56.326637 227.165044 
L 59.896885 227.375708 
L 63.467133 227.78376 
L 67.037381 228.324175 
L 70.607629 228.931926 
L 74.177877 229.541986 
L 77.748125 230.089329 
L 81.318373 230.508927 
L 84.888621 230.735755 
L 88.458869 230.704785 
L 92.029117 230.350991 
L 95.599365 229.609347 
L 99.169613 228.414826 
L 102.739861 226.7024 
L 106.310108 224.407044 
L 109.880356 221.503919 
L 113.450604 218.128936 
L 117.020852 214.458196 
L 120.5911 210.667798 
L 124.161348 206.933841 
L 127.731596 203.432426 
L 131.301844 200.339651 
L 134.872092 197.831618 
L 138.44234 196.084425 
L 142.012588 195.274173 
L 145.582836 195.576961 
L 149.153084 197.109219 
L 152.723332 199.748705 
L 156.29358 203.313505 
L 159.863827 207.621708 
L 163.434075 212.4914 
L 167.004323 217.740669 
L 170.574571 223.187602 
L 174.144819 228.650288 
L 177.715067 233.946812 
L 181.285315 238.895264 
L 184.855563 243.31373 
L 188.425811 247.059353 
L 191.996059 250.145495 
L 195.566307 252.624575 
L 199.136555 254.54901 
L 202.706803 255.971219 
L 206.277051 256.94362 
L 209.847299 257.518629 
L 213.417546 257.748666 
L 216.987794 257.686147 
L 220.558042 257.383492 
L 224.12829 256.893117 
L 227.698538 256.265733 
L 231.268786 255.545214 
L 234.839034 254.773727 
L 238.409282 253.993438 
L 241.97953 253.246514 
L 245.549778 252.575122 
L 249.120026 252.021428 
L 252.690274 251.627598 
L 256.260522 251.435799 
L 259.83077 251.488198 
L 263.401018 251.826961 
L 266.971266 252.469058 
L 270.541513 253.330671 
L 274.111761 254.302785 
L 277.682009 255.276386 
L 281.252257 256.142458 
L 284.822505 256.791989 
L 288.392753 257.115961 
L 291.963001 257.005362 
L 295.533249 256.351176 
L 299.103497 255.044389 
L 302.673745 252.975986 
L 306.243993 250.080942 
L 309.814241 246.470187 
L 313.384489 242.298644 
L 316.954737 237.721231 
L 320.524985 232.89287 
L 324.095232 227.968482 
L 327.66548 223.102988 
L 331.235728 218.451307 
L 334.805976 214.16836 
L 338.376224 210.409069 
L 341.946472 207.328353 
L 345.51672 206.116 
L 349.086968 205.733274 
L 352.657216 206.013577 
L 356.227464 207.051454 
L 359.797712 208.94145 
L 363.36796 211.77811 
L 366.938208 217.7768 
L 370.508456 225.701833 
L 374.078704 235.699728 
L 377.648951 247.925406 
L 381.219199 262.533786 
L 381.219199 159.225985 
L 381.219199 159.225985 
L 377.648951 145.406672 
L 374.078704 134.078086 
L 370.508456 125.075196 
L 366.938208 118.232968 
L 363.36796 113.394774 
L 359.797712 111.786187 
L 356.227464 111.181729 
L 352.657216 111.476743 
L 349.086968 112.566574 
L 345.51672 114.346564 
L 341.946472 116.973199 
L 338.376224 121.475103 
L 334.805976 126.652376 
L 331.235728 132.339988 
L 327.66548 138.372904 
L 324.095232 144.586093 
L 320.524985 150.814523 
L 316.954737 156.893159 
L 313.384489 162.656971 
L 309.814241 167.940926 
L 306.243993 172.579991 
L 302.673745 176.409133 
L 299.103497 179.309103 
L 295.533249 181.343778 
L 291.963001 182.62282 
L 288.392753 183.25589 
L 284.822505 183.352647 
L 281.252257 183.022753 
L 277.682009 182.375869 
L 274.111761 181.521654 
L 270.541513 180.569771 
L 266.971266 179.629879 
L 263.401018 178.81164 
L 259.83077 178.20294 
L 256.260522 177.804569 
L 252.690274 177.595545 
L 249.120026 177.554884 
L 245.549778 177.661602 
L 241.97953 177.894716 
L 238.409282 178.233242 
L 234.839034 178.656198 
L 231.268786 179.1426 
L 227.698538 179.671464 
L 224.12829 180.221807 
L 220.558042 180.766832 
L 216.987794 181.25649 
L 213.417546 181.634916 
L 209.847299 181.846248 
L 206.277051 181.834621 
L 202.706803 181.544174 
L 199.136555 180.919041 
L 195.566307 179.903361 
L 191.996059 178.441269 
L 188.425811 176.476902 
L 184.855563 173.954398 
L 181.285315 170.850322 
L 177.715067 167.27097 
L 174.144819 163.355065 
L 170.574571 159.241332 
L 167.004323 155.068494 
L 163.434075 150.975277 
L 159.863827 147.100405 
L 156.29358 143.582603 
L 152.723332 140.560593 
L 149.153084 138.173102 
L 145.582836 136.558854 
L 142.012588 135.815967 
L 138.44234 135.880139 
L 134.872092 136.646462 
L 131.301844 138.010029 
L 127.731596 139.86593 
L 124.161348 142.10926 
L 120.5911 144.635108 
L 117.020852 147.338568 
L 113.450604 150.114732 
L 109.880356 152.858692 
L 106.310108 155.465539 
L 102.739861 157.851074 
L 99.169613 160.013922 
L 95.599365 161.973417 
L 92.029117 163.748892 
L 88.458869 165.359681 
L 84.888621 166.825118 
L 81.318373 168.164536 
L 77.748125 169.397268 
L 74.177877 170.542649 
L 70.607629 171.62001 
L 67.037381 172.648687 
L 63.467133 173.648013 
L 59.896885 174.63732 
L 56.326637 175.635943 
L 52.756389 176.663214 
L 49.186142 177.738469 
L 45.615894 178.881039 
L 42.045646 180.110259 
L 38.475398 181.445462 
L 34.90515 182.905981 
L 31.334902 184.51115 
L 27.764654 186.280303 
z
" clip-path="url(#p5c5d5730d6)" style="fill: #aec7e8"/>
   </g>
   <g id="FillBetweenPolyCollection_3">
    <path d="M 27.764654 130.918185 
L 27.764654 186.280303 
L 31.334902 184.51115 
L 34.90515 182.905981 
L 38.475398 181.445462 
L 42.045646 180.110259 
L 45.615894 178.881039 
L 49.186142 177.738469 
L 52.756389 176.663214 
L 56.326637 175.635943 
L 59.896885 174.63732 
L 63.467133 173.648013 
L 67.037381 172.648687 
L 70.607629 171.62001 
L 74.177877 170.542649 
L 77.748125 169.397268 
L 81.318373 168.164536 
L 84.888621 166.825118 
L 88.458869 165.359681 
L 92.029117 163.748892 
L 95.599365 161.973417 
L 99.169613 160.013922 
L 102.739861 157.851074 
L 106.310108 155.465539 
L 109.880356 152.858692 
L 113.450604 150.114732 
L 117.020852 147.338568 
L 120.5911 144.635108 
L 124.161348 142.10926 
L 127.731596 139.86593 
L 131.301844 138.010029 
L 134.872092 136.646462 
L 138.44234 135.880139 
L 142.012588 135.815967 
L 145.582836 136.558854 
L 149.153084 138.173102 
L 152.723332 140.560593 
L 156.29358 143.582603 
L 159.863827 147.100405 
L 163.434075 150.975277 
L 167.004323 155.068494 
L 170.574571 159.241332 
L 174.144819 163.355065 
L 177.715067 167.27097 
L 181.285315 170.850322 
L 184.855563 173.954398 
L 188.425811 176.476902 
L 191.996059 178.441269 
L 195.566307 179.903361 
L 199.136555 180.919041 
L 202.706803 181.544174 
L 206.277051 181.834621 
L 209.847299 181.846248 
L 213.417546 181.634916 
L 216.987794 181.25649 
L 220.558042 180.766832 
L 224.12829 180.221807 
L 227.698538 179.671464 
L 231.268786 179.1426 
L 234.839034 178.656198 
L 238.409282 178.233242 
L 241.97953 177.894716 
L 245.549778 177.661602 
L 249.120026 177.554884 
L 252.690274 177.595545 
L 256.260522 177.804569 
L 259.83077 178.20294 
L 263.401018 178.81164 
L 266.971266 179.629879 
L 270.541513 180.569771 
L 274.111761 181.521654 
L 277.682009 182.375869 
L 281.252257 183.022753 
L 284.822505 183.352647 
L 288.392753 183.25589 
L 291.963001 182.62282 
L 295.533249 181.343778 
L 299.103497 179.309103 
L 302.673745 176.409133 
L 306.243993 172.579991 
L 309.814241 167.940926 
L 313.384489 162.656971 
L 316.954737 156.893159 
L 320.524985 150.814523 
L 324.095232 144.586093 
L 327.66548 138.372904 
L 331.235728 132.339988 
L 334.805976 126.652376 
L 338.376224 121.475103 
L 341.946472 116.973199 
L 345.51672 114.346564 
L 349.086968 112.566574 
L 352.657216 111.476743 
L 356.227464 111.181729 
L 359.797712 111.786187 
L 363.36796 113.394774 
L 366.938208 118.232968 
L 370.508456 125.075196 
L 374.078704 134.078086 
L 377.648951 145.406672 
L 381.219199 159.225985 
L 381.219199 121.099244 
L 381.219199 121.099244 
L 377.648951 118.520403 
L 374.078704 116.505656 
L 370.508456 115.010722 
L 366.938208 113.991323 
L 363.36796 113.394774 
L 359.797712 111.786187 
L 356.227464 111.181729 
L 352.657216 111.476743 
L 349.086968 112.566574 
L 345.51672 114.346564 
L 341.946472 116.450915 
L 338.376224 117.641691 
L 334.805976 118.909478 
L 331.235728 120.209995 
L 327.66548 121.498961 
L 324.095232 122.732097 
L 320.524985 123.865122 
L 316.954737 124.853755 
L 313.384489 125.653717 
L 309.814241 126.220727 
L 306.243993 126.510505 
L 302.673745 126.47877 
L 299.103497 126.097152 
L 295.533249 125.40092 
L 291.963001 124.441252 
L 288.392753 123.269327 
L 284.822505 121.936324 
L 281.252257 120.493421 
L 277.682009 118.991797 
L 274.111761 117.482631 
L 270.541513 116.017102 
L 266.971266 114.646388 
L 263.401018 113.421667 
L 259.83077 112.38573 
L 256.260522 111.547807 
L 252.690274 110.90874 
L 249.120026 110.469371 
L 245.549778 110.230543 
L 241.97953 110.193097 
L 238.409282 110.357875 
L 234.839034 110.72572 
L 231.268786 111.297472 
L 227.698538 112.073974 
L 224.12829 113.056068 
L 220.558042 114.238347 
L 216.987794 115.590407 
L 213.417546 117.075594 
L 209.847299 118.657256 
L 206.277051 120.29874 
L 202.706803 121.963393 
L 199.136555 123.614562 
L 195.566307 125.215593 
L 191.996059 126.729834 
L 188.425811 128.120632 
L 184.855563 129.351333 
L 181.285315 130.393362 
L 177.715067 131.250445 
L 174.144819 131.93439 
L 170.574571 132.456999 
L 167.004323 132.830079 
L 163.434075 133.065433 
L 159.863827 133.174867 
L 156.29358 133.170185 
L 152.723332 133.063193 
L 149.153084 132.865694 
L 145.582836 132.589495 
L 142.012588 132.245182 
L 138.44234 131.838474 
L 134.872092 131.373874 
L 131.301844 130.855884 
L 127.731596 130.289004 
L 124.161348 129.677738 
L 120.5911 129.026587 
L 117.020852 128.340053 
L 113.450604 127.622638 
L 109.880356 126.878843 
L 106.310108 126.113171 
L 102.739861 125.331821 
L 99.169613 124.547782 
L 95.599365 123.775738 
L 92.029117 123.030376 
L 88.458869 122.326381 
L 84.888621 121.67844 
L 81.318373 121.101238 
L 77.748125 120.60946 
L 74.177877 120.217793 
L 70.607629 119.940922 
L 67.037381 119.793533 
L 63.467133 119.790312 
L 59.896885 119.945944 
L 56.326637 120.275116 
L 52.756389 120.792512 
L 49.186142 121.512819 
L 45.615894 122.450722 
L 42.045646 123.620908 
L 38.475398 125.038061 
L 34.90515 126.716868 
L 31.334902 128.672014 
L 27.764654 130.918185 
z
" clip-path="url(#p5c5d5730d6)" style="fill: #ff7f0e"/>
   </g>
   <g id="FillBetweenPolyCollection_4">
    <path d="M 27.764654 72.213449 
L 27.764654 130.918185 
L 31.334902 128.672014 
L 34.90515 126.716868 
L 38.475398 125.038061 
L 42.045646 123.620908 
L 45.615894 122.450722 
L 49.186142 121.512819 
L 52.756389 120.792512 
L 56.326637 120.275116 
L 59.896885 119.945944 
L 63.467133 119.790312 
L 67.037381 119.793533 
L 70.607629 119.940922 
L 74.177877 120.217793 
L 77.748125 120.60946 
L 81.318373 121.101238 
L 84.888621 121.67844 
L 88.458869 122.326381 
L 92.029117 123.030376 
L 95.599365 123.775738 
L 99.169613 124.547782 
L 102.739861 125.331821 
L 106.310108 126.113171 
L 109.880356 126.878843 
L 113.450604 127.622638 
L 117.020852 128.340053 
L 120.5911 129.026587 
L 124.161348 129.677738 
L 127.731596 130.289004 
L 131.301844 130.855884 
L 134.872092 131.373874 
L 138.44234 131.838474 
L 142.012588 132.245182 
L 145.582836 132.589495 
L 149.153084 132.865694 
L 152.723332 133.063193 
L 156.29358 133.170185 
L 159.863827 133.174867 
L 163.434075 133.065433 
L 167.004323 132.830079 
L 170.574571 132.456999 
L 174.144819 131.93439 
L 177.715067 131.250445 
L 181.285315 130.393362 
L 184.855563 129.351333 
L 188.425811 128.120632 
L 191.996059 126.729834 
L 195.566307 125.215593 
L 199.136555 123.614562 
L 202.706803 121.963393 
L 206.277051 120.29874 
L 209.847299 118.657256 
L 213.417546 117.075594 
L 216.987794 115.590407 
L 220.558042 114.238347 
L 224.12829 113.056068 
L 227.698538 112.073974 
L 231.268786 111.297472 
L 234.839034 110.72572 
L 238.409282 110.357875 
L 241.97953 110.193097 
L 245.549778 110.230543 
L 249.120026 110.469371 
L 252.690274 110.90874 
L 256.260522 111.547807 
L 259.83077 112.38573 
L 263.401018 113.421667 
L 266.971266 114.646388 
L 270.541513 116.017102 
L 274.111761 117.482631 
L 277.682009 118.991797 
L 281.252257 120.493421 
L 284.822505 121.936324 
L 288.392753 123.269327 
L 291.963001 124.441252 
L 295.533249 125.40092 
L 299.103497 126.097152 
L 302.673745 126.47877 
L 306.243993 126.510505 
L 309.814241 126.220727 
L 313.384489 125.653717 
L 316.954737 124.853755 
L 320.524985 123.865122 
L 324.095232 122.732097 
L 327.66548 121.498961 
L 331.235728 120.209995 
L 334.805976 118.909478 
L 338.376224 117.641691 
L 341.946472 116.450915 
L 345.51672 114.346564 
L 349.086968 112.566574 
L 352.657216 111.476743 
L 356.227464 111.181729 
L 359.797712 111.786187 
L 363.36796 113.394774 
L 366.938208 113.991323 
L 370.508456 115.010722 
L 374.078704 116.505656 
L 377.648951 118.520403 
L 381.219199 121.099244 
L 381.219199 68.870831 
L 381.219199 68.870831 
L 377.648951 78.650728 
L 374.078704 86.913961 
L 370.508456 93.75181 
L 366.938208 99.255554 
L 363.36796 103.508072 
L 359.797712 105.210035 
L 356.227464 106.51317 
L 352.657216 107.448381 
L 349.086968 108.046573 
L 345.51672 108.338648 
L 341.946472 108.094369 
L 338.376224 106.21136 
L 334.805976 103.815768 
L 331.235728 100.998871 
L 327.66548 97.851951 
L 324.095232 94.466286 
L 320.524985 90.933158 
L 316.954737 87.343845 
L 313.384489 83.789629 
L 309.814241 80.361789 
L 306.243993 77.151605 
L 302.673745 74.250357 
L 299.103497 71.72856 
L 295.533249 69.573665 
L 291.963001 67.752356 
L 288.392753 66.231319 
L 284.822505 64.97724 
L 281.252257 63.956804 
L 277.682009 63.136696 
L 274.111761 62.483602 
L 270.541513 61.964207 
L 266.971266 61.545196 
L 263.401018 61.193254 
L 259.83077 60.881534 
L 256.260522 60.609055 
L 252.690274 60.381301 
L 249.120026 60.203759 
L 245.549778 60.081913 
L 241.97953 60.02125 
L 238.409282 60.027254 
L 234.839034 60.105411 
L 231.268786 60.261207 
L 227.698538 60.500126 
L 224.12829 60.827655 
L 220.558042 61.253243 
L 216.987794 61.802191 
L 213.417546 62.503767 
L 209.847299 63.387236 
L 206.277051 64.481866 
L 202.706803 65.816922 
L 199.136555 67.421671 
L 195.566307 69.325379 
L 191.996059 71.557312 
L 188.425811 74.146737 
L 184.855563 77.12292 
L 181.285315 80.488138 
L 177.715067 84.136705 
L 174.144819 87.935947 
L 170.574571 91.753189 
L 167.004323 95.455757 
L 163.434075 98.910977 
L 159.863827 101.986173 
L 156.29358 104.54867 
L 152.723332 106.465795 
L 149.153084 107.604872 
L 145.582836 107.833227 
L 142.012588 107.06446 
L 138.44234 105.397273 
L 134.872092 102.976641 
L 131.301844 99.947542 
L 127.731596 96.454951 
L 124.161348 92.643845 
L 120.5911 88.6592 
L 117.020852 84.645993 
L 113.450604 80.749199 
L 109.880356 77.113796 
L 106.310108 73.884759 
L 102.739861 71.176366 
L 99.169613 68.980103 
L 95.599365 67.256756 
L 92.029117 65.967111 
L 88.458869 65.071956 
L 84.888621 64.532077 
L 81.318373 64.308261 
L 77.748125 64.361294 
L 74.177877 64.651963 
L 70.607629 65.141054 
L 67.037381 65.789355 
L 63.467133 66.557651 
L 59.896885 67.40673 
L 56.326637 68.297378 
L 52.756389 69.190382 
L 49.186142 70.046528 
L 45.615894 70.826604 
L 42.045646 71.491395 
L 38.475398 72.001688 
L 34.90515 72.318271 
L 31.334902 72.401929 
L 27.764654 72.213449 
z
" clip-path="url(#p5c5d5730d6)" style="fill: #ffbb78"/>
   </g>
   <g id="matplotlib.axis_1">
    <g id="xtick_1">
     <g id="line2d_1">
      <defs>
       <path id="mfb752f1a2b" d="M 0 0 
L 0 3.5 
" style="stroke: #000000; stroke-width: 0.8"/>
      </defs>
      <g>
       <use xlink:href="#mfb752f1a2b" x="27.764654" y="314.12125" style="stroke: #000000; stroke-width: 0.8"/>
      </g>
     </g>
     <g id="text_1">
      <!-- 2010 -->
      <g transform="translate(12.109973 340.173358) rotate(-45) scale(0.1 -0.1)">
       <defs>
        <path id="TimesNewRomanPSMT-32" d="M 2934 816 
L 2638 0 
L 138 0 
L 138 116 
Q 1241 1122 1691 1759 
Q 2141 2397 2141 2925 
Q 2141 3328 1894 3587 
Q 1647 3847 1303 3847 
Q 991 3847 742 3664 
Q 494 3481 375 3128 
L 259 3128 
Q 338 3706 661 4015 
Q 984 4325 1469 4325 
Q 1984 4325 2329 3994 
Q 2675 3663 2675 3213 
Q 2675 2891 2525 2569 
Q 2294 2063 1775 1497 
Q 997 647 803 472 
L 1909 472 
Q 2247 472 2383 497 
Q 2519 522 2628 598 
Q 2738 675 2819 816 
L 2934 816 
z
" transform="scale(0.015625)"/>
        <path id="TimesNewRomanPSMT-30" d="M 231 2094 
Q 231 2819 450 3342 
Q 669 3866 1031 4122 
Q 1313 4325 1613 4325 
Q 2100 4325 2488 3828 
Q 2972 3213 2972 2159 
Q 2972 1422 2759 906 
Q 2547 391 2217 158 
Q 1888 -75 1581 -75 
Q 975 -75 572 641 
Q 231 1244 231 2094 
z
M 844 2016 
Q 844 1141 1059 588 
Q 1238 122 1591 122 
Q 1759 122 1940 273 
Q 2122 425 2216 781 
Q 2359 1319 2359 2297 
Q 2359 3022 2209 3506 
Q 2097 3866 1919 4016 
Q 1791 4119 1609 4119 
Q 1397 4119 1231 3928 
Q 1006 3669 925 3112 
Q 844 2556 844 2016 
z
" transform="scale(0.015625)"/>
        <path id="TimesNewRomanPSMT-31" d="M 750 3822 
L 1781 4325 
L 1884 4325 
L 1884 747 
Q 1884 391 1914 303 
Q 1944 216 2037 169 
Q 2131 122 2419 116 
L 2419 0 
L 825 0 
L 825 116 
Q 1125 122 1212 167 
Q 1300 213 1334 289 
Q 1369 366 1369 747 
L 1369 3034 
Q 1369 3497 1338 3628 
Q 1316 3728 1258 3775 
Q 1200 3822 1119 3822 
Q 1003 3822 797 3725 
L 750 3822 
z
" transform="scale(0.015625)"/>
       </defs>
       <use xlink:href="#TimesNewRomanPSMT-32"/>
       <use xlink:href="#TimesNewRomanPSMT-30" transform="translate(50 0)"/>
       <use xlink:href="#TimesNewRomanPSMT-31" transform="translate(100 0)"/>
       <use xlink:href="#TimesNewRomanPSMT-30" transform="translate(150 0)"/>
      </g>
     </g>
    </g>
    <g id="xtick_2">
     <g id="line2d_2">
      <g>
       <use xlink:href="#mfb752f1a2b" x="67.037381" y="314.12125" style="stroke: #000000; stroke-width: 0.8"/>
      </g>
     </g>
     <g id="text_2">
      <!-- 2011 -->
      <g transform="translate(51.647865 339.908193) rotate(-45) scale(0.1 -0.1)">
       <use xlink:href="#TimesNewRomanPSMT-32"/>
       <use xlink:href="#TimesNewRomanPSMT-30" transform="translate(50 0)"/>
       <use xlink:href="#TimesNewRomanPSMT-31" transform="translate(100 0)"/>
       <use xlink:href="#TimesNewRomanPSMT-31" transform="translate(146.25 0)"/>
      </g>
     </g>
    </g>
    <g id="xtick_3">
     <g id="line2d_3">
      <g>
       <use xlink:href="#mfb752f1a2b" x="106.310108" y="314.12125" style="stroke: #000000; stroke-width: 0.8"/>
      </g>
     </g>
     <g id="text_3">
      <!-- 2012 -->
      <g transform="translate(90.655427 340.173358) rotate(-45) scale(0.1 -0.1)">
       <use xlink:href="#TimesNewRomanPSMT-32"/>
       <use xlink:href="#TimesNewRomanPSMT-30" transform="translate(50 0)"/>
       <use xlink:href="#TimesNewRomanPSMT-31" transform="translate(100 0)"/>
       <use xlink:href="#TimesNewRomanPSMT-32" transform="translate(150 0)"/>
      </g>
     </g>
    </g>
    <g id="xtick_4">
     <g id="line2d_4">
      <g>
       <use xlink:href="#mfb752f1a2b" x="145.582836" y="314.12125" style="stroke: #000000; stroke-width: 0.8"/>
      </g>
     </g>
     <g id="text_4">
      <!-- 2013 -->
      <g transform="translate(129.928155 340.173358) rotate(-45) scale(0.1 -0.1)">
       <defs>
        <path id="TimesNewRomanPSMT-33" d="M 325 3431 
Q 506 3859 782 4092 
Q 1059 4325 1472 4325 
Q 1981 4325 2253 3994 
Q 2459 3747 2459 3466 
Q 2459 3003 1878 2509 
Q 2269 2356 2469 2072 
Q 2669 1788 2669 1403 
Q 2669 853 2319 450 
Q 1863 -75 997 -75 
Q 569 -75 414 31 
Q 259 138 259 259 
Q 259 350 332 419 
Q 406 488 509 488 
Q 588 488 669 463 
Q 722 447 909 348 
Q 1097 250 1169 231 
Q 1284 197 1416 197 
Q 1734 197 1970 444 
Q 2206 691 2206 1028 
Q 2206 1275 2097 1509 
Q 2016 1684 1919 1775 
Q 1784 1900 1550 2001 
Q 1316 2103 1072 2103 
L 972 2103 
L 972 2197 
Q 1219 2228 1467 2375 
Q 1716 2522 1828 2728 
Q 1941 2934 1941 3181 
Q 1941 3503 1739 3701 
Q 1538 3900 1238 3900 
Q 753 3900 428 3381 
L 325 3431 
z
" transform="scale(0.015625)"/>
       </defs>
       <use xlink:href="#TimesNewRomanPSMT-32"/>
       <use xlink:href="#TimesNewRomanPSMT-30" transform="translate(50 0)"/>
       <use xlink:href="#TimesNewRomanPSMT-31" transform="translate(100 0)"/>
       <use xlink:href="#TimesNewRomanPSMT-33" transform="translate(150 0)"/>
      </g>
     </g>
    </g>
    <g id="xtick_5">
     <g id="line2d_5">
      <g>
       <use xlink:href="#mfb752f1a2b" x="184.855563" y="314.12125" style="stroke: #000000; stroke-width: 0.8"/>
      </g>
     </g>
     <g id="text_5">
      <!-- 2014 -->
      <g transform="translate(169.200882 340.173358) rotate(-45) scale(0.1 -0.1)">
       <defs>
        <path id="TimesNewRomanPSMT-34" d="M 2978 1563 
L 2978 1119 
L 2409 1119 
L 2409 0 
L 1894 0 
L 1894 1119 
L 100 1119 
L 100 1519 
L 2066 4325 
L 2409 4325 
L 2409 1563 
L 2978 1563 
z
M 1894 1563 
L 1894 3666 
L 406 1563 
L 1894 1563 
z
" transform="scale(0.015625)"/>
       </defs>
       <use xlink:href="#TimesNewRomanPSMT-32"/>
       <use xlink:href="#TimesNewRomanPSMT-30" transform="translate(50 0)"/>
       <use xlink:href="#TimesNewRomanPSMT-31" transform="translate(100 0)"/>
       <use xlink:href="#TimesNewRomanPSMT-34" transform="translate(150 0)"/>
      </g>
     </g>
    </g>
    <g id="xtick_6">
     <g id="line2d_6">
      <g>
       <use xlink:href="#mfb752f1a2b" x="224.12829" y="314.12125" style="stroke: #000000; stroke-width: 0.8"/>
      </g>
     </g>
     <g id="text_6">
      <!-- 2015 -->
      <g transform="translate(208.473609 340.173358) rotate(-45) scale(0.1 -0.1)">
       <defs>
        <path id="TimesNewRomanPSMT-35" d="M 2778 4238 
L 2534 3706 
L 1259 3706 
L 981 3138 
Q 1809 3016 2294 2522 
Q 2709 2097 2709 1522 
Q 2709 1188 2573 903 
Q 2438 619 2231 419 
Q 2025 219 1772 97 
Q 1413 -75 1034 -75 
Q 653 -75 479 54 
Q 306 184 306 341 
Q 306 428 378 495 
Q 450 563 559 563 
Q 641 563 702 538 
Q 763 513 909 409 
Q 1144 247 1384 247 
Q 1750 247 2026 523 
Q 2303 800 2303 1197 
Q 2303 1581 2056 1914 
Q 1809 2247 1375 2428 
Q 1034 2569 447 2591 
L 1259 4238 
L 2778 4238 
z
" transform="scale(0.015625)"/>
       </defs>
       <use xlink:href="#TimesNewRomanPSMT-32"/>
       <use xlink:href="#TimesNewRomanPSMT-30" transform="translate(50 0)"/>
       <use xlink:href="#TimesNewRomanPSMT-31" transform="translate(100 0)"/>
       <use xlink:href="#TimesNewRomanPSMT-35" transform="translate(150 0)"/>
      </g>
     </g>
    </g>
    <g id="xtick_7">
     <g id="line2d_7">
      <g>
       <use xlink:href="#mfb752f1a2b" x="263.401018" y="314.12125" style="stroke: #000000; stroke-width: 0.8"/>
      </g>
     </g>
     <g id="text_7">
      <!-- 2016 -->
      <g transform="translate(247.746336 340.173358) rotate(-45) scale(0.1 -0.1)">
       <defs>
        <path id="TimesNewRomanPSMT-36" d="M 2869 4325 
L 2869 4209 
Q 2456 4169 2195 4045 
Q 1934 3922 1679 3669 
Q 1425 3416 1258 3105 
Q 1091 2794 978 2366 
Q 1428 2675 1881 2675 
Q 2316 2675 2634 2325 
Q 2953 1975 2953 1425 
Q 2953 894 2631 456 
Q 2244 -75 1606 -75 
Q 1172 -75 869 213 
Q 275 772 275 1663 
Q 275 2231 503 2743 
Q 731 3256 1154 3653 
Q 1578 4050 1965 4187 
Q 2353 4325 2688 4325 
L 2869 4325 
z
M 925 2138 
Q 869 1716 869 1456 
Q 869 1156 980 804 
Q 1091 453 1309 247 
Q 1469 100 1697 100 
Q 1969 100 2183 356 
Q 2397 613 2397 1088 
Q 2397 1622 2184 2012 
Q 1972 2403 1581 2403 
Q 1463 2403 1327 2353 
Q 1191 2303 925 2138 
z
" transform="scale(0.015625)"/>
       </defs>
       <use xlink:href="#TimesNewRomanPSMT-32"/>
       <use xlink:href="#TimesNewRomanPSMT-30" transform="translate(50 0)"/>
       <use xlink:href="#TimesNewRomanPSMT-31" transform="translate(100 0)"/>
       <use xlink:href="#TimesNewRomanPSMT-36" transform="translate(150 0)"/>
      </g>
     </g>
    </g>
    <g id="xtick_8">
     <g id="line2d_8">
      <g>
       <use xlink:href="#mfb752f1a2b" x="302.673745" y="314.12125" style="stroke: #000000; stroke-width: 0.8"/>
      </g>
     </g>
     <g id="text_8">
      <!-- 2017 -->
      <g transform="translate(287.019064 340.173358) rotate(-45) scale(0.1 -0.1)">
       <defs>
        <path id="TimesNewRomanPSMT-37" d="M 644 4238 
L 2916 4238 
L 2916 4119 
L 1503 -88 
L 1153 -88 
L 2419 3728 
L 1253 3728 
Q 900 3728 750 3644 
Q 488 3500 328 3200 
L 238 3234 
L 644 4238 
z
" transform="scale(0.015625)"/>
       </defs>
       <use xlink:href="#TimesNewRomanPSMT-32"/>
       <use xlink:href="#TimesNewRomanPSMT-30" transform="translate(50 0)"/>
       <use xlink:href="#TimesNewRomanPSMT-31" transform="translate(100 0)"/>
       <use xlink:href="#TimesNewRomanPSMT-37" transform="translate(150 0)"/>
      </g>
     </g>
    </g>
    <g id="xtick_9">
     <g id="line2d_9">
      <g>
       <use xlink:href="#mfb752f1a2b" x="341.946472" y="314.12125" style="stroke: #000000; stroke-width: 0.8"/>
      </g>
     </g>
     <g id="text_9">
      <!-- 2018 -->
      <g transform="translate(326.291791 340.173358) rotate(-45) scale(0.1 -0.1)">
       <defs>
        <path id="TimesNewRomanPSMT-38" d="M 1228 2134 
Q 725 2547 579 2797 
Q 434 3047 434 3316 
Q 434 3728 753 4026 
Q 1072 4325 1600 4325 
Q 2113 4325 2425 4047 
Q 2738 3769 2738 3413 
Q 2738 3175 2569 2928 
Q 2400 2681 1866 2347 
Q 2416 1922 2594 1678 
Q 2831 1359 2831 1006 
Q 2831 559 2490 242 
Q 2150 -75 1597 -75 
Q 994 -75 656 303 
Q 388 606 388 966 
Q 388 1247 577 1523 
Q 766 1800 1228 2134 
z
M 1719 2469 
Q 2094 2806 2194 3001 
Q 2294 3197 2294 3444 
Q 2294 3772 2109 3958 
Q 1925 4144 1606 4144 
Q 1288 4144 1088 3959 
Q 888 3775 888 3528 
Q 888 3366 970 3203 
Q 1053 3041 1206 2894 
L 1719 2469 
z
M 1375 2016 
Q 1116 1797 991 1539 
Q 866 1281 866 981 
Q 866 578 1086 336 
Q 1306 94 1647 94 
Q 1984 94 2187 284 
Q 2391 475 2391 747 
Q 2391 972 2272 1150 
Q 2050 1481 1375 2016 
z
" transform="scale(0.015625)"/>
       </defs>
       <use xlink:href="#TimesNewRomanPSMT-32"/>
       <use xlink:href="#TimesNewRomanPSMT-30" transform="translate(50 0)"/>
       <use xlink:href="#TimesNewRomanPSMT-31" transform="translate(100 0)"/>
       <use xlink:href="#TimesNewRomanPSMT-38" transform="translate(150 0)"/>
      </g>
     </g>
    </g>
    <g id="xtick_10">
     <g id="line2d_10">
      <g>
       <use xlink:href="#mfb752f1a2b" x="381.219199" y="314.12125" style="stroke: #000000; stroke-width: 0.8"/>
      </g>
     </g>
     <g id="text_10">
      <!-- 2019 -->
      <g transform="translate(365.564518 340.173358) rotate(-45) scale(0.1 -0.1)">
       <defs>
        <path id="TimesNewRomanPSMT-39" d="M 338 -88 
L 338 28 
Q 744 34 1094 217 
Q 1444 400 1770 856 
Q 2097 1313 2225 1859 
Q 1734 1544 1338 1544 
Q 891 1544 572 1889 
Q 253 2234 253 2806 
Q 253 3363 572 3797 
Q 956 4325 1575 4325 
Q 2097 4325 2469 3894 
Q 2925 3359 2925 2575 
Q 2925 1869 2578 1258 
Q 2231 647 1613 244 
Q 1109 -88 516 -88 
L 338 -88 
z
M 2275 2091 
Q 2331 2497 2331 2741 
Q 2331 3044 2228 3395 
Q 2125 3747 1936 3934 
Q 1747 4122 1506 4122 
Q 1228 4122 1018 3872 
Q 809 3622 809 3128 
Q 809 2469 1088 2097 
Q 1291 1828 1588 1828 
Q 1731 1828 1928 1897 
Q 2125 1966 2275 2091 
z
" transform="scale(0.015625)"/>
       </defs>
       <use xlink:href="#TimesNewRomanPSMT-32"/>
       <use xlink:href="#TimesNewRomanPSMT-30" transform="translate(50 0)"/>
       <use xlink:href="#TimesNewRomanPSMT-31" transform="translate(100 0)"/>
       <use xlink:href="#TimesNewRomanPSMT-39" transform="translate(150 0)"/>
      </g>
     </g>
    </g>
    <g id="text_11">
     <!-- Year -->
     <g transform="translate(193.434114 354.018404) scale(0.12 -0.12)">
      <defs>
       <path id="TimesNewRomanPSMT-59" d="M 3050 4238 
L 4528 4238 
L 4528 4122 
L 4447 4122 
Q 4366 4122 4209 4050 
Q 4053 3978 3925 3843 
Q 3797 3709 3609 3406 
L 2588 1797 
L 2588 734 
Q 2588 344 2675 247 
Q 2794 116 3050 116 
L 3188 116 
L 3188 0 
L 1388 0 
L 1388 116 
L 1538 116 
Q 1806 116 1919 278 
Q 1988 378 1988 734 
L 1988 1738 
L 825 3513 
Q 619 3825 545 3903 
Q 472 3981 241 4091 
Q 178 4122 59 4122 
L 59 4238 
L 1872 4238 
L 1872 4122 
L 1778 4122 
Q 1631 4122 1507 4053 
Q 1384 3984 1384 3847 
Q 1384 3734 1575 3441 
L 2459 2075 
L 3291 3381 
Q 3478 3675 3478 3819 
Q 3478 3906 3433 3975 
Q 3388 4044 3303 4083 
Q 3219 4122 3050 4122 
L 3050 4238 
z
" transform="scale(0.015625)"/>
       <path id="TimesNewRomanPSMT-65" d="M 681 1784 
Q 678 1147 991 784 
Q 1303 422 1725 422 
Q 2006 422 2214 576 
Q 2422 731 2563 1106 
L 2659 1044 
Q 2594 616 2278 264 
Q 1963 -88 1488 -88 
Q 972 -88 605 314 
Q 238 716 238 1394 
Q 238 2128 614 2539 
Q 991 2950 1559 2950 
Q 2041 2950 2350 2633 
Q 2659 2316 2659 1784 
L 681 1784 
z
M 681 1966 
L 2006 1966 
Q 1991 2241 1941 2353 
Q 1863 2528 1708 2628 
Q 1553 2728 1384 2728 
Q 1125 2728 920 2526 
Q 716 2325 681 1966 
z
" transform="scale(0.015625)"/>
       <path id="TimesNewRomanPSMT-61" d="M 1822 413 
Q 1381 72 1269 19 
Q 1100 -59 909 -59 
Q 613 -59 420 144 
Q 228 347 228 678 
Q 228 888 322 1041 
Q 450 1253 767 1440 
Q 1084 1628 1822 1897 
L 1822 2009 
Q 1822 2438 1686 2597 
Q 1550 2756 1291 2756 
Q 1094 2756 978 2650 
Q 859 2544 859 2406 
L 866 2225 
Q 866 2081 792 2003 
Q 719 1925 600 1925 
Q 484 1925 411 2006 
Q 338 2088 338 2228 
Q 338 2497 613 2722 
Q 888 2947 1384 2947 
Q 1766 2947 2009 2819 
Q 2194 2722 2281 2516 
Q 2338 2381 2338 1966 
L 2338 994 
Q 2338 584 2353 492 
Q 2369 400 2405 369 
Q 2441 338 2488 338 
Q 2538 338 2575 359 
Q 2641 400 2828 588 
L 2828 413 
Q 2478 -56 2159 -56 
Q 2006 -56 1915 50 
Q 1825 156 1822 413 
z
M 1822 616 
L 1822 1706 
Q 1350 1519 1213 1441 
Q 966 1303 859 1153 
Q 753 1003 753 825 
Q 753 600 887 451 
Q 1022 303 1197 303 
Q 1434 303 1822 616 
z
" transform="scale(0.015625)"/>
       <path id="TimesNewRomanPSMT-72" d="M 1038 2947 
L 1038 2303 
Q 1397 2947 1775 2947 
Q 1947 2947 2059 2842 
Q 2172 2738 2172 2600 
Q 2172 2478 2090 2393 
Q 2009 2309 1897 2309 
Q 1788 2309 1652 2417 
Q 1516 2525 1450 2525 
Q 1394 2525 1328 2463 
Q 1188 2334 1038 2041 
L 1038 669 
Q 1038 431 1097 309 
Q 1138 225 1241 169 
Q 1344 113 1538 113 
L 1538 0 
L 72 0 
L 72 113 
Q 291 113 397 181 
Q 475 231 506 341 
Q 522 394 522 644 
L 522 1753 
Q 522 2253 501 2348 
Q 481 2444 426 2487 
Q 372 2531 291 2531 
Q 194 2531 72 2484 
L 41 2597 
L 906 2947 
L 1038 2947 
z
" transform="scale(0.015625)"/>
      </defs>
      <use xlink:href="#TimesNewRomanPSMT-59"/>
      <use xlink:href="#TimesNewRomanPSMT-65" transform="translate(62.216797 0)"/>
      <use xlink:href="#TimesNewRomanPSMT-61" transform="translate(106.601562 0)"/>
      <use xlink:href="#TimesNewRomanPSMT-72" transform="translate(150.986328 0)"/>
     </g>
    </g>
   </g>
   <g id="patch_3">
    <path d="M 10.091927 314.12125 
L 10.091927 36.92125 
" style="fill: none; stroke: #000000; stroke-width: 0.8; stroke-linejoin: miter; stroke-linecap: square"/>
   </g>
   <g id="patch_4">
    <path d="M 398.891927 314.12125 
L 398.891927 36.92125 
" style="fill: none; stroke: #000000; stroke-width: 0.8; stroke-linejoin: miter; stroke-linecap: square"/>
   </g>
   <g id="patch_5">
    <path d="M 10.091927 314.12125 
L 398.891927 314.12125 
" style="fill: none; stroke: #000000; stroke-width: 0.8; stroke-linejoin: miter; stroke-linecap: square"/>
   </g>
   <g id="patch_6">
    <path d="M 10.091927 36.92125 
L 398.891927 36.92125 
" style="fill: none; stroke: #000000; stroke-width: 0.8; stroke-linejoin: miter; stroke-linecap: square"/>
   </g>
   <g id="text_12">
    <!-- TV Ratings from 2010 to 2019 (million viewers)  -->
    <g transform="translate(66.187239 16.92125) scale(0.14 -0.14)">
     <defs>
      <path id="TimesNewRomanPSMT-54" d="M 3703 4238 
L 3750 3244 
L 3631 3244 
Q 3597 3506 3538 3619 
Q 3441 3800 3280 3886 
Q 3119 3972 2856 3972 
L 2259 3972 
L 2259 734 
Q 2259 344 2344 247 
Q 2463 116 2709 116 
L 2856 116 
L 2856 0 
L 1059 0 
L 1059 116 
L 1209 116 
Q 1478 116 1591 278 
Q 1659 378 1659 734 
L 1659 3972 
L 1150 3972 
Q 853 3972 728 3928 
Q 566 3869 450 3700 
Q 334 3531 313 3244 
L 194 3244 
L 244 4238 
L 3703 4238 
z
" transform="scale(0.015625)"/>
      <path id="TimesNewRomanPSMT-56" d="M 4544 4238 
L 4544 4122 
Q 4319 4081 4203 3978 
Q 4038 3825 3909 3509 
L 2431 -97 
L 2316 -97 
L 728 3556 
Q 606 3838 556 3900 
Q 478 3997 364 4051 
Q 250 4106 56 4122 
L 56 4238 
L 1788 4238 
L 1788 4122 
Q 1494 4094 1406 4022 
Q 1319 3950 1319 3838 
Q 1319 3681 1463 3350 
L 2541 866 
L 3541 3319 
Q 3688 3681 3688 3822 
Q 3688 3913 3597 3995 
Q 3506 4078 3291 4113 
Q 3275 4116 3238 4122 
L 3238 4238 
L 4544 4238 
z
" transform="scale(0.015625)"/>
      <path id="TimesNewRomanPSMT-20" transform="scale(0.015625)"/>
      <path id="TimesNewRomanPSMT-52" d="M 4325 0 
L 3194 0 
L 1759 1981 
Q 1600 1975 1500 1975 
Q 1459 1975 1412 1976 
Q 1366 1978 1316 1981 
L 1316 750 
Q 1316 350 1403 253 
Q 1522 116 1759 116 
L 1925 116 
L 1925 0 
L 109 0 
L 109 116 
L 269 116 
Q 538 116 653 291 
Q 719 388 719 750 
L 719 3488 
Q 719 3888 631 3984 
Q 509 4122 269 4122 
L 109 4122 
L 109 4238 
L 1653 4238 
Q 2328 4238 2648 4139 
Q 2969 4041 3192 3777 
Q 3416 3513 3416 3147 
Q 3416 2756 3161 2468 
Q 2906 2181 2372 2063 
L 3247 847 
Q 3547 428 3762 290 
Q 3978 153 4325 116 
L 4325 0 
z
M 1316 2178 
Q 1375 2178 1419 2176 
Q 1463 2175 1491 2175 
Q 2097 2175 2405 2437 
Q 2713 2700 2713 3106 
Q 2713 3503 2464 3751 
Q 2216 4000 1806 4000 
Q 1625 4000 1316 3941 
L 1316 2178 
z
" transform="scale(0.015625)"/>
      <path id="TimesNewRomanPSMT-74" d="M 1031 3803 
L 1031 2863 
L 1700 2863 
L 1700 2644 
L 1031 2644 
L 1031 788 
Q 1031 509 1111 412 
Q 1191 316 1316 316 
Q 1419 316 1516 380 
Q 1613 444 1666 569 
L 1788 569 
Q 1678 263 1478 108 
Q 1278 -47 1066 -47 
Q 922 -47 784 33 
Q 647 113 581 261 
Q 516 409 516 719 
L 516 2644 
L 63 2644 
L 63 2747 
Q 234 2816 414 2980 
Q 594 3144 734 3369 
Q 806 3488 934 3803 
L 1031 3803 
z
" transform="scale(0.015625)"/>
      <path id="TimesNewRomanPSMT-69" d="M 928 4444 
Q 1059 4444 1151 4351 
Q 1244 4259 1244 4128 
Q 1244 3997 1151 3903 
Q 1059 3809 928 3809 
Q 797 3809 703 3903 
Q 609 3997 609 4128 
Q 609 4259 701 4351 
Q 794 4444 928 4444 
z
M 1188 2947 
L 1188 647 
Q 1188 378 1227 289 
Q 1266 200 1342 156 
Q 1419 113 1622 113 
L 1622 0 
L 231 0 
L 231 113 
Q 441 113 512 153 
Q 584 194 626 287 
Q 669 381 669 647 
L 669 1750 
Q 669 2216 641 2353 
Q 619 2453 572 2492 
Q 525 2531 444 2531 
Q 356 2531 231 2484 
L 188 2597 
L 1050 2947 
L 1188 2947 
z
" transform="scale(0.015625)"/>
      <path id="TimesNewRomanPSMT-6e" d="M 1034 2341 
Q 1538 2947 1994 2947 
Q 2228 2947 2397 2830 
Q 2566 2713 2666 2444 
Q 2734 2256 2734 1869 
L 2734 647 
Q 2734 375 2778 278 
Q 2813 200 2889 156 
Q 2966 113 3172 113 
L 3172 0 
L 1756 0 
L 1756 113 
L 1816 113 
Q 2016 113 2095 173 
Q 2175 234 2206 353 
Q 2219 400 2219 647 
L 2219 1819 
Q 2219 2209 2117 2386 
Q 2016 2563 1775 2563 
Q 1403 2563 1034 2156 
L 1034 647 
Q 1034 356 1069 288 
Q 1113 197 1189 155 
Q 1266 113 1500 113 
L 1500 0 
L 84 0 
L 84 113 
L 147 113 
Q 366 113 442 223 
Q 519 334 519 647 
L 519 1709 
Q 519 2225 495 2337 
Q 472 2450 423 2490 
Q 375 2531 294 2531 
Q 206 2531 84 2484 
L 38 2597 
L 900 2947 
L 1034 2947 
L 1034 2341 
z
" transform="scale(0.015625)"/>
      <path id="TimesNewRomanPSMT-67" d="M 966 1044 
Q 703 1172 562 1401 
Q 422 1631 422 1909 
Q 422 2334 742 2640 
Q 1063 2947 1563 2947 
Q 1972 2947 2272 2747 
L 2878 2747 
Q 3013 2747 3034 2739 
Q 3056 2731 3066 2713 
Q 3084 2684 3084 2613 
Q 3084 2531 3069 2500 
Q 3059 2484 3036 2475 
Q 3013 2466 2878 2466 
L 2506 2466 
Q 2681 2241 2681 1891 
Q 2681 1491 2375 1206 
Q 2069 922 1553 922 
Q 1341 922 1119 984 
Q 981 866 932 777 
Q 884 688 884 625 
Q 884 572 936 522 
Q 988 472 1138 450 
Q 1225 438 1575 428 
Q 2219 413 2409 384 
Q 2700 344 2873 169 
Q 3047 -6 3047 -263 
Q 3047 -616 2716 -925 
Q 2228 -1381 1444 -1381 
Q 841 -1381 425 -1109 
Q 191 -953 191 -784 
Q 191 -709 225 -634 
Q 278 -519 444 -313 
Q 466 -284 763 25 
Q 600 122 533 198 
Q 466 275 466 372 
Q 466 481 555 628 
Q 644 775 966 1044 
z
M 1509 2797 
Q 1278 2797 1122 2612 
Q 966 2428 966 2047 
Q 966 1553 1178 1281 
Q 1341 1075 1591 1075 
Q 1828 1075 1981 1253 
Q 2134 1431 2134 1813 
Q 2134 2309 1919 2591 
Q 1759 2797 1509 2797 
z
M 934 0 
Q 788 -159 713 -296 
Q 638 -434 638 -550 
Q 638 -700 819 -813 
Q 1131 -1006 1722 -1006 
Q 2284 -1006 2551 -807 
Q 2819 -609 2819 -384 
Q 2819 -222 2659 -153 
Q 2497 -84 2016 -72 
Q 1313 -53 934 0 
z
" transform="scale(0.015625)"/>
      <path id="TimesNewRomanPSMT-73" d="M 2050 2947 
L 2050 1972 
L 1947 1972 
Q 1828 2431 1642 2597 
Q 1456 2763 1169 2763 
Q 950 2763 815 2647 
Q 681 2531 681 2391 
Q 681 2216 781 2091 
Q 878 1963 1175 1819 
L 1631 1597 
Q 2266 1288 2266 781 
Q 2266 391 1970 151 
Q 1675 -88 1309 -88 
Q 1047 -88 709 6 
Q 606 38 541 38 
Q 469 38 428 -44 
L 325 -44 
L 325 978 
L 428 978 
Q 516 541 762 319 
Q 1009 97 1316 97 
Q 1531 97 1667 223 
Q 1803 350 1803 528 
Q 1803 744 1651 891 
Q 1500 1038 1047 1263 
Q 594 1488 453 1669 
Q 313 1847 313 2119 
Q 313 2472 555 2709 
Q 797 2947 1181 2947 
Q 1350 2947 1591 2875 
Q 1750 2828 1803 2828 
Q 1853 2828 1881 2850 
Q 1909 2872 1947 2947 
L 2050 2947 
z
" transform="scale(0.015625)"/>
      <path id="TimesNewRomanPSMT-66" d="M 1319 2638 
L 1319 756 
Q 1319 356 1406 250 
Q 1522 113 1716 113 
L 1975 113 
L 1975 0 
L 266 0 
L 266 113 
L 394 113 
Q 519 113 622 175 
Q 725 238 764 344 
Q 803 450 803 756 
L 803 2638 
L 247 2638 
L 247 2863 
L 803 2863 
L 803 3050 
Q 803 3478 940 3775 
Q 1078 4072 1361 4255 
Q 1644 4438 1997 4438 
Q 2325 4438 2600 4225 
Q 2781 4084 2781 3909 
Q 2781 3816 2700 3733 
Q 2619 3650 2525 3650 
Q 2453 3650 2373 3701 
Q 2294 3753 2178 3923 
Q 2063 4094 1966 4153 
Q 1869 4213 1750 4213 
Q 1606 4213 1506 4136 
Q 1406 4059 1362 3898 
Q 1319 3738 1319 3069 
L 1319 2863 
L 2056 2863 
L 2056 2638 
L 1319 2638 
z
" transform="scale(0.015625)"/>
      <path id="TimesNewRomanPSMT-6f" d="M 1600 2947 
Q 2250 2947 2644 2453 
Q 2978 2031 2978 1484 
Q 2978 1100 2793 706 
Q 2609 313 2286 112 
Q 1963 -88 1566 -88 
Q 919 -88 538 428 
Q 216 863 216 1403 
Q 216 1797 411 2186 
Q 606 2575 925 2761 
Q 1244 2947 1600 2947 
z
M 1503 2744 
Q 1338 2744 1170 2645 
Q 1003 2547 900 2300 
Q 797 2053 797 1666 
Q 797 1041 1045 587 
Q 1294 134 1700 134 
Q 2003 134 2200 384 
Q 2397 634 2397 1244 
Q 2397 2006 2069 2444 
Q 1847 2744 1503 2744 
z
" transform="scale(0.015625)"/>
      <path id="TimesNewRomanPSMT-6d" d="M 1050 2338 
Q 1363 2650 1419 2697 
Q 1559 2816 1721 2881 
Q 1884 2947 2044 2947 
Q 2313 2947 2506 2790 
Q 2700 2634 2766 2338 
Q 3088 2713 3309 2830 
Q 3531 2947 3766 2947 
Q 3994 2947 4170 2830 
Q 4347 2713 4450 2447 
Q 4519 2266 4519 1878 
L 4519 647 
Q 4519 378 4559 278 
Q 4591 209 4675 161 
Q 4759 113 4950 113 
L 4950 0 
L 3538 0 
L 3538 113 
L 3597 113 
Q 3781 113 3884 184 
Q 3956 234 3988 344 
Q 4000 397 4000 647 
L 4000 1878 
Q 4000 2228 3916 2372 
Q 3794 2572 3525 2572 
Q 3359 2572 3192 2489 
Q 3025 2406 2788 2181 
L 2781 2147 
L 2788 2013 
L 2788 647 
Q 2788 353 2820 281 
Q 2853 209 2943 161 
Q 3034 113 3253 113 
L 3253 0 
L 1806 0 
L 1806 113 
Q 2044 113 2133 169 
Q 2222 225 2256 338 
Q 2272 391 2272 647 
L 2272 1878 
Q 2272 2228 2169 2381 
Q 2031 2581 1784 2581 
Q 1616 2581 1450 2491 
Q 1191 2353 1050 2181 
L 1050 647 
Q 1050 366 1089 281 
Q 1128 197 1204 155 
Q 1281 113 1516 113 
L 1516 0 
L 100 0 
L 100 113 
Q 297 113 375 155 
Q 453 197 493 289 
Q 534 381 534 647 
L 534 1741 
Q 534 2213 506 2350 
Q 484 2453 437 2492 
Q 391 2531 309 2531 
Q 222 2531 100 2484 
L 53 2597 
L 916 2947 
L 1050 2947 
L 1050 2338 
z
" transform="scale(0.015625)"/>
      <path id="TimesNewRomanPSMT-28" d="M 1988 -1253 
L 1988 -1369 
Q 1516 -1131 1200 -813 
Q 750 -359 506 256 
Q 263 872 263 1534 
Q 263 2503 741 3301 
Q 1219 4100 1988 4444 
L 1988 4313 
Q 1603 4100 1356 3731 
Q 1109 3363 987 2797 
Q 866 2231 866 1616 
Q 866 947 969 400 
Q 1050 -31 1165 -292 
Q 1281 -553 1476 -793 
Q 1672 -1034 1988 -1253 
z
" transform="scale(0.015625)"/>
      <path id="TimesNewRomanPSMT-6c" d="M 1184 4444 
L 1184 647 
Q 1184 378 1223 290 
Q 1263 203 1344 158 
Q 1425 113 1647 113 
L 1647 0 
L 244 0 
L 244 113 
Q 441 113 512 153 
Q 584 194 625 287 
Q 666 381 666 647 
L 666 3247 
Q 666 3731 644 3842 
Q 622 3953 573 3993 
Q 525 4034 450 4034 
Q 369 4034 244 3984 
L 191 4094 
L 1044 4444 
L 1184 4444 
z
" transform="scale(0.015625)"/>
      <path id="TimesNewRomanPSMT-76" d="M 53 2863 
L 1400 2863 
L 1400 2747 
L 1313 2747 
Q 1191 2747 1127 2687 
Q 1063 2628 1063 2528 
Q 1063 2419 1128 2269 
L 1794 688 
L 2463 2328 
Q 2534 2503 2534 2594 
Q 2534 2638 2509 2666 
Q 2475 2713 2422 2730 
Q 2369 2747 2206 2747 
L 2206 2863 
L 3141 2863 
L 3141 2747 
Q 2978 2734 2916 2681 
Q 2806 2588 2719 2369 
L 1703 -88 
L 1575 -88 
L 553 2328 
Q 484 2497 421 2570 
Q 359 2644 263 2694 
Q 209 2722 53 2747 
L 53 2863 
z
" transform="scale(0.015625)"/>
      <path id="TimesNewRomanPSMT-77" d="M 41 2863 
L 1241 2863 
L 1241 2747 
Q 1075 2734 1023 2687 
Q 972 2641 972 2553 
Q 972 2456 1025 2319 
L 1638 672 
L 2253 2013 
L 2091 2434 
Q 2016 2622 1894 2694 
Q 1825 2738 1638 2747 
L 1638 2863 
L 3000 2863 
L 3000 2747 
Q 2775 2738 2681 2666 
Q 2619 2616 2619 2506 
Q 2619 2444 2644 2378 
L 3294 734 
L 3897 2319 
Q 3959 2488 3959 2588 
Q 3959 2647 3898 2694 
Q 3838 2741 3659 2747 
L 3659 2863 
L 4563 2863 
L 4563 2747 
Q 4291 2706 4163 2378 
L 3206 -88 
L 3078 -88 
L 2363 1741 
L 1528 -88 
L 1413 -88 
L 494 2319 
Q 403 2547 315 2626 
Q 228 2706 41 2747 
L 41 2863 
z
" transform="scale(0.015625)"/>
      <path id="TimesNewRomanPSMT-29" d="M 144 4313 
L 144 4444 
Q 619 4209 934 3891 
Q 1381 3434 1625 2820 
Q 1869 2206 1869 1541 
Q 1869 572 1392 -226 
Q 916 -1025 144 -1369 
L 144 -1253 
Q 528 -1038 776 -670 
Q 1025 -303 1145 264 
Q 1266 831 1266 1447 
Q 1266 2113 1163 2663 
Q 1084 3094 967 3353 
Q 850 3613 656 3853 
Q 463 4094 144 4313 
z
" transform="scale(0.015625)"/>
     </defs>
     <use xlink:href="#TimesNewRomanPSMT-54"/>
     <use xlink:href="#TimesNewRomanPSMT-56" transform="translate(61.083984 0)"/>
     <use xlink:href="#TimesNewRomanPSMT-20" transform="translate(131.550781 0)"/>
     <use xlink:href="#TimesNewRomanPSMT-52" transform="translate(156.550781 0)"/>
     <use xlink:href="#TimesNewRomanPSMT-61" transform="translate(223.25 0)"/>
     <use xlink:href="#TimesNewRomanPSMT-74" transform="translate(267.634766 0)"/>
     <use xlink:href="#TimesNewRomanPSMT-69" transform="translate(295.417969 0)"/>
     <use xlink:href="#TimesNewRomanPSMT-6e" transform="translate(323.201172 0)"/>
     <use xlink:href="#TimesNewRomanPSMT-67" transform="translate(373.201172 0)"/>
     <use xlink:href="#TimesNewRomanPSMT-73" transform="translate(423.201172 0)"/>
     <use xlink:href="#TimesNewRomanPSMT-20" transform="translate(462.117188 0)"/>
     <use xlink:href="#TimesNewRomanPSMT-66" transform="translate(487.117188 0)"/>
     <use xlink:href="#TimesNewRomanPSMT-72" transform="translate(520.417969 0)"/>
     <use xlink:href="#TimesNewRomanPSMT-6f" transform="translate(553.71875 0)"/>
     <use xlink:href="#TimesNewRomanPSMT-6d" transform="translate(603.71875 0)"/>
     <use xlink:href="#TimesNewRomanPSMT-20" transform="translate(681.501953 0)"/>
     <use xlink:href="#TimesNewRomanPSMT-32" transform="translate(706.501953 0)"/>
     <use xlink:href="#TimesNewRomanPSMT-30" transform="translate(756.501953 0)"/>
     <use xlink:href="#TimesNewRomanPSMT-31" transform="translate(806.501953 0)"/>
     <use xlink:href="#TimesNewRomanPSMT-30" transform="translate(856.501953 0)"/>
     <use xlink:href="#TimesNewRomanPSMT-20" transform="translate(906.501953 0)"/>
     <use xlink:href="#TimesNewRomanPSMT-74" transform="translate(931.501953 0)"/>
     <use xlink:href="#TimesNewRomanPSMT-6f" transform="translate(959.285156 0)"/>
     <use xlink:href="#TimesNewRomanPSMT-20" transform="translate(1009.285156 0)"/>
     <use xlink:href="#TimesNewRomanPSMT-32" transform="translate(1034.285156 0)"/>
     <use xlink:href="#TimesNewRomanPSMT-30" transform="translate(1084.285156 0)"/>
     <use xlink:href="#TimesNewRomanPSMT-31" transform="translate(1134.285156 0)"/>
     <use xlink:href="#TimesNewRomanPSMT-39" transform="translate(1184.285156 0)"/>
     <use xlink:href="#TimesNewRomanPSMT-20" transform="translate(1234.285156 0)"/>
     <use xlink:href="#TimesNewRomanPSMT-28" transform="translate(1259.285156 0)"/>
     <use xlink:href="#TimesNewRomanPSMT-6d" transform="translate(1292.585938 0)"/>
     <use xlink:href="#TimesNewRomanPSMT-69" transform="translate(1370.369141 0)"/>
     <use xlink:href="#TimesNewRomanPSMT-6c" transform="translate(1398.152344 0)"/>
     <use xlink:href="#TimesNewRomanPSMT-6c" transform="translate(1425.935547 0)"/>
     <use xlink:href="#TimesNewRomanPSMT-69" transform="translate(1453.71875 0)"/>
     <use xlink:href="#TimesNewRomanPSMT-6f" transform="translate(1481.501953 0)"/>
     <use xlink:href="#TimesNewRomanPSMT-6e" transform="translate(1531.501953 0)"/>
     <use xlink:href="#TimesNewRomanPSMT-20" transform="translate(1581.501953 0)"/>
     <use xlink:href="#TimesNewRomanPSMT-76" transform="translate(1606.501953 0)"/>
     <use xlink:href="#TimesNewRomanPSMT-69" transform="translate(1656.501953 0)"/>
     <use xlink:href="#TimesNewRomanPSMT-65" transform="translate(1684.285156 0)"/>
     <use xlink:href="#TimesNewRomanPSMT-77" transform="translate(1728.669922 0)"/>
     <use xlink:href="#TimesNewRomanPSMT-65" transform="translate(1800.886719 0)"/>
     <use xlink:href="#TimesNewRomanPSMT-72" transform="translate(1845.271484 0)"/>
     <use xlink:href="#TimesNewRomanPSMT-73" transform="translate(1878.572266 0)"/>
     <use xlink:href="#TimesNewRomanPSMT-29" transform="translate(1917.488281 0)"/>
     <use xlink:href="#TimesNewRomanPSMT-20" transform="translate(1950.789062 0)"/>
    </g>
   </g>
   <g id="legend_1">
    <g id="patch_7">
     <path d="M 415.667927 156.743125 
L 435.667927 156.743125 
L 435.667927 149.743125 
L 415.667927 149.743125 
z
" style="fill: #1f77b4"/>
    </g>
    <g id="text_13">
     <!-- Nova Broadcast -->
     <g transform="translate(443.667927 156.743125) scale(0.1 -0.1)">
      <defs>
       <path id="TimesNewRomanPSMT-4e" d="M -84 4238 
L 1066 4238 
L 3656 1059 
L 3656 3503 
Q 3656 3894 3569 3991 
Q 3453 4122 3203 4122 
L 3056 4122 
L 3056 4238 
L 4531 4238 
L 4531 4122 
L 4381 4122 
Q 4113 4122 4000 3959 
Q 3931 3859 3931 3503 
L 3931 -69 
L 3819 -69 
L 1025 3344 
L 1025 734 
Q 1025 344 1109 247 
Q 1228 116 1475 116 
L 1625 116 
L 1625 0 
L 150 0 
L 150 116 
L 297 116 
Q 569 116 681 278 
Q 750 378 750 734 
L 750 3681 
Q 566 3897 470 3965 
Q 375 4034 191 4094 
Q 100 4122 -84 4122 
L -84 4238 
z
" transform="scale(0.015625)"/>
       <path id="TimesNewRomanPSMT-42" d="M 2956 2163 
Q 3397 2069 3616 1863 
Q 3919 1575 3919 1159 
Q 3919 844 3719 555 
Q 3519 266 3170 133 
Q 2822 0 2106 0 
L 106 0 
L 106 116 
L 266 116 
Q 531 116 647 284 
Q 719 394 719 750 
L 719 3488 
Q 719 3881 628 3984 
Q 506 4122 266 4122 
L 106 4122 
L 106 4238 
L 1938 4238 
Q 2450 4238 2759 4163 
Q 3228 4050 3475 3764 
Q 3722 3478 3722 3106 
Q 3722 2788 3528 2536 
Q 3334 2284 2956 2163 
z
M 1319 2331 
Q 1434 2309 1582 2298 
Q 1731 2288 1909 2288 
Q 2366 2288 2595 2386 
Q 2825 2484 2947 2687 
Q 3069 2891 3069 3131 
Q 3069 3503 2766 3765 
Q 2463 4028 1881 4028 
Q 1569 4028 1319 3959 
L 1319 2331 
z
M 1319 306 
Q 1681 222 2034 222 
Q 2600 222 2897 476 
Q 3194 731 3194 1106 
Q 3194 1353 3059 1581 
Q 2925 1809 2622 1940 
Q 2319 2072 1872 2072 
Q 1678 2072 1540 2065 
Q 1403 2059 1319 2044 
L 1319 306 
z
" transform="scale(0.015625)"/>
       <path id="TimesNewRomanPSMT-64" d="M 2222 322 
Q 2013 103 1813 7 
Q 1613 -88 1381 -88 
Q 913 -88 563 304 
Q 213 697 213 1313 
Q 213 1928 600 2439 
Q 988 2950 1597 2950 
Q 1975 2950 2222 2709 
L 2222 3238 
Q 2222 3728 2198 3840 
Q 2175 3953 2125 3993 
Q 2075 4034 2000 4034 
Q 1919 4034 1784 3984 
L 1744 4094 
L 2597 4444 
L 2738 4444 
L 2738 1134 
Q 2738 631 2761 520 
Q 2784 409 2836 365 
Q 2888 322 2956 322 
Q 3041 322 3181 375 
L 3216 266 
L 2366 -88 
L 2222 -88 
L 2222 322 
z
M 2222 541 
L 2222 2016 
Q 2203 2228 2109 2403 
Q 2016 2578 1861 2667 
Q 1706 2756 1559 2756 
Q 1284 2756 1069 2509 
Q 784 2184 784 1559 
Q 784 928 1059 592 
Q 1334 256 1672 256 
Q 1956 256 2222 541 
z
" transform="scale(0.015625)"/>
       <path id="TimesNewRomanPSMT-63" d="M 2631 1088 
Q 2516 522 2178 217 
Q 1841 -88 1431 -88 
Q 944 -88 581 321 
Q 219 731 219 1428 
Q 219 2103 620 2525 
Q 1022 2947 1584 2947 
Q 2006 2947 2278 2723 
Q 2550 2500 2550 2259 
Q 2550 2141 2473 2067 
Q 2397 1994 2259 1994 
Q 2075 1994 1981 2113 
Q 1928 2178 1911 2362 
Q 1894 2547 1784 2644 
Q 1675 2738 1481 2738 
Q 1169 2738 978 2506 
Q 725 2200 725 1697 
Q 725 1184 976 792 
Q 1228 400 1656 400 
Q 1963 400 2206 609 
Q 2378 753 2541 1131 
L 2631 1088 
z
" transform="scale(0.015625)"/>
      </defs>
      <use xlink:href="#TimesNewRomanPSMT-4e"/>
      <use xlink:href="#TimesNewRomanPSMT-6f" transform="translate(72.216797 0)"/>
      <use xlink:href="#TimesNewRomanPSMT-76" transform="translate(122.216797 0)"/>
      <use xlink:href="#TimesNewRomanPSMT-61" transform="translate(172.216797 0)"/>
      <use xlink:href="#TimesNewRomanPSMT-20" transform="translate(216.601562 0)"/>
      <use xlink:href="#TimesNewRomanPSMT-42" transform="translate(241.601562 0)"/>
      <use xlink:href="#TimesNewRomanPSMT-72" transform="translate(308.300781 0)"/>
      <use xlink:href="#TimesNewRomanPSMT-6f" transform="translate(341.601562 0)"/>
      <use xlink:href="#TimesNewRomanPSMT-61" transform="translate(391.601562 0)"/>
      <use xlink:href="#TimesNewRomanPSMT-64" transform="translate(435.986328 0)"/>
      <use xlink:href="#TimesNewRomanPSMT-63" transform="translate(485.986328 0)"/>
      <use xlink:href="#TimesNewRomanPSMT-61" transform="translate(530.371094 0)"/>
      <use xlink:href="#TimesNewRomanPSMT-73" transform="translate(574.755859 0)"/>
      <use xlink:href="#TimesNewRomanPSMT-74" transform="translate(613.671875 0)"/>
     </g>
    </g>
    <g id="patch_8">
     <path d="M 415.667927 170.882187 
L 435.667927 170.882187 
L 435.667927 163.882187 
L 415.667927 163.882187 
z
" style="fill: #aec7e8"/>
    </g>
    <g id="text_14">
     <!-- Echo Sports Network -->
     <g transform="translate(443.667927 170.882187) scale(0.1 -0.1)">
      <defs>
       <path id="TimesNewRomanPSMT-45" d="M 1338 4006 
L 1338 2331 
L 2269 2331 
Q 2631 2331 2753 2441 
Q 2916 2584 2934 2947 
L 3050 2947 
L 3050 1472 
L 2934 1472 
Q 2891 1781 2847 1869 
Q 2791 1978 2662 2040 
Q 2534 2103 2269 2103 
L 1338 2103 
L 1338 706 
Q 1338 425 1363 364 
Q 1388 303 1450 267 
Q 1513 231 1688 231 
L 2406 231 
Q 2766 231 2928 281 
Q 3091 331 3241 478 
Q 3434 672 3638 1063 
L 3763 1063 
L 3397 0 
L 131 0 
L 131 116 
L 281 116 
Q 431 116 566 188 
Q 666 238 702 338 
Q 738 438 738 747 
L 738 3500 
Q 738 3903 656 3997 
Q 544 4122 281 4122 
L 131 4122 
L 131 4238 
L 3397 4238 
L 3444 3309 
L 3322 3309 
Q 3256 3644 3176 3769 
Q 3097 3894 2941 3959 
Q 2816 4006 2500 4006 
L 1338 4006 
z
" transform="scale(0.015625)"/>
       <path id="TimesNewRomanPSMT-68" d="M 1041 4444 
L 1041 2350 
Q 1388 2731 1591 2839 
Q 1794 2947 1997 2947 
Q 2241 2947 2416 2812 
Q 2591 2678 2675 2391 
Q 2734 2191 2734 1659 
L 2734 647 
Q 2734 375 2778 275 
Q 2809 200 2884 156 
Q 2959 113 3159 113 
L 3159 0 
L 1753 0 
L 1753 113 
L 1819 113 
Q 2019 113 2097 173 
Q 2175 234 2206 353 
Q 2216 403 2216 647 
L 2216 1659 
Q 2216 2128 2167 2275 
Q 2119 2422 2012 2495 
Q 1906 2569 1756 2569 
Q 1603 2569 1437 2487 
Q 1272 2406 1041 2159 
L 1041 647 
Q 1041 353 1073 281 
Q 1106 209 1195 161 
Q 1284 113 1503 113 
L 1503 0 
L 84 0 
L 84 113 
Q 275 113 384 172 
Q 447 203 484 290 
Q 522 378 522 647 
L 522 3238 
Q 522 3728 498 3840 
Q 475 3953 426 3993 
Q 378 4034 297 4034 
Q 231 4034 84 3984 
L 41 4094 
L 897 4444 
L 1041 4444 
z
" transform="scale(0.015625)"/>
       <path id="TimesNewRomanPSMT-53" d="M 2934 4334 
L 2934 2869 
L 2819 2869 
Q 2763 3291 2617 3541 
Q 2472 3791 2203 3937 
Q 1934 4084 1647 4084 
Q 1322 4084 1109 3886 
Q 897 3688 897 3434 
Q 897 3241 1031 3081 
Q 1225 2847 1953 2456 
Q 2547 2138 2764 1967 
Q 2981 1797 3098 1565 
Q 3216 1334 3216 1081 
Q 3216 600 2842 251 
Q 2469 -97 1881 -97 
Q 1697 -97 1534 -69 
Q 1438 -53 1133 45 
Q 828 144 747 144 
Q 669 144 623 97 
Q 578 50 556 -97 
L 441 -97 
L 441 1356 
L 556 1356 
Q 638 900 775 673 
Q 913 447 1195 297 
Q 1478 147 1816 147 
Q 2206 147 2432 353 
Q 2659 559 2659 841 
Q 2659 997 2573 1156 
Q 2488 1316 2306 1453 
Q 2184 1547 1640 1851 
Q 1097 2156 867 2337 
Q 638 2519 519 2737 
Q 400 2956 400 3219 
Q 400 3675 750 4004 
Q 1100 4334 1641 4334 
Q 1978 4334 2356 4169 
Q 2531 4091 2603 4091 
Q 2684 4091 2736 4139 
Q 2788 4188 2819 4334 
L 2934 4334 
z
" transform="scale(0.015625)"/>
       <path id="TimesNewRomanPSMT-70" d="M -6 2578 
L 875 2934 
L 994 2934 
L 994 2266 
Q 1216 2644 1439 2795 
Q 1663 2947 1909 2947 
Q 2341 2947 2628 2609 
Q 2981 2197 2981 1534 
Q 2981 794 2556 309 
Q 2206 -88 1675 -88 
Q 1444 -88 1275 -22 
Q 1150 25 994 166 
L 994 -706 
Q 994 -1000 1030 -1079 
Q 1066 -1159 1155 -1206 
Q 1244 -1253 1478 -1253 
L 1478 -1369 
L -22 -1369 
L -22 -1253 
L 56 -1253 
Q 228 -1256 350 -1188 
Q 409 -1153 442 -1076 
Q 475 -1000 475 -688 
L 475 2019 
Q 475 2297 450 2372 
Q 425 2447 370 2484 
Q 316 2522 222 2522 
Q 147 2522 31 2478 
L -6 2578 
z
M 994 2081 
L 994 1013 
Q 994 666 1022 556 
Q 1066 375 1236 237 
Q 1406 100 1666 100 
Q 1978 100 2172 344 
Q 2425 663 2425 1241 
Q 2425 1897 2138 2250 
Q 1938 2494 1663 2494 
Q 1513 2494 1366 2419 
Q 1253 2363 994 2081 
z
" transform="scale(0.015625)"/>
       <path id="TimesNewRomanPSMT-6b" d="M 1047 4444 
L 1047 1597 
L 1775 2259 
Q 2006 2472 2044 2528 
Q 2069 2566 2069 2603 
Q 2069 2666 2017 2711 
Q 1966 2756 1847 2763 
L 1847 2863 
L 3091 2863 
L 3091 2763 
Q 2834 2756 2664 2684 
Q 2494 2613 2291 2428 
L 1556 1750 
L 2291 822 
Q 2597 438 2703 334 
Q 2853 188 2966 144 
Q 3044 113 3238 113 
L 3238 0 
L 1847 0 
L 1847 113 
Q 1966 116 2008 148 
Q 2050 181 2050 241 
Q 2050 313 1925 472 
L 1047 1594 
L 1047 644 
Q 1047 366 1086 278 
Q 1125 191 1197 153 
Q 1269 116 1509 113 
L 1509 0 
L 53 0 
L 53 113 
Q 272 113 381 166 
Q 447 200 481 272 
Q 528 375 528 628 
L 528 3234 
Q 528 3731 506 3842 
Q 484 3953 434 3995 
Q 384 4038 303 4038 
Q 238 4038 106 3984 
L 53 4094 
L 903 4444 
L 1047 4444 
z
" transform="scale(0.015625)"/>
      </defs>
      <use xlink:href="#TimesNewRomanPSMT-45"/>
      <use xlink:href="#TimesNewRomanPSMT-63" transform="translate(61.083984 0)"/>
      <use xlink:href="#TimesNewRomanPSMT-68" transform="translate(105.46875 0)"/>
      <use xlink:href="#TimesNewRomanPSMT-6f" transform="translate(155.46875 0)"/>
      <use xlink:href="#TimesNewRomanPSMT-20" transform="translate(205.46875 0)"/>
      <use xlink:href="#TimesNewRomanPSMT-53" transform="translate(230.46875 0)"/>
      <use xlink:href="#TimesNewRomanPSMT-70" transform="translate(286.083984 0)"/>
      <use xlink:href="#TimesNewRomanPSMT-6f" transform="translate(336.083984 0)"/>
      <use xlink:href="#TimesNewRomanPSMT-72" transform="translate(386.083984 0)"/>
      <use xlink:href="#TimesNewRomanPSMT-74" transform="translate(419.384766 0)"/>
      <use xlink:href="#TimesNewRomanPSMT-73" transform="translate(447.167969 0)"/>
      <use xlink:href="#TimesNewRomanPSMT-20" transform="translate(486.083984 0)"/>
      <use xlink:href="#TimesNewRomanPSMT-4e" transform="translate(511.083984 0)"/>
      <use xlink:href="#TimesNewRomanPSMT-65" transform="translate(583.300781 0)"/>
      <use xlink:href="#TimesNewRomanPSMT-74" transform="translate(627.685547 0)"/>
      <use xlink:href="#TimesNewRomanPSMT-77" transform="translate(655.46875 0)"/>
      <use xlink:href="#TimesNewRomanPSMT-6f" transform="translate(727.685547 0)"/>
      <use xlink:href="#TimesNewRomanPSMT-72" transform="translate(777.685547 0)"/>
      <use xlink:href="#TimesNewRomanPSMT-6b" transform="translate(810.986328 0)"/>
     </g>
    </g>
    <g id="patch_9">
     <path d="M 415.667927 185.02125 
L 435.667927 185.02125 
L 435.667927 178.02125 
L 415.667927 178.02125 
z
" style="fill: #ff7f0e"/>
    </g>
    <g id="text_15">
     <!-- AetherSports Channel -->
     <g transform="translate(443.667927 185.02125) scale(0.1 -0.1)">
      <defs>
       <path id="TimesNewRomanPSMT-41" d="M 2928 1419 
L 1288 1419 
L 1000 750 
Q 894 503 894 381 
Q 894 284 986 211 
Q 1078 138 1384 116 
L 1384 0 
L 50 0 
L 50 116 
Q 316 163 394 238 
Q 553 388 747 847 
L 2238 4334 
L 2347 4334 
L 3822 809 
Q 4000 384 4145 257 
Q 4291 131 4550 116 
L 4550 0 
L 2878 0 
L 2878 116 
Q 3131 128 3220 200 
Q 3309 272 3309 375 
Q 3309 513 3184 809 
L 2928 1419 
z
M 2841 1650 
L 2122 3363 
L 1384 1650 
L 2841 1650 
z
" transform="scale(0.015625)"/>
       <path id="TimesNewRomanPSMT-43" d="M 3853 4334 
L 3950 2894 
L 3853 2894 
Q 3659 3541 3300 3825 
Q 2941 4109 2438 4109 
Q 2016 4109 1675 3895 
Q 1334 3681 1139 3212 
Q 944 2744 944 2047 
Q 944 1472 1128 1050 
Q 1313 628 1683 403 
Q 2053 178 2528 178 
Q 2941 178 3256 354 
Q 3572 531 3950 1056 
L 4047 994 
Q 3728 428 3303 165 
Q 2878 -97 2294 -97 
Q 1241 -97 663 684 
Q 231 1266 231 2053 
Q 231 2688 515 3219 
Q 800 3750 1298 4042 
Q 1797 4334 2388 4334 
Q 2847 4334 3294 4109 
Q 3425 4041 3481 4041 
Q 3566 4041 3628 4100 
Q 3709 4184 3744 4334 
L 3853 4334 
z
" transform="scale(0.015625)"/>
      </defs>
      <use xlink:href="#TimesNewRomanPSMT-41"/>
      <use xlink:href="#TimesNewRomanPSMT-65" transform="translate(72.216797 0)"/>
      <use xlink:href="#TimesNewRomanPSMT-74" transform="translate(116.601562 0)"/>
      <use xlink:href="#TimesNewRomanPSMT-68" transform="translate(144.384766 0)"/>
      <use xlink:href="#TimesNewRomanPSMT-65" transform="translate(194.384766 0)"/>
      <use xlink:href="#TimesNewRomanPSMT-72" transform="translate(238.769531 0)"/>
      <use xlink:href="#TimesNewRomanPSMT-53" transform="translate(272.070312 0)"/>
      <use xlink:href="#TimesNewRomanPSMT-70" transform="translate(327.685547 0)"/>
      <use xlink:href="#TimesNewRomanPSMT-6f" transform="translate(377.685547 0)"/>
      <use xlink:href="#TimesNewRomanPSMT-72" transform="translate(427.685547 0)"/>
      <use xlink:href="#TimesNewRomanPSMT-74" transform="translate(460.986328 0)"/>
      <use xlink:href="#TimesNewRomanPSMT-73" transform="translate(488.769531 0)"/>
      <use xlink:href="#TimesNewRomanPSMT-20" transform="translate(527.685547 0)"/>
      <use xlink:href="#TimesNewRomanPSMT-43" transform="translate(552.685547 0)"/>
      <use xlink:href="#TimesNewRomanPSMT-68" transform="translate(619.384766 0)"/>
      <use xlink:href="#TimesNewRomanPSMT-61" transform="translate(669.384766 0)"/>
      <use xlink:href="#TimesNewRomanPSMT-6e" transform="translate(713.769531 0)"/>
      <use xlink:href="#TimesNewRomanPSMT-6e" transform="translate(763.769531 0)"/>
      <use xlink:href="#TimesNewRomanPSMT-65" transform="translate(813.769531 0)"/>
      <use xlink:href="#TimesNewRomanPSMT-6c" transform="translate(858.154297 0)"/>
     </g>
    </g>
    <g id="patch_10">
     <path d="M 415.667927 199.160312 
L 435.667927 199.160312 
L 435.667927 192.160312 
L 415.667927 192.160312 
z
" style="fill: #ffbb78"/>
    </g>
    <g id="text_16">
     <!-- Crimson Vision -->
     <g transform="translate(443.667927 199.160312) scale(0.1 -0.1)">
      <use xlink:href="#TimesNewRomanPSMT-43"/>
      <use xlink:href="#TimesNewRomanPSMT-72" transform="translate(66.699219 0)"/>
      <use xlink:href="#TimesNewRomanPSMT-69" transform="translate(100 0)"/>
      <use xlink:href="#TimesNewRomanPSMT-6d" transform="translate(127.783203 0)"/>
      <use xlink:href="#TimesNewRomanPSMT-73" transform="translate(205.566406 0)"/>
      <use xlink:href="#TimesNewRomanPSMT-6f" transform="translate(244.482422 0)"/>
      <use xlink:href="#TimesNewRomanPSMT-6e" transform="translate(294.482422 0)"/>
      <use xlink:href="#TimesNewRomanPSMT-20" transform="translate(344.482422 0)"/>
      <use xlink:href="#TimesNewRomanPSMT-56" transform="translate(367.732422 0)"/>
      <use xlink:href="#TimesNewRomanPSMT-69" transform="translate(433.949219 0)"/>
      <use xlink:href="#TimesNewRomanPSMT-73" transform="translate(461.732422 0)"/>
      <use xlink:href="#TimesNewRomanPSMT-69" transform="translate(500.648438 0)"/>
      <use xlink:href="#TimesNewRomanPSMT-6f" transform="translate(528.431641 0)"/>
      <use xlink:href="#TimesNewRomanPSMT-6e" transform="translate(578.431641 0)"/>
     </g>
    </g>
   </g>
  </g>
 </g>
 <defs>
  <clipPath id="p5c5d5730d6">
   <rect x="10.091927" y="36.92125" width="388.8" height="277.2"/>
  </clipPath>
 </defs>
</svg>
