<?xml version="1.0" encoding="utf-8" standalone="no"?>
<!DOCTYPE svg PUBLIC "-//W3C//DTD SVG 1.1//EN"
  "http://www.w3.org/Graphics/SVG/1.1/DTD/svg11.dtd">
<svg xmlns:xlink="http://www.w3.org/1999/xlink" width="540.683552pt" height="364.113404pt" viewBox="0 0 540.683552 364.113404" xmlns="http://www.w3.org/2000/svg" version="1.1">
 <metadata>
  <rdf:RDF xmlns:dc="http://purl.org/dc/elements/1.1/" xmlns:cc="http://creativecommons.org/ns#" xmlns:rdf="http://www.w3.org/1999/02/22-rdf-syntax-ns#">
   <cc:Work>
    <dc:type rdf:resource="http://purl.org/dc/dcmitype/StillImage"/>
    <dc:date>2025-05-31T00:11:31.340475</dc:date>
    <dc:format>image/svg+xml</dc:format>
    <dc:creator>
     <cc:Agent>
      <dc:title>Matplotlib v3.10.3, https://matplotlib.org/</dc:title>
     </cc:Agent>
    </dc:creator>
   </cc:Work>
  </rdf:RDF>
 </metadata>
 <defs>
  <style type="text/css">*{stroke-linejoin: round; stroke-linecap: butt}</style>
 </defs>
 <g id="figure_1">
  <g id="patch_1">
   <path d="M 0 364.113404 
L 540.683552 364.113404 
L 540.683552 0 
L 0 0 
z
" style="fill: #ffffff"/>
  </g>
  <g id="axes_1">
   <g id="patch_2">
    <path d="M 10.091927 314.449375 
L 398.891927 314.449375 
L 398.891927 37.249375 
L 10.091927 37.249375 
z
" style="fill: #ffffff"/>
   </g>
   <g id="FillBetweenPolyCollection_1">
    <path d="M 27.764654 197.413266 
L 27.764654 228.633879 
L 31.007356 231.190898 
L 34.250058 233.552284 
L 37.492761 235.725934 
L 40.735463 237.719745 
L 43.978165 239.541613 
L 47.220867 241.199436 
L 50.46357 242.70111 
L 53.706272 244.054531 
L 56.948974 245.267598 
L 60.191676 246.348206 
L 63.434379 247.304253 
L 66.677081 248.143634 
L 69.919783 248.874248 
L 73.162485 249.503991 
L 76.405188 250.040759 
L 79.64789 250.49245 
L 82.890592 250.866961 
L 86.133294 251.172187 
L 89.375997 251.416027 
L 92.618699 251.606376 
L 95.861401 251.751132 
L 99.104103 251.858191 
L 102.346806 251.935163 
L 105.589508 251.989032 
L 108.83221 252.026691 
L 112.074912 252.055037 
L 115.317615 252.080966 
L 118.560317 252.111372 
L 121.803019 252.153152 
L 125.045721 252.213201 
L 128.288424 252.298414 
L 131.531126 252.415688 
L 134.773828 252.571855 
L 138.01653 252.768955 
L 141.259233 253.000899 
L 144.501935 253.260811 
L 147.744637 253.541817 
L 150.98734 253.837039 
L 154.230042 254.139603 
L 157.472744 254.442632 
L 160.715446 254.739252 
L 163.958149 255.022586 
L 167.200851 255.285759 
L 170.443553 255.522061 
L 173.686255 255.731269 
L 176.928958 255.921582 
L 180.17166 256.10176 
L 183.414362 256.280567 
L 186.657064 256.466764 
L 189.899767 256.669114 
L 193.142469 256.896378 
L 196.385171 257.157317 
L 199.627873 257.460696 
L 202.870576 257.815274 
L 206.113278 258.229487 
L 209.35598 258.704246 
L 212.598682 259.232937 
L 215.841385 259.808621 
L 219.084087 260.424356 
L 222.326789 261.073202 
L 225.569491 261.748219 
L 228.812194 262.442467 
L 232.054896 263.149005 
L 235.297598 263.860892 
L 238.5403 264.571189 
L 241.783003 265.272929 
L 245.025705 265.958779 
L 248.268407 266.621118 
L 251.511109 267.252319 
L 254.753812 267.844754 
L 257.996514 268.390797 
L 261.239216 268.88282 
L 264.481918 269.313196 
L 267.724621 269.674299 
L 270.967323 269.9585 
L 274.210025 270.158172 
L 277.452727 270.266991 
L 280.69543 270.29207 
L 283.938132 270.248452 
L 287.180834 270.151282 
L 290.423536 270.015705 
L 293.666239 269.856867 
L 296.908941 269.689913 
L 300.151643 269.529988 
L 303.394345 269.392237 
L 306.637048 269.291805 
L 309.87975 269.243838 
L 313.122452 269.262455 
L 316.365154 269.354189 
L 319.607857 269.522175 
L 322.850559 269.769532 
L 326.093261 270.099377 
L 329.335963 270.51483 
L 332.578666 271.019009 
L 335.821368 271.615033 
L 339.06407 272.30602 
L 342.306772 273.095087 
L 345.549475 273.985355 
L 348.792177 274.979941 
L 352.034879 276.081964 
L 355.277581 277.294542 
L 358.520284 278.620794 
L 361.762986 280.063838 
L 365.005688 281.626793 
L 368.24839 283.312777 
L 371.491093 285.124909 
L 374.733795 287.066307 
L 377.976497 289.140089 
L 381.219199 291.349375 
L 381.219199 258.15894 
L 381.219199 258.15894 
L 377.976497 252.371978 
L 374.733795 247.677553 
L 371.491093 243.993579 
L 368.24839 241.237971 
L 365.005688 239.328641 
L 361.762986 238.183503 
L 358.520284 237.72047 
L 355.277581 237.857457 
L 352.034879 238.512376 
L 348.792177 239.603141 
L 345.549475 241.047666 
L 342.306772 242.763863 
L 339.06407 244.669648 
L 335.821368 246.682933 
L 332.578666 248.721631 
L 329.335963 250.703657 
L 326.093261 252.546924 
L 322.850559 254.169345 
L 319.607857 255.488833 
L 316.365154 256.423304 
L 313.122452 256.890669 
L 309.87975 256.809072 
L 306.637048 256.145382 
L 303.394345 254.975177 
L 300.151643 253.388745 
L 296.908941 251.476377 
L 293.666239 249.328358 
L 290.423536 247.03498 
L 287.180834 244.686529 
L 283.938132 242.373294 
L 280.69543 240.185563 
L 277.452727 238.213626 
L 274.210025 236.547158 
L 270.967323 235.228478 
L 267.724621 234.219628 
L 264.481918 233.474875 
L 261.239216 232.948487 
L 257.996514 232.59473 
L 254.753812 232.367871 
L 251.511109 232.222177 
L 248.268407 232.111914 
L 245.025705 231.991351 
L 241.783003 231.814753 
L 238.5403 231.537073 
L 235.297598 231.139888 
L 232.054896 230.639368 
L 228.812194 230.053989 
L 225.569491 229.402233 
L 222.326789 228.702578 
L 219.084087 227.973503 
L 215.841385 227.233487 
L 212.598682 226.50101 
L 209.35598 225.79455 
L 206.113278 225.132587 
L 202.870576 224.533182 
L 199.627873 224.004798 
L 196.385171 223.546293 
L 193.142469 223.156113 
L 189.899767 222.8327 
L 186.657064 222.574497 
L 183.414362 222.379948 
L 180.17166 222.247497 
L 176.928958 222.175586 
L 173.686255 222.162659 
L 170.443553 222.207159 
L 167.200851 222.307039 
L 163.958149 222.452904 
L 160.715446 222.629703 
L 157.472744 222.82224 
L 154.230042 223.015319 
L 150.98734 223.193744 
L 147.744637 223.34232 
L 144.501935 223.445848 
L 141.259233 223.489135 
L 138.01653 223.456984 
L 134.773828 223.334198 
L 131.531126 223.107554 
L 128.288424 222.784202 
L 125.045721 222.383307 
L 121.803019 221.924191 
L 118.560317 221.426174 
L 115.317615 220.908579 
L 112.074912 220.390726 
L 108.83221 219.891938 
L 105.589508 219.431535 
L 102.346806 219.028839 
L 99.104103 218.703172 
L 95.861401 218.47026 
L 92.618699 218.319272 
L 89.375997 218.22747 
L 86.133294 218.17206 
L 82.890592 218.13025 
L 79.64789 218.079244 
L 76.405188 217.996251 
L 73.162485 217.858477 
L 69.919783 217.643128 
L 66.677081 217.32741 
L 63.434379 216.888531 
L 60.191676 216.303697 
L 56.948974 215.550115 
L 53.706272 214.60499 
L 50.46357 213.44553 
L 47.220867 212.048941 
L 43.978165 210.392429 
L 40.735463 208.453202 
L 37.492761 206.208466 
L 34.250058 203.635426 
L 31.007356 200.711291 
L 27.764654 197.413266 
z
" clip-path="url(#p58cfbc6ea3)" style="fill: #1f77b4"/>
   </g>
   <g id="FillBetweenPolyCollection_2">
    <path d="M 27.764654 163.733274 
L 27.764654 197.413266 
L 31.007356 200.711291 
L 34.250058 203.635426 
L 37.492761 206.208466 
L 40.735463 208.453202 
L 43.978165 210.392429 
L 47.220867 212.048941 
L 50.46357 213.44553 
L 53.706272 214.60499 
L 56.948974 215.550115 
L 60.191676 216.303697 
L 63.434379 216.888531 
L 66.677081 217.32741 
L 69.919783 217.643128 
L 73.162485 217.858477 
L 76.405188 217.996251 
L 79.64789 218.079244 
L 82.890592 218.13025 
L 86.133294 218.17206 
L 89.375997 218.22747 
L 92.618699 218.319272 
L 95.861401 218.47026 
L 99.104103 218.703172 
L 102.346806 219.028839 
L 105.589508 219.431535 
L 108.83221 219.891938 
L 112.074912 220.390726 
L 115.317615 220.908579 
L 118.560317 221.426174 
L 121.803019 221.924191 
L 125.045721 222.383307 
L 128.288424 222.784202 
L 131.531126 223.107554 
L 134.773828 223.334198 
L 138.01653 223.456984 
L 141.259233 223.489135 
L 144.501935 223.445848 
L 147.744637 223.34232 
L 150.98734 223.193744 
L 154.230042 223.015319 
L 157.472744 222.82224 
L 160.715446 222.629703 
L 163.958149 222.452904 
L 167.200851 222.307039 
L 170.443553 222.207159 
L 173.686255 222.162659 
L 176.928958 222.175586 
L 180.17166 222.247497 
L 183.414362 222.379948 
L 186.657064 222.574497 
L 189.899767 222.8327 
L 193.142469 223.156113 
L 196.385171 223.546293 
L 199.627873 224.004798 
L 202.870576 224.533182 
L 206.113278 225.132587 
L 209.35598 225.79455 
L 212.598682 226.50101 
L 215.841385 227.233487 
L 219.084087 227.973503 
L 222.326789 228.702578 
L 225.569491 229.402233 
L 228.812194 230.053989 
L 232.054896 230.639368 
L 235.297598 231.139888 
L 238.5403 231.537073 
L 241.783003 231.814753 
L 245.025705 231.991351 
L 248.268407 232.111914 
L 251.511109 232.222177 
L 254.753812 232.367871 
L 257.996514 232.59473 
L 261.239216 232.948487 
L 264.481918 233.474875 
L 267.724621 234.219628 
L 270.967323 235.228478 
L 274.210025 236.547158 
L 277.452727 238.213626 
L 280.69543 240.185563 
L 283.938132 242.373294 
L 287.180834 244.686529 
L 290.423536 247.03498 
L 293.666239 249.328358 
L 296.908941 251.476377 
L 300.151643 253.388745 
L 303.394345 254.975177 
L 306.637048 256.145382 
L 309.87975 256.809072 
L 313.122452 256.890669 
L 316.365154 256.423304 
L 319.607857 255.488833 
L 322.850559 254.169345 
L 326.093261 252.546924 
L 329.335963 250.703657 
L 332.578666 248.721631 
L 335.821368 246.682933 
L 339.06407 244.669648 
L 342.306772 242.763863 
L 345.549475 241.047666 
L 348.792177 239.603141 
L 352.034879 238.512376 
L 355.277581 237.857457 
L 358.520284 237.72047 
L 361.762986 238.183503 
L 365.005688 239.328641 
L 368.24839 241.237971 
L 371.491093 243.993579 
L 374.733795 247.677553 
L 377.976497 252.371978 
L 381.219199 258.15894 
L 381.219199 164.349708 
L 381.219199 164.349708 
L 377.976497 160.622311 
L 374.733795 157.735375 
L 371.491093 155.628153 
L 368.24839 154.239897 
L 365.005688 153.50986 
L 361.762986 153.377294 
L 358.520284 153.781453 
L 355.277581 154.661588 
L 352.034879 155.956953 
L 348.792177 157.606801 
L 345.549475 159.550384 
L 342.306772 161.726954 
L 339.06407 164.075765 
L 335.821368 166.536069 
L 332.578666 169.047119 
L 329.335963 171.548168 
L 326.093261 173.978468 
L 322.850559 176.277272 
L 319.607857 178.383833 
L 316.365154 180.237403 
L 313.122452 181.777235 
L 309.87975 182.942708 
L 306.637048 183.699884 
L 303.394345 184.07436 
L 300.151643 184.099789 
L 296.908941 183.809823 
L 293.666239 183.238116 
L 290.423536 182.41832 
L 287.180834 181.384088 
L 283.938132 180.169072 
L 280.69543 178.806925 
L 277.452727 177.3313 
L 274.210025 175.775908 
L 270.967323 174.178985 
L 267.724621 172.586432 
L 264.481918 171.044898 
L 261.239216 169.601028 
L 257.996514 168.301468 
L 254.753812 167.192864 
L 251.511109 166.321864 
L 248.268407 165.735113 
L 245.025705 165.479257 
L 241.783003 165.600943 
L 238.5403 166.145365 
L 235.297598 167.101256 
L 232.054896 168.384008 
L 228.812194 169.904108 
L 225.569491 171.572047 
L 222.326789 173.298312 
L 219.084087 174.993393 
L 215.841385 176.567778 
L 212.598682 177.931957 
L 209.35598 178.996418 
L 206.113278 179.671651 
L 202.870576 179.87179 
L 199.627873 179.594858 
L 196.385171 178.922762 
L 193.142469 177.941056 
L 189.899767 176.735293 
L 186.657064 175.391027 
L 183.414362 173.993813 
L 180.17166 172.629205 
L 176.928958 171.382756 
L 173.686255 170.340022 
L 170.443553 169.586555 
L 167.200851 169.202756 
L 163.958149 169.191917 
L 160.715446 169.497971 
L 157.472744 170.063324 
L 154.230042 170.830381 
L 150.98734 171.741549 
L 147.744637 172.739233 
L 144.501935 173.765839 
L 141.259233 174.763773 
L 138.01653 175.675441 
L 134.773828 176.443249 
L 131.531126 177.01383 
L 128.288424 177.37747 
L 125.045721 177.550203 
L 121.803019 177.548398 
L 118.560317 177.388424 
L 115.317615 177.086648 
L 112.074912 176.659439 
L 108.83221 176.123166 
L 105.589508 175.494196 
L 102.346806 174.788899 
L 99.104103 174.023641 
L 95.861401 173.214229 
L 92.618699 172.372296 
L 89.375997 171.50761 
L 86.133294 170.629928 
L 82.890592 169.749009 
L 79.64789 168.874609 
L 76.405188 168.016487 
L 73.162485 167.1844 
L 69.919783 166.388107 
L 66.677081 165.637364 
L 63.434379 164.941931 
L 60.191676 164.311564 
L 56.948974 163.756021 
L 53.706272 163.285061 
L 50.46357 162.908441 
L 47.220867 162.635918 
L 43.978165 162.477251 
L 40.735463 162.442198 
L 37.492761 162.540516 
L 34.250058 162.781963 
L 31.007356 163.176296 
L 27.764654 163.733274 
z
" clip-path="url(#p58cfbc6ea3)" style="fill: #aec7e8"/>
   </g>
   <g id="FillBetweenPolyCollection_3">
    <path d="M 27.764654 150.159018 
L 27.764654 163.733274 
L 31.007356 163.176296 
L 34.250058 162.781963 
L 37.492761 162.540516 
L 40.735463 162.442198 
L 43.978165 162.477251 
L 47.220867 162.635918 
L 50.46357 162.908441 
L 53.706272 163.285061 
L 56.948974 163.756021 
L 60.191676 164.311564 
L 63.434379 164.941931 
L 66.677081 165.637364 
L 69.919783 166.388107 
L 73.162485 167.1844 
L 76.405188 168.016487 
L 79.64789 168.874609 
L 82.890592 169.749009 
L 86.133294 170.629928 
L 89.375997 171.50761 
L 92.618699 172.372296 
L 95.861401 173.214229 
L 99.104103 174.023641 
L 102.346806 174.788899 
L 105.589508 175.494196 
L 108.83221 176.123166 
L 112.074912 176.659439 
L 115.317615 177.086648 
L 118.560317 177.388424 
L 121.803019 177.548398 
L 125.045721 177.550203 
L 128.288424 177.37747 
L 131.531126 177.01383 
L 134.773828 176.443249 
L 138.01653 175.675441 
L 141.259233 174.763773 
L 144.501935 173.765839 
L 147.744637 172.739233 
L 150.98734 171.741549 
L 154.230042 170.830381 
L 157.472744 170.063324 
L 160.715446 169.497971 
L 163.958149 169.191917 
L 167.200851 169.202756 
L 170.443553 169.586555 
L 173.686255 170.340022 
L 176.928958 171.382756 
L 180.17166 172.629205 
L 183.414362 173.993813 
L 186.657064 175.391027 
L 189.899767 176.735293 
L 193.142469 177.941056 
L 196.385171 178.922762 
L 199.627873 179.594858 
L 202.870576 179.87179 
L 206.113278 179.671651 
L 209.35598 178.996418 
L 212.598682 177.931957 
L 215.841385 176.567778 
L 219.084087 174.993393 
L 222.326789 173.298312 
L 225.569491 171.572047 
L 228.812194 169.904108 
L 232.054896 168.384008 
L 235.297598 167.101256 
L 238.5403 166.145365 
L 241.783003 165.600943 
L 245.025705 165.479257 
L 248.268407 165.735113 
L 251.511109 166.321864 
L 254.753812 167.192864 
L 257.996514 168.301468 
L 261.239216 169.601028 
L 264.481918 171.044898 
L 267.724621 172.586432 
L 270.967323 174.178985 
L 274.210025 175.775908 
L 277.452727 177.3313 
L 280.69543 178.806925 
L 283.938132 180.169072 
L 287.180834 181.384088 
L 290.423536 182.41832 
L 293.666239 183.238116 
L 296.908941 183.809823 
L 300.151643 184.099789 
L 303.394345 184.07436 
L 306.637048 183.699884 
L 309.87975 182.942708 
L 313.122452 181.777235 
L 316.365154 180.237403 
L 319.607857 178.383833 
L 322.850559 176.277272 
L 326.093261 173.978468 
L 329.335963 171.548168 
L 332.578666 169.047119 
L 335.821368 166.536069 
L 339.06407 164.075765 
L 342.306772 161.726954 
L 345.549475 159.550384 
L 348.792177 157.606801 
L 352.034879 155.956953 
L 355.277581 154.661588 
L 358.520284 153.781453 
L 361.762986 153.377294 
L 365.005688 153.50986 
L 368.24839 154.239897 
L 371.491093 155.628153 
L 374.733795 157.735375 
L 377.976497 160.622311 
L 381.219199 164.349708 
L 381.219199 98.632905 
L 381.219199 98.632905 
L 377.976497 98.306264 
L 374.733795 98.319242 
L 371.491093 98.639335 
L 368.24839 99.23404 
L 365.005688 100.070856 
L 361.762986 101.117279 
L 358.520284 102.340806 
L 355.277581 103.708936 
L 352.034879 105.189166 
L 348.792177 106.748992 
L 345.549475 108.355912 
L 342.306772 109.977424 
L 339.06407 111.581024 
L 335.821368 113.134211 
L 332.578666 114.604481 
L 329.335963 115.959333 
L 326.093261 117.166262 
L 322.850559 118.192767 
L 319.607857 119.006345 
L 316.365154 119.574493 
L 313.122452 119.864709 
L 309.87975 119.844596 
L 306.637048 119.504283 
L 303.394345 118.884155 
L 300.151643 118.031395 
L 296.908941 116.99319 
L 293.666239 115.816723 
L 290.423536 114.549179 
L 287.180834 113.237743 
L 283.938132 111.9296 
L 280.69543 110.671934 
L 277.452727 109.511931 
L 274.210025 108.49665 
L 270.967323 107.663551 
L 267.724621 107.033817 
L 264.481918 106.627055 
L 261.239216 106.462874 
L 257.996514 106.560879 
L 254.753812 106.940678 
L 251.511109 107.621879 
L 248.268407 108.624088 
L 245.025705 109.966912 
L 241.783003 111.669959 
L 238.5403 113.751681 
L 235.297598 116.185605 
L 232.054896 118.886906 
L 228.812194 121.766854 
L 225.569491 124.736722 
L 222.326789 127.707783 
L 219.084087 130.591309 
L 215.841385 133.298573 
L 212.598682 135.740846 
L 209.35598 137.829401 
L 206.113278 139.475511 
L 202.870576 140.593587 
L 199.627873 141.170241 
L 196.385171 141.264283 
L 193.142469 140.937665 
L 189.899767 140.252337 
L 186.657064 139.27025 
L 183.414362 138.053353 
L 180.17166 136.663598 
L 176.928958 135.162935 
L 173.686255 133.613314 
L 170.443553 132.076687 
L 167.200851 130.613398 
L 163.958149 129.259768 
L 160.715446 128.033627 
L 157.472744 126.952325 
L 154.230042 126.033217 
L 150.98734 125.293654 
L 147.744637 124.750989 
L 144.501935 124.422575 
L 141.259233 124.325764 
L 138.01653 124.477909 
L 134.773828 124.896361 
L 131.531126 125.594737 
L 128.288424 126.548057 
L 125.045721 127.708577 
L 121.803019 129.028259 
L 118.560317 130.459064 
L 115.317615 131.952953 
L 112.074912 133.461886 
L 108.83221 134.937825 
L 105.589508 136.332732 
L 102.346806 137.598566 
L 99.104103 138.68729 
L 95.861401 139.557267 
L 92.618699 140.214183 
L 89.375997 140.684929 
L 86.133294 140.996502 
L 82.890592 141.175894 
L 79.64789 141.250099 
L 76.405188 141.246112 
L 73.162485 141.190925 
L 69.919783 141.111534 
L 66.677081 141.034932 
L 63.434379 140.988113 
L 60.191676 140.99807 
L 56.948974 141.091798 
L 53.706272 141.29629 
L 50.46357 141.638541 
L 47.220867 142.145544 
L 43.978165 142.844293 
L 40.735463 143.761783 
L 37.492761 144.925006 
L 34.250058 146.360957 
L 31.007356 148.09663 
L 27.764654 150.159018 
z
" clip-path="url(#p58cfbc6ea3)" style="fill: #ff7f0e"/>
   </g>
   <g id="FillBetweenPolyCollection_4">
    <path d="M 27.764654 123.064871 
L 27.764654 150.159018 
L 31.007356 148.09663 
L 34.250058 146.360957 
L 37.492761 144.925006 
L 40.735463 143.761783 
L 43.978165 142.844293 
L 47.220867 142.145544 
L 50.46357 141.638541 
L 53.706272 141.29629 
L 56.948974 141.091798 
L 60.191676 140.99807 
L 63.434379 140.988113 
L 66.677081 141.034932 
L 69.919783 141.111534 
L 73.162485 141.190925 
L 76.405188 141.246112 
L 79.64789 141.250099 
L 82.890592 141.175894 
L 86.133294 140.996502 
L 89.375997 140.684929 
L 92.618699 140.214183 
L 95.861401 139.557267 
L 99.104103 138.68729 
L 102.346806 137.598566 
L 105.589508 136.332732 
L 108.83221 134.937825 
L 112.074912 133.461886 
L 115.317615 131.952953 
L 118.560317 130.459064 
L 121.803019 129.028259 
L 125.045721 127.708577 
L 128.288424 126.548057 
L 131.531126 125.594737 
L 134.773828 124.896361 
L 138.01653 124.477909 
L 141.259233 124.325764 
L 144.501935 124.422575 
L 147.744637 124.750989 
L 150.98734 125.293654 
L 154.230042 126.033217 
L 157.472744 126.952325 
L 160.715446 128.033627 
L 163.958149 129.259768 
L 167.200851 130.613398 
L 170.443553 132.076687 
L 173.686255 133.613314 
L 176.928958 135.162935 
L 180.17166 136.663598 
L 183.414362 138.053353 
L 186.657064 139.27025 
L 189.899767 140.252337 
L 193.142469 140.937665 
L 196.385171 141.264283 
L 199.627873 141.170241 
L 202.870576 140.593587 
L 206.113278 139.475511 
L 209.35598 137.829401 
L 212.598682 135.740846 
L 215.841385 133.298573 
L 219.084087 130.591309 
L 222.326789 127.707783 
L 225.569491 124.736722 
L 228.812194 121.766854 
L 232.054896 118.886906 
L 235.297598 116.185605 
L 238.5403 113.751681 
L 241.783003 111.669959 
L 245.025705 109.966912 
L 248.268407 108.624088 
L 251.511109 107.621879 
L 254.753812 106.940678 
L 257.996514 106.560879 
L 261.239216 106.462874 
L 264.481918 106.627055 
L 267.724621 107.033817 
L 270.967323 107.663551 
L 274.210025 108.49665 
L 277.452727 109.511931 
L 280.69543 110.671934 
L 283.938132 111.9296 
L 287.180834 113.237743 
L 290.423536 114.549179 
L 293.666239 115.816723 
L 296.908941 116.99319 
L 300.151643 118.031395 
L 303.394345 118.884155 
L 306.637048 119.504283 
L 309.87975 119.844596 
L 313.122452 119.864709 
L 316.365154 119.574493 
L 319.607857 119.006345 
L 322.850559 118.192767 
L 326.093261 117.166262 
L 329.335963 115.959333 
L 332.578666 114.604481 
L 335.821368 113.134211 
L 339.06407 111.581024 
L 342.306772 109.977424 
L 345.549475 108.355912 
L 348.792177 106.748992 
L 352.034879 105.189166 
L 355.277581 103.708936 
L 358.520284 102.340806 
L 361.762986 101.117279 
L 365.005688 100.070856 
L 368.24839 99.23404 
L 371.491093 98.639335 
L 374.733795 98.319242 
L 377.976497 98.306264 
L 381.219199 98.632905 
L 381.219199 60.349375 
L 381.219199 60.349375 
L 377.976497 62.558661 
L 374.733795 64.632443 
L 371.491093 66.573841 
L 368.24839 68.385973 
L 365.005688 70.071957 
L 361.762986 71.634912 
L 358.520284 73.077956 
L 355.277581 74.404208 
L 352.034879 75.616786 
L 348.792177 76.718809 
L 345.549475 77.713395 
L 342.306772 78.603663 
L 339.06407 79.39273 
L 335.821368 80.083717 
L 332.578666 80.679741 
L 329.335963 81.18392 
L 326.093261 81.599373 
L 322.850559 81.929218 
L 319.607857 82.176575 
L 316.365154 82.344561 
L 313.122452 82.436295 
L 309.87975 82.454912 
L 306.637048 82.406945 
L 303.394345 82.306513 
L 300.151643 82.168762 
L 296.908941 82.008837 
L 293.666239 81.841883 
L 290.423536 81.683045 
L 287.180834 81.547468 
L 283.938132 81.450298 
L 280.69543 81.40668 
L 277.452727 81.431759 
L 274.210025 81.540578 
L 270.967323 81.74025 
L 267.724621 82.024451 
L 264.481918 82.385554 
L 261.239216 82.81593 
L 257.996514 83.307953 
L 254.753812 83.853996 
L 251.511109 84.446431 
L 248.268407 85.077632 
L 245.025705 85.739971 
L 241.783003 86.425821 
L 238.5403 87.127561 
L 235.297598 87.837858 
L 232.054896 88.549745 
L 228.812194 89.256283 
L 225.569491 89.950531 
L 222.326789 90.625548 
L 219.084087 91.274394 
L 215.841385 91.890129 
L 212.598682 92.465813 
L 209.35598 92.994504 
L 206.113278 93.469263 
L 202.870576 93.883476 
L 199.627873 94.238054 
L 196.385171 94.541433 
L 193.142469 94.802372 
L 189.899767 95.029636 
L 186.657064 95.231986 
L 183.414362 95.418183 
L 180.17166 95.59699 
L 176.928958 95.777168 
L 173.686255 95.967481 
L 170.443553 96.176689 
L 167.200851 96.412991 
L 163.958149 96.676164 
L 160.715446 96.959498 
L 157.472744 97.256118 
L 154.230042 97.559147 
L 150.98734 97.861711 
L 147.744637 98.156933 
L 144.501935 98.437939 
L 141.259233 98.697851 
L 138.01653 98.929795 
L 134.773828 99.126895 
L 131.531126 99.283062 
L 128.288424 99.400336 
L 125.045721 99.485549 
L 121.803019 99.545598 
L 118.560317 99.587378 
L 115.317615 99.617784 
L 112.074912 99.643713 
L 108.83221 99.672059 
L 105.589508 99.709718 
L 102.346806 99.763587 
L 99.104103 99.840559 
L 95.861401 99.947618 
L 92.618699 100.092374 
L 89.375997 100.282723 
L 86.133294 100.526563 
L 82.890592 100.831789 
L 79.64789 101.2063 
L 76.405188 101.657991 
L 73.162485 102.194759 
L 69.919783 102.824502 
L 66.677081 103.555116 
L 63.434379 104.394497 
L 60.191676 105.350544 
L 56.948974 106.431152 
L 53.706272 107.644219 
L 50.46357 108.99764 
L 47.220867 110.499314 
L 43.978165 112.157137 
L 40.735463 113.979005 
L 37.492761 115.972816 
L 34.250058 118.146466 
L 31.007356 120.507852 
L 27.764654 123.064871 
z
" clip-path="url(#p58cfbc6ea3)" style="fill: #ffbb78"/>
   </g>
   <g id="matplotlib.axis_1">
    <g id="xtick_1">
     <g id="line2d_1">
      <defs>
       <path id="m120fbb5c21" d="M 0 0 
L 0 3.5 
" style="stroke: #000000; stroke-width: 0.8"/>
      </defs>
      <g>
       <use xlink:href="#m120fbb5c21" x="27.764654" y="314.449375" style="stroke: #000000; stroke-width: 0.8"/>
      </g>
     </g>
     <g id="text_1">
      <!-- 1963 -->
      <g transform="translate(12.109973 340.501483) rotate(-45) scale(0.1 -0.1)">
       <defs>
        <path id="TimesNewRomanPSMT-31" d="M 750 3822 
L 1781 4325 
L 1884 4325 
L 1884 747 
Q 1884 391 1914 303 
Q 1944 216 2037 169 
Q 2131 122 2419 116 
L 2419 0 
L 825 0 
L 825 116 
Q 1125 122 1212 167 
Q 1300 213 1334 289 
Q 1369 366 1369 747 
L 1369 3034 
Q 1369 3497 1338 3628 
Q 1316 3728 1258 3775 
Q 1200 3822 1119 3822 
Q 1003 3822 797 3725 
L 750 3822 
z
" transform="scale(0.015625)"/>
        <path id="TimesNewRomanPSMT-39" d="M 338 -88 
L 338 28 
Q 744 34 1094 217 
Q 1444 400 1770 856 
Q 2097 1313 2225 1859 
Q 1734 1544 1338 1544 
Q 891 1544 572 1889 
Q 253 2234 253 2806 
Q 253 3363 572 3797 
Q 956 4325 1575 4325 
Q 2097 4325 2469 3894 
Q 2925 3359 2925 2575 
Q 2925 1869 2578 1258 
Q 2231 647 1613 244 
Q 1109 -88 516 -88 
L 338 -88 
z
M 2275 2091 
Q 2331 2497 2331 2741 
Q 2331 3044 2228 3395 
Q 2125 3747 1936 3934 
Q 1747 4122 1506 4122 
Q 1228 4122 1018 3872 
Q 809 3622 809 3128 
Q 809 2469 1088 2097 
Q 1291 1828 1588 1828 
Q 1731 1828 1928 1897 
Q 2125 1966 2275 2091 
z
" transform="scale(0.015625)"/>
        <path id="TimesNewRomanPSMT-36" d="M 2869 4325 
L 2869 4209 
Q 2456 4169 2195 4045 
Q 1934 3922 1679 3669 
Q 1425 3416 1258 3105 
Q 1091 2794 978 2366 
Q 1428 2675 1881 2675 
Q 2316 2675 2634 2325 
Q 2953 1975 2953 1425 
Q 2953 894 2631 456 
Q 2244 -75 1606 -75 
Q 1172 -75 869 213 
Q 275 772 275 1663 
Q 275 2231 503 2743 
Q 731 3256 1154 3653 
Q 1578 4050 1965 4187 
Q 2353 4325 2688 4325 
L 2869 4325 
z
M 925 2138 
Q 869 1716 869 1456 
Q 869 1156 980 804 
Q 1091 453 1309 247 
Q 1469 100 1697 100 
Q 1969 100 2183 356 
Q 2397 613 2397 1088 
Q 2397 1622 2184 2012 
Q 1972 2403 1581 2403 
Q 1463 2403 1327 2353 
Q 1191 2303 925 2138 
z
" transform="scale(0.015625)"/>
        <path id="TimesNewRomanPSMT-33" d="M 325 3431 
Q 506 3859 782 4092 
Q 1059 4325 1472 4325 
Q 1981 4325 2253 3994 
Q 2459 3747 2459 3466 
Q 2459 3003 1878 2509 
Q 2269 2356 2469 2072 
Q 2669 1788 2669 1403 
Q 2669 853 2319 450 
Q 1863 -75 997 -75 
Q 569 -75 414 31 
Q 259 138 259 259 
Q 259 350 332 419 
Q 406 488 509 488 
Q 588 488 669 463 
Q 722 447 909 348 
Q 1097 250 1169 231 
Q 1284 197 1416 197 
Q 1734 197 1970 444 
Q 2206 691 2206 1028 
Q 2206 1275 2097 1509 
Q 2016 1684 1919 1775 
Q 1784 1900 1550 2001 
Q 1316 2103 1072 2103 
L 972 2103 
L 972 2197 
Q 1219 2228 1467 2375 
Q 1716 2522 1828 2728 
Q 1941 2934 1941 3181 
Q 1941 3503 1739 3701 
Q 1538 3900 1238 3900 
Q 753 3900 428 3381 
L 325 3431 
z
" transform="scale(0.015625)"/>
       </defs>
       <use xlink:href="#TimesNewRomanPSMT-31"/>
       <use xlink:href="#TimesNewRomanPSMT-39" transform="translate(50 0)"/>
       <use xlink:href="#TimesNewRomanPSMT-36" transform="translate(100 0)"/>
       <use xlink:href="#TimesNewRomanPSMT-33" transform="translate(150 0)"/>
      </g>
     </g>
    </g>
    <g id="xtick_2">
     <g id="line2d_2">
      <g>
       <use xlink:href="#m120fbb5c21" x="63.110108" y="314.449375" style="stroke: #000000; stroke-width: 0.8"/>
      </g>
     </g>
     <g id="text_2">
      <!-- 1964 -->
      <g transform="translate(47.455427 340.501483) rotate(-45) scale(0.1 -0.1)">
       <defs>
        <path id="TimesNewRomanPSMT-34" d="M 2978 1563 
L 2978 1119 
L 2409 1119 
L 2409 0 
L 1894 0 
L 1894 1119 
L 100 1119 
L 100 1519 
L 2066 4325 
L 2409 4325 
L 2409 1563 
L 2978 1563 
z
M 1894 1563 
L 1894 3666 
L 406 1563 
L 1894 1563 
z
" transform="scale(0.015625)"/>
       </defs>
       <use xlink:href="#TimesNewRomanPSMT-31"/>
       <use xlink:href="#TimesNewRomanPSMT-39" transform="translate(50 0)"/>
       <use xlink:href="#TimesNewRomanPSMT-36" transform="translate(100 0)"/>
       <use xlink:href="#TimesNewRomanPSMT-34" transform="translate(150 0)"/>
      </g>
     </g>
    </g>
    <g id="xtick_3">
     <g id="line2d_3">
      <g>
       <use xlink:href="#m120fbb5c21" x="98.455563" y="314.449375" style="stroke: #000000; stroke-width: 0.8"/>
      </g>
     </g>
     <g id="text_3">
      <!-- 1965 -->
      <g transform="translate(82.800882 340.501483) rotate(-45) scale(0.1 -0.1)">
       <defs>
        <path id="TimesNewRomanPSMT-35" d="M 2778 4238 
L 2534 3706 
L 1259 3706 
L 981 3138 
Q 1809 3016 2294 2522 
Q 2709 2097 2709 1522 
Q 2709 1188 2573 903 
Q 2438 619 2231 419 
Q 2025 219 1772 97 
Q 1413 -75 1034 -75 
Q 653 -75 479 54 
Q 306 184 306 341 
Q 306 428 378 495 
Q 450 563 559 563 
Q 641 563 702 538 
Q 763 513 909 409 
Q 1144 247 1384 247 
Q 1750 247 2026 523 
Q 2303 800 2303 1197 
Q 2303 1581 2056 1914 
Q 1809 2247 1375 2428 
Q 1034 2569 447 2591 
L 1259 4238 
L 2778 4238 
z
" transform="scale(0.015625)"/>
       </defs>
       <use xlink:href="#TimesNewRomanPSMT-31"/>
       <use xlink:href="#TimesNewRomanPSMT-39" transform="translate(50 0)"/>
       <use xlink:href="#TimesNewRomanPSMT-36" transform="translate(100 0)"/>
       <use xlink:href="#TimesNewRomanPSMT-35" transform="translate(150 0)"/>
      </g>
     </g>
    </g>
    <g id="xtick_4">
     <g id="line2d_4">
      <g>
       <use xlink:href="#m120fbb5c21" x="133.801018" y="314.449375" style="stroke: #000000; stroke-width: 0.8"/>
      </g>
     </g>
     <g id="text_4">
      <!-- 1966 -->
      <g transform="translate(118.146336 340.501483) rotate(-45) scale(0.1 -0.1)">
       <use xlink:href="#TimesNewRomanPSMT-31"/>
       <use xlink:href="#TimesNewRomanPSMT-39" transform="translate(50 0)"/>
       <use xlink:href="#TimesNewRomanPSMT-36" transform="translate(100 0)"/>
       <use xlink:href="#TimesNewRomanPSMT-36" transform="translate(150 0)"/>
      </g>
     </g>
    </g>
    <g id="xtick_5">
     <g id="line2d_5">
      <g>
       <use xlink:href="#m120fbb5c21" x="169.146472" y="314.449375" style="stroke: #000000; stroke-width: 0.8"/>
      </g>
     </g>
     <g id="text_5">
      <!-- 1967 -->
      <g transform="translate(153.491791 340.501483) rotate(-45) scale(0.1 -0.1)">
       <defs>
        <path id="TimesNewRomanPSMT-37" d="M 644 4238 
L 2916 4238 
L 2916 4119 
L 1503 -88 
L 1153 -88 
L 2419 3728 
L 1253 3728 
Q 900 3728 750 3644 
Q 488 3500 328 3200 
L 238 3234 
L 644 4238 
z
" transform="scale(0.015625)"/>
       </defs>
       <use xlink:href="#TimesNewRomanPSMT-31"/>
       <use xlink:href="#TimesNewRomanPSMT-39" transform="translate(50 0)"/>
       <use xlink:href="#TimesNewRomanPSMT-36" transform="translate(100 0)"/>
       <use xlink:href="#TimesNewRomanPSMT-37" transform="translate(150 0)"/>
      </g>
     </g>
    </g>
    <g id="xtick_6">
     <g id="line2d_6">
      <g>
       <use xlink:href="#m120fbb5c21" x="204.491927" y="314.449375" style="stroke: #000000; stroke-width: 0.8"/>
      </g>
     </g>
     <g id="text_6">
      <!-- 1968 -->
      <g transform="translate(188.837245 340.501483) rotate(-45) scale(0.1 -0.1)">
       <defs>
        <path id="TimesNewRomanPSMT-38" d="M 1228 2134 
Q 725 2547 579 2797 
Q 434 3047 434 3316 
Q 434 3728 753 4026 
Q 1072 4325 1600 4325 
Q 2113 4325 2425 4047 
Q 2738 3769 2738 3413 
Q 2738 3175 2569 2928 
Q 2400 2681 1866 2347 
Q 2416 1922 2594 1678 
Q 2831 1359 2831 1006 
Q 2831 559 2490 242 
Q 2150 -75 1597 -75 
Q 994 -75 656 303 
Q 388 606 388 966 
Q 388 1247 577 1523 
Q 766 1800 1228 2134 
z
M 1719 2469 
Q 2094 2806 2194 3001 
Q 2294 3197 2294 3444 
Q 2294 3772 2109 3958 
Q 1925 4144 1606 4144 
Q 1288 4144 1088 3959 
Q 888 3775 888 3528 
Q 888 3366 970 3203 
Q 1053 3041 1206 2894 
L 1719 2469 
z
M 1375 2016 
Q 1116 1797 991 1539 
Q 866 1281 866 981 
Q 866 578 1086 336 
Q 1306 94 1647 94 
Q 1984 94 2187 284 
Q 2391 475 2391 747 
Q 2391 972 2272 1150 
Q 2050 1481 1375 2016 
z
" transform="scale(0.015625)"/>
       </defs>
       <use xlink:href="#TimesNewRomanPSMT-31"/>
       <use xlink:href="#TimesNewRomanPSMT-39" transform="translate(50 0)"/>
       <use xlink:href="#TimesNewRomanPSMT-36" transform="translate(100 0)"/>
       <use xlink:href="#TimesNewRomanPSMT-38" transform="translate(150 0)"/>
      </g>
     </g>
    </g>
    <g id="xtick_7">
     <g id="line2d_7">
      <g>
       <use xlink:href="#m120fbb5c21" x="239.837381" y="314.449375" style="stroke: #000000; stroke-width: 0.8"/>
      </g>
     </g>
     <g id="text_7">
      <!-- 1969 -->
      <g transform="translate(224.1827 340.501483) rotate(-45) scale(0.1 -0.1)">
       <use xlink:href="#TimesNewRomanPSMT-31"/>
       <use xlink:href="#TimesNewRomanPSMT-39" transform="translate(50 0)"/>
       <use xlink:href="#TimesNewRomanPSMT-36" transform="translate(100 0)"/>
       <use xlink:href="#TimesNewRomanPSMT-39" transform="translate(150 0)"/>
      </g>
     </g>
    </g>
    <g id="xtick_8">
     <g id="line2d_8">
      <g>
       <use xlink:href="#m120fbb5c21" x="275.182836" y="314.449375" style="stroke: #000000; stroke-width: 0.8"/>
      </g>
     </g>
     <g id="text_8">
      <!-- 1970 -->
      <g transform="translate(259.528155 340.501483) rotate(-45) scale(0.1 -0.1)">
       <defs>
        <path id="TimesNewRomanPSMT-30" d="M 231 2094 
Q 231 2819 450 3342 
Q 669 3866 1031 4122 
Q 1313 4325 1613 4325 
Q 2100 4325 2488 3828 
Q 2972 3213 2972 2159 
Q 2972 1422 2759 906 
Q 2547 391 2217 158 
Q 1888 -75 1581 -75 
Q 975 -75 572 641 
Q 231 1244 231 2094 
z
M 844 2016 
Q 844 1141 1059 588 
Q 1238 122 1591 122 
Q 1759 122 1940 273 
Q 2122 425 2216 781 
Q 2359 1319 2359 2297 
Q 2359 3022 2209 3506 
Q 2097 3866 1919 4016 
Q 1791 4119 1609 4119 
Q 1397 4119 1231 3928 
Q 1006 3669 925 3112 
Q 844 2556 844 2016 
z
" transform="scale(0.015625)"/>
       </defs>
       <use xlink:href="#TimesNewRomanPSMT-31"/>
       <use xlink:href="#TimesNewRomanPSMT-39" transform="translate(50 0)"/>
       <use xlink:href="#TimesNewRomanPSMT-37" transform="translate(100 0)"/>
       <use xlink:href="#TimesNewRomanPSMT-30" transform="translate(150 0)"/>
      </g>
     </g>
    </g>
    <g id="xtick_9">
     <g id="line2d_9">
      <g>
       <use xlink:href="#m120fbb5c21" x="310.52829" y="314.449375" style="stroke: #000000; stroke-width: 0.8"/>
      </g>
     </g>
     <g id="text_9">
      <!-- 1971 -->
      <g transform="translate(294.873609 340.501483) rotate(-45) scale(0.1 -0.1)">
       <use xlink:href="#TimesNewRomanPSMT-31"/>
       <use xlink:href="#TimesNewRomanPSMT-39" transform="translate(50 0)"/>
       <use xlink:href="#TimesNewRomanPSMT-37" transform="translate(100 0)"/>
       <use xlink:href="#TimesNewRomanPSMT-31" transform="translate(150 0)"/>
      </g>
     </g>
    </g>
    <g id="xtick_10">
     <g id="line2d_10">
      <g>
       <use xlink:href="#m120fbb5c21" x="345.873745" y="314.449375" style="stroke: #000000; stroke-width: 0.8"/>
      </g>
     </g>
     <g id="text_10">
      <!-- 1972 -->
      <g transform="translate(330.219064 340.501483) rotate(-45) scale(0.1 -0.1)">
       <defs>
        <path id="TimesNewRomanPSMT-32" d="M 2934 816 
L 2638 0 
L 138 0 
L 138 116 
Q 1241 1122 1691 1759 
Q 2141 2397 2141 2925 
Q 2141 3328 1894 3587 
Q 1647 3847 1303 3847 
Q 991 3847 742 3664 
Q 494 3481 375 3128 
L 259 3128 
Q 338 3706 661 4015 
Q 984 4325 1469 4325 
Q 1984 4325 2329 3994 
Q 2675 3663 2675 3213 
Q 2675 2891 2525 2569 
Q 2294 2063 1775 1497 
Q 997 647 803 472 
L 1909 472 
Q 2247 472 2383 497 
Q 2519 522 2628 598 
Q 2738 675 2819 816 
L 2934 816 
z
" transform="scale(0.015625)"/>
       </defs>
       <use xlink:href="#TimesNewRomanPSMT-31"/>
       <use xlink:href="#TimesNewRomanPSMT-39" transform="translate(50 0)"/>
       <use xlink:href="#TimesNewRomanPSMT-37" transform="translate(100 0)"/>
       <use xlink:href="#TimesNewRomanPSMT-32" transform="translate(150 0)"/>
      </g>
     </g>
    </g>
    <g id="xtick_11">
     <g id="line2d_11">
      <g>
       <use xlink:href="#m120fbb5c21" x="381.219199" y="314.449375" style="stroke: #000000; stroke-width: 0.8"/>
      </g>
     </g>
     <g id="text_11">
      <!-- 1973 -->
      <g transform="translate(365.564518 340.501483) rotate(-45) scale(0.1 -0.1)">
       <use xlink:href="#TimesNewRomanPSMT-31"/>
       <use xlink:href="#TimesNewRomanPSMT-39" transform="translate(50 0)"/>
       <use xlink:href="#TimesNewRomanPSMT-37" transform="translate(100 0)"/>
       <use xlink:href="#TimesNewRomanPSMT-33" transform="translate(150 0)"/>
      </g>
     </g>
    </g>
    <g id="text_12">
     <!-- Year -->
     <g transform="translate(193.434114 354.346529) scale(0.12 -0.12)">
      <defs>
       <path id="TimesNewRomanPSMT-59" d="M 3050 4238 
L 4528 4238 
L 4528 4122 
L 4447 4122 
Q 4366 4122 4209 4050 
Q 4053 3978 3925 3843 
Q 3797 3709 3609 3406 
L 2588 1797 
L 2588 734 
Q 2588 344 2675 247 
Q 2794 116 3050 116 
L 3188 116 
L 3188 0 
L 1388 0 
L 1388 116 
L 1538 116 
Q 1806 116 1919 278 
Q 1988 378 1988 734 
L 1988 1738 
L 825 3513 
Q 619 3825 545 3903 
Q 472 3981 241 4091 
Q 178 4122 59 4122 
L 59 4238 
L 1872 4238 
L 1872 4122 
L 1778 4122 
Q 1631 4122 1507 4053 
Q 1384 3984 1384 3847 
Q 1384 3734 1575 3441 
L 2459 2075 
L 3291 3381 
Q 3478 3675 3478 3819 
Q 3478 3906 3433 3975 
Q 3388 4044 3303 4083 
Q 3219 4122 3050 4122 
L 3050 4238 
z
" transform="scale(0.015625)"/>
       <path id="TimesNewRomanPSMT-65" d="M 681 1784 
Q 678 1147 991 784 
Q 1303 422 1725 422 
Q 2006 422 2214 576 
Q 2422 731 2563 1106 
L 2659 1044 
Q 2594 616 2278 264 
Q 1963 -88 1488 -88 
Q 972 -88 605 314 
Q 238 716 238 1394 
Q 238 2128 614 2539 
Q 991 2950 1559 2950 
Q 2041 2950 2350 2633 
Q 2659 2316 2659 1784 
L 681 1784 
z
M 681 1966 
L 2006 1966 
Q 1991 2241 1941 2353 
Q 1863 2528 1708 2628 
Q 1553 2728 1384 2728 
Q 1125 2728 920 2526 
Q 716 2325 681 1966 
z
" transform="scale(0.015625)"/>
       <path id="TimesNewRomanPSMT-61" d="M 1822 413 
Q 1381 72 1269 19 
Q 1100 -59 909 -59 
Q 613 -59 420 144 
Q 228 347 228 678 
Q 228 888 322 1041 
Q 450 1253 767 1440 
Q 1084 1628 1822 1897 
L 1822 2009 
Q 1822 2438 1686 2597 
Q 1550 2756 1291 2756 
Q 1094 2756 978 2650 
Q 859 2544 859 2406 
L 866 2225 
Q 866 2081 792 2003 
Q 719 1925 600 1925 
Q 484 1925 411 2006 
Q 338 2088 338 2228 
Q 338 2497 613 2722 
Q 888 2947 1384 2947 
Q 1766 2947 2009 2819 
Q 2194 2722 2281 2516 
Q 2338 2381 2338 1966 
L 2338 994 
Q 2338 584 2353 492 
Q 2369 400 2405 369 
Q 2441 338 2488 338 
Q 2538 338 2575 359 
Q 2641 400 2828 588 
L 2828 413 
Q 2478 -56 2159 -56 
Q 2006 -56 1915 50 
Q 1825 156 1822 413 
z
M 1822 616 
L 1822 1706 
Q 1350 1519 1213 1441 
Q 966 1303 859 1153 
Q 753 1003 753 825 
Q 753 600 887 451 
Q 1022 303 1197 303 
Q 1434 303 1822 616 
z
" transform="scale(0.015625)"/>
       <path id="TimesNewRomanPSMT-72" d="M 1038 2947 
L 1038 2303 
Q 1397 2947 1775 2947 
Q 1947 2947 2059 2842 
Q 2172 2738 2172 2600 
Q 2172 2478 2090 2393 
Q 2009 2309 1897 2309 
Q 1788 2309 1652 2417 
Q 1516 2525 1450 2525 
Q 1394 2525 1328 2463 
Q 1188 2334 1038 2041 
L 1038 669 
Q 1038 431 1097 309 
Q 1138 225 1241 169 
Q 1344 113 1538 113 
L 1538 0 
L 72 0 
L 72 113 
Q 291 113 397 181 
Q 475 231 506 341 
Q 522 394 522 644 
L 522 1753 
Q 522 2253 501 2348 
Q 481 2444 426 2487 
Q 372 2531 291 2531 
Q 194 2531 72 2484 
L 41 2597 
L 906 2947 
L 1038 2947 
z
" transform="scale(0.015625)"/>
      </defs>
      <use xlink:href="#TimesNewRomanPSMT-59"/>
      <use xlink:href="#TimesNewRomanPSMT-65" transform="translate(62.216797 0)"/>
      <use xlink:href="#TimesNewRomanPSMT-61" transform="translate(106.601562 0)"/>
      <use xlink:href="#TimesNewRomanPSMT-72" transform="translate(150.986328 0)"/>
     </g>
    </g>
   </g>
   <g id="patch_3">
    <path d="M 10.091927 314.449375 
L 10.091927 37.249375 
" style="fill: none; stroke: #000000; stroke-width: 0.8; stroke-linejoin: miter; stroke-linecap: square"/>
   </g>
   <g id="patch_4">
    <path d="M 398.891927 314.449375 
L 398.891927 37.249375 
" style="fill: none; stroke: #000000; stroke-width: 0.8; stroke-linejoin: miter; stroke-linecap: square"/>
   </g>
   <g id="patch_5">
    <path d="M 10.091927 314.449375 
L 398.891927 314.449375 
" style="fill: none; stroke: #000000; stroke-width: 0.8; stroke-linejoin: miter; stroke-linecap: square"/>
   </g>
   <g id="patch_6">
    <path d="M 10.091927 37.249375 
L 398.891927 37.249375 
" style="fill: none; stroke: #000000; stroke-width: 0.8; stroke-linejoin: miter; stroke-linecap: square"/>
   </g>
   <g id="text_13">
    <!-- Sponsorship Revenue from 1963 to 1973 ($)  -->
    <g transform="translate(77.920989 17.249375) scale(0.14 -0.14)">
     <defs>
      <path id="TimesNewRomanPSMT-53" d="M 2934 4334 
L 2934 2869 
L 2819 2869 
Q 2763 3291 2617 3541 
Q 2472 3791 2203 3937 
Q 1934 4084 1647 4084 
Q 1322 4084 1109 3886 
Q 897 3688 897 3434 
Q 897 3241 1031 3081 
Q 1225 2847 1953 2456 
Q 2547 2138 2764 1967 
Q 2981 1797 3098 1565 
Q 3216 1334 3216 1081 
Q 3216 600 2842 251 
Q 2469 -97 1881 -97 
Q 1697 -97 1534 -69 
Q 1438 -53 1133 45 
Q 828 144 747 144 
Q 669 144 623 97 
Q 578 50 556 -97 
L 441 -97 
L 441 1356 
L 556 1356 
Q 638 900 775 673 
Q 913 447 1195 297 
Q 1478 147 1816 147 
Q 2206 147 2432 353 
Q 2659 559 2659 841 
Q 2659 997 2573 1156 
Q 2488 1316 2306 1453 
Q 2184 1547 1640 1851 
Q 1097 2156 867 2337 
Q 638 2519 519 2737 
Q 400 2956 400 3219 
Q 400 3675 750 4004 
Q 1100 4334 1641 4334 
Q 1978 4334 2356 4169 
Q 2531 4091 2603 4091 
Q 2684 4091 2736 4139 
Q 2788 4188 2819 4334 
L 2934 4334 
z
" transform="scale(0.015625)"/>
      <path id="TimesNewRomanPSMT-70" d="M -6 2578 
L 875 2934 
L 994 2934 
L 994 2266 
Q 1216 2644 1439 2795 
Q 1663 2947 1909 2947 
Q 2341 2947 2628 2609 
Q 2981 2197 2981 1534 
Q 2981 794 2556 309 
Q 2206 -88 1675 -88 
Q 1444 -88 1275 -22 
Q 1150 25 994 166 
L 994 -706 
Q 994 -1000 1030 -1079 
Q 1066 -1159 1155 -1206 
Q 1244 -1253 1478 -1253 
L 1478 -1369 
L -22 -1369 
L -22 -1253 
L 56 -1253 
Q 228 -1256 350 -1188 
Q 409 -1153 442 -1076 
Q 475 -1000 475 -688 
L 475 2019 
Q 475 2297 450 2372 
Q 425 2447 370 2484 
Q 316 2522 222 2522 
Q 147 2522 31 2478 
L -6 2578 
z
M 994 2081 
L 994 1013 
Q 994 666 1022 556 
Q 1066 375 1236 237 
Q 1406 100 1666 100 
Q 1978 100 2172 344 
Q 2425 663 2425 1241 
Q 2425 1897 2138 2250 
Q 1938 2494 1663 2494 
Q 1513 2494 1366 2419 
Q 1253 2363 994 2081 
z
" transform="scale(0.015625)"/>
      <path id="TimesNewRomanPSMT-6f" d="M 1600 2947 
Q 2250 2947 2644 2453 
Q 2978 2031 2978 1484 
Q 2978 1100 2793 706 
Q 2609 313 2286 112 
Q 1963 -88 1566 -88 
Q 919 -88 538 428 
Q 216 863 216 1403 
Q 216 1797 411 2186 
Q 606 2575 925 2761 
Q 1244 2947 1600 2947 
z
M 1503 2744 
Q 1338 2744 1170 2645 
Q 1003 2547 900 2300 
Q 797 2053 797 1666 
Q 797 1041 1045 587 
Q 1294 134 1700 134 
Q 2003 134 2200 384 
Q 2397 634 2397 1244 
Q 2397 2006 2069 2444 
Q 1847 2744 1503 2744 
z
" transform="scale(0.015625)"/>
      <path id="TimesNewRomanPSMT-6e" d="M 1034 2341 
Q 1538 2947 1994 2947 
Q 2228 2947 2397 2830 
Q 2566 2713 2666 2444 
Q 2734 2256 2734 1869 
L 2734 647 
Q 2734 375 2778 278 
Q 2813 200 2889 156 
Q 2966 113 3172 113 
L 3172 0 
L 1756 0 
L 1756 113 
L 1816 113 
Q 2016 113 2095 173 
Q 2175 234 2206 353 
Q 2219 400 2219 647 
L 2219 1819 
Q 2219 2209 2117 2386 
Q 2016 2563 1775 2563 
Q 1403 2563 1034 2156 
L 1034 647 
Q 1034 356 1069 288 
Q 1113 197 1189 155 
Q 1266 113 1500 113 
L 1500 0 
L 84 0 
L 84 113 
L 147 113 
Q 366 113 442 223 
Q 519 334 519 647 
L 519 1709 
Q 519 2225 495 2337 
Q 472 2450 423 2490 
Q 375 2531 294 2531 
Q 206 2531 84 2484 
L 38 2597 
L 900 2947 
L 1034 2947 
L 1034 2341 
z
" transform="scale(0.015625)"/>
      <path id="TimesNewRomanPSMT-73" d="M 2050 2947 
L 2050 1972 
L 1947 1972 
Q 1828 2431 1642 2597 
Q 1456 2763 1169 2763 
Q 950 2763 815 2647 
Q 681 2531 681 2391 
Q 681 2216 781 2091 
Q 878 1963 1175 1819 
L 1631 1597 
Q 2266 1288 2266 781 
Q 2266 391 1970 151 
Q 1675 -88 1309 -88 
Q 1047 -88 709 6 
Q 606 38 541 38 
Q 469 38 428 -44 
L 325 -44 
L 325 978 
L 428 978 
Q 516 541 762 319 
Q 1009 97 1316 97 
Q 1531 97 1667 223 
Q 1803 350 1803 528 
Q 1803 744 1651 891 
Q 1500 1038 1047 1263 
Q 594 1488 453 1669 
Q 313 1847 313 2119 
Q 313 2472 555 2709 
Q 797 2947 1181 2947 
Q 1350 2947 1591 2875 
Q 1750 2828 1803 2828 
Q 1853 2828 1881 2850 
Q 1909 2872 1947 2947 
L 2050 2947 
z
" transform="scale(0.015625)"/>
      <path id="TimesNewRomanPSMT-68" d="M 1041 4444 
L 1041 2350 
Q 1388 2731 1591 2839 
Q 1794 2947 1997 2947 
Q 2241 2947 2416 2812 
Q 2591 2678 2675 2391 
Q 2734 2191 2734 1659 
L 2734 647 
Q 2734 375 2778 275 
Q 2809 200 2884 156 
Q 2959 113 3159 113 
L 3159 0 
L 1753 0 
L 1753 113 
L 1819 113 
Q 2019 113 2097 173 
Q 2175 234 2206 353 
Q 2216 403 2216 647 
L 2216 1659 
Q 2216 2128 2167 2275 
Q 2119 2422 2012 2495 
Q 1906 2569 1756 2569 
Q 1603 2569 1437 2487 
Q 1272 2406 1041 2159 
L 1041 647 
Q 1041 353 1073 281 
Q 1106 209 1195 161 
Q 1284 113 1503 113 
L 1503 0 
L 84 0 
L 84 113 
Q 275 113 384 172 
Q 447 203 484 290 
Q 522 378 522 647 
L 522 3238 
Q 522 3728 498 3840 
Q 475 3953 426 3993 
Q 378 4034 297 4034 
Q 231 4034 84 3984 
L 41 4094 
L 897 4444 
L 1041 4444 
z
" transform="scale(0.015625)"/>
      <path id="TimesNewRomanPSMT-69" d="M 928 4444 
Q 1059 4444 1151 4351 
Q 1244 4259 1244 4128 
Q 1244 3997 1151 3903 
Q 1059 3809 928 3809 
Q 797 3809 703 3903 
Q 609 3997 609 4128 
Q 609 4259 701 4351 
Q 794 4444 928 4444 
z
M 1188 2947 
L 1188 647 
Q 1188 378 1227 289 
Q 1266 200 1342 156 
Q 1419 113 1622 113 
L 1622 0 
L 231 0 
L 231 113 
Q 441 113 512 153 
Q 584 194 626 287 
Q 669 381 669 647 
L 669 1750 
Q 669 2216 641 2353 
Q 619 2453 572 2492 
Q 525 2531 444 2531 
Q 356 2531 231 2484 
L 188 2597 
L 1050 2947 
L 1188 2947 
z
" transform="scale(0.015625)"/>
      <path id="TimesNewRomanPSMT-20" transform="scale(0.015625)"/>
      <path id="TimesNewRomanPSMT-52" d="M 4325 0 
L 3194 0 
L 1759 1981 
Q 1600 1975 1500 1975 
Q 1459 1975 1412 1976 
Q 1366 1978 1316 1981 
L 1316 750 
Q 1316 350 1403 253 
Q 1522 116 1759 116 
L 1925 116 
L 1925 0 
L 109 0 
L 109 116 
L 269 116 
Q 538 116 653 291 
Q 719 388 719 750 
L 719 3488 
Q 719 3888 631 3984 
Q 509 4122 269 4122 
L 109 4122 
L 109 4238 
L 1653 4238 
Q 2328 4238 2648 4139 
Q 2969 4041 3192 3777 
Q 3416 3513 3416 3147 
Q 3416 2756 3161 2468 
Q 2906 2181 2372 2063 
L 3247 847 
Q 3547 428 3762 290 
Q 3978 153 4325 116 
L 4325 0 
z
M 1316 2178 
Q 1375 2178 1419 2176 
Q 1463 2175 1491 2175 
Q 2097 2175 2405 2437 
Q 2713 2700 2713 3106 
Q 2713 3503 2464 3751 
Q 2216 4000 1806 4000 
Q 1625 4000 1316 3941 
L 1316 2178 
z
" transform="scale(0.015625)"/>
      <path id="TimesNewRomanPSMT-76" d="M 53 2863 
L 1400 2863 
L 1400 2747 
L 1313 2747 
Q 1191 2747 1127 2687 
Q 1063 2628 1063 2528 
Q 1063 2419 1128 2269 
L 1794 688 
L 2463 2328 
Q 2534 2503 2534 2594 
Q 2534 2638 2509 2666 
Q 2475 2713 2422 2730 
Q 2369 2747 2206 2747 
L 2206 2863 
L 3141 2863 
L 3141 2747 
Q 2978 2734 2916 2681 
Q 2806 2588 2719 2369 
L 1703 -88 
L 1575 -88 
L 553 2328 
Q 484 2497 421 2570 
Q 359 2644 263 2694 
Q 209 2722 53 2747 
L 53 2863 
z
" transform="scale(0.015625)"/>
      <path id="TimesNewRomanPSMT-75" d="M 2709 2863 
L 2709 1128 
Q 2709 631 2732 520 
Q 2756 409 2807 365 
Q 2859 322 2928 322 
Q 3025 322 3147 375 
L 3191 266 
L 2334 -88 
L 2194 -88 
L 2194 519 
Q 1825 119 1631 15 
Q 1438 -88 1222 -88 
Q 981 -88 804 51 
Q 628 191 559 409 
Q 491 628 491 1028 
L 491 2306 
Q 491 2509 447 2587 
Q 403 2666 317 2708 
Q 231 2750 6 2747 
L 6 2863 
L 1009 2863 
L 1009 947 
Q 1009 547 1148 422 
Q 1288 297 1484 297 
Q 1619 297 1789 381 
Q 1959 466 2194 703 
L 2194 2325 
Q 2194 2569 2105 2655 
Q 2016 2741 1734 2747 
L 1734 2863 
L 2709 2863 
z
" transform="scale(0.015625)"/>
      <path id="TimesNewRomanPSMT-66" d="M 1319 2638 
L 1319 756 
Q 1319 356 1406 250 
Q 1522 113 1716 113 
L 1975 113 
L 1975 0 
L 266 0 
L 266 113 
L 394 113 
Q 519 113 622 175 
Q 725 238 764 344 
Q 803 450 803 756 
L 803 2638 
L 247 2638 
L 247 2863 
L 803 2863 
L 803 3050 
Q 803 3478 940 3775 
Q 1078 4072 1361 4255 
Q 1644 4438 1997 4438 
Q 2325 4438 2600 4225 
Q 2781 4084 2781 3909 
Q 2781 3816 2700 3733 
Q 2619 3650 2525 3650 
Q 2453 3650 2373 3701 
Q 2294 3753 2178 3923 
Q 2063 4094 1966 4153 
Q 1869 4213 1750 4213 
Q 1606 4213 1506 4136 
Q 1406 4059 1362 3898 
Q 1319 3738 1319 3069 
L 1319 2863 
L 2056 2863 
L 2056 2638 
L 1319 2638 
z
" transform="scale(0.015625)"/>
      <path id="TimesNewRomanPSMT-6d" d="M 1050 2338 
Q 1363 2650 1419 2697 
Q 1559 2816 1721 2881 
Q 1884 2947 2044 2947 
Q 2313 2947 2506 2790 
Q 2700 2634 2766 2338 
Q 3088 2713 3309 2830 
Q 3531 2947 3766 2947 
Q 3994 2947 4170 2830 
Q 4347 2713 4450 2447 
Q 4519 2266 4519 1878 
L 4519 647 
Q 4519 378 4559 278 
Q 4591 209 4675 161 
Q 4759 113 4950 113 
L 4950 0 
L 3538 0 
L 3538 113 
L 3597 113 
Q 3781 113 3884 184 
Q 3956 234 3988 344 
Q 4000 397 4000 647 
L 4000 1878 
Q 4000 2228 3916 2372 
Q 3794 2572 3525 2572 
Q 3359 2572 3192 2489 
Q 3025 2406 2788 2181 
L 2781 2147 
L 2788 2013 
L 2788 647 
Q 2788 353 2820 281 
Q 2853 209 2943 161 
Q 3034 113 3253 113 
L 3253 0 
L 1806 0 
L 1806 113 
Q 2044 113 2133 169 
Q 2222 225 2256 338 
Q 2272 391 2272 647 
L 2272 1878 
Q 2272 2228 2169 2381 
Q 2031 2581 1784 2581 
Q 1616 2581 1450 2491 
Q 1191 2353 1050 2181 
L 1050 647 
Q 1050 366 1089 281 
Q 1128 197 1204 155 
Q 1281 113 1516 113 
L 1516 0 
L 100 0 
L 100 113 
Q 297 113 375 155 
Q 453 197 493 289 
Q 534 381 534 647 
L 534 1741 
Q 534 2213 506 2350 
Q 484 2453 437 2492 
Q 391 2531 309 2531 
Q 222 2531 100 2484 
L 53 2597 
L 916 2947 
L 1050 2947 
L 1050 2338 
z
" transform="scale(0.015625)"/>
      <path id="TimesNewRomanPSMT-74" d="M 1031 3803 
L 1031 2863 
L 1700 2863 
L 1700 2644 
L 1031 2644 
L 1031 788 
Q 1031 509 1111 412 
Q 1191 316 1316 316 
Q 1419 316 1516 380 
Q 1613 444 1666 569 
L 1788 569 
Q 1678 263 1478 108 
Q 1278 -47 1066 -47 
Q 922 -47 784 33 
Q 647 113 581 261 
Q 516 409 516 719 
L 516 2644 
L 63 2644 
L 63 2747 
Q 234 2816 414 2980 
Q 594 3144 734 3369 
Q 806 3488 934 3803 
L 1031 3803 
z
" transform="scale(0.015625)"/>
      <path id="TimesNewRomanPSMT-28" d="M 1988 -1253 
L 1988 -1369 
Q 1516 -1131 1200 -813 
Q 750 -359 506 256 
Q 263 872 263 1534 
Q 263 2503 741 3301 
Q 1219 4100 1988 4444 
L 1988 4313 
Q 1603 4100 1356 3731 
Q 1109 3363 987 2797 
Q 866 2231 866 1616 
Q 866 947 969 400 
Q 1050 -31 1165 -292 
Q 1281 -553 1476 -793 
Q 1672 -1034 1988 -1253 
z
" transform="scale(0.015625)"/>
      <path id="TimesNewRomanPSMT-24" d="M 338 1044 
L 475 1044 
Q 509 616 743 387 
Q 978 159 1444 116 
L 1444 1941 
Q 741 2375 506 2709 
Q 341 2947 341 3288 
Q 341 3672 627 3959 
Q 913 4247 1444 4306 
L 1444 4594 
L 1644 4594 
L 1644 4306 
Q 1900 4291 2075 4247 
Q 2166 4225 2675 4031 
L 2675 3097 
L 2553 3097 
Q 2513 3594 2295 3823 
Q 2078 4053 1644 4097 
L 1644 2509 
Q 2431 1959 2654 1698 
Q 2878 1438 2878 1050 
Q 2878 619 2551 290 
Q 2225 -38 1644 -88 
L 1644 -488 
L 1444 -488 
L 1444 -88 
Q 1150 -75 897 -20 
Q 644 34 338 159 
L 338 1044 
z
M 1444 2641 
L 1444 4094 
Q 1131 4056 979 3895 
Q 828 3734 828 3491 
Q 828 3263 965 3064 
Q 1103 2866 1444 2641 
z
M 1644 116 
Q 1878 156 2003 231 
Q 2178 341 2279 517 
Q 2381 694 2381 894 
Q 2381 1100 2257 1284 
Q 2134 1469 1644 1806 
L 1644 116 
z
" transform="scale(0.015625)"/>
      <path id="TimesNewRomanPSMT-29" d="M 144 4313 
L 144 4444 
Q 619 4209 934 3891 
Q 1381 3434 1625 2820 
Q 1869 2206 1869 1541 
Q 1869 572 1392 -226 
Q 916 -1025 144 -1369 
L 144 -1253 
Q 528 -1038 776 -670 
Q 1025 -303 1145 264 
Q 1266 831 1266 1447 
Q 1266 2113 1163 2663 
Q 1084 3094 967 3353 
Q 850 3613 656 3853 
Q 463 4094 144 4313 
z
" transform="scale(0.015625)"/>
     </defs>
     <use xlink:href="#TimesNewRomanPSMT-53"/>
     <use xlink:href="#TimesNewRomanPSMT-70" transform="translate(55.615234 0)"/>
     <use xlink:href="#TimesNewRomanPSMT-6f" transform="translate(105.615234 0)"/>
     <use xlink:href="#TimesNewRomanPSMT-6e" transform="translate(155.615234 0)"/>
     <use xlink:href="#TimesNewRomanPSMT-73" transform="translate(205.615234 0)"/>
     <use xlink:href="#TimesNewRomanPSMT-6f" transform="translate(244.53125 0)"/>
     <use xlink:href="#TimesNewRomanPSMT-72" transform="translate(294.53125 0)"/>
     <use xlink:href="#TimesNewRomanPSMT-73" transform="translate(327.832031 0)"/>
     <use xlink:href="#TimesNewRomanPSMT-68" transform="translate(366.748047 0)"/>
     <use xlink:href="#TimesNewRomanPSMT-69" transform="translate(416.748047 0)"/>
     <use xlink:href="#TimesNewRomanPSMT-70" transform="translate(444.53125 0)"/>
     <use xlink:href="#TimesNewRomanPSMT-20" transform="translate(494.53125 0)"/>
     <use xlink:href="#TimesNewRomanPSMT-52" transform="translate(519.53125 0)"/>
     <use xlink:href="#TimesNewRomanPSMT-65" transform="translate(586.230469 0)"/>
     <use xlink:href="#TimesNewRomanPSMT-76" transform="translate(630.615234 0)"/>
     <use xlink:href="#TimesNewRomanPSMT-65" transform="translate(680.615234 0)"/>
     <use xlink:href="#TimesNewRomanPSMT-6e" transform="translate(725 0)"/>
     <use xlink:href="#TimesNewRomanPSMT-75" transform="translate(775 0)"/>
     <use xlink:href="#TimesNewRomanPSMT-65" transform="translate(825 0)"/>
     <use xlink:href="#TimesNewRomanPSMT-20" transform="translate(869.384766 0)"/>
     <use xlink:href="#TimesNewRomanPSMT-66" transform="translate(894.384766 0)"/>
     <use xlink:href="#TimesNewRomanPSMT-72" transform="translate(927.685547 0)"/>
     <use xlink:href="#TimesNewRomanPSMT-6f" transform="translate(960.986328 0)"/>
     <use xlink:href="#TimesNewRomanPSMT-6d" transform="translate(1010.986328 0)"/>
     <use xlink:href="#TimesNewRomanPSMT-20" transform="translate(1088.769531 0)"/>
     <use xlink:href="#TimesNewRomanPSMT-31" transform="translate(1113.769531 0)"/>
     <use xlink:href="#TimesNewRomanPSMT-39" transform="translate(1163.769531 0)"/>
     <use xlink:href="#TimesNewRomanPSMT-36" transform="translate(1213.769531 0)"/>
     <use xlink:href="#TimesNewRomanPSMT-33" transform="translate(1263.769531 0)"/>
     <use xlink:href="#TimesNewRomanPSMT-20" transform="translate(1313.769531 0)"/>
     <use xlink:href="#TimesNewRomanPSMT-74" transform="translate(1338.769531 0)"/>
     <use xlink:href="#TimesNewRomanPSMT-6f" transform="translate(1366.552734 0)"/>
     <use xlink:href="#TimesNewRomanPSMT-20" transform="translate(1416.552734 0)"/>
     <use xlink:href="#TimesNewRomanPSMT-31" transform="translate(1441.552734 0)"/>
     <use xlink:href="#TimesNewRomanPSMT-39" transform="translate(1491.552734 0)"/>
     <use xlink:href="#TimesNewRomanPSMT-37" transform="translate(1541.552734 0)"/>
     <use xlink:href="#TimesNewRomanPSMT-33" transform="translate(1591.552734 0)"/>
     <use xlink:href="#TimesNewRomanPSMT-20" transform="translate(1641.552734 0)"/>
     <use xlink:href="#TimesNewRomanPSMT-28" transform="translate(1666.552734 0)"/>
     <use xlink:href="#TimesNewRomanPSMT-24" transform="translate(1699.853516 0)"/>
     <use xlink:href="#TimesNewRomanPSMT-29" transform="translate(1749.853516 0)"/>
     <use xlink:href="#TimesNewRomanPSMT-20" transform="translate(1783.154297 0)"/>
    </g>
   </g>
   <g id="legend_1">
    <g id="patch_7">
     <path d="M 415.667927 157.07125 
L 435.667927 157.07125 
L 435.667927 150.07125 
L 415.667927 150.07125 
z
" style="fill: #1f77b4"/>
    </g>
    <g id="text_14">
     <!-- Ironwood Invincibles -->
     <g transform="translate(443.667927 157.07125) scale(0.1 -0.1)">
      <defs>
       <path id="TimesNewRomanPSMT-49" d="M 1975 116 
L 1975 0 
L 159 0 
L 159 116 
L 309 116 
Q 572 116 691 269 
Q 766 369 766 750 
L 766 3488 
Q 766 3809 725 3913 
Q 694 3991 597 4047 
Q 459 4122 309 4122 
L 159 4122 
L 159 4238 
L 1975 4238 
L 1975 4122 
L 1822 4122 
Q 1563 4122 1444 3969 
Q 1366 3869 1366 3488 
L 1366 750 
Q 1366 428 1406 325 
Q 1438 247 1538 191 
Q 1672 116 1822 116 
L 1975 116 
z
" transform="scale(0.015625)"/>
       <path id="TimesNewRomanPSMT-77" d="M 41 2863 
L 1241 2863 
L 1241 2747 
Q 1075 2734 1023 2687 
Q 972 2641 972 2553 
Q 972 2456 1025 2319 
L 1638 672 
L 2253 2013 
L 2091 2434 
Q 2016 2622 1894 2694 
Q 1825 2738 1638 2747 
L 1638 2863 
L 3000 2863 
L 3000 2747 
Q 2775 2738 2681 2666 
Q 2619 2616 2619 2506 
Q 2619 2444 2644 2378 
L 3294 734 
L 3897 2319 
Q 3959 2488 3959 2588 
Q 3959 2647 3898 2694 
Q 3838 2741 3659 2747 
L 3659 2863 
L 4563 2863 
L 4563 2747 
Q 4291 2706 4163 2378 
L 3206 -88 
L 3078 -88 
L 2363 1741 
L 1528 -88 
L 1413 -88 
L 494 2319 
Q 403 2547 315 2626 
Q 228 2706 41 2747 
L 41 2863 
z
" transform="scale(0.015625)"/>
       <path id="TimesNewRomanPSMT-64" d="M 2222 322 
Q 2013 103 1813 7 
Q 1613 -88 1381 -88 
Q 913 -88 563 304 
Q 213 697 213 1313 
Q 213 1928 600 2439 
Q 988 2950 1597 2950 
Q 1975 2950 2222 2709 
L 2222 3238 
Q 2222 3728 2198 3840 
Q 2175 3953 2125 3993 
Q 2075 4034 2000 4034 
Q 1919 4034 1784 3984 
L 1744 4094 
L 2597 4444 
L 2738 4444 
L 2738 1134 
Q 2738 631 2761 520 
Q 2784 409 2836 365 
Q 2888 322 2956 322 
Q 3041 322 3181 375 
L 3216 266 
L 2366 -88 
L 2222 -88 
L 2222 322 
z
M 2222 541 
L 2222 2016 
Q 2203 2228 2109 2403 
Q 2016 2578 1861 2667 
Q 1706 2756 1559 2756 
Q 1284 2756 1069 2509 
Q 784 2184 784 1559 
Q 784 928 1059 592 
Q 1334 256 1672 256 
Q 1956 256 2222 541 
z
" transform="scale(0.015625)"/>
       <path id="TimesNewRomanPSMT-63" d="M 2631 1088 
Q 2516 522 2178 217 
Q 1841 -88 1431 -88 
Q 944 -88 581 321 
Q 219 731 219 1428 
Q 219 2103 620 2525 
Q 1022 2947 1584 2947 
Q 2006 2947 2278 2723 
Q 2550 2500 2550 2259 
Q 2550 2141 2473 2067 
Q 2397 1994 2259 1994 
Q 2075 1994 1981 2113 
Q 1928 2178 1911 2362 
Q 1894 2547 1784 2644 
Q 1675 2738 1481 2738 
Q 1169 2738 978 2506 
Q 725 2200 725 1697 
Q 725 1184 976 792 
Q 1228 400 1656 400 
Q 1963 400 2206 609 
Q 2378 753 2541 1131 
L 2631 1088 
z
" transform="scale(0.015625)"/>
       <path id="TimesNewRomanPSMT-62" d="M 984 2369 
Q 1400 2947 1881 2947 
Q 2322 2947 2650 2570 
Q 2978 2194 2978 1541 
Q 2978 778 2472 313 
Q 2038 -88 1503 -88 
Q 1253 -88 995 3 
Q 738 94 469 275 
L 469 3241 
Q 469 3728 445 3840 
Q 422 3953 372 3993 
Q 322 4034 247 4034 
Q 159 4034 28 3984 
L -16 4094 
L 844 4444 
L 984 4444 
L 984 2369 
z
M 984 2169 
L 984 456 
Q 1144 300 1314 220 
Q 1484 141 1663 141 
Q 1947 141 2192 453 
Q 2438 766 2438 1363 
Q 2438 1913 2192 2208 
Q 1947 2503 1634 2503 
Q 1469 2503 1303 2419 
Q 1178 2356 984 2169 
z
" transform="scale(0.015625)"/>
       <path id="TimesNewRomanPSMT-6c" d="M 1184 4444 
L 1184 647 
Q 1184 378 1223 290 
Q 1263 203 1344 158 
Q 1425 113 1647 113 
L 1647 0 
L 244 0 
L 244 113 
Q 441 113 512 153 
Q 584 194 625 287 
Q 666 381 666 647 
L 666 3247 
Q 666 3731 644 3842 
Q 622 3953 573 3993 
Q 525 4034 450 4034 
Q 369 4034 244 3984 
L 191 4094 
L 1044 4444 
L 1184 4444 
z
" transform="scale(0.015625)"/>
      </defs>
      <use xlink:href="#TimesNewRomanPSMT-49"/>
      <use xlink:href="#TimesNewRomanPSMT-72" transform="translate(33.300781 0)"/>
      <use xlink:href="#TimesNewRomanPSMT-6f" transform="translate(66.601562 0)"/>
      <use xlink:href="#TimesNewRomanPSMT-6e" transform="translate(116.601562 0)"/>
      <use xlink:href="#TimesNewRomanPSMT-77" transform="translate(166.601562 0)"/>
      <use xlink:href="#TimesNewRomanPSMT-6f" transform="translate(238.818359 0)"/>
      <use xlink:href="#TimesNewRomanPSMT-6f" transform="translate(288.818359 0)"/>
      <use xlink:href="#TimesNewRomanPSMT-64" transform="translate(338.818359 0)"/>
      <use xlink:href="#TimesNewRomanPSMT-20" transform="translate(388.818359 0)"/>
      <use xlink:href="#TimesNewRomanPSMT-49" transform="translate(413.818359 0)"/>
      <use xlink:href="#TimesNewRomanPSMT-6e" transform="translate(447.119141 0)"/>
      <use xlink:href="#TimesNewRomanPSMT-76" transform="translate(497.119141 0)"/>
      <use xlink:href="#TimesNewRomanPSMT-69" transform="translate(547.119141 0)"/>
      <use xlink:href="#TimesNewRomanPSMT-6e" transform="translate(574.902344 0)"/>
      <use xlink:href="#TimesNewRomanPSMT-63" transform="translate(624.902344 0)"/>
      <use xlink:href="#TimesNewRomanPSMT-69" transform="translate(669.287109 0)"/>
      <use xlink:href="#TimesNewRomanPSMT-62" transform="translate(697.070312 0)"/>
      <use xlink:href="#TimesNewRomanPSMT-6c" transform="translate(747.070312 0)"/>
      <use xlink:href="#TimesNewRomanPSMT-65" transform="translate(774.853516 0)"/>
      <use xlink:href="#TimesNewRomanPSMT-73" transform="translate(819.238281 0)"/>
     </g>
    </g>
    <g id="patch_8">
     <path d="M 415.667927 171.210312 
L 435.667927 171.210312 
L 435.667927 164.210312 
L 415.667927 164.210312 
z
" style="fill: #aec7e8"/>
    </g>
    <g id="text_15">
     <!-- Crimson Comets -->
     <g transform="translate(443.667927 171.210312) scale(0.1 -0.1)">
      <defs>
       <path id="TimesNewRomanPSMT-43" d="M 3853 4334 
L 3950 2894 
L 3853 2894 
Q 3659 3541 3300 3825 
Q 2941 4109 2438 4109 
Q 2016 4109 1675 3895 
Q 1334 3681 1139 3212 
Q 944 2744 944 2047 
Q 944 1472 1128 1050 
Q 1313 628 1683 403 
Q 2053 178 2528 178 
Q 2941 178 3256 354 
Q 3572 531 3950 1056 
L 4047 994 
Q 3728 428 3303 165 
Q 2878 -97 2294 -97 
Q 1241 -97 663 684 
Q 231 1266 231 2053 
Q 231 2688 515 3219 
Q 800 3750 1298 4042 
Q 1797 4334 2388 4334 
Q 2847 4334 3294 4109 
Q 3425 4041 3481 4041 
Q 3566 4041 3628 4100 
Q 3709 4184 3744 4334 
L 3853 4334 
z
" transform="scale(0.015625)"/>
      </defs>
      <use xlink:href="#TimesNewRomanPSMT-43"/>
      <use xlink:href="#TimesNewRomanPSMT-72" transform="translate(66.699219 0)"/>
      <use xlink:href="#TimesNewRomanPSMT-69" transform="translate(100 0)"/>
      <use xlink:href="#TimesNewRomanPSMT-6d" transform="translate(127.783203 0)"/>
      <use xlink:href="#TimesNewRomanPSMT-73" transform="translate(205.566406 0)"/>
      <use xlink:href="#TimesNewRomanPSMT-6f" transform="translate(244.482422 0)"/>
      <use xlink:href="#TimesNewRomanPSMT-6e" transform="translate(294.482422 0)"/>
      <use xlink:href="#TimesNewRomanPSMT-20" transform="translate(344.482422 0)"/>
      <use xlink:href="#TimesNewRomanPSMT-43" transform="translate(369.482422 0)"/>
      <use xlink:href="#TimesNewRomanPSMT-6f" transform="translate(436.181641 0)"/>
      <use xlink:href="#TimesNewRomanPSMT-6d" transform="translate(486.181641 0)"/>
      <use xlink:href="#TimesNewRomanPSMT-65" transform="translate(563.964844 0)"/>
      <use xlink:href="#TimesNewRomanPSMT-74" transform="translate(608.349609 0)"/>
      <use xlink:href="#TimesNewRomanPSMT-73" transform="translate(636.132812 0)"/>
     </g>
    </g>
    <g id="patch_9">
     <path d="M 415.667927 185.349375 
L 435.667927 185.349375 
L 435.667927 178.349375 
L 415.667927 178.349375 
z
" style="fill: #ff7f0e"/>
    </g>
    <g id="text_16">
     <!-- Silverleaf Sentinels -->
     <g transform="translate(443.667927 185.349375) scale(0.1 -0.1)">
      <use xlink:href="#TimesNewRomanPSMT-53"/>
      <use xlink:href="#TimesNewRomanPSMT-69" transform="translate(55.615234 0)"/>
      <use xlink:href="#TimesNewRomanPSMT-6c" transform="translate(83.398438 0)"/>
      <use xlink:href="#TimesNewRomanPSMT-76" transform="translate(111.181641 0)"/>
      <use xlink:href="#TimesNewRomanPSMT-65" transform="translate(161.181641 0)"/>
      <use xlink:href="#TimesNewRomanPSMT-72" transform="translate(205.566406 0)"/>
      <use xlink:href="#TimesNewRomanPSMT-6c" transform="translate(238.867188 0)"/>
      <use xlink:href="#TimesNewRomanPSMT-65" transform="translate(266.650391 0)"/>
      <use xlink:href="#TimesNewRomanPSMT-61" transform="translate(311.035156 0)"/>
      <use xlink:href="#TimesNewRomanPSMT-66" transform="translate(355.419922 0)"/>
      <use xlink:href="#TimesNewRomanPSMT-20" transform="translate(388.720703 0)"/>
      <use xlink:href="#TimesNewRomanPSMT-53" transform="translate(413.720703 0)"/>
      <use xlink:href="#TimesNewRomanPSMT-65" transform="translate(469.335938 0)"/>
      <use xlink:href="#TimesNewRomanPSMT-6e" transform="translate(513.720703 0)"/>
      <use xlink:href="#TimesNewRomanPSMT-74" transform="translate(563.720703 0)"/>
      <use xlink:href="#TimesNewRomanPSMT-69" transform="translate(591.503906 0)"/>
      <use xlink:href="#TimesNewRomanPSMT-6e" transform="translate(619.287109 0)"/>
      <use xlink:href="#TimesNewRomanPSMT-65" transform="translate(669.287109 0)"/>
      <use xlink:href="#TimesNewRomanPSMT-6c" transform="translate(713.671875 0)"/>
      <use xlink:href="#TimesNewRomanPSMT-73" transform="translate(741.455078 0)"/>
     </g>
    </g>
    <g id="patch_10">
     <path d="M 415.667927 199.488437 
L 435.667927 199.488437 
L 435.667927 192.488437 
L 415.667927 192.488437 
z
" style="fill: #ffbb78"/>
    </g>
    <g id="text_17">
     <!-- Golden Griffins -->
     <g transform="translate(443.667927 199.488437) scale(0.1 -0.1)">
      <defs>
       <path id="TimesNewRomanPSMT-47" d="M 3928 4334 
L 4038 2997 
L 3928 2997 
Q 3763 3497 3500 3750 
Q 3122 4116 2528 4116 
Q 1719 4116 1297 3475 
Q 944 2934 944 2188 
Q 944 1581 1178 1081 
Q 1413 581 1792 348 
Q 2172 116 2572 116 
Q 2806 116 3025 175 
Q 3244 234 3447 350 
L 3447 1575 
Q 3447 1894 3398 1992 
Q 3350 2091 3248 2142 
Q 3147 2194 2891 2194 
L 2891 2313 
L 4531 2313 
L 4531 2194 
L 4453 2194 
Q 4209 2194 4119 2031 
Q 4056 1916 4056 1575 
L 4056 278 
Q 3697 84 3347 -6 
Q 2997 -97 2569 -97 
Q 1341 -97 703 691 
Q 225 1281 225 2053 
Q 225 2613 494 3125 
Q 813 3734 1369 4063 
Q 1834 4334 2469 4334 
Q 2700 4334 2889 4296 
Q 3078 4259 3425 4131 
Q 3600 4066 3659 4066 
Q 3719 4066 3761 4120 
Q 3803 4175 3813 4334 
L 3928 4334 
z
" transform="scale(0.015625)"/>
      </defs>
      <use xlink:href="#TimesNewRomanPSMT-47"/>
      <use xlink:href="#TimesNewRomanPSMT-6f" transform="translate(72.216797 0)"/>
      <use xlink:href="#TimesNewRomanPSMT-6c" transform="translate(122.216797 0)"/>
      <use xlink:href="#TimesNewRomanPSMT-64" transform="translate(150 0)"/>
      <use xlink:href="#TimesNewRomanPSMT-65" transform="translate(200 0)"/>
      <use xlink:href="#TimesNewRomanPSMT-6e" transform="translate(244.384766 0)"/>
      <use xlink:href="#TimesNewRomanPSMT-20" transform="translate(294.384766 0)"/>
      <use xlink:href="#TimesNewRomanPSMT-47" transform="translate(319.384766 0)"/>
      <use xlink:href="#TimesNewRomanPSMT-72" transform="translate(391.601562 0)"/>
      <use xlink:href="#TimesNewRomanPSMT-69" transform="translate(424.902344 0)"/>
      <use xlink:href="#TimesNewRomanPSMT-66" transform="translate(452.685547 0)"/>
      <use xlink:href="#TimesNewRomanPSMT-66" transform="translate(484.236328 0)"/>
      <use xlink:href="#TimesNewRomanPSMT-69" transform="translate(517.537109 0)"/>
      <use xlink:href="#TimesNewRomanPSMT-6e" transform="translate(545.320312 0)"/>
      <use xlink:href="#TimesNewRomanPSMT-73" transform="translate(595.320312 0)"/>
     </g>
    </g>
   </g>
  </g>
 </g>
 <defs>
  <clipPath id="p58cfbc6ea3">
   <rect x="10.091927" y="37.249375" width="388.8" height="277.2"/>
  </clipPath>
 </defs>
</svg>
