<svg width="1920" height="1440" xmlns="http://www.w3.org/2000/svg" xmlns:xlink="http://www.w3.org/1999/xlink" version="1.1" baseProfile="full" viewBox="0 0 1920 1440">
<rect width="1920" height="1440" x="0" y="0" id="0" fill="#ffffff"></rect>
<polyline points="1122 846.2 1202 846.2" fill="none" stroke="#000000"></polyline>
<polyline points="1226.5 665.8 1306.5 665.8" fill="none" stroke="#000000"></polyline>
<polyline points="1026.8 1026.5 1106.8 1026.5" fill="none" stroke="#000000"></polyline>
<polyline points="1330.9 485.5 1410.9 485.5" fill="none" stroke="#000000"></polyline>
<polyline points="1429.2 305.2 1509.2 305.2" fill="none" stroke="#000000"></polyline>
<polyline points="980.7 1206.8 1060.7 1206.8" fill="none" stroke="#000000"></polyline>
<polygon points="556.8 757 1171.2 757 1072.9 935.3 655.1 935.3" fill="#8CB9C0" stroke="#000000" stroke-linejoin="round"></polygon>
<polygon points="446.2 576.7 1281.8 576.7 1171.2 755 556.8 755" fill="#7892B5" stroke="#000000" stroke-linejoin="round"></polygon>
<polygon points="655.1 937.3 1072.9 937.3 980.7 1115.7 747.3 1115.7" fill="#91B5A9" stroke="#000000" stroke-linejoin="round"></polygon>
<polygon points="347.9 396.3 1380.1 396.3 1281.8 574.7 446.2 574.7" fill="#D98481" stroke="#000000" stroke-linejoin="round"></polygon>
<polygon points="249.6 216 1478.4 216 1380.1 394.3 347.9 394.3" fill="#E9B9AA" stroke="#000000" stroke-linejoin="round"></polygon>
<polygon points="747.3 1117.7 980.7 1117.7 980.7 1296 747.3 1296" fill="#EDCA7F" stroke="#000000" stroke-linejoin="round"></polygon>
<text dominant-baseline="central" text-anchor="start" style="font-size:32px;font-family:Times New Roman;" xml:space="preserve" x="1207.0480000000002" y="846.1666666666667" fill="#000000">Testing and Validation: 50%</text>
<text dominant-baseline="central" text-anchor="start" style="font-size:32px;font-family:Times New Roman;" xml:space="preserve" x="1311.496" y="665.8333333333335" fill="#000000">Prototype Development: 68%</text>
<text dominant-baseline="central" text-anchor="start" style="font-size:32px;font-family:Times New Roman;" xml:space="preserve" x="1111.816" y="1026.5" fill="#000000">Final Design Approval: 34%</text>
<text dominant-baseline="central" text-anchor="start" style="font-size:32px;font-family:Times New Roman;" xml:space="preserve" x="1415.944" y="485.50000000000006" fill="#000000">Design Phase: 84%</text>
<text dominant-baseline="central" text-anchor="start" style="font-size:32px;font-family:Times New Roman;" xml:space="preserve" x="1514.248" y="305.1666666666667" fill="#000000">Project Initiation: 100%</text>
<text dominant-baseline="central" text-anchor="start" style="font-size:32px;font-family:Times New Roman;" xml:space="preserve" x="1065.7359999999999" y="1206.8333333333335" fill="#000000">Production: 19%</text>
<path d="M-334.8477 -5l669.6953 0l0 58l-669.6953 0Z" transform="translate(960 77)" fill="rgb(0,0,0)" fill-opacity="0" stroke="#ccc" stroke-width="0"></path>
<text dominant-baseline="central" text-anchor="middle" style="font-size:48px;font-family:Times New Roman;" xml:space="preserve" y="24" transform="translate(960 77)" fill="#000000">Engineering Project Lifecycle (%)</text>
</svg>