<svg width="1920" height="1440" xmlns="http://www.w3.org/2000/svg" xmlns:xlink="http://www.w3.org/1999/xlink" version="1.1" baseProfile="full" viewBox="0 0 1920 1440">
<rect width="1920" height="1440" x="0" y="0" id="0" fill="#ffffff"></rect>
<polyline points="1370.9 350.3 1450.9 350.3" fill="none" stroke="#000000"></polyline>
<polyline points="1180.4 620.8 1260.4 620.8" fill="none" stroke="#000000"></polyline>
<polyline points="1072.9 891.3 1152.9 891.3" fill="none" stroke="#000000"></polyline>
<polyline points="1048.3 1161.8 1128.3 1161.8" fill="none" stroke="#000000"></polyline>
<polygon points="249.6 216 1478.4 216 1263.4 484.5 464.6 484.5" fill="#464879" stroke="#000000" stroke-linejoin="round"></polygon>
<polygon points="464.6 486.5 1263.4 486.5 1097.5 755 630.5 755" fill="#5D7DB3" stroke="#000000" stroke-linejoin="round"></polygon>
<polygon points="630.5 757 1097.5 757 1048.3 1025.5 679.7 1025.5" fill="#84709B" stroke="#000000" stroke-linejoin="round"></polygon>
<polygon points="679.7 1027.5 1048.3 1027.5 1048.3 1296 679.7 1296" fill="#A3B3C8" stroke="#000000" stroke-linejoin="round"></polygon>
<text dominant-baseline="central" text-anchor="start" style="font-size:32px;font-family:Times New Roman;" xml:space="preserve" x="1455.88" y="350.25" fill="#000000">Design Phase: 100%</text>
<text dominant-baseline="central" text-anchor="start" style="font-size:32px;font-family:Times New Roman;" xml:space="preserve" x="1265.4160000000002" y="620.75" fill="#000000">Prototype Development: 65%</text>
<text dominant-baseline="central" text-anchor="start" style="font-size:32px;font-family:Times New Roman;" xml:space="preserve" x="1157.8960000000002" y="891.25" fill="#000000">Testing and Validation: 38%</text>
<text dominant-baseline="central" text-anchor="start" style="font-size:32px;font-family:Times New Roman;" xml:space="preserve" x="1133.3200000000002" y="1161.75" fill="#000000">Final Design Approval: 30%</text>
<path d="M-334.8477 -5l669.6953 0l0 58l-669.6953 0Z" transform="translate(960 77)" fill="rgb(0,0,0)" fill-opacity="0" stroke="#ccc" stroke-width="0"></path>
<text dominant-baseline="central" text-anchor="middle" style="font-size:48px;font-family:Times New Roman;" xml:space="preserve" y="24" transform="translate(960 77)" fill="#000000">Engineering Project Lifecycle (%)</text>
</svg>