<svg width="1920" height="1440" xmlns="http://www.w3.org/2000/svg" xmlns:xlink="http://www.w3.org/1999/xlink" version="1.1" baseProfile="full" viewBox="0 0 1920 1440">
<rect width="1920" height="1440" x="0" y="0" id="0" fill="#ffffff"></rect>
<polyline points="965.4 972.4 1045.4 972.4" fill="none" stroke="#000000"></polyline>
<polyline points="1131.3 539.6 1211.3 539.6" fill="none" stroke="#000000"></polyline>
<polyline points="1014.5 756 1094.5 756" fill="none" stroke="#000000"></polyline>
<polyline points="956.2 1188.8 1036.2 1188.8" fill="none" stroke="#000000"></polyline>
<polyline points="1343.2 323.2 1423.2 323.2" fill="none" stroke="#000000"></polyline>
<polygon points="753.4 865.2 974.6 865.2 956.2 1079.6 771.8 1079.6" fill="#FFC04A" stroke="#000000" stroke-linejoin="round"></polygon>
<polygon points="519.9 432.4 1208.1 432.4 1054.5 646.8 673.5 646.8" fill="#FFE4B5" stroke="#000000" stroke-linejoin="round"></polygon>
<polygon points="673.5 648.8 1054.5 648.8 974.6 863.2 753.4 863.2" fill="#FFD27F" stroke="#000000" stroke-linejoin="round"></polygon>
<polygon points="771.8 1081.6 956.2 1081.6 956.2 1296 771.8 1296" fill="#FFAE14" stroke="#000000" stroke-linejoin="round"></polygon>
<polygon points="249.6 216 1478.4 216 1208.1 430.4 519.9 430.4" fill="#FFF5E1" stroke="#000000" stroke-linejoin="round"></polygon>
<text dominant-baseline="central" text-anchor="start" style="font-size:32px;font-family:Times New Roman;" xml:space="preserve" x="1050.376" y="972.3999999999999" fill="#000000">Testing and Validation: 18%</text>
<text dominant-baseline="central" text-anchor="start" style="font-size:32px;font-family:Times New Roman;" xml:space="preserve" x="1216.2640000000001" y="539.5999999999999" fill="#000000">Design Phase: 56%</text>
<text dominant-baseline="central" text-anchor="start" style="font-size:32px;font-family:Times New Roman;" xml:space="preserve" x="1099.528" y="756" fill="#000000">Prototype Development: 31%</text>
<text dominant-baseline="central" text-anchor="start" style="font-size:32px;font-family:Times New Roman;" xml:space="preserve" x="1041.16" y="1188.8" fill="#000000">Final Design Approval: 15%</text>
<text dominant-baseline="central" text-anchor="start" style="font-size:32px;font-family:Times New Roman;" xml:space="preserve" x="1428.232" y="323.2" fill="#000000">Project Initiation: 100%</text>
<path d="M-334.8477 -5l669.6953 0l0 58l-669.6953 0Z" transform="translate(960 77)" fill="rgb(0,0,0)" fill-opacity="0" stroke="#ccc" stroke-width="0"></path>
<text dominant-baseline="central" text-anchor="middle" style="font-size:48px;font-family:Times New Roman;" xml:space="preserve" y="24" transform="translate(960 77)" fill="#000000">Engineering Project Lifecycle (%)</text>
</svg>