<svg width="1920" height="1440" xmlns="http://www.w3.org/2000/svg" xmlns:xlink="http://www.w3.org/1999/xlink" version="1.1" baseProfile="full" viewBox="0 0 1920 1440">
<rect width="1920" height="1440" x="0" y="0" id="0" fill="#ffffff"></rect>
<polyline points="1050.9 665.8 1130.9 665.8" fill="none" stroke="#000000"></polyline>
<polyline points="1169.1 485.5 1249.1 485.5" fill="none" stroke="#000000"></polyline>
<polyline points="997.2 846.2 1077.2 846.2" fill="none" stroke="#000000"></polyline>
<polyline points="1358.1 305.2 1438.1 305.2" fill="none" stroke="#000000"></polyline>
<polyline points="980 1026.5 1060 1026.5" fill="none" stroke="#000000"></polyline>
<polyline points="967.1 1206.8 1047.1 1206.8" fill="none" stroke="#000000"></polyline>
<polygon points="627.7 576.7 1100.3 576.7 1001.5 755 726.5 755" fill="#F47D85" stroke="#000000" stroke-linejoin="round"></polygon>
<polygon points="490.2 396.3 1237.8 396.3 1100.3 574.7 627.7 574.7" fill="#F7D8DF" stroke="#000000" stroke-linejoin="round"></polygon>
<polygon points="726.5 757 1001.5 757 992.9 935.3 735.1 935.3" fill="#DF4C5B" stroke="#000000" stroke-linejoin="round"></polygon>
<polygon points="249.6 216 1478.4 216 1237.8 394.3 490.2 394.3" fill="#F0E6E4" stroke="#000000" stroke-linejoin="round"></polygon>
<polygon points="735.1 937.3 992.9 937.3 967.1 1115.7 760.9 1115.7" fill="#989E6A" stroke="#000000" stroke-linejoin="round"></polygon>
<polygon points="760.9 1117.7 967.1 1117.7 967.1 1296 760.9 1296" fill="#6B8E23" stroke="#000000" stroke-linejoin="round"></polygon>
<text dominant-baseline="central" text-anchor="start" style="font-size:32px;font-family:Times New Roman;" xml:space="preserve" x="1135.8979020979023" y="665.8333333333335" fill="#000000">Follow Account: 55</text>
<text dominant-baseline="central" text-anchor="start" style="font-size:32px;font-family:Times New Roman;" xml:space="preserve" x="1254.0517482517484" y="485.50000000000006" fill="#000000">Share Content: 87</text>
<text dominant-baseline="central" text-anchor="start" style="font-size:32px;font-family:Times New Roman;" xml:space="preserve" x="1082.1916083916085" y="846.1666666666667" fill="#000000">Join Group or Community: 32</text>
<text dominant-baseline="central" text-anchor="start" style="font-size:32px;font-family:Times New Roman;" xml:space="preserve" x="1443.097902097902" y="305.1666666666667" fill="#000000">Like or Comment: 143</text>
<text dominant-baseline="central" text-anchor="start" style="font-size:32px;font-family:Times New Roman;" xml:space="preserve" x="1065.0055944055944" y="1026.5" fill="#000000">Content Creation or Upload: 30</text>
<text dominant-baseline="central" text-anchor="start" style="font-size:32px;font-family:Times New Roman;" xml:space="preserve" x="1052.1160839160839" y="1206.8333333333335" fill="#000000">Participate in Paid Subscription: 24</text>
<path d="M-412.9062 -5l825.8125 0l0 58l-825.8125 0Z" transform="translate(960 77)" fill="rgb(0,0,0)" fill-opacity="0" stroke="#ccc" stroke-width="0"></path>
<text dominant-baseline="central" text-anchor="middle" style="font-size:48px;font-family:Times New Roman;" xml:space="preserve" y="24" transform="translate(960 77)" fill="#000000">Social Media Engagement (Million Users)</text>
</svg>