<svg width="1920" height="1440" xmlns="http://www.w3.org/2000/svg" xmlns:xlink="http://www.w3.org/1999/xlink" version="1.1" baseProfile="full" viewBox="0 0 1920 1440">
<rect width="1920" height="1440" x="0" y="0" id="0" fill="#ffffff"></rect>
<polyline points="1008.6 756 1088.6 756" fill="none" stroke="#000000"></polyline>
<polyline points="950.5 972.4 1030.5 972.4" fill="none" stroke="#000000"></polyline>
<polyline points="1136 539.6 1216 539.6" fill="none" stroke="#000000"></polyline>
<polyline points="1345.9 323.2 1425.9 323.2" fill="none" stroke="#000000"></polyline>
<polyline points="942.5 1188.8 1022.5 1188.8" fill="none" stroke="#000000"></polyline>
<polygon points="669.4 648.8 1058.6 648.8 958.6 863.2 769.4 863.2" fill="#F47D85" stroke="#000000" stroke-linejoin="round"></polygon>
<polygon points="769.4 865.2 958.6 865.2 942.5 1079.6 785.5 1079.6" fill="#DF4C5B" stroke="#000000" stroke-linejoin="round"></polygon>
<polygon points="514.6 432.4 1213.4 432.4 1058.6 646.8 669.4 646.8" fill="#F7D8DF" stroke="#000000" stroke-linejoin="round"></polygon>
<polygon points="249.6 216 1478.4 216 1213.4 430.4 514.6 430.4" fill="#F0E6E4" stroke="#000000" stroke-linejoin="round"></polygon>
<polygon points="785.5 1081.6 942.5 1081.6 942.5 1296 785.5 1296" fill="#989E6A" stroke="#000000" stroke-linejoin="round"></polygon>
<text dominant-baseline="central" text-anchor="start" style="font-size:32px;font-family:Times New Roman;" xml:space="preserve" x="1093.5963254593175" y="756" fill="#000000">Fan Engagement: 362</text>
<text dominant-baseline="central" text-anchor="start" style="font-size:32px;font-family:Times New Roman;" xml:space="preserve" x="1035.542782152231" y="972.3999999999999" fill="#000000">Post-Event Feedback: 176</text>
<text dominant-baseline="central" text-anchor="start" style="font-size:32px;font-family:Times New Roman;" xml:space="preserve" x="1220.991601049869" y="539.5999999999999" fill="#000000">Event Attendance: 650</text>
<text dominant-baseline="central" text-anchor="start" style="font-size:32px;font-family:Times New Roman;" xml:space="preserve" x="1430.898162729659" y="323.2" fill="#000000">Ticket Purchase: 1143</text>
<text dominant-baseline="central" text-anchor="start" style="font-size:32px;font-family:Times New Roman;" xml:space="preserve" x="1027.4797900262467" y="1188.8" fill="#000000">Merchandise Purchase: 146</text>
<path d="M-392.2578 -5l784.5156 0l0 58l-784.5156 0Z" transform="translate(960 77)" fill="rgb(0,0,0)" fill-opacity="0" stroke="#ccc" stroke-width="0"></path>
<text dominant-baseline="central" text-anchor="middle" style="font-size:48px;font-family:Times New Roman;" xml:space="preserve" y="24" transform="translate(960 77)" fill="#000000">Sports Event Participation (Participants)</text>
</svg>