<svg width="1920" height="1440" xmlns="http://www.w3.org/2000/svg" xmlns:xlink="http://www.w3.org/1999/xlink" version="1.1" baseProfile="full" viewBox="0 0 1920 1440">
<rect width="1920" height="1440" x="0" y="0" id="0" fill="#ffffff"></rect>
<polyline points="943.9 972.4 1023.9 972.4" fill="none" stroke="#000000"></polyline>
<polyline points="938.9 1188.8 1018.9 1188.8" fill="none" stroke="#000000"></polyline>
<polyline points="1345.9 323.2 1425.9 323.2" fill="none" stroke="#000000"></polyline>
<polyline points="1136 539.6 1216 539.6" fill="none" stroke="#000000"></polyline>
<polyline points="1003.7 756 1083.7 756" fill="none" stroke="#000000"></polyline>
<polygon points="779.1 865.2 948.9 865.2 938.9 1079.6 789.1 1079.6" fill="#6A9AAA" stroke="#000000" stroke-linejoin="round"></polygon>
<polygon points="789.1 1081.6 938.9 1081.6 938.9 1296 789.1 1296" fill="#5A8B97" stroke="#000000" stroke-linejoin="round"></polygon>
<polygon points="249.6 216 1478.4 216 1213.4 430.4 514.6 430.4" fill="#9AC7E3" stroke="#000000" stroke-linejoin="round"></polygon>
<polygon points="514.6 432.4 1213.4 432.4 1058.6 646.8 669.4 646.8" fill="#8AB8D0" stroke="#000000" stroke-linejoin="round"></polygon>
<polygon points="669.4 648.8 1058.6 648.8 948.9 863.2 779.1 863.2" fill="#7AA9BD" stroke="#000000" stroke-linejoin="round"></polygon>
<text dominant-baseline="central" text-anchor="start" style="font-size:32px;font-family:Times New Roman;" xml:space="preserve" x="1028.9036002939015" y="972.3999999999999" fill="#000000">Book Flight: 188</text>
<text dominant-baseline="central" text-anchor="start" style="font-size:32px;font-family:Times New Roman;" xml:space="preserve" x="1023.9378398236591" y="1188.8" fill="#000000">Make Reservation: 166</text>
<text dominant-baseline="central" text-anchor="start" style="font-size:32px;font-family:Times New Roman;" xml:space="preserve" x="1430.9044819985306" y="323.2" fill="#000000">View Destination Info: 1361</text>
<text dominant-baseline="central" text-anchor="start" style="font-size:32px;font-family:Times New Roman;" xml:space="preserve" x="1220.988243938281" y="539.5999999999999" fill="#000000">Search Travel Packages: 774</text>
<text dominant-baseline="central" text-anchor="start" style="font-size:32px;font-family:Times New Roman;" xml:space="preserve" x="1088.7184423218223" y="756" fill="#000000">Select Accommodation: 431</text>
<path d="M-469.3906 -5l938.7813 0l0 58l-938.7812 0Z" transform="translate(960 77)" fill="rgb(0,0,0)" fill-opacity="0" stroke="#ccc" stroke-width="0"></path>
<text dominant-baseline="central" text-anchor="middle" style="font-size:48px;font-family:Times New Roman;" xml:space="preserve" y="24" transform="translate(960 77)" fill="#000000">Tourist Booking and Travel (Thousand Tourists)</text>
</svg>