<svg width="1920" height="1440" xmlns="http://www.w3.org/2000/svg" xmlns:xlink="http://www.w3.org/1999/xlink" version="1.1" baseProfile="full" viewBox="0 0 1920 1440">
<rect width="1920" height="1440" x="0" y="0" id="0" fill="#ffffff"></rect>
<polyline points="1130.9 539.6 1210.9 539.6" fill="none" stroke="#000000"></polyline>
<polyline points="1353.6 323.2 1433.6 323.2" fill="none" stroke="#000000"></polyline>
<polyline points="1013.3 756 1093.3 756" fill="none" stroke="#000000"></polyline>
<polyline points="981.9 972.4 1061.9 972.4" fill="none" stroke="#000000"></polyline>
<polyline points="970.2 1188.8 1050.2 1188.8" fill="none" stroke="#000000"></polyline>
<polygon points="499.1 432.4 1228.9 432.4 1033 646.8 695 646.8" fill="#5D7DB3" stroke="#000000" stroke-linejoin="round"></polygon>
<polygon points="249.6 216 1478.4 216 1228.9 430.4 499.1 430.4" fill="#464879" stroke="#000000" stroke-linejoin="round"></polygon>
<polygon points="695 648.8 1033 648.8 993.6 863.2 734.4 863.2" fill="#84709B" stroke="#000000" stroke-linejoin="round"></polygon>
<polygon points="734.4 865.2 993.6 865.2 970.2 1079.6 757.8 1079.6" fill="#A3B3C8" stroke="#000000" stroke-linejoin="round"></polygon>
<polygon points="757.8 1081.6 970.2 1081.6 970.2 1296 757.8 1296" fill="#B6CAD7" stroke="#000000" stroke-linejoin="round"></polygon>
<text dominant-baseline="central" text-anchor="start" style="font-size:32px;font-family:Times New Roman;" xml:space="preserve" x="1215.9398805573987" y="539.5999999999999" fill="#000000">Prepare for Pickup: 1790</text>
<text dominant-baseline="central" text-anchor="start" style="font-size:32px;font-family:Times New Roman;" xml:space="preserve" x="1438.6445919044459" y="323.2" fill="#000000">Book Transport Service: 3014</text>
<text dominant-baseline="central" text-anchor="start" style="font-size:32px;font-family:Times New Roman;" xml:space="preserve" x="1098.3191771731917" y="756" fill="#000000">Begin Transportation: 829</text>
<text dominant-baseline="central" text-anchor="start" style="font-size:32px;font-family:Times New Roman;" xml:space="preserve" x="1066.9264764432646" y="972.3999999999999" fill="#000000">Complete Delivery: 636</text>
<text dominant-baseline="central" text-anchor="start" style="font-size:32px;font-family:Times New Roman;" xml:space="preserve" x="1055.2051758460516" y="1188.8" fill="#000000">Provide Feedback or Rating: 521</text>
<path d="M-564.2656 -5l1128.5313 0l0 58l-1128.5312 0Z" transform="translate(960 77)" fill="rgb(0,0,0)" fill-opacity="0" stroke="#ccc" stroke-width="0"></path>
<text dominant-baseline="central" text-anchor="middle" style="font-size:48px;font-family:Times New Roman;" xml:space="preserve" y="24" transform="translate(960 77)" fill="#000000">Freight Logistics Order Processing (Thousand Shipments)</text>
</svg>