<svg width="1920" height="1440" xmlns="http://www.w3.org/2000/svg" xmlns:xlink="http://www.w3.org/1999/xlink" version="1.1" baseProfile="full" viewBox="0 0 1920 1440">
<rect width="1920" height="1440" x="0" y="0" id="0" fill="#ffffff"></rect>
<polyline points="1090.1 756 1170.1 756" fill="none" stroke="#000000"></polyline>
<polyline points="1156.7 601.4 1236.7 601.4" fill="none" stroke="#000000"></polyline>
<polyline points="1243.4 446.9 1323.4 446.9" fill="none" stroke="#000000"></polyline>
<polyline points="1040.9 910.6 1120.9 910.6" fill="none" stroke="#000000"></polyline>
<polyline points="1019.4 1065.1 1099.4 1065.1" fill="none" stroke="#000000"></polyline>
<polyline points="1389.9 292.3 1469.9 292.3" fill="none" stroke="#000000"></polyline>
<polyline points="1009.4 1219.7 1089.4 1219.7" fill="none" stroke="#000000"></polyline>
<polygon points="600.3 679.7 1127.7 679.7 1052.5 832.3 675.5 832.3" fill="#FFC04A" stroke="#000000" stroke-linejoin="round"></polygon>
<polygon points="542.4 525.1 1185.6 525.1 1127.7 677.7 600.3 677.7" fill="#FFD27F" stroke="#000000" stroke-linejoin="round"></polygon>
<polygon points="426.7 370.6 1301.3 370.6 1185.6 523.1 542.4 523.1" fill="#FFE4B5" stroke="#000000" stroke-linejoin="round"></polygon>
<polygon points="675.5 834.3 1052.5 834.3 1029.3 986.9 698.7 986.9" fill="#FFAE14" stroke="#000000" stroke-linejoin="round"></polygon>
<polygon points="698.7 988.9 1029.3 988.9 1009.4 1141.4 718.6 1141.4" fill="#E69A00" stroke="#000000" stroke-linejoin="round"></polygon>
<polygon points="249.6 216 1478.4 216 1301.3 368.6 426.7 368.6" fill="#FFF5E1" stroke="#000000" stroke-linejoin="round"></polygon>
<polygon points="718.6 1143.4 1009.4 1143.4 1009.4 1296 718.6 1296" fill="#CC8500" stroke="#000000" stroke-linejoin="round"></polygon>
<text dominant-baseline="central" text-anchor="start" style="font-size:32px;font-family:Times New Roman;" xml:space="preserve" x="1175.1414913957935" y="756" fill="#000000">Prepare for Pickup: 898</text>
<text dominant-baseline="central" text-anchor="start" style="font-size:32px;font-family:Times New Roman;" xml:space="preserve" x="1241.6623326959848" y="601.4285714285713" fill="#000000">Book Transport Service: 1095</text>
<text dominant-baseline="central" text-anchor="start" style="font-size:32px;font-family:Times New Roman;" xml:space="preserve" x="1328.4478011472274" y="446.85714285714283" fill="#000000">Select Carrier or Service: 1489</text>
<text dominant-baseline="central" text-anchor="start" style="font-size:32px;font-family:Times New Roman;" xml:space="preserve" x="1125.9483747609943" y="910.5714285714284" fill="#000000">Begin Transportation: 642</text>
<text dominant-baseline="central" text-anchor="start" style="font-size:32px;font-family:Times New Roman;" xml:space="preserve" x="1104.3621414913957" y="1065.142857142857" fill="#000000">Complete Delivery: 563</text>
<text dominant-baseline="central" text-anchor="start" style="font-size:32px;font-family:Times New Roman;" xml:space="preserve" x="1474.8523900573614" y="292.2857142857143" fill="#000000">Search Transport Options: 2092</text>
<text dominant-baseline="central" text-anchor="start" style="font-size:32px;font-family:Times New Roman;" xml:space="preserve" x="1094.376673040153" y="1219.7142857142858" fill="#000000">Provide Feedback or Rating: 495</text>
<path d="M-564.2656 -5l1128.5313 0l0 58l-1128.5312 0Z" transform="translate(960 77)" fill="rgb(0,0,0)" fill-opacity="0" stroke="#ccc" stroke-width="0"></path>
<text dominant-baseline="central" text-anchor="middle" style="font-size:48px;font-family:Times New Roman;" xml:space="preserve" y="24" transform="translate(960 77)" fill="#000000">Freight Logistics Order Processing (Thousand Shipments)</text>
</svg>