<svg width="1920" height="1440" xmlns="http://www.w3.org/2000/svg" xmlns:xlink="http://www.w3.org/1999/xlink" version="1.1" baseProfile="full" viewBox="0 0 1920 1440">
<rect width="1920" height="1440" x="0" y="0" id="0" fill="#ffffff"></rect>
<polyline points="1021.6 756 1101.6 756" fill="none" stroke="#000000"></polyline>
<polyline points="1136.3 539.6 1216.3 539.6" fill="none" stroke="#000000"></polyline>
<polyline points="973 972.4 1053 972.4" fill="none" stroke="#000000"></polyline>
<polyline points="1346.1 323.2 1426.1 323.2" fill="none" stroke="#000000"></polyline>
<polyline points="961.6 1188.8 1041.6 1188.8" fill="none" stroke="#000000"></polyline>
<polygon points="669.1 648.8 1058.9 648.8 984.4 863.2 743.6 863.2" fill="#F47D85" stroke="#000000" stroke-linejoin="round"></polygon>
<polygon points="514.2 432.4 1213.8 432.4 1058.9 646.8 669.1 646.8" fill="#F7D8DF" stroke="#000000" stroke-linejoin="round"></polygon>
<polygon points="743.6 865.2 984.4 865.2 961.6 1079.6 766.4 1079.6" fill="#DF4C5B" stroke="#000000" stroke-linejoin="round"></polygon>
<polygon points="249.6 216 1478.4 216 1213.8 430.4 514.2 430.4" fill="#F0E6E4" stroke="#000000" stroke-linejoin="round"></polygon>
<polygon points="766.4 1081.6 961.6 1081.6 961.6 1296 766.4 1296" fill="#989E6A" stroke="#000000" stroke-linejoin="round"></polygon>
<text dominant-baseline="central" text-anchor="start" style="font-size:32px;font-family:Times New Roman;" xml:space="preserve" x="1106.6400606980274" y="756" fill="#000000">Prepare for Pickup: 1254</text>
<text dominant-baseline="central" text-anchor="start" style="font-size:32px;font-family:Times New Roman;" xml:space="preserve" x="1221.3156297420335" y="539.5999999999999" fill="#000000">Book Transport Service: 2251</text>
<text dominant-baseline="central" text-anchor="start" style="font-size:32px;font-family:Times New Roman;" xml:space="preserve" x="1058.0039453717754" y="972.3999999999999" fill="#000000">Begin Transportation: 775</text>
<text dominant-baseline="central" text-anchor="start" style="font-size:32px;font-family:Times New Roman;" xml:space="preserve" x="1431.0880121396056" y="323.2" fill="#000000">Select Carrier or Service: 3954</text>
<text dominant-baseline="central" text-anchor="start" style="font-size:32px;font-family:Times New Roman;" xml:space="preserve" x="1046.5830045523521" y="1188.8" fill="#000000">Complete Delivery: 628</text>
<path d="M-564.2656 -5l1128.5313 0l0 58l-1128.5312 0Z" transform="translate(960 77)" fill="rgb(0,0,0)" fill-opacity="0" stroke="#ccc" stroke-width="0"></path>
<text dominant-baseline="central" text-anchor="middle" style="font-size:48px;font-family:Times New Roman;" xml:space="preserve" y="24" transform="translate(960 77)" fill="#000000">Freight Logistics Order Processing (Thousand Shipments)</text>
</svg>