<svg width="1920" height="1440" xmlns="http://www.w3.org/2000/svg" xmlns:xlink="http://www.w3.org/1999/xlink" version="1.1" baseProfile="full" viewBox="0 0 1920 1440">
<rect width="1920" height="1440" x="0" y="0" id="0" fill="#ffffff"></rect>
<polyline points="1061.1 972.4 1141.1 972.4" fill="none" stroke="#000000"></polyline>
<polyline points="1008.8 1188.8 1088.8 1188.8" fill="none" stroke="#000000"></polyline>
<polyline points="1169.3 756 1249.3 756" fill="none" stroke="#000000"></polyline>
<polyline points="1287.4 539.6 1367.4 539.6" fill="none" stroke="#000000"></polyline>
<polyline points="1414 323.2 1494 323.2" fill="none" stroke="#000000"></polyline>
<polygon points="614.7 865.2 1113.3 865.2 1008.8 1079.6 719.2 1079.6" fill="#A3B3C8" stroke="#000000" stroke-linejoin="round"></polygon>
<polygon points="719.2 1081.6 1008.8 1081.6 1008.8 1296 719.2 1296" fill="#B6CAD7" stroke="#000000" stroke-linejoin="round"></polygon>
<polygon points="502.7 648.8 1225.3 648.8 1113.3 863.2 614.7 863.2" fill="#84709B" stroke="#000000" stroke-linejoin="round"></polygon>
<polygon points="378.4 432.4 1349.6 432.4 1225.3 646.8 502.7 646.8" fill="#5D7DB3" stroke="#000000" stroke-linejoin="round"></polygon>
<polygon points="249.6 216 1478.4 216 1349.6 430.4 378.4 430.4" fill="#464879" stroke="#000000" stroke-linejoin="round"></polygon>
<text dominant-baseline="central" text-anchor="start" style="font-size:32px;font-family:Times New Roman;" xml:space="preserve" x="1146.050124069479" y="972.3999999999999" fill="#000000">Proposal Sent: 327</text>
<text dominant-baseline="central" text-anchor="start" style="font-size:32px;font-family:Times New Roman;" xml:space="preserve" x="1093.833746898263" y="1188.8" fill="#000000">Negotiation: 190</text>
<text dominant-baseline="central" text-anchor="start" style="font-size:32px;font-family:Times New Roman;" xml:space="preserve" x="1254.2942928039702" y="756" fill="#000000">Needs Analysis: 474</text>
<text dominant-baseline="central" text-anchor="start" style="font-size:32px;font-family:Times New Roman;" xml:space="preserve" x="1372.4481389578164" y="539.5999999999999" fill="#000000">Initial Contact: 637</text>
<text dominant-baseline="central" text-anchor="start" style="font-size:32px;font-family:Times New Roman;" xml:space="preserve" x="1498.9870967741936" y="323.2" fill="#000000">Lead Captured: 806</text>
<path d="M-271.6484 -5l543.2969 0l0 58l-543.2969 0Z" transform="translate(960 77)" fill="rgb(0,0,0)" fill-opacity="0" stroke="#ccc" stroke-width="0"></path>
<text dominant-baseline="central" text-anchor="middle" style="font-size:48px;font-family:Times New Roman;" xml:space="preserve" y="24" transform="translate(960 77)" fill="#000000">Client Acquisition (Clients)</text>
</svg>