<svg width="1920" height="1440" xmlns="http://www.w3.org/2000/svg" xmlns:xlink="http://www.w3.org/1999/xlink" version="1.1" baseProfile="full" viewBox="0 0 1920 1440">
<rect width="1920" height="1440" x="0" y="0" id="0" fill="#ffffff"></rect>
<polyline points="1085.2 972.4 1165.2 972.4" fill="none" stroke="#000000"></polyline>
<polyline points="1060.6 1188.8 1140.6 1188.8" fill="none" stroke="#000000"></polyline>
<polyline points="1374 323.2 1454 323.2" fill="none" stroke="#000000"></polyline>
<polyline points="1238.8 539.6 1318.8 539.6" fill="none" stroke="#000000"></polyline>
<polyline points="1158.9 756 1238.9 756" fill="none" stroke="#000000"></polyline>
<polygon points="618.2 865.2 1109.8 865.2 1060.6 1079.6 667.4 1079.6" fill="#DF4C5B" stroke="#000000" stroke-linejoin="round"></polygon>
<polygon points="667.4 1081.6 1060.6 1081.6 1060.6 1296 667.4 1296" fill="#989E6A" stroke="#000000" stroke-linejoin="round"></polygon>
<polygon points="249.6 216 1478.4 216 1269.5 430.4 458.5 430.4" fill="#F0E6E4" stroke="#000000" stroke-linejoin="round"></polygon>
<polygon points="458.5 432.4 1269.5 432.4 1208.1 646.8 519.9 646.8" fill="#F7D8DF" stroke="#000000" stroke-linejoin="round"></polygon>
<polygon points="519.9 648.8 1208.1 648.8 1109.8 863.2 618.2 863.2" fill="#F47D85" stroke="#000000" stroke-linejoin="round"></polygon>
<text dominant-baseline="central" text-anchor="start" style="font-size:32px;font-family:Times New Roman;" xml:space="preserve" x="1170.1840000000002" y="972.3999999999999" fill="#000000">Displayed in Exhibition: 40%</text>
<text dominant-baseline="central" text-anchor="start" style="font-size:32px;font-family:Times New Roman;" xml:space="preserve" x="1145.6080000000002" y="1188.8" fill="#000000">Shortlisted for Acquisition: 32%</text>
<text dominant-baseline="central" text-anchor="start" style="font-size:32px;font-family:Times New Roman;" xml:space="preserve" x="1458.952" y="323.2" fill="#000000">Artworks Created: 100%</text>
<text dominant-baseline="central" text-anchor="start" style="font-size:32px;font-family:Times New Roman;" xml:space="preserve" x="1323.784" y="539.5999999999999" fill="#000000">Submitted for Review: 66%</text>
<text dominant-baseline="central" text-anchor="start" style="font-size:32px;font-family:Times New Roman;" xml:space="preserve" x="1243.912" y="756" fill="#000000">Approved for Exhibition: 56%</text>
<path d="M-329.6211 -5l659.2422 0l0 58l-659.2422 0Z" transform="translate(960 77)" fill="rgb(0,0,0)" fill-opacity="0" stroke="#ccc" stroke-width="0"></path>
<text dominant-baseline="central" text-anchor="middle" style="font-size:48px;font-family:Times New Roman;" xml:space="preserve" y="24" transform="translate(960 77)" fill="#000000">Cultural Artwork Exhibitions (%)</text>
</svg>