<svg width="1920" height="1440" xmlns="http://www.w3.org/2000/svg" xmlns:xlink="http://www.w3.org/1999/xlink" version="1.1" baseProfile="full" viewBox="0 0 1920 1440">
<rect width="1920" height="1440" x="0" y="0" id="0" fill="#ffffff"></rect>
<polyline points="1081.3 620.8 1161.3 620.8" fill="none" stroke="#000000"></polyline>
<polyline points="984.5 891.3 1064.5 891.3" fill="none" stroke="#000000"></polyline>
<polyline points="1324.8 350.3 1404.8 350.3" fill="none" stroke="#000000"></polyline>
<polyline points="977.5 1161.8 1057.5 1161.8" fill="none" stroke="#000000"></polyline>
<polygon points="556.8 486.5 1171.2 486.5 991.4 755 736.6 755" fill="#F7D8DF" stroke="#000000" stroke-linejoin="round"></polygon>
<polygon points="736.6 757 991.4 757 977.5 1025.5 750.5 1025.5" fill="#F47D85" stroke="#000000" stroke-linejoin="round"></polygon>
<polygon points="249.6 216 1478.4 216 1171.2 484.5 556.8 484.5" fill="#F0E6E4" stroke="#000000" stroke-linejoin="round"></polygon>
<polygon points="750.5 1027.5 977.5 1027.5 977.5 1296 750.5 1296" fill="#DF4C5B" stroke="#000000" stroke-linejoin="round"></polygon>
<text dominant-baseline="central" text-anchor="start" style="font-size:32px;font-family:Times New Roman;" xml:space="preserve" x="1166.3044404973357" y="620.75" fill="#000000">Treatment Recommended: 1126</text>
<text dominant-baseline="central" text-anchor="start" style="font-size:32px;font-family:Times New Roman;" xml:space="preserve" x="1069.451865008881" y="891.25" fill="#000000">Treatment Initiated: 467</text>
<text dominant-baseline="central" text-anchor="start" style="font-size:32px;font-family:Times New Roman;" xml:space="preserve" x="1409.8000000000002" y="350.25" fill="#000000">Diagnosis Confirmed: 2252</text>
<text dominant-baseline="central" text-anchor="start" style="font-size:32px;font-family:Times New Roman;" xml:space="preserve" x="1062.4948490230904" y="1161.75" fill="#000000">Treatment Completed: 416</text>
<path d="M-309.5937 -5l619.1875 0l0 58l-619.1875 0Z" transform="translate(960 77)" fill="rgb(0,0,0)" fill-opacity="0" stroke="#ccc" stroke-width="0"></path>
<text dominant-baseline="central" text-anchor="middle" style="font-size:48px;font-family:Times New Roman;" xml:space="preserve" y="24" transform="translate(960 77)" fill="#000000">Patient Referral Flow (Patients)</text>
</svg>