<svg width="1920" height="1440" xmlns="http://www.w3.org/2000/svg" xmlns:xlink="http://www.w3.org/1999/xlink" version="1.1" baseProfile="full" viewBox="0 0 1920 1440">
<rect width="1920" height="1440" x="0" y="0" id="0" fill="#ffffff"></rect>
<polyline points="1135.9 539.6 1215.9 539.6" fill="none" stroke="#000000"></polyline>
<polyline points="1345.9 323.2 1425.9 323.2" fill="none" stroke="#000000"></polyline>
<polyline points="1005 756 1085 756" fill="none" stroke="#000000"></polyline>
<polyline points="944.2 972.4 1024.2 972.4" fill="none" stroke="#000000"></polyline>
<polyline points="936.9 1188.8 1016.9 1188.8" fill="none" stroke="#000000"></polyline>
<polygon points="514.7 432.4 1213.3 432.4 1058.5 646.8 669.5 646.8" fill="#D98481" stroke="#000000" stroke-linejoin="round"></polygon>
<polygon points="249.6 216 1478.4 216 1213.3 430.4 514.7 430.4" fill="#E9B9AA" stroke="#000000" stroke-linejoin="round"></polygon>
<polygon points="669.5 648.8 1058.5 648.8 951.5 863.2 776.5 863.2" fill="#7892B5" stroke="#000000" stroke-linejoin="round"></polygon>
<polygon points="776.5 865.2 951.5 865.2 936.9 1079.6 791.1 1079.6" fill="#8CB9C0" stroke="#000000" stroke-linejoin="round"></polygon>
<polygon points="791.1 1081.6 936.9 1081.6 936.9 1296 791.1 1296" fill="#91B5A9" stroke="#000000" stroke-linejoin="round"></polygon>
<text dominant-baseline="central" text-anchor="start" style="font-size:32px;font-family:Times New Roman;" xml:space="preserve" x="1220.9408970976253" y="539.5999999999999" fill="#000000">Negotiation: 431</text>
<text dominant-baseline="central" text-anchor="start" style="font-size:32px;font-family:Times New Roman;" xml:space="preserve" x="1430.8744063324539" y="323.2" fill="#000000">Property Viewed: 758</text>
<text dominant-baseline="central" text-anchor="start" style="font-size:32px;font-family:Times New Roman;" xml:space="preserve" x="1090.0364116094986" y="756" fill="#000000">Contract Signed: 240</text>
<text dominant-baseline="central" text-anchor="start" style="font-size:32px;font-family:Times New Roman;" xml:space="preserve" x="1029.2448548812665" y="972.3999999999999" fill="#000000">Sale Closed: 108</text>
<text dominant-baseline="central" text-anchor="start" style="font-size:32px;font-family:Times New Roman;" xml:space="preserve" x="1021.9498680738786" y="1188.8" fill="#000000">Post-sale Survey: 90</text>
<path d="M-368.9023 -5l737.8047 0l0 58l-737.8047 0Z" transform="translate(960 77)" fill="rgb(0,0,0)" fill-opacity="0" stroke="#ccc" stroke-width="0"></path>
<text dominant-baseline="central" text-anchor="middle" style="font-size:48px;font-family:Times New Roman;" xml:space="preserve" y="24" transform="translate(960 77)" fill="#000000">Real Estate Sales Process (Properties)</text>
</svg>