<svg width="1920" height="1440" xmlns="http://www.w3.org/2000/svg" xmlns:xlink="http://www.w3.org/1999/xlink" version="1.1" baseProfile="full" viewBox="0 0 1920 1440">
<rect width="1920" height="1440" x="0" y="0" id="0" fill="#ffffff"></rect>
<polyline points="1223.8 539.6 1303.8 539.6" fill="none" stroke="#000000"></polyline>
<polyline points="1136.7 756 1216.7 756" fill="none" stroke="#000000"></polyline>
<polyline points="1375.9 323.2 1455.9 323.2" fill="none" stroke="#000000"></polyline>
<polyline points="1079.9 972.4 1159.9 972.4" fill="none" stroke="#000000"></polyline>
<polyline points="1060.5 1188.8 1140.5 1188.8" fill="none" stroke="#000000"></polyline>
<polygon points="454.7 432.4 1273.3 432.4 1174.2 646.8 553.8 646.8" fill="#5D7DB3" stroke="#000000" stroke-linejoin="round"></polygon>
<polygon points="553.8 648.8 1174.2 648.8 1099.2 863.2 628.8 863.2" fill="#84709B" stroke="#000000" stroke-linejoin="round"></polygon>
<polygon points="249.6 216 1478.4 216 1273.3 430.4 454.7 430.4" fill="#464879" stroke="#000000" stroke-linejoin="round"></polygon>
<polygon points="628.8 865.2 1099.2 865.2 1060.5 1079.6 667.5 1079.6" fill="#A3B3C8" stroke="#000000" stroke-linejoin="round"></polygon>
<polygon points="667.5 1081.6 1060.5 1081.6 1060.5 1296 667.5 1296" fill="#B6CAD7" stroke="#000000" stroke-linejoin="round"></polygon>
<text dominant-baseline="central" text-anchor="start" style="font-size:32px;font-family:Times New Roman;" xml:space="preserve" x="1308.764375876578" y="539.5999999999999" fill="#000000">Negotiation: 475</text>
<text dominant-baseline="central" text-anchor="start" style="font-size:32px;font-family:Times New Roman;" xml:space="preserve" x="1221.731556802244" y="756" fill="#000000">Contract Signed: 360</text>
<text dominant-baseline="central" text-anchor="start" style="font-size:32px;font-family:Times New Roman;" xml:space="preserve" x="1460.8563814866761" y="323.2" fill="#000000">Property Viewed: 713</text>
<text dominant-baseline="central" text-anchor="start" style="font-size:32px;font-family:Times New Roman;" xml:space="preserve" x="1164.8586255259468" y="972.3999999999999" fill="#000000">Sale Closed: 273</text>
<text dominant-baseline="central" text-anchor="start" style="font-size:32px;font-family:Times New Roman;" xml:space="preserve" x="1145.470126227209" y="1188.8" fill="#000000">Post-sale Survey: 228</text>
<path d="M-368.9023 -5l737.8047 0l0 58l-737.8047 0Z" transform="translate(960 77)" fill="rgb(0,0,0)" fill-opacity="0" stroke="#ccc" stroke-width="0"></path>
<text dominant-baseline="central" text-anchor="middle" style="font-size:48px;font-family:Times New Roman;" xml:space="preserve" y="24" transform="translate(960 77)" fill="#000000">Real Estate Sales Process (Properties)</text>
</svg>