<svg width="1920" height="1440" xmlns="http://www.w3.org/2000/svg" xmlns:xlink="http://www.w3.org/1999/xlink" version="1.1" baseProfile="full" viewBox="0 0 1920 1440">
<rect width="1920" height="1440" x="0" y="0" id="0" fill="#ffffff"></rect>
<polyline points="1177.2 601.4 1257.2 601.4" fill="none" stroke="#000000"></polyline>
<polyline points="1277.2 446.9 1357.2 446.9" fill="none" stroke="#000000"></polyline>
<polyline points="1082.4 756 1162.4 756" fill="none" stroke="#000000"></polyline>
<polyline points="1041.1 910.6 1121.1 910.6" fill="none" stroke="#000000"></polyline>
<polyline points="1022.9 1065.1 1102.9 1065.1" fill="none" stroke="#000000"></polyline>
<polyline points="1399.8 292.3 1479.8 292.3" fill="none" stroke="#000000"></polyline>
<polyline points="1006.9 1219.7 1086.9 1219.7" fill="none" stroke="#000000"></polyline>
<polygon points="495 525.1 1233 525.1 1121.4 677.7 606.6 677.7" fill="#F47D85" stroke="#000000" stroke-linejoin="round"></polygon>
<polygon points="406.7 370.6 1321.3 370.6 1233 523.1 495 523.1" fill="#F7D8DF" stroke="#000000" stroke-linejoin="round"></polygon>
<polygon points="606.6 679.7 1121.4 679.7 1043.3 832.3 684.7 832.3" fill="#DF4C5B" stroke="#000000" stroke-linejoin="round"></polygon>
<polygon points="684.7 834.3 1043.3 834.3 1038.9 986.9 689.1 986.9" fill="#989E6A" stroke="#000000" stroke-linejoin="round"></polygon>
<polygon points="689.1 988.9 1038.9 988.9 1006.9 1141.4 721.1 1141.4" fill="#6B8E23" stroke="#000000" stroke-linejoin="round"></polygon>
<polygon points="249.6 216 1478.4 216 1321.3 368.6 406.7 368.6" fill="#F0E6E4" stroke="#000000" stroke-linejoin="round"></polygon>
<polygon points="721.1 1143.4 1006.9 1143.4 1006.9 1296 721.1 1296" fill="#5D6E4A" stroke="#000000" stroke-linejoin="round"></polygon>
<text dominant-baseline="central" text-anchor="start" style="font-size:32px;font-family:Times New Roman;" xml:space="preserve" x="1262.2128918322296" y="601.4285714285713" fill="#000000">Add to Cart: 8163</text>
<text dominant-baseline="central" text-anchor="start" style="font-size:32px;font-family:Times New Roman;" xml:space="preserve" x="1362.1715673289184" y="446.85714285714283" fill="#000000">Add to Wishlist: 10115</text>
<text dominant-baseline="central" text-anchor="start" style="font-size:32px;font-family:Times New Roman;" xml:space="preserve" x="1167.362913907285" y="756" fill="#000000">Initiate Checkout: 5693</text>
<text dominant-baseline="central" text-anchor="start" style="font-size:32px;font-family:Times New Roman;" xml:space="preserve" x="1126.1090507726271" y="910.5714285714284" fill="#000000">Enter Payment Information: 3967</text>
<text dominant-baseline="central" text-anchor="start" style="font-size:32px;font-family:Times New Roman;" xml:space="preserve" x="1107.866931567329" y="1065.142857142857" fill="#000000">Complete Purchase: 3868</text>
<text dominant-baseline="central" text-anchor="start" style="font-size:32px;font-family:Times New Roman;" xml:space="preserve" x="1484.8481236203093" y="292.2857142857143" fill="#000000">Visit Product Page: 13590</text>
<text dominant-baseline="central" text-anchor="start" style="font-size:32px;font-family:Times New Roman;" xml:space="preserve" x="1091.8626931567328" y="1219.7142857142858" fill="#000000">Leave Product Review: 3160</text>
<path d="M-348.1836 -5l696.3672 0l0 58l-696.3672 0Z" transform="translate(960 77)" fill="rgb(0,0,0)" fill-opacity="0" stroke="#ccc" stroke-width="0"></path>
<text dominant-baseline="central" text-anchor="middle" style="font-size:48px;font-family:Times New Roman;" xml:space="preserve" y="24" transform="translate(960 77)" fill="#000000">E-commerce User Purchase (Users)</text>
</svg>