<svg width="1920" height="1440" xmlns="http://www.w3.org/2000/svg" xmlns:xlink="http://www.w3.org/1999/xlink" version="1.1" baseProfile="full" viewBox="0 0 1920 1440">
<rect width="1920" height="1440" x="0" y="0" id="0" fill="#ffffff"></rect>
<polyline points="983.1 846.2 1063.1 846.2" fill="none" stroke="#000000"></polyline>
<polyline points="958 1026.5 1038 1026.5" fill="none" stroke="#000000"></polyline>
<polyline points="952.7 1206.8 1032.7 1206.8" fill="none" stroke="#000000"></polyline>
<polyline points="1359.6 305.2 1439.6 305.2" fill="none" stroke="#000000"></polyline>
<polyline points="1171.2 485.5 1251.2 485.5" fill="none" stroke="#000000"></polyline>
<polyline points="1052.3 665.8 1132.3 665.8" fill="none" stroke="#000000"></polyline>
<polygon points="725 757 1003 757 963.2 935.3 764.8 935.3" fill="#8CB9C0" stroke="#000000" stroke-linejoin="round"></polygon>
<polygon points="764.8 937.3 963.2 937.3 952.7 1115.7 775.3 1115.7" fill="#91B5A9" stroke="#000000" stroke-linejoin="round"></polygon>
<polygon points="775.3 1117.7 952.7 1117.7 952.7 1296 775.3 1296" fill="#EDCA7F" stroke="#000000" stroke-linejoin="round"></polygon>
<polygon points="249.6 216 1478.4 216 1240.7 394.3 487.3 394.3" fill="#E9B9AA" stroke="#000000" stroke-linejoin="round"></polygon>
<polygon points="487.3 396.3 1240.7 396.3 1101.6 574.7 626.4 574.7" fill="#D98481" stroke="#000000" stroke-linejoin="round"></polygon>
<polygon points="626.4 576.7 1101.6 576.7 1003 755 725 755" fill="#7892B5" stroke="#000000" stroke-linejoin="round"></polygon>
<text dominant-baseline="central" text-anchor="start" style="font-size:32px;font-family:Times New Roman;" xml:space="preserve" x="1068.1201053434056" y="846.1666666666667" fill="#000000">Initiate Checkout: 3265</text>
<text dominant-baseline="central" text-anchor="start" style="font-size:32px;font-family:Times New Roman;" xml:space="preserve" x="1042.97607595814" y="1026.5" fill="#000000">Enter Payment Information: 2330</text>
<text dominant-baseline="central" text-anchor="start" style="font-size:32px;font-family:Times New Roman;" xml:space="preserve" x="1037.7386236052394" y="1206.8333333333335" fill="#000000">Complete Purchase: 2084</text>
<text dominant-baseline="central" text-anchor="start" style="font-size:32px;font-family:Times New Roman;" xml:space="preserve" x="1444.5566705939427" y="305.1666666666667" fill="#000000">Visit Product Page: 14429</text>
<text dominant-baseline="central" text-anchor="start" style="font-size:32px;font-family:Times New Roman;" xml:space="preserve" x="1256.178709543281" y="485.50000000000006" fill="#000000">Add to Wishlist: 8847</text>
<text dominant-baseline="central" text-anchor="start" style="font-size:32px;font-family:Times New Roman;" xml:space="preserve" x="1137.3353801372236" y="665.8333333333335" fill="#000000">Add to Cart: 5581</text>
<path d="M-348.1836 -5l696.3672 0l0 58l-696.3672 0Z" transform="translate(960 77)" fill="rgb(0,0,0)" fill-opacity="0" stroke="#ccc" stroke-width="0"></path>
<text dominant-baseline="central" text-anchor="middle" style="font-size:48px;font-family:Times New Roman;" xml:space="preserve" y="24" transform="translate(960 77)" fill="#000000">E-commerce User Purchase (Users)</text>
</svg>