<?xml version="1.0" encoding="utf-8" standalone="no"?>
<!DOCTYPE svg PUBLIC "-//W3C//DTD SVG 1.1//EN"
  "http://www.w3.org/Graphics/SVG/1.1/DTD/svg11.dtd">
<svg xmlns:xlink="http://www.w3.org/1999/xlink" width="851.56037pt" height="423.514062pt" viewBox="0 0 851.56037 423.514062" xmlns="http://www.w3.org/2000/svg" version="1.1">
 <metadata>
  <rdf:RDF xmlns:dc="http://purl.org/dc/elements/1.1/" xmlns:cc="http://creativecommons.org/ns#" xmlns:rdf="http://www.w3.org/1999/02/22-rdf-syntax-ns#">
   <cc:Work>
    <dc:type rdf:resource="http://purl.org/dc/dcmitype/StillImage"/>
    <dc:date>2025-05-26T17:44:13.875898</dc:date>
    <dc:format>image/svg+xml</dc:format>
    <dc:creator>
     <cc:Agent>
      <dc:title>Matplotlib v3.10.1, https://matplotlib.org/</dc:title>
     </cc:Agent>
    </dc:creator>
   </cc:Work>
  </rdf:RDF>
 </metadata>
 <defs>
  <style type="text/css">*{stroke-linejoin: round; stroke-linecap: butt}</style>
 </defs>
 <g id="figure_1">
  <g id="patch_1">
   <path d="M 0 423.514062 
L 851.56037 423.514062 
L 851.56037 0 
L 0 0 
z
" style="fill: #ffffff"/>
  </g>
  <g id="axes_1">
   <g id="patch_2">
    <path d="M 22.53312 383.7125 
L 604.529483 383.7125 
L 604.529483 35.5325 
L 22.53312 35.5325 
z
" style="fill: #ffffff"/>
   </g>
   <g id="matplotlib.axis_1">
    <g id="xtick_1">
     <g id="line2d_1">
      <defs>
       <path id="mdbf6c38ffe" d="M 0 0 
L 0 3.5 
" style="stroke: #000000; stroke-width: 0.8"/>
      </defs>
      <g>
       <use xlink:href="#mdbf6c38ffe" x="48.9875" y="383.7125" style="stroke: #000000; stroke-width: 0.8"/>
      </g>
     </g>
     <g id="text_1">
      <!-- Student-teacher ratio -->
      <g transform="translate(7.2 414.15625) scale(0.1 -0.1)">
       <defs>
        <path id="TimesNewRomanPSMT-53" d="M 2934 4334 
L 2934 2869 
L 2819 2869 
Q 2763 3291 2617 3541 
Q 2472 3791 2203 3937 
Q 1934 4084 1647 4084 
Q 1322 4084 1109 3886 
Q 897 3688 897 3434 
Q 897 3241 1031 3081 
Q 1225 2847 1953 2456 
Q 2547 2138 2764 1967 
Q 2981 1797 3098 1565 
Q 3216 1334 3216 1081 
Q 3216 600 2842 251 
Q 2469 -97 1881 -97 
Q 1697 -97 1534 -69 
Q 1438 -53 1133 45 
Q 828 144 747 144 
Q 669 144 623 97 
Q 578 50 556 -97 
L 441 -97 
L 441 1356 
L 556 1356 
Q 638 900 775 673 
Q 913 447 1195 297 
Q 1478 147 1816 147 
Q 2206 147 2432 353 
Q 2659 559 2659 841 
Q 2659 997 2573 1156 
Q 2488 1316 2306 1453 
Q 2184 1547 1640 1851 
Q 1097 2156 867 2337 
Q 638 2519 519 2737 
Q 400 2956 400 3219 
Q 400 3675 750 4004 
Q 1100 4334 1641 4334 
Q 1978 4334 2356 4169 
Q 2531 4091 2603 4091 
Q 2684 4091 2736 4139 
Q 2788 4188 2819 4334 
L 2934 4334 
z
" transform="scale(0.015625)"/>
        <path id="TimesNewRomanPSMT-74" d="M 1031 3803 
L 1031 2863 
L 1700 2863 
L 1700 2644 
L 1031 2644 
L 1031 788 
Q 1031 509 1111 412 
Q 1191 316 1316 316 
Q 1419 316 1516 380 
Q 1613 444 1666 569 
L 1788 569 
Q 1678 263 1478 108 
Q 1278 -47 1066 -47 
Q 922 -47 784 33 
Q 647 113 581 261 
Q 516 409 516 719 
L 516 2644 
L 63 2644 
L 63 2747 
Q 234 2816 414 2980 
Q 594 3144 734 3369 
Q 806 3488 934 3803 
L 1031 3803 
z
" transform="scale(0.015625)"/>
        <path id="TimesNewRomanPSMT-75" d="M 2709 2863 
L 2709 1128 
Q 2709 631 2732 520 
Q 2756 409 2807 365 
Q 2859 322 2928 322 
Q 3025 322 3147 375 
L 3191 266 
L 2334 -88 
L 2194 -88 
L 2194 519 
Q 1825 119 1631 15 
Q 1438 -88 1222 -88 
Q 981 -88 804 51 
Q 628 191 559 409 
Q 491 628 491 1028 
L 491 2306 
Q 491 2509 447 2587 
Q 403 2666 317 2708 
Q 231 2750 6 2747 
L 6 2863 
L 1009 2863 
L 1009 947 
Q 1009 547 1148 422 
Q 1288 297 1484 297 
Q 1619 297 1789 381 
Q 1959 466 2194 703 
L 2194 2325 
Q 2194 2569 2105 2655 
Q 2016 2741 1734 2747 
L 1734 2863 
L 2709 2863 
z
" transform="scale(0.015625)"/>
        <path id="TimesNewRomanPSMT-64" d="M 2222 322 
Q 2013 103 1813 7 
Q 1613 -88 1381 -88 
Q 913 -88 563 304 
Q 213 697 213 1313 
Q 213 1928 600 2439 
Q 988 2950 1597 2950 
Q 1975 2950 2222 2709 
L 2222 3238 
Q 2222 3728 2198 3840 
Q 2175 3953 2125 3993 
Q 2075 4034 2000 4034 
Q 1919 4034 1784 3984 
L 1744 4094 
L 2597 4444 
L 2738 4444 
L 2738 1134 
Q 2738 631 2761 520 
Q 2784 409 2836 365 
Q 2888 322 2956 322 
Q 3041 322 3181 375 
L 3216 266 
L 2366 -88 
L 2222 -88 
L 2222 322 
z
M 2222 541 
L 2222 2016 
Q 2203 2228 2109 2403 
Q 2016 2578 1861 2667 
Q 1706 2756 1559 2756 
Q 1284 2756 1069 2509 
Q 784 2184 784 1559 
Q 784 928 1059 592 
Q 1334 256 1672 256 
Q 1956 256 2222 541 
z
" transform="scale(0.015625)"/>
        <path id="TimesNewRomanPSMT-65" d="M 681 1784 
Q 678 1147 991 784 
Q 1303 422 1725 422 
Q 2006 422 2214 576 
Q 2422 731 2563 1106 
L 2659 1044 
Q 2594 616 2278 264 
Q 1963 -88 1488 -88 
Q 972 -88 605 314 
Q 238 716 238 1394 
Q 238 2128 614 2539 
Q 991 2950 1559 2950 
Q 2041 2950 2350 2633 
Q 2659 2316 2659 1784 
L 681 1784 
z
M 681 1966 
L 2006 1966 
Q 1991 2241 1941 2353 
Q 1863 2528 1708 2628 
Q 1553 2728 1384 2728 
Q 1125 2728 920 2526 
Q 716 2325 681 1966 
z
" transform="scale(0.015625)"/>
        <path id="TimesNewRomanPSMT-6e" d="M 1034 2341 
Q 1538 2947 1994 2947 
Q 2228 2947 2397 2830 
Q 2566 2713 2666 2444 
Q 2734 2256 2734 1869 
L 2734 647 
Q 2734 375 2778 278 
Q 2813 200 2889 156 
Q 2966 113 3172 113 
L 3172 0 
L 1756 0 
L 1756 113 
L 1816 113 
Q 2016 113 2095 173 
Q 2175 234 2206 353 
Q 2219 400 2219 647 
L 2219 1819 
Q 2219 2209 2117 2386 
Q 2016 2563 1775 2563 
Q 1403 2563 1034 2156 
L 1034 647 
Q 1034 356 1069 288 
Q 1113 197 1189 155 
Q 1266 113 1500 113 
L 1500 0 
L 84 0 
L 84 113 
L 147 113 
Q 366 113 442 223 
Q 519 334 519 647 
L 519 1709 
Q 519 2225 495 2337 
Q 472 2450 423 2490 
Q 375 2531 294 2531 
Q 206 2531 84 2484 
L 38 2597 
L 900 2947 
L 1034 2947 
L 1034 2341 
z
" transform="scale(0.015625)"/>
        <path id="TimesNewRomanPSMT-2d" d="M 259 1672 
L 1875 1672 
L 1875 1200 
L 259 1200 
L 259 1672 
z
" transform="scale(0.015625)"/>
        <path id="TimesNewRomanPSMT-61" d="M 1822 413 
Q 1381 72 1269 19 
Q 1100 -59 909 -59 
Q 613 -59 420 144 
Q 228 347 228 678 
Q 228 888 322 1041 
Q 450 1253 767 1440 
Q 1084 1628 1822 1897 
L 1822 2009 
Q 1822 2438 1686 2597 
Q 1550 2756 1291 2756 
Q 1094 2756 978 2650 
Q 859 2544 859 2406 
L 866 2225 
Q 866 2081 792 2003 
Q 719 1925 600 1925 
Q 484 1925 411 2006 
Q 338 2088 338 2228 
Q 338 2497 613 2722 
Q 888 2947 1384 2947 
Q 1766 2947 2009 2819 
Q 2194 2722 2281 2516 
Q 2338 2381 2338 1966 
L 2338 994 
Q 2338 584 2353 492 
Q 2369 400 2405 369 
Q 2441 338 2488 338 
Q 2538 338 2575 359 
Q 2641 400 2828 588 
L 2828 413 
Q 2478 -56 2159 -56 
Q 2006 -56 1915 50 
Q 1825 156 1822 413 
z
M 1822 616 
L 1822 1706 
Q 1350 1519 1213 1441 
Q 966 1303 859 1153 
Q 753 1003 753 825 
Q 753 600 887 451 
Q 1022 303 1197 303 
Q 1434 303 1822 616 
z
" transform="scale(0.015625)"/>
        <path id="TimesNewRomanPSMT-63" d="M 2631 1088 
Q 2516 522 2178 217 
Q 1841 -88 1431 -88 
Q 944 -88 581 321 
Q 219 731 219 1428 
Q 219 2103 620 2525 
Q 1022 2947 1584 2947 
Q 2006 2947 2278 2723 
Q 2550 2500 2550 2259 
Q 2550 2141 2473 2067 
Q 2397 1994 2259 1994 
Q 2075 1994 1981 2113 
Q 1928 2178 1911 2362 
Q 1894 2547 1784 2644 
Q 1675 2738 1481 2738 
Q 1169 2738 978 2506 
Q 725 2200 725 1697 
Q 725 1184 976 792 
Q 1228 400 1656 400 
Q 1963 400 2206 609 
Q 2378 753 2541 1131 
L 2631 1088 
z
" transform="scale(0.015625)"/>
        <path id="TimesNewRomanPSMT-68" d="M 1041 4444 
L 1041 2350 
Q 1388 2731 1591 2839 
Q 1794 2947 1997 2947 
Q 2241 2947 2416 2812 
Q 2591 2678 2675 2391 
Q 2734 2191 2734 1659 
L 2734 647 
Q 2734 375 2778 275 
Q 2809 200 2884 156 
Q 2959 113 3159 113 
L 3159 0 
L 1753 0 
L 1753 113 
L 1819 113 
Q 2019 113 2097 173 
Q 2175 234 2206 353 
Q 2216 403 2216 647 
L 2216 1659 
Q 2216 2128 2167 2275 
Q 2119 2422 2012 2495 
Q 1906 2569 1756 2569 
Q 1603 2569 1437 2487 
Q 1272 2406 1041 2159 
L 1041 647 
Q 1041 353 1073 281 
Q 1106 209 1195 161 
Q 1284 113 1503 113 
L 1503 0 
L 84 0 
L 84 113 
Q 275 113 384 172 
Q 447 203 484 290 
Q 522 378 522 647 
L 522 3238 
Q 522 3728 498 3840 
Q 475 3953 426 3993 
Q 378 4034 297 4034 
Q 231 4034 84 3984 
L 41 4094 
L 897 4444 
L 1041 4444 
z
" transform="scale(0.015625)"/>
        <path id="TimesNewRomanPSMT-72" d="M 1038 2947 
L 1038 2303 
Q 1397 2947 1775 2947 
Q 1947 2947 2059 2842 
Q 2172 2738 2172 2600 
Q 2172 2478 2090 2393 
Q 2009 2309 1897 2309 
Q 1788 2309 1652 2417 
Q 1516 2525 1450 2525 
Q 1394 2525 1328 2463 
Q 1188 2334 1038 2041 
L 1038 669 
Q 1038 431 1097 309 
Q 1138 225 1241 169 
Q 1344 113 1538 113 
L 1538 0 
L 72 0 
L 72 113 
Q 291 113 397 181 
Q 475 231 506 341 
Q 522 394 522 644 
L 522 1753 
Q 522 2253 501 2348 
Q 481 2444 426 2487 
Q 372 2531 291 2531 
Q 194 2531 72 2484 
L 41 2597 
L 906 2947 
L 1038 2947 
z
" transform="scale(0.015625)"/>
        <path id="TimesNewRomanPSMT-20" transform="scale(0.015625)"/>
        <path id="TimesNewRomanPSMT-69" d="M 928 4444 
Q 1059 4444 1151 4351 
Q 1244 4259 1244 4128 
Q 1244 3997 1151 3903 
Q 1059 3809 928 3809 
Q 797 3809 703 3903 
Q 609 3997 609 4128 
Q 609 4259 701 4351 
Q 794 4444 928 4444 
z
M 1188 2947 
L 1188 647 
Q 1188 378 1227 289 
Q 1266 200 1342 156 
Q 1419 113 1622 113 
L 1622 0 
L 231 0 
L 231 113 
Q 441 113 512 153 
Q 584 194 626 287 
Q 669 381 669 647 
L 669 1750 
Q 669 2216 641 2353 
Q 619 2453 572 2492 
Q 525 2531 444 2531 
Q 356 2531 231 2484 
L 188 2597 
L 1050 2947 
L 1188 2947 
z
" transform="scale(0.015625)"/>
        <path id="TimesNewRomanPSMT-6f" d="M 1600 2947 
Q 2250 2947 2644 2453 
Q 2978 2031 2978 1484 
Q 2978 1100 2793 706 
Q 2609 313 2286 112 
Q 1963 -88 1566 -88 
Q 919 -88 538 428 
Q 216 863 216 1403 
Q 216 1797 411 2186 
Q 606 2575 925 2761 
Q 1244 2947 1600 2947 
z
M 1503 2744 
Q 1338 2744 1170 2645 
Q 1003 2547 900 2300 
Q 797 2053 797 1666 
Q 797 1041 1045 587 
Q 1294 134 1700 134 
Q 2003 134 2200 384 
Q 2397 634 2397 1244 
Q 2397 2006 2069 2444 
Q 1847 2744 1503 2744 
z
" transform="scale(0.015625)"/>
       </defs>
       <use xlink:href="#TimesNewRomanPSMT-53"/>
       <use xlink:href="#TimesNewRomanPSMT-74" transform="translate(55.615234 0)"/>
       <use xlink:href="#TimesNewRomanPSMT-75" transform="translate(83.398438 0)"/>
       <use xlink:href="#TimesNewRomanPSMT-64" transform="translate(133.398438 0)"/>
       <use xlink:href="#TimesNewRomanPSMT-65" transform="translate(183.398438 0)"/>
       <use xlink:href="#TimesNewRomanPSMT-6e" transform="translate(227.783203 0)"/>
       <use xlink:href="#TimesNewRomanPSMT-74" transform="translate(277.783203 0)"/>
       <use xlink:href="#TimesNewRomanPSMT-2d" transform="translate(305.566406 0)"/>
       <use xlink:href="#TimesNewRomanPSMT-74" transform="translate(338.867188 0)"/>
       <use xlink:href="#TimesNewRomanPSMT-65" transform="translate(366.650391 0)"/>
       <use xlink:href="#TimesNewRomanPSMT-61" transform="translate(411.035156 0)"/>
       <use xlink:href="#TimesNewRomanPSMT-63" transform="translate(455.419922 0)"/>
       <use xlink:href="#TimesNewRomanPSMT-68" transform="translate(499.804688 0)"/>
       <use xlink:href="#TimesNewRomanPSMT-65" transform="translate(549.804688 0)"/>
       <use xlink:href="#TimesNewRomanPSMT-72" transform="translate(594.189453 0)"/>
       <use xlink:href="#TimesNewRomanPSMT-20" transform="translate(627.490234 0)"/>
       <use xlink:href="#TimesNewRomanPSMT-72" transform="translate(652.490234 0)"/>
       <use xlink:href="#TimesNewRomanPSMT-61" transform="translate(685.791016 0)"/>
       <use xlink:href="#TimesNewRomanPSMT-74" transform="translate(730.175781 0)"/>
       <use xlink:href="#TimesNewRomanPSMT-69" transform="translate(757.958984 0)"/>
       <use xlink:href="#TimesNewRomanPSMT-6f" transform="translate(785.742188 0)"/>
      </g>
     </g>
    </g>
    <g id="xtick_2">
     <g id="line2d_2">
      <g>
       <use xlink:href="#mdbf6c38ffe" x="137.168767" y="383.7125" style="stroke: #000000; stroke-width: 0.8"/>
      </g>
     </g>
     <g id="text_2">
      <!-- College acceptance rate -->
      <g transform="translate(89.697673 414.15625) scale(0.1 -0.1)">
       <defs>
        <path id="TimesNewRomanPSMT-43" d="M 3853 4334 
L 3950 2894 
L 3853 2894 
Q 3659 3541 3300 3825 
Q 2941 4109 2438 4109 
Q 2016 4109 1675 3895 
Q 1334 3681 1139 3212 
Q 944 2744 944 2047 
Q 944 1472 1128 1050 
Q 1313 628 1683 403 
Q 2053 178 2528 178 
Q 2941 178 3256 354 
Q 3572 531 3950 1056 
L 4047 994 
Q 3728 428 3303 165 
Q 2878 -97 2294 -97 
Q 1241 -97 663 684 
Q 231 1266 231 2053 
Q 231 2688 515 3219 
Q 800 3750 1298 4042 
Q 1797 4334 2388 4334 
Q 2847 4334 3294 4109 
Q 3425 4041 3481 4041 
Q 3566 4041 3628 4100 
Q 3709 4184 3744 4334 
L 3853 4334 
z
" transform="scale(0.015625)"/>
        <path id="TimesNewRomanPSMT-6c" d="M 1184 4444 
L 1184 647 
Q 1184 378 1223 290 
Q 1263 203 1344 158 
Q 1425 113 1647 113 
L 1647 0 
L 244 0 
L 244 113 
Q 441 113 512 153 
Q 584 194 625 287 
Q 666 381 666 647 
L 666 3247 
Q 666 3731 644 3842 
Q 622 3953 573 3993 
Q 525 4034 450 4034 
Q 369 4034 244 3984 
L 191 4094 
L 1044 4444 
L 1184 4444 
z
" transform="scale(0.015625)"/>
        <path id="TimesNewRomanPSMT-67" d="M 966 1044 
Q 703 1172 562 1401 
Q 422 1631 422 1909 
Q 422 2334 742 2640 
Q 1063 2947 1563 2947 
Q 1972 2947 2272 2747 
L 2878 2747 
Q 3013 2747 3034 2739 
Q 3056 2731 3066 2713 
Q 3084 2684 3084 2613 
Q 3084 2531 3069 2500 
Q 3059 2484 3036 2475 
Q 3013 2466 2878 2466 
L 2506 2466 
Q 2681 2241 2681 1891 
Q 2681 1491 2375 1206 
Q 2069 922 1553 922 
Q 1341 922 1119 984 
Q 981 866 932 777 
Q 884 688 884 625 
Q 884 572 936 522 
Q 988 472 1138 450 
Q 1225 438 1575 428 
Q 2219 413 2409 384 
Q 2700 344 2873 169 
Q 3047 -6 3047 -263 
Q 3047 -616 2716 -925 
Q 2228 -1381 1444 -1381 
Q 841 -1381 425 -1109 
Q 191 -953 191 -784 
Q 191 -709 225 -634 
Q 278 -519 444 -313 
Q 466 -284 763 25 
Q 600 122 533 198 
Q 466 275 466 372 
Q 466 481 555 628 
Q 644 775 966 1044 
z
M 1509 2797 
Q 1278 2797 1122 2612 
Q 966 2428 966 2047 
Q 966 1553 1178 1281 
Q 1341 1075 1591 1075 
Q 1828 1075 1981 1253 
Q 2134 1431 2134 1813 
Q 2134 2309 1919 2591 
Q 1759 2797 1509 2797 
z
M 934 0 
Q 788 -159 713 -296 
Q 638 -434 638 -550 
Q 638 -700 819 -813 
Q 1131 -1006 1722 -1006 
Q 2284 -1006 2551 -807 
Q 2819 -609 2819 -384 
Q 2819 -222 2659 -153 
Q 2497 -84 2016 -72 
Q 1313 -53 934 0 
z
" transform="scale(0.015625)"/>
        <path id="TimesNewRomanPSMT-70" d="M -6 2578 
L 875 2934 
L 994 2934 
L 994 2266 
Q 1216 2644 1439 2795 
Q 1663 2947 1909 2947 
Q 2341 2947 2628 2609 
Q 2981 2197 2981 1534 
Q 2981 794 2556 309 
Q 2206 -88 1675 -88 
Q 1444 -88 1275 -22 
Q 1150 25 994 166 
L 994 -706 
Q 994 -1000 1030 -1079 
Q 1066 -1159 1155 -1206 
Q 1244 -1253 1478 -1253 
L 1478 -1369 
L -22 -1369 
L -22 -1253 
L 56 -1253 
Q 228 -1256 350 -1188 
Q 409 -1153 442 -1076 
Q 475 -1000 475 -688 
L 475 2019 
Q 475 2297 450 2372 
Q 425 2447 370 2484 
Q 316 2522 222 2522 
Q 147 2522 31 2478 
L -6 2578 
z
M 994 2081 
L 994 1013 
Q 994 666 1022 556 
Q 1066 375 1236 237 
Q 1406 100 1666 100 
Q 1978 100 2172 344 
Q 2425 663 2425 1241 
Q 2425 1897 2138 2250 
Q 1938 2494 1663 2494 
Q 1513 2494 1366 2419 
Q 1253 2363 994 2081 
z
" transform="scale(0.015625)"/>
       </defs>
       <use xlink:href="#TimesNewRomanPSMT-43"/>
       <use xlink:href="#TimesNewRomanPSMT-6f" transform="translate(66.699219 0)"/>
       <use xlink:href="#TimesNewRomanPSMT-6c" transform="translate(116.699219 0)"/>
       <use xlink:href="#TimesNewRomanPSMT-6c" transform="translate(144.482422 0)"/>
       <use xlink:href="#TimesNewRomanPSMT-65" transform="translate(172.265625 0)"/>
       <use xlink:href="#TimesNewRomanPSMT-67" transform="translate(216.650391 0)"/>
       <use xlink:href="#TimesNewRomanPSMT-65" transform="translate(266.650391 0)"/>
       <use xlink:href="#TimesNewRomanPSMT-20" transform="translate(311.035156 0)"/>
       <use xlink:href="#TimesNewRomanPSMT-61" transform="translate(336.035156 0)"/>
       <use xlink:href="#TimesNewRomanPSMT-63" transform="translate(380.419922 0)"/>
       <use xlink:href="#TimesNewRomanPSMT-63" transform="translate(424.804688 0)"/>
       <use xlink:href="#TimesNewRomanPSMT-65" transform="translate(469.189453 0)"/>
       <use xlink:href="#TimesNewRomanPSMT-70" transform="translate(513.574219 0)"/>
       <use xlink:href="#TimesNewRomanPSMT-74" transform="translate(563.574219 0)"/>
       <use xlink:href="#TimesNewRomanPSMT-61" transform="translate(591.357422 0)"/>
       <use xlink:href="#TimesNewRomanPSMT-6e" transform="translate(635.742188 0)"/>
       <use xlink:href="#TimesNewRomanPSMT-63" transform="translate(685.742188 0)"/>
       <use xlink:href="#TimesNewRomanPSMT-65" transform="translate(730.126953 0)"/>
       <use xlink:href="#TimesNewRomanPSMT-20" transform="translate(774.511719 0)"/>
       <use xlink:href="#TimesNewRomanPSMT-72" transform="translate(799.511719 0)"/>
       <use xlink:href="#TimesNewRomanPSMT-61" transform="translate(832.8125 0)"/>
       <use xlink:href="#TimesNewRomanPSMT-74" transform="translate(877.197266 0)"/>
       <use xlink:href="#TimesNewRomanPSMT-65" transform="translate(904.980469 0)"/>
      </g>
     </g>
    </g>
    <g id="xtick_3">
     <g id="line2d_3">
      <g>
       <use xlink:href="#mdbf6c38ffe" x="225.350034" y="383.7125" style="stroke: #000000; stroke-width: 0.8"/>
      </g>
     </g>
     <g id="text_3">
      <!-- Research funding -->
      <g transform="translate(190.221909 414.15625) scale(0.1 -0.1)">
       <defs>
        <path id="TimesNewRomanPSMT-52" d="M 4325 0 
L 3194 0 
L 1759 1981 
Q 1600 1975 1500 1975 
Q 1459 1975 1412 1976 
Q 1366 1978 1316 1981 
L 1316 750 
Q 1316 350 1403 253 
Q 1522 116 1759 116 
L 1925 116 
L 1925 0 
L 109 0 
L 109 116 
L 269 116 
Q 538 116 653 291 
Q 719 388 719 750 
L 719 3488 
Q 719 3888 631 3984 
Q 509 4122 269 4122 
L 109 4122 
L 109 4238 
L 1653 4238 
Q 2328 4238 2648 4139 
Q 2969 4041 3192 3777 
Q 3416 3513 3416 3147 
Q 3416 2756 3161 2468 
Q 2906 2181 2372 2063 
L 3247 847 
Q 3547 428 3762 290 
Q 3978 153 4325 116 
L 4325 0 
z
M 1316 2178 
Q 1375 2178 1419 2176 
Q 1463 2175 1491 2175 
Q 2097 2175 2405 2437 
Q 2713 2700 2713 3106 
Q 2713 3503 2464 3751 
Q 2216 4000 1806 4000 
Q 1625 4000 1316 3941 
L 1316 2178 
z
" transform="scale(0.015625)"/>
        <path id="TimesNewRomanPSMT-73" d="M 2050 2947 
L 2050 1972 
L 1947 1972 
Q 1828 2431 1642 2597 
Q 1456 2763 1169 2763 
Q 950 2763 815 2647 
Q 681 2531 681 2391 
Q 681 2216 781 2091 
Q 878 1963 1175 1819 
L 1631 1597 
Q 2266 1288 2266 781 
Q 2266 391 1970 151 
Q 1675 -88 1309 -88 
Q 1047 -88 709 6 
Q 606 38 541 38 
Q 469 38 428 -44 
L 325 -44 
L 325 978 
L 428 978 
Q 516 541 762 319 
Q 1009 97 1316 97 
Q 1531 97 1667 223 
Q 1803 350 1803 528 
Q 1803 744 1651 891 
Q 1500 1038 1047 1263 
Q 594 1488 453 1669 
Q 313 1847 313 2119 
Q 313 2472 555 2709 
Q 797 2947 1181 2947 
Q 1350 2947 1591 2875 
Q 1750 2828 1803 2828 
Q 1853 2828 1881 2850 
Q 1909 2872 1947 2947 
L 2050 2947 
z
" transform="scale(0.015625)"/>
        <path id="TimesNewRomanPSMT-66" d="M 1319 2638 
L 1319 756 
Q 1319 356 1406 250 
Q 1522 113 1716 113 
L 1975 113 
L 1975 0 
L 266 0 
L 266 113 
L 394 113 
Q 519 113 622 175 
Q 725 238 764 344 
Q 803 450 803 756 
L 803 2638 
L 247 2638 
L 247 2863 
L 803 2863 
L 803 3050 
Q 803 3478 940 3775 
Q 1078 4072 1361 4255 
Q 1644 4438 1997 4438 
Q 2325 4438 2600 4225 
Q 2781 4084 2781 3909 
Q 2781 3816 2700 3733 
Q 2619 3650 2525 3650 
Q 2453 3650 2373 3701 
Q 2294 3753 2178 3923 
Q 2063 4094 1966 4153 
Q 1869 4213 1750 4213 
Q 1606 4213 1506 4136 
Q 1406 4059 1362 3898 
Q 1319 3738 1319 3069 
L 1319 2863 
L 2056 2863 
L 2056 2638 
L 1319 2638 
z
" transform="scale(0.015625)"/>
       </defs>
       <use xlink:href="#TimesNewRomanPSMT-52"/>
       <use xlink:href="#TimesNewRomanPSMT-65" transform="translate(66.699219 0)"/>
       <use xlink:href="#TimesNewRomanPSMT-73" transform="translate(111.083984 0)"/>
       <use xlink:href="#TimesNewRomanPSMT-65" transform="translate(150 0)"/>
       <use xlink:href="#TimesNewRomanPSMT-61" transform="translate(194.384766 0)"/>
       <use xlink:href="#TimesNewRomanPSMT-72" transform="translate(238.769531 0)"/>
       <use xlink:href="#TimesNewRomanPSMT-63" transform="translate(272.070312 0)"/>
       <use xlink:href="#TimesNewRomanPSMT-68" transform="translate(316.455078 0)"/>
       <use xlink:href="#TimesNewRomanPSMT-20" transform="translate(366.455078 0)"/>
       <use xlink:href="#TimesNewRomanPSMT-66" transform="translate(391.455078 0)"/>
       <use xlink:href="#TimesNewRomanPSMT-75" transform="translate(424.755859 0)"/>
       <use xlink:href="#TimesNewRomanPSMT-6e" transform="translate(474.755859 0)"/>
       <use xlink:href="#TimesNewRomanPSMT-64" transform="translate(524.755859 0)"/>
       <use xlink:href="#TimesNewRomanPSMT-69" transform="translate(574.755859 0)"/>
       <use xlink:href="#TimesNewRomanPSMT-6e" transform="translate(602.539062 0)"/>
       <use xlink:href="#TimesNewRomanPSMT-67" transform="translate(652.539062 0)"/>
      </g>
     </g>
    </g>
    <g id="xtick_4">
     <g id="line2d_4">
      <g>
       <use xlink:href="#mdbf6c38ffe" x="313.531302" y="383.7125" style="stroke: #000000; stroke-width: 0.8"/>
      </g>
     </g>
     <g id="text_4">
      <!-- Test scores -->
      <g transform="translate(291.526614 414.15625) scale(0.1 -0.1)">
       <defs>
        <path id="TimesNewRomanPSMT-54" d="M 3703 4238 
L 3750 3244 
L 3631 3244 
Q 3597 3506 3538 3619 
Q 3441 3800 3280 3886 
Q 3119 3972 2856 3972 
L 2259 3972 
L 2259 734 
Q 2259 344 2344 247 
Q 2463 116 2709 116 
L 2856 116 
L 2856 0 
L 1059 0 
L 1059 116 
L 1209 116 
Q 1478 116 1591 278 
Q 1659 378 1659 734 
L 1659 3972 
L 1150 3972 
Q 853 3972 728 3928 
Q 566 3869 450 3700 
Q 334 3531 313 3244 
L 194 3244 
L 244 4238 
L 3703 4238 
z
" transform="scale(0.015625)"/>
       </defs>
       <use xlink:href="#TimesNewRomanPSMT-54"/>
       <use xlink:href="#TimesNewRomanPSMT-65" transform="translate(54.083984 0)"/>
       <use xlink:href="#TimesNewRomanPSMT-73" transform="translate(98.46875 0)"/>
       <use xlink:href="#TimesNewRomanPSMT-74" transform="translate(137.384766 0)"/>
       <use xlink:href="#TimesNewRomanPSMT-20" transform="translate(165.167969 0)"/>
       <use xlink:href="#TimesNewRomanPSMT-73" transform="translate(190.167969 0)"/>
       <use xlink:href="#TimesNewRomanPSMT-63" transform="translate(229.083984 0)"/>
       <use xlink:href="#TimesNewRomanPSMT-6f" transform="translate(273.46875 0)"/>
       <use xlink:href="#TimesNewRomanPSMT-72" transform="translate(323.46875 0)"/>
       <use xlink:href="#TimesNewRomanPSMT-65" transform="translate(356.769531 0)"/>
       <use xlink:href="#TimesNewRomanPSMT-73" transform="translate(401.154297 0)"/>
      </g>
     </g>
    </g>
    <g id="xtick_5">
     <g id="line2d_5">
      <g>
       <use xlink:href="#mdbf6c38ffe" x="401.712569" y="383.7125" style="stroke: #000000; stroke-width: 0.8"/>
      </g>
     </g>
     <g id="text_5">
      <!-- Facility utilization -->
      <g transform="translate(364.91335 414.15625) scale(0.1 -0.1)">
       <defs>
        <path id="TimesNewRomanPSMT-46" d="M 1309 4006 
L 1309 2341 
L 2081 2341 
Q 2347 2341 2470 2458 
Q 2594 2575 2634 2922 
L 2750 2922 
L 2750 1488 
L 2634 1488 
Q 2631 1734 2570 1850 
Q 2509 1966 2401 2023 
Q 2294 2081 2081 2081 
L 1309 2081 
L 1309 750 
Q 1309 428 1350 325 
Q 1381 247 1481 191 
Q 1619 116 1769 116 
L 1922 116 
L 1922 0 
L 103 0 
L 103 116 
L 253 116 
Q 516 116 634 269 
Q 709 369 709 750 
L 709 3488 
Q 709 3809 669 3913 
Q 638 3991 541 4047 
Q 406 4122 253 4122 
L 103 4122 
L 103 4238 
L 3256 4238 
L 3297 3306 
L 3188 3306 
Q 3106 3603 2998 3742 
Q 2891 3881 2733 3943 
Q 2575 4006 2244 4006 
L 1309 4006 
z
" transform="scale(0.015625)"/>
        <path id="TimesNewRomanPSMT-79" d="M 38 2863 
L 1372 2863 
L 1372 2747 
L 1306 2747 
Q 1166 2747 1095 2686 
Q 1025 2625 1025 2534 
Q 1025 2413 1128 2197 
L 1825 753 
L 2466 2334 
Q 2519 2463 2519 2588 
Q 2519 2644 2497 2672 
Q 2472 2706 2419 2726 
Q 2366 2747 2231 2747 
L 2231 2863 
L 3163 2863 
L 3163 2747 
Q 3047 2734 2984 2696 
Q 2922 2659 2847 2556 
Q 2819 2513 2741 2316 
L 1575 -541 
Q 1406 -956 1132 -1168 
Q 859 -1381 606 -1381 
Q 422 -1381 303 -1275 
Q 184 -1169 184 -1031 
Q 184 -900 270 -820 
Q 356 -741 506 -741 
Q 609 -741 788 -809 
Q 913 -856 944 -856 
Q 1038 -856 1148 -759 
Q 1259 -663 1372 -384 
L 1575 113 
L 547 2272 
Q 500 2369 397 2513 
Q 319 2622 269 2659 
Q 197 2709 38 2747 
L 38 2863 
z
" transform="scale(0.015625)"/>
        <path id="TimesNewRomanPSMT-7a" d="M 2688 878 
L 2653 0 
L 128 0 
L 128 113 
L 2028 2644 
L 1091 2644 
Q 788 2644 694 2605 
Q 600 2566 541 2456 
Q 456 2300 444 2069 
L 319 2069 
L 338 2863 
L 2738 2863 
L 2738 2747 
L 819 209 
L 1863 209 
Q 2191 209 2308 264 
Q 2425 319 2497 456 
Q 2547 556 2581 878 
L 2688 878 
z
" transform="scale(0.015625)"/>
       </defs>
       <use xlink:href="#TimesNewRomanPSMT-46"/>
       <use xlink:href="#TimesNewRomanPSMT-61" transform="translate(55.615234 0)"/>
       <use xlink:href="#TimesNewRomanPSMT-63" transform="translate(100 0)"/>
       <use xlink:href="#TimesNewRomanPSMT-69" transform="translate(144.384766 0)"/>
       <use xlink:href="#TimesNewRomanPSMT-6c" transform="translate(172.167969 0)"/>
       <use xlink:href="#TimesNewRomanPSMT-69" transform="translate(199.951172 0)"/>
       <use xlink:href="#TimesNewRomanPSMT-74" transform="translate(227.734375 0)"/>
       <use xlink:href="#TimesNewRomanPSMT-79" transform="translate(255.517578 0)"/>
       <use xlink:href="#TimesNewRomanPSMT-20" transform="translate(305.517578 0)"/>
       <use xlink:href="#TimesNewRomanPSMT-75" transform="translate(330.517578 0)"/>
       <use xlink:href="#TimesNewRomanPSMT-74" transform="translate(380.517578 0)"/>
       <use xlink:href="#TimesNewRomanPSMT-69" transform="translate(408.300781 0)"/>
       <use xlink:href="#TimesNewRomanPSMT-6c" transform="translate(436.083984 0)"/>
       <use xlink:href="#TimesNewRomanPSMT-69" transform="translate(463.867188 0)"/>
       <use xlink:href="#TimesNewRomanPSMT-7a" transform="translate(491.650391 0)"/>
       <use xlink:href="#TimesNewRomanPSMT-61" transform="translate(536.035156 0)"/>
       <use xlink:href="#TimesNewRomanPSMT-74" transform="translate(580.419922 0)"/>
       <use xlink:href="#TimesNewRomanPSMT-69" transform="translate(608.203125 0)"/>
       <use xlink:href="#TimesNewRomanPSMT-6f" transform="translate(635.986328 0)"/>
       <use xlink:href="#TimesNewRomanPSMT-6e" transform="translate(685.986328 0)"/>
      </g>
     </g>
    </g>
    <g id="xtick_6">
     <g id="line2d_6">
      <g>
       <use xlink:href="#mdbf6c38ffe" x="489.893836" y="383.7125" style="stroke: #000000; stroke-width: 0.8"/>
      </g>
     </g>
     <g id="text_6">
      <!-- Graduation rate -->
      <g transform="translate(458.657899 414.15625) scale(0.1 -0.1)">
       <defs>
        <path id="TimesNewRomanPSMT-47" d="M 3928 4334 
L 4038 2997 
L 3928 2997 
Q 3763 3497 3500 3750 
Q 3122 4116 2528 4116 
Q 1719 4116 1297 3475 
Q 944 2934 944 2188 
Q 944 1581 1178 1081 
Q 1413 581 1792 348 
Q 2172 116 2572 116 
Q 2806 116 3025 175 
Q 3244 234 3447 350 
L 3447 1575 
Q 3447 1894 3398 1992 
Q 3350 2091 3248 2142 
Q 3147 2194 2891 2194 
L 2891 2313 
L 4531 2313 
L 4531 2194 
L 4453 2194 
Q 4209 2194 4119 2031 
Q 4056 1916 4056 1575 
L 4056 278 
Q 3697 84 3347 -6 
Q 2997 -97 2569 -97 
Q 1341 -97 703 691 
Q 225 1281 225 2053 
Q 225 2613 494 3125 
Q 813 3734 1369 4063 
Q 1834 4334 2469 4334 
Q 2700 4334 2889 4296 
Q 3078 4259 3425 4131 
Q 3600 4066 3659 4066 
Q 3719 4066 3761 4120 
Q 3803 4175 3813 4334 
L 3928 4334 
z
" transform="scale(0.015625)"/>
       </defs>
       <use xlink:href="#TimesNewRomanPSMT-47"/>
       <use xlink:href="#TimesNewRomanPSMT-72" transform="translate(72.216797 0)"/>
       <use xlink:href="#TimesNewRomanPSMT-61" transform="translate(105.517578 0)"/>
       <use xlink:href="#TimesNewRomanPSMT-64" transform="translate(149.902344 0)"/>
       <use xlink:href="#TimesNewRomanPSMT-75" transform="translate(199.902344 0)"/>
       <use xlink:href="#TimesNewRomanPSMT-61" transform="translate(249.902344 0)"/>
       <use xlink:href="#TimesNewRomanPSMT-74" transform="translate(294.287109 0)"/>
       <use xlink:href="#TimesNewRomanPSMT-69" transform="translate(322.070312 0)"/>
       <use xlink:href="#TimesNewRomanPSMT-6f" transform="translate(349.853516 0)"/>
       <use xlink:href="#TimesNewRomanPSMT-6e" transform="translate(399.853516 0)"/>
       <use xlink:href="#TimesNewRomanPSMT-20" transform="translate(449.853516 0)"/>
       <use xlink:href="#TimesNewRomanPSMT-72" transform="translate(474.853516 0)"/>
       <use xlink:href="#TimesNewRomanPSMT-61" transform="translate(508.154297 0)"/>
       <use xlink:href="#TimesNewRomanPSMT-74" transform="translate(552.539062 0)"/>
       <use xlink:href="#TimesNewRomanPSMT-65" transform="translate(580.322266 0)"/>
      </g>
     </g>
    </g>
    <g id="xtick_7">
     <g id="line2d_7">
      <g>
       <use xlink:href="#mdbf6c38ffe" x="578.075103" y="383.7125" style="stroke: #000000; stroke-width: 0.8"/>
      </g>
     </g>
     <g id="text_7">
      <!-- Alumni donation rate -->
      <g transform="translate(535.306353 414.15625) scale(0.1 -0.1)">
       <defs>
        <path id="TimesNewRomanPSMT-41" d="M 2928 1419 
L 1288 1419 
L 1000 750 
Q 894 503 894 381 
Q 894 284 986 211 
Q 1078 138 1384 116 
L 1384 0 
L 50 0 
L 50 116 
Q 316 163 394 238 
Q 553 388 747 847 
L 2238 4334 
L 2347 4334 
L 3822 809 
Q 4000 384 4145 257 
Q 4291 131 4550 116 
L 4550 0 
L 2878 0 
L 2878 116 
Q 3131 128 3220 200 
Q 3309 272 3309 375 
Q 3309 513 3184 809 
L 2928 1419 
z
M 2841 1650 
L 2122 3363 
L 1384 1650 
L 2841 1650 
z
" transform="scale(0.015625)"/>
        <path id="TimesNewRomanPSMT-6d" d="M 1050 2338 
Q 1363 2650 1419 2697 
Q 1559 2816 1721 2881 
Q 1884 2947 2044 2947 
Q 2313 2947 2506 2790 
Q 2700 2634 2766 2338 
Q 3088 2713 3309 2830 
Q 3531 2947 3766 2947 
Q 3994 2947 4170 2830 
Q 4347 2713 4450 2447 
Q 4519 2266 4519 1878 
L 4519 647 
Q 4519 378 4559 278 
Q 4591 209 4675 161 
Q 4759 113 4950 113 
L 4950 0 
L 3538 0 
L 3538 113 
L 3597 113 
Q 3781 113 3884 184 
Q 3956 234 3988 344 
Q 4000 397 4000 647 
L 4000 1878 
Q 4000 2228 3916 2372 
Q 3794 2572 3525 2572 
Q 3359 2572 3192 2489 
Q 3025 2406 2788 2181 
L 2781 2147 
L 2788 2013 
L 2788 647 
Q 2788 353 2820 281 
Q 2853 209 2943 161 
Q 3034 113 3253 113 
L 3253 0 
L 1806 0 
L 1806 113 
Q 2044 113 2133 169 
Q 2222 225 2256 338 
Q 2272 391 2272 647 
L 2272 1878 
Q 2272 2228 2169 2381 
Q 2031 2581 1784 2581 
Q 1616 2581 1450 2491 
Q 1191 2353 1050 2181 
L 1050 647 
Q 1050 366 1089 281 
Q 1128 197 1204 155 
Q 1281 113 1516 113 
L 1516 0 
L 100 0 
L 100 113 
Q 297 113 375 155 
Q 453 197 493 289 
Q 534 381 534 647 
L 534 1741 
Q 534 2213 506 2350 
Q 484 2453 437 2492 
Q 391 2531 309 2531 
Q 222 2531 100 2484 
L 53 2597 
L 916 2947 
L 1050 2947 
L 1050 2338 
z
" transform="scale(0.015625)"/>
       </defs>
       <use xlink:href="#TimesNewRomanPSMT-41"/>
       <use xlink:href="#TimesNewRomanPSMT-6c" transform="translate(72.216797 0)"/>
       <use xlink:href="#TimesNewRomanPSMT-75" transform="translate(100 0)"/>
       <use xlink:href="#TimesNewRomanPSMT-6d" transform="translate(150 0)"/>
       <use xlink:href="#TimesNewRomanPSMT-6e" transform="translate(227.783203 0)"/>
       <use xlink:href="#TimesNewRomanPSMT-69" transform="translate(277.783203 0)"/>
       <use xlink:href="#TimesNewRomanPSMT-20" transform="translate(305.566406 0)"/>
       <use xlink:href="#TimesNewRomanPSMT-64" transform="translate(330.566406 0)"/>
       <use xlink:href="#TimesNewRomanPSMT-6f" transform="translate(380.566406 0)"/>
       <use xlink:href="#TimesNewRomanPSMT-6e" transform="translate(430.566406 0)"/>
       <use xlink:href="#TimesNewRomanPSMT-61" transform="translate(480.566406 0)"/>
       <use xlink:href="#TimesNewRomanPSMT-74" transform="translate(524.951172 0)"/>
       <use xlink:href="#TimesNewRomanPSMT-69" transform="translate(552.734375 0)"/>
       <use xlink:href="#TimesNewRomanPSMT-6f" transform="translate(580.517578 0)"/>
       <use xlink:href="#TimesNewRomanPSMT-6e" transform="translate(630.517578 0)"/>
       <use xlink:href="#TimesNewRomanPSMT-20" transform="translate(680.517578 0)"/>
       <use xlink:href="#TimesNewRomanPSMT-72" transform="translate(705.517578 0)"/>
       <use xlink:href="#TimesNewRomanPSMT-61" transform="translate(738.818359 0)"/>
       <use xlink:href="#TimesNewRomanPSMT-74" transform="translate(783.203125 0)"/>
       <use xlink:href="#TimesNewRomanPSMT-65" transform="translate(810.986328 0)"/>
      </g>
     </g>
    </g>
   </g>
   <g id="matplotlib.axis_2"/>
   <g id="line2d_8">
    <path d="M 48.9875 383.7125 
L 48.9875 35.5325 
" clip-path="url(#p791ae415ba)" style="fill: none; stroke: #000000; stroke-opacity: 0.5; stroke-width: 0.8; stroke-linecap: square"/>
   </g>
   <g id="line2d_9">
    <path d="M 137.168767 383.7125 
L 137.168767 35.5325 
" clip-path="url(#p791ae415ba)" style="fill: none; stroke: #000000; stroke-opacity: 0.5; stroke-width: 0.8; stroke-linecap: square"/>
   </g>
   <g id="line2d_10">
    <path d="M 225.350034 383.7125 
L 225.350034 35.5325 
" clip-path="url(#p791ae415ba)" style="fill: none; stroke: #000000; stroke-opacity: 0.5; stroke-width: 0.8; stroke-linecap: square"/>
   </g>
   <g id="line2d_11">
    <path d="M 313.531302 383.7125 
L 313.531302 35.5325 
" clip-path="url(#p791ae415ba)" style="fill: none; stroke: #000000; stroke-opacity: 0.5; stroke-width: 0.8; stroke-linecap: square"/>
   </g>
   <g id="line2d_12">
    <path d="M 401.712569 383.7125 
L 401.712569 35.5325 
" clip-path="url(#p791ae415ba)" style="fill: none; stroke: #000000; stroke-opacity: 0.5; stroke-width: 0.8; stroke-linecap: square"/>
   </g>
   <g id="line2d_13">
    <path d="M 489.893836 383.7125 
L 489.893836 35.5325 
" clip-path="url(#p791ae415ba)" style="fill: none; stroke: #000000; stroke-opacity: 0.5; stroke-width: 0.8; stroke-linecap: square"/>
   </g>
   <g id="line2d_14">
    <path d="M 578.075103 383.7125 
L 578.075103 35.5325 
" clip-path="url(#p791ae415ba)" style="fill: none; stroke: #000000; stroke-opacity: 0.5; stroke-width: 0.8; stroke-linecap: square"/>
   </g>
   <g id="line2d_15">
    <path d="M 48.9875 164.042573 
L 137.168767 187.782118 
L 225.350034 189.860915 
L 313.531302 115.439487 
L 401.712569 335.645573 
L 489.893836 134.732147 
L 578.075103 354.902058 
" clip-path="url(#p791ae415ba)" style="fill: none; stroke: #7b4173; stroke-opacity: 0.7; stroke-width: 2; stroke-linecap: square"/>
   </g>
   <g id="line2d_16">
    <path d="M 48.9875 51.358864 
L 137.168767 51.358864 
L 225.350034 51.358864 
L 313.531302 71.287162 
L 401.712569 299.109282 
L 489.893836 367.886136 
L 578.075103 109.948708 
" clip-path="url(#p791ae415ba)" style="fill: none; stroke: #8c6d31; stroke-opacity: 0.7; stroke-width: 2; stroke-linecap: square"/>
   </g>
   <g id="line2d_17">
    <path d="M 48.9875 182.147933 
L 137.168767 208.039864 
L 225.350034 195.673519 
L 313.531302 153.099773 
L 401.712569 306.525064 
L 489.893836 194.745718 
L 578.075103 81.848838 
" clip-path="url(#p791ae415ba)" style="fill: none; stroke: #17becf; stroke-opacity: 0.7; stroke-width: 2; stroke-linecap: square"/>
   </g>
   <g id="line2d_18">
    <path d="M 48.9875 367.886136 
L 137.168767 367.886136 
L 225.350034 367.886136 
L 313.531302 367.886136 
L 401.712569 367.886136 
L 489.893836 142.012275 
L 578.075103 110.917669 
" clip-path="url(#p791ae415ba)" style="fill: none; stroke: #2ca02c; stroke-opacity: 0.7; stroke-width: 2; stroke-linecap: square"/>
   </g>
   <g id="line2d_19">
    <path d="M 48.9875 293.1857 
L 137.168767 287.980585 
L 225.350034 294.766374 
L 313.531302 288.076045 
L 401.712569 356.219845 
L 489.893836 92.823936 
L 578.075103 51.358864 
" clip-path="url(#p791ae415ba)" style="fill: none; stroke: #8c564b; stroke-opacity: 0.7; stroke-width: 2; stroke-linecap: square"/>
   </g>
   <g id="line2d_20">
    <path d="M 48.9875 294.198587 
L 137.168767 352.270791 
L 225.350034 289.428656 
L 313.531302 165.244084 
L 401.712569 81.609827 
L 489.893836 181.514878 
L 578.075103 367.886136 
" clip-path="url(#p791ae415ba)" style="fill: none; stroke: #aec7e8; stroke-opacity: 0.7; stroke-width: 2; stroke-linecap: square"/>
   </g>
   <g id="line2d_21">
    <path d="M 48.9875 249.378325 
L 137.168767 299.586585 
L 225.350034 255.382504 
L 313.531302 51.358864 
L 401.712569 51.358864 
L 489.893836 51.358864 
L 578.075103 271.183825 
" clip-path="url(#p791ae415ba)" style="fill: none; stroke: #9edae5; stroke-opacity: 0.7; stroke-width: 2; stroke-linecap: square"/>
   </g>
   <g id="text_8">
    <!-- 30.00(ratio) -->
    <g transform="translate(20.496875 32.965625) scale(0.12 -0.12)">
     <defs>
      <path id="TimesNewRomanPSMT-33" d="M 325 3431 
Q 506 3859 782 4092 
Q 1059 4325 1472 4325 
Q 1981 4325 2253 3994 
Q 2459 3747 2459 3466 
Q 2459 3003 1878 2509 
Q 2269 2356 2469 2072 
Q 2669 1788 2669 1403 
Q 2669 853 2319 450 
Q 1863 -75 997 -75 
Q 569 -75 414 31 
Q 259 138 259 259 
Q 259 350 332 419 
Q 406 488 509 488 
Q 588 488 669 463 
Q 722 447 909 348 
Q 1097 250 1169 231 
Q 1284 197 1416 197 
Q 1734 197 1970 444 
Q 2206 691 2206 1028 
Q 2206 1275 2097 1509 
Q 2016 1684 1919 1775 
Q 1784 1900 1550 2001 
Q 1316 2103 1072 2103 
L 972 2103 
L 972 2197 
Q 1219 2228 1467 2375 
Q 1716 2522 1828 2728 
Q 1941 2934 1941 3181 
Q 1941 3503 1739 3701 
Q 1538 3900 1238 3900 
Q 753 3900 428 3381 
L 325 3431 
z
" transform="scale(0.015625)"/>
      <path id="TimesNewRomanPSMT-30" d="M 231 2094 
Q 231 2819 450 3342 
Q 669 3866 1031 4122 
Q 1313 4325 1613 4325 
Q 2100 4325 2488 3828 
Q 2972 3213 2972 2159 
Q 2972 1422 2759 906 
Q 2547 391 2217 158 
Q 1888 -75 1581 -75 
Q 975 -75 572 641 
Q 231 1244 231 2094 
z
M 844 2016 
Q 844 1141 1059 588 
Q 1238 122 1591 122 
Q 1759 122 1940 273 
Q 2122 425 2216 781 
Q 2359 1319 2359 2297 
Q 2359 3022 2209 3506 
Q 2097 3866 1919 4016 
Q 1791 4119 1609 4119 
Q 1397 4119 1231 3928 
Q 1006 3669 925 3112 
Q 844 2556 844 2016 
z
" transform="scale(0.015625)"/>
      <path id="TimesNewRomanPSMT-2e" d="M 800 606 
Q 947 606 1047 504 
Q 1147 403 1147 259 
Q 1147 116 1045 14 
Q 944 -88 800 -88 
Q 656 -88 554 14 
Q 453 116 453 259 
Q 453 406 554 506 
Q 656 606 800 606 
z
" transform="scale(0.015625)"/>
      <path id="TimesNewRomanPSMT-28" d="M 1988 -1253 
L 1988 -1369 
Q 1516 -1131 1200 -813 
Q 750 -359 506 256 
Q 263 872 263 1534 
Q 263 2503 741 3301 
Q 1219 4100 1988 4444 
L 1988 4313 
Q 1603 4100 1356 3731 
Q 1109 3363 987 2797 
Q 866 2231 866 1616 
Q 866 947 969 400 
Q 1050 -31 1165 -292 
Q 1281 -553 1476 -793 
Q 1672 -1034 1988 -1253 
z
" transform="scale(0.015625)"/>
      <path id="TimesNewRomanPSMT-29" d="M 144 4313 
L 144 4444 
Q 619 4209 934 3891 
Q 1381 3434 1625 2820 
Q 1869 2206 1869 1541 
Q 1869 572 1392 -226 
Q 916 -1025 144 -1369 
L 144 -1253 
Q 528 -1038 776 -670 
Q 1025 -303 1145 264 
Q 1266 831 1266 1447 
Q 1266 2113 1163 2663 
Q 1084 3094 967 3353 
Q 850 3613 656 3853 
Q 463 4094 144 4313 
z
" transform="scale(0.015625)"/>
     </defs>
     <use xlink:href="#TimesNewRomanPSMT-33"/>
     <use xlink:href="#TimesNewRomanPSMT-30" transform="translate(50 0)"/>
     <use xlink:href="#TimesNewRomanPSMT-2e" transform="translate(100 0)"/>
     <use xlink:href="#TimesNewRomanPSMT-30" transform="translate(125 0)"/>
     <use xlink:href="#TimesNewRomanPSMT-30" transform="translate(175 0)"/>
     <use xlink:href="#TimesNewRomanPSMT-28" transform="translate(225 0)"/>
     <use xlink:href="#TimesNewRomanPSMT-72" transform="translate(258.300781 0)"/>
     <use xlink:href="#TimesNewRomanPSMT-61" transform="translate(291.601562 0)"/>
     <use xlink:href="#TimesNewRomanPSMT-74" transform="translate(335.986328 0)"/>
     <use xlink:href="#TimesNewRomanPSMT-69" transform="translate(363.769531 0)"/>
     <use xlink:href="#TimesNewRomanPSMT-6f" transform="translate(391.552734 0)"/>
     <use xlink:href="#TimesNewRomanPSMT-29" transform="translate(441.552734 0)"/>
    </g>
   </g>
   <g id="text_9">
    <!-- 5.00 -->
    <g transform="translate(38.4875 401.540818) scale(0.12 -0.12)">
     <defs>
      <path id="TimesNewRomanPSMT-35" d="M 2778 4238 
L 2534 3706 
L 1259 3706 
L 981 3138 
Q 1809 3016 2294 2522 
Q 2709 2097 2709 1522 
Q 2709 1188 2573 903 
Q 2438 619 2231 419 
Q 2025 219 1772 97 
Q 1413 -75 1034 -75 
Q 653 -75 479 54 
Q 306 184 306 341 
Q 306 428 378 495 
Q 450 563 559 563 
Q 641 563 702 538 
Q 763 513 909 409 
Q 1144 247 1384 247 
Q 1750 247 2026 523 
Q 2303 800 2303 1197 
Q 2303 1581 2056 1914 
Q 1809 2247 1375 2428 
Q 1034 2569 447 2591 
L 1259 4238 
L 2778 4238 
z
" transform="scale(0.015625)"/>
     </defs>
     <use xlink:href="#TimesNewRomanPSMT-35"/>
     <use xlink:href="#TimesNewRomanPSMT-2e" transform="translate(50 0)"/>
     <use xlink:href="#TimesNewRomanPSMT-30" transform="translate(75 0)"/>
     <use xlink:href="#TimesNewRomanPSMT-30" transform="translate(125 0)"/>
    </g>
   </g>
   <g id="text_10">
    <!-- 100.00(%) -->
    <g transform="translate(111.67533 32.965625) scale(0.12 -0.12)">
     <defs>
      <path id="TimesNewRomanPSMT-31" d="M 750 3822 
L 1781 4325 
L 1884 4325 
L 1884 747 
Q 1884 391 1914 303 
Q 1944 216 2037 169 
Q 2131 122 2419 116 
L 2419 0 
L 825 0 
L 825 116 
Q 1125 122 1212 167 
Q 1300 213 1334 289 
Q 1369 366 1369 747 
L 1369 3034 
Q 1369 3497 1338 3628 
Q 1316 3728 1258 3775 
Q 1200 3822 1119 3822 
Q 1003 3822 797 3725 
L 750 3822 
z
" transform="scale(0.015625)"/>
      <path id="TimesNewRomanPSMT-25" d="M 4350 4334 
L 1263 -175 
L 984 -175 
L 4072 4334 
L 4350 4334 
z
M 1138 4334 
Q 1559 4334 1792 3984 
Q 2025 3634 2025 3181 
Q 2025 2638 1762 2341 
Q 1500 2044 1131 2044 
Q 884 2044 678 2180 
Q 472 2316 348 2584 
Q 225 2853 225 3181 
Q 225 3509 350 3786 
Q 475 4063 692 4198 
Q 909 4334 1138 4334 
z
M 1128 4159 
Q 969 4159 845 3971 
Q 722 3784 722 3184 
Q 722 2750 791 2522 
Q 844 2350 956 2256 
Q 1022 2200 1119 2200 
Q 1269 2200 1375 2363 
Q 1531 2603 1531 3166 
Q 1531 3759 1378 4000 
Q 1278 4159 1128 4159 
z
M 4206 2103 
Q 4428 2103 4648 1962 
Q 4869 1822 4989 1553 
Q 5109 1284 5109 963 
Q 5109 409 4843 117 
Q 4578 -175 4216 -175 
Q 3988 -175 3773 -34 
Q 3559 106 3436 367 
Q 3313 628 3313 963 
Q 3313 1291 3436 1562 
Q 3559 1834 3773 1968 
Q 3988 2103 4206 2103 
z
M 4209 1938 
Q 4059 1938 3950 1769 
Q 3809 1550 3809 941 
Q 3809 381 3953 159 
Q 4059 0 4209 0 
Q 4353 0 4466 172 
Q 4616 400 4616 956 
Q 4616 1544 4466 1778 
Q 4363 1938 4209 1938 
z
" transform="scale(0.015625)"/>
     </defs>
     <use xlink:href="#TimesNewRomanPSMT-31"/>
     <use xlink:href="#TimesNewRomanPSMT-30" transform="translate(50 0)"/>
     <use xlink:href="#TimesNewRomanPSMT-30" transform="translate(100 0)"/>
     <use xlink:href="#TimesNewRomanPSMT-2e" transform="translate(150 0)"/>
     <use xlink:href="#TimesNewRomanPSMT-30" transform="translate(175 0)"/>
     <use xlink:href="#TimesNewRomanPSMT-30" transform="translate(225 0)"/>
     <use xlink:href="#TimesNewRomanPSMT-28" transform="translate(275 0)"/>
     <use xlink:href="#TimesNewRomanPSMT-25" transform="translate(308.300781 0)"/>
     <use xlink:href="#TimesNewRomanPSMT-29" transform="translate(391.601562 0)"/>
    </g>
   </g>
   <g id="text_11">
    <!-- 10.00 -->
    <g transform="translate(123.668767 401.540818) scale(0.12 -0.12)">
     <use xlink:href="#TimesNewRomanPSMT-31"/>
     <use xlink:href="#TimesNewRomanPSMT-30" transform="translate(50 0)"/>
     <use xlink:href="#TimesNewRomanPSMT-2e" transform="translate(100 0)"/>
     <use xlink:href="#TimesNewRomanPSMT-30" transform="translate(125 0)"/>
     <use xlink:href="#TimesNewRomanPSMT-30" transform="translate(175 0)"/>
    </g>
   </g>
   <g id="text_12">
    <!-- 500.00(USD millions) -->
    <g transform="translate(171.681909 32.965625) scale(0.12 -0.12)">
     <defs>
      <path id="TimesNewRomanPSMT-55" d="M 3053 4122 
L 3053 4238 
L 4553 4238 
L 4553 4122 
L 4394 4122 
Q 4144 4122 4009 3913 
Q 3944 3816 3944 3463 
L 3944 1744 
Q 3944 1106 3817 754 
Q 3691 403 3320 151 
Q 2950 -100 2313 -100 
Q 1619 -100 1259 140 
Q 900 381 750 788 
Q 650 1066 650 1831 
L 650 3488 
Q 650 3878 542 4000 
Q 434 4122 194 4122 
L 34 4122 
L 34 4238 
L 1866 4238 
L 1866 4122 
L 1703 4122 
Q 1441 4122 1328 3956 
Q 1250 3844 1250 3488 
L 1250 1641 
Q 1250 1394 1295 1075 
Q 1341 756 1459 578 
Q 1578 400 1801 284 
Q 2025 169 2350 169 
Q 2766 169 3094 350 
Q 3422 531 3542 814 
Q 3663 1097 3663 1772 
L 3663 3488 
Q 3663 3884 3575 3984 
Q 3453 4122 3213 4122 
L 3053 4122 
z
" transform="scale(0.015625)"/>
      <path id="TimesNewRomanPSMT-44" d="M 109 0 
L 109 116 
L 269 116 
Q 538 116 650 288 
Q 719 391 719 750 
L 719 3488 
Q 719 3884 631 3984 
Q 509 4122 269 4122 
L 109 4122 
L 109 4238 
L 1834 4238 
Q 2784 4238 3279 4022 
Q 3775 3806 4076 3303 
Q 4378 2800 4378 2141 
Q 4378 1256 3841 663 
Q 3238 0 2003 0 
L 109 0 
z
M 1319 306 
Q 1716 219 1984 219 
Q 2709 219 3187 728 
Q 3666 1238 3666 2109 
Q 3666 2988 3187 3494 
Q 2709 4000 1959 4000 
Q 1678 4000 1319 3909 
L 1319 306 
z
" transform="scale(0.015625)"/>
     </defs>
     <use xlink:href="#TimesNewRomanPSMT-35"/>
     <use xlink:href="#TimesNewRomanPSMT-30" transform="translate(50 0)"/>
     <use xlink:href="#TimesNewRomanPSMT-30" transform="translate(100 0)"/>
     <use xlink:href="#TimesNewRomanPSMT-2e" transform="translate(150 0)"/>
     <use xlink:href="#TimesNewRomanPSMT-30" transform="translate(175 0)"/>
     <use xlink:href="#TimesNewRomanPSMT-30" transform="translate(225 0)"/>
     <use xlink:href="#TimesNewRomanPSMT-28" transform="translate(275 0)"/>
     <use xlink:href="#TimesNewRomanPSMT-55" transform="translate(308.300781 0)"/>
     <use xlink:href="#TimesNewRomanPSMT-53" transform="translate(380.517578 0)"/>
     <use xlink:href="#TimesNewRomanPSMT-44" transform="translate(436.132812 0)"/>
     <use xlink:href="#TimesNewRomanPSMT-20" transform="translate(508.349609 0)"/>
     <use xlink:href="#TimesNewRomanPSMT-6d" transform="translate(533.349609 0)"/>
     <use xlink:href="#TimesNewRomanPSMT-69" transform="translate(611.132812 0)"/>
     <use xlink:href="#TimesNewRomanPSMT-6c" transform="translate(638.916016 0)"/>
     <use xlink:href="#TimesNewRomanPSMT-6c" transform="translate(666.699219 0)"/>
     <use xlink:href="#TimesNewRomanPSMT-69" transform="translate(694.482422 0)"/>
     <use xlink:href="#TimesNewRomanPSMT-6f" transform="translate(722.265625 0)"/>
     <use xlink:href="#TimesNewRomanPSMT-6e" transform="translate(772.265625 0)"/>
     <use xlink:href="#TimesNewRomanPSMT-73" transform="translate(822.265625 0)"/>
     <use xlink:href="#TimesNewRomanPSMT-29" transform="translate(861.181641 0)"/>
    </g>
   </g>
   <g id="text_13">
    <!-- 0.10 -->
    <g transform="translate(214.850034 401.540818) scale(0.12 -0.12)">
     <use xlink:href="#TimesNewRomanPSMT-30"/>
     <use xlink:href="#TimesNewRomanPSMT-2e" transform="translate(50 0)"/>
     <use xlink:href="#TimesNewRomanPSMT-31" transform="translate(75 0)"/>
     <use xlink:href="#TimesNewRomanPSMT-30" transform="translate(125 0)"/>
    </g>
   </g>
   <g id="text_14">
    <!-- 99.00(percentile) -->
    <g transform="translate(272.383489 32.965625) scale(0.12 -0.12)">
     <defs>
      <path id="TimesNewRomanPSMT-39" d="M 338 -88 
L 338 28 
Q 744 34 1094 217 
Q 1444 400 1770 856 
Q 2097 1313 2225 1859 
Q 1734 1544 1338 1544 
Q 891 1544 572 1889 
Q 253 2234 253 2806 
Q 253 3363 572 3797 
Q 956 4325 1575 4325 
Q 2097 4325 2469 3894 
Q 2925 3359 2925 2575 
Q 2925 1869 2578 1258 
Q 2231 647 1613 244 
Q 1109 -88 516 -88 
L 338 -88 
z
M 2275 2091 
Q 2331 2497 2331 2741 
Q 2331 3044 2228 3395 
Q 2125 3747 1936 3934 
Q 1747 4122 1506 4122 
Q 1228 4122 1018 3872 
Q 809 3622 809 3128 
Q 809 2469 1088 2097 
Q 1291 1828 1588 1828 
Q 1731 1828 1928 1897 
Q 2125 1966 2275 2091 
z
" transform="scale(0.015625)"/>
     </defs>
     <use xlink:href="#TimesNewRomanPSMT-39"/>
     <use xlink:href="#TimesNewRomanPSMT-39" transform="translate(50 0)"/>
     <use xlink:href="#TimesNewRomanPSMT-2e" transform="translate(100 0)"/>
     <use xlink:href="#TimesNewRomanPSMT-30" transform="translate(125 0)"/>
     <use xlink:href="#TimesNewRomanPSMT-30" transform="translate(175 0)"/>
     <use xlink:href="#TimesNewRomanPSMT-28" transform="translate(225 0)"/>
     <use xlink:href="#TimesNewRomanPSMT-70" transform="translate(258.300781 0)"/>
     <use xlink:href="#TimesNewRomanPSMT-65" transform="translate(308.300781 0)"/>
     <use xlink:href="#TimesNewRomanPSMT-72" transform="translate(352.685547 0)"/>
     <use xlink:href="#TimesNewRomanPSMT-63" transform="translate(385.986328 0)"/>
     <use xlink:href="#TimesNewRomanPSMT-65" transform="translate(430.371094 0)"/>
     <use xlink:href="#TimesNewRomanPSMT-6e" transform="translate(474.755859 0)"/>
     <use xlink:href="#TimesNewRomanPSMT-74" transform="translate(524.755859 0)"/>
     <use xlink:href="#TimesNewRomanPSMT-69" transform="translate(552.539062 0)"/>
     <use xlink:href="#TimesNewRomanPSMT-6c" transform="translate(580.322266 0)"/>
     <use xlink:href="#TimesNewRomanPSMT-65" transform="translate(608.105469 0)"/>
     <use xlink:href="#TimesNewRomanPSMT-29" transform="translate(652.490234 0)"/>
    </g>
   </g>
   <g id="text_15">
    <!-- 1.00 -->
    <g transform="translate(303.031302 401.540818) scale(0.12 -0.12)">
     <use xlink:href="#TimesNewRomanPSMT-31"/>
     <use xlink:href="#TimesNewRomanPSMT-2e" transform="translate(50 0)"/>
     <use xlink:href="#TimesNewRomanPSMT-30" transform="translate(75 0)"/>
     <use xlink:href="#TimesNewRomanPSMT-30" transform="translate(125 0)"/>
    </g>
   </g>
   <g id="text_16">
    <!-- 100.00(%) -->
    <g transform="translate(376.219131 32.965625) scale(0.12 -0.12)">
     <use xlink:href="#TimesNewRomanPSMT-31"/>
     <use xlink:href="#TimesNewRomanPSMT-30" transform="translate(50 0)"/>
     <use xlink:href="#TimesNewRomanPSMT-30" transform="translate(100 0)"/>
     <use xlink:href="#TimesNewRomanPSMT-2e" transform="translate(150 0)"/>
     <use xlink:href="#TimesNewRomanPSMT-30" transform="translate(175 0)"/>
     <use xlink:href="#TimesNewRomanPSMT-30" transform="translate(225 0)"/>
     <use xlink:href="#TimesNewRomanPSMT-28" transform="translate(275 0)"/>
     <use xlink:href="#TimesNewRomanPSMT-25" transform="translate(308.300781 0)"/>
     <use xlink:href="#TimesNewRomanPSMT-29" transform="translate(391.601562 0)"/>
    </g>
   </g>
   <g id="text_17">
    <!-- 30.00 -->
    <g transform="translate(388.212569 401.540818) scale(0.12 -0.12)">
     <use xlink:href="#TimesNewRomanPSMT-33"/>
     <use xlink:href="#TimesNewRomanPSMT-30" transform="translate(50 0)"/>
     <use xlink:href="#TimesNewRomanPSMT-2e" transform="translate(100 0)"/>
     <use xlink:href="#TimesNewRomanPSMT-30" transform="translate(125 0)"/>
     <use xlink:href="#TimesNewRomanPSMT-30" transform="translate(175 0)"/>
    </g>
   </g>
   <g id="text_18">
    <!-- 100.00(%) -->
    <g transform="translate(464.400399 32.965625) scale(0.12 -0.12)">
     <use xlink:href="#TimesNewRomanPSMT-31"/>
     <use xlink:href="#TimesNewRomanPSMT-30" transform="translate(50 0)"/>
     <use xlink:href="#TimesNewRomanPSMT-30" transform="translate(100 0)"/>
     <use xlink:href="#TimesNewRomanPSMT-2e" transform="translate(150 0)"/>
     <use xlink:href="#TimesNewRomanPSMT-30" transform="translate(175 0)"/>
     <use xlink:href="#TimesNewRomanPSMT-30" transform="translate(225 0)"/>
     <use xlink:href="#TimesNewRomanPSMT-28" transform="translate(275 0)"/>
     <use xlink:href="#TimesNewRomanPSMT-25" transform="translate(308.300781 0)"/>
     <use xlink:href="#TimesNewRomanPSMT-29" transform="translate(391.601562 0)"/>
    </g>
   </g>
   <g id="text_19">
    <!-- 50.00 -->
    <g transform="translate(476.393836 401.540818) scale(0.12 -0.12)">
     <use xlink:href="#TimesNewRomanPSMT-35"/>
     <use xlink:href="#TimesNewRomanPSMT-30" transform="translate(50 0)"/>
     <use xlink:href="#TimesNewRomanPSMT-2e" transform="translate(100 0)"/>
     <use xlink:href="#TimesNewRomanPSMT-30" transform="translate(125 0)"/>
     <use xlink:href="#TimesNewRomanPSMT-30" transform="translate(175 0)"/>
    </g>
   </g>
   <g id="text_20">
    <!-- 50.00(%) -->
    <g transform="translate(555.581666 32.965625) scale(0.12 -0.12)">
     <use xlink:href="#TimesNewRomanPSMT-35"/>
     <use xlink:href="#TimesNewRomanPSMT-30" transform="translate(50 0)"/>
     <use xlink:href="#TimesNewRomanPSMT-2e" transform="translate(100 0)"/>
     <use xlink:href="#TimesNewRomanPSMT-30" transform="translate(125 0)"/>
     <use xlink:href="#TimesNewRomanPSMT-30" transform="translate(175 0)"/>
     <use xlink:href="#TimesNewRomanPSMT-28" transform="translate(225 0)"/>
     <use xlink:href="#TimesNewRomanPSMT-25" transform="translate(258.300781 0)"/>
     <use xlink:href="#TimesNewRomanPSMT-29" transform="translate(341.601562 0)"/>
    </g>
   </g>
   <g id="text_21">
    <!-- 1.00 -->
    <g transform="translate(567.575103 401.540818) scale(0.12 -0.12)">
     <use xlink:href="#TimesNewRomanPSMT-31"/>
     <use xlink:href="#TimesNewRomanPSMT-2e" transform="translate(50 0)"/>
     <use xlink:href="#TimesNewRomanPSMT-30" transform="translate(75 0)"/>
     <use xlink:href="#TimesNewRomanPSMT-30" transform="translate(125 0)"/>
    </g>
   </g>
   <g id="text_22">
    <!-- HEIs Performance -->
    <g transform="translate(269.049739 15.5325) scale(0.12 -0.12)">
     <defs>
      <path id="TimesNewRomanPSMT-48" d="M 1316 2272 
L 3284 2272 
L 3284 3484 
Q 3284 3809 3244 3913 
Q 3213 3991 3113 4047 
Q 2978 4122 2828 4122 
L 2678 4122 
L 2678 4238 
L 4491 4238 
L 4491 4122 
L 4341 4122 
Q 4191 4122 4056 4050 
Q 3956 4000 3920 3898 
Q 3884 3797 3884 3484 
L 3884 750 
Q 3884 428 3925 325 
Q 3956 247 4053 191 
Q 4191 116 4341 116 
L 4491 116 
L 4491 0 
L 2678 0 
L 2678 116 
L 2828 116 
Q 3088 116 3206 269 
Q 3284 369 3284 750 
L 3284 2041 
L 1316 2041 
L 1316 750 
Q 1316 428 1356 325 
Q 1388 247 1488 191 
Q 1622 116 1772 116 
L 1925 116 
L 1925 0 
L 109 0 
L 109 116 
L 259 116 
Q 522 116 641 269 
Q 716 369 716 750 
L 716 3484 
Q 716 3809 675 3913 
Q 644 3991 547 4047 
Q 409 4122 259 4122 
L 109 4122 
L 109 4238 
L 1925 4238 
L 1925 4122 
L 1772 4122 
Q 1622 4122 1488 4050 
Q 1391 4000 1353 3898 
Q 1316 3797 1316 3484 
L 1316 2272 
z
" transform="scale(0.015625)"/>
      <path id="TimesNewRomanPSMT-45" d="M 1338 4006 
L 1338 2331 
L 2269 2331 
Q 2631 2331 2753 2441 
Q 2916 2584 2934 2947 
L 3050 2947 
L 3050 1472 
L 2934 1472 
Q 2891 1781 2847 1869 
Q 2791 1978 2662 2040 
Q 2534 2103 2269 2103 
L 1338 2103 
L 1338 706 
Q 1338 425 1363 364 
Q 1388 303 1450 267 
Q 1513 231 1688 231 
L 2406 231 
Q 2766 231 2928 281 
Q 3091 331 3241 478 
Q 3434 672 3638 1063 
L 3763 1063 
L 3397 0 
L 131 0 
L 131 116 
L 281 116 
Q 431 116 566 188 
Q 666 238 702 338 
Q 738 438 738 747 
L 738 3500 
Q 738 3903 656 3997 
Q 544 4122 281 4122 
L 131 4122 
L 131 4238 
L 3397 4238 
L 3444 3309 
L 3322 3309 
Q 3256 3644 3176 3769 
Q 3097 3894 2941 3959 
Q 2816 4006 2500 4006 
L 1338 4006 
z
" transform="scale(0.015625)"/>
      <path id="TimesNewRomanPSMT-49" d="M 1975 116 
L 1975 0 
L 159 0 
L 159 116 
L 309 116 
Q 572 116 691 269 
Q 766 369 766 750 
L 766 3488 
Q 766 3809 725 3913 
Q 694 3991 597 4047 
Q 459 4122 309 4122 
L 159 4122 
L 159 4238 
L 1975 4238 
L 1975 4122 
L 1822 4122 
Q 1563 4122 1444 3969 
Q 1366 3869 1366 3488 
L 1366 750 
Q 1366 428 1406 325 
Q 1438 247 1538 191 
Q 1672 116 1822 116 
L 1975 116 
z
" transform="scale(0.015625)"/>
      <path id="TimesNewRomanPSMT-50" d="M 1313 1984 
L 1313 750 
Q 1313 350 1400 253 
Q 1519 116 1759 116 
L 1922 116 
L 1922 0 
L 106 0 
L 106 116 
L 266 116 
Q 534 116 650 291 
Q 713 388 713 750 
L 713 3488 
Q 713 3888 628 3984 
Q 506 4122 266 4122 
L 106 4122 
L 106 4238 
L 1659 4238 
Q 2228 4238 2556 4120 
Q 2884 4003 3109 3725 
Q 3334 3447 3334 3066 
Q 3334 2547 2992 2222 
Q 2650 1897 2025 1897 
Q 1872 1897 1694 1919 
Q 1516 1941 1313 1984 
z
M 1313 2163 
Q 1478 2131 1606 2115 
Q 1734 2100 1825 2100 
Q 2150 2100 2386 2351 
Q 2622 2603 2622 3003 
Q 2622 3278 2509 3514 
Q 2397 3750 2190 3867 
Q 1984 3984 1722 3984 
Q 1563 3984 1313 3925 
L 1313 2163 
z
" transform="scale(0.015625)"/>
     </defs>
     <use xlink:href="#TimesNewRomanPSMT-48"/>
     <use xlink:href="#TimesNewRomanPSMT-45" transform="translate(72.216797 0)"/>
     <use xlink:href="#TimesNewRomanPSMT-49" transform="translate(133.300781 0)"/>
     <use xlink:href="#TimesNewRomanPSMT-73" transform="translate(166.601562 0)"/>
     <use xlink:href="#TimesNewRomanPSMT-20" transform="translate(205.517578 0)"/>
     <use xlink:href="#TimesNewRomanPSMT-50" transform="translate(230.517578 0)"/>
     <use xlink:href="#TimesNewRomanPSMT-65" transform="translate(286.132812 0)"/>
     <use xlink:href="#TimesNewRomanPSMT-72" transform="translate(330.517578 0)"/>
     <use xlink:href="#TimesNewRomanPSMT-66" transform="translate(363.818359 0)"/>
     <use xlink:href="#TimesNewRomanPSMT-6f" transform="translate(397.119141 0)"/>
     <use xlink:href="#TimesNewRomanPSMT-72" transform="translate(447.119141 0)"/>
     <use xlink:href="#TimesNewRomanPSMT-6d" transform="translate(480.419922 0)"/>
     <use xlink:href="#TimesNewRomanPSMT-61" transform="translate(558.203125 0)"/>
     <use xlink:href="#TimesNewRomanPSMT-6e" transform="translate(602.587891 0)"/>
     <use xlink:href="#TimesNewRomanPSMT-63" transform="translate(652.587891 0)"/>
     <use xlink:href="#TimesNewRomanPSMT-65" transform="translate(696.972656 0)"/>
    </g>
   </g>
   <g id="legend_1">
    <g id="patch_3">
     <path d="M 669.72912 142.599687 
L 842.36037 142.599687 
Q 844.36037 142.599687 844.36037 140.599687 
L 844.36037 42.5325 
Q 844.36037 40.5325 842.36037 40.5325 
L 669.72912 40.5325 
Q 667.72912 40.5325 667.72912 42.5325 
L 667.72912 140.599687 
Q 667.72912 142.599687 669.72912 142.599687 
z
" style="fill: #ffffff; opacity: 0.8; stroke: #cccccc; stroke-linejoin: miter"/>
    </g>
    <g id="line2d_22">
     <path d="M 671.72912 48.0325 
L 681.72912 48.0325 
L 691.72912 48.0325 
" style="fill: none; stroke: #7b4173; stroke-opacity: 0.7; stroke-width: 2; stroke-linecap: square"/>
    </g>
    <g id="text_23">
     <!-- Watts-Barnes  University -->
     <g transform="translate(699.72912 51.5325) scale(0.1 -0.1)">
      <defs>
       <path id="TimesNewRomanPSMT-57" d="M 5991 4238 
L 5991 4122 
Q 5825 4122 5722 4062 
Q 5619 4003 5525 3841 
Q 5463 3731 5328 3319 
L 4147 -97 
L 4022 -97 
L 3056 2613 
L 2097 -97 
L 1984 -97 
L 725 3422 
Q 584 3816 547 3888 
Q 484 4006 376 4064 
Q 269 4122 84 4122 
L 84 4238 
L 1653 4238 
L 1653 4122 
L 1578 4122 
Q 1413 4122 1325 4047 
Q 1238 3972 1238 3866 
Q 1238 3756 1375 3363 
L 2209 984 
L 2913 3006 
L 2788 3363 
L 2688 3647 
Q 2622 3803 2541 3922 
Q 2500 3981 2441 4022 
Q 2363 4078 2284 4103 
Q 2225 4122 2097 4122 
L 2097 4238 
L 3747 4238 
L 3747 4122 
L 3634 4122 
Q 3459 4122 3378 4047 
Q 3297 3972 3297 3844 
Q 3297 3684 3438 3288 
L 4250 984 
L 5056 3319 
Q 5194 3706 5194 3856 
Q 5194 3928 5148 3990 
Q 5103 4053 5034 4078 
Q 4916 4122 4725 4122 
L 4725 4238 
L 5991 4238 
z
" transform="scale(0.015625)"/>
       <path id="TimesNewRomanPSMT-42" d="M 2956 2163 
Q 3397 2069 3616 1863 
Q 3919 1575 3919 1159 
Q 3919 844 3719 555 
Q 3519 266 3170 133 
Q 2822 0 2106 0 
L 106 0 
L 106 116 
L 266 116 
Q 531 116 647 284 
Q 719 394 719 750 
L 719 3488 
Q 719 3881 628 3984 
Q 506 4122 266 4122 
L 106 4122 
L 106 4238 
L 1938 4238 
Q 2450 4238 2759 4163 
Q 3228 4050 3475 3764 
Q 3722 3478 3722 3106 
Q 3722 2788 3528 2536 
Q 3334 2284 2956 2163 
z
M 1319 2331 
Q 1434 2309 1582 2298 
Q 1731 2288 1909 2288 
Q 2366 2288 2595 2386 
Q 2825 2484 2947 2687 
Q 3069 2891 3069 3131 
Q 3069 3503 2766 3765 
Q 2463 4028 1881 4028 
Q 1569 4028 1319 3959 
L 1319 2331 
z
M 1319 306 
Q 1681 222 2034 222 
Q 2600 222 2897 476 
Q 3194 731 3194 1106 
Q 3194 1353 3059 1581 
Q 2925 1809 2622 1940 
Q 2319 2072 1872 2072 
Q 1678 2072 1540 2065 
Q 1403 2059 1319 2044 
L 1319 306 
z
" transform="scale(0.015625)"/>
       <path id="TimesNewRomanPSMT-76" d="M 53 2863 
L 1400 2863 
L 1400 2747 
L 1313 2747 
Q 1191 2747 1127 2687 
Q 1063 2628 1063 2528 
Q 1063 2419 1128 2269 
L 1794 688 
L 2463 2328 
Q 2534 2503 2534 2594 
Q 2534 2638 2509 2666 
Q 2475 2713 2422 2730 
Q 2369 2747 2206 2747 
L 2206 2863 
L 3141 2863 
L 3141 2747 
Q 2978 2734 2916 2681 
Q 2806 2588 2719 2369 
L 1703 -88 
L 1575 -88 
L 553 2328 
Q 484 2497 421 2570 
Q 359 2644 263 2694 
Q 209 2722 53 2747 
L 53 2863 
z
" transform="scale(0.015625)"/>
      </defs>
      <use xlink:href="#TimesNewRomanPSMT-57"/>
      <use xlink:href="#TimesNewRomanPSMT-61" transform="translate(86.384766 0)"/>
      <use xlink:href="#TimesNewRomanPSMT-74" transform="translate(130.769531 0)"/>
      <use xlink:href="#TimesNewRomanPSMT-74" transform="translate(158.552734 0)"/>
      <use xlink:href="#TimesNewRomanPSMT-73" transform="translate(186.335938 0)"/>
      <use xlink:href="#TimesNewRomanPSMT-2d" transform="translate(225.251953 0)"/>
      <use xlink:href="#TimesNewRomanPSMT-42" transform="translate(258.552734 0)"/>
      <use xlink:href="#TimesNewRomanPSMT-61" transform="translate(325.251953 0)"/>
      <use xlink:href="#TimesNewRomanPSMT-72" transform="translate(369.636719 0)"/>
      <use xlink:href="#TimesNewRomanPSMT-6e" transform="translate(402.9375 0)"/>
      <use xlink:href="#TimesNewRomanPSMT-65" transform="translate(452.9375 0)"/>
      <use xlink:href="#TimesNewRomanPSMT-73" transform="translate(497.322266 0)"/>
      <use xlink:href="#TimesNewRomanPSMT-20" transform="translate(536.238281 0)"/>
      <use xlink:href="#TimesNewRomanPSMT-20" transform="translate(561.238281 0)"/>
      <use xlink:href="#TimesNewRomanPSMT-55" transform="translate(586.238281 0)"/>
      <use xlink:href="#TimesNewRomanPSMT-6e" transform="translate(658.455078 0)"/>
      <use xlink:href="#TimesNewRomanPSMT-69" transform="translate(708.455078 0)"/>
      <use xlink:href="#TimesNewRomanPSMT-76" transform="translate(736.238281 0)"/>
      <use xlink:href="#TimesNewRomanPSMT-65" transform="translate(786.238281 0)"/>
      <use xlink:href="#TimesNewRomanPSMT-72" transform="translate(830.623047 0)"/>
      <use xlink:href="#TimesNewRomanPSMT-73" transform="translate(863.923828 0)"/>
      <use xlink:href="#TimesNewRomanPSMT-69" transform="translate(902.839844 0)"/>
      <use xlink:href="#TimesNewRomanPSMT-74" transform="translate(930.623047 0)"/>
      <use xlink:href="#TimesNewRomanPSMT-79" transform="translate(958.40625 0)"/>
     </g>
    </g>
    <g id="line2d_23">
     <path d="M 671.72912 62.190312 
L 681.72912 62.190312 
L 691.72912 62.190312 
" style="fill: none; stroke: #8c6d31; stroke-opacity: 0.7; stroke-width: 2; stroke-linecap: square"/>
    </g>
    <g id="text_24">
     <!-- Estrada, Walton and Wise  Institute -->
     <g transform="translate(699.72912 65.690312) scale(0.1 -0.1)">
      <defs>
       <path id="TimesNewRomanPSMT-2c" d="M 344 -1066 
L 344 -928 
Q 666 -822 842 -598 
Q 1019 -375 1019 -125 
Q 1019 -66 991 -25 
Q 969 3 947 3 
Q 913 3 797 -59 
Q 741 -88 678 -88 
Q 525 -88 434 3 
Q 344 94 344 253 
Q 344 406 461 515 
Q 578 625 747 625 
Q 953 625 1114 445 
Q 1275 266 1275 -31 
Q 1275 -353 1051 -629 
Q 828 -906 344 -1066 
z
" transform="scale(0.015625)"/>
      </defs>
      <use xlink:href="#TimesNewRomanPSMT-45"/>
      <use xlink:href="#TimesNewRomanPSMT-73" transform="translate(61.083984 0)"/>
      <use xlink:href="#TimesNewRomanPSMT-74" transform="translate(100 0)"/>
      <use xlink:href="#TimesNewRomanPSMT-72" transform="translate(127.783203 0)"/>
      <use xlink:href="#TimesNewRomanPSMT-61" transform="translate(161.083984 0)"/>
      <use xlink:href="#TimesNewRomanPSMT-64" transform="translate(205.46875 0)"/>
      <use xlink:href="#TimesNewRomanPSMT-61" transform="translate(255.46875 0)"/>
      <use xlink:href="#TimesNewRomanPSMT-2c" transform="translate(299.853516 0)"/>
      <use xlink:href="#TimesNewRomanPSMT-20" transform="translate(324.853516 0)"/>
      <use xlink:href="#TimesNewRomanPSMT-57" transform="translate(348.103516 0)"/>
      <use xlink:href="#TimesNewRomanPSMT-61" transform="translate(434.488281 0)"/>
      <use xlink:href="#TimesNewRomanPSMT-6c" transform="translate(478.873047 0)"/>
      <use xlink:href="#TimesNewRomanPSMT-74" transform="translate(506.65625 0)"/>
      <use xlink:href="#TimesNewRomanPSMT-6f" transform="translate(534.439453 0)"/>
      <use xlink:href="#TimesNewRomanPSMT-6e" transform="translate(584.439453 0)"/>
      <use xlink:href="#TimesNewRomanPSMT-20" transform="translate(634.439453 0)"/>
      <use xlink:href="#TimesNewRomanPSMT-61" transform="translate(659.439453 0)"/>
      <use xlink:href="#TimesNewRomanPSMT-6e" transform="translate(703.824219 0)"/>
      <use xlink:href="#TimesNewRomanPSMT-64" transform="translate(753.824219 0)"/>
      <use xlink:href="#TimesNewRomanPSMT-20" transform="translate(803.824219 0)"/>
      <use xlink:href="#TimesNewRomanPSMT-57" transform="translate(827.074219 0)"/>
      <use xlink:href="#TimesNewRomanPSMT-69" transform="translate(917.458984 0)"/>
      <use xlink:href="#TimesNewRomanPSMT-73" transform="translate(945.242188 0)"/>
      <use xlink:href="#TimesNewRomanPSMT-65" transform="translate(984.158203 0)"/>
      <use xlink:href="#TimesNewRomanPSMT-20" transform="translate(1028.542969 0)"/>
      <use xlink:href="#TimesNewRomanPSMT-20" transform="translate(1053.542969 0)"/>
      <use xlink:href="#TimesNewRomanPSMT-49" transform="translate(1078.542969 0)"/>
      <use xlink:href="#TimesNewRomanPSMT-6e" transform="translate(1111.84375 0)"/>
      <use xlink:href="#TimesNewRomanPSMT-73" transform="translate(1161.84375 0)"/>
      <use xlink:href="#TimesNewRomanPSMT-74" transform="translate(1200.759766 0)"/>
      <use xlink:href="#TimesNewRomanPSMT-69" transform="translate(1228.542969 0)"/>
      <use xlink:href="#TimesNewRomanPSMT-74" transform="translate(1256.326172 0)"/>
      <use xlink:href="#TimesNewRomanPSMT-75" transform="translate(1284.109375 0)"/>
      <use xlink:href="#TimesNewRomanPSMT-74" transform="translate(1334.109375 0)"/>
      <use xlink:href="#TimesNewRomanPSMT-65" transform="translate(1361.892578 0)"/>
     </g>
    </g>
    <g id="line2d_24">
     <path d="M 671.72912 76.329375 
L 681.72912 76.329375 
L 691.72912 76.329375 
" style="fill: none; stroke: #17becf; stroke-opacity: 0.7; stroke-width: 2; stroke-linecap: square"/>
    </g>
    <g id="text_25">
     <!-- Perry Group  School -->
     <g transform="translate(699.72912 79.829375) scale(0.1 -0.1)">
      <use xlink:href="#TimesNewRomanPSMT-50"/>
      <use xlink:href="#TimesNewRomanPSMT-65" transform="translate(55.615234 0)"/>
      <use xlink:href="#TimesNewRomanPSMT-72" transform="translate(100 0)"/>
      <use xlink:href="#TimesNewRomanPSMT-72" transform="translate(133.300781 0)"/>
      <use xlink:href="#TimesNewRomanPSMT-79" transform="translate(166.601562 0)"/>
      <use xlink:href="#TimesNewRomanPSMT-20" transform="translate(216.601562 0)"/>
      <use xlink:href="#TimesNewRomanPSMT-47" transform="translate(241.601562 0)"/>
      <use xlink:href="#TimesNewRomanPSMT-72" transform="translate(313.818359 0)"/>
      <use xlink:href="#TimesNewRomanPSMT-6f" transform="translate(347.119141 0)"/>
      <use xlink:href="#TimesNewRomanPSMT-75" transform="translate(397.119141 0)"/>
      <use xlink:href="#TimesNewRomanPSMT-70" transform="translate(447.119141 0)"/>
      <use xlink:href="#TimesNewRomanPSMT-20" transform="translate(497.119141 0)"/>
      <use xlink:href="#TimesNewRomanPSMT-20" transform="translate(522.119141 0)"/>
      <use xlink:href="#TimesNewRomanPSMT-53" transform="translate(547.119141 0)"/>
      <use xlink:href="#TimesNewRomanPSMT-63" transform="translate(602.734375 0)"/>
      <use xlink:href="#TimesNewRomanPSMT-68" transform="translate(647.119141 0)"/>
      <use xlink:href="#TimesNewRomanPSMT-6f" transform="translate(697.119141 0)"/>
      <use xlink:href="#TimesNewRomanPSMT-6f" transform="translate(747.119141 0)"/>
      <use xlink:href="#TimesNewRomanPSMT-6c" transform="translate(797.119141 0)"/>
     </g>
    </g>
    <g id="line2d_25">
     <path d="M 671.72912 90.487187 
L 681.72912 90.487187 
L 691.72912 90.487187 
" style="fill: none; stroke: #2ca02c; stroke-opacity: 0.7; stroke-width: 2; stroke-linecap: square"/>
    </g>
    <g id="text_26">
     <!-- Anderson Group  School -->
     <g transform="translate(699.72912 93.987187) scale(0.1 -0.1)">
      <use xlink:href="#TimesNewRomanPSMT-41"/>
      <use xlink:href="#TimesNewRomanPSMT-6e" transform="translate(72.216797 0)"/>
      <use xlink:href="#TimesNewRomanPSMT-64" transform="translate(122.216797 0)"/>
      <use xlink:href="#TimesNewRomanPSMT-65" transform="translate(172.216797 0)"/>
      <use xlink:href="#TimesNewRomanPSMT-72" transform="translate(216.601562 0)"/>
      <use xlink:href="#TimesNewRomanPSMT-73" transform="translate(249.902344 0)"/>
      <use xlink:href="#TimesNewRomanPSMT-6f" transform="translate(288.818359 0)"/>
      <use xlink:href="#TimesNewRomanPSMT-6e" transform="translate(338.818359 0)"/>
      <use xlink:href="#TimesNewRomanPSMT-20" transform="translate(388.818359 0)"/>
      <use xlink:href="#TimesNewRomanPSMT-47" transform="translate(413.818359 0)"/>
      <use xlink:href="#TimesNewRomanPSMT-72" transform="translate(486.035156 0)"/>
      <use xlink:href="#TimesNewRomanPSMT-6f" transform="translate(519.335938 0)"/>
      <use xlink:href="#TimesNewRomanPSMT-75" transform="translate(569.335938 0)"/>
      <use xlink:href="#TimesNewRomanPSMT-70" transform="translate(619.335938 0)"/>
      <use xlink:href="#TimesNewRomanPSMT-20" transform="translate(669.335938 0)"/>
      <use xlink:href="#TimesNewRomanPSMT-20" transform="translate(694.335938 0)"/>
      <use xlink:href="#TimesNewRomanPSMT-53" transform="translate(719.335938 0)"/>
      <use xlink:href="#TimesNewRomanPSMT-63" transform="translate(774.951172 0)"/>
      <use xlink:href="#TimesNewRomanPSMT-68" transform="translate(819.335938 0)"/>
      <use xlink:href="#TimesNewRomanPSMT-6f" transform="translate(869.335938 0)"/>
      <use xlink:href="#TimesNewRomanPSMT-6f" transform="translate(919.335938 0)"/>
      <use xlink:href="#TimesNewRomanPSMT-6c" transform="translate(969.335938 0)"/>
     </g>
    </g>
    <g id="line2d_26">
     <path d="M 671.72912 104.62625 
L 681.72912 104.62625 
L 691.72912 104.62625 
" style="fill: none; stroke: #8c564b; stroke-opacity: 0.7; stroke-width: 2; stroke-linecap: square"/>
    </g>
    <g id="text_27">
     <!-- Berry-Harris  College -->
     <g transform="translate(699.72912 108.12625) scale(0.1 -0.1)">
      <use xlink:href="#TimesNewRomanPSMT-42"/>
      <use xlink:href="#TimesNewRomanPSMT-65" transform="translate(66.699219 0)"/>
      <use xlink:href="#TimesNewRomanPSMT-72" transform="translate(111.083984 0)"/>
      <use xlink:href="#TimesNewRomanPSMT-72" transform="translate(144.384766 0)"/>
      <use xlink:href="#TimesNewRomanPSMT-79" transform="translate(177.685547 0)"/>
      <use xlink:href="#TimesNewRomanPSMT-2d" transform="translate(227.685547 0)"/>
      <use xlink:href="#TimesNewRomanPSMT-48" transform="translate(260.986328 0)"/>
      <use xlink:href="#TimesNewRomanPSMT-61" transform="translate(333.203125 0)"/>
      <use xlink:href="#TimesNewRomanPSMT-72" transform="translate(377.587891 0)"/>
      <use xlink:href="#TimesNewRomanPSMT-72" transform="translate(410.888672 0)"/>
      <use xlink:href="#TimesNewRomanPSMT-69" transform="translate(444.189453 0)"/>
      <use xlink:href="#TimesNewRomanPSMT-73" transform="translate(471.972656 0)"/>
      <use xlink:href="#TimesNewRomanPSMT-20" transform="translate(510.888672 0)"/>
      <use xlink:href="#TimesNewRomanPSMT-20" transform="translate(535.888672 0)"/>
      <use xlink:href="#TimesNewRomanPSMT-43" transform="translate(560.888672 0)"/>
      <use xlink:href="#TimesNewRomanPSMT-6f" transform="translate(627.587891 0)"/>
      <use xlink:href="#TimesNewRomanPSMT-6c" transform="translate(677.587891 0)"/>
      <use xlink:href="#TimesNewRomanPSMT-6c" transform="translate(705.371094 0)"/>
      <use xlink:href="#TimesNewRomanPSMT-65" transform="translate(733.154297 0)"/>
      <use xlink:href="#TimesNewRomanPSMT-67" transform="translate(777.539062 0)"/>
      <use xlink:href="#TimesNewRomanPSMT-65" transform="translate(827.539062 0)"/>
     </g>
    </g>
    <g id="line2d_27">
     <path d="M 671.72912 118.784062 
L 681.72912 118.784062 
L 691.72912 118.784062 
" style="fill: none; stroke: #aec7e8; stroke-opacity: 0.7; stroke-width: 2; stroke-linecap: square"/>
    </g>
    <g id="text_28">
     <!-- Willis-Bradley  University -->
     <g transform="translate(699.72912 122.284062) scale(0.1 -0.1)">
      <use xlink:href="#TimesNewRomanPSMT-57"/>
      <use xlink:href="#TimesNewRomanPSMT-69" transform="translate(90.384766 0)"/>
      <use xlink:href="#TimesNewRomanPSMT-6c" transform="translate(118.167969 0)"/>
      <use xlink:href="#TimesNewRomanPSMT-6c" transform="translate(145.951172 0)"/>
      <use xlink:href="#TimesNewRomanPSMT-69" transform="translate(173.734375 0)"/>
      <use xlink:href="#TimesNewRomanPSMT-73" transform="translate(201.517578 0)"/>
      <use xlink:href="#TimesNewRomanPSMT-2d" transform="translate(240.433594 0)"/>
      <use xlink:href="#TimesNewRomanPSMT-42" transform="translate(273.734375 0)"/>
      <use xlink:href="#TimesNewRomanPSMT-72" transform="translate(340.433594 0)"/>
      <use xlink:href="#TimesNewRomanPSMT-61" transform="translate(373.734375 0)"/>
      <use xlink:href="#TimesNewRomanPSMT-64" transform="translate(418.119141 0)"/>
      <use xlink:href="#TimesNewRomanPSMT-6c" transform="translate(468.119141 0)"/>
      <use xlink:href="#TimesNewRomanPSMT-65" transform="translate(495.902344 0)"/>
      <use xlink:href="#TimesNewRomanPSMT-79" transform="translate(540.287109 0)"/>
      <use xlink:href="#TimesNewRomanPSMT-20" transform="translate(590.287109 0)"/>
      <use xlink:href="#TimesNewRomanPSMT-20" transform="translate(615.287109 0)"/>
      <use xlink:href="#TimesNewRomanPSMT-55" transform="translate(640.287109 0)"/>
      <use xlink:href="#TimesNewRomanPSMT-6e" transform="translate(712.503906 0)"/>
      <use xlink:href="#TimesNewRomanPSMT-69" transform="translate(762.503906 0)"/>
      <use xlink:href="#TimesNewRomanPSMT-76" transform="translate(790.287109 0)"/>
      <use xlink:href="#TimesNewRomanPSMT-65" transform="translate(840.287109 0)"/>
      <use xlink:href="#TimesNewRomanPSMT-72" transform="translate(884.671875 0)"/>
      <use xlink:href="#TimesNewRomanPSMT-73" transform="translate(917.972656 0)"/>
      <use xlink:href="#TimesNewRomanPSMT-69" transform="translate(956.888672 0)"/>
      <use xlink:href="#TimesNewRomanPSMT-74" transform="translate(984.671875 0)"/>
      <use xlink:href="#TimesNewRomanPSMT-79" transform="translate(1012.455078 0)"/>
     </g>
    </g>
    <g id="line2d_28">
     <path d="M 671.72912 132.941875 
L 681.72912 132.941875 
L 691.72912 132.941875 
" style="fill: none; stroke: #9edae5; stroke-opacity: 0.7; stroke-width: 2; stroke-linecap: square"/>
    </g>
    <g id="text_29">
     <!-- Foster-Wood  College -->
     <g transform="translate(699.72912 136.441875) scale(0.1 -0.1)">
      <use xlink:href="#TimesNewRomanPSMT-46"/>
      <use xlink:href="#TimesNewRomanPSMT-6f" transform="translate(55.615234 0)"/>
      <use xlink:href="#TimesNewRomanPSMT-73" transform="translate(105.615234 0)"/>
      <use xlink:href="#TimesNewRomanPSMT-74" transform="translate(144.53125 0)"/>
      <use xlink:href="#TimesNewRomanPSMT-65" transform="translate(172.314453 0)"/>
      <use xlink:href="#TimesNewRomanPSMT-72" transform="translate(216.699219 0)"/>
      <use xlink:href="#TimesNewRomanPSMT-2d" transform="translate(248 0)"/>
      <use xlink:href="#TimesNewRomanPSMT-57" transform="translate(281.300781 0)"/>
      <use xlink:href="#TimesNewRomanPSMT-6f" transform="translate(367.685547 0)"/>
      <use xlink:href="#TimesNewRomanPSMT-6f" transform="translate(417.685547 0)"/>
      <use xlink:href="#TimesNewRomanPSMT-64" transform="translate(467.685547 0)"/>
      <use xlink:href="#TimesNewRomanPSMT-20" transform="translate(517.685547 0)"/>
      <use xlink:href="#TimesNewRomanPSMT-20" transform="translate(542.685547 0)"/>
      <use xlink:href="#TimesNewRomanPSMT-43" transform="translate(567.685547 0)"/>
      <use xlink:href="#TimesNewRomanPSMT-6f" transform="translate(634.384766 0)"/>
      <use xlink:href="#TimesNewRomanPSMT-6c" transform="translate(684.384766 0)"/>
      <use xlink:href="#TimesNewRomanPSMT-6c" transform="translate(712.167969 0)"/>
      <use xlink:href="#TimesNewRomanPSMT-65" transform="translate(739.951172 0)"/>
      <use xlink:href="#TimesNewRomanPSMT-67" transform="translate(784.335938 0)"/>
      <use xlink:href="#TimesNewRomanPSMT-65" transform="translate(834.335938 0)"/>
     </g>
    </g>
   </g>
  </g>
 </g>
 <defs>
  <clipPath id="p791ae415ba">
   <rect x="22.53312" y="35.5325" width="581.996364" height="348.18"/>
  </clipPath>
 </defs>
</svg>
